<svg xmlns="http://www.w3.org/2000/svg" xmlns:xlink="http://www.w3.org/1999/xlink"  viewBox="0 0 456 320">
<g>
<rect width="456" height="320" fill="#000000"  stroke-width="0" /> 
<path  fill="#1E9C59" stroke-width="0" stroke="#1E9C59" d = " M131 86 L132,86 C132,83.302 144.249,78.1253 146.5,77 146.5,77 151.5,73 151.5,73 156.749,70.3754 163.135,69.6827 168.5,67 173.762,64.3692 181.267,65.6166 186.5,63 188.586,61.957 195.944,60.7222 198.5,62 201.613,63.5563 205.353,63.4263 208.5,65 208.5,65 217,73 217,73 217,73 221,70 221,70 221,67.1661 210.077,58.2884 207.5,57 207.5,57 203.5,57 203.5,57 189.06,49.7801 160.002,62.7489 147.5,69 144.958,70.2712 132.427,79 131,79 131,81.5834 131,82.9344 131,86  Z"/>

<path  fill="#1E9C59" stroke-width="0" stroke="#1E9C59" d = " M326 79 L325,85 C319.513,85 313.308,77.4039 308.5,75 296.73,69.1151 276.881,62 263,62 257.687,62 240,65.8084 240,73 240,73 239,73 239,73 239,73 236,70 236,70 236,62.7325 248.249,59.1257 252.5,57 266.618,49.9411 297.166,62.8328 309.5,69 309.5,69 326,79 326,79  Z"/>

<path  fill="#1E9D58" stroke-width="0" stroke="#1E9D58" d = " M133 103 L134,103 C134,103 143.5,95 143.5,95 153.066,90.2171 161.896,83.8021 171.5,79 177.86,75.8198 196.191,69.3455 203.5,73 203.5,73 211,78 211,78 211,78 217,74 217,74 217,74 217,73 217,73 217,73 208.5,65 208.5,65 205.353,63.4263 201.613,63.5563 198.5,62 195.944,60.7222 188.586,61.957 186.5,63 181.267,65.6166 173.762,64.3692 168.5,67 163.135,69.6827 156.749,70.3754 151.5,73 151.5,73 146.5,77 146.5,77 144.249,78.1253 132,83.302 132,86 132,92.348 133,97.213 133,103  Z"/>

<path  fill="#1E9D58" stroke-width="0" stroke="#1E9D58" d = " M325 86 C325,92.2593 323,95.9373 323,103 323,103 312.5,95 312.5,95 301.536,89.5179 291.414,82.4571 280.5,77 275.225,74.3624 259.45,70.0249 253.5,73 253.5,73 245,78 245,78 243.343,78 240,74.5479 240,73 240,65.8084 257.687,62 263,62 276.881,62 296.73,69.1151 308.5,75 313.308,77.4039 319.513,85 325,85 325,85 325,86 325,86  Z"/>

<path  fill="#3EA665" stroke-width="0" stroke="#3EA665" d = " M222 93 C224.924,93 231.076,93 234,93 234,84.1988 239,77.5183 239,73 239,73 236,70 236,70 236,70 229,80.5 229,80.5 229,80.5 228.5,83 228.5,83 228.5,83 221,70 221,70 221,70 217,73 217,73 217,73 217,74 217,74 217,74 221,80.5 221,80.5 221,80.5 222,93 222,93  Z"/>

<path  fill="#1F9D58" stroke-width="0" stroke="#1F9D58" d = " M136 148 L133,149 C133,145.677 129.625,140.249 131,137.5 134.467,130.566 134,112.396 134,103 134,103 143.5,95 143.5,95 153.066,90.2171 161.896,83.8021 171.5,79 177.86,75.8198 196.191,69.3455 203.5,73 203.5,73 211,78 211,78 211,78 211,79 211,79 209.885,79 194,96.9663 194,99 194,99 193,99 193,99 193,97.0368 189.017,96.2414 187.5,97 181.305,100.097 174.75,101.875 168.5,105 149.878,114.311 136,123.593 136,147 136,147 136,148 136,148  Z"/>

<path  fill="#1F9D58" stroke-width="0" stroke="#1F9D58" d = " M321 147 C321,149.293 321.997,149 324,149 324,134.935 323,118.059 323,104 323,104 323,103 323,103 323,103 312.5,95 312.5,95 301.536,89.5179 291.414,82.4571 280.5,77 275.225,74.3624 259.45,70.0249 253.5,73 253.5,73 245,78 245,78 245,78 245,79 245,79 247.172,79 262,97.1531 262,99 262,99 263,99 263,99 263,97.0368 266.983,96.2414 268.5,97 274.285,99.8927 280.704,101.102 286.5,104 304.699,113.099 321,124.105 321,147  Z"/>

<path  fill="#40A565" stroke-width="0" stroke="#40A565" d = " M234 93 L240,95 C240,90.5195 245,80.4607 245,79 245,79 245,78 245,78 243.343,78 240,74.5479 240,73 240,73 239,73 239,73 239,77.5183 234,84.1988 234,93  Z"/>

<path  fill="#40A565" stroke-width="0" stroke="#40A565" d = " M222 93 L216,95 C216,92.0442 215.075,79 211,79 211,79 211,78 211,78 211,78 217,74 217,74 217,74 221,80.5 221,80.5 221,80.5 222,93 222,93  Z"/>

<path  fill="#1E9D5A" stroke-width="0" stroke="#1E9D5A" d = " M101 167 L97,169 C97,169 95,165.5 95,165.5 92.5177,160.535 90.2739,134.952 93,129.5 96.6237,122.253 100.334,114.832 104,107.5 106.056,103.387 111.323,99.8545 113,96.5 114.543,93.4147 128.817,79 131,79 131,81.5834 131,82.9344 131,86 131,86 121.5,94 121.5,94 114.337,101.163 107.302,109.895 103,118.5 99.1552,126.19 93.2363,139.973 98,149.5 98,149.5 98,154.5 98,154.5 99.6902,157.88 101,163.029 101,167  Z"/>

<path  fill="#3EA566" stroke-width="0" stroke="#3EA566" d = " M198 103 L199,103 C199,101.36 213.681,95 216,95 216,92.0442 215.075,79 211,79 209.885,79 194,96.9663 194,99 194,99 198,103 198,103  Z"/>

<path  fill="#3EA566" stroke-width="0" stroke="#3EA566" d = " M257 103 L258,103 C258,103 262,99 262,99 262,97.1531 247.172,79 245,79 245,80.4607 240,90.5195 240,95 242.644,95 257,101.092 257,103  Z"/>

<path  fill="#1E9D5A" stroke-width="0" stroke="#1E9D5A" d = " M355 168 C355,168.546 357.571,169 359,169 362.659,169 362.589,147.321 364,144.5 369.508,133.484 348.355,95.9277 338.5,91 335.19,89.3448 329.941,79 326,79 326,79 325,85 325,85 325,85 325,86 325,86 328.857,86 341.343,101.187 343,104.5 345.001,108.501 350.63,112.76 353,117.5 353,117.5 359,131.5 359,131.5 363.512,140.524 355,159.1 355,167 355,167 355,168 355,168  Z"/>

<path  fill="#1F9C58" stroke-width="0" stroke="#1F9C58" d = " M101 167 L102,167 C105.985,167 109.49,161 113,161 113,157.92 112.369,152.238 111,149.5 108.61,144.72 115.97,126.56 118,122.5 120.308,117.883 133,105.212 133,103 133,97.213 132,92.348 132,86 132,86 131,86 131,86 131,86 121.5,94 121.5,94 114.337,101.163 107.302,109.895 103,118.5 99.1552,126.19 93.2363,139.973 98,149.5 98,149.5 98,154.5 98,154.5 99.6902,157.88 101,163.029 101,167  Z"/>

<path  fill="#1F9C58" stroke-width="0" stroke="#1F9C58" d = " M343 161 C347.199,161 350.261,167 355,167 355,159.1 363.512,140.524 359,131.5 359,131.5 353,117.5 353,117.5 350.63,112.76 345.001,108.501 343,104.5 341.343,101.187 328.857,86 325,86 325,92.2593 323,95.9373 323,103 323,103 323,104 323,104 323,104 329.5,111 329.5,111 335.988,114.244 345,134.893 345,142.5 345,145.612 345.096,160 343,160 343,160 343,161 343,161  Z"/>

<path  fill="#2FA74F" stroke-width="0" stroke="#2FA74F" d = " M219 132 L223,132 C223,119.181 222,106.28 222,93 222,93 216,95 216,95 216,98.7124 215.727,121.953 217,124.5 217.946,126.392 219,129.872 219,132  Z"/>

<path  fill="#2FA750" stroke-width="0" stroke="#2FA750" d = " M223 132 L233,132 C233,119.778 234,105.899 234,93 231.076,93 224.924,93 222,93 222,106.28 223,119.181 223,132  Z"/>

<path  fill="#2FA74F" stroke-width="0" stroke="#2FA74F" d = " M233 132 L238,132 C238,119.866 240,107.63 240,95 240,95 234,93 234,93 234,105.899 233,119.778 233,132  Z"/>

<path  fill="#2EA84F" stroke-width="0" stroke="#2EA84F" d = " M204 131 C209.039,131 214.575,132 219,132 219,129.872 217.946,126.392 217,124.5 215.727,121.953 216,98.7124 216,95 213.681,95 199,101.36 199,103 199,112.086 204,121.668 204,131  Z"/>

<path  fill="#2EA84F" stroke-width="0" stroke="#2EA84F" d = " M252 131 L253,131 C253,121.274 257,112.285 257,103 257,101.092 242.644,95 240,95 240,107.63 238,119.866 238,132 242.121,132 247.275,131 252,131  Z"/>

<path  fill="#1D9C5A" stroke-width="0" stroke="#1D9C5A" d = " M164 133 C151.5,133 143.44,147 136,147 136,123.593 149.878,114.311 168.5,105 174.75,101.875 181.305,100.097 187.5,97 189.017,96.2414 193,97.0368 193,99 193,99 187,111 187,111 185.609,111 182,116.706 182,118 176.694,118 173.827,120.836 169.5,123 168.618,123.441 166.809,128 169,128 169,128 164,133 164,133  Z"/>

<path  fill="#1D9C5A" stroke-width="0" stroke="#1D9C5A" d = " M320 147 L321,147 C321,124.105 304.699,113.099 286.5,104 280.704,101.102 274.285,99.8927 268.5,97 266.983,96.2414 263,97.0368 263,99 263,99 269,111 269,111 270.874,111 274,116.55 274,118 280.951,118 288,122.198 288,128 288,129.252 291.172,133 292,133 305.498,133 313.999,147 320,147  Z"/>

<path  fill="#3FA664" stroke-width="0" stroke="#3FA664" d = " M198 103 C198,105.223 189.512,111 187,111 187,111 193,99 193,99 193,99 194,99 194,99 194,99 198,103 198,103  Z"/>

<path  fill="#3FA664" stroke-width="0" stroke="#3FA664" d = " M258 103 C262.327,103 264.334,111 269,111 269,111 263,99 263,99 263,99 262,99 262,99 262,99 258,103 258,103  Z"/>

<path  fill="#1E9C5A" stroke-width="0" stroke="#1E9C5A" d = " M133 149 C133,151.649 127.746,150.009 127,151.5 126.247,153.006 115.342,161 113,161 113,157.92 112.369,152.238 111,149.5 108.61,144.72 115.97,126.56 118,122.5 120.308,117.883 133,105.212 133,103 133,103 134,103 134,103 134,112.396 134.467,130.566 131,137.5 129.625,140.249 133,145.677 133,149  Z"/>

<path  fill="#2FA850" stroke-width="0" stroke="#2FA850" d = " M199 131 L204,131 C204,121.668 199,112.086 199,103 199,103 198,103 198,103 198,105.223 189.512,111 187,111 185.609,111 182,116.706 182,118 182,118 185,121 185,121 185,121 199,131 199,131  Z"/>

<path  fill="#2FA850" stroke-width="0" stroke="#2FA850" d = " M253 131 L257,131 C257,131 260.5,129 260.5,129 263.714,127.393 267.3,122 271,122 271,122 274,118 274,118 274,116.55 270.874,111 269,111 264.334,111 262.327,103 258,103 258,103 257,103 257,103 257,112.285 253,121.274 253,131  Z"/>

<path  fill="#1E9C5A" stroke-width="0" stroke="#1E9C5A" d = " M324 149 C324,150.183 327.57,150.535 328.5,151 331.897,152.699 338.237,160 343,160 345.096,160 345,145.612 345,142.5 345,134.893 335.988,114.244 329.5,111 329.5,111 323,104 323,104 323,118.059 324,134.935 324,149  Z"/>

<path  fill="#268E44" stroke-width="0" stroke="#268E44" d = " M180 122 L185,123 C185,123 185,121 185,121 185,121 182,118 182,118 176.694,118 173.827,120.836 169.5,123 168.618,123.441 166.809,128 169,128 173.065,128 176.21,122 180,122  Z"/>

<path  fill="#268E44" stroke-width="0" stroke="#268E44" d = " M276 122 L288,128 C288,122.198 280.951,118 274,118 274,118 271,122 271,122 271,122 271,123 271,123 271,123 276,122 276,122  Z"/>

<path  fill="#22885E" stroke-width="0" stroke="#22885E" d = " M200 153 L201,154 C207.912,154 206,148.887 206,144 206,144 206,142 206,142 204.705,142 199,132.311 199,131 199,131 185,121 185,121 185,121 185,123 185,123 185,131.697 200,143.64 200,153  Z"/>

<path  fill="#24895D" stroke-width="0" stroke="#24895D" d = " M149 158 L149,159 C158.955,159 166.917,144 180,144 180,141.329 178,138.746 178,136.5 178,133.231 180,126.535 180,122 176.21,122 173.065,128 169,128 169,128 164,133 164,133 164,139.559 153,145.443 153,152 153,152 152,153 152,153 152,153 151,155 151,155 151,156.238 150.577,158 149,158  Z"/>

<path  fill="#238A5C" stroke-width="0" stroke="#238A5C" d = " M181 144 L200,153 C200,143.64 185,131.697 185,123 185,123 180,122 180,122 180,126.535 178,133.231 178,136.5 178,138.746 180,141.329 180,144 180,144 181,144 181,144  Z"/>

<path  fill="#22885E" stroke-width="0" stroke="#22885E" d = " M256 153 L255,154 C248.868,154 250,149.185 250,144 250,144 251,141 251,141 252.773,141 255,133.941 255,133.5 255,133.5 257,131 257,131 257,131 260.5,129 260.5,129 263.714,127.393 267.3,122 271,122 271,122 271,123 271,123 271,123 256,153 256,153  Z"/>

<path  fill="#238A5C" stroke-width="0" stroke="#238A5C" d = " M276 144 C268.511,144 263.225,153 256,153 256,153 271,123 271,123 271,123 276,122 276,122 276,126.01 280.162,133.176 278,137.5 278,137.5 276,144 276,144  Z"/>

<path  fill="#24895D" stroke-width="0" stroke="#24895D" d = " M305 155 L307,159 C297.784,159 290.403,144 276,144 276,144 278,137.5 278,137.5 280.162,133.176 276,126.01 276,122 276,122 288,128 288,128 288,129.252 291.172,133 292,133 292,133 304,153 304,153 304,153 305,154 305,154 305,154 305,155 305,155  Z"/>

<path  fill="#58B362" stroke-width="0" stroke="#58B362" d = " M204 131 C204,134.492 206,138.709 206,142 204.705,142 199,132.311 199,131 199,131 204,131 204,131  Z"/>

<path  fill="#59B262" stroke-width="0" stroke="#59B262" d = " M206 144 C208.082,144 214.895,163 219,163 219,152.999 219,142.374 219,132 214.575,132 209.039,131 204,131 204,134.492 206,138.709 206,142 206,142 206,144 206,144  Z"/>

<path  fill="#59B262" stroke-width="0" stroke="#59B262" d = " M250 144 C249.447,144 241.529,163 237,163 237,152.783 238,141.534 238,132 242.121,132 247.275,131 252,131 252,131 251,141 251,141 251,141 250,144 250,144  Z"/>

<path  fill="#58B362" stroke-width="0" stroke="#58B362" d = " M257 131 L255,133.5 C255,133.941 252.773,141 251,141 251,141 252,131 252,131 252,131 253,131 253,131 253,131 257,131 257,131  Z"/>

<path  fill="#59B362" stroke-width="0" stroke="#59B362" d = " M219 164 C220.624,164 221.75,166 224,166 224,161.404 227.369,152.238 225,147.5 222.738,142.976 223,137.469 223,132 223,132 219,132 219,132 219,142.374 219,152.999 219,163 219,163 219,164 219,164  Z"/>

<path  fill="#59B263" stroke-width="0" stroke="#59B263" d = " M224 168 L233,168 C233,168 233,167 233,167 231.257,167 232,160.032 232,158.5 232,158.5 233,132 233,132 233,132 223,132 223,132 223,137.469 222.738,142.976 225,147.5 227.369,152.238 224,161.404 224,166 224,166 224,168 224,168  Z"/>

<path  fill="#59B362" stroke-width="0" stroke="#59B362" d = " M237 164 L233,167 C231.257,167 232,160.032 232,158.5 232,158.5 233,132 233,132 233,132 238,132 238,132 238,141.534 237,152.783 237,163 237,163 237,164 237,164  Z"/>

<path  fill="#209666" stroke-width="0" stroke="#209666" d = " M147 159 L148,159 C148,159 149,158 149,158 149,156.762 149.423,155 151,155 151,155 152,153 152,153 152,153 153,152 153,152 153,145.443 164,139.559 164,133 151.5,133 143.44,147 136,147 136,147 136,148 136,148 136,153.684 141.316,159 147,159  Z"/>

<path  fill="#209666" stroke-width="0" stroke="#209666" d = " M305 155 C306.366,155 309,157.366 309,159 315.962,159 320,153.781 320,147 313.999,147 305.498,133 292,133 292,133 304,153 304,153 304,153 305,154 305,154 305,154 305,155 305,155  Z"/>

<path  fill="#228A5D" stroke-width="0" stroke="#228A5D" d = " M189 163 C186.971,163 187.119,161.809 185.5,161 179.622,158.061 168.016,166.742 163.5,169 L147,181 C147,181 145,177.5 145,177.5 140.91,169.32 149,166.624 149,159 158.955,159 166.917,144 180,144 180,144 181,144 181,144 181,150.865 189,155.493 189,163  Z"/>

<path  fill="#23885C" stroke-width="0" stroke="#23885C" d = " M189 164 L203,174 C204.965,174 204,169.794 204,169.5 204,165.059 201,158.694 201,154 201,154 200,153 200,153 200,153 181,144 181,144 181,150.865 189,155.493 189,163 189,163 189,164 189,164  Z"/>

<path  fill="#23885E" stroke-width="0" stroke="#23885E" d = " M203 174 L203,175 C209.932,175 219,173.917 219,164 219,164 219,163 219,163 214.895,163 208.082,144 206,144 206,148.887 207.912,154 201,154 201,158.694 204,165.059 204,169.5 204,169.794 204.965,174 203,174  Z"/>

<path  fill="#23885E" stroke-width="0" stroke="#23885E" d = " M253 174 L253,175 C246.545,175 237,173.006 237,164 237,164 237,163 237,163 241.529,163 249.447,144 250,144 250,149.185 248.868,154 255,154 255,157.066 253.376,162.748 252,165.5 252,165.5 253,174 253,174  Z"/>

<path  fill="#23885C" stroke-width="0" stroke="#23885C" d = " M266 165 L253,174 C253,174 252,165.5 252,165.5 253.376,162.748 255,157.066 255,154 255,154 256,153 256,153 263.225,153 268.511,144 276,144 276,147.984 267,158.217 267,163 267,163 267,164 267,164 267,164 266,165 266,165  Z"/>

<path  fill="#228A5D" stroke-width="0" stroke="#228A5D" d = " M267 163 L271.5,161 C275.989,158.756 285.979,165.24 289.5,167 293.875,169.188 306.234,181 310,181 310,178.041 314.993,175.486 313,171.5 311.687,168.875 307,161.666 307,159 297.784,159 290.403,144 276,144 276,147.984 267,158.217 267,163  Z"/>

<path  fill="#209665" stroke-width="0" stroke="#209665" d = " M332 187 L333,187 C333,186.243 343,168.929 343,161 343,161 343,160 343,160 338.237,160 331.897,152.699 328.5,151 327.57,150.535 324,150.183 324,149 321.997,149 321,149.293 321,147 321,147 320,147 320,147 320,153.781 315.962,159 309,159 309,162.11 323.37,177.87 326.5,181 326.5,181 332,187 332,187  Z"/>

<path  fill="#209665" stroke-width="0" stroke="#209665" d = " M123 187 L125,187 C125,181.903 147,166.676 147,159 141.316,159 136,153.684 136,148 136,148 133,149 133,149 133,151.649 127.746,150.009 127,151.5 126.247,153.006 115.342,161 113,161 113,169.123 123,183.333 123,187  Z"/>

<path  fill="#1F9866" stroke-width="0" stroke="#1F9866" d = " M153 152 L152,153 C152,153 153,152 153,152  Z"/>

<path  fill="#1F9866" stroke-width="0" stroke="#1F9866" d = " M152 153 L151,155 C151,155 152,153 152,153  Z"/>

<path  fill="#23885E" stroke-width="0" stroke="#23885E" d = " M256 153 L255,154 C255,154 256,153 256,153  Z"/>

<path  fill="#1F9866" stroke-width="0" stroke="#1F9866" d = " M304 153 L305,154 C305,154 304,153 304,153  Z"/>

<path  fill="#1F9866" stroke-width="0" stroke="#1F9866" d = " M151 155 C149.423,155 149,156.762 149,158 150.577,158 151,156.238 151,155  Z"/>

<path  fill="#1F9866" stroke-width="0" stroke="#1F9866" d = " M307 159 L309,159 C309,157.366 306.366,155 305,155 305,155 307,159 307,159  Z"/>

<path  fill="#1F9866" stroke-width="0" stroke="#1F9866" d = " M148 159 L149,159 C149,159 149,158 149,158 149,158 148,159 148,159  Z"/>

<path  fill="#1F9865" stroke-width="0" stroke="#1F9865" d = " M147 182 C140.529,182 135.835,192.668 128.5,189 127.342,188.421 125,189.341 125,187 125,181.903 147,166.676 147,159 147,159 148,159 148,159 148,159 149,159 149,159 149,166.624 140.91,169.32 145,177.5 145,177.5 147,181 147,181 147,181 147,182 147,182  Z"/>

<path  fill="#1F9865" stroke-width="0" stroke="#1F9865" d = " M310 182 C315.393,182 321.002,192.749 328.5,189 329.658,188.421 332,189.341 332,187 332,187 326.5,181 326.5,181 323.37,177.87 309,162.11 309,159 309,159 307,159 307,159 307,161.666 311.687,168.875 313,171.5 314.993,175.486 310,178.041 310,181 310,181 310,182 310,182  Z"/>

<path  fill="#209765" stroke-width="0" stroke="#209765" d = " M113 195 L114,195 C114,191.382 123,190.972 123,187 123,183.333 113,169.123 113,161 109.49,161 105.985,167 102,167 102,176.378 113,186.942 113,195  Z"/>

<path  fill="#238A5E" stroke-width="0" stroke="#238A5E" d = " M148 185 L149,185 C150.714,185 152.482,183 155,183 158.451,183 162.468,178.516 165.5,177 169.366,175.067 176.212,177 181,177 181,177 188,179 188,179 188,175.933 188.765,174.971 190,172.5 191.284,169.932 189,166.014 189,164 189,164 189,163 189,163 186.971,163 187.119,161.809 185.5,161 179.622,158.061 168.016,166.742 163.5,169 163.5,169 147,181 147,181 147,181 147,182 147,182 147,182 148,185 148,185  Z"/>

<path  fill="#238A5E" stroke-width="0" stroke="#238A5E" d = " M307 185 L308,185 C308,185 310,182 310,182 310,182 310,181 310,181 306.234,181 293.875,169.188 289.5,167 285.979,165.24 275.989,158.756 271.5,161 271.5,161 267,163 267,163 267,163 267,164 267,164 267,164 266,165 266,165 266,170.28 268,173.97 268,179 268,179 276,177 276,177 280.537,177 286.754,175.127 290.5,177 290.5,177 302,183 302,183 304.25,183 305.376,185 307,185  Z"/>

<path  fill="#209765" stroke-width="0" stroke="#209765" d = " M333 187 C333,189.257 340.608,194 343,194 343,194 351,178.5 351,178.5 351.757,176.987 353.388,168 355,168 355,168 355,167 355,167 350.261,167 347.199,161 343,161 343,168.929 333,186.243 333,187  Z"/>

<path  fill="#248A5D" stroke-width="0" stroke="#248A5D" d = " M199 180 C200.564,180 202.876,181 205,181 205,177.666 203,177.439 203,175 203,175 203,174 203,174 203,174 189,164 189,164 189,166.014 191.284,169.932 190,172.5 188.765,174.971 188,175.933 188,179 188,179 199,180 199,180  Z"/>

<path  fill="#24885D" stroke-width="0" stroke="#24885D" d = " M205 181 L219,181 C219,176.283 224,172.764 224,168 224,168 224,166 224,166 221.75,166 220.624,164 219,164 219,173.917 209.932,175 203,175 203,177.439 205,177.666 205,181  Z"/>

<path  fill="#24885D" stroke-width="0" stroke="#24885D" d = " M238 181 L251,181 C251,177.666 253,177.439 253,175 246.545,175 237,173.006 237,164 237,164 233,167 233,167 233,167 233,168 233,168 233,173.068 238,176.578 238,181  Z"/>

<path  fill="#248A5D" stroke-width="0" stroke="#248A5D" d = " M267 164 L266,165 C266,165 267,164 267,164  Z"/>

<path  fill="#248A5D" stroke-width="0" stroke="#248A5D" d = " M258 180 L251,181 C251,177.666 253,177.439 253,175 253,175 253,174 253,174 253,174 266,165 266,165 266,170.28 268,173.97 268,179 268,179 258,180 258,180  Z"/>

<path  fill="#209764" stroke-width="0" stroke="#209764" d = " M113 195 L109,197 C109,192.53 97,176.005 97,169 97,169 101,167 101,167 101,167 102,167 102,167 102,176.378 113,186.942 113,195  Z"/>

<path  fill="#23895D" stroke-width="0" stroke="#23895D" d = " M229 180 C231.723,180 234.778,181 238,181 238,176.578 233,173.068 233,168 233,168 224,168 224,168 224,172.764 219,176.283 219,181 221.707,181 224.903,180 227,180 227,178.765 226.357,175 228,175 228,171.127 229,175.08 229,177 229,177 229,180 229,180  Z"/>

<path  fill="#209764" stroke-width="0" stroke="#209764" d = " M343 195 L347,197 C347,197 350,191.5 350,191.5 353.09,185.32 359,176.135 359,169 357.571,169 355,168.546 355,168 353.388,168 351.757,176.987 351,178.5 351,178.5 343,194 343,194 343,194 343,195 343,195  Z"/>

<path  fill="#99D2BD" stroke-width="0" stroke="#99D2BD" d = " M227 180 C227,181.919 229,182.488 229,180 229,180 229,177 229,177 229,177 228,175 228,175 226.357,175 227,178.765 227,180  Z"/>

<path  fill="#6ACAB9" stroke-width="0" stroke="#6ACAB9" d = " M170 227 C170,230.732 170.555,235.391 169,238.5 L165,243 C158.487,243 146.06,227 131,227 126.239,227 116.198,217.103 119,211.5 120.05,209.4 121,209.606 121,207 127.004,207 137.659,193.921 143.5,191 143.5,191 150,186 150,186 150,186 155,183 155,183 158.451,183 162.468,178.516 165.5,177 169.366,175.067 176.212,177 181,177 181,188.938 165.152,193.197 160,203.5 158.734,206.033 170,221.133 170,227  Z"/>

<path  fill="#6ACAB9" stroke-width="0" stroke="#6ACAB9" d = " M325 228 C325,225.709 316.564,227.468 315.5,228 309.977,230.761 296.188,243 291,243 291,240.531 288.213,239.926 287,237.5 287,237.5 287,227 287,227 287,219.607 298.132,206.764 296,202.5 291.456,193.411 276,189.211 276,177 280.537,177 286.754,175.127 290.5,177 290.5,177 302,183 302,183 302,183 307,187 307,187 312.04,187 328.397,207 336,207 336,207 337,216.5 337,216.5 335.22,220.06 329.495,228 325,228  Z"/>

<path  fill-rule="evenodd" fill="#99D2BD" stroke-width="0" stroke="#99D2BD" d = " M168 201 C168,202.991 163.716,203.931 165,206.5 165.814,208.129 166.231,209.963 167,211.5 172.291,222.083 177.811,201 168,201  M183 219 C178.406,219 170.926,227 170,227 170,221.133 158.734,206.033 160,203.5 165.152,193.197 181,188.938 181,177 181,177 188,179 188,179 188,179 199,180 199,180 199,183.015 201,186.004 201,188 192.735,188 188.599,198 187,198 187,194.461 179.638,201.225 179,202.5 175.778,208.943 183,214.25 183,219  Z"/>

<path  fill-rule="evenodd" fill="#99D2BD" stroke-width="0" stroke="#99D2BD" d = " M285 201 L283,206.5 C283,208.472 283.199,208.898 284,210.5 L284.5,215 C287.364,216.432 297.385,201 285,201  M274 218 L283.5,224 L287,227 C287,219.607 298.132,206.764 296,202.5 291.456,193.411 276,189.211 276,177 276,177 268,179 268,179 268,179 258,180 258,180 258,180 256,188 256,188 263.221,188 267.227,197 269,197 272.457,197 273.713,197.926 275,200.5 275,200.5 278,203.5 278,203.5 280.714,208.927 274,213.91 274,218  Z"/>

<path  fill="#A3DAA3" stroke-width="0" stroke="#A3DAA3" d = " M229 192 C232.613,192 240.484,188.992 244.5,191 L248,193 C248,193 256,188 256,188 256,188 258,180 258,180 258,180 251,181 251,181 251,181 238,181 238,181 234.778,181 231.723,180 229,180 229,182.488 227,181.919 227,180 224.903,180 221.707,181 219,181 219,181 205,181 205,181 202.876,181 200.564,180 199,180 199,183.015 201,186.004 201,188 201,189.741 206.95,193 209,193 209,189.713 224.192,191 227,191 228.638,191 229,187.487 229,192  Z"/>

<path  fill="#219764" stroke-width="0" stroke="#219764" d = " M123 187 L125,187 C125,189.341 127.342,188.421 128.5,189 135.835,192.668 140.529,182 147,182 147,182 148,185 148,185 148,185 141.5,190 141.5,190 135.656,192.922 124.478,206.978 117,199.5 117,199.5 114,195 114,195 114,191.382 123,190.972 123,187  Z"/>

<path  fill="#219764" stroke-width="0" stroke="#219764" d = " M343 194 L343,195 C343,195 337.5,201 337.5,201 330.635,204.432 318.119,193.619 314,189.5 314,189.5 308,185 308,185 308,185 310,182 310,182 315.393,182 321.002,192.749 328.5,189 329.658,188.421 332,189.341 332,187 332,187 333,187 333,187 333,189.257 340.608,194 343,194  Z"/>

<path  fill="#238A5D" stroke-width="0" stroke="#238A5D" d = " M149 185 L150,186 C150,186 155,183 155,183 152.482,183 150.714,185 149,185  Z"/>

<path  fill="#238A5D" stroke-width="0" stroke="#238A5D" d = " M307 185 L307,187 C307,187 302,183 302,183 304.25,183 305.376,185 307,185  Z"/>

<path  fill="#209864" stroke-width="0" stroke="#209864" d = " M109 197 C109,202.204 116.343,207 121,207 127.004,207 137.659,193.921 143.5,191 143.5,191 150,186 150,186 150,186 149,185 149,185 149,185 148,185 148,185 148,185 141.5,190 141.5,190 135.656,192.922 124.478,206.978 117,199.5 117,199.5 114,195 114,195 114,195 113,195 113,195 113,195 109,197 109,197  Z"/>

<path  fill="#209864" stroke-width="0" stroke="#209864" d = " M347 197 C347,201.791 340.566,207 336,207 328.397,207 312.04,187 307,187 307,187 307,185 307,185 307,185 308,185 308,185 308,185 314,189.5 314,189.5 318.119,193.619 330.635,204.432 337.5,201 337.5,201 343,195 343,195 343,195 347,197 347,197  Z"/>

<path  fill="#54BF94" stroke-width="0" stroke="#54BF94" d = " M185 259 L187,259 C192.008,259 192.198,252 195,252 195,252 195,251 195,251 195,251 196,250 196,250 196,246.891 200.049,244.402 201,242.5 205.766,232.968 217.075,230 227,230 227,230 227,222.5 227,222.5 227,222.5 225,221 225,221 225,221 219.5,221 219.5,221 216.447,219.474 209,196.517 209,193 206.95,193 201,189.741 201,188 192.735,188 188.599,198 187,198 187,198 188,218.5 188,218.5 188,218.5 183,219 183,219 178.406,219 170.926,227 170,227 170,230.732 170.555,235.391 169,238.5 169,238.5 165,243 165,243 165,244.624 167,245.75 167,248 167,248 168,250 168,250 168,250 173,253 173,253 173,253 174,254 174,254 174,254 175,254 175,254 175,254 176,255 176,255 176,255 177,255 177,255 177,255 181,257 181,257 181,257 182,257 182,257 182,257 183,258 183,258 183,258 184,258 184,258 184,258 185,259 185,259  Z"/>

<path  fill="#54BF94" stroke-width="0" stroke="#54BF94" d = " M269 259 L271,259 C271,259 272,258 272,258 272,258 273,258 273,258 273,258 274,257 274,257 274,257 276,257 276,257 276,257 277,256 277,256 277,256 278,256 278,256 278,256 279,255 279,255 279,255 282,254 282,254 282,254 283,253 283,253 283,253 284,253 284,253 284,253 285,252 285,252 285,252 286,251 286,251 286,251 288,250 288,250 288,250 289,249 289,249 289,249 289,247 289,247 289,247 291,243 291,243 291,240.531 288.213,239.926 287,237.5 287,237.5 287,227 287,227 287,227 283.5,224 283.5,224 283.5,224 274,218 274,218 274,218 269.5,219 269.5,219 269.5,219 269,213.5 269,213.5 269,207.529 269,202.715 269,197 267.227,197 263.221,188 256,188 256,188 248,193 248,193 248,194.835 238.818,220.341 237.5,221 237.5,221 231,221 231,221 231,221 229,222.5 229,222.5 227.818,224.864 230,228.196 230,230 230,230 238.5,230 238.5,230 243.664,232.582 260,241.829 260,249 260,249 261,250 261,250 261,250 261,251 261,251 263.703,251 263.718,259 269,259  Z"/>

<path  fill="#99D2BD" stroke-width="0" stroke="#99D2BD" d = " M227 191 C228.638,191 229,187.487 229,192 229,203.364 227,198.908 227,191  Z"/>

<path  fill="#61D09F" stroke-width="0" stroke="#61D09F" d = " M225 221 L231,221 C231,221 237.5,221 237.5,221 238.818,220.341 248,194.835 248,193 248,193 244.5,191 244.5,191 240.484,188.992 232.613,192 229,192 229,203.364 227,198.908 227,191 224.192,191 209,189.713 209,193 209,196.517 216.447,219.474 219.5,221 219.5,221 225,221 225,221  Z"/>

<path  fill="#CBCBC7" stroke-width="0" stroke="#CBCBC7" d = " M187 198 L188,218.5 L183,219 C183,214.25 175.778,208.943 179,202.5 179.638,201.225 187,194.461 187,198  Z"/>

<path  fill="#CBCBC7" stroke-width="0" stroke="#CBCBC7" d = " M269 197 C272.457,197 273.713,197.926 275,200.5 L278,203.5 C280.714,208.927 274,213.91 274,218 274,218 269.5,219 269.5,219 269.5,219 269,213.5 269,213.5 269,207.529 269,202.715 269,197  Z"/>

<path  fill="#A0EE9C" stroke-width="0" stroke="#A0EE9C" d = " M168 201 C168,202.991 163.716,203.931 165,206.5 165.814,208.129 166.231,209.963 167,211.5 172.291,222.083 177.811,201 168,201  Z"/>

<path  fill="#A0EE9C" stroke-width="0" stroke="#A0EE9C" d = " M285 201 L283,206.5 C283,208.472 283.199,208.898 284,210.5 L284.5,215 C287.364,216.432 297.385,201 285,201  Z"/>

<path  fill="#99D2BD" stroke-width="0" stroke="#99D2BD" d = " M227 230 C227,231.486 230,231.486 230,230 230,228.196 227.818,224.864 229,222.5 229,222.5 231,221 231,221 231,221 225,221 225,221 225,221 227,222.5 227,222.5 227,222.5 227,230 227,230  Z"/>

<path  fill="#CAC8C7" stroke-width="0" stroke="#CAC8C7" d = " M167 248 L166,249 C161.236,249 131,230.924 131,227 146.06,227 158.487,243 165,243 165,244.624 167,245.75 167,248  Z"/>

<path  fill="#CAC8C7" stroke-width="0" stroke="#CAC8C7" d = " M289 247 L290,249 C299.252,249 307.609,238.946 315.5,235 318.313,233.594 325,232.36 325,228 325,225.709 316.564,227.468 315.5,228 309.977,230.761 296.188,243 291,243 291,243 289,247 289,247  Z"/>

<path  fill="#62CF9E" stroke-width="0" stroke="#62CF9E" d = " M246 263 L249,263 C249,261.546 254.366,261.567 255.5,261 260.627,258.437 261,256.895 261,251 261,251 261,250 261,250 261,250 260,249 260,249 260,241.829 243.664,232.582 238.5,230 238.5,230 230,230 230,230 230,231.486 227,231.486 227,230 217.075,230 205.766,232.968 201,242.5 200.049,244.402 196,246.891 196,250 196,250 195,251 195,251 195,251 195,252 195,252 195,252 195,257.5 195,257.5 196.006,259.512 205.882,263 208,263 214.301,263 222.406,252.687 225,247.5 225,247.5 228.5,241 228.5,241 229.02,241 230.675,246.85 231,247.5 232.46,250.42 240.995,262 245,262 245,262 246,263 246,263  Z"/>

<path  fill="#99D2BD" stroke-width="0" stroke="#99D2BD" d = " M289 249 L290,249 C290,249 289,247 289,247 289,247 289,249 289,249  Z"/>

<path  fill="#99D2BD" stroke-width="0" stroke="#99D2BD" d = " M166 249 L168,250 C168,250 167,248 167,248 167,248 166,249 166,249  Z"/>

<path  fill="#99D2BD" stroke-width="0" stroke="#99D2BD" d = " M260 249 L261,250 C261,250 260,249 260,249  Z"/>

<path  fill="#99D2BD" stroke-width="0" stroke="#99D2BD" d = " M289 249 L288,250 C288,250 289,249 289,249  Z"/>

<path  fill="#99D2BD" stroke-width="0" stroke="#99D2BD" d = " M196 250 L195,251 C195,251 196,250 196,250  Z"/>

<path  fill="#99D2BD" stroke-width="0" stroke="#99D2BD" d = " M269 259 C269,261.934 257.003,264 254.5,264 253.222,264 249,264.665 249,263 249,261.546 254.366,261.567 255.5,261 260.627,258.437 261,256.895 261,251 263.703,251 263.718,259 269,259  Z"/>

<path  fill="#99D2BD" stroke-width="0" stroke="#99D2BD" d = " M286 251 L285,252 C285,252 286,251 286,251  Z"/>

<path  fill="#99D2BD" stroke-width="0" stroke="#99D2BD" d = " M187 259 C187,260.8 199.972,264 202.5,264 203.778,264 208,264.665 208,263 205.882,263 196.006,259.512 195,257.5 195,257.5 195,252 195,252 192.198,252 192.008,259 187,259  Z"/>

<path  fill="#99D2BD" stroke-width="0" stroke="#99D2BD" d = " M285 252 L284,253 C284,253 285,252 285,252  Z"/>

<path  fill="#99D2BD" stroke-width="0" stroke="#99D2BD" d = " M173 253 L174,254 C174,254 173,253 173,253  Z"/>

<path  fill="#99D2BD" stroke-width="0" stroke="#99D2BD" d = " M283 253 L282,254 C282,254 283,253 283,253  Z"/>

<path  fill="#99D2BD" stroke-width="0" stroke="#99D2BD" d = " M175 254 L176,255 C176,255 175,254 175,254  Z"/>

<path  fill="#99D2BD" stroke-width="0" stroke="#99D2BD" d = " M177 255 L181,257 C181,257 177,255 177,255  Z"/>

<path  fill="#99D2BD" stroke-width="0" stroke="#99D2BD" d = " M279 255 L278,256 C278,256 279,255 279,255  Z"/>

<path  fill="#99D2BD" stroke-width="0" stroke="#99D2BD" d = " M277 256 L276,257 C276,257 277,256 277,256  Z"/>

<path  fill="#99D2BD" stroke-width="0" stroke="#99D2BD" d = " M182 257 L183,258 C183,258 182,257 182,257  Z"/>

<path  fill="#99D2BD" stroke-width="0" stroke="#99D2BD" d = " M274 257 L273,258 C273,258 274,257 274,257  Z"/>

<path  fill="#99D2BD" stroke-width="0" stroke="#99D2BD" d = " M184 258 L185,259 C185,259 184,258 184,258  Z"/>

<path  fill="#99D2BD" stroke-width="0" stroke="#99D2BD" d = " M272 258 L271,259 C271,259 272,258 272,258  Z"/>

<path  fill="#99D2BD" stroke-width="0" stroke="#99D2BD" d = " M245 262 L246,263 C246,263 245,262 245,262  Z"/>

</g>
</svg>
