<svg xmlns="http://www.w3.org/2000/svg" xmlns:xlink="http://www.w3.org/1999/xlink"  viewBox="0 0 456 320">
<g>
<rect width="456" height="320" fill="#000000"  stroke-width="0" /> 
<path  fill="#098589" stroke-width="0" stroke="#098589" d = " M83 63 C85.3495,63 84.3825,66 87,66 87,62.5103 97.5663,59.3674 99,56.5 101.236,52.0278 109.12,49.19 113.5,47 116.487,45.5066 119.253,42.1234 121.5,41 121.5,41 147.5,29 147.5,29 152.59,26.4551 160.902,27 167,27 168.357,27 173,27.6471 173,29 173,29 174,29 174,29 174,29 175,24 175,24 146.462,24 135.997,28.7513 111.5,41 111.5,41 101.5,48 101.5,48 99.1775,49.1612 83,60.9586 83,63  Z"/>

<path  fill="#098589" stroke-width="0" stroke="#098589" d = " M373 63 L370,66 C368.007,66 350.401,49.9505 346.5,48 337.322,43.4111 328.683,37.5917 319.5,33 319.5,33 300.5,27 300.5,27 295.969,24.7347 287.382,28 283,28 283,28 281,24 281,24 307.879,24 318.23,27.3648 341.5,39 341.5,39 353.5,47 353.5,47 355.836,48.1681 373,60.4389 373,63  Z"/>

<path  fill="#1BA696" stroke-width="0" stroke="#1BA696" d = " M190 33 L182,39 C182,34.8271 178.694,29 174,29 174,29 175,24 175,24 178.577,24 190,28.9046 190,33  Z"/>

<path  fill="#1BA696" stroke-width="0" stroke="#1BA696" d = " M266 33 L275,39 C275,34.3487 277.755,29 283,29 283,29 283,28 283,28 283,28 281,24 281,24 278.094,24 266,28.8568 266,33  Z"/>

<path  fill="#0A828C" stroke-width="0" stroke="#0A828C" d = " M87 67 L91,73 C91,73 117.5,54 117.5,54 123.725,50.8873 129.169,46.1656 135.5,43 141.598,39.9508 148.378,38.061 154.5,35 154.5,35 169,36 169,36 171.218,36 173,30.8563 173,29 173,27.6471 168.357,27 167,27 160.902,27 152.59,26.4551 147.5,29 147.5,29 121.5,41 121.5,41 119.253,42.1234 116.487,45.5066 113.5,47 109.12,49.19 101.236,52.0278 99,56.5 97.5663,59.3674 87,62.5103 87,66 87,66 87,67 87,67  Z"/>

<path  fill="#0A828C" stroke-width="0" stroke="#0A828C" d = " M370 67 L365,73 C365,73 340.5,55 340.5,55 327.692,48.5958 315.196,41.348 302.5,35 302.5,35 288,36 288,36 285.575,36 283,30.8837 283,29 283,29 283,28 283,28 287.382,28 295.969,24.7347 300.5,27 300.5,27 319.5,33 319.5,33 328.683,37.5917 337.322,43.4111 346.5,48 350.401,49.9505 368.007,66 370,66 370,66 370,67 370,67  Z"/>

<path  fill="#1AA496" stroke-width="0" stroke="#1AA496" d = " M165 41 C167.25,41 168.376,43 170,43 174.178,43 176.934,39 181,39 181,39 182,39 182,39 182,34.8271 178.694,29 174,29 174,29 173,29 173,29 173,30.8563 171.218,36 169,36 169,36 165,40 165,40 165,40 165,41 165,41  Z"/>

<path  fill="#1AA496" stroke-width="0" stroke="#1AA496" d = " M291 41 C288.657,41 287,41.2846 287,44 287,44 275,39 275,39 275,34.3487 277.755,29 283,29 283,30.8837 285.575,36 288,36 288,36 291,41 291,41  Z"/>

<path  fill="#1BA598" stroke-width="0" stroke="#1BA598" d = " M157 73 L158,74 C158,74 181,47.5 181,47.5 181,47.5 189,40.5 189,40.5 189.343,39.8143 193.185,33 190,33 190,33 182,39 182,39 182,39 181,39 181,39 181,51.3061 157,63.5284 157,73  Z"/>

<path  fill="#1BA598" stroke-width="0" stroke="#1BA598" d = " M299 73 L299,75 C299,75 290,64.5 290,64.5 283.573,58.073 268.573,43.6468 265,36.5 265,36.5 266,33 266,33 266,33 275,39 275,39 275,50.6026 299,63.3127 299,73  Z"/>

<path  fill="#0B848B" stroke-width="0" stroke="#0B848B" d = " M91 74 L94,78 C94,78 113.5,63 113.5,63 131.496,54.0018 143.062,40 165,40 165,40 169,36 169,36 169,36 154.5,35 154.5,35 148.378,38.061 141.598,39.9508 135.5,43 129.169,46.1656 123.725,50.8873 117.5,54 117.5,54 91,73 91,73 91,73 91,74 91,74  Z"/>

<path  fill="#0B848B" stroke-width="0" stroke="#0B848B" d = " M365 74 C365,75.2404 363,75.5759 363,78 358.087,78 352.055,68.7774 348.5,67 342.706,64.1032 338.416,57.9582 332.5,55 324.814,51.1571 317.175,46.8376 309.5,43 306.253,41.3766 300.274,40 296.5,40 295.31,40 292,39.3855 292,41 292,41 291,41 291,41 291,41 288,36 288,36 288,36 302.5,35 302.5,35 315.196,41.348 327.692,48.5958 340.5,55 340.5,55 365,73 365,73 365,73 365,74 365,74  Z"/>

<path  fill="#1BA697" stroke-width="0" stroke="#1BA697" d = " M153 73 L157,73 C157,63.5284 181,51.3061 181,39 176.934,39 174.178,43 170,43 170,43 170,44 170,44 170,52.9497 162.709,59.0812 159,66.5 158.282,67.9365 153,70.5692 153,73  Z"/>

<path  fill="#1BA697" stroke-width="0" stroke="#1BA697" d = " M299 73 L304,73 C304,73 296,64.5 296,64.5 292.382,57.2638 287,52.9094 287,44 287,44 275,39 275,39 275,50.6026 299,63.3127 299,73  Z"/>

<path  fill="#088389" stroke-width="0" stroke="#088389" d = " M98 86 L99,86 C102.868,86 106.897,78.3013 109.5,77 122.387,70.5563 133.741,53 149,53 149,53 150,53 150,53 150,53 153,50.5 153,50.5 153.907,48.6858 162.999,41 165,41 165,41 165,40 165,40 143.062,40 131.496,54.0018 113.5,63 113.5,63 94,78 94,78 94,78 98,86 98,86  Z"/>

<path  fill="#088389" stroke-width="0" stroke="#088389" d = " M357 86 L359,86 C359,84.1437 360.782,79 363,79 363,79 363,78 363,78 358.087,78 352.055,68.7774 348.5,67 342.706,64.1032 338.416,57.9582 332.5,55 324.814,51.1571 317.175,46.8376 309.5,43 306.253,41.3766 300.274,40 296.5,40 295.31,40 292,39.3855 292,41 292,41 295.5,44 295.5,44 297.511,46.0113 306,49.8814 306,53 306,53 308,53 308,53 317.733,53 339.205,69.7048 346.5,77 346.5,77 357,86 357,86  Z"/>

<path  fill="#1CA697" stroke-width="0" stroke="#1CA697" d = " M150 53 L154,54 C158.919,54 164.024,44 170,44 170,44 170,43 170,43 168.376,43 167.25,41 165,41 162.999,41 153.907,48.6858 153,50.5 153,50.5 150,53 150,53  Z"/>

<path  fill="#FF7AFD" stroke-width="0" stroke="#FF7AFD" d = " M228 66 L229,66 C229,66 230,65 230,65 230,32.2153 262.621,42.1212 278,57.5 278,57.5 288,69.5 288,69.5 289.171,70.6708 288.774,74 291,74 291,66.8042 284.042,65.5841 281,59.5 275.523,48.5458 253.859,35.8206 241.5,42 241.5,42 231,49.5 231,49.5 229.821,51.857 231.135,57 228.5,57 228.5,57 226.5,51 226.5,51 221.735,48.6177 218.03,43.7651 212.5,41 206.692,38.0958 185,46.1945 185,51 185,51 198.5,44 198.5,44 207.263,39.6184 221.277,45.0535 225,52.5 226.67,55.8394 226,61.0029 226,65 226,65 228,66 228,66  Z"/>

<path  fill="#1CA697" stroke-width="0" stroke="#1CA697" d = " M302 55 L303,55 C303,53.4226 304.762,53 306,53 306,49.8814 297.511,46.0113 295.5,44 295.5,44 292,41 292,41 292,41 291,41 291,41 288.657,41 287,41.2846 287,44 289.215,44 302,52.3742 302,55  Z"/>

<path  fill="#FF78FF" stroke-width="0" stroke="#FF78FF" d = " M167 71 L167,73 C172.517,73 178.674,65.4132 183.5,63 183.5,63 197.5,56 197.5,56 201.337,54.0815 206.602,54.9489 210.5,53 218.219,49.1407 221.494,65 226,65 226,61.0029 226.67,55.8394 225,52.5 221.277,45.0535 207.263,39.6184 198.5,44 198.5,44 185,51 185,51 185,51 171,65 171,65 171,66.417 168.617,71 167,71  Z"/>

<path  fill="#FF78FF" stroke-width="0" stroke="#FF78FF" d = " M291 74 L291,75 C291,75 279.5,67 279.5,67 270.268,62.384 260.606,58.5528 251.5,54 238.915,47.7074 234.431,65 230,65 230,32.2153 262.621,42.1212 278,57.5 278,57.5 288,69.5 288,69.5 289.171,70.6708 288.774,74 291,74  Z"/>

<path  fill="#1AA596" stroke-width="0" stroke="#1AA596" d = " M146 73 L153,73 C153,70.5692 158.282,67.9365 159,66.5 162.709,59.0812 170,52.9497 170,44 164.024,44 158.919,54 154,54 154,54 154,55 154,55 154,61.9376 146,68.2527 146,73  Z"/>

<path  fill="#1AA596" stroke-width="0" stroke="#1AA596" d = " M304 73 L310,73 C310,66.5618 302,61.9939 302,55 302,52.3742 289.215,44 287,44 287,52.9094 292.382,57.2638 296,64.5 296,64.5 304,73 304,73  Z"/>

<path  fill="#FF7AFD" stroke-width="0" stroke="#FF7AFD" d = " M185 51 C181.824,51 171,61.8236 171,65 171,65 185,51 185,51  Z"/>

<path  fill="#08858C" stroke-width="0" stroke="#08858C" d = " M99 86 L99,87 C101.099,87 103.383,90.5583 106.5,89 108.306,88.097 119.252,85 121,85 121,85 127.5,78 127.5,78 127.5,78 141.5,60 141.5,60 141.5,60 149,53 149,53 133.741,53 122.387,70.5563 109.5,77 106.897,78.3013 102.868,86 99,86  Z"/>

<path  fill="#1CA597" stroke-width="0" stroke="#1CA597" d = " M121 85 L125,85 C128.534,85 130.047,79 134,79 134,79 137,76 137,76 137,70.9291 148.616,55 154,55 154,55 154,54 154,54 154,54 150,53 150,53 150,53 149,53 149,53 149,53 141.5,60 141.5,60 141.5,60 127.5,78 127.5,78 127.5,78 121,85 121,85  Z"/>

<path  fill="#FD7AFF" stroke-width="0" stroke="#FD7AFF" d = " M165 75 L165,78 C168.7,78 172.286,72.6071 175.5,71 180.245,68.6276 184.689,65.4055 189.5,63 189.5,63 201.5,59 201.5,59 206.282,56.6092 213.398,58.9492 217.5,61 217.5,61 224.5,68 224.5,68 224.5,68 228,67 228,67 228,67 228,66 228,66 228,66 226,65 226,65 221.494,65 218.219,49.1407 210.5,53 206.602,54.9489 201.337,54.0815 197.5,56 197.5,56 183.5,63 183.5,63 178.674,65.4132 172.517,73 167,73 167,73 166,74 166,74 166,74 165,75 165,75  Z"/>

<path  fill="#FD7AFF" stroke-width="0" stroke="#FD7AFF" d = " M291 77 L292,79 C292,79 280.5,71 280.5,71 271.715,66.6075 262.717,63.1085 254.5,59 247.973,55.7363 241.75,60.3748 236.5,63 235.879,63.3107 229,71.1396 229,67 229,67 229,66 229,66 229,66 230,65 230,65 234.431,65 238.915,47.7074 251.5,54 260.606,58.5528 270.268,62.384 279.5,67 279.5,67 291,75 291,75 291,75 291,77 291,77  Z"/>

<path  fill="#1CA597" stroke-width="0" stroke="#1CA597" d = " M332 85 L335,85 C335,82.3404 329.895,79.3946 328,77.5 323.082,72.5824 320.659,66.1593 315.5,61 315.5,61 308,53 308,53 308,53 306,53 306,53 304.762,53 303,53.4226 303,55 303,55 310.5,61 310.5,61 315.41,63.455 319,71.0648 319,76 319,76 323,79 323,79 326.345,79 328.413,85 332,85  Z"/>

<path  fill="#08858C" stroke-width="0" stroke="#08858C" d = " M357 86 L357,87 C354.901,87 352.617,90.5583 349.5,89 345.771,87.1357 339.249,85 335,85 335,82.3404 329.895,79.3946 328,77.5 323.082,72.5824 320.659,66.1593 315.5,61 315.5,61 308,53 308,53 317.733,53 339.205,69.7048 346.5,77 346.5,77 357,86 357,86  Z"/>

<path  fill="#1AA697" stroke-width="0" stroke="#1AA697" d = " M146 73 C142.321,73 139.933,76 137,76 137,70.9291 148.616,55 154,55 154,61.9376 146,68.2527 146,73  Z"/>

<path  fill="#1AA697" stroke-width="0" stroke="#1AA697" d = " M310 73 C313.817,73 316.124,76 319,76 319,71.0648 315.41,63.455 310.5,61 310.5,61 303,55 303,55 303,55 302,55 302,55 302,61.9939 310,66.5618 310,73  Z"/>

<path  fill="#FF90FF" stroke-width="0" stroke="#FF90FF" d = " M160 91 L170.5,83 C179.07,78.7148 203.754,61.6272 214.5,67 L224.5,75 L228.5,74 L231.5,75 L238.5,69 C244.219,66.1403 254.673,66.0865 260.5,69 268.694,73.0969 276.309,77.9045 284.5,82 L296,91 C301.594,91 294.345,79 292,79 292,79 280.5,71 280.5,71 271.715,66.6075 262.717,63.1085 254.5,59 247.973,55.7363 241.75,60.3748 236.5,63 235.879,63.3107 229,71.1396 229,67 229,67 228,67 228,67 228,67 224.5,68 224.5,68 224.5,68 217.5,61 217.5,61 213.398,58.9492 206.282,56.6092 201.5,59 201.5,59 189.5,63 189.5,63 184.689,65.4055 180.245,68.6276 175.5,71 172.286,72.6071 168.7,78 165,78 165,78 164,79 164,79 164,79 159,84.5 159,84.5 158.43,85.6397 158.737,91 160,91  Z"/>

<path  fill="#09848A" stroke-width="0" stroke="#09848A" d = " M67 80 L70,82 C76.098,82 80.4167,67 87,67 87,67 87,66 87,66 84.3825,66 85.3495,63 83,63 81.914,63 67,79.194 67,80  Z"/>

<path  fill="#09848A" stroke-width="0" stroke="#09848A" d = " M386 83 L387,83 C387,83 389,80 389,80 389,78.6487 374.268,63 373,63 373,63 370,66 370,66 370,66 370,67 370,67 371.748,67 386,81.6738 386,83  Z"/>

<path  fill="#FF7AFD" stroke-width="0" stroke="#FF7AFD" d = " M171 65 C168.823,65 167,69.3361 167,71 168.617,71 171,66.417 171,65  Z"/>

<path  fill="#0A8489" stroke-width="0" stroke="#0A8489" d = " M77 86 L78,86 C78,83.7057 88.9546,74 91,74 91,74 91,73 91,73 91,73 87,67 87,67 80.4167,67 76.098,82 70,82 70,82 70,83 70,83 70,83 72,86 72,86 72,86 76,87 76,87 76,87 77,86 77,86  Z"/>

<path  fill="#FF90FE" stroke-width="0" stroke="#FF90FE" d = " M170 101 L179.5,94 C189.971,88.7643 200.045,82.2275 210.5,77 214.252,75.1242 222.555,79.5273 225.5,81 231.896,84.1981 239.579,74.0397 245.5,77 254.943,81.7213 263.035,86.2674 272.5,91 276.056,92.778 279.071,95.2856 282.5,97 L286,101 C288.055,101 288.675,96.825 290,95.5 290,95.5 296,91 296,91 296,91 284.5,82 284.5,82 276.309,77.9045 268.694,73.0969 260.5,69 254.673,66.0865 244.219,66.1403 238.5,69 238.5,69 231.5,75 231.5,75 231.5,75 228.5,74 228.5,74 228.5,74 224.5,75 224.5,75 224.5,75 214.5,67 214.5,67 203.754,61.6272 179.07,78.7148 170.5,83 170.5,83 160,91 160,91 160,92.1826 163.57,92.5351 164.5,93 164.5,93 170,101 170,101  Z"/>

<path  fill="#0A8489" stroke-width="0" stroke="#0A8489" d = " M380 87 L381,87 C381,85.5271 382.952,86 384,86 384,86 386,83 386,83 386,81.6738 371.748,67 370,67 370,67 365,73 365,73 365,73 365,74 365,74 366.925,74 379,85.6165 379,86 379,86 380,87 380,87  Z"/>

<path  fill="#FF7AFD" stroke-width="0" stroke="#FF7AFD" d = " M166 74 L165,75 C165,73.5345 164.891,71 167,71 167,71 167,73 167,73 167,73 166,74 166,74  Z"/>

<path  fill="#33B932" stroke-width="0" stroke="#33B932" d = " M134 79 C134,85.1538 143,89.8627 143,96 144.969,96 145.274,92.2263 146.5,91 146.5,91 158,74 158,74 158,74 157,73 157,73 157,73 153,73 153,73 153,73 146,73 146,73 142.321,73 139.933,76 137,76 137,76 134,79 134,79  Z"/>

<path  fill="#FF78FF" stroke-width="0" stroke="#FF78FF" d = " M167 73 L166,74 C166,74 167,73 167,73  Z"/>

<path  fill="#33B932" stroke-width="0" stroke="#33B932" d = " M323 79 L321,81.5 C319.915,83.6696 315.702,95 313,95 311.012,95 310.592,91.6847 310,90.5 310,90.5 299,75 299,75 299,75 299,73 299,73 299,73 304,73 304,73 304,73 310,73 310,73 313.817,73 316.124,76 319,76 319,76 323,79 323,79  Z"/>

<path  fill="#08828B" stroke-width="0" stroke="#08828B" d = " M81 87 L83,87 C83,85.2353 92.4876,78 94,78 94,78 91,74 91,74 88.9546,74 78,83.7057 78,86 78,86 79,87 79,87 79,87 81,87 81,87  Z"/>

<path  fill="#08828B" stroke-width="0" stroke="#08828B" d = " M378 87 L379,87 C379,87 379,86 379,86 379,85.6165 366.925,74 365,74 365,75.2404 363,75.5759 363,78 363,78 363,79 363,79 364.779,79 374,85.2677 374,87 374,87 375,87 375,87 375,87 378,87 378,87  Z"/>

<path  fill="#FF8FFF" stroke-width="0" stroke="#FF8FFF" d = " M189 112 C189,97.2534 202.387,91.5564 213.5,86 L230,87 C235.585,87 242.425,84.4625 247.5,87 257.402,91.9508 267,101.726 267,112 276.404,112 274.997,115.503 282.5,108 284.946,105.554 286,102.833 286,101 286,101 282.5,97 282.5,97 279.071,95.2856 276.056,92.778 272.5,91 263.035,86.2674 254.943,81.7213 245.5,77 239.579,74.0397 231.896,84.1981 225.5,81 222.555,79.5273 214.252,75.1242 210.5,77 200.045,82.2275 189.971,88.7643 179.5,94 179.5,94 170,101 170,101 170,103.678 171.911,104.323 173,106.5 177.201,114.903 180.764,112 189,112  Z"/>

<path  fill="#FF64FF" stroke-width="0" stroke="#FF64FF" d = " M265 125 C267.347,125 275.856,115.178 283.5,119 L290.5,123 L293,126 C293,117.911 294.176,110.147 298,102.5 298.49,101.52 301.274,96.3868 302.5,97 307.282,99.3912 310.949,107.397 313,111.5 313.465,112.43 313.817,116 315,116 315,103.928 302,97.9178 302,87 302,87 291,77 291,77 291,77 292,79 292,79 294.345,79 301.594,91 296,91 296,91 290,95.5 290,95.5 288.675,96.825 288.055,101 286,101 286,102.833 284.946,105.554 282.5,108 274.997,115.503 276.404,112 267,112 267,114.529 268.136,119 265,119 265,119 265,125 265,125  Z"/>

<path  fill="#0B858B" stroke-width="0" stroke="#0B858B" d = " M83 87 C88.3585,87 92.6591,87 97,87 97,87 98,86 98,86 98,86 94,78 94,78 92.4876,78 83,85.2353 83,87  Z"/>

<path  fill="#FF64FF" stroke-width="0" stroke="#FF64FF" d = " M165 78 L164,79 C164,79 165,78 165,78  Z"/>

<path  fill="#47C83C" stroke-width="0" stroke="#47C83C" d = " M116 109 L137,109 C138.751,109 143,97.91 143,96 143,89.8627 134,85.1538 134,79 130.047,79 128.534,85 125,85 125,88.3996 116,88.254 116,91 116,91 116,92 116,92 117.815,92 113,103.334 113,105 113,105 116,109 116,109  Z"/>

<path  fill="#FF64FF" stroke-width="0" stroke="#FF64FF" d = " M164 125 C164.969,125 171.568,119.966 173.5,119 180.843,115.328 188.337,125 191,125 191,125 191,120 191,120 190.311,120 189,112.822 189,112 180.764,112 177.201,114.903 173,106.5 171.911,104.323 170,103.678 170,101 170,101 164.5,93 164.5,93 163.57,92.5351 160,92.1826 160,91 158.737,91 158.43,85.6397 159,84.5 159,84.5 164,79 164,79 162.062,79 155,84.8421 155,87 155,95.436 145,99.2281 145,107 145,107 153.5,97 153.5,97 153.5,97 159,102.5 159,102.5 162.096,108.693 164,117.642 164,125  Z"/>

<path  fill="#47C83C" stroke-width="0" stroke="#47C83C" d = " M319 109 L340,109 C340,109 343,104 343,104 343,100.136 340,96.268 340,92 340,92 340,91 340,91 340,87.7579 332,89.1119 332,85 328.413,85 326.345,79 323,79 323,79 321,81.5 321,81.5 319.915,83.6696 315.702,95 313,95 313,96.8265 317.558,109 319,109  Z"/>

<path  fill="#0B858B" stroke-width="0" stroke="#0B858B" d = " M359 86 C363.27,86 369.067,87 374,87 374,85.2677 364.779,79 363,79 360.782,79 359,84.1437 359,86  Z"/>

<path  fill="#0C858C" stroke-width="0" stroke="#0C858C" d = " M66 87 L67,87 C67,87 70,83 70,83 70,83 70,82 70,82 70,82 67,80 67,80 67,80 62,86 62,86 63.3744,86 66,85.6256 66,87  Z"/>

<path  fill="#0C858C" stroke-width="0" stroke="#0C858C" d = " M390 87 C392.033,87 393.256,87 395,87 395,85.8293 391.024,80 389,80 389,80 387,83 387,83 387,83 389,87 389,87 389,87 390,87 390,87  Z"/>

<path  fill="#0A858A" stroke-width="0" stroke="#0A858A" d = " M72 86 L67,87 C67,87 70,83 70,83 70,83 72,86 72,86  Z"/>

<path  fill="#0A858A" stroke-width="0" stroke="#0A858A" d = " M384 86 L389,87 C389,87 387,83 387,83 387,83 386,83 386,83 386,83 384,86 384,86  Z"/>

<path  fill="#08838C" stroke-width="0" stroke="#08838C" d = " M89 105 C86.7852,105 87.4813,107 86,107 86,105.418 85,104.688 85,102 85,102 85,101 85,101 85,101 97,87 97,87 97,87 99,87 99,87 101.099,87 103.383,90.5583 106.5,89 108.306,88.097 119.252,85 121,85 121,85 125,85 125,85 125,88.3996 116,88.254 116,91 116,91 113,91 113,91 113,88.7167 105,91.5818 105,93 103.535,93 101,92.891 101,95 99.583,95 95,97.3826 95,99 92.7736,99 91,100.774 91,103 91,103 90,104 90,104 90,104 89,105 89,105  Z"/>

<path  fill="#08838C" stroke-width="0" stroke="#08838C" d = " M367 104 L371,107 C371,104.967 371,103.744 371,102 371,102 371,101 371,101 369.375,101 361.893,87 357,87 354.901,87 352.617,90.5583 349.5,89 345.771,87.1357 339.249,85 335,85 335,85 332,85 332,85 332,89.1119 340,87.7579 340,91 340,91 343,91 343,91 343,89.1 347.565,90.5323 348.5,91 351.469,92.4845 367,99.963 367,104  Z"/>

<path  fill="#0C858C" stroke-width="0" stroke="#0C858C" d = " M62 86 L61,87 C61,87 62,86 62,86  Z"/>

<path  fill="#09818C" stroke-width="0" stroke="#09818C" d = " M46 135 C43.6356,135 42.9467,138 41,138 41,120.522 40.0118,109.488 53.5,96 53.5,96 61,87 61,87 61,87 62,86 62,86 63.3744,86 66,85.6256 66,87 66,89.8518 59.9078,93.6845 59,95.5 55.5256,102.449 50.4434,108.613 47,115.5 47,115.5 45,129.5 45,129.5 45,130.69 44.3855,134 46,134 46,134 46,135 46,135  Z"/>

<path  fill="#0A8389" stroke-width="0" stroke="#0A8389" d = " M55 129 C51.5182,129 49.2898,134 46,134 44.3855,134 45,130.69 45,129.5 45,129.5 47,115.5 47,115.5 50.4434,108.613 55.5256,102.449 59,95.5 59.9078,93.6845 66,89.8518 66,87 66,87 67,87 67,87 67,87 72,86 72,86 72,86 76,87 76,87 76,89.6382 55.5587,107 64,107 64,114.071 55,120.273 55,128 55,128 55,129 55,129  Z"/>

<path  fill="#0A8389" stroke-width="0" stroke="#0A8389" d = " M77 86 L76,87 C76,87 77,86 77,86  Z"/>

<path  fill="#0A828A" stroke-width="0" stroke="#0A828A" d = " M79 89 L69,99.5 L64,107 C55.5587,107 76,89.6382 76,87 76,87 77,86 77,86 77,86 78,86 78,86 78,86 79,87 79,87 79,87 79,89 79,89  Z"/>

<path  fill="#0B838C" stroke-width="0" stroke="#0B838C" d = " M80 89 L85,101 C85,101 97,87 97,87 92.6591,87 88.3585,87 83,87 83,87 81,87 81,87 81,87 80,89 80,89  Z"/>

<path  fill="#0B838C" stroke-width="0" stroke="#0B838C" d = " M97 87 L99,87 C99,87 99,86 99,86 99,86 98,86 98,86 98,86 97,87 97,87  Z"/>

<path  fill="#FF8FFE" stroke-width="0" stroke="#FF8FFE" d = " M265 119 C265,104.862 257.293,94.8966 245.5,89 L230,89 L211.5,89 C199.146,95.1772 191,106 191,120 190.311,120 189,112.822 189,112 189,97.2534 202.387,91.5564 213.5,86 213.5,86 230,87 230,87 235.585,87 242.425,84.4625 247.5,87 257.402,91.9508 267,101.726 267,112 267,114.529 268.136,119 265,119  Z"/>

<path  fill="#0B838C" stroke-width="0" stroke="#0B838C" d = " M377 90 C377,92.0619 371,97.6687 371,101 369.375,101 361.893,87 357,87 357,87 357,86 357,86 357,86 359,86 359,86 363.27,86 369.067,87 374,87 374,87 375,87 375,87 375,87 377,89 377,89 377,89 377,90 377,90  Z"/>

<path  fill="#0A8389" stroke-width="0" stroke="#0A8389" d = " M379 87 L380,87 C380,87 379,86 379,86 379,86 379,87 379,87  Z"/>

<path  fill="#0A8389" stroke-width="0" stroke="#0A8389" d = " M401 128 C404.362,128 407.208,134 411,134 411,121.314 408.167,113.833 403,103.5 403,103.5 390,87 390,87 390,87 389,87 389,87 389,87 384,86 384,86 382.952,86 381,85.5271 381,87 381,90.6177 389.966,98.4321 392,102.5 392.892,104.283 396.546,107 393,107 393,114.425 401,119.966 401,128  Z"/>

<path  fill="#09818C" stroke-width="0" stroke="#09818C" d = " M411 135 L415,138 C415,134.179 419.002,127.504 417,123.5 414.474,118.447 413.558,112.616 411,107.5 409.011,103.522 404.622,99.7445 403,96.5 401.773,94.0452 397.724,87 395,87 393.256,87 392.033,87 390,87 390,87 403,103.5 403,103.5 408.167,113.833 411,121.314 411,134 411,134 411,135 411,135  Z"/>

<path  fill="#0B858A" stroke-width="0" stroke="#0B858A" d = " M79 89 L80,89 C80,89 81,87 81,87 81,87 79,87 79,87 79,87 79,89 79,89  Z"/>

<path  fill="#C9C8C8" stroke-width="0" stroke="#C9C8C8" d = " M141 121 C138.739,121 140.703,127.094 140,128.5 139.005,130.489 137,128.414 137,127 137,114.254 141.783,105.935 147,95.5 148.333,92.8345 151.189,87 155,87 155,95.436 145,99.2281 145,107 142.891,107 143,109.535 143,111 143,111 143,112 143,112 141.005,112 141,116.377 141,118 141,118 141,121 141,121  Z"/>

<path  fill="#C9C8C8" stroke-width="0" stroke="#C9C8C8" d = " M315 117 C317.35,117 315.217,124.934 316,126.5 317.618,129.737 317.492,128 320,128 320,115.869 315.011,106.522 310,96.5 308.708,93.9152 305.383,87 302,87 302,97.9178 315,103.928 315,116 315,116 315,117 315,117  Z"/>

<path  fill="#0B858A" stroke-width="0" stroke="#0B858A" d = " M378 87 L377,89 C377,89 375,87 375,87 375,87 378,87 378,87  Z"/>

<path  fill="#0A828A" stroke-width="0" stroke="#0A828A" d = " M377 90 C382.651,90 390.277,107 393,107 396.546,107 392.892,104.283 392,102.5 389.966,98.4321 381,90.6177 381,87 381,87 380,87 380,87 380,87 379,87 379,87 379,87 378,87 378,87 378,87 377,89 377,89 377,89 377,90 377,90  Z"/>

<path  fill="#0B838A" stroke-width="0" stroke="#0B838A" d = " M61 127 L55,128 C55,120.273 64,114.071 64,107 64,107 69,99.5 69,99.5 69,99.5 79,89 79,89 79,89 80,89 80,89 80,89 85,101 85,101 85,101 85,102 85,102 85,102 82.5,105 82.5,105 80.419,107.081 74,114.202 74,117 72.2884,117 71,119.571 71,121 71,121 62,126 62,126 62,126 61,127 61,127  Z"/>

<path  fill="#FC8FFF" stroke-width="0" stroke="#FC8FFF" d = " M234 154 L235,154 C235,150.521 242,146.056 242,152 243.048,152 245,151.527 245,153 248.717,153 252.29,148.605 255.5,147 267.459,141.02 265,138.307 265,125 265,125 265,119 265,119 265,104.862 257.293,94.8966 245.5,89 245.5,89 230,89 230,89 230,89 211.5,89 211.5,89 199.146,95.1772 191,106 191,120 191,120 191,125 191,125 191,138.766 189.115,140.807 201.5,147 204.71,148.605 208.283,153 212,153 212,153 214,152 214,152 214,146.49 221,150.069 221,154 221,154 223,154 223,154 223,151.698 221.854,137.791 222,137.5 222.645,136.209 226,130.258 226,130 226,130 226,125 226,125 226,122.212 219.54,118.42 221,115.5 226.035,105.43 230.302,106.103 235,115.5 236.726,118.953 231,121.857 231,125 231,125 231,131 231,131 234.488,131 234,150.745 234,154  Z"/>

<path  fill="#08848A" stroke-width="0" stroke="#08848A" d = " M113 91 C110.478,91 108.091,93 105,93 105,91.5818 113,88.7167 113,91  Z"/>

<path  fill="#08848A" stroke-width="0" stroke="#08848A" d = " M366 104 L367,104 C367,99.963 351.469,92.4845 348.5,91 347.565,90.5323 343,89.1 343,91 346.418,91 366,100.724 366,104  Z"/>

<path  fill="#0B838A" stroke-width="0" stroke="#0B838A" d = " M395 126 L401,128 C401,119.966 393,114.425 393,107 390.277,107 382.651,90 377,90 377,92.0619 371,97.6687 371,101 371,101 371,102 371,102 371,102 374.5,106 374.5,106 374.5,106 385,120 385,120 385,120 385,121 385,121 385,121 395,126 395,126  Z"/>

<path  fill="#C8CBCC" stroke-width="0" stroke="#C8CBCC" d = " M92 106 L91,107 C89.2531,107 89,106.747 89,105 89,105 90,104 90,104 90,104 91,103 91,103 92.6343,103 95,100.366 95,99 96.6639,99 101,97.1775 101,95 102.465,95 105,95.109 105,93 108.091,93 110.478,91 113,91 113,91 116,91 116,91 116,91 116,92 116,92 113.166,92 93,101.965 93,105 93,105 92,106 92,106  Z"/>

<path  fill="#C8CBCC" stroke-width="0" stroke="#C8CBCC" d = " M365 106 L366,107 C366,107 368.5,109 368.5,109 370.499,109 366,104.317 366,104 366,100.724 346.418,91 343,91 343,91 340,91 340,91 340,91 340,92 340,92 343.732,92 365,103.138 365,106  Z"/>

<path  fill="#7DCD4B" stroke-width="0" stroke="#7DCD4B" d = " M113 105 L112,106 C112,106 111,105 111,105 111,98.7401 95.186,105 93,105 93,101.965 113.166,92 116,92 117.815,92 113,103.334 113,105  Z"/>

<path  fill="#7DCD4B" stroke-width="0" stroke="#7DCD4B" d = " M346 105 L344,107 C344,105.952 344.473,104 343,104 343,100.136 340,96.268 340,92 343.732,92 365,103.138 365,106 363.325,106 346,97.979 346,105  Z"/>

<path  fill="#08848A" stroke-width="0" stroke="#08848A" d = " M105 93 C103.535,93 101,92.891 101,95 102.465,95 105,95.109 105,93  Z"/>

<path  fill="#08848A" stroke-width="0" stroke="#08848A" d = " M101 95 C99.583,95 95,97.3826 95,99 96.6639,99 101,97.1775 101,95  Z"/>

<path  fill="#FE79FE" stroke-width="0" stroke="#FE79FE" d = " M160 130 L159,131 C150.133,131 141,131.856 141,121 141,121 141,118 141,118 142.353,118 143,113.357 143,112 143,112 143,111 143,111 145.109,111 145,108.465 145,107 145,107 153.5,97 153.5,97 153.5,97 159,102.5 159,102.5 162.096,108.693 164,117.642 164,125 164,126.247 161.533,130 160,130  Z"/>

<path  fill="#FE79FE" stroke-width="0" stroke="#FE79FE" d = " M293 126 C293,127.429 294.288,130 296,130 308.468,130 315,134.216 315,117 315,117 315,116 315,116 313.817,116 313.465,112.43 313,111.5 310.949,107.397 307.282,99.3912 302.5,97 301.274,96.3868 298.49,101.52 298,102.5 294.176,110.147 293,117.911 293,126  Z"/>

<path  fill="#08848A" stroke-width="0" stroke="#08848A" d = " M95 99 C92.7736,99 91,100.774 91,103 92.6343,103 95,100.366 95,99  Z"/>

<path  fill="#0C858B" stroke-width="0" stroke="#0C858B" d = " M85 108 L74,117 C74,114.202 80.419,107.081 82.5,105 82.5,105 85,102 85,102 85,104.688 86,105.418 86,107 86,107 85,108 85,108  Z"/>

<path  fill="#32B623" stroke-width="0" stroke="#32B623" d = " M74 186 L74,187 C74,187 83.5,188 83.5,188 90.5155,184.492 87.2968,174.906 90,169.5 91.1915,167.117 89.8626,163.775 91,161.5 95.9841,151.532 93.9831,138.534 99,128.5 100.578,125.345 107.104,105 111,105 111,98.7401 95.186,105 93,105 93,105 92,106 92,106 92,106 91,107 91,107 91,107 89,109 89,109 89,109.987 86.4197,118 86,118 86,125.257 84.0185,132.463 81,138.5 78.5092,143.482 80.0817,157.337 77,163.5 76.745,164.01 75,179.312 75,180 75,181.321 75.6844,186 74,186  Z"/>

<path  fill="#32B623" stroke-width="0" stroke="#32B623" d = " M371 120 C371,126.348 372.38,132.26 375,137.5 L382,187 C382,187 372.5,188 372.5,188 367.379,185.439 369.025,177.551 367,173.5 361.171,161.842 364.843,142.186 359,130.5 356.565,125.63 355.417,120.334 353,115.5 353,115.5 346,105 346,105 346,97.979 363.325,106 365,106 365,106 366,107 366,107 366,108.181 370.582,120 371,120  Z"/>

<path  fill="#0C858B" stroke-width="0" stroke="#0C858B" d = " M371 108 L385,120 C385,120 374.5,106 374.5,106 374.5,106 371,102 371,102 371,103.744 371,104.967 371,107 371,107 371,108 371,108  Z"/>

<path  fill="#08848A" stroke-width="0" stroke="#08848A" d = " M91 103 L90,104 C90,104 91,103 91,103  Z"/>

<path  fill="#08848A" stroke-width="0" stroke="#08848A" d = " M90 104 L89,105 C89,105 90,104 90,104  Z"/>

<path  fill="#72D568" stroke-width="0" stroke="#72D568" d = " M347 193 L345,200 C342.754,200 341.971,187.443 341,185.5 336.839,177.178 337.159,166.817 333,158.5 331.189,154.879 332.822,149.144 331,145.5 331,145.5 326,131 326,131 328.269,131 340,112.213 340,109 340,109 343,104 343,104 344.473,104 344,105.952 344,107 344,107 343,118.5 343,118.5 344.692,121.884 346,129.213 346,133 346,133 347,134 347,134 347,134 347,136 347,136 347,140.972 348.802,150.104 351,154.5 353.611,159.721 351,178.559 351,185 351,185 347,193 347,193  Z"/>

<path  fill="#7DCD4B" stroke-width="0" stroke="#7DCD4B" d = " M371 108 C368.279,108 371,118.692 371,120 370.582,120 366,108.181 366,107 366,107 368.5,109 368.5,109 370.499,109 366,104.317 366,104 366,104 367,104 367,104 367,104 371,107 371,107 371,107 371,108 371,108  Z"/>

<path  fill-rule="evenodd" fill="#7DCD4B" stroke-width="0" stroke="#7DCD4B" d = " M89 109 C89,109.987 86.4197,118 86,118 86,115.645 88.2113,108 85,108 85,108 86,107 86,107 87.4813,107 86.7852,105 89,105 89,106.747 89.2531,107 91,107 91,107 89,109 89,109  M89 109 C89,105.521 85.5213,109 89,109  Z"/>

<path  fill="#7DCD4B" stroke-width="0" stroke="#7DCD4B" d = " M93 105 L92,106 C92,106 93,105 93,105  Z"/>

<path  fill="#30B724" stroke-width="0" stroke="#30B724" d = " M74 187 C74,191.795 71,196.549 71,201 71,201 81.5,206 81.5,206 97.6057,214.053 96.5797,179.341 100,172.5 103.211,166.078 102.223,153.054 106,145.5 106.699,144.103 107.242,137 109,137 109,137 109,135 109,135 109,135 110,134 110,134 110,130.392 111.478,126.544 113,123.5 115.251,118.998 112,110.26 112,106 112,106 111,105 111,105 107.104,105 100.578,125.345 99,128.5 93.9831,138.534 95.9841,151.532 91,161.5 89.8626,163.775 91.1915,167.117 90,169.5 87.2968,174.906 90.5155,184.492 83.5,188 83.5,188 74,187 74,187  Z"/>

<path  fill="#72D568" stroke-width="0" stroke="#72D568" d = " M109 194 L112,200 C112,193.935 120.145,166.21 123,160.5 125.417,155.666 123.568,148.363 126,143.5 127.636,140.228 130,134.764 130,131 128.601,131 116,111.692 116,109 116,109 113,105 113,105 113,105 112,106 112,106 112,110.26 115.251,118.998 113,123.5 111.478,126.544 110,130.392 110,134 110,134 109,135 109,135 109,135 109,137 109,137 109,142.502 107.398,151.704 105,156.5 102.507,161.487 106,179.586 106,185 106,188.496 109,190.441 109,194  Z"/>

<path  fill="#30B724" stroke-width="0" stroke="#30B724" d = " M382 187 C382,191.666 385,196.098 385,201 380.112,201 374.626,209.063 368.5,206 355.164,199.332 361.5,180.5 356,169.5 352.955,163.41 353.565,151.631 350,144.5 349.301,143.103 348.758,136 347,136 347,136 347,134 347,134 347,134 346,133 346,133 346,129.213 344.692,121.884 343,118.5 343,118.5 344,107 344,107 344,107 346,105 346,105 346,105 353,115.5 353,115.5 355.417,120.334 356.565,125.63 359,130.5 364.843,142.186 361.171,161.842 367,173.5 369.025,177.551 367.379,185.439 372.5,188 372.5,188 382,187 382,187  Z"/>

<path  fill="#7DCD4B" stroke-width="0" stroke="#7DCD4B" d = " M92 106 L91,107 C91,107 92,106 92,106  Z"/>

<path  fill="#C8CBCC" stroke-width="0" stroke="#C8CBCC" d = " M89 109 C89,105.521 85.5213,109 89,109  Z"/>

<path  fill="#FF64FF" stroke-width="0" stroke="#FF64FF" d = " M145 107 C142.891,107 143,109.535 143,111 145.109,111 145,108.465 145,107  Z"/>

<path  fill="#A9A9A8" stroke-width="0" stroke="#A9A9A8" d = " M226 125 C227.744,125 228.967,125 231,125 231,121.857 236.726,118.953 235,115.5 230.302,106.103 226.035,105.43 221,115.5 219.54,118.42 226,122.212 226,125  Z"/>

<path  fill="#32B824" stroke-width="0" stroke="#32B824" d = " M71 121 L69,126.5 L69,132.5 C65.1119,140.276 62.8603,165.221 67,173.5 68.1053,175.711 70.7157,186 74,186 75.6844,186 75,181.321 75,180 75,179.312 76.745,164.01 77,163.5 80.0817,157.337 78.5092,143.482 81,138.5 84.0185,132.463 86,125.257 86,118 86,115.645 88.2113,108 85,108 85,108 74,117 74,117 74,118.429 72.7116,121 71,121  Z"/>

<path  fill="#32B824" stroke-width="0" stroke="#32B824" d = " M385 121 L387,125.5 L387,130.5 C391.364,139.227 393.413,165.674 389,174.5 387.923,176.653 385.027,187 382,187 382,187 375,137.5 375,137.5 372.38,132.26 371,126.348 371,120 371,118.692 368.279,108 371,108 371,108 385,120 385,120 385,120 385,121 385,121  Z"/>

<path  fill="#59B847" stroke-width="0" stroke="#59B847" d = " M137 109 C137,114.131 134.21,121.08 132,125.5 131.443,126.614 131.59,131 130,131 128.601,131 116,111.692 116,109 116,109 137,109 137,109  Z"/>

<path  fill="#59B847" stroke-width="0" stroke="#59B847" d = " M340 109 C340,112.213 328.269,131 326,131 326,131 319,109 319,109 319,109 340,109 340,109  Z"/>

<path  fill="#FF64FF" stroke-width="0" stroke="#FF64FF" d = " M143 112 C141.005,112 141,116.377 141,118 142.353,118 143,113.357 143,112  Z"/>

<path  fill="#0C858B" stroke-width="0" stroke="#0C858B" d = " M74 117 C72.2884,117 71,119.571 71,121 72.7116,121 74,118.429 74,117  Z"/>

<path  fill-rule="evenodd" fill="#FF64FF" stroke-width="0" stroke="#FF64FF" d = " M315 141 L314,144.5 C313.342,145.815 314.18,151.16 316.5,150 319.605,148.447 318.653,141 315,141  M305 139 C305,140.302 301,141.641 301,144 301,163.661 326.669,139 305,139  M296 161 L297.5,159 C300.288,157.606 302,165.695 302,167 303.142,167 303.617,159.942 305.5,159 313.664,154.918 311.981,160 316,160 316,160 316.5,155 316.5,155 319.694,151.806 317.032,155 320,155 320,146.683 320,136.374 320,128 317.492,128 317.618,129.737 316,126.5 315.217,124.934 317.35,117 315,117 315,134.216 308.468,130 296,130 296,130 299,133.5 299,133.5 302.518,140.536 294.747,152 288,152 288,153.951 290.454,152.477 291.5,153 294.152,154.326 296,158.454 296,161  Z"/>

<path  fill="#FF8FFD" stroke-width="0" stroke="#FF8FFD" d = " M209 188 L212,188 C212,188 213,187 213,187 213,181.519 212.261,177 219,177 219,177 219,176 219,176 215.169,176 218.497,169 221,169 221,169 221,166 221,166 221,166 220,164 220,164 220,164 220,161 220,161 220,161 218,159 218,159 218,159 217,159 217,159 217,159 215.5,160 215.5,160 208.693,163.403 208.884,154 213,154 213,154 212,153 212,153 208.283,153 204.71,148.605 201.5,147 189.115,140.807 191,138.766 191,125 188.337,125 180.843,115.328 173.5,119 171.568,119.966 164.969,125 164,125 164,126.247 161.533,130 160,130 160,130 159,131 159,131 159,131 157,135.5 157,135.5 153.749,142.001 163.299,152 169,152 179.666,152 193,151.705 193,166 196.42,166 208.969,165.235 212.5,167 214.792,168.146 214.792,173.854 212.5,175 212.5,175 202,176 202,176 202,184.568 187,182.043 187,185 187,185 198.5,185 198.5,185 198.5,185 203,187 203,187 203,187 205,187 205,187 205,183.142 209,185.537 209,188  Z"/>

<path  fill="#FF8FFD" stroke-width="0" stroke="#FF8FFD" d = " M245 188 L247,188 C247.106,188 252,181.827 252,187 252,187 253,187 253,187 253,187 257.5,185 257.5,185 261.612,182.944 269.036,186 273,186 273,186 273,185 273,185 267.867,185 254,182.25 254,176 254,176 243.5,175 243.5,175 241.208,173.854 241.208,168.146 243.5,167 245.751,165.875 259.946,165 263,165 263,161.812 264.726,162.048 266,159.5 270.626,150.247 278.229,152 288,152 294.747,152 302.518,140.536 299,133.5 299,133.5 296,130 296,130 294.288,130 293,127.429 293,126 293,126 290.5,123 290.5,123 290.5,123 283.5,119 283.5,119 275.856,115.178 267.347,125 265,125 265,138.307 267.459,141.02 255.5,147 252.29,148.605 248.717,153 245,153 245,153 243,154 243,154 246.566,154 248.305,159.097 244.5,161 241.959,162.27 240.791,159 239,159 239,159 236,162 236,162 236,162 236,163 236,163 236,163 236,166 236,166 236,166.839 234.07,168 236,168 237.479,168 240.701,176 238,176 238,176 238,177 238,177 244.025,177 243,182.439 243,187 243,187 244,187 244,187 244,187 245,188 245,188  Z"/>

<path  fill="#31B824" stroke-width="0" stroke="#31B824" d = " M74 187 C74,191.795 71,196.549 71,201 67.1516,201 61.2831,190.066 60,187.5 50.6804,168.861 61,146.681 61,127 61,127 62,126 62,126 62,126 71,121 71,121 71,121 69,126.5 69,126.5 69,126.5 69,132.5 69,132.5 65.1119,140.276 62.8603,165.221 67,173.5 68.1053,175.711 70.7157,186 74,186 74,186 74,187 74,187  Z"/>

<path  fill-rule="evenodd" fill="#FF64FF" stroke-width="0" stroke="#FF64FF" d = " M160 161 L157.5,159 C155.617,159.942 155.142,167 154,167 154,163.045 148.651,154.425 143.5,157 143.5,157 140,161 140,161 140,159.61 140.829,153 138.5,153 138.5,153 136,157 136,157 136,157 136,134 136,134 136,132.594 135.286,127 137,127 137,128.414 139.005,130.489 140,128.5 140.703,127.094 138.739,121 141,121 141,131.856 150.133,131 159,131 159,131 157,135.5 157,135.5 153.749,142.001 163.299,152 169,152 169,154.064 165.647,152.426 164.5,153 162.004,154.248 160,158.676 160,161  M143 145 L140.5,141 L138,143.5 C138,149.167 143,153.658 143,147 143,147 147,151 147,151 169.234,151 143,128.211 143,145  Z"/>

<path  fill="#31B824" stroke-width="0" stroke="#31B824" d = " M382 187 C382,191.666 385,196.098 385,201 388.472,201 393.832,191.836 395,189.5 400.394,178.712 402.827,156.153 397,144.5 397,144.5 397,134.5 397,134.5 395.564,131.628 395,129.534 395,126 395,126 385,121 385,121 385,121 387,125.5 387,125.5 387,125.5 387,130.5 387,130.5 391.364,139.227 393.413,165.674 389,174.5 387.923,176.653 385.027,187 382,187  Z"/>

<path  fill="#FF64FF" stroke-width="0" stroke="#FF64FF" d = " M226 130 L231,131 C231,131 231,125 231,125 228.967,125 227.744,125 226,125 226,125 226,130 226,130  Z"/>

<path  fill="#32B725" stroke-width="0" stroke="#32B725" d = " M62 126 L61,127 C61,127 62,126 62,126  Z"/>

<path  fill="#32B725" stroke-width="0" stroke="#32B725" d = " M385 201 C385,204.981 387,208.629 387,213 389.97,213 399.702,197.096 401,194.5 413.274,169.952 401,152.755 401,128 401,128 395,126 395,126 395,129.534 395.564,131.628 397,134.5 397,134.5 397,144.5 397,144.5 402.827,156.153 400.394,178.712 395,189.5 393.832,191.836 388.472,201 385,201  Z"/>

<path  fill="#32B725" stroke-width="0" stroke="#32B725" d = " M71 201 L69,212 C64.7065,212 58.419,200.338 57,197.5 41.6961,166.892 55,158.962 55,129 55,129 55,128 55,128 55,128 61,127 61,127 61,146.681 50.6804,168.861 60,187.5 61.2831,190.066 67.1516,201 71,201  Z"/>

<path  fill="#32B825" stroke-width="0" stroke="#32B825" d = " M387 213 C387,213.986 388.087,219 389,219 396.498,219 404.455,206.59 407,201.5 410.732,194.037 421.926,172.353 417,162.5 412.725,153.949 411,145.435 411,135 411,135 411,134 411,134 407.208,134 404.362,128 401,128 401,152.755 413.274,169.952 401,194.5 399.702,197.096 389.97,213 387,213  Z"/>

<path  fill="#32B825" stroke-width="0" stroke="#32B825" d = " M69 213 L68,220 C61.5281,220 51.4967,205.493 49,200.5 45.6965,193.893 34.7929,172.914 39,164.5 43.3578,155.784 46,145.517 46,135 46,135 46,134 46,134 49.2898,134 51.5182,129 55,129 55,158.962 41.6961,166.892 57,197.5 58.419,200.338 64.7065,212 69,212 69,212 69,213 69,213  Z"/>

<path  fill="#FF64FF" stroke-width="0" stroke="#FF64FF" d = " M160 130 L159,131 C159,131 160,130 160,130  Z"/>

<path  fill="#FDA6FF" stroke-width="0" stroke="#FDA6FF" d = " M231 163 L231,164 C231,164 227.5,166 227.5,166 227.5,166 225,163 225,163 225,163 225,162 225,162 225,159.291 223,157.354 223,154 223,151.698 221.854,137.791 222,137.5 222.645,136.209 226,130.258 226,130 226,130 231,131 231,131 234.488,131 234,150.745 234,154 234,154 233,159 233,159 233,159 232,161 232,161 232,161 231,163 231,163  Z"/>

<path  fill="#31B723" stroke-width="0" stroke="#31B723" d = " M346 133 L347,134 C347,134 346,133 346,133  Z"/>

<path  fill="#31B723" stroke-width="0" stroke="#31B723" d = " M110 134 L109,135 C109,135 110,134 110,134  Z"/>

<path  fill="#32B722" stroke-width="0" stroke="#32B722" d = " M68 220 L67,225 C59.9345,225 49.8975,213.295 47,207.5 40.082,193.664 35,183.448 35,166.5 35,166.5 35,159.5 35,159.5 38.1942,153.112 41,145.672 41,138 42.9467,138 43.6356,135 46,135 46,145.517 43.3578,155.784 39,164.5 34.7929,172.914 45.6965,193.893 49,200.5 51.4967,205.493 61.5281,220 68,220  Z"/>

<path  fill="#32B722" stroke-width="0" stroke="#32B722" d = " M389 220 L389,226 C392.987,226 406.049,213.402 408,209.5 411.849,201.802 426.827,176.154 422,166.5 420.885,164.27 415,140.509 415,138 415,138 411,135 411,135 411,145.435 412.725,153.949 417,162.5 421.926,172.353 410.732,194.037 407,201.5 404.455,206.59 396.498,219 389,219 389,219 389,220 389,220  Z"/>

<path  fill="#31B723" stroke-width="0" stroke="#31B723" d = " M385 201 C385,204.981 387,208.629 387,213 382.312,213 370.403,218.951 366.5,217 356.571,212.035 357.305,203.11 353,194.5 353,194.5 353,189.5 353,189.5 353,189.5 351,185 351,185 351,178.559 353.611,159.721 351,154.5 348.802,150.104 347,140.972 347,136 348.758,136 349.301,143.103 350,144.5 353.565,151.631 352.955,163.41 356,169.5 361.5,180.5 355.164,199.332 368.5,206 374.626,209.063 380.112,201 385,201  Z"/>

<path  fill="#31B723" stroke-width="0" stroke="#31B723" d = " M69 212 L69,213 C78.214,213 85.5619,219.469 94.5,215 97.4973,213.501 103,197.506 103,194 103,192.407 104.592,185 106,185 106,179.586 102.507,161.487 105,156.5 107.398,151.704 109,142.502 109,137 107.242,137 106.699,144.103 106,145.5 102.223,153.054 103.211,166.078 100,172.5 96.5797,179.341 97.6057,214.053 81.5,206 81.5,206 71,201 71,201 71,201 69,212 69,212  Z"/>

<path  fill="#FF7AFE" stroke-width="0" stroke="#FF7AFE" d = " M143 145 L143,147 C143,147 147,151 147,151 169.234,151 143,128.211 143,145  Z"/>

<path  fill="#FF7AFE" stroke-width="0" stroke="#FF7AFE" d = " M305 139 C305,140.302 301,141.641 301,144 301,163.661 326.669,139 305,139  Z"/>

<path  fill="#FF79FD" stroke-width="0" stroke="#FF79FD" d = " M143 145 L140.5,141 L138,143.5 C138,149.167 143,153.658 143,147 143,147 143,145 143,145  Z"/>

<path  fill="#FF79FD" stroke-width="0" stroke="#FF79FD" d = " M315 141 L314,144.5 C313.342,145.815 314.18,151.16 316.5,150 319.605,148.447 318.653,141 315,141  Z"/>

<path  fill="#FD90FF" stroke-width="0" stroke="#FD90FF" d = " M214 152 C214,154.375 221,158.443 221,154 221,150.069 214,146.49 214,152  Z"/>

<path  fill="#FD90FF" stroke-width="0" stroke="#FD90FF" d = " M242 152 C242,154.593 235,158.348 235,154 235,150.521 242,146.056 242,152  Z"/>

<path  fill="#FFA5FD" stroke-width="0" stroke="#FFA5FD" d = " M183 186 L181,187 C181,187 170.5,188 170.5,188 170.5,188 166,186 166,186 166,185.441 161.759,183 161,183 161,183 161,182 161,182 161,182 160,181 160,181 160,181 158,175.5 158,175.5 156.474,172.447 159.904,168.691 161,166.5 161,166.5 160,161 160,161 160,158.676 162.004,154.248 164.5,153 165.647,152.426 169,154.064 169,152 179.666,152 193,151.705 193,166 193,173.97 191.49,176 202,176 202,184.568 187,182.043 187,185 185.855,185 183,184.421 183,186  Z"/>

<path  fill="#FF64FF" stroke-width="0" stroke="#FF64FF" d = " M218 159 C218,153.471 223.829,162 225,162 225,159.291 223,157.354 223,154 223,154 221,154 221,154 221,158.443 214,154.375 214,152 214,152 212,153 212,153 212,153 213,154 213,154 215.681,154 217,156.595 217,159 217,159 218,159 218,159  Z"/>

<path  fill="#FF64FF" stroke-width="0" stroke="#FF64FF" d = " M239 158 C236.876,158 234.564,159 233,159 233,159 234,154 234,154 234,154 235,154 235,154 235,158.348 242,154.593 242,152 243.048,152 245,151.527 245,153 245,153 243,154 243,154 243,154 242,155 242,155 242,155 239,158 239,158  Z"/>

<path  fill="#FFA5FD" stroke-width="0" stroke="#FFA5FD" d = " M274 186 L285.5,188 L291,186 C291,186 296,181 296,181 296,181 297,180 297,180 297,172.906 296,168.056 296,161 296,158.454 294.152,154.326 291.5,153 290.454,152.477 288,153.951 288,152 278.229,152 270.626,150.247 266,159.5 264.726,162.048 263,161.812 263,165 263,172.952 268.121,176 254,176 254,182.25 267.867,185 273,185 273,185 274,186 274,186  Z"/>

<path  fill="#C9C9CB" stroke-width="0" stroke="#C9C9CB" d = " M141 198 L143,203 C143,203 136,197 136,197 136,197 135,194 135,194 135,188.369 131.435,169.63 134,164.5 134.946,162.608 136,159.128 136,157 136,157 138.5,153 138.5,153 140.829,153 140,159.61 140,161 140,167.66 134.827,186.153 137,190.5 137,190.5 141,198 141,198  Z"/>

<path  fill="#C9C9CB" stroke-width="0" stroke="#C9C9CB" d = " M315 199 L315,201 C317.773,201 318.67,197 321,197 321,197 322,193 322,193 322,187.141 325.977,174.453 323,168.5 321.288,165.076 320,158.944 320,155 317.032,155 319.694,151.806 316.5,155 316.5,155 316,160 316,160 316,166.909 321.816,185.867 319,191.5 319,191.5 316,197 316,197 316,197 315,198 315,198 315,198 315,199 315,199  Z"/>

<path  fill="#FE8DFE" stroke-width="0" stroke="#FE8DFE" d = " M213 154 C215.681,154 217,156.595 217,159 217,159 215.5,160 215.5,160 208.693,163.403 208.884,154 213,154  Z"/>

<path  fill="#FF8FFD" stroke-width="0" stroke="#FF8FFD" d = " M243 154 L242,155 C242,155 243,154 243,154  Z"/>

<path  fill="#FE8DFE" stroke-width="0" stroke="#FE8DFE" d = " M239 158 L239,159 C240.791,159 241.959,162.27 244.5,161 248.305,159.097 246.566,154 243,154 243,154 242,155 242,155 242,155 239,158 239,158  Z"/>

<path  fill="#FFAC6F" stroke-width="0" stroke="#FFAC6F" d = " M149 201 L151,201 C151,199.376 153,198.25 153,196 153,186.557 154,176.675 154,167 154,163.045 148.651,154.425 143.5,157 143.5,157 140,161 140,161 140,167.66 134.827,186.153 137,190.5 137,190.5 141,198 141,198 142.495,198 145.137,201 149,201  Z"/>

<path  fill="#FFAC6F" stroke-width="0" stroke="#FFAC6F" d = " M305 201 L307,201 C310.354,201 312.291,199 315,199 315,199 315,198 315,198 315,198 316,197 316,197 316,197 319,191.5 319,191.5 321.816,185.867 316,166.909 316,160 311.981,160 313.664,154.918 305.5,159 303.617,159.942 303.142,167 302,167 302,176.411 303,186.97 303,197 303,197 305,201 305,201  Z"/>

<path  fill="#CBCBCC" stroke-width="0" stroke="#CBCBCC" d = " M220 164 L221,166 C223.061,166 225,165.098 225,163 225,163 225,162 225,162 223.829,162 218,153.471 218,159 218,159 220,161 220,161 221.486,161 221.486,164 220,164  Z"/>

<path  fill="#CBCBCC" stroke-width="0" stroke="#CBCBCC" d = " M231 164 C232.624,164 233.75,166 236,166 236,166 236,163 236,163 234.814,163 234.814,162 236,162 236,162 239,159 239,159 239,159 239,158 239,158 236.876,158 234.564,159 233,159 233,159 232,161 232,161 232,161 231,163 231,163 231,163 231,164 231,164  Z"/>

<path  fill="#C9C9CB" stroke-width="0" stroke="#C9C9CB" d = " M161 186 C161,189.256 159.755,198 155.5,198 L153,196 C153,186.557 154,176.675 154,167 155.142,167 155.617,159.942 157.5,159 157.5,159 160,161 160,161 160,161 161,166.5 161,166.5 159.904,168.691 156.474,172.447 158,175.5 158,175.5 160,181 160,181 160,181 161,182 161,182 161,182 161,183 161,183 161,183 161,186 161,186  Z"/>

<path  fill="#FF64FF" stroke-width="0" stroke="#FF64FF" d = " M233 159 L232,161 C232,161 233,159 233,159  Z"/>

<path  fill="#C9C9CB" stroke-width="0" stroke="#C9C9CB" d = " M295 186 C295,192.196 297.535,197 303,197 303,186.97 302,176.411 302,167 302,165.695 300.288,157.606 297.5,159 297.5,159 296,161 296,161 296,168.056 297,172.906 297,180 297,180 296,181 296,181 296,181 295,186 295,186  Z"/>

<path  fill="#FF64FF" stroke-width="0" stroke="#FF64FF" d = " M220 161 C221.486,161 221.486,164 220,164 220,164 220,161 220,161  Z"/>

<path  fill="#FF64FF" stroke-width="0" stroke="#FF64FF" d = " M232 161 L231,163 C231,163 232,161 232,161  Z"/>

<path  fill="#FF64FF" stroke-width="0" stroke="#FF64FF" d = " M236 162 C234.814,162 234.814,163 236,163 236,163 236,162 236,162  Z"/>

<path  fill-rule="evenodd" fill="#FF64FF" stroke-width="0" stroke="#FF64FF" d = " M227 170 C227,171.352 225,171.165 225,173.5 L225,178.5 C228.201,184.902 237.502,170 227,170  M223 189 C224.772,189 228.385,191.057 228.5,191 230.459,190.021 229.731,189 233,189 233,186.395 234.386,177 238,177 238,177 238,176 238,176 236.566,176 236,169.552 236,168 234.07,168 236,166.839 236,166 233.75,166 232.624,164 231,164 231,164 227.5,166 227.5,166 227.5,166 225,163 225,163 225,165.098 223.061,166 221,166 221,166 221,169 221,169 221,169 219,176 219,176 219,176 219,177 219,177 219,178.046 223,184.195 223,189  Z"/>

<path  fill="#CBC9CB" stroke-width="0" stroke="#CBC9CB" d = " M193 166 C196.42,166 208.969,165.235 212.5,167 214.792,168.146 214.792,173.854 212.5,175 L202,176 C191.49,176 193,173.97 193,166  Z"/>

<path  fill="#CBC9CB" stroke-width="0" stroke="#CBC9CB" d = " M263 165 C259.946,165 245.751,165.875 243.5,167 241.208,168.146 241.208,173.854 243.5,175 L254,176 C268.121,176 263,172.952 263,165  Z"/>

<path  fill="#C8C8C8" stroke-width="0" stroke="#C8C8C8" d = " M236 168 C237.479,168 240.701,176 238,176 236.566,176 236,169.552 236,168  Z"/>

<path  fill="#C8C8C8" stroke-width="0" stroke="#C8C8C8" d = " M221 169 C218.497,169 215.169,176 219,176 219,176 221,169 221,169  Z"/>

<path  fill="#CCC7CC" stroke-width="0" stroke="#CCC7CC" d = " M227 170 C227,171.352 225,171.165 225,173.5 L225,178.5 C228.201,184.902 237.502,170 227,170  Z"/>

<path  fill="#FD90FE" stroke-width="0" stroke="#FD90FE" d = " M213 187 C213.906,187 223,197.407 223,189 223,184.195 219,178.046 219,177 212.261,177 213,181.519 213,187  Z"/>

<path  fill="#FD90FE" stroke-width="0" stroke="#FD90FE" d = " M243 187 C242.479,187 233,197.688 233,189 233,186.395 234.386,177 238,177 244.025,177 243,182.439 243,187  Z"/>

<path  fill="#FF64FF" stroke-width="0" stroke="#FF64FF" d = " M297 180 L296,181 C296,181 297,180 297,180  Z"/>

<path  fill="#FF64FF" stroke-width="0" stroke="#FF64FF" d = " M160 181 L161,182 C161,182 160,181 160,181  Z"/>

<path  fill="#FF64FF" stroke-width="0" stroke="#FF64FF" d = " M291 186 L295,186 C295,186 296,181 296,181 296,181 291,186 291,186  Z"/>

<path  fill="#FF64FF" stroke-width="0" stroke="#FF64FF" d = " M161 186 L166,186 C166,185.441 161.759,183 161,183 161,183 161,186 161,186  Z"/>

<path  fill="#30B824" stroke-width="0" stroke="#30B824" d = " M69 213 L68,220 C76.0705,220 85.4686,230.016 95.5,225 103.451,221.025 102.838,209.823 106,203.5 106.819,201.862 106.561,194 109,194 109,190.441 106,188.496 106,185 104.592,185 103,192.407 103,194 103,197.506 97.4973,213.501 94.5,215 85.5619,219.469 78.214,213 69,213  Z"/>

<path  fill="#FF8FFD" stroke-width="0" stroke="#FF8FFD" d = " M183 186 L184,186 C185.048,186 187,186.473 187,185 185.855,185 183,184.421 183,186  Z"/>

<path  fill="#FFC295" stroke-width="0" stroke="#FFC295" d = " M205 251 C195.739,251 185.596,252 177,252 177,248.682 176.046,234.593 175,232.5 174.195,230.89 170.695,231 169,231 164.65,231 168.366,215.233 167,212.5 165.749,209.999 160.693,199.113 162,196.5 164.123,192.255 171.865,190.817 175.5,189 176.614,188.443 181,188.59 181,187 182.048,187 184,187.473 184,186 185.048,186 187,186.473 187,185 187,185 198.5,185 198.5,185 198.5,185 203,187 203,187 203,187 205,189 205,189 205,192.501 210.462,214 213,214 213,215.357 213.647,220 215,220 215,220 215,222 215,222 215,225.301 213,229.523 213,231 201.726,231 205,244.712 205,251  Z"/>

<path  fill="#C8C8CC" stroke-width="0" stroke="#C8C8CC" d = " M213 210 L213,214 C210.462,214 205,192.501 205,189 205,189 205,187 205,187 205,183.142 209,185.537 209,188 209,189.346 211.282,198 212,198 212,198 213,210 213,210  Z"/>

<path  fill="#C8C8CC" stroke-width="0" stroke="#C8C8CC" d = " M243 214 L244,214 C246.314,214 247,209.738 247,208 247,201.415 252,194.152 252,188 252,188 252,187 252,187 252,181.827 247.106,188 247,188 247,189.761 245.127,200 244,200 244,200 243,214 243,214  Z"/>

<path  fill="#FFC295" stroke-width="0" stroke="#FFC295" d = " M251 251 C260.261,251 270.404,252 279,252 279,245.503 279.456,231 287,231 289.991,231 289,224.949 289,223 289,216.421 295.013,197.526 294,195.5 292.028,191.556 281.191,189.845 277.5,188 276.57,187.535 273,187.183 273,186 269.036,186 261.612,182.944 257.5,185 257.5,185 253,187 253,187 253,187 252,188 252,188 252,194.152 247,201.415 247,208 247,209.738 246.314,214 244,214 244,214 243,215 243,215 243,216.048 243.473,218 242,218 242,219.048 242.473,221 241,221 241,221 241,224 241,224 241,227.145 244,228.833 244,231 248.9,231 255.655,241.189 253,246.5 253,246.5 251,251 251,251  Z"/>

<path  fill="#FF64FF" stroke-width="0" stroke="#FF64FF" d = " M273 186 L274,186 C274,186 273,185 273,185 273,185 273,186 273,186  Z"/>

<path  fill="#30B824" stroke-width="0" stroke="#30B824" d = " M389 219 L389,220 C379.896,220 372.832,230.666 359.5,224 352.108,220.304 353.031,207.563 350,201.5 349.232,199.963 349.308,193 347,193 347,193 351,185 351,185 351,185 353,189.5 353,189.5 353,189.5 353,194.5 353,194.5 357.305,203.11 356.571,212.035 366.5,217 370.403,218.951 382.312,213 387,213 387,213.986 388.087,219 389,219  Z"/>

<path  fill-rule="evenodd" fill="#FF9B88" stroke-width="0" stroke="#FF9B88" d = " M166 277 C166,281.365 169.479,277 166,277  M184 285 C184,287.399 176.491,285.495 175.5,285 175.095,284.797 171,281.166 171,282.5 L176,287 C171.677,287 168.216,280.858 164.5,279 164.5,279 146.5,263 146.5,263 139.861,259.68 127.033,256.566 123,248.5 121.278,245.057 120.263,237.974 122,234.5 122.619,233.262 120.856,229 123,229 123,239.43 123.52,249.51 134.5,255 134.5,255 140.5,256 140.5,256 142.579,257.039 148.899,259.3 151.5,258 154.043,256.729 154.754,253 157,253 159.488,253 159,246.899 159,245 159,245 161,248 161,248 159.249,248 160,255.426 160,257 160,260.853 154.49,265.48 157,270.5 160.576,277.653 165.493,275.485 162,268.5 160.652,265.803 161,262.751 161,259.5 161,259.5 161,249 161,249 165.537,249 166.716,218.932 165,215.5 165,215.5 159,215.5 159,215.5 159,215.5 159,223 159,223 159,223 159,230.5 159,230.5 159,230.5 159,242 159,242 159,242 157,241 157,241 157,241 155,244 155,244 155,235.557 153.491,227.482 150,220.5 149.487,219.474 147.694,212.903 145.5,214 137.33,218.085 138.928,242.714 147.5,247 151.517,249.009 151.744,246 155,246 155,246 155,249 155,249 151.034,249 145.039,249.577 143,245.5 141.93,243.361 138.833,233 136,233 136,223.853 140.778,217.945 145,209.5 146.278,206.945 143,204.984 143,203 143,203 141,198 141,198 142.495,198 145.137,201 149,201 149,201 147,202.5 147,202.5 146.336,203.829 149.507,213 151.5,213 153.475,213 151,201.529 151,201 151,199.376 153,198.25 153,196 153,196 155.5,198 155.5,198 159.755,198 161,189.256 161,186 161,186 166,186 166,186 166,186 170.5,188 170.5,188 170.5,188 181,187 181,187 181,188.59 176.614,188.443 175.5,189 171.865,190.817 164.123,192.255 162,196.5 160.693,199.113 165.749,209.999 167,212.5 168.366,215.233 164.65,231 169,231 169,231 167,233.5 167,233.5 165.489,236.523 169.18,253.84 171.5,255 174.041,256.27 175.209,253 177,253 177,253 177,255 177,255 177,255 176,256 176,256 176,256 171.5,256 171.5,256 171.5,256 170,259 170,259 170,248.297 159.71,256.92 167,271.5 167.794,273.088 167.801,274 170,274 170,282.499 176.055,285 184,285  Z"/>

<path  fill="#FF9B88" stroke-width="0" stroke="#FF9B88" d = " M184 186 C184,187.473 182.048,187 181,187 181,187 183,186 183,186 183,186 184,186 184,186  Z"/>

<path  fill-rule="evenodd" fill="#FF9B88" stroke-width="0" stroke="#FF9B88" d = " M289 277 C289,280.479 292.479,277 289,277  M283 285 L282,286 C282,284.527 280.048,285 279,285 279,285 283,283 283,283 283,283 284,282 284,282 284,279.772 286,279.068 286,274 294.936,274 293.999,253 288.5,253 286.646,253 287.795,259 286,259 286,254.115 282.167,257 280,257 280,257 279,255 279,255 279,255 279,253 279,253 280.791,253 281.959,256.27 284.5,255 288.442,253.029 291.183,237.867 289,233.5 289,233.5 287,231 287,231 289.991,231 289,224.949 289,223 289,216.421 295.013,197.526 294,195.5 292.028,191.556 281.191,189.845 277.5,188 276.57,187.535 273,187.183 273,186 273,186 274,186 274,186 274,186 285.5,188 285.5,188 285.5,188 291,186 291,186 291,186 295,186 295,186 295,192.196 297.535,197 303,197 303,197 305,201 305,201 305,201 304,211.5 304,211.5 305.772,215.044 310,205.418 310,203.5 310,203.5 307,201 307,201 310.354,201 312.291,199 315,199 315,199 315,201 315,201 315,201 314,202 314,202 314,202 313,203 313,203 313,203 311,208.5 311,208.5 314.691,215.883 321,223.156 321,232 321,232 315,240 315,240 315,229.389 318.622,228.744 313,217.5 313,217.5 312.5,215 312.5,215 306.913,212.207 301,233.715 301,239 298.627,239 301,242.336 301,240 303.012,240 301.046,246.773 303.5,248 309.656,251.078 311.982,240 315,240 315,248.126 307.553,249 301,249 301,246.68 301.666,241 298,241 298,241 298,230 298,230 298,230 297,223.5 297,223.5 297,223.5 297,215.5 297,215.5 297,215.5 292,215.5 292,215.5 290.324,218.852 289.871,249 295,249 295,249 295,269 295,269 295,269.922 290.944,277 294,277 294,279.591 285.071,285 283,285  Z"/>

<path  fill="#FF9B88" stroke-width="0" stroke="#FF9B88" d = " M205 187 L205,189 C205,189 203,187 203,187 203,187 205,187 205,187  Z"/>

<path  fill="#FF64FF" stroke-width="0" stroke="#FF64FF" d = " M213 187 L212,188 C212,188 213,187 213,187  Z"/>

<path  fill="#FFC393" stroke-width="0" stroke="#FFC393" d = " M224 232 C228.884,232 225.017,220.241 227.5,219 230.212,217.644 228.93,232 232,232 232,232 235,231 235,231 235,231 239,227.5 239,227.5 239,227.5 241,224 241,224 241,224 241,221 241,221 241,219.952 240.527,218 242,218 242,216.952 241.527,215 243,215 243,215 243,214 243,214 243,214 244,200 244,200 244,200 244,188 244,188 244,188 244,187 244,187 244,187 243,187 243,187 242.479,187 233,197.688 233,189 229.731,189 230.459,190.021 228.5,191 228.385,191.057 224.772,189 223,189 223,197.407 213.906,187 213,187 213,187 212,188 212,188 212,188 212,198 212,198 212,198 213,210 213,210 214.16,210 215,218.505 215,220 215,220 215,222 215,222 216.183,222 216.535,225.57 217,226.5 217,226.5 221,231 221,231 221,231 224,232 224,232  Z"/>

<path  fill="#FF64FF" stroke-width="0" stroke="#FF64FF" d = " M244 188 L245,188 C245,188 244,187 244,187 244,187 244,188 244,188  Z"/>

<path  fill="#FF9B88" stroke-width="0" stroke="#FF9B88" d = " M253 187 L252,188 C252,188 252,187 252,187 252,187 253,187 253,187  Z"/>

<path  fill="#FF9B88" stroke-width="0" stroke="#FF9B88" d = " M212 188 L212,198 C211.282,198 209,189.346 209,188 209,188 212,188 212,188  Z"/>

<path  fill="#FF9B88" stroke-width="0" stroke="#FF9B88" d = " M247 188 C247,189.761 245.127,200 244,200 244,200 244,188 244,188 244,188 245,188 245,188 245,188 247,188 247,188  Z"/>

<path  fill="#F0F080" stroke-width="0" stroke="#F0F080" d = " M136 197 C136,200.226 132.038,198.231 130.5,199 L127,204 C127,198.254 130.32,194 135,194 135,194 136,197 136,197  Z"/>

<path  fill="#F0F080" stroke-width="0" stroke="#F0F080" d = " M321 197 C321,200.226 324.962,198.231 326.5,199 L329,203 C329,198.783 326.959,193 322,193 322,193 321,197 321,197  Z"/>

<path  fill="#31B625" stroke-width="0" stroke="#31B625" d = " M389 220 L389,226 C389,227.9 382.882,228.309 381.5,229 377.87,230.815 366.08,233.29 361.5,231 351.65,226.075 345,210.742 345,200 345,200 347,193 347,193 349.308,193 349.232,199.963 350,201.5 353.031,207.563 352.108,220.304 359.5,224 372.832,230.666 379.896,220 389,220  Z"/>

<path  fill="#31B625" stroke-width="0" stroke="#31B625" d = " M68 220 L67,225 C67,228.819 89.9193,233.29 94.5,231 103.132,226.684 112,209.364 112,200 112,200 109,194 109,194 106.561,194 106.819,201.862 106,203.5 102.838,209.823 103.451,221.025 95.5,225 85.4686,230.016 76.0705,220 68,220  Z"/>

<path  fill="#CCCCCA" stroke-width="0" stroke="#CCCCCA" d = " M129 227 C129,228.59 134.662,233 136,233 136,223.853 140.778,217.945 145,209.5 146.278,206.945 143,204.984 143,203 143,203 136,197 136,197 136,200.226 132.038,198.231 130.5,199 130.5,199 127,204 127,204 127,204 127,208 127,208 127,214.707 129,221.268 129,227  Z"/>

<path  fill="#FF9B88" stroke-width="0" stroke="#FF9B88" d = " M316 197 L315,198 C315,198 316,197 316,197  Z"/>

<path  fill="#CCCCCA" stroke-width="0" stroke="#CCCCCA" d = " M328 227 C325.304,227 324.153,232 321,232 321,223.156 314.691,215.883 311,208.5 311,208.5 313,203 313,203 313,203 314,202 314,202 314,202 315,201 315,201 317.773,201 318.67,197 321,197 321,200.226 324.962,198.231 326.5,199 326.5,199 329,203 329,203 329,203 329,205 329,205 329,206.145 328.421,209 330,209 330,209 330,211 330,211 330,211 328,227 328,227  Z"/>

<path  fill="#CBC7CC" stroke-width="0" stroke="#CBC7CC" d = " M149 201 L151,201 C151,201.529 153.475,213 151.5,213 149.507,213 146.336,203.829 147,202.5 147,202.5 149,201 149,201  Z"/>

<path  fill="#CBC7CC" stroke-width="0" stroke="#CBC7CC" d = " M305 201 L307,201 C307,201 310,203.5 310,203.5 310,205.418 305.772,215.044 304,211.5 304,211.5 305,201 305,201  Z"/>

<path  fill="#C9C9CB" stroke-width="0" stroke="#C9C9CB" d = " M315 201 L314,202 C314,202 315,201 315,201  Z"/>

<path  fill="#C9C9CB" stroke-width="0" stroke="#C9C9CB" d = " M314 202 L313,203 C313,203 314,202 314,202  Z"/>

<path  fill="#F0F080" stroke-width="0" stroke="#F0F080" d = " M329 205 C330.579,205 330,207.855 330,209 328.421,209 329,206.145 329,205  Z"/>

<path  fill="#F0F080" stroke-width="0" stroke="#F0F080" d = " M124 227 L129,227 C129,221.268 127,214.707 127,208 125.357,208 126,211.765 126,213 126,217.32 123,223.025 123,227 123,227 124,227 124,227  Z"/>

<path  fill="#FF9B88" stroke-width="0" stroke="#FF9B88" d = " M213 214 C213,215.357 213.647,220 215,220 215,218.505 214.16,210 213,210 213,210 213,214 213,214  Z"/>

<path  fill="#F0F080" stroke-width="0" stroke="#F0F080" d = " M333 227 L333,228 C333,228 328,227 328,227 328,227 330,211 330,211 331.534,211 331,213.402 331,214.5 331,219.326 333,222.665 333,227  Z"/>

<path  fill="#FFAE6F" stroke-width="0" stroke="#FFAE6F" d = " M155 244 L155,246 C151.744,246 151.517,249.009 147.5,247 138.928,242.714 137.33,218.085 145.5,214 147.694,212.903 149.487,219.474 150,220.5 153.491,227.482 155,235.557 155,244  Z"/>

<path  fill="#FF9B88" stroke-width="0" stroke="#FF9B88" d = " M244 214 L243,215 C243,215 243,214 243,214 243,214 244,214 244,214  Z"/>

<path  fill="#FFAE6F" stroke-width="0" stroke="#FFAE6F" d = " M301 240 C303.012,240 301.046,246.773 303.5,248 309.656,251.078 311.982,240 315,240 315,229.389 318.622,228.744 313,217.5 313,217.5 312.5,215 312.5,215 306.913,212.207 301,233.715 301,239 301,239 301,240 301,240  Z"/>

<path  fill="#C8C8CB" stroke-width="0" stroke="#C8C8CB" d = " M161 248 L161,249 C165.537,249 166.716,218.932 165,215.5 165,215.5 159,215.5 159,215.5 159,215.5 159,223 159,223 159,223 159,230.5 159,230.5 159,230.5 159,242 159,242 159,242 159,245 159,245 159,245 161,248 161,248  Z"/>

<path  fill="#FF9B88" stroke-width="0" stroke="#FF9B88" d = " M243 215 C241.527,215 242,216.952 242,218 243.473,218 243,216.048 243,215  Z"/>

<path  fill="#C8C8CB" stroke-width="0" stroke="#C8C8CB" d = " M296 248 L295,249 C289.871,249 290.324,218.852 292,215.5 292,215.5 297,215.5 297,215.5 297,215.5 297,223.5 297,223.5 297,223.5 298,230 298,230 298,230 298,241 298,241 298,241 298,242 298,242 298,242 297,243 297,243 297,243 297,247 297,247 297,247 296,248 296,248  Z"/>

<path  fill="#FF9B88" stroke-width="0" stroke="#FF9B88" d = " M242 218 C240.527,218 241,219.952 241,221 242.473,221 242,219.048 242,218  Z"/>

<path  fill="#FF9B88" stroke-width="0" stroke="#FF9B88" d = " M226 259 L231,259 C231,259 231,249 231,249 229.386,249 230,245.69 230,244.5 230,240.501 232,235.777 232,232 228.93,232 230.212,217.644 227.5,219 225.017,220.241 228.884,232 224,232 224,232 227,242.5 227,242.5 227,242.5 226,249 226,249 226,249 226,259 226,259  Z"/>

<path  fill="#FF9B88" stroke-width="0" stroke="#FF9B88" d = " M213 231 L221,231 C221,231 217,226.5 217,226.5 216.535,225.57 216.183,222 215,222 215,225.301 213,229.523 213,231  Z"/>

<path  fill="#FF9B88" stroke-width="0" stroke="#FF9B88" d = " M235 231 L244,231 C244,228.833 241,227.145 241,224 241,224 239,227.5 239,227.5 239,227.5 235,231 235,231  Z"/>

<path  fill="#FF9B88" stroke-width="0" stroke="#FF9B88" d = " M124 227 L123,229 C123,229 123,227 123,227 123,227 124,227 124,227  Z"/>

<path  fill="#CACACB" stroke-width="0" stroke="#CACACB" d = " M155 249 L157,253 C154.754,253 154.043,256.729 151.5,258 148.899,259.3 142.579,257.039 140.5,256 140.5,256 134.5,255 134.5,255 123.52,249.51 123,239.43 123,229 123,229 124,227 124,227 124,227 129,227 129,227 129,228.59 134.662,233 136,233 138.833,233 141.93,243.361 143,245.5 145.039,249.577 151.034,249 155,249  Z"/>

<path  fill="#CACACB" stroke-width="0" stroke="#CACACB" d = " M301 249 L300,252 C300,259.636 316.237,258.131 320.5,256 327.357,252.571 330.807,245.887 334,239.5 334,239.5 333,228 333,228 333,228 328,227 328,227 325.304,227 324.153,232 321,232 321,232 315,240 315,240 315,248.126 307.553,249 301,249  Z"/>

<path  fill="#FF9B88" stroke-width="0" stroke="#FF9B88" d = " M296 248 C296,254.609 297.308,258.117 300,263.5 L299,272 C299,272 307.5,265 307.5,265 314.283,261.608 330.088,255.324 334,247.5 335.857,243.786 335.86,234.221 334,230.5 333.477,229.454 334.951,227 333,227 333,227 333,228 333,228 333,228 334,239.5 334,239.5 330.807,245.887 327.357,252.571 320.5,256 316.237,258.131 300,259.636 300,252 297.4,252 297,249.361 297,247 297,247 296,248 296,248  Z"/>

<path  fill="#C9C9CB" stroke-width="0" stroke="#C9C9CB" d = " M177 252 L177,253 C175.209,253 174.041,256.27 171.5,255 169.18,253.84 165.489,236.523 167,233.5 167,233.5 169,231 169,231 170.695,231 174.195,230.89 175,232.5 176.046,234.593 177,248.682 177,252  Z"/>

<path  fill="#FEBA85" stroke-width="0" stroke="#FEBA85" d = " M211 253 L213,253 C213,253 221,252 221,252 221,250.734 221.658,246 223.5,246 223.5,246 226,249 226,249 226,249 227,242.5 227,242.5 227,242.5 224,232 224,232 224,232 221,231 221,231 221,231 213,231 213,231 201.726,231 205,244.712 205,251 205,251 210,252 210,252 210,252 211,253 211,253  Z"/>

<path  fill="#FEBA85" stroke-width="0" stroke="#FEBA85" d = " M235 252 L243,253 C243,253 251,251 251,251 251,251 253,246.5 253,246.5 255.655,241.189 248.9,231 244,231 244,231 235,231 235,231 235,231 232,232 232,232 232,235.777 230,240.501 230,244.5 230,245.69 229.386,249 231,249 231,244.279 235,248.756 235,252  Z"/>

<path  fill="#C9C9CB" stroke-width="0" stroke="#C9C9CB" d = " M279 252 L279,253 C280.791,253 281.959,256.27 284.5,255 288.442,253.029 291.183,237.867 289,233.5 289,233.5 287,231 287,231 279.456,231 279,245.503 279,252  Z"/>

<path  fill="#CCCBCA" stroke-width="0" stroke="#CCCBCA" d = " M301 239 C298.627,239 301,242.336 301,240 301,240 301,239 301,239  Z"/>

<path  fill="#FDB986" stroke-width="0" stroke="#FDB986" d = " M155 249 L157,253 C159.488,253 159,246.899 159,245 159,245 159,242 159,242 159,242 157,241 157,241 157,241 155,244 155,244 155,244 155,246 155,246 155,246 155,249 155,249  Z"/>

<path  fill="#FDB986" stroke-width="0" stroke="#FDB986" d = " M301 249 L300,252 C297.4,252 297,249.361 297,247 297,247 297,243 297,243 297,243 298,242 298,242 298,242 298,241 298,241 301.666,241 301,246.68 301,249  Z"/>

<path  fill="#FF9B88" stroke-width="0" stroke="#FF9B88" d = " M298 242 L297,243 C297,243 298,242 298,242  Z"/>

<path  fill="#CACCC8" stroke-width="0" stroke="#CACCC8" d = " M226 259 C226,267.835 215,269.724 215,260 215,256.155 221,256.292 221,252 221,250.734 221.658,246 223.5,246 223.5,246 226,249 226,249 226,249 226,259 226,259  Z"/>

<path  fill="#CACCC8" stroke-width="0" stroke="#CACCC8" d = " M231 259 C231,268.842 241,270.149 241,260 241,256.349 235,255.983 235,252 235,248.756 231,244.279 231,249 231,249 231,259 231,259  Z"/>

<path  fill="#CBC7CC" stroke-width="0" stroke="#CBC7CC" d = " M161 248 C159.249,248 160,255.426 160,257 160,260.853 154.49,265.48 157,270.5 160.576,277.653 165.493,275.485 162,268.5 160.652,265.803 161,262.751 161,259.5 L161,249 C161,249 161,248 161,248  Z"/>

<path  fill="#CBC7CC" stroke-width="0" stroke="#CBC7CC" d = " M295 276 L294,277 C290.944,277 295,269.922 295,269 295,269 295,249 295,249 295,249 296,248 296,248 296,254.609 297.308,258.117 300,263.5 300,263.5 299,272 299,272 299,272 298,273 298,273 298,273 297,274 297,274 297,274 296,275 296,275 296,275 295,276 295,276  Z"/>

<path  fill="#FDBA86" stroke-width="0" stroke="#FDBA86" d = " M192 260 L204,260 C204,257.856 208.262,259.619 209.5,259 213.339,257.081 213,256.179 213,253 213,253 211,253 211,253 211,253 210,252 210,252 210,252 205,251 205,251 195.739,251 185.596,252 177,252 177,252 177,253 177,253 177,253 177,255 177,255 182.195,255 186.477,259 189,259 189,259 192,260 192,260  Z"/>

<path  fill="#FDBA86" stroke-width="0" stroke="#FDBA86" d = " M264 260 L266,260 C266,260 267,259 267,259 269.853,259 274.064,255 279,255 279,255 279,253 279,253 279,253 279,252 279,252 270.404,252 260.261,251 251,251 251,251 243,253 243,253 243,261.357 252,257.784 252,260 252,260 264,260 264,260  Z"/>

<path  fill="#FF9B88" stroke-width="0" stroke="#FF9B88" d = " M210 252 L211,253 C211,253 210,252 210,252  Z"/>

<path  fill="#FF9B88" stroke-width="0" stroke="#FF9B88" d = " M215 260 L212,261 C209.903,261 206.707,260 204,260 204,257.856 208.262,259.619 209.5,259 213.339,257.081 213,256.179 213,253 213,253 221,252 221,252 221,256.292 215,256.155 215,260  Z"/>

<path  fill="#FF9B88" stroke-width="0" stroke="#FF9B88" d = " M252 260 L244,261 C244,261 241,260 241,260 241,256.349 235,255.983 235,252 235,252 243,253 243,253 243,261.357 252,257.784 252,260  Z"/>

<path  fill="#FEAE6E" stroke-width="0" stroke="#FEAE6E" d = " M170 259 C170,261.005 174.212,274 170,274 167.801,274 167.794,273.088 167,271.5 159.71,256.92 170,248.297 170,259  Z"/>

<path  fill="#FEAE6E" stroke-width="0" stroke="#FEAE6E" d = " M286 259 C287.795,259 286.646,253 288.5,253 293.999,253 294.936,274 286,274 286,269.71 286,263.334 286,259  Z"/>

<path  fill="#FFAD6E" stroke-width="0" stroke="#FFAD6E" d = " M191 267 C191,268.235 191.643,272 190,272 185.089,272 176,260.822 176,256 176,256 177,255 177,255 182.195,255 186.477,259 189,259 189,259 191,261 191,261 191,261 191,267 191,267  Z"/>

<path  fill="#FFAD6E" stroke-width="0" stroke="#FFAD6E" d = " M265 269 C265,270.048 264.527,272 266,272 270.886,272 280,261.506 280,257 280,257 279,255 279,255 274.064,255 269.853,259 267,259 267,259 266,260 266,260 266,260 265,262 265,262 265,262 265,269 265,269  Z"/>

<path  fill="#FEAD6F" stroke-width="0" stroke="#FEAD6F" d = " M184 285 L185,285 C185,284.063 191.867,281.765 193,279.5 194.795,275.911 190,274.456 190,272 185.089,272 176,260.822 176,256 176,256 171.5,256 171.5,256 171.5,256 170,259 170,259 170,261.005 174.212,274 170,274 170,282.499 176.055,285 184,285  Z"/>

<path  fill="#FEAD6F" stroke-width="0" stroke="#FEAD6F" d = " M273 285 L279,285 C279,285 283,283 283,283 283,283 284,282 284,282 284,279.772 286,279.068 286,274 286,269.71 286,263.334 286,259 286,254.115 282.167,257 280,257 280,261.506 270.886,272 266,272 266,274.348 261.398,276.296 263,279.5 264.133,281.765 271,284.063 271,285 271,285 273,285 273,285  Z"/>

<path  fill="#FF9B88" stroke-width="0" stroke="#FF9B88" d = " M192 260 L191,261 C191,261 189,259 189,259 189,259 192,260 192,260  Z"/>

<path  fill="#FF9BCD" stroke-width="0" stroke="#FF9BCD" d = " M198 283 L201,283 C201,281.683 197.644,281.212 199,278.5 200.515,275.47 212.898,265.297 216,271.5 217.829,275.158 213,277.406 213,280 219.639,280 224.265,268.882 232.5,273 236.629,275.065 239.318,281 245,281 245,281 240,274.5 240,274.5 237.495,269.491 247.513,270.007 249.5,271 249.5,271 256.5,277 256.5,277 256.5,277 258,280 258,280 260.064,280 258.426,276.647 259,275.5 259,275.5 261,273 261,273 256.669,273 244,265.53 244,261 244,261 241,260 241,260 241,270.149 231,268.842 231,259 231,259 226,259 226,259 226,267.835 215,269.724 215,260 215,260 212,261 212,261 212,261 213,263.5 213,263.5 212.567,264.365 197.085,273 196,273 196,276.255 198,279.058 198,283  Z"/>

<path  fill="#FF9B88" stroke-width="0" stroke="#FF9B88" d = " M267 259 L266,260 C266,260 267,259 267,259  Z"/>

<path  fill="#FEA3D2" stroke-width="0" stroke="#FEA3D2" d = " M191 267 C193.352,267 191.59,273 196,273 197.085,273 212.567,264.365 213,263.5 213,263.5 212,261 212,261 209.903,261 206.707,260 204,260 204,260 192,260 192,260 192,260 191,261 191,261 191,261 191,267 191,267  Z"/>

<path  fill="#FEA3D2" stroke-width="0" stroke="#FEA3D2" d = " M265 269 C262.993,269 263.879,273 261,273 256.669,273 244,265.53 244,261 244,261 252,260 252,260 252,260 264,260 264,260 264,260 265,262 265,262 265,262 265,269 265,269  Z"/>

<path  fill="#FF9B88" stroke-width="0" stroke="#FF9B88" d = " M266 260 L265,262 C265,262 264,260 264,260 264,260 266,260 266,260  Z"/>

<path  fill="#FF9B88" stroke-width="0" stroke="#FF9B88" d = " M198 283 C193.793,283 189.846,285 185,285 185,284.063 191.867,281.765 193,279.5 194.795,275.911 190,274.456 190,272 191.643,272 191,268.235 191,267 193.352,267 191.59,273 196,273 196,276.255 198,279.058 198,283  Z"/>

<path  fill="#FF9B88" stroke-width="0" stroke="#FF9B88" d = " M259 283 C262.956,283 266.497,285 271,285 271,284.063 264.133,281.765 263,279.5 261.398,276.296 266,274.348 266,272 264.527,272 265,270.048 265,269 262.993,269 263.879,273 261,273 261,273 259,275.5 259,275.5 258.426,276.647 260.064,280 258,280 258,280 258,281 258,281 258,281 259,283 259,283  Z"/>

<path  fill="#C7C9C9" stroke-width="0" stroke="#C7C9C9" d = " M209 282 L201,283 C201,281.683 197.644,281.212 199,278.5 200.515,275.47 212.898,265.297 216,271.5 217.829,275.158 213,277.406 213,280 213,280 211,281 211,281 211,281 210,281 210,281 210,281 209,282 209,282  Z"/>

<path  fill="#C7C9C9" stroke-width="0" stroke="#C7C9C9" d = " M258 281 L256,283 C251.77,283 248.446,281 245,281 245,281 240,274.5 240,274.5 237.495,269.491 247.513,270.007 249.5,271 249.5,271 256.5,277 256.5,277 256.5,277 258,280 258,280 258,280 258,281 258,281  Z"/>

<path  fill="#FF9B88" stroke-width="0" stroke="#FF9B88" d = " M299 272 L298,273 C298,273 299,272 299,272  Z"/>

<path  fill="#CCC7CB" stroke-width="0" stroke="#CCC7CB" d = " M261 288 L264,288 C264,286.203 276.925,287 279,287 279,287 280,287 280,287 280,287 282,286 282,286 282,284.527 280.048,285 279,285 279,286.587 273,286.587 273,285 273,285 271,285 271,285 266.497,285 262.956,283 259,283 259,283 256,283 256,283 251.77,283 248.446,281 245,281 239.318,281 236.629,275.065 232.5,273 224.265,268.882 219.639,280 213,280 213,280 211,281 211,281 211,281 210,281 210,281 210,281 209,282 209,282 209,282 201,283 201,283 201,283 198,283 198,283 193.793,283 189.846,285 185,285 185,285 184,285 184,285 184,287.399 176.491,285.495 175.5,285 175.095,284.797 171,281.166 171,282.5 171,282.5 176,287 176,287 176,287 178,287 178,287 180.075,287 193,286.203 193,288 193,288 196,288 196,288 196,288 197,287 197,287 197,287 201,287 201,287 201,285.142 214.161,285 217,285 217,285 219,285 219,285 219,285 221,284 221,284 221,284 222,283 222,283 222,283 229.5,281 229.5,281 229.5,281 236,284 236,284 236,284 237,285 237,285 237,285 239,285 239,285 246.67,285 252.846,287 260,287 260,287 261,288 261,288  Z"/>

<path  fill="#FF9B88" stroke-width="0" stroke="#FF9B88" d = " M298 273 L297,274 C297,274 298,273 298,273  Z"/>

<path  fill="#FF9B88" stroke-width="0" stroke="#FF9B88" d = " M296 275 L295,276 C295,276 296,275 296,275  Z"/>

<path  fill="#FF9B88" stroke-width="0" stroke="#FF9B88" d = " M295 276 L294,277 C294,277 295,276 295,276  Z"/>

<path  fill="#CCC7CB" stroke-width="0" stroke="#CCC7CB" d = " M166 277 C166,281.365 169.479,277 166,277  Z"/>

<path  fill="#CCC7CB" stroke-width="0" stroke="#CCC7CB" d = " M289 277 C289,280.479 292.479,277 289,277  Z"/>

<path  fill="#FF9BCD" stroke-width="0" stroke="#FF9BCD" d = " M213 280 L211,281 C211,281 213,280 213,280  Z"/>

<path  fill="#FF9BCD" stroke-width="0" stroke="#FF9BCD" d = " M210 281 L209,282 C209,282 210,281 210,281  Z"/>

<path  fill="#FF9BCD" stroke-width="0" stroke="#FF9BCD" d = " M256 283 L259,283 C259,283 258,281 258,281 258,281 256,283 256,283  Z"/>

<path  fill="#FF9BCD" stroke-width="0" stroke="#FF9BCD" d = " M222 283 L221,284 C221,284 222,283 222,283  Z"/>

<path  fill="#FF9BCD" stroke-width="0" stroke="#FF9BCD" d = " M221 284 L219,285 C219,285 221,284 221,284  Z"/>

<path  fill="#FF9BCD" stroke-width="0" stroke="#FF9BCD" d = " M236 284 L237,285 C237,285 236,284 236,284  Z"/>

<path  fill="#FF9BCD" stroke-width="0" stroke="#FF9BCD" d = " M217 285 C214.161,285 201,285.142 201,287 203.267,287 217,286.557 217,285  Z"/>

<path  fill="#FF9BCD" stroke-width="0" stroke="#FF9BCD" d = " M260 287 L260,288 C260,288 244.5,286 244.5,286 243.222,286 239,286.665 239,285 246.67,285 252.846,287 260,287  Z"/>

<path  fill="#FF9B88" stroke-width="0" stroke="#FF9B88" d = " M273 285 L279,285 C279,286.587 273,286.587 273,285  Z"/>

<path  fill="#FF9B88" stroke-width="0" stroke="#FF9B88" d = " M282 286 L280,287 C280,287 282,286 282,286  Z"/>

<path  fill="#FF9B88" stroke-width="0" stroke="#FF9B88" d = " M178 287 C180.075,287 193,286.203 193,288 190.925,288 178,288.797 178,287  Z"/>

<path  fill="#FF9B88" stroke-width="0" stroke="#FF9B88" d = " M196 288 L197,288 C197,288 197,287 197,287 197,287 196,288 196,288  Z"/>

<path  fill="#FF9BCD" stroke-width="0" stroke="#FF9BCD" d = " M201 287 C201,288.579 198.145,288 197,288 197,288 197,287 197,287 197,287 201,287 201,287  Z"/>

<path  fill="#FF9B88" stroke-width="0" stroke="#FF9B88" d = " M260 288 L261,288 C261,288 260,287 260,287 260,287 260,288 260,288  Z"/>

<path  fill="#FF9B88" stroke-width="0" stroke="#FF9B88" d = " M279 287 C276.925,287 264,286.203 264,288 266.075,288 279,288.797 279,287  Z"/>

</g>
</svg>
