<svg xmlns="http://www.w3.org/2000/svg" xmlns:xlink="http://www.w3.org/1999/xlink"  viewBox="0 0 456 320">
<g>
<rect width="456" height="320" fill="#000000"  stroke-width="0" /> 
<path  fill="#99D2BD" stroke-width="0" stroke="#99D2BD" d = " M212 211 C212.706,211 218,208.274 218,211 222.011,211 226,189.117 226,184.5 226,173.293 226.791,139.081 223,131.5 219.915,125.331 206.489,117.506 199.5,121 199.5,121 186.5,127 186.5,127 180.97,129.765 166,139.045 166,146 170.416,146 166.694,159.889 168,162.5 170.075,166.649 168.936,172.372 171,176.5 174.479,183.458 177.502,190.504 181,197.5 183.282,202.064 184.478,209 191,209 193.334,209 192.341,204.819 193,203.5 193,203.5 201,185.5 201,185.5 202.093,183.314 210.024,183.549 211,185.5 214.714,192.928 212,203.165 212,211  Z"/>

<path  fill="#99D2BD" stroke-width="0" stroke="#99D2BD" d = " M239 211 C239,208.274 244.294,211 245,211 245,203.649 241.138,194.225 245,186.5 246.274,183.952 253.537,182.575 255,185.5 258.315,192.129 265,202.361 265,210 270.349,210 273.185,202.13 275,198.5 278.039,192.422 280.96,186.579 284,180.5 284,180.5 288,166.5 288,166.5 290.628,161.244 284.507,147 291,147 291,141.53 282.903,138.305 281,134.5 279.51,131.519 274.6,129.55 271.5,128 259.821,122.161 252.074,118.713 239.5,125 227.932,130.784 231,165.684 231,178.5 231,188.616 230.849,196.199 235,204.5 235.824,206.149 235.87,211 239,211  Z"/>

<path  fill="#99D2BD" stroke-width="0" stroke="#99D2BD" d = " M166 146 L165,147 C165,147 166,146 166,146  Z"/>

<path  fill="#C7CBCA" stroke-width="0" stroke="#C7CBCA" d = " M212 211 C212.706,211 218,208.274 218,211 218,211 211,219.5 211,219.5 206.135,224.365 187.711,239.606 180.5,236 167.415,229.457 174.468,220.435 171,213.5 171,213.5 168,205 168,205 168,205 167,204 167,204 167,204 167,202 167,202 167,202 164,180.5 164,180.5 164,179.052 164.725,173 163,173 163,173 163,156 163,156 164.579,156 164,153.145 164,152 164,152 164,151 164,151 164,151 165,149 165,149 165,149 165,147 165,147 165,147 166,146 166,146 170.416,146 166.694,159.889 168,162.5 170.075,166.649 168.936,172.372 171,176.5 174.479,183.458 177.502,190.504 181,197.5 183.282,202.064 184.478,209 191,209 191,227.482 210.051,211 212,211  Z"/>

<path  fill="#C7CBCA" stroke-width="0" stroke="#C7CBCA" d = " M239 211 C239,208.274 244.294,211 245,211 245,214.825 265,223.161 265,210 270.349,210 273.185,202.13 275,198.5 278.039,192.422 280.96,186.579 284,180.5 284,180.5 288,166.5 288,166.5 290.628,161.244 284.507,147 291,147 291,147 291,148 291,148 291,148 292,150 292,150 292,150 292,151 292,151 292,151 293,153 293,153 293,153 293,157 293,157 293,157 293,173 293,173 293,173 293,179 293,179 291.316,179 292,183.679 292,185 292,190.028 290,195.569 290,201 290,201 289,203 289,203 289,203 289,205 289,205 289,205 288,206 288,206 288,206 286,211.5 286,211.5 282.358,218.784 288.454,230.023 276.5,236 269.188,239.656 239,217.91 239,211  Z"/>

<path  fill="#99D2BD" stroke-width="0" stroke="#99D2BD" d = " M291 148 L292,150 C292,150 291,148 291,148  Z"/>

<path  fill="#99D2BD" stroke-width="0" stroke="#99D2BD" d = " M165 149 L164,151 C164,151 165,149 165,149  Z"/>

<path  fill="#99D2BD" stroke-width="0" stroke="#99D2BD" d = " M292 151 L293,153 C293,153 292,151 292,151  Z"/>

<path  fill="#99D2BD" stroke-width="0" stroke="#99D2BD" d = " M164 152 C162.421,152 163,154.855 163,156 164.579,156 164,153.145 164,152  Z"/>

<path  fill="#99D2BD" stroke-width="0" stroke="#99D2BD" d = " M293 157 C294.649,157 294.649,173 293,173 293,173 293,157 293,157  Z"/>

<path  fill="#99D2BD" stroke-width="0" stroke="#99D2BD" d = " M163 173 C164.725,173 164,179.052 164,180.5 L167,202 C164.643,202 165.736,195.971 165,194.5 162.289,189.078 163,179.374 163,173  Z"/>

<path  fill="#99D2BD" stroke-width="0" stroke="#99D2BD" d = " M293 179 C291.316,179 292,183.679 292,185 292,190.028 290,195.569 290,201 292.064,201 290.426,197.647 291,196.5 293.404,191.691 293,184.761 293,179  Z"/>

<path  fill="#9AD1BD" stroke-width="0" stroke="#9AD1BD" d = " M191 209 C193.334,209 192.341,204.819 193,203.5 L201,185.5 C202.093,183.314 210.024,183.549 211,185.5 214.714,192.928 212,203.165 212,211 210.051,211 191,227.482 191,209  Z"/>

<path  fill="#9AD1BD" stroke-width="0" stroke="#9AD1BD" d = " M265 210 C265,223.161 245,214.825 245,211 245,203.649 241.138,194.225 245,186.5 246.274,183.952 253.537,182.575 255,185.5 258.315,192.129 265,202.361 265,210  Z"/>

<path  fill="#99D2BD" stroke-width="0" stroke="#99D2BD" d = " M290 201 L289,203 C289,203 290,201 290,201  Z"/>

<path  fill="#99D2BD" stroke-width="0" stroke="#99D2BD" d = " M167 204 L168,205 C168,205 167,204 167,204  Z"/>

<path  fill="#99D2BD" stroke-width="0" stroke="#99D2BD" d = " M289 205 L288,206 C288,206 289,205 289,205  Z"/>

</g>
</svg>
