<svg xmlns="http://www.w3.org/2000/svg" xmlns:xlink="http://www.w3.org/1999/xlink"  viewBox="0 0 456 320">
<g>
<rect width="456" height="320" fill="#000000"  stroke-width="0" /> 
<path  fill="#FCFB90" stroke-width="0" stroke="#FCFB90" d = " M238 69 L237,70 C237,70 231,69 231,69 231,69 229,69 229,69 229,69 227,69 227,69 227,69 226,69 226,69 226,69 219,70 219,70 219,68.7617 218.577,67 217,67 217,67 217,66 217,66 217,66 216,65 216,65 216,65 216,64 216,64 216,64 215,62 215,62 215,62 215,61 215,61 215,61 213,57 213,57 213,57 213,55 213,55 213,53.2531 212.747,53 211,53 211,53 211,52 211,52 211,52 210,51 210,51 210,51 209,50 209,50 209,50 208,49 208,49 208,49 204,46 204,46 204,42.4688 211.079,42.2106 213.5,41 220.376,37.5622 236.609,37.5543 243.5,41 245.463,41.9814 252,42.2998 252,46 252,46 251,47 251,47 251,47 250,48 250,48 250,48 249,49 249,49 249,49 248,50 248,50 248,50 247,51 247,51 247,51 246,52 246,52 246,52 245,53 245,53 245,53 244,55 244,55 244,55 243,57 243,57 243,57 243,58 243,58 243,58 242,60 242,60 242,60 242,61 242,61 242,61 241,62 241,62 241,62 241,64 241,64 241,64 240,65 240,65 240,65 240,66 240,66 240,66 239,67 239,67 239,67 239,68 239,68 239,68 238,69 238,69  Z"/>

<path  fill="#FF64FF" stroke-width="0" stroke="#FF64FF" d = " M211 77 L212,77 C212,77 213,76 213,76 213,76 214,75 214,75 214,73.4226 215.762,73 217,73 217,70.8484 217,68.9287 217,67 217,67 217,66 217,66 217,66 216,65 216,65 216,65 216,64 216,64 216,64 215,62 215,62 215,62 215,61 215,61 215,61 213,57 213,57 213,57 213,55 213,55 213,55 211,53 211,53 211,53 211,52 211,52 211,52 210,51 210,51 210,51 209,50 209,50 209,50 208,49 208,49 208,49 204,46 204,46 202.593,46 190,43.223 190,46 196.704,46 209,49.3592 209,57 211.858,57 216.352,68.7957 215,71.5 215,71.5 210,77 210,77 210,77 211,77 211,77  Z"/>

<path  fill="#FF64FF" stroke-width="0" stroke="#FF64FF" d = " M291 80 C288.891,80 289,82.5345 289,84 286.713,84 282.506,101 281.5,101 281.5,101 255.5,86 255.5,86 255.5,86 243,75 243,75 243,75 242,75 242,75 242,72.6695 238,71.7734 238,69 238,69 239,68 239,68 239,68 239,67 239,67 239,67 240,66 240,66 240,66 240,65 240,65 240,65 241,64 241,64 241,64 241,62 241,62 241,62 242,61 242,61 242,61 242,60 242,60 242,60 243,58 243,58 243,58 243,57 243,57 243,57 244,55 244,55 244,55 245,53 245,53 245,53 246,52 246,52 246,52 247,51 247,51 247,51 248,50 248,50 248,50 249,49 249,49 249,49 250,48 250,48 250,48 251,47 251,47 251,47 252,46 252,46 253.467,46 267,43.2031 267,46 260.802,46 248,47.1534 248,56 248,56 247,57 247,57 247,57 243,62.5 243,62.5 243,62.5 241,69.5 241,69.5 239.626,72.2482 257.351,86 261,86 261,89.1697 274.593,94.9534 278.5,93 280.874,91.813 287.611,81.2786 289,78.5 290.9,74.7003 292.926,65.3528 291,61.5 291,61.5 285,53 285,53 289.721,53 292.72,65 296,65 296,65 296,69 296,69 296,69 295,71 295,71 295,71 295,72 295,72 295,72 295,73 295,73 295,73 293,77 293,77 291.423,77 291,78.7617 291,80  Z"/>

<path  fill="#FF64FF" stroke-width="0" stroke="#FF64FF" d = " M188 46 L186,47 C186,47 188,46 188,46  Z"/>

<path  fill="#FE79FE" stroke-width="0" stroke="#FE79FE" d = " M167 58 L165,62.5 C161.251,69.9984 172.193,83.8867 175,89.5 178.812,97.1246 196,89.024 196,86 191.064,86 188.602,72.2965 191,67.5 194.675,60.1506 202.438,57 209,57 209,49.3592 196.704,46 190,46 190,46 188,46 188,46 188,46 186,47 186,47 181.194,47 177.236,52 173,52 173,52 172,53 172,53 172,53 170,54 170,54 170,54 169,55 169,55 169,55 168,56 168,56 168,56 168,57 168,57 168,57 167,58 167,58  Z"/>

<path  fill="#FE79FE" stroke-width="0" stroke="#FE79FE" d = " M248 56 C253.639,56 262.153,60.8062 265,66.5 266.94,70.3808 265.672,86 261,86 261,89.1697 274.593,94.9534 278.5,93 280.874,91.813 287.611,81.2786 289,78.5 290.9,74.7003 292.926,65.3528 291,61.5 291,61.5 285,53 285,53 285,53 284,53 284,53 284,53 282,51 282,51 278.2,51 274.38,47 270,47 270,47 268,46 268,46 268,46 267,46 267,46 260.802,46 248,47.1534 248,56  Z"/>

<path  fill="#FF64FF" stroke-width="0" stroke="#FF64FF" d = " M268 46 L270,47 C270,47 268,46 268,46  Z"/>

<path  fill="#F0F080" stroke-width="0" stroke="#F0F080" d = " M251 47 L250,48 C250,48 251,47 251,47  Z"/>

<path  fill="#F0F080" stroke-width="0" stroke="#F0F080" d = " M250 48 L249,49 C249,49 250,48 250,48  Z"/>

<path  fill="#F0F080" stroke-width="0" stroke="#F0F080" d = " M208 49 L209,50 C209,50 208,49 208,49  Z"/>

<path  fill="#F0F080" stroke-width="0" stroke="#F0F080" d = " M249 49 L248,50 C248,50 249,49 249,49  Z"/>

<path  fill="#F0F080" stroke-width="0" stroke="#F0F080" d = " M248 50 L247,51 C247,51 248,50 248,50  Z"/>

<path  fill="#F0F080" stroke-width="0" stroke="#F0F080" d = " M210 51 L211,52 C211,52 210,51 210,51  Z"/>

<path  fill="#F0F080" stroke-width="0" stroke="#F0F080" d = " M247 51 L246,52 C246,52 247,51 247,51  Z"/>

<path  fill="#FF64FF" stroke-width="0" stroke="#FF64FF" d = " M282 51 L284,53 C284,53 282,51 282,51  Z"/>

<path  fill="#FF64FF" stroke-width="0" stroke="#FF64FF" d = " M173 52 L172,53 C172,53 173,52 173,52  Z"/>

<path  fill="#F0F080" stroke-width="0" stroke="#F0F080" d = " M246 52 L245,53 C245,53 246,52 246,52  Z"/>

<path  fill="#F0F080" stroke-width="0" stroke="#F0F080" d = " M211 53 C212.747,53 213,53.2531 213,55 213,55 211,53 211,53  Z"/>

<path  fill="#F0F080" stroke-width="0" stroke="#F0F080" d = " M245 53 L244,55 C244,55 245,53 245,53  Z"/>

<path  fill="#FF64FF" stroke-width="0" stroke="#FF64FF" d = " M170 54 L169,55 C169,55 170,54 170,54  Z"/>

<path  fill="#FDFB8F" stroke-width="0" stroke="#FDFB8F" d = " M117 146 C119.851,146 121,135.454 121,133 121,121.076 124.912,104.676 130,94.5 130.732,93.0367 130.536,81 132.5,81 L133,85.5 C133,89.7965 133.8,95.8997 132,99.5 129.373,104.753 121.903,136.307 125,142.5 126.877,146.254 132.3,147 136,147 136,124.341 143.641,108.218 153,89.5 154.064,87.3725 159.272,73 161,73 161,73 161,72 161,72 161,72 161,68 161,68 159.527,68 160,66.0479 160,65 160,57.5209 149.114,51.193 141.5,55 133.539,58.9807 103,69.7229 103,82 103,92.9404 100.642,114.784 105,123.5 107.55,128.601 108.468,134.437 111,139.5 111,139.5 117,146 117,146  Z"/>

<path  fill="#FF64FF" stroke-width="0" stroke="#FF64FF" d = " M169 55 L168,56 C168,56 169,55 169,55  Z"/>

<path  fill="#F0F080" stroke-width="0" stroke="#F0F080" d = " M244 55 L243,57 C243,57 244,55 244,55  Z"/>

<path  fill="#FDFB8F" stroke-width="0" stroke="#FDFB8F" d = " M339 145 C335.572,145 336.949,137.399 336,135.5 334.539,132.578 336.406,128.312 335,125.5 330.716,116.932 331.324,106.149 327,97.5 L325,86 C325,85.0105 325.189,82 323.5,82 L323,87 C323,92.5258 325,96.7033 325,102 325,113.374 343.801,147 320,147 320,122.965 312.873,108.245 303,88.5 301.922,86.3439 296.626,72 295,72 295,72 295,71 295,71 295,71 296,69 296,69 296,69 296,65 296,65 296,57.6205 307.307,51.4035 314.5,55 321.979,58.7396 353,69.4871 353,81 353,98.9969 355.741,116.018 348,131.5 346.529,134.442 344.365,145 339,145  Z"/>

<path  fill="#FE79FF" stroke-width="0" stroke="#FE79FF" d = " M203 83 L196,86 C191.064,86 188.602,72.2965 191,67.5 194.675,60.1506 202.438,57 209,57 211.858,57 216.352,68.7957 215,71.5 215,71.5 210,77 210,77 210,77 209,78 209,78 209,78 208,79 208,79 208,79 207,80 207,80 207,80 205,81 205,81 205,81 203,83 203,83  Z"/>

<path  fill="#FE79FE" stroke-width="0" stroke="#FE79FE" d = " M248 56 L247,57 C247,57 248,56 248,56  Z"/>

<path  fill="#FE79FF" stroke-width="0" stroke="#FE79FF" d = " M247 57 L243,62.5 L241,69.5 C239.626,72.2482 257.351,86 261,86 265.672,86 266.94,70.3808 265,66.5 262.153,60.8062 253.639,56 248,56 248,56 247,57 247,57  Z"/>

<path  fill="#FF64FF" stroke-width="0" stroke="#FF64FF" d = " M168 57 L167,58 C167,58 168,57 168,57  Z"/>

<path  fill="#F0F080" stroke-width="0" stroke="#F0F080" d = " M213 57 L215,61 C215,61 213,57 213,57  Z"/>

<path  fill="#FF64FF" stroke-width="0" stroke="#FF64FF" d = " M200 87 C198.762,87 197,87.4226 197,89 197,89 180.5,97 180.5,97 180.5,97 174.5,101 174.5,101 172.385,99.9424 172.927,94.3549 172,92.5 169.276,87.0516 165.799,82.0976 163,76.5 162.535,75.5701 162.183,72 161,72 161,72 161,68 161,68 161,68 161,65 161,65 161,63.8293 164.976,58 167,58 167,58 165,62.5 165,62.5 161.251,69.9984 172.193,83.8867 175,89.5 178.812,97.1246 196,89.024 196,86 196,86 203,83 203,83 203,83 200,87 200,87  Z"/>

<path  fill="#F0F080" stroke-width="0" stroke="#F0F080" d = " M243 58 L242,60 C242,60 243,58 243,58  Z"/>

<path  fill="#F0F080" stroke-width="0" stroke="#F0F080" d = " M242 61 L241,62 C241,62 242,61 242,61  Z"/>

<path  fill="#F0F080" stroke-width="0" stroke="#F0F080" d = " M215 62 L216,64 C216,64 215,62 215,62  Z"/>

<path  fill="#F0F080" stroke-width="0" stroke="#F0F080" d = " M241 64 L240,65 C240,65 241,64 241,64  Z"/>

<path  fill="#F0F080" stroke-width="0" stroke="#F0F080" d = " M161 65 L161,68 C159.527,68 160,66.0479 160,65 160,65 161,65 161,65  Z"/>

<path  fill="#F0F080" stroke-width="0" stroke="#F0F080" d = " M216 65 L217,66 C217,66 216,65 216,65  Z"/>

<path  fill="#F0F080" stroke-width="0" stroke="#F0F080" d = " M240 66 L239,67 C239,67 240,66 240,66  Z"/>

<path  fill="#F0F080" stroke-width="0" stroke="#F0F080" d = " M219 70 C219,71.2383 218.577,73 217,73 217,70.8484 217,68.9287 217,67 218.577,67 219,68.7617 219,70  Z"/>

<path  fill="#F0F080" stroke-width="0" stroke="#F0F080" d = " M239 68 L238,69 C238,69 239,68 239,68  Z"/>

<path  fill="#FFFC8E" stroke-width="0" stroke="#FFFC8E" d = " M185 147 C185,141.845 177.93,138.641 182,130.5 184.124,126.253 194.739,125.881 198.5,124 215.017,115.742 241.972,115.736 258.5,124 262.792,126.146 272.426,126.352 275,131.5 277.976,137.452 272,141.717 272,147 277.939,147 283.989,148.256 288.5,146 291.333,144.584 288.253,139.624 289.5,139 290.88,138.31 302,144.63 302,138 302,138 295,130.5 295,130.5 290.814,122.128 283,112.907 283,103 277.489,103 255.483,87.9833 251.5,84 249.311,81.8109 243,77.3651 243,75 243,75 242,75 242,75 240.343,75 237,71.5479 237,70 237,70 231,69 231,69 231,69 229,70 229,70 229,70 227,70 227,70 227,70 226,69 226,69 226,69 219,70 219,70 219,71.2383 218.577,73 217,73 217,74.5774 215.238,75 214,75 214,75 213,76 213,76 213,76 212,77 212,77 212,77 211,77 211,77 211,77 210,78 210,78 210,78 209,79 209,79 209,79 208,80 208,80 208,80 207,81 207,81 207,81 205,83 205,83 205,84.8113 201.562,87 200,87 200,88.5774 198.238,89 197,89 197,90.4355 175.967,103 173,103 173,112.007 166.884,124.616 160.5,131 160.5,131 154,138 154,138 154,145.297 166.196,138 167.5,138 169.602,138 166.05,141.4 166,141.5 165.231,143.038 167.242,145.371 168.5,146 173.155,148.327 178.916,147 185,147  Z"/>

<path  fill="#F0F080" stroke-width="0" stroke="#F0F080" d = " M227 69 L227,70 C227,70 226,69 226,69 226,69 227,69 227,69  Z"/>

<path  fill="#FF64FF" stroke-width="0" stroke="#FF64FF" d = " M227 70 L229,70 C229,70 229,69 229,69 229,69 227,69 227,69 227,69 227,70 227,70  Z"/>

<path  fill="#F0F080" stroke-width="0" stroke="#F0F080" d = " M231 69 L229,70 C229,70 229,69 229,69 229,69 231,69 231,69  Z"/>

<path  fill="#F0F080" stroke-width="0" stroke="#F0F080" d = " M237 70 C237,71.5479 240.343,75 242,75 242,72.6695 238,71.7734 238,69 238,69 237,70 237,70  Z"/>

<path  fill="#F0F080" stroke-width="0" stroke="#F0F080" d = " M296 69 L295,71 C295,71 296,69 296,69  Z"/>

<path  fill="#F0F080" stroke-width="0" stroke="#F0F080" d = " M197 89 C197,90.4355 175.967,103 173,103 173,100.193 170.193,97.887 169,95.5 167.318,92.1352 168.73,86.96 167,83.5 165.332,80.1635 161,76.9729 161,73 161,73 161,72 161,72 162.183,72 162.535,75.5701 163,76.5 165.799,82.0976 169.276,87.0516 172,92.5 172.927,94.3549 172.385,99.9424 174.5,101 174.5,101 180.5,97 180.5,97 180.5,97 197,89 197,89  Z"/>

<path  fill="#FCFB90" stroke-width="0" stroke="#FCFB90" d = " M302 138 C304.309,138 301.819,124.138 301,122.5 L301.5,119 C303.455,119 303,122.889 303,124 L305,137.5 L314.5,147 C315.634,147.567 320,148.168 320,147 320,122.965 312.873,108.245 303,88.5 301.922,86.3439 296.626,72 295,72 295,72 295,73 295,73 295,75.1769 295.641,77 293,77 293,78.2383 292.577,80 291,80 291,80 289,84 289,84 289,89.4382 283,102.597 283,103 283,112.907 290.814,122.128 295,130.5 295,130.5 302,138 302,138  Z"/>

<path  fill="#FCFB90" stroke-width="0" stroke="#FCFB90" d = " M154 138 L154.5,119 L154,121.5 C152.107,125.285 153.851,130.798 152,134.5 148.187,142.126 144.434,147 136,147 136,124.341 143.641,108.218 153,89.5 154.064,87.3725 159.272,73 161,73 161,76.9729 165.332,80.1635 167,83.5 168.73,86.96 167.318,92.1352 169,95.5 170.193,97.887 173,100.193 173,103 173,112.007 166.884,124.616 160.5,131 160.5,131 154,138 154,138  Z"/>

<path  fill="#F0F080" stroke-width="0" stroke="#F0F080" d = " M217 73 C215.762,73 214,73.4226 214,75 215.238,75 217,74.5774 217,73  Z"/>

<path  fill="#F0F080" stroke-width="0" stroke="#F0F080" d = " M295 73 L293,77 C295.641,77 295,75.1769 295,73  Z"/>

<path  fill="#F0F080" stroke-width="0" stroke="#F0F080" d = " M214 75 L213,76 C213,76 214,75 214,75  Z"/>

<path  fill="#F0F080" stroke-width="0" stroke="#F0F080" d = " M289 84 C289,89.4382 283,102.597 283,103 277.489,103 255.483,87.9833 251.5,84 249.311,81.8109 243,77.3651 243,75 243,75 255.5,86 255.5,86 255.5,86 281.5,101 281.5,101 282.506,101 286.713,84 289,84  Z"/>

<path  fill="#F0F080" stroke-width="0" stroke="#F0F080" d = " M213 76 L212,77 C212,77 213,76 213,76  Z"/>

<path  fill="#FF64FF" stroke-width="0" stroke="#FF64FF" d = " M209 78 L210,78 C210,78 210,77 210,77 210,77 209,78 209,78  Z"/>

<path  fill="#F0F080" stroke-width="0" stroke="#F0F080" d = " M211 77 L210,78 C210,78 210,77 210,77 210,77 211,77 211,77  Z"/>

<path  fill="#F0F080" stroke-width="0" stroke="#F0F080" d = " M293 77 C291.423,77 291,78.7617 291,80 292.577,80 293,78.2383 293,77  Z"/>

<path  fill="#FF64FF" stroke-width="0" stroke="#FF64FF" d = " M208 79 L209,79 C209,79 209,78 209,78 209,78 208,79 208,79  Z"/>

<path  fill="#F0F080" stroke-width="0" stroke="#F0F080" d = " M210 78 L209,79 C209,79 209,78 209,78 209,78 210,78 210,78  Z"/>

<path  fill="#FF64FF" stroke-width="0" stroke="#FF64FF" d = " M207 80 L208,80 C208,80 208,79 208,79 208,79 207,80 207,80  Z"/>

<path  fill="#F0F080" stroke-width="0" stroke="#F0F080" d = " M209 79 L208,80 C208,80 208,79 208,79 208,79 209,79 209,79  Z"/>

<path  fill="#FF64FF" stroke-width="0" stroke="#FF64FF" d = " M205 81 L207,81 C207,81 207,80 207,80 207,80 205,81 205,81  Z"/>

<path  fill="#F0F080" stroke-width="0" stroke="#F0F080" d = " M208 80 L207,81 C207,81 207,80 207,80 207,80 208,80 208,80  Z"/>

<path  fill="#F0F080" stroke-width="0" stroke="#F0F080" d = " M291 80 C288.891,80 289,82.5345 289,84 289,84 291,80 291,80  Z"/>

<path  fill-rule="evenodd" fill="#CBC9CC" stroke-width="0" stroke="#CBC9CC" d = " M125 159 C125,160.236 118.018,174.465 117,176.5 115.181,180.138 120.43,187.035 124.5,185 131.171,181.664 137.322,159 125,159  M127 189 L121,195 C121,192.167 121,190.16 121,188 121,183.236 111.203,184.649 108.5,186 101.829,189.335 76.1104,199.279 73,205.5 71.1593,209.181 67,213.694 67,218 67,219.437 65.905,228.31 65,226.5 63.2896,223.079 63.2867,215.927 65,212.5 65,212.5 65,208.5 65,208.5 70.1907,198.119 78.8812,193.809 88.5,189 88.5,189 96.5,183 96.5,183 98.6571,181.921 109,181.202 109,178 115.199,178 109.809,165 103,165 103,163.214 94.5211,162 93,162 93,162 91,160.5 91,160.5 91,160.5 92,153.5 92,153.5 90.8966,151.293 90.0232,150.546 89,148.5 88.672,147.844 83.4484,139 85.5,139 87.4811,139 87.517,143.534 88,144.5 89.6567,147.813 93.4918,153.496 96.5,155 103.628,158.564 117,156.331 117,146 119.851,146 121,135.454 121,133 121,121.076 124.912,104.676 130,94.5 130.732,93.0367 130.536,81 132.5,81 132.5,81 133,85.5 133,85.5 133,89.7965 133.8,95.8997 132,99.5 129.373,104.753 121.903,136.307 125,142.5 126.877,146.254 132.3,147 136,147 144.434,147 148.187,142.126 152,134.5 153.851,130.798 152.107,125.285 154,121.5 154,121.5 154.5,119 154.5,119 154.5,119 154,138 154,138 154,145.297 166.196,138 167.5,138 169.602,138 166.05,141.4 166,141.5 165.231,143.038 167.242,145.371 168.5,146 173.155,148.327 178.916,147 185,147 188.849,147 196,154.532 196,158 196,158 193,158 193,158 193,158 193,157 193,157 193,154.04 190.601,153 188,153 188,146.767 172,150.727 172,155 170.251,155 162,160.186 162,162 158.262,162 156.474,167.513 153.5,169 153.5,169 149,172 149,172 146.752,172 143.068,167.716 140.5,169 133.865,172.318 131,179.927 131,187 131,187 127,189 127,189  Z"/>

<path  fill="#FF64FF" stroke-width="0" stroke="#FF64FF" d = " M203 83 L205,83 C205,83 205,81 205,81 205,81 203,83 203,83  Z"/>

<path  fill="#F0F080" stroke-width="0" stroke="#F0F080" d = " M207 81 L205,83 C205,83 205,81 205,81 205,81 207,81 207,81  Z"/>

<path  fill-rule="evenodd" fill="#FCFC90" stroke-width="0" stroke="#FCFC90" d = " M370 139 C370,139.807 365.856,149 367.5,149 368.314,149 373.024,139 370,139  M363 162 C363,163.579 365.855,163 367,163 368.853,163 374,158.25 376.5,157 395.66,147.42 396.557,129.613 387,110.5 387,110.5 379,100.5 379,100.5 375.629,93.7583 367.079,86.2897 360.5,83 360.5,83 355.5,83 355.5,83 355.5,83 353,81 353,81 353,98.9969 355.741,116.018 348,131.5 346.529,134.442 344.365,145 339,145 339,155.443 352.153,158.674 359.5,155 361.532,153.984 363.965,147.733 366.5,149 368.675,150.087 364.443,152.614 364,153.5 362.742,156.017 366,157.736 366,159.5 366,159.5 363,162 363,162  Z"/>

<path  fill="#FCFC90" stroke-width="0" stroke="#FCFC90" d = " M93 162 C93,163.579 90.1452,163 89,163 89,161.273 83.7564,159.628 82.5,159 76.8608,156.18 70.2348,152.97 67,146.5 65.3483,143.197 60.8576,133.785 63,129.5 63,129.5 67,115.5 67,115.5 73.0349,103.43 87.5206,82 103,82 103,92.9404 100.642,114.784 105,123.5 107.55,128.601 108.468,134.437 111,139.5 111,139.5 117,146 117,146 117,156.331 103.628,158.564 96.5,155 93.4918,153.496 89.6567,147.813 88,144.5 87.517,143.534 87.4811,139 85.5,139 83.4484,139 88.672,147.844 89,148.5 90.0232,150.546 90.8966,151.293 92,153.5 92,153.5 91,160.5 91,160.5 91,160.5 93,162 93,162  Z"/>

<path  fill-rule="evenodd" fill="#CBC9CC" stroke-width="0" stroke="#CBC9CC" d = " M328 159 C328,161.658 321.551,163.602 324,168.5 325.87,172.24 325.556,177.612 327,180.5 329.436,185.372 336.239,187.022 339,181.5 341.22,177.059 336.533,173.566 335,170.5 332.814,166.129 336.162,159 328,159  M336 196 L337,196 C337,194.004 335,191.015 335,188 335,183.182 346.309,184.905 348.5,186 359.567,191.534 373.846,196.346 383,205.5 390.356,212.856 386.329,219.157 390,226.5 390,226.5 392,225.5 392,225.5 393.056,223.387 392.834,219.169 392,217.5 392,217.5 391,207.5 391,207.5 385.899,197.298 376.491,193.496 367.5,189 367.5,189 360.5,183 360.5,183 357.311,181.405 347,181.843 347,177 341.255,177 347.172,165 353,165 353,165 354,164 354,164 354,164 363,162 363,162 363,162 366,159.5 366,159.5 366,157.736 362.742,156.017 364,153.5 364.443,152.614 368.675,150.087 366.5,149 363.965,147.733 361.532,153.984 359.5,155 352.153,158.674 339,155.443 339,145 335.572,145 336.949,137.399 336,135.5 334.539,132.578 336.406,128.312 335,125.5 330.716,116.932 331.324,106.149 327,97.5 327,97.5 325,86 325,86 325,85.0105 325.189,82 323.5,82 323.5,82 323,87 323,87 323,92.5258 325,96.7033 325,102 325,113.374 343.801,147 320,147 320,148.168 315.634,147.567 314.5,147 314.5,147 305,137.5 305,137.5 305,137.5 303,124 303,124 303,122.889 303.455,119 301.5,119 301.5,119 301,122.5 301,122.5 301.819,124.138 304.309,138 302,138 302,144.63 290.88,138.31 289.5,139 288.253,139.624 291.333,144.584 288.5,146 283.989,148.256 277.939,147 272,147 266.897,147 261,152.812 261,158 261,158 263,158 263,158 263,158 264,157 264,157 264,154.774 265.774,153 268,153 268,146.956 284,150.361 284,155 284,155 294,161 294,161 294,161 307,172 307,172 309.498,172 313.783,167.642 316.5,169 322.992,172.246 325,180.745 325,187 325,187 326,189 326,189 326,189 327,189 327,189 327,189 328,188 328,188 328,188 331,190 331,190 331,190 332,191 332,191 332,191 336,196 336,196  Z"/>

<path  fill="#F0F080" stroke-width="0" stroke="#F0F080" d = " M205 83 C205,84.8113 201.562,87 200,87 200,87 203,83 203,83 203,83 205,83 205,83  Z"/>

<path  fill="#F0F080" stroke-width="0" stroke="#F0F080" d = " M200 87 C198.762,87 197,87.4226 197,89 198.238,89 200,88.5774 200,87  Z"/>

<path  fill-rule="evenodd" fill="#FDFA91" stroke-width="0" stroke="#FDFA91" d = " M188 135 C188,137.279 183,134.97 183,136.5 L185.5,137 C189.154,138.827 193.997,138.248 197.5,140 209.607,146.054 236.359,148.071 248.5,142 254.094,139.203 261.784,140.858 267.5,138 L273,136.5 L264.5,135 C258.105,135 247.135,138.182 241.5,141 L233.5,141 C222.816,146.342 200.9,135 188,135  M210 165 C210,163.275 216.052,164 217.5,164 L239.5,164 C240.863,164 246,163.3 246,165 251.005,165 255.017,160 259,160 259,160 261,158 261,158 261,152.812 266.897,147 272,147 272,141.717 277.976,137.452 275,131.5 272.426,126.352 262.792,126.146 258.5,124 241.972,115.736 215.017,115.742 198.5,124 194.739,125.881 184.124,126.253 182,130.5 177.93,138.641 185,141.845 185,147 188.849,147 196,154.532 196,158 196,158 197,160 197,160 201.07,160 205.1,165 210,165  Z"/>

<path  fill="#CBC9CC" stroke-width="0" stroke="#CBC9CC" d = " M188 135 C188,137.279 183,134.97 183,136.5 L185.5,137 C189.154,138.827 193.997,138.248 197.5,140 209.607,146.054 236.359,148.071 248.5,142 254.094,139.203 261.784,140.858 267.5,138 L273,136.5 L264.5,135 C258.105,135 247.135,138.182 241.5,141 L233.5,141 C222.816,146.342 200.9,135 188,135  Z"/>

<path  fill="#CBC9CC" stroke-width="0" stroke="#CBC9CC" d = " M370 139 C370,139.807 365.856,149 367.5,149 368.314,149 373.024,139 370,139  Z"/>

<path  fill="#F0F080" stroke-width="0" stroke="#F0F080" d = " M188 153 C186.196,153 182.864,150.818 180.5,152 178.651,152.924 173.908,155 172,155 172,150.727 188,146.767 188,153  Z"/>

<path  fill="#F0F080" stroke-width="0" stroke="#F0F080" d = " M268 153 C269.804,153 273.136,150.818 275.5,152 277.147,152.823 282.402,155 284,155 284,150.361 268,146.956 268,153  Z"/>

<path  fill="#CBC9C8" stroke-width="0" stroke="#CBC9C8" d = " M165 163 L166,163 C166,163 167,162 167,162 167,162 168,162 168,162 168,160.421 170.855,161 172,161 172,156.328 189.033,157 192,157 192,157 193,157 193,157 193,154.04 190.601,153 188,153 186.196,153 182.864,150.818 180.5,152 178.651,152.924 173.908,155 172,155 170.251,155 162,160.186 162,162 162,163.473 163.952,163 165,163  Z"/>

<path  fill="#CBC9C8" stroke-width="0" stroke="#CBC9C8" d = " M291 163 L292,163 C295.162,163 294,163.109 294,161 294,161 284,155 284,155 282.402,155 277.147,152.823 275.5,152 273.136,150.818 269.804,153 268,153 265.774,153 264,154.774 264,157 267.075,157 284,156.17 284,161 284,161 285,161 285,161 286.048,161 288,160.527 288,162 288,162 289,162 289,162 289,162 291,163 291,163  Z"/>

<path  fill="#FFAD6D" stroke-width="0" stroke="#FFAD6D" d = " M180 171 L186,171 C186,169.106 193,164.889 193,159 193,159 193,158 193,158 193,158 192,157 192,157 189.033,157 172,156.328 172,161 172,161 172,162 172,162 176.078,162 182.149,155.824 186.5,158 194.229,161.864 179.571,165 177,165 177,165 177,167 177,167 177,167 178,169 178,169 178,169 180,171 180,171  Z"/>

<path  fill="#FFAD6D" stroke-width="0" stroke="#FFAD6D" d = " M270 171 L276,171 C276,171 278,170 278,170 278,170 279,168 279,168 279,168 280,167 280,167 280,167 279,165 279,165 279,165 278,165 278,165 278,165 277,164 277,164 273.664,164 263.381,161.56 270.5,158 274.604,155.948 280.091,162 284,162 284,162 284,161 284,161 284,156.17 267.075,157 264,157 264,157 263,159 263,159 263,164.084 270,169.451 270,171  Z"/>

<path  fill="#FF9B88" stroke-width="0" stroke="#FF9B88" d = " M193 157 L193,158 C193,158 192,157 192,157 192,157 193,157 193,157  Z"/>

<path  fill="#FF9B88" stroke-width="0" stroke="#FF9B88" d = " M263 158 L263,159 C263,159 264,157 264,157 264,157 263,158 263,158  Z"/>

<path  fill="#CBC9CB" stroke-width="0" stroke="#CBC9CB" d = " M157 172 L159,172 C162.238,172 164.3,169 167,169 167,169 169,168 169,168 169,168 171,167 171,167 171,167 172,167 172,167 172,167 174,166 174,166 174,164.527 175.952,165 177,165 179.571,165 194.229,161.864 186.5,158 182.149,155.824 176.078,162 172,162 172,162 168,162 168,162 168,162 167,162 167,162 167,162 166,163 166,163 166,163 165,163 165,163 165,164.995 157,164.699 157,172  Z"/>

<path  fill="#F0F080" stroke-width="0" stroke="#F0F080" d = " M197 160 C197,161.048 197.473,163 196,163 196,161.571 194.712,159 193,159 193,159 193,158 193,158 193,158 196,158 196,158 196,158 197,160 197,160  Z"/>

<path  fill="#F0F080" stroke-width="0" stroke="#F0F080" d = " M259 160 L260,162 C260,162 263,159 263,159 263,159 263,158 263,158 263,158 261,158 261,158 261,158 259,160 259,160  Z"/>

<path  fill="#CBC9CB" stroke-width="0" stroke="#CBC9CB" d = " M297 172 L299,172 C299,170.009 301.507,171.514 300,168.5 298.745,165.991 292,166.024 292,163 292,163 291,163 291,163 291,163 289,162 289,162 289,162 288,162 288,162 288,162 285,162 285,162 285,162 284,162 284,162 280.091,162 274.604,155.948 270.5,158 263.381,161.56 273.664,164 277,164 277,164 278,165 278,165 278,165 279,165 279,165 280.048,165 282,164.527 282,166 282,166 284,167 284,167 284,167 286,167 286,167 286,167 287,168 287,168 287,168 288,168 288,168 288,168 289,169 289,169 292.23,169 294.26,172 297,172  Z"/>

<path  fill="#FFFDBB" stroke-width="0" stroke="#FFFDBB" d = " M125 159 C125,160.236 118.018,174.465 117,176.5 115.181,180.138 120.43,187.035 124.5,185 131.171,181.664 137.322,159 125,159  Z"/>

<path  fill="#FF9B88" stroke-width="0" stroke="#FF9B88" d = " M208 175 C198.242,175 207,178.56 207,183 204.6,183 197.955,176.228 195.5,175 193.932,174.216 186,173.076 186,171 186,169.106 193,164.889 193,159 194.712,159 196,161.571 196,163 196,166.758 200.322,171.411 203.5,173 204.43,173.465 208,173.817 208,175  Z"/>

<path  fill="#FF9B88" stroke-width="0" stroke="#FF9B88" d = " M249 175 C252.744,175 253,175.256 253,179 253,179 266.5,173 266.5,173 266.5,173 270,171 270,171 270,169.451 263,164.084 263,159 263,159 260,162 260,162 260,165.608 257.162,171.169 253.5,173 252.57,173.465 249,173.817 249,175  Z"/>

<path  fill="#FFFDBB" stroke-width="0" stroke="#FFFDBB" d = " M328 159 C328,161.658 321.551,163.602 324,168.5 325.87,172.24 325.556,177.612 327,180.5 329.436,185.372 336.239,187.022 339,181.5 341.22,177.059 336.533,173.566 335,170.5 332.814,166.129 336.162,159 328,159  Z"/>

<path  fill="#AAA9A7" stroke-width="0" stroke="#AAA9A7" d = " M226 203 L230,204 C230,201.611 231,198.013 231,195 231,183.482 236.953,175 249,175 249,173.817 252.57,173.465 253.5,173 257.162,171.169 260,165.608 260,162 260,162 259,160 259,160 255.017,160 251.005,165 246,165 246,165 242.5,167 242.5,167 242.5,167 215.5,167 215.5,167 215.5,167 210,165 210,165 205.1,165 201.07,160 197,160 197,161.048 197.473,163 196,163 196,166.758 200.322,171.411 203.5,173 204.43,173.465 208,173.817 208,175 221.712,175 225,186.071 225,198 225,198 226,203 226,203  Z"/>

<path  fill="#F0F080" stroke-width="0" stroke="#F0F080" d = " M168 162 L172,162 C172,162 172,161 172,161 170.855,161 168,160.421 168,162  Z"/>

<path  fill="#FF9B88" stroke-width="0" stroke="#FF9B88" d = " M284 162 L285,162 C285,162 285,161 285,161 285,161 284,161 284,161 284,161 284,162 284,162  Z"/>

<path  fill="#F0F080" stroke-width="0" stroke="#F0F080" d = " M285 162 L288,162 C288,160.527 286.048,161 285,161 285,161 285,162 285,162  Z"/>

<path  fill="#F0F080" stroke-width="0" stroke="#F0F080" d = " M307 172 L307,175 C304.596,175 302.351,172 299,172 299,170.009 301.507,171.514 300,168.5 298.745,165.991 292,166.024 292,163 295.162,163 294,163.109 294,161 294,161 307,172 307,172  Z"/>

<path  fill="#FFFC8D" stroke-width="0" stroke="#FFFC8D" d = " M121 188 C115.238,188 115.094,194.703 110.5,197 107.538,198.481 84.316,211.868 83,214.5 L81,220.5 C78.1492,226.202 93,239.071 93,241 93,249.027 76.5468,266.523 67.5,262 67.5,262 58.5,257 58.5,257 46.7453,251.123 48.5456,236.591 44,227.5 44,227.5 44,219 44,219 44,203.214 48.1006,188.2 62.5,181 67.403,178.549 73.7434,179.378 78.5,177 78.5,177 81,167.5 81,167.5 81.9482,165.604 89,164.837 89,163 90.1452,163 93,163.579 93,162 94.5211,162 103,163.214 103,165 103,170.286 109,173.275 109,178 109,181.202 98.6571,181.921 96.5,183 96.5,183 88.5,189 88.5,189 78.8812,193.809 70.1907,198.119 65,208.5 65,208.5 65,212.5 65,212.5 63.2867,215.927 63.2896,223.079 65,226.5 65.905,228.31 67,219.437 67,218 67,213.694 71.1593,209.181 73,205.5 76.1104,199.279 101.829,189.335 108.5,186 111.203,184.649 121,183.236 121,188  Z"/>

<path  fill="#F0F080" stroke-width="0" stroke="#F0F080" d = " M157 172 C153.881,172 151.384,175 149,175 149,175 149,172 149,172 149,172 153.5,169 153.5,169 156.474,167.513 158.262,162 162,162 162,163.473 163.952,163 165,163 165,164.995 157,164.699 157,172  Z"/>

<path  fill="#F0F080" stroke-width="0" stroke="#F0F080" d = " M167 162 L166,163 C166,163 167,162 167,162  Z"/>

<path  fill="#F0F080" stroke-width="0" stroke="#F0F080" d = " M289 162 L291,163 C291,163 289,162 289,162  Z"/>

<path  fill="#FFFC8D" stroke-width="0" stroke="#FFFC8D" d = " M335 188 C339.947,188 340.547,193.524 343.5,195 347.78,197.14 372.354,212.208 374,215.5 374.594,216.687 374.358,218.216 375,219.5 378.049,225.598 364,239.319 364,241 364,249.349 379.47,266.515 388.5,262 388.5,262 400.5,255 400.5,255 409.61,250.445 409.253,232.994 413,225.5 413,225.5 413,218 413,218 413,201.849 405.784,186.642 390.5,179 390.5,179 377.5,177 377.5,177 376.914,176.707 375.519,168.537 375,167.5 373.686,164.873 367,165.153 367,163 365.855,163 363,163.579 363,162 363,162 354,164 354,164 354,164 353,165 353,165 353,167.636 348.518,177 347,177 347,181.843 357.311,181.405 360.5,183 360.5,183 367.5,189 367.5,189 376.491,193.496 385.899,197.298 391,207.5 391,207.5 392,217.5 392,217.5 392.834,219.169 393.056,223.387 392,225.5 392,225.5 390,226.5 390,226.5 386.329,219.157 390.356,212.856 383,205.5 373.846,196.346 359.567,191.534 348.5,186 346.309,184.905 335,183.182 335,188  Z"/>

<path  fill="#FEFA91" stroke-width="0" stroke="#FEFA91" d = " M210 165 L215.5,167 L242.5,167 L246,165 C246,163.3 240.863,164 239.5,164 239.5,164 217.5,164 217.5,164 216.052,164 210,163.275 210,165  Z"/>

<path  fill="#FF9B88" stroke-width="0" stroke="#FF9B88" d = " M277 164 L278,165 C278,165 277,164 277,164  Z"/>

<path  fill="#FFF990" stroke-width="0" stroke="#FFF990" d = " M354 164 L353,165 C353,165 354,164 354,164  Z"/>

<path  fill="#FFF990" stroke-width="0" stroke="#FFF990" d = " M103 165 C109.809,165 115.199,178 109,178 109,173.275 103,170.286 103,165  Z"/>

<path  fill="#FF9B88" stroke-width="0" stroke="#FF9B88" d = " M175 167 L177,167 C177,167 177,165 177,165 175.952,165 174,164.527 174,166 174,166 175,167 175,167  Z"/>

<path  fill="#FF9B88" stroke-width="0" stroke="#FF9B88" d = " M280 167 L282,167 C282,167 282,166 282,166 282,164.527 280.048,165 279,165 279,165 280,167 280,167  Z"/>

<path  fill="#FFF990" stroke-width="0" stroke="#FFF990" d = " M353 165 C347.172,165 341.255,177 347,177 348.518,177 353,167.636 353,165  Z"/>

<path  fill="#FF9BCD" stroke-width="0" stroke="#FF9BCD" d = " M172 167 L175,167 C175,167 174,166 174,166 174,166 172,167 172,167  Z"/>

<path  fill="#FF9BCD" stroke-width="0" stroke="#FF9BCD" d = " M282 167 L284,167 C284,167 282,166 282,166 282,166 282,167 282,167  Z"/>

<path  fill="#FF9BCD" stroke-width="0" stroke="#FF9BCD" d = " M171 167 L169,168 C169,168 171,167 171,167  Z"/>

<path  fill="#FDB3D6" stroke-width="0" stroke="#FDB3D6" d = " M167 184 L165,185 C161.864,185 153,190.021 153,182 153,179.362 151.524,178.453 153,175.5 153,175.5 159,172 159,172 162.238,172 164.3,169 167,169 167,169 169,168 169,168 169,168 171,167 171,167 171,167 172,167 172,167 172,167 175,167 175,167 175,167 177,167 177,167 177,167 178,169 178,169 178,169 179,171 179,171 179,171 178,172 178,172 178,172 168,183 168,183 168,183 167,184 167,184  Z"/>

<path  fill="#FF9B88" stroke-width="0" stroke="#FF9B88" d = " M280 167 L279,168 C279,168 280,167 280,167  Z"/>

<path  fill="#FDB3D6" stroke-width="0" stroke="#FDB3D6" d = " M303 183 C303,189.917 293.976,185 291,185 291,185 288,183 288,183 288,183 278,172 278,172 278,172 278,171 278,171 278,171 278,170 278,170 278,170 279,168 279,168 279,168 280,167 280,167 280,167 282,167 282,167 282,167 284,167 284,167 284,167 286,167 286,167 286,167 287,168 287,168 287,168 288,168 288,168 288,168 289,169 289,169 292.23,169 294.26,172 297,172 297,173.154 302.943,174.386 304,176.5 305.289,179.079 304,179.406 304,182 304,182 303,183 303,183  Z"/>

<path  fill="#FF9BCD" stroke-width="0" stroke="#FF9BCD" d = " M286 167 L287,168 C287,168 286,167 286,167  Z"/>

<path  fill="#FF9BCD" stroke-width="0" stroke="#FF9BCD" d = " M169 168 L167,169 C167,169 169,168 169,168  Z"/>

<path  fill="#FF9BCD" stroke-width="0" stroke="#FF9BCD" d = " M288 168 L289,169 C289,169 288,168 288,168  Z"/>

<path  fill="#C9C9C8" stroke-width="0" stroke="#C9C9C8" d = " M145 192 C143.163,192 136.679,208 135.5,208 131.567,208 134.41,193 132,193 132,193 132,192 132,192 132,192 132,189 132,189 132,189 131,187 131,187 131,179.927 133.865,172.318 140.5,169 143.068,167.716 146.752,172 149,172 149,172 149,175 149,175 149,175 149,183 149,183 149,183 148,185 148,185 148,185 148,186 148,186 148,186 147,187 147,187 147,187 147,188 147,188 147,188 146,190 146,190 146,190 145,191 145,191 145,191 145,192 145,192  Z"/>

<path  fill="#FF9B88" stroke-width="0" stroke="#FF9B88" d = " M179 171 L180,171 C180,171 178,169 178,169 178,169 179,171 179,171  Z"/>

<path  fill="#C9C9C8" stroke-width="0" stroke="#C9C9C8" d = " M325 189 L325,191 C323.318,191 323,201.912 323,204 323,204 321.5,208 321.5,208 319.57,208 309.932,187 309,187 309,187 309,186 309,186 309,186 308,185 308,185 308,185 308,184 308,184 308,184 307,175 307,175 307,175 307,172 307,172 309.498,172 313.783,167.642 316.5,169 322.992,172.246 325,180.745 325,187 325,187 325,189 325,189  Z"/>

<path  fill="#FF9B88" stroke-width="0" stroke="#FF9B88" d = " M277 171 L278,171 C278,171 278,170 278,170 278,170 276,171 276,171 276,171 277,171 277,171  Z"/>

<path  fill="#FF9BCD" stroke-width="0" stroke="#FF9BCD" d = " M180 171 L178,172 C178,172 179,171 179,171 179,171 180,171 180,171  Z"/>

<path  fill-rule="evenodd" fill="#FFB0D7" stroke-width="0" stroke="#FFB0D7" d = " M181 191 C181,195.365 184.479,191 181,191  M174 209 L180,209 C180,209 190.5,209 190.5,209 190.5,209 199,205 199,205 199,205 199,204 199,204 199,204 200,203 200,203 200,203 205,201 205,201 205,201 207,200 207,200 207,197.84 209,195.833 209,193 209,193 207,183 207,183 204.6,183 197.955,176.228 195.5,175 193.932,174.216 186,173.076 186,171 186,171 180,171 180,171 180,171 178,172 178,172 178,172 168,183 168,183 168,183 167,184 167,184 167,184 167,186 167,186 167,193.854 159,201.188 159,207 159,207 163.5,210 163.5,210 163.5,210 174,209 174,209  Z"/>

<path  fill-rule="evenodd" fill="#FFB0D7" stroke-width="0" stroke="#FFB0D7" d = " M274 192 C274,193.93 275.93,192 274,192  M276 209 L282,209 C282,209 292.5,210 292.5,210 292.5,210 297,208 297,208 297,200.185 290,194.666 290,186 290,186 288,183 288,183 288,183 278,172 278,172 278,172 277,171 277,171 277,171 276,171 276,171 276,171 270,171 270,171 270,171 266.5,173 266.5,173 266.5,173 253,179 253,179 253,180.747 252.747,181 251,181 251,181 250,183 250,183 250,183 249,184 249,184 249,184 247,194 247,194 247.672,194 249,198.329 249,199 249,199 251,201 251,201 252.643,201 257,202.338 257,204 257,204 265.5,209 265.5,209 265.5,209 276,209 276,209  Z"/>

<path  fill="#FF9BCD" stroke-width="0" stroke="#FF9BCD" d = " M278 171 L278,172 C278,172 277,171 277,171 277,171 278,171 278,171  Z"/>

<path  fill="#FF9BCD" stroke-width="0" stroke="#FF9BCD" d = " M153 182 L149,183 C149,183 149,175 149,175 151.384,175 153.881,172 157,172 157,172 159,172 159,172 159,172 153,175.5 153,175.5 151.524,178.453 153,179.362 153,182  Z"/>

<path  fill="#FF9BCD" stroke-width="0" stroke="#FF9BCD" d = " M304 182 C306.424,182 306.76,184 308,184 308,184 307,175 307,175 304.596,175 302.351,172 299,172 299,172 297,172 297,172 297,173.154 302.943,174.386 304,176.5 305.289,179.079 304,179.406 304,182  Z"/>

<path  fill-rule="evenodd" fill="#FFBA84" stroke-width="0" stroke="#FFBA84" d = " M213 194 C213,211.974 233.445,194 213,194  M209 193 C210.59,193 212.578,203.539 215.5,205 L217.5,204 C219.416,203.042 221.648,205.203 223,202.5 223.465,201.57 223.817,198 225,198 225,186.071 221.712,175 208,175 198.242,175 207,178.56 207,183 207,183 209,193 209,193  Z"/>

<path  fill-rule="evenodd" fill="#FFBA84" stroke-width="0" stroke="#FFBA84" d = " M239 194 L234,198.5 C232.791,200.918 236.531,202.984 238.5,202 244.082,199.209 247.284,194 239,194  M247 194 C245.269,194 244.496,203.502 241.5,205 237.772,206.864 233.157,201.813 232,199.5 231.426,198.353 233.064,195 231,195 231,183.482 236.953,175 249,175 252.744,175 253,175.256 253,179 251.253,179 251,179.253 251,181 251,181 250,183 250,183 250,183 249,184 249,184 249,184 247,194 247,194  Z"/>

<path  fill="#FF9B88" stroke-width="0" stroke="#FF9B88" d = " M253 179 C251.253,179 251,179.253 251,181 252.747,181 253,180.747 253,179  Z"/>

<path  fill="#FF9B88" stroke-width="0" stroke="#FF9B88" d = " M251 181 L250,183 C250,183 251,181 251,181  Z"/>

<path  fill="#FEB3D7" stroke-width="0" stroke="#FEB3D7" d = " M156 207 C156.716,207 159,209.373 159,207 159,201.188 167,193.854 167,186 167,186 165,185 165,185 161.864,185 153,190.021 153,182 153,182 149,183 149,183 149,183 148,185 148,185 148,185 148,186 148,186 148,186 147,187 147,187 147,187 147,188 147,188 147,188 146,190 146,190 146,190 145,191 145,191 145,191 145,192 145,192 145,194.124 146,196.436 146,198 151.22,198 156,201.539 156,207  Z"/>

<path  fill="#FF9BCD" stroke-width="0" stroke="#FF9BCD" d = " M304 182 L303,183 C303,183 304,182 304,182  Z"/>

<path  fill="#FEB3D7" stroke-width="0" stroke="#FEB3D7" d = " M301 207 L297,208 C297,200.185 290,194.666 290,186 290,186 291,185 291,185 293.976,185 303,189.917 303,183 303,183 304,182 304,182 306.424,182 306.76,184 308,184 308,184 308,185 308,185 308,185 309,186 309,186 309,186 309,187 309,187 309,190.446 311,193.77 311,198 304.819,198 301,200.497 301,207  Z"/>

<path  fill="#FF9BCD" stroke-width="0" stroke="#FF9BCD" d = " M149 183 L148,185 C148,185 149,183 149,183  Z"/>

<path  fill="#FF9BCD" stroke-width="0" stroke="#FF9BCD" d = " M168 183 L167,184 C167,184 168,183 168,183  Z"/>

<path  fill="#FF9B88" stroke-width="0" stroke="#FF9B88" d = " M250 183 L249,184 C249,184 250,183 250,183  Z"/>

<path  fill="#FF9BCD" stroke-width="0" stroke="#FF9BCD" d = " M291 185 L290,186 C290,186 288,183 288,183 288,183 291,185 291,185  Z"/>

<path  fill="#FF9BCD" stroke-width="0" stroke="#FF9BCD" d = " M165 185 L167,186 C167,186 167,184 167,184 167,184 165,185 165,185  Z"/>

<path  fill="#FF9BCD" stroke-width="0" stroke="#FF9BCD" d = " M308 185 L309,186 C309,186 308,185 308,185  Z"/>

<path  fill="#FF9BCD" stroke-width="0" stroke="#FF9BCD" d = " M148 186 L147,187 C147,187 148,186 148,186  Z"/>

<path  fill="#F0F080" stroke-width="0" stroke="#F0F080" d = " M131 189 L132,189 C132,189 131,187 131,187 131,187 127,189 127,189 127,189 131,189 131,189  Z"/>

<path  fill="#FF9BCD" stroke-width="0" stroke="#FF9BCD" d = " M325 207 C320.776,207 324,220.047 324,222 324,222 321,215.5 321,215.5 321,215.5 315,208.5 315,208.5 315,208.5 315,203.5 315,203.5 314.319,202.138 311,198.656 311,198 311,193.77 309,190.446 309,187 309.932,187 319.57,208 321.5,208 321.5,208 323,204 323,204 323,201.912 323.318,191 325,191 325,191 325,207 325,207  Z"/>

<path  fill="#F0F080" stroke-width="0" stroke="#F0F080" d = " M325 189 L326,189 C326,189 325,187 325,187 325,187 325,189 325,189  Z"/>

<path  fill="#FEF991" stroke-width="0" stroke="#FEF991" d = " M104 232 C104,237.735 98.1885,241 93,241 93,239.071 78.1492,226.202 81,220.5 81,220.5 83,214.5 83,214.5 84.316,211.868 107.538,198.481 110.5,197 115.094,194.703 115.238,188 121,188 121,190.16 121,192.167 121,195 121,195 120,196 120,196 120,196 119,197 119,197 119,197 119,198 119,198 119,198 114,205 114,205 114,205 113,207 113,207 113,207 111,209 111,209 109.189,209 107,212.438 107,214 103.109,214 101.569,225 104,225 104,225 104,232 104,232  Z"/>

<path  fill="#FF9BCD" stroke-width="0" stroke="#FF9BCD" d = " M147 188 L146,190 C146,190 147,188 147,188  Z"/>

<path  fill="#F0F080" stroke-width="0" stroke="#F0F080" d = " M328 188 L327,189 C327,189 328,188 328,188  Z"/>

<path  fill="#FEA5D1" stroke-width="0" stroke="#FEA5D1" d = " M325 207 C332.945,207 333.781,225 341,225 341,219.588 343.706,211.913 341,206.5 341,206.5 336,196 336,196 336,196 332,191 332,191 332,191 331,190 331,190 331,190 328,188 328,188 328,188 327,189 327,189 327,189 326,189 326,189 326,189 325,189 325,189 325,189 325,191 325,191 325,191 325,207 325,207  Z"/>

<path  fill="#FEF991" stroke-width="0" stroke="#FEF991" d = " M353 233 C353,238.807 359.117,241 364,241 364,239.319 378.049,225.598 375,219.5 374.358,218.216 374.594,216.687 374,215.5 372.354,212.208 347.78,197.14 343.5,195 340.547,193.524 339.947,188 335,188 335,191.015 337,194.004 337,196 337,199.936 343,202.717 343,207 345.479,207 351.718,214.936 353,217.5 353.567,218.634 354.168,223 353,223 353,223 353,226 353,226 353,226 352,227 352,227 352,227 352,228 352,228 352,228 352,232 352,232 352,232 353,233 353,233  Z"/>

<path  fill="#FEA5D1" stroke-width="0" stroke="#FEA5D1" d = " M132 207 C123.262,207 122.536,225 115,225 115,219.788 112.443,212.614 115,207.5 116.574,204.352 119,201.817 119,198 119,198 120,197 120,197 120,197 121,196 121,196 121,196 121,195 121,195 121,195 127,189 127,189 127,189 131,189 131,189 131,190.048 130.527,192 132,192 132,192 132,193 132,193 132,193 132,207 132,207  Z"/>

<path  fill="#FF9BCD" stroke-width="0" stroke="#FF9BCD" d = " M132 189 L132,192 C130.527,192 131,190.048 131,189 131,189 132,189 132,189  Z"/>

<path  fill="#FF9BCD" stroke-width="0" stroke="#FF9BCD" d = " M146 190 L145,191 C145,191 146,190 146,190  Z"/>

<path  fill="#F0F080" stroke-width="0" stroke="#F0F080" d = " M331 190 L332,191 C332,191 331,190 331,190  Z"/>

<path  fill="#CCCBC8" stroke-width="0" stroke="#CCCBC8" d = " M181 191 C181,195.365 184.479,191 181,191  Z"/>

<path  fill="#FF9BCD" stroke-width="0" stroke="#FF9BCD" d = " M132 207 L134,212.5 C134,214.31 133,217.54 133,220 133,220 136,213.5 136,213.5 136,213.5 141,208.5 141,208.5 142.267,205.966 141.717,202.066 143,199.5 143,199.5 146,198 146,198 146,196.436 145,194.124 145,192 143.163,192 136.679,208 135.5,208 131.567,208 134.41,193 132,193 132,193 132,207 132,207  Z"/>

<path  fill="#CCCBC8" stroke-width="0" stroke="#CCCBC8" d = " M274 192 C274,193.93 275.93,192 274,192  Z"/>

<path  fill="#FF9B88" stroke-width="0" stroke="#FF9B88" d = " M214 206 L217,206 C219.955,206 226,206.446 226,203 226,203 225,198 225,198 223.817,198 223.465,201.57 223,202.5 221.648,205.203 219.416,203.042 217.5,204 217.5,204 215.5,205 215.5,205 212.578,203.539 210.59,193 209,193 209,195.833 207,197.84 207,200 207,200 207,202 207,202 207,202 209,204 209,204 209,204 210,205 210,205 210,205 212,205 212,205 212,205 214,206 214,206  Z"/>

<path  fill="#FFB986" stroke-width="0" stroke="#FFB986" d = " M213 194 C213,211.974 233.445,194 213,194  Z"/>

<path  fill="#FFB986" stroke-width="0" stroke="#FFB986" d = " M239 194 L234,198.5 C232.791,200.918 236.531,202.984 238.5,202 244.082,199.209 247.284,194 239,194  Z"/>

<path  fill="#FF9B88" stroke-width="0" stroke="#FF9B88" d = " M239 206 L243,206 C243,206 245,205 245,205 245,205 248,204 248,204 248,204 249,203 249,203 249,201.095 249,200.533 249,199 249,198.329 247.672,194 247,194 245.269,194 244.496,203.502 241.5,205 237.772,206.864 233.157,201.813 232,199.5 231.426,198.353 233.064,195 231,195 231,198.013 230,201.611 230,204 232.526,204 235.577,206 239,206  Z"/>

<path  fill="#CBC9CC" stroke-width="0" stroke="#CBC9CC" d = " M120 196 L121,196 C121,196 121,195 121,195 121,195 120,196 120,196  Z"/>

<path  fill="#CBC9CC" stroke-width="0" stroke="#CBC9CC" d = " M119 197 L120,197 C120,197 120,196 120,196 120,196 119,197 119,197  Z"/>

<path  fill="#A9AAA7" stroke-width="0" stroke="#A9AAA7" d = " M121 196 L120,197 C120,197 120,196 120,196 120,196 121,196 121,196  Z"/>

<path  fill="#A9AAA7" stroke-width="0" stroke="#A9AAA7" d = " M352 232 L352,233 C349.591,233 346.819,232 345,232 345,229.975 343.767,225 341,225 341,219.588 343.706,211.913 341,206.5 341,206.5 336,196 336,196 336,196 337,196 337,196 337,199.936 343,202.717 343,207 343,207 346,211 346,211 346,211 343.5,210 343.5,210 341.12,211.19 343.998,229.749 346.5,231 350.407,232.954 350.577,228 352,228 352,228 352,232 352,232  Z"/>

<path  fill="#A9AAA7" stroke-width="0" stroke="#A9AAA7" d = " M120 197 L119,198 C119,198 119,197 119,197 119,197 120,197 120,197  Z"/>

<path  fill="#A9AAA7" stroke-width="0" stroke="#A9AAA7" d = " M115 225 L113,226 C113,222.68 114.501,210 111,210 111,210 111,209 111,209 112.747,209 113,208.747 113,207 113,207 114,205 114,205 114,205 119,198 119,198 119,201.817 116.574,204.352 115,207.5 112.443,212.614 115,219.788 115,225  Z"/>

<path  fill="#C9CACB" stroke-width="0" stroke="#C9CACB" d = " M134 233 L133,235 C131.265,235 132,228.49 132,227 132,227 132,225 132,225 133.579,225 133,222.145 133,221 133,221 133,220 133,220 133,220 136,213.5 136,213.5 136,213.5 141,208.5 141,208.5 142.267,205.966 141.717,202.066 143,199.5 143,199.5 146,198 146,198 151.22,198 156,201.539 156,207 156,211.358 151.219,211 148,211 139.546,211 135,224.016 135,231 135,231 134,232 134,232 134,232 134,233 134,233  Z"/>

<path  fill="#C9CACB" stroke-width="0" stroke="#C9CACB" d = " M325 234 L323,235 C323,235 323,234 323,234 323,234 322,232 322,232 322,225.236 316.97,211 309,211 304.999,211 301,212.059 301,207 301,200.497 304.819,198 311,198 311,198.656 314.319,202.138 315,203.5 315,203.5 315,208.5 315,208.5 315,208.5 321,215.5 321,215.5 321,215.5 324,222 324,222 324,222 324,223 324,223 324,224.406 323.286,230 325,230 325,230 325,234 325,234  Z"/>

<path  fill="#FF9BCD" stroke-width="0" stroke="#FF9BCD" d = " M251 201 L249,203 C249,201.095 249,200.533 249,199 249,199 251,201 251,201  Z"/>

<path  fill="#FF9BCD" stroke-width="0" stroke="#FF9BCD" d = " M205 201 L207,202 C207,202 207,200 207,200 207,200 205,201 205,201  Z"/>

<path  fill="#C9CCC7" stroke-width="0" stroke="#C9CCC7" d = " M213 206 L207,210 C203.847,210 199,208.899 199,205 199,205 199,204 199,204 199,204 200,203 200,203 200,203 205,201 205,201 205,201 207,202 207,202 207,202 209,204 209,204 209,204 210,205 210,205 210,205 212,205 212,205 212,205 213,206 213,206  Z"/>

<path  fill="#C9CCC7" stroke-width="0" stroke="#C9CCC7" d = " M244 207 L250,210 C253.758,210 257,208.067 257,204 257,202.338 252.643,201 251,201 251,201 249,203 249,203 249,203 248,204 248,204 248,204 245,205 245,205 245,205 244,207 244,207  Z"/>

<path  fill="#FF9BCD" stroke-width="0" stroke="#FF9BCD" d = " M200 203 L199,204 C199,204 200,203 200,203  Z"/>

<path  fill="#FF9BCD" stroke-width="0" stroke="#FF9BCD" d = " M231 217 C234.118,217 235.865,210.682 240.5,213 L256,218 C258.59,218 264.734,214 269,214 269,210.58 276,210.811 276,209 276,209 265.5,209 265.5,209 265.5,209 257,204 257,204 257,208.067 253.758,210 250,210 250,215.879 239,212.684 239,206 235.577,206 232.526,204 230,204 230,204 226,203 226,203 226,206.446 219.955,206 217,206 217,212.405 207,215.935 207,210 203.847,210 199,208.899 199,205 199,205 190.5,209 190.5,209 190.5,209 180,209 180,209 180,211.38 187,209.732 187,214 190.27,214 200,215.127 200,219 200.402,219 203.43,216.535 204.5,216 208.104,214.198 212.835,214.832 216.5,213 220.158,211.171 222.406,216 225,216 225,216 224,210.5 224,210.5 224,210.5 221,208.5 221,208.5 221,206.91 225.388,206.276 226,207.5 227.372,210.245 227,213.69 227,217 227,217 228.5,219 228.5,219 228.5,219 230,217 230,217 230,217 230,208.5 230,208.5 230.589,207.321 234.184,205.868 235,207.5 235.041,207.582 231,214.911 231,217  Z"/>

<path  fill="#FF9BCD" stroke-width="0" stroke="#FF9BCD" d = " M249 203 L248,204 C248,204 249,203 249,203  Z"/>

<path  fill="#FF9BCD" stroke-width="0" stroke="#FF9BCD" d = " M209 204 L210,205 C210,205 209,204 209,204  Z"/>

<path  fill="#CBC9CC" stroke-width="0" stroke="#CBC9CC" d = " M114 205 L113,207 C113,207 114,205 114,205  Z"/>

<path  fill="#FF9BCD" stroke-width="0" stroke="#FF9BCD" d = " M213 206 L214,206 C214,206 212,205 212,205 212,205 213,206 213,206  Z"/>

<path  fill="#FF9BCD" stroke-width="0" stroke="#FF9BCD" d = " M243 206 L244,207 C244,207 245,205 245,205 245,205 243,206 243,206  Z"/>

<path  fill="#FDB1D9" stroke-width="0" stroke="#FDB1D9" d = " M217 206 C217,212.405 207,215.935 207,210 207,210 213,206 213,206 213,206 214,206 214,206 214,206 217,206 217,206  Z"/>

<path  fill="#FDB1D9" stroke-width="0" stroke="#FDB1D9" d = " M244 207 L250,210 C250,215.879 239,212.684 239,206 239,206 243,206 243,206 243,206 244,207 244,207  Z"/>

<path  fill="#CBC9CC" stroke-width="0" stroke="#CBC9CC" d = " M113 207 L111,209 C112.747,209 113,208.747 113,207  Z"/>

<path  fill="#FEA4D2" stroke-width="0" stroke="#FEA4D2" d = " M121 252 L121,254 C123.425,254 123.944,260.778 127.5,259 132.086,256.707 131,239.828 131,235 131,233.51 130.265,227 132,227 132,227 132,225 132,225 132,223.855 131.421,221 133,221 133,221 133,220 133,220 133,217.54 134,214.31 134,212.5 134,212.5 132,207 132,207 123.262,207 122.536,225 115,225 115,225 113,226 113,226 113,226 113,227 113,227 113,227 112,228 112,228 112,228 111,230 111,230 111,230 111,233 111,233 111,233 112,234 112,234 112,234 116,242 116,242 116,242 117,243 117,243 117,243 119,249 119,249 119,249 120,250 120,250 120,250 120,251 120,251 120,251 121,252 121,252  Z"/>

<path  fill="#FF9BCD" stroke-width="0" stroke="#FF9BCD" d = " M166 215 C164.022,215 161.781,208.859 157.5,211 154.8,212.35 152.309,213.191 150,215.5 L147,219 C147,219 148,211 148,211 151.219,211 156,211.358 156,207 156.716,207 159,209.373 159,207 159,207 163.5,210 163.5,210 163.5,210 174,209 174,209 174,210.598 166,210.616 166,215  Z"/>

<path  fill="#CBCBCC" stroke-width="0" stroke="#CBCBCC" d = " M225 216 C225,218.082 227,220.219 227,217 227,213.69 227.372,210.245 226,207.5 225.388,206.276 221,206.91 221,208.5 221,208.5 224,210.5 224,210.5 224,210.5 225,216 225,216  Z"/>

<path  fill="#CBCBCC" stroke-width="0" stroke="#CBCBCC" d = " M230 217 C230,219.212 231,219.212 231,217 231,214.911 235.041,207.582 235,207.5 234.184,205.868 230.589,207.321 230,208.5 230,208.5 230,217 230,217  Z"/>

<path  fill="#FF9BCD" stroke-width="0" stroke="#FF9BCD" d = " M290 217 C291.951,217 290.477,214.546 291,213.5 291.89,211.72 296.474,209.987 298.5,211 L307,215.5 C314.873,231.246 315,240.45 315,258 319.941,258 316.778,248.945 318,246.5 320.293,241.915 309,218.566 309,211 304.999,211 301,212.059 301,207 301,207 297,208 297,208 297,208 292.5,210 292.5,210 292.5,210 282,209 282,209 282,210.97 290,208.142 290,217  Z"/>

<path  fill="#FEA4D2" stroke-width="0" stroke="#FEA4D2" d = " M335 253 L335,255 C332.681,255 331.417,260.458 328.5,259 327.285,258.393 325,236.846 325,234 325,234 325,230 325,230 325,228.594 325.714,223 324,223 324,223 324,222 324,222 324,220.047 320.776,207 325,207 332.945,207 333.781,225 341,225 343.767,225 345,229.975 345,232 345,232 345,234 345,234 345,234 344,235 344,235 344,235 342,238.5 342,238.5 340.204,242.092 336,247.934 336,252 336,252 335,253 335,253  Z"/>

<path  fill="#CBC9CC" stroke-width="0" stroke="#CBC9CC" d = " M352 222 L353,223 C354.168,223 353.567,218.634 353,217.5 351.718,214.936 345.479,207 343,207 343,207 346,211 346,211 346,211 348,213 348,213 348,213 349,214 349,214 349,217.054 352,218.55 352,222  Z"/>

<path  fill="#CBC9CC" stroke-width="0" stroke="#CBC9CC" d = " M107 214 L108,214 C108,214 111,210 111,210 111,210 111,209 111,209 109.189,209 107,212.438 107,214  Z"/>

<path  fill="#FCB3D9" stroke-width="0" stroke="#FCB3D9" d = " M155 263 L156,263 C156,259.459 162.006,256 165,256 165,256 174,246.5 174,246.5 177.91,238.68 187,222.652 187,214 187,209.732 180,211.38 180,209 180,209 174,209 174,209 174,210.598 166,210.616 166,215 166,230.674 161.88,227.74 156,239.5 153.638,244.224 157.318,251.864 155,256.5 155,256.5 153,261 153,261 153,261 154,263 154,263 154,263 155,263 155,263  Z"/>

<path  fill="#FCB3D9" stroke-width="0" stroke="#FCB3D9" d = " M301 263 L302,263 C302,263 303,261 303,261 303,259.786 300.39,239.279 300,238.5 295.402,229.304 290,228.958 290,217 290,208.142 282,210.97 282,209 282,209 276,209 276,209 276,210.811 269,210.58 269,214 269,220.559 279.717,240.935 283,247.5 283,247.5 292,256 292,256 296.384,256 298.191,263 301,263  Z"/>

<path  fill="#A9AAA8" stroke-width="0" stroke="#A9AAA8" d = " M112 228 L111,230 C111,230 106.5,231 106.5,231 104.357,229.928 105.779,225 104,225 104,225 104,221 104,221 104,221 105,220 105,220 105,220 105,218 105,218 105,218 106,217 106,217 106,217 107,216 107,216 107,216 107,215 107,215 107,215 108,214 108,214 108,214 111,210 111,210 114.501,210 113,222.68 113,226 113,226 113,227 113,227 113,227 112,228 112,228  Z"/>

<path  fill="#A9AAA8" stroke-width="0" stroke="#A9AAA8" d = " M352 227 L352,228 C350.577,228 350.407,232.954 346.5,231 343.998,229.749 341.12,211.19 343.5,210 343.5,210 346,211 346,211 346,211 348,213 348,213 348,213 349,214 349,214 349,217.054 352,218.55 352,222 352,222 352,226 352,226 352,226 352,227 352,227  Z"/>

<path  fill="#C8CACA" stroke-width="0" stroke="#C8CACA" d = " M151 267 L151,273 C151,273 148.5,275 148.5,275 148.5,275 142.5,272 142.5,272 127.905,264.703 133,248.278 133,235 133,235 134,233 134,233 134,233 134,232 134,232 134,232 135,231 135,231 135,224.016 139.546,211 148,211 148,211 147,219 147,219 144.666,219 145.659,223.181 145,224.5 141.603,231.294 138,239.388 138,247.5 138,249.324 138.597,257 141,257 141,257 141,258 141,258 141,261.315 147.766,267 151,267  Z"/>

<path  fill="#FFA4D0" stroke-width="0" stroke="#FFA4D0" d = " M141 258 L146.5,263 C149.356,264.428 151.053,261 153,261 153,261 155,256.5 155,256.5 157.318,251.864 153.638,244.224 156,239.5 161.88,227.74 166,230.674 166,215 164.022,215 161.781,208.859 157.5,211 154.8,212.35 152.309,213.191 150,215.5 150,215.5 147,219 147,219 147,226.065 143.081,237.338 140,243.5 138.161,247.178 141,253.596 141,257 141,257 141,258 141,258  Z"/>

<path  fill="#FFA4D0" stroke-width="0" stroke="#FFA4D0" d = " M313 261 L311,263 C307.985,263 304.996,261 303,261 303,259.786 300.39,239.279 300,238.5 295.402,229.304 290,228.958 290,217 291.951,217 290.477,214.546 291,213.5 291.89,211.72 296.474,209.987 298.5,211 298.5,211 307,215.5 307,215.5 314.873,231.246 315,240.45 315,258 315,258 315,259 315,259 315,259 314,260 314,260 314,260 313,261 313,261  Z"/>

<path  fill="#C8CACA" stroke-width="0" stroke="#C8CACA" d = " M317 271 L308.5,275 L306,273 C306,270.967 306,269.744 306,268 306,264.095 311,266.036 311,263 312.747,263 313,262.747 313,261 313,261 314,260 314,260 314,260 315,259 315,259 315,259 315,258 315,258 319.941,258 316.778,248.945 318,246.5 320.293,241.915 309,218.566 309,211 316.97,211 322,225.236 322,232 322,232 323,234 323,234 323,234 323,235 323,235 323,240.517 328.054,250.391 325,256.5 325,256.5 322,264.5 322,264.5 322,264.5 317,271 317,271  Z"/>

<path  fill-rule="evenodd" fill="#FEB0D8" stroke-width="0" stroke="#FEB0D8" d = " M232 227 L229,234.5 C228.036,236.427 229.272,240.045 230,241.5 230.774,243.049 229.155,250 232.5,250 234.455,250 234,246.111 234,245 234,242.193 235.45,227 232,227  M223 227 L222,235.5 L222,242 C222,244.113 222.141,244.782 223,246.5 L223.5,250 C225.556,251.028 225.582,246.335 226,245.5 227.521,242.459 228.839,227 223,227  M253 272 L254,272 C254,265.801 259.863,271 262,271 262,271 265,266 265,266 265,260.884 263.135,255.769 261,251.5 259.612,248.725 256,222.234 256,218 256,218 240.5,213 240.5,213 235.865,210.682 234.118,217 231,217 231,219.212 230,219.212 230,217 230,217 228.5,219 228.5,219 228.5,219 227,217 227,217 227,220.219 225,218.082 225,216 222.406,216 220.158,211.171 216.5,213 212.835,214.832 208.104,214.198 204.5,216 203.43,216.535 200.402,219 200,219 200,235.179 192,252.092 192,266 192,266 194,271 194,271 195.483,271 203,265.936 203,272 203,272 209.5,265 209.5,265 214.746,262.377 218.535,261 225,261 225,261 226,261 226,261 226,246.772 231,251.576 231,262 232.804,262 236.136,259.818 238.5,261 241.473,262.486 253,267.224 253,272  Z"/>

<path  fill="#A9AAA7" stroke-width="0" stroke="#A9AAA7" d = " M348 213 L349,214 C349,214 348,213 348,213  Z"/>

<path  fill="#CBC9CC" stroke-width="0" stroke="#CBC9CC" d = " M104 221 L104,225 C101.569,225 103.109,214 107,214 107,214 107,215 107,215 107,215 107,216 107,216 107,216 106,217 106,217 106,217 105,218 105,218 105,218 105,220 105,220 105,220 104,221 104,221  Z"/>

<path  fill="#A9AAA7" stroke-width="0" stroke="#A9AAA7" d = " M108 214 L107,215 C107,215 107,214 107,214 107,214 108,214 108,214  Z"/>

<path  fill="#FFB2D8" stroke-width="0" stroke="#FFB2D8" d = " M165 256 C171.266,256 179.199,257.35 184.5,260 187.15,261.325 188.884,266 192,266 192,252.092 200,235.179 200,219 200,215.127 190.27,214 187,214 187,222.652 177.91,238.68 174,246.5 174,246.5 165,256 165,256  Z"/>

<path  fill="#FFB2D8" stroke-width="0" stroke="#FFB2D8" d = " M292 256 C286.49,256 278.186,256.657 273.5,259 271.158,260.171 266.825,266 265,266 265,260.884 263.135,255.769 261,251.5 259.612,248.725 256,222.234 256,218 258.59,218 264.734,214 269,214 269,220.559 279.717,240.935 283,247.5 283,247.5 292,256 292,256  Z"/>

<path  fill="#A9AAA7" stroke-width="0" stroke="#A9AAA7" d = " M107 216 L106,217 C106,217 107,216 107,216  Z"/>

<path  fill="#A9AAA7" stroke-width="0" stroke="#A9AAA7" d = " M106 217 L105,218 C105,218 106,217 106,217  Z"/>

<path  fill="#FF9BCD" stroke-width="0" stroke="#FF9BCD" d = " M147 219 C144.666,219 145.659,223.181 145,224.5 141.603,231.294 138,239.388 138,247.5 138,249.324 138.597,257 141,257 141,253.596 138.161,247.178 140,243.5 143.081,237.338 147,226.065 147,219  Z"/>

<path  fill="#A9AAA7" stroke-width="0" stroke="#A9AAA7" d = " M105 220 L104,221 C104,221 105,220 105,220  Z"/>

<path  fill="#FF9BCD" stroke-width="0" stroke="#FF9BCD" d = " M133 221 C131.421,221 132,223.855 132,225 133.579,225 133,222.145 133,221  Z"/>

<path  fill="#A9AAA7" stroke-width="0" stroke="#A9AAA7" d = " M352 226 L353,226 C353,226 353,223 353,223 353,223 352,222 352,222 352,222 352,226 352,226  Z"/>

<path  fill="#FF9BCD" stroke-width="0" stroke="#FF9BCD" d = " M324 223 C325.714,223 325,228.594 325,230 323.286,230 324,224.406 324,223  Z"/>

<path  fill="#A9AAA7" stroke-width="0" stroke="#A9AAA7" d = " M104 232 C105.819,232 108.591,233 111,233 111,233 111,230 111,230 111,230 106.5,231 106.5,231 104.357,229.928 105.779,225 104,225 104,225 104,232 104,232  Z"/>

<path  fill="#CBC9CC" stroke-width="0" stroke="#CBC9CC" d = " M353 226 L352,227 C352,227 352,226 352,226 352,226 353,226 353,226  Z"/>

<path  fill="#A9AAA7" stroke-width="0" stroke="#A9AAA7" d = " M113 227 L112,228 C112,228 113,227 113,227  Z"/>

<path  fill="#FF9BCD" stroke-width="0" stroke="#FF9BCD" d = " M151 276 C151,279.516 156,280.57 156,283 156,283 146.5,276 146.5,276 140.77,273.135 121,260.272 121,254 123.425,254 123.944,260.778 127.5,259 132.086,256.707 131,239.828 131,235 131,233.51 130.265,227 132,227 132,228.49 131.265,235 133,235 133,248.278 127.905,264.703 142.5,272 142.5,272 148.5,275 148.5,275 148.5,275 151,273 151,273 151,273 151,276 151,276  Z"/>

<path  fill="#C8C8CC" stroke-width="0" stroke="#C8C8CC" d = " M223 227 L222,235.5 L222,242 C222,244.113 222.141,244.782 223,246.5 L223.5,250 C225.556,251.028 225.582,246.335 226,245.5 227.521,242.459 228.839,227 223,227  Z"/>

<path  fill="#C8C8CC" stroke-width="0" stroke="#C8C8CC" d = " M232 227 L229,234.5 C228.036,236.427 229.272,240.045 230,241.5 230.774,243.049 229.155,250 232.5,250 234.455,250 234,246.111 234,245 234,242.193 235.45,227 232,227  Z"/>

<path  fill="#A9AAA7" stroke-width="0" stroke="#A9AAA7" d = " M112 228 L111,230 C111,230 112,228 112,228  Z"/>

<path  fill="#FF9BCD" stroke-width="0" stroke="#FF9BCD" d = " M135 231 L134,232 C134,232 135,231 135,231  Z"/>

<path  fill="#FF9BCD" stroke-width="0" stroke="#FF9BCD" d = " M322 232 L323,234 C323,234 322,232 322,232  Z"/>

<path  fill="#F0F080" stroke-width="0" stroke="#F0F080" d = " M352 233 L353,233 C353,233 352,232 352,232 352,232 352,233 352,233  Z"/>

<path  fill="#FF9BCD" stroke-width="0" stroke="#FF9BCD" d = " M111 233 L112,234 C112,234 111,233 111,233  Z"/>

<path  fill="#FF9BCD" stroke-width="0" stroke="#FF9BCD" d = " M134 233 L133,235 C133,235 134,233 134,233  Z"/>

<path  fill="#FF9BCD" stroke-width="0" stroke="#FF9BCD" d = " M335 255 C335,258.973 321.21,271 317,271 317,271 322,264.5 322,264.5 322,264.5 325,256.5 325,256.5 328.054,250.391 323,240.517 323,235 323,235 325,234 325,234 325,236.846 327.285,258.393 328.5,259 331.417,260.458 332.681,255 335,255  Z"/>

<path  fill="#FF9BCD" stroke-width="0" stroke="#FF9BCD" d = " M345 234 L344,235 C344,235 345,234 345,234  Z"/>

<path  fill="#FF9BCD" stroke-width="0" stroke="#FF9BCD" d = " M116 242 L117,243 C117,243 116,242 116,242  Z"/>

<path  fill="#FF9BCD" stroke-width="0" stroke="#FF9BCD" d = " M119 249 L120,250 C120,250 119,249 119,249  Z"/>

<path  fill="#FF9BCD" stroke-width="0" stroke="#FF9BCD" d = " M120 251 L121,252 C121,252 120,251 120,251  Z"/>

<path  fill="#FFC5E2" stroke-width="0" stroke="#FFC5E2" d = " M227 280 L230,280 C230,280 230,276 230,276 230,274.259 229.227,265 231,265 231,265 231,262 231,262 231,251.576 226,246.772 226,261 226,261 226,275 226,275 226,275 226,279 226,279 226,279 227,280 227,280  Z"/>

<path  fill="#FF9BCD" stroke-width="0" stroke="#FF9BCD" d = " M336 252 L335,253 C335,253 336,252 336,252  Z"/>

<path  fill="#FFB3D6" stroke-width="0" stroke="#FFB3D6" d = " M171 286 C178.396,286 184.077,287 191,287 191,287 194,280 194,280 194,280 194,279 194,279 194,279 194,271 194,271 194,271 192,266 192,266 188.884,266 187.15,261.325 184.5,260 179.199,257.35 171.266,256 165,256 162.006,256 156,259.459 156,263 156,263 155,264 155,264 155,264 154,268 154,268 154,268 153,269 153,269 153,274.173 153.749,278.624 158.5,281 159.975,281.737 166,282.705 166,285 166,285 167,285 167,285 167,285 169,286 169,286 169,286 171,286 171,286  Z"/>

<path  fill="#FFB3D6" stroke-width="0" stroke="#FFB3D6" d = " M286 286 L288,286 C288,286 289,285 289,285 289,285 290,285 290,285 290,283.937 299.548,279 301,279 301,276.971 302.191,277.119 303,275.5 305.095,271.31 301,266.388 301,263 298.191,263 296.384,256 292,256 286.49,256 278.186,256.657 273.5,259 271.158,260.171 266.825,266 265,266 265,266 262,271 262,271 262,271.981 264.681,279 262,279 262,279 262,280 262,280 262,280 265,286 265,286 267.395,286 270.263,289.619 273.5,288 277.508,285.996 281.111,286 286,286  Z"/>

<path  fill="#FF9BCD" stroke-width="0" stroke="#FF9BCD" d = " M154 263 L151,267 C147.766,267 141,261.315 141,258 141,258 146.5,263 146.5,263 149.356,264.428 151.053,261 153,261 153,261 154,263 154,263  Z"/>

<path  fill="#FF9BCD" stroke-width="0" stroke="#FF9BCD" d = " M315 259 L314,260 C314,260 315,259 315,259  Z"/>

<path  fill="#FF9BCD" stroke-width="0" stroke="#FF9BCD" d = " M314 260 L313,261 C313,261 314,260 314,260  Z"/>

<path  fill="#FDB2D9" stroke-width="0" stroke="#FDB2D9" d = " M201 278 C201,279.465 200.891,282 203,282 209.958,282 216.895,275 221,275 221,275 223,274 223,274 223,272.089 225,265.559 225,261 218.535,261 214.746,262.377 209.5,265 209.5,265 203,272 203,272 203,272 203,273 203,273 203,273 202,274 202,274 202,274 201,277 201,277 201,277 201,278 201,278  Z"/>

<path  fill="#FF9BCD" stroke-width="0" stroke="#FF9BCD" d = " M223 274 L226,275 C226,275 226,261 226,261 226,261 225,261 225,261 225,265.559 223,272.089 223,274  Z"/>

<path  fill="#FDB2D9" stroke-width="0" stroke="#FDB2D9" d = " M255 278 L254,282 C244.394,282 231,276.036 231,265 231,265 231,262 231,262 232.804,262 236.136,259.818 238.5,261 241.473,262.486 253,267.224 253,272 253,272 254,273 254,273 254,273 254,274 254,274 254,274 255,275 255,275 255,275 255,276 255,276 255,276 255,278 255,278  Z"/>

<path  fill="#FF9BCD" stroke-width="0" stroke="#FF9BCD" d = " M311 263 C311,266.036 306,264.095 306,268 304.448,268 304.854,263 302,263 302,263 303,261 303,261 304.996,261 307.985,263 311,263  Z"/>

<path  fill="#FF9BCD" stroke-width="0" stroke="#FF9BCD" d = " M313 261 L311,263 C312.747,263 313,262.747 313,261  Z"/>

<path  fill="#C8C8CB" stroke-width="0" stroke="#C8C8CB" d = " M151 276 C153.735,276 159.868,285 166,285 166,282.705 159.975,281.737 158.5,281 153.749,278.624 153,274.173 153,269 153,269 154,268 154,268 154,268 155,264 155,264 155,264 155,263 155,263 155,263 154,263 154,263 154,263 151,267 151,267 151,267 151,273 151,273 151,273 151,276 151,276  Z"/>

<path  fill="#FF9BCD" stroke-width="0" stroke="#FF9BCD" d = " M156 263 L155,264 C155,264 155,263 155,263 155,263 156,263 156,263  Z"/>

<path  fill="#C8C8CB" stroke-width="0" stroke="#C8C8CB" d = " M304 277 C302.519,277 303.215,279 301,279 301,276.971 302.191,277.119 303,275.5 305.095,271.31 301,266.388 301,263 301,263 302,263 302,263 304.854,263 304.448,268 306,268 306,269.744 306,270.967 306,273 306,273 304,277 304,277  Z"/>

<path  fill="#FF9BCD" stroke-width="0" stroke="#FF9BCD" d = " M281 289 C271.674,289 258.75,295 247,295 247,293.447 253.014,293.528 251,289.5 248.627,284.755 235.065,284 231,284 231,284 231,282 231,282 236.54,282 240.154,277.327 233.5,274 231.123,272.811 231.384,276 230,276 230,274.259 229.227,265 231,265 231,276.036 244.394,282 254,282 254,287.02 265,292.424 265,286 267.395,286 270.263,289.619 273.5,288 277.508,285.996 281.111,286 286,286 286,288.527 281,285.174 281,289  Z"/>

<path  fill="#FF9BCD" stroke-width="0" stroke="#FF9BCD" d = " M154 268 L153,269 C153,269 154,268 154,268  Z"/>

<path  fill="#FCB2D9" stroke-width="0" stroke="#FCB2D9" d = " M194 279 L195,279 C195,279 199,278 199,278 199,278 201,277 201,277 201,277 202,274 202,274 202,274 203,273 203,273 203,273 203,272 203,272 203,265.936 195.483,271 194,271 194,271 194,279 194,279  Z"/>

<path  fill="#FCB2D9" stroke-width="0" stroke="#FCB2D9" d = " M261 279 L262,279 C264.681,279 262,271.981 262,271 259.863,271 254,265.801 254,272 254,272 254,273 254,273 254,273 254,274 254,274 254,274 255,275 255,275 255,275 255,276 255,276 255,276 257,278 257,278 257,278 261,279 261,279  Z"/>

<path  fill="#FF9BCD" stroke-width="0" stroke="#FF9BCD" d = " M304 277 L305,279 C306.919,279 317,273.228 317,271 317,271 308.5,275 308.5,275 308.5,275 306,273 306,273 306,273 304,277 304,277  Z"/>

<path  fill="#FF9BCD" stroke-width="0" stroke="#FF9BCD" d = " M254 272 L254,273 C254,273 253,272 253,272 253,272 254,272 254,272  Z"/>

<path  fill="#FF9BCD" stroke-width="0" stroke="#FF9BCD" d = " M203 273 L202,274 C202,274 203,273 203,273  Z"/>

<path  fill="#FF9BCD" stroke-width="0" stroke="#FF9BCD" d = " M223 274 L221,275 C221,275 223,274 223,274  Z"/>

<path  fill="#CACCC8" stroke-width="0" stroke="#CACCC8" d = " M226 281 L225,282 C217.126,282 221,279.995 221,275 221,275 223,274 223,274 223,274 226,275 226,275 226,275 226,279 226,279 226,279 226,280 226,280 226,280 226,281 226,281  Z"/>

<path  fill="#CACCC8" stroke-width="0" stroke="#CACCC8" d = " M230 280 L231,282 C236.54,282 240.154,277.327 233.5,274 231.123,272.811 231.384,276 230,276 230,276 230,280 230,280  Z"/>

<path  fill="#FF9BCD" stroke-width="0" stroke="#FF9BCD" d = " M254 274 L255,275 C255,275 254,274 254,274  Z"/>

<path  fill="#FF9BCD" stroke-width="0" stroke="#FF9BCD" d = " M175 289 C179.037,289 185.924,291.212 189.5,293 191.643,294.071 206.585,295 210,295 210,295 205,292.5 205,292.5 202.225,286.95 221.485,283 225,283 225,283 225,282 225,282 217.126,282 221,279.995 221,275 216.895,275 209.958,282 203,282 203,284.99 196.923,290.712 193.5,289 193.5,289 191,287 191,287 184.077,287 178.396,286 171,286 171,288.266 175,285.546 175,289  Z"/>

<path  fill="#CBC7CC" stroke-width="0" stroke="#CBC7CC" d = " M172 289 L175,289 C175,285.546 171,288.266 171,286 171,286 169,286 169,286 169,286 167,285 167,285 167,285 166,285 166,285 159.868,285 153.735,276 151,276 151,279.516 156,280.57 156,283 156,283 157,283 157,283 157,283 159,285 159,285 159,285 160,285 160,285 160,285 164,287 164,287 164,287 166,287 166,287 167.357,287 172,287.647 172,289  Z"/>

<path  fill="#FF9BCD" stroke-width="0" stroke="#FF9BCD" d = " M255 278 L257,278 C257,278 255,276 255,276 255,276 255,278 255,278  Z"/>

<path  fill="#FF9BCD" stroke-width="0" stroke="#FF9BCD" d = " M199 278 L201,278 C201,278 201,277 201,277 201,277 199,278 199,278  Z"/>

<path  fill="#CBC7CC" stroke-width="0" stroke="#CBC7CC" d = " M281 289 L284,289 C284,287.421 286.855,288 288,288 288,286.527 289.952,287 291,287 291,287 292,287 292,287 292,287 294,286 294,286 294,286 295,286 295,286 295,286 296,285 296,285 296,285 297,285 297,285 297,285 299,284 299,284 299,284 300,283 300,283 300,283 301,283 301,283 301,283 302,282 302,282 302,282 303,281 303,281 303,281 305,279 305,279 305,279 304,277 304,277 302.519,277 303.215,279 301,279 301,282.707 293.382,285 290,285 290,285 289,285 289,285 289,285 288,286 288,286 288,286 286,286 286,286 286,288.527 281,285.174 281,289  Z"/>

<path  fill="#FCB2D8" stroke-width="0" stroke="#FCB2D8" d = " M203 282 C203,284.99 196.923,290.712 193.5,289 L191,287 C191,287 194,280 194,280 194,280 195,279 195,279 195,279 199,278 199,278 199,278 201,278 201,278 201,279.465 200.891,282 203,282  Z"/>

<path  fill="#FCB2D8" stroke-width="0" stroke="#FCB2D8" d = " M254 282 C254,287.02 265,292.424 265,286 265,286 262,280 262,280 262,280 261,279 261,279 261,279 257,278 257,278 257,278 255,278 255,278 255,278 254,282 254,282  Z"/>

<path  fill="#FF9BCD" stroke-width="0" stroke="#FF9BCD" d = " M195 279 L194,280 C194,280 194,279 194,279 194,279 195,279 195,279  Z"/>

<path  fill="#FF9BCD" stroke-width="0" stroke="#FF9BCD" d = " M226 280 L227,280 C227,280 226,279 226,279 226,279 226,280 226,280  Z"/>

<path  fill="#FF9BCD" stroke-width="0" stroke="#FF9BCD" d = " M262 279 L262,280 C262,280 261,279 261,279 261,279 262,279 262,279  Z"/>

<path  fill="#C8C8CB" stroke-width="0" stroke="#C8C8CB" d = " M301 279 C299.548,279 290,283.937 290,285 293.382,285 301,282.707 301,279  Z"/>

<path  fill="#FF9BCD" stroke-width="0" stroke="#FF9BCD" d = " M305 279 L303,281 C304.747,281 305,280.747 305,279  Z"/>

<path  fill="#FFC6E2" stroke-width="0" stroke="#FFC6E2" d = " M231 286 C229.51,286 228.413,287 226,287 226,287 225,283 225,283 225,283 225,282 225,282 225,282 226,281 226,281 226,281 226,280 226,280 226,280 227,280 227,280 227,280 230,280 230,280 230,280 231,282 231,282 231,282 231,284 231,284 231,284 231,286 231,286  Z"/>

<path  fill="#FF9BCD" stroke-width="0" stroke="#FF9BCD" d = " M226 281 L225,282 C225,282 226,281 226,281  Z"/>

<path  fill="#FF9BCD" stroke-width="0" stroke="#FF9BCD" d = " M303 281 L302,282 C302,282 303,281 303,281  Z"/>

<path  fill="#FF9BCD" stroke-width="0" stroke="#FF9BCD" d = " M302 282 L301,283 C301,283 302,282 302,282  Z"/>

<path  fill="#FF9BCD" stroke-width="0" stroke="#FF9BCD" d = " M157 283 L159,285 C159,285 157,283 157,283  Z"/>

<path  fill="#C7C9C9" stroke-width="0" stroke="#C7C9C9" d = " M210 295 L217,295 C217,295 222,292.5 222,292.5 222,292.5 226,287 226,287 226,287 225,283 225,283 221.485,283 202.225,286.95 205,292.5 205,292.5 210,295 210,295  Z"/>

<path  fill="#C7C9C9" stroke-width="0" stroke="#C7C9C9" d = " M239 295 L247,295 C247,293.447 253.014,293.528 251,289.5 248.627,284.755 235.065,284 231,284 231,284 231,286 231,286 231,287.727 232.702,292.101 234.5,293 235.43,293.465 239,293.817 239,295  Z"/>

<path  fill="#FF9BCD" stroke-width="0" stroke="#FF9BCD" d = " M300 283 L299,284 C299,284 300,283 300,283  Z"/>

<path  fill="#FF9BCD" stroke-width="0" stroke="#FF9BCD" d = " M299 284 L297,285 C297,285 299,284 299,284  Z"/>

<path  fill="#FF9BCD" stroke-width="0" stroke="#FF9BCD" d = " M160 285 L164,287 C164,287 160,285 160,285  Z"/>

<path  fill="#FF9BCD" stroke-width="0" stroke="#FF9BCD" d = " M167 285 L169,286 C169,286 167,285 167,285  Z"/>

<path  fill="#FF9BCD" stroke-width="0" stroke="#FF9BCD" d = " M289 285 L288,286 C288,286 289,285 289,285  Z"/>

<path  fill="#FF9BCD" stroke-width="0" stroke="#FF9BCD" d = " M296 285 L295,286 C295,286 296,285 296,285  Z"/>

<path  fill="#FF9BCD" stroke-width="0" stroke="#FF9BCD" d = " M217 295 C221.288,295 223.037,293.732 226.5,292 L228.5,289 L231.5,293 C233.951,294.226 235.981,295 239,295 239,293.817 235.43,293.465 234.5,293 232.702,292.101 231,287.727 231,286 229.51,286 228.413,287 226,287 226,287 222,292.5 222,292.5 222,292.5 217,295 217,295  Z"/>

<path  fill="#FF9BCD" stroke-width="0" stroke="#FF9BCD" d = " M294 286 L292,287 C292,287 294,286 294,286  Z"/>

<path  fill="#FF9BCD" stroke-width="0" stroke="#FF9BCD" d = " M166 287 C167.357,287 172,287.647 172,289 170.643,289 166,288.353 166,287  Z"/>

<path  fill="#FF9BCD" stroke-width="0" stroke="#FF9BCD" d = " M291 287 C289.952,287 288,286.527 288,288 289.048,288 291,288.473 291,287  Z"/>

<path  fill="#FF9BCD" stroke-width="0" stroke="#FF9BCD" d = " M288 288 C286.855,288 284,287.421 284,289 285.145,289 288,289.579 288,288  Z"/>

</g>
</svg>
