<svg xmlns="http://www.w3.org/2000/svg" xmlns:xlink="http://www.w3.org/1999/xlink"  viewBox="0 0 456 320">
<g>
<rect width="456" height="320" fill="#000000"  stroke-width="0" /> 
<path  fill="#FEFA90" stroke-width="0" stroke="#FEFA90" d = " M188 93 C201.807,93 215.228,95 229.5,95 L244.5,95 C250.069,92.2153 262.666,93 269,93 269,81.2735 261.043,83.2714 252.5,79 242.232,73.8662 208.035,76.2325 198.5,81 195.011,82.7443 188.769,83.9616 187,87.5 185.557,90.3863 188,90.7622 188,93  Z"/>

<path  fill-rule="evenodd" fill="#FDFB90" stroke-width="0" stroke="#FDFB90" d = " M249 109 C249,111.105 258.211,109 249,109  M203 109 C203,111.105 212.211,109 203,109  M213 108 C213,109.665 217.222,109 218.5,109 L236.5,109 L243,108.5 L213,108  M182 131 L192.5,125 C200.615,120.943 213.95,123.775 221.5,120 226.63,117.435 259.068,122.784 263.5,125 265.761,126.131 271.738,131 274,131 274,124.891 278.354,116.792 281,111.5 281.559,110.381 281.155,107 283,107 283,107 283,102 283,102 282.157,102 273.858,93 269,93 262.666,93 250.069,92.2153 244.5,95 244.5,95 229.5,95 229.5,95 215.228,95 201.807,93 188,93 181.263,93 175.341,102 173,102 173,102 173,106 173,106 174.722,106 175.368,111.235 176,112.5 178.527,117.554 182,125.113 182,131  Z"/>

<path  fill="#FCFA91" stroke-width="0" stroke="#FCFA91" d = " M131 130 L130,131 C130,131 122.5,135 122.5,135 120.905,135.798 120.383,132.265 120,131.5 118.764,129.028 119.722,126.055 121,123.5 121,123.5 139,105.5 139,105.5 139,105.5 136,104.5 136,104.5 136,101.186 161.412,94.4558 166.5,97 168.167,97.8337 171.789,102 173,102 173,102 173,106 173,106 173,107.639 164.06,110.22 162.5,111 162.5,111 131,130 131,130  Z"/>

<path  fill="#FCFA91" stroke-width="0" stroke="#FCFA91" d = " M283 107 C291.328,107 306.665,119.082 314.5,123 L325,130 C325,130 334.5,135 334.5,135 341.358,135 333.563,121.626 333,120.5 330.361,115.222 317,111.368 317,105.5 317,105.5 321,104.5 321,104.5 321,102.874 314.563,101.531 313.5,101 308.718,98.6092 295.81,93.8448 289.5,97 289.5,97 283,102 283,102 283,102 283,107 283,107  Z"/>

<path  fill="#FFFB8E" stroke-width="0" stroke="#FFFB8E" d = " M143 177 C141.634,177 139,179.366 139,181 133.818,181 131.125,183.812 125.5,181 111.489,173.995 120.065,158.629 116,150.5 115.477,149.453 114.252,147.995 115,146.5 115,146.5 130,131 130,131 130,131 131,130 131,130 131,130 162.5,111 162.5,111 164.06,110.22 173,107.639 173,106 174.722,106 175.368,111.235 176,112.5 178.527,117.554 182,125.113 182,131 182,131 172.5,141 172.5,141 166.531,143.984 155.184,158.133 152,164.5 152,164.5 145,174 145,174 145,174 144,175 144,175 144,175 143,177 143,177  Z"/>

<path  fill="#FFFB8E" stroke-width="0" stroke="#FFFB8E" d = " M311 173 L318,181 C320.203,181 322.569,184.465 325.5,183 339.445,176.027 340,169.3 340,155 340,151.019 342.824,149.148 341,145.5 341,145.5 325,130 325,130 325,130 314.5,123 314.5,123 306.665,119.082 291.328,107 283,107 281.155,107 281.559,110.381 281,111.5 278.354,116.792 274,124.891 274,131 274,131 284,140.5 284,140.5 290.89,147.39 300.819,157.139 305,165.5 305,165.5 311,173 311,173  Z"/>

<path  fill="#CBC9CC" stroke-width="0" stroke="#CBC9CC" d = " M213 108 C213,109.665 217.222,109 218.5,109 L236.5,109 L243,108.5 L213,108  Z"/>

<path  fill="#CBC9CC" stroke-width="0" stroke="#CBC9CC" d = " M203 109 C203,111.105 212.211,109 203,109  Z"/>

<path  fill="#CBC9CC" stroke-width="0" stroke="#CBC9CC" d = " M249 109 C249,111.105 258.211,109 249,109  Z"/>

<path  fill="#FBFC91" stroke-width="0" stroke="#FBFC91" d = " M185 146 C185.008,146 195.262,139.619 196.5,139 201.192,136.654 234.71,132.105 240.5,135 247.061,138.28 255.9,136.7 262.5,140 264.694,141.097 270.662,147 272,147 272,141.211 274,136.377 274,131 271.738,131 265.761,126.131 263.5,125 259.068,122.784 226.63,117.435 221.5,120 213.95,123.775 200.615,120.943 192.5,125 192.5,125 182,131 182,131 182,131 185,146 185,146  Z"/>

<path  fill-rule="evenodd" fill="#FFF990" stroke-width="0" stroke="#FFF990" d = " M167 167 C167,170.746 169.091,167 167,167  M168 166 C168,167.93 169.93,166 168,166  M170 163 C170,168.512 170.634,163 170,163  M141 181 C141,206.14 167.718,183 172,183 172,183 173,180 173,180 173,180 174,179 174,179 174,179 175,178 175,178 175,178 177,175 177,175 177,175 179,173 179,173 179,173 186,164 186,164 186,159.365 185,154.172 185,149 181.189,149 176.475,159.513 173.5,161 173.5,161 171.5,163 171.5,163 169.526,162.013 173.283,159.217 174,158.5 174,158.5 185,146 185,146 185,146 182,131 182,131 182,131 172.5,141 172.5,141 166.531,143.984 155.184,158.133 152,164.5 152,164.5 145,174 145,174 145,174 144,175 144,175 144,175 143,177 143,177 143,177 141,181 141,181  Z"/>

<path  fill="#FFF990" stroke-width="0" stroke="#FFF990" d = " M284 183 C288.346,183 315,204.793 315,183 315,179.026 311,176.685 311,173 311,173 305,165.5 305,165.5 300.819,157.139 290.89,147.39 284,140.5 284,140.5 274,131 274,131 274,136.377 272,141.211 272,147 273.11,147 282.055,157.611 283,159.5 283.431,160.362 290.964,169 289.5,169 287.201,169 274.713,149 271,149 271,149 271,165 271,165 271,165 281,177 281,177 281,177 281,178 281,178 282.803,178 284,181.592 284,183  Z"/>

<path  fill="#CBC9CC" stroke-width="0" stroke="#CBC9CC" d = " M185 149 C185,143.997 197.606,142.447 200.5,141 211.454,135.523 244.546,135.523 255.5,141 258.539,142.519 271,143.419 271,149 274.713,149 287.201,169 289.5,169 290.964,169 283.431,160.362 283,159.5 282.055,157.611 273.11,147 272,147 270.662,147 264.694,141.097 262.5,140 255.9,136.7 247.061,138.28 240.5,135 234.71,132.105 201.192,136.654 196.5,139 195.262,139.619 185.008,146 185,146 185,146 174,158.5 174,158.5 173.283,159.217 169.526,162.013 171.5,163 171.5,163 173.5,161 173.5,161 176.475,159.513 181.189,149 185,149  Z"/>

<path  fill="#FBFC91" stroke-width="0" stroke="#FBFC91" d = " M186 164 L194.5,159 C198.47,157.015 231.931,152.715 236.5,155 244.011,158.755 254.956,155.228 262.5,159 L271,165 C271,165 271,149 271,149 271,143.419 258.539,142.519 255.5,141 244.546,135.523 211.454,135.523 200.5,141 197.606,142.447 185,143.997 185,149 185,154.172 186,159.365 186,164  Z"/>

<path  fill="#FFFA8F" stroke-width="0" stroke="#FFFA8F" d = " M179 173 C194.093,173 210.941,173 227.5,173 233.674,173 243.246,171.373 248.5,174 253.1,176.3 272.332,170.916 274.5,172 L281,177 C281,177 271,165 271,165 271,165 262.5,159 262.5,159 254.956,155.228 244.011,158.755 236.5,155 231.931,152.715 198.47,157.015 194.5,159 194.5,159 186,164 186,164 186,164 179,173 179,173  Z"/>

<path  fill="#CBC9CC" stroke-width="0" stroke="#CBC9CC" d = " M170 163 C170,168.512 170.634,163 170,163  Z"/>

<path  fill="#CBC9CC" stroke-width="0" stroke="#CBC9CC" d = " M168 166 C168,167.93 169.93,166 168,166  Z"/>

<path  fill="#CBC9CC" stroke-width="0" stroke="#CBC9CC" d = " M167 167 C167,170.746 169.091,167 167,167  Z"/>

<path  fill="#CBC9CC" stroke-width="0" stroke="#CBC9CC" d = " M175 178 C188.471,178 203.376,177 217.5,177 221.207,177 227.413,173.456 230.5,175 239.533,179.517 269.744,178 281,178 281,178 281,177 281,177 281,177 274.5,172 274.5,172 272.332,170.916 253.1,176.3 248.5,174 243.246,171.373 233.674,173 227.5,173 210.941,173 194.093,173 179,173 179,174.747 178.747,175 177,175 177,175 175,178 175,178  Z"/>

<path  fill="#FFFA8F" stroke-width="0" stroke="#FFFA8F" d = " M179 173 L177,175 C178.747,175 179,174.747 179,173  Z"/>

<path  fill="#F0F080" stroke-width="0" stroke="#F0F080" d = " M318 181 C315.785,181 316.481,183 315,183 315,179.026 311,176.685 311,173 311,173 318,181 318,181  Z"/>

<path  fill="#F0F080" stroke-width="0" stroke="#F0F080" d = " M145 174 L144,175 C144,175 145,174 145,174  Z"/>

<path  fill="#F0F080" stroke-width="0" stroke="#F0F080" d = " M144 175 L143,177 C143,177 144,175 144,175  Z"/>

<path  fill="#FFFA8F" stroke-width="0" stroke="#FFFA8F" d = " M172 183 C172,192.871 186.414,189.957 192.5,193 206.705,200.102 249.287,200.106 263.5,193 268.863,190.319 284,193.157 284,183 284,181.592 282.803,178 281,178 269.744,178 239.533,179.517 230.5,175 227.413,173.456 221.207,177 217.5,177 203.376,177 188.471,178 175,178 175,178 174,179 174,179 174,179 173,180 173,180 173,180 172,183 172,183  Z"/>

<path  fill="#F0F080" stroke-width="0" stroke="#F0F080" d = " M139 181 L141,181 C141,181 143,177 143,177 141.634,177 139,179.366 139,181  Z"/>

<path  fill="#CBC9CC" stroke-width="0" stroke="#CBC9CC" d = " M174 179 L173,180 C173,180 174,179 174,179  Z"/>

<path  fill="#FF9BCD" stroke-width="0" stroke="#FF9BCD" d = " M187 206 L185,208.5 L187,212 C187,212 178.5,203 178.5,203 174.432,200.966 171.102,203 167,203 167,203 167,201 167,201 167,201 174,200 174,200 174,200 177,200.5 177,200.5 178.421,197.659 169.4,196.05 167.5,197 167.5,197 157,201 157,201 157,196.53 172.088,194 175.5,194 176.983,194 182,192.018 182,194 175.445,194 180.283,202 184,202 184,204.54 187,204.543 187,206  Z"/>

<path  fill="#FF9BCD" stroke-width="0" stroke="#FF9BCD" d = " M270 206 L271,210 C271,210 278.5,203 278.5,203 282.513,200.993 285.77,203 290,203 290,203 290,201 290,201 287.538,201 278.713,200.073 279,199.5 279,199.5 282.5,198 282.5,198 292.549,192.976 309.002,207.504 313,215.5 315.457,220.414 320.101,248.298 317,254.5 317,254.5 313,267 313,267 316.256,267 317.855,252.79 319,250.5 320.721,247.058 319,245.186 319,241.5 319,223.411 313.172,207.336 296.5,199 291.035,196.267 286.104,194 279.5,194 278.29,194 274,191.761 274,194 283.522,194 273,200.535 273,202 273,202 270,206 270,206  Z"/>

<path  fill="#FFA2D2" stroke-width="0" stroke="#FFA2D2" d = " M184 202 L186,202 C186,202 190,201 190,201 190,201 190,199 190,199 190,199 189,195 189,195 189,195 187,195 187,195 185.855,195 183,195.579 183,194 183,194 182,194 182,194 175.445,194 180.283,202 184,202  Z"/>

<path  fill="#FF9BCD" stroke-width="0" stroke="#FF9BCD" d = " M183 194 C184.145,194 187,193.421 187,195 185.855,195 183,195.579 183,194  Z"/>

<path  fill="#FF9BCD" stroke-width="0" stroke="#FF9BCD" d = " M273 194 C271.855,194 269,193.421 269,195 270.145,195 273,195.579 273,194  Z"/>

<path  fill="#FFA2D2" stroke-width="0" stroke="#FFA2D2" d = " M271 202 L273,202 C273,200.535 283.522,194 274,194 274,194 273,194 273,194 273,195.579 270.145,195 269,195 269,195 268,195 268,195 268,195 266,198 266,198 266,198 266,201 266,201 266,201 271,202 271,202  Z"/>

<path  fill="#FF9BCD" stroke-width="0" stroke="#FF9BCD" d = " M199 197 L191.5,197 L190,199 C190,199 189,195 189,195 190.249,195 199,196.074 199,197  Z"/>

<path  fill="#FF9BCD" stroke-width="0" stroke="#FF9BCD" d = " M257 197 C260.013,197 263.611,198 266,198 266,198 268,195 268,195 266.512,195 257,195.924 257,197  Z"/>

<path  fill="#C8CACA" stroke-width="0" stroke="#C8CACA" d = " M152 275 L153,275 C153,284.434 141.583,261.665 141,260.5 138.63,255.761 137.454,231.592 140,226.5 140,226.5 143,216 143,216 144.577,216 145,214.238 145,213 146.901,213 150,208.668 150,207 152.27,207 157,202.881 157,201 157,201 167.5,197 167.5,197 169.4,196.05 178.421,197.659 177,200.5 177,200.5 174,200 174,200 174,200 167,201 167,201 161.542,201 158.137,205 157,205 157,205 155,207 155,207 153.253,207 153,207.253 153,209 150.774,209 149,210.774 149,213 145.969,213 143,223.488 143,226 143,226 143,229 143,229 141.421,229 142,231.855 142,233 142,233 142,237 142,237 140.35,237 140.35,254 142,254 142,254 142,257 142,257 142,257 143,258 143,258 143,258 145,265 145,265 145,265 146,266 146,266 146,266 146,267 146,267 146,267 147,268 147,268 147,268 147,269 147,269 147,269 149,271 149,271 149,271 149,272 149,272 149,272 150,273 150,273 150,273 151,274 151,274 151,274 152,275 152,275  Z"/>

<path  fill="#FDA5D0" stroke-width="0" stroke="#FDA5D0" d = " M207 215 L205,217 C202.732,217 201.079,220.29 198.5,219 196.288,217.894 189.089,213 187,213 187,213 187,212 187,212 187,212 185,208.5 185,208.5 185,208.5 187,206 187,206 187,206 188,205 188,205 190.109,205 190,202.465 190,201 190,201 190,199 190,199 190,199 191.5,197 191.5,197 191.5,197 199,197 199,197 199,197 201,197 201,197 201,197 206,200 206,200 206,200 211,210 211,210 211,210 211,211 211,211 211,211 208,214 208,214 208,214 207,215 207,215  Z"/>

<path  fill="#FF9BCD" stroke-width="0" stroke="#FF9BCD" d = " M208 198 L206,200 C206,200 201,197 201,197 201,197 208,198 208,198  Z"/>

<path  fill="#FF9BCD" stroke-width="0" stroke="#FF9BCD" d = " M255 197 L253,198 C253,198 255,197 255,197  Z"/>

<path  fill="#FDA5D0" stroke-width="0" stroke="#FDA5D0" d = " M269 213 L264.5,217 L258.5,219 C255.945,220.278 253.984,217 252,217 252,217 247,213 247,213 247,213 245,210 245,210 245,206.381 251,203.226 251,199 251,199 253,198 253,198 253,198 255,197 255,197 255,197 257,197 257,197 260.013,197 263.611,198 266,198 266,198 266,201 266,201 266,201 268,205 268,205 268,205 270,206 270,206 270,206 271,210 271,210 271,210 270,212 270,212 270,212 269,213 269,213  Z"/>

<path  fill="#C8CACA" stroke-width="0" stroke="#C8CACA" d = " M305 274 L304,275 C304,280.483 305.829,273 309,273 309,273 310,272 310,272 310,270.762 310.423,269 312,269 312,269 313,267 313,267 313,267 317,254.5 317,254.5 320.101,248.298 315.457,220.414 313,215.5 309.002,207.504 292.549,192.976 282.5,198 282.5,198 279,199.5 279,199.5 278.713,200.073 287.538,201 290,201 292.473,201 299,201.728 299,205 305.74,205 313,219.744 313,225 313,225 313,226 313,226 314.473,226 314,227.952 314,229 314,229 314,232 314,232 315.643,232 315,235.765 315,237 315,237 315,253 315,253 315,254.048 315.473,256 314,256 314,256 313,262 313,262 313,262 312,263 312,263 312,263 311,265 311,265 311,265 311,266 311,266 311,266 310,267 310,267 310,267 309,269 309,269 309,269 308,271 308,271 308,271 306,273 306,273 306,273 305,274 305,274  Z"/>

<path  fill="#FEA3D0" stroke-width="0" stroke="#FEA3D0" d = " M211 210 L213,211 C215.075,211 223,213.71 223,209 223,209 223,207 223,207 223,207 223,205 223,205 223,205 219,201 219,201 219,201 218,201 218,201 218,201 217,200 217,200 217,200 216,200 216,200 216,200 215,199 215,199 215,199 213,199 213,199 213,199 211,198 211,198 211,198 208,198 208,198 208,198 206,200 206,200 206,200 211,210 211,210  Z"/>

<path  fill="#FF9BCD" stroke-width="0" stroke="#FF9BCD" d = " M211 198 L213,199 C213,199 211,198 211,198  Z"/>

<path  fill="#FF9BCD" stroke-width="0" stroke="#FF9BCD" d = " M245 198 L244,199 C244,199 245,198 245,198  Z"/>

<path  fill="#FEA3D0" stroke-width="0" stroke="#FEA3D0" d = " M245 210 L244,211 C244,211 236.5,212 236.5,212 236.5,212 233,209 233,209 233,209 233,208 233,208 233,208 233,206 233,206 233,206 237,201 237,201 237,201 244,199 244,199 244,199 245,198 245,198 245,198 248,198 248,198 248,199.473 249.952,199 251,199 251,203.226 245,206.381 245,210  Z"/>

<path  fill="#FF9BCD" stroke-width="0" stroke="#FF9BCD" d = " M253 198 L251,199 C249.952,199 248,199.473 248,198 248,198 253,198 253,198  Z"/>

<path  fill="#FF9BCD" stroke-width="0" stroke="#FF9BCD" d = " M215 199 L216,200 C216,200 215,199 215,199  Z"/>

<path  fill="#FF9BCD" stroke-width="0" stroke="#FF9BCD" d = " M217 200 L218,201 C218,201 217,200 217,200  Z"/>

<path  fill="#FF9BCD" stroke-width="0" stroke="#FF9BCD" d = " M157 201 C155.237,201 150,205.012 150,207 152.27,207 157,202.881 157,201  Z"/>

<path  fill="#FDA3D1" stroke-width="0" stroke="#FDA3D1" d = " M157 205 L157,206 C157,206 167,203 167,203 167,203 167,201 167,201 161.542,201 158.137,205 157,205  Z"/>

<path  fill="#FF9BCD" stroke-width="0" stroke="#FF9BCD" d = " M186 202 L188,205 C190.109,205 190,202.465 190,201 190,201 186,202 186,202  Z"/>

<path  fill="#FF9BCD" stroke-width="0" stroke="#FF9BCD" d = " M227 204 L223,205 C223,205 219,201 219,201 220.283,201 227,202.931 227,204  Z"/>

<path  fill="#FF9BCD" stroke-width="0" stroke="#FF9BCD" d = " M230 204 C232.003,204 233,203.707 233,206 233,206 237,201 237,201 235.655,201 230,202.571 230,204  Z"/>

<path  fill="#FF9BCD" stroke-width="0" stroke="#FF9BCD" d = " M271 202 L268,205 C268,205 266,201 266,201 266,201 271,202 271,202  Z"/>

<path  fill="#FDA3D1" stroke-width="0" stroke="#FDA3D1" d = " M299 205 L299,206 C295.922,206 292.675,203 290,203 290,203 290,201 290,201 292.473,201 299,201.728 299,205  Z"/>

<path  fill="#FDA4D0" stroke-width="0" stroke="#FDA4D0" d = " M153 275 L159,275 C161.676,275 166.018,267.465 167,265.5 171.276,256.948 170.728,246.044 175,237.5 176.483,234.533 183,224.668 183,222 183,222 185,221 185,221 185,218.27 187,216.463 187,213 187,213 187,212 187,212 187,212 178.5,203 178.5,203 174.432,200.966 171.102,203 167,203 167,203 157,206 157,206 157,206 155,207 155,207 155,207 153,209 153,209 153,209 149,213 149,213 149,214.675 144.198,226 143,226 143,226 143,229 143,229 143,230.145 143.579,233 142,233 142,233 142,237 142,237 142,237 142,254 142,254 142,254 142,257 142,257 142,257 143,258 143,258 143,258 145,265 145,265 145,265 146,266 146,266 146,266 146,267 146,267 146,267 147,268 147,268 147,268 147,269 147,269 147,269 149,271 149,271 149,271 149,272 149,272 149,272 150,273 150,273 150,273 151,274 151,274 151,274 152,275 152,275 152,275 153,275 153,275  Z"/>

<path  fill="#CAC9CC" stroke-width="0" stroke="#CAC9CC" d = " M188 205 L187,206 C187,204.543 184,204.54 184,202 184,202 186,202 186,202 186,202 188,205 188,205  Z"/>

<path  fill="#CAC9CC" stroke-width="0" stroke="#CAC9CC" d = " M268 205 L270,206 C270,206 273,202 273,202 273,202 271,202 271,202 271,202 268,205 268,205  Z"/>

<path  fill="#FDA4D0" stroke-width="0" stroke="#FDA4D0" d = " M297 275 L304,275 C304,275 305,274 305,274 305,274 306,273 306,273 306,273 308,271 308,271 308,271 309,269 309,269 309,269 310,267 310,267 310,267 311,266 311,266 311,266 311,265 311,265 311,265 312,263 312,263 312,263 313,262 313,262 313,262 314,256 314,256 314,254.952 313.527,253 315,253 315,253 315,237 315,237 313.357,237 314,233.235 314,232 314,232 314,229 314,229 312.527,229 313,227.048 313,226 313,226 313,225 313,225 313,225 307,213.5 307,213.5 307,213.5 299,206 299,206 295.922,206 292.675,203 290,203 285.77,203 282.513,200.993 278.5,203 278.5,203 271,210 271,210 271,210 270,212 270,212 270,212 269,213 269,213 269,217.691 273,220.12 273,222 275.469,222 277.127,229.754 278,231.5 278,231.5 285,247.5 285,247.5 287.63,252.761 286.343,260.186 289,265.5 289,265.5 297,275 297,275  Z"/>

<path  fill="#FFA5D0" stroke-width="0" stroke="#FFA5D0" d = " M224 209 L228.5,212 L232,209 C232,209 233,208 233,208 233,208 233,206 233,206 233,203.707 232.003,204 230,204 230,204 227,204 227,204 227,204 223,205 223,205 223,205 223,207 223,207 223,207 224,209 224,209  Z"/>

<path  fill="#FF9BCD" stroke-width="0" stroke="#FF9BCD" d = " M157 206 L155,207 C155,207 157,205 157,205 157,205 157,206 157,206  Z"/>

<path  fill="#FF9BCD" stroke-width="0" stroke="#FF9BCD" d = " M299 206 L307,213.5 L313,225 C313,219.744 305.74,205 299,205 299,205 299,206 299,206  Z"/>

<path  fill="#FF9BCD" stroke-width="0" stroke="#FF9BCD" d = " M150 207 C148.099,207 145,211.332 145,213 146.901,213 150,208.668 150,207  Z"/>

<path  fill="#FF9BCD" stroke-width="0" stroke="#FF9BCD" d = " M155 207 C153.253,207 153,207.253 153,209 153,209 155,207 155,207  Z"/>

<path  fill="#FF9BCD" stroke-width="0" stroke="#FF9BCD" d = " M223 209 L224,209 C224,209 223,207 223,207 223,207 223,209 223,209  Z"/>

<path  fill="#FF9BCD" stroke-width="0" stroke="#FF9BCD" d = " M232 209 L233,209 C233,209 233,208 233,208 233,208 232,209 232,209  Z"/>

<path  fill="#FF9BCD" stroke-width="0" stroke="#FF9BCD" d = " M153 209 C150.774,209 149,210.774 149,213 149,213 153,209 153,209  Z"/>

<path  fill-rule="evenodd" fill="#FDA5D1" stroke-width="0" stroke="#FDA5D1" d = " M243 216 C243,223.975 247.275,216 243,216  M211 216 C211,223.975 215.275,216 211,216  M226 227 C226,230.985 229.223,228 231,228 231,224.536 230.551,220.474 233.5,219 236.768,217.366 244,220.82 244,224 251.231,224 252,224.204 252,217 252,217 247,213 247,213 247,213 244,211 244,211 244,211 236.5,212 236.5,212 236.5,212 233,209 233,209 233,209 232,209 232,209 232,209 228.5,212 228.5,212 228.5,212 224,209 224,209 224,209 223,209 223,209 223,213.71 215.075,211 213,211 213,211 211,211 211,211 211,211 208,214 208,214 208,214 207,215 207,215 207,215 205,217 205,217 205,221.668 203.466,221.483 208.5,224 208.5,224 210.5,225 210.5,225 210.5,225 213,223 213,223 213,218.451 226,215.932 226,227  Z"/>

<path  fill="#FF9BCD" stroke-width="0" stroke="#FF9BCD" d = " M211 211 L213,211 C213,211 211,210 211,210 211,210 211,211 211,211  Z"/>

<path  fill="#FF9BCD" stroke-width="0" stroke="#FF9BCD" d = " M244 211 L247,213 C247,213 245,210 245,210 245,210 244,211 244,211  Z"/>

<path  fill="#FF9BCD" stroke-width="0" stroke="#FF9BCD" d = " M270 212 L269,213 C269,213 270,212 270,212  Z"/>

<path  fill="#FF9BCD" stroke-width="0" stroke="#FF9BCD" d = " M145 213 C143.423,213 143,214.762 143,216 144.577,216 145,214.238 145,213  Z"/>

<path  fill="#FF9BCD" stroke-width="0" stroke="#FF9BCD" d = " M149 213 C145.969,213 143,223.488 143,226 144.198,226 149,214.675 149,213  Z"/>

<path  fill-rule="evenodd" fill="#FF9BCD" stroke-width="0" stroke="#FF9BCD" d = " M228 230 C228,233.746 230.091,230 228,230  M240 241 C240,239.16 246.883,223.309 237.5,228 L234.5,229 L228.5,236 C228.189,236 217.457,221.587 213,230.5 211.68,233.141 218,239.755 218,242 216.053,242 215.364,239 213,239 213,236.045 212.667,231 209,231 209,222.144 191.259,221 185,221 185,218.27 187,216.463 187,213 189.089,213 196.288,217.894 198.5,219 201.079,220.29 202.732,217 205,217 205,221.668 203.466,221.483 208.5,224 208.5,224 210.5,225 210.5,225 210.5,225 213,223 213,223 213,225.649 221.963,229 224.5,229 224.5,229 226,227 226,227 226,230.985 229.223,228 231,228 234.748,228 240.046,224 244,224 251.231,224 252,224.204 252,217 253.984,217 255.945,220.278 258.5,219 258.5,219 264.5,217 264.5,217 264.5,217 269,213 269,213 269,217.691 273,220.12 273,222 266.383,222 248,219.868 248,231 243.373,231 244,235.095 244,239 244,239 240,241 240,241  Z"/>

<path  fill="#FF9BCD" stroke-width="0" stroke="#FF9BCD" d = " M208 214 L207,215 C207,215 208,214 208,214  Z"/>

<path  fill="#FF9BCD" stroke-width="0" stroke="#FF9BCD" d = " M165 289 C165,293.296 173,293.7 173,297 166.472,297 157.756,287.013 155,281.5 155,281.5 149,276.5 149,276.5 143.213,264.926 137,258.734 137,244.5 137,239.338 138.473,216 143,216 143,216 140,226.5 140,226.5 137.454,231.592 138.63,255.761 141,260.5 141.583,261.665 153,284.434 153,275 153,275 159,275 159,275 159,277.041 159.959,278 162,278 162,278 161,281 161,281 161,281 155.5,278 155.5,278 155.5,278 155.5,281 155.5,281 158.314,282.407 161.041,289 165,289  Z"/>

<path  fill="#C8CAC7" stroke-width="0" stroke="#C8CAC7" d = " M211 216 C211,223.975 215.275,216 211,216  Z"/>

<path  fill="#C8CAC7" stroke-width="0" stroke="#C8CAC7" d = " M243 216 C243,223.975 247.275,216 243,216  Z"/>

<path  fill="#FDB1D8" stroke-width="0" stroke="#FDB1D8" d = " M213 223 C213,225.649 221.963,229 224.5,229 L226,227 C226,215.932 213,218.451 213,223  Z"/>

<path  fill="#FDB1D8" stroke-width="0" stroke="#FDB1D8" d = " M244 224 C240.046,224 234.748,228 231,228 231,224.536 230.551,220.474 233.5,219 236.768,217.366 244,220.82 244,224  Z"/>

<path  fill="#FF9BCD" stroke-width="0" stroke="#FF9BCD" d = " M185 221 L183,222 C183,222 185,221 185,221  Z"/>

<path  fill="#FDB1D7" stroke-width="0" stroke="#FDB1D7" d = " M162 278 C165.222,278 168.277,279 171,279 171,279 175,276 175,276 175,268.204 195.18,241.66 200.5,239 200.5,239 209,231 209,231 209,222.144 191.259,221 185,221 185,221 183,222 183,222 183,224.668 176.483,234.533 175,237.5 170.728,246.044 171.276,256.948 167,265.5 166.018,267.465 161.676,275 159,275 159,277.041 159.959,278 162,278  Z"/>

<path  fill="#FDB1D7" stroke-width="0" stroke="#FDB1D7" d = " M295 278 L285,279 C285,279 282,277 282,277 282,270.202 265.853,248.353 261,243.5 261,243.5 248,231 248,231 248,219.868 266.383,222 273,222 275.469,222 277.127,229.754 278,231.5 278,231.5 285,247.5 285,247.5 287.63,252.761 286.343,260.186 289,265.5 289,265.5 297,275 297,275 297,277.003 297.293,278 295,278  Z"/>

<path  fill="#FF9BCD" stroke-width="0" stroke="#FF9BCD" d = " M313 226 C314.473,226 314,227.952 314,229 312.527,229 313,227.048 313,226  Z"/>

<path  fill="#FEB1D7" stroke-width="0" stroke="#FEB1D7" d = " M233 244 L234,244 C234,244 236,243 236,243 236,243 237,243 237,243 237,243 238,242 238,242 238,242 240,241 240,241 240,239.16 246.883,223.309 237.5,228 237.5,228 234.5,229 234.5,229 234.5,229 228.5,236 228.5,236 228.189,236 217.457,221.587 213,230.5 211.68,233.141 218,239.755 218,242 218,242 221,243 221,243 225.348,243 228.573,244 233,244  Z"/>

<path  fill="#FF9BCD" stroke-width="0" stroke="#FF9BCD" d = " M143 229 C141.421,229 142,231.855 142,233 143.579,233 143,230.145 143,229  Z"/>

<path  fill="#A7AAA9" stroke-width="0" stroke="#A7AAA9" d = " M228 230 C228,233.746 230.091,230 228,230  Z"/>

<path  fill="#FFB2D8" stroke-width="0" stroke="#FFB2D8" d = " M177 279 L178,279 C178,279 181,278 181,278 181,270.821 204.658,239 213,239 213,236.045 212.667,231 209,231 209,231 200.5,239 200.5,239 195.18,241.66 175,268.204 175,276 175,277.238 175.423,279 177,279  Z"/>

<path  fill="#FFB2D8" stroke-width="0" stroke="#FFB2D8" d = " M278 279 L279,279 C279,279 282,277 282,277 282,270.202 265.853,248.353 261,243.5 261,243.5 248,231 248,231 243.373,231 244,235.095 244,239 252.127,239 275,270.549 275,278 275,278 278,279 278,279  Z"/>

<path  fill="#FF9BCD" stroke-width="0" stroke="#FF9BCD" d = " M314 232 C315.643,232 315,235.765 315,237 313.357,237 314,233.235 314,232  Z"/>

<path  fill="#FF9BCD" stroke-width="0" stroke="#FF9BCD" d = " M142 237 C140.35,237 140.35,254 142,254 142,254 142,237 142,237  Z"/>

<path  fill="#FFB1D6" stroke-width="0" stroke="#FFB1D6" d = " M221 243 C221,244.585 225.965,244.571 225,246.5 222.247,252.006 211.566,273.467 206.5,276 202.007,278.246 196.934,278.783 192.5,281 187.69,283.405 181.539,278 181,278 181,270.821 204.658,239 213,239 215.364,239 216.053,242 218,242 218,242 221,243 221,243  Z"/>

<path  fill="#FFB1D6" stroke-width="0" stroke="#FFB1D6" d = " M233 244 L234,244 C234,244 236,243 236,243 236,243 237,243 237,243 237,243 238,242 238,242 238,242 240,241 240,241 240,241 244,239 244,239 252.127,239 275,270.549 275,278 275,285.167 253.7,278.1 251.5,277 247.251,274.875 233.689,251.878 231,246.5 231,246.5 233,244 233,244  Z"/>

<path  fill="#FF9BCD" stroke-width="0" stroke="#FF9BCD" d = " M238 242 L237,243 C237,243 238,242 238,242  Z"/>

<path  fill="#FF9BCD" stroke-width="0" stroke="#FF9BCD" d = " M214 300 C214,294.308 219.09,292.32 221,288.5 222.038,286.425 221.912,283.675 223,281.5 L225.5,259 C227.1,258.2 231.213,258.927 232,260.5 L233,279.5 C234.934,283.368 242,296.876 242,300 248.973,300 267.99,300.755 273.5,298 274.906,297.297 281,299.261 281,297 276.688,297 283.977,293.761 285.5,293 285.5,293 290.5,289 290.5,289 292.823,290.161 287,293.714 287,295 289.991,295 309,276.192 309,273 305.829,273 304,280.483 304,275 304,275 297,275 297,275 297,277.003 297.293,278 295,278 295,278 296,280 296,280 296.693,280 302,275.958 302,279.5 302,281.434 291,291.196 291,287 286.521,287 285,282.905 285,279 285,279 282,277 282,277 282,277 279,279 279,279 279,280.803 286.984,282.531 285,286.5 282.514,291.471 269.333,288.835 272,283.5 272,283.5 278,279 278,279 278,279 275,278 275,278 275,285.167 253.7,278.1 251.5,277 247.251,274.875 233.689,251.878 231,246.5 231,246.5 233,244 233,244 228.573,244 225.348,243 221,243 221,244.585 225.965,244.571 225,246.5 222.247,252.006 211.566,273.467 206.5,276 202.007,278.246 196.934,278.783 192.5,281 187.69,283.405 181.539,278 181,278 181,278 178,279 178,279 178,279.73 184.026,282.551 185,284.5 186.625,287.75 173.713,291.926 171,286.5 169.507,283.514 177,280.533 177,279 175.423,279 175,277.238 175,276 175,276 171,279 171,279 171,283.841 170.088,287 165,287 165,287 165,289 165,289 169.129,289 176,295.745 176,298 189.083,298 201.251,300 214,300  Z"/>

<path  fill="#FF9BCD" stroke-width="0" stroke="#FF9BCD" d = " M236 243 L234,244 C234,244 236,243 236,243  Z"/>

<path  fill="#FF9BCD" stroke-width="0" stroke="#FF9BCD" d = " M315 253 C313.527,253 314,254.952 314,256 315.473,256 315,254.048 315,253  Z"/>

<path  fill="#FF9BCD" stroke-width="0" stroke="#FF9BCD" d = " M142 257 L143,258 C143,258 142,257 142,257  Z"/>

<path  fill="#C9C7CC" stroke-width="0" stroke="#C9C7CC" d = " M214 300 C214,294.308 219.09,292.32 221,288.5 222.038,286.425 221.912,283.675 223,281.5 L225.5,259 C227.1,258.2 231.213,258.927 232,260.5 L233,279.5 C234.934,283.368 242,296.876 242,300 242,301.263 236.64,301.57 235.5,301 235.5,301 229,294 229,294 229,291.512 227,292.081 227,294 227,296.478 220.636,301 218.5,301 217.31,301 214,301.614 214,300  Z"/>

<path  fill="#FF9BCD" stroke-width="0" stroke="#FF9BCD" d = " M313 262 L312,263 C312,263 313,262 313,262  Z"/>

<path  fill="#FF9BCD" stroke-width="0" stroke="#FF9BCD" d = " M312 263 L311,265 C311,265 312,263 312,263  Z"/>

<path  fill="#FF9BCD" stroke-width="0" stroke="#FF9BCD" d = " M145 265 L146,266 C146,266 145,265 145,265  Z"/>

<path  fill="#FF9BCD" stroke-width="0" stroke="#FF9BCD" d = " M311 266 L310,267 C310,267 311,266 311,266  Z"/>

<path  fill="#FF9BCD" stroke-width="0" stroke="#FF9BCD" d = " M146 267 L147,268 C147,268 146,267 146,267  Z"/>

<path  fill="#FF9BCD" stroke-width="0" stroke="#FF9BCD" d = " M310 267 L309,269 C309,269 310,267 310,267  Z"/>

<path  fill="#FF9BCD" stroke-width="0" stroke="#FF9BCD" d = " M313 267 L312,269 C312,269 313,267 313,267  Z"/>

<path  fill="#FF9BCD" stroke-width="0" stroke="#FF9BCD" d = " M147 269 L149,271 C149,271 147,269 147,269  Z"/>

<path  fill="#FF9BCD" stroke-width="0" stroke="#FF9BCD" d = " M309 269 L308,271 C308,271 309,269 309,269  Z"/>

<path  fill="#FF9BCD" stroke-width="0" stroke="#FF9BCD" d = " M312 269 C310.423,269 310,270.762 310,272 311.577,272 312,270.238 312,269  Z"/>

<path  fill="#FF9BCD" stroke-width="0" stroke="#FF9BCD" d = " M149 272 L150,273 C150,273 149,272 149,272  Z"/>

<path  fill="#FF9BCD" stroke-width="0" stroke="#FF9BCD" d = " M310 272 L309,273 C309,273 310,272 310,272  Z"/>

<path  fill="#FF9BCD" stroke-width="0" stroke="#FF9BCD" d = " M306 273 L305,274 C305,274 306,273 306,273  Z"/>

<path  fill="#FF9BCD" stroke-width="0" stroke="#FF9BCD" d = " M151 274 L152,275 C152,275 151,274 151,274  Z"/>

<path  fill="#FF9BCD" stroke-width="0" stroke="#FF9BCD" d = " M305 274 L304,275 C304,275 305,274 305,274  Z"/>

<path  fill="#C9CACA" stroke-width="0" stroke="#C9CACA" d = " M165 287 L165,289 C161.041,289 158.314,282.407 155.5,281 155.5,281 155.5,278 155.5,278 155.5,278 161,281 161,281 161,283.33 165,284.227 165,287  Z"/>

<path  fill="#C8C8CB" stroke-width="0" stroke="#C8C8CB" d = " M161 281 C161,283.33 165,284.227 165,287 170.088,287 171,283.841 171,279 168.277,279 165.222,278 162,278 162,278 161,281 161,281  Z"/>

<path  fill="#C8C8CB" stroke-width="0" stroke="#C8C8CB" d = " M296 280 L291,287 C286.521,287 285,282.905 285,279 285,279 295,278 295,278 295,278 296,280 296,280  Z"/>

<path  fill="#C9CACA" stroke-width="0" stroke="#C9CACA" d = " M296 280 C296.693,280 302,275.958 302,279.5 302,281.434 291,291.196 291,287 291,287 296,280 296,280  Z"/>

<path  fill="#FCB3D7" stroke-width="0" stroke="#FCB3D7" d = " M177 279 L178,279 C178,279.73 184.026,282.551 185,284.5 186.625,287.75 173.713,291.926 171,286.5 169.507,283.514 177,280.533 177,279  Z"/>

<path  fill="#FCB3D7" stroke-width="0" stroke="#FCB3D7" d = " M278 279 L279,279 C279,280.803 286.984,282.531 285,286.5 282.514,291.471 269.333,288.835 272,283.5 272,283.5 278,279 278,279  Z"/>

<path  fill="#CBC7CC" stroke-width="0" stroke="#CBC7CC" d = " M173 297 L176,298 C176,295.745 169.129,289 165,289 165,293.296 173,293.7 173,297  Z"/>

<path  fill="#CBC7CC" stroke-width="0" stroke="#CBC7CC" d = " M281 297 L283,297 C283,297 284,296 284,296 284,296 285,296 285,296 285,296 286,295 286,295 286,295 287,295 287,295 287,293.714 292.823,290.161 290.5,289 290.5,289 285.5,293 285.5,293 283.977,293.761 276.688,297 281,297  Z"/>

<path  fill="#FF9BCD" stroke-width="0" stroke="#FF9BCD" d = " M227 294 L229,294 C229,291.512 227,292.081 227,294  Z"/>

<path  fill="#FF9BCD" stroke-width="0" stroke="#FF9BCD" d = " M286 295 L285,296 C285,296 286,295 286,295  Z"/>

<path  fill="#FF9BCD" stroke-width="0" stroke="#FF9BCD" d = " M284 296 L283,297 C283,297 284,296 284,296  Z"/>

</g>
</svg>
