<svg xmlns="http://www.w3.org/2000/svg" xmlns:xlink="http://www.w3.org/1999/xlink"  viewBox="0 0 456 320">
<g>
<rect width="456" height="320" fill="#000000"  stroke-width="0" /> 
<path  fill="#098589" stroke-width="0" stroke="#098589" d = " M82 59 L85,62 C86.7503,62 106.979,45.2605 111.5,43 131.125,33.1875 147.051,23 171,23 171,23 171,19 171,19 143.657,19 124.102,32.6989 101.5,44 98.6295,45.4353 82,57.2335 82,59  Z"/>

<path  fill="#0A8589" stroke-width="0" stroke="#0A8589" d = " M171 23 L175,23 C175,23 176,19 176,19 176,19 171,19 171,19 171,19 171,23 171,23  Z"/>

<path  fill="#1BA696" stroke-width="0" stroke="#1BA696" d = " M190 29 L191,29 C192.077,29 194,25.2382 194,24 194,22.1239 178.504,19 176,19 176,19 175,23 175,23 178.339,23 190,24.4383 190,29  Z"/>

<path  fill="#1BA696" stroke-width="0" stroke="#1BA696" d = " M262 24 C262,25.2473 264.467,29 266,29 266.315,29 275.355,23 281,23 281,23 281,19 281,19 275.351,19 263.871,24 262,24  Z"/>

<path  fill="#0A8589" stroke-width="0" stroke="#0A8589" d = " M281 23 L285,23 C285,23 285,19 285,19 285,19 281,19 281,19 281,19 281,23 281,23  Z"/>

<path  fill="#098589" stroke-width="0" stroke="#098589" d = " M374 59 L371,62 C367.862,62 355.018,48.7589 351.5,47 329.378,35.9392 311.984,23 285,23 285,23 285,19 285,19 307.157,19 326.141,27.8204 344.5,37 344.5,37 356.5,45 356.5,45 359.051,46.2755 374,57.0354 374,59  Z"/>

<path  fill="#0A828C" stroke-width="0" stroke="#0A828C" d = " M90 69 L91,69 C91,68.6302 108.351,57.0744 110.5,56 130.924,45.7881 147.279,30 172,30 172,30 173,30 173,30 173,30 171,23 171,23 147.051,23 131.125,33.1875 111.5,43 106.979,45.2605 86.7503,62 85,62 85,62 85,63 85,63 85,63 90,69 90,69  Z"/>

<path  fill="#08858B" stroke-width="0" stroke="#08858B" d = " M175 23 C175,24.7744 175.273,30 173,30 173,30 171,23 171,23 171,23 175,23 175,23  Z"/>

<path  fill="#1AA496" stroke-width="0" stroke="#1AA496" d = " M172 33 C175.127,33 181,31.6804 181,36 183.369,36 190,31.6302 190,29 190,24.4383 178.339,23 175,23 175,24.7744 175.273,30 173,30 173,30 173,31 173,31 173,31 172,33 172,33  Z"/>

<path  fill="#1AA496" stroke-width="0" stroke="#1AA496" d = " M285 33 C282.871,33 275,31.8373 275,35 273.086,35 266,31.827 266,30 266,30 266,29 266,29 266.315,29 275.355,23 281,23 281,23 283,30 283,30 283,30 284,31 284,31 284,31 285,33 285,33  Z"/>

<path  fill="#08858B" stroke-width="0" stroke="#08858B" d = " M283 30 L284,30 C284,30 285,23 285,23 285,23 281,23 281,23 281,23 283,30 283,30  Z"/>

<path  fill="#0A828C" stroke-width="0" stroke="#0A828C" d = " M371 63 L366,69 C366,69 345.5,55 345.5,55 325.531,45.0157 308.141,30 284,30 284,30 285,23 285,23 311.984,23 329.378,35.9392 351.5,47 355.018,48.7589 367.862,62 371,62 371,62 371,63 371,63  Z"/>

<path  fill="#1BA598" stroke-width="0" stroke="#1BA598" d = " M160 70 L161,71 C161,71 171,59.5 171,59.5 176.975,53.5254 198.458,39.5839 201,34.5 202.605,31.2908 197.135,24 194,24 194,25.2382 192.077,29 191,29 191,30.8418 192,33.2826 192,34.5 192,39.8113 171.326,53.8473 169,58.5 167.113,62.2748 160,65.6249 160,70  Z"/>

<path  fill="#1BA598" stroke-width="0" stroke="#1BA598" d = " M297 70 L295,71 C295,68.5692 289.718,65.9365 289,64.5 285.301,57.1028 264.312,40.4061 257.5,37 252.569,34.5346 257.874,24 262,24 262,25.2473 264.467,29 266,29 266,29 266,30 266,30 261.395,30 268.148,39.6482 269,40.5 269,40.5 291,62.5 291,62.5 291,62.5 297,70 297,70  Z"/>

<path  fill="#1BA697" stroke-width="0" stroke="#1BA697" d = " M158 70 L160,70 C160,65.6249 167.113,62.2748 169,58.5 171.326,53.8473 192,39.8113 192,34.5 192,33.2826 191,30.8418 191,29 191,29 190,29 190,29 190,31.6302 183.369,36 181,36 181,48.0522 158,61.8616 158,70  Z"/>

<path  fill="#0B848B" stroke-width="0" stroke="#0B848B" d = " M91 69 C91,70.2382 92.9232,74 94,74 96.9365,74 114.758,58.371 119.5,56 135.68,47.9101 150.563,34 170,34 170,34 171,33 171,33 171,33 172,33 172,33 172,33 173,31 173,31 173,31 172,30 172,30 147.279,30 130.924,45.7881 110.5,56 108.351,57.0744 91,68.6302 91,69  Z"/>

<path  fill="#09828B" stroke-width="0" stroke="#09828B" d = " M173 30 L173,31 C173,31 172,30 172,30 172,30 173,30 173,30  Z"/>

<path  fill="#1BA697" stroke-width="0" stroke="#1BA697" d = " M299 69 L297,70 C297,70 291,62.5 291,62.5 291,62.5 269,40.5 269,40.5 268.148,39.6482 261.395,30 266,30 266,31.827 273.086,35 275,35 275,35 275,36 275,36 275,42.5108 287.235,56.7354 292,61.5 292,61.5 299,69 299,69  Z"/>

<path  fill="#09828B" stroke-width="0" stroke="#09828B" d = " M284 30 L284,31 C284,31 283,30 283,30 283,30 284,30 284,30  Z"/>

<path  fill="#0B848B" stroke-width="0" stroke="#0B848B" d = " M362 74 L363,74 C363,74 366,70 366,70 366,70 366,69 366,69 366,69 345.5,55 345.5,55 325.531,45.0157 308.141,30 284,30 284,30 284,31 284,31 284,31 285,33 285,33 304.973,33 321.743,48.6216 338.5,57 343.216,59.3578 358.166,74 362,74  Z"/>

<path  fill="#088389" stroke-width="0" stroke="#088389" d = " M171 33 L170,34 C170,34 171,33 171,33  Z"/>

<path  fill="#1CA697" stroke-width="0" stroke="#1CA697" d = " M163 45 L165,45 C165,45 168.5,42 168.5,42 168.5,42 181,36 181,36 181,31.6804 175.127,33 172,33 172,33 171,33 171,33 171,33 170,34 170,34 170,38.556 161,41.1173 161,44 161,44 163,45 163,45  Z"/>

<path  fill="#1CA697" stroke-width="0" stroke="#1CA697" d = " M292 45 L293,45 C293,45 295,44 295,44 295,39.1754 285,37.8883 285,33 282.871,33 275,31.8373 275,35 275,35 275,36 275,36 279.799,36 288.376,45 292,45  Z"/>

<path  fill="#088389" stroke-width="0" stroke="#088389" d = " M362 74 C362,75.2796 358.245,82 357,82 353.167,82 344.77,71.1352 340.5,69 328.232,62.8659 309.548,44 296,44 296,44 295,44 295,44 295,39.1754 285,37.8883 285,33 304.973,33 321.743,48.6216 338.5,57 343.216,59.3578 358.166,74 362,74  Z"/>

<path  fill="#088389" stroke-width="0" stroke="#088389" d = " M94 75 L99,82 C103.774,82 109.257,73.1215 113.5,71 126.532,64.4842 144.296,45 159,45 159,45 160,44 160,44 160,44 161,44 161,44 161,41.1173 170,38.556 170,34 150.563,34 135.68,47.9101 119.5,56 114.758,58.371 96.9365,74 94,74 94,74 94,75 94,75  Z"/>

<path  fill="#1AA596" stroke-width="0" stroke="#1AA596" d = " M151 67 C151,67.7334 157.022,70 158,70 158,61.8616 181,48.0522 181,36 181,36 168.5,42 168.5,42 168.5,42 165,45 165,45 165,45 166,49.5 166,49.5 163.92,53.6597 157.168,67 151,67  Z"/>

<path  fill="#1AA596" stroke-width="0" stroke="#1AA596" d = " M305 67 C305,68.3529 300.357,69 299,69 299,69 292,61.5 292,61.5 287.235,56.7354 275,42.5108 275,36 279.799,36 288.376,45 292,45 292,46.6056 289.919,49.3385 291,51.5 292.614,54.7287 302.005,67 305,67  Z"/>

<path  fill="#FF7AFD" stroke-width="0" stroke="#FF7AFD" d = " M293 77 L295,78 C295,65.1072 268.115,47.8077 258.5,43 255.593,41.5465 248.35,39.0752 244.5,41 239.299,43.6005 235.006,46.4939 230.5,51 229.009,52.4907 230.608,57 228.5,57 228.5,57 225,49.5 225,49.5 225,49.5 212.5,41 212.5,41 206.949,38.2243 185,46.8324 185,51 189.82,51 196.244,45.128 200.5,43 207.702,39.3991 221.823,46.1469 225,52.5 226.457,55.4146 227,63.8257 227,67 228.048,67 230,67.4729 230,66 230,66 231,53.5 231,53.5 234.042,47.4166 247.627,39.0633 255.5,43 262.324,46.4118 268.836,52.1679 274.5,55 277.166,56.3328 281.87,60.2392 283,62.5 285.268,67.0352 293,70.5496 293,77  Z"/>

<path  fill="#FF78FF" stroke-width="0" stroke="#FF78FF" d = " M165 71 L163,77 C163,77 177.5,67 177.5,67 182.592,64.4538 186.099,61.7004 191.5,59 191.5,59 206.5,54 206.5,54 217.926,48.2872 223.499,67 227,67 227,63.8257 226.457,55.4146 225,52.5 221.823,46.1469 207.702,39.3991 200.5,43 196.244,45.128 189.82,51 185,51 185,52.7469 184.747,53 183,53 183,53 168,67 168,67 168,68.4289 166.712,71 165,71  Z"/>

<path  fill="#FF78FF" stroke-width="0" stroke="#FF78FF" d = " M230 66 C233.77,66 239.23,48.3649 250.5,54 253.569,55.5343 257.503,55.5016 260.5,57 267.302,60.4011 273.692,64.5962 280.5,68 L293,77 C293,70.5496 285.268,67.0352 283,62.5 281.87,60.2392 277.166,56.3328 274.5,55 268.836,52.1679 262.324,46.4118 255.5,43 247.627,39.0633 234.042,47.4166 231,53.5 231,53.5 230,66 230,66  Z"/>

<path  fill="#08858C" stroke-width="0" stroke="#08858C" d = " M160 44 L159,45 C159,45 160,44 160,44  Z"/>

<path  fill="#1CA597" stroke-width="0" stroke="#1CA597" d = " M141 67 L143,67 C143,58.9551 163,48.8759 163,45 163,45 161,44 161,44 161,44 160,44 160,44 160,44 159,45 159,45 159,49.9935 141,59.2742 141,67  Z"/>

<path  fill="#1CA597" stroke-width="0" stroke="#1CA597" d = " M314 67 L315,67 C315,58.8807 296,46.9882 296,44 296,44 295,44 295,44 295,44 293,45 293,45 293,47.4433 314,60.7135 314,67  Z"/>

<path  fill="#08858C" stroke-width="0" stroke="#08858C" d = " M357 83 C357,83.8348 354.33,89 353,89 353,89 325.5,70 325.5,70 324.673,69.1728 317,65.1222 317,68 317,68 315,67 315,67 315,58.8807 296,46.9882 296,44 309.548,44 328.232,62.8659 340.5,69 344.77,71.1352 353.167,82 357,82 357,82 357,83 357,83  Z"/>

<path  fill="#08858C" stroke-width="0" stroke="#08858C" d = " M103 89 L105,89 C105,86.8419 110.64,83 113,83 113,81.3826 117.583,79 119,79 119,76.7951 132.292,69.1038 134.5,68 135.274,67.6131 139,65.8135 139,68 139,68 141,67 141,67 141,59.2742 159,49.9935 159,45 144.296,45 126.532,64.4842 113.5,71 109.257,73.1215 103.774,82 99,82 99,82 99,83 99,83 99,83 103,89 103,89  Z"/>

<path  fill="#1AA697" stroke-width="0" stroke="#1AA697" d = " M145 67 L151,67 C157.168,67 163.92,53.6597 166,49.5 166,49.5 165,45 165,45 165,45 163,45 163,45 163,48.8759 143,58.9551 143,67 143,67 145,67 145,67  Z"/>

<path  fill="#1AA697" stroke-width="0" stroke="#1AA697" d = " M311 67 L314,67 C314,60.7135 293,47.4433 293,45 293,45 292,45 292,45 292,46.6056 289.919,49.3385 291,51.5 292.614,54.7287 302.005,67 305,67 305,67 311,67 311,67  Z"/>

<path  fill="#FF7AFD" stroke-width="0" stroke="#FF7AFD" d = " M185 51 C183.253,51 183,51.2531 183,53 184.747,53 185,52.7469 185,51  Z"/>

<path  fill="#FF7AFD" stroke-width="0" stroke="#FF7AFD" d = " M183 53 C179.358,53 168,63.0941 168,67 168,67 183,53 183,53  Z"/>

<path  fill="#FD7AFF" stroke-width="0" stroke="#FD7AFF" d = " M162 81 C166.419,81 170.508,74.4959 173.5,73 181.196,69.1519 203.616,55.0582 213.5,60 L225.5,71 L228.5,69 L231.5,71 C239.527,66.9864 241.548,54.5239 254.5,61 L258.5,61 C266.465,64.9823 274.464,68.9818 282.5,73 286.497,74.9985 290.314,81 295,81 295,81 295,78 295,78 295,78 293,77 293,77 293,77 280.5,68 280.5,68 273.692,64.5962 267.302,60.4011 260.5,57 257.503,55.5016 253.569,55.5343 250.5,54 239.23,48.3649 233.77,66 230,66 230,67.4729 228.048,67 227,67 223.499,67 217.926,48.2872 206.5,54 206.5,54 191.5,59 191.5,59 186.099,61.7004 182.592,64.4538 177.5,67 177.5,67 163,77 163,77 163,78.1859 162,78.1859 162,77 160.527,77 161,78.9521 161,80 161,80 162,81 162,81  Z"/>

<path  fill="#09848A" stroke-width="0" stroke="#09848A" d = " M66 76 L69,78 C71.2935,78 81.3039,63 85,63 85,63 85,62 85,62 85,62 82,59 82,59 80.914,59 66,75.194 66,76  Z"/>

<path  fill="#09848A" stroke-width="0" stroke="#09848A" d = " M387 79 L388,79 C388,79 390,76 390,76 390,72.3557 381.152,65.6518 378,62.5 378,62.5 374,59 374,59 374,59 371,62 371,62 371,62 371,63 371,63 373.273,63 387,74.9761 387,79  Z"/>

<path  fill="#FF90FF" stroke-width="0" stroke="#FF90FF" d = " M155 102 C155,94.3509 180.076,80.2122 186.5,77 193.184,73.658 205.182,64.3408 214.5,69 215.447,69.4734 224.894,80.8031 226.5,80 228.877,78.8115 229.894,80.303 232.5,79 L242.5,69 C254.078,63.2112 272.88,79.6899 281.5,84 287.181,86.8406 301,94.6077 301,102 304.378,102 303,93.8933 303,91 303,91 302,90 302,90 302,90 301,89 301,89 301,89 301,88 301,88 301,88 299,86 299,86 299,86 295,81 295,81 290.314,81 286.497,74.9985 282.5,73 274.464,68.9818 266.465,64.9823 258.5,61 258.5,61 254.5,61 254.5,61 241.548,54.5239 239.527,66.9864 231.5,71 231.5,71 228.5,69 228.5,69 228.5,69 225.5,71 225.5,71 225.5,71 213.5,60 213.5,60 203.616,55.0582 181.196,69.1519 173.5,73 170.508,74.4959 166.419,81 162,81 162,81 161,82 161,82 161,82 160,83 160,83 160,83 159,83 159,83 159,83 159,84 159,84 159,84 158,85 158,85 158,85 157,85 157,85 157,85 157,86 157,86 157,86 156,87 156,87 156,87 156,88 156,88 156,88 155,89 155,89 155,89 155,90 155,90 155,90 154,91 154,91 154,91 153,92 153,92 153,94.8057 151.663,102 155,102  Z"/>

<path  fill="#0A8489" stroke-width="0" stroke="#0A8489" d = " M69 79 L74,84 C74,84 90,69 90,69 90,69 85,63 85,63 81.3039,63 71.2935,78 69,78 69,78 69,79 69,79  Z"/>

<path  fill="#0A8489" stroke-width="0" stroke="#0A8489" d = " M387 79 L382,84 C379.402,84 370.394,70 366,70 366,70 366,69 366,69 366,69 371,63 371,63 373.273,63 387,74.9761 387,79  Z"/>

<path  fill="#08858A" stroke-width="0" stroke="#08858A" d = " M139 68 C131.717,68 125.942,79 119,79 119,76.7951 132.292,69.1038 134.5,68 135.274,67.6131 139,65.8135 139,68  Z"/>

<path  fill="#47C83C" stroke-width="0" stroke="#47C83C" d = " M115 109 C123.017,109 131.609,110 139,110 139,110 142,103.5 142,103.5 144.35,98.8004 155,85.2476 155,81 155,81 145,67 145,67 145,67 143,67 143,67 143,67 141,67 141,67 141,67 139,68 139,68 139,68 137,72 137,72 137,72 136,73 136,73 136,73 132,78 132,78 132,78 131,79 131,79 131,82.2666 115,103.368 115,109  Z"/>

<path  fill="#33B932" stroke-width="0" stroke="#33B932" d = " M161 71 C161,72.4802 156.029,81 155,81 155,81 145,67 145,67 145,67 151,67 151,67 151,67.7334 157.022,70 158,70 158,70 160,70 160,70 160,70 161,71 161,71  Z"/>

<path  fill="#FF7AFD" stroke-width="0" stroke="#FF7AFD" d = " M168 67 C166.288,67 165,69.5711 165,71 166.712,71 168,68.4289 168,67  Z"/>

<path  fill="#33B932" stroke-width="0" stroke="#33B932" d = " M295 71 C295,72.0216 300.166,80 301,80 301.948,80 311,67.8864 311,67 311,67 305,67 305,67 305,68.3529 300.357,69 299,69 299,69 297,70 297,70 297,70 295,71 295,71  Z"/>

<path  fill="#47C83C" stroke-width="0" stroke="#47C83C" d = " M342 109 C333.582,109 324.828,110 317,110 317,100.909 301,88.3812 301,80 301.948,80 311,67.8864 311,67 311,67 314,67 314,67 314,67 315,67 315,67 315,67 317,68 317,68 317,69.4289 318.288,72 320,72 320,72 323,77 323,77 323,77 329,84.5 329,84.5 331.339,89.1785 342,104.932 342,109  Z"/>

<path  fill="#08858A" stroke-width="0" stroke="#08858A" d = " M353 90 L353,91 C353,91 349,88 349,88 349,88 341.5,83 341.5,83 333.826,79.1632 325.973,68 317,68 317,65.1222 324.673,69.1728 325.5,70 325.5,70 353,89 353,89 353,89 353,90 353,90  Z"/>

<path  fill="#C9C9CA" stroke-width="0" stroke="#C9C9CA" d = " M108 88 L110,88 C110,88 116,85 116,85 116,83.6933 133.756,73 136,73 136,73 137,72 137,72 137,72 139,68 139,68 131.717,68 125.942,79 119,79 119,81.1775 114.664,83 113,83 113,85.8325 108,85.9532 108,88  Z"/>

<path  fill="#C9C9CA" stroke-width="0" stroke="#C9C9CA" d = " M349 88 L347,89 C347,89 340,84 340,84 340,84 320,72 320,72 318.288,72 317,69.4289 317,68 325.973,68 333.826,79.1632 341.5,83 341.5,83 349,88 349,88  Z"/>

<path  fill="#08828B" stroke-width="0" stroke="#08828B" d = " M76 88 L77,88 C77,86.8641 92.44,75 94,75 94,75 94,74 94,74 92.9232,74 91,70.2382 91,69 91,69 90,69 90,69 90,69 74,84 74,84 74,84 74,85 74,85 74,85 76,88 76,88  Z"/>

<path  fill="#FF90FE" stroke-width="0" stroke="#FF90FE" d = " M169 109 C169,103.343 186.672,93.4142 191.5,91 197.666,87.9172 202.378,82.0612 208.5,79 214.161,76.1697 225.311,85.5947 228.5,84 232.25,82.1252 242.653,76.5766 247.5,79 255.361,82.9306 261.556,90.028 269.5,94 274.855,96.6773 287,102.425 287,109 290.33,109 301,106.169 301,102 301,94.6077 287.181,86.8406 281.5,84 272.88,79.6899 254.078,63.2112 242.5,69 242.5,69 232.5,79 232.5,79 229.894,80.303 228.877,78.8115 226.5,80 224.894,80.8031 215.447,69.4734 214.5,69 205.182,64.3408 193.184,73.658 186.5,77 180.076,80.2122 155,94.3509 155,102 155,105.053 166.131,109 169,109  Z"/>

<path  fill="#08828B" stroke-width="0" stroke="#08828B" d = " M379 88 L380,88 C380,88 382,85 382,85 382,85 382,84 382,84 379.402,84 370.394,70 366,70 366,70 363,74 363,74 363,77.3872 379,83.6754 379,88  Z"/>

<path  fill="#FF7AFD" stroke-width="0" stroke="#FF7AFD" d = " M162 77 C162,78.1859 163,78.1859 163,77 163,77 165,71 165,71 162.686,71 162,75.2624 162,77  Z"/>

<path  fill="#C8C9CA" stroke-width="0" stroke="#C8C9CA" d = " M137 72 L136,73 C136,73 137,72 137,72  Z"/>

<path  fill="#C8C9CA" stroke-width="0" stroke="#C8C9CA" d = " M337 85 L338,85 C338,85 340,84 340,84 340,84 320,72 320,72 320,72 323,77 323,77 323,77 325.5,79 325.5,79 327.379,79.9393 336,82.3703 336,85 336,85 337,85 337,85  Z"/>

<path  fill="#C8C9CA" stroke-width="0" stroke="#C8C9CA" d = " M119 85 L121,85 C121,85 122,84 122,84 122,82.5939 129.52,79 131,79 131,79 132,78 132,78 132,78 136,73 136,73 133.756,73 116,83.6933 116,85 116,85 119,85 119,85  Z"/>

<path  fill="#0B858B" stroke-width="0" stroke="#0B858B" d = " M371 95 L374,95 C374,91.8465 379,90.6959 379,88 379,83.6754 363,77.3872 363,74 363,74 362,74 362,74 362,75.2796 358.245,82 357,82 357,82 357,83 357,83 359.29,83 371,92.2813 371,95  Z"/>

<path  fill="#0B858B" stroke-width="0" stroke="#0B858B" d = " M85 95 L86,95 C86,92.5943 96.8322,83 99,83 99,83 99,82 99,82 99,82 94,75 94,75 92.44,75 77,86.8641 77,88 77.7095,88 83,93.6969 83,95 83,95 85,95 85,95  Z"/>

<path  fill="#0C858C" stroke-width="0" stroke="#0C858C" d = " M57 87 L60,89 C60,89 69,79 69,79 69,79 69,78 69,78 69,78 66,76 66,76 66,76 57,87 57,87  Z"/>

<path  fill="#0C858C" stroke-width="0" stroke="#0C858C" d = " M399 87 L396,89 C396,89 388,79 388,79 388,79 390,76 390,76 392.035,76 399,85.7996 399,87  Z"/>

<path  fill="#7DCD4B" stroke-width="0" stroke="#7DCD4B" d = " M385 130 C385,145.185 387.342,162.815 381,175.5 379.976,177.548 378.644,185 375,185 375,179.714 378.724,173.051 381,168.5 383.681,163.139 381.422,141.345 379,136.5 376.135,130.77 372.437,125.968 366.5,123 365.221,122.361 358,122.742 358,124 358,124 355,124 355,124 355,120.089 349.181,113 345,113 345,113 342,109 342,109 342,104.932 331.339,89.1785 329,84.5 329,84.5 323,77 323,77 323,77 325.5,79 325.5,79 327.379,79.9393 336,82.3703 336,85 336,85 333.5,84 333.5,84 331.437,85.0314 334.536,88.5724 335,89.5 335,89.5 343,104.5 343,104.5 347.03,112.56 352.098,104.799 354.5,106 354.5,106 357,114.5 357,114.5 359.282,119.063 371,121.579 371,115 371,115 374,117 374,117 374,117 375,118 375,118 375,119.805 381.778,127 383,127 383,127 383,128 383,128 383,128 384,129 384,129 384,129 385,130 385,130  Z"/>

<path  fill="#7DCD4B" stroke-width="0" stroke="#7DCD4B" d = " M132 78 L131,79 C131,79 132,78 132,78  Z"/>

<path  fill="#0A858A" stroke-width="0" stroke="#0A858A" d = " M60 90 L65,94 C65,94 74,85 74,85 74,85 74,84 74,84 74,84 69,79 69,79 69,79 60,89 60,89 60,89 60,90 60,90  Z"/>

<path  fill="#08858A" stroke-width="0" stroke="#08858A" d = " M119 79 C117.583,79 113,81.3826 113,83 114.664,83 119,81.1775 119,79  Z"/>

<path  fill="#7DCD4B" stroke-width="0" stroke="#7DCD4B" d = " M82 185 L81,186 C81,186 73,172.5 73,172.5 68.6419,163.784 71,141.94 71,131 71,131 71,130 71,130 71,130 73,128 73,128 73,128 81,118 81,118 81,118 82,117 82,117 82,117 83,116 83,116 83,116 84,115 84,115 84,115 85,115 85,115 85,121.309 92.969,118.765 96.5,117 101.281,114.61 98.6699,107.915 102.5,106 102.5,106 107.5,109 107.5,109 111.709,106.895 115.045,102.41 117,98.5 118.851,94.7986 121.115,91.2706 123,87.5 123.472,86.5555 123.156,84 122,84 122,82.5939 129.52,79 131,79 131,82.2666 115,103.368 115,109 115,109 111,114 111,114 111,112.167 102,119.52 102,123 102,123 101,124 101,124 101,124 98,124 98,124 98,122.742 90.7786,122.361 89.5,123 83.07,126.215 80.03,131.44 77,137.5 73.2356,145.029 73.2841,166.068 77,173.5 77,173.5 82,185 82,185  Z"/>

<path  fill="#FF8FFF" stroke-width="0" stroke="#FF8FFF" d = " M277 120 L279,120 C279,117.138 287,113.332 287,109 287,102.425 274.855,96.6773 269.5,94 261.556,90.028 255.361,82.9306 247.5,79 242.653,76.5766 232.25,82.1252 228.5,84 225.311,85.5947 214.161,76.1697 208.5,79 202.378,82.0612 197.666,87.9172 191.5,91 186.672,93.4142 169,103.343 169,109 169,109 175,118.5 175,118.5 175,118.5 178,120 178,120 178,120 179,120 179,120 182.771,120 186.478,117 190,117 190,117 189,108.5 189,108.5 192.959,100.581 200.859,92.3203 209.5,88 209.5,88 225,89 225,89 245.415,89 256.132,85.7645 267,107.5 267,107.5 266,117 266,117 269.522,117 273.229,120 277,120  Z"/>

<path  fill="#0A858A" stroke-width="0" stroke="#0A858A" d = " M396 90 C394.093,90 393.618,94 391,94 391,94 382,85 382,85 382,85 382,84 382,84 382,84 387,79 387,79 387,79 388,79 388,79 388,79 396,89 396,89 396,89 396,90 396,90  Z"/>

<path  fill="#FF64FF" stroke-width="0" stroke="#FF64FF" d = " M161 81 L162,81 C162,81 161,80 161,80 161,80 161,81 161,81  Z"/>

<path  fill="#C7CBCB" stroke-width="0" stroke="#C7CBCB" d = " M160 82 L161,82 C161,82 161,81 161,81 161,81 160,82 160,82  Z"/>

<path  fill="#FD7AFF" stroke-width="0" stroke="#FD7AFF" d = " M162 81 L161,82 C161,82 161,81 161,81 161,81 162,81 162,81  Z"/>

<path  fill="#C7CBCB" stroke-width="0" stroke="#C7CBCB" d = " M302 90 L303,91 C303,88.1424 297.54,81 295,81 295,81 299,86 299,86 299,86 301,88 301,88 301,88 301,89 301,89 301,89 302,90 302,90  Z"/>

<path  fill="#C7CBCB" stroke-width="0" stroke="#C7CBCB" d = " M159 83 L160,83 C160,83 160,82 160,82 160,82 159,83 159,83  Z"/>

<path  fill="#FF64FF" stroke-width="0" stroke="#FF64FF" d = " M161 82 L160,83 C160,83 160,82 160,82 160,82 161,82 161,82  Z"/>

<path  fill="#08848C" stroke-width="0" stroke="#08848C" d = " M89 97 L94,98 C94,98 103,90 103,90 103,90 103,89 103,89 103,89 99,83 99,83 96.8322,83 86,92.5943 86,95 86,96.6925 89,94.0107 89,97  Z"/>

<path  fill="#08858A" stroke-width="0" stroke="#08858A" d = " M108 88 L105,89 C105,86.8419 110.64,83 113,83 113,85.8325 108,85.9532 108,88  Z"/>

<path  fill="#C7CBCB" stroke-width="0" stroke="#C7CBCB" d = " M158 84 L159,84 C159,84 159,83 159,83 159,83 158,84 158,84  Z"/>

<path  fill="#08848C" stroke-width="0" stroke="#08848C" d = " M362 98 L363,98 C363,96.4209 365.855,97 367,97 367,97 371,95 371,95 371,92.2813 359.29,83 357,83 357,83.8348 354.33,89 353,89 353,89 353,90 353,90 354.675,90 362,96.0618 362,98  Z"/>

<path  fill="#7DCD4B" stroke-width="0" stroke="#7DCD4B" d = " M122 84 L121,85 C121,85 122,84 122,84  Z"/>

<path  fill="#C9CCC9" stroke-width="0" stroke="#C9CCC9" d = " M86 113 L85,115 C85,121.309 92.969,118.765 96.5,117 101.281,114.61 98.6699,107.915 102.5,106 102.5,106 107.5,109 107.5,109 111.709,106.895 115.045,102.41 117,98.5 118.851,94.7986 121.115,91.2706 123,87.5 123.472,86.5555 123.156,84 122,84 122,84 121,85 121,85 121,85 119,85 119,85 119,86.1306 107.729,93 106,93 106,93 102,97 102,97 102,97 101,98 101,98 101,98 100,99 100,99 100,99 99,100 99,100 99,100 96,101 96,101 96,101 95,102 95,102 95,102 94,103 94,103 94,103 93,104 93,104 93,104 92,105 92,105 92,105 91,106 91,106 91,106 90,107 90,107 90,107 89,108 89,108 89,108 89,109 89,109 89,109 88,110 88,110 88,110 87,111 87,111 87,111 87,112 87,112 87,112 86,113 86,113  Z"/>

<path  fill="#C7CBCB" stroke-width="0" stroke="#C7CBCB" d = " M157 85 L158,85 C158,85 158,84 158,84 158,84 157,85 157,85  Z"/>

<path  fill="#FF64FF" stroke-width="0" stroke="#FF64FF" d = " M159 84 L158,85 C158,85 158,84 158,84 158,84 159,84 159,84  Z"/>

<path  fill="#C9CCC9" stroke-width="0" stroke="#C9CCC9" d = " M369 111 L371,115 C371,121.579 359.282,119.063 357,114.5 357,114.5 354.5,106 354.5,106 352.098,104.799 347.03,112.56 343,104.5 343,104.5 335,89.5 335,89.5 334.536,88.5724 331.437,85.0314 333.5,84 333.5,84 336,85 336,85 336,85 337,85 337,85 337,85 338,86 338,86 339.844,86 355,96.5034 355,98 355,98 356,99 356,99 356,99 358,100 358,100 358,100 359,101 359,101 359,101 367,108 367,108 367,108 368,109 368,109 368,109 369,110 369,110 369,110 369,111 369,111  Z"/>

<path  fill="#C8CBCC" stroke-width="0" stroke="#C8CBCC" d = " M359 101 L367,108 C367,108 352,93.5 352,93.5 352,93.5 347,89 347,89 347,89 340,84 340,84 340,84 338,85 338,85 338,85 338,86 338,86 339.844,86 355,96.5034 355,98 355,98 356,99 356,99 356,99 358,100 358,100 358,100 359,101 359,101  Z"/>

<path  fill="#08828C" stroke-width="0" stroke="#08828C" d = " M65 95 L68,96 C68,96 76,88 76,88 76,88 74,85 74,85 74,85 65,94 65,94 65,94 65,95 65,95  Z"/>

<path  fill="#C8CBCC" stroke-width="0" stroke="#C8CBCC" d = " M110 88 L106,93 C107.729,93 119,86.1306 119,85 119,85 116,85 116,85 116,85 110,88 110,88  Z"/>

<path  fill="#7DCD4B" stroke-width="0" stroke="#7DCD4B" d = " M338 85 L338,86 C338,86 337,85 337,85 337,85 338,85 338,85  Z"/>

<path  fill="#08828C" stroke-width="0" stroke="#08828C" d = " M388 97 L389,97 C389,97 391,95 391,95 391,95 391,94 391,94 391,94 382,85 382,85 382,85 380,88 380,88 380,90.2307 388,93.3106 388,97  Z"/>

<path  fill="#C7CBCB" stroke-width="0" stroke="#C7CBCB" d = " M157 86 L156,87 C156,87 157,86 157,86  Z"/>

<path  fill="#FF64FF" stroke-width="0" stroke="#FF64FF" d = " M299 86 L301,88 C301,88 299,86 299,86  Z"/>

<path  fill="#09818C" stroke-width="0" stroke="#09818C" d = " M39 127 L39,128 C40.6474,128 40.3381,120.824 41,119.5 44.2669,112.966 49.9763,98.2619 56.5,95 56.5,95 60,90 60,90 60,90 60,89 60,89 60,89 57,87 57,87 57,87 52,93.5 52,93.5 48.2438,101.012 37,109.3 37,118 38.1859,118 38.1859,119 37,119 37,120.695 39,124.293 39,127  Z"/>

<path  fill="#C7CBCB" stroke-width="0" stroke="#C7CBCB" d = " M155 88 L156,88 C156,88 156,87 156,87 156,87 155,88 155,88  Z"/>

<path  fill="#09818C" stroke-width="0" stroke="#09818C" d = " M417 127 L418,127 C418,122.544 419,121.254 419,118 419,109.186 408.347,101.194 405,94.5 404.248,92.9955 401.115,87 399,87 399,87 396,89 396,89 396,89 396,90 396,90 399.094,90 399.53,96.0148 401.5,97 406.023,99.2614 417,121.357 417,127  Z"/>

<path  fill="#0A848A" stroke-width="0" stroke="#0A848A" d = " M68 96 L68,97 C73.5985,97 77.9804,95 83,95 83,93.6969 77.7095,88 77,88 77,88 76,88 76,88 76,88 68,96 68,96  Z"/>

<path  fill="#CBC9C7" stroke-width="0" stroke="#CBC9C7" d = " M81 117 L82,117 C82,117 83,116 83,116 83,116 84,115 84,115 84,115 85,113 85,113 85,113 86,112 86,112 86,112 87,111 87,111 87,111 88,110 88,110 88,110 89,109 89,109 89,109 89,108 89,108 89,108 90,107 90,107 90,107 91,106 91,106 91,106 92,105 92,105 92,105 93,104 93,104 93,104 94,103 94,103 94,103 95,102 95,102 95,102 96,101 96,101 96,99.4226 97.7617,99 99,99 99,97.2531 99.2531,97 101,97 101,95.1887 104.438,93 106,93 106,93 110,88 110,88 110,88 108,88 108,88 108,88 105,89 105,89 105,90.7469 104.747,91 103,91 103,91 95,99 95,99 95,99 93,101 93,101 93,104.254 81,111.936 81,117  Z"/>

<path  fill="#C7CBCB" stroke-width="0" stroke="#C7CBCB" d = " M154 90 L155,90 C155,90 155,89 155,89 155,89 155,88 155,88 155,88 154,90 154,90  Z"/>

<path  fill="#FF64FF" stroke-width="0" stroke="#FF64FF" d = " M156 88 L155,89 C155,89 155,88 155,88 155,88 156,88 156,88  Z"/>

<path  fill="#FF8FFE" stroke-width="0" stroke="#FF8FFE" d = " M192 120 C192,105.858 199.925,95.7876 211.5,90 L228.5,91 L244.5,90 C256.417,95.9583 264,105.48 264,120 266.293,120 266,119.003 266,117 266,117 267,107.5 267,107.5 256.132,85.7645 245.415,89 225,89 225,89 209.5,88 209.5,88 200.859,92.3203 192.959,100.581 189,108.5 189,108.5 190,117 190,117 190,119.003 189.707,120 192,120  Z"/>

<path  fill="#CBC9C7" stroke-width="0" stroke="#CBC9C7" d = " M375 118 L377,118 C377,113.501 364,105.161 364,101 364,101 362,99 362,99 362,99 353,91 353,91 353,91 349,88 349,88 349,88 347,89 347,89 347,89 352,93.5 352,93.5 352,93.5 367,108 367,108 367,108 368,109 368,109 368,109 369,110 369,110 369,110 369,111 369,111 370.777,111 374,115.013 374,117 374,117 375,118 375,118  Z"/>

<path  fill="#0A848A" stroke-width="0" stroke="#0A848A" d = " M374 95 C378.215,95 382.022,97 388,97 388,93.3106 380,90.2307 380,88 380,88 379,88 379,88 379,90.6959 374,91.8465 374,95  Z"/>

<path  fill="#08858A" stroke-width="0" stroke="#08858A" d = " M103 90 L103,91 C104.747,91 105,90.7469 105,89 105,89 103,89 103,89 103,89 103,90 103,90  Z"/>

<path  fill="#FF64FF" stroke-width="0" stroke="#FF64FF" d = " M301 89 L302,90 C302,90 301,89 301,89  Z"/>

<path  fill="#0A8389" stroke-width="0" stroke="#0A8389" d = " M43 135 C46.4349,135 48.2495,140 51,140 51,140 51,127.5 51,127.5 52.4456,124.609 55,119.256 55,116 55,116 53,114.5 53,114.5 53,114.5 59,102.5 59,102.5 59,102.5 65,95 65,95 65,95 65,94 65,94 65,94 60,90 60,90 60,90 56.5,95 56.5,95 49.9763,98.2619 44.2669,112.966 41,119.5 40.3381,120.824 40.6474,128 39,128 39,128 39,130 39,130 40.4293,130 43,133.939 43,135  Z"/>

<path  fill="#09858C" stroke-width="0" stroke="#09858C" d = " M94 99 L95,99 C95,99 103,91 103,91 103,91 103,90 103,90 103,90 94,98 94,98 94,98 94,99 94,99  Z"/>

<path  fill="#C7CBCB" stroke-width="0" stroke="#C7CBCB" d = " M153 91 L154,91 C154,91 154,90 154,90 154,90 153,91 153,91  Z"/>

<path  fill="#FF64FF" stroke-width="0" stroke="#FF64FF" d = " M155 90 L154,91 C154,91 154,90 154,90 154,90 155,90 155,90  Z"/>

<path  fill-rule="evenodd" fill="#FC8FFF" stroke-width="0" stroke="#FC8FFF" d = " M238 140 C238,142.328 244.834,145.833 246.5,145 L246.5,141 L242.5,141 C240.782,140.141 240.113,140 238,140  M215 140 C215,142.426 206.839,139.178 209,143.5 211.059,147.618 222.284,140 215,140  M224 144 C219.29,144 216.148,149 211,149 200.938,149 193,135.918 193,127 193,127 192,120 192,120 192,105.858 199.925,95.7876 211.5,90 211.5,90 228.5,91 228.5,91 228.5,91 244.5,90 244.5,90 256.417,95.9583 264,105.48 264,120 264,120 264,127 264,127 264,127 263,128 263,128 263,136.391 255.405,149 246,149 240.217,149 236.827,143 232,143 232,143 231,131 231,131 231,129.149 231.867,124 229,124 229,124 233,118.5 233,118.5 234.586,115.329 228.014,105.472 223,115.5 221.257,118.985 227,121.092 227,124 227,125.564 226,127.876 226,130 226,134.405 224,139.098 224,144  Z"/>

<path  fill="#09858C" stroke-width="0" stroke="#09858C" d = " M362 98 L362,99 C362,99 353,91 353,91 353,91 353,90 353,90 354.675,90 362,96.0618 362,98  Z"/>

<path  fill="#0A8389" stroke-width="0" stroke="#0A8389" d = " M405 140 L406,140 C407.636,140 409.733,135 413,135 413,135 417,130 417,130 417,130 417,127 417,127 417,121.357 406.023,99.2614 401.5,97 399.53,96.0148 399.094,90 396,90 394.093,90 393.618,94 391,94 391,94 391,95 391,95 391.217,95 408.133,115 401,115 401,115 405,125.5 405,125.5 406.998,129.497 405,136.306 405,140  Z"/>

<path  fill="#FF64FF" stroke-width="0" stroke="#FF64FF" d = " M154 91 L153,92 C153,92 153,91 153,91 153,91 154,91 154,91  Z"/>

<path  fill="#FF64FF" stroke-width="0" stroke="#FF64FF" d = " M287 189 C287,191.281 298,190.385 298,193 298.665,193 300.46,185.579 301,184.5 302.148,182.204 312.254,169.623 313.5,169 313.5,169 317,170 317,170 317,164.553 318.653,156.195 321,151.5 321,151.5 320,133 320,133 320,133 317.5,134 317.5,134 317.5,134 317,129 317,129 317,124.85 316.741,118.983 315,115.5 314.271,114.043 300.926,99 308,99 308,99 303,91 303,91 303,93.8933 304.378,102 301,102 301,106.169 290.33,109 287,109 287,113.332 279,117.138 279,120 279,120 291.5,121 291.5,121 291.5,121 297,125 297,125 297,125 299,119.5 299,119.5 299,119.5 301,113.5 301,113.5 308.651,98.1977 320.023,127.738 313.5,131 309.146,133.177 304.174,131 300,131 300,134.823 301,139.586 301,144 306.61,144 311,142.829 311,151 312.829,151 313.185,145.158 315.5,144 316.82,143.34 318,147.634 318,148.5 318,156.107 311,164.44 311,153 311,153 307.5,157 307.5,157 305.874,157.813 299.109,159 297.5,159 297.5,159 293,157 293,157 293,158.712 290.429,160 289,160 289,160 298,168.5 298,168.5 302.392,177.284 296.411,189 287,189  Z"/>

<path  fill="#FF64FF" stroke-width="0" stroke="#FF64FF" d = " M178 120 L165.5,121 C163.833,121.834 160.211,126 159,126 159,122.353 154.243,106.129 148.5,109 148.5,109 141,120 141,120 141,115.157 153.888,99 149,99 149,97.699 151.496,92 153,92 153,94.8057 151.663,102 155,102 155,105.053 166.131,109 169,109 169,109 175,118.5 175,118.5 175,118.5 178,120 178,120  Z"/>

<path  fill="#C8CBCC" stroke-width="0" stroke="#C8CBCC" d = " M101 97 L102,97 C102,97 106,93 106,93 104.438,93 101,95.1887 101,97  Z"/>

<path  fill="#0A828A" stroke-width="0" stroke="#0A828A" d = " M68 97 C66.1094,97 56.6204,116 55,116 55,116 53,114.5 53,114.5 53,114.5 59,102.5 59,102.5 59,102.5 65,95 65,95 65,95 68,96 68,96 68,96 68,97 68,97  Z"/>

<path  fill="#0B838A" stroke-width="0" stroke="#0B838A" d = " M55 139 L51,140 C51,140 51,127.5 51,127.5 52.4456,124.609 55,119.256 55,116 56.6204,116 66.1094,97 68,97 73.5985,97 77.9804,95 83,95 83,95 85,95 85,95 85,95 75,107.5 75,107.5 71.666,114.168 59,130.122 59,137 59,137 56,138 56,138 56,138 55,139 55,139  Z"/>

<path  fill="#0C858B" stroke-width="0" stroke="#0C858B" d = " M59 137 L61,137 C61,137 70,131 70,131 70,131 71,130 71,130 71,130 73,126 73,126 73,126 74,124 74,124 74,124 75,123 75,123 75,123 76,121 76,121 76,121 77,120 77,120 77,118.013 89.7526,101 92,101 92,101 92,100 92,100 92,100 89,97 89,97 89,94.0107 86,96.6925 86,95 86,95 85,95 85,95 85,95 75,107.5 75,107.5 71.666,114.168 59,130.122 59,137  Z"/>

<path  fill="#0C858B" stroke-width="0" stroke="#0C858B" d = " M395 137 L397,137 C397,125.4 383.965,114.431 379,104.5 379,104.5 371,95 371,95 371,95 367,97 367,97 367,97 365,100 365,100 365,100 365,101 365,101 365,101 370.5,107 370.5,107 373.642,110.142 386,126.381 386,130 386,130 395,137 395,137  Z"/>

<path  fill="#0B838A" stroke-width="0" stroke="#0B838A" d = " M401 139 L405,140 C405,136.306 406.998,129.497 405,125.5 405,125.5 401,115 401,115 401,115 397.5,111 397.5,111 397.5,111 391,99.5 391,99.5 391,99.5 389,97 389,97 389,97 388,97 388,97 382.022,97 378.215,95 374,95 374,95 371,95 371,95 371,95 379,104.5 379,104.5 383.965,114.431 397,125.4 397,137 397,137 401,139 401,139  Z"/>

<path  fill="#0A828A" stroke-width="0" stroke="#0A828A" d = " M389 97 L391,99.5 L397.5,111 L401,115 C408.133,115 391.217,95 391,95 391,95 389,97 389,97  Z"/>

<path  fill="#08838C" stroke-width="0" stroke="#08838C" d = " M94 99 L92,100 C92,100 89,97 89,97 89,97 94,98 94,98 94,98 94,99 94,99  Z"/>

<path  fill="#C8CBCC" stroke-width="0" stroke="#C8CBCC" d = " M99 99 L100,99 C100,99 101,98 101,98 101,98 101,97 101,97 99.2531,97 99,97.2531 99,99  Z"/>

<path  fill="#7DCD4B" stroke-width="0" stroke="#7DCD4B" d = " M102 97 L101,98 C101,98 101,97 101,97 101,97 102,97 102,97  Z"/>

<path  fill="#08838C" stroke-width="0" stroke="#08838C" d = " M363 98 L365,100 C365,100 367,97 367,97 365.855,97 363,96.4209 363,98  Z"/>

<path  fill="#7DCD4B" stroke-width="0" stroke="#7DCD4B" d = " M355 98 L356,99 C356,99 355,98 355,98  Z"/>

<path  fill="#08848A" stroke-width="0" stroke="#08848A" d = " M364 101 L365,101 C365,101 365,100 365,100 365,100 363,98 363,98 363,98 362,98 362,98 362,98 362,99 362,99 362,99 364,101 364,101  Z"/>

<path  fill="#08848A" stroke-width="0" stroke="#08848A" d = " M92 101 L93,101 C93,101 95,99 95,99 95,99 94,99 94,99 94,99 92,100 92,100 92,100 92,101 92,101  Z"/>

<path  fill="#C8CBCC" stroke-width="0" stroke="#C8CBCC" d = " M99 100 L96,101 C96,99.4226 97.7617,99 99,99 99,99 99,100 99,100  Z"/>

<path  fill="#7DCD4B" stroke-width="0" stroke="#7DCD4B" d = " M100 99 L99,100 C99,100 99,99 99,99 99,99 100,99 100,99  Z"/>

<path  fill="#C9C8C8" stroke-width="0" stroke="#C9C8C8" d = " M141 121 C138.573,121 140.861,130.778 140,132.5 138.887,134.725 137.788,133 136,133 136,125.594 139,119.391 139,113 142.433,113 143.578,99 149,99 153.888,99 141,115.157 141,120 141,120 141,121 141,121  Z"/>

<path  fill="#C9C8C8" stroke-width="0" stroke="#C9C8C8" d = " M308 99 C314.185,99 318.63,122.759 321,127.5 L320,133 C320,133 317.5,134 317.5,134 317.5,134 317,129 317,129 317,124.85 316.741,118.983 315,115.5 314.271,114.043 300.926,99 308,99  Z"/>

<path  fill="#7DCD4B" stroke-width="0" stroke="#7DCD4B" d = " M358 100 L359,101 C359,101 358,100 358,100  Z"/>

<path  fill="#0C848C" stroke-width="0" stroke="#0C848C" d = " M80 118 L77,120 C77,118.013 89.7526,101 92,101 92,101 93,101 93,101 93,104.254 81,111.936 81,117 81,117 80,118 80,118  Z"/>

<path  fill="#C8CBCC" stroke-width="0" stroke="#C8CBCC" d = " M96 101 L95,102 C95,102 96,101 96,101  Z"/>

<path  fill="#0C848C" stroke-width="0" stroke="#0C848C" d = " M385 130 L386,130 C386,126.381 373.642,110.142 370.5,107 370.5,107 365,101 365,101 365,101 364,101 364,101 364,105.161 377,113.501 377,118 377,120.147 383,123.481 383,127 383,127 383,128 383,128 383,128 384,129 384,129 384,129 385,130 385,130  Z"/>

<path  fill="#C8CBCC" stroke-width="0" stroke="#C8CBCC" d = " M95 102 L94,103 C94,103 95,102 95,102  Z"/>

<path  fill="#C8CBCC" stroke-width="0" stroke="#C8CBCC" d = " M94 103 L93,104 C93,104 94,103 94,103  Z"/>

<path  fill="#C8CBCC" stroke-width="0" stroke="#C8CBCC" d = " M92 105 L91,106 C91,106 92,105 92,105  Z"/>

<path  fill="#C8CBCC" stroke-width="0" stroke="#C8CBCC" d = " M90 107 L89,108 C89,108 90,107 90,107  Z"/>

<path  fill="#C8CBCC" stroke-width="0" stroke="#C8CBCC" d = " M89 109 L88,110 C88,110 89,109 89,109  Z"/>

<path  fill="#59B847" stroke-width="0" stroke="#59B847" d = " M106 136 C106,138.18 124.365,153 127,153 127,146.683 135,129.337 135,124 135,121.767 136.546,113 139,113 139,113 139,110 139,110 131.609,110 123.017,109 115,109 115,109 111,114 111,114 111,116.483 109,118.026 109,120 109,120 108,121 108,121 108,121 108,124 108,124 108,124 106,136 106,136  Z"/>

<path  fill="#FE79FE" stroke-width="0" stroke="#FE79FE" d = " M157 131 L156,132 C145.295,132 141,133.4 141,121 141,121 141,120 141,120 141,120 148.5,109 148.5,109 154.243,106.129 159,122.353 159,126 159,127.622 159.461,131 157,131  Z"/>

<path  fill="#FE79FE" stroke-width="0" stroke="#FE79FE" d = " M297 125 C297,127.74 296.374,131 300,131 304.174,131 309.146,133.177 313.5,131 320.023,127.738 308.651,98.1977 301,113.5 301,113.5 299,119.5 299,119.5 299,119.5 297,125 297,125  Z"/>

<path  fill="#59B847" stroke-width="0" stroke="#59B847" d = " M351 136 C349.974,136 333.689,153 329,153 329,149.452 322.512,122.524 321,119.5 321,119.5 317,110 317,110 324.828,110 333.582,109 342,109 342,109 345,113 345,113 345,115.518 347,117.286 347,119 347,119 348,120 348,120 348,120 348,121 348,121 348,121 349,123 349,123 349,127.854 351,131.932 351,136  Z"/>

<path  fill="#C8CBCC" stroke-width="0" stroke="#C8CBCC" d = " M368 109 L369,110 C369,110 368,109 368,109  Z"/>

<path  fill="#C8CBCC" stroke-width="0" stroke="#C8CBCC" d = " M88 110 L87,111 C87,111 88,110 88,110  Z"/>

<path  fill="#A9A9A8" stroke-width="0" stroke="#A9A9A8" d = " M227 124 L229,124 C229,124 233,118.5 233,118.5 234.586,115.329 228.014,105.472 223,115.5 221.257,118.985 227,121.092 227,124  Z"/>

<path  fill="#C8CBCC" stroke-width="0" stroke="#C8CBCC" d = " M86 112 L87,112 C87,112 87,111 87,111 87,111 86,112 86,112  Z"/>

<path  fill="#C8CBCC" stroke-width="0" stroke="#C8CBCC" d = " M371 115 L374,117 C374,115.013 370.777,111 369,111 369,111 371,115 371,115  Z"/>

<path  fill="#C8CBCC" stroke-width="0" stroke="#C8CBCC" d = " M85 113 L86,113 C86,113 86,112 86,112 86,112 85,113 85,113  Z"/>

<path  fill="#7DCD4B" stroke-width="0" stroke="#7DCD4B" d = " M87 112 L86,113 C86,113 86,112 86,112 86,112 87,112 87,112  Z"/>

<path  fill="#C8CBCC" stroke-width="0" stroke="#C8CBCC" d = " M84 115 L85,115 C85,115 85,113 85,113 85,113 84,115 84,115  Z"/>

<path  fill="#7DCD4B" stroke-width="0" stroke="#7DCD4B" d = " M86 113 L85,115 C85,115 85,113 85,113 85,113 86,113 86,113  Z"/>

<path  fill="#32B623" stroke-width="0" stroke="#32B623" d = " M102 123 L107,123 C107,123 108,121 108,121 108,121 109,120 109,120 109,118.026 111,116.483 111,114 111,112.167 102,119.52 102,123  Z"/>

<path  fill="#32B623" stroke-width="0" stroke="#32B623" d = " M349 123 C351.124,123 353.436,124 355,124 355,120.089 349.181,113 345,113 345,115.518 347,117.286 347,119 347,119 348,120 348,120 348,120 348,121 348,121 348,121 349,123 349,123  Z"/>

<path  fill="#C8CBCC" stroke-width="0" stroke="#C8CBCC" d = " M84 115 L83,116 C83,116 84,115 84,115  Z"/>

<path  fill="#C8CBCC" stroke-width="0" stroke="#C8CBCC" d = " M83 116 L82,117 C82,117 83,116 83,116  Z"/>

<path  fill="#CBC9C7" stroke-width="0" stroke="#CBC9C7" d = " M80 118 L81,118 C81,118 81,117 81,117 81,117 80,118 80,118  Z"/>

<path  fill="#C8CBCC" stroke-width="0" stroke="#C8CBCC" d = " M82 117 L81,118 C81,118 81,117 81,117 81,117 82,117 82,117  Z"/>

<path  fill="#FF64FF" stroke-width="0" stroke="#FF64FF" d = " M192 120 L193,127 C193,127 187.5,123 187.5,123 186.258,122.379 179,121.233 179,120 182.771,120 186.478,117 190,117 190,119.003 189.707,120 192,120  Z"/>

<path  fill="#FF64FF" stroke-width="0" stroke="#FF64FF" d = " M277 120 C277,121.758 269.897,122.301 268.5,123 L264,127 C264,127 264,120 264,120 266.293,120 266,119.003 266,117 269.522,117 273.229,120 277,120  Z"/>

<path  fill="#15B0B3" stroke-width="0" stroke="#15B0B3" d = " M37 118 C38.1859,118 38.1859,119 37,119 37,119 37,118 37,118  Z"/>

<path  fill="#C8CBCC" stroke-width="0" stroke="#C8CBCC" d = " M73 126 L73,128 C73,128 81,118 81,118 81,118 80,118 80,118 80,118 77,120 77,120 77,120 76,121 76,121 76,121 75,123 75,123 75,123 74,124 74,124 74,124 73,126 73,126  Z"/>

<path  fill="#C8CBCC" stroke-width="0" stroke="#C8CBCC" d = " M377 118 C377,120.147 383,123.481 383,127 381.778,127 375,119.805 375,118 375,118 377,118 377,118  Z"/>

<path  fill="#15B0B3" stroke-width="0" stroke="#15B0B3" d = " M418 127 L422,128 C422,126.126 420.739,118 419,118 419,121.254 418,122.544 418,127  Z"/>

<path  fill="#15B0B3" stroke-width="0" stroke="#15B0B3" d = " M39 127 L34,128 C34,126.407 35.5915,119 37,119 37,120.695 39,124.293 39,127  Z"/>

<path  fill="#7DCD4B" stroke-width="0" stroke="#7DCD4B" d = " M347 119 L348,120 C348,120 347,119 347,119  Z"/>

<path  fill="#0C848C" stroke-width="0" stroke="#0C848C" d = " M77 120 L76,121 C76,121 77,120 77,120  Z"/>

<path  fill="#7DCD4B" stroke-width="0" stroke="#7DCD4B" d = " M109 120 L108,121 C108,121 109,120 109,120  Z"/>

<path  fill="#FF8FFD" stroke-width="0" stroke="#FF8FFD" d = " M184 186 C188.04,186 196.204,182.852 200.5,185 L205,187 C205,187 208,175 208,175 208,175 204.5,178 204.5,178 191.051,171.275 201.885,170 210,170 210.106,170 215,163.827 215,169 217.618,169 216.651,166 219,166 219,166 220,159 220,159 220,159 218,156 218,156 218,156 217,156 217,156 217,163.351 205.448,152 214,152 214,152 211,149 211,149 200.938,149 193,135.918 193,127 193,127 187.5,123 187.5,123 186.258,122.379 179,121.233 179,120 179,120 178,120 178,120 178,120 165.5,121 165.5,121 163.833,121.834 160.211,126 159,126 159,127.622 159.461,131 157,131 157,131 156,132 156,132 156,135.312 155,140.038 155,144 159.641,144 163,153.648 163,157 163,157 167,160 167,160 170.265,160 173.814,155.157 177.5,157 181.461,158.98 198.711,172.078 196,177.5 194.393,180.715 184,183.914 184,186  Z"/>

<path  fill="#FF8FFD" stroke-width="0" stroke="#FF8FFD" d = " M252 187 C255.95,187 263.471,182.485 268.5,185 L273,187 C273,183.749 262.089,180.678 260,176.5 258.168,172.836 274.89,158.805 278.5,157 282.132,155.184 285.899,160 289,160 290.429,160 293,158.712 293,157 293,151.477 301,145.217 301,144 301,139.586 300,134.823 300,131 296.374,131 297,127.74 297,125 297,125 291.5,121 291.5,121 291.5,121 279,120 279,120 279,120 277,120 277,120 277,121.758 269.897,122.301 268.5,123 268.5,123 264,127 264,127 264,127 263,128 263,128 263,136.391 255.405,149 246,149 246,149 243,152 243,152 245.849,152 245.536,156.982 243.5,158 243.5,158 239,157 239,157 237.762,157 236,157.423 236,159 236,162.477 237.644,169 242,169 242,165.162 246,168.055 246,170 254.739,170 265,171.25 251.5,178 251.5,178 248,175 248,175 248,178.974 251,182.572 251,187 251,187 252,187 252,187  Z"/>

<path  fill="#0C848C" stroke-width="0" stroke="#0C848C" d = " M76 121 L75,123 C75,123 76,121 76,121  Z"/>

<path  fill="#7DCD4B" stroke-width="0" stroke="#7DCD4B" d = " M107 123 L108,124 C108,124 108,121 108,121 108,121 107,123 107,123  Z"/>

<path  fill="#FF64FF" stroke-width="0" stroke="#FF64FF" d = " M169 189 C169,189.635 159.051,193 158,193 158,189.482 146.506,170.503 143.5,169 141.384,167.942 140.602,171 139,171 139,165.24 138.351,161.202 136,156.5 136,156.5 136,133 136,133 137.788,133 138.887,134.725 140,132.5 140.861,130.778 138.573,121 141,121 141,133.4 145.295,132 156,132 156,135.312 155,140.038 155,144 150.354,144 145,142.463 145,150 143.021,150 143.246,142.627 140.5,144 134.429,147.035 141.065,164.371 145,156.5 145,156.5 145,151 145,151 145.251,151 147.794,156.147 149.5,157 154.401,159.45 158.846,157 163,157 163,157 167,160 167,160 167,160 159,167.5 159,167.5 154.951,175.597 158.302,189 169,189  Z"/>

<path  fill="#7DCD4B" stroke-width="0" stroke="#7DCD4B" d = " M348 121 L349,123 C349,123 348,121 348,121  Z"/>

<path  fill="#0C848C" stroke-width="0" stroke="#0C848C" d = " M75 123 L74,124 C74,124 75,123 75,123  Z"/>

<path  fill="#C7C8CC" stroke-width="0" stroke="#C7C8CC" d = " M83 184 L82,185 C82,185 77,173.5 77,173.5 73.2841,166.068 73.2356,145.029 77,137.5 80.03,131.44 83.07,126.215 89.5,123 90.7786,122.361 98,122.742 98,124 81.5226,124 77,145.135 77,158.5 77,158.5 77,166.5 77,166.5 78.5609,169.622 83,180.87 83,184  Z"/>

<path  fill="#32B623" stroke-width="0" stroke="#32B623" d = " M102 123 L101,124 C101,124 102,123 102,123  Z"/>

<path  fill="#4FC244" stroke-width="0" stroke="#4FC244" d = " M100 191 L101,191 C101,191 103,187.5 103,187.5 103.598,186.303 104,152.396 104,149 104,147.286 104.852,136 106,136 106,136 108,124 108,124 108,124 107,123 107,123 107,123 102,123 102,123 102,123 101,124 101,124 101,124 98,124 98,124 81.5226,124 77,145.135 77,158.5 77,158.5 77,166.5 77,166.5 78.5609,169.622 83,180.87 83,184 87.299,184 93.7536,191 100,191  Z"/>

<path  fill="#4FC244" stroke-width="0" stroke="#4FC244" d = " M355 191 L357,191 C359.454,191 373,185.316 373,184 373,184 379,168.5 379,168.5 379,168.5 379,163.5 379,163.5 385.355,150.79 372.443,124 358,124 358,124 355,124 355,124 353.436,124 351.124,123 349,123 349,127.854 351,131.932 351,136 351,138.894 353.339,170.178 354,171.5 355.121,173.742 351.325,181.15 353,184.5 353,184.5 355,191 355,191  Z"/>

<path  fill="#C7C8CC" stroke-width="0" stroke="#C7C8CC" d = " M373 184 L375,185 C375,179.714 378.724,173.051 381,168.5 383.681,163.139 381.422,141.345 379,136.5 376.135,130.77 372.437,125.968 366.5,123 365.221,122.361 358,122.742 358,124 372.443,124 385.355,150.79 379,163.5 379,163.5 379,168.5 379,168.5 379,168.5 373,184 373,184  Z"/>

<path  fill="#0C848C" stroke-width="0" stroke="#0C848C" d = " M74 124 L73,126 C73,126 74,124 74,124  Z"/>

<path  fill="#FF64FF" stroke-width="0" stroke="#FF64FF" d = " M226 130 C228.413,130 229.51,131 231,131 231,129.149 231.867,124 229,124 229,124 227,124 227,124 227,125.564 226,127.876 226,130  Z"/>

<path  fill="#0C848C" stroke-width="0" stroke="#0C848C" d = " M73 128 L71,130 C71,130 73,126 73,126 73,126 73,128 73,128  Z"/>

<path  fill="#0D9F90" stroke-width="0" stroke="#0D9F90" d = " M40 137 C38.9388,137 35,139.571 35,141 31.5736,141 34,129.767 34,128 34,128 39,127 39,127 39,127 39,128 39,128 39,128 39,130 39,130 39,132.124 40,134.436 40,136 40,136 40,137 40,137  Z"/>

<path  fill="#FF64FF" stroke-width="0" stroke="#FF64FF" d = " M264 127 L263,128 C263,128 264,127 264,127  Z"/>

<path  fill="#0D9F90" stroke-width="0" stroke="#0D9F90" d = " M417 137 C418.634,137 421,139.634 421,141 423.911,141 423.692,128 422,128 422,128 418,127 418,127 418,127 417,127 417,127 417,127 417,130 417,130 417,130 417,137 417,137  Z"/>

<path  fill="#C8CBCC" stroke-width="0" stroke="#C8CBCC" d = " M383 128 L384,129 C384,129 383,128 383,128  Z"/>

<path  fill="#FDA6FF" stroke-width="0" stroke="#FDA6FF" d = " M232 143 L230,158.5 C229.656,159.188 227.996,162.491 227,160.5 L225,148.5 C225,147.31 225.614,144 224,144 224,139.098 226,134.405 226,130 228.413,130 229.51,131 231,131 231,131 232,143 232,143  Z"/>

<path  fill="#0D9F91" stroke-width="0" stroke="#0D9F91" d = " M43 135 L40,136 C40,134.436 39,132.124 39,130 40.4293,130 43,133.939 43,135  Z"/>

<path  fill="#0C848C" stroke-width="0" stroke="#0C848C" d = " M70 131 L71,131 C71,131 71,130 71,130 71,130 70,131 70,131  Z"/>

<path  fill="#32B824" stroke-width="0" stroke="#32B824" d = " M375 185 C375,194.604 373,202.183 373,212 373.17,212 384.286,198.929 385,197.5 388.262,190.975 391.81,184.881 395,178.5 398.083,172.334 395,144.953 395,137 395,137 386,130 386,130 386,130 385,130 385,130 385,145.185 387.342,162.815 381,175.5 379.976,177.548 378.644,185 375,185  Z"/>

<path  fill="#0D9F91" stroke-width="0" stroke="#0D9F91" d = " M416 137 L417,137 C417,137 417,130 417,130 417,130 413,135 413,135 414.238,135 416,135.423 416,137  Z"/>

<path  fill="#32B824" stroke-width="0" stroke="#32B824" d = " M81 186 C81,194.786 83,202.753 83,211 80.7861,211 74.0948,201.69 73,199.5 69.67,192.84 65.2601,187.02 62,180.5 58.0108,172.522 61,147.055 61,137 61,137 70,131 70,131 70,131 71,131 71,131 71,141.94 68.6419,163.784 73,172.5 73,172.5 81,186 81,186  Z"/>

<path  fill="#FF64FF" stroke-width="0" stroke="#FF64FF" d = " M157 131 L156,132 C156,132 157,131 157,131  Z"/>

<path  fill="#0E9583" stroke-width="0" stroke="#0E9583" d = " M50 141 L42,145 C42,145 40,137 40,137 40,137 40,136 40,136 40,136 43,135 43,135 46.4349,135 48.2495,140 51,140 51,140 50,141 50,141  Z"/>

<path  fill="#0E9583" stroke-width="0" stroke="#0E9583" d = " M406 141 L414,145 C415.434,145 416,138.552 416,137 416,135.423 414.238,135 413,135 409.733,135 407.636,140 406,140 406,140 406,141 406,141  Z"/>

<path  fill="#72D568" stroke-width="0" stroke="#72D568" d = " M113 212 L115,214 C118,214 117.884,200.733 119,198.5 121.265,193.97 127,159.059 127,153 124.365,153 106,138.18 106,136 104.852,136 104,147.286 104,149 104,152.396 103.598,186.303 103,187.5 103,187.5 101,191 101,191 101.548,191 107,203.59 107,205 107,205 110,210 110,210 110,210 113,212 113,212  Z"/>

<path  fill="#72D568" stroke-width="0" stroke="#72D568" d = " M343 212 L341,214 C341,214 337,201.5 337,201.5 334.502,196.504 337.481,188.463 335,183.5 332.899,179.298 329,158.101 329,153 333.689,153 349.974,136 351,136 351,138.894 353.339,170.178 354,171.5 355.121,173.742 351.325,181.15 353,184.5 353,184.5 355,191 355,191 355,191 350,205 350,205 350,205 347,209 347,209 347,209 343,212 343,212  Z"/>

<path  fill="#0E9584" stroke-width="0" stroke="#0E9584" d = " M42 146 L37,151 C37,147.058 35,144.255 35,141 35,139.571 38.9388,137 40,137 40,137 42,145 42,145 42,145 42,146 42,146  Z"/>

<path  fill="#31B824" stroke-width="0" stroke="#31B824" d = " M83 212 L81,222 C77.7595,222 66.467,208.434 65,205.5 61.205,197.91 56.733,190.966 53,183.5 50.1989,177.898 55,148.126 55,139 55,139 56,138 56,138 56,138 59,137 59,137 59,137 61,137 61,137 61,147.055 58.0108,172.522 62,180.5 65.2601,187.02 69.67,192.84 73,199.5 74.0948,201.69 80.7861,211 83,211 83,211 83,212 83,212  Z"/>

<path  fill="#31B824" stroke-width="0" stroke="#31B824" d = " M373 212 C373,212.877 375.665,221 376,221 380.598,221 386.992,212.515 389,208.5 391.059,204.382 394.974,201.552 397,197.5 397,197.5 404,180.5 404,180.5 406.307,175.886 401,146.294 401,139 401,139 397,137 397,137 397,137 395,137 395,137 395,144.953 398.083,172.334 395,178.5 391.81,184.881 388.262,190.975 385,197.5 384.286,198.929 373.17,212 373,212  Z"/>

<path  fill="#0E9584" stroke-width="0" stroke="#0E9584" d = " M414 146 C416.741,146 416.75,150 419,150 419,146.32 421,144.489 421,141 421,139.634 418.634,137 417,137 417,137 416,137 416,137 416,138.552 415.434,145 414,145 414,145 414,146 414,146  Z"/>

<path  fill="#32B725" stroke-width="0" stroke="#32B725" d = " M56 138 L55,139 C55,139 56,138 56,138  Z"/>

<path  fill="#32B725" stroke-width="0" stroke="#32B725" d = " M81 222 L79,229 C76.1556,229 60.5737,214.647 59,211.5 55.5205,204.541 50.7956,196.091 47,188.5 42.1621,178.824 50,151.787 50,141 50,141 51,140 51,140 51,140 55,139 55,139 55,148.126 50.1989,177.898 53,183.5 56.733,190.966 61.205,197.91 65,205.5 66.467,208.434 77.7595,222 81,222  Z"/>

<path  fill="#32B725" stroke-width="0" stroke="#32B725" d = " M376 222 L377,229 C379.924,229 394.47,216.56 396,213.5 399.212,207.077 403.837,201.825 407,195.5 409.408,190.683 408.594,184.312 411,179.5 413.15,175.2 406,147.43 406,141 406,141 406,140 406,140 406,140 405,140 405,140 405,140 401,139 401,139 401,146.294 406.307,175.886 404,180.5 404,180.5 397,197.5 397,197.5 394.974,201.552 391.059,204.382 389,208.5 386.992,212.515 380.598,221 376,221 376,221 376,222 376,222  Z"/>

<path  fill="#FD90FC" stroke-width="0" stroke="#FD90FC" d = " M215 140 C215,142.426 206.839,139.178 209,143.5 211.059,147.618 222.284,140 215,140  Z"/>

<path  fill="#FD90FC" stroke-width="0" stroke="#FD90FC" d = " M238 140 C238,142.328 244.834,145.833 246.5,145 L246.5,141 L242.5,141 C240.782,140.141 240.113,140 238,140  Z"/>

<path  fill="#32B825" stroke-width="0" stroke="#32B825" d = " M79 229 L77,235 C73.0374,235 71.7184,232.609 68.5,231 48.5227,221.011 48.6886,208.877 40,191.5 38.7128,188.926 34.5147,175.471 36,172.5 37.9536,168.593 42,150.641 42,146 42,146 42,145 42,145 42,145 50,141 50,141 50,151.787 42.1621,178.824 47,188.5 50.7956,196.091 55.5205,204.541 59,211.5 60.5737,214.647 76.1556,229 79,229  Z"/>

<path  fill="#32B825" stroke-width="0" stroke="#32B825" d = " M379 235 L380,236 C380,236 390.5,230 390.5,230 397.542,226.479 405.178,219.145 409,211.5 412.303,204.895 423.985,177.47 420,169.5 417.08,163.66 414,152.701 414,146 414,146 414,145 414,145 414,145 406,141 406,141 406,147.43 413.15,175.2 411,179.5 408.594,184.312 409.408,190.683 407,195.5 403.837,201.825 399.212,207.077 396,213.5 394.47,216.56 379.924,229 377,229 377,230.974 379,232.517 379,235  Z"/>

<path  fill="#FF7AFE" stroke-width="0" stroke="#FF7AFE" d = " M145 151 C145.251,151 147.794,156.147 149.5,157 154.401,159.45 158.846,157 163,157 163,153.648 159.641,144 155,144 150.354,144 145,142.463 145,150 145,150 145,151 145,151  Z"/>

<path  fill-rule="evenodd" fill="#FF64FF" stroke-width="0" stroke="#FF64FF" d = " M225 171 C225,174.72 218.167,176.834 221,182.5 222.771,186.041 223.673,183.587 226.5,185 236.266,189.883 240.702,171 225,171  M235 166 L237,170.5 L238.5,179 L239,175 C239,171.823 239.033,166 235,166  M245 189 L243,190 C243,179.098 235,180.546 235,189 232.078,189 229.532,193 228.5,193 226.451,193 224.609,189 222,189 220.851,189 220.492,184.484 220,183.5 217.585,178.671 213,184.761 213,189 213,189 211,189 211,189 211,185.23 213,181.979 213,179 214.473,179 214,177.048 214,176 214,176 214,175 214,175 214,175 215,173 215,173 215,173 215,169 215,169 217.618,169 216.651,166 219,166 219,169.626 214.947,174.394 217,178.5 218.404,181.308 221,167.003 221,166 226.859,166 225.132,156.816 221.5,155 220.555,154.528 218,154.844 218,156 218,156 217,156 217,156 217,153.957 216.409,152 214,152 214,152 211,149 211,149 216.148,149 219.29,144 224,144 225.614,144 225,147.31 225,148.5 225,148.5 227,160.5 227,160.5 227.996,162.491 229.656,159.188 230,158.5 230,158.5 232,143 232,143 236.827,143 240.217,149 246,149 246,149 243,152 243,152 241.571,152 239,153.288 239,155 234.392,155 227.268,161.884 233.5,165 236.122,166.311 233.899,159 236,159 236,162.477 237.644,169 242,169 242,169 242,175 242,175 242,176.048 241.527,178 243,178 243,180.95 245,185.018 245,189  Z"/>

<path  fill="#FF7AFE" stroke-width="0" stroke="#FF7AFE" d = " M311 153 L307.5,157 C305.874,157.813 299.109,159 297.5,159 L293,157 C293,151.477 301,145.217 301,144 306.61,144 311,142.829 311,151 311,151 311,153 311,153  Z"/>

<path  fill="#FF79FD" stroke-width="0" stroke="#FF79FD" d = " M145 150 C143.021,150 143.246,142.627 140.5,144 134.429,147.035 141.065,164.371 145,156.5 L145,151 C145,151 145,150 145,150  Z"/>

<path  fill="#FF79FD" stroke-width="0" stroke="#FF79FD" d = " M311 151 C312.829,151 313.185,145.158 315.5,144 316.82,143.34 318,147.634 318,148.5 318,156.107 311,164.44 311,153 311,153 311,151 311,151  Z"/>

<path  fill="#32B722" stroke-width="0" stroke="#32B722" d = " M77 235 L76,239 C76,239 65.5,233 65.5,233 46.4443,223.472 41.4324,206.365 33,189.5 31.5542,186.608 32.4904,182.481 31,179.5 27.2935,172.087 37,157.792 37,151 37,151 42,146 42,146 42,150.641 37.9536,168.593 36,172.5 34.5147,175.471 38.7128,188.926 40,191.5 48.6886,208.877 48.5227,221.011 68.5,231 71.7184,232.609 73.0374,235 77,235  Z"/>

<path  fill="#32B722" stroke-width="0" stroke="#32B722" d = " M380 236 L380,239 C383.252,239 387.595,234.453 390.5,233 409.187,223.657 414.45,207.601 423,190.5 424.18,188.14 423.779,184.942 425,182.5 429.865,172.769 419,157.931 419,150 416.75,150 416.741,146 414,146 414,152.701 417.08,163.66 420,169.5 423.985,177.47 412.303,204.895 409,211.5 405.178,219.145 397.542,226.479 390.5,230 390.5,230 380,236 380,236  Z"/>

<path  fill="#FE8DFE" stroke-width="0" stroke="#FE8DFE" d = " M214 152 C216.409,152 217,153.957 217,156 217,163.351 205.448,152 214,152  Z"/>

<path  fill="#FE8DFE" stroke-width="0" stroke="#FE8DFE" d = " M239 155 L239,157 C239,157 243.5,158 243.5,158 245.536,156.982 245.849,152 243,152 241.571,152 239,153.288 239,155  Z"/>

<path  fill="#CBCBCC" stroke-width="0" stroke="#CBCBCC" d = " M221 165 L221,166 C226.859,166 225.132,156.816 221.5,155 220.555,154.528 218,154.844 218,156 218,156 220,159 220,159 221.684,159 221,163.679 221,165  Z"/>

<path  fill="#CBCBCC" stroke-width="0" stroke="#CBCBCC" d = " M239 157 C237.762,157 236,157.423 236,159 233.899,159 236.122,166.311 233.5,165 227.268,161.884 234.392,155 239,155 239,155 239,157 239,157  Z"/>

<path  fill="#FFA5FD" stroke-width="0" stroke="#FFA5FD" d = " M169 189 L175,189 C178.303,189 180.115,187 183,187 183,187 184,186 184,186 184,183.914 194.393,180.715 196,177.5 198.711,172.078 181.461,158.98 177.5,157 173.814,155.157 170.265,160 167,160 167,160 159,167.5 159,167.5 154.951,175.597 158.302,189 169,189  Z"/>

<path  fill="#FFA5FD" stroke-width="0" stroke="#FFA5FD" d = " M281 189 L287,189 C296.411,189 302.392,177.284 298,168.5 298,168.5 289,160 289,160 285.899,160 282.132,155.184 278.5,157 274.89,158.805 258.168,172.836 260,176.5 262.089,180.678 273,183.749 273,187 273,187 275,187 275,187 275,187 276,188 276,188 276,188 281,189 281,189  Z"/>

<path  fill="#FF64FF" stroke-width="0" stroke="#FF64FF" d = " M221 165 L219,166 C219,166 220,159 220,159 221.684,159 221,163.679 221,165  Z"/>

<path  fill="#C8C8C8" stroke-width="0" stroke="#C8C8C8" d = " M219 166 C219,169.626 214.947,174.394 217,178.5 218.404,181.308 221,167.003 221,166 221,166 221,165 221,165 221,165 219,166 219,166  Z"/>

<path  fill="#C8C8C8" stroke-width="0" stroke="#C8C8C8" d = " M235 166 L237,170.5 L238.5,179 L239,175 C239,171.823 239.033,166 235,166  Z"/>

<path  fill="#C8C8CC" stroke-width="0" stroke="#C8C8CC" d = " M211 207 L210,208 C207.697,208 208,205.049 208,203.5 208,197.775 205,192.182 205,187 205,187 208,175 208,175 209.014,175 210,171.041 210,170 210.106,170 215,163.827 215,169 215,169 215,173 215,173 215,173 214,175 214,175 214,175 214,176 214,176 212.527,176 213,177.952 213,179 213,181.979 211,185.23 211,189 211,189 212,191 212,191 212,191 211,207 211,207  Z"/>

<path  fill="#C8C8CC" stroke-width="0" stroke="#C8C8CC" d = " M245 207 L246,208 C246,208 249,206.5 249,206.5 249,206.5 249,193.5 249,193.5 250.042,191.416 251,190.592 251,188 251,188 251,187 251,187 251,182.572 248,178.974 248,175 248,175 246,170 246,170 246,168.055 242,165.162 242,169 242,169 242,175 242,175 243.473,175 243,176.952 243,178 243,180.95 245,185.018 245,189 245,189 245,195 245,195 245,195 245,207 245,207  Z"/>

<path  fill="#C9C9CB" stroke-width="0" stroke="#C9C9CB" d = " M148 214 L151,221 C151,221 149,217.5 149,217.5 147.04,213.579 139,210.568 139,206 139,206 137,204 137,204 137,200.176 133.955,192.591 136,188.5 138.516,183.467 139,177.069 139,171 140.602,171 141.384,167.942 143.5,169 146.506,170.503 158,189.482 158,193 158,193 159,203 159,203 156.936,203 158.574,199.647 158,198.5 155.798,194.096 154.864,185.682 149.5,183 141.176,178.838 138.076,196.651 141,202.5 142.495,205.489 148,211.399 148,214  Z"/>

<path  fill="#C9C9CB" stroke-width="0" stroke="#C9C9CB" d = " M307 216 L307,218 C307,218 318,206 318,206 318,206 319,204 319,204 319,200.543 322.928,195.357 321,191.5 318.272,186.044 317,176.345 317,170 317,170 313.5,169 313.5,169 312.254,169.623 302.148,182.204 301,184.5 300.46,185.579 298.665,193 298,193 298,193 298,200 298,200 300.064,200 298.426,196.647 299,195.5 299,195.5 306.5,183 306.5,183 317.47,177.515 316.912,199.675 314,205.5 314,205.5 309,213 309,213 309,213 308,214 308,214 308,214 307,215 307,215 307,215 307,216 307,216  Z"/>

<path  fill="#CBC9CB" stroke-width="0" stroke="#CBC9CB" d = " M210 170 C201.885,170 191.051,171.275 204.5,178 L208,175 C209.014,175 210,171.041 210,170  Z"/>

<path  fill="#CBC9CB" stroke-width="0" stroke="#CBC9CB" d = " M246 170 C254.739,170 265,171.25 251.5,178 L248,175 C248,175 246,170 246,170  Z"/>

<path  fill="#CCC7CC" stroke-width="0" stroke="#CCC7CC" d = " M225 171 C225,174.72 218.167,176.834 221,182.5 222.771,186.041 223.673,183.587 226.5,185 236.266,189.883 240.702,171 225,171  Z"/>

<path  fill="#CBC9CB" stroke-width="0" stroke="#CBC9CB" d = " M215 173 L214,175 C214,175 215,173 215,173  Z"/>

<path  fill="#CBC9CB" stroke-width="0" stroke="#CBC9CB" d = " M242 175 C243.473,175 243,176.952 243,178 241.527,178 242,176.048 242,175  Z"/>

<path  fill="#CBC9CB" stroke-width="0" stroke="#CBC9CB" d = " M214 176 C212.527,176 213,177.952 213,179 214.473,179 214,177.048 214,176  Z"/>

<path  fill="#FFAC6F" stroke-width="0" stroke="#FFAC6F" d = " M171 262 L170,263 C162.956,263 161,255.293 161,249 161,249 161,240 161,240 161,235.719 152.227,214 148,214 148,211.399 142.495,205.489 141,202.5 138.076,196.651 141.176,178.838 149.5,183 154.864,185.682 155.798,194.096 158,198.5 158.574,199.647 156.936,203 159,203 159,203 159,204 159,204 159,221.529 172,232.3 172,249 172,249 172,253 172,253 172,253 172,258 172,258 172,258 171,259 171,259 171,259 171,262 171,262  Z"/>

<path  fill="#FD90FE" stroke-width="0" stroke="#FD90FE" d = " M222 189 C222,199.086 214.921,190 213,190 213,190 213,189 213,189 213,184.761 217.585,178.671 220,183.5 220.492,184.484 220.851,189 222,189  Z"/>

<path  fill="#FD90FE" stroke-width="0" stroke="#FD90FE" d = " M243 190 L243,191 C239.368,191 235,198.134 235,189 235,180.546 243,179.098 243,190  Z"/>

<path  fill="#FFAC6F" stroke-width="0" stroke="#FFAC6F" d = " M285 256 C285,258.409 286,261.181 286,263 293.725,263 295,255.75 295,249 295,249 295,243 295,243 295,241.765 294.357,238 296,238 296,234.365 303.173,216 307,216 307,216 307,215 307,215 307,215 308,214 308,214 308,214 309,213 309,213 309,213 314,205.5 314,205.5 316.912,199.675 317.47,177.515 306.5,183 306.5,183 299,195.5 299,195.5 298.426,196.647 300.064,200 298,200 298,201.321 298.684,206 297,206 297,222.539 285,231.882 285,248 285,248 285,256 285,256  Z"/>

<path  fill="#32B623" stroke-width="0" stroke="#32B623" d = " M83 211 L83,212 C85.8601,212 89.8744,215.813 93.5,214 100.187,210.657 100,197.928 100,191 93.7536,191 87.299,184 83,184 83,184 82,185 82,185 82,185 81,186 81,186 81,194.786 83,202.753 83,211  Z"/>

<path  fill="#32B623" stroke-width="0" stroke="#32B623" d = " M357 191 C357,200.005 355.43,209.965 363.5,214 366.825,215.662 370.353,212 373,212 373,202.183 375,194.604 375,185 375,185 373,184 373,184 373,185.316 359.454,191 357,191  Z"/>

<path  fill="#FFC295" stroke-width="0" stroke="#FFC295" d = " M178 247 L186.5,256 C190.239,257.87 189.944,255 193,255 193,245.417 202.3,228 213,228 213,228 214,221 214,221 214,221 214,220 214,220 214,220 213,219 213,219 213,219 212,212 212,212 212,212 210,208 210,208 207.697,208 208,205.049 208,203.5 208,197.775 205,192.182 205,187 205,187 200.5,185 200.5,185 196.204,182.852 188.04,186 184,186 184,186 183,187 183,187 180.115,187 178.303,189 175,189 175,189 164,194.5 164,194.5 164,194.5 165,198 165,198 176.312,198 168,211.294 168,215 168,219.569 169,223.923 169,228 169,228 169,229 169,229 169,229 171,232 171,232 171,232 171,233 171,233 171,233 172,234 172,234 172,238.296 178,242.177 178,247  Z"/>

<path  fill="#FFC295" stroke-width="0" stroke="#FFC295" d = " M263 255 C264.602,255 265.384,258.058 267.5,257 L272,255 C272,255 273,254 273,254 273,254 274,253 274,253 274,253 275,252 275,252 275,252 276,250 276,250 276,250 279,246 279,246 279,241.538 284,238.767 284,235 284,235 285,234 285,234 285,234 285,233 285,233 285,233 286,232 286,232 286,232 286,231 286,231 286,231 287,230 287,230 287,230 287,229 287,229 287,229 288,227 288,227 288,227 289,215 289,215 286.754,215 282.252,198 291,198 291,198 293,195.5 293,195.5 293,191.334 281,191.482 281,189 281,189 276,188 276,188 276,188 275,187 275,187 275,187 273,187 273,187 273,187 268.5,185 268.5,185 263.471,182.485 255.95,187 252,187 252,187 251,188 251,188 251,190.592 250.042,191.416 249,193.5 249,193.5 249,206.5 249,206.5 249,206.5 246,208 246,208 246,208 245,209 245,209 245,209 245,212 245,212 245,212 244,213 244,213 244,213 243,221 243,221 243,223.409 244,226.181 244,228 248.079,228 258.949,237.398 261,241.5 262.954,245.409 263,250.253 263,255  Z"/>

<path  fill="#FF8FFD" stroke-width="0" stroke="#FF8FFD" d = " M184 186 L183,187 C183,187 184,186 184,186  Z"/>

<path  fill="#FF64FF" stroke-width="0" stroke="#FF64FF" d = " M252 187 L251,188 C251,188 251,187 251,187 251,187 252,187 252,187  Z"/>

<path  fill="#FF64FF" stroke-width="0" stroke="#FF64FF" d = " M275 187 L276,188 C276,188 275,187 275,187  Z"/>

<path  fill="#FF9B88" stroke-width="0" stroke="#FF9B88" d = " M168 215 C168,219.569 169,223.923 169,228 167.927,228 162.067,213.634 161,211.5 160.348,210.197 160.781,204 159,204 159,204 159,203 159,203 159,203 158,193 158,193 159.051,193 169,189.635 169,189 169,189 175,189 175,189 175,189 164,194.5 164,194.5 164,194.5 165,198 165,198 159.393,198 162.097,215 168,215  Z"/>

<path  fill="#FF9B88" stroke-width="0" stroke="#FF9B88" d = " M213 190 L212,191 C212,191 211,189 211,189 211,189 213,189 213,189 213,189 213,190 213,190  Z"/>

<path  fill="#FFC393" stroke-width="0" stroke="#FFC393" d = " M231 230 C229.07,230 229.512,219 228.5,219 226.912,219 226,229.791 226,231 224.188,231 221.18,228 219,228 219,228 215,223.5 215,223.5 214.541,222.581 215.765,221 214,221 214,221 214,220 214,220 214,220 213,219 213,219 213,219 212,212 212,212 212,212 211,207 211,207 211,207 212,191 212,191 212,191 213,190 213,190 214.921,190 222,199.086 222,189 224.609,189 226.451,193 228.5,193 229.532,193 232.078,189 235,189 235,198.134 239.368,191 243,191 243,191 245,195 245,195 245,195 245,207 245,207 245,207 245,209 245,209 245,209 245,212 245,212 245,212 244,213 244,213 244,213 243,221 243,221 241.903,221 238,226.986 238,228 238,228 231,230 231,230  Z"/>

<path  fill="#FF9B88" stroke-width="0" stroke="#FF9B88" d = " M243 191 L245,195 C245,195 245,189 245,189 245,189 243,190 243,190 243,190 243,191 243,191  Z"/>

<path  fill="#FF9B88" stroke-width="0" stroke="#FF9B88" d = " M289 215 L288,227 C290.218,227 293.935,214.631 295,212.5 295.65,211.2 295.007,206 297,206 297,204.679 296.316,200 298,200 298,200 298,193 298,193 298,190.385 287,191.281 287,189 287,189 281,189 281,189 281,191.482 293,191.334 293,195.5 293,195.5 291,198 291,198 298.633,198 293.222,215 289,215  Z"/>

<path  fill="#30B724" stroke-width="0" stroke="#30B724" d = " M83 212 L81,222 C86.1183,222 91.0268,225.737 96.5,223 101.628,220.436 105.158,205 107,205 107,203.59 101.548,191 101,191 101,191 100,191 100,191 100,197.928 100.187,210.657 93.5,214 89.8744,215.813 85.8601,212 83,212  Z"/>

<path  fill="#30B724" stroke-width="0" stroke="#30B724" d = " M376 221 L376,222 C368.135,222 365.154,224.827 357.5,221 354.481,219.49 351.126,205 350,205 350,205 355,191 355,191 355,191 357,191 357,191 357,200.005 355.43,209.965 363.5,214 366.825,215.662 370.353,212 373,212 373,212.877 375.665,221 376,221  Z"/>

<path  fill="#C8C8CB" stroke-width="0" stroke="#C8C8CB" d = " M165 198 C176.312,198 168,211.294 168,215 162.097,215 159.393,198 165,198  Z"/>

<path  fill="#C8C8CB" stroke-width="0" stroke="#C8C8CB" d = " M291 198 C298.633,198 293.222,215 289,215 286.754,215 282.252,198 291,198  Z"/>

<path  fill="#C9C9CB" stroke-width="0" stroke="#C9C9CB" d = " M298 200 C296.316,200 297,204.679 297,206 298.684,206 298,201.321 298,200  Z"/>

<path  fill="#F0F080" stroke-width="0" stroke="#F0F080" d = " M139 206 L134,208 C134,205.939 134.902,204 137,204 137,204 139,206 139,206  Z"/>

<path  fill="#C9C9CB" stroke-width="0" stroke="#C9C9CB" d = " M172 249 L177,249 C177,249 178,247 178,247 178,242.177 172,238.296 172,234 172,234 171,233 171,233 171,233 171,232 171,232 169.423,232 169,230.238 169,229 169,229 169,228 169,228 167.927,228 162.067,213.634 161,211.5 160.348,210.197 160.781,204 159,204 159,221.529 172,232.3 172,249  Z"/>

<path  fill="#F0F080" stroke-width="0" stroke="#F0F080" d = " M318 206 L324,210 C324,207.888 321.263,204 319,204 319,204 318,206 318,206  Z"/>

<path  fill="#31B723" stroke-width="0" stroke="#31B723" d = " M81 222 L79,229 C79,229 83.5,231 83.5,231 90.8469,234.673 97.428,229.536 102.5,227 104.968,225.766 108.597,210 110,210 110,210 107,205 107,205 105.158,205 101.628,220.436 96.5,223 91.0268,225.737 86.1183,222 81,222  Z"/>

<path  fill="#31B723" stroke-width="0" stroke="#31B723" d = " M376 222 L377,229 C373.197,229 366.883,234.191 362.5,232 354.359,227.929 347,218.651 347,209 347,209 350,205 350,205 351.126,205 354.481,219.49 357.5,221 365.154,224.827 368.135,222 376,222  Z"/>

<path  fill="#CCCCCA" stroke-width="0" stroke="#CCCCCA" d = " M157 256 C157,258.787 158.212,257 155,257 155,256.683 140.57,239.07 138,236.5 138,236.5 132,231 132,231 132,226.575 131,221.039 131,216 131,216 131,215 131,215 132.473,215 132,213.048 132,212 132,212 132,211 132,211 132,211 133,210 133,210 133,210 133,209 133,209 133,209 134,208 134,208 134,208 139,206 139,206 139,210.568 147.04,213.579 149,217.5 149,217.5 151,221 151,221 151,221 151,222 151,222 151,222 148.5,219 148.5,219 146.531,219 147.632,221.764 148,222.5 148,222.5 154,233.5 154,233.5 155.687,236.874 151.354,248 157,248 157,248 157,256 157,256  Z"/>

<path  fill="#C9C9CB" stroke-width="0" stroke="#C9C9CB" d = " M279 246 C279,251.196 282.139,248 285,248 285,231.882 297,222.539 297,206 295.007,206 295.65,211.2 295,212.5 293.935,214.631 290.218,227 288,227 288,227 287,229 287,229 287,229 287,230 287,230 287,230 286,231 286,231 286,231 286,232 286,232 286,232 285,233 285,233 285,233 285,234 285,234 285,234 284,235 284,235 284,238.767 279,241.538 279,246  Z"/>

<path  fill="#CCCCCA" stroke-width="0" stroke="#CCCCCA" d = " M302 256 L299,257 C299,257 299,247 299,247 300.344,247 300.883,248.735 302,246.5 302,246.5 302,235.5 302,235.5 304.183,231.134 306.765,226.97 309,222.5 310.515,219.469 308.045,220 307,220 307,220 307,219 307,219 307,219 307,218 307,218 307,218 318,206 318,206 318,206 324,210 324,210 324,210 324,211 324,211 324,211 325,213 325,213 325,213 325,214 325,214 325,219.587 324,226.081 324,231 324,232.64 302,254.409 302,256  Z"/>

<path  fill="#FF9B88" stroke-width="0" stroke="#FF9B88" d = " M210 208 L212,212 C212,212 211,207 211,207 211,207 210,208 210,208  Z"/>

<path  fill="#FF9B88" stroke-width="0" stroke="#FF9B88" d = " M246 208 L245,209 C245,209 245,207 245,207 245,207 246,208 246,208  Z"/>

<path  fill="#F0F080" stroke-width="0" stroke="#F0F080" d = " M134 208 L133,209 C133,209 134,208 134,208  Z"/>

<path  fill="#30B824" stroke-width="0" stroke="#30B824" d = " M377 229 C377,230.974 379,232.517 379,235 379,235 374.5,237 374.5,237 368.658,239.921 359.482,237.491 354.5,235 348.55,232.025 347.461,222.423 345,217.5 344.341,216.181 345.334,212 343,212 343,212 347,209 347,209 347,218.651 354.359,227.929 362.5,232 366.883,234.191 373.197,229 377,229  Z"/>

<path  fill="#30B824" stroke-width="0" stroke="#30B824" d = " M79 229 L77,235 C81.8822,235 89.8463,240.827 95.5,238 104.319,233.591 106.869,227.762 111,219.5 111,219.5 111,215.5 111,215.5 111,215.5 113,212 113,212 113,212 110,210 110,210 108.597,210 104.968,225.766 102.5,227 97.428,229.536 90.8469,234.673 83.5,231 83.5,231 79,229 79,229  Z"/>

<path  fill="#F0F080" stroke-width="0" stroke="#F0F080" d = " M133 210 L132,211 C132,211 133,210 133,210  Z"/>

<path  fill="#F0F080" stroke-width="0" stroke="#F0F080" d = " M324 211 L325,213 C325,213 324,211 324,211  Z"/>

<path  fill="#31B625" stroke-width="0" stroke="#31B625" d = " M77 235 L76,239 C81.6618,239 89.717,246.391 96.5,243 107.294,237.603 115,226.762 115,214 115,214 113,212 113,212 113,212 111,215.5 111,215.5 111,215.5 111,219.5 111,219.5 106.869,227.762 104.319,233.591 95.5,238 89.8463,240.827 81.8822,235 77,235  Z"/>

<path  fill="#F0F080" stroke-width="0" stroke="#F0F080" d = " M132 212 C130.527,212 131,213.952 131,215 132.473,215 132,213.048 132,212  Z"/>

<path  fill="#FF9B88" stroke-width="0" stroke="#FF9B88" d = " M245 212 L244,213 C244,213 245,212 245,212  Z"/>

<path  fill="#31B625" stroke-width="0" stroke="#31B625" d = " M380 236 L380,239 C374.485,239 366.236,246.368 359.5,243 349.273,237.887 341,225.623 341,214 341,214 343,212 343,212 345.334,212 344.341,216.181 345,217.5 347.461,222.423 348.55,232.025 354.5,235 359.482,237.491 368.658,239.921 374.5,237 374.5,237 379,235 379,235 379,235 380,236 380,236  Z"/>

<path  fill="#FF9B88" stroke-width="0" stroke="#FF9B88" d = " M309 213 L308,214 C308,214 309,213 309,213  Z"/>

<path  fill-rule="evenodd" fill="#FF9B88" stroke-width="0" stroke="#FF9B88" d = " M159 237 C159,240.746 161.091,237 159,237  M158 245 L160,247 C160,245.594 159.286,240 161,240 161,235.719 152.227,214 148,214 148,214 151,221 151,221 151,221 151,222 151,222 151,222 151,223 151,223 151,223 153,227 153,227 153,227 153,228 153,228 153,228 154,229 154,229 154,229 154,230 154,230 154,230 155,231 155,231 155,231 158,245 158,245  Z"/>

<path  fill="#FF9B88" stroke-width="0" stroke="#FF9B88" d = " M308 214 L307,215 C307,215 308,214 308,214  Z"/>

<path  fill="#F0F080" stroke-width="0" stroke="#F0F080" d = " M333 230 C329.778,230 326.723,231 324,231 324,226.081 325,219.587 325,214 326.993,214 326.35,219.2 327,220.5 327.966,222.432 333,229.031 333,230  Z"/>

<path  fill="#F0F080" stroke-width="0" stroke="#F0F080" d = " M124 230 L132,231 C132,226.575 131,221.039 131,216 129.007,216 129.65,221.2 129,222.5 129,222.5 124,230 124,230  Z"/>

<path  fill-rule="evenodd" fill="#FF9B88" stroke-width="0" stroke="#FF9B88" d = " M298 258 C298,259.93 299.93,258 298,258  M239 282 L260,283 L267,284.5 L265,286 C276.713,286 282.914,279.793 292.5,275 292.5,275 301.5,266 301.5,266 301.5,266 312,261 312,261 308.585,261 302,260.208 302,256 302,256 299,257 299,257 295.797,257 295.797,245 299,245 299,240.01 301,236.449 301,232 301,232 302,231 302,231 302,231 302,230 302,230 302,230 303,229 303,229 303,229 303,227 303,227 303,227 304,226 304,226 304,226 304,225 304,225 304,225 304,224 304,224 304,224 305,223 305,223 305,223 305,222 305,222 305,222 306,221 306,221 306,221 306,220 306,220 306,220 307,219 307,219 307,219 307,218 307,218 307,218 307,216 307,216 303.173,216 296,234.365 296,238 298.112,238 296,243.567 296,238 294.357,238 295,241.765 295,243 296.587,243 296.587,249 295,249 295,255.75 293.725,263 286,263 286,265.014 288.284,268.932 287,271.5 282.844,279.812 272.959,286.418 267,274.5 263.288,267.076 272,259.361 272,255 272,255 267.5,257 267.5,257 265.384,258.058 264.602,255 263,255 263,260.068 261.445,263 256,263 256,264.947 259.428,266.644 258,269.5 255.741,274.019 248.106,276.711 245,270.5 243.264,267.027 247,263.448 247,262 247,262 230.5,260 230.5,260 226.657,258.078 231,234.135 231,230 229.07,230 229.512,219 228.5,219 226.912,219 226,229.791 226,231 226,231 227,258.5 227,258.5 225.507,261.486 213.065,262 210,262 210,262 212,267.5 212,267.5 208.267,274.965 201.966,276.432 198,268.5 198,268.5 200,263 200,263 194.785,263 193,259.916 193,255 189.944,255 190.239,257.87 186.5,256 186.5,256 178,247 178,247 178,247 177,249 177,249 179.554,249 182.032,252.564 183,254.5 184.558,257.616 192.665,265.171 190,270.5 190,270.5 187,278.5 187,278.5 182.923,286.654 172.394,277.289 170,272.5 168.181,268.861 170,266.519 170,263 162.956,263 161,255.293 161,249 161,249 160,248 160,248 156.57,248 161.986,256 157,256 157,258.787 158.212,257 155,257 153.173,257 149.283,261 145,261 145,261 156.5,267 156.5,267 156.5,267 159.5,271 159.5,271 170.856,276.678 177.13,286 191,286 191,286 189,284.5 189,284.5 189,284.5 196,283 196,283 196,283 217,282 217,282 217,282 218,282 218,282 218,282 229.5,279 229.5,279 232.256,280.378 235.769,282 239,282  Z"/>

<path  fill="#CCCBCA" stroke-width="0" stroke="#CCCBCA" d = " M158 245 L157,248 C151.354,248 155.687,236.874 154,233.5 154,233.5 148,222.5 148,222.5 147.632,221.764 146.531,219 148.5,219 148.5,219 151,222 151,222 151,222 151,223 151,223 151,223 153,227 153,227 153,227 153,228 153,228 153,228 154,229 154,229 154,229 154,230 154,230 154,230 155,231 155,231 155,231 158,245 158,245  Z"/>

<path  fill="#FF9B88" stroke-width="0" stroke="#FF9B88" d = " M213 219 L214,220 C214,220 213,219 213,219  Z"/>

<path  fill="#C9C9CB" stroke-width="0" stroke="#C9C9CB" d = " M306 220 L307,220 C307,220 307,219 307,219 307,219 306,220 306,220  Z"/>

<path  fill="#CCCBCA" stroke-width="0" stroke="#CCCBCA" d = " M299 245 L299,247 C300.344,247 300.883,248.735 302,246.5 302,246.5 302,235.5 302,235.5 304.183,231.134 306.765,226.97 309,222.5 310.515,219.469 308.045,220 307,220 307,220 306,221 306,221 306,221 306,222 306,222 306,222 305,223 305,223 305,223 305,224 305,224 305,224 304,225 304,225 304,225 304,226 304,226 304,226 303,227 303,227 303,227 303,229 303,229 303,229 302,230 302,230 302,230 302,231 302,231 302,231 301,232 301,232 301,236.449 299,240.01 299,245  Z"/>

<path  fill="#CCCCCA" stroke-width="0" stroke="#CCCCCA" d = " M307 220 L306,221 C306,221 306,220 306,220 306,220 307,220 307,220  Z"/>

<path  fill="#FF9B88" stroke-width="0" stroke="#FF9B88" d = " M213 228 L219,228 C219,228 215,223.5 215,223.5 214.541,222.581 215.765,221 214,221 214,221 213,228 213,228  Z"/>

<path  fill="#FF9B88" stroke-width="0" stroke="#FF9B88" d = " M238 228 L244,228 C244,226.181 243,223.409 243,221 241.903,221 238,226.986 238,228  Z"/>

<path  fill="#C9C9CB" stroke-width="0" stroke="#C9C9CB" d = " M305 222 L306,222 C306,222 306,221 306,221 306,221 305,222 305,222  Z"/>

<path  fill="#CCCCCA" stroke-width="0" stroke="#CCCCCA" d = " M306 222 L305,223 C305,223 305,222 305,222 305,222 306,222 306,222  Z"/>

<path  fill="#CCCCCA" stroke-width="0" stroke="#CCCCCA" d = " M151 223 L153,227 C153,227 151,223 151,223  Z"/>

<path  fill="#C9C9CB" stroke-width="0" stroke="#C9C9CB" d = " M304 224 L305,224 C305,224 305,223 305,223 305,223 304,224 304,224  Z"/>

<path  fill="#CCCCCA" stroke-width="0" stroke="#CCCCCA" d = " M305 224 L304,225 C304,225 304,224 304,224 304,224 305,224 305,224  Z"/>

<path  fill="#CCCCCA" stroke-width="0" stroke="#CCCCCA" d = " M304 226 L303,227 C303,227 304,226 304,226  Z"/>

<path  fill="#FF9B88" stroke-width="0" stroke="#FF9B88" d = " M288 227 L287,229 C287,229 288,227 288,227  Z"/>

<path  fill="#CCCCCA" stroke-width="0" stroke="#CCCCCA" d = " M153 228 L154,229 C154,229 153,228 153,228  Z"/>

<path  fill-rule="evenodd" fill="#FEBA85" stroke-width="0" stroke="#FEBA85" d = " M219 237 L218,244.5 L220,251.5 C225.814,263.127 230.306,237 219,237  M210 262 C206.49,262 202.978,263 200,263 194.785,263 193,259.916 193,255 193,245.417 202.3,228 213,228 213,228 219,228 219,228 221.18,228 224.188,231 226,231 226,231 227,258.5 227,258.5 225.507,261.486 213.065,262 210,262  Z"/>

<path  fill-rule="evenodd" fill="#FEBA85" stroke-width="0" stroke="#FEBA85" d = " M234 237 L231,243 L231,248.5 C231,266.693 245.37,237 234,237  M247 262 C250.222,262 253.277,263 256,263 261.445,263 263,260.068 263,255 263,250.253 262.954,245.409 261,241.5 258.949,237.398 248.079,228 244,228 244,228 238,228 238,228 238,228 231,230 231,230 231,234.135 226.657,258.078 230.5,260 230.5,260 247,262 247,262  Z"/>

<path  fill="#FF9B88" stroke-width="0" stroke="#FF9B88" d = " M169 229 L171,232 C169.423,232 169,230.238 169,229  Z"/>

<path  fill="#CCCCCA" stroke-width="0" stroke="#CCCCCA" d = " M303 229 L302,230 C302,230 303,229 303,229  Z"/>

<path  fill="#CACACB" stroke-width="0" stroke="#CACACB" d = " M155 257 C153.173,257 149.283,261 145,261 133.807,261 125.09,256.68 120,246.5 118.305,243.109 121,236.911 121,234 121,234 122,233 122,233 122,231.762 122.423,230 124,230 124,230 132,231 132,231 132,231 138,236.5 138,236.5 140.57,239.07 155,256.683 155,257  Z"/>

<path  fill="#CCCCCA" stroke-width="0" stroke="#CCCCCA" d = " M154 230 L155,231 C155,231 154,230 154,230  Z"/>

<path  fill="#FF9B88" stroke-width="0" stroke="#FF9B88" d = " M287 230 L286,231 C286,231 287,230 287,230  Z"/>

<path  fill="#CACACB" stroke-width="0" stroke="#CACACB" d = " M302 256 C302,260.208 308.585,261 312,261 320.728,261 331.658,257.185 335,250.5 335,250.5 336,244.5 336,244.5 336.523,243.453 337.748,241.995 337,240.5 335.771,238.042 336.206,234.913 335,232.5 335,232.5 333,230 333,230 329.778,230 326.723,231 324,231 324,232.64 302,254.409 302,256  Z"/>

<path  fill="#CCCCCA" stroke-width="0" stroke="#CCCCCA" d = " M302 231 L301,232 C301,232 302,231 302,231  Z"/>

<path  fill="#FF9B88" stroke-width="0" stroke="#FF9B88" d = " M286 232 L285,233 C285,233 286,232 286,232  Z"/>

<path  fill="#FF9B88" stroke-width="0" stroke="#FF9B88" d = " M122 233 L121,234 C121,234 122,233 122,233  Z"/>

<path  fill="#FF9B88" stroke-width="0" stroke="#FF9B88" d = " M171 233 L172,234 C172,234 171,233 171,233  Z"/>

<path  fill="#FF9B88" stroke-width="0" stroke="#FF9B88" d = " M285 234 L284,235 C284,235 285,234 285,234  Z"/>

<path  fill="#CBC7CC" stroke-width="0" stroke="#CBC7CC" d = " M159 237 C159,240.746 161.091,237 159,237  Z"/>

<path  fill="#CACCC8" stroke-width="0" stroke="#CACCC8" d = " M219 237 L218,244.5 L220,251.5 C225.814,263.127 230.306,237 219,237  Z"/>

<path  fill="#CACCC8" stroke-width="0" stroke="#CACCC8" d = " M234 237 L231,243 L231,248.5 C231,266.693 245.37,237 234,237  Z"/>

<path  fill="#CBC7CC" stroke-width="0" stroke="#CBC7CC" d = " M296 238 C296,243.567 298.112,238 296,238  Z"/>

<path  fill="#CBC7CC" stroke-width="0" stroke="#CBC7CC" d = " M160 248 L161,249 C161,249 161,240 161,240 159.286,240 160,245.594 160,247 160,247 160,248 160,248  Z"/>

<path  fill="#CBC7CC" stroke-width="0" stroke="#CBC7CC" d = " M295 243 C296.587,243 296.587,249 295,249 295,249 295,243 295,243  Z"/>

<path  fill="#FDB986" stroke-width="0" stroke="#FDB986" d = " M160 248 C156.57,248 161.986,256 157,256 157,256 157,248 157,248 157,248 158,245 158,245 158,245 160,247 160,247 160,247 160,248 160,248  Z"/>

<path  fill="#FDB986" stroke-width="0" stroke="#FDB986" d = " M299 247 L299,257 C295.797,257 295.797,245 299,245 299,245 299,247 299,247  Z"/>

<path  fill="#FF9B88" stroke-width="0" stroke="#FF9B88" d = " M276 250 C278.112,250 279.332,248.916 281.5,250 283.54,251.02 283.924,256 285,256 285,256 285,248 285,248 282.139,248 279,251.196 279,246 279,246 276,250 276,250  Z"/>

<path  fill="#FF9B88" stroke-width="0" stroke="#FF9B88" d = " M177 249 L172,253 C172,253 172,249 172,249 172,249 177,249 177,249  Z"/>

<path  fill="#FEAD6F" stroke-width="0" stroke="#FEAD6F" d = " M171 262 L170,263 C170,266.519 168.181,268.861 170,272.5 172.394,277.289 182.923,286.654 187,278.5 187,278.5 190,270.5 190,270.5 192.665,265.171 184.558,257.616 183,254.5 182.032,252.564 179.554,249 177,249 177,249 172,253 172,253 172,253 172,258 172,258 172,258 171,259 171,259 171,259 171,262 171,262  Z"/>

<path  fill="#FEAD6F" stroke-width="0" stroke="#FEAD6F" d = " M285 256 C285,258.409 286,261.181 286,263 286,265.014 288.284,268.932 287,271.5 282.844,279.812 272.959,286.418 267,274.5 263.288,267.076 272,259.361 272,255 272,255 273,254 273,254 273,254 274,253 274,253 274,253 275,252 275,252 275,252 276,250 276,250 278.112,250 279.332,248.916 281.5,250 283.54,251.02 283.924,256 285,256  Z"/>

<path  fill="#FF9B88" stroke-width="0" stroke="#FF9B88" d = " M275 252 L274,253 C274,253 275,252 275,252  Z"/>

<path  fill="#FF9B88" stroke-width="0" stroke="#FF9B88" d = " M273 254 L272,255 C272,255 273,254 273,254  Z"/>

<path  fill="#FF9B88" stroke-width="0" stroke="#FF9B88" d = " M172 258 L171,259 C171,259 172,258 172,258  Z"/>

<path  fill="#CCCCCA" stroke-width="0" stroke="#CCCCCA" d = " M298 258 C298,259.93 299.93,258 298,258  Z"/>

<path  fill="#FF9B88" stroke-width="0" stroke="#FF9B88" d = " M171 262 L170,263 C170,263 171,262 171,262  Z"/>

<path  fill="#C8C7CC" stroke-width="0" stroke="#C8C7CC" d = " M210 262 C206.49,262 202.978,263 200,263 200,263 198,268.5 198,268.5 201.966,276.432 208.267,274.965 212,267.5 212,267.5 210,262 210,262  Z"/>

<path  fill="#C8C7CC" stroke-width="0" stroke="#C8C7CC" d = " M247 262 C250.222,262 253.277,263 256,263 256,264.947 259.428,266.644 258,269.5 255.741,274.019 248.106,276.711 245,270.5 243.264,267.027 247,263.448 247,262  Z"/>

<path  fill="#CCC7CB" stroke-width="0" stroke="#CCC7CB" d = " M200 286 L201,286 C201,286 203,285 203,285 203,285 205,285 205,285 205,281.913 211.96,283 214,283 214,283 217,283 217,283 217,283 217,282 217,282 217,282 196,283 196,283 196,283 189,284.5 189,284.5 189,284.5 191,286 191,286 191,286 192,286 192,286 192,286 198,286 198,286 198,286 200,286 200,286  Z"/>

<path  fill="#FF9BCD" stroke-width="0" stroke="#FF9BCD" d = " M218 282 L217,283 C217,283 217,282 217,282 217,282 218,282 218,282  Z"/>

<path  fill="#CCC7CB" stroke-width="0" stroke="#CCC7CB" d = " M258 286 L265,286 C265,286 267,284.5 267,284.5 267,284.5 260,283 260,283 260,283 239,282 239,282 239,283.579 241.855,283 243,283 244.949,283 251,282.009 251,285 251,285 253,285 253,285 254.048,285 256,284.527 256,286 256,286 257,286 257,286 257,286 258,286 258,286  Z"/>

<path  fill="#FF9BCD" stroke-width="0" stroke="#FF9BCD" d = " M214 283 C211.96,283 205,281.913 205,285 206.242,285 214,283.981 214,283  Z"/>

<path  fill="#FF9BCD" stroke-width="0" stroke="#FF9BCD" d = " M243 283 C244.949,283 251,282.009 251,285 250.019,285 243,283.816 243,283  Z"/>

<path  fill="#FF9BCD" stroke-width="0" stroke="#FF9BCD" d = " M203 285 L201,286 C201,286 203,285 203,285  Z"/>

<path  fill="#FF9BCD" stroke-width="0" stroke="#FF9BCD" d = " M253 285 C254.048,285 256,284.527 256,286 254.952,286 253,286.473 253,285  Z"/>

<path  fill="#FF9B88" stroke-width="0" stroke="#FF9B88" d = " M198 286 L198,287 C196.679,287 192,287.684 192,286 192,286 198,286 198,286  Z"/>

<path  fill="#FF9BCD" stroke-width="0" stroke="#FF9BCD" d = " M200 286 L198,287 C198,287 198,286 198,286 198,286 200,286 200,286  Z"/>

<path  fill="#FF9BCD" stroke-width="0" stroke="#FF9BCD" d = " M258 286 L258,287 C258,287 257,286 257,286 257,286 258,286 258,286  Z"/>

<path  fill="#FF9B88" stroke-width="0" stroke="#FF9B88" d = " M265 286 C265,287.714 259.406,287 258,287 258,287 258,286 258,286 258,286 265,286 265,286  Z"/>

</g>
</svg>
