<svg xmlns="http://www.w3.org/2000/svg" xmlns:xlink="http://www.w3.org/1999/xlink"  viewBox="0 0 456 320">
<g>
<rect width="456" height="320" fill="#000000"  stroke-width="0" /> 
<path  fill="#098589" stroke-width="0" stroke="#098589" d = " M84 66 L87,69 C87,69 98.5,59 98.5,59 98.5,59 122.5,43 122.5,43 129.938,39.2811 156.173,26.3364 165.5,31 167.677,32.0887 168.322,34 171,34 171,34 174,29 174,29 174,27.6471 169.357,27 168,27 162.28,27 153.341,25.5797 148.5,28 145.167,29.6664 140.784,29.3581 137.5,31 137.5,31 115.5,41 115.5,41 109.312,44.0942 104.743,49.8785 98.5,53 95.7971,54.3515 84,62.2992 84,66  Z"/>

<path  fill="#098589" stroke-width="0" stroke="#098589" d = " M373 66 L369,69 C369,69 352.5,55 352.5,55 340.205,48.8524 328.658,41.0791 316.5,35 313.415,33.4573 286,26.8956 286,35 286,35 285,35 285,35 285,32.5529 283,31.7198 283,29 283,27.1726 286.968,27 288.5,27 294.094,27 302.77,25.6349 307.5,28 310.833,29.6664 315.216,29.3581 318.5,31 327.029,35.2646 335.969,38.7347 344.5,43 350.407,45.9537 354.539,52.0193 360.5,55 362.634,56.0671 373,64.962 373,66  Z"/>

<path  fill="#1BA696" stroke-width="0" stroke="#1BA696" d = " M184 41 C180.545,41 178.083,44 175,44 175,41.2786 175.202,35 171,35 171,35 171,34 171,34 171,34 174,29 174,29 178.994,29 184,36.4945 184,41  Z"/>

<path  fill="#1BA696" stroke-width="0" stroke="#1BA696" d = " M272 40 C275.083,40 277.545,43 281,43 281,40.6829 281.709,35 285,35 285,32.5529 283,31.7198 283,29 278.514,29 272,35.4124 272,40  Z"/>

<path  fill="#0A828C" stroke-width="0" stroke="#0A828C" d = " M87 70 L91,76 C95.8565,76 101.209,67.1455 105.5,65 105.5,65 122.5,53 122.5,53 129.809,49.3455 137.23,45.6348 144.5,42 148.473,40.0133 156.26,38.88 160.5,41 161.419,41.4594 163,40.2354 163,42 163,42 171,35 171,35 171,35 171,34 171,34 168.322,34 167.677,32.0887 165.5,31 156.173,26.3364 129.938,39.2811 122.5,43 122.5,43 98.5,59 98.5,59 98.5,59 87,69 87,69 87,69 87,70 87,70  Z"/>

<path  fill="#0A828C" stroke-width="0" stroke="#0A828C" d = " M369 70 L365,76 C365,76 351.5,65 351.5,65 338.014,58.2572 325.84,48.67 312.5,42 308.619,40.0594 302.643,40 298,40 296.959,40 293,40.9856 293,42 293,42 286,35 286,35 286,26.8956 313.415,33.4573 316.5,35 328.658,41.0791 340.205,48.8524 352.5,55 352.5,55 369,69 369,69 369,69 369,70 369,70  Z"/>

<path  fill="#1AA496" stroke-width="0" stroke="#1AA496" d = " M159 46 C162.236,46 162,48.4353 162,51 166.525,51 168.563,45 174,45 174,45 175,44 175,44 175,41.2786 175.202,35 171,35 171,35 163,42 163,42 163,42.9663 160.114,45 159,45 159,45 159,46 159,46  Z"/>

<path  fill="#1AA496" stroke-width="0" stroke="#1AA496" d = " M297 46 C294.902,46 294,47.9392 294,50 294,50 282,44 282,44 282,44 281,43 281,43 281,40.6829 281.709,35 285,35 285,35 286,35 286,35 286,35 293,42 293,42 293,42 297,45 297,45 297,45 297,46 297,46  Z"/>

<path  fill="#0B848B" stroke-width="0" stroke="#0B848B" d = " M91 77 L94,80 C98.9403,80 109.417,67.0416 113.5,65 128.882,57.3092 139.403,45 159,45 160.114,45 163,42.9663 163,42 163,40.2354 161.419,41.4594 160.5,41 156.26,38.88 148.473,40.0133 144.5,42 137.23,45.6348 129.809,49.3455 122.5,53 122.5,53 105.5,65 105.5,65 101.209,67.1455 95.8565,76 91,76 91,76 91,77 91,77  Z"/>

<path  fill="#1BA598" stroke-width="0" stroke="#1BA598" d = " M308 78 L305,80 C305,80 295,68.5 295,68.5 289.963,63.4629 272,46.0445 272,40 275.083,40 277.545,43 281,43 281,43 282,44 282,44 282,52.6912 294.799,64.2989 300.5,70 300.5,70 308,78 308,78  Z"/>

<path  fill="#0B848B" stroke-width="0" stroke="#0B848B" d = " M365 77 C365,78.4813 363,77.7852 363,80 357.027,80 348.098,67.7992 342.5,65 326.381,56.9403 316.71,45 297,45 297,45 293,42 293,42 293,40.9856 296.959,40 298,40 302.643,40 308.619,40.0594 312.5,42 325.84,48.67 338.014,58.2572 351.5,65 351.5,65 365,76 365,76 365,76 365,77 365,77  Z"/>

<path  fill="#1BA598" stroke-width="0" stroke="#1BA598" d = " M149 79 L151,80 C151,80 159.5,71 159.5,71 164.012,66.4879 184,45.7698 184,41 180.545,41 178.083,44 175,44 175,44 174,45 174,45 174,55.6355 149,72.641 149,79  Z"/>

<path  fill="#FF7AFD" stroke-width="0" stroke="#FF7AFD" d = " M285 70 L287,71 C287,66.5832 282.82,65.1401 281,61.5 275.69,50.881 252.484,36.5079 239.5,43 235.777,44.8617 230.918,48.6646 229,52.5 229,52.5 228.5,57 228.5,57 226.925,57 227.429,52.3572 227,51.5 225.463,48.4255 219.692,44.596 216.5,43 212.231,40.8653 189,43.7825 189,49 192.477,49 195.578,46.4611 198.5,45 198.5,45 203.5,45 203.5,45 210.503,41.4986 221.737,45.9735 225,52.5 226.555,55.6093 226,60.2679 226,64 226,64 227,65 227,65 227,65 229,65 229,65 229,65 230,64 230,64 230,35.5244 260.404,41.9041 274.5,56 277.864,59.3635 285,65.3655 285,70  Z"/>

<path  fill="#1BA697" stroke-width="0" stroke="#1BA697" d = " M175 44 L174,45 C174,45 175,44 175,44  Z"/>

<path  fill="#FF78FF" stroke-width="0" stroke="#FF78FF" d = " M173 65 C173,67.7198 171,68.5529 171,71 171,71 184.5,63 184.5,63 191.883,59.3084 200.181,57.6594 207.5,54 216.86,49.3201 222.252,64 226,64 226,60.2679 226.555,55.6093 225,52.5 221.737,45.9735 210.503,41.4986 203.5,45 203.5,45 198.5,45 198.5,45 195.578,46.4611 192.477,49 189,49 189,49 173,65 173,65  Z"/>

<path  fill="#FF78FF" stroke-width="0" stroke="#FF78FF" d = " M230 64 C234.079,64 239.254,49.3768 248.5,54 254.718,57.1092 262.272,57.8858 268.5,61 273.438,63.4691 279.271,70 285,70 285,65.3655 277.864,59.3635 274.5,56 260.404,41.9041 230,35.5244 230,64  Z"/>

<path  fill="#1BA697" stroke-width="0" stroke="#1BA697" d = " M308 78 L312,78 C312,78 307,72.5 307,72.5 303.705,65.9105 294,59.846 294,51 294,51 294,50 294,50 294,50 282,44 282,44 282,52.6912 294.799,64.2989 300.5,70 300.5,70 308,78 308,78  Z"/>

<path  fill="#088389" stroke-width="0" stroke="#088389" d = " M107 83 L105,84 C100.611,84 96.2433,81 94,81 94,81 94,80 94,80 98.9403,80 109.417,67.0416 113.5,65 128.882,57.3092 139.403,45 159,45 159,45 159,46 159,46 154.944,46 144.266,55.9688 143,58.5 143,58.5 140,61 140,61 140,61 139,61 139,61 139,57.6652 127.773,66.3635 126.5,67 123.943,68.2787 107,80.3991 107,83  Z"/>

<path  fill="#1BA697" stroke-width="0" stroke="#1BA697" d = " M145 78 L149,79 C149,72.641 174,55.6355 174,45 168.563,45 166.525,51 162,51 162,61.6482 145,73.6693 145,78  Z"/>

<path  fill="#088389" stroke-width="0" stroke="#088389" d = " M350 83 L351,84 C357.267,84 361.191,81 363,81 363,81 363,80 363,80 357.027,80 348.098,67.7992 342.5,65 326.381,56.9403 316.71,45 297,45 297,45 297,46 297,46 298.95,46 316,58.9873 316,61 316,61 317,61 317,61 317,57.8401 326.363,64.4313 327.5,65 330.247,66.3734 349,80.0954 349,83 349,83 350,83 350,83  Z"/>

<path  fill="#1CA697" stroke-width="0" stroke="#1CA697" d = " M140 61 L143,64 C150.388,64 155.156,51 162,51 162,48.4353 162.236,46 159,46 154.944,46 144.266,55.9688 143,58.5 143,58.5 140,61 140,61  Z"/>

<path  fill="#1CA697" stroke-width="0" stroke="#1CA697" d = " M316 61 C313.891,61 314,63.5345 314,65 309.536,65 299.271,51 294,51 294,51 294,50 294,50 294,47.9392 294.902,46 297,46 298.95,46 316,58.9873 316,61  Z"/>

<path  fill="#FF7AFD" stroke-width="0" stroke="#FF7AFD" d = " M189 49 C184.507,49 173,60.5464 173,65 173,65 189,49 189,49  Z"/>

<path  fill="#1AA596" stroke-width="0" stroke="#1AA596" d = " M145 78 C141.216,78 138.298,81 135,81 135,74.4707 143,72.3988 143,65 143,65 143,64 143,64 150.388,64 155.156,51 162,51 162,61.6482 145,73.6693 145,78  Z"/>

<path  fill="#1AA596" stroke-width="0" stroke="#1AA596" d = " M312 78 C315.42,78 318.14,81 321,81 321,74.6627 314,72.087 314,65 309.536,65 299.271,51 294,51 294,59.846 303.705,65.9105 307,72.5 307,72.5 312,78 312,78  Z"/>

<path  fill="#FD7AFF" stroke-width="0" stroke="#FD7AFF" d = " M169 73 L169,75 C169.138,75 198.518,60.4912 201.5,59 212.666,53.4168 220.761,67 227,67 227,67 227,65 227,65 227,65 226,64 226,64 222.252,64 216.86,49.3201 207.5,54 200.181,57.6594 191.883,59.3084 184.5,63 184.5,63 171,71 171,71 171,71 169,72 169,72 169,72 169,73 169,73  Z"/>

<path  fill="#FD7AFF" stroke-width="0" stroke="#FD7AFF" d = " M287 73 L287,75 C287,75 277.5,69 277.5,69 269.996,65.248 261.949,62.7246 254.5,59 243.558,53.5289 236.525,67 229,67 229,67 229,65 229,65 229,65 230,64 230,64 234.079,64 239.254,49.3768 248.5,54 254.718,57.1092 262.272,57.8858 268.5,61 273.438,63.4691 279.271,70 285,70 285,70 287,71 287,71 287,71 287,73 287,73  Z"/>

<path  fill="#FF90FF" stroke-width="0" stroke="#FF90FF" d = " M169 83 C169,79.8786 185.791,74.3547 188.5,73 194.091,70.2046 208.056,63.2779 215.5,67 218.936,68.7181 228.19,73.6551 231.5,72 243.058,66.2208 251.391,64.9456 263.5,71 266.545,72.5224 288,80.666 288,83 291.776,83 290.322,75 287,75 287,75 277.5,69 277.5,69 269.996,65.248 261.949,62.7246 254.5,59 243.558,53.5289 236.525,67 229,67 229,67 227,67 227,67 220.761,67 212.666,53.4168 201.5,59 198.518,60.4912 169.138,75 169,75 169,75 167,76 167,76 167,78.4547 163.959,83 169,83  Z"/>

<path  fill="#08858C" stroke-width="0" stroke="#08858C" d = " M119 82 C115.469,82 111.107,83 107,83 107,80.3991 123.943,68.2787 126.5,67 127.773,66.3635 139,57.6652 139,61 139,61 119,82 119,82  Z"/>

<path  fill="#08858C" stroke-width="0" stroke="#08858C" d = " M337 82 C338.665,82 349,84.2547 349,83 349,80.0954 330.247,66.3734 327.5,65 326.363,64.4313 317,57.8401 317,61 317,61 337,82 337,82  Z"/>

<path  fill="#1CA597" stroke-width="0" stroke="#1CA597" d = " M129 81 C126.275,81 122.449,82 119,82 119,82 139,61 139,61 139,61 140,61 140,61 140,61 143,64 143,64 143,64 143,65 143,65 140.101,65 135.054,74.3923 134,76.5 134,76.5 130,80 130,80 130,80 129,81 129,81  Z"/>

<path  fill="#1CA597" stroke-width="0" stroke="#1CA597" d = " M328 81 C331.222,81 334.277,82 337,82 337,82 317,61 317,61 317,61 316,61 316,61 313.891,61 314,63.5345 314,65 316.344,65 323.909,81 328,81  Z"/>

<path  fill="#1AA697" stroke-width="0" stroke="#1AA697" d = " M135 81 L127,85 C127,85 129,81 129,81 129,81 130,80 130,80 130,80 134,76.5 134,76.5 135.054,74.3923 140.101,65 143,65 143,72.3988 135,74.4707 135,81  Z"/>

<path  fill="#FF7AFD" stroke-width="0" stroke="#FF7AFD" d = " M171 71 L169,72 C169,70.4284 171.052,65 173,65 173,67.7198 171,68.5529 171,71  Z"/>

<path  fill="#1AA697" stroke-width="0" stroke="#1AA697" d = " M328 81 L331,86 C331,86 321,81 321,81 321,74.6627 314,72.087 314,65 316.344,65 323.909,81 328,81  Z"/>

<path  fill="#09848A" stroke-width="0" stroke="#09848A" d = " M75 81 L76,81 C76,81 87,70 87,70 87,70 87,69 87,69 87,69 84,66 84,66 84,66 70,80 70,80 70,80 72,81 72,81 72,81 75,81 75,81  Z"/>

<path  fill="#09848A" stroke-width="0" stroke="#09848A" d = " M382 81 L385,81 C385,81 386,80 386,80 386,76.1168 373,68.5187 373,66 373,66 369,69 369,69 369,69 369,70 369,70 371.059,70 381,78.6978 381,81 381,81 382,81 382,81  Z"/>

<path  fill="#FF90FE" stroke-width="0" stroke="#FF90FE" d = " M176 95 C176.927,95 204.371,79.0644 208.5,77 213.586,74.4568 222.877,77.6887 227.5,80 L244.5,76 C250.084,78.792 256.604,82.5519 261.5,85 263.966,86.2329 280,92.9006 280,95 283.035,95 288,85.2812 288,83 288,80.666 266.545,72.5224 263.5,71 251.391,64.9456 243.058,66.2208 231.5,72 228.19,73.6551 218.936,68.7181 215.5,67 208.056,63.2779 194.091,70.2046 188.5,73 185.791,74.3547 169,79.8786 169,83 169,85.2849 173.136,95 176,95  Z"/>

<path  fill="#0A8489" stroke-width="0" stroke="#0A8489" d = " M86 82 L84,83 C84,80.9513 78.1784,81 76,81 76,81 87,70 87,70 87,70 91,76 91,76 91,76 91,77 91,77 91,77 86,82 86,82  Z"/>

<path  fill="#0A8489" stroke-width="0" stroke="#0A8489" d = " M371 83 L373,83 C373,81.6408 380.119,81 381,81 381,78.6978 371.059,70 369,70 369,70 365,76 365,76 365,76 365,77 365,77 367.103,77 371,81.4675 371,83  Z"/>

<path  fill="#FF64FF" stroke-width="0" stroke="#FF64FF" d = " M169 75 L167,76 C167,76 169,73 169,73 169,73 169,75 169,75  Z"/>

<path  fill="#FF64FF" stroke-width="0" stroke="#FF64FF" d = " M304 154 C305.606,154 308.339,151.919 310.5,153 312.172,153.836 315.628,159 316,159 316,156.212 314.657,148.421 317.5,147 317.5,147 320,149 320,149 320,142.126 320,133.921 320,127 312.078,127 318.414,108 313,108 313,114.681 316.444,119.612 313,126.5 307.694,137.113 290,128.209 290,119 275.34,119 290,101.244 290,100 290,100 291,95 291,95 291,90.6112 297.599,87.5494 300.5,89 304.001,90.7504 312.498,107 313,107 313,97.4058 299,90.1565 299,82 294.423,82 291.209,73 287,73 287,73 287,75 287,75 290.322,75 291.776,83 288,83 288,85.2812 283.035,95 280,95 280,106.212 280.669,109 268,109 268,109 265,112 265,112 265,116.219 266.2,121.9 268,125.5 268.619,126.738 266.856,131 269,131 269,125.186 279.787,129.075 281,131.5 283.749,136.998 292.091,140.682 295,146.5 296.278,149.055 293,151.016 293,153 293,153 296,158 296,158 296,150.878 295.919,145.338 293,139.5 292.192,137.884 287.255,132.991 288,131.5 289.184,129.133 302.068,133.637 303,135.5 303.94,137.38 298.459,140.418 300,143.5 301.758,147.017 304,149.683 304,154  Z"/>

<path  fill="#FF64FF" stroke-width="0" stroke="#FF64FF" d = " M153 154 L145.5,153 C143.342,154.079 140.436,161 140,161 140,158.653 141.18,145.16 137.5,147 136.002,147.749 138.205,151 136,151 136,151 136,132.5 136,132.5 136,131.222 135.335,127 137,127 145.217,127 137.883,109 143,109 143,114.281 140.381,121.261 143,126.5 148.621,137.742 166,127.621 166,119 176.776,119 171.318,101 166,101 166,98.6225 165.971,97.4413 165,95.5 164.169,93.8381 164.647,93.1468 163,91.5 151.584,80.0839 150.141,104 145,104 145,95.1969 157,90.3318 157,82 160.971,82 163.029,76 167,76 167,78.4547 163.959,83 169,83 169,85.2849 173.136,95 176,95 176,105.566 176.397,109 188,109 188,109 191,112 191,112 191,119.523 188,125.503 188,133 188,133 185.5,128 185.5,128 180.488,125.494 164.214,141.072 162,145.5 162,145.5 163,153 163,153 163,153 161,155 161,155 161,149.32 160.66,144.18 163,139.5 163.828,137.843 168.985,133.47 168,131.5 166.909,129.319 153.836,133.828 153,135.5 152.323,136.854 156,139.156 156,141 156,146.347 153,148.722 153,154  Z"/>

<path  fill="#FF8FFF" stroke-width="0" stroke="#FF8FFF" d = " M188 109 C188,103.981 195.247,100.006 197,96.5 203.194,84.1117 217.229,86 230,86 233.202,86 239.03,83.2648 242.5,85 246.271,86.8856 249.638,89.069 253.5,91 258.682,93.5908 268,103.193 268,109 280.669,109 280,106.212 280,95 280,92.9006 263.966,86.2329 261.5,85 256.604,82.5519 250.084,78.792 244.5,76 244.5,76 227.5,80 227.5,80 222.877,77.6887 213.586,74.4568 208.5,77 204.371,79.0644 176.927,95 176,95 176,105.566 176.397,109 188,109  Z"/>

<path  fill="#08828B" stroke-width="0" stroke="#08828B" d = " M86 82 L91,82 C91,82 92,81 92,81 92,81 94,81 94,81 94,81 94,80 94,80 94,80 91,77 91,77 91,77 86,82 86,82  Z"/>

<path  fill="#08828B" stroke-width="0" stroke="#08828B" d = " M364 81 L371,83 C371,81.4675 367.103,77 365,77 365,78.4813 363,77.7852 363,80 363,80 363,81 363,81 363,81 364,81 364,81  Z"/>

<path  fill="#33B932" stroke-width="0" stroke="#33B932" d = " M112 93 C112,93.8916 123.317,114.134 125,117.5 L129,125 C129,120.377 140.326,97.8483 143,92.5 144.857,88.7851 151,84.2494 151,80 151,80 149,79 149,79 149,79 145,78 145,78 141.216,78 138.298,81 135,81 135,81 127,85 127,85 127,85 126,86 126,86 126,86 112,93 112,93  Z"/>

<path  fill="#33B932" stroke-width="0" stroke="#33B932" d = " M345 93 C345,95.4834 328,119.029 328,125 326.1,125 325.691,118.882 325,117.5 322.384,112.269 320.551,106.602 318,101.5 316.376,98.252 305,81.7676 305,80 305,80 308,78 308,78 308,78 312,78 312,78 315.42,78 318.14,81 321,81 321,81 331,86 331,86 331,90.1815 345,89.8636 345,93  Z"/>

<path  fill="#09818C" stroke-width="0" stroke="#09818C" d = " M49 129 C46.3821,129 45.9065,133 44,133 44,115.262 47.8102,110.88 55,96.5 55,96.5 61,90.5 61,90.5 61,90.5 70,80 70,80 70,80 72,81 72,81 72,81 73,83 73,83 73,83 73,84 73,84 73,84 65,92.5 65,92.5 56.1178,101.382 49,114.436 49,127 49,127 49,129 49,129  Z"/>

<path  fill="#08838C" stroke-width="0" stroke="#08838C" d = " M95 100 L88,103 C88,96.1517 105,86.1514 105,84 105,84 107,83 107,83 111.107,83 115.469,82 119,82 122.449,82 126.275,81 129,81 129,81 127,85 127,85 127,85 126,86 126,86 126,86 112,93 112,93 109.903,93 103,94.5329 103,97 101.535,97 99,96.891 99,99 99,99 96,99 96,99 96,99 95,100 95,100  Z"/>

<path  fill="#08838C" stroke-width="0" stroke="#08838C" d = " M130 80 L129,81 C129,81 130,80 130,80  Z"/>

<path  fill="#09818C" stroke-width="0" stroke="#09818C" d = " M407 128 L412,132 C412,115.123 408.068,102.568 395.5,90 395.5,90 386,80 386,80 386,80 385,81 385,81 385,81 383,83 383,83 383,83 383,84 383,84 383,84 389.5,91 389.5,91 398.659,95.5794 407,116.677 407,127 407,127 407,128 407,128  Z"/>

<path  fill="#0A838A" stroke-width="0" stroke="#0A838A" d = " M75 81 L73,83 C73,83 72,81 72,81 72,81 75,81 75,81  Z"/>

<path  fill="#09848C" stroke-width="0" stroke="#09848C" d = " M73 84 L77,89 C77,89 84,83 84,83 84,80.9513 78.1784,81 76,81 76,81 75,81 75,81 75,81 73,83 73,83 73,83 73,84 73,84  Z"/>

<path  fill="#0B858A" stroke-width="0" stroke="#0B858A" d = " M92 81 L91,82 C91,82 92,81 92,81  Z"/>

<path  fill="#0B838C" stroke-width="0" stroke="#0B838C" d = " M87 104 L85,105 C85,105 81,104.5 81,104.5 81,98.7276 79,97.7256 79,93 79,93 91,82 91,82 91,82 92,81 92,81 92,81 94,81 94,81 96.2433,81 100.611,84 105,84 105,86.1514 88,96.1517 88,103 88,103 87,104 87,104  Z"/>

<path  fill="#C9C8C8" stroke-width="0" stroke="#C9C8C8" d = " M143 109 C137.883,109 145.217,127 137,127 137,113.388 141.454,105.592 147,94.5 147.232,94.0367 157,76.7387 157,82 157,90.3318 145,95.1969 145,104 142.891,104 143,106.535 143,108 143,108 143,109 143,109  Z"/>

<path  fill="#C9C8C8" stroke-width="0" stroke="#C9C8C8" d = " M313 108 C318.414,108 312.078,127 320,127 320,118.187 315.773,100.273 310,94.5 307.057,91.5568 306.168,87.6682 303,84.5 302.291,83.7915 299,79.7658 299,82 299,90.1565 313,97.4058 313,107 313,107 313,108 313,108  Z"/>

<path  fill="#08838C" stroke-width="0" stroke="#08838C" d = " M361 100 L368,103 C368,95.3147 351,86.2342 351,84 351,84 350,83 350,83 350,83 349,83 349,83 349,84.2547 338.665,82 337,82 334.277,82 331.222,81 328,81 328,81 331,86 331,86 331,90.1815 345,89.8636 345,93 346.831,93 354,95.1834 354,97 355.465,97 358,96.891 358,99 358,99 360,99 360,99 360,99 361,100 361,100  Z"/>

<path  fill="#0B838C" stroke-width="0" stroke="#0B838C" d = " M368 103 L372,106 C372,106 375,104.5 375,104.5 375,104.5 375,98.5 375,98.5 375.895,96.7096 378,95.0975 378,93 378,93 378,92 378,92 376.213,92 364,82.4602 364,81 364,81 363,81 363,81 361.191,81 357.267,84 351,84 351,86.2342 368,95.3147 368,103  Z"/>

<path  fill="#0B858A" stroke-width="0" stroke="#0B858A" d = " M379 90 L378,92 C376.213,92 364,82.4602 364,81 364,81 371,83 371,83 371,83 373,83 373,83 373,83 379,89 379,89 379,89 379,90 379,90  Z"/>

<path  fill="#09848C" stroke-width="0" stroke="#09848C" d = " M383 84 L379,89 C379,89 373,83 373,83 373,81.6408 380.119,81 381,81 381,81 382,81 382,81 382,81 383,83 383,83 383,83 383,84 383,84  Z"/>

<path  fill="#0A838A" stroke-width="0" stroke="#0A838A" d = " M385 81 L383,83 C383,83 382,81 382,81 382,81 385,81 385,81  Z"/>

<path  fill="#0B858A" stroke-width="0" stroke="#0B858A" d = " M78 93 L79,93 C79,93 91,82 91,82 91,82 86,82 86,82 86,82 84,83 84,83 84,83 77,89 77,89 77,89 77,91 77,91 77,91 78,93 78,93  Z"/>

<path  fill="#08858C" stroke-width="0" stroke="#08858C" d = " M350 83 L351,84 C351,84 350,83 350,83  Z"/>

<path  fill="#0A8389" stroke-width="0" stroke="#0A8389" d = " M59 121 C55.4761,121 53.0379,127 49,127 49,114.436 56.1178,101.382 65,92.5 65,92.5 73,84 73,84 73,84 77,89 77,89 77,89 77,91 77,91 74.9361,91 71.5027,96 75,96 75,97.8552 61,113.306 61,119 61,119 60,120 60,120 60,120 59,121 59,121  Z"/>

<path  fill="#0A8389" stroke-width="0" stroke="#0A8389" d = " M397 121 C400.95,121 402.894,127 407,127 407,116.677 398.659,95.5794 389.5,91 389.5,91 383,84 383,84 383,84 379,89 379,89 379,89 379,90 379,90 380.804,90 385.013,96 382,96 382,101.645 396,112.759 396,120 396,120 397,121 397,121  Z"/>

<path  fill="#1AA697" stroke-width="0" stroke="#1AA697" d = " M127 85 L126,86 C126,86 127,85 127,85  Z"/>

<path  fill="#FF8FFE" stroke-width="0" stroke="#FF8FFE" d = " M191 112 L194,105.5 C197.529,98.443 202.811,92.8447 210.5,89 214.515,86.9924 242.505,87.0024 246.5,89 251.157,91.3287 257.599,96.6979 260,101.5 261.863,105.225 265,107.465 265,112 265,112 268,109 268,109 268,103.193 258.682,93.5908 253.5,91 249.638,89.069 246.271,86.8856 242.5,85 239.03,83.2648 233.202,86 230,86 217.229,86 203.194,84.1117 197,96.5 195.247,100.006 188,103.981 188,109 188,109 191,112 191,112  Z"/>

<path  fill="#FE79FE" stroke-width="0" stroke="#FE79FE" d = " M143 109 C143,114.281 140.381,121.261 143,126.5 148.621,137.742 166,127.621 166,119 164.386,119 165,115.69 165,114.5 165,110.055 166,104.788 166,101 166,98.6225 165.971,97.4413 165,95.5 164.169,93.8381 164.647,93.1468 163,91.5 151.584,80.0839 150.141,104 145,104 145,105.465 145.109,108 143,108 143,108 143,109 143,109  Z"/>

<path  fill="#FC8FFF" stroke-width="0" stroke="#FC8FFF" d = " M242 157 C238.545,157 236.083,160 233,160 233,155.461 237.288,132 231,132 231,132 231,127 231,127 231,127 237,115.5 237,115.5 237,115.5 231,109.5 231,109.5 231,109.5 228.5,105 228.5,105 228.5,105 220,115.5 220,115.5 218.18,119.14 225,123.633 225,127 225,127 226,132 226,132 219.54,132 223,155.464 223,160 223,160 215,157 215,157 215,157 214,157 214,157 214,157 213,156 213,156 206.966,156 202.863,147 197,147 197,145.421 194.145,146 193,146 193,146 191,145 191,145 191,145 191,144 191,144 191,144 190,143 190,143 190,143 188,133 188,133 188,125.503 191,119.523 191,112 191,112 194,105.5 194,105.5 197.529,98.443 202.811,92.8447 210.5,89 214.515,86.9924 242.505,87.0024 246.5,89 251.157,91.3287 257.599,96.6979 260,101.5 261.863,105.225 265,107.465 265,112 265,116.219 266.2,121.9 268,125.5 268.619,126.738 266.856,131 269,131 269,136.009 266,139.535 266,144 266,144 265,145 265,145 265,145 264,146 264,146 262.765,146 259,145.357 259,147 253.582,147 248.764,156 243,156 243,156 242,157 242,157  Z"/>

<path  fill="#FE79FE" stroke-width="0" stroke="#FE79FE" d = " M313 108 C313,114.681 316.444,119.612 313,126.5 307.694,137.113 290,128.209 290,119 291.643,119 291,115.235 291,114 291,112.763 292.394,100 290,100 290,100 291,95 291,95 291,90.6112 297.599,87.5494 300.5,89 304.001,90.7504 312.498,107 313,107 313,107 313,108 313,108  Z"/>

<path  fill="#0A828A" stroke-width="0" stroke="#0A828A" d = " M378 93 L382,96 C385.013,96 380.804,90 379,90 379,90 378,92 378,92 378,92 378,93 378,93  Z"/>

<path  fill="#0A828A" stroke-width="0" stroke="#0A828A" d = " M78 93 L75,96 C71.5027,96 74.9361,91 77,91 77,91 78,93 78,93  Z"/>

<path  fill="#0B838A" stroke-width="0" stroke="#0B838A" d = " M67 118 L61,119 C61,113.306 75,97.8552 75,96 75,96 78,93 78,93 78,93 79,93 79,93 79,97.7256 81,98.7276 81,104.5 81,104.5 85,105 85,105 85,105 83,107 83,107 83,107 82,108 82,108 82,108 81,109 81,109 81,109 74.5,114 74.5,114 74.5,114 67,118 67,118  Z"/>

<path  fill="#72D568" stroke-width="0" stroke="#72D568" d = " M109 165 C109,167.361 108.265,178 111,178 112.86,178 115.113,167.274 116,165.5 118.076,161.347 129,128.472 129,125 129,125 125,117.5 125,117.5 123.317,114.134 112,93.8916 112,93 109.903,93 103,94.5329 103,97 104.145,97 107,96.4209 107,98 107,99.648 111,98.7557 111,102 113.261,102 111.297,108.094 112,109.5 115.946,117.391 111,127.983 111,136 111,139.24 110.359,142.781 109,145.5 109,145.5 109,165 109,165  Z"/>

<path  fill="#72D568" stroke-width="0" stroke="#72D568" d = " M348 165 C348,166.803 347.058,179 345,179 345,175.805 342.403,171.306 341,168.5 337.92,162.341 328,131.401 328,125 328,119.029 345,95.4834 345,93 346.831,93 354,95.1834 354,97 352.855,97 350,96.4209 350,98 346.384,98 345,101.953 345,105 345,109.122 340.636,115.773 343,120.5 344.98,124.459 345,130.281 345,135 345,137.128 346.054,140.608 347,142.5 347,142.5 348,165 348,165  Z"/>

<path  fill="#0B838A" stroke-width="0" stroke="#0B838A" d = " M389 118 L396,120 C396,112.759 382,101.645 382,96 382,96 378,93 378,93 378,95.0975 375.895,96.7096 375,98.5 375,98.5 375,104.5 375,104.5 375,104.5 372,106 372,106 372,106 373,107 373,107 374.747,107 375,107.253 375,109 377.979,109 383.738,114.619 386.5,116 386.5,116 389,118 389,118  Z"/>

<path  fill="#C8CBCC" stroke-width="0" stroke="#C8CBCC" d = " M107 98 L99,99 C99,96.891 101.535,97 103,97 104.145,97 107,96.4209 107,98  Z"/>

<path  fill="#C8CBCC" stroke-width="0" stroke="#C8CBCC" d = " M350 98 L358,99 C358,96.891 355.465,97 354,97 352.855,97 350,96.4209 350,98  Z"/>

<path  fill="#30B724" stroke-width="0" stroke="#30B724" d = " M64 185 L64,186 C71.8298,186 74.9456,195.277 83.5,191 90.2259,187.637 88.4493,175.601 91,170.5 97.0512,158.398 96.5816,135.337 103,122.5 105.647,117.206 111,108.001 111,102 111,98.7557 107,99.648 107,98 107,98 99,99 99,99 99,99 92,115.5 92,115.5 92,115.5 91,124.5 91,124.5 86.0192,134.462 87.9697,147.561 83,157.5 80.6001,162.3 82.8403,169.83 76.5,173 71.0717,175.714 71.3984,167 69,167 67.0485,167 68.5228,169.454 68,170.5 68,170.5 64,185 64,185  Z"/>

<path  fill="#30B724" stroke-width="0" stroke="#30B724" d = " M387 166 C388.014,166 389,169.959 389,171 L392,186 C387.134,186 381.745,195.123 375.5,192 361.957,185.229 363.816,151.133 357,137.5 357,137.5 357,133.5 357,133.5 353.624,126.747 352.382,119.264 349,112.5 348.272,111.044 347.13,105 345,105 345,101.953 346.384,98 350,98 350,98 358,99 358,99 358,99 365,117.5 365,117.5 367.1,121.699 364.92,128.34 367,132.5 372.788,144.076 371.189,158.878 377,170.5 380.322,177.145 387,170.722 387,166  Z"/>

<path  fill="#C8CBCC" stroke-width="0" stroke="#C8CBCC" d = " M96 99 L95,100 C95,100 96,99 96,99  Z"/>

<path  fill="#32B623" stroke-width="0" stroke="#32B623" d = " M69 162 L69,167 C71.3984,167 71.0717,175.714 76.5,173 82.8403,169.83 80.6001,162.3 83,157.5 87.9697,147.561 86.0192,134.462 91,124.5 91,124.5 92,115.5 92,115.5 92,115.5 99,99 99,99 99,99 96,99 96,99 96,99 95,100 95,100 95,100 88,103 88,103 88,103 87,104 87,104 87,104 85,105 85,105 85,105 83,107 83,107 83,107 82,109 82,109 82,109 81,111 81,111 81,111 81,113 81,113 81,118.934 74.4978,146.504 72,151.5 71.1844,153.131 71.1134,162 69,162  Z"/>

<path  fill="#32B623" stroke-width="0" stroke="#32B623" d = " M387 162 L387,166 C387,170.722 380.322,177.145 377,170.5 371.189,158.878 372.788,144.076 367,132.5 364.92,128.34 367.1,121.699 365,117.5 365,117.5 358,99 358,99 358,99 360,99 360,99 360,99 361,100 361,100 361,100 368,103 368,103 368,103 372,106 372,106 372,106 373,107 373,107 373,107 375,110 375,110 375,110 375,112 375,112 375,119.544 377.789,129.077 381,135.5 383.732,140.964 382.242,151.984 385,157.5 385,157.5 387,162 387,162  Z"/>

<path  fill="#C8CBCC" stroke-width="0" stroke="#C8CBCC" d = " M360 99 L361,100 C361,100 360,99 360,99  Z"/>

<path  fill="#FE79FF" stroke-width="0" stroke="#FE79FF" d = " M290 100 C292.394,100 291,112.763 291,114 291,115.235 291.643,119 290,119 275.34,119 290,101.244 290,100  Z"/>

<path  fill="#FE79FF" stroke-width="0" stroke="#FE79FF" d = " M166 101 C171.318,101 176.776,119 166,119 164.386,119 165,115.69 165,114.5 165,110.055 166,104.788 166,101  Z"/>

<path  fill="#31B723" stroke-width="0" stroke="#31B723" d = " M64 186 L62,195 C62,197.236 67.0743,198.287 68.5,199 76.8596,203.18 87.4602,208.58 93,197.5 94.8616,193.777 93.1693,188.161 95,184.5 100.164,174.172 98.7943,160.911 104,150.5 104.98,148.54 108.961,136 111,136 111,127.983 115.946,117.391 112,109.5 111.297,108.094 113.261,102 111,102 111,108.001 105.647,117.206 103,122.5 96.5816,135.337 97.0512,158.398 91,170.5 88.4493,175.601 90.2259,187.637 83.5,191 74.9456,195.277 71.8298,186 64,186  Z"/>

<path  fill="#08838C" stroke-width="0" stroke="#08838C" d = " M88 103 L87,104 C87,104 88,103 88,103  Z"/>

<path  fill="#FF64FF" stroke-width="0" stroke="#FF64FF" d = " M145 104 C142.891,104 143,106.535 143,108 145.109,108 145,105.465 145,104  Z"/>

<path  fill="#A9A9A8" stroke-width="0" stroke="#A9A9A8" d = " M225 127 C227.413,127 228.587,127 231,127 231,127 237,115.5 237,115.5 237,115.5 231,109.5 231,109.5 231,109.5 228.5,105 228.5,105 228.5,105 220,115.5 220,115.5 218.18,119.14 225,123.633 225,127  Z"/>

<path  fill="#31B723" stroke-width="0" stroke="#31B723" d = " M395 195 L395,196 C389.712,196 370.993,212.485 365,200.5 357.742,185.983 360.286,167.072 353,152.5 351.884,150.268 347.335,135 345,135 345,130.281 344.98,124.459 343,120.5 340.636,115.773 345,109.122 345,105 347.13,105 348.272,111.044 349,112.5 352.382,119.264 353.624,126.747 357,133.5 357,133.5 357,137.5 357,137.5 363.816,151.133 361.957,185.229 375.5,192 381.745,195.123 387.134,186 392,186 392,186 393,186 393,186 393,189.447 395,192.245 395,195  Z"/>

<path  fill="#30B724" stroke-width="0" stroke="#30B724" d = " M82 108 L82,109 C82,109 83,107 83,107 83,107 82,108 82,108  Z"/>

<path  fill="#30B724" stroke-width="0" stroke="#30B724" d = " M375 109 L375,110 C375,110 373,107 373,107 374.747,107 375,107.253 375,109  Z"/>

<path  fill="#31B824" stroke-width="0" stroke="#31B824" d = " M81 109 L82,109 C82,109 82,108 82,108 82,108 81,109 81,109  Z"/>

<path  fill="#31B824" stroke-width="0" stroke="#31B824" d = " M69 167 C67.0485,167 68.5228,169.454 68,170.5 L64,185 C61.8434,185 60,171.436 60,168.5 60,162.131 61.1224,135.255 63,131.5 63,131.5 67,118 67,118 67,118 74.5,114 74.5,114 74.5,114 81,109 81,109 81,109 81,111 81,111 81,111 81,113 81,113 81,113 75,123.5 75,123.5 69.2118,135.076 69,147.959 69,162 69,162 69,167 69,167  Z"/>

<path  fill="#30B724" stroke-width="0" stroke="#30B724" d = " M82 109 L81,111 C81,111 81,109 81,109 81,109 82,109 82,109  Z"/>

<path  fill="#31B824" stroke-width="0" stroke="#31B824" d = " M392 186 L393,186 C393,179.118 400.927,163.355 397,155.5 393.926,149.352 395.48,134.459 393,129.5 391.811,127.121 389,120.461 389,118 389,118 386.5,116 386.5,116 383.738,114.619 377.979,109 375,109 375,109 375,110 375,110 375,110 375,112 375,112 375,112 379,119.5 379,119.5 381.06,123.621 382.989,127.479 385,131.5 387.592,136.684 385.387,144.273 388,149.5 388.784,151.067 388.194,162 387,162 387,162 387,166 387,166 388.014,166 389,169.959 389,171 389,171 392,186 392,186  Z"/>

<path  fill="#32B824" stroke-width="0" stroke="#32B824" d = " M375 112 L379,119.5 C381.06,123.621 382.989,127.479 385,131.5 387.592,136.684 385.387,144.273 388,149.5 388.784,151.067 388.194,162 387,162 387,162 385,157.5 385,157.5 382.242,151.984 383.732,140.964 381,135.5 377.789,129.077 375,119.544 375,112  Z"/>

<path  fill="#32B824" stroke-width="0" stroke="#32B824" d = " M81 113 L75,123.5 C69.2118,135.076 69,147.959 69,162 71.1134,162 71.1844,153.131 72,151.5 74.4978,146.504 81,118.934 81,113  Z"/>

<path  fill="#32B725" stroke-width="0" stroke="#32B725" d = " M61 195 L62,195 C62,195 64,186 64,186 64,186 64,185 64,185 61.8434,185 60,171.436 60,168.5 60,162.131 61.1224,135.255 63,131.5 63,131.5 67,118 67,118 67,118 61,119 61,119 61,119 60,120 60,120 60,120 59,121 59,121 59,131.569 48.9575,165.415 53,173.5 54.4811,176.462 61,192.54 61,195  Z"/>

<path  fill="#32B725" stroke-width="0" stroke="#32B725" d = " M393 186 C393,189.447 395,192.245 395,195 396.939,195 400.017,181.466 401,179.5 409.849,161.802 397,138.584 397,121 397,121 396,120 396,120 396,120 389,118 389,118 389,120.461 391.811,127.121 393,129.5 395.48,134.459 393.926,149.352 397,155.5 400.927,163.355 393,179.118 393,186  Z"/>

<path  fill="#32B825" stroke-width="0" stroke="#32B825" d = " M60 120 L59,121 C59,121 60,120 60,120  Z"/>

<path  fill="#32B825" stroke-width="0" stroke="#32B825" d = " M61 195 C61,198.303 59,200.115 59,203 53.9314,203 50.973,192.446 49,188.5 37.1636,164.827 49,152.801 49,129 49,129 49,127 49,127 53.0379,127 55.4761,121 59,121 59,131.569 48.9575,165.415 53,173.5 54.4811,176.462 61,192.54 61,195  Z"/>

<path  fill="#32B825" stroke-width="0" stroke="#32B825" d = " M395 196 C395,196.978 397.267,203 398,203 402.9,203 405.612,192.275 407,189.5 419.442,164.616 407,152.475 407,128 407,128 407,127 407,127 402.894,127 400.95,121 397,121 397,138.584 409.849,161.802 401,179.5 400.017,181.466 396.939,195 395,195 395,195 395,196 395,196  Z"/>

<path  fill="#FF64FF" stroke-width="0" stroke="#FF64FF" d = " M226 132 L231,132 C231,132 231,127 231,127 228.587,127 227.413,127 225,127 225,127 226,132 226,132  Z"/>

<path  fill="#FC90FF" stroke-width="0" stroke="#FC90FF" d = " M163 153 L164,153 C164,153 181,152 181,152 181,152 182,152 182,152 182,150.527 183.952,151 185,151 185,151 186,150 186,150 186,150 191,145 191,145 191,145 191,144 191,144 191,144 190,143 190,143 190,143 188,133 188,133 188,133 185.5,128 185.5,128 180.488,125.494 164.214,141.072 162,145.5 162,145.5 163,153 163,153  Z"/>

<path  fill="#FC90FF" stroke-width="0" stroke="#FC90FF" d = " M292 153 L293,153 C293,151.016 296.278,149.055 295,146.5 292.091,140.682 283.749,136.998 281,131.5 279.787,129.075 269,125.186 269,131 269,136.009 266,139.535 266,144 266,144 266,145 266,145 266,148.506 271,148.428 271,151 272.048,151 274,150.527 274,152 274,152 276,152 276,152 276,152 292,153 292,153  Z"/>

<path  fill="#32B722" stroke-width="0" stroke="#32B722" d = " M398 204 L400,209 C405.308,209 410.408,196.684 412,193.5 416.828,183.845 422.505,166.511 417,155.5 417,155.5 417,150.5 417,150.5 414.57,145.639 412,137.626 412,132 412,132 407,128 407,128 407,152.475 419.442,164.616 407,189.5 405.612,192.275 402.9,203 398,203 398,203 398,204 398,204  Z"/>

<path  fill="#32B722" stroke-width="0" stroke="#32B722" d = " M59 205 L56,209 C51.1536,209 46.4514,197.403 45,194.5 40.7259,185.952 33.7399,169.02 39,158.5 39,158.5 39,151.5 39,151.5 41.6079,146.284 44,139.165 44,133 45.9065,133 46.3821,129 49,129 49,152.801 37.1636,164.827 49,188.5 50.973,192.446 53.9314,203 59,203 59,203 59,205 59,205  Z"/>

<path  fill="#C9C9CB" stroke-width="0" stroke="#C9C9CB" d = " M158 178 C158,181.363 152,191.163 152,184 152,177.748 153.418,171.664 156,166.5 158.12,162.261 153,157.406 153,154 153,148.722 156,146.347 156,141 156,139.156 152.323,136.854 153,135.5 153.836,133.828 166.909,129.319 168,131.5 168.985,133.47 163.828,137.843 163,139.5 160.66,144.18 161,149.32 161,155 161,161.76 159,166.344 159,173 157.357,173 158,176.765 158,178  Z"/>

<path  fill="#C9C9CB" stroke-width="0" stroke="#C9C9CB" d = " M299 179 C299,180.852 299.64,187 302.5,187 L305,185 C305,179.382 303.315,175.13 301,170.5 298.589,165.678 303,158.74 303,155 303,155 304,154 304,154 304,149.683 301.758,147.017 300,143.5 298.459,140.418 303.94,137.38 303,135.5 302.068,133.637 289.184,129.133 288,131.5 287.255,132.991 292.192,137.884 293,139.5 295.919,145.338 296,150.878 296,158 296,158 297,168 297,168 297.706,168 299,177.958 299,179  Z"/>

<path  fill="#FDA6FF" stroke-width="0" stroke="#FDA6FF" d = " M225 166 C225.645,166 231,172.295 231,166 231,166 231,165 231,165 231,165 232,163 232,163 232,163 233,160 233,160 233,155.461 237.288,132 231,132 231,132 226,132 226,132 219.54,132 223,155.464 223,160 223,160 225,164 225,164 225,164 225,166 225,166  Z"/>

<path  fill="#30B824" stroke-width="0" stroke="#30B824" d = " M398 203 L398,204 C398,204 390.5,209 390.5,209 384.096,212.202 371.017,217.758 363.5,214 355.591,210.045 355.794,186.088 352,178.5 351.13,176.76 349.569,165 348,165 348,165 347,142.5 347,142.5 346.054,140.608 345,137.128 345,135 347.335,135 351.884,150.268 353,152.5 360.286,167.072 357.742,185.983 365,200.5 370.993,212.485 389.712,196 395,196 395,196.978 397.267,203 398,203  Z"/>

<path  fill="#30B824" stroke-width="0" stroke="#30B824" d = " M59 203 L59,205 C68.0116,205 78.9649,220.768 94.5,213 99.8441,210.328 101.821,182.858 105,176.5 105.983,174.533 105.984,165 109,165 109,165 109,145.5 109,145.5 110.359,142.781 111,139.24 111,136 108.961,136 104.98,148.54 104,150.5 98.7943,160.911 100.164,174.172 95,184.5 93.1693,188.161 94.8616,193.777 93,197.5 87.4602,208.58 76.8596,203.18 68.5,199 67.0743,198.287 62,197.236 62,195 62,195 61,195 61,195 61,198.303 59,200.115 59,203  Z"/>

<path  fill="#FF64FF" stroke-width="0" stroke="#FF64FF" d = " M190 143 L191,144 C191,144 190,143 190,143  Z"/>

<path  fill="#FF64FF" stroke-width="0" stroke="#FF64FF" d = " M265 145 L266,145 C266,145 266,144 266,144 266,144 265,145 265,145  Z"/>

<path  fill-rule="evenodd" fill="#FF8FFD" stroke-width="0" stroke="#FF8FFD" d = " M211 158 C211,164.731 220.745,158 211,158  M213 188 C213,186.543 217.377,188 219,188 219,188 219,185 219,185 200.637,185 220,163.131 220,183 222.337,183 222,169.834 222,168 222,165.633 218,163.968 218,161 218,161 215,157 215,157 215,157 214,157 214,157 214,157 213,156 213,156 206.966,156 202.863,147 197,147 197,148.775 193,148.547 193,146 193,146 191,145 191,145 191,145 186,150 186,150 186,150 185,151 185,151 185,151 186,153 186,153 188.561,153 191,159.201 191,162 201.496,162 232.173,172 200,172 200,173.804 202.182,177.136 201,179.5 199.343,182.814 187.265,185 184,185 184,185 185,186 185,186 185,186 195.5,185 195.5,185 197.64,186.07 199.387,187 202,187 202,187 213,188 213,188  Z"/>

<path  fill-rule="evenodd" fill="#FF8FFD" stroke-width="0" stroke="#FF8FFD" d = " M238 175 C238,177.014 235.716,180.932 237,183.5 240.521,190.542 253.982,175 238,175  M237 188 C239.833,188 241.84,188 244,188 244,188 254,187 254,187 256.654,187 259.275,186.112 261.5,185 261.5,185 271,186 271,186 271,186 272,185 272,185 268.09,185 257.03,182.561 255,178.5 253.437,175.373 257,173.298 257,172 254.69,172 243.962,173.423 243,171.5 239.938,165.375 260.569,162 265,162 265,157.534 271,155.371 271,152 271,152 271,151 271,151 271,148.428 266,148.506 266,145 266,145 265,145 265,145 265,145 264,146 264,146 264,149.669 260.076,147 259,147 253.582,147 248.764,156 243,156 243,156 242,157 242,157 242,157 242,158 242,158 250.884,158 241,164.369 241,159 241,159 238,161 238,161 238,162.572 235.948,168 234,168 234,168 233,173.5 233,173.5 235.087,177.674 237,183.059 237,188  Z"/>

<path  fill="#C8C9C8" stroke-width="0" stroke="#C8C9C8" d = " M193 146 C194.145,146 197,145.421 197,147 197,148.775 193,148.547 193,146  Z"/>

<path  fill="#C8C9C8" stroke-width="0" stroke="#C8C9C8" d = " M264 146 C262.765,146 259,145.357 259,147 260.076,147 264,149.669 264,146  Z"/>

<path  fill="#C9C9CB" stroke-width="0" stroke="#C9C9CB" d = " M137 192 C137,193.712 139.571,195 141,195 141,195 140,189 140,189 140,180.033 140,170.636 140,161 140,158.653 141.18,145.16 137.5,147 136.002,147.749 138.205,151 136,151 136,162.348 135,175.013 135,187 135,187 137,192 137,192  Z"/>

<path  fill="#C9C9CB" stroke-width="0" stroke="#C9C9CB" d = " M320 192 L315,196 C315,196 316,189 316,189 317.306,189 318,182.931 318,181.5 318,174.159 316,167.107 316,159 316,156.212 314.657,148.421 317.5,147 317.5,147 320,149 320,149 320,152.24 320.641,155.781 322,158.5 322,158.5 321,188 321,188 321,188 320,192 320,192  Z"/>

<path  fill="#FF64FF" stroke-width="0" stroke="#FF64FF" d = " M186 150 L185,151 C185,151 186,150 186,150  Z"/>

<path  fill="#FF64FF" stroke-width="0" stroke="#FF64FF" d = " M182 152 L186,153 C186,153 185,151 185,151 183.952,151 182,150.527 182,152  Z"/>

<path  fill="#FF64FF" stroke-width="0" stroke="#FF64FF" d = " M271 152 L274,152 C274,150.527 272.048,151 271,151 271,151 271,152 271,152  Z"/>

<path  fill="#FF64FF" stroke-width="0" stroke="#FF64FF" d = " M181 152 L164,153 C164,156.604 175.65,153.925 177.5,153 178.546,152.477 181,153.951 181,152  Z"/>

<path  fill="#FFA5FD" stroke-width="0" stroke="#FFA5FD" d = " M160 178 C160,179.606 161.501,180.501 162.5,181 175.056,187.278 169.868,185 184,185 187.265,185 199.343,182.814 201,179.5 202.182,177.136 200,173.804 200,172 195.672,172 188.361,175 187.5,175 187.5,175 186,173.5 186,173.5 186,173.5 190,169.5 190,169.5 190.417,168.665 191,162.599 191,162 191,159.201 188.561,153 186,153 186,153 182,152 182,152 182,152 181,152 181,152 181,153.951 178.546,152.477 177.5,153 175.65,153.925 164,156.604 164,153 164,153 163,153 163,153 163,153 161,155 161,155 161,161.76 159,166.344 159,173 159,173 160,178 160,178  Z"/>

<path  fill="#FFA5FD" stroke-width="0" stroke="#FFA5FD" d = " M297 178 L294,181.5 L286.5,186 C282.615,187.942 275.612,185 272,185 268.09,185 257.03,182.561 255,178.5 253.437,175.373 257,173.298 257,172 261.453,172 268.556,174.972 270.5,174 270.5,174 267,169.5 267,169.5 266.435,168.37 266.164,162 265,162 265,157.534 271,155.371 271,152 271,152 274,152 274,152 274,152 276,152 276,152 276,153.885 292,156.616 292,153 292,153 293,153 293,153 293,153 296,158 296,158 296,158 297,168 297,168 297,168 297,178 297,178  Z"/>

<path  fill="#FF64FF" stroke-width="0" stroke="#FF64FF" d = " M276 152 L292,153 C292,156.616 276,153.885 276,152  Z"/>

<path  fill="#FFAC6F" stroke-width="0" stroke="#FFAC6F" d = " M152 184 C151.316,184 149.589,189.955 147.5,191 144.383,192.558 142.099,189 140,189 140,180.033 140,170.636 140,161 140.436,161 143.342,154.079 145.5,153 145.5,153 153,154 153,154 153,157.406 158.12,162.261 156,166.5 153.418,171.664 152,177.748 152,184  Z"/>

<path  fill="#FFAC6F" stroke-width="0" stroke="#FFAC6F" d = " M305 185 C305,195.721 314.443,189 316,189 317.306,189 318,182.931 318,181.5 318,174.159 316,167.107 316,159 315.628,159 312.172,153.836 310.5,153 308.339,151.919 305.606,154 304,154 304,154 303,155 303,155 303,158.74 298.589,165.678 301,170.5 303.315,175.13 305,179.382 305,185  Z"/>

<path  fill="#FF64FF" stroke-width="0" stroke="#FF64FF" d = " M304 154 L303,155 C303,155 304,154 304,154  Z"/>

<path  fill="#FF64FF" stroke-width="0" stroke="#FF64FF" d = " M213 156 L214,157 C214,157 213,156 213,156  Z"/>

<path  fill="#FF64FF" stroke-width="0" stroke="#FF64FF" d = " M243 156 L242,157 C242,157 243,156 243,156  Z"/>

<path  fill="#FF64FF" stroke-width="0" stroke="#FF64FF" d = " M218 161 C221.145,161 222.833,164 225,164 225,164 223,160 223,160 223,160 215,157 215,157 215,157 218,161 218,161  Z"/>

<path  fill="#FF64FF" stroke-width="0" stroke="#FF64FF" d = " M238 161 C235.517,161 233.974,163 232,163 232,163 233,160 233,160 236.083,160 238.545,157 242,157 242,157 242,158 242,158 242,158 241,159 241,159 241,159 238,161 238,161  Z"/>

<path  fill="#FE8DFE" stroke-width="0" stroke="#FE8DFE" d = " M211 158 C211,164.731 220.745,158 211,158  Z"/>

<path  fill="#FE8DFE" stroke-width="0" stroke="#FE8DFE" d = " M242 158 C250.884,158 241,164.369 241,159 241,159 242,158 242,158  Z"/>

<path  fill="#CBCBCC" stroke-width="0" stroke="#CBCBCC" d = " M225 166 C225,167.577 223.238,168 222,168 222,165.633 218,163.968 218,161 221.145,161 222.833,164 225,164 225,164 225,166 225,166  Z"/>

<path  fill="#CBCBCC" stroke-width="0" stroke="#CBCBCC" d = " M231 166 L234,168 C235.948,168 238,162.572 238,161 235.517,161 233.974,163 232,163 232,163 231,165 231,165 231,165 231,166 231,166  Z"/>

<path  fill="#CBC9CB" stroke-width="0" stroke="#CBC9CB" d = " M191 162 C201.496,162 232.173,172 200,172 195.672,172 188.361,175 187.5,175 187.5,175 186,173.5 186,173.5 186,173.5 190,169.5 190,169.5 190.417,168.665 191,162.599 191,162  Z"/>

<path  fill="#CBC9CB" stroke-width="0" stroke="#CBC9CB" d = " M265 162 C266.164,162 266.435,168.37 267,169.5 L270.5,174 C268.556,174.972 261.453,172 257,172 254.69,172 243.962,173.423 243,171.5 239.938,165.375 260.569,162 265,162  Z"/>

<path  fill="#FF64FF" stroke-width="0" stroke="#FF64FF" d = " M232 163 L231,165 C231,165 232,163 232,163  Z"/>

<path  fill="#31B625" stroke-width="0" stroke="#31B625" d = " M59 205 L56,209 C56,209 63.5,215 63.5,215 66.8946,216.697 91.029,222.735 94.5,221 102.282,217.109 111,186.305 111,178 108.265,178 109,167.361 109,165 105.984,165 105.983,174.533 105,176.5 101.821,182.858 99.8441,210.328 94.5,213 78.9649,220.768 68.0116,205 59,205  Z"/>

<path  fill="#31B625" stroke-width="0" stroke="#31B625" d = " M398 204 L400,209 C400,209 393.5,215 393.5,215 390.426,216.537 365.401,222.451 362.5,221 355.315,217.408 345,186.992 345,179 347.058,179 348,166.803 348,165 349.569,165 351.13,176.76 352,178.5 355.794,186.088 355.591,210.045 363.5,214 371.017,217.758 384.096,212.202 390.5,209 390.5,209 398,204 398,204  Z"/>

<path  fill="#FF64FF" stroke-width="0" stroke="#FF64FF" d = " M219 188 C221.198,188 227.466,190.517 228.5,190 231.372,188.564 233.466,188 237,188 237,183.059 235.087,177.674 233,173.5 233,173.5 234,168 234,168 234,168 231,166 231,166 231,172.295 225.645,166 225,166 225,167.577 223.238,168 222,168 222,169.834 222.337,183 220,183 220,183 219,185 219,185 219,185 219,188 219,188  Z"/>

<path  fill="#FF64FF" stroke-width="0" stroke="#FF64FF" d = " M297 178 L299,179 C299,177.958 297.706,168 297,168 297,168 297,178 297,178  Z"/>

<path  fill="#FF64FF" stroke-width="0" stroke="#FF64FF" d = " M158 178 L160,178 C160,178 159,173 159,173 157.357,173 158,176.765 158,178  Z"/>

<path  fill="#FC90FE" stroke-width="0" stroke="#FC90FE" d = " M220 183 L219,185 C200.637,185 220,163.131 220,183  Z"/>

<path  fill="#FC90FE" stroke-width="0" stroke="#FC90FE" d = " M238 175 C238,177.014 235.716,180.932 237,183.5 240.521,190.542 253.982,175 238,175  Z"/>

<path  fill-rule="evenodd" fill="#FF9B88" stroke-width="0" stroke="#FF9B88" d = " M148 192 C148,193.951 145.546,192.477 144.5,193 142.406,194.047 145.219,199.36 146.5,200 149.466,201.483 150.082,192 148,192  M159 183 C159,184.791 155.73,185.959 157,188.5 159.183,192.867 168.172,183 159,183  M169 241 C166.07,241 167.916,244 166,244 166,239.459 160,230.88 160,240 160,240 158.5,238 158.5,238 158.5,238 156,241 156,241 156,232.55 152.608,221.716 149,214.5 148.43,213.36 148.426,204.037 144.5,206 132.828,211.836 139,227.93 139,237 137.817,237 137.465,233.43 137,232.5 137,232.5 131,226 131,226 131,218.115 138.6,208.301 142,201.5 142,201.5 141,195 141,195 141,195 140,189 140,189 142.099,189 144.383,192.558 147.5,191 149.589,189.955 151.316,184 152,184 152,191.163 158,181.363 158,178 158,178 160,178 160,178 160,179.606 161.501,180.501 162.5,181 175.056,187.278 169.868,185 184,185 184,185 185,186 185,186 185,187.55 178.772,188.364 177.5,189 177.5,189 174,193 174,193 174,189.913 167.04,191 165,191 154.564,191 141.562,207 159,207 159,207 157,209.5 157,209.5 155.619,212.262 160.895,230.197 162.5,231 167.767,233.634 169.503,230 173,230 173,230 173,233 173,233 170.056,233 169,238.939 169,241  Z"/>

<path  fill-rule="evenodd" fill="#FF9B88" stroke-width="0" stroke="#FF9B88" d = " M286 283 C286,287.42 287.206,283 286,283  M288 282 C288,283.93 289.93,282 288,282  M289 281 C289,282.93 290.93,281 289,281  M307 193 C307,206.388 319.764,193 307,193  M295 183 C295,184.602 291.942,185.384 293,187.5 296.088,193.676 304.423,183 295,183  M283 285 C284.747,285 285,285.253 285,287 286.822,287 293,283.289 293,281 293,281 291,281 291,281 288.627,281 291,277.664 291,280 293.023,280 299.893,264 300.5,264 302.235,264 303.702,268.097 303,269.5 302.191,271.119 301,270.971 301,273 301,273 311.5,263 311.5,263 313.615,261.942 316.461,262.019 318.5,261 318.5,261 326.5,253 326.5,253 326.5,253 333,248.5 333,248.5 335.436,243.628 334.579,237.342 337,232.5 337,232.5 335,226 335,226 335,226 332,227 332,227 332,238.593 329.437,249.532 318.5,255 314.985,256.758 300,261.535 300,252.5 300,249.303 307,252.567 307,250 305.005,250 302.081,250.662 301,248.5 297.613,241.727 304.359,220.781 307,215.5 308.411,212.677 306.771,207.865 310.5,206 314.399,204.051 316.191,212.881 317,214.5 318.405,217.309 319,218.526 319,222 319,222 318,235 318,235 320.522,235 322.165,226 326,226 326,216.687 315,209.617 315,196 315,196 316,189 316,189 314.443,189 305,195.721 305,185 305,185 302.5,187 302.5,187 299.64,187 299,180.852 299,179 299,179 297,178 297,178 297,178 294,181.5 294,181.5 294,181.5 286.5,186 286.5,186 282.615,187.942 275.612,185 272,185 272,185 271,186 271,186 271,187.149 275.516,187.508 276.5,188 276.5,188 283,193 283,193 283,189.837 290.871,191 293,191 293,191 295.5,193 295.5,193 295.5,193 299.5,193 299.5,193 304.811,195.656 308.815,203.842 302.5,207 300.544,207.978 298.423,206 297,206 297,208.029 298.191,207.881 299,209.5 301.97,215.439 296.054,229.723 291.5,232 287.539,233.98 284.78,229 283,229 283,229 283,233 283,233 286.215,233 287,238.119 287,241 289.747,241 290,241.253 290,244 290,244 294.5,235 294.5,235 294.5,235 297,239 297,239 297,237.619 301.637,242.227 300,245.5 298.4,248.7 298.322,245 297,245 297,246.274 301.251,262.625 298.5,264 295.711,265.394 295.465,261 294,261 294,264.983 294.053,278 288,278 288,281.153 283,282.304 283,285  Z"/>

<path  fill="#FFAD6D" stroke-width="0" stroke="#FFAD6D" d = " M159 183 C159,184.791 155.73,185.959 157,188.5 159.183,192.867 168.172,183 159,183  Z"/>

<path  fill="#FF8FFD" stroke-width="0" stroke="#FF8FFD" d = " M220 183 L219,185 C219,185 220,183 220,183  Z"/>

<path  fill="#FFAD6D" stroke-width="0" stroke="#FFAD6D" d = " M295 183 C295,184.602 291.942,185.384 293,187.5 296.088,193.676 304.423,183 295,183  Z"/>

<path  fill="#FFC295" stroke-width="0" stroke="#FFC295" d = " M177 238 C187.026,238 198.192,238 208,238 208,235.957 209.681,233 212,233 212,233 216,227.5 216,227.5 217.813,223.874 214,219.86 214,217 211.243,217 205.889,203 211,203 211,195.413 202,189.402 202,187 199.387,187 197.64,186.07 195.5,185 195.5,185 185,186 185,186 185,187.55 178.772,188.364 177.5,189 177.5,189 174,193 174,193 174,195.978 173,199.49 173,203 174.473,203 174,204.952 174,206 174,214.172 173,221.466 173,230 173,230 173,233 173,233 175.96,233 177,235.399 177,238  Z"/>

<path  fill="#FFC295" stroke-width="0" stroke="#FFC295" d = " M248 238 C257.856,238 268.939,238 279,238 279,235.957 280.681,233 283,233 283,233 283,229 283,229 283,229 282,207 282,207 282,207 283,206 283,206 283,206 283,205 283,205 283,205 283,204 283,204 283,204 283,193 283,193 283,193 276.5,188 276.5,188 275.516,187.508 271,187.149 271,186 271,186 261.5,185 261.5,185 259.275,186.112 256.654,187 254,187 254,188.991 246,195.353 246,203 249.251,203 245.481,213.539 245,214.5 245,214.5 242,218 242,218 242,218 240,226.5 240,226.5 240.654,227.808 244,231.814 244,233 246.548,233 248,235.687 248,238  Z"/>

<path  fill="#F0F080" stroke-width="0" stroke="#F0F080" d = " M127 192 L137,192 C137,192 135,187 135,187 131.018,187 127,187.585 127,192  Z"/>

<path  fill="#FF9B88" stroke-width="0" stroke="#FF9B88" d = " M211 203 L214,206 C214,206 213,188 213,188 213,188 202,187 202,187 202,189.402 211,195.413 211,203  Z"/>

<path  fill="#FFC393" stroke-width="0" stroke="#FFC393" d = " M217 217 C217,220.303 220.571,228.464 225.5,226 227.533,224.983 226.356,216 228.5,216 228.74,216 229.686,225.093 231.5,226 235.3,227.9 240,219.327 240,217 240,213.23 242,209.979 242,207 242,207 243,206 243,206 243,206 243,205 243,205 243,205 244,188 244,188 241.84,188 239.833,188 237,188 233.466,188 231.372,188.564 228.5,190 227.466,190.517 221.198,188 219,188 217.377,188 213,186.543 213,188 213,188 214,206 214,206 214,209.58 217,212.832 217,217  Z"/>

<path  fill="#FF9B88" stroke-width="0" stroke="#FF9B88" d = " M246 203 L243,205 C243,205 244,188 244,188 244,188 254,187 254,187 254,188.991 246,195.353 246,203  Z"/>

<path  fill="#F0F080" stroke-width="0" stroke="#F0F080" d = " M320 192 C323.325,192 327.31,193 330,193 330,186.208 324.824,188 321,188 321,188 320,192 320,192  Z"/>

<path  fill="#FEBA86" stroke-width="0" stroke="#FEBA86" d = " M160 206 L166,206 C166,204.357 169.765,205 171,205 171,205 172,205 172,205 172,205 173,203 173,203 173,199.49 174,195.978 174,193 174,189.913 167.04,191 165,191 154.564,191 141.562,207 159,207 159,207 160,206 160,206  Z"/>

<path  fill="#FEBA86" stroke-width="0" stroke="#FEBA86" d = " M290 206 L297,206 C298.423,206 300.544,207.978 302.5,207 308.815,203.842 304.811,195.656 299.5,193 299.5,193 295.5,193 295.5,193 295.5,193 293,191 293,191 290.871,191 283,189.837 283,193 283,193 283,204 283,204 283,204 284,205 284,205 284,205 285,205 285,205 286.235,205 290,204.357 290,206  Z"/>

<path  fill="#F0F080" stroke-width="0" stroke="#F0F080" d = " M127 192 L126,193 C126,193 127,192 127,192  Z"/>

<path  fill="#CCCCCA" stroke-width="0" stroke="#CCCCCA" d = " M127 225 L131,226 C131,218.115 138.6,208.301 142,201.5 142,201.5 141,195 141,195 139.571,195 137,193.712 137,192 137,192 127,192 127,192 127,192 126,193 126,193 126,194.974 124,196.517 124,199 124,207.431 127,217.033 127,225  Z"/>

<path  fill="#CBC7CC" stroke-width="0" stroke="#CBC7CC" d = " M148 192 C148,193.951 145.546,192.477 144.5,193 142.406,194.047 145.219,199.36 146.5,200 149.466,201.483 150.082,192 148,192  Z"/>

<path  fill="#CCCCCA" stroke-width="0" stroke="#CCCCCA" d = " M329 225 L326,226 C326,216.687 315,209.617 315,196 315,196 320,192 320,192 323.325,192 327.31,193 330,193 331.732,193 333,198.353 333,200 330.856,200 332.619,204.262 332,205.5 331.608,206.284 329,224.182 329,225  Z"/>

<path  fill="#CBC7CC" stroke-width="0" stroke="#CBC7CC" d = " M307 193 C307,206.388 319.764,193 307,193  Z"/>

<path  fill="#F0F080" stroke-width="0" stroke="#F0F080" d = " M127 225 C125.253,225 125,225.253 125,227 122.576,227 122.24,225 121,225 121,225 123,221.5 123,221.5 123,221.5 123,209 123,209 123,207.343 122.237,199 124,199 124,207.431 127,217.033 127,225  Z"/>

<path  fill="#F0F080" stroke-width="0" stroke="#F0F080" d = " M335 226 L332,227 C332,225.423 330.238,225 329,225 329,224.182 331.608,206.284 332,205.5 332.619,204.262 330.856,200 333,200 333,200 333,220.5 333,220.5 334.042,222.584 335,223.408 335,226  Z"/>

<path  fill="#FF9B88" stroke-width="0" stroke="#FF9B88" d = " M172 205 L174,206 C174,204.952 174.473,203 173,203 173,203 172,205 172,205  Z"/>

<path  fill="#C8C8CC" stroke-width="0" stroke="#C8C8CC" d = " M214 217 C215.333,217 215.667,217 217,217 217,212.832 214,209.58 214,206 214,206 211,203 211,203 205.889,203 211.243,217 214,217  Z"/>

<path  fill="#C8C8CC" stroke-width="0" stroke="#C8C8CC" d = " M240 217 L242,218 C242,218 245,214.5 245,214.5 245.481,213.539 249.251,203 246,203 246,203 243,205 243,205 243,205 243,206 243,206 243,206 242,207 242,207 242,209.979 240,213.23 240,217  Z"/>

<path  fill="#FF9B88" stroke-width="0" stroke="#FF9B88" d = " M283 205 L284,205 C284,205 283,204 283,204 283,204 283,205 283,205  Z"/>

<path  fill="#FF9B88" stroke-width="0" stroke="#FF9B88" d = " M171 205 C169.765,205 166,204.357 166,206 167.235,206 171,206.643 171,205  Z"/>

<path  fill="#FEB886" stroke-width="0" stroke="#FEB886" d = " M159 207 L157,209.5 C155.619,212.262 160.895,230.197 162.5,231 167.767,233.634 169.503,230 173,230 173,221.466 174,214.172 174,206 174,206 172,205 172,205 172,205 171,205 171,205 171,206.643 167.235,206 166,206 166,206 160,206 160,206 160,206 159,207 159,207  Z"/>

<path  fill="#FEB886" stroke-width="0" stroke="#FEB886" d = " M282 207 L283,229 C284.78,229 287.539,233.98 291.5,232 296.054,229.723 301.97,215.439 299,209.5 298.191,207.881 297,208.029 297,206 297,206 290,206 290,206 288.765,206 285,206.643 285,205 285,205 284,205 284,205 284,205 283,205 283,205 283,205 283,206 283,206 283,206 282,207 282,207  Z"/>

<path  fill="#FF9B88" stroke-width="0" stroke="#FF9B88" d = " M285 205 C286.235,205 290,204.357 290,206 288.765,206 285,206.643 285,205  Z"/>

<path  fill="#FFAE6F" stroke-width="0" stroke="#FFAE6F" d = " M156 241 L156,243 C153.987,243 156.156,253.328 149.5,250 149.5,250 142,244.5 142,244.5 142,244.5 139,239 139,239 139,239 139,237 139,237 139,227.93 132.828,211.836 144.5,206 148.426,204.037 148.43,213.36 149,214.5 152.608,221.716 156,232.55 156,241  Z"/>

<path  fill="#FF9B88" stroke-width="0" stroke="#FF9B88" d = " M160 206 L159,207 C159,207 160,206 160,206  Z"/>

<path  fill="#FF9B88" stroke-width="0" stroke="#FF9B88" d = " M243 206 L242,207 C242,207 243,206 243,206  Z"/>

<path  fill="#FF9B88" stroke-width="0" stroke="#FF9B88" d = " M283 206 L282,207 C282,207 283,206 283,206  Z"/>

<path  fill="#FFAE6F" stroke-width="0" stroke="#FFAE6F" d = " M307 250 L308,250 C308,250 309,249 309,249 309,249 311,248 311,248 311,248 314,245 314,245 314,245 315,244 315,244 315,244 315,243 315,243 315,243 316,242 316,242 316,242 317,240 317,240 317,240 317,238 317,238 317,236.952 316.527,235 318,235 318,235 319,222 319,222 319,218.526 318.405,217.309 317,214.5 316.191,212.881 314.399,204.051 310.5,206 306.771,207.865 308.411,212.677 307,215.5 304.359,220.781 297.613,241.727 301,248.5 302.081,250.662 305.005,250 307,250  Z"/>

<path  fill="#FF9B88" stroke-width="0" stroke="#FF9B88" d = " M231 253 L234,254 C234,252.577 232.022,250.456 233,248.5 233,248.5 237,245 237,245 231.783,245 230.135,235.183 234.5,233 237.799,231.35 240.694,233 244,233 244,231.814 240.654,227.808 240,226.5 240,226.5 242,218 242,218 242,218 240,217 240,217 240,219.327 235.3,227.9 231.5,226 229.686,225.093 228.74,216 228.5,216 226.356,216 227.533,224.983 225.5,226 220.571,228.464 217,220.303 217,217 215.667,217 215.333,217 214,217 214,219.86 217.813,223.874 216,227.5 216,227.5 212,233 212,233 215.327,233 219.103,231.301 222.5,233 225.753,234.626 224.345,245 220,245 220,245 223,247.5 223,247.5 223,247.5 223,253 223,253 223,253 225,253 225,253 225,236.998 231,236.643 231,253  Z"/>

<path  fill="#FF9B88" stroke-width="0" stroke="#FF9B88" d = " M196 280 L196,284 C190.52,284 182.05,290.275 175.5,287 173.199,285.85 167.222,279 165,279 162.244,279 156.839,264 155.5,264 153.545,264 154,267.889 154,269 154,271.311 165,284.433 165,280 165,280 174.5,288 174.5,288 174.5,288 195,288 195,288 195,289.684 190.321,289 189,289 182.231,289 175.123,289.811 169.5,287 169.5,287 147.5,265 147.5,265 125.548,254.024 121,250.266 121,225 122.24,225 122.576,227 125,227 125,233.352 123.952,238.404 127,244.5 127,244.5 131,247.5 131,247.5 132.412,250.324 134.154,253.327 137.5,255 141.047,256.774 156,261.586 156,252.5 156,249.83 150.691,251.595 149.5,251 145.246,248.873 139,244.41 139,239 139,239 142,244.5 142,244.5 142,244.5 149.5,250 149.5,250 156.156,253.328 153.987,243 156,243 156,246.393 157.197,246 159,246 159,248.606 158.05,248.4 157,250.5 155.688,253.125 156.005,266.247 160.5,264 161.888,263.306 160.27,260 163,260 163,264.089 161.272,278 169,278 169,285.18 182.827,288.336 189.5,285 189.5,285 196,280 196,280  Z"/>

<path  fill="#CACACB" stroke-width="0" stroke="#CACACB" d = " M139 237 L139,239 C139,244.41 145.246,248.873 149.5,251 150.691,251.595 156,249.83 156,252.5 156,261.586 141.047,256.774 137.5,255 134.154,253.327 132.412,250.324 131,247.5 131,247.5 127,244.5 127,244.5 123.952,238.404 125,233.352 125,227 125,225.253 125.253,225 127,225 127,225 131,226 131,226 131,226 137,232.5 137,232.5 137.465,233.43 137.817,237 139,237  Z"/>

<path  fill="#CACACB" stroke-width="0" stroke="#CACACB" d = " M307 250 L308,250 C308,250 309,249 309,249 309,249 311,248 311,248 313.041,248 314,247.041 314,245 314,245 315,244 315,244 315,244 315,243 315,243 315,243 316,242 316,242 316,242 317,240 317,240 317,240 317,238 317,238 318.473,238 318,236.048 318,235 320.522,235 322.165,226 326,226 326,226 329,225 329,225 330.238,225 332,225.423 332,227 332,238.593 329.437,249.532 318.5,255 314.985,256.758 300,261.535 300,252.5 300,249.303 307,252.567 307,250  Z"/>

<path  fill="#FEBA85" stroke-width="0" stroke="#FEBA85" d = " M208 238 C208,244.731 214.789,245 220,245 224.345,245 225.753,234.626 222.5,233 219.103,231.301 215.327,233 212,233 209.681,233 208,235.957 208,238  Z"/>

<path  fill="#FEBA85" stroke-width="0" stroke="#FEBA85" d = " M248 238 C248,244.508 242.584,245 237,245 231.783,245 230.135,235.183 234.5,233 237.799,231.35 240.694,233 244,233 246.548,233 248,235.687 248,238  Z"/>

<path  fill="#C9C9CB" stroke-width="0" stroke="#C9C9CB" d = " M176 257 L178,257 C178,255.361 184.507,256.514 183,253.5 180.783,249.066 177,243.15 177,238 177,235.399 175.96,233 173,233 170.056,233 169,238.939 169,241 169,246.574 171,251.26 171,256 172.852,256 174.309,257 176,257  Z"/>

<path  fill="#C9C9CB" stroke-width="0" stroke="#C9C9CB" d = " M280 257 C282.255,257 282.745,257 285,257 285,252.217 287,246.74 287,241 287,238.119 286.215,233 283,233 280.681,233 279,235.957 279,238 279,242.741 276.062,249.376 274,253.5 272.174,257.152 278,254.979 278,257 278,257 280,257 280,257  Z"/>

<path  fill="#C8C8CB" stroke-width="0" stroke="#C8C8CB" d = " M163 257 L163,260 C160.27,260 161.888,263.306 160.5,264 156.005,266.247 155.688,253.125 157,250.5 158.05,248.4 159,248.606 159,246 159,243.876 160,241.564 160,240 160,230.88 166,239.459 166,244 166,246.072 166.076,255 164,255 164,255 163,257 163,257  Z"/>

<path  fill="#C8C8CB" stroke-width="0" stroke="#C8C8CB" d = " M294 259 L294,261 C295.465,261 295.711,265.394 298.5,264 301.251,262.625 297,246.274 297,245 297,245 297,239 297,239 297,239 294.5,235 294.5,235 294.5,235 290,244 290,244 290,248.135 292,251.305 292,255 292,255 293,256 293,256 293,256 293,257 293,257 293,257 294,259 294,259  Z"/>

<path  fill="#FF9B88" stroke-width="0" stroke="#FF9B88" d = " M318 235 C316.527,235 317,236.952 317,238 318.473,238 318,236.048 318,235  Z"/>

<path  fill="#FDBA86" stroke-width="0" stroke="#FDBA86" d = " M212 262 L213,262 C213,262 214,261 214,261 214,261 215,261 215,261 215,259.23 218.15,257 220,257 220,257 221,256 221,256 221,256 222,255 222,255 222,255 223,254 223,254 223,254 223,253 223,253 223,253 223,247.5 223,247.5 223,247.5 220,245 220,245 214.789,245 208,244.731 208,238 198.192,238 187.026,238 177,238 177,243.15 180.783,249.066 183,253.5 184.507,256.514 178,255.361 178,257 183.853,257 188.378,262 192,262 192,262 194,263 194,263 200.102,263 206.479,262 212,262  Z"/>

<path  fill="#FDBA86" stroke-width="0" stroke="#FDBA86" d = " M262 263 L264,263 C264,263 265,262 265,262 265,258.859 275.278,257 278,257 278,254.979 272.174,257.152 274,253.5 276.062,249.376 279,242.741 279,238 268.939,238 257.856,238 248,238 248,244.508 242.584,245 237,245 237,245 233,248.5 233,248.5 232.022,250.456 234,252.577 234,254 234,254 236,256 236,256 236,256 237,257 237,257 237,257 241,260 241,260 241,260 242,261 242,261 242,261 243,261 243,261 243,261 244,262 244,262 249.708,262 255.784,263 262,263  Z"/>

<path  fill="#FDB986" stroke-width="0" stroke="#FDB986" d = " M156 243 C156,246.393 157.197,246 159,246 159,243.876 160,241.564 160,240 160,240 158.5,238 158.5,238 158.5,238 156,241 156,241 156,241 156,243 156,243  Z"/>

<path  fill="#FDB986" stroke-width="0" stroke="#FDB986" d = " M297 239 L297,245 C298.322,245 298.4,248.7 300,245.5 301.637,242.227 297,237.619 297,239  Z"/>

<path  fill="#FF9B88" stroke-width="0" stroke="#FF9B88" d = " M317 240 L316,242 C316,242 317,240 317,240  Z"/>

<path  fill="#FEAE6E" stroke-width="0" stroke="#FEAE6E" d = " M173 260 C173,266.084 179.474,278 169,278 161.272,278 163,264.089 163,260 163,260 163,257 163,257 163,257 164,255 164,255 166.076,255 166,246.072 166,244 167.916,244 166.07,241 169,241 169,246.574 171,251.26 171,256 171,256 173,260 173,260  Z"/>

<path  fill="#FFC5E2" stroke-width="0" stroke="#FFC5E2" d = " M226 259 C227.467,259 229.533,259 231,259 231,259 231,253 231,253 231,236.643 225,236.998 225,253 225,253 226,259 226,259  Z"/>

<path  fill="#FEAE6E" stroke-width="0" stroke="#FEAE6E" d = " M294 261 C294,264.983 294.053,278 288,278 277.253,278 283,266.661 283,259 283,259 285,257 285,257 285,252.217 287,246.74 287,241 289.747,241 290,241.253 290,244 290,248.135 292,251.305 292,255 292,255 293,256 293,256 293,256 293,257 293,257 293,257 294,259 294,259 294,259 294,261 294,261  Z"/>

<path  fill="#FF9B88" stroke-width="0" stroke="#FF9B88" d = " M316 242 L315,243 C315,243 316,242 316,242  Z"/>

<path  fill="#FF9B88" stroke-width="0" stroke="#FF9B88" d = " M315 244 L314,245 C314,245 315,244 315,244  Z"/>

<path  fill="#FF9B88" stroke-width="0" stroke="#FF9B88" d = " M314 245 L311,248 C313.041,248 314,247.041 314,245  Z"/>

<path  fill="#FF9B88" stroke-width="0" stroke="#FF9B88" d = " M311 248 L309,249 C309,249 311,248 311,248  Z"/>

<path  fill="#FF9B88" stroke-width="0" stroke="#FF9B88" d = " M309 249 L308,250 C308,250 309,249 309,249  Z"/>

<path  fill="#CACCC8" stroke-width="0" stroke="#CACCC8" d = " M215 261 C215,263.007 217.366,270 220,270 220,270 225,267.5 225,267.5 226.259,264.982 226,262.047 226,259 226,259 225,253 225,253 225,253 223,253 223,253 223,253 223,254 223,254 223,254 222,255 222,255 222,255 221,256 221,256 221,256 220,257 220,257 218.15,257 215,259.23 215,261  Z"/>

<path  fill="#CACCC8" stroke-width="0" stroke="#CACCC8" d = " M241 260 L241,261 C241,272.459 231,272.444 231,259 231,259 231,253 231,253 231,253 234,254 234,254 234,254 236,256 236,256 236,256 237,257 237,257 237,257 241,260 241,260  Z"/>

<path  fill="#FF9B88" stroke-width="0" stroke="#FF9B88" d = " M223 254 L222,255 C222,255 223,254 223,254  Z"/>

<path  fill="#FF9B88" stroke-width="0" stroke="#FF9B88" d = " M164 255 L163,257 C163,257 164,255 164,255  Z"/>

<path  fill="#FF9B88" stroke-width="0" stroke="#FF9B88" d = " M292 255 L293,256 C293,256 292,255 292,255  Z"/>

<path  fill="#FF9B88" stroke-width="0" stroke="#FF9B88" d = " M173 260 C174.333,260 174.667,260 176,260 176,260 176,257 176,257 174.309,257 172.852,256 171,256 171,256 173,260 173,260  Z"/>

<path  fill="#FF9B88" stroke-width="0" stroke="#FF9B88" d = " M221 256 L220,257 C220,257 221,256 221,256  Z"/>

<path  fill="#FF9B88" stroke-width="0" stroke="#FF9B88" d = " M236 256 L237,257 C237,257 236,256 236,256  Z"/>

<path  fill="#FFAD6E" stroke-width="0" stroke="#FFAD6E" d = " M193 274 L191,276 C183.683,276 176,266.885 176,260 176,260 176,257 176,257 176,257 178,257 178,257 183.853,257 188.378,262 192,262 192,262 193,264 193,264 193,264 193,274 193,274  Z"/>

<path  fill="#FFAD6E" stroke-width="0" stroke="#FFAD6E" d = " M263 273 L265,276 C272.294,276 281,265.847 281,259 281,259 280,257 280,257 280,257 278,257 278,257 275.278,257 265,258.859 265,262 265,262 264,263 264,263 264,263 263,264 263,264 263,264 263,273 263,273  Z"/>

<path  fill="#FF9B88" stroke-width="0" stroke="#FF9B88" d = " M281 259 L283,259 C283,259 285,257 285,257 282.745,257 282.255,257 280,257 280,257 281,259 281,259  Z"/>

<path  fill="#FF9B88" stroke-width="0" stroke="#FF9B88" d = " M293 257 L294,259 C294,259 293,257 293,257  Z"/>

<path  fill="#FEAD6F" stroke-width="0" stroke="#FEAD6F" d = " M196 278 L196,280 C196,280 189.5,285 189.5,285 182.827,288.336 169,285.18 169,278 179.474,278 173,266.084 173,260 174.333,260 174.667,260 176,260 176,266.885 183.683,276 191,276 191,276.672 195.329,278 196,278  Z"/>

<path  fill="#FF9BCD" stroke-width="0" stroke="#FF9BCD" d = " M257 283 L260,283 C260,281.855 259.421,279 261,279 261,279 261,277 261,277 261,277 261,276 261,276 256.008,276 244.429,271.357 242,266.5 240.942,264.384 244,263.602 244,262 244,262 243,261 243,261 243,261 242,261 242,261 242,261 241,261 241,261 241,272.459 231,272.444 231,259 229.533,259 227.467,259 226,259 226,262.047 226.259,264.982 225,267.5 225,267.5 220,270 220,270 226.274,270 239,267.277 239,275 239,275 241.5,273 241.5,273 246.008,270.746 257,278.521 257,283  Z"/>

<path  fill="#FEAD6F" stroke-width="0" stroke="#FEAD6F" d = " M261 279 C261,288.352 277.893,285 283,285 283,282.304 288,281.153 288,278 277.253,278 283,266.661 283,259 283,259 281,259 281,259 281,265.847 272.294,276 265,276 265,277.579 262.145,277 261,277 261,277 261,279 261,279  Z"/>

<path  fill="#FF9B88" stroke-width="0" stroke="#FF9B88" d = " M241 261 L242,261 C242,261 241,260 241,260 241,260 241,261 241,261  Z"/>

<path  fill="#FF9B88" stroke-width="0" stroke="#FF9B88" d = " M214 261 L213,262 C213,262 214,261 214,261  Z"/>

<path  fill="#FF9BCD" stroke-width="0" stroke="#FF9BCD" d = " M200 283 L196,284 C196,284 196,280 196,280 196,280 196,278 196,278 196,278 195,276 195,276 198.331,276 215,269.025 215,265.5 215,265.5 212,262 212,262 212,262 213,262 213,262 213,262 214,261 214,261 214,261 215,261 215,261 215,263.007 217.366,270 220,270 220,270.813 218,270.592 218,276 218,276 214.5,273 214.5,273 209.533,270.516 200,279.104 200,283  Z"/>

<path  fill="#FF9B88" stroke-width="0" stroke="#FF9B88" d = " M243 261 L244,262 C244,262 243,261 243,261  Z"/>

<path  fill="#FF9B88" stroke-width="0" stroke="#FF9B88" d = " M194 263 L193,264 C193,264 192,262 192,262 192,262 194,263 194,263  Z"/>

<path  fill="#FEA3D2" stroke-width="0" stroke="#FEA3D2" d = " M193 274 L195,276 C198.331,276 215,269.025 215,265.5 215,265.5 212,262 212,262 206.479,262 200.102,263 194,263 194,263 193,264 193,264 193,264 193,274 193,274  Z"/>

<path  fill="#FEA3D2" stroke-width="0" stroke="#FEA3D2" d = " M263 273 C263,275.215 261,274.519 261,276 256.008,276 244.429,271.357 242,266.5 240.942,264.384 244,263.602 244,262 249.708,262 255.784,263 262,263 262,263 263,264 263,264 263,264 263,273 263,273  Z"/>

<path  fill="#FF9B88" stroke-width="0" stroke="#FF9B88" d = " M265 262 L264,263 C264,263 265,262 265,262  Z"/>

<path  fill="#FF9B88" stroke-width="0" stroke="#FF9B88" d = " M264 263 L263,264 C263,264 262,263 262,263 262,263 264,263 264,263  Z"/>

<path  fill="#CBC7CC" stroke-width="0" stroke="#CBC7CC" d = " M165 279 C162.244,279 156.839,264 155.5,264 153.545,264 154,267.889 154,269 154,271.311 165,284.433 165,280 165,280 165,279 165,279  Z"/>

<path  fill="#CBC7CC" stroke-width="0" stroke="#CBC7CC" d = " M293 281 L294,281 C294,281 295,280 295,280 295,280 296,279 296,279 296,279 297,277 297,277 297,277 299,275 299,275 299,273.253 299.253,273 301,273 301,270.971 302.191,271.119 303,269.5 303.702,268.097 302.235,264 300.5,264 299.893,264 293.023,280 291,280 291,280 291,281 291,281 291,281 293,281 293,281  Z"/>

<path  fill="#CCC7CB" stroke-width="0" stroke="#CCC7CB" d = " M195 288 L196,288 C196,286.316 200.679,287 202,287 202,287 203,287 203,287 203,285.199 216.842,286 219,286 219,286 228.5,282 228.5,282 232.206,282 233.323,286 237,286 239.158,286 253,285.199 253,287 253,287 254,287 254,287 254,287 260,287 260,287 267.544,287 277.41,287 285,287 285,285.253 284.747,285 283,285 283,289.384 260,285.985 260,283 260,283 257,283 257,283 257,283 254.5,285 254.5,285 251.261,286.62 240.448,283.397 239,280.5 237.916,278.332 239,277.112 239,275 239,267.277 226.274,270 220,270 220,270.813 218,270.592 218,276 218,282.035 207.584,288.042 201.5,285 201.5,285 200,283 200,283 200,283 196,284 196,284 190.52,284 182.05,290.275 175.5,287 173.199,285.85 167.222,279 165,279 165,279 165,280 165,280 165,280 174.5,288 174.5,288 174.5,288 195,288 195,288  Z"/>

<path  fill="#C7C9C9" stroke-width="0" stroke="#C7C9C9" d = " M218 276 L214.5,273 C209.533,270.516 200,279.104 200,283 200,283 201.5,285 201.5,285 207.584,288.042 218,282.035 218,276  Z"/>

<path  fill="#C7C9C9" stroke-width="0" stroke="#C7C9C9" d = " M239 275 L241.5,273 C246.008,270.746 257,278.521 257,283 257,283 254.5,285 254.5,285 251.261,286.62 240.448,283.397 239,280.5 237.916,278.332 239,277.112 239,275  Z"/>

<path  fill="#FF9B88" stroke-width="0" stroke="#FF9B88" d = " M265 276 C265,277.579 262.145,277 261,277 261,277 261,276 261,276 261,274.519 263,275.215 263,273 263,273 265,276 265,276  Z"/>

<path  fill="#FF9B88" stroke-width="0" stroke="#FF9B88" d = " M301 273 C299.253,273 299,273.253 299,275 299,275 301,273 301,273  Z"/>

<path  fill="#FF9B88" stroke-width="0" stroke="#FF9B88" d = " M195 276 L196,278 C195.329,278 191,276.672 191,276 191,276 193,274 193,274 193,274 195,276 195,276  Z"/>

<path  fill="#FF9B88" stroke-width="0" stroke="#FF9B88" d = " M299 275 L297,277 C298.747,277 299,276.747 299,275  Z"/>

<path  fill="#FF9B88" stroke-width="0" stroke="#FF9B88" d = " M297 277 L296,279 C296,279 297,277 297,277  Z"/>

<path  fill="#FF9B88" stroke-width="0" stroke="#FF9B88" d = " M260 283 C260,285.985 283,289.384 283,285 277.893,285 261,288.352 261,279 259.421,279 260,281.855 260,283  Z"/>

<path  fill="#CCC7CB" stroke-width="0" stroke="#CCC7CB" d = " M291 280 L291,281 C288.627,281 291,277.664 291,280  Z"/>

<path  fill="#FF9B88" stroke-width="0" stroke="#FF9B88" d = " M295 280 L294,281 C294,281 295,280 295,280  Z"/>

<path  fill="#CCC7CB" stroke-width="0" stroke="#CCC7CB" d = " M289 281 C289,282.93 290.93,281 289,281  Z"/>

<path  fill="#CCC7CB" stroke-width="0" stroke="#CCC7CB" d = " M288 282 C288,283.93 289.93,282 288,282  Z"/>

<path  fill="#CCC7CB" stroke-width="0" stroke="#CCC7CB" d = " M286 283 C286,287.42 287.206,283 286,283  Z"/>

<path  fill="#FF9BCD" stroke-width="0" stroke="#FF9BCD" d = " M219 286 C216.842,286 203,285.199 203,287 205.158,287 219,287.801 219,286  Z"/>

<path  fill="#FF9BCD" stroke-width="0" stroke="#FF9BCD" d = " M237 286 C239.158,286 253,285.199 253,287 250.842,287 237,287.801 237,286  Z"/>

<path  fill="#FF9BCD" stroke-width="0" stroke="#FF9BCD" d = " M202 287 C200.679,287 196,286.316 196,288 197.321,288 202,288.684 202,287  Z"/>

<path  fill="#FF9BCD" stroke-width="0" stroke="#FF9BCD" d = " M260 287 L260,288 C258.679,288 254,288.684 254,287 254,287 260,287 260,287  Z"/>

<path  fill="#FF9B88" stroke-width="0" stroke="#FF9B88" d = " M285 287 C285,291.244 262.715,288 260,288 260,288 260,287 260,287 267.544,287 277.41,287 285,287  Z"/>

</g>
</svg>
