<svg xmlns="http://www.w3.org/2000/svg" xmlns:xlink="http://www.w3.org/1999/xlink"  viewBox="0 0 456 320">
<g>
<rect width="456" height="320" fill="#000000"  stroke-width="0" /> 
<path  fill="#FEFA90" stroke-width="0" stroke="#FEFA90" d = " M179 107 L182,103.5 C182.985,101.529 185.724,99.0524 187,96.5 188.535,93.4293 181.704,89.398 186.5,87 192.67,83.9149 200.771,82.3643 207.5,79 211.99,76.755 218.911,79.2946 223.5,77 230.259,73.6203 255.897,82.1985 261.5,85 263.857,86.1786 269.589,85.6771 271,88.5 L270,99.5 L275,104.5 L277,107 C278.361,107 279.379,100.742 280,99.5 282.586,94.3276 291,80.174 291,75 288.385,75 282.112,68.3059 279.5,67 271.778,63.139 263.171,60.8357 255.5,57 255.5,57 240,57 240,57 226.655,57 204.86,53.3199 193.5,59 193.5,59 171.5,70 171.5,70 171.5,70 166,75 166,75 166,84.4179 179,98.5171 179,107  Z"/>

<path  fill="#FCFC90" stroke-width="0" stroke="#FCFC90" d = " M179 107 C179,108.657 175.548,112 174,112 174,112 167,103.5 167,103.5 160.241,89.9815 141.65,87 128,87 128,83.788 130.053,83.4467 132,81.5 142.7,70.8004 151.779,75 166,75 166,84.4179 179,98.5171 179,107  Z"/>

<path  fill="#FCFC90" stroke-width="0" stroke="#FCFC90" d = " M277 107 L282,112 C282,112 289,104.5 289,104.5 295.912,90.6765 313.402,87 328,87 328,84.0433 325.86,82.1798 323.5,81 323.5,81 323,78.5 323,78.5 323,78.5 316.5,75 316.5,75 310.391,71.9453 297.686,75 291,75 291,80.174 282.586,94.3276 280,99.5 279.379,100.742 278.361,107 277,107  Z"/>

<path  fill-rule="evenodd" fill="#CBC9CC" stroke-width="0" stroke="#CBC9CC" d = " M225 79 C225,81.4966 213.376,79.062 211.5,80 206.055,82.7227 191.529,89.4417 189,94.5 186.89,98.72 198.249,113.374 201.5,115 L204.5,115 C206.436,115.968 208.853,118.677 211.5,120 L220.5,121 C231.471,126.485 242.969,119.266 251.5,115 254.425,113.537 257.399,113.702 259,110.5 L263,107.5 L263,103.5 C264.2,101.1 269.344,98.1885 267,93.5 263.943,87.3868 253.046,84.7729 247.5,82 241.522,79.0111 232.016,79 225,79  M212 124 C217.757,124 229.449,128.525 234.5,126 238.036,124.232 239.655,124 244,124 244,121.901 251.032,122.734 252.5,122 260.5,118 266.171,117 276,117 286.923,117 312.457,142.957 321,151.5 324.071,154.571 337.381,171.738 339,168.5 341.229,164.042 332.899,158.399 330.5,156 330.5,156 297,123 297,123 296.324,123 295.15,118.825 293.5,118 291.225,116.863 282,115.858 282,112 282,112 277,107 277,107 277,107 275,104.5 275,104.5 275,104.5 270,99.5 270,99.5 270,99.5 271,88.5 271,88.5 269.589,85.6771 263.857,86.1786 261.5,85 255.897,82.1985 230.259,73.6203 223.5,77 218.911,79.2946 211.99,76.755 207.5,79 200.771,82.3643 192.67,83.9149 186.5,87 181.704,89.398 188.535,93.4293 187,96.5 185.724,99.0524 182.985,101.529 182,103.5 182,103.5 179,107 179,107 179,108.657 175.548,112 174,112 174,117.712 159,115.634 159,124 159,124 157,125 157,125 157,127.31 151.123,131.377 149,133.5 149,133.5 127,155.5 127,155.5 124.306,158.194 115.229,162.959 118,168.5 118.983,170.467 122.683,167.134 123,166.5 126.219,160.063 130.24,156.26 135,151.5 142.788,143.712 169.22,117 180,117 190.027,117 196.333,117.916 204.5,122 205.803,122.652 212,122.219 212,124  Z"/>

<path  fill="#FEFA90" stroke-width="0" stroke="#FEFA90" d = " M225 79 C225,81.4966 213.376,79.062 211.5,80 206.055,82.7227 191.529,89.4417 189,94.5 186.89,98.72 198.249,113.374 201.5,115 L204.5,115 C206.436,115.968 208.853,118.677 211.5,120 L220.5,121 C231.471,126.485 242.969,119.266 251.5,115 254.425,113.537 257.399,113.702 259,110.5 L263,107.5 L263,103.5 C264.2,101.1 269.344,98.1885 267,93.5 263.943,87.3868 253.046,84.7729 247.5,82 241.522,79.0111 232.016,79 225,79  Z"/>

<path  fill-rule="evenodd" fill="#FCFA91" stroke-width="0" stroke="#FCFA91" d = " M113 129 C113,131.091 116.746,129 113,129  M115 127 C115,131.123 119.123,127 115,127  M126 118 L117,126.5 C117,128.068 122.954,124.273 123.5,124 127.118,122.191 131.798,122.851 135.5,121 138.295,119.603 148.594,120 151.5,120 L157,119.5 C157,117.667 150.647,117.426 149.5,118 142.888,121.306 132.905,118 126,118  M157 125 C151.299,125 145.389,130.555 140.5,133 131.083,137.709 97.2032,158 89,158 76.3116,158 77.6832,143.134 82,134.5 84.0854,130.329 86.892,126.716 89,122.5 90.3081,119.884 89.7235,116.053 91,113.5 96.6958,102.108 114.76,87 128,87 141.65,87 160.241,89.9815 167,103.5 167,103.5 174,112 174,112 174,117.712 159,115.634 159,124 159,124 157,125 157,125  Z"/>

<path  fill-rule="evenodd" fill="#FCFA91" stroke-width="0" stroke="#FCFA91" d = " M300 118 C300,122.479 317.194,119.347 320.5,121 325.148,123.324 330.873,122.687 335.5,125 L343.5,131 C345.843,131 339.819,127.159 339.5,127 L331.5,119 C328.359,117.43 305.441,118 300,118  M297 123 L312.5,131 C325.507,137.503 338.56,144.53 351.5,151 355.783,153.141 362.111,158 367,158 379.414,158 378.603,142.706 374,133.5 369.776,125.051 366.798,117.097 363,109.5 358.595,100.69 337.652,87 328,87 313.402,87 295.912,90.6765 289,104.5 289,104.5 282,112 282,112 282,115.858 291.225,116.863 293.5,118 295.15,118.825 296.324,123 297,123  Z"/>

<path  fill="#FFFB8E" stroke-width="0" stroke="#FFFB8E" d = " M123 200 L122,201 C104.728,201 93.7332,184.966 87,171.5 84.7768,167.054 89,161.441 89,158 97.2032,158 131.083,137.709 140.5,133 145.389,130.555 151.299,125 157,125 157,127.31 151.123,131.377 149,133.5 149,133.5 127,155.5 127,155.5 124.306,158.194 115.229,162.959 118,168.5 118.983,170.467 122.683,167.134 123,166.5 126.219,160.063 130.24,156.26 135,151.5 142.788,143.712 169.22,117 180,117 180,117 182,131 182,131 178.629,131 175.421,135.539 172.5,137 166.64,139.93 144.09,168.319 141,174.5 137.783,180.934 130,185.289 130,193 130,193 123,200 123,200  Z"/>

<path  fill="#FDFB90" stroke-width="0" stroke="#FDFB90" d = " M212 124 C206.237,124 196.454,124.523 191.5,127 L182,131 C182,131 180,117 180,117 190.027,117 196.333,117.916 204.5,122 205.803,122.652 212,122.219 212,124  Z"/>

<path  fill="#FDFB90" stroke-width="0" stroke="#FDFB90" d = " M244 124 C249.763,124 259.546,124.523 264.5,127 L275,131 C275,131 276,117 276,117 266.171,117 260.5,118 252.5,122 251.032,122.734 244,121.901 244,124  Z"/>

<path  fill="#FFFB8E" stroke-width="0" stroke="#FFFB8E" d = " M327 193 L334,201 C348.493,201 361.153,189.193 367,177.5 367,177.5 370,167.5 370,167.5 371.855,163.79 367,160.72 367,158 362.111,158 355.783,153.141 351.5,151 338.56,144.53 325.507,137.503 312.5,131 312.5,131 297,123 297,123 297,123 330.5,156 330.5,156 332.899,158.399 341.229,164.042 339,168.5 337.381,171.738 324.071,154.571 321,151.5 312.457,142.957 286.923,117 276,117 276,117 275,131 275,131 275,131 275,132 275,132 280.543,132 283.834,138.667 288.5,141 292.406,142.953 314.93,172.361 317,176.5 319.663,181.826 327,186.741 327,193  Z"/>

<path  fill="#CBC9CC" stroke-width="0" stroke="#CBC9CC" d = " M126 118 L117,126.5 C117,128.068 122.954,124.273 123.5,124 127.118,122.191 131.798,122.851 135.5,121 138.295,119.603 148.594,120 151.5,120 L157,119.5 C157,117.667 150.647,117.426 149.5,118 142.888,121.306 132.905,118 126,118  Z"/>

<path  fill="#CBC9CC" stroke-width="0" stroke="#CBC9CC" d = " M300 118 C300,122.479 317.194,119.347 320.5,121 325.148,123.324 330.873,122.687 335.5,125 L343.5,131 C345.843,131 339.819,127.159 339.5,127 L331.5,119 C328.359,117.43 305.441,118 300,118  Z"/>

<path  fill="#FFFB8E" stroke-width="0" stroke="#FFFB8E" d = " M159 124 L157,125 C157,125 159,124 159,124  Z"/>

<path  fill="#FBFC91" stroke-width="0" stroke="#FBFC91" d = " M183 143 C187.3,143 193.635,136.933 197.5,135 206.313,130.594 218.526,132 228,132 230.681,132 236.316,129.408 239.5,131 245.109,133.804 252.895,132.197 258.5,135 L274,144 C274,140.038 275,135.312 275,132 275,132 275,131 275,131 275,131 264.5,127 264.5,127 259.546,124.523 249.763,124 244,124 239.655,124 238.036,124.232 234.5,126 229.449,128.525 217.757,124 212,124 206.237,124 196.454,124.523 191.5,127 191.5,127 182,131 182,131 182,131 183,143 183,143  Z"/>

<path  fill="#CBC9CC" stroke-width="0" stroke="#CBC9CC" d = " M115 127 C115,131.123 119.123,127 115,127  Z"/>

<path  fill="#CBC9CC" stroke-width="0" stroke="#CBC9CC" d = " M113 129 C113,131.091 116.746,129 113,129  Z"/>

<path  fill-rule="evenodd" fill="#FFF990" stroke-width="0" stroke="#FFF990" d = " M147 185 C147,186.93 148.93,185 147,185  M151 181 L148.5,185 C149.346,185.423 155.66,181 151,181  M147 197 L146,198 C146,198 137.5,201 137.5,201 135.458,199.979 130.757,193 130,193 130,185.289 137.783,180.934 141,174.5 144.09,168.319 166.64,139.93 172.5,137 175.421,135.539 178.629,131 182,131 182,131 183,143 183,143 183,146.27 165.534,165.431 163,170.5 163,170.5 153.5,181 153.5,181 154.668,181.584 163.463,173 165,173 165,175.477 165,178.661 165,181 165,181 161,185.5 161,185.5 161,185.5 147,197 147,197  Z"/>

<path  fill-rule="evenodd" fill="#CBC9CC" stroke-width="0" stroke="#CBC9CC" d = " M291 172 L291,173 C294.98,173 305.891,186.304 308.5,185 308.742,184.879 298.074,176.648 297,174.5 297,174.5 274,144 274,144 274,144 258.5,135 258.5,135 252.895,132.197 245.109,133.804 239.5,131 236.316,129.408 230.681,132 228,132 218.526,132 206.313,130.594 197.5,135 193.635,136.933 187.3,143 183,143 183,146.27 165.534,165.431 163,170.5 163,170.5 153.5,181 153.5,181 154.668,181.584 163.463,173 165,173 165,173 166,172 166,172 166,172 167,171 167,171 171.106,171 178.775,165.863 182.5,164 189.788,160.356 212.044,165.228 218.5,162 220.959,160.771 228.36,158.43 231.5,160 240.064,164.282 263.879,160.189 269.5,163 271.33,163.915 289.251,171 290,171 290,171 291,172 291,172  M179 159 C188.985,159 220.373,154.936 226.5,158 L243.5,157 C249.282,159.891 270.795,160 278,160 278,160 280.5,161 280.5,161 281.516,160.492 274.899,149 273,149 273,142.572 261.369,140.935 257.5,139 246.017,133.258 209.999,133.25 198.5,139 195.299,140.601 183,143.1 183,149 182.36,149 173.102,160 178,160 178,160 179,159 179,159  Z"/>

<path  fill="#FFF990" stroke-width="0" stroke="#FFF990" d = " M327 193 C325.041,193 321.425,199.538 318.5,201 315.989,202.256 310.478,196 308,196 308,196 293,183 293,183 293,183 292,181 292,181 292,181 293,176.5 293,176.5 293,176.5 291,173 291,173 294.98,173 305.891,186.304 308.5,185 308.742,184.879 298.074,176.648 297,174.5 297,174.5 274,144 274,144 274,140.038 275,135.312 275,132 280.543,132 283.834,138.667 288.5,141 292.406,142.953 314.93,172.361 317,176.5 319.663,181.826 327,186.741 327,193  Z"/>

<path  fill="#FBFC91" stroke-width="0" stroke="#FBFC91" d = " M183 153 L197.5,147 C205.523,142.989 225.888,145 236,145 L248.5,145 C251.75,146.625 256.327,145.414 259.5,147 L273,153 C273,153 273,149 273,149 273,142.572 261.369,140.935 257.5,139 246.017,133.258 209.999,133.25 198.5,139 195.299,140.601 183,143.1 183,149 183,149 183,153 183,153  Z"/>

<path  fill="#FFFA8F" stroke-width="0" stroke="#FFFA8F" d = " M179 159 C188.985,159 220.373,154.936 226.5,158 L243.5,157 C249.282,159.891 270.795,160 278,160 278,160 273,153 273,153 273,153 259.5,147 259.5,147 256.327,145.414 251.75,146.625 248.5,145 248.5,145 236,145 236,145 225.888,145 205.523,142.989 197.5,147 197.5,147 183,153 183,153 183,156.086 179,155.914 179,159  Z"/>

<path  fill="#FFF990" stroke-width="0" stroke="#FFF990" d = " M179 159 L178,160 C173.102,160 182.36,149 183,149 183,149 183,153 183,153 183,156.086 179,155.914 179,159  Z"/>

<path  fill="#FFF990" stroke-width="0" stroke="#FFF990" d = " M273 153 L278,160 C278,160 280.5,161 280.5,161 281.516,160.492 274.899,149 273,149 273,149 273,153 273,153  Z"/>

<path  fill="#FFFA8F" stroke-width="0" stroke="#FFFA8F" d = " M179 159 L178,160 C178,160 179,159 179,159  Z"/>

<path  fill="#FFFA8F" stroke-width="0" stroke="#FFFA8F" d = " M233 193 L235,193 C253.894,193 267.902,182 286,182 286,182 287,181 287,181 287,181 291,181 291,181 291,181 292,181 292,181 292,181 293,176.5 293,176.5 293,176.5 291,173 291,173 291,173 291,172 291,172 291,172 290,171 290,171 289.251,171 271.33,163.915 269.5,163 263.879,160.189 240.064,164.282 231.5,160 228.36,158.43 220.959,160.771 218.5,162 212.044,165.228 189.788,160.356 182.5,164 178.775,165.863 171.106,171 167,171 167,171 166,172 166,172 166,172 165,173 165,173 165,175.477 165,178.661 165,181 185.092,181 200.506,193 221,193 221,193 223,193 223,193 223,193 228,193 228,193 228,193 229,193 229,193 229,193 233,193 233,193  Z"/>

<path  fill="#FFF990" stroke-width="0" stroke="#FFF990" d = " M167 171 L166,172 C166,172 167,171 167,171  Z"/>

<path  fill="#FFF990" stroke-width="0" stroke="#FFF990" d = " M290 171 L291,172 C291,172 290,171 290,171  Z"/>

<path  fill="#FFF990" stroke-width="0" stroke="#FFF990" d = " M166 172 L165,173 C165,173 166,172 166,172  Z"/>

<path  fill="#CBC9CC" stroke-width="0" stroke="#CBC9CC" d = " M151 181 L148.5,185 C149.346,185.423 155.66,181 151,181  Z"/>

<path  fill="#F0F080" stroke-width="0" stroke="#F0F080" d = " M287 181 L286,182 C286,182 287,181 287,181  Z"/>

<path  fill="#F0F080" stroke-width="0" stroke="#F0F080" d = " M292 181 L293,183 C293,183 291,181 291,181 291,181 292,181 292,181  Z"/>

<path  fill="#CBC9CC" stroke-width="0" stroke="#CBC9CC" d = " M147 185 C147,186.93 148.93,185 147,185  Z"/>

<path  fill="#FF9BCD" stroke-width="0" stroke="#FF9BCD" d = " M167 187 L166,188 C166,188 167,187 167,187  Z"/>

<path  fill="#FFA2D2" stroke-width="0" stroke="#FFA2D2" d = " M185 191 C185,195.51 180.165,199 176,199 172.704,199 159.129,198.241 162,192.5 162,192.5 164,189 164,189 164,189 166,188 166,188 166,188 167,187 167,187 167,187 177,187 177,187 177,187 178,188 178,188 178,188 180,188 180,188 180,188 181,189 181,189 181,189 183,189 183,189 183,189 185,191 185,191  Z"/>

<path  fill="#FF9BCD" stroke-width="0" stroke="#FF9BCD" d = " M177 187 L178,188 C178,188 177,187 177,187  Z"/>

<path  fill="#FF9BCD" stroke-width="0" stroke="#FF9BCD" d = " M279 187 L278,188 C278,188 279,187 279,187  Z"/>

<path  fill="#FFA2D2" stroke-width="0" stroke="#FFA2D2" d = " M271 191 C271,195.134 276.083,199 280,199 290.935,199 293,199.133 293,189 293,189 292,189 292,189 292,189 291,188 291,188 291,188 290,188 290,188 290,188 289,187 289,187 289,187 279,187 279,187 279,187 278,188 278,188 278,188 277,188 277,188 277,188 275,189 275,189 275,189 273,189 273,189 273,189 271,191 271,191  Z"/>

<path  fill="#FF9BCD" stroke-width="0" stroke="#FF9BCD" d = " M289 187 L290,188 C290,188 289,187 289,187  Z"/>

<path  fill="#FF9BCD" stroke-width="0" stroke="#FF9BCD" d = " M180 188 L181,189 C181,189 180,188 180,188  Z"/>

<path  fill="#FF9BCD" stroke-width="0" stroke="#FF9BCD" d = " M277 188 L275,189 C275,189 277,188 277,188  Z"/>

<path  fill="#FF9BCD" stroke-width="0" stroke="#FF9BCD" d = " M291 188 L292,189 C292,189 291,188 291,188  Z"/>

<path  fill="#FF9BCD" stroke-width="0" stroke="#FF9BCD" d = " M179 215 L184,216 C184,216 183,211.5 183,211.5 183,211.5 187,209 187,209 187,209 185,207 185,207 177.912,207 176,204.705 176,199 172.704,199 159.129,198.241 162,192.5 162,192.5 164,189 164,189 161.547,189 145,200.282 145,203 148.541,203 151.145,200 155,200 155,198.061 165.693,196.887 167,199.5 167,199.5 165,202 165,202 171.477,202 179,208.222 179,215  Z"/>

<path  fill="#FF9BCD" stroke-width="0" stroke="#FF9BCD" d = " M197 199 C199.033,199 200.256,199 202,199 202.904,199 212,195.184 212,195 201.903,195 192.734,189 183,189 183,189 185,191 185,191 191.068,191 197,193.872 197,199  Z"/>

<path  fill="#FF9BCD" stroke-width="0" stroke="#FF9BCD" d = " M268 191 L271,191 C271,191 273,189 273,189 271.959,189 268,189.986 268,191  Z"/>

<path  fill="#FF9BCD" stroke-width="0" stroke="#FF9BCD" d = " M277 215 L272,216 C272,216 274,212.5 274,212.5 274,212.5 269,209 269,209 270.747,209 271,208.747 271,207 279.345,207 280,205.032 280,199 290.935,199 293,199.133 293,189 295.631,189 317,205.572 317,208 313.846,208 307.176,200 301,200 301,197.487 290.113,197.275 289,199.5 287.922,201.656 292,200.29 292,202 285.924,202 277,208.458 277,215  Z"/>

<path  fill="#FDA5D0" stroke-width="0" stroke="#FDA5D0" d = " M197 199 C194.925,199 185,204.236 185,207 177.912,207 176,204.705 176,199 180.165,199 185,195.51 185,191 191.068,191 197,193.872 197,199  Z"/>

<path  fill="#FF9BCD" stroke-width="0" stroke="#FF9BCD" d = " M255 199 C255,196.44 258.334,199 259,199 259,191.757 268,193.269 268,191 259.7,191 253.028,195 245,195 245,195.629 253.915,199 255,199  Z"/>

<path  fill="#FDA5D0" stroke-width="0" stroke="#FDA5D0" d = " M280 199 C280,205.032 279.345,207 271,207 271,204.125 262.334,199 259,199 259,191.757 268,193.269 268,191 268,191 271,191 271,191 271,195.134 276.083,199 280,199  Z"/>

<path  fill="#F0F080" stroke-width="0" stroke="#F0F080" d = " M146 198 C146,206.778 126.842,200 123,200 123,200 130,193 130,193 130.757,193 135.458,199.979 137.5,201 137.5,201 146,198 146,198  Z"/>

<path  fill="#FF9BCD" stroke-width="0" stroke="#FF9BCD" d = " M223 193 L221,194 C221,194 221,193 221,193 221,193 223,193 223,193  Z"/>

<path  fill="#FFA5D0" stroke-width="0" stroke="#FFA5D0" d = " M234 199 L235,199 C235,199 239,196 239,196 239,196 238,195 238,195 238,195 237,195 237,195 237,195 236,194 236,194 236,194 235,194 235,194 235,194 233,193 233,193 233,193 229,193 229,193 229,194.186 228,194.186 228,193 228,193 223,193 223,193 223,193 221,194 221,194 221,194 218,195 218,195 218,195 218,196 218,196 218,197.712 220.571,199 222,199 222,199 234,199 234,199  Z"/>

<path  fill="#FF9BCD" stroke-width="0" stroke="#FF9BCD" d = " M235 193 L235,194 C235,194 233,193 233,193 233,193 235,193 235,193  Z"/>

<path  fill="#F0F080" stroke-width="0" stroke="#F0F080" d = " M308 196 L310.5,198 L315.5,203 C315.695,203.098 331.754,201 334,201 334,201 327,193 327,193 325.041,193 321.425,199.538 318.5,201 315.989,202.256 310.478,196 308,196  Z"/>

<path  fill="#FF9BCD" stroke-width="0" stroke="#FF9BCD" d = " M236 194 L237,195 C237,195 236,194 236,194  Z"/>

<path  fill="#FDA5D1" stroke-width="0" stroke="#FDA5D1" d = " M195 220 L196,220 C200.427,220 203.6,216 204,216 204,204.478 222,201.875 222,215 224.313,215 227,217.273 227,213 227,208.148 222,202.237 222,199 220.571,199 218,197.712 218,196 218,196 217,195 217,195 217,195 212,195 212,195 212,195.184 202.904,199 202,199 202,199 199,203 199,203 204.869,203 197,210.178 197,204 193.749,204 191.377,209 187,209 187,209 183,211.5 183,211.5 183,211.5 184,216 184,216 184,216 185,216 185,216 185,216 187,217 187,217 187,217 194,219 194,219 194,219 195,220 195,220  Z"/>

<path  fill="#FF9BCD" stroke-width="0" stroke="#FF9BCD" d = " M218 195 L218,196 C218,196 217,195 217,195 217,195 218,195 218,195  Z"/>

<path  fill="#FF9BCD" stroke-width="0" stroke="#FF9BCD" d = " M239 195 L239,196 C239,196 238,195 238,195 238,195 239,195 239,195  Z"/>

<path  fill="#FDA5D1" stroke-width="0" stroke="#FDA5D1" d = " M261 220 L262,220 C262,220 263,219 263,219 263,219 270,217 270,217 270,217 271,216 271,216 271,216 272,216 272,216 272,216 274,212.5 274,212.5 274,212.5 269,209 269,209 266.625,209 260,206.411 260,204 260,204 256.5,207 256.5,207 255.443,206.471 255.669,203 257,203 257,203 255,199 255,199 253.915,199 245,195.629 245,195 245,195 239,195 239,195 239,195 239,196 239,196 239,196 235,199 235,199 235,199 234,200 234,200 234,200 233,202 233,202 233,202 232,203 232,203 232,203 229,213 229,213 229,218.508 232.888,214 235,214 235,199.301 253,207.26 253,216 253,220.534 257.71,220 261,220  Z"/>

<path  fill="#F0F080" stroke-width="0" stroke="#F0F080" d = " M147 197 L146,198 C146,198 147,197 147,197  Z"/>

<path  fill="#C8CACA" stroke-width="0" stroke="#C8CACA" d = " M160 203 L162,203 C162,203 163,202 163,202 163,202 165,202 165,202 165,202 167,199.5 167,199.5 165.693,196.887 155,198.061 155,200 159.812,200 160,199.254 160,203  Z"/>

<path  fill="#FFB2D6" stroke-width="0" stroke="#FFB2D6" d = " M185 207 L187,209 C191.377,209 193.749,204 197,204 197,204 199,203 199,203 199,203 202,199 202,199 200.256,199 199.033,199 197,199 194.925,199 185,204.236 185,207  Z"/>

<path  fill="#FFB2D6" stroke-width="0" stroke="#FFB2D6" d = " M271 207 C271,208.747 270.747,209 269,209 266.625,209 260,206.411 260,204 260,202.527 258.048,203 257,203 257,203 255,199 255,199 255,196.44 258.334,199 259,199 262.334,199 271,204.125 271,207  Z"/>

<path  fill="#C8CACA" stroke-width="0" stroke="#C8CACA" d = " M294 203 L296,203 C296,199.254 296.188,200 301,200 301,197.487 290.113,197.275 289,199.5 287.922,201.656 292,200.29 292,202 292,202 293,202 293,202 293,202 294,203 294,203  Z"/>

<path  fill="#AAA9A7" stroke-width="0" stroke="#AAA9A7" d = " M227 213 L229,213 C229,213 232,203 232,203 232,203 233,202 233,202 233,202 234,200 234,200 234,200 234,199 234,199 234,199 222,199 222,199 222,202.237 227,208.148 227,213  Z"/>

<path  fill="#FF9BCD" stroke-width="0" stroke="#FF9BCD" d = " M235 199 L234,200 C234,200 234,199 234,199 234,199 235,199 235,199  Z"/>

<path  fill="#F0F080" stroke-width="0" stroke="#F0F080" d = " M123 200 L122,201 C122,201 123,200 123,200  Z"/>

<path  fill="#FDA3D1" stroke-width="0" stroke="#FDA3D1" d = " M134 215 L135,217 C137.853,217 141.931,213 145,213 145,213 147,211 147,211 147,211 148,211 148,211 148,211 149,210 149,210 149,210 150,209 150,209 153.165,209 155.574,204 159,204 159,204 160,203 160,203 160,199.254 159.812,200 155,200 151.145,200 148.541,203 145,203 145,203 143,205 143,205 143,205 139,209 139,209 139,209 135,214 135,214 135,214 134,215 134,215  Z"/>

<path  fill="#FDA3D1" stroke-width="0" stroke="#FDA3D1" d = " M320 212 C320,213.624 322,214.75 322,217 318.606,217 309.522,210 308,210 308,210 307,210 307,210 307,208.778 300.451,205 299,205 299,205 298,204 298,204 298,204 296,203 296,203 296,199.254 296.188,200 301,200 307.176,200 313.846,208 317,208 317,208 320,212 320,212  Z"/>

<path  fill="#FF9BCD" stroke-width="0" stroke="#FF9BCD" d = " M163 202 L162,203 C162,203 163,202 163,202  Z"/>

<path  fill="#FDA5D2" stroke-width="0" stroke="#FDA5D2" d = " M143 269 L149,269 C150.145,269 153,269.579 153,268 148.059,268 143.532,248.435 146,243.5 150.928,233.644 148.223,225.638 159.5,220 159.5,220 168,222 168,222 172.428,222 179,222.489 179,215 179,208.222 171.477,202 165,202 165,202 163,202 163,202 163,202 162,203 162,203 162,203 160,203 160,203 160,203 159,204 159,204 155.574,204 153.165,209 150,209 150,209 149,210 149,210 149,210 148,211 148,211 148,211 147,212 147,212 147,212 145,213 145,213 145,214.369 139.266,221 137,221 137,221 136,222 136,222 136,222 135,223 135,223 135,223 134,224 134,224 134,224 133,226 133,226 133,226 132,227 132,227 132,227 131,231 131,231 131,231 130,233 130,233 130,233 129,247 129,247 129,247 130,249 130,249 130,249 130,250 130,250 130,250 131,252 131,252 131,252 131,254 131,254 131,254 132,255 132,255 132,255 132,256 132,256 132,256 133,258 133,258 133,258 133,259 133,259 133,259 135,263 135,263 135,263 135,264 135,264 135,264 139,268 139,268 139,268 140,268 140,268 140,268 141,269 141,269 141,269 143,269 143,269  Z"/>

<path  fill="#FF9BCD" stroke-width="0" stroke="#FF9BCD" d = " M233 202 L232,203 C232,203 233,202 233,202  Z"/>

<path  fill="#FDA5D2" stroke-width="0" stroke="#FDA5D2" d = " M308 269 L313,269 C313,269 317,268 317,268 317,268 318,267 318,267 319.712,267 321,264.429 321,263 321,263 322,262 322,262 322,262 323,260 323,260 323,260 323,259 323,259 323,259 324,257 324,257 324,257 325,255 325,255 325,255 325,253 325,253 325,253 326,252 326,252 326,252 326,251 326,251 326,251 327,249 327,249 327,249 327,247 327,247 327,247 327,242 327,242 327,235.556 323,226.983 323,225 323,225 322,224 322,224 322,224 318,220 318,220 318,220 317,219 317,219 317,219 310,213 310,213 310,213 309,212 309,212 309,212 308,211 308,211 308,211 307,210 307,210 307,208.778 300.451,205 299,205 299,205 298,204 298,204 298,204 296,203 296,203 296,203 294,203 294,203 294,203 293,202 293,202 293,202 292,202 292,202 285.924,202 277,208.458 277,215 277,220.614 283.263,223 288,223 288,216.369 301.934,222.434 304.5,225 309.639,230.139 312.302,251.895 309,258.5 307.505,261.49 308.246,268 303,268 303,269.643 306.765,269 308,269  Z"/>

<path  fill="#FF9BCD" stroke-width="0" stroke="#FF9BCD" d = " M293 202 L294,203 C294,203 293,202 293,202  Z"/>

<path  fill="#FF9BCD" stroke-width="0" stroke="#FF9BCD" d = " M145 203 C143.253,203 143,203.253 143,205 143,205 145,203 145,203  Z"/>

<path  fill="#FF9BCD" stroke-width="0" stroke="#FF9BCD" d = " M160 203 L159,204 C159,204 160,203 160,203  Z"/>

<path  fill="#C8CAC7" stroke-width="0" stroke="#C8CAC7" d = " M199 203 C204.869,203 197,210.178 197,204 197,204 199,203 199,203  Z"/>

<path  fill="#C8CAC7" stroke-width="0" stroke="#C8CAC7" d = " M257 203 C258.048,203 260,202.527 260,204 260,204 256.5,207 256.5,207 255.443,206.471 255.669,203 257,203  Z"/>

<path  fill="#FF9BCD" stroke-width="0" stroke="#FF9BCD" d = " M298 204 L299,205 C299,205 298,204 298,204  Z"/>

<path  fill="#FF9BCD" stroke-width="0" stroke="#FF9BCD" d = " M143 205 C140.774,205 139,206.774 139,209 139,209 143,205 143,205  Z"/>

<path  fill="#FDB1D8" stroke-width="0" stroke="#FDB1D8" d = " M217 216 L219,216 C219,216 222,215 222,215 222,201.875 204,204.478 204,216 205.714,216 217,213.541 217,216  Z"/>

<path  fill="#FDB1D8" stroke-width="0" stroke="#FDB1D8" d = " M240 216 C240,213.769 251.087,216 253,216 253,207.26 235,199.301 235,214 235,215.747 235.253,216 237,216 237,216 240,216 240,216  Z"/>

<path  fill="#FF9BCD" stroke-width="0" stroke="#FF9BCD" d = " M150 209 L149,210 C149,210 150,209 150,209  Z"/>

<path  fill="#FF9BCD" stroke-width="0" stroke="#FF9BCD" d = " M149 210 L148,211 C148,211 149,210 149,210  Z"/>

<path  fill="#FF9BCD" stroke-width="0" stroke="#FF9BCD" d = " M308 210 L308,211 C308,211 307,210 307,210 307,210 308,210 308,210  Z"/>

<path  fill="#C8CACA" stroke-width="0" stroke="#C8CACA" d = " M312 274 L314,275 C314,275 322,269 322,269 322,269 323,268 323,268 323,268 324,267 324,267 324,267 325,265 325,265 325,265 327,261 327,261 327,259.576 327.362,256 329,256 329,249.501 331,243.179 331,236 331,236 331,235 331,235 329.527,235 330,233.048 330,232 330,232 330,231 330,231 330,231 329,230 329,230 329,230 328,225 328,225 328,225 327,224 327,224 327,224 327,223 327,223 327,223 322,217 322,217 318.606,217 309.522,210 308,210 308,210 308,211 308,211 308,211 309,212 309,212 309,212 310,213 310,213 310,213 317,219 317,219 317,219 318,220 318,220 318,220 322,224 322,224 322,224 323,225 323,225 323,226.983 327,235.556 327,242 328.566,242 328.566,247 327,247 327,247 327,249 327,249 327,249 326,251 326,251 326,251 326,252 326,252 326,252 325,253 325,253 325,253 325,255 325,255 325,255 324,257 324,257 324,257 323,259 323,259 323,259 323,260 323,260 323,260 322,262 322,262 322,262 321,263 321,263 321,264.429 319.712,267 318,267 318,267 317,268 317,268 317,268 313,269 313,269 313,269 312,274 312,274  Z"/>

<path  fill="#C8CACA" stroke-width="0" stroke="#C8CACA" d = " M147 212 L145,213 C145,213 147,211 147,211 147,211 147,212 147,212  Z"/>

<path  fill="#FF9BCD" stroke-width="0" stroke="#FF9BCD" d = " M148 211 L147,212 C147,212 147,211 147,211 147,211 148,211 148,211  Z"/>

<path  fill="#FF9BCD" stroke-width="0" stroke="#FF9BCD" d = " M309 212 L310,213 C310,213 309,212 309,212  Z"/>

<path  fill="#FF9BCD" stroke-width="0" stroke="#FF9BCD" d = " M322 217 L327,223 C327,220.791 322.761,212 320,212 320,213.624 322,214.75 322,217  Z"/>

<path  fill="#C8CACA" stroke-width="0" stroke="#C8CACA" d = " M145 274 L143,275 C131.643,275 125,247.818 125,239 126.684,239 126,234.321 126,233 126,233 127,231 127,231 127,231 127,228 127,228 127,228 128,227 128,227 128,227 128,226 128,226 128,226 129,225 129,225 129,225 129,224 129,224 129,224 135,217 135,217 137.853,217 141.931,213 145,213 145,214.369 139.266,221 137,221 137,221 136,222 136,222 136,222 135,223 135,223 135,223 134,224 134,224 134,224 133,226 133,226 133,226 132,227 132,227 132,227 131,231 131,231 131,231 130,233 130,233 130,233 129,247 129,247 129,247 130,249 130,249 130,249 130,250 130,250 130,250 131,252 131,252 131,252 131,254 131,254 131,254 132,255 132,255 132,255 132,256 132,256 132,256 133,258 133,258 133,258 133,259 133,259 133,259 135,263 135,263 135,263 135,264 135,264 135,264 139,268 139,268 139,268 140,268 140,268 140,268 141,269 141,269 141,269 143,269 143,269 143,270.624 145,271.75 145,274  Z"/>

<path  fill-rule="evenodd" fill="#FF9BCD" stroke-width="0" stroke="#FF9BCD" d = " M239 287 L235,291.5 C235,294.727 250.288,299.106 252.5,298 256.827,295.836 245.183,287 239,287  M212 287 C212,289.404 200.971,293.442 203,297.5 203.87,299.241 208.571,297 210,297 212.586,297 223.015,294.53 221,290.5 L217,287.5 L212,287  M230 295 C232.154,295 248.635,299.067 250.5,300 L272.5,298 C274.81,298 287,297.907 287,296 277.026,296 293,292.114 293,289 293,289 291,289 291,289 291,289 279.5,295 279.5,295 273.52,297.99 265,283.318 265,279 250.346,279 241.06,255.62 236,245.5 234.369,242.238 239,240.514 239,239 235.752,239 237,236.634 237,235 237,235 229.5,236 229.5,236 226.384,234.442 230.187,221.127 231,219.5 232.02,217.46 237,217.076 237,216 235.253,216 235,215.747 235,214 232.888,214 229,218.508 229,213 229,213 227,213 227,213 227,217.273 224.313,215 222,215 222,215 219,216 219,216 219,217.779 223.928,216.357 225,218.5 226.297,221.093 231.389,233.556 226.5,236 226.5,236 219,235 219,235 219,236.004 221.31,239 218,239 218,239 221,244.5 221,244.5 215.988,254.525 206.066,279 192,279 190.049,279 191.523,281.454 191,282.5 189.181,286.137 185.963,292.268 182.5,294 175.223,297.639 171.279,289 165,289 165,289 163,289 163,289 163,289 174,295.5 174,295.5 174,295.5 170.5,296 170.5,296 167.472,294.486 159,292.264 159,288 159,288 156,285 156,285 156,292.32 143,276.139 143,275 131.643,275 125,247.818 125,239 123.754,239 124.162,250.824 125,252.5 130.064,262.629 140.109,281.304 151.5,287 169.178,295.839 172.751,299 194.5,299 194.5,299 206.5,300 206.5,300 208.919,298.79 224.069,295 227,295 227,295 225,292.5 225,292.5 223.708,289.917 227,287.379 227,285 227,285 224,287 224,287 217.11,287 213.75,282.75 207.5,289 207.5,289 199.5,295 199.5,295 198.193,295.653 194.003,294.494 195,292.5 197.244,288.013 221,276.573 221,273 210.652,273 226.9,256 227,256 227,250.446 229,249.047 229,256 232.274,256 243.428,273 236,273 236,276.499 258.822,288.144 261,292.5 261,292.5 261,294 261,294 261,299.423 249.99,289.245 249.5,289 239.856,284.178 239.917,286 230,286 230,288.69 230,292.422 230,295  Z"/>

<path  fill="#FF9BCD" stroke-width="0" stroke="#FF9BCD" d = " M135 214 L134,215 C134,215 135,214 135,214  Z"/>

<path  fill="#FF9BCD" stroke-width="0" stroke="#FF9BCD" d = " M135 217 L129,224 C129,222.073 131.79,215 134,215 134,215 135,217 135,217  Z"/>

<path  fill="#FDB1D7" stroke-width="0" stroke="#FDB1D7" d = " M157 274 L164,274 C167.84,274 169.897,265.603 172.5,263 180.266,255.234 187.239,243.022 192,233.5 193.64,230.221 198,227.892 198,224 198,224 196,220 196,220 196,220 195,220 195,220 195,220 194,219 194,219 194,219 187,217 187,217 187,217 185,216 185,216 185,216 184,216 184,216 184,216 179,215 179,215 179,222.489 172.428,222 168,222 168,226.287 160.916,254.668 159,258.5 158.039,260.422 156.196,268 153,268 153,269.579 150.145,269 149,269 149,272.386 151.639,275 155,275 155,275 157,274 157,274  Z"/>

<path  fill="#FF9BCD" stroke-width="0" stroke="#FF9BCD" d = " M210 231 L212,231 C212,223.927 201.507,216 217,216 217,213.541 205.714,216 204,216 203.6,216 200.427,220 196,220 196,220 198,224 198,224 198,224 200.5,221 200.5,221 203.475,219.512 210,228.833 210,231  Z"/>

<path  fill="#FF9BCD" stroke-width="0" stroke="#FF9BCD" d = " M245 231 L246,231 C246,231 253.5,221 253.5,221 255.616,219.942 256.398,223 258,223 258,223 261,220 261,220 257.71,220 253,220.534 253,216 251.087,216 240,213.769 240,216 251.666,216 245,224.05 245,231  Z"/>

<path  fill="#FDB1D7" stroke-width="0" stroke="#FDB1D7" d = " M292 274 L299,274 C302.483,274 308,274.637 308,269 306.765,269 303,269.643 303,268 303,268 297,260.5 297,260.5 295.02,256.54 296.949,250.398 295,246.5 292.061,240.622 288,229.715 288,223 283.263,223 277,220.614 277,215 277,215 272,216 272,216 272,216 271,216 271,216 271,216 270,217 270,217 270,217 263,219 263,219 263,219 262,220 262,220 262,220 261,220 261,220 261,220 258,223 258,223 258,227.456 263.116,230.732 265,234.5 265,234.5 283.5,263 283.5,263 285.582,265.082 288.938,274 292,274  Z"/>

<path  fill="#FF9BCD" stroke-width="0" stroke="#FF9BCD" d = " M185 216 L187,217 C187,217 185,216 185,216  Z"/>

<path  fill="#FEB1D7" stroke-width="0" stroke="#FEB1D7" d = " M212 231 C213.683,231 215.701,235 219,235 219,235 226.5,236 226.5,236 231.389,233.556 226.297,221.093 225,218.5 223.928,216.357 219,217.779 219,216 219,216 217,216 217,216 201.507,216 212,223.927 212,231  Z"/>

<path  fill="#FEB1D7" stroke-width="0" stroke="#FEB1D7" d = " M245 231 C242.378,231 240.715,235 237,235 237,235 229.5,236 229.5,236 226.384,234.442 230.187,221.127 231,219.5 232.02,217.46 237,217.076 237,216 237,216 240,216 240,216 251.666,216 245,224.05 245,231  Z"/>

<path  fill="#FF9BCD" stroke-width="0" stroke="#FF9BCD" d = " M271 216 L270,217 C270,217 271,216 271,216  Z"/>

<path  fill="#FF9BCD" stroke-width="0" stroke="#FF9BCD" d = " M194 219 L195,220 C195,220 194,219 194,219  Z"/>

<path  fill="#FF9BCD" stroke-width="0" stroke="#FF9BCD" d = " M263 219 L262,220 C262,220 263,219 263,219  Z"/>

<path  fill="#FF9BCD" stroke-width="0" stroke="#FF9BCD" d = " M317 219 L318,220 C318,220 317,219 317,219  Z"/>

<path  fill="#FDA4D0" stroke-width="0" stroke="#FDA4D0" d = " M168 222 L159.5,220 C148.223,225.638 150.928,233.644 146,243.5 143.532,248.435 148.059,268 153,268 156.196,268 158.039,260.422 159,258.5 160.916,254.668 168,226.287 168,222  Z"/>

<path  fill="#FDA4D0" stroke-width="0" stroke="#FDA4D0" d = " M288 223 C288,229.715 292.061,240.622 295,246.5 296.949,250.398 295.02,256.54 297,260.5 L303,268 C308.246,268 307.505,261.49 309,258.5 312.302,251.895 309.639,230.139 304.5,225 301.934,222.434 288,216.369 288,223  Z"/>

<path  fill="#FF9BCD" stroke-width="0" stroke="#FF9BCD" d = " M137 221 L136,222 C136,222 137,221 137,221  Z"/>

<path  fill-rule="evenodd" fill="#FFB2D8" stroke-width="0" stroke="#FFB2D8" d = " M164 274 C164,278.394 179.855,275 182,275 182,266.786 196.994,250.513 201,242.5 202.599,239.302 206.179,235 210,235 210,235 210,234 210,234 210,234 210,231 210,231 210,228.833 203.475,219.512 200.5,221 200.5,221 198,224 198,224 198,227.892 193.64,230.221 192,233.5 187.239,243.022 180.266,255.234 172.5,263 169.897,265.603 167.84,274 164,274  M176 267 C176,264.809 180.559,266.618 181,267.5 182.953,271.407 176.555,274.527 173.5,273 169.873,271.186 173.235,267 176,267  Z"/>

<path  fill-rule="evenodd" fill="#FFB2D8" stroke-width="0" stroke="#FFB2D8" d = " M277 266 L275,269.5 C275,274.209 286.829,275.158 283,267.5 L280.5,267 L277,266  M292 274 C292,278.689 276.631,275 275,275 275,270.189 258.121,247.742 255,241.5 253.534,238.568 249.045,235 246,235 246,235 246,231 246,231 246,231 253.5,221 253.5,221 255.616,219.942 256.398,223 258,223 258,227.456 263.116,230.732 265,234.5 265,234.5 283.5,263 283.5,263 285.582,265.082 288.938,274 292,274  Z"/>

<path  fill="#FF9BCD" stroke-width="0" stroke="#FF9BCD" d = " M136 222 L135,223 C135,223 136,222 136,222  Z"/>

<path  fill="#FF9BCD" stroke-width="0" stroke="#FF9BCD" d = " M135 223 L134,224 C134,224 135,223 135,223  Z"/>

<path  fill="#FF9BCD" stroke-width="0" stroke="#FF9BCD" d = " M322 224 L323,225 C323,225 322,224 322,224  Z"/>

<path  fill="#FF9BCD" stroke-width="0" stroke="#FF9BCD" d = " M327 224 L328,225 C328,225 327,224 327,224  Z"/>

<path  fill="#FF9BCD" stroke-width="0" stroke="#FF9BCD" d = " M129 225 L128,226 C128,226 129,225 129,225  Z"/>

<path  fill="#FF9BCD" stroke-width="0" stroke="#FF9BCD" d = " M133 226 L132,227 C132,227 133,226 133,226  Z"/>

<path  fill="#FF9BCD" stroke-width="0" stroke="#FF9BCD" d = " M128 227 L127,228 C127,228 128,227 128,227  Z"/>

<path  fill="#FF9BCD" stroke-width="0" stroke="#FF9BCD" d = " M329 230 L330,231 C330,231 329,230 329,230  Z"/>

<path  fill="#FF9BCD" stroke-width="0" stroke="#FF9BCD" d = " M127 231 L126,233 C126,233 127,231 127,231  Z"/>

<path  fill="#FF9BCD" stroke-width="0" stroke="#FF9BCD" d = " M131 231 L130,233 C130,233 131,231 131,231  Z"/>

<path  fill="#FFB1D9" stroke-width="0" stroke="#FFB1D9" d = " M219 235 C219,236.004 221.31,239 218,239 216.144,239 211,237.218 211,235 211,235 210,234 210,234 210,234 210,231 210,231 210,231 212,231 212,231 213.683,231 215.701,235 219,235  Z"/>

<path  fill="#FFB1D9" stroke-width="0" stroke="#FFB1D9" d = " M246 235 C243.633,235 241.968,239 239,239 235.752,239 237,236.634 237,235 240.715,235 242.378,231 245,231 245,231 246,231 246,231 246,231 246,235 246,235  Z"/>

<path  fill="#FF9BCD" stroke-width="0" stroke="#FF9BCD" d = " M330 232 C331.473,232 331,233.952 331,235 329.527,235 330,233.048 330,232  Z"/>

<path  fill="#FF9BCD" stroke-width="0" stroke="#FF9BCD" d = " M126 233 C124.316,233 125,237.679 125,239 126.684,239 126,234.321 126,233  Z"/>

<path  fill="#FF9BCD" stroke-width="0" stroke="#FF9BCD" d = " M210 235 L211,235 C211,235 210,234 210,234 210,234 210,235 210,235  Z"/>

<path  fill="#FFB1D6" stroke-width="0" stroke="#FFB1D6" d = " M182 275 C186.614,275 192,271.29 192,279 206.066,279 215.988,254.525 221,244.5 221,244.5 218,239 218,239 216.144,239 211,237.218 211,235 211,235 210,235 210,235 206.179,235 202.599,239.302 201,242.5 196.994,250.513 182,266.786 182,275  Z"/>

<path  fill="#FFB1D6" stroke-width="0" stroke="#FFB1D6" d = " M275 275 C270.288,275 265,271.328 265,279 250.346,279 241.06,255.62 236,245.5 234.369,242.238 239,240.514 239,239 241.968,239 243.633,235 246,235 249.045,235 253.534,238.568 255,241.5 258.121,247.742 275,270.189 275,275  Z"/>

<path  fill="#FF9BCD" stroke-width="0" stroke="#FF9BCD" d = " M331 236 C332.643,236 332,239.765 332,241 332,243.702 332.021,256 329,256 329,249.501 331,243.179 331,236  Z"/>

<path  fill="#FF9BCD" stroke-width="0" stroke="#FF9BCD" d = " M327 242 C328.566,242 328.566,247 327,247 327,247 327,242 327,242  Z"/>

<path  fill="#FF9BCD" stroke-width="0" stroke="#FF9BCD" d = " M129 247 L130,249 C130,249 129,247 129,247  Z"/>

<path  fill="#FF9BCD" stroke-width="0" stroke="#FF9BCD" d = " M327 249 L326,251 C326,251 327,249 327,249  Z"/>

<path  fill="#FF9BCD" stroke-width="0" stroke="#FF9BCD" d = " M130 250 L131,252 C131,252 130,250 130,250  Z"/>

<path  fill="#FEC6E2" stroke-width="0" stroke="#FEC6E2" d = " M229 263 L229,264 C229,264 227,263 227,263 227,263 227,256 227,256 227,250.446 229,249.047 229,256 229,256 229,262 229,262 229,262 229,263 229,263  Z"/>

<path  fill="#FF9BCD" stroke-width="0" stroke="#FF9BCD" d = " M326 252 L325,253 C325,253 326,252 326,252  Z"/>

<path  fill="#FF9BCD" stroke-width="0" stroke="#FF9BCD" d = " M131 254 L132,255 C132,255 131,254 131,254  Z"/>

<path  fill="#FF9BCD" stroke-width="0" stroke="#FF9BCD" d = " M325 255 L324,257 C324,257 325,255 325,255  Z"/>

<path  fill="#FF9BCD" stroke-width="0" stroke="#FF9BCD" d = " M132 256 L133,258 C133,258 132,256 132,256  Z"/>

<path  fill="#C8C8CC" stroke-width="0" stroke="#C8C8CC" d = " M227 263 C225.003,263 221,271.316 221,273 210.652,273 226.9,256 227,256 227,256 227,263 227,263  Z"/>

<path  fill="#C8C8CC" stroke-width="0" stroke="#C8C8CC" d = " M230 263 L236,273 C243.428,273 232.274,256 229,256 229,256 229,262 229,262 229,262 230,263 230,263  Z"/>

<path  fill="#FF9BCD" stroke-width="0" stroke="#FF9BCD" d = " M329 256 C327.362,256 327,259.576 327,261 328.638,261 329,257.424 329,256  Z"/>

<path  fill="#FF9BCD" stroke-width="0" stroke="#FF9BCD" d = " M324 257 L323,259 C323,259 324,257 324,257  Z"/>

<path  fill="#FF9BCD" stroke-width="0" stroke="#FF9BCD" d = " M133 259 L135,263 C135,263 133,259 133,259  Z"/>

<path  fill="#FF9BCD" stroke-width="0" stroke="#FF9BCD" d = " M323 260 L322,262 C322,262 323,260 323,260  Z"/>

<path  fill="#FF9BCD" stroke-width="0" stroke="#FF9BCD" d = " M327 261 L325,265 C327.109,265 327,262.465 327,261  Z"/>

<path  fill="#FF9BCD" stroke-width="0" stroke="#FF9BCD" d = " M229 263 L230,263 C230,263 229,262 229,262 229,262 229,263 229,263  Z"/>

<path  fill="#FF9BCD" stroke-width="0" stroke="#FF9BCD" d = " M322 262 L321,263 C321,263 322,262 322,262  Z"/>

<path  fill="#FFB3D8" stroke-width="0" stroke="#FFB3D8" d = " M227 279 L227,285 C227,285 224,287 224,287 217.11,287 213.75,282.75 207.5,289 207.5,289 199.5,295 199.5,295 198.193,295.653 194.003,294.494 195,292.5 197.244,288.013 221,276.573 221,273 221,271.316 225.003,263 227,263 227,267.957 227,273.754 227,279  Z"/>

<path  fill="#FF9BCD" stroke-width="0" stroke="#FF9BCD" d = " M229 277 L227,279 C227,273.754 227,267.957 227,263 227,263 229,264 229,264 229,264 229,277 229,277  Z"/>

<path  fill="#FFB3D8" stroke-width="0" stroke="#FFB3D8" d = " M230 285 L230,286 C239.917,286 239.856,284.178 249.5,289 249.99,289.245 261,299.423 261,294 261,294 261,292.5 261,292.5 258.822,288.144 236,276.499 236,273 236,273 230,263 230,263 230,263 229,263 229,263 229,263 229,264 229,264 229,264 229,277 229,277 229,277 229,284 229,284 229,284 230,285 230,285  Z"/>

<path  fill="#FF9BCD" stroke-width="0" stroke="#FF9BCD" d = " M135 264 L139,268 C139,268 135,264 135,264  Z"/>

<path  fill="#FF9BCD" stroke-width="0" stroke="#FF9BCD" d = " M325 265 L324,267 C324,267 325,265 325,265  Z"/>

<path  fill-rule="evenodd" fill="#FF9BCD" stroke-width="0" stroke="#FF9BCD" d = " M176 267 L175,270.5 C176.416,273.332 183.113,267 176,267  M176 267 C176,264.809 180.559,266.618 181,267.5 182.953,271.407 176.555,274.527 173.5,273 169.873,271.186 173.235,267 176,267  Z"/>

<path  fill-rule="evenodd" fill="#FF9BCD" stroke-width="0" stroke="#FF9BCD" d = " M278 267 L277,270.5 C278.625,273.751 284.689,267 278,267  M277 266 L275,269.5 C275,274.209 286.829,275.158 283,267.5 L280.5,267 L277,266  Z"/>

<path  fill="#FEB3D8" stroke-width="0" stroke="#FEB3D8" d = " M176 267 L175,270.5 C176.416,273.332 183.113,267 176,267  Z"/>

<path  fill="#FEB3D8" stroke-width="0" stroke="#FEB3D8" d = " M278 267 L277,270.5 C278.625,273.751 284.689,267 278,267  Z"/>

<path  fill="#FF9BCD" stroke-width="0" stroke="#FF9BCD" d = " M318 267 L317,268 C317,268 318,267 318,267  Z"/>

<path  fill="#FF9BCD" stroke-width="0" stroke="#FF9BCD" d = " M324 267 L323,268 C323,268 324,267 324,267  Z"/>

<path  fill="#FF9BCD" stroke-width="0" stroke="#FF9BCD" d = " M140 268 L141,269 C141,269 140,268 140,268  Z"/>

<path  fill="#FF9BCD" stroke-width="0" stroke="#FF9BCD" d = " M323 268 L322,269 C322,269 323,268 323,268  Z"/>

<path  fill="#FF9BCD" stroke-width="0" stroke="#FF9BCD" d = " M156 280 L155,282 C155,282 150.5,277 150.5,277 150.5,277 145,274 145,274 145,271.75 143,270.624 143,269 143,269 149,269 149,269 149,272.386 151.639,275 155,275 155,275 156,280 156,280  Z"/>

<path  fill="#FF9BCD" stroke-width="0" stroke="#FF9BCD" d = " M301 280 L302,282 C304.35,282 307.827,274 312,274 312,274 313,269 313,269 313,269 308,269 308,269 308,274.637 302.483,274 299,274 299,275.031 301,277.289 301,280  Z"/>

<path  fill="#FF9BCD" stroke-width="0" stroke="#FF9BCD" d = " M314 275 C314,278.741 306,280.783 306,285 307.092,285 322,270.552 322,269 322,269 314,275 314,275  Z"/>

<path  fill="#C9CACA" stroke-width="0" stroke="#C9CACA" d = " M155 282 L156,285 C156,292.32 143,276.139 143,275 143,275 145,274 145,274 145,274 150.5,277 150.5,277 150.5,277 155,282 155,282  Z"/>

<path  fill="#FF9BCD" stroke-width="0" stroke="#FF9BCD" d = " M157 274 L155,275 C155,275 157,274 157,274  Z"/>

<path  fill="#FCB3D7" stroke-width="0" stroke="#FCB3D7" d = " M156 280 C156,283.304 165,285.247 165,289 171.279,289 175.223,297.639 182.5,294 185.963,292.268 189.181,286.137 191,282.5 191.523,281.454 190.049,279 192,279 192,271.29 186.614,275 182,275 179.855,275 164,278.394 164,274 164,274 157,274 157,274 157,274 155,275 155,275 155,275 156,280 156,280  Z"/>

<path  fill="#FCB3D7" stroke-width="0" stroke="#FCB3D7" d = " M300 281 L291,289 C291,289 279.5,295 279.5,295 273.52,297.99 265,283.318 265,279 265,271.328 270.288,275 275,275 276.631,275 292,278.689 292,274 292,274 299,274 299,274 299,275.031 301,277.289 301,280 301,280 300,281 300,281  Z"/>

<path  fill="#C9CACA" stroke-width="0" stroke="#C9CACA" d = " M305 286 L303,287 C300.707,287 301,286.003 301,284 301,284 301,283 301,283 301,283 302,282 302,282 304.35,282 307.827,274 312,274 312,274 314,275 314,275 314,278.741 306,280.783 306,285 306,285 305,286 305,286  Z"/>

<path  fill="#FFC6E2" stroke-width="0" stroke="#FFC6E2" d = " M227 295 L230,295 C230,292.422 230,288.69 230,286 230,286 230,285 230,285 230,285 229,284 229,284 229,284 229,277 229,277 229,277 227,279 227,279 227,279 227,285 227,285 227,287.379 223.708,289.917 225,292.5 225,292.5 227,295 227,295  Z"/>

<path  fill="#C8C8CB" stroke-width="0" stroke="#C8C8CB" d = " M163 289 L165,289 C165,285.247 156,283.304 156,280 156,280 155,282 155,282 155,282 156,285 156,285 156,285 159,288 159,288 159,288 163,289 163,289  Z"/>

<path  fill="#FF9BCD" stroke-width="0" stroke="#FF9BCD" d = " M301 280 L300,281 C300,281 301,280 301,280  Z"/>

<path  fill="#C8C8CB" stroke-width="0" stroke="#C8C8CB" d = " M291 289 L293,289 C293,289 297,288 297,288 297,288 301,284 301,284 301,284 301,283 301,283 301,283 302,282 302,282 302,282 301,280 301,280 301,280 300,281 300,281 300,281 291,289 291,289  Z"/>

<path  fill="#FF9BCD" stroke-width="0" stroke="#FF9BCD" d = " M302 282 L301,283 C301,283 302,282 302,282  Z"/>

<path  fill="#FF9BCD" stroke-width="0" stroke="#FF9BCD" d = " M229 284 L230,285 C230,285 229,284 229,284  Z"/>

<path  fill="#FF9BCD" stroke-width="0" stroke="#FF9BCD" d = " M297 288 C300.596,288 290,294.343 290,295 292.816,295 303,290.476 303,287 300.707,287 301,286.003 301,284 301,284 297,288 297,288  Z"/>

<path  fill="#FF9BCD" stroke-width="0" stroke="#FF9BCD" d = " M306 285 L305,286 C305,286 306,285 306,285  Z"/>

<path  fill="#FF9BCD" stroke-width="0" stroke="#FF9BCD" d = " M305 286 L303,287 C303,287 305,286 305,286  Z"/>

<path  fill="#C7C9C9" stroke-width="0" stroke="#C7C9C9" d = " M212 287 C212,289.404 200.971,293.442 203,297.5 203.87,299.241 208.571,297 210,297 212.586,297 223.015,294.53 221,290.5 L217,287.5 L212,287  Z"/>

<path  fill="#C7C9C9" stroke-width="0" stroke="#C7C9C9" d = " M239 287 L235,291.5 C235,294.727 250.288,299.106 252.5,298 256.827,295.836 245.183,287 239,287  Z"/>

<path  fill="#CBC7CC" stroke-width="0" stroke="#CBC7CC" d = " M159 288 L163,289 C163,289 174,295.5 174,295.5 174,295.5 170.5,296 170.5,296 167.472,294.486 159,292.264 159,288  Z"/>

<path  fill="#CBC7CC" stroke-width="0" stroke="#CBC7CC" d = " M289 295 L290,295 C290,294.343 300.596,288 297,288 297,288 293,289 293,289 293,292.114 277.026,296 287,296 287,296 289,295 289,295  Z"/>

<path  fill="#FF9BCD" stroke-width="0" stroke="#FF9BCD" d = " M289 295 L287,296 C287,296 289,295 289,295  Z"/>

</g>
</svg>
