<svg xmlns="http://www.w3.org/2000/svg" xmlns:xlink="http://www.w3.org/1999/xlink"  viewBox="0 0 456 320">
<g>
<rect width="456" height="320" fill="#000000"  stroke-width="0" /> 
<path  fill="#FF64FF" stroke-width="0" stroke="#FF64FF" d = " M185 47 L189,47 C192.823,47 197.586,46 202,46 202,43.7904 185,45.0157 185,47  Z"/>

<path  fill="#FF64FF" stroke-width="0" stroke="#FF64FF" d = " M267 47 L272,47 C272,44.9362 268.647,46.5736 267.5,46 266.075,45.2877 254,43.66 254,46 258.284,46 263.371,47 267,47  Z"/>

<path  fill="#FE79FF" stroke-width="0" stroke="#FE79FF" d = " M201 102 L197,106 C194.183,106 188.229,95.9586 187,93.5 180.314,80.1288 189,64.0695 189,50 189,50 189,47 189,47 192.823,47 197.586,46 202,46 202,46 203,46 203,46 203,47.5791 205.855,47 207,47 207,47 208,47 208,47 208,48.4729 209.952,48 211,48 211,48 212,48 212,48 212,48 214,49 214,49 214,49 215,49 215,49 215,50.3586 218.909,61.6824 217,65.5 214.411,70.6785 204,93.3568 204,98 204,98 203,99 203,99 203,99 202,101 202,101 202,101 201,102 201,102  Z"/>

<path  fill="#FF64FF" stroke-width="0" stroke="#FF64FF" d = " M203 46 C204.145,46 207,45.4209 207,47 205.855,47 203,47.5791 203,46  Z"/>

<path  fill="#FF64FF" stroke-width="0" stroke="#FF64FF" d = " M253 46 C251.952,46 250,45.5271 250,47 251.048,47 253,47.4729 253,46  Z"/>

<path  fill="#FE79FF" stroke-width="0" stroke="#FE79FF" d = " M268 50 C268,52.0137 265.716,55.9323 267,58.5 269.875,64.251 274.214,84.0725 271,90.5 L269,96.5 L260,106 C256.161,106 252.226,95.9519 251,93.5 246.064,83.6289 243.898,72.2962 239,62.5 237.265,59.0296 240,53.2022 240,50 240,50 241,49 241,49 241,49 243,49 243,49 243,49 245,48 245,48 246.145,48 249,48.5791 249,47 249,47 250,47 250,47 251.048,47 253,47.4729 253,46 253,46 254,46 254,46 258.284,46 263.371,47 267,47 267,47 268,50 268,50  Z"/>

<path  fill="#FF64FF" stroke-width="0" stroke="#FF64FF" d = " M182 47 L181,48 C181,48 182,47 182,47  Z"/>

<path  fill="#FE79FE" stroke-width="0" stroke="#FE79FE" d = " M149 79 C149,82.7328 147.554,86.391 146,89.5 L146,96.5 C142.273,103.954 149.494,119.497 156.5,123 159.373,124.437 163.541,124 167,124 167,124 164,121.5 164,121.5 164,121.5 161,114.5 161,114.5 161,114.5 161,104.5 161,104.5 161,104.5 160,93.5 160,93.5 160,93.5 163,83.5 163,83.5 166.283,76.9346 170.685,71.1302 174,64.5 176.168,60.1633 183.399,50 189,50 189,50 189,47 189,47 189,47 185,47 185,47 185,47 182,47 182,47 182,47 181,48 181,48 178.258,48 162,56.822 162,60 162,60 161,61 161,61 161,61 160,62 160,62 160,62 159,63 159,63 159,63 158,64 158,64 158,64 157,65 157,65 157,65 157,66 157,66 157,66 156,67 156,67 156,67 155,68 155,68 155,68 154,69 154,69 154,69 153,71 153,71 153,71 152,73 152,73 152,73 151,74 151,74 151,75.4242 150.638,79 149,79  Z"/>

<path  fill="#FF64FF" stroke-width="0" stroke="#FF64FF" d = " M208 47 C209.048,47 211,46.5271 211,48 209.952,48 208,48.4729 208,47  Z"/>

<path  fill="#FF64FF" stroke-width="0" stroke="#FF64FF" d = " M249 47 C247.855,47 245,46.4209 245,48 246.145,48 249,48.5791 249,47  Z"/>

<path  fill="#FE79FE" stroke-width="0" stroke="#FE79FE" d = " M303 71 L309,84.5 C316.816,100.133 308.534,124 290,124 290,124 293,120.5 293,120.5 294.548,117.403 294.459,113.582 296,110.5 296,110.5 296,103 296,103 296,86.2399 290.217,79.9334 283,65.5 281.147,61.795 272.969,50 268,50 268,50 267,47 267,47 267,47 272,47 272,47 272,47 275,47 275,47 275,47 276,48 276,48 281.918,48 290.611,59 294,59 294,59 295,60 295,60 295,60 296,62 296,62 296,62 301,67 301,67 301,67 301,68 301,68 301,68 303,70 303,70 303,70 303,71 303,71  Z"/>

<path  fill="#FF64FF" stroke-width="0" stroke="#FF64FF" d = " M275 47 L276,48 C276,48 275,47 275,47  Z"/>

<path  fill="#FF64FF" stroke-width="0" stroke="#FF64FF" d = " M212 48 L214,49 C214,49 212,48 212,48  Z"/>

<path  fill="#FF64FF" stroke-width="0" stroke="#FF64FF" d = " M245 48 L243,49 C243,49 245,48 245,48  Z"/>

<path  fill="#FF64FF" stroke-width="0" stroke="#FF64FF" d = " M268 119 L271,119 C271,118.08 260,109.402 260,106 256.161,106 252.226,95.9519 251,93.5 246.064,83.6289 243.898,72.2962 239,62.5 237.265,59.0296 240,53.2022 240,50 235.936,50 230.719,56.0616 229,59.5 229,59.5 228.5,64 228.5,64 228.5,64 226,57.5 226,57.5 224.628,54.7566 218.827,49 215,49 215,50.3586 218.909,61.6824 217,65.5 214.411,70.6785 204,93.3568 204,98 207.68,98 208.856,87.7889 210,85.5 212.273,80.9539 216.916,73.2922 221.5,71 223.732,69.8839 226.897,72 228.5,72 229.888,72 232.472,69.9858 234.5,71 249.768,78.6338 247.079,103.29 262.5,111 262.5,111 268,119 268,119  Z"/>

<path  fill="#FF64FF" stroke-width="0" stroke="#FF64FF" d = " M241 49 L240,50 C240,50 241,49 241,49  Z"/>

<path  fill="#FE7AFE" stroke-width="0" stroke="#FE7AFE" d = " M175 124 L176,124 C176,124 178,123 178,123 178,123 179,123 179,123 179,123 180,122 180,122 180,122 186,119 186,119 186,119 192,113 192,113 192,113 193,112 193,112 193,110.438 195.189,107 197,107 197,107 197,106 197,106 194.183,106 188.229,95.9586 187,93.5 180.314,80.1288 189,64.0695 189,50 183.399,50 176.168,60.1633 174,64.5 170.685,71.1302 166.283,76.9346 163,83.5 163,83.5 160,93.5 160,93.5 160,93.5 161,104.5 161,104.5 161,104.5 161,114.5 161,114.5 161,114.5 164,121.5 164,121.5 164,121.5 167,124 167,124 167,124 175,124 175,124  Z"/>

<path  fill="#FE7AFE" stroke-width="0" stroke="#FE7AFE" d = " M279 123 C282.249,123 286.194,124 290,124 290,124 293,120.5 293,120.5 294.548,117.403 294.459,113.582 296,110.5 296,110.5 296,103 296,103 296,86.2399 290.217,79.9334 283,65.5 281.147,61.795 272.969,50 268,50 268,52.0137 265.716,55.9323 267,58.5 269.875,64.251 274.214,84.0725 271,90.5 271,90.5 269,96.5 269,96.5 269,96.5 260,106 260,106 260,109.402 271,118.08 271,119 271,119 276,122 276,122 276,122 277,123 277,123 277,123 279,123 279,123  Z"/>

<path  fill="#FF64FF" stroke-width="0" stroke="#FF64FF" d = " M294 59 L295,60 C295,60 294,59 294,59  Z"/>

<path  fill="#FF64FF" stroke-width="0" stroke="#FF64FF" d = " M162 60 L161,61 C161,61 162,60 162,60  Z"/>

<path  fill="#FF64FF" stroke-width="0" stroke="#FF64FF" d = " M161 61 L160,62 C160,62 161,61 161,61  Z"/>

<path  fill="#FF64FF" stroke-width="0" stroke="#FF64FF" d = " M160 62 L159,63 C159,63 160,62 160,62  Z"/>

<path  fill="#FF64FF" stroke-width="0" stroke="#FF64FF" d = " M296 62 L301,67 C301,67 296,62 296,62  Z"/>

<path  fill="#FF64FF" stroke-width="0" stroke="#FF64FF" d = " M159 63 L158,64 C158,64 159,63 159,63  Z"/>

<path  fill="#FF64FF" stroke-width="0" stroke="#FF64FF" d = " M158 64 L157,65 C157,65 158,64 158,64  Z"/>

<path  fill="#FF64FF" stroke-width="0" stroke="#FF64FF" d = " M157 66 L156,67 C156,67 157,66 157,66  Z"/>

<path  fill="#FF64FF" stroke-width="0" stroke="#FF64FF" d = " M156 67 L155,68 C155,68 156,67 156,67  Z"/>

<path  fill="#FF64FF" stroke-width="0" stroke="#FF64FF" d = " M301 68 L303,70 C303,70 301,68 301,68  Z"/>

<path  fill="#FF64FF" stroke-width="0" stroke="#FF64FF" d = " M154 69 L153,71 C153,71 154,69 154,69  Z"/>

<path  fill="#FF64FF" stroke-width="0" stroke="#FF64FF" d = " M153 71 L152,73 C152,73 153,71 153,71  Z"/>

<path  fill-rule="evenodd" fill="#FC8FFF" stroke-width="0" stroke="#FC8FFF" d = " M193 145 C193,150.456 197.529,145 193,145  M263 144 C263,144.833 258.715,148 262.5,148 263.941,148 264.981,144 263,144  M263 151 C261.436,151 259.124,152 257,152 255.638,152 253.611,148 249,148 246.704,148 244.123,148 242,148 242,148 241,149 241,149 236.65,149 232.781,152 232,152 232,152 232,151 232,151 232,151 232,150 232,150 232,150 235,147 235,147 235,147 243.5,141 243.5,141 257.581,133.959 249.653,113.153 241,104.5 239.42,102.92 228.162,93.6689 227.5,94 212.649,101.425 193.179,131.34 214.5,142 217.27,143.385 218.655,147 222,147 222,147 225,151 225,151 225,151 225,152 225,152 221.941,152 217.69,148 214,148 211.877,148 209.296,148 207,148 204.975,148 200,149.233 200,152 198.679,152 194,152.684 194,151 194,151 192,149 192,149 192,149 189,143 189,143 189,141.762 188.577,140 187,140 187,140 187,139 187,139 187,139 187,136 187,136 187,130.413 188,123.919 188,119 189.028,119 192,114.334 192,113 192,113 193,112 193,112 194.811,112 197,108.562 197,107 198.976,107 201,104.124 201,102 201,102 202,101 202,101 202,101 203,99 203,99 203,99 204,98 204,98 207.68,98 208.856,87.7889 210,85.5 212.273,80.9539 216.916,73.2922 221.5,71 223.732,69.8839 226.897,72 228.5,72 229.888,72 232.472,69.9858 234.5,71 249.768,78.6338 247.079,103.29 262.5,111 262.5,111 268,119 268,119 268,119 270,124.5 270,124.5 271.371,127.243 270,134.76 270,137 270,137 269,139 269,139 269,139 269,140 269,140 269,140 267,144 267,144 267,144 264,149 264,149 264,149 263,151 263,151  Z"/>

<path  fill="#FF64FF" stroke-width="0" stroke="#FF64FF" d = " M309 125 L301,129 C301,123.508 279,127.834 279,123 282.249,123 286.194,124 290,124 308.534,124 316.816,100.133 309,84.5 309,84.5 303,71 303,71 303,71 305,72 305,72 305,74.3246 311.564,88.6289 313,91.5 313.948,93.3966 311.524,101 315,101 315,101 315,105 315,105 315,105 314,115 314,115 314,115 309,125 309,125  Z"/>

<path  fill="#C9C8C8" stroke-width="0" stroke="#C9C8C8" d = " M151 74 L149,75 C149,73.742 151,70.794 151,73 151,73 151,74 151,74  Z"/>

<path  fill="#C9C8C8" stroke-width="0" stroke="#C9C8C8" d = " M305 72 C310.884,72 315,95.0274 315,101 311.524,101 313.948,93.3966 313,91.5 311.564,88.6289 305,74.3246 305,72  Z"/>

<path  fill="#FF64FF" stroke-width="0" stroke="#FF64FF" d = " M152 73 L151,74 C151,74 151,73 151,73 151,73 152,73 152,73  Z"/>

<path  fill="#FF64FF" stroke-width="0" stroke="#FF64FF" d = " M149 75 L149,79 C150.638,79 151,75.4242 151,74 151,74 149,75 149,75  Z"/>

<path  fill="#C9C8C8" stroke-width="0" stroke="#C9C8C8" d = " M149 79 C146.084,79 143.301,101 141,101 141,96.5639 145.276,75 149,75 149,75 149,79 149,79  Z"/>

<path  fill="#FF64FF" stroke-width="0" stroke="#FF64FF" d = " M147 125 L155,129 C155,124.463 168.717,126.392 171.5,125 172.546,124.477 175,125.951 175,124 175,124 167,124 167,124 163.541,124 159.373,124.437 156.5,123 149.494,119.497 142.273,103.954 146,96.5 146,96.5 146,89.5 146,89.5 147.554,86.391 149,82.7328 149,79 146.084,79 143.301,101 141,101 141,101 142,107 142,107 142,107 142,113 142,113 142.083,113 147,123.711 147,125  Z"/>

<path  fill-rule="evenodd" fill="#A9A9A8" stroke-width="0" stroke="#A9A9A8" d = " M239 123 L232,130.5 C233.403,133.307 237.361,131.93 239.5,133 250.817,138.658 252.933,126.217 246.5,123 L239,123  M209 123 C209,127.252 204.866,130.232 207,134.5 207.816,136.131 222.558,133.384 224,130.5 225.003,128.495 221.41,127.32 221,126.5 220.397,125.295 217.835,123 216,123 L209,123  M222 147 C226.965,147 229.895,147 235,147 235,147 243.5,141 243.5,141 257.581,133.959 249.653,113.153 241,104.5 239.42,102.92 228.162,93.6689 227.5,94 212.649,101.425 193.179,131.34 214.5,142 217.27,143.385 218.655,147 222,147  Z"/>

<path  fill="#FF64FF" stroke-width="0" stroke="#FF64FF" d = " M204 98 L203,99 C203,99 204,98 204,98  Z"/>

<path  fill="#FDFB8F" stroke-width="0" stroke="#FDFB8F" d = " M107 171 L111,171 C119.209,171 129.906,141.688 133,135.5 134.101,133.298 137.431,125 141,125 141,125 141,119 141,119 141,119 142,118 142,118 142,118 142,113 142,113 142,113 142,107 142,107 140.251,107 135.303,100.401 132.5,99 122.698,94.0989 103.134,125.232 100,131.5 95.0104,141.479 93.2773,156.777 102,165.5 103.792,167.292 104.226,171 107,171  Z"/>

<path  fill="#FF64FF" stroke-width="0" stroke="#FF64FF" d = " M203 99 L202,101 C202,101 203,99 203,99  Z"/>

<path  fill="#FDFB8F" stroke-width="0" stroke="#FDFB8F" d = " M345 171 L350,172 C350,170.216 358.676,160.148 360,157.5 361.523,154.454 360.29,144.079 359,141.5 357.724,138.947 358.308,135.116 357,132.5 352.282,123.065 339.849,104.175 329.5,99 323.442,95.9709 319.687,105 315,105 315,105 314,115 314,115 314,115 315,117 315,117 315,117 315,124 315,124 317.089,124 320.15,129.799 321,131.5 326.01,141.52 330.05,151.599 335,161.5 335,161.5 345,171 345,171  Z"/>

<path  fill="#72D568" stroke-width="0" stroke="#72D568" d = " M77 107 C81.414,107 86.1774,108 90,108 91.0621,108 94.8253,102.163 92.5,101 88.3145,98.9073 77,101.066 77,107  Z"/>

<path  fill="#72D568" stroke-width="0" stroke="#72D568" d = " M366 108 C370.26,108 375.871,108 380,108 380,101.104 368.139,98.6804 363.5,101 361.63,101.935 365.034,108 366,108  Z"/>

<path  fill="#FF64FF" stroke-width="0" stroke="#FF64FF" d = " M202 101 L201,102 C201,102 202,101 202,101  Z"/>

<path  fill="#FF64FF" stroke-width="0" stroke="#FF64FF" d = " M197 106 L197,107 C198.976,107 201,104.124 201,102 201,102 197,106 197,106  Z"/>

<path  fill="#72D568" stroke-width="0" stroke="#72D568" d = " M77 107 L76,108 C76,108 77,107 77,107  Z"/>

<path  fill="#31B625" stroke-width="0" stroke="#31B625" d = " M76 108 C73.6848,108 71.8731,116.754 71,118.5 68.8858,122.728 62.3868,139.274 65,144.5 72.5437,159.587 78.0961,146.308 82,138.5 84.2222,134.056 83.1143,126.271 85,122.5 85.7945,120.911 90,109.068 90,108 86.1774,108 81.414,107 77,107 77,107 76,108 76,108  Z"/>

<path  fill="#FF64FF" stroke-width="0" stroke="#FF64FF" d = " M197 107 C195.189,107 193,110.438 193,112 194.811,112 197,108.562 197,107  Z"/>

<path  fill="#31B625" stroke-width="0" stroke="#31B625" d = " M366 108 C370.26,108 375.871,108 380,108 382.628,108 384.115,115.73 385,117.5 388.693,124.885 394.503,138.493 390,147.5 386.91,153.679 380.265,151.03 378,146.5 374.831,140.161 374.127,132.754 371,126.5 371,126.5 370,116.5 370,116.5 370,116.5 366,108 366,108  Z"/>

<path  fill="#FF64FF" stroke-width="0" stroke="#FF64FF" d = " M193 112 L192,113 C192,113 193,112 193,112  Z"/>

<path  fill="#FF64FF" stroke-width="0" stroke="#FF64FF" d = " M186 119 L188,119 C189.028,119 192,114.334 192,113 192,113 186,119 186,119  Z"/>

<path  fill="#F0F080" stroke-width="0" stroke="#F0F080" d = " M314 115 L315,117 C315,117 314,115 314,115  Z"/>

<path  fill="#F0F080" stroke-width="0" stroke="#F0F080" d = " M142 118 L141,119 C141,119 142,118 142,118  Z"/>

<path  fill="#FC90FF" stroke-width="0" stroke="#FC90FF" d = " M174 143 L175,143 C175,143 176,142 176,142 176,142 178,142 178,142 178,142 179,141 179,141 179,141 180,141 180,141 180,141 182,141 182,141 182,141 183,140 183,140 183,140 184,140 184,140 184,140 185,139 185,139 185,137.762 185.423,136 187,136 187,130.413 188,123.919 188,119 188,119 186,119 186,119 186,119 180,122 180,122 180,122 179,123 179,123 179,123 178,123 178,123 178,123 176,124 176,124 176,124 175,124 175,124 175,125.951 172.546,124.477 171.5,125 168.717,126.392 155,124.463 155,129 155,137.633 161.619,143 170,143 170,143 173,143 173,143 173,143 174,143 174,143  Z"/>

<path  fill="#FC90FF" stroke-width="0" stroke="#FC90FF" d = " M284 143 L287,143 C295.367,143 301,137.406 301,129 301,123.508 279,127.834 279,123 279,123 277,123 277,123 277,123 276,122 276,122 276,122 271,119 271,119 271,119 268,119 268,119 268,119 270,124.5 270,124.5 271.371,127.243 270,134.76 270,137 270,137 271,139 271,139 272.238,139 274,139.423 274,141 274,141 277,141 277,141 277,141 278,142 278,142 278,142 279,142 279,142 279,142 280,142 280,142 280,142 282,143 282,143 282,143 283,143 283,143 283,143 284,143 284,143  Z"/>

<path  fill="#FF64FF" stroke-width="0" stroke="#FF64FF" d = " M180 122 L179,123 C179,123 180,122 180,122  Z"/>

<path  fill="#FF64FF" stroke-width="0" stroke="#FF64FF" d = " M276 122 L277,123 C277,123 276,122 276,122  Z"/>

<path  fill="#FF64FF" stroke-width="0" stroke="#FF64FF" d = " M178 123 L176,124 C176,124 178,123 178,123  Z"/>

<path  fill="#FDFA91" stroke-width="0" stroke="#FDFA91" d = " M209 123 C209,127.252 204.866,130.232 207,134.5 207.816,136.131 222.558,133.384 224,130.5 225.003,128.495 221.41,127.32 221,126.5 220.397,125.295 217.835,123 216,123 L209,123  Z"/>

<path  fill="#FDFA91" stroke-width="0" stroke="#FDFA91" d = " M239 123 L232,130.5 C233.403,133.307 237.361,131.93 239.5,133 250.817,138.658 252.933,126.217 246.5,123 L239,123  Z"/>

<path  fill="#F0F080" stroke-width="0" stroke="#F0F080" d = " M143 125 L146,125 C146,123.514 143,123.514 143,125  Z"/>

<path  fill="#F0F080" stroke-width="0" stroke="#F0F080" d = " M310 125 L313,125 C313,123.514 310,123.514 310,125  Z"/>

<path  fill="#FCFB90" stroke-width="0" stroke="#FCFB90" d = " M345 171 C345,172.951 342.546,171.477 341.5,172 336.916,174.292 327.539,171.579 325,166.5 324.358,165.216 320.411,156.677 320,157.5 318.543,160.415 325,167.64 325,170.5 L319,179 C316.404,179 314.845,180.173 312.5,179 310.26,177.88 306.27,167.04 305,164.5 305,164.5 302,160 302,160 302,157.223 299.871,141.758 301,139.5 302.104,137.291 309,126.309 309,125 309,125 310,125 310,125 310,125 313,125 313,125 313,125 315,124 315,124 317.089,124 320.15,129.799 321,131.5 326.01,141.52 330.05,151.599 335,161.5 335,161.5 345,171 345,171  Z"/>

<path  fill-rule="evenodd" fill="#FCFB90" stroke-width="0" stroke="#FCFB90" d = " M135 158 C135,161.746 137.091,158 135,158  M136 156 C136,159.746 138.091,156 136,156  M111 171 C111,174.306 124.583,171.959 126.5,171 L133,163.5 L134.5,160 C136.104,160 131.459,170.418 132,171.5 135.554,178.608 138.387,178 145,178 145,172.219 154,164.717 154,161 154,161 155,160 155,160 155,160 155,159 155,159 150.673,159 157.737,145.974 156,142.5 153.944,138.388 153.056,133.613 151,129.5 151,129.5 147,125 147,125 147,125 146,125 146,125 146,125 143,125 143,125 143,125 141,125 141,125 137.431,125 134.101,133.298 133,135.5 129.906,141.688 119.209,171 111,171  Z"/>

<path  fill="#F0F080" stroke-width="0" stroke="#F0F080" d = " M157 158 L155,159 C150.673,159 157.737,145.974 156,142.5 153.944,138.388 153.056,133.613 151,129.5 151,129.5 147,125 147,125 147,125 155,129 155,129 155,137.633 161.619,143 170,143 170,144.177 157,151.814 157,158  Z"/>

<path  fill="#F0F080" stroke-width="0" stroke="#F0F080" d = " M287 143 L296.5,152 L302,160 C302,157.223 299.871,141.758 301,139.5 302.104,137.291 309,126.309 309,125 309,125 301,129 301,129 301,137.406 295.367,143 287,143  Z"/>

<path  fill="#FF64FF" stroke-width="0" stroke="#FF64FF" d = " M185 139 L187,139 C187,139 187,136 187,136 185.423,136 185,137.762 185,139  Z"/>

<path  fill="#FF64FF" stroke-width="0" stroke="#FF64FF" d = " M269 139 L271,139 C271,139 270,137 270,137 270,137 269,139 269,139  Z"/>

<path  fill="#FF9B88" stroke-width="0" stroke="#FF9B88" d = " M184 140 L187,140 C187,140 187,139 187,139 187,139 185,139 185,139 185,139 184,140 184,140  Z"/>

<path  fill="#FF9B88" stroke-width="0" stroke="#FF9B88" d = " M269 140 L274,141 C274,139.423 272.238,139 271,139 271,139 269,139 269,139 269,139 269,140 269,140  Z"/>

<path  fill="#FF9B88" stroke-width="0" stroke="#FF9B88" d = " M183 140 L182,141 C182,141 183,140 183,140  Z"/>

<path  fill="#FFAD6D" stroke-width="0" stroke="#FFAD6D" d = " M149 177 C149,179.177 153.336,181 155,181 155,176.2 176.735,161 181,161 181,161 182,160 182,160 182,160 187,152 187,152 187,152 189,150.5 189,150.5 189,150.5 189,143 189,143 189,141.762 188.577,140 187,140 187,140 184,140 184,140 184,140 183,140 183,140 183,140 182,141 182,141 182,141 180,141 180,141 180,141 179,142 179,142 179,142 178,142 178,142 178,142 176,143 176,143 176,143 175,143 175,143 175,143 174,144 174,144 174,144 173,144 173,144 173,144 172,145 172,145 172,145 171,146 171,146 171,146 170,147 170,147 170,147 169,148 169,148 169,148 168,149 168,149 168,149 166,152 166,152 166,152 165,153 165,153 165,153 163,156 163,156 163,156 162,157 162,157 162,157 161,158 161,158 161,158 160,159 160,159 160,159 159,160 159,160 159,160 158,161 158,161 158,166.325 149,170.793 149,177  Z"/>

<path  fill="#FFAD6D" stroke-width="0" stroke="#FFAD6D" d = " M301 180 L302,181 C304.363,181 306.713,177 308,177 308,169.721 294,159.871 294,156 294,156 292,154 292,154 292,152.053 289,151.364 289,149 286.785,149 287.481,147 286,147 286,147 285,146 285,146 285,146 284,145 284,145 284,145 282,143 282,143 282,143 280,143 280,143 280,143 279,142 279,142 279,142 278,142 278,142 278,142 277,141 277,141 277,141 274,141 274,141 274,141 269,140 269,140 269,140 267,144 267,144 267,147.015 269,150.004 269,152 271.953,152 272.596,159.548 275.5,161 280.048,163.274 301,174.202 301,180  Z"/>

<path  fill="#FF64FF" stroke-width="0" stroke="#FF64FF" d = " M178 142 L179,142 C179,142 179,141 179,141 179,141 178,142 178,142  Z"/>

<path  fill="#FF9B88" stroke-width="0" stroke="#FF9B88" d = " M180 141 L179,142 C179,142 179,141 179,141 179,141 180,141 180,141  Z"/>

<path  fill="#FF9B88" stroke-width="0" stroke="#FF9B88" d = " M277 141 L278,142 C278,142 277,141 277,141  Z"/>

<path  fill="#FF64FF" stroke-width="0" stroke="#FF64FF" d = " M175 143 L176,143 C176,143 176,142 176,142 176,142 175,143 175,143  Z"/>

<path  fill="#FF9B88" stroke-width="0" stroke="#FF9B88" d = " M178 142 L176,143 C176,143 176,142 176,142 176,142 178,142 178,142  Z"/>

<path  fill="#FF9B88" stroke-width="0" stroke="#FF9B88" d = " M280 142 L280,143 C280,143 279,142 279,142 279,142 280,142 280,142  Z"/>

<path  fill="#FF64FF" stroke-width="0" stroke="#FF64FF" d = " M280 143 L282,143 C282,143 280,142 280,142 280,142 280,143 280,143  Z"/>

<path  fill="#CBC9CC" stroke-width="0" stroke="#CBC9CC" d = " M168 149 C161.824,149 159.195,158 157,158 157,151.814 170,144.177 170,143 170,143 173,143 173,143 173,143 173,144 173,144 173,144 172,145 172,145 172,145 171,146 171,146 171,146 170,147 170,147 170,147 169,148 169,148 169,148 168,149 168,149  Z"/>

<path  fill="#FF64FF" stroke-width="0" stroke="#FF64FF" d = " M173 144 L174,144 C174,144 174,143 174,143 174,143 173,143 173,143 173,143 173,144 173,144  Z"/>

<path  fill="#FF9B88" stroke-width="0" stroke="#FF9B88" d = " M175 143 L174,144 C174,144 174,143 174,143 174,143 175,143 175,143  Z"/>

<path  fill="#FF9B88" stroke-width="0" stroke="#FF9B88" d = " M225 261 L226,261 C226,261 226,250.5 226,250.5 229.213,244.074 231,254.748 231,257 231,257 232,255 232,255 232,252.282 233.466,240 235,240 235,236.622 235,233.078 235,229 235,221.536 236,213.9 236,207 236,207 234,207 234,207 234,208.268 230.696,217.892 229,214.5 229,214.5 229,199.5 229,199.5 229.612,198.276 234,198.91 234,200.5 234,201.625 234,203.057 234,205 236.144,205 234.381,200.738 235,199.5 236.41,196.679 238,198.259 238,200.5 238,200.5 238,203 238,203 238,203 241.5,198 241.5,198 250.702,193.399 271,182.458 271,201 271,201 275,197 275,197 275,184.687 281.211,187 291,187 291,184.1 272.213,182.925 270,178.5 267.618,173.736 272,168.036 272,163 269.059,163 267,159.423 267,160 267,160 267,164 267,164 272.517,164 265,173.517 265,165 265,165 264,163 264,163 262.742,163 262.361,155.779 263,154.5 265.217,150.066 266.593,156 267.5,156 268.939,156 266.841,152 269,152 269,150.004 267,147.015 267,144 267,144 264,149 264,149 264,150.013 263,153.408 263,151 261.436,151 259.124,152 257,152 257,152 258,155 258,155 258,159.606 261.011,165.522 263,169.5 264.081,171.661 262,174.394 262,176 262,177.122 248.693,191 246,191 242.573,191 235.491,198.996 231.5,197 231.5,197 228.5,194 228.5,194 228.5,194 223.5,197 223.5,197 221.706,196.103 211.198,191 210,191 208.286,191 194,177.024 194,175 192.78,175 192.496,171.508 193,170.5 194.989,166.522 198,160.606 198,156 198,156 199,155 199,155 199,155 199,154 199,154 199,154 200,153 200,153 200,153 200,152 200,152 198.679,152 194,152.684 194,151 192.253,151 192,150.747 192,149 192,149 189,143 189,143 189,143 189,150.5 189,150.5 189,150.5 187,152 187,152 189.533,152 188.57,155 189.5,155 189.598,155 191.679,150.858 193,153.5 193.532,154.564 195.291,163 193,163 193,163 191,164 191,164 191,174.148 185.229,164 189,164 189,164 190,160 190,160 186.815,160 189.108,163 184,163 184,167.286 189.343,173.814 187,178.5 185.056,182.387 174.144,183.178 170.5,185 169.454,185.523 167,184.049 167,186 174.066,186 179.901,187.302 183,193.5 183,193.5 181,197 181,197 183.54,197 183.543,200 185,200 185,184.062 205.774,193.137 213.5,197 213.5,197 219,203 219,203 219,193.316 222,198.829 222,205 224.433,205 221.042,196.271 226.5,199 229.428,200.464 228,209.096 228,212 228,212 226.5,216 226.5,216 223.866,216 223.436,208 222,208 222,208 219,205 219,205 219,205 221,209.5 221,209.5 221,209.5 221,227 221,227 221,227 221,232 221,232 221,232 222,233 222,233 222,233 222,240 222,240 222,243.697 225,247.337 225,250.5 225,251.717 224,254.158 224,256 225.643,256 225,259.765 225,261  Z"/>

<path  fill="#FF9B88" stroke-width="0" stroke="#FF9B88" d = " M284 144 L284,145 C284,145 282,143 282,143 282,143 283,143 283,143 283,143 284,144 284,144  Z"/>

<path  fill="#F0F080" stroke-width="0" stroke="#F0F080" d = " M284 143 L284,144 C284,144 283,143 283,143 283,143 284,143 284,143  Z"/>

<path  fill="#CBC9CC" stroke-width="0" stroke="#CBC9CC" d = " M315 182 L316,182 C316,182 317,181 317,181 317,181 319,179 319,179 316.404,179 314.845,180.173 312.5,179 310.26,177.88 306.27,167.04 305,164.5 305,164.5 302,160 302,160 302,160 296.5,152 296.5,152 296.5,152 287,143 287,143 287,143 284,143 284,143 284,143 284,144 284,144 284,144 284,145 284,145 284,145 285,146 285,146 285,146 286,147 286,147 287.481,147 286.785,149 289,149 293.397,149 296.409,154.318 298,157.5 298.093,157.685 302.757,162 300.5,162 300.5,162 294,156 294,156 294,159.871 308,169.721 308,177 311.153,177 312.304,182 315,182  Z"/>

<path  fill="#F0F080" stroke-width="0" stroke="#F0F080" d = " M173 144 L172,145 C172,145 173,144 173,144  Z"/>

<path  fill="#C8C9C8" stroke-width="0" stroke="#C8C9C8" d = " M263 144 C263,144.833 258.715,148 262.5,148 263.941,148 264.981,144 263,144  Z"/>

<path  fill="#FF9B88" stroke-width="0" stroke="#FF9B88" d = " M172 145 L171,146 C171,146 172,145 172,145  Z"/>

<path  fill="#C8C9C8" stroke-width="0" stroke="#C8C9C8" d = " M193 145 C193,150.456 197.529,145 193,145  Z"/>

<path  fill="#AAA9A7" stroke-width="0" stroke="#AAA9A7" d = " M230 151 L231,151 C231,151 232,150 232,150 232,150 235,147 235,147 229.895,147 226.965,147 222,147 222,147 225,151 225,151 225,151 227,151 227,151 227,151 230,151 230,151  Z"/>

<path  fill="#FF9B88" stroke-width="0" stroke="#FF9B88" d = " M285 146 L286,147 C286,147 285,146 285,146  Z"/>

<path  fill="#FF9B88" stroke-width="0" stroke="#FF9B88" d = " M170 147 L169,148 C169,148 170,147 170,147  Z"/>

<path  fill="#FEC395" stroke-width="0" stroke="#FEC395" d = " M211 169 C209.394,169 205.713,175.894 203.5,177 199.997,178.752 196.579,175 194,175 192.78,175 192.496,171.508 193,170.5 194.989,166.522 198,160.606 198,156 198,156 199,155 199,155 199,155 199,154 199,154 199,154 200,153 200,153 200,153 207,148 207,148 209.296,148 211.877,148 214,148 214,149.804 216.182,153.136 215,155.5 215,155.5 213,160 213,160 213,160 213,162 213,162 213,162 212,163 212,163 212,163 212,165 212,165 212,165 211,166 211,166 211,166 211,169 211,169  Z"/>

<path  fill="#FEC395" stroke-width="0" stroke="#FEC395" d = " M245 167 C245.789,167 249.102,174.801 251.5,176 255.344,177.922 258.278,176 262,176 262,174.394 264.081,171.661 263,169.5 261.011,165.522 258,159.606 258,155 258,155 249,148 249,148 246.704,148 244.123,148 242,148 242,148 241,149 241,149 241,154.164 244,157.516 244,162 244,162 244,163 244,163 244,163 245,164 245,164 245,164 245,167 245,167  Z"/>

<path  fill="#FFBA84" stroke-width="0" stroke="#FFBA84" d = " M200 152 L200,153 C200,153 207,148 207,148 204.975,148 200,149.233 200,152  Z"/>

<path  fill="#FFBA84" stroke-width="0" stroke="#FFBA84" d = " M228 165 L229,165 C229,158.659 234.485,153.992 240.5,157 240.5,157 244,162 244,162 244,157.516 241,154.164 241,149 236.65,149 232.781,152 232,152 232,152 229,156.5 229,156.5 229,156.5 228.5,161 228.5,161 228.5,161 225,152 225,152 221.941,152 217.69,148 214,148 214,149.804 216.182,153.136 215,155.5 215,155.5 213,160 213,160 217.727,160 220.34,149.18 226,160.5 226,160.5 228,165 228,165  Z"/>

<path  fill="#FFBA84" stroke-width="0" stroke="#FFBA84" d = " M242 148 L241,149 C241,149 242,148 242,148  Z"/>

<path  fill="#FFBA84" stroke-width="0" stroke="#FFBA84" d = " M257 152 L258,155 C258,155 249,148 249,148 253.611,148 255.638,152 257,152  Z"/>

<path  fill="#CBC7CC" stroke-width="0" stroke="#CBC7CC" d = " M159 160 L158,161 C155.155,161 157,160.041 157,158 159.195,158 161.824,149 168,149 168,149 166,152 166,152 166,152 165,153 165,153 165,153 163,156 163,156 163,156 162,157 162,157 162,157 161,158 161,158 161,158 160,159 160,159 160,159 159,160 159,160  Z"/>

<path  fill="#FF79FE" stroke-width="0" stroke="#FF79FE" d = " M192 149 L194,151 C192.253,151 192,150.747 192,149  Z"/>

<path  fill="#FF79FE" stroke-width="0" stroke="#FF79FE" d = " M264 149 L263,151 C263,153.408 264,150.013 264,149  Z"/>

<path  fill="#CBC7CC" stroke-width="0" stroke="#CBC7CC" d = " M292 154 L294,156 C294,156 300.5,162 300.5,162 302.757,162 298.093,157.685 298,157.5 296.409,154.318 293.397,149 289,149 289,151.364 292,152.053 292,154  Z"/>

<path  fill="#FF64FF" stroke-width="0" stroke="#FF64FF" d = " M231 151 L232,151 C232,151 232,150 232,150 232,150 231,151 231,151  Z"/>

<path  fill="#FF9B88" stroke-width="0" stroke="#FF9B88" d = " M225 152 L228.5,161 L229,156.5 L232,152 C232,152 232,151 232,151 232,151 231,151 231,151 231,151 230,151 230,151 230,153.202 227,153.202 227,151 227,151 225,151 225,151 225,151 225,152 225,152  Z"/>

<path  fill="#FF64FF" stroke-width="0" stroke="#FF64FF" d = " M227 151 L230,151 C230,153.202 227,153.202 227,151  Z"/>

<path  fill="#FF9B88" stroke-width="0" stroke="#FF9B88" d = " M166 152 L165,153 C165,153 166,152 166,152  Z"/>

<path  fill="#CBC9CB" stroke-width="0" stroke="#CBC9CB" d = " M155 181 L157,181 C163.174,181 180.794,163 184,163 189.108,163 186.815,160 190,160 191.803,160 193,159.607 193,163 195.291,163 193.532,154.564 193,153.5 191.679,150.858 189.598,155 189.5,155 188.57,155 189.533,152 187,152 187,152 182,160 182,160 182,160 181,161 181,161 176.735,161 155,176.2 155,181  Z"/>

<path  fill="#CBC9CB" stroke-width="0" stroke="#CBC9CB" d = " M301 180 L299,181 C291.73,181 277.769,163 272,163 269.059,163 267,159.423 267,160 264.607,160 264,159.439 264,163 262.742,163 262.361,155.779 263,154.5 265.217,150.066 266.593,156 267.5,156 268.939,156 266.841,152 269,152 271.953,152 272.596,159.548 275.5,161 280.048,163.274 301,174.202 301,180  Z"/>

<path  fill="#FFBA84" stroke-width="0" stroke="#FFBA84" d = " M200 153 L199,154 C199,154 200,153 200,153  Z"/>

<path  fill="#FF9B88" stroke-width="0" stroke="#FF9B88" d = " M292 154 L294,156 C294,156 292,154 292,154  Z"/>

<path  fill="#FFBA84" stroke-width="0" stroke="#FFBA84" d = " M199 155 L198,156 C198,156 199,155 199,155  Z"/>

<path  fill="#CBC9CC" stroke-width="0" stroke="#CBC9CC" d = " M136 156 C136,159.746 138.091,156 136,156  Z"/>

<path  fill="#CBC9CC" stroke-width="0" stroke="#CBC9CC" d = " M163 156 L162,157 C162,157 163,156 163,156  Z"/>

<path  fill="#FEB985" stroke-width="0" stroke="#FEB985" d = " M228 167 C228,177.325 211,179.046 211,169 211,169 211,166 211,166 211,166 212,165 212,165 212,165 212,163 212,163 212,163 213,162 213,162 213,162 213,160 213,160 217.727,160 220.34,149.18 226,160.5 226,160.5 228,165 228,165 228,165 228,167 228,167  Z"/>

<path  fill="#FEB985" stroke-width="0" stroke="#FEB985" d = " M229 167 C229,178.575 245,178.575 245,167 245,167 245,164 245,164 245,164 244,163 244,163 244,163 244,162 244,162 244,162 240.5,157 240.5,157 234.485,153.992 229,158.659 229,165 229,165 229,167 229,167  Z"/>

<path  fill="#CBC9CC" stroke-width="0" stroke="#CBC9CC" d = " M162 157 L161,158 C161,158 162,157 162,157  Z"/>

<path  fill="#CBC9CC" stroke-width="0" stroke="#CBC9CC" d = " M335 190 C335,199.973 346.341,200.181 348,203.5 348.765,205.029 348.343,208.422 345.5,207 343.044,205.772 339.815,203 337,203 337,199.579 331,196.637 331,190 331,190 338,179.5 338,179.5 340.319,174.862 328.943,173.778 326.5,175 324.074,176.213 323.469,179 321,179 321,179 319,179 319,179 319,179 325,170.5 325,170.5 325,167.64 318.543,160.415 320,157.5 320.411,156.677 324.358,165.216 325,166.5 327.539,171.579 336.916,174.292 341.5,172 342.546,171.477 345,172.951 345,171 345,171 350,172 350,172 350,172 335,190 335,190  Z"/>

<path  fill="#CBC9CC" stroke-width="0" stroke="#CBC9CC" d = " M135 158 C135,161.746 137.091,158 135,158  Z"/>

<path  fill="#CBC9CC" stroke-width="0" stroke="#CBC9CC" d = " M149 177 L145,178 C145,172.219 154,164.717 154,161 154,161 155,161 155,161 155,161 155,160 155,160 155,160 155,159 155,159 155,159 157,158 157,158 157,160.041 155.155,161 158,161 158,166.325 149,170.793 149,177  Z"/>

<path  fill="#CBC9CC" stroke-width="0" stroke="#CBC9CC" d = " M161 158 L160,159 C160,159 161,158 161,158  Z"/>

<path  fill="#CBC9CC" stroke-width="0" stroke="#CBC9CC" d = " M160 159 L159,160 C159,160 160,159 160,159  Z"/>

<path  fill="#FF79FE" stroke-width="0" stroke="#FF79FE" d = " M189 164 L191,164 C191,164 193,163 193,163 193,159.607 191.803,160 190,160 190,160 189,164 189,164  Z"/>

<path  fill="#FF79FE" stroke-width="0" stroke="#FF79FE" d = " M267 164 L265,165 C265,165 264,163 264,163 264,159.439 264.607,160 267,160 267,160 267,164 267,164  Z"/>

<path  fill="#CBC9CC" stroke-width="0" stroke="#CBC9CC" d = " M120 202 L119,203 C116.18,203 111.348,208.424 108.5,207 106.936,206.218 108.47,203.515 109.5,203 114.799,200.35 121,197.036 121,190 121,185.229 107,176.954 107,173 107,173 107,171 107,171 107,171 111,171 111,171 111,174.306 124.583,171.959 126.5,171 126.5,171 133,163.5 133,163.5 133,163.5 134.5,160 134.5,160 136.104,160 131.459,170.418 132,171.5 135.554,178.608 138.387,178 145,178 145,179.429 143.712,182 142,182 142,182 141,182 141,182 141,182 140,181 140,181 140,179.986 136.041,179 135,179 132.817,179 131.69,175.595 130.5,175 126.329,172.915 115.902,175.304 119,181.5 119,181.5 125,189 125,189 125,193.368 123,197.475 123,199 123,199 122,200 122,200 122,200 121,201 121,201 121,201 120,202 120,202  Z"/>

<path  fill="#F0F080" stroke-width="0" stroke="#F0F080" d = " M154 161 L155,161 C155,161 155,160 155,160 155,160 154,161 154,161  Z"/>

<path  fill="#CBC9CC" stroke-width="0" stroke="#CBC9CC" d = " M159 160 L158,161 C158,161 159,160 159,160  Z"/>

<path  fill="#FF9B88" stroke-width="0" stroke="#FF9B88" d = " M182 160 L181,161 C181,161 182,160 182,160  Z"/>

<path  fill="#FFBA84" stroke-width="0" stroke="#FFBA84" d = " M213 162 L212,163 C212,163 213,162 213,162  Z"/>

<path  fill="#FFAD6D" stroke-width="0" stroke="#FFAD6D" d = " M165 187 L160,188 C160,186.527 158.048,187 157,187 157,187 157,184 157,184 157,184 157,181 157,181 163.174,181 180.794,163 184,163 184,167.286 189.343,173.814 187,178.5 185.056,182.387 174.144,183.178 170.5,185 169.454,185.523 167,184.049 167,186 167,186 165,187 165,187  Z"/>

<path  fill="#FFBA84" stroke-width="0" stroke="#FFBA84" d = " M244 163 L245,164 C245,164 244,163 244,163  Z"/>

<path  fill="#FFAD6D" stroke-width="0" stroke="#FFAD6D" d = " M296 188 L297,188 C297,188 300,185 300,185 300,185 300,183 300,183 300,183 299,181 299,181 291.73,181 277.769,163 272,163 272,168.036 267.618,173.736 270,178.5 272.213,182.925 291,184.1 291,187 291,187 295,187 295,187 295,187 296,188 296,188  Z"/>

<path  fill="#FFAD6D" stroke-width="0" stroke="#FFAD6D" d = " M189 164 L191,164 C191,174.148 185.229,164 189,164  Z"/>

<path  fill="#FFAD6D" stroke-width="0" stroke="#FFAD6D" d = " M267 164 C272.517,164 265,173.517 265,165 265,165 267,164 267,164  Z"/>

<path  fill="#FFBA84" stroke-width="0" stroke="#FFBA84" d = " M212 165 L211,166 C211,166 212,165 212,165  Z"/>

<path  fill="#FF9B88" stroke-width="0" stroke="#FF9B88" d = " M228 167 L229,167 C229,167 229,165 229,165 229,165 228,165 228,165 228,165 228,167 228,167  Z"/>

<path  fill="#FFBA84" stroke-width="0" stroke="#FFBA84" d = " M210 191 C210,186.671 221.467,189.566 223,186.5 L225,177.5 C225.222,177.056 228,174.837 228,176.5 228,177.309 225.479,180.99 227.5,182 230.381,183.44 228.029,176 229.5,176 232.963,176 232.147,184.793 233,186.5 234.878,190.256 246,185.835 246,191 248.693,191 262,177.122 262,176 258.278,176 255.344,177.922 251.5,176 249.102,174.801 245.789,167 245,167 245,178.575 229,178.575 229,167 229,167 228,167 228,167 228,177.325 211,179.046 211,169 209.394,169 205.713,175.894 203.5,177 199.997,178.752 196.579,175 194,175 194,177.024 208.286,191 210,191  Z"/>

<path  fill="#FFFC8D" stroke-width="0" stroke="#FFFC8D" d = " M96 186 C100.357,186 105.909,182.704 110.5,185 114.147,186.823 116.589,190 121,190 121,185.229 107,176.954 107,173 95.1341,173 86.2641,186 96,186  Z"/>

<path  fill="#FFFC8D" stroke-width="0" stroke="#FFFC8D" d = " M361 186 C356.386,186 351.021,182.739 346.5,185 342.485,187.007 340.052,190 335,190 335,190 350,172 350,172 356.907,172 371.499,186 361,186  Z"/>

<path  fill="#CCCCCA" stroke-width="0" stroke="#CCCCCA" d = " M125 189 C127.517,189 125.996,195 129,195 129,195 139,186 139,186 139,186 140,185 140,185 140,185 140,184 140,184 140,184 141,183 141,183 141,183 141,182 141,182 141,182 140,181 140,181 138.576,181 135,180.638 135,179 132.817,179 131.69,175.595 130.5,175 126.329,172.915 115.902,175.304 119,181.5 119,181.5 125,189 125,189  Z"/>

<path  fill="#CCCCCA" stroke-width="0" stroke="#CCCCCA" d = " M331 190 C328.456,190 330.239,195 327,195 325.219,195 316,183.932 316,182 316,182 317,181 317,181 318.465,181 321,181.109 321,179 323.469,179 324.074,176.213 326.5,175 328.943,173.778 340.319,174.862 338,179.5 338,179.5 331,190 331,190  Z"/>

<path  fill="#FEC294" stroke-width="0" stroke="#FEC294" d = " M210 191 C211.198,191 221.706,196.103 223.5,197 L228.5,194 L231.5,197 C235.491,198.996 242.573,191 246,191 246,185.835 234.878,190.256 233,186.5 232.147,184.793 232.963,176 229.5,176 228.029,176 230.381,183.44 227.5,182 225.479,180.99 228,177.309 228,176.5 228,174.837 225.222,177.056 225,177.5 225,177.5 223,186.5 223,186.5 221.467,189.566 210,186.671 210,191  Z"/>

<path  fill="#FEAD6E" stroke-width="0" stroke="#FEAD6E" d = " M139 192 C140.757,192 151,186.551 151,193 154.795,193 154.903,187 157,187 157,187 157,184 157,184 155.423,184 155,182.238 155,181 153.336,181 149,179.177 149,177 149,177 145,178 145,178 145,179.429 143.712,182 142,182 142,182 141,183 141,183 141,183 140,184 140,184 140,184 140,185 140,185 140,185 139,186 139,186 139,186.986 136.485,192 139,192  Z"/>

<path  fill="#FEAD6E" stroke-width="0" stroke="#FEAD6E" d = " M306 192 L305,193 C300.939,193 300,188.224 300,185 300,185 300,183 300,183 300,183 302,181 302,181 304.363,181 306.713,177 308,177 311.153,177 312.304,182 315,182 315,182.801 320.736,192 317,192 315.702,192 306,186.936 306,192  Z"/>

<path  fill="#F0F080" stroke-width="0" stroke="#F0F080" d = " M135 179 C136.041,179 140,179.986 140,181 138.576,181 135,180.638 135,179  Z"/>

<path  fill="#F0F080" stroke-width="0" stroke="#F0F080" d = " M321 179 C321,181.109 318.465,181 317,181 317,181 319,179 319,179 319,179 321,179 321,179  Z"/>

<path  fill="#FF9B88" stroke-width="0" stroke="#FF9B88" d = " M302 181 L300,183 C300,183 299,181 299,181 299,181 301,180 301,180 301,180 302,181 302,181  Z"/>

<path  fill="#FF9B88" stroke-width="0" stroke="#FF9B88" d = " M157 181 L157,184 C155.423,184 155,182.238 155,181 155,181 157,181 157,181  Z"/>

<path  fill="#FF9B88" stroke-width="0" stroke="#FF9B88" d = " M142 182 L141,183 C141,183 141,182 141,182 141,182 142,182 142,182  Z"/>

<path  fill="#FF9B88" stroke-width="0" stroke="#FF9B88" d = " M325 213 C320.847,213 320.246,223 318,223 318,215.526 329.047,207.594 325,199.5 325,199.5 317,192 317,192 320.736,192 315,182.801 315,182 315,182 316,182 316,182 316,183.932 325.219,195 327,195 327,195 328,199 328,199 328,202.071 328,204.362 328,208 328,209.408 326.803,213 325,213  Z"/>

<path  fill="#FF9B88" stroke-width="0" stroke="#FF9B88" d = " M141 183 L140,184 C140,184 141,183 141,183  Z"/>

<path  fill="#FEF991" stroke-width="0" stroke="#FEF991" d = " M107 227 L104,229 C98.2638,229 88.5551,218.61 85,211.5 83.2985,208.097 85.7232,200.054 87,197.5 87,197.5 96,186 96,186 100.357,186 105.909,182.704 110.5,185 114.147,186.823 116.589,190 121,190 121,197.036 114.799,200.35 109.5,203 108.47,203.515 106.936,206.218 108.5,207 111.348,208.424 116.18,203 119,203 119,203 119,205 119,205 119,205 118,207 118,207 118,207 118,208 118,208 118,208 117,209 117,209 117,209 117,211 117,211 117,211 116,212 116,212 116,212 115,213 115,213 115,213 115,215 115,215 115,215 114,216 114,216 114,216 112,220 112,220 112,220 111,221 111,221 111,221 111,222 111,222 111,222 110,223 110,223 110,223 108,226 108,226 108,226 107,227 107,227  Z"/>

<path  fill="#FEF991" stroke-width="0" stroke="#FEF991" d = " M349 227 L352,229 C352,229 356.5,229 356.5,229 359.778,227.361 374.374,209.249 372,204.5 370.674,201.848 361,187.219 361,186 356.386,186 351.021,182.739 346.5,185 342.485,187.007 340.052,190 335,190 335,199.973 346.341,200.181 348,203.5 348.765,205.029 348.343,208.422 345.5,207 343.044,205.772 339.815,203 337,203 337,203 337,205 337,205 338.577,205 339,206.762 339,208 339,208 339,209 339,209 339,209 340,211 340,211 340,211 341,212 341,212 341,212 341,213 341,213 341,213 341,214 341,214 341,214 342,215 342,215 342,215 342,216 342,216 342,216 343,217 343,217 343,217 345,221 345,221 345,221 346,222 346,222 346,222 347,224 347,224 347,224 349,226 349,226 349,226 349,227 349,227  Z"/>

<path  fill="#FF9B88" stroke-width="0" stroke="#FF9B88" d = " M140 185 L139,186 C139,186 140,185 140,185  Z"/>

<path  fill="#FF9B88" stroke-width="0" stroke="#FF9B88" d = " M300 199 C302.25,199 303.376,201 305,201 305,201 305,193 305,193 300.939,193 300,188.224 300,185 300,185 297,188 297,188 297,189.391 300,193.616 300,199  Z"/>

<path  fill="#FF9B88" stroke-width="0" stroke="#FF9B88" d = " M131 213 C133.813,213 136.791,219.082 138,221.5 138.574,222.647 136.936,226 139,226 139,218.323 134.171,212.842 131,206.5 127.37,199.24 139,194.943 139,192 136.485,192 139,186.986 139,186 139,186 129,195 129,195 129,195 129,200 129,200 129,203.222 128,206.277 128,209 128,209 131,213 131,213  Z"/>

<path  fill="#FF9B88" stroke-width="0" stroke="#FF9B88" d = " M167 186 L165,187 C165,187 167,186 167,186  Z"/>

<path  fill="#FEBA86" stroke-width="0" stroke="#FEBA86" d = " M157 199 L158,199 C158,199 163.5,196 163.5,196 166.528,194.486 171.382,197 174,197 174,197 175,197 175,197 175,197 181,197 181,197 181,197 183,193.5 183,193.5 179.901,187.302 174.066,186 167,186 167,186 165,187 165,187 165,187 160,188 160,188 160,188.945 156,194.223 156,199 156,199 157,199 157,199  Z"/>

<path  fill="#FEBA86" stroke-width="0" stroke="#FEBA86" d = " M299 199 L300,199 C300,193.616 297,189.391 297,188 297,188 296,188 296,188 296,188 295,187 295,187 295,187 291,187 291,187 281.211,187 275,184.687 275,197 275,197 281,197 281,197 281,197 282,197 282,197 284.824,197 290.268,194.384 293.5,196 295.43,196.965 297.159,199 299,199  Z"/>

<path  fill="#FF9B88" stroke-width="0" stroke="#FF9B88" d = " M156 199 C153.75,199 152.624,201 151,201 151,201 151,193 151,193 154.795,193 154.903,187 157,187 158.048,187 160,186.527 160,188 160,188.945 156,194.223 156,199  Z"/>

<path  fill="#FF9B88" stroke-width="0" stroke="#FF9B88" d = " M295 187 L296,188 C296,188 295,187 295,187  Z"/>

<path  fill="#F0F080" stroke-width="0" stroke="#F0F080" d = " M123 199 C125.124,199 127.436,200 129,200 129,200 129,195 129,195 125.996,195 127.517,189 125,189 125,193.368 123,197.475 123,199  Z"/>

<path  fill="#FFAE6F" stroke-width="0" stroke="#FFAE6F" d = " M148 259 L150,259 C155.264,259 156,253.269 156,249 156,249 155,234 155,234 152.104,234 153,225.203 153,223 153,223 151,201 151,201 151,201 151,193 151,193 151,186.551 140.757,192 139,192 139,194.943 127.37,199.24 131,206.5 134.171,212.842 139,218.323 139,226 139,226 139,233 139,233 139,234.235 139.643,238 138,238 138,238 137,246 137,246 137,246 139,249 139,249 139,249 139,251 139,251 139,251 142,254 142,254 142,254 143,255 143,255 143,255 144,256 144,256 144,256 146,257 146,257 146,257 148,259 148,259  Z"/>

<path  fill="#FFAE6F" stroke-width="0" stroke="#FFAE6F" d = " M306 259 L308,259 C308,259 309,258 309,258 309,258 314,255 314,255 314,255 315,254 315,254 315,254 316,252 316,252 316,252 317,251 317,251 317,251 318,249 318,249 318,249 319,247 319,247 319,247 319,240 319,240 319,240 318,238 318,238 318,238 318,235 318,235 316.362,235 316.362,223 318,223 318,215.526 329.047,207.594 325,199.5 325,199.5 317,192 317,192 315.702,192 306,186.936 306,192 306,192 305,193 305,193 305,193 305,201 305,201 305,201 304,220 304,220 304,220 303,221 303,221 303,221 303,223 303,223 303,225.293 303.983,235 301,235 301,235 300,250 300,250 300,253.126 301.966,259 306,259  Z"/>

<path  fill="#F0F080" stroke-width="0" stroke="#F0F080" d = " M335 202 L337,203 C337,199.579 331,196.637 331,190 328.456,190 330.239,195 327,195 327,195 328,199 328,199 330.176,199 335,198.652 335,202  Z"/>

<path  fill="#FDBA86" stroke-width="0" stroke="#FDBA86" d = " M203 274 L204,274 C204,272.527 205.952,273 207,273 207,273 210,272 210,272 210,272 211,271 211,271 211,271 212,271 212,271 212,271 213,270 213,270 213,270 215,269 215,269 215,267.181 222.113,256 224,256 224,254.158 225,251.717 225,250.5 225,247.337 222,243.697 222,240 216.266,240 216.212,225.923 214,221.5 213.526,220.552 211.673,215.914 213.5,215 220.162,211.669 217.886,227 221,227 221,227 221,209.5 221,209.5 221,209.5 219,205 219,205 219,205 219,203 219,203 219,203 213.5,197 213.5,197 205.774,193.137 185,184.062 185,200 185,200 185,218 185,218 185,226.583 184,234.901 184,243 184,244.49 184.735,251 183,251 183,251 183,263 183,263 183,263 185,269 185,269 185,269 186,269 186,269 186,269 187,270 187,270 187,270 188,270 188,270 188,270 189,271 189,271 189,271 195,274 195,274 195,274 203,274 203,274  Z"/>

<path  fill="#FDBA86" stroke-width="0" stroke="#FDBA86" d = " M253 274 L261,274 C261,274 269,270 269,270 269,270 271,269 271,269 271,267.165 273,264.765 273,262 273,262 273,253 273,253 273,240.878 271,230.28 271,218 271,218 271,201 271,201 271,182.458 250.702,193.399 241.5,198 241.5,198 238,203 238,203 238,203 237,204 237,204 237,204 237,205 237,205 237,205 236,207 236,207 236,213.9 235,221.536 235,229 236.758,229 237.14,211.82 243.5,215 244.936,215.718 243.44,220.621 243,221.5 241.251,224.999 239.262,240 235,240 233.466,240 232,252.282 232,255 234.4,255 238.051,264.603 239,266.5 239,266.5 241,269 241,269 242.408,269 246,270.197 246,272 246,272 247,272 247,272 247,272 248,273 248,273 248,273 250,273 250,273 250,273 252,274 252,274 252,274 253,274 253,274  Z"/>

<path  fill="#FF9B88" stroke-width="0" stroke="#FF9B88" d = " M306 192 L305,193 C305,193 306,192 306,192  Z"/>

<path  fill="#FEB986" stroke-width="0" stroke="#FEB986" d = " M171 222 L166.5,226 C163.872,227.314 161.048,223 159,223 159,220.394 158.05,220.6 157,218.5 155.05,214.6 157,203.278 157,200 157,200 158,199 158,199 158,199 163.5,196 163.5,196 166.528,194.486 171.382,197 174,197 174,197 175,198 175,198 175,202.709 177.36,208.78 175,213.5 175,213.5 171,222 171,222  Z"/>

<path  fill="#FEB986" stroke-width="0" stroke="#FEB986" d = " M285 222 L289.5,226 C293.286,227.893 295.259,222 298,222 298,219.279 298.836,215.829 300,213.5 300,213.5 299,200 299,200 299,200 299,199 299,199 297.159,199 295.43,196.965 293.5,196 290.268,194.384 284.824,197 282,197 282,197 281,198 281,198 281,202.605 278.992,208.485 281,212.5 282.574,215.648 285,218.183 285,222  Z"/>

<path  fill="#FF9B88" stroke-width="0" stroke="#FF9B88" d = " M175 197 L175,198 C175,198 174,197 174,197 174,197 175,197 175,197  Z"/>

<path  fill="#FEB886" stroke-width="0" stroke="#FEB886" d = " M185 218 C184.435,218 171,230.682 171,222 171,222 175,213.5 175,213.5 177.36,208.78 175,202.709 175,198 175,198 175,197 175,197 175,197 181,197 181,197 183.54,197 183.543,200 185,200 185,200 185,218 185,218  Z"/>

<path  fill="#FEB886" stroke-width="0" stroke="#FEB886" d = " M271 218 C273.598,218 285,230.696 285,222 285,218.183 282.574,215.648 281,212.5 278.992,208.485 281,202.605 281,198 281,198 281,197 281,197 281,197 275,197 275,197 275,197 271,201 271,201 271,201 271,218 271,218  Z"/>

<path  fill="#FF9B88" stroke-width="0" stroke="#FF9B88" d = " M282 197 L281,198 C281,198 281,197 281,197 281,197 282,197 282,197  Z"/>

<path  fill="#CBCBCC" stroke-width="0" stroke="#CBCBCC" d = " M222 205 L222,208 C222,208 219,205 219,205 219,205 219,203 219,203 219,193.316 222,198.829 222,205  Z"/>

<path  fill="#CBCBCC" stroke-width="0" stroke="#CBCBCC" d = " M234 207 L236,207 C236,207 237,205 237,205 237,205 237,204 237,204 237,204 238,203 238,203 238,203 238,200.5 238,200.5 238,198.259 236.41,196.679 235,199.5 234.381,200.738 236.144,205 234,205 234,205 234,207 234,207  Z"/>

<path  fill="#F0F080" stroke-width="0" stroke="#F0F080" d = " M122 200 L123,200 C123,200 123,199 123,199 123,199 122,200 122,200  Z"/>

<path  fill="#FEA4D2" stroke-width="0" stroke="#FEA4D2" d = " M114 256 L116.5,258 L121,257 C121,254.876 122,252.564 122,251 122,246.337 120.824,229.852 123,225.5 123,225.5 128,209 128,209 128,206.277 129,203.222 129,200 127.436,200 125.124,199 123,199 123,199 123,200 123,200 123,200 122,201 122,201 122,201 121,202 121,202 121,202 121,203 121,203 121,203 120,204 120,204 120,204 120,205 120,205 120,205 119,206 119,206 119,206 119,207 119,207 119,207 118,208 118,208 118,208 117,209 117,209 117,209 117,211 117,211 117,211 116,212 116,212 116,212 115,213 115,213 115,213 115,215 115,215 115,215 114,216 114,216 114,216 112,220 112,220 112,220 111,221 111,221 111,221 111,222 111,222 111,222 110,223 110,223 110,223 108,226 108,226 108,226 107,227 107,227 107,227 107,230 107,230 107,230 106,231 106,231 106,235.334 109,238.01 109,242 109,242 110,243 110,243 110,246.818 113,249.678 113,254 113,254 114,255 114,255 114,255 114,256 114,256  Z"/>

<path  fill="#FEB984" stroke-width="0" stroke="#FEB984" d = " M153 223 C155.413,223 156.587,223 159,223 159,220.394 158.05,220.6 157,218.5 155.05,214.6 157,203.278 157,200 157,200 157,199 157,199 157,199 156,199 156,199 153.75,199 152.624,201 151,201 151,201 153,223 153,223  Z"/>

<path  fill="#FF9B88" stroke-width="0" stroke="#FF9B88" d = " M158 199 L157,200 C157,200 157,199 157,199 157,199 158,199 158,199  Z"/>

<path  fill="#FFC294" stroke-width="0" stroke="#FFC294" d = " M222 205 C224.433,205 221.042,196.271 226.5,199 229.428,200.464 228,209.096 228,212 L226.5,216 C223.866,216 223.436,208 222,208 222,208 222,205 222,205  Z"/>

<path  fill="#FFC294" stroke-width="0" stroke="#FFC294" d = " M234 205 L234,207 C234,208.268 230.696,217.892 229,214.5 229,214.5 229,199.5 229,199.5 229.612,198.276 234,198.91 234,200.5 234,201.625 234,203.057 234,205  Z"/>

<path  fill="#FF9B88" stroke-width="0" stroke="#FF9B88" d = " M300 199 L299,200 C299,200 299,199 299,199 299,199 300,199 300,199  Z"/>

<path  fill="#FEB984" stroke-width="0" stroke="#FEB984" d = " M298 222 C298,225.669 301.924,223 303,223 303,223 303,221 303,221 303,221 304,220 304,220 304,220 305,201 305,201 303.376,201 302.25,199 300,199 300,199 299,200 299,200 299,200 300,213.5 300,213.5 298.836,215.829 298,219.279 298,222  Z"/>

<path  fill="#FEA4D2" stroke-width="0" stroke="#FEA4D2" d = " M343 255 L339.5,258 L335,257 C335,254.553 335,253.72 335,251 335,240.909 335.263,227.027 331,218.5 330.292,217.085 329.378,208 328,208 328,204.362 328,202.071 328,199 330.176,199 335,198.652 335,202 335,203.238 335.423,205 337,205 337,205 337,206 337,206 337,206 338,207 338,207 338,207 338,208 338,208 338,208 339,209 339,209 339,209 340,211 340,211 340,211 340,212 340,212 340,212 341,213 341,213 341,213 341,214 341,214 341,214 342,215 342,215 342,215 342,216 342,216 342,216 343,217 343,217 343,217 345,221 345,221 345,221 346,222 346,222 346,222 347,224 347,224 347,224 349,226 349,226 349,226 349,227 349,227 349,227 350,231 350,231 350,235.527 347,239.002 347,243 347,243 346,244 346,244 346,247.751 343,250.819 343,255  Z"/>

<path  fill="#F0F080" stroke-width="0" stroke="#F0F080" d = " M121 201 L122,201 C122,201 122,200 122,200 122,200 121,201 121,201  Z"/>

<path  fill="#FF9BCD" stroke-width="0" stroke="#FF9BCD" d = " M123 200 L122,201 C122,201 122,200 122,200 122,200 123,200 123,200  Z"/>

<path  fill="#F0F080" stroke-width="0" stroke="#F0F080" d = " M120 203 L121,203 C121,203 121,202 121,202 121,202 121,201 121,201 121,201 120,202 120,202 120,202 120,203 120,203  Z"/>

<path  fill="#FF9BCD" stroke-width="0" stroke="#FF9BCD" d = " M122 201 L121,202 C121,202 121,201 121,201 121,201 122,201 122,201  Z"/>

<path  fill="#FEF991" stroke-width="0" stroke="#FEF991" d = " M119 203 L120,203 C120,203 120,202 120,202 120,202 119,203 119,203  Z"/>

<path  fill="#FF9BCD" stroke-width="0" stroke="#FF9BCD" d = " M337 203 L337,205 C335.423,205 335,203.238 335,202 335,202 337,203 337,203  Z"/>

<path  fill="#F0F080" stroke-width="0" stroke="#F0F080" d = " M119 205 L120,205 C120,205 120,204 120,204 120,204 120,203 120,203 120,203 119,203 119,203 119,203 119,205 119,205  Z"/>

<path  fill="#FF9BCD" stroke-width="0" stroke="#FF9BCD" d = " M121 203 L120,204 C120,204 120,203 120,203 120,203 121,203 121,203  Z"/>

<path  fill="#FF9B88" stroke-width="0" stroke="#FF9B88" d = " M238 203 L237,204 C237,204 238,203 238,203  Z"/>

<path  fill="#F0F080" stroke-width="0" stroke="#F0F080" d = " M118 207 L119,207 C119,207 119,206 119,206 119,206 119,205 119,205 119,205 118,207 118,207  Z"/>

<path  fill="#FF9BCD" stroke-width="0" stroke="#FF9BCD" d = " M120 205 L119,206 C119,206 119,205 119,205 119,205 120,205 120,205  Z"/>

<path  fill="#FF9B88" stroke-width="0" stroke="#FF9B88" d = " M237 205 L236,207 C236,207 237,205 237,205  Z"/>

<path  fill="#F0F080" stroke-width="0" stroke="#F0F080" d = " M338 208 L339,208 C339,206.762 338.577,205 337,205 337,205 337,206 337,206 337,206 338,207 338,207 338,207 338,208 338,208  Z"/>

<path  fill="#FF9BCD" stroke-width="0" stroke="#FF9BCD" d = " M337 206 L338,207 C338,207 337,206 337,206  Z"/>

<path  fill="#FF9BCD" stroke-width="0" stroke="#FF9BCD" d = " M119 207 L118,208 C118,208 118,207 118,207 118,207 119,207 119,207  Z"/>

<path  fill="#F0F080" stroke-width="0" stroke="#F0F080" d = " M118 208 L117,209 C117,209 118,208 118,208  Z"/>

<path  fill="#FF9BCD" stroke-width="0" stroke="#FF9BCD" d = " M305 277 L306,277 C306,277 307,276 307,276 307,276 308,276 308,276 308,276 309,275 309,275 310.843,275 321.73,270.615 322.5,271 322.5,271 323,274.5 323,274.5 323,274.5 328.5,279 328.5,279 336.708,283.104 343,259.957 343,255 343,255 339.5,258 339.5,258 339.5,258 335,257 335,257 332.749,257 332.141,265.821 328.5,264 326.451,262.975 326.485,251.508 329.5,250 329.5,250 335,251 335,251 335,240.909 335.263,227.027 331,218.5 330.292,217.085 329.378,208 328,208 328,209.408 326.803,213 325,213 325,213 326,215 326,215 327.59,215 327.443,219.386 328,220.5 332.3,229.1 333.436,229.627 329,238.5 328.248,240.004 328.65,242 326,242 326,257.635 319.789,266 305,266 305,266 303,264 303,264 303,264 303,262 303,262 303,262 299,263 299,263 299,265.95 301,270.018 301,274 305.808,274 305,271.574 305,277  Z"/>

<path  fill="#FF9BCD" stroke-width="0" stroke="#FF9BCD" d = " M339 208 L339,209 C339,209 338,208 338,208 338,208 339,208 339,208  Z"/>

<path  fill="#FF9BCD" stroke-width="0" stroke="#FF9BCD" d = " M151 277 L154,279 C154,279 150,274.5 150,274.5 150,273.369 152.622,272.561 153.5,273 153.5,273 156,275 156,275 156,275 155,267.5 155,267.5 155,267.5 157,264 157,264 157,264 154,262 154,262 154,262 153,263 153,263 153,263 153,265 153,265 153,265 151,266 151,266 136.039,266 130,254.688 130,241 126.917,241 127.929,239.358 127,237.5 120.914,225.329 130,225.312 130,215 130,215 131,213 131,213 131,213 128,209 128,209 128,209 123,225.5 123,225.5 120.824,229.852 122,246.337 122,251 122,251 126.5,250 126.5,250 128.572,251.036 131.102,262.699 128.5,264 123.644,266.428 124.377,257 121,257 121,257 116.5,258 116.5,258 116.5,258 114,256 114,256 114,261.222 119.886,282.807 127.5,279 130.76,277.37 133.457,271.022 133.5,271 134.148,270.676 146.251,275 148,275 148,275 150,277 150,277 150,277 151,277 151,277  Z"/>

<path  fill="#FF9BCD" stroke-width="0" stroke="#FF9BCD" d = " M117 211 L116,212 C116,212 117,211 117,211  Z"/>

<path  fill="#F0F080" stroke-width="0" stroke="#F0F080" d = " M340 212 L341,212 C341,212 340,211 340,211 340,211 340,212 340,212  Z"/>

<path  fill="#F0F080" stroke-width="0" stroke="#F0F080" d = " M116 212 L115,213 C115,213 116,212 116,212  Z"/>

<path  fill="#FF9BCD" stroke-width="0" stroke="#FF9BCD" d = " M341 212 L341,213 C341,213 340,212 340,212 340,212 341,212 341,212  Z"/>

<path  fill="#C8CACA" stroke-width="0" stroke="#C8CACA" d = " M153 265 L151,266 C136.039,266 130,254.688 130,241 130,235.334 132,227.178 132,221.5 132,219.797 132.143,215 130,215 130,215 131,213 131,213 133.813,213 136.791,219.082 138,221.5 138.574,222.647 136.936,226 139,226 139,226 139,233 139,233 137.357,233 138,236.765 138,238 138,238 137,246 137,246 137,247.238 137.423,249 139,249 139,249 139,251 139,251 139,251 142,254 142,254 142,254 143,255 143,255 143,255 144,256 144,256 144,256 146,257 146,257 146,257 148,259 148,259 148,259 150,259 150,259 150,259 154,262 154,262 154,262 153,263 153,263 153,263 153,265 153,265  Z"/>

<path  fill="#C8CACA" stroke-width="0" stroke="#C8CACA" d = " M303 264 L305,266 C319.789,266 326,257.635 326,242 326,235.711 325,228.393 325,221.5 325,220.137 324.3,215 326,215 326,215 325,213 325,213 320.847,213 320.246,223 318,223 318,223 318,235 318,235 318,235 318,238 318,238 318,238 319,240 319,240 319,240 319,247 319,247 319,247 318,249 318,249 318,249 317,251 317,251 317,251 316,252 316,252 316,252 315,254 315,254 315,254 314,255 314,255 314,255 309,258 309,258 309,258 308,259 308,259 308,259 306,259 306,259 306,259 303,262 303,262 303,262 303,264 303,264  Z"/>

<path  fill="#F0F080" stroke-width="0" stroke="#F0F080" d = " M341 214 L342,215 C342,215 341,214 341,214  Z"/>

<path  fill="#FF9BCD" stroke-width="0" stroke="#FF9BCD" d = " M115 215 L114,216 C114,216 115,215 115,215  Z"/>

<path  fill="#C9CACB" stroke-width="0" stroke="#C9CACB" d = " M130 215 C132.143,215 132,219.797 132,221.5 132,227.178 130,235.334 130,241 126.917,241 127.929,239.358 127,237.5 120.914,225.329 130,225.312 130,215  Z"/>

<path  fill="#C8C8CC" stroke-width="0" stroke="#C8C8CC" d = " M222 233 L222,240 C216.266,240 216.212,225.923 214,221.5 213.526,220.552 211.673,215.914 213.5,215 220.162,211.669 217.886,227 221,227 221,227 221,232 221,232 221,232 222,233 222,233  Z"/>

<path  fill="#C8C8CC" stroke-width="0" stroke="#C8C8CC" d = " M235 229 C236.758,229 237.14,211.82 243.5,215 244.936,215.718 243.44,220.621 243,221.5 241.251,224.999 239.262,240 235,240 235,236.622 235,233.078 235,229  Z"/>

<path  fill="#C9CACB" stroke-width="0" stroke="#C9CACB" d = " M326 215 C327.59,215 327.443,219.386 328,220.5 332.3,229.1 333.436,229.627 329,238.5 328.248,240.004 328.65,242 326,242 326,235.711 325,228.393 325,221.5 325,220.137 324.3,215 326,215  Z"/>

<path  fill="#FF9BCD" stroke-width="0" stroke="#FF9BCD" d = " M342 216 L343,217 C343,217 342,216 342,216  Z"/>

<path  fill="#FF9B88" stroke-width="0" stroke="#FF9B88" d = " M162 272 L163,272 C163,272 164,264 164,264 164,262.377 164.005,258 166,258 166,245.698 183,235.861 183,251 184.735,251 184,244.49 184,243 184,234.901 185,226.583 185,218 184.435,218 171,230.682 171,222 171,222 166.5,226 166.5,226 163.872,227.314 161.048,223 159,223 156.587,223 155.413,223 153,223 153,225.203 152.104,234 155,234 155,225.484 164.606,224.711 168,231.5 170.023,235.546 163,239.2 163,243 168.368,243 168,240.44 168,246 168,246 167,247 167,247 167,247 167,248 167,248 167,248 166,249 166,249 166,249 165,251 165,251 165,251 164,252 164,252 164,252 163,253 163,253 163,253 163,254 163,254 163,254 162,255 162,255 162,255 161,255 161,255 161,258.894 155.106,253 159,253 159,253 159,252 159,252 159,252 159,250 159,250 159,250 156,249 156,249 156,253.269 155.264,259 150,259 150,259 154,262 154,262 154,262 157,264 157,264 157.666,264 161,261.44 161,264 161,264 162,266 162,266 162,266 162,272 162,272  Z"/>

<path  fill="#FF9B88" stroke-width="0" stroke="#FF9B88" d = " M293 273 L294,273 C294,273 294,272 294,272 294,270.51 293.265,264 295,264 295,262.421 297.855,263 299,263 299,263 303,262 303,262 303,262 306,259 306,259 301.966,259 300,253.126 300,250 300,250 297,250 297,250 297,250 297,251 297,251 297,251 297,253 297,253 298.244,253 298.541,255.479 297.5,256 295.676,256.912 291,252.601 291,251 291,251 291,250 291,250 291,250 289,248 289,248 289,241.72 287.052,243 293,243 293,243 294,243 294,243 294,238.687 286.143,235.213 289,229.5 291.457,224.585 301,225.701 301,235 303.983,235 303,225.293 303,223 301.924,223 298,225.669 298,222 295.259,222 293.286,227.893 289.5,226 289.5,226 285,222 285,222 285,230.696 273.598,218 271,218 271,230.28 273,240.878 273,253 274.149,253 274.831,244.334 277.5,243 283.364,240.068 291,253.401 291,258 291,260.009 292,262.272 292,264 292,266.389 293,269.987 293,273  Z"/>

<path  fill="#F0F080" stroke-width="0" stroke="#F0F080" d = " M112 220 L111,221 C111,221 112,220 112,220  Z"/>

<path  fill="#FF9B88" stroke-width="0" stroke="#FF9B88" d = " M304 220 L303,221 C303,221 304,220 304,220  Z"/>

<path  fill="#FF9BCD" stroke-width="0" stroke="#FF9BCD" d = " M345 221 L346,222 C346,222 345,221 345,221  Z"/>

<path  fill="#FF9BCD" stroke-width="0" stroke="#FF9BCD" d = " M111 222 L110,223 C110,223 111,222 111,222  Z"/>

<path  fill="#FF9B88" stroke-width="0" stroke="#FF9B88" d = " M318 223 C316.362,223 316.362,235 318,235 318,235 318,223 318,223  Z"/>

<path  fill="#FF9BCD" stroke-width="0" stroke="#FF9BCD" d = " M347 224 L349,226 C349,226 347,224 347,224  Z"/>

<path  fill="#F0F080" stroke-width="0" stroke="#F0F080" d = " M108 226 L107,227 C107,227 108,226 108,226  Z"/>

<path  fill="#F0F080" stroke-width="0" stroke="#F0F080" d = " M107 230 L106,231 C106,231 104,229 104,229 104,229 107,227 107,227 107,227 107,230 107,230  Z"/>

<path  fill="#FCB3D9" stroke-width="0" stroke="#FCB3D9" d = " M160 249 L159,250 C159,250 156,249 156,249 156,249 155,234 155,234 155,225.484 164.606,224.711 168,231.5 170.023,235.546 163,239.2 163,243 163,243 162,245 162,245 162,245 161,247 161,247 161,247 161,248 161,248 161,248 160,249 160,249  Z"/>

<path  fill="#FCB3D9" stroke-width="0" stroke="#FCB3D9" d = " M297 250 L300,250 C300,250 301,235 301,235 301,225.701 291.457,224.585 289,229.5 286.143,235.213 294,238.687 294,243 294,243 295,246 295,246 295,246 295,247 295,247 295,247 296,248 296,248 296,248 296,249 296,249 296,249 297,250 297,250  Z"/>

<path  fill="#F0F080" stroke-width="0" stroke="#F0F080" d = " M352 229 L350,231 C350,231 349,227 349,227 349,227 352,229 352,229  Z"/>

<path  fill="#FDBA86" stroke-width="0" stroke="#FDBA86" d = " M221 232 L222,233 C222,233 221,232 221,232  Z"/>

<path  fill="#FF9B88" stroke-width="0" stroke="#FF9B88" d = " M139 233 C137.357,233 138,236.765 138,238 139.643,238 139,234.235 139,233  Z"/>

<path  fill="#FF9B88" stroke-width="0" stroke="#FF9B88" d = " M318 238 L319,240 C319,240 318,238 318,238  Z"/>

<path  fill="#FF9BCD" stroke-width="0" stroke="#FF9BCD" d = " M109 242 L110,243 C110,243 109,242 109,242  Z"/>

<path  fill="#CCCCC7" stroke-width="0" stroke="#CCCCC7" d = " M161 255 L162,255 C162,255 163,254 163,254 163,254 163,253 163,253 163,253 164,252 164,252 164,252 165,251 165,251 165,251 166,249 166,249 166,249 167,248 167,248 167,248 167,247 167,247 167,247 168,246 168,246 168,240.44 168.368,243 163,243 163,243 162,245 162,245 162,245 161,247 161,247 161,247 161,248 161,248 161,248 160,249 160,249 160,250.048 160.473,252 159,252 159,252 159,253 159,253 159,254.747 159.253,255 161,255  Z"/>

<path  fill="#CCCCC7" stroke-width="0" stroke="#CCCCC7" d = " M297 251 L297,253 C297,258.372 292.702,251 291,251 291,251 291,250 291,250 291,250 289,248 289,248 289,241.72 287.052,243 293,243 293,243 295,246 295,246 295,246 295,247 295,247 295,247 296,248 296,248 296,248 296,249 296,249 296,249 297,251 297,251  Z"/>

<path  fill="#FF9BCD" stroke-width="0" stroke="#FF9BCD" d = " M163 243 L162,245 C162,245 163,243 163,243  Z"/>

<path  fill="#FFB2D8" stroke-width="0" stroke="#FFB2D8" d = " M181 263 L183,263 C183,263 183,251 183,251 183,235.861 166,245.698 166,258 168.33,258 181,260.713 181,263  Z"/>

<path  fill="#FFB2D8" stroke-width="0" stroke="#FFB2D8" d = " M273 262 L275,263 C277.58,263 286.184,258 291,258 291,253.401 283.364,240.068 277.5,243 274.831,244.334 274.149,253 273,253 273,253 273,262 273,262  Z"/>

<path  fill="#FF9BCD" stroke-width="0" stroke="#FF9BCD" d = " M294 243 L295,246 C295,246 293,243 293,243 293,243 294,243 294,243  Z"/>

<path  fill="#FF9BCD" stroke-width="0" stroke="#FF9BCD" d = " M347 243 L346,244 C346,244 347,243 347,243  Z"/>

<path  fill="#FF9BCD" stroke-width="0" stroke="#FF9BCD" d = " M162 245 L161,247 C161,247 162,245 162,245  Z"/>

<path  fill="#FF9B88" stroke-width="0" stroke="#FF9B88" d = " M137 246 L139,249 C137.423,249 137,247.238 137,246  Z"/>

<path  fill="#FF9BCD" stroke-width="0" stroke="#FF9BCD" d = " M168 246 L167,247 C167,247 168,246 168,246  Z"/>

<path  fill="#FF9BCD" stroke-width="0" stroke="#FF9BCD" d = " M295 247 L296,248 C296,248 295,247 295,247  Z"/>

<path  fill="#FF9B88" stroke-width="0" stroke="#FF9B88" d = " M319 247 L318,249 C318,249 319,247 319,247  Z"/>

<path  fill="#FF9BCD" stroke-width="0" stroke="#FF9BCD" d = " M161 248 L160,249 C160,249 161,248 161,248  Z"/>

<path  fill="#FF9BCD" stroke-width="0" stroke="#FF9BCD" d = " M167 248 L166,249 C166,249 167,248 167,248  Z"/>

<path  fill="#FF9BCD" stroke-width="0" stroke="#FF9BCD" d = " M289 248 L291,250 C291,250 289,248 289,248  Z"/>

<path  fill="#FF9BCD" stroke-width="0" stroke="#FF9BCD" d = " M159 250 L159,252 C160.473,252 160,250.048 160,249 160,249 159,250 159,250  Z"/>

<path  fill="#FF9BCD" stroke-width="0" stroke="#FF9BCD" d = " M166 249 L165,251 C165,251 166,249 166,249  Z"/>

<path  fill="#FFC5E2" stroke-width="0" stroke="#FFC5E2" d = " M226 271 C227.54,271 226.764,274 230,274 230,274 230,270 230,270 230,268.594 229.286,263 231,263 231,263 231,257 231,257 231,254.748 229.213,244.074 226,250.5 226,250.5 226,261 226,261 226,261 226,269 226,269 226,269 226,271 226,271  Z"/>

<path  fill="#FF9BCD" stroke-width="0" stroke="#FF9BCD" d = " M297 250 L297,251 C297,251 296,249 296,249 296,249 297,250 297,250  Z"/>

<path  fill="#FF9B88" stroke-width="0" stroke="#FF9B88" d = " M318 249 L317,251 C317,251 318,249 318,249  Z"/>

<path  fill="#C9CACB" stroke-width="0" stroke="#C9CACB" d = " M122 251 L126.5,250 C128.572,251.036 131.102,262.699 128.5,264 123.644,266.428 124.377,257 121,257 121,254.876 122,252.564 122,251  Z"/>

<path  fill="#C9CACB" stroke-width="0" stroke="#C9CACB" d = " M335 251 L329.5,250 C326.485,251.508 326.451,262.975 328.5,264 332.141,265.821 332.749,257 335,257 335,254.553 335,253.72 335,251  Z"/>

<path  fill="#FF9B88" stroke-width="0" stroke="#FF9B88" d = " M139 251 L142,254 C142,254 139,251 139,251  Z"/>

<path  fill="#FF9BCD" stroke-width="0" stroke="#FF9BCD" d = " M165 251 L164,252 C164,252 165,251 165,251  Z"/>

<path  fill="#FF9BCD" stroke-width="0" stroke="#FF9BCD" d = " M291 251 C292.702,251 297,258.372 297,253 298.244,253 298.541,255.479 297.5,256 295.676,256.912 291,252.601 291,251  Z"/>

<path  fill="#FF9B88" stroke-width="0" stroke="#FF9B88" d = " M317 251 L316,252 C316,252 317,251 317,251  Z"/>

<path  fill="#FF9BCD" stroke-width="0" stroke="#FF9BCD" d = " M164 252 L163,253 C163,253 164,252 164,252  Z"/>

<path  fill="#FF9BCD" stroke-width="0" stroke="#FF9BCD" d = " M159 253 C155.106,253 161,258.894 161,255 159.253,255 159,254.747 159,253  Z"/>

<path  fill="#FF9BCD" stroke-width="0" stroke="#FF9BCD" d = " M113 254 L114,255 C114,255 113,254 113,254  Z"/>

<path  fill="#FF9BCD" stroke-width="0" stroke="#FF9BCD" d = " M163 254 L162,255 C162,255 163,254 163,254  Z"/>

<path  fill="#FF9B88" stroke-width="0" stroke="#FF9B88" d = " M315 254 L314,255 C314,255 315,254 315,254  Z"/>

<path  fill="#FF9B88" stroke-width="0" stroke="#FF9B88" d = " M143 255 L144,256 C144,256 143,255 143,255  Z"/>

<path  fill="#FEB0D8" stroke-width="0" stroke="#FEB0D8" d = " M231 263 C231,266.952 238.139,269 241,269 241,269 239,266.5 239,266.5 238.051,264.603 234.4,255 232,255 232,255 231,257 231,257 231,257 231,263 231,263  Z"/>

<path  fill="#FEB0D8" stroke-width="0" stroke="#FEB0D8" d = " M225 261 C225,266.512 220.634,269 215,269 215,267.181 222.113,256 224,256 225.643,256 225,259.765 225,261  Z"/>

<path  fill="#FF9B88" stroke-width="0" stroke="#FF9B88" d = " M146 257 L148,259 C148,259 146,257 146,257  Z"/>

<path  fill="#FFB3D6" stroke-width="0" stroke="#FFB3D6" d = " M292 264 L284.5,263 L277,266 C274.707,266 275,265.003 275,263 277.58,263 286.184,258 291,258 291,260.009 292,262.272 292,264  Z"/>

<path  fill="#FFB3D6" stroke-width="0" stroke="#FFB3D6" d = " M164 264 L172.5,263 L180,266 C181.473,266 181,264.048 181,263 181,260.713 168.33,258 166,258 164.005,258 164,262.377 164,264  Z"/>

<path  fill="#FF9B88" stroke-width="0" stroke="#FF9B88" d = " M309 258 L308,259 C308,259 309,258 309,258  Z"/>

<path  fill-rule="evenodd" fill="#FF9BCD" stroke-width="0" stroke="#FF9BCD" d = " M250 276 C250,278.198 253.134,283.183 257.5,281 259.132,280.184 257.679,276.589 256.5,276 L250,276  M200 276 L198,279.5 C199.922,283.344 208.207,278.913 207,276.5 L200,276  M222 288 L228.5,286 L236,289 C236,289 231,283.5 231,283.5 228.714,278.929 233.614,279 236.5,279 242.244,279 249.271,285 253,285 253,285 263,285 263,285 263,285 261,279 261,279 261,279 261,278 261,278 261,278 258.5,275 258.5,275 257.262,274.381 253,276.144 253,274 253,274 252,274 252,274 252,274 250,273 250,273 250,273 248,273 248,273 248,273 247,272 247,272 247,272 246,272 246,272 246,272 241,269 241,269 238.139,269 231,266.952 231,263 229.286,263 230,268.594 230,270 230,270 232.5,268 232.5,268 232.5,268 235.5,270 235.5,270 243.45,277.95 230,279.061 230,274 226.764,274 227.54,271 226,271 226,271 226,277 226,277 212.269,277 218.42,269 226,269 226,269 226,261 226,261 226,261 225,261 225,261 225,266.512 220.634,269 215,269 215,269 213,270 213,270 213,270 212,271 212,271 212,271 211,271 211,271 211,271 210,272 210,272 210,272 207,273 207,273 207,274.473 205.048,274 204,274 204,274 203,274 203,274 203,276.144 198.738,274.381 197.5,275 197.5,275 196,277 196,277 196,277 196,278 196,278 196,278 195,279 195,279 195,279 195,280 195,280 195,280 194,281 194,281 194,281 193,285 193,285 193,285 204,285 204,285 204,282.129 207.13,283.685 208.5,283 211.192,281.654 223.356,275.212 226,280.5 227.321,283.142 222,285.532 222,288  M226 277 C226,278.266 226.658,283 228.5,283 229.577,283 231.009,276.754 229.5,276 L226,277  Z"/>

<path  fill="#FF9B88" stroke-width="0" stroke="#FF9B88" d = " M154 262 L153,263 C153,263 154,262 154,262  Z"/>

<path  fill="#FF9B88" stroke-width="0" stroke="#FF9B88" d = " M271 269 C273.215,269 272.519,271 274,271 274,268.931 277,267.054 277,266 274.707,266 275,265.003 275,263 275,263 273,262 273,262 273,264.765 271,267.165 271,269  Z"/>

<path  fill="#C8C8CB" stroke-width="0" stroke="#C8C8CB" d = " M163 280 L165,280 C165,277.28 163,276.447 163,274 163,274 163,273 163,273 163,273 162,272 162,272 162,272 162,266 162,266 162,266 161,264 161,264 161,261.44 157.666,264 157,264 157,264 155,267.5 155,267.5 155,267.5 156,275 156,275 156,275 157,276 157,276 157,276 158,277 158,277 158,277 160,278 160,278 160,278 163,280 163,280  Z"/>

<path  fill="#FEAE6E" stroke-width="0" stroke="#FEAE6E" d = " M182 276 C181.6,276 178.427,280 174,280 167.93,280 164.342,274 163,274 163,274 163,273 163,273 163,273 163,272 163,272 163,272 164,264 164,264 164,264 172.5,263 172.5,263 172.5,263 180,266 180,266 180,267.714 182,269.482 182,272 182,272 182,276 182,276  Z"/>

<path  fill="#FF9B88" stroke-width="0" stroke="#FF9B88" d = " M185 269 L182,272 C182,269.482 180,267.714 180,266 181.473,266 181,264.048 181,263 181,263 183,263 183,263 183,263 185,269 185,269  Z"/>

<path  fill="#FEAE6E" stroke-width="0" stroke="#FEAE6E" d = " M291 278 C288.478,278 286.091,280 283,280 279.54,280 276.447,277 275,277 275,277 274,271 274,271 274,268.931 277,267.054 277,266 277,266 284.5,263 284.5,263 284.5,263 292,264 292,264 292,266.389 293,269.987 293,273 293,273 293,274 293,274 293,274 293,275 293,275 293,275 291,277 291,277 291,277 291,278 291,278  Z"/>

<path  fill="#C8C8CB" stroke-width="0" stroke="#C8C8CB" d = " M292 280 L293,280 C293,280 295,279 295,279 295,279 296,279 296,279 296,279 297,278 297,278 297,278 299,276 299,276 299,276 300,275 300,275 300,275 301,274 301,274 301,270.018 299,265.95 299,263 297.855,263 295,262.421 295,264 295,265.49 295.735,272 294,272 294,272 294,273 294,273 294,273 293,274 293,274 293,274 293,275 293,275 293,276.747 292.747,277 291,277 291,277 291,278 291,278 291,278 291,280 291,280 291,280 292,280 292,280  Z"/>

<path  fill="#FF9BCD" stroke-width="0" stroke="#FF9BCD" d = " M161 264 L162,266 C162,266 161,264 161,264  Z"/>

<path  fill="#FF9BCD" stroke-width="0" stroke="#FF9BCD" d = " M295 264 C293.265,264 294,270.51 294,272 295.735,272 295,265.49 295,264  Z"/>

<path  fill="#FF9B88" stroke-width="0" stroke="#FF9B88" d = " M303 264 L305,266 C305,266 303,264 303,264  Z"/>

<path  fill="#FF9B88" stroke-width="0" stroke="#FF9B88" d = " M153 265 L151,266 C151,266 153,265 153,265  Z"/>

<path  fill="#CACCC8" stroke-width="0" stroke="#CACCC8" d = " M226 271 L226,277 C212.269,277 218.42,269 226,269 226,269 226,271 226,271  Z"/>

<path  fill="#CACCC8" stroke-width="0" stroke="#CACCC8" d = " M230 270 L232.5,268 L235.5,270 C243.45,277.95 230,279.061 230,274 230,274 230,270 230,270  Z"/>

<path  fill="#FFAD6E" stroke-width="0" stroke="#FFAD6E" d = " M192 281 L194,281 C194,281 195,280 195,280 195,280 195,279 195,279 195,279 196,278 196,278 196,278 196,277 196,277 196,277 195,274 195,274 195,274 189,271 189,271 189,271 188,270 188,270 188,270 187,270 187,270 187,270 186,269 186,269 186,269 185,269 185,269 185,269 182,272 182,272 182,272 182,276 182,276 182,278.557 189.885,281 192,281  Z"/>

<path  fill="#FF9B88" stroke-width="0" stroke="#FF9B88" d = " M186 269 L187,270 C187,270 186,269 186,269  Z"/>

<path  fill="#FF9B88" stroke-width="0" stroke="#FF9B88" d = " M215 269 L213,270 C213,270 215,269 215,269  Z"/>

<path  fill="#FF9B88" stroke-width="0" stroke="#FF9B88" d = " M241 269 C242.408,269 246,270.197 246,272 246,272 241,269 241,269  Z"/>

<path  fill="#FF9B88" stroke-width="0" stroke="#FF9B88" d = " M271 269 L269,270 C269,270 271,269 271,269  Z"/>

<path  fill="#FFAD6E" stroke-width="0" stroke="#FFAD6E" d = " M261 279 C262.24,279 262.576,281 265,281 269.046,281 271.085,277 275,277 275,277 274,271 274,271 272.519,271 273.215,269 271,269 271,269 269,270 269,270 269,270 261,274 261,274 261,274 261,278 261,278 261,278 261,279 261,279  Z"/>

<path  fill="#FF9B88" stroke-width="0" stroke="#FF9B88" d = " M188 270 L189,271 C189,271 188,270 188,270  Z"/>

<path  fill="#FF9B88" stroke-width="0" stroke="#FF9B88" d = " M213 270 L212,271 C212,271 213,270 213,270  Z"/>

<path  fill="#FF9B88" stroke-width="0" stroke="#FF9B88" d = " M211 271 L210,272 C210,272 211,271 211,271  Z"/>

<path  fill="#FF9BCD" stroke-width="0" stroke="#FF9BCD" d = " M163 272 L163,273 C163,273 162,272 162,272 162,272 163,272 163,272  Z"/>

<path  fill="#FF9B88" stroke-width="0" stroke="#FF9B88" d = " M247 272 L248,273 C248,273 247,272 247,272  Z"/>

<path  fill="#CBC7CC" stroke-width="0" stroke="#CBC7CC" d = " M169 283 C169,284.473 167.048,284 166,284 166,282.986 162.041,282 161,282 161,282 160,282 160,282 160,282 159,281 159,281 159,281 158,281 158,281 158,281 157,280 157,280 157,280 156,280 156,280 156,280 155,279 155,279 155,279 154,279 154,279 154,279 150,274.5 150,274.5 150,273.369 152.622,272.561 153.5,273 153.5,273 156,275 156,275 156,275 157,276 157,276 157,276 158,277 158,277 158,277 160,278 160,278 160,279.577 161.762,280 163,280 163,280 169,283 169,283  Z"/>

<path  fill="#FF9B88" stroke-width="0" stroke="#FF9B88" d = " M207 273 C205.952,273 204,272.527 204,274 205.048,274 207,274.473 207,273  Z"/>

<path  fill="#FF9B88" stroke-width="0" stroke="#FF9B88" d = " M250 273 L252,274 C252,274 250,273 250,273  Z"/>

<path  fill="#FF9BCD" stroke-width="0" stroke="#FF9BCD" d = " M294 273 L293,274 C293,274 293,273 293,273 293,273 294,273 294,273  Z"/>

<path  fill="#CBC7CC" stroke-width="0" stroke="#CBC7CC" d = " M293 283 L294,283 C294,283 296,282 296,282 296,282 297,281 297,281 297,281 299,281 299,281 299,281 300,280 300,280 300,280 302,279 302,279 302,279 303,278 303,278 303,278 305,277 305,277 305,271.574 305.808,274 301,274 301,274 300,275 300,275 300,275 299,276 299,276 299,276 297,278 297,278 297,278 296,279 296,279 296,279 295,279 295,279 295,279 293,280 293,280 293,280 292,281 292,281 292,281 291,281 291,281 291,281 289,282 289,282 289,282 287,283 287,283 287,284.473 288.952,284 290,284 290,282.527 291.952,283 293,283  Z"/>

<path  fill="#FF9B88" stroke-width="0" stroke="#FF9B88" d = " M189 287 L187,288 C177.127,288 167.71,287.105 159.5,283 157.718,282.109 151,279.796 151,277 151,277 154,279 154,279 154,279 155,279 155,279 155,279 156,280 156,280 156,280 157,280 157,280 157,280 158,281 158,281 158,281 159,281 159,281 159,281 160,282 160,282 160,282 161,282 161,282 161,283.638 164.576,284 166,284 167.048,284 169,284.473 169,283 171.377,283 165,281.048 165,280 165,277.28 163,276.447 163,274 164.342,274 167.93,280 174,280 174,284.861 179,281.7 179,284 176.887,284 176.218,283.859 174.5,283 173.826,282.663 169.871,283.185 171.5,284 172.726,284.613 183,286.181 183,284 184.048,284 186,283.527 186,285 183.395,285 189,286.328 189,287  Z"/>

<path  fill="#FF9B88" stroke-width="0" stroke="#FF9B88" d = " M203 274 C203,276.144 198.738,274.381 197.5,275 L196,277 C196,277 195,274 195,274 195,274 203,274 203,274  Z"/>

<path  fill="#FF9B88" stroke-width="0" stroke="#FF9B88" d = " M261 274 L261,278 C261,278 258.5,275 258.5,275 257.262,274.381 253,276.144 253,274 253,274 261,274 261,274  Z"/>

<path  fill="#FF9BCD" stroke-width="0" stroke="#FF9BCD" d = " M301 274 L300,275 C300,275 301,274 301,274  Z"/>

<path  fill="#FF9B88" stroke-width="0" stroke="#FF9B88" d = " M148 275 L150,277 C150,277 148,275 148,275  Z"/>

<path  fill="#FF9B88" stroke-width="0" stroke="#FF9B88" d = " M293 275 L291,277 C292.747,277 293,276.747 293,275  Z"/>

<path  fill="#FF9BCD" stroke-width="0" stroke="#FF9BCD" d = " M300 275 L299,276 C299,276 300,275 300,275  Z"/>

<path  fill="#FF9B88" stroke-width="0" stroke="#FF9B88" d = " M309 275 L308,276 C308,276 309,275 309,275  Z"/>

<path  fill="#FF9BCD" stroke-width="0" stroke="#FF9BCD" d = " M157 276 L158,277 C158,277 157,276 157,276  Z"/>

<path  fill="#FEAD6F" stroke-width="0" stroke="#FEAD6F" d = " M186 285 L189,285 C189,282.918 192,285.769 192,281 189.885,281 182,278.557 182,276 181.6,276 178.427,280 174,280 174,284.861 179,281.7 179,284 179,284 183,284 183,284 184.048,284 186,283.527 186,285  Z"/>

<path  fill="#FEA3D2" stroke-width="0" stroke="#FEA3D2" d = " M200 276 L198,279.5 C199.922,283.344 208.207,278.913 207,276.5 L200,276  Z"/>

<path  fill="#FFC6E2" stroke-width="0" stroke="#FFC6E2" d = " M226 277 C226,278.266 226.658,283 228.5,283 229.577,283 231.009,276.754 229.5,276 L226,277  Z"/>

<path  fill="#FEA3D2" stroke-width="0" stroke="#FEA3D2" d = " M250 276 C250,278.198 253.134,283.183 257.5,281 259.132,280.184 257.679,276.589 256.5,276 L250,276  Z"/>

<path  fill="#FF9B88" stroke-width="0" stroke="#FF9B88" d = " M307 276 L306,277 C306,277 307,276 307,276  Z"/>

<path  fill="#FEAD6F" stroke-width="0" stroke="#FEAD6F" d = " M267 285 L270,285 C270,283.421 272.855,284 274,284 274,284 277,284 277,284 277,282.421 279.855,283 281,283 281,281.519 283,282.215 283,280 279.54,280 276.447,277 275,277 271.085,277 269.046,281 265,281 265,284.514 267,283.548 267,285  Z"/>

<path  fill="#FF9BCD" stroke-width="0" stroke="#FF9BCD" d = " M303 278 L305,278 C305,278 305,277 305,277 305,277 303,278 303,278  Z"/>

<path  fill="#FF9B88" stroke-width="0" stroke="#FF9B88" d = " M306 277 L305,278 C305,278 305,277 305,277 305,277 306,277 306,277  Z"/>

<path  fill="#FF9BCD" stroke-width="0" stroke="#FF9BCD" d = " M160 278 L163,280 C161.762,280 160,279.577 160,278  Z"/>

<path  fill="#FF9B88" stroke-width="0" stroke="#FF9B88" d = " M196 278 L195,279 C195,279 196,278 196,278  Z"/>

<path  fill="#FF9B88" stroke-width="0" stroke="#FF9B88" d = " M267 287 L269,288 C273.178,288 296,287.011 296,283 296,283 294,283 294,283 294,283 293,283 293,283 293,284.473 291.048,284 290,284 288.952,284 287,284.473 287,283 287,283 289,282 289,282 289,282 291,281 291,281 291,281 291,280 291,280 291,280 291,278 291,278 288.478,278 286.091,280 283,280 283,282.215 281,281.519 281,283 288.389,283 281,285.111 281,283 279.855,283 277,282.421 277,284 286.46,284 274,286.505 274,284 272.855,284 270,283.421 270,285 272.605,285 267,286.328 267,287  Z"/>

<path  fill="#FF9BCD" stroke-width="0" stroke="#FF9BCD" d = " M297 278 L296,279 C296,279 297,278 297,278  Z"/>

<path  fill="#FF9BCD" stroke-width="0" stroke="#FF9BCD" d = " M302 279 L303,279 C303,279 303,278 303,278 303,278 302,279 302,279  Z"/>

<path  fill="#FF9B88" stroke-width="0" stroke="#FF9B88" d = " M305 278 L303,279 C303,279 303,278 303,278 303,278 305,278 305,278  Z"/>

<path  fill="#FF9BCD" stroke-width="0" stroke="#FF9BCD" d = " M155 279 L156,280 C156,280 155,279 155,279  Z"/>

<path  fill="#C7C9C9" stroke-width="0" stroke="#C7C9C9" d = " M218 289 L220,289 C220,289 222,288 222,288 222,285.532 227.321,283.142 226,280.5 223.356,275.212 211.192,281.654 208.5,283 207.13,283.685 204,282.129 204,285 204,285 204,287 204,287 205.424,287 209,287.362 209,289 209,289 210,289 210,289 210,289 218,289 218,289  Z"/>

<path  fill="#C7C9C9" stroke-width="0" stroke="#C7C9C9" d = " M246 289 L247,289 C247,287.986 250.959,287 252,287 252,287 253,285 253,285 249.271,285 242.244,279 236.5,279 233.614,279 228.714,278.929 231,283.5 231,283.5 236,289 236,289 236,289 238,289 238,289 238,289 246,289 246,289  Z"/>

<path  fill="#FF9B88" stroke-width="0" stroke="#FF9B88" d = " M263 285 L267,285 C267,283.548 265,284.514 265,281 262.576,281 262.24,279 261,279 261,279 263,285 263,285  Z"/>

<path  fill="#FF9BCD" stroke-width="0" stroke="#FF9BCD" d = " M295 279 L293,280 C293,280 295,279 295,279  Z"/>

<path  fill="#FF9B88" stroke-width="0" stroke="#FF9B88" d = " M300 280 L300,281 C301.238,281 303,280.577 303,279 303,279 302,279 302,279 302,279 300,280 300,280  Z"/>

<path  fill="#FF9BCD" stroke-width="0" stroke="#FF9BCD" d = " M157 280 L158,281 C158,281 157,280 157,280  Z"/>

<path  fill="#CCC7CB" stroke-width="0" stroke="#CCC7CB" d = " M165 280 C165,281.048 171.377,283 169,283 169,283 163,280 163,280 163,280 165,280 165,280  Z"/>

<path  fill="#FF9B88" stroke-width="0" stroke="#FF9B88" d = " M195 280 L194,281 C194,281 195,280 195,280  Z"/>

<path  fill="#FF9BCD" stroke-width="0" stroke="#FF9BCD" d = " M291 281 L292,281 C292,281 292,280 292,280 292,280 291,280 291,280 291,280 291,281 291,281  Z"/>

<path  fill="#CCC7CB" stroke-width="0" stroke="#CCC7CB" d = " M293 280 L292,281 C292,281 292,280 292,280 292,280 293,280 293,280  Z"/>

<path  fill="#FF9BCD" stroke-width="0" stroke="#FF9BCD" d = " M299 281 L300,281 C300,281 300,280 300,280 300,280 299,281 299,281  Z"/>

<path  fill="#FF9BCD" stroke-width="0" stroke="#FF9BCD" d = " M159 281 L160,282 C160,282 159,281 159,281  Z"/>

<path  fill="#FF9B88" stroke-width="0" stroke="#FF9B88" d = " M189 285 L193,285 C193,285 194,281 194,281 194,281 192,281 192,281 192,285.769 189,282.918 189,285  Z"/>

<path  fill="#CCC7CB" stroke-width="0" stroke="#CCC7CB" d = " M291 281 L289,282 C289,282 291,281 291,281  Z"/>

<path  fill="#FF9BCD" stroke-width="0" stroke="#FF9BCD" d = " M297 281 L296,282 C296,282 297,281 297,281  Z"/>

<path  fill="#FF9B88" stroke-width="0" stroke="#FF9B88" d = " M296 282 L296,283 C297.465,283 300,283.109 300,281 300,281 299,281 299,281 299,281 297,281 297,281 297,281 296,282 296,282  Z"/>

<path  fill="#FF9BCD" stroke-width="0" stroke="#FF9BCD" d = " M161 282 C162.041,282 166,282.986 166,284 164.576,284 161,283.638 161,282  Z"/>

<path  fill="#CCC7CB" stroke-width="0" stroke="#CCC7CB" d = " M289 282 L287,283 C287,283 289,282 289,282  Z"/>

<path  fill="#FF9BCD" stroke-width="0" stroke="#FF9BCD" d = " M294 283 L296,283 C296,283 296,282 296,282 296,282 294,283 294,283  Z"/>

<path  fill="#CCC7CB" stroke-width="0" stroke="#CCC7CB" d = " M179 284 L183,284 C183,286.181 172.726,284.613 171.5,284 169.871,283.185 173.826,282.663 174.5,283 176.218,283.859 176.887,284 179,284  Z"/>

<path  fill="#CCC7CB" stroke-width="0" stroke="#CCC7CB" d = " M281 283 C281,285.111 288.389,283 281,283  Z"/>

<path  fill="#FF9BCD" stroke-width="0" stroke="#FF9BCD" d = " M293 283 C291.952,283 290,282.527 290,284 291.048,284 293,284.473 293,283  Z"/>

<path  fill="#CCC7CB" stroke-width="0" stroke="#CCC7CB" d = " M274 284 L277,284 C286.46,284 274,286.505 274,284  Z"/>

<path  fill="#CCC7CB" stroke-width="0" stroke="#CCC7CB" d = " M189 287 L204,287 C204,287 204,285 204,285 204,285 193,285 193,285 193,285 189,285 189,285 189,285 186,285 186,285 183.395,285 189,286.328 189,287  Z"/>

<path  fill="#CCC7CB" stroke-width="0" stroke="#CCC7CB" d = " M252 287 L267,287 C267,286.328 272.605,285 270,285 270,285 267,285 267,285 267,285 263,285 263,285 263,285 253,285 253,285 253,285 252,287 252,287  Z"/>

<path  fill="#FF9BCD" stroke-width="0" stroke="#FF9BCD" d = " M187 288 L209,289 C209,287.362 205.424,287 204,287 204,287 189,287 189,287 189,287 187,288 187,288  Z"/>

<path  fill="#FF9BCD" stroke-width="0" stroke="#FF9BCD" d = " M269 288 L247,289 C247,287.986 250.959,287 252,287 252,287 267,287 267,287 267,287 269,288 269,288  Z"/>

<path  fill="#FF9BCD" stroke-width="0" stroke="#FF9BCD" d = " M222 288 L220,289 C220,289 222,288 222,288  Z"/>

<path  fill="#FF9BCD" stroke-width="0" stroke="#FF9BCD" d = " M210 289 L218,289 C218,290.613 210,290.613 210,289  Z"/>

<path  fill="#FF9BCD" stroke-width="0" stroke="#FF9BCD" d = " M238 289 L246,289 C246,290.613 238,290.613 238,289  Z"/>

</g>
</svg>
