<svg xmlns="http://www.w3.org/2000/svg" xmlns:xlink="http://www.w3.org/1999/xlink"  viewBox="0 0 456 320">
<g>
<rect width="456" height="320" fill="#000000"  stroke-width="0" /> 
<path  fill="#FCFB90" stroke-width="0" stroke="#FCFB90" d = " M230 67 L232,67 C232,65.4226 233.762,65 235,65 235,63.7617 235.423,62 237,62 237,62 237,61 237,61 237,59.7617 237.423,58 239,58 239,58 239,57 239,57 239,57 240,56 240,56 240,56 241,55 241,55 241,55 241,54 241,54 241,54 242,53 242,53 242,53 243,52 243,52 243,52 244,50 244,50 244,50 245,49 245,49 245,49 246,48 246,48 246,48 247,47 247,47 247,47 249,46 249,46 247.31,46 242.715,42.1073 240.5,41 235.942,38.7209 208,41.0359 208,47 208,47 210,47 210,47 210,47 211,48 211,48 211,48 212,50 212,50 212,50 214,52 214,52 214,52 216,55 216,55 216,55 224,67 224,67 224.839,67 226,68.93 226,67 226,67 227,66 227,66 227,63.7839 230,65.6517 230,67  Z"/>

<path  fill="#FE79FE" stroke-width="0" stroke="#FE79FE" d = " M163 61 C163,70.9696 162.533,89.5163 173.5,95 178.442,97.4709 198,95.5177 198,89 198,88.627 193.737,85.9734 193,84.5 193,84.5 193,78.5 193,78.5 187.782,68.0644 192.971,59.7643 202.5,55 205.025,53.7377 204.095,51 208,51 208,51 202,45 202,45 193.728,45 185.329,44.5856 178.5,48 176.914,48.7929 171.406,53 170,53 170,53 169,54 169,54 169,54 168,55 168,55 168,55 167,56 167,56 167,56 166,57 166,57 166,57 165,58 165,58 165,59.2383 164.577,61 163,61  Z"/>

<path  fill="#FF64FF" stroke-width="0" stroke="#FF64FF" d = " M281 105 L284,105 C284,105 285,104 285,104 285,104 286,103 286,103 286,103 287,102 287,102 287,102 287,101 287,101 287,101 288,100 288,100 288,100 289,99 289,99 289,99 289,98 289,98 289,98 290,96 290,96 290,96 290,95 290,95 290,95 291,94 291,94 291,94 291,93 291,93 291,93 292,91 292,91 292,91 292,90 292,90 292,90 293,89 293,89 293,89 294,86 294,86 294,86 295,85 295,85 295,85 295,83 295,83 295,83 296,82 296,82 296,82 296,81 296,81 296,81 297,80 297,80 297,80 297,76 297,76 297,76 297,74 297,74 297,74 297,67 297,67 297,64.4109 291.227,54 288,54 288,54 291,57.5 291,57.5 291,57.5 294,65.5 294,65.5 297.397,72.2946 288.576,87.3486 286,92.5 281.94,100.619 259,94.8852 259,89 253.773,89 239.201,74.9019 237,70.5 237,70.5 239,60 239,60 239,60 237,61 237,61 237,61 237,62 237,62 237,63.2383 236.577,65 235,65 235,66.5774 233.238,67 232,67 232,67 230,67 230,67 228.667,67 228.333,67 227,67 227,67 226,67 226,67 226,68.93 224.839,67 224,67 220.305,67 216,58.1335 216,55 216,55 214,52 214,52 214,52 212,50 212,50 212,50 211,48 211,48 211,48 210,47 210,47 210,47 208,47 208,47 206.026,47 204.483,45 202,45 202,45 208,51 208,51 211.857,51 221.457,66.5865 220,69.5 218.725,72.05 215,73.9664 215,77 215,77 217,77 217,77 217,77 218,76 218,76 218,76 219,75 219,75 219,75 220,74 220,74 220,74 221,73 221,73 221,73 222.5,71 222.5,71 223.875,70.3125 234,71.3308 234,72 234,72 237,75 237,75 237,75 238,75 238,75 238,75 239,76 239,76 239,76 240,77 240,77 240,77 248,85 248,85 248,85 249,86 249,86 249,86 250,87 250,87 250,87 251,87 251,87 251,87 267,99 267,99 267,99 268,99 268,99 268,99 270,100 270,100 270,100 271,100 271,100 271,100 272,101 272,101 272,101 273,101 273,101 273,101 274,102 274,102 274,102 275,102 275,102 275,102 276,103 276,103 276,103 277,103 277,103 277,103 279,104 279,104 279,104 280,104 280,104 280,104 281,105 281,105  Z"/>

<path  fill="#FF64FF" stroke-width="0" stroke="#FF64FF" d = " M239 58 L239,60 C242.059,60 244.645,51 249,51 249,48.1711 254,48.0046 254,45 254,45 249,46 249,46 249,46 247,47 247,47 247,47 246,48 246,48 246,48 245,49 245,49 245,49 244,50 244,50 244,50 243,52 243,52 243,52 242,53 242,53 242,53 241,54 241,54 241,54 241,55 241,55 241,55 240,56 240,56 240,56 239,57 239,57 239,57 239,58 239,58  Z"/>

<path  fill="#FE79FE" stroke-width="0" stroke="#FE79FE" d = " M288 54 L291,57.5 L294,65.5 C297.397,72.2946 288.576,87.3486 286,92.5 281.94,100.619 259,94.8852 259,89 259,89 263,86.5 263,86.5 263.847,84.8063 266.026,65.5522 265,63.5 265,63.5 255.5,56 255.5,56 252.892,54.6962 252.203,51 249,51 249,48.1711 254,48.0046 254,45 263.463,45 270.739,45.1193 278.5,49 279.826,49.663 285,50.0024 285,52 285,52 286,53 286,53 286,53 288,54 288,54  Z"/>

<path  fill="#F0F080" stroke-width="0" stroke="#F0F080" d = " M210 47 L211,48 C211,48 210,47 210,47  Z"/>

<path  fill="#F0F080" stroke-width="0" stroke="#F0F080" d = " M247 47 L246,48 C246,48 247,47 247,47  Z"/>

<path  fill="#F0F080" stroke-width="0" stroke="#F0F080" d = " M246 48 L245,49 C245,49 246,48 246,48  Z"/>

<path  fill="#F0F080" stroke-width="0" stroke="#F0F080" d = " M245 49 L244,50 C244,50 245,49 245,49  Z"/>

<path  fill="#F0F080" stroke-width="0" stroke="#F0F080" d = " M212 50 L214,52 C214,52 212,50 212,50  Z"/>

<path  fill="#FE79FF" stroke-width="0" stroke="#FE79FF" d = " M211 81 C205.912,81 203.088,89 198,89 198,88.627 193.737,85.9734 193,84.5 193,84.5 193,78.5 193,78.5 187.782,68.0644 192.971,59.7643 202.5,55 205.025,53.7377 204.095,51 208,51 211.857,51 221.457,66.5865 220,69.5 218.725,72.05 215,73.9664 215,77 215,77 213,79 213,79 211.253,79 211,79.2531 211,81  Z"/>

<path  fill="#FE79FF" stroke-width="0" stroke="#FE79FF" d = " M239 60 L237,70.5 C239.201,74.9019 253.773,89 259,89 259,89 263,86.5 263,86.5 263.847,84.8063 266.026,65.5522 265,63.5 265,63.5 255.5,56 255.5,56 252.892,54.6962 252.203,51 249,51 244.645,51 242.059,60 239,60  Z"/>

<path  fill="#F0F080" stroke-width="0" stroke="#F0F080" d = " M243 52 L242,53 C242,53 243,52 243,52  Z"/>

<path  fill="#FF64FF" stroke-width="0" stroke="#FF64FF" d = " M285 52 L286,53 C286,53 285,52 285,52  Z"/>

<path  fill="#FF64FF" stroke-width="0" stroke="#FF64FF" d = " M170 53 L169,54 C169,54 170,53 170,53  Z"/>

<path  fill="#F0F080" stroke-width="0" stroke="#F0F080" d = " M242 53 L241,54 C241,54 242,53 242,53  Z"/>

<path  fill="#FF64FF" stroke-width="0" stroke="#FF64FF" d = " M169 54 L168,55 C168,55 169,54 169,54  Z"/>

<path  fill="#F0F080" stroke-width="0" stroke="#F0F080" d = " M216 55 L224,67 C220.305,67 216,58.1335 216,55  Z"/>

<path  fill="#F0F080" stroke-width="0" stroke="#F0F080" d = " M241 55 L240,56 C240,56 241,55 241,55  Z"/>

<path  fill="#FDFB8F" stroke-width="0" stroke="#FDFB8F" d = " M134 149 C130.293,149 124.889,149.279 123,145.5 120.33,140.161 127.622,109.256 130,104.5 130.65,103.2 132.628,90 129.5,90 128.679,90 127.54,100.421 127,101.5 121.561,112.378 123.293,130.914 119,139.5 118.017,141.467 118.016,151 115,151 115,148.405 106.71,136.919 105,133.5 105,133.5 105,128.5 105,128.5 98.9132,116.326 101,99.6005 101,85 101,72.3956 128.123,63.1887 136.5,59 138.969,57.7655 146.417,54.4586 149.5,56 151.233,56.8664 154.212,57.9241 155,59.5 155.606,60.7116 157.24,65 159,65 159,65 159,77 159,77 157.353,77 153.039,90.4219 152,92.5 146.851,102.798 142.105,113.289 137,123.5 137,123.5 136,140.5 136,140.5 135.099,142.302 134,147.094 134,149  Z"/>

<path  fill="#FF64FF" stroke-width="0" stroke="#FF64FF" d = " M167 56 L166,57 C166,57 167,56 167,56  Z"/>

<path  fill="#F0F080" stroke-width="0" stroke="#F0F080" d = " M240 56 L239,57 C239,57 240,56 240,56  Z"/>

<path  fill="#FDFB8F" stroke-width="0" stroke="#FDFB8F" d = " M322 149 C325.852,149 330.966,149.568 333,145.5 335.626,140.248 329.751,113.001 327,107.5 325.437,104.374 325,98.6922 325,95 L326.5,91 C328.353,91 329.31,101.121 330,102.5 333.495,109.49 337,129.269 337,137.5 337,140.014 338.354,150 341,150 341,150 347,143.5 347,143.5 347,143.5 351,134.5 351,134.5 351,134.5 351,130.5 351,130.5 358.09,116.321 355,100.356 355,84 355,79.8682 348.467,74.967 345.5,72 338.259,64.7586 298,44.0788 298,67 298,68.4056 298.714,74 297,74 297,74 297,76 297,76 298.586,76 303.839,92.1782 305,94.5 314.458,113.415 322,125.908 322,149  Z"/>

<path  fill="#FF64FF" stroke-width="0" stroke="#FF64FF" d = " M165 58 C163.423,58 163,59.7617 163,61 164.577,61 165,59.2383 165,58  Z"/>

<path  fill="#F0F080" stroke-width="0" stroke="#F0F080" d = " M239 60 L237,61 C237,59.7617 237.423,58 239,58 239,58 239,60 239,60  Z"/>

<path  fill="#FF64FF" stroke-width="0" stroke="#FF64FF" d = " M173 105 L176,105 C176,105 177,104 177,104 177,104 178,104 178,104 178,104 179,103 179,103 179,103 180,103 180,103 180,103 181,102 181,102 181,102 182,102 182,102 182,102 183,101 183,101 183,101 185,101 185,101 185,101 186,100 186,100 186,100 187,100 187,100 187,100 188,99 188,99 188,99 189,99 189,99 189,99 191,98 191,98 191,98 192,97 192,97 192,97 193,97 193,97 193,97 194,96 194,96 194,96 195,95 195,95 195,95 196,95 196,95 196,95 197,94 197,94 197,94 198,93 198,93 198,93 199,93 199,93 199,93 200,92 200,92 200,92 201,91 201,91 201,91 203,90 203,90 203,90 204,89 204,89 204,89 205,88 205,88 205,88 206,87 206,87 206,87 207,86 207,86 207,86 208,85 208,85 208,85 209,84 209,84 209,84 210,83 210,83 210,83 211,82 211,82 211,82 211,81 211,81 205.912,81 203.088,89 198,89 198,95.5177 178.442,97.4709 173.5,95 162.533,89.5163 163,70.9696 163,61 163,61 159,65 159,65 159,65 159,77 159,77 159,77 159,79 159,79 159,79 160,80 160,80 160,80 160,81 160,81 160,81 161,82 161,82 161,82 161,84 161,84 161,84 162,85 162,85 162,85 162,86 162,86 162,86 163,87 163,87 163,87 163,88 163,88 163,88 164,89 164,89 164,89 164,90 164,90 164,90 165,91 165,91 165,91 165,93 165,93 165,93 166,94 166,94 166,94 166,95 166,95 166,95 167,96 167,96 167,96 167,99 167,99 167,99 173,105 173,105  Z"/>

<path  fill="#F0F080" stroke-width="0" stroke="#F0F080" d = " M237 62 C235.423,62 235,63.7617 235,65 236.577,65 237,63.2383 237,62  Z"/>

<path  fill="#F0F080" stroke-width="0" stroke="#F0F080" d = " M235 65 C233.762,65 232,65.4226 232,67 233.238,67 235,66.5774 235,65  Z"/>

<path  fill="#F0F080" stroke-width="0" stroke="#F0F080" d = " M226 67 L227,67 C227,67 227,66 227,66 227,66 226,67 226,67  Z"/>

<path  fill="#F0F080" stroke-width="0" stroke="#F0F080" d = " M298 67 C298,68.4056 298.714,74 297,74 297,74 297,67 297,67 297,67 298,67 298,67  Z"/>

<path  fill="#FFFC8E" stroke-width="0" stroke="#FFFC8E" d = " M185 147 C185,141.51 177.877,138.746 182,130.5 L198.5,122 C211.198,115.651 230.156,109.828 244.5,117 247.315,118.408 251.656,117.578 254.5,119 L259.5,123 C263.713,125.106 272.469,126.437 275,131.5 278.057,137.615 271,143.839 271,147 277.84,147 285.744,152.378 292.5,149 294.461,148.019 294.163,143.669 295.5,143 297.144,142.178 303,144.038 303,141 303,137.754 296.742,133.984 295,130.5 290.991,122.482 284,114.543 284,105 284,105 281,105 281,105 281,105 280,104 280,104 280,104 279,104 279,104 279,104 277,103 277,103 277,103 276,103 276,103 276,103 275,102 275,102 275,102 274,102 274,102 274,102 273,101 273,101 273,101 272,101 272,101 272,101 271,100 271,100 271,100 270,100 270,100 270,100 268,99 268,99 268,99 267,99 267,99 265.243,99 251,89.2153 251,87 251,87 250,87 250,87 250,87 249,86 249,86 249,86 248,85 248,85 248,85 240,77 240,77 240,77 239,76 239,76 239,76 238,75 238,75 238,75 237,75 237,75 237,75 234,72 234,72 234,71.3308 223.875,70.3125 222.5,71 222.5,71 221,73 221,73 221,73 220,74 220,74 220,74 219,75 219,75 219,75 218,76 218,76 218,76 217,77 217,77 217,77 215,79 215,79 215,80.5774 213.238,81 212,81 212,81 211,82 211,82 211,82 210,83 210,83 210,83 209,84 209,84 209,84 208,85 208,85 208,85 207,86 207,86 207,86 206,87 206,87 206,87 205,88 205,88 205,88 204,89 204,89 204,89 203,90 203,90 203,90 201,91 201,91 201,91 200,92 200,92 200,92 199,93 199,93 199,93 198,93 198,93 198,93 197,94 197,94 197,94 196,95 196,95 196,95 195,95 195,95 195,95 194,96 194,96 194,96 193,97 193,97 193,97 192,97 192,97 192,97 191,98 191,98 191,98 189,99 189,99 189,99 188,99 188,99 188,99 187,100 187,100 187,100 186,100 186,100 186,100 185,101 185,101 185,101 183,101 183,101 183,101 182,102 182,102 182,102 181,102 181,102 181,102 180,103 180,103 180,103 179,103 179,103 179,103 178,104 178,104 178,104 177,104 177,104 177,104 176,105 176,105 176,105 173,105 173,105 173,111.516 164.265,128.235 159.5,133 159.5,133 153,140 153,140 153,144.523 157.938,141.719 160.5,143 161.93,143.715 161.698,147.599 164.5,149 171.176,152.338 178.383,147 185,147  Z"/>

<path  fill="#F0F080" stroke-width="0" stroke="#F0F080" d = " M234 72 L237,75 C237,75 234,72 234,72  Z"/>

<path  fill="#F0F080" stroke-width="0" stroke="#F0F080" d = " M221 73 L220,74 C220,74 221,73 221,73  Z"/>

<path  fill="#F0F080" stroke-width="0" stroke="#F0F080" d = " M220 74 L219,75 C219,75 220,74 220,74  Z"/>

<path  fill="#F0F080" stroke-width="0" stroke="#F0F080" d = " M219 75 L218,76 C218,76 219,75 219,75  Z"/>

<path  fill="#F0F080" stroke-width="0" stroke="#F0F080" d = " M238 75 L239,76 C239,76 238,75 238,75  Z"/>

<path  fill="#F0F080" stroke-width="0" stroke="#F0F080" d = " M218 76 L217,77 C217,77 218,76 218,76  Z"/>

<path  fill="#FCFB90" stroke-width="0" stroke="#FCFB90" d = " M303 141 C305.582,141 303,129.123 303,127.5 L303.5,123 C306.328,123 304.211,132.922 305,134.5 308.815,142.13 311.778,149 322,149 322,125.908 314.458,113.415 305,94.5 303.839,92.1782 298.586,76 297,76 297,76 297,80 297,80 297,80 296,81 296,81 296,81 296,82 296,82 296,82 295,83 295,83 295,83 295,85 295,85 295,85 294,86 294,86 294,86 293,89 293,89 293,89 292,90 292,90 292,90 292,91 292,91 292,91 291,93 291,93 291,93 291,94 291,94 291,94 290,95 290,95 290,95 290,96 290,96 290,96 289,98 289,98 289,98 289,99 289,99 289,99 288,100 288,100 288,100 287,101 287,101 287,101 287,102 287,102 287,102 286,103 286,103 286,103 285,104 285,104 285,104 284,105 284,105 284,114.543 290.991,122.482 295,130.5 296.742,133.984 303,137.754 303,141  Z"/>

<path  fill="#FCFB90" stroke-width="0" stroke="#FCFB90" d = " M153 140 L152.5,124 C150.825,124 151.685,135.13 151,136.5 147.376,143.749 142.877,149 134,149 134,147.094 135.099,142.302 136,140.5 136,140.5 137,123.5 137,123.5 142.105,113.289 146.851,102.798 152,92.5 153.039,90.4219 157.353,77 159,77 159,77 159,79 159,79 159,79 160,80 160,80 160,80 160,81 160,81 160,81 161,82 161,82 161,82 161,84 161,84 161,84 162,85 162,85 162,85 162,86 162,86 162,86 163,87 163,87 163,87 163,88 163,88 163,88 164,89 164,89 164,89 164,90 164,90 164,90 165,91 165,91 165,91 165,93 165,93 165,93 166,94 166,94 166,94 166,95 166,95 166,95 167,96 167,96 167,96 167,99 167,99 167,99 173,105 173,105 173,111.516 164.265,128.235 159.5,133 159.5,133 153,140 153,140  Z"/>

<path  fill="#FF64FF" stroke-width="0" stroke="#FF64FF" d = " M213 79 L215,79 C215,79 215,77 215,77 215,77 213,79 213,79  Z"/>

<path  fill="#F0F080" stroke-width="0" stroke="#F0F080" d = " M217 77 L215,79 C215,79 215,77 215,77 215,77 217,77 217,77  Z"/>

<path  fill="#F0F080" stroke-width="0" stroke="#F0F080" d = " M240 77 L248,85 C248,85 240,77 240,77  Z"/>

<path  fill="#F0F080" stroke-width="0" stroke="#F0F080" d = " M159 79 L160,80 C160,80 159,79 159,79  Z"/>

<path  fill="#FF64FF" stroke-width="0" stroke="#FF64FF" d = " M211 81 L212,81 C212,81 213,79 213,79 211.253,79 211,79.2531 211,81  Z"/>

<path  fill="#F0F080" stroke-width="0" stroke="#F0F080" d = " M215 79 C215,80.5774 213.238,81 212,81 212,81 213,79 213,79 213,79 215,79 215,79  Z"/>

<path  fill="#F0F080" stroke-width="0" stroke="#F0F080" d = " M297 80 L296,81 C296,81 297,80 297,80  Z"/>

<path  fill="#F0F080" stroke-width="0" stroke="#F0F080" d = " M160 81 L161,82 C161,82 160,81 160,81  Z"/>

<path  fill="#F0F080" stroke-width="0" stroke="#F0F080" d = " M212 81 L211,82 C211,82 211,81 211,81 211,81 212,81 212,81  Z"/>

<path  fill="#F0F080" stroke-width="0" stroke="#F0F080" d = " M211 82 L210,83 C210,83 211,82 211,82  Z"/>

<path  fill="#F0F080" stroke-width="0" stroke="#F0F080" d = " M296 82 L295,83 C295,83 296,82 296,82  Z"/>

<path  fill="#F0F080" stroke-width="0" stroke="#F0F080" d = " M210 83 L209,84 C209,84 210,83 210,83  Z"/>

<path  fill="#F0F080" stroke-width="0" stroke="#F0F080" d = " M161 84 L162,85 C162,85 161,84 161,84  Z"/>

<path  fill="#F0F080" stroke-width="0" stroke="#F0F080" d = " M209 84 L208,85 C208,85 209,84 209,84  Z"/>

<path  fill="#FCFC90" stroke-width="0" stroke="#FCFC90" d = " M363 162 L367,163 C367,161.611 385.036,154.428 389,146.5 397.727,129.047 386.618,109.118 374,96.5 368.754,91.254 363.162,84 355,84 355,100.356 358.09,116.321 351,130.5 351,130.5 351,134.5 351,134.5 351,134.5 347,143.5 347,143.5 347,143.5 341,150 341,150 341,161.186 363.917,160.666 368,152.5 369.683,149.134 368.654,155.193 368,156.5 368,156.5 363,162 363,162  Z"/>

<path  fill="#FCFC90" stroke-width="0" stroke="#FCFC90" d = " M93 162 C93,163.579 90.1452,163 89,163 89,159.65 84.7456,160.123 82.5,159 76.2764,155.888 70.4518,152.404 67,145.5 57.586,126.672 79.9848,85 101,85 101,99.6005 98.9132,116.326 105,128.5 105,128.5 105,133.5 105,133.5 106.71,136.919 115,148.405 115,151 115,161.545 91.9252,159.35 89,153.5 88.7523,153.005 87.7099,149.08 87,150.5 84.705,155.09 93,158.591 93,162  Z"/>

<path  fill="#F0F080" stroke-width="0" stroke="#F0F080" d = " M208 85 L207,86 C207,86 208,85 208,85  Z"/>

<path  fill="#F0F080" stroke-width="0" stroke="#F0F080" d = " M295 85 L294,86 C294,86 295,85 295,85  Z"/>

<path  fill="#F0F080" stroke-width="0" stroke="#F0F080" d = " M162 86 L163,87 C163,87 162,86 162,86  Z"/>

<path  fill="#F0F080" stroke-width="0" stroke="#F0F080" d = " M207 86 L206,87 C206,87 207,86 207,86  Z"/>

<path  fill="#F0F080" stroke-width="0" stroke="#F0F080" d = " M249 86 L250,87 C250,87 249,86 249,86  Z"/>

<path  fill="#F0F080" stroke-width="0" stroke="#F0F080" d = " M206 87 L205,88 C205,88 206,87 206,87  Z"/>

<path  fill="#F0F080" stroke-width="0" stroke="#F0F080" d = " M251 87 L267,99 C265.243,99 251,89.2153 251,87  Z"/>

<path  fill="#F0F080" stroke-width="0" stroke="#F0F080" d = " M163 88 L164,89 C164,89 163,88 163,88  Z"/>

<path  fill="#F0F080" stroke-width="0" stroke="#F0F080" d = " M205 88 L204,89 C204,89 205,88 205,88  Z"/>

<path  fill="#F0F080" stroke-width="0" stroke="#F0F080" d = " M293 89 L292,90 C292,90 293,89 293,89  Z"/>

<path  fill-rule="evenodd" fill="#CBC9CC" stroke-width="0" stroke="#CBC9CC" d = " M125 161 C125,166.522 121.354,171.792 119,176.5 117.393,179.713 121.991,185.754 125.5,184 128.188,182.656 136.232,161 125,161  M130 190 C124.453,190 123.137,196 121,196 121,192.762 122,190.7 122,188 122,182.251 110.777,183.361 107.5,185 96.0697,190.715 85.0597,197.22 73.5,203 70.7194,204.39 66,213.386 66,217 66,218.095 65.4793,224 64.5,224 64.5,224 63,222.5 63,222.5 54.8158,206.132 85.031,187.234 95.5,182 97.7463,180.877 109,180.204 109,177 114.42,177 107.707,165 103,165 99.7314,165 96.6793,162 93,162 93,158.591 84.705,155.09 87,150.5 87.7099,149.08 88.7523,153.005 89,153.5 91.9252,159.35 115,161.545 115,151 118.016,151 118.017,141.467 119,139.5 123.293,130.914 121.561,112.378 127,101.5 127.54,100.421 128.679,90 129.5,90 132.628,90 130.65,103.2 130,104.5 127.622,109.256 120.33,140.161 123,145.5 124.889,149.279 130.293,149 134,149 142.877,149 147.376,143.749 151,136.5 151.685,135.13 150.825,124 152.5,124 152.5,124 153,140 153,140 153,144.523 157.938,141.719 160.5,143 161.93,143.715 161.698,147.599 164.5,149 171.176,152.338 178.383,147 185,147 188.042,147 195,152.744 195,156 195,156 194,157 194,157 194,157 193,157 193,157 193,157 192,156 192,156 192,156 191,155 191,155 191,155 190,155 190,155 190,155 189,153 189,153 189,153 188,151 188,151 188,151 192.5,155 192.5,155 192.5,155 188.5,149 188.5,149 185.474,147.487 173,149.831 173,153 170.096,153 165.901,155 171,155 171,155.317 156,162.488 156,167 156,167 149,172 149,172 149,169.652 144.103,171 143.5,171 143.5,171 142.5,169 142.5,169 140.98,168.24 134.94,172.28 133.5,173 132.325,173.588 131,185.972 131,187 129.527,187 130,188.952 130,190  Z"/>

<path  fill="#F0F080" stroke-width="0" stroke="#F0F080" d = " M164 90 L165,91 C165,91 164,90 164,90  Z"/>

<path  fill="#F0F080" stroke-width="0" stroke="#F0F080" d = " M203 90 L201,91 C201,91 203,90 203,90  Z"/>

<path  fill="#F0F080" stroke-width="0" stroke="#F0F080" d = " M201 91 L200,92 C200,92 201,91 201,91  Z"/>

<path  fill="#F0F080" stroke-width="0" stroke="#F0F080" d = " M292 91 L291,93 C291,93 292,91 292,91  Z"/>

<path  fill-rule="evenodd" fill="#CBC9CC" stroke-width="0" stroke="#CBC9CC" d = " M328 161 C328,163.229 322.385,165.885 325.5,169 328.853,172.353 327.01,178.521 329,182.5 330.401,185.303 335.73,184.04 337,181.5 338.918,177.663 335.313,175.125 334,172.5 331.729,167.959 335.095,161 328,161  M327 190 C332.459,190 334.573,197 336,197 336,197 334,189 334,189 334,184.619 341.287,181.893 345.5,184 352.254,187.377 359.726,189.613 366.5,193 366.5,193 382.5,203 382.5,203 386.08,204.79 390,212.075 390,216 390,217.232 392.19,225.119 393,223.5 393,223.5 393,217 393,217 393,200.319 380.76,193.63 367.5,187 367.5,187 361.5,182 361.5,182 359.021,180.761 348,181.104 348,177 342.11,177 348.804,165 353,165 353,165 363,162 363,162 363,162 368,156.5 368,156.5 368.654,155.193 369.683,149.134 368,152.5 363.917,160.666 341,161.186 341,150 338.354,150 337,140.014 337,137.5 337,129.269 333.495,109.49 330,102.5 329.31,101.121 328.353,91 326.5,91 326.5,91 325,95 325,95 325,98.6922 325.437,104.374 327,107.5 329.751,113.001 335.626,140.248 333,145.5 330.966,149.568 325.852,149 322,149 311.778,149 308.815,142.13 305,134.5 304.211,132.922 306.328,123 303.5,123 303.5,123 303,127.5 303,127.5 303,129.123 305.582,141 303,141 303,144.038 297.144,142.178 295.5,143 294.163,143.669 294.461,148.019 292.5,149 285.744,152.378 277.84,147 271,147 269.762,147 268,147.423 268,149 271.669,149 288,151.659 288,154.5 288,154.5 284,154 284,154 284,154 284,155 284,155 287.837,155 300,162.453 300,167 302.777,167 303.373,171 307,171 308.297,171 313.125,171.187 313.5,171 314.497,170.501 314.242,167.871 316.5,169 323.079,172.29 326,179.609 326,187 326,187 327,190 327,190  Z"/>

<path  fill="#F0F080" stroke-width="0" stroke="#F0F080" d = " M200 92 L199,93 C199,93 200,92 200,92  Z"/>

<path  fill="#F0F080" stroke-width="0" stroke="#F0F080" d = " M165 93 L166,94 C166,94 165,93 165,93  Z"/>

<path  fill="#F0F080" stroke-width="0" stroke="#F0F080" d = " M198 93 L197,94 C197,94 198,93 198,93  Z"/>

<path  fill="#F0F080" stroke-width="0" stroke="#F0F080" d = " M197 94 L196,95 C196,95 197,94 197,94  Z"/>

<path  fill="#F0F080" stroke-width="0" stroke="#F0F080" d = " M291 94 L290,95 C290,95 291,94 291,94  Z"/>

<path  fill="#F0F080" stroke-width="0" stroke="#F0F080" d = " M166 95 L167,96 C167,96 166,95 166,95  Z"/>

<path  fill="#F0F080" stroke-width="0" stroke="#F0F080" d = " M195 95 L194,96 C194,96 195,95 195,95  Z"/>

<path  fill="#F0F080" stroke-width="0" stroke="#F0F080" d = " M194 96 L193,97 C193,97 194,96 194,96  Z"/>

<path  fill="#F0F080" stroke-width="0" stroke="#F0F080" d = " M290 96 L289,98 C289,98 290,96 290,96  Z"/>

<path  fill="#F0F080" stroke-width="0" stroke="#F0F080" d = " M192 97 L191,98 C191,98 192,97 192,97  Z"/>

<path  fill="#F0F080" stroke-width="0" stroke="#F0F080" d = " M191 98 L189,99 C189,99 191,98 191,98  Z"/>

<path  fill="#F0F080" stroke-width="0" stroke="#F0F080" d = " M167 99 L173,105 C173,105 167,99 167,99  Z"/>

<path  fill="#F0F080" stroke-width="0" stroke="#F0F080" d = " M188 99 L187,100 C187,100 188,99 188,99  Z"/>

<path  fill="#F0F080" stroke-width="0" stroke="#F0F080" d = " M268 99 L270,100 C270,100 268,99 268,99  Z"/>

<path  fill="#F0F080" stroke-width="0" stroke="#F0F080" d = " M289 99 L288,100 C288,100 289,99 289,99  Z"/>

<path  fill="#F0F080" stroke-width="0" stroke="#F0F080" d = " M186 100 L185,101 C185,101 186,100 186,100  Z"/>

<path  fill="#F0F080" stroke-width="0" stroke="#F0F080" d = " M271 100 L272,101 C272,101 271,100 271,100  Z"/>

<path  fill="#F0F080" stroke-width="0" stroke="#F0F080" d = " M288 100 L287,101 C287,101 288,100 288,100  Z"/>

<path  fill="#F0F080" stroke-width="0" stroke="#F0F080" d = " M183 101 L182,102 C182,102 183,101 183,101  Z"/>

<path  fill="#F0F080" stroke-width="0" stroke="#F0F080" d = " M273 101 L274,102 C274,102 273,101 273,101  Z"/>

<path  fill="#F0F080" stroke-width="0" stroke="#F0F080" d = " M181 102 L180,103 C180,103 181,102 181,102  Z"/>

<path  fill="#F0F080" stroke-width="0" stroke="#F0F080" d = " M275 102 L276,103 C276,103 275,102 275,102  Z"/>

<path  fill="#F0F080" stroke-width="0" stroke="#F0F080" d = " M287 102 L286,103 C286,103 287,102 287,102  Z"/>

<path  fill="#F0F080" stroke-width="0" stroke="#F0F080" d = " M179 103 L178,104 C178,104 179,103 179,103  Z"/>

<path  fill="#F0F080" stroke-width="0" stroke="#F0F080" d = " M277 103 L279,104 C279,104 277,103 277,103  Z"/>

<path  fill="#F0F080" stroke-width="0" stroke="#F0F080" d = " M177 104 L176,105 C176,105 177,104 177,104  Z"/>

<path  fill="#F0F080" stroke-width="0" stroke="#F0F080" d = " M280 104 L281,105 C281,105 280,104 280,104  Z"/>

<path  fill="#F0F080" stroke-width="0" stroke="#F0F080" d = " M285 104 L284,105 C284,105 285,104 285,104  Z"/>

<path  fill-rule="evenodd" fill="#FDFA91" stroke-width="0" stroke="#FDFA91" d = " M188 135 L185,136.5 L189.5,137 C192.855,138.677 197.332,137.416 200.5,139 211.176,144.338 235.646,146.427 246.5,141 251.663,138.418 259.297,140.601 264.5,138 L271,136.5 C271,134.588 263.917,135 262.5,135 255.605,135 244.465,137.017 238.5,140 229.403,144.548 201.139,135 188,135  M212 164 L245,164 C249.927,164 254.704,159 259,159 259,159 262,156 262,156 262,156 265,152 265,152 265,149.959 265.959,149 268,149 268,147.423 269.762,147 271,147 271,143.839 278.057,137.615 275,131.5 272.469,126.437 263.713,125.106 259.5,123 259.5,123 254.5,119 254.5,119 251.656,117.578 247.315,118.408 244.5,117 230.156,109.828 211.198,115.651 198.5,122 198.5,122 182,130.5 182,130.5 177.877,138.746 185,141.51 185,147 188.042,147 195,152.744 195,156 195,156 197,159 197,159 201.911,159 206.425,164 212,164  Z"/>

<path  fill="#CBC9CC" stroke-width="0" stroke="#CBC9CC" d = " M188 135 L185,136.5 L189.5,137 C192.855,138.677 197.332,137.416 200.5,139 211.176,144.338 235.646,146.427 246.5,141 251.663,138.418 259.297,140.601 264.5,138 L271,136.5 C271,134.588 263.917,135 262.5,135 255.605,135 244.465,137.017 238.5,140 229.403,144.548 201.139,135 188,135  Z"/>

<path  fill="#CBC7CC" stroke-width="0" stroke="#CBC7CC" d = " M176 153 L177,153 C177,150.104 185.797,151 188,151 188,151 192.5,155 192.5,155 192.5,155 188.5,149 188.5,149 185.474,147.487 173,149.831 173,153 173,153 176,153 176,153  Z"/>

<path  fill="#CBC9CC" stroke-width="0" stroke="#CBC9CC" d = " M267 153 L268,153 C268,153 268,151 268,151 266.07,151 268,149.839 268,149 265.959,149 265,149.959 265,152 266.577,152 267,150.271 267,153  Z"/>

<path  fill="#CBC7CC" stroke-width="0" stroke="#CBC7CC" d = " M281 153 L284,154 C284,154 288,154.5 288,154.5 288,151.659 271.669,149 268,149 268,149.839 266.07,151 268,151 270.264,151 280,150.373 280,153 280,153 281,153 281,153  Z"/>

<path  fill="#F0F080" stroke-width="0" stroke="#F0F080" d = " M177 153 C181.158,153 185.082,153 189,153 189,153 188,151 188,151 185.797,151 177,150.104 177,153  Z"/>

<path  fill="#CBC7CC" stroke-width="0" stroke="#CBC7CC" d = " M265 152 C266.577,152 267,150.271 267,153 267,153 265,152 265,152  Z"/>

<path  fill="#F0F080" stroke-width="0" stroke="#F0F080" d = " M268 153 C271.7,153 275.99,153 280,153 280,150.373 270.264,151 268,151 268,151 268,153 268,153  Z"/>

<path  fill="#CBC9C8" stroke-width="0" stroke="#CBC9C8" d = " M156 167 L159,167 C159,167 161,166 161,166 161,166 163,165 163,165 163,165 165,164 165,164 165,164 166,163 166,163 166,163 168,163 168,163 168,163 169,162 169,162 169,162 171,161 171,161 176.419,161 182.007,155 190,155 190,155 189,153 189,153 185.082,153 181.158,153 177,153 177,153 176,153 176,153 176,154.473 174.048,154 173,154 173,154 172,155 172,155 172,155 171,155 171,155 171,155.317 156,162.488 156,167  Z"/>

<path  fill="#CBC9CC" stroke-width="0" stroke="#CBC9CC" d = " M262 157 L263,157 C263,157 264,156 264,156 264,156 265,155 265,155 265,155 266,155 266,155 266,155 267,154 267,154 267,154 267,153 267,153 267,153 265,152 265,152 265,152 262,156 262,156 262,156 262,157 262,157  Z"/>

<path  fill="#CBC9C8" stroke-width="0" stroke="#CBC9C8" d = " M294 165 C295.417,165 300,168.834 300,167 300,162.453 287.837,155 284,155 284,155 281,153 281,153 281,153 280,153 280,153 275.99,153 271.7,153 268,153 268,153 267,153 267,153 267,153 267,154 267,154 267,154 267,155 267,155 274.423,155 279.668,161 286,161 286,161 289,163 289,163 289,163 290,163 290,163 290,163 293,165 293,165 293,165 294,165 294,165  Z"/>

<path  fill="#CBC7CC" stroke-width="0" stroke="#CBC7CC" d = " M172 154 L173,154 C173,154 173,153 173,153 170.096,153 165.901,155 171,155 171,155 172,154 172,154  Z"/>

<path  fill="#F0F080" stroke-width="0" stroke="#F0F080" d = " M176 153 C176,154.473 174.048,154 173,154 173,154 173,153 173,153 173,153 176,153 176,153  Z"/>

<path  fill="#F0F080" stroke-width="0" stroke="#F0F080" d = " M284 154 L284,155 C284,155 281,153 281,153 281,153 284,154 284,154  Z"/>

<path  fill="#CBC9CC" stroke-width="0" stroke="#CBC9CC" d = " M171 155 L172,155 C172,155 172,154 172,154 172,154 171,155 171,155  Z"/>

<path  fill="#F0F080" stroke-width="0" stroke="#F0F080" d = " M173 154 L172,155 C172,155 172,154 172,154 172,154 173,154 173,154  Z"/>

<path  fill="#FF9B88" stroke-width="0" stroke="#FF9B88" d = " M266 155 L267,155 C267,155 267,154 267,154 267,154 266,155 266,155  Z"/>

<path  fill="#FFAD6D" stroke-width="0" stroke="#FFAD6D" d = " M178 172 L184,172 C187.19,172 192.906,164.688 194,162.5 194.978,160.544 193,158.423 193,157 193,157 192,156 192,156 192,156 191,155 191,155 191,155 190,155 190,155 182.007,155 176.419,161 171,161 171,161 171,162 171,162 174.808,162 182.624,155.562 185.5,157 194.469,161.484 179.385,166 176,166 176,166 175,167 175,167 175,167 174,169 174,169 174,169 176,171 176,171 176,171 178,172 178,172  Z"/>

<path  fill="#FF9B88" stroke-width="0" stroke="#FF9B88" d = " M191 155 L192,156 C192,156 191,155 191,155  Z"/>

<path  fill="#FFAD6D" stroke-width="0" stroke="#FFAD6D" d = " M272 172 L278,172 C278,170.527 279.952,171 281,171 281,171 282,169 282,169 282,169 281,166 281,166 281,166 280,166 280,166 280,166 279,165 279,165 274.682,165 263.404,161.048 271.5,157 271.61,156.945 283.086,162 286,162 286,162 286,161 286,161 279.668,161 274.423,155 267,155 267,155 266,155 266,155 266,155 265,155 265,155 265,155 264,156 264,156 264,156 263,157 263,157 263,157 262,161.5 262,161.5 263.489,164.478 268.973,172 272,172  Z"/>

<path  fill="#F0F080" stroke-width="0" stroke="#F0F080" d = " M197 159 L197,160 C197,160 194,157 194,157 194,157 195,156 195,156 195,156 197,159 197,159  Z"/>

<path  fill="#F0F080" stroke-width="0" stroke="#F0F080" d = " M259 159 L260,160 C260,160 262,157 262,157 262,157 262,156 262,156 262,156 259,159 259,159  Z"/>

<path  fill="#FF9B88" stroke-width="0" stroke="#FF9B88" d = " M264 156 L263,157 C263,157 264,156 264,156  Z"/>

<path  fill="#CBC9CB" stroke-width="0" stroke="#CBC9CB" d = " M159 173 L162,173 C162,173 163,172 163,172 163,172 164,172 164,172 164,172 165,171 165,171 165,171 166,171 166,171 166,171 167,170 167,170 167,170 169,169 169,169 169,169 170,169 170,169 170,169 172,168 172,168 172,166.527 173.952,167 175,167 175,167 176,166 176,166 179.385,166 194.469,161.484 185.5,157 182.624,155.562 174.808,162 171,162 171,162 169,162 169,162 169,162 168,163 168,163 168,163 166,163 166,163 166,163 165,164 165,164 165,164 163,165 163,165 163,165 161,166 161,166 161,166 159,167 159,167 159,168.714 157,170.482 157,173 157,173 159,173 159,173  Z"/>

<path  fill="#FF9B88" stroke-width="0" stroke="#FF9B88" d = " M184 172 C184,173.326 197.038,178 199,178 199,174.867 193.256,167 201,167 201,164.49 197,163.313 197,160 197,160 194,157 194,157 194,157 193,157 193,157 193,158.423 194.978,160.544 194,162.5 192.906,164.688 187.19,172 184,172  Z"/>

<path  fill="#FF9B88" stroke-width="0" stroke="#FF9B88" d = " M272 172 C272,174.052 261.02,177 259,177 259,172.899 261.297,167 255,167 255,167 260,160 260,160 260,160 262,157 262,157 262,157 263,157 263,157 263,157 262,161.5 262,161.5 263.489,164.478 268.973,172 272,172  Z"/>

<path  fill="#CBC9CB" stroke-width="0" stroke="#CBC9CB" d = " M297 173 L299,173 C299,167.261 294,166.174 294,165 294,165 293,165 293,165 291.762,165 290,164.577 290,163 290,163 289,163 289,163 289,163 286,162 286,162 283.086,162 271.61,156.945 271.5,157 263.404,161.048 274.682,165 279,165 279,165 280,166 280,166 280,166 281,166 281,166 281,166 285,168 285,168 285,168 286,169 286,169 286,169 287,169 287,169 287,169 291,171 291,171 291,171 292,171 292,171 292,171 293,172 293,172 293,172 297,173 297,173  Z"/>

<path  fill="#AAA9A7" stroke-width="0" stroke="#AAA9A7" d = " M226 203 C227.375,203 228.625,203 230,203 230,203 231,202 231,202 231,202 231,199 231,199 231,199 230,198 230,198 230,194.798 227.265,188.97 229,185.5 232.105,179.291 233.653,174.424 240.5,171 240.5,171 247.5,170 247.5,170 247.5,170 253,168 253,168 253,168 254,167 254,167 254,167 255,167 255,167 255,167 260,160 260,160 260,160 259,159 259,159 254.704,159 249.927,164 245,164 245,165.7 239.863,165 238.5,165 232.668,165 225.24,165 219.5,165 218.052,165 212,165.725 212,164 206.425,164 201.911,159 197,159 197,159 197,160 197,160 197,163.313 201,164.49 201,167 201,167 202,167 202,167 202,167 203,168 203,168 203,168 209.5,170 209.5,170 212.728,171.614 217.223,171.361 220.5,173 227.252,176.376 227,188.43 227,196 227,196 226,197 226,197 226,197 226,199 226,199 226,199 226,203 226,203  Z"/>

<path  fill="#FFFDBB" stroke-width="0" stroke="#FFFDBB" d = " M125 161 C125,166.522 121.354,171.792 119,176.5 117.393,179.713 121.991,185.754 125.5,184 128.188,182.656 136.232,161 125,161  Z"/>

<path  fill="#F0F080" stroke-width="0" stroke="#F0F080" d = " M169 162 L171,162 C171,162 171,161 171,161 171,161 169,162 169,162  Z"/>

<path  fill="#F0F080" stroke-width="0" stroke="#F0F080" d = " M286 162 L289,163 C289,163 286,161 286,161 286,161 286,162 286,162  Z"/>

<path  fill="#FFFDBB" stroke-width="0" stroke="#FFFDBB" d = " M328 161 C328,163.229 322.385,165.885 325.5,169 328.853,172.353 327.01,178.521 329,182.5 330.401,185.303 335.73,184.04 337,181.5 338.918,177.663 335.313,175.125 334,172.5 331.729,167.959 335.095,161 328,161  Z"/>

<path  fill="#FFFC8D" stroke-width="0" stroke="#FFFC8D" d = " M122 188 C116.524,188 115.924,192.788 111.5,195 106.095,197.703 83.5055,209.489 81,214.5 76.0479,224.404 91,237.36 91,240 91,249.304 78.695,261 69.5,261 64.5125,261 53.5408,253.582 51,248.5 51,248.5 45,235.5 45,235.5 43.1326,231.765 44.8969,226.294 43,222.5 41.7839,220.068 43.0192,213.462 44,211.5 44,211.5 45,201.5 45,201.5 45,201.5 51,191.5 51,191.5 53.8828,185.734 65.9286,179.786 71.5,177 71.5,177 75.5,177 75.5,177 80.1041,174.698 77.4132,171.674 79,168.5 80.2823,165.935 89,164.032 89,163 90.1452,163 93,163.579 93,162 96.6793,162 99.7314,165 103,165 103,169.654 109,174.598 109,177 109,180.204 97.7463,180.877 95.5,182 85.031,187.234 54.8158,206.132 63,222.5 63,222.5 64.5,224 64.5,224 65.4793,224 66,218.095 66,217 66,213.386 70.7194,204.39 73.5,203 85.0597,197.22 96.0697,190.715 107.5,185 110.777,183.361 122,182.251 122,188  Z"/>

<path  fill="#F0F080" stroke-width="0" stroke="#F0F080" d = " M169 162 L168,163 C168,163 169,162 169,162  Z"/>

<path  fill="#FFFC8D" stroke-width="0" stroke="#FFFC8D" d = " M334 189 L336.5,188 L343.5,194 C347.182,195.841 365.954,206.408 367,208.5 367.454,209.409 374.354,212.209 376,215.5 380.261,224.022 365,238.479 365,240 366.616,240 367.306,247.111 368,248.5 372.415,257.33 384.976,263.262 393.5,259 415.525,247.988 417.285,214.07 407,193.5 403.178,185.857 391.488,180.494 384.5,177 384.5,177 380.5,177 380.5,177 374.792,174.146 378.113,163 367,163 367,163 363,162 363,162 363,162 353,165 353,165 353,169.988 348,172.759 348,177 348,181.104 359.021,180.761 361.5,182 361.5,182 367.5,187 367.5,187 380.76,193.63 393,200.319 393,217 393,217 393,223.5 393,223.5 392.19,225.119 390,217.232 390,216 390,212.075 386.08,204.79 382.5,203 382.5,203 366.5,193 366.5,193 359.726,189.613 352.254,187.377 345.5,184 341.287,181.893 334,184.619 334,189  Z"/>

<path  fill="#F0F080" stroke-width="0" stroke="#F0F080" d = " M166 163 L165,164 C165,164 166,163 166,163  Z"/>

<path  fill="#F0F080" stroke-width="0" stroke="#F0F080" d = " M290 163 L293,165 C291.762,165 290,164.577 290,163  Z"/>

<path  fill="#F0F080" stroke-width="0" stroke="#F0F080" d = " M165 164 L163,165 C163,165 165,164 165,164  Z"/>

<path  fill="#FEFA91" stroke-width="0" stroke="#FEFA91" d = " M212 164 L245,164 C245,165.7 239.863,165 238.5,165 232.668,165 225.24,165 219.5,165 218.052,165 212,165.725 212,164  Z"/>

<path  fill="#FFF990" stroke-width="0" stroke="#FFF990" d = " M103 165 C107.707,165 114.42,177 109,177 109,174.598 103,169.654 103,165  Z"/>

<path  fill="#F0F080" stroke-width="0" stroke="#F0F080" d = " M163 165 L161,166 C161,166 163,165 163,165  Z"/>

<path  fill="#FF9B88" stroke-width="0" stroke="#FF9B88" d = " M279 165 L280,166 C280,166 279,165 279,165  Z"/>

<path  fill="#F0F080" stroke-width="0" stroke="#F0F080" d = " M299 173 C302.138,173 304.662,175 307,175 307,175 307,171 307,171 303.373,171 302.777,167 300,167 300,168.834 295.417,165 294,165 294,166.174 299,167.261 299,173  Z"/>

<path  fill="#FFF990" stroke-width="0" stroke="#FFF990" d = " M353 165 C348.804,165 342.11,177 348,177 348,172.759 353,169.988 353,165  Z"/>

<path  fill="#F0F080" stroke-width="0" stroke="#F0F080" d = " M161 166 L159,167 C159,167 161,166 161,166  Z"/>

<path  fill="#FF9B88" stroke-width="0" stroke="#FF9B88" d = " M176 166 L175,167 C175,167 176,166 176,166  Z"/>

<path  fill="#FF9B88" stroke-width="0" stroke="#FF9B88" d = " M282 169 L284,169 C284,169 285,168 285,168 285,168 281,166 281,166 281,166 282,169 282,169  Z"/>

<path  fill="#F0F080" stroke-width="0" stroke="#F0F080" d = " M157 173 C153.646,173 151.709,175 149,175 149,175 149,172 149,172 149,172 156,167 156,167 156,167 159,167 159,167 159,168.714 157,170.482 157,173  Z"/>

<path  fill="#FF9B88" stroke-width="0" stroke="#FF9B88" d = " M173 169 L174,169 C174,169 175,167 175,167 173.952,167 172,166.527 172,168 172,168 173,169 173,169  Z"/>

<path  fill-rule="evenodd" fill="#FFBA84" stroke-width="0" stroke="#FFBA84" d = " M213 193 L212,197.5 C217.632,208.763 231.186,193 213,193  M215 181 L213,185.5 C213,188.276 217.991,190.255 220.5,189 225.619,186.441 221.22,181 215,181  M222 205 L223,205 C223,205 226,199 226,199 226,199 226,197 226,197 226,197 227,196 227,196 227,188.43 227.252,176.376 220.5,173 217.223,171.361 212.728,171.614 209.5,170 209.5,170 203,168 203,168 203,168 202,167 202,167 202,167 201,167 201,167 193.256,167 199,174.867 199,178 199,178 202,182 202,182 202,182 203,183 203,183 203,183 207,193 207,193 208.961,193 209.3,199.099 210,200.5 210.737,201.973 215,204.627 215,205 215,205 218,205 218,205 218,205 222,205 222,205  Z"/>

<path  fill="#FF9B88" stroke-width="0" stroke="#FF9B88" d = " M202 167 L203,168 C203,168 202,167 202,167  Z"/>

<path  fill="#FF9B88" stroke-width="0" stroke="#FF9B88" d = " M254 167 L253,168 C253,168 254,167 254,167  Z"/>

<path  fill-rule="evenodd" fill="#FFBA84" stroke-width="0" stroke="#FFBA84" d = " M239 193 L234,197.5 C230.724,204.052 242.268,199.232 244,197.5 245.622,195.878 245.21,193 242.5,193 L239,193  M236 181 L234,186.5 C238.167,194.833 251.6,181 236,181  M239 205 L241,205 C241,203.421 243.855,204 245,204 245,202.632 247.741,194 249,194 249,194 249,192 249,192 249,192 250,191 250,191 250,191 255,181 255,181 255,181 256,180 256,180 256,180 257,179 257,179 257,179 258,178 258,178 258,178 259,177 259,177 259,172.899 261.297,167 255,167 255,167 254,167 254,167 254,167 253,168 253,168 253,168 247.5,170 247.5,170 247.5,170 240.5,171 240.5,171 233.653,174.424 232.105,179.291 229,185.5 227.265,188.97 230,194.798 230,198 230,198 231,199 231,199 231,199 231,202 231,202 231,202 233,205 233,205 233,205 234,205 234,205 234,205 239,205 239,205  Z"/>

<path  fill="#FF9BCD" stroke-width="0" stroke="#FF9BCD" d = " M170 169 L173,169 C173,169 172,168 172,168 172,168 170,169 170,169  Z"/>

<path  fill="#FF9BCD" stroke-width="0" stroke="#FF9BCD" d = " M284 169 L286,169 C286,169 285,168 285,168 285,168 284,169 284,169  Z"/>

<path  fill="#C9C9C8" stroke-width="0" stroke="#C9C9C8" d = " M132 193 L132,195 C133.924,195 132.212,205 135.5,205 137.204,205 145.318,188 146,188 146,188 147,187 147,187 147,187 147,186 147,186 147,186 148,184 148,184 148,184 149,175 149,175 149,175 149,172 149,172 149,169.652 144.103,171 143.5,171 143.5,171 142.5,169 142.5,169 140.98,168.24 134.94,172.28 133.5,173 132.325,173.588 131,185.972 131,187 131,187 131,190 131,190 131,190 131,191 131,191 131,191 132,193 132,193  Z"/>

<path  fill="#FF9BCD" stroke-width="0" stroke="#FF9BCD" d = " M169 169 L167,170 C167,170 169,169 169,169  Z"/>

<path  fill="#FDB3D6" stroke-width="0" stroke="#FDB3D6" d = " M165 184 L162,185 C159.533,185 154,187.186 154,182 154,182 153,177.5 153,177.5 153,177.5 159,173 159,173 159,173 162,173 162,173 162,173 163,172 163,172 163,172 164,172 164,172 164,172 165,171 165,171 165,171 166,171 166,171 166,171 167,170 167,170 167,170 169,169 169,169 169,169 170,169 170,169 170,169 173,169 173,169 173,169 174,169 174,169 174,169 176,171 176,171 176,171 176,172 176,172 176,172 176,173 176,173 176,173 175,174 175,174 175,175.313 167.233,184 165,184  Z"/>

<path  fill="#FDB3D6" stroke-width="0" stroke="#FDB3D6" d = " M290 183 L294,185 C296.812,185 303,186.759 303,181 303,174.693 297,173.091 297,173 297,173 293,172 293,172 293,172 292,171 292,171 292,171 291,171 291,171 291,171 287,169 287,169 287,169 286,169 286,169 286,169 284,169 284,169 284,169 282,169 282,169 282,169 281,171 281,171 281,171 281,172 281,172 281,172 281,174 281,174 281,174 290,183 290,183  Z"/>

<path  fill="#FF9BCD" stroke-width="0" stroke="#FF9BCD" d = " M287 169 L291,171 C291,171 287,169 287,169  Z"/>

<path  fill="#C9C9C8" stroke-width="0" stroke="#C9C9C8" d = " M325 191 L325,193 C321.974,193 324.839,205 320.5,205 320.226,205 309.977,186 309,186 309,186 309,185 309,185 309,185 307,175 307,175 307,175 307,171 307,171 308.297,171 313.125,171.187 313.5,171 314.497,170.501 314.242,167.871 316.5,169 323.079,172.29 326,179.609 326,187 324.421,187 325,189.855 325,191  Z"/>

<path  fill="#FF9BCD" stroke-width="0" stroke="#FF9BCD" d = " M167 170 L166,171 C166,171 167,170 167,170  Z"/>

<path  fill="#FF9BCD" stroke-width="0" stroke="#FF9BCD" d = " M165 171 L164,172 C164,172 165,171 165,171  Z"/>

<path  fill="#FF9B88" stroke-width="0" stroke="#FF9B88" d = " M176 172 L178,172 C178,172 176,171 176,171 176,171 176,172 176,172  Z"/>

<path  fill="#FF9B88" stroke-width="0" stroke="#FF9B88" d = " M278 172 L281,172 C281,172 281,171 281,171 279.952,171 278,170.527 278,172  Z"/>

<path  fill="#FF9BCD" stroke-width="0" stroke="#FF9BCD" d = " M292 171 L293,172 C293,172 292,171 292,171  Z"/>

<path  fill="#FF9BCD" stroke-width="0" stroke="#FF9BCD" d = " M163 172 L162,173 C162,173 163,172 163,172  Z"/>

<path  fill="#FF9BCD" stroke-width="0" stroke="#FF9BCD" d = " M178 172 L176,173 C176,173 176,172 176,172 176,172 178,172 178,172  Z"/>

<path  fill="#FFB0D7" stroke-width="0" stroke="#FFB0D7" d = " M168 209 L171,209 C171,206.13 182.349,209 183.5,209 189.191,209 195.188,203 199,203 199,203 200,202 200,202 200,202 205,200 205,200 205,200 207,199 207,199 207,199 207,193 207,193 207,193 203,183 203,183 203,183 202,182 202,182 202,182 199,178 199,178 197.038,178 184,173.326 184,172 184,172 178,172 178,172 178,172 176,173 176,173 176,173 175,174 175,174 175,175.313 167.233,184 165,184 165,184 164,186 164,186 164,193.178 157,199.034 157,206 159.243,206 163.611,209 168,209  Z"/>

<path  fill="#FFB0D7" stroke-width="0" stroke="#FFB0D7" d = " M285 209 L288,209 C290.916,209 299,209.467 299,205 299,198.428 293,193.914 293,187 293,187 290,183 290,183 290,183 281,174 281,174 281,174 278,172 278,172 278,172 272,172 272,172 272,174.052 261.02,177 259,177 259,177 258,178 258,178 258,178 257,179 257,179 257,179 256,180 256,180 256,180 255,181 255,181 255,181 250,191 250,191 250,191 249,192 249,192 249,192 249,194 249,194 249,194 249,198 249,198 249,198 251,200 251,200 252.402,200 257,201.11 257,203 260.624,203 267.282,209 274,209 274,207.366 285,207.366 285,209  Z"/>

<path  fill="#FF9BCD" stroke-width="0" stroke="#FF9BCD" d = " M281 172 L281,174 C281,174 278,172 278,172 278,172 281,172 281,172  Z"/>

<path  fill="#FF9BCD" stroke-width="0" stroke="#FF9BCD" d = " M154 182 C148.592,182 148.813,184 148,184 148,184 149,175 149,175 151.709,175 153.646,173 157,173 157,173 159,173 159,173 159,173 153,177.5 153,177.5 153,177.5 154,182 154,182  Z"/>

<path  fill="#FF9BCD" stroke-width="0" stroke="#FF9BCD" d = " M176 173 L175,174 C175,174 176,173 176,173  Z"/>

<path  fill="#FF9BCD" stroke-width="0" stroke="#FF9BCD" d = " M303 181 C306.233,181 307.452,185 309,185 309,185 307,175 307,175 304.662,175 302.138,173 299,173 299,173 297,173 297,173 297,173.091 303,174.693 303,181  Z"/>

<path  fill="#FF9B88" stroke-width="0" stroke="#FF9B88" d = " M259 177 L258,178 C258,178 259,177 259,177  Z"/>

<path  fill="#FF9B88" stroke-width="0" stroke="#FF9B88" d = " M258 178 L257,179 C257,179 258,178 258,178  Z"/>

<path  fill="#FF9B88" stroke-width="0" stroke="#FF9B88" d = " M257 179 L256,180 C256,180 257,179 257,179  Z"/>

<path  fill="#FF9B88" stroke-width="0" stroke="#FF9B88" d = " M256 180 L255,181 C255,181 256,180 256,180  Z"/>

<path  fill="#FEB3D7" stroke-width="0" stroke="#FEB3D7" d = " M154 205 L157,206 C157,199.034 164,193.178 164,186 164,186 162,185 162,185 159.533,185 154,187.186 154,182 148.592,182 148.813,184 148,184 148,184 147,186 147,186 147,186 147,187 147,187 147,187 146,188 146,188 146,191.492 146,195.709 146,199 150.048,199 154,200.491 154,205  Z"/>

<path  fill="#FFB984" stroke-width="0" stroke="#FFB984" d = " M215 181 L213,185.5 C213,188.276 217.991,190.255 220.5,189 225.619,186.441 221.22,181 215,181  Z"/>

<path  fill="#FFB984" stroke-width="0" stroke="#FFB984" d = " M236 181 L234,186.5 C238.167,194.833 251.6,181 236,181  Z"/>

<path  fill="#FEB3D7" stroke-width="0" stroke="#FEB3D7" d = " M299 205 C300.333,205 300.667,205 302,205 302,205 303,204 303,204 303,200.179 306.858,199 310,199 310,197.209 313.27,196.041 312,193.5 312,193.5 309,186 309,186 309,186 309,185 309,185 307.452,185 306.233,181 303,181 303,186.759 296.812,185 294,185 294,185 293,187 293,187 293,193.914 299,198.428 299,205  Z"/>

<path  fill="#FF9B88" stroke-width="0" stroke="#FF9B88" d = " M202 182 L203,183 C203,183 202,182 202,182  Z"/>

<path  fill="#FF9BCD" stroke-width="0" stroke="#FF9BCD" d = " M294 185 L293,187 C293,187 290,183 290,183 290,183 294,185 294,185  Z"/>

<path  fill="#FF9BCD" stroke-width="0" stroke="#FF9BCD" d = " M148 184 L147,186 C147,186 148,184 148,184  Z"/>

<path  fill="#FF9BCD" stroke-width="0" stroke="#FF9BCD" d = " M162 185 L164,186 C164,186 165,184 165,184 165,184 162,185 162,185  Z"/>

<path  fill="#FF9BCD" stroke-width="0" stroke="#FF9BCD" d = " M325 205 C322.211,205 323,212.892 323,215 318.761,215 316.848,199 310,199 310,197.209 313.27,196.041 312,193.5 312,193.5 309,186 309,186 309.977,186 320.226,205 320.5,205 324.839,205 321.974,193 325,193 325,193 325,205 325,205  Z"/>

<path  fill="#F0F080" stroke-width="0" stroke="#F0F080" d = " M130 190 L131,190 C131,190 131,187 131,187 129.527,187 130,188.952 130,190  Z"/>

<path  fill="#FF9BCD" stroke-width="0" stroke="#FF9BCD" d = " M147 187 L146,188 C146,188 147,187 147,187  Z"/>

<path  fill="#F0F080" stroke-width="0" stroke="#F0F080" d = " M327 190 L325,191 C325,189.855 324.421,187 326,187 326,187 327,190 327,190  Z"/>

<path  fill="#FEF991" stroke-width="0" stroke="#FEF991" d = " M103 234 C103,240.422 94.4002,240 91,240 91,237.36 76.0479,224.404 81,214.5 83.5055,209.489 106.095,197.703 111.5,195 115.924,192.788 116.524,188 122,188 122,190.7 121,192.762 121,196 121,196 120,197 120,197 120,197 119,199 119,199 119,199 114,205 114,205 114,205 113,207 113,207 111.253,207 111,207.253 111,209 109.253,209 109,209.253 109,211 107.253,211 107,211.253 107,213 101.487,213 103,220.663 103,223 103,223 104,225 104,225 104,225 104,229 104,229 104,229 104,233 104,233 104,233 103,234 103,234  Z"/>

<path  fill="#FF9BCD" stroke-width="0" stroke="#FF9BCD" d = " M132 204 C132,207.338 133,210.163 133,215 138.411,215 139.381,199 146,199 146,195.709 146,191.492 146,188 145.318,188 137.204,205 135.5,205 132.212,205 133.924,195 132,195 132,195 132,204 132,204  Z"/>

<path  fill="#FEF991" stroke-width="0" stroke="#FEF991" d = " M353 233 C353,239.718 361.173,240 365,240 365,238.479 380.261,224.022 376,215.5 374.354,212.209 367.454,209.409 367,208.5 365.954,206.408 347.182,195.841 343.5,194 343.5,194 336.5,188 336.5,188 336.5,188 334,189 334,189 334,189 336,197 336,197 336,197 342,204 342,204 342,204 343,205 343,205 343,205 343,206 343,206 343,206 355,218.5 355,218.5 355.601,219.702 353.982,223 353,223 353,223 352,231 352,231 352,231 353,233 353,233  Z"/>

<path  fill="#FEA5D1" stroke-width="0" stroke="#FEA5D1" d = " M132 204 C125.612,204 120.875,223 115,223 113.316,223 114,218.321 114,217 114,209.94 119,204.165 119,199 119,199 121,197 121,197 121,197 121,196 121,196 123.137,196 124.453,190 130,190 130,190 131,190 131,190 131,190 131,191 131,191 131,191 132,193 132,193 132,193 132,195 132,195 132,195 132,204 132,204  Z"/>

<path  fill="#FEA5D1" stroke-width="0" stroke="#FEA5D1" d = " M325 205 C333.749,205 334.129,224 342,224 342,218.733 343.224,210.948 341,206.5 339.593,203.686 336,200.239 336,197 334.573,197 332.459,190 327,190 327,190 325,191 325,191 325,191 325,193 325,193 325,193 325,205 325,205  Z"/>

<path  fill="#FF9BCD" stroke-width="0" stroke="#FF9BCD" d = " M131 191 L132,193 C132,193 131,191 131,191  Z"/>

<path  fill="#FF9B88" stroke-width="0" stroke="#FF9B88" d = " M250 191 L249,192 C249,192 250,191 250,191  Z"/>

<path  fill="#FF9B88" stroke-width="0" stroke="#FF9B88" d = " M213 205 L215,205 C215,204.627 210.737,201.973 210,200.5 209.3,199.099 208.961,193 207,193 207,193 207,199 207,199 207,199 207,201 207,201 207,201 210,204 210,204 210,204 211,205 211,205 211,205 212,205 212,205 212,205 213,205 213,205  Z"/>

<path  fill="#FFB986" stroke-width="0" stroke="#FFB986" d = " M213 193 L212,197.5 C217.632,208.763 231.186,193 213,193  Z"/>

<path  fill="#FFB986" stroke-width="0" stroke="#FFB986" d = " M239 193 L234,197.5 C230.724,204.052 242.268,199.232 244,197.5 245.622,195.878 245.21,193 242.5,193 L239,193  Z"/>

<path  fill="#FF9B88" stroke-width="0" stroke="#FF9B88" d = " M245 204 L246,204 C247.658,204 249,202.539 249,201 249,201 249,198 249,198 249,198 249,194 249,194 247.741,194 245,202.632 245,204  Z"/>

<path  fill="#CBC9CC" stroke-width="0" stroke="#CBC9CC" d = " M120 197 L121,197 C121,197 121,196 121,196 121,196 120,197 120,197  Z"/>

<path  fill="#FF9B88" stroke-width="0" stroke="#FF9B88" d = " M227 196 L226,197 C226,197 227,196 227,196  Z"/>

<path  fill="#A9AAA7" stroke-width="0" stroke="#A9AAA7" d = " M121 197 L119,199 C119,199 120,197 120,197 120,197 121,197 121,197  Z"/>

<path  fill="#A9AAA7" stroke-width="0" stroke="#A9AAA7" d = " M342 224 L344,226 C344,224.476 341.115,209 344,209 344,209 343,206 343,206 343,206 343,205 343,205 343,205 342,204 342,204 342,204 336,197 336,197 336,200.239 339.593,203.686 341,206.5 343.224,210.948 342,218.733 342,224  Z"/>

<path  fill="#FF9B88" stroke-width="0" stroke="#FF9B88" d = " M230 198 L231,199 C231,199 230,198 230,198  Z"/>

<path  fill="#FF9BCD" stroke-width="0" stroke="#FF9BCD" d = " M251 200 L249,201 C249,201 249,198 249,198 249,198 251,200 251,200  Z"/>

<path  fill="#A9AAA7" stroke-width="0" stroke="#A9AAA7" d = " M115 223 L113,225 C113,225 113,209 113,209 113,209 113,207 113,207 113,207 114,205 114,205 114,205 119,199 119,199 119,204.165 114,209.94 114,217 114,218.321 113.316,223 115,223  Z"/>

<path  fill="#C9CACB" stroke-width="0" stroke="#C9CACB" d = " M133 235 L133,239 C131.005,239 131,234.623 131,233 131,233 131,224 131,224 131,224 132,223 132,223 132,223 132,220 132,220 132,220 133,218 133,218 133,218 133,215 133,215 138.411,215 139.381,199 146,199 150.048,199 154,200.491 154,205 154,209.864 151.64,211 147,211 138.266,211 134,226.809 134,234 134,234 133,235 133,235  Z"/>

<path  fill="#FF9BCD" stroke-width="0" stroke="#FF9BCD" d = " M205 200 L207,201 C207,201 207,199 207,199 207,199 205,200 205,200  Z"/>

<path  fill="#FF9B88" stroke-width="0" stroke="#FF9B88" d = " M226 203 C226,205.293 225.003,205 223,205 223,205 226,199 226,199 226,199 226,203 226,203  Z"/>

<path  fill="#C9CACB" stroke-width="0" stroke="#C9CACB" d = " M326 237 L324,238 C322.357,238 323,234.235 323,233 323,233 322,232 322,232 322,225.008 317.445,211 309,211 305.386,211 302,208.878 302,205 302,205 303,204 303,204 303,200.179 306.858,199 310,199 316.848,199 318.761,215 323,215 323,215 323,216 323,216 323,216 324,218 324,218 324,218 324,220 324,220 324,220 325,221 325,221 325,221 325,230 325,230 325,230 326,231 326,231 326,231 326,237 326,237  Z"/>

<path  fill="#C9CCC7" stroke-width="0" stroke="#C9CCC7" d = " M212 206 L205,209 C201.414,209 199,206.586 199,203 199,203 200,202 200,202 200,202 205,200 205,200 205,200 207,201 207,201 207,201 210,204 210,204 210,204 211,205 211,205 211,205 212,205 212,205 212,205 212,206 212,206  Z"/>

<path  fill="#C9CCC7" stroke-width="0" stroke="#C9CCC7" d = " M244 205 L245,205 C245,205 246,204 246,204 247.658,204 249,202.539 249,201 249,201 251,200 251,200 252.402,200 257,201.11 257,203 257,207.472 255.472,209 251,209 249.428,209 244,206.948 244,205  Z"/>

<path  fill="#FF9BCD" stroke-width="0" stroke="#FF9BCD" d = " M200 202 L199,203 C199,203 200,202 200,202  Z"/>

<path  fill="#FF9B88" stroke-width="0" stroke="#FF9B88" d = " M230 203 C230,204.577 231.762,205 233,205 233,205 231,202 231,202 231,202 230,203 230,203  Z"/>

<path  fill="#FF9BCD" stroke-width="0" stroke="#FF9BCD" d = " M211 214 C211,214.11 200.834,217 200,217 196.123,217 191.873,214 187,214 187,207.272 175.593,209 171,209 171,206.13 182.349,209 183.5,209 189.191,209 195.188,203 199,203 199,206.586 201.414,209 205,209 205,212.742 207.488,214 211,214  Z"/>

<path  fill="#FF9BCD" stroke-width="0" stroke="#FF9BCD" d = " M227 216 C228.333,216 228.667,216 230,216 230,216 230,208.5 230,208.5 230.589,207.321 234.184,205.868 235,207.5 235.417,208.335 232,213.076 232,215 233.477,215 237.699,213 241,213 241,210.913 238,208.607 238,206 236.855,206 234,206.579 234,205 234,205 233,205 233,205 231.762,205 230,204.577 230,203 228.625,203 227.375,203 226,203 226,205.293 225.003,205 223,205 223,205 222,205 222,205 222,206.579 219.145,206 218,206 218,206 216,213 216,213 219.301,213 223.523,215 225,215 225,212.868 220.706,208.087 221,207.5 222.125,205.251 226.35,208.2 227,209.5 227,209.5 227,216 227,216  Z"/>

<path  fill="#FF9BCD" stroke-width="0" stroke="#FF9BCD" d = " M269 214 C266.647,214 257,214.316 257,217 256.105,217 246,214.162 246,214 249.14,214 251,212.1 251,209 255.472,209 257,207.472 257,203 260.624,203 267.282,209 274,209 274,210.872 269,210.926 269,214  Z"/>

<path  fill="#FEA4D2" stroke-width="0" stroke="#FEA4D2" d = " M121 255 L121,257 C122.742,257 127.14,262.22 129,258.5 131.441,253.617 130,244.762 130,239 130,237.679 129.316,233 131,233 131,233 131,224 131,224 131,224 132,223 132,223 132,223 132,220 132,220 132,220 133,218 133,218 133,218 133,215 133,215 133,210.163 132,207.338 132,204 125.612,204 120.875,223 115,223 115,223 113,225 113,225 113,225 113,226 113,226 113,226 112,227 112,227 112,227 111,228 111,228 111,228 111,231 111,231 111,231 111,232 111,232 111,232 111,234 111,234 111,239.597 119,244.825 119,251 119,251 120,253 120,253 120,253 120,254 120,254 120,254 121,255 121,255  Z"/>

<path  fill="#FF9BCD" stroke-width="0" stroke="#FF9BCD" d = " M210 204 L211,205 C211,205 210,204 210,204  Z"/>

<path  fill="#FF9B88" stroke-width="0" stroke="#FF9B88" d = " M244 205 L245,205 C245,205 245,204 245,204 243.855,204 241,203.421 241,205 241,205 244,205 244,205  Z"/>

<path  fill="#FF9BCD" stroke-width="0" stroke="#FF9BCD" d = " M246 204 L245,205 C245,205 245,204 245,204 245,204 246,204 246,204  Z"/>

<path  fill="#FF9BCD" stroke-width="0" stroke="#FF9BCD" d = " M303 204 L302,205 C302,205 303,204 303,204  Z"/>

<path  fill="#CBC9CC" stroke-width="0" stroke="#CBC9CC" d = " M342 204 L343,205 C343,205 342,204 342,204  Z"/>

<path  fill="#CBC9CC" stroke-width="0" stroke="#CBC9CC" d = " M114 205 L113,207 C113,207 114,205 114,205  Z"/>

<path  fill="#FF9BCD" stroke-width="0" stroke="#FF9BCD" d = " M165 213 C165,207.325 154.433,211.033 152.5,212 148.747,213.876 147.502,218.496 146,221.5 145.477,222.546 146.951,225 145,225 145,219.634 147,216.237 147,211 151.64,211 154,209.864 154,205 154,205 157,206 157,206 159.243,206 163.611,209 168,209 168,209 165,213 165,213  Z"/>

<path  fill="#FF9BCD" stroke-width="0" stroke="#FF9BCD" d = " M213 205 L212,206 C212,206 212,205 212,205 212,205 213,205 213,205  Z"/>

<path  fill="#FDB1D9" stroke-width="0" stroke="#FDB1D9" d = " M211 214 L214,214 C214,214 215,213 215,213 215,213 216,213 216,213 216,213 218,206 218,206 218,206 218,205 218,205 218,205 215,205 215,205 215,205 213,205 213,205 213,205 212,206 212,206 212,206 205,209 205,209 205,212.742 207.488,214 211,214  Z"/>

<path  fill="#FF9B88" stroke-width="0" stroke="#FF9B88" d = " M222 205 C222,206.579 219.145,206 218,206 218,206 218,205 218,205 218,205 222,205 222,205  Z"/>

<path  fill="#FF9B88" stroke-width="0" stroke="#FF9B88" d = " M239 205 L238,206 C236.855,206 234,206.579 234,205 234,205 239,205 239,205  Z"/>

<path  fill="#FDB1D9" stroke-width="0" stroke="#FDB1D9" d = " M241 213 L246,214 C249.14,214 251,212.1 251,209 249.428,209 244,206.948 244,205 244,205 241,205 241,205 241,205 239,205 239,205 239,205 238,206 238,206 238,208.607 241,210.913 241,213  Z"/>

<path  fill="#FF9BCD" stroke-width="0" stroke="#FF9BCD" d = " M291 213 C293.433,213 296.436,207.968 302.5,211 L309,217.5 C309.559,218.619 309.155,222 311,222 311,222 309,211 309,211 305.386,211 302,208.878 302,205 300.667,205 300.333,205 299,205 299,209.467 290.916,209 288,209 288,209 291,213 291,213  Z"/>

<path  fill="#FEA4D2" stroke-width="0" stroke="#FEA4D2" d = " M336 255 L335,257 C335,257 330.5,260 330.5,260 325.746,260 326,241.275 326,237 326,237 326,231 326,231 326,231 325,230 325,230 325,230 325,221 325,221 325,221 324,220 324,220 324,220 324,218 324,218 324,218 323,216 323,216 323,216 323,215 323,215 323,212.892 322.211,205 325,205 333.749,205 334.129,224 342,224 342,224 344,226 344,226 344,226 346,231 346,231 346,231 346,233 346,233 346,233 345,234 345,234 345,234 343,239 343,239 343,239 342,240 342,240 342,244.371 337,247.954 337,253 337,253 336,254 336,254 336,254 336,255 336,255  Z"/>

<path  fill="#CBC9CC" stroke-width="0" stroke="#CBC9CC" d = " M352 218 L353,223 C353.982,223 355.601,219.702 355,218.5 355,218.5 343,206 343,206 343,206 344,209 344,209 344,209 345,210 345,210 345,210 346,211 346,211 346,211 351,217 351,217 351,217 352,218 352,218  Z"/>

<path  fill="#CBC9CC" stroke-width="0" stroke="#CBC9CC" d = " M112 209 L113,209 C113,209 113,207 113,207 111.253,207 111,207.253 111,209 111,209 112,209 112,209  Z"/>

<path  fill="#CBCBCC" stroke-width="0" stroke="#CBCBCC" d = " M225 215 C225,217.581 227,219.471 227,216 227,216 227,209.5 227,209.5 226.35,208.2 222.125,205.251 221,207.5 220.706,208.087 225,212.868 225,215  Z"/>

<path  fill="#CBCBCC" stroke-width="0" stroke="#CBCBCC" d = " M230 216 C230,219.246 231,219.246 231,216 231,216 232,215 232,215 232,213.076 235.417,208.335 235,207.5 234.184,205.868 230.589,207.321 230,208.5 230,208.5 230,216 230,216  Z"/>

<path  fill="#FF9BCD" stroke-width="0" stroke="#FF9BCD" d = " M274 209 L285,209 C285,207.366 274,207.366 274,209  Z"/>

<path  fill="#CBC9CC" stroke-width="0" stroke="#CBC9CC" d = " M109 211 L110,211 C110,211 111,210 111,210 111,210 111,209 111,209 109.253,209 109,209.253 109,211  Z"/>

<path  fill="#A9AAA7" stroke-width="0" stroke="#A9AAA7" d = " M112 209 L111,210 C111,210 111,209 111,209 111,209 112,209 112,209  Z"/>

<path  fill="#A9AAA8" stroke-width="0" stroke="#A9AAA8" d = " M104 229 L106.5,232 L111,231 C111,231 111,228 111,228 111,228 112,227 112,227 112,227 113,226 113,226 113,226 113,225 113,225 113,225 113,209 113,209 113,209 112,209 112,209 112,209 111,210 111,210 111,210 110,211 110,211 110,211 109,211 109,211 109,211 108,213 108,213 108,213 107,214 107,214 107,214 105,218 105,218 105,218 104,219 104,219 104,219 104,223 104,223 104,223 104,225 104,225 104,225 104,229 104,229  Z"/>

<path  fill="#FCB3D9" stroke-width="0" stroke="#FCB3D9" d = " M154 262 L156,262 C158.701,262 160.454,256 165,256 165,256 173,248.5 173,248.5 176.255,241.99 187,220.465 187,214 187,207.272 175.593,209 171,209 171,209 168,209 168,209 168,209 165,213 165,213 165,213 165,225.5 165,225.5 165,225.5 156,239.5 156,239.5 155.748,240.005 153,260.197 153,261 153,261 154,262 154,262  Z"/>

<path  fill="#FCB3D9" stroke-width="0" stroke="#FCB3D9" d = " M301 262 L303,262 C303,262 303,261 303,261 303,259.617 300.452,239.403 300,238.5 294.36,227.22 291,228.36 291,213 291,213 288,209 288,209 288,209 285,209 285,209 285,209 274,209 274,209 274,210.872 269,210.926 269,214 269,219.184 280.165,241.829 283,247.5 283,247.5 292,256 292,256 296.55,256 297.634,262 300,262 300,262 301,262 301,262  Z"/>

<path  fill="#A9AAA8" stroke-width="0" stroke="#A9AAA8" d = " M346 231 C347.631,231 350.369,231 352,231 352,231 353,223 353,223 353,223 352,218 352,218 352,218 351,217 351,217 351,217 346,211 346,211 346,211 345,210 345,210 345,210 344,209 344,209 341.115,209 344,224.476 344,226 344,226 346,231 346,231  Z"/>

<path  fill="#A9AAA7" stroke-width="0" stroke="#A9AAA7" d = " M111 210 L110,211 C110,211 111,210 111,210  Z"/>

<path  fill="#FFA4D0" stroke-width="0" stroke="#FFA4D0" d = " M145 225 C145,234.852 131.728,255.614 146.5,263 149.356,264.428 151.053,261 153,261 153,260.197 155.748,240.005 156,239.5 156,239.5 165,225.5 165,225.5 165,225.5 165,213 165,213 165,207.325 154.433,211.033 152.5,212 148.747,213.876 147.502,218.496 146,221.5 145.477,222.546 146.951,225 145,225  Z"/>

<path  fill="#FFA4D0" stroke-width="0" stroke="#FFA4D0" d = " M303 261 C304.947,261 306.644,264.428 309.5,263 311.119,262.191 310.971,261 313,261 313,259.253 313.253,259 315,259 315,259 315,258 315,258 315,254.38 318.946,249.393 317,245.5 314.185,239.871 311,229.449 311,223 311,223 311,222 311,222 309.155,222 309.559,218.619 309,217.5 309,217.5 302.5,211 302.5,211 296.436,207.968 293.433,213 291,213 291,228.36 294.36,227.22 300,238.5 300.452,239.403 303,259.617 303,261  Z"/>

<path  fill="#A9AAA7" stroke-width="0" stroke="#A9AAA7" d = " M345 210 L346,211 C346,211 345,210 345,210  Z"/>

<path  fill="#CBC9CC" stroke-width="0" stroke="#CBC9CC" d = " M107 213 L108,213 C108,213 109,211 109,211 107.253,211 107,211.253 107,213  Z"/>

<path  fill="#C8CACA" stroke-width="0" stroke="#C8CACA" d = " M151 267 C151,268.321 151.684,273 150,273 137.316,273 132,263.805 132,251 132,251 131,246.5 131,246.5 131.946,244.608 133,241.128 133,239 133,239 133,235 133,235 133,235 134,234 134,234 134,226.809 138.266,211 147,211 147,216.237 145,219.634 145,225 142.601,225 141.868,233.764 141,235.5 135.809,245.883 137.482,259.491 148.5,265 148.5,265 151,267 151,267  Z"/>

<path  fill="#C8CACA" stroke-width="0" stroke="#C8CACA" d = " M314 273 L307,274 C307,272.183 306,270.051 306,267 306,263.536 313,264.753 313,261 313,261 315,259 315,259 315,259 315,258 315,258 317.54,258 318,251.157 318,249 318,241.618 316.475,235.45 313,228.5 312.443,227.386 312.59,223 311,223 311,223 311,222 311,222 311,222 309,211 309,211 317.445,211 322,225.008 322,232 322,232 323,233 323,233 323,234.235 322.357,238 324,238 324,244.305 327.058,253.383 324,259.5 322.587,262.326 317,267.968 317,271 315.762,271 314,271.423 314,273  Z"/>

<path  fill="#CBC9CC" stroke-width="0" stroke="#CBC9CC" d = " M103 223 L104,223 C104,223 104,219 104,219 104,219 105,218 105,218 105,218 107,214 107,214 107,214 107,213 107,213 101.487,213 103,220.663 103,223  Z"/>

<path  fill="#A9AAA7" stroke-width="0" stroke="#A9AAA7" d = " M108 213 L107,214 C107,214 107,213 107,213 107,213 108,213 108,213  Z"/>

<path  fill="#FF9BCD" stroke-width="0" stroke="#FF9BCD" d = " M215 213 L214,214 C214,214 215,213 215,213  Z"/>

<path  fill-rule="evenodd" fill="#FEB0D8" stroke-width="0" stroke="#FEB0D8" d = " M232 227 C232,229.522 230,231.909 230,235 L230,241.5 C230,243.367 231.551,253.398 234,248.5 235.59,245.321 234.367,227 232,227  M223 226 C223,231.408 222,238.421 222,244.5 222,245.548 222.256,250 223.5,250 227.676,250 228.011,226 223,226  M253 272 L254,272 C254,266.233 260.537,271 262,271 262,271 265,265 265,265 265,260.513 262.927,254.354 261,250.5 259.56,247.62 257,221.965 257,217 256.105,217 246,214.162 246,214 246,214 241,213 241,213 237.699,213 233.477,215 232,215 232,215 231,216 231,216 231,219.246 230,219.246 230,216 228.667,216 228.333,216 227,216 227,219.471 225,217.581 225,215 223.523,215 219.301,213 216,213 216,213 215,213 215,213 215,213 214,214 214,214 214,214 211,214 211,214 211,214.11 200.834,217 200,217 200,233.696 192,251.006 192,266 192,267.974 194,269.517 194,272 195.018,272 202,265.531 202,272 202,272 203,272 203,272 203,264.394 220.921,261 225,261 225,261 226,261 226,261 226,246.909 231,251.172 231,262 231,262 234.5,260 234.5,260 237.861,261.681 253,266.173 253,272  Z"/>

<path  fill="#FFB2D8" stroke-width="0" stroke="#FFB2D8" d = " M165 256 C171.577,256 178.987,257.244 184.5,260 L192,266 C192,251.006 200,233.696 200,217 196.123,217 191.873,214 187,214 187,220.465 176.255,241.99 173,248.5 173,248.5 165,256 165,256  Z"/>

<path  fill="#FFB2D8" stroke-width="0" stroke="#FFB2D8" d = " M292 256 C286.446,256 278.231,256.635 273.5,259 270.563,260.469 267.717,265 265,265 265,260.513 262.927,254.354 261,250.5 259.56,247.62 257,221.965 257,217 257,214.316 266.647,214 269,214 269,219.184 280.165,241.829 283,247.5 283,247.5 292,256 292,256  Z"/>

<path  fill="#FF9BCD" stroke-width="0" stroke="#FF9BCD" d = " M232 215 L231,216 C231,216 232,215 232,215  Z"/>

<path  fill="#FF9BCD" stroke-width="0" stroke="#FF9BCD" d = " M323 216 L324,218 C324,218 323,216 323,216  Z"/>

<path  fill="#A9AAA7" stroke-width="0" stroke="#A9AAA7" d = " M351 217 L352,218 C352,218 351,217 351,217  Z"/>

<path  fill="#A9AAA7" stroke-width="0" stroke="#A9AAA7" d = " M105 218 L104,219 C104,219 105,218 105,218  Z"/>

<path  fill="#FF9BCD" stroke-width="0" stroke="#FF9BCD" d = " M133 218 L132,220 C132,220 133,218 133,218  Z"/>

<path  fill="#FF9BCD" stroke-width="0" stroke="#FF9BCD" d = " M324 220 L325,221 C325,221 324,220 324,220  Z"/>

<path  fill="#A9AAA7" stroke-width="0" stroke="#A9AAA7" d = " M104 223 L104,225 C104,225 103,223 103,223 103,223 104,223 104,223  Z"/>

<path  fill="#FF9BCD" stroke-width="0" stroke="#FF9BCD" d = " M132 223 L131,224 C131,224 132,223 132,223  Z"/>

<path  fill="#FF9BCD" stroke-width="0" stroke="#FF9BCD" d = " M311 223 C312.59,223 312.443,227.386 313,228.5 316.475,235.45 318,241.618 318,249 318,251.157 317.54,258 315,258 315,254.38 318.946,249.393 317,245.5 314.185,239.871 311,229.449 311,223  Z"/>

<path  fill="#FF9BCD" stroke-width="0" stroke="#FF9BCD" d = " M154 262 L151,267 C151,267 148.5,265 148.5,265 137.482,259.491 135.809,245.883 141,235.5 141.868,233.764 142.601,225 145,225 145,234.852 131.728,255.614 146.5,263 149.356,264.428 151.053,261 153,261 153,261 154,262 154,262  Z"/>

<path  fill="#A9AAA7" stroke-width="0" stroke="#A9AAA7" d = " M113 226 L112,227 C112,227 113,226 113,226  Z"/>

<path  fill="#C8C8CC" stroke-width="0" stroke="#C8C8CC" d = " M223 226 C223,231.408 222,238.421 222,244.5 222,245.548 222.256,250 223.5,250 227.676,250 228.011,226 223,226  Z"/>

<path  fill="#A9AAA7" stroke-width="0" stroke="#A9AAA7" d = " M112 227 L111,228 C111,228 112,227 112,227  Z"/>

<path  fill="#C8C8CC" stroke-width="0" stroke="#C8C8CC" d = " M232 227 C232,229.522 230,231.909 230,235 L230,241.5 C230,243.367 231.551,253.398 234,248.5 235.59,245.321 234.367,227 232,227  Z"/>

<path  fill="#A9AAA7" stroke-width="0" stroke="#A9AAA7" d = " M104 233 L110,233 C110,233 111,232 111,232 111,232 111,231 111,231 111,231 106.5,232 106.5,232 106.5,232 104,229 104,229 104,229 104,233 104,233  Z"/>

<path  fill="#FF9BCD" stroke-width="0" stroke="#FF9BCD" d = " M325 230 L326,231 C326,231 325,230 325,230  Z"/>

<path  fill="#A9AAA7" stroke-width="0" stroke="#A9AAA7" d = " M346 233 L353,233 C353,233 352,231 352,231 350.369,231 347.631,231 346,231 346,231 346,233 346,233  Z"/>

<path  fill="#FF9BCD" stroke-width="0" stroke="#FF9BCD" d = " M110 233 L111,234 C111,234 111,232 111,232 111,232 110,233 110,233  Z"/>

<path  fill="#FF9BCD" stroke-width="0" stroke="#FF9BCD" d = " M322 232 L323,233 C323,233 322,232 322,232  Z"/>

<path  fill="#F0F080" stroke-width="0" stroke="#F0F080" d = " M104 233 L103,234 C103,234 104,233 104,233  Z"/>

<path  fill="#FF9BCD" stroke-width="0" stroke="#FF9BCD" d = " M151 276 C151,280.008 156,280.412 156,283 152.783,283 150.473,277.987 148.5,277 144.035,274.768 121,260.366 121,257 122.742,257 127.14,262.22 129,258.5 131.441,253.617 130,244.762 130,239 130,237.679 129.316,233 131,233 131,234.623 131.005,239 133,239 133,241.128 131.946,244.608 131,246.5 131,246.5 132,251 132,251 132,263.805 137.316,273 150,273 150,273 151,276 151,276  Z"/>

<path  fill="#FF9BCD" stroke-width="0" stroke="#FF9BCD" d = " M346 233 L345,234 C345,234 346,233 346,233  Z"/>

<path  fill="#FF9BCD" stroke-width="0" stroke="#FF9BCD" d = " M134 234 L133,235 C133,235 134,234 134,234  Z"/>

<path  fill="#FF9BCD" stroke-width="0" stroke="#FF9BCD" d = " M335 257 C335,259.299 319.638,271 317,271 317,267.968 322.587,262.326 324,259.5 327.058,253.383 324,244.305 324,238 324,238 326,237 326,237 326,241.275 325.746,260 330.5,260 330.5,260 335,257 335,257  Z"/>

<path  fill="#FF9BCD" stroke-width="0" stroke="#FF9BCD" d = " M343 239 L342,240 C342,240 343,239 343,239  Z"/>

<path  fill="#FF9BCD" stroke-width="0" stroke="#FF9BCD" d = " M119 251 L120,253 C120,253 119,251 119,251  Z"/>

<path  fill="#FFC5E2" stroke-width="0" stroke="#FFC5E2" d = " M227 279 L230,279 C230,279 230,275 230,275 230,273.343 229.237,265 231,265 231,265 231,262 231,262 231,251.172 226,246.909 226,261 226,261 226,275 226,275 226,275 226,278 226,278 226,278 227,279 227,279  Z"/>

<path  fill="#FF9BCD" stroke-width="0" stroke="#FF9BCD" d = " M337 253 L336,254 C336,254 337,253 337,253  Z"/>

<path  fill="#FF9BCD" stroke-width="0" stroke="#FF9BCD" d = " M120 254 L121,255 C121,255 120,254 120,254  Z"/>

<path  fill="#FF9BCD" stroke-width="0" stroke="#FF9BCD" d = " M336 255 L335,257 C335,257 336,255 336,255  Z"/>

<path  fill="#FFB3D6" stroke-width="0" stroke="#FFB3D6" d = " M171 286 C178.497,286 184.163,287 191,287 191,287 194,280 194,280 194,280 194,279 194,279 194,279 194,272 194,272 194,269.517 192,267.974 192,266 192,266 184.5,260 184.5,260 178.987,257.244 171.577,256 165,256 160.454,256 158.701,262 156,262 156,262 156,263 156,263 156,263 155,264 155,264 155,264 154,268 154,268 154,268 153,269 153,269 153,273.657 153.654,278.577 158.5,281 159.975,281.737 166,282.705 166,285 166,285 167,285 167,285 167,285 169,286 169,286 169,286 171,286 171,286  Z"/>

<path  fill="#FFB3D6" stroke-width="0" stroke="#FFB3D6" d = " M285 286 L288,286 C288,286 289,285 289,285 289,285 290,285 290,285 290,285 301,278.5 301,278.5 304.913,270.675 301,269.776 301,263 301,263 300,262 300,262 297.634,262 296.55,256 292,256 286.446,256 278.231,256.635 273.5,259 270.563,260.469 267.717,265 265,265 265,265 262,271 262,271 262,273.477 262,276.661 262,279 262,279 262,280 262,280 262,280 265,286 265,286 267.203,286 269.569,289.465 272.5,288 276.363,286.069 280.296,286 285,286  Z"/>

<path  fill="#FF9BCD" stroke-width="0" stroke="#FF9BCD" d = " M315 259 C313.253,259 313,259.253 313,261 313,261 315,259 315,259  Z"/>

<path  fill="#FDB2D9" stroke-width="0" stroke="#FDB2D9" d = " M201 277 C201,279.567 203,280.913 203,282 209.589,282 215.194,275 221,275 221,275 222,274 222,274 222,274 225,270.5 225,270.5 225,270.5 225,261 225,261 220.921,261 203,264.394 203,272 203,272 202,273 202,273 202,273 202,274 202,274 202,274 201,275 201,275 201,275 201,276 201,276 201,276 201,277 201,277  Z"/>

<path  fill="#FDB2D9" stroke-width="0" stroke="#FDB2D9" d = " M255 278 C255,279.048 255.473,281 254,281 245.7,281 231,276.167 231,265 231,265 231,262 231,262 231,262 234.5,260 234.5,260 237.861,261.681 253,266.173 253,272 253,272 255,274 255,274 255,274 255,275 255,275 255,275 255,278 255,278  Z"/>

<path  fill="#FF9BCD" stroke-width="0" stroke="#FF9BCD" d = " M222 274 L226,275 C226,275 226,261 226,261 226,261 225,261 225,261 225,261 225,270.5 225,270.5 225,270.5 222,274 222,274  Z"/>

<path  fill="#FF9BCD" stroke-width="0" stroke="#FF9BCD" d = " M303 262 L306,267 C306,263.536 313,264.753 313,261 310.971,261 311.119,262.191 309.5,263 306.644,264.428 304.947,261 303,261 303,261 303,262 303,262  Z"/>

<path  fill="#C8C8CB" stroke-width="0" stroke="#C8C8CB" d = " M151 276 C153.304,276 159.373,285 166,285 166,282.705 159.975,281.737 158.5,281 153.654,278.577 153,273.657 153,269 153,269 154,268 154,268 154,268 155,264 155,264 155,264 156,263 156,263 156,263 156,262 156,262 156,262 154,262 154,262 154,262 151,267 151,267 151,268.321 151.684,273 150,273 150,273 151,276 151,276  Z"/>

<path  fill="#FF9BCD" stroke-width="0" stroke="#FF9BCD" d = " M301 262 L301,263 C301,263 300,262 300,262 300,262 301,262 301,262  Z"/>

<path  fill="#C8C8CB" stroke-width="0" stroke="#C8C8CB" d = " M290 285 L295,285 C295,285 303,278 303,278 303,278 304,277 304,277 304,277 307,274 307,274 307,272.183 306,270.051 306,267 306,267 303,262 303,262 303,262 301,262 301,262 301,262 301,263 301,263 301,269.776 304.913,270.675 301,278.5 301,278.5 290,285 290,285  Z"/>

<path  fill="#FF9BCD" stroke-width="0" stroke="#FF9BCD" d = " M156 263 L155,264 C155,264 156,263 156,263  Z"/>

<path  fill="#FF9BCD" stroke-width="0" stroke="#FF9BCD" d = " M166 287 C166,288.014 169.959,289 171,289 L187.5,291 C190.956,292.728 214.622,296.939 218.5,295 L224.5,293 L228.5,289 L229.5,291 L234.5,294 C239.803,296.651 252.566,295.467 257.5,293 260.91,291.295 274.399,291.551 279.5,289 280.906,288.297 287,290.261 287,288 287,288 281,287.5 281,287.5 281,286.061 285,288.159 285,286 280.296,286 276.363,286.069 272.5,288 269.569,289.465 267.203,286 265,286 265,290.749 254,287.188 254,281 245.7,281 231,276.167 231,265 229.237,265 230,273.343 230,275 230,275 234.5,274 234.5,274 237.481,275.49 238.457,282 234,282 234,284.064 237.353,282.426 238.5,283 241.558,284.529 249.303,286.106 251,289.5 253.978,295.457 238.135,294.318 235.5,293 235.5,293 230,286 230,286 230,288.56 226.666,286 226,286 226,299.501 195.152,293.174 207.5,287 210.19,285.655 213.758,285.371 216.5,284 219.089,282.705 221.872,283 225,283 225,283 225,282 225,282 216.916,282 221,279.506 221,275 215.194,275 209.589,282 203,282 203,288.558 194.357,287 191,287 184.163,287 178.497,286 171,286 171,288.159 175,286.061 175,287.5 175,289.152 166.68,287 166,287  Z"/>

<path  fill="#FF9BCD" stroke-width="0" stroke="#FF9BCD" d = " M154 268 L153,269 C153,269 154,268 154,268  Z"/>

<path  fill="#FCB2D9" stroke-width="0" stroke="#FCB2D9" d = " M194 279 L195,279 C195,279 200,277 200,277 200,277 201,276 201,276 201,276 201,275 201,275 201,275 202,274 202,274 202,274 202,273 202,273 202,273 202,272 202,272 202,265.531 195.018,272 194,272 194,272 194,279 194,279  Z"/>

<path  fill="#FCB2D9" stroke-width="0" stroke="#FCB2D9" d = " M261 279 L262,279 C262,276.661 262,273.477 262,271 260.537,271 254,266.233 254,272 254,272 255,274 255,274 255,274 255,275 255,275 255,275 257,277 257,277 257,277 261,279 261,279  Z"/>

<path  fill="#FF9BCD" stroke-width="0" stroke="#FF9BCD" d = " M317 271 C315.762,271 314,271.423 314,273 315.238,273 317,272.577 317,271  Z"/>

<path  fill="#FF9BCD" stroke-width="0" stroke="#FF9BCD" d = " M203 272 L202,273 C202,273 202,272 202,272 202,272 203,272 203,272  Z"/>

<path  fill="#FF9BCD" stroke-width="0" stroke="#FF9BCD" d = " M254 272 L255,274 C255,274 253,272 253,272 253,272 254,272 254,272  Z"/>

<path  fill="#FF9BCD" stroke-width="0" stroke="#FF9BCD" d = " M304 277 L305,279 C306.44,279 314,274.442 314,273 314,273 307,274 307,274 307,274 304,277 304,277  Z"/>

<path  fill="#FF9BCD" stroke-width="0" stroke="#FF9BCD" d = " M202 274 L201,275 C201,275 202,274 202,274  Z"/>

<path  fill="#FF9BCD" stroke-width="0" stroke="#FF9BCD" d = " M222 274 L221,275 C221,275 222,274 222,274  Z"/>

<path  fill="#CACCC8" stroke-width="0" stroke="#CACCC8" d = " M226 279 C226,281.05 225,280.468 225,282 216.916,282 221,279.506 221,275 221,275 222,274 222,274 222,274 226,275 226,275 226,275 226,278 226,278 226,278 226,279 226,279  Z"/>

<path  fill="#CACCC8" stroke-width="0" stroke="#CACCC8" d = " M233 282 L234,282 C238.457,282 237.481,275.49 234.5,274 234.5,274 230,275 230,275 230,275 230,279 230,279 230,279 231,282 231,282 231,282 233,282 233,282  Z"/>

<path  fill="#FF9BCD" stroke-width="0" stroke="#FF9BCD" d = " M257 277 L255,278 C255,278 255,275 255,275 255,275 257,277 257,277  Z"/>

<path  fill="#CBC7CC" stroke-width="0" stroke="#CBC7CC" d = " M164 287 L166,287 C166.68,287 175,289.152 175,287.5 175,286.061 171,288.159 171,286 171,286 169,286 169,286 169,286 167,285 167,285 167,285 166,285 166,285 159.373,285 153.304,276 151,276 151,280.008 156,280.412 156,283 156,283 157,283 157,283 157,283 159,285 159,285 159,285 160,285 160,285 160,285 164,287 164,287  Z"/>

<path  fill="#FF9BCD" stroke-width="0" stroke="#FF9BCD" d = " M200 277 L201,277 C201,277 201,276 201,276 201,276 200,277 200,277  Z"/>

<path  fill="#FCB2D8" stroke-width="0" stroke="#FCB2D8" d = " M203 282 C203,288.558 194.357,287 191,287 191,287 194,280 194,280 194,280 195,279 195,279 195,279 200,277 200,277 200,277 201,277 201,277 201,279.567 203,280.913 203,282  Z"/>

<path  fill="#FCB2D8" stroke-width="0" stroke="#FCB2D8" d = " M254 281 C254,287.188 265,290.749 265,286 265,286 262,280 262,280 262,280 261,279 261,279 261,279 257,277 257,277 257,277 255,278 255,278 255,279.048 255.473,281 254,281  Z"/>

<path  fill="#FF9BCD" stroke-width="0" stroke="#FF9BCD" d = " M304 277 L303,278 C303,278 304,277 304,277  Z"/>

<path  fill="#CBC7CC" stroke-width="0" stroke="#CBC7CC" d = " M296 285 L297,285 C297,285 299,284 299,284 299,284 300,283 300,283 300,283 301,283 301,283 301,283 302,282 302,282 302,282 303,281 303,281 303,281 304,281 304,281 304,281 305,280 305,280 305,280 305,279 305,279 305,279 304,277 304,277 304,277 303,278 303,278 303,278 295,285 295,285 295,285 296,285 296,285  Z"/>

<path  fill="#FF9BCD" stroke-width="0" stroke="#FF9BCD" d = " M226 279 L227,279 C227,279 226,278 226,278 226,278 226,279 226,279  Z"/>

<path  fill="#FF9BCD" stroke-width="0" stroke="#FF9BCD" d = " M195 279 L194,280 C194,280 194,279 194,279 194,279 195,279 195,279  Z"/>

<path  fill="#FFC6E2" stroke-width="0" stroke="#FFC6E2" d = " M226 286 C226.666,286 230,288.56 230,286 230,286 231,283 231,283 231,283 231,282 231,282 231,282 230,279 230,279 230,279 227,279 227,279 227,279 226,279 226,279 226,281.05 225,280.468 225,282 225,282 225,283 225,283 225,283 226,286 226,286  Z"/>

<path  fill="#FF9BCD" stroke-width="0" stroke="#FF9BCD" d = " M262 279 L262,280 C262,280 261,279 261,279 261,279 262,279 262,279  Z"/>

<path  fill="#FF9BCD" stroke-width="0" stroke="#FF9BCD" d = " M305 280 L304,281 C304,281 305,280 305,280  Z"/>

<path  fill="#FF9BCD" stroke-width="0" stroke="#FF9BCD" d = " M303 281 L302,282 C302,282 303,281 303,281  Z"/>

<path  fill="#FF9BCD" stroke-width="0" stroke="#FF9BCD" d = " M233 282 L231,283 C231,283 231,282 231,282 231,282 233,282 233,282  Z"/>

<path  fill="#C7C9C9" stroke-width="0" stroke="#C7C9C9" d = " M231 283 L230,286 C230,286 235.5,293 235.5,293 238.135,294.318 253.978,295.457 251,289.5 249.303,286.106 241.558,284.529 238.5,283 237.353,282.426 234,284.064 234,282 234,282 233,282 233,282 233,282 231,283 231,283  Z"/>

<path  fill="#FF9BCD" stroke-width="0" stroke="#FF9BCD" d = " M302 282 L301,283 C301,283 302,282 302,282  Z"/>

<path  fill="#FF9BCD" stroke-width="0" stroke="#FF9BCD" d = " M157 283 L159,285 C159,285 157,283 157,283  Z"/>

<path  fill="#C7C9C9" stroke-width="0" stroke="#C7C9C9" d = " M225 283 C221.872,283 219.089,282.705 216.5,284 213.758,285.371 210.19,285.655 207.5,287 195.152,293.174 226,299.501 226,286 226,286 225,283 225,283  Z"/>

<path  fill="#FF9BCD" stroke-width="0" stroke="#FF9BCD" d = " M300 283 L299,284 C299,284 300,283 300,283  Z"/>

<path  fill="#FF9BCD" stroke-width="0" stroke="#FF9BCD" d = " M299 284 L297,285 C297,285 299,284 299,284  Z"/>

<path  fill="#FF9BCD" stroke-width="0" stroke="#FF9BCD" d = " M160 285 L164,287 C164,287 160,285 160,285  Z"/>

<path  fill="#FF9BCD" stroke-width="0" stroke="#FF9BCD" d = " M167 285 L169,286 C169,286 167,285 167,285  Z"/>

<path  fill="#FF9BCD" stroke-width="0" stroke="#FF9BCD" d = " M289 285 L288,286 C288,286 289,285 289,285  Z"/>

<path  fill="#CBC7CC" stroke-width="0" stroke="#CBC7CC" d = " M290 287 L292,287 C292,287 294,286 294,286 294,286 295,286 295,286 295,286 295,285 295,285 295,285 290,285 290,285 290,285 289,285 289,285 289,285 288,286 288,286 288,286 285,286 285,286 285,288.159 281,286.061 281,287.5 281,287.5 287,288 287,288 287,286.527 288.952,287 290,287  Z"/>

<path  fill="#FF9BCD" stroke-width="0" stroke="#FF9BCD" d = " M296 285 L295,286 C295,286 295,285 295,285 295,285 296,285 296,285  Z"/>

<path  fill="#FF9BCD" stroke-width="0" stroke="#FF9BCD" d = " M294 286 L292,287 C292,287 294,286 294,286  Z"/>

<path  fill="#FF9BCD" stroke-width="0" stroke="#FF9BCD" d = " M290 287 C288.952,287 287,286.527 287,288 288.048,288 290,288.473 290,287  Z"/>

</g>
</svg>
