<svg xmlns="http://www.w3.org/2000/svg" xmlns:xlink="http://www.w3.org/1999/xlink"  viewBox="0 0 456 320">
<g>
<rect width="456" height="320" fill="#000000"  stroke-width="0" /> 
<path  fill="#1E9C59" stroke-width="0" stroke="#1E9C59" d = " M219 66 L220,66 C220,66 223,63 223,63 223,58.93 215.204,52.8519 211.5,51 209.651,50.0756 206.98,48.2398 204.5,47 198.867,44.1836 172.921,48.7897 168.5,51 168.5,51 154,57 154,57 154,58.7276 155,60.9913 155,63 159.299,63 163.834,59.8328 167.5,58 177.181,53.1594 208.824,48.1471 215,60.5 215.755,62.0105 219,63.3628 219,66  Z"/>

<path  fill="#1E9C59" stroke-width="0" stroke="#1E9C59" d = " M233 64 L237,66 C237,61.9884 245.533,56.4837 248.5,55 260.194,49.1532 281.219,53.8597 291.5,59 295.028,60.7641 297.735,63 302,63 302,63 302,57 302,57 298.103,57 291.975,52.7375 288.5,51 283.977,48.7387 257.261,44.1194 251.5,47 246.123,49.6885 242.175,52.3248 238,56.5 236.061,58.4389 233,61.277 233,64  Z"/>

<path  fill="#1E9D58" stroke-width="0" stroke="#1E9D58" d = " M213 71 L214,71 C214,71 219,66 219,66 219,63.3628 215.755,62.0105 215,60.5 208.824,48.1471 177.181,53.1594 167.5,58 163.834,59.8328 159.299,63 155,63 155,63 154,64 154,64 154,68.5937 155,74.7407 155,80 167.353,80 186.109,56.3046 201.5,64 205.144,65.8219 213,65.6312 213,71  Z"/>

<path  fill="#1E9D58" stroke-width="0" stroke="#1E9D58" d = " M243 70 C244.722,70 257.524,59.0119 265.5,63 269.098,64.7991 300.147,80 301,80 301,73.6235 302,68.1508 302,63 297.735,63 295.028,60.7641 291.5,59 281.219,53.8597 260.194,49.1532 248.5,55 245.533,56.4837 237,61.9884 237,66 237,66 237,67 237,67 237,67 243,70 243,70  Z"/>

<path  fill="#1E9D5A" stroke-width="0" stroke="#1E9D5A" d = " M94 99 L95,106 C95,106 105.5,94 105.5,94 109.214,92.143 112.491,86.5044 115.5,85 125.264,80.1179 143.63,64 154,64 154,64 155,63 155,63 155,60.9913 154,58.7276 154,57 154,57 142.5,63 142.5,63 134.572,66.9638 110.787,78.9261 107,86.5 104.88,90.7406 94,93.286 94,99  Z"/>

<path  fill="#1E9D5A" stroke-width="0" stroke="#1E9D5A" d = " M361 107 L362,107 C362,104.472 362.426,99 363,99 363,99 349.5,86 349.5,86 339.886,76.3859 326.284,69.3919 313.5,63 310.176,61.3378 305.813,57 302,57 302,57 302,63 302,63 306.516,63 312.49,68.9949 316.5,71 328.247,76.8733 339.367,82.8673 349,92.5 352.238,95.7382 361,103.429 361,107  Z"/>

<path  fill="#1F9C58" stroke-width="0" stroke="#1F9C58" d = " M155 63 L154,64 C154,64 155,63 155,63  Z"/>

<path  fill="#1F9D58" stroke-width="0" stroke="#1F9D58" d = " M197 87 L189.5,86 C184.433,88.5335 158.635,102 155,102 155,102 155,81 155,81 155,81 155,80 155,80 167.353,80 186.109,56.3046 201.5,64 205.144,65.8219 213,65.6312 213,71 209.125,71 198.411,87 197,87  Z"/>

<path  fill="#3EA665" stroke-width="0" stroke="#3EA665" d = " M222 99 L234,99 C234,94.5248 230.824,67 237,67 237,67 237,66 237,66 237,66 233,64 233,64 230.63,64 229.275,71 228.5,71 227.007,71 225.683,63 223,63 223,63 220,66 220,66 220,66 223,72.5 223,72.5 225.365,77.2304 222,93.9297 222,99  Z"/>

<path  fill="#1F9D58" stroke-width="0" stroke="#1F9D58" d = " M259 87 L266.5,86 C272.939,89.2194 295.006,101 301,101 301,95.0143 301,87.6991 301,81 301,81 301,80 301,80 300.147,80 269.098,64.7991 265.5,63 257.524,59.0119 244.722,70 243,70 243,70 243,71 243,71 244.688,71 259,85.3117 259,87  Z"/>

<path  fill-rule="evenodd" fill="#1F9C58" stroke-width="0" stroke="#1F9C58" d = " M359 113 C359,114.93 360.93,113 359,113  M359 128 C356.152,128 359.299,136 357,136 357,136 354,130.5 354,130.5 346.481,115.462 334.843,99.6716 319.5,92 313.925,89.2125 307.42,81 301,81 301,81 301,80 301,80 301,73.6235 302,68.1508 302,63 306.516,63 312.49,68.9949 316.5,71 328.247,76.8733 339.367,82.8673 349,92.5 352.238,95.7382 361,103.429 361,107 361,112.518 359,118.087 359,125 357.814,125 357.814,126 359,126 359,126 359,128 359,128  Z"/>

<path  fill="#1F9C58" stroke-width="0" stroke="#1F9C58" d = " M98 126 C98,131.005 99,132.959 99,137 100.59,137 100.443,132.614 101,131.5 101,131.5 111,115.5 111,115.5 117.008,103.483 132.229,93.1354 144.5,87 147.203,85.6484 152.055,81 155,81 155,81 155,80 155,80 155,74.7407 154,68.5937 154,64 143.63,64 125.264,80.1179 115.5,85 112.491,86.5044 109.214,92.143 105.5,94 105.5,94 95,106 95,106 95,106 95,107 95,107 95,113.296 98,116.95 98,126  Z"/>

<path  fill="#40A565" stroke-width="0" stroke="#40A565" d = " M222 99 L217,100 C217,100 217,77.5 217,77.5 217,77.5 214,71 214,71 214,71 219,66 219,66 219,66 220,66 220,66 220,66 223,72.5 223,72.5 225.365,77.2304 222,93.9297 222,99  Z"/>

<path  fill="#40A565" stroke-width="0" stroke="#40A565" d = " M234 99 L240,100 C240,92.9768 238.001,81.498 241,75.5 241.559,74.3812 241.155,71 243,71 243,71 243,70 243,70 243,70 237,67 237,67 230.824,67 234,94.5248 234,99  Z"/>

<path  fill="#3EA566" stroke-width="0" stroke="#3EA566" d = " M217 100 L201,103 C201,99.7489 201.519,88 197,88 197,88 197,87 197,87 198.411,87 209.125,71 213,71 213,71 214,71 214,71 214,71 217,77.5 217,77.5 217,77.5 217,100 217,100  Z"/>

<path  fill="#3EA566" stroke-width="0" stroke="#3EA566" d = " M240 100 C245.173,100 250.136,103 255,103 255,103 257,89.5 257,89.5 257,89.5 259,88 259,88 259,88 259,87 259,87 259,85.3117 244.688,71 243,71 241.155,71 241.559,74.3812 241,75.5 238.001,81.498 240,92.9768 240,100  Z"/>

<path  fill="#1E9C5A" stroke-width="0" stroke="#1E9C5A" d = " M117 165 C111.842,165 106.581,171 101,171 101,168.307 99.2205,157 98,157 98,155.51 98.7349,149 97,149 97,149 97,146 97,146 97,146 98,145 98,145 98,145 99,140 99,140 99,140 99,137 99,137 100.59,137 100.443,132.614 101,131.5 101,131.5 111,115.5 111,115.5 117.008,103.483 132.229,93.1354 144.5,87 147.203,85.6484 152.055,81 155,81 155,81 155,102 155,102 149.341,102 143.434,109.533 138.5,112 115.945,123.278 117,143.791 117,165  Z"/>

<path  fill="#1E9C5A" stroke-width="0" stroke="#1E9C5A" d = " M340 165 C340,166.402 353.112,171 355,171 355,166.062 358,161.569 358,157 358,157 359,149 359,149 359,149 359,143 359,143 359,143 358,141 358,141 358,141 358,139 358,139 358,139 357,137 357,137 357,137 357,136 357,136 357,136 354,130.5 354,130.5 346.481,115.462 334.843,99.6716 319.5,92 313.925,89.2125 307.42,81 301,81 301,87.6991 301,95.0143 301,101 301,101 301,102 301,102 306.63,102 311.679,108.59 316.5,111 338.818,122.159 340,141.947 340,165  Z"/>

<path  fill="#1D9C5A" stroke-width="0" stroke="#1D9C5A" d = " M165 121 C161.702,121 158.809,128 155,128 155,118.853 155,112.464 155,102 158.635,102 184.433,88.5335 189.5,86 189.5,86 197,87 197,87 197,87 197,88 197,88 194.461,88 184,110.662 184,114 184,114 183,114 183,114 181.765,114 178,113.357 178,115 175.351,115 165,117.866 165,121  Z"/>

<path  fill="#1D9C5A" stroke-width="0" stroke="#1D9C5A" d = " M273 114 C280.652,114 285.253,116.877 291.5,120 L302,129 C302,125.006 300,118.481 300,114.5 300,110.773 301,105.339 301,102 301,102 301,101 301,101 295.006,101 272.939,89.2194 266.5,86 266.5,86 259,87 259,87 259,87 259,88 259,88 261.829,88 273,110.941 273,114  Z"/>

<path  fill="#3FA664" stroke-width="0" stroke="#3FA664" d = " M186 116 L187,116 C187,114.058 199.036,104 201,104 201,104 201,103 201,103 201,99.7489 201.519,88 197,88 194.461,88 184,110.662 184,114 184,114 186,116 186,116  Z"/>

<path  fill="#3FA664" stroke-width="0" stroke="#3FA664" d = " M270 115 L272,115 C272,115 273,114 273,114 273,110.941 261.829,88 259,88 259,88 257,89.5 257,89.5 257,89.5 255,103 255,103 255,103 255,104 255,104 259.228,104 267.404,115 270,115  Z"/>

<path  fill="#187E61" stroke-width="0" stroke="#187E61" d = " M79 161 L75,162 C75,140.647 74.5249,132.45 84,113.5 85.2937,110.913 90.2869,99 94,99 94,99 95,106 95,106 95,106 95,107 95,107 92.6439,107 87.9723,116.555 87,118.5 80.2596,131.981 79,144.545 79,161  Z"/>

<path  fill="#2FA74F" stroke-width="0" stroke="#2FA74F" d = " M218 132 L222,132 C222,132 222,129 222,129 222,129 222,109 222,109 222,109 222,99 222,99 222,99 217,100 217,100 217,110.581 218,122.09 218,132  Z"/>

<path  fill="#40A664" stroke-width="0" stroke="#40A664" d = " M229 151 L233,151 C233,145.085 234,138.245 234,133 234,133 234,132 234,132 234,132 234,99 234,99 234,99 222,99 222,99 222,99 222,109 222,109 223.614,109 223,112.31 223,113.5 223,113.5 223,129 223,129 223,129 223,151 223,151 223,151 224,151 224,151 224,149.814 225,149.814 225,151 225,151 228,151 228,151 228,151 228,149 228,149 228,142.638 229,142.638 229,149 229,149 229,151 229,151  Z"/>

<path  fill="#2FA74F" stroke-width="0" stroke="#2FA74F" d = " M238 132 L239,132 C239,132 240,100 240,100 240,100 234,99 234,99 234,99 234,132 234,132 234,132 238,132 238,132  Z"/>

<path  fill="#187E61" stroke-width="0" stroke="#187E61" d = " M377 161 L381,162 C381.549,162 383.646,149.791 383,148.5 380.837,144.175 383.13,137.759 381,133.5 377.269,126.037 374.773,118.046 371,110.5 370.059,108.618 365.069,99 363,99 362.426,99 362,104.472 362,107 362,107.7 371.872,123.244 373,125.5 378.254,136.009 377,149.385 377,161  Z"/>

<path  fill="#2EA84F" stroke-width="0" stroke="#2EA84F" d = " M218 132 C213.642,132 208.862,135 205,135 205,124.749 201,114.99 201,104 201,104 201,103 201,103 201,103 217,100 217,100 217,110.581 218,122.09 218,132  Z"/>

<path  fill="#2EA84F" stroke-width="0" stroke="#2EA84F" d = " M239 132 C242.862,132 247.51,135 251,135 251,126.474 255,115.761 255,104 255,104 255,103 255,103 250.136,103 245.173,100 240,100 240,100 239,132 239,132  Z"/>

<path  fill="#1F9B5A" stroke-width="0" stroke="#1F9B5A" d = " M141 152 C132.486,152 125.512,165 117,165 117,143.791 115.945,123.278 138.5,112 143.434,109.533 149.341,102 155,102 155,112.464 155,118.853 155,128 155,128 154,130 154,130 154,130 153,131 153,131 153,131 153,132 153,132 148.551,132 141,147.11 141,151 141,151 141,152 141,152  Z"/>

<path  fill="#1F9B5A" stroke-width="0" stroke="#1F9B5A" d = " M339 165 L340,165 C340,141.947 338.818,122.159 316.5,111 311.679,108.59 306.63,102 301,102 301,105.339 300,110.773 300,114.5 300,118.481 302,125.006 302,129 302,129 303,131 303,131 307.265,131 315,147.022 315,151 315,151 315,152 315,152 322.3,152 332.2,165 339,165  Z"/>

<path  fill="#2FA850" stroke-width="0" stroke="#2FA850" d = " M197 137 L198,137 C198,137 205,135 205,135 205,124.749 201,114.99 201,104 199.036,104 187,114.058 187,116 187,118.427 197,130.019 197,137  Z"/>

<path  fill="#2FA850" stroke-width="0" stroke="#2FA850" d = " M251 135 L259,137 C259,134.045 267.014,116 270,116 270,116 270,115 270,115 267.404,115 259.228,104 255,104 255,115.761 251,126.474 251,135  Z"/>

<path  fill="#1A7E64" stroke-width="0" stroke="#1A7E64" d = " M91 158 L79,161 C79,144.545 80.2596,131.981 87,118.5 87.9723,116.555 92.6439,107 95,107 95,113.296 98,116.95 98,126 96.4498,126 95.6359,132.228 95,133.5 91.2842,140.932 91,148.968 91,158  Z"/>

<path  fill="#1A7E64" stroke-width="0" stroke="#1A7E64" d = " M365 158 L377,161 C377,149.385 378.254,136.009 373,125.5 371.872,123.244 362,107.7 362,107 362,107 361,107 361,107 361,112.518 359,118.087 359,125 359,125 359,126 359,126 359,126 359,128 359,128 363.636,128 365,152.518 365,158  Z"/>

<path  fill="#2FA750" stroke-width="0" stroke="#2FA750" d = " M222 129 L223,129 C223,129 223,113.5 223,113.5 223,112.31 223.614,109 222,109 222,109 222,129 222,129  Z"/>

<path  fill="#1A7E64" stroke-width="0" stroke="#1A7E64" d = " M359 113 C359,114.93 360.93,113 359,113  Z"/>

<path  fill="#1E9C58" stroke-width="0" stroke="#1E9C58" d = " M178 115 L183,115 C183,115 183,114 183,114 181.765,114 178,113.357 178,115  Z"/>

<path  fill="#3FA466" stroke-width="0" stroke="#3FA466" d = " M186 116 L186,117 C186,117 183,115 183,115 183,115 183,114 183,114 183,114 184,114 184,114 184,114 186,116 186,116  Z"/>

<path  fill="#3FA466" stroke-width="0" stroke="#3FA466" d = " M272 115 L273,115 C273,115 273,114 273,114 273,114 272,115 272,115  Z"/>

<path  fill="#1E9C58" stroke-width="0" stroke="#1E9C58" d = " M303 131 L304,134 C301.958,134 292.582,120 287,120 287,116.915 275.687,115 273,115 273,115 273,114 273,114 280.652,114 285.253,116.877 291.5,120 291.5,120 302,129 302,129 302,129 303,131 303,131  Z"/>

<path  fill="#1E9C58" stroke-width="0" stroke="#1E9C58" d = " M169 120 L165,121 C165,117.866 175.351,115 178,115 178,115 169,120 169,120  Z"/>

<path  fill="#CACCC7" stroke-width="0" stroke="#CACCC7" d = " M200 150 L199,157 C197.357,157 198,153.235 198,152 198,152 195,139.5 195,139.5 188.623,126.747 190.368,121 173,121 173,121 169,120 169,120 169,120 178,115 178,115 178,115 183,115 183,115 183,115 186,117 186,117 187.825,117 196,134.439 196,137 196,137.922 198.496,145 199,145 199,145 200,150 200,150  Z"/>

<path  fill="#3FA466" stroke-width="0" stroke="#3FA466" d = " M270 116 L270,117 C270,117 272,115 272,115 272,115 270,115 270,115 270,115 270,116 270,116  Z"/>

<path  fill="#CACCC7" stroke-width="0" stroke="#CACCC7" d = " M257 160 L258,160 C258,149.649 263.294,125.603 272.5,121 272.5,121 283,121 283,121 284.145,121 287,121.579 287,120 287,116.915 275.687,115 273,115 273,115 272,115 272,115 272,115 270,117 270,117 270,117 263,128.5 263,128.5 262.301,129.897 261.758,137 260,137 260,138.35 257.96,147 257,147 257,147 257,150 257,150 257,150 257,160 257,160  Z"/>

<path  fill="#2FA84F" stroke-width="0" stroke="#2FA84F" d = " M196 137 L197,137 C197,130.019 187,118.427 187,116 187,116 186,116 186,116 186,116 186,117 186,117 187.825,117 196,134.439 196,137  Z"/>

<path  fill="#2FA84F" stroke-width="0" stroke="#2FA84F" d = " M259 137 L260,137 C261.758,137 262.301,129.897 263,128.5 263,128.5 270,117 270,117 270,117 270,116 270,116 267.014,116 259,134.045 259,137  Z"/>

<path  fill="#C9C9CA" stroke-width="0" stroke="#C9C9CA" d = " M145 169 L147,171 C147,156.131 146.794,149.911 153,137.5 155.135,133.23 173,122.377 173,121 173,121 169,120 169,120 169,120 165,121 165,121 165,122.767 155.192,133 153,133 153,136.526 144,142.587 144,150 144,155.972 145,161.193 145,167 145,167 145,169 145,169  Z"/>

<path  fill="#C9C9CA" stroke-width="0" stroke="#C9C9CA" d = " M311 170 L310,171 C310,160.108 309.813,149.127 305,139.5 301.752,133.005 293.029,129.529 288.5,125 288.5,125 283,121 283,121 284.145,121 287,121.579 287,120 292.582,120 301.958,134 304,134 304,136.159 313,144.865 313,150 313,155.789 312,161.78 312,167 310.527,167 311,168.952 311,170  Z"/>

<path  fill="#1E9C58" stroke-width="0" stroke="#1E9C58" d = " M153 132 L153,133 C155.192,133 165,122.767 165,121 161.702,121 158.809,128 155,128 155,128 154,130 154,130 154,130 153,131 153,131 153,131 153,132 153,132  Z"/>

<path  fill="#CAC7CC" stroke-width="0" stroke="#CAC7CC" d = " M153 169 C150.517,169 148.974,171 147,171 147,156.131 146.794,149.911 153,137.5 155.135,133.23 173,122.377 173,121 190.368,121 188.623,126.747 195,139.5 195,139.5 198,152 198,152 198,153.235 197.357,157 199,157 199,157 199,161 199,161 196.514,161 195.275,162 193,162 193,146.495 159.175,133.15 151,149.5 147.388,156.723 153,162.729 153,169  Z"/>

<path  fill="#CAC7CC" stroke-width="0" stroke="#CAC7CC" d = " M303 169 C306.066,169 307.417,171 310,171 310,160.108 309.813,149.127 305,139.5 301.752,133.005 293.029,129.529 288.5,125 288.5,125 283,121 283,121 283,121 272.5,121 272.5,121 263.294,125.603 258,149.649 258,160 258,161.803 261.592,163 263,163 263,147.449 286.846,138.673 299.5,145 301.25,145.875 303.875,146.25 305,148.5 310.272,159.043 303,161.608 303,169  Z"/>

<path  fill="#1B7F62" stroke-width="0" stroke="#1B7F62" d = " M359 125 C357.814,125 357.814,126 359,126 359,126 359,125 359,125  Z"/>

<path  fill="#1B7F62" stroke-width="0" stroke="#1B7F62" d = " M96 157 L91,158 C91,148.968 91.2842,140.932 95,133.5 95.6359,132.228 96.4498,126 98,126 98,131.005 99,132.959 99,137 97.5139,137 97.5139,140 99,140 99,140 98,145 98,145 98,145 97,146 97,146 97,146 97,149 97,149 97,149 96,157 96,157  Z"/>

<path  fill="#1B7F62" stroke-width="0" stroke="#1B7F62" d = " M361 157 L365,158 C365,152.518 363.636,128 359,128 356.152,128 359.299,136 357,136 357,136 357,137 357,137 357,137 358,139 358,139 358,139 358,141 358,141 358,141 359,143 359,143 359,143 359,149 359,149 359.816,149 361,156.019 361,157  Z"/>

<path  fill="#3FA566" stroke-width="0" stroke="#3FA566" d = " M222 151 L223,151 C223,151 223,129 223,129 223,129 222,129 222,129 222,129 222,132 222,132 222,133.738 221.314,138 219,138 219,138 219,139 219,139 219,139 219,149 219,149 219,149 219,150 219,150 220.658,150 222,147.618 222,151  Z"/>

<path  fill="#1D9D5A" stroke-width="0" stroke="#1D9D5A" d = " M154 130 L153,131 C153,131 154,130 154,130  Z"/>

<path  fill="#1D9D5A" stroke-width="0" stroke="#1D9D5A" d = " M313 150 L315,151 C315,147.022 307.265,131 303,131 303,131 304,134 304,134 304,136.159 313,144.865 313,150  Z"/>

<path  fill="#1D9D5A" stroke-width="0" stroke="#1D9D5A" d = " M144 150 L141,151 C141,147.11 148.551,132 153,132 153,132 153,133 153,133 153,136.526 144,142.587 144,150  Z"/>

<path  fill="#59B262" stroke-width="0" stroke="#59B262" d = " M219 150 L219,151 C219,151 211,150 211,150 211,145.125 205,140.153 205,135 208.862,135 213.642,132 218,132 218,132 219,138 219,138 219,138 219,139 219,139 218.277,139 203.663,149 219,149 219,149 219,150 219,150  Z"/>

<path  fill="#59B362" stroke-width="0" stroke="#59B362" d = " M222 132 C222,133.738 221.314,138 219,138 219,138 218,132 218,132 218,132 222,132 222,132  Z"/>

<path  fill="#59B362" stroke-width="0" stroke="#59B362" d = " M234 133 C235.368,133 235.536,139 238,139 238,139 238,132 238,132 238,132 234,132 234,132 234,132 234,133 234,133  Z"/>

<path  fill="#59B262" stroke-width="0" stroke="#59B262" d = " M238 140 C239.156,140 246,146.229 246,147 247.977,147 251,137.008 251,135 247.51,135 242.862,132 239,132 239,132 238,132 238,132 238,132 238,139 238,139 238,139 238,140 238,140  Z"/>

<path  fill="#3FA566" stroke-width="0" stroke="#3FA566" d = " M233 151 L234,151 C234,148.319 236.078,150 237,150 237,150 237,149 237,149 237,145.987 238,142.389 238,140 238,140 238,139 238,139 235.536,139 235.368,133 234,133 234,138.245 233,145.085 233,151  Z"/>

<path  fill="#58B362" stroke-width="0" stroke="#58B362" d = " M200 150 L211,150 C211,145.125 205,140.153 205,135 205,135 198,137 198,137 198,137 199,145 199,145 199,145 200,150 200,150  Z"/>

<path  fill="#58B362" stroke-width="0" stroke="#58B362" d = " M245 150 L257,150 C257,150 257,147 257,147 257,143.298 259,139.73 259,137 259,137 251,135 251,135 251,137.008 247.977,147 246,147 246,147 245,150 245,150  Z"/>

<path  fill="#1F9C58" stroke-width="0" stroke="#1F9C58" d = " M99 137 C97.5139,137 97.5139,140 99,140 99,140 99,137 99,137  Z"/>

<path  fill="#58B263" stroke-width="0" stroke="#58B263" d = " M198 137 L199,145 C198.496,145 196,137.922 196,137 196,137 197,137 197,137 197,137 198,137 198,137  Z"/>

<path  fill="#58B263" stroke-width="0" stroke="#58B263" d = " M260 137 C260,138.35 257.96,147 257,147 257,143.298 259,139.73 259,137 259,137 260,137 260,137  Z"/>

<path  fill="#1F9C58" stroke-width="0" stroke="#1F9C58" d = " M357 137 L358,139 C358,139 357,137 357,137  Z"/>

<path  fill="#3EA666" stroke-width="0" stroke="#3EA666" d = " M219 139 C218.277,139 203.663,149 219,149 219,149 219,139 219,139  Z"/>

<path  fill="#3EA666" stroke-width="0" stroke="#3EA666" d = " M246 147 C242.703,147 241.661,149 237,149 237,145.987 238,142.389 238,140 239.156,140 246,146.229 246,147  Z"/>

<path  fill="#1F9C58" stroke-width="0" stroke="#1F9C58" d = " M358 141 L359,143 C359,143 358,141 358,141  Z"/>

<path  fill="#98D5F9" stroke-width="0" stroke="#98D5F9" d = " M159 192 L165.5,195 L172,194 C178.22,194 190.137,187 191,187 191,187 192,186 192,186 192,186 195,180 195,180 195,174.031 193,167.637 193,162 193,146.495 159.175,133.15 151,149.5 147.388,156.723 153,162.729 153,169 158.975,169 158,183.093 158,186 158,188.124 159,190.436 159,192  Z"/>

<path  fill="#98D5F9" stroke-width="0" stroke="#98D5F9" d = " M298 191 C297.573,191 292.81,194.345 291.5,195 L285,194 C281.417,194 265,189.82 265,186 265,183.913 262,181.607 262,179 262,179 263,163 263,163 263,147.449 286.846,138.673 299.5,145 301.25,145.875 303.875,146.25 305,148.5 310.272,159.043 303,161.608 303,169 303,169 299,173.5 299,173.5 297.317,176.867 298,182.047 298,185 298,187.72 298,188.553 298,191  Z"/>

<path  fill="#1B7E63" stroke-width="0" stroke="#1B7E63" d = " M98 145 L97,146 C97,146 98,145 98,145  Z"/>

<path  fill="#59B262" stroke-width="0" stroke="#59B262" d = " M245 150 L237,151 C237,151 237,150 237,150 237,150 237,149 237,149 241.661,149 242.703,147 246,147 246,147 245,150 245,150  Z"/>

<path  fill="#1B7E63" stroke-width="0" stroke="#1B7E63" d = " M96 157 L98,157 C98,155.51 98.7349,149 97,149 97,149 96,157 96,157  Z"/>

<path  fill="#59B362" stroke-width="0" stroke="#59B362" d = " M219 151 L222,151 C222,147.618 220.658,150 219,150 219,150 219,151 219,151  Z"/>

<path  fill="#99D2BD" stroke-width="0" stroke="#99D2BD" d = " M227 171 C227.839,171 229,172.93 229,171 229,171 229,151 229,151 229,151 229,149 229,149 229,149 228,149 228,149 228,149 228,151 228,151 228,157.642 227,165.002 227,171  Z"/>

<path  fill="#59B362" stroke-width="0" stroke="#59B362" d = " M234 151 L237,151 C237,151 237,150 237,150 236.078,150 234,148.319 234,151  Z"/>

<path  fill="#1B7E63" stroke-width="0" stroke="#1B7E63" d = " M358 157 L361,157 C361,156.019 359.816,149 359,149 359,149 358,157 358,157  Z"/>

<path  fill="#1F9766" stroke-width="0" stroke="#1F9766" d = " M142 169 L143,169 C143,169 145,167 145,167 145,161.193 144,155.972 144,150 144,150 141,151 141,151 141,151 141,152 141,152 141,157.789 142,163.78 142,169  Z"/>

<path  fill="#A3DAA3" stroke-width="0" stroke="#A3DAA3" d = " M227 171 C223.177,171 205,169.433 205,173 200.062,173 200.788,161 199,161 199,161 199,157 199,157 199,157 200,150 200,150 200,150 211,150 211,150 211,150 219,151 219,151 219,151 222,151 222,151 222,151 223,151 223,151 223,151 224,151 224,151 224,151 225,151 225,151 225,151 228,151 228,151 228,157.642 227,165.002 227,171  Z"/>

<path  fill="#59B263" stroke-width="0" stroke="#59B263" d = " M224 151 L225,151 C225,149.814 224,149.814 224,151  Z"/>

<path  fill="#A3DAA3" stroke-width="0" stroke="#A3DAA3" d = " M229 171 L250.5,171 L252,173 C252,171.705 257,165.643 257,160 257,160 257,150 257,150 257,150 245,150 245,150 245,150 237,151 237,151 237,151 234,151 234,151 234,151 233,151 233,151 233,151 229,151 229,151 229,151 229,171 229,171  Z"/>

<path  fill="#1F9766" stroke-width="0" stroke="#1F9766" d = " M312 167 L314,169 C314,163.954 315,157.675 315,152 315,152 315,151 315,151 315,151 313,150 313,150 313,155.789 312,161.78 312,167  Z"/>

<path  fill="#209666" stroke-width="0" stroke="#209666" d = " M131 182 L129,183 C122.435,183 117,170.034 117,165 125.512,165 132.486,152 141,152 141,157.789 142,163.78 142,169 142,169 141,170 141,170 141,163.313 128.919,168.663 127,172.5 124.722,177.056 131,179.793 131,182  Z"/>

<path  fill="#209666" stroke-width="0" stroke="#209666" d = " M325 182 L327,183 C333.84,183 339,170.777 339,165 332.2,165 322.3,152 315,152 315,157.675 314,163.954 314,169 314,169 314,170 314,170 314,170 315,170 315,170 315,170 318.5,167 318.5,167 323.007,164.747 332.285,171.93 330,176.5 330,176.5 325,182 325,182  Z"/>

<path  fill="#009C74" stroke-width="0" stroke="#009C74" d = " M95 174 L93,175 C93,168.735 91,164.056 91,158 91,158 96,157 96,157 96,162.046 95,168.325 95,174  Z"/>

<path  fill="#019C75" stroke-width="0" stroke="#019C75" d = " M101 171 L95,174 C95,168.325 96,162.046 96,157 96,157 98,157 98,157 99.2205,157 101,168.307 101,171  Z"/>

<path  fill="#019C75" stroke-width="0" stroke="#019C75" d = " M355 171 L361,174 C361,174 361,157 361,157 361,157 358,157 358,157 358,161.569 355,166.062 355,171  Z"/>

<path  fill="#009C74" stroke-width="0" stroke="#009C74" d = " M361 174 L363,174 C363,168.652 365,163.88 365,158 365,158 361,157 361,157 361,157 361,174 361,174  Z"/>

<path  fill="#009B75" stroke-width="0" stroke="#009B75" d = " M93 175 C89.3429,175 87.1162,179 83,179 83,179 81,175.5 81,175.5 81,175.5 79,161 79,161 79,161 91,158 91,158 91,164.056 93,168.735 93,175  Z"/>

<path  fill="#009B75" stroke-width="0" stroke="#009B75" d = " M363 174 C363,175.474 372.236,180 374,180 374,173.663 377,167.755 377,161 377,161 365,158 365,158 365,163.88 363,168.652 363,174  Z"/>

<path  fill="#99D2BD" stroke-width="0" stroke="#99D2BD" d = " M256 193 C251.999,193 249.039,197 245,197 245,191.089 252,182.163 252,173 252,171.705 257,165.643 257,160 257,160 258,160 258,160 258,161.803 261.592,163 263,163 263,163 262,179 262,179 261.184,179 260,186.019 260,187 260,187 256,193 256,193  Z"/>

<path  fill="#009C75" stroke-width="0" stroke="#009C75" d = " M83 180 L79,181 C77.0485,181 78.5228,178.546 78,177.5 75.9049,173.31 75,166.952 75,162 75,162 79,161 79,161 79,161 81,175.5 81,175.5 81,175.5 83,179 83,179 83,179 83,180 83,180  Z"/>

<path  fill="#99D2BD" stroke-width="0" stroke="#99D2BD" d = " M200 193 C203.305,193 226,207.875 226,199 226,199 215.5,199 215.5,199 207.371,194.935 205,182.384 205,173 200.062,173 200.788,161 199,161 196.514,161 195.275,162 193,162 193,167.637 195,174.031 195,180 195,180 197,187 197,187 197,187 200,193 200,193  Z"/>

<path  fill="#009C75" stroke-width="0" stroke="#009C75" d = " M374 180 L378,181 C378,174.69 381,169.012 381,162 381,162 377,161 377,161 377,167.755 374,173.663 374,180  Z"/>

<path  fill="#209665" stroke-width="0" stroke="#209665" d = " M129 184 C129,188.689 105.654,197 101,197 97.6162,197 95,177.943 95,174 95,174 101,171 101,171 106.581,171 111.842,165 117,165 117,170.034 122.435,183 129,183 129,183 129,184 129,184  Z"/>

<path  fill="#209665" stroke-width="0" stroke="#209665" d = " M327 184 L336.5,191 C342.233,193.867 348.086,197 355,197 359.537,197 361,178.298 361,174 361,174 355,171 355,171 353.112,171 340,166.402 340,165 340,165 339,165 339,165 339,170.777 333.84,183 327,183 327,183 327,184 327,184  Z"/>

<path  fill="#8ADA86" stroke-width="0" stroke="#8ADA86" d = " M141 170 L151,179.5 C153.038,183.575 144.327,188.913 140.5,187 L131,182 C131,179.793 124.722,177.056 127,172.5 128.919,168.663 141,163.313 141,170  Z"/>

<path  fill="#219665" stroke-width="0" stroke="#219665" d = " M143 169 C143,171.488 145,170.919 145,169 145,169 145,167 145,167 145,167 143,169 143,169  Z"/>

<path  fill="#219665" stroke-width="0" stroke="#219665" d = " M314 170 L313,171 C313,171 311,170 311,170 311,168.952 310.527,167 312,167 312,167 314,169 314,169 314,169 314,170 314,170  Z"/>

<path  fill="#8ADA86" stroke-width="0" stroke="#8ADA86" d = " M306 178 C306,197.241 319.39,182 325,182 325,182 330,176.5 330,176.5 332.285,171.93 323.007,164.747 318.5,167 318.5,167 315,170 315,170 315,170 313,171 313,171 313,172.198 308.702,177 307,177 307,177 306,178 306,178  Z"/>

<path  fill="#1F9866" stroke-width="0" stroke="#1F9866" d = " M151 192 L143,198 C143,191.908 134.887,184 129,184 129,184 129,183 129,183 129,183 131,182 131,182 131,182 140.5,187 140.5,187 144.327,188.913 153.038,183.575 151,179.5 151,179.5 141,170 141,170 141,170 142,169 142,169 142,169 143,169 143,169 143,171.488 145,170.919 145,169 145,169 147,171 147,171 147,175.846 154,179.245 154,184 152.814,184 152.814,185 154,185 154,185 153,190 153,190 153,190 152,191 152,191 152,191 151,192 151,192  Z"/>

<path  fill="#C8CBCC" stroke-width="0" stroke="#C8CBCC" d = " M158 186 L153,190 C153,190 154,185 154,185 154,185 154,184 154,184 154,179.245 147,175.846 147,171 148.974,171 150.517,169 153,169 158.975,169 158,183.093 158,186  Z"/>

<path  fill="#C8CBCC" stroke-width="0" stroke="#C8CBCC" d = " M298 185 L304,191 C304,188.829 300.859,178 306,178 306,178 307,177 307,177 307,177 310,171 310,171 307.417,171 306.066,169 303,169 303,169 299,173.5 299,173.5 297.317,176.867 298,182.047 298,185  Z"/>

<path  fill="#1F9866" stroke-width="0" stroke="#1F9866" d = " M313 171 C313,172.198 308.702,177 307,177 307,177 310,171 310,171 310,171 311,170 311,170 311,170 313,171 313,171  Z"/>

<path  fill="#1F9866" stroke-width="0" stroke="#1F9866" d = " M315 170 L313,171 C313,171 314,170 314,170 314,170 315,170 315,170  Z"/>

<path  fill="#61D09F" stroke-width="0" stroke="#61D09F" d = " M241 199 L242,199 C242,197.423 243.762,197 245,197 245,191.089 252,182.163 252,173 252,173 250.5,171 250.5,171 250.5,171 229,171 229,171 229,172.93 227.839,171 227,171 223.177,171 205,169.433 205,173 205,182.384 207.371,194.935 215.5,199 215.5,199 226,199 226,199 226,199 227,198 227,198 227,198 227,197 227,197 227,194.132 229,191.573 229,196 229,196 229,197 229,197 229,197 230,198 230,198 230,198 231,199 231,199 231,199 241,199 241,199  Z"/>

<path  fill="#209765" stroke-width="0" stroke="#209765" d = " M90 201 L91,201 C91,201 101,198 101,198 101,198 101,197 101,197 97.6162,197 95,177.943 95,174 95,174 93,175 93,175 89.3429,175 87.1162,179 83,179 83,179 83,180 83,180 83,187.552 90,194.058 90,201  Z"/>

<path  fill="#209765" stroke-width="0" stroke="#209765" d = " M365 201 L366,201 C366,195.709 374,186.293 374,180 372.236,180 363,175.474 363,174 363,174 361,174 361,174 361,178.298 359.537,197 355,197 355,197 355,198 355,198 358.679,198 361.731,201 365,201  Z"/>

<path  fill="#1F9866" stroke-width="0" stroke="#1F9866" d = " M307 177 L306,178 C306,178 307,177 307,177  Z"/>

<path  fill="#1F9866" stroke-width="0" stroke="#1F9866" d = " M304 191 L314,199 C314,192.747 320.278,184 327,184 327,184 327,183 327,183 327,183 325,182 325,182 319.39,182 306,197.241 306,178 300.859,178 304,188.829 304,191  Z"/>

<path  fill="#97D6F9" stroke-width="0" stroke="#97D6F9" d = " M265 186 L260,187 C260,186.019 261.184,179 262,179 262,181.607 265,183.913 265,186  Z"/>

<path  fill="#209764" stroke-width="0" stroke="#209764" d = " M90 201 L87,203 C87,200.136 79,188.102 79,181 79,181 83,180 83,180 83,187.552 90,194.058 90,201  Z"/>

<path  fill="#97D6F9" stroke-width="0" stroke="#97D6F9" d = " M192 186 L197,187 C197,187 195,180 195,180 195,180 192,186 192,186  Z"/>

<path  fill="#209764" stroke-width="0" stroke="#209764" d = " M366 201 L369,203 C370.642,203 378,183.905 378,181 378,181 374,180 374,180 374,186.293 366,195.709 366,201  Z"/>

<path  fill="#1F9865" stroke-width="0" stroke="#1F9865" d = " M131 207 C128.167,207 126.16,209 124,209 124,203.706 110.489,204.494 107.5,203 107.5,203 101,198 101,198 101,198 101,197 101,197 105.654,197 129,188.689 129,184 134.887,184 143,191.908 143,198 143,198 143,199 143,199 143,199 142,200 142,200 142,200 141,201 141,201 141,201 139,203 139,203 139,203 131,207 131,207  Z"/>

<path  fill="#24895D" stroke-width="0" stroke="#24895D" d = " M154 184 C152.814,184 152.814,185 154,185 154,185 154,184 154,184  Z"/>

<path  fill="#1F9865" stroke-width="0" stroke="#1F9865" d = " M326 207 L333,209 C333,203.928 346.911,203.795 350.5,202 350.5,202 355,198 355,198 355,198 355,197 355,197 348.086,197 342.233,193.867 336.5,191 336.5,191 327,184 327,184 320.278,184 314,192.747 314,199 314,199 314,200 314,200 314,200 316,201 316,201 316,201 320.5,205 320.5,205 321.614,205.557 326,205.41 326,207  Z"/>

<path  fill="#99D2BD" stroke-width="0" stroke="#99D2BD" d = " M304 250 L308,251 C308,251 304.5,248 304.5,248 304.5,248 298,239.5 298,239.5 294.433,232.365 307,229.36 307,225 302.115,225 299.926,229.713 294.5,227 294.5,227 293,223.5 293,223.5 296.06,217.38 299.02,211.46 302,205.5 303.066,203.368 300.552,200.474 303.5,199 308.035,196.733 310.205,200 314,200 314,200 314,199 314,199 314,199 304,191 304,191 304,191 298,185 298,185 298,187.72 298,188.553 298,191 298,194.276 301.661,212 297,212 297,214.977 293.952,220 290.5,220 290.5,220 289,218 289,218 289,218 289,221 289,221 291.232,221 293,240.94 293,245 293,245 304,250 304,250  Z"/>

<path  fill="#99D2BD" stroke-width="0" stroke="#99D2BD" d = " M150 250 L153,250 C156.63,250 158.974,246 163,246 163,239.294 163.248,234.004 166,228.5 166,228.5 166.5,221 166.5,221 166.5,221 169,222 169,222 169,222 167,219 167,219 165.158,219 160,217.604 160,214 158.235,214 159.459,212.419 159,211.5 155.351,204.202 159,198.998 159,192 159,190.436 158,188.124 158,186 158,186 153,190 153,190 153,190 152,191 152,191 152,191 151,192 151,192 151,192 143,198 143,198 143,198 143,199 143,199 146.695,199 148.887,197.193 152.5,199 157.073,201.287 153.371,205.242 155,208.5 157.403,213.307 160.545,217.591 163,222.5 163.937,224.375 162.121,227.19 160.5,228 155.472,230.514 150.163,223 146,223 146,223.009 156.645,231.79 158,234.5 161.815,242.13 150,244.787 150,250  Z"/>

<path  fill="#97D6F9" stroke-width="0" stroke="#97D6F9" d = " M192 186 L191,187 C191,187 192,186 192,186  Z"/>

<path  fill="#80CDF8" stroke-width="0" stroke="#80CDF8" d = " M214 233 L214,242.5 C207.186,256.128 189.885,264.192 175.5,257 171.921,255.211 168.516,253.016 165.5,250 L163,246 C163,239.294 163.248,234.004 166,228.5 166,228.5 166.5,221 166.5,221 166.5,221 169,222 169,222 169,222 171,223.5 171,223.5 174.295,230.091 182.342,220.184 180,215.5 175.735,206.97 167,209.974 167,219 165.158,219 160,217.604 160,214 160,209.105 160.989,204.521 163,200.5 164.206,198.088 172,195.144 172,194 178.22,194 190.137,187 191,187 191,187 192,186 192,186 192,186 197,187 197,187 197,187 200,193 200,193 200,193 205,200.5 205,200.5 207.525,205.551 214,227.114 214,233  Z"/>

<path  fill="#80CDF8" stroke-width="0" stroke="#80CDF8" d = " M242 233 C242,245.321 248.847,253.673 259.5,259 268.063,263.282 293,254.191 293,245 293,240.94 291.232,221 289,221 286.393,221 284.7,227.6 281.5,226 274.9,222.7 273.656,206.078 285.5,212 287.545,213.022 289,215.189 289,218 289,218 290.5,220 290.5,220 293.952,220 297,214.977 297,212 297,206.896 292.803,201.106 291,197.5 291,197.5 285,194 285,194 281.417,194 265,189.82 265,186 265,186 260,187 260,187 260,187 256,193 256,193 256,196.445 252.432,198.636 251,201.5 248.547,206.405 242,227.547 242,233  Z"/>

<path  fill="#C8CBCC" stroke-width="0" stroke="#C8CBCC" d = " M153 190 L152,191 C152,191 153,190 153,190  Z"/>

<path  fill="#C8CBCC" stroke-width="0" stroke="#C8CBCC" d = " M152 191 L151,192 C151,192 152,191 152,191  Z"/>

<path  fill="#97D6F9" stroke-width="0" stroke="#97D6F9" d = " M285 194 L291,197.5 C292.803,201.106 297,206.896 297,212 301.661,212 298,194.276 298,191 297.573,191 292.81,194.345 291.5,195 291.5,195 285,194 285,194  Z"/>

<path  fill="#97D6F9" stroke-width="0" stroke="#97D6F9" d = " M172 194 C172,195.144 164.206,198.088 163,200.5 160.989,204.521 160,209.105 160,214 158.235,214 159.459,212.419 159,211.5 155.351,204.202 159,198.998 159,192 159,192 165.5,195 165.5,195 165.5,195 172,194 172,194  Z"/>

<path  fill="#97D6F9" stroke-width="0" stroke="#97D6F9" d = " M222 256 C223.665,256 223,251.778 223,250.5 223,248.519 225.656,235 228.5,235 L230,238.5 C232.187,242.874 231.203,249.906 233,253.5 L235,257 C235,253.124 237,250.004 237,247 235.844,247 235.528,244.445 236,243.5 236.905,241.691 239.72,233 242,233 242,227.547 248.547,206.405 251,201.5 252.432,198.636 256,196.445 256,193 251.999,193 249.039,197 245,197 245,198.577 243.238,199 242,199 242,199 241,199 241,199 241,202.218 231,203.655 231,199 231,199 230,198 230,198 230,198 229,197 229,197 229,197 229,196 229,196 229,196 227,197 227,197 227,197 227,198 227,198 227,198 226,199 226,199 226,207.875 203.305,193 200,193 200,193 205,200.5 205,200.5 207.525,205.551 214,227.114 214,233 218.298,233 220,244.031 220,248 220,250.338 222,252.862 222,256  Z"/>

<path  fill="#99D2BD" stroke-width="0" stroke="#99D2BD" d = " M229 196 L227,197 C227,194.132 229,191.573 229,196  Z"/>

<path  fill="#99D2BD" stroke-width="0" stroke="#99D2BD" d = " M229 197 L230,198 C230,198 229,197 229,197  Z"/>

<path  fill="#99D2BD" stroke-width="0" stroke="#99D2BD" d = " M245 197 C243.762,197 242,197.423 242,199 243.238,199 245,198.577 245,197  Z"/>

<path  fill="#219764" stroke-width="0" stroke="#219764" d = " M124 209 L102,215 C102,212.799 91,206.427 91,201 91,201 101,198 101,198 101,198 107.5,203 107.5,203 110.489,204.494 124,203.706 124,209  Z"/>

<path  fill="#A0EE9C" stroke-width="0" stroke="#A0EE9C" d = " M145 223 L146,223 C150.163,223 155.472,230.514 160.5,228 162.121,227.19 163.937,224.375 163,222.5 160.545,217.591 157.403,213.307 155,208.5 153.371,205.242 157.073,201.287 152.5,199 148.887,197.193 146.695,199 143,199 143,199 142,200 142,200 142,200 141,201 141,201 141,201 139,203 139,203 139,206.115 135,208.701 135,213 135,213 135,215 135,215 135,215 139,219 139,219 139,219 140,219 140,219 140,219 142,221 142,221 142,221 143,221 143,221 143,221 145,223 145,223  Z"/>

<path  fill="#99D2BD" stroke-width="0" stroke="#99D2BD" d = " M227 198 L226,199 C226,199 227,198 227,198  Z"/>

<path  fill="#A0EE9C" stroke-width="0" stroke="#A0EE9C" d = " M309 224 L307,225 C302.115,225 299.926,229.713 294.5,227 294.5,227 293,223.5 293,223.5 296.06,217.38 299.02,211.46 302,205.5 303.066,203.368 300.552,200.474 303.5,199 308.035,196.733 310.205,200 314,200 314,200 316,201 316,201 316,204.439 322,207.675 322,212 322,212 322,213 322,213 322,213 321,215 321,215 321,215 320,216 320,216 320,216 319,217 319,217 319,217 318,218 318,218 318,218 317,219 317,219 317,219 316,220 316,220 316,220 314,221 314,221 314,221 313,222 313,222 313,222 312,222 312,222 312,222 311,223 311,223 311,223 310,223 310,223 310,223 309,224 309,224  Z"/>

<path  fill="#219764" stroke-width="0" stroke="#219764" d = " M333 209 C340.169,209 347.629,215 355,215 355,210.173 365,207.183 365,201 361.731,201 358.679,198 355,198 355,198 350.5,202 350.5,202 346.911,203.795 333,203.928 333,209  Z"/>

<path  fill="#99D2BD" stroke-width="0" stroke="#99D2BD" d = " M143 199 L142,200 C142,200 143,199 143,199  Z"/>

<path  fill="#99D2BD" stroke-width="0" stroke="#99D2BD" d = " M231 199 L241,199 C241,202.218 231,203.655 231,199  Z"/>

<path  fill="#99D2BD" stroke-width="0" stroke="#99D2BD" d = " M142 200 L141,201 C141,201 142,200 142,200  Z"/>

<path  fill="#209864" stroke-width="0" stroke="#209864" d = " M102 215 L96,216 C94.3411,216 87,204.822 87,203 87,203 90,201 90,201 90,201 91,201 91,201 91,206.427 102,212.799 102,215  Z"/>

<path  fill="#99D2BD" stroke-width="0" stroke="#99D2BD" d = " M326 207 C323.146,207 323.552,212 322,212 322,207.675 316,204.439 316,201 316,201 320.5,205 320.5,205 321.614,205.557 326,205.41 326,207  Z"/>

<path  fill="#209864" stroke-width="0" stroke="#209864" d = " M355 215 L361,216 C361,211.582 369,207.781 369,203 369,203 366,201 366,201 366,201 365,201 365,201 365,207.183 355,210.173 355,215  Z"/>

<path  fill="#99D2BD" stroke-width="0" stroke="#99D2BD" d = " M131 207 C134.004,207 132.483,213 135,213 135,208.701 139,206.115 139,203 139,203 131,207 131,207  Z"/>

<path  fill="#6ACAB9" stroke-width="0" stroke="#6ACAB9" d = " M139 255 L140,255 C140,255 141,254 141,254 143.722,254 145.53,251 149,251 149,251 150,250 150,250 150,244.787 161.815,242.13 158,234.5 156.645,231.79 146,223.009 146,223 146,223 145,223 145,223 145,223 143,221 143,221 143,221 142,221 142,221 142,221 140,219 140,219 140,219 139,219 139,219 139,219 135,215 135,215 135,215 135,213 135,213 132.483,213 134.004,207 131,207 128.167,207 126.16,209 124,209 124,209 102,215 102,215 102,215 96,216 96,216 96,222.646 102.216,230.716 107,235.5 107,235.5 115,242 115,242 119.037,242 137,249.94 137,254 137,254 139,255 139,255  Z"/>

<path  fill="#6ACAB9" stroke-width="0" stroke="#6ACAB9" d = " M317 255 L319,255 C319,250.717 331.587,244.456 334.5,243 335.615,242.442 341,240.402 341,242 346.426,242 361,221.369 361,216 361,216 355,215 355,215 347.629,215 340.169,209 333,209 333,209 326,207 326,207 323.146,207 323.552,212 322,212 322,212 322,213 322,213 322,213 321,215 321,215 321,215 320,216 320,216 320,216 319,217 319,217 319,217 318,218 318,218 318,218 317,219 317,219 317,219 316,220 316,220 316,220 314,221 314,221 314,221 313,222 313,222 313,222 312,222 312,222 312,222 311,223 311,223 311,223 310,223 310,223 310,223 309,224 309,224 309,224 307,225 307,225 307,229.36 294.433,232.365 298,239.5 298,239.5 304.5,248 304.5,248 304.5,248 308,251 308,251 311.65,251 314.136,255 317,255  Z"/>

<path  fill="#CBCBC7" stroke-width="0" stroke="#CBCBC7" d = " M167 219 L169,222 C169,222 171,223.5 171,223.5 174.295,230.091 182.342,220.184 180,215.5 175.735,206.97 167,209.974 167,219  Z"/>

<path  fill="#CBCBC7" stroke-width="0" stroke="#CBCBC7" d = " M289 218 L289,221 C286.393,221 284.7,227.6 281.5,226 274.9,222.7 273.656,206.078 285.5,212 287.545,213.022 289,215.189 289,218  Z"/>

<path  fill="#99D2BD" stroke-width="0" stroke="#99D2BD" d = " M322 213 L321,215 C321,215 322,213 322,213  Z"/>

<path  fill="#99D2BD" stroke-width="0" stroke="#99D2BD" d = " M135 215 L139,219 C139,219 135,215 135,215  Z"/>

<path  fill="#99D2BD" stroke-width="0" stroke="#99D2BD" d = " M321 215 L320,216 C320,216 321,215 321,215  Z"/>

<path  fill="#99D2BD" stroke-width="0" stroke="#99D2BD" d = " M320 216 L319,217 C319,217 320,216 320,216  Z"/>

<path  fill="#99D2BD" stroke-width="0" stroke="#99D2BD" d = " M319 217 L318,218 C318,218 319,217 319,217  Z"/>

<path  fill="#99D2BD" stroke-width="0" stroke="#99D2BD" d = " M318 218 L317,219 C317,219 318,218 318,218  Z"/>

<path  fill="#99D2BD" stroke-width="0" stroke="#99D2BD" d = " M140 219 L142,221 C142,221 140,219 140,219  Z"/>

<path  fill="#99D2BD" stroke-width="0" stroke="#99D2BD" d = " M317 219 L316,220 C316,220 317,219 317,219  Z"/>

<path  fill="#99D2BD" stroke-width="0" stroke="#99D2BD" d = " M143 221 L145,223 C145,223 143,221 143,221  Z"/>

<path  fill="#99D2BD" stroke-width="0" stroke="#99D2BD" d = " M314 221 L313,222 C313,222 314,221 314,221  Z"/>

<path  fill="#99D2BD" stroke-width="0" stroke="#99D2BD" d = " M312 222 L311,223 C311,223 312,222 312,222  Z"/>

<path  fill="#99D2BD" stroke-width="0" stroke="#99D2BD" d = " M310 223 L309,224 C309,224 310,223 310,223  Z"/>

<path  fill="#99D2BD" stroke-width="0" stroke="#99D2BD" d = " M309 224 L307,225 C307,225 309,224 309,224  Z"/>

<path  fill="#A2B1D7" stroke-width="0" stroke="#A2B1D7" d = " M220 248 L217.5,246 L213,254.5 C211.129,258.241 201.627,262.936 197.5,265 187.577,269.961 170.588,261.044 162.5,257 160.67,256.085 153,252.602 153,250 156.63,250 158.974,246 163,246 163,246 165.5,250 165.5,250 168.516,253.016 171.921,255.211 175.5,257 189.885,264.192 207.186,256.128 214,242.5 214,242.5 214,233 214,233 218.298,233 220,244.031 220,248  Z"/>

<path  fill="#A2B1D7" stroke-width="0" stroke="#A2B1D7" d = " M237 247 L238.5,246 L242,252.5 C247.147,257.647 252.472,261.986 258.5,265 268.372,269.936 285.493,261.004 293.5,257 295.208,256.146 304,251.858 304,250 304,250 293,245 293,245 293,254.191 268.063,263.282 259.5,259 248.847,253.673 242,245.321 242,233 239.72,233 236.905,241.691 236,243.5 235.528,244.445 235.844,247 237,247  Z"/>

<path  fill="#CAC8C7" stroke-width="0" stroke="#CAC8C7" d = " M138 259 L137,260 C134.991,260 115,244.882 115,242 119.037,242 137,249.94 137,254 137,254 138,257 138,257 138,257 138,259 138,259  Z"/>

<path  fill="#CAC8C7" stroke-width="0" stroke="#CAC8C7" d = " M318 259 L319,260 C322.598,260 341,245.234 341,242 341,240.402 335.615,242.442 334.5,243 331.587,244.456 319,250.717 319,255 319,255 318,256 318,256 318,256 318,259 318,259  Z"/>

<path  fill="#7FCCF7" stroke-width="0" stroke="#7FCCF7" d = " M219 265 L218,266 C218,271.862 210.037,276.731 205.5,279 205.5,279 195.5,284 195.5,284 195.5,284 188.5,283 188.5,283 188.5,283 163.5,283 163.5,283 159.607,281.054 156.475,277.987 152.5,276 148.67,274.085 139,267.06 139,262 139,262 139,261 139,261 139,261 138,259 138,259 138,259 138,257 138,257 138,257 139,255 139,255 139,255 140,255 140,255 140,255 141,254 141,254 143.722,254 145.53,251 149,251 149,251 150,250 150,250 150,250 153,250 153,250 153,252.602 160.67,256.085 162.5,257 170.588,261.044 187.577,269.961 197.5,265 201.627,262.936 211.129,258.241 213,254.5 213,254.5 217.5,246 217.5,246 217.5,246 220,248 220,248 220,250.338 222,252.862 222,256 222,256 222,257 222,257 222,257 221,258 221,258 221,258 221,260 221,260 221,260 220,261 220,261 220,261 220,262 220,262 220,262 219,263 219,263 219,263 219,265 219,265  Z"/>

<path  fill="#7FCCF7" stroke-width="0" stroke="#7FCCF7" d = " M238 266 L239,267 C239,272.659 247.469,276.984 251.5,279 254.948,280.724 258.164,282.332 261.5,284 261.5,284 268.5,283 268.5,283 268.5,283 292.5,283 292.5,283 297.045,280.727 300.885,277.308 305.5,275 308.489,273.506 317,266.162 317,263 317,263 317,262 317,262 317,262 318,261 318,261 318,261 318,259 318,259 318,259 318,256 318,256 318,256 317,255 317,255 314.136,255 311.65,251 308,251 308,251 304,250 304,250 304,251.858 295.208,256.146 293.5,257 285.493,261.004 268.372,269.936 258.5,265 252.472,261.986 247.147,257.647 242,252.5 242,252.5 238.5,246 238.5,246 238.5,246 237,247 237,247 237,250.004 235,253.124 235,257 235,257 235,259 235,259 235,259 237,262 237,262 237,262 237,264 237,264 237,264 238,265 238,265 238,265 238,266 238,266  Z"/>

<path  fill="#99D2BD" stroke-width="0" stroke="#99D2BD" d = " M150 250 L149,251 C149,251 150,250 150,250  Z"/>

<path  fill="#99D2BD" stroke-width="0" stroke="#99D2BD" d = " M139 255 L138,257 C138,257 137,254 137,254 137,254 139,255 139,255  Z"/>

<path  fill="#99D2BD" stroke-width="0" stroke="#99D2BD" d = " M141 254 L140,255 C140,255 141,254 141,254  Z"/>

<path  fill="#99D2BD" stroke-width="0" stroke="#99D2BD" d = " M319 255 L318,256 C318,256 317,255 317,255 317,255 319,255 319,255  Z"/>

<path  fill="#97D6F9" stroke-width="0" stroke="#97D6F9" d = " M222 257 L221,258 C221,258 222,257 222,257  Z"/>

<path  fill="#99D2BD" stroke-width="0" stroke="#99D2BD" d = " M139 261 L139,262 C139,262 137,260 137,260 137,260 138,259 138,259 138,259 139,261 139,261  Z"/>

<path  fill="#97D6F9" stroke-width="0" stroke="#97D6F9" d = " M138 259 L139,261 C139,261 138,259 138,259  Z"/>

<path  fill="#97D6F9" stroke-width="0" stroke="#97D6F9" d = " M235 259 L237,262 C235.423,262 235,260.238 235,259  Z"/>

<path  fill="#99D2BD" stroke-width="0" stroke="#99D2BD" d = " M319 260 L318,261 C318,261 318,259 318,259 318,259 319,260 319,260  Z"/>

<path  fill="#97D6F9" stroke-width="0" stroke="#97D6F9" d = " M221 260 L220,261 C220,261 221,260 221,260  Z"/>

<path  fill="#97D6F9" stroke-width="0" stroke="#97D6F9" d = " M317 262 L318,262 C318,262 318,261 318,261 318,261 317,262 317,262  Z"/>

<path  fill="#97D6F9" stroke-width="0" stroke="#97D6F9" d = " M220 262 L219,263 C219,263 220,262 220,262  Z"/>

<path  fill="#99D2BD" stroke-width="0" stroke="#99D2BD" d = " M318 262 L317,263 C317,263 317,262 317,262 317,262 318,262 318,262  Z"/>

<path  fill="#97D6F9" stroke-width="0" stroke="#97D6F9" d = " M237 264 L238,265 C238,265 237,264 237,264  Z"/>

<path  fill="#97D6F9" stroke-width="0" stroke="#97D6F9" d = " M219 265 L218,266 C218,266 219,265 219,265  Z"/>

<path  fill="#97D6F9" stroke-width="0" stroke="#97D6F9" d = " M238 266 L239,267 C239,267 238,266 238,266  Z"/>

</g>
</svg>
