<svg xmlns="http://www.w3.org/2000/svg" xmlns:xlink="http://www.w3.org/1999/xlink"  viewBox="0 0 456 320">
<g>
<rect width="456" height="320" fill="#000000"  stroke-width="0" /> 
<path  fill="#1E9C59" stroke-width="0" stroke="#1E9C59" d = " M225 57 C225,59.0983 223.061,60 221,60 221,56.3211 218.467,56.4337 217,53.5 212.106,43.7111 193.669,42.4154 184.5,47 184.5,47 179.5,47 179.5,47 179.5,47 175,49 175,49 175,49 175,43 175,43 175,43 179.5,41 179.5,41 179.5,41 185.5,41 185.5,41 195.223,36.1387 214.468,39.4367 219,48.5 220.583,51.6667 225,53.1834 225,57  Z"/>

<path  fill="#1E9C59" stroke-width="0" stroke="#1E9C59" d = " M231 57 L235,60 C235,57.031 239.22,52.1402 241.5,51 241.5,51 250.5,45 250.5,45 258.747,40.8766 274.256,49 281,49 281,46.7247 282,45.486 282,43 279.394,43 279.6,42.0501 277.5,41 277.5,41 271.5,41 271.5,41 261.503,36.0017 242.238,39.0235 237,49.5 235.55,52.4005 231,53.4742 231,57  Z"/>

<path  fill="#1E9D5A" stroke-width="0" stroke="#1E9D5A" d = " M119 65 L119,71 C124.528,71 130.742,65.3788 135.5,63 141.833,59.8335 168.805,49 175,49 175,49 175,43 175,43 166.542,43 139.693,54.9033 131.5,59 131.5,59 119,65 119,65  Z"/>

<path  fill="#1E9D5A" stroke-width="0" stroke="#1E9D5A" d = " M337 65 L337,71 C337,71 322.5,64 322.5,64 315.746,60.6232 288.548,49 282,49 282,49 281,49 281,49 281,46.7247 282,45.486 282,43 288.368,43 318.81,55.6552 325.5,59 328.712,60.606 333.362,65 337,65  Z"/>

<path  fill="#1E9D58" stroke-width="0" stroke="#1E9D58" d = " M215 64 C215,49.9577 187.757,58.3713 182.5,61 180.162,62.169 176.595,66 174,66 174,66 175,49 175,49 175,49 179.5,47 179.5,47 179.5,47 184.5,47 184.5,47 193.669,42.4154 212.106,43.7111 217,53.5 218.467,56.4337 221,56.3211 221,60 221,60 215,64 215,64  Z"/>

<path  fill="#1E9D58" stroke-width="0" stroke="#1E9D58" d = " M241 63 C241.892,63 252.99,51.7451 261.5,56 265.021,57.7603 280.16,66 283,66 283,62.8338 282.307,60.1138 281,57.5 280.751,57.0011 282,50.5635 282,49 282,49 281,49 281,49 274.256,49 258.747,40.8766 250.5,45 250.5,45 241.5,51 241.5,51 239.22,52.1402 235,57.031 235,60 235,60 235,61 235,61 237.72,61 238.553,63 241,63  Z"/>

<path  fill="#1F9C58" stroke-width="0" stroke="#1F9C58" d = " M117 96 L118,96 C118,96 130.5,87 130.5,87 140.356,82.0721 150.777,77.8615 160.5,73 164.394,71.0531 168.422,67 173,67 173,67 174,66 174,66 174,66 175,49 175,49 168.805,49 141.833,59.8335 135.5,63 130.742,65.3788 124.528,71 119,71 119,71 119,72 119,72 119,77.6982 117,84.6791 117,89 117,90.4655 118.115,93 117,93 117,93 117,96 117,96  Z"/>

<path  fill="#1F9C58" stroke-width="0" stroke="#1F9C58" d = " M339 94 L339,96 C339,96 322.5,85 322.5,85 315.017,81.2587 289.993,67 283,67 283,67 283,66 283,66 283,62.8338 282.307,60.1138 281,57.5 280.751,57.0011 282,50.5635 282,49 288.548,49 315.746,60.6232 322.5,64 322.5,64 337,71 337,71 337,77.0208 339,81.9608 339,89 339,89 339,94 339,94  Z"/>

<path  fill="#1F9D58" stroke-width="0" stroke="#1F9D58" d = " M200 77 C197.421,77 194.003,73.2484 190.5,75 187.302,76.5991 174.441,85 172,85 172,82.5245 173.9,67 173,67 173,67 174,66 174,66 176.595,66 180.162,62.169 182.5,61 187.757,58.3713 215,49.9577 215,64 215,64 215,65 215,65 209.087,65 202.733,77 200,77  Z"/>

<path  fill="#1F9D58" stroke-width="0" stroke="#1F9D58" d = " M256 77 C259.027,77 262.821,73.1605 266.5,75 269.67,76.5849 281.439,85 284,85 284,78.8716 283,73.2696 283,67 283,67 283,66 283,66 280.16,66 265.021,57.7603 261.5,56 252.99,51.7451 241.892,63 241,63 241,63 241,64 241,64 245.187,64 254.317,77 256,77  Z"/>

<path  fill="#3EA665" stroke-width="0" stroke="#3EA665" d = " M223 89 L234,89 C234,79.7392 235,69.5955 235,61 235,61 235,60 235,60 235,60 231,57 231,57 228.693,57 229.376,61 228.5,61 228.5,61 225,57 225,57 225,59.0983 223.061,60 221,60 221,61.9056 222.099,66.6975 223,68.5 223,68.5 223,89 223,89  Z"/>

<path  fill="#40A565" stroke-width="0" stroke="#40A565" d = " M223 89 C220.876,89 218.564,90 217,90 217,90 217,70.5 217,70.5 217,68.9683 216.827,65 215,65 215,65 215,64 215,64 215,64 221,60 221,60 221,61.9056 222.099,66.6975 223,68.5 223,68.5 223,89 223,89  Z"/>

<path  fill="#40A565" stroke-width="0" stroke="#40A565" d = " M234 89 L239,89 C239,80.3794 241,71.6069 241,64 241,64 241,63 241,63 238.553,63 237.72,61 235,61 235,69.5955 234,79.7392 234,89  Z"/>

<path  fill="#3EA566" stroke-width="0" stroke="#3EA566" d = " M239 90 L253,97 C253,90.6347 256,83.7258 256,78 256,78 256,77 256,77 254.317,77 245.187,64 241,64 241,71.6069 239,80.3794 239,89 239,89 239,90 239,90  Z"/>

<path  fill="#197E64" stroke-width="0" stroke="#197E64" d = " M106 79 L107,79 C107,76.7555 117.011,72 119,72 119,72 119,71 119,71 119,71 119,65 119,65 119,65 103,74 103,74 103,75.054 106,76.931 106,79  Z"/>

<path  fill="#3EA566" stroke-width="0" stroke="#3EA566" d = " M217 90 L203,97 C203,92.1313 202,87.3515 202,83 202,81.9589 201.014,78 200,78 200,78 200,77 200,77 202.733,77 209.087,65 215,65 216.827,65 217,68.9683 217,70.5 217,70.5 217,90 217,90  Z"/>

<path  fill="#197E64" stroke-width="0" stroke="#197E64" d = " M349 79 L350,79 C350,79 353,74 353,74 353,74 349.5,71 349.5,71 346.436,69.468 340.451,65 337,65 337,65 337,71 337,71 338.573,71 349,77.3817 349,79  Z"/>

<path  fill="#1E9C5A" stroke-width="0" stroke="#1E9C5A" d = " M117 97 C117,100.816 119,105.634 119,110 122.7,110 126.286,104.607 129.5,103 134.536,100.482 167.407,86 171,86 171,86 172,85 172,85 172,82.5245 173.9,67 173,67 168.422,67 164.394,71.0531 160.5,73 150.777,77.8615 140.356,82.0721 130.5,87 130.5,87 118,96 118,96 118,96 117,97 117,97  Z"/>

<path  fill="#1E9C5A" stroke-width="0" stroke="#1E9C5A" d = " M339 97 C339,99.0885 338.682,110 337,110 337,110 326.5,103 326.5,103 315.339,97.4195 302.575,94.5373 291.5,89 291.5,89 285,85 285,85 285,85 284,85 284,85 284,78.8716 283,73.2696 283,67 289.993,67 315.017,81.2587 322.5,85 322.5,85 339,96 339,96 339,96 339,97 339,97  Z"/>

<path  fill="#197F61" stroke-width="0" stroke="#197F61" d = " M342 90 L343,90 C343,86.442 349,83.446 349,79 349,77.3817 338.573,71 337,71 337,77.0208 339,81.9608 339,89 340.048,89 342,88.5271 342,90  Z"/>

<path  fill="#197F61" stroke-width="0" stroke="#197F61" d = " M117 89 L114,90 C114,85.7444 107,82.7849 107,79 107,76.7555 117.011,72 119,72 119,77.6982 117,84.6791 117,89  Z"/>

<path  fill="#187E61" stroke-width="0" stroke="#187E61" d = " M62 143 L66,144 C66,128.89 80.1824,102.318 90.5,92 92.6541,89.8459 103.95,79 106,79 106,76.931 103,75.054 103,74 103,74 91.5,83 91.5,83 76.8218,90.3391 62,127.623 62,143  Z"/>

<path  fill="#187E61" stroke-width="0" stroke="#187E61" d = " M395 143 L390,144 C390,131.272 376.01,96.7548 364.5,91 359.523,88.5116 355.592,79 350,79 350,79 353,74 353,74 357.989,74 366.341,83.8408 370,87.5 381.098,98.5978 395,127.648 395,143  Z"/>

<path  fill="#1D9C5A" stroke-width="0" stroke="#1D9C5A" d = " M175 105 L171,106 C171,106 171,86 171,86 171,86 172,85 172,85 174.441,85 187.302,76.5991 190.5,75 194.003,73.2484 197.421,77 200,77 200,77 200,78 200,78 197.963,78 188,97.8952 188,101 185.874,101 175,102.689 175,105  Z"/>

<path  fill="#1D9C5A" stroke-width="0" stroke="#1D9C5A" d = " M269 101 L285,105 C285,105 285,85 285,85 285,85 284,85 284,85 281.439,85 269.67,76.5849 266.5,75 262.821,73.1605 259.027,77 256,77 256,77 256,78 256,78 258.11,78 269,98.4955 269,101  Z"/>

<path  fill="#3FA664" stroke-width="0" stroke="#3FA664" d = " M193 107 L194,107 C194,105.207 201.275,98 203,98 203,98 203,97 203,97 203,92.1313 202,87.3515 202,83 202,81.9589 201.014,78 200,78 197.963,78 188,97.8952 188,101 188,101 188,102 188,102 190.362,102 193,104.638 193,107  Z"/>

<path  fill="#3FA664" stroke-width="0" stroke="#3FA664" d = " M269 101 C267.558,101 263,104.274 263,106 258.879,106 257.553,98 253,98 253,98 253,97 253,97 253,90.6347 256,83.7258 256,78 258.11,78 269,98.4955 269,101  Z"/>

<path  fill="#1A7E64" stroke-width="0" stroke="#1A7E64" d = " M66 145 C70.5778,145 75.6678,150 76,150 76,136.537 90.9751,102.762 102.5,97 102.5,97 114,90 114,90 114,85.7444 107,82.7849 107,79 107,79 106,79 106,79 103.95,79 92.6541,89.8459 90.5,92 80.1824,102.318 66,128.89 66,144 66,144 66,145 66,145  Z"/>

<path  fill="#1A7E64" stroke-width="0" stroke="#1A7E64" d = " M390 145 C386.146,145 382.876,149 381,149 379.133,149 378.883,137.266 378,135.5 374.742,128.984 372.238,121.976 369,115.5 366.105,109.711 359.083,98.2914 352.5,95 350.971,94.2354 343,91.8375 343,90 343,86.442 349,83.446 349,79 349,79 350,79 350,79 355.592,79 359.523,88.5116 364.5,91 376.01,96.7548 390,131.272 390,144 390,144 390,145 390,145  Z"/>

<path  fill="#1F9B5A" stroke-width="0" stroke="#1F9B5A" d = " M172 85 L171,86 C171,86 172,85 172,85  Z"/>

<path  fill="#1F9B5A" stroke-width="0" stroke="#1F9B5A" d = " M337 111 C337,119.38 333,128.468 333,135 328.499,135 326.034,126.767 322.5,125 315.572,121.536 292.071,106 285,106 285,106 285,105 285,105 285,105 285,85 285,85 285,85 291.5,89 291.5,89 302.575,94.5373 315.339,97.4195 326.5,103 326.5,103 337,110 337,110 337,110 337,111 337,111  Z"/>

<path  fill="#1F9B5A" stroke-width="0" stroke="#1F9B5A" d = " M153 115 C146.788,115 136.438,123.062 132,127.5 L123,136 C123,130.974 119,119.726 119,111 119,111 119,110 119,110 122.7,110 126.286,104.607 129.5,103 134.536,100.482 167.407,86 171,86 171,86 171,106 171,106 171,106 165,109 165,109 163.213,109 153,113.225 153,115  Z"/>

<path  fill="#1A7F63" stroke-width="0" stroke="#1A7F63" d = " M114 90 L117,93 C118.115,93 117,90.4655 117,89 117,89 114,90 114,90  Z"/>

<path  fill="#3FA566" stroke-width="0" stroke="#3FA566" d = " M220 128 L218,129 C218,129 217,90 217,90 218.564,90 220.876,89 223,89 223,100.347 222,112.852 222,124 222,124 220,128 220,128  Z"/>

<path  fill="#40A664" stroke-width="0" stroke="#40A664" d = " M229 119 L234,123 C234,123 234,89 234,89 234,89 223,89 223,89 223,100.347 222,112.852 222,124 222,124 227,119 227,119 227,116.436 229,116.436 229,119  Z"/>

<path  fill="#3FA566" stroke-width="0" stroke="#3FA566" d = " M236 128 L238,129 C238,116.674 239,102.972 239,90 239,90 239,89 239,89 239,89 234,89 234,89 234,89 234,123 234,123 234,123 236,128 236,128  Z"/>

<path  fill="#1A7F63" stroke-width="0" stroke="#1A7F63" d = " M342 90 C342,91.4289 340.712,94 339,94 339,94 339,89 339,89 340.048,89 342,88.5271 342,90  Z"/>

<path  fill="#1B7F62" stroke-width="0" stroke="#1B7F62" d = " M77 166 L81,166 C81,166 81,165 81,165 81,150.963 92.7369,113.382 105.5,107 109.265,105.117 112.669,97 117,97 117,97 117,96 117,96 117,96 117,93 117,93 117,93 114,90 114,90 114,90 102.5,97 102.5,97 90.9751,102.762 76,136.537 76,150 77.1859,150 77.1859,151 76,151 76,151 76,152 76,152 76,156.474 77,162.147 77,166  Z"/>

<path  fill="#3EA666" stroke-width="0" stroke="#3EA666" d = " M210 127 C211.048,127 218,131.651 218,129 218,129 217,90 217,90 217,90 203,97 203,97 203,97 203,98 203,98 203,103.257 202.783,111.066 205,115.5 205,115.5 210,127 210,127  Z"/>

<path  fill="#3EA666" stroke-width="0" stroke="#3EA666" d = " M247 126 C247,127.733 238,131.528 238,129 238,116.674 239,102.972 239,90 239,90 253,97 253,97 253,97 253,98 253,98 253,104.136 253.545,111.411 251,116.5 251,116.5 247,126 247,126  Z"/>

<path  fill="#1B7F62" stroke-width="0" stroke="#1B7F62" d = " M375 166 L379,166 C381.704,166 377.808,155 381,155 381,155 381,153 381,153 379.814,153 379.814,152 381,152 381,152 381,151 381,151 379.814,151 379.814,150 381,150 381,150 381,149 381,149 379.133,149 378.883,137.266 378,135.5 374.742,128.984 372.238,121.976 369,115.5 366.105,109.711 359.083,98.2914 352.5,95 350.971,94.2354 343,91.8375 343,90 343,90 342,90 342,90 342,91.4289 340.712,94 339,94 339,94 339,96 339,96 339,96 339,97 339,97 343.56,97 353.051,107.602 355,111.5 355,111.5 363,121.5 363,121.5 369.183,133.866 375,150.324 375,165 375,165 375,166 375,166  Z"/>

<path  fill="#1B7E63" stroke-width="0" stroke="#1B7E63" d = " M118 96 L117,97 C117,97 117,96 117,96 117,96 118,96 118,96  Z"/>

<path  fill="#1B7E63" stroke-width="0" stroke="#1B7E63" d = " M95 164 L81,165 C81,150.963 92.7369,113.382 105.5,107 109.265,105.117 112.669,97 117,97 117,100.816 119,105.634 119,110 119,110 119,111 119,111 114.141,111 108.868,118.763 107,122.5 99.3062,137.888 95,144.057 95,163 95,163 95,164 95,164  Z"/>

<path  fill="#1B7E63" stroke-width="0" stroke="#1B7E63" d = " M361 164 L375,165 C375,150.324 369.183,133.866 363,121.5 363,121.5 355,111.5 355,111.5 353.051,107.602 343.56,97 339,97 339,99.0885 338.682,110 337,110 337,110 337,111 337,111 340.931,111 346.37,117.241 348,120.5 348,120.5 353,126.5 353,126.5 358.623,137.747 361,149.374 361,163 361,163 361,164 361,164  Z"/>

<path  fill="#40A564" stroke-width="0" stroke="#40A564" d = " M204 123 L210,127 C210,127 205,115.5 205,115.5 202.783,111.066 203,103.257 203,98 201.275,98 194,105.207 194,107 194,112.513 204,116.656 204,122 204,122 204,123 204,123  Z"/>

<path  fill="#40A564" stroke-width="0" stroke="#40A564" d = " M252 123 C250.053,123 249.364,126 247,126 247,126 251,116.5 251,116.5 253.545,111.411 253,104.136 253,98 257.553,98 258.879,106 263,106 263,106 263,107 263,107 263,107 263,108 263,108 261.423,108 261,109.762 261,111 259.218,111 253,119.283 253,121 253,121 252,122 252,122 252,122 252,123 252,123  Z"/>

<path  fill="#1E9C58" stroke-width="0" stroke="#1E9C58" d = " M187 103 C182.225,103 179.475,105 175,105 175,102.689 185.874,101 188,101 188,101 188,102 188,102 188,102 187,103 187,103  Z"/>

<path  fill="#3FA466" stroke-width="0" stroke="#3FA466" d = " M263 107 L264,107 C265.539,107 266.187,103 269,103 269,103 269,101 269,101 267.558,101 263,104.274 263,106 263,106 263,107 263,107  Z"/>

<path  fill="#1E9C58" stroke-width="0" stroke="#1E9C58" d = " M285 106 L285,107 C279.682,107 275.198,103 269,103 269,103 269,101 269,101 269,101 285,105 285,105 285,105 285,106 285,106  Z"/>

<path  fill="#3FA466" stroke-width="0" stroke="#3FA466" d = " M187 103 C190.625,103 190.563,107 193,107 193,104.638 190.362,102 188,102 188,102 187,103 187,103  Z"/>

<path  fill="#CACCC7" stroke-width="0" stroke="#CACCC7" d = " M204 122 L204,123 C195.891,123 193.751,110.125 187.5,107 182.247,104.374 176.372,110 172,110 172,110 171,111 171,111 171,111 169,111 169,111 169,111 168,112 168,112 166.952,112 165,111.527 165,113 165,113 161,113 161,113 161,113 165,109 165,109 166.623,109 171,108.995 171,107 172.465,107 175,107.109 175,105 179.475,105 182.225,103 187,103 190.625,103 190.563,107 193,107 193,109.838 200.327,122 204,122  Z"/>

<path  fill="#CACCC7" stroke-width="0" stroke="#CACCC7" d = " M252 122 L252,123 C260.101,123 263.475,110.012 269.5,107 275.392,104.054 281.995,111 287,111 287,111 288,112 288,112 288,112 289,112 289,112 289,112 296,113 296,113 296,109.225 285,109.739 285,107 279.682,107 275.198,103 269,103 266.187,103 265.539,107 264,107 264,107 263,108 263,108 263,109.238 262.577,111 261,111 261,114.123 255.506,121 253,121 253,121 252,122 252,122  Z"/>

<path  fill="#1E9C58" stroke-width="0" stroke="#1E9C58" d = " M171 106 L171,107 C172.465,107 175,107.109 175,105 175,105 171,106 171,106  Z"/>

<path  fill="#1D9D5A" stroke-width="0" stroke="#1D9D5A" d = " M171 107 C171,108.995 166.623,109 165,109 165,109 171,106 171,106 171,106 171,107 171,107  Z"/>

<path  fill="#1D9D5A" stroke-width="0" stroke="#1D9D5A" d = " M333 137 L333,138 C333,138 321.5,127 321.5,127 317.463,122.963 301.347,113 296,113 296,109.225 285,109.739 285,107 285,107 285,106 285,106 292.071,106 315.572,121.536 322.5,125 326.034,126.767 328.499,135 333,135 333,135 333,137 333,137  Z"/>

<path  fill="#CCC7C9" stroke-width="0" stroke="#CCC7C9" d = " M340 173 L342,173 C342,173 342,163 342,163 340.436,163 340.679,154.859 340,153.5 337.065,147.63 332.419,136.459 325.5,133 317.858,129.179 310.641,122.07 302.5,118 300.678,117.089 289,113.7 289,112 289,112 288,112 288,112 288,112 287,111 287,111 281.995,111 275.392,104.054 269.5,107 263.475,110.012 260.101,123 252,123 250.053,123 249.364,126 247,126 247,127.733 238,131.528 238,129 238,129 236,128 236,128 236,129.702 231.766,132 230.5,132 230.5,132 228.5,129 228.5,129 228.5,129 226.5,132 226.5,132 225.228,132.636 220,129.711 220,128 220,128 218,129 218,129 218,131.651 211.048,127 210,127 210,127 204,123 204,123 195.891,123 193.751,110.125 187.5,107 182.247,104.374 176.372,110 172,110 172,110 171,111 171,111 171,111 169,111 169,111 169,111 168,112 168,112 168,113.473 166.048,113 165,113 165,113 140.5,125 140.5,125 140.5,125 123.5,141 123.5,141 123.5,141 119,147 119,147 119,148.465 119.109,151 117,151 117,152.552 116.434,159 115,159 115,159 115,160 115,160 115,160 115,173 115,173 115,173 117,173 117,173 117,155.588 121.781,139.359 138.5,131 144.085,128.207 153.149,127.175 157.5,125 160.285,123.607 168.935,121.217 172.5,123 176.561,125.03 181.426,124.963 185.5,127 185.5,127 192,133 192,133 197.002,133 211,142.439 211,148 211,148 220,154 220,154 222.124,154 224.436,155 226,155 226,150.91 230,150.69 230,155 230,155 236,154 236,154 239.448,154 244.015,147 246,147 246,141.25 259.844,133 265,133 265,124.979 292.534,121.017 298.5,124 298.5,124 314.5,129 314.5,129 332.217,137.859 340,154.013 340,173  Z"/>

<path  fill="#40A465" stroke-width="0" stroke="#40A465" d = " M194 107 C194,112.513 204,116.656 204,122 200.327,122 193,109.838 193,107 193,107 194,107 194,107  Z"/>

<path  fill="#40A465" stroke-width="0" stroke="#40A465" d = " M264 107 L263,108 C263,108 263,107 263,107 263,107 264,107 264,107  Z"/>

<path  fill="#40A465" stroke-width="0" stroke="#40A465" d = " M263 108 C261.423,108 261,109.762 261,111 262.577,111 263,109.238 263,108  Z"/>

<path  fill="#1D9D5A" stroke-width="0" stroke="#1D9D5A" d = " M161 113 C157.765,113 156.45,115 153,115 153,113.225 163.213,109 165,109 165,109 161,113 161,113  Z"/>

<path  fill="#C9C9CA" stroke-width="0" stroke="#C9C9CA" d = " M172 110 L171,111 C171,111 172,110 172,110  Z"/>

<path  fill="#187D61" stroke-width="0" stroke="#187D61" d = " M113 160 C107.141,160 101.395,163 95,163 95,144.057 99.3062,137.888 107,122.5 108.868,118.763 114.141,111 119,111 119,119.726 123,130.974 123,136 123,136 123,137 123,137 119.076,137 113,155.809 113,160  Z"/>

<path  fill="#C9C9CA" stroke-width="0" stroke="#C9C9CA" d = " M169 111 L168,112 C168,112 169,111 169,111  Z"/>

<path  fill="#40A465" stroke-width="0" stroke="#40A465" d = " M261 111 C259.218,111 253,119.283 253,121 255.506,121 261,114.123 261,111  Z"/>

<path  fill="#C9C9CA" stroke-width="0" stroke="#C9C9CA" d = " M287 111 L288,112 C288,112 287,111 287,111  Z"/>

<path  fill="#187D61" stroke-width="0" stroke="#187D61" d = " M343 160 C349.083,160 354.519,163 361,163 361,149.374 358.623,137.747 353,126.5 353,126.5 348,120.5 348,120.5 346.37,117.241 340.931,111 337,111 337,119.38 333,128.468 333,135 333,135 333,137 333,137 337.691,137 343,154.811 343,160  Z"/>

<path  fill="#C9C9CA" stroke-width="0" stroke="#C9C9CA" d = " M168 112 C166.952,112 165,111.527 165,113 166.048,113 168,113.473 168,112  Z"/>

<path  fill="#C9C9CA" stroke-width="0" stroke="#C9C9CA" d = " M342 160 L342,163 C340.436,163 340.679,154.859 340,153.5 337.065,147.63 332.419,136.459 325.5,133 317.858,129.179 310.641,122.07 302.5,118 300.678,117.089 289,113.7 289,112 289,112 296,113 296,113 301.347,113 317.463,122.963 321.5,127 321.5,127 333,138 333,138 333,142.404 342,151.402 342,160  Z"/>

<path  fill="#C9C9CA" stroke-width="0" stroke="#C9C9CA" d = " M123 138 C123,141.54 119,143.131 119,147 119,147 123.5,141 123.5,141 123.5,141 140.5,125 140.5,125 140.5,125 165,113 165,113 165,113 161,113 161,113 157.765,113 156.45,115 153,115 153,115.878 137.525,124.988 135.5,126 135.5,126 123,138 123,138  Z"/>

<path  fill="#1D9D5A" stroke-width="0" stroke="#1D9D5A" d = " M123 137 L123,138 C123,138 135.5,126 135.5,126 137.525,124.988 153,115.878 153,115 146.788,115 136.438,123.062 132,127.5 132,127.5 123,136 123,136 123,136 123,137 123,137  Z"/>

<path  fill="#7ED04B" stroke-width="0" stroke="#7ED04B" d = " M220 128 C220,129.711 225.228,132.636 226.5,132 L228.5,129 L230.5,132 C231.766,132 236,129.702 236,128 236,128 234,123 234,123 234,123 229,119 229,119 229,121.488 227,120.919 227,119 227,119 222,124 222,124 222,124 220,128 220,128  Z"/>

<path  fill="#40A465" stroke-width="0" stroke="#40A465" d = " M253 121 L252,122 C252,122 253,121 253,121  Z"/>

<path  fill="#98D5F9" stroke-width="0" stroke="#98D5F9" d = " M137 231 L142,234 C148.136,234 152.735,235.882 158.5,233 164.577,229.961 164.579,221.342 167,216.5 172.118,206.265 179.383,203.558 188.5,199 188.5,199 191,197 191,197 191,197 192,196 192,196 192,196 193,195 193,195 193,192.907 193.461,181 195,181 195,181 195,177 195,177 195,177 195,176 195,176 195,174.765 194.357,171 196,171 196,169.952 195.527,168 197,168 197,168 197,167 197,167 197,167 197,143.5 197,143.5 195.958,141.416 195,140.592 195,138 193.197,138 192,134.408 192,133 192,133 185.5,127 185.5,127 181.426,124.963 176.561,125.03 172.5,123 168.935,121.217 160.285,123.607 157.5,125 153.149,127.175 144.085,128.207 138.5,131 121.781,139.359 117,155.588 117,173 117,184.227 124,193.552 124,205 124,205 127,217 127,217 127,217 127,218 127,218 128.428,218 131,222.822 131,224 131,224 137,231 137,231  Z"/>

<path  fill="#98D5F9" stroke-width="0" stroke="#98D5F9" d = " M319 232 C317.959,232 314,232.986 314,234 308.129,234 303.13,235.815 297.5,233 291.818,230.159 291.351,220.202 289,215.5 285.588,208.676 272.503,197 265,197 265,197 264,196 264,196 264,194.758 262.981,187 262,187 262,187 262,179 262,179 262,179 261,177 261,177 261,177 261,173 261,173 261,167.248 255.909,150.682 259,144.5 259,144.5 262,138 262,138 262,138 265,133 265,133 265,124.979 292.534,121.017 298.5,124 298.5,124 314.5,129 314.5,129 332.217,137.859 340,154.013 340,173 340,183.924 333,193.127 333,205 331.566,205 331,211.448 331,213 329.527,213 330,214.952 330,216 330,216 329,218 329,218 329,218 329,219 329,219 329,219 328,220 328,220 328,220 327,221 327,221 327,221 327,222 327,222 327,222 326,223 326,223 326,223 325,225 325,225 325,225 319,232 319,232  Z"/>

<path  fill="#AAA8A9" stroke-width="0" stroke="#AAA8A9" d = " M210 148 L211,148 C211,142.439 197.002,133 192,133 192,134.408 193.197,138 195,138 195,136.972 196.621,136.56 197.5,137 200.443,138.472 210,144.78 210,148  Z"/>

<path  fill="#AAA8A9" stroke-width="0" stroke="#AAA8A9" d = " M246 147 L247,149 C247,142.127 257.716,138 262,138 262,138 265,133 265,133 259.844,133 246,141.25 246,147  Z"/>

<path  fill="#188064" stroke-width="0" stroke="#188064" d = " M113 160 L115,160 C115,160 115,159 115,159 115,157.101 114.512,151 117,151 117,149.535 116.891,147 119,147 119,143.131 123,141.54 123,138 123,138 123,137 123,137 119.076,137 113,155.809 113,160  Z"/>

<path  fill="#A8AAAA" stroke-width="0" stroke="#A8AAAA" d = " M197 167 L198,167 C198,167 199,166 199,166 199,166 202,160 202,160 202,160 203,159 203,159 203,155.572 209,152.794 209,149 209,149 210,148 210,148 210,144.78 200.443,138.472 197.5,137 196.621,136.56 195,136.972 195,138 195,140.592 195.958,141.416 197,143.5 197,143.5 197,167 197,167  Z"/>

<path  fill="#A8AAAA" stroke-width="0" stroke="#A8AAAA" d = " M260 171 L261,173 C261,167.248 255.909,150.682 259,144.5 259,144.5 262,138 262,138 257.716,138 247,142.127 247,149 247,149 247,150 247,150 247,150 248,151 248,151 248,151 251,156 251,156 251,156 252,157 252,157 252,157 254,160 254,160 254,160 255,161 255,161 255,161 255,162 255,162 255,162 257,164 257,164 257,164 259,168 259,168 259,168 259,170 259,170 259,170 260,171 260,171  Z"/>

<path  fill="#188064" stroke-width="0" stroke="#188064" d = " M342 160 L343,160 C343,154.811 337.691,137 333,137 333,137 333,138 333,138 333,142.404 342,151.402 342,160  Z"/>

<path  fill="#1A7E62" stroke-width="0" stroke="#1A7E62" d = " M66 169 C66,171.109 63.4655,171 62,171 62,164.36 57.4407,155.619 61,148.5 61.6191,147.262 59.856,143 62,143 62,143 66,144 66,144 66,144 66,145 66,145 66,152.688 66,161.262 66,169  Z"/>

<path  fill="#1A7E62" stroke-width="0" stroke="#1A7E62" d = " M390 170 L395,171 C395,167.76 395.641,164.219 397,161.5 399.568,156.363 395,147.916 395,143 395,143 390,144 390,144 390,144 390,145 390,145 390,152.155 390,161.825 390,169 390,169 390,170 390,170  Z"/>

<path  fill="#1B8063" stroke-width="0" stroke="#1B8063" d = " M66 169 L67,169 C70.3029,169 72.1152,167 75,167 75,164.925 74.2027,152 76,152 76,152 76,151 76,151 76,151 76,150 76,150 75.6678,150 70.5778,145 66,145 66,152.688 66,161.262 66,169  Z"/>

<path  fill="#1B8063" stroke-width="0" stroke="#1B8063" d = " M381 167 C384.071,167 386.362,169 390,169 390,161.825 390,152.155 390,145 386.146,145 382.876,149 381,149 381,149 381,150 381,150 381,150 381,151 381,151 381,151 381,152 381,152 381,152 381,153 381,153 381,153 381,155 381,155 381,155 381,167 381,167  Z"/>

<path  fill="#C9C9CA" stroke-width="0" stroke="#C9C9CA" d = " M119 147 C116.891,147 117,149.535 117,151 119.109,151 119,148.465 119,147  Z"/>

<path  fill="#97D6F9" stroke-width="0" stroke="#97D6F9" d = " M257 164 L259,168 C257.789,168 254.167,163.834 252.5,163 247.59,160.545 240.84,163 236,163 236,160.634 236,156.366 236,154 239.448,154 244.015,147 246,147 246,147 247,149 247,149 247,149 247,150 247,150 247,150 248,151 248,151 248,151 251,156 251,156 251,156 252,157 252,157 252,157 254,160 254,160 254,160 255,161 255,161 255,161 255,162 255,162 255,162 257,164 257,164  Z"/>

<path  fill="#AAA8A9" stroke-width="0" stroke="#AAA8A9" d = " M210 148 L209,149 C209,149 210,148 210,148  Z"/>

<path  fill="#97D6F9" stroke-width="0" stroke="#97D6F9" d = " M231 191 L228.5,187 L225,193 C225,182.424 229.573,167.537 218.5,162 212.802,159.151 201.258,166 199,166 199,166 202,160 202,160 202,160 203,159 203,159 203,155.572 209,152.794 209,149 209,149 210,148 210,148 210,148 211,148 211,148 211,148 220,154 220,154 220,157.439 217.294,160.897 221.5,163 222.403,163.452 225.753,166.994 227,164.5 227.675,163.15 227.247,155 226,155 226,150.91 230,150.69 230,155 230,162.512 226.318,164 235,164 235,164 231,168.5 231,168.5 231,168.5 231,191 231,191  Z"/>

<path  fill="#187C63" stroke-width="0" stroke="#187C63" d = " M76 150 C77.1859,150 77.1859,151 76,151 76,151 76,150 76,150  Z"/>

<path  fill="#AAA8A9" stroke-width="0" stroke="#AAA8A9" d = " M247 150 L248,151 C248,151 247,150 247,150  Z"/>

<path  fill="#187C63" stroke-width="0" stroke="#187C63" d = " M381 150 C379.814,150 379.814,151 381,151 381,151 381,150 381,150  Z"/>

<path  fill="#C9C9CA" stroke-width="0" stroke="#C9C9CA" d = " M117 151 C114.512,151 115,157.101 115,159 116.434,159 117,152.552 117,151  Z"/>

<path  fill="#187C63" stroke-width="0" stroke="#187C63" d = " M77 166 L75,167 C75,164.925 74.2027,152 76,152 76,156.474 77,162.147 77,166  Z"/>

<path  fill="#187C63" stroke-width="0" stroke="#187C63" d = " M381 152 C379.814,152 379.814,153 381,153 381,153 381,152 381,152  Z"/>

<path  fill="#8FCAED" stroke-width="0" stroke="#8FCAED" d = " M220 154 C222.124,154 224.436,155 226,155 227.247,155 227.675,163.15 227,164.5 225.753,166.994 222.403,163.452 221.5,163 217.294,160.897 220,157.439 220,154  Z"/>

<path  fill="#8FCAED" stroke-width="0" stroke="#8FCAED" d = " M236 163 L235,164 C226.318,164 230,162.512 230,155 230,155 236,154 236,154 236,156.366 236,160.634 236,163  Z"/>

<path  fill="#187C63" stroke-width="0" stroke="#187C63" d = " M379 166 L381,167 C381,167 381,155 381,155 377.808,155 381.704,166 379,166  Z"/>

<path  fill="#AAA8A9" stroke-width="0" stroke="#AAA8A9" d = " M251 156 L252,157 C252,157 251,156 251,156  Z"/>

<path  fill="#AAA8A9" stroke-width="0" stroke="#AAA8A9" d = " M203 159 L202,160 C202,160 203,159 203,159  Z"/>

<path  fill="#009B74" stroke-width="0" stroke="#009B74" d = " M113 174 C107.263,174 102.301,179 96,179 96,173.961 95,168.425 95,164 95,164 95,163 95,163 101.395,163 107.141,160 113,160 113,160 113,173 113,173 113,173 113,174 113,174  Z"/>

<path  fill="#019C74" stroke-width="0" stroke="#019C74" d = " M113 173 L115,173 C115,173 115,160 115,160 115,160 113,160 113,160 113,160 113,173 113,173  Z"/>

<path  fill="#AAA8A9" stroke-width="0" stroke="#AAA8A9" d = " M254 160 L255,161 C255,161 254,160 254,160  Z"/>

<path  fill="#019C74" stroke-width="0" stroke="#019C74" d = " M342 173 L344,173 C344,168.586 343,163.823 343,160 343,160 342,160 342,160 342,160 342,163 342,163 342,163 342,173 342,173  Z"/>

<path  fill="#009B74" stroke-width="0" stroke="#009B74" d = " M344 174 C349.209,174 354.156,179 360,179 361.797,179 361,166.075 361,164 361,164 361,163 361,163 354.519,163 349.083,160 343,160 343,163.823 344,168.586 344,173 344,173 344,174 344,174  Z"/>

<path  fill="#90CAED" stroke-width="0" stroke="#90CAED" d = " M213 217 L216.5,220 C218.538,221.019 219.93,217 221,217 221,208.721 225,201.535 225,193 225,182.424 229.573,167.537 218.5,162 212.802,159.151 201.258,166 199,166 199,166 198,167 198,167 198,167 198,168 198,168 198,168 197,169 197,169 197,169 197,171 197,171 197,171 196,172 196,172 196,173.145 196.579,176 195,176 195,176 195,177 195,177 202.529,177 208.098,190.696 211,196.5 212.327,199.153 212.541,207 209,207 209,207 209,208 209,208 209,208 209,209 209,209 209,209 210,210 210,210 210,210 212,215 212,215 212,215 213,216 213,216 213,216 213,217 213,217  Z"/>

<path  fill="#90CAED" stroke-width="0" stroke="#90CAED" d = " M243 217 L243,218 C243,218 239.5,220 239.5,220 239.5,220 235,216 235,216 235,216 232,197 232,197 232,195.952 232.473,194 231,194 231,194 231,191 231,191 231,191 231,168.5 231,168.5 231,168.5 235,164 235,164 235,164 236,163 236,163 240.84,163 247.59,160.545 252.5,163 254.167,163.834 257.789,168 259,168 259,168 259,170 259,170 259,170 260,171 260,171 260,171 261,173 261,173 261,173 261,177 261,177 253.702,177 247.908,191.683 245,197.5 243.616,200.269 244.711,207 248,207 248,207 248,208 248,208 248,208 247,209 247,209 247,209 244,216 244,216 244,216 243,217 243,217  Z"/>

<path  fill="#AAA8A9" stroke-width="0" stroke="#AAA8A9" d = " M255 162 L257,164 C257,164 255,162 255,162  Z"/>

<path  fill="#97D6F9" stroke-width="0" stroke="#97D6F9" d = " M236 163 L235,164 C235,164 236,163 236,163  Z"/>

<path  fill="#019C75" stroke-width="0" stroke="#019C75" d = " M96 180 L81,185 C81,185 81,166 81,166 81,166 81,165 81,165 81,165 95,164 95,164 95,168.425 96,173.961 96,179 96,179 96,180 96,180  Z"/>

<path  fill="#019C75" stroke-width="0" stroke="#019C75" d = " M360 180 C365.294,180 369.977,185 375,185 375,178.86 375,172.867 375,166 375,166 375,165 375,165 375,165 361,164 361,164 361,166.075 361.797,179 360,179 360,179 360,180 360,180  Z"/>

<path  fill="#009C74" stroke-width="0" stroke="#009C74" d = " M79 185 L81,185 C81,185 81,166 81,166 81,166 77,166 77,166 77,166 75,167 75,167 75,167 77,181.5 77,181.5 77,181.5 79,185 79,185  Z"/>

<path  fill="#97D6F9" stroke-width="0" stroke="#97D6F9" d = " M199 166 L198,167 C198,167 199,166 199,166  Z"/>

<path  fill="#009C74" stroke-width="0" stroke="#009C74" d = " M375 185 L378,186 C378,179.46 381,174.001 381,167 381,167 379,166 379,166 379,166 375,166 375,166 375,172.867 375,178.86 375,185  Z"/>

<path  fill="#009B75" stroke-width="0" stroke="#009B75" d = " M79 185 L71,189 C71,182.671 67,176.278 67,169 70.3029,169 72.1152,167 75,167 75,167 77,181.5 77,181.5 77,181.5 79,185 79,185  Z"/>

<path  fill="#AAA8A9" stroke-width="0" stroke="#AAA8A9" d = " M197 168 L198,168 C198,168 198,167 198,167 198,167 197,167 197,167 197,167 197,168 197,168  Z"/>

<path  fill="#009B75" stroke-width="0" stroke="#009B75" d = " M378 186 L385,189 C386.429,189 387,185.795 387,184.5 387,184.5 390,170 390,170 390,170 390,169 390,169 386.362,169 384.071,167 381,167 381,174.001 378,179.46 378,186  Z"/>

<path  fill="#A8AAAA" stroke-width="0" stroke="#A8AAAA" d = " M196 171 L197,171 C197,171 197,169 197,169 197,169 197,168 197,168 195.527,168 196,169.952 196,171  Z"/>

<path  fill="#97D6F9" stroke-width="0" stroke="#97D6F9" d = " M198 168 L197,169 C197,169 197,168 197,168 197,168 198,168 198,168  Z"/>

<path  fill="#009C75" stroke-width="0" stroke="#009C75" d = " M71 190 L68,191 C66.4102,191 66.557,186.614 66,185.5 64.0671,181.634 62,175.503 62,171 63.4655,171 66,171.109 66,169 66,169 67,169 67,169 67,176.278 71,182.671 71,189 71,189 71,190 71,190  Z"/>

<path  fill="#97D6F9" stroke-width="0" stroke="#97D6F9" d = " M259 170 L260,171 C260,171 259,170 259,170  Z"/>

<path  fill="#009C75" stroke-width="0" stroke="#009C75" d = " M385 190 L389,191 C389,191 395,171 395,171 395,171 390,170 390,170 390,170 387,184.5 387,184.5 387,185.795 386.429,189 385,189 385,189 385,190 385,190  Z"/>

<path  fill="#A8AAAA" stroke-width="0" stroke="#A8AAAA" d = " M196 172 C196,173.145 196.579,176 195,176 195,174.765 194.357,171 196,171 196,171 196,172 196,172  Z"/>

<path  fill="#97D6F9" stroke-width="0" stroke="#97D6F9" d = " M197 171 L196,172 C196,172 196,171 196,171 196,171 197,171 197,171  Z"/>

<path  fill="#1F9766" stroke-width="0" stroke="#1F9766" d = " M116 185 L117,185 C117,181.019 115,177.371 115,173 115,173 113,173 113,173 113,173 113,174 113,174 113,174 115,184 115,184 115,184 116,185 116,185  Z"/>

<path  fill="#C8CBCC" stroke-width="0" stroke="#C8CBCC" d = " M122 205 L124,205 C124,193.552 117,184.227 117,173 117,173 115,173 115,173 115,177.371 117,181.019 117,185 117,185 117,187 117,187 117,187 117,188 117,188 117,188 118,190 118,190 118,190 118,191 118,191 118,191 119,193 119,193 119,193 119,195 119,195 120.516,195 122,203.357 122,205  Z"/>

<path  fill="#C8CBCC" stroke-width="0" stroke="#C8CBCC" d = " M333 205 L335,205 C335,204.208 334.241,197 337,197 337,197 337,195 337,195 337,195 337,194 337,194 337,194 338,192 338,192 338,192 338,191 338,191 338,191 339,190 339,190 339,190 339,187 339,187 339,187 340,186 340,186 340,186 340,185 340,185 340,185 342,173 342,173 342,173 340,173 340,173 340,183.924 333,193.127 333,205  Z"/>

<path  fill="#1F9766" stroke-width="0" stroke="#1F9766" d = " M340 185 L341,185 C341,185 342,184 342,184 342,182.751 343.074,174 344,174 344,174 344,173 344,173 344,173 342,173 342,173 342,173 340,185 340,185  Z"/>

<path  fill="#209666" stroke-width="0" stroke="#209666" d = " M102 200 L103,200 C103,200 108,198 108,198 108,191.032 106.435,184 115,184 115,184 113,174 113,174 107.263,174 102.301,179 96,179 96,179 96,180 96,180 96,187.326 102,195.555 102,200  Z"/>

<path  fill="#209666" stroke-width="0" stroke="#209666" d = " M348 198 L354,200 C354,196.74 360,188.295 360,180 360,180 360,179 360,179 354.156,179 349.209,174 344,174 343.074,174 342,182.751 342,184 351.153,184 348,192.301 348,198  Z"/>

<path  fill="#8FCBED" stroke-width="0" stroke="#8FCBED" d = " M207 206 L209,207 C212.541,207 212.327,199.153 211,196.5 208.098,190.696 202.529,177 195,177 195,177 195,181 195,181 195,185.107 196,189.469 196,193 196,193 197,195 197,195 197,195 198,195 198,195 198,195 199,196 199,196 199,196 207,206 207,206  Z"/>

<path  fill="#8FCBED" stroke-width="0" stroke="#8FCBED" d = " M249 206 L248,207 C244.711,207 243.616,200.269 245,197.5 247.908,191.683 253.702,177 261,177 261,177 262,179 262,179 262,179 262,187 262,187 260.316,187 261,191.679 261,193 261,193 259,195 259,195 254.893,195 252.629,205 250,205 250,205 249,206 249,206  Z"/>

<path  fill="#A8AAAA" stroke-width="0" stroke="#A8AAAA" d = " M261 177 L262,179 C262,179 261,177 261,177  Z"/>

<path  fill="#209665" stroke-width="0" stroke="#209665" d = " M87 203 L88,203 C88,203 102,200 102,200 102,195.555 96,187.326 96,180 96,180 81,185 81,185 81,191.863 87,196.887 87,203  Z"/>

<path  fill="#209665" stroke-width="0" stroke="#209665" d = " M368 203 L369,203 C369,198.094 375,192.335 375,185 369.977,185 365.294,180 360,180 360,188.295 354,196.74 354,200 354,200 368,203 368,203  Z"/>

<path  fill="#A8AAAA" stroke-width="0" stroke="#A8AAAA" d = " M192 196 L192,197 C192,207.715 192.937,195 195,195 195,195 196,193 196,193 196,189.469 195,185.107 195,181 193.461,181 193,192.907 193,195 193,195 192,196 192,196  Z"/>

<path  fill="#8ADA86" stroke-width="0" stroke="#8ADA86" d = " M119 195 C119,199.611 119.558,210.029 111.5,206 109.229,204.864 109.32,198 108,198 108,191.032 106.435,184 115,184 115,184 116,185 116,185 116,185 117,187 117,187 117,187 117,188 117,188 117,188 118,190 118,190 118,190 118,191 118,191 118,191 119,193 119,193 119,193 119,195 119,195  Z"/>

<path  fill="#8ADA86" stroke-width="0" stroke="#8ADA86" d = " M337 197 C337,209.588 348,208.496 348,198 348,192.301 351.153,184 342,184 342,184 341,185 341,185 341,185 340,186 340,186 340,186 339,187 339,187 339,187 339,190 339,190 339,190 338,191 338,191 338,191 338,192 338,192 338,192 338,194 338,194 338,194 337,195 337,195 337,195 337,197 337,197  Z"/>

<path  fill="#209765" stroke-width="0" stroke="#209765" d = " M87 203 L77,205 C74.4307,205 71,192.329 71,190 71,190 71,189 71,189 71,189 79,185 79,185 79,185 81,185 81,185 81,191.863 87,196.887 87,203  Z"/>

<path  fill="#209666" stroke-width="0" stroke="#209666" d = " M117 185 L117,187 C117,187 116,185 116,185 116,185 117,185 117,185  Z"/>

<path  fill="#209666" stroke-width="0" stroke="#209666" d = " M341 185 L340,186 C340,186 340,185 340,185 340,185 341,185 341,185  Z"/>

<path  fill="#209765" stroke-width="0" stroke="#209765" d = " M379 206 L380,206 C380,200.705 385,195.997 385,190 385,190 385,189 385,189 385,189 378,186 378,186 378,186 375,185 375,185 375,192.335 369,198.094 369,203 371.342,203 379,203.131 379,206  Z"/>

<path  fill="#209666" stroke-width="0" stroke="#209666" d = " M340 186 L339,187 C339,187 340,186 340,186  Z"/>

<path  fill="#96A7D3" stroke-width="0" stroke="#96A7D3" d = " M221 225 C223.944,225 232.821,224.161 234.5,225 L236,227 C236,223.751 235,219.806 235,216 235,216 232,197 232,197 230.527,197 231,195.048 231,194 231,194 231,191 231,191 231,191 228.5,187 228.5,187 228.5,187 225,193 225,193 225,201.535 221,208.721 221,217 221,217 221,225 221,225  Z"/>

<path  fill="#A8AAAA" stroke-width="0" stroke="#A8AAAA" d = " M264 196 L264,197 C264,197 265,201.5 265,201.5 264.141,203.218 262,195.684 262,195 262,195 261,193 261,193 261,191.679 260.316,187 262,187 262.981,187 264,194.758 264,196  Z"/>

<path  fill="#209666" stroke-width="0" stroke="#209666" d = " M117 188 L118,190 C118,190 117,188 117,188  Z"/>

<path  fill="#209764" stroke-width="0" stroke="#209764" d = " M77 206 L74,207 C72.8174,207 72.4649,203.43 72,202.5 70.2921,199.084 68,195.067 68,191 68,191 71,190 71,190 71,192.329 74.4307,205 77,205 77,205 77,206 77,206  Z"/>

<path  fill="#209666" stroke-width="0" stroke="#209666" d = " M339 190 L338,191 C338,191 339,190 339,190  Z"/>

<path  fill="#209764" stroke-width="0" stroke="#209764" d = " M380 206 L383,207 C383,201.499 389,196.611 389,191 389,191 385,190 385,190 385,195.997 380,200.705 380,206  Z"/>

<path  fill="#209666" stroke-width="0" stroke="#209666" d = " M118 191 L119,193 C119,193 118,191 118,191  Z"/>

<path  fill="#209666" stroke-width="0" stroke="#209666" d = " M337 194 L338,194 C338,194 338,192 338,192 338,192 337,194 337,194  Z"/>

<path  fill="#97D6F9" stroke-width="0" stroke="#97D6F9" d = " M195 195 L197,195 C197,195 196,193 196,193 196,193 195,195 195,195  Z"/>

<path  fill="#97D6F9" stroke-width="0" stroke="#97D6F9" d = " M259 195 L262,195 C262,195 261,193 261,193 261,193 259,195 259,195  Z"/>

<path  fill="#97D6F9" stroke-width="0" stroke="#97D6F9" d = " M231 194 C232.473,194 232,195.952 232,197 230.527,197 231,195.048 231,194  Z"/>

<path  fill="#1F9866" stroke-width="0" stroke="#1F9866" d = " M338 194 L337,195 C337,195 337,194 337,194 337,194 338,194 338,194  Z"/>

<path  fill="#1F9866" stroke-width="0" stroke="#1F9866" d = " M114 209 L107,211 C107,206.655 103,204.345 103,200 103,200 108,198 108,198 109.32,198 109.229,204.864 111.5,206 119.558,210.029 119,199.611 119,195 120.516,195 122,203.357 122,205 122,205 119,207 119,207 119,207 117,207 117,207 117,207 116,208 116,208 116,208 115,208 115,208 115,208 114,209 114,209  Z"/>

<path  fill="#97D6F9" stroke-width="0" stroke="#97D6F9" d = " M193 195 L192,196 C192,196 193,195 193,195  Z"/>

<path  fill-rule="evenodd" fill="#80CDF8" stroke-width="0" stroke="#80CDF8" d = " M181 209 L175,213.5 L174,218 C174,237.392 197.188,209 181,209  M210 240 L203.5,248 C196.404,255.096 191.09,260.705 182.5,265 174.735,268.882 143,264.438 143,252 143,252 139,236 139,236 139,236 142,234 142,234 148.136,234 152.735,235.882 158.5,233 164.577,229.961 164.579,221.342 167,216.5 172.118,206.265 179.383,203.558 188.5,199 188.5,199 191,197 191,197 191,197 192,197 192,197 192,207.715 192.937,195 195,195 195,195 197,195 197,195 197,195 198,195 198,195 198,195 199,196 199,196 199,196 207,206 207,206 207,206 209,208 209,208 209,208 209,209 209,209 209,209 210,210 210,210 210,210 212,215 212,215 212,215 213,216 213,216 213,216 213,217 213,217 213,217 213,232.5 213,232.5 211.93,234.64 211,236.387 211,239 211,239 210,240 210,240  Z"/>

<path  fill="#97D6F9" stroke-width="0" stroke="#97D6F9" d = " M198 195 L199,196 C199,196 198,195 198,195  Z"/>

<path  fill-rule="evenodd" fill="#80CDF8" stroke-width="0" stroke="#80CDF8" d = " M274 209 C274,210.371 270,211.857 270,214.5 270,220.555 278.511,229.478 283,220.5 285.057,216.387 277.62,209 274,209  M246 239 L252,247.5 C259.095,254.595 265.342,260.921 273.5,265 281.614,269.057 314,263.809 314,252 314,252 317,236 317,236 317,236 314,234 314,234 308.129,234 303.13,235.815 297.5,233 291.818,230.159 291.351,220.202 289,215.5 285.588,208.676 272.503,197 265,197 265,197 264,197 264,197 264,197 265,201.5 265,201.5 264.141,203.218 262,195.684 262,195 262,195 259,195 259,195 254.893,195 252.629,205 250,205 250,205 249,206 249,206 249,206 248,207 248,207 248,207 248,208 248,208 248,208 247,209 247,209 247,209 244,216 244,216 244,216 243,217 243,217 243,217 243,218 243,218 243,218 244,234.5 244,234.5 244,234.5 246,239 246,239  Z"/>

<path  fill="#97D6F9" stroke-width="0" stroke="#97D6F9" d = " M191 197 L192,197 C192,197 192,196 192,196 192,196 191,197 191,197  Z"/>

<path  fill="#97D6F9" stroke-width="0" stroke="#97D6F9" d = " M264 197 L265,197 C265,197 264,196 264,196 264,196 264,197 264,197  Z"/>

<path  fill="#1F9866" stroke-width="0" stroke="#1F9866" d = " M343 209 C345.72,209 346.553,211 349,211 349,211 354,200 354,200 354,200 348,198 348,198 348,208.496 337,209.588 337,197 334.241,197 335,204.208 335,205 335,205 337,207 337,207 337,207 341,208 341,208 341,208 342,209 342,209 342,209 343,209 343,209  Z"/>

<path  fill="#1F9865" stroke-width="0" stroke="#1F9865" d = " M102 213 L96,214 C96,208.987 88,206.847 88,203 88,203 102,200 102,200 102,200 103,200 103,200 103,204.345 107,206.655 107,211 105.959,211 102,211.986 102,213  Z"/>

<path  fill="#1F9865" stroke-width="0" stroke="#1F9865" d = " M354 213 L361,214 C361,208.719 368,206.638 368,203 368,203 354,200 354,200 354,200 349,211 349,211 350.041,211 354,211.986 354,213  Z"/>

<path  fill="#219764" stroke-width="0" stroke="#219764" d = " M96 214 L83,217 C83,217 77,206 77,206 77,206 77,205 77,205 77,205 87,203 87,203 87,203 88,203 88,203 88,206.847 96,208.987 96,214  Z"/>

<path  fill="#219764" stroke-width="0" stroke="#219764" d = " M361 214 L374,217 C374,217 379,206 379,206 379,203.131 371.342,203 369,203 369,203 368,203 368,203 368,206.638 361,208.719 361,214  Z"/>

<path  fill="#8AD987" stroke-width="0" stroke="#8AD987" d = " M119 207 C125.412,207 123.653,217 127,217 127,217 124,205 124,205 124,205 122,205 122,205 122,205 119,207 119,207  Z"/>

<path  fill="#97D6F9" stroke-width="0" stroke="#97D6F9" d = " M250 205 L249,206 C249,206 250,205 250,205  Z"/>

<path  fill="#8AD987" stroke-width="0" stroke="#8AD987" d = " M337 207 C332.3,207 333.526,213 331,213 331,211.448 331.566,205 333,205 333,205 335,205 335,205 335,205 337,207 337,207  Z"/>

<path  fill="#209864" stroke-width="0" stroke="#209864" d = " M83 217 L80,218 C78.1274,218 74,208.9 74,207 74,207 77,206 77,206 77,206 83,217 83,217  Z"/>

<path  fill="#97D6F9" stroke-width="0" stroke="#97D6F9" d = " M209 207 L209,208 C209,208 207,206 207,206 207,206 209,207 209,207  Z"/>

<path  fill="#209864" stroke-width="0" stroke="#209864" d = " M374 217 L377,218 C377,214.086 383,210.736 383,207 383,207 380,206 380,206 380,206 379,206 379,206 379,206 374,217 374,217  Z"/>

<path  fill="#8AD987" stroke-width="0" stroke="#8AD987" d = " M117 207 L116,208 C116,208 117,207 117,207  Z"/>

<path  fill="#A0EE9C" stroke-width="0" stroke="#A0EE9C" d = " M118 227 L119,227 C124.541,227 131,234.333 131,224 129.572,224 127,219.178 127,218 127,218 127,217 127,217 123.653,217 125.412,207 119,207 119,207 117,207 117,207 117,207 116,208 116,208 116,208 115,208 115,208 115,208 114,209 114,209 114,211.042 110,213.955 110,216.5 110,219.632 115,222.519 115,225 115,225 116,225 116,225 116,225 118,227 118,227  Z"/>

<path  fill="#A0EE9C" stroke-width="0" stroke="#A0EE9C" d = " M333 229 L334,229 C334,229 335,228 335,228 335,228 336,228 336,228 336,228 337,227 337,227 337,227 338,227 338,227 338,227 339,226 339,226 339,226 341,225 341,225 341,225 342,224 342,224 342,224 343,223 343,223 343,223 344,223 344,223 344,223 345,221 345,221 345,221 346,214.5 346,214.5 345.035,212.57 343,210.841 343,209 343,209 342,209 342,209 342,209 341,208 341,208 341,208 337,207 337,207 332.3,207 333.526,213 331,213 331,214.048 331.473,216 330,216 330,216 329,218 329,218 329,218 329,219 329,219 329,219 328,220 328,220 328,220 327,221 327,221 327,221 327,222 327,222 327,222 326,223 326,223 326,223 325,225 325,225 325,230.913 329.224,229 333,229  Z"/>

<path  fill="#99D2BD" stroke-width="0" stroke="#99D2BD" d = " M115 208 L114,209 C114,209 115,208 115,208  Z"/>

<path  fill="#97D6F9" stroke-width="0" stroke="#97D6F9" d = " M248 208 L247,209 C247,209 248,208 248,208  Z"/>

<path  fill="#99D2BD" stroke-width="0" stroke="#99D2BD" d = " M341 208 L342,209 C342,209 341,208 341,208  Z"/>

<path  fill="#99D2BD" stroke-width="0" stroke="#99D2BD" d = " M102 213 C108.206,213 109.181,225 115,225 115,222.519 110,219.632 110,216.5 110,213.955 114,211.042 114,209 114,209 107,211 107,211 105.959,211 102,211.986 102,213  Z"/>

<path  fill="#CBCBC7" stroke-width="0" stroke="#CBCBC7" d = " M181 209 L175,213.5 L174,218 C174,237.392 197.188,209 181,209  Z"/>

<path  fill="#97D6F9" stroke-width="0" stroke="#97D6F9" d = " M209 209 L210,210 C210,210 209,209 209,209  Z"/>

<path  fill="#CBCBC7" stroke-width="0" stroke="#CBCBC7" d = " M274 209 C274,210.371 270,211.857 270,214.5 270,220.555 278.511,229.478 283,220.5 285.057,216.387 277.62,209 274,209  Z"/>

<path  fill="#99D2BD" stroke-width="0" stroke="#99D2BD" d = " M354 213 C349.246,213 348.495,221 345,221 345,221 346,214.5 346,214.5 345.035,212.57 343,210.841 343,209 345.72,209 346.553,211 349,211 350.041,211 354,211.986 354,213  Z"/>

<path  fill="#6ACAB9" stroke-width="0" stroke="#6ACAB9" d = " M123 259 L125,260 C125,260 133,256 133,256 133,256 135,255 135,255 135,248.051 138.992,246.484 135,238.5 133.253,235.005 127.525,231.512 124.5,230 124.5,230 119,227 119,227 119,227 118,227 118,227 118,227 116,225 116,225 116,225 115,225 115,225 109.181,225 108.206,213 102,213 102,213 96,214 96,214 96,214 83,217 83,217 83,217 80,218 80,218 80,224.803 97.1533,249 103,249 103,244.959 123,256.915 123,259  Z"/>

<path  fill="#8AD987" stroke-width="0" stroke="#8AD987" d = " M331 213 C329.527,213 330,214.952 330,216 331.473,216 331,214.048 331,213  Z"/>

<path  fill="#6ACAB9" stroke-width="0" stroke="#6ACAB9" d = " M331 260 L333,260 C333,257.926 350.263,247 352.5,247 352.5,247 354,249 354,249 354,249 359.5,244 359.5,244 364.992,241.254 377,223.689 377,218 377,218 374,217 374,217 374,217 361,214 361,214 361,214 354,213 354,213 349.246,213 348.495,221 345,221 345,221 344,223 344,223 344,223 343,223 343,223 343,223 342,224 342,224 342,224 341,225 341,225 341,225 339,226 339,226 339,226 338,227 338,227 338,227 337,227 337,227 337,227 336,228 336,228 336,228 335,228 335,228 335,228 334,229 334,229 334,229 333,229 333,229 333,230.76 328.712,232.394 327.5,233 323.793,234.854 320.762,238.976 319,242.5 316.235,248.03 323,252.105 323,256 323,256 331,260 331,260  Z"/>

<path  fill="#97D6F9" stroke-width="0" stroke="#97D6F9" d = " M212 215 L213,216 C213,216 212,215 212,215  Z"/>

<path  fill="#97D6F9" stroke-width="0" stroke="#97D6F9" d = " M245 256 L249,256 C249,250.578 246,244.759 246,239 246,239 244,234.5 244,234.5 244,234.5 243,218 243,218 243,218 239.5,220 239.5,220 239.5,220 235,216 235,216 235,219.806 236,223.751 236,227 236,232.376 238.844,256 245,256  Z"/>

<path  fill="#97D6F9" stroke-width="0" stroke="#97D6F9" d = " M244 216 L243,217 C243,217 244,216 244,216  Z"/>

<path  fill="#8AD987" stroke-width="0" stroke="#8AD987" d = " M330 216 L329,218 C329,218 330,216 330,216  Z"/>

<path  fill="#97D6F9" stroke-width="0" stroke="#97D6F9" d = " M208 256 L212,256 C217.208,256 221,230.214 221,225 221,225 221,217 221,217 219.93,217 218.538,221.019 216.5,220 216.5,220 213,217 213,217 213,217 213,232.5 213,232.5 211.93,234.64 211,236.387 211,239 211,239 210,240 210,240 210,240 208,256 208,256  Z"/>

<path  fill="#8AD987" stroke-width="0" stroke="#8AD987" d = " M127 218 C128.428,218 131,222.822 131,224 129.572,224 127,219.178 127,218  Z"/>

<path  fill="#8AD987" stroke-width="0" stroke="#8AD987" d = " M329 219 L328,220 C328,220 329,219 329,219  Z"/>

<path  fill="#8AD987" stroke-width="0" stroke="#8AD987" d = " M328 220 L327,221 C327,221 328,220 328,220  Z"/>

<path  fill="#99D2BD" stroke-width="0" stroke="#99D2BD" d = " M345 221 L344,223 C344,223 345,221 345,221  Z"/>

<path  fill="#8AD987" stroke-width="0" stroke="#8AD987" d = " M327 222 L326,223 C326,223 327,222 327,222  Z"/>

<path  fill="#8AD987" stroke-width="0" stroke="#8AD987" d = " M326 223 L325,225 C325,225 326,223 326,223  Z"/>

<path  fill="#99D2BD" stroke-width="0" stroke="#99D2BD" d = " M343 223 L342,224 C342,224 343,223 343,223  Z"/>

<path  fill="#99D2BD" stroke-width="0" stroke="#99D2BD" d = " M143 252 L135,255 C135,248.051 138.992,246.484 135,238.5 133.253,235.005 127.525,231.512 124.5,230 124.5,230 119,227 119,227 124.541,227 131,234.333 131,224 131,224 137,231 137,231 137,232.624 139,233.75 139,236 139,236 143,252 143,252  Z"/>

<path  fill="#99D2BD" stroke-width="0" stroke="#99D2BD" d = " M342 224 L341,225 C341,225 342,224 342,224  Z"/>

<path  fill="#99D2BD" stroke-width="0" stroke="#99D2BD" d = " M116 225 L118,227 C118,227 116,225 116,225  Z"/>

<path  fill="#96A6D3" stroke-width="0" stroke="#96A6D3" d = " M224 262 L223,263 C220.265,263 216.908,266.796 214.5,268 211.525,269.488 206.483,265.534 208,262.5 208,262.5 212,256 212,256 217.208,256 221,230.214 221,225 223.944,225 232.821,224.161 234.5,225 234.5,225 236,227 236,227 236,232.376 238.844,256 245,256 245,256 249,263.5 249,263.5 249,273.116 234.574,264.647 233,261.5 233,261.5 230,259 230,259 229.284,259 227,256.627 227,259 227,259 226,260 226,260 226,260 225,261 225,261 225,261 224,262 224,262  Z"/>

<path  fill="#99D2BD" stroke-width="0" stroke="#99D2BD" d = " M322 256 L323,256 C323,252.105 316.235,248.03 319,242.5 320.762,238.976 323.793,234.854 327.5,233 328.712,232.394 333,230.76 333,229 329.224,229 325,230.913 325,225 325,225 319,232 319,232 319,232 317,236 317,236 317,236 314,252 314,252 314,252 322,256 322,256  Z"/>

<path  fill="#99D2BD" stroke-width="0" stroke="#99D2BD" d = " M341 225 L339,226 C339,226 341,225 341,225  Z"/>

<path  fill="#99D2BD" stroke-width="0" stroke="#99D2BD" d = " M339 226 L338,227 C338,227 339,226 339,226  Z"/>

<path  fill="#99D2BD" stroke-width="0" stroke="#99D2BD" d = " M337 227 L336,228 C336,228 337,227 337,227  Z"/>

<path  fill="#99D2BD" stroke-width="0" stroke="#99D2BD" d = " M335 228 L334,229 C334,229 335,228 335,228  Z"/>

<path  fill="#97D6F9" stroke-width="0" stroke="#97D6F9" d = " M142 234 L139,236 C139,233.75 137,232.624 137,231 137,231 142,234 142,234  Z"/>

<path  fill="#97D6F9" stroke-width="0" stroke="#97D6F9" d = " M314 234 L317,236 C317,236 319,232 319,232 317.959,232 314,232.986 314,234  Z"/>

<path  fill="#A2B1D7" stroke-width="0" stroke="#A2B1D7" d = " M211 239 L210,240 C210,240 211,239 211,239  Z"/>

<path  fill="#A2B1D7" stroke-width="0" stroke="#A2B1D7" d = " M322 256 C319.287,256 317.989,260.511 316,262.5 311.119,267.381 306.157,270.171 300.5,273 293.052,276.724 266.02,272.26 259.5,269 257.081,267.791 253.03,273 251,273 251,266.664 249,262.229 249,256 249,250.578 246,244.759 246,239 246,239 252,247.5 252,247.5 259.095,254.595 265.342,260.921 273.5,265 281.614,269.057 314,263.809 314,252 314,252 322,256 322,256  Z"/>

<path  fill="#A2B1D7" stroke-width="0" stroke="#A2B1D7" d = " M208 256 C208,261.357 205,266.357 205,272 205,272 197.5,269 197.5,269 191.072,272.214 162.817,276.659 155.5,273 150.076,270.288 144.602,267.102 140,262.5 140,262.5 135,256 135,256 135,256 135,255 135,255 135,255 143,252 143,252 143,264.438 174.735,268.882 182.5,265 191.09,260.705 196.404,255.096 203.5,248 203.5,248 210,240 210,240 210,240 208,256 208,256  Z"/>

<path  fill="#CAC8C7" stroke-width="0" stroke="#CAC8C7" d = " M122 265 L123,265 C123,265 123,264 123,264 123,264 123,263 123,263 123,263 124,262 124,262 124,262 124,261 124,261 124,261 123,259 123,259 123,256.915 103,244.959 103,249 103,252.989 113.056,257.556 116.5,261 118.152,262.652 119.606,265 122,265  Z"/>

<path  fill="#CAC8C7" stroke-width="0" stroke="#CAC8C7" d = " M334 265 L335,265 C336.166,265 347.432,254.534 350.5,253 350.5,253 354,249 354,249 354,249 352.5,247 352.5,247 350.263,247 333,257.926 333,260 333,260 333,262 333,262 333,262 333,265 333,265 333,265 334,265 334,265  Z"/>

<path  fill="#99D2BD" stroke-width="0" stroke="#99D2BD" d = " M133 256 L135,256 C135,256 135,255 135,255 135,255 133,256 133,256  Z"/>

<path  fill="#7FCCF7" stroke-width="0" stroke="#7FCCF7" d = " M205 272 L206,277 C206,288.323 196.335,289.082 188.5,293 188.5,293 181.5,293 181.5,293 177.715,294.893 172.202,293.149 168.5,295 155.021,301.739 137.346,292.192 131,279.5 129.267,276.034 124,271.989 124,268 124,268 123,267 123,267 123,267 123,266 123,266 123,266 123,265 123,265 123,265 123,264 123,264 123,264 124,263 124,263 124,263 124,262 124,262 124,262 124,261 124,261 124,261 125,260 125,260 125,260 133,256 133,256 133,256 135,256 135,256 135,256 140,262.5 140,262.5 144.602,267.102 150.076,270.288 155.5,273 162.817,276.659 191.072,272.214 197.5,269 197.5,269 205,272 205,272  Z"/>

<path  fill="#8599CC" stroke-width="0" stroke="#8599CC" d = " M205 272 L206,277 C207.408,277 223,264.96 223,263 220.265,263 216.908,266.796 214.5,268 211.525,269.488 206.483,265.534 208,262.5 208,262.5 212,256 212,256 212,256 208,256 208,256 208,261.357 205,266.357 205,272  Z"/>

<path  fill="#8599CC" stroke-width="0" stroke="#8599CC" d = " M251 273 L250,277 C248.261,277 230,262.457 230,259 230,259 233,261.5 233,261.5 234.574,264.647 249,273.116 249,263.5 249,263.5 245,256 245,256 245,256 249,256 249,256 249,262.229 251,266.664 251,273  Z"/>

<path  fill="#7FCCF7" stroke-width="0" stroke="#7FCCF7" d = " M251 273 L250,277 C251.149,277 251.473,282.447 252,283.5 254.094,287.689 257.716,289.108 261.5,291 265.529,293.015 271.594,291.047 275.5,293 279.29,294.895 284.818,293.159 288.5,295 300.329,300.914 317.417,293.667 323,282.5 325.506,277.487 333,272.852 333,267 333,267 333,265 333,265 333,265 333,262 333,262 333,262 331,260 331,260 331,260 323,256 323,256 323,256 322,256 322,256 319.287,256 317.989,260.511 316,262.5 311.119,267.381 306.157,270.171 300.5,273 293.052,276.724 266.02,272.26 259.5,269 257.081,267.791 253.03,273 251,273  Z"/>

<path  fill="#99D2BD" stroke-width="0" stroke="#99D2BD" d = " M125 260 L124,261 C124,261 123,259 123,259 123,259 125,260 125,260  Z"/>

<path  fill="#8599CC" stroke-width="0" stroke="#8599CC" d = " M227 259 L226,260 C226,260 227,259 227,259  Z"/>

<path  fill="#8599CC" stroke-width="0" stroke="#8599CC" d = " M226 260 L225,261 C225,261 226,260 226,260  Z"/>

<path  fill="#99D2BD" stroke-width="0" stroke="#99D2BD" d = " M333 260 L333,262 C333,262 331,260 331,260 331,260 333,260 333,260  Z"/>

<path  fill="#8599CC" stroke-width="0" stroke="#8599CC" d = " M225 261 L224,262 C224,262 225,261 225,261  Z"/>

<path  fill="#99D2BD" stroke-width="0" stroke="#99D2BD" d = " M123 263 L124,263 C124,263 124,262 124,262 124,262 123,263 123,263  Z"/>

<path  fill="#8599CC" stroke-width="0" stroke="#8599CC" d = " M224 262 L223,263 C223,263 224,262 224,262  Z"/>

<path  fill="#97D6F9" stroke-width="0" stroke="#97D6F9" d = " M124 263 L123,264 C123,264 123,263 123,263 123,263 124,263 124,263  Z"/>

<path  fill="#99D2BD" stroke-width="0" stroke="#99D2BD" d = " M123 265 L123,266 C123,266 122,265 122,265 122,265 123,265 123,265  Z"/>

<path  fill="#97D6F9" stroke-width="0" stroke="#97D6F9" d = " M334 266 L333,267 C333,267 333,265 333,265 333,265 334,265 334,265 334,265 334,266 334,266  Z"/>

<path  fill="#99D2BD" stroke-width="0" stroke="#99D2BD" d = " M335 265 L334,266 C334,266 334,265 334,265 334,265 335,265 335,265  Z"/>

<path  fill="#97D6F9" stroke-width="0" stroke="#97D6F9" d = " M123 267 L124,268 C124,268 123,267 123,267  Z"/>

</g>
</svg>
