<svg xmlns="http://www.w3.org/2000/svg" xmlns:xlink="http://www.w3.org/1999/xlink"  viewBox="0 0 456 320">
<g>
<rect width="456" height="320" fill="#000000"  stroke-width="0" /> 
<path  fill-rule="evenodd" fill="#FEFA90" stroke-width="0" stroke="#FEFA90" d = " M207 68 C207,71.1072 197,69.7566 197,72.5 L201,73 C204.981,73 216.507,68 207,68  M229 67 C229,70.2705 239,71.3385 239,68.5 L229,67  M223 67 C223,69.3584 217,66.9093 217,68.5 217,72.9029 234.599,67 223,67  M171 85 C171.178,85 186.03,76.4704 187,75.5 187.618,74.8825 197,72.2365 197,73.5 197,75.3159 194.266,74.6168 193.5,75 190.075,76.7125 186.883,78.3084 183.5,80 173.237,85.1317 172.363,101.227 177,110.5 185.279,127.059 192.072,123.786 206.5,131 L218.5,133 C221.559,134.529 230.517,136.992 234.5,135 253.838,125.331 281,130.456 281,99 L281,87.5 C277.369,80.2372 265.677,76.5887 258.5,73 255.159,71.3294 249.915,72.7077 246.5,71 245.662,70.5811 244.081,68.7097 245.5,68 248.104,66.6978 252.531,70.0153 254.5,71 260.587,74.0436 268.413,73.9564 274.5,77 277.625,78.5625 281.119,85 285,85 285,78.6727 288,71.941 288,65 286.211,65 274.923,58.2115 272.5,57 257.914,49.7068 242.738,51 226,51 226,51 209.5,50 209.5,50 207.117,51.1915 203.775,49.8626 201.5,51 201.5,51 179.5,59 179.5,59 179.5,59 168,65 168,65 168,71.5652 171,78.6244 171,85  Z"/>

<path  fill="#FDFB8F" stroke-width="0" stroke="#FDFB8F" d = " M171 85 L168,87 C168,81.0164 159,76.2432 159,71 159,68.8215 165.831,65 168,65 168,71.5652 171,78.6244 171,85  Z"/>

<path  fill="#FDFB8F" stroke-width="0" stroke="#FDFB8F" d = " M285 85 L288,87 C288,81.3506 297,76.3382 297,71 297,68.6527 290.342,65 288,65 288,71.941 285,78.6727 285,85  Z"/>

<path  fill="#CBC9CC" stroke-width="0" stroke="#CBC9CC" d = " M223 67 C223,69.3584 217,66.9093 217,68.5 217,72.9029 234.599,67 223,67  Z"/>

<path  fill="#CBC9CC" stroke-width="0" stroke="#CBC9CC" d = " M229 67 C229,70.2705 239,71.3385 239,68.5 L229,67  Z"/>

<path  fill="#CBC9CC" stroke-width="0" stroke="#CBC9CC" d = " M207 68 C207,71.1072 197,69.7566 197,72.5 L201,73 C204.981,73 216.507,68 207,68  Z"/>

<path  fill-rule="evenodd" fill="#CBC9CC" stroke-width="0" stroke="#CBC9CC" d = " M293 171 C295.551,171 299,178.122 299,180 302.791,180 307.102,187 310.5,187 310.5,187 306,182.5 306,182.5 306,182.5 298.5,173 298.5,173 294.506,169.006 284.954,155.409 282,149.5 282,149.5 274,142 274,142 265.081,142 263.852,130 274,130 274,130 275,130 275,130 275,128.007 280.2,128.65 281.5,128 288.628,124.436 300.405,129.952 306.5,133 312.851,136.175 333.875,157.25 337,163.5 339.064,167.629 345.677,177.146 349,170.5 349,170.5 343,164.5 343,164.5 339.601,157.701 319,143.753 319,136 319,131.547 342.545,131.022 344.5,132 345.88,132.69 356,136.571 356,136.5 356,136.5 349.5,131 349.5,131 349.5,131 346.5,125 346.5,125 346.5,125 342.5,127 342.5,127 337.739,129.38 331.34,128.58 326.5,131 319.435,134.532 309.634,127.567 304.5,125 304.5,125 295,120 295,120 295,120 293,117.5 293,117.5 292.3,116.1 290.002,114.503 289,112.5 285.21,104.92 288,95.143 288,87 288,87 285,85 285,85 281.119,85 277.625,78.5625 274.5,77 268.413,73.9564 260.587,74.0436 254.5,71 252.531,70.0153 248.104,66.6978 245.5,68 244.081,68.7097 245.662,70.5811 246.5,71 249.915,72.7077 255.159,71.3294 258.5,73 265.677,76.5887 277.369,80.2372 281,87.5 281,87.5 281,99 281,99 281,130.456 253.838,125.331 234.5,135 230.517,136.992 221.559,134.529 218.5,133 218.5,133 206.5,131 206.5,131 192.072,123.786 185.279,127.059 177,110.5 172.363,101.227 173.237,85.1317 183.5,80 186.883,78.3084 190.075,76.7125 193.5,75 194.266,74.6168 197,75.3159 197,73.5 197,72.2365 187.618,74.8825 187,75.5 186.03,76.4704 171.178,85 171,85 171,85 168,87 168,87 168,92.7755 171.238,120 161,120 161,121.275 146.513,127.994 144.5,129 138.777,131.862 127.353,131.926 121.5,129 121.5,129 109.5,125 109.5,125 109.5,125 109,128.5 109,128.5 109,128.5 101,135.5 101,135.5 99.7811,137.938 107.494,133.503 108.5,133 111.311,131.594 138,130.826 138,136 138,136 137,137 137,137 137,140.844 118.835,158.665 115.5,162 112.387,165.113 106.911,168.321 109,172.5 109,172.5 113,172.5 113,172.5 116.246,166.008 123.699,161.102 127,154.5 127,154.5 137.5,145 137.5,145 137.5,145 149.5,133 149.5,133 149.5,133 166.5,127 166.5,127 169.053,125.724 182,128.114 182,130 195.755,130 188.601,142 183,142 183,142 173.5,151 173.5,151 167.021,157.479 160.929,166.642 157,174.5 157,174.5 149.5,184 149.5,184 150.952,184.726 154.802,181 157,181 157,179.031 160.732,171 163,171 163,167.88 183.38,158.56 186.5,157 193.962,153.269 209.935,158.282 216.5,155 216.5,155 227.5,152 227.5,152 227.5,152 234.5,154 234.5,154 240.716,157.108 250.261,152.88 256.5,156 256.5,156 269.5,156 269.5,156 269.5,156 273.5,159 273.5,159 276.224,160.362 293,167.549 293,171  M187 147 L186,150.5 C186.878,152.256 195.546,152.977 197.5,152 204.56,148.47 237.24,151 247,151 L267.5,152 C269.098,151.201 272.688,147 269,147 269,141.562 258.326,142.413 255.5,141 251.237,138.869 244.65,142.075 240.5,140 235.511,137.506 206.198,138.651 201.5,141 198.594,142.453 187,141.478 187,147  Z"/>

<path  fill="#FCFC90" stroke-width="0" stroke="#FCFC90" d = " M117 89 C127.809,89 143.705,103.205 151.5,111 153.938,113.438 161,116.473 161,120 171.238,120 168,92.7755 168,87 168,81.0164 159,76.2432 159,71 159,71 144.5,70 144.5,70 135.445,74.5276 117,76.2101 117,89  Z"/>

<path  fill="#FCFC90" stroke-width="0" stroke="#FCFC90" d = " M340 89 C331.05,89 323.073,97.2137 315.5,101 L306.5,110 C304.296,111.102 295,116.895 295,120 295,120 293,117.5 293,117.5 292.3,116.1 290.002,114.503 289,112.5 285.21,104.92 288,95.143 288,87 288,81.3506 297,76.3382 297,71 297,71 311.5,70 311.5,70 320.054,74.2768 340,76.3825 340,89  Z"/>

<path  fill="#FCFA91" stroke-width="0" stroke="#FCFA91" d = " M137 137 L122.5,144 C112.8,148.85 102.16,152.17 92.5,157 L85,161 C85,161 77.5,161 77.5,161 72.2685,158.384 72.7348,141.03 75,136.5 84.1407,118.219 86.8781,102.811 106.5,93 109.628,91.4361 113.341,89 117,89 127.809,89 143.705,103.205 151.5,111 153.938,113.438 161,116.473 161,120 161,121.275 146.513,127.994 144.5,129 138.777,131.862 127.353,131.926 121.5,129 121.5,129 109.5,125 109.5,125 109.5,125 109,128.5 109,128.5 109,128.5 101,135.5 101,135.5 99.7811,137.938 107.494,133.503 108.5,133 111.311,131.594 138,130.826 138,136 138,136 137,137 137,137  Z"/>

<path  fill="#FCFA91" stroke-width="0" stroke="#FCFA91" d = " M319 136 C322.566,136 328.252,141.376 331.5,143 337.28,145.89 367.658,161 372,161 372,161 378.5,161 378.5,161 384.603,157.949 383.447,140.394 381,135.5 373.691,120.883 368.751,101.126 352.5,93 350.171,91.8353 346.794,92.1472 344.5,91 344.5,91 340,89 340,89 331.05,89 323.073,97.2137 315.5,101 315.5,101 306.5,110 306.5,110 304.296,111.102 295,116.895 295,120 295,120 304.5,125 304.5,125 309.634,127.567 319.435,134.532 326.5,131 331.34,128.58 337.739,129.38 342.5,127 342.5,127 346.5,125 346.5,125 346.5,125 349.5,131 349.5,131 349.5,131 356,136.5 356,136.5 356,136.571 345.88,132.69 344.5,132 342.545,131.022 319,131.547 319,136  Z"/>

<path  fill="#FFFB8E" stroke-width="0" stroke="#FFFB8E" d = " M127 195 C123.914,195 121.8,200.35 118.5,202 L115,204 C97.9155,204 87.7165,181.933 81,168.5 79.4482,165.396 85,163.377 85,161 85,161 92.5,157 92.5,157 102.16,152.17 112.8,148.85 122.5,144 122.5,144 137,137 137,137 137,140.844 118.835,158.665 115.5,162 112.387,165.113 106.911,168.321 109,172.5 109,172.5 113,172.5 113,172.5 116.246,166.008 123.699,161.102 127,154.5 127,154.5 137.5,145 137.5,145 137.5,145 149.5,133 149.5,133 149.5,133 166.5,127 166.5,127 169.053,125.724 182,128.114 182,130 182,130 182,131 182,131 162.122,131 143.301,161.899 136,176.5 133.093,182.314 127,188.163 127,195  Z"/>

<path  fill="#FFFB8E" stroke-width="0" stroke="#FFFB8E" d = " M329 194 L333.5,199 L342,204 C357.399,204 369.254,181.992 375,170.5 376.993,166.514 372,163.959 372,161 367.658,161 337.28,145.89 331.5,143 328.252,141.376 322.566,136 319,136 319,143.753 339.601,157.701 343,164.5 343,164.5 349,170.5 349,170.5 345.677,177.146 339.064,167.629 337,163.5 333.875,157.25 312.851,136.175 306.5,133 300.405,129.952 288.628,124.436 281.5,128 280.2,128.65 275,128.007 275,130 275,130 275,131 275,131 293.157,131 312.869,161.238 320,175.5 322.673,180.847 329,187.744 329,194  Z"/>

<path  fill="#FBFC91" stroke-width="0" stroke="#FBFC91" d = " M182 131 L183,142 C188.601,142 195.755,130 182,130 182,130 182,131 182,131  Z"/>

<path  fill="#FBFC91" stroke-width="0" stroke="#FBFC91" d = " M275 131 C275,134.249 274,138.194 274,142 265.081,142 263.852,130 274,130 274,130 275,131 275,131  Z"/>

<path  fill="#FDFB90" stroke-width="0" stroke="#FDFB90" d = " M275 130 L275,131 C275,131 274,130 274,130 274,130 275,130 275,130  Z"/>

<path  fill-rule="evenodd" fill="#FFF990" stroke-width="0" stroke="#FFF990" d = " M145 186 C145,187.93 146.93,186 145,186  M146 185 C146,186.93 147.93,185 146,185  M147 184 C147,186.091 150.746,184 147,184  M127 195 L130.5,201 C134.027,202.763 136.626,201 140,201 144.706,201 155.967,183 156,183 156,183 157,181 157,181 154.802,181 150.952,184.726 149.5,184 149.5,184 157,174.5 157,174.5 160.929,166.642 167.021,157.479 173.5,151 173.5,151 183,142 183,142 183,142 182,131 182,131 162.122,131 143.301,161.899 136,176.5 133.093,182.314 127,188.163 127,195  Z"/>

<path  fill="#FFF990" stroke-width="0" stroke="#FFF990" d = " M329 194 C329,207.647 318.192,199 314,199 311.531,199 301,185.549 301,183 301,183 299,181 299,181 299,181 299,180 299,180 302.791,180 307.102,187 310.5,187 310.5,187 306,182.5 306,182.5 306,182.5 298.5,173 298.5,173 294.506,169.006 284.954,155.409 282,149.5 282,149.5 274,142 274,142 274,138.194 275,134.249 275,131 293.157,131 312.869,161.238 320,175.5 322.673,180.847 329,187.744 329,194  Z"/>

<path  fill="#FFFB8E" stroke-width="0" stroke="#FFFB8E" d = " M138 136 L137,137 C137,137 138,136 138,136  Z"/>

<path  fill="#FBFC91" stroke-width="0" stroke="#FBFC91" d = " M187 147 L197.5,143 C202.002,140.749 224.684,141 231.5,141 L245.5,141 C246.301,141.4 268.834,147 269,147 269,141.562 258.326,142.413 255.5,141 251.237,138.869 244.65,142.075 240.5,140 235.511,137.506 206.198,138.651 201.5,141 198.594,142.453 187,141.478 187,147  Z"/>

<path  fill="#FFFA8F" stroke-width="0" stroke="#FFFA8F" d = " M187 147 L197.5,143 C202.002,140.749 224.684,141 231.5,141 L245.5,141 C246.301,141.4 268.834,147 269,147 272.688,147 269.098,151.201 267.5,152 267.5,152 247,151 247,151 237.24,151 204.56,148.47 197.5,152 195.546,152.977 186.878,152.256 186,150.5 186,150.5 187,147 187,147  Z"/>

<path  fill="#FFFA8F" stroke-width="0" stroke="#FFFA8F" d = " M163 171 C165.203,171 167.569,174.465 170.5,173 172.749,171.875 188.333,167.917 190.5,169 201.957,174.728 234.492,171 249,171 256.202,171 269.353,167.426 274.5,170 277.614,171.557 284.551,173 288,173 289.041,173 293,172.014 293,171 293,167.549 276.224,160.362 273.5,159 273.5,159 269.5,156 269.5,156 269.5,156 256.5,156 256.5,156 250.261,152.88 240.716,157.108 234.5,154 234.5,154 227.5,152 227.5,152 227.5,152 216.5,155 216.5,155 209.935,158.282 193.962,153.269 186.5,157 183.38,158.56 163,167.88 163,171  Z"/>

<path  fill="#FDFC8F" stroke-width="0" stroke="#FDFC8F" d = " M161 183 C175.807,183 201.566,186.033 213.5,192 L233.5,192 C254.694,192 271.842,183 295,183 295,183 299,181 299,181 299,181 299,180 299,180 299,178.122 295.551,171 293,171 293,172.014 289.041,173 288,173 284.551,173 277.614,171.557 274.5,170 269.353,167.426 256.202,171 249,171 234.492,171 201.957,174.728 190.5,169 188.333,167.917 172.749,171.875 170.5,173 167.569,174.465 165.203,171 163,171 160.732,171 157,179.031 157,181 157,181 161,183 161,183  Z"/>

<path  fill="#F0F080" stroke-width="0" stroke="#F0F080" d = " M156 183 L161,183 C161,183 157,181 157,181 157,181 156,183 156,183  Z"/>

<path  fill="#F0F080" stroke-width="0" stroke="#F0F080" d = " M295 183 C297.72,183 298.553,183 301,183 301,183 299,181 299,181 299,181 295,183 295,183  Z"/>

<path  fill="#CBC9CC" stroke-width="0" stroke="#CBC9CC" d = " M147 184 C147,186.091 150.746,184 147,184  Z"/>

<path  fill="#CBC9CC" stroke-width="0" stroke="#CBC9CC" d = " M146 185 C146,186.93 147.93,185 146,185  Z"/>

<path  fill="#CBC9CC" stroke-width="0" stroke="#CBC9CC" d = " M145 186 C145,187.93 146.93,186 145,186  Z"/>

<path  fill="#FFA2D2" stroke-width="0" stroke="#FFA2D2" d = " M176 198 L175,199 C170.99,199 155.73,200.041 160,191.5 160,191.5 162,189 162,189 162,189 163,189 163,189 163,189 164,188 164,188 165.819,188 168.591,187 171,187 171,187 176.5,190 176.5,190 176.5,190 179,193 179,193 179,193 179,195 179,195 179,195 177,197 177,197 177,197 176,198 176,198  Z"/>

<path  fill="#FF9BCD" stroke-width="0" stroke="#FF9BCD" d = " M188 189 C183.854,189 179,187.667 179,193 179,193 176.5,190 176.5,190 176.5,190 171,187 171,187 175.341,187 179.695,188 183.5,188 184.69,188 188,187.386 188,189  Z"/>

<path  fill="#FF9BCD" stroke-width="0" stroke="#FF9BCD" d = " M268 189 C270.554,189 278,187.89 278,192 278,192 286,187 286,187 281.586,187 276.823,188 273,188 271.765,188 268,187.357 268,189  Z"/>

<path  fill="#FFA2D2" stroke-width="0" stroke="#FFA2D2" d = " M281 198 C284.312,198 289.038,199 293,199 293,199 296,196.5 296,196.5 296,196.5 295,189 295,189 295,189 292,188 292,188 292,188 291,187 291,187 291,187 286,187 286,187 286,187 278,192 278,192 278,192 278,194 278,194 278,194 279,197 279,197 279,197 281,198 281,198  Z"/>

<path  fill="#FF9BCD" stroke-width="0" stroke="#FF9BCD" d = " M291 187 L292,188 C292,188 291,187 291,187  Z"/>

<path  fill="#FF9BCD" stroke-width="0" stroke="#FF9BCD" d = " M164 188 L163,189 C163,189 164,188 164,188  Z"/>

<path  fill="#FF9BCD" stroke-width="0" stroke="#FF9BCD" d = " M135 217 C130.902,217 129.734,224 127,224 127,214.9 153.481,189 162,189 162,189 160,191.5 160,191.5 155.73,200.041 170.99,199 175,199 175,205.98 183,207.191 183,202 183,202 185,203 185,203 185,204.674 184,205.326 184,207 180.011,207 178,211.646 178,215 176.243,215 173.716,208.931 173,207.5 170.467,202.434 164.767,203 160,203 160,203 165,200.5 165,200.5 165,197.239 151,197.047 151,201 151,201 150,202 150,202 143.654,202 135,210.69 135,217  Z"/>

<path  fill="#FEB1D9" stroke-width="0" stroke="#FEB1D9" d = " M183 202 L185,203 C187.518,203 189.286,201 191,201 191,201 192,200 192,200 192,200 193,199 193,199 193,199 195,198 195,198 195,195.75 197,194.624 197,193 197,193 196,190 196,190 196,190 195,190 195,190 195,190 194,189 194,189 194,189 188,189 188,189 183.854,189 179,187.667 179,193 179,193 179,195 179,195 179,195 179,197 179,197 180.811,197 183,200.438 183,202  Z"/>

<path  fill="#FF9BCD" stroke-width="0" stroke="#FF9BCD" d = " M194 189 L195,190 C195,190 194,189 194,189  Z"/>

<path  fill="#FF9BCD" stroke-width="0" stroke="#FF9BCD" d = " M262 189 L261,190 C261,190 262,189 262,189  Z"/>

<path  fill="#FEB1D9" stroke-width="0" stroke="#FEB1D9" d = " M274 201 L271,203 C267.855,203 266.167,200 264,200 264,200 262,198 262,198 262,198 259,193 259,193 259,193 259,191 259,191 259,191 261,190 261,190 261,190 262,189 262,189 262,189 268,189 268,189 270.554,189 278,187.89 278,192 278,192 278,194 278,194 276.527,194 277,195.952 277,197 275.288,197 274,199.571 274,201  Z"/>

<path  fill="#FF9BCD" stroke-width="0" stroke="#FF9BCD" d = " M332 234 L333,234 C333,219.415 318.52,202.51 305.5,196 301.978,194.239 299.154,189 295,189 295,189 296,196.5 296,196.5 296,196.5 293,199 293,199 295.131,199 305,196.508 305,201 305,201 306,201 306,201 306,201 307,202 307,202 311.598,202 322,211.132 322,216 322,217.01 332,226.372 332,234  Z"/>

<path  fill="#FF9BCD" stroke-width="0" stroke="#FF9BCD" d = " M215 196 C209.355,196 204.956,199 200,199 200,199 204,195.5 204,195.5 205.541,192.417 198.276,193 197,193 197,193 196,190 196,190 196.258,190 210.069,192.785 210.5,193 210.5,193 215,196 215,196  Z"/>

<path  fill="#FF9BCD" stroke-width="0" stroke="#FF9BCD" d = " M261 190 L259,191 C259,191 261,190 261,190  Z"/>

<path  fill="#FF9BCD" stroke-width="0" stroke="#FF9BCD" d = " M260 199 L261,201 C255.238,201 248.679,196 241,196 241,194.282 256.473,191 259,191 259,191 259,193 259,193 249.393,193 252.642,199 260,199  Z"/>

<path  fill="#FFB0D7" stroke-width="0" stroke="#FFB0D7" d = " M199 199 L200,199 C200,199 204,195.5 204,195.5 205.541,192.417 198.276,193 197,193 197,194.624 195,195.75 195,198 195,198 195,199 195,199 195,199 196,199 196,199 196,199 199,199 199,199  Z"/>

<path  fill="#FFB0D7" stroke-width="0" stroke="#FFB0D7" d = " M260 199 L262,199 C262,199 262,198 262,198 262,198 259,193 259,193 249.393,193 252.642,199 260,199  Z"/>

<path  fill="#FF9BCD" stroke-width="0" stroke="#FF9BCD" d = " M277 197 L279,197 C279,197 278,194 278,194 276.527,194 277,195.952 277,197  Z"/>

<path  fill="#F0F080" stroke-width="0" stroke="#F0F080" d = " M314 199 L316.5,202 C324.001,209.501 333.144,204 342,204 342,204 333.5,199 333.5,199 333.5,199 329,194 329,194 329,207.647 318.192,199 314,199  Z"/>

<path  fill="#F0F080" stroke-width="0" stroke="#F0F080" d = " M140 201 C140,208.604 126.198,205 122,205 120.594,205 115,205.714 115,204 115,204 118.5,202 118.5,202 121.8,200.35 123.914,195 127,195 127,195 130.5,201 130.5,201 134.027,202.763 136.626,201 140,201  Z"/>

<path  fill="#FF9BCD" stroke-width="0" stroke="#FF9BCD" d = " M177 197 L179,197 C179,197 179,195 179,195 179,195 177,197 177,197  Z"/>

<path  fill="#FDA5D1" stroke-width="0" stroke="#FDA5D1" d = " M198 220 L199,220 C199,220 200,219 200,219 200,219 201,219 201,219 201,219 205,214 205,214 205,201.999 220,199.204 220,210 220,211.922 227,213.722 227,210 227,210 218,198 218,198 218,198 216,196 216,196 216,196 215,196 215,196 209.355,196 204.956,199 200,199 200,199 199,199 199,199 199,199 195,201 195,201 195,201 184,207 184,207 180.011,207 178,211.646 178,215 178,215 180,220 180,220 180,220 182,221 182,221 182,221 188.5,219 188.5,219 188.5,219 198,220 198,220  Z"/>

<path  fill="#FF9BCD" stroke-width="0" stroke="#FF9BCD" d = " M218 197 L218,198 C218,198 216,196 216,196 216,196 218,197 218,197  Z"/>

<path  fill="#AAA9A7" stroke-width="0" stroke="#AAA9A7" d = " M220 196 L219,197 C219,197 220,196 220,196  Z"/>

<path  fill="#A9AAA8" stroke-width="0" stroke="#A9AAA8" d = " M219 197 C219,207.177 236.013,199 237,199 237,199 237,196 237,196 237,196 220,196 220,196 220,196 219,197 219,197  Z"/>

<path  fill="#AAA9A7" stroke-width="0" stroke="#AAA9A7" d = " M239 197 L237,199 C237,199 237,196 237,196 237,196 239,197 239,197  Z"/>

<path  fill="#FF9BCD" stroke-width="0" stroke="#FF9BCD" d = " M241 196 L239,197 C239,197 241,196 241,196  Z"/>

<path  fill="#FDA5D1" stroke-width="0" stroke="#FDA5D1" d = " M274 221 L275,221 C275,221 277,219 277,219 277,219 278,216 278,216 278,216 279,215 279,215 279,215 279,214 279,214 279,211.159 274.895,207 272,207 272,207 263,202 263,202 263,202 262,201 262,201 262,201 261,201 261,201 255.238,201 248.679,196 241,196 241,196 239,197 239,197 239,197 237,199 237,199 237,203.191 229,207.497 229,210 229,214.86 235.912,210 237,210 237,197.934 252,202.907 252,214 252,214 255,219 255,219 255,219 256,219 256,219 256,219 258,220 258,220 263.62,220 267.499,220 273,220 273,220 274,221 274,221  Z"/>

<path  fill="#FF9BCD" stroke-width="0" stroke="#FF9BCD" d = " M177 197 L176,198 C176,198 177,197 177,197  Z"/>

<path  fill="#FDA5D0" stroke-width="0" stroke="#FDA5D0" d = " M175 199 C175,205.98 183,207.191 183,202 183,200.438 180.811,197 179,197 179,197 177,197 177,197 177,197 176,198 176,198 176,198 175,199 175,199  Z"/>

<path  fill="#AAA9A7" stroke-width="0" stroke="#AAA9A7" d = " M227 210 L229,210 C229,207.497 237,203.191 237,199 236.013,199 219,207.177 219,197 219,197 218,197 218,197 218,197 218,198 218,198 218,198 227,210 227,210  Z"/>

<path  fill="#FDA5D0" stroke-width="0" stroke="#FDA5D0" d = " M281 198 C281,206.911 274,207.957 274,201 274,199.571 275.288,197 277,197 277,197 279,197 279,197 279,197 281,198 281,198  Z"/>

<path  fill="#C8CACA" stroke-width="0" stroke="#C8CACA" d = " M155 205 L157,205 C157,205 158,204 158,204 158,204 159,203 159,203 159,203 160,203 160,203 160,203 165,200.5 165,200.5 165,197.239 151,197.047 151,201 151,201 154,201 154,201 159.278,201 155,202.545 155,205  Z"/>

<path  fill="#FF9BCD" stroke-width="0" stroke="#FF9BCD" d = " M176 198 L175,199 C175,199 176,198 176,198  Z"/>

<path  fill="#FF9BCD" stroke-width="0" stroke="#FF9BCD" d = " M193 199 L195,199 C195,199 195,198 195,198 195,198 193,199 193,199  Z"/>

<path  fill="#FF9BCD" stroke-width="0" stroke="#FF9BCD" d = " M262 199 L264,200 C264,200 262,198 262,198 262,198 262,199 262,199  Z"/>

<path  fill="#FF9BCD" stroke-width="0" stroke="#FF9BCD" d = " M272 207 C274.895,207 279,211.159 279,214 281.058,214 284.209,207.082 285,205.5 286.62,202.26 292.77,203 296,203 296,199.496 293,203.325 293,199 289.038,199 284.312,198 281,198 281,206.911 274,207.957 274,201 274,201 271,203 271,203 271,204.046 272,204.122 272,207  Z"/>

<path  fill="#C8CACA" stroke-width="0" stroke="#C8CACA" d = " M305 208 L307,209 C307,205.298 293.563,201 305,201 305,196.508 295.131,199 293,199 293,203.325 296,199.496 296,203 296,203 297,203 297,203 298.238,203 300,203.423 300,205 300,205 302,206 302,206 302,206 303,207 303,207 303,207 304,207 304,207 304,207 305,208 305,208  Z"/>

<path  fill="#FF9BCD" stroke-width="0" stroke="#FF9BCD" d = " M193 199 L192,200 C192,200 193,199 193,199  Z"/>

<path  fill="#FFB2D6" stroke-width="0" stroke="#FFB2D6" d = " M185 203 C185,204.674 184,205.326 184,207 184,207 195,201 195,201 195,201 196,199 196,199 196,199 195,199 195,199 195,199 193,199 193,199 193,199 192,200 192,200 192,200 191,201 191,201 189.286,201 187.518,203 185,203  Z"/>

<path  fill="#FF9BCD" stroke-width="0" stroke="#FF9BCD" d = " M199 199 L195,201 C195,201 196,199 196,199 196,199 199,199 199,199  Z"/>

<path  fill="#FFB2D6" stroke-width="0" stroke="#FFB2D6" d = " M271 203 C271,204.046 272,204.122 272,207 272,207 263,202 263,202 263,202 262,201 262,201 262,201 261,201 261,201 261,201 260,199 260,199 260,199 262,199 262,199 262,199 264,200 264,200 266.167,200 267.855,203 271,203  Z"/>

<path  fill="#FF9BCD" stroke-width="0" stroke="#FF9BCD" d = " M192 200 L191,201 C191,201 192,200 192,200  Z"/>

<path  fill="#C8CACA" stroke-width="0" stroke="#C8CACA" d = " M151 201 L150,202 C150,202 151,201 151,201  Z"/>

<path  fill="#FDA3D1" stroke-width="0" stroke="#FDA3D1" d = " M143 214 C139.761,214 138.425,217 135,217 135,210.69 143.654,202 150,202 150,202 151,201 151,201 151,201 154,201 154,201 159.278,201 155,202.545 155,205 155,205 153,206 153,206 153,206 152,207 152,207 152,207 151,207 151,207 151,207 150,208 150,208 150,208 149,209 149,209 147.253,209 147,209.253 147,211 147,211 146,211 146,211 146,211 145,212 145,212 145,212 144,213 144,213 144,213 143,214 143,214  Z"/>

<path  fill="#FF9BCD" stroke-width="0" stroke="#FF9BCD" d = " M262 201 L263,202 C263,202 262,201 262,201  Z"/>

<path  fill="#FDA3D1" stroke-width="0" stroke="#FDA3D1" d = " M308 209 C309.873,209 313.769,216 322,216 322,211.132 311.598,202 307,202 307,202 306,201 306,201 306,201 305,201 305,201 293.563,201 307,205.298 307,209 307,209 308,209 308,209  Z"/>

<path  fill="#C8CACA" stroke-width="0" stroke="#C8CACA" d = " M306 201 L307,202 C307,202 306,201 306,201  Z"/>

<path  fill="#FF9BCD" stroke-width="0" stroke="#FF9BCD" d = " M159 203 L158,204 C158,204 159,203 159,203  Z"/>

<path  fill="#FDA5D2" stroke-width="0" stroke="#FDA5D2" d = " M142 269 L148,269 C158.549,269 155.535,248.43 159,241.5 163.002,233.496 180,231.5 180,222 180,222 180,220 180,220 180,220 178,215 178,215 176.243,215 173.716,208.931 173,207.5 170.467,202.434 164.767,203 160,203 160,203 159,203 159,203 159,203 158,204 158,204 158,204 157,205 157,205 157,205 155,205 155,205 155,205 154,206 154,206 154,206 153,207 153,207 153,207 152,207 152,207 152,207 151,208 151,208 151,208 150,209 150,209 150,209 149,209 149,209 149,209 147,211 147,211 147,211 146,212 146,212 146,212 145,213 145,213 145,213 144,214 144,214 144,214 143,215 143,215 143,216.59 137.338,221 136,221 136,221 135,222 135,222 135,222 134,223 134,223 134,223 133,224 133,224 133,224 131,228 131,228 131,228 130,229 130,229 130,229 129,231 129,231 129,231 128,241 128,241 128,241 128,249 128,249 128,249 128,250 128,250 128,250 129,251 129,251 129,251 129,253 129,253 129,253 131,257 131,257 131,257 131,259 131,259 131,259 132,260 132,260 132,260 132,261 132,261 132,261 133,262 133,262 133,262 133,263 133,263 133,263 135,265 135,265 135,265 135,266 135,266 135,266 136,267 136,267 136,267 138,268 138,268 138,268 139,269 139,269 139,269 142,269 142,269  Z"/>

<path  fill="#FDB1D8" stroke-width="0" stroke="#FDB1D8" d = " M213 213 L214,213 C214,213 220,210 220,210 220,199.204 205,201.999 205,214 205,214 213,213 213,213  Z"/>

<path  fill="#FDB1D8" stroke-width="0" stroke="#FDB1D8" d = " M243 213 L252,214 C252,202.907 237,197.934 237,210 237,210 242,213 242,213 242,213 243,213 243,213  Z"/>

<path  fill="#FDA5D2" stroke-width="0" stroke="#FDA5D2" d = " M315 269 L317,269 C317,269 318,268 318,268 318,268 322,265 322,265 322,265 323,263 323,263 323,263 324,261 324,261 324,261 325,259 325,259 325,259 325,258 325,258 325,258 326,257 326,257 326,257 326,255 326,255 326,255 327,254 327,254 327,254 327,253 327,253 327,253 328,251 328,251 328,251 328,250 328,250 328,250 329,249 329,249 329,249 328,233 328,233 328,233 327,232 327,232 327,232 326,228 326,228 326,228 325,227 325,227 325,227 325,226 325,226 325,226 323,224 323,224 323,224 322,223 322,223 322,223 321,222 321,222 321,222 309,211 309,211 309,211 307,209 307,209 307,209 305,208 305,208 305,208 304,207 304,207 304,207 303,207 303,207 303,207 302,206 302,206 302,206 300,205 300,205 300,205 297,203 297,203 297,203 296,203 296,203 292.77,203 286.62,202.26 285,205.5 284.209,207.082 281.058,214 279,214 279,214 279,215 279,215 279,215 278,216 278,216 278,216 277,219 277,219 277,219 277,223 277,223 277,229.365 293.778,235.056 297,241.5 300.043,247.587 298.716,269 308,269 308,269 315,269 315,269  Z"/>

<path  fill="#FF9BCD" stroke-width="0" stroke="#FF9BCD" d = " M297 203 C298.238,203 300,203.423 300,205 300,205 297,203 297,203  Z"/>

<path  fill="#FF9BCD" stroke-width="0" stroke="#FF9BCD" d = " M158 204 L157,205 C157,205 158,204 158,204  Z"/>

<path  fill="#C8CACA" stroke-width="0" stroke="#C8CACA" d = " M153 206 L154,206 C154,206 155,205 155,205 155,205 153,206 153,206  Z"/>

<path  fill="#C8CACA" stroke-width="0" stroke="#C8CACA" d = " M152 207 L153,207 C153,207 153,206 153,206 153,206 152,207 152,207  Z"/>

<path  fill="#FF9BCD" stroke-width="0" stroke="#FF9BCD" d = " M154 206 L153,207 C153,207 153,206 153,206 153,206 154,206 154,206  Z"/>

<path  fill="#FF9BCD" stroke-width="0" stroke="#FF9BCD" d = " M302 206 L303,207 C303,207 302,206 302,206  Z"/>

<path  fill="#C8CACA" stroke-width="0" stroke="#C8CACA" d = " M150 208 L151,208 C151,208 151,207 151,207 151,207 150,208 150,208  Z"/>

<path  fill="#FF9BCD" stroke-width="0" stroke="#FF9BCD" d = " M152 207 L151,208 C151,208 151,207 151,207 151,207 152,207 152,207  Z"/>

<path  fill="#FF9BCD" stroke-width="0" stroke="#FF9BCD" d = " M304 207 L305,208 C305,208 304,207 304,207  Z"/>

<path  fill="#C8CACA" stroke-width="0" stroke="#C8CACA" d = " M149 209 L150,209 C150,209 150,208 150,208 150,208 149,209 149,209  Z"/>

<path  fill="#FF9BCD" stroke-width="0" stroke="#FF9BCD" d = " M151 208 L150,209 C150,209 150,208 150,208 150,208 151,208 151,208  Z"/>

<path  fill="#C8CACA" stroke-width="0" stroke="#C8CACA" d = " M149 209 C147.253,209 147,209.253 147,211 147,211 149,209 149,209  Z"/>

<path  fill="#FF9BCD" stroke-width="0" stroke="#FF9BCD" d = " M308 209 L309,211 C309,211 307,209 307,209 307,209 308,209 308,209  Z"/>

<path  fill="#C8CACA" stroke-width="0" stroke="#C8CACA" d = " M317 274 C317,271.336 311.176,275 310,275 310,272.034 315,270.024 315,269 315,269 317,269 317,269 317,269 318,268 318,268 318,268 322,265 322,265 322,265 323,263 323,263 323,263 324,261 324,261 324,261 325,259 325,259 325,259 325,258 325,258 325,258 326,257 326,257 326,257 326,255 326,255 326,255 327,254 327,254 327,254 327,253 327,253 327,253 328,251 328,251 328,251 328,250 328,250 328,250 329,249 329,249 329,249 328,233 328,233 328,233 327,232 327,232 327,232 326,228 326,228 326,228 325,227 325,227 325,227 325,226 325,226 325,226 323,224 323,224 323,224 322,223 322,223 322,223 321,222 321,222 321,222 309,211 309,211 309,211 308,209 308,209 309.873,209 313.769,216 322,216 322,217.01 332,226.372 332,234 332,234 333,236 333,236 333,236 333,238 333,238 333,238 333,249 333,249 333,249 332,251 332,251 332,251 332,255 332,255 330.527,255 331,256.952 331,258 331,258 329,262 329,262 329,262 329,263 329,263 329,263 328,264 328,264 328,264 327,266 327,266 327,266 326,267 326,267 326,267 325,269 325,269 323.253,269 323,269.253 323,271 323,271 317,274 317,274  Z"/>

<path  fill="#FF9BCD" stroke-width="0" stroke="#FF9BCD" d = " M233 255 L229,256 C229,250.234 227,249.3 227,255 227,255 224,255 224,255 224,255 226,248 226,248 227.643,248 227,244.235 227,243 227,238.902 229.903,235 226,235 226,235 221,234 221,234 221,234 221,231 221,231 231.797,231 228.452,215.976 222.5,213 222.5,213 214,213 214,213 214,213 220,210 220,210 220,211.922 227,213.722 227,210 227,210 229,210 229,210 229,214.86 235.912,210 237,210 237,210 242,213 242,213 242,213 233.5,213 233.5,213 228.498,215.501 225.376,231 235,231 235,231 235,234 235,234 233.855,234 231,233.421 231,235 231,235 229.5,234 229.5,234 228.952,234 228.075,248 230,248 230,250.607 233,252.913 233,255  Z"/>

<path  fill="#C8CACA" stroke-width="0" stroke="#C8CACA" d = " M145 212 L146,212 C146,212 146,211 146,211 146,211 145,212 145,212  Z"/>

<path  fill="#FF9BCD" stroke-width="0" stroke="#FF9BCD" d = " M147 211 L146,212 C146,212 146,211 146,211 146,211 147,211 147,211  Z"/>

<path  fill="#C8CACA" stroke-width="0" stroke="#C8CACA" d = " M144 213 L145,213 C145,213 145,212 145,212 145,212 144,213 144,213  Z"/>

<path  fill="#FF9BCD" stroke-width="0" stroke="#FF9BCD" d = " M146 212 L145,213 C145,213 145,212 145,212 145,212 146,212 146,212  Z"/>

<path  fill="#C8CACA" stroke-width="0" stroke="#C8CACA" d = " M143 214 L144,214 C144,214 144,213 144,213 144,213 143,214 143,214  Z"/>

<path  fill="#FF9BCD" stroke-width="0" stroke="#FF9BCD" d = " M145 213 L144,214 C144,214 144,213 144,213 144,213 145,213 145,213  Z"/>

<path  fill="#FF9BCD" stroke-width="0" stroke="#FF9BCD" d = " M201 219 C205.91,219 206.54,227 211,227 211,223.973 207.161,220.179 209,216.5 209,216.5 213,213 213,213 213,213 205,214 205,214 205,214 201,219 201,219  Z"/>

<path  fill="#FEB1D7" stroke-width="0" stroke="#FEB1D7" d = " M211 227 C214.099,227 216.883,231 221,231 231.797,231 228.452,215.976 222.5,213 222.5,213 214,213 214,213 214,213 213,213 213,213 213,213 209,216.5 209,216.5 207.161,220.179 211,223.973 211,227  Z"/>

<path  fill="#FEB1D7" stroke-width="0" stroke="#FEB1D7" d = " M245 227 C243.117,227 239.679,231 235,231 225.376,231 228.498,215.501 233.5,213 233.5,213 242,213 242,213 242,213 243,213 243,213 243,213 247,215.5 247,215.5 248.986,219.473 245,224.053 245,227  Z"/>

<path  fill="#FF9BCD" stroke-width="0" stroke="#FF9BCD" d = " M245 227 L246,227 C248.83,227 250.54,219 255,219 255,219 252,214 252,214 252,214 243,213 243,213 243,213 247,215.5 247,215.5 248.986,219.473 245,224.053 245,227  Z"/>

<path  fill="#C8CACA" stroke-width="0" stroke="#C8CACA" d = " M139 274 C139,270.388 146.246,276 147,276 147,273.589 142,270.298 142,269 142,269 139,269 139,269 139,269 138,268 138,268 138,268 136,267 136,267 136,267 135,266 135,266 135,266 135,265 135,265 135,265 133,263 133,263 133,263 133,262 133,262 133,262 132,261 132,261 132,261 132,260 132,260 132,260 131,259 131,259 131,259 131,257 131,257 131,257 129,253 129,253 129,253 129,251 129,251 129,251 128,250 128,250 128,250 128,249 128,249 126.387,249 126.387,241 128,241 128,241 129,231 129,231 129,231 130,229 130,229 130,229 131,228 131,228 131,228 133,224 133,224 133,224 134,223 134,223 134,223 135,222 135,222 135,222 136,221 136,221 137.338,221 143,216.59 143,215 143,215 143,214 143,214 139.761,214 138.425,217 135,217 130.902,217 129.734,224 127,224 127,225.424 126.638,229 125,229 125,229 125,233 125,233 125,233 124,234 124,234 124,234 124,237 124,237 124,237 123,239 123,239 123,239 123,246 123,246 124.473,246 124,247.952 124,249 124,253.527 127,257.002 127,261 127,261 127,262 127,262 128.577,262 129,263.762 129,265 129,265 129,266 129,266 132.585,266 135.014,274 139,274  Z"/>

<path  fill="#FF9BCD" stroke-width="0" stroke="#FF9BCD" d = " M144 214 L143,215 C143,215 143,214 143,214 143,214 144,214 144,214  Z"/>

<path  fill="#FF9BCD" stroke-width="0" stroke="#FF9BCD" d = " M279 215 L278,216 C278,216 279,215 279,215  Z"/>

<path  fill="#FCB3D9" stroke-width="0" stroke="#FCB3D9" d = " M165 270 C160.671,270 154.9,274 154,274 151.334,274 148,271.896 148,269 158.549,269 155.535,248.43 159,241.5 163.002,233.496 180,231.5 180,222 180,222 182,221 182,221 182,221 188.5,219 188.5,219 188.5,219 198,220 198,220 198,220 198,221 198,221 198,221 173,260.5 173,260.5 171.34,263.821 165,266.095 165,270  Z"/>

<path  fill="#FF9BCD" stroke-width="0" stroke="#FF9BCD" d = " M200 219 L199,220 C199,220 200,219 200,219  Z"/>

<path  fill-rule="evenodd" fill="#FFB2D8" stroke-width="0" stroke="#FFB2D8" d = " M177 276 L176,277 C172.689,277 165,273.306 165,270 165,266.095 171.34,263.821 173,260.5 173,260.5 198,221 198,221 198,221 199,220 199,220 199,220 200,219 200,219 200,219 201,219 201,219 205.91,219 206.54,227 211,227 211,229.124 212,231.436 212,233 212,233 212,235 212,235 209.889,235 195.634,264 193,264 186.599,264 182.93,276 177,276  M179 265 C182.315,265 180.853,271 179,271 179,278.78 162.737,265 175,265 175,265 179,265 179,265  Z"/>

<path  fill-rule="evenodd" fill="#FFB2D8" stroke-width="0" stroke="#FFB2D8" d = " M281 265 C286.089,265 285.979,271.261 282.5,273 278.001,275.249 274.281,266 277,266 277,266 278,265 278,265 278,265 281,265 281,265  M263 264 C269.975,264 274.597,274.049 280.5,277 287.024,280.262 287.489,270 292,270 292,266.683 285.968,264.437 285,262.5 282.022,256.545 270.165,236.665 266,232.5 266,232.5 258,221 258,221 258,221 256,219 256,219 256,219 255,219 255,219 250.54,219 248.83,227 246,227 246,227 244,233 244,233 244,233 244,235 244,235 245.564,235 248.174,239.848 249,241.5 250.481,244.463 263,263.781 263,264  Z"/>

<path  fill="#FF9BCD" stroke-width="0" stroke="#FF9BCD" d = " M258 220 L258,221 C258,221 256,219 256,219 256,219 258,220 258,220  Z"/>

<path  fill="#FCB3D9" stroke-width="0" stroke="#FCB3D9" d = " M292 270 C295.533,270 301.443,274 302,274 305.313,274 308,272.543 308,269 298.716,269 300.043,247.587 297,241.5 293.778,235.056 277,229.365 277,223 277,223 275,221 275,221 275,221 274,221 274,221 274,221 273,220 273,220 267.499,220 263.62,220 258,220 258,220 258,221 258,221 258,221 266,232.5 266,232.5 270.165,236.665 282.022,256.545 285,262.5 285.968,264.437 292,266.683 292,270  Z"/>

<path  fill="#FF9BCD" stroke-width="0" stroke="#FF9BCD" d = " M275 221 L277,223 C277,223 277,219 277,219 277,219 275,221 275,221  Z"/>

<path  fill="#FF9BCD" stroke-width="0" stroke="#FF9BCD" d = " M182 221 L180,222 C180,222 180,220 180,220 180,220 182,221 182,221  Z"/>

<path  fill="#FF9BCD" stroke-width="0" stroke="#FF9BCD" d = " M199 220 L198,221 C198,221 198,220 198,220 198,220 199,220 199,220  Z"/>

<path  fill="#FF9BCD" stroke-width="0" stroke="#FF9BCD" d = " M273 220 L274,221 C274,221 273,220 273,220  Z"/>

<path  fill="#FF9BCD" stroke-width="0" stroke="#FF9BCD" d = " M136 221 L135,222 C135,222 136,221 136,221  Z"/>

<path  fill="#FF9BCD" stroke-width="0" stroke="#FF9BCD" d = " M321 222 L322,223 C322,223 321,222 321,222  Z"/>

<path  fill="#FF9BCD" stroke-width="0" stroke="#FF9BCD" d = " M134 223 L133,224 C133,224 134,223 134,223  Z"/>

<path  fill="#FF9BCD" stroke-width="0" stroke="#FF9BCD" d = " M127 224 C125.362,224 125,227.576 125,229 126.638,229 127,225.424 127,224  Z"/>

<path  fill="#FF9BCD" stroke-width="0" stroke="#FF9BCD" d = " M323 224 L325,226 C325,226 323,224 323,224  Z"/>

<path  fill="#FFB1D9" stroke-width="0" stroke="#FFB1D9" d = " M213 234 C215.477,234 218.661,234 221,234 221,234 221,231 221,231 216.883,231 214.099,227 211,227 211,229.124 212,231.436 212,233 212,233 213,234 213,234  Z"/>

<path  fill="#FFB1D9" stroke-width="0" stroke="#FFB1D9" d = " M235 234 C237.095,234 240.905,234 243,234 243,234 244,233 244,233 244,233 246,227 246,227 246,227 245,227 245,227 243.117,227 239.679,231 235,231 235,231 235,234 235,234  Z"/>

<path  fill="#FF9BCD" stroke-width="0" stroke="#FF9BCD" d = " M325 227 L326,228 C326,228 325,227 325,227  Z"/>

<path  fill="#FF9BCD" stroke-width="0" stroke="#FF9BCD" d = " M131 228 L130,229 C130,229 131,228 131,228  Z"/>

<path  fill="#FF9BCD" stroke-width="0" stroke="#FF9BCD" d = " M123 237 L124,237 C124,237 124,234 124,234 124,234 125,233 125,233 125,233 125,229 125,229 123.069,229 123,235.225 123,237  Z"/>

<path  fill="#FF9BCD" stroke-width="0" stroke="#FF9BCD" d = " M130 229 L129,231 C129,231 130,229 130,229  Z"/>

<path  fill="#FF9BCD" stroke-width="0" stroke="#FF9BCD" d = " M327 232 L328,233 C328,233 327,232 327,232  Z"/>

<path  fill="#C9C9C8" stroke-width="0" stroke="#C9C9C8" d = " M125 233 L124,234 C124,234 125,233 125,233  Z"/>

<path  fill="#FF9BCD" stroke-width="0" stroke="#FF9BCD" d = " M213 234 L212,235 C212,235 212,233 212,233 212,233 213,234 213,234  Z"/>

<path  fill="#FF9BCD" stroke-width="0" stroke="#FF9BCD" d = " M243 234 L244,235 C244,235 244,233 244,233 244,233 243,234 243,234  Z"/>

<path  fill="#FEB0D8" stroke-width="0" stroke="#FEB0D8" d = " M193 264 C193,264.373 197.263,267.027 198,268.5 L197,276 C203.153,276 212.944,272.611 216,266.5 216.811,264.879 221.116,257 223,257 223,257 224,255 224,255 224,255 226,248 226,248 226,244.314 226,238.743 226,235 226,235 221,234 221,234 218.661,234 215.477,234 213,234 213,234 212,235 212,235 209.889,235 195.634,264 193,264  Z"/>

<path  fill="#CBCBCC" stroke-width="0" stroke="#CBCBCC" d = " M226 235 C229.903,235 227,238.902 227,243 227,244.235 227.643,248 226,248 226,244.314 226,238.743 226,235  Z"/>

<path  fill="#CBCBCC" stroke-width="0" stroke="#CBCBCC" d = " M231 247 L230,248 C228.075,248 228.952,234 229.5,234 229.5,234 231,235 231,235 231,235 231,247 231,247  Z"/>

<path  fill="#FEB0D8" stroke-width="0" stroke="#FEB0D8" d = " M263 264 L259,267.5 C257.716,270.068 260,273.986 260,276 250.987,276 245.848,271.348 239.5,265 238.102,263.602 234.678,256 233,256 233,256 233,255 233,255 233,252.913 230,250.607 230,248 230,248 231,247 231,247 231,247 231,235 231,235 231,233.421 233.855,234 235,234 237.095,234 240.905,234 243,234 243,234 244,235 244,235 245.564,235 248.174,239.848 249,241.5 250.481,244.463 263,263.781 263,264  Z"/>

<path  fill="#C9C9C8" stroke-width="0" stroke="#C9C9C8" d = " M333 234 L333,236 C333,236 332,234 332,234 332,234 333,234 333,234  Z"/>

<path  fill="#C9C9C8" stroke-width="0" stroke="#C9C9C8" d = " M124 237 L123,239 C123,239 123,237 123,237 123,237 124,237 124,237  Z"/>

<path  fill="#FF9BCD" stroke-width="0" stroke="#FF9BCD" d = " M333 238 C334.634,238 334.634,249 333,249 333,249 333,238 333,238  Z"/>

<path  fill="#FF9BCD" stroke-width="0" stroke="#FF9BCD" d = " M128 241 C126.387,241 126.387,249 128,249 128,249 128,241 128,241  Z"/>

<path  fill="#C9C9C8" stroke-width="0" stroke="#C9C9C8" d = " M123 249 L124,249 C124,247.952 124.473,246 123,246 123,246 123,249 123,249  Z"/>

<path  fill="#FF9BCD" stroke-width="0" stroke="#FF9BCD" d = " M231 247 L230,248 C230,248 231,247 231,247  Z"/>

<path  fill="#FF9BCD" stroke-width="0" stroke="#FF9BCD" d = " M124 249 C124,253.527 127,257.002 127,261 123.904,261 123,251.496 123,249 123,249 124,249 124,249  Z"/>

<path  fill="#FF9BCD" stroke-width="0" stroke="#FF9BCD" d = " M329 249 L328,250 C328,250 329,249 329,249  Z"/>

<path  fill="#C9C9C8" stroke-width="0" stroke="#C9C9C8" d = " M332 251 L333,251 C333,251 333,249 333,249 333,249 332,251 332,251  Z"/>

<path  fill="#FF9BCD" stroke-width="0" stroke="#FF9BCD" d = " M128 250 L129,251 C129,251 128,250 128,250  Z"/>

<path  fill="#FEC6E2" stroke-width="0" stroke="#FEC6E2" d = " M227 265 L229,265 C229,265 229,264 229,264 229,264 229,262 229,262 229,262 229,256 229,256 229,250.234 227,249.3 227,255 227,255 227,263 227,263 227,263 227,265 227,265  Z"/>

<path  fill="#FF9BCD" stroke-width="0" stroke="#FF9BCD" d = " M328 251 L327,253 C327,253 328,251 328,251  Z"/>

<path  fill="#FF9BCD" stroke-width="0" stroke="#FF9BCD" d = " M333 251 C333,252.145 333.579,255 332,255 332,255 332,251 332,251 332,251 333,251 333,251  Z"/>

<path  fill="#FF9BCD" stroke-width="0" stroke="#FF9BCD" d = " M129 253 L131,257 C131,257 129,253 129,253  Z"/>

<path  fill="#FF9BCD" stroke-width="0" stroke="#FF9BCD" d = " M327 254 L326,255 C326,255 327,254 327,254  Z"/>

<path  fill="#C8C8CC" stroke-width="0" stroke="#C8C8CC" d = " M221 272 L220,273 C211.236,273 223,262.195 223,257 223,257 224,255 224,255 224,255 227,255 227,255 227,255 227,263 227,263 224.362,263 221,269.355 221,272  Z"/>

<path  fill="#C8C8CC" stroke-width="0" stroke="#C8C8CC" d = " M230 263 C234.542,263 233.476,273 237,273 243.702,273 233,260.37 233,256 233,256 233,255 233,255 233,255 229,256 229,256 229,256 229,262 229,262 229,262 230,263 230,263  Z"/>

<path  fill="#FF9BCD" stroke-width="0" stroke="#FF9BCD" d = " M332 255 C330.527,255 331,256.952 331,258 332.473,258 332,256.048 332,255  Z"/>

<path  fill-rule="evenodd" fill="#FF9BCD" stroke-width="0" stroke="#FF9BCD" d = " M241 288 C241,289.748 233.963,288.425 236,292.5 237.576,295.651 252.304,300.892 254,297.5 255.456,294.588 243.588,288 241,288  M229 292 C229,296.395 236.072,296.286 239.5,298 245.402,300.951 270.492,301.004 276.5,298 278.359,297.07 287,298.005 287,295 275.009,295 292,291.914 292,289 290.765,289 287,289.643 287,288 287,288 280.5,291 280.5,291 273.402,294.549 266.995,285.49 265,281.5 265,281.5 260,276 260,276 250.987,276 245.848,271.348 239.5,265 238.102,263.602 234.678,256 233,256 233,260.37 243.702,273 237,273 237,276.772 251.883,287.191 255.5,289 255.5,289 262,293.5 262,293.5 262,293.5 255.5,295 255.5,295 255.5,295 245.5,287 245.5,287 245.5,287 233.5,286 233.5,286 233.5,286 230,284 230,284 230,285.293 233.155,292 229,292  Z"/>

<path  fill-rule="evenodd" fill="#FF9BCD" stroke-width="0" stroke="#FF9BCD" d = " M207 291 L202,297.5 C203.779,301.059 218.295,295.91 220,292.5 221.355,289.79 215.24,287.13 213.5,288 L207,291  M169 287 C169,289.641 167.177,289 165,289 165,292.535 174,291.879 174,294.5 174,294.5 169.5,295 169.5,295 166.615,293.557 159,290.991 159,287 159,285.203 154.877,283 159,283 159,282.438 154,278.639 154,274 151.334,274 148,271.896 148,269 148,269 142,269 142,269 142,270.298 147,273.589 147,276 147,276.337 160.637,287 153,287 153,290.762 165.913,293.706 168.5,295 175.618,298.559 205.51,302.995 213.5,299 216.642,297.429 228,296.383 228,292 222.725,292 226,286.523 226,284 226,284 222.5,286 222.5,286 218.833,287.834 207,284.697 207,291 204.442,291 202.64,293.93 200.5,295 198.751,295.874 192.212,293.144 196.5,291 200.582,288.959 220,278.081 220,273 211.236,273 223,262.195 223,257 221.116,257 216.811,264.879 216,266.5 212.944,272.611 203.153,276 197,276 194.195,276 187.553,288.974 183.5,291 177.651,293.925 173.094,287 169,287  Z"/>

<path  fill="#FF9BCD" stroke-width="0" stroke="#FF9BCD" d = " M326 257 L325,258 C325,258 326,257 326,257  Z"/>

<path  fill="#FF9BCD" stroke-width="0" stroke="#FF9BCD" d = " M331 258 L329,262 C331.109,262 331,259.465 331,258  Z"/>

<path  fill="#FF9BCD" stroke-width="0" stroke="#FF9BCD" d = " M131 259 L132,260 C132,260 131,259 131,259  Z"/>

<path  fill="#FF9BCD" stroke-width="0" stroke="#FF9BCD" d = " M325 259 L324,261 C324,261 325,259 325,259  Z"/>

<path  fill="#FF9BCD" stroke-width="0" stroke="#FF9BCD" d = " M132 261 L133,262 C133,262 132,261 132,261  Z"/>

<path  fill="#FF9BCD" stroke-width="0" stroke="#FF9BCD" d = " M324 261 L323,263 C323,263 324,261 324,261  Z"/>

<path  fill="#FF9BCD" stroke-width="0" stroke="#FF9BCD" d = " M127 262 C128.577,262 129,263.762 129,265 129,265 127,262 127,262  Z"/>

<path  fill="#FF9BCD" stroke-width="0" stroke="#FF9BCD" d = " M230 263 L229,264 C229,264 229,262 229,262 229,262 230,263 230,263  Z"/>

<path  fill="#FF9BCD" stroke-width="0" stroke="#FF9BCD" d = " M133 263 L135,265 C135,265 133,263 133,263  Z"/>

<path  fill="#FFB3D8" stroke-width="0" stroke="#FFB3D8" d = " M226 284 L222.5,286 C218.833,287.834 207,284.697 207,291 204.442,291 202.64,293.93 200.5,295 198.751,295.874 192.212,293.144 196.5,291 200.582,288.959 220,278.081 220,273 220,273 221,272 221,272 221,269.355 224.362,263 227,263 227,263 227,265 227,265 227,268.531 228,272.893 228,277 228,277 228,278 228,278 228,278 227,279 227,279 227,279 227,283 227,283 227,283 226,284 226,284  Z"/>

<path  fill="#FFB3D8" stroke-width="0" stroke="#FFB3D8" d = " M230 283 L230,284 C230,284 233.5,286 233.5,286 233.5,286 245.5,287 245.5,287 245.5,287 255.5,295 255.5,295 255.5,295 262,293.5 262,293.5 262,293.5 255.5,289 255.5,289 251.883,287.191 237,276.772 237,273 233.476,273 234.542,263 230,263 230,263 229,264 229,264 229,264 229,265 229,265 229,265 229,277 229,277 229,277 229,282 229,282 229,282 230,283 230,283  Z"/>

<path  fill="#FF9BCD" stroke-width="0" stroke="#FF9BCD" d = " M323 263 L322,265 C322,265 323,263 323,263  Z"/>

<path  fill="#FF9BCD" stroke-width="0" stroke="#FF9BCD" d = " M329 263 L328,264 C328,264 329,263 329,263  Z"/>

<path  fill="#FCB3D7" stroke-width="0" stroke="#FCB3D7" d = " M159 283 C162.849,283 166.015,287 169,287 173.094,287 177.651,293.925 183.5,291 187.553,288.974 194.195,276 197,276 197,276 198,268.5 198,268.5 197.263,267.027 193,264.373 193,264 186.599,264 182.93,276 177,276 177,276 176,277 176,277 172.689,277 165,273.306 165,270 160.671,270 154.9,274 154,274 154,278.639 159,282.438 159,283  Z"/>

<path  fill="#FCB3D7" stroke-width="0" stroke="#FCB3D7" d = " M288 287 L287,288 C287,288 280.5,291 280.5,291 273.402,294.549 266.995,285.49 265,281.5 265,281.5 260,276 260,276 260,273.986 257.716,270.068 259,267.5 259,267.5 263,264 263,264 269.975,264 274.597,274.049 280.5,277 287.024,280.262 287.489,270 292,270 295.533,270 301.443,274 302,274 302,279.112 297,282.775 297,283 294.992,283 288,284.355 288,287  Z"/>

<path  fill="#FF9BCD" stroke-width="0" stroke="#FF9BCD" d = " M328 264 L327,266 C327,266 328,264 328,264  Z"/>

<path  fill="#FF9BCD" stroke-width="0" stroke="#FF9BCD" d = " M175 265 C162.737,265 179,278.78 179,271 170.21,271 175,269.324 175,265  Z"/>

<path  fill="#FEB3D8" stroke-width="0" stroke="#FEB3D8" d = " M179 265 L179,271 C170.21,271 175,269.324 175,265 175,265 179,265 179,265  Z"/>

<path  fill="#FF9BCD" stroke-width="0" stroke="#FF9BCD" d = " M179 265 C182.315,265 180.853,271 179,271 179,271 179,265 179,265  Z"/>

<path  fill="#FF9BCD" stroke-width="0" stroke="#FF9BCD" d = " M228 277 L229,277 C229,277 229,265 229,265 229,265 227,265 227,265 227,268.531 228,272.893 228,277  Z"/>

<path  fill="#FF9BCD" stroke-width="0" stroke="#FF9BCD" d = " M278 265 L277,266 C277,266 278,265 278,265  Z"/>

<path  fill="#FEB3D8" stroke-width="0" stroke="#FEB3D8" d = " M281 265 C281,266.602 284.058,267.384 283,269.5 280.561,274.379 277,268.903 277,266 277,266 278,265 278,265 278,265 281,265 281,265  Z"/>

<path  fill="#FF9BCD" stroke-width="0" stroke="#FF9BCD" d = " M281 265 C286.089,265 285.979,271.261 282.5,273 278.001,275.249 274.281,266 277,266 277,268.903 280.561,274.379 283,269.5 284.058,267.384 281,266.602 281,265  Z"/>

<path  fill="#FF9BCD" stroke-width="0" stroke="#FF9BCD" d = " M139 274 L152,287 C150.04,287 129,268.106 129,266 132.585,266 135.014,274 139,274  Z"/>

<path  fill="#FF9BCD" stroke-width="0" stroke="#FF9BCD" d = " M135 266 L136,267 C136,267 135,266 135,266  Z"/>

<path  fill="#FF9BCD" stroke-width="0" stroke="#FF9BCD" d = " M327 266 L326,267 C326,267 327,266 327,266  Z"/>

<path  fill="#FF9BCD" stroke-width="0" stroke="#FF9BCD" d = " M326 267 L325,269 C325,269 326,267 326,267  Z"/>

<path  fill="#FF9BCD" stroke-width="0" stroke="#FF9BCD" d = " M138 268 L139,269 C139,269 138,268 138,268  Z"/>

<path  fill="#FF9BCD" stroke-width="0" stroke="#FF9BCD" d = " M318 268 L317,269 C317,269 318,268 318,268  Z"/>

<path  fill="#FF9BCD" stroke-width="0" stroke="#FF9BCD" d = " M304 287 C304,288.698 289.792,295 287,295 287,295 294.5,291 294.5,291 295.151,290.675 300.281,287 297,287 297,284.444 302.574,283 297,283 297,282.775 302,279.112 302,274 305.313,274 308,272.543 308,269 308,269 315,269 315,269 315,270.024 310,272.034 310,275 310,275 309,276 309,276 309,276.832 295.774,287 304,287  Z"/>

<path  fill="#FF9BCD" stroke-width="0" stroke="#FF9BCD" d = " M325 269 C323.253,269 323,269.253 323,271 323,271 325,269 325,269  Z"/>

<path  fill="#FF9BCD" stroke-width="0" stroke="#FF9BCD" d = " M317 274 L311,281 C313.132,281 323,273.567 323,271 323,271 317,274 317,274  Z"/>

<path  fill="#FF9BCD" stroke-width="0" stroke="#FF9BCD" d = " M221 272 L220,273 C220,273 221,272 221,272  Z"/>

<path  fill="#C9CACA" stroke-width="0" stroke="#C9CACA" d = " M152 287 L153,287 C160.637,287 147,276.337 147,276 146.246,276 139,270.388 139,274 139,274 152,287 152,287  Z"/>

<path  fill="#C9CACA" stroke-width="0" stroke="#C9CACA" d = " M305 286 L304,287 C295.774,287 309,276.832 309,276 309,276 310,275 310,275 311.176,275 317,271.336 317,274 317,274 311,281 311,281 311,281 309,283 309,283 307.571,283 305,284.288 305,286  Z"/>

<path  fill="#C8CACA" stroke-width="0" stroke="#C8CACA" d = " M310 275 L309,276 C309,276 310,275 310,275  Z"/>

<path  fill="#FF9BCD" stroke-width="0" stroke="#FF9BCD" d = " M177 276 L176,277 C176,277 177,276 177,276  Z"/>

<path  fill="#FFC6E2" stroke-width="0" stroke="#FFC6E2" d = " M228 292 L229,292 C233.155,292 230,285.293 230,284 230,284 230,283 230,283 230,283 229,282 229,282 229,282 229,277 229,277 229,277 228,277 228,277 228,277 228,278 228,278 228,278 227,279 227,279 227,279 227,283 227,283 227,283 226,284 226,284 226,286.523 222.725,292 228,292  Z"/>

<path  fill="#FF9BCD" stroke-width="0" stroke="#FF9BCD" d = " M228 278 L227,279 C227,279 228,278 228,278  Z"/>

<path  fill="#FF9BCD" stroke-width="0" stroke="#FF9BCD" d = " M311 281 L309,283 C310.747,283 311,282.747 311,281  Z"/>

<path  fill="#FF9BCD" stroke-width="0" stroke="#FF9BCD" d = " M229 282 L230,283 C230,283 229,282 229,282  Z"/>

<path  fill="#C8C8CB" stroke-width="0" stroke="#C8C8CB" d = " M169 287 C169,289.641 167.177,289 165,289 165,289 159,287 159,287 159,285.203 154.877,283 159,283 162.849,283 166.015,287 169,287  Z"/>

<path  fill="#FF9BCD" stroke-width="0" stroke="#FF9BCD" d = " M227 283 L226,284 C226,284 227,283 227,283  Z"/>

<path  fill="#C8C8CB" stroke-width="0" stroke="#C8C8CB" d = " M292 289 L293,289 C293,289 294,288 294,288 294,288 297,287 297,287 297,284.444 302.574,283 297,283 294.992,283 288,284.355 288,287 288,287 287,288 287,288 287,289.643 290.765,289 292,289  Z"/>

<path  fill="#FF9BCD" stroke-width="0" stroke="#FF9BCD" d = " M309 283 C307.571,283 305,284.288 305,286 306.429,286 309,284.712 309,283  Z"/>

<path  fill="#FF9BCD" stroke-width="0" stroke="#FF9BCD" d = " M305 286 L304,287 C304,287 305,286 305,286  Z"/>

<path  fill="#CBC7CC" stroke-width="0" stroke="#CBC7CC" d = " M159 287 L165,289 C165,292.535 174,291.879 174,294.5 174,294.5 169.5,295 169.5,295 166.615,293.557 159,290.991 159,287  Z"/>

<path  fill="#FF9BCD" stroke-width="0" stroke="#FF9BCD" d = " M288 287 L287,288 C287,288 288,287 288,287  Z"/>

<path  fill="#CBC7CC" stroke-width="0" stroke="#CBC7CC" d = " M292 289 L293,289 C293,289 294,288 294,288 294,288 297,287 297,287 300.281,287 295.151,290.675 294.5,291 294.5,291 287,295 287,295 275.009,295 292,291.914 292,289  Z"/>

<path  fill="#C7C9C9" stroke-width="0" stroke="#C7C9C9" d = " M207 291 L202,297.5 C203.779,301.059 218.295,295.91 220,292.5 221.355,289.79 215.24,287.13 213.5,288 L207,291  Z"/>

<path  fill="#C7C9C9" stroke-width="0" stroke="#C7C9C9" d = " M241 288 C241,289.748 233.963,288.425 236,292.5 237.576,295.651 252.304,300.892 254,297.5 255.456,294.588 243.588,288 241,288  Z"/>

<path  fill="#FF9BCD" stroke-width="0" stroke="#FF9BCD" d = " M294 288 L293,289 C293,289 294,288 294,288  Z"/>

</g>
</svg>
