<svg xmlns="http://www.w3.org/2000/svg" xmlns:xlink="http://www.w3.org/1999/xlink"  viewBox="0 0 456 320">
<g>
<rect width="456" height="320" fill="#000000"  stroke-width="0" /> 
<path  fill="#098589" stroke-width="0" stroke="#098589" d = " M86 68 L87,68 C87,63.2262 101.417,57.6655 103,54.5 104.887,50.7266 115.297,46.1013 119.5,44 128.002,39.7488 136.097,35.2017 144.5,31 148.337,29.0815 153.602,29.9489 157.5,28 162.077,25.7115 168.859,30 173,30 173,30 175,26 175,26 175,24.2565 168.032,25 166.5,25 157.296,25 149.074,25.2129 141.5,29 134.908,32.296 127.118,33.6909 120.5,37 120.5,37 97.5,51 97.5,51 97.5,51 84,63 84,63 84,63 86,68 86,68  Z"/>

<path  fill="#098589" stroke-width="0" stroke="#098589" d = " M369 67 L370,67 C370,67 373,64 373,64 373,62.4169 360.037,52.2686 357.5,51 346.972,45.7358 337.894,38.1969 327.5,33 327.5,33 306.5,26 306.5,26 301.834,23.667 293.515,25 288,25 286.679,25 282,24.3156 282,26 282,26 283,31 283,31 283,31 284,31 284,31 284,27.8085 301.777,27.6387 304.5,29 321.495,37.4977 341.537,42.0368 356,56.5 358.239,58.7393 369,63.0825 369,67  Z"/>

<path  fill="#1BA696" stroke-width="0" stroke="#1BA696" d = " M188 36 C185.414,36 182.014,41 179,41 179,37.0541 178.262,31 173,31 173,31 173,30 173,30 173,30 175,26 175,26 178.723,26 188,31.5302 188,36  Z"/>

<path  fill="#1BA696" stroke-width="0" stroke="#1BA696" d = " M269 36 L277,41 C277,37.4943 278.659,31 283,31 283,31 282,26 282,26 277.111,26 269,30.7472 269,36  Z"/>

<path  fill="#0A828C" stroke-width="0" stroke="#0A828C" d = " M87 68 L91,74 C94.9845,74 109.116,59.692 114.5,57 121.175,53.6623 126.783,48.3587 133.5,45 133.5,45 152.5,37 152.5,37 156.346,35.0769 163.524,38 167,38 168.59,38 173,32.3383 173,31 173,31 173,30 173,30 168.859,30 162.077,25.7115 157.5,28 153.602,29.9489 148.337,29.0815 144.5,31 136.097,35.2017 128.002,39.7488 119.5,44 115.297,46.1013 104.887,50.7266 103,54.5 101.417,57.6655 87,63.2262 87,68  Z"/>

<path  fill="#0A828C" stroke-width="0" stroke="#0A828C" d = " M369 67 C369,70.3125 365,71.4896 365,74 365,74 340.5,56 340.5,56 328.367,49.9334 316.492,42.9961 304.5,37 300.409,34.9547 292.824,38 289,38 287.08,38 284,32.8125 284,31 284,27.8085 301.777,27.6387 304.5,29 321.495,37.4977 341.537,42.0368 356,56.5 358.239,58.7393 369,63.0825 369,67  Z"/>

<path  fill="#1AA496" stroke-width="0" stroke="#1AA496" d = " M164 42 C164,43.4569 167,43.4595 167,46 171.256,46 174.441,41 179,41 179,37.0541 178.262,31 173,31 173,32.3383 168.59,38 167,38 167,38 164,42 164,42  Z"/>

<path  fill="#1AA496" stroke-width="0" stroke="#1AA496" d = " M293 43 C290.576,43 290.24,45 289,45 284.296,45 281.704,41 277,41 277,37.4943 278.659,31 283,31 283,31 284,31 284,31 284,32.8125 287.08,38 289,38 289,38 293,42 293,42 293,42 293,43 293,43  Z"/>

<path  fill="#1BA598" stroke-width="0" stroke="#1BA598" d = " M154 75 L155,77 C155,77 161.5,69 161.5,69 165.757,66.8717 188,41.9653 188,36 185.414,36 182.014,41 179,41 179,50.5319 165.077,58.3462 161,66.5 161,66.5 154,75 154,75  Z"/>

<path  fill="#1BA598" stroke-width="0" stroke="#1BA598" d = " M302 75 L301,76 C298.945,76 282.748,55.2476 280,52.5 280,52.5 269,40.5 269,40.5 268.613,39.7263 266.814,36 269,36 269,36 277,41 277,41 277,49.8545 302,68.755 302,75  Z"/>

<path  fill="#0B848B" stroke-width="0" stroke="#0B848B" d = " M91 75 L94,79 C94,79 114.5,63 114.5,63 130.696,54.9022 142.277,42 163,42 163,42 164,42 164,42 164,42 167,38 167,38 163.524,38 156.346,35.0769 152.5,37 152.5,37 133.5,45 133.5,45 126.783,48.3587 121.175,53.6623 114.5,57 109.116,59.692 94.9845,74 91,74 91,74 91,75 91,75  Z"/>

<path  fill="#0B848B" stroke-width="0" stroke="#0B848B" d = " M362 79 L363,79 C363,79 365,75 365,75 365,75 365,74 365,74 365,74 340.5,56 340.5,56 328.367,49.9334 316.492,42.9961 304.5,37 300.409,34.9547 292.824,38 289,38 289,38 293,42 293,42 313.61,42 333.608,54.1083 348,68.5 348,68.5 362,79 362,79  Z"/>

<path  fill="#1BA697" stroke-width="0" stroke="#1BA697" d = " M149 75 L154,75 C154,75 161,66.5 161,66.5 165.077,58.3462 179,50.5319 179,41 174.441,41 171.256,46 167,46 167,46 167,47 167,47 167,56.8254 159.035,61.4294 155,69.5 155,69.5 149,75 149,75  Z"/>

<path  fill="#FF7AFD" stroke-width="0" stroke="#FF7AFD" d = " M288 73 L290,73 C290,68.5504 284.867,66.2344 283,62.5 276.529,49.5576 253.084,36.208 239.5,43 235.591,44.9546 230.858,48.7849 229,52.5 229,52.5 228.5,57 228.5,57 226.925,57 227.429,52.3572 227,51.5 225.463,48.4255 219.692,44.596 216.5,43 212.754,41.1269 191,41.365 191,47 194.155,47 196.876,45.3121 199.5,44 202.113,42.6933 208.213,42.8567 210.5,44 210.5,44 217.5,45 217.5,45 224.791,48.6455 226,55.7104 226,64 226,64 227,66 227,66 227,66 229,66 229,66 229,66 230,65 230,65 230,33.4733 261.131,41.631 276.5,57 280.574,61.074 288,67.3037 288,73  Z"/>

<path  fill="#1BA697" stroke-width="0" stroke="#1BA697" d = " M302 75 L307,75 C307,75 299,66.5 299,66.5 295.781,60.0627 289,54.8118 289,46 289,46 289,45 289,45 284.296,45 281.704,41 277,41 277,49.8545 302,68.755 302,75  Z"/>

<path  fill="#088389" stroke-width="0" stroke="#088389" d = " M100 86 L101,86 C101,86 111.5,77 111.5,77 111.5,77 117.5,71 117.5,71 126.356,66.5722 133.846,56 145,56 145,56 146,56 146,56 146,53.689 163,44.2448 163,42 142.277,42 130.696,54.9022 114.5,63 114.5,63 94,79 94,79 94,80.6244 96,81.75 96,84 96,84 100,86 100,86  Z"/>

<path  fill="#1CA697" stroke-width="0" stroke="#1CA697" d = " M146 56 C147.658,56 149,57.4608 149,59 152.648,59 161.152,47 167,47 167,47 167,46 167,46 167,43.4595 164,43.4569 164,42 164,42 163,42 163,42 163,44.2448 146,53.689 146,56  Z"/>

<path  fill="#088389" stroke-width="0" stroke="#088389" d = " M360 84 L356,86 C351.81,86 348.667,78.0835 344.5,76 333.089,70.2946 324.665,56 311,56 311,56 306.5,53 306.5,53 303.026,51.2629 297.916,43 293,43 293,43 293,42 293,42 313.61,42 333.608,54.1083 348,68.5 348,68.5 362,79 362,79 362,79 360,84 360,84  Z"/>

<path  fill="#FF78FF" stroke-width="0" stroke="#FF78FF" d = " M226 64 C221.544,64 217.123,49.6887 210.5,53 203.177,56.6617 192.099,58.7005 183.5,63 L168,73 C168,68.1347 175,65.492 175,61 175,61 177,59 177,59 177,59 179,57 179,57 179,57 181,55 181,55 181,55 183,53 183,53 184.747,53 185,52.7469 185,51 186.238,51 188,50.5774 188,49 189.238,49 191,48.5774 191,47 194.155,47 196.876,45.3121 199.5,44 202.113,42.6933 208.213,42.8567 210.5,44 210.5,44 217.5,45 217.5,45 224.791,48.6455 226,55.7104 226,64  Z"/>

<path  fill="#FF78FF" stroke-width="0" stroke="#FF78FF" d = " M230 65 C232.459,65 239.559,50.0294 245.5,53 250.03,55.2651 255.965,54.7327 260.5,57 L276.5,65 L288,73 C288,67.3037 280.574,61.074 276.5,57 261.131,41.631 230,33.4733 230,65  Z"/>

<path  fill="#1CA697" stroke-width="0" stroke="#1CA697" d = " M311 56 L307,59 C303.714,59 294.14,46 289,46 289,46 289,45 289,45 290.24,45 290.576,43 293,43 297.916,43 303.026,51.2629 306.5,53 306.5,53 311,56 311,56  Z"/>

<path  fill="#1AA596" stroke-width="0" stroke="#1AA596" d = " M307 75 L313,75 C313,70.2894 307,66.3508 307,59 303.714,59 294.14,46 289,46 289,54.8118 295.781,60.0627 299,66.5 299,66.5 307,75 307,75  Z"/>

<path  fill="#1AA596" stroke-width="0" stroke="#1AA596" d = " M143 75 L149,75 C149,75 155,69.5 155,69.5 159.035,61.4294 167,56.8254 167,47 161.152,47 152.648,59 149,59 149,59 149,60 149,60 149,67.0111 143,70.4622 143,75  Z"/>

<path  fill="#FF7AFD" stroke-width="0" stroke="#FF7AFD" d = " M191 47 C189.762,47 188,47.4226 188,49 189.238,49 191,48.5774 191,47  Z"/>

<path  fill="#FF7AFD" stroke-width="0" stroke="#FF7AFD" d = " M188 49 C186.762,49 185,49.4226 185,51 186.238,51 188,50.5774 188,49  Z"/>

<path  fill="#FF7AFD" stroke-width="0" stroke="#FF7AFD" d = " M185 51 C183.253,51 183,51.2531 183,53 184.747,53 185,52.7469 185,51  Z"/>

<path  fill="#FF7AFD" stroke-width="0" stroke="#FF7AFD" d = " M183 53 C181.253,53 181,53.2531 181,55 181,55 183,53 183,53  Z"/>

<path  fill="#FD7AFF" stroke-width="0" stroke="#FD7AFF" d = " M167 76 L167,77 C167,77 175.5,71 175.5,71 184.063,66.7183 193.025,63.2375 201.5,59 212.815,53.3425 218.897,67 227,67 227,67 227,66 227,66 227,66 226,64 226,64 221.544,64 217.123,49.6887 210.5,53 203.177,56.6617 192.099,58.7005 183.5,63 183.5,63 168,73 168,73 168,73 167,73 167,73 167,73 167,76 167,76  Z"/>

<path  fill="#FD7AFF" stroke-width="0" stroke="#FD7AFF" d = " M290 73 L290,77 C286.296,77 280.871,70.6853 277.5,69 269.997,65.2485 261.9,62.7001 254.5,59 243.072,53.286 237.512,67 229,67 229,67 229,66 229,66 229,66 230,65 230,65 232.459,65 239.559,50.0294 245.5,53 250.03,55.2651 255.965,54.7327 260.5,57 260.5,57 276.5,65 276.5,65 276.5,65 288,73 288,73 288,73 290,73 290,73  Z"/>

<path  fill="#FF7AFD" stroke-width="0" stroke="#FF7AFD" d = " M181 55 C179.253,55 179,55.2531 179,57 179,57 181,55 181,55  Z"/>

<path  fill="#08858C" stroke-width="0" stroke="#08858C" d = " M120 84 C115.775,84 110.159,85.1704 106.5,87 105.427,87.5363 101,87.2509 101,86 101,86 111.5,77 111.5,77 111.5,77 117.5,71 117.5,71 126.356,66.5722 133.846,56 145,56 145,60.8331 120,79.5573 120,84  Z"/>

<path  fill="#1CA597" stroke-width="0" stroke="#1CA597" d = " M129 83 C125.778,83 122.723,84 120,84 120,79.5573 145,60.8331 145,56 145,56 146,56 146,56 147.658,56 149,57.4608 149,59 149,59 149,60 149,60 144.227,60 135,73.2338 135,78 135,78 134,79 134,79 134,79 133,80 133,80 133,80 129,83 129,83  Z"/>

<path  fill="#1CA597" stroke-width="0" stroke="#1CA597" d = " M328 83 C331.222,83 334.277,84 337,84 337,83.4511 319.189,65.8781 317,61.5 317,61.5 311,56 311,56 311,56 307,59 307,59 310.977,59 322,74.7315 322,79 322,79 323,80 323,80 323,80 324,81 324,81 324,81 328,83 328,83  Z"/>

<path  fill="#08858C" stroke-width="0" stroke="#08858C" d = " M356 86 L356,87 C353.23,87 337,84.0962 337,84 337,83.4511 319.189,65.8781 317,61.5 317,61.5 311,56 311,56 324.665,56 333.089,70.2946 344.5,76 348.667,78.0835 351.81,86 356,86  Z"/>

<path  fill="#FF7AFD" stroke-width="0" stroke="#FF7AFD" d = " M179 57 C177.253,57 177,57.2531 177,59 177,59 179,57 179,57  Z"/>

<path  fill="#FF90FF" stroke-width="0" stroke="#FF90FF" d = " M163 88 L169.5,83 C178.572,78.4641 187.436,73.5322 196.5,69 208.299,63.1004 215.871,69.1856 225.5,74 229.938,76.2191 237.825,68.8374 241.5,67 250.535,62.4827 263.898,71.6992 270.5,75 273.33,76.415 293,85.6019 293,88 299.521,88 290,77.5527 290,77 286.296,77 280.871,70.6853 277.5,69 269.997,65.2485 261.9,62.7001 254.5,59 243.072,53.286 237.512,67 229,67 229,67 227,67 227,67 218.897,67 212.815,53.3425 201.5,59 193.025,63.2375 184.063,66.7183 175.5,71 175.5,71 167,77 167,77 167,77 166,77 166,77 166,77 165,78 165,78 165,78 164,79 164,79 164,79 163,80 163,80 163,82.4769 163,85.6606 163,88  Z"/>

<path  fill="#FF7AFD" stroke-width="0" stroke="#FF7AFD" d = " M177 59 C175.253,59 175,59.2531 175,61 175,61 177,59 177,59  Z"/>

<path  fill="#1AA697" stroke-width="0" stroke="#1AA697" d = " M313 75 C316.205,75 319.241,79 322,79 322,74.7315 310.977,59 307,59 307,66.3508 313,70.2894 313,75  Z"/>

<path  fill="#1AA697" stroke-width="0" stroke="#1AA697" d = " M143 75 L135,78 C135,73.2338 144.227,60 149,60 149,67.0111 143,70.4622 143,75  Z"/>

<path  fill="#FF7AFD" stroke-width="0" stroke="#FF7AFD" d = " M167 73 L168,73 C168,68.1347 175,65.492 175,61 171.635,61 167,69.6646 167,73  Z"/>

<path  fill="#09848A" stroke-width="0" stroke="#09848A" d = " M71 83 L70,84 C70,84 69,83 69,83 69,83 67,81 67,81 67,81 72,75.5 72,75.5 72,75.5 84,63 84,63 84,63 86,68 86,68 86,68 71,83 71,83  Z"/>

<path  fill="#09848A" stroke-width="0" stroke="#09848A" d = " M386 83 L388,83 C388,83 389,81 389,81 389,77.3954 380.027,70.5269 377,67.5 377,67.5 373,64 373,64 373,64 370,67 370,67 370,67 385,83 385,83 385,83 386,83 386,83  Z"/>

<path  fill="#FF90FE" stroke-width="0" stroke="#FF90FE" d = " M173 98 C173,96.6304 192.882,86.309 195.5,85 201.763,81.8684 205.878,77 213.5,77 217.324,77 226.293,82.6033 229.5,81 236.272,77.614 245.117,75.3085 252.5,79 257.419,81.4593 280.935,98 284,98 284,98 293,88 293,88 293,85.6019 273.33,76.415 270.5,75 263.898,71.6992 250.535,62.4827 241.5,67 237.825,68.8374 229.938,76.2191 225.5,74 215.871,69.1856 208.299,63.1004 196.5,69 187.436,73.5322 178.572,78.4641 169.5,83 169.5,83 163,88 163,88 163,88.7121 172.255,98 173,98  Z"/>

<path  fill="#0A8489" stroke-width="0" stroke="#0A8489" d = " M377 85 L380,85 C380.671,85 385,83.6719 385,83 385,83 370,67 370,67 370,67 369,67 369,67 369,70.3125 365,71.4896 365,74 365,74 365,75 365,75 366.942,75 376,82.8078 376,85 376,85 377,85 377,85  Z"/>

<path  fill="#0A8489" stroke-width="0" stroke="#0A8489" d = " M79 85 L80,85 C80,85 83,82.5 83,82.5 83.5726,81.3548 88.6937,75 91,75 91,75 91,74 91,74 91,74 87,68 87,68 87,68 86,68 86,68 86,68 71,83 71,83 71,83 76,85 76,85 76,85 79,85 79,85  Z"/>

<path  fill="#08828B" stroke-width="0" stroke="#08828B" d = " M85 85 L87,85 C87,83.4431 92.1156,79 94,79 94,79 91,75 91,75 88.6937,75 83.5726,81.3548 83,82.5 83,82.5 80,85 80,85 80,85 85,85 85,85  Z"/>

<path  fill="#33B932" stroke-width="0" stroke="#33B932" d = " M113 99 C117.495,99 126.848,128 130,128 130,123.605 142.361,96.7771 145,91.5 145,91.5 155,77 155,77 155,77 154,75 154,75 154,75 149,75 149,75 149,75 143,75 143,75 143,75 135,78 135,78 135,78 134,79 134,79 134,79 133,80 133,80 133,80 129,83 129,83 129,85.9799 112,92.5354 112,93 112,93 113,94 113,94 113,94 113,99 113,99  Z"/>

<path  fill="#33B932" stroke-width="0" stroke="#33B932" d = " M344 98 L339,103.5 L327,129 C324.666,129 325.659,124.819 325,123.5 321.645,116.79 320.325,109.15 317,102.5 315.231,98.9626 301,76.9982 301,76 301,76 302,75 302,75 302,75 307,75 307,75 307,75 313,75 313,75 316.205,75 319.241,79 322,79 322,79 323,80 323,80 323,80 324,81 324,81 324,81 328,83 328,83 328,87.0799 345,92.3843 345,93 345,93 344,95 344,95 344,95 344,98 344,98  Z"/>

<path  fill="#08828B" stroke-width="0" stroke="#08828B" d = " M371 85 L376,85 C376,82.8078 366.942,75 365,75 365,75 363,79 363,79 364.315,79 370,83.886 370,85 370,85 371,85 371,85  Z"/>

<path  fill="#FF64FF" stroke-width="0" stroke="#FF64FF" d = " M166 77 L167,77 C167,77 167,76 167,76 167,76 166,77 166,77  Z"/>

<path  fill="#FF64FF" stroke-width="0" stroke="#FF64FF" d = " M166 77 L165,78 C165,78 166,77 166,77  Z"/>

<path  fill="#FF8FFF" stroke-width="0" stroke="#FF8FFF" d = " M188 111 L192,102.5 C200.781,84.9371 214.056,87 232,87 236.751,87 243.63,84.5652 248.5,87 L253.5,91 C259.804,94.1522 268,104.127 268,111 278.071,111 284,111.163 284,98 280.935,98 257.419,81.4593 252.5,79 245.117,75.3085 236.272,77.614 229.5,81 226.293,82.6033 217.324,77 213.5,77 205.878,77 201.763,81.8684 195.5,85 192.882,86.309 173,96.6304 173,98 173,111.707 177.565,111 188,111  Z"/>

<path  fill-rule="evenodd" fill="#FF64FF" stroke-width="0" stroke="#FF64FF" d = " M316 141 L315,143.5 C315,154.462 320.927,141 316,141  M305 139 C305,140.984 301.722,142.945 303,145.5 308.064,155.628 323.168,139 305,139  M288 113 C288,116.746 290.091,113 288,113  M302 161 C304.522,161 307.187,153.343 312.5,156 314.063,156.781 316.026,161 317,161 317,161 317.5,150 317.5,150 317.5,150 320,153 320,153 320,145.39 320,135.638 320,128 311.819,128 318.71,116 315,116 315,121.131 314.828,128.336 309.5,131 300.13,135.685 288.395,125.709 293,116.5 294.272,113.956 292.674,110.153 294,107.5 294.636,106.229 298.343,92.4214 301.5,94 306.59,96.5449 310.811,105.121 313,109.5 313.557,110.614 313.41,115 315,115 315,102.78 301,96.1309 301,85 296.826,85 294.343,77 290,77 290,77.5527 299.521,88 293,88 293,88 284,98 284,98 284,111.163 278.071,111 268,111 268,111 265,115 265,115 265,115 266,125 266,125 266,125 270.5,121 270.5,121 276.174,118.163 283.638,120.569 288.5,123 293.463,125.482 304.927,147 293,147 293,150.067 290,151.726 290,153 294.469,153 294.604,159 296,159 296,143.39 302,149.766 302,161  Z"/>

<path  fill="#1AA697" stroke-width="0" stroke="#1AA697" d = " M135 78 L134,79 C134,79 135,78 135,78  Z"/>

<path  fill="#FF64FF" stroke-width="0" stroke="#FF64FF" d = " M165 78 L164,79 C164,79 165,78 165,78  Z"/>

<path  fill="#0B858B" stroke-width="0" stroke="#0B858B" d = " M96 84 C94.5115,84 87,86.3369 87,85 87,83.4431 92.1156,79 94,79 94,80.6244 96,81.75 96,84  Z"/>

<path  fill="#1AA697" stroke-width="0" stroke="#1AA697" d = " M134 79 L133,80 C133,80 134,79 134,79  Z"/>

<path  fill="#FF64FF" stroke-width="0" stroke="#FF64FF" d = " M164 79 L163,80 C163,80 164,79 164,79  Z"/>

<path  fill="#0B858B" stroke-width="0" stroke="#0B858B" d = " M360 84 L370,85 C370,83.886 364.315,79 363,79 363,79 362,79 362,79 362,79 360,84 360,84  Z"/>

<path  fill-rule="evenodd" fill="#FF64FF" stroke-width="0" stroke="#FF64FF" d = " M167 113 C167,116.746 169.091,113 167,113  M190 125 C190,117.731 172.859,120.321 169.5,122 L163,128 C163,115.186 165.015,111.531 159,99.5 158.273,98.0467 157.293,92.6036 154.5,94 154.5,94 145,106 145,106 145,97.6724 155,93.9899 155,85 157.689,85 159.894,80 163,80 163,82.4769 163,85.6606 163,88 163,88.7121 172.255,98 173,98 173,111.707 177.565,111 188,111 188,111 191,115 191,115 191,116.657 191.763,125 190,125  Z"/>

<path  fill="#1AA697" stroke-width="0" stroke="#1AA697" d = " M323 80 L324,81 C324,81 323,80 323,80  Z"/>

<path  fill="#0C858C" stroke-width="0" stroke="#0C858C" d = " M69 83 L65,84 C65,84 67,81 67,81 67,81 69,83 69,83  Z"/>

<path  fill="#0C858C" stroke-width="0" stroke="#0C858C" d = " M388 83 C388.716,83 391,85.3726 391,83 391,83 389,81 389,81 389,81 388,83 388,83  Z"/>

<path  fill="#09818C" stroke-width="0" stroke="#09818C" d = " M47 133 C44.6356,133 43.9467,136 42,136 42,122.358 42.0336,116.433 48,104.5 48,104.5 55,95.5 55,95.5 56.091,93.318 61.9701,84 65,84 65,84 69,83 69,83 69,83 70,84 70,84 70,86.4533 58.3704,96.7593 57,99.5 51.5969,110.306 47,117.739 47,131 47,131 47,133 47,133  Z"/>

<path  fill="#0A8389" stroke-width="0" stroke="#0A8389" d = " M57 125 C53.4761,125 51.0379,131 47,131 47,117.739 51.5969,110.306 57,99.5 58.3704,96.7593 70,86.4533 70,84 70,84 71,83 71,83 71,83 76,85 76,85 76,85 77,87 77,87 77,89.114 65.3814,98 71,98 71,102.479 57,117.262 57,125  Z"/>

<path  fill="#08838C" stroke-width="0" stroke="#08838C" d = " M87 106 L85,107 C85,107 84,105 84,105 84,101.046 100,87.2386 100,86 100,86 101,86 101,86 101,87.2509 105.427,87.5363 106.5,87 110.159,85.1704 115.775,84 120,84 122.723,84 125.778,83 129,83 129,85.9799 112,92.5354 112,93 112,93 108,93 108,93 105.488,93 95,95.9694 95,99 95,99 93,101 93,101 93,101 92,102 92,102 92,102 91,103 91,103 89.5711,103 87,104.288 87,106  Z"/>

<path  fill="#08838C" stroke-width="0" stroke="#08838C" d = " M371 106 L373,106 C373,106 373,105 373,105 369.269,105 362.945,87 356,87 353.23,87 337,84.0962 337,84 334.277,84 331.222,83 328,83 328,87.0799 345,92.3843 345,93 345,93 349,93 349,93 352.083,93 365,98.0632 365,102 365,102 370,106 370,106 370,106 371,106 371,106  Z"/>

<path  fill="#0A8389" stroke-width="0" stroke="#0A8389" d = " M400 125 C403.144,125 405.45,131 409,131 409,113.799 403.872,110.243 397,96.5 397,96.5 386,83 386,83 386,83 385,83 385,83 385,83.6719 380.671,85 380,85 380,85 379,87 379,87 379,87 379,88 379,88 383.825,88 386,96.9097 386,99 386,103.703 399,116.333 399,125 399,125 400,125 400,125  Z"/>

<path  fill="#09818C" stroke-width="0" stroke="#09818C" d = " M409 132 L414,136 C414,114.593 414.296,119.092 405,100.5 403.713,97.9265 401.843,94.1715 399.5,93 399.5,93 391,83 391,83 391,85.3726 388.716,83 388,83 388,83 386,83 386,83 386,83 397,96.5 397,96.5 403.872,110.243 409,113.799 409,131 409,131 409,132 409,132  Z"/>

<path  fill="#0B838C" stroke-width="0" stroke="#0B838C" d = " M83 105 L84,105 C84,101.046 100,87.2386 100,86 100,86 96,84 96,84 94.5115,84 87,86.3369 87,85 87,85 85,85 85,85 85,86.7264 80.4416,90 79,90 79,90 79,91 79,91 82.4922,91 83,103.102 83,105  Z"/>

<path  fill="#0B838C" stroke-width="0" stroke="#0B838C" d = " M377 91 C377,93.7887 373,99.349 373,105 369.269,105 362.945,87 356,87 356,87 356,86 356,86 356,86 360,84 360,84 360,84 370,85 370,85 370,85 371,85 371,85 371,85 377,90 377,90 377,90 377,91 377,91  Z"/>

<path  fill="#09848C" stroke-width="0" stroke="#09848C" d = " M77 87 L78,87 C78,87 79,85 79,85 79,85 76,85 76,85 76,85 77,87 77,87  Z"/>

<path  fill="#0B858A" stroke-width="0" stroke="#0B858A" d = " M78 87 L79,90 C80.4416,90 85,86.7264 85,85 85,85 80,85 80,85 80,85 79,85 79,85 79,85 78,87 78,87  Z"/>

<path  fill="#C9C8C8" stroke-width="0" stroke="#C9C8C8" d = " M141 121 C141,121.36 137,133.725 137,127 137,114.031 141.695,106.109 147,95.5 148.087,93.3267 151.386,85 155,85 155,93.9899 145,97.6724 145,106 142.891,106 143,108.535 143,110 143,110 143,111 143,111 143,111 142,113 142,113 140.286,113 141,118.594 141,120 141,120 141,121 141,121  Z"/>

<path  fill="#C9C8C8" stroke-width="0" stroke="#C9C8C8" d = " M315 116 C318.71,116 311.819,128 320,128 320,114.775 314.449,105.399 309,94.5 307.742,91.9837 304.438,85 301,85 301,96.1309 315,102.78 315,115 315,115 315,116 315,116  Z"/>

<path  fill="#0B858A" stroke-width="0" stroke="#0B858A" d = " M379 88 L377,90 C377,90 371,85 371,85 371,85 376,85 376,85 376,85 377,85 377,85 377,85 379,87 379,87 379,87 379,88 379,88  Z"/>

<path  fill="#09848C" stroke-width="0" stroke="#09848C" d = " M380 85 L379,87 C379,87 377,85 377,85 377,85 380,85 380,85  Z"/>

<path  fill="#FF8FFE" stroke-width="0" stroke="#FF8FFE" d = " M191 115 C191,104.517 201.687,93.4064 210.5,89 215.352,86.5742 221.477,89 226.5,89 L241.5,88 C252.316,93.4079 265,100.158 265,115 265,115 268,111 268,111 268,104.127 259.804,94.1522 253.5,91 253.5,91 248.5,87 248.5,87 243.63,84.5652 236.751,87 232,87 214.056,87 200.781,84.9371 192,102.5 192,102.5 188,111 188,111 188,111 191,115 191,115  Z"/>

<path  fill="#0A828A" stroke-width="0" stroke="#0A828A" d = " M79 91 L71,98 C65.3814,98 77,89.114 77,87 77,87 78,87 78,87 78,87 79,90 79,90 79,90 79,91 79,91  Z"/>

<path  fill="#FC8FFF" stroke-width="0" stroke="#FC8FFF" d = " M244 154 C244,150.83 235.216,156 234,156 234,151.462 235.425,131 231,131 231,131 231,125 231,125 231,122.383 237.468,118.436 236,115.5 235.57,114.64 228.548,106 228.5,106 228.5,106 220,116.5 220,116.5 220,116.5 226,126 226,126 226,126 226,131 226,131 219.739,131 223,152.983 223,157 222.155,157 213,150.229 213,154 209.242,154 206.656,150.578 203.5,149 188.643,141.572 190,141.55 190,125 191.763,125 191,116.657 191,115 191,104.517 201.687,93.4064 210.5,89 215.352,86.5742 221.477,89 226.5,89 226.5,89 241.5,88 241.5,88 252.316,93.4079 265,100.158 265,115 265,115 266,125 266,125 266,130.895 269.165,141.667 262.5,145 260.385,146.058 257.539,145.981 255.5,147 251.938,148.781 248.115,154 244,154  Z"/>

<path  fill="#0A828A" stroke-width="0" stroke="#0A828A" d = " M377 91 C380.714,91 383.256,99 386,99 386,96.9097 383.825,88 379,88 379,88 377,90 377,90 377,90 377,91 377,91  Z"/>

<path  fill="#0B838A" stroke-width="0" stroke="#0B838A" d = " M64 123 L57,125 C57,117.262 71,102.479 71,98 71,98 79,91 79,91 82.4922,91 83,103.102 83,105 83,105 81,109 81,109 81,109 79,111 79,111 79,111 77,114 77,114 77,114 76,115 76,115 72.3011,115 68.4196,123 64,123  Z"/>

<path  fill="#0B838A" stroke-width="0" stroke="#0B838A" d = " M393 123 L399,125 C399,116.333 386,103.703 386,99 383.256,99 380.714,91 377,91 377,93.7887 373,99.349 373,105 373,105 373,106 373,106 374.26,106 378,110.768 378,112 378,112 379,114 379,114 381.195,114 388.609,123 393,123  Z"/>

<path  fill="#08848A" stroke-width="0" stroke="#08848A" d = " M108 93 C105.488,93 95,95.9694 95,99 96.6748,99 108,94.1977 108,93  Z"/>

<path  fill="#C8CBCC" stroke-width="0" stroke="#C8CBCC" d = " M92 103 L95,103 C95,103 96,102 96,102 96,102 98,101 98,101 98,98.2829 110.654,94 113,94 113,94 112,93 112,93 112,93 108,93 108,93 108,94.1977 96.6748,99 95,99 95,100.747 94.7469,101 93,101 93,101 92,102 92,102 92,102 92,103 92,103  Z"/>

<path  fill="#C8CBCC" stroke-width="0" stroke="#C8CBCC" d = " M364 102 L364,103 C362.952,103 361,103.473 361,102 361,100.299 346.802,95 344,95 344,95 345,93 345,93 345,93 349,93 349,93 349,94.7259 358.8,98.15 360.5,99 360.5,99 364,102 364,102  Z"/>

<path  fill="#08848A" stroke-width="0" stroke="#08848A" d = " M364 102 L365,102 C365,98.0632 352.083,93 349,93 349,94.7259 358.8,98.15 360.5,99 360.5,99 364,102 364,102  Z"/>

<path  fill="#7DCD4B" stroke-width="0" stroke="#7DCD4B" d = " M110 102 L112,104 C112,104 113,99 113,99 113,99 113,94 113,94 110.654,94 98,98.2829 98,101 99.9309,101 110,98.49 110,102  Z"/>

<path  fill="#FE79FE" stroke-width="0" stroke="#FE79FE" d = " M141 121 C142.951,121 141.477,123.454 142,124.5 143.429,127.358 144.382,129.441 147.5,131 153.043,133.771 158.903,128 163,128 163,115.186 165.015,111.531 159,99.5 158.273,98.0467 157.293,92.6036 154.5,94 154.5,94 145,106 145,106 145,106 143,110 143,110 143,110 143,111 143,111 143,111 142,113 142,113 142,114.406 142.714,120 141,120 141,120 141,121 141,121  Z"/>

<path  fill="#FE79FE" stroke-width="0" stroke="#FE79FE" d = " M315 115 C313.41,115 313.557,110.614 313,109.5 310.811,105.121 306.59,96.5449 301.5,94 298.343,92.4214 294.636,106.229 294,107.5 292.674,110.153 294.272,113.956 293,116.5 288.395,125.709 300.13,135.685 309.5,131 314.828,128.336 315,121.131 315,116 315,116 315,115 315,115  Z"/>

<path  fill="#7DCD4B" stroke-width="0" stroke="#7DCD4B" d = " M347 102 L345,103 C343.357,103 344,99.2345 344,98 344,98 344,95 344,95 346.802,95 361,100.299 361,102 359.187,102 347,97.2956 347,102  Z"/>

<path  fill="#72D568" stroke-width="0" stroke="#72D568" d = " M349 184 L345,191 C342.816,191 341.976,178.453 341,176.5 338.132,170.764 327,134.645 327,129 327,129 339,103.5 339,103.5 339,103.5 344,98 344,98 344,99.2345 343.357,103 345,103 345,103 343,117 343,117 343,134.812 351,151.508 351,170 351,170 349,184 349,184  Z"/>

<path  fill="#08848A" stroke-width="0" stroke="#08848A" d = " M95 99 L93,101 C94.7469,101 95,100.747 95,99  Z"/>

<path  fill="#72D568" stroke-width="0" stroke="#72D568" d = " M108 185 C109.802,185 111,191.346 111,193 112.484,193 114.011,179.478 115,177.5 119.248,169.004 119.782,158.935 124,150.5 124,150.5 125,142.5 125,142.5 125,142.5 130,128 130,128 126.848,128 117.495,99 113,99 113,99 112,104 112,104 112,104 113,117 113,117 113,134.279 106,149.239 106,167 106,173.445 108,179.28 108,185  Z"/>

<path  fill="#32B623" stroke-width="0" stroke="#32B623" d = " M71 179 L71,180 C73.6472,180 77.1751,183.662 80.5,182 86.2975,179.101 84.7372,171.026 87,166.5 92.9675,154.565 90.0062,138.488 96,126.5 98.0926,122.315 102.292,102 110,102 110,98.49 99.9309,101 98,101 98,101 96,102 96,102 96,102 95,103 95,103 95,103 92,103 92,103 92,103 91,104 91,104 91,104 87,107 87,107 87,117.816 83.5787,131.343 79,140.5 79,140.5 77,154.5 77,154.5 77,154.5 75,160 75,160 75,164.786 74.0386,171.423 72,175.5 71.4772,176.546 72.9515,179 71,179  Z"/>

<path  fill="#32B623" stroke-width="0" stroke="#32B623" d = " M385 179 L385,180 C381.044,180 378.969,183.235 374.5,181 369.341,178.42 371.137,167.774 369,163.5 362.43,150.359 365.58,132.659 359,119.5 356.993,115.485 355.958,111.458 352.5,108 352.5,108 347,102 347,102 347,97.2956 359.187,102 361,102 361,103.473 362.952,103 364,103 364,103 369,107 369,107 369,116.673 372.85,130.199 377,138.5 380.047,144.594 378.015,156.53 381,162.5 382.948,166.396 385,174.633 385,179  Z"/>

<path  fill="#08848A" stroke-width="0" stroke="#08848A" d = " M93 101 L92,102 C92,102 93,101 93,101  Z"/>

<path  fill="#7DCD4B" stroke-width="0" stroke="#7DCD4B" d = " M98 101 L96,102 C96,102 98,101 98,101  Z"/>

<path  fill="#08848A" stroke-width="0" stroke="#08848A" d = " M91 103 L92,103 C92,103 92,102 92,102 92,102 91,103 91,103  Z"/>

<path  fill="#7DCD4B" stroke-width="0" stroke="#7DCD4B" d = " M96 102 L95,103 C95,103 96,102 96,102  Z"/>

<path  fill="#30B724" stroke-width="0" stroke="#30B724" d = " M68 194 L68,195 C73.521,195 79.4127,204.544 86.5,201 96.9021,195.799 95.5637,163.373 101,152.5 104.634,145.232 104.963,133.574 109,125.5 109.767,123.965 110.845,117 113,117 113,117 112,104 112,104 112,104 110,102 110,102 102.292,102 98.0926,122.315 96,126.5 90.0062,138.488 92.9675,154.565 87,166.5 84.7372,171.026 86.2975,179.101 80.5,182 77.1751,183.662 73.6472,180 71,180 71,185.15 68,189.337 68,194  Z"/>

<path  fill="#30B724" stroke-width="0" stroke="#30B724" d = " M385 180 L388,195 C382.98,195 377.305,204.402 370.5,201 359.086,195.293 360.793,163.085 355,151.5 355,151.5 354,143.5 354,143.5 350.944,137.389 350.049,130.598 347,124.5 346.263,123.025 345.295,117 343,117 343,117 345,103 345,103 345,103 347,102 347,102 347,102 352.5,108 352.5,108 355.958,111.458 356.993,115.485 359,119.5 365.58,132.659 362.43,150.359 369,163.5 371.137,167.774 369.341,178.42 374.5,181 378.969,183.235 381.044,180 385,180  Z"/>

<path  fill="#7DCD4B" stroke-width="0" stroke="#7DCD4B" d = " M370 106 L369,107 C369,107 364,103 364,103 364,103 364,102 364,102 364,102 365,102 365,102 365,102 370,106 370,106  Z"/>

<path  fill="#7DCD4B" stroke-width="0" stroke="#7DCD4B" d = " M87 106 L87,107 C87,107 91,104 91,104 91,104 91,103 91,103 89.5711,103 87,104.288 87,106  Z"/>

<path  fill="#C8CBCC" stroke-width="0" stroke="#C8CBCC" d = " M92 103 L91,104 C91,104 91,103 91,103 91,103 92,103 92,103  Z"/>

<path  fill="#0C858B" stroke-width="0" stroke="#0C858B" d = " M85 107 L81,109 C81,109 83,105 83,105 83,105 84,105 84,105 84,105 85,107 85,107  Z"/>

<path  fill="#32B824" stroke-width="0" stroke="#32B824" d = " M76 115 C76,118.496 72.4878,121.524 71,124.5 67.9233,130.653 70.0912,139.318 67,145.5 66.1284,147.243 66.4832,168.466 67,169.5 67.9399,171.38 71,177.124 71,179 72.9515,179 71.4772,176.546 72,175.5 74.0386,171.423 75,164.786 75,160 75,160 77,154.5 77,154.5 77,154.5 79,140.5 79,140.5 83.5787,131.343 87,117.816 87,107 87,107 87,106 87,106 87,106 85,107 85,107 85,107 81,109 81,109 81,110.747 80.7469,111 79,111 79,111 77,114 77,114 77,114 76,115 76,115  Z"/>

<path  fill="#FF64FF" stroke-width="0" stroke="#FF64FF" d = " M145 106 C142.891,106 143,108.535 143,110 143,110 145,106 145,106  Z"/>

<path  fill="#A9A9A8" stroke-width="0" stroke="#A9A9A8" d = " M231 125 C229.148,125 227.691,126 226,126 226,126 220,116.5 220,116.5 220,116.5 228.5,106 228.5,106 228.548,106 235.57,114.64 236,115.5 237.468,118.436 231,122.383 231,125  Z"/>

<path  fill="#32B824" stroke-width="0" stroke="#32B824" d = " M379 114 L385,123.5 C387.972,129.443 392.207,161.086 389,167.5 388.017,169.467 388.016,179 385,179 385,174.633 382.948,166.396 381,162.5 378.015,156.53 380.047,144.594 377,138.5 372.85,130.199 369,116.673 369,107 369,107 370,106 370,106 370,106 371,106 371,106 371,106 378,112 378,112 378,112 379,114 379,114  Z"/>

<path  fill="#0C858B" stroke-width="0" stroke="#0C858B" d = " M373 106 C374.26,106 378,110.768 378,112 378,112 371,106 371,106 371,106 373,106 373,106  Z"/>

<path  fill="#0C858B" stroke-width="0" stroke="#0C858B" d = " M81 109 L79,111 C80.7469,111 81,110.747 81,109  Z"/>

<path  fill="#FF64FF" stroke-width="0" stroke="#FF64FF" d = " M143 111 L142,113 C142,113 143,111 143,111  Z"/>

<path  fill="#FF64FF" stroke-width="0" stroke="#FF64FF" d = " M142 113 C140.286,113 141,118.594 141,120 142.714,120 142,114.406 142,113  Z"/>

<path  fill="#FE79FF" stroke-width="0" stroke="#FE79FF" d = " M167 113 C167,116.746 169.091,113 167,113  Z"/>

<path  fill="#FE79FF" stroke-width="0" stroke="#FE79FF" d = " M288 113 C288,116.746 290.091,113 288,113  Z"/>

<path  fill="#31B824" stroke-width="0" stroke="#31B824" d = " M77 114 L76,115 C76,115 77,114 77,114  Z"/>

<path  fill="#31B824" stroke-width="0" stroke="#31B824" d = " M388 195 L389,195 C389,195 395,188.5 395,188.5 397.037,184.426 396.97,179.561 399,175.5 400.584,172.332 399.351,161.202 398,158.5 397.137,156.775 393,125.843 393,123 388.609,123 381.195,114 379,114 379,114 385,123.5 385,123.5 387.972,129.443 392.207,161.086 389,167.5 388.017,169.467 388.016,179 385,179 385,179 385,180 385,180 385,180 388,195 388,195  Z"/>

<path  fill="#31B824" stroke-width="0" stroke="#31B824" d = " M71 180 C71,185.15 68,189.337 68,194 60.5574,194 61.0357,182.571 59,178.5 56.7606,174.021 58.8658,137.768 61,133.5 61,133.5 64,123 64,123 68.4196,123 72.3011,115 76,115 76,118.496 72.4878,121.524 71,124.5 67.9233,130.653 70.0912,139.318 67,145.5 66.1284,147.243 66.4832,168.466 67,169.5 67.9399,171.38 71,177.124 71,179 71,179 71,180 71,180  Z"/>

<path  fill="#31B723" stroke-width="0" stroke="#31B723" d = " M68 195 L66,206 C71.4869,206 89.4892,217.522 94,208.5 96.7135,203.073 103,183.867 103,178 103,176.388 104.778,167 106,167 106,149.239 113,134.279 113,117 110.845,117 109.767,123.965 109,125.5 104.963,133.574 104.634,145.232 101,152.5 95.5637,163.373 96.9021,195.799 86.5,201 79.4127,204.544 73.521,195 68,195  Z"/>

<path  fill="#31B723" stroke-width="0" stroke="#31B723" d = " M389 195 C389,199.078 391,202.622 391,206 382.922,206 367.37,219.239 361,206.5 356.54,197.581 357.44,186.381 353,177.5 352.264,176.029 353.357,170 351,170 351,151.508 343,134.812 343,117 345.295,117 346.263,123.025 347,124.5 350.049,130.598 350.944,137.389 354,143.5 354,143.5 355,151.5 355,151.5 360.793,163.085 359.086,195.293 370.5,201 377.305,204.402 382.98,195 388,195 388,195 389,195 389,195  Z"/>

<path  fill="#FF8FFD" stroke-width="0" stroke="#FF8FFD" d = " M208 188 L212,188 C212,186.527 213.952,187 215,187 215,187 215,183 215,183 209.814,183 218,172.462 218,181 218,181 219,180 219,180 219,180 221,172 221,172 221,172 218.5,175 218.5,175 217.566,175 218.55,169 221,169 221,169 221,166 221,166 220.573,166 218,159.888 218,159 218,159 217,159 217,159 217,167.104 202.977,155 213,155 213,155 213,154 213,154 209.242,154 206.656,150.578 203.5,149 188.643,141.572 190,141.55 190,125 190,117.731 172.859,120.321 169.5,122 169.5,122 163,128 163,128 163,128.088 151.711,147 163,147 163,147 166.5,143 166.5,143 171.467,140.516 176.591,138.455 181.5,136 184.96,134.27 189.203,143.095 188,145.5 188,145.5 180,151 180,151 180,151 181,152 181,152 186.293,152 193,158.397 193,164 198.512,164 207.768,164.634 212.5,167 213.797,167.649 215.17,172.165 213.5,173 209.647,174.927 204.501,174 201,174 201,179.941 201.45,180.025 195.5,183 193.723,183.888 187,181.719 187,185 187,185 198.5,185 198.5,185 198.5,185 203,187 203,187 203,187 205,187 205,187 205,187 208,188 208,188  Z"/>

<path  fill-rule="evenodd" fill="#FF8FFD" stroke-width="0" stroke="#FF8FFD" d = " M236 169 C236,170.128 236.101,175 237.5,175 238.854,175 237.575,169 236,169  M244 188 L249,188 C249,188 251,187 251,187 251,187 253,187 253,187 253,187 258.5,185 258.5,185 258.5,185 273,186 273,186 273,186 273,185 273,185 268.707,185 256.192,182.884 254,178.5 252.942,176.384 256,175.602 256,174 252.004,174 246.694,175.097 242.5,173 240.83,172.165 242.203,167.649 243.5,167 243.5,167 263,164 263,164 263,159.126 270.094,152 275,152 275,152 277,151 277,151 277,151 269,146.5 269,146.5 267.679,143.857 270.042,139.416 271,137.5 273.194,133.112 293,143.323 293,147 304.927,147 293.463,125.482 288.5,123 283.638,120.569 276.174,118.163 270.5,121 270.5,121 266,125 266,125 266,130.895 269.165,141.667 262.5,145 260.385,146.058 257.539,145.981 255.5,147 251.938,148.781 248.115,154 244,154 244,154 244,155 244,155 246.281,155 248.001,159.75 245.5,161 243.339,162.081 240.606,160 239,160 239,160 238,160 238,160 238,160 235,167 235,167 235,169.33 235.661,179 238,179 245.489,179 244.064,183 241,183 241,183 242,187 242,187 242,187 244,188 244,188  Z"/>

<path  fill-rule="evenodd" fill="#FF64FF" stroke-width="0" stroke="#FF64FF" d = " M139 141 L138,144 C138,154.269 146.322,141 139,141  M145 139 C145,140.947 141.572,142.644 143,145.5 148.193,155.887 162.612,139 145,139  M140 159 C141.78,159 144.539,154.02 148.5,156 L154,161 C154,161 155,151.5 155,151.5 157.797,145.906 161,151.79 161,155 162.714,155 164.482,153 167,153 167,151.452 163,150.233 163,147 151.711,147 163,128.088 163,128 158.903,128 153.043,133.771 147.5,131 144.382,129.441 143.429,127.358 142,124.5 141.477,123.454 142.951,121 141,121 141,121.36 137,133.725 137,127 135.3,127 136,132.137 136,133.5 136,133.5 136,154 136,154 136,154 138.5,150 138.5,150 140.893,150 140,157.525 140,159  Z"/>

<path  fill="#32B725" stroke-width="0" stroke="#32B725" d = " M65 206 L66,206 C66,206 68,195 68,195 68,195 68,194 68,194 60.5574,194 61.0357,182.571 59,178.5 56.7606,174.021 58.8658,137.768 61,133.5 61,133.5 64,123 64,123 64,123 57,125 57,125 57,136.346 46.2573,171.015 51,180.5 53.6112,185.722 55.3754,191.251 58,196.5 58,196.5 65,206 65,206  Z"/>

<path  fill="#32B725" stroke-width="0" stroke="#32B725" d = " M389 195 C389,199.078 391,202.622 391,206 392.656,206 400.004,192.493 401,190.5 411.648,169.204 400,147.685 400,125 400,125 399,125 399,125 399,125 393,123 393,123 393,125.843 397.137,156.775 398,158.5 399.351,161.202 400.584,172.332 399,175.5 396.97,179.561 397.037,184.426 395,188.5 395,188.5 389,195 389,195  Z"/>

<path  fill="#32B825" stroke-width="0" stroke="#32B825" d = " M65 206 L64,213 C56.4584,213 51.4864,200.473 49,195.5 46.016,189.532 43.9311,183.362 41,177.5 36.9328,169.366 47,143.732 47,133 47,133 47,131 47,131 51.0379,131 53.4761,125 57,125 57,136.346 46.2573,171.015 51,180.5 53.6112,185.722 55.3754,191.251 58,196.5 58,196.5 65,206 65,206  Z"/>

<path  fill="#FF64FF" stroke-width="0" stroke="#FF64FF" d = " M226 131 L231,131 C231,131 231,125 231,125 229.148,125 227.691,126 226,126 226,126 226,131 226,131  Z"/>

<path  fill="#32B825" stroke-width="0" stroke="#32B825" d = " M392 213 L393,213 C400.842,213 406.599,197.302 409,192.5 422.59,165.32 409,158.081 409,132 409,132 409,131 409,131 405.45,131 403.144,125 400,125 400,147.685 411.648,169.204 401,190.5 400.004,192.493 392.656,206 391,206 391,206 392,213 392,213  Z"/>

<path  fill="#FDA6FF" stroke-width="0" stroke="#FDA6FF" d = " M225 164 L227.5,167 L231,165 C231,165 231,163 231,163 231,163 232,162 232,162 232,162 232,161 232,161 232,161 233,160 233,160 233,160 234,156 234,156 234,151.462 235.425,131 231,131 231,131 226,131 226,131 219.739,131 223,152.983 223,157 223,157 225,163 225,163 225,163 225,164 225,164  Z"/>

<path  fill="#32B722" stroke-width="0" stroke="#32B722" d = " M393 213 C393,214.622 392.539,218 395,218 401.839,218 408.544,206.412 411,201.5 413.615,196.269 423.992,172.483 421,166.5 420.009,164.519 414,138.278 414,136 414,136 409,132 409,132 409,158.081 422.59,165.32 409,192.5 406.599,197.302 400.842,213 393,213  Z"/>

<path  fill="#32B722" stroke-width="0" stroke="#32B722" d = " M64 214 L62,218 C56.0391,218 49.3558,209.212 47,204.5 43.2082,196.916 31.1208,171.258 36,161.5 38.732,156.036 42,142.438 42,136 43.9467,136 44.6356,133 47,133 47,143.732 36.9328,169.366 41,177.5 43.9311,183.362 46.016,189.532 49,195.5 51.4864,200.473 56.4584,213 64,213 64,213 64,214 64,214  Z"/>

<path  fill="#FC90FF" stroke-width="0" stroke="#FC90FF" d = " M167 153 L169,153 C169,153 171,152 171,152 171,152 177,152 177,152 177,150.527 178.952,151 180,151 180,151 188,145.5 188,145.5 189.203,143.095 184.96,134.27 181.5,136 176.591,138.455 171.467,140.516 166.5,143 166.5,143 163,147 163,147 163,150.233 167,151.452 167,153  Z"/>

<path  fill="#FC90FF" stroke-width="0" stroke="#FC90FF" d = " M288 153 L290,153 C290,151.726 293,150.067 293,147 293,143.323 273.194,133.112 271,137.5 270.042,139.416 267.679,143.857 269,146.5 269,146.5 277,151 277,151 277,151 279,152 279,152 279,152 286,152 286,152 286,152 288,153 288,153  Z"/>

<path  fill="#FF7AFE" stroke-width="0" stroke="#FF7AFE" d = " M145 139 C145,140.947 141.572,142.644 143,145.5 148.193,155.887 162.612,139 145,139  Z"/>

<path  fill="#FF7AFE" stroke-width="0" stroke="#FF7AFE" d = " M305 139 C305,140.984 301.722,142.945 303,145.5 308.064,155.628 323.168,139 305,139  Z"/>

<path  fill="#FF79FD" stroke-width="0" stroke="#FF79FD" d = " M139 141 L138,144 C138,154.269 146.322,141 139,141  Z"/>

<path  fill="#FF79FD" stroke-width="0" stroke="#FF79FD" d = " M316 141 L315,143.5 C315,154.462 320.927,141 316,141  Z"/>

<path  fill="#C9C9CB" stroke-width="0" stroke="#C9C9CB" d = " M159 183 C159,186.865 158.573,189.355 157,192.5 156.118,194.264 153,194.663 153,192 153,180.871 154,171.043 154,161 154,161 155,151.5 155,151.5 157.797,145.906 161,151.79 161,155 161,163.86 159,170.301 159,179 159,179 159,183 159,183  Z"/>

<path  fill="#C9C9CB" stroke-width="0" stroke="#C9C9CB" d = " M297 183 C297,185.003 298.829,195.836 302.5,194 L304,191 C304,185.277 303.509,175.518 301,170.5 301,170.5 302,161 302,161 302,149.766 296,143.39 296,159 296,165.219 298,170.387 298,176 298,177.048 298.473,179 297,179 297,179 297,183 297,183  Z"/>

<path  fill="#C9C9CB" stroke-width="0" stroke="#C9C9CB" d = " M136 195 L142,200 C142,200 140,194 140,194 140,190.594 134.88,185.739 137,181.5 140.17,175.159 140,166.617 140,159 140,157.525 140.893,150 138.5,150 138.5,150 136,154 136,154 136,156.816 135.225,161.049 134,163.5 131.568,168.364 135,185.743 135,191 135,191 136,195 136,195  Z"/>

<path  fill="#C9C9CB" stroke-width="0" stroke="#C9C9CB" d = " M315 196 L315,199 C318.086,199 317.914,195 321,195 321,195 322,191 322,191 322,187.764 323.339,167.178 323,166.5 321.359,163.219 320,156.72 320,153 320,153 317.5,150 317.5,150 317.5,150 317,161 317,161 317,166.506 320.307,186.885 319,189.5 319,189.5 317,193 317,193 317,193 316,194 316,194 316,194 316,195 316,195 316,195 315,196 315,196  Z"/>

<path  fill="#FF64FF" stroke-width="0" stroke="#FF64FF" d = " M177 152 L181,152 C181,152 180,151 180,151 178.952,151 177,150.527 177,152  Z"/>

<path  fill="#FF64FF" stroke-width="0" stroke="#FF64FF" d = " M275 152 L279,152 C279,152 277,151 277,151 277,151 275,152 275,152  Z"/>

<path  fill="#FF64FF" stroke-width="0" stroke="#FF64FF" d = " M171 152 L169,153 C169,153 171,152 171,152  Z"/>

<path  fill="#FFA5FD" stroke-width="0" stroke="#FFA5FD" d = " M183 185 L187,185 C187,181.719 193.723,183.888 195.5,183 201.45,180.025 201,179.941 201,174 185.235,174 193,173.63 193,164 193,158.397 186.293,152 181,152 181,152 177,152 177,152 177,152 171,152 171,152 171,152 169,153 169,153 169,153 167,153 167,153 164.482,153 162.714,155 161,155 161,163.86 159,170.301 159,179 159,179 162,183 162,183 162,183 169.5,187 169.5,187 172.97,188.735 178.798,186 182,186 182,186 183,185 183,185  Z"/>

<path  fill="#FFA5FD" stroke-width="0" stroke="#FFA5FD" d = " M273 185 L275,186 C278.036,186 284.064,188.718 287.5,187 289.29,186.105 290.903,184 293,184 293,184 294,183 294,183 294,183 295,183 295,183 295,183 297,179 297,179 297,177.952 296.527,176 298,176 298,170.387 296,165.219 296,159 294.604,159 294.469,153 290,153 290,153 288,153 288,153 288,153 286,152 286,152 286,152 279,152 279,152 279,152 275,152 275,152 270.094,152 263,159.126 263,164 263,164 265,166.5 265,166.5 269.589,175.678 260.403,174 256,174 256,175.602 252.942,176.384 254,178.5 256.192,182.884 268.707,185 273,185  Z"/>

<path  fill="#FF64FF" stroke-width="0" stroke="#FF64FF" d = " M286 152 L288,153 C288,153 286,152 286,152  Z"/>

<path  fill="#FF64FF" stroke-width="0" stroke="#FF64FF" d = " M218 159 C221.546,159 223.464,163 225,163 225,163 223,157 223,157 222.155,157 213,150.229 213,154 213,154 213,155 213,155 213,155 214,155 214,155 214,155 215,156 215,156 215,157.481 217,156.785 217,159 217,159 218,159 218,159  Z"/>

<path  fill="#FF64FF" stroke-width="0" stroke="#FF64FF" d = " M238 160 L239,160 C239,157.638 241.638,155 244,155 244,155 244,154 244,154 244,150.83 235.216,156 234,156 234,156 233,160 233,160 233.671,160 238,157.338 238,160  Z"/>

<path  fill="#FE8DFE" stroke-width="0" stroke="#FE8DFE" d = " M215 156 C215,157.481 217,156.785 217,159 217,167.104 202.977,155 213,155 213,155 214,155 214,155 214,155 215,156 215,156  Z"/>

<path  fill="#FF8FFD" stroke-width="0" stroke="#FF8FFD" d = " M214 155 L215,156 C215,156 214,155 214,155  Z"/>

<path  fill="#FE8DFE" stroke-width="0" stroke="#FE8DFE" d = " M244 155 C246.281,155 248.001,159.75 245.5,161 243.339,162.081 240.606,160 239,160 239,157.638 241.638,155 244,155  Z"/>

<path  fill="#FFAC6F" stroke-width="0" stroke="#FFAC6F" d = " M153 192 L149.5,197 C145.268,199.116 142.78,194 140,194 140,190.594 134.88,185.739 137,181.5 140.17,175.159 140,166.617 140,159 141.78,159 144.539,154.02 148.5,156 148.5,156 154,161 154,161 154,171.043 153,180.871 153,192  Z"/>

<path  fill="#FFAC6F" stroke-width="0" stroke="#FFAC6F" d = " M316 195 L315,196 C310.682,196 304,198.73 304,191 304,185.277 303.509,175.518 301,170.5 301,170.5 302,161 302,161 304.522,161 307.187,153.343 312.5,156 314.063,156.781 316.026,161 317,161 317,166.506 320.307,186.885 319,189.5 319,189.5 317,193 317,193 317,193 316,194 316,194 316,194 316,195 316,195  Z"/>

<path  fill="#CBCBCC" stroke-width="0" stroke="#CBCBCC" d = " M225 164 C225,166.978 222.005,166 221,166 220.573,166 218,159.888 218,159 221.546,159 223.464,163 225,163 225,163 225,164 225,164  Z"/>

<path  fill="#CBCBCC" stroke-width="0" stroke="#CBCBCC" d = " M231 165 L235,167 C235,167 238,160 238,160 238,157.338 233.671,160 233,160 233,160 232,161 232,161 232,161 232,162 232,162 232,162 231,163 231,163 231,163 231,165 231,165  Z"/>

<path  fill="#FF64FF" stroke-width="0" stroke="#FF64FF" d = " M233 160 L232,161 C232,161 233,160 233,160  Z"/>

<path  fill="#FF64FF" stroke-width="0" stroke="#FF64FF" d = " M232 162 L231,163 C231,163 232,162 232,162  Z"/>

<path  fill="#CBC9CB" stroke-width="0" stroke="#CBC9CB" d = " M193 164 C198.512,164 207.768,164.634 212.5,167 213.797,167.649 215.17,172.165 213.5,173 209.647,174.927 204.501,174 201,174 185.235,174 193,173.63 193,164  Z"/>

<path  fill-rule="evenodd" fill="#FF64FF" stroke-width="0" stroke="#FF64FF" d = " M227 170 L226,174 C226,187.417 236.41,170 227,170  M223 189 C225.194,189 227.269,191 228.5,191 228.788,191 230.939,189 233,189 233,185.702 234.631,181 238,181 238,181 238,179 238,179 235.661,179 235,169.33 235,167 235,167 231,165 231,165 231,165 227.5,167 227.5,167 227.5,167 225,164 225,164 225,166.978 222.005,166 221,166 221,166 221,169 221,169 221,169 221,172 221,172 221,172 219,180 219,180 221.911,180 223,186.752 223,189  Z"/>

<path  fill="#CBC9CB" stroke-width="0" stroke="#CBC9CB" d = " M263 164 L243.5,167 C242.203,167.649 240.83,172.165 242.5,173 246.694,175.097 252.004,174 256,174 260.403,174 269.589,175.678 265,166.5 265,166.5 263,164 263,164  Z"/>

<path  fill="#30B824" stroke-width="0" stroke="#30B824" d = " M64 213 L64,214 C71.1243,214 83.7753,226.362 94.5,221 101.276,217.612 105,202.065 105,195.5 105,194.02 106.909,185 108,185 108,179.28 106,173.445 106,167 104.778,167 103,176.388 103,178 103,183.867 96.7135,203.073 94,208.5 89.4892,217.522 71.4869,206 66,206 66,206 65,206 65,206 65,206 64,213 64,213  Z"/>

<path  fill="#C8C8C8" stroke-width="0" stroke="#C8C8C8" d = " M221 169 C218.55,169 217.566,175 218.5,175 L221,172 C221,172 221,169 221,169  Z"/>

<path  fill="#C8C8C8" stroke-width="0" stroke="#C8C8C8" d = " M236 169 C236,170.128 236.101,175 237.5,175 238.854,175 237.575,169 236,169  Z"/>

<path  fill="#CCC7CC" stroke-width="0" stroke="#CCC7CC" d = " M227 170 L226,174 C226,187.417 236.41,170 227,170  Z"/>

<path  fill="#30B824" stroke-width="0" stroke="#30B824" d = " M391 206 L392,213 C392,215.825 386.137,216.181 384.5,217 378.454,220.023 368.73,224.615 361.5,221 355.42,217.96 349,190.827 349,184 349,184 351,170 351,170 353.357,170 352.264,176.029 353,177.5 357.44,186.381 356.54,197.581 361,206.5 367.37,219.239 382.922,206 391,206  Z"/>

<path  fill="#FF64FF" stroke-width="0" stroke="#FF64FF" d = " M298 176 C296.527,176 297,177.952 297,179 298.473,179 298,177.048 298,176  Z"/>

<path  fill="#FC90FE" stroke-width="0" stroke="#FC90FE" d = " M218 181 C218,183.293 217.003,183 215,183 209.814,183 218,172.462 218,181  Z"/>

<path  fill="#FC90FE" stroke-width="0" stroke="#FC90FE" d = " M238 181 C238,182.577 239.762,183 241,183 244.064,183 245.489,179 238,179 238,179 238,181 238,181  Z"/>

<path  fill="#FF64FF" stroke-width="0" stroke="#FF64FF" d = " M159 183 L162,183 C162,183 159,179 159,179 159,179 159,183 159,183  Z"/>

<path  fill="#FF64FF" stroke-width="0" stroke="#FF64FF" d = " M295 183 L297,183 C297,183 297,179 297,179 297,179 295,183 295,183  Z"/>

<path  fill="#FD90FE" stroke-width="0" stroke="#FD90FE" d = " M215 187 C215,189.706 223,193.216 223,189 223,186.752 221.911,180 219,180 219,180 218,181 218,181 218,183.293 217.003,183 215,183 215,183 215,187 215,187  Z"/>

<path  fill="#FD90FE" stroke-width="0" stroke="#FD90FE" d = " M242 187 L237.5,191 C235.384,192.058 234.602,189 233,189 233,185.702 234.631,181 238,181 238,182.577 239.762,183 241,183 241,183 242,187 242,187  Z"/>

<path  fill-rule="evenodd" fill="#FF9B88" stroke-width="0" stroke="#FF9B88" d = " M148 198 L146,200.5 L147,203.5 C151.285,212.07 153.305,198 148,198  M168 245 C166.075,245 167.213,252 165,252 165,245.945 167.909,237.318 165,231.5 159.121,219.741 159,238.945 159,241 155.057,241 156.887,245 155,245 155,239.436 155.29,235.081 153,230.5 151.74,227.981 149.673,210 145.5,210 142.047,210 140.906,218.689 140,220.5 135.417,229.667 140.324,249 153,249 153,251.846 143.677,247.853 143,246.5 141.432,243.364 137.718,231 134,231 134,231 133,230 133,230 133,230 133,229 133,229 133,222.262 140.081,214.338 143,208.5 144.284,205.932 142,202.014 142,200 142,200 140,194 140,194 142.78,194 145.268,199.116 149.5,197 149.5,197 153,192 153,192 153,194.663 156.118,194.264 157,192.5 158.573,189.355 159,186.865 159,183 159,183 162,183 162,183 162,183 169.5,187 169.5,187 172.97,188.735 178.798,186 182,186 182,186 183,186 183,186 183,186 184,186 184,186 184,187.517 175.972,189.264 174.5,190 172.674,190.913 166.889,197 166,197 166,187.813 148.67,201.585 155.5,205 155.5,205 161.5,205 161.5,205 163.487,205 165.552,204 167,204 167,204 169,209 169,209 167.009,209 166.069,204.716 163.5,206 155.375,210.063 161.956,229 169,229 169,229 171,231 171,231 171,231 168,235.5 168,235.5 168,235.5 168,245 168,245  Z"/>

<path  fill="#FF64FF" stroke-width="0" stroke="#FF64FF" d = " M294 183 L293,184 C293,184 294,183 294,183  Z"/>

<path  fill-rule="evenodd" fill="#FF9B88" stroke-width="0" stroke="#FF9B88" d = " M307 198 L305,201.5 C304.347,202.807 305.506,206.997 307.5,206 310.895,204.303 311.725,198 307,198  M288 245 C292.146,245 288.233,253 292,253 292,248.143 288.455,237.591 291,232.5 296.264,221.972 298,237.342 298,241 300.215,241 299.519,243 301,243 301,233.802 303.188,225.125 307,217.5 307.587,216.325 308.344,210 310.5,210 314.568,210 317.487,222.475 319,225.5 319,225.5 317,237 317,237 317,237 323,230 323,230 323,221.858 316.448,213.395 313,206.5 311.442,203.383 315,201.099 315,199 315,199 315,196 315,196 310.682,196 304,198.73 304,191 304,191 302.5,194 302.5,194 298.829,195.836 297,185.003 297,183 297,183 295,183 295,183 295,183 294,183 294,183 294,183 293,184 293,184 290.903,184 289.29,186.105 287.5,187 284.064,188.718 278.036,186 275,186 275,186 273,186 273,186 273,187.517 281.028,189.264 282.5,190 282.5,190 290,197 290,197 290,187.209 306.781,202.36 301.5,205 301.5,205 294.5,205 294.5,205 292.111,205 290.666,203 289,203 289,203 288,209 288,209 290.648,209 289.978,204.739 294.5,207 298.301,208.9 296.307,228 287,228 287,229.238 286.577,231 285,231 285,231.427 288.345,236.19 289,237.5 289,237.5 288,245 288,245  Z"/>

<path  fill="#31B625" stroke-width="0" stroke="#31B625" d = " M393 213 C393,214.622 392.539,218 395,218 395,218 387.5,222 387.5,222 383.07,224.215 367.089,230.795 361.5,228 352.765,223.633 345,200.3 345,191 345,191 349,184 349,184 349,190.827 355.42,217.96 361.5,221 368.73,224.615 378.454,220.023 384.5,217 386.137,216.181 392,215.825 392,213 392,213 393,213 393,213  Z"/>

<path  fill="#31B625" stroke-width="0" stroke="#31B625" d = " M64 214 L62,218 C62,219.615 67.2199,221.36 68.5,222 72.8453,224.173 89.011,230.745 94.5,228 103.349,223.575 111,202.966 111,193 111,191.346 109.802,185 108,185 106.909,185 105,194.02 105,195.5 105,202.065 101.276,217.612 94.5,221 83.7753,226.362 71.1243,214 64,214  Z"/>

<path  fill="#FF64FF" stroke-width="0" stroke="#FF64FF" d = " M182 186 L183,186 C183,186 183,185 183,185 183,185 182,186 182,186  Z"/>

<path  fill="#FF8FFD" stroke-width="0" stroke="#FF8FFD" d = " M183 186 L184,186 C185.048,186 187,186.473 187,185 187,185 183,185 183,185 183,185 183,186 183,186  Z"/>

<path  fill="#FFC295" stroke-width="0" stroke="#FFC295" d = " M207 247 C197.41,247 186.924,248 178,248 178,243.593 176.569,231 171,231 171,231 169,229 169,229 169,229 169,209 169,209 169,209 167,204 167,204 167,204 166,197 166,197 166.889,197 172.674,190.913 174.5,190 175.972,189.264 184,187.517 184,186 185.048,186 187,186.473 187,185 187,185 198.5,185 198.5,185 198.5,185 203,187 203,187 203,187 205,189 205,189 205,192.623 208.34,206.18 210,209.5 210.706,210.911 210.386,215 213,215 213,215 216,223.5 216,223.5 217.602,226.704 213,228.652 213,231 204.026,231 207,242.468 207,247  Z"/>

<path  fill="#FFC295" stroke-width="0" stroke="#FFC295" d = " M249 247 C258.92,247 269.748,248 279,248 279,243.638 280.156,231 285,231 286.577,231 287,229.238 287,228 287,221.682 288,214.678 288,209 288,209 289,203 289,203 289,201.436 290,199.124 290,197 290,197 282.5,190 282.5,190 281.028,189.264 273,187.517 273,186 273,186 258.5,185 258.5,185 258.5,185 253,187 253,187 253,187 252,189 252,189 252,191.85 245.176,215 243,215 243,216.424 242.638,220 241,220 241,220 241,221 241,221 241,224.526 243,229.954 243,231 253.422,231 249,243.342 249,247  Z"/>

<path  fill="#FF64FF" stroke-width="0" stroke="#FF64FF" d = " M273 186 L275,186 C275,186 273,185 273,185 273,185 273,186 273,186  Z"/>

<path  fill="#FF9B88" stroke-width="0" stroke="#FF9B88" d = " M205 187 L205,189 C205,189 203,187 203,187 203,187 205,187 205,187  Z"/>

<path  fill="#C8C8CC" stroke-width="0" stroke="#C8C8CC" d = " M215 213 L213,215 C210.386,215 210.706,210.911 210,209.5 208.34,206.18 205,192.623 205,189 205,189 205,187 205,187 205,187 208,188 208,188 208,190.063 211.035,202 213,202 213,202 215,213 215,213  Z"/>

<path  fill="#FFC393" stroke-width="0" stroke="#FFC393" d = " M241 220 L241,221 C240.786,221 238.533,234.016 230.5,230 230.5,230 228.5,218 228.5,218 225.714,218 227.566,228.967 225.5,230 216.656,234.422 215,218.068 215,213 215,213 213,202 213,202 213,197.879 212,192.725 212,188 212,186.527 213.952,187 215,187 215,189.706 223,193.216 223,189 225.194,189 227.269,191 228.5,191 228.788,191 230.939,189 233,189 234.602,189 235.384,192.058 237.5,191 237.5,191 242,187 242,187 242,187 244,188 244,188 244,188 244,201 244,201 244,204.956 242,208.497 242,213 240.286,213 241,218.594 241,220  Z"/>

<path  fill="#C8C8CC" stroke-width="0" stroke="#C8C8CC" d = " M242 213 L243,215 C245.176,215 252,191.85 252,189 252,189 251,187 251,187 251,187 249,188 249,188 249,189.338 244.744,201 244,201 244,204.956 242,208.497 242,213  Z"/>

<path  fill="#FF9B88" stroke-width="0" stroke="#FF9B88" d = " M253 187 L252,189 C252,189 251,187 251,187 251,187 253,187 253,187  Z"/>

<path  fill="#FF9B88" stroke-width="0" stroke="#FF9B88" d = " M212 188 C212,192.725 213,197.879 213,202 211.035,202 208,190.063 208,188 208,188 212,188 212,188  Z"/>

<path  fill="#FF9B88" stroke-width="0" stroke="#FF9B88" d = " M249 188 C249,189.338 244.744,201 244,201 244,201 244,188 244,188 244,188 249,188 249,188  Z"/>

<path  fill="#F0F080" stroke-width="0" stroke="#F0F080" d = " M136 195 C133.003,195 129.258,199 127,199 127,193.314 129.356,191 135,191 135,191 136,195 136,195  Z"/>

<path  fill="#F0F080" stroke-width="0" stroke="#F0F080" d = " M321 195 C321,195.144 328.359,198 329,198 329,193.271 326.729,191 322,191 322,191 321,195 321,195  Z"/>

<path  fill="#FF9B88" stroke-width="0" stroke="#FF9B88" d = " M317 193 L316,194 C316,194 317,193 317,193  Z"/>

<path  fill="#FEBA86" stroke-width="0" stroke="#FEBA86" d = " M166 197 L167,204 C165.552,204 163.487,205 161.5,205 161.5,205 155.5,205 155.5,205 148.67,201.585 166,187.813 166,197  Z"/>

<path  fill="#FEBA86" stroke-width="0" stroke="#FEBA86" d = " M290 197 C290,199.124 289,201.436 289,203 290.666,203 292.111,205 294.5,205 294.5,205 301.5,205 301.5,205 306.781,202.36 290,187.209 290,197  Z"/>

<path  fill="#CCCCCA" stroke-width="0" stroke="#CCCCCA" d = " M128 226 C129.947,226 130.636,229 133,229 133,222.262 140.081,214.338 143,208.5 144.284,205.932 142,202.014 142,200 142,200 136,195 136,195 133.003,195 129.258,199 127,199 127,199 127,201 127,201 127,201 126,202 126,202 126,202 126,205 126,205 126,212.375 128,219.579 128,226  Z"/>

<path  fill="#FF9B88" stroke-width="0" stroke="#FF9B88" d = " M316 195 L315,196 C315,196 316,195 316,195  Z"/>

<path  fill="#CCCCCA" stroke-width="0" stroke="#CCCCCA" d = " M329 226 C326.227,226 325.33,230 323,230 323,221.858 316.448,213.395 313,206.5 311.442,203.383 315,201.099 315,199 318.086,199 317.914,195 321,195 321,195.144 328.359,198 329,198 329,198 329,199 329,199 329,199 330,201 330,201 330,201 330,203 330,203 330,203 331,204 331,204 331,204 331,211 331,211 331,211 329,226 329,226  Z"/>

<path  fill="#CBC7CC" stroke-width="0" stroke="#CBC7CC" d = " M148 198 L146,200.5 L147,203.5 C151.285,212.07 153.305,198 148,198  Z"/>

<path  fill="#CBC7CC" stroke-width="0" stroke="#CBC7CC" d = " M307 198 L305,201.5 C304.347,202.807 305.506,206.997 307.5,206 310.895,204.303 311.725,198 307,198  Z"/>

<path  fill="#F0F080" stroke-width="0" stroke="#F0F080" d = " M329 199 L330,201 C330,201 329,199 329,199  Z"/>

<path  fill="#F0F080" stroke-width="0" stroke="#F0F080" d = " M127 201 L126,202 C126,202 127,201 127,201  Z"/>

<path  fill="#F0F080" stroke-width="0" stroke="#F0F080" d = " M330 203 L331,204 C331,204 330,203 330,203  Z"/>

<path  fill="#F0F080" stroke-width="0" stroke="#F0F080" d = " M123 227 L124,227 C124,227 128,226 128,226 128,219.579 126,212.375 126,205 124.357,205 125,208.765 125,210 125,216.332 123,221.194 123,227  Z"/>

<path  fill="#FEB886" stroke-width="0" stroke="#FEB886" d = " M169 209 C167.009,209 166.069,204.716 163.5,206 155.375,210.063 161.956,229 169,229 169,229 169,209 169,209  Z"/>

<path  fill="#FEB886" stroke-width="0" stroke="#FEB886" d = " M288 209 C290.648,209 289.978,204.739 294.5,207 298.301,208.9 296.307,228 287,228 287,221.682 288,214.678 288,209  Z"/>

<path  fill="#FFAE6F" stroke-width="0" stroke="#FFAE6F" d = " M155 246 L153,249 C140.324,249 135.417,229.667 140,220.5 140.906,218.689 142.047,210 145.5,210 149.673,210 151.74,227.981 153,230.5 155.29,235.081 155,239.436 155,245 155,245 155,246 155,246  Z"/>

<path  fill="#FFAE6F" stroke-width="0" stroke="#FFAE6F" d = " M311 247 C309.762,247 308,247.423 308,249 304.333,249 301.189,246 301,246 301,246 301,243 301,243 301,233.802 303.188,225.125 307,217.5 307.587,216.325 308.344,210 310.5,210 314.568,210 317.487,222.475 319,225.5 319,225.5 317,237 317,237 317,237 316,239 316,239 314.527,239 315,240.952 315,242 313.423,242 313,243.762 313,245 311.253,245 311,245.253 311,247  Z"/>

<path  fill="#F0F080" stroke-width="0" stroke="#F0F080" d = " M333 226 L333,228 C333,228 329,226 329,226 329,226 331,211 331,211 332.03,211 333,224.251 333,226  Z"/>

<path  fill="#FF9B88" stroke-width="0" stroke="#FF9B88" d = " M226 251 L223.5,249 C220.21,250.645 222.265,257 217,257 217,256.392 222.514,250 219,250 219,250 225,246.5 225,246.5 226.076,244.348 225.982,242.465 225,240.5 221.361,233.222 228.769,231 213,231 213,228.652 217.602,226.704 216,223.5 216,223.5 213,215 213,215 213,215 215,213 215,213 215,218.068 216.656,234.422 225.5,230 227.566,228.967 225.714,218 228.5,218 228.5,218 230.5,230 230.5,230 238.533,234.016 240.786,221 241,221 241,224.526 243,229.954 243,231 235.422,231 231,231.504 231,240 231,240 231,245.5 231,245.5 231,245.5 237,250 237,250 237,254.024 239,254.467 239,257 233.404,257 236.633,249 231,249 231,249 228.5,246 228.5,246 226.598,245.049 226,249.784 226,251  Z"/>

<path  fill="#FF9B88" stroke-width="0" stroke="#FF9B88" d = " M243 215 C243,216.424 242.638,220 241,220 241,218.594 240.286,213 242,213 242,213 243,215 243,215  Z"/>

<path  fill="#CACACB" stroke-width="0" stroke="#CACACB" d = " M134 231 C137.718,231 141.432,243.364 143,246.5 143.677,247.853 153,251.846 153,249 157.039,249 155.95,255.775 153.5,257 149.776,258.862 142.124,257.812 138.5,256 123.762,248.631 124,241.322 124,227 124,227 128,226 128,226 129.947,226 130.636,229 133,229 133,229 133,230 133,230 133,230 134,231 134,231  Z"/>

<path  fill="#CACACB" stroke-width="0" stroke="#CACACB" d = " M311 247 C311,248.577 309.238,249 308,249 308,251.281 297.722,247.945 300,252.5 305.931,264.362 326.153,254.195 331,244.5 333.473,239.554 333,233.987 333,228 333,228 329,226 329,226 326.227,226 325.33,230 323,230 323,230 317,237 317,237 317,237 316,239 316,239 316,240.048 316.473,242 315,242 315,243.238 314.577,245 313,245 313,246.747 312.747,247 311,247  Z"/>

<path  fill="#FF9B88" stroke-width="0" stroke="#FF9B88" d = " M299 261 C304.131,261 299,271.643 299,273 302.954,273 305.313,266.094 309.5,264 317.628,259.936 329.721,255.058 334,246.5 335.857,242.786 335.86,233.221 334,229.5 333.477,228.454 334.951,226 333,226 333,226 333,228 333,228 333,233.987 333.473,239.554 331,244.5 326.153,254.195 305.931,264.362 300,252.5 297.722,247.945 308,251.281 308,249 304.333,249 301.189,246 301,246 301,248.681 298.922,247 298,247 298,247 299,261 299,261  Z"/>

<path  fill="#FF9B88" stroke-width="0" stroke="#FF9B88" d = " M165 279 C166.432,279 174,285.261 174,287 166.716,287 157.591,270.545 150.5,267 145.715,264.608 125.771,254.042 123,248.5 119.634,241.768 123,233.436 123,227 123,227 124,227 124,227 124,241.322 123.762,248.631 138.5,256 142.124,257.812 149.776,258.862 153.5,257 155.95,255.775 157.039,249 153,249 153,249 155,246 155,246 155,246 157.5,248 157.5,248 157.5,248 159,246 159,246 159,251.239 157,255.279 157,261 157,261 155,265.5 155,265.5 153.343,268.813 161.33,279 165,279  Z"/>

<path  fill="#C8C8CB" stroke-width="0" stroke="#C8C8CB" d = " M157 261 L158,261 C161.041,261 160.477,259 163,259 163,259 163,258 163,258 163,256.952 162.527,255 164,255 164,255 165,253 165,253 165,253 165,252 165,252 165,245.945 167.909,237.318 165,231.5 159.121,219.741 159,238.945 159,241 159,241 159,246 159,246 159,251.239 157,255.279 157,261  Z"/>

<path  fill="#C8C8CB" stroke-width="0" stroke="#C8C8CB" d = " M292 254 C293.443,254 292.768,261 299,261 299,261 298,247 298,247 298,247 298,241 298,241 298,237.342 296.264,221.972 291,232.5 288.455,237.591 292,248.143 292,253 292,253 292,254 292,254  Z"/>

<path  fill="#CCCCCA" stroke-width="0" stroke="#CCCCCA" d = " M133 230 L134,231 C134,231 133,230 133,230  Z"/>

<path  fill="#C9C9CB" stroke-width="0" stroke="#C9C9CB" d = " M172 257 L174,257 C174,255.423 175.762,255 177,255 177,255 179,253.5 179,253.5 179,253.5 178,248 178,248 178,243.593 176.569,231 171,231 171,231 168,235.5 168,235.5 168,235.5 168,245 168,245 168,245 168,246 168,246 168,246 169,247 169,247 169,247 169,253 169,253 169,253 172,257 172,257  Z"/>

<path  fill="#FEBA85" stroke-width="0" stroke="#FEBA85" d = " M207 247 C210.293,247 213.435,250 219,250 219,250 225,246.5 225,246.5 226.076,244.348 225.982,242.465 225,240.5 221.361,233.222 228.769,231 213,231 204.026,231 207,242.468 207,247  Z"/>

<path  fill="#FEBA85" stroke-width="0" stroke="#FEBA85" d = " M249 247 C247.354,247 242.15,250 237,250 237,250 231,245.5 231,245.5 231,245.5 231,240 231,240 231,231.504 235.422,231 243,231 253.422,231 249,243.342 249,247  Z"/>

<path  fill="#C9C9CB" stroke-width="0" stroke="#C9C9CB" d = " M283 257 L284,257 C284,257 286,255 286,255 286,255 287,253 287,253 287,253 288,245 288,245 288,245 289,237.5 289,237.5 288.345,236.19 285,231.427 285,231 280.156,231 279,243.638 279,248 279,248 277,252.5 277,252.5 277,252.5 279,255 279,255 279,255 283,257 283,257  Z"/>

<path  fill="#FF9B88" stroke-width="0" stroke="#FF9B88" d = " M317 237 L316,239 C316,239 317,237 317,237  Z"/>

<path  fill="#FF9B88" stroke-width="0" stroke="#FF9B88" d = " M316 239 C314.527,239 315,240.952 315,242 316.473,242 316,240.048 316,239  Z"/>

<path  fill="#FDB986" stroke-width="0" stroke="#FDB986" d = " M155 246 L157.5,248 L159,246 C159,246 159,241 159,241 155.057,241 156.887,245 155,245 155,245 155,246 155,246  Z"/>

<path  fill="#FDB986" stroke-width="0" stroke="#FDB986" d = " M301 246 C301,248.681 298.922,247 298,247 298,247 298,241 298,241 300.215,241 299.519,243 301,243 301,243 301,246 301,246  Z"/>

<path  fill="#FF9B88" stroke-width="0" stroke="#FF9B88" d = " M315 242 C313.423,242 313,243.762 313,245 314.577,245 315,243.238 315,242  Z"/>

<path  fill="#FEAE6E" stroke-width="0" stroke="#FEAE6E" d = " M171 259 C171,261.722 176.84,277 169,277 169,277 163,268.5 163,268.5 163,268.5 163,259 163,259 163,259 163,258 163,258 164.473,258 164,256.048 164,255 164,255 165,253 165,253 165,253 165,252 165,252 167.213,252 166.075,245 168,245 168,245 168,246 168,246 168,246 169,247 169,247 169,247 169,253 169,253 169,254.974 171,256.517 171,259  Z"/>

<path  fill="#FEAE6E" stroke-width="0" stroke="#FEAE6E" d = " M285 258 C285,261.33 279.581,277 287,277 287,276.005 292.097,271.306 293,269.5 295.045,265.409 292,257.824 292,254 292,254 292,253 292,253 288.233,253 292.146,245 288,245 288,245 287,253 287,253 287,253 286,255 286,255 286,255 285,258 285,258  Z"/>

<path  fill="#FF9B88" stroke-width="0" stroke="#FF9B88" d = " M313 245 C311.253,245 311,245.253 311,247 312.747,247 313,246.747 313,245  Z"/>

<path  fill="#FF9B88" stroke-width="0" stroke="#FF9B88" d = " M168 246 L169,247 C169,247 168,246 168,246  Z"/>

<path  fill="#FFC5E2" stroke-width="0" stroke="#FFC5E2" d = " M226 258 C227.467,258 229.533,258 231,258 231,258 231,249 231,249 231,249 228.5,246 228.5,246 226.598,245.049 226,249.784 226,251 226,251 226,258 226,258  Z"/>

<path  fill="#FDBA86" stroke-width="0" stroke="#FDBA86" d = " M193 261 L210,261 C210,261 215,258 215,258 215,258 216,257 216,257 216,257 217,257 217,257 217,256.392 222.514,250 219,250 213.435,250 210.293,247 207,247 197.41,247 186.924,248 178,248 178,248 179,253.5 179,253.5 179,253.5 177,255 177,255 177,255 177,256 177,256 182.858,256 187.523,260 190,260 190,260 193,261 193,261  Z"/>

<path  fill="#FDBA86" stroke-width="0" stroke="#FDBA86" d = " M263 261 L265,261 C265,261 266,260 266,260 270.107,260 273.73,256 279,256 279,256 279,255 279,255 279,255 277,252.5 277,252.5 277,252.5 279,248 279,248 269.748,248 258.92,247 249,247 247.354,247 242.15,250 237,250 237,254.024 239,254.467 239,257 239,257 240,257 240,257 240,257 247,261 247,261 247,261 263,261 263,261  Z"/>

<path  fill="#FF9B88" stroke-width="0" stroke="#FF9B88" d = " M311 247 C309.762,247 308,247.423 308,249 309.238,249 311,248.577 311,247  Z"/>

<path  fill="#CACCC8" stroke-width="0" stroke="#CACCC8" d = " M226 258 C226,269.544 215,271.504 215,260 215,260 215,258 215,258 215,258 216,257 216,257 216,257 217,257 217,257 222.265,257 220.21,250.645 223.5,249 223.5,249 226,251 226,251 226,251 226,258 226,258  Z"/>

<path  fill="#CACCC8" stroke-width="0" stroke="#CACCC8" d = " M231 258 C231,269.794 241,271.389 241,260 241,260 240,257 240,257 240,257 239,257 239,257 233.404,257 236.633,249 231,249 231,249 231,258 231,258  Z"/>

<path  fill="#FF9B88" stroke-width="0" stroke="#FF9B88" d = " M165 253 L164,255 C164,255 165,253 165,253  Z"/>

<path  fill="#FF9B88" stroke-width="0" stroke="#FF9B88" d = " M172 257 L171,259 C171,256.517 169,254.974 169,253 169,253 172,257 172,257  Z"/>

<path  fill="#FF9B88" stroke-width="0" stroke="#FF9B88" d = " M287 253 L286,255 C286,255 287,253 287,253  Z"/>

<path  fill-rule="evenodd" fill="#FF9B88" stroke-width="0" stroke="#FF9B88" d = " M285 283 C285,284.93 286.93,283 285,283  M286 282 C286,283.93 287.93,282 286,282  M287 281 C287,282.93 288.93,281 287,281  M288 280 C288,281.93 289.93,280 288,280  M289 279 C289,280.93 290.93,279 289,279  M290 278 C290,279.93 291.93,278 290,278  M285 285 C285,286.577 283.238,287 282,287 282,285.423 283.729,285 281,285 281,282.234 287,281.348 287,277 287,276.005 292.097,271.306 293,269.5 295.045,265.409 292,257.824 292,254 293.443,254 292.768,261 299,261 299,261 297,263.5 297,263.5 294.843,267.815 294.234,273.032 292,277.5 292,277.5 293,279 293,279 293,280.89 286.626,285 285,285  Z"/>

<path  fill="#FF9B88" stroke-width="0" stroke="#FF9B88" d = " M164 255 C162.527,255 163,256.952 163,258 164.473,258 164,256.048 164,255  Z"/>

<path  fill="#FF9B88" stroke-width="0" stroke="#FF9B88" d = " M174 257 L176,257 C176,257 177,256 177,256 177,256 177,255 177,255 175.762,255 174,255.423 174,257  Z"/>

<path  fill="#FF9B88" stroke-width="0" stroke="#FF9B88" d = " M283 257 L280,258 C280,258 279,256 279,256 279,256 279,255 279,255 279,255 283,257 283,257  Z"/>

<path  fill="#FF9B88" stroke-width="0" stroke="#FF9B88" d = " M284 257 L285,258 C285,258 286,255 286,255 286,255 284,257 284,257  Z"/>

<path  fill="#FFAD6E" stroke-width="0" stroke="#FFAD6E" d = " M193 270 L191,274 C184.147,274 176,263.144 176,257 176,257 177,256 177,256 182.858,256 187.523,260 190,260 190,260 192,263 192,263 192,265.409 193,268.181 193,270  Z"/>

<path  fill="#FFAD6E" stroke-width="0" stroke="#FFAD6E" d = " M264 272 L266,274 C271.918,274 280,263.378 280,258 280,258 279,256 279,256 273.73,256 270.107,260 266,260 266,260 265,261 265,261 265,262.145 265.579,265 264,265 264,265 264,272 264,272  Z"/>

<path  fill="#FEAD6F" stroke-width="0" stroke="#FEAD6F" d = " M191 274 C191,278.637 196.53,274.439 193,281.5 189.599,288.302 169,286.06 169,277 176.84,277 171,261.722 171,259 171,259 172,257 172,257 172,257 174,257 174,257 174,257 176,257 176,257 176,263.144 184.147,274 191,274  Z"/>

<path  fill="#FF9B88" stroke-width="0" stroke="#FF9B88" d = " M216 257 L215,258 C215,258 216,257 216,257  Z"/>

<path  fill="#FF9B88" stroke-width="0" stroke="#FF9B88" d = " M243 261 L247,261 C247,261 240,257 240,257 240,257 241,260 241,260 241,260 243,261 243,261  Z"/>

<path  fill="#FEAD6F" stroke-width="0" stroke="#FEAD6F" d = " M287 277 C287,281.348 281,282.234 281,285 274.604,285 265.371,286.242 262,279.5 260.455,276.41 266,275.585 266,274 271.918,274 280,263.378 280,258 280,258 283,257 283,257 283,257 284,257 284,257 284,257 285,258 285,258 285,261.33 279.581,277 287,277  Z"/>

<path  fill="#FF9B88" stroke-width="0" stroke="#FF9B88" d = " M210 261 L213,261 C213,261 215,260 215,260 215,260 215,258 215,258 215,258 210,261 210,261  Z"/>

<path  fill="#FF9BCD" stroke-width="0" stroke="#FF9BCD" d = " M257 283 L259,283 C259,279.481 261,277.157 261,274 258.824,274 243.619,266.739 243,265.5 243,265.5 243,261 243,261 243,261 241,260 241,260 241,271.389 231,269.794 231,258 229.533,258 227.467,258 226,258 226,269.544 215,271.504 215,260 215,260 213,261 213,261 213,261 214,264.5 214,264.5 212.499,267.503 198.473,274 195,274 195,276.755 197,279.553 197,283 197,283 200,283 200,283 200,275.984 212.653,265.807 217,274.5 217,274.5 215,280 215,280 218.894,280 223.36,267.43 232.5,272 236.01,273.755 238.812,281 243,281 243,278.652 238.398,276.704 240,273.5 243.923,265.655 257,277.305 257,283  Z"/>

<path  fill="#FF9B88" stroke-width="0" stroke="#FF9B88" d = " M165 278 C168.3,278 175.319,285.409 178.5,287 183.684,289.592 192.223,283 197,283 197,279.553 195,276.755 195,274 192.891,274 193,271.465 193,270 193,270 191,274 191,274 191,278.637 196.53,274.439 193,281.5 189.599,288.302 169,286.06 169,277 169,277 163,268.5 163,268.5 163,268.5 163,259 163,259 160.477,259 161.041,261 158,261 158,263.193 163.893,278 165,278  Z"/>

<path  fill="#FF9B88" stroke-width="0" stroke="#FF9B88" d = " M193 261 L192,263 C192,263 190,260 190,260 190,260 193,261 193,261  Z"/>

<path  fill="#FF9B88" stroke-width="0" stroke="#FF9B88" d = " M266 260 L265,261 C265,261 266,260 266,260  Z"/>

<path  fill="#CBC7CC" stroke-width="0" stroke="#CBC7CC" d = " M165 278 L165,279 C161.33,279 153.343,268.813 155,265.5 155,265.5 157,261 157,261 157,261 158,261 158,261 158,263.193 163.893,278 165,278  Z"/>

<path  fill="#FEA3D2" stroke-width="0" stroke="#FEA3D2" d = " M193 270 C193,271.465 192.891,274 195,274 198.473,274 212.499,267.503 214,264.5 214,264.5 213,261 213,261 213,261 210,261 210,261 210,261 193,261 193,261 193,261 192,263 192,263 192,265.409 193,268.181 193,270  Z"/>

<path  fill="#FEA3D2" stroke-width="0" stroke="#FEA3D2" d = " M264 272 C262.519,272 263.215,274 261,274 258.824,274 243.619,266.739 243,265.5 243,265.5 243,261 243,261 243,261 247,261 247,261 247,261 263,261 263,261 263,261 264,265 264,265 264,265 264,272 264,272  Z"/>

<path  fill="#FF9B88" stroke-width="0" stroke="#FF9B88" d = " M265 261 C265,262.145 265.579,265 264,265 264,265 263,261 263,261 263,261 265,261 265,261  Z"/>

<path  fill="#CBC7CC" stroke-width="0" stroke="#CBC7CC" d = " M293 279 L294,279 C294,279 295,278 295,278 295,278 296,277 296,277 296,277 297,276 297,276 297,276 297,275 297,275 297,275 299,273 299,273 299,271.643 304.131,261 299,261 299,261 297,263.5 297,263.5 294.843,267.815 294.234,273.032 292,277.5 292,277.5 293,279 293,279  Z"/>

<path  fill="#C7C9C9" stroke-width="0" stroke="#C7C9C9" d = " M214 281 C211.971,281 212.119,282.191 210.5,283 L200,283 C200,275.984 212.653,265.807 217,274.5 217,274.5 215,280 215,280 215,280 214,281 214,281  Z"/>

<path  fill="#C7C9C9" stroke-width="0" stroke="#C7C9C9" d = " M243 281 L246.5,283 L257,283 C257,277.305 243.923,265.655 240,273.5 238.398,276.704 243,278.652 243,281  Z"/>

<path  fill="#CCC7CB" stroke-width="0" stroke="#CCC7CB" d = " M279 288 L280,288 C280,288 282,287 282,287 282,285.423 283.729,285 281,285 281,286.353 276.357,287 275,287 269.907,287 263.852,283 259,283 259,283 257,283 257,283 257,283 246.5,283 246.5,283 246.5,283 243,281 243,281 238.812,281 236.01,273.755 232.5,272 223.36,267.43 218.894,280 215,280 215,280 214,281 214,281 211.971,281 212.119,282.191 210.5,283 210.5,283 200,283 200,283 200,283 197,283 197,283 192.223,283 183.684,289.592 178.5,287 175.319,285.409 168.3,278 165,278 165,278 165,279 165,279 166.432,279 174,285.261 174,287 174,287 175,287 175,287 175,287 177,288 177,288 177,288 178,288 178,288 178,288 194,288 194,288 194,288 196,288 196,288 196,288 197,287 197,287 202.421,287 208.091,286 214,286 214,286 221,285 221,285 221,285 222,284 222,284 222,284 228.5,281 228.5,281 228.5,281 237,285 237,285 237,285 238,286 238,286 238,286 242,286 242,286 242,286 260,287 260,287 260,287 261,288 261,288 261,288 262,288 262,288 262,288 279,288 279,288  Z"/>

<path  fill="#FF9B88" stroke-width="0" stroke="#FF9B88" d = " M259 283 C263.852,283 269.907,287 275,287 276.357,287 281,286.353 281,285 274.604,285 265.371,286.242 262,279.5 260.455,276.41 266,275.585 266,274 266,274 264,272 264,272 262.519,272 263.215,274 261,274 261,277.157 259,279.481 259,283  Z"/>

<path  fill="#FF9B88" stroke-width="0" stroke="#FF9B88" d = " M299 273 L297,275 C298.747,275 299,274.747 299,273  Z"/>

<path  fill="#FF9B88" stroke-width="0" stroke="#FF9B88" d = " M297 276 L296,277 C296,277 297,276 297,276  Z"/>

<path  fill="#CCC7CB" stroke-width="0" stroke="#CCC7CB" d = " M290 278 C290,279.93 291.93,278 290,278  Z"/>

<path  fill="#FF9B88" stroke-width="0" stroke="#FF9B88" d = " M295 278 L294,279 C294,279 295,278 295,278  Z"/>

<path  fill="#CCC7CB" stroke-width="0" stroke="#CCC7CB" d = " M289 279 C289,280.93 290.93,279 289,279  Z"/>

<path  fill="#FF9BCD" stroke-width="0" stroke="#FF9BCD" d = " M215 280 L214,281 C214,281 215,280 215,280  Z"/>

<path  fill="#CCC7CB" stroke-width="0" stroke="#CCC7CB" d = " M288 280 C288,281.93 289.93,280 288,280  Z"/>

<path  fill="#CCC7CB" stroke-width="0" stroke="#CCC7CB" d = " M287 281 C287,282.93 288.93,281 287,281  Z"/>

<path  fill="#CCC7CB" stroke-width="0" stroke="#CCC7CB" d = " M286 282 C286,283.93 287.93,282 286,282  Z"/>

<path  fill="#CCC7CB" stroke-width="0" stroke="#CCC7CB" d = " M285 283 C285,284.93 286.93,283 285,283  Z"/>

<path  fill="#FF9BCD" stroke-width="0" stroke="#FF9BCD" d = " M222 284 L221,285 C221,285 222,284 222,284  Z"/>

<path  fill="#FF9BCD" stroke-width="0" stroke="#FF9BCD" d = " M237 285 L238,286 C238,286 237,285 237,285  Z"/>

<path  fill="#FF9BCD" stroke-width="0" stroke="#FF9BCD" d = " M197 287 L197,288 C197,288 210,287 210,287 211.145,287 214,287.579 214,286 208.091,286 202.421,287 197,287  Z"/>

<path  fill="#FF9BCD" stroke-width="0" stroke="#FF9BCD" d = " M260 287 L260,288 C260,288 246,287 246,287 244.855,287 242,287.579 242,286 242,286 260,287 260,287  Z"/>

<path  fill="#FF9B88" stroke-width="0" stroke="#FF9B88" d = " M175 287 L177,288 C177,288 175,287 175,287  Z"/>

<path  fill="#FF9B88" stroke-width="0" stroke="#FF9B88" d = " M196 288 L197,288 C197,288 197,287 197,287 197,287 196,288 196,288  Z"/>

<path  fill="#FF9B88" stroke-width="0" stroke="#FF9B88" d = " M260 288 L261,288 C261,288 260,287 260,287 260,287 260,288 260,288  Z"/>

<path  fill="#FF9B88" stroke-width="0" stroke="#FF9B88" d = " M282 287 L280,288 C280,288 282,287 282,287  Z"/>

<path  fill="#FF9B88" stroke-width="0" stroke="#FF9B88" d = " M178 288 L194,288 C194,289.649 178,289.649 178,288  Z"/>

<path  fill="#FF9B88" stroke-width="0" stroke="#FF9B88" d = " M262 288 L279,288 C279,289.65 262,289.65 262,288  Z"/>

</g>
</svg>
