<svg xmlns="http://www.w3.org/2000/svg" xmlns:xlink="http://www.w3.org/1999/xlink"  viewBox="0 0 456 320">
<g>
<rect width="456" height="320" fill="#000000"  stroke-width="0" /> 
<path  fill-rule="evenodd" fill="#9AD1BD" stroke-width="0" stroke="#9AD1BD" d = " M161 212 C161,221.765 179.285,247 190,247 190,247 200.5,247 200.5,247 225.487,234.507 222,189.022 222,163 222,163 223,132.5 223,132.5 220.481,127.463 219.547,121.593 217,116.5 215.671,113.842 207,109.399 207,108 207,108 206,108 206,108 206,108 205,107 205,107 194.382,107 182.168,104.166 172.5,109 168.224,111.138 164.848,114.826 160.5,117 157.085,118.707 149,126.974 149,131 149,131 148,132 148,132 148,132 148,133 148,133 148,133 147,134 147,134 147,134 147,135 147,135 147,135 146,137 146,137 146,137 145,139 145,139 145,139 145,143 145,143 145,143 144,144 144,144 144,144 144,148 144,148 144,148 144,153 144,153 144,153 144,157 144,157 145.579,157 145,159.855 145,161 145,161 145,164 145,164 145,164 146,166 146,166 146,166 146,168 146,168 146,168 147,170 147,170 147,170 147,173 147,173 147,173 148,175 148,175 148,175 151.5,182 151.5,182 154.771,185.271 161,206.989 161,212  M180 130 C163.463,130 179.871,167.758 190,147.5 L192,141.5 C192,138.583 188,135.657 188,133 188.788,133 197.76,134.98 198,134.5 199.811,130.877 182.276,124.112 178.5,126 174.01,128.245 180,128.875 180,130  Z"/>

<path  fill-rule="evenodd" fill="#9AD1BD" stroke-width="0" stroke="#9AD1BD" d = " M267 247 L268,247 C268,247 269,246 269,246 269,246 270,246 270,246 270,246 271,245 271,245 271,245 274,244 274,244 274,244 275,243 275,243 279.861,243 295,218.871 295,213 295,213 296,211 296,211 296,204.813 300.292,189.917 303,184.5 304.407,181.686 308,178.239 308,175 308,175 309,174 309,174 309,174 309,172 309,172 309,170.952 308.527,169 310,169 310,169 310,168 310,168 310,168 311,166 311,166 311,166 311,163 311,163 311,163 312,161 312,161 312,161 312,157 312,157 312,155.855 311.421,153 313,153 313,153 313,148 313,148 311.527,148 312,146.048 312,145 312,145 312,142 312,142 312,142 311,140 311,140 311,140 311,137 311,137 309.423,137 309,135.238 309,134 309,134 309,133 309,133 309,133 308,132 308,132 308,132 308,131 308,131 308,131 307,130 307,130 307,126.759 300.411,120.911 298,118.5 291.556,112.056 266.503,100.998 256.5,106 254.608,106.946 251.128,108 249,108 249,108 247,109 247,109 247,109 241,114.5 241,114.5 238.377,119.746 236.567,125.366 234,130.5 230.795,136.91 234,154.321 234,162.5 234,174.871 232.098,201.696 237,211.5 239.072,215.643 236.898,222.296 239,226.5 245.957,240.415 249.77,247 267,247  M276 130 C293.395,130 276.118,166.735 267,148.5 265.958,146.416 265,145.592 265,143 265,138.875 268,136.375 268,133 264.526,133 263.309,133.595 260.5,135 257.953,136.274 259.765,130.868 261.5,130 263.13,129.185 277.594,123.688 279,126.5 280.553,129.607 276,128.277 276,130  Z"/>

<path  fill="#99D2BD" stroke-width="0" stroke="#99D2BD" d = " M205 107 L206,108 C206,108 205,107 205,107  Z"/>

<path  fill="#C7CBCA" stroke-width="0" stroke="#C7CBCA" d = " M227 210 C227,226.086 229.736,246.028 223,259.5 221.875,261.75 219.25,262.125 217.5,263 208.951,267.275 208.589,256.045 202.5,253 199.731,251.615 190,250.324 190,247 190,247 200.5,247 200.5,247 225.487,234.507 222,189.022 222,163 222,163 223,132.5 223,132.5 220.481,127.463 219.547,121.593 217,116.5 215.671,113.842 207,109.399 207,108 227.489,108 227,149.052 227,165 227,165 227,186.5 227,186.5 227,187.863 226.3,193 228,193 228,193 228,196 228,196 226.207,196 227,208.009 227,210  Z"/>

<path  fill="#C7CBCA" stroke-width="0" stroke="#C7CBCA" d = " M249 108 L247,109 C247,109 249,108 249,108  Z"/>

<path  fill="#C7CBCA" stroke-width="0" stroke="#C7CBCA" d = " M247 109 C235.852,109 234.427,124.645 231,131.5 L231,136.5 C228.017,142.465 229,160.402 229,168 229,187.041 230,207.145 230,225.5 230,236.743 228.306,250.112 233,259.5 L238.5,263 C247.037,267.268 249.305,255.097 255.5,252 257.544,250.978 267,250.02 267,247 249.77,247 245.957,240.415 239,226.5 236.898,222.296 239.072,215.643 237,211.5 232.098,201.696 234,174.871 234,162.5 234,154.321 230.795,136.91 234,130.5 236.567,125.366 238.377,119.746 241,114.5 241,114.5 247,109 247,109  Z"/>

<path  fill="#CACAC9" stroke-width="0" stroke="#CACAC9" d = " M180 130 C183.239,130 184.575,133 188,133 188.788,133 197.76,134.98 198,134.5 199.811,130.877 182.276,124.112 178.5,126 174.01,128.245 180,128.875 180,130  Z"/>

<path  fill="#CACAC9" stroke-width="0" stroke="#CACAC9" d = " M276 130 C273.3,130 271.238,133 268,133 264.526,133 263.309,133.595 260.5,135 257.953,136.274 259.765,130.868 261.5,130 263.13,129.185 277.594,123.688 279,126.5 280.553,129.607 276,128.277 276,130  Z"/>

<path  fill="#95E4C8" stroke-width="0" stroke="#95E4C8" d = " M180 130 C183.239,130 184.575,133 188,133 188,135.657 192,138.583 192,141.5 192,141.5 190,147.5 190,147.5 179.871,167.758 163.463,130 180,130  Z"/>

<path  fill="#95E4C8" stroke-width="0" stroke="#95E4C8" d = " M276 130 C293.395,130 276.118,166.735 267,148.5 265.958,146.416 265,145.592 265,143 265,138.875 268,136.375 268,133 271.238,133 273.3,130 276,130  Z"/>

<path  fill="#99D2BD" stroke-width="0" stroke="#99D2BD" d = " M307 130 L308,131 C308,131 307,130 307,130  Z"/>

<path  fill="#99D2BD" stroke-width="0" stroke="#99D2BD" d = " M149 131 L148,132 C148,132 149,131 149,131  Z"/>

<path  fill="#99D2BD" stroke-width="0" stroke="#99D2BD" d = " M308 132 L309,133 C309,133 308,132 308,132  Z"/>

<path  fill="#99D2BD" stroke-width="0" stroke="#99D2BD" d = " M148 133 L147,134 C147,134 148,133 148,133  Z"/>

<path  fill="#99D2BD" stroke-width="0" stroke="#99D2BD" d = " M309 134 L311,137 C309.423,137 309,135.238 309,134  Z"/>

<path  fill="#99D2BD" stroke-width="0" stroke="#99D2BD" d = " M147 135 L146,137 C146,137 147,135 147,135  Z"/>

<path  fill="#99D2BD" stroke-width="0" stroke="#99D2BD" d = " M146 137 L145,139 C145,139 146,137 146,137  Z"/>

<path  fill="#99D2BD" stroke-width="0" stroke="#99D2BD" d = " M311 140 L312,142 C312,142 311,140 311,140  Z"/>

<path  fill="#99D2BD" stroke-width="0" stroke="#99D2BD" d = " M145 143 L144,144 C144,144 145,143 145,143  Z"/>

<path  fill="#99D2BD" stroke-width="0" stroke="#99D2BD" d = " M312 145 C313.473,145 313,146.952 313,148 311.527,148 312,146.048 312,145  Z"/>

<path  fill="#99D2BD" stroke-width="0" stroke="#99D2BD" d = " M144 148 C142.434,148 142.434,153 144,153 144,153 144,148 144,148  Z"/>

<path  fill="#99D2BD" stroke-width="0" stroke="#99D2BD" d = " M313 153 C311.421,153 312,155.855 312,157 313.579,157 313,154.145 313,153  Z"/>

<path  fill="#99D2BD" stroke-width="0" stroke="#99D2BD" d = " M144 157 C145.579,157 145,159.855 145,161 143.421,161 144,158.145 144,157  Z"/>

<path  fill="#99D2BD" stroke-width="0" stroke="#99D2BD" d = " M312 161 L311,163 C311,163 312,161 312,161  Z"/>

<path  fill="#99D2BD" stroke-width="0" stroke="#99D2BD" d = " M145 164 L146,166 C146,166 145,164 145,164  Z"/>

<path  fill="#99D2BD" stroke-width="0" stroke="#99D2BD" d = " M227 165 C228.7,165 228,170.137 228,171.5 L228,193 C226.3,193 227,187.863 227,186.5 227,186.5 227,165 227,165  Z"/>

<path  fill="#99D2BD" stroke-width="0" stroke="#99D2BD" d = " M311 166 L310,168 C310,168 311,166 311,166  Z"/>

<path  fill="#99D2BD" stroke-width="0" stroke="#99D2BD" d = " M146 168 L147,170 C147,170 146,168 146,168  Z"/>

<path  fill="#99D2BD" stroke-width="0" stroke="#99D2BD" d = " M310 169 C308.527,169 309,170.952 309,172 310.473,172 310,170.048 310,169  Z"/>

<path  fill="#99D2BD" stroke-width="0" stroke="#99D2BD" d = " M148 175 L148,176 C146.527,176 147,174.048 147,173 147,173 148,175 148,175  Z"/>

<path  fill="#99D2BD" stroke-width="0" stroke="#99D2BD" d = " M308 175 L309,175 C309,175 309,174 309,174 309,174 308,175 308,175  Z"/>

<path  fill="#C7CBCA" stroke-width="0" stroke="#C7CBCA" d = " M159 210 L161,212 C161,206.989 154.771,185.271 151.5,182 151.5,182 148,175 148,175 148,175 148,176 148,176 148,176 148,178 148,178 148,178 149,180 149,180 149,180 149,183 149,183 149,183 150,185 150,185 150,185 150,187 150,187 150,187 151,188 151,188 151,188 151,191 151,191 151,191 152,193 152,193 152,193 152,195 152,195 152,195 153,196 153,196 153,196 153,198 153,198 153,198 154,199 154,199 154,199 154,200 154,200 154,200 155,201 155,201 155,201 155,203 155,203 155,203 157,207 157,207 157,207 157,208 157,208 157,208 159,210 159,210  Z"/>

<path  fill="#C7CBCA" stroke-width="0" stroke="#C7CBCA" d = " M296 211 L297,211 C297,211 298,209 298,209 298,209 299,207 299,207 299,207 300,206 300,206 300,206 300,205 300,205 300,205 301,204 301,204 301,204 301,203 301,203 301,203 302,201 302,201 302,201 302,200 302,200 302,200 303,199 303,199 303,199 303,197 303,197 303,197 304,196 304,196 304,196 304,195 304,195 304,195 305,193 305,193 305,193 305,190 305,190 305,190 306,188 306,188 306,188 306,187 306,187 306,187 307,185 307,185 307,185 307,181 307,181 307,181 308,180 308,180 308,180 308,178 308,178 308,178 309,177 309,177 309,177 309,175 309,175 309,175 308,175 308,175 308,178.239 304.407,181.686 303,184.5 300.292,189.917 296,204.813 296,211  Z"/>

<path  fill="#99D2BD" stroke-width="0" stroke="#99D2BD" d = " M309 177 L308,178 C308,178 309,177 309,177  Z"/>

<path  fill="#99D2BD" stroke-width="0" stroke="#99D2BD" d = " M148 178 L149,180 C149,180 148,178 148,178  Z"/>

<path  fill="#99D2BD" stroke-width="0" stroke="#99D2BD" d = " M308 180 L307,181 C307,181 308,180 308,180  Z"/>

<path  fill="#99D2BD" stroke-width="0" stroke="#99D2BD" d = " M149 183 L150,185 C150,185 149,183 149,183  Z"/>

<path  fill="#99D2BD" stroke-width="0" stroke="#99D2BD" d = " M307 185 L306,187 C306,187 307,185 307,185  Z"/>

<path  fill="#99D2BD" stroke-width="0" stroke="#99D2BD" d = " M150 187 L151,188 C151,188 150,187 150,187  Z"/>

<path  fill="#99D2BD" stroke-width="0" stroke="#99D2BD" d = " M306 188 L305,190 C305,190 306,188 306,188  Z"/>

<path  fill="#99D2BD" stroke-width="0" stroke="#99D2BD" d = " M151 191 L152,193 C152,193 151,191 151,191  Z"/>

<path  fill="#99D2BD" stroke-width="0" stroke="#99D2BD" d = " M305 193 L304,195 C304,195 305,193 305,193  Z"/>

<path  fill="#99D2BD" stroke-width="0" stroke="#99D2BD" d = " M152 195 L153,196 C153,196 152,195 152,195  Z"/>

<path  fill="#99D2BD" stroke-width="0" stroke="#99D2BD" d = " M228 196 C226.207,196 227,208.009 227,210 228.793,210 228,197.991 228,196  Z"/>

<path  fill="#99D2BD" stroke-width="0" stroke="#99D2BD" d = " M304 196 L303,197 C303,197 304,196 304,196  Z"/>

<path  fill="#99D2BD" stroke-width="0" stroke="#99D2BD" d = " M153 198 L154,199 C154,199 153,198 153,198  Z"/>

<path  fill="#99D2BD" stroke-width="0" stroke="#99D2BD" d = " M303 199 L302,200 C302,200 303,199 303,199  Z"/>

<path  fill="#99D2BD" stroke-width="0" stroke="#99D2BD" d = " M154 200 L155,201 C155,201 154,200 154,200  Z"/>

<path  fill="#99D2BD" stroke-width="0" stroke="#99D2BD" d = " M302 201 L301,203 C301,203 302,201 302,201  Z"/>

<path  fill="#99D2BD" stroke-width="0" stroke="#99D2BD" d = " M155 203 L157,207 C157,207 155,203 155,203  Z"/>

<path  fill="#99D2BD" stroke-width="0" stroke="#99D2BD" d = " M301 204 L300,205 C300,205 301,204 301,204  Z"/>

<path  fill="#99D2BD" stroke-width="0" stroke="#99D2BD" d = " M300 206 L299,207 C299,207 300,206 300,206  Z"/>

<path  fill="#99D2BD" stroke-width="0" stroke="#99D2BD" d = " M157 208 L159,210 C159,210 157,208 157,208  Z"/>

<path  fill="#99D2BD" stroke-width="0" stroke="#99D2BD" d = " M298 209 L297,211 C297,211 298,209 298,209  Z"/>

<path  fill="#C7CBCA" stroke-width="0" stroke="#C7CBCA" d = " M296 212 L295,213 C295,213 296,211 296,211 296,211 296,212 296,212  Z"/>

<path  fill="#99D2BD" stroke-width="0" stroke="#99D2BD" d = " M297 211 L296,212 C296,212 296,211 296,211 296,211 297,211 297,211  Z"/>

<path  fill="#C7CBCA" stroke-width="0" stroke="#C7CBCA" d = " M275 243 L274,244 C274,244 275,243 275,243  Z"/>

<path  fill="#C7CBCA" stroke-width="0" stroke="#C7CBCA" d = " M271 245 L270,246 C270,246 271,245 271,245  Z"/>

<path  fill="#C7CBCA" stroke-width="0" stroke="#C7CBCA" d = " M269 246 L268,247 C268,247 269,246 269,246  Z"/>

</g>
</svg>
