<svg xmlns="http://www.w3.org/2000/svg" xmlns:xlink="http://www.w3.org/1999/xlink"  viewBox="0 0 456 320">
<g>
<rect width="456" height="320" fill="#000000"  stroke-width="0" /> 
<path  fill="#1E9C59" stroke-width="0" stroke="#1E9C59" d = " M227 51 C225.376,51 224.25,53 222,53 222,50.6567 219.722,48.2221 218,46.5 208.543,37.0427 199.359,39 187,39 187,39 187,35 187,35 198.298,35 214.323,30.1453 221,43.5 222.45,46.4005 227,47.4742 227,51  Z"/>

<path  fill="#1E9C59" stroke-width="0" stroke="#1E9C59" d = " M229 51 L234,53 C234,53 236,49.5 236,49.5 236,49.5 244.5,41 244.5,41 252.01,37.2449 260.667,39 269,39 269,39 269,35 269,35 254.017,35 248.379,30.121 235.5,43 235.5,43 229,51 229,51  Z"/>

<path  fill="#1E9D5A" stroke-width="0" stroke="#1E9D5A" d = " M141 47 C141,48.3746 141,49.6254 141,51 141.806,51 181.649,41.4254 182.5,41 182.5,41 187,39 187,39 187,39 187,35 187,35 179.161,35 159.726,37.8868 153.5,41 150.159,42.6706 144.859,45 141,45 141,45 141,47 141,47  Z"/>

<path  fill="#1E9D5A" stroke-width="0" stroke="#1E9D5A" d = " M316 45 L317,52 C313.997,52 311.047,50.2733 308.5,49 303.719,46.6095 274.233,39 269,39 269,39 269,35 269,35 276.171,35 298.08,38.29 303.5,41 306.931,42.7154 312.024,45 316,45  Z"/>

<path  fill="#1E9D58" stroke-width="0" stroke="#1E9D58" d = " M215 57 L216,57 C216,57 222,54 222,54 222,54 222,53 222,53 222,50.6567 219.722,48.2221 218,46.5 208.543,37.0427 199.359,39 187,39 187,39 186,52 186,52 192.145,52 215,42.4008 215,57  Z"/>

<path  fill="#1E9D58" stroke-width="0" stroke="#1E9D58" d = " M240 57 L241,57 C241,54.8826 242.537,53.9627 244,52.5 253.272,43.2275 263.583,53 271,53 271,53 269,39 269,39 260.667,39 252.01,37.2449 244.5,41 244.5,41 236,49.5 236,49.5 236,49.5 234,53 234,53 234,53 234,54 234,54 234,54 240,57 240,57  Z"/>

<path  fill="#1F9C58" stroke-width="0" stroke="#1F9C58" d = " M139 69 L139,75 C149.295,75 174.465,53 185,53 185,53 186,52 186,52 186,52 187,39 187,39 187,39 182.5,41 182.5,41 181.649,41.4254 141.806,51 141,51 141,51 140,52 140,52 140,52 139,53 139,53 139,58.8556 139,62.7918 139,69  Z"/>

<path  fill="#1F9C58" stroke-width="0" stroke="#1F9C58" d = " M317 69 C317,71.1516 317,73.0713 317,75 306.924,75 281.835,53 271,53 271,53 269,39 269,39 274.233,39 303.719,46.6095 308.5,49 311.047,50.2733 313.997,52 317,52 317,52 317,53 317,53 317,53 317,69 317,69  Z"/>

<path  fill="#187F60" stroke-width="0" stroke="#187F60" d = " M140 46 L141,47 C141,47 141,45 141,45 141,45 140,46 140,46  Z"/>

<path  fill="#197E64" stroke-width="0" stroke="#197E64" d = " M355 65 L352,69 C346.912,69 326.129,53 317,53 317,53 317,52 317,52 317,52 316,45 316,45 322.449,45 339.151,55.8255 345.5,59 347.336,59.9181 355,62.3173 355,65  Z"/>

<path  fill="#197E64" stroke-width="0" stroke="#197E64" d = " M102 64 L104,69 C112.029,69 128.632,53 139,53 139,53 139,52 139,52 139,52 141,51 141,51 141,49.6254 141,48.3746 141,47 141,47 140,46 140,46 132.099,46 121.343,52.5787 114.5,56 114.5,56 102,64 102,64  Z"/>

<path  fill="#1F9D58" stroke-width="0" stroke="#1F9D58" d = " M202 69 L203,69 C203,63.6781 215,61.5529 215,57 215,42.4008 192.145,52 186,52 186,52 185,53 185,53 185,59.4352 182,65.165 182,71 182,71 185.5,69 185.5,69 187.413,68.0436 202,62.225 202,69  Z"/>

<path  fill="#1F9D58" stroke-width="0" stroke="#1F9D58" d = " M254 69 C254,62.2856 269.517,68.0086 271.5,69 L274,71 C274,64.0982 271,59.5781 271,53 263.583,53 253.272,43.2275 244,52.5 242.537,53.9627 241,54.8826 241,57 241,61.2819 253,63.8097 253,69 253,69 254,69 254,69  Z"/>

<path  fill="#1E9D5A" stroke-width="0" stroke="#1E9D5A" d = " M139 52 L140,52 C140,52 141,51 141,51 141,51 139,52 139,52  Z"/>

<path  fill="#3EA665" stroke-width="0" stroke="#3EA665" d = " M223 79 L234,79 C234,79 234,54 234,54 234,54 234,53 234,53 234,53 229,51 229,51 229,54.7458 228.2,51 227,51 225.376,51 224.25,53 222,53 222,53 222,54 222,54 223.684,54 223,58.6792 223,60 223,60 223,79 223,79  Z"/>

<path  fill="#197F61" stroke-width="0" stroke="#197F61" d = " M140 52 L139,53 C139,53 139,52 139,52 139,52 140,52 140,52  Z"/>

<path  fill="#197F61" stroke-width="0" stroke="#197F61" d = " M109 79 L110,81 C111.63,81 131.498,69 139,69 139,62.7918 139,58.8556 139,53 128.632,53 112.029,69 104,69 104,69 104,70 104,70 104,70 109,79 109,79  Z"/>

<path  fill="#1E9C5A" stroke-width="0" stroke="#1E9C5A" d = " M139 76 L139,90 C144.978,90 166.449,80.0256 172.5,77 172.5,77 182,71 182,71 182,65.165 185,59.4352 185,53 174.465,53 149.295,75 139,75 139,75 139,76 139,76  Z"/>

<path  fill="#1E9C5A" stroke-width="0" stroke="#1E9C5A" d = " M317 76 C317,80.608 317,85.0547 317,90 317,90 287.5,79 287.5,79 283.794,77.147 278.142,71 274,71 274,64.0982 271,59.5781 271,53 281.835,53 306.924,75 317,75 317,75 317,76 317,76  Z"/>

<path  fill="#197F61" stroke-width="0" stroke="#197F61" d = " M346 81 L347,81 C347,81 348,79 348,79 348,79 349,77 349,77 349,75.0342 351.89,70 352,70 352,70 352,69 352,69 346.912,69 326.129,53 317,53 317,53 317,69 317,69 325.058,69 344.578,81 346,81  Z"/>

<path  fill="#40A565" stroke-width="0" stroke="#40A565" d = " M223 79 L217,81 C217,73.1051 216,64.2167 216,57 216,57 222,54 222,54 223.684,54 223,58.6792 223,60 223,60 223,79 223,79  Z"/>

<path  fill="#40A565" stroke-width="0" stroke="#40A565" d = " M234 80 L239,81 C239,73.0535 240,64.2892 240,57 240,57 234,54 234,54 234,54 234,79 234,79 234,79 234,80 234,80  Z"/>

<path  fill="#3EA566" stroke-width="0" stroke="#3EA566" d = " M217 81 L205,87 C205,80.5551 203,74.7201 203,69 203,63.6781 215,61.5529 215,57 215,57 216,57 216,57 216,64.2167 217,73.1051 217,81  Z"/>

<path  fill="#3EA566" stroke-width="0" stroke="#3EA566" d = " M239 81 L251,86 C251,80.8556 253,74.3125 253,69 253,63.8097 241,61.2819 241,57 241,57 240,57 240,57 240,64.2892 239,73.0535 239,81  Z"/>

<path  fill="#1B8062" stroke-width="0" stroke="#1B8062" d = " M102 71 L103,71 C103,71 104,70 104,70 104,70 104,69 104,69 104,69 102,64 102,64 102,64 99,66 99,66 99,67.054 102,68.931 102,71  Z"/>

<path  fill="#1B8062" stroke-width="0" stroke="#1B8062" d = " M354 71 L355,71 C355,68.6571 355.285,67 358,67 358,65.4226 356.238,65 355,65 355,65 352,69 352,69 352,69 352,70 352,70 352,70 354,71 354,71  Z"/>

<path  fill="#187E61" stroke-width="0" stroke="#187E61" d = " M58 135 L59,135 C59,120.54 68.9323,107.635 75,95.5 76.5044,92.4912 82.143,89.214 84,85.5 86.1357,81.2285 102,72.5633 102,71 102,68.931 99,67.054 99,66 96.5543,66 84.4621,77.0379 82,79.5 69.824,91.676 54,115.333 54,132 54,132 58,135 58,135  Z"/>

<path  fill="#1D9C5A" stroke-width="0" stroke="#1D9C5A" d = " M181 93 L184,93 C184,90.1335 189.149,91 191,91 191,82.8422 202,74.5984 202,69 202,62.225 187.413,68.0436 185.5,69 185.5,69 182,71 182,71 182,77.9003 181,85.5356 181,93  Z"/>

<path  fill="#1D9C5A" stroke-width="0" stroke="#1D9C5A" d = " M266 91 C269.638,91 271.929,93 275,93 275,88.7124 276,82.1786 276,78.5 276,76.6708 274,72.8697 274,71 274,71 271.5,69 271.5,69 269.517,68.0086 254,62.2856 254,69 254,71.992 266,85.133 266,91  Z"/>

<path  fill="#187E61" stroke-width="0" stroke="#187E61" d = " M403 132 L398,134 C398,131.63 396.035,128.569 395,126.5 395,126.5 394,119.5 394,119.5 391.55,114.601 389.443,109.386 387,104.5 387,104.5 376,89.5 376,89.5 373.342,84.1849 355,72.8502 355,71 355,68.6571 355.285,67 358,67 363.285,67 366.989,74.7443 371.5,77 381.698,82.0992 391.195,99.8905 397,111.5 399.374,116.248 398.658,122.815 401,127.5 401,127.5 403,132 403,132  Z"/>

<path  fill="#1A7F63" stroke-width="0" stroke="#1A7F63" d = " M110 81 L115,88 C123.405,88 130.287,76 139,76 139,76 139,75 139,75 139,75 139,69 139,69 131.498,69 111.63,81 110,81  Z"/>

<path  fill="#3FA664" stroke-width="0" stroke="#3FA664" d = " M195 95 L196,95 C199.398,95 201.13,88 205,88 205,88 205,87 205,87 205,80.5551 203,74.7201 203,69 203,69 202,69 202,69 202,74.5984 191,82.8422 191,91 192.797,91 195,93.2028 195,95  Z"/>

<path  fill="#3FA664" stroke-width="0" stroke="#3FA664" d = " M263 93 L261,95 C257.491,95 254.735,87 251,87 251,87 251,86 251,86 251,80.8556 253,74.3125 253,69 253,69 254,69 254,69 254,71.992 266,85.133 266,91 264.762,91 263,91.4226 263,93  Z"/>

<path  fill="#1A7F63" stroke-width="0" stroke="#1A7F63" d = " M341 89 L342,89 C342,89 346,81 346,81 344.578,81 325.058,69 317,69 317,71.1516 317,73.0713 317,75 317,75 317,76 317,76 323.449,76 329.032,82.266 334.5,85 335.926,85.7129 341,86.7645 341,89  Z"/>

<path  fill="#1C7F63" stroke-width="0" stroke="#1C7F63" d = " M103 71 C103,74.0164 106.3,79 109,79 109,79 104,70 104,70 104,70 103,71 103,71  Z"/>

<path  fill="#1C7F63" stroke-width="0" stroke="#1C7F63" d = " M354 71 C354,72.7228 350.462,77 349,77 349,75.0342 351.89,70 352,70 352,70 354,71 354,71  Z"/>

<path  fill="#1A7E64" stroke-width="0" stroke="#1A7E64" d = " M59 135 L68,139 C68,124.655 84.7934,95.8533 98.5,89 101.077,87.7116 106.241,81 110,81 110,81 109,79 109,79 106.3,79 103,74.0164 103,71 103,71 102,71 102,71 102,72.5633 86.1357,81.2285 84,85.5 82.143,89.214 76.5044,92.4912 75,95.5 68.9323,107.635 59,120.54 59,135  Z"/>

<path  fill="#1F9B5A" stroke-width="0" stroke="#1F9B5A" d = " M149 107 L139,110 C139,110 139,91 139,91 139,91 139,90 139,90 144.978,90 166.449,80.0256 172.5,77 172.5,77 182,71 182,71 182,77.9003 181,85.5356 181,93 179.131,93 168,97.034 168,99 166.576,99 163,99.3616 163,101 160.746,101 149,104.816 149,107  Z"/>

<path  fill="#1F9B5A" stroke-width="0" stroke="#1F9B5A" d = " M275 93 C286.069,93 305.989,110 317,110 317,103.734 317,95.9728 317,91 317,91 317,90 317,90 317,90 287.5,79 287.5,79 283.794,77.147 278.142,71 274,71 274,72.8697 276,76.6708 276,78.5 276,82.1786 275,88.7124 275,93  Z"/>

<path  fill="#1A7E64" stroke-width="0" stroke="#1A7E64" d = " M398 135 L388,139 C388,127.674 380.787,116.074 376,106.5 376,106.5 365,93.5 365,93.5 363.766,91.0322 347,82.0165 347,81 347,81 348,79 348,79 348,81.4084 349,78.0135 349,77 350.462,77 354,72.7228 354,71 354,71 355,71 355,71 355,72.8502 373.342,84.1849 376,89.5 376,89.5 387,104.5 387,104.5 389.443,109.386 391.55,114.601 394,119.5 394,119.5 395,126.5 395,126.5 396.035,128.569 398,131.63 398,134 398,134 398,135 398,135  Z"/>

<path  fill="#187E62" stroke-width="0" stroke="#187E62" d = " M139 91 C132.222,91 126.933,99 121,99 121,95.552 115,92.6511 115,89 115,89 115,88 115,88 123.405,88 130.287,76 139,76 139,76 139,90 139,90 139,90 139,91 139,91  Z"/>

<path  fill="#187E62" stroke-width="0" stroke="#187E62" d = " M317 91 C323.478,91 330.708,99 335,99 335,96.5779 341,92.4485 341,89 341,86.7645 335.926,85.7129 334.5,85 329.032,82.266 323.449,76 317,76 317,80.608 317,85.0547 317,90 317,90 317,91 317,91  Z"/>

<path  fill="#1C7F63" stroke-width="0" stroke="#1C7F63" d = " M349 77 L348,79 C348,81.4084 349,78.0135 349,77  Z"/>

<path  fill="#3FA566" stroke-width="0" stroke="#3FA566" d = " M221 114 L218,115 C218,103.428 217,92.0792 217,81 217,81 223,79 223,79 223,89.6805 222,100.946 222,111 222,111 221,114 221,114  Z"/>

<path  fill="#40A664" stroke-width="0" stroke="#40A664" d = " M229 106 L234,111 C234,103.347 233,95.6128 233,87.5 233,86.0522 232.275,80 234,80 234,80 234,79 234,79 234,79 223,79 223,79 223,89.6805 222,100.946 222,111 222,111 227,106 227,106 227,103.436 229,103.436 229,106  Z"/>

<path  fill="#3FA566" stroke-width="0" stroke="#3FA566" d = " M235 114 L238,115 C238,104.373 239,92.2831 239,81 239,81 234,80 234,80 232.275,80 233,86.0522 233,87.5 233,95.6128 234,103.347 234,111 234,111 235,114 235,114  Z"/>

<path  fill="#1B7F62" stroke-width="0" stroke="#1B7F62" d = " M68 139 L73,141 C74.8446,141 74.4406,137.619 75,136.5 75,136.5 80,125.5 80,125.5 85.9048,113.69 93.7869,100.357 106.5,94 109.679,92.4103 111.147,89 115,89 115,89 115,88 115,88 115,88 110,81 110,81 106.241,81 101.077,87.7116 98.5,89 84.7934,95.8533 68,124.655 68,139  Z"/>

<path  fill="#3EA666" stroke-width="0" stroke="#3EA666" d = " M209 111 C209,113.216 216.15,115 218,115 218,103.428 217,92.0792 217,81 217,81 205,87 205,87 205,87 205,88 205,88 205,96.4224 209,103.569 209,111  Z"/>

<path  fill="#3EA666" stroke-width="0" stroke="#3EA666" d = " M247 111 C247,113.645 240.008,115 238,115 238,104.373 239,92.2831 239,81 239,81 251,86 251,86 251,86 251,87 251,87 251,87 251,99.5 251,99.5 251,99.5 247,111 247,111  Z"/>

<path  fill="#1B7F62" stroke-width="0" stroke="#1B7F62" d = " M388 139 L383,141 C383,132.941 362.85,101.175 354.5,97 350.765,95.1323 346.278,89 342,89 342,89 346,81 346,81 346,81 347,81 347,81 347,82.0165 363.766,91.0322 365,93.5 365,93.5 376,106.5 376,106.5 380.787,116.074 388,127.674 388,139  Z"/>

<path  fill="#40A564" stroke-width="0" stroke="#40A564" d = " M247 111 L249,111 C249,111 250,109 250,109 250,107.189 253.438,105 255,105 255,103.253 255.253,103 257,103 257,101.757 260.006,96 261,96 261,96 261,95 261,95 257.491,95 254.735,87 251,87 251,87 251,99.5 251,99.5 251,99.5 247,111 247,111  Z"/>

<path  fill="#40A564" stroke-width="0" stroke="#40A564" d = " M207 111 L209,111 C209,103.569 205,96.4224 205,88 201.13,88 199.398,95 196,95 196,101.051 206,104.638 206,109 206,109 207,111 207,111  Z"/>

<path  fill="#1B7E63" stroke-width="0" stroke="#1B7E63" d = " M84 147 L85,147 C85,129.537 98.1396,110.68 113.5,103 115.887,101.807 118.193,99 121,99 121,95.552 115,92.6511 115,89 111.147,89 109.679,92.4103 106.5,94 93.7869,100.357 85.9048,113.69 80,125.5 80,125.5 75,136.5 75,136.5 74.4406,137.619 74.8446,141 73,141 73,141 73,142 73,142 76.8579,142 80.6957,147 84,147  Z"/>

<path  fill="#1B7E63" stroke-width="0" stroke="#1B7E63" d = " M383 142 L372,147 C372,134.296 359.738,112.619 348.5,107 343.799,104.65 340.609,99 335,99 335,96.5779 341,92.4485 341,89 341,89 342,89 342,89 346.278,89 350.765,95.1323 354.5,97 362.85,101.175 383,132.941 383,141 383,141 383,142 383,142  Z"/>

<path  fill="#197D61" stroke-width="0" stroke="#197D61" d = " M139 111 C135.762,111 133.7,114 131,114 131,111.167 121,101.044 121,99 126.933,99 132.222,91 139,91 139,91 139,110 139,110 139,110 139,111 139,111  Z"/>

<path  fill="#1E9C58" stroke-width="0" stroke="#1E9C58" d = " M191 92 L184,93 C184,90.1335 189.149,91 191,91 191,91 191,92 191,92  Z"/>

<path  fill="#3FA466" stroke-width="0" stroke="#3FA466" d = " M195 95 L195,96 C195,96 191,92 191,92 191,92 191,91 191,91 192.797,91 195,93.2028 195,95  Z"/>

<path  fill="#3FA466" stroke-width="0" stroke="#3FA466" d = " M266 92 L263,93 C263,91.4226 264.762,91 266,91 266,91 266,92 266,92  Z"/>

<path  fill="#1E9C58" stroke-width="0" stroke="#1E9C58" d = " M275 93 L275,95 C272.067,95 269.679,92 266,92 266,92 266,91 266,91 269.638,91 271.929,93 275,93  Z"/>

<path  fill="#197D61" stroke-width="0" stroke="#197D61" d = " M317 110 L325,114 C328.066,114 332.165,103.171 333,101.5 333,101.5 335,99 335,99 330.708,99 323.478,91 317,91 317,95.9728 317,103.734 317,110  Z"/>

<path  fill="#CACCC7" stroke-width="0" stroke="#CACCC7" d = " M206 109 L207,111 C198.437,111 195.077,100.289 188.5,97 182.372,93.9362 176.103,101 171,101 171,101 170,102 170,102 170,102 169,102 169,102 169,102 167,103 167,103 167,103 166,103 166,103 166,103 162,103 162,103 162,103 163,101 163,101 164.622,101 168,101.461 168,99 172.875,99 176.125,95 181,95 181,95 184,93 184,93 184,93 191,92 191,92 191,92 195,96 195,96 195,99.7307 201.698,109 206,109  Z"/>

<path  fill="#CACCC7" stroke-width="0" stroke="#CACCC7" d = " M250 109 L249,111 C258.922,111 259.574,100.963 267.5,97 273.782,93.8592 280.739,101 286,101 288.755,101 291.553,103 295,103 295,101.155 291.619,101.559 290.5,101 285.817,98.6584 280.568,95 275,95 272.067,95 269.679,92 266,92 266,92 263,93 263,93 263,93 262,96 262,96 262,98.0248 258.905,103 257,103 257,104.747 256.747,105 255,105 255,106.976 252.124,109 250,109  Z"/>

<path  fill="#1D9D5A" stroke-width="0" stroke="#1D9D5A" d = " M181 95 C176.125,95 172.875,99 168,99 168,97.034 179.131,93 181,93 181,93 181,95 181,95  Z"/>

<path  fill="#1E9C58" stroke-width="0" stroke="#1E9C58" d = " M184 93 L181,95 C181,95 181,93 181,93 181,93 184,93 184,93  Z"/>

<path  fill="#3FA466" stroke-width="0" stroke="#3FA466" d = " M261 96 L262,96 C262,96 263,93 263,93 263,93 261,95 261,95 261,95 261,96 261,96  Z"/>

<path  fill="#1D9D5A" stroke-width="0" stroke="#1D9D5A" d = " M317 110 L317,111 C308.849,111 303,103 295,103 295,101.155 291.619,101.559 290.5,101 285.817,98.6584 280.568,95 275,95 275,95 275,93 275,93 286.069,93 305.989,110 317,110  Z"/>

<path  fill="#40A465" stroke-width="0" stroke="#40A465" d = " M195 96 C195,99.7307 201.698,109 206,109 206,104.638 196,101.051 196,95 196,95 195,95 195,95 195,95 195,96 195,96  Z"/>

<path  fill="#40A465" stroke-width="0" stroke="#40A465" d = " M262 96 C262,98.0248 258.905,103 257,103 257,101.757 260.006,96 261,96 261,96 262,96 262,96  Z"/>

<path  fill="#C9C7C9" stroke-width="0" stroke="#C9C7C9" d = " M357 165 L358,165 C358,165 357,160 357,160 357,160 355,156 355,156 355,156 355,155 355,155 355,155 353,151 353,151 353,151 353,150 353,150 353,150 348.5,142 348.5,142 341.839,135.339 337.01,123.755 327.5,119 317.446,113.973 306.47,110.985 296.5,106 294.652,105.076 286,103.603 286,101 280.739,101 273.782,93.8592 267.5,97 259.574,100.963 258.922,111 249,111 249,111 247,111 247,111 247,113.645 240.008,115 238,115 238,115 235,114 235,114 235,114.801 230.559,116.53 229.5,116 229.5,116 228.5,114 228.5,114 227.985,114 221,118.03 221,114 221,114 218,115 218,115 216.15,115 209,113.216 209,111 209,111 207,111 207,111 198.437,111 195.077,100.289 188.5,97 182.372,93.9362 176.103,101 171,101 171,101 170,102 170,102 170,102 169,102 169,102 169,102 167,103 167,103 167,103 166,103 166,103 166,104.722 160.765,105.368 159.5,106 153.462,109.019 146.46,110.02 140.5,113 134.602,115.949 129.415,120.042 123.5,123 123.5,123 115,131 115,131 115,132.562 112.811,136 111,136 111,137.238 110.577,139 109,139 109,139 107,143 107,143 107,143 105,147 105,147 105,147 103,151 103,151 103,151 103,152 103,152 103,152 102,153 102,153 102,153 102,154 102,154 102,154 101,156 101,156 101,156 101,157 101,157 101,157 101,159 101,159 101,159 106,149.5 106,149.5 109.714,142.071 116.781,129.36 125.5,125 134.673,120.413 144.448,117.526 153.5,113 156.373,111.564 160.506,112.497 163.5,111 168.382,108.559 178.378,112 183,112 186.337,112 197,114.575 197,119 197,119 198,119 198,119 198,119 200,121 200,121 200,121 201,121 201,121 201,121 202,122 202,122 202,122 206,125 206,125 211.795,125 219.48,130 222,130 224.579,130 226.721,128 228.5,128 229.882,128 232.558,130 235,130 235,126.991 247.226,125 250,125 250,125 254,122 254,122 254,122 255,121 255,121 255,121 256,121 256,121 256,121 257,120 257,120 257,120 259,119 259,119 259,117.423 260.762,117 262,117 262,113.177 271.124,112 274,112 278.389,112 287.826,108.663 292.5,111 300.986,115.243 311.971,114.735 320.5,119 333.537,125.518 342.662,135.825 349,148.5 351.432,153.364 357,159.358 357,165  Z"/>

<path  fill="#187D61" stroke-width="0" stroke="#187D61" d = " M100 153 L101,153 C101,146.655 117.558,119 125,119 125,116.891 127.535,117 129,117 129,117 131,115 131,115 131,115 131,114 131,114 131,111.167 121,101.044 121,99 118.193,99 115.887,101.807 113.5,103 98.1396,110.68 85,129.537 85,147 90.3131,147 94.8776,153 100,153  Z"/>

<path  fill="#1D9D5A" stroke-width="0" stroke="#1D9D5A" d = " M168 99 C166.576,99 163,99.3616 163,101 164.622,101 168,101.461 168,99  Z"/>

<path  fill="#187D61" stroke-width="0" stroke="#187D61" d = " M356 153 L357,153 C357,151.899 370.052,147 372,147 372,134.296 359.738,112.619 348.5,107 343.799,104.65 340.609,99 335,99 335,99 333,101.5 333,101.5 332.165,103.171 328.066,114 325,114 325,114 325,115 325,115 334.654,115 356,144.372 356,153  Z"/>

<path  fill="#1D9D5A" stroke-width="0" stroke="#1D9D5A" d = " M162 103 C157.125,103 153.875,107 149,107 149,104.816 160.746,101 163,101 163,101 162,103 162,103  Z"/>

<path  fill="#C9C9CA" stroke-width="0" stroke="#C9C9CA" d = " M171 101 L170,102 C170,102 171,101 171,101  Z"/>

<path  fill="#C9C9CA" stroke-width="0" stroke="#C9C9CA" d = " M325 116 C325,116.732 333.039,121.539 334.5,123 341.163,129.663 353,140.749 353,150 353,150 348.5,142 348.5,142 341.839,135.339 337.01,123.755 327.5,119 317.446,113.973 306.47,110.985 296.5,106 294.652,105.076 286,103.603 286,101 288.755,101 291.553,103 295,103 303,103 308.849,111 317,111 317,111 325,116 325,116  Z"/>

<path  fill="#C9C9CA" stroke-width="0" stroke="#C9C9CA" d = " M169 102 L167,103 C167,103 169,102 169,102  Z"/>

<path  fill="#C9C9CA" stroke-width="0" stroke="#C9C9CA" d = " M125 119 C125,123.419 115,126.1 115,131 115,131 123.5,123 123.5,123 129.415,120.042 134.602,115.949 140.5,113 146.46,110.02 153.462,109.019 159.5,106 160.765,105.368 166,104.722 166,103 166,103 162,103 162,103 157.125,103 153.875,107 149,107 149,109.623 141.172,111 139,111 139,112.504 133.301,115 132,115 132,116.577 130.238,117 129,117 129,119.109 126.465,119 125,119  Z"/>

<path  fill="#40A465" stroke-width="0" stroke="#40A465" d = " M257 103 C255.253,103 255,103.253 255,105 256.747,105 257,104.747 257,103  Z"/>

<path  fill="#40A465" stroke-width="0" stroke="#40A465" d = " M255 105 C253.438,105 250,107.189 250,109 252.124,109 255,106.976 255,105  Z"/>

<path  fill="#7ED04B" stroke-width="0" stroke="#7ED04B" d = " M221 114 C221,118.03 227.985,114 228.5,114 L229.5,116 C230.559,116.53 235,114.801 235,114 235,114 234,111 234,111 234,111 229,106 229,106 229,107.399 227,107.399 227,106 227,106 222,111 222,111 222,111 221,114 221,114  Z"/>

<path  fill="#1D9D5A" stroke-width="0" stroke="#1D9D5A" d = " M139 110 L139,111 C141.172,111 149,109.623 149,107 149,107 139,110 139,110  Z"/>

<path  fill="#1C8064" stroke-width="0" stroke="#1C8064" d = " M325 115 L325,116 C325,116 317,111 317,111 317,111 317,110 317,110 317,110 325,114 325,114 325,114 325,115 325,115  Z"/>

<path  fill="#1C8064" stroke-width="0" stroke="#1C8064" d = " M131 115 L132,115 C133.301,115 139,112.504 139,111 135.762,111 133.7,114 131,114 131,114 131,115 131,115  Z"/>

<path  fill="#98D5F9" stroke-width="0" stroke="#98D5F9" d = " M122 232 C126.049,232 129.132,235 134,235 147.838,235 168.071,237.358 175,223.5 175,223.5 177,221 177,221 177,217.568 184.405,196 187,196 187,196 188,195 188,195 188,193.959 188.986,190 190,190 190,184.322 191,177.318 191,171 191,171 193,156 193,156 193,156 193,153 193,153 193,151.952 192.527,150 194,150 194,150 194,149 194,149 194,142.111 193.907,132.314 191,126.5 191,126.5 186,115 186,115 186,115 183,112 183,112 178.378,112 168.382,108.559 163.5,111 160.506,112.497 156.373,111.564 153.5,113 144.448,117.526 134.673,120.413 125.5,125 116.781,129.36 109.714,142.071 106,149.5 106,149.5 101,159 101,159 101,160.622 101.461,164 99,164 99,164 99,165 99,165 99,166.048 99.4729,168 98,168 98,168 98,170 98,170 98,170 98,184.5 98,184.5 100.153,188.805 105,204.32 105,209 105,209 105,210 105,210 105,210 111,222 111,222 111,222 118,229 118,229 118,229 119,229 119,229 119,229 120,230 120,230 120,230 121,231 121,231 121,231 122,232 122,232  Z"/>

<path  fill="#98D5F9" stroke-width="0" stroke="#98D5F9" d = " M334 232 C330.432,232 327.48,235 323,235 309.605,235 288.714,236.928 283,225.5 282.386,224.272 280,224.224 280,222 280,218.516 271.981,196 269,196 269,196 269,195 269,195 269,195 266,189 266,189 266,189 265,180 265,180 265,180 265,177 265,177 265,177 265,173 265,173 265,173 264,159 264,159 264,159 263,158 263,158 263,158 263,155 263,155 263,155 263,151 263,151 263,143.527 261.879,133.742 265,127.5 265,127.5 270,116 270,116 270,116 274,112 274,112 278.389,112 287.826,108.663 292.5,111 300.986,115.243 311.971,114.735 320.5,119 333.537,125.518 342.662,135.825 349,148.5 351.432,153.364 357,159.358 357,165 357,165.986 358.087,171 359,171 359,171 359,175 359,175 359,186.656 353,195.377 353,207 353,207 352,209 352,209 352,209 351,210 351,210 351,210 347,220 347,220 347,220 346,221 346,221 346,221 345,222 345,222 345,222 344,223 344,223 344,223 343,225 343,225 341.253,225 341,225.253 341,227 339.762,227 338,227.423 338,229 338,229 337,230 337,230 337,230 335,231 335,231 335,231 334,232 334,232  Z"/>

<path  fill="#AAA8A9" stroke-width="0" stroke="#AAA8A9" d = " M186 115 C190.599,115 193.105,119 197,119 197,114.575 186.337,112 183,112 183,112 186,115 186,115  Z"/>

<path  fill="#AAA8A9" stroke-width="0" stroke="#AAA8A9" d = " M270 116 C270,113.229 263.336,117 262,117 262,113.177 271.124,112 274,112 274,112 270,116 270,116  Z"/>

<path  fill="#188064" stroke-width="0" stroke="#188064" d = " M132 115 C132,116.577 130.238,117 129,117 129,117 131,115 131,115 131,115 132,115 132,115  Z"/>

<path  fill="#A8AAAA" stroke-width="0" stroke="#A8AAAA" d = " M195 148 L194,149 C194,142.111 193.907,132.314 191,126.5 191,126.5 186,115 186,115 190.599,115 193.105,119 197,119 197,119 198,119 198,119 198,119 200,121 200,121 200,121 201,121 201,121 201,121 202,122 202,122 202,122 206,125 206,125 206,130.672 195,139.245 195,148  Z"/>

<path  fill="#A8AAAA" stroke-width="0" stroke="#A8AAAA" d = " M261 148 L263,151 C263,143.527 261.879,133.742 265,127.5 265,127.5 270,116 270,116 270,113.229 263.336,117 262,117 262,118.577 260.238,119 259,119 259,119 257,120 257,120 257,120 256,121 256,121 256,121 255,121 255,121 255,121 254,122 254,122 254,122 250,125 250,125 250,128.487 261,138.788 261,148  Z"/>

<path  fill="#188064" stroke-width="0" stroke="#188064" d = " M355 153 L356,153 C356,144.372 334.654,115 325,115 325,115 325,116 325,116 325,116.732 333.039,121.539 334.5,123 341.163,129.663 353,140.749 353,150 353,150 353,151 353,151 353,151 355,153 355,153  Z"/>

<path  fill="#188064" stroke-width="0" stroke="#188064" d = " M129 117 C127.535,117 125,116.891 125,119 126.465,119 129,119.109 129,117  Z"/>

<path  fill="#AAA8A9" stroke-width="0" stroke="#AAA8A9" d = " M262 117 C260.762,117 259,117.423 259,119 260.238,119 262,118.577 262,117  Z"/>

<path  fill="#188064" stroke-width="0" stroke="#188064" d = " M101 153 L102,153 C102,153 103,152 103,152 103,152 103,151 103,151 103,149.535 102.891,147 105,147 105,145.535 104.891,143 107,143 107,141.535 106.891,139 109,139 109,137.762 109.423,136 111,136 111,134.438 113.189,131 115,131 115,126.1 125,123.419 125,119 117.558,119 101,146.655 101,153  Z"/>

<path  fill="#AAA8A9" stroke-width="0" stroke="#AAA8A9" d = " M198 119 L200,121 C200,121 198,119 198,119  Z"/>

<path  fill="#AAA8A9" stroke-width="0" stroke="#AAA8A9" d = " M259 119 L257,120 C257,120 259,119 259,119  Z"/>

<path  fill="#AAA8A9" stroke-width="0" stroke="#AAA8A9" d = " M257 120 L256,121 C256,121 257,120 257,120  Z"/>

<path  fill="#AAA8A9" stroke-width="0" stroke="#AAA8A9" d = " M201 121 L202,122 C202,122 201,121 201,121  Z"/>

<path  fill="#AAA8A9" stroke-width="0" stroke="#AAA8A9" d = " M255 121 L254,122 C254,122 255,121 255,121  Z"/>

<path  fill="#90CBEC" stroke-width="0" stroke="#90CBEC" d = " M195 148 L199,149 C199,149 203.5,145 203.5,145 207.225,143.137 222,136.507 222,132 222,132 222,130 222,130 219.48,130 211.795,125 206,125 206,130.672 195,139.245 195,148  Z"/>

<path  fill="#90CBEC" stroke-width="0" stroke="#90CBEC" d = " M256 148 C257.467,148 259.533,148 261,148 261,138.788 250,128.487 250,125 247.226,125 235,126.991 235,130 235,130 235,132 235,132 235,133.767 255.311,148 256,148  Z"/>

<path  fill="#97D6F9" stroke-width="0" stroke="#97D6F9" d = " M222 132 C225.559,132 231.441,132 235,132 235,132 235,130 235,130 232.558,130 229.882,128 228.5,128 226.721,128 224.579,130 222,130 222,130 222,132 222,132  Z"/>

<path  fill="#C9C9CA" stroke-width="0" stroke="#C9C9CA" d = " M115 131 C113.189,131 111,134.438 111,136 112.811,136 115,132.562 115,131  Z"/>

<path  fill="#90CAED" stroke-width="0" stroke="#90CAED" d = " M219 195 L220,195 C220,195 220,190 220,190 220,188.952 219.527,187 221,187 221,187 221,181 221,181 221,181 222,180 222,180 222,180 224,163 224,163 224,163 225,162 225,162 225,162 225,158 225,158 225,158 226,156 226,156 226,141.883 231,147.006 231,157 231,157 231,160 231,160 231,160 232,161 232,161 232,161 232,164 232,164 232,164 233,165 233,165 233,165 234,177 234,177 234,177 235,178 235,178 235,178 236,189 236,189 237.684,189 237,193.679 237,195 237,195 243.5,187 243.5,187 251.356,183.072 253.978,174 264,174 264,174 265,173 265,173 265,173 264,159 264,159 264,159 263,158 263,158 263,158 263,155 263,155 263,155 256,148 256,148 255.311,148 235,133.767 235,132 231.441,132 225.559,132 222,132 222,136.507 207.225,143.137 203.5,145 203.5,145 199,149 199,149 199,149 193,156 193,156 193,156 191,171 191,171 192.579,171 192,173.855 192,175 193.317,175 193.788,171.644 196.5,173 199.64,174.57 219,192.555 219,195  Z"/>

<path  fill="#1A7E62" stroke-width="0" stroke="#1A7E62" d = " M53 176 L49,177 C49,169.929 44.3992,154.702 48,147.5 48,147.5 54,132 54,132 54,132 58,135 58,135 58,139.879 55.1583,148.183 53,152.5 50.2821,157.936 53,169.749 53,176  Z"/>

<path  fill="#1A7E62" stroke-width="0" stroke="#1A7E62" d = " M403 176 L407,177 C408.679,177 409,167.924 409,166 409,158.527 410.121,148.742 407,142.5 405.384,139.268 403,135.856 403,132 403,132 398,134 398,134 398,134 398,135 398,135 398,135 404,156.5 404,156.5 406.473,161.445 403,171.187 403,176  Z"/>

<path  fill="#1B8063" stroke-width="0" stroke="#1B8063" d = " M53 176 L54,176 C54,176 63,175 63,175 63,161.259 68,149.711 68,139 68,139 59,135 59,135 59,135 58,135 58,135 58,139.879 55.1583,148.183 53,152.5 50.2821,157.936 53,169.749 53,176  Z"/>

<path  fill="#1B8063" stroke-width="0" stroke="#1B8063" d = " M393 175 L403,176 C403,171.187 406.473,161.445 404,156.5 404,156.5 398,135 398,135 398,135 388,139 388,139 388,139 391,149.5 391,149.5 393.384,154.269 393,168.642 393,175  Z"/>

<path  fill="#C9C9CA" stroke-width="0" stroke="#C9C9CA" d = " M111 136 C109.423,136 109,137.762 109,139 110.577,139 111,137.238 111,136  Z"/>

<path  fill="#187C63" stroke-width="0" stroke="#187C63" d = " M64 175 L65,175 C65,175 67,174 67,174 67,174 68,174 68,174 68,169.157 69.2574,150.985 71,147.5 71,147.5 73,142 73,142 73,142 73,141 73,141 73,141 68,139 68,139 68,149.711 63,161.259 63,175 63,175 64,175 64,175  Z"/>

<path  fill="#C9C9CA" stroke-width="0" stroke="#C9C9CA" d = " M109 139 C106.891,139 107,141.535 107,143 107,143 109,139 109,139  Z"/>

<path  fill="#187C63" stroke-width="0" stroke="#187C63" d = " M390 174 L393,175 C393,168.642 393.384,154.269 391,149.5 391,149.5 388,139 388,139 388,139 383,141 383,141 383,141 383,142 383,142 383,142 385,145.5 385,145.5 387.224,149.949 388,167.918 388,174 388,174 390,174 390,174  Z"/>

<path  fill="#1C8063" stroke-width="0" stroke="#1C8063" d = " M81 172 C76.7477,172 71.9823,174 68,174 68,169.157 69.2574,150.985 71,147.5 71,147.5 73,142 73,142 76.8579,142 80.6957,147 84,147 84,155.529 81,163.126 81,172  Z"/>

<path  fill="#1C8063" stroke-width="0" stroke="#1C8063" d = " M375 172 L388,174 C388,167.918 387.224,149.949 385,145.5 385,145.5 383,142 383,142 383,142 372,147 372,147 372,155.117 375,163.029 375,172  Z"/>

<path  fill="#C9C9CA" stroke-width="0" stroke="#C9C9CA" d = " M107 143 C104.891,143 105,145.535 105,147 105,147 107,143 107,143  Z"/>

<path  fill="#97D6F9" stroke-width="0" stroke="#97D6F9" d = " M226 156 L228.5,154 L231,157 C231,147.006 226,141.883 226,156  Z"/>

<path  fill="#197D63" stroke-width="0" stroke="#197D63" d = " M95 171 C91.5174,171 85.1132,172 81,172 81,163.126 84,155.529 84,147 84,147 85,147 85,147 90.3131,147 94.8776,153 100,153 100,158.491 96,164.033 96,170 96,170 95,171 95,171  Z"/>

<path  fill="#C9C9CA" stroke-width="0" stroke="#C9C9CA" d = " M105 147 C102.891,147 103,149.535 103,151 103,151 105,147 105,147  Z"/>

<path  fill="#197D63" stroke-width="0" stroke="#197D63" d = " M361 170 C364.985,170 370.965,172 375,172 375,163.029 372,155.117 372,147 370.052,147 357,151.899 357,153 357,158.832 361,164.33 361,170  Z"/>

<path  fill="#97D6F9" stroke-width="0" stroke="#97D6F9" d = " M193 153 L193,156 C193,156 199,149 199,149 199,149 195,148 195,148 195,148 194,149 194,149 194,149 194,150 194,150 194,151.048 194.473,153 193,153  Z"/>

<path  fill="#97D6F9" stroke-width="0" stroke="#97D6F9" d = " M263 151 L263,155 C263,155 256,148 256,148 257.467,148 259.533,148 261,148 261,148 263,151 263,151  Z"/>

<path  fill="#A8AAAA" stroke-width="0" stroke="#A8AAAA" d = " M194 150 C192.527,150 193,151.952 193,153 194.473,153 194,151.048 194,150  Z"/>

<path  fill="#C9C9CA" stroke-width="0" stroke="#C9C9CA" d = " M355 153 L355,155 C355,155 353,151 353,151 353,151 355,153 355,153  Z"/>

<path  fill="#C9C9CA" stroke-width="0" stroke="#C9C9CA" d = " M103 152 L102,153 C102,153 103,152 103,152  Z"/>

<path  fill="#1A8061" stroke-width="0" stroke="#1A8061" d = " M97 170 L98,170 C98,170 98,168 98,168 98,166.952 97.5271,165 99,165 99,165 99,164 99,164 99,164 99,161 99,161 99,161 100,159 100,159 100,159 101,157 101,157 101,157 101,156 101,156 101,156 102,154 102,154 102,154 102,153 102,153 102,153 101,153 101,153 101,153 100,153 100,153 100,158.491 96,164.033 96,170 96,170 97,170 97,170  Z"/>

<path  fill="#1A8061" stroke-width="0" stroke="#1A8061" d = " M359 170 L361,170 C361,164.33 357,158.832 357,153 357,153 356,153 356,153 356,153 355,153 355,153 355,153 355,155 355,155 355,155 355,156 355,156 355,156 357,160 357,160 357,160 358,165 358,165 358,165 359,170 359,170  Z"/>

<path  fill="#C9C9CA" stroke-width="0" stroke="#C9C9CA" d = " M102 154 L101,156 C101,156 102,154 102,154  Z"/>

<path  fill="#96A7D3" stroke-width="0" stroke="#96A7D3" d = " M231 235 L232,235 C232,235 233,233 233,233 233,233 236,223 236,223 236,217.861 237,212.605 237,207 237,207 237,195 237,195 235.316,195 236,190.321 236,189 236,189 235,178 235,178 235,178 234,177 234,177 234,177 233,165 233,165 233,165 232,164 232,164 232,164 232,161 232,161 232,161 231,160 231,160 231,160 231,157 231,157 231,157 228.5,154 228.5,154 228.5,154 226,156 226,156 226,156 225,158 225,158 225,158 225,162 225,162 225,162 224,163 224,163 224,163 222,180 222,180 222,180 221,181 221,181 221,181 221,187 221,187 221,188.048 221.473,190 220,190 220,190 220,195 220,195 220,195 220,197 220,197 220,197 220,202 220,202 220,202 220,222 220,222 220,224.22 222.992,235 226,235 226,235 228.5,231 228.5,231 229.724,231 227.919,235 231,235  Z"/>

<path  fill="#97D6F9" stroke-width="0" stroke="#97D6F9" d = " M226 156 L225,158 C225,158 226,156 226,156  Z"/>

<path  fill="#C9C9CA" stroke-width="0" stroke="#C9C9CA" d = " M355 156 L357,160 C357,160 355,156 355,156  Z"/>

<path  fill="#C9C9CA" stroke-width="0" stroke="#C9C9CA" d = " M100 159 L101,159 C101,159 101,157 101,157 101,157 100,159 100,159  Z"/>

<path  fill="#97D6F9" stroke-width="0" stroke="#97D6F9" d = " M263 158 L264,159 C264,159 263,158 263,158  Z"/>

<path  fill="#C9C9CA" stroke-width="0" stroke="#C9C9CA" d = " M100 159 L99,161 C99,161 100,159 100,159  Z"/>

<path  fill="#C9C7C9" stroke-width="0" stroke="#C9C7C9" d = " M99 161 L99,164 C101.461,164 101,160.622 101,159 101,159 100,159 100,159 100,159 99,161 99,161  Z"/>

<path  fill="#97D6F9" stroke-width="0" stroke="#97D6F9" d = " M231 160 L232,161 C232,161 231,160 231,160  Z"/>

<path  fill="#97D6F9" stroke-width="0" stroke="#97D6F9" d = " M225 162 L224,163 C224,163 225,162 225,162  Z"/>

<path  fill="#97D6F9" stroke-width="0" stroke="#97D6F9" d = " M232 164 L233,165 C233,165 232,164 232,164  Z"/>

<path  fill="#C8CBCC" stroke-width="0" stroke="#C8CBCC" d = " M99 165 C97.5271,165 98,166.952 98,168 99.4729,168 99,166.048 99,165  Z"/>

<path  fill="#C8CBCC" stroke-width="0" stroke="#C8CBCC" d = " M359 170 L359,171 C358.087,171 357,165.986 357,165 357,165 358,165 358,165 358,165 359,170 359,170  Z"/>

<path  fill="#009B74" stroke-width="0" stroke="#009B74" d = " M96 187 C90.8664,187 87.4908,191 83,191 83,185.227 81,178.684 81,172 85.1132,172 91.5174,171 95,171 95,175.933 96,181.73 96,186 96,186 96,187 96,187  Z"/>

<path  fill="#009B74" stroke-width="0" stroke="#009B74" d = " M96 170 L95,171 C95,171 96,170 96,170  Z"/>

<path  fill="#019C74" stroke-width="0" stroke="#019C74" d = " M96 186 L97,186 C97,186 97,170 97,170 97,170 96,170 96,170 96,170 95,171 95,171 95,175.933 96,181.73 96,186  Z"/>

<path  fill="#C8CBCC" stroke-width="0" stroke="#C8CBCC" d = " M102 206 L105,209 C105,204.32 100.153,188.805 98,184.5 98,184.5 98,170 98,170 98,170 97,170 97,170 97,170 97,186 97,186 97,186 98,191 98,191 98,191 99,193 99,193 99,193 99,195 99,195 100.638,195 101,198.576 101,200 101,200 101,201 101,201 102.473,201 102,202.952 102,204 102,204 102,206 102,206  Z"/>

<path  fill="#019C74" stroke-width="0" stroke="#019C74" d = " M359 185 L361,187 C361,180.56 361,176.222 361,170 361,170 359,170 359,170 359,170 359,171 359,171 359,171 359,175 359,175 361.835,175 359,184.035 359,185  Z"/>

<path  fill="#009B74" stroke-width="0" stroke="#009B74" d = " M361 187 C366.043,187 369.415,191 374,191 374,185 375,178.525 375,172 370.965,172 364.985,170 361,170 361,176.222 361,180.56 361,187  Z"/>

<path  fill="#A8AAAA" stroke-width="0" stroke="#A8AAAA" d = " M192 189 C192,195.321 191.663,190 190,190 190,184.322 191,177.318 191,171 192.579,171 192,173.855 192,175 192,175 192,189 192,189  Z"/>

<path  fill="#019C75" stroke-width="0" stroke="#019C75" d = " M83 192 C78.8126,192 73.9123,195 70,195 70,195 68,189.5 68,189.5 68,189.5 68,174 68,174 71.9823,174 76.7477,172 81,172 81,178.684 83,185.227 83,191 83,191 83,192 83,192  Z"/>

<path  fill="#019C75" stroke-width="0" stroke="#019C75" d = " M386 195 L387,195 C387,191.892 387.737,190.027 389,187.5 390.82,183.859 388,177.254 388,174 388,174 375,172 375,172 375,178.525 374,185 374,191 374,191 374,192 374,192 377.655,192 382.654,195 386,195  Z"/>

<path  fill="#8FCBED" stroke-width="0" stroke="#8FCBED" d = " M203 201 C206.604,201 211.078,207.789 213.5,209 220.156,212.328 217.987,202 220,202 220,202 220,197 220,197 220,197 219,195 219,195 219,192.555 199.64,174.57 196.5,173 193.788,171.644 193.317,175 192,175 192,175 192,189 192,189 192,189 195,195 195,195 195,195 203,201 203,201  Z"/>

<path  fill="#8FCBED" stroke-width="0" stroke="#8FCBED" d = " M252 203 C247.583,203 246.14,207.18 242.5,209 239.561,210.47 238.284,207 237,207 237,207 237,195 237,195 237,195 243.5,187 243.5,187 251.356,183.072 253.978,174 264,174 264,175.048 263.527,177 265,177 265,177 265,180 265,180 263.227,180 264,189.259 264,191 264,191 262,195 262,195 262,195 261,195 261,195 261,195 260,196 260,196 258.748,196 255,199.172 255,200 255,200 254,201 254,201 254,201 253,202 253,202 253,202 252,203 252,203  Z"/>

<path  fill="#A8AAAA" stroke-width="0" stroke="#A8AAAA" d = " M264 174 C264,175.048 263.527,177 265,177 265,177 265,173 265,173 265,173 264,174 264,174  Z"/>

<path  fill="#11AC82" stroke-width="0" stroke="#11AC82" d = " M67 174 L65,175 C65,175 67,174 67,174  Z"/>

<path  fill="#009C74" stroke-width="0" stroke="#009C74" d = " M68 195 L70,195 C70,195 68,189.5 68,189.5 68,189.5 68,174 68,174 68,174 67,174 67,174 67,174 65,175 65,175 65,175 64,175 64,175 64,175 63,176 63,176 63,182.215 68,189.012 68,195  Z"/>

<path  fill="#009C74" stroke-width="0" stroke="#009C74" d = " M387 195 L389,195 C389,188.379 393,182.806 393,176 393,176 390,174 390,174 390,174 388,174 388,174 388,177.254 390.82,183.859 389,187.5 387.737,190.027 387,191.892 387,195  Z"/>

<path  fill="#11AC82" stroke-width="0" stroke="#11AC82" d = " M393 175 L393,176 C393,176 390,174 390,174 390,174 393,175 393,175  Z"/>

<path  fill="#12AC83" stroke-width="0" stroke="#12AC83" d = " M63 176 C59.9218,176 56.6747,179 54,179 54,179 54,176 54,176 54,176 63,175 63,175 63,175 63,176 63,176  Z"/>

<path  fill="#11AC82" stroke-width="0" stroke="#11AC82" d = " M64 175 L63,176 C63,176 63,175 63,175 63,175 64,175 64,175  Z"/>

<path  fill="#C8CBCC" stroke-width="0" stroke="#C8CBCC" d = " M354 206 L353,207 C353,195.377 359,186.656 359,175 361.835,175 359,184.035 359,185 359,185 359,190 359,190 359,190 359,191 359,191 359,191 358,192 358,192 358,192 357,194 357,194 357,194 357,196 357,196 354.727,196 355,201.226 355,203 353.527,203 354,204.952 354,206  Z"/>

<path  fill="#12AC83" stroke-width="0" stroke="#12AC83" d = " M403 176 L402,179 C399.325,179 396.078,176 393,176 393,176 393,175 393,175 393,175 403,176 403,176  Z"/>

<path  fill="#12AD83" stroke-width="0" stroke="#12AD83" d = " M54 179 C51.5759,179 51.2404,181 50,181 50,181 49,177 49,177 49,177 53,176 53,176 53,176 54,176 54,176 54,176 54,179 54,179  Z"/>

<path  fill="#009B75" stroke-width="0" stroke="#009B75" d = " M68 195 C65.4781,195 63.0913,197 60,197 60,191.308 54,184.96 54,179 56.6747,179 59.9218,176 63,176 63,182.215 68,189.012 68,195  Z"/>

<path  fill="#009B75" stroke-width="0" stroke="#009B75" d = " M396 197 L397,197 C397,190.784 402,185.348 402,179 399.325,179 396.078,176 393,176 393,182.806 389,188.379 389,195 391.16,195 393.167,197 396,197  Z"/>

<path  fill="#12AD83" stroke-width="0" stroke="#12AD83" d = " M402 179 C403.465,179 406,178.891 406,181 407.579,181 407,178.145 407,177 407,177 403,176 403,176 403,176 402,179 402,179  Z"/>

<path  fill="#97D6F9" stroke-width="0" stroke="#97D6F9" d = " M234 177 L235,178 C235,178 234,177 234,177  Z"/>

<path  fill="#009C75" stroke-width="0" stroke="#009C75" d = " M60 197 L57,199 C55.1554,199 55.5594,195.619 55,194.5 55,194.5 50,181 50,181 51.2404,181 51.5759,179 54,179 54,184.96 60,191.308 60,197  Z"/>

<path  fill="#009C75" stroke-width="0" stroke="#009C75" d = " M397 197 L400,199 C400,193.058 406,187.372 406,181 406,178.891 403.465,179 402,179 402,185.348 397,190.784 397,197  Z"/>

<path  fill="#97D6F9" stroke-width="0" stroke="#97D6F9" d = " M222 180 L221,181 C221,181 222,180 222,180  Z"/>

<path  fill="#A8AAAA" stroke-width="0" stroke="#A8AAAA" d = " M266 189 C266,190.667 264,193.638 264,191 264,189.259 263.227,180 265,180 265,180 266,189 266,189  Z"/>

<path  fill="#1F9766" stroke-width="0" stroke="#1F9766" d = " M359 190 L360,190 C360,190 361,187 361,187 361,187 359,185 359,185 359,185 359,190 359,190  Z"/>

<path  fill="#1F9766" stroke-width="0" stroke="#1F9766" d = " M97 190 L98,191 C98,191 97,186 97,186 97,186 96,186 96,186 96,186 96,187 96,187 96,187 97,190 97,190  Z"/>

<path  fill="#209666" stroke-width="0" stroke="#209666" d = " M92 205 C92,206.374 89.3744,206 88,206 88,206 87,203 87,203 87,203 86,202 86,202 86,202 86,201 86,201 86,201 85,200 85,200 85,200 85,198 85,198 85,198 84,196 84,196 84,196 84,195 84,195 84,195 83,194 83,194 83,194 83,192 83,192 83,192 83,191 83,191 87.4908,191 90.8664,187 96,187 96,187 97,190 97,190 87.9295,190 92,200.015 92,205  Z"/>

<path  fill="#97D6F9" stroke-width="0" stroke="#97D6F9" d = " M221 187 C219.527,187 220,188.952 220,190 221.473,190 221,188.048 221,187  Z"/>

<path  fill="#209666" stroke-width="0" stroke="#209666" d = " M369 205 L368,206 C368,204.912 364.701,205 364,205 364,200.502 368.058,190 360,190 360,190 361,187 361,187 366.043,187 369.415,191 374,191 374,191 374,192 374,192 372.527,192 373,193.952 373,195 373,195 372,197 372,197 372,197 371,199 371,199 371,199 371,200 371,200 371,200 370,201 370,201 370,201 370,203 370,203 370,203 369,205 369,205  Z"/>

<path  fill="#97D6F9" stroke-width="0" stroke="#97D6F9" d = " M188 195 L195,195 C195,195 192,189 192,189 192,195.321 191.663,190 190,190 188.986,190 188,193.959 188,195  Z"/>

<path  fill="#97D6F9" stroke-width="0" stroke="#97D6F9" d = " M236 189 C237.684,189 237,193.679 237,195 235.316,195 236,190.321 236,189  Z"/>

<path  fill="#97D6F9" stroke-width="0" stroke="#97D6F9" d = " M262 195 L269,195 C269,195 266,189 266,189 266,190.667 264,193.638 264,191 264,191 262,195 262,195  Z"/>

<path  fill="#8ADA86" stroke-width="0" stroke="#8ADA86" d = " M97 209 L98,209 C98,209 99,208 99,208 99,208 100,208 100,208 100,208 101,207 101,207 101,207 101,204 101,204 101,204 101,201 101,201 101,201 101,200 101,200 99.9856,200 99,196.041 99,195 99,195 99,193 99,193 99,193 98,191 98,191 98,191 97,190 97,190 87.9295,190 92,200.015 92,205 93.5389,205 94.1867,209 97,209  Z"/>

<path  fill="#8ADA86" stroke-width="0" stroke="#8ADA86" d = " M358 209 L359,209 C361.813,209 362.461,205 364,205 364,200.502 368.058,190 360,190 360,190 359,190 359,190 359,190 359,191 359,191 359,191 358,192 358,192 358,192 357,194 357,194 357,194 357,196 357,196 357,197.296 356.175,203 355,203 355,205.813 358,206.921 358,209  Z"/>

<path  fill="#209666" stroke-width="0" stroke="#209666" d = " M98 191 L99,193 C99,193 98,191 98,191  Z"/>

<path  fill="#209666" stroke-width="0" stroke="#209666" d = " M359 191 L358,192 C358,192 359,191 359,191  Z"/>

<path  fill="#219864" stroke-width="0" stroke="#219864" d = " M81 215 L85,215 C85,215 90,212 90,212 88.5271,212 89,210.048 89,209 89,209 89,208 89,208 89,208 88,207 88,207 88,207 88,206 88,206 88,206 87,203 87,203 87,203 86,202 86,202 86,202 86,201 86,201 86,201 85,200 85,200 85,200 85,198 85,198 85,198 84,196 84,196 84,196 84,195 84,195 84,195 83,194 83,194 83,194 83,192 83,192 78.8126,192 73.9123,195 70,195 70,202.461 81,208.19 81,215  Z"/>

<path  fill="#209666" stroke-width="0" stroke="#209666" d = " M358 192 L357,194 C357,194 358,192 358,192  Z"/>

<path  fill="#219864" stroke-width="0" stroke="#219864" d = " M371 215 L375,215 C375,210.231 386,202.144 386,195 382.654,195 377.655,192 374,192 372.527,192 373,193.952 373,195 373,195 372,197 372,197 372,197 371,199 371,199 371,199 371,200 371,200 371,200 370,201 370,201 370,201 370,203 370,203 370,203 369,205 369,205 369,205 368,206 368,206 368,206 368,208 368,208 368,208 367,209 367,209 367,209 367,211 367,211 367,211 367,213 367,213 367,213 371,215 371,215  Z"/>

<path  fill="#209766" stroke-width="0" stroke="#209766" d = " M83 194 L84,195 C84,195 83,194 83,194  Z"/>

<path  fill="#209865" stroke-width="0" stroke="#209865" d = " M81 215 C81,216.259 72.3682,219 71,219 71,219 60,197 60,197 63.0913,197 65.4781,195 68,195 68,195 70,195 70,195 70,202.461 81,208.19 81,215  Z"/>

<path  fill="#209666" stroke-width="0" stroke="#209666" d = " M99 195 C100.638,195 101,198.576 101,200 99.9856,200 99,196.041 99,195  Z"/>

<path  fill="#97D6F9" stroke-width="0" stroke="#97D6F9" d = " M188 195 L187,196 C187,196 188,195 188,195  Z"/>

<path  fill="#B3C0DE" stroke-width="0" stroke="#B3C0DE" d = " M199 229 L200,229 C200,229 201,228 201,228 201,225.702 204.523,220 207,220 207,216.362 207,214.071 207,211 207,207.196 203,204.115 203,201 203,201 195,195 195,195 195,195 188,195 188,195 188,195 187,196 187,196 187,200.596 186,204.746 186,210 188.203,210 190.569,206.535 193.5,208 199.281,210.891 197.664,219.418 192.5,222 188.071,224.215 187.251,220 184,220 184,220 183,222 183,222 183,224.097 184,227.293 184,230 186.681,230 192.316,232.592 195.5,231 195.5,231 199,229 199,229  Z"/>

<path  fill="#97D6F9" stroke-width="0" stroke="#97D6F9" d = " M220 195 L220,197 C220,197 219,195 219,195 219,195 220,195 220,195  Z"/>

<path  fill="#97D6F9" stroke-width="0" stroke="#97D6F9" d = " M261 195 L260,196 C260,196 261,195 261,195  Z"/>

<path  fill="#B3C0DE" stroke-width="0" stroke="#B3C0DE" d = " M257 229 L261.5,231 C264.477,232.489 269.546,230 272,230 272,230 273,222 273,222 273,222 272,221 272,221 272,221 267.5,223 267.5,223 263.16,220.83 252.676,212.912 262.5,208 266.437,206.031 268.377,211 271,211 271,205.675 269,198.962 269,196 269,196 269,195 269,195 269,195 262,195 262,195 262,195 261,195 261,195 261,195 260,196 260,196 258.748,196 255,199.172 255,200 255,200 254,201 254,201 254,201 253,202 253,202 253,202 252,203 252,203 252,206.083 249,208.545 249,212 249,214.707 250,217.903 250,220 253.937,220 253.193,229 257,229  Z"/>

<path  fill="#209766" stroke-width="0" stroke="#209766" d = " M373 195 L372,197 C372,197 373,195 373,195  Z"/>

<path  fill="#209865" stroke-width="0" stroke="#209865" d = " M375 215 C375,215.956 383.939,219 385,219 385,213.584 396,204.366 396,197 393.167,197 391.16,195 389,195 389,195 387,195 387,195 387,195 386,195 386,195 386,202.144 375,210.231 375,215  Z"/>

<path  fill="#209766" stroke-width="0" stroke="#209766" d = " M84 196 L85,198 C85,198 84,196 84,196  Z"/>

<path  fill="#97D6F9" stroke-width="0" stroke="#97D6F9" d = " M177 221 C179.124,221 181.436,222 183,222 183,222 184,220 184,220 184,216.23 186,212.979 186,210 186,204.746 187,200.596 187,196 184.405,196 177,217.568 177,221  Z"/>

<path  fill="#97D6F9" stroke-width="0" stroke="#97D6F9" d = " M273 222 C275.296,222 277.877,222 280,222 280,218.516 271.981,196 269,196 269,198.962 271,205.675 271,211 271,211 273,215.5 273,215.5 273,215.5 272,221 272,221 272,221 273,222 273,222  Z"/>

<path  fill="#209666" stroke-width="0" stroke="#209666" d = " M357 196 C354.727,196 355,201.226 355,203 356.175,203 357,197.296 357,196  Z"/>

<path  fill="#219765" stroke-width="0" stroke="#219765" d = " M71 219 L66,221 C66,221 63,215.5 63,215.5 60.7386,210.977 57,204.233 57,199 57,199 60,197 60,197 60,197 71,219 71,219  Z"/>

<path  fill="#209766" stroke-width="0" stroke="#209766" d = " M372 197 L371,199 C371,199 372,197 372,197  Z"/>

<path  fill="#219765" stroke-width="0" stroke="#219765" d = " M385 219 L391,221 C391,214.834 400,205.796 400,199 400,199 397,197 397,197 397,197 396,197 396,197 396,204.366 385,213.584 385,219  Z"/>

<path  fill="#209766" stroke-width="0" stroke="#209766" d = " M85 200 L86,201 C86,201 85,200 85,200  Z"/>

<path  fill="#97D6F9" stroke-width="0" stroke="#97D6F9" d = " M255 200 L254,201 C254,201 255,200 255,200  Z"/>

<path  fill="#209766" stroke-width="0" stroke="#209766" d = " M371 200 L370,201 C370,201 371,200 371,200  Z"/>

<path  fill="#209666" stroke-width="0" stroke="#209666" d = " M101 204 L102,204 C102,202.952 102.473,201 101,201 101,201 101,204 101,204  Z"/>

<path  fill="#97D6F9" stroke-width="0" stroke="#97D6F9" d = " M218 220 L220,222 C220,222 220,202 220,202 217.987,202 220.156,212.328 213.5,209 211.078,207.789 206.604,201 203,201 203,204.115 207,207.196 207,211 207,211 209,214 209,214 213.677,214 218,212.884 218,220  Z"/>

<path  fill="#209665" stroke-width="0" stroke="#209665" d = " M86 202 L87,203 C87,203 86,202 86,202  Z"/>

<path  fill="#97D6F9" stroke-width="0" stroke="#97D6F9" d = " M253 202 L252,203 C252,203 253,202 253,202  Z"/>

<path  fill="#97D6F9" stroke-width="0" stroke="#97D6F9" d = " M239 219 L236,223 C236,217.861 237,212.605 237,207 238.284,207 239.561,210.47 242.5,209 246.14,207.18 247.583,203 252,203 252,206.083 249,208.545 249,212 249,212 247,214 247,214 242.889,214 239,212.105 239,219  Z"/>

<path  fill="#1F9866" stroke-width="0" stroke="#1F9866" d = " M356 208 L358,209 C358,206.921 355,205.813 355,203 353.527,203 354,204.952 354,206 354,206 356,208 356,208  Z"/>

<path  fill="#209665" stroke-width="0" stroke="#209665" d = " M370 203 L369,205 C369,205 370,203 370,203  Z"/>

<path  fill="#1F9866" stroke-width="0" stroke="#1F9866" d = " M102 206 L101,207 C101,207 101,204 101,204 101,204 102,204 102,204 102,204 102,206 102,206  Z"/>

<path  fill="#1F9866" stroke-width="0" stroke="#1F9866" d = " M95 211 L90,212 C90,210.952 90.4729,209 89,209 89,209 89,208 89,208 89,208 88,207 88,207 88,207 88,206 88,206 89.3744,206 92,206.374 92,205 93.5389,205 94.1867,209 97,209 97,209 95,211 95,211  Z"/>

<path  fill="#1F9866" stroke-width="0" stroke="#1F9866" d = " M367 211 L366,212 C363.517,212 361.974,210 360,210 360,210 359,209 359,209 361.813,209 362.461,205 364,205 364.701,205 368,204.912 368,206 368,206 368,208 368,208 368,208 367,209 367,209 367,209 367,211 367,211  Z"/>

<path  fill="#8AD987" stroke-width="0" stroke="#8AD987" d = " M105 209 L105,210 C103.376,210 102.25,208 100,208 100,208 101,207 101,207 101,207 102,206 102,206 102,206 105,209 105,209  Z"/>

<path  fill="#8AD987" stroke-width="0" stroke="#8AD987" d = " M356 208 L353,209 C353,209 353,207 353,207 353,207 354,206 354,206 354,206 356,208 356,208  Z"/>

<path  fill="#1F9865" stroke-width="0" stroke="#1F9865" d = " M88 207 L89,208 C89,208 88,207 88,207  Z"/>

<path  fill="#C8CBCC" stroke-width="0" stroke="#C8CBCC" d = " M352 209 L353,209 C353,209 353,207 353,207 353,207 352,209 352,209  Z"/>

<path  fill="#1F9866" stroke-width="0" stroke="#1F9866" d = " M99 208 L98,209 C98,209 99,208 99,208  Z"/>

<path  fill="#A0EE9C" stroke-width="0" stroke="#A0EE9C" d = " M103 227 L110,229 C110,227.084 113,228.93 113,226 113,226 111,222 111,222 111,222 105,210 105,210 103.376,210 102.25,208 100,208 100,208 99,208 99,208 99,208 98,209 98,209 98,209 97,209 97,209 97,209 95,211 95,211 95,211 94,216.5 94,216.5 94.5785,217.657 97,221.991 97,223 97,223 98,224 98,224 98,224 101,227 101,227 101,227 103,227 103,227  Z"/>

<path  fill="#CBCBC7" stroke-width="0" stroke="#CBCBC7" d = " M186 210 C188.203,210 190.569,206.535 193.5,208 199.281,210.891 197.664,219.418 192.5,222 188.071,224.215 187.251,220 184,220 184,216.23 186,212.979 186,210  Z"/>

<path  fill="#CBCBC7" stroke-width="0" stroke="#CBCBC7" d = " M271 211 C268.377,211 266.437,206.031 262.5,208 252.676,212.912 263.16,220.83 267.5,223 L272,221 C272,221 273,215.5 273,215.5 273,215.5 271,211 271,211  Z"/>

<path  fill="#A0EE9C" stroke-width="0" stroke="#A0EE9C" d = " M353 228 L347,229 C347,229 343,227 343,227 343,227 343,225 343,225 343,225 344,223 344,223 344,223 345,222 345,222 345,222 346,221 346,221 346,221 347,220 347,220 347,220 351,210 351,210 351,210 352,209 352,209 352,209 353,209 353,209 353,209 356,208 356,208 356,208 358,209 358,209 358,209 359,209 359,209 359,209 360,210 360,210 360,210 362,212.5 362,212.5 362,212.5 361,221 361,221 361,221 360,223 360,223 360,223 359,224 359,224 359,224 358,225 358,225 358,225 357,225 357,225 357,225 356,226 356,226 356,226 355,227 355,227 355,227 354,227 354,227 354,227 353,228 353,228  Z"/>

<path  fill="#1F9865" stroke-width="0" stroke="#1F9865" d = " M368 208 L367,209 C367,209 368,208 368,208  Z"/>

<path  fill="#1F9865" stroke-width="0" stroke="#1F9865" d = " M89 209 C90.4729,209 90,210.952 90,212 88.5271,212 89,210.048 89,209  Z"/>

<path  fill="#C8CBCC" stroke-width="0" stroke="#C8CBCC" d = " M352 209 L351,210 C351,210 352,209 352,209  Z"/>

<path  fill="#99D2BD" stroke-width="0" stroke="#99D2BD" d = " M371 215 C364.901,215 362.705,221 361,221 361,221 362,212.5 362,212.5 362,212.5 360,210 360,210 361.974,210 363.517,212 366,212 366,212 367,213 367,213 367,213 371,215 371,215  Z"/>

<path  fill="#99D2BD" stroke-width="0" stroke="#99D2BD" d = " M85 215 C92.2788,215 94.2662,223 97,223 97,221.991 94.5785,217.657 94,216.5 94,216.5 95,211 95,211 95,211 90,212 90,212 90,212 85,215 85,215  Z"/>

<path  fill="#E64438" stroke-width="0" stroke="#E64438" d = " M228 244 L226,245 C226,245 226,244 226,244 226,222.466 206,235.111 206,245 204.993,245 204.578,243 201,243 201,243 202,238 202,238 209.2,238 207,223.353 207,220 207,216.362 207,214.071 207,211 207,211 209,214 209,214 209,223.977 218,232.092 218,220 218,220 220,222 220,222 220,224.22 222.992,235 226,235 226,238.157 228,240.481 228,244  Z"/>

<path  fill="#1F9865" stroke-width="0" stroke="#1F9865" d = " M366 212 L367,213 C367,213 367,211 367,211 367,211 366,212 366,212  Z"/>

<path  fill="#E64438" stroke-width="0" stroke="#E64438" d = " M255 242 C253.535,242 251,241.891 251,244 251,244 246.5,237 246.5,237 244.635,236.067 237.608,229.946 235.5,231 235.5,231 233,233 233,233 233,233 236,223 236,223 236,223 239,219 239,219 239,232.408 247,223.33 247,214 247,214 249,212 249,212 249,214.707 250,217.903 250,220 250,220 248,223.5 248,223.5 246.384,226.731 250.931,238 255,238 255,238 255,242 255,242  Z"/>

<path  fill="#FF5547" stroke-width="0" stroke="#FF5547" d = " M209 214 C213.677,214 218,212.884 218,220 218,232.092 209,223.977 209,214  Z"/>

<path  fill="#FF5547" stroke-width="0" stroke="#FF5547" d = " M247 214 C242.889,214 239,212.105 239,219 239,232.408 247,223.33 247,214  Z"/>

<path  fill="#6ACAB9" stroke-width="0" stroke="#6ACAB9" d = " M117 266 L120,266 C120,266 125,262 125,262 125,262 126,261 126,261 126,261 128,256.5 128,256.5 130.237,252.026 126.627,244.755 125,241.5 122.499,236.499 103,228.054 103,227 103,227 101,227 101,227 101,227 98,224 98,224 98,224 97,223 97,223 94.2662,223 92.2788,215 85,215 85,215 81,215 81,215 81,216.259 72.3682,219 71,219 71,219 66,221 66,221 66,228.953 80.5547,244.055 86.5,250 86.5,250 95,258 95,258 95,256.733 102.973,259.237 104.5,260 107.284,261.392 117,260.351 117,266  Z"/>

<path  fill="#6ACAB9" stroke-width="0" stroke="#6ACAB9" d = " M337 266 L339,266 C339,260.7 359.229,258 362,258 362,258 371,249.5 371,249.5 374.52,242.461 391,228.76 391,221 391,221 385,219 385,219 383.939,219 375,215.956 375,215 375,215 371,215 371,215 364.901,215 362.705,221 361,221 361,221 360,223 360,223 360,223 359,224 359,224 359,224 358,225 358,225 358,225 357,225 357,225 357,225 356,226 356,226 356,226 355,227 355,227 355,227 354,227 354,227 354,227 353,228 353,228 353,229.323 342.887,233 341,233 341,233.48 331.276,240.947 330,243.5 326.657,250.187 330,254.631 330,261 330,261 337,266 337,266  Z"/>

<path  fill="#FD5446" stroke-width="0" stroke="#FD5446" d = " M197 233 C197,234.925 200.075,238 202,238 209.2,238 207,223.353 207,220 204.523,220 201,225.702 201,228 201,228 200,229 200,229 200,229 199,229 199,229 199,229 197,233 197,233  Z"/>

<path  fill="#FD5446" stroke-width="0" stroke="#FD5446" d = " M259 233 C259,234.562 256.811,238 255,238 250.931,238 246.384,226.731 248,223.5 248,223.5 250,220 250,220 253.937,220 253.193,229 257,229 257,229 259,233 259,233  Z"/>

<path  fill="#C8CBCC" stroke-width="0" stroke="#C8CBCC" d = " M347 220 L346,221 C346,221 347,220 347,220  Z"/>

<path  fill="#80CDF8" stroke-width="0" stroke="#80CDF8" d = " M181 240 C181,242.41 173.851,243.799 173,245.5 170.185,251.13 153.053,265.777 143.5,261 L135,257 C135,251.014 128,244.872 128,239 128,235.279 134,237.031 134,235 147.838,235 168.071,237.358 175,223.5 175,223.5 177,221 177,221 179.124,221 181.436,222 183,222 183,224.097 184,227.293 184,230 184,230 183,239 183,239 183,239 182,239 182,239 182,239 181,240 181,240  Z"/>

<path  fill="#80CDF8" stroke-width="0" stroke="#80CDF8" d = " M322 256 L321,257 C321,257 315.5,260 315.5,260 308.903,263.298 300.984,259.742 295.5,257 291.618,255.059 278.031,239 274,239 274,236.245 272,233.447 272,230 272,230 273,222 273,222 275.296,222 277.877,222 280,222 280,224.224 282.386,224.272 283,225.5 288.714,236.928 309.605,235 323,235 323,236.773 329,235.513 329,239 329,239 328,240 328,240 328,244.943 322,250.681 322,256  Z"/>

<path  fill="#C8CBCC" stroke-width="0" stroke="#C8CBCC" d = " M346 221 L345,222 C345,222 346,221 346,221  Z"/>

<path  fill="#99D2BD" stroke-width="0" stroke="#99D2BD" d = " M361 221 L360,223 C360,223 361,221 361,221  Z"/>

<path  fill="#C8CBCC" stroke-width="0" stroke="#C8CBCC" d = " M113 226 C114.947,226 115.636,229 118,229 118,229 111,222 111,222 111,222 113,226 113,226  Z"/>

<path  fill="#C8CBCC" stroke-width="0" stroke="#C8CBCC" d = " M344 223 L343,225 C343,225 344,223 344,223  Z"/>

<path  fill="#99D2BD" stroke-width="0" stroke="#99D2BD" d = " M98 224 L101,227 C101,227 98,224 98,224  Z"/>

<path  fill="#99D2BD" stroke-width="0" stroke="#99D2BD" d = " M359 224 L358,225 C358,225 359,224 359,224  Z"/>

<path  fill="#C8CBCC" stroke-width="0" stroke="#C8CBCC" d = " M341 227 L343,227 C343,227 343,225 343,225 341.253,225 341,225.253 341,227  Z"/>

<path  fill="#99D2BD" stroke-width="0" stroke="#99D2BD" d = " M357 225 L356,226 C356,226 357,225 357,225  Z"/>

<path  fill="#8AD987" stroke-width="0" stroke="#8AD987" d = " M122 232 L122,235 C122,235 110,229 110,229 110,227.084 113,228.93 113,226 114.947,226 115.636,229 118,229 118,229 119,229 119,229 119,229 120,230 120,230 120,230 121,231 121,231 121,231 122,232 122,232  Z"/>

<path  fill="#99D2BD" stroke-width="0" stroke="#99D2BD" d = " M356 226 L355,227 C355,227 356,226 356,226  Z"/>

<path  fill="#99D2BD" stroke-width="0" stroke="#99D2BD" d = " M126 261 L127,261 C127,261 135,257 135,257 135,251.014 128,244.872 128,239 128,239 122,235 122,235 122,235 110,229 110,229 110,229 103,227 103,227 103,228.054 122.499,236.499 125,241.5 126.627,244.755 130.237,252.026 128,256.5 128,256.5 126,261 126,261  Z"/>

<path  fill="#C8CBCC" stroke-width="0" stroke="#C8CBCC" d = " M341 227 C339.762,227 338,227.423 338,229 339.238,229 341,228.577 341,227  Z"/>

<path  fill="#8AD987" stroke-width="0" stroke="#8AD987" d = " M341 233 L335,235 C335,235 334,232 334,232 334,232 335,231 335,231 335,231 337,230 337,230 337,230 338,229 338,229 339.238,229 341,228.577 341,227 341,227 343,227 343,227 343,227 347,229 347,229 345.336,229 341,230.823 341,233  Z"/>

<path  fill="#99D2BD" stroke-width="0" stroke="#99D2BD" d = " M354 227 L353,228 C353,228 354,227 354,227  Z"/>

<path  fill="#E64438" stroke-width="0" stroke="#E64438" d = " M201 228 L200,229 C200,229 201,228 201,228  Z"/>

<path  fill="#99D2BD" stroke-width="0" stroke="#99D2BD" d = " M347 229 C345.336,229 341,230.823 341,233 342.887,233 353,229.323 353,228 353,228 347,229 347,229  Z"/>

<path  fill="#C8CBCC" stroke-width="0" stroke="#C8CBCC" d = " M119 229 L120,230 C120,230 119,229 119,229  Z"/>

<path  fill="#E64438" stroke-width="0" stroke="#E64438" d = " M197 233 C192.492,233 187.388,239 183,239 183,239 184,230 184,230 186.681,230 192.316,232.592 195.5,231 195.5,231 199,229 199,229 199,229 197,233 197,233  Z"/>

<path  fill="#E64438" stroke-width="0" stroke="#E64438" d = " M259 233 L274,239 C274,236.245 272,233.447 272,230 269.546,230 264.477,232.489 261.5,231 261.5,231 257,229 257,229 257,229 259,233 259,233  Z"/>

<path  fill="#C8CBCC" stroke-width="0" stroke="#C8CBCC" d = " M338 229 L337,230 C337,230 338,229 338,229  Z"/>

<path  fill="#97D6F9" stroke-width="0" stroke="#97D6F9" d = " M120 230 L121,231 C121,231 120,230 120,230  Z"/>

<path  fill="#FF5346" stroke-width="0" stroke="#FF5346" d = " M213 265 L207,268 C207,265.074 204.009,261 201,261 201,261 201,260 201,260 201,255.225 206,250.481 206,245 206,235.111 226,222.466 226,244 223.877,244 219,248.878 219,251 217.702,251 215.627,247.437 212.5,249 208.294,251.103 201.199,258.849 207.5,262 210.042,263.271 212.868,260 215,260 215,260 214,264 214,264 214,264 213,265 213,265  Z"/>

<path  fill="#FF5346" stroke-width="0" stroke="#FF5346" d = " M243 265 L250,268 C250,265.317 251.741,261 255,261 255,261 255,260 255,260 255,254.651 251,250.338 251,244 251,244 246.5,237 246.5,237 244.635,236.067 237.608,229.946 235.5,231 235.5,231 233,233 233,233 233,233 232,235 232,235 232,235 231,236 231,236 231,236 230,243 230,243 231.489,243 235.994,247.489 237,249.5 237.523,250.546 236.049,253 238,253 238,240.693 258.093,257.703 249.5,262 246.475,263.513 243.63,260 241,260 241,260 243,265 243,265  Z"/>

<path  fill="#97D6F9" stroke-width="0" stroke="#97D6F9" d = " M335 231 L334,232 C334,232 335,231 335,231  Z"/>

<path  fill="#97D6F9" stroke-width="0" stroke="#97D6F9" d = " M134 235 C134,237.031 128,235.279 128,239 128,239 122,235 122,235 122,235 122,232 122,232 126.049,232 129.132,235 134,235  Z"/>

<path  fill="#97D6F9" stroke-width="0" stroke="#97D6F9" d = " M335 235 C332.227,235 331.33,239 329,239 329,235.513 323,236.773 323,235 327.48,235 330.432,232 334,232 334,232 335,235 335,235  Z"/>

<path  fill="#A2B1D7" stroke-width="0" stroke="#A2B1D7" d = " M181 276 L181,277 C172.551,277 155.304,281.402 146.5,277 146.5,277 137.5,271 137.5,271 137.5,271 127,261 127,261 127,261 135,257 135,257 135,257 143.5,261 143.5,261 153.053,265.777 170.185,251.13 173,245.5 173.851,243.799 181,242.41 181,240 181,240 182,239 182,239 182,239 183,239 183,239 187.388,239 192.492,233 197,233 197,234.925 200.075,238 202,238 202,238 201,243 201,243 201,245.016 189.754,263 187,263 187,263 185,265 185,265 178.62,265 175.402,276 181,276  Z"/>

<path  fill="#E64438" stroke-width="0" stroke="#E64438" d = " M233 233 L232,235 C232,235 233,233 233,233  Z"/>

<path  fill="#A2B1D7" stroke-width="0" stroke="#A2B1D7" d = " M275 276 L275,277 C291.268,277 308.782,281.718 322,268.5 324.198,266.302 329,264.057 329,261 327.878,261 322,258.368 322,257 322,257 321,257 321,257 321,257 315.5,260 315.5,260 308.903,263.298 300.984,259.742 295.5,257 291.618,255.059 278.031,239 274,239 274,239 259,233 259,233 259,234.562 256.811,238 255,238 255,238 255,242 255,242 255,248.625 270,261.721 270,264 270,264 271,265 271,265 277.856,265 280.895,276 275,276  Z"/>

<path  fill="#99D2BD" stroke-width="0" stroke="#99D2BD" d = " M329 261 L330,261 C330,254.631 326.657,250.187 330,243.5 331.276,240.947 341,233.48 341,233 341,233 335,235 335,235 332.227,235 331.33,239 329,239 329,239 328,240 328,240 328,244.943 322,250.681 322,256 322,256 322,257 322,257 322,258.368 327.878,261 329,261  Z"/>

<path  fill="#E64438" stroke-width="0" stroke="#E64438" d = " M232 235 L231,236 C231,236 231,235 231,235 231,235 232,235 232,235  Z"/>

<path  fill="#E64438" stroke-width="0" stroke="#E64438" d = " M229 244 L230,245 C230,245 230,243 230,243 230,243 231,236 231,236 228.009,236 229,242.051 229,244  Z"/>

<path  fill="#E64438" stroke-width="0" stroke="#E64438" d = " M182 239 L181,240 C181,240 182,239 182,239  Z"/>

<path  fill="#97D6F9" stroke-width="0" stroke="#97D6F9" d = " M329 239 L328,240 C328,240 329,239 329,239  Z"/>

<path  fill="#F2473B" stroke-width="0" stroke="#F2473B" d = " M187 263 L187,265 C191.537,265 195.286,261 200,261 200,261 201,260 201,260 201,255.225 206,250.481 206,245 204.993,245 204.578,243 201,243 201,245.016 189.754,263 187,263  Z"/>

<path  fill="#F2473B" stroke-width="0" stroke="#F2473B" d = " M269 265 L270,265 C270,265 270,264 270,264 270,261.721 255,248.625 255,242 253.535,242 251,241.891 251,244 251,250.338 255,254.651 255,260 255,260 256,261 256,261 260.882,261 264.606,265 269,265  Z"/>

<path  fill="#FE5446" stroke-width="0" stroke="#FE5446" d = " M231 270 L243,273 C243,270.48 243,267.862 243,265 243,265 241,260 241,260 241,257.768 238,255.971 238,253 236.049,253 237.523,250.546 237,249.5 235.994,247.489 231.489,243 230,243 230,243 230,245 230,245 230,248.312 231,253.038 231,257 231,257 231,270 231,270  Z"/>

<path  fill="#FE5446" stroke-width="0" stroke="#FE5446" d = " M223 271 L224,271 C224,271 225,270 225,270 225,270 225,257 225,257 225,252.893 226,248.531 226,245 226,245 226,244 226,244 223.877,244 219,248.878 219,251 219,254.351 216,256.596 216,259 216,259 215,260 215,260 215,260 214,264 214,264 214,264 213,265 213,265 213,265 213,273 213,273 213,273 223,271 223,271  Z"/>

<path  fill="#FF5445" stroke-width="0" stroke="#FF5445" d = " M225 257 C226.631,257 229.369,257 231,257 231,253.038 230,248.312 230,245 230,245 229,244 229,244 229,244 228,244 228,244 228,244 226,245 226,245 226,248.531 225,252.893 225,257  Z"/>

<path  fill="#FE5447" stroke-width="0" stroke="#FE5447" d = " M216 259 L215,260 C212.868,260 210.042,263.271 207.5,262 201.199,258.849 208.294,251.103 212.5,249 215.627,247.437 217.702,251 219,251 219,254.351 216,256.596 216,259  Z"/>

<path  fill="#FE5447" stroke-width="0" stroke="#FE5447" d = " M238 253 C238,255.971 241,257.768 241,260 243.63,260 246.475,263.513 249.5,262 258.093,257.703 238,240.693 238,253  Z"/>

<path  fill="#FD5447" stroke-width="0" stroke="#FD5447" d = " M231 270 L230,271 C230,271 225,270 225,270 225,270 225,257 225,257 226.631,257 229.369,257 231,257 231,257 231,270 231,270  Z"/>

<path  fill="#97D6F9" stroke-width="0" stroke="#97D6F9" d = " M321 257 L322,257 C322,257 322,256 322,256 322,256 321,257 321,257  Z"/>

<path  fill="#CAC8C7" stroke-width="0" stroke="#CAC8C7" d = " M118 269 L117,273 C114.787,273 95,259.858 95,258 95,256.733 102.973,259.237 104.5,260 107.284,261.392 117,260.351 117,266 117,266 118,269 118,269  Z"/>

<path  fill="#CAC8C7" stroke-width="0" stroke="#CAC8C7" d = " M339 272 L340,273 C342.859,273 343.197,270.151 345.5,269 348.969,267.265 362,262.394 362,258 359.229,258 339,260.7 339,266 339,266 339,269 339,269 339,269 339,272 339,272  Z"/>

<path  fill="#FF5346" stroke-width="0" stroke="#FF5346" d = " M216 259 L215,260 C215,260 216,259 216,259  Z"/>

<path  fill="#CBCCCB" stroke-width="0" stroke="#CBCCCB" d = " M200 261 L201,261 C201,261 201,260 201,260 201,260 200,261 200,261  Z"/>

<path  fill="#CBCCCB" stroke-width="0" stroke="#CBCCCB" d = " M255 261 L256,261 C256,261 255,260 255,260 255,260 255,261 255,261  Z"/>

<path  fill="#99D2BD" stroke-width="0" stroke="#99D2BD" d = " M126 261 L125,262 C125,262 126,261 126,261  Z"/>

<path  fill="#7FCCF7" stroke-width="0" stroke="#7FCCF7" d = " M181 277 C185.537,277 191,278.711 191,284 191,294.455 177.242,293.129 171.5,296 156.385,303.557 139.748,299.248 128,287.5 124.475,283.975 119,279.822 119,275 119,275 119,269 119,269 119,269 120,266 120,266 120,266 125,262 125,262 125,262 126,261 126,261 126,261 127,261 127,261 127,261 137.5,271 137.5,271 137.5,271 146.5,277 146.5,277 155.304,281.402 172.551,277 181,277  Z"/>

<path  fill="#96A6D3" stroke-width="0" stroke="#96A6D3" d = " M199 277 L200,277 C200,277 201,276 201,276 201,276 202,275 202,275 202,275 203,275 203,275 203,272.633 207,270.968 207,268 207,265.074 204.009,261 201,261 201,261 200,261 200,261 195.286,261 191.537,265 187,265 187,265 186,267 186,267 186,267 185,274 185,274 185,274 192.5,278 192.5,278 192.5,278 199,277 199,277  Z"/>

<path  fill="#96A6D3" stroke-width="0" stroke="#96A6D3" d = " M255 276 L257,277 C257,277 264.5,278 264.5,278 264.5,278 271,275 271,275 271,275 271,274 271,274 271,274 271,268 271,268 271,268 270,267 270,267 270,267 270,266 270,266 270,266 269,265 269,265 264.606,265 260.882,261 256,261 256,261 255,261 255,261 251.741,261 250,265.317 250,268 250,270.971 253,272.768 253,275 253,275 254,275 254,275 254,275 255,276 255,276  Z"/>

<path  fill="#7FCCF7" stroke-width="0" stroke="#7FCCF7" d = " M275 277 C271.565,277 265,278.75 265,283 265,293.889 278.11,292.805 284.5,296 298.598,303.049 309.786,299.357 322.5,293 322.5,293 326.5,289 326.5,289 329.756,287.372 337,279.932 337,276 337,276 338,269 338,269 338,269 337,266 337,266 337,266 330,261 330,261 330,261 329,261 329,261 329,264.057 324.198,266.302 322,268.5 308.782,281.718 291.268,277 275,277  Z"/>

<path  fill="#E64438" stroke-width="0" stroke="#E64438" d = " M187 265 L186,267 C186,267 185,265 185,265 185,265 187,263 187,263 187,263 187,265 187,265  Z"/>

<path  fill="#E64438" stroke-width="0" stroke="#E64438" d = " M214 264 L213,265 C213,265 214,264 214,264  Z"/>

<path  fill="#E64438" stroke-width="0" stroke="#E64438" d = " M270 265 L271,265 C271,265 270,264 270,264 270,264 270,265 270,265  Z"/>

<path  fill="#A2B1D8" stroke-width="0" stroke="#A2B1D8" d = " M185 274 C185,276.109 182.465,276 181,276 175.402,276 178.62,265 185,265 185,265 186,267 186,267 186,267 185,274 185,274  Z"/>

<path  fill="#E64438" stroke-width="0" stroke="#E64438" d = " M213 273 L203,275 C203,272.633 207,270.968 207,268 207,268 213,265 213,265 213,265 213,273 213,273  Z"/>

<path  fill="#E64438" stroke-width="0" stroke="#E64438" d = " M243 273 L253,275 C253,272.768 250,270.971 250,268 250,268 243,265 243,265 243,267.862 243,270.48 243,273  Z"/>

<path  fill="#E64438" stroke-width="0" stroke="#E64438" d = " M270 265 L270,266 C270,266 269,265 269,265 269,265 270,265 270,265  Z"/>

<path  fill="#A2B1D8" stroke-width="0" stroke="#A2B1D8" d = " M272 275 L275,276 C280.895,276 277.856,265 271,265 271,265 270,265 270,265 270,265 270,266 270,266 270,266 270,267 270,267 270,267 271,268 271,268 271,268 271,274 271,274 271,274 272,275 272,275  Z"/>

<path  fill="#99D2BD" stroke-width="0" stroke="#99D2BD" d = " M118 269 L119,269 C119,269 120,266 120,266 120,266 117,266 117,266 117,266 118,269 118,269  Z"/>

<path  fill="#99D2BD" stroke-width="0" stroke="#99D2BD" d = " M338 269 L339,269 C339,269 339,266 339,266 339,266 337,266 337,266 337,266 338,269 338,269  Z"/>

<path  fill="#E64438" stroke-width="0" stroke="#E64438" d = " M270 267 L271,268 C271,268 270,267 270,267  Z"/>

<path  fill="#97D6F9" stroke-width="0" stroke="#97D6F9" d = " M117 273 L119,275 C119,275 119,269 119,269 119,269 118,269 118,269 118,269 117,273 117,273  Z"/>

<path  fill="#97D6F9" stroke-width="0" stroke="#97D6F9" d = " M339 273 C339,274.238 338.577,276 337,276 337,276 338,269 338,269 338,269 339,269 339,269 339,269 339,272 339,272 339,272 339,273 339,273  Z"/>

<path  fill="#CAC7CB" stroke-width="0" stroke="#CAC7CB" d = " M209 285 C209,287.729 214.007,286.254 215.5,287 219.257,288.878 237.743,288.878 241.5,287 242.819,286.341 247,287.334 247,285 240.844,285 237,278.297 237,274 234.768,274 232.971,271 230,271 230,274.784 225.714,271 224,271 224,271 223,271 223,271 223,271 220,274 220,274 220,279.288 214.336,285 209,285  Z"/>

<path  fill="#99D2BD" stroke-width="0" stroke="#99D2BD" d = " M339 273 L340,273 C340,273 339,272 339,272 339,272 339,273 339,273  Z"/>

<path  fill="#8599CC" stroke-width="0" stroke="#8599CC" d = " M199 277 C199,279.118 192.989,284 191,284 191,278.711 185.537,277 181,277 181,277 181,276 181,276 182.465,276 185,276.109 185,274 185,274 192.5,278 192.5,278 192.5,278 199,277 199,277  Z"/>

<path  fill="#CBCCC7" stroke-width="0" stroke="#CBCCC7" d = " M220 274 C212.363,274 209,279.034 209,285 214.336,285 220,279.288 220,274  Z"/>

<path  fill="#CBCCC7" stroke-width="0" stroke="#CBCCC7" d = " M237 274 C240.798,274 247.057,277.614 249,281.5 L247,285 C240.844,285 237,278.297 237,274  Z"/>

<path  fill="#E64438" stroke-width="0" stroke="#E64438" d = " M271 275 L272,275 C272,275 271,274 271,274 271,274 271,275 271,275  Z"/>

<path  fill="#E64438" stroke-width="0" stroke="#E64438" d = " M202 275 L201,276 C201,276 202,275 202,275  Z"/>

<path  fill="#E64438" stroke-width="0" stroke="#E64438" d = " M254 275 L255,276 C255,276 254,275 254,275  Z"/>

<path  fill="#8599CC" stroke-width="0" stroke="#8599CC" d = " M275 277 C271.565,277 265,278.75 265,283 263.178,283 257,279.289 257,277 257,277 264.5,278 264.5,278 264.5,278 271,275 271,275 271,275 272,275 272,275 272,275 275,276 275,276 275,276 275,277 275,277  Z"/>

<path  fill="#8599CC" stroke-width="0" stroke="#8599CC" d = " M201 276 L200,277 C200,277 201,276 201,276  Z"/>

</g>
</svg>
