<svg xmlns="http://www.w3.org/2000/svg" xmlns:xlink="http://www.w3.org/1999/xlink"  viewBox="0 0 456 320">
<g>
<rect width="456" height="320" fill="#000000"  stroke-width="0" /> 
<path  fill="#1E9C59" stroke-width="0" stroke="#1E9C59" d = " M122 92 C122,93.4242 122.362,97 124,97 124,97 138.5,85 138.5,85 144.65,81.9249 150.366,78.067 156.5,75 161.825,72.3374 173.32,71.5899 178.5,69 182.328,67.0859 188.401,64.9506 192.5,67 192.5,67 202.5,67 202.5,67 205.709,68.6047 208.183,71.3413 211.5,73 212.925,73.7123 215,75.0141 215,77 215,77 217,77 217,77 217,77 220,74 220,74 220,66.6404 207.661,63.0803 203.5,61 186.516,52.5078 154.914,69.793 140.5,77 137.92,78.29 122,88.9965 122,92  Z"/>

<path  fill="#1E9C59" stroke-width="0" stroke="#1E9C59" d = " M334 92 C334,94.4127 333,95.5102 333,97 333,97 316.5,84 316.5,84 316.5,84 299.5,75 299.5,75 294.784,72.642 288.165,73.3325 283.5,71 278.75,68.6249 269.699,64.4007 264.5,67 257.301,70.5995 253.462,64.0376 244,73.5 244,73.5 241,77 241,77 241,77 240,77 240,77 240,77 237,74 237,74 237,69.0992 245.583,62.9583 249.5,61 249.5,61 253.5,61 253.5,61 270.387,52.5566 301.176,69.8382 315.5,77 318.162,78.3311 334,88.7384 334,92  Z"/>

<path  fill="#1E9D58" stroke-width="0" stroke="#1E9D58" d = " M123 99 C123,104.013 122.871,106.241 125,110.5 125.846,112.191 122.801,120 125,120 125,120 138,104.5 138,104.5 152.059,90.4409 169.552,85.4738 186.5,77 189.827,75.3364 210,77.596 210,82 210,82 211,82 211,82 212.811,82 215,78.5617 215,77 215,75.0141 212.925,73.7123 211.5,73 208.183,71.3413 205.709,68.6047 202.5,67 202.5,67 192.5,67 192.5,67 188.401,64.9506 182.328,67.0859 178.5,69 173.32,71.5899 161.825,72.3374 156.5,75 150.366,78.067 144.65,81.9249 138.5,85 138.5,85 124,97 124,97 124,97 123,99 123,99  Z"/>

<path  fill="#1E9D58" stroke-width="0" stroke="#1E9D58" d = " M334 100 C332.335,100 333,104.222 333,105.5 333,110.127 332,117.04 332,121 332,121 325,111.5 325,111.5 321.564,104.627 311.016,96.2581 304.5,93 294.369,87.9344 283.503,84.0014 273.5,79 271.564,78.0322 263.69,74.9048 261.5,76 257.832,77.8338 253.223,77.1385 249.5,79 249.5,79 246,82 246,82 244.346,82 241,78.2599 241,77 241,77 244,73.5 244,73.5 253.462,64.0376 257.301,70.5995 264.5,67 269.699,64.4007 278.75,68.6249 283.5,71 288.165,73.3325 294.784,72.642 299.5,75 299.5,75 316.5,84 316.5,84 316.5,84 333,97 333,97 333,97 334,100 334,100  Z"/>

<path  fill="#3EA665" stroke-width="0" stroke="#3EA665" d = " M222 93 C225.686,93 231.257,93 235,93 235,86.4443 240,81.3557 240,77 240,77 237,74 237,74 234.447,74 230.971,82.5579 230,84.5 230,84.5 228.5,89 228.5,89 228.5,89 227,85.5 227,85.5 227,85.5 220,74 220,74 220,74 217,77 217,77 217,82.425 222,87.099 222,93  Z"/>

<path  fill="#1F9D58" stroke-width="0" stroke="#1F9D58" d = " M144 140 C138.12,140 133.297,151 127,151 127,148.939 125,146.788 125,146.5 125,138.969 124,131.07 124,123 124,123 125,121 125,121 125,121 125,120 125,120 125,120 138,104.5 138,104.5 152.059,90.4409 169.552,85.4738 186.5,77 189.827,75.3364 210,77.596 210,82 210,82 194,102 194,102 191.986,102 188.068,99.7162 185.5,101 183.043,102.229 179.836,101.832 177.5,103 167.516,107.992 150.587,116.325 145,127.5 145,127.5 144,140 144,140  Z"/>

<path  fill="#1F9D58" stroke-width="0" stroke="#1F9D58" d = " M313 141 C318.632,141 324.024,151 329,151 329,149.366 331.788,134.924 332,134.5 333.052,132.397 331.32,124 333,124 333,124 333,123 333,123 333,123 332,122 332,122 332,122 332,121 332,121 332,121 325,111.5 325,111.5 321.564,104.627 311.016,96.2581 304.5,93 294.369,87.9344 283.503,84.0014 273.5,79 271.564,78.0322 263.69,74.9048 261.5,76 257.832,77.8338 253.223,77.1385 249.5,79 249.5,79 246,82 246,82 246,82 246,83 246,83 247.495,83 262,100.747 262,102 262,102 263,102 263,102 263,100.335 267.222,101 268.5,101 268.5,101 283.5,105 283.5,105 298.021,112.26 313,122.689 313,140 313,140 313,141 313,141  Z"/>

<path  fill="#40A565" stroke-width="0" stroke="#40A565" d = " M215 95 L216,95 C217.974,95 219.517,93 222,93 222,87.099 217,82.425 217,77 217,77 215,77 215,77 215,78.5617 212.811,82 211,82 211,86.2808 215,89.6175 215,95  Z"/>

<path  fill="#40A565" stroke-width="0" stroke="#40A565" d = " M235 93 L241,95 C241,92.395 242.386,83 246,83 246,83 246,82 246,82 244.346,82 241,78.2599 241,77 241,77 240,77 240,77 240,81.3557 235,86.4443 235,93  Z"/>

<path  fill="#3EA566" stroke-width="0" stroke="#3EA566" d = " M194 102 L197,103 C203.54,103 208.504,95 215,95 215,89.6175 211,86.2808 211,82 211,82 210,82 210,82 210,82 194,102 194,102  Z"/>

<path  fill="#3EA566" stroke-width="0" stroke="#3EA566" d = " M262 102 L260,103 C252.69,103 248.067,95 241,95 241,92.395 242.386,83 246,83 247.495,83 262,100.747 262,102  Z"/>

<path  fill="#1E9D5A" stroke-width="0" stroke="#1E9D5A" d = " M109 162 L105,164 C102.074,164 101.146,148.792 100,146.5 92.1046,130.709 108.004,114.493 114,102.5 114,102.5 122,92 122,92 122,93.4242 122.362,97 124,97 124,97 123,99 123,99 120.624,99 116.894,106.712 116,108.5 111.389,117.722 99.0153,133.531 105,145.5 106.261,148.022 104.989,161 109,161 109,161 109,162 109,162  Z"/>

<path  fill="#2FA750" stroke-width="0" stroke="#2FA750" d = " M223 131 L233,131 C233,131 235,93 235,93 231.257,93 225.686,93 222,93 222,105.509 223,118.041 223,131  Z"/>

<path  fill="#1E9D5A" stroke-width="0" stroke="#1E9D5A" d = " M348 162 L352,164 C352,160.59 355.401,152.697 357,149.5 357,149.5 357,142 357,142 357,123.743 351.305,119.111 344,104.5 342.913,102.327 336.681,92 334,92 334,94.4127 333,95.5102 333,97 333,97 334,100 334,100 337.255,100 341.862,110.225 343,112.5 346.519,119.538 356.863,137.774 352,147.5 350.631,150.238 348,158.181 348,161 348,161 348,162 348,162  Z"/>

<path  fill="#2FA74F" stroke-width="0" stroke="#2FA74F" d = " M219 131 L223,131 C223,118.041 222,105.509 222,93 219.517,93 217.974,95 216,95 216,107.271 219,118.686 219,131  Z"/>

<path  fill="#2FA74F" stroke-width="0" stroke="#2FA74F" d = " M233 131 L237,131 C237,118.964 241,106.867 241,95 241,95 235,93 235,93 235,93 233,131 233,131  Z"/>

<path  fill="#2EA84F" stroke-width="0" stroke="#2EA84F" d = " M214 130 L219,131 C219,118.686 216,107.271 216,95 216,95 215,95 215,95 208.504,95 203.54,103 197,103 197,103 197,104 197,104 197,104.718 200.262,109.025 201,110.5 201.725,111.95 203,123.109 203,125 203,125 203,126 203,126 206.546,126 209.807,130 214,130  Z"/>

<path  fill="#2EA84F" stroke-width="0" stroke="#2EA84F" d = " M243 130 L237,131 C237,118.964 241,106.867 241,95 248.067,95 252.69,103 260,103 260,103 260,104 260,104 256.474,104 253,122.814 253,126 253,126 253,127 253,127 249.177,127 246.686,130 243,130  Z"/>

<path  fill="#1F9C58" stroke-width="0" stroke="#1F9C58" d = " M120 155 C116.012,155 113.058,161 109,161 104.989,161 106.261,148.022 105,145.5 99.0153,133.531 111.389,117.722 116,108.5 116.894,106.712 120.624,99 123,99 123,104.013 122.871,106.241 125,110.5 125.846,112.191 122.801,120 125,120 125,120 125,121 125,121 125,121 124,123 124,123 122.41,123 122.557,127.386 122,128.5 117.695,137.111 120,145.582 120,155  Z"/>

<path  fill="#1F9C58" stroke-width="0" stroke="#1F9C58" d = " M336 155 L348,161 C348,158.181 350.631,150.238 352,147.5 356.863,137.774 346.519,119.538 343,112.5 341.862,110.225 337.255,100 334,100 332.335,100 333,104.222 333,105.5 333,110.127 332,117.04 332,121 332,121 332,122 332,122 332,122 333,123 333,123 333,123 333,124 333,124 333,124 337,134.5 337,134.5 339.428,139.356 336,149.436 336,154 336,154 336,155 336,155  Z"/>

<path  fill="#1D9C5A" stroke-width="0" stroke="#1D9C5A" d = " M161 133 L156.5,132 C153.292,133.604 150.119,135.69 147.5,137 L144,140 C144,140 145,127.5 145,127.5 150.587,116.325 167.516,107.992 177.5,103 179.836,101.832 183.043,102.229 185.5,101 188.068,99.7162 191.986,102 194,102 194,102 192,105 192,105 190.218,105 185,111.482 185,113 177.776,113 168.314,115.871 165,122.5 165,122.5 166,126 166,126 166,126 162,132 162,132 162,132 161,133 161,133  Z"/>

<path  fill="#1D9C5A" stroke-width="0" stroke="#1D9C5A" d = " M295 133 C296.423,133 298.544,131.022 300.5,132 303.453,133.476 309.905,140 313,140 313,122.689 298.021,112.26 283.5,105 283.5,105 268.5,101 268.5,101 267.222,101 263,100.335 263,102 263,102 264,104 264,104 266.185,104 271,111.198 271,113 278.929,113 282.079,115.789 288.5,119 289.376,119.438 293.192,126 290,126 290,126 295,133 295,133  Z"/>

<path  fill="#3FA664" stroke-width="0" stroke="#3FA664" d = " M197 104 L192,105 C192,105 194,102 194,102 194,102 197,103 197,103 197,103 197,104 197,104  Z"/>

<path  fill="#3FA664" stroke-width="0" stroke="#3FA664" d = " M260 104 C261.465,104 264,105.115 264,104 264,104 263,102 263,102 263,102 262,102 262,102 262,102 260,103 260,103 260,103 260,104 260,104  Z"/>

<path  fill="#2FA850" stroke-width="0" stroke="#2FA850" d = " M189 117 C193.669,117 197.682,125 203,125 203,123.109 201.725,111.95 201,110.5 200.262,109.025 197,104.718 197,104 197,104 192,105 192,105 190.218,105 185,111.482 185,113 186.366,113 189,115.366 189,117  Z"/>

<path  fill="#2FA850" stroke-width="0" stroke="#2FA850" d = " M267 117 L253,126 C253,122.814 256.474,104 260,104 261.465,104 264,105.115 264,104 266.185,104 271,111.198 271,113 271,113 267,117 267,117  Z"/>

<path  fill="#268E44" stroke-width="0" stroke="#268E44" d = " M182 118 C183.774,118 189,117.727 189,120 190.514,120 189,118.238 189,117 189,115.366 186.366,113 185,113 177.776,113 168.314,115.871 165,122.5 165,122.5 166,126 166,126 166,126 182,118 182,118  Z"/>

<path  fill="#268E44" stroke-width="0" stroke="#268E44" d = " M274 118 L290,126 C293.192,126 289.376,119.438 288.5,119 282.079,115.789 278.929,113 271,113 271,113 267,117 267,117 267,117 267,119 267,119 267,119 274,118 274,118  Z"/>

<path  fill="#22885E" stroke-width="0" stroke="#22885E" d = " M203 126 C203,130.486 205.861,138 199,138 199,138 189,120 189,120 190.514,120 189,118.238 189,117 193.669,117 197.682,125 203,125 203,125 203,126 203,126  Z"/>

<path  fill="#22885E" stroke-width="0" stroke="#22885E" d = " M257 138 L258,138 C258,131.377 267,125.894 267,119 267,119 267,117 267,117 267,117 253,126 253,126 253,126 253,127 253,127 253,131.396 251.256,138 257,138  Z"/>

<path  fill="#24895D" stroke-width="0" stroke="#24895D" d = " M179 136 C168.729,136 159.362,153 153,153 153,145.787 161,139.621 161,133 161,133 162,132 162,132 162,132 166,126 166,126 166,126 182,118 182,118 182,124.026 179,129.375 179,136  Z"/>

<path  fill="#238A5C" stroke-width="0" stroke="#238A5C" d = " M179 136 C185.282,136 191.588,138 199,138 199,138 189,120 189,120 189,117.727 183.774,118 182,118 182,124.026 179,129.375 179,136  Z"/>

<path  fill="#238A5C" stroke-width="0" stroke="#238A5C" d = " M277 135 C270.294,135 265.103,138 258,138 258,131.377 267,125.894 267,119 267,119 274,118 274,118 274,123.303 277,128.638 277,135  Z"/>

<path  fill="#24895D" stroke-width="0" stroke="#24895D" d = " M277 136 C288.121,136 298.027,153 304,153 304,147.385 295,137.402 295,133 295,133 290,126 290,126 290,126 274,118 274,118 274,123.303 277,128.638 277,135 277,135 277,136 277,136  Z"/>

<path  fill="#1E9C5A" stroke-width="0" stroke="#1E9C5A" d = " M125 121 L124,123 C124,123 125,121 125,121  Z"/>

<path  fill="#1E9C5A" stroke-width="0" stroke="#1E9C5A" d = " M332 122 L333,123 C333,123 332,122 332,122  Z"/>

<path  fill="#1E9C5A" stroke-width="0" stroke="#1E9C5A" d = " M120 155 L121,155 C121,153.992 126.147,151 127,151 127,148.939 125,146.788 125,146.5 125,138.969 124,131.07 124,123 122.41,123 122.557,127.386 122,128.5 117.695,137.111 120,145.582 120,155  Z"/>

<path  fill="#1E9C5A" stroke-width="0" stroke="#1E9C5A" d = " M329 151 L336,154 C336,149.436 339.428,139.356 337,134.5 337,134.5 333,124 333,124 331.32,124 333.052,132.397 332,134.5 331.788,134.924 329,149.366 329,151  Z"/>

<path  fill="#23885E" stroke-width="0" stroke="#23885E" d = " M213 169 L214,169 C214,169 219,162.5 219,162.5 219,162.5 220,139 220,139 219.092,139 214,130.938 214,130 209.807,130 206.546,126 203,126 203,130.486 205.861,138 199,138 199,144.887 213,159.968 213,169  Z"/>

<path  fill="#23885E" stroke-width="0" stroke="#23885E" d = " M237 139 C237,145.238 234.925,168 243,168 243,168 257,138 257,138 251.256,138 253,131.396 253,127 249.177,127 246.686,130 243,130 243,131.662 238.225,137 237,137 237,137 237,139 237,139  Z"/>

<path  fill="#59B262" stroke-width="0" stroke="#59B262" d = " M219 131 L220,139 C219.092,139 214,130.938 214,130 214,130 219,131 219,131  Z"/>

<path  fill="#59B262" stroke-width="0" stroke="#59B262" d = " M237 131 L237,137 C238.225,137 243,131.662 243,130 243,130 237,131 237,131  Z"/>

<path  fill="#59B362" stroke-width="0" stroke="#59B362" d = " M220 139 L224,140 C224,137.277 223,134.222 223,131 223,131 219,131 219,131 219,131 220,139 220,139  Z"/>

<path  fill="#59B263" stroke-width="0" stroke="#59B263" d = " M233 140 C230.611,140 227.013,141 224,141 224,141 224,140 224,140 224,137.277 223,134.222 223,131 223,131 233,131 233,131 233,131 233,140 233,140  Z"/>

<path  fill="#59B362" stroke-width="0" stroke="#59B362" d = " M237 139 L233,140 C233,140 233,131 233,131 233,131 237,131 237,131 237,131 237,137 237,137 237,137 237,139 237,139  Z"/>

<path  fill="#209666" stroke-width="0" stroke="#209666" d = " M152 153 L153,153 C153,145.787 161,139.621 161,133 161,133 156.5,132 156.5,132 153.292,133.604 150.119,135.69 147.5,137 147.5,137 144,140 144,140 144,145.212 145.306,153 152,153  Z"/>

<path  fill="#209666" stroke-width="0" stroke="#209666" d = " M162 132 L161,133 C161,133 162,132 162,132  Z"/>

<path  fill="#209666" stroke-width="0" stroke="#209666" d = " M304 153 L305,153 C310.391,153 313,145.354 313,141 313,141 313,140 313,140 309.905,140 303.453,133.476 300.5,132 298.544,131.022 296.423,133 295,133 295,137.402 304,147.385 304,153  Z"/>

<path  fill="#23885C" stroke-width="0" stroke="#23885C" d = " M185 153 C195.049,153 202.939,169 213,169 213,159.968 199,144.887 199,138 191.588,138 185.282,136 179,136 179,142.277 184,147.39 184,153 184,153 185,153 185,153  Z"/>

<path  fill="#23885C" stroke-width="0" stroke="#23885C" d = " M243 168 L243,169 C252.169,169 262.082,153 271,153 271,153 272,153 272,153 272,148.114 277,143.364 277,136 277,136 277,135 277,135 270.294,135 265.103,138 258,138 258,138 257,138 257,138 257,138 243,168 243,168  Z"/>

<path  fill="#228A5D" stroke-width="0" stroke="#228A5D" d = " M149 159 C149,166.031 144,171.516 144,179 144,179 153.5,172 153.5,172 161.677,167.911 174.336,153 184,153 184,147.39 179,142.277 179,136 168.729,136 159.362,153 153,153 153,153 152,153 152,153 152,153 151,156 151,156 151,156 150,157 150,157 150,157 149,159 149,159  Z"/>

<path  fill="#228A5D" stroke-width="0" stroke="#228A5D" d = " M306 157 C306,164.353 312,170.532 312,179 312,179 304.5,173 304.5,173 295.354,168.427 282.091,153 272,153 272,148.114 277,143.364 277,136 288.121,136 298.027,153 304,153 304,153 305,153 305,153 305,153 305,155 305,155 305,155 306,156 306,156 306,156 306,157 306,157  Z"/>

<path  fill="#24885D" stroke-width="0" stroke="#24885D" d = " M214 169 C214,172.647 217,175.586 217,179 219.825,179 221.155,173.19 222,171.5 226.637,162.225 224,151.266 224,141 224,141 224,140 224,140 224,140 220,139 220,139 220,139 219,162.5 219,162.5 219,162.5 214,169 214,169  Z"/>

<path  fill="#24885D" stroke-width="0" stroke="#24885D" d = " M243 169 C243,170.216 239.473,179 239,179 237.159,179 235.662,173.824 235,172.5 230.029,162.557 233,150.959 233,140 233,140 237,139 237,139 237,145.238 234.925,168 243,168 243,168 243,169 243,169  Z"/>

<path  fill="#209665" stroke-width="0" stroke="#209665" d = " M133 180 L134,180 C134,177.776 136.386,177.728 137,176.5 137,176.5 145.5,164 145.5,164 146.627,162.873 146.775,159 149,159 149,159 150,157 150,157 150,157 151,156 151,156 151,156 152,153 152,153 145.306,153 144,145.212 144,140 138.12,140 133.297,151 127,151 126.147,151 121,153.992 121,155 121,161.437 124.328,167.156 127,172.5 127,172.5 133,180 133,180  Z"/>

<path  fill="#23895D" stroke-width="0" stroke="#23895D" d = " M218 181 L225.5,181 L228.5,177 L230.5,181 L239,181 C239,181 239,180 239,180 239,180 239,179 239,179 237.159,179 235.662,173.824 235,172.5 230.029,162.557 233,150.959 233,140 230.611,140 227.013,141 224,141 224,151.266 226.637,162.225 222,171.5 221.155,173.19 219.825,179 217,179 217,179 217,180 217,180 217,180 218,181 218,181  Z"/>

<path  fill="#209665" stroke-width="0" stroke="#209665" d = " M306 157 C308.335,157 319.408,180 323,180 323,180 329,173.5 329,173.5 331.547,168.405 336,160.938 336,155 336,155 336,154 336,154 336,154 329,151 329,151 324.024,151 318.632,141 313,141 313,145.354 310.391,153 305,153 305,153 305,155 305,155 305,155 306,156 306,156 306,156 306,157 306,157  Z"/>

<path  fill="#238A5E" stroke-width="0" stroke="#238A5E" d = " M146 185 L147,185 C147,182.203 154.584,177.958 156.5,177 156.5,177 163.5,171 163.5,171 163.5,171 177.5,164 177.5,164 181.473,162.014 186.053,166 189,166 189,166 185,153 185,153 185,153 184,153 184,153 174.336,153 161.677,167.911 153.5,172 153.5,172 144,179 144,179 144,179 146,185 146,185  Z"/>

<path  fill="#248A5D" stroke-width="0" stroke="#248A5D" d = " M214 181 L217,181 C217,181 217,180 217,180 217,180 217,179 217,179 217,175.586 214,172.647 214,169 214,169 213,169 213,169 202.939,169 195.049,153 185,153 185,153 189,166 189,166 189,166 189,167 189,167 190.477,167 192,170.924 192,172 192,172 201.5,177 201.5,177 202.742,177.621 210,178.767 210,180 210,180 212,180 212,180 212,180 214,181 214,181  Z"/>

<path  fill="#248A5D" stroke-width="0" stroke="#248A5D" d = " M240 181 L242,181 C242,179.527 243.952,180 245,180 245,180 246,180 246,180 246,178.049 248.454,179.523 249.5,179 251.573,177.964 265,172.411 265,171 265,169.234 265.607,166 268,166 268,166 268,165 268,165 268,160.431 271,157.186 271,153 262.082,153 252.169,169 243,169 243,170.216 239.473,179 239,179 239,179 239,180 239,180 239,180 240,181 240,181  Z"/>

<path  fill="#238A5E" stroke-width="0" stroke="#238A5E" d = " M312 179 C312,180.041 311.014,184 310,184 305.323,184 299.681,175.091 295.5,173 280.933,165.716 284.705,165 268,165 268,160.431 271,157.186 271,153 271,153 272,153 272,153 282.091,153 295.354,168.427 304.5,173 304.5,173 312,179 312,179  Z"/>

<path  fill="#209765" stroke-width="0" stroke="#209765" d = " M133 180 C133,181.517 126.887,188 125,188 125,185.15 109,167.603 109,162 109,162 109,161 109,161 113.058,161 116.012,155 120,155 120,155 121,155 121,155 121,161.437 124.328,167.156 127,172.5 127,172.5 133,180 133,180  Z"/>

<path  fill="#1F9865" stroke-width="0" stroke="#1F9865" d = " M305 155 L306,156 C306,156 305,155 305,155  Z"/>

<path  fill="#209765" stroke-width="0" stroke="#209765" d = " M323 181 C324.306,181 331,187.272 331,188 333.346,188 347.953,162 348,162 348,162 348,161 348,161 348,161 336,155 336,155 336,160.938 331.547,168.405 329,173.5 329,173.5 323,180 323,180 323,180 323,181 323,181  Z"/>

<path  fill="#1F9865" stroke-width="0" stroke="#1F9865" d = " M151 156 L150,157 C150,157 151,156 151,156  Z"/>

<path  fill="#1F9865" stroke-width="0" stroke="#1F9865" d = " M150 157 L149,159 C149,159 150,157 150,157  Z"/>

<path  fill="#1F9865" stroke-width="0" stroke="#1F9865" d = " M323 180 L323,181 C319.036,181 315.027,179 312,179 312,170.532 306,164.353 306,157 308.335,157 319.408,180 323,180  Z"/>

<path  fill="#1F9865" stroke-width="0" stroke="#1F9865" d = " M144 179 C142.852,179 134,184.875 134,180 134,177.776 136.386,177.728 137,176.5 137,176.5 145.5,164 145.5,164 146.627,162.873 146.775,159 149,159 149,166.031 144,171.516 144,179  Z"/>

<path  fill="#209764" stroke-width="0" stroke="#209764" d = " M125 189 L120,191 C117.347,191 105,167.57 105,164 105,164 109,162 109,162 109,167.603 125,185.15 125,188 125,188 125,189 125,189  Z"/>

<path  fill="#209764" stroke-width="0" stroke="#209764" d = " M331 189 L337,191 C338.596,191 352,167.184 352,164 352,164 348,162 348,162 347.953,162 333.346,188 331,188 331,188 331,189 331,189  Z"/>

<path  fill="#238A5D" stroke-width="0" stroke="#238A5D" d = " M147 185 C147,186.747 147.253,187 149,187 153.553,187 156.988,179.256 161.5,177 170.975,172.263 177.317,169 189,169 189,169 189,167 189,167 189,167 189,166 189,166 186.053,166 181.473,162.014 177.5,164 177.5,164 163.5,171 163.5,171 163.5,171 156.5,177 156.5,177 154.584,177.958 147,182.203 147,185  Z"/>

<path  fill="#238A5D" stroke-width="0" stroke="#238A5D" d = " M310 185 L308,187 C302.788,187 299.356,179.428 294.5,177 285.239,172.369 279.421,169 268,169 268,169 268,166 268,166 268,166 268,165 268,165 284.705,165 280.933,165.716 295.5,173 299.681,175.091 305.323,184 310,184 310,184 310,185 310,185  Z"/>

<path  fill="#248A5B" stroke-width="0" stroke="#248A5B" d = " M268 169 C268,170.577 266.238,171 265,171 265,169.234 265.607,166 268,166 268,166 268,169 268,169  Z"/>

<path  fill="#248A5B" stroke-width="0" stroke="#248A5B" d = " M189 169 C189,170.539 190.342,172 192,172 192,170.924 190.477,167 189,167 189,167 189,169 189,169  Z"/>

<path  fill="#99D2BD" stroke-width="0" stroke="#99D2BD" d = " M137 217 C141.198,217 145.609,219 147,219 147,217.361 145,216.545 145,215.5 145,215.5 155.5,204 155.5,204 165.288,194.212 170.438,186.531 183.5,180 191.505,175.997 203.145,186 207,186 207,183.26 206.374,180 210,180 210,178.767 202.742,177.621 201.5,177 201.5,177 192,172 192,172 190.342,172 189,170.539 189,169 177.317,169 170.975,172.263 161.5,177 156.988,179.256 153.553,187 149,187 149,187 140,195 140,195 143.087,195 142,201.96 142,204 142,206.596 140.101,213.7 137.5,215 137.5,215 134,214 134,214 134,214 137,217 137,217  Z"/>

<path  fill="#99D2BD" stroke-width="0" stroke="#99D2BD" d = " M319 217 C319,213.98 310.01,219 309,219 309,216.894 312.119,216.738 311,214.5 311,214.5 294,196.5 294,196.5 294,196.5 288.5,189 288.5,189 282.999,186.25 277.907,182.704 272.5,180 264.382,175.941 256.164,185 250,185 250,181.868 249.564,180 246,180 246,178.049 248.454,179.523 249.5,179 251.573,177.964 265,172.411 265,171 266.238,171 268,170.577 268,169 279.421,169 285.239,172.369 294.5,177 299.356,179.428 302.788,187 308,187 308,187 317,195 317,195 311.337,195 314.407,215 321,215 321,215 319,217 319,217  Z"/>

<path  fill="#99D2BD" stroke-width="0" stroke="#99D2BD" d = " M227 211 C227.714,211 229,214.336 229,212 229,204.481 227.849,193.802 231,187.5 232.087,185.325 239,182.154 239,181 239,181 230.5,181 230.5,181 230.5,181 228.5,177 228.5,177 228.5,177 225.5,181 225.5,181 225.5,181 218,181 218,181 218,181 217,181 217,181 217,182.554 223.757,184.014 225,186.5 228.253,193.006 227,203.226 227,211  Z"/>

<path  fill="#219764" stroke-width="0" stroke="#219764" d = " M125 188 L125,189 C127.377,189 129.396,194.552 132.5,193 135.824,191.338 139.12,189.69 142.5,188 142.5,188 146,185 146,185 146,185 144,179 144,179 142.852,179 134,184.875 134,180 134,180 133,180 133,180 133,181.517 126.887,188 125,188  Z"/>

<path  fill="#219764" stroke-width="0" stroke="#219764" d = " M331 188 L331,189 C329.126,189 326.71,194.105 324.5,193 324.5,193 316.5,190 316.5,190 316.5,190 310,185 310,185 310,185 310,184 310,184 311.014,184 312,180.041 312,179 315.027,179 319.036,181 323,181 324.306,181 331,187.272 331,188  Z"/>

<path  fill-rule="evenodd" fill="#54BF94" stroke-width="0" stroke="#54BF94" d = " M266 194 C266,195.758 267.961,201.577 267,203.5 265.735,206.029 265,209.51 265,212.5 265,213.698 264.966,219 266.5,219 270.214,219 278.614,199.728 277,196.5 275.893,194.285 268.24,194 266,194  M187 194 C187,196.602 180,193.114 180,197 180,200.695 180.465,204.429 182,207.5 L184,212.5 C184.505,213.51 188.981,221.538 191,217.5 192.896,213.708 190,207.085 190,203.5 190,202.015 191.226,195.952 191,195.5 190.15,193.8 188.578,194 187,194  M191 255 C192.993,255 192.35,249.8 193,248.5 195.284,243.932 200.129,235.686 205.5,233 208.935,231.282 217.95,226.725 222.5,229 L228,232 C231.725,232 236.464,226.482 241.5,229 251.446,233.973 265,241.728 265,255 267.156,255 283,246.335 283,245 283,241.206 305.542,219 309,219 309,216.894 312.119,216.738 311,214.5 311,214.5 294,196.5 294,196.5 294,196.5 288.5,189 288.5,189 282.999,186.25 277.907,182.704 272.5,180 264.382,175.941 256.164,185 250,185 250,185 249,186 249,186 249,189.276 239.6,211.45 236.5,213 234.136,214.182 230.804,212 229,212 229,214.336 227.714,211 227,211 227,214.983 218.198,212.896 217,210.5 215.324,207.149 207,188.544 207,186 203.145,186 191.505,175.997 183.5,180 170.438,186.531 165.288,194.212 155.5,204 155.5,204 145,215.5 145,215.5 145,216.545 147,217.361 147,219 150.956,219 168.046,236.592 169,238.5 169.977,240.453 174,241.697 174,245 174,246.252 189.052,255 191,255  Z"/>

<path  fill="#61D09F" stroke-width="0" stroke="#61D09F" d = " M207 186 C207,188.544 215.324,207.149 217,210.5 218.198,212.896 227,214.983 227,211 227,203.226 228.253,193.006 225,186.5 223.757,184.014 217,182.554 217,181 217,181 214,181 214,181 214,181 212,180 212,180 212,180 210,180 210,180 206.374,180 207,183.26 207,186  Z"/>

<path  fill="#99D2BD" stroke-width="0" stroke="#99D2BD" d = " M212 180 L214,181 C214,181 212,180 212,180  Z"/>

<path  fill="#248A5B" stroke-width="0" stroke="#248A5B" d = " M217 181 L218,181 C218,181 217,180 217,180 217,180 217,181 217,181  Z"/>

<path  fill="#248A5B" stroke-width="0" stroke="#248A5B" d = " M239 181 L240,181 C240,181 239,180 239,180 239,180 239,181 239,181  Z"/>

<path  fill="#99D2BD" stroke-width="0" stroke="#99D2BD" d = " M245 180 C243.952,180 242,179.527 242,181 243.048,181 245,181.473 245,180  Z"/>

<path  fill="#61D09F" stroke-width="0" stroke="#61D09F" d = " M249 186 C249,189.276 239.6,211.45 236.5,213 234.136,214.182 230.804,212 229,212 229,204.481 227.849,193.802 231,187.5 232.087,185.325 239,182.154 239,181 239,181 240,181 240,181 240,181 242,181 242,181 243.048,181 245,181.473 245,180 245,180 246,180 246,180 249.564,180 250,181.868 250,185 250,185 249,186 249,186  Z"/>

<path  fill="#209864" stroke-width="0" stroke="#209864" d = " M132 199 L133,199 C133,199 134,198 134,198 134,198 140,195 140,195 140,195 149,187 149,187 147.253,187 147,186.747 147,185 147,185 146,185 146,185 146,185 142.5,188 142.5,188 139.12,189.69 135.824,191.338 132.5,193 129.396,194.552 127.377,189 125,189 125,189 120,191 120,191 120,196.573 127.586,199 132,199  Z"/>

<path  fill="#99D2BD" stroke-width="0" stroke="#99D2BD" d = " M250 185 L249,186 C249,186 250,185 250,185  Z"/>

<path  fill="#209864" stroke-width="0" stroke="#209864" d = " M323 198 L325,199 C329.283,199 337,196.134 337,191 337,191 331,189 331,189 329.126,189 326.71,194.105 324.5,193 324.5,193 316.5,190 316.5,190 316.5,190 310,185 310,185 310,185 308,187 308,187 308,187 317,195 317,195 317,195 321,197 321,197 321,197 322,198 322,198 322,198 323,198 323,198  Z"/>

<path  fill="#CBCBC7" stroke-width="0" stroke="#CBCBC7" d = " M187 194 C187,196.602 180,193.114 180,197 180,200.695 180.465,204.429 182,207.5 L184,212.5 C184.505,213.51 188.981,221.538 191,217.5 192.896,213.708 190,207.085 190,203.5 190,202.015 191.226,195.952 191,195.5 190.15,193.8 188.578,194 187,194  Z"/>

<path  fill="#CBCBC7" stroke-width="0" stroke="#CBCBC7" d = " M266 194 C266,195.758 267.961,201.577 267,203.5 265.735,206.029 265,209.51 265,212.5 265,213.698 264.966,219 266.5,219 270.214,219 278.614,199.728 277,196.5 275.893,194.285 268.24,194 266,194  Z"/>

<path  fill="#6ACAB9" stroke-width="0" stroke="#6ACAB9" d = " M132 199 L133,199 C133,199 134,198 134,198 134,198 140,195 140,195 143.087,195 142,201.96 142,204 142,206.596 140.101,213.7 137.5,215 137.5,215 134,214 134,214 134,214 131,210.5 131,210.5 129.384,207.268 132,201.824 132,199  Z"/>

<path  fill="#6ACAB9" stroke-width="0" stroke="#6ACAB9" d = " M325 200 C325,202.848 327.404,215 321,215 314.407,215 311.337,195 317,195 317,195 321,197 321,197 321,197 322,198 322,198 322,198 323,198 323,198 323,198 325,200 325,200  Z"/>

<path  fill="#99D2BD" stroke-width="0" stroke="#99D2BD" d = " M321 197 L322,198 C322,198 321,197 321,197  Z"/>

<path  fill="#99D2BD" stroke-width="0" stroke="#99D2BD" d = " M134 198 L133,199 C133,199 134,198 134,198  Z"/>

<path  fill="#99D2BD" stroke-width="0" stroke="#99D2BD" d = " M325 199 L325,200 C325,200 323,198 323,198 323,198 325,199 325,199  Z"/>

<path  fill="#CAC8C7" stroke-width="0" stroke="#CAC8C7" d = " M147 219 C150.956,219 168.046,236.592 169,238.5 169.977,240.453 174,241.697 174,245 163.314,245 155.797,231.149 147.5,227 142.963,224.732 137,223.103 137,217 141.198,217 145.609,219 147,219  Z"/>

<path  fill="#CAC8C7" stroke-width="0" stroke="#CAC8C7" d = " M309 219 C305.542,219 283,241.206 283,245 292.411,245 299.477,232.011 307.5,228 310.537,226.481 317.243,224.014 319,220.5 319,220.5 319,217 319,217 319,213.98 310.01,219 309,219  Z"/>

<path  fill="#62CF9E" stroke-width="0" stroke="#62CF9E" d = " M191 255 C192.993,255 192.35,249.8 193,248.5 195.284,243.932 200.129,235.686 205.5,233 208.935,231.282 217.95,226.725 222.5,229 L228,232 C231.725,232 236.464,226.482 241.5,229 251.446,233.973 265,241.728 265,255 265,257.703 250.121,263.31 247.5,262 247.5,262 241.5,259 241.5,259 237.641,257.07 232.37,247.24 230,242.5 230,242.5 228.5,236 228.5,236 226.911,236 226.454,241.593 226,242.5 223.721,247.058 219.773,256.363 214.5,259 214.5,259 208.5,262 208.5,262 206.071,263.215 191,256.28 191,255  Z"/>

</g>
</svg>
