<svg xmlns="http://www.w3.org/2000/svg" xmlns:xlink="http://www.w3.org/1999/xlink"  viewBox="0 0 456 320">
<g>
<rect width="456" height="320" fill="#000000"  stroke-width="0" /> 
<path  fill="#1E9C59" stroke-width="0" stroke="#1E9C59" d = " M132 78 C132,80.1236 133,82.4363 133,84 133,84 145.5,76 145.5,76 156.388,70.5562 168.695,68.4024 179.5,63 184.433,60.5337 201.698,60.5992 206.5,63 206.5,63 217,72 217,72 217,72 221,71 221,71 221,65.0327 213.53,61.0152 209.5,59 191.26,49.8802 168.498,58.5012 151.5,67 149.133,68.1835 132,76.6219 132,78  Z"/>

<path  fill="#1E9C59" stroke-width="0" stroke="#1E9C59" d = " M325 79 C323.458,79 324.488,84 323,84 323,84 305.5,73 305.5,73 297.679,69.0893 265.753,57.8737 257.5,62 257.5,62 249.5,63 249.5,63 247.067,64.2166 240,70.6918 240,73 240,73 239,73 239,73 239,70.891 236.465,71 235,71 235,64.2715 246.034,59.2332 250.5,57 267.133,48.6837 294.681,62.0903 308.5,69 310.826,70.1629 325,76.3818 325,79  Z"/>

<path  fill="#1E9D58" stroke-width="0" stroke="#1E9D58" d = " M133 85 C133,90.9983 135,95.447 135,101 139.643,101 147.555,91.4727 152.5,89 161.556,84.472 170.43,79.5351 179.5,75 182.497,73.5016 186.431,73.5343 189.5,72 194.223,69.6387 211,73.5867 211,78 211,78 217,73 217,73 217,73 217,72 217,72 217,72 206.5,63 206.5,63 201.698,60.5992 184.433,60.5337 179.5,63 168.695,68.4024 156.388,70.5562 145.5,76 145.5,76 133,84 133,84 133,84 133,85 133,85  Z"/>

<path  fill="#1E9D58" stroke-width="0" stroke="#1E9D58" d = " M324 85 C324,90.4737 322,97.0822 322,102 322,102 310.5,93 310.5,93 300.641,88.0705 291.369,81.9345 281.5,77 274.597,73.5484 259.735,68.8823 251.5,73 251.5,73 245,78 245,78 245,78 240,73 240,73 240,70.6918 247.067,64.2166 249.5,63 249.5,63 257.5,62 257.5,62 265.753,57.8737 297.679,69.0893 305.5,73 305.5,73 323,84 323,84 323,84 324,85 324,85  Z"/>

<path  fill="#3EA665" stroke-width="0" stroke="#3EA665" d = " M222 94 C225.459,94 230.607,94 234,94 234,94 235,80.5 235,80.5 235,80.5 239,73 239,73 239,70.891 236.465,71 235,71 235,71 231,76.5 231,76.5 229.962,78.5763 230.821,83 228.5,83 228.5,83 227,78.5 227,78.5 227,78.5 221,71 221,71 221,71 217,72 217,72 217,72 217,73 217,73 217,73 221,79.5 221,79.5 222.858,83.2167 222,89.5692 222,94  Z"/>

<path  fill="#1F9D58" stroke-width="0" stroke="#1F9D58" d = " M133 149 L135,149 C135,149 135,148 135,148 135,138.61 136.17,132.161 140,124.5 146.942,110.616 174.635,102.932 186.5,97 188.864,95.8178 192.196,98 194,98 194.977,98 206.972,79 211,79 211,79 211,78 211,78 211,73.5867 194.223,69.6387 189.5,72 186.431,73.5343 182.497,73.5016 179.5,75 170.43,79.5351 161.556,84.472 152.5,89 147.555,91.4727 139.643,101 135,101 135,101 135,102 135,102 135,117.259 133,133.703 133,149  Z"/>

<path  fill="#1F9D58" stroke-width="0" stroke="#1F9D58" d = " M321 149 L323,149 C323,131.871 322,119.188 322,102 322,102 310.5,93 310.5,93 300.641,88.0705 291.369,81.9345 281.5,77 274.597,73.5484 259.735,68.8823 251.5,73 251.5,73 245,78 245,78 245,78 245,79 245,79 246.282,79 262,94.7123 262,98 262,98 263,98 263,98 263,96.7354 269.292,96.3958 270.5,97 276.411,99.9554 282.516,102.008 288.5,105 310.124,115.812 321,122.323 321,148 321,148 321,149 321,149  Z"/>

<path  fill="#40A565" stroke-width="0" stroke="#40A565" d = " M222 94 L216,95 C216,91.1016 215.661,79 211,79 211,79 211,78 211,78 211,78 217,73 217,73 217,73 221,79.5 221,79.5 222.858,83.2167 222,89.5692 222,94  Z"/>

<path  fill="#40A565" stroke-width="0" stroke="#40A565" d = " M234 94 L240,95 C240,92.2793 241.311,79 245,79 245,79 245,78 245,78 245,78 240,73 240,73 240,73 239,73 239,73 239,73 235,80.5 235,80.5 235,80.5 234,94 234,94  Z"/>

<path  fill="#1E9D5A" stroke-width="0" stroke="#1E9D5A" d = " M100 168 L96,170 C96,170 93,161.5 93,161.5 90.9541,157.408 89.8322,133.836 92,129.5 95.8159,121.868 100.127,114.245 104,106.5 104,106.5 113,95.5 113,95.5 114.67,92.1598 128.722,78 132,78 132,80.1236 133,82.4363 133,84 133,84 133,85 133,85 128.364,85 118.693,95.1142 117,98.5 117,98.5 109,107.5 109,107.5 105.26,114.979 100.716,122.068 97,129.5 91.1482,141.204 100,156.926 100,168  Z"/>

<path  fill="#3EA566" stroke-width="0" stroke="#3EA566" d = " M194 99 C196.364,99 197.053,102 199,102 204.844,102 209.752,95 216,95 216,91.1016 215.661,79 211,79 206.972,79 194.977,98 194,98 194,98 194,99 194,99  Z"/>

<path  fill="#3EA566" stroke-width="0" stroke="#3EA566" d = " M257 103 L258,103 C258,99.8354 262,100.492 262,98 262,94.7123 246.282,79 245,79 241.311,79 240,92.2793 240,95 242.83,95 257,99.6078 257,103  Z"/>

<path  fill="#1E9D5A" stroke-width="0" stroke="#1E9D5A" d = " M356 168 L361,170 C361,162.585 369.211,139.922 365,131.5 362.08,125.66 359.941,119.382 357,113.5 357,113.5 346,98.5 346,98.5 344.085,94.6703 329.024,79 325,79 323.458,79 324.488,84 323,84 323,84 324,85 324,85 326.642,85 339.482,97.4643 341,100.5 341,100.5 355,119.5 355,119.5 357.957,125.414 358.088,132.675 361,138.5 363.441,143.381 356,162.8 356,168  Z"/>

<path  fill="#1F9C58" stroke-width="0" stroke="#1F9C58" d = " M100 168 L101,168 C105.151,168 107.436,163 112,163 112,163 112,162 112,162 112,146.318 109.923,136.654 117,122.5 117,122.5 123,114.5 123,114.5 123,114.5 135,102 135,102 135,102 135,101 135,101 135,95.447 133,90.9983 133,85 128.364,85 118.693,95.1142 117,98.5 117,98.5 109,107.5 109,107.5 105.26,114.979 100.716,122.068 97,129.5 91.1482,141.204 100,156.926 100,168  Z"/>

<path  fill="#1F9C58" stroke-width="0" stroke="#1F9C58" d = " M344 162 L356,168 C356,162.8 363.441,143.381 361,138.5 358.088,132.675 357.957,125.414 355,119.5 355,119.5 341,100.5 341,100.5 339.482,97.4643 326.642,85 324,85 324,90.4737 322,97.0822 322,102 322,102 329.5,110 329.5,110 337.898,118.398 340.223,126.945 345,136.5 346.003,138.505 344.944,141.388 346,143.5 346,143.5 345,157 345,157 345,158.145 345.579,161 344,161 344,161 344,162 344,162  Z"/>

<path  fill="#2FA750" stroke-width="0" stroke="#2FA750" d = " M223 132 L233,132 C233,120.142 234,106.543 234,94 230.607,94 225.459,94 222,94 222,106.908 223,119.583 223,132  Z"/>

<path  fill="#2FA74F" stroke-width="0" stroke="#2FA74F" d = " M219 132 L223,132 C223,119.583 222,106.908 222,94 222,94 216,95 216,95 216,99.0763 215.599,123.697 217,126.5 217,126.5 219,132 219,132  Z"/>

<path  fill="#2FA74F" stroke-width="0" stroke="#2FA74F" d = " M233 132 L238,132 C238,119.935 240,107.635 240,95 240,95 234,94 234,94 234,106.543 233,120.142 233,132  Z"/>

<path  fill="#2EA84F" stroke-width="0" stroke="#2EA84F" d = " M204 131 C208.958,131 213.314,132 219,132 219,132 217,126.5 217,126.5 215.599,123.697 216,99.0763 216,95 209.752,95 204.844,102 199,102 199,102 199,103 199,103 199,111.088 204,122.349 204,131  Z"/>

<path  fill="#2EA84F" stroke-width="0" stroke="#2EA84F" d = " M252 131 L253,131 C253,121.338 257,112.191 257,103 257,99.6078 242.83,95 240,95 240,107.635 238,119.935 238,132 238,132 252,131 252,131  Z"/>

<path  fill="#1D9C5A" stroke-width="0" stroke="#1D9C5A" d = " M165 133 C152.452,133 141.788,148 135,148 135,138.61 136.17,132.161 140,124.5 146.942,110.616 174.635,102.932 186.5,97 188.864,95.8178 192.196,98 194,98 194,98 194,99 194,99 191.667,99 187,109.69 187,112 184.575,112 182,117.116 182,119 176.787,119 169,121.637 169,128 169,129.247 166.533,133 165,133  Z"/>

<path  fill="#1D9C5A" stroke-width="0" stroke="#1D9C5A" d = " M291 133 C303.976,133 314.256,148 321,148 321,122.323 310.124,115.812 288.5,105 282.516,102.008 276.411,99.9554 270.5,97 269.292,96.3958 263,96.7354 263,98 263,98 270,112 270,112 271.097,112 275,117.986 275,119 279.445,119 281.884,121.192 285.5,123 286.581,123.541 289.297,128 287,128 287,128 291,133 291,133  Z"/>

<path  fill="#3FA664" stroke-width="0" stroke="#3FA664" d = " M258 103 C262.62,103 265.051,112 270,112 270,112 263,98 263,98 263,98 262,98 262,98 262,100.492 258,99.8354 258,103  Z"/>

<path  fill="#3FA664" stroke-width="0" stroke="#3FA664" d = " M199 103 C194.907,103 191.745,112 187,112 187,109.69 191.667,99 194,99 196.364,99 197.053,102 199,102 199,102 199,103 199,103  Z"/>

<path  fill="#1E9C5A" stroke-width="0" stroke="#1E9C5A" d = " M133 149 L128.5,152 C126.17,153.165 113.224,162 112,162 112,146.318 109.923,136.654 117,122.5 117,122.5 123,114.5 123,114.5 123,114.5 135,102 135,102 135,117.259 133,133.703 133,149  Z"/>

<path  fill="#1E9C5A" stroke-width="0" stroke="#1E9C5A" d = " M323 149 L344,161 C345.579,161 345,158.145 345,157 345,157 346,143.5 346,143.5 344.944,141.388 346.003,138.505 345,136.5 340.223,126.945 337.898,118.398 329.5,110 329.5,110 322,102 322,102 322,119.188 323,131.871 323,149  Z"/>

<path  fill="#2FA850" stroke-width="0" stroke="#2FA850" d = " M198 131 L204,131 C204,122.349 199,111.088 199,103 194.907,103 191.745,112 187,112 184.575,112 182,117.116 182,119 182,119 184,121 184,121 184,121 185,122 185,122 185,122 185,123 185,123 189.781,123 193.582,131 198,131  Z"/>

<path  fill="#2FA850" stroke-width="0" stroke="#2FA850" d = " M253 131 L258,131 C263.364,131 267.612,122 272,122 272,120.342 273.461,119 275,119 275,117.986 271.097,112 270,112 265.051,112 262.62,103 258,103 258,103 257,103 257,103 257,112.191 253,121.338 253,131  Z"/>

<path  fill="#268E44" stroke-width="0" stroke="#268E44" d = " M184 123 L185,123 C185,123 185,122 185,122 185,122 184,121 184,121 184,121 182,119 182,119 176.787,119 169,121.637 169,128 169,128 180,123 180,123 180,123 184,123 184,123  Z"/>

<path  fill="#268E44" stroke-width="0" stroke="#268E44" d = " M277 123 L287,128 C289.297,128 286.581,123.541 285.5,123 281.884,121.192 279.445,119 275,119 273.461,119 272,120.342 272,122 272,122 272,123 272,123 272,123 277,123 277,123  Z"/>

<path  fill="#22885E" stroke-width="0" stroke="#22885E" d = " M184 121 L185,122 C185,122 184,121 184,121  Z"/>

<path  fill="#22885E" stroke-width="0" stroke="#22885E" d = " M256 156 L255,157 C250.331,157 249,155.9 249,151 249,151 249,149 249,149 249,149 250,148 250,148 250,148 250,146 250,146 250,146 251.5,143 251.5,143 253.995,140.505 258,134.422 258,131 263.364,131 267.612,122 272,122 272,122 272,123 272,123 272,132.968 256,145.089 256,156  Z"/>

<path  fill="#24895D" stroke-width="0" stroke="#24895D" d = " M151 155 L149,159 C159.855,159 167.142,145 181,145 181,145 178,136.5 178,136.5 178,133.166 180,127.29 180,123 180,123 169,128 169,128 169,129.247 166.533,133 165,133 165,133 153,152 153,152 153,152 152,153 152,153 152,153 151,155 151,155  Z"/>

<path  fill="#238A5C" stroke-width="0" stroke="#238A5C" d = " M182 146 C189.113,146 194.212,156 201,156 201,147.907 184,130.385 184,123 184,123 180,123 180,123 180,127.29 178,133.166 178,136.5 178,136.5 181,145 181,145 181,145 182,146 182,146  Z"/>

<path  fill="#22885E" stroke-width="0" stroke="#22885E" d = " M201 156 L201,157 C207.343,157 207,154.747 207,149 207,149 207,147 207,147 207,147 205,143.5 205,143.5 203.198,139.895 198,135.118 198,131 193.582,131 189.781,123 185,123 185,123 184,123 184,123 184,130.385 201,147.907 201,156  Z"/>

<path  fill="#238A5C" stroke-width="0" stroke="#238A5C" d = " M274 146 C267.603,146 262.001,156 256,156 256,145.089 272,132.968 272,123 272,123 277,123 277,123 277,123 278,137.5 278,137.5 278,137.5 275,145 275,145 275,145 274,146 274,146  Z"/>

<path  fill="#24895D" stroke-width="0" stroke="#24895D" d = " M303 152 C303,154.46 307,156.17 307,159 296.427,159 288.87,145 275,145 275,145 278,137.5 278,137.5 278,137.5 277,123 277,123 277,123 287,128 287,128 287,128 291,133 291,133 291,136.852 303,147.043 303,152  Z"/>

<path  fill="#58B362" stroke-width="0" stroke="#58B362" d = " M204 131 L207,147 C207,147 205,143.5 205,143.5 203.198,139.895 198,135.118 198,131 198,131 204,131 204,131  Z"/>

<path  fill="#59B262" stroke-width="0" stroke="#59B262" d = " M207 149 C208.845,149 208.441,152.381 209,153.5 210.744,156.987 217.195,167 219,167 219,155.488 219,143.805 219,132 213.314,132 208.958,131 204,131 204,131 207,147 207,147 207,147 207,149 207,149  Z"/>

<path  fill="#59B262" stroke-width="0" stroke="#59B262" d = " M249 151 C247.058,151 239.657,167 238,167 236.265,167 237,160.49 237,159 237,150.068 238,140.268 238,132 238,132 252,131 252,131 252,131 250,146 250,146 250,146 250,148 250,148 250,148 249,149 249,149 249,149 249,151 249,151  Z"/>

<path  fill="#58B362" stroke-width="0" stroke="#58B362" d = " M258 131 C258,134.422 253.995,140.505 251.5,143 L250,146 C250,146 252,131 252,131 252,131 253,131 253,131 253,131 258,131 258,131  Z"/>

<path  fill="#59B362" stroke-width="0" stroke="#59B362" d = " M219 168 L223,169 C225.261,169 223.297,162.906 224,161.5 228.112,153.277 223,141.07 223,132 223,132 219,132 219,132 219,143.805 219,155.488 219,167 219,167 219,168 219,168  Z"/>

<path  fill="#59B263" stroke-width="0" stroke="#59B263" d = " M223 170 L233,170 C233,157.654 233,144.689 233,132 233,132 223,132 223,132 223,141.07 228.112,153.277 224,161.5 223.297,162.906 225.261,169 223,169 223,169 223,170 223,170  Z"/>

<path  fill="#59B362" stroke-width="0" stroke="#59B362" d = " M238 168 L233,170 C233,157.654 233,144.689 233,132 233,132 238,132 238,132 238,140.268 237,150.068 237,159 237,160.49 236.265,167 238,167 238,167 238,168 238,168  Z"/>

<path  fill="#209666" stroke-width="0" stroke="#209666" d = " M147 159 L148,159 C148,157.571 149.288,155 151,155 151,155 152,153 152,153 152,153 153,152 153,152 153,152 165,133 165,133 152.452,133 141.788,148 135,148 135,148 135,149 135,149 135,155.949 140.684,159 147,159  Z"/>

<path  fill="#209666" stroke-width="0" stroke="#209666" d = " M303 152 C304.59,152 309,157.662 309,159 315.725,159 321,156.394 321,149 321,149 321,148 321,148 314.256,148 303.976,133 291,133 291,136.852 303,147.043 303,152  Z"/>

<path  fill="#228A5D" stroke-width="0" stroke="#228A5D" d = " M190 166 C185.922,166 183.526,159.487 176.5,163 171.793,165.354 149.451,181 147,181 145.817,181 145.465,177.43 145,176.5 141.282,169.065 149,165.475 149,159 159.855,159 167.142,145 181,145 181,145 182,146 182,146 182,149.611 190,160.192 190,166  Z"/>

<path  fill="#228A5D" stroke-width="0" stroke="#228A5D" d = " M309 182 L310,182 C310,178.599 315.023,175.546 313,171.5 311.608,168.716 307,161.906 307,159 296.427,159 288.87,145 275,145 275,145 274,146 274,146 274,151.921 267,157.741 267,165 269.455,165 272.873,160.686 275.5,162 279.612,164.056 284.387,164.944 288.5,167 288.5,167 299.5,175 299.5,175 299.5,175 309,182 309,182  Z"/>

<path  fill="#23885C" stroke-width="0" stroke="#23885C" d = " M201 175 L202,175 C202,171.964 204.718,165.936 203,162.5 203,162.5 201,157 201,157 201,157 201,156 201,156 194.212,156 189.113,146 182,146 182,149.611 190,160.192 190,166 190,166 201,175 201,175  Z"/>

<path  fill="#23885C" stroke-width="0" stroke="#23885C" d = " M266 167 L255,175 C255,175 253,170.5 253,170.5 253,166.745 255,161.519 255,157 255,157 256,156 256,156 262.001,156 267.603,146 274,146 274,151.921 267,157.741 267,165 267,165 266,166 266,166 266,166 266,167 266,167  Z"/>

<path  fill="#23885E" stroke-width="0" stroke="#23885E" d = " M250 148 L249,149 C249,149 250,148 250,148  Z"/>

<path  fill="#209665" stroke-width="0" stroke="#209665" d = " M122 188 L123,188 C123,188 129,182.5 129,182.5 131.69,177.12 147,163.947 147,159 140.684,159 135,155.949 135,149 135,149 133,149 133,149 133,149 128.5,152 128.5,152 126.17,153.165 113.224,162 112,162 112,162 112,163 112,163 113.169,163 114.295,173.09 115,174.5 116.637,177.774 117.38,181.261 119,184.5 119.614,185.728 122,185.776 122,188  Z"/>

<path  fill="#23885E" stroke-width="0" stroke="#23885E" d = " M219 168 C219,171.678 202,181.463 202,175 202,171.964 204.718,165.936 203,162.5 203,162.5 201,157 201,157 207.343,157 207,154.747 207,149 208.845,149 208.441,152.381 209,153.5 210.744,156.987 217.195,167 219,167 219,167 219,168 219,168  Z"/>

<path  fill="#209665" stroke-width="0" stroke="#209665" d = " M333 188 L334,188 C334,188 339,181.5 339,181.5 341.364,176.772 344,167.449 344,162 344,162 344,161 344,161 344,161 323,149 323,149 323,149 321,149 321,149 321,156.394 315.725,159 309,159 309,161.386 323.389,177.889 326,180.5 326,180.5 333,188 333,188  Z"/>

<path  fill="#23885E" stroke-width="0" stroke="#23885E" d = " M255 175 L253,177 C248.488,177 238,173.736 238,168 238,168 238,167 238,167 239.657,167 247.058,151 249,151 249,155.9 250.331,157 255,157 255,161.519 253,166.745 253,170.5 253,170.5 255,175 255,175  Z"/>

<path  fill="#1F9866" stroke-width="0" stroke="#1F9866" d = " M153 152 L152,153 C152,153 153,152 153,152  Z"/>

<path  fill="#1F9866" stroke-width="0" stroke="#1F9866" d = " M307 159 L309,159 C309,157.662 304.59,152 303,152 303,154.46 307,156.17 307,159  Z"/>

<path  fill="#1F9866" stroke-width="0" stroke="#1F9866" d = " M152 153 L151,155 C151,155 152,153 152,153  Z"/>

<path  fill="#1F9866" stroke-width="0" stroke="#1F9866" d = " M148 159 L149,159 C149,159 151,155 151,155 149.288,155 148,157.571 148,159  Z"/>

<path  fill="#1F9865" stroke-width="0" stroke="#1F9865" d = " M147 182 C141.124,182 136.095,194.298 127.5,190 126.381,189.441 123,189.845 123,188 123,188 129,182.5 129,182.5 131.69,177.12 147,163.947 147,159 147,159 148,159 148,159 148,159 149,159 149,159 149,165.475 141.282,169.065 145,176.5 145.465,177.43 145.817,181 147,181 147,181 147,182 147,182  Z"/>

<path  fill="#1F9865" stroke-width="0" stroke="#1F9865" d = " M310 182 C310,183.4 323.617,191 326,191 327.647,191 333,189.732 333,188 333,188 326,180.5 326,180.5 323.389,177.889 309,161.386 309,159 309,159 307,159 307,159 307,161.906 311.608,168.716 313,171.5 315.023,175.546 310,178.599 310,182  Z"/>

<path  fill="#238A5E" stroke-width="0" stroke="#238A5E" d = " M149 186 L150,186 C150,186 152,185 152,185 152,185 165.5,178 165.5,178 170.367,175.567 176.11,178 181,178 181,178 187,179 187,179 187,174.057 190,171.277 190,166 185.922,166 183.526,159.487 176.5,163 171.793,165.354 149.451,181 147,181 147,181 147,182 147,182 147,182 149,186 149,186  Z"/>

<path  fill="#238A5E" stroke-width="0" stroke="#238A5E" d = " M305 185 L307,185 C307,183.519 309,184.215 309,182 309,182 299.5,175 299.5,175 299.5,175 288.5,167 288.5,167 284.387,164.944 279.612,164.056 275.5,162 272.873,160.686 269.455,165 267,165 267,165 266,166 266,166 266,166 266,167 266,167 266,171.304 269,174.464 269,179 269,179 276,178 276,178 279.036,178 285.064,175.282 288.5,177 288.5,177 305,185 305,185  Z"/>

<path  fill="#209765" stroke-width="0" stroke="#209765" d = " M344 195 L345,195 C345,187.569 356,176.282 356,168 356,168 344,162 344,162 344,167.449 341.364,176.772 339,181.5 339,181.5 334,188 334,188 334,189.489 342.253,195 344,195  Z"/>

<path  fill="#209765" stroke-width="0" stroke="#209765" d = " M111 195 L112,195 C113.79,195 122,190.171 122,188 122,185.776 119.614,185.728 119,184.5 117.38,181.261 116.637,177.774 115,174.5 114.295,173.09 113.169,163 112,163 107.436,163 105.151,168 101,168 101,177.681 111,185.806 111,195  Z"/>

<path  fill="#228A5D" stroke-width="0" stroke="#228A5D" d = " M267 165 L266,166 C266,166 267,165 267,165  Z"/>

<path  fill="#248A5D" stroke-width="0" stroke="#248A5D" d = " M199 181 L204,181 C204,177.469 201,177.714 201,175 201,175 190,166 190,166 190,171.277 187,174.057 187,179 188.496,179 199,179.988 199,181  Z"/>

<path  fill="#248A5D" stroke-width="0" stroke="#248A5D" d = " M258 180 L253,181 C253,181 253,177 253,177 254.747,177 255,176.747 255,175 255,175 266,167 266,167 266,171.304 269,174.464 269,179 269,179 258,180 258,180  Z"/>

<path  fill="#209764" stroke-width="0" stroke="#209764" d = " M111 195 L108,197 C108,197 105,191.5 105,191.5 102.049,185.598 96,176.793 96,170 96,170 100,168 100,168 100,168 101,168 101,168 101,177.681 111,185.806 111,195  Z"/>

<path  fill="#24885D" stroke-width="0" stroke="#24885D" d = " M204 181 L219,181 C219,176.642 223,174.51 223,170 223,170 223,169 223,169 223,169 219,168 219,168 219,171.678 202,181.463 202,175 202,175 201,175 201,175 201,177.714 204,177.469 204,181  Z"/>

<path  fill="#24885D" stroke-width="0" stroke="#24885D" d = " M238 181 L253,181 C253,181 253,177 253,177 248.488,177 238,173.736 238,168 238,168 233,170 233,170 233,170 238,181 238,181  Z"/>

<path  fill="#209764" stroke-width="0" stroke="#209764" d = " M345 195 L349,197 C349,193.533 361,174.915 361,170 361,170 356,168 356,168 356,176.282 345,187.569 345,195  Z"/>

<path  fill="#23895D" stroke-width="0" stroke="#23895D" d = " M229 180 C231.723,180 234.778,181 238,181 238,181 233,170 233,170 233,170 223,170 223,170 223,174.51 219,176.642 219,181 219,181 227,180 227,180 227,178.765 226.357,175 228,175 228,171.823 229,173.921 229,176 229,176 229,180 229,180  Z"/>

<path  fill="#99D2BD" stroke-width="0" stroke="#99D2BD" d = " M227 180 C227,181.399 229,181.399 229,180 229,180 229,176 229,176 229,176 228,175 228,175 226.357,175 227,178.765 227,180  Z"/>

<path  fill="#24885D" stroke-width="0" stroke="#24885D" d = " M255 175 L253,177 C254.747,177 255,176.747 255,175  Z"/>

<path  fill="#6ACAB9" stroke-width="0" stroke="#6ACAB9" d = " M163 243 L165,243 C165,243 168,240 168,240 168,240 169,239 169,239 169,236.022 170,232.51 170,229 170,219.52 159,210.832 159,205.5 159,193.325 181,190.589 181,178 176.11,178 170.367,175.567 165.5,178 165.5,178 152,185 152,185 152,185 150,187 150,187 150,187 149,187 149,187 149,187 147,188 147,188 147,190.115 141.004,193.248 139.5,194 132.373,197.563 126.42,208 118,208 118,217.478 119.102,222.301 128.5,227 129.945,227.723 128.591,229 131,229 131,226.746 138.491,228.496 139.5,229 144.994,231.747 157.68,243 163,243  Z"/>

<path  fill="#6ACAB9" stroke-width="0" stroke="#6ACAB9" d = " M291 243 L293,243 C297.628,243 315.068,230.716 320.5,228 322.456,227.022 324.577,229 326,229 326,229 328.5,227 328.5,227 338.434,222.033 338,216.395 338,208 329.295,208 312.397,187 307,187 307,187 305,185 305,185 305,185 288.5,177 288.5,177 285.064,175.282 279.036,178 276,178 276,189.2 292.903,195.306 297,203.5 298.378,206.256 288.609,220.281 287,223.5 287,223.5 287,231 287,231 287,231 287,238.5 287,238.5 287,238.5 291,243 291,243  Z"/>

<path  fill-rule="evenodd" fill="#99D2BD" stroke-width="0" stroke="#99D2BD" d = " M166 201 L164,206.5 C164.927,208.355 167.403,218 170.5,218 172.124,218 178.728,201 166,201  M183 219 C180.007,219 170.101,229 170,229 170,219.52 159,210.832 159,205.5 159,193.325 181,190.589 181,178 181,178 187,179 187,179 188.496,179 199,179.988 199,181 199,183.409 200,186.181 200,188 192.343,188 187.531,199 187,199 187,194.126 178.99,202.519 178,204.5 174.912,210.676 183,216.084 183,219  Z"/>

<path  fill-rule="evenodd" fill="#99D2BD" stroke-width="0" stroke="#99D2BD" d = " M284 201 C284,202.934 280.308,218 285.5,218 287.911,218 299.302,201 284,201  M274 219 L285,226.5 C285.465,227.43 285.817,231 287,231 287,231 287,223.5 287,223.5 288.609,220.281 298.378,206.256 297,203.5 292.903,195.306 276,189.2 276,178 276,178 269,179 269,179 269,179 258,180 258,180 258,183.138 256,185.662 256,188 264.254,188 268.002,198 269,198 272.158,198 272.961,198.461 276,201.5 284.141,209.641 274,212.919 274,219  Z"/>

<path  fill="#A3DAA3" stroke-width="0" stroke="#A3DAA3" d = " M229 192 C235.244,192 242.428,193 248,193 251.767,193 253.08,188 256,188 256,185.662 258,183.138 258,180 258,180 253,181 253,181 253,181 238,181 238,181 234.778,181 231.723,180 229,180 229,181.399 227,181.399 227,180 227,180 219,181 219,181 219,181 204,181 204,181 204,181 199,181 199,181 199,183.409 200,186.181 200,188 203.684,188 204.539,193 209,193 214.245,193 221.085,192 227,192 227.839,192 229,190.07 229,192  Z"/>

<path  fill="#219764" stroke-width="0" stroke="#219764" d = " M147 188 C140.021,188 121.176,211.852 115,199.5 L112,195 C113.79,195 122,190.171 122,188 122,188 123,188 123,188 123,189.845 126.381,189.441 127.5,190 136.095,194.298 141.124,182 147,182 147,182 149,186 149,186 149,186 149,187 149,187 149,187 147,188 147,188  Z"/>

<path  fill="#219764" stroke-width="0" stroke="#219764" d = " M334 188 C334,189.489 342.253,195 344,195 344,197.957 341.86,199.82 339.5,201 330.378,205.561 322.59,195.045 314.5,191 314.5,191 307,186 307,186 307,186 307,185 307,185 307,183.519 309,184.215 309,182 309,182 310,182 310,182 310,183.4 323.617,191 326,191 327.647,191 333,189.732 333,188 333,188 334,188 334,188  Z"/>

<path  fill="#238A5D" stroke-width="0" stroke="#238A5D" d = " M150 186 L150,187 C150,187 152,185 152,185 152,185 150,186 150,186  Z"/>

<path  fill="#238A5D" stroke-width="0" stroke="#238A5D" d = " M307 186 L307,187 C307,187 305,185 305,185 305,185 307,185 307,185 307,185 307,186 307,186  Z"/>

<path  fill="#209864" stroke-width="0" stroke="#209864" d = " M149 187 L150,187 C150,187 150,186 150,186 150,186 149,186 149,186 149,186 149,187 149,187  Z"/>

<path  fill="#209864" stroke-width="0" stroke="#209864" d = " M349 197 C349,201.017 341.617,208 338,208 329.295,208 312.397,187 307,187 307,187 307,186 307,186 307,186 314.5,191 314.5,191 322.59,195.045 330.378,205.561 339.5,201 341.86,199.82 344,197.957 344,195 344,195 345,195 345,195 345,195 349,197 349,197  Z"/>

<path  fill="#209864" stroke-width="0" stroke="#209864" d = " M149 187 L147,188 C147,188 149,187 149,187  Z"/>

<path  fill="#209864" stroke-width="0" stroke="#209864" d = " M108 197 C108,201.046 113.704,208 118,208 126.42,208 132.373,197.563 139.5,194 141.004,193.248 147,190.115 147,188 140.021,188 121.176,211.852 115,199.5 115,199.5 112,195 112,195 112,195 111,195 111,195 111,195 108,197 108,197  Z"/>

<path  fill="#54BF94" stroke-width="0" stroke="#54BF94" d = " M197 249 L197,250 C193.939,250 192.14,256.68 189.5,258 183.638,260.931 165,248.742 165,243 165,243 168,240 168,240 168,240 169,239 169,239 169,236.022 170,232.51 170,229 170.101,229 180.007,219 183,219 190.627,219 186,210.034 186,204 187.579,204 187,201.145 187,200 187,200 187,199 187,199 187.531,199 192.343,188 200,188 203.684,188 204.539,193 209,193 209,198.09 216.152,221 221,221 221,221 223,225.5 223,225.5 223,225.5 220,230 220,230 214.29,230 198,241.793 198,248 198,248 197,249 197,249  Z"/>

<path  fill="#54BF94" stroke-width="0" stroke="#54BF94" d = " M291 245 L286.5,251 C281.241,253.63 275.679,255.41 270.5,258 263.824,261.338 262.935,249 259,249 259,242.17 242.687,230 236,230 236,230 234,226.5 234,226.5 234,226.5 235,221 235,221 237.049,221 238.941,220.617 240,218.5 241.88,214.739 248,196.66 248,193 251.767,193 253.08,188 256,188 264.254,188 268.002,198 269,198 269,198 269,199 269,199 269,199 270,206 270,206 270,212.942 265.066,219 274,219 274,219 285,226.5 285,226.5 285.465,227.43 285.817,231 287,231 287,231 287,238.5 287,238.5 287,238.5 291,243 291,243 291,243 291,245 291,245  Z"/>

<path  fill="#99D2BD" stroke-width="0" stroke="#99D2BD" d = " M227 192 C227.839,192 229,190.07 229,192 229,201.802 227,200.458 227,192  Z"/>

<path  fill="#61D09F" stroke-width="0" stroke="#61D09F" d = " M221 221 L235,221 C237.049,221 238.941,220.617 240,218.5 241.88,214.739 248,196.66 248,193 242.428,193 235.244,192 229,192 229,201.802 227,200.458 227,192 221.085,192 214.245,193 209,193 209,198.09 216.152,221 221,221  Z"/>

<path  fill="#CBCBC7" stroke-width="0" stroke="#CBCBC7" d = " M186 204 C186,210.034 190.627,219 183,219 183,216.084 174.912,210.676 178,204.5 178.99,202.519 187,194.126 187,199 187,199 187,200 187,200 185.421,200 186,202.855 186,204  Z"/>

<path  fill="#CBCBC7" stroke-width="0" stroke="#CBCBC7" d = " M270 206 C270,212.942 265.066,219 274,219 274,212.919 284.141,209.641 276,201.5 272.961,198.461 272.158,198 269,198 269,198 269,199 269,199 270.841,199 272.202,206 270,206  Z"/>

<path  fill="#99D2BD" stroke-width="0" stroke="#99D2BD" d = " M269 199 C270.841,199 272.202,206 270,206 270,206 269,199 269,199  Z"/>

<path  fill="#99D2BD" stroke-width="0" stroke="#99D2BD" d = " M187 200 C185.421,200 186,202.855 186,204 187.579,204 187,201.145 187,200  Z"/>

<path  fill="#A0EE9C" stroke-width="0" stroke="#A0EE9C" d = " M166 201 L164,206.5 C164.927,208.355 167.403,218 170.5,218 172.124,218 178.728,201 166,201  Z"/>

<path  fill="#A0EE9C" stroke-width="0" stroke="#A0EE9C" d = " M284 201 C284,202.934 280.308,218 285.5,218 287.911,218 299.302,201 284,201  Z"/>

<path  fill="#99D2BD" stroke-width="0" stroke="#99D2BD" d = " M220 230 C226.184,230 229.934,230 236,230 236,230 234,226.5 234,226.5 234,226.5 235,221 235,221 235,221 221,221 221,221 221,221 223,225.5 223,225.5 223,225.5 220,230 220,230  Z"/>

<path  fill="#CAC8C7" stroke-width="0" stroke="#CAC8C7" d = " M163 243 C163,244.732 165,244.808 165,249 159.317,249 131,233.085 131,229 131,226.746 138.491,228.496 139.5,229 144.994,231.747 157.68,243 163,243  Z"/>

<path  fill="#CAC8C7" stroke-width="0" stroke="#CAC8C7" d = " M291 245 C291,246.145 290.421,249 292,249 295.98,249 316.264,238.236 319,235.5 321.094,233.406 326,232.9 326,229 324.577,229 322.456,227.022 320.5,228 315.068,230.716 297.628,243 293,243 293,243 291,245 291,245  Z"/>

<path  fill="#62CF9E" stroke-width="0" stroke="#62CF9E" d = " M211 262 L212,262 C212,262 213,261 213,261 214.811,261 225.972,246.557 227,244.5 227.471,243.558 226.27,240 228.5,240 228.5,240 231,246.5 231,246.5 232.743,249.986 240.668,262 245,262 255.337,262 259,257.988 259,249 259,242.17 242.687,230 236,230 229.934,230 226.184,230 220,230 214.29,230 198,241.793 198,248 198,248 197,249 197,249 197,249 197,250 197,250 197,258.367 202.808,262 211,262  Z"/>

<path  fill="#99D2BD" stroke-width="0" stroke="#99D2BD" d = " M169 239 L168,240 C168,240 169,239 169,239  Z"/>

<path  fill="#99D2BD" stroke-width="0" stroke="#99D2BD" d = " M197 250 C197,258.367 202.808,262 211,262 211,263.32 202.442,265.471 201.5,265 198.511,263.506 194.43,264.465 191.5,263 185.838,260.169 180.2,257.85 174.5,255 172.767,254.133 165,251.379 165,249 165,244.808 163,244.732 163,243 163,243 165,243 165,243 165,248.742 183.638,260.931 189.5,258 192.14,256.68 193.939,250 197,250  Z"/>

<path  fill="#99D2BD" stroke-width="0" stroke="#99D2BD" d = " M293 243 L291,245 C291,245 291,243 291,243 291,243 293,243 293,243  Z"/>

<path  fill="#99D2BD" stroke-width="0" stroke="#99D2BD" d = " M292 249 L285.5,253 C280.302,255.599 275.604,258.448 270.5,261 265.714,263.393 259.293,262.604 254.5,265 253.558,265.471 245,263.32 245,262 255.337,262 259,257.988 259,249 262.935,249 263.824,261.338 270.5,258 275.679,255.41 281.241,253.63 286.5,251 286.5,251 291,245 291,245 291,246.145 290.421,249 292,249  Z"/>

<path  fill="#99D2BD" stroke-width="0" stroke="#99D2BD" d = " M198 248 L197,249 C197,249 198,248 198,248  Z"/>

<path  fill="#99D2BD" stroke-width="0" stroke="#99D2BD" d = " M213 261 L212,262 C212,262 213,261 213,261  Z"/>

</g>
</svg>
