<svg xmlns="http://www.w3.org/2000/svg" xmlns:xlink="http://www.w3.org/1999/xlink"  viewBox="0 0 456 320">
<g>
<rect width="456" height="320" fill="#000000"  stroke-width="0" /> 
<path  fill="#FCFB90" stroke-width="0" stroke="#FCFB90" d = " M161 130 C194.018,130 171.15,96.1749 191.5,86 196.594,83.4529 201.495,80.5025 206.5,78 211.423,75.5385 222.025,77.7374 227.5,75 228.013,74.7437 242.4,77.45 243.5,78 L254.5,79 C258.408,80.9541 268.327,87.1535 271,92.5 278.501,107.502 268.717,130 295,130 295,118.313 295.718,98.9361 291,89.5 288.862,85.2242 283,78.8737 283,74 283,74 278,70.5 278,70.5 268.732,61.2324 274,58.9302 274,49 274,42.8511 262.273,40.8863 258.5,39 250.754,35.1272 206.255,35.1224 198.5,39 194,41.2498 183,42.085 183,49 183,60.4348 187.611,60.8895 177.5,71 177.5,71 173,75 173,75 173,79.5309 167.026,86.4477 165,90.5 160.996,98.5077 161,120.032 161,130  Z"/>

<path  fill="#FDFB8F" stroke-width="0" stroke="#FDFB8F" d = " M140 105 L144,97.5 C147.448,90.6031 149.605,83.2897 153,76.5 L153,70.5 C153.904,68.6929 158.394,60.447 161.5,62 161.589,62.0446 155.805,73.8892 155,75.5 153.581,78.3371 154.446,82.6071 153,85.5 146.819,97.8615 135.825,130 161,130 161,120.032 160.996,98.5077 165,90.5 167.026,86.4477 173,79.5309 173,75 173,69.4971 178.011,59.5215 175,53.5 175,53.5 173,51 173,51 169.65,51 165.384,45.5579 160.5,48 152.811,51.8444 132,55.9391 132,68 132,69.9367 135.992,76.4839 137,78.5 137,78.5 137,90.5 137,90.5 138.63,93.7594 140,101.407 140,105  Z"/>

<path  fill="#FDFB8F" stroke-width="0" stroke="#FDFB8F" d = " M317 105 C313.672,105 312.027,96.5532 311,94.5 308.951,90.4017 307.031,86.5615 305,82.5 301.451,75.4016 305.389,67.4446 296.5,63 L294.5,61 C292.146,61 297.854,67.2079 298,67.5 300.248,71.995 300.759,77.0177 303,81.5 309.89,95.2804 320.227,130 295,130 295,118.313 295.718,98.9361 291,89.5 288.862,85.2242 283,78.8737 283,74 283,71.1837 282.225,66.9505 281,64.5 278.798,60.0956 283,54.3339 283,51 284.841,51 286.57,48.9649 288.5,48 294.098,45.2012 305.289,50.8947 309.5,53 314.512,55.5061 317.955,58.4553 322,62.5 323.016,63.5163 324.379,68 325,68 325,68.6911 320.825,74.8493 320,76.5 319.088,78.324 317,102.072 317,105  Z"/>

<path  fill="#FEFA90" stroke-width="0" stroke="#FEFA90" d = " M173 51 L175,53.5 C178.011,59.5215 173,69.4971 173,75 173,75 177.5,71 177.5,71 187.611,60.8895 183,60.4348 183,49 179.745,49 176.942,51 173,51  Z"/>

<path  fill="#FEFA90" stroke-width="0" stroke="#FEFA90" d = " M283 51 C283,54.3339 278.798,60.0956 281,64.5 282.225,66.9505 283,71.1837 283,74 283,74 278,70.5 278,70.5 268.732,61.2324 274,58.9302 274,49 277.071,49 279.362,51 283,51  Z"/>

<path  fill-rule="evenodd" fill="#CBC9CC" stroke-width="0" stroke="#CBC9CC" d = " M210 143 C210,143.994 207.389,148.945 209.5,150 212.436,151.468 219.178,148.161 221.5,147 228.002,143.749 242.763,151.869 246.5,150 L246.5,143 C243.402,141.451 237.605,145 234,145 L224,145 C218.527,145 215.211,143 210,143  M213 79 C213,81.691 202.434,82.0332 200.5,83 194.14,86.1799 182.132,101.764 187,111.5 188.088,113.675 187.962,116.425 189,118.5 194.884,130.268 212.026,137.263 223.5,143 230.62,146.56 238.465,139.517 243.5,137 255.823,130.838 269,123.813 269,107 L269,99.5 C261.636,84.773 256.943,85.7213 243.5,79 241.847,78.1735 239.69,79.4052 238.5,80 236.588,80.9558 216.555,79 213,79  M339 156 C346.087,156 352.555,160.027 358.5,163 L364.5,170 L364,166.5 C363.486,165.471 356.593,156 360,156 360,151.121 379.223,150.946 377,146.5 376.406,145.312 374.189,146.655 373.5,147 369.928,148.786 366.025,149.237 362.5,151 356.657,153.922 337.185,147.342 332.5,145 332.5,145 325,140 325,140 318.165,140 319.213,123.074 321,119.5 321,119.5 332,106.5 332,106.5 331.33,105.16 328.327,108.586 327.5,109 324.261,110.62 317,108.249 317,105 313.672,105 312.027,96.5532 311,94.5 308.951,90.4017 307.031,86.5615 305,82.5 301.451,75.4016 305.389,67.4446 296.5,63 296.5,63 294.5,61 294.5,61 292.146,61 297.854,67.2079 298,67.5 300.248,71.995 300.759,77.0177 303,81.5 309.89,95.2804 320.227,130 295,130 268.717,130 278.501,107.502 271,92.5 268.327,87.1535 258.408,80.9541 254.5,79 254.5,79 243.5,78 243.5,78 242.4,77.45 228.013,74.7437 227.5,75 222.025,77.7374 211.423,75.5385 206.5,78 201.495,80.5025 196.594,83.4529 191.5,86 171.15,96.1749 194.018,130 161,130 135.825,130 146.819,97.8615 153,85.5 154.446,82.6071 153.581,78.3371 155,75.5 155.805,73.8892 161.589,62.0446 161.5,62 158.394,60.447 153.904,68.6929 153,70.5 153,70.5 153,76.5 153,76.5 149.605,83.2897 147.448,90.6031 144,97.5 144,97.5 140,105 140,105 137.069,105 136.609,112.554 125.5,107 125.5,107 120,94.5 120,94.5 120,94.5 118.5,89 118.5,89 116.614,89 120.634,99.7686 121,100.5 125.709,109.919 137,116.143 137,127.5 137,130.788 135.743,140 131,140 131,142.825 125.19,144.155 123.5,145 118.652,147.424 99.6328,154.066 93.5,151 93.5,151 84.5,148 84.5,148 84.5,148 80,145.5 80,145.5 76.6804,152.139 96,149.969 96,156 99.6029,156 92.5308,166.438 92,167.5 92,167.5 91.5,171 91.5,171 91.5,171 99.5,162 99.5,162 105.041,159.23 111.386,156 118,156 123.881,156 130.087,161 133,161 133,156.096 128.421,157.657 133,148.5 136.038,142.424 144.03,149 147.5,149 150.513,149 154.842,146.329 157.5,145 157.5,145 165.5,145 165.5,145 165.5,145 170.5,139 170.5,139 174.822,136.839 175,142.467 175,145 176.974,145 178.517,145 181,145 181,143.053 177.572,141.356 179,138.5 181.157,134.185 203.119,139.738 205,143.5 210.619,154.738 200,153.322 200,157 207.029,157 211.588,151 219,151 219,148.866 237,148.025 237,151 246.058,151 252.379,159 261,159 261,155.892 245.369,155.762 251,144.5 253.032,140.436 275.459,134.419 277,137.5 278.182,139.864 276,143.196 276,145 276,145 280.5,144 280.5,144 280.5,144 282,146 282,146 282,143.117 279.813,140.843 283.5,139 286.795,137.352 288.339,143.919 290.5,145 290.5,145 299.5,145 299.5,145 301.383,145.942 307.256,150.122 309.5,149 314.155,146.672 321.521,143.542 325,150.5 326.889,154.277 323,158.392 323,161 327.273,161 332.531,156 339,156  Z"/>

<path  fill-rule="evenodd" fill="#FCFC90" stroke-width="0" stroke="#FCFC90" d = " M119 87 C119,90.7458 121.091,87 119,87  M120 85 C120,88.7458 122.091,85 120,85  M79 111 C85.0752,111 93.8411,111.182 97,117.5 99.6453,122.791 98.7498,131.625 105.5,135 L131,140 C135.743,140 137,130.788 137,127.5 137,116.143 125.709,109.919 121,100.5 120.634,99.7686 116.614,89 118.5,89 118.5,89 120,94.5 120,94.5 120,94.5 125.5,107 125.5,107 136.609,112.554 137.069,105 140,105 140,101.407 138.63,93.7594 137,90.5 137,90.5 137,78.5 137,78.5 135.992,76.4839 132,69.9367 132,68 132,68 119.5,69 119.5,69 110.23,73.6352 90.5019,89.4962 87,96.5 84.2465,102.007 79,104.337 79,111  Z"/>

<path  fill-rule="evenodd" fill="#FCFC90" stroke-width="0" stroke="#FCFC90" d = " M334 100 C334,100.276 330.488,106 332.5,106 332.861,106 337.001,100 334,100  M336 95 L335,97.5 C332.189,103.123 340.522,95 336,95  M335 85 L337,89.5 L337,94.5 C337.568,95.6362 340.051,85 335,85  M377 111 C370.08,111 362.209,112.082 359,118.5 357.35,121.8 357.233,131.133 353.5,133 346.13,136.685 333.517,140 325,140 318.165,140 319.213,123.074 321,119.5 321,119.5 332,106.5 332,106.5 331.33,105.16 328.327,108.586 327.5,109 324.261,110.62 317,108.249 317,105 317,102.072 319.088,78.324 320,76.5 320.825,74.8493 325,68.6911 325,68 325,68 336.5,69 336.5,69 347.939,74.7195 377,96.8638 377,111  Z"/>

<path  fill="#FCFB90" stroke-width="0" stroke="#FCFB90" d = " M213 79 C213,81.691 202.434,82.0332 200.5,83 194.14,86.1799 182.132,101.764 187,111.5 188.088,113.675 187.962,116.425 189,118.5 194.884,130.268 212.026,137.263 223.5,143 230.62,146.56 238.465,139.517 243.5,137 255.823,130.838 269,123.813 269,107 L269,99.5 C261.636,84.773 256.943,85.7213 243.5,79 241.847,78.1735 239.69,79.4052 238.5,80 236.588,80.9558 216.555,79 213,79  Z"/>

<path  fill="#CBC9CC" stroke-width="0" stroke="#CBC9CC" d = " M120 85 C120,88.7458 122.091,85 120,85  Z"/>

<path  fill="#CBC9CC" stroke-width="0" stroke="#CBC9CC" d = " M335 85 L337,89.5 L337,94.5 C337.568,95.6362 340.051,85 335,85  Z"/>

<path  fill="#CBC9CC" stroke-width="0" stroke="#CBC9CC" d = " M119 87 C119,90.7458 121.091,87 119,87  Z"/>

<path  fill="#CBC9CC" stroke-width="0" stroke="#CBC9CC" d = " M336 95 L335,97.5 C332.189,103.123 340.522,95 336,95  Z"/>

<path  fill="#CBC9CC" stroke-width="0" stroke="#CBC9CC" d = " M334 100 C334,100.276 330.488,106 332.5,106 332.861,106 337.001,100 334,100  Z"/>

<path  fill="#FCFA91" stroke-width="0" stroke="#FCFA91" d = " M96 156 C96,157.55 89.7717,158.364 88.5,159 86.519,159.99 76.3441,167 76,167 76,167 72.5,164 72.5,164 72.5,164 69.5,164 69.5,164 65.5204,162.01 66.4978,157.496 65,154.5 59.7757,144.051 64.4602,131.58 69,122.5 70.3463,119.807 75.0215,111 79,111 85.0752,111 93.8411,111.182 97,117.5 99.6453,122.791 98.7498,131.625 105.5,135 105.5,135 131,140 131,140 131,142.825 125.19,144.155 123.5,145 118.652,147.424 99.6328,154.066 93.5,151 93.5,151 84.5,148 84.5,148 84.5,148 80,145.5 80,145.5 76.6804,152.139 96,149.969 96,156  Z"/>

<path  fill="#FCFA91" stroke-width="0" stroke="#FCFA91" d = " M360 156 C362.177,156 380,165.563 380,167 380,167 384.5,164 384.5,164 399.336,156.582 392.619,132.738 387,121.5 385.324,118.149 380.361,111 377,111 370.08,111 362.209,112.082 359,118.5 357.35,121.8 357.233,131.133 353.5,133 346.13,136.685 333.517,140 325,140 325,140 332.5,145 332.5,145 337.185,147.342 356.657,153.922 362.5,151 366.025,149.237 369.928,148.786 373.5,147 374.189,146.655 376.406,145.312 377,146.5 379.223,150.946 360,151.121 360,156  Z"/>

<path  fill="#FFFCBC" stroke-width="0" stroke="#FFFCBC" d = " M186 161 L189,161 C189,159.527 190.952,160 192,160 192,160 194,159 194,159 194,159 195,159 195,159 195,159 197,158 197,158 197,156.527 198.952,157 200,157 200,153.322 210.619,154.738 205,143.5 203.119,139.738 181.157,134.185 179,138.5 177.572,141.356 181,143.053 181,145 181,147.421 183.411,151.678 182,154.5 181.372,155.756 179.133,157.767 180,159.5 180,159.5 185,162 185,162 185,162 186,161 186,161  Z"/>

<path  fill="#FFFCBC" stroke-width="0" stroke="#FFFCBC" d = " M268 161 L270,161 C276.67,161 276.509,158.519 274,153.5 273.244,151.988 275.001,145 276,145 276,143.196 278.182,139.864 277,137.5 275.459,134.419 253.032,140.436 251,144.5 245.369,155.762 261,155.892 261,159 261,159 262,159 262,159 263.357,159 268,159.647 268,161  Z"/>

<path  fill="#FFFDBC" stroke-width="0" stroke="#FFFDBC" d = " M161 171 C154.89,171 147.232,181 139,181 139,177.887 140.75,165 136,165 136,163.571 134.712,161 133,161 133,156.096 128.421,157.657 133,148.5 136.038,142.424 144.03,149 147.5,149 150.513,149 154.842,146.329 157.5,145 157.5,145 165.5,145 165.5,145 165.5,145 170.5,139 170.5,139 174.822,136.839 175,142.467 175,145 175,149.648 182.07,152.361 179,158.5 176.437,163.625 169.372,159.064 165.5,161 162.637,162.431 167.338,165.824 167,166.5 167,166.5 162,170 162,170 162,170 161,171 161,171  Z"/>

<path  fill="#FFFDBC" stroke-width="0" stroke="#FFFDBC" d = " M308 178 C310.933,178 313.321,181 317,181 317,179.262 315.605,165 320,165 320,165 323,161 323,161 323,158.392 326.889,154.277 325,150.5 321.521,143.542 314.155,146.672 309.5,149 307.256,150.122 301.383,145.942 299.5,145 299.5,145 290.5,145 290.5,145 288.339,143.919 286.795,137.352 283.5,139 279.813,140.843 282,143.117 282,146 282,150.425 273.944,151.389 278,159.5 279.589,162.678 286.473,160 288.5,160 294.098,160 289.25,165.001 290,166.5 290,166.5 295,171 295,171 295,171 307,177 307,177 307,177 308,178 308,178  Z"/>

<path  fill="#CBC8CA" stroke-width="0" stroke="#CBC8CA" d = " M210 143 C210,143.994 207.389,148.945 209.5,150 212.436,151.468 219.178,148.161 221.5,147 228.002,143.749 242.763,151.869 246.5,150 L246.5,143 C243.402,141.451 237.605,145 234,145 L224,145 C218.527,145 215.211,143 210,143  Z"/>

<path  fill="#F0F080" stroke-width="0" stroke="#F0F080" d = " M173 168 L162,170 C162,170 167,166.5 167,166.5 167.338,165.824 162.637,162.431 165.5,161 169.372,159.064 176.437,163.625 179,158.5 182.07,152.361 175,149.648 175,145 176.974,145 178.517,145 181,145 181,147.421 183.411,151.678 182,154.5 181.372,155.756 179.133,157.767 180,159.5 180,159.5 185,162 185,162 185,163.149 180.484,163.508 179.5,164 178.192,164.654 174.186,168 173,168  Z"/>

<path  fill="#F0F080" stroke-width="0" stroke="#F0F080" d = " M283 168 C287.279,168 291.452,171 295,171 295,171 290,166.5 290,166.5 289.25,165.001 294.098,160 288.5,160 286.473,160 279.589,162.678 278,159.5 273.944,151.389 282,150.425 282,146 282,146 280.5,144 280.5,144 280.5,144 276,145 276,145 275.001,145 273.244,151.988 274,153.5 276.509,158.519 276.67,161 270,161 270,164.588 283,163.872 283,168  Z"/>

<path  fill="#FEFA91" stroke-width="0" stroke="#FEFA91" d = " M219 151 L237,151 C237,148.025 219,148.866 219,151  Z"/>

<path  fill="#FDFC8F" stroke-width="0" stroke="#FDFC8F" d = " M274 175 L277,175 C277,175 286,170.5 286,170.5 286,170.5 283,168 283,168 283,163.872 270,164.588 270,161 270,161 268,161 268,161 266.377,161 262,160.995 262,159 262,159 261,159 261,159 252.379,159 246.058,151 237,151 237,151 219,151 219,151 211.588,151 207.029,157 200,157 200,158.473 198.048,158 197,158 197,158 195,159 195,159 195,159 194,159 194,159 194,159 192,160 192,160 192,161.473 190.048,161 189,161 189,161 186,161 186,161 186,161 185,162 185,162 185,163.149 180.484,163.508 179.5,164 178.192,164.654 174.186,168 173,168 173,168 170,170.5 170,170.5 170,173.196 180,173.632 180,175 180,175 183,175 183,175 192.116,175 211.866,180.183 219.5,184 227.767,188.133 240.728,181 248,181 248,177.774 251.962,179.769 253.5,179 258.188,176.656 267.749,175 273,175 273,175 274,175 274,175  Z"/>

<path  fill="#FFFB8E" stroke-width="0" stroke="#FFFB8E" d = " M111 174 C111,177.795 103,187.186 103,195 100.752,195 97.0684,199.284 94.5,198 82.2936,191.897 76,180.066 76,167 76.3441,167 86.519,159.99 88.5,159 89.7717,158.364 96,157.55 96,156 99.6029,156 92.5308,166.438 92,167.5 92,167.5 91.5,171 91.5,171 91.5,171 99.5,162 99.5,162 105.041,159.23 111.386,156 118,156 118,156.047 111,171.869 111,174  Z"/>

<path  fill="#FFF990" stroke-width="0" stroke="#FFF990" d = " M111 174 C115.855,174 127.795,192 128,192 128,188.338 136,175.632 136,165 136,163.571 134.712,161 133,161 130.087,161 123.881,156 118,156 118,156.047 111,171.869 111,174  Z"/>

<path  fill="#FFF990" stroke-width="0" stroke="#FFF990" d = " M345 175 C340.653,175 329,188.549 329,192 325.695,192 320,169.226 320,165 320,165 323,161 323,161 327.273,161 332.531,156 339,156 339,161.939 345,168.413 345,175  Z"/>

<path  fill="#FFFB8E" stroke-width="0" stroke="#FFFB8E" d = " M345 175 C348.86,175 353,190.716 353,195 353,195 361.5,198 361.5,198 374.06,191.72 380,181.679 380,167 380,165.563 362.177,156 360,156 356.593,156 363.486,165.471 364,166.5 364,166.5 364.5,170 364.5,170 364.5,170 358.5,163 358.5,163 352.555,160.027 346.087,156 339,156 339,161.939 345,168.413 345,175  Z"/>

<path  fill="#CBC9CC" stroke-width="0" stroke="#CBC9CC" d = " M200 157 C198.952,157 197,156.527 197,158 198.048,158 200,158.473 200,157  Z"/>

<path  fill="#CBC9CC" stroke-width="0" stroke="#CBC9CC" d = " M197 158 L195,159 C195,159 197,158 197,158  Z"/>

<path  fill="#CBC9CC" stroke-width="0" stroke="#CBC9CC" d = " M194 159 L192,160 C192,160 194,159 194,159  Z"/>

<path  fill="#CBC9CC" stroke-width="0" stroke="#CBC9CC" d = " M262 159 C263.357,159 268,159.647 268,161 266.377,161 262,160.995 262,159  Z"/>

<path  fill="#CBC9CC" stroke-width="0" stroke="#CBC9CC" d = " M192 160 C190.952,160 189,159.527 189,161 190.048,161 192,161.473 192,160  Z"/>

<path  fill="#F0F080" stroke-width="0" stroke="#F0F080" d = " M186 161 L185,162 C185,162 186,161 186,161  Z"/>

<path  fill="#CBC9CC" stroke-width="0" stroke="#CBC9CC" d = " M128 192 C128,192.893 124.348,197 127,197 127,192.666 139,181.82 139,181 139,177.887 140.75,165 136,165 136,175.632 128,188.338 128,192  Z"/>

<path  fill="#CBC9CC" stroke-width="0" stroke="#CBC9CC" d = " M330 197 L331,197 C331,197 329,192 329,192 325.695,192 320,169.226 320,165 315.605,165 317,179.262 317,181 317,181.167 329,192.189 329,197 329,197 330,197 330,197  Z"/>

<path  fill-rule="evenodd" fill="#A9AAA7" stroke-width="0" stroke="#A9AAA7" d = " M125 213 L119,219.5 L120,224 C120,242.463 138.136,213 125,213  M122 241 L124,241 C124,241 124,239 124,239 124,239 125,238 125,238 125,234.321 128,231.269 128,228 128,228 129,227 129,227 129,227 130,224 130,224 130,224 131,222 131,222 131,222 131,221 131,221 131,216.547 135,212.803 135,208 135,208 130.5,209 130.5,209 121.299,204.399 137.198,185.651 142.5,183 146.709,180.895 156,180.88 156,187 158.885,187 160.697,185 164,185 164,185 165,183 165,183 151.623,183 151.051,177.725 162.5,172 166.842,169.829 175.112,175 180,175 180,173.632 170,173.196 170,170.5 170,170.5 173,168 173,168 173,168 162,170 162,170 162,170 161,171 161,171 154.89,171 147.232,181 139,181 139,181.82 127,192.666 127,197 127,202.893 119,212.872 119,214 119,214 117,217 117,217 117,217 119,234.5 119,234.5 119,234.5 122,241 122,241  Z"/>

<path  fill-rule="evenodd" fill="#A9AAA7" stroke-width="0" stroke="#A9AAA7" d = " M327 213 C327,216.246 329.527,233.487 334.5,231 340.801,227.849 337.215,213 327,213  M332 240 L335,241 C335,233.272 339,225.618 339,217 339,217 338,214 338,214 335.076,214 329,199.588 329,197 329,192.189 317,181.167 317,181 313.321,181 310.933,178 308,178 308,178 307,177 307,177 307,177 295,171 295,171 291.452,171 287.279,168 283,168 283,168 286,170.5 286,170.5 286,170.5 277,175 277,175 281.888,175 290.158,169.829 294.5,172 294.5,172 298.5,175 298.5,175 310.16,186.66 291.688,181 286,181 286,181 288,183 288,183 288,183 289,183 289,183 289,183 300,187 300,187 300,183.135 306.534,180.017 310.5,182 313.787,183.644 317.159,185.329 320.5,187 323.266,188.383 331.428,206.536 326.5,209 326.5,209 321,208 321,208 321,208 327,225 327,225 327,225 328,228 328,228 328,228 329,229 329,229 329,232.697 332,235.94 332,240  Z"/>

<path  fill="#F0F080" stroke-width="0" stroke="#F0F080" d = " M162 170 L161,171 C161,171 162,170 162,170  Z"/>

<path  fill="#A9AAA8" stroke-width="0" stroke="#A9AAA8" d = " M171 181 L172,181 C172,178.237 180.651,178 183,178 183,176.667 183,176.333 183,175 183,175 180,175 180,175 175.112,175 166.842,169.829 162.5,172 151.051,177.725 151.623,183 165,183 165,181.005 169.377,181 171,181  Z"/>

<path  fill="#A9AAA8" stroke-width="0" stroke="#A9AAA8" d = " M285 181 L286,181 C291.688,181 310.16,186.66 298.5,175 298.5,175 294.5,172 294.5,172 290.158,169.829 281.888,175 277,175 277,175 274,175 274,175 274,175 273,176 273,176 271.814,176 271.814,177 273,177 274.836,177 285,179.008 285,181  Z"/>

<path  fill="#FFFC8D" stroke-width="0" stroke="#FFFC8D" d = " M113 213 C114.564,213 116.876,214 119,214 119,212.872 127,202.893 127,197 124.348,197 128,192.893 128,192 127.795,192 115.855,174 111,174 111,177.795 103,187.186 103,195 103,202.245 113,207.425 113,213  Z"/>

<path  fill="#AAA9A7" stroke-width="0" stroke="#AAA9A7" d = " M218 194 C218,194.79 231,212.603 231,202 222.695,202 222.981,196.481 218,191.5 217.128,190.628 213.523,184.989 215.5,184 216.022,183.739 233.199,185 236,185 236,185 241.5,184 241.5,184 241.5,184 241,188 241,188 241,188 248,181 248,181 240.728,181 227.767,188.133 219.5,184 211.866,180.183 192.116,175 183,175 183,176.333 183,176.667 183,178 183,178 183,179 183,179 183,179 188,180 188,180 198.261,180 209.425,177.351 215,188.5 215,188.5 218,194 218,194  Z"/>

<path  fill="#AAA9A7" stroke-width="0" stroke="#AAA9A7" d = " M268 180 L269,180 C269,180 270,179 270,179 270,179 273,179 273,179 273,179 273,177 273,177 271.814,177 271.814,176 273,176 273,176 273,175 273,175 267.749,175 258.188,176.656 253.5,179 251.962,179.769 248,177.774 248,181 250.721,181 254.171,180.164 256.5,179 256.5,179 268,180 268,180  Z"/>

<path  fill="#A9AAA7" stroke-width="0" stroke="#A9AAA7" d = " M274 175 L273,176 C273,176 273,175 273,175 273,175 274,175 274,175  Z"/>

<path  fill="#FFFC8D" stroke-width="0" stroke="#FFFC8D" d = " M338 214 L342,214 C342,214 343,213 343,213 344.29,213 353,198.088 353,195 353,190.716 348.86,175 345,175 340.653,175 329,188.549 329,192 329,192 331,197 331,197 331,198.186 330,198.186 330,197 330,197 329,197 329,197 329,199.588 335.076,214 338,214  Z"/>

<path  fill="#A9AAA7" stroke-width="0" stroke="#A9AAA7" d = " M283 181 L285,181 C285,179.008 274.836,177 273,177 273,177 273,179 273,179 273,179 274,179 274,179 274,179 276,180 276,180 276,180 279,180 279,180 279,180 281,181 281,181 281,181 283,181 283,181  Z"/>

<path  fill="#F0F080" stroke-width="0" stroke="#F0F080" d = " M307 177 L308,178 C308,178 307,177 307,177  Z"/>

<path  fill="#A9AAA7" stroke-width="0" stroke="#A9AAA7" d = " M173 181 L176,181 C176,181 177,180 177,180 177,180 180,180 180,180 180,178.527 181.952,179 183,179 183,179 183,178 183,178 180.651,178 172,178.237 172,181 172,181 173,181 173,181  Z"/>

<path  fill="#FF9BCD" stroke-width="0" stroke="#FF9BCD" d = " M183 179 C181.952,179 180,178.527 180,180 181.048,180 183,180.473 183,179  Z"/>

<path  fill="#FEB1D9" stroke-width="0" stroke="#FEB1D9" d = " M184 206 C178.365,206 173.332,209 167,209 167,209 163,206 163,206 163,201.498 165.993,197 159,197 159,193.744 155.991,193.517 158,189.5 158,189.5 164,185 164,185 165.238,185 167,184.577 167,183 167,183 168,183 168,183 169.048,183 171,183.473 171,182 171,182 173,181 173,181 173,181 176,181 176,181 176,181 177,180 177,180 177,180 180,180 180,180 181.048,180 183,180.473 183,179 183,179 188,180 188,180 188,189.363 185,197.525 185,205 185,205 184,206 184,206  Z"/>

<path  fill="#FFB0D7" stroke-width="0" stroke="#FFB0D7" d = " M210 209 C209.962,209 207.629,211 203,211 203,211 196.5,207 196.5,207 194.757,206.129 186.663,206 185,206 185,206 185,205 185,205 185,197.525 188,189.363 188,180 198.261,180 209.425,177.351 215,188.5 215,188.5 218,194 218,194 218,194 215,197.5 215,197.5 215,197.5 215,200.5 215,200.5 215,200.5 210,209 210,209  Z"/>

<path  fill="#FFB0D7" stroke-width="0" stroke="#FFB0D7" d = " M246 209 L249.5,212 L254,211 C254,206.878 268.101,206 271,206 271,206 272,205 272,205 272,205 269,196.5 269,196.5 269,196.5 268,180 268,180 268,180 256.5,179 256.5,179 254.171,180.164 250.721,181 248,181 248,181 241,188 241,188 241,188 239,194 239,194 239,194 246,209 246,209  Z"/>

<path  fill="#FF9BCD" stroke-width="0" stroke="#FF9BCD" d = " M270 179 L269,180 C269,180 270,179 270,179  Z"/>

<path  fill="#FEB1D9" stroke-width="0" stroke="#FEB1D9" d = " M273 206 C278.355,206 283.063,209 289,209 290.896,209 293,206.923 293,205 293,201.403 290.939,197 297,197 297,195.053 300.428,193.356 299,190.5 299,190.5 289,183 289,183 289,183 288,183 288,183 286.959,183 283,182.014 283,181 283,181 281,181 281,181 281,181 279,180 279,180 279,180 276,180 276,180 276,180 274,179 274,179 274,179 273,179 273,179 273,179 270,179 270,179 270,179 269,180 269,180 269,180 268,180 268,180 268,180 269,196.5 269,196.5 269,196.5 272,205 272,205 272,205 273,206 273,206  Z"/>

<path  fill="#FF9BCD" stroke-width="0" stroke="#FF9BCD" d = " M274 179 L276,180 C276,180 274,179 274,179  Z"/>

<path  fill="#FF9BCD" stroke-width="0" stroke="#FF9BCD" d = " M177 180 L176,181 C176,181 177,180 177,180  Z"/>

<path  fill="#FF9BCD" stroke-width="0" stroke="#FF9BCD" d = " M279 180 L281,181 C281,181 279,180 279,180  Z"/>

<path  fill="#A9AAA7" stroke-width="0" stroke="#A9AAA7" d = " M167 183 L168,183 C168,181.527 169.952,182 171,182 171,182 171,181 171,181 169.377,181 165,181.005 165,183 165,183 167,183 167,183  Z"/>

<path  fill="#FF9BCD" stroke-width="0" stroke="#FF9BCD" d = " M173 181 L171,182 C171,182 171,181 171,181 171,181 172,181 172,181 172,181 173,181 173,181  Z"/>

<path  fill="#FF9BCD" stroke-width="0" stroke="#FF9BCD" d = " M286 181 L288,183 C286.959,183 283,182.014 283,181 283,181 285,181 285,181 285,181 286,181 286,181  Z"/>

<path  fill="#FEA5D1" stroke-width="0" stroke="#FEA5D1" d = " M139 205 L135,208 C135,208 130.5,209 130.5,209 121.299,204.399 137.198,185.651 142.5,183 146.709,180.895 156,180.88 156,187 156,191.345 149,192.993 149,195 149,195 147,196 147,196 147,196 146,197 146,197 146,197 145,198 145,198 145,198 144,199 144,199 144,199 143,200 143,200 143,200 142,201 142,201 142,201 141,202 141,202 139.423,202 139,203.762 139,205  Z"/>

<path  fill="#FF9BCD" stroke-width="0" stroke="#FF9BCD" d = " M171 182 C169.952,182 168,181.527 168,183 169.048,183 171,183.473 171,182  Z"/>

<path  fill="#FEA5D1" stroke-width="0" stroke="#FEA5D1" d = " M308 195 C310.79,195 321,206.264 321,208 321,208 326.5,209 326.5,209 331.428,206.536 323.266,188.383 320.5,187 317.159,185.329 313.787,183.644 310.5,182 306.534,180.017 300,183.135 300,187 300,191.578 307,191.714 307,195 307,195 308,195 308,195  Z"/>

<path  fill="#FF9BCD" stroke-width="0" stroke="#FF9BCD" d = " M167 183 C167,184.577 165.238,185 164,185 164,185 165,183 165,183 165,183 167,183 167,183  Z"/>

<path  fill="#FF9BCD" stroke-width="0" stroke="#FF9BCD" d = " M292 215 C307.646,215 313.117,226.734 319,238.5 320.323,241.145 319.643,244.786 321,247.5 322.789,251.078 319,256.318 319,260 320.59,260 320.443,255.614 321,254.5 324.475,247.551 320.015,234.53 317,228.5 315.068,224.636 297.69,208.905 301.5,207 306.407,204.547 310.944,214 315,214 315,209.029 293.29,195 307,195 307,191.714 300,191.578 300,187 300,187 289,183 289,183 289,183 299,190.5 299,190.5 300.428,193.356 297,195.053 297,197 303.318,197 305.011,204.244 299.5,207 296.644,208.428 294.947,205 293,205 293,206.923 290.896,209 289,209 289,210.349 292,212.085 292,215  Z"/>

<path  fill="#A9AAA8" stroke-width="0" stroke="#A9AAA8" d = " M232 201 L231,202 C222.695,202 222.981,196.481 218,191.5 217.128,190.628 213.523,184.989 215.5,184 216.022,183.739 233.199,185 236,185 236,185 241.5,184 241.5,184 241.5,184 241,188 241,188 239.052,188 237,193.428 237,195 237,195 236,196 236,196 236,196 235,197 235,197 235,197 234,199 234,199 234,199 233,200 233,200 233,200 232,201 232,201  Z"/>

<path  fill="#FF9BCD" stroke-width="0" stroke="#FF9BCD" d = " M157 276 C154.876,276 152.564,277 151,277 151,277 146,275 146,275 146,275 146,274 146,274 147.918,274 150.981,275.539 152,273.5 153.096,271.307 143.808,267.654 142.5,267 136.468,263.984 137.284,257.069 135,252.5 134.338,251.176 133.103,248.294 134,246.5 137.674,239.151 139.066,230.368 143,222.5 143,222.5 154,211.5 154,211.5 154.68,210.82 156.955,207.727 155.5,207 150.455,204.478 146.956,213 143,213 143,206.731 163.331,195 149,195 149,192.993 156,191.345 156,187 158.885,187 160.697,185 164,185 164,185 158,189.5 158,189.5 155.991,193.517 159,193.744 159,197 156.682,197 149.694,203.097 153.5,205 157.529,207.015 159.096,206 163,206 163,206 167,209 167,209 167,210.732 165,210.808 165,215 143.965,215 143.192,229.117 136,243.5 131.295,252.911 140.479,267 150,267 150,271.431 155.571,272 159,272 159,272 161,273 161,273 161,273 157,276 157,276  Z"/>

<path  fill="#AAA9A7" stroke-width="0" stroke="#AAA9A7" d = " M239 194 L237,195 C237,193.428 239.052,188 241,188 241,188 239,194 239,194  Z"/>

<path  fill="#FFB3D7" stroke-width="0" stroke="#FFB3D7" d = " M234 211 L245,211 C245,211 246,209 246,209 246,209 239,194 239,194 239,194 237,195 237,195 237,195 236,196 236,196 236,196 235,197 235,197 235,197 234,199 234,199 234,199 233,200 233,200 233,200 232,201 232,201 232,201 231,202 231,202 231,212.603 218,194.79 218,194 218,194 215,197.5 215,197.5 215,197.5 215,200.5 215,200.5 215,200.5 210,209 210,209 210,209 211,211 211,211 211,211 223,211 223,211 227.242,211 229.596,211 234,211  Z"/>

<path  fill="#FF9BCD" stroke-width="0" stroke="#FF9BCD" d = " M149 195 L147,196 C147,196 149,195 149,195  Z"/>

<path  fill="#C9C9C8" stroke-width="0" stroke="#C9C9C8" d = " M146 274 L146,275 C143.494,275 138.687,272 133,272 133,272 127,266 127,266 127,266 127,265 127,265 127,265 125,262 125,262 125,262 125,261 125,261 125,259.959 124.014,256 123,256 123,256 123,252 123,252 123,248.194 124,244.249 124,241 124,241 124,239 124,239 124,239 125,238 125,238 125,234.321 128,231.269 128,228 128,228 129,227 129,227 129,227 130,224 130,224 130,224 131,222 131,222 131,222 131,221 131,221 133.324,221 139,207.192 139,205 140.577,205 141,203.238 141,202 141,202 142,201 142,201 142,201 143,200 143,200 143,200 144,199 144,199 144,199 145,198 145,198 145,198 146,197 146,197 146,197 147,196 147,196 147,196 149,195 149,195 163.331,195 143,206.731 143,213 143,213 142,213 142,213 138.568,213 136.168,224.164 135,226.5 128.167,240.165 126.68,257.18 138.5,269 138.5,269 146,274 146,274  Z"/>

<path  fill="#AAA9A7" stroke-width="0" stroke="#AAA9A7" d = " M237 195 L236,196 C236,196 237,195 237,195  Z"/>

<path  fill="#C9C9C8" stroke-width="0" stroke="#C9C9C8" d = " M323 272 C319.731,272 316.679,273 313,273 313,273 319,268.5 319,268.5 319,268.5 324,262.5 324,262.5 324,262.5 327,253.5 327,253.5 329.084,249.332 322.848,227.197 321,223.5 319.958,221.416 315,215.235 315,214 315,209.029 293.29,195 307,195 307,195 308,195 308,195 308,195 311,197.5 311,197.5 311,197.5 319,208.5 319,208.5 320.073,210.646 325.641,225 327,225 327,225 328,228 328,228 328,228 329,229 329,229 329,232.697 332,235.94 332,240 332,244.594 333,250.741 333,256 333,256 333,258 333,258 333,258 332,260 332,260 332,260 331,262 331,262 331,262 331,263 331,263 331,263 330,265 330,265 330,265 329,266 329,266 329,266 329,267 329,267 327.253,267 327,267.253 327,269 327,269 326,270 326,270 326,270 325,271 325,271 325,271 323,272 323,272  Z"/>

<path  fill="#FF9BCD" stroke-width="0" stroke="#FF9BCD" d = " M321 208 L327,225 C325.641,225 320.073,210.646 319,208.5 319,208.5 311,197.5 311,197.5 311,197.5 308,195 308,195 310.79,195 321,206.264 321,208  Z"/>

<path  fill="#FF9BCD" stroke-width="0" stroke="#FF9BCD" d = " M147 196 L146,197 C146,197 147,196 147,196  Z"/>

<path  fill="#AAA9A7" stroke-width="0" stroke="#AAA9A7" d = " M236 196 L235,197 C235,197 236,196 236,196  Z"/>

<path  fill="#FF9BCD" stroke-width="0" stroke="#FF9BCD" d = " M146 197 L145,198 C145,198 146,197 146,197  Z"/>

<path  fill="#FFB0D9" stroke-width="0" stroke="#FFB0D9" d = " M159 197 C165.993,197 163,201.498 163,206 159.096,206 157.529,207.015 153.5,205 149.694,203.097 156.682,197 159,197  Z"/>

<path  fill="#AAA9A7" stroke-width="0" stroke="#AAA9A7" d = " M235 197 L234,199 C234,199 235,197 235,197  Z"/>

<path  fill="#FFB0D9" stroke-width="0" stroke="#FFB0D9" d = " M297 197 C303.318,197 305.011,204.244 299.5,207 296.644,208.428 294.947,205 293,205 293,201.403 290.939,197 297,197  Z"/>

<path  fill="#F0F080" stroke-width="0" stroke="#F0F080" d = " M330 197 L331,197 C331,198.186 330,198.186 330,197  Z"/>

<path  fill="#FF9BCD" stroke-width="0" stroke="#FF9BCD" d = " M145 198 L144,199 C144,199 145,198 145,198  Z"/>

<path  fill="#FFFC8D" stroke-width="0" stroke="#FFFC8D" d = " M72 199 L66,202.5 C63.4076,205.092 59.817,214.134 62,218.5 66.2566,227.013 60.7013,239.903 65,248.5 68.2875,255.075 85.0266,260.447 90,250.5 99.9059,230.688 101.797,199 72,199  Z"/>

<path  fill="#FF9BCD" stroke-width="0" stroke="#FF9BCD" d = " M144 199 L143,200 C143,200 144,199 144,199  Z"/>

<path  fill="#AAA9A7" stroke-width="0" stroke="#AAA9A7" d = " M234 199 L233,200 C233,200 234,199 234,199  Z"/>

<path  fill="#FFFC8D" stroke-width="0" stroke="#FFFC8D" d = " M377 199 C377,199.886 366.882,204.309 365.5,205 361.597,206.952 361.889,213.723 360,217.5 358.599,220.301 359.833,229.167 361,231.5 L361,237.5 C366.121,247.742 370.297,261.601 385.5,254 394.368,249.566 393,238.512 393,229.5 393,214.444 398.885,199 377,199  Z"/>

<path  fill="#FF9BCD" stroke-width="0" stroke="#FF9BCD" d = " M143 200 L142,201 C142,201 143,200 143,200  Z"/>

<path  fill="#AAA9A7" stroke-width="0" stroke="#AAA9A7" d = " M233 200 L232,201 C232,201 233,200 233,200  Z"/>

<path  fill="#FF9BCD" stroke-width="0" stroke="#FF9BCD" d = " M142 201 L141,202 C141,202 142,201 142,201  Z"/>

<path  fill="#AAA9A7" stroke-width="0" stroke="#AAA9A7" d = " M232 201 L231,202 C231,202 232,201 232,201  Z"/>

<path  fill="#FF9BCD" stroke-width="0" stroke="#FF9BCD" d = " M141 202 C139.423,202 139,203.762 139,205 140.577,205 141,203.238 141,202  Z"/>

<path  fill="#FF9BCD" stroke-width="0" stroke="#FF9BCD" d = " M135 208 C135,212.803 131,216.547 131,221 133.324,221 139,207.192 139,205 139,205 135,208 135,208  Z"/>

<path  fill="#FF9BCD" stroke-width="0" stroke="#FF9BCD" d = " M184 206 L185,206 C185,206 185,205 185,205 185,205 184,206 184,206  Z"/>

<path  fill="#FF9BCD" stroke-width="0" stroke="#FF9BCD" d = " M271 206 L273,206 C273,206 272,205 272,205 272,205 271,206 271,206  Z"/>

<path  fill="#FDA5D1" stroke-width="0" stroke="#FDA5D1" d = " M169 218 C172.275,218 171.49,221 175,221 180.355,221 186.19,217 192,217 194.933,217 197.321,214 201,214 201,214 203,211 203,211 203,211 196.5,207 196.5,207 194.757,206.129 186.663,206 185,206 185,206 184,206 184,206 178.365,206 173.332,209 167,209 167,210.732 165,210.808 165,215 165,215 169,218 169,218  Z"/>

<path  fill="#FDA5D1" stroke-width="0" stroke="#FDA5D1" d = " M286 219 L282,221 C276.297,221 271.013,217 265,217 261.597,217 259.048,214 255,214 255,214 254,211 254,211 254,206.878 268.101,206 271,206 271,206 273,206 273,206 278.355,206 283.063,209 289,209 289,210.349 292,212.085 292,215 292,215 290,216 290,216 290,216 289,217 289,217 289,217 288,217 288,217 288,217 287,218 287,218 287,218 286,219 286,219  Z"/>

<path  fill="#C8CACA" stroke-width="0" stroke="#C8CACA" d = " M143 213 C146.956,213 150.455,204.478 155.5,207 156.955,207.727 154.68,210.82 154,211.5 L143,222.5 C139.066,230.368 137.674,239.151 134,246.5 133.103,248.294 134.338,251.176 135,252.5 137.284,257.069 136.468,263.984 142.5,267 143.808,267.654 153.096,271.307 152,273.5 150.981,275.539 147.918,274 146,274 146,274 138.5,269 138.5,269 126.68,257.18 128.167,240.165 135,226.5 136.168,224.164 138.568,213 142,213 142,214.186 143,214.186 143,213  Z"/>

<path  fill="#C8CACA" stroke-width="0" stroke="#C8CACA" d = " M313 273 L311,274 C311,274 307.5,275 307.5,275 304.65,276.425 305.06,271.22 307.5,270 309.19,269.155 315,267.825 315,265 315,265 316,264 316,264 316,264 317,263 317,263 318.577,263 319,261.238 319,260 320.59,260 320.443,255.614 321,254.5 324.475,247.551 320.015,234.53 317,228.5 315.068,224.636 297.69,208.905 301.5,207 306.407,204.547 310.944,214 315,214 315,215.235 319.958,221.416 321,223.5 322.848,227.197 329.084,249.332 327,253.5 327,253.5 324,262.5 324,262.5 324,262.5 319,268.5 319,268.5 319,268.5 313,273 313,273  Z"/>

<path  fill="#FF9BCD" stroke-width="0" stroke="#FF9BCD" d = " M201 214 L208,216 C210.173,216 207.768,211 211,211 211,211 210,209 210,209 209.962,209 207.629,211 203,211 203,211 201,214 201,214  Z"/>

<path  fill="#FF9BCD" stroke-width="0" stroke="#FF9BCD" d = " M255 214 C252.029,214 250.232,217 248,217 248,215.262 247.314,211 245,211 245,211 246,209 246,209 246,209 249.5,212 249.5,212 249.5,212 254,211 254,211 254,211 255,214 255,214  Z"/>

<path  fill="#FF9BCD" stroke-width="0" stroke="#FF9BCD" d = " M227 235 C227,236.919 229,237.488 229,235 229,235 229,217.5 229,217.5 229,216.337 228.451,212 230.5,212 233.133,212 231,221.165 231,223 231,223 235,221 235,221 235,217.901 234,213.914 234,211 229.596,211 227.242,211 223,211 223,215.283 222,217.715 222,221 222,221 225,222 225,222 225,222 225,217.5 225,217.5 225,217.188 225.014,208.528 227,212.5 229.609,217.719 225.334,226.168 228,231.5 228.472,232.445 228.156,235 227,235  Z"/>

<path  fill="#FCB3D8" stroke-width="0" stroke="#FCB3D8" d = " M222 221 C218.038,221 213.312,222 210,222 210,222 209,221 209,221 209,221 208,216 208,216 210.173,216 207.768,211 211,211 211,211 223,211 223,211 223,215.283 222,217.715 222,221  Z"/>

<path  fill="#FCB3D8" stroke-width="0" stroke="#FCB3D8" d = " M235 221 C239.107,221 243.469,222 247,222 247,222 248,217 248,217 248,215.262 247.314,211 245,211 245,211 234,211 234,211 234,213.914 235,217.901 235,221  Z"/>

<path  fill="#CBCBCC" stroke-width="0" stroke="#CBCBCC" d = " M225 222 C225,224.088 225.318,235 227,235 228.156,235 228.472,232.445 228,231.5 225.334,226.168 229.609,217.719 227,212.5 225.014,208.528 225,217.188 225,217.5 225,217.5 225,222 225,222  Z"/>

<path  fill="#CBCBCC" stroke-width="0" stroke="#CBCBCC" d = " M231 223 C231,225.293 231.983,235 229,235 229,235 229,217.5 229,217.5 229,216.337 228.451,212 230.5,212 233.133,212 231,221.165 231,223  Z"/>

<path  fill="#F0F080" stroke-width="0" stroke="#F0F080" d = " M119 214 L117,217 C115.634,217 113,214.634 113,213 114.564,213 116.876,214 119,214  Z"/>

<path  fill="#A9AAA8" stroke-width="0" stroke="#A9AAA8" d = " M125 213 L119,219.5 L120,224 C120,242.463 138.136,213 125,213  Z"/>

<path  fill="#FF9BCD" stroke-width="0" stroke="#FF9BCD" d = " M142 213 L143,213 C143,214.186 142,214.186 142,213  Z"/>

<path  fill="#A9AAA8" stroke-width="0" stroke="#A9AAA8" d = " M327 213 C327,216.246 329.527,233.487 334.5,231 340.801,227.849 337.215,213 327,213  Z"/>

<path  fill="#F0F080" stroke-width="0" stroke="#F0F080" d = " M343 213 L342,214 C342,214 343,213 343,213  Z"/>

<path  fill="#FFB2D8" stroke-width="0" stroke="#FFB2D8" d = " M176 264 C178.014,264 181.932,261.716 184.5,263 186.531,264.016 190.747,265 193,265 193,261.037 195.391,259.718 197,256.5 200.872,248.756 209,230.636 209,222 209,222 209,221 209,221 209,221 208,216 208,216 208,216 201,214 201,214 197.321,214 194.933,217 192,217 192,217 171,259 171,259 174.115,259 175,259.885 175,263 175,263 176,264 176,264  Z"/>

<path  fill="#FFB2D8" stroke-width="0" stroke="#FFB2D8" d = " M281 264 C278.579,264 274.322,261.589 271.5,263 269.469,264.016 265.253,265 263,265 263,253.092 247,235.381 247,222 247,222 248,217 248,217 250.232,217 252.029,214 255,214 259.048,214 261.597,217 265,217 265,226.601 285,251.189 285,259 282.774,259 281,260.774 281,263 281,263 281,264 281,264  Z"/>

<path  fill="#F0F080" stroke-width="0" stroke="#F0F080" d = " M342 214 C342,215.658 340.539,217 339,217 339,217 338,214 338,214 338,214 342,214 342,214  Z"/>

<path  fill="#FDA5D2" stroke-width="0" stroke="#FDA5D2" d = " M171 223 C171,233.47 160.064,235.373 156,243.5 153.598,248.304 158.321,267 150,267 140.479,267 131.295,252.911 136,243.5 143.192,229.117 143.965,215 165,215 165,215 169,218 169,218 169,219.624 171,220.75 171,223  Z"/>

<path  fill="#FDA5D2" stroke-width="0" stroke="#FDA5D2" d = " M315 265 C312.154,265 309.618,267 306,267 298.54,267 302.168,246.837 300,242.5 295.818,234.136 285,233.381 285,223 286.579,223 286,220.145 286,219 286,219 287,218 287,218 287,218 288,217 288,217 288,217 289,217 289,217 289,217 290,216 290,216 290,216 292,215 292,215 307.646,215 313.117,226.734 319,238.5 320.323,241.145 319.643,244.786 321,247.5 322.789,251.078 319,256.318 319,260 317.423,260 317,261.762 317,263 317,263 316,264 316,264 316,264 315,265 315,265  Z"/>

<path  fill="#FF9BCD" stroke-width="0" stroke="#FF9BCD" d = " M290 216 L289,217 C289,217 290,216 290,216  Z"/>

<path  fill="#FCB3D9" stroke-width="0" stroke="#FCB3D9" d = " M150 267 C150,271.431 155.571,272 159,272 159,270.149 165.961,265 167,265 167,265 168,264 168,264 168,264 171,259 171,259 171,259 192,217 192,217 186.19,217 180.355,221 175,221 175,221 171,223 171,223 171,233.47 160.064,235.373 156,243.5 153.598,248.304 158.321,267 150,267  Z"/>

<path  fill="#FCB3D9" stroke-width="0" stroke="#FCB3D9" d = " M306 267 C306,273.081 300.437,271 297,271 297,271 289,265 289,265 289,263.666 286.028,259 285,259 285,251.189 265,226.601 265,217 271.013,217 276.297,221 282,221 282,222.577 283.762,223 285,223 285,233.381 295.818,234.136 300,242.5 302.168,246.837 298.54,267 306,267  Z"/>

<path  fill="#FF9BCD" stroke-width="0" stroke="#FF9BCD" d = " M288 217 L287,218 C287,218 288,217 288,217  Z"/>

<path  fill="#FF9BCD" stroke-width="0" stroke="#FF9BCD" d = " M175 221 L171,223 C171,220.75 169,219.624 169,218 172.275,218 171.49,221 175,221  Z"/>

<path  fill="#FF9BCD" stroke-width="0" stroke="#FF9BCD" d = " M287 218 L286,219 C286,219 287,218 287,218  Z"/>

<path  fill="#FF9BCD" stroke-width="0" stroke="#FF9BCD" d = " M282 221 C282,222.577 283.762,223 285,223 286.579,223 286,220.145 286,219 286,219 282,221 282,221  Z"/>

<path  fill="#FF9BCD" stroke-width="0" stroke="#FF9BCD" d = " M209 222 L210,222 C210,222 209,221 209,221 209,221 209,222 209,222  Z"/>

<path  fill="#FEB0D8" stroke-width="0" stroke="#FEB0D8" d = " M196 278 C197.974,278 199.517,278 202,278 202,267.027 212.264,261 221,261 222.781,261 222.348,254.803 223,253.5 223.796,251.908 227,247.604 227,252 227,252 229,250 229,250 233.123,250 235,257.819 235,261 242.559,261 255,266.477 255,277 255,278.666 260,280.135 260,277 256.25,277 254.576,265 263,265 263,253.092 247,235.381 247,222 243.469,222 239.107,221 235,221 235,221 231,223 231,223 231,225.293 231.983,235 229,235 229,237.488 227,236.919 227,235 225.318,235 225,224.088 225,222 225,222 222,221 222,221 218.038,221 213.312,222 210,222 210,222 209,222 209,222 209,230.636 200.872,248.756 197,256.5 195.391,259.718 193,261.037 193,265 206.786,265 196,275.451 196,278  Z"/>

<path  fill="#FF9BCD" stroke-width="0" stroke="#FF9BCD" d = " M131 222 L130,224 C130,224 131,222 131,222  Z"/>

<path  fill="#FF9BCD" stroke-width="0" stroke="#FF9BCD" d = " M129 227 L128,228 C128,228 129,227 129,227  Z"/>

<path  fill="#FF9BCD" stroke-width="0" stroke="#FF9BCD" d = " M328 228 L329,229 C329,229 328,228 328,228  Z"/>

<path  fill="#FF9BCD" stroke-width="0" stroke="#FF9BCD" d = " M125 238 L124,239 C124,239 125,238 125,238  Z"/>

<path  fill="#FF9BCD" stroke-width="0" stroke="#FF9BCD" d = " M335 241 C335,242.59 333.897,256 333,256 333,250.741 332,244.594 332,240 332,240 335,241 335,241  Z"/>

<path  fill="#FF9BCD" stroke-width="0" stroke="#FF9BCD" d = " M124 241 C124,244.249 123,248.194 123,252 121.159,252 122,241.452 122,241 122,241 124,241 124,241  Z"/>

<path  fill="#C8C8CC" stroke-width="0" stroke="#C8C8CC" d = " M226 268 C224.376,268 223.25,270 221,270 221,270 221,261 221,261 222.781,261 222.348,254.803 223,253.5 223.796,251.908 227,247.604 227,252 227,252 227,266 227,266 227,266 226,267 226,267 226,267 226,268 226,268  Z"/>

<path  fill="#FEC6E2" stroke-width="0" stroke="#FEC6E2" d = " M227 273 L229,273 C229,273 230,272 230,272 230,272 230,267 230,267 230,261.78 229,255.789 229,250 229,250 227,252 227,252 227,252 227,266 227,266 227,266 226,267 226,267 226,267 226,268 226,268 226,268 227,272 227,272 227,272 227,273 227,273  Z"/>

<path  fill="#C8C8CC" stroke-width="0" stroke="#C8C8CC" d = " M230 267 C231.312,267 232.446,270 235,270 235,267.16 235,264.324 235,261 235,257.819 233.123,250 229,250 229,255.789 230,261.78 230,267  Z"/>

<path  fill="#FF9BCD" stroke-width="0" stroke="#FF9BCD" d = " M123 256 C124.014,256 125,259.959 125,261 123.362,261 123,257.424 123,256  Z"/>

<path  fill="#FF9BCD" stroke-width="0" stroke="#FF9BCD" d = " M333 258 L332,260 C332,260 333,258 333,258  Z"/>

<path  fill="#FEB3D6" stroke-width="0" stroke="#FEB3D6" d = " M175 264 C175,267.472 169.147,265 168,265 168,265 168,264 168,264 168,264 171,259 171,259 174.115,259 175,259.885 175,263 175,263 175,264 175,264  Z"/>

<path  fill="#FEB3D6" stroke-width="0" stroke="#FEB3D6" d = " M282 265 C284.123,265 286.704,265 289,265 289,263.666 286.028,259 285,259 282.774,259 281,260.774 281,263 281,263 282,265 282,265  Z"/>

<path  fill="#FDB2D9" stroke-width="0" stroke="#FDB2D9" d = " M221 270 C221,273.657 210.001,277.75 207.5,279 205.544,279.978 203.423,278 202,278 202,267.027 212.264,261 221,261 221,261 221,270 221,270  Z"/>

<path  fill="#FDB2D9" stroke-width="0" stroke="#FDB2D9" d = " M235 270 L237.5,273 C241.244,274.872 244.707,277.104 248.5,279 251.356,280.428 253.053,277 255,277 255,266.477 242.559,261 235,261 235,264.324 235,267.16 235,270  Z"/>

<path  fill="#FF9BCD" stroke-width="0" stroke="#FF9BCD" d = " M319 260 C317.423,260 317,261.762 317,263 318.577,263 319,261.238 319,260  Z"/>

<path  fill="#FF9BCD" stroke-width="0" stroke="#FF9BCD" d = " M332 260 L331,262 C331,262 332,260 332,260  Z"/>

<path  fill="#FF9BCD" stroke-width="0" stroke="#FF9BCD" d = " M125 262 L127,265 C125.423,265 125,263.238 125,262  Z"/>

<path  fill="#FF9BCD" stroke-width="0" stroke="#FF9BCD" d = " M175 264 L176,264 C176,264 175,263 175,263 175,263 175,264 175,264  Z"/>

<path  fill="#FCB2D9" stroke-width="0" stroke="#FCB2D9" d = " M196 278 L184.5,289 C180.207,291.146 177.179,285 174,285 170.17,285 167.708,273 161,273 161,273 159,272 159,272 159,270.149 165.961,265 167,265 167,265 168,265 168,265 169.147,265 175,267.472 175,264 175,264 176,264 176,264 178.014,264 181.932,261.716 184.5,263 186.531,264.016 190.747,265 193,265 206.786,265 196,275.451 196,278  Z"/>

<path  fill="#FCB2D9" stroke-width="0" stroke="#FCB2D9" d = " M260 277 C260.332,277 269.016,287.758 271.5,289 276.136,291.318 278.683,285 282,285 288.716,285 288.298,273 295,273 296.747,273 297,272.747 297,271 297,271 289,265 289,265 286.704,265 284.123,265 282,265 282,265 281,264 281,264 278.579,264 274.322,261.589 271.5,263 269.469,264.016 265.253,265 263,265 254.576,265 256.25,277 260,277  Z"/>

<path  fill="#FF9BCD" stroke-width="0" stroke="#FF9BCD" d = " M281 264 L282,265 C282,265 281,263 281,263 281,263 281,264 281,264  Z"/>

<path  fill="#FF9BCD" stroke-width="0" stroke="#FF9BCD" d = " M317 263 L316,264 C316,264 317,263 317,263  Z"/>

<path  fill="#FF9BCD" stroke-width="0" stroke="#FF9BCD" d = " M331 263 L330,265 C330,265 331,263 331,263  Z"/>

<path  fill="#FF9BCD" stroke-width="0" stroke="#FF9BCD" d = " M167 265 L168,265 C168,265 168,264 168,264 168,264 167,265 167,265  Z"/>

<path  fill="#FF9BCD" stroke-width="0" stroke="#FF9BCD" d = " M316 264 L315,265 C315,265 316,264 316,264  Z"/>

<path  fill="#FF9BCD" stroke-width="0" stroke="#FF9BCD" d = " M299 277 C300.631,277 303.369,277 305,277 305,277 311,275 311,275 311,275 311,274 311,274 311,274 307.5,275 307.5,275 304.65,276.425 305.06,271.22 307.5,270 309.19,269.155 315,267.825 315,265 312.154,265 309.618,267 306,267 306,273.081 300.437,271 297,271 297,272.747 296.747,273 295,273 295,276.041 299,273.766 299,277  Z"/>

<path  fill="#FF9BCD" stroke-width="0" stroke="#FF9BCD" d = " M330 265 L329,266 C329,266 330,265 330,265  Z"/>

<path  fill="#FF9BCD" stroke-width="0" stroke="#FF9BCD" d = " M133 272 L134,274 C132.218,274 127,267.518 127,266 127,266 133,272 133,272  Z"/>

<path  fill="#FF9BCD" stroke-width="0" stroke="#FF9BCD" d = " M227 266 L226,267 C226,267 227,266 227,266  Z"/>

<path  fill="#FF9BCD" stroke-width="0" stroke="#FF9BCD" d = " M280 293 C280,295.334 275.819,294.341 274.5,295 267.65,298.425 257.064,300 249,300 249,298.184 251.702,297.904 250,294.5 250,294.5 245,289 245,289 245,289 251,292.5 251,292.5 251,292.5 245.5,286 245.5,286 250.07,286 253.778,296.639 254.5,297 255.892,297.696 259.388,295.723 260,294.5 260,294.5 259.5,291 259.5,291 261.724,291 266,294.724 266,292.5 266,291.261 244.204,278.352 241.5,277 238.771,275.635 237.84,279.67 236.5,279 233.241,277.371 235.094,272 230,272 230,272 230,267 230,267 231.312,267 232.446,270 235,270 235,270 237.5,273 237.5,273 241.244,274.872 244.707,277.104 248.5,279 251.356,280.428 253.053,277 255,277 255,278.666 260,280.135 260,277 260.332,277 269.016,287.758 271.5,289 276.136,291.318 278.683,285 282,285 282,289.442 286.826,285 289,285 289,286.658 274.731,293 280,293  Z"/>

<path  fill="#FF9BCD" stroke-width="0" stroke="#FF9BCD" d = " M329 267 C327.253,267 327,267.253 327,269 327,269 329,267 329,267  Z"/>

<path  fill-rule="evenodd" fill="#FF9BCD" stroke-width="0" stroke="#FF9BCD" d = " M205 292 C205,293.93 206.93,292 205,292  M177 293 C177,295.334 181.181,294.341 182.5,295 188.125,297.812 197.49,300 204,300 205.242,300 213,302.558 213,300 201.064,300 208,297.493 208,292 204.581,292 208.035,289 206.5,289 201.792,289 204.031,299.266 199.5,297 197.159,295.83 196.799,292.15 196.5,292 195.513,291.507 192.089,294.679 191,292.5 190.704,291.908 197.349,287.575 198.5,287 204.138,284.181 208.953,279.773 214.5,277 217.227,275.637 218.757,279 219.5,279 222.272,279 222.447,272 227,272 227,272 226,268 226,268 224.376,268 223.25,270 221,270 221,273.657 210.001,277.75 207.5,279 205.544,279.978 203.423,278 202,278 199.517,278 197.974,278 196,278 196,278 184.5,289 184.5,289 180.207,291.146 177.179,285 174,285 174,289.182 170.989,285 167,285 167,288.016 174.643,289.071 176.5,290 177.487,290.493 179.117,293 177,293  Z"/>

<path  fill="#FF9BCD" stroke-width="0" stroke="#FF9BCD" d = " M327 269 L326,270 C326,270 327,269 327,269  Z"/>

<path  fill="#FF9BCD" stroke-width="0" stroke="#FF9BCD" d = " M326 270 L325,271 C325,271 326,270 326,270  Z"/>

<path  fill="#C9CACA" stroke-width="0" stroke="#C9CACA" d = " M149 281 L156,283 C156,280.972 151,280.986 151,277 151,277 146,275 146,275 143.494,275 138.687,272 133,272 133,272 134,274 134,274 134,274 136,275 136,275 136,275 137,275 137,275 137,275 138,276 138,276 138,276 139,277 139,277 139,277 140,277 140,277 140,277 143,278 143,278 143,278 144,279 144,279 144,279 148,281 148,281 148,281 149,281 149,281  Z"/>

<path  fill="#C9CACA" stroke-width="0" stroke="#C9CACA" d = " M303 283 L304,283 C304,281.423 305.762,281 307,281 307,281 309,281 309,281 309,279.423 310.762,279 312,279 312,279 313,279 313,279 313,279 314,278 314,278 314,278 315,277 315,277 315,277 317,277 317,277 317,277 319,276 319,276 319,276 320,275 320,275 320,275 321,275 321,275 321,275 322,274 322,274 322,274 323,273 323,273 323,273 323,272 323,272 319.731,272 316.679,273 313,273 313,273 311,275 311,275 311,275 305,277 305,277 305,280.233 301,281.452 301,283 301,283 303,283 303,283  Z"/>

<path  fill="#FF9BCD" stroke-width="0" stroke="#FF9BCD" d = " M323 272 L323,273 C324.747,273 325,272.747 325,271 325,271 323,272 323,272  Z"/>

<path  fill-rule="evenodd" fill="#FFB3D8" stroke-width="0" stroke="#FFB3D8" d = " M208 287 C208,291.136 210.609,287 208,287  M216 286 C216,287.93 217.93,286 216,286  M211 286 C211,287.93 212.93,286 211,286  M221 283 C221,284.93 222.93,283 221,283  M209 291 L208,292 C204.581,292 208.035,289 206.5,289 201.792,289 204.031,299.266 199.5,297 197.159,295.83 196.799,292.15 196.5,292 195.513,291.507 192.089,294.679 191,292.5 190.704,291.908 197.349,287.575 198.5,287 204.138,284.181 208.953,279.773 214.5,277 217.227,275.637 218.757,279 219.5,279 222.272,279 222.447,272 227,272 227,272 227,273 227,273 227,273 227,277 227,277 227,277 227,278 227,278 227,278 226,279 226,279 224.293,279 219.607,283 227,283 227,283 227,285 227,285 227,285 226,286 226,286 226,286 220.5,290 220.5,290 216.608,291.946 216,289.112 216,287.5 216,286.046 213,287.865 213,289 213,289 212,289 212,289 212,289 211,290 211,290 211,290 209,291 209,291  Z"/>

<path  fill="#FF9BCD" stroke-width="0" stroke="#FF9BCD" d = " M230 272 L229,273 C229,273 230,272 230,272  Z"/>

<path  fill-rule="evenodd" fill="#FFB3D8" stroke-width="0" stroke="#FFB3D8" d = " M239 286 C239,287.93 240.93,286 239,286  M244 289 L245,289 C245,289 251,292.5 251,292.5 251,292.5 245.5,286 245.5,286 250.07,286 253.778,296.639 254.5,297 255.892,297.696 259.388,295.723 260,294.5 260,294.5 259.5,291 259.5,291 261.724,291 266,294.724 266,292.5 266,291.261 244.204,278.352 241.5,277 238.771,275.635 237.84,279.67 236.5,279 233.241,277.371 235.094,272 230,272 230,272 229,273 229,273 229,275.518 231,277.286 231,279 231,279 231,280 231,280 231,280 234.5,284 234.5,284 234.5,284 230,282 230,282 230,282 230,283 230,283 230,283 230,285 230,285 230,285 230,286 230,286 231.94,286 236.313,290 241,290 241,286.677 244,286.96 244,289  Z"/>

<path  fill="#C8C8CB" stroke-width="0" stroke="#C8C8CB" d = " M167 285 C170.989,285 174,289.182 174,285 170.17,285 167.708,273 161,273 161,273 157,276 157,276 157,277.539 161,278.187 161,281 162.562,281 166,283.189 166,285 166,285 167,285 167,285  Z"/>

<path  fill="#FF9BCD" stroke-width="0" stroke="#FF9BCD" d = " M227 277 L231,279 C231,277.286 229,275.518 229,273 229,273 227,273 227,273 227,273 227,277 227,277  Z"/>

<path  fill="#C8C8CB" stroke-width="0" stroke="#C8C8CB" d = " M289 285 L290,285 C290,285 291,284 291,284 291,284 295,281 295,281 295,281 299,277 299,277 299,273.766 295,276.041 295,273 288.298,273 288.716,285 282,285 282,289.442 286.826,285 289,285  Z"/>

<path  fill="#C9C9C8" stroke-width="0" stroke="#C9C9C8" d = " M311 274 L311,275 C311,275 313,273 313,273 313,273 311,274 311,274  Z"/>

<path  fill="#FF9BCD" stroke-width="0" stroke="#FF9BCD" d = " M323 273 L322,274 C322,274 323,273 323,273  Z"/>

<path  fill="#FF9BCD" stroke-width="0" stroke="#FF9BCD" d = " M322 274 L321,275 C321,275 322,274 322,274  Z"/>

<path  fill="#FF9BCD" stroke-width="0" stroke="#FF9BCD" d = " M137 275 L137,276 C137,276 136,275 136,275 136,275 137,275 137,275  Z"/>

<path  fill="#C9C9C8" stroke-width="0" stroke="#C9C9C8" d = " M137 276 L138,276 C138,276 137,275 137,275 137,275 137,276 137,276  Z"/>

<path  fill="#FF9BCD" stroke-width="0" stroke="#FF9BCD" d = " M320 275 L319,276 C319,276 320,275 320,275  Z"/>

<path  fill="#FF9BCD" stroke-width="0" stroke="#FF9BCD" d = " M138 276 L139,277 C139,277 138,276 138,276  Z"/>

<path  fill="#FEB0D9" stroke-width="0" stroke="#FEB0D9" d = " M157 283 L161,283 C161,283 161,281 161,281 161,278.187 157,277.539 157,276 154.876,276 152.564,277 151,277 151,280.986 156,280.972 156,283 156,283 157,283 157,283  Z"/>

<path  fill="#FEB0D9" stroke-width="0" stroke="#FEB0D9" d = " M299 283 L301,283 C301,281.452 305,280.233 305,277 303.369,277 300.631,277 299,277 299,277 295,281 295,281 295,281 295,283 295,283 295,283 299,283 299,283  Z"/>

<path  fill="#FF9BCD" stroke-width="0" stroke="#FF9BCD" d = " M319 276 L317,277 C317,277 319,276 319,276  Z"/>

<path  fill="#FF9BCD" stroke-width="0" stroke="#FF9BCD" d = " M143 278 L143,279 C141.762,279 140,278.577 140,277 140,277 143,278 143,278  Z"/>

<path  fill="#FFC6E2" stroke-width="0" stroke="#FFC6E2" d = " M226 286 C226,290.12 230,290.12 230,286 230,286 230,285 230,285 228.601,285 228.601,283 230,283 230,283 230,282 230,282 230,282 231,280 231,280 231,280 231,279 231,279 231,279 227,277 227,277 227,277 227,278 227,278 227,278 226,279 226,279 226,279 227,283 227,283 227,283 227,285 227,285 227,285 226,286 226,286  Z"/>

<path  fill="#C9C9C8" stroke-width="0" stroke="#C9C9C8" d = " M314 278 L315,278 C315,278 315,277 315,277 315,277 314,278 314,278  Z"/>

<path  fill="#FF9BCD" stroke-width="0" stroke="#FF9BCD" d = " M317 277 L315,278 C315,278 315,277 315,277 315,277 317,277 317,277  Z"/>

<path  fill="#C9C9C8" stroke-width="0" stroke="#C9C9C8" d = " M143 279 L144,279 C144,279 143,278 143,278 143,278 143,279 143,279  Z"/>

<path  fill="#FF9BCD" stroke-width="0" stroke="#FF9BCD" d = " M227 278 L226,279 C226,279 227,278 227,278  Z"/>

<path  fill="#FF9BCD" stroke-width="0" stroke="#FF9BCD" d = " M315 278 L313,279 C313,279 314,278 314,278 314,278 315,278 315,278  Z"/>

<path  fill="#FF9BCD" stroke-width="0" stroke="#FF9BCD" d = " M144 279 L148,281 C148,281 144,279 144,279  Z"/>

<path  fill="#FF9BCD" stroke-width="0" stroke="#FF9BCD" d = " M226 279 C224.293,279 219.607,283 227,283 227,283 226,279 226,279  Z"/>

<path  fill="#FF9BCD" stroke-width="0" stroke="#FF9BCD" d = " M312 279 C310.762,279 309,279.423 309,281 310.238,281 312,280.577 312,279  Z"/>

<path  fill="#FF9BCD" stroke-width="0" stroke="#FF9BCD" d = " M231 280 L234.5,284 L230,282 C230,282 231,280 231,280  Z"/>

<path  fill="#FF9BCD" stroke-width="0" stroke="#FF9BCD" d = " M157 283 L176,293 C169.385,293 160.258,286.879 154.5,284 154.5,284 149,281 149,281 149,281 156,283 156,283 156,283 157,283 157,283  Z"/>

<path  fill="#FF9BCD" stroke-width="0" stroke="#FF9BCD" d = " M161 283 L166,285 C166,283.189 162.562,281 161,281 161,281 161,283 161,283  Z"/>

<path  fill="#FF9BCD" stroke-width="0" stroke="#FF9BCD" d = " M295 283 L291,284 C291,284 295,281 295,281 295,281 295,283 295,283  Z"/>

<path  fill="#FF9BCD" stroke-width="0" stroke="#FF9BCD" d = " M307 281 C305.762,281 304,281.423 304,283 305.238,283 307,282.577 307,281  Z"/>

<path  fill="#CBC7CC" stroke-width="0" stroke="#CBC7CC" d = " M176 293 L177,293 C179.117,293 177.487,290.493 176.5,290 174.643,289.071 167,288.016 167,285 167,285 166,285 166,285 166,285 161,283 161,283 161,283 157,283 157,283 157,283 176,293 176,293  Z"/>

<path  fill="#FF9BCD" stroke-width="0" stroke="#FF9BCD" d = " M221 283 C221,284.93 222.93,283 221,283  Z"/>

<path  fill="#FF9BCD" stroke-width="0" stroke="#FF9BCD" d = " M230 283 C228.601,283 228.601,285 230,285 230,285 230,283 230,283  Z"/>

<path  fill="#CBC7CC" stroke-width="0" stroke="#CBC7CC" d = " M280 293 L281,293 C281,293 283,292 283,292 283,292 285,291 285,291 285,289.183 292.169,287 294,287 294,284.891 296.535,285 298,285 298,285 299,283 299,283 299,283 295,283 295,283 295,283 291,284 291,284 291,284 290,285 290,285 290,285 289,285 289,285 289,286.658 274.731,293 280,293  Z"/>

<path  fill="#FF9BCD" stroke-width="0" stroke="#FF9BCD" d = " M303 283 C303,284.638 299.424,285 298,285 298,285 299,283 299,283 299,283 301,283 301,283 301,283 303,283 303,283  Z"/>

<path  fill="#FF9BCD" stroke-width="0" stroke="#FF9BCD" d = " M291 284 L290,285 C290,285 291,284 291,284  Z"/>

<path  fill="#FF9BCD" stroke-width="0" stroke="#FF9BCD" d = " M227 285 L226,286 C226,286 227,285 227,285  Z"/>

<path  fill="#FF9BCD" stroke-width="0" stroke="#FF9BCD" d = " M298 285 C296.535,285 294,284.891 294,287 295.465,287 298,287.109 298,285  Z"/>

<path  fill="#FF9BCD" stroke-width="0" stroke="#FF9BCD" d = " M211 286 C211,287.93 212.93,286 211,286  Z"/>

<path  fill="#FF9BCD" stroke-width="0" stroke="#FF9BCD" d = " M216 286 C216,287.93 217.93,286 216,286  Z"/>

<path  fill="#FF9BCD" stroke-width="0" stroke="#FF9BCD" d = " M218 299 C222.617,299 227.845,292 228.5,292 L229.5,295 L238,299 C238,297.082 232.713,296.073 234,293.5 234,293.5 241,290 241,290 236.313,290 231.94,286 230,286 230,290.12 226,290.12 226,286 226,286 220.5,290 220.5,290 216.608,291.946 216,289.112 216,287.5 216,286.046 213,287.865 213,289 214.058,289 223.305,293.891 223,294.5 223,294.5 218,299 218,299  Z"/>

<path  fill="#FF9BCD" stroke-width="0" stroke="#FF9BCD" d = " M239 286 C239,287.93 240.93,286 239,286  Z"/>

<path  fill="#FF9BCD" stroke-width="0" stroke="#FF9BCD" d = " M208 287 C208,291.136 210.609,287 208,287  Z"/>

<path  fill="#FF9BCD" stroke-width="0" stroke="#FF9BCD" d = " M244 289 L241,290 C241,286.677 244,286.96 244,289  Z"/>

<path  fill="#FF9BCD" stroke-width="0" stroke="#FF9BCD" d = " M294 287 C292.169,287 285,289.183 285,291 286.831,291 294,288.817 294,287  Z"/>

<path  fill="#FF9BCD" stroke-width="0" stroke="#FF9BCD" d = " M212 289 L211,290 C211,290 212,289 212,289  Z"/>

<path  fill="#C7C9C9" stroke-width="0" stroke="#C7C9C9" d = " M213 300 L214,300 C214,298.527 215.952,299 217,299 217,299 218,299 218,299 218,299 223,294.5 223,294.5 223.305,293.891 214.058,289 213,289 213,289 212,289 212,289 212,289 211,290 211,290 211,290 209,291 209,291 209,291 208,292 208,292 208,297.493 201.064,300 213,300  Z"/>

<path  fill="#C7C9C9" stroke-width="0" stroke="#C7C9C9" d = " M240 299 L249,300 C249,298.184 251.702,297.904 250,294.5 250,294.5 245,289 245,289 245,289 244,289 244,289 244,289 241,290 241,290 241,290 234,293.5 234,293.5 232.713,296.073 238,297.082 238,299 238,299 240,299 240,299  Z"/>

<path  fill="#FF9BCD" stroke-width="0" stroke="#FF9BCD" d = " M211 290 L209,291 C209,291 211,290 211,290  Z"/>

<path  fill="#FF9BCD" stroke-width="0" stroke="#FF9BCD" d = " M209 291 L208,292 C208,292 209,291 209,291  Z"/>

<path  fill="#FF9BCD" stroke-width="0" stroke="#FF9BCD" d = " M285 291 L283,292 C283,292 285,291 285,291  Z"/>

<path  fill="#FFB3D8" stroke-width="0" stroke="#FFB3D8" d = " M205 292 C205,293.93 206.93,292 205,292  Z"/>

<path  fill="#FF9BCD" stroke-width="0" stroke="#FF9BCD" d = " M283 292 L281,293 C281,293 283,292 283,292  Z"/>

<path  fill="#FF9BCD" stroke-width="0" stroke="#FF9BCD" d = " M217 299 C215.952,299 214,298.527 214,300 215.048,300 217,300.473 217,299  Z"/>

<path  fill="#FF9BCD" stroke-width="0" stroke="#FF9BCD" d = " M240 299 L249,300 C249,302.308 240,300.633 240,299  Z"/>

</g>
</svg>
