<svg xmlns="http://www.w3.org/2000/svg" xmlns:xlink="http://www.w3.org/1999/xlink"  viewBox="0 0 456 320">
<g>
<rect width="456" height="320" fill="#000000"  stroke-width="0" /> 
<path  fill="#99D2BD" stroke-width="0" stroke="#99D2BD" d = " M168 170 L170.5,169 L172,174.5 L178,188.5 C181.332,195.163 186.365,204.432 193.5,208 L203.5,209 L208,211 C213.313,211 218.882,194.736 221,190.5 221,190.5 221,167 221,167 221,150.091 225.974,128 204,128 204,128 195.5,128 195.5,128 192.421,129.539 189.659,131.421 186.5,133 181.473,135.513 176.983,141.533 175,145.5 171.304,152.891 168,161.161 168,170  Z"/>

<path  fill="#99D2BD" stroke-width="0" stroke="#99D2BD" d = " M289 171 L286.5,169 C285.528,169.486 278.255,188.99 277,191.5 274.342,196.817 269.084,205.208 263.5,208 260.389,209.555 255.529,207.486 252.5,209 L249,211 C243.308,211 237.889,196.277 236,192.5 231.9,184.3 235,155.227 235,144.5 235,141.974 237.211,132.145 239.5,131 245.41,128.045 257.659,125.58 264.5,129 264.5,129 269.5,133 269.5,133 274.576,135.538 279.629,141.759 282,146.5 285.406,153.311 289,163.028 289,171  Z"/>

<path  fill="#C7CBCA" stroke-width="0" stroke="#C7CBCA" d = " M168 170 L170.5,169 L172,174.5 L178,188.5 C181.332,195.163 186.365,204.432 193.5,208 L203.5,209 L208,211 C208,211 199.5,219 199.5,219 196.99,221.51 184.974,244.448 179,232.5 179,232.5 179,213.5 179,213.5 176.727,208.955 173.308,205.115 171,200.5 166.829,192.159 168,178.78 168,170  Z"/>

<path  fill="#C7CBCA" stroke-width="0" stroke="#C7CBCA" d = " M288 185 C288,196.483 281.749,205.001 277,214.5 274.047,220.406 282.699,230.9 274.5,235 266.28,239.11 260.879,222.379 257,218.5 254.4,215.9 249,214.172 249,211 249,211 252.5,209 252.5,209 255.529,207.486 260.389,209.555 263.5,208 269.084,205.208 274.342,196.817 277,191.5 278.255,188.99 285.528,169.486 286.5,169 286.5,169 289,171 289,171 289,171 289,183 289,183 289,183 288,185 288,185  Z"/>

<path  fill="#99D2BD" stroke-width="0" stroke="#99D2BD" d = " M289 183 L288,185 C288,185 289,183 289,183  Z"/>

</g>
</svg>
