<svg xmlns="http://www.w3.org/2000/svg" xmlns:xlink="http://www.w3.org/1999/xlink"  viewBox="0 0 456 320">
<g>
<rect width="456" height="320" fill="#000000"  stroke-width="0" /> 
<path  fill="#FE79FE" stroke-width="0" stroke="#FE79FE" d = " M153 71 C153,74.3832 150.516,80.4683 149,83.5 145.426,90.6478 153.483,112.991 159.5,116 165.472,118.986 168.689,119 175,119 175,115.403 168.558,112.617 167,109.5 167,109.5 165,103.5 165,103.5 159.136,91.7711 171.3,65.6001 180.5,61 183.524,59.4881 186.444,53 191,53 191,50.8992 197.772,45 199,45 199,45 199,44 199,44 199,44 181.5,45 181.5,45 181.5,45 168,52 168,52 168,52 167,53 167,53 167,53 163,57 163,57 163,57 162,58 162,58 162,58 161,59 161,59 161,60.7469 160.747,61 159,61 159,61 158,63 158,63 158,63 157,64 157,64 157,65.2383 156.577,67 155,67 155,67 153,71 153,71  Z"/>

<path  fill="#FF64FF" stroke-width="0" stroke="#FF64FF" d = " M199 45 L204,45 C204,43.3574 200.235,44 199,44 199,44 199,45 199,45  Z"/>

<path  fill="#FF64FF" stroke-width="0" stroke="#FF64FF" d = " M253 45 L258,45 C258,45 258,44 258,44 256.765,44 253,43.3574 253,45  Z"/>

<path  fill="#FE79FE" stroke-width="0" stroke="#FE79FE" d = " M295 59 C295,59.7066 303.752,72.0039 305,74.5 312.381,89.2611 305.67,111.915 291.5,119 287.898,120.801 284.417,119 281,119 281,117.75 289.518,108.464 291,105.5 297.462,92.5755 287.632,72.1321 278.5,63 275.114,59.6142 269.737,53 265,53 265,48.3979 258,48.9291 258,45 258,45 258,44 258,44 258,44 274.5,45 274.5,45 274.5,45 287,51 287,51 287,51 289,53 289,53 289,53 292,55 292,55 292,55 293,56 293,56 293,56 294,57 294,57 294,57 295,58 295,58 295,58 295,59 295,59  Z"/>

<path  fill="#FE79FF" stroke-width="0" stroke="#FE79FF" d = " M191 53 C195.878,53 193.777,62.0536 195,64.5 198.866,72.2319 193.808,86.1153 197,92.5 198.929,96.3575 200,98.2257 200,103 202.571,103 209.673,94.1532 211,91.5 214.923,83.6547 217.114,75.2716 221,67.5 223.233,63.0338 220,54.1579 220,50 220,50 215,48 215,48 215,48 214,47 214,47 214,47 212,47 212,47 212,47 210,46 210,46 210,46 209,46 209,46 209,46 207,45 207,45 207,45 204,45 204,45 204,45 199,45 199,45 197.772,45 191,50.8992 191,53  Z"/>

<path  fill="#FF64FF" stroke-width="0" stroke="#FF64FF" d = " M207 45 L209,46 C209,46 207,45 207,45  Z"/>

<path  fill="#FF64FF" stroke-width="0" stroke="#FF64FF" d = " M250 45 C248.952,45 247,44.5271 247,46 248.048,46 250,46.4729 250,45  Z"/>

<path  fill="#FE79FF" stroke-width="0" stroke="#FE79FF" d = " M265 53 C261.754,53 261,62.6266 261,65 261,78.1772 257,92.5366 257,104 257,104 247,93.5 247,93.5 247,93.5 243,88.5 243,88.5 239.535,81.57 238.488,73.4761 235,66.5 232.944,62.388 236,54.9644 236,51 236,51 237,50 237,50 237,50 241,48 241,48 241,48 242,47 242,47 242,47 244,47 244,47 245.048,47 247,47.4729 247,46 248.048,46 250,46.4729 250,45 250,45 253,45 253,45 253,45 258,45 258,45 258,48.9291 265,48.3979 265,53  Z"/>

<path  fill="#FF64FF" stroke-width="0" stroke="#FF64FF" d = " M210 46 L212,47 C212,47 210,46 210,46  Z"/>

<path  fill="#FF64FF" stroke-width="0" stroke="#FF64FF" d = " M247 46 C245.952,46 244,45.5271 244,47 245.048,47 247,47.4729 247,46  Z"/>

<path  fill="#FF64FF" stroke-width="0" stroke="#FF64FF" d = " M214 47 L215,48 C215,48 214,47 214,47  Z"/>

<path  fill="#FF64FF" stroke-width="0" stroke="#FF64FF" d = " M242 47 L241,48 C241,48 242,47 242,47  Z"/>

<path  fill="#FF64FF" stroke-width="0" stroke="#FF64FF" d = " M267 125 L270,127 C270,127 268,121.5 268,121.5 269.23,119.039 288.543,124 293,124 293,124 307,111 307,111 307,111 309,109 309,109 309,109 310,108 310,108 310,108 310,99 310,99 310,99 311,97 311,97 311,97 311,92 311,92 311,92 311,91 311,91 311,91 311,90 311,90 307.69,90 308.395,78.2908 307,75.5 307,75.5 305,72 305,72 305,69.3865 297.299,59 295,59 295,59.7066 303.752,72.0039 305,74.5 312.381,89.2611 305.67,111.915 291.5,119 287.898,120.801 284.417,119 281,119 276.648,119 257,109.14 257,104 257,104 247,93.5 247,93.5 247,93.5 243,88.5 243,88.5 239.535,81.57 238.488,73.4761 235,66.5 232.944,62.388 236,54.9644 236,51 234.061,51 229.668,56.1633 229,57.5 229,57.5 228.5,62 228.5,62 228.5,62 228,58.5 228,58.5 228,58.5 220,50 220,50 220,54.1579 223.233,63.0338 221,67.5 217.114,75.2716 214.923,83.6547 211,91.5 209.673,94.1532 202.571,103 200,103 200,103 199,104 199,104 199,104 198,106 198,106 198,106 197,107 197,107 197,110.962 178.98,119 175,119 168.689,119 165.472,118.986 159.5,116 153.483,112.991 145.426,90.6478 149,83.5 150.516,80.4683 153,74.3832 153,71 153,71 151,72 151,72 151,72 148,80.5 148,80.5 148,80.5 148,88.5 148,88.5 148,88.5 146,90 146,90 146,90 146,95 146,95 146,95 146,97 146,97 146,97 146,104 146,104 148.592,104 145.408,110 148,110 148,107.971 149,109.942 149,111 149,111 163,124 163,124 166.256,124 186.154,119.827 186.5,120 188.469,120.985 188,123.188 188,125 188,125 189,125 189,125 189,125 190,125 190,125 190,125 191,124 191,124 191,124 192,123 192,123 194.139,123 198.56,115.97 200.5,115 202.988,113.756 204.039,114.461 206.5,112 206.5,112 211,109 211,109 211,103.646 220,97.6434 220,94 212.482,94 219.448,75.0259 223.5,73 227.444,71.0281 226.961,77 228.5,77 229.356,77 229.618,71.0589 233.5,73 237.281,74.8907 243.061,91.2193 237.5,94 237.5,94 235,93 235,93 235,96.1912 246,104.034 246,109 246,111.698 265,119.833 265,124 265,124 266,125 266,125 266,125 267,125 267,125  Z"/>

<path  fill="#FF64FF" stroke-width="0" stroke="#FF64FF" d = " M237 50 L236,51 C236,51 237,50 237,50  Z"/>

<path  fill="#FF64FF" stroke-width="0" stroke="#FF64FF" d = " M287 51 L289,53 C289,53 287,51 287,51  Z"/>

<path  fill="#FF64FF" stroke-width="0" stroke="#FF64FF" d = " M168 52 L167,53 C167,53 168,52 168,52  Z"/>

<path  fill="#FE7AFE" stroke-width="0" stroke="#FE7AFE" d = " M197 107 C197,110.962 178.98,119 175,119 175,115.403 168.558,112.617 167,109.5 167,109.5 165,103.5 165,103.5 159.136,91.7711 171.3,65.6001 180.5,61 183.524,59.4881 186.444,53 191,53 195.878,53 193.777,62.0536 195,64.5 198.866,72.2319 193.808,86.1153 197,92.5 198.929,96.3575 200,98.2257 200,103 200,103 199,104 199,104 199,104 198,106 198,106 198,106 197,107 197,107  Z"/>

<path  fill="#FE7AFE" stroke-width="0" stroke="#FE7AFE" d = " M257 104 C257,109.14 276.648,119 281,119 281,117.75 289.518,108.464 291,105.5 297.462,92.5755 287.632,72.1321 278.5,63 275.114,59.6142 269.737,53 265,53 261.754,53 261,62.6266 261,65 261,78.1772 257,92.5366 257,104  Z"/>

<path  fill="#FF64FF" stroke-width="0" stroke="#FF64FF" d = " M292 55 L293,56 C293,56 292,55 292,55  Z"/>

<path  fill="#FF64FF" stroke-width="0" stroke="#FF64FF" d = " M163 57 L162,58 C162,58 163,57 163,57  Z"/>

<path  fill="#FF64FF" stroke-width="0" stroke="#FF64FF" d = " M294 57 L295,58 C295,58 294,57 294,57  Z"/>

<path  fill="#FF64FF" stroke-width="0" stroke="#FF64FF" d = " M162 58 L161,59 C161,59 162,58 162,58  Z"/>

<path  fill="#FF64FF" stroke-width="0" stroke="#FF64FF" d = " M161 59 L159,61 C160.747,61 161,60.7469 161,59  Z"/>

<path  fill="#FF64FF" stroke-width="0" stroke="#FF64FF" d = " M159 61 L158,63 C158,63 159,61 159,61  Z"/>

<path  fill="#FF64FF" stroke-width="0" stroke="#FF64FF" d = " M158 63 L157,64 C157,64 158,63 158,63  Z"/>

<path  fill="#FF64FF" stroke-width="0" stroke="#FF64FF" d = " M157 64 C155.423,64 155,65.7617 155,67 156.577,67 157,65.2383 157,64  Z"/>

<path  fill="#FF64FF" stroke-width="0" stroke="#FF64FF" d = " M155 67 C152.891,67 153,69.5345 153,71 153,71 155,67 155,67  Z"/>

<path  fill="#C9C8C8" stroke-width="0" stroke="#C9C8C8" d = " M151 72 C146,72 146,86.8225 146,90 146,90 148,88.5 148,88.5 148,88.5 148,80.5 148,80.5 148,80.5 151,72 151,72  Z"/>

<path  fill="#C9C8C8" stroke-width="0" stroke="#C9C8C8" d = " M310 81 L311,90 C307.69,90 308.395,78.2908 307,75.5 307,75.5 305,72 305,72 308.667,72 309,77.0454 309,80 309,80 310,81 310,81  Z"/>

<path  fill="#FC8FFF" stroke-width="0" stroke="#FC8FFF" d = " M235 93 L237.5,94 C243.061,91.2193 237.281,74.8907 233.5,73 229.618,71.0589 229.356,77 228.5,77 226.961,77 227.444,71.0281 223.5,73 219.448,75.0259 212.482,94 220,94 220,94 227,90 227,90 227,88.6007 229,88.6007 229,90 229,90 232,91 232,91 232,91 234,93 234,93 234,93 235,93 235,93  Z"/>

<path  fill-rule="evenodd" fill="#FDFB8F" stroke-width="0" stroke="#FDFB8F" d = " M120 125 C120,130.512 120.634,125 120,125  M114 167 C112.473,167 111.214,162.072 112,160.5 113.997,156.506 117,141.577 117,137 117,136.301 120.283,128 118.5,128 116.856,128 115,136.211 115,137.5 115,138.15 111.151,160.197 111,160.5 109.708,163.084 105,168.243 105,171 105,171 97,167 97,167 97,167 97,165 97,165 97,156.926 93,150.059 93,141 93,131.861 99.5391,98.9804 107.5,95 117.899,89.8006 132.75,69.0007 141,85.5 141,85.5 144,90 144,90 144,90 145,91 145,91 145,91 145,95 145,95 145,95 146,97 146,97 146,97 146,104 146,104 146,104 145,113 145,113 145,117.043 138.349,120.802 137,123.5 132.019,133.461 129.925,144.649 125,154.5 125,154.5 118,163.5 118,163.5 118,163.5 114,167 114,167  Z"/>

<path  fill="#FDFB8F" stroke-width="0" stroke="#FDFB8F" d = " M359 167 C355.795,167 353.909,170 351,170 351,170 346,161.5 346,161.5 346,161.5 341,134 341,134 341,134 336.5,125 336.5,125 335.072,125 338.661,132.822 339,133.5 341.341,138.183 341.156,151.812 344,157.5 344.639,158.779 344.258,166 343,166 333.058,166 324.78,134.059 321,126.5 321,126.5 311,113 311,113 311,111.765 311.643,108 310,108 310,108 310,99 310,99 310,99 311,97 311,97 311,97 311,92 311,92 311,92 312,91 312,91 312,91 312,90 312,90 312,90 313,89 313,89 314.242,89 317.995,74.7476 326.5,79 351.181,91.3405 363,112.591 363,141 363,141 363,152.5 363,152.5 361.381,155.737 359,161.291 359,165 359,165 359,167 359,167  Z"/>

<path  fill="#FF64FF" stroke-width="0" stroke="#FF64FF" d = " M309 80 L310,81 C310,81 309,80 309,80  Z"/>

<path  fill="#FF64FF" stroke-width="0" stroke="#FF64FF" d = " M227 90 C227.839,90 229,91.93 229,90 229,88.6007 227,88.6007 227,90  Z"/>

<path  fill="#F0F080" stroke-width="0" stroke="#F0F080" d = " M313 89 L312,90 C312,90 313,89 313,89  Z"/>

<path  fill="#F0F080" stroke-width="0" stroke="#F0F080" d = " M144 90 L145,91 C145,91 144,90 144,90  Z"/>

<path  fill="#A9A9A8" stroke-width="0" stroke="#A9A9A8" d = " M211 109 C213.795,109 225.821,103.661 228.5,105 230.504,106.002 244.07,109 246,109 246,104.034 235,96.1912 235,93 235,93 234,93 234,93 234,93 232,91 232,91 232,91 229,90 229,90 229,91.93 227.839,90 227,90 227,90 220,94 220,94 220,97.6434 211,103.646 211,109  Z"/>

<path  fill="#FF64FF" stroke-width="0" stroke="#FF64FF" d = " M232 91 L234,93 C234,93 232,91 232,91  Z"/>

<path  fill="#F0F080" stroke-width="0" stroke="#F0F080" d = " M312 91 L311,92 C311,92 311,91 311,91 311,91 312,91 312,91  Z"/>

<path  fill="#F0F080" stroke-width="0" stroke="#F0F080" d = " M146 95 L146,97 C146,97 145,95 145,95 145,95 146,95 146,95  Z"/>

<path  fill="#F0F080" stroke-width="0" stroke="#F0F080" d = " M311 97 L310,99 C310,99 311,97 311,97  Z"/>

<path  fill="#FE79FF" stroke-width="0" stroke="#FE79FF" d = " M200 103 L199,104 C199,104 200,103 200,103  Z"/>

<path  fill="#F0F080" stroke-width="0" stroke="#F0F080" d = " M148 110 C148,111.658 146.539,113 145,113 145,113 146,104 146,104 148.592,104 145.408,110 148,110  Z"/>

<path  fill="#FDFA91" stroke-width="0" stroke="#FDFA91" d = " M257 148 C255.329,148 243,150.092 243,151 241.181,151 220.975,153.237 220.5,153 215.239,150.369 206.022,148 200,148 200,146.527 198.048,147 197,147 197,147 196,147 196,147 196,145.383 191.417,143 190,143 190,143 189,143 189,143 189,139.635 184.027,140 182,140 182,140 181,134 181,134 183.795,134 189,127.634 189,125 189,125 190,125 190,125 190,125 191,124 191,124 191,124 192,123 192,123 194.139,123 198.56,115.97 200.5,115 202.988,113.756 204.039,114.461 206.5,112 206.5,112 211,109 211,109 213.795,109 225.821,103.661 228.5,105 230.504,106.002 244.07,109 246,109 246,111.698 265,119.833 265,124 265,124 266,125 266,125 266,125 267,125 267,125 267,125 272.5,133 272.5,133 273.419,133.459 275,132.235 275,134 275,136.124 274,138.436 274,140 272.909,140 268,139.078 268,142 268,142 267,143 267,143 267,143 266,143 266,143 266,143 265,144 265,144 265,144 264,145 264,145 262.762,145 261,145.423 261,147 261,147 259,147 259,147 259,147 257,148 257,148  Z"/>

<path  fill="#FE79FE" stroke-width="0" stroke="#FE79FE" d = " M198 106 L197,107 C197,107 198,106 198,106  Z"/>

<path  fill="#F0F080" stroke-width="0" stroke="#F0F080" d = " M309 109 C309,111.177 308.359,113 311,113 311,111.765 311.643,108 310,108 310,108 309,109 309,109  Z"/>

<path  fill="#FCFB90" stroke-width="0" stroke="#FCFB90" d = " M114 167 C120.709,167 131.592,167.316 135,160.5 L141,148.5 L142.5,143 L143,149.5 C140.484,154.533 135.083,161.666 138,167.5 138.465,168.43 138.817,172 140,172 140,172 144,164.5 144,164.5 148.573,159.927 160,142.95 160,137 160,125.508 149,120.278 149,111 149,109.942 148,107.971 148,110 148,111.658 146.539,113 145,113 145,117.043 138.349,120.802 137,123.5 132.019,133.461 129.925,144.649 125,154.5 125,154.5 118,163.5 118,163.5 118,163.5 114,167 114,167  Z"/>

<path  fill="#FCFB90" stroke-width="0" stroke="#FCFB90" d = " M343 166 C343,167.735 336.49,167 335,167 328.709,167 321.884,162.268 319,156.5 L313.5,142 L313,145.5 L316,154.5 C321.691,165.883 317,163.489 317,172 314.92,172 311.823,164.147 311,162.5 306.828,154.155 297,146.933 297,137 297,124.942 307,120.783 307,111 307,111 309,109 309,109 309,111.177 308.359,113 311,113 311,113 321,126.5 321,126.5 324.78,134.059 333.058,166 343,166  Z"/>

<path  fill="#F0F080" stroke-width="0" stroke="#F0F080" d = " M181 134 C178.612,134 174.614,139 171.5,139 L169.5,137 L160,137 C160,125.508 149,120.278 149,111 149,111 163,124 163,124 163,136.415 187,130.448 187,126 187,126 188,125 188,125 188,125 189,125 189,125 189,127.634 183.795,134 181,134  Z"/>

<path  fill="#F0F080" stroke-width="0" stroke="#F0F080" d = " M275 134 C276.171,134 283.29,138.395 284.5,139 L287,137 L297,137 C297,124.942 307,120.783 307,111 307,111 293,124 293,124 293,131.128 282.224,133.862 276.5,131 276.5,131 270,127 270,127 270,127 267,125 267,125 267,125 272.5,133 272.5,133 273.419,133.459 275,132.235 275,134  Z"/>

<path  fill="#FC90FF" stroke-width="0" stroke="#FC90FF" d = " M188 125 L187,126 C187,130.448 163,136.415 163,124 166.256,124 186.154,119.827 186.5,120 188.469,120.985 188,123.188 188,125  Z"/>

<path  fill="#FC90FF" stroke-width="0" stroke="#FC90FF" d = " M293 124 C288.543,124 269.23,119.039 268,121.5 L270,127 C270,127 276.5,131 276.5,131 282.224,133.862 293,131.128 293,124  Z"/>

<path  fill="#F0F080" stroke-width="0" stroke="#F0F080" d = " M192 123 L191,124 C191,124 192,123 192,123  Z"/>

<path  fill="#F0F080" stroke-width="0" stroke="#F0F080" d = " M191 124 L190,125 C190,125 191,124 191,124  Z"/>

<path  fill="#F0F080" stroke-width="0" stroke="#F0F080" d = " M265 124 L266,125 C266,125 265,124 265,124  Z"/>

<path  fill="#CBC9CC" stroke-width="0" stroke="#CBC9CC" d = " M120 125 C120,130.512 120.634,125 120,125  Z"/>

<path  fill="#FF64FF" stroke-width="0" stroke="#FF64FF" d = " M188 125 L187,126 C187,126 188,125 188,125  Z"/>

<path  fill="#CBC9CC" stroke-width="0" stroke="#CBC9CC" d = " M337 203 L344,210 C344,210 354.5,212 354.5,212 356.491,211.004 353.188,209.344 352.5,209 352.5,209 339.5,202 339.5,202 337.186,200.843 329.716,186 335,186 335,184.184 339.284,183.608 340.5,183 343.325,181.587 352.142,175.321 355.5,177 355.5,177 363.5,180 363.5,180 363.998,180.249 369,184.126 369,182.5 369,177.878 351,177.287 351,170 351,170 346,161.5 346,161.5 346,161.5 341,134 341,134 341,134 336.5,125 336.5,125 335.072,125 338.661,132.822 339,133.5 341.341,138.183 341.156,151.812 344,157.5 344.639,158.779 344.258,166 343,166 343,167.735 336.49,167 335,167 328.709,167 321.884,162.268 319,156.5 319,156.5 313.5,142 313.5,142 313.5,142 313,145.5 313,145.5 313,145.5 316,154.5 316,154.5 321.691,165.883 317,163.489 317,172 317,173.188 313.407,175.953 311.5,175 306.965,172.732 297.48,156 292,156 292,158.276 289.922,155 289,155 289,157.703 308,169.548 308,177 308,177 309,178 309,178 309,178 316,185 316,185 316,185 317,182 317,182 317,182 317,181 317,181 317,178.025 321.186,168.657 324.5,167 324.5,167 330.5,170 330.5,170 331.806,170.653 340,171.478 340,173.5 340,179.255 328,182.889 328,188 328,188 329,195 329,195 329,195 330,195 330,195 330,195 331,196 331,196 331,196 334,199 334,199 334,199 335,200 335,200 335,200 336,202 336,202 336,202 337,203 337,203  Z"/>

<path  fill="#CBC9CC" stroke-width="0" stroke="#CBC9CC" d = " M117 206 L112,210 C110.847,210 101,212.421 101,211.5 101,210.213 113.906,203.797 115.5,203 118.275,201.613 127.775,186 121,186 121,183.792 102.458,176.021 100.5,177 97.1562,178.672 93.9096,180.295 90.5,182 90.1933,182.153 87,183.756 87,182.5 87,178.889 105,176.413 105,171 105,168.243 109.708,163.084 111,160.5 111.151,160.197 115,138.15 115,137.5 115,136.211 116.856,128 118.5,128 120.283,128 117,136.301 117,137 117,141.577 113.997,156.506 112,160.5 111.214,162.072 112.473,167 114,167 120.709,167 131.592,167.316 135,160.5 135,160.5 141,148.5 141,148.5 141,148.5 142.5,143 142.5,143 142.5,143 143,149.5 143,149.5 140.484,154.533 135.083,161.666 138,167.5 138.465,168.43 138.817,172 140,172 140,176.04 145.591,175.318 147,172.5 147.178,172.144 162.395,156 164,156 164,156 165,157 165,157 165,159.636 149,169.699 149,177 149,177 148,178 148,178 144.675,178 144.291,184 141,184 141,184 140,182 140,182 140,182 139,181 139,181 139,176.962 136.107,174.715 134,170.5 134,170.5 131.5,167 131.5,167 131.5,167 124.5,171 124.5,171 124.5,171 117,172.5 117,172.5 113.786,178.929 129,183.85 129,189 129,190.974 127,192.517 127,195 127,195 126,196 126,196 126,196 122,200 122,200 122,200 121,201 121,201 121,201 120,202 120,202 120,202 119,203 119,203 119,203 119,204 119,204 119,204 118,205 118,205 118,205 117,206 117,206  Z"/>

<path  fill="#FFFC8E" stroke-width="0" stroke="#FFFC8E" d = " M164 156 C162.395,156 147.178,172.144 147,172.5 145.591,175.318 140,176.04 140,172 140,172 144,164.5 144,164.5 148.573,159.927 160,142.95 160,137 160,137 169.5,137 169.5,137 169.5,137 171.5,139 171.5,139 174.614,139 178.612,134 181,134 181,134 182,140 182,140 182,140 177,143 177,143 177,143 176,143 176,143 176,143 175,144 175,144 175,144 175,145 175,145 173.762,145 172,145.423 172,147 172,147 171,148 171,148 171,148 170,149 170,149 170,149 169,150 169,150 169,150 168,151 168,151 168,151 167,152 167,152 167,152 166,153 166,153 166,153 165,154 165,154 165,154 165,155 165,155 165,155 164,156 164,156  Z"/>

<path  fill="#FFFC8E" stroke-width="0" stroke="#FFFC8E" d = " M292 156 C297.48,156 306.965,172.732 311.5,175 313.407,175.953 317,173.188 317,172 314.92,172 311.823,164.147 311,162.5 306.828,154.155 297,146.933 297,137 297,137 287,137 287,137 287,137 284.5,139 284.5,139 283.29,138.395 276.171,134 275,134 275,136.124 274,138.436 274,140 274,140 279,143 279,143 279,143 280,143 280,143 280,143 281,144 281,144 283.021,144 291,152.018 291,154 291,154 292,156 292,156  Z"/>

<path  fill="#F0F080" stroke-width="0" stroke="#F0F080" d = " M188 143 L189,143 C189,139.635 184.027,140 182,140 182,140 177,143 177,143 177,143 182,143 182,143 182,143 183,143 183,143 183,143 184,143 184,143 184,141.465 188,141.465 188,143  Z"/>

<path  fill="#F0F080" stroke-width="0" stroke="#F0F080" d = " M274 143 L279,143 C279,143 274,140 274,140 272.909,140 268,139.078 268,142 269.145,142 272,141.421 272,143 272,143 273,143 273,143 273,143 274,143 274,143  Z"/>

<path  fill="#FCFC90" stroke-width="0" stroke="#FCFC90" d = " M93 141 C77.1621,141 89.5527,165 97,165 97,156.926 93,150.059 93,141  Z"/>

<path  fill="#FCFC90" stroke-width="0" stroke="#FCFC90" d = " M363 141 C379.478,141 366.579,165 359,165 359,161.291 361.381,155.737 363,152.5 363,152.5 363,141 363,141  Z"/>

<path  fill="#FF9B88" stroke-width="0" stroke="#FF9B88" d = " M184 143 L188,143 C188,141.465 184,141.465 184,143  Z"/>

<path  fill="#F0F080" stroke-width="0" stroke="#F0F080" d = " M267 143 L268,143 C268,143 268,142 268,142 268,142 267,143 267,143  Z"/>

<path  fill="#FF9B88" stroke-width="0" stroke="#FF9B88" d = " M268 143 L272,143 C272,141.421 269.145,142 268,142 268,142 268,143 268,143  Z"/>

<path  fill="#F0F080" stroke-width="0" stroke="#F0F080" d = " M176 143 L175,144 C175,144 176,143 176,143  Z"/>

<path  fill="#CBC9CC" stroke-width="0" stroke="#CBC9CC" d = " M175 145 L179,145 C179,145 181,144 181,144 181,144 182,144 182,144 182,144 182,143 182,143 182,143 177,143 177,143 177,143 176,143 176,143 176,143 175,144 175,144 175,144 175,145 175,145  Z"/>

<path  fill="#FF9B88" stroke-width="0" stroke="#FF9B88" d = " M183 143 L182,144 C182,144 182,143 182,143 182,143 183,143 183,143  Z"/>

<path  fill-rule="evenodd" fill="#FFAD6D" stroke-width="0" stroke="#FFAD6D" d = " M185 152 C185,159.282 166.556,167.972 160.5,171 158.523,171.989 153.858,177.216 155,179.5 156.381,182.262 162.556,179.972 164.5,179 L173.5,170 C178.955,167.272 184.195,163.653 189.5,161 194.394,158.553 188.595,152 185,152  M155 182 L156,186 C157.298,186 159.373,189.563 162.5,188 166.781,185.86 170.666,181.417 175.5,179 175.5,179 184.5,169 184.5,169 185.882,169 183.475,175.988 185.5,177 187.88,178.19 189,173.379 189,172 189,172 190,171 190,171 190,171 191,169 191,169 191,169 191,168 191,168 191,168 192,167 192,167 192,167 192,166 192,166 192,166 193,165 193,165 193,165 193,163 193,163 193,163 194,161 194,161 194,161 195,159 195,159 195,159 195,158 195,158 195,155.324 195,153.261 195,151 195,151 195,149 195,149 195,149 195,148 195,148 195,148 194,147 194,147 194,147 193,146 193,146 193,146 192,145 192,145 192,145 191,145 191,145 191,145 189,143 189,143 189,143 188,143 188,143 188,143 184,143 184,143 184,143 183,143 183,143 183,143 182,144 182,144 182,144 181,145 181,145 181,145 180,145 180,145 180,145 179,146 179,146 179,146 178,147 178,147 178,147 172,151 172,151 172,151 171,152 171,152 171,152 169,154 169,154 169,154 168,155 168,155 168,155 167,155 167,155 167,155 166,156 166,156 166,156 165,157 165,157 165,159.636 149,169.699 149,177 149,177 149,178 149,178 149,178 153,180 153,180 153,180 155,182 155,182  Z"/>

<path  fill="#FF9B88" stroke-width="0" stroke="#FF9B88" d = " M190 143 L191,145 C191,145 189,143 189,143 189,143 190,143 190,143  Z"/>

<path  fill="#F0F080" stroke-width="0" stroke="#F0F080" d = " M195 147 L196,147 C196,145.383 191.417,143 190,143 190,143 191,145 191,145 191,145 192,145 192,145 192,145 193,146 193,146 193,146 194,147 194,147 194,147 195,147 195,147  Z"/>

<path  fill="#F0F080" stroke-width="0" stroke="#F0F080" d = " M265 144 L266,144 C266,144 266,143 266,143 266,143 265,144 265,144  Z"/>

<path  fill="#FF9B88" stroke-width="0" stroke="#FF9B88" d = " M267 143 L266,144 C266,144 266,143 266,143 266,143 267,143 267,143  Z"/>

<path  fill-rule="evenodd" fill="#FFAD6D" stroke-width="0" stroke="#FFAD6D" d = " M268 152 C268,155.246 264.296,156.093 266,159.5 267.325,162.151 271.394,161.947 273.5,163 280.101,166.301 286.838,176.669 291.5,179 293.497,179.998 300.739,182.022 302,179.5 305.023,173.453 280.031,162.765 276.5,161 271.803,158.652 273.211,152 268,152  M307 178 C303.746,178 301,182.041 301,185 299.324,185 297.408,189.954 293.5,188 293.5,188 288.5,183 288.5,183 286.217,181.859 280.259,180.018 279,177.5 277.668,174.835 274.789,170.145 272.5,169 269.664,167.582 273.308,176.096 271.5,177 269.295,178.103 267,173.706 267,172 267,172 266,170 266,170 266,170 265,167 265,167 265,167 264,166 264,166 264,166 264,165 264,165 264,165 263,164 263,164 263,164 262,160 262,160 262,160 261,158 261,158 261,158 261,157 261,157 261,157 261,150 261,150 261,150 261,149 261,149 261,149 262,148 262,148 262,148 263,147 263,147 263,147 264,146 264,146 264,146 265,145 265,145 265,145 266,144 266,144 266,144 267,143 267,143 267,143 268,143 268,143 268,143 272,143 272,143 272,143 273,143 273,143 273,143 275,145 275,145 275,145 276,145 276,145 276,145 277,146 277,146 277,146 278,146 278,146 278,146 279,147 279,147 279,147 287,153 287,153 287,153 288,154 288,154 288,154 289,155 289,155 289,157.703 308,169.548 308,177 308,177 307,178 307,178  Z"/>

<path  fill="#FF9B88" stroke-width="0" stroke="#FF9B88" d = " M275 144 L275,145 C275,145 273,143 273,143 273,143 274,143 274,143 274,143 275,144 275,144  Z"/>

<path  fill="#CBC9CC" stroke-width="0" stroke="#CBC9CC" d = " M281 144 C283.021,144 291,152.018 291,154 287.825,154 282.216,144 275,144 275,144 274,143 274,143 274,143 279,143 279,143 279,143 280,143 280,143 280,143 281,144 281,144  Z"/>

<path  fill="#F0F080" stroke-width="0" stroke="#F0F080" d = " M280 143 L281,144 C281,144 280,143 280,143  Z"/>

<path  fill="#CBC7CC" stroke-width="0" stroke="#CBC7CC" d = " M180 145 L181,145 C181,145 181,144 181,144 181,144 179,145 179,145 179,145 180,145 180,145  Z"/>

<path  fill="#FF9B88" stroke-width="0" stroke="#FF9B88" d = " M182 144 L181,145 C181,145 181,144 181,144 181,144 182,144 182,144  Z"/>

<path  fill="#F0F080" stroke-width="0" stroke="#F0F080" d = " M264 145 L265,145 C265,145 265,144 265,144 265,144 264,145 264,145  Z"/>

<path  fill="#FF9B88" stroke-width="0" stroke="#FF9B88" d = " M266 144 L265,145 C265,145 265,144 265,144 265,144 266,144 266,144  Z"/>

<path  fill="#CBC7CC" stroke-width="0" stroke="#CBC7CC" d = " M289 155 C289.922,155 292,158.276 292,156 292,156 291,154 291,154 287.825,154 282.216,144 275,144 275,144 275,145 275,145 275,145 276,145 276,145 276,145 277,146 277,146 277,146 278,146 278,146 278,146 279,147 279,147 279,147 287,153 287,153 287,153 288,154 288,154 288,154 289,155 289,155  Z"/>

<path  fill="#CBC9CC" stroke-width="0" stroke="#CBC9CC" d = " M175 145 C173.762,145 172,145.423 172,147 173.238,147 175,146.577 175,145  Z"/>

<path  fill="#CBC7CC" stroke-width="0" stroke="#CBC7CC" d = " M167 155 L168,155 C168,155 169,154 169,154 169,154 171,152 171,152 171,152 172,151 172,151 172,151 178,147 178,147 178,147 179,146 179,146 179,146 179,145 179,145 179,145 175,145 175,145 175,146.577 173.238,147 172,147 172,147 171,148 171,148 171,148 170,149 170,149 170,149 169,150 169,150 169,150 168,151 168,151 168,151 167,152 167,152 167,152 166,153 166,153 166,153 165,154 165,154 165,154 165,155 165,155 165,155 166,156 166,156 166,156 167,155 167,155  Z"/>

<path  fill="#FF9B88" stroke-width="0" stroke="#FF9B88" d = " M180 145 L179,146 C179,146 179,145 179,145 179,145 180,145 180,145  Z"/>

<path  fill="#FF9B88" stroke-width="0" stroke="#FF9B88" d = " M192 145 L193,146 C193,146 192,145 192,145  Z"/>

<path  fill="#F0F080" stroke-width="0" stroke="#F0F080" d = " M261 148 L262,148 C262,148 263,147 263,147 263,147 264,146 264,146 264,146 264,145 264,145 262.762,145 261,145.423 261,147 261,147 261,148 261,148  Z"/>

<path  fill="#FF9B88" stroke-width="0" stroke="#FF9B88" d = " M265 145 L264,146 C264,146 264,145 264,145 264,145 265,145 265,145  Z"/>

<path  fill="#FF9B88" stroke-width="0" stroke="#FF9B88" d = " M276 145 L277,146 C277,146 276,145 276,145  Z"/>

<path  fill="#FF9B88" stroke-width="0" stroke="#FF9B88" d = " M179 146 L178,147 C178,147 179,146 179,146  Z"/>

<path  fill="#FF9B88" stroke-width="0" stroke="#FF9B88" d = " M264 146 L263,147 C263,147 264,146 264,146  Z"/>

<path  fill="#FF9B88" stroke-width="0" stroke="#FF9B88" d = " M278 146 L279,147 C279,147 278,146 278,146  Z"/>

<path  fill="#CBC9CC" stroke-width="0" stroke="#CBC9CC" d = " M172 147 L171,148 C171,148 172,147 172,147  Z"/>

<path  fill="#FF9B88" stroke-width="0" stroke="#FF9B88" d = " M195 147 L195,148 C195,148 194,147 194,147 194,147 195,147 195,147  Z"/>

<path  fill="#C8C9C8" stroke-width="0" stroke="#C8C9C8" d = " M197 150 L199,150 C199,150 199,148 199,148 199,148 197,147 197,147 197,147 196,147 196,147 196,147 195,147 195,147 195,147 195,148 195,148 195,148 195,149 195,149 195,149 196,150 196,150 196,150 197,150 197,150  Z"/>

<path  fill="#F0F080" stroke-width="0" stroke="#F0F080" d = " M199 148 L200,148 C200,146.527 198.048,147 197,147 197,147 199,148 199,148  Z"/>

<path  fill="#F0F080" stroke-width="0" stroke="#F0F080" d = " M257 148 L258,148 C258,148 259,147 259,147 259,147 257,148 257,148  Z"/>

<path  fill="#C8C9C8" stroke-width="0" stroke="#C8C9C8" d = " M259 150 L260,150 C260,150 261,149 261,149 261,149 261,148 261,148 261,148 261,147 261,147 261,147 259,147 259,147 259,147 258,148 258,148 258,148 257,150 257,150 257,150 259,150 259,150  Z"/>

<path  fill="#FF9B88" stroke-width="0" stroke="#FF9B88" d = " M263 147 L262,148 C262,148 263,147 263,147  Z"/>

<path  fill="#CBC9CC" stroke-width="0" stroke="#CBC9CC" d = " M171 148 L170,149 C170,149 171,148 171,148  Z"/>

<path  fill="#AAA9A7" stroke-width="0" stroke="#AAA9A7" d = " M227 159 L229,159 C229,159 235.5,154 235.5,154 236.742,153.379 243,152.361 243,151 241.181,151 220.975,153.237 220.5,153 215.239,150.369 206.022,148 200,148 200,148 199,148 199,148 199,148 199,150 199,150 200.048,150 202,149.527 202,151 207.876,151 214.626,150.563 219.5,153 221.306,153.903 226.005,159 227,159  Z"/>

<path  fill="#AAA9A7" stroke-width="0" stroke="#AAA9A7" d = " M243 151 L254,151 C254,149.527 255.952,150 257,150 257,150 258,148 258,148 258,148 257,148 257,148 255.329,148 243,150.092 243,151  Z"/>

<path  fill="#FF9B88" stroke-width="0" stroke="#FF9B88" d = " M262 148 L261,149 C261,149 261,148 261,148 261,148 262,148 262,148  Z"/>

<path  fill="#CBC9CC" stroke-width="0" stroke="#CBC9CC" d = " M170 149 L169,150 C169,150 170,149 170,149  Z"/>

<path  fill="#FF9B88" stroke-width="0" stroke="#FF9B88" d = " M196 150 L195,151 C195,151 195,149 195,149 195,149 196,150 196,150  Z"/>

<path  fill="#FF9B88" stroke-width="0" stroke="#FF9B88" d = " M260 150 L261,150 C261,150 261,149 261,149 261,149 260,150 260,150  Z"/>

<path  fill="#CBC9CC" stroke-width="0" stroke="#CBC9CC" d = " M169 150 L168,151 C168,151 169,150 169,150  Z"/>

<path  fill="#FF79FE" stroke-width="0" stroke="#FF79FE" d = " M197 157 L195,158 C195,155.324 195,153.261 195,151 195,151 196,150 196,150 196,150 197,150 197,150 197,150 197,156 197,156 197,156 197,157 197,157  Z"/>

<path  fill="#FF9B88" stroke-width="0" stroke="#FF9B88" d = " M202 151 L197,156 C197,156 197,150 197,150 197,150 199,150 199,150 200.048,150 202,149.527 202,151  Z"/>

<path  fill="#FF9B88" stroke-width="0" stroke="#FF9B88" d = " M254 151 C256.741,151 256.75,155 259,155 259,155 259,150 259,150 259,150 257,150 257,150 255.952,150 254,149.527 254,151  Z"/>

<path  fill="#FF79FE" stroke-width="0" stroke="#FF79FE" d = " M259 156 L261,157 C261,157 261,150 261,150 261,150 260,150 260,150 260,150 259,150 259,150 259,150 259,155 259,155 259,155 259,156 259,156  Z"/>

<path  fill="#CBC9CC" stroke-width="0" stroke="#CBC9CC" d = " M168 151 L167,152 C167,152 168,151 168,151  Z"/>

<path  fill="#FF9B88" stroke-width="0" stroke="#FF9B88" d = " M172 151 L171,152 C171,152 172,151 172,151  Z"/>

<path  fill-rule="evenodd" fill="#FFBA84" stroke-width="0" stroke="#FFBA84" d = " M238 181 L235,185.5 C238.541,192.581 248.652,181 238,181  M215 181 L213,184.5 C217.295,193.089 226.751,181 215,181  M234 159 L229,167 C229,169.189 228.994,171.494 230.5,173 245.496,187.996 248.171,159 234,159  M217 159 L213,167 C213,196.099 242.688,159 217,159  M250 155 C250,155.06 247,158.829 247,162.5 247,170.655 255.327,177.847 259,170.5 262.56,163.381 258.108,155 250,155  M250 196 C250,187.384 239.905,191.702 234.5,189 229.921,186.711 234.543,178.021 230.5,176 221.018,171.259 226.139,187.181 222.5,189 216.118,192.191 207,186.698 207,197 207,197 203,193 203,193 203,184.136 205.086,183 195,183 188.318,183 195,163.176 195,161 195,161 197,159 197,159 197,159 197,157 197,157 197,157 197,156 197,156 197,156 202,151 202,151 207.876,151 214.626,150.563 219.5,153 221.306,153.903 226.005,159 227,159 227,162.15 229,162.446 229,159 229,159 235.5,154 235.5,154 236.742,153.379 243,152.361 243,151 243,151 254,151 254,151 256.741,151 256.75,155 259,155 259,155 259,156 259,156 259,158.034 270.638,183 261,183 252.782,183 253,184.305 253,193 253,193 250,196 250,196  M197 159 L196,165.5 C206.045,185.589 215.118,159.309 206.5,155 202.784,153.142 199.85,159 197,159  Z"/>

<path  fill="#CBC9CB" stroke-width="0" stroke="#CBC9CB" d = " M185 152 C185,159.282 166.556,167.972 160.5,171 158.523,171.989 153.858,177.216 155,179.5 156.381,182.262 162.556,179.972 164.5,179 L173.5,170 C178.955,167.272 184.195,163.653 189.5,161 194.394,158.553 188.595,152 185,152  Z"/>

<path  fill="#CBC9CB" stroke-width="0" stroke="#CBC9CB" d = " M268 152 C268,155.246 264.296,156.093 266,159.5 267.325,162.151 271.394,161.947 273.5,163 280.101,166.301 286.838,176.669 291.5,179 293.497,179.998 300.739,182.022 302,179.5 305.023,173.453 280.031,162.765 276.5,161 271.803,158.652 273.211,152 268,152  Z"/>

<path  fill="#CBC9CC" stroke-width="0" stroke="#CBC9CC" d = " M166 153 L165,154 C165,154 166,153 166,153  Z"/>

<path  fill="#CBC9CC" stroke-width="0" stroke="#CBC9CC" d = " M287 153 L288,154 C288,154 287,153 287,153  Z"/>

<path  fill="#FF9B88" stroke-width="0" stroke="#FF9B88" d = " M169 154 L168,155 C168,155 169,154 169,154  Z"/>

<path  fill="#FF9B88" stroke-width="0" stroke="#FF9B88" d = " M288 154 L289,155 C289,155 288,154 288,154  Z"/>

<path  fill="#CBC9CC" stroke-width="0" stroke="#CBC9CC" d = " M166 156 L165,157 C165,157 164,156 164,156 164,156 165,155 165,155 165,155 166,156 166,156  Z"/>

<path  fill="#CBC9CC" stroke-width="0" stroke="#CBC9CC" d = " M167 155 L166,156 C166,156 167,155 167,155  Z"/>

<path  fill="#FEC395" stroke-width="0" stroke="#FEC395" d = " M197 159 L196,165.5 C206.045,185.589 215.118,159.309 206.5,155 202.784,153.142 199.85,159 197,159  Z"/>

<path  fill="#FEC395" stroke-width="0" stroke="#FEC395" d = " M250 155 C250,155.06 247,158.829 247,162.5 247,170.655 255.327,177.847 259,170.5 262.56,163.381 258.108,155 250,155  Z"/>

<path  fill="#CBC7CC" stroke-width="0" stroke="#CBC7CC" d = " M164 156 L165,157 C165,157 164,156 164,156  Z"/>

<path  fill="#FF9B88" stroke-width="0" stroke="#FF9B88" d = " M273 227 C269.214,227 269.068,229 268,229 268,219.337 267.756,190.872 251.5,199 251.5,199 247.5,199 247.5,199 247.5,199 240.5,203 240.5,203 240.5,203 237,207 237,207 237,206.065 239.236,202 236.5,202 236.5,202 234,205 234,205 234,203.127 231.631,200.934 229.5,202 229.5,202 228.5,207 228.5,207 228.5,207 226.5,202 226.5,202 222.898,200.199 223.575,205 222,205 222,201.912 216.706,201.912 218,204.5 218.479,205.458 223,212.407 223,210 223,210 225.5,213 225.5,213 226.4,213.45 231.301,211 233,211 233,211 235,211 235,211 235,211 234,225 234,225 234,225 233,227 233,227 233,222.387 229.287,228 228.5,228 228.5,228 224.5,225 224.5,225 224.5,225 223,227 223,227 223,227 223,226 223,226 223,226 222,224 222,224 222,224 222,223 222,223 222,215.343 221.362,204.931 213.5,201 211.171,199.835 207.794,200.147 205.5,199 202.585,197.542 198.423,197.539 195.5,199 188.663,202.419 188,219.638 188,227 186.256,227 185.033,227 183,227 183,223.713 177,223.947 177,221 177,221 174.5,215 174.5,215 173.454,214.477 171,215.951 171,214 171,211.579 173.411,207.322 172,204.5 170.669,201.837 162.393,200.715 161,203.5 159.149,207.201 162,211.271 162,215 162,215 159,215 159,215 157.352,215 158.244,211 155,211 155,211 153,195 153,195 155.954,195 156,188.179 156,186 157.298,186 159.373,189.563 162.5,188 166.781,185.86 170.666,181.417 175.5,179 175.5,179 184.5,169 184.5,169 185.882,169 183.475,175.988 185.5,177 187.88,178.19 189,173.379 189,172 189,172 190,171 190,171 190,171 191,169 191,169 191,169 191,168 191,168 191,168 192,167 192,167 192,167 192,166 192,166 192,166 193,165 193,165 193,165 193,163 193,163 193,163 194,161 194,161 194,161 195,161 195,161 195,163.176 188.318,183 195,183 195,183 194,185 194,185 192.486,185 190.762,180.369 187.5,182 184.865,183.317 185.966,191.233 189.5,193 194.02,195.26 191.567,191 194,191 194,196.578 201.574,193 203,193 203,193 207,197 207,197 207,197 211.5,199 211.5,199 218.418,202.459 234.6,202.45 241.5,199 243.245,198.128 250,199.027 250,196 250,196 253,193 253,193 253,193 257.5,195 257.5,195 258.643,194.429 262.724,191 263,191 263,198.82 272.772,187.043 271,183.5 269.107,179.714 263,182.474 263,186 263,186 261,183 261,183 270.638,183 259,158.034 259,156 259,156 261,157 261,157 261,157 261,158 261,158 261,158 262,160 262,160 262,160 263,164 263,164 263,164 264,165 264,165 264,165 264,166 264,166 264,166 265,167 265,167 265,167 266,170 266,170 266,170 267,172 267,172 267,173.706 269.295,178.103 271.5,177 273.308,176.096 269.664,167.582 272.5,169 274.789,170.145 277.668,174.835 279,177.5 280.259,180.018 286.217,181.859 288.5,183 288.5,183 293.5,188 293.5,188 297.408,189.954 299.324,185 301,185 301,187.554 299.89,195 304,195 304,199.378 302,203.986 302,209 302,210.145 302.579,213 301,213 301,207.825 298,212.144 298,215 298,215 295,215 295,215 295,215 296,205.5 296,205.5 293.614,200.727 286.386,200.727 284,205.5 282.381,208.737 286,211.605 286,214 281.621,214 280,218.08 280,222 278.55,222 273,225.126 273,227  Z"/>

<path  fill="#FF9B88" stroke-width="0" stroke="#FF9B88" d = " M197 159 L195,161 C195,161 195,159 195,159 195,159 195,158 195,158 195,158 197,157 197,157 197,157 197,159 197,159  Z"/>

<path  fill="#FF79FE" stroke-width="0" stroke="#FF79FE" d = " M261 158 L262,160 C262,160 261,158 261,158  Z"/>

<path  fill="#FF79FE" stroke-width="0" stroke="#FF79FE" d = " M194 161 L195,161 C195,161 195,159 195,159 195,159 194,161 194,161  Z"/>

<path  fill="#FEB985" stroke-width="0" stroke="#FEB985" d = " M217 159 L213,167 C213,196.099 242.688,159 217,159  Z"/>

<path  fill="#FF9B88" stroke-width="0" stroke="#FF9B88" d = " M227 159 L229,159 C229,162.446 227,162.15 227,159  Z"/>

<path  fill="#FEB985" stroke-width="0" stroke="#FEB985" d = " M234 159 L229,167 C229,169.189 228.994,171.494 230.5,173 245.496,187.996 248.171,159 234,159  Z"/>

<path  fill="#FF79FE" stroke-width="0" stroke="#FF79FE" d = " M194 161 L193,163 C193,163 194,161 194,161  Z"/>

<path  fill="#FF79FE" stroke-width="0" stroke="#FF79FE" d = " M263 164 L264,165 C264,165 263,164 263,164  Z"/>

<path  fill="#FF79FE" stroke-width="0" stroke="#FF79FE" d = " M193 165 L192,166 C192,166 193,165 193,165  Z"/>

<path  fill="#FF79FE" stroke-width="0" stroke="#FF79FE" d = " M264 166 L265,167 C265,167 264,166 264,166  Z"/>

<path  fill="#FFFC8D" stroke-width="0" stroke="#FFFC8D" d = " M121 186 C118.771,186 118.529,187.986 116.5,189 L109.5,189 C100.328,193.586 90.8416,188.817 85,200.5 84.1007,202.299 81,203.94 81,207 74.9415,207 77.6568,215.186 76,218.5 72.3502,225.8 74.1855,232.657 65.5,237 50.7523,244.374 41.6908,220.118 47,209.5 47,209.5 51,206.5 51,206.5 56.446,195.608 76.7661,186.968 85,170.5 86.2885,167.923 97,167.253 97,167 97,167 105,171 105,171 105,176.413 87,178.889 87,182.5 87,183.756 90.1933,182.153 90.5,182 93.9096,180.295 97.1562,178.672 100.5,177 102.458,176.021 121,183.792 121,186  Z"/>

<path  fill="#CCCCCA" stroke-width="0" stroke="#CCCCCA" d = " M129 189 L132,189 C132,189 139,182 139,182 139,182 139,181 139,181 139,176.962 136.107,174.715 134,170.5 134,170.5 131.5,167 131.5,167 131.5,167 124.5,171 124.5,171 124.5,171 117,172.5 117,172.5 113.786,178.929 129,183.85 129,189  Z"/>

<path  fill="#FF79FE" stroke-width="0" stroke="#FF79FE" d = " M192 167 L191,168 C191,168 192,167 192,167  Z"/>

<path  fill="#CCCCCA" stroke-width="0" stroke="#CCCCCA" d = " M323 188 C324.467,188 326.533,188 328,188 328,182.889 340,179.255 340,173.5 340,171.478 331.806,170.653 330.5,170 330.5,170 324.5,167 324.5,167 321.186,168.657 317,178.025 317,181 317,181 320,184 320,184 320,184 323,188 323,188  Z"/>

<path  fill="#FFFC8D" stroke-width="0" stroke="#FFFC8D" d = " M335 186 C336.841,186 338.57,188.035 340.5,189 345.656,191.578 356.883,189.191 362.5,192 L373,201.5 L376,207 C380.914,207 378.877,213.255 380,215.5 383.226,221.952 381.073,231.786 389.5,236 404.825,243.663 415.328,222.157 409,209.5 402.559,196.618 381.606,189.713 373,172.5 371.191,168.882 366.407,168.453 363.5,167 361.917,166.208 359,168.615 359,167 355.795,167 353.909,170 351,170 351,177.287 369,177.878 369,182.5 369,184.126 363.998,180.249 363.5,180 363.5,180 355.5,177 355.5,177 352.142,175.321 343.325,181.587 340.5,183 339.284,183.608 335,184.184 335,186  Z"/>

<path  fill="#FF79FE" stroke-width="0" stroke="#FF79FE" d = " M191 169 L190,171 C190,171 191,169 191,169  Z"/>

<path  fill="#FF79FE" stroke-width="0" stroke="#FF79FE" d = " M266 170 L267,172 C267,172 266,170 266,170  Z"/>

<path  fill="#FF79FE" stroke-width="0" stroke="#FF79FE" d = " M190 171 L189,172 C189,172 190,171 190,171  Z"/>

<path  fill="#FEC294" stroke-width="0" stroke="#FEC294" d = " M250 196 C250,199.027 243.245,198.128 241.5,199 234.6,202.45 218.418,202.459 211.5,199 L207,197 C207,186.698 216.118,192.191 222.5,189 226.139,187.181 221.018,171.259 230.5,176 234.543,178.021 229.921,186.711 234.5,189 239.905,191.702 250,187.384 250,196  Z"/>

<path  fill="#FF9B88" stroke-width="0" stroke="#FF9B88" d = " M148 178 L149,178 C149,178 149,177 149,177 149,177 148,178 148,178  Z"/>

<path  fill="#FF9B88" stroke-width="0" stroke="#FF9B88" d = " M307 178 L309,178 C309,178 308,177 308,177 308,177 307,178 307,178  Z"/>

<path  fill="#FEAD6E" stroke-width="0" stroke="#FEAD6E" d = " M139 195 C142.39,195 146.519,191.01 150.5,193 L153,195 C155.954,195 156,188.179 156,186 156,186 155,182 155,182 155,182 153,180 153,180 153,180 149,178 149,178 149,178 148,178 148,178 144.675,178 144.291,184 141,184 141,184.494 134.884,195 139,195  Z"/>

<path  fill="#FEAD6E" stroke-width="0" stroke="#FEAD6E" d = " M304 195 C305.448,195 309.027,191.264 312.5,193 L317,195 C321.512,195 317.162,185 316,185 316,185 309,178 309,178 309,178 307,178 307,178 303.746,178 301,182.041 301,185 301,187.554 299.89,195 304,195  Z"/>

<path  fill="#FF9B88" stroke-width="0" stroke="#FF9B88" d = " M153 180 L155,182 C155,182 153,180 153,180  Z"/>

<path  fill="#F0F080" stroke-width="0" stroke="#F0F080" d = " M139 182 L140,182 C140,182 139,181 139,181 139,181 139,182 139,182  Z"/>

<path  fill="#FFB984" stroke-width="0" stroke="#FFB984" d = " M215 181 L213,184.5 C217.295,193.089 226.751,181 215,181  Z"/>

<path  fill="#FFB984" stroke-width="0" stroke="#FFB984" d = " M238 181 L235,185.5 C238.541,192.581 248.652,181 238,181  Z"/>

<path  fill="#F0F080" stroke-width="0" stroke="#F0F080" d = " M317 182 L320,184 C320,184 317,181 317,181 317,181 317,182 317,182  Z"/>

<path  fill="#FF9B88" stroke-width="0" stroke="#FF9B88" d = " M136 212 L141,222 C141,215.036 136.885,209.271 134,203.5 131.925,199.35 139,197.853 139,195 134.884,195 141,184.494 141,184 141,184 140,182 140,182 140,182 139,182 139,182 139,182 132,189 132,189 132,189 132,194 132,194 138.085,194 131,203.934 131,207 131,207 132,208 132,208 134.917,208 136,207.41 136,212  Z"/>

<path  fill="#FEC394" stroke-width="0" stroke="#FEC394" d = " M194 185 C192.486,185 190.762,180.369 187.5,182 184.865,183.317 185.966,191.233 189.5,193 194.02,195.26 191.567,191 194,191 194,191 194,185 194,185  Z"/>

<path  fill="#FEC295" stroke-width="0" stroke="#FEC295" d = " M194 191 C194,196.578 201.574,193 203,193 203,184.136 205.086,183 195,183 195,183 194,185 194,185 194,185 194,191 194,191  Z"/>

<path  fill="#FEC295" stroke-width="0" stroke="#FEC295" d = " M263 191 C262.724,191 258.643,194.429 257.5,195 L253,193 C253,184.305 252.782,183 261,183 261,183 263,186 263,186 263,186 263,191 263,191  Z"/>

<path  fill="#FEC394" stroke-width="0" stroke="#FEC394" d = " M263 186 L263,191 C263,198.82 272.772,187.043 271,183.5 269.107,179.714 263,182.474 263,186  Z"/>

<path  fill="#FF9B88" stroke-width="0" stroke="#FF9B88" d = " M321 208 C322.333,208 322.667,208 324,208 324,208 326,207 326,207 326,204.644 317.446,194 325,194 325,191.482 323,189.714 323,188 323,188 320,184 320,184 320,184 317,182 317,182 317,182 316,185 316,185 317.162,185 321.512,195 317,195 317,195 322,199.5 322,199.5 322,199.5 321,208 321,208  Z"/>

<path  fill="#FEF991" stroke-width="0" stroke="#FEF991" d = " M108 225 C105.94,225 104,229.74 104,232 93.7926,232 84.1368,226.774 80,218.5 80,218.5 81,207 81,207 81,203.94 84.1007,202.299 85,200.5 90.8416,188.817 100.328,193.586 109.5,189 109.5,189 116.5,189 116.5,189 118.529,187.986 118.771,186 121,186 127.775,186 118.275,201.613 115.5,203 113.906,203.797 101,210.213 101,211.5 101,212.421 110.847,210 112,210 112,210 113,214 113,214 113,214 113,215 113,215 111.423,215 111,216.762 111,218 111,218 111,220 111,220 111,220 110,221 110,221 110,221 109,222 109,222 109,222 109,224 109,224 109,224 108,225 108,225  Z"/>

<path  fill="#FEF991" stroke-width="0" stroke="#FEF991" d = " M347 223 C348.947,223 353,230.214 353,232 358.168,232 359.321,231.09 363.5,229 376.972,222.264 376,221.648 376,207 376,207 373,201.5 373,201.5 373,201.5 362.5,192 362.5,192 356.883,189.191 345.656,191.578 340.5,189 338.57,188.035 336.841,186 335,186 329.716,186 337.186,200.843 339.5,202 339.5,202 352.5,209 352.5,209 353.188,209.344 356.491,211.004 354.5,212 354.5,212 344,210 344,210 344,210 345,217 345,217 345,217 345,219 345,219 345,219 347,221 347,221 347,221 347,223 347,223  Z"/>

<path  fill="#F0F080" stroke-width="0" stroke="#F0F080" d = " M325 194 L329,195 C329,195 328,188 328,188 326.533,188 324.467,188 323,188 323,189.714 325,191.482 325,194  Z"/>

<path  fill="#F0F080" stroke-width="0" stroke="#F0F080" d = " M132 194 L127,195 C127,192.517 129,190.974 129,189 129,189 132,189 132,189 132,189 132,194 132,194  Z"/>

<path  fill="#FFAE6F" stroke-width="0" stroke="#FFAE6F" d = " M148 261 L149,261 C149,261 154,259 154,259 154,259 155,257 155,257 155,245.866 155,234.962 155,223 155,223 155,217 155,217 155,217 155,211 155,211 155,211 153,195 153,195 153,195 150.5,193 150.5,193 146.519,191.01 142.39,195 139,195 139,197.853 131.925,199.35 134,203.5 136.885,209.271 141,215.036 141,222 141,222 141,228 141,228 141,229.235 141.643,233 140,233 140,233 140,234 140,234 140,235.145 140.579,238 139,238 139,238 139,240 139,240 139,241.048 139.473,243 138,243 138,243 138,247 138,247 138,247 139,249 139,249 139,249 139,251 139,251 139,251 140,252 140,252 140,252 140,253 140,253 140,253 141,254 141,254 141,254 143,257 143,257 143,257 145,259 145,259 145,259 146,259 146,259 146,259 148,261 148,261  Z"/>

<path  fill="#FFAE6F" stroke-width="0" stroke="#FFAE6F" d = " M307 261 L308,261 C308,261 309,260 309,260 309,260 310,260 310,260 310,260 311,259 311,259 311,259 312,258 312,258 312,258 314,256 314,256 314,256 315,255 315,255 315,255 316,253 316,253 316,253 317,252 317,252 317,252 317,251 317,251 317,251 318,249 318,249 318,249 318,247 318,247 318,247 318,243 318,243 318,243 318,241 318,241 316.527,241 317,239.048 317,238 317,238 317,236 317,236 314.936,236 316.574,232.647 316,231.5 313.942,227.384 316.112,209 320,209 320,209 321,208 321,208 321,208 322,199.5 322,199.5 322,199.5 317,195 317,195 317,195 312.5,193 312.5,193 309.027,191.264 305.448,195 304,195 304,199.378 302,203.986 302,209 302,210.145 302.579,213 301,213 301,213 301,217 301,217 301,217 301,221 301,221 301,232.878 302,245.806 302,257 302,258.811 305.438,261 307,261  Z"/>

<path  fill="#FEA4D2" stroke-width="0" stroke="#FEA4D2" d = " M114 254 C115.45,254 116.956,263.772 122.5,261 124.614,259.943 125.846,254 127,254 127,254 127,242 127,242 127,242 127,235 127,235 127,235 127,230 127,230 125.387,230 125.387,222 127,222 127,222 127,221 127,221 127,219.855 126.421,217 128,217 128,215.074 128.84,207 131,207 131,203.934 138.085,194 132,194 132,194 127,195 127,195 127,195 126,196 126,196 126,196 122,200 122,200 122,200 121,201 121,201 121,201 120,202 120,202 120,202 119,203 119,203 119,203 119,204 119,204 119,204 118,205 118,205 118,205 117,206 117,206 117,206 117,208 117,208 117,208 116,209 116,209 116,209 116,210 116,210 116,210 115,211 115,211 115,211 115,212 115,212 115,212 114,213 114,213 114,213 114,214 114,214 114,214 113,215 113,215 113,215 113,217 113,217 113,217 112,218 112,218 112,218 111,220 111,220 111,220 111,221 111,221 111,222.238 110.577,224 109,224 109,224 109,225 109,225 109,225 108,227 108,227 108,227 108,228 108,228 108,228 107,229 107,229 107,229 107,231 107,231 107,231 108,238 108,238 108,238 109,239 109,239 109,239 110,242 110,242 110,242 111,243 111,243 111,245.885 113,247.697 113,251 113,251 114,253 114,253 114,253 114,254 114,254  Z"/>

<path  fill="#FEA4D2" stroke-width="0" stroke="#FEA4D2" d = " M329 252 C329.956,252 331.729,260.115 333.5,261 340.35,264.425 341.099,252 343,252 343,248.122 346,245.136 346,242 346,242 347,241 347,241 347,241 349,235 349,235 349,235 349,231 349,231 349,231 349,228 349,228 349,228 348,227 348,227 348,227 348,226 348,226 348,226 347,224 347,224 347,224 347,223 347,223 345.423,223 345,221.238 345,220 345,220 345,219 345,219 345,219 343,216 343,216 343,216 343,214 343,214 343,214 342,213 342,213 342,213 342,212 342,212 342,212 341,211 341,211 341,211 341,210 341,210 341,210 340,209 340,209 340,209 340,208 340,208 340,208 339,207 339,207 339,207 339,206 339,206 339,206 337,204 337,204 337,204 337,203 337,203 337,203 336,202 336,202 336,202 335,200 335,200 335,200 334,199 334,199 334,199 331,196 331,196 331,196 330,195 330,195 330,195 329,195 329,195 329,195 325,194 325,194 317.446,194 326,204.644 326,207 326,210.787 329,214.613 329,219 329,219 329,220 329,220 330.684,220 330,224.679 330,226 330,226 330,231 330,231 330,231 329,232 329,232 329,232 329,252 329,252  Z"/>

<path  fill="#F0F080" stroke-width="0" stroke="#F0F080" d = " M127 195 L126,196 C126,196 127,195 127,195  Z"/>

<path  fill="#F0F080" stroke-width="0" stroke="#F0F080" d = " M330 195 L331,196 C331,196 330,195 330,195  Z"/>

<path  fill="#FDBA86" stroke-width="0" stroke="#FDBA86" d = " M191 264 L193,266 C199.963,266 208.945,256.609 212,250.5 212,250.5 219,242 219,242 219,234.134 218.226,227.952 215,221.5 214.56,220.621 213.064,215.718 214.5,215 219.065,212.717 220.347,223 222,223 222,215.343 221.362,204.931 213.5,201 211.171,199.835 207.794,200.147 205.5,199 202.585,197.542 198.423,197.539 195.5,199 188.663,202.419 188,219.638 188,227 188,227 188,228 188,228 189.473,228 189,229.952 189,231 189,231 189,254.5 189,254.5 190.359,257.219 191,260.76 191,264  Z"/>

<path  fill="#FDBA86" stroke-width="0" stroke="#FDBA86" d = " M263 265 L265,265 C265,261.892 265.737,260.027 267,257.5 267,257.5 268,229 268,229 268,219.337 267.756,190.872 251.5,199 251.5,199 247.5,199 247.5,199 247.5,199 240.5,203 240.5,203 240.5,203 237,207 237,207 237,207 237,208 237,208 237,208 236,209 236,209 236,209 235,211 235,211 235,211 234,225 234,225 235.032,225 236.935,216.282 239.5,215 242.053,213.723 242.81,217.881 242,219.5 238.714,226.072 237,233.038 237,241 237,241 242.5,248 242.5,248 248.613,254.113 252.953,265 263,265  Z"/>

<path  fill="#F0F080" stroke-width="0" stroke="#F0F080" d = " M334 199 L335,200 C335,200 334,199 334,199  Z"/>

<path  fill="#FF9BCD" stroke-width="0" stroke="#FF9BCD" d = " M122 200 L121,201 C121,201 122,200 122,200  Z"/>

<path  fill="#F0F080" stroke-width="0" stroke="#F0F080" d = " M121 201 L120,202 C120,202 121,201 121,201  Z"/>

<path  fill="#F0F080" stroke-width="0" stroke="#F0F080" d = " M120 202 L119,203 C119,203 120,202 120,202  Z"/>

<path  fill="#FEB986" stroke-width="0" stroke="#FEB986" d = " M171 214 L165.5,217 L162,215 C162,211.271 159.149,207.201 161,203.5 162.393,200.715 170.669,201.837 172,204.5 173.411,207.322 171,211.579 171,214  Z"/>

<path  fill="#CBCBCC" stroke-width="0" stroke="#CBCBCC" d = " M222 205 L223,210 C223,212.407 218.479,205.458 218,204.5 216.706,201.912 222,201.912 222,205  Z"/>

<path  fill="#FFC294" stroke-width="0" stroke="#FFC294" d = " M223 210 L225.5,213 C226.4,213.45 231.301,211 233,211 233,211 234,205 234,205 234,203.127 231.631,200.934 229.5,202 229.5,202 228.5,207 228.5,207 228.5,207 226.5,202 226.5,202 222.898,200.199 223.575,205 222,205 222,205 223,210 223,210  Z"/>

<path  fill="#CBCBCC" stroke-width="0" stroke="#CBCBCC" d = " M233 211 L235,211 C235,211 236,209 236,209 236,209 237,208 237,208 237,208 237,207 237,207 237,206.065 239.236,202 236.5,202 236.5,202 234,205 234,205 234,205 233,211 233,211  Z"/>

<path  fill="#FEB986" stroke-width="0" stroke="#FEB986" d = " M286 214 L290.5,217 L295,215 C295,215 296,205.5 296,205.5 293.614,200.727 286.386,200.727 284,205.5 282.381,208.737 286,211.605 286,214  Z"/>

<path  fill="#FF9BCD" stroke-width="0" stroke="#FF9BCD" d = " M336 202 L337,203 C337,203 336,202 336,202  Z"/>

<path  fill="#F0F080" stroke-width="0" stroke="#F0F080" d = " M343 216 L345,217 C345,217 344,210 344,210 344,210 337,203 337,203 337,203 337,204 337,204 337,204 339,206 339,206 339,206 339,207 339,207 339,207 340,208 340,208 340,208 340,209 340,209 340,209 341,210 341,210 341,210 341,211 341,211 341,211 342,212 342,212 342,212 342,213 342,213 342,213 343,214 343,214 343,214 343,216 343,216  Z"/>

<path  fill="#FF9BCD" stroke-width="0" stroke="#FF9BCD" d = " M119 204 L118,205 C118,205 119,204 119,204  Z"/>

<path  fill="#FF9BCD" stroke-width="0" stroke="#FF9BCD" d = " M337 204 L339,206 C339,206 337,204 337,204  Z"/>

<path  fill="#FF9BCD" stroke-width="0" stroke="#FF9BCD" d = " M118 205 L117,206 C117,206 118,205 118,205  Z"/>

<path  fill="#F0F080" stroke-width="0" stroke="#F0F080" d = " M113 214 L114,214 C114,214 114,213 114,213 114,213 115,212 115,212 115,212 115,211 115,211 115,211 116,210 116,210 116,210 116,209 116,209 116,209 117,208 117,208 117,208 117,206 117,206 117,206 112,210 112,210 112,210 113,214 113,214  Z"/>

<path  fill="#FF9BCD" stroke-width="0" stroke="#FF9BCD" d = " M132 208 C132,209.227 128.774,217 128,217 128,215.074 128.84,207 131,207 131,207 132,208 132,208  Z"/>

<path  fill="#C9CACB" stroke-width="0" stroke="#C9CACB" d = " M127 254 C127,255.39 126.171,262 128.5,262 L132,255 C132,249.499 130.733,230.033 133,225.5 135.01,221.48 136,216.834 136,212 136,207.41 134.917,208 132,208 132,209.227 128.774,217 128,217 128,218.145 128.579,221 127,221 127,221 127,222 127,222 127,222 127,230 127,230 127,230 127,235 127,235 128.602,235 128.602,242 127,242 127,242 127,254 127,254  Z"/>

<path  fill="#C9CACB" stroke-width="0" stroke="#C9CACB" d = " M329 252 L330,259.5 C327.111,265.278 325,256.993 325,254 325,247.785 325.192,228.885 323,224.5 321.418,221.337 320,215.611 320,212 320,212 320,209 320,209 320,209 321,208 321,208 322.333,208 322.667,208 324,208 324,208 329,219 329,219 329,219 329,220 329,220 329,221.321 328.316,226 330,226 330,226 330,231 330,231 330,231 329,232 329,232 329,232 329,252 329,252  Z"/>

<path  fill="#FF9BCD" stroke-width="0" stroke="#FF9BCD" d = " M324 208 L329,219 C329,214.613 326,210.787 326,207 326,207 324,208 324,208  Z"/>

<path  fill="#FF9BCD" stroke-width="0" stroke="#FF9BCD" d = " M339 207 L340,208 C340,208 339,207 339,207  Z"/>

<path  fill="#FF9BCD" stroke-width="0" stroke="#FF9BCD" d = " M117 208 L116,209 C116,209 117,208 117,208  Z"/>

<path  fill="#FF9B88" stroke-width="0" stroke="#FF9B88" d = " M237 208 L236,209 C236,209 237,208 237,208  Z"/>

<path  fill="#FF9B88" stroke-width="0" stroke="#FF9B88" d = " M321 208 L320,209 C320,209 321,208 321,208  Z"/>

<path  fill="#FF9B88" stroke-width="0" stroke="#FF9B88" d = " M236 209 L235,211 C235,211 236,209 236,209  Z"/>

<path  fill="#FF9B88" stroke-width="0" stroke="#FF9B88" d = " M320 212 C314.933,212 317,232.565 317,236 314.936,236 316.574,232.647 316,231.5 313.942,227.384 316.112,209 320,209 320,209 320,212 320,212  Z"/>

<path  fill="#FF9BCD" stroke-width="0" stroke="#FF9BCD" d = " M340 209 L341,210 C341,210 340,209 340,209  Z"/>

<path  fill="#FF9BCD" stroke-width="0" stroke="#FF9BCD" d = " M116 210 L115,211 C115,211 116,210 116,210  Z"/>

<path  fill="#FEB984" stroke-width="0" stroke="#FEB984" d = " M301 217 L299,218 C299,218 298,215 298,215 298,212.144 301,207.825 301,213 301,213 301,217 301,217  Z"/>

<path  fill="#FEB984" stroke-width="0" stroke="#FEB984" d = " M155 217 L157,218 C158.577,218 159,216.238 159,215 157.352,215 158.244,211 155,211 155,211 155,217 155,217  Z"/>

<path  fill="#FF9BCD" stroke-width="0" stroke="#FF9BCD" d = " M341 211 L342,212 C342,212 341,211 341,211  Z"/>

<path  fill="#FF9BCD" stroke-width="0" stroke="#FF9BCD" d = " M115 212 L114,213 C114,213 115,212 115,212  Z"/>

<path  fill="#C8CACA" stroke-width="0" stroke="#C8CACA" d = " M153 263 L153,267 C148.107,267 149.371,271.435 140.5,267 137.487,265.493 132.898,255 132,255 132,249.499 130.733,230.033 133,225.5 135.01,221.48 136,216.834 136,212 136,212 141,222 141,222 141,222 141,228 141,228 139.357,228 140,231.765 140,233 140,233 140,234 140,234 138.421,234 139,236.855 139,238 139,238 139,240 139,240 137.527,240 138,241.952 138,243 138,243 138,247 138,247 138,247 139,249 139,249 139,249 139,251 139,251 139,251 140,252 140,252 140,252 140,253 140,253 140,253 141,254 141,254 141,254 143,257 143,257 143,257 145,259 145,259 145,259 146,259 146,259 146,259 148,261 148,261 148,261 149,261 149,261 149,261 153,263 153,263  Z"/>

<path  fill="#C8CACA" stroke-width="0" stroke="#C8CACA" d = " M307 261 L308,261 C308,261 309,260 309,260 309,260 310,260 310,260 310,260 311,259 311,259 311,259 312,258 312,258 312,258 314,256 314,256 314,256 315,255 315,255 315,255 316,253 316,253 316,253 317,252 317,252 317,252 317,251 317,251 317,251 318,249 318,249 318,249 318,247 318,247 319.535,247 319.535,243 318,243 318,243 318,241 318,241 318,239.952 318.473,238 317,238 317,238 317,236 317,236 317,232.565 314.933,212 320,212 320,215.611 321.418,221.337 323,224.5 325.192,228.885 325,247.785 325,254 323.105,254 320.991,263.754 318.5,265 315.05,266.725 303,274.113 303,264 303,264 307,261 307,261  Z"/>

<path  fill="#FF9BCD" stroke-width="0" stroke="#FF9BCD" d = " M342 213 L343,214 C343,214 342,213 342,213  Z"/>

<path  fill="#FF9BCD" stroke-width="0" stroke="#FF9BCD" d = " M114 214 L113,215 C113,215 113,214 113,214 113,214 114,214 114,214  Z"/>

<path  fill="#FCB3D9" stroke-width="0" stroke="#FCB3D9" d = " M155 257 L155,259 C162.34,259 163.603,254.294 167,247.5 167.662,246.176 165.793,241 168,241 168,236.577 173,233.458 173,230 173,230 174,229 174,229 174,227.6 175.431,221 177,221 177,221 174.5,215 174.5,215 173.454,214.477 171,215.951 171,214 171,214 165.5,217 165.5,217 165.5,217 162,215 162,215 162,215 159,215 159,215 159,216.238 158.577,218 157,218 157,219.041 156.014,223 155,223 155,234.962 155,245.866 155,257  Z"/>

<path  fill="#FCB3D9" stroke-width="0" stroke="#FCB3D9" d = " M302 257 L301,258 C301,261.77 295.955,259.411 295,257.5 292.283,252.066 289,247.642 289,241 289,241 285,232 285,232 285,232 280,222 280,222 280,218.08 281.621,214 286,214 286,214 290.5,217 290.5,217 290.5,217 295,215 295,215 295,215 298,215 298,215 298,215 299,218 299,218 299,218 301,221 301,221 301,232.878 302,245.806 302,257  Z"/>

<path  fill="#F0F080" stroke-width="0" stroke="#F0F080" d = " M111 218 L112,218 C112,218 113,217 113,217 113,217 113,215 113,215 111.423,215 111,216.762 111,218  Z"/>

<path  fill="#C8C8CC" stroke-width="0" stroke="#C8C8CC" d = " M223 227 L224,240.5 C223.178,242.144 219,247.801 219,242 219,234.134 218.226,227.952 215,221.5 214.56,220.621 213.064,215.718 214.5,215 219.065,212.717 220.347,223 222,223 222,223 222,224 222,224 222,224 223,226 223,226 223,226 223,227 223,227  Z"/>

<path  fill="#C8C8CC" stroke-width="0" stroke="#C8C8CC" d = " M233 227 L233,243.5 C234.546,246.592 237,243.324 237,241 237,233.038 238.714,226.072 242,219.5 242.81,217.881 242.053,213.723 239.5,215 236.935,216.282 235.032,225 234,225 234,225 233,227 233,227  Z"/>

<path  fill="#FF9BCD" stroke-width="0" stroke="#FF9BCD" d = " M345 217 L345,219 C345,219 343,216 343,216 343,216 345,217 345,217  Z"/>

<path  fill="#FF9BCD" stroke-width="0" stroke="#FF9BCD" d = " M113 217 L112,218 C112,218 113,217 113,217  Z"/>

<path  fill="#FF9BCD" stroke-width="0" stroke="#FF9BCD" d = " M128 217 C126.421,217 127,219.855 127,221 128.579,221 128,218.145 128,217  Z"/>

<path  fill="#FF9B88" stroke-width="0" stroke="#FF9B88" d = " M157 218 C157,219.041 156.014,223 155,223 155,223 155,217 155,217 155,217 157,218 157,218  Z"/>

<path  fill="#FF9B88" stroke-width="0" stroke="#FF9B88" d = " M299 218 L301,221 C301,221 301,217 301,217 301,217 299,218 299,218  Z"/>

<path  fill="#FF9BCD" stroke-width="0" stroke="#FF9BCD" d = " M112 218 L111,220 C111,220 111,218 111,218 111,218 112,218 112,218  Z"/>

<path  fill="#F0F080" stroke-width="0" stroke="#F0F080" d = " M345 220 L347,221 C347,221 345,219 345,219 345,219 345,220 345,220  Z"/>

<path  fill="#F0F080" stroke-width="0" stroke="#F0F080" d = " M110 221 L111,221 C111,221 111,220 111,220 111,220 110,221 110,221  Z"/>

<path  fill="#FF9BCD" stroke-width="0" stroke="#FF9BCD" d = " M329 220 C330.684,220 330,224.679 330,226 328.316,226 329,221.321 329,220  Z"/>

<path  fill="#FF9BCD" stroke-width="0" stroke="#FF9BCD" d = " M347 221 L347,223 C345.423,223 345,221.238 345,220 345,220 347,221 347,221  Z"/>

<path  fill="#F0F080" stroke-width="0" stroke="#F0F080" d = " M110 221 L109,222 C109,222 110,221 110,221  Z"/>

<path  fill="#FF9BCD" stroke-width="0" stroke="#FF9BCD" d = " M109 222 L109,224 C110.577,224 111,222.238 111,221 111,221 110,221 110,221 110,221 109,222 109,222  Z"/>

<path  fill="#FF9BCD" stroke-width="0" stroke="#FF9BCD" d = " M174 229 C179.966,229 177,229.371 177,235 177,235 183,227 183,227 183,223.713 177,223.947 177,221 175.431,221 174,227.6 174,229  Z"/>

<path  fill="#FF9BCD" stroke-width="0" stroke="#FF9BCD" d = " M127 222 C125.387,222 125.387,230 127,230 127,230 127,222 127,222  Z"/>

<path  fill="#FF9BCD" stroke-width="0" stroke="#FF9BCD" d = " M303 275 C308.947,275 301,277.945 301,281 303.626,281 315.058,271.721 318.5,270 322.974,267.763 327.34,274.42 330.5,276 340.965,281.233 343,257.279 343,252 341.099,252 340.35,264.425 333.5,261 331.729,260.115 329.956,252 329,252 329,252 330,259.5 330,259.5 327.111,265.278 325,256.993 325,254 323.105,254 320.991,263.754 318.5,265 315.05,266.725 303,274.113 303,264 303,262.377 302.995,258 301,258 301,261.77 295.955,259.411 295,257.5 292.283,252.066 289,247.642 289,241 283.777,241 275.157,230.171 279.5,228 279.5,228 285,232 285,232 285,232 280,222 280,222 278.55,222 273,225.126 273,227 273,230.609 292,248.014 292,256 292,257.424 299,265.051 299,272 301.815,272 299,265.253 299,264.5 299,261.812 303.81,269.121 304,269.5 304,269.5 303,275 303,275  Z"/>

<path  fill="#F0F080" stroke-width="0" stroke="#F0F080" d = " M350 232 L353,232 C353,230.214 348.947,223 347,223 347,223 347,224 347,224 347,224 348,226 348,226 348,226 348,227 348,227 348,227 349,228 349,228 349,228 349,231 349,231 349,231 350,232 350,232  Z"/>

<path  fill="#F0F080" stroke-width="0" stroke="#F0F080" d = " M108 225 L109,225 C109,225 109,224 109,224 109,224 108,225 108,225  Z"/>

<path  fill="#FDBA86" stroke-width="0" stroke="#FDBA86" d = " M222 224 L223,226 C223,226 222,224 222,224  Z"/>

<path  fill="#FF9BCD" stroke-width="0" stroke="#FF9BCD" d = " M347 224 L348,226 C348,226 347,224 347,224  Z"/>

<path  fill="#F0F080" stroke-width="0" stroke="#F0F080" d = " M107 231 L104,232 C104,229.74 105.94,225 108,225 108,225 108,227 108,227 108,227 108,228 108,228 108,228 107,229 107,229 107,229 107,231 107,231  Z"/>

<path  fill="#FF9BCD" stroke-width="0" stroke="#FF9BCD" d = " M109 225 L108,227 C108,227 108,225 108,225 108,225 109,225 109,225  Z"/>

<path  fill="#FEB0D8" stroke-width="0" stroke="#FEB0D8" d = " M193 275 L194,275 C194.064,275 198.839,271 205,271 205,262.725 225,253.169 225,262 225,262 226,262 226,262 226,240.197 231,250.659 231,265 231,266.238 231.423,268 233,268 233,264.909 231.312,262.877 233,259.5 235.661,254.178 251,264.667 251,271 257.537,271 261.308,275 263,275 263,275 264,273 264,273 264,273 265,269 265,269 265,269 264,268 264,268 264,268 263,265 263,265 252.953,265 248.613,254.113 242.5,248 242.5,248 237,241 237,241 237,243.324 234.546,246.592 233,243.5 233,243.5 233,227 233,227 233,222.387 229.287,228 228.5,228 228.5,228 224.5,225 224.5,225 224.5,225 223,227 223,227 223,227 224,240.5 224,240.5 223.178,242.144 219,247.801 219,242 219,242 212,250.5 212,250.5 208.945,256.609 199.963,266 193,266 193,266 192,267 192,267 192,267 192,269 192,269 192,269 192,272 192,272 192,272 193,273 193,273 193,273 193,275 193,275  Z"/>

<path  fill-rule="evenodd" fill="#FFB2D8" stroke-width="0" stroke="#FFB2D8" d = " M182 251 L181,254.5 C183.401,259.301 189.574,251 182,251  M191 264 L190,265 C188.324,265 175.492,256 165,256 165,249.68 173,245.668 173,240 173,240 174,239 174,239 174,239 175,237 175,237 175,237 176,236 176,236 176,236 177,235 177,235 177,235 183,227 183,227 185.033,227 186.256,227 188,227 188,227 188,228 188,228 188,229.048 187.527,231 189,231 189,231 189,254.5 189,254.5 190.359,257.219 191,260.76 191,264  Z"/>

<path  fill-rule="evenodd" fill="#FFB2D8" stroke-width="0" stroke="#FFB2D8" d = " M271 251 C271,261.481 279.56,251 271,251  M266 265 L267,265 C267,265 275.5,259 275.5,259 280.147,256.676 286.399,256 292,256 292,248.014 273,230.609 273,227 269.214,227 269.068,229 268,229 268,229 267,257.5 267,257.5 265.737,260.027 265,261.892 265,265 265,265 266,265 266,265  Z"/>

<path  fill="#FF9BCD" stroke-width="0" stroke="#FF9BCD" d = " M348 227 L349,228 C349,228 348,227 348,227  Z"/>

<path  fill="#FF9BCD" stroke-width="0" stroke="#FF9BCD" d = " M108 228 L107,229 C107,229 108,228 108,228  Z"/>

<path  fill="#FF9B88" stroke-width="0" stroke="#FF9B88" d = " M141 228 C139.357,228 140,231.765 140,233 141.643,233 141,229.235 141,228  Z"/>

<path  fill="#CCCCC7" stroke-width="0" stroke="#CCCCC7" d = " M173 240 L168,241 C168,236.577 173,233.458 173,230 173,230 174,229 174,229 179.966,229 177,229.371 177,235 177,235 176,236 176,236 176,236 175,237 175,237 175,237 174,239 174,239 174,239 173,240 173,240  Z"/>

<path  fill="#FF9B88" stroke-width="0" stroke="#FF9B88" d = " M188 228 C189.473,228 189,229.952 189,231 187.527,231 188,229.048 188,228  Z"/>

<path  fill="#CCCCC7" stroke-width="0" stroke="#CCCCC7" d = " M285 232 L279.5,228 C275.157,230.171 283.777,241 289,241 289,241 285,232 285,232  Z"/>

<path  fill="#FF9BCD" stroke-width="0" stroke="#FF9BCD" d = " M174 229 L173,230 C173,230 174,229 174,229  Z"/>

<path  fill="#FF9BCD" stroke-width="0" stroke="#FF9BCD" d = " M330 231 L329,232 C329,232 330,231 330,231  Z"/>

<path  fill="#FF9BCD" stroke-width="0" stroke="#FF9BCD" d = " M350 232 C350,233.048 350.473,235 349,235 349,235 349,231 349,231 349,231 350,232 350,232  Z"/>

<path  fill="#FF9B88" stroke-width="0" stroke="#FF9B88" d = " M140 234 C138.421,234 139,236.855 139,238 140.579,238 140,235.145 140,234  Z"/>

<path  fill="#FF9BCD" stroke-width="0" stroke="#FF9BCD" d = " M127 235 C128.602,235 128.602,242 127,242 127,242 127,235 127,235  Z"/>

<path  fill="#FF9BCD" stroke-width="0" stroke="#FF9BCD" d = " M177 235 L176,236 C176,236 177,235 177,235  Z"/>

<path  fill="#FF9BCD" stroke-width="0" stroke="#FF9BCD" d = " M176 236 L175,237 C175,237 176,236 176,236  Z"/>

<path  fill="#FF9BCD" stroke-width="0" stroke="#FF9BCD" d = " M175 237 L174,239 C174,239 175,237 175,237  Z"/>

<path  fill="#FF9BCD" stroke-width="0" stroke="#FF9BCD" d = " M108 238 L109,239 C109,239 108,238 108,238  Z"/>

<path  fill="#FF9B88" stroke-width="0" stroke="#FF9B88" d = " M317 238 C318.473,238 318,239.952 318,241 316.527,241 317,239.048 317,238  Z"/>

<path  fill="#FF9BCD" stroke-width="0" stroke="#FF9BCD" d = " M174 239 L173,240 C173,240 174,239 174,239  Z"/>

<path  fill="#FF9B88" stroke-width="0" stroke="#FF9B88" d = " M139 240 C137.527,240 138,241.952 138,243 139.473,243 139,241.048 139,240  Z"/>

<path  fill="#FF9BCD" stroke-width="0" stroke="#FF9BCD" d = " M153 267 L155.5,264 C157.63,262.935 157,267.996 157,269 157.175,269 161.268,256 165,256 165,249.68 173,245.668 173,240 173,240 168,241 168,241 165.793,241 167.662,246.176 167,247.5 163.603,254.294 162.34,259 155,259 155,259 154,259 154,259 154,259 153,263 153,263 153,263 153,267 153,267  Z"/>

<path  fill="#FF9BCD" stroke-width="0" stroke="#FF9BCD" d = " M347 241 L346,242 C346,242 347,241 347,241  Z"/>

<path  fill="#FF9BCD" stroke-width="0" stroke="#FF9BCD" d = " M110 242 L111,243 C111,243 110,242 110,242  Z"/>

<path  fill="#FF9B88" stroke-width="0" stroke="#FF9B88" d = " M318 243 C319.535,243 319.535,247 318,247 318,247 318,243 318,243  Z"/>

<path  fill="#FF9B88" stroke-width="0" stroke="#FF9B88" d = " M138 247 L139,249 C139,249 138,247 138,247  Z"/>

<path  fill="#FFC5E2" stroke-width="0" stroke="#FFC5E2" d = " M227 275 L230,275 C230,275 230,272 230,272 230,270.594 229.286,265 231,265 231,250.659 226,240.197 226,262 226,262 226,272 226,272 226,272 226,273 226,273 226,273 227,275 227,275  Z"/>

<path  fill="#FF9B88" stroke-width="0" stroke="#FF9B88" d = " M318 249 L317,251 C317,251 318,249 318,249  Z"/>

<path  fill="#FF9BCD" stroke-width="0" stroke="#FF9BCD" d = " M113 251 L114,253 C114,253 113,251 113,251  Z"/>

<path  fill="#FF9B88" stroke-width="0" stroke="#FF9B88" d = " M139 251 L140,252 C140,252 139,251 139,251  Z"/>

<path  fill="#FDB0D9" stroke-width="0" stroke="#FDB0D9" d = " M182 251 L181,254.5 C183.401,259.301 189.574,251 182,251  Z"/>

<path  fill="#FDB0D9" stroke-width="0" stroke="#FDB0D9" d = " M271 251 C271,261.481 279.56,251 271,251  Z"/>

<path  fill="#FF9B88" stroke-width="0" stroke="#FF9B88" d = " M317 252 L316,253 C316,253 317,252 317,252  Z"/>

<path  fill="#FF9B88" stroke-width="0" stroke="#FF9B88" d = " M140 253 L141,254 C141,254 140,253 140,253  Z"/>

<path  fill-rule="evenodd" fill="#FF9BCD" stroke-width="0" stroke="#FF9BCD" d = " M177 285 C177,287.112 182.567,285 177,285  M171 284 C172.013,284 175.408,285 173,285 173,287.447 168.318,285.409 167.5,285 167.5,285 160.5,284 160.5,284 160.5,284 153.5,279 153.5,279 152.418,278.459 149.204,274 153,274 153,274 153,267 153,267 148.107,267 149.371,271.435 140.5,267 137.487,265.493 132.898,255 132,255 132,255 128.5,262 128.5,262 126.171,262 127,255.39 127,254 125.846,254 124.614,259.943 122.5,261 116.956,263.772 115.45,254 114,254 114,262.764 114.412,271.456 121.5,275 122.547,275.523 124.005,276.748 125.5,276 129.023,274.238 133.438,267.469 138.5,270 138.5,270 160.5,285 160.5,285 166.22,287.86 175.536,285.518 180.5,288 182.79,289.145 206.65,291 210,291 211.657,291 220,291.763 220,290 220,290 214,290 214,290 214,290 209,289.5 209,289.5 209,289.5 205,287.5 205,287.5 202.457,282.414 220,282.546 220,279 217.169,279 219.728,271.886 221.5,271 221.5,271 226,272 226,272 226,272 226,262 226,262 226,262 225,262 225,262 225,262 225,266 225,266 225,266 224,267 224,267 224,271.883 209.694,274 206,274 206,277.876 193,285.915 193,279 192.026,279 190.063,283.219 188.5,284 184.563,285.969 171.569,281 167,281 167,281 166,283 166,283 166,283 171,284 171,284  Z"/>

<path  fill="#FF9B88" stroke-width="0" stroke="#FF9B88" d = " M315 255 L314,256 C314,256 315,255 315,255  Z"/>

<path  fill="#FFB3D6" stroke-width="0" stroke="#FFB3D6" d = " M166 281 L167,281 C171.569,281 184.563,285.969 188.5,284 190.063,283.219 192.026,279 193,279 193,279 193,276 193,276 193,276 193,275 193,275 193,275 193,273 193,273 193,273 192,272 192,272 192,272 192,269 192,269 192,269 190,266 190,266 190,266 190,265 190,265 188.324,265 175.492,256 165,256 161.268,256 157.175,269 157,269 157,269 157,271 157,271 157,271 159,274 159,274 159,274 159,275 159,275 159,275 160,276 160,276 160,276 162,278 162,278 162,278 163,279 163,279 163,279 165,280 165,280 165,280 166,281 166,281  Z"/>

<path  fill="#FFB3D6" stroke-width="0" stroke="#FFB3D6" d = " M292 280 L290,281 C278.871,281 264,291.899 264,273 264,273 265,269 265,269 265,269 265,268 265,268 265,268 265,267 265,267 265,267 266,266 266,266 266,266 267,265 267,265 267,265 275.5,259 275.5,259 280.147,256.676 286.399,256 292,256 292,257.424 299,265.051 299,272 299,272 298,274 298,274 298,274 297,275 297,275 297,275 297,276 297,276 297,276 296,277 296,277 296,277 295,278 295,278 295,278 294,279 294,279 294,279 293,279 293,279 293,279 292,280 292,280  Z"/>

<path  fill="#FF9B88" stroke-width="0" stroke="#FF9B88" d = " M143 257 L145,259 C145,259 143,257 143,257  Z"/>

<path  fill="#FF9B88" stroke-width="0" stroke="#FF9B88" d = " M154 259 L155,259 C155,259 155,257 155,257 155,257 154,259 154,259  Z"/>

<path  fill="#FF9B88" stroke-width="0" stroke="#FF9B88" d = " M307 261 L303,264 C303,262.377 302.995,258 301,258 301,258 302,257 302,257 302,258.811 305.438,261 307,261  Z"/>

<path  fill="#FDB2D9" stroke-width="0" stroke="#FDB2D9" d = " M205 271 L206,274 C209.694,274 224,271.883 224,267 224,267 225,266 225,266 225,266 225,262 225,262 225,253.169 205,262.725 205,271  Z"/>

<path  fill="#FDB2D9" stroke-width="0" stroke="#FDB2D9" d = " M251 271 L251,274 C247.626,274 233,271.183 233,268 233,264.909 231.312,262.877 233,259.5 235.661,254.178 251,264.667 251,271  Z"/>

<path  fill="#FF9B88" stroke-width="0" stroke="#FF9B88" d = " M312 258 L311,259 C311,259 312,258 312,258  Z"/>

<path  fill="#FF9B88" stroke-width="0" stroke="#FF9B88" d = " M146 259 L148,261 C148,261 146,259 146,259  Z"/>

<path  fill="#FF9B88" stroke-width="0" stroke="#FF9B88" d = " M149 261 L153,263 C153,263 154,259 154,259 154,259 149,261 149,261  Z"/>

<path  fill="#FF9B88" stroke-width="0" stroke="#FF9B88" d = " M311 259 L310,260 C310,260 311,259 311,259  Z"/>

<path  fill="#FF9B88" stroke-width="0" stroke="#FF9B88" d = " M309 260 L308,261 C308,261 309,260 309,260  Z"/>

<path  fill="#C8C8CB" stroke-width="0" stroke="#C8C8CB" d = " M167 281 L166,283 C163.362,283 155,278.173 155,276 155,276 154,275 154,275 154,275 153,274 153,274 153,274 153,267 153,267 153,267 155.5,264 155.5,264 157.63,262.935 157,267.996 157,269 157,269 157,271 157,271 157,272.238 157.423,274 159,274 159,274 159,275 159,275 159,275 160,276 160,276 160,276 162,278 162,278 162,278 163,279 163,279 163,279 165,280 165,280 165,280 166,281 166,281 166,281 167,281 167,281  Z"/>

<path  fill="#FF9B88" stroke-width="0" stroke="#FF9B88" d = " M193 266 L192,267 C192,267 190,266 190,266 190,266 190,265 190,265 190,265 191,264 191,264 191,264 193,266 193,266  Z"/>

<path  fill="#C8C8CB" stroke-width="0" stroke="#C8C8CB" d = " M290 281 L290,283 C295.382,283 300.553,275 303,275 303,275 304,269.5 304,269.5 303.81,269.121 299,261.812 299,264.5 299,265.253 301.815,272 299,272 299,272 298,274 298,274 298,274 297,275 297,275 297,275 297,276 297,276 297,276 296,277 296,277 296,277 295,278 295,278 295,278 294,279 294,279 294,279 293,279 293,279 293,279 292,280 292,280 292,280 290,281 290,281  Z"/>

<path  fill-rule="evenodd" fill="#FF9BCD" stroke-width="0" stroke="#FF9BCD" d = " M276 285 C276,287.111 283.389,285 276,285  M294 285 C294,288.273 278.891,286.805 276.5,288 274.227,289.136 238.432,291.966 236.5,291 L228.5,287 L223,289 C223,289 226,283 226,283 227.046,283 227.122,284 230,284 230,284 236.5,290 236.5,290 239.372,291.436 254.161,289.821 252,285.5 250.36,282.22 237,283.541 237,279 237,272.496 236.431,272 230,272 230,270.594 229.286,265 231,265 231,266.238 231.423,268 233,268 233,271.183 247.626,274 251,274 251,276.658 263,290.066 263,275 263,275 264,273 264,273 264,291.899 278.871,281 290,281 290,281 290,283 290,283 290,283 285,284 285,284 283.942,284 281.971,285 284,285 284,286.702 292.072,285 294,285  Z"/>

<path  fill="#FF9B88" stroke-width="0" stroke="#FF9B88" d = " M264 268 L265,268 C265,268 265,267 265,267 265,267 266,266 266,266 266,266 266,265 266,265 266,265 265,265 265,265 265,265 263,265 263,265 263,265 264,268 264,268  Z"/>

<path  fill="#FF9BCD" stroke-width="0" stroke="#FF9BCD" d = " M267 265 L266,266 C266,266 266,265 266,265 266,265 267,265 267,265  Z"/>

<path  fill="#FF9BCD" stroke-width="0" stroke="#FF9BCD" d = " M192 267 L192,269 C192,269 190,266 190,266 190,266 192,267 192,267  Z"/>

<path  fill="#FEB0D8" stroke-width="0" stroke="#FEB0D8" d = " M225 266 L224,267 C224,267 225,266 225,266  Z"/>

<path  fill="#FF9BCD" stroke-width="0" stroke="#FF9BCD" d = " M266 266 L265,267 C265,267 266,266 266,266  Z"/>

<path  fill="#FF9BCD" stroke-width="0" stroke="#FF9BCD" d = " M265 268 L265,269 C265,269 264,268 264,268 264,268 265,268 265,268  Z"/>

<path  fill="#FCB2D8" stroke-width="0" stroke="#FCB2D8" d = " M193 276 L193,279 C193,285.915 206,277.876 206,274 206,274 205,271 205,271 198.839,271 194.064,275 194,275 194,275 193,276 193,276  Z"/>

<path  fill="#FCB2D8" stroke-width="0" stroke="#FCB2D8" d = " M251 274 C251,276.658 263,290.066 263,275 261.308,275 257.537,271 251,271 251,271 251,274 251,274  Z"/>

<path  fill="#FF9BCD" stroke-width="0" stroke="#FF9BCD" d = " M157 271 L159,274 C157.423,274 157,272.238 157,271  Z"/>

<path  fill="#CACCC8" stroke-width="0" stroke="#CACCC8" d = " M220 279 L225,279 C225,279 226,276 226,276 226,276 226,273 226,273 226,273 226,272 226,272 226,272 221.5,271 221.5,271 219.728,271.886 217.169,279 220,279  Z"/>

<path  fill="#CACCC8" stroke-width="0" stroke="#CACCC8" d = " M231 279 L237,279 C237,272.496 236.431,272 230,272 230,272 230,275 230,275 230,275 231,279 231,279  Z"/>

<path  fill="#FF9BCD" stroke-width="0" stroke="#FF9BCD" d = " M192 272 L193,273 C193,273 192,272 192,272  Z"/>

<path  fill="#FF9BCD" stroke-width="0" stroke="#FF9BCD" d = " M299 272 L298,274 C298,274 299,272 299,272  Z"/>

<path  fill="#FF9BCD" stroke-width="0" stroke="#FF9BCD" d = " M227 275 L226,276 C226,276 226,273 226,273 226,273 227,275 227,275  Z"/>

<path  fill="#CBC7CC" stroke-width="0" stroke="#CBC7CC" d = " M171 284 L173,285 C173,287.447 168.318,285.409 167.5,285 167.5,285 160.5,284 160.5,284 160.5,284 153.5,279 153.5,279 152.418,278.459 149.204,274 153,274 153,274 154,275 154,275 154,275 155,276 155,276 155,278.173 163.362,283 166,283 166,283 171,284 171,284  Z"/>

<path  fill="#FF9BCD" stroke-width="0" stroke="#FF9BCD" d = " M298 274 L297,275 C297,275 298,274 298,274  Z"/>

<path  fill="#CBC7CC" stroke-width="0" stroke="#CBC7CC" d = " M284 285 C284,286.702 292.072,285 294,285 294,285 298,283 298,283 298,283 299,283 299,283 299,283 300,282 300,282 300,282 301,281 301,281 301,277.945 308.947,275 303,275 300.553,275 295.382,283 290,283 290,283 285,284 285,284 285,284 284,285 284,285  Z"/>

<path  fill="#FF9BCD" stroke-width="0" stroke="#FF9BCD" d = " M154 275 L155,276 C155,276 154,275 154,275  Z"/>

<path  fill="#FF9BCD" stroke-width="0" stroke="#FF9BCD" d = " M159 275 L160,276 C160,276 159,275 159,275  Z"/>

<path  fill="#FF9BCD" stroke-width="0" stroke="#FF9BCD" d = " M194 275 L193,276 C193,276 193,275 193,275 193,275 194,275 194,275  Z"/>

<path  fill="#FFC6E2" stroke-width="0" stroke="#FFC6E2" d = " M226 283 C227.046,283 227.122,284 230,284 230,284 231,279 231,279 231,279 230,275 230,275 230,275 227,275 227,275 227,275 226,276 226,276 226,276 225,279 225,279 225,279 226,283 226,283  Z"/>

<path  fill="#FF9BCD" stroke-width="0" stroke="#FF9BCD" d = " M297 276 L296,277 C296,277 297,276 297,276  Z"/>

<path  fill="#FF9BCD" stroke-width="0" stroke="#FF9BCD" d = " M296 277 L295,278 C295,278 296,277 296,277  Z"/>

<path  fill="#FF9BCD" stroke-width="0" stroke="#FF9BCD" d = " M162 278 L163,279 C163,279 162,278 162,278  Z"/>

<path  fill="#FF9BCD" stroke-width="0" stroke="#FF9BCD" d = " M295 278 L294,279 C294,279 295,278 295,278  Z"/>

<path  fill="#C7C9C9" stroke-width="0" stroke="#C7C9C9" d = " M223 289 C221.952,289 220,288.527 220,290 220,290 214,290 214,290 214,290 209,289.5 209,289.5 209,289.5 205,287.5 205,287.5 202.457,282.414 220,282.546 220,279 220,279 225,279 225,279 225,279 226,283 226,283 226,283 223,289 223,289  Z"/>

<path  fill="#C7C9C9" stroke-width="0" stroke="#C7C9C9" d = " M237 279 C237,283.541 250.36,282.22 252,285.5 254.161,289.821 239.372,291.436 236.5,290 L230,284 C230,284 231,279 231,279 231,279 237,279 237,279  Z"/>

<path  fill="#FF9BCD" stroke-width="0" stroke="#FF9BCD" d = " M293 279 L292,280 C292,280 293,279 293,279  Z"/>

<path  fill="#FF9BCD" stroke-width="0" stroke="#FF9BCD" d = " M165 280 L166,281 C166,281 165,280 165,280  Z"/>

<path  fill="#FF9BCD" stroke-width="0" stroke="#FF9BCD" d = " M301 281 L300,282 C300,282 301,281 301,281  Z"/>

<path  fill="#FF9BCD" stroke-width="0" stroke="#FF9BCD" d = " M300 282 L299,283 C299,283 300,282 300,282  Z"/>

<path  fill="#FF9BCD" stroke-width="0" stroke="#FF9BCD" d = " M298 283 L294,285 C295.465,285 298,285.109 298,283  Z"/>

<path  fill="#CCC7CB" stroke-width="0" stroke="#CCC7CB" d = " M171 284 C172.013,284 175.408,285 173,285 173,285 171,284 171,284  Z"/>

<path  fill="#CCC7CB" stroke-width="0" stroke="#CCC7CB" d = " M285 284 C283.942,284 281.971,285 284,285 284,285 285,284 285,284  Z"/>

<path  fill="#CCC7CB" stroke-width="0" stroke="#CCC7CB" d = " M177 285 C177,287.112 182.567,285 177,285  Z"/>

<path  fill="#CCC7CB" stroke-width="0" stroke="#CCC7CB" d = " M276 285 C276,287.111 283.389,285 276,285  Z"/>

<path  fill="#FF9BCD" stroke-width="0" stroke="#FF9BCD" d = " M223 289 C221.952,289 220,288.527 220,290 221.048,290 223,290.473 223,289  Z"/>

</g>
</svg>
