<svg xmlns="http://www.w3.org/2000/svg" xmlns:xlink="http://www.w3.org/1999/xlink"  viewBox="0 0 456 320">
<g>
<rect width="456" height="320" fill="#000000"  stroke-width="0" /> 
<path  fill="#1E9C59" stroke-width="0" stroke="#1E9C59" d = " M225 58 L221,61 C221,58.0994 217.57,54.035 215.5,53 213.246,51.873 210.414,48.4572 207.5,47 202.114,44.3068 181.336,46.5821 176.5,49 176.5,49 173,51 173,51 173,50.5758 173.488,45 172,45 172,42.9491 186.029,41 188.5,41 202.16,41 214.746,39.9915 221,52.5 222.151,54.8029 225,55.1412 225,58  Z"/>

<path  fill="#1E9C59" stroke-width="0" stroke="#1E9C59" d = " M231 58 L235,60 C235,60 238,55.5 238,55.5 239.714,52.0724 245.486,48.5069 248.5,47 259.546,41.4768 275.68,51 284,51 284,48.5173 284,46.9744 284,45 284,42.846 270.347,41 268,41 260.284,41 250.943,39.7784 244.5,43 244.5,43 236.5,51 236.5,51 235.334,51.5831 231,56.1309 231,58  Z"/>

<path  fill="#1E9D5A" stroke-width="0" stroke="#1E9D5A" d = " M116 69 C116,70.5637 115,72.8764 115,75 120.062,75 126.085,69.2074 130.5,67 138.829,62.8354 164.344,51 173,51 173,50.5758 173.488,45 172,45 160.421,45 139.93,56.7848 129.5,62 129.5,62 116,69 116,69  Z"/>

<path  fill="#1E9D5A" stroke-width="0" stroke="#1E9D5A" d = " M341 69 C341,72.0472 342,73.4622 342,76 339.682,76 329.759,68.6297 326.5,67 320.135,63.8177 289.831,51 284,51 284,48.5173 284,46.9744 284,45 293.041,45 317.909,56.7046 326.5,61 329.322,62.4109 338.493,69 341,69  Z"/>

<path  fill="#1E9D58" stroke-width="0" stroke="#1E9D58" d = " M215 64 L210.5,59 C207.394,57.4471 197.52,54.99 193.5,57 L171,68 C171,62.6248 173,56.7734 173,51 173,51 176.5,49 176.5,49 181.336,46.5821 202.114,44.3068 207.5,47 210.414,48.4572 213.246,51.873 215.5,53 217.57,54.035 221,58.0994 221,61 221,61 215,64 215,64  Z"/>

<path  fill="#1E9D58" stroke-width="0" stroke="#1E9D58" d = " M241 64 C242.696,64 253.605,52.5524 262.5,57 266.286,58.8932 281.947,68 285,68 285,68 284,51 284,51 275.68,51 259.546,41.4768 248.5,47 245.486,48.5069 239.714,52.0724 238,55.5 238,55.5 235,60 235,60 235,60 235,61 235,61 235,61 241,64 241,64  Z"/>

<path  fill="#1F9C58" stroke-width="0" stroke="#1F9C58" d = " M114 92 C114,94.6217 114,96.285 114,100 114,100 129.5,89 129.5,89 138.434,84.533 162.099,69 171,69 171,69 171,68 171,68 171,62.6248 173,56.7734 173,51 164.344,51 138.829,62.8354 130.5,67 126.085,69.2074 120.062,75 115,75 115,75 115,76 115,76 115,79.5625 113,84.2652 113,88 113,88 114,92 114,92  Z"/>

<path  fill="#1F9C58" stroke-width="0" stroke="#1F9C58" d = " M343 93 C342.925,93 342,98.5367 342,100 342,100 330.5,91 330.5,91 318.489,84.9946 306.368,78.9339 294.5,73 291.514,71.5069 288.493,68 285,68 285,68 284,51 284,51 289.831,51 320.135,63.8177 326.5,67 329.759,68.6297 339.682,76 342,76 342,76 343,89 343,89 343,89 343,93 343,93  Z"/>

<path  fill="#1F9D58" stroke-width="0" stroke="#1F9D58" d = " M199 79 L200,79 C200,76.6525 213.693,65 215,65 215,65 215,64 215,64 215,64 210.5,59 210.5,59 207.394,57.4471 197.52,54.99 193.5,57 193.5,57 171,68 171,68 171,68 171,69 171,69 171,75.3501 170,81.8977 170,87 170,87 190,77 190,77 192.008,77 199,76.3441 199,79  Z"/>

<path  fill="#1F9D58" stroke-width="0" stroke="#1F9D58" d = " M257 79 C257,76.3441 263.992,77 266,77 L287,87 C287,80.0912 285,75.2937 285,68 281.947,68 266.286,58.8932 262.5,57 253.605,52.5524 242.696,64 241,64 241,64 241,65 241,65 244.481,65 256,75.2745 256,79 256,79 257,79 257,79  Z"/>

<path  fill="#3EA665" stroke-width="0" stroke="#3EA665" d = " M223 90 C226.642,90 231.002,91 234,91 234,81.03 235,70.3229 235,61 235,61 235,60 235,60 235,60 231,58 231,58 228.693,58 229.376,62 228.5,62 228.5,62 225,58 225,58 225,58 221,61 221,61 221,63.407 221.906,68.3114 223,70.5 223,70.5 223,90 223,90  Z"/>

<path  fill="#40A565" stroke-width="0" stroke="#40A565" d = " M223 91 C220.876,91 218.564,92 217,92 217,92 217,68.5 217,68.5 217,68.5 215,65 215,65 215,65 215,64 215,64 215,64 221,61 221,61 221,63.407 221.906,68.3114 223,70.5 223,70.5 223,90 223,90 223,90 223,91 223,91  Z"/>

<path  fill="#40A565" stroke-width="0" stroke="#40A565" d = " M234 91 L239,91 C239,81.951 241,73.3234 241,65 241,65 241,64 241,64 241,64 235,61 235,61 235,70.3229 234,81.03 234,91  Z"/>

<path  fill="#3EA566" stroke-width="0" stroke="#3EA566" d = " M217 92 C211.666,92 207.987,98 203,98 203,91.9107 200,83.2226 200,79 200,76.6525 213.693,65 215,65 215,65 217,68.5 217,68.5 217,68.5 217,92 217,92  Z"/>

<path  fill="#3EA566" stroke-width="0" stroke="#3EA566" d = " M253 99 L254,99 C254,91.9111 256,84.4503 256,79 256,75.2745 244.481,65 241,65 241,73.3234 239,81.951 239,91 239,91 239,92 239,92 241.522,92 253,96.172 253,99  Z"/>

<path  fill="#1E9C5A" stroke-width="0" stroke="#1E9C5A" d = " M342 101 C342,105.477 340,109.932 340,114 335.433,114 331.462,106.981 327.5,105 320.96,101.73 292.805,88 287,88 287,88 287,87 287,87 287,80.0912 285,75.2937 285,68 288.493,68 291.514,71.5069 294.5,73 306.368,78.9339 318.489,84.9946 330.5,91 330.5,91 342,100 342,100 342,100 342,101 342,101  Z"/>

<path  fill="#197E64" stroke-width="0" stroke="#197E64" d = " M115 76 L107,80 C107,80 104,75 104,75 104,75 116,69 116,69 116,70.5637 115,72.8764 115,75 115,75 115,76 115,76  Z"/>

<path  fill="#1E9C5A" stroke-width="0" stroke="#1E9C5A" d = " M114 101 C115.895,101 114.456,114 117,114 117,114 127.5,106 127.5,106 134.519,102.49 162.761,88 169,88 169,88 170,87 170,87 170,81.8977 171,75.3501 171,69 162.099,69 138.434,84.533 129.5,89 129.5,89 114,100 114,100 114,100 114,101 114,101  Z"/>

<path  fill="#197E64" stroke-width="0" stroke="#197E64" d = " M342 76 L349,80 C349,78.946 352,77.069 352,75 352,75 341,69 341,69 341,72.0472 342,73.4622 342,76  Z"/>

<path  fill="#187E61" stroke-width="0" stroke="#187E61" d = " M67 146 L68,146 C68,132.114 75.1711,118.158 81,106.5 81,106.5 89,96.5 89,96.5 90.6385,93.223 103.647,81 107,81 107,81 107,80 107,80 107,80 104,75 104,75 101.137,75 93.5523,84.4739 90.5,86 78.8336,91.8332 63,130.762 63,144 63,144 67,146 67,146  Z"/>

<path  fill="#187E61" stroke-width="0" stroke="#187E61" d = " M393 144 L389,145 C389,129.902 375.879,104.379 365.5,94 361.415,89.9145 354.566,81 349,81 349,81 349,80 349,80 349,78.946 352,77.069 352,75 354.394,75 366.385,85.8851 369,88.5 380.079,99.5791 393,128.524 393,144  Z"/>

<path  fill="#197F61" stroke-width="0" stroke="#197F61" d = " M107 81 L113,88 C113,84.2652 115,79.5625 115,76 115,76 107,80 107,80 107,80 107,81 107,81  Z"/>

<path  fill="#197F61" stroke-width="0" stroke="#197F61" d = " M349 81 L343,89 C343,89 342,76 342,76 342,76 349,80 349,80 349,80 349,81 349,81  Z"/>

<path  fill="#1D9C5A" stroke-width="0" stroke="#1D9C5A" d = " M179 105 C175.177,105 172.686,108 169,108 169,108 169,88 169,88 169,88 170,87 170,87 170,87 190,77 190,77 192.008,77 199,76.3441 199,79 199,83.466 187,95.9627 187,103 185.448,103 179,103.566 179,105  Z"/>

<path  fill="#1D9C5A" stroke-width="0" stroke="#1D9C5A" d = " M269 103 C275.933,103 280.932,108 287,108 287,100.224 287,96.3104 287,88 287,88 287,87 287,87 287,87 266,77 266,77 263.992,77 257,76.3441 257,79 257,82.4065 269,95.0305 269,103  Z"/>

<path  fill="#3FA664" stroke-width="0" stroke="#3FA664" d = " M187 103 C188.668,103 193,106.099 193,108 193,108 203,99 203,99 203,99 203,98 203,98 203,91.9107 200,83.2226 200,79 200,79 199,79 199,79 199,83.466 187,95.9627 187,103  Z"/>

<path  fill="#3FA664" stroke-width="0" stroke="#3FA664" d = " M267 105 L263,107 C261.568,107 254,100.739 254,99 254,91.9111 256,84.4503 256,79 256,79 257,79 257,79 257,82.4065 269,95.0305 269,103 269,103 267,105 267,105  Z"/>

<path  fill="#1A7E64" stroke-width="0" stroke="#1A7E64" d = " M77 166 L73,167 C73,167 71,164.5 71,164.5 71,164.5 73,157.5 73,157.5 73,157.5 71,156.5 71,156.5 71,154.387 71.3567,150.213 70,147.5 70,147.5 68,146 68,146 68,132.114 75.1711,118.158 81,106.5 81,106.5 89,96.5 89,96.5 90.6385,93.223 103.647,81 107,81 107,81 113,88 113,88 113,88 114,92 114,92 108.856,92 103.066,100.717 98.5,103 94.2186,105.141 91.1759,114.148 89,118.5 81.2349,134.03 77,147.041 77,166  Z"/>

<path  fill-rule="evenodd" fill="#1A7E64" stroke-width="0" stroke="#1A7E64" d = " M383 162 C383,163.93 384.93,162 383,162  M379 166 L385,167 C385,162.114 384.094,146 389,146 389,146 389,145 389,145 389,129.902 375.879,104.379 365.5,94 361.415,89.9145 354.566,81 349,81 349,81 343,89 343,89 343,89 343,93 343,93 350.294,93 354.503,102.502 359.5,105 362.66,106.58 365.282,114.064 367,117.5 374.88,133.26 379,145.699 379,165 379,165 379,166 379,166  Z"/>

<path  fill="#1F9B5A" stroke-width="0" stroke="#1F9B5A" d = " M145 121 C140.09,121 129.476,133.024 125.5,137 L121,143 C121,134.196 117,124.807 117,115 117,115 117,114 117,114 117,114 127.5,106 127.5,106 134.519,102.49 162.761,88 169,88 169,88 169,108 169,108 167.293,108 161,110.656 161,113 158.413,113 145,118.107 145,121  Z"/>

<path  fill="#1F9B5A" stroke-width="0" stroke="#1F9B5A" d = " M340 115 C338.138,115 340.014,120.472 339,122.5 336.533,127.434 336,136.069 336,144 336,144 333,139.5 333,139.5 333,139.5 323,129.5 323,129.5 318.02,124.52 292.627,108 287,108 287,100.224 287,96.3104 287,88 292.805,88 320.96,101.73 327.5,105 331.462,106.981 335.433,114 340,114 340,114 340,115 340,115  Z"/>

<path  fill="#40A664" stroke-width="0" stroke="#40A664" d = " M229 122 L234,126 C234,126 234,91 234,91 231.002,91 226.642,90 223,90 223,90 223,91 223,91 223,102.759 222,115.608 222,127 222,127 227,122 227,122 227,118.85 229,118.554 229,122  Z"/>

<path  fill="#3FA566" stroke-width="0" stroke="#3FA566" d = " M219 132 L220,132 C220,132 222,127 222,127 222,115.608 223,102.759 223,91 220.876,91 218.564,92 217,92 217,92 217,119.5 217,119.5 218.307,122.114 219,129.195 219,132  Z"/>

<path  fill="#3FA566" stroke-width="0" stroke="#3FA566" d = " M236 131 L238,133 C238,119.887 239,105.72 239,92 239,92 239,91 239,91 239,91 234,91 234,91 234,91 234,126 234,126 234,126 236,131 236,131  Z"/>

<path  fill="#1B7F62" stroke-width="0" stroke="#1B7F62" d = " M83 165 C80.8764,165 78.5637,166 77,166 77,147.041 81.2349,134.03 89,118.5 91.1759,114.148 94.2186,105.141 98.5,103 103.066,100.717 108.856,92 114,92 114,94.6217 114,96.285 114,100 114,100 114,101 114,101 114,101 101,114.5 101,114.5 97.3407,121.819 92.5903,128.319 89,135.5 86.3426,140.815 87.3161,153.868 85,158.5 85,158.5 83,165 83,165  Z"/>

<path  fill="#3EA666" stroke-width="0" stroke="#3EA666" d = " M209 129 C209.621,129 219,136.034 219,132 219,129.195 218.307,122.114 217,119.5 217,119.5 217,92 217,92 211.666,92 207.987,98 203,98 203,98 203,99 203,99 203,105.304 202.377,113.253 205,118.5 206.616,121.732 209,125.144 209,129  Z"/>

<path  fill="#3EA666" stroke-width="0" stroke="#3EA666" d = " M247 129 C244.136,129 241.65,133 238,133 238,119.887 239,105.72 239,92 241.522,92 253,96.172 253,99 253,99 253,113.5 253,113.5 251.046,117.407 247,124.627 247,129  Z"/>

<path  fill="#1B7F62" stroke-width="0" stroke="#1B7F62" d = " M373 165 L379,165 C379,145.699 374.88,133.26 367,117.5 365.282,114.064 362.66,106.58 359.5,105 354.503,102.502 350.294,93 343,93 342.925,93 342,98.5367 342,100 342,100 342,101 342,101 346.444,101 353.339,111.178 355,114.5 356.634,117.768 361.011,121.523 363,125.5 368.146,135.792 373,151.976 373,164 373,164 373,165 373,165  Z"/>

<path  fill="#40A564" stroke-width="0" stroke="#40A564" d = " M204 125 L209,129 C209,125.144 206.616,121.732 205,118.5 202.377,113.253 203,105.304 203,99 203,99 193,108 193,108 193,108 193,109 193,109 193,109 196,112.5 196,112.5 197.556,115.611 204,121.186 204,124 204,124 204,125 204,125  Z"/>

<path  fill="#40A564" stroke-width="0" stroke="#40A564" d = " M253 125 C250.42,125 249.789,129 247,129 247,124.627 251.046,117.407 253,113.5 253,113.5 253,99 253,99 253,99 254,99 254,99 254,100.739 261.568,107 263,107 263,107 263,109 263,109 263,109 261,113 261,113 259.383,113 257,117.583 257,119 255.189,119 253,122.438 253,124 253,124 253,125 253,125  Z"/>

<path  fill="#1B7E63" stroke-width="0" stroke="#1B7E63" d = " M99 161 C94.4338,161 87.8501,165 83,165 83,165 85,158.5 85,158.5 87.3161,153.868 86.3426,140.815 89,135.5 92.5903,128.319 97.3407,121.819 101,114.5 101,114.5 114,101 114,101 115.895,101 114.456,114 117,114 117,114 117,115 117,115 113.189,115 110.333,120.835 109,123.5 109,123.5 103,131.5 103,131.5 98.7542,139.992 99,150.733 99,161  Z"/>

<path  fill="#1B7E63" stroke-width="0" stroke="#1B7E63" d = " M358 162 C363.078,162 367.598,164 373,164 373,151.976 368.146,135.792 363,125.5 361.011,121.523 356.634,117.768 355,114.5 353.339,111.178 346.444,101 342,101 342,105.477 340,109.932 340,114 340,114 340,115 340,115 343.292,115 347.909,123.319 349,125.5 355.322,138.143 358,146.703 358,162  Z"/>

<path  fill="#1E9C58" stroke-width="0" stroke="#1E9C58" d = " M187 104 C184.903,104 181.707,105 179,105 179,103.566 185.448,103 187,103 187,103 187,104 187,104  Z"/>

<path  fill="#3FA466" stroke-width="0" stroke="#3FA466" d = " M193 108 L193,109 C193,109 190,105.5 190,105.5 190,105.5 187,104 187,104 187,104 187,103 187,103 188.668,103 193,106.099 193,108  Z"/>

<path  fill="#3FA466" stroke-width="0" stroke="#3FA466" d = " M269 104 L267,105 C267,105 269,103 269,103 269,103 269,104 269,104  Z"/>

<path  fill="#1E9C58" stroke-width="0" stroke="#1E9C58" d = " M287 108 L287,109 C280.507,109 275.668,104 269,104 269,104 269,103 269,103 275.933,103 280.932,108 287,108  Z"/>

<path  fill="#CACCC7" stroke-width="0" stroke="#CACCC7" d = " M204 124 L204,125 C194.878,125 194.472,112.486 187.5,109 182.918,106.709 176.857,111 173,111 173,111 172,112 172,112 172,112 171,112 171,112 171,112 170,113 170,113 170,113 169,113 169,113 167.643,113 163,115.112 163,113 163,109.996 169,111.517 169,109 171.161,109 179,107.271 179,105 181.707,105 184.903,104 187,104 187,104 190,105.5 190,105.5 190,105.5 193,109 193,109 193,113 200.235,124 204,124  Z"/>

<path  fill="#CACCC7" stroke-width="0" stroke="#CACCC7" d = " M253 124 L253,125 C261.047,125 262.788,112.356 269.5,109 274.123,106.689 280.007,111 284,111 284,111 287,113 287,113 287,113 288,113 288,113 289.424,113 293,114.762 293,113 293,111.687 288.53,109 287,109 280.507,109 275.668,104 269,104 269,104 267,105 267,105 267,106.634 264.366,109 263,109 263,110.465 263.109,113 261,113 261,115.522 259.568,119 257,119 257,120.562 254.811,124 253,124  Z"/>

<path  fill="#1E9C58" stroke-width="0" stroke="#1E9C58" d = " M169 108 L169,109 C171.161,109 179,107.271 179,105 175.177,105 172.686,108 169,108  Z"/>

<path  fill="#3FA466" stroke-width="0" stroke="#3FA466" d = " M263 107 L263,109 C264.366,109 267,106.634 267,105 267,105 263,107 263,107  Z"/>

<path  fill="#1D9D5A" stroke-width="0" stroke="#1D9D5A" d = " M161 113 L163,113 C163,109.996 169,111.517 169,109 169,109 169,108 169,108 167.293,108 161,110.656 161,113  Z"/>

<path  fill="#1D9D5A" stroke-width="0" stroke="#1D9D5A" d = " M337 147 L337,149 C334.659,149 335.579,146.658 335,145.5 335,145.5 327.5,136 327.5,136 320.132,128.632 302.6,113 293,113 293,111.687 288.53,109 287,109 287,109 287,108 287,108 292.627,108 318.02,124.52 323,129.5 323,129.5 333,139.5 333,139.5 333,139.5 336,144 336,144 336,144 337,147 337,147  Z"/>

<path  fill="#CCC7C9" stroke-width="0" stroke="#CCC7C9" d = " M336 173 L339,173 C339,173 339,171 339,171 339,171 339,163 339,163 337.079,163 337.74,154.979 337,153.5 333.719,146.938 328.181,135.841 322.5,133 313.639,128.57 306.282,121.391 297.5,117 295.838,116.169 288,115.485 288,113 288,113 287,113 287,113 285.762,113 284,112.577 284,111 280.007,111 274.123,106.689 269.5,109 262.788,112.356 261.047,125 253,125 250.42,125 249.789,129 247,129 244.136,129 241.65,133 238,133 238,133 236,131 236,131 236,132.416 231.289,136.894 229.5,136 229.5,136 228.5,132 228.5,132 226.368,132 227.751,137.126 225.5,136 225.5,136 220,132 220,132 220,132 219,132 219,132 219,136.034 209.621,129 209,129 209,129 204,125 204,125 194.878,125 194.472,112.486 187.5,109 182.918,106.709 176.857,111 173,111 173,111 172,112 172,112 172,112 171,112 171,112 171,112 170,113 170,113 170,113 169,113 169,113 169,114.845 165.619,114.441 164.5,115 158.907,117.796 153.072,120.214 147.5,123 140.691,126.405 134.728,132.772 129,138.5 129,138.5 123,145 123,145 123,146.465 123.109,149 121,149 121,150.419 118.661,161 118,161 118,162.321 118.684,167 117,167 117,167 117,171 117,171 117,171 118,173 118,173 118,173 120,173 120,173 120,141.745 130.262,139.119 154.5,127 160.977,123.761 192,126.292 192,136 199.276,136 209,146.112 209,153 209,153 210,154 210,154 211.042,154 221,155.294 221,156 221,156 223,156 223,156 223,156 225,157 225,157 225,157 226,157 226,157 226,157 228.5,155 228.5,155 228.5,155 230,157 230,157 230,157 231,157 231,157 231,157 233,156 233,156 233,156 236,156 236,156 236,154.237 244.343,155 246,155 246,154.329 247.328,150 248,150 248,144.653 258.172,137 263,137 263,137 264,136 264,136 264,136 271.5,129 271.5,129 276.093,126.704 281.94,127.28 286.5,125 289.442,123.529 302.876,127.688 305.5,129 308.842,130.671 313.07,131.285 316.5,133 332.992,141.246 336,156.083 336,173  Z"/>

<path  fill="#40A465" stroke-width="0" stroke="#40A465" d = " M193 109 L196,112.5 C197.556,115.611 204,121.186 204,124 200.235,124 193,113 193,109  Z"/>

<path  fill="#40A465" stroke-width="0" stroke="#40A465" d = " M263 109 L261,113 C263.109,113 263,110.465 263,109  Z"/>

<path  fill="#C9C9CA" stroke-width="0" stroke="#C9C9CA" d = " M173 111 L172,112 C172,112 173,111 173,111  Z"/>

<path  fill="#C9C9CA" stroke-width="0" stroke="#C9C9CA" d = " M284 111 L287,113 C285.762,113 284,112.577 284,111  Z"/>

<path  fill="#C9C9CA" stroke-width="0" stroke="#C9C9CA" d = " M171 112 L170,113 C170,113 171,112 171,112  Z"/>

<path  fill="#1D9D5A" stroke-width="0" stroke="#1D9D5A" d = " M161 113 C158.413,113 145,118.107 145,121 146.998,121 161,114.057 161,113  Z"/>

<path  fill="#C9C9CA" stroke-width="0" stroke="#C9C9CA" d = " M145 121 C145,123.675 139.734,125.883 137.5,127 135.238,128.131 123,141.76 123,145 123,145 129,138.5 129,138.5 134.728,132.772 140.691,126.405 147.5,123 153.072,120.214 158.907,117.796 164.5,115 165.619,114.441 169,114.845 169,113 167.643,113 163,115.112 163,113 163,113 161,113 161,113 161,114.057 146.998,121 145,121  Z"/>

<path  fill="#40A465" stroke-width="0" stroke="#40A465" d = " M261 113 C259.383,113 257,117.583 257,119 259.568,119 261,115.522 261,113  Z"/>

<path  fill="#C9C9CA" stroke-width="0" stroke="#C9C9CA" d = " M339 158 L339,163 C337.079,163 337.74,154.979 337,153.5 333.719,146.938 328.181,135.841 322.5,133 313.639,128.57 306.282,121.391 297.5,117 295.838,116.169 288,115.485 288,113 289.424,113 293,114.762 293,113 302.6,113 320.132,128.632 327.5,136 327.5,136 335,145.5 335,145.5 335.579,146.658 334.659,149 337,149 337,149 337,150 337,150 337,151.048 336.527,153 338,153 338,153 339,158 339,158  Z"/>

<path  fill="#187D61" stroke-width="0" stroke="#187D61" d = " M99 161 L99,162 C104.729,162 109.786,159 116,159 116,159 116,158 116,158 116,156.049 116.433,149 119,149 119,149 119,148 119,148 119,148 119,147 119,147 119,147 120,145 120,145 120,145 121,144 121,144 121,144 121,143 121,143 121,134.196 117,124.807 117,115 113.189,115 110.333,120.835 109,123.5 109,123.5 103,131.5 103,131.5 98.7542,139.992 99,150.733 99,161  Z"/>

<path  fill="#187D61" stroke-width="0" stroke="#187D61" d = " M341 159 C346.972,159 352.193,162 358,162 358,146.703 355.322,138.143 349,125.5 347.909,123.319 343.292,115 340,115 338.138,115 340.014,120.472 339,122.5 336.533,127.434 336,136.069 336,144 336,144 337,147 337,147 338.949,147 341,156.971 341,159  Z"/>

<path  fill="#40A465" stroke-width="0" stroke="#40A465" d = " M257 119 C255.189,119 253,122.438 253,124 254.811,124 257,120.562 257,119  Z"/>

<path  fill="#1D9D5A" stroke-width="0" stroke="#1D9D5A" d = " M121 149 L119,150 C119,150 119,149 119,149 119,149 119,148 119,148 120.186,148 120.186,147 119,147 119,147 120,145 120,145 120,145 121,144 121,144 121,144 121,143 121,143 121,143 125.5,137 125.5,137 129.476,133.024 140.09,121 145,121 145,123.675 139.734,125.883 137.5,127 135.238,128.131 123,141.76 123,145 120.891,145 121,147.535 121,149  Z"/>

<path  fill="#7ED04B" stroke-width="0" stroke="#7ED04B" d = " M236 131 C236,132.416 231.289,136.894 229.5,136 L228.5,132 C226.368,132 227.751,137.126 225.5,136 L220,132 C220,132 222,127 222,127 222,127 227,122 227,122 227,123.919 229,124.488 229,122 229,122 234,126 234,126 234,126 236,131 236,131  Z"/>

<path  fill="#98D5F9" stroke-width="0" stroke="#98D5F9" d = " M143 233 L145,233 C148.766,233 152.514,234.993 156.5,233 162.075,230.213 162.798,222.905 165,218.5 168.831,210.837 183.262,196 192,196 192,196 193,195 193,195 193,188.608 195,182.951 195,176 195,174.959 195.986,171 197,171 197,171 197,145.5 197,145.5 197,145.5 195,141 195,141 195,141 192,136 192,136 192,126.292 160.977,123.761 154.5,127 130.262,139.119 120,141.745 120,173 121.344,173 121.387,180.273 122,181.5 125.128,187.756 128,197.696 128,205 128,211.716 133,216.909 133,223 136.459,223 138.128,233 143,233  Z"/>

<path  fill="#98D5F9" stroke-width="0" stroke="#98D5F9" d = " M314 233 C312.952,233 311,232.527 311,234 293.533,234 292.709,222.918 286,209.5 282.723,202.945 274.648,201.574 269.5,199 269.5,199 264,196 264,196 264,196 263,195 263,195 263,193.084 262.287,181 261,181 261,181 261,180 261,180 261,175.416 260.874,172.249 259,168.5 255.319,161.139 261,147.585 261,141 261,141 263,137 263,137 263,137 264,136 264,136 264,136 271.5,129 271.5,129 276.093,126.704 281.94,127.28 286.5,125 289.442,123.529 302.876,127.688 305.5,129 308.842,130.671 313.07,131.285 316.5,133 332.992,141.246 336,156.083 336,173 336,184.035 329,193.281 329,205 329,205 325,219 325,219 325,219 324,221 324,221 324,221 323,222 323,222 323,222 323,223 323,223 321.009,223 319.514,231 316,231 316,231 315,232 315,232 315,232 314,233 314,233  Z"/>

<path  fill="#AAA8A9" stroke-width="0" stroke="#AAA8A9" d = " M209 153 L207,155 C207,147.392 201.592,141 195,141 195,141 192,136 192,136 199.276,136 209,146.112 209,153  Z"/>

<path  fill="#AAA8A9" stroke-width="0" stroke="#AAA8A9" d = " M264 136 L263,137 C263,137 264,136 264,136  Z"/>

<path  fill="#AAA8A9" stroke-width="0" stroke="#AAA8A9" d = " M248 150 C248,151.145 247.421,154 249,154 249,147.318 256.422,141 261,141 261,141 263,137 263,137 258.172,137 248,144.653 248,150  Z"/>

<path  fill="#A8AAAA" stroke-width="0" stroke="#A8AAAA" d = " M197 171 L198,171 C198,171 199,169 199,169 199,169 200,167 200,167 200,167 201,165 201,165 201,163.762 201.423,162 203,162 203,162 204,160 204,160 204,158.762 204.423,157 206,157 206,157 207,155 207,155 207,147.392 201.592,141 195,141 195,141 197,145.5 197,145.5 197,145.5 197,171 197,171  Z"/>

<path  fill="#A8AAAA" stroke-width="0" stroke="#A8AAAA" d = " M260 179 L261,180 C261,175.416 260.874,172.249 259,168.5 255.319,161.139 261,147.585 261,141 256.422,141 249,147.318 249,154 249,154 249,155 249,155 250.094,155 259,169.36 259,171 259,171 259,173 259,173 259,173 260,175 260,175 260,175 260,179 260,179  Z"/>

<path  fill="#1A7E62" stroke-width="0" stroke="#1A7E62" d = " M68 168 L63,170 C63,161.801 63,152.199 63,144 63,144 67,146 67,146 67,153.293 68,161.359 68,168  Z"/>

<path  fill="#1F9B5A" stroke-width="0" stroke="#1F9B5A" d = " M121 144 L120,145 C120,145 121,144 121,144  Z"/>

<path  fill="#1A7E62" stroke-width="0" stroke="#1A7E62" d = " M389 169 L393,170 C393,170 395,163.5 395,163.5 397.809,157.882 393,149.019 393,144 393,144 389,145 389,145 389,145 389,146 389,146 389,146 389,168 389,168 389,168 389,169 389,169  Z"/>

<path  fill="#C9C9CA" stroke-width="0" stroke="#C9C9CA" d = " M123 145 C120.891,145 121,147.535 121,149 123.109,149 123,146.465 123,145  Z"/>

<path  fill="#1B8063" stroke-width="0" stroke="#1B8063" d = " M73 167 L68,168 C68,161.359 67,153.293 67,146 67,146 68,146 68,146 68,146 70,147.5 70,147.5 71.3567,150.213 71,154.387 71,156.5 71,156.5 73,157.5 73,157.5 73,157.5 71,164.5 71,164.5 71,164.5 73,167 73,167  Z"/>

<path  fill="#1B8063" stroke-width="0" stroke="#1B8063" d = " M385 167 L389,168 C389,168 389,146 389,146 384.094,146 385,162.114 385,167  Z"/>

<path  fill="#188064" stroke-width="0" stroke="#188064" d = " M119 147 C120.186,147 120.186,148 119,148 119,148 119,147 119,147  Z"/>

<path  fill="#188064" stroke-width="0" stroke="#188064" d = " M339 158 L341,159 C341,156.971 338.949,147 337,147 337,147 337,149 337,149 337,149 337,150 337,150 338.473,150 338,151.952 338,153 338,153 339,158 339,158  Z"/>

<path  fill="#188064" stroke-width="0" stroke="#188064" d = " M116 158 L118,158 C118,158 119,153 119,153 117.601,153 117.601,151 119,151 119,151 119,150 119,150 119,150 119,149 119,149 116.433,149 116,156.049 116,158  Z"/>

<path  fill="#C9C9CA" stroke-width="0" stroke="#C9C9CA" d = " M118 158 L118,161 C118.661,161 121,150.419 121,149 121,149 119,150 119,150 119,150 119,151 119,151 119,151 119,153 119,153 119,153 118,158 118,158  Z"/>

<path  fill="#97D6F9" stroke-width="0" stroke="#97D6F9" d = " M225 199 L228.5,193 C231.174,193 230.27,203 232,203 232,190.433 226.481,173.51 239.5,167 239.5,167 254.5,167 254.5,167 254.5,167 257,169 257,169 257,164.407 249,159.702 249,155 249,155 249,154 249,154 247.421,154 248,151.145 248,150 247.328,150 246,154.329 246,155 246,157.991 239.949,157 238,157 238,158.606 240.081,161.339 239,163.5 237.929,165.642 232.199,171.899 230,167.5 228.12,163.74 230,160.613 230,157 230,157 228.5,155 228.5,155 228.5,155 226,157 226,157 226,159.454 228.489,164.523 227,167.5 224.408,172.685 218.068,164.636 217,162.5 216.022,160.544 218,158.423 218,157 215.68,157 210,157.666 210,154 210,154 209,153 209,153 209,153 207,155 207,155 207,155 206,157 206,157 206,158.238 205.577,160 204,160 204,160 203,162 203,162 203,163.238 202.577,165 201,165 201,165 200,167 200,167 200,167 200,168 200,168 204.158,168 213.034,164.767 217.5,167 228.423,172.461 225,187.466 225,199  Z"/>

<path  fill="#1D9D5A" stroke-width="0" stroke="#1D9D5A" d = " M337 150 C338.473,150 338,151.952 338,153 336.527,153 337,151.048 337,150  Z"/>

<path  fill="#1D9D5A" stroke-width="0" stroke="#1D9D5A" d = " M119 151 C117.601,151 117.601,153 119,153 119,153 119,151 119,151  Z"/>

<path  fill="#CAC7CC" stroke-width="0" stroke="#CAC7CC" d = " M221 156 C221,157.473 219.048,157 218,157 215.68,157 210,157.666 210,154 211.042,154 221,155.294 221,156  Z"/>

<path  fill="#AAA8A9" stroke-width="0" stroke="#AAA8A9" d = " M207 155 L206,157 C206,157 207,155 207,155  Z"/>

<path  fill="#CAC7CC" stroke-width="0" stroke="#CAC7CC" d = " M236 156 L238,157 C239.949,157 246,157.991 246,155 244.343,155 236,154.237 236,156  Z"/>

<path  fill="#AAA8A9" stroke-width="0" stroke="#AAA8A9" d = " M257 169 L259,171 C259,169.36 250.094,155 249,155 249,159.702 257,164.407 257,169  Z"/>

<path  fill="#8FCAED" stroke-width="0" stroke="#8FCAED" d = " M225 157 L226,157 C226,159.454 228.489,164.523 227,167.5 224.408,172.685 218.068,164.636 217,162.5 216.022,160.544 218,158.423 218,157 219.048,157 221,157.473 221,156 221,156 223,156 223,156 223,156 225,157 225,157  Z"/>

<path  fill="#CAC7CC" stroke-width="0" stroke="#CAC7CC" d = " M223 156 L225,157 C225,157 223,156 223,156  Z"/>

<path  fill="#CAC7CC" stroke-width="0" stroke="#CAC7CC" d = " M233 156 L231,157 C231,157 233,156 233,156  Z"/>

<path  fill="#8FCAED" stroke-width="0" stroke="#8FCAED" d = " M230 157 L231,157 C231,157 233,156 233,156 233,156 236,156 236,156 236,156 238,157 238,157 238,158.606 240.081,161.339 239,163.5 237.929,165.642 232.199,171.899 230,167.5 228.12,163.74 230,160.613 230,157  Z"/>

<path  fill="#AAA8A9" stroke-width="0" stroke="#AAA8A9" d = " M206 157 C204.423,157 204,158.762 204,160 205.577,160 206,158.238 206,157  Z"/>

<path  fill="#019C74" stroke-width="0" stroke="#019C74" d = " M116 171 L117,171 C117,171 117,167 117,167 117,165.679 116.316,161 118,161 118,161 118,158 118,158 118,158 116,158 116,158 116,158 116,159 116,159 116,159 116,171 116,171  Z"/>

<path  fill="#019C74" stroke-width="0" stroke="#019C74" d = " M339 171 L341,171 C341,171 341,159 341,159 341,159 339,158 339,158 339,158 339,163 339,163 339,163 339,171 339,171  Z"/>

<path  fill="#009B74" stroke-width="0" stroke="#009B74" d = " M116 171 C109.994,171 105.761,177 99,177 99,177 99,162 99,162 104.729,162 109.786,159 116,159 116,159 116,171 116,171  Z"/>

<path  fill="#009B74" stroke-width="0" stroke="#009B74" d = " M341 171 C346.488,171 350.66,177 357,177 357,172.067 358,166.27 358,162 352.193,162 346.972,159 341,159 341,159 341,171 341,171  Z"/>

<path  fill="#AAA8A9" stroke-width="0" stroke="#AAA8A9" d = " M204 160 L203,162 C203,162 204,160 204,160  Z"/>

<path  fill="#019C75" stroke-width="0" stroke="#019C75" d = " M99 178 C93.3092,178 88.7947,183 83,183 81.3855,183 82,179.69 82,178.5 82,178.5 83,165 83,165 87.8501,165 94.4338,161 99,161 99,161 99,162 99,162 99,162 99,177 99,177 99,177 99,178 99,178  Z"/>

<path  fill="#C9C9CA" stroke-width="0" stroke="#C9C9CA" d = " M118 161 C116.316,161 117,165.679 117,167 118.684,167 118,162.321 118,161  Z"/>

<path  fill="#AAA8A9" stroke-width="0" stroke="#AAA8A9" d = " M203 162 C201.423,162 201,163.762 201,165 202.577,165 203,163.238 203,162  Z"/>

<path  fill="#019C75" stroke-width="0" stroke="#019C75" d = " M357 178 C363.058,178 367.733,183 374,183 374,176.784 373,170.708 373,165 373,165 373,164 373,164 367.598,164 363.078,162 358,162 358,166.27 357,172.067 357,177 357,177 357,178 357,178  Z"/>

<path  fill="#1B8063" stroke-width="0" stroke="#1B8063" d = " M383 162 C383,163.93 384.93,162 383,162  Z"/>

<path  fill="#009C74" stroke-width="0" stroke="#009C74" d = " M81 184 L83,184 C83,184 83,183 83,183 81.3855,183 82,179.69 82,178.5 82,178.5 83,165 83,165 80.8764,165 78.5637,166 77,166 77,166 79,180.5 79,180.5 79,180.5 81,184 81,184  Z"/>

<path  fill="#AAA8A9" stroke-width="0" stroke="#AAA8A9" d = " M201 165 L200,167 C200,167 201,165 201,165  Z"/>

<path  fill="#009C74" stroke-width="0" stroke="#009C74" d = " M374 184 L375,184 C377.422,184 379,168.859 379,166 379,166 379,165 379,165 379,165 373,165 373,165 373,170.708 374,176.784 374,183 374,183 374,184 374,184  Z"/>

<path  fill="#009B75" stroke-width="0" stroke="#009B75" d = " M81 184 C81,184.774 73.2269,188 72,188 72,188 68,168 68,168 68,168 73,167 73,167 73,167 77,166 77,166 77,166 79,180.5 79,180.5 79,180.5 81,184 81,184  Z"/>

<path  fill="#009B75" stroke-width="0" stroke="#009B75" d = " M375 184 C375,185.682 382.147,187 384,187 386.064,187 384.426,183.647 385,182.5 385.79,180.921 388.184,169 389,169 389,169 389,168 389,168 389,168 385,167 385,167 385,167 379,166 379,166 379,168.859 377.422,184 375,184  Z"/>

<path  fill="#AAA8A9" stroke-width="0" stroke="#AAA8A9" d = " M200 168 L199,169 C199,169 200,167 200,167 200,167 200,168 200,168  Z"/>

<path  fill="#90CAED" stroke-width="0" stroke="#90CAED" d = " M213 217 L215.5,221 C218.769,222.634 219.457,218 221,218 221,213.75 224,209.553 224,205 224,203.765 223.357,200 225,200 225,200 225,199 225,199 225,187.466 228.423,172.461 217.5,167 213.034,164.767 204.158,168 200,168 200,168 199,169 199,169 199,169 198,171 198,171 198,171 197,173 197,173 197,173 197,175 197,175 197,175 197,178 197,178 201.083,178 215.523,202.988 209.5,206 209.5,206 207,205 207,205 207,205 209,209 209,209 209,209 210,210 210,210 210,210 213,217 213,217  Z"/>

<path  fill="#90CAED" stroke-width="0" stroke="#90CAED" d = " M235 217 L237.5,221 C240.943,222.722 240.668,218 243,218 243,218 243,216 243,216 243,216 244,215 244,215 244,215 245,212 245,212 245,212 246,211 246,211 246,211 247,210 247,210 247,210 248,207 248,207 248,207 248,206 248,206 243.773,206 244.775,199.95 246,197.5 247.694,194.111 254.579,179.46 257.5,178 257.5,178 260,179 260,179 260,179 260,175 260,175 260,175 259,173 259,173 259,173 259,171 259,171 259,171 257,169 257,169 257,169 254.5,167 254.5,167 254.5,167 239.5,167 239.5,167 226.481,173.51 232,190.433 232,203 232,203 235,217 235,217  Z"/>

<path  fill="#009C75" stroke-width="0" stroke="#009C75" d = " M72 188 L68,189 C68,189 63,170 63,170 63,170 68,168 68,168 68,168 72,188 72,188  Z"/>

<path  fill="#AAA8A9" stroke-width="0" stroke="#AAA8A9" d = " M199 169 L198,171 C198,171 199,169 199,169  Z"/>

<path  fill="#009C75" stroke-width="0" stroke="#009C75" d = " M384 188 L388,189 C389.951,189 388.477,186.546 389,185.5 391.004,181.492 393,174.631 393,170 393,170 389,169 389,169 388.184,169 385.79,180.921 385,182.5 384.426,183.647 386.064,187 384,187 384,187 384,188 384,188  Z"/>

<path  fill="#209666" stroke-width="0" stroke="#209666" d = " M111 197 C108.517,197 106.974,199 105,199 105,193.156 99,186.193 99,178 99,178 99,177 99,177 105.761,177 109.994,171 116,171 116,173.595 116.489,184 120,184 120,184 121,187 121,187 121,187 117.5,183 117.5,183 108.042,178.271 111,193.57 111,197  Z"/>

<path  fill="#1F9766" stroke-width="0" stroke="#1F9766" d = " M118 173 L120,184 C116.489,184 116,173.595 116,171 116,171 117,171 117,171 117,171 118,173 118,173  Z"/>

<path  fill="#A8AAAA" stroke-width="0" stroke="#A8AAAA" d = " M193 195 L193,196 C193,198.374 195,194.641 195,194 195,194 196,191 196,191 196,191 196,179 196,179 196,179 196,178 196,178 196,176.952 195.527,175 197,175 197,175 197,173 197,173 197,173 197,171 197,171 195.986,171 195,174.959 195,176 195,182.951 193,188.608 193,195  Z"/>

<path  fill="#AAA8A9" stroke-width="0" stroke="#AAA8A9" d = " M198 171 L197,173 C197,173 197,171 197,171 197,171 198,171 198,171  Z"/>

<path  fill="#1F9766" stroke-width="0" stroke="#1F9766" d = " M339 183 L337,184 C337,180.022 339,176.451 339,173 339,173 339,171 339,171 339,171 341,171 341,171 341,174.981 339,178.629 339,183  Z"/>

<path  fill="#209666" stroke-width="0" stroke="#209666" d = " M346 197 L351,198 C354.85,198 357,181.924 357,178 357,178 357,177 357,177 350.66,177 346.488,171 341,171 341,174.981 339,178.629 339,183 347.643,183 346,189.973 346,197  Z"/>

<path  fill="#C8CBCC" stroke-width="0" stroke="#C8CBCC" d = " M126 205 L128,205 C128,197.696 125.128,187.756 122,181.5 121.387,180.273 121.344,173 120,173 120,173 118,173 118,173 118,173 120,184 120,184 120,184 121,187 121,187 121,187 121,189 121,189 121,189 123,192 123,192 123,192 123,194 123,194 123,194 123,195 123,195 124.712,195 126,203.574 126,205  Z"/>

<path  fill="#AAA8A9" stroke-width="0" stroke="#AAA8A9" d = " M259 173 L260,175 C260,175 259,173 259,173  Z"/>

<path  fill="#C8CBCC" stroke-width="0" stroke="#C8CBCC" d = " M329 205 L331,205 C331,203.101 330.512,197 333,197 333,197 333,196 333,196 333,194.952 332.527,193 334,193 334,193 335,191 335,191 335,191 335,188 335,188 335,188 336,187 336,187 336,187 337,185 337,185 337,185 337,184 337,184 337,180.022 339,176.451 339,173 339,173 336,173 336,173 336,184.035 329,193.281 329,205  Z"/>

<path  fill="#AAA8A9" stroke-width="0" stroke="#AAA8A9" d = " M196 178 L197,178 C197,178 197,175 197,175 195.527,175 196,176.952 196,178  Z"/>

<path  fill="#209665" stroke-width="0" stroke="#209665" d = " M105 199 C99.3399,199 94.5353,202 89,202 89,198.529 83,190.534 83,184 83,184 83,183 83,183 88.7947,183 93.3092,178 99,178 99,186.193 105,193.156 105,199  Z"/>

<path  fill="#90CAED" stroke-width="0" stroke="#90CAED" d = " M197 178 L196,179 C196,179 196,178 196,178 196,178 197,178 197,178  Z"/>

<path  fill="#8FCBED" stroke-width="0" stroke="#8FCBED" d = " M199 195 C200.608,195 207,203.496 207,205 207,205 209.5,206 209.5,206 215.523,202.988 201.083,178 197,178 197,178 196,179 196,179 196,179 196,191 196,191 196,191 199,195 199,195  Z"/>

<path  fill="#8FCBED" stroke-width="0" stroke="#8FCBED" d = " M248 206 L249,206 C249,206 250,204 250,204 250,204 251,203 251,203 251,201.482 256.218,195 258,195 258,195 259,194 259,194 259,194 260,192 260,192 260,192 261,181 261,181 261,181 261,180 261,180 261,180 260,179 260,179 260,179 257.5,178 257.5,178 254.579,179.46 247.694,194.111 246,197.5 244.775,199.95 243.773,206 248,206  Z"/>

<path  fill="#209665" stroke-width="0" stroke="#209665" d = " M367 202 L368,202 C368,196.185 374,190.298 374,184 374,184 374,183 374,183 367.733,183 363.058,178 357,178 357,181.924 354.85,198 351,198 351,198 351,199 351,199 356.741,199 361.503,202 367,202  Z"/>

<path  fill="#A8AAAA" stroke-width="0" stroke="#A8AAAA" d = " M262 195 L263,195 C263,193.084 262.287,181 261,181 261,181 260,192 260,192 260,192 262,195 262,195  Z"/>

<path  fill="#8ADA86" stroke-width="0" stroke="#8ADA86" d = " M123 195 L123,203.5 C119.551,210.398 111,204.034 111,197 111,193.57 108.042,178.271 117.5,183 117.5,183 121,187 121,187 121,187 121,189 121,189 121,189 122,192 122,192 122,192 123,194 123,194 123,194 123,195 123,195  Z"/>

<path  fill="#8ADA86" stroke-width="0" stroke="#8ADA86" d = " M333 197 C333,204.12 340.447,210.606 344,203.5 344.567,202.366 344.546,197 346,197 346,189.973 347.643,183 339,183 339,183 337,184 337,184 337,184 337,185 337,185 337,185 336,187 336,187 336,187 335,188 335,188 335,188 335,191 335,191 335,191 334,193 334,193 334,194.048 334.473,196 333,196 333,196 333,197 333,197  Z"/>

<path  fill="#209765" stroke-width="0" stroke="#209765" d = " M89 203 L78,204 C76.8174,204 76.4649,200.43 76,199.5 76,199.5 72,188 72,188 73.2269,188 81,184.774 81,184 81,184 83,184 83,184 83,190.534 89,198.529 89,202 89,202 89,203 89,203  Z"/>

<path  fill="#209765" stroke-width="0" stroke="#209765" d = " M378 205 L379,205 C379,199.282 384,194.106 384,188 384,188 384,187 384,187 382.147,187 375,185.682 375,184 375,184 374,184 374,184 374,190.298 368,196.185 368,202 371.014,202 375.346,205 378,205  Z"/>

<path  fill="#209666" stroke-width="0" stroke="#209666" d = " M337 185 L336,187 C336,187 337,185 337,185  Z"/>

<path  fill="#209666" stroke-width="0" stroke="#209666" d = " M336 187 L335,188 C335,188 336,187 336,187  Z"/>

<path  fill="#209764" stroke-width="0" stroke="#209764" d = " M78 205 L74,206 C74,206 68,189 68,189 68,189 72,188 72,188 72,188 76,199.5 76,199.5 76.4649,200.43 76.8174,204 78,204 78,204 78,205 78,205  Z"/>

<path  fill="#209764" stroke-width="0" stroke="#209764" d = " M379 205 L382,206 C383.183,206 383.535,202.43 384,201.5 385.851,197.797 388,193.41 388,189 388,189 384,188 384,188 384,194.106 379,199.282 379,205  Z"/>

<path  fill="#209666" stroke-width="0" stroke="#209666" d = " M122 192 L123,192 C123,192 121,189 121,189 121,189 122,192 122,192  Z"/>

<path  fill="#97D6F9" stroke-width="0" stroke="#97D6F9" d = " M195 194 L199,195 C199,195 196,191 196,191 196,191 195,194 195,194  Z"/>

<path  fill="#209666" stroke-width="0" stroke="#209666" d = " M335 191 L334,193 C334,193 335,191 335,191  Z"/>

<path  fill="#1F9866" stroke-width="0" stroke="#1F9866" d = " M123 192 L123,194 C123,194 122,192 122,192 122,192 123,192 123,192  Z"/>

<path  fill="#97D6F9" stroke-width="0" stroke="#97D6F9" d = " M259 194 L262,195 C262,195 260,192 260,192 260,192 259,194 259,194  Z"/>

<path  fill="#96A7D3" stroke-width="0" stroke="#96A7D3" d = " M221 223 C226.525,223 229.873,223 235,223 235,223 235,217 235,217 235,217 232,203 232,203 230.27,203 231.174,193 228.5,193 228.5,193 225,199 225,199 225,199 225,200 225,200 225,201.235 225.643,205 224,205 224,209.553 221,213.75 221,218 221,218 221,223 221,223  Z"/>

<path  fill="#1F9866" stroke-width="0" stroke="#1F9866" d = " M334 193 C332.527,193 333,194.952 333,196 334.473,196 334,194.048 334,193  Z"/>

<path  fill-rule="evenodd" fill="#80CDF8" stroke-width="0" stroke="#80CDF8" d = " M178 210 L173,215.5 C171.116,219.268 175.043,226.229 179.5,224 185.893,220.803 187.674,210 178,210  M213 238 L207,247.5 C199.931,254.569 193.723,260.389 184.5,265 176.021,269.24 145,263.439 145,251 145,245.861 143,240.914 143,235 144.747,235 145,234.747 145,233 148.766,233 152.514,234.993 156.5,233 162.075,230.213 162.798,222.905 165,218.5 168.831,210.837 183.262,196 192,196 192,196 193,196 193,196 193,198.374 195,194.641 195,194 195,194 199,195 199,195 200.608,195 207,203.496 207,205 207,205 209,209 209,209 209,209 210,210 210,210 210,210 213,217 213,217 213,223.552 213,231.294 213,238  Z"/>

<path  fill="#97D6F9" stroke-width="0" stroke="#97D6F9" d = " M259 194 L258,195 C258,195 259,194 259,194  Z"/>

<path  fill-rule="evenodd" fill="#80CDF8" stroke-width="0" stroke="#80CDF8" d = " M274 210 L271,216.5 C281.601,237.702 291.475,210 274,210  M263 197 C263,200.746 265.091,197 263,197  M243 237 L249,247.5 C252.253,254.007 261.63,260.065 267.5,263 279.358,268.929 311,266.644 311,250 311,250 313,246.5 313,246.5 314.261,243.978 313,236.633 313,235 313,235 311,234 311,234 293.533,234 292.709,222.918 286,209.5 282.723,202.945 274.648,201.574 269.5,199 269.5,199 264,196 264,196 264,196 263,195 263,195 263,195 262,195 262,195 262,195 259,194 259,194 259,194 258,195 258,195 256.218,195 251,201.482 251,203 251,203 250,204 250,204 250,204 249,206 249,206 249,206 248,207 248,207 248,207 247,210 247,210 247,210 246,211 246,211 246,211 245,212 245,212 245,212 244,215 244,215 244,215 243,216 243,216 243,216 243,218 243,218 243,224.626 243,230.097 243,237  Z"/>

<path  fill="#1F9866" stroke-width="0" stroke="#1F9866" d = " M116 209 L117,209 C117,209 118,208 118,208 118,206.647 122.643,206 124,206 124,206 126,205 126,205 126,203.574 124.712,195 123,195 123,195 123,203.5 123,203.5 119.551,210.398 111,204.034 111,197 108.517,197 106.974,199 105,199 105,199 111,210 111,210 111,210 116,209 116,209  Z"/>

<path  fill="#97D6F9" stroke-width="0" stroke="#97D6F9" d = " M192 196 L193,196 C193,196 193,195 193,195 193,195 192,196 192,196  Z"/>

<path  fill="#97D6F9" stroke-width="0" stroke="#97D6F9" d = " M263 195 L264,196 C264,196 263,195 263,195  Z"/>

<path  fill="#A8AAAA" stroke-width="0" stroke="#A8AAAA" d = " M263 197 C263,200.746 265.091,197 263,197  Z"/>

<path  fill="#1F9866" stroke-width="0" stroke="#1F9866" d = " M339 208 L345,210 C346.649,210 351,200.64 351,199 351,199 351,198 351,198 351,198 346,197 346,197 344.546,197 344.567,202.366 344,203.5 340.447,210.606 333,204.12 333,197 330.512,197 331,203.101 331,205 331,205 333,206 333,206 335.483,206 337.026,208 339,208  Z"/>

<path  fill="#1F9865" stroke-width="0" stroke="#1F9865" d = " M104 213 L97,214 C97,210.504 93.2342,203 89,203 89,203 89,202 89,202 94.5353,202 99.3399,199 105,199 105,199 111,210 111,210 111,211.925 104,210.787 104,213  Z"/>

<path  fill="#1F9865" stroke-width="0" stroke="#1F9865" d = " M353 213 L359,214 C359,208.476 367,204.642 367,202 361.503,202 356.741,199 351,199 351,200.64 346.649,210 345,210 345,212.055 353,210.945 353,213  Z"/>

<path  fill="#97D6F9" stroke-width="0" stroke="#97D6F9" d = " M225 200 C223.357,200 224,203.765 224,205 225.643,205 225,201.235 225,200  Z"/>

<path  fill="#219764" stroke-width="0" stroke="#219764" d = " M359 214 C363.187,214 368.088,217 372,217 372,217 378,205 378,205 375.346,205 371.014,202 368,202 368,202 367,202 367,202 367,204.642 359,208.476 359,214  Z"/>

<path  fill="#219764" stroke-width="0" stroke="#219764" d = " M97 214 C93.0189,214 89.371,216 85,216 85,216 78,205 78,205 78,205 78,204 78,204 78,204 89,203 89,203 93.2342,203 97,210.504 97,214  Z"/>

<path  fill="#97D6F9" stroke-width="0" stroke="#97D6F9" d = " M251 203 L250,204 C250,204 251,203 251,203  Z"/>

<path  fill="#209864" stroke-width="0" stroke="#209864" d = " M85 216 C85,216.672 80.6706,218 80,218 80,218 74,206 74,206 74,206 78,205 78,205 78,205 85,216 85,216  Z"/>

<path  fill="#8AD987" stroke-width="0" stroke="#8AD987" d = " M124 206 C128.272,206 129.724,223 133,223 133,216.909 128,211.716 128,205 128,205 126,205 126,205 126,205 124,206 124,206  Z"/>

<path  fill="#8AD987" stroke-width="0" stroke="#8AD987" d = " M333 206 C327.033,206 329.807,219 325,219 325,219 329,205 329,205 329,205 331,205 331,205 331,205 333,206 333,206  Z"/>

<path  fill="#209864" stroke-width="0" stroke="#209864" d = " M372 217 L376,217 C377.873,217 382,207.9 382,206 382,206 379,205 379,205 379,205 378,205 378,205 378,205 372,217 372,217  Z"/>

<path  fill="#A0EE9C" stroke-width="0" stroke="#A0EE9C" d = " M119 225 L120,225 C124.682,225 133,234.349 133,223 129.724,223 128.272,206 124,206 122.643,206 118,206.647 118,208 118,208 117,209 117,209 117,209 116,209 116,209 116,209 113,216.5 113,216.5 113,216.5 115,221 115,221 115,221 115,222 115,222 115,222 116,223 116,223 116,223 118,224 118,224 118,224 119,225 119,225  Z"/>

<path  fill="#97D6F9" stroke-width="0" stroke="#97D6F9" d = " M249 206 L248,207 C248,207 248,206 248,206 248,206 249,206 249,206  Z"/>

<path  fill="#A0EE9C" stroke-width="0" stroke="#A0EE9C" d = " M333 227 L334,227 C334,227 335,226 335,226 335,226 336,226 336,226 336,226 337,225 337,225 337,225 338,225 338,225 338,225 339,224 339,224 339,224 340,223 340,223 340,223 341,222 341,222 341,222 342,221 342,221 342,221 343,214.5 343,214.5 343,214.5 339,208 339,208 337.026,208 335.483,206 333,206 327.033,206 329.807,219 325,219 325,220.048 325.473,222 324,222 324,222 323,223 323,223 323,231.65 328.385,227 333,227  Z"/>

<path  fill="#99D2BD" stroke-width="0" stroke="#99D2BD" d = " M118 208 L117,209 C117,209 118,208 118,208  Z"/>

<path  fill="#99D2BD" stroke-width="0" stroke="#99D2BD" d = " M353 213 C347.189,213 345.864,221 342,221 342,221 343,214.5 343,214.5 343,214.5 339,208 339,208 339,208 345,210 345,210 345,212.055 353,210.945 353,213  Z"/>

<path  fill="#99D2BD" stroke-width="0" stroke="#99D2BD" d = " M104 213 C110.062,213 110.911,221 115,221 115,221 113,216.5 113,216.5 113,216.5 116,209 116,209 116,209 111,210 111,210 111,211.925 104,210.787 104,213  Z"/>

<path  fill="#97D6F9" stroke-width="0" stroke="#97D6F9" d = " M209 209 L210,210 C210,210 209,209 209,209  Z"/>

<path  fill="#CBCBC7" stroke-width="0" stroke="#CBCBC7" d = " M178 210 L173,215.5 C171.116,219.268 175.043,226.229 179.5,224 185.893,220.803 187.674,210 178,210  Z"/>

<path  fill="#97D6F9" stroke-width="0" stroke="#97D6F9" d = " M247 210 L246,211 C246,211 247,210 247,210  Z"/>

<path  fill="#CBCBC7" stroke-width="0" stroke="#CBCBC7" d = " M274 210 L271,216.5 C281.601,237.702 291.475,210 274,210  Z"/>

<path  fill="#97D6F9" stroke-width="0" stroke="#97D6F9" d = " M246 211 L245,212 C245,212 246,211 246,211  Z"/>

<path  fill="#6ACAB9" stroke-width="0" stroke="#6ACAB9" d = " M125 259 L127,259 C127,259 134,256 134,256 134,256 135,255 135,255 135,255 136,255 136,255 136,248.417 143.135,249.769 137,237.5 134.991,233.482 120,226.396 120,225 120,225 119,225 119,225 119,225 118,224 118,224 118,224 116,223 116,223 116,223 115,222 115,222 115,222 115,221 115,221 110.911,221 110.062,213 104,213 104,213 97,214 97,214 93.0189,214 89.371,216 85,216 85,216.672 80.6706,218 80,218 80,223.245 96.9175,247 103,247 106.388,247 125,255.322 125,259  Z"/>

<path  fill="#6ACAB9" stroke-width="0" stroke="#6ACAB9" d = " M330 259 L331,259 C331.183,259 346.534,247 353,247 360.534,247 376,223.446 376,217 376,217 372,217 372,217 368.088,217 363.187,214 359,214 359,214 353,213 353,213 347.189,213 345.864,221 342,221 342,221 341,222 341,222 341,222 340,223 340,223 340,223 339,224 339,224 339,224 338,225 338,225 338,225 337,225 337,225 337,225 336,226 336,226 336,226 335,226 335,226 335,226 334,227 334,227 334,227 333,227 333,227 333,228.492 320.159,235.182 319,237.5 313.158,249.184 321,249.552 321,255 321,255 330,259 330,259  Z"/>

<path  fill="#97D6F9" stroke-width="0" stroke="#97D6F9" d = " M244 215 L243,216 C243,216 244,215 244,215  Z"/>

<path  fill="#97D6F9" stroke-width="0" stroke="#97D6F9" d = " M210 256 L213,256 C219.051,256 221,228.865 221,223 221,223 221,218 221,218 219.457,218 218.769,222.634 215.5,221 215.5,221 213,217 213,217 213,223.552 213,231.294 213,238 213,243.867 210,250.326 210,256  Z"/>

<path  fill="#97D6F9" stroke-width="0" stroke="#97D6F9" d = " M243 256 L246,256 C246,256 243,237 243,237 243,230.097 243,224.626 243,218 240.668,218 240.943,222.722 237.5,221 237.5,221 235,217 235,217 235,217 235,223 235,223 235,228.317 238.102,256 243,256  Z"/>

<path  fill="#8AD987" stroke-width="0" stroke="#8AD987" d = " M324 221 L324,222 C325.473,222 325,220.048 325,219 325,219 324,221 324,221  Z"/>

<path  fill="#99D2BD" stroke-width="0" stroke="#99D2BD" d = " M323 222 L324,222 C324,222 324,221 324,221 324,221 323,222 323,222  Z"/>

<path  fill="#99D2BD" stroke-width="0" stroke="#99D2BD" d = " M342 221 L341,222 C341,222 342,221 342,221  Z"/>

<path  fill="#99D2BD" stroke-width="0" stroke="#99D2BD" d = " M115 222 L116,223 C116,223 115,222 115,222  Z"/>

<path  fill="#96A6D3" stroke-width="0" stroke="#96A6D3" d = " M223 261 L224,261 C224,261 225,260 225,260 225,256.275 228.753,258 230,258 233.407,258 244,272.981 244,260 244,260 243,256 243,256 238.102,256 235,228.317 235,223 229.873,223 226.525,223 221,223 221,228.865 219.051,256 213,256 213,258.333 211.038,268.231 217.5,265 217.5,265 223,261 223,261  Z"/>

<path  fill="#8AD987" stroke-width="0" stroke="#8AD987" d = " M324 222 L323,223 C323,223 323,222 323,222 323,222 324,222 324,222  Z"/>

<path  fill="#99D2BD" stroke-width="0" stroke="#99D2BD" d = " M341 222 L340,223 C340,223 341,222 341,222  Z"/>

<path  fill="#99D2BD" stroke-width="0" stroke="#99D2BD" d = " M145 251 C141.243,251 139.91,255 136,255 136,248.417 143.135,249.769 137,237.5 134.991,233.482 120,226.396 120,225 124.682,225 133,234.349 133,223 136.459,223 138.128,233 143,233 143,233 143,235 143,235 143,240.914 145,245.861 145,251  Z"/>

<path  fill="#99D2BD" stroke-width="0" stroke="#99D2BD" d = " M311 250 C314.622,250 316.687,255 321,255 321,249.552 313.158,249.184 319,237.5 320.159,235.182 333,228.492 333,227 328.385,227 323,231.65 323,223 321.009,223 319.514,231 316,231 316,231 315,232 315,232 315,232 314,233 314,233 314,233 313,235 313,235 313,236.633 314.261,243.978 313,246.5 313,246.5 311,250 311,250  Z"/>

<path  fill="#99D2BD" stroke-width="0" stroke="#99D2BD" d = " M340 223 L339,224 C339,224 340,223 340,223  Z"/>

<path  fill="#99D2BD" stroke-width="0" stroke="#99D2BD" d = " M118 224 L119,225 C119,225 118,224 118,224  Z"/>

<path  fill="#99D2BD" stroke-width="0" stroke="#99D2BD" d = " M339 224 L338,225 C338,225 339,224 339,224  Z"/>

<path  fill="#99D2BD" stroke-width="0" stroke="#99D2BD" d = " M337 225 L336,226 C336,226 337,225 337,225  Z"/>

<path  fill="#99D2BD" stroke-width="0" stroke="#99D2BD" d = " M335 226 L334,227 C334,227 335,226 335,226  Z"/>

<path  fill="#97D6F9" stroke-width="0" stroke="#97D6F9" d = " M316 231 L315,232 C315,232 316,231 316,231  Z"/>

<path  fill="#97D6F9" stroke-width="0" stroke="#97D6F9" d = " M315 232 L314,233 C314,233 315,232 315,232  Z"/>

<path  fill="#97D6F9" stroke-width="0" stroke="#97D6F9" d = " M145 233 C145,234.747 144.747,235 143,235 143,235 143,233 143,233 143,233 145,233 145,233  Z"/>

<path  fill="#97D6F9" stroke-width="0" stroke="#97D6F9" d = " M311 234 L313,235 C313,235 314,233 314,233 312.952,233 311,232.527 311,234  Z"/>

<path  fill="#A2B1D7" stroke-width="0" stroke="#A2B1D7" d = " M246 256 C246,260.72 248,267.177 248,272 251.535,272 255.747,266.624 260.5,269 275.36,276.43 293.513,273.993 307.5,267 310.036,265.732 321,258.497 321,255 316.687,255 314.622,250 311,250 311,266.644 279.358,268.929 267.5,263 261.63,260.065 252.253,254.007 249,247.5 249,247.5 243,237 243,237 243,237 246,256 246,256  Z"/>

<path  fill="#A2B1D7" stroke-width="0" stroke="#A2B1D7" d = " M210 256 L209,272 C205.268,272 200.366,266.567 195.5,269 190.368,271.566 167.024,276.262 160.5,273 160.5,273 145.5,265 145.5,265 141.753,263.127 139.437,256 135,256 135,256 135,255 135,255 135,255 136,255 136,255 139.91,255 141.243,251 145,251 145,263.439 176.021,269.24 184.5,265 193.723,260.389 199.931,254.569 207,247.5 207,247.5 213,238 213,238 213,243.867 210,250.326 210,256  Z"/>

<path  fill="#CAC8C7" stroke-width="0" stroke="#CAC8C7" d = " M124 263 L125,263 C125,263 125,261 125,261 125,261 125,259 125,259 125,255.322 106.388,247 103,247 103,251.823 114.899,258.199 118.5,260 120.539,261.019 120.219,264 123,264 123,264 124,263 124,263  Z"/>

<path  fill="#CAC8C7" stroke-width="0" stroke="#CAC8C7" d = " M331 262 L333,264 C335.255,264 353,249.157 353,247 346.534,247 331.183,259 331,259 331,259 331,260 331,260 331,260 331,262 331,262  Z"/>

<path  fill="#99D2BD" stroke-width="0" stroke="#99D2BD" d = " M134 256 L135,256 C135,256 135,255 135,255 135,255 134,256 134,256  Z"/>

<path  fill="#7FCCF7" stroke-width="0" stroke="#7FCCF7" d = " M248 272 L247,275 C248.845,275 248.441,278.381 249,279.5 250.414,282.327 253.209,287.354 256.5,289 263.037,292.268 277.684,291.092 281.5,293 295.63,300.065 315.809,293.881 323,279.5 324.614,276.272 331,271.687 331,267 331,267 331,262 331,262 331,262 331,260 331,260 331,260 330,259 330,259 330,259 321,255 321,255 321,258.497 310.036,265.732 307.5,267 293.513,273.993 275.36,276.43 260.5,269 255.747,266.624 251.535,272 248,272  Z"/>

<path  fill="#7FCCF7" stroke-width="0" stroke="#7FCCF7" d = " M209 272 L209,275 C209,277.422 206.07,280.361 205,282.5 199.219,294.063 192.124,288.188 184.5,292 181.847,293.326 178.044,291.728 175.5,293 162.348,299.576 141.77,295.04 135,281.5 133.143,277.786 126,273.308 126,268 126,268 125,267 125,267 125,267 125,266 125,266 125,266 125,263 125,263 125,263 125,261 125,261 125,261 127,259 127,259 127,259 134,256 134,256 134,256 135,256 135,256 139.437,256 141.753,263.127 145.5,265 145.5,265 160.5,273 160.5,273 167.024,276.262 190.368,271.566 195.5,269 200.366,266.567 205.268,272 209,272  Z"/>

<path  fill="#8599CC" stroke-width="0" stroke="#8599CC" d = " M209 272 L209,275 C212.689,275 223,264.796 223,261 223,261 217.5,265 217.5,265 211.038,268.231 213,258.333 213,256 213,256 210,256 210,256 210,256 209,272 209,272  Z"/>

<path  fill="#8599CC" stroke-width="0" stroke="#8599CC" d = " M248 272 L247,275 C244.795,275 230,259.623 230,258 233.407,258 244,272.981 244,260 244,260 243,256 243,256 243,256 246,256 246,256 246,260.72 248,267.177 248,272  Z"/>

<path  fill="#99D2BD" stroke-width="0" stroke="#99D2BD" d = " M127 259 L125,261 C125,261 125,259 125,259 125,259 127,259 127,259  Z"/>

<path  fill="#99D2BD" stroke-width="0" stroke="#99D2BD" d = " M331 259 L331,260 C331,260 330,259 330,259 330,259 331,259 331,259  Z"/>

<path  fill="#8599CC" stroke-width="0" stroke="#8599CC" d = " M225 260 L224,261 C224,261 225,260 225,260  Z"/>

<path  fill="#97D6F9" stroke-width="0" stroke="#97D6F9" d = " M333 264 L331,267 C331,267 331,262 331,262 331,262 333,264 333,264  Z"/>

<path  fill="#99D2BD" stroke-width="0" stroke="#99D2BD" d = " M123 264 L124,265 C124,265 124,263 124,263 124,263 123,264 123,264  Z"/>

<path  fill="#97D6F9" stroke-width="0" stroke="#97D6F9" d = " M124 265 L125,266 C125,266 125,263 125,263 125,263 124,263 124,263 124,263 124,265 124,265  Z"/>

<path  fill="#97D6F9" stroke-width="0" stroke="#97D6F9" d = " M125 267 L126,268 C126,268 125,267 125,267  Z"/>

</g>
</svg>
