<svg xmlns="http://www.w3.org/2000/svg" xmlns:xlink="http://www.w3.org/1999/xlink"  viewBox="0 0 456 320">
<g>
<rect width="456" height="320" fill="#000000"  stroke-width="0" /> 
<path  fill="#FCFB90" stroke-width="0" stroke="#FCFB90" d = " M297 128 L296.5,107 L299,120 C299,129.385 303.629,143 315,143 315,124.668 310.601,99.702 303,84.5 300.622,79.7442 289,62.8772 289,59 283.248,59 273.866,47.6829 268.5,45 251.077,36.2883 242.63,37 222,37 222,37 205.5,37 205.5,37 196.828,41.3359 188.322,46.5889 179.5,51 175.112,53.194 172.253,59 167,59 167,63.7334 155.655,80.1903 153,85.5 144.68,102.139 142,122.997 142,143 145.188,143 144.952,141.274 147.5,140 159.647,133.927 153.532,127.436 158,118.5 158.693,117.114 158.58,106 160.5,106 161.892,106 160,112.226 160,113 160,117.635 159,122.828 159,128 168.914,128 171.501,108.497 175,101.5 182.615,86.2701 195.609,79.9453 209.5,73 209.5,73 221.5,72 221.5,72 223.71,70.8951 231.821,69.6607 234.5,71 238.285,72.8927 243.798,71.1488 247.5,73 256.393,77.4467 271.561,82.6216 277,93.5 280.116,99.7323 288.51,128 297,128  Z"/>

<path  fill="#FDFB8F" stroke-width="0" stroke="#FDFB8F" d = " M122 134 C122,130.536 131.104,101.293 133,97.5 134.774,93.952 133.624,86.8757 136.5,84 139.523,80.9766 136.096,73.2022 140.5,71 L142.5,69 L142,72.5 C140.077,76.3457 139,80.3434 139,85 139,86.2584 129.729,125.041 129,126.5 125.362,133.776 135.813,143 142,143 142,122.997 144.68,102.139 153,85.5 155.655,80.1903 167,63.7334 167,59 167,52.9614 157.627,46.9367 151.5,50 137.958,56.7709 121.472,55.5553 113,72.5 113,72.5 111,75 111,75 111,77.4848 112.775,85.0507 114,87.5 115.708,90.9168 111.009,112.518 116,122.5 116.862,124.224 120.194,134 122,134  Z"/>

<path  fill="#FDFB8F" stroke-width="0" stroke="#FDFB8F" d = " M335 134 C331.941,134 332.052,122.603 331,120.5 325.109,108.718 324.896,94.2929 319,82.5 318.27,81.0407 318.495,66.5025 313.5,69 312.283,69.6084 315.481,74.4619 316,75.5 317.492,78.4839 316.493,82.4854 318,85.5 L320,96.5 C324.696,105.892 334.875,143 315,143 315,124.668 310.601,99.702 303,84.5 300.622,79.7442 289,62.8772 289,59 289,53.0206 298.378,46.939 304.5,50 311.248,53.3741 319.706,53.6028 326.5,57 331.238,59.3689 335.482,64.991 339.5,67 341.565,68.0324 345,71.7981 345,75 345,77.5921 344.042,78.4163 343,80.5 338.764,88.9712 347.564,106.371 343,115.5 342.227,117.045 335,133.866 335,134  Z"/>

<path  fill-rule="evenodd" fill="#CBC9CC" stroke-width="0" stroke="#CBC9CC" d = " M327 156 C327,157.663 316.65,160.799 319,165.5 L323,169.5 L323,178.5 C325.09,182.68 336.049,192.403 340,184.5 341.028,182.444 339.792,178.084 339,176.5 334.955,168.41 343.538,156 327,156  M124 156 L120,159.5 C118.031,163.438 118.96,168.579 117,172.5 114.134,178.232 116.295,191.102 124.5,187 136.562,180.969 131.375,172.75 133,169.5 L137,166.5 C140.539,159.422 128.59,156 124,156  M121 193 L119,194 C119,192.095 119,191.533 119,190 119,186.796 112.024,188.238 110.5,189 110.5,189 91.5,203 91.5,203 87.0284,205.236 78.776,205.948 76,211.5 73.766,215.968 72,220.073 72,225.5 72,225.5 71.5,235 71.5,235 68.1337,235 69,227.918 69,226 69,218.588 67.877,205.811 75.5,202 81.5463,198.977 88.4819,198.009 94.5,195 97.4705,193.515 100.476,187.512 101.5,187 105.48,185.01 113,185.037 113,179 115.291,179 113.532,170.564 113,169.5 110.26,164.019 104.328,163 99,163 96.8707,163 89,163.278 89,163 89,163 91,161 91,161 94.5609,161 96.6156,159.442 99.5,158 110.95,152.275 100.448,144.396 97,137.5 93.9927,131.485 91.9944,124.489 89,118.5 89,118.5 86,116.5 86,116.5 86,116.5 92.5,102 92.5,102 92.5,102 93,104.5 93,104.5 91.0772,108.346 90,112.343 90,117 90,120.676 97.0392,134.578 99,138.5 106.87,154.24 122,143.246 122,134 122,130.536 131.104,101.293 133,97.5 134.774,93.952 133.624,86.8757 136.5,84 139.523,80.9766 136.096,73.2022 140.5,71 140.5,71 142.5,69 142.5,69 142.5,69 142,72.5 142,72.5 140.077,76.3457 139,80.3434 139,85 139,86.2584 129.729,125.041 129,126.5 125.362,133.776 135.813,143 142,143 145.188,143 144.952,141.274 147.5,140 159.647,133.927 153.532,127.436 158,118.5 158.693,117.114 158.58,106 160.5,106 161.892,106 160,112.226 160,113 160,117.635 159,122.828 159,128 159,136.658 171.2,131.65 174.5,130 176.506,128.997 186.549,109.025 190.5,111 190.5,111 190.5,114 190.5,114 187.741,115.38 181.669,122.162 180,125.5 179.598,126.304 177.7,131 180,131 180,132.505 191.8,134.15 193.5,135 214.854,145.677 237.453,148.023 259.5,137 263.945,134.778 269.138,134.181 273.5,132 274.546,131.477 277,132.951 277,131 279.186,131 277.387,127.274 277,126.5 277,126.5 266.5,114 266.5,114 266.255,113.755 263.492,110 265.5,110 271.17,110 280.339,129.92 286.5,133 290.123,134.811 297,132.114 297,128 297,128 296.5,107 296.5,107 296.5,107 299,120 299,120 299,129.385 303.629,143 315,143 334.875,143 324.696,105.892 320,96.5 320,96.5 318,85.5 318,85.5 316.493,82.4854 317.492,78.4839 316,75.5 315.481,74.4619 312.283,69.6084 313.5,69 318.495,66.5025 318.27,81.0407 319,82.5 324.896,94.2929 325.109,108.718 331,120.5 332.052,122.603 331.941,134 335,134 335,139.927 341.122,144.811 345.5,147 348.333,148.416 351.742,144.621 352.5,145 355.078,146.289 350.044,149.587 351,151.5 353.722,156.944 359.452,161 366,161 366,161 368,163 368,163 368,163.278 360.129,163 358,163 351.241,163 346.198,164.103 343,170.5 342.496,171.509 340.746,179 343,179 343,184.757 351.123,185.311 354.5,187 354.5,187 360.5,194 360.5,194 366.557,197.029 373.487,197.993 379.5,201 388.398,205.449 387,217.081 387,225.5 387,227.01 387.536,235 385.5,235 385.5,235 385,226 385,226 385,221.422 382.936,216.371 381,212.5 378.231,206.963 371.816,206.158 367.5,204 356.109,198.305 350.829,189 338,189 336.421,189 337,191.855 337,193 337,193 333,190 333,190 333,187.591 325.32,185 323,185 323,185 322,183 322,183 322,183 321,182 321,182 321,182 320,181 320,181 320,181 319,179 319,179 319,175.697 318.041,176 315,176 315,176 314,176 314,176 314,176 311,175 311,175 311,172.28 309,171.447 309,169 310.423,169 312.544,170.978 314.5,170 316.589,168.955 319.064,159.282 316.5,158 313.987,156.744 312.437,161.469 309.5,160 304.47,157.485 286,139.914 286,155 284.049,155 285.523,152.546 285,151.5 284.099,149.699 281.301,149.901 279.5,149 276.111,147.305 269,148.554 269,152 264.716,152 263.039,153.461 260,156.5 260,156.5 258.5,161 258.5,161 261.833,162.666 264.746,157 268,157 268,160.287 262,160.053 262,163 262,163 252,164 252,164 252,161.057 260.759,159.018 257,151.5 257,151.5 256.5,149 256.5,149 248.309,144.904 218.786,152.643 209.5,148 206.981,146.74 200.162,148.176 199,150.5 195.528,157.444 205,163.173 205,164 205,164 194,163 194,163 194,159.97 188,160.717 188,157 190.944,157 195.119,162.191 197.5,161 199.103,160.198 197,158.847 197,158 197,153.286 190.602,152 187,152 187,145.966 175.11,149.695 172.5,151 172.5,151 171,153 171,153 171,140.944 148.797,158.852 146.5,160 143.563,161.469 142.013,156.744 139.5,158 136.333,159.584 140.414,168.957 142.5,170 142.5,170 148,169 148,169 148,171.079 145,172.187 145,175 145,175 143,176 143,176 143,176 141,176 141,176 138.657,176 137,176.285 137,179 137,179 137,180 137,180 137,180 136,181 136,181 136,181 135,182 135,182 135,182 133,185 133,185 128.153,185 125.735,191 122,191 122,191 121,193 121,193  Z"/>

<path  fill-rule="evenodd" fill="#FFFC8E" stroke-width="0" stroke="#FFFC8E" d = " M240 99 L239,100.5 C238.608,101.283 243.317,105.135 241,100.5 L240,99  M215 99 C215,106.274 218.947,99 215,99  M230 97 C230,99.7895 234.899,105.702 237,101.5 237.926,99.648 231.199,97 230,97  M224 97 C224,98.2172 217.229,100.364 220.5,102 224.859,104.179 229.405,97 224,97  M180 131 C185.245,131 191.211,127.355 196.5,130 202.246,132.873 229.262,139.619 236.5,136 242.298,133.101 258.655,132.423 265.5,129 L277,131 C279.186,131 277.387,127.274 277,126.5 277,126.5 266.5,114 266.5,114 266.255,113.755 263.492,110 265.5,110 271.17,110 280.339,129.92 286.5,133 290.123,134.811 297,132.114 297,128 288.51,128 280.116,99.7323 277,93.5 271.561,82.6216 256.393,77.4467 247.5,73 243.798,71.1488 238.285,72.8927 234.5,71 231.821,69.6607 223.71,70.8951 221.5,72 221.5,72 209.5,73 209.5,73 195.609,79.9453 182.615,86.2701 175,101.5 171.501,108.497 168.914,128 159,128 159,136.658 171.2,131.65 174.5,130 176.506,128.997 186.549,109.025 190.5,111 190.5,111 190.5,114 190.5,114 187.741,115.38 181.669,122.162 180,125.5 179.598,126.304 177.7,131 180,131  Z"/>

<path  fill-rule="evenodd" fill="#FCFC90" stroke-width="0" stroke="#FCFC90" d = " M93 101 C93,102.93 94.93,101 93,101  M79 157 C83.5183,157 87.0346,161 91,161 94.5609,161 96.6156,159.442 99.5,158 110.95,152.275 100.448,144.396 97,137.5 93.9927,131.485 91.9944,124.489 89,118.5 89,118.5 86,116.5 86,116.5 86,116.5 92.5,102 92.5,102 92.5,102 93,104.5 93,104.5 91.0772,108.346 90,112.343 90,117 90,120.676 97.0392,134.578 99,138.5 106.87,154.24 122,143.246 122,134 120.194,134 116.862,124.224 116,122.5 111.009,112.518 115.708,90.9168 114,87.5 112.775,85.0507 111,77.4848 111,75 92.7601,75 74.5295,97.441 67,112.5 64.3729,117.754 57.4058,128.312 61,135.5 63.1888,139.878 64.1851,148.343 69.5,151 71.9954,152.248 79,153.753 79,157  Z"/>

<path  fill-rule="evenodd" fill="#FCFC90" stroke-width="0" stroke="#FCFC90" d = " M353 143 C353,146.479 356.479,143 353,143  M356 139 C356,146.509 356.896,139 356,139  M357 137 C357,141.123 361.123,137 357,137  M362 127 C362,127.974 358.449,135 359.5,135 360.904,135 364.592,127 362,127  M363 102 L366,112.5 C367.609,115.719 361.256,128.622 364.5,127 364.957,126.771 370.212,114.924 370,114.5 369.018,112.536 365.125,102 363,102  M377 157 C372.899,157 369.614,161 366,161 359.452,161 353.722,156.944 351,151.5 350.044,149.587 355.078,146.289 352.5,145 351.742,144.621 348.333,148.416 345.5,147 341.122,144.811 335,139.927 335,134 335,133.866 342.227,117.045 343,115.5 347.564,106.371 338.764,88.9712 343,80.5 344.042,78.4163 345,77.5921 345,75 359.067,75 372.772,86.0431 379,98.5 381.842,104.183 388.195,107.89 391,113.5 392.058,115.615 391.981,118.461 393,120.5 394.622,123.744 397.095,133.31 395,137.5 392.984,141.533 391.448,148.526 386.5,151 384.664,151.918 377,154.317 377,157  Z"/>

<path  fill="#CBC9CC" stroke-width="0" stroke="#CBC9CC" d = " M224 97 C224,98.2172 217.229,100.364 220.5,102 224.859,104.179 229.405,97 224,97  Z"/>

<path  fill="#CBC9CC" stroke-width="0" stroke="#CBC9CC" d = " M230 97 C230,99.7895 234.899,105.702 237,101.5 237.926,99.648 231.199,97 230,97  Z"/>

<path  fill="#CBC9CC" stroke-width="0" stroke="#CBC9CC" d = " M215 99 C215,106.274 218.947,99 215,99  Z"/>

<path  fill="#CBC9CC" stroke-width="0" stroke="#CBC9CC" d = " M240 99 L239,100.5 C238.608,101.283 243.317,105.135 241,100.5 L240,99  Z"/>

<path  fill="#CBC9CC" stroke-width="0" stroke="#CBC9CC" d = " M93 101 C93,102.93 94.93,101 93,101  Z"/>

<path  fill="#CBC9CC" stroke-width="0" stroke="#CBC9CC" d = " M363 102 L366,112.5 C367.609,115.719 361.256,128.622 364.5,127 364.957,126.771 370.212,114.924 370,114.5 369.018,112.536 365.125,102 363,102  Z"/>

<path  fill="#CBC9CC" stroke-width="0" stroke="#CBC9CC" d = " M362 127 C362,127.974 358.449,135 359.5,135 360.904,135 364.592,127 362,127  Z"/>

<path  fill="#FDFA91" stroke-width="0" stroke="#FDFA91" d = " M180 131 C185.245,131 191.211,127.355 196.5,130 202.246,132.873 229.262,139.619 236.5,136 242.298,133.101 258.655,132.423 265.5,129 L277,131 C277,132.951 274.546,131.477 273.5,132 269.138,134.181 263.945,134.778 259.5,137 237.453,148.023 214.854,145.677 193.5,135 191.8,134.15 180,132.505 180,131  Z"/>

<path  fill="#CBC9CC" stroke-width="0" stroke="#CBC9CC" d = " M357 137 C357,141.123 361.123,137 357,137  Z"/>

<path  fill="#CBC9CC" stroke-width="0" stroke="#CBC9CC" d = " M356 139 C356,146.509 356.896,139 356,139  Z"/>

<path  fill="#CBC9CC" stroke-width="0" stroke="#CBC9CC" d = " M353 143 C353,146.479 356.479,143 353,143  Z"/>

<path  fill="#FDFA91" stroke-width="0" stroke="#FDFA91" d = " M206 165 C206,162.344 212.992,163 215,163 L242,163 C243.949,163 250,162.009 250,165 250,165 252,164 252,164 252,161.057 260.759,159.018 257,151.5 257,151.5 256.5,149 256.5,149 248.309,144.904 218.786,152.643 209.5,148 206.981,146.74 200.162,148.176 199,150.5 195.528,157.444 205,163.173 205,164 205,164 206,165 206,165  Z"/>

<path  fill="#FFFDBC" stroke-width="0" stroke="#FFFDBC" d = " M148 169 L151,169 C151,169 151,168 151,168 151,168 152,167 152,167 152,167 153,167 153,167 153,167 154,166 154,166 154,166 155,165 155,165 155,163.423 156.762,163 158,163 158,163 162,161 162,161 162,161 163,161 163,161 163,161 164,160 164,160 164,160 165,160 165,160 165,160 166,159 166,159 166,159 169,158 169,158 169,158 170,156 170,156 170,156 171,155 171,155 171,155 171,153 171,153 171,140.944 148.797,158.852 146.5,160 143.563,161.469 142.013,156.744 139.5,158 136.333,159.584 140.414,168.957 142.5,170 142.5,170 148,169 148,169  Z"/>

<path  fill-rule="evenodd" fill="#F0F080" stroke-width="0" stroke="#F0F080" d = " M180 158 C180,165.414 190.701,158 180,158  M189 172 L191,172 C191,170.528 190.65,163 194,163 194,159.97 188,160.717 188,157 177.276,157 176.602,152 187,152 187,145.966 175.11,149.695 172.5,151 172.5,151 171,153 171,153 171,153 171,155 171,155 171,155 170,156 170,156 170,156 169,158 169,158 172.868,158 176,160.935 176,163 179.676,163 182.439,166 185,166 185,156.743 194.745,167 185,167 185,167 184,170 184,170 184,170 185,171 185,171 185,171 188,171 188,171 188,171 189,172 189,172  Z"/>

<path  fill-rule="evenodd" fill="#F0F080" stroke-width="0" stroke="#F0F080" d = " M273 158 L271,160.5 C271,162.096 282.897,158 273,158  M269 171 L272,171 C272,171 272,169 272,169 272,169 272,165 272,165 274.846,165 277.382,163 281,163 281,158.772 285.279,159 289,159 289,159 287,157 287,157 287,157 286,156 286,156 286,156 286,155 286,155 284.049,155 285.523,152.546 285,151.5 284.099,149.699 281.301,149.901 279.5,149 276.111,147.305 269,148.554 269,152 279.954,152 278.787,157 268,157 268,160.287 262,160.053 262,163 263.985,163 267,169.262 267,171 267,171 269,171 269,171  M272 165 C272,154.718 262.659,170.92 270.5,167 L272,165  Z"/>

<path  fill="#FFFDBC" stroke-width="0" stroke="#FFFDBC" d = " M304 167 C305.624,167 306.75,169 309,169 310.423,169 312.544,170.978 314.5,170 316.589,168.955 319.064,159.282 316.5,158 313.987,156.744 312.437,161.469 309.5,160 304.47,157.485 286,139.914 286,155 286,155 286,156 286,156 286,156 287,157 287,157 287,157 289,159 289,159 289,159 292,160 292,160 292,160 293,161 293,161 293,161 295,161 295,161 297.36,161 303,164.842 303,167 303,167 304,167 304,167  Z"/>

<path  fill="#CBC9C8" stroke-width="0" stroke="#CBC9C8" d = " M187 152 C190.602,152 197,153.286 197,158 197,158.847 199.103,160.198 197.5,161 195.119,162.191 190.944,157 188,157 177.276,157 176.602,152 187,152  Z"/>

<path  fill="#CBC9C8" stroke-width="0" stroke="#CBC9C8" d = " M269 152 C279.954,152 278.787,157 268,157 264.746,157 261.833,162.666 258.5,161 258.5,161 260,156.5 260,156.5 263.039,153.461 264.716,152 269,152  Z"/>

<path  fill="#CBC9CC" stroke-width="0" stroke="#CBC9CC" d = " M171 155 L170,156 C170,156 171,155 171,155  Z"/>

<path  fill="#FFFDBB" stroke-width="0" stroke="#FFFDBB" d = " M124 156 L120,159.5 C118.031,163.438 118.96,168.579 117,172.5 114.134,178.232 116.295,191.102 124.5,187 136.562,180.969 131.375,172.75 133,169.5 L137,166.5 C140.539,159.422 128.59,156 124,156  Z"/>

<path  fill="#CBC9CC" stroke-width="0" stroke="#CBC9CC" d = " M286 156 L287,157 C287,157 286,156 286,156  Z"/>

<path  fill="#FFFDBB" stroke-width="0" stroke="#FFFDBB" d = " M327 156 C327,157.663 316.65,160.799 319,165.5 L323,169.5 L323,178.5 C325.09,182.68 336.049,192.403 340,184.5 341.028,182.444 339.792,178.084 339,176.5 334.955,168.41 343.538,156 327,156  Z"/>

<path  fill="#FCFA91" stroke-width="0" stroke="#FCFA91" d = " M89 163 L87,165 C82.2087,165 79,161.772 79,157 83.5183,157 87.0346,161 91,161 91,161 89,163 89,163  Z"/>

<path  fill="#FCFA91" stroke-width="0" stroke="#FCFA91" d = " M368 163 L369,165 C374.686,165 377,162.644 377,157 372.899,157 369.614,161 366,161 366,161 368,163 368,163  Z"/>

<path  fill="#CBC9CB" stroke-width="0" stroke="#CBC9CB" d = " M155 170 L156,170 C156,170 157,169 157,169 157,169 158,169 158,169 158,169 159,169 159,169 159,169 161,168 161,168 161,168 162,167 162,167 162,167 164,166 164,166 164,166 165,165 165,165 165,165 167,165 167,165 167,165 169,164 169,164 169,164 171,163 171,163 171,163 176,163 176,163 176,160.935 172.868,158 169,158 169,158 166,159 166,159 166,159 165,160 165,160 165,160 164,160 164,160 164,160 163,161 163,161 163,161 162,161 162,161 162,163.109 159.465,163 158,163 158,164.577 156.238,165 155,165 155,165 154,166 154,166 154,166 153,167 153,167 153,167 152,167 152,167 152,167 151,168 151,168 151,168 151,169 151,169 151,170.579 153.855,170 155,170  Z"/>

<path  fill="#CBC9CB" stroke-width="0" stroke="#CBC9CB" d = " M180 158 C180,165.414 190.701,158 180,158  Z"/>

<path  fill="#CBC9CB" stroke-width="0" stroke="#CBC9CB" d = " M273 158 L271,160.5 C271,162.096 282.897,158 273,158  Z"/>

<path  fill="#CBC9CB" stroke-width="0" stroke="#CBC9CB" d = " M300 170 L301,170 C305.321,170 304,169.983 304,167 304,167 303,167 303,167 303,167 295,161 295,161 295,161 293,161 293,161 293,161 292,160 292,160 292,160 289,159 289,159 285.279,159 281,158.772 281,163 281,163 286,163 286,163 286,163 287,164 287,164 287,164 288,164 288,164 288,164 289,165 289,165 289,165 291,165 291,165 292.238,165 294,165.423 294,167 294,167 295,167 295,167 295,167 297,169 297,169 297,169 299,169 299,169 299,169 300,170 300,170  Z"/>

<path  fill="#F0F080" stroke-width="0" stroke="#F0F080" d = " M166 159 L165,160 C165,160 166,159 166,159  Z"/>

<path  fill="#F0F080" stroke-width="0" stroke="#F0F080" d = " M164 160 L163,161 C163,161 164,160 164,160  Z"/>

<path  fill="#F0F080" stroke-width="0" stroke="#F0F080" d = " M292 160 L293,161 C293,161 292,160 292,160  Z"/>

<path  fill="#F0F080" stroke-width="0" stroke="#F0F080" d = " M162 161 L158,163 C159.465,163 162,163.109 162,161  Z"/>

<path  fill="#F0F080" stroke-width="0" stroke="#F0F080" d = " M295 161 C297.36,161 303,164.842 303,167 303,167 295,161 295,161  Z"/>

<path  fill="#FEFDBC" stroke-width="0" stroke="#FEFDBC" d = " M185 166 L185,167 C194.745,167 185,156.743 185,166  Z"/>

<path  fill="#FEFDBC" stroke-width="0" stroke="#FEFDBC" d = " M272 165 C272,154.718 262.659,170.92 270.5,167 L272,165  Z"/>

<path  fill="#FFFB8E" stroke-width="0" stroke="#FFFB8E" d = " M99 165 L93.5,164 C91.4163,165.042 90.5921,166 88,166 88,166 87,165 87,165 87,165 89,163 89,163 89,163.278 96.8707,163 99,163 99,163 99,165 99,165  Z"/>

<path  fill="#FFF990" stroke-width="0" stroke="#FFF990" d = " M99 165 L113,179 C115.291,179 113.532,170.564 113,169.5 110.26,164.019 104.328,163 99,163 99,163 99,165 99,165  Z"/>

<path  fill="#F0F080" stroke-width="0" stroke="#F0F080" d = " M158 163 C156.762,163 155,163.423 155,165 156.238,165 158,164.577 158,163  Z"/>

<path  fill="#FF9BCD" stroke-width="0" stroke="#FF9BCD" d = " M171 163 L169,164 C169,164 171,163 171,163  Z"/>

<path  fill="#FDB3D6" stroke-width="0" stroke="#FDB3D6" d = " M176 179 L170.5,185 C164.731,187.884 158.911,186 153,186 153,186 149,176.5 149,176.5 149,176.5 152,172 152,172 152,172 153,171 153,171 153,171 155,171 155,171 155,171 156,170 156,170 156,170 157,170 157,170 157,170 158,169 158,169 158,169 159,169 159,169 159,169 161,168 161,168 161,168 162,167 162,167 162,167 164,166 164,166 164,166 165,165 165,165 165,165 167,165 167,165 167,165 169,164 169,164 169,164 171,163 171,163 171,163 176,163 176,163 179.676,163 182.439,166 185,166 185,166 185,167 185,167 185,167 184,170 184,170 184,170 183,171 183,171 180.62,171 177,175.801 177,178 177,178 176,179 176,179  Z"/>

<path  fill="#AAA9A7" stroke-width="0" stroke="#AAA9A7" d = " M227 204 L230,204 C230,198.792 235.904,190 241,190 241,184.021 261.088,172 266,172 266,172 267,171 267,171 267,169.262 263.985,163 262,163 262,163 252,164 252,164 252,164 250,165 250,165 247.698,165 240.83,168.835 238.5,170 236.337,171.081 215.297,169.898 213.5,169 213.5,169 206,165 206,165 206,165 205,164 205,164 205,164 194,163 194,163 190.65,163 191,170.528 191,172 191,173.758 198.103,174.301 199.5,175 204.355,177.427 215,184.568 215,190 219.475,190 227,200.19 227,204  Z"/>

<path  fill="#FEFA91" stroke-width="0" stroke="#FEFA91" d = " M206 165 L213.5,169 C215.297,169.898 236.337,171.081 238.5,170 240.83,168.835 247.698,165 250,165 250,162.009 243.949,163 242,163 242,163 215,163 215,163 212.992,163 206,162.344 206,165  Z"/>

<path  fill="#FDB3D6" stroke-width="0" stroke="#FDB3D6" d = " M280 179 C280.889,179 286.674,185.087 288.5,186 293.067,188.284 298.584,186 303,186 303,182.715 309.208,178.915 307,174.5 307,174.5 303,171 303,171 303,171 301,170 301,170 301,170 300,170 300,170 300,170 299,169 299,169 299,169 297,169 297,169 297,169 295,167 295,167 295,167 294,167 294,167 292.762,167 291,166.577 291,165 291,165 289,165 289,165 289,165 288,164 288,164 288,164 287,164 287,164 287,164 286,163 286,163 286,163 281,163 281,163 277.382,163 274.846,165 272,165 272,165 272,169 272,169 272,169 273,171 273,171 273,171 274,171 274,171 274,171 275,172 275,172 277.098,172 279,176.286 279,178 279,178 280,179 280,179  Z"/>

<path  fill="#FF9BCD" stroke-width="0" stroke="#FF9BCD" d = " M286 163 L287,164 C287,164 286,163 286,163  Z"/>

<path  fill="#FFF990" stroke-width="0" stroke="#FFF990" d = " M358 165 C350.774,165 350.207,179 343,179 340.746,179 342.496,171.509 343,170.5 346.198,164.103 351.241,163 358,163 358,163 358,165 358,165  Z"/>

<path  fill="#FFFB8E" stroke-width="0" stroke="#FFFB8E" d = " M369 165 L368,166 C364.716,166 361.552,165 358,165 358,165 358,163 358,163 360.129,163 368,163.278 368,163 368,163 369,165 369,165  Z"/>

<path  fill="#FFFC8D" stroke-width="0" stroke="#FFFC8D" d = " M119 190 C116.018,190 112.298,197.904 111,200.5 105.217,212.067 93.5309,213.438 88,224.5 86.5226,227.455 97,239.038 97,240 97,251.829 85.861,266 73.5,266 67.8424,266 65.2131,261.357 60.5,259 60.5,259 55,254.5 55,254.5 55,254.5 49,244.5 49,244.5 46.424,239.348 48.6132,231.726 46,226.5 44.6607,223.821 45.8951,215.71 47,213.5 47,213.5 47,200.5 47,200.5 51.3739,191.752 58.3957,183.552 67.5,179 73.2188,176.141 79.5574,183.471 84.5,181 88.0646,179.218 82.722,173.056 84,170.5 84,170.5 88,166 88,166 90.5921,166 91.4163,165.042 93.5,164 93.5,164 99,165 99,165 99,165 113,179 113,179 113,185.037 105.48,185.01 101.5,187 100.476,187.512 97.4705,193.515 94.5,195 88.4819,198.009 81.5463,198.977 75.5,202 67.877,205.811 69,218.588 69,226 69,227.918 68.1337,235 71.5,235 71.5,235 72,225.5 72,225.5 72,220.073 73.766,215.968 76,211.5 78.776,205.948 87.0284,205.236 91.5,203 91.5,203 110.5,189 110.5,189 112.024,188.238 119,186.796 119,190  Z"/>

<path  fill="#FF9BCD" stroke-width="0" stroke="#FF9BCD" d = " M169 164 L167,165 C167,165 169,164 169,164  Z"/>

<path  fill="#FF9BCD" stroke-width="0" stroke="#FF9BCD" d = " M288 164 L289,165 C289,165 288,164 288,164  Z"/>

<path  fill="#FFFC8D" stroke-width="0" stroke="#FFFC8D" d = " M338 189 C338,191.491 342.269,194.038 343,195.5 344.526,198.552 353.812,211.656 356.5,213 L359.5,213 C361.627,214.064 367.059,221.619 368,223.5 370.35,228.201 359,238.098 359,240 359,256.833 377.435,270.532 392.5,263 400.018,259.241 404.604,248.292 408,241.5 409.586,238.327 408.375,233.75 410,230.5 410,230.5 410,217.5 410,217.5 410,198.185 405.42,187.46 388.5,179 382.781,176.141 376.443,183.471 371.5,181 368.699,179.599 372.944,172.388 372,170.5 372,170.5 368,166 368,166 364.716,166 361.552,165 358,165 350.774,165 350.207,179 343,179 343,184.757 351.123,185.311 354.5,187 354.5,187 360.5,194 360.5,194 366.557,197.029 373.487,197.993 379.5,201 388.398,205.449 387,217.081 387,225.5 387,227.01 387.536,235 385.5,235 385.5,235 385,226 385,226 385,221.422 382.936,216.371 381,212.5 378.231,206.963 371.816,206.158 367.5,204 356.109,198.305 350.829,189 338,189  Z"/>

<path  fill="#F0F080" stroke-width="0" stroke="#F0F080" d = " M155 165 L154,166 C154,166 155,165 155,165  Z"/>

<path  fill="#FF9BCD" stroke-width="0" stroke="#FF9BCD" d = " M165 165 L164,166 C164,166 165,165 165,165  Z"/>

<path  fill="#FF9BCD" stroke-width="0" stroke="#FF9BCD" d = " M291 165 C292.238,165 294,165.423 294,167 292.762,167 291,166.577 291,165  Z"/>

<path  fill="#F0F080" stroke-width="0" stroke="#F0F080" d = " M154 166 L153,167 C153,167 154,166 154,166  Z"/>

<path  fill="#FF9BCD" stroke-width="0" stroke="#FF9BCD" d = " M164 166 L162,167 C162,167 164,166 164,166  Z"/>

<path  fill="#F0F080" stroke-width="0" stroke="#F0F080" d = " M152 167 L151,168 C151,168 152,167 152,167  Z"/>

<path  fill="#FF9BCD" stroke-width="0" stroke="#FF9BCD" d = " M162 167 L161,168 C161,168 162,167 162,167  Z"/>

<path  fill="#FF9BCD" stroke-width="0" stroke="#FF9BCD" d = " M295 167 L297,169 C297,169 295,167 295,167  Z"/>

<path  fill="#F0F080" stroke-width="0" stroke="#F0F080" d = " M303 171 L311,175 C311,172.28 309,171.447 309,169 306.75,169 305.624,167 304,167 304,169.983 305.321,170 301,170 301,170 303,171 303,171  Z"/>

<path  fill="#FF9BCD" stroke-width="0" stroke="#FF9BCD" d = " M161 168 L159,169 C159,169 161,168 161,168  Z"/>

<path  fill="#F0F080" stroke-width="0" stroke="#F0F080" d = " M152 172 L145,175 C145,172.187 148,171.079 148,169 148,169 151,169 151,169 151,170.579 153.855,170 155,170 155,170 155,171 155,171 155,171 153,171 153,171 153,171 152,172 152,172  Z"/>

<path  fill="#F0F080" stroke-width="0" stroke="#F0F080" d = " M156 170 L157,170 C157,170 157,169 157,169 157,169 156,170 156,170  Z"/>

<path  fill="#FF9BCD" stroke-width="0" stroke="#FF9BCD" d = " M158 169 L157,170 C157,170 157,169 157,169 157,169 158,169 158,169  Z"/>

<path  fill="#FF9BCD" stroke-width="0" stroke="#FF9BCD" d = " M272 171 L273,171 C273,171 272,169 272,169 272,169 272,171 272,171  Z"/>

<path  fill="#FF9BCD" stroke-width="0" stroke="#FF9BCD" d = " M299 169 L300,170 C300,170 299,169 299,169  Z"/>

<path  fill="#FF9BCD" stroke-width="0" stroke="#FF9BCD" d = " M156 170 L155,171 C155,171 155,170 155,170 155,170 156,170 156,170  Z"/>

<path  fill="#FF9BCD" stroke-width="0" stroke="#FF9BCD" d = " M183 171 L185,171 C185,171 184,170 184,170 184,170 183,171 183,171  Z"/>

<path  fill="#FF9BCD" stroke-width="0" stroke="#FF9BCD" d = " M153 171 L152,172 C152,172 153,171 153,171  Z"/>

<path  fill="#FFB0D7" stroke-width="0" stroke="#FFB0D7" d = " M208 202 L198.5,210 C193.247,212.626 186.331,212 180,212 176.68,212 164,213.501 164,210 164,202.81 177,197.108 177,190 177,190 178,190 178,190 183.669,190 180.137,187 178,187 178,187 177,185 177,185 177,185 177,179 177,179 177,179 177,178 177,178 177,175.801 180.62,171 183,171 183,171 185,171 185,171 185,171 188,171 188,171 188,171 189,172 189,172 189,172 191,172 191,172 191,173.758 198.103,174.301 199.5,175 204.355,177.427 215,184.568 215,190 215,194.477 208,197.709 208,202  Z"/>

<path  fill="#FF9BCD" stroke-width="0" stroke="#FF9BCD" d = " M188 171 L189,172 C189,172 188,171 188,171  Z"/>

<path  fill="#F0F080" stroke-width="0" stroke="#F0F080" d = " M266 172 L267,172 C267,172 267,171 267,171 267,171 266,172 266,172  Z"/>

<path  fill="#FF9BCD" stroke-width="0" stroke="#FF9BCD" d = " M269 171 L267,172 C267,172 267,171 267,171 267,171 269,171 269,171  Z"/>

<path  fill="#FFB0D7" stroke-width="0" stroke="#FFB0D7" d = " M249 203 C249.68,203 261.464,210.982 263.5,212 268.621,214.56 287.397,211 293,211 293,202.514 279,197.199 279,190 279,190 275.5,191 275.5,191 273.164,189.832 277.778,187 279,187 279,187 280,180 280,180 280,180 279,178 279,178 279,176.286 277.098,172 275,172 275,172 274,171 274,171 274,171 273,171 273,171 273,171 272,171 272,171 272,171 269,171 269,171 269,171 267,172 267,172 267,172 266,172 266,172 261.088,172 241,184.021 241,190 241,194.786 249,197.98 249,203  Z"/>

<path  fill="#FF9BCD" stroke-width="0" stroke="#FF9BCD" d = " M274 171 L275,172 C275,172 274,171 274,171  Z"/>

<path  fill="#FF9BCD" stroke-width="0" stroke="#FF9BCD" d = " M152 275 C148.809,275 152.875,279.375 153.5,280 L160,285 C155.677,285 152.216,278.858 148.5,277 137.948,271.724 121,260.91 121,247 123.233,247 123.707,255.397 128.5,253 130.387,252.056 130,244.226 130,242 130,233.959 133,225.839 133,217 137.314,217 142.556,205.388 145,200.5 145.69,199.12 146.55,191 148,191 148,191 148,197 148,197 148,197 148,204 148,204 142.357,204 150.118,210.309 151.5,211 155.994,213.247 160.246,210 164,210 164,213.501 176.68,212 180,212 186.331,212 193.247,212.626 198.5,210 198.5,210 208,202 208,202 208,207.125 216.768,206.866 220.5,205 221.824,204.338 227,206.207 227,204 227,204 230,204 230,204 230,205.643 233.765,205 235,205 237.214,205 249,208.154 249,203 249.68,203 261.464,210.982 263.5,212 268.621,214.56 287.397,211 293,211 298.984,211 303.854,211.823 309.5,209 311.164,208.168 309.748,204 308,204 308,203.241 310.768,197 308,197 308,193.394 309.157,186 303,186 303,182.715 309.208,178.915 307,174.5 307,174.5 303,171 303,171 303,171 311,175 311,175 311,175 314,176 314,176 314,177.765 312.419,176.541 311.5,177 309.37,178.065 308.863,180.774 308,182.5 304.948,188.605 314.548,204.595 317,209.5 318.232,211.964 319.719,218 323,218 323,225.767 323.647,238.794 327,245.5 328.161,247.822 325.349,251.425 328.5,253 331.069,254.284 332.009,250 334,250 334,256.339 321.261,273 315,273 315,273 319,269.5 319,269.5 319,269.5 323,262.5 323,262.5 326.675,255.15 325.547,240.594 322,233.5 318.754,227.008 316.289,220.077 313,213.5 312.409,212.318 306,210.668 306,213.5 306,220.233 318,235.694 318,246 318,248.639 318.668,258 315,258 315,254.524 317.923,247.346 316,243.5 310.913,233.327 311.088,219.794 299.5,214 295.529,212.015 290.508,215.485 289,218.5 288.477,219.546 289.951,222 288,222 286.68,222 286.771,215.136 284.5,214 282.471,212.985 268,211.429 268,215 264.862,215 262.338,217 260,217 257.611,217 254.013,216 251,216 251,208.787 243.14,203.18 235.5,207 235.5,207 233,209 233,209 233,204.063 229.742,209.016 229,210.5 229,210.5 229,223 229,223 229,223 227,223 227,223 227,223 227,207.5 227,207.5 227,207.5 223,207.5 223,207.5 223,207.5 225,211.5 225,211.5 225.607,212.714 226,219.975 226,221 226,221 223,221 223,221 223,217.311 224.928,213.356 223,209.5 219.429,202.357 205,207.677 205,216 201.987,216 198.389,217 196,217 196,215.069 189.775,215 188,215 188,212.438 175.596,211.952 173.5,213 170.787,214.356 168.905,223 168,223 168,214.366 154.745,210.01 151,217.5 142.503,234.494 141,238.639 141,258 138.058,258 139,248.748 139,246.5 139,236.547 143.862,227.775 148,219.5 148.503,218.494 151.049,212.774 149.5,212 143.53,209.015 138.614,222.273 137,225.5 129.047,241.405 126.811,274 151,274 151,274 152,275 152,275  Z"/>

<path  fill="#FF9BCD" stroke-width="0" stroke="#FF9BCD" d = " M153 186 L149,187 C149,181.987 143,176.622 143,176 143,176 145,175 145,175 145,175 152,172 152,172 152,172 149,176.5 149,176.5 149,176.5 153,186 153,186  Z"/>

<path  fill="#F0F080" stroke-width="0" stroke="#F0F080" d = " M141 176 C138.657,176 137,176.285 137,179 137,179 141,176 141,176  Z"/>

<path  fill="#C9C9C8" stroke-width="0" stroke="#C9C9C8" d = " M133 213 L133,217 C137.314,217 142.556,205.388 145,200.5 145.69,199.12 146.55,191 148,191 148,189.952 147.527,188 149,188 149,188 149,187 149,187 149,181.987 143,176.622 143,176 143,176 141,176 141,176 141,176 137,179 137,179 137,179 137,180 137,180 137,180 136,181 136,181 136,181 136,182 136,182 136,183.448 133.714,195 133,195 133,195 133,196 133,196 133,196 133,213 133,213  Z"/>

<path  fill="#C9C9C8" stroke-width="0" stroke="#C9C9C8" d = " M323 214 L323,218 C319.719,218 318.232,211.964 317,209.5 314.548,204.595 304.948,188.605 308,182.5 308.863,180.774 309.37,178.065 311.5,177 312.419,176.541 314,177.765 314,176 314,176 315,176 315,176 315,176 319,179 319,179 319,179 320,181 320,181 320,181 321,182 321,182 321,182 321,183 321,183 321,184.552 321.566,191 323,191 323,191 323,193 323,193 323,193 323,214 323,214  Z"/>

<path  fill="#F0F080" stroke-width="0" stroke="#F0F080" d = " M315 176 C318.041,176 319,175.697 319,179 319,179 315,176 315,176  Z"/>

<path  fill="#FF9BCD" stroke-width="0" stroke="#FF9BCD" d = " M176 179 L177,179 C177,179 177,178 177,178 177,178 176,179 176,179  Z"/>

<path  fill="#FF9BCD" stroke-width="0" stroke="#FF9BCD" d = " M280 179 L280,180 C280,180 279,178 279,178 279,178 280,179 280,179  Z"/>

<path  fill-rule="evenodd" fill="#FEB3D7" stroke-width="0" stroke="#FEB3D7" d = " M152 201 C152,208.634 157.327,201 152,201  M148 204 C142.357,204 150.118,210.309 151.5,211 155.994,213.247 160.246,210 164,210 164,202.81 177,197.108 177,190 177,190 177,189 177,189 177,189 177,187 177,187 177,187 177,185 177,185 177,185 177,179 177,179 177,179 176,179 176,179 176,179 170.5,185 170.5,185 164.731,187.884 158.911,186 153,186 153,186 149,187 149,187 149,187 149,188 149,188 149,189.048 149.473,191 148,191 148,191 148,197 148,197 151.079,197 151.079,204 148,204  Z"/>

<path  fill-rule="evenodd" fill="#FEB3D7" stroke-width="0" stroke="#FEB3D7" d = " M303 201 L302,202.5 C299.371,207.757 308.113,201 303,201  M308 204 C309.748,204 311.164,208.168 309.5,209 303.854,211.823 298.984,211 293,211 293,202.514 279,197.199 279,190 279,190 279,187 279,187 279,187 280,180 280,180 280,180 280,179 280,179 280.889,179 286.674,185.087 288.5,186 293.067,188.284 298.584,186 303,186 309.157,186 308,193.394 308,197 304.921,197 304.921,204 308,204  Z"/>

<path  fill="#F0F080" stroke-width="0" stroke="#F0F080" d = " M137 180 L136,181 C136,181 137,180 137,180  Z"/>

<path  fill="#F0F080" stroke-width="0" stroke="#F0F080" d = " M135 182 L136,182 C136,182 136,181 136,181 136,181 135,182 135,182  Z"/>

<path  fill="#FF9BCD" stroke-width="0" stroke="#FF9BCD" d = " M320 181 L321,182 C321,182 320,181 320,181  Z"/>

<path  fill="#FF9BCD" stroke-width="0" stroke="#FF9BCD" d = " M133 185 L133,195 C133.714,195 136,183.448 136,182 136,182 135,182 135,182 135,182 133,185 133,185  Z"/>

<path  fill="#F0F080" stroke-width="0" stroke="#F0F080" d = " M321 183 L322,183 C322,183 321,182 321,182 321,182 321,183 321,183  Z"/>

<path  fill="#FF9BCD" stroke-width="0" stroke="#FF9BCD" d = " M323 185 L323,191 C321.566,191 321,184.552 321,183 321,183 322,183 322,183 322,183 323,185 323,185  Z"/>

<path  fill="#FEA5D1" stroke-width="0" stroke="#FEA5D1" d = " M115 225 L116,229 C123.869,229 123.425,210 132,210 132,208.009 131.207,196 133,196 133,196 133,195 133,195 133,195 133,185 133,185 128.153,185 125.735,191 122,191 122,191 121,193 121,193 121,193 116,205.5 116,205.5 113.913,209.673 115,217.044 115,222 115,222 115,225 115,225  Z"/>

<path  fill="#FF9BCD" stroke-width="0" stroke="#FF9BCD" d = " M177 187 L178,187 C178,187 177,185 177,185 177,185 177,187 177,187  Z"/>

<path  fill="#FEA5D1" stroke-width="0" stroke="#FEA5D1" d = " M325 211 C333.417,211 332.518,229 341,229 341,229 341,207.5 341,207.5 340.033,205.566 333,190.909 333,190 333,187.591 325.32,185 323,185 323,185 323,191 323,191 323,191 323,193 323,193 324.579,193 324,195.855 324,197 324,197 325,211 325,211  Z"/>

<path  fill="#CCCBC8" stroke-width="0" stroke="#CCCBC8" d = " M177 189 L178,190 C183.669,190 180.137,187 178,187 178,187 177,187 177,187 177,187 177,189 177,189  Z"/>

<path  fill="#CCCBC8" stroke-width="0" stroke="#CCCBC8" d = " M279 187 C277.778,187 273.164,189.832 275.5,191 L279,190 C279,190 279,187 279,187  Z"/>

<path  fill="#FF9BCD" stroke-width="0" stroke="#FF9BCD" d = " M149 188 C147.527,188 148,189.952 148,191 149.473,191 149,189.048 149,188  Z"/>

<path  fill="#FF9BCD" stroke-width="0" stroke="#FF9BCD" d = " M177 190 L178,190 C178,190 177,189 177,189 177,189 177,190 177,190  Z"/>

<path  fill="#FEF991" stroke-width="0" stroke="#FEF991" d = " M352 232 C354.284,232 353.874,240 359,240 359,238.098 370.35,228.201 368,223.5 367.059,221.619 361.627,214.064 359.5,213 359.5,213 356.5,213 356.5,213 353.812,211.656 344.526,198.552 343,195.5 342.269,194.038 338,191.491 338,189 336.421,189 337,191.855 337,193 337,202.604 351,214.729 351,229 351,229 352,232 352,232  Z"/>

<path  fill="#FEF991" stroke-width="0" stroke="#FEF991" d = " M105 231 C105,234.813 100.407,240 97,240 97,239.038 86.5226,227.455 88,224.5 93.5309,213.438 105.217,212.067 111,200.5 112.298,197.904 116.018,190 119,190 119,191.533 119,192.095 119,194 119,200.798 111,206.359 111,213 109.423,213 109,214.762 109,216 107.297,216 105,226.498 105,228 105,228 105,231 105,231  Z"/>

<path  fill="#FFB3D7" stroke-width="0" stroke="#FFB3D7" d = " M208 202 C208,207.125 216.768,206.866 220.5,205 221.824,204.338 227,206.207 227,204 227,200.19 219.475,190 215,190 215,194.477 208,197.709 208,202  Z"/>

<path  fill="#FFB3D7" stroke-width="0" stroke="#FFB3D7" d = " M249 203 C249,208.154 237.214,205 235,205 233.765,205 230,205.643 230,204 230,198.792 235.904,190 241,190 241,194.786 249,197.98 249,203  Z"/>

<path  fill-rule="evenodd" fill="#A9AAA7" stroke-width="0" stroke="#A9AAA7" d = " M343 211 L342,217.5 L342,222.5 C342,226.267 345.151,231.198 348,225.5 350.046,221.407 346.462,216.425 345,213.5 L343,211  M350 229 L351,229 C351,214.729 337,202.604 337,193 337,193 333,190 333,190 333,190.909 340.033,205.566 341,207.5 341,207.5 341,229 341,229 344.096,229 346.736,229 350,229  Z"/>

<path  fill="#A9AAA7" stroke-width="0" stroke="#A9AAA7" d = " M122 191 L121,193 C121,193 122,191 122,191  Z"/>

<path  fill="#A9AAA7" stroke-width="0" stroke="#A9AAA7" d = " M111 213 L113.5,212 C115.535,213.017 112.242,222 115,222 115,217.044 113.913,209.673 116,205.5 116,205.5 121,193 121,193 121,193 119,194 119,194 119,200.798 111,206.359 111,213  Z"/>

<path  fill="#FF9BCD" stroke-width="0" stroke="#FF9BCD" d = " M325 211 L323,214 C323,214 323,193 323,193 324.579,193 324,195.855 324,197 324,197 325,211 325,211  Z"/>

<path  fill="#FF9BCD" stroke-width="0" stroke="#FF9BCD" d = " M132 210 C132,211.048 131.527,213 133,213 133,213 133,196 133,196 131.207,196 132,208.009 132,210  Z"/>

<path  fill="#C9CACB" stroke-width="0" stroke="#C9CACB" d = " M148 197 C151.079,197 151.079,204 148,204 148,204 148,197 148,197  Z"/>

<path  fill="#C9CACB" stroke-width="0" stroke="#C9CACB" d = " M308 197 C310.768,197 308,203.241 308,204 304.921,204 304.921,197 308,197  Z"/>

<path  fill="#C9CACB" stroke-width="0" stroke="#C9CACB" d = " M152 201 C152,208.634 157.327,201 152,201  Z"/>

<path  fill="#C9CACB" stroke-width="0" stroke="#C9CACB" d = " M303 201 L302,202.5 C299.371,207.757 308.113,201 303,201  Z"/>

<path  fill="#FCB3D8" stroke-width="0" stroke="#FCB3D8" d = " M207 220 C207,221.801 220.842,221 223,221 223,217.311 224.928,213.356 223,209.5 219.429,202.357 205,207.677 205,216 205,216 206,219 206,219 206,219 207,220 207,220  Z"/>

<path  fill="#CBCBCC" stroke-width="0" stroke="#CBCBCC" d = " M226 221 L227,223 C227,223 227,207.5 227,207.5 227,207.5 223,207.5 223,207.5 223,207.5 225,211.5 225,211.5 225.607,212.714 226,219.975 226,221  Z"/>

<path  fill="#CBCBCC" stroke-width="0" stroke="#CBCBCC" d = " M231 221 C231,222.747 230.747,223 229,223 229,223 229,210.5 229,210.5 229.742,209.016 233,204.063 233,209 233,209 233,210 233,210 230.924,210 231,218.928 231,221  Z"/>

<path  fill="#FCB3D8" stroke-width="0" stroke="#FCB3D8" d = " M233 221 L249,221 C249,221 251,219 251,219 251,219 251,216 251,216 251,208.787 243.14,203.18 235.5,207 235.5,207 233,209 233,209 233,209 233,210 233,210 233,214.398 233,217.255 233,221  Z"/>

<path  fill="#FEA4D2" stroke-width="0" stroke="#FEA4D2" d = " M115 229 L116,229 C123.869,229 123.425,210 132,210 132,211.048 131.527,213 133,213 133,213 133,217 133,217 133,225.839 130,233.959 130,242 130,244.226 130.387,252.056 128.5,253 123.707,255.397 123.233,247 121,247 121,240.723 115,236.002 115,229  Z"/>

<path  fill="#FF9BCD" stroke-width="0" stroke="#FF9BCD" d = " M231 221 L233,221 C233,217.255 233,214.398 233,210 230.924,210 231,218.928 231,221  Z"/>

<path  fill="#FEA4D2" stroke-width="0" stroke="#FEA4D2" d = " M335 248 L334,250 C332.009,250 331.069,254.284 328.5,253 325.349,251.425 328.161,247.822 327,245.5 323.647,238.794 323,225.767 323,218 323,218 323,214 323,214 323,214 325,211 325,211 333.417,211 332.518,229 341,229 341,236.543 335,241.306 335,248  Z"/>

<path  fill="#A9AAA8" stroke-width="0" stroke="#A9AAA8" d = " M343 211 L342,217.5 L342,222.5 C342,226.267 345.151,231.198 348,225.5 350.046,221.407 346.462,216.425 345,213.5 L343,211  Z"/>

<path  fill="#A9AAA8" stroke-width="0" stroke="#A9AAA8" d = " M115 222 L115,225 C115,225 112.5,228 112.5,228 106.263,231.118 109,217.484 109,216 110.577,216 111,214.238 111,213 111,213 113.5,212 113.5,212 115.535,213.017 112.242,222 115,222  Z"/>

<path  fill="#C8CACA" stroke-width="0" stroke="#C8CACA" d = " M151 269 L151,274 C126.811,274 129.047,241.405 137,225.5 138.614,222.273 143.53,209.015 149.5,212 151.049,212.774 148.503,218.494 148,219.5 143.862,227.775 139,236.547 139,246.5 139,248.748 138.058,258 141,258 141,258 141,259 141,259 141,259 143,261 143,261 143,261 143,262 143,262 143,262 151,269 151,269  Z"/>

<path  fill="#C8CACA" stroke-width="0" stroke="#C8CACA" d = " M305 272 L307.5,275 L315,273 C315,273 319,269.5 319,269.5 319,269.5 323,262.5 323,262.5 326.675,255.15 325.547,240.594 322,233.5 318.754,227.008 316.289,220.077 313,213.5 312.409,212.318 306,210.668 306,213.5 306,220.233 318,235.694 318,246 318,248.639 318.668,258 315,258 315,258 315,259 315,259 315,259 314,260 314,260 314,260 314,261 314,261 314,261 313,262 313,262 313,262 312,263 312,263 312,263 305,270 305,270 305,270 305,272 305,272  Z"/>

<path  fill="#A9AAA7" stroke-width="0" stroke="#A9AAA7" d = " M111 213 C109.423,213 109,214.762 109,216 110.577,216 111,214.238 111,213  Z"/>

<path  fill="#FCB3D9" stroke-width="0" stroke="#FCB3D9" d = " M153 263 L156,265 C158.022,265 161.231,258 165,258 165,254.095 171.34,251.821 173,248.5 176.99,240.521 188,223.575 188,215 188,212.438 175.596,211.952 173.5,213 170.787,214.356 168.905,223 168,223 168,230.874 159.927,232.647 157,238.5 155.632,241.237 153,259.68 153,263  Z"/>

<path  fill="#FCB3D9" stroke-width="0" stroke="#FCB3D9" d = " M300 264 L302,265 C302,265 303,262 303,262 303,258.158 300.605,240.71 299,237.5 295.954,231.408 288,230.746 288,222 286.68,222 286.771,215.136 284.5,214 282.471,212.985 268,211.429 268,215 269.149,215 269.508,219.516 270,220.5 270,220.5 276,234.5 276,234.5 276,234.5 283,248.5 283,248.5 285.037,252.575 291,253.13 291,258 295.106,258 297.465,264 300,264  Z"/>

<path  fill="#FFA4D0" stroke-width="0" stroke="#FFA4D0" d = " M143 262 L147.5,264 L153,263 C153,259.68 155.632,241.237 157,238.5 159.927,232.647 168,230.874 168,223 168,214.366 154.745,210.01 151,217.5 142.503,234.494 141,238.639 141,258 141,258 141,259 141,259 141,259 143,261 143,261 143,261 143,262 143,262  Z"/>

<path  fill="#FFA4D0" stroke-width="0" stroke="#FFA4D0" d = " M313 262 L312,263 C312,263 306.5,264 306.5,264 306.5,264 303,262 303,262 303,258.158 300.605,240.71 299,237.5 295.954,231.408 288,230.746 288,222 289.951,222 288.477,219.546 289,218.5 290.508,215.485 295.529,212.015 299.5,214 311.088,219.794 310.913,233.327 316,243.5 317.923,247.346 315,254.524 315,258 315,258 315,259 315,259 315,259 314,260 314,260 314,260 314,261 314,261 314,261 313,262 313,262  Z"/>

<path  fill="#FFB2D8" stroke-width="0" stroke="#FFB2D8" d = " M191 267 L192,267 C192,254.106 202,236.595 202,222 202,222 202,221 202,221 199.117,221 196,220.591 196,217 196,215.069 189.775,215 188,215 188,223.575 176.99,240.521 173,248.5 171.34,251.821 165,254.095 165,258 169.859,258 178.29,257.895 182.5,260 182.5,260 191,267 191,267  Z"/>

<path  fill="#FFB2D8" stroke-width="0" stroke="#FFB2D8" d = " M291 258 L275.5,259 C272.357,260.572 267.73,267 265,267 265,262.846 262.766,258.031 261,254.5 258.998,250.495 254,226.74 254,222 254,222 254,221 254,221 258.274,221 260,220.291 260,217 262.338,217 264.862,215 268,215 269.149,215 269.508,219.516 270,220.5 270,220.5 276,234.5 276,234.5 276,234.5 283,248.5 283,248.5 285.037,252.575 291,253.13 291,258  Z"/>

<path  fill="#A9AAA7" stroke-width="0" stroke="#A9AAA7" d = " M115 229 L116,229 C116,229 115,225 115,225 115,225 112.5,228 112.5,228 106.263,231.118 109,217.484 109,216 107.297,216 105,226.498 105,228 105,228 106,229 106,229 109.264,229 111.904,229 115,229  Z"/>

<path  fill="#CCCCC7" stroke-width="0" stroke="#CCCCC7" d = " M202 221 L203,221 C203,221 206,219 206,219 206,219 205,216 205,216 201.987,216 198.389,217 196,217 196,220.591 199.117,221 202,221  Z"/>

<path  fill="#CCCCC7" stroke-width="0" stroke="#CCCCC7" d = " M251 219 L254,221 C258.274,221 260,220.291 260,217 257.611,217 254.013,216 251,216 251,216 251,219 251,219  Z"/>

<path  fill="#FF9BCD" stroke-width="0" stroke="#FF9BCD" d = " M207 220 L203,221 C203,221 206,219 206,219 206,219 207,220 207,220  Z"/>

<path  fill="#FF9BCD" stroke-width="0" stroke="#FF9BCD" d = " M254 221 L254,222 C254,222 249,221 249,221 249,221 251,219 251,219 251,219 254,221 254,221  Z"/>

<path  fill-rule="evenodd" fill="#FEB0D8" stroke-width="0" stroke="#FEB0D8" d = " M230 229 C230,231.241 229,234.641 229,237.5 L229,243.5 C229,245.65 231.533,254.433 234,249.5 235.695,246.11 234.704,229 230,229  M225 229 C225,230.911 223,233.611 223,236.5 L223,242.5 L223,246.5 C223,262.039 231.988,229 225,229  M263 270 L264,270 C264,270 265,267 265,267 265,262.846 262.766,258.031 261,254.5 258.998,250.495 254,226.74 254,222 254,222 249,221 249,221 249,221 233,221 233,221 233,221 231,221 231,221 231,222.747 230.747,223 229,223 229,223 227,223 227,223 227,223 226,221 226,221 226,221 223,221 223,221 220.842,221 207,221.801 207,220 207,220 203,221 203,221 203,221 202,222 202,222 202,236.595 192,254.106 192,267 192,267 192,269 192,269 192,269 192,270 192,270 192,270 193,270 193,270 196.357,270 203,265.859 203,273 203,273 210.5,265 210.5,265 216.431,262.034 218.771,262 225,262 225,262 226,262 226,262 226,244.726 231,252.598 231,263 231,263 233.5,261 233.5,261 236.361,259.57 242.317,262.908 244.5,264 244.5,264 253,273 253,273 253,267.536 263,267.781 263,270  Z"/>

<path  fill="#FF9BCD" stroke-width="0" stroke="#FF9BCD" d = " M203 221 L202,222 C202,222 202,221 202,221 202,221 203,221 203,221  Z"/>

<path  fill="#F0F080" stroke-width="0" stroke="#F0F080" d = " M106 229 L105,231 C105,231 105,228 105,228 105,228 106,229 106,229  Z"/>

<path  fill="#C8C8CC" stroke-width="0" stroke="#C8C8CC" d = " M225 229 C225,230.911 223,233.611 223,236.5 L223,242.5 L223,246.5 C223,262.039 231.988,229 225,229  Z"/>

<path  fill="#C8C8CC" stroke-width="0" stroke="#C8C8CC" d = " M230 229 C230,231.241 229,234.641 229,237.5 L229,243.5 C229,245.65 231.533,254.433 234,249.5 235.695,246.11 234.704,229 230,229  Z"/>

<path  fill="#F0F080" stroke-width="0" stroke="#F0F080" d = " M351 229 L352,232 C350.423,232 350,230.238 350,229 350,229 351,229 351,229  Z"/>

<path  fill="#FF9BCD" stroke-width="0" stroke="#FF9BCD" d = " M335 248 L334,250 C334,250 335,248 335,248  Z"/>

<path  fill="#FFC5E2" stroke-width="0" stroke="#FFC5E2" d = " M226 283 L230,283 C230,281.009 229.207,269 231,269 231,269 231,263 231,263 231,252.598 226,244.726 226,262 226,263.048 226.473,265 225,265 225,265 225,267 225,267 226.751,267 226,274.426 226,276 226,276 226,281 226,281 226,281 226,283 226,283  Z"/>

<path  fill="#FFB3D6" stroke-width="0" stroke="#FFB3D6" d = " M169 285 C174.68,285 183.893,289.803 189.5,287 L191,285 C191,285 191,284 191,284 191,284 192,283 192,283 192,283 192,282 192,282 192,282 193,271 193,271 193,271 192,270 192,270 192,270 192,269 192,269 192,269 191,267 191,267 191,267 182.5,260 182.5,260 178.29,257.895 169.859,258 165,258 161.231,258 158.022,265 156,265 156,265 155,266 155,266 155,266 155,270 155,270 155,270 154,271 154,271 154,271 155,277 155,277 155,277 156,278 156,278 156,278 163.5,283 163.5,283 164.614,283.557 169,283.41 169,285  Z"/>

<path  fill="#FFB3D6" stroke-width="0" stroke="#FFB3D6" d = " M265 285 C267.798,285 272.516,288.992 276.5,287 280.081,285.209 283.633,285 288,285 288,283.391 295.109,281.696 296.5,281 301.521,278.489 302,274.346 302,269 302,269 301,268 301,268 301,268 300,264 300,264 297.465,264 295.106,258 291,258 291,258 275.5,259 275.5,259 272.357,260.572 267.73,267 265,267 265,267 264,270 264,270 264,270 263,272 263,272 263,272 265,282 265,282 265,282 265,284 265,284 265,284 265,285 265,285  Z"/>

<path  fill="#FF9BCD" stroke-width="0" stroke="#FF9BCD" d = " M141 259 L143,261 C143,261 141,259 141,259  Z"/>

<path  fill="#FF9BCD" stroke-width="0" stroke="#FF9BCD" d = " M315 259 L314,260 C314,260 315,259 315,259  Z"/>

<path  fill="#FDB2D9" stroke-width="0" stroke="#FDB2D9" d = " M201 280 C201,282.003 200.707,283 203,283 210.882,283 215.866,277 221,277 221,277 222,276 222,276 222,276 223,275 223,275 223,273.004 225,270.015 225,267 225,267 225,265 225,265 225,265 225,262 225,262 218.771,262 216.431,262.034 210.5,265 210.5,265 203,273 203,273 203,273 202,276 202,276 202,276 201,277 201,277 201,277 201,278 201,278 201,278 201,280 201,280  Z"/>

<path  fill="#FDB2D9" stroke-width="0" stroke="#FDB2D9" d = " M256 279 C256,280.717 254.748,283 253,283 245.515,283 231,277.57 231,269 231,269 231,263 231,263 231,263 233.5,261 233.5,261 236.361,259.57 242.317,262.908 244.5,264 244.5,264 253,273 253,273 253,273 254,274 254,274 254,274 254,275 254,275 254,275 255,276 255,276 255,276 255,277 255,277 255,277 256,279 256,279  Z"/>

<path  fill="#FF9BCD" stroke-width="0" stroke="#FF9BCD" d = " M314 261 L313,262 C313,262 314,261 314,261  Z"/>

<path  fill="#FF9BCD" stroke-width="0" stroke="#FF9BCD" d = " M155 266 C155,264.756 152.521,264.459 152,265.5 151.477,266.546 152.951,269 151,269 151,269 143,262 143,262 143,262 147.5,264 147.5,264 147.5,264 153,263 153,263 153,263 156,265 156,265 156,265 155,266 155,266  Z"/>

<path  fill="#FF9BCD" stroke-width="0" stroke="#FF9BCD" d = " M226 262 C226,263.048 226.473,265 225,265 225,265 225,262 225,262 225,262 226,262 226,262  Z"/>

<path  fill="#FF9BCD" stroke-width="0" stroke="#FF9BCD" d = " M302 265 C305.236,265 305,267.435 305,270 305,270 312,263 312,263 312,263 306.5,264 306.5,264 306.5,264 303,262 303,262 303,262 302,265 302,265  Z"/>

<path  fill="#FF9BCD" stroke-width="0" stroke="#FF9BCD" d = " M313 262 L312,263 C312,263 313,262 313,262  Z"/>

<path  fill="#C8C8CB" stroke-width="0" stroke="#C8C8CB" d = " M288 285 L289,285 C295.734,285 303.547,275 305,275 305,275 305,272 305,272 305,272 305,270 305,270 305,267.435 305.236,265 302,265 302,265 300,264 300,264 300,264 301,268 301,268 301,268 302,269 302,269 302,274.346 301.521,278.489 296.5,281 295.109,281.696 288,283.391 288,285  Z"/>

<path  fill="#C8C8CB" stroke-width="0" stroke="#C8C8CB" d = " M168 285 L169,285 C169,283.41 164.614,283.557 163.5,283 163.5,283 156,278 156,278 156,278 155,277 155,277 155,277 154,271 154,271 154,271 155,270 155,270 155,270 155,266 155,266 155,264.756 152.521,264.459 152,265.5 151.477,266.546 152.951,269 151,269 151,269 151,274 151,274 151,274 152,275 152,275 152,280.434 163.578,285 168,285  Z"/>

<path  fill="#FF9BCD" stroke-width="0" stroke="#FF9BCD" d = " M192 267 L192,269 C192,269 191,267 191,267 191,267 192,267 192,267  Z"/>

<path  fill="#FF9BCD" stroke-width="0" stroke="#FF9BCD" d = " M223 275 L226,276 C226,274.426 226.751,267 225,267 225,270.015 223,273.004 223,275  Z"/>

<path  fill="#FCB2D9" stroke-width="0" stroke="#FCB2D9" d = " M192 282 L193,283 C195.46,283 197.17,279 200,279 200,279 201,278 201,278 201,278 201,277 201,277 201,277 202,276 202,276 202,276 203,273 203,273 203,265.859 196.357,270 193,270 193,270 193,271 193,271 193,271 192,282 192,282  Z"/>

<path  fill="#FCB2D9" stroke-width="0" stroke="#FCB2D9" d = " M265 282 L264,283 C264,283 257,279 257,279 257,279 255,277 255,277 255,277 255,276 255,276 255,276 254,275 254,275 254,275 254,274 254,274 254,274 253,273 253,273 253,267.536 263,267.781 263,270 263,270 263,272 263,272 263,272 265,282 265,282  Z"/>

<path  fill="#FF9BCD" stroke-width="0" stroke="#FF9BCD" d = " M301 268 L302,269 C302,269 301,268 301,268  Z"/>

<path  fill-rule="evenodd" fill="#FF9BCD" stroke-width="0" stroke="#FF9BCD" d = " M231 275 L231,279 C231,289.615 241.905,275 231,275  M283 289 C283,290.381 276.673,290.413 275.5,291 267.72,294.89 256.224,296 247,296 247,293.795 250.251,295.998 251,294.5 253.654,289.192 238.684,283.408 235.5,285 235.5,285 231,287 231,287 231,287 230,283 230,283 230,281.009 229.207,269 231,269 231,277.57 245.515,283 253,283 253,289.694 265,294.163 265,285 267.798,285 272.516,288.992 276.5,287 280.081,285.209 283.633,285 288,285 288,285 289,285 289,285 289,285.991 274.908,289 283,289  Z"/>

<path  fill="#FF9BCD" stroke-width="0" stroke="#FF9BCD" d = " M155 270 L154,271 C154,271 155,270 155,270  Z"/>

<path  fill="#FF9BCD" stroke-width="0" stroke="#FF9BCD" d = " M193 270 L193,271 C193,271 192,270 192,270 192,270 193,270 193,270  Z"/>

<path  fill="#FF9BCD" stroke-width="0" stroke="#FF9BCD" d = " M264 270 L263,272 C263,272 263,270 263,270 263,270 264,270 264,270  Z"/>

<path  fill="#FF9BCD" stroke-width="0" stroke="#FF9BCD" d = " M305 275 C305,277.72 303,278.553 303,281 303,281 305.5,279 305.5,279 305.5,279 315,273 315,273 315,273 307.5,275 307.5,275 307.5,275 305,272 305,272 305,272 305,275 305,275  Z"/>

<path  fill="#FF9BCD" stroke-width="0" stroke="#FF9BCD" d = " M253 273 L254,274 C254,274 253,273 253,273  Z"/>

<path  fill="#CBC7CC" stroke-width="0" stroke="#CBC7CC" d = " M171 289 L173,289 C180.927,289 168,285.984 168,285 163.578,285 152,280.434 152,275 148.809,275 152.875,279.375 153.5,280 153.5,280 160,285 160,285 160,285 161,285 161,285 161,285 165,287 165,287 165,287 167,287 167,287 167,287 171,289 171,289  Z"/>

<path  fill="#FF9BCD" stroke-width="0" stroke="#FF9BCD" d = " M223 275 L222,276 C222,276 223,275 223,275  Z"/>

<path  fill="#CACCC8" stroke-width="0" stroke="#CACCC8" d = " M221 277 C221,278.676 219.545,285.477 224.5,283 L226,281 C226,281 226,276 226,276 226,276 223,275 223,275 223,275 222,276 222,276 222,276 221,277 221,277  Z"/>

<path  fill="#CACCC8" stroke-width="0" stroke="#CACCC8" d = " M231 275 L231,279 C231,289.615 241.905,275 231,275  Z"/>

<path  fill="#FF9BCD" stroke-width="0" stroke="#FF9BCD" d = " M254 275 L255,276 C255,276 254,275 254,275  Z"/>

<path  fill="#CBC7CC" stroke-width="0" stroke="#CBC7CC" d = " M283 289 L285,289 C285,289 287,288 287,288 287,288 288,288 288,288 288,288 290,287 290,287 290,287 291,287 291,287 291,287 293,286 293,286 293,286 294,286 294,286 294,286 295,285 295,285 295,285 296,285 296,285 296,285 297,284 297,284 297,284 298,284 298,284 298,284 299,283 299,283 299,283 300,283 300,283 300,283 301,282 301,282 301,282 302,281 302,281 302,281 303,281 303,281 303,278.553 305,277.72 305,275 303.547,275 295.734,285 289,285 289,285.991 274.908,289 283,289  Z"/>

<path  fill="#FF9BCD" stroke-width="0" stroke="#FF9BCD" d = " M202 276 L201,277 C201,277 202,276 202,276  Z"/>

<path  fill="#FF9BCD" stroke-width="0" stroke="#FF9BCD" d = " M222 276 L221,277 C221,277 222,276 222,276  Z"/>

<path  fill="#FF9BCD" stroke-width="0" stroke="#FF9BCD" d = " M155 277 L156,278 C156,278 155,277 155,277  Z"/>

<path  fill-rule="evenodd" fill="#FF9BCD" stroke-width="0" stroke="#FF9BCD" d = " M219 296 C223.78,296 228.261,290 228.5,290 L229.5,293 L237.5,297 C238.85,297.675 247,297.247 247,296 240.963,296 231,296.229 231,288 226.139,288 226,289.406 226,283 226,283 226,281 226,281 226,281 224.5,283 224.5,283 219.545,285.477 221,278.676 221,277 215.866,277 210.882,283 203,283 203,290.27 191,294.099 191,285 191,285 189.5,287 189.5,287 183.893,289.803 174.68,285 169,285 169,285 168,285 168,285 168,285.984 180.927,289 173,289 173,290.344 180.273,290.387 181.5,291 189.934,295.217 201.174,292.837 209.5,297 210.85,297.675 219,297.247 219,296  M219 296 C219,294.509 227.28,291.059 225,286.5 221.665,279.83 190.65,296 212.5,296 L219,296  Z"/>

<path  fill="#FF9BCD" stroke-width="0" stroke="#FF9BCD" d = " M256 279 L257,279 C257,279 255,277 255,277 255,277 256,279 256,279  Z"/>

<path  fill="#FF9BCD" stroke-width="0" stroke="#FF9BCD" d = " M200 279 L201,280 C201,280 201,278 201,278 201,278 200,279 200,279  Z"/>

<path  fill="#FCB2D8" stroke-width="0" stroke="#FCB2D8" d = " M191 284 L191,285 C191,294.099 203,290.27 203,283 200.707,283 201,282.003 201,280 201,280 200,279 200,279 197.17,279 195.46,283 193,283 193,283 192,283 192,283 192,283 191,284 191,284  Z"/>

<path  fill="#FCB2D8" stroke-width="0" stroke="#FCB2D8" d = " M265 284 L265,285 C265,294.163 253,289.694 253,283 254.748,283 256,280.717 256,279 256,279 257,279 257,279 257,279 264,283 264,283 264,283 265,284 265,284  Z"/>

<path  fill="#FF9BCD" stroke-width="0" stroke="#FF9BCD" d = " M302 281 L301,282 C301,282 302,281 302,281  Z"/>

<path  fill="#FF9BCD" stroke-width="0" stroke="#FF9BCD" d = " M192 283 L193,283 C193,283 192,282 192,282 192,282 192,283 192,283  Z"/>

<path  fill="#FF9BCD" stroke-width="0" stroke="#FF9BCD" d = " M264 283 L265,284 C265,284 265,282 265,282 265,282 264,283 264,283  Z"/>

<path  fill="#FF9BCD" stroke-width="0" stroke="#FF9BCD" d = " M301 282 L300,283 C300,283 301,282 301,282  Z"/>

<path  fill="#FF9BCD" stroke-width="0" stroke="#FF9BCD" d = " M192 283 L191,284 C191,284 192,283 192,283  Z"/>

<path  fill="#FFC6E2" stroke-width="0" stroke="#FFC6E2" d = " M231 287 L231,288 C226.139,288 226,289.406 226,283 226,283 230,283 230,283 230,283 231,287 231,287  Z"/>

<path  fill="#FF9BCD" stroke-width="0" stroke="#FF9BCD" d = " M299 283 L298,284 C298,284 299,283 299,283  Z"/>

<path  fill="#FF9BCD" stroke-width="0" stroke="#FF9BCD" d = " M297 284 L296,285 C296,285 297,284 297,284  Z"/>

<path  fill="#FF9BCD" stroke-width="0" stroke="#FF9BCD" d = " M161 285 L165,287 C165,287 161,285 161,285  Z"/>

<path  fill="#C7C9C9" stroke-width="0" stroke="#C7C9C9" d = " M219 296 C219,294.509 227.28,291.059 225,286.5 221.665,279.83 190.65,296 212.5,296 L219,296  Z"/>

<path  fill="#C7C9C9" stroke-width="0" stroke="#C7C9C9" d = " M231 288 C231,296.229 240.963,296 247,296 247,293.795 250.251,295.998 251,294.5 253.654,289.192 238.684,283.408 235.5,285 235.5,285 231,287 231,287 231,287 231,288 231,288  Z"/>

<path  fill="#FF9BCD" stroke-width="0" stroke="#FF9BCD" d = " M295 285 L294,286 C294,286 295,285 295,285  Z"/>

<path  fill="#FF9BCD" stroke-width="0" stroke="#FF9BCD" d = " M293 286 L291,287 C291,287 293,286 293,286  Z"/>

<path  fill="#FF9BCD" stroke-width="0" stroke="#FF9BCD" d = " M167 287 L171,289 C171,289 167,287 167,287  Z"/>

<path  fill="#FF9BCD" stroke-width="0" stroke="#FF9BCD" d = " M290 287 L288,288 C288,288 290,287 290,287  Z"/>

<path  fill="#FF9BCD" stroke-width="0" stroke="#FF9BCD" d = " M287 288 L285,289 C285,289 287,288 287,288  Z"/>

</g>
</svg>
