<svg xmlns="http://www.w3.org/2000/svg" xmlns:xlink="http://www.w3.org/1999/xlink"  viewBox="0 0 456 320">
<g>
<rect width="456" height="320" fill="#000000"  stroke-width="0" /> 
<path  fill="#1E9C59" stroke-width="0" stroke="#1E9C59" d = " M227 55 C225.376,55 224.25,57 222,57 222,57 219,52.5 219,52.5 211.249,36.9988 194.6,44 181,44 181,44 181,39 181,39 181,39 187.5,37 187.5,37 196.109,32.6954 217.108,39.7156 221,47.5 221,47.5 227,55 227,55  Z"/>

<path  fill="#1E9C59" stroke-width="0" stroke="#1E9C59" d = " M234 57 L235,57 C235,53.5631 237.973,52.5535 239,50.5 245.787,36.9255 263.654,44 275,44 275,44 275,39 275,39 275,39 268.5,37 268.5,37 259.197,32.3487 239.214,40.0721 235,48.5 234.042,50.4157 229,51.8025 229,55 230.624,55 231.75,57 234,57  Z"/>

<path  fill="#1E9D5A" stroke-width="0" stroke="#1E9D5A" d = " M129 56 L129,62 C129,62 140.5,57 140.5,57 147.605,53.4474 173.149,45 181,45 181,45 181,44 181,44 181,44 181,39 181,39 170.376,39 151.761,46.3697 142.5,51 140.533,51.9836 129,53.6921 129,56  Z"/>

<path  fill="#1E9D5A" stroke-width="0" stroke="#1E9D5A" d = " M327 56 L328,63 C325.024,63 318.325,58.4123 315.5,57 307.877,53.1886 283.543,45 275,45 275,45 275,44 275,44 275,44 275,39 275,39 285.029,39 304.722,46.6108 313.5,51 315.46,51.9802 327,53.6218 327,56  Z"/>

<path  fill="#1E9D58" stroke-width="0" stroke="#1E9D58" d = " M215 61 L216,61 C216,61 222,58 222,58 222,58 222,57 222,57 222,57 219,52.5 219,52.5 211.249,36.9988 194.6,44 181,44 181,44 181,45 181,45 181,50.6107 180,54.3589 180,59 189.551,59 195.85,47.6748 210.5,55 212.86,56.1798 215,58.0433 215,61  Z"/>

<path  fill="#1E9D58" stroke-width="0" stroke="#1E9D58" d = " M277 59 C266.45,59 260.715,47.8926 246.5,55 244.381,56.0594 241,58.1577 241,61 239.583,61 235,58.6174 235,57 235,53.5631 237.973,52.5535 239,50.5 245.787,36.9255 263.654,44 275,44 275,44 275,45 275,45 275,49.5044 277,54.733 277,59  Z"/>

<path  fill="#1F9C58" stroke-width="0" stroke="#1F9C58" d = " M128 78 L128,85 C134.878,85 170.409,61 179,61 179,61 180,60 180,60 180,60 180,59 180,59 180,54.3589 181,50.6107 181,45 173.149,45 147.605,53.4474 140.5,57 140.5,57 129,62 129,62 129,62 129,63 129,63 129,67.6346 128,72.8278 128,78  Z"/>

<path  fill="#1F9C58" stroke-width="0" stroke="#1F9C58" d = " M328 78 C328,81.3125 328,82.4896 328,85 324.748,85 320.405,80.4526 317.5,79 307.844,74.1719 297.126,70.8129 287.5,66 287.5,66 277,60 277,60 277,60 277,59 277,59 277,54.733 275,49.5044 275,45 283.543,45 307.877,53.1886 315.5,57 318.325,58.4123 325.024,63 328,63 328,69.4133 328,73.2767 328,78  Z"/>

<path  fill="#1F9D58" stroke-width="0" stroke="#1F9D58" d = " M201 73 C198.238,73 194.245,69.1274 190.5,71 186.538,72.9812 181.568,78 177,78 177,78 179,61 179,61 179,61 180,60 180,60 180,60 180,59 180,59 189.551,59 195.85,47.6748 210.5,55 212.86,56.1798 215,58.0433 215,61 215,61.9261 201.515,73 201,73  Z"/>

<path  fill-rule="evenodd" fill="#1F9D58" stroke-width="0" stroke="#1F9D58" d = " M261 57 C261,58.93 262.93,57 261,57  M255 73 C257.926,73 261.701,69.1004 265.5,71 269.315,72.9076 274.617,78 279,78 279,71.4003 277,66.4998 277,60 277,60 277,59 277,59 266.45,59 260.715,47.8926 246.5,55 244.381,56.0594 241,58.1577 241,61 241,61 241,62 241,62 246.744,62 250.186,73 255,73  Z"/>

<path  fill="#3EA665" stroke-width="0" stroke="#3EA665" d = " M222 85 L234,85 C234,85 234,57 234,57 231.75,57 230.624,55 229,55 229,57.4882 227,56.9188 227,55 225.376,55 224.25,57 222,57 222,57 222,58 222,58 222,66.5498 222,76.172 222,85  Z"/>

<path  fill="#197E64" stroke-width="0" stroke="#197E64" d = " M102 70 L105,74 C111.538,74 121.81,63 129,63 129,63 129,62 129,62 129,62 129,56 129,56 125.699,56 102,68.3243 102,70  Z"/>

<path  fill="#197E64" stroke-width="0" stroke="#197E64" d = " M351 75 L352,75 C352,75 355,70 355,70 350.221,70 335.373,56 327,56 327,56 328,63 328,63 328,63 346.5,71 346.5,71 346.5,71 351,75 351,75  Z"/>

<path  fill="#40A565" stroke-width="0" stroke="#40A565" d = " M234 85 L239,86 C239,86 239,67.5 239,67.5 239,65.9683 239.173,62 241,62 241,62 241,61 241,61 239.583,61 235,58.6174 235,57 235,57 234,57 234,57 234,57 234,85 234,85  Z"/>

<path  fill="#1E9C5A" stroke-width="0" stroke="#1E9C5A" d = " M261 57 C261,58.93 262.93,57 261,57  Z"/>

<path  fill="#40A565" stroke-width="0" stroke="#40A565" d = " M222 85 L217,86 C217,77.7257 216,68.6148 216,61 216,61 222,58 222,58 222,66.5498 222,76.172 222,85  Z"/>

<path  fill="#1E9C5A" stroke-width="0" stroke="#1E9C5A" d = " M180 60 L179,61 C179,61 180,60 180,60  Z"/>

<path  fill="#1E9C5A" stroke-width="0" stroke="#1E9C5A" d = " M328 85 C328,90.1594 329,94.1044 329,100 329,100 318.5,95 318.5,95 309.76,90.6301 299.239,89.3696 290.5,85 286.979,83.2395 283.118,79 279,79 279,79 279,78 279,78 279,71.4003 277,66.4998 277,60 277,60 287.5,66 287.5,66 297.126,70.8129 307.844,74.1719 317.5,79 320.405,80.4526 324.748,85 328,85  Z"/>

<path  fill="#1E9C5A" stroke-width="0" stroke="#1E9C5A" d = " M128 86 C128,91.0737 127,96.5137 127,100 128.36,100 162.304,86.5979 165.5,85 168.947,83.2765 172.966,79 177,79 177,79 177,78 177,78 177,78 179,61 179,61 170.409,61 134.878,85 128,85 128,85 128,86 128,86  Z"/>

<path  fill="#3EA566" stroke-width="0" stroke="#3EA566" d = " M217 86 C212.907,86 205.927,93 204,93 204,93 203,78.5 203,78.5 203,77.205 202.429,74 201,74 201,74 201,73 201,73 201.515,73 215,61.9261 215,61 215,61 216,61 216,61 216,68.6148 217,77.7257 217,86  Z"/>

<path  fill="#3EA566" stroke-width="0" stroke="#3EA566" d = " M252 93 L253,93 C253,90.1944 251.916,75 255,75 255,75 255,73 255,73 250.186,73 246.744,62 241,62 239.173,62 239,65.9683 239,67.5 239,67.5 239,86 239,86 243.303,86 250.624,93 252,93  Z"/>

<path  fill="#197F61" stroke-width="0" stroke="#197F61" d = " M128 78 L112,85 C112,85 105,75 105,75 105,75 105,74 105,74 111.538,74 121.81,63 129,63 129,67.6346 128,72.8278 128,78  Z"/>

<path  fill="#197F61" stroke-width="0" stroke="#197F61" d = " M328 78 L344,85 C346.211,85 351,77.5909 351,75 351,75 346.5,71 346.5,71 346.5,71 328,63 328,63 328,69.4133 328,73.2767 328,78  Z"/>

<path  fill="#187E61" stroke-width="0" stroke="#187E61" d = " M57 139 L62,140 C64.144,140 62.3809,135.738 63,134.5 63,134.5 67,120.5 67,120.5 72.5833,109.333 82.5085,88.9958 94.5,83 96.9219,81.789 101.396,75 105,75 105,75 105,74 105,74 105,74 102,70 102,70 98.0658,70 87.8715,80.6285 84.5,84 75.2095,93.2905 69.6645,103.171 64,114.5 61.7603,118.979 62.2234,125.053 60,129.5 60,129.5 57,139 57,139  Z"/>

<path  fill="#187E61" stroke-width="0" stroke="#187E61" d = " M399 139 L394,141 C394,128.219 378.042,93.2711 367.5,88 363.092,85.796 355.746,75 352,75 352,75 355,70 355,70 357.958,70 366.255,79.8776 368.5,81 382.142,87.8211 399,124.075 399,139  Z"/>

<path  fill="#1D9C5A" stroke-width="0" stroke="#1D9C5A" d = " M180 99 L176,100 C176,92.8505 177,85.5965 177,79 177,79 177,78 177,78 181.568,78 186.538,72.9812 190.5,71 194.245,69.1274 198.238,73 201,73 201,73 201,74 201,74 201,77.5433 189,89.4776 189,97 187.077,97 180,96.8444 180,99  Z"/>

<path  fill="#1D9C5A" stroke-width="0" stroke="#1D9C5A" d = " M267 97 C271.99,97 275.551,99 280,99 280,97.0272 282.182,92.8638 281,90.5 279.796,88.0925 279,81.574 279,79 279,79 279,78 279,78 274.617,78 269.315,72.9076 265.5,71 261.701,69.1004 257.926,73 255,73 255,73 255,75 255,75 258.851,75 267,93.3709 267,97  Z"/>

<path  fill="#3FA664" stroke-width="0" stroke="#3FA664" d = " M189 97 C192.625,97 192.563,101 195,101 195,101 204,93 204,93 204,93 203,78.5 203,78.5 203,77.205 202.429,74 201,74 201,77.5433 189,89.4776 189,97  Z"/>

<path  fill="#1A7E64" stroke-width="0" stroke="#1A7E64" d = " M62 141 C65.9482,141 68.6036,145 72,145 72,131.729 87.1347,100.683 98.5,95 102.184,93.158 106.751,86 112,86 112,86 112,85 112,85 112,85 105,75 105,75 101.396,75 96.9219,81.789 94.5,83 82.5085,88.9958 72.5833,109.333 67,120.5 67,120.5 63,134.5 63,134.5 62.3809,135.738 64.144,140 62,140 62,140 62,141 62,141  Z"/>

<path  fill="#3FA664" stroke-width="0" stroke="#3FA664" d = " M262 101 L263,101 C263,99.7617 263.423,98 265,98 265,98 267,97 267,97 267,93.3709 258.851,75 255,75 251.916,75 253,90.1944 253,93 253,94.5425 260.388,101 262,101  Z"/>

<path  fill="#1A7E64" stroke-width="0" stroke="#1A7E64" d = " M394 141 L385,144 C385,130.72 373.655,116.81 368,105.5 368,105.5 363,100.5 363,100.5 360.621,95.742 349.11,86 344,86 344,86 344,85 344,85 346.211,85 351,77.5909 351,75 351,75 352,75 352,75 355.746,75 363.092,85.796 367.5,88 378.042,93.2711 394,128.219 394,141  Z"/>

<path  fill="#1A7F63" stroke-width="0" stroke="#1A7F63" d = " M128 86 L117,92 C115.223,92 112,87.9871 112,86 112,86 112,85 112,85 112,85 128,78 128,78 128,78 128,85 128,85 128,85 128,86 128,86  Z"/>

<path  fill="#1A7F63" stroke-width="0" stroke="#1A7F63" d = " M339 93 L340,93 C340,90.1169 344,89.2624 344,86 344,86 344,85 344,85 344,85 328,78 328,78 328,81.3125 328,82.4896 328,85 329.433,85 339,91.6766 339,93  Z"/>

<path  fill="#1F9B5A" stroke-width="0" stroke="#1F9B5A" d = " M157 109 C149.321,109 132.163,123 129,123 129,117.325 127,112.511 127,107 127,107 127,101 127,101 127,101 127,100 127,100 128.36,100 162.304,86.5979 165.5,85 168.947,83.2765 172.966,79 177,79 177,85.5965 176,92.8505 176,100 176,100 175,101 175,101 173.576,101 170,101.362 170,103 167.828,103 157,107.018 157,109  Z"/>

<path  fill="#1F9B5A" stroke-width="0" stroke="#1F9B5A" d = " M329 108 C329,110.234 329.354,122 327,122 322.192,122 288.435,100 280,100 280,100 280,99 280,99 280,97.0272 282.182,92.8638 281,90.5 279.796,88.0925 279,81.574 279,79 283.118,79 286.979,83.2395 290.5,85 299.239,89.3696 309.76,90.6301 318.5,95 318.5,95 329,100 329,100 329,100 329,101 329,101 329,101 329,108 329,108  Z"/>

<path  fill="#3FA566" stroke-width="0" stroke="#3FA566" d = " M221 122 L218,123 C218,123 217,86 217,86 217,86 222,85 222,85 222,96.4053 222,107.184 222,118 222,118 221,122 221,122  Z"/>

<path  fill="#40A664" stroke-width="0" stroke="#40A664" d = " M229 113 C231.832,113 231.953,118 234,118 234,118 234,85 234,85 234,85 222,85 222,85 222,96.4053 222,107.184 222,118 222,118 227,113 227,113 227,110.436 229,110.436 229,113  Z"/>

<path  fill="#3FA566" stroke-width="0" stroke="#3FA566" d = " M236 122 L238,123 C238,111.389 239,98.2715 239,86 239,86 234,85 234,85 234,85 234,118 234,118 234,118 236,122 236,122  Z"/>

<path  fill="#187E62" stroke-width="0" stroke="#187E62" d = " M332 103 L334,103 C334,103 339,93 339,93 339,91.6766 329.433,85 328,85 328,90.1594 329,94.1044 329,100 329,100 329,101 329,101 330.238,101 332,101.423 332,103  Z"/>

<path  fill="#1B7F62" stroke-width="0" stroke="#1B7F62" d = " M72 145 C74.7653,145 77.1645,147 79,147 79,135.853 93.8133,107.343 104.5,102 108.853,99.8233 111.845,93 117,93 117,93 117,92 117,92 115.223,92 112,87.9871 112,86 106.751,86 102.184,93.158 98.5,95 87.1347,100.683 72,131.729 72,145  Z"/>

<path  fill="#187E62" stroke-width="0" stroke="#187E62" d = " M123 103 L124,103 C124,101.423 125.762,101 127,101 127,101 127,100 127,100 127,96.5137 128,91.0737 128,86 128,86 117,92 117,92 117,92 117,93 117,93 117,96.1411 123,99.0625 123,103  Z"/>

<path  fill="#3EA666" stroke-width="0" stroke="#3EA666" d = " M209 119 C211.759,119 214.795,123 218,123 218,123 217,86 217,86 212.907,86 205.927,93 204,93 204,93 205,107.5 205,107.5 205,107.5 209,119 209,119  Z"/>

<path  fill="#3EA666" stroke-width="0" stroke="#3EA666" d = " M247 119 C244.136,119 241.65,123 238,123 238,111.389 239,98.2715 239,86 243.303,86 250.624,93 252,93 252,93 251,108.5 251,108.5 251,108.5 247,119 247,119  Z"/>

<path  fill="#1B7F62" stroke-width="0" stroke="#1B7F62" d = " M385 144 L378,146 C376.049,146 377.523,143.546 377,142.5 377,142.5 373,131.5 373,131.5 366.95,119.401 359.178,103.839 345.5,97 345.5,97 340,93 340,93 340,90.1169 344,89.2624 344,86 349.11,86 360.621,95.742 363,100.5 363,100.5 368,105.5 368,105.5 373.655,116.81 385,130.72 385,144  Z"/>

<path  fill="#1B7E63" stroke-width="0" stroke="#1B7E63" d = " M89 154 L90,154 C90,139.704 98.5329,116.984 110.5,111 113.983,109.258 119.122,103 123,103 123,99.0625 117,96.1411 117,93 111.845,93 108.853,99.8233 104.5,102 93.8133,107.343 79,135.853 79,147 83.3747,147 89,148.902 89,154  Z"/>

<path  fill="#40A564" stroke-width="0" stroke="#40A564" d = " M207 118 L209,119 C209,119 205,107.5 205,107.5 205,107.5 204,93 204,93 204,93 195,101 195,101 195,101 195,102 195,102 195,107.604 205,110.664 205,116 205,116 207,118 207,118  Z"/>

<path  fill="#40A564" stroke-width="0" stroke="#40A564" d = " M250 118 L247,119 C247,119 251,108.5 251,108.5 251,108.5 252,93 252,93 252,93 253,93 253,93 253,94.5425 260.388,101 262,101 262,101 262,102 262,102 262,102 259.5,105 259.5,105 258.109,106.391 252,113.744 252,115 252,115 251,116 251,116 251,116 250,118 250,118  Z"/>

<path  fill="#1B7E63" stroke-width="0" stroke="#1B7E63" d = " M378 147 C373.114,147 370.262,151 367,151 365.957,151 365,145.647 365,144.5 365,138.858 361.426,131.353 359,126.5 355.81,120.121 348.298,110.399 341.5,107 340.025,106.263 334,105.295 334,103 334,103 339,93 339,93 339,93 340,93 340,93 340,93 345.5,97 345.5,97 359.178,103.839 366.95,119.401 373,131.5 373,131.5 377,142.5 377,142.5 377.523,143.546 376.049,146 378,146 378,146 378,147 378,147  Z"/>

<path  fill="#1E9C58" stroke-width="0" stroke="#1E9C58" d = " M189 98 L180,99 C180,96.8444 187.077,97 189,97 189,97 189,98 189,98  Z"/>

<path  fill="#3FA466" stroke-width="0" stroke="#3FA466" d = " M194 102 L195,102 C195,102 195,101 195,101 192.563,101 192.625,97 189,97 189,97 189,98 189,98 191.813,98 192.461,102 194,102  Z"/>

<path  fill="#3FA466" stroke-width="0" stroke="#3FA466" d = " M265 98 L267,98 C267,98 267,97 267,97 267,97 265,98 265,98  Z"/>

<path  fill="#1E9C58" stroke-width="0" stroke="#1E9C58" d = " M280 100 L280,101 C276.001,101 271.608,98 267,98 267,98 267,97 267,97 271.99,97 275.551,99 280,99 280,99 280,100 280,100  Z"/>

<path  fill="#CACCC7" stroke-width="0" stroke="#CACCC7" d = " M205 116 L207,118 C197.399,118 194.049,105.774 186.5,102 180.921,99.2104 174.036,107 169,107 169,107 168,108 168,108 168,108 167,108 167,108 167,108 165,109 165,109 165,109 161,109 161,109 161,105.199 170,106.397 170,103 171.622,103 175,103.461 175,101 175,101 176,101 176,101 176,101 180,99 180,99 180,99 189,98 189,98 191.813,98 192.461,102 194,102 194,104.904 201.349,116 205,116  Z"/>

<path  fill="#3FA466" stroke-width="0" stroke="#3FA466" d = " M265 98 C263.423,98 263,99.7617 263,101 264.577,101 265,99.2383 265,98  Z"/>

<path  fill="#CACCC7" stroke-width="0" stroke="#CACCC7" d = " M251 116 L250,118 C258.649,118 262.578,105.461 269.5,102 275.297,99.1016 282.149,107 287,107 290.157,107 292.481,109 296,109 296,106.659 293.658,107.579 292.5,107 289.152,105.326 283.754,101 280,101 276.001,101 271.608,98 267,98 267,98 265,98 265,98 265,99.2383 264.577,101 263,101 263,101 263,102 263,102 263,105.176 255.551,115 252,115 252,115 251,116 251,116  Z"/>

<path  fill="#1E9C58" stroke-width="0" stroke="#1E9C58" d = " M176 100 L176,101 C176,101 180,99 180,99 180,99 176,100 176,100  Z"/>

<path  fill="#1D9D5A" stroke-width="0" stroke="#1D9D5A" d = " M175 101 L176,101 C176,101 176,100 176,100 176,100 175,101 175,101  Z"/>

<path  fill="#1D9D5A" stroke-width="0" stroke="#1D9D5A" d = " M327 123 L327,124 C322.004,124 304.461,109 296,109 296,106.659 293.658,107.579 292.5,107 289.152,105.326 283.754,101 280,101 280,101 280,100 280,100 288.435,100 322.192,122 327,122 327,122 327,123 327,123  Z"/>

<path  fill="#197D61" stroke-width="0" stroke="#197D61" d = " M124 103 C124,104.429 125.288,107 127,107 127,107 127,101 127,101 125.762,101 124,101.423 124,103  Z"/>

<path  fill="#1D9D5A" stroke-width="0" stroke="#1D9D5A" d = " M175 101 C173.576,101 170,101.362 170,103 171.622,103 175,103.461 175,101  Z"/>

<path  fill="#3FA466" stroke-width="0" stroke="#3FA466" d = " M262 102 L263,102 C263,102 263,101 263,101 263,101 262,101 262,101 262,101 262,102 262,102  Z"/>

<path  fill="#197D61" stroke-width="0" stroke="#197D61" d = " M332 103 C332,104.408 330.803,108 329,108 329,108 329,101 329,101 330.238,101 332,101.423 332,103  Z"/>

<path  fill="#C9C7C9" stroke-width="0" stroke="#C9C7C9" d = " M236 122 L238,123 C241.65,123 244.136,119 247,119 247,119 250,118 250,118 258.649,118 262.578,105.461 269.5,102 275.297,99.1016 282.149,107 287,107 287,107 292,110 292,110 266.143,110 269.136,117.682 250.5,127 245.384,129.558 239.553,130.474 234.5,133 232.472,134.014 229.888,132 228.5,132 213.905,132 209.2,127.35 196.5,121 196.5,121 188.5,114 188.5,114 181.953,110.727 172.812,110 165,110 165,110 165,109 165,109 165,109 167,108 167,108 167,108 168,108 168,108 168,108 169,107 169,107 174.036,107 180.921,99.2104 186.5,102 194.049,105.774 197.399,118 207,118 207,118 209,119 209,119 211.759,119 214.795,123 218,123 218,123 221,122 221,122 221,123.951 223.454,122.477 224.5,123 227.748,124.624 231.922,122 236,122  Z"/>

<path  fill="#40A465" stroke-width="0" stroke="#40A465" d = " M195 102 C195,107.604 205,110.664 205,116 201.349,116 194,104.904 194,102 194,102 195,102 195,102  Z"/>

<path  fill="#40A465" stroke-width="0" stroke="#40A465" d = " M263 102 C263,105.176 255.551,115 252,115 252,113.744 258.109,106.391 259.5,105 259.5,105 262,102 262,102 262,102 263,102 263,102  Z"/>

<path  fill="#187D61" stroke-width="0" stroke="#187D61" d = " M89 166 L90,166 C90,166 105,165 105,165 105,165 105,164 105,164 105,151.429 111.747,139.753 120.5,131 120.5,131 129,123 129,123 129,117.325 127,112.511 127,107 125.288,107 124,104.429 124,103 124,103 123,103 123,103 119.122,103 113.983,109.258 110.5,111 98.5329,116.984 90,139.704 90,154 90,155.574 90.751,163 89,163 89,163 89,166 89,166  Z"/>

<path  fill="#1D9D5A" stroke-width="0" stroke="#1D9D5A" d = " M157 109 L161,109 C161,105.199 170,106.397 170,103 167.828,103 157,107.018 157,109  Z"/>

<path  fill="#187D61" stroke-width="0" stroke="#187D61" d = " M352 165 L367,166 C367,166 367,164 367,164 365.814,164 365.814,163 367,163 367,163 367,157 367,157 365.814,157 365.814,156 367,156 367,156 367,151 367,151 365.957,151 365,145.647 365,144.5 365,138.858 361.426,131.353 359,126.5 355.81,120.121 348.298,110.399 341.5,107 340.025,106.263 334,105.295 334,103 334,103 332,103 332,103 332,104.408 330.803,108 329,108 329,110.234 329.354,122 327,122 327,122 327,123 327,123 330.452,123 333.498,129.999 335.5,131 341.749,134.124 347.581,147.663 351,154.5 351,154.5 351,165 351,165 351,165 352,165 352,165  Z"/>

<path  fill="#C9C9CA" stroke-width="0" stroke="#C9C9CA" d = " M169 107 L168,108 C168,108 169,107 169,107  Z"/>

<path  fill="#C9C9CA" stroke-width="0" stroke="#C9C9CA" d = " M327 124 L339,136.5 C343.886,146.272 350,153.041 350,165 348.656,165 348.613,157.727 348,156.5 348,156.5 341,141.5 341,141.5 335.414,130.329 303.107,110 292,110 292,110 287,107 287,107 290.157,107 292.481,109 296,109 304.461,109 322.004,124 327,124  Z"/>

<path  fill="#C9C9CA" stroke-width="0" stroke="#C9C9CA" d = " M167 108 L165,109 C165,109 167,108 167,108  Z"/>

<path  fill="#1D9D5A" stroke-width="0" stroke="#1D9D5A" d = " M129 123 L129,125 C129,125 135.5,120 135.5,120 135.5,120 157,109 157,109 149.321,109 132.163,123 129,123  Z"/>

<path  fill="#C9C9CA" stroke-width="0" stroke="#C9C9CA" d = " M129 125 C129,126.491 117,134.175 117,139 117,139 131.5,125 131.5,125 140.191,120.655 155.275,110 165,110 165,110 165,109 165,109 165,109 161,109 161,109 161,109 157,109 157,109 157,109 135.5,120 135.5,120 135.5,120 129,125 129,125  Z"/>

<path  fill="#CCC7C9" stroke-width="0" stroke="#CCC7C9" d = " M350 167 L348,168 C348,150.092 333.571,132.536 318.5,125 318.5,125 300.5,119 300.5,119 296.669,117.085 269,117.844 269,122 269,122 268,123 268,123 266.428,123 261,125.052 261,127 259.762,127 258,127.423 258,129 256.762,129 255,129.423 255,131 253.762,131 252,131.423 252,133 250.762,133 249,133.423 249,135 249,135 248,135 248,135 248,135 247,136 247,136 243.124,136 236.095,144.298 231.5,142 231.5,142 228.5,139 228.5,139 227.111,138.306 225.283,143.391 222.5,142 220.869,141.185 209.921,136 209,136 209,136 205,132.5 205,132.5 202.508,130.008 192.485,123 189,123 189,123 184.5,119 184.5,119 184.5,119 163.5,118 163.5,118 157.24,121.13 148.792,119.854 142.5,123 126.413,131.044 108,147.462 108,167 108,167 106,167 106,167 106,167 106,166 106,166 108.064,166 106.426,162.647 107,161.5 107,161.5 110,151 110,151 110,151 111,149 111,149 111,149 112,147 112,147 112,147 113,145 113,145 114.577,145 115,143.238 115,142 116.577,142 117,140.238 117,139 117,139 131.5,125 131.5,125 140.191,120.655 155.275,110 165,110 172.812,110 181.953,110.727 188.5,114 188.5,114 196.5,121 196.5,121 209.2,127.35 213.905,132 228.5,132 229.888,132 232.472,134.014 234.5,133 239.553,130.474 245.384,129.558 250.5,127 269.136,117.682 266.143,110 292,110 303.107,110 335.414,130.329 341,141.5 341,141.5 348,156.5 348,156.5 348.613,157.727 348.656,165 350,165 350,165 350,167 350,167  Z"/>

<path  fill="#7ED04B" stroke-width="0" stroke="#7ED04B" d = " M221 122 C221,123.951 223.454,122.477 224.5,123 227.748,124.624 231.922,122 236,122 236,122 234,118 234,118 231.953,118 231.832,113 229,113 229,114.93 227.839,113 227,113 227,113 222,118 222,118 222,118 221,122 221,122  Z"/>

<path  fill="#40A465" stroke-width="0" stroke="#40A465" d = " M252 115 L251,116 C251,116 252,115 252,115  Z"/>

<path  fill="#98D5F9" stroke-width="0" stroke="#98D5F9" d = " M127 229 L135,234 C147.429,234 164.136,238.228 171,224.5 173.019,220.462 172.971,215.558 175,211.5 175,211.5 185.5,202 185.5,202 185.5,202 189,200 189,200 189,200 191,199 191,199 191,194.956 192,191.033 192,187.5 192,186.31 191.386,183 193,183 193,183 193,177 193,177 193,177 193,175 193,175 193,173.952 192.527,172 194,172 194,172 195,163 195,163 195,163 196,162 196,162 196,162 196,161 196,161 196,153.822 198.057,141.614 195,135.5 193.636,132.772 191,130.231 191,127 191,127 189,123 189,123 189,123 184.5,119 184.5,119 184.5,119 163.5,118 163.5,118 157.24,121.13 148.792,119.854 142.5,123 126.413,131.044 108,147.462 108,167 108,177.206 108.818,185.136 113,193.5 113,193.5 115,208.5 115,208.5 116.042,210.584 117,211.408 117,214 117,214 117,215 117,215 117,215 119,218 119,218 119,218 119,219 119,219 119,219 120,220 120,220 120,220 121,222 121,222 121,222 123,224 123,224 123,224 123,225 123,225 123,225 127,229 127,229  Z"/>

<path  fill="#98D5F9" stroke-width="0" stroke="#98D5F9" d = " M329 229 L322,234 C310.753,234 301.628,236.064 291.5,231 280.84,225.67 286.345,210.423 271.5,203 271.5,203 267,200 267,200 267,200 265,198 265,198 265,198 264,182.5 264,182.5 264,181.222 264.665,177 263,177 263,177 263,176 263,176 263,176 263,171 263,171 263,171 262,170 262,170 262,170 261,162 261,162 261,157.187 257.527,147.445 260,142.5 261.897,138.705 265,131.277 265,127 265,127 268,123 268,123 268,123 269,122 269,122 269,117.844 296.669,117.085 300.5,119 300.5,119 318.5,125 318.5,125 333.571,132.536 348,150.092 348,168 348,185.219 341,195.638 341,210 339.362,210 339,213.576 339,215 339,215 339,216 339,216 339,216 338,217 338,217 338,217 337,218 337,218 337,218 337,219 337,219 337,219 337,220 337,220 337,220 336,221 336,221 336,221 335,222 335,222 335,222 335,223 335,223 335,223 334,224 334,224 334,224 333,225 333,225 333,225 332,227 332,227 332,227 331,228 331,228 331,228 329,229 329,229  Z"/>

<path  fill="#AAA8A9" stroke-width="0" stroke="#AAA8A9" d = " M269 122 L268,123 C268,123 269,122 269,122  Z"/>

<path  fill="#188064" stroke-width="0" stroke="#188064" d = " M105 164 L106,164 C106,161.46 107.064,151 110,151 110,151 111,149 111,149 111,149 112,147 112,147 112,147 113,145 113,145 113,143.762 113.423,142 115,142 115,140.762 115.423,139 117,139 117,134.175 129,126.491 129,125 129,125 129,123 129,123 129,123 120.5,131 120.5,131 111.747,139.753 105,151.429 105,164  Z"/>

<path  fill="#AAA8A9" stroke-width="0" stroke="#AAA8A9" d = " M191 127 C198.28,127 203.402,136 209,136 209,136 205,132.5 205,132.5 202.508,130.008 192.485,123 189,123 189,123 191,127 191,127  Z"/>

<path  fill="#AAA8A9" stroke-width="0" stroke="#AAA8A9" d = " M261 127 L265,127 C265,127 268,123 268,123 266.428,123 261,125.052 261,127  Z"/>

<path  fill="#188064" stroke-width="0" stroke="#188064" d = " M350 165 L351,165 C351,165 351,154.5 351,154.5 347.581,147.663 341.749,134.124 335.5,131 333.498,129.999 330.452,123 327,123 327,123 327,124 327,124 327,124 339,136.5 339,136.5 343.886,146.272 350,153.041 350,165  Z"/>

<path  fill="#A8AAAA" stroke-width="0" stroke="#A8AAAA" d = " M198 158 L196,161 C196,153.822 198.057,141.614 195,135.5 193.636,132.772 191,130.231 191,127 198.28,127 203.402,136 209,136 209,144.99 199,150.48 199,157 199,157 198,158 198,158  Z"/>

<path  fill="#AAA8A9" stroke-width="0" stroke="#AAA8A9" d = " M261 127 C259.762,127 258,127.423 258,129 259.238,129 261,128.577 261,127  Z"/>

<path  fill="#A8AAAA" stroke-width="0" stroke="#A8AAAA" d = " M260 161 L261,162 C261,157.187 257.527,147.445 260,142.5 261.897,138.705 265,131.277 265,127 265,127 261,127 261,127 261,128.577 259.238,129 258,129 258,130.577 256.238,131 255,131 255,132.577 253.238,133 252,133 252,134.577 250.238,135 249,135 249,135 248,136 248,136 248,136 247,137 247,137 247,144.873 259,152.826 259,159 259,159 259,160 259,160 259,160 260,161 260,161  Z"/>

<path  fill="#AAA8A9" stroke-width="0" stroke="#AAA8A9" d = " M258 129 C256.762,129 255,129.423 255,131 256.238,131 258,130.577 258,129  Z"/>

<path  fill="#AAA8A9" stroke-width="0" stroke="#AAA8A9" d = " M255 131 C253.762,131 252,131.423 252,133 253.238,133 255,132.577 255,131  Z"/>

<path  fill="#AAA8A9" stroke-width="0" stroke="#AAA8A9" d = " M252 133 C250.762,133 249,133.423 249,135 250.238,135 252,134.577 252,133  Z"/>

<path  fill="#97D6F9" stroke-width="0" stroke="#97D6F9" d = " M247 136 L248,136 C248,136 248,135 248,135 248,135 247,136 247,136  Z"/>

<path  fill="#AAA8A9" stroke-width="0" stroke="#AAA8A9" d = " M249 135 L248,136 C248,136 248,135 248,135 248,135 249,135 249,135  Z"/>

<path  fill="#97D6F9" stroke-width="0" stroke="#97D6F9" d = " M199 157 C205.491,157 224.619,139.559 231.5,143 238.711,146.606 245.408,150.454 252.5,154 L259,159 C259,152.826 247,144.873 247,137 247,137 247,136 247,136 243.124,136 236.095,144.298 231.5,142 231.5,142 228.5,139 228.5,139 227.111,138.306 225.283,143.391 222.5,142 220.869,141.185 209.921,136 209,136 209,144.99 199,150.48 199,157  Z"/>

<path  fill="#AAA8A9" stroke-width="0" stroke="#AAA8A9" d = " M248 136 L247,137 C247,137 247,136 247,136 247,136 248,136 248,136  Z"/>

<path  fill="#1A7E62" stroke-width="0" stroke="#1A7E62" d = " M61 174 L56,175 C56,163.337 57,150.935 57,139 57,139 62,140 62,140 62,140 62,141 62,141 62,151.054 61,162.319 61,173 61,173 61,174 61,174  Z"/>

<path  fill="#C9C9CA" stroke-width="0" stroke="#C9C9CA" d = " M117 139 C115.423,139 115,140.762 115,142 116.577,142 117,140.238 117,139  Z"/>

<path  fill="#1A7E62" stroke-width="0" stroke="#1A7E62" d = " M395 173 L400,175 C400,168.907 404.081,155.662 401,149.5 399.582,146.663 399,142.331 399,139 399,139 394,141 394,141 394,143.805 394.693,150.886 396,153.5 396,153.5 395,173 395,173  Z"/>

<path  fill="#1B8063" stroke-width="0" stroke="#1B8063" d = " M70 171 C67.2452,171 64.4468,173 61,173 61,162.319 62,151.054 62,141 65.9482,141 68.6036,145 72,145 72,153.111 70,161.993 70,171  Z"/>

<path  fill="#1B8063" stroke-width="0" stroke="#1B8063" d = " M387 171 C387,172.434 393.448,173 395,173 395,173 396,153.5 396,153.5 394.693,150.886 394,143.805 394,141 394,141 385,144 385,144 385,153.28 387,161.387 387,171  Z"/>

<path  fill="#C9C9CA" stroke-width="0" stroke="#C9C9CA" d = " M115 142 C113.423,142 113,143.762 113,145 114.577,145 115,143.238 115,142  Z"/>

<path  fill="#90CAED" stroke-width="0" stroke="#90CAED" d = " M221 209 L218.5,213 C216.688,213.906 213,211.943 213,210 213,208.741 217.356,206.212 216,203.5 214.771,201.042 215.206,197.913 214,195.5 214,195.5 197.5,175 197.5,175 195.384,173.942 194.602,177 193,177 193,177 193,175 193,175 194.473,175 194,173.048 194,172 194,172 195,163 195,163 195,163 196,162 196,162 196,162 196,161 196,161 196,161 198,158 198,158 198,158 199,157 199,157 205.491,157 224.619,139.559 231.5,143 238.711,146.606 245.408,150.454 252.5,154 252.5,154 259,159 259,159 259,159 259,160 259,160 259,160 260,161 260,161 260,161 261,162 261,162 261,162 262,170 262,170 262,170 263,171 263,171 263,171 263,176 263,176 263,176 259.5,175 259.5,175 252.079,178.71 244.552,192.397 241,199.5 239.202,203.095 243,209.14 243,210 243,211.943 239.312,213.906 237.5,213 237.5,213 235,208 235,208 235,196.759 231,187.043 231,176 231,176 228.5,151 228.5,151 228.5,151 227,156 227,156 227,156 226,174 226,174 224.527,174 225,175.952 225,177 225,188.331 221,197.771 221,209  Z"/>

<path  fill="#187C63" stroke-width="0" stroke="#187C63" d = " M386 171 L387,171 C387,161.387 385,153.28 385,144 385,144 378,146 378,146 378,146 378,147 378,147 378,147 381,170 381,170 381,170 386,171 386,171  Z"/>

<path  fill="#187C63" stroke-width="0" stroke="#187C63" d = " M76 170 C74.4363,170 72.1236,171 70,171 70,161.993 72,153.111 72,145 74.7653,145 77.1645,147 79,147 79,147 77,152.5 77,152.5 77,152.5 76,170 76,170  Z"/>

<path  fill="#C9C9CA" stroke-width="0" stroke="#C9C9CA" d = " M113 145 L112,147 C112,147 113,145 113,145  Z"/>

<path  fill="#1C8063" stroke-width="0" stroke="#1C8063" d = " M89 167 C84.33,167 80.332,170 76,170 76,170 77,152.5 77,152.5 77,152.5 79,147 79,147 83.3747,147 89,148.902 89,154 89,154 89,163 89,163 89,163 89,166 89,166 89,166 89,167 89,167  Z"/>

<path  fill="#C9C9CA" stroke-width="0" stroke="#C9C9CA" d = " M112 147 L111,149 C111,149 112,147 112,147  Z"/>

<path  fill="#1C8063" stroke-width="0" stroke="#1C8063" d = " M367 167 C372.264,167 376.167,170 381,170 381,170 378,147 378,147 373.114,147 370.262,151 367,151 367,151 367,156 367,156 367,156 367,157 367,157 367,157 367,163 367,163 367,163 367,164 367,164 367,164 367,166 367,166 367,166 367,167 367,167  Z"/>

<path  fill="#C9C9CA" stroke-width="0" stroke="#C9C9CA" d = " M111 149 L110,151 C110,151 111,149 111,149  Z"/>

<path  fill="#C9C9CA" stroke-width="0" stroke="#C9C9CA" d = " M106 164 L106,166 C108.064,166 106.426,162.647 107,161.5 107,161.5 110,151 110,151 107.064,151 106,161.46 106,164  Z"/>

<path  fill="#97D6F9" stroke-width="0" stroke="#97D6F9" d = " M226 174 L228.5,171 L231,176 C231,176 228.5,151 228.5,151 228.5,151 227,156 227,156 227,156 226,174 226,174  Z"/>

<path  fill="#197D63" stroke-width="0" stroke="#197D63" d = " M90 154 C90,155.574 90.751,163 89,163 89,163 89,154 89,154 89,154 90,154 90,154  Z"/>

<path  fill="#197D63" stroke-width="0" stroke="#197D63" d = " M367 156 C365.814,156 365.814,157 367,157 367,157 367,156 367,156  Z"/>

<path  fill="#97D6F9" stroke-width="0" stroke="#97D6F9" d = " M199 157 L198,158 C198,158 199,157 199,157  Z"/>

<path  fill="#97D6F9" stroke-width="0" stroke="#97D6F9" d = " M259 160 L260,161 C260,161 259,160 259,160  Z"/>

<path  fill="#A8AAAA" stroke-width="0" stroke="#A8AAAA" d = " M196 162 L195,163 C195,163 196,162 196,162  Z"/>

<path  fill="#197D63" stroke-width="0" stroke="#197D63" d = " M367 163 C365.814,163 365.814,164 367,164 367,164 367,163 367,163  Z"/>

<path  fill="#019C74" stroke-width="0" stroke="#019C74" d = " M105 179 L106,179 C106,179 107,178 107,178 107,178 106,167 106,167 106,167 106,166 106,166 106,166 106,164 106,164 106,164 105,164 105,164 105,164 105,165 105,165 105,165 105,179 105,179  Z"/>

<path  fill="#009B74" stroke-width="0" stroke="#009B74" d = " M105 179 C99.9058,179 95.3666,184 90,184 90,179.081 89,172.587 89,167 89,167 90,166 90,166 90,166 105,165 105,165 105,165 105,179 105,179  Z"/>

<path  fill="#019C74" stroke-width="0" stroke="#019C74" d = " M349 178 L351,179 C351,179 352,165 352,165 352,165 351,165 351,165 351,165 350,165 350,165 350,165 350,167 350,167 350,167 349,178 349,178  Z"/>

<path  fill="#009B74" stroke-width="0" stroke="#009B74" d = " M351 179 C356.627,179 360.932,184 367,184 367,184 367,167 367,167 367,167 367,166 367,166 367,166 352,165 352,165 352,165 351,179 351,179  Z"/>

<path  fill="#197D63" stroke-width="0" stroke="#197D63" d = " M90 166 L89,167 C89,167 89,166 89,166 89,166 90,166 90,166  Z"/>

<path  fill="#019C75" stroke-width="0" stroke="#019C75" d = " M90 185 C84.9571,185 81.638,190 77,190 77,187.877 76.0004,182.501 75,180.5 75,180.5 76,170 76,170 80.332,170 84.33,167 89,167 89,172.587 90,179.081 90,184 90,184 90,185 90,185  Z"/>

<path  fill="#C8CBCC" stroke-width="0" stroke="#C8CBCC" d = " M115 211 L117,214 C117,211.408 116.042,210.584 115,208.5 115,208.5 113,193.5 113,193.5 108.818,185.136 108,177.206 108,167 108,167 106,167 106,167 106,167 107,178 107,178 107,178 109,189 109,189 109,189 111,199 111,199 112.663,199 113,204.407 113,206 114.014,206 115,209.959 115,211  Z"/>

<path  fill="#C8CBCC" stroke-width="0" stroke="#C8CBCC" d = " M341 210 L342,210 C342,210 343,206 343,206 343,204.576 343.362,201 345,201 345,201 345,199 345,199 345,197.576 345.362,194 347,194 347,194 347,193 347,193 347,193 347,189 347,189 347,185.795 349,182.076 349,178 349,178 350,167 350,167 350,167 348,168 348,168 348,185.219 341,195.638 341,210  Z"/>

<path  fill="#019C75" stroke-width="0" stroke="#019C75" d = " M367 185 C372.281,185 375.089,190 380,190 380,183.866 381,176.734 381,170 376.167,170 372.264,167 367,167 367,167 367,184 367,184 367,184 367,185 367,185  Z"/>

<path  fill="#009C74" stroke-width="0" stroke="#009C74" d = " M77 190 L75,191 C75,188.973 70,176.664 70,171 72.1236,171 74.4363,170 76,170 76,170 75,180.5 75,180.5 76.0004,182.501 77,187.877 77,190  Z"/>

<path  fill="#A8AAAA" stroke-width="0" stroke="#A8AAAA" d = " M262 170 L263,171 C263,171 262,170 262,170  Z"/>

<path  fill="#009C74" stroke-width="0" stroke="#009C74" d = " M380 190 L382,191 C382,184.669 386,178.223 386,171 386,171 381,170 381,170 381,176.734 380,183.866 380,190  Z"/>

<path  fill="#009B75" stroke-width="0" stroke="#009B75" d = " M66 195 L67,195 C67,192.24 72.2428,191 75,191 75,188.973 70,176.664 70,171 67.2452,171 64.4468,173 61,173 61,173 61,174 61,174 61,174 66,195 66,195  Z"/>

<path  fill="#96A7D3" stroke-width="0" stroke="#96A7D3" d = " M220 233 L236,233 C236,224.582 235,215.828 235,208 235,196.759 231,187.043 231,176 231,176 228.5,171 228.5,171 228.5,171 226,174 226,174 226,175.048 226.473,177 225,177 225,188.331 221,197.771 221,209 221,209 220,233 220,233  Z"/>

<path  fill="#009B75" stroke-width="0" stroke="#009B75" d = " M382 191 C383.829,191 390,192.371 390,194 391.951,194 390.477,191.546 391,190.5 393.448,185.604 395,178.804 395,173 393.448,173 387,172.434 387,171 387,171 386,171 386,171 386,178.223 382,184.669 382,191  Z"/>

<path  fill="#A8AAAA" stroke-width="0" stroke="#A8AAAA" d = " M194 172 C192.527,172 193,173.952 193,175 194.473,175 194,173.048 194,172  Z"/>

<path  fill="#009C75" stroke-width="0" stroke="#009C75" d = " M390 195 L394,196 C395.8,196 394.517,192.983 395.5,192 395.5,192 400,175 400,175 400,175 395,173 395,173 395,178.804 393.448,185.604 391,190.5 390.477,191.546 391.951,194 390,194 390,194 390,195 390,195  Z"/>

<path  fill="#009C75" stroke-width="0" stroke="#009C75" d = " M66 195 L62,196 C62,196 56,175 56,175 56,175 61,174 61,174 61,174 66,195 66,195  Z"/>

<path  fill="#97D6F9" stroke-width="0" stroke="#97D6F9" d = " M226 174 C224.527,174 225,175.952 225,177 226.473,177 226,175.048 226,174  Z"/>

<path  fill="#8FCBED" stroke-width="0" stroke="#8FCBED" d = " M203 204 C206.19,204 208.985,210 213,210 213,208.741 217.356,206.212 216,203.5 214.771,201.042 215.206,197.913 214,195.5 214,195.5 197.5,175 197.5,175 195.384,173.942 194.602,177 193,177 193,177 193,183 193,183 193,188.263 195,192.23 195,197 195,197 197,199 197,199 197,199 198,199 198,199 198,199 200,201 200,201 200,201 203,204 203,204  Z"/>

<path  fill="#8FCBED" stroke-width="0" stroke="#8FCBED" d = " M253 204 C249.629,204 247.466,210 243,210 243,209.14 239.202,203.095 241,199.5 244.552,192.397 252.079,178.71 259.5,175 259.5,175 263,176 263,176 263,176 263,177 263,177 263,183.102 262,189.479 262,195 262,195 259,199 259,199 259,199 258,199 258,199 258,199 257,200 257,200 257,200 255,202 255,202 255,202 254,203 254,203 254,203 253,204 253,204  Z"/>

<path  fill="#A8AAAA" stroke-width="0" stroke="#A8AAAA" d = " M263 199 C263,204.662 265,206.85 265,200 265,200 265,198 265,198 265,198 264,182.5 264,182.5 264,181.222 264.665,177 263,177 263,183.102 262,189.479 262,195 262,195 263,199 263,199  Z"/>

<path  fill="#1F9766" stroke-width="0" stroke="#1F9766" d = " M108 189 L109,189 C109,189 107,178 107,178 107,178 106,179 106,179 106,179 107,188 107,188 107,188 108,189 108,189  Z"/>

<path  fill="#1F9766" stroke-width="0" stroke="#1F9766" d = " M347 189 L349,189 C349,189 351,179 351,179 351,179 349,178 349,178 349,182.076 347,185.795 347,189  Z"/>

<path  fill="#209666" stroke-width="0" stroke="#209666" d = " M101 201 L95,203 C95,198.13 90,191.88 90,185 90,185 90,184 90,184 95.3666,184 99.9058,179 105,179 105,179 106,179 106,179 106,179 107,188 107,188 97.1241,188 101,193.628 101,201  Z"/>

<path  fill="#209666" stroke-width="0" stroke="#209666" d = " M362 202 L361,203 C361,203 355,201 355,201 355,196.153 358.143,189.822 352.5,187 352.5,187 349,189 349,189 349,189 351,179 351,179 356.627,179 360.932,184 367,184 367,184 367,185 367,185 367,191.012 362,196.622 362,202  Z"/>

<path  fill="#A8AAAA" stroke-width="0" stroke="#A8AAAA" d = " M194 199 C194,203.816 191,207.404 191,200 191,200 191,199 191,199 191,194.956 192,191.033 192,187.5 192,186.31 191.386,183 193,183 193,188.263 195,192.23 195,197 195,197 194,199 194,199  Z"/>

<path  fill="#209665" stroke-width="0" stroke="#209665" d = " M83 205 L84,205 C87.4514,205 91.0217,203 95,203 95,198.13 90,191.88 90,185 84.9571,185 81.638,190 77,190 77,195.501 83,202.993 83,205  Z"/>

<path  fill="#209665" stroke-width="0" stroke="#209665" d = " M373 205 L374,205 C374,201.603 380,194.469 380,190 375.089,190 372.281,185 367,185 367,191.012 362,196.622 362,202 362,202.745 371.679,205 373,205  Z"/>

<path  fill="#8ADA86" stroke-width="0" stroke="#8ADA86" d = " M111 199 C111,208.947 101,209.826 101,201 101,193.628 97.1241,188 107,188 107,188 108,189 108,189 108,190.465 109.627,199 111,199  Z"/>

<path  fill="#8ADA86" stroke-width="0" stroke="#8ADA86" d = " M345 201 C345,208.614 355,209.002 355,201 355,196.153 358.143,189.822 352.5,187 352.5,187 349,189 349,189 349,189 347,193 347,193 347,193 347,194 347,194 347,194 346,199 346,199 346,199 345,201 345,201  Z"/>

<path  fill="#209666" stroke-width="0" stroke="#209666" d = " M109 189 L111,199 C109.627,199 108,190.465 108,189 108,189 109,189 109,189  Z"/>

<path  fill="#209666" stroke-width="0" stroke="#209666" d = " M349 189 L347,193 C347,193 347,189 347,189 347,189 349,189 349,189  Z"/>

<path  fill="#209765" stroke-width="0" stroke="#209765" d = " M71 207 L72,207 C75.3782,207 78.9215,205 83,205 83,202.993 77,195.501 77,190 77,190 75,191 75,191 72.2428,191 67,192.24 67,195 67,195 67,198 67,198 67,198 68,199 68,199 68,199 68,200 68,200 68,200 69,201 69,201 69,201 69,203 69,203 69,203 71,206 71,206 71,206 71,207 71,207  Z"/>

<path  fill="#209765" stroke-width="0" stroke="#209765" d = " M385 206 L385,207 C381.305,207 378.135,205 374,205 374,201.603 380,194.469 380,190 380,190 382,191 382,191 383.829,191 390,192.371 390,194 390,194 390,195 390,195 390,195 389,199 389,199 389,199 388,200 388,200 388,200 388,201 388,201 388,201 387,202 387,202 387,202 387,204 387,204 387,204 385,206 385,206  Z"/>

<path  fill="#209666" stroke-width="0" stroke="#209666" d = " M345 199 L346,199 C346,199 347,194 347,194 345.362,194 345,197.576 345,199  Z"/>

<path  fill="#219765" stroke-width="0" stroke="#219765" d = " M76 218 L71,219 C71,216.132 62,202.139 62,196 62,196 66,195 66,195 66,195 67,195 67,195 67,195 67,198 67,198 67,198 68,199 68,199 68,199 68,200 68,200 68,200 69,201 69,201 69,201 69,203 69,203 69,204.238 69.4226,206 71,206 71,206 71,207 71,207 71,207 76,218 76,218  Z"/>

<path  fill="#97D6F9" stroke-width="0" stroke="#97D6F9" d = " M259 199 L263,199 C263,199 262,195 262,195 262,195 259,199 259,199  Z"/>

<path  fill="#219765" stroke-width="0" stroke="#219765" d = " M381 218 L385,219 C386.984,219 394,199.3 394,196 394,196 390,195 390,195 390,195 389,199 389,199 389,199 388,200 388,200 388,200 388,201 388,201 388,201 387,202 387,202 387,202 387,204 387,204 387,205.747 386.747,206 385,206 385,206 385,207 385,207 385,207 385,208 385,208 385,210.003 385.293,211 383,211 383,212.465 383.109,215 381,215 381,215 380,216 380,216 380,216 380,217 380,217 380,217 381,218 381,218  Z"/>

<path  fill="#97D6F9" stroke-width="0" stroke="#97D6F9" d = " M194 199 L197,199 C197,199 195,197 195,197 195,197 194,199 194,199  Z"/>

<path  fill="#209764" stroke-width="0" stroke="#209764" d = " M67 198 L68,199 C68,199 67,198 67,198  Z"/>

<path  fill="#97D6F9" stroke-width="0" stroke="#97D6F9" d = " M265 200 L267,200 C267,200 265,198 265,198 265,198 265,200 265,200  Z"/>

<path  fill="#1F9866" stroke-width="0" stroke="#1F9866" d = " M107 209 L108,209 C108,209 113,206 113,206 113,204.407 112.663,199 111,199 111,208.947 101,209.826 101,201 101,201 95,203 95,203 95,203 99,212 99,212 99,212 107,209 107,209  Z"/>

<path  fill="#97D6F9" stroke-width="0" stroke="#97D6F9" d = " M189 200 L191,200 C191,200 191,199 191,199 191,199 189,200 189,200  Z"/>

<path  fill-rule="evenodd" fill="#80CDF8" stroke-width="0" stroke="#80CDF8" d = " M183 209 L178,215.5 C175.044,221.412 182.019,225.24 186.5,223 194.326,219.087 192.642,209 183,209  M134 237 C134,243.092 138,248.601 138,254 138,256.129 141.181,258.341 142.5,259 142.5,259 145.5,263 145.5,263 145.5,263 152.5,263 152.5,263 162.347,267.924 176.576,261.962 184.5,258 185.223,257.638 200.119,240.262 201,238.5 201.728,237.044 202.87,231 205,231 205,229.952 204.527,228 206,228 206,223.859 210.288,217.077 208,212.5 208,212.5 203,204 203,204 203,204 200,201 200,201 200,201 198,199 198,199 198,199 197,199 197,199 197,199 194,199 194,199 194,203.816 191,207.404 191,200 191,200 189,200 189,200 189,200 185.5,202 185.5,202 185.5,202 175,211.5 175,211.5 172.971,215.558 173.019,220.462 171,224.5 164.136,238.228 147.429,234 135,234 135,234 134,237 134,237  Z"/>

<path  fill="#97D6F9" stroke-width="0" stroke="#97D6F9" d = " M198 199 L200,201 C200,201 198,199 198,199  Z"/>

<path  fill="#97D6F9" stroke-width="0" stroke="#97D6F9" d = " M258 199 L257,200 C257,200 258,199 258,199  Z"/>

<path  fill-rule="evenodd" fill="#80CDF8" stroke-width="0" stroke="#80CDF8" d = " M267 209 L265,215.5 C275.685,236.869 288.033,209 267,209  M323 236 C323,242.462 319,247.573 319,254 319,254 310.5,263 310.5,263 307.143,264.679 284.892,264.696 281.5,263 270.829,257.665 264.759,248.259 256.5,240 254.76,238.26 253.554,230 251,230 251,230 251,229 251,229 251,229 250,227 250,227 250,227 248,214.5 248,214.5 249.231,212.039 253,206.623 253,204 253,204 254,203 254,203 254,203 255,202 255,202 255,202 257,200 257,200 257,200 258,199 258,199 258,199 259,199 259,199 259,199 263,199 263,199 263,204.662 265,206.85 265,200 265,200 267,200 267,200 267,200 271.5,203 271.5,203 286.345,210.423 280.84,225.67 291.5,231 301.628,236.064 310.753,234 322,234 322,234 323,236 323,236  Z"/>

<path  fill="#1F9866" stroke-width="0" stroke="#1F9866" d = " M346 199 L345,201 C345,201 345,199 345,199 345,199 346,199 346,199  Z"/>

<path  fill="#209764" stroke-width="0" stroke="#209764" d = " M389 199 L388,200 C388,200 389,199 389,199  Z"/>

<path  fill="#209764" stroke-width="0" stroke="#209764" d = " M68 200 L69,201 C69,201 68,200 68,200  Z"/>

<path  fill="#1F9866" stroke-width="0" stroke="#1F9866" d = " M349 209 C351.885,209 353.697,211 357,211 357,211 361,203 361,203 361,203 355,201 355,201 355,209.002 345,208.614 345,201 343.362,201 343,204.576 343,206 343,206 349,209 349,209  Z"/>

<path  fill="#209764" stroke-width="0" stroke="#209764" d = " M388 201 L387,202 C387,202 388,201 388,201  Z"/>

<path  fill="#97D6F9" stroke-width="0" stroke="#97D6F9" d = " M255 202 L254,203 C254,203 255,202 255,202  Z"/>

<path  fill="#1F9865" stroke-width="0" stroke="#1F9865" d = " M363 214 L366,214 C366,214 373,205 373,205 371.679,205 362,202.745 362,202 362,202 361,203 361,203 361,203 357,211 357,211 357,211 363,214 363,214  Z"/>

<path  fill="#209764" stroke-width="0" stroke="#209764" d = " M69 203 L71,206 C69.4226,206 69,204.238 69,203  Z"/>

<path  fill="#1F9865" stroke-width="0" stroke="#1F9865" d = " M90 214 L93,214 C93,213.087 98.0143,212 99,212 99,212 95,203 95,203 91.0217,203 87.4514,205 84,205 84,205 90,214 90,214  Z"/>

<path  fill="#97D6F9" stroke-width="0" stroke="#97D6F9" d = " M254 203 L253,204 C253,204 254,203 254,203  Z"/>

<path  fill="#97D6F9" stroke-width="0" stroke="#97D6F9" d = " M212 253 L211,254 C207.459,254 205,250.402 205,247 205,247 205,231 205,231 206.473,231 206,229.048 206,228 206,223.859 210.288,217.077 208,212.5 208,212.5 203,204 203,204 206.19,204 208.985,210 213,210 213,211.943 216.688,213.906 218.5,213 218.5,213 221,209 221,209 221,209 220,233 220,233 220,235.132 218.139,247 216,247 216,247 215,249 215,249 213.423,249 213,250.762 213,252 213,252 212,253 212,253  Z"/>

<path  fill="#97D6F9" stroke-width="0" stroke="#97D6F9" d = " M251 243 C251,244.901 251.134,256.317 246.5,254 L240,247 C240,242.771 236,237.603 236,233 236,224.582 235,215.828 235,208 235,208 237.5,213 237.5,213 239.312,213.906 243,211.943 243,210 247.466,210 249.629,204 253,204 253,206.623 249.231,212.039 248,214.5 248,214.5 250,227 250,227 250,227 251,229 251,229 251,229 251,230 251,230 251,230 251,243 251,243  Z"/>

<path  fill="#209764" stroke-width="0" stroke="#209764" d = " M387 204 L385,206 C386.747,206 387,205.747 387,204  Z"/>

<path  fill="#219764" stroke-width="0" stroke="#219764" d = " M90 214 C90,214.672 78.5567,218 77,218 77,213.614 72,211.122 72,207 75.3782,207 78.9215,205 83,205 83,205 84,205 84,205 84,205 90,214 90,214  Z"/>

<path  fill="#219764" stroke-width="0" stroke="#219764" d = " M379 217 L380,217 C380,217 380,216 380,216 380,216 381,215 381,215 381,215 383,211 383,211 383,209.762 383.423,208 385,208 385,208 385,207 385,207 381.305,207 378.135,205 374,205 374,205 373,205 373,205 373,205 366,214 366,214 370.277,214 374.115,217 379,217  Z"/>

<path  fill="#8AD987" stroke-width="0" stroke="#8AD987" d = " M108 209 C110.765,209 113.165,211 115,211 115,209.959 114.014,206 113,206 113,206 108,209 108,209  Z"/>

<path  fill="#8AD987" stroke-width="0" stroke="#8AD987" d = " M349 209 C346.591,209 343.819,210 342,210 342,210 343,206 343,206 343,206 349,209 349,209  Z"/>

<path  fill="#209864" stroke-width="0" stroke="#209864" d = " M76 218 L77,218 C77,213.614 72,211.122 72,207 72,207 71,207 71,207 71,207 76,218 76,218  Z"/>

<path  fill="#209864" stroke-width="0" stroke="#209864" d = " M385 208 C383.423,208 383,209.762 383,211 385.293,211 385,210.003 385,208  Z"/>

<path  fill="#99D2BD" stroke-width="0" stroke="#99D2BD" d = " M93 214 C99.6663,214 101.426,221 103,221 103,218.393 101.52,216.46 103,213.5 103,213.5 107,210 107,210 107,210 107,209 107,209 107,209 99,212 99,212 98.0143,212 93,213.087 93,214  Z"/>

<path  fill="#8AD987" stroke-width="0" stroke="#8AD987" d = " M108 209 L107,210 C107,210 107,209 107,209 107,209 108,209 108,209  Z"/>

<path  fill="#A0EE9C" stroke-width="0" stroke="#A0EE9C" d = " M120 232 L123,232 C123,232 125,231 125,231 125,228.482 123,226.714 123,225 123,225 123,224 123,224 123,224 121,222 121,222 121,222 120,220 120,220 120,220 119,219 119,219 119,219 119,218 119,218 117.423,218 117,216.238 117,215 117,215 117,214 117,214 117,214 115,211 115,211 113.165,211 110.765,209 108,209 108,209 107,210 107,210 107,210 103,213.5 103,213.5 101.52,216.46 103,218.393 103,221 103,221 103,222 103,222 103,222 104,223 104,223 104,223 105,224 105,224 105,224 106,225 106,225 106,225 108,226 108,226 108,226 109,227 109,227 109,227 110,227 110,227 110,227 114,230 114,230 114,230 115,230 115,230 115,230 116,231 116,231 116,231 117,231 117,231 117,231 119,232 119,232 119,232 120,232 120,232  Z"/>

<path  fill="#CBCBC7" stroke-width="0" stroke="#CBCBC7" d = " M183 209 L178,215.5 C175.044,221.412 182.019,225.24 186.5,223 194.326,219.087 192.642,209 183,209  Z"/>

<path  fill="#CBCBC7" stroke-width="0" stroke="#CBCBC7" d = " M267 209 L265,215.5 C275.685,236.869 288.033,209 267,209  Z"/>

<path  fill="#A0EE9C" stroke-width="0" stroke="#A0EE9C" d = " M337 232 L338,232 C338,232 339,231 339,231 339,231 342,230 342,230 342,230 343,229 343,229 343,229 344,229 344,229 344,229 345,228 345,228 345,228 347,227 347,227 347,227 349,226 349,226 349,226 350,225 350,225 350,225 351,224 351,224 351,224 352,223 352,223 352,223 353,222 353,222 353,222 354,221 354,221 354,221 354,220 354,220 354,214.597 349,211.127 349,209 346.591,209 343.819,210 342,210 342,210 341,211 341,211 341,211 339,215 339,215 339,215 339,216 339,216 339,216 338,217 338,217 338,217 338,218 338,218 338,218 337,219 337,219 337,219 337,220 337,220 337,220 336,221 336,221 336,221 335,222 335,222 335,222 335,223 335,223 335,223 334,224 334,224 334,224 333,225 333,225 333,225 332,227 332,227 332,227 331,228 331,228 331,228 333,232 333,232 333,232 337,232 337,232  Z"/>

<path  fill="#99D2BD" stroke-width="0" stroke="#99D2BD" d = " M363 214 C357.234,214 355.084,220 354,220 354,214.597 349,211.127 349,209 351.885,209 353.697,211 357,211 357,211 363,214 363,214  Z"/>

<path  fill="#C8CBCC" stroke-width="0" stroke="#C8CBCC" d = " M341 211 L339,215 C339,213.576 339.362,210 341,210 341,210 341,211 341,211  Z"/>

<path  fill="#8AD987" stroke-width="0" stroke="#8AD987" d = " M342 210 L341,211 C341,211 341,210 341,210 341,210 342,210 342,210  Z"/>

<path  fill="#209864" stroke-width="0" stroke="#209864" d = " M383 211 L381,215 C383.109,215 383,212.465 383,211  Z"/>

<path  fill="#6ACAB9" stroke-width="0" stroke="#6ACAB9" d = " M120 262 L122,262 C124.74,262 126.77,257 130,257 130,248.944 136.265,252.031 130,239.5 128.698,236.897 120,233.091 120,232 120,232 119,232 119,232 119,232 117,231 117,231 117,231 116,231 116,231 116,231 115,230 115,230 115,230 114,230 114,230 114,230 110,227 110,227 110,227 109,227 109,227 109,227 108,226 108,226 108,226 106,225 106,225 106,225 105,224 105,224 105,224 104,223 104,223 104,223 103,222 103,222 103,222 103,221 103,221 101.426,221 99.6663,214 93,214 93,214 90,214 90,214 90,214.672 78.5567,218 77,218 77,218 76,218 76,218 76,218 71,219 71,219 71,225.761 88.6138,250 96,250 97.423,250 99.5439,248.022 101.5,249 105.377,250.938 120,257.131 120,262  Z"/>

<path  fill="#6ACAB9" stroke-width="0" stroke="#6ACAB9" d = " M335 262 L337,262 C337,256.188 351.397,251.051 355.5,249 356.93,248.285 360,249.291 360,251 360,251 367.5,245 367.5,245 374.334,241.583 385,228.238 385,219 385,219 381,218 381,218 381,218 379,217 379,217 374.115,217 370.277,214 366,214 366,214 363,214 363,214 357.234,214 355.084,220 354,220 354,220 354,221 354,221 354,221 353,222 353,222 353,222 352,223 352,223 352,223 351,224 351,224 351,224 350,225 350,225 350,225 349,226 349,226 349,226 347,227 347,227 347,227 345,228 345,228 345,228 344,229 344,229 344,229 343,229 343,229 343,229 342,230 342,230 342,230 339,231 339,231 339,231 338,232 338,232 338,232 337,232 337,232 337,233.183 333.43,233.535 332.5,234 332.5,234 325,241.5 325,241.5 320.879,249.742 327,252.247 327,257 330.331,257 331.796,262 335,262  Z"/>

<path  fill="#C8CBCC" stroke-width="0" stroke="#C8CBCC" d = " M117 215 L119,218 C117.423,218 117,216.238 117,215  Z"/>

<path  fill="#209864" stroke-width="0" stroke="#209864" d = " M381 215 L380,216 C380,216 381,215 381,215  Z"/>

<path  fill="#C8CBCC" stroke-width="0" stroke="#C8CBCC" d = " M339 216 L338,217 C338,217 339,216 339,216  Z"/>

<path  fill="#C8CBCC" stroke-width="0" stroke="#C8CBCC" d = " M337 218 L338,218 C338,218 338,217 338,217 338,217 337,218 337,218  Z"/>

<path  fill="#209864" stroke-width="0" stroke="#209864" d = " M380 217 L381,218 C381,218 379,217 379,217 379,217 380,217 380,217  Z"/>

<path  fill="#8AD987" stroke-width="0" stroke="#8AD987" d = " M338 218 L337,219 C337,219 337,218 337,218 337,218 338,218 338,218  Z"/>

<path  fill="#8AD987" stroke-width="0" stroke="#8AD987" d = " M119 219 L120,220 C120,220 119,219 119,219  Z"/>

<path  fill="#8AD987" stroke-width="0" stroke="#8AD987" d = " M337 220 L336,221 C336,221 337,220 337,220  Z"/>

<path  fill="#8AD987" stroke-width="0" stroke="#8AD987" d = " M336 221 L335,222 C335,222 336,221 336,221  Z"/>

<path  fill="#99D2BD" stroke-width="0" stroke="#99D2BD" d = " M354 221 L353,222 C353,222 354,221 354,221  Z"/>

<path  fill="#99D2BD" stroke-width="0" stroke="#99D2BD" d = " M103 222 L104,223 C104,223 103,222 103,222  Z"/>

<path  fill="#8AD987" stroke-width="0" stroke="#8AD987" d = " M121 222 L123,224 C123,224 121,222 121,222  Z"/>

<path  fill="#8AD987" stroke-width="0" stroke="#8AD987" d = " M335 223 L334,224 C334,224 335,223 335,223  Z"/>

<path  fill="#99D2BD" stroke-width="0" stroke="#99D2BD" d = " M352 223 L351,224 C351,224 352,223 352,223  Z"/>

<path  fill="#99D2BD" stroke-width="0" stroke="#99D2BD" d = " M105 224 L106,225 C106,225 105,224 105,224  Z"/>

<path  fill="#8AD987" stroke-width="0" stroke="#8AD987" d = " M334 224 L333,225 C333,225 334,224 334,224  Z"/>

<path  fill="#8AD987" stroke-width="0" stroke="#8AD987" d = " M125 231 L127,231 C127,231 127,229 127,229 127,229 123,225 123,225 123,226.714 125,228.482 125,231  Z"/>

<path  fill="#8AD987" stroke-width="0" stroke="#8AD987" d = " M333 225 L332,227 C332,227 333,225 333,225  Z"/>

<path  fill="#99D2BD" stroke-width="0" stroke="#99D2BD" d = " M350 225 L349,226 C349,226 350,225 350,225  Z"/>

<path  fill="#99D2BD" stroke-width="0" stroke="#99D2BD" d = " M108 226 L109,227 C109,227 108,226 108,226  Z"/>

<path  fill="#99D2BD" stroke-width="0" stroke="#99D2BD" d = " M349 226 L347,227 C347,227 349,226 349,226  Z"/>

<path  fill="#99D2BD" stroke-width="0" stroke="#99D2BD" d = " M110 227 L114,230 C114,230 110,227 110,227  Z"/>

<path  fill="#A2B1D7" stroke-width="0" stroke="#A2B1D7" d = " M250 227 L251,229 C251,229 250,227 250,227  Z"/>

<path  fill="#8AD987" stroke-width="0" stroke="#8AD987" d = " M332 227 L331,228 C331,228 332,227 332,227  Z"/>

<path  fill="#99D2BD" stroke-width="0" stroke="#99D2BD" d = " M347 227 L345,228 C345,228 347,227 347,227  Z"/>

<path  fill="#A2B1D7" stroke-width="0" stroke="#A2B1D7" d = " M206 228 C204.527,228 205,229.952 205,231 206.473,231 206,229.048 206,228  Z"/>

<path  fill="#8AD987" stroke-width="0" stroke="#8AD987" d = " M329 231 L333,232 C333,232 331,228 331,228 331,228 329,229 329,229 329,229 329,231 329,231  Z"/>

<path  fill="#99D2BD" stroke-width="0" stroke="#99D2BD" d = " M345 228 L344,229 C344,229 345,228 345,228  Z"/>

<path  fill="#97D6F9" stroke-width="0" stroke="#97D6F9" d = " M135 234 L134,237 C131.042,237 130.334,231 127,231 127,231 127,229 127,229 127,229 135,234 135,234  Z"/>

<path  fill="#97D6F9" stroke-width="0" stroke="#97D6F9" d = " M322 234 L323,236 C323,236 329,231 329,231 329,231 329,229 329,229 329,229 322,234 322,234  Z"/>

<path  fill="#99D2BD" stroke-width="0" stroke="#99D2BD" d = " M343 229 L342,230 C342,230 343,229 343,229  Z"/>

<path  fill="#99D2BD" stroke-width="0" stroke="#99D2BD" d = " M115 230 L116,231 C116,231 115,230 115,230  Z"/>

<path  fill="#A2B1D7" stroke-width="0" stroke="#A2B1D7" d = " M264 271 L265,273 C280.443,273 312.441,281.617 321,264.5 322.334,261.832 325,260.224 325,257 325,257 319,254 319,254 319,254 310.5,263 310.5,263 307.143,264.679 284.892,264.696 281.5,263 270.829,257.665 264.759,248.259 256.5,240 254.76,238.26 253.554,230 251,230 251,230 251,243 251,243 251.208,243 254,252.153 254,253 254,253 259,265 259,265 259,265 264,271 264,271  Z"/>

<path  fill="#99D2BD" stroke-width="0" stroke="#99D2BD" d = " M117 231 L119,232 C119,232 117,231 117,231  Z"/>

<path  fill="#8AD987" stroke-width="0" stroke="#8AD987" d = " M125 231 L123,232 C123,232 125,231 125,231  Z"/>

<path  fill="#99D2BD" stroke-width="0" stroke="#99D2BD" d = " M130 257 L131,257 C131,257 138,254 138,254 138,248.601 134,243.092 134,237 131.042,237 130.334,231 127,231 127,231 125,231 125,231 125,231 123,232 123,232 123,232 120,232 120,232 120,233.091 128.698,236.897 130,239.5 136.265,252.031 130,248.944 130,257  Z"/>

<path  fill="#A2B1D7" stroke-width="0" stroke="#A2B1D7" d = " M193 270 C193,271.048 193.473,273 192,273 184.506,273 156.474,277.987 150.5,275 150.5,275 140.5,269 140.5,269 136.585,267.043 131,261.552 131,257 131,257 138,254 138,254 138,256.129 141.181,258.341 142.5,259 142.5,259 145.5,263 145.5,263 145.5,263 152.5,263 152.5,263 162.347,267.924 176.576,261.962 184.5,258 185.223,257.638 200.119,240.262 201,238.5 201.728,237.044 202.87,231 205,231 205,231 205,247 205,247 203.647,247 203,251.643 203,253 203,253 202,254 202,254 202,254 197,265 197,265 197,265 194,269 194,269 194,269 193,270 193,270  Z"/>

<path  fill="#99D2BD" stroke-width="0" stroke="#99D2BD" d = " M325 257 L327,257 C327,252.247 320.879,249.742 325,241.5 325,241.5 332.5,234 332.5,234 333.43,233.535 337,233.183 337,232 337,232 333,232 333,232 333,232 329,231 329,231 329,231 323,236 323,236 323,242.462 319,247.573 319,254 319,254 325,257 325,257  Z"/>

<path  fill="#99D2BD" stroke-width="0" stroke="#99D2BD" d = " M339 231 L338,232 C338,232 339,231 339,231  Z"/>

<path  fill="#96A6D3" stroke-width="0" stroke="#96A6D3" d = " M211 272 L209,273 C205.033,273 198,273.66 198,268 198,268 199,265 199,265 201.494,265 208,259.488 208,257 208,257 211,254 211,254 211,254 212,253 212,253 212,253 213,252 213,252 214.577,252 215,250.238 215,249 215,249 216,247 216,247 218.139,247 220,235.132 220,233 220,233 236,233 236,233 236,237.603 240,242.771 240,247 240,249.775 245.947,257 249,257 249,259.427 254.635,265 257,265 257,265 258,268 258,268 258,276.922 247.358,271 244,271 244,271 243,271 243,271 243,271 241,269 241,269 241,269 240,269 240,269 240,269 238,267 238,267 238,267 237,266 237,266 237,266 235,264 235,264 235,261.84 231.77,253 228.5,253 225.651,253 221,261.658 221,264 221,264 221,265 221,265 221,265 220,266 220,266 220,266 218,267 218,267 218,267 217,268 217,268 217,268 216,269 216,269 214.762,269 213,269.423 213,271 213,271 211,272 211,272  Z"/>

<path  fill="#E64438" stroke-width="0" stroke="#E64438" d = " M254 253 C251.399,253 249,254.04 249,257 245.947,257 240,249.775 240,247 240,247 246.5,254 246.5,254 251.134,256.317 251,244.901 251,243 251.208,243 254,252.153 254,253  Z"/>

<path  fill="#E64438" stroke-width="0" stroke="#E64438" d = " M211 254 L208,257 C206.461,257 205.813,253 203,253 203,251.643 203.647,247 205,247 205,250.402 207.459,254 211,254  Z"/>

<path  fill="#E64438" stroke-width="0" stroke="#E64438" d = " M216 247 L215,249 C215,249 216,247 216,247  Z"/>

<path  fill="#CAC8C7" stroke-width="0" stroke="#CAC8C7" d = " M119 266 L118,267 C115.481,267 113.741,264.241 112,262.5 108.841,259.341 96,253.99 96,250 97.423,250 99.5439,248.022 101.5,249 105.377,250.938 120,257.131 120,262 120,262 119,265 119,265 119,265 119,266 119,266  Z"/>

<path  fill="#E64438" stroke-width="0" stroke="#E64438" d = " M215 249 C213.423,249 213,250.762 213,252 214.577,252 215,250.238 215,249  Z"/>

<path  fill="#CAC8C7" stroke-width="0" stroke="#CAC8C7" d = " M337 262 C337,264.25 339,265.376 339,267 339,267 360,251 360,251 360,249.291 356.93,248.285 355.5,249 351.397,251.051 337,256.188 337,262  Z"/>

<path  fill="#E64438" stroke-width="0" stroke="#E64438" d = " M213 252 L212,253 C212,253 213,252 213,252  Z"/>

<path  fill="#E64438" stroke-width="0" stroke="#E64438" d = " M203 253 L202,254 C202,254 203,253 203,253  Z"/>

<path  fill="#F2473B" stroke-width="0" stroke="#F2473B" d = " M197 265 L199,265 C201.494,265 208,259.488 208,257 206.461,257 205.813,253 203,253 203,253 202,254 202,254 202,254 197,265 197,265  Z"/>

<path  fill="#E64438" stroke-width="0" stroke="#E64438" d = " M212 253 L211,254 C211,254 212,253 212,253  Z"/>

<path  fill="#FE5446" stroke-width="0" stroke="#FE5446" d = " M233 264 L235,264 C235,261.84 231.77,253 228.5,253 225.651,253 221,261.658 221,264 221,264 223,264 223,264 225.229,264 226.933,261 228.5,261 228.5,261 233,264 233,264  Z"/>

<path  fill="#F2473B" stroke-width="0" stroke="#F2473B" d = " M257 265 L259,265 C259,265 254,253 254,253 251.399,253 249,254.04 249,257 249,259.427 254.635,265 257,265  Z"/>

<path  fill="#7FCCF7" stroke-width="0" stroke="#7FCCF7" d = " M192 273 C192,274.149 196.516,274.508 197.5,275 199.662,276.081 199,279.005 199,281 199,290.942 188.99,291.755 182.5,295 182.5,295 175.5,295 175.5,295 160.49,302.505 136.934,299.367 129,283.5 126.707,278.914 121,275.476 121,270 121,267.745 121,267.255 121,265 121,265 122,262 122,262 124.74,262 126.77,257 130,257 130,257 131,257 131,257 131,261.552 136.585,267.043 140.5,269 140.5,269 150.5,275 150.5,275 156.474,277.987 184.506,273 192,273  Z"/>

<path  fill="#7FCCF7" stroke-width="0" stroke="#7FCCF7" d = " M265 273 C265,274.476 257,273.062 257,281 257,290.354 267.2,291.85 273.5,295 273.5,295 281.5,295 281.5,295 296.703,302.602 319.416,299.668 328,282.5 330.021,278.457 335,275.844 335,271 335,271 336,270 336,270 336,270 336,269 336,269 336,269 335,264 335,264 335,264 335,262 335,262 331.796,262 330.331,257 327,257 327,257 325,257 325,257 325,260.224 322.334,261.832 321,264.5 312.441,281.617 280.443,273 265,273  Z"/>

<path  fill="#99D2BD" stroke-width="0" stroke="#99D2BD" d = " M119 265 L121,265 C121,265 122,262 122,262 122,262 120,262 120,262 120,262 119,265 119,265  Z"/>

<path  fill="#99D2BD" stroke-width="0" stroke="#99D2BD" d = " M337 267 L339,267 C339,265.376 337,264.25 337,262 337,262 335,262 335,262 335,262 335,264 335,264 336.577,264 337,265.762 337,267  Z"/>

<path  fill="#E64438" stroke-width="0" stroke="#E64438" d = " M223 264 L221,265 C221,265 221,264 221,264 221,264 223,264 223,264  Z"/>

<path  fill="#E64438" stroke-width="0" stroke="#E64438" d = " M235 264 L237,266 C237,266 233,264 233,264 233,264 235,264 235,264  Z"/>

<path  fill="#97D6F9" stroke-width="0" stroke="#97D6F9" d = " M337 267 L336,269 C336,269 335,264 335,264 336.577,264 337,265.762 337,267  Z"/>

<path  fill="#97D6F9" stroke-width="0" stroke="#97D6F9" d = " M119 267 C119,268.238 119.423,270 121,270 121,267.745 121,267.255 121,265 121,265 119,265 119,265 119,265 119,266 119,266 119,266 119,267 119,267  Z"/>

<path  fill="#E64438" stroke-width="0" stroke="#E64438" d = " M198 268 L194,269 C194,269 197,265 197,265 197,265 199,265 199,265 199,265 198,268 198,268  Z"/>

<path  fill="#E64438" stroke-width="0" stroke="#E64438" d = " M221 265 L220,266 C220,266 221,265 221,265  Z"/>

<path  fill="#E64438" stroke-width="0" stroke="#E64438" d = " M258 268 L264,271 C264,271 259,265 259,265 259,265 257,265 257,265 257,265 258,268 258,268  Z"/>

<path  fill="#99D2BD" stroke-width="0" stroke="#99D2BD" d = " M118 267 L119,267 C119,267 119,266 119,266 119,266 118,267 118,267  Z"/>

<path  fill="#8599CC" stroke-width="0" stroke="#8599CC" d = " M218 267 L217,268 C217,268 218,267 218,267  Z"/>

<path  fill="#8599CC" stroke-width="0" stroke="#8599CC" d = " M238 267 L240,269 C240,269 238,267 238,267  Z"/>

<path  fill="#8599CC" stroke-width="0" stroke="#8599CC" d = " M209 273 L199,281 C199,279.005 199.662,276.081 197.5,275 196.516,274.508 192,274.149 192,273 193.473,273 193,271.048 193,270 193,270 194,269 194,269 194,269 198,268 198,268 198,273.66 205.033,273 209,273  Z"/>

<path  fill="#8599CC" stroke-width="0" stroke="#8599CC" d = " M217 268 L216,269 C216,269 217,268 217,268  Z"/>

<path  fill="#8599CC" stroke-width="0" stroke="#8599CC" d = " M265 273 C265,274.476 257,273.062 257,281 257,281 244,271 244,271 247.358,271 258,276.922 258,268 258,268 264,271 264,271 264,271 265,273 265,273  Z"/>

<path  fill="#E64438" stroke-width="0" stroke="#E64438" d = " M194 269 L193,270 C193,270 194,269 194,269  Z"/>

<path  fill="#8599CC" stroke-width="0" stroke="#8599CC" d = " M216 269 C214.762,269 213,269.423 213,271 214.238,271 216,270.577 216,269  Z"/>

<path  fill="#8599CC" stroke-width="0" stroke="#8599CC" d = " M241 269 L243,271 C243,271 241,269 241,269  Z"/>

<path  fill="#97D6F9" stroke-width="0" stroke="#97D6F9" d = " M336 270 L335,271 C335,271 336,270 336,270  Z"/>

<path  fill="#8599CC" stroke-width="0" stroke="#8599CC" d = " M213 271 L211,272 C211,272 213,271 213,271  Z"/>

<path  fill="#8599CC" stroke-width="0" stroke="#8599CC" d = " M211 272 L209,273 C209,273 211,272 211,272  Z"/>

<path  fill="#CBCCC7" stroke-width="0" stroke="#CBCCC7" d = " M216 275 C216,275.799 208.106,281.288 207,283.5 204.912,287.676 214.082,289.209 216.5,288 223.042,284.729 228.122,275 216,275  Z"/>

<path  fill="#CBCCC7" stroke-width="0" stroke="#CBCCC7" d = " M234 275 C234,276.606 231.919,279.339 233,281.5 234.564,284.629 245.935,292.63 249,286.5 252.72,279.059 239.258,275 234,275  Z"/>

</g>
</svg>
