<svg xmlns="http://www.w3.org/2000/svg" xmlns:xlink="http://www.w3.org/1999/xlink"  viewBox="0 0 456 320">
<g>
<rect width="456" height="320" fill="#000000"  stroke-width="0" /> 
<path  fill="#FEFA90" stroke-width="0" stroke="#FEFA90" d = " M171 85 C175.884,85 178.471,80.0145 182.5,78 189.827,74.3364 216.493,64.9967 224.5,69 L235.5,68 C239.763,70.1313 246.35,66.9248 250.5,69 257.961,72.7305 266.154,74.3271 273.5,78 277.061,79.7806 281.958,86 286,86 286,79.4882 289,73.1462 289,67 289,63.6683 271.366,58.433 268.5,57 249.863,47.6816 207.139,47.6805 188.5,57 185.665,58.4177 167,63.6902 167,67 169.064,67 167.426,70.3528 168,71.5 169.487,74.4732 171,81.7698 171,85  Z"/>

<path  fill="#FDFB8F" stroke-width="0" stroke="#FDFB8F" d = " M171 85 L170,88 C170,88 167,81.5 167,81.5 167,81.5 160,71 160,71 160,69.0518 165.428,67 167,67 169.064,67 167.426,70.3528 168,71.5 169.487,74.4732 171,81.7698 171,85  Z"/>

<path  fill="#FDFB8F" stroke-width="0" stroke="#FDFB8F" d = " M286 86 L287,87 C287,87 296,71 296,71 296,68.4717 291.348,67 289,67 289,73.1462 286,79.4882 286,86  Z"/>

<path  fill-rule="evenodd" fill="#CBC9CC" stroke-width="0" stroke="#CBC9CC" d = " M210 71 C210,73.2074 198.4,74.0502 196.5,75 188.072,79.2141 170.444,86.3876 177,99.5 L177,106.5 C179.603,111.705 180.921,119.711 187.5,123 199.398,128.949 213.692,129.096 225.5,135 228.334,136.417 250.359,129.571 253.5,128 257.054,126.223 261.851,126.824 265.5,125 275.886,119.807 284.74,98.9803 279,87.5 273.679,76.8574 254.35,75.425 245.5,71 L210,71  M294 172 L299,180 C302.061,180 305.851,183.675 308.5,185 308.5,185 311,186.5 311,186.5 311,186.5 301,177.5 301,177.5 296.468,168.436 289.637,158.137 282.5,151 282.5,151 274,143 274,143 269.51,143 255.259,129 271,129 271,129 275,127 275,127 277.44,127 282.088,125 284.5,125 284.5,125 306.5,133 306.5,133 306.5,133 325.5,151 325.5,151 330.661,153.581 343.798,178.904 348,170.5 348,170.5 339.5,161 339.5,161 335.47,156.97 317,139.337 317,135 315.756,135 315.459,132.521 316.5,132 318.429,131.036 337.267,129.883 339.5,131 342.89,132.695 347.063,132.282 350.5,134 350.5,134 355,136.5 355,136.5 355,136.5 349,131.5 349,131.5 349,131.5 344.5,123 344.5,123 344.5,123 343.5,125 343.5,125 343.5,125 331.5,129 331.5,129 331.5,129 310.5,129 310.5,129 310.5,129 305.5,125 305.5,125 303.491,123.995 294,121.985 294,119 283.816,119 287,92.739 287,87 287,87 286,86 286,86 281.958,86 277.061,79.7806 273.5,78 266.154,74.3271 257.961,72.7305 250.5,69 246.35,66.9248 239.763,70.1313 235.5,68 235.5,68 224.5,69 224.5,69 216.493,64.9967 189.827,74.3364 182.5,78 178.471,80.0145 175.884,85 171,85 171,85 170,88 170,88 170,91.6705 171.347,119 163,119 160.632,119 148.497,127.501 145.5,129 140.763,131.369 119.205,127.853 115.5,126 115.5,126 111.5,123 111.5,123 111.5,123 109,129.5 109,129.5 109,129.5 103,134.5 103,134.5 103,136.226 109.865,132.317 110.5,132 114.9,129.8 128.777,131 134.5,131 136.371,131 141,131.458 141,134 141,134 140,135 140,135 140,138.552 134.504,140.492 133,143.5 129.34,150.82 120.876,153.748 117,161.5 115.705,164.09 107.366,167.232 109,170.5 109,170.5 112.5,173 112.5,173 112.891,172.805 129.338,153.162 132.5,150 132.5,150 149.5,133 149.5,133 149.5,133 171.5,125 171.5,125 171.5,125 181,127 181,127 181,127 185,129 185,129 197.267,129 191.294,142 183,142 183,142 175,149.5 175,149.5 170.114,159.272 160.852,166.796 156,176.5 156,176.5 149.5,184 149.5,184 149.5,184 158,179 158,179 158,177.706 161.609,172 163,172 163,167.855 181.46,160.52 184.5,159 184.5,159 189.5,156 189.5,156 191.128,155.186 196.828,158.336 199.5,157 204.514,154.493 229.533,153.016 233.5,155 236.848,156.674 242.041,154.27 245.5,156 251.363,158.931 262.704,154.602 267.5,157 271.192,158.846 294,167.402 294,172  M271 148 L272,150.5 C272,153.195 261.453,153.976 259.5,153 249.907,148.203 216.463,152 204.5,152 199.639,152 185,156.306 185,149 185,149 186,148 186,148 186,148 187,147 187,147 187,141.061 198.826,141.837 202.5,140 206.691,137.905 213.541,139 218.5,139 229.466,139 247.314,135.907 257.5,141 260.662,142.581 271,143.057 271,148  Z"/>

<path  fill="#FCFC90" stroke-width="0" stroke="#FCFC90" d = " M118 89 C126.637,89 149.137,102.775 153,110.5 154.331,113.161 163,115.278 163,119 171.347,119 170,91.6705 170,88 170,88 167,81.5 167,81.5 167,81.5 160,71 160,71 146.315,71 118,72.6715 118,89  Z"/>

<path  fill="#FEFA90" stroke-width="0" stroke="#FEFA90" d = " M210 71 C210,73.2074 198.4,74.0502 196.5,75 188.072,79.2141 170.444,86.3876 177,99.5 L177,106.5 C179.603,111.705 180.921,119.711 187.5,123 199.398,128.949 213.692,129.096 225.5,135 228.334,136.417 250.359,129.571 253.5,128 257.054,126.223 261.851,126.824 265.5,125 275.886,119.807 284.74,98.9803 279,87.5 273.679,76.8574 254.35,75.425 245.5,71 L210,71  Z"/>

<path  fill="#FCFC90" stroke-width="0" stroke="#FCFC90" d = " M339 89 C329.722,89 304.934,104.632 301,112.5 299.774,114.951 294,115.75 294,119 283.816,119 287,92.739 287,87 287,87 296,71 296,71 308.877,71 339,72.5993 339,89  Z"/>

<path  fill-rule="evenodd" fill="#FCFA91" stroke-width="0" stroke="#FCFA91" d = " M101 136 C101,137.93 102.93,136 101,136  M102 135 C102,136.93 103.93,135 102,135  M140 135 L98.5,155 C96.5814,155.959 85,159.04 85,161 71.2409,161 72.3793,145.741 77,136.5 77,136.5 77,131.5 77,131.5 84.7123,116.075 96.2117,89 118,89 126.637,89 149.137,102.775 153,110.5 154.331,113.161 163,115.278 163,119 160.632,119 148.497,127.501 145.5,129 140.763,131.369 119.205,127.853 115.5,126 115.5,126 111.5,123 111.5,123 111.5,123 109,129.5 109,129.5 109,129.5 103,134.5 103,134.5 103,136.226 109.865,132.317 110.5,132 114.9,129.8 128.777,131 134.5,131 136.371,131 141,131.458 141,134 141,134 140,135 140,135  Z"/>

<path  fill="#FCFA91" stroke-width="0" stroke="#FCFA91" d = " M317 135 L328.5,141 C336.258,144.879 363.894,160 371,160 372.606,160 375.339,162.081 377.5,161 385.578,156.961 383.022,141.544 380,135.5 380,135.5 375,120.5 375,120.5 368.79,108.081 354.931,89 339,89 329.722,89 304.934,104.632 301,112.5 299.774,114.951 294,115.75 294,119 294,121.985 303.491,123.995 305.5,125 305.5,125 310.5,129 310.5,129 310.5,129 331.5,129 331.5,129 331.5,129 343.5,125 343.5,125 343.5,125 344.5,123 344.5,123 344.5,123 349,131.5 349,131.5 349,131.5 355,136.5 355,136.5 355,136.5 350.5,134 350.5,134 347.063,132.282 342.89,132.695 339.5,131 337.267,129.883 318.429,131.036 316.5,132 315.459,132.521 315.756,135 317,135  Z"/>

<path  fill="#FFFB8E" stroke-width="0" stroke="#FFFB8E" d = " M127 194 C127,197.829 115,201.792 115,204 99.1117,204 87.7481,181.996 82,170.5 79.9858,166.472 85,163.802 85,161 85,159.04 96.5814,155.959 98.5,155 98.5,155 140,135 140,135 140,138.552 134.504,140.492 133,143.5 129.34,150.82 120.876,153.748 117,161.5 115.705,164.09 107.366,167.232 109,170.5 109,170.5 112.5,173 112.5,173 112.891,172.805 129.338,153.162 132.5,150 132.5,150 149.5,133 149.5,133 149.5,133 171.5,125 171.5,125 171.5,125 181,127 181,127 181,127 182,131 182,131 164.224,131 143.873,161.754 137,175.5 134.982,179.536 127,189.701 127,194  Z"/>

<path  fill="#FFFB8E" stroke-width="0" stroke="#FFFB8E" d = " M329 194 L335,200.5 L341,204 C357.902,204 368.984,180.533 375,168.5 376.498,165.503 371,162.801 371,160 363.894,160 336.258,144.879 328.5,141 328.5,141 317,135 317,135 317,139.337 335.47,156.97 339.5,161 339.5,161 348,170.5 348,170.5 343.798,178.904 330.661,153.581 325.5,151 325.5,151 306.5,133 306.5,133 306.5,133 284.5,125 284.5,125 282.088,125 277.44,127 275,127 275,127 275,131 275,131 292.249,131 312.816,162.132 320,176.5 322.697,181.894 329,187.712 329,194  Z"/>

<path  fill="#FDFB90" stroke-width="0" stroke="#FDFB90" d = " M185 129 L182,131 C182,131 181,127 181,127 181,127 185,129 185,129  Z"/>

<path  fill="#FDFB90" stroke-width="0" stroke="#FDFB90" d = " M271 129 L275,131 C275,131 275,127 275,127 275,127 271,129 271,129  Z"/>

<path  fill="#FBFC91" stroke-width="0" stroke="#FBFC91" d = " M182 131 L183,142 C191.294,142 197.267,129 185,129 185,129 182,131 182,131  Z"/>

<path  fill="#FBFC91" stroke-width="0" stroke="#FBFC91" d = " M275 131 C275,134.531 274,138.893 274,143 269.51,143 255.259,129 271,129 271,129 275,131 275,131  Z"/>

<path  fill-rule="evenodd" fill="#FFF990" stroke-width="0" stroke="#FFF990" d = " M145 186 C145,187.93 146.93,186 145,186  M146 185 C146,186.93 147.93,185 146,185  M147 184 C147,186.091 150.746,184 147,184  M142 200 L141,201 C137.451,201 134.998,202.749 131.5,201 128.845,199.672 129.596,194 127,194 127,189.701 134.982,179.536 137,175.5 143.873,161.754 164.224,131 182,131 182,131 183,142 183,142 183,142 175,149.5 175,149.5 170.114,159.272 160.852,166.796 156,176.5 156,176.5 149.5,184 149.5,184 149.5,184 158,179 158,179 158,179 158,181 158,181 158,181 157,183 157,183 156.123,183 146.802,199 143,199 143,199 142,200 142,200  Z"/>

<path  fill="#FFF990" stroke-width="0" stroke="#FFF990" d = " M312 198 L314,199 C319.394,199 322.513,206.475 327,197.5 327,197.5 329,194 329,194 329,187.712 322.697,181.894 320,176.5 312.816,162.132 292.249,131 275,131 275,134.531 274,138.893 274,143 274,143 282.5,151 282.5,151 289.637,158.137 296.468,168.436 301,177.5 301,177.5 311,186.5 311,186.5 311,186.5 308.5,185 308.5,185 305.851,183.675 302.061,180 299,180 299,180 299,181 299,181 299,181 300,183 300,183 300.172,183 307.597,197 311,197 311,197 312,198 312,198  Z"/>

<path  fill="#FFFB8E" stroke-width="0" stroke="#FFFB8E" d = " M141 134 L140,135 C140,135 141,134 141,134  Z"/>

<path  fill="#CBC9CC" stroke-width="0" stroke="#CBC9CC" d = " M102 135 C102,136.93 103.93,135 102,135  Z"/>

<path  fill="#CBC9CC" stroke-width="0" stroke="#CBC9CC" d = " M101 136 C101,137.93 102.93,136 101,136  Z"/>

<path  fill="#FBFC91" stroke-width="0" stroke="#FBFC91" d = " M187 147 C190.859,147 196.159,144.671 199.5,143 203.884,140.808 226.919,142 233.5,142 L248.5,142 C249.228,142.364 270.924,148 271,148 271,143.057 260.662,142.581 257.5,141 247.314,135.907 229.466,139 218.5,139 213.541,139 206.691,137.905 202.5,140 198.826,141.837 187,141.061 187,147  Z"/>

<path  fill="#FFFA8F" stroke-width="0" stroke="#FFFA8F" d = " M271 148 L272,150.5 C272,153.195 261.453,153.976 259.5,153 249.907,148.203 216.463,152 204.5,152 199.639,152 185,156.306 185,149 185,149 186,148 186,148 186,148 187,147 187,147 190.859,147 196.159,144.671 199.5,143 203.884,140.808 226.919,142 233.5,142 233.5,142 248.5,142 248.5,142 249.228,142.364 270.924,148 271,148  Z"/>

<path  fill="#FBFC91" stroke-width="0" stroke="#FBFC91" d = " M187 147 L186,148 C186,148 187,147 187,147  Z"/>

<path  fill="#FBFC91" stroke-width="0" stroke="#FBFC91" d = " M186 148 L185,149 C185,149 186,148 186,148  Z"/>

<path  fill="#FFFA8F" stroke-width="0" stroke="#FFFA8F" d = " M163 172 C163,173.214 168.939,174.78 170.5,174 174.209,172.145 188.01,168.755 192.5,171 200.607,175.053 213.886,173 223.5,173 L259.5,173 C263.224,171.138 266.962,171 271.5,171 L289.5,174 L294,172 C294,167.402 271.192,158.846 267.5,157 262.704,154.602 251.363,158.931 245.5,156 242.041,154.27 236.848,156.674 233.5,155 229.533,153.016 204.514,154.493 199.5,157 196.828,158.336 191.128,155.186 189.5,156 189.5,156 184.5,159 184.5,159 181.46,160.52 163,167.855 163,172  Z"/>

<path  fill="#FDFC8F" stroke-width="0" stroke="#FDFC8F" d = " M161 182 C171.234,182 208.875,188.187 216.5,192 218.834,193.167 238.405,192.048 240.5,191 244.38,189.06 250.577,190.961 254.5,189 262.704,184.898 284.798,182 295,182 295,182 299,181 299,181 299,181 299,180 299,180 299,180 294,172 294,172 294,172 289.5,174 289.5,174 289.5,174 271.5,171 271.5,171 266.962,171 263.224,171.138 259.5,173 259.5,173 223.5,173 223.5,173 213.886,173 200.607,175.053 192.5,171 188.01,168.755 174.209,172.145 170.5,174 168.939,174.78 163,173.214 163,172 161.609,172 158,177.706 158,179 158,179 158,181 158,181 158,181 161,182 161,182  Z"/>

<path  fill="#F0F080" stroke-width="0" stroke="#F0F080" d = " M161 182 C161,183.579 158.145,183 157,183 157,183 158,181 158,181 158,181 161,182 161,182  Z"/>

<path  fill="#F0F080" stroke-width="0" stroke="#F0F080" d = " M295 182 C295,183.643 298.765,183 300,183 300,183 299,181 299,181 299,181 295,182 295,182  Z"/>

<path  fill="#CBC9CC" stroke-width="0" stroke="#CBC9CC" d = " M147 184 C147,186.091 150.746,184 147,184  Z"/>

<path  fill="#CBC9CC" stroke-width="0" stroke="#CBC9CC" d = " M146 185 C146,186.93 147.93,185 146,185  Z"/>

<path  fill="#CBC9CC" stroke-width="0" stroke="#CBC9CC" d = " M145 186 C145,187.93 146.93,186 145,186  Z"/>

<path  fill="#FFA2D2" stroke-width="0" stroke="#FFA2D2" d = " M176 198 L175,199 C171.607,199 156.398,199.704 160,192.5 160,192.5 162,189 162,189 162,189 163,189 163,189 163,189 164,188 164,188 165.819,188 168.591,187 171,187 171,188.596 179,188.513 179,196 179,196 178,197 178,197 178,197 176,198 176,198  Z"/>

<path  fill="#FF9BCD" stroke-width="0" stroke="#FF9BCD" d = " M181 195 L179,196 C179,188.513 171,188.596 171,187 173.688,187 186,187.222 186,189 180.529,189 181,191.441 181,195  Z"/>

<path  fill="#FF9BCD" stroke-width="0" stroke="#FF9BCD" d = " M270 189 C272.607,189 274.913,192 277,192 277,192 286,187 286,187 283.161,187 270,187.142 270,189  Z"/>

<path  fill="#FFA2D2" stroke-width="0" stroke="#FFA2D2" d = " M282 199 L293,199 C293,199 296,195.5 296,195.5 296,195.5 295,189 295,189 295,189 292,188 292,188 292,188 291,187 291,187 291,187 286,187 286,187 286,187 277,192 277,192 277,192 277,193 277,193 277,193 279,197 279,197 279,197 282,199 282,199  Z"/>

<path  fill="#FF9BCD" stroke-width="0" stroke="#FF9BCD" d = " M291 187 L292,188 C292,188 291,187 291,187  Z"/>

<path  fill="#FF9BCD" stroke-width="0" stroke="#FF9BCD" d = " M164 188 L163,189 C163,189 164,188 164,188  Z"/>

<path  fill="#FF9BCD" stroke-width="0" stroke="#FF9BCD" d = " M134 217 C134,217.246 127.048,224 127,224 127,215.095 153.607,189 162,189 162,189 160,192.5 160,192.5 156.398,199.704 171.607,199 175,199 175,205.031 177.342,205 183,205 183,205 184,207 184,207 179.121,207 179,213.617 179,216 176.942,216 173.791,209.082 173,207.5 170.323,202.146 164.959,203 160,203 160,203 165,200.5 165,200.5 165,197.23 152,197.007 152,201 145.839,201 134,210.302 134,217  Z"/>

<path  fill="#FEB1D9" stroke-width="0" stroke="#FEB1D9" d = " M185 201 L189,201 C189,201 193,199 193,199 193,199 195,198 195,198 195,198 197,197 197,197 197,197 199,194.5 199,194.5 199,194.5 197,191 197,191 197,191 196,191 196,191 196,191 195,190 195,190 195,190 193,190 193,190 191.855,190 189,190.579 189,189 189,189 186,189 186,189 180.529,189 181,191.441 181,195 183.177,195 185,199.336 185,201  Z"/>

<path  fill="#FF9BCD" stroke-width="0" stroke="#FF9BCD" d = " M189 189 C190.145,189 193,188.421 193,190 191.855,190 189,190.579 189,189  Z"/>

<path  fill="#FF9BCD" stroke-width="0" stroke="#FF9BCD" d = " M267 189 C265.855,189 263,188.421 263,190 264.145,190 267,190.579 267,189  Z"/>

<path  fill="#FEB1D9" stroke-width="0" stroke="#FEB1D9" d = " M268 201 L271,201 C271,198.812 273.771,195 276,195 276,195 277,193 277,193 277,193 277,192 277,192 274.913,192 272.607,189 270,189 270,189 267,189 267,189 267,190.579 264.145,190 263,190 263,190 259,191 259,191 259,198.773 263,196.5 263,199 263,199 268,201 268,201  Z"/>

<path  fill="#FF9BCD" stroke-width="0" stroke="#FF9BCD" d = " M322 217 C324.106,217 326.924,223 329,223 329,212.912 313.296,199.898 305.5,196 301.978,194.239 299.154,189 295,189 295,189 296,195.5 296,195.5 296,195.5 293,199 293,199 295.011,199 305,196.417 305,201 311.351,201 322,210.682 322,217  Z"/>

<path  fill="#FF9BCD" stroke-width="0" stroke="#FF9BCD" d = " M195 190 L196,191 C196,191 195,190 195,190  Z"/>

<path  fill="#FF9BCD" stroke-width="0" stroke="#FF9BCD" d = " M197 197 C199.177,197 201,196.359 201,199 204.207,199 210.215,196 216,196 216,194.817 212.43,194.465 211.5,194 208.284,192.392 200.514,191 197,191 197,191 199,194.5 199,194.5 199,194.5 197,197 197,197  Z"/>

<path  fill="#FF9BCD" stroke-width="0" stroke="#FF9BCD" d = " M256 199 C256,194.242 259.518,199 263,199 263,196.5 259,198.773 259,191 256.121,191 246.104,192.396 244,194.5 244,194.5 241,196 241,196 246.591,196 251.379,199 256,199  Z"/>

<path  fill="#FF9BCD" stroke-width="0" stroke="#FF9BCD" d = " M276 195 L279,197 C279,197 277,193 277,193 277,193 276,195 276,195  Z"/>

<path  fill="#F0F080" stroke-width="0" stroke="#F0F080" d = " M141 201 C141,208.65 119.537,204 115,204 115,201.792 127,197.829 127,194 129.596,194 128.845,199.672 131.5,201 134.998,202.749 137.451,201 141,201  Z"/>

<path  fill="#F0F080" stroke-width="0" stroke="#F0F080" d = " M314 199 C314,209.272 335.04,204 341,204 341,204 335,200.5 335,200.5 335,200.5 329,194 329,194 329,194 327,197.5 327,197.5 322.513,206.475 319.394,199 314,199  Z"/>

<path  fill="#FDA5D0" stroke-width="0" stroke="#FDA5D0" d = " M185 201 L183,205 C177.342,205 175,205.031 175,199 175,199 176,198 176,198 176,198 178,197 178,197 178,197 179,196 179,196 179,196 181,195 181,195 183.177,195 185,199.336 185,201  Z"/>

<path  fill="#FDA5D0" stroke-width="0" stroke="#FDA5D0" d = " M273 204 L273,205 C278.173,205 282,204.964 282,199 282,199 279,197 279,197 279,197 276,195 276,195 273.771,195 271,198.812 271,201 271,201 273,204 273,204  Z"/>

<path  fill="#FF9BCD" stroke-width="0" stroke="#FF9BCD" d = " M179 196 L178,197 C178,197 179,196 179,196  Z"/>

<path  fill="#FDA5D1" stroke-width="0" stroke="#FDA5D1" d = " M182 221 L183,221 C183,221 184,220 184,220 189.03,220 192.72,220 198,220 198,220 199,220 199,220 199,220 201,219 201,219 201,219 205,214 205,214 205,202.488 220,198.694 220,211 222.122,211 227,215.911 227,210 227,206.774 218,201.472 218,197 218,197 216,196 216,196 210.215,196 204.207,199 201,199 201,199 199,199 199,199 199,199 198,200 198,200 198,200 184,207 184,207 179.121,207 179,213.617 179,216 179,216 179,218 179,218 179,218 180,219 180,219 180,219 180,220 180,220 180,220 182,221 182,221  Z"/>

<path  fill="#AAA9A7" stroke-width="0" stroke="#AAA9A7" d = " M227 210 L229,210 C229,210 232.5,207 232.5,207 233.2,206.3 238,198.823 238,198 238,198 238,197 238,197 238,197 235,196 235,196 235,204.487 221.25,200.999 220,198.5 220,198.5 221,196 221,196 221,196 218,197 218,197 218,201.472 227,206.774 227,210  Z"/>

<path  fill="#A9AAA8" stroke-width="0" stroke="#A9AAA8" d = " M221 196 L235,196 C235,204.487 221.25,200.999 220,198.5 220,198.5 221,196 221,196  Z"/>

<path  fill="#FF9BCD" stroke-width="0" stroke="#FF9BCD" d = " M240 196 L239,197 C239,197 240,196 240,196  Z"/>

<path  fill="#FDA5D1" stroke-width="0" stroke="#FDA5D1" d = " M274 221 L275,221 C275,221 277,219 277,219 277,219 278,215 278,215 278,211.248 273,208.766 273,207 267.475,207 263.177,200 258,200 258,200 257,199 257,199 257,199 256,199 256,199 251.379,199 246.591,196 241,196 241,196 240,196 240,196 240,196 239,197 239,197 239,197 238,198 238,198 238,198.823 233.2,206.3 232.5,207 232.5,207 229,210 229,210 229,216.856 235.078,210 237,210 237,198.78 252,203.067 252,214 252,214 255,219 255,219 255,219 256,219 256,219 256,219 258,220 258,220 263.743,220 267.5,220 273,220 273,220 274,221 274,221  Z"/>

<path  fill="#FF9BCD" stroke-width="0" stroke="#FF9BCD" d = " M197 197 L195,198 C195,198 197,197 197,197  Z"/>

<path  fill="#FFB2D6" stroke-width="0" stroke="#FFB2D6" d = " M183 205 L184,207 C184,207 198,200 198,200 198,200 199,199 199,199 199,199 201,199 201,199 201,196.359 199.177,197 197,197 197,197 195,198 195,198 195,198 193,199 193,199 193,199 189,201 189,201 189,201 183,205 183,205  Z"/>

<path  fill="#FF9BCD" stroke-width="0" stroke="#FF9BCD" d = " M239 197 L238,198 C238,198 238,197 238,197 238,197 239,197 239,197  Z"/>

<path  fill="#FFB2D6" stroke-width="0" stroke="#FFB2D6" d = " M273 205 L273,207 C267.475,207 263.177,200 258,200 258,200 257,199 257,199 257,199 256,199 256,199 256,194.242 259.518,199 263,199 263,199 268,201 268,201 268,201 273,204 273,204 273,204 273,205 273,205  Z"/>

<path  fill="#F0F080" stroke-width="0" stroke="#F0F080" d = " M311 197 L312,198 C312,198 311,197 311,197  Z"/>

<path  fill="#C8CACA" stroke-width="0" stroke="#C8CACA" d = " M155 205 L157,205 C157,205 158,204 158,204 158,204 159,203 159,203 159,203 160,203 160,203 160,203 165,200.5 165,200.5 165,197.23 152,197.007 152,201 158.443,201 155,201.25 155,205  Z"/>

<path  fill="#FF9BCD" stroke-width="0" stroke="#FF9BCD" d = " M176 198 L175,199 C175,199 176,198 176,198  Z"/>

<path  fill="#FF9BCD" stroke-width="0" stroke="#FF9BCD" d = " M195 198 L193,199 C193,199 195,198 195,198  Z"/>

<path  fill="#C8CACA" stroke-width="0" stroke="#C8CACA" d = " M303 207 L304,207 C304,204.46 294.33,201 302.5,201 302.5,201 305,201 305,201 305,196.417 295.011,199 293,199 293,199 291,200.5 291,200.5 291,201.618 296,200.166 296,203 296,203 297,203 297,203 297,203 298,204 298,204 298,204 302,206 302,206 302,206 303,207 303,207  Z"/>

<path  fill="#F0F080" stroke-width="0" stroke="#F0F080" d = " M143 199 L142,200 C142,200 143,199 143,199  Z"/>

<path  fill="#FF9BCD" stroke-width="0" stroke="#FF9BCD" d = " M199 199 L198,200 C198,200 199,199 199,199  Z"/>

<path  fill="#FF9BCD" stroke-width="0" stroke="#FF9BCD" d = " M257 199 L258,200 C258,200 257,199 257,199  Z"/>

<path  fill="#FF9BCD" stroke-width="0" stroke="#FF9BCD" d = " M273 207 C273,208.766 278,211.248 278,215 280.825,215 282.155,209.19 283,207.5 285.677,202.146 291.041,203 296,203 296,200.166 291,201.618 291,200.5 291,200.5 293,199 293,199 293,199 282,199 282,199 282,204.964 278.173,205 273,205 273,205 273,207 273,207  Z"/>

<path  fill="#F0F080" stroke-width="0" stroke="#F0F080" d = " M142 200 L141,201 C141,201 142,200 142,200  Z"/>

<path  fill="#FDA3D1" stroke-width="0" stroke="#FDA3D1" d = " M143 214 C139.539,214 137.898,217 134,217 134,210.302 145.839,201 152,201 158.443,201 155,201.25 155,205 155,205 153,206 153,206 153,206 152,207 152,207 152,207 151,207 151,207 151,207 150,208 150,208 150,208 149,209 149,209 147.253,209 147,209.253 147,211 147,211 146,211 146,211 146,211 145,212 145,212 145,212 144,213 144,213 144,213 143,214 143,214  Z"/>

<path  fill="#FF9BCD" stroke-width="0" stroke="#FF9BCD" d = " M189 201 L183,205 C183,205 185,201 185,201 185,201 189,201 189,201  Z"/>

<path  fill="#FF9BCD" stroke-width="0" stroke="#FF9BCD" d = " M271 201 L273,204 C273,204 268,201 268,201 268,201 271,201 271,201  Z"/>

<path  fill="#FDA3D1" stroke-width="0" stroke="#FDA3D1" d = " M308 209 C311.055,209 315.991,217 322,217 322,210.682 311.351,201 305,201 305,201 302.5,201 302.5,201 294.33,201 304,204.46 304,207 304,207 305,207 305,207 305,207 307,209 307,209 307,209 308,209 308,209  Z"/>

<path  fill="#FF9BCD" stroke-width="0" stroke="#FF9BCD" d = " M159 203 L158,204 C158,204 159,203 159,203  Z"/>

<path  fill="#FDA5D2" stroke-width="0" stroke="#FDA5D2" d = " M142 269 L149,269 C157.446,269 153.568,257.363 156,252.5 157.369,249.763 156.65,246.2 158,243.5 161.243,237.015 169.575,231.962 175.5,229 175.5,229 180,223 180,223 180,223 180,220 180,220 180,220 180,219 180,219 180,219 179,218 179,218 179,218 179,216 179,216 176.942,216 173.791,209.082 173,207.5 170.323,202.146 164.959,203 160,203 160,203 159,203 159,203 159,203 158,204 158,204 158,204 157,205 157,205 157,205 155,205 155,205 155,205 154,206 154,206 154,206 153,207 153,207 153,207 152,207 152,207 152,207 151,208 151,208 151,208 150,209 150,209 150,209 149,209 149,209 149,209 147,211 147,211 147,211 146,212 146,212 146,212 145,213 145,213 145,213 144,214 144,214 144,214 143,215 143,215 143,216.59 137.338,221 136,221 136,221 135,222 135,222 135,222 134,223 134,223 134,223 133,224 133,224 133,224 131,228 131,228 131,228 130,229 130,229 130,229 129,231 129,231 129,231 128,241 128,241 128,241 128,248 128,248 128,248 128,250 128,250 128,250 129,251 129,251 129,251 129,253 129,253 129,253 130,254 130,254 130,254 130,255 130,255 130,255 131,257 131,257 131,257 131,259 131,259 132.577,259 133,260.762 133,262 133,262 133,263 133,263 133,263 135,265 135,265 135,265 135,266 135,266 135,266 136,267 136,267 136,267 138,268 138,268 138,268 139,269 139,269 139,269 142,269 142,269  Z"/>

<path  fill="#FDB1D8" stroke-width="0" stroke="#FDB1D8" d = " M214 213 L216,213 C216,213 220,211 220,211 220,198.694 205,202.488 205,214 205,215.393 212.075,213 214,213  Z"/>

<path  fill="#FDB1D8" stroke-width="0" stroke="#FDB1D8" d = " M243 213 C246.543,213 249.374,214 252,214 252,203.067 237,198.78 237,210 237,212.93 240,211.084 240,213 240,213 243,213 243,213  Z"/>

<path  fill="#FDA5D2" stroke-width="0" stroke="#FDA5D2" d = " M315 269 L317,269 C317,269 318,268 318,268 318,268 322,265 322,265 322,265 323,263 323,263 323,263 323,262 323,262 323,262 324,261 324,261 324,261 325,259 325,259 325,259 326,255 326,255 326,255 327,254 327,254 327,254 327,252 327,252 327,252 328,251 328,251 328,251 328,250 328,250 328,250 329,249 329,249 329,242.133 327,236.14 327,230 327,230 326,229 326,229 326,229 326,228 326,228 326,228 325,227 325,227 325,227 325,226 325,226 325,226 323,224 323,224 323,224 322,223 322,223 322,223 321,222 321,222 321,222 309,211 309,211 309,211 307,209 307,209 307,209 305,208 305,208 305,208 304,207 304,207 304,207 303,207 303,207 303,207 302,206 302,206 302,206 298,204 298,204 298,204 297,203 297,203 297,203 296,203 296,203 291.041,203 285.677,202.146 283,207.5 282.155,209.19 280.825,215 278,215 278,215 277,219 277,219 277,219 277,223 277,223 277,229.365 293.778,235.056 297,241.5 300.014,247.527 298.926,269 308,269 308,269 315,269 315,269  Z"/>

<path  fill="#FF9BCD" stroke-width="0" stroke="#FF9BCD" d = " M297 203 L298,204 C298,204 297,203 297,203  Z"/>

<path  fill="#FF9BCD" stroke-width="0" stroke="#FF9BCD" d = " M158 204 L157,205 C157,205 158,204 158,204  Z"/>

<path  fill="#C8CACA" stroke-width="0" stroke="#C8CACA" d = " M153 206 L154,206 C154,206 155,205 155,205 155,205 153,206 153,206  Z"/>

<path  fill="#C8CACA" stroke-width="0" stroke="#C8CACA" d = " M152 207 L153,207 C153,207 153,206 153,206 153,206 152,207 152,207  Z"/>

<path  fill="#FF9BCD" stroke-width="0" stroke="#FF9BCD" d = " M154 206 L153,207 C153,207 153,206 153,206 153,206 154,206 154,206  Z"/>

<path  fill="#FF9BCD" stroke-width="0" stroke="#FF9BCD" d = " M302 206 L303,207 C303,207 302,206 302,206  Z"/>

<path  fill="#C8CACA" stroke-width="0" stroke="#C8CACA" d = " M150 208 L151,208 C151,208 151,207 151,207 151,207 150,208 150,208  Z"/>

<path  fill="#FF9BCD" stroke-width="0" stroke="#FF9BCD" d = " M152 207 L151,208 C151,208 151,207 151,207 151,207 152,207 152,207  Z"/>

<path  fill="#FF9BCD" stroke-width="0" stroke="#FF9BCD" d = " M305 207 L305,208 C305,208 304,207 304,207 304,207 305,207 305,207  Z"/>

<path  fill="#C8CACA" stroke-width="0" stroke="#C8CACA" d = " M305 208 L307,209 C307,209 305,207 305,207 305,207 305,208 305,208  Z"/>

<path  fill="#C8CACA" stroke-width="0" stroke="#C8CACA" d = " M149 209 L150,209 C150,209 150,208 150,208 150,208 149,209 149,209  Z"/>

<path  fill="#FF9BCD" stroke-width="0" stroke="#FF9BCD" d = " M151 208 L150,209 C150,209 150,208 150,208 150,208 151,208 151,208  Z"/>

<path  fill="#C8CACA" stroke-width="0" stroke="#C8CACA" d = " M149 209 C147.253,209 147,209.253 147,211 147,211 149,209 149,209  Z"/>

<path  fill="#FF9BCD" stroke-width="0" stroke="#FF9BCD" d = " M308 209 L309,211 C309,211 307,209 307,209 307,209 308,209 308,209  Z"/>

<path  fill="#C8CACA" stroke-width="0" stroke="#C8CACA" d = " M317 274 C317,270.592 311.424,275 311,275 311,271.758 315,270.032 315,269 315,269 317,269 317,269 317,269 318,268 318,268 318,268 322,265 322,265 322,265 323,263 323,263 323,263 323,262 323,262 323,262 324,261 324,261 324,261 325,259 325,259 325,259 326,255 326,255 326,255 327,254 327,254 327,254 327,252 327,252 327,252 328,251 328,251 328,251 328,250 328,250 328,250 329,249 329,249 329,242.133 327,236.14 327,230 327,230 326,229 326,229 326,229 326,228 326,228 326,228 325,227 325,227 325,227 325,226 325,226 325,226 323,224 323,224 323,224 322,223 322,223 322,223 321,222 321,222 321,222 309,211 309,211 309,211 308,209 308,209 311.055,209 315.991,217 322,217 324.106,217 326.924,223 329,223 329,223 329,224 329,224 329,224 331,228 331,228 331,228 331,229 331,229 331,229 332,235 332,235 332,235 333,237 333,237 333,237 333,240 333,240 333,240 333,247 333,247 333,247 333,248 333,248 333,248 332,250 332,250 332,250 331,257 331,257 331,257 331,258 331,258 331,258 330,260 330,260 330,260 329,261 329,261 329,261 329,262 329,262 329,262 328,264 328,264 328,264 327,265 327,265 327,265 327,266 327,266 327,266 326,267 326,267 326,267 325,268 325,268 325,268 325,269 325,269 323.253,269 323,269.253 323,271 323,271 317,274 317,274  Z"/>

<path  fill-rule="evenodd" fill="#FF9BCD" stroke-width="0" stroke="#FF9BCD" d = " M239 288 C239,289.465 234.606,289.711 236,292.5 238.258,297.016 245.034,298 249.5,298 250.663,298 255,298.549 255,296.5 255,293.288 242.425,288 239,288  M229 293 C229,295.936 235.212,295.856 237.5,297 244.502,300.501 268.025,301.738 275.5,298 277.521,296.99 287,298.331 287,295 284.887,295 284.218,295.141 282.5,296 280.687,296.907 281.277,294.612 282.5,294 284.246,293.127 292,291.469 292,289 290.855,289 288,289.579 288,288 282.242,288 278.464,294.482 271.5,291 269.321,289.911 262.449,276 260,276 247.857,276 231,259.097 231,247 228.192,247 227.474,236 231,236 231,234.357 234.765,235 236,235 236,233.625 236,232.375 236,231 236,231 229.5,231 229.5,231 228.286,230.393 226.431,213 240,213 240,211.084 237,212.93 237,210 235.078,210 229,216.856 229,210 229,210 227,210 227,210 227,215.911 222.122,211 220,211 220,211 216,213 216,213 216,213 222.5,213 222.5,213 225.087,214.294 230.612,229.444 227.5,231 227.5,231 221,231 221,231 221,231 221,235 221,235 224.744,235 225,235.256 225,239 226.909,239 225.099,233.799 227.5,235 228.406,235.453 226.557,247 226.5,247 226.5,247 225,246 225,246 225,259.433 209.415,276 196,276 196,278.268 191.64,280.221 191,281.5 187.669,288.162 182.103,295.302 173.5,291 173.5,291 168,288 168,288 168,289.579 165.145,289 164,289 164,292.212 175,291.843 175,295.5 175,296.535 169.174,294.337 168.5,294 165.614,292.557 159,291.548 159,287 159,285.366 154.635,283 159,283 159,282.459 155,280.866 155,274 151.29,274 149,273.086 149,269 149,269 142,269 142,269 142,270.298 147,273.589 147,276 147,278.756 157.481,281.537 155,286.5 154.273,287.955 151.18,285.68 150.5,285 150.5,285 140,275 140,275 135.799,275 129.546,265.592 128,262.5 128,262.5 125,257 125,257 125,263.281 131.982,269.482 136.5,274 145.126,282.626 154.797,289.649 165.5,295 168.497,296.498 172.431,296.466 175.5,298 181.416,300.958 190.547,297.023 196.5,300 203.311,303.405 216.408,298.546 221.5,296 222.928,295.286 228,295.378 228,293 221.769,293 227,284.589 227,283 227,283 222.5,286 222.5,286 220.073,287.213 209,284.708 209,289 209,289 214.5,288 214.5,288 232.54,288 205.171,303.843 202,297.5 202,297.5 207,291 207,291 204.442,291 202.64,293.93 200.5,295 199.398,295.551 194.377,293.746 195,292.5 197.032,288.437 220,279.574 220,273 211.676,273 224.445,255 227,255 229.279,255 226.97,250 228.5,250 228.5,250 229,256 229,256 229,256 232.5,255 232.5,255 232.5,255 234,260.5 234,260.5 235.502,263.504 243.711,273 237,273 237,280.862 257.996,286.491 261,292.5 261.623,293.746 256.602,295.551 255.5,295 255.5,295 245.5,287 245.5,287 245.5,287 233.5,286 233.5,286 233.5,286 230,284 230,284 230,285.606 232.081,288.339 231,290.5 231,290.5 229,293 229,293  Z"/>

<path  fill="#C8CACA" stroke-width="0" stroke="#C8CACA" d = " M145 212 L146,212 C146,212 146,211 146,211 146,211 145,212 145,212  Z"/>

<path  fill="#FF9BCD" stroke-width="0" stroke="#FF9BCD" d = " M147 211 L146,212 C146,212 146,211 146,211 146,211 147,211 147,211  Z"/>

<path  fill="#C8CACA" stroke-width="0" stroke="#C8CACA" d = " M144 213 L145,213 C145,213 145,212 145,212 145,212 144,213 144,213  Z"/>

<path  fill="#FF9BCD" stroke-width="0" stroke="#FF9BCD" d = " M146 212 L145,213 C145,213 145,212 145,212 145,212 146,212 146,212  Z"/>

<path  fill="#C8CACA" stroke-width="0" stroke="#C8CACA" d = " M143 214 L144,214 C144,214 144,213 144,213 144,213 143,214 143,214  Z"/>

<path  fill="#FF9BCD" stroke-width="0" stroke="#FF9BCD" d = " M145 213 L144,214 C144,214 144,213 144,213 144,213 145,213 145,213  Z"/>

<path  fill="#FF9BCD" stroke-width="0" stroke="#FF9BCD" d = " M211 227 L211,228 C207.332,228 206.03,219 201,219 201,219 205,214 205,214 205,215.393 212.075,213 214,213 214,213 209,216.5 209,216.5 207.161,220.179 211,223.973 211,227  Z"/>

<path  fill="#FEB1D7" stroke-width="0" stroke="#FEB1D7" d = " M211 227 C212.137,227 215.542,231 221,231 221,231 227.5,231 227.5,231 230.612,229.444 225.087,214.294 222.5,213 222.5,213 216,213 216,213 216,213 214,213 214,213 214,213 209,216.5 209,216.5 207.161,220.179 211,223.973 211,227  Z"/>

<path  fill="#FEB1D7" stroke-width="0" stroke="#FEB1D7" d = " M245 228 C242.439,228 239.676,231 236,231 236,231 229.5,231 229.5,231 228.286,230.393 226.431,213 240,213 240,213 243,213 243,213 243,213 247,215.5 247,215.5 249.119,219.737 245,224.739 245,228  Z"/>

<path  fill="#FF9BCD" stroke-width="0" stroke="#FF9BCD" d = " M245 228 L246,228 C246,225.976 253.193,219 255,219 255,219 252,214 252,214 249.374,214 246.543,213 243,213 243,213 247,215.5 247,215.5 249.119,219.737 245,224.739 245,228  Z"/>

<path  fill="#C8CACA" stroke-width="0" stroke="#C8CACA" d = " M140 275 C140,269.65 145.376,276 147,276 147,273.589 142,270.298 142,269 142,269 139,269 139,269 139,269 138,268 138,268 138,268 136,267 136,267 136,267 135,266 135,266 135,266 135,265 135,265 135,265 133,263 133,263 133,263 133,262 133,262 133,262 131,259 131,259 131,259 131,257 131,257 131,257 130,255 130,255 130,255 130,254 130,254 130,254 129,253 129,253 129,253 129,251 129,251 129,251 128,250 128,250 128,250 128,248 128,248 126.398,248 126.398,241 128,241 128,241 129,231 129,231 129,231 130,229 130,229 130,229 131,228 131,228 131,228 133,224 133,224 133,224 134,223 134,223 134,223 135,222 135,222 135,222 136,221 136,221 137.338,221 143,216.59 143,215 143,215 143,214 143,214 139.539,214 137.898,217 134,217 134,217.246 127.048,224 127,224 127,224 127,225 127,225 127,225 126,227 126,227 126,227 125,229 125,229 125,229 125,230 125,230 125,230 125,233 125,233 125,233 124,235 124,235 124,235 124,238 124,238 124,239.048 124.473,241 123,241 123,241 123,244 123,244 124.473,244 124,245.952 124,247 124,247 125,256 125,256 125,256 125,257 125,257 125,257 128,262.5 128,262.5 129.546,265.592 135.799,275 140,275  Z"/>

<path  fill="#FF9BCD" stroke-width="0" stroke="#FF9BCD" d = " M144 214 L143,215 C143,215 143,214 143,214 143,214 144,214 144,214  Z"/>

<path  fill="#FF9BCD" stroke-width="0" stroke="#FF9BCD" d = " M179 218 L180,219 C180,219 179,218 179,218  Z"/>

<path  fill="#FCB3D9" stroke-width="0" stroke="#FCB3D9" d = " M165 270 C163.093,270 155,271.321 155,274 151.29,274 149,273.086 149,269 157.446,269 153.568,257.363 156,252.5 157.369,249.763 156.65,246.2 158,243.5 161.243,237.015 169.575,231.962 175.5,229 175.5,229 180,223 180,223 180,223 182,221 182,221 182,221 183,221 183,221 183,221 184,220 184,220 189.03,220 192.72,220 198,220 198,220 198,221 198,221 198,225.313 192.804,227.891 191,231.5 191,231.5 173,260.5 173,260.5 171.34,263.821 165,266.095 165,270  Z"/>

<path  fill="#FF9BCD" stroke-width="0" stroke="#FF9BCD" d = " M201 219 L199,220 C199,220 201,219 201,219  Z"/>

<path  fill-rule="evenodd" fill="#FFB2D8" stroke-width="0" stroke="#FFB2D8" d = " M193 265 C185.783,265 179.27,280.885 171.5,277 L168.5,273 L165,270 C165,266.095 171.34,263.821 173,260.5 173,260.5 191,231.5 191,231.5 192.804,227.891 198,225.313 198,221 198,221 199,220 199,220 199,220 201,219 201,219 206.03,219 207.332,228 211,228 211,229.235 210.357,233 212,233 212,233 212,235 212,235 212,239.866 193,260.385 193,265  M178 265 C182.072,265 181.382,271 179,271 179,274.081 166.005,272.495 173,265.5 173,265.5 176,265 176,265 176,265 178,265 178,265  Z"/>

<path  fill-rule="evenodd" fill="#FFB2D8" stroke-width="0" stroke="#FFB2D8" d = " M280 265 C285.171,265 286.968,270.766 282.5,273 278.465,275.018 274.028,266 277,266 277,266 278,265 278,265 278,265 280,265 280,265  M263 265 C273.106,265 277.432,284.068 288,273.5 L292,270 C292,266.392 284.052,262.605 283,260.5 283,260.5 258,221 258,221 258,221 256,219 256,219 256,219 255,219 255,219 253.193,219 246,225.976 246,228 246,228 244,234 244,234 244,234 245,236 245,236 245,240.19 263,259.657 263,265  Z"/>

<path  fill="#FF9BCD" stroke-width="0" stroke="#FF9BCD" d = " M258 220 L258,221 C258,221 256,219 256,219 256,219 258,220 258,220  Z"/>

<path  fill="#FCB3D9" stroke-width="0" stroke="#FCB3D9" d = " M292 270 C295.181,270 300.747,274 302,274 305.201,274 308,272.354 308,269 298.926,269 300.014,247.527 297,241.5 293.778,235.056 277,229.365 277,223 277,223 275,221 275,221 275,221 274,221 274,221 274,221 273,220 273,220 267.5,220 263.743,220 258,220 258,220 258,221 258,221 258,221 283,260.5 283,260.5 284.052,262.605 292,266.392 292,270  Z"/>

<path  fill="#FF9BCD" stroke-width="0" stroke="#FF9BCD" d = " M275 221 L277,223 C277,223 277,219 277,219 277,219 275,221 275,221  Z"/>

<path  fill="#FF9BCD" stroke-width="0" stroke="#FF9BCD" d = " M182 221 L180,223 C180,223 180,220 180,220 180,220 182,221 182,221  Z"/>

<path  fill="#FF9BCD" stroke-width="0" stroke="#FF9BCD" d = " M184 220 L183,221 C183,221 184,220 184,220  Z"/>

<path  fill="#FF9BCD" stroke-width="0" stroke="#FF9BCD" d = " M199 220 L198,221 C198,221 198,220 198,220 198,220 199,220 199,220  Z"/>

<path  fill="#FF9BCD" stroke-width="0" stroke="#FF9BCD" d = " M273 220 L274,221 C274,221 273,220 273,220  Z"/>

<path  fill="#FF9BCD" stroke-width="0" stroke="#FF9BCD" d = " M136 221 L135,222 C135,222 136,221 136,221  Z"/>

<path  fill="#FF9BCD" stroke-width="0" stroke="#FF9BCD" d = " M321 222 L322,223 C322,223 321,222 321,222  Z"/>

<path  fill="#FF9BCD" stroke-width="0" stroke="#FF9BCD" d = " M134 223 L133,224 C133,224 134,223 134,223  Z"/>

<path  fill="#FF9BCD" stroke-width="0" stroke="#FF9BCD" d = " M323 224 L325,226 C325,226 323,224 323,224  Z"/>

<path  fill="#FF9BCD" stroke-width="0" stroke="#FF9BCD" d = " M329 224 L331,228 C331,228 329,224 329,224  Z"/>

<path  fill="#FF9BCD" stroke-width="0" stroke="#FF9BCD" d = " M127 225 L126,227 C126,227 127,225 127,225  Z"/>

<path  fill="#FF9BCD" stroke-width="0" stroke="#FF9BCD" d = " M126 227 L125,229 C125,229 126,227 126,227  Z"/>

<path  fill="#FFB1D9" stroke-width="0" stroke="#FFB1D9" d = " M213 235 C216.303,235 218.115,235 221,235 221,235 221,231 221,231 215.542,231 212.137,227 211,227 211,227 211,228 211,228 211,229.235 210.357,233 212,233 212,233 213,235 213,235  Z"/>

<path  fill="#FF9BCD" stroke-width="0" stroke="#FF9BCD" d = " M325 227 L326,228 C326,228 325,227 325,227  Z"/>

<path  fill="#FF9BCD" stroke-width="0" stroke="#FF9BCD" d = " M131 228 L130,229 C130,229 131,228 131,228  Z"/>

<path  fill="#FFB1D9" stroke-width="0" stroke="#FFB1D9" d = " M236 235 C238.583,235 239.934,235 243,235 243,235 244,234 244,234 244,234 246,228 246,228 246,228 245,228 245,228 242.439,228 239.676,231 236,231 236,232.375 236,233.625 236,235  Z"/>

<path  fill="#FF9BCD" stroke-width="0" stroke="#FF9BCD" d = " M130 229 L129,231 C129,231 130,229 130,229  Z"/>

<path  fill="#FF9BCD" stroke-width="0" stroke="#FF9BCD" d = " M326 229 L327,230 C327,230 326,229 326,229  Z"/>

<path  fill="#FF9BCD" stroke-width="0" stroke="#FF9BCD" d = " M332 235 L333,235 C333,233.377 332.995,229 331,229 331,229 332,235 332,235  Z"/>

<path  fill="#FF9BCD" stroke-width="0" stroke="#FF9BCD" d = " M124 233 L125,233 C125,233 125,230 125,230 123.527,230 124,231.952 124,233  Z"/>

<path  fill="#FF9BCD" stroke-width="0" stroke="#FF9BCD" d = " M123 238 L124,238 C124,238 124,235 124,235 124,235 124,233 124,233 122.357,233 123,236.765 123,238  Z"/>

<path  fill="#C9C9C8" stroke-width="0" stroke="#C9C9C8" d = " M125 233 L124,235 C124,235 124,233 124,233 124,233 125,233 125,233  Z"/>

<path  fill="#FF9BCD" stroke-width="0" stroke="#FF9BCD" d = " M212 235 L213,235 C213,235 212,233 212,233 212,233 212,235 212,235  Z"/>

<path  fill="#FF9BCD" stroke-width="0" stroke="#FF9BCD" d = " M243 235 L245,236 C245,236 244,234 244,234 244,234 243,235 243,235  Z"/>

<path  fill="#FEB0D8" stroke-width="0" stroke="#FEB0D8" d = " M193 265 C199.424,265 196,273.075 196,276 209.415,276 225,259.433 225,246 225,246 225,239 225,239 225,235.256 224.744,235 221,235 218.115,235 216.303,235 213,235 213,235 212,235 212,235 212,239.866 193,260.385 193,265  Z"/>

<path  fill="#CBCBCC" stroke-width="0" stroke="#CBCBCC" d = " M225 239 C226.909,239 225.099,233.799 227.5,235 228.406,235.453 226.557,247 226.5,247 L225,246 C225,246 225,239 225,239  Z"/>

<path  fill="#CBCBCC" stroke-width="0" stroke="#CBCBCC" d = " M231 236 C227.474,236 228.192,247 231,247 231,247 231,236 231,236  Z"/>

<path  fill="#FEB0D8" stroke-width="0" stroke="#FEB0D8" d = " M263 265 C256.867,265 260,273.577 260,276 247.857,276 231,259.097 231,247 231,247 231,236 231,236 231,234.357 234.765,235 236,235 238.583,235 239.934,235 243,235 243,235 245,236 245,236 245,240.19 263,259.657 263,265  Z"/>

<path  fill="#C9C9C8" stroke-width="0" stroke="#C9C9C8" d = " M333 235 L333,237 C333,237 332,235 332,235 332,235 333,235 333,235  Z"/>

<path  fill="#C9C9C8" stroke-width="0" stroke="#C9C9C8" d = " M124 238 C124,239.048 124.473,241 123,241 123,241 123,238 123,238 123,238 124,238 124,238  Z"/>

<path  fill="#FF9BCD" stroke-width="0" stroke="#FF9BCD" d = " M333 240 C334.602,240 334.602,247 333,247 333,247 333,240 333,240  Z"/>

<path  fill="#FF9BCD" stroke-width="0" stroke="#FF9BCD" d = " M128 241 C126.398,241 126.398,248 128,248 128,248 128,241 128,241  Z"/>

<path  fill="#C9C9C8" stroke-width="0" stroke="#C9C9C8" d = " M123 247 L124,247 C124,245.952 124.473,244 123,244 123,244 123,247 123,247  Z"/>

<path  fill="#FF9BCD" stroke-width="0" stroke="#FF9BCD" d = " M124 247 L125,256 C122.844,256 123,248.923 123,247 123,247 124,247 124,247  Z"/>

<path  fill="#C9C9C8" stroke-width="0" stroke="#C9C9C8" d = " M332 250 L333,250 C333,250 333,248 333,248 333,248 332,250 332,250  Z"/>

<path  fill="#FF9BCD" stroke-width="0" stroke="#FF9BCD" d = " M329 249 L328,250 C328,250 329,249 329,249  Z"/>

<path  fill="#FF9BCD" stroke-width="0" stroke="#FF9BCD" d = " M128 250 L129,251 C129,251 128,250 128,250  Z"/>

<path  fill="#FEC6E2" stroke-width="0" stroke="#FEC6E2" d = " M228 265 L229,265 C229,265 229,264 229,264 229,264 229,262 229,262 229,262 229,256 229,256 229,256 228.5,250 228.5,250 226.97,250 229.279,255 227,255 227,255 227,263 227,263 227,263 228,265 228,265  Z"/>

<path  fill="#FF9BCD" stroke-width="0" stroke="#FF9BCD" d = " M333 250 C333,251.774 333.273,257 331,257 331,257 332,250 332,250 332,250 333,250 333,250  Z"/>

<path  fill="#FF9BCD" stroke-width="0" stroke="#FF9BCD" d = " M328 251 L327,252 C327,252 328,251 328,251  Z"/>

<path  fill="#FF9BCD" stroke-width="0" stroke="#FF9BCD" d = " M129 253 L130,254 C130,254 129,253 129,253  Z"/>

<path  fill="#FF9BCD" stroke-width="0" stroke="#FF9BCD" d = " M327 254 L326,255 C326,255 327,254 327,254  Z"/>

<path  fill="#FF9BCD" stroke-width="0" stroke="#FF9BCD" d = " M130 255 L131,257 C131,257 130,255 130,255  Z"/>

<path  fill="#C8C8CC" stroke-width="0" stroke="#C8C8CC" d = " M221 272 L220,273 C211.676,273 224.445,255 227,255 227,255 227,263 227,263 224.362,263 221,269.355 221,272  Z"/>

<path  fill="#C8C8CC" stroke-width="0" stroke="#C8C8CC" d = " M230 263 C234.542,263 233.476,273 237,273 243.711,273 235.502,263.504 234,260.5 234,260.5 232.5,255 232.5,255 232.5,255 229,256 229,256 229,256 229,262 229,262 229,262 230,263 230,263  Z"/>

<path  fill="#FF9BCD" stroke-width="0" stroke="#FF9BCD" d = " M331 258 L330,260 C330,260 331,258 331,258  Z"/>

<path  fill="#FF9BCD" stroke-width="0" stroke="#FF9BCD" d = " M131 259 C132.577,259 133,260.762 133,262 133,262 131,259 131,259  Z"/>

<path  fill="#FF9BCD" stroke-width="0" stroke="#FF9BCD" d = " M325 259 L324,261 C324,261 325,259 325,259  Z"/>

<path  fill="#FF9BCD" stroke-width="0" stroke="#FF9BCD" d = " M330 260 L329,261 C329,261 330,260 330,260  Z"/>

<path  fill="#FF9BCD" stroke-width="0" stroke="#FF9BCD" d = " M324 261 L323,262 C323,262 324,261 324,261  Z"/>

<path  fill="#FF9BCD" stroke-width="0" stroke="#FF9BCD" d = " M230 263 L229,264 C229,264 229,262 229,262 229,262 230,263 230,263  Z"/>

<path  fill="#FF9BCD" stroke-width="0" stroke="#FF9BCD" d = " M329 262 L328,264 C328,264 329,262 329,262  Z"/>

<path  fill="#FF9BCD" stroke-width="0" stroke="#FF9BCD" d = " M133 263 L135,265 C135,265 133,263 133,263  Z"/>

<path  fill="#FFB3D8" stroke-width="0" stroke="#FFB3D8" d = " M209 289 C207.253,289 207,289.253 207,291 204.442,291 202.64,293.93 200.5,295 199.398,295.551 194.377,293.746 195,292.5 197.032,288.437 220,279.574 220,273 220,273 221,272 221,272 221,269.355 224.362,263 227,263 227,263 228,265 228,265 228,265 228,277 228,277 228,277 227,283 227,283 227,283 222.5,286 222.5,286 220.073,287.213 209,284.708 209,289  Z"/>

<path  fill="#FFB3D8" stroke-width="0" stroke="#FFB3D8" d = " M230 283 L230,284 C230,284 233.5,286 233.5,286 233.5,286 245.5,287 245.5,287 245.5,287 255.5,295 255.5,295 256.602,295.551 261.623,293.746 261,292.5 257.996,286.491 237,280.862 237,273 233.476,273 234.542,263 230,263 230,263 229,264 229,264 229,264 229,265 229,265 229,265 229,277 229,277 229,277 229,282 229,282 229,282 230,283 230,283  Z"/>

<path  fill="#FF9BCD" stroke-width="0" stroke="#FF9BCD" d = " M323 263 L322,265 C322,265 323,263 323,263  Z"/>

<path  fill="#FF9BCD" stroke-width="0" stroke="#FF9BCD" d = " M328 264 L327,265 C327,265 328,264 328,264  Z"/>

<path  fill="#FF9BCD" stroke-width="0" stroke="#FF9BCD" d = " M176 265 L173,265.5 C166.005,272.495 179,274.081 179,271 171.791,271 176,268.603 176,265  Z"/>

<path  fill="#FEB3D8" stroke-width="0" stroke="#FEB3D8" d = " M178 265 C178,266.564 179,268.876 179,271 171.791,271 176,268.603 176,265 176,265 178,265 178,265  Z"/>

<path  fill="#FF9BCD" stroke-width="0" stroke="#FF9BCD" d = " M178 265 C182.072,265 181.382,271 179,271 179,268.876 178,266.564 178,265  Z"/>

<path  fill="#FCB3D7" stroke-width="0" stroke="#FCB3D7" d = " M159 283 C160.818,283 168,285.517 168,288 168,288 173.5,291 173.5,291 182.103,295.302 187.669,288.162 191,281.5 191.64,280.221 196,278.268 196,276 196,273.075 199.424,265 193,265 185.783,265 179.27,280.885 171.5,277 171.5,277 168.5,273 168.5,273 168.5,273 165,270 165,270 163.093,270 155,271.321 155,274 155,280.866 159,282.459 159,283  Z"/>

<path  fill="#FF9BCD" stroke-width="0" stroke="#FF9BCD" d = " M228 277 L229,277 C229,277 229,265 229,265 229,265 228,265 228,265 228,265 228,277 228,277  Z"/>

<path  fill="#FCB3D7" stroke-width="0" stroke="#FCB3D7" d = " M289 287 L288,288 C282.242,288 278.464,294.482 271.5,291 269.321,289.911 262.449,276 260,276 260,273.577 256.867,265 263,265 273.106,265 277.432,284.068 288,273.5 288,273.5 292,270 292,270 295.181,270 300.747,274 302,274 302,278.831 298,281.867 298,283 296.169,283 289,285.183 289,287  Z"/>

<path  fill="#FF9BCD" stroke-width="0" stroke="#FF9BCD" d = " M278 265 L277,266 C277,266 278,265 278,265  Z"/>

<path  fill="#FEB3D8" stroke-width="0" stroke="#FEB3D8" d = " M280 265 C280,266.465 284.394,266.711 283,269.5 280.525,274.45 277,269.046 277,266 277,266 278,265 278,265 278,265 280,265 280,265  Z"/>

<path  fill="#FF9BCD" stroke-width="0" stroke="#FF9BCD" d = " M280 265 C285.171,265 286.968,270.766 282.5,273 278.465,275.018 274.028,266 277,266 277,269.046 280.525,274.45 283,269.5 284.394,266.711 280,266.465 280,265  Z"/>

<path  fill="#FF9BCD" stroke-width="0" stroke="#FF9BCD" d = " M135 266 L136,267 C136,267 135,266 135,266  Z"/>

<path  fill="#FF9BCD" stroke-width="0" stroke="#FF9BCD" d = " M327 266 L326,267 C326,267 327,266 327,266  Z"/>

<path  fill="#FF9BCD" stroke-width="0" stroke="#FF9BCD" d = " M326 267 L325,268 C325,268 326,267 326,267  Z"/>

<path  fill="#FF9BCD" stroke-width="0" stroke="#FF9BCD" d = " M138 268 L139,269 C139,269 138,268 138,268  Z"/>

<path  fill="#FF9BCD" stroke-width="0" stroke="#FF9BCD" d = " M318 268 L317,269 C317,269 318,268 318,268  Z"/>

<path  fill="#FF9BCD" stroke-width="0" stroke="#FF9BCD" d = " M303 287 C303,290.197 290.732,295 288,295 288,293.042 297,291.674 297,287 297,285.189 302.316,283 298,283 298,281.867 302,278.831 302,274 305.201,274 308,272.354 308,269 308,269 315,269 315,269 315,270.032 311,271.758 311,275 311,275 310,275 310,275 310,275 309,276 309,276 309,276.083 297.027,287 303,287  Z"/>

<path  fill="#FF9BCD" stroke-width="0" stroke="#FF9BCD" d = " M325 269 C323.253,269 323,269.253 323,271 323,271 325,269 325,269  Z"/>

<path  fill="#FF9BCD" stroke-width="0" stroke="#FF9BCD" d = " M317 274 L311,281 C313.132,281 323,273.567 323,271 323,271 317,274 317,274  Z"/>

<path  fill="#FF9BCD" stroke-width="0" stroke="#FF9BCD" d = " M221 272 L220,273 C220,273 221,272 221,272  Z"/>

<path  fill="#C9CACA" stroke-width="0" stroke="#C9CACA" d = " M140 275 L150.5,285 C151.18,285.68 154.273,287.955 155,286.5 157.481,281.537 147,278.756 147,276 145.376,276 140,269.65 140,275  Z"/>

<path  fill="#C9CACA" stroke-width="0" stroke="#C9CACA" d = " M303 287 L304,287 C304,287 305,286 305,286 305,284.099 309.332,281 311,281 311,281 317,274 317,274 317,270.592 311.424,275 311,275 311,275 310,275 310,275 310,275 309,276 309,276 309,276.083 297.027,287 303,287  Z"/>

<path  fill="#C8CACA" stroke-width="0" stroke="#C8CACA" d = " M310 275 L309,276 C309,276 310,275 310,275  Z"/>

<path  fill="#FFC6E2" stroke-width="0" stroke="#FFC6E2" d = " M228 293 L229,293 C229,293 231,290.5 231,290.5 232.081,288.339 230,285.606 230,284 230,284 230,283 230,283 230,283 229,282 229,282 229,282 229,277 229,277 229,277 228,277 228,277 228,277 227,283 227,283 227,284.589 221.769,293 228,293  Z"/>

<path  fill="#FF9BCD" stroke-width="0" stroke="#FF9BCD" d = " M311 281 C309.332,281 305,284.099 305,286 307.195,286 311,282.911 311,281  Z"/>

<path  fill="#FF9BCD" stroke-width="0" stroke="#FF9BCD" d = " M229 282 L230,283 C230,283 229,282 229,282  Z"/>

<path  fill="#C8C8CB" stroke-width="0" stroke="#C8C8CB" d = " M168 288 C168,289.579 165.145,289 164,289 164,289 159,287 159,287 159,285.366 154.635,283 159,283 160.818,283 168,285.517 168,288  Z"/>

<path  fill="#C8C8CB" stroke-width="0" stroke="#C8C8CB" d = " M288 288 C288,289.579 290.855,289 292,289 292,289 297,287 297,287 297,285.189 302.316,283 298,283 296.169,283 289,285.183 289,287 289,287 288,288 288,288  Z"/>

<path  fill="#FF9BCD" stroke-width="0" stroke="#FF9BCD" d = " M305 286 L304,287 C304,287 305,286 305,286  Z"/>

<path  fill="#CBC7CC" stroke-width="0" stroke="#CBC7CC" d = " M159 287 L164,289 C164,292.212 175,291.843 175,295.5 175,296.535 169.174,294.337 168.5,294 165.614,292.557 159,291.548 159,287  Z"/>

<path  fill="#FF9BCD" stroke-width="0" stroke="#FF9BCD" d = " M289 287 L288,288 C288,288 289,287 289,287  Z"/>

<path  fill="#CBC7CC" stroke-width="0" stroke="#CBC7CC" d = " M287 295 L288,295 C288,293.042 297,291.674 297,287 297,287 292,289 292,289 292,291.469 284.246,293.127 282.5,294 281.277,294.612 280.687,296.907 282.5,296 284.218,295.141 284.887,295 287,295  Z"/>

<path  fill="#C7C9C9" stroke-width="0" stroke="#C7C9C9" d = " M209 289 L214.5,288 C232.54,288 205.171,303.843 202,297.5 L207,291 C207,291 209,289 209,289  Z"/>

<path  fill="#C7C9C9" stroke-width="0" stroke="#C7C9C9" d = " M239 288 C239,289.465 234.606,289.711 236,292.5 238.258,297.016 245.034,298 249.5,298 250.663,298 255,298.549 255,296.5 255,293.288 242.425,288 239,288  Z"/>

<path  fill="#FF9BCD" stroke-width="0" stroke="#FF9BCD" d = " M209 289 C207.253,289 207,289.253 207,291 207,291 209,289 209,289  Z"/>

</g>
</svg>
