<svg xmlns="http://www.w3.org/2000/svg" xmlns:xlink="http://www.w3.org/1999/xlink"  viewBox="0 0 456 320">
<g>
<rect width="456" height="320" fill="#000000"  stroke-width="0" /> 
<path  fill="#1E9D5A" stroke-width="0" stroke="#1E9D5A" d = " M137 48 L137,55 C137,55 146.5,51 146.5,51 152.072,48.2141 178.751,41 185,41 185,41 186,41 186,41 186,41 186,35 186,35 181.218,35 155.685,40.9074 151.5,43 151.5,43 137,48 137,48  Z"/>

<path  fill="#1E9C59" stroke-width="0" stroke="#1E9C59" d = " M222 55 L223,55 C223,55 227,53 227,53 227,49.6845 223.838,47.3375 221.5,45 209.323,32.8235 204.763,35 186,35 186,35 186,41 186,41 186,41 191.5,39 191.5,39 199.916,34.7921 222,45.6119 222,55  Z"/>

<path  fill="#1E9C59" stroke-width="0" stroke="#1E9C59" d = " M229 52 L234,55 C234,52.9025 236.105,51.2904 237,49.5 239.93,43.6393 257.503,35.5015 264.5,39 264.5,39 271,41 271,41 271,41 271,35 271,35 255.561,35 246.722,32.7778 236,43.5 236,43.5 229,52 229,52  Z"/>

<path  fill="#1E9D5A" stroke-width="0" stroke="#1E9D5A" d = " M319 48 L320,55 C315.424,55 308.557,51.0284 304.5,49 300.369,46.9344 275.739,41 271,41 271,41 271,35 271,35 271,35 275.5,37 275.5,37 279.648,39.0738 286.332,36.9161 290.5,39 290.5,39 319,48 319,48  Z"/>

<path  fill="#1E9D58" stroke-width="0" stroke="#1E9D58" d = " M222 55 L216,58 C216,58 213.5,54 213.5,54 211.197,51.6969 208.186,51.3432 205.5,50 198.839,46.6694 189.864,54 184,54 184,50.8899 185,44.6532 185,41 185,41 186,41 186,41 186,41 191.5,39 191.5,39 199.916,34.7921 222,45.6119 222,55  Z"/>

<path  fill="#1E9D58" stroke-width="0" stroke="#1E9D58" d = " M234 55 L241,58 C241,43.1028 266.621,54 272,54 272,49.3274 271,46.3959 271,41 271,41 264.5,39 264.5,39 257.503,35.5015 239.93,43.6393 237,49.5 236.105,51.2904 234,52.9025 234,55  Z"/>

<path  fill="#1F9C58" stroke-width="0" stroke="#1F9C58" d = " M136 71 L136,78 C144.017,78 174.816,55 184,55 184,55 184,54 184,54 184,50.8899 185,44.6532 185,41 178.751,41 152.072,48.2141 146.5,51 146.5,51 137,55 137,55 137,55 136,55 136,55 136,59.816 136,65.2969 136,71  Z"/>

<path  fill="#1F9C58" stroke-width="0" stroke="#1F9C58" d = " M320 78 L321,78 C321,75.3041 320,74.1535 320,71 320,65.3689 320,61.1266 320,55 315.424,55 308.557,51.0284 304.5,49 300.369,46.9344 275.739,41 271,41 271,46.3959 272,49.3274 272,54 272,54 273,55 273,55 281.685,55 312.316,78 320,78  Z"/>

<path  fill="#197E64" stroke-width="0" stroke="#197E64" d = " M101 67 L104,71 C104,71 136,55 136,55 136,55 137,55 137,55 137,55 137,48 137,48 129.786,48 116.168,57.6661 109.5,61 107.918,61.7911 101,64.9422 101,67  Z"/>

<path  fill="#197E64" stroke-width="0" stroke="#197E64" d = " M355 66 L353,71 C348.089,71 326.671,55 320,55 320,55 319,48 319,48 326.27,48 339.782,57.6409 346.5,61 346.5,61 355,66 355,66  Z"/>

<path  fill="#1F9D58" stroke-width="0" stroke="#1F9D58" d = " M203 70 C199.664,70 195.939,64.7803 191.5,67 188.674,68.4132 184.139,73 181,73 181,66.7254 184,61.074 184,55 184,55 184,54 184,54 189.864,54 198.839,46.6694 205.5,50 208.186,51.3432 211.197,51.6969 213.5,54 213.5,54 216,58 216,58 216,58 216,59 216,59 213.309,59 203,67.9605 203,70  Z"/>

<path  fill="#1F9D58" stroke-width="0" stroke="#1F9D58" d = " M254 70 C256.991,70 260.155,64.8274 264.5,67 L275,73 C275,66.2861 273,61.5099 273,55 273,55 272,54 272,54 266.621,54 241,43.1028 241,58 241,58 241,59 241,59 245.896,59 249.47,70 254,70  Z"/>

<path  fill="#3EA665" stroke-width="0" stroke="#3EA665" d = " M223 81 L234,81 C234,81 234,55 234,55 234,55 229,52 229,52 229,54.7292 228.577,53 227,53 227,53 223,55 223,55 223,55 223,81 223,81  Z"/>

<path  fill="#197F61" stroke-width="0" stroke="#197F61" d = " M105 74 L111,82 C112.833,82 130.925,71 136,71 136,65.2969 136,59.816 136,55 136,55 104,71 104,71 104,71 104,72 104,72 104,72 105,74 105,74  Z"/>

<path  fill="#1E9C5A" stroke-width="0" stroke="#1E9C5A" d = " M136 78 L136,93 C138.785,93 163.793,82.8537 167.5,81 167.5,81 181,73 181,73 181,66.7254 184,61.074 184,55 174.816,55 144.017,78 136,78  Z"/>

<path  fill="#40A565" stroke-width="0" stroke="#40A565" d = " M223 81 L217,82 C217,82 217,64.5 217,64.5 217,63.2221 217.665,59 216,59 216,59 216,58 216,58 216,58 222,55 222,55 222,55 223,55 223,55 223,55 223,81 223,81  Z"/>

<path  fill="#40A565" stroke-width="0" stroke="#40A565" d = " M234 81 L239,82 C239,82 239,64 239,64 239,62.5758 239.362,59 241,59 241,59 241,58 241,58 241,58 234,55 234,55 234,55 234,81 234,81  Z"/>

<path  fill="#1E9C5A" stroke-width="0" stroke="#1E9C5A" d = " M320 78 C320,83.9652 320,87.8015 320,93 312.33,93 281.156,74 276,74 276,74 275,73 275,73 275,66.2861 273,61.5099 273,55 281.685,55 312.316,78 320,78  Z"/>

<path  fill="#197F61" stroke-width="0" stroke="#197F61" d = " M352 73 L346,82 C341.779,82 326.766,71 320,71 320,65.3689 320,61.1266 320,55 326.671,55 348.089,71 353,71 353,71 353,72 353,72 353,72 352,73 352,73  Z"/>

<path  fill="#3EA566" stroke-width="0" stroke="#3EA566" d = " M217 83 C212.23,83 209.276,88 205,88 205,88 203,71 203,71 203,71 203,70 203,70 203,67.9605 213.309,59 216,59 217.665,59 217,63.2221 217,64.5 217,64.5 217,82 217,82 217,82 217,83 217,83  Z"/>

<path  fill="#3EA566" stroke-width="0" stroke="#3EA566" d = " M239 82 C243.476,82 248.043,89 252,89 252,85.8047 251.871,71 254,71 254,71 254,70 254,70 249.47,70 245.896,59 241,59 239.362,59 239,62.5758 239,64 239,64 239,82 239,82  Z"/>

<path  fill="#1B8062" stroke-width="0" stroke="#1B8062" d = " M353 71 L353,72 C354.803,72 356,68.4082 356,67 356,67 355,66 355,66 355,66 353,71 353,71  Z"/>

<path  fill="#187E61" stroke-width="0" stroke="#187E61" d = " M55 135 L59,135 C60.3529,135 61,130.357 61,129 61,126.152 63.6677,118.165 65,115.5 69.8355,105.829 82.0415,85.2292 92.5,80 96.022,78.239 98.8458,73 103,73 103,73 103,72 103,72 103,70.688 100,69.554 100,67 97.2603,67 85.1404,78.3596 82.5,81 68.4034,95.0966 55,115.2 55,135  Z"/>

<path  fill="#1B8062" stroke-width="0" stroke="#1B8062" d = " M103 72 L104,72 C104,72 104,71 104,71 104,71 101,67 101,67 101,67 100,67 100,67 100,69.554 103,70.688 103,72  Z"/>

<path  fill="#1D9C5A" stroke-width="0" stroke="#1D9C5A" d = " M187 93 L180,95 C180,92.3187 177.408,86.6835 179,83.5 180.418,80.6635 181,76.3309 181,73 184.139,73 188.674,68.4132 191.5,67 195.939,64.7803 199.664,70 203,70 203,70 203,71 203,71 199.408,71 191,87.8382 191,92 191,92 190,92 190,92 188.952,92 187,91.5271 187,93  Z"/>

<path  fill="#1D9C5A" stroke-width="0" stroke="#1D9C5A" d = " M276 95 L277,95 C277,95 276,74 276,74 276,74 275,73 275,73 275,73 264.5,67 264.5,67 260.155,64.8274 256.991,70 254,70 254,70 254,71 254,71 256.359,71 266,88.4844 266,92 269.606,92 272.972,95 276,95  Z"/>

<path  fill="#187E61" stroke-width="0" stroke="#187E61" d = " M401 135 L397,136 C397,123.733 377.882,88.191 367.5,83 362.648,80.5739 358.71,73 353,73 353,73 353,72 353,72 354.803,72 356,68.4082 356,67 361.971,67 367.182,76.841 371.5,79 384.777,85.6386 401,118.276 401,135  Z"/>

<path  fill="#1A7F63" stroke-width="0" stroke="#1A7F63" d = " M111 83 C111,85.7841 115,87.4697 115,89 122.694,89 128.704,78 136,78 136,78 136,71 136,71 130.925,71 112.833,82 111,82 111,82 111,83 111,83  Z"/>

<path  fill="#3FA664" stroke-width="0" stroke="#3FA664" d = " M191 92 C191,93.5389 195,94.1867 195,97 199.18,97 200.37,89 205,89 205,89 205,88 205,88 205,88 203,71 203,71 199.408,71 191,87.8382 191,92  Z"/>

<path  fill="#3FA664" stroke-width="0" stroke="#3FA664" d = " M263 95 L261,97 C257.602,97 255.87,90 252,90 252,90 252,89 252,89 252,85.8047 251.871,71 254,71 256.359,71 266,88.4844 266,92 266,92 266,93 266,93 263.997,93 263,92.7065 263,95  Z"/>

<path  fill="#1A7F63" stroke-width="0" stroke="#1A7F63" d = " M346 83 L341,89 C336.315,89 329.616,83.0581 325.5,81 325.5,81 321,78 321,78 321,75.3041 320,74.1535 320,71 326.766,71 341.779,82 346,82 346,82 346,83 346,83  Z"/>

<path  fill="#1C7F63" stroke-width="0" stroke="#1C7F63" d = " M103 73 L105,74 C105,74 104,72 104,72 104,72 103,72 103,72 103,72 103,73 103,73  Z"/>

<path  fill="#1C7F63" stroke-width="0" stroke="#1C7F63" d = " M352 73 C352,74.1859 353,74.1859 353,73 353,73 353,72 353,72 353,72 352,73 352,73  Z"/>

<path  fill="#1A7E64" stroke-width="0" stroke="#1A7E64" d = " M59 136 L69,140 C69,128.887 83.0108,100.245 93.5,95 99.8013,91.8493 103.462,83 111,83 111,83 111,82 111,82 111,82 105,74 105,74 105,74 103,73 103,73 98.8458,73 96.022,78.239 92.5,80 82.0415,85.2292 69.8355,105.829 65,115.5 63.6677,118.165 61,126.152 61,129 61,130.357 60.3529,135 59,135 59,135 59,136 59,136  Z"/>

<path  fill="#1F9B5A" stroke-width="0" stroke="#1F9B5A" d = " M144 111 L136,113 C136,106.127 136,100.616 136,93 138.785,93 163.793,82.8537 167.5,81 167.5,81 181,73 181,73 181,76.3309 180.418,80.6635 179,83.5 177.408,86.6835 180,92.3187 180,95 180,95 176,97 176,97 174.576,97 171,97.3616 171,99 169.535,99 167,98.891 167,101 164.748,101 153,104.596 153,107 151.535,107 149,106.891 149,109 147.378,109 144,108.539 144,111  Z"/>

<path  fill="#1A7E64" stroke-width="0" stroke="#1A7E64" d = " M397 136 C393.343,136 391.116,140 387,140 387,125.841 371.568,97.5339 358.5,91 354.333,88.9166 350.902,83 346,83 346,83 346,82 346,82 346,82 352,73 352,73 352,74.1859 353,74.1859 353,73 358.71,73 362.648,80.5739 367.5,83 377.882,88.191 397,123.733 397,136  Z"/>

<path  fill="#1F9B5A" stroke-width="0" stroke="#1F9B5A" d = " M277 95 L321,114 C321,107.607 320,99.4664 320,93 312.33,93 281.156,74 276,74 276,74 277,95 277,95  Z"/>

<path  fill="#187E62" stroke-width="0" stroke="#187E62" d = " M121 100 L122,100 C122,100 136,93 136,93 136,93 136,78 136,78 128.704,78 122.694,89 115,89 115,89 115,90 115,90 115,93.6763 121,95.589 121,100  Z"/>

<path  fill="#187E62" stroke-width="0" stroke="#187E62" d = " M334 100 L335,100 C335,96.7701 341,93.7389 341,90 341,90 341,89 341,89 336.315,89 329.616,83.0581 325.5,81 325.5,81 321,78 321,78 321,78 320,78 320,78 320,83.9652 320,87.8015 320,93 322.11,93 334,98.2034 334,100  Z"/>

<path  fill="#3FA566" stroke-width="0" stroke="#3FA566" d = " M221 116 L218,117 C218,117 217,83 217,83 217,83 217,82 217,82 217,82 223,81 223,81 223,91.6805 222,102.946 222,113 222,113 221,116 221,116  Z"/>

<path  fill="#40A664" stroke-width="0" stroke="#40A664" d = " M229 108 C231.832,108 231.953,113 234,113 234,102.435 234,91.7001 234,81 234,81 223,81 223,81 223,91.6805 222,102.946 222,113 222,113 227,108 227,108 227,104.85 229,104.554 229,108  Z"/>

<path  fill="#3FA566" stroke-width="0" stroke="#3FA566" d = " M235 115 C236.481,115 235.785,117 238,117 238,106.1 239,93.5734 239,82 239,82 234,81 234,81 234,91.7001 234,102.435 234,113 234,113 235,115 235,115  Z"/>

<path  fill="#3EA666" stroke-width="0" stroke="#3EA666" d = " M247 114 C247,117.01 240.325,117 238,117 238,106.1 239,93.5734 239,82 243.476,82 248.043,89 252,89 252,89 252,90 252,90 250.223,90 251,99.7173 251,101.5 251,101.5 247,114 247,114  Z"/>

<path  fill="#1B7F62" stroke-width="0" stroke="#1B7F62" d = " M74 143 L75,143 C75,131.641 93.9167,102.292 104.5,97 104.5,97 115,90 115,90 115,90 115,89 115,89 115,87.4697 111,85.7841 111,83 103.462,83 99.8013,91.8493 93.5,95 83.0108,100.245 69,128.887 69,140 69,140 69,141 69,141 70.0411,141 74,141.986 74,143  Z"/>

<path  fill="#3EA666" stroke-width="0" stroke="#3EA666" d = " M209 113 C209,116.745 215.446,117 218,117 218,117 217,83 217,83 212.23,83 209.276,88 205,88 205,88 205,89 205,89 205,98.3213 209,106.216 209,113  Z"/>

<path  fill="#1B7F62" stroke-width="0" stroke="#1B7F62" d = " M381 143 L382,143 C382,143 387,141 387,141 387,141 387,140 387,140 387,125.841 371.568,97.5339 358.5,91 354.333,88.9166 350.902,83 346,83 346,83 341,89 341,89 341,89 341,90 341,90 344.945,90 348.111,95.3056 351.5,97 363.261,102.881 381,130.485 381,143  Z"/>

<path  fill="#40A564" stroke-width="0" stroke="#40A564" d = " M207 113 L209,113 C209,106.216 205,98.3213 205,89 200.37,89 199.18,97 195,97 195,97 195,98 195,98 195,98 197,99.5 197,99.5 198.164,101.829 206,108.725 206,111 206,111 207,113 207,113  Z"/>

<path  fill="#1B7E63" stroke-width="0" stroke="#1B7E63" d = " M75 143 C78.8321,143 81.7265,148 86,148 86,140.055 96.194,114.653 103.5,111 107.084,109.208 114.354,105.146 117,102.5 117,102.5 121,100 121,100 121,95.589 115,93.6763 115,90 115,90 104.5,97 104.5,97 93.9167,102.292 75,131.641 75,143  Z"/>

<path  fill="#40A564" stroke-width="0" stroke="#40A564" d = " M249 113 L247,114 C247,114 251,101.5 251,101.5 251,99.7173 250.223,90 252,90 255.87,90 257.602,97 261,97 261,97 261,98 261,98 261,98 261,99 261,99 259.383,99 257,103.583 257,105 255.253,105 255,105.253 255,107 253.253,107 253,107.253 253,109 251.253,109 251,109.253 251,111 251,111 249,113 249,113  Z"/>

<path  fill="#1B7E63" stroke-width="0" stroke="#1B7E63" d = " M370 148 L371,148 C371,148 381,143 381,143 381,130.485 363.261,102.881 351.5,97 348.111,95.3056 344.945,90 341,90 341,93.7389 335,96.7701 335,100 335,101.183 338.57,101.535 339.5,102 339.5,102 353,111.5 353,111.5 361.674,120.174 370,134.824 370,148  Z"/>

<path  fill="#1E9C58" stroke-width="0" stroke="#1E9C58" d = " M187 93 L190,93 C190,93 190,92 190,92 188.952,92 187,91.5271 187,93  Z"/>

<path  fill="#3FA466" stroke-width="0" stroke="#3FA466" d = " M195 97 L195,98 C195,98 190,93 190,93 190,93 190,92 190,92 190,92 191,92 191,92 191,93.5389 195,94.1867 195,97  Z"/>

<path  fill="#1E9C58" stroke-width="0" stroke="#1E9C58" d = " M276 95 L276,96 C272.586,96 269.647,93 266,93 266,93 266,92 266,92 269.606,92 272.972,95 276,95  Z"/>

<path  fill="#197D61" stroke-width="0" stroke="#197D61" d = " M132 116 L133,116 C133,116 135,115 135,115 135,115 135,114 135,114 135,114 136,113 136,113 136,106.127 136,100.616 136,93 136,93 122,100 122,100 122,100 132,116 132,116  Z"/>

<path  fill="#1E9C58" stroke-width="0" stroke="#1E9C58" d = " M180 95 L180,96 C181.345,96 187,94.4295 187,93 187,93 180,95 180,95  Z"/>

<path  fill="#CACCC7" stroke-width="0" stroke="#CACCC7" d = " M206 111 L207,113 C198.072,113 194.484,101.492 187.5,98 181.759,95.1297 174.238,103 169,103 169,103 168,104 168,104 168,104 167,104 167,104 167,104 165,105 165,105 165,105 161,105 161,105 161,105 167,101 167,101 168.465,101 171,101.109 171,99 172.622,99 176,99.4606 176,97 177.145,97 180,97.5791 180,96 181.345,96 187,94.4295 187,93 187,93 190,93 190,93 190,93 195,98 195,98 195,101.806 201.653,111 206,111  Z"/>

<path  fill="#3FA466" stroke-width="0" stroke="#3FA466" d = " M266 93 C263.997,93 263,92.7065 263,95 263,95 266,93 266,93  Z"/>

<path  fill="#CACCC7" stroke-width="0" stroke="#CACCC7" d = " M251 111 L249,113 C258.581,113 259.73,102.385 266.5,99 274.214,95.1431 280.046,103 287,103 287,103 295,105 295,105 295,105 291,102.5 291,102.5 291,102.5 276,96 276,96 272.586,96 269.647,93 266,93 266,93 263,95 263,95 263,95 262,98 262,98 262,98 261,99 261,99 261,101.244 259.275,105 257,105 257,106.747 256.747,107 255,107 255,108.747 254.747,109 253,109 253,109 251,111 251,111  Z"/>

<path  fill="#197D61" stroke-width="0" stroke="#197D61" d = " M321 114 L324,116 C324,113.51 334,104.026 334,100 334,98.2034 322.11,93 320,93 320,99.4664 321,107.607 321,114  Z"/>

<path  fill="#1D9D5A" stroke-width="0" stroke="#1D9D5A" d = " M180 96 C180,97.5791 177.145,97 176,97 176,97 180,95 180,95 180,95 180,96 180,96  Z"/>

<path  fill="#3FA466" stroke-width="0" stroke="#3FA466" d = " M261 98 L262,98 C262,98 263,95 263,95 263,95 261,97 261,97 261,97 261,98 261,98  Z"/>

<path  fill="#1D9D5A" stroke-width="0" stroke="#1D9D5A" d = " M321 114 L321,115 C311.875,115 304.285,105 295,105 295,105 291,102.5 291,102.5 291,102.5 276,96 276,96 276,96 276,95 276,95 276,95 277,95 277,95 277,95 321,114 321,114  Z"/>

<path  fill="#1D9D5A" stroke-width="0" stroke="#1D9D5A" d = " M176 97 C174.576,97 171,97.3616 171,99 172.622,99 176,99.4606 176,97  Z"/>

<path  fill="#C9C7C9" stroke-width="0" stroke="#C9C7C9" d = " M355 165 L356,165 C356,165 356,164 356,164 356,164 355,163 355,163 355,163 355,161 355,161 355,161 354,159 354,159 354,159 354,158 354,158 354,158 353,157 353,157 353,157 353,155 353,155 353,155 351,151 351,151 351,151 351,149 351,149 349.423,149 349,147.238 349,146 349,146 349,145 349,145 347.189,145 341.885,135.271 341,133.5 337.44,126.38 326.672,120.086 320.5,117 320.5,117 296.5,107 296.5,107 294.794,106.147 287,105.51 287,103 280.046,103 274.214,95.1431 266.5,99 259.73,102.385 258.581,113 249,113 249,113 247,114 247,114 247,117.01 240.325,117 238,117 235.785,117 236.481,115 235,115 235,120.825 229.156,116 228.5,116 227.985,116 221,120.03 221,116 221,116 218,117 218,117 215.446,117 209,116.745 209,113 209,113 207,113 207,113 198.072,113 194.484,101.492 187.5,98 181.759,95.1297 174.238,103 169,103 169,103 168,104 168,104 168,104 167,104 167,104 167,104 165,105 165,105 165,106.722 159.765,107.368 158.5,108 154.14,110.18 139.339,117 135,117 135,118.743 124.719,125 123,125 123,126.747 122.747,127 121,127 121,128.747 120.747,129 119,129 119,130.747 118.747,131 117,131 117,132.429 115.712,135 114,135 114,135 113,136 113,136 113,137.238 112.577,139 111,139 111,139 110,141 110,141 110,141 109,143 109,143 109,144.238 108.577,146 107,146 107,146 107,147 107,147 107,147 105,151 105,151 105,151 104,153 104,153 104,153 104,154 104,154 104,154 103,156 103,156 103,156 103,157 103,157 103,157 102,159 102,159 102,159 102,160 102,160 102,160 101,162 101,162 101,162 101,165 101,165 101,165 101,166 101,166 102.177,166 104.326,157.848 105,156.5 108.703,149.093 112.567,135.466 121.5,131 127.055,128.223 133.674,122.413 140.5,119 140.5,119 162.5,113 162.5,113 168.81,109.845 179.603,115 185,115 186.937,115 193,116.553 193,119 193,119 194,119 194,119 194,119 196,121 196,121 198.768,121 206,125.983 206,129 208.597,129 211.518,127.509 214.5,129 214.5,129 222,133 222,133 222,133 224,134 224,134 224,134 225,134 225,134 225,131.938 231,129.934 231,134 231,134 233,134 233,134 233,134 235,133 235,133 235,128.744 247.878,129 250,129 250,129 254,125 254,125 254,125 255,124 255,124 255,124 260,121 260,121 260,121 261,120 261,120 261,120 263,119 263,119 263,116.891 265.535,117 267,117 267,114.891 269.535,115 271,115 276.617,115 287.984,109.742 294.5,113 299.339,115.419 305.721,114.61 310.5,117 317.17,120.335 323.769,123.634 330.5,127 340.947,132.224 346.706,146.912 351,155.5 351.674,156.848 353.823,165 355,165  Z"/>

<path  fill="#40A465" stroke-width="0" stroke="#40A465" d = " M195 98 L197,99.5 C198.164,101.829 206,108.725 206,111 201.653,111 195,101.806 195,98  Z"/>

<path  fill="#40A465" stroke-width="0" stroke="#40A465" d = " M262 98 L261,99 C261,99 261,98 261,98 261,98 262,98 262,98  Z"/>

<path  fill="#1D9D5A" stroke-width="0" stroke="#1D9D5A" d = " M171 99 C169.535,99 167,98.891 167,101 168.465,101 171,101.109 171,99  Z"/>

<path  fill="#40A465" stroke-width="0" stroke="#40A465" d = " M261 99 C259.383,99 257,103.583 257,105 259.275,105 261,101.244 261,99  Z"/>

<path  fill="#187D61" stroke-width="0" stroke="#187D61" d = " M86 148 C89.0023,148 101,151.971 101,155 101.316,155 107.707,137 111,137 111,134.418 114.577,129 117,129 117,123.91 132,116.245 132,116 132,116 122,100 122,100 122,100 121,100 121,100 121,100 117,102.5 117,102.5 114.354,105.146 107.084,109.208 103.5,111 96.194,114.653 86,140.055 86,148  Z"/>

<path  fill="#187D61" stroke-width="0" stroke="#187D61" d = " M370 148 C365.531,148 358.397,154 355,154 355,146.28 332.954,116 324,116 324,113.51 334,104.026 334,100 334,100 335,100 335,100 335,101.183 338.57,101.535 339.5,102 339.5,102 353,111.5 353,111.5 361.674,120.174 370,134.824 370,148  Z"/>

<path  fill="#1D9D5A" stroke-width="0" stroke="#1D9D5A" d = " M161 105 L153,107 C153,104.596 164.748,101 167,101 167,101 161,105 161,105  Z"/>

<path  fill="#C9C9CA" stroke-width="0" stroke="#C9C9CA" d = " M169 103 L168,104 C168,104 169,103 169,103  Z"/>

<path  fill="#C9C9CA" stroke-width="0" stroke="#C9C9CA" d = " M324 117 C324,118.806 330.538,121.038 332,122.5 336.268,126.768 349,139.655 349,145 347.189,145 341.885,135.271 341,133.5 337.44,126.38 326.672,120.086 320.5,117 320.5,117 296.5,107 296.5,107 294.794,106.147 287,105.51 287,103 287,103 295,105 295,105 304.285,105 311.875,115 321,115 321,116.577 322.762,117 324,117  Z"/>

<path  fill="#C9C9CA" stroke-width="0" stroke="#C9C9CA" d = " M167 104 L165,105 C165,105 167,104 167,104  Z"/>

<path  fill="#C9C9CA" stroke-width="0" stroke="#C9C9CA" d = " M135 116 L135,117 C139.339,117 154.14,110.18 158.5,108 159.765,107.368 165,106.722 165,105 165,105 161,105 161,105 161,105 153,107 153,107 153,109.109 150.465,109 149,109 149,110.638 145.424,111 144,111 144,112.327 136.25,116 135,116  Z"/>

<path  fill="#40A465" stroke-width="0" stroke="#40A465" d = " M257 105 C255.253,105 255,105.253 255,107 256.747,107 257,106.747 257,105  Z"/>

<path  fill="#1D9D5A" stroke-width="0" stroke="#1D9D5A" d = " M153 107 C151.535,107 149,106.891 149,109 150.465,109 153,109.109 153,107  Z"/>

<path  fill="#40A465" stroke-width="0" stroke="#40A465" d = " M255 107 C253.253,107 253,107.253 253,109 254.747,109 255,108.747 255,107  Z"/>

<path  fill="#7ED04B" stroke-width="0" stroke="#7ED04B" d = " M235 115 C235,120.825 229.156,116 228.5,116 227.985,116 221,120.03 221,116 221,116 222,113 222,113 222,113 227,108 227,108 227,109.399 229,109.399 229,108 231.832,108 231.953,113 234,113 234,113 235,115 235,115  Z"/>

<path  fill="#1D9D5A" stroke-width="0" stroke="#1D9D5A" d = " M149 109 C147.378,109 144,108.539 144,111 145.424,111 149,110.638 149,109  Z"/>

<path  fill="#40A465" stroke-width="0" stroke="#40A465" d = " M253 109 C251.253,109 251,109.253 251,111 251,111 253,109 253,109  Z"/>

<path  fill="#1D9D5A" stroke-width="0" stroke="#1D9D5A" d = " M135 115 L135,116 C136.25,116 144,112.327 144,111 144,111 136,113 136,113 136,113 135,114 135,114 135,114 135,115 135,115  Z"/>

<path  fill="#1F9B5A" stroke-width="0" stroke="#1F9B5A" d = " M136 113 L135,114 C135,114 136,113 136,113  Z"/>

<path  fill="#98D5F9" stroke-width="0" stroke="#98D5F9" d = " M123 231 L132,235 C145.743,235 167.781,237.937 175,223.5 176.336,220.827 175.708,217.084 177,214.5 177,214.5 180,210 180,210 180,210 188,201 188,201 188,201 188,200 188,200 188,200 189,199 189,199 189,199 191,195 191,195 191,188.097 192,180.228 192,174 192,174 193,160 193,160 193,160 194,159 194,159 194,159 194,157 194,157 194,149.163 196.675,138.85 193,131.5 193,131.5 187,118 187,118 187,116.519 185,117.215 185,115 179.603,115 168.81,109.845 162.5,113 162.5,113 140.5,119 140.5,119 133.674,122.413 127.055,128.223 121.5,131 112.567,135.466 108.703,149.093 105,156.5 104.326,157.848 102.177,166 101,166 101,166 101,184.5 101,184.5 102.479,187.458 109,209.274 109,212 109,212 111,218 111,218 111,218 113,220 113,220 113,220 113,221 113,221 113,221 119,227 119,227 119,227 123,231 123,231  Z"/>

<path  fill="#98D5F9" stroke-width="0" stroke="#98D5F9" d = " M333 231 L325,235 C309.886,235 288.579,237.658 281,222.5 281,222.5 280,217.5 280,217.5 279.421,216.343 277,212.009 277,211 277,209.568 270.739,202 269,202 269,202 269,201 269,201 269,201 268,200 268,200 268,200 267,199 267,199 267,199 266,194 266,194 266,187.113 265,178.564 265,171 265,167.235 263,163.228 263,159 263,159 263,157 263,157 263,157 262,156 262,156 262,156 262,155 262,155 262,148.574 260.272,137.956 263,132.5 263,132.5 269,118 269,118 270.577,118 271,116.238 271,115 276.617,115 287.984,109.742 294.5,113 299.339,115.419 305.721,114.61 310.5,117 317.17,120.335 323.769,123.634 330.5,127 340.947,132.224 346.706,146.912 351,155.5 351.674,156.848 353.823,165 355,165 355,171.48 357.698,181.104 355,186.5 351.984,192.532 349,201.978 349,209 349,209 349,210 349,210 349,210 348,211 348,211 348,211 348,212 348,212 348,212 347,213 347,213 347,213 344,219 344,219 344,219 343,221 343,221 343,221 342,222 342,222 342,222 341,223 341,223 341,223 340,225 340,225 340,225 339,226 339,226 339,226 338,227 338,227 338,227 334,230 334,230 334,230 333,231 333,231  Z"/>

<path  fill="#1C8064" stroke-width="0" stroke="#1C8064" d = " M324 116 L324,117 C322.762,117 321,116.577 321,115 321,115 321,114 321,114 321,114 324,116 324,116  Z"/>

<path  fill="#1C8064" stroke-width="0" stroke="#1C8064" d = " M133 117 L135,117 C135,117 135,116 135,116 135,116 135,115 135,115 135,115 133,116 133,116 133,116 133,117 133,117  Z"/>

<path  fill="#AAA8A9" stroke-width="0" stroke="#AAA8A9" d = " M187 118 C189.724,118 190.276,119 193,119 193,116.553 186.937,115 185,115 185,117.215 187,116.519 187,118  Z"/>

<path  fill="#AAA8A9" stroke-width="0" stroke="#AAA8A9" d = " M267 117 L269,118 C270.577,118 271,116.238 271,115 269.535,115 267,114.891 267,117  Z"/>

<path  fill="#188064" stroke-width="0" stroke="#188064" d = " M117 129 L119,129 C119,127.253 119.253,127 121,127 121,125.253 121.253,125 123,125 123,120.838 133,119.662 133,117 133,117 133,116 133,116 133,116 132,116 132,116 132,116.245 117,123.91 117,129  Z"/>

<path  fill="#188064" stroke-width="0" stroke="#188064" d = " M354 159 L355,159 C355,159 355,157 355,157 355,157 355,154 355,154 355,146.28 332.954,116 324,116 324,116 324,117 324,117 324,118.806 330.538,121.038 332,122.5 336.268,126.768 349,139.655 349,145 349,145 349,146 349,146 350.577,146 351,147.762 351,149 351,149 351,151 351,151 351,151 353,155 353,155 353,155 353,157 353,157 353,157 354,158 354,158 354,158 354,159 354,159  Z"/>

<path  fill="#C9C9CA" stroke-width="0" stroke="#C9C9CA" d = " M135 117 C135,118.743 124.719,125 123,125 123,120.838 133,119.662 133,117 133,117 135,117 135,117  Z"/>

<path  fill="#A8AAAA" stroke-width="0" stroke="#A8AAAA" d = " M195 155 L194,157 C194,149.163 196.675,138.85 193,131.5 193,131.5 187,118 187,118 189.724,118 190.276,119 193,119 193,119 194,119 194,119 194,119 196,121 196,121 198.768,121 206,125.983 206,129 206,135.143 197,140.619 197,149 196.087,149 195,154.014 195,155  Z"/>

<path  fill="#AAA8A9" stroke-width="0" stroke="#AAA8A9" d = " M267 117 C265.535,117 263,116.891 263,119 263,119 267,117 267,117  Z"/>

<path  fill="#A8AAAA" stroke-width="0" stroke="#A8AAAA" d = " M260 148 C260,149.296 260.825,155 262,155 262,148.574 260.272,137.956 263,132.5 263,132.5 269,118 269,118 269,118 267,117 267,117 267,117 263,119 263,119 263,119 261,120 261,120 261,120 260,121 260,121 260,121 255,124 255,124 255,124 254,125 254,125 254,125 250,129 250,129 250,133.618 260,141.8 260,148  Z"/>

<path  fill="#AAA8A9" stroke-width="0" stroke="#AAA8A9" d = " M194 119 L196,121 C196,121 194,119 194,119  Z"/>

<path  fill="#AAA8A9" stroke-width="0" stroke="#AAA8A9" d = " M263 119 L261,120 C261,120 263,119 263,119  Z"/>

<path  fill="#AAA8A9" stroke-width="0" stroke="#AAA8A9" d = " M261 120 L260,121 C260,121 261,120 261,120  Z"/>

<path  fill="#AAA8A9" stroke-width="0" stroke="#AAA8A9" d = " M255 124 L254,125 C254,125 255,124 255,124  Z"/>

<path  fill="#C9C9CA" stroke-width="0" stroke="#C9C9CA" d = " M123 125 C121.253,125 121,125.253 121,127 122.747,127 123,126.747 123,125  Z"/>

<path  fill="#C9C9CA" stroke-width="0" stroke="#C9C9CA" d = " M121 127 C119.253,127 119,127.253 119,129 120.747,129 121,128.747 121,127  Z"/>

<path  fill="#90CBEC" stroke-width="0" stroke="#90CBEC" d = " M197 149 C198.375,149 199.625,149 201,149 203.477,149 203.522,146.989 205.5,146 208.138,144.681 221,139.705 221,136 221,136 222,135 222,135 222,135 222,133 222,133 222,133 214.5,129 214.5,129 211.518,127.509 208.597,129 206,129 206,135.143 197,140.619 197,149  Z"/>

<path  fill="#90CBEC" stroke-width="0" stroke="#90CBEC" d = " M254 149 L255,149 C257.688,149 258.418,148 260,148 260,141.8 250,133.618 250,129 247.878,129 235,128.744 235,133 235,133 235,136 235,136 235,139.74 253,145.144 253,148 253,148 254,149 254,149  Z"/>

<path  fill="#188064" stroke-width="0" stroke="#188064" d = " M113 136 L111,137 C111,134.418 114.577,129 117,129 117,129 117,131 117,131 115.288,131 114,133.571 114,135 114,135 113,136 113,136  Z"/>

<path  fill="#C9C9CA" stroke-width="0" stroke="#C9C9CA" d = " M119 129 C119,130.747 118.747,131 117,131 117,131 117,129 117,129 117,129 119,129 119,129  Z"/>

<path  fill="#C9C9CA" stroke-width="0" stroke="#C9C9CA" d = " M117 131 C115.288,131 114,133.571 114,135 115.712,135 117,132.429 117,131  Z"/>

<path  fill="#97D6F9" stroke-width="0" stroke="#97D6F9" d = " M225 134 C227.413,134 228.587,134 231,134 231,129.934 225,131.938 225,134  Z"/>

<path  fill="#97D6F9" stroke-width="0" stroke="#97D6F9" d = " M224 134 L222,135 C222,135 222,133 222,133 222,133 224,134 224,134  Z"/>

<path  fill="#97D6F9" stroke-width="0" stroke="#97D6F9" d = " M233 134 L235,136 C235,136 235,133 235,133 235,133 233,134 233,134  Z"/>

<path  fill="#90CAED" stroke-width="0" stroke="#90CAED" d = " M220 197 L221,197 C221,185.174 225,174.589 225,163 225,163 226,161 226,161 226,159.596 227.022,149 228.5,149 228.5,149 229,155.5 229,155.5 229,155.5 231,161 231,161 231,173.796 236,186.073 236,199 236.277,199 241.65,190.85 243,189.5 243,189.5 259.5,174 259.5,174 259.5,174 264,175 264,175 264,173.855 263.421,171 265,171 265,167.235 263,163.228 263,159 263,159 255,149 255,149 255,149 254,149 254,149 254,149 253,148 253,148 253,145.144 235,139.74 235,136 235,136 233,134 233,134 233,134 231,134 231,134 228.587,134 227.413,134 225,134 225,134 224,134 224,134 224,134 222,135 222,135 222,135 221,136 221,136 221,139.705 208.138,144.681 205.5,146 203.522,146.989 203.477,149 201,149 201,150.935 196.935,155 195,155 195,155 194,157 194,157 194,157 194,159 194,159 194,159 193,160 193,160 193,160 192,174 192,174 192,174 193,175 193,175 193,175 196.5,174 196.5,174 196.5,174 212.5,189 212.5,189 212.5,189 220,197 220,197  Z"/>

<path  fill="#1A7E62" stroke-width="0" stroke="#1A7E62" d = " M55 176 L51,177 C51,171.063 45.7565,159.987 49,153.5 49,153.5 55,135 55,135 55,135 59,135 59,135 59,135 59,136 59,136 59,140.948 57.1113,147.277 55,151.5 52.3253,156.849 55,169.672 55,176  Z"/>

<path  fill="#C9C9CA" stroke-width="0" stroke="#C9C9CA" d = " M114 135 L113,136 C113,136 114,135 114,135  Z"/>

<path  fill="#97D6F9" stroke-width="0" stroke="#97D6F9" d = " M222 135 L221,136 C221,136 222,135 222,135  Z"/>

<path  fill="#1A7E62" stroke-width="0" stroke="#1A7E62" d = " M401 176 L405,177 C405,177 407,172.5 407,172.5 409.559,167.383 406.031,146.562 404,142.5 403.3,141.099 402.961,135 401,135 401,135 397,136 397,136 397,139.744 399.336,146.173 401,149.5 403.98,155.46 401,168.627 401,175 401,175 401,176 401,176  Z"/>

<path  fill="#1B8063" stroke-width="0" stroke="#1B8063" d = " M56 176 C56,173.627 58.2844,176 59,176 59,176 61,175 61,175 61,175 65,174 65,174 65,162.32 69,151.879 69,141 69,141 69,140 69,140 69,140 59,136 59,136 59,140.948 57.1113,147.277 55,151.5 52.3253,156.849 55,169.672 55,176 55,176 56,176 56,176  Z"/>

<path  fill="#C9C9CA" stroke-width="0" stroke="#C9C9CA" d = " M111 137 L111,139 C112.577,139 113,137.238 113,136 113,136 111,137 111,137  Z"/>

<path  fill="#1B8063" stroke-width="0" stroke="#1B8063" d = " M395 175 L401,175 C401,168.627 403.98,155.46 401,149.5 399.336,146.173 397,139.744 397,136 393.343,136 391.116,140 387,140 387,140 387,141 387,141 389.144,141 387.381,145.262 388,146.5 391.599,153.697 391,164.374 391,173 391,173 391,174 391,174 391,174 395,175 395,175  Z"/>

<path  fill="#188064" stroke-width="0" stroke="#188064" d = " M102 157 L103,157 C103,157 103,156 103,156 103,156 104,154 104,154 104,154 104,153 104,153 104,153 105,151 105,151 105,149.535 104.891,147 107,147 107,147 107,146 107,146 107,144.762 107.423,143 109,143 109,143 110,141 110,141 110,141 111,139 111,139 111,139 111,137 111,137 107.707,137 101.316,155 101,155 101,155 101,157 101,157 101,157 102,157 102,157  Z"/>

<path  fill="#C9C9CA" stroke-width="0" stroke="#C9C9CA" d = " M111 139 L110,141 C110,141 111,139 111,139  Z"/>

<path  fill="#187C63" stroke-width="0" stroke="#187C63" d = " M70 173 L65,174 C65,162.32 69,151.879 69,141 70.0411,141 74,141.986 74,143 74,152.33 70,162.59 70,173  Z"/>

<path  fill="#C9C9CA" stroke-width="0" stroke="#C9C9CA" d = " M110 141 L109,143 C109,143 110,141 110,141  Z"/>

<path  fill="#187C63" stroke-width="0" stroke="#187C63" d = " M387 173 L391,173 C391,164.374 391.599,153.697 388,146.5 387.381,145.262 389.144,141 387,141 387,141 382,143 382,143 382,150.627 387,163.933 387,173  Z"/>

<path  fill="#1C8063" stroke-width="0" stroke="#1C8063" d = " M83 171 L70,173 C70,162.59 74,152.33 74,143 74,143 75,143 75,143 78.8321,143 81.7265,148 86,148 86,155.474 83,163.122 83,171  Z"/>

<path  fill="#C9C9CA" stroke-width="0" stroke="#C9C9CA" d = " M109 143 C107.423,143 107,144.762 107,146 108.577,146 109,144.238 109,143  Z"/>

<path  fill="#1C8063" stroke-width="0" stroke="#1C8063" d = " M373 171 C378.018,171 382.423,173 387,173 387,163.933 382,150.627 382,143 382,143 381,143 381,143 381,143 371,148 371,148 371,156.079 373,162.598 373,171  Z"/>

<path  fill="#C9C9CA" stroke-width="0" stroke="#C9C9CA" d = " M349 146 C350.577,146 351,147.762 351,149 349.423,149 349,147.238 349,146  Z"/>

<path  fill="#C9C9CA" stroke-width="0" stroke="#C9C9CA" d = " M107 147 C104.891,147 105,149.535 105,151 105,151 107,147 107,147  Z"/>

<path  fill="#197D63" stroke-width="0" stroke="#197D63" d = " M98 168 L83,171 C83,163.122 86,155.474 86,148 89.0023,148 101,151.971 101,155 101,155 101,157 101,157 101,157 101,158 101,158 99.7,158 98,166.63 98,168  Z"/>

<path  fill="#97D6F9" stroke-width="0" stroke="#97D6F9" d = " M253 148 L254,149 C254,149 253,148 253,148  Z"/>

<path  fill="#97D6F9" stroke-width="0" stroke="#97D6F9" d = " M263 157 L263,159 C263,159 255,149 255,149 257.688,149 258.418,148 260,148 260,149.296 260.825,155 262,155 262,155 262,156 262,156 262,156 263,157 263,157  Z"/>

<path  fill="#197D63" stroke-width="0" stroke="#197D63" d = " M358 168 L373,171 C373,162.598 371,156.079 371,148 371,148 370,148 370,148 365.531,148 358.397,154 355,154 355,154 355,157 355,157 356.988,157 358,166.265 358,168  Z"/>

<path  fill="#97D6F9" stroke-width="0" stroke="#97D6F9" d = " M201 149 C201,150.935 196.935,155 195,155 195,154.014 196.087,149 197,149 198.375,149 199.625,149 201,149  Z"/>

<path  fill="#97D6F9" stroke-width="0" stroke="#97D6F9" d = " M226 161 L228.5,159 L231,161 C231,161 229,155.5 229,155.5 229,155.5 228.5,149 228.5,149 227.022,149 226,159.596 226,161  Z"/>

<path  fill="#C9C9CA" stroke-width="0" stroke="#C9C9CA" d = " M105 151 L104,153 C104,153 105,151 105,151  Z"/>

<path  fill="#C9C9CA" stroke-width="0" stroke="#C9C9CA" d = " M351 151 L353,155 C353,155 351,151 351,151  Z"/>

<path  fill="#C9C9CA" stroke-width="0" stroke="#C9C9CA" d = " M104 154 L103,156 C103,156 104,154 104,154  Z"/>

<path  fill="#A8AAAA" stroke-width="0" stroke="#A8AAAA" d = " M262 156 L263,157 C263,157 262,156 262,156  Z"/>

<path  fill="#1A8061" stroke-width="0" stroke="#1A8061" d = " M101 158 L102,158 C102,158 102,157 102,157 102,157 101,157 101,157 101,157 101,158 101,158  Z"/>

<path  fill="#C9C9CA" stroke-width="0" stroke="#C9C9CA" d = " M102 158 L102,159 C102,159 103,157 103,157 103,157 102,157 102,157 102,157 102,158 102,158  Z"/>

<path  fill="#C9C9CA" stroke-width="0" stroke="#C9C9CA" d = " M353 157 L354,158 C354,158 353,157 353,157  Z"/>

<path  fill="#1A8061" stroke-width="0" stroke="#1A8061" d = " M357 168 L358,168 C358,166.265 356.988,157 355,157 355,157 355,159 355,159 355,159 355,161 355,161 355,161 355,163 355,163 355,163 356,164 356,164 356,164 356,165 356,165 356,165 357,168 357,168  Z"/>

<path  fill="#1A8061" stroke-width="0" stroke="#1A8061" d = " M98 168 L100,168 C100,166.952 99.5271,165 101,165 101,165 101,162 101,162 101,162 101,160 101,160 101,160 101,158 101,158 99.7,158 98,166.63 98,168  Z"/>

<path  fill="#188064" stroke-width="0" stroke="#188064" d = " M101 160 L102,160 C102,160 102,159 102,159 102,159 102,158 102,158 102,158 101,158 101,158 101,158 101,160 101,160  Z"/>

<path  fill="#A8AAAA" stroke-width="0" stroke="#A8AAAA" d = " M194 159 L193,160 C193,160 194,159 194,159  Z"/>

<path  fill="#96A7D3" stroke-width="0" stroke="#96A7D3" d = " M227 242 C227,240.081 229,239.512 229,242 229,242 233,241 233,241 233,241 234,239 234,239 234,239 235,237 235,237 235,237 235,236 235,236 235,227.226 236,217.383 236,208 236,208 236,199 236,199 236,186.073 231,173.796 231,161 231,161 228.5,159 228.5,159 228.5,159 226,161 226,161 226,161 225,163 225,163 225,174.589 221,185.174 221,197 221,197 221,202 221,202 221,202 221,205 221,205 221,205 220,207 220,207 220,207 220,209 220,209 220,209 220,228.5 220,228.5 221.016,230.531 222,234.747 222,237 222,239.101 224.831,242 227,242  Z"/>

<path  fill="#C9C9CA" stroke-width="0" stroke="#C9C9CA" d = " M355 159 L355,161 C355,161 354,159 354,159 354,159 355,159 355,159  Z"/>

<path  fill="#C9C9CA" stroke-width="0" stroke="#C9C9CA" d = " M102 160 L101,162 C101,162 101,160 101,160 101,160 102,160 102,160  Z"/>

<path  fill="#97D6F9" stroke-width="0" stroke="#97D6F9" d = " M226 161 L225,163 C225,163 226,161 226,161  Z"/>

<path  fill="#188064" stroke-width="0" stroke="#188064" d = " M355 163 L356,164 C356,164 355,163 355,163  Z"/>

<path  fill="#C8CBCC" stroke-width="0" stroke="#C8CBCC" d = " M107 210 L109,212 C109,209.274 102.479,187.458 101,184.5 101,184.5 101,166 101,166 101,166 101,165 101,165 99.5271,165 100,166.952 100,168 100,172.875 100,177.727 100,183 100,185.409 101,188.181 101,190 101,190 103,197 103,197 103,197 103,198 103,198 103,198 105,202 105,202 105,202 105,207 105,207 105,207 107,210 107,210  Z"/>

<path  fill="#C8CBCC" stroke-width="0" stroke="#C8CBCC" d = " M349 209 L350,209 C350,209 351,207 351,207 351,207 352,203 352,203 352,201.855 351.421,199 353,199 353,197.377 353.005,193 355,193 355,193 355,190 355,190 355,190 357,188 357,188 357,188 357,186 357,186 355.814,186 355.814,185 357,185 357,185 357,184 357,184 357,184 357,168 357,168 357,168 356,165 356,165 356,165 355,165 355,165 355,171.48 357.698,181.104 355,186.5 351.984,192.532 349,201.978 349,209  Z"/>

<path  fill="#009B74" stroke-width="0" stroke="#009B74" d = " M99 184 C94.1902,184 90.167,189 85,189 85,183.326 83,177.326 83,171 83,171 98,168 98,168 98,169.564 96.7505,176.001 97,176.5 97,176.5 99,183 99,183 99,183 99,184 99,184  Z"/>

<path  fill="#019C74" stroke-width="0" stroke="#019C74" d = " M99 183 L100,183 C100,177.727 100,172.875 100,168 100,168 98,168 98,168 98,169.564 96.7505,176.001 97,176.5 97,176.5 99,183 99,183  Z"/>

<path  fill="#019C74" stroke-width="0" stroke="#019C74" d = " M357 184 L358,184 C358,178.754 358,172.957 358,168 358,168 357,168 357,168 357,168 357,184 357,184  Z"/>

<path  fill="#009B74" stroke-width="0" stroke="#009B74" d = " M358 184 C362.704,184 366.621,189 372,189 372,183.292 373,177.216 373,171 373,171 358,168 358,168 358,172.957 358,178.754 358,184  Z"/>

<path  fill="#019C75" stroke-width="0" stroke="#019C75" d = " M71 194 L72,194 C73.5637,194 75.8764,193 78,193 78,190.472 82.6524,189 85,189 85,183.326 83,177.326 83,171 83,171 70,173 70,173 70,180.247 71,187.239 71,194  Z"/>

<path  fill="#A8AAAA" stroke-width="0" stroke="#A8AAAA" d = " M263 194 C264.333,194 264.667,194 266,194 266,187.113 265,178.564 265,171 263.421,171 264,173.855 264,175 264,181.628 263,187.818 263,194  Z"/>

<path  fill="#019C75" stroke-width="0" stroke="#019C75" d = " M379 193 C381.124,193 383.436,194 385,194 385,187.329 387,180.495 387,173 382.423,173 378.018,171 373,171 373,177.216 372,183.292 372,189 373.385,189 379,191.199 379,193  Z"/>

<path  fill="#009C74" stroke-width="0" stroke="#009C74" d = " M70 194 L71,194 C71,187.239 70,180.247 70,173 70,173 65,174 65,174 65,180.709 70,187.903 70,194  Z"/>

<path  fill="#009C74" stroke-width="0" stroke="#009C74" d = " M385 194 L386,194 C388.073,194 391,177.349 391,174 391,174 391,173 391,173 391,173 387,173 387,173 387,180.495 385,187.329 385,194  Z"/>

<path  fill="#009B75" stroke-width="0" stroke="#009B75" d = " M61 197 L62,197 C62,197 70,194 70,194 70,187.903 65,180.709 65,174 65,174 61,175 61,175 61,175 59,176 59,176 59,177.473 57.0479,177 56,177 56,184.244 61,189.87 61,197  Z"/>

<path  fill="#A8AAAA" stroke-width="0" stroke="#A8AAAA" d = " M193 194 C193,194.896 191,197.026 191,195 191,188.097 192,180.228 192,174 192,174 193,175 193,175 193,181.14 193,187.133 193,194  Z"/>

<path  fill="#8FCBED" stroke-width="0" stroke="#8FCBED" d = " M220 207 L220,209 C218.702,209 216.627,212.563 213.5,211 210.934,209.717 201.975,200 200,200 200,200 196,198 196,198 196,198 193,194 193,194 193,187.133 193,181.14 193,175 193,175 196.5,174 196.5,174 196.5,174 212.5,189 212.5,189 212.5,189 220,197 220,197 220,198.235 219.357,202 221,202 221,202 221,205 221,205 221,205 220,207 220,207  Z"/>

<path  fill="#8FCBED" stroke-width="0" stroke="#8FCBED" d = " M253 203 C249.353,203 245.712,209.394 242.5,211 238.878,212.811 237.606,208 236,208 236,208 236,199 236,199 236.277,199 241.65,190.85 243,189.5 243,189.5 259.5,174 259.5,174 259.5,174 264,175 264,175 264,181.628 263,187.818 263,194 263,194 260,198 260,198 260,198 259,199 259,199 256.227,199 255.33,203 253,203  Z"/>

<path  fill="#009B75" stroke-width="0" stroke="#009B75" d = " M386 194 C386,194.335 394.123,197 395,197 395,195.483 398.228,183.044 399,181.5 399,181.5 401,178 401,178 401,178 401,177 401,177 399.377,177 395,176.995 395,175 395,175 391,174 391,174 391,177.349 388.073,194 386,194  Z"/>

<path  fill="#12AC83" stroke-width="0" stroke="#12AC83" d = " M59 176 C59,177.473 57.0479,177 56,177 56,177 56,176 56,176 56,173.627 58.2844,176 59,176  Z"/>

<path  fill="#12AC83" stroke-width="0" stroke="#12AC83" d = " M61 175 L59,176 C59,176 61,175 61,175  Z"/>

<path  fill="#12AC83" stroke-width="0" stroke="#12AC83" d = " M401 176 L401,177 C399.377,177 395,176.995 395,175 395,175 401,175 401,175 401,175 401,176 401,176  Z"/>

<path  fill="#12AD83" stroke-width="0" stroke="#12AD83" d = " M56 177 L52,179 C52,179 51,177 51,177 51,177 55,176 55,176 55,176 56,176 56,176 56,176 56,177 56,177  Z"/>

<path  fill="#12AD83" stroke-width="0" stroke="#12AD83" d = " M401 178 L405,179 C405,179 405,177 405,177 405,177 401,176 401,176 401,176 401,177 401,177 401,177 401,178 401,178  Z"/>

<path  fill="#009C75" stroke-width="0" stroke="#009C75" d = " M61 197 L58,198 C58,191.883 52,185.582 52,179 52,179 56,177 56,177 56,184.244 61,189.87 61,197  Z"/>

<path  fill="#009C75" stroke-width="0" stroke="#009C75" d = " M395 197 L399,198 C399,191.46 405,185.305 405,179 405,179 401,178 401,178 401,178 399,181.5 399,181.5 398.228,183.044 395,195.483 395,197  Z"/>

<path  fill="#1F9766" stroke-width="0" stroke="#1F9766" d = " M99 184 C99,185.745 98.3018,190 101,190 101,188.181 100,185.409 100,183 100,183 99,183 99,183 99,183 99,184 99,184  Z"/>

<path  fill="#209666" stroke-width="0" stroke="#209666" d = " M90 205 L95,205 C95,200.312 90.4961,196.004 95,191.5 95,191.5 98.5,189 98.5,189 101.127,190.314 100.847,197 103,197 103,197 101,190 101,190 98.3018,190 99,185.745 99,184 94.1902,184 90.167,189 85,189 85,195.191 90,199.602 90,205  Z"/>

<path  fill="#1F9766" stroke-width="0" stroke="#1F9766" d = " M358 184 L357,185 C357,185 357,184 357,184 357,184 358,184 358,184  Z"/>

<path  fill="#209666" stroke-width="0" stroke="#209666" d = " M366 205 L367,205 C367,199.276 372,194.765 372,189 366.621,189 362.704,184 358,184 358,184 357,185 357,185 357,185 357,186 357,186 357,186 357,188 357,188 357,188 357,189 357,189 367.177,189 361,200.639 361,205 361,205 366,205 366,205  Z"/>

<path  fill="#1F9766" stroke-width="0" stroke="#1F9766" d = " M357 185 C355.814,185 355.814,186 357,186 357,186 357,185 357,185  Z"/>

<path  fill="#1F9766" stroke-width="0" stroke="#1F9766" d = " M355 190 L356,190 C356,190 357,189 357,189 357,189 357,188 357,188 357,188 355,190 355,190  Z"/>

<path  fill="#209665" stroke-width="0" stroke="#209665" d = " M83 205 C84.8355,205 87.2347,205 90,205 90,199.602 85,195.191 85,189 82.6524,189 78,190.472 78,193 78,193.722 80.5818,203.664 81,204.5 81.6687,205.837 83,202.686 83,205  Z"/>

<path  fill="#8ADA86" stroke-width="0" stroke="#8ADA86" d = " M99 209 L100,209 C100,209 102,208 102,208 102,208 103,207 103,207 103,204.967 103,203.744 103,202 103,202 103,198 103,198 103,198 103,197 103,197 100.847,197 101.127,190.314 98.5,189 98.5,189 95,191.5 95,191.5 90.4961,196.004 95,200.312 95,205 95,205 99,209 99,209  Z"/>

<path  fill="#8ADA86" stroke-width="0" stroke="#8ADA86" d = " M353 203 C353,208.783 361,210.332 361,205 361,200.639 367.177,189 357,189 357,189 356,190 356,190 356,191.048 356.473,193 355,193 355,194.357 354.353,199 353,199 353,199 353,203 353,203  Z"/>

<path  fill="#209665" stroke-width="0" stroke="#209665" d = " M367 205 C369.124,205 371.436,206 373,206 376.794,206 375.666,193 379,193 379,191.199 373.385,189 372,189 372,194.765 367,199.276 367,205  Z"/>

<path  fill="#209666" stroke-width="0" stroke="#209666" d = " M356 190 C356,191.048 356.473,193 355,193 355,193 355,190 355,190 355,190 356,190 356,190  Z"/>

<path  fill="#219864" stroke-width="0" stroke="#219864" d = " M84 215 L86,215 C86,211.628 83,208.947 83,205 83,202.686 81.6687,205.837 81,204.5 80.5818,203.664 78,193.722 78,193 75.8764,193 73.5637,194 72,194 72,201.378 84,210.753 84,215  Z"/>

<path  fill="#209666" stroke-width="0" stroke="#209666" d = " M355 193 C353.005,193 353,197.377 353,199 354.353,199 355,194.357 355,193  Z"/>

<path  fill="#219864" stroke-width="0" stroke="#219864" d = " M371 215 L373,215 C373,210.332 385,200.145 385,194 383.436,194 381.124,193 379,193 375.666,193 376.794,206 373,206 373,209.489 371,211.32 371,215  Z"/>

<path  fill="#209865" stroke-width="0" stroke="#209865" d = " M84 215 C80.2047,215 75.6074,219 72,219 72,211.572 62,204.859 62,197 62,197 70,194 70,194 70,194 71,194 71,194 71,194 72,194 72,194 72,201.378 84,210.753 84,215  Z"/>

<path  fill="#97D6F9" stroke-width="0" stroke="#97D6F9" d = " M196 198 L189,199 C189,199 191,195 191,195 191,197.026 193,194.896 193,194 193,194 196,198 196,198  Z"/>

<path  fill="#97D6F9" stroke-width="0" stroke="#97D6F9" d = " M260 198 L267,199 C267,199 266,194 266,194 264.667,194 264.333,194 263,194 263,194 260,198 260,198  Z"/>

<path  fill="#209865" stroke-width="0" stroke="#209865" d = " M373 215 L385,219 C385,211.299 395,204.609 395,197 394.123,197 386,194.335 386,194 386,194 385,194 385,194 385,200.145 373,210.332 373,215  Z"/>

<path  fill="#219765" stroke-width="0" stroke="#219765" d = " M72 219 L67,220 C67,215.857 58,204.377 58,198 58,198 61,197 61,197 61,197 62,197 62,197 62,204.859 72,211.572 72,219  Z"/>

<path  fill="#97D6F9" stroke-width="0" stroke="#97D6F9" d = " M221 197 L221,202 C219.357,202 220,198.235 220,197 220,197 221,197 221,197  Z"/>

<path  fill="#219765" stroke-width="0" stroke="#219765" d = " M385 219 L389,220 C389,220 392,215.5 392,215.5 392,215.5 399,198 399,198 399,198 395,197 395,197 395,204.609 385,211.299 385,219  Z"/>

<path  fill="#209666" stroke-width="0" stroke="#209666" d = " M103 202 L105,202 C105,202 103,198 103,198 103,198 103,202 103,202  Z"/>

<path  fill="#B3C0DE" stroke-width="0" stroke="#B3C0DE" d = " M185 226 L185,229 C191.876,229 205,231.011 205,220 205,216.07 206.838,211.176 205,207.5 205,207.5 200,200 200,200 200,200 196,198 196,198 196,198 189,199 189,199 189,199 188,200 188,200 188,200 188,201 188,201 188,201 189,208 189,208 199.455,208 195.794,223 185,223 185,223 185,226 185,226  Z"/>

<path  fill="#97D6F9" stroke-width="0" stroke="#97D6F9" d = " M260 198 L259,199 C259,199 260,198 260,198  Z"/>

<path  fill="#B3C0DE" stroke-width="0" stroke="#B3C0DE" d = " M272 225 L272,228 C268.579,228 264.824,232.162 258.5,229 256.375,227.938 251.847,221 251,221 251,214.518 253,207.042 253,203 255.33,203 256.227,199 259,199 259,199 260,198 260,198 260,198 267,199 267,199 267,199 268,200 268,200 268,200 269,201 269,201 269,201 269,202 269,202 269,202 268,208 268,208 256.493,208 261.099,223 271,223 271,223 272,225 272,225  Z"/>

<path  fill="#97D6F9" stroke-width="0" stroke="#97D6F9" d = " M189 199 L188,200 C188,200 189,199 189,199  Z"/>

<path  fill="#209666" stroke-width="0" stroke="#209666" d = " M352 203 L353,203 C353,203 353,199 353,199 351.421,199 352,201.855 352,203  Z"/>

<path  fill="#97D6F9" stroke-width="0" stroke="#97D6F9" d = " M205 220 C205.997,220 217.043,237 222,237 222,234.747 221.016,230.531 220,228.5 220,228.5 220,209 220,209 218.702,209 216.627,212.563 213.5,211 210.934,209.717 201.975,200 200,200 200,200 205,207.5 205,207.5 206.838,211.176 205,216.07 205,220  Z"/>

<path  fill="#97D6F9" stroke-width="0" stroke="#97D6F9" d = " M268 200 L269,201 C269,201 268,200 268,200  Z"/>

<path  fill="#97D6F9" stroke-width="0" stroke="#97D6F9" d = " M180 210 C181.238,210 183,210.423 183,212 185.33,212 186.227,208 189,208 189,208 188,201 188,201 188,201 180,210 180,210  Z"/>

<path  fill="#1F9866" stroke-width="0" stroke="#1F9866" d = " M103 207 L105,207 C105,207 105,202 105,202 105,202 103,202 103,202 103,203.744 103,204.967 103,207  Z"/>

<path  fill="#97D6F9" stroke-width="0" stroke="#97D6F9" d = " M273 211 C274.905,211 275.467,211 277,211 277,209.568 270.739,202 269,202 269,202 268,208 268,208 268,208 273,211 273,211  Z"/>

<path  fill="#97D6F9" stroke-width="0" stroke="#97D6F9" d = " M251 221 C249.388,221 240.265,236 235,236 235,227.226 236,217.383 236,208 237.606,208 238.878,212.811 242.5,211 245.712,209.394 249.353,203 253,203 253,207.042 251,214.518 251,221  Z"/>

<path  fill="#1F9866" stroke-width="0" stroke="#1F9866" d = " M356 209 C358.7,209 360.762,212 364,212 364,212 366,205 366,205 366,205 361,205 361,205 361,210.332 353,208.783 353,203 353,203 352,203 352,203 352,203 351,207 351,207 351,207 355,209 355,209 355,209 356,209 356,209  Z"/>

<path  fill="#1F9865" stroke-width="0" stroke="#1F9865" d = " M89 214 L86,215 C86,211.628 83,208.947 83,205 84.8355,205 87.2347,205 90,205 90,205 93,212 93,212 93,212 89,214 89,214  Z"/>

<path  fill="#1F9866" stroke-width="0" stroke="#1F9866" d = " M98 211 L93,212 C93,212 90,205 90,205 90,205 95,205 95,205 95,205 99,209 99,209 99,209 99,210 99,210 99,210 98,211 98,211  Z"/>

<path  fill="#97D6F9" stroke-width="0" stroke="#97D6F9" d = " M221 205 L220,207 C220,207 221,205 221,205  Z"/>

<path  fill="#1F9865" stroke-width="0" stroke="#1F9865" d = " M367 214 L371,215 C371,211.32 373,209.489 373,206 371.436,206 369.124,205 367,205 367,205 366,205 366,205 366,205 364,212 364,212 364,212 367,214 367,214  Z"/>

<path  fill="#1F9866" stroke-width="0" stroke="#1F9866" d = " M103 207 L102,208 C102,208 103,207 103,207  Z"/>

<path  fill="#8AD987" stroke-width="0" stroke="#8AD987" d = " M102 209 L107,210 C107,210 105,207 105,207 105,207 103,207 103,207 103,207 102,208 102,208 102,208 102,209 102,209  Z"/>

<path  fill="#8AD987" stroke-width="0" stroke="#8AD987" d = " M350 209 L355,209 C355,209 351,207 351,207 351,207 350,209 350,209  Z"/>

<path  fill="#1F9866" stroke-width="0" stroke="#1F9866" d = " M100 209 L102,209 C102,209 102,208 102,208 102,208 100,209 100,209  Z"/>

<path  fill="#CBCBC7" stroke-width="0" stroke="#CBCBC7" d = " M184 223 L185,223 C195.794,223 199.455,208 189,208 186.227,208 185.33,212 183,212 183,212 182,220.5 182,220.5 182,220.5 184,223 184,223  Z"/>

<path  fill="#CBCBC7" stroke-width="0" stroke="#CBCBC7" d = " M271 223 L272,223 C272,223 275,218.5 275,218.5 276.252,215.996 273,213.591 273,211 273,211 268,208 268,208 256.493,208 261.099,223 271,223  Z"/>

<path  fill="#99D2BD" stroke-width="0" stroke="#99D2BD" d = " M100 209 L99,210 C99,210 99,209 99,209 99,209 100,209 100,209  Z"/>

<path  fill="#A0EE9C" stroke-width="0" stroke="#A0EE9C" d = " M109 229 L114,230 C116.041,230 117,229.041 117,227 117,224.227 113,223.33 113,221 113,221 113,220 113,220 113,220 111,218 111,218 111,218 109,212 109,212 109,212 107,210 107,210 107,210 102,209 102,209 102,209 100,209 100,209 100,209 99,210 99,210 99,210 98,211 98,211 98,211 97,219.5 97,219.5 97,219.5 102,226 102,226 102,226 105,227 105,227 105,227 108,229 108,229 108,229 109,229 109,229  Z"/>

<path  fill="#8AD987" stroke-width="0" stroke="#8AD987" d = " M350 209 L349,210 C349,210 349,209 349,209 349,209 350,209 350,209  Z"/>

<path  fill="#A0EE9C" stroke-width="0" stroke="#A0EE9C" d = " M347 229 L348,229 C348,229 350,228 350,228 350,228 351,228 351,228 351,228 352,227 352,227 352,227 353,227 353,227 353,227 354,226 354,226 354,226 355,225 355,225 355,225 356,225 356,225 356,225 357,224 357,224 357,224 358,223 358,223 358,223 359,221 359,221 359,221 359,212.5 359,212.5 359,212.5 356,209 356,209 356,209 355,209 355,209 355,209 350,209 350,209 350,209 349,210 349,210 349,210 348,211 348,211 348,211 348,212 348,212 348,212 347,213 347,213 347,213 344,219 344,219 344,219 343,221 343,221 343,221 342,222 342,222 342,222 341,223 341,223 341,223 340,225 340,225 340,225 339,226 339,226 339,226 339,227 339,227 339,229.715 340.657,230 343,230 343,230 347,229 347,229  Z"/>

<path  fill="#99D2BD" stroke-width="0" stroke="#99D2BD" d = " M367 214 C363.253,214 361.634,221 359,221 359,221 359,212.5 359,212.5 359,212.5 356,209 356,209 358.7,209 360.762,212 364,212 364,212 367,214 367,214  Z"/>

<path  fill="#99D2BD" stroke-width="0" stroke="#99D2BD" d = " M99 210 L98,211 C98,211 99,210 99,210  Z"/>

<path  fill="#80CDF8" stroke-width="0" stroke="#80CDF8" d = " M135 255 L136,255 C136,255 140.5,259 140.5,259 143.11,260.305 145.93,260.715 148.5,262 154.513,265.007 172.897,252.603 177,248.5 177,248.5 184,241 184,241 184,241 185,240 185,240 185,240 185,229 185,229 185,229 185,226 185,226 183.527,226 184,224.048 184,223 184,223 182,220.5 182,220.5 182,220.5 183,212 183,212 183,210.423 181.238,210 180,210 180,210 177,214.5 177,214.5 175.708,217.084 176.336,220.827 175,223.5 167.781,237.937 145.743,235 132,235 132,235 129,238 129,238 129,243.903 135,248.858 135,255  Z"/>

<path  fill="#80CDF8" stroke-width="0" stroke="#80CDF8" d = " M321 255 L320,256 C320,256 316.5,259 316.5,259 316.5,259 307.5,262 307.5,262 301.674,264.913 272,246.256 272,240 272,236.814 272,232.264 272,228 272,228 272,225 272,225 272,225 272,223 272,223 272,223 275,218.5 275,218.5 276.252,215.996 273,213.591 273,211 274.905,211 275.467,211 277,211 277,212.009 279.421,216.343 280,217.5 280,217.5 281,222.5 281,222.5 288.579,237.658 309.886,235 325,235 325,235 327,238 327,238 327,244.04 321,248.992 321,255  Z"/>

<path  fill="#C8CBCC" stroke-width="0" stroke="#C8CBCC" d = " M349 210 L348,211 C348,211 349,210 349,210  Z"/>

<path  fill="#99D2BD" stroke-width="0" stroke="#99D2BD" d = " M89 214 C95.4922,214 96.0313,226 102,226 102,226 97,219.5 97,219.5 97,219.5 98,211 98,211 98,211 93,212 93,212 93,212 89,214 89,214  Z"/>

<path  fill="#C8CBCC" stroke-width="0" stroke="#C8CBCC" d = " M348 212 L347,213 C347,213 348,212 348,212  Z"/>

<path  fill="#6ACAB9" stroke-width="0" stroke="#6ACAB9" d = " M118 265 L120,265 C121.53,265 123.216,261 126,261 126,261 127,260 127,260 127,260 129,255.5 129,255.5 131.864,249.771 126.647,242.794 125,239.5 123.229,235.958 109,229.867 109,229 109,229 108,229 108,229 106.762,229 105,228.577 105,227 105,227 102,226 102,226 96.0313,226 95.4922,214 89,214 89,214 86,215 86,215 86,215 84,215 84,215 80.2047,215 75.6074,219 72,219 72,219 67,220 67,220 67,226.177 89.0089,255 95,255 100.128,255 118,258.216 118,265  Z"/>

<path  fill="#6ACAB9" stroke-width="0" stroke="#6ACAB9" d = " M337 265 L338,265 C338,265 339,264 339,264 339,257.849 358.727,256 362,256 362,256 372,246.5 372,246.5 378.431,240.069 389,229.015 389,220 389,220 385,219 385,219 385,219 373,215 373,215 373,215 371,215 371,215 371,215 367,214 367,214 363.253,214 361.634,221 359,221 359,221 358,223 358,223 358,223 357,224 357,224 357,224 356,225 356,225 356,225 355,225 355,225 355,225 354,226 354,226 354,226 353,227 353,227 353,227 352,227 352,227 352,227 351,228 351,228 351,228 350,228 350,228 350,228 348,229 348,229 348,229 347,229 347,229 347,231.109 344.465,231 343,231 343,233.109 340.465,233 339,233 339,234.76 334.712,236.394 333.5,237 333.5,237 327,246.5 327,246.5 324.075,252.349 331,256.906 331,261 331,261 337,265 337,265  Z"/>

<path  fill="#C8CBCC" stroke-width="0" stroke="#C8CBCC" d = " M111 218 L113,220 C113,220 111,218 111,218  Z"/>

<path  fill="#C8CBCC" stroke-width="0" stroke="#C8CBCC" d = " M344 219 L343,221 C343,221 344,219 344,219  Z"/>

<path  fill="#E64438" stroke-width="0" stroke="#E64438" d = " M201 246 C203.371,246 206,246.017 206,249 206,249 209,243.5 209,243.5 209,243.5 217.5,236 217.5,236 221.176,234.162 222.6,243 225,243 225,243 227,243 227,243 227,243 227,242 227,242 224.831,242 222,239.101 222,237 217.043,237 205.997,220 205,220 205,231.011 191.876,229 185,229 185,229 185,240 185,240 191.132,240 194.329,231.586 199.5,229 203.547,226.977 204.037,237.425 203,239.5 203,239.5 201,246 201,246  Z"/>

<path  fill="#C8CBCC" stroke-width="0" stroke="#C8CBCC" d = " M117 227 L119,227 C119,227 113,221 113,221 113,223.33 117,224.227 117,227  Z"/>

<path  fill="#E64438" stroke-width="0" stroke="#E64438" d = " M250 249 L251,249 C251,246.285 252.657,246 255,246 255,243.346 254.112,240.725 253,238.5 251.607,235.715 253.148,226.824 257.5,229 262.416,231.458 265.119,240 272,240 272,236.814 272,232.264 272,228 268.579,228 264.824,232.162 258.5,229 256.375,227.938 251.847,221 251,221 249.388,221 240.265,236 235,236 235,236 235,237 235,237 235,237 238.5,236 238.5,236 241.97,237.735 250,244.922 250,249  Z"/>

<path  fill="#C8CBCC" stroke-width="0" stroke="#C8CBCC" d = " M343 221 L342,222 C342,222 343,221 343,221  Z"/>

<path  fill="#99D2BD" stroke-width="0" stroke="#99D2BD" d = " M359 221 L358,223 C358,223 359,221 359,221  Z"/>

<path  fill="#C8CBCC" stroke-width="0" stroke="#C8CBCC" d = " M342 222 L341,223 C341,223 342,222 342,222  Z"/>

<path  fill="#E64438" stroke-width="0" stroke="#E64438" d = " M185 223 L185,226 C183.527,226 184,224.048 184,223 184,223 185,223 185,223  Z"/>

<path  fill="#E64438" stroke-width="0" stroke="#E64438" d = " M272 223 L272,225 C272,225 271,223 271,223 271,223 272,223 272,223  Z"/>

<path  fill="#C8CBCC" stroke-width="0" stroke="#C8CBCC" d = " M341 223 L340,225 C340,225 341,223 341,223  Z"/>

<path  fill="#99D2BD" stroke-width="0" stroke="#99D2BD" d = " M357 224 L356,225 C356,225 357,224 357,224  Z"/>

<path  fill="#C8CBCC" stroke-width="0" stroke="#C8CBCC" d = " M340 225 L339,226 C339,226 340,225 340,225  Z"/>

<path  fill="#99D2BD" stroke-width="0" stroke="#99D2BD" d = " M355 225 L354,226 C354,226 355,225 355,225  Z"/>

<path  fill="#C8CBCC" stroke-width="0" stroke="#C8CBCC" d = " M338 227 L339,227 C339,227 339,226 339,226 339,226 338,227 338,227  Z"/>

<path  fill="#99D2BD" stroke-width="0" stroke="#99D2BD" d = " M354 226 L353,227 C353,227 354,226 354,226  Z"/>

<path  fill="#99D2BD" stroke-width="0" stroke="#99D2BD" d = " M105 227 L108,229 C106.762,229 105,228.577 105,227  Z"/>

<path  fill="#8AD987" stroke-width="0" stroke="#8AD987" d = " M123 231 C123,231.839 124.93,233 123,233 121.976,233 114,232.901 114,230 116.041,230 117,229.041 117,227 117,227 119,227 119,227 119,227 123,231 123,231  Z"/>

<path  fill="#8AD987" stroke-width="0" stroke="#8AD987" d = " M333 233 C334.714,233 336.482,233 339,233 339,230.891 341.535,231 343,231 343,231 343,230 343,230 340.657,230 339,229.715 339,227 339,227 338,227 338,227 338,227 334,230 334,230 334,230 333,231 333,231 333,231 333,233 333,233  Z"/>

<path  fill="#99D2BD" stroke-width="0" stroke="#99D2BD" d = " M352 227 L351,228 C351,228 352,227 352,227  Z"/>

<path  fill="#99D2BD" stroke-width="0" stroke="#99D2BD" d = " M350 228 L348,229 C348,229 350,228 350,228  Z"/>

<path  fill="#99D2BD" stroke-width="0" stroke="#99D2BD" d = " M135 256 C135,257.778 128.668,260 127,260 127,260 129,255.5 129,255.5 131.864,249.771 126.647,242.794 125,239.5 123.229,235.958 109,229.867 109,229 109,229 114,230 114,230 114,232.901 121.976,233 123,233 123,233 129,238 129,238 129,243.903 135,248.858 135,255 135,255 135,256 135,256  Z"/>

<path  fill="#A2B1D7" stroke-width="0" stroke="#A2B1D7" d = " M183 274 L183,276 C173.022,276 158.044,281.772 148.5,277 143.086,274.293 138.151,271.651 133.5,267 133.5,267 127,261 127,261 127,261 127,260 127,260 128.668,260 135,257.778 135,256 135,256 136,255 136,255 136,255 140.5,259 140.5,259 143.11,260.305 145.93,260.715 148.5,262 154.513,265.007 172.897,252.603 177,248.5 177,248.5 184,241 184,241 184,241 185,240 185,240 191.132,240 194.329,231.586 199.5,229 203.547,226.977 204.037,237.425 203,239.5 203,239.5 201,246 201,246 201,252.92 186,265.44 186,267 186,267 183,269 183,269 183,270.041 180.64,274 183,274  Z"/>

<path  fill="#A2B1D7" stroke-width="0" stroke="#A2B1D7" d = " M274 274 L273,276 C290.228,276 306.938,282.562 320.5,269 322.833,266.667 329,263.841 329,260 329,260 321,256 321,256 321,256 320,256 320,256 320,256 316.5,259 316.5,259 316.5,259 307.5,262 307.5,262 301.674,264.913 272,246.256 272,240 265.119,240 262.416,231.458 257.5,229 253.148,226.824 251.607,235.715 253,238.5 254.112,240.725 255,243.346 255,246 255,249.587 266.65,266 270,266 270,266 273,269 273,269 273,269 274,274 274,274  Z"/>

<path  fill="#99D2BD" stroke-width="0" stroke="#99D2BD" d = " M343 230 L343,231 C344.465,231 347,231.109 347,229 347,229 343,230 343,230  Z"/>

<path  fill="#97D6F9" stroke-width="0" stroke="#97D6F9" d = " M334 230 L333,231 C333,231 334,230 334,230  Z"/>

<path  fill="#97D6F9" stroke-width="0" stroke="#97D6F9" d = " M132 235 L129,238 C129,238 123,233 123,233 124.93,233 123,231.839 123,231 123,231 132,235 132,235  Z"/>

<path  fill="#97D6F9" stroke-width="0" stroke="#97D6F9" d = " M325 235 L327,238 C327,238 333,233 333,233 333,233 333,231 333,231 333,231 325,235 325,235  Z"/>

<path  fill="#99D2BD" stroke-width="0" stroke="#99D2BD" d = " M343 231 C341.535,231 339,230.891 339,233 340.465,233 343,233.109 343,231  Z"/>

<path  fill="#99D2BD" stroke-width="0" stroke="#99D2BD" d = " M329 260 L331,261 C331,256.906 324.075,252.349 327,246.5 327,246.5 333.5,237 333.5,237 334.712,236.394 339,234.76 339,233 336.482,233 334.714,233 333,233 333,233 327,238 327,238 327,244.04 321,248.992 321,255 321,255 321,256 321,256 321,256 329,260 329,260  Z"/>

<path  fill="#FF5346" stroke-width="0" stroke="#FF5346" d = " M211 265 L214,265 C214,265 215,264 215,264 215,256.947 225,248.592 225,243 222.6,243 221.176,234.162 217.5,236 217.5,236 209,243.5 209,243.5 209,243.5 206,249 206,249 206,252.324 204,255.16 204,258 204,258 205,259 205,259 210.302,259 211,258.182 211,265  Z"/>

<path  fill-rule="evenodd" fill="#FF5346" stroke-width="0" stroke="#FF5346" d = " M242 254 C242,255.93 243.93,254 242,254  M242 264 L245,265 C245,257.764 246.444,259 252,259 252,259 252,258 252,258 252,258 252,257 252,257 252,257 251,250 251,250 251,250 250,249 250,249 250,244.922 241.97,237.735 238.5,236 238.5,236 235,237 235,237 235,237 234,239 234,239 234,239 233,241 233,241 233,241 231,243 231,243 231,247.449 242,258.161 242,264  Z"/>

<path  fill="#E64438" stroke-width="0" stroke="#E64438" d = " M235 237 L234,239 C234,239 235,237 235,237  Z"/>

<path  fill="#E64438" stroke-width="0" stroke="#E64438" d = " M234 239 L233,241 C233,241 234,239 234,239  Z"/>

<path  fill="#E64438" stroke-width="0" stroke="#E64438" d = " M185 240 L184,241 C184,241 185,240 185,240  Z"/>

<path  fill="#E64438" stroke-width="0" stroke="#E64438" d = " M229 243 L231,243 C231,243 233,241 233,241 233,241 229,242 229,242 229,242 229,243 229,243  Z"/>

<path  fill="#FE5446" stroke-width="0" stroke="#FE5446" d = " M230 267 L234.5,271 L242,271 C242,268.877 242,266.296 242,264 242,258.161 231,247.449 231,243 231,243 229,243 229,243 229,243 227,243 227,243 227,243 225,243 225,243 225,248.592 215,256.947 215,264 215,264 214,265 214,265 214,267.124 215,269.436 215,271 217.916,271 226,271.467 226,267 226,253.828 230,251.729 230,267  Z"/>

<path  fill="#F2473B" stroke-width="0" stroke="#F2473B" d = " M186 267 L189,268 C191.117,268 203,261.202 203,259 203,259 204,258 204,258 204,255.16 206,252.324 206,249 206,246.017 203.371,246 201,246 201,252.92 186,265.44 186,267  Z"/>

<path  fill="#F2473B" stroke-width="0" stroke="#F2473B" d = " M270 266 L268,268 C262.953,268 258.667,260 254,260 254,260 253,258 253,258 253,258 252,257 252,257 252,257 251,250 251,250 251,250 251,249 251,249 251,246.285 252.657,246 255,246 255,249.587 266.65,266 270,266  Z"/>

<path  fill="#CBCCCB" stroke-width="0" stroke="#CBCCCB" d = " M251 249 L251,250 C251,250 250,249 250,249 250,249 251,249 251,249  Z"/>

<path  fill="#FE5447" stroke-width="0" stroke="#FE5447" d = " M242 254 C242,255.93 243.93,254 242,254  Z"/>

<path  fill="#CAC8C7" stroke-width="0" stroke="#CAC8C7" d = " M118 270 L117,271 C115.195,271 95,257.468 95,255 100.128,255 118,258.216 118,265 118,265 119,266 119,266 119,266 119,269 119,269 119,269 118,270 118,270  Z"/>

<path  fill="#97D6F9" stroke-width="0" stroke="#97D6F9" d = " M136 255 L135,256 C135,256 135,255 135,255 135,255 136,255 136,255  Z"/>

<path  fill="#E64438" stroke-width="0" stroke="#E64438" d = " M226 267 L228.5,265 L230,267 C230,251.729 226,253.828 226,267  Z"/>

<path  fill="#97D6F9" stroke-width="0" stroke="#97D6F9" d = " M320 256 L321,256 C321,256 321,255 321,255 321,255 320,256 320,256  Z"/>

<path  fill="#CAC8C7" stroke-width="0" stroke="#CAC8C7" d = " M338 270 L339,271 C343.08,271 341.65,268.425 344.5,267 344.5,267 357,260.5 357,260.5 357,260.5 362,256 362,256 358.727,256 339,257.849 339,264 339,264 338,265 338,265 338,265 338,268 338,268 338,268 338,270 338,270  Z"/>

<path  fill="#CBCCCB" stroke-width="0" stroke="#CBCCCB" d = " M252 258 L253,258 C253,258 252,257 252,257 252,257 252,258 252,258  Z"/>

<path  fill="#E64438" stroke-width="0" stroke="#E64438" d = " M203 259 L205,259 C205,259 204,258 204,258 204,258 203,259 203,259  Z"/>

<path  fill="#96A6D3" stroke-width="0" stroke="#96A6D3" d = " M202 276 L201,277 C195.359,277 190.786,274 187,274 187,271.482 189,269.714 189,268 191.117,268 203,261.202 203,259 203,259 205,259 205,259 210.302,259 211,258.182 211,265 211,267.971 208,269.768 208,272 208,272 207,273 207,273 207,273 203,275 203,275 203,275 202,276 202,276  Z"/>

<path  fill="#96A6D3" stroke-width="0" stroke="#96A6D3" d = " M254 276 L255,276 C257.014,276 260.932,278.284 263.5,277 263.5,277 269,274 269,274 269,271.876 268,269.564 268,268 262.953,268 258.667,260 254,260 254,260 252,259 252,259 246.444,259 245,257.764 245,265 245,265 249,273 249,273 249,273 251,274 251,274 251,274 252,275 252,275 252,275 253,275 253,275 253,275 254,276 254,276  Z"/>

<path  fill="#E64438" stroke-width="0" stroke="#E64438" d = " M252 259 L254,260 C254,260 253,258 253,258 253,258 252,258 252,258 252,258 252,259 252,259  Z"/>

<path  fill="#99D2BD" stroke-width="0" stroke="#99D2BD" d = " M126 261 L127,261 C127,261 127,260 127,260 127,260 126,261 126,261  Z"/>

<path  fill="#7FCCF7" stroke-width="0" stroke="#7FCCF7" d = " M272 276 L273,276 C290.228,276 306.938,282.562 320.5,269 322.833,266.667 329,263.841 329,260 329,260 331,261 331,261 331,261 337,265 337,265 337,266.048 336.527,268 338,268 338,268 338,270 338,270 338,270 338,273 338,273 338,273 337,274 337,274 337,278.668 330.974,281.552 329,285.5 321.822,299.856 298.28,302.89 284.5,296 277.139,292.319 263,295.484 263,282 263,277.874 268.14,276 272,276  Z"/>

<path  fill="#7FCCF7" stroke-width="0" stroke="#7FCCF7" d = " M184 276 C188.904,276 193,277.989 193,283 193,295.829 178.975,292.263 171.5,296 156.397,303.552 133.36,299.219 125,282.5 123.39,279.281 119,276.812 119,273 119,273 119,269 119,269 119,269 119,266 119,266 119,266 120,265 120,265 121.53,265 123.216,261 126,261 126,261 127,261 127,261 127,261 133.5,267 133.5,267 138.151,271.651 143.086,274.293 148.5,277 158.044,281.772 173.022,276 183,276 183,276 184,276 184,276  Z"/>

<path  fill="#E64438" stroke-width="0" stroke="#E64438" d = " M215 264 L214,265 C214,265 215,264 215,264  Z"/>

<path  fill="#E64438" stroke-width="0" stroke="#E64438" d = " M242 271 L249,273 C249,273 245,265 245,265 245,265 242,264 242,264 242,266.296 242,268.877 242,271  Z"/>

<path  fill="#99D2BD" stroke-width="0" stroke="#99D2BD" d = " M339 264 L338,265 C338,265 339,264 339,264  Z"/>

<path  fill="#99D2BD" stroke-width="0" stroke="#99D2BD" d = " M120 265 L119,266 C119,266 118,265 118,265 118,265 120,265 120,265  Z"/>

<path  fill="#E64438" stroke-width="0" stroke="#E64438" d = " M215 271 L208,272 C208,269.768 211,267.971 211,265 211,265 214,265 214,265 214,267.124 215,269.436 215,271  Z"/>

<path  fill="#99D2BD" stroke-width="0" stroke="#99D2BD" d = " M338 265 L338,268 C336.527,268 337,266.048 337,265 337,265 338,265 338,265  Z"/>

<path  fill="#E64438" stroke-width="0" stroke="#E64438" d = " M272 276 L273,276 C273,276 274,274 274,274 271.798,274 271.021,269 273,269 273,269 270,266 270,266 270,266 268,268 268,268 268,269.564 269,271.876 269,274 269,274 272,276 272,276  Z"/>

<path  fill="#E64438" stroke-width="0" stroke="#E64438" d = " M183 276 L184,276 C184,276 187,274 187,274 187,271.482 189,269.714 189,268 189,268 186,267 186,267 186,267 183,269 183,269 186.615,269 184.565,274 183,274 183,274 183,276 183,276  Z"/>

<path  fill="#97D6F9" stroke-width="0" stroke="#97D6F9" d = " M117 271 L119,273 C119,273 119,269 119,269 119,269 118,270 118,270 118,270 117,271 117,271  Z"/>

<path  fill="#A2B1D8" stroke-width="0" stroke="#A2B1D8" d = " M183 269 C186.615,269 184.565,274 183,274 180.64,274 183,270.041 183,269  Z"/>

<path  fill="#A2B1D8" stroke-width="0" stroke="#A2B1D8" d = " M273 269 C271.021,269 271.798,274 274,274 274,274 273,269 273,269  Z"/>

<path  fill="#99D2BD" stroke-width="0" stroke="#99D2BD" d = " M118 270 L117,271 C117,271 118,270 118,270  Z"/>

<path  fill="#97D6F9" stroke-width="0" stroke="#97D6F9" d = " M339 271 L338,273 C338,273 338,270 338,270 338,270 339,271 339,271  Z"/>

<path  fill="#E64438" stroke-width="0" stroke="#E64438" d = " M208 272 L207,273 C207,273 208,272 208,272  Z"/>

<path  fill="#97D6F9" stroke-width="0" stroke="#97D6F9" d = " M338 273 L337,274 C337,274 338,273 338,273  Z"/>

<path  fill="#8599CC" stroke-width="0" stroke="#8599CC" d = " M201 277 L193,283 C193,277.989 188.904,276 184,276 184,276 187,274 187,274 190.786,274 195.359,277 201,277  Z"/>

<path  fill="#8599CC" stroke-width="0" stroke="#8599CC" d = " M251 274 L252,275 C252,275 251,274 251,274  Z"/>

<path  fill="#8599CC" stroke-width="0" stroke="#8599CC" d = " M272 276 C268.14,276 263,277.874 263,282 260.93,282 255,278.604 255,276 257.014,276 260.932,278.284 263.5,277 263.5,277 269,274 269,274 269,274 272,276 272,276  Z"/>

<path  fill="#8599CC" stroke-width="0" stroke="#8599CC" d = " M203 275 L202,276 C202,276 203,275 203,275  Z"/>

<path  fill="#CBCCC7" stroke-width="0" stroke="#CBCCC7" d = " M215 275 L207,281.5 C205.589,284.323 209.677,288.411 212.5,287 219.081,283.71 226.696,275 215,275  Z"/>

<path  fill="#CBCCC7" stroke-width="0" stroke="#CBCCC7" d = " M235 275 C235,277.573 240.548,289.976 246.5,287 256.604,281.948 240.806,275 235,275  Z"/>

<path  fill="#8599CC" stroke-width="0" stroke="#8599CC" d = " M253 275 L254,276 C254,276 253,275 253,275  Z"/>

<path  fill="#8599CC" stroke-width="0" stroke="#8599CC" d = " M202 276 L201,277 C201,277 202,276 202,276  Z"/>

</g>
</svg>
