<svg xmlns="http://www.w3.org/2000/svg" xmlns:xlink="http://www.w3.org/1999/xlink"  viewBox="0 0 456 320">
<g>
<rect width="456" height="320" fill="#000000"  stroke-width="0" /> 
<path  fill="#1E9C59" stroke-width="0" stroke="#1E9C59" d = " M135 141 C132.482,141 132.666,144 130,144 130,140.063 122.664,128.172 126,121.5 126,121.5 131,107.5 131,107.5 136.38,96.7396 150.979,87.7603 160.5,83 167.61,79.4449 189.07,73.7851 197.5,78 199.409,78.9544 209,79.1844 209,82 209,82 205,88 205,88 205,88 204,88 204,88 204,86.4842 195.643,85 194,85 183.412,85 171.289,84.6054 162.5,89 146.589,96.9553 140.475,105.55 133,120.5 130.135,126.231 135,135.517 135,141  Z"/>

<path  fill="#1E9C59" stroke-width="0" stroke="#1E9C59" d = " M321 141 C323.364,141 324.053,144 326,144 331.804,144 330.196,119.893 328,115.5 318.494,96.4879 309.952,90.7259 290.5,81 286.275,78.8875 280.777,79.1383 276.5,77 271.812,74.6559 258.268,77.1162 254.5,79 253.228,79.6359 247,80.4498 247,82 247,83.5303 251,85.2159 251,88 251,88 252,88 252,88 252,86.2192 258.197,86.6516 259.5,86 266.396,82.5522 287.522,86.0112 293.5,89 308.869,96.6843 315.604,104.708 323,119.5 325.946,125.392 321,134.844 321,140 321,140 321,141 321,141  Z"/>

<path  fill="#2FA750" stroke-width="0" stroke="#2FA750" d = " M222 115 C225.686,115 231.257,115 235,115 235,107.069 241.079,88 251,88 251,85.2159 247,83.5303 247,82 240.873,82 233.136,96.227 231,100.5 231,100.5 228.5,108 228.5,108 226.631,108 225.574,100.648 225,99.5 223.033,95.5657 213.807,82 209,82 209,82 205,88 205,88 214.687,88 222,107.389 222,115  Z"/>

<path  fill="#1E9D58" stroke-width="0" stroke="#1E9D58" d = " M135 141 L136,141 C136,138.342 136.873,139.813 138.5,139 146.106,135.197 149.231,138 157,138 158.353,138 159,133.357 159,132 150.956,132 158.308,112.883 160,109.5 167.181,95.1389 185.5,95 198,95 198,95 199,95 199,95 199,92.266 204,90.9605 204,88 204,86.4842 195.643,85 194,85 183.412,85 171.289,84.6054 162.5,89 146.589,96.9553 140.475,105.55 133,120.5 130.135,126.231 135,135.517 135,141  Z"/>

<path  fill="#1E9D58" stroke-width="0" stroke="#1E9D58" d = " M299 138 L311.5,136 C313.298,136.899 319.329,140 321,140 321,134.844 325.946,125.392 323,119.5 315.604,104.708 308.869,96.6843 293.5,89 287.522,86.0112 266.396,82.5522 259.5,86 258.197,86.6516 252,86.2192 252,88 253.02,88 257,93.5755 257,95 257,95 258,95 258,95 268.027,95 285.677,93.8537 291,104.5 291,104.5 295,107.5 295,107.5 296.494,110.488 307.063,132 297,132 297,132 299,138 299,138  Z"/>

<path  fill="#2FA74F" stroke-width="0" stroke="#2FA74F" d = " M215 114 C216.819,114 219.591,115 222,115 222,107.389 214.687,88 205,88 205,88 204,88 204,88 204,90.9605 199,92.266 199,95 208.907,95 215,103.644 215,113 215,113 215,114 215,114  Z"/>

<path  fill="#2FA74F" stroke-width="0" stroke="#2FA74F" d = " M241 114 C239.436,114 237.124,115 235,115 235,107.069 241.079,88 251,88 251,88 252,88 252,88 253.02,88 257,93.5755 257,95 247.136,95 241,105.053 241,114  Z"/>

<path  fill="#1F9D58" stroke-width="0" stroke="#1F9D58" d = " M159 132 L160,132 C160,132 161,127 161,127 161,122.619 156.422,119.655 159,114.5 164.967,102.566 181.148,100 195,100 195,98.0533 198,97.3644 198,95 185.5,95 167.181,95.1389 160,109.5 158.308,112.883 150.956,132 159,132  Z"/>

<path  fill="#1F9D58" stroke-width="0" stroke="#1F9D58" d = " M295 127 L297,132 C307.063,132 296.494,110.488 295,107.5 295,107.5 291,104.5 291,104.5 285.677,93.8537 268.027,95 258,95 258,95 262,100 262,100 278.934,100 290.623,102.747 298,117.5 299.855,121.21 295,124.28 295,127  Z"/>

<path  fill="#2EA84F" stroke-width="0" stroke="#2EA84F" d = " M207 111 C209.338,111 211.862,113 215,113 215,103.644 208.907,95 199,95 199,95 198,95 198,95 198,97.3644 195,98.0533 195,100 195,101.951 197.454,100.477 198.5,101 200.382,101.941 207,108.846 207,111  Z"/>

<path  fill="#2EA84F" stroke-width="0" stroke="#2EA84F" d = " M249 111 L241,114 C241,105.053 247.136,95 257,95 257,95 258,95 258,95 258,95 262,100 262,100 258.587,100 249,107.78 249,111  Z"/>

<path  fill="#258F45" stroke-width="0" stroke="#258F45" d = " M188 114 C194.286,114 199.715,117 205,117 205,117 207.5,119 207.5,119 210.419,120.459 207,111.693 207,111 207,108.846 200.382,101.941 198.5,101 197.454,100.477 195,101.951 195,100 181.148,100 164.967,102.566 159,114.5 156.422,119.655 161,122.619 161,127 169.089,127 178.084,114 188,114  Z"/>

<path  fill="#258F45" stroke-width="0" stroke="#258F45" d = " M268 114 C277.884,114 287.126,127 295,127 295,124.28 299.855,121.21 298,117.5 290.623,102.747 278.934,100 262,100 258.587,100 249,107.78 249,111 249,117.46 244.359,118 251,118 251,114.221 264.832,114 268,114  Z"/>

<path  fill="#23885E" stroke-width="0" stroke="#23885E" d = " M208 124 L209,124 C213.956,124 215,117.782 215,114 215,114 215,113 215,113 211.862,113 209.338,111 207,111 207,111.693 210.419,120.459 207.5,119 207.5,119 205,117 205,117 205,117 208,124 208,124  Z"/>

<path  fill="#23885E" stroke-width="0" stroke="#23885E" d = " M248 124 L249,124 C249,121.517 251,119.974 251,118 244.359,118 249,117.46 249,111 249,111 241,114 241,114 241,118.15 243.163,124 248,124  Z"/>

<path  fill="#228A5D" stroke-width="0" stroke="#228A5D" d = " M161 127 L160,132 C164.198,132 168.866,126.817 172.5,125 177.222,122.639 181.318,124 186,124 186,124 188,114 188,114 178.084,114 169.089,127 161,127  Z"/>

<path  fill="#23885C" stroke-width="0" stroke="#23885C" d = " M186 124 C193.569,124 200.574,124 208,124 208,124 205,117 205,117 199.715,117 194.286,114 188,114 188,114 186,124 186,124  Z"/>

<path  fill="#24885D" stroke-width="0" stroke="#24885D" d = " M214 139 L215,139 C223.127,139 222,121.21 222,115 219.591,115 216.819,114 215,114 215,117.782 213.956,124 209,124 209,129.661 214,133.288 214,139  Z"/>

<path  fill="#24885D" stroke-width="0" stroke="#24885D" d = " M241 139 L242,139 C242,133.817 248,129.086 248,124 243.163,124 241,118.15 241,114 239.436,114 237.124,115 235,115 235,121.375 232.806,139 241,139  Z"/>

<path  fill="#23885C" stroke-width="0" stroke="#23885C" d = " M249 124 C255.989,124 262.793,124 270,124 270,124 268,114 268,114 264.832,114 251,114.221 251,118 251,119.974 249,121.517 249,124  Z"/>

<path  fill="#228A5D" stroke-width="0" stroke="#228A5D" d = " M295 127 L297,132 C293.901,132 282.045,124.772 278.5,123 277.292,122.396 271,122.735 271,124 271,124 270,124 270,124 270,124 268,114 268,114 277.884,114 287.126,127 295,127  Z"/>

<path  fill="#23895D" stroke-width="0" stroke="#23895D" d = " M238 153 L237,155 C234.75,155 233.624,153 232,153 229.754,153 228.9,143 228.5,143 228.5,143 224,154 224,154 222.967,154 218,156.19 218,153 218,148.822 215,144.167 215,139 223.127,139 222,121.21 222,115 225.686,115 231.257,115 235,115 235,121.375 232.806,139 241,139 241,144.291 238,148.193 238,153  Z"/>

<path  fill="#238A5E" stroke-width="0" stroke="#238A5E" d = " M157 138 C157,144.84 154,151.458 154,159 156.751,159 161.76,151.979 163,149.5 164.834,145.832 179.409,134 185,134 185,131.16 186,127.285 186,124 181.318,124 177.222,122.639 172.5,125 168.866,126.817 164.198,132 160,132 160,132 159,132 159,132 159,133.357 158.353,138 157,138  Z"/>

<path  fill="#238A5E" stroke-width="0" stroke="#238A5E" d = " M299 138 C299,140.029 300.191,139.881 301,141.5 L303,160 C303,160 294.5,151 294.5,151 285.848,146.674 283.206,134 272,134 272,134 271,124 271,124 271,122.735 277.292,122.396 278.5,123 282.045,124.772 293.901,132 297,132 297,132 299,138 299,138  Z"/>

<path  fill="#248A5D" stroke-width="0" stroke="#248A5D" d = " M185 134 C197.366,134 204.911,139 214,139 214,133.288 209,129.661 209,124 209,124 208,124 208,124 200.574,124 193.569,124 186,124 186,127.285 185,131.16 185,134  Z"/>

<path  fill="#248A5D" stroke-width="0" stroke="#248A5D" d = " M272 134 C259.881,134 252.102,139 242,139 242,133.817 248,129.086 248,124 248,124 249,124 249,124 255.989,124 262.793,124 270,124 270,124 271,124 271,124 271,124 272,134 272,134  Z"/>

<path  fill="#238A5D" stroke-width="0" stroke="#238A5D" d = " M153 169 L156,169 C157.37,169 169.772,149 175,149 175,149 175,148 175,148 175,148 176,147 176,147 176,147 177,146 177,146 177,146 178,145 178,145 178,145 182,144 182,144 182,144 183,143 183,143 183,143 185,134 185,134 179.409,134 164.834,145.832 163,149.5 161.76,151.979 156.751,159 154,159 154,159 154,160 154,160 154,160 153,169 153,169  Z"/>

<path  fill="#248A5B" stroke-width="0" stroke="#248A5B" d = " M183 143 C190.157,143 197.591,143.046 203.5,146 207.655,148.078 213.184,153 218,153 218,148.822 215,144.167 215,139 215,139 214,139 214,139 204.911,139 197.366,134 185,134 185,134 183,143 183,143  Z"/>

<path  fill="#248A5B" stroke-width="0" stroke="#248A5B" d = " M238 153 L241,153 C241,153 243,152 243,152 243,147.407 267.531,143 273,143 273,139.778 272,136.723 272,134 259.881,134 252.102,139 242,139 242,139 241,139 241,139 241,144.291 238,148.193 238,153  Z"/>

<path  fill="#238A5D" stroke-width="0" stroke="#238A5D" d = " M301 169 L304,169 C304,166.903 303,163.707 303,161 303,161 303,160 303,160 303,160 294.5,151 294.5,151 285.848,146.674 283.206,134 272,134 272,136.723 273,139.778 273,143 273,143 275,144 275,144 275,144 279,146 279,146 279,146 280,147 280,147 280,147 281,148 281,148 286.146,148 298.088,169 301,169  Z"/>

<path  fill="#209765" stroke-width="0" stroke="#209765" d = " M154 159 L154,160 C154,160 149.5,161 149.5,161 143.849,158.174 136,147.233 136,141 136,138.342 136.873,139.813 138.5,139 146.106,135.197 149.231,138 157,138 157,144.84 154,151.458 154,159  Z"/>

<path  fill="#209765" stroke-width="0" stroke="#209765" d = " M303 160 L303,161 C310.213,161 321,147.386 321,141 321,141 321,140 321,140 319.329,140 313.298,136.899 311.5,136 311.5,136 299,138 299,138 299,140.029 300.191,139.881 301,141.5 301,141.5 303,160 303,160  Z"/>

<path  fill="#209764" stroke-width="0" stroke="#209764" d = " M154 160 L153,169 C153,169 149.5,170 149.5,170 143.602,167.051 130,150.563 130,144 132.666,144 132.482,141 135,141 135,141 136,141 136,141 136,147.233 143.849,158.174 149.5,161 149.5,161 154,160 154,160  Z"/>

<path  fill="#209764" stroke-width="0" stroke="#209764" d = " M303 161 C303,163.707 304,166.903 304,169 305.867,169 307.227,170.137 309.5,169 314.534,166.483 326,148.779 326,144 324.053,144 323.364,141 321,141 321,147.386 310.213,161 303,161  Z"/>

<path  fill="#99D2BD" stroke-width="0" stroke="#99D2BD" d = " M224 154 L225,163 C225,163 218.5,155 218.5,155 213.613,152.556 195,143.815 195,154 195,154 191,153 191,153 191,145.678 189.322,144 182,144 182,144 183,143 183,143 190.157,143 197.591,143.046 203.5,146 207.655,148.078 213.184,153 218,153 218,156.19 222.967,154 224,154  Z"/>

<path  fill="#99D2BD" stroke-width="0" stroke="#99D2BD" d = " M266 153 C263.75,153 262.624,155 261,155 261,143.994 249.743,152 243,152 243,147.407 267.531,143 273,143 273,143 275,144 275,144 265.227,144 266,145.124 266,153  Z"/>

<path  fill="#9DF0D1" stroke-width="0" stroke="#9DF0D1" d = " M191 153 C187.371,153 182.595,156 177,156 172.336,156 175,150.56 175,149 175,149 175,148 175,148 175,148 176,147 176,147 176,147 177,146 177,146 177,146 178,145 178,145 178,145 182,144 182,144 189.322,144 191,145.678 191,153  Z"/>

<path  fill="#9DF0D1" stroke-width="0" stroke="#9DF0D1" d = " M266 153 C269.823,153 274.037,156 279,156 285.258,156 281,150.298 281,148 281,148 280,147 280,147 280,147 279,146 279,146 279,146 275,144 275,144 265.227,144 266,145.124 266,153  Z"/>

<path  fill="#99D2BD" stroke-width="0" stroke="#99D2BD" d = " M178 145 L177,146 C177,146 178,145 178,145  Z"/>

<path  fill="#99D2BD" stroke-width="0" stroke="#99D2BD" d = " M279 146 L280,147 C280,147 279,146 279,146  Z"/>

<path  fill="#99D2BD" stroke-width="0" stroke="#99D2BD" d = " M176 147 L175,148 C175,148 176,147 176,147  Z"/>

<path  fill="#99D2BD" stroke-width="0" stroke="#99D2BD" d = " M297 173 C301.471,173 297,195.722 297,199 299.341,199 298.421,196.658 299,195.5 303.761,185.979 301,179.798 301,169 298.088,169 286.146,148 281,148 281,150.298 285.258,156 279,156 279,156 281,158.5 281,158.5 281,158.5 279,161 279,161 279,161 283,161 283,161 287.68,161 297,167.798 297,173  Z"/>

<path  fill="#99D2BD" stroke-width="0" stroke="#99D2BD" d = " M159 174 C156.727,174 157,179.226 157,181 157,187.377 161,196.626 161,202 157.605,202 157.928,195.357 157,193.5 152.522,184.543 156,178.651 156,169 157.37,169 169.772,149 175,149 175,150.56 172.336,156 177,156 177,156 175,158.5 175,158.5 175,158.5 177,161 177,161 177,161 173,161 173,161 167.811,161 159,168.764 159,174  Z"/>

<path  fill="#9AD1BD" stroke-width="0" stroke="#9AD1BD" d = " M191 245 C192.539,245 201.94,251 211,251 211,251 215,247.5 215,247.5 215,247.5 220,239.5 220,239.5 220.788,237.924 225.136,226 226,226 226,226 226,223 226,223 226,223 226,218 226,218 226,216.594 225.286,211 227,211 227,211 227,173 227,173 225.726,173 225,165.517 225,164 225,164 225,163 225,163 225,163 218.5,155 218.5,155 213.613,152.556 195,143.815 195,154 195,154 196,159 196,159 196,159 197,162 197,162 199.109,162 199,164.535 199,166 199,166 199,169 199,169 199,172.824 202.045,180.409 200,184.5 199.099,186.302 198,191.094 198,193 198,194.308 196.856,205 196,205 196,210.345 194,215.613 194,220 194,225.558 189,229.781 189,235 189,235 188,240.5 188,240.5 188,240.5 191,245 191,245  Z"/>

<path  fill="#9AD1BD" stroke-width="0" stroke="#9AD1BD" d = " M246 251 L247,251 C257.004,251 265.484,243 268,243 268,240.293 267,237.097 267,235 267,229.276 262,224.765 262,219 262,214.983 260,210.721 260,206 260,206 258,192 258,192 258,189.418 257.179,183.859 256,181.5 256,181.5 257,169 257,169 257,169 258,166 258,166 255.346,166 258.733,162 260,162 260,160.952 259.527,159 261,159 261,159 261,155 261,155 261,143.994 249.743,152 243,152 243,152 241,153 241,153 241,153 237,155 237,155 237,155.515 231.441,164 231,164 231,164 231,166 231,166 231,167.145 231.579,170 230,170 230,170 230,174 230,174 230,174 230,221 230,221 230,221 230,223 230,223 231.219,223 232.311,232.122 233,233.5 234.012,235.524 245,250.865 245,251 245,251 246,251 246,251  Z"/>

<path  fill="#99D2BD" stroke-width="0" stroke="#99D2BD" d = " M243 152 L241,153 C241,153 243,152 243,152  Z"/>

<path  fill="#9DEFD2" stroke-width="0" stroke="#9DEFD2" d = " M191 162 L192,162 C192,162 196,159 196,159 196,159 195,154 195,154 195,154 191,153 191,153 187.371,153 182.595,156 177,156 177,156 175,158.5 175,158.5 175,158.5 177,161 177,161 177,161 186,162 186,162 186,162 191,162 191,162  Z"/>

<path  fill="#99D2BD" stroke-width="0" stroke="#99D2BD" d = " M237 155 C237,155.515 231.441,164 231,164 231,164 232,153 232,153 233.624,153 234.75,155 237,155  Z"/>

<path  fill="#99D2BD" stroke-width="0" stroke="#99D2BD" d = " M241 153 L237,155 C237,155 238,153 238,153 238,153 241,153 241,153  Z"/>

<path  fill="#9DEFD2" stroke-width="0" stroke="#9DEFD2" d = " M265 162 L271,162 C271,162 279,161 279,161 279,161 281,158.5 281,158.5 281,158.5 279,156 279,156 274.037,156 269.823,153 266,153 263.75,153 262.624,155 261,155 261,155 261,159 261,159 261,159 264,162 264,162 264,162 265,162 265,162  Z"/>

<path  fill="#99D2BD" stroke-width="0" stroke="#99D2BD" d = " M192 162 L197,162 C197,162 196,159 196,159 196,159 192,162 192,162  Z"/>

<path  fill="#99D2BD" stroke-width="0" stroke="#99D2BD" d = " M260 162 L264,162 C264,162 261,159 261,159 259.527,159 260,160.952 260,162  Z"/>

<path  fill="#CACAC9" stroke-width="0" stroke="#CACAC9" d = " M159 174 L160,174 C160,174 165.5,167 165.5,167 166.946,166.277 173,162.747 173,161 167.811,161 159,168.764 159,174  Z"/>

<path  fill-rule="evenodd" fill="#54BF94" stroke-width="0" stroke="#54BF94" d = " M192 220 C192,225.512 192.634,220 192,220  M185 234 L189,235 C189,229.781 194,225.558 194,220 192.421,220 193,217.145 193,216 193,211.991 192.667,206.833 191,203.5 190.041,201.582 182.627,186.245 183,185.5 184.681,182.139 192,187.277 192,190 194.079,190 195.187,193 198,193 198,191.094 199.099,186.302 200,184.5 202.045,180.409 199,172.824 199,169 198.219,169 193,165.81 193,165 193,165 192,165 192,165 192,165 191,164 191,164 191,164 190,164 190,164 190,164 186,162 186,162 186,162 177,161 177,161 177,161 173,161 173,161 173,162.747 166.946,166.277 165.5,167 165.5,167 160,174 160,174 160,177.378 157.096,184.693 159,188.5 159,188.5 172,216.5 172,216.5 174.935,222.369 185,227.96 185,234  Z"/>

<path  fill="#54BF94" stroke-width="0" stroke="#54BF94" d = " M271 234 L267,235 C267,229.276 262,224.765 262,219 262,219 264.5,223 264.5,223 265.861,223 263,218.109 263,217.5 263,213.705 263.396,207.708 265,204.5 266.194,202.111 273.842,187.184 273,185.5 271.267,182.034 265,187.046 265,190 265,190 264,191 264,191 261.989,191 260.011,192 258,192 258,189.418 257.179,183.859 256,181.5 256,181.5 257,169 257,169 258.417,169 263,166.617 263,165 263,165 266,164 266,164 266.671,164 271,162.672 271,162 271,162 279,161 279,161 279,161 283,161 283,161 283,165.014 296,168.028 296,174 296,176.762 299.873,180.755 298,184.5 293.055,194.389 289.994,205.513 285,215.5 282.092,221.316 271,228 271,234  Z"/>

<path  fill="#CACAC9" stroke-width="0" stroke="#CACAC9" d = " M297 173 L296,174 C296,168.028 283,165.014 283,161 287.68,161 297,167.798 297,173  Z"/>

<path  fill="#99D2BD" stroke-width="0" stroke="#99D2BD" d = " M191 162 L190,164 C190,164 186,162 186,162 186,162 191,162 191,162  Z"/>

<path  fill="#CACAC9" stroke-width="0" stroke="#CACAC9" d = " M193 165 C195.124,165 197.436,166 199,166 199,164.535 199.109,162 197,162 197,162 192,162 192,162 192,162 191,162 191,162 191,162 190,164 190,164 190,164 191,164 191,164 191,164 192,165 192,165 192,165 193,165 193,165  Z"/>

<path  fill="#CACAC9" stroke-width="0" stroke="#CACAC9" d = " M263 165 C261.765,165 258,164.357 258,166 255.346,166 258.733,162 260,162 260,162 264,162 264,162 264,162 265,162 265,162 265,162 266,164 266,164 266,164 263,165 263,165  Z"/>

<path  fill="#99D2BD" stroke-width="0" stroke="#99D2BD" d = " M271 162 C271,162.672 266.671,164 266,164 266,164 265,162 265,162 265,162 271,162 271,162  Z"/>

<path  fill="#99D2BD" stroke-width="0" stroke="#99D2BD" d = " M191 164 L192,165 C192,165 191,164 191,164  Z"/>

<path  fill="#99D2BD" stroke-width="0" stroke="#99D2BD" d = " M225 164 C227.156,164 227,171.077 227,173 225.726,173 225,165.517 225,164  Z"/>

<path  fill="#99D2BD" stroke-width="0" stroke="#99D2BD" d = " M199 166 L199,169 C198.219,169 193,165.81 193,165 195.124,165 197.436,166 199,166  Z"/>

<path  fill="#99D2BD" stroke-width="0" stroke="#99D2BD" d = " M258 166 L257,169 C258.417,169 263,166.617 263,165 261.765,165 258,164.357 258,166  Z"/>

<path  fill="#99D2BD" stroke-width="0" stroke="#99D2BD" d = " M231 166 C229.421,166 230,168.855 230,170 231.579,170 231,167.145 231,166  Z"/>

<path  fill="#CAC8C7" stroke-width="0" stroke="#CAC8C7" d = " M280 229 C275.734,229 275.201,234 271,234 271,228 282.092,221.316 285,215.5 289.994,205.513 293.055,194.389 298,184.5 299.873,180.755 296,176.762 296,174 296,174 297,173 297,173 301.471,173 297,195.722 297,199 297,199 297,200 297,200 297,200 296,201 296,201 296,206.852 290.557,215.385 288,220.5 288,220.5 281,228 281,228 281,228 280,229 280,229  Z"/>

<path  fill="#CAC8C7" stroke-width="0" stroke="#CAC8C7" d = " M175 228 C178.721,228 181.197,234 185,234 185,227.96 174.935,222.369 172,216.5 172,216.5 159,188.5 159,188.5 157.096,184.693 160,177.378 160,174 160,174 159,174 159,174 156.727,174 157,179.226 157,181 157,187.377 161,196.626 161,202 161,208.148 166.339,216.178 169,221.5 169,221.5 175,228 175,228  Z"/>

<path  fill="#99D2BD" stroke-width="0" stroke="#99D2BD" d = " M230 174 C228.237,174 229,182.343 229,184 L229,212.5 C229,214.032 228.257,221 230,221 230,221 230,174 230,174  Z"/>

<path  fill="#CBCBC7" stroke-width="0" stroke="#CBCBC7" d = " M196 205 C196,210.345 194,215.613 194,220 192.421,220 193,217.145 193,216 193,211.991 192.667,206.833 191,203.5 190.041,201.582 182.627,186.245 183,185.5 184.681,182.139 192,187.277 192,190 192,195.277 196,200.073 196,205  Z"/>

<path  fill="#CBCBC7" stroke-width="0" stroke="#CBCBC7" d = " M260 206 C260,210.721 262,214.983 262,219 262,219 264.5,223 264.5,223 265.861,223 263,218.109 263,217.5 263,213.705 263.396,207.708 265,204.5 266.194,202.111 273.842,187.184 273,185.5 271.267,182.034 265,187.046 265,190 265,190 264,191 264,191 264,195.148 262.707,198.086 261,201.5 260.426,202.647 262.064,206 260,206  Z"/>

<path  fill="#99D2BD" stroke-width="0" stroke="#99D2BD" d = " M198 193 C198,194.308 196.856,205 196,205 196,200.073 192,195.277 192,190 194.079,190 195.187,193 198,193  Z"/>

<path  fill="#99D2BD" stroke-width="0" stroke="#99D2BD" d = " M265 190 L264,191 C264,191 265,190 265,190  Z"/>

<path  fill="#99D2BD" stroke-width="0" stroke="#99D2BD" d = " M258 192 L260,206 C262.064,206 260.426,202.647 261,201.5 262.707,198.086 264,195.148 264,191 261.989,191 260.011,192 258,192  Z"/>

<path  fill="#99D2BD" stroke-width="0" stroke="#99D2BD" d = " M297 200 L296,201 C296,201 297,200 297,200  Z"/>

<path  fill="#C7CBCA" stroke-width="0" stroke="#C7CBCA" d = " M226 218 L227,218 C227,218 227,211 227,211 225.286,211 226,216.594 226,218  Z"/>

<path  fill="#99D2BD" stroke-width="0" stroke="#99D2BD" d = " M227 218 C227,219.235 227.643,223 226,223 226,223 226,218 226,218 226,218 227,218 227,218  Z"/>

<path  fill="#CBCBC7" stroke-width="0" stroke="#CBCBC7" d = " M192 220 C192,225.512 192.634,220 192,220  Z"/>

<path  fill="#C7CBCA" stroke-width="0" stroke="#C7CBCA" d = " M230 223 C231.219,223 232.311,232.122 233,233.5 234.012,235.524 245,250.865 245,251 232.422,251 230,232.665 230,223  Z"/>

<path  fill="#C7CBCA" stroke-width="0" stroke="#C7CBCA" d = " M226 226 C225.136,226 220.788,237.924 220,239.5 L215,247.5 L211,251 C222.871,251 226,236.305 226,226  Z"/>

<path  fill="#99D2BD" stroke-width="0" stroke="#99D2BD" d = " M189 235 L188,240.5 L191,245 C189.939,245 175,230.466 175,228 178.721,228 181.197,234 185,234 185,234 189,235 189,235  Z"/>

<path  fill="#99D2BD" stroke-width="0" stroke="#99D2BD" d = " M281 228 L280,229 C280,229 281,228 281,228  Z"/>

<path  fill="#99D2BD" stroke-width="0" stroke="#99D2BD" d = " M267 235 C267,237.097 268,240.293 268,243 271.022,243 280,231.34 280,229 275.734,229 275.201,234 271,234 271,234 267,235 267,235  Z"/>

<path  fill="#C7CBCA" stroke-width="0" stroke="#C7CBCA" d = " M246 251 L247,251 C247,252.186 246,252.186 246,251  Z"/>

</g>
</svg>
