<svg xmlns="http://www.w3.org/2000/svg" xmlns:xlink="http://www.w3.org/1999/xlink"  viewBox="0 0 456 320">
<g>
<rect width="456" height="320" fill="#000000"  stroke-width="0" /> 
<path  fill="#99D2BD" stroke-width="0" stroke="#99D2BD" d = " M196 113 L201,113 C201,111.434 196,111.434 196,113  Z"/>

<path  fill="#99D2BD" stroke-width="0" stroke="#99D2BD" d = " M255 113 L261,113 C261,111.413 255,111.413 255,113  Z"/>

<path  fill="#C7CBCA" stroke-width="0" stroke="#C7CBCA" d = " M158 221 C158,224.856 162.396,226.292 164,229.5 168.11,237.721 173.005,239.253 180.5,243 L193.5,243 C196.954,244.727 204.8,248.35 209.5,246 217.364,242.068 222.409,229.682 226,222.5 L228.5,210 L231,225.5 C233.925,231.35 240.707,243.103 246.5,246 251.238,248.369 259.963,244.768 263.5,243 L275.5,243 C283.462,239.019 288.715,237.069 293,228.5 294.169,226.162 298,224.777 298,222 298,201.285 304,184 304,163 304,163 304,161 304,161 302.265,161 303,154.49 303,153 303,153 303,148 303,148 301.527,148 302,146.048 302,145 302,145 302,144 302,144 300.527,144 301,142.048 301,141 301,141 301,139 301,139 301,139 299,135 299,135 299,135 299,134 299,134 297.423,134 297,132.238 297,131 297,131 297,130 297,130 297,130 296,129 296,129 294.251,129 289.303,122.401 286.5,121 280.106,117.803 271.527,113 264,113 264,113 264,114 264,114 270.071,114 276.268,120.384 281.5,123 312.91,138.705 294.117,174.267 283,196.5 283,196.5 283,201.5 283,201.5 279.662,208.176 281.163,216.175 277,224.5 272.627,233.246 252.087,237.673 247,227.5 247,227.5 241,218.5 241,218.5 241,218.5 238,208.5 238,208.5 238,208.5 237,195.5 237,195.5 233.398,188.296 234,173.284 234,165 234,158.758 227.558,136.385 230,131.5 230,131.5 236,120 236,120 236,120 235,119 235,119 232.785,119 230.039,123.421 229,125.5 229,125.5 228.5,128 228.5,128 226.783,128 225.31,119 222,119 222,119 220,119 220,119 220,119 226,130.5 226,130.5 226,130.5 226,142 226,142 226,148.535 223.749,168.003 221,173.5 221,173.5 221,191.5 221,191.5 214.302,204.896 222.519,221.991 202.5,232 200.538,232.981 193.932,234.216 191.5,233 191.5,233 183.5,229 183.5,229 173.825,224.162 177.753,210.006 175,204.5 173.51,201.519 174.446,197.392 173,194.5 173,194.5 159,165.5 159,165.5 157.694,162.888 158.358,159.216 157,156.5 155.846,154.192 157.082,148.337 158,146.5 158,146.5 159,140.5 159,140.5 164.091,130.318 169.992,124.254 180.5,119 182.111,118.195 192,115.443 192,114 192,114 192,113 192,113 187.057,113 161,123.288 161,129 161,129 160,130 160,130 160,130 159,131 159,131 159,131 159,132 159,132 159,132 158,133 158,133 158,133 157,135 157,135 157,135 157,136 157,136 157,136 156,137 156,137 156,137 156,138 156,138 156,139.048 156.473,141 155,141 155,141 155,143 155,143 155,144.048 155.473,146 154,146 154,146 154,147 154,147 154,148.145 154.579,151 153,151 153,151 153,158 153,158 153,158 153,183.5 153,183.5 157.812,193.125 158,210.405 158,221  Z"/>

<path  fill="#99D2BD" stroke-width="0" stroke="#99D2BD" d = " M195 113 C195,114.473 193.048,114 192,114 192,114 192,113 192,113 192,113 195,113 195,113  Z"/>

<path  fill="#9AD1BD" stroke-width="0" stroke="#9AD1BD" d = " M192 114 C192,115.443 182.111,118.195 180.5,119 169.992,124.254 164.091,130.318 159,140.5 L158,146.5 C157.082,148.337 155.846,154.192 157,156.5 158.358,159.216 157.694,162.888 159,165.5 L173,194.5 C174.446,197.392 173.51,201.519 175,204.5 177.753,210.006 173.825,224.162 183.5,229 L191.5,233 C193.932,234.216 200.538,232.981 202.5,232 222.519,221.991 214.302,204.896 221,191.5 L221,173.5 C223.749,168.003 226,148.535 226,142 L226,130.5 L220,119 C220,119 211,113 211,113 211,113 201,113 201,113 201,113 196,113 196,113 196,113 195,113 195,113 195,114.473 193.048,114 192,114  Z"/>

<path  fill="#99D2BD" stroke-width="0" stroke="#99D2BD" d = " M220 119 L222,119 C222,116.744 213.027,113 211,113 211,113 220,119 220,119  Z"/>

<path  fill="#99D2BD" stroke-width="0" stroke="#99D2BD" d = " M245 113 L243,114 C243,114 245,113 245,113  Z"/>

<path  fill="#9AD1BD" stroke-width="0" stroke="#9AD1BD" d = " M241 115 L236,120 C236,120 230,131.5 230,131.5 227.558,136.385 234,158.758 234,165 234,173.284 233.398,188.296 237,195.5 237,195.5 238,208.5 238,208.5 238,208.5 241,218.5 241,218.5 241,218.5 247,227.5 247,227.5 252.087,237.673 272.627,233.246 277,224.5 281.163,216.175 279.662,208.176 283,201.5 283,201.5 283,196.5 283,196.5 294.117,174.267 312.91,138.705 281.5,123 276.268,120.384 270.071,114 264,114 264,114 262,113 262,113 262,113 261,113 261,113 261,113 255,113 255,113 255,113 245,113 245,113 245,113 243,114 243,114 243,114 241,115 241,115  Z"/>

<path  fill="#99D2BD" stroke-width="0" stroke="#99D2BD" d = " M264 113 L264,114 C264,114 262,113 262,113 262,113 264,113 264,113  Z"/>

<path  fill="#99D2BD" stroke-width="0" stroke="#99D2BD" d = " M243 114 L241,115 C241,115 243,114 243,114  Z"/>

<path  fill="#99D2BD" stroke-width="0" stroke="#99D2BD" d = " M235 119 L236,120 C236,120 241,115 241,115 238.756,115 235,116.725 235,119  Z"/>

<path  fill="#99D2BD" stroke-width="0" stroke="#99D2BD" d = " M161 129 L160,130 C160,130 161,129 161,129  Z"/>

<path  fill="#99D2BD" stroke-width="0" stroke="#99D2BD" d = " M296 129 L297,130 C297,130 296,129 296,129  Z"/>

<path  fill="#99D2BD" stroke-width="0" stroke="#99D2BD" d = " M160 130 L159,131 C159,131 160,130 160,130  Z"/>

<path  fill="#99D2BD" stroke-width="0" stroke="#99D2BD" d = " M297 131 L299,134 C297.423,134 297,132.238 297,131  Z"/>

<path  fill="#99D2BD" stroke-width="0" stroke="#99D2BD" d = " M159 132 L158,133 C158,133 159,132 159,132  Z"/>

<path  fill="#99D2BD" stroke-width="0" stroke="#99D2BD" d = " M158 133 L157,135 C157,135 158,133 158,133  Z"/>

<path  fill="#99D2BD" stroke-width="0" stroke="#99D2BD" d = " M299 135 L301,139 C301,139 299,135 299,135  Z"/>

<path  fill="#99D2BD" stroke-width="0" stroke="#99D2BD" d = " M157 136 L156,137 C156,137 157,136 157,136  Z"/>

<path  fill="#99D2BD" stroke-width="0" stroke="#99D2BD" d = " M156 138 C154.527,138 155,139.952 155,141 156.473,141 156,139.048 156,138  Z"/>

<path  fill="#99D2BD" stroke-width="0" stroke="#99D2BD" d = " M301 141 C302.473,141 302,142.952 302,144 300.527,144 301,142.048 301,141  Z"/>

<path  fill="#99D2BD" stroke-width="0" stroke="#99D2BD" d = " M155 143 C153.527,143 154,144.952 154,146 155.473,146 155,144.048 155,143  Z"/>

<path  fill="#99D2BD" stroke-width="0" stroke="#99D2BD" d = " M302 145 C303.473,145 303,146.952 303,148 301.527,148 302,146.048 302,145  Z"/>

<path  fill="#99D2BD" stroke-width="0" stroke="#99D2BD" d = " M154 147 C152.421,147 153,149.855 153,151 154.579,151 154,148.145 154,147  Z"/>

<path  fill="#99D2BD" stroke-width="0" stroke="#99D2BD" d = " M303 153 C304.735,153 304,159.51 304,161 302.265,161 303,154.49 303,153  Z"/>

<path  fill="#99D2BD" stroke-width="0" stroke="#99D2BD" d = " M153 158 C151.964,158 151,172.625 151,174.5 151,181.671 144.332,201.165 148,208.5 L151,211.5 C152.077,213.655 154.754,221 158,221 158,210.405 157.812,193.125 153,183.5 153,183.5 153,158 153,158  Z"/>

<path  fill="#99D2BD" stroke-width="0" stroke="#99D2BD" d = " M304 163 C305.48,163 305.133,176.766 306,178.5 306.799,180.097 309.524,204.453 309,205.5 307.89,207.72 305.811,209.879 305,211.5 303.968,213.563 301.316,222 298,222 298,201.285 304,184 304,163  Z"/>

</g>
</svg>
