<svg xmlns="http://www.w3.org/2000/svg" xmlns:xlink="http://www.w3.org/1999/xlink"  viewBox="0 0 456 320">
<g>
<rect width="456" height="320" fill="#000000"  stroke-width="0" /> 
<path  fill="#FCFB90" stroke-width="0" stroke="#FCFB90" d = " M210 43 C221.844,43 234.193,43 246,43 246,41.2864 240.406,42 239,42 232.371,42 224.578,42 218,42 216.51,42 210,41.2651 210,43  Z"/>

<path  fill="#FEFA90" stroke-width="0" stroke="#FEFA90" d = " M277 126 L281,126 C281,125.472 285.532,107.436 286,106.5 287.861,102.778 285,95.8064 285,92.5 285,92.5 285,53 285,53 285,53 273.5,47 273.5,47 266.083,43.2915 254.878,43 246,43 234.193,43 221.844,43 210,43 200.017,43 188.802,43.8488 180.5,48 180.5,48 171,53 171,53 171,68.0108 171,81.4203 171,96 171,96 171,113.5 171,113.5 172.313,116.127 176,123.292 176,126 176,126 179,126 179,126 179,125.282 175.738,120.975 175,119.5 171.986,113.471 171.976,94.5482 175,88.5 179.534,79.4315 188.639,76.9305 196.5,73 215.974,63.2628 240.026,63.2632 259.5,73 267.093,76.7963 276.432,79.3635 281,88.5 284.951,96.402 285.143,112.215 281,120.5 280.319,121.862 277,125.344 277,126  Z"/>

<path  fill="#FDFB8F" stroke-width="0" stroke="#FDFB8F" d = " M148 96 C153.73,96 159.176,77.1482 161,73.5 161.645,72.211 164.522,68.0109 166.5,69 L164,73.5 C162.17,77.1607 161.908,81.6841 160,85.5 155.886,93.7275 149.87,121.185 161.5,127 L176,126 C176,123.292 172.313,116.127 171,113.5 171,113.5 171,96 171,96 171,81.4203 171,68.0108 171,53 161.129,53 154.471,54.5145 145.5,59 143.408,60.0459 139.726,67 139,67 139,67 145,77.5 145,77.5 147.491,82.4818 148,90.0431 148,96  Z"/>

<path  fill="#FDFB8F" stroke-width="0" stroke="#FDFB8F" d = " M309 96 C301.236,96 298.368,80.2359 296,75.5 295.172,73.8435 292.766,67.3672 289.5,69 L293,75.5 C294.838,79.1762 295.109,83.7182 297,87.5 301.152,95.8041 306.295,121.102 294.5,127 290.822,128.839 284.404,126 281,126 281,125.472 285.532,107.436 286,106.5 287.861,102.778 285,95.8064 285,92.5 285,92.5 285,53 285,53 285,53 292.5,52 292.5,52 298.61,55.0551 317,57.2066 317,67 317,67 311,78.5 311,78.5 308.586,83.3273 309,90.1728 309,96  Z"/>

<path  fill="#FCFB90" stroke-width="0" stroke="#FCFB90" d = " M179 126 C181.772,126 184.167,127.833 186.5,129 192.589,132.045 202.307,127.904 208.5,131 L217.5,130 C220.458,131.479 226.543,136.979 230.5,135 233.456,133.522 235.214,131.643 238.5,130 240.79,128.855 265.111,131.194 269.5,129 271.833,127.833 274.228,126 277,126 277,125.344 280.319,121.862 281,120.5 285.143,112.215 284.951,96.402 281,88.5 276.432,79.3635 267.093,76.7963 259.5,73 240.026,63.2632 215.974,63.2628 196.5,73 188.639,76.9305 179.534,79.4315 175,88.5 171.976,94.5482 171.986,113.471 175,119.5 175.738,120.975 179,125.282 179,126  Z"/>

<path  fill-rule="evenodd" fill="#FCFC90" stroke-width="0" stroke="#FCFC90" d = " M130 89 C130,97.182 135.474,89 130,89  M129 86 C129,89.7458 131.091,86 129,86  M93 100 C108.817,100 108.838,114.176 114,124.5 116.353,129.207 136.11,135 141,135 148.752,135 150.956,112.413 148,106.5 145.766,102.033 142.792,100.146 138.5,98 137.398,97.449 133,96.8143 133,94.5 133,94.5 138.5,97 138.5,97 140.311,97.9054 148,100.449 148,96 148,90.0431 147.491,82.4818 145,77.5 145,77.5 139,67 139,67 126.606,67 93,85.8437 93,100  Z"/>

<path  fill-rule="evenodd" fill="#FCFC90" stroke-width="0" stroke="#FCFC90" d = " M325 90 C325,90.2348 321.628,94 323.5,94 324.441,94 327.631,90 325,90  M326 87 C326,92.5668 328.112,87 326,87  M327 86 C327,87.93 328.93,86 327,86  M364 100 C352.651,100 349.311,106.878 345,115.5 343.491,118.518 344.223,125.138 340.5,127 334.517,129.991 327.319,130.091 321.5,133 320.179,133.66 316,133.951 316,136 307.899,136 305.214,113.073 308,107.5 310.197,103.105 313.105,100.197 317.5,98 318.466,97.517 323,97.4811 323,95.5 323,95.5 320.5,95 320.5,95 318.745,95.8776 309,102.278 309,96 309,90.1728 308.586,83.3273 311,78.5 311,78.5 317,67 317,67 329.792,67 364,86.6618 364,100  Z"/>

<path  fill="#CBC9CC" stroke-width="0" stroke="#CBC9CC" d = " M143 186 C140.187,186 139.539,190 138,190 138,185.223 142.854,176.792 145,172.5 146.929,168.642 146.665,160.169 149,155.5 149.438,154.624 150.778,143 149.5,143 149.5,143 136,148 136,148 136,148 135,149 135,149 135,149 127.5,153 127.5,153 127.5,153 113.5,157 113.5,157 113.5,157 105.5,163 105.5,163 103.97,163.765 97.393,175.947 95.5,175 93.8869,174.193 95.5939,170.312 96,169.5 96,169.5 109,155.5 109,155.5 109.713,154.787 113.019,150 110,150 110,146.995 102.3,147.9 100.5,147 96.8853,145.193 93.9253,145 89.5,145 89.5,145 84,145.5 84,145.5 84,145.5 87,140.5 87,140.5 87,140.5 87,135.5 87,135.5 87,135.5 91.5,139 91.5,139 94.766,140.633 98.2495,141.375 101.5,143 108.851,146.675 126.007,144.246 132.5,141 134.526,139.987 141,138.75 141,135 148.752,135 150.956,112.413 148,106.5 145.766,102.033 142.792,100.146 138.5,98 137.398,97.449 133,96.8143 133,94.5 133,94.5 138.5,97 138.5,97 140.311,97.9054 148,100.449 148,96 153.73,96 159.176,77.1482 161,73.5 161.645,72.211 164.522,68.0109 166.5,69 166.5,69 164,73.5 164,73.5 162.17,77.1607 161.908,81.6841 160,85.5 155.886,93.7275 149.87,121.185 161.5,127 161.5,127 176,126 176,126 176,126 179,126 179,126 181.772,126 184.167,127.833 186.5,129 192.589,132.045 202.307,127.904 208.5,131 208.5,131 217.5,130 217.5,130 220.458,131.479 226.543,136.979 230.5,135 233.456,133.522 235.214,131.643 238.5,130 240.79,128.855 265.111,131.194 269.5,129 271.833,127.833 274.228,126 277,126 277,126 281,126 281,126 284.404,126 290.822,128.839 294.5,127 306.295,121.102 301.152,95.8041 297,87.5 295.109,83.7182 294.838,79.1762 293,75.5 293,75.5 289.5,69 289.5,69 292.766,67.3672 295.172,73.8435 296,75.5 298.368,80.2359 301.236,96 309,96 309,102.278 318.745,95.8776 320.5,95 320.5,95 323,95.5 323,95.5 323,97.4811 318.466,97.517 317.5,98 313.105,100.197 310.197,103.105 308,107.5 305.214,113.073 307.899,136 316,136 316,139.168 322.668,140.084 324.5,141 331.048,144.274 348.069,146.715 355.5,143 358.751,141.375 362.234,140.633 365.5,139 365.5,139 369,135.5 369,135.5 369,135.5 369,139.5 369,139.5 369,139.5 373,145.5 373,145.5 373,146.808 368.209,145 367.5,145 362.761,145 359.38,145.06 355.5,147 353.82,147.84 346,147.504 346,150 342.829,150 347.247,155.747 348,156.5 351.86,160.36 356.545,163.59 359,168.5 359.487,169.473 363.139,173.681 360.5,175 360.5,175 357.5,172 357.5,172 354.893,169.393 353.036,165.536 350,162.5 347.517,160.017 323.852,149 322,149 322,149 321,149 321,149 321,149 320,148 320,148 320,148 306.5,143 306.5,143 303.817,144.342 307.298,154.097 308,155.5 308,155.5 313,177.5 313,177.5 313,177.5 318,189 318,189 318,189 309,181 309,181 309,181 307,177 307,177 309.334,177 310.1,171.7 309,169.5 306.895,165.289 300.722,161.943 299,158.5 299,158.5 296.5,152 296.5,152 291.999,149.749 290.332,153.084 286.5,155 286.5,155 282,152 282,152 282,152 281,146 281,146 281,143.083 289.996,138.493 288,134.5 286.526,131.552 283.632,134.066 281.5,133 276.558,130.529 269.052,136.724 264.5,139 264.5,139 259.5,139 259.5,139 259.5,139 255.5,145 255.5,145 255.5,145 251,147.5 251,147.5 251,147.5 255.5,152 255.5,152 258.149,154.649 269.334,160.083 273.5,158 276.541,156.479 269.684,150 276,150 276,151.242 277.019,159 278,159 278,163.857 288,161.212 288,165 282.709,165 263.309,159.405 258.5,157 254.624,155.062 249.447,150 245,150 245,147.847 237.925,147 236,147 236,147 230.5,145 230.5,145 227.369,143.434 218.114,146.693 215.5,148 214.57,148.465 211,148.817 211,150 207.404,150 205.485,153.507 202.5,155 194.421,159.04 183.609,163 174,163 174,162.941 179,159.412 179,154 179,154 181,151 181,151 185.531,151 179.973,156.237 183.5,158 186.929,159.714 191.992,156.254 194.5,155 198.182,153.159 203.192,152.115 205,148.5 205,148.5 199.5,143 199.5,143 195.023,138.523 187.613,136.057 181.5,133 180.266,132.383 169.752,131.995 169,133.5 165.909,139.681 176,142.693 176,147 174.357,147 175,150.765 175,152 175,152 170.5,155 170.5,155 166.516,153.008 164.192,149.654 159.5,152 159.113,152.193 157.342,157.816 157,158.5 155.893,160.713 138.431,177 150,177 150,177 147,181 147,181 147,181 144,185 144,185 144,185 143,186 143,186  Z"/>

<path  fill="#CBC9CC" stroke-width="0" stroke="#CBC9CC" d = " M129 86 C129,89.7458 131.091,86 129,86  Z"/>

<path  fill="#CBC9CC" stroke-width="0" stroke="#CBC9CC" d = " M327 86 C327,87.93 328.93,86 327,86  Z"/>

<path  fill="#CBC9CC" stroke-width="0" stroke="#CBC9CC" d = " M326 87 C326,92.5668 328.112,87 326,87  Z"/>

<path  fill="#CBC9CC" stroke-width="0" stroke="#CBC9CC" d = " M130 89 C130,97.182 135.474,89 130,89  Z"/>

<path  fill="#CBC9CC" stroke-width="0" stroke="#CBC9CC" d = " M325 90 C325,90.2348 321.628,94 323.5,94 324.441,94 327.631,90 325,90  Z"/>

<path  fill-rule="evenodd" fill="#FCFA91" stroke-width="0" stroke="#FCFA91" d = " M83 146 C83,147.93 84.93,146 83,146  M110 150 L77,165 C65.7577,165 65,153.456 65,143 65,127.924 73.9461,109.777 87.5,103 89.2904,102.105 90.9025,100 93,100 108.817,100 108.838,114.176 114,124.5 116.353,129.207 136.11,135 141,135 141,138.75 134.526,139.987 132.5,141 126.007,144.246 108.851,146.675 101.5,143 98.2495,141.375 94.766,140.633 91.5,139 91.5,139 87,135.5 87,135.5 87,135.5 87,140.5 87,140.5 87,140.5 84,145.5 84,145.5 84,145.5 89.5,145 89.5,145 93.9253,145 96.8853,145.193 100.5,147 102.3,147.9 110,146.995 110,150  Z"/>

<path  fill="#FCFA91" stroke-width="0" stroke="#FCFA91" d = " M346 150 C349.758,150 366.253,158.876 370.5,161 371.89,161.695 379,163.272 379,165 390.735,165 391,154.098 391,143.5 391,128.53 383.599,110.05 369.5,103 369.5,103 364,100 364,100 352.651,100 349.311,106.878 345,115.5 343.491,118.518 344.223,125.138 340.5,127 334.517,129.991 327.319,130.091 321.5,133 320.179,133.66 316,133.951 316,136 316,139.168 322.668,140.084 324.5,141 331.048,144.274 348.069,146.715 355.5,143 358.751,141.375 362.234,140.633 365.5,139 365.5,139 369,135.5 369,135.5 369,135.5 369,139.5 369,139.5 369,139.5 373,145.5 373,145.5 373,146.808 368.209,145 367.5,145 362.761,145 359.38,145.06 355.5,147 353.82,147.84 346,147.504 346,150  Z"/>

<path  fill="#FFFCBC" stroke-width="0" stroke="#FFFCBC" d = " M176 147 C177.061,147 181,149.571 181,151 185.531,151 179.973,156.237 183.5,158 186.929,159.714 191.992,156.254 194.5,155 198.182,153.159 203.192,152.115 205,148.5 205,148.5 199.5,143 199.5,143 195.023,138.523 187.613,136.057 181.5,133 180.266,132.383 169.752,131.995 169,133.5 165.909,139.681 176,142.693 176,147  Z"/>

<path  fill="#FFFCBC" stroke-width="0" stroke="#FFFCBC" d = " M281 146 L276,150 C269.684,150 276.541,156.479 273.5,158 269.334,160.083 258.149,154.649 255.5,152 255.5,152 251,147.5 251,147.5 251,147.5 255.5,145 255.5,145 255.5,145 259.5,139 259.5,139 259.5,139 264.5,139 264.5,139 269.052,136.724 276.558,130.529 281.5,133 283.632,134.066 286.526,131.552 288,134.5 289.996,138.493 281,143.083 281,146  Z"/>

<path  fill="#FFF990" stroke-width="0" stroke="#FFF990" d = " M138 190 L133,198 C130.748,198 125.961,183 121,183 121,174.286 125.335,164.829 129,157.5 129,157.5 135,149 135,149 135,149 136,148 136,148 136,148 149.5,143 149.5,143 150.778,143 149.438,154.624 149,155.5 146.665,160.169 146.929,168.642 145,172.5 142.854,176.792 138,185.223 138,190  Z"/>

<path  fill="#FFF990" stroke-width="0" stroke="#FFF990" d = " M318 189 C318,190.955 321.574,198 324,198 324,194.187 335,183.739 335,182 335,169.738 322,153.801 322,149 322,149 321,149 321,149 321,149 320,148 320,148 320,148 306.5,143 306.5,143 303.817,144.342 307.298,154.097 308,155.5 308,155.5 313,177.5 313,177.5 313,177.5 318,189 318,189  Z"/>

<path  fill="#FFFA8F" stroke-width="0" stroke="#FFFA8F" d = " M211 150 C223.363,150 232.739,150 245,150 245,147.847 237.925,147 236,147 236,147 230.5,145 230.5,145 227.369,143.434 218.114,146.693 215.5,148 214.57,148.465 211,148.817 211,150  Z"/>

<path  fill="#CBC9CC" stroke-width="0" stroke="#CBC9CC" d = " M83 146 C83,147.93 84.93,146 83,146  Z"/>

<path  fill="#F0F080" stroke-width="0" stroke="#F0F080" d = " M282 152 C277.281,152 278,155.164 278,159 277.019,159 276,151.242 276,150 276,150 281,146 281,146 281,146 282,152 282,152  Z"/>

<path  fill="#F0F080" stroke-width="0" stroke="#F0F080" d = " M175 152 L179,154 C179,154 181,151 181,151 181,149.571 177.061,147 176,147 174.357,147 175,150.765 175,152  Z"/>

<path  fill="#FFFB8E" stroke-width="0" stroke="#FFFB8E" d = " M136 148 L135,149 C135,149 136,148 136,148  Z"/>

<path  fill="#FFFB8E" stroke-width="0" stroke="#FFFB8E" d = " M320 148 L321,149 C321,149 320,148 320,148  Z"/>

<path  fill="#FFFB8E" stroke-width="0" stroke="#FFFB8E" d = " M110 201 C108.457,201 102,202.709 102,204 86.3673,204 77,178.612 77,165 77,165 110,150 110,150 113.019,150 109.713,154.787 109,155.5 109,155.5 96,169.5 96,169.5 95.5939,170.312 93.8869,174.193 95.5,175 97.393,175.947 103.97,163.765 105.5,163 105.5,163 113.5,157 113.5,157 113.5,157 127.5,153 127.5,153 127.5,153 135,149 135,149 135,149 129,157.5 129,157.5 125.335,164.829 121,174.286 121,183 118.786,183 111.451,201 110,201  Z"/>

<path  fill="#FDFC8F" stroke-width="0" stroke="#FDFC8F" d = " M244 188 L243,189 C237.067,189 224.481,192.99 218.5,190 216.158,188.829 210.438,185 208,185 208,185 206,185 206,185 206,185 204,184 204,184 204,184 203,184 203,184 203,184 201,183 201,183 201,183 197,183 197,183 197,181.461 185.093,181 183,181 183,181 159,179 159,179 159,179 158,179 158,179 158,173.579 148.327,181 147,181 147,181 150,177 150,177 150,177 166,166 166,166 166,166 167,165 167,165 167,165 169,165 169,165 170.041,165 174,164.014 174,163 183.609,163 194.421,159.04 202.5,155 205.485,153.507 207.404,150 211,150 223.363,150 232.739,150 245,150 249.447,150 254.624,155.062 258.5,157 263.309,159.405 282.709,165 288,165 288,165 289,165 289,165 289,165 290,166 290,166 290,166 291,166 291,166 291,166 292,167 292,167 297.496,167 301.279,177 307,177 307,177 309,181 309,181 307.96,181 299,173.264 299,179 299,179 297,179 297,179 297,179 273,181 273,181 270.907,181 259,181.461 259,183 259,183 255,183 255,183 255,183 253,184 253,184 253,184 252,184 252,184 252,184 251,185 251,185 251,185 249,185 249,185 249,185 248,186 248,186 248,186 247,186 247,186 247,186 246,187 246,187 246,187 245,187 245,187 245,187 244,188 244,188  Z"/>

<path  fill="#FFFB8E" stroke-width="0" stroke="#FFFB8E" d = " M347 201 C348.336,201 355,203.177 355,204 370.514,204 374.468,183.565 380,172.5 380.208,172.084 379,166.414 379,165 379,163.272 371.89,161.695 370.5,161 366.253,158.876 349.758,150 346,150 342.829,150 347.247,155.747 348,156.5 351.86,160.36 356.545,163.59 359,168.5 359.487,169.473 363.139,173.681 360.5,175 360.5,175 357.5,172 357.5,172 354.893,169.393 353.036,165.536 350,162.5 347.517,160.017 323.852,149 322,149 322,153.801 335,169.738 335,182 337.224,182 344.585,201 347,201  Z"/>

<path  fill="#FFFDBC" stroke-width="0" stroke="#FFFDBC" d = " M166 166 L150,177 C138.431,177 155.893,160.713 157,158.5 157.342,157.816 159.113,152.193 159.5,152 164.192,149.654 166.516,153.008 170.5,155 170.5,155 175,152 175,152 175,152 179,154 179,154 179,159.412 174,162.941 174,163 172.378,163 169,162.539 169,165 169,165 167,165 167,165 167,165 166,166 166,166  Z"/>

<path  fill="#FFFDBC" stroke-width="0" stroke="#FFFDBC" d = " M292 167 C297.496,167 301.279,177 307,177 309.334,177 310.1,171.7 309,169.5 306.895,165.289 300.722,161.943 299,158.5 299,158.5 296.5,152 296.5,152 291.999,149.749 290.332,153.084 286.5,155 286.5,155 282,152 282,152 277.281,152 278,155.164 278,159 278,163.857 288,161.212 288,165 288,165 289,165 289,165 289,165 290,166 290,166 290,166 291,166 291,166 291,166 292,167 292,167  Z"/>

<path  fill="#CBC9CC" stroke-width="0" stroke="#CBC9CC" d = " M174 163 C172.378,163 169,162.539 169,165 170.041,165 174,164.014 174,163  Z"/>

<path  fill="#CBC9CC" stroke-width="0" stroke="#CBC9CC" d = " M167 165 L166,166 C166,166 167,165 167,165  Z"/>

<path  fill="#CBC9CC" stroke-width="0" stroke="#CBC9CC" d = " M289 165 L290,166 C290,166 289,165 289,165  Z"/>

<path  fill="#CBC9CC" stroke-width="0" stroke="#CBC9CC" d = " M291 166 L292,167 C292,167 291,166 291,166  Z"/>

<path  fill="#A9AAA7" stroke-width="0" stroke="#A9AAA7" d = " M147 181 L144,185 C148.996,185 152.163,179 158,179 158,173.579 148.327,181 147,181  Z"/>

<path  fill="#A9AAA7" stroke-width="0" stroke="#A9AAA7" d = " M331 234 C333.349,234 332.382,237 335,237 335,230.221 335,220.779 335,214 335,211.17 331,209.46 331,207 331,203.378 324,201.466 324,198 321.574,198 318,190.955 318,189 318,189 309,181 309,181 307.96,181 299,173.264 299,179 314.899,179 321.757,201.257 331.5,211 334.551,214.051 332.171,219.841 334,223.5 334,223.5 333.5,227 333.5,227 329.564,228.968 322.716,209 319,209 319,209 325,220 325,220 325,220 325,221 325,221 325,221 327,224 327,224 327,224 327,225 327,225 327,225 328,226 328,226 328,226 328,227 328,227 328,227 329,228 329,228 329,228 329,229 329,229 329,229 331,232 331,232 331,232 331,234 331,234  Z"/>

<path  fill="#A9AAA8" stroke-width="0" stroke="#A9AAA8" d = " M133 215 C130.891,215 131,217.535 131,219 128.548,219 126.389,228.444 123.5,227 123.5,227 123,215 123,215 123,208.543 143,192.3 143,186 143,186 144,185 144,185 148.996,185 152.163,179 158,179 158,179 159,179 159,179 159,180.641 168.736,181.028 167,184.5 167,184.5 157,193 157,193 155.576,193 152,193.362 152,195 152,195 151,195 151,195 151,195 149,196 149,196 149,196 148,197 148,197 148,197 143,202 143,202 143,202 142,203 142,203 142,203 141,204 141,204 141,204 140,205 140,205 140,205 138,208 138,208 138,208 137,209 137,209 135.423,209 135,210.762 135,212 133.423,212 133,213.762 133,215  Z"/>

<path  fill="#A9AAA7" stroke-width="0" stroke="#A9AAA7" d = " M163 191 C160.553,191 159.72,193 157,193 157,193 167,184.5 167,184.5 168.736,181.028 159,180.641 159,179 159,179 183,181 183,181 183,181 183,182 183,182 175.625,182 166.323,191 163,191  Z"/>

<path  fill="#A9AAA7" stroke-width="0" stroke="#A9AAA7" d = " M293 191 L308,197 C308,194.518 292.908,190.316 291,186.5 287.729,179.959 297,182.511 297,179 297,179 273,181 273,181 273,181 273,182 273,182 276.319,182 293,188.691 293,191  Z"/>

<path  fill="#A9AAA8" stroke-width="0" stroke="#A9AAA8" d = " M319 208 L319,209 C322.716,209 329.564,228.968 333.5,227 333.5,227 334,223.5 334,223.5 332.171,219.841 334.551,214.051 331.5,211 321.757,201.257 314.899,179 299,179 299,179 297,179 297,179 297,182.511 287.729,179.959 291,186.5 292.908,190.316 308,194.518 308,197 309.494,197 317,204.054 317,206 317,206 319,208 319,208  Z"/>

<path  fill="#AAA9A7" stroke-width="0" stroke="#AAA9A7" d = " M191 183 L197,183 C197,181.461 185.093,181 183,181 183,181 183,182 183,182 183,182 190,183 190,183 190,183 191,183 191,183  Z"/>

<path  fill="#AAA9A7" stroke-width="0" stroke="#AAA9A7" d = " M259 183 L266,183 C266,183 273,182 273,182 273,182 273,181 273,181 270.907,181 259,181.461 259,183  Z"/>

<path  fill="#FEB1D9" stroke-width="0" stroke="#FEB1D9" d = " M167 205 C168.996,205 171.985,207 175,207 175,207 186,204 186,204 186,204 186,203 186,203 186,198.018 191,190.938 191,184 191,184 190,183 190,183 190,183 183,182 183,182 175.625,182 166.323,191 163,191 163,191 164,196 164,196 169.499,196 167,202.24 167,205  Z"/>

<path  fill="#FEB1D9" stroke-width="0" stroke="#FEB1D9" d = " M289 204 C289,207.661 283.928,207 281,207 277.353,207 274.414,204 271,204 271,204 270,203 270,203 270,197.806 266,190.983 266,183 266,183 273,182 273,182 276.319,182 293,188.691 293,191 293,192.691 292,194.148 292,196 287.998,196 289,201.059 289,204  Z"/>

<path  fill="#FFFC8D" stroke-width="0" stroke="#FFFC8D" d = " M345 208 L340,211 C334.781,211 333.721,207 331,207 331,203.378 324,201.466 324,198 324,194.187 335,183.739 335,182 337.224,182 344.585,201 347,201 347,201 347,206 347,206 347,206 346,207 346,207 346,207 345,208 345,208  Z"/>

<path  fill="#FFFC8D" stroke-width="0" stroke="#FFFC8D" d = " M124 209 C121.417,209 120.066,211 117,211 114.98,211 111,208.811 111,207 111,205.97 110,204.329 110,201 111.451,201 118.786,183 121,183 125.961,183 130.748,198 133,198 133,198 124,209 124,209  Z"/>

<path  fill="#FF9BCD" stroke-width="0" stroke="#FF9BCD" d = " M191 183 L191,184 C191,184 190,183 190,183 190,183 191,183 191,183  Z"/>

<path  fill="#FFB0D7" stroke-width="0" stroke="#FFB0D7" d = " M207 208 L211,208 C211,208 212,207 212,207 212,207 213,206 213,206 213,206 217,196 217,196 217,191.337 208,186.119 208,185 208,185 206,185 206,185 206,185 204,184 204,184 204,184 203,184 203,184 203,184 201,183 201,183 201,183 197,183 197,183 197,183 191,183 191,183 191,183 191,184 191,184 191,190.938 186,198.018 186,203 186,203 187,204 187,204 187,204 201,205 201,205 201,205 207,208 207,208  Z"/>

<path  fill="#AAA9A7" stroke-width="0" stroke="#AAA9A7" d = " M201 183 L203,184 C203,184 201,183 201,183  Z"/>

<path  fill="#AAA9A7" stroke-width="0" stroke="#AAA9A7" d = " M255 183 L253,184 C253,184 255,183 255,183  Z"/>

<path  fill="#FFB0D7" stroke-width="0" stroke="#FFB0D7" d = " M245 208 L249,208 C249,208 250,207 250,207 250,207 255,205 255,205 255,205 270,204 270,204 270,204 270,203 270,203 270,197.806 266,190.983 266,183 266,183 259,183 259,183 259,183 255,183 255,183 255,183 253,184 253,184 253,184 252,184 252,184 252,184 251,185 251,185 251,185 249,185 249,185 249,185 248,186 248,186 248,186 247,186 247,186 247,186 246,187 246,187 246,187 245,187 245,187 245,187 244,188 244,188 244,188 243,189 243,189 243,189 239,196 239,196 239,196 245,208 245,208  Z"/>

<path  fill="#AAA9A7" stroke-width="0" stroke="#AAA9A7" d = " M204 184 L206,185 C206,185 204,184 204,184  Z"/>

<path  fill="#AAA9A7" stroke-width="0" stroke="#AAA9A7" d = " M252 184 L251,185 C251,185 252,184 252,184  Z"/>

<path  fill="#A9AAA7" stroke-width="0" stroke="#A9AAA7" d = " M144 185 L143,186 C143,186 144,185 144,185  Z"/>

<path  fill="#AAA9A7" stroke-width="0" stroke="#AAA9A7" d = " M238 196 L239,196 C239,196 243,189 243,189 237.067,189 224.481,192.99 218.5,190 216.158,188.829 210.438,185 208,185 208,186.119 217,191.337 217,196 217,196 221,199 221,199 221,199 217,191.5 217,191.5 217,191.5 238.5,191 238.5,191 240.163,191.832 238,194.836 238,196  Z"/>

<path  fill="#AAA9A7" stroke-width="0" stroke="#AAA9A7" d = " M249 185 L248,186 C248,186 249,185 249,185  Z"/>

<path  fill="#A9AAA7" stroke-width="0" stroke="#A9AAA7" d = " M125 235 L121,237 C121,230.021 121,221.011 121,214 121,214 124,209 124,209 124,209 133,198 133,198 133,198 138,190 138,190 139.539,190 140.187,186 143,186 143,192.3 123,208.543 123,215 123,215 123.5,227 123.5,227 126.389,228.444 128.548,219 131,219 131,219 131,221 131,221 131,221 131,222 131,222 131,222 130,223 130,223 130,223 130,224 130,224 130,224 129,225 129,225 129,225 129,226 129,226 129,226 128,227 128,227 128,227 127,229 127,229 127,229 127,230 127,230 127,230 126,231 126,231 126,231 126,232 126,232 126,232 125,233 125,233 125,233 125,235 125,235  Z"/>

<path  fill="#AAA9A7" stroke-width="0" stroke="#AAA9A7" d = " M247 186 L246,187 C246,187 247,186 247,186  Z"/>

<path  fill="#AAA9A7" stroke-width="0" stroke="#AAA9A7" d = " M245 187 L244,188 C244,188 245,187 245,187  Z"/>

<path  fill="#AAA9A7" stroke-width="0" stroke="#AAA9A7" d = " M244 188 L243,189 C243,189 244,188 244,188  Z"/>

<path  fill="#FF9BCD" stroke-width="0" stroke="#FF9BCD" d = " M169 213 C165.733,213 161.664,207.918 157.5,210 154.21,211.645 146.438,218 143,218 143,214.493 159,206.857 159,204.5 159,200.3 151,206.049 151,203 151,203 155,197.5 155,197.5 154.14,195.78 151.3,197.6 150.5,198 147.551,199.475 140,205.039 140,209 140,209 137,211 137,211 137,211 137,209 137,209 137,209 138,208 138,208 138,208 140,205 140,205 140,205 141,204 141,204 141,204 142,203 142,203 142,203 143,202 143,202 143,202 148,197 148,197 148,197 149,196 149,196 149,196 151,195 151,195 151,195 152,195 152,195 153.424,195 157,194.638 157,193 159.72,193 160.553,191 163,191 163,191 164,196 164,196 154.668,196 157.174,205 167,205 168.996,205 171.985,207 175,207 175,209.097 169,209.205 169,213  Z"/>

<path  fill="#A9AAA8" stroke-width="0" stroke="#A9AAA8" d = " M232 204 L231,205 C223.902,205 223.216,200 221,200 221,200 221,199 221,199 221,199 217,191.5 217,191.5 217,191.5 238.5,191 238.5,191 240.163,191.832 238,194.836 238,196 238,196 237,197 237,197 237,197 237,198 237,198 237,198 236,199 236,199 236,199 235,200 235,200 235,200 234,201 234,201 234,201 233,203 233,203 233,203 232,204 232,204  Z"/>

<path  fill="#FF9BCD" stroke-width="0" stroke="#FF9BCD" d = " M319 209 L325,220 C324.291,220 311.947,201.224 307.5,199 306.537,198.518 301.532,195.436 301,196.5 301,196.5 306,204 306,204 306,204.343 300.185,203 298,203 298,198.405 296.999,196 292,196 292,194.148 293,192.691 293,191 293,191 308,197 308,197 309.494,197 317,204.054 317,206 317,206 319,208 319,208 319,208 319,209 319,209  Z"/>

<path  fill="#A9AAA7" stroke-width="0" stroke="#A9AAA7" d = " M157 193 C155.576,193 152,193.362 152,195 153.424,195 157,194.638 157,193  Z"/>

<path  fill="#A9AAA7" stroke-width="0" stroke="#A9AAA7" d = " M151 195 L149,196 C149,196 151,195 151,195  Z"/>

<path  fill="#A9AAA7" stroke-width="0" stroke="#A9AAA7" d = " M149 196 L148,197 C148,197 149,196 149,196  Z"/>

<path  fill="#FFB0D9" stroke-width="0" stroke="#FFB0D9" d = " M164 196 C169.499,196 167,202.24 167,205 157.174,205 154.668,196 164,196  Z"/>

<path  fill="#FFB3D7" stroke-width="0" stroke="#FFB3D7" d = " M234 215 L244,215 C244,215 246,212.5 246,212.5 246,212.5 245,208 245,208 245,208 239,196 239,196 239,196 238,196 238,196 238,196 237,197 237,197 237,197 237,198 237,198 237,198 236,199 236,199 236,199 235,200 235,200 235,200 234,201 234,201 234,201 233,203 233,203 233,203 232,204 232,204 232,204 231,205 231,205 231,210.841 221,203.402 221,200 221,200 221,199 221,199 221,199 217,196 217,196 217,196 213,206 213,206 213,206 212,207 212,207 212,207 211,208 211,208 211,208 210,212.5 210,212.5 210,212.5 213,215 213,215 213,215 223,215 223,215 227.433,215 229.567,215 234,215  Z"/>

<path  fill="#AAA9A7" stroke-width="0" stroke="#AAA9A7" d = " M238 196 L237,197 C237,197 238,196 238,196  Z"/>

<path  fill="#FFB0D9" stroke-width="0" stroke="#FFB0D9" d = " M298 203 L294.5,205 C292.544,205.978 290.423,204 289,204 289,201.059 287.998,196 292,196 296.999,196 298,198.405 298,203  Z"/>

<path  fill="#C9C9C8" stroke-width="0" stroke="#C9C9C8" d = " M322 273 L323,273 C323,271.438 325.189,268 327,268 327,266.762 327.423,265 329,265 329,263.762 329.423,262 331,262 331,262 331,261 331,261 331,261 332,259 332,259 332,257.952 331.527,256 333,256 333,256 333,254 333,254 333,246.911 331,239.45 331,234 331,234 331,232 331,232 329.423,232 329,230.238 329,229 329,229 329,228 329,228 329,228 328,227 328,227 328,227 328,226 328,226 328,226 327,225 327,225 327,225 327,224 327,224 325.423,224 325,222.238 325,221 325,221 325,220 325,220 324.291,220 311.947,201.224 307.5,199 306.537,198.518 301.532,195.436 301,196.5 301,196.5 306,204 306,204 306,204 309.5,207 309.5,207 311.547,208.023 315.754,208.008 317,210.5 322.013,220.526 337.017,244.467 331,256.5 328.123,262.254 322.097,267.305 321,269.5 320.219,271.062 316,270.437 316,273 317.357,273 322,270.888 322,273  Z"/>

<path  fill="#C9C9C8" stroke-width="0" stroke="#C9C9C8" d = " M151 203 C147.709,203 144.328,209 140,209 140,205.039 147.551,199.475 150.5,198 151.3,197.6 154.14,195.78 155,197.5 155,197.5 151,203 151,203  Z"/>

<path  fill="#AAA9A7" stroke-width="0" stroke="#AAA9A7" d = " M237 198 L236,199 C236,199 237,198 237,198  Z"/>

<path  fill="#AAA9A7" stroke-width="0" stroke="#AAA9A7" d = " M236 199 L235,200 C235,200 236,199 236,199  Z"/>

<path  fill="#AAA9A7" stroke-width="0" stroke="#AAA9A7" d = " M221 200 C223.216,200 223.902,205 231,205 231,210.841 221,203.402 221,200  Z"/>

<path  fill="#AAA9A7" stroke-width="0" stroke="#AAA9A7" d = " M235 200 L234,201 C234,201 235,200 235,200  Z"/>

<path  fill="#F0F080" stroke-width="0" stroke="#F0F080" d = " M102 204 C105.647,204 107.609,207 111,207 111,205.97 110,204.329 110,201 108.457,201 102,202.709 102,204  Z"/>

<path  fill="#AAA9A7" stroke-width="0" stroke="#AAA9A7" d = " M234 201 L233,203 C233,203 234,201 234,201  Z"/>

<path  fill="#F0F080" stroke-width="0" stroke="#F0F080" d = " M355 204 C351.697,204 349.885,206 347,206 347,206 347,201 347,201 348.336,201 355,203.177 355,204  Z"/>

<path  fill="#A9AAA7" stroke-width="0" stroke="#A9AAA7" d = " M143 202 L142,203 C142,203 143,202 143,202  Z"/>

<path  fill="#C8CACA" stroke-width="0" stroke="#C8CACA" d = " M141 273 L146,275 C157.094,275 144,270.55 144,269 144,269 143,269 143,269 143,269 142,268 142,268 142,268 141,268 141,268 141,268 138,265 138,265 138,265 137,264 137,264 135.467,264 133,260.247 133,259 133,259 133,258 133,258 131.986,258 131,254.041 131,253 131,253 131,251 131,251 129.378,251 129.378,242 131,242 131,242 131,240 131,240 131,238.377 131.005,234 133,234 133,234 133,233 133,233 133,231.762 133.423,230 135,230 135,230 136,228 136,228 136,228 137,227 137,227 137,227 138,225 138,225 138,225 139,224 139,224 139,224 139,223 139,223 139,223 140,222 140,222 140,222 141,221 141,221 141,221 142,219 142,219 142,219 143,218 143,218 143,214.493 159,206.857 159,204.5 159,200.3 151,206.049 151,203 147.709,203 144.328,209 140,209 140,213.853 135.047,217.406 133,221.5 129.555,228.389 128.435,236.629 125,243.5 122.275,248.95 126.864,264.682 131.5,267 133.165,267.832 140,270.685 140,273 140,273 141,273 141,273  Z"/>

<path  fill="#FF9BCD" stroke-width="0" stroke="#FF9BCD" d = " M186 204 L187,204 C187,204 186,203 186,203 186,203 186,204 186,204  Z"/>

<path  fill="#AAA9A7" stroke-width="0" stroke="#AAA9A7" d = " M233 203 L232,204 C232,204 233,203 233,203  Z"/>

<path  fill="#FF9BCD" stroke-width="0" stroke="#FF9BCD" d = " M270 204 L271,204 C271,204 270,203 270,203 270,203 270,204 270,204  Z"/>

<path  fill="#FF9BCD" stroke-width="0" stroke="#FF9BCD" d = " M287 213 L293.5,210 C299.018,207.241 307.433,214.966 311.5,217 316.426,219.463 320.816,229.131 323,233.5 323.492,234.484 323.851,239 325,239 325,231.444 316.119,216.81 308.5,213 305.016,211.258 298,207.199 298,203 298,203 294.5,205 294.5,205 292.544,205.978 290.423,204 289,204 289,207.661 283.928,207 281,207 281,209.097 287,209.205 287,213  Z"/>

<path  fill="#C8CACA" stroke-width="0" stroke="#C8CACA" d = " M312 275 L313,275 C313,275 314,274 314,274 314,274 315,273 315,273 315,273 316,273 316,273 316,270.437 320.219,271.062 321,269.5 322.097,267.305 328.123,262.254 331,256.5 337.017,244.467 322.013,220.526 317,210.5 315.754,208.008 311.547,208.023 309.5,207 309.5,207 306,204 306,204 306,204.343 300.185,203 298,203 298,207.199 305.016,211.258 308.5,213 316.119,216.81 325,231.444 325,239 325,239 325,240 325,240 326.638,240 326.638,252 325,252 325,252 325,254 325,254 325,255.048 325.473,257 324,257 324,257 323,258 323,258 323,258 323,260 323,260 323,260 322,261 322,261 322,261 321,262 321,262 321,262 320,264 320,264 320,264 319,265 319,265 319,265 318,266 318,266 318,266 317,267 317,267 317,267 316,267 316,267 316,267 315,268 315,268 315,268 313,269 313,269 313,269 312,269 312,269 312,270.638 308.424,271 307,271 307,271 306,272 306,272 306,275.714 307.744,275 311,275 311,275 312,275 312,275  Z"/>

<path  fill="#A9AAA7" stroke-width="0" stroke="#A9AAA7" d = " M141 204 L140,205 C140,205 141,204 141,204  Z"/>

<path  fill="#FDA5D1" stroke-width="0" stroke="#FDA5D1" d = " M175 220 L178,221 C182.537,221 187.554,219 193,219 193,219 201,216 201,216 201,214.543 204,214.54 204,212 202.065,212 196.395,210.71 198,207.5 198,207.5 201,205 201,205 201,205 187,204 187,204 187,204 186,204 186,204 186,204 175,207 175,207 175,209.097 169,209.205 169,213 169,216.291 175,216.675 175,220  Z"/>

<path  fill="#AAA9A7" stroke-width="0" stroke="#AAA9A7" d = " M232 204 L231,205 C231,205 232,204 232,204  Z"/>

<path  fill="#FDA5D1" stroke-width="0" stroke="#FDA5D1" d = " M279 221 L281,221 C281,217.483 287,216.05 287,213 287,209.205 281,209.097 281,207 277.353,207 274.414,204 271,204 271,204 270,204 270,204 270,204 255,205 255,205 255,205 259,207.5 259,207.5 260.514,210.528 253.695,212 252,212 252,212 255,216 255,216 255,216 261,218 261,218 261,218 262,219 262,219 262,219 263,219 263,219 268.914,219 273.861,221 279,221  Z"/>

<path  fill="#FDB1D8" stroke-width="0" stroke="#FDB1D8" d = " M207 208 C207,210.343 206.715,212 204,212 202.065,212 196.395,210.71 198,207.5 198,207.5 201,205 201,205 201,205 207,208 207,208  Z"/>

<path  fill="#FDB1D8" stroke-width="0" stroke="#FDB1D8" d = " M249 208 C249,210.343 249.285,212 252,212 253.695,212 260.514,210.528 259,207.5 259,207.5 255,205 255,205 255,205 250,207 250,207 250,207 249,208 249,208  Z"/>

<path  fill="#FF9BCD" stroke-width="0" stroke="#FF9BCD" d = " M213 206 L212,207 C212,207 213,206 213,206  Z"/>

<path  fill="#A9AAA7" stroke-width="0" stroke="#A9AAA7" d = " M317 206 L319,208 C319,208 317,206 317,206  Z"/>

<path  fill="#F0F080" stroke-width="0" stroke="#F0F080" d = " M347 206 L346,207 C346,207 347,206 347,206  Z"/>

<path  fill="#FF9BCD" stroke-width="0" stroke="#FF9BCD" d = " M212 207 L211,208 C211,208 212,207 212,207  Z"/>

<path  fill="#FF9BCD" stroke-width="0" stroke="#FF9BCD" d = " M250 207 L249,208 C249,208 250,207 250,207  Z"/>

<path  fill="#F0F080" stroke-width="0" stroke="#F0F080" d = " M340 211 C340,213.393 336.766,214 335,214 335,211.17 331,209.46 331,207 333.721,207 334.781,211 340,211  Z"/>

<path  fill="#F0F080" stroke-width="0" stroke="#F0F080" d = " M346 207 L345,208 C345,208 346,207 346,207  Z"/>

<path  fill="#A9AAA7" stroke-width="0" stroke="#A9AAA7" d = " M138 208 L137,209 C137,209 138,208 138,208  Z"/>

<path  fill="#FF9BCD" stroke-width="0" stroke="#FF9BCD" d = " M201 216 C205.117,216 207.901,220 211,220 211,218.378 210.539,215 213,215 213,215 210,212.5 210,212.5 210,212.5 211,208 211,208 211,208 207,208 207,208 207,210.343 206.715,212 204,212 204,214.54 201,214.543 201,216  Z"/>

<path  fill="#FF9BCD" stroke-width="0" stroke="#FF9BCD" d = " M255 216 C251.416,216 247.775,220 246,220 246,218.576 245.638,215 244,215 244,215 246,212.5 246,212.5 246,212.5 245,208 245,208 245,208 249,208 249,208 249,210.343 249.285,212 252,212 252,212 255,216 255,216  Z"/>

<path  fill="#F0F080" stroke-width="0" stroke="#F0F080" d = " M117 211 C117,212.712 119.571,214 121,214 121,214 124,209 124,209 121.417,209 120.066,211 117,211  Z"/>

<path  fill="#A9AAA7" stroke-width="0" stroke="#A9AAA7" d = " M137 211 L135,212 C135,210.762 135.423,209 137,209 137,209 137,211 137,211  Z"/>

<path  fill="#C9C9C8" stroke-width="0" stroke="#C9C9C8" d = " M134 272 L140,273 C140,270.685 133.165,267.832 131.5,267 126.864,264.682 122.275,248.95 125,243.5 128.435,236.629 129.555,228.389 133,221.5 135.047,217.406 140,213.853 140,209 140,209 137,211 137,211 137,212.572 134.948,218 133,218 133,219.238 132.577,221 131,221 131,221 131,222 131,222 131,222 130,223 130,223 130,223 130,224 130,224 130,224 129,225 129,225 129,225 129,226 129,226 129,226 128,227 128,227 128,227 127,229 127,229 127,229 127,230 127,230 127,230 126,231 126,231 126,231 126,232 126,232 126,232 125,233 125,233 125,233 125,235 125,235 125,240.348 123,245.12 123,251 123,251 123,253 123,253 124.175,253 125,258.704 125,260 125,260 125,261 125,261 127.548,261 130.28,272 134,272  Z"/>

<path  fill="#FDA5D2" stroke-width="0" stroke="#FDA5D2" d = " M144 269 L149,269 C157.837,269 156.131,245.237 159,239.5 161.788,233.925 175,231.941 175,223 175,223 175,220 175,220 175,216.675 169,216.291 169,213 165.733,213 161.664,207.918 157.5,210 154.21,211.645 146.438,218 143,218 143,218 142,219 142,219 142,219 141,221 141,221 141,221 140,222 140,222 140,222 139,223 139,223 139,223 139,224 139,224 139,224 138,225 138,225 138,225 137,227 137,227 137,227 136,228 136,228 136,228 135,230 135,230 135,231.238 134.577,233 133,233 133,233 133,234 133,234 133,235.357 132.353,240 131,240 131,240 131,242 131,242 131,242 131,251 131,251 131,251 131,253 131,253 132.638,253 133,256.576 133,258 133,258 133,259 133,259 133,259 137,264 137,264 137,264 138,265 138,265 138,265 141,268 141,268 141,268 142,268 142,268 142,268 143,269 143,269 143,269 144,269 144,269  Z"/>

<path  fill="#FDA5D2" stroke-width="0" stroke="#FDA5D2" d = " M312 269 L313,269 C313,269 315,268 315,268 315,268 316,267 316,267 316,267 317,267 317,267 317,267 318,266 318,266 318,266 319,265 319,265 319,265 320,264 320,264 320,264 321,262 321,262 321,262 322,261 322,261 322,261 323,260 323,260 323,260 323,258 323,258 323,258 324,257 324,257 324,255.952 323.527,254 325,254 325,254 325,252 325,252 325,252 325,240 325,240 325,240 325,239 325,239 323.851,239 323.492,234.484 323,233.5 320.816,229.131 316.426,219.463 311.5,217 307.433,214.966 299.018,207.241 293.5,210 293.5,210 287,213 287,213 287,216.05 281,217.483 281,221 281,221 281,223 281,223 281,229.749 295.521,236.541 299,243.5 301.442,248.385 298.34,269 307,269 307,269 312,269 312,269  Z"/>

<path  fill="#FF9BCD" stroke-width="0" stroke="#FF9BCD" d = " M133 215 L133,218 C134.948,218 137,212.572 137,211 137,211 135,212 135,212 135,213.238 134.577,215 133,215  Z"/>

<path  fill="#A9AAA7" stroke-width="0" stroke="#A9AAA7" d = " M135 212 C133.423,212 133,213.762 133,215 134.577,215 135,213.238 135,212  Z"/>

<path  fill="#FF9BCD" stroke-width="0" stroke="#FF9BCD" d = " M227 240 L229,241 C229,241 229,218.5 229,218.5 230.217,216.066 231,223.271 231,224 231,224 235,223 235,223 235,223 233,219.5 233,219.5 233,219.5 234,215 234,215 229.567,215 227.433,215 223,215 223,215 222,223 222,223 222,223 225,223 225,223 225,222.296 225.843,216.187 227,218.5 229.628,223.756 227,235.005 227,240  Z"/>

<path  fill="#A9AAA7" stroke-width="0" stroke="#A9AAA7" d = " M133 218 L131,219 C131,217.535 130.891,215 133,215 133,215 133,218 133,218  Z"/>

<path  fill="#FCB3D8" stroke-width="0" stroke="#FCB3D8" d = " M212 223 C214.979,223 218.23,223 222,223 222,223 223,215 223,215 223,215 213,215 213,215 210.539,215 211,218.378 211,220 211,220 211,222 211,222 211,222 212,223 212,223  Z"/>

<path  fill="#FCB3D8" stroke-width="0" stroke="#FCB3D8" d = " M235 223 C238.447,223 241.245,223 244,223 244,223 245,222 245,222 245,222 246,220 246,220 246,218.576 245.638,215 244,215 244,215 234,215 234,215 234,215 233,219.5 233,219.5 233,219.5 235,223 235,223  Z"/>

<path  fill="#FFB2D8" stroke-width="0" stroke="#FFB2D8" d = " M192 265 L193,265 C193,256.342 211,234.797 211,223 211,223 211,222 211,222 211,222 211,220 211,220 207.901,220 205.117,216 201,216 201,216 193,219 193,219 193,228.134 181,234.428 181,243 185.952,243 203.35,247.575 192.5,253 187.698,255.401 182.725,245 180,245 180,245 178,248.5 178,248.5 176.298,251.904 171,257.17 171,261 171,261 171,262 171,262 171,262 173,263 173,263 173,263 177,265 177,265 178.631,265 181.369,265 183,265 185.268,265 186.921,261.71 189.5,263 189.5,263 192,265 192,265  Z"/>

<path  fill="#FFB2D8" stroke-width="0" stroke="#FFB2D8" d = " M279 265 L281,265 C281,265 283,264 283,264 283,262.253 283.253,262 285,262 285,262 285,261 285,261 285,261 277,245 277,245 273.732,245 268.405,255.452 263.5,253 253.588,248.044 271.391,243 275,243 275,243 263,219 263,219 263,219 262,219 262,219 262,219 261,218 261,218 261,218 255,216 255,216 251.416,216 247.775,220 246,220 246,220 245,222 245,222 245,222 245,223 245,223 245,232.13 263,257.417 263,265 263,265 265,265 265,265 265,260.609 271.952,265 273,265 273,265 274,265 274,265 275.467,265 277.533,265 279,265  Z"/>

<path  fill="#FF9BCD" stroke-width="0" stroke="#FF9BCD" d = " M131 219 L131,221 C132.577,221 133,219.238 133,218 133,218 131,219 131,219  Z"/>

<path  fill="#FF9BCD" stroke-width="0" stroke="#FF9BCD" d = " M143 218 L142,219 C142,219 143,218 143,218  Z"/>

<path  fill="#CBCBCC" stroke-width="0" stroke="#CBCBCC" d = " M225 223 C225,225.992 225.075,240 227,240 227,235.005 229.628,223.756 227,218.5 225.843,216.187 225,222.296 225,223  Z"/>

<path  fill="#CBCBCC" stroke-width="0" stroke="#CBCBCC" d = " M231 224 C231,226.724 232.253,241 229,241 229,241 229,218.5 229,218.5 230.217,216.066 231,223.271 231,224  Z"/>

<path  fill="#FF9BCD" stroke-width="0" stroke="#FF9BCD" d = " M261 218 L262,219 C262,219 261,218 261,218  Z"/>

<path  fill="#FF9BCD" stroke-width="0" stroke="#FF9BCD" d = " M142 219 L141,221 C141,221 142,219 142,219  Z"/>

<path  fill="#FCB3D9" stroke-width="0" stroke="#FCB3D9" d = " M149 269 C149,275.02 156.958,273 160,273 160,269.995 165,269.829 165,267 159.25,267 172.516,243.492 175.5,242 175.5,242 181,243 181,243 181,234.428 193,228.134 193,219 187.554,219 182.537,221 178,221 178,221 175,223 175,223 175,231.941 161.788,233.925 159,239.5 156.131,245.237 157.837,269 149,269  Z"/>

<path  fill="#FCB3D9" stroke-width="0" stroke="#FCB3D9" d = " M306 272 L302.5,274 L296,273 C296,269.239 289,268.787 289,265 289,265 287,263 287,263 287,263 286,262 286,262 286,262 285,261 285,261 285,261 277,245 277,245 277,243.385 280.437,245.374 281,246.5 282.387,249.273 289.721,268.89 293.5,267 295.365,266.068 290.616,258.733 290,257.5 288.044,253.588 284.923,244.211 280.5,242 280.5,242 275,243 275,243 275,243 263,219 263,219 268.914,219 273.861,221 279,221 279,221 281,223 281,223 281,229.749 295.521,236.541 299,243.5 301.442,248.385 298.34,269 307,269 307,269 307,271 307,271 307,271 306,272 306,272  Z"/>

<path  fill="#FF9BCD" stroke-width="0" stroke="#FF9BCD" d = " M178 221 L175,223 C175,223 175,220 175,220 175,220 178,221 178,221  Z"/>

<path  fill="#FF9BCD" stroke-width="0" stroke="#FF9BCD" d = " M141 221 L140,222 C140,222 141,221 141,221  Z"/>

<path  fill="#FF9BCD" stroke-width="0" stroke="#FF9BCD" d = " M281 221 L281,223 C281,223 279,221 279,221 279,221 281,221 281,221  Z"/>

<path  fill="#FF9BCD" stroke-width="0" stroke="#FF9BCD" d = " M325 221 L327,224 C325.423,224 325,222.238 325,221  Z"/>

<path  fill="#FF9BCD" stroke-width="0" stroke="#FF9BCD" d = " M131 222 L130,223 C130,223 131,222 131,222  Z"/>

<path  fill="#FF9BCD" stroke-width="0" stroke="#FF9BCD" d = " M140 222 L139,223 C139,223 140,222 140,222  Z"/>

<path  fill="#FF9BCD" stroke-width="0" stroke="#FF9BCD" d = " M211 223 L212,223 C212,223 211,222 211,222 211,222 211,223 211,223  Z"/>

<path  fill="#FEB0D8" stroke-width="0" stroke="#FEB0D8" d = " M248 275 C248,280.705 260.433,276 262,276 262,274.707 258.845,268 263,268 263,268 263,265 263,265 263,257.417 245,232.13 245,223 245,223 244,223 244,223 241.245,223 238.447,223 235,223 235,223 231,224 231,224 231,226.724 232.253,241 229,241 229,241 227,240 227,240 225.075,240 225,225.992 225,223 225,223 222,223 222,223 218.23,223 214.979,223 212,223 212,223 211,223 211,223 211,234.797 193,256.342 193,265 193,265 193,268 193,268 197.952,268 195,273.341 195,276 195,279.3 209,278.199 209,275 209,275 204.5,276 204.5,276 194.581,271.041 215.823,255.147 219,261.5 222.03,267.56 213,269.284 213,273 215.25,273 216.376,271 218,271 218,271 219,270 219,270 219,268.309 225.112,254 227,254 227,250.375 229,249.23 229,254 235.981,254 233.001,270 238,270 240.849,270 243.459,275 247,275 247,274.073 238.644,267.144 237.5,266 237.5,266 237.5,261 237.5,261 245.606,256.947 264.675,275 248,275  Z"/>

<path  fill="#FF9BCD" stroke-width="0" stroke="#FF9BCD" d = " M244 223 L245,223 C245,223 245,222 245,222 245,222 244,223 244,223  Z"/>

<path  fill="#FF9BCD" stroke-width="0" stroke="#FF9BCD" d = " M130 224 L129,225 C129,225 130,224 130,224  Z"/>

<path  fill="#FF9BCD" stroke-width="0" stroke="#FF9BCD" d = " M139 224 L138,225 C138,225 139,224 139,224  Z"/>

<path  fill="#FF9BCD" stroke-width="0" stroke="#FF9BCD" d = " M138 225 L137,227 C137,227 138,225 138,225  Z"/>

<path  fill="#FF9BCD" stroke-width="0" stroke="#FF9BCD" d = " M327 225 L328,226 C328,226 327,225 327,225  Z"/>

<path  fill="#FF9BCD" stroke-width="0" stroke="#FF9BCD" d = " M129 226 L128,227 C128,227 129,226 129,226  Z"/>

<path  fill="#FF9BCD" stroke-width="0" stroke="#FF9BCD" d = " M128 227 L127,229 C127,229 128,227 128,227  Z"/>

<path  fill="#FF9BCD" stroke-width="0" stroke="#FF9BCD" d = " M137 227 L136,228 C136,228 137,227 137,227  Z"/>

<path  fill="#FF9BCD" stroke-width="0" stroke="#FF9BCD" d = " M328 227 L329,228 C329,228 328,227 328,227  Z"/>

<path  fill="#FF9BCD" stroke-width="0" stroke="#FF9BCD" d = " M136 228 L135,230 C135,230 136,228 136,228  Z"/>

<path  fill="#FF9BCD" stroke-width="0" stroke="#FF9BCD" d = " M329 229 L331,232 C329.423,232 329,230.238 329,229  Z"/>

<path  fill="#FF9BCD" stroke-width="0" stroke="#FF9BCD" d = " M127 230 L126,231 C126,231 127,230 127,230  Z"/>

<path  fill="#FF9BCD" stroke-width="0" stroke="#FF9BCD" d = " M135 230 C133.423,230 133,231.762 133,233 134.577,233 135,231.238 135,230  Z"/>

<path  fill="#FF9BCD" stroke-width="0" stroke="#FF9BCD" d = " M126 232 L125,233 C125,233 126,232 126,232  Z"/>

<path  fill="#FF9BCD" stroke-width="0" stroke="#FF9BCD" d = " M133 234 C131.005,234 131,238.377 131,240 132.353,240 133,235.357 133,234  Z"/>

<path  fill="#FF9BCD" stroke-width="0" stroke="#FF9BCD" d = " M335 237 C335,241.341 334,245.695 334,249.5 334,250.69 334.614,254 333,254 333,246.911 331,239.45 331,234 333.349,234 332.382,237 335,237  Z"/>

<path  fill="#FF9BCD" stroke-width="0" stroke="#FF9BCD" d = " M121 237 C121,238.727 121.918,251 123,251 123,245.12 125,240.348 125,235 125,235 121,237 121,237  Z"/>

<path  fill="#FF9BCD" stroke-width="0" stroke="#FF9BCD" d = " M325 240 C326.638,240 326.638,252 325,252 325,252 325,240 325,240  Z"/>

<path  fill="#FF9BCD" stroke-width="0" stroke="#FF9BCD" d = " M131 242 C129.378,242 129.378,251 131,251 131,251 131,242 131,242  Z"/>

<path  fill="#FFB1D8" stroke-width="0" stroke="#FFB1D8" d = " M167 265 L165,267 C159.25,267 172.516,243.492 175.5,242 175.5,242 181,243 181,243 185.952,243 203.35,247.575 192.5,253 187.698,255.401 182.725,245 180,245 180,241.612 174.432,248.637 174,249.5 172.123,253.255 167,260.833 167,265  Z"/>

<path  fill="#FFB1D8" stroke-width="0" stroke="#FFB1D8" d = " M275 243 L280.5,242 C284.923,244.211 288.044,253.588 290,257.5 290.616,258.733 295.365,266.068 293.5,267 289.721,268.89 282.387,249.273 281,246.5 280.437,245.374 277,243.385 277,245 273.732,245 268.405,255.452 263.5,253 253.588,248.044 271.391,243 275,243  Z"/>

<path  fill="#FCB3D9" stroke-width="0" stroke="#FCB3D9" d = " M169 264 L167,265 C167,260.833 172.123,253.255 174,249.5 174.432,248.637 180,241.612 180,245 180,245 178,248.5 178,248.5 176.298,251.904 171,257.17 171,261 171,261 170,262 170,262 170,262 169,263 169,263 169,263 169,264 169,264  Z"/>

<path  fill="#FEC6E2" stroke-width="0" stroke="#FEC6E2" d = " M230 268 L229,270 C226.707,270 227,269.003 227,267 227,267 227,254 227,254 227,250.375 229,249.23 229,254 229,254 230,268 230,268  Z"/>

<path  fill="#FF9BCD" stroke-width="0" stroke="#FF9BCD" d = " M123 253 C124.175,253 125,258.704 125,260 122.727,260 123,254.774 123,253  Z"/>

<path  fill="#FF9BCD" stroke-width="0" stroke="#FF9BCD" d = " M131 253 C132.638,253 133,256.576 133,258 131.986,258 131,254.041 131,253  Z"/>

<path  fill="#C8C8CC" stroke-width="0" stroke="#C8C8CC" d = " M221 274 L220,275 C217.891,275 218,272.465 218,271 218,271 219,270 219,270 219,268.309 225.112,254 227,254 227,254 227,267 227,267 227,267 226,269 226,269 226,269 222,273 222,273 222,273 221,274 221,274  Z"/>

<path  fill="#C8C8CC" stroke-width="0" stroke="#C8C8CC" d = " M235 274 L238,275 C238,273.256 238,272.033 238,270 233.001,270 235.981,254 229,254 229,254 230,268 230,268 230,268 231,270 231,270 231,270 235,274 235,274  Z"/>

<path  fill="#FF9BCD" stroke-width="0" stroke="#FF9BCD" d = " M325 254 C323.527,254 324,255.952 324,257 325.473,257 325,255.048 325,254  Z"/>

<path  fill="#FF9BCD" stroke-width="0" stroke="#FF9BCD" d = " M333 256 C331.527,256 332,257.952 332,259 333.473,259 333,257.048 333,256  Z"/>

<path  fill="#FF9BCD" stroke-width="0" stroke="#FF9BCD" d = " M324 257 L323,258 C323,258 324,257 324,257  Z"/>

<path  fill="#FF9BCD" stroke-width="0" stroke="#FF9BCD" d = " M133 259 L137,264 C135.467,264 133,260.247 133,259  Z"/>

<path  fill="#FF9BCD" stroke-width="0" stroke="#FF9BCD" d = " M332 259 L331,261 C331,261 332,259 332,259  Z"/>

<path  fill="#FDB2D9" stroke-width="0" stroke="#FDB2D9" d = " M213 273 L209,275 C209,275 204.5,276 204.5,276 194.581,271.041 215.823,255.147 219,261.5 222.03,267.56 213,269.284 213,273  Z"/>

<path  fill="#FDB2D9" stroke-width="0" stroke="#FDB2D9" d = " M247 275 L248,275 C264.675,275 245.606,256.947 237.5,261 237.5,261 237.5,266 237.5,266 238.644,267.144 247,274.073 247,275  Z"/>

<path  fill="#FF9BCD" stroke-width="0" stroke="#FF9BCD" d = " M323 260 L322,261 C322,261 323,260 323,260  Z"/>

<path  fill="#FF9BCD" stroke-width="0" stroke="#FF9BCD" d = " M134 272 L135,275 C131.826,275 125,263.49 125,261 127.548,261 130.28,272 134,272  Z"/>

<path  fill="#FF9BCD" stroke-width="0" stroke="#FF9BCD" d = " M170 262 L171,262 C171,262 171,261 171,261 171,261 170,262 170,262  Z"/>

<path  fill="#FF9BCD" stroke-width="0" stroke="#FF9BCD" d = " M285 262 L286,262 C286,262 285,261 285,261 285,261 285,262 285,262  Z"/>

<path  fill="#FF9BCD" stroke-width="0" stroke="#FF9BCD" d = " M322 261 L321,262 C321,262 322,261 322,261  Z"/>

<path  fill="#FF9BCD" stroke-width="0" stroke="#FF9BCD" d = " M170 262 L169,263 C169,263 170,262 170,262  Z"/>

<path  fill="#FEB3D6" stroke-width="0" stroke="#FEB3D6" d = " M171 265 L173,265 C173,265 173,263 173,263 173,263 171,262 171,262 171,262 170,262 170,262 170,262 169,263 169,263 169,263 169,264 169,264 169,264 171,265 171,265  Z"/>

<path  fill="#FEB3D6" stroke-width="0" stroke="#FEB3D6" d = " M284 265 L285,265 C285,265 287,264 287,264 287,264 287,263 287,263 287,263 286,262 286,262 286,262 285,262 285,262 283.253,262 283,262.253 283,264 283,264 284,265 284,265  Z"/>

<path  fill="#FF9BCD" stroke-width="0" stroke="#FF9BCD" d = " M331 262 C329.423,262 329,263.762 329,265 330.577,265 331,263.238 331,262  Z"/>

<path  fill="#FF9BCD" stroke-width="0" stroke="#FF9BCD" d = " M177 265 L176,267 C176,265.423 174.238,265 173,265 173,265 173,263 173,263 173,263 177,265 177,265  Z"/>

<path  fill="#FCB3D7" stroke-width="0" stroke="#FCB3D7" d = " M192 265 L191,269 C191,270.88 183,275.687 183,265 185.268,265 186.921,261.71 189.5,263 189.5,263 192,265 192,265  Z"/>

<path  fill="#FCB3D7" stroke-width="0" stroke="#FCB3D7" d = " M273 266 L274,269.5 C271.418,274.664 267.816,269 265,269 265,269 265,265 265,265 265,260.609 271.952,265 273,265 273,265 273,266 273,266  Z"/>

<path  fill="#FF9BCD" stroke-width="0" stroke="#FF9BCD" d = " M287 264 L289,265 C289,265 287,263 287,263 287,263 287,264 287,264  Z"/>

<path  fill="#FCB2D9" stroke-width="0" stroke="#FCB2D9" d = " M195 276 L193,279.5 L184.5,289 C179.326,291.587 175.683,285 172,285 170.689,285 168.487,273.994 166.5,273 165.146,272.323 162.844,276 161,276 161,276 160,273 160,273 160,269.995 165,269.829 165,267 166.747,267 167,266.747 167,265 167,265 169,264 169,264 169,264 171,265 171,265 171,270.633 176,269.846 176,267 176,267 177,265 177,265 178.631,265 181.369,265 183,265 183,275.687 191,270.88 191,269 191,269 193,268 193,268 197.952,268 195,273.341 195,276  Z"/>

<path  fill="#FCB2D9" stroke-width="0" stroke="#FCB2D9" d = " M295 276 L290.5,273 L284,285 C284,285 278.5,289 278.5,289 272.117,292.192 262,281.272 262,276 262,274.707 258.845,268 263,268 263,268 265,269 265,269 267.816,269 271.418,274.664 274,269.5 274,269.5 273,266 273,266 273,266 274,265 274,265 275.467,265 277.533,265 279,265 279,265 281,267 281,267 281,269.547 285,269.775 285,268 286.399,268 286.399,266 285,266 285,266 285,265 285,265 285,265 287,264 287,264 287,264 289,265 289,265 289,268.787 296,269.239 296,273 296,273 295,276 295,276  Z"/>

<path  fill="#FF9BCD" stroke-width="0" stroke="#FF9BCD" d = " M281 265 L284,265 C284,265 283,264 283,264 283,264 281,265 281,265  Z"/>

<path  fill="#FF9BCD" stroke-width="0" stroke="#FF9BCD" d = " M320 264 L319,265 C319,265 320,264 320,264  Z"/>

<path  fill="#FF9BCD" stroke-width="0" stroke="#FF9BCD" d = " M138 265 L141,268 C141,268 138,265 138,265  Z"/>

<path  fill="#FCB3D9" stroke-width="0" stroke="#FCB3D9" d = " M167 265 L165,267 C166.747,267 167,266.747 167,265  Z"/>

<path  fill="#FEB3D8" stroke-width="0" stroke="#FEB3D8" d = " M173 265 C174.238,265 176,265.423 176,267 176,269.846 171,270.633 171,265 171,265 173,265 173,265  Z"/>

<path  fill="#FF9BCD" stroke-width="0" stroke="#FF9BCD" d = " M193 268 L191,269 C191,269 192,265 192,265 192,265 193,265 193,265 193,265 193,268 193,268  Z"/>

<path  fill="#FF9BCD" stroke-width="0" stroke="#FF9BCD" d = " M263 268 L265,269 C265,269 265,265 265,265 265,265 263,265 263,265 263,265 263,268 263,268  Z"/>

<path  fill="#FF9BCD" stroke-width="0" stroke="#FF9BCD" d = " M274 265 L273,266 C273,266 273,265 273,265 273,265 274,265 274,265  Z"/>

<path  fill="#FF9BCD" stroke-width="0" stroke="#FF9BCD" d = " M281 265 L281,267 C281,267 279,265 279,265 279,265 281,265 281,265  Z"/>

<path  fill="#FEB3D8" stroke-width="0" stroke="#FEB3D8" d = " M281 267 C281,269.547 285,269.775 285,268 285,268 285,266 285,266 285,266 285,265 285,265 285,265 284,265 284,265 284,265 281,265 281,265 281,265 281,267 281,267  Z"/>

<path  fill="#FF9BCD" stroke-width="0" stroke="#FF9BCD" d = " M319 265 L318,266 C318,266 319,265 319,265  Z"/>

<path  fill="#FF9BCD" stroke-width="0" stroke="#FF9BCD" d = " M329 265 C327.423,265 327,266.762 327,268 328.577,268 329,266.238 329,265  Z"/>

<path  fill="#FF9BCD" stroke-width="0" stroke="#FF9BCD" d = " M285 266 C286.399,266 286.399,268 285,268 285,268 285,266 285,266  Z"/>

<path  fill="#FF9BCD" stroke-width="0" stroke="#FF9BCD" d = " M318 266 L317,267 C317,267 318,266 318,266  Z"/>

<path  fill="#FF9BCD" stroke-width="0" stroke="#FF9BCD" d = " M227 278 L229,278 C229,278 229,270 229,270 226.707,270 227,269.003 227,267 227,267 226,269 226,269 226,271.389 227,274.987 227,278  Z"/>

<path  fill="#FF9BCD" stroke-width="0" stroke="#FF9BCD" d = " M316 267 L315,268 C315,268 316,267 316,267  Z"/>

<path  fill="#FF9BCD" stroke-width="0" stroke="#FF9BCD" d = " M142 268 L143,269 C143,269 142,268 142,268  Z"/>

<path  fill="#FF9BCD" stroke-width="0" stroke="#FF9BCD" d = " M229 270 L231,270 C231,270 230,268 230,268 230,268 229,270 229,270  Z"/>

<path  fill="#FF9BCD" stroke-width="0" stroke="#FF9BCD" d = " M315 268 L313,269 C313,269 315,268 315,268  Z"/>

<path  fill="#FF9BCD" stroke-width="0" stroke="#FF9BCD" d = " M327 268 C325.189,268 323,271.438 323,273 324.811,273 327,269.562 327,268  Z"/>

<path  fill="#FF9BCD" stroke-width="0" stroke="#FF9BCD" d = " M161 277 C157.524,277 150,271.295 150,279 150,279 146,277 146,277 146,277 146,275 146,275 157.094,275 144,270.55 144,269 144,269 149,269 149,269 149,275.02 156.958,273 160,273 160,273 161,276 161,276 161,276 161,277 161,277  Z"/>

<path  fill-rule="evenodd" fill="#FFB3D8" stroke-width="0" stroke="#FFB3D8" d = " M195 291 C195,292.93 196.93,291 195,291  M196 290 C196,291.93 197.93,290 196,290  M205 289 C205,292.479 208.479,289 205,289  M197 289 C197,290.93 198.93,289 197,289  M199 288 C199,289.93 200.93,288 199,288  M213 287 C213,288.93 214.93,287 213,287  M207 287 C207,290.479 210.479,287 207,287  M200 287 C200,288.93 201.93,287 200,287  M214 286 C214,287.93 215.93,286 214,286  M209 286 C209,287.93 210.93,286 209,286  M202 286 C202,287.93 203.93,286 202,286  M215 285 C215,287.091 218.746,285 215,285  M210 285 C210,286.93 211.93,285 210,285  M203 285 C203,286.93 204.93,285 203,285  M217 284 C217,285.93 218.93,284 217,284  M211 284 C211,286.091 214.746,284 211,284  M205 284 C205,285.93 206.93,284 205,284  M206 283 C206,284.93 207.93,283 206,283  M214 282 C214,283.93 215.93,282 214,282  M208 282 C208,283.93 209.93,282 208,282  M209 281 C209,282.93 210.93,281 209,281  M218 277 C218,280.746 220.091,277 218,277  M207 293 C204.591,293 205.945,291.723 204.5,291 L201,294.5 C202.354,297.208 205,290.161 205,295 202.751,295 197.532,301.564 195,296.5 195,296.5 195,292.5 195,292.5 195,292.5 192.5,294 192.5,294 192.163,294.168 186,296.192 186,294.5 186,292.288 191.313,290.593 192.5,290 192.5,290 210.5,277 210.5,277 217.103,273.698 218.132,277 219.5,277 219.5,277 220,275 220,275 220,275 221,274 221,274 221,274 222,273 222,273 222,273 226,269 226,269 226,271.389 227,274.987 227,278 227,278 227,280 227,280 225.814,280 225.814,281 227,281 227,281 227,283 227,283 227,283 226,284 226,284 226,284 226,285 226,285 226,285 220.5,289 220.5,289 217.011,290.745 209,285.358 209,291 207.253,291 207,291.253 207,293  Z"/>

<path  fill="#FF9BCD" stroke-width="0" stroke="#FF9BCD" d = " M312 269 C312,270.638 308.424,271 307,271 307,271 307,269 307,269 307,269 312,269 312,269  Z"/>

<path  fill="#FF9BCD" stroke-width="0" stroke="#FF9BCD" d = " M219 270 L218,271 C218,271 219,270 219,270  Z"/>

<path  fill-rule="evenodd" fill="#FFB3D8" stroke-width="0" stroke="#FFB3D8" d = " M253 286 L259.5,291 C259.5,291 255.571,286 253,286  M238 284 C238,285.93 239.93,284 238,284  M246 281 C246,282.164 250.514,285 251.5,285 251.947,285 247.576,281 246,281  M241 281 C241,283.425 247.743,288.243 250,290.5 250.378,290.878 256,297.286 256,294.5 L241,281  M231 285 L231,286 C234.323,286 237.873,291.313 242.5,289 244.404,288.048 236.994,283.247 242.5,286 247.704,288.602 253.715,301.393 260.5,298 263.107,296.696 260.175,292.663 261.5,292 263.271,291.115 266.153,296.674 269.5,295 272.134,293.683 261.499,288.499 260.5,288 252.421,283.96 247.811,275 238,275 238,275 239,278.5 239,278.5 239,279.123 235,275.18 235,274 235,274 231,270 231,270 231,270 229,270 229,270 229,270 229,278 229,278 229,279.564 230,281.876 230,284 230,284 231,285 231,285  Z"/>

<path  fill-rule="evenodd" fill="#FF9BCD" stroke-width="0" stroke="#FF9BCD" d = " M243 290 C243,292.012 236.227,290.046 235,292.5 232.506,297.487 246.297,300 249,300 250.004,300 255.065,300.63 254,298.5 L250,294.5 C248.351,291.202 246.84,290 243,290  M285 293 C285,295.442 275.289,296.105 273.5,297 270.247,298.627 265.647,297.426 262.5,299 249.673,305.413 238.216,297.858 228.5,293 L226.5,295 C223.314,296.593 219.811,299 216,299 216,299 221,294.5 221,294.5 223.544,289.411 210.025,291 209,291 209,285.358 217.011,290.745 220.5,289 220.5,289 226,285 226,285 226,289.704 231,290.649 231,286 234.323,286 237.873,291.313 242.5,289 244.404,288.048 236.994,283.247 242.5,286 247.704,288.602 253.715,301.393 260.5,298 263.107,296.696 260.175,292.663 261.5,292 263.271,291.115 266.153,296.674 269.5,295 272.134,293.683 261.499,288.499 260.5,288 252.421,283.96 247.811,275 238,275 238,273.256 238,272.033 238,270 240.849,270 243.459,275 247,275 247,275 248,275 248,275 248,280.705 260.433,276 262,276 262,281.272 272.117,292.192 278.5,289 278.5,289 284,285 284,285 284,291.141 289.379,285 293,285 293,285 293,286 293,286 289.504,286 286.476,289.512 283.5,291 278.387,293.557 279.151,293 285,293  Z"/>

<path  fill="#FF9BCD" stroke-width="0" stroke="#FF9BCD" d = " M205 295 C205,297.123 202,298.03 202,299.5 L205.5,300 L216,299 C216,302.253 201.724,301 199,301 199,301 194.5,299 194.5,299 194.5,299 188.5,299 188.5,299 180.375,294.937 170.726,294.113 162.5,290 162.5,290 153,285 153,285 153,285 155,285 155,285 155,285 159,286 159,286 159,286 160,287 160,287 160,287 161,287 161,287 161,289.049 178.56,295.621 177,292.5 177,292.5 173,290.5 173,290.5 173,290.5 169.5,289 169.5,289 169.5,289 163,286 163,286 163,286 164,285 164,285 168.279,285 172,290.757 172,285 175.683,285 179.326,291.587 184.5,289 184.5,289 193,279.5 193,279.5 193,279.5 195,276 195,276 195,279.3 209,278.199 209,275 210.465,275 213,275.109 213,273 215.25,273 216.376,271 218,271 218,272.465 217.891,275 220,275 220,275 219.5,277 219.5,277 218.132,277 217.103,273.698 210.5,277 210.5,277 192.5,290 192.5,290 191.313,290.593 186,292.288 186,294.5 186,296.192 192.163,294.168 192.5,294 192.5,294 195,292.5 195,292.5 195,292.5 195,296.5 195,296.5 197.532,301.564 202.751,295 205,295  Z"/>

<path  fill="#FF9BCD" stroke-width="0" stroke="#FF9BCD" d = " M307 271 L306,272 C306,272 307,271 307,271  Z"/>

<path  fill="#C9CACA" stroke-width="0" stroke="#C9CACA" d = " M153 285 L155,285 C155,285 150,279 150,279 150,279 146,277 146,277 146,277 141,273 141,273 141,273 140,273 140,273 140,273 134,272 134,272 134,272 135,275 135,275 135,275 136,275 136,275 136,275 139,277 139,277 139,277 140,278 140,278 140,278 144,281 144,281 144,281 145,281 145,281 145,281 148,283 148,283 148,283 149,283 149,283 150.238,283 152,283.423 152,285 152,285 153,285 153,285  Z"/>

<path  fill="#FF9BCD" stroke-width="0" stroke="#FF9BCD" d = " M296 277 C299.405,277 306,271.378 306,279 306,279 311,276 311,276 311,276 311,275 311,275 307.744,275 306,275.714 306,272 306,272 302.5,274 302.5,274 302.5,274 296,273 296,273 296,273 295,276 295,276 295,276 296,277 296,277  Z"/>

<path  fill="#C9CACA" stroke-width="0" stroke="#C9CACA" d = " M304 285 L305,285 C305,285 306,284 306,284 306,284 308,283 308,283 308,283 309,283 309,283 309,283 310,282 310,282 310,282 311,282 311,282 311,282 312,281 312,281 312,281 313,281 313,281 313,279.253 313.253,279 315,279 315,279 317,278 317,278 317,278 318,277 318,277 318,277 319,277 319,277 319,277 320,276 320,276 320,276 321,275 321,275 321,275 322,274 322,274 322,274 322,273 322,273 322,270.888 317.357,273 316,273 316,273 315,273 315,273 315,273 314,274 314,274 314,274 313,275 313,275 313,275 312,275 312,275 312,275 311,276 311,276 311,276 306,279 306,279 306,282.11 301,282.662 301,285 301,285 304,285 304,285  Z"/>

<path  fill="#C9C9C8" stroke-width="0" stroke="#C9C9C8" d = " M146 275 L146,277 C146,277 141,273 141,273 141,273 146,275 146,275  Z"/>

<path  fill="#C8C8CB" stroke-width="0" stroke="#C8C8CB" d = " M164 285 C168.279,285 172,290.757 172,285 170.689,285 168.487,273.994 166.5,273 165.146,272.323 162.844,276 161,276 161,276 161,277 161,277 161,279.666 164,281.031 164,285  Z"/>

<path  fill="#FEB0D8" stroke-width="0" stroke="#FEB0D8" d = " M213 273 L209,275 C210.465,275 213,275.109 213,273  Z"/>

<path  fill="#FF9BCD" stroke-width="0" stroke="#FF9BCD" d = " M222 273 L221,274 C221,274 222,273 222,273  Z"/>

<path  fill="#C8C8CB" stroke-width="0" stroke="#C8C8CB" d = " M284 285 C284,291.141 289.379,285 293,285 293,281.717 296,278.703 296,277 296,277 295,276 295,276 295,276 290.5,273 290.5,273 290.5,273 284,285 284,285  Z"/>

<path  fill="#C9C9C8" stroke-width="0" stroke="#C9C9C8" d = " M315 273 L314,274 C314,274 315,273 315,273  Z"/>

<path  fill="#FF9BCD" stroke-width="0" stroke="#FF9BCD" d = " M323 273 L322,274 C322,274 322,273 322,273 322,273 323,273 323,273  Z"/>

<path  fill="#FF9BCD" stroke-width="0" stroke="#FF9BCD" d = " M221 274 L220,275 C220,275 221,274 221,274  Z"/>

<path  fill="#FF9BCD" stroke-width="0" stroke="#FF9BCD" d = " M235 274 L238,275 C238,275 239,278.5 239,278.5 239,279.123 235,275.18 235,274  Z"/>

<path  fill="#C9C9C8" stroke-width="0" stroke="#C9C9C8" d = " M314 274 L313,275 C313,275 314,274 314,274  Z"/>

<path  fill="#FF9BCD" stroke-width="0" stroke="#FF9BCD" d = " M322 274 L321,275 C321,275 322,274 322,274  Z"/>

<path  fill="#FF9BCD" stroke-width="0" stroke="#FF9BCD" d = " M140 278 L144,281 C142.304,281 136,277.196 136,275 136,275 139,277 139,277 139,277 140,278 140,278  Z"/>

<path  fill="#FEB0D9" stroke-width="0" stroke="#FEB0D9" d = " M160 287 L161,287 C161,287 163,286 163,286 163,286 164,285 164,285 164,281.031 161,279.666 161,277 157.524,277 150,271.295 150,279 150,279 155,285 155,285 155,285 159,286 159,286 159,286 160,287 160,287  Z"/>

<path  fill="#FEB0D9" stroke-width="0" stroke="#FEB0D9" d = " M298 286 L296,287 C296,287 293,286 293,286 293,286 293,285 293,285 293,281.717 296,278.703 296,277 299.405,277 306,271.378 306,279 306,282.11 301,282.662 301,285 301,285 298,286 298,286  Z"/>

<path  fill="#C9C9C8" stroke-width="0" stroke="#C9C9C8" d = " M312 275 L311,276 C311,276 311,275 311,275 311,275 312,275 312,275  Z"/>

<path  fill="#FF9BCD" stroke-width="0" stroke="#FF9BCD" d = " M321 275 L320,276 C320,276 321,275 321,275  Z"/>

<path  fill="#FF9BCD" stroke-width="0" stroke="#FF9BCD" d = " M320 276 L319,277 C319,277 320,276 320,276  Z"/>

<path  fill="#C9C9C8" stroke-width="0" stroke="#C9C9C8" d = " M139 277 L140,278 C140,278 139,277 139,277  Z"/>

<path  fill="#FF9BCD" stroke-width="0" stroke="#FF9BCD" d = " M218 277 C218,280.746 220.091,277 218,277  Z"/>

<path  fill="#FF9BCD" stroke-width="0" stroke="#FF9BCD" d = " M318 277 L317,278 C317,278 318,277 318,277  Z"/>

<path  fill="#FFC6E2" stroke-width="0" stroke="#FFC6E2" d = " M231 285 L231,286 C231,290.649 226,289.704 226,285 226,285 226,284 226,284 226,284 227,283 227,283 227,283 227,281 227,281 227,281 227,280 227,280 227,280 227,278 227,278 227,278 229,278 229,278 229,279.564 230,281.876 230,284 230,284 231,285 231,285  Z"/>

<path  fill="#FF9BCD" stroke-width="0" stroke="#FF9BCD" d = " M317 278 L315,279 C315,279 317,278 317,278  Z"/>

<path  fill="#FF9BCD" stroke-width="0" stroke="#FF9BCD" d = " M315 279 C313.253,279 313,279.253 313,281 313,281 315,279 315,279  Z"/>

<path  fill="#FF9BCD" stroke-width="0" stroke="#FF9BCD" d = " M227 280 C225.814,280 225.814,281 227,281 227,281 227,280 227,280  Z"/>

<path  fill="#FF9BCD" stroke-width="0" stroke="#FF9BCD" d = " M145 281 L148,283 C146.762,283 145,282.577 145,281  Z"/>

<path  fill="#FF9BCD" stroke-width="0" stroke="#FF9BCD" d = " M209 281 C209,282.93 210.93,281 209,281  Z"/>

<path  fill="#FF9BCD" stroke-width="0" stroke="#FF9BCD" d = " M241 281 C241,283.425 247.743,288.243 250,290.5 250.378,290.878 256,297.286 256,294.5 L241,281  Z"/>

<path  fill="#FF9BCD" stroke-width="0" stroke="#FF9BCD" d = " M246 281 C246,282.164 250.514,285 251.5,285 251.947,285 247.576,281 246,281  Z"/>

<path  fill="#FF9BCD" stroke-width="0" stroke="#FF9BCD" d = " M312 281 L311,282 C311,282 312,281 312,281  Z"/>

<path  fill="#FF9BCD" stroke-width="0" stroke="#FF9BCD" d = " M208 282 C208,283.93 209.93,282 208,282  Z"/>

<path  fill="#FF9BCD" stroke-width="0" stroke="#FF9BCD" d = " M214 282 C214,283.93 215.93,282 214,282  Z"/>

<path  fill="#FF9BCD" stroke-width="0" stroke="#FF9BCD" d = " M310 282 L309,283 C309,283 310,282 310,282  Z"/>

<path  fill="#FF9BCD" stroke-width="0" stroke="#FF9BCD" d = " M149 283 C150.238,283 152,283.423 152,285 150.762,285 149,284.577 149,283  Z"/>

<path  fill="#FF9BCD" stroke-width="0" stroke="#FF9BCD" d = " M206 283 C206,284.93 207.93,283 206,283  Z"/>

<path  fill="#FF9BCD" stroke-width="0" stroke="#FF9BCD" d = " M227 283 L226,284 C226,284 227,283 227,283  Z"/>

<path  fill="#FF9BCD" stroke-width="0" stroke="#FF9BCD" d = " M308 283 L306,284 C306,284 308,283 308,283  Z"/>

<path  fill="#FF9BCD" stroke-width="0" stroke="#FF9BCD" d = " M205 284 C205,285.93 206.93,284 205,284  Z"/>

<path  fill="#FF9BCD" stroke-width="0" stroke="#FF9BCD" d = " M211 284 C211,286.091 214.746,284 211,284  Z"/>

<path  fill="#FF9BCD" stroke-width="0" stroke="#FF9BCD" d = " M217 284 C217,285.93 218.93,284 217,284  Z"/>

<path  fill="#FF9BCD" stroke-width="0" stroke="#FF9BCD" d = " M230 284 L231,285 C231,285 230,284 230,284  Z"/>

<path  fill="#FF9BCD" stroke-width="0" stroke="#FF9BCD" d = " M238 284 C238,285.93 239.93,284 238,284  Z"/>

<path  fill="#FF9BCD" stroke-width="0" stroke="#FF9BCD" d = " M306 284 L305,285 C305,285 306,284 306,284  Z"/>

<path  fill="#FF9BCD" stroke-width="0" stroke="#FF9BCD" d = " M203 285 C203,286.93 204.93,285 203,285  Z"/>

<path  fill="#FF9BCD" stroke-width="0" stroke="#FF9BCD" d = " M210 285 C210,286.93 211.93,285 210,285  Z"/>

<path  fill="#FF9BCD" stroke-width="0" stroke="#FF9BCD" d = " M215 285 C215,287.091 218.746,285 215,285  Z"/>

<path  fill="#FF9BCD" stroke-width="0" stroke="#FF9BCD" d = " M296 287 L285,293 C290.662,293 294.812,289.344 299.5,287 300.619,286.441 304,286.845 304,285 304,285 301,285 301,285 301,285 298,286 298,286 298,286 296,287 296,287  Z"/>

<path  fill="#CBC7CC" stroke-width="0" stroke="#CBC7CC" d = " M159 286 L160,287 C160,287 159,286 159,286  Z"/>

<path  fill="#CBC7CC" stroke-width="0" stroke="#CBC7CC" d = " M163 286 L169.5,289 L173,290.5 L177,292.5 C178.56,295.621 161,289.049 161,287 161,287 163,286 163,286  Z"/>

<path  fill="#FF9BCD" stroke-width="0" stroke="#FF9BCD" d = " M202 286 C202,287.93 203.93,286 202,286  Z"/>

<path  fill="#FF9BCD" stroke-width="0" stroke="#FF9BCD" d = " M209 286 C209,287.93 210.93,286 209,286  Z"/>

<path  fill="#FF9BCD" stroke-width="0" stroke="#FF9BCD" d = " M214 286 C214,287.93 215.93,286 214,286  Z"/>

<path  fill="#FF9BCD" stroke-width="0" stroke="#FF9BCD" d = " M253 286 L259.5,291 C259.5,291 255.571,286 253,286  Z"/>

<path  fill="#CBC7CC" stroke-width="0" stroke="#CBC7CC" d = " M296 287 L285,293 C279.151,293 278.387,293.557 283.5,291 286.476,289.512 289.504,286 293,286 293,286 296,287 296,287  Z"/>

<path  fill="#CBC7CC" stroke-width="0" stroke="#CBC7CC" d = " M298 286 L296,287 C296,287 298,286 298,286  Z"/>

<path  fill="#FF9BCD" stroke-width="0" stroke="#FF9BCD" d = " M200 287 C200,288.93 201.93,287 200,287  Z"/>

<path  fill="#FF9BCD" stroke-width="0" stroke="#FF9BCD" d = " M207 287 C207,290.479 210.479,287 207,287  Z"/>

<path  fill="#FF9BCD" stroke-width="0" stroke="#FF9BCD" d = " M213 287 C213,288.93 214.93,287 213,287  Z"/>

<path  fill="#FF9BCD" stroke-width="0" stroke="#FF9BCD" d = " M199 288 C199,289.93 200.93,288 199,288  Z"/>

<path  fill="#FF9BCD" stroke-width="0" stroke="#FF9BCD" d = " M197 289 C197,290.93 198.93,289 197,289  Z"/>

<path  fill="#FF9BCD" stroke-width="0" stroke="#FF9BCD" d = " M205 289 C205,292.479 208.479,289 205,289  Z"/>

<path  fill="#FF9BCD" stroke-width="0" stroke="#FF9BCD" d = " M196 290 C196,291.93 197.93,290 196,290  Z"/>

<path  fill="#C7C9C9" stroke-width="0" stroke="#C7C9C9" d = " M205 295 C205,297.123 202,298.03 202,299.5 L205.5,300 L216,299 C216,299 221,294.5 221,294.5 223.544,289.411 210.025,291 209,291 209,291 207,293 207,293 207,293 205,295 205,295  Z"/>

<path  fill="#C7C9C9" stroke-width="0" stroke="#C7C9C9" d = " M243 290 C243,292.012 236.227,290.046 235,292.5 232.506,297.487 246.297,300 249,300 250.004,300 255.065,300.63 254,298.5 L250,294.5 C248.351,291.202 246.84,290 243,290  Z"/>

<path  fill="#FF9BCD" stroke-width="0" stroke="#FF9BCD" d = " M195 291 C195,292.93 196.93,291 195,291  Z"/>

<path  fill="#FF9BCD" stroke-width="0" stroke="#FF9BCD" d = " M207 293 C204.591,293 205.945,291.723 204.5,291 L201,294.5 C202.354,297.208 205,290.161 205,295 205,295 207,293 207,293  Z"/>

<path  fill="#FF9BCD" stroke-width="0" stroke="#FF9BCD" d = " M209 291 C207.253,291 207,291.253 207,293 207,293 209,291 209,291  Z"/>

</g>
</svg>
