<svg xmlns="http://www.w3.org/2000/svg" xmlns:xlink="http://www.w3.org/1999/xlink"  viewBox="0 0 456 320">
<g>
<rect width="456" height="320" fill="#000000"  stroke-width="0" /> 
<path  fill="#9AD1BD" stroke-width="0" stroke="#9AD1BD" d = " M148 143 L148,154 C148,164.557 160.207,181.914 165,191.5 168.902,199.305 163.789,213.077 167,219.5 169.247,223.994 173.244,226.988 175,230.5 175.783,232.065 179.166,232.333 180.5,233 191.173,238.336 205.685,243.13 213,228.5 218.879,216.742 221,199.435 221,185.5 221,185.5 222,157.5 222,157.5 223.66,154.18 227.054,132.608 225,128.5 222.549,123.597 220.492,118.484 218,113.5 218,113.5 212,107 212,107 209.768,107 202.747,104.124 200.5,103 197.291,101.396 177.558,107.471 174.5,109 174.5,109 161,118.5 161,118.5 161,118.5 156,125 156,125 156,125 155,126 155,126 155,126 155,127 155,127 155,127 154,128 154,128 154,128 153,130 153,130 153,130 152,132 152,132 152,132 151,134 151,134 151,134 151,135 151,135 151,135 150,137 150,137 150,137 149,139 149,139 149,139 149,140 149,140 149,141.048 149.473,143 148,143  Z"/>

<path  fill="#9AD1BD" stroke-width="0" stroke="#9AD1BD" d = " M309 148 L309,154 C307.049,154 308.523,156.454 308,157.5 305.952,161.596 305.038,166.423 303,170.5 298.155,180.19 293.757,189.986 289,199.5 284.094,209.312 295.877,223.312 280.5,231 275.533,233.484 270.409,235.545 265.5,238 256.203,242.648 246.71,233.919 243,226.5 238.194,216.888 239.242,202.984 236,196.5 232.99,190.48 238.067,180.633 235,174.5 235,174.5 235,161.5 235,161.5 233.562,158.624 229.514,133.472 231,130.5 233.907,124.686 236.04,118.42 239,112.5 239,112.5 244,107 244,107 246.624,107 253.949,104.275 256.5,103 262.12,100.19 282.624,110.562 287.5,113 289.681,114.091 298,118.708 298,122 298,122 299,123 299,123 299,123 301,126 301,126 301,126 305,133 305,133 305,133 305,134 305,134 305,134 307,138 307,138 307,138 307,139 307,139 307,139.969 308.147,146 309,146 309,146 309,148 309,148  Z"/>

<path  fill="#C7CBCA" stroke-width="0" stroke="#C7CBCA" d = " M153 211 C153,217.449 158.739,220.977 161,225.5 165.644,234.788 175.622,240.561 184.5,245 L191.5,251 C199.851,255.175 210.92,252.79 218.5,249 226.995,244.752 227,225.951 227,217 227,215.009 226.207,203 228,203 228,203 228,201 228,201 226.434,201 226.434,196 228,196 228,196 228,158 228,158 226.265,158 227,151.49 227,150 227,138.662 228.161,107 212,107 212,107 218,113.5 218,113.5 220.492,118.484 222.549,123.597 225,128.5 227.054,132.608 223.66,154.18 222,157.5 222,157.5 221,185.5 221,185.5 221,199.435 218.879,216.742 213,228.5 205.685,243.13 191.173,238.336 180.5,233 179.166,232.333 175.783,232.065 175,230.5 173.244,226.988 169.247,223.994 167,219.5 163.789,213.077 168.902,199.305 165,191.5 160.207,181.914 148,164.557 148,154 146.265,154 147,160.51 147,162 147,162 147,168 147,168 148.579,168 148,170.855 148,172 148,172 148,173 148,173 150.207,173 148.338,178.176 149,179.5 152.266,186.031 153,203.057 153,211  Z"/>

<path  fill="#C7CBCA" stroke-width="0" stroke="#C7CBCA" d = " M308 176 C306.833,176 306,183.108 306,184.5 306,193.065 303,202.607 303,211 303,228.613 272.706,246.397 259.5,253 254.541,255.48 243.304,251.902 239.5,250 230.154,245.327 229,228.419 229,219 229,219 229,134.5 229,134.5 229,126.339 235.011,107 244,107 244,107 239,112.5 239,112.5 236.04,118.42 233.907,124.686 231,130.5 229.514,133.472 233.562,158.624 235,161.5 235,161.5 235,174.5 235,174.5 238.067,180.633 232.99,190.48 236,196.5 239.242,202.984 238.194,216.888 243,226.5 246.71,233.919 256.203,242.648 265.5,238 270.409,235.545 275.533,233.484 280.5,231 295.877,223.312 284.094,209.312 289,199.5 293.757,189.986 298.155,180.19 303,170.5 305.038,166.423 305.952,161.596 308,157.5 308.523,156.454 307.049,154 309,154 309,154 309,167 309,167 309,167 309,171 309,171 307.357,171 308,174.765 308,176  Z"/>

<path  fill="#99D2BD" stroke-width="0" stroke="#99D2BD" d = " M298 122 L299,123 C299,123 298,122 298,122  Z"/>

<path  fill="#99D2BD" stroke-width="0" stroke="#99D2BD" d = " M156 125 L155,126 C155,126 156,125 156,125  Z"/>

<path  fill="#99D2BD" stroke-width="0" stroke="#99D2BD" d = " M301 126 C302.948,126 305,131.428 305,133 305,133 301,126 301,126  Z"/>

<path  fill="#99D2BD" stroke-width="0" stroke="#99D2BD" d = " M155 127 L154,128 C154,128 155,127 155,127  Z"/>

<path  fill="#99D2BD" stroke-width="0" stroke="#99D2BD" d = " M154 128 L153,130 C153,130 154,128 154,128  Z"/>

<path  fill="#99D2BD" stroke-width="0" stroke="#99D2BD" d = " M153 130 L152,132 C152,132 153,130 153,130  Z"/>

<path  fill="#99D2BD" stroke-width="0" stroke="#99D2BD" d = " M152 132 L151,134 C151,134 152,132 152,132  Z"/>

<path  fill="#99D2BD" stroke-width="0" stroke="#99D2BD" d = " M305 134 C307.109,134 307,136.535 307,138 307,138 305,134 305,134  Z"/>

<path  fill="#99D2BD" stroke-width="0" stroke="#99D2BD" d = " M151 135 L150,137 C150,137 151,135 151,135  Z"/>

<path  fill="#99D2BD" stroke-width="0" stroke="#99D2BD" d = " M150 137 L149,139 C149,139 150,137 150,137  Z"/>

<path  fill="#99D2BD" stroke-width="0" stroke="#99D2BD" d = " M307 139 C309.273,139 309,144.226 309,146 308.147,146 307,139.969 307,139  Z"/>

<path  fill="#99D2BD" stroke-width="0" stroke="#99D2BD" d = " M149 140 C147.527,140 148,141.952 148,143 149.473,143 149,141.048 149,140  Z"/>

<path  fill="#99D2BD" stroke-width="0" stroke="#99D2BD" d = " M148 154 C146.265,154 147,160.51 147,162 144.414,162 147,148.749 147,147 147,145.855 146.421,143 148,143 148,143 148,154 148,154  Z"/>

<path  fill="#99D2BD" stroke-width="0" stroke="#99D2BD" d = " M309 154 L309,167 C310.797,167 310,154.075 310,152 310,150.855 310.579,148 309,148 309,148 309,154 309,154  Z"/>

<path  fill="#99D2BD" stroke-width="0" stroke="#99D2BD" d = " M227 150 C228.735,150 228,156.51 228,158 226.265,158 227,151.49 227,150  Z"/>

<path  fill="#99D2BD" stroke-width="0" stroke="#99D2BD" d = " M147 168 C148.579,168 148,170.855 148,172 146.421,172 147,169.145 147,168  Z"/>

<path  fill="#99D2BD" stroke-width="0" stroke="#99D2BD" d = " M309 171 C307.357,171 308,174.765 308,176 309.643,176 309,172.235 309,171  Z"/>

<path  fill="#99D2BD" stroke-width="0" stroke="#99D2BD" d = " M148 173 C150.207,173 148.338,178.176 149,179.5 152.266,186.031 153,203.057 153,211 149.89,211 150.839,205.178 150,203.5 146.652,196.805 148,180.558 148,173  Z"/>

<path  fill="#99D2BD" stroke-width="0" stroke="#99D2BD" d = " M308 176 C306.833,176 306,183.108 306,184.5 306,193.065 303,202.607 303,211 308.994,211 308,181.794 308,176  Z"/>

<path  fill="#99D2BD" stroke-width="0" stroke="#99D2BD" d = " M228 196 C226.434,196 226.434,201 228,201 228,201 228,196 228,196  Z"/>

<path  fill="#99D2BD" stroke-width="0" stroke="#99D2BD" d = " M228 203 C226.207,203 227,215.009 227,217 228.793,217 228,204.991 228,203  Z"/>

</g>
</svg>
