<svg xmlns="http://www.w3.org/2000/svg" xmlns:xlink="http://www.w3.org/1999/xlink"  viewBox="0 0 456 320">
<g>
<rect width="456" height="320" fill="#000000"  stroke-width="0" /> 
<path  fill="#1E9C59" stroke-width="0" stroke="#1E9C59" d = " M227 53 L222,55 C222,52.4005 219.397,49.8968 217.5,48 207.691,38.1905 198.477,41 185,41 185,41 185,37 185,37 185,35.165 196.76,35 199,35 210.266,35 214.521,39.0213 222,46.5 223.828,48.3275 227,50.3623 227,53  Z"/>

<path  fill="#1E9C59" stroke-width="0" stroke="#1E9C59" d = " M234 55 L235,55 C235,50.8102 238.962,46.7691 242.5,45 247.829,42.3354 258.106,36.303 265.5,40 265.5,40 272,42 272,42 272,42 271,37 271,37 271,34.7731 258.907,35 256.5,35 246.565,35 237.532,39.4368 233,48.5 232.405,49.6899 229,50.8171 229,53 229,53 234,55 234,55  Z"/>

<path  fill="#1E9D5A" stroke-width="0" stroke="#1E9D5A" d = " M135 50 L135,57 C135,57 143.5,53 143.5,53 150.009,49.7455 176.697,42 184,42 184,42 185,41 185,41 185,41 185,37 185,37 176.946,37 154.968,41.7658 148.5,45 145.178,46.661 138.683,50 135,50  Z"/>

<path  fill="#1E9D5A" stroke-width="0" stroke="#1E9D5A" d = " M321 50 C321,51.7139 321,53.4819 321,56 309.636,56 286.471,42 272,42 272,42 271,37 271,37 284.231,37 299.36,41.4301 310.5,47 312.133,47.8167 321,47.9202 321,50  Z"/>

<path  fill="#1E9D58" stroke-width="0" stroke="#1E9D58" d = " M215 59 L216,59 C216,59 222,56 222,56 222,56 222,55 222,55 222,52.4005 219.397,49.8968 217.5,48 207.691,38.1905 198.477,41 185,41 185,41 184,42 184,42 184,45.6225 183,50.7642 183,55 188.489,55 215,43.2327 215,59  Z"/>

<path  fill="#1E9D58" stroke-width="0" stroke="#1E9D58" d = " M240 59 L241,59 C241,55.2008 243.794,54.3532 246.5,53 258.448,47.0259 263.521,55 273,55 273,49.7559 272,46.5241 272,42 272,42 265.5,40 265.5,40 258.106,36.303 247.829,42.3354 242.5,45 238.962,46.7691 235,50.8102 235,55 235,55 240,59 240,59  Z"/>

<path  fill="#1F9C58" stroke-width="0" stroke="#1F9C58" d = " M134 73 L134,79 C140.19,79 170.131,62.6843 177.5,59 179.677,57.9113 180.322,56 183,56 183,56 183,55 183,55 183,50.7642 184,45.6225 184,42 176.697,42 150.009,49.7455 143.5,53 143.5,53 135,57 135,57 135,57 134,57 134,57 134,61.2467 134,67.5587 134,73  Z"/>

<path  fill="#1F9C58" stroke-width="0" stroke="#1F9C58" d = " M322 73 C322,74.745 322.632,79 322,79 312.46,79 281.694,56 274,56 274,56 273,55 273,55 273,49.7559 272,46.5241 272,42 286.471,42 309.636,56 321,56 321,56 322,57 322,57 322,63.2504 322,67.9802 322,73  Z"/>

<path  fill="#197E64" stroke-width="0" stroke="#197E64" d = " M102 70 L104,72 C107.153,72 128.951,57 134,57 134,57 135,57 135,57 135,57 135,50 135,50 125.838,50 106.44,67 101,67 101,67 102,70 102,70  Z"/>

<path  fill="#197E64" stroke-width="0" stroke="#197E64" d = " M354 70 L352,72 C350.594,72 326.146,57 322,57 322,57 321,56 321,56 321,53.4819 321,51.7139 321,50 326.612,50 341.091,58.2956 346.5,61 346.5,61 355,67 355,67 355,67 355,69 355,69 355,69 354,70 354,70  Z"/>

<path  fill="#1F9D58" stroke-width="0" stroke="#1F9D58" d = " M202 71 C199.28,71 196.21,66.145 192.5,68 L180,74 C180,74 183,56 183,56 183,56 183,55 183,55 188.489,55 215,43.2327 215,59 215,59 202,71 202,71  Z"/>

<path  fill="#1F9D58" stroke-width="0" stroke="#1F9D58" d = " M254 71 C256.966,71 260.396,65.948 264.5,68 L276,74 C276,74 274,56 274,56 274,56 273,55 273,55 263.521,55 258.448,47.0259 246.5,53 243.794,54.3532 241,55.2008 241,59 241,59 254,71 254,71  Z"/>

<path  fill="#3EA665" stroke-width="0" stroke="#3EA665" d = " M223 82 L234,82 C234,82 234,55 234,55 234,55 229,53 229,53 229,56.7458 228.2,53 227,53 227,53 222,55 222,55 222,55 222,56 222,56 223.684,56 223,60.6792 223,62 223,62 223,82 223,82  Z"/>

<path  fill="#40A565" stroke-width="0" stroke="#40A565" d = " M234 82 L239,83 C239,75.0535 240,66.2892 240,59 240,59 235,55 235,55 235,55 234,55 234,55 234,55 234,82 234,82  Z"/>

<path  fill="#1E9C5A" stroke-width="0" stroke="#1E9C5A" d = " M134 80 C134,85.4867 134,90.4663 134,95 134,95 141.5,91 141.5,91 149.307,87.0964 158.652,85.9241 166.5,82 170.356,80.072 175.554,75 180,75 180,75 180,74 180,74 180,74 183,56 183,56 180.322,56 179.677,57.9113 177.5,59 170.131,62.6843 140.19,79 134,79 134,79 134,80 134,80  Z"/>

<path  fill="#40A565" stroke-width="0" stroke="#40A565" d = " M223 82 L217,83 C217,75.1051 216,66.2167 216,59 216,59 222,56 222,56 223.684,56 223,60.6792 223,62 223,62 223,82 223,82  Z"/>

<path  fill="#1E9C5A" stroke-width="0" stroke="#1E9C5A" d = " M322 80 C322,84.546 322,88.5214 322,94 322,94 287.5,81 287.5,81 284.335,79.4174 280.655,75 277,75 277,75 276,74 276,74 276,74 274,56 274,56 281.694,56 312.46,79 322,79 322,79 322,80 322,80  Z"/>

<path  fill="#197F61" stroke-width="0" stroke="#197F61" d = " M110 83 L111,83 C114.464,83 127.73,73 134,73 134,67.5587 134,61.2467 134,57 128.951,57 107.153,72 104,72 104,72 104,73 104,73 105.339,73 110,81.4915 110,83  Z"/>

<path  fill="#197F61" stroke-width="0" stroke="#197F61" d = " M352 73 L346,83 C341.172,83 329.237,73 322,73 322,67.9802 322,63.2504 322,57 326.146,57 350.594,72 352,72 352,72 352,73 352,73  Z"/>

<path  fill="#3EA566" stroke-width="0" stroke="#3EA566" d = " M217 83 L205,89 C205,86.9162 204.002,72 202,72 202,72 202,71 202,71 202,71 215,59 215,59 215,59 216,59 216,59 216,66.2167 217,75.1051 217,83  Z"/>

<path  fill="#3EA566" stroke-width="0" stroke="#3EA566" d = " M239 83 C242.692,83 249.841,90 252,90 252,85.586 253,80.8226 253,77 253,75.7655 252.357,72 254,72 254,72 254,71 254,71 254,71 241,59 241,59 241,59 240,59 240,59 240,66.2892 239,75.0535 239,83  Z"/>

<path  fill="#1B8062" stroke-width="0" stroke="#1B8062" d = " M100 68 C100.678,68 102,72.5226 102,70 102,70 101,67 101,67 101,67 100,68 100,68  Z"/>

<path  fill="#1B8062" stroke-width="0" stroke="#1B8062" d = " M356 68 L355,69 C355,69 355,67 355,67 355,67 356,68 356,68  Z"/>

<path  fill="#187E61" stroke-width="0" stroke="#187E61" d = " M56 135 C57.2404,135 57.5759,137 60,137 60,123.698 77.9105,89.2948 90.5,83 94.0504,81.2248 98.9664,73 104,73 104,73 104,72 104,72 104,72 102,70 102,70 102,72.5226 100.678,68 100,68 95.1482,68 89.9542,77.2729 86.5,79 72.5536,85.9732 56,118.761 56,135  Z"/>

<path  fill="#1D9C5A" stroke-width="0" stroke="#1D9C5A" d = " M190 93 C185.678,93 182.818,96 179,96 179,89.0331 180,81.3186 180,75 180,75 180,74 180,74 180,74 192.5,68 192.5,68 196.21,66.145 199.28,71 202,71 202,71 202,72 202,72 200.012,72 190,90.2957 190,93  Z"/>

<path  fill="#1D9C5A" stroke-width="0" stroke="#1D9C5A" d = " M267 93 C270.947,93 273.628,96 277,96 277,88.6954 277,83.3216 277,75 277,75 276,74 276,74 276,74 264.5,68 264.5,68 260.396,65.948 256.966,71 254,71 254,71 254,72 254,72 256.976,72 266,89.7907 266,93 266,93 267,93 267,93  Z"/>

<path  fill="#187E61" stroke-width="0" stroke="#187E61" d = " M396 137 L397,137 C397,137 401,135 401,135 401,117.794 385.539,94.0385 373,81.5 369.752,78.2518 359.817,68 356,68 356,68 355,69 355,69 355,69 354,70 354,70 354,70 352,72 352,72 352,72 352,73 352,73 356.206,73 366.634,83.1341 370,86.5 381.965,98.4654 396,119.22 396,137  Z"/>

<path  fill="#1B8062" stroke-width="0" stroke="#1B8062" d = " M355 69 L354,70 C354,70 355,69 355,69  Z"/>

<path  fill="#3FA664" stroke-width="0" stroke="#3FA664" d = " M190 93 C191.925,93 195,96.0753 195,98 195,98 205,90 205,90 205,90 205,89 205,89 205,86.9162 204.002,72 202,72 200.012,72 190,90.2957 190,93  Z"/>

<path  fill="#3FA664" stroke-width="0" stroke="#3FA664" d = " M263 96 L261,97 C257.13,97 255.398,90 252,90 252,85.586 253,80.8226 253,77 253,75.7655 252.357,72 254,72 256.976,72 266,89.7907 266,93 266,93 264,95 264,95 264,95 263,96 263,96  Z"/>

<path  fill="#1A7E64" stroke-width="0" stroke="#1A7E64" d = " M69 141 L70,141 C70,128.828 77.8861,117.728 83,107.5 83,107.5 91,97.5 91,97.5 92.5916,94.3168 110,83.363 110,83 110,81.4915 105.339,73 104,73 98.9664,73 94.0504,81.2248 90.5,83 77.9105,89.2948 60,123.698 60,137 63.2417,137 65.3187,141 69,141  Z"/>

<path  fill="#1A7F63" stroke-width="0" stroke="#1A7F63" d = " M115 91 L116,91 C116,89.0118 119.315,88.5924 120.5,88 124.328,86.0862 129.639,80 134,80 134,80 134,79 134,79 134,79 134,73 134,73 127.73,73 114.464,83 111,83 111,83 115,91 115,91  Z"/>

<path  fill="#1A7F63" stroke-width="0" stroke="#1A7F63" d = " M346 84 L341,90 C334.18,90 328.907,80 322,80 322,80 322,79 322,79 322.632,79 322,74.745 322,73 329.237,73 341.172,83 346,83 346,83 346,84 346,84  Z"/>

<path  fill="#1A7E64" stroke-width="0" stroke="#1A7E64" d = " M396 137 C393.241,137 390.205,141 387,141 387,128.001 370.433,98.4665 359.5,93 355.677,91.0886 351.464,84 346,84 346,84 346,83 346,83 346,83 352,73 352,73 356.206,73 366.634,83.1341 370,86.5 381.965,98.4654 396,119.22 396,137  Z"/>

<path  fill="#1F9B5A" stroke-width="0" stroke="#1F9B5A" d = " M151 109 C144.755,109 139.672,116 134,116 134,109.617 134,101.544 134,95 134,95 141.5,91 141.5,91 149.307,87.0964 158.652,85.9241 166.5,82 170.356,80.072 175.554,75 180,75 180,81.3186 179,89.0331 179,96 179,96 173,99 173,99 170.416,99 155,105.942 155,107 153.535,107 151,106.891 151,109  Z"/>

<path  fill="#1F9B5A" stroke-width="0" stroke="#1F9B5A" d = " M277 96 C286.153,96 314.658,116 323,116 323,116 322,95 322,95 322,95 322,94 322,94 322,94 287.5,81 287.5,81 284.335,79.4174 280.655,75 277,75 277,83.3216 277,88.6954 277,96  Z"/>

<path  fill="#187E62" stroke-width="0" stroke="#187E62" d = " M122 101 L123,101 C123,98.8324 132.098,95 134,95 134,90.4663 134,85.4867 134,80 129.639,80 124.328,86.0862 120.5,88 119.315,88.5924 116,89.0118 116,91 116,94.7742 122,96.4631 122,101  Z"/>

<path  fill="#187E62" stroke-width="0" stroke="#187E62" d = " M322 95 C326.88,95 329.491,100 334,100 334,100 341,91 341,91 341,91 341,90 341,90 334.18,90 328.907,80 322,80 322,84.546 322,88.5214 322,94 322,94 322,95 322,95  Z"/>

<path  fill="#3FA566" stroke-width="0" stroke="#3FA566" d = " M221 117 L218,119 C218,119 217,83 217,83 217,83 223,82 223,82 223,93.0655 222,104.536 222,115 222,115 221,117 221,117  Z"/>

<path  fill="#40A664" stroke-width="0" stroke="#40A664" d = " M229 109 C231.832,109 231.953,114 234,114 234,103.328 234,93.22 234,82 234,82 223,82 223,82 223,93.0655 222,104.536 222,115 222,115 227,109 227,109 227,106.436 229,106.436 229,109  Z"/>

<path  fill="#3FA566" stroke-width="0" stroke="#3FA566" d = " M235 117 L238,119 C238,107.718 239,94.9417 239,83 239,83 234,82 234,82 234,93.22 234,103.328 234,114 234,114 235,117 235,117  Z"/>

<path  fill="#1B7F62" stroke-width="0" stroke="#1B7F62" d = " M75 144 L76,144 C76,133.38 93.0831,104.208 103.5,99 107.176,97.162 110.28,91 115,91 115,91 111,83 111,83 111,83 110,83 110,83 110,83.363 92.5916,94.3168 91,97.5 91,97.5 83,107.5 83,107.5 77.8861,117.728 70,128.828 70,141 70,141 75,144 75,144  Z"/>

<path  fill="#3EA666" stroke-width="0" stroke="#3EA666" d = " M210 116 C212.7,116 214.762,119 218,119 218,119 217,83 217,83 217,83 205,89 205,89 205,89 205,90 205,90 205,96.3043 204.377,104.253 207,109.5 207,109.5 210,116 210,116  Z"/>

<path  fill="#3EA666" stroke-width="0" stroke="#3EA666" d = " M247 115 C247,117.911 240.248,119 238,119 238,107.718 239,94.9417 239,83 242.692,83 249.841,90 252,90 252,98.0118 247,110.333 247,115  Z"/>

<path  fill="#1B7F62" stroke-width="0" stroke="#1B7F62" d = " M387 142 L381,144 C381,134.602 362.774,104.637 355.5,101 350.861,98.6804 346.396,91 341,91 341,91 341,90 341,90 341,90 346,84 346,84 351.464,84 355.677,91.0886 359.5,93 370.433,98.4665 387,128.001 387,141 387,141 387,142 387,142  Z"/>

<path  fill="#40A564" stroke-width="0" stroke="#40A564" d = " M207 114 L210,116 C210,116 207,109.5 207,109.5 204.377,104.253 205,96.3043 205,90 205,90 195,98 195,98 195,98 195,99 195,99 195,104.336 206,107.556 206,113 206,113 207,114 207,114  Z"/>

<path  fill="#40A564" stroke-width="0" stroke="#40A564" d = " M250 114 L247,115 C247,110.333 252,98.0118 252,90 255.398,90 257.13,97 261,97 261,97 261,99 261,99 261,104.211 251,107.965 251,112 251,112 250,114 250,114  Z"/>

<path  fill="#1B7E63" stroke-width="0" stroke="#1B7E63" d = " M76 144 C76,145.068 85.3445,148 87,148 87,134.687 106.921,101 122,101 122,96.4631 116,94.7742 116,91 116,91 115,91 115,91 110.28,91 107.176,97.162 103.5,99 93.0831,104.208 76,133.38 76,144  Z"/>

<path  fill="#1B7E63" stroke-width="0" stroke="#1B7E63" d = " M381 145 C376.312,145 373.56,148 369,148 369,133.471 350.139,101 334,101 334,101 334,100 334,100 334,100 341,91 341,91 346.396,91 350.861,98.6804 355.5,101 362.774,104.637 381,134.602 381,144 381,144 381,145 381,145  Z"/>

<path  fill="#1E9C58" stroke-width="0" stroke="#1E9C58" d = " M179 96 L179,97 C182.911,97 185.607,95 190,95 190,95 190,93 190,93 185.678,93 182.818,96 179,96  Z"/>

<path  fill="#3FA466" stroke-width="0" stroke="#3FA466" d = " M194 99 L195,99 C195,99 195,98 195,98 195,96.0753 191.925,93 190,93 190,93 190,95 190,95 192.226,95 194,96.7736 194,99  Z"/>

<path  fill="#3FA466" stroke-width="0" stroke="#3FA466" d = " M264 95 L267,95 C267,95 267,93 267,93 267,93 266,93 266,93 266,93 264,95 264,95  Z"/>

<path  fill="#1E9C58" stroke-width="0" stroke="#1E9C58" d = " M277 96 L277,97 C273.422,97 271.113,95 267,95 267,95 267,93 267,93 270.947,93 273.628,96 277,96  Z"/>

<path  fill="#197D61" stroke-width="0" stroke="#197D61" d = " M133 116 L134,116 C134,109.617 134,101.544 134,95 132.098,95 123,98.8324 123,101 123,101.931 131.976,116 133,116  Z"/>

<path  fill="#CACCC7" stroke-width="0" stroke="#CACCC7" d = " M206 113 L207,114 C197.55,114 195.751,102.625 188.5,99 182.745,96.1223 176.122,103 171,103 171,103 170,104 170,104 170,104 169,104 169,104 169,104 168,105 168,105 168,105 167,105 167,105 167,105 163,105 163,105 163,101.933 173,102.287 173,99 175.483,99 177.026,97 179,97 182.911,97 185.607,95 190,95 192.226,95 194,96.7736 194,99 194,101.684 202.827,113 206,113  Z"/>

<path  fill="#3FA466" stroke-width="0" stroke="#3FA466" d = " M264 95 L263,96 C263,96 264,95 264,95  Z"/>

<path  fill="#CACCC7" stroke-width="0" stroke="#CACCC7" d = " M251 112 L250,114 C258.818,114 261.76,102.37 268.5,99 273.799,96.3505 280.283,103 285,103 285,103 286,104 286,104 286,104 287,104 287,104 287,104 288,105 288,105 288,105 289,105 289,105 289,105 293,105 293,105 293,102.659 290.658,103.579 289.5,103 285.871,101.186 281.189,97 277,97 273.422,97 271.113,95 267,95 267,95 264,95 264,95 264,95 263,96 263,96 263,97.0479 263.473,99 262,99 262,102.569 255.086,112 251,112  Z"/>

<path  fill="#197D61" stroke-width="0" stroke="#197D61" d = " M323 117 L324,117 C324,110.685 334,106.733 334,101 334,101 334,100 334,100 329.491,100 326.88,95 322,95 322,95 323,116 323,116 323,116 323,117 323,117  Z"/>

<path  fill="#1D9D5A" stroke-width="0" stroke="#1D9D5A" d = " M179 97 C177.026,97 175.483,99 173,99 173,99 179,96 179,96 179,96 179,97 179,97  Z"/>

<path  fill="#3FA466" stroke-width="0" stroke="#3FA466" d = " M261 99 L262,99 C263.473,99 263,97.0479 263,96 263,96 261,97 261,97 261,97 261,99 261,99  Z"/>

<path  fill="#1D9D5A" stroke-width="0" stroke="#1D9D5A" d = " M323 117 L323,118 C315.789,118 301.871,105 293,105 293,102.659 290.658,103.579 289.5,103 285.871,101.186 281.189,97 277,97 277,97 277,96 277,96 286.153,96 314.658,116 323,116 323,116 323,117 323,117  Z"/>

<path  fill="#1D9D5A" stroke-width="0" stroke="#1D9D5A" d = " M163 105 L155,107 C155,105.942 170.416,99 173,99 173,102.287 163,101.933 163,105  Z"/>

<path  fill="#C9C7C9" stroke-width="0" stroke="#C9C7C9" d = " M353 165 L354,165 C354,165 354,163 354,163 354,163 353,162 353,162 353,162 353,159 353,159 353,159 352,158 352,158 352,158 352,156 352,156 352,156 351,154 351,154 351,154 351,153 351,153 349.391,153 347.696,145.891 347,144.5 343.257,137.014 333.514,125.007 325.5,121 316.666,116.583 307.299,113.399 298.5,109 296.932,108.216 289,107.076 289,105 289,105 288,105 288,105 288,105 287,104 287,104 287,104 286,104 286,104 286,104 285,103 285,103 280.283,103 273.799,96.3505 268.5,99 261.76,102.37 258.818,114 250,114 250,114 247,115 247,115 247,117.911 240.248,119 238,119 238,119 235,117 235,117 235,120.002 221,120.106 221,117 221,117 218,119 218,119 214.762,119 212.7,116 210,116 210,116 207,114 207,114 197.55,114 195.751,102.625 188.5,99 182.745,96.1223 176.122,103 171,103 171,103 170,104 170,104 170,104 169,104 169,104 169,104 168,105 168,105 168,105 167,105 167,105 167,106.722 161.765,107.368 160.5,108 154.753,110.874 148.188,112.156 142.5,115 142.5,115 125.5,125 125.5,125 125.5,125 119,131 119,131 119,131 117,133 117,133 117,134.429 115.712,137 114,137 114,137 113,138 113,138 113,139.238 112.577,141 111,141 111,141 110,143 110,143 110,143 109,145 109,145 109,145 108,147 108,147 108,147 107,149 107,149 107,149 106,151 106,151 106,151 106,152 106,152 106,152 105,154 105,154 105,157.982 103,160.704 103,165 105.442,165 106.105,155.289 107,153.5 110.946,145.607 118.063,131.718 127.5,127 134.279,123.611 165.689,110.095 173.5,114 176.422,115.461 180.688,113.594 183.5,115 183.5,115 186,117 186,117 188.365,117 197,120.467 197,123 197,123 198,123 198,123 198,123 200,125 200,125 200,125 202,126 202,126 202,126 203,127 203,127 203,127 206,129 206,129 206,129 207,130 207,130 207,130 207,131 207,131 208.892,131 221,130.751 221,135 221,135 225,136 225,136 225,133.197 231,133.013 231,136 231,136 232,136 232,136 232,136 235,135 235,135 235,131.2 247.272,131 249,131 249,131 250,130 250,130 250,130 251,129 251,129 251,129 252,128 252,128 252,128 253,127 253,127 253,127 254,127 254,127 254,127 255,126 255,126 255,126 256,125 256,125 256,125 258,124 258,124 258,124 259,123 259,123 259,123 260,123 260,123 260,123 261,122 261,122 261,122 262,121 262,121 262,121 263,121 263,121 263,118.782 268.144,117 270,117 273.926,117 286.081,111.791 290.5,114 297.009,117.254 305.962,115.731 312.5,119 325.272,125.386 339.882,133.265 347,147.5 347,147.5 350,157.5 350,157.5 350,157.5 353,165 353,165  Z"/>

<path  fill="#40A465" stroke-width="0" stroke="#40A465" d = " M195 99 C195,104.336 206,107.556 206,113 202.827,113 194,101.684 194,99 194,99 195,99 195,99  Z"/>

<path  fill="#40A465" stroke-width="0" stroke="#40A465" d = " M262 99 C262,102.569 255.086,112 251,112 251,107.965 261,104.211 261,99 261,99 262,99 262,99  Z"/>

<path  fill="#187D61" stroke-width="0" stroke="#187D61" d = " M97 167 L100,167 C100,163.035 107.293,139 111,139 111,137.336 112.823,133 115,133 115,129.991 123.991,121 127,121 127,118.725 130.756,117 133,117 133,117 133,116 133,116 131.976,116 123,101.931 123,101 123,101 122,101 122,101 106.921,101 87,134.687 87,148 87,148 87,149 87,149 103.976,149 97,158.145 97,167  Z"/>

<path  fill="#187D61" stroke-width="0" stroke="#187D61" d = " M357 167 L359,167 C359,157.492 354.371,149 369,149 369,149 369,148 369,148 369,133.471 350.139,101 334,101 334,106.733 324,110.685 324,117 328.002,117 330.124,122.312 333.5,124 344.666,129.583 356,155.071 356,167 356,167 357,167 357,167  Z"/>

<path  fill="#C9C9CA" stroke-width="0" stroke="#C9C9CA" d = " M171 103 L170,104 C170,104 171,103 171,103  Z"/>

<path  fill="#C9C9CA" stroke-width="0" stroke="#C9C9CA" d = " M285 103 L286,104 C286,104 285,103 285,103  Z"/>

<path  fill="#C9C9CA" stroke-width="0" stroke="#C9C9CA" d = " M169 104 L168,105 C168,105 169,104 169,104  Z"/>

<path  fill="#C9C9CA" stroke-width="0" stroke="#C9C9CA" d = " M287 104 L288,105 C288,105 287,104 287,104  Z"/>

<path  fill="#C9C9CA" stroke-width="0" stroke="#C9C9CA" d = " M127 121 C127,124.631 119,126.436 119,131 119,131 125.5,125 125.5,125 125.5,125 142.5,115 142.5,115 148.188,112.156 154.753,110.874 160.5,108 161.765,107.368 167,106.722 167,105 167,105 163,105 163,105 163,105 155,107 155,107 155,109.109 152.465,109 151,109 151,111.341 148.658,110.421 147.5,111 147.5,111 133,118 133,118 133,118 127,121 127,121  Z"/>

<path  fill="#C9C9CA" stroke-width="0" stroke="#C9C9CA" d = " M323 118 C323,118.173 332.065,124.565 333.5,126 340.233,132.733 351,143.616 351,153 349.391,153 347.696,145.891 347,144.5 343.257,137.014 333.514,125.007 325.5,121 316.666,116.583 307.299,113.399 298.5,109 296.932,108.216 289,107.076 289,105 289,105 293,105 293,105 301.871,105 315.789,118 323,118  Z"/>

<path  fill="#1D9D5A" stroke-width="0" stroke="#1D9D5A" d = " M155 107 C153.535,107 151,106.891 151,109 152.465,109 155,109.109 155,107  Z"/>

<path  fill="#1D9D5A" stroke-width="0" stroke="#1D9D5A" d = " M133 117 L133,118 C133,118 147.5,111 147.5,111 148.658,110.421 151,111.341 151,109 144.755,109 139.672,116 134,116 134,116 133,117 133,117  Z"/>

<path  fill="#7ED04B" stroke-width="0" stroke="#7ED04B" d = " M221 117 C221,120.106 235,120.002 235,117 235,117 234,114 234,114 231.953,114 231.832,109 229,109 229,112.746 228.2,109 227,109 227,109 222,115 222,115 222,115 221,117 221,117  Z"/>

<path  fill="#98D5F9" stroke-width="0" stroke="#98D5F9" d = " M124 230 L132,235 C147.682,235 156.388,235.556 169.5,229 174.807,226.347 177.18,209 181,209 181,209 191,197 191,197 191,190.427 192,182.9 192,177 192,175.594 191.286,170 193,170 193,170 194,159 194,159 194,159 195,157 195,157 195,157 195,156 195,156 195,156 195,137.5 195,137.5 193.64,134.78 188,122.38 188,120 188,120 186,117 186,117 186,117 183.5,115 183.5,115 180.688,113.594 176.422,115.461 173.5,114 165.689,110.095 134.279,123.611 127.5,127 118.063,131.718 110.946,145.607 107,153.5 106.105,155.289 105.442,165 103,165 103,165 103,166 103,166 103,166 103,184.5 103,184.5 105.19,188.88 111,208.357 111,213 111,213 111,214 111,214 111,214 112,215 112,215 112,215 112,216 112,216 112,216 113,217 113,217 113,217 113,218 113,218 113,218 115,220 115,220 115,220 115,221 115,221 115,221 119,225 119,225 119,225 124,230 124,230  Z"/>

<path  fill="#98D5F9" stroke-width="0" stroke="#98D5F9" d = " M332 231 L324,235 C311.831,235 299.574,236.037 289.5,231 282.268,227.384 278.735,209 275,209 275,205.322 268.853,203.205 267,199.5 267,199.5 265,196 265,196 265,196 265,178.5 265,178.5 265,177.222 265.665,173 264,173 264,173 264,168 264,168 264,168 263,167 263,167 263,167 263,161 263,161 263,161 262,160 262,160 262,160 262,158 262,158 262,151.509 258.855,141.789 262,135.5 262,135.5 268,120 268,120 269.577,120 270,118.238 270,117 273.926,117 286.081,111.791 290.5,114 297.009,117.254 305.962,115.731 312.5,119 325.272,125.386 339.882,133.265 347,147.5 347,147.5 350,157.5 350,157.5 350,157.5 353,165 353,165 353,165 354,181.5 354,181.5 350.506,188.489 347,200.921 347,209 347,209 347,210 347,210 347,210 346,212 346,212 346,212 345,213 345,213 345,213 345,215 345,215 345,215 344,216 344,216 344,216 344,217 344,217 344,217 343,218 343,218 343,218 343,219 343,219 343,219 342,220 342,220 342,220 341,221 341,221 341,221 340,223 340,223 340,223 339,224 339,224 339,224 338,225 338,225 338,225 337,227 337,227 335.571,227 333,228.288 333,230 333,230 332,231 332,231  Z"/>

<path  fill="#1F9B5A" stroke-width="0" stroke="#1F9B5A" d = " M134 116 L133,117 C133,117 133,116 133,116 133,116 134,116 134,116  Z"/>

<path  fill="#188064" stroke-width="0" stroke="#188064" d = " M133 118 L127,121 C127,118.725 130.756,117 133,117 133,117 133,118 133,118  Z"/>

<path  fill="#AAA8A9" stroke-width="0" stroke="#AAA8A9" d = " M188 120 C190.789,120 193.693,123 197,123 197,120.467 188.365,117 186,117 186,117 188,120 188,120  Z"/>

<path  fill="#AAA8A9" stroke-width="0" stroke="#AAA8A9" d = " M268 120 C268,118.449 264.408,121 263,121 263,118.782 268.144,117 270,117 270,118.238 269.577,120 268,120  Z"/>

<path  fill="#188064" stroke-width="0" stroke="#188064" d = " M355 167 L356,167 C356,155.071 344.666,129.583 333.5,124 330.124,122.312 328.002,117 324,117 324,117 323,117 323,117 323,117 323,118 323,118 323,118.173 332.065,124.565 333.5,126 340.233,132.733 351,143.616 351,153 351,153 351,154 351,154 351,154 352,156 352,156 352,156 352,158 352,158 352,158 353,159 353,159 353,159 353,162 353,162 353,162 354,163 354,163 354,163 354,165 354,165 354,165 355,167 355,167  Z"/>

<path  fill="#A8AAAA" stroke-width="0" stroke="#A8AAAA" d = " M195 156 L196,156 C196,154.407 196.337,149 198,149 198,142.604 207,135.744 207,131 207,131 207,130 207,130 207,130 206,129 206,129 206,129 203,127 203,127 203,127 202,126 202,126 202,126 200,125 200,125 200,125 198,123 198,123 198,123 197,123 197,123 193.693,123 190.789,120 188,120 188,122.38 193.64,134.78 195,137.5 195,137.5 195,156 195,156  Z"/>

<path  fill="#A8AAAA" stroke-width="0" stroke="#A8AAAA" d = " M261 156 L262,158 C262,151.509 258.855,141.789 262,135.5 262,135.5 268,120 268,120 268,118.449 264.408,121 263,121 263,121 262,121 262,121 262,121 261,122 261,122 261,122 260,123 260,123 260,123 259,123 259,123 259,123 258,124 258,124 258,124 256,125 256,125 256,125 255,126 255,126 255,126 254,127 254,127 254,127 253,127 253,127 253,127 252,128 252,128 252,128 251,129 251,129 251,129 250,130 250,130 250,130 250,132 250,132 250,137.6 259,142.833 259,149 259,149 261,156 261,156  Z"/>

<path  fill="#188064" stroke-width="0" stroke="#188064" d = " M115 133 L117,133 C117,131.253 117.253,131 119,131 119,126.436 127,124.631 127,121 123.991,121 115,129.991 115,133  Z"/>

<path  fill="#AAA8A9" stroke-width="0" stroke="#AAA8A9" d = " M262 121 L261,122 C261,122 262,121 262,121  Z"/>

<path  fill="#AAA8A9" stroke-width="0" stroke="#AAA8A9" d = " M261 122 L260,123 C260,123 261,122 261,122  Z"/>

<path  fill="#AAA8A9" stroke-width="0" stroke="#AAA8A9" d = " M198 123 L200,125 C200,125 198,123 198,123  Z"/>

<path  fill="#AAA8A9" stroke-width="0" stroke="#AAA8A9" d = " M259 123 L258,124 C258,124 259,123 259,123  Z"/>

<path  fill="#AAA8A9" stroke-width="0" stroke="#AAA8A9" d = " M256 125 L255,126 C255,126 256,125 256,125  Z"/>

<path  fill="#AAA8A9" stroke-width="0" stroke="#AAA8A9" d = " M202 126 L203,127 C203,127 202,126 202,126  Z"/>

<path  fill="#AAA8A9" stroke-width="0" stroke="#AAA8A9" d = " M255 126 L254,127 C254,127 255,126 255,126  Z"/>

<path  fill="#AAA8A9" stroke-width="0" stroke="#AAA8A9" d = " M253 127 L252,128 C252,128 253,127 253,127  Z"/>

<path  fill="#AAA8A9" stroke-width="0" stroke="#AAA8A9" d = " M252 128 L251,129 C251,129 252,128 252,128  Z"/>

<path  fill="#97D6F9" stroke-width="0" stroke="#97D6F9" d = " M206 129 L207,130 C207,130 206,129 206,129  Z"/>

<path  fill="#AAA8A9" stroke-width="0" stroke="#AAA8A9" d = " M251 129 L250,130 C250,130 251,129 251,129  Z"/>

<path  fill="#90CBEC" stroke-width="0" stroke="#90CBEC" d = " M203 149 L204,149 C204,149 205,148 205,148 205,148 206,147 206,147 206,147 207,147 207,147 207,147 208,146 208,146 208,146 209,145 209,145 209,145 210,145 210,145 210,143.423 211.762,143 213,143 213,143 214,143 214,143 214,141.423 215.762,141 217,141 217,141 219,140 219,140 219,140 220,139 220,139 220,139 221,138 221,138 221,138 221,135 221,135 221,130.751 208.892,131 207,131 207,135.744 198,142.604 198,149 199.744,149 200.967,149 203,149  Z"/>

<path  fill="#90CBEC" stroke-width="0" stroke="#90CBEC" d = " M250 147 C252.187,147 254.169,149 259,149 259,142.833 250,137.6 250,132 250,132 249,131 249,131 247.272,131 235,131.2 235,135 235,140.918 246,141.119 246,145 246,145 247,145 247,145 247,145 248,146 248,146 248,146 250,147 250,147  Z"/>

<path  fill="#97D6F9" stroke-width="0" stroke="#97D6F9" d = " M249 131 L250,132 C250,132 250,130 250,130 250,130 249,131 249,131  Z"/>

<path  fill="#C9C9CA" stroke-width="0" stroke="#C9C9CA" d = " M119 131 C117.253,131 117,131.253 117,133 117,133 119,131 119,131  Z"/>

<path  fill="#188064" stroke-width="0" stroke="#188064" d = " M113 138 L111,139 C111,137.336 112.823,133 115,133 115,133 114,137 114,137 114,137 113,138 113,138  Z"/>

<path  fill="#C9C9CA" stroke-width="0" stroke="#C9C9CA" d = " M117 133 C117,134.429 115.712,137 114,137 114,137 115,133 115,133 115,133 117,133 117,133  Z"/>

<path  fill="#97D6F9" stroke-width="0" stroke="#97D6F9" d = " M225 136 C227.413,136 228.587,136 231,136 231,133.013 225,133.197 225,136  Z"/>

<path  fill="#1A7E62" stroke-width="0" stroke="#1A7E62" d = " M57 175 L52,176 C52,163.446 47.7954,154.909 54,142.5 54.5865,141.327 54.6193,135 56,135 57.2404,135 57.5759,137 60,137 60,141.624 58.0841,151.332 56,155.5 53.5589,160.382 57,170.378 57,175  Z"/>

<path  fill="#97D6F9" stroke-width="0" stroke="#97D6F9" d = " M225 136 L221,138 C221,138 221,135 221,135 221,135 225,136 225,136  Z"/>

<path  fill="#97D6F9" stroke-width="0" stroke="#97D6F9" d = " M232 136 C232,138.25 243.787,145 246,145 246,141.119 235,140.918 235,135 235,135 232,136 232,136  Z"/>

<path  fill="#1A7E62" stroke-width="0" stroke="#1A7E62" d = " M400 175 C400,176.579 402.855,176 404,176 405.076,176 406,166.488 406,165 406,153.121 401,144.333 401,135 401,135 397,137 397,137 397,143.207 398.346,152.193 401,157.5 401,157.5 400,175 400,175  Z"/>

<path  fill="#90CAED" stroke-width="0" stroke="#90CAED" d = " M236 200 L236,201 C236.224,201 240.314,193.186 241.5,192 241.5,192 260.5,174 260.5,174 260.5,174 264,176 264,176 264,176 264,173 264,173 264,173 264,168 264,168 264,168 263,167 263,167 263,167 263,161 263,161 263,161 262,160 262,160 262,160 262,158 262,158 262,158 261,156 261,156 261,156 250,147 250,147 250,147 248,146 248,146 248,146 247,145 247,145 247,145 246,145 246,145 243.787,145 232,138.25 232,136 232,136 231,136 231,136 228.587,136 227.413,136 225,136 225,136 221,138 221,138 221,138 220,139 220,139 220,139 219,140 219,140 219,140 217,141 217,141 217,142.577 215.238,143 214,143 214,143 213,143 213,143 213,144.577 211.238,145 210,145 210,145 209,145 209,145 209,145 208,146 208,146 208,146 207,147 207,147 207,147 206,147 206,147 206,147 205,148 205,148 205,148 204,149 204,149 204,149 203,149 203,149 203,150.167 197.766,156 196,156 196,156 195,157 195,157 195,157 194,159 194,159 194,159 193,170 193,170 193,170 193,175 193,175 195.385,175 195.798,173.649 198.5,175 200.079,175.79 220,197.441 220,200 220,200 221,200 221,200 221,188.181 225,177.71 225,166 225,166 226,165 226,165 226,165 226,164 226,164 226,160.56 226.517,155.466 228,152.5 228,152.5 228.5,150 228.5,150 228.5,150 229,156.5 229,156.5 229,156.5 231,165 231,165 231,176.189 235,186.433 235,198 235,198 236,200 236,200  Z"/>

<path  fill="#1B8063" stroke-width="0" stroke="#1B8063" d = " M57 175 L58,175 C61.4889,175 63.3197,173 67,173 67,161.617 69,151.799 69,141 65.3187,141 63.2417,137 60,137 60,141.624 58.0841,151.332 56,155.5 53.5589,160.382 57,170.378 57,175  Z"/>

<path  fill="#C9C9CA" stroke-width="0" stroke="#C9C9CA" d = " M114 137 L113,138 C113,138 114,137 114,137  Z"/>

<path  fill="#1B8063" stroke-width="0" stroke="#1B8063" d = " M399 175 L400,175 C400,175 401,157.5 401,157.5 398.346,152.193 397,143.207 397,137 397,137 396,137 396,137 393.241,137 390.205,141 387,141 387,141 387,142 387,142 387,152.096 390,162.188 390,173 390,173 398,175 398,175 398,175 399,175 399,175  Z"/>

<path  fill="#C9C9CA" stroke-width="0" stroke="#C9C9CA" d = " M111 139 L111,141 C112.577,141 113,139.238 113,138 113,138 111,139 111,139  Z"/>

<path  fill="#97D6F9" stroke-width="0" stroke="#97D6F9" d = " M221 138 L220,139 C220,139 221,138 221,138  Z"/>

<path  fill="#188064" stroke-width="0" stroke="#188064" d = " M100 167 L102,167 C102,167 103,166 103,166 103,166 103,165 103,165 103,160.704 105,157.982 105,154 105,154 106,152 106,152 106,152 106,151 106,151 106,151 107,149 107,149 107,149 108,147 108,147 108,147 109,145 109,145 109,145 110,143 110,143 110,143 111,141 111,141 111,141 111,139 111,139 107.293,139 100,163.035 100,167  Z"/>

<path  fill="#97D6F9" stroke-width="0" stroke="#97D6F9" d = " M220 139 L219,140 C219,140 220,139 220,139  Z"/>

<path  fill="#97D6F9" stroke-width="0" stroke="#97D6F9" d = " M219 140 L217,141 C217,141 219,140 219,140  Z"/>

<path  fill="#187C63" stroke-width="0" stroke="#187C63" d = " M67 173 L71,173 C71,173 71,172 71,172 71,162.334 75,153.206 75,144 75,144 70,141 70,141 70,141 69,141 69,141 69,151.799 67,161.617 67,173  Z"/>

<path  fill="#C9C9CA" stroke-width="0" stroke="#C9C9CA" d = " M111 141 L110,143 C110,143 111,141 111,141  Z"/>

<path  fill="#97D6F9" stroke-width="0" stroke="#97D6F9" d = " M217 141 C215.762,141 214,141.423 214,143 215.238,143 217,142.577 217,141  Z"/>

<path  fill="#187C63" stroke-width="0" stroke="#187C63" d = " M385 172 L390,173 C390,162.188 387,152.096 387,142 387,142 381,144 381,144 381,144 381,145 381,145 381,145 383,149.5 383,149.5 384.946,153.392 385,166.967 385,172  Z"/>

<path  fill="#C9C9CA" stroke-width="0" stroke="#C9C9CA" d = " M110 143 L109,145 C109,145 110,143 110,143  Z"/>

<path  fill="#97D6F9" stroke-width="0" stroke="#97D6F9" d = " M213 143 C211.762,143 210,143.423 210,145 211.238,145 213,144.577 213,143  Z"/>

<path  fill="#1C8063" stroke-width="0" stroke="#1C8063" d = " M85 170 L71,172 C71,162.334 75,153.206 75,144 75,144 76,144 76,144 76,145.068 85.3445,148 87,148 87,148 87,149 87,149 87,155.671 85,162.505 85,170  Z"/>

<path  fill="#C9C9CA" stroke-width="0" stroke="#C9C9CA" d = " M109 145 L108,147 C108,147 109,145 109,145  Z"/>

<path  fill="#97D6F9" stroke-width="0" stroke="#97D6F9" d = " M209 145 L208,146 C208,146 209,145 209,145  Z"/>

<path  fill="#97D6F9" stroke-width="0" stroke="#97D6F9" d = " M247 145 L248,146 C248,146 247,145 247,145  Z"/>

<path  fill="#1C8063" stroke-width="0" stroke="#1C8063" d = " M371 170 L385,172 C385,166.967 384.946,153.392 383,149.5 383,149.5 381,145 381,145 376.312,145 373.56,148 369,148 369,148 369,149 369,149 371.064,149 369.426,152.353 370,153.5 372.149,157.797 371,164.92 371,170  Z"/>

<path  fill="#97D6F9" stroke-width="0" stroke="#97D6F9" d = " M208 146 L207,147 C207,147 208,146 208,146  Z"/>

<path  fill="#C9C9CA" stroke-width="0" stroke="#C9C9CA" d = " M108 147 L107,149 C107,149 108,147 108,147  Z"/>

<path  fill="#97D6F9" stroke-width="0" stroke="#97D6F9" d = " M206 147 L205,148 C205,148 206,147 206,147  Z"/>

<path  fill="#97D6F9" stroke-width="0" stroke="#97D6F9" d = " M259 149 L261,156 C261,156 250,147 250,147 252.187,147 254.169,149 259,149  Z"/>

<path  fill="#97D6F9" stroke-width="0" stroke="#97D6F9" d = " M205 148 L204,149 C204,149 205,148 205,148  Z"/>

<path  fill="#197D63" stroke-width="0" stroke="#197D63" d = " M97 167 C97,168.603 86.6293,170 85,170 85,162.505 87,155.671 87,149 103.976,149 97,158.145 97,167  Z"/>

<path  fill="#C9C9CA" stroke-width="0" stroke="#C9C9CA" d = " M107 149 L106,151 C106,151 107,149 107,149  Z"/>

<path  fill="#97D6F9" stroke-width="0" stroke="#97D6F9" d = " M203 149 C203,150.167 197.766,156 196,156 196,154.407 196.337,149 198,149 199.744,149 200.967,149 203,149  Z"/>

<path  fill="#197D63" stroke-width="0" stroke="#197D63" d = " M359 167 C359,167.892 369.544,170 371,170 371,164.92 372.149,157.797 370,153.5 369.426,152.353 371.064,149 369,149 354.371,149 359,157.492 359,167  Z"/>

<path  fill="#97D6F9" stroke-width="0" stroke="#97D6F9" d = " M226 164 L228.5,161 L231,165 C231,165 229,156.5 229,156.5 229,156.5 228.5,150 228.5,150 228.5,150 228,152.5 228,152.5 226.517,155.466 226,160.56 226,164  Z"/>

<path  fill="#C9C9CA" stroke-width="0" stroke="#C9C9CA" d = " M106 152 L105,154 C105,154 106,152 106,152  Z"/>

<path  fill="#C9C9CA" stroke-width="0" stroke="#C9C9CA" d = " M351 154 L352,156 C352,156 351,154 351,154  Z"/>

<path  fill="#97D6F9" stroke-width="0" stroke="#97D6F9" d = " M196 156 L195,157 C195,157 195,156 195,156 195,156 196,156 196,156  Z"/>

<path  fill="#A8AAAA" stroke-width="0" stroke="#A8AAAA" d = " M195 157 L194,159 C194,159 195,157 195,157  Z"/>

<path  fill="#C9C9CA" stroke-width="0" stroke="#C9C9CA" d = " M352 158 L353,159 C353,159 352,158 352,158  Z"/>

<path  fill="#A8AAAA" stroke-width="0" stroke="#A8AAAA" d = " M262 160 L263,161 C263,161 262,160 262,160  Z"/>

<path  fill="#96A7D3" stroke-width="0" stroke="#96A7D3" d = " M225 244 C226.639,244 227.455,242 228.5,242 229.13,242 229.188,244 231,244 231,244 235,239 235,239 235,229.589 236,219.03 236,209 236,209 236,201 236,201 236,201 236,200 236,200 236,200 235,198 235,198 235,186.433 231,176.189 231,165 231,165 228.5,161 228.5,161 228.5,161 226,164 226,164 226,164 226,165 226,165 226,165 225,166 225,166 225,177.71 221,188.181 221,200 221,200 221,203 221,203 221,203 221,208 221,208 221,213.706 217.113,225.727 220,231.5 220.901,233.302 222,238.094 222,240 222,240 225,244 225,244  Z"/>

<path  fill="#C9C9CA" stroke-width="0" stroke="#C9C9CA" d = " M353 162 L354,163 C354,163 353,162 353,162  Z"/>

<path  fill="#97D6F9" stroke-width="0" stroke="#97D6F9" d = " M226 165 L225,166 C225,166 226,165 226,165  Z"/>

<path  fill="#C8CBCC" stroke-width="0" stroke="#C8CBCC" d = " M347 209 L348,209 C348,209 349,207 349,207 349,205.377 349.005,201 351,201 351,201 351,200 351,200 351,198.226 350.727,193 353,193 353,193 353,190 353,190 353,190 355,182 355,182 355,182 355,167 355,167 355,167 354,165 354,165 354,165 353,165 353,165 353,165 354,181.5 354,181.5 350.506,188.489 347,200.921 347,209  Z"/>

<path  fill="#C8CBCC" stroke-width="0" stroke="#C8CBCC" d = " M109 210 L111,213 C111,208.357 105.19,188.88 103,184.5 103,184.5 103,166 103,166 103,166 102,167 102,167 102,167 102,182 102,182 102,182 103,190 103,190 103,193.209 106,197.198 106,201 106,202.564 107,204.876 107,207 107,207 109,210 109,210  Z"/>

<path  fill="#009B74" stroke-width="0" stroke="#009B74" d = " M100 183 C94.7492,183 90.5777,189 86,189 86,183.174 85,176.417 85,170 86.6293,170 97,168.603 97,167 97,167 100,167 100,167 100,172.356 100,177.35 100,183  Z"/>

<path  fill="#019C74" stroke-width="0" stroke="#019C74" d = " M100 183 L101,183 C101,183 102,182 102,182 102,182 102,167 102,167 102,167 100,167 100,167 100,172.356 100,177.35 100,183  Z"/>

<path  fill="#A8AAAA" stroke-width="0" stroke="#A8AAAA" d = " M263 167 L264,168 C264,168 263,167 263,167  Z"/>

<path  fill="#019C74" stroke-width="0" stroke="#019C74" d = " M355 182 L356,182 C356,177.365 357,172.172 357,167 357,167 356,167 356,167 356,167 355,167 355,167 355,167 355,182 355,182  Z"/>

<path  fill="#009B74" stroke-width="0" stroke="#009B74" d = " M371 188 L370,189 C365.624,189 361.125,183 356,183 356,183 356,182 356,182 356,177.365 357,172.172 357,167 357,167 359,167 359,167 359,167.892 369.544,170 371,170 371,170 371,188 371,188  Z"/>

<path  fill="#019C75" stroke-width="0" stroke="#019C75" d = " M73 193 L75,193 C75,190.236 83.7606,189 86,189 86,183.174 85,176.417 85,170 85,170 71,172 71,172 71,172 71,173 71,173 71,173 71,187.5 71,187.5 71,187.5 73,193 73,193  Z"/>

<path  fill="#A8AAAA" stroke-width="0" stroke="#A8AAAA" d = " M194 195 C193.524,195 191,199.605 191,197 191,190.427 192,182.9 192,177 192,175.594 191.286,170 193,170 193,170 193,175 193,175 193,181.573 194,189.1 194,195  Z"/>

<path  fill="#019C75" stroke-width="0" stroke="#019C75" d = " M383 193 L384,193 C384,186.681 385,178.967 385,172 385,172 371,170 371,170 371,170 371,188 371,188 373.258,188 381,190.922 381,193 381,193 383,193 383,193  Z"/>

<path  fill="#009C74" stroke-width="0" stroke="#009C74" d = " M384 193 L385,194 C385,189.497 390,179.499 390,173 390,173 385,172 385,172 385,178.967 384,186.681 384,193  Z"/>

<path  fill="#009B75" stroke-width="0" stroke="#009B75" d = " M62 196 L63,196 C63,196 71,194 71,194 71,187.145 67,180.826 67,173 63.3197,173 61.4889,175 58,175 58,175 57,177 57,177 57,177 62,196 62,196  Z"/>

<path  fill="#009C74" stroke-width="0" stroke="#009C74" d = " M71 194 L73,194 C73,194 73,193 73,193 73,193 71,187.5 71,187.5 71,187.5 71,173 71,173 71,173 67,173 67,173 67,180.826 71,187.145 71,194  Z"/>

<path  fill="#A8AAAA" stroke-width="0" stroke="#A8AAAA" d = " M263 196 C263,197.919 265,198.488 265,196 265,196 265,178.5 265,178.5 265,177.222 265.665,173 264,173 264,173 264,176 264,176 264,176 263,196 263,196  Z"/>

<path  fill="#009B75" stroke-width="0" stroke="#009B75" d = " M385 194 L394,196 C394,189.694 399,183.752 399,177 399,177 399,176 399,176 399,176 398,175 398,175 398,175 390,173 390,173 390,179.499 385,189.497 385,194  Z"/>

<path  fill="#8FCBED" stroke-width="0" stroke="#8FCBED" d = " M221 203 L221,208 C218.075,208 217.604,213.552 212.5,211 212.5,211 200,201 200,201 200,201 199,201 199,201 199,198.428 194,198.506 194,195 194,189.1 193,181.573 193,175 195.385,175 195.798,173.649 198.5,175 200.079,175.79 220,197.441 220,200 220,201.048 219.527,203 221,203  Z"/>

<path  fill="#8FCBED" stroke-width="0" stroke="#8FCBED" d = " M257 201 C252.193,201 247.7,208.9 243.5,211 239.138,213.181 238.479,209 236,209 236,209 236,201 236,201 236.224,201 240.314,193.186 241.5,192 241.5,192 260.5,174 260.5,174 260.5,174 264,176 264,176 264,176 263,196 263,196 263,196 257,201 257,201  Z"/>

<path  fill="#12AD83" stroke-width="0" stroke="#12AD83" d = " M57 177 L53,178 C53,178 52,176 52,176 52,176 57,175 57,175 57,175 57,177 57,177  Z"/>

<path  fill="#12AC83" stroke-width="0" stroke="#12AC83" d = " M58 175 L57,177 C57,177 57,175 57,175 57,175 58,175 58,175  Z"/>

<path  fill="#12AC83" stroke-width="0" stroke="#12AC83" d = " M399 175 L399,176 C399,176 398,175 398,175 398,175 399,175 399,175  Z"/>

<path  fill="#12AD83" stroke-width="0" stroke="#12AD83" d = " M399 177 L404,178 C404,178 404,176 404,176 402.855,176 400,176.579 400,175 400,175 399,175 399,175 399,175 399,176 399,176 399,176 399,177 399,177  Z"/>

<path  fill="#009C75" stroke-width="0" stroke="#009C75" d = " M62 196 C62,197.473 60.0479,197 59,197 57.4102,197 57.557,192.614 57,191.5 55.1732,187.846 53,182.25 53,178 53,178 57,177 57,177 57,177 62,196 62,196  Z"/>

<path  fill="#009C75" stroke-width="0" stroke="#009C75" d = " M394 197 C395.048,197 397,196.527 397,198 398.59,198 398.443,193.614 399,192.5 399,192.5 404,178 404,178 404,178 399,177 399,177 399,183.752 394,189.694 394,196 394,196 394,197 394,197  Z"/>

<path  fill="#1F9766" stroke-width="0" stroke="#1F9766" d = " M101 183 C101,184.851 100.133,190 103,190 103,190 102,182 102,182 102,182 101,183 101,183  Z"/>

<path  fill="#1F9766" stroke-width="0" stroke="#1F9766" d = " M353 190 L355,190 C355,190 355,189 355,189 355,189 356,183 356,183 356,183 356,182 356,182 356,182 355,182 355,182 355,182 353,190 353,190  Z"/>

<path  fill="#209666" stroke-width="0" stroke="#209666" d = " M96 204 L91,205 C91,199.692 86,194.725 86,189 90.5777,189 94.7492,183 100,183 100,183 101,183 101,183 101,184.851 100.133,190 103,190 103,193.209 106,197.198 106,201 106,201 105,201 105,201 105,195.287 99.9292,182.642 95,192.5 93.3842,195.732 96,201.176 96,204  Z"/>

<path  fill="#209666" stroke-width="0" stroke="#209666" d = " M361 204 L365,205 C365,199.913 370,194.982 370,189 365.624,189 361.125,183 356,183 356,183 355,189 355,189 363.747,189 361,197.159 361,204  Z"/>

<path  fill="#8ADA86" stroke-width="0" stroke="#8ADA86" d = " M96 204 C96,207.906 99.9895,208 103,208 103,206.165 105,203.765 105,201 105,195.287 99.9292,182.642 95,192.5 93.3842,195.732 96,201.176 96,204  Z"/>

<path  fill="#8ADA86" stroke-width="0" stroke="#8ADA86" d = " M351 201 C351,204.133 352.905,210.297 357.5,208 L361,204 C361,197.159 363.747,189 355,189 355,189 355,190 355,190 355,190 353,193 353,193 353,194.593 352.663,200 351,200 351,200 351,201 351,201  Z"/>

<path  fill="#209665" stroke-width="0" stroke="#209665" d = " M378 205 L377,206 C373.688,206 368.962,205 365,205 365,199.913 370,194.982 370,189 370,189 371,188 371,188 373.258,188 381,190.922 381,193 381,193 379,203 379,203 379,203 378,205 378,205  Z"/>

<path  fill="#209665" stroke-width="0" stroke="#209665" d = " M91 205 C89.3426,205 81,204.237 81,206 78.2594,206 75,195.71 75,193 75,190.236 83.7606,189 86,189 86,194.725 91,199.692 91,205  Z"/>

<path  fill="#209666" stroke-width="0" stroke="#209666" d = " M355 190 L353,193 C353,193 353,190 353,190 353,190 355,190 355,190  Z"/>

<path  fill="#219864" stroke-width="0" stroke="#219864" d = " M81 206 L80,207 C77.6067,207 73,195.908 73,194 73,194 73,193 73,193 73,193 75,193 75,193 75,195.71 78.2594,206 81,206  Z"/>

<path  fill="#209666" stroke-width="0" stroke="#209666" d = " M353 193 C350.727,193 351,198.226 351,200 352.663,200 353,194.593 353,193  Z"/>

<path  fill="#219864" stroke-width="0" stroke="#219864" d = " M383 193 C383,194.761 380.693,203 379,203 379,203 381,193 381,193 381,193 383,193 383,193  Z"/>

<path  fill="#209865" stroke-width="0" stroke="#209865" d = " M373 215 C373,216.373 381.535,218 383,218 383.747,218 390.989,203.522 392,201.5 392.465,200.57 392.817,197 394,197 394,197 394,196 394,196 394,196 385,194 385,194 385,194 384,193 384,193 384,193 383,193 383,193 383,194.761 380.693,203 379,203 379,203 378,205 378,205 378,205 377,206 377,206 377,206 377,207 377,207 377,207 376,208 376,208 376,208 376,209 376,209 376,209 375,210 375,210 375,210 373,215 373,215  Z"/>

<path  fill="#209865" stroke-width="0" stroke="#209865" d = " M83 215 C83,216.516 74.6431,218 73,218 73,212.071 63,203.565 63,196 63,196 71,194 71,194 71,194 73,194 73,194 73,195.908 77.6067,207 80,207 80,207 81,209 81,209 81,211.72 83,212.553 83,215  Z"/>

<path  fill="#97D6F9" stroke-width="0" stroke="#97D6F9" d = " M181 209 C182.747,209 183,209.253 183,211 185.232,211 187.029,208 190,208 190,198.951 191.758,201 199,201 199,198.428 194,198.506 194,195 193.524,195 191,199.605 191,197 191,197 181,209 181,209  Z"/>

<path  fill="#219765" stroke-width="0" stroke="#219765" d = " M73 218 C73,218.672 68.6706,220 68,220 66.8174,220 66.4649,216.43 66,215.5 63.3315,210.163 59,203.242 59,197 60.0479,197 62,197.473 62,196 62,196 63,196 63,196 63,203.565 73,212.071 73,218  Z"/>

<path  fill="#97D6F9" stroke-width="0" stroke="#97D6F9" d = " M275 209 C273.253,209 273,209.253 273,211 270.768,211 268.971,208 266,208 266,198.679 264.868,201 257,201 257,201 263,196 263,196 263,197.919 265,198.488 265,196 265,196 267,199.5 267,199.5 268.853,203.205 275,205.322 275,209  Z"/>

<path  fill="#219765" stroke-width="0" stroke="#219765" d = " M383 218 C383,218.913 388.014,220 389,220 389,213.994 397,205.474 397,198 397,196.527 395.048,197 394,197 392.817,197 392.465,200.57 392,201.5 390.989,203.522 383.747,218 383,218  Z"/>

<path  fill="#97D6F9" stroke-width="0" stroke="#97D6F9" d = " M235 198 L236,200 C236,200 235,198 235,198  Z"/>

<path  fill="#B3C0DE" stroke-width="0" stroke="#B3C0DE" d = " M187 223 C187,237.927 199.017,224 203,224 203,224 205,213.5 205,213.5 203.771,211.042 204.206,207.913 203,205.5 203,205.5 200,201 200,201 200,201 199,201 199,201 191.758,201 190,198.951 190,208 196.3,208 194.364,223 187,223  Z"/>

<path  fill="#97D6F9" stroke-width="0" stroke="#97D6F9" d = " M221 200 L221,203 C219.527,203 220,201.048 220,200 220,200 221,200 221,200  Z"/>

<path  fill="#B3C0DE" stroke-width="0" stroke="#B3C0DE" d = " M253 223 C255.101,223 269,238.739 269,223 262.423,223 260.289,208 266,208 266,198.679 264.868,201 257,201 257,201 253,206.5 253,206.5 250.488,211.524 253,217.95 253,223  Z"/>

<path  fill="#1F9866" stroke-width="0" stroke="#1F9866" d = " M107 207 L103,208 C103,206.165 105,203.765 105,201 105,201 106,201 106,201 106,202.564 107,204.876 107,207  Z"/>

<path  fill="#97D6F9" stroke-width="0" stroke="#97D6F9" d = " M220 239 L222,240 C222,238.094 220.901,233.302 220,231.5 217.113,225.727 221,213.706 221,208 218.075,208 217.604,213.552 212.5,211 212.5,211 200,201 200,201 200,201 203,205.5 203,205.5 204.206,207.913 203.771,211.042 205,213.5 205,213.5 203,224 203,224 203,229.524 210.046,234.773 214.5,237 215.43,237.465 219,237.817 219,239 219,239 220,239 220,239  Z"/>

<path  fill="#97D6F9" stroke-width="0" stroke="#97D6F9" d = " M237 239 L238,239 C238,239 245.5,235 245.5,235 249.929,232.785 253,228.275 253,223 253,217.95 250.488,211.524 253,206.5 253,206.5 257,201 257,201 252.193,201 247.7,208.9 243.5,211 239.138,213.181 238.479,209 236,209 236,219.03 235,229.589 235,239 235,239 237,239 237,239  Z"/>

<path  fill="#1F9866" stroke-width="0" stroke="#1F9866" d = " M354 209 C356.86,209 359.58,212 363,212 363,212 365,205 365,205 365,205 361,204 361,204 361,204 357.5,208 357.5,208 352.905,210.297 351,204.133 351,201 349.005,201 349,205.377 349,207 350.465,207 353,206.891 353,209 353,209 354,209 354,209  Z"/>

<path  fill="#219864" stroke-width="0" stroke="#219864" d = " M379 203 L378,205 C378,205 379,203 379,203  Z"/>

<path  fill="#1F9866" stroke-width="0" stroke="#1F9866" d = " M101 210 L94,212 C94,212 91,205 91,205 91,205 96,204 96,204 96,207.906 99.9895,208 103,208 103,208 103,209 103,209 103,209 102,209 102,209 102,209 101,210 101,210  Z"/>

<path  fill="#1F9865" stroke-width="0" stroke="#1F9865" d = " M90 214 L85,215 C85,213.822 82.4278,209 81,209 81,209 80,207 80,207 80,207 81,206 81,206 81,204.237 89.3426,205 91,205 91,205 94,212 94,212 94,212 90,214 90,214  Z"/>

<path  fill="#1F9865" stroke-width="0" stroke="#1F9865" d = " M367 214 L371,215 C371,215 375,210 375,210 375,210 376,209 376,209 376,209 376,208 376,208 376,208 377,207 377,207 377,207 377,206 377,206 373.688,206 368.962,205 365,205 365,205 363,212 363,212 363,212 367,214 367,214  Z"/>

<path  fill="#219864" stroke-width="0" stroke="#219864" d = " M378 205 L377,206 C377,206 378,205 378,205  Z"/>

<path  fill="#8AD987" stroke-width="0" stroke="#8AD987" d = " M103 209 C105.124,209 107.436,210 109,210 109,210 107,207 107,207 107,207 103,208 103,208 103,208 103,209 103,209  Z"/>

<path  fill="#8AD987" stroke-width="0" stroke="#8AD987" d = " M348 209 L353,209 C353,206.891 350.465,207 349,207 349,207 348,209 348,209  Z"/>

<path  fill="#219864" stroke-width="0" stroke="#219864" d = " M377 207 L376,208 C376,208 377,207 377,207  Z"/>

<path  fill="#CBCBC7" stroke-width="0" stroke="#CBCBC7" d = " M184 223 L187,223 C194.364,223 196.3,208 190,208 187.029,208 185.232,211 183,211 183,212.641 177.438,223 184,223  Z"/>

<path  fill="#CBCBC7" stroke-width="0" stroke="#CBCBC7" d = " M269 223 L272,223 C279.918,223 273,213.305 273,211 270.768,211 268.971,208 266,208 260.289,208 262.423,223 269,223  Z"/>

<path  fill="#219764" stroke-width="0" stroke="#219764" d = " M83 215 L85,215 C85,213.822 82.4278,209 81,209 81,211.72 83,212.553 83,215  Z"/>

<path  fill="#99D2BD" stroke-width="0" stroke="#99D2BD" d = " M102 209 L101,210 C101,210 102,209 102,209  Z"/>

<path  fill="#A0EE9C" stroke-width="0" stroke="#A0EE9C" d = " M114 231 L117,231 C120.893,231 118,226.146 118,225 118,225 115,221 115,221 115,221 115,220 115,220 115,220 113,218 113,218 113,218 113,217 113,217 113,217 112,216 112,216 112,216 112,215 112,215 112,215 111,214 111,214 111,214 111,213 111,213 111,213 109,210 109,210 107.436,210 105.124,209 103,209 103,209 102,209 102,209 102,209 101,210 101,210 101,210.17 99,217.269 99,221 99,221 99,222 99,222 99,222 102,225 102,225 102,225 104,226 104,226 104,226 105,227 105,227 105,227 106,227 106,227 106,227 109,229 109,229 109,229 110,229 110,229 111.238,229 113,229.423 113,231 113,231 114,231 114,231  Z"/>

<path  fill="#80CDF8" stroke-width="0" stroke="#80CDF8" d = " M187 241 C187,249.599 160.92,263 153.5,263 149.875,263 137,259.36 137,255 137,250.804 130,243.102 130,238 130,238 132,235 132,235 147.682,235 156.388,235.556 169.5,229 174.807,226.347 177.18,209 181,209 182.747,209 183,209.253 183,211 183,212.641 177.438,223 184,223 184,228.887 187,234.415 187,241  Z"/>

<path  fill="#80CDF8" stroke-width="0" stroke="#80CDF8" d = " M269 241 L275,248.5 C280.669,254.169 286.877,257.689 293.5,261 298.807,263.653 307.339,263.58 312.5,261 L320,255 C320,249.36 326,243.948 326,238 326,238 324,235 324,235 311.831,235 299.574,236.037 289.5,231 282.268,227.384 278.735,209 275,209 273.253,209 273,209.253 273,211 273,213.305 279.918,223 272,223 272,223 269,241 269,241  Z"/>

<path  fill="#8AD987" stroke-width="0" stroke="#8AD987" d = " M348 209 L347,210 C347,210 347,209 347,209 347,209 348,209 348,209  Z"/>

<path  fill="#A0EE9C" stroke-width="0" stroke="#A0EE9C" d = " M339 231 L343,231 C343,231 345,230 345,230 345,230 347,229 347,229 347,229 349,228 349,228 349,228 351,227 351,227 351,227 352,227 352,227 352,227 353,226 353,226 353,226 354,225 354,225 354,225 355,224 355,224 355,224 356,223 356,223 356,223 357,222 357,222 357,222 358,214.5 358,214.5 357.31,213.12 354,210.011 354,209 354,209 353,209 353,209 353,209 348,209 348,209 348,209 347,210 347,210 347,210 346,212 346,212 346,212 345,213 345,213 345,213 345,215 345,215 345,215 344,216 344,216 344,216 344,217 344,217 344,217 343,218 343,218 343,218 343,219 343,219 343,219 342,220 342,220 342,220 341,221 341,221 341,221 340,223 340,223 340,223 339,224 339,224 339,224 338,225 338,225 338,225 337,227 337,227 337,228.465 336.891,231 339,231  Z"/>

<path  fill="#99D2BD" stroke-width="0" stroke="#99D2BD" d = " M367 214 C360.666,214 359.063,222 357,222 357,222 358,214.5 358,214.5 357.31,213.12 354,210.011 354,209 356.86,209 359.58,212 363,212 363,212 367,214 367,214  Z"/>

<path  fill="#219764" stroke-width="0" stroke="#219764" d = " M376 209 L375,210 C375,210 376,209 376,209  Z"/>

<path  fill="#99D2BD" stroke-width="0" stroke="#99D2BD" d = " M90 214 C94.3839,214 96.1908,221 99,221 99,217.269 101,210.17 101,210 101,210 94,212 94,212 94,212 90,214 90,214  Z"/>

<path  fill="#C8CBCC" stroke-width="0" stroke="#C8CBCC" d = " M347 210 L346,212 C346,212 347,210 347,210  Z"/>

<path  fill="#219764" stroke-width="0" stroke="#219764" d = " M371 215 L373,215 C373,215 375,210 375,210 375,210 371,215 371,215  Z"/>

<path  fill="#C8CBCC" stroke-width="0" stroke="#C8CBCC" d = " M346 212 L345,213 C345,213 346,212 346,212  Z"/>

<path  fill="#6ACAB9" stroke-width="0" stroke="#6ACAB9" d = " M118 263 L121,264 C121,264 127,260 127,260 127,253.189 133.184,251.867 128,241.5 126.149,237.797 120.637,234.569 117.5,233 117.5,233 114,231 114,231 114,231 113,231 113,231 111.762,231 110,230.577 110,229 110,229 109,229 109,229 107.762,229 106,228.577 106,227 106,227 105,227 105,227 105,227 104,226 104,226 104,226 102,225 102,225 102,225 99,222 99,222 99,222 99,221 99,221 96.1908,221 94.3839,214 90,214 90,214 85,215 85,215 85,215 83,215 83,215 83,216.516 74.6431,218 73,218 73,218.672 68.6706,220 68,220 68,227.89 80.493,240.993 86.5,247 86.5,247 95,254 95,254 99.5611,254 118,257.435 118,263  Z"/>

<path  fill="#C8CBCC" stroke-width="0" stroke="#C8CBCC" d = " M111 214 L112,215 C112,215 111,214 111,214  Z"/>

<path  fill="#6ACAB9" stroke-width="0" stroke="#6ACAB9" d = " M336 264 L338,264 C338,257.085 351.318,256.091 355.5,254 356.573,253.464 361,253.749 361,255 361,255 367.5,249 367.5,249 371.893,246.803 389,227.091 389,220 388.014,220 383,218.913 383,218 381.535,218 373,216.373 373,215 373,215 371,215 371,215 371,215 367,214 367,214 360.666,214 359.063,222 357,222 357,222 356,223 356,223 356,223 355,224 355,224 355,224 354,225 354,225 354,225 353,226 353,226 353,226 352,227 352,227 352,227 351,227 351,227 351,227 349,228 349,228 349,228 347,229 347,229 347,229 345,230 345,230 345,230 343,231 343,231 343,232.845 339.619,232.441 338.5,233 334.54,234.98 329.065,239.37 327,243.5 323.135,251.23 330,255.014 330,260 330,260 336,264 336,264  Z"/>

<path  fill="#C8CBCC" stroke-width="0" stroke="#C8CBCC" d = " M345 215 L344,216 C344,216 345,215 345,215  Z"/>

<path  fill="#C8CBCC" stroke-width="0" stroke="#C8CBCC" d = " M112 216 L113,217 C113,217 112,216 112,216  Z"/>

<path  fill="#C8CBCC" stroke-width="0" stroke="#C8CBCC" d = " M344 217 L343,218 C343,218 344,217 344,217  Z"/>

<path  fill="#C8CBCC" stroke-width="0" stroke="#C8CBCC" d = " M113 218 L115,220 C115,220 113,218 113,218  Z"/>

<path  fill="#C8CBCC" stroke-width="0" stroke="#C8CBCC" d = " M343 219 L342,220 C342,220 343,219 343,219  Z"/>

<path  fill="#C8CBCC" stroke-width="0" stroke="#C8CBCC" d = " M342 220 L341,221 C341,221 342,220 342,220  Z"/>

<path  fill="#C8CBCC" stroke-width="0" stroke="#C8CBCC" d = " M118 225 L119,225 C119,225 115,221 115,221 115,221 118,225 118,225  Z"/>

<path  fill="#C8CBCC" stroke-width="0" stroke="#C8CBCC" d = " M341 221 L340,223 C340,223 341,221 341,221  Z"/>

<path  fill="#99D2BD" stroke-width="0" stroke="#99D2BD" d = " M99 222 L102,225 C102,225 99,222 99,222  Z"/>

<path  fill="#E64438" stroke-width="0" stroke="#E64438" d = " M202 248 C204.96,248 206,250.399 206,253 207.087,253 212.694,239 219,239 219,237.817 215.43,237.465 214.5,237 210.046,234.773 203,229.524 203,224 199.017,224 187,237.927 187,223 187,223 184,223 184,223 184,228.887 187,234.415 187,241 192.448,241 195.54,230.98 199.5,229 205.657,225.922 202,245.628 202,248  Z"/>

<path  fill="#E64438" stroke-width="0" stroke="#E64438" d = " M255 248 C251.456,248 251.397,252 250,252 248.441,252 243.295,239 238,239 238,239 245.5,235 245.5,235 249.929,232.785 253,228.275 253,223 255.101,223 269,238.739 269,223 269,223 272,223 272,223 272,223 269,241 269,241 264.735,241 261.205,230.853 257.5,229 248.905,224.703 255,245.934 255,248  Z"/>

<path  fill="#99D2BD" stroke-width="0" stroke="#99D2BD" d = " M356 223 L355,224 C355,224 356,223 356,223  Z"/>

<path  fill="#C8CBCC" stroke-width="0" stroke="#C8CBCC" d = " M339 224 L338,225 C338,225 339,224 339,224  Z"/>

<path  fill="#8AD987" stroke-width="0" stroke="#8AD987" d = " M117 231 C117,233.273 122.226,233 124,233 124,233 124,230 124,230 124,230 119,225 119,225 119,225 118,225 118,225 118,226.146 120.893,231 117,231  Z"/>

<path  fill="#8AD987" stroke-width="0" stroke="#8AD987" d = " M338 225 L337,227 C337,227 338,225 338,225  Z"/>

<path  fill="#99D2BD" stroke-width="0" stroke="#99D2BD" d = " M354 225 L353,226 C353,226 354,225 354,225  Z"/>

<path  fill="#99D2BD" stroke-width="0" stroke="#99D2BD" d = " M104 226 L105,227 C105,227 104,226 104,226  Z"/>

<path  fill="#99D2BD" stroke-width="0" stroke="#99D2BD" d = " M353 226 L352,227 C352,227 353,226 353,226  Z"/>

<path  fill="#99D2BD" stroke-width="0" stroke="#99D2BD" d = " M106 227 L109,229 C107.762,229 106,228.577 106,227  Z"/>

<path  fill="#8AD987" stroke-width="0" stroke="#8AD987" d = " M339 231 C339,233.273 333.774,233 332,233 332,233 332,231 332,231 332,231 333,230 333,230 333,228.288 335.571,227 337,227 337,228.465 336.891,231 339,231  Z"/>

<path  fill="#99D2BD" stroke-width="0" stroke="#99D2BD" d = " M351 227 L349,228 C349,228 351,227 351,227  Z"/>

<path  fill="#99D2BD" stroke-width="0" stroke="#99D2BD" d = " M349 228 L347,229 C347,229 349,228 349,228  Z"/>

<path  fill="#99D2BD" stroke-width="0" stroke="#99D2BD" d = " M110 229 C111.238,229 113,229.423 113,231 111.762,231 110,230.577 110,229  Z"/>

<path  fill="#A2B1D7" stroke-width="0" stroke="#A2B1D7" d = " M185 275 L185,276 C185,276 150.5,277 150.5,277 146.762,275.131 143.323,272.911 139.5,271 136.474,269.487 128,263.732 128,260 131.347,260 133.288,255 137,255 137,259.36 149.875,263 153.5,263 160.92,263 187,249.599 187,241 192.448,241 195.54,230.98 199.5,229 205.657,225.922 202,245.628 202,248 202,248 201,249 201,249 201,254.756 188,265.567 188,267 184.881,267 185,272.815 185,275  Z"/>

<path  fill="#A2B1D7" stroke-width="0" stroke="#A2B1D7" d = " M271 275 L271,276 C284.93,276 313.957,281.585 321,267.5 322.19,265.12 328,263.786 328,260 328,259.641 321.169,255 320,255 320,255 312.5,261 312.5,261 307.339,263.58 298.807,263.653 293.5,261 286.877,257.689 280.669,254.169 275,248.5 275,248.5 269,241 269,241 264.735,241 261.205,230.853 257.5,229 248.905,224.703 255,245.934 255,248 255,250.89 264.863,266 268,266 272.195,266 271,273.371 271,275  Z"/>

<path  fill="#99D2BD" stroke-width="0" stroke="#99D2BD" d = " M347 229 L345,230 C345,230 347,229 347,229  Z"/>

<path  fill="#97D6F9" stroke-width="0" stroke="#97D6F9" d = " M132 235 L130,238 C130,236.274 125.442,233 124,233 124,233 124,230 124,230 124,230 132,235 132,235  Z"/>

<path  fill="#97D6F9" stroke-width="0" stroke="#97D6F9" d = " M333 230 L332,231 C332,231 333,230 333,230  Z"/>

<path  fill="#99D2BD" stroke-width="0" stroke="#99D2BD" d = " M345 230 L343,231 C343,231 345,230 345,230  Z"/>

<path  fill="#99D2BD" stroke-width="0" stroke="#99D2BD" d = " M127 260 L128,260 C131.347,260 133.288,255 137,255 137,250.804 130,243.102 130,238 130,236.274 125.442,233 124,233 122.226,233 117,233.273 117,231 117,231 114,231 114,231 114,231 117.5,233 117.5,233 120.637,234.569 126.149,237.797 128,241.5 133.184,251.867 127,253.189 127,260  Z"/>

<path  fill="#97D6F9" stroke-width="0" stroke="#97D6F9" d = " M324 235 L326,238 C326,238 332,233 332,233 332,233 332,231 332,231 332,231 324,235 324,235  Z"/>

<path  fill="#99D2BD" stroke-width="0" stroke="#99D2BD" d = " M328 260 L330,260 C330,255.014 323.135,251.23 327,243.5 329.065,239.37 334.54,234.98 338.5,233 339.619,232.441 343,232.845 343,231 343,231 339,231 339,231 339,233.273 333.774,233 332,233 332,233 326,238 326,238 326,243.948 320,249.36 320,255 321.169,255 328,259.641 328,260  Z"/>

<path  fill="#FF5346" stroke-width="0" stroke="#FF5346" d = " M213 263 L215,263 C215,263 223,248 223,248 223,244.441 220,242.496 220,239 220,239 219,239 219,239 212.694,239 207.087,253 206,253 206,253 205,258 205,258 210.912,258 213,254.988 213,263  Z"/>

<path  fill="#E64438" stroke-width="0" stroke="#E64438" d = " M225 244 L223,248 C223,244.441 220,242.496 220,239 220,239 222,240 222,240 222,240 225,244 225,244  Z"/>

<path  fill="#E64438" stroke-width="0" stroke="#E64438" d = " M231 244 L233,247 C233,247 237,239 237,239 237,239 235,239 235,239 235,239 231,244 231,244  Z"/>

<path  fill="#FF5346" stroke-width="0" stroke="#FF5346" d = " M241 263 L243,263 C243,255.411 245.715,258 251,258 251,258 250,252 250,252 248.441,252 243.295,239 238,239 238,239 237,239 237,239 237,239 233,247 233,247 233,247 233,248 233,248 233,248 234,249 234,249 234,249 241,263 241,263  Z"/>

<path  fill="#FE5446" stroke-width="0" stroke="#FE5446" d = " M229 264 C229,269.026 237.158,270 241,270 241,267.877 241,265.296 241,263 241,263 234,249 234,249 234,249 233,248 233,248 233,248 233,247 233,247 233,247 231,244 231,244 229.188,244 229.13,242 228.5,242 227.455,242 226.639,244 225,244 225,244 223,248 223,248 223,248 215,263 215,263 215,265.409 216,268.181 216,270 216,270 223.5,269 223.5,269 223.5,269 228,264 228,264 228,262.814 229,262.814 229,264  Z"/>

<path  fill="#E64438" stroke-width="0" stroke="#E64438" d = " M202 248 L201,249 C201,249 202,248 202,248  Z"/>

<path  fill="#F2473B" stroke-width="0" stroke="#F2473B" d = " M191 268 L190,269 C190,269 188,267 188,267 188,265.567 201,254.756 201,249 201,249 202,248 202,248 204.96,248 206,250.399 206,253 206,253 205,258 205,258 205,259.662 193.481,268 191,268  Z"/>

<path  fill="#E64438" stroke-width="0" stroke="#E64438" d = " M233 248 L234,249 C234,249 233,248 233,248  Z"/>

<path  fill="#F2473B" stroke-width="0" stroke="#F2473B" d = " M268 266 C268,268.461 268.454,268 265,268 265,268 259.5,265 259.5,265 259.5,265 252,259 252,259 252,259 251,258 251,258 251,258 250,252 250,252 251.397,252 251.456,248 255,248 255,250.89 264.863,266 268,266  Z"/>

<path  fill="#CAC8C7" stroke-width="0" stroke="#CAC8C7" d = " M117 270 L118,270 C118,270 119,269 119,269 119,269 119,266 119,266 119,266 118,263 118,263 118,257.435 99.5611,254 95,254 95,258.277 106.562,263.031 110.5,265 113.108,266.304 113.797,270 117,270  Z"/>

<path  fill="#CAC8C7" stroke-width="0" stroke="#CAC8C7" d = " M338 269 L339,270 C342.203,270 342.892,266.304 345.5,265 348.628,263.436 361,258.436 361,255 361,253.749 356.573,253.464 355.5,254 351.318,256.091 338,257.085 338,264 338,265.048 338.473,267 337,267 337,267 337,268 337,268 337,268 338,269 338,269  Z"/>

<path  fill="#96A6D3" stroke-width="0" stroke="#96A6D3" d = " M204 275 L205,275 C205,275 206,274 206,274 206,274 207,273 207,273 207,273 208,273 208,273 208,273 209,272 209,272 209,272 211,271 211,271 211,268.291 213,266.354 213,263 213,254.988 210.912,258 205,258 205,259.662 193.481,268 191,268 191,268 190,269 190,269 190,269 189,272 189,272 189,278.604 201.466,275 204,275  Z"/>

<path  fill="#96A6D3" stroke-width="0" stroke="#96A6D3" d = " M252 275 L253,275 C255.205,275 267,278.427 267,272 267,269.576 265,269.24 265,268 265,268 259.5,265 259.5,265 259.5,265 252,259 252,259 252,259 251,258 251,258 245.715,258 243,255.411 243,263 243,266.351 246,268.596 246,271 246,271 249,273 249,273 249,273 250,274 250,274 250,274 251,274 251,274 251,274 252,275 252,275  Z"/>

<path  fill="#E64438" stroke-width="0" stroke="#E64438" d = " M251 258 L252,259 C252,259 251,258 251,258  Z"/>

<path  fill="#7FCCF7" stroke-width="0" stroke="#7FCCF7" d = " M185 276 C189.619,276 195,276.221 195,282 195,296.285 178.903,292.299 171.5,296 155.975,303.762 133.581,298.662 125,281.5 123.539,278.579 119,275.371 119,272 119,272 119,269 119,269 119,269 119,266 119,266 119,266 121,264 121,264 121,264 127,260 127,260 127,260 128,260 128,260 128,263.732 136.474,269.487 139.5,271 143.323,272.911 146.762,275.131 150.5,277 150.5,277 185,276 185,276  Z"/>

<path  fill="#7FCCF7" stroke-width="0" stroke="#7FCCF7" d = " M271 276 C266.067,276 261,276.681 261,282 261,282 263,285.5 263,285.5 269.557,298.614 274.967,291.234 284.5,296 300.646,304.073 322.58,298.34 331,281.5 332.029,279.442 337,276.258 337,273 337,273 337,268 337,268 337,268 337,267 337,267 337,267 336,264 336,264 336,264 330,260 330,260 330,260 328,260 328,260 328,263.786 322.19,265.12 321,267.5 313.957,281.585 284.93,276 271,276  Z"/>

<path  fill="#99D2BD" stroke-width="0" stroke="#99D2BD" d = " M121 264 L119,266 C119,266 118,263 118,263 118,263 121,264 121,264  Z"/>

<path  fill="#E64438" stroke-width="0" stroke="#E64438" d = " M216 270 L211,271 C211,268.291 213,266.354 213,263 213,263 215,263 215,263 215,265.409 216,268.181 216,270  Z"/>

<path  fill="#E64438" stroke-width="0" stroke="#E64438" d = " M228 264 L229,264 C229,262.814 228,262.814 228,264  Z"/>

<path  fill="#E64438" stroke-width="0" stroke="#E64438" d = " M241 270 L246,271 C246,268.596 243,266.351 243,263 243,263 241,263 241,263 241,265.296 241,267.877 241,270  Z"/>

<path  fill="#99D2BD" stroke-width="0" stroke="#99D2BD" d = " M338 264 C338,265.048 338.473,267 337,267 337,267 336,264 336,264 336,264 338,264 338,264  Z"/>

<path  fill="#E64438" stroke-width="0" stroke="#E64438" d = " M267 272 C269.54,272 269.543,275 271,275 271,273.371 272.195,266 268,266 268,268.461 268.454,268 265,268 265,269.24 267,269.576 267,272  Z"/>

<path  fill="#E64438" stroke-width="0" stroke="#E64438" d = " M189 272 L185,275 C185,272.815 184.881,267 188,267 188,267 190,269 190,269 190,269 189,272 189,272  Z"/>

<path  fill="#E64438" stroke-width="0" stroke="#E64438" d = " M191 268 L190,269 C190,269 191,268 191,268  Z"/>

<path  fill="#97D6F9" stroke-width="0" stroke="#97D6F9" d = " M339 270 L337,273 C337,273 337,268 337,268 337,268 338,269 338,269 338,269 339,270 339,270  Z"/>

<path  fill="#97D6F9" stroke-width="0" stroke="#97D6F9" d = " M118 271 L119,272 C119,272 119,269 119,269 119,269 118,270 118,270 118,270 118,271 118,271  Z"/>

<path  fill="#99D2BD" stroke-width="0" stroke="#99D2BD" d = " M338 269 L339,270 C339,270 338,269 338,269  Z"/>

<path  fill="#99D2BD" stroke-width="0" stroke="#99D2BD" d = " M118 270 L118,271 C118,271 117,270 117,270 117,270 118,270 118,270  Z"/>

<path  fill="#8599CC" stroke-width="0" stroke="#8599CC" d = " M185 276 C189.619,276 195,276.221 195,282 196.883,282 204,276.629 204,275 201.466,275 189,278.604 189,272 189,272 185,275 185,275 185,275 185,276 185,276  Z"/>

<path  fill="#8599CC" stroke-width="0" stroke="#8599CC" d = " M209 272 L208,273 C208,273 209,272 209,272  Z"/>

<path  fill="#8599CC" stroke-width="0" stroke="#8599CC" d = " M271 276 C266.067,276 261,276.681 261,282 259.266,282 253,276.991 253,275 255.205,275 267,278.427 267,272 269.54,272 269.543,275 271,275 271,275 271,276 271,276  Z"/>

<path  fill="#8599CC" stroke-width="0" stroke="#8599CC" d = " M207 273 L206,274 C206,274 207,273 207,273  Z"/>

<path  fill="#8599CC" stroke-width="0" stroke="#8599CC" d = " M249 273 L250,274 C250,274 249,273 249,273  Z"/>

<path  fill="#8599CC" stroke-width="0" stroke="#8599CC" d = " M206 274 L205,275 C205,275 206,274 206,274  Z"/>

<path  fill="#8599CC" stroke-width="0" stroke="#8599CC" d = " M251 274 L252,275 C252,275 251,274 251,274  Z"/>

<path  fill="#CBCCC7" stroke-width="0" stroke="#CBCCC7" d = " M215 275 L207,281.5 C205.594,284.312 209.975,289.262 212.5,288 219.324,284.588 230.168,275 215,275  Z"/>

<path  fill="#CBCCC7" stroke-width="0" stroke="#CBCCC7" d = " M235 275 C235,277.392 232.601,276.701 234,279.5 244.316,300.133 260.535,275 235,275  Z"/>

</g>
</svg>
