<svg xmlns="http://www.w3.org/2000/svg" xmlns:xlink="http://www.w3.org/1999/xlink"  viewBox="0 0 456 320">
<g>
<rect width="456" height="320" fill="#000000"  stroke-width="0" /> 
<path  fill="#FDFB90" stroke-width="0" stroke="#FDFB90" d = " M182 127 L199.5,121 C204.905,118.297 223.17,119 230.5,119 L244.5,119 C250.403,121.952 258.628,120.064 264.5,123 267.306,124.403 271.805,127 275,127 275,127 281,115 281,115 281,106.821 270.69,100.095 264.5,97 247.629,88.5645 209.363,88.5683 192.5,97 186.064,100.218 175,106.877 175,115 175,115 181,127 181,127 181,127 182,127 182,127  Z"/>

<path  fill="#FFFB8E" stroke-width="0" stroke="#FFFB8E" d = " M148 165 L149,165 C149,163.203 151.203,161 153,161 153,161 181,127 181,127 181,127 175,115 175,115 172.152,115 169.502,111.499 166.5,113 152.39,120.055 138.213,131.073 131,145.5 131,145.5 131,150.5 131,150.5 131.605,151.71 133.994,151.488 135,153.5 136.986,157.472 133.044,163.272 138.5,166 139.491,166.495 147,168.399 147,166 147,166 148,165 148,165  Z"/>

<path  fill="#FFFB8E" stroke-width="0" stroke="#FFFB8E" d = " M303 160 L309,166 C328.333,166 317.298,161.905 322,152.5 323.559,149.382 328.453,151.406 325,144.5 317.993,130.487 302.664,119.582 289.5,113 289.5,113 281,115 281,115 281,115 275,127 275,127 275,127 275,128 275,128 275,128 281,133.5 281,133.5 281,133.5 303,160 303,160  Z"/>

<path  fill="#FBFC91" stroke-width="0" stroke="#FBFC91" d = " M188 165 L195.5,161 C198.985,159.257 233.559,156.03 237.5,158 242.03,160.265 249.082,156.791 253.5,159 255.211,159.855 268.007,165 269,165 269,156.318 268.333,143.835 272,136.5 272.768,134.963 272.692,128 275,128 275,128 275,127 275,127 271.805,127 267.306,124.403 264.5,123 258.628,120.064 250.403,121.952 244.5,119 244.5,119 230.5,119 230.5,119 223.17,119 204.905,118.297 199.5,121 199.5,121 182,127 182,127 182,127 185,136.5 185,136.5 186.409,139.317 188,160.859 188,165  Z"/>

<path  fill="#FFF990" stroke-width="0" stroke="#FFF990" d = " M149 169 L148,177.5 C150.066,181.633 158.097,189.201 164.5,186 L172,181 C172,178.831 185.448,165 188,165 188,160.859 186.409,139.317 185,136.5 185,136.5 182,127 182,127 182,127 181,127 181,127 181,127 153,161 153,161 153,161 149,169 149,169  Z"/>

<path  fill="#FFF990" stroke-width="0" stroke="#FFF990" d = " M307 168 L308,178.5 C306.084,182.331 297.942,188.721 292.5,186 290.219,184.86 286.534,181 284,181 284,174.867 269,167.915 269,165 269,156.318 268.333,143.835 272,136.5 272.768,134.963 272.692,128 275,128 275,128 281,133.5 281,133.5 281,133.5 303,160 303,160 303,160 307,168 307,168  Z"/>

<path  fill-rule="evenodd" fill="#FFFA8F" stroke-width="0" stroke="#FFFA8F" d = " M182 176 C182,180.959 194.933,180 199,180 218.33,180 235.296,180 254.5,180 259.481,180 265.161,179 269.5,179 270.663,179 275,179.549 275,177.5 275,175.451 270.663,176 269.5,176 L252,177 C228.69,177 205.828,176 182,176  M243 201 L247,201 C247,198.815 255.871,199.815 257.5,199 267.341,194.079 284,196.184 284,181 284,174.867 269,167.915 269,165 268.007,165 255.211,159.855 253.5,159 249.082,156.791 242.03,160.265 237.5,158 233.559,156.03 198.985,159.257 195.5,161 195.5,161 188,165 188,165 185.448,165 172,178.831 172,181 172,195.685 188.831,194.165 198.5,199 200.263,199.881 209,198.348 209,201 209,201 213,201 213,201 213,201 230.5,203 230.5,203 233.819,201.34 239.098,201 243,201  Z"/>

<path  fill="#F0F080" stroke-width="0" stroke="#F0F080" d = " M309 166 C306.891,166 307,164.838 307,168 307,168 303,160 303,160 303,160 309,166 309,166  Z"/>

<path  fill="#F0F080" stroke-width="0" stroke="#F0F080" d = " M149 165 L149,169 C149,169 153,161 153,161 151.203,161 149,163.203 149,165  Z"/>

<path  fill="#F0F080" stroke-width="0" stroke="#F0F080" d = " M148 165 L147,166 C147,166 148,165 148,165  Z"/>

<path  fill="#CBC9CC" stroke-width="0" stroke="#CBC9CC" d = " M182 176 C182,180.959 194.933,180 199,180 218.33,180 235.296,180 254.5,180 259.481,180 265.161,179 269.5,179 270.663,179 275,179.549 275,177.5 275,175.451 270.663,176 269.5,176 L252,177 C228.69,177 205.828,176 182,176  Z"/>

<path  fill-rule="evenodd" fill="#FF9BCD" stroke-width="0" stroke="#FF9BCD" d = " M163 202 C163,204.091 166.746,202 163,202  M170 199 L165,201.5 L168.5,202 C172.875,202 182.111,199 173.5,199 L170,199  M147 220 L149,219.5 L148,222.5 L147,235 C148.059,235 149,228.257 149,227 149,222.16 153.559,210.97 157.5,209 163.829,205.835 173.819,200.16 181.5,204 181.5,204 191,214 191,214 191,213.078 189.319,211 192,211 192,211 185,203.5 185,203.5 187.508,198.485 201,204.297 201,212 204.207,212 201.688,209.906 203.5,209 205.661,207.919 208.394,210 210,210 210,210 207,206.5 207,206.5 207,206.5 208,202 208,202 200.473,202 173.663,194.419 168.5,197 163.629,199.435 158.759,204.87 154.5,207 151.255,208.623 147,215.878 147,220  Z"/>

<path  fill-rule="evenodd" fill="#FF9BCD" stroke-width="0" stroke="#FF9BCD" d = " M310 234 C310,241.389 312.111,234 310,234  M281 199 L278,200.5 L287.5,202 L293,202.5 L289.5,201 L286,199 L281,199  M311 225 C314.476,225 312.052,232.603 313,234.5 316.968,242.436 314.607,253.286 311,260.5 310.233,262.035 309.155,269 307,269 307,265.596 308.488,259.523 310,256.5 313.901,248.697 305.341,212.421 298.5,209 293.902,206.701 289.012,205.256 284.5,203 275.196,198.348 269.472,213 266,213 266,213 265,211 265,211 265,211 271,205.5 271,205.5 272.778,201.944 265.502,200.999 263.5,202 261.586,202.957 254.825,210 254,210 252.436,210 250.124,209 248,209 248,206.31 249,204.402 249,202 272.675,202 292.767,186.035 307,214.5 308.631,217.762 311,220.04 311,224 311,224 308.5,219 308.5,219 307.637,219 308.514,229.527 309,230.5 309.421,231.341 312.902,231.304 312,229.5 311.141,227.782 311,227.113 311,225  Z"/>

<path  fill="#C8CACA" stroke-width="0" stroke="#C8CACA" d = " M170 199 L165,201.5 L168.5,202 C172.875,202 182.111,199 173.5,199 L170,199  Z"/>

<path  fill="#C8CACA" stroke-width="0" stroke="#C8CACA" d = " M281 199 L278,200.5 L287.5,202 L293,202.5 L289.5,201 L286,199 L281,199  Z"/>

<path  fill="#FF9BCD" stroke-width="0" stroke="#FF9BCD" d = " M209 202 L213,202 C213,202 213,201 213,201 213,201 209,201 209,201 209,201 209,202 209,202  Z"/>

<path  fill="#FF9BCD" stroke-width="0" stroke="#FF9BCD" d = " M243 202 L247,202 C247,202 247,201 247,201 247,201 243,201 243,201 243,201 243,202 243,202  Z"/>

<path  fill="#C8CACA" stroke-width="0" stroke="#C8CACA" d = " M163 202 C163,204.091 166.746,202 163,202  Z"/>

<path  fill="#CAC9CC" stroke-width="0" stroke="#CAC9CC" d = " M192 211 C193.593,211 201,214.176 201,212 201,204.297 187.508,198.485 185,203.5 185,203.5 192,211 192,211  Z"/>

<path  fill="#FEA3D0" stroke-width="0" stroke="#FEA3D0" d = " M218 217 L225,218 C225,216.286 227,214.518 227,212 227,208.977 223.222,204 220,204 220,204 219,203 219,203 219,203 217,203 217,203 215.952,203 214,203.473 214,202 214,202 213,202 213,202 213,202 209,202 209,202 209,202 208,202 208,202 208,202 207,206.5 207,206.5 207,206.5 210,210 210,210 212.101,210 215,212.831 215,215 216.238,215 218,215.423 218,217  Z"/>

<path  fill="#FF9BCD" stroke-width="0" stroke="#FF9BCD" d = " M214 202 C215.048,202 217,201.527 217,203 215.952,203 214,203.473 214,202  Z"/>

<path  fill="#FF9BCD" stroke-width="0" stroke="#FF9BCD" d = " M243 202 C241.855,202 239,201.421 239,203 240.145,203 243,203.579 243,202  Z"/>

<path  fill="#FEA3D0" stroke-width="0" stroke="#FEA3D0" d = " M238 217 L231,218 C231,218 229,214 229,214 229,214 230,209 230,209 230,209 231,208 231,208 231,205.551 237.154,203 239,203 240.145,203 243,203.579 243,202 243,202 247,202 247,202 247,202 249,202 249,202 249,204.402 248,206.31 248,209 246.4,209 241,213.129 241,215 239.762,215 238,215.423 238,217  Z"/>

<path  fill="#CAC9CC" stroke-width="0" stroke="#CAC9CC" d = " M265 211 C261.394,211 258.028,212 255,212 255,212 254,211 254,211 254,211 254,210 254,210 254.825,210 261.586,202.957 263.5,202 265.502,200.999 272.778,201.944 271,205.5 271,205.5 265,211 265,211  Z"/>

<path  fill="#FDA4D0" stroke-width="0" stroke="#FDA4D0" d = " M151 272 L157.5,277 L163,276 C163,274.404 169.773,267.954 171,265.5 173.398,260.705 172.626,254.249 175,249.5 178.165,243.169 180.851,236.798 184,230.5 185.134,228.232 190.064,221 192,221 192,221 192,217 192,217 192,217 191,214 191,214 191,214 181.5,204 181.5,204 173.819,200.16 163.829,205.835 157.5,209 153.559,210.97 149,222.16 149,227 149,228.257 148.059,235 147,235 147,241.553 144.506,256.511 147,261.5 147,261.5 151,271 151,271 151,271 151,272 151,272  Z"/>

<path  fill="#FF9BCD" stroke-width="0" stroke="#FF9BCD" d = " M219 203 L220,204 C220,204 219,203 219,203  Z"/>

<path  fill="#FDA4D0" stroke-width="0" stroke="#FDA4D0" d = " M303 275 L298.5,277 L293,276 C293,273.6 286.228,266.955 285,264.5 280.262,255.025 279.774,243.048 275,233.5 275,233.5 265,221 265,221 265,221 264,217 264,217 264,217 266,213 266,213 269.472,213 275.196,198.348 284.5,203 289.012,205.256 293.902,206.701 298.5,209 305.341,212.421 313.901,248.697 310,256.5 308.488,259.523 307,265.596 307,269 305.423,269 305,270.762 305,272 305,272 305,273 305,273 303.253,273 303,273.253 303,275  Z"/>

<path  fill="#FF9BCD" stroke-width="0" stroke="#FF9BCD" d = " M231 208 L230,209 C230,209 231,208 231,208  Z"/>

<path  fill="#FDA5D0" stroke-width="0" stroke="#FDA5D0" d = " M215 223 C213.728,223 211.843,226 206,226 206,226 199,223 199,223 199,223 198,222 198,222 198,222 197,222 197,222 197,222 192,217 192,217 192,217 191,214 191,214 191,213.078 189.319,211 192,211 193.593,211 201,214.176 201,212 204.207,212 201.688,209.906 203.5,209 205.661,207.919 208.394,210 210,210 212.101,210 215,212.831 215,215 215,215 216,217 216,217 216,217 215,223 215,223  Z"/>

<path  fill-rule="evenodd" fill="#FDA5D0" stroke-width="0" stroke="#FDA5D0" d = " M253 212 C253,213.93 254.93,212 253,212  M241 223 C243.311,223 246.087,226 250,226 253.47,226 256.007,222 259,222 259,222 264,217 264,217 264,217 266,213 266,213 266,213 265,211 265,211 261.394,211 258.028,212 255,212 255,212 254,211 254,211 254,211 254,210 254,210 252.436,210 250.124,209 248,209 246.4,209 241,213.129 241,215 241,216.048 241.473,218 240,218 240,218 241,223 241,223  Z"/>

<path  fill="#FF9BCD" stroke-width="0" stroke="#FF9BCD" d = " M254 211 L255,212 C255,212 254,211 254,211  Z"/>

<path  fill="#FF9BCD" stroke-width="0" stroke="#FF9BCD" d = " M225 218 C225,221.215 231,221.215 231,218 231,218 229,214 229,214 229,214 227,212 227,212 227,214.518 225,216.286 225,218  Z"/>

<path  fill="#FF9BCD" stroke-width="0" stroke="#FF9BCD" d = " M253 212 C253,213.93 254.93,212 253,212  Z"/>

<path  fill="#FF9BCD" stroke-width="0" stroke="#FF9BCD" d = " M216 217 L218,217 C218,215.423 216.238,215 215,215 215,215 216,217 216,217  Z"/>

<path  fill="#FF9BCD" stroke-width="0" stroke="#FF9BCD" d = " M238 217 L240,218 C241.473,218 241,216.048 241,215 239.762,215 238,215.423 238,217  Z"/>

<path  fill="#FF9BCD" stroke-width="0" stroke="#FF9BCD" d = " M192 221 L197,222 C197,222 192,217 192,217 192,217 192,221 192,221  Z"/>

<path  fill="#FDA5D1" stroke-width="0" stroke="#FDA5D1" d = " M229 225 C231.908,225 235.092,225 238,225 239.238,225 241,224.577 241,223 241,223 240,218 240,218 240,218 238,217 238,217 238,217 231,218 231,218 231,221.215 225,221.215 225,218 225,218 218,217 218,217 218,217 216,217 216,217 216,217 215,223 215,223 215,225.109 217.535,225 219,225 221.339,225 224.523,225 227,225 227,225 229,225 229,225  Z"/>

<path  fill="#FF9BCD" stroke-width="0" stroke="#FF9BCD" d = " M265 221 L259,222 C259,222 264,217 264,217 264,217 265,221 265,221  Z"/>

<path  fill="#C8CACA" stroke-width="0" stroke="#C8CACA" d = " M145 226 C145,227.517 145.726,235 147,235 147,235 148,222.5 148,222.5 148,222.5 149,219.5 149,219.5 149,219.5 147,220 147,220 147,221.424 146.638,225 145,225 145,225 145,226 145,226  Z"/>

<path  fill="#C8CACA" stroke-width="0" stroke="#C8CACA" d = " M311 224 L308.5,219 C307.637,219 308.514,229.527 309,230.5 309.421,231.341 312.902,231.304 312,229.5 311.141,227.782 311,227.113 311,225 311,225 311,224 311,224  Z"/>

<path  fill="#FF9BCD" stroke-width="0" stroke="#FF9BCD" d = " M147 220 C145.362,220 145,223.576 145,225 146.638,225 147,221.424 147,220  Z"/>

<path  fill="#FDB1D7" stroke-width="0" stroke="#FDB1D7" d = " M165 279 L174,279 C174,279 178,275 178,275 178,270.458 193.598,247.451 198.5,245 201.296,243.602 211,236.06 211,233 211,229.921 206,227.647 206,226 206,226 199,223 199,223 199,223 198,222 198,222 198,222 197,222 197,222 197,222 192,221 192,221 190.064,221 185.134,228.232 184,230.5 180.851,236.798 178.165,243.169 175,249.5 172.626,254.249 173.398,260.705 171,265.5 169.773,267.954 163,274.404 163,276 163,276 165,279 165,279  Z"/>

<path  fill="#FDB1D7" stroke-width="0" stroke="#FDB1D7" d = " M283 279 L291,279 C291,277.519 293,278.215 293,276 293,273.6 286.228,266.955 285,264.5 280.262,255.025 279.774,243.048 275,233.5 275,233.5 265,221 265,221 265,221 259,222 259,222 256.007,222 253.47,226 250,226 250,228.751 245,230.565 245,234 245,234 251.5,240 251.5,240 259.427,243.964 278,267.02 278,275 278,275 283,279 283,279  Z"/>

<path  fill="#FF9BCD" stroke-width="0" stroke="#FF9BCD" d = " M198 222 L199,223 C199,223 198,222 198,222  Z"/>

<path  fill-rule="evenodd" fill="#FF9BCD" stroke-width="0" stroke="#FF9BCD" d = " M286 288 C286,292.123 290.123,288 286,288  M169 288 C169,291.746 171.091,288 169,288  M226 266 C226,268.097 225,271.293 225,274 L226,278.5 L225,283.5 C230.089,293.677 237.212,266 226,266  M166 289 L170.5,293 L184.5,292 C190.179,294.84 200.841,293 207.5,293 L261,293 C266.223,293 290,293.495 290,289 290,289 289,287 289,287 282.657,287 283,284.747 283,279 283,279 278,275 278,275 278,279.045 272.219,276 271,276 271,280.997 258.265,278.618 255.5,280 242.315,286.593 240.503,265.506 237,258.5 237,258.5 231,249.5 231,249.5 231,247.004 238.595,240 241,240 241,238.016 242.444,234 245,234 245,230.565 250,228.751 250,226 246.087,226 243.311,223 241,223 241,224.577 239.238,225 238,225 238,229.57 238.33,230.17 235,233.5 234.138,234.362 229.994,236.487 229,234.5 229,234.5 229,225 229,225 229,225 227,225 227,225 227,228.306 228.65,231.201 227,234.5 226.032,236.436 219.498,233.495 219,232.5 217.52,229.54 219,227.607 219,225 217.535,225 215,225.109 215,223 213.728,223 211.843,226 206,226 206,227.647 211,229.921 211,233 212.874,233 216,238.55 216,240 216,240 220,243.5 220,243.5 220,243.5 225,248.5 225,248.5 225.867,250.233 223.628,252.244 223,253.5 220.287,258.926 217.666,264.168 215,269.5 213.781,271.938 214.497,277.501 211.5,279 206.435,281.533 194.955,281.727 189.5,279 189.5,279 185,276 185,276 183.781,276 178,279.045 178,275 178,275 174,279 174,279 174,285.424 173.545,287 167,287 167,287 166,289 166,289  Z"/>

<path  fill="#FDB1D8" stroke-width="0" stroke="#FDB1D8" d = " M219 225 C221.339,225 224.523,225 227,225 227,228.306 228.65,231.201 227,234.5 226.032,236.436 219.498,233.495 219,232.5 217.52,229.54 219,227.607 219,225  Z"/>

<path  fill="#FDB1D8" stroke-width="0" stroke="#FDB1D8" d = " M229 225 C231.908,225 235.092,225 238,225 238,229.57 238.33,230.17 235,233.5 234.138,234.362 229.994,236.487 229,234.5 229,234.5 229,225 229,225  Z"/>

<path  fill-rule="evenodd" fill="#FF9BCD" stroke-width="0" stroke="#FF9BCD" d = " M145 236 C145,245.211 147.105,236 145,236  M147 235 C147,241.553 144.506,256.511 147,261.5 L151,271 C148.53,271 147.735,265.97 147,264.5 142.279,255.059 143,248.471 143,238 143,235.917 143.142,226 145,226 145,227.517 145.726,235 147,235  Z"/>

<path  fill="#FFB2D8" stroke-width="0" stroke="#FFB2D8" d = " M178 275 C178,279.045 183.781,276 185,276 185,268.037 208.252,240 216,240 216,238.55 212.874,233 211,233 211,236.06 201.296,243.602 198.5,245 193.598,247.451 178,270.458 178,275  Z"/>

<path  fill="#FFB2D8" stroke-width="0" stroke="#FFB2D8" d = " M278 275 C278,279.045 272.219,276 271,276 271,270.413 259.026,251.763 253.5,249 253.5,249 241,240 241,240 241,238.016 242.444,234 245,234 245,234 251.5,240 251.5,240 259.427,243.964 278,267.02 278,275  Z"/>

<path  fill="#C8CACA" stroke-width="0" stroke="#C8CACA" d = " M310 234 C310,241.389 312.111,234 310,234  Z"/>

<path  fill="#C8CACA" stroke-width="0" stroke="#C8CACA" d = " M145 236 C145,245.211 147.105,236 145,236  Z"/>

<path  fill="#FFB1D6" stroke-width="0" stroke="#FFB1D6" d = " M216 240 L220,243.5 L225,248.5 C225.867,250.233 223.628,252.244 223,253.5 220.287,258.926 217.666,264.168 215,269.5 213.781,271.938 214.497,277.501 211.5,279 206.435,281.533 194.955,281.727 189.5,279 L185,276 C185,268.037 208.252,240 216,240  Z"/>

<path  fill="#FFB1D6" stroke-width="0" stroke="#FFB1D6" d = " M241 240 C238.595,240 231,247.004 231,249.5 L237,258.5 C240.503,265.506 242.315,286.593 255.5,280 258.265,278.618 271,280.997 271,276 271,270.413 259.026,251.763 253.5,249 253.5,249 241,240 241,240  Z"/>

<path  fill="#C9C7CC" stroke-width="0" stroke="#C9C7CC" d = " M226 266 C226,268.097 225,271.293 225,274 L226,278.5 L225,283.5 C230.089,293.677 237.212,266 226,266  Z"/>

<path  fill="#FF9BCD" stroke-width="0" stroke="#FF9BCD" d = " M307 269 C305.423,269 305,270.762 305,272 306.577,272 307,270.238 307,269  Z"/>

<path  fill="#FF9BCD" stroke-width="0" stroke="#FF9BCD" d = " M158 281 C158,276.233 163.573,283 164,283 164,281.855 163.421,279 165,279 165,279 163,276 163,276 163,276 157.5,277 157.5,277 157.5,277 151,272 151,272 151,272 158,281 158,281  Z"/>

<path  fill="#FF9BCD" stroke-width="0" stroke="#FF9BCD" d = " M305 273 C303.253,273 303,273.253 303,275 303,275 305,273 305,273  Z"/>

<path  fill="#FF9BCD" stroke-width="0" stroke="#FF9BCD" d = " M298 281 C298,275.628 293.702,283 292,283 292,281.855 292.579,279 291,279 291,277.519 293,278.215 293,276 293,276 298.5,277 298.5,277 298.5,277 303,275 303,275 303,275 298,281 298,281  Z"/>

<path  fill="#C9CACA" stroke-width="0" stroke="#C9CACA" d = " M167 287 L166,289 C166,289 161,284 161,284 161,284 159,282 159,282 159,282 158,281 158,281 158,276.233 163.573,283 164,283 164,283 166,285 166,285 166,285 167,286 167,286 167,286 167,287 167,287  Z"/>

<path  fill="#C8C8CB" stroke-width="0" stroke="#C8C8CB" d = " M167 286 L167,287 C173.545,287 174,285.424 174,279 174,279 165,279 165,279 163.421,279 164,281.855 164,283 164,283 166,285 166,285 166,285 167,286 167,286  Z"/>

<path  fill="#C8C8CB" stroke-width="0" stroke="#C8C8CB" d = " M290 286 L289,287 C282.657,287 283,284.747 283,279 283,279 291,279 291,279 292.579,279 292,281.855 292,283 292,283 290,286 290,286  Z"/>

<path  fill="#C9CACA" stroke-width="0" stroke="#C9CACA" d = " M289 287 L290,289 C290,289 295,284 295,284 295,284 296,283 296,283 296,283 297,282 297,282 297,282 298,281 298,281 298,275.628 293.702,283 292,283 292,283 290,286 290,286 290,286 289,287 289,287  Z"/>

<path  fill="#FF9BCD" stroke-width="0" stroke="#FF9BCD" d = " M298 281 L297,282 C297,282 298,281 298,281  Z"/>

<path  fill="#FF9BCD" stroke-width="0" stroke="#FF9BCD" d = " M159 282 L161,284 C161,284 159,282 159,282  Z"/>

<path  fill="#FF9BCD" stroke-width="0" stroke="#FF9BCD" d = " M296 283 L295,284 C295,284 296,283 296,283  Z"/>

<path  fill="#FF9BCD" stroke-width="0" stroke="#FF9BCD" d = " M166 285 L167,286 C167,286 166,285 166,285  Z"/>

<path  fill="#FF9BCD" stroke-width="0" stroke="#FF9BCD" d = " M290 286 L289,287 C289,287 290,286 290,286  Z"/>

<path  fill="#CBC7CC" stroke-width="0" stroke="#CBC7CC" d = " M169 288 C169,291.746 171.091,288 169,288  Z"/>

<path  fill="#CBC7CC" stroke-width="0" stroke="#CBC7CC" d = " M286 288 C286,292.123 290.123,288 286,288  Z"/>

</g>
</svg>
