<svg xmlns="http://www.w3.org/2000/svg" xmlns:xlink="http://www.w3.org/1999/xlink"  viewBox="0 0 456 320">
<g>
<rect width="456" height="320" fill="#000000"  stroke-width="0" /> 
<path  fill="#1E9C59" stroke-width="0" stroke="#1E9C59" d = " M132 143 L128,147 C126.19,147 123,133.69 123,131 123,119.581 128.426,99.5372 139.5,94 146.876,90.3118 153.197,84.6515 160.5,81 164.723,78.8887 170.312,79.094 174.5,77 177.405,75.5475 188.032,72.266 191.5,74 195.648,76.0741 201.351,74.9253 205.5,77 205.5,77 212,81 212,81 212,81 207,86 207,86 207,86 206,86 206,86 206,83.5151 196.321,83.9105 194.5,83 187.491,79.4953 165.726,84.8868 159.5,88 146.014,94.743 136.787,103.926 130,117.5 126.552,124.395 132,136.571 132,143  Z"/>

<path  fill="#1E9C59" stroke-width="0" stroke="#1E9C59" d = " M324 143 C325.634,143 328,145.634 328,147 333.583,147 334.357,120.214 332,115.5 325.272,102.045 314.377,89.9384 300.5,83 296.857,81.1787 292.124,80.8121 288.5,79 284.996,77.2478 279.542,75 275.5,75 270.565,75 244,74.7522 244,82 244,82 249,86 249,86 249,86 250,86 250,86 252.819,86 260.762,83.369 263.5,82 268.168,79.6662 281.676,83.0879 285.5,85 289.631,87.0653 295.296,86.8982 299.5,89 311.126,94.8128 320.394,105.288 326,116.5 330.102,124.703 324,135.152 324,143  Z"/>

<path  fill="#2FA750" stroke-width="0" stroke="#2FA750" d = " M223 117 L233,117 C233,109.267 235.773,101.953 239,95.5 240.371,92.7585 249,88.084 249,86 249,86 244,82 244,82 241.544,82 232.325,94.8494 231,97.5 231,97.5 228.5,105 228.5,105 227.087,105 225.526,97.5518 225,96.5 223.673,93.8452 213.51,81 212,81 212,81 207,86 207,86 207,87.3994 215.671,91.8419 217,94.5 220.522,101.543 223,108.452 223,117  Z"/>

<path  fill="#1E9D58" stroke-width="0" stroke="#1E9D58" d = " M132 143 L133,143 C133,141.105 145.432,135 148,135 148,116.978 157.653,102.923 173.5,95 178.05,92.7251 183.917,93.2914 188.5,91 188.5,91 201,92 201,92 201,92 206,86 206,86 206,83.5151 196.321,83.9105 194.5,83 187.491,79.4953 165.726,84.8868 159.5,88 146.014,94.743 136.787,103.926 130,117.5 126.552,124.395 132,136.571 132,143  Z"/>

<path  fill="#1E9D58" stroke-width="0" stroke="#1E9D58" d = " M308 135 C314.119,135 320.376,143 324,143 324,135.152 330.102,124.703 326,116.5 320.394,105.288 311.126,94.8128 299.5,89 295.296,86.8982 289.631,87.0653 285.5,85 281.676,83.0879 268.168,79.6662 263.5,82 260.762,83.369 252.819,86 250,86 250,86 255,92 255,92 255,92 268.5,91 268.5,91 272.165,92.8324 276.896,92.1979 280.5,94 298.163,102.831 300.819,111.137 309,127.5 310.182,129.864 308,133.196 308,135  Z"/>

<path  fill="#2FA74F" stroke-width="0" stroke="#2FA74F" d = " M217 116 L223,117 C223,108.452 220.522,101.543 217,94.5 215.671,91.8419 207,87.3994 207,86 207,86 206,86 206,86 206,86 201,92 201,92 201,92 201,93 201,93 211.71,93 217,105.063 217,115 217,115 217,116 217,116  Z"/>

<path  fill="#2FA74F" stroke-width="0" stroke="#2FA74F" d = " M240 116 L233,117 C233,109.267 235.773,101.953 239,95.5 240.371,92.7585 249,88.084 249,86 249,86 250,86 250,86 250,86 255,92 255,92 255,92 255,93 255,93 243.92,93 240,106.005 240,115 240,115 240,116 240,116  Z"/>

<path  fill="#1F9D58" stroke-width="0" stroke="#1F9D58" d = " M148 135 C151.489,135 153.32,137 157,137 157,137 162,126 162,126 162,124.22 157.02,121.461 159,117.5 165.544,104.412 179.575,101 194,101 194,101 201,93 201,93 201,93 201,92 201,92 201,92 188.5,91 188.5,91 183.917,93.2914 178.05,92.7251 173.5,95 157.653,102.923 148,116.978 148,135  Z"/>

<path  fill="#1F9D58" stroke-width="0" stroke="#1F9D58" d = " M308 135 C304.538,135 302.973,137 299,137 299,133.451 294,129.312 294,126 300.819,126 295.242,111.371 292.5,110 281.793,104.647 275.166,101 262,101 262,101 255,93 255,93 255,93 255,92 255,92 255,92 268.5,91 268.5,91 272.165,92.8324 276.896,92.1979 280.5,94 298.163,102.831 300.819,111.137 309,127.5 310.182,129.864 308,133.196 308,135  Z"/>

<path  fill="#2EA84F" stroke-width="0" stroke="#2EA84F" d = " M205 112 C209.304,112 212.464,115 217,115 217,105.063 211.71,93 201,93 201,93 194,101 194,101 194,101.948 205,107.304 205,112  Z"/>

<path  fill="#2EA84F" stroke-width="0" stroke="#2EA84F" d = " M251 112 C247.01,112 244.334,115 240,115 240,106.005 243.92,93 255,93 255,93 262,101 262,101 262,101.06 251,108.629 251,112  Z"/>

<path  fill="#258F45" stroke-width="0" stroke="#258F45" d = " M188 114 C193.059,114 197.715,116 202,116 209.361,116 205,121.011 205,112 205,107.304 194,101.948 194,101 179.575,101 165.544,104.412 159,117.5 157.02,121.461 162,124.22 162,126 169.887,126 177.931,114 188,114  Z"/>

<path  fill="#258F45" stroke-width="0" stroke="#258F45" d = " M254 116 L253,117 C248.187,117 251,116.577 251,112 251,108.629 262,101.06 262,101 275.166,101 281.793,104.647 292.5,110 295.242,111.371 300.819,126 294,126 288.186,126 278.024,114 269,114 263.527,114 258.817,116 254,116  Z"/>

<path  fill="#23885E" stroke-width="0" stroke="#23885E" d = " M217 116 C217,121.649 215.704,129 209,129 209,124.826 202,118.428 202,116 209.361,116 205,121.011 205,112 209.304,112 212.464,115 217,115 217,115 217,116 217,116  Z"/>

<path  fill-rule="evenodd" fill="#23885E" stroke-width="0" stroke="#23885E" d = " M249 118 C249,119.93 250.93,118 249,118  M253 117 L247,129 C239.945,129 240,121.88 240,116 240,116 240,115 240,115 244.334,115 247.01,112 251,112 251,116.577 248.187,117 253,117  Z"/>

<path  fill="#228A5D" stroke-width="0" stroke="#228A5D" d = " M155 144 L155,145 C163.549,145 163.698,134.901 169.5,132 174.964,129.268 178.283,127 185,127 185,122.33 188,118.332 188,114 177.931,114 169.887,126 162,126 162,126 157,137 157,137 157,137 155,144 155,144  Z"/>

<path  fill="#23885C" stroke-width="0" stroke="#23885C" d = " M185 128 L209,129 C209,124.826 202,118.428 202,116 197.715,116 193.059,114 188,114 188,118.332 185,122.33 185,127 185,127 185,128 185,128  Z"/>

<path  fill="#23885C" stroke-width="0" stroke="#23885C" d = " M271 127 C271,128.684 266.321,128 265,128 259.292,128 253.216,129 247,129 247,129 253,117 253,117 253,117 254,116 254,116 258.817,116 263.527,114 269,114 269,118.757 271,121.969 271,127  Z"/>

<path  fill="#228A5D" stroke-width="0" stroke="#228A5D" d = " M299 137 C299,139.343 301,141.27 301,145 291.254,145 289.308,127 272,127 272,127 271,127 271,127 271,121.969 269,118.757 269,114 278.024,114 288.186,126 294,126 294,129.312 299,133.451 299,137  Z"/>

<path  fill="#24885D" stroke-width="0" stroke="#24885D" d = " M209 129 C209,132.493 216,140.321 216,145 224.311,145 223,123.358 223,117 223,117 217,116 217,116 217,121.649 215.704,129 209,129  Z"/>

<path  fill="#24885D" stroke-width="0" stroke="#24885D" d = " M240 145 L241,145 C241,138.999 247,134.458 247,129 239.945,129 240,121.88 240,116 240,116 233,117 233,117 233,122.922 232.862,145 240,145  Z"/>

<path  fill="#23885E" stroke-width="0" stroke="#23885E" d = " M254 116 L253,117 C253,117 254,116 254,116  Z"/>

<path  fill="#23895D" stroke-width="0" stroke="#23895D" d = " M236 159 L237,159 C237,159 237,158 237,158 237,153.447 240,149.25 240,145 232.862,145 233,122.922 233,117 233,117 223,117 223,117 223,123.358 224.311,145 216,145 216,149.104 219,153.018 219,158 219,158 219,159 219,159 219,159 220,159 220,159 220,159 225,158 225,158 225,158 228,152.5 228,152.5 228,152.5 228.5,149 228.5,149 228.5,149 229,154.5 229,154.5 229,154.5 231,157 231,157 232.624,157 233.75,159 236,159  Z"/>

<path  fill="#258F45" stroke-width="0" stroke="#258F45" d = " M249 118 C249,119.93 250.93,118 249,118  Z"/>

<path  fill="#238A5E" stroke-width="0" stroke="#238A5E" d = " M155 145 C155,150.885 153,157.18 153,165 159.54,165 173.032,139 183,139 183,139 183,138 183,138 183,136.785 183.624,128 185,128 185,128 185,127 185,127 178.283,127 174.964,129.268 169.5,132 163.698,134.901 163.549,145 155,145  Z"/>

<path  fill="#248A5D" stroke-width="0" stroke="#248A5D" d = " M273 138 C267.699,138 257.413,138.544 252.5,141 248.982,142.759 245.176,145 241,145 241,138.999 247,134.458 247,129 253.216,129 259.292,128 265,128 266.321,128 271,128.684 271,127 271,127 272,127 272,127 272,131.03 273,133.469 273,138  Z"/>

<path  fill="#238A5E" stroke-width="0" stroke="#238A5E" d = " M301 145 C301,150.688 304,158.829 304,165 295.704,165 284.283,139 273,139 273,139 273,138 273,138 273,133.469 272,131.03 272,127 289.308,127 291.254,145 301,145  Z"/>

<path  fill="#248A5D" stroke-width="0" stroke="#248A5D" d = " M183 138 C186.588,138 194.151,137.325 197.5,139 202.716,141.608 209.874,145 216,145 216,140.321 209,132.493 209,129 209,129 185,128 185,128 183.624,128 183,136.785 183,138  Z"/>

<path  fill="#209765" stroke-width="0" stroke="#209765" d = " M153 165 L152,166 C144.725,166 133,151.803 133,143 133,141.105 145.432,135 148,135 148,136.713 152.88,144 155,144 155,144 155,145 155,145 155,150.885 153,157.18 153,165  Z"/>

<path  fill="#209665" stroke-width="0" stroke="#209665" d = " M157 137 L155,144 C152.88,144 148,136.713 148,135 151.489,135 153.32,137 157,137  Z"/>

<path  fill="#209665" stroke-width="0" stroke="#209665" d = " M299 137 C299,139.343 301,141.27 301,145 303.293,145 308,136.768 308,135 304.538,135 302.973,137 299,137  Z"/>

<path  fill="#209765" stroke-width="0" stroke="#209765" d = " M304 165 L304,166 C311.4,166 324,150.571 324,143 320.376,143 314.119,135 308,135 308,136.768 303.293,145 301,145 301,150.688 304,158.829 304,165  Z"/>

<path  fill="#248A5B" stroke-width="0" stroke="#248A5B" d = " M218 158 L219,158 C219,153.018 216,149.104 216,145 209.874,145 202.716,141.608 197.5,139 194.151,137.325 186.588,138 183,138 183,138 183,139 183,139 183,139 183,148 183,148 190.023,148 197.609,150.054 203.5,153 204.614,153.557 209,153.41 209,155 209,155 216,157 216,157 216,157 217,158 217,158 217,158 218,158 218,158  Z"/>

<path  fill="#248A5B" stroke-width="0" stroke="#248A5B" d = " M237 158 L238,158 C238,158 247,155 247,155 247,153.41 251.386,153.557 252.5,153 258.734,149.883 266.526,148 274,148 274,144.441 273,142.496 273,139 273,139 273,138 273,138 267.699,138 257.413,138.544 252.5,141 248.982,142.759 245.176,145 241,145 241,145 240,145 240,145 240,149.25 237,153.447 237,158  Z"/>

<path  fill="#238A5D" stroke-width="0" stroke="#238A5D" d = " M151 174 L155,174 C155,171.9 168.534,158.966 171.5,156 171.5,156 177,151 177,151 177,149.253 177.253,149 179,149 179,149 180,149 180,149 180,147.527 181.952,148 183,148 183,148 183,139 183,139 173.032,139 159.54,165 153,165 153,165 152,166 152,166 152,168.707 151,171.903 151,174  Z"/>

<path  fill="#238A5D" stroke-width="0" stroke="#238A5D" d = " M301 173 L305,174 C305,174 304,166 304,166 304,166 304,165 304,165 295.704,165 284.283,139 273,139 273,142.496 274,144.441 274,148 282.856,148 289.729,163.615 296.5,167 298.952,168.226 297.349,173 301,173  Z"/>

<path  fill="#209764" stroke-width="0" stroke="#209764" d = " M152 166 C152,168.707 151,171.903 151,174 143.6,174 128,153.343 128,147 128,147 132,143 132,143 132,143 133,143 133,143 133,151.803 144.725,166 152,166  Z"/>

<path  fill="#209764" stroke-width="0" stroke="#209764" d = " M304 166 L305,174 C305,174 311.5,173 311.5,173 314.965,171.268 328,150.384 328,147 328,145.634 325.634,143 324,143 324,150.571 311.4,166 304,166  Z"/>

<path  fill-rule="evenodd" fill="#99D2BD" stroke-width="0" stroke="#99D2BD" d = " M187 158 C187,162.275 194.975,158 187,158  M157 179 C155.316,179 156,183.679 156,185 156,191.261 159,197.249 159,203 157.155,203 157.559,199.619 157,198.5 150.36,185.22 155,186.582 155,174 155,171.9 168.534,158.966 171.5,156 171.5,156 177,151 177,151 177,166.179 198.064,149 180,149 180,147.527 181.952,148 183,148 190.023,148 197.609,150.054 203.5,153 204.614,153.557 209,153.41 209,155 205.379,155 194,151.22 194,156.5 194,159.457 199,161.488 199,165 199,165 197,165 197,165 197,159.723 179.86,161 177,161 177,161 173,163 173,163 170.897,163 164,166.18 164,169 164,169 163,170 163,170 159.472,170 157,176.283 157,179  Z"/>

<path  fill-rule="evenodd" fill="#99D2BD" stroke-width="0" stroke="#99D2BD" d = " M265 158 C265,162.563 274.221,158 265,158  M271 149 C271,150.791 267.73,151.959 269,154.5 272.403,161.306 285.698,153.599 276.5,149 L271,149  M300 179 L299,199 C299,199 301,195.5 301,195.5 306.231,185.037 301,182.899 301,173 297.349,173 298.952,168.226 296.5,167 289.729,163.615 282.856,148 274,148 266.526,148 258.734,149.883 252.5,153 251.386,153.557 247,153.41 247,155 248.95,155 264.78,151.941 262,157.5 260.734,160.032 257,162.024 257,165 257,165 259,165 259,165 259,165 265.5,161 265.5,161 269.554,158.973 275.15,161 279,161 285.584,161 300,171.723 300,179  Z"/>

<path  fill="#99D2BD" stroke-width="0" stroke="#99D2BD" d = " M179 149 C177.253,149 177,149.253 177,151 178.747,151 179,150.747 179,149  Z"/>

<path  fill="#9DF0D1" stroke-width="0" stroke="#9DF0D1" d = " M180 149 C198.064,149 177,166.179 177,151 178.747,151 179,150.747 179,149 179,149 180,149 180,149  Z"/>

<path  fill="#9DF0D1" stroke-width="0" stroke="#9DF0D1" d = " M271 149 C271,150.791 267.73,151.959 269,154.5 272.403,161.306 285.698,153.599 276.5,149 L271,149  Z"/>

<path  fill="#9AD1BD" stroke-width="0" stroke="#9AD1BD" d = " M213 249 L214,249 C214,249 215,248 215,248 215,248 216,247 216,247 216,247 223,237 223,237 223,235.643 223.647,231 225,231 225,231 225,229 225,229 225,229 226,228 226,228 226,228 226,224 226,224 226,224 227,223 227,223 227,223 227,175 227,175 225.941,175 225,168.257 225,167 225,167 225,166 225,166 225,166 220,159 220,159 220,159 219,159 219,159 219,159 218,158 218,158 218,158 217,158 217,158 217,158 216,157 216,157 216,157 209,155 209,155 205.379,155 194,151.22 194,156.5 194,159.457 199,161.488 199,165 199,165 201,169 201,169 201,169 202,187.5 202,187.5 200.527,190.445 199,195.622 199,199 199,200.272 197.886,210 197,210 197,210 197,218 197,218 197,218 196,219 196,219 196,226.142 192,231.568 192,239 192,239 194,246 194,246 194,246 205.5,251 205.5,251 205.5,251 212,250 212,250 212,250 213,249 213,249  Z"/>

<path  fill="#9AD1BD" stroke-width="0" stroke="#9AD1BD" d = " M241 248 L242,249 C242,249 246.5,251 246.5,251 250.265,252.882 256.652,248.424 259.5,247 260.658,246.421 263,247.341 263,245 263,243.436 264,241.124 264,239 264,232.41 260,225.957 260,219 260,219 259,207 259,207 259,204.903 258,201.707 258,199 256.546,199 256.567,193.634 256,192.5 252.124,184.747 256,176.651 256,169 253.111,169 257,165.701 257,165 257,162.024 260.734,160.032 262,157.5 264.78,151.941 248.95,155 247,155 247,155 238,158 238,158 238,158 237,159 237,159 237,159 236,159 236,159 236,159 231,167 231,167 231,167 231,169 231,169 231,170.145 231.579,173 230,173 230,173 230,177 230,177 230,177 230,192.5 230,192.5 230,193.69 230.614,197 229,197 229,197 229,217 229,217 230.579,217 230,219.855 230,221 230,221 231,230 231,230 232.361,230 233.379,236.258 234,237.5 234,237.5 241,248 241,248  Z"/>

<path  fill="#99D2BD" stroke-width="0" stroke="#99D2BD" d = " M216 157 L217,158 C217,158 216,157 216,157  Z"/>

<path  fill="#99D2BD" stroke-width="0" stroke="#99D2BD" d = " M236 159 L231,167 C231,163.272 231,160.413 231,157 232.624,157 233.75,159 236,159  Z"/>

<path  fill="#9DEFD2" stroke-width="0" stroke="#9DEFD2" d = " M187 158 C187,162.275 194.975,158 187,158  Z"/>

<path  fill="#99D2BD" stroke-width="0" stroke="#99D2BD" d = " M219 158 L219,159 C219,159 218,158 218,158 218,158 219,158 219,158  Z"/>

<path  fill="#99D2BD" stroke-width="0" stroke="#99D2BD" d = " M220 159 L225,166 C225,166 225,158 225,158 225,158 220,159 220,159  Z"/>

<path  fill="#99D2BD" stroke-width="0" stroke="#99D2BD" d = " M238 158 L237,159 C237,159 237,158 237,158 237,158 238,158 238,158  Z"/>

<path  fill="#9DEFD2" stroke-width="0" stroke="#9DEFD2" d = " M265 158 C265,162.563 274.221,158 265,158  Z"/>

<path  fill="#54BF94" stroke-width="0" stroke="#54BF94" d = " M183 234 C186.035,234 188.133,239 192,239 192,231.568 196,226.142 196,219 194.049,219 195.523,216.546 195,215.5 195,215.5 191,204.5 191,204.5 189.603,201.706 181.726,189.048 183,186.5 185.019,182.462 193,190.771 193,195 195.33,195 196.227,199 199,199 199,195.622 200.527,190.445 202,187.5 202,187.5 201,169 201,169 199.634,169 197,166.634 197,165 197,159.723 179.86,161 177,161 177,163.109 174.465,163 173,163 173,164.772 165.654,169 164,169 164,169 163,170 163,170 163,171.292 157.687,179 157,179 157,193.711 164.917,205.334 171,217.5 173.451,222.403 183,228.434 183,234  Z"/>

<path  fill="#54BF94" stroke-width="0" stroke="#54BF94" d = " M273 234 C273,236.371 266.593,239 264,239 264,232.41 260,225.957 260,219 262.064,219 264.07,207.359 265,205.5 265,205.5 274,187.5 274,187.5 271.095,181.69 263,191.524 263,195 261.461,195 260.813,199 258,199 256.546,199 256.567,193.634 256,192.5 252.124,184.747 256,176.651 256,169 257.712,169 259,166.429 259,165 259,165 265.5,161 265.5,161 269.554,158.973 275.15,161 279,161 279,163.13 285.044,164.272 286.5,165 289.969,166.735 299,175.081 299,179 299,194.347 291.316,205.868 285,218.5 282.653,223.195 273,228.678 273,234  Z"/>

<path  fill="#CACAC9" stroke-width="0" stroke="#CACAC9" d = " M177 161 L173,163 C174.465,163 177,163.109 177,161  Z"/>

<path  fill="#CACAC9" stroke-width="0" stroke="#CACAC9" d = " M299 179 L300,179 C300,171.723 285.584,161 279,161 279,163.13 285.044,164.272 286.5,165 289.969,166.735 299,175.081 299,179  Z"/>

<path  fill="#CACAC9" stroke-width="0" stroke="#CACAC9" d = " M173 163 C170.897,163 164,166.18 164,169 165.654,169 173,164.772 173,163  Z"/>

<path  fill="#CACAC9" stroke-width="0" stroke="#CACAC9" d = " M199 165 L201,169 C199.634,169 197,166.634 197,165 197,165 199,165 199,165  Z"/>

<path  fill="#CACAC9" stroke-width="0" stroke="#CACAC9" d = " M259 165 C259,166.429 257.712,169 256,169 253.111,169 257,165.701 257,165 257,165 259,165 259,165  Z"/>

<path  fill="#99D2BD" stroke-width="0" stroke="#99D2BD" d = " M225 167 C226.931,167 227,173.225 227,175 225.941,175 225,168.257 225,167  Z"/>

<path  fill="#CACAC9" stroke-width="0" stroke="#CACAC9" d = " M164 169 L163,170 C163,170 164,169 164,169  Z"/>

<path  fill="#99D2BD" stroke-width="0" stroke="#99D2BD" d = " M231 169 C229.421,169 230,171.855 230,173 231.579,173 231,170.145 231,169  Z"/>

<path  fill="#CACAC9" stroke-width="0" stroke="#CACAC9" d = " M163 170 C159.472,170 157,176.283 157,179 157.687,179 163,171.292 163,170  Z"/>

<path  fill="#99D2BD" stroke-width="0" stroke="#99D2BD" d = " M230 177 C228.386,177 229,180.31 229,181.5 L229,197 C230.614,197 230,193.69 230,192.5 230,192.5 230,177 230,177  Z"/>

<path  fill="#CAC8C7" stroke-width="0" stroke="#CAC8C7" d = " M179 234 L183,234 C183,228.434 173.451,222.403 171,217.5 164.917,205.334 157,193.711 157,179 155.316,179 156,183.679 156,185 156,191.261 159,197.249 159,203 159,209.5 167.991,221.482 171,227.5 172.046,229.592 179,233.274 179,234  Z"/>

<path  fill="#CAC8C7" stroke-width="0" stroke="#CAC8C7" d = " M273 234 L277,234 C283.066,234 298,208.219 298,202 298,202 299,200 299,200 299,200 299,199 299,199 299,199 300,179 300,179 300,179 299,179 299,179 299,194.347 291.316,205.868 285,218.5 282.653,223.195 273,228.678 273,234  Z"/>

<path  fill="#CBCBC7" stroke-width="0" stroke="#CBCBC7" d = " M197 218 L196,219 C194.049,219 195.523,216.546 195,215.5 195,215.5 191,204.5 191,204.5 189.603,201.706 181.726,189.048 183,186.5 185.019,182.462 193,190.771 193,195 193,200.494 197,204.083 197,210 197,210 197,218 197,218  Z"/>

<path  fill="#CBCBC7" stroke-width="0" stroke="#CBCBC7" d = " M259 207 L260,219 C262.064,219 264.07,207.359 265,205.5 265,205.5 274,187.5 274,187.5 271.095,181.69 263,191.524 263,195 263,197.009 260.616,207 259,207  Z"/>

<path  fill="#99D2BD" stroke-width="0" stroke="#99D2BD" d = " M199 199 C199,200.272 197.886,210 197,210 197,204.083 193,200.494 193,195 195.33,195 196.227,199 199,199  Z"/>

<path  fill="#99D2BD" stroke-width="0" stroke="#99D2BD" d = " M258 199 C258,201.707 259,204.903 259,207 260.616,207 263,197.009 263,195 261.461,195 260.813,199 258,199  Z"/>

<path  fill="#99D2BD" stroke-width="0" stroke="#99D2BD" d = " M299 200 L298,202 C298,202 299,200 299,200  Z"/>

<path  fill="#99D2BD" stroke-width="0" stroke="#99D2BD" d = " M229 217 C230.579,217 230,219.855 230,221 228.421,221 229,218.145 229,217  Z"/>

<path  fill="#54BF94" stroke-width="0" stroke="#54BF94" d = " M197 218 L196,219 C196,219 197,218 197,218  Z"/>

<path  fill="#99D2BD" stroke-width="0" stroke="#99D2BD" d = " M227 223 L226,224 C226,224 227,223 227,223  Z"/>

<path  fill="#C7CBCA" stroke-width="0" stroke="#C7CBCA" d = " M226 228 L225,229 C225,229 226,228 226,228  Z"/>

<path  fill="#C7CBCA" stroke-width="0" stroke="#C7CBCA" d = " M231 230 C232.361,230 233.379,236.258 234,237.5 L241,248 C235.369,248 231,234.524 231,230  Z"/>

<path  fill="#C7CBCA" stroke-width="0" stroke="#C7CBCA" d = " M225 231 C223.647,231 223,235.643 223,237 225.698,237 225,232.745 225,231  Z"/>

<path  fill="#99D2BD" stroke-width="0" stroke="#99D2BD" d = " M192 239 L194,246 C190.91,246 179,236.376 179,234 179,234 183,234 183,234 186.035,234 188.133,239 192,239  Z"/>

<path  fill="#99D2BD" stroke-width="0" stroke="#99D2BD" d = " M264 239 C264,241.124 263,243.436 263,245 265.761,245 277,237.456 277,234 277,234 273,234 273,234 273,236.371 266.593,239 264,239  Z"/>

<path  fill="#C7CBCA" stroke-width="0" stroke="#C7CBCA" d = " M216 247 L217,247 C220.415,247 223,239.49 223,237 223,237 216,247 216,247  Z"/>

<path  fill="#C7CBCA" stroke-width="0" stroke="#C7CBCA" d = " M215 248 L216,248 C216,248 216,247 216,247 216,247 215,248 215,248  Z"/>

<path  fill="#99D2BD" stroke-width="0" stroke="#99D2BD" d = " M217 247 L216,248 C216,248 216,247 216,247 216,247 217,247 217,247  Z"/>

<path  fill="#C7CBCA" stroke-width="0" stroke="#C7CBCA" d = " M215 248 L214,249 C214,249 215,248 215,248  Z"/>

<path  fill="#99D2BD" stroke-width="0" stroke="#99D2BD" d = " M241 248 L242,249 C242,249 241,248 241,248  Z"/>

<path  fill="#C7CBCA" stroke-width="0" stroke="#C7CBCA" d = " M213 249 L212,250 C212,250 213,249 213,249  Z"/>

</g>
</svg>
