<svg xmlns="http://www.w3.org/2000/svg" xmlns:xlink="http://www.w3.org/1999/xlink"  viewBox="0 0 456 320">
<g>
<rect width="456" height="320" fill="#000000"  stroke-width="0" /> 
<path  fill-rule="evenodd" fill="#FCFB90" stroke-width="0" stroke="#FCFB90" d = " M193 64 L185.5,70 C180.974,74.5257 177.602,81.2963 175,86.5 L171,96 L171.5,100 L176,88.5 L191,69.5 L197,64.5 L193,64  M269 127 L274.5,122 C276.919,120.791 282.535,121.431 284,118.5 291.668,103.165 279.165,84.6647 269,74.5 266.396,71.8961 264.632,66.5661 261.5,65 256.155,62.3273 229.208,59.646 224.5,62 L215.5,61 C213.977,61.7617 198.67,64.5852 197.5,64 196.489,63.4945 199.178,58.6609 200.5,58 L214.5,58 C222.246,54.1271 233.754,54.1271 241.5,58 L256.5,58 C258.781,59.1407 256.97,62.2351 258.5,63 269.7,68.5999 277.243,76.9869 283,88.5 287.34,97.1804 285.278,112.056 289,119.5 291.036,123.573 295.496,126.492 297,129.5 298.312,132.123 301.883,135 305,135 305,123.513 301.491,91.4815 297,82.5 292.532,73.5648 284,63.6306 284,53 280.696,53 280.296,46.398 277.5,45 269.642,41.0709 261.203,38.8515 253.5,35 253.5,35 237,35 237,35 221.593,35 202.378,32.561 189.5,39 185.091,41.2044 181.309,43.1907 177.5,47 175.596,48.9045 175.413,53 172,53 172,64.2652 163.702,74.0957 159,83.5 154.707,92.086 157.268,103.963 153,112.5 153,112.5 153,127.5 153,127.5 152.054,129.392 151,132.872 151,135 163.073,135 165.477,118.546 169,111.5 169.687,110.126 168.261,101 170.5,101 170.5,101 171,105 171,105 171,108.047 169.283,113.065 171,116.5 173.23,120.959 178.095,120.298 181.5,122 181.5,122 187,127 187,127 187,110.323 182.792,110.916 191,94.5 194.476,87.5484 205.225,87.6376 210.5,85 214.371,83.0644 220.406,84 225,84 239.992,84 260.721,82.9418 269,99.5 273.462,108.424 269,118.159 269,127  Z"/>

<path  fill-rule="evenodd" fill="#FDFB8F" stroke-width="0" stroke="#FDFB8F" d = " M158 58 C158,59.93 159.93,58 158,58  M130 119 C134.227,119 134.82,109.859 136,107.5 L145,80.5 L147,69.5 L157.5,59 L151.5,67 C148.68,69.8196 148.916,73.6682 147,77.5 145.191,81.1188 146.843,86.8134 145,90.5 140.453,99.5947 130.082,135 151,135 151,132.872 152.054,129.392 153,127.5 153,127.5 153,112.5 153,112.5 157.268,103.963 154.707,92.086 159,83.5 163.702,74.0957 172,64.2652 172,53 172,41.4514 148.764,48.8678 144.5,51 144.5,51 129,61.5 129,61.5 129,61.5 125,65.5 125,65.5 124.477,66.5456 125.951,69 124,69 124,69 128,79.5 128,79.5 129.584,82.668 128.351,93.7983 127,96.5 123.963,102.575 130,112.819 130,119  Z"/>

<path  fill="#FDFB8F" stroke-width="0" stroke="#FDFB8F" d = " M326 119 C322.579,119 321.115,108.731 320,106.5 L311,79.5 C309.117,75.7331 311.52,69.0101 307.5,67 306.158,66.3291 301.44,57.5301 298.5,59 L303,64.5 C304.882,68.2633 307.172,71.8445 309,75.5 310.94,79.3802 309.039,85.5771 311,89.5 316.847,101.195 323.27,120.23 312.5,131 310.614,132.886 307.641,135 305,135 305,123.513 301.491,91.4815 297,82.5 292.532,73.5648 284,63.6306 284,53 285.213,53 287.811,47.8446 289.5,47 299.393,42.0533 332,59.9017 332,69 332,70.044 328.716,81.0681 328,82.5 328,82.5 329,94 329,94 329,94 329,107.5 329,107.5 327.376,110.747 326,115.172 326,119  Z"/>

<path  fill-rule="evenodd" fill="#CBC9CC" stroke-width="0" stroke="#CBC9CC" d = " M211 143 C211,143.764 206.016,152.258 211.5,155 L214.5,153 C217.766,151.367 221.249,150.625 224.5,149 230.786,145.857 241.678,155 244.5,155 248.116,155 247.902,144.201 245.5,143 243.767,142.133 241.756,144.372 240.5,145 L224,146 C219.688,146 215.096,143 211,143  M258 162 C258.893,162 263,165.652 263,163 263,163 259.5,161 259.5,161 252.945,157.723 238.445,152.027 254.5,144 263.65,139.425 266.731,147 270,147 270,143.86 275.011,146 277,146 277,146 277,139.5 277,139.5 279.626,134.249 305.507,147.004 309.5,149 314.756,151.628 318.587,144.044 324.5,147 327.503,148.502 327,153.978 327,157 327,158.074 333,159.338 333,165 333,165 334.5,167 334.5,167 334.5,167 337.5,163 337.5,163 341.984,160.758 346.527,160 352,160 357.278,160 362.067,162.783 366.5,165 368.618,166.059 368.746,161 371,161 371,161 374,159.5 374,159.5 374,157.708 370.639,159.93 370.5,160 370.5,160 363.5,159 363.5,159 363.5,159 343,150 343,150 339.642,150 330.811,134.879 333,130.5 333,130.5 339,124.5 339,124.5 339,124.5 335.5,125 335.5,125 333.678,124.089 326,121.45 326,119 322.579,119 321.115,108.731 320,106.5 320,106.5 311,79.5 311,79.5 309.117,75.7331 311.52,69.0101 307.5,67 306.158,66.3291 301.44,57.5301 298.5,59 298.5,59 303,64.5 303,64.5 304.882,68.2633 307.172,71.8445 309,75.5 310.94,79.3802 309.039,85.5771 311,89.5 316.847,101.195 323.27,120.23 312.5,131 310.614,132.886 307.641,135 305,135 301.883,135 298.312,132.123 297,129.5 295.496,126.492 291.036,123.573 289,119.5 285.278,112.056 287.34,97.1804 283,88.5 277.243,76.9869 269.7,68.5999 258.5,63 256.97,62.2351 258.781,59.1407 256.5,58 256.5,58 241.5,58 241.5,58 233.754,54.1271 222.246,54.1271 214.5,58 214.5,58 200.5,58 200.5,58 199.178,58.6609 196.489,63.4945 197.5,64 198.67,64.5852 213.977,61.7617 215.5,61 215.5,61 224.5,62 224.5,62 229.208,59.646 256.155,62.3273 261.5,65 264.632,66.5661 266.396,71.8961 269,74.5 279.165,84.6647 291.668,103.165 284,118.5 282.535,121.431 276.919,120.791 274.5,122 274.5,122 269,127 269,127 269,131.747 256.312,133.594 253.5,135 241.115,141.193 214.909,141.204 202.5,135 199.778,133.639 187,131.371 187,127 187,127 181.5,122 181.5,122 178.095,120.298 173.23,120.959 171,116.5 169.283,113.065 171,108.047 171,105 171,105 170.5,101 170.5,101 168.261,101 169.687,110.126 169,111.5 165.477,118.546 163.073,135 151,135 130.082,135 140.453,99.5947 145,90.5 146.843,86.8134 145.191,81.1188 147,77.5 148.916,73.6682 148.68,69.8196 151.5,67 151.5,67 157.5,59 157.5,59 157.5,59 147,69.5 147,69.5 147,69.5 145,80.5 145,80.5 145,80.5 136,107.5 136,107.5 134.82,109.859 134.227,119 130,119 130,121.195 121.345,125.922 119.5,125 119.5,125 113,118.5 113,118.5 111.199,122.102 121.726,126.951 123,129.5 125.465,134.43 119.085,150 113,150 113,151.9 106.882,152.309 105.5,153 102.376,154.562 88.9159,161.708 85.5,160 85.5,160 82.5,158 82.5,158 82.5,158 85,161 85,161 87.7457,161 87.5844,166.458 90.5,165 95.1959,162.652 99.3513,160 105,160 112.808,160 119.597,166 123,166 123,161.919 125.389,157 130,157 130,152.951 127.97,148.765 133.5,146 138.487,143.506 141.513,151.494 146.5,149 150.608,146.946 177.413,134.326 180,139.5 180,139.5 179,146 179,146 182.814,146 186,142.509 186,147 188.505,147 191.533,142 194.5,142 201.578,142 211.016,148.468 207,156.5 205.808,158.884 195,160.762 195,163 195,163 199,162 199,162 199,162 201,162 201,162 201,161.448 209.392,159.554 210.5,159 221.122,153.689 234.878,153.689 245.5,159 246.65,159.575 256,161.525 256,162 256,162 258,162 258,162  Z"/>

<path  fill="#CBC9CC" stroke-width="0" stroke="#CBC9CC" d = " M158 58 C158,59.93 159.93,58 158,58  Z"/>

<path  fill="#CBC9CC" stroke-width="0" stroke="#CBC9CC" d = " M193 64 L185.5,70 C180.974,74.5257 177.602,81.2963 175,86.5 L171,96 L171.5,100 L176,88.5 L191,69.5 L197,64.5 L193,64  Z"/>

<path  fill-rule="evenodd" fill="#FCFC90" stroke-width="0" stroke="#FCFC90" d = " M109 90 C109,93.7225 104.522,95.4558 103,98.5 102.842,98.8151 107,103.076 107,105.5 107,108.023 112.749,117.002 113,116.5 L107,100.5 C107,99.1603 111.675,90 109,90  M68 129 C89.3589,129 84.5192,139.01 100.5,147 102.312,147.906 113,147.711 113,150 119.085,150 125.465,134.43 123,129.5 121.726,126.951 111.199,122.102 113,118.5 113,118.5 119.5,125 119.5,125 121.345,125.922 130,121.195 130,119 130,112.819 123.963,102.575 127,96.5 128.351,93.7983 129.584,82.668 128,79.5 128,79.5 124,69 124,69 104.331,69 102.291,77.2094 89,90.5 81.1468,98.3532 72.3178,105.864 67,116.5 64.9619,120.576 68,124.931 68,129  Z"/>

<path  fill-rule="evenodd" fill="#FCFC90" stroke-width="0" stroke="#FCFC90" d = " M342 119 L339.5,124 C341.275,124.888 344.392,119 342,119  M348 103 C348,106.922 346.616,110.268 345,113.5 344.829,113.841 341.797,118 343.5,118 L349,107.5 C349.504,106.492 349.22,103 348,103  M347 91 C347,93.1129 347.141,93.7815 348,95.5 L349,102.5 L353,99.5 C353.831,97.8381 347.802,91 347,91  M388 129 C365.667,129 373.862,138.319 358.5,146 356.396,147.052 343,148.562 343,150 339.642,150 330.811,134.879 333,130.5 333,130.5 339,124.5 339,124.5 339,124.5 335.5,125 335.5,125 333.678,124.089 326,121.45 326,119 326,115.172 327.376,110.747 329,107.5 329,107.5 329,94 329,94 329,94 328,82.5 328,82.5 328.716,81.0681 332,70.044 332,69 340.612,69 354.546,70.5921 359,79.5 359,79.5 367.5,91 367.5,91 367.5,91 383,105.5 383,105.5 385.922,111.344 392.558,118.385 389,125.5 388.477,126.546 389.951,129 388,129  Z"/>

<path  fill="#FFFC8E" stroke-width="0" stroke="#FFFC8E" d = " M187 127 C187,131.371 199.778,133.639 202.5,135 214.909,141.204 241.115,141.193 253.5,135 256.312,133.594 269,131.747 269,127 269,118.159 273.462,108.424 269,99.5 260.721,82.9418 239.992,84 225,84 220.406,84 214.371,83.0644 210.5,85 205.225,87.6376 194.476,87.5484 191,94.5 182.792,110.916 187,110.323 187,127  Z"/>

<path  fill="#CBC9CC" stroke-width="0" stroke="#CBC9CC" d = " M109 90 C109,93.7225 104.522,95.4558 103,98.5 102.842,98.8151 107,103.076 107,105.5 107,108.023 112.749,117.002 113,116.5 L107,100.5 C107,99.1603 111.675,90 109,90  Z"/>

<path  fill="#CBC9CC" stroke-width="0" stroke="#CBC9CC" d = " M347 91 C347,93.1129 347.141,93.7815 348,95.5 L349,102.5 L353,99.5 C353.831,97.8381 347.802,91 347,91  Z"/>

<path  fill="#CBC9CC" stroke-width="0" stroke="#CBC9CC" d = " M348 103 C348,106.922 346.616,110.268 345,113.5 344.829,113.841 341.797,118 343.5,118 L349,107.5 C349.504,106.492 349.22,103 348,103  Z"/>

<path  fill="#CBC9CC" stroke-width="0" stroke="#CBC9CC" d = " M342 119 L339.5,124 C341.275,124.888 344.392,119 342,119  Z"/>

<path  fill="#FCFA91" stroke-width="0" stroke="#FCFA91" d = " M85 161 L77,167 C77,167 71,160.5 71,160.5 69.2991,157.098 61.8708,146.758 64,142.5 64,142.5 68,129 68,129 89.3589,129 84.5192,139.01 100.5,147 102.312,147.906 113,147.711 113,150 113,151.9 106.882,152.309 105.5,153 102.376,154.562 88.9159,161.708 85.5,160 85.5,160 82.5,158 82.5,158 82.5,158 85,161 85,161  Z"/>

<path  fill="#FCFA91" stroke-width="0" stroke="#FCFA91" d = " M371 161 L380,167 C380,167 385,161.5 385,161.5 385,161.5 391,151.5 391,151.5 395.191,143.118 388,136.276 388,129 365.667,129 373.862,138.319 358.5,146 356.396,147.052 343,148.562 343,150 343,150 363.5,159 363.5,159 363.5,159 370.5,160 370.5,160 370.639,159.93 374,157.708 374,159.5 374,159.5 371,161 371,161  Z"/>

<path  fill="#FFFDBC" stroke-width="0" stroke="#FFFDBC" d = " M156 169 L157,169 C157,169 158,168 158,168 158,168 159,168 159,168 159,168 159,167 159,167 159,159.779 165.917,153 173,153 173,153 175,152 175,152 175,152 179,146 179,146 179,146 180,139.5 180,139.5 177.413,134.326 150.608,146.946 146.5,149 141.513,151.494 138.487,143.506 133.5,146 127.97,148.765 130,152.951 130,157 134.856,157 139,163.779 139,168 139,168 143.5,171 143.5,171 143.5,171 155,170 155,170 155,170 156,169 156,169  Z"/>

<path  fill="#FFFDBC" stroke-width="0" stroke="#FFFDBC" d = " M300 169 L301,169 C303.947,169 308.527,172.986 312.5,171 312.5,171 318,167 318,167 318,162.126 321.907,157 327,157 327,153.978 327.503,148.502 324.5,147 318.587,144.044 314.756,151.628 309.5,149 305.507,147.004 279.626,134.249 277,139.5 277,139.5 277,146 277,146 277,146 281,152 281,152 281,152 282,152 282,152 289.931,152 297,159.304 297,167 297,167 298,168 298,168 298,168 300,169 300,169  Z"/>

<path  fill="#FFFCBC" stroke-width="0" stroke="#FFFCBC" d = " M192 164 L190,165 C187.768,165 184.765,159 181,159 181,154.113 186,151.211 186,147 188.505,147 191.533,142 194.5,142 201.578,142 211.016,148.468 207,156.5 205.808,158.884 195,160.762 195,163 195,163 193,163 193,163 193,163 192,164 192,164  Z"/>

<path  fill="#FFFCBC" stroke-width="0" stroke="#FFFCBC" d = " M264 163 L266,165 C268.879,165 271.63,159 275,159 275,154.157 270,150.786 270,147 266.731,147 263.65,139.425 254.5,144 238.445,152.027 252.945,157.723 259.5,161 259.5,161 263,163 263,163 263,163 264,163 264,163  Z"/>

<path  fill="#CBC8CA" stroke-width="0" stroke="#CBC8CA" d = " M211 143 C211,143.764 206.016,152.258 211.5,155 L214.5,153 C217.766,151.367 221.249,150.625 224.5,149 230.786,145.857 241.678,155 244.5,155 248.116,155 247.902,144.201 245.5,143 243.767,142.133 241.756,144.372 240.5,145 L224,146 C219.688,146 215.096,143 211,143  Z"/>

<path  fill="#F0F080" stroke-width="0" stroke="#F0F080" d = " M179 159 L181,159 C181,154.113 186,151.211 186,147 186,142.509 182.814,146 179,146 179,146 175,152 175,152 181.132,152 179,154.826 179,159  Z"/>

<path  fill="#F0F080" stroke-width="0" stroke="#F0F080" d = " M275 159 L277,159 C277,155.164 276.281,152 281,152 281,152 277,146 277,146 275.011,146 270,143.86 270,147 270,150.786 275,154.157 275,159  Z"/>

<path  fill="#F0F080" stroke-width="0" stroke="#F0F080" d = " M175 152 L173,153 C173,153 175,152 175,152  Z"/>

<path  fill="#FEB1D8" stroke-width="0" stroke="#FEB1D8" d = " M179 159 C179,161.289 172.822,165 171,165 158.722,165 173,154.61 173,153 173,153 175,152 175,152 181.132,152 179,154.826 179,159  Z"/>

<path  fill="#FEB1D8" stroke-width="0" stroke="#FEB1D8" d = " M285 165 L289,165 C289,161.889 290.599,160.698 289,157.5 289,157.5 282,152 282,152 282,152 281,152 281,152 276.281,152 277,155.164 277,159 277,159 285,165 285,165  Z"/>

<path  fill="#F0F080" stroke-width="0" stroke="#F0F080" d = " M295 167 L297,167 C297,159.304 289.931,152 282,152 282,152 289,157.5 289,157.5 290.599,160.698 289,161.889 289,165 290.048,165 292,164.527 292,166 292,166 293,166 293,166 293,166 295,167 295,167  Z"/>

<path  fill="#F0F080" stroke-width="0" stroke="#F0F080" d = " M160 167 L161,167 C161,167 163,166 163,166 163,166 164,166 164,166 164,164.514 167,164.514 167,166 167,166 168,166 168,166 168,166 170,166 170,166 170,166 171,165 171,165 158.722,165 173,154.61 173,153 165.917,153 159,159.779 159,167 159,167 160,167 160,167  Z"/>

<path  fill="#FEFA91" stroke-width="0" stroke="#FEFA91" d = " M239 176 L240,176 C240,176 242,175 242,175 242,175 243,175 243,175 243,175 245,174 245,174 245,174 247,173 247,173 247,173 250,172 250,172 250,172 250,171 250,171 240.624,171 244.148,162 256,162 256,161.525 246.65,159.575 245.5,159 234.878,153.689 221.122,153.689 210.5,159 209.392,159.554 201,161.448 201,162 211.374,162 214.805,171 207,171 207,171 207,172 207,172 207,172 209,173 209,173 209,173 213,175 213,175 213,175 214,175 214,175 214,175 217,175 217,175 217,171.886 239,169.34 239,176  Z"/>

<path  fill="#FFFDBB" stroke-width="0" stroke="#FFFDBB" d = " M133 181 L134,181 C134,181 135,180 135,180 135,180 138,179 138,179 138,179 139,168 139,168 139,163.779 134.856,157 130,157 125.389,157 123,161.919 123,166 123,171.03 125,174.72 125,180 125,180 127.5,182 127.5,182 127.5,182 133,181 133,181  Z"/>

<path  fill="#FFFDBB" stroke-width="0" stroke="#FFFDBB" d = " M323 181 L324,181 C325.647,181 331,183.001 331,180 331,174.554 333,170.816 333,165 333,159.338 327,158.074 327,157 321.907,157 318,162.126 318,167 318,167 318,178 318,178 318,178 320,179 320,179 320,179 323,181 323,181  Z"/>

<path  fill="#FEFDBC" stroke-width="0" stroke="#FEFDBC" d = " M180 173 L177,174 C177,174 175,172 175,172 175,172 175,171 175,171 175,171 174,170 174,170 174,170 172,168 172,168 172,168 171,167 171,167 171,167 170,167 170,167 170,167 170,166 170,166 170,166 171,165 171,165 172.822,165 179,161.289 179,159 179,159 181,159 181,159 184.765,159 187.768,165 190,165 190,165 188,169 188,169 188,169 187,169 187,169 187,169 186,170 186,170 186,170 185,170 185,170 185,170 184,171 184,171 184,171 183,171 183,171 183,171 182,172 182,172 182,172 180,173 180,173  Z"/>

<path  fill="#FEFDBC" stroke-width="0" stroke="#FEFDBC" d = " M280 173 L281,173 C281,173 281,172 281,172 281,172 282,171 282,171 282,171 282,170 282,170 282,170 283,169 283,169 283,169 284,168 284,168 284,168 285,167 285,167 285,167 286,167 286,167 286,167 286,166 286,166 286,166 285,165 285,165 285,165 277,159 277,159 277,159 275,159 275,159 271.63,159 268.879,165 266,165 266,168.664 272,168.018 272,171 272,171 273,171 273,171 273,171 274,171 274,171 274,171 276,173 276,173 276,173 277,173 277,173 277,173 279,174 279,174 279,174 280,173 280,173  Z"/>

<path  fill="#FFFB8E" stroke-width="0" stroke="#FFFB8E" d = " M103 171 C98.6421,171 95,178.415 95,182 85.4025,182 77,178.666 77,167 77,167 85,161 85,161 87.7457,161 87.5844,166.458 90.5,165 95.1959,162.652 99.3513,160 105,160 105,163.205 103,166.924 103,171  Z"/>

<path  fill="#FFF990" stroke-width="0" stroke="#FFF990" d = " M125 180 L121,186 C121,181.099 108.106,171 103,171 103,166.924 105,163.205 105,160 112.808,160 119.597,166 123,166 123,171.03 125,174.72 125,180  Z"/>

<path  fill="#FFF990" stroke-width="0" stroke="#FFF990" d = " M331 180 L335,185 C335,182.275 350.711,171 354,171 354,171 352,160 352,160 346.527,160 341.984,160.758 337.5,163 337.5,163 334.5,167 334.5,167 334.5,167 333,165 333,165 333,170.816 331,174.554 331,180  Z"/>

<path  fill="#FFFB8E" stroke-width="0" stroke="#FFFB8E" d = " M354 171 C358.1,171 361,178.625 361,182 370.431,182 380,178.812 380,167 380,167 371,161 371,161 368.746,161 368.618,166.059 366.5,165 362.067,162.783 357.278,160 352,160 352,160 354,171 354,171  Z"/>

<path  fill="#AAA9A7" stroke-width="0" stroke="#AAA9A7" d = " M202 167 C200.394,167 197.661,164.919 195.5,166 L191,168 C191,168 192,164 192,164 192,164 193,163 193,163 193,164.399 195,164.399 195,163 195,163 199,162 199,162 199,166.725 202,160.539 202,167  Z"/>

<path  fill="#FDFC8F" stroke-width="0" stroke="#FDFC8F" d = " M206 171 L207,171 C214.805,171 211.374,162 201,162 201,162 199,162 199,162 199,166.725 202,160.539 202,167 202,167 202,169 202,169 202,169 203,170 203,170 203,171.473 204.952,171 206,171  Z"/>

<path  fill="#FDFC8F" stroke-width="0" stroke="#FDFC8F" d = " M250 171 L251,171 C251,171 253,170 253,170 253,170 254,169 254,169 254,157.852 258,168.454 258,162 258,162 256,162 256,162 244.148,162 240.624,171 250,171  Z"/>

<path  fill="#AAA9A7" stroke-width="0" stroke="#AAA9A7" d = " M265 168 C262.353,168 258.825,164.338 255.5,166 L254,169 C254,157.852 258,168.454 258,162 258.893,162 263,165.652 263,163 263,163 264,163 264,163 264,163 265,168 265,168  Z"/>

<path  fill="#CBC9CC" stroke-width="0" stroke="#CBC9CC" d = " M193 163 L195,163 C195,164.399 193,164.399 193,163  Z"/>

<path  fill="#F0F080" stroke-width="0" stroke="#F0F080" d = " M265 168 L272,171 C272,168.018 266,168.664 266,165 266,165 264,163 264,163 264,163 265,168 265,168  Z"/>

<path  fill="#F0F080" stroke-width="0" stroke="#F0F080" d = " M188 169 L190,169 C190,169 191,168 191,168 191,168 192,164 192,164 192,164 190,165 190,165 190,165 188,169 188,169  Z"/>

<path  fill="#FF9BCD" stroke-width="0" stroke="#FF9BCD" d = " M164 166 L167,166 C167,164.514 164,164.514 164,166  Z"/>

<path  fill="#F0F080" stroke-width="0" stroke="#F0F080" d = " M288 166 L289,166 C289,166 289,165 289,165 289,165 285,165 285,165 285,165 286,166 286,166 286,166 288,166 288,166  Z"/>

<path  fill="#FF9BCD" stroke-width="0" stroke="#FF9BCD" d = " M289 166 L292,166 C292,164.527 290.048,165 289,165 289,165 289,166 289,166  Z"/>

<path  fill="#FF9BCD" stroke-width="0" stroke="#FF9BCD" d = " M163 166 L161,167 C161,167 163,166 163,166  Z"/>

<path  fill="#FDB3D6" stroke-width="0" stroke="#FDB3D6" d = " M164 182 L165,182 C165,180.421 167.855,181 169,181 169,179.423 170.762,179 172,179 172,177.317 175,176.412 175,172 175,172 175,171 175,171 175,171 174,170 174,170 174,170 172,168 172,168 172,168 171,167 171,167 171,167 170,167 170,167 170,167 168,166 168,166 168,166 167,166 167,166 167,166 164,166 164,166 164,166 163,166 163,166 163,166 161,167 161,167 161,167 160,167 160,167 160,167 159,168 159,168 159,168 158,168 158,168 158,168 157,169 157,169 157,169 156,169 156,169 156,169 156,170 156,170 156,170 155,171 155,171 155,171 154,173 154,173 154,180.967 156.319,182 164,182  Z"/>

<path  fill="#FF9BCD" stroke-width="0" stroke="#FF9BCD" d = " M170 166 L170,167 C170,167 168,166 168,166 168,166 170,166 170,166  Z"/>

<path  fill="#A9AAA8" stroke-width="0" stroke="#A9AAA8" d = " M233 197 L231,199 C231,199 227.5,200 227.5,200 219.625,196.062 214.249,177 203,177 203,177 202,177 202,177 202,174.856 197.738,176.619 196.5,176 192.842,174.171 187.35,175 183,175 180.627,175 183,172.716 183,172 183,172 183,171 183,171 183,171 184,171 184,171 184,171 185,170 185,170 185,170 186,170 186,170 186,170 187,169 187,169 187,169 188,169 188,169 188,169 190,169 190,169 190,169 191,168 191,168 191,168 195.5,166 195.5,166 197.661,164.919 200.394,167 202,167 202,167 202,169 202,169 202,169 203,170 203,170 203,171.473 204.952,171 206,171 206,171 207,172 207,172 207,172 209,173 209,173 209,173 213,175 213,175 213,175 214,175 214,175 214,176.014 217.959,177 219,177 219,177 220,177 220,177 220,179.648 236,180.342 236,177 236,177 238,177 238,177 238,177 240,176 240,176 240,176 242,175 242,175 242,175 243,175 243,175 243,175 245,174 245,174 245,174 247,173 247,173 247,173 250,172 250,172 250,172 251,171 251,171 251,171 253,170 253,170 253,170 254,169 254,169 254,169 255.5,166 255.5,166 258.825,164.338 262.353,168 265,168 265,168 272,171 272,171 272,171 273,171 273,171 273,172.005 276.781,175 273,175 271.176,175 261,174.219 261,176 259.594,176 254,175.286 254,177 252.535,177 250,176.891 250,179 250,179 249,179 249,179 249,179 248,180 248,180 248,180 247,181 247,181 244.527,181 241,184.527 241,187 239.423,187 239,188.762 239,190 237.189,190 235,193.438 235,195 235,195 234,196 234,196 234,196 233,197 233,197  Z"/>

<path  fill="#FF9BCD" stroke-width="0" stroke="#FF9BCD" d = " M288 166 L286,167 C286,167 286,166 286,166 286,166 288,166 288,166  Z"/>

<path  fill="#FDB3D6" stroke-width="0" stroke="#FDB3D6" d = " M291 182 L293,182 C295.774,182 298.217,182.141 300.5,181 300.5,181 303,177 303,177 303,174.517 301,172.974 301,171 301,171 301,170 301,170 301,170 300,169 300,169 300,169 298,168 298,168 298,168 297,167 297,167 297,167 295,167 295,167 295,167 293,166 293,166 293,166 292,166 292,166 292,166 289,166 289,166 289,166 288,166 288,166 288,166 286,167 286,167 286,167 285,167 285,167 285,167 284,168 284,168 284,168 283,169 283,169 283,169 282,170 282,170 282,170 282,171 282,171 282,171 281,172 281,172 281,172 281,173 281,173 281,179.608 291,180.891 291,182  Z"/>

<path  fill="#FF9BCD" stroke-width="0" stroke="#FF9BCD" d = " M293 166 L295,167 C295,167 293,166 293,166  Z"/>

<path  fill="#FF9BCD" stroke-width="0" stroke="#FF9BCD" d = " M160 167 L159,168 C159,168 159,167 159,167 159,167 160,167 160,167  Z"/>

<path  fill="#FF9BCD" stroke-width="0" stroke="#FF9BCD" d = " M171 167 L172,168 C172,168 171,167 171,167  Z"/>

<path  fill="#FF9BCD" stroke-width="0" stroke="#FF9BCD" d = " M285 167 L284,168 C284,168 285,167 285,167  Z"/>

<path  fill="#FF9BCD" stroke-width="0" stroke="#FF9BCD" d = " M297 167 L298,168 C298,168 297,167 297,167  Z"/>

<path  fill="#F0F080" stroke-width="0" stroke="#F0F080" d = " M311 178 C311,175.678 316.704,178 318,178 318,178 318,167 318,167 318,167 312.5,171 312.5,171 308.527,172.986 303.947,169 301,169 301,169 301,170 301,170 301,170 301,171 301,171 301,171 305,176 305,176 305,176 308,177 308,177 308,177 310,178 310,178 310,178 311,178 311,178  Z"/>

<path  fill="#F0F080" stroke-width="0" stroke="#F0F080" d = " M145 178 L147,178 C147,178 149,177 149,177 149,177 150,176 150,176 150,176 151,176 151,176 151,176 154,173 154,173 154,173 155,171 155,171 155,171 155,170 155,170 155,170 143.5,171 143.5,171 143.5,171 139,168 139,168 139,168 138,179 138,179 138.698,179 145,174.763 145,178  Z"/>

<path  fill="#FF9BCD" stroke-width="0" stroke="#FF9BCD" d = " M158 168 L157,169 C157,169 158,168 158,168  Z"/>

<path  fill="#AAA9A7" stroke-width="0" stroke="#AAA9A7" d = " M191 168 L190,169 C190,169 191,168 191,168  Z"/>

<path  fill="#FF9BCD" stroke-width="0" stroke="#FF9BCD" d = " M284 168 L283,169 C283,169 284,168 284,168  Z"/>

<path  fill="#F0F080" stroke-width="0" stroke="#F0F080" d = " M155 170 L156,170 C156,170 156,169 156,169 156,169 155,170 155,170  Z"/>

<path  fill="#F0F080" stroke-width="0" stroke="#F0F080" d = " M187 169 L186,170 C186,170 187,169 187,169  Z"/>

<path  fill="#AAA9A7" stroke-width="0" stroke="#AAA9A7" d = " M202 169 L203,170 C203,170 202,169 202,169  Z"/>

<path  fill="#AAA9A7" stroke-width="0" stroke="#AAA9A7" d = " M254 169 L253,170 C253,170 254,169 254,169  Z"/>

<path  fill="#FF9BCD" stroke-width="0" stroke="#FF9BCD" d = " M283 169 L282,170 C282,170 283,169 283,169  Z"/>

<path  fill="#FF9BCD" stroke-width="0" stroke="#FF9BCD" d = " M301 169 L301,170 C301,170 300,169 300,169 300,169 301,169 301,169  Z"/>

<path  fill="#FF9BCD" stroke-width="0" stroke="#FF9BCD" d = " M156 170 L155,171 C155,171 155,170 155,170 155,170 156,170 156,170  Z"/>

<path  fill="#FF9BCD" stroke-width="0" stroke="#FF9BCD" d = " M174 170 L175,171 C175,171 174,170 174,170  Z"/>

<path  fill="#F0F080" stroke-width="0" stroke="#F0F080" d = " M185 170 L184,171 C184,171 185,170 185,170  Z"/>

<path  fill="#FFFC8D" stroke-width="0" stroke="#FFFC8D" d = " M115 220 C113.765,220 110,219.357 110,221 99.2244,221 103.252,229.996 100,236.5 95.1447,246.211 95.8481,257.326 84.5,263 74.3016,268.099 61.3629,259.226 57,250.5 52.7643,242.029 58.6172,224.734 55,217.5 53.8951,215.29 52.6607,207.179 54,204.5 54,204.5 58,195.5 58,195.5 64.3431,182.814 81.16,188.83 89.5,193 93.5174,195.009 99.5673,205.365 103,198.5 103.461,197.578 95,185.079 95,182 95,178.415 98.6421,171 103,171 108.106,171 121,181.099 121,186 121,191.57 112.662,189.824 117,198.5 117.579,199.658 116.659,202 119,202 119,207.938 116,213.378 116,219 116,219 115,220 115,220  Z"/>

<path  fill="#FF9BCD" stroke-width="0" stroke="#FF9BCD" d = " M155 171 L154,173 C154,173 155,171 155,171  Z"/>

<path  fill="#F0F080" stroke-width="0" stroke="#F0F080" d = " M182 172 L183,172 C183,172 183,171 183,171 183,171 182,172 182,172  Z"/>

<path  fill="#AAA9A7" stroke-width="0" stroke="#AAA9A7" d = " M207 171 L207,172 C207,172 206,171 206,171 206,171 207,171 207,171  Z"/>

<path  fill="#AAA9A7" stroke-width="0" stroke="#AAA9A7" d = " M251 171 L250,172 C250,172 250,171 250,171 250,171 251,171 251,171  Z"/>

<path  fill="#A9AAA7" stroke-width="0" stroke="#A9AAA7" d = " M277 175 L273,176 C273,176 273,175 273,175 276.781,175 273,172.005 273,171 273,171 274,171 274,171 274,171 276,173 276,173 276,173 277,173 277,173 277,173 277,175 277,175  Z"/>

<path  fill="#F0F080" stroke-width="0" stroke="#F0F080" d = " M274 171 L276,173 C276,173 274,171 274,171  Z"/>

<path  fill="#FF9BCD" stroke-width="0" stroke="#FF9BCD" d = " M282 171 L281,172 C281,172 282,171 282,171  Z"/>

<path  fill="#FF9BCD" stroke-width="0" stroke="#FF9BCD" d = " M305 176 L303,177 C303,174.517 301,172.974 301,171 301,171 305,176 305,176  Z"/>

<path  fill="#FFFC8D" stroke-width="0" stroke="#FFFC8D" d = " M341 220 C342.235,220 346,219.357 346,221 357.817,221 353.475,232.451 357,239.5 363.173,251.845 361.364,256.932 375.5,264 381.735,267.117 394.309,259.882 397,254.5 403.173,242.154 405.045,208.59 399,196.5 393.719,185.937 375.295,185.205 367.5,193 365.438,195.062 356.022,203.544 354,199.5 352.607,196.715 361,186.336 361,182 361,178.625 358.1,171 354,171 350.711,171 335,182.275 335,185 335,194.372 345.011,187.478 339,199.5 338.187,201.127 339.658,202 337,202 337,206.472 341,216.658 341,220  Z"/>

<path  fill="#FF9BCD" stroke-width="0" stroke="#FF9BCD" d = " M172 179 L174,180 C174,180 184,178 184,178 184,178 186,177 186,177 186,175.527 184.048,176 183,176 183,176 179,175 179,175 179,175 177,174 177,174 177,174 175,172 175,172 175,176.412 172,177.317 172,179  Z"/>

<path  fill="#A9AAA7" stroke-width="0" stroke="#A9AAA7" d = " M183 175 L183,176 C183,176 179,175 179,175 179,175 180,173 180,173 180,173 182,172 182,172 182,172 183,172 183,172 183,172.716 180.627,175 183,175  Z"/>

<path  fill="#FDFC8F" stroke-width="0" stroke="#FDFC8F" d = " M236 177 L238,177 C238,177 239,176 239,176 239,169.34 217,171.886 217,175 217,175 219,177 219,177 219,177 220,177 220,177 220,177 236,177 236,177  Z"/>

<path  fill="#FF9BCD" stroke-width="0" stroke="#FF9BCD" d = " M164 182 C164,183.773 154.741,183 153,183 153,183 153,181 153,181 153,179.378 153.461,176 151,176 151,176 154,173 154,173 154,180.967 156.319,182 164,182  Z"/>

<path  fill="#F0F080" stroke-width="0" stroke="#F0F080" d = " M177 174 L179,175 C179,175 180,173 180,173 180,173 177,174 177,174  Z"/>

<path  fill="#AAA9A7" stroke-width="0" stroke="#AAA9A7" d = " M209 173 L213,175 C213,175 209,173 209,173  Z"/>

<path  fill="#AAA9A7" stroke-width="0" stroke="#AAA9A7" d = " M247 173 L245,174 C245,174 247,173 247,173  Z"/>

<path  fill="#F0F080" stroke-width="0" stroke="#F0F080" d = " M279 174 L277,175 C277,175 277,173 277,173 277,173 279,174 279,174  Z"/>

<path  fill="#F0F080" stroke-width="0" stroke="#F0F080" d = " M280 173 L279,174 C279,174 280,173 280,173  Z"/>

<path  fill="#FF9BCD" stroke-width="0" stroke="#FF9BCD" d = " M291 182 L287,183 C287,183 286,182 286,182 288.675,182 282,176.93 282,180 282,180 272,178 272,178 272,178 271,177 271,177 271,177 273,176 273,176 273,176 277,175 277,175 277,175 279,174 279,174 279,174 280,173 280,173 280,173 281,173 281,173 281,179.608 291,180.891 291,182  Z"/>

<path  fill="#AAA9A7" stroke-width="0" stroke="#AAA9A7" d = " M245 174 L243,175 C243,175 245,174 245,174  Z"/>

<path  fill="#AAA9A7" stroke-width="0" stroke="#AAA9A7" d = " M186 177 C192.089,177 195.911,177 202,177 202,174.856 197.738,176.619 196.5,176 192.842,174.171 187.35,175 183,175 183,175 183,176 183,176 184.048,176 186,175.527 186,177  Z"/>

<path  fill="#AAA9A7" stroke-width="0" stroke="#AAA9A7" d = " M217 175 L219,177 C217.959,177 214,176.014 214,175 214,175 217,175 217,175  Z"/>

<path  fill="#AAA9A7" stroke-width="0" stroke="#AAA9A7" d = " M242 175 L240,176 C240,176 242,175 242,175  Z"/>

<path  fill="#AAA9A7" stroke-width="0" stroke="#AAA9A7" d = " M273 176 L271,177 C267.49,177 263.978,176 261,176 261,174.219 271.176,175 273,175 273,175 273,176 273,176  Z"/>

<path  fill="#FF9BCD" stroke-width="0" stroke="#FF9BCD" d = " M150 176 L149,177 C149,177 150,176 150,176  Z"/>

<path  fill="#FDB2D7" stroke-width="0" stroke="#FDB2D7" d = " M149 178 C149,179.712 151.571,181 153,181 153,179.378 153.461,176 151,176 151,176 150,176 150,176 150,176 149,177 149,177 149,177 149,178 149,178  Z"/>

<path  fill="#FFB0D7" stroke-width="0" stroke="#FFB0D7" d = " M197 213 L202,213 C202,213 207,210 207,210 207,210 208,209 208,209 208,209 209,207 209,207 209,207 211,204.5 211,204.5 212.018,202.464 215.268,193 218,193 218,189.938 212.589,182.544 209.5,181 209.5,181 203,177 203,177 203,177 202,177 202,177 195.911,177 192.089,177 186,177 186,177 184,178 184,178 192.632,178 180,206.269 180,209 181.767,209 193,210.561 193,212 194.145,212 197,211.421 197,213  Z"/>

<path  fill="#AAA9A7" stroke-width="0" stroke="#AAA9A7" d = " M240 176 L238,177 C238,177 239,176 239,176 239,176 240,176 240,176  Z"/>

<path  fill="#AAA9A7" stroke-width="0" stroke="#AAA9A7" d = " M261 176 C259.594,176 254,175.286 254,177 255.406,177 261,177.714 261,176  Z"/>

<path  fill="#FFB0D7" stroke-width="0" stroke="#FFB0D7" d = " M254 213 L259,213 C259,211.421 261.855,212 263,212 263,210.561 274.233,209 276,209 276,209 276,208 276,208 276,205.146 274.178,203.855 273,201.5 270.031,195.563 270,186.077 270,179 270,179 271,178 271,178 271,178 272,178 272,178 272,178 271,177 271,177 267.49,177 263.978,176 261,176 261,177.714 255.406,177 254,177 254,177 250,179 250,179 250,179 249,179 249,179 249,179 248,180 248,180 248,180 247,181 247,181 247,181 241,187 241,187 241,188.238 240.577,190 239,190 239,190 239,192 239,192 239,192 247,207 247,207 250.082,207 250.405,213 254,213  Z"/>

<path  fill="#FDB2D7" stroke-width="0" stroke="#FDB2D7" d = " M308 178 L304,181 C304,181 303,177 303,177 303,177 305,176 305,176 305,176 308,177 308,177 308,177 308,178 308,178  Z"/>

<path  fill="#A9AAA7" stroke-width="0" stroke="#A9AAA7" d = " M135 180 L135,181 C138.647,181 141.586,178 145,178 145,174.763 138.698,179 138,179 138,179 135,180 135,180  Z"/>

<path  fill="#FF9BCD" stroke-width="0" stroke="#FF9BCD" d = " M147 178 L149,178 C149,178 149,177 149,177 149,177 147,178 147,178  Z"/>

<path  fill="#AAA9A7" stroke-width="0" stroke="#AAA9A7" d = " M218 193 C219.95,193 231,209.661 231,199 231,199 227.5,200 227.5,200 219.625,196.062 214.249,177 203,177 203,177 209.5,181 209.5,181 212.589,182.544 218,189.938 218,193  Z"/>

<path  fill="#AAA9A7" stroke-width="0" stroke="#AAA9A7" d = " M220 177 L236,177 C236,180.342 220,179.648 220,177  Z"/>

<path  fill="#AAA9A7" stroke-width="0" stroke="#AAA9A7" d = " M254 177 C252.535,177 250,176.891 250,179 250,179 254,177 254,177  Z"/>

<path  fill="#FF9BCD" stroke-width="0" stroke="#FF9BCD" d = " M293 182 C293,183.763 301.343,183 303,183 303,183 304,181 304,181 304,181 303,177 303,177 303,177 300.5,181 300.5,181 298.217,182.141 295.774,182 293,182  Z"/>

<path  fill="#FF9BCD" stroke-width="0" stroke="#FF9BCD" d = " M308 178 L310,178 C310,178 308,177 308,177 308,177 308,178 308,178  Z"/>

<path  fill="#A9AAA7" stroke-width="0" stroke="#A9AAA7" d = " M331 237 L332.5,239 L335,237 C335,233.538 339,231.973 339,228 339,228 335.5,229 335.5,229 334.167,228.334 337.44,219.53 338.5,219 338.5,219 341,220 341,220 341,216.658 337,206.472 337,202 337,195.319 324,181.281 324,181 324,181 323,181 323,181 321.762,181 320,180.577 320,179 320,179 318,178 318,178 316.704,178 311,175.678 311,178 326.364,178 331.739,194.978 337,205.5 338.791,209.082 335.843,226 332,226 332,226 331,227 331,227 331,227 331,235 331,235 331,235 331,237 331,237  Z"/>

<path  fill="#FEA5D1" stroke-width="0" stroke="#FEA5D1" d = " M124 226 L125,226 C125,221.374 129.045,204 135,204 135,199.267 143.684,188 149,188 149,188 151,185.5 151,185.5 151,182.963 148.038,183 153,183 153,183 153,181 153,181 151.571,181 149,179.712 149,178 149,178 147,178 147,178 147,178 145,178 145,178 141.586,178 138.647,181 135,181 135,181 125,191 125,191 125,191 121,199 121,199 121,202.854 116.185,226 124,226  Z"/>

<path  fill="#FEB1D9" stroke-width="0" stroke="#FEB1D9" d = " M180 209 C174.418,209 169.908,211 164,211 162.535,211 160,211.109 160,209 160,207.024 154.97,203 153,203 153,203 152,196 152,196 152,196 152,193 152,193 152,193 154,189 154,189 154,189 156,189 156,189 156,189 157,188 157,188 157,188 164,186 164,186 164,186 165,185 165,185 165,185 169,183 169,183 169,183 171,182 171,182 171,182 172,181 172,181 172,181 173,181 173,181 173,181 174,180 174,180 174,180 184,178 184,178 192.632,178 180,206.269 180,209  Z"/>

<path  fill="#FF9BCD" stroke-width="0" stroke="#FF9BCD" d = " M271 178 L270,179 C270,179 271,178 271,178  Z"/>

<path  fill="#FEB1D9" stroke-width="0" stroke="#FEB1D9" d = " M297 209 C297,210.638 293.424,211 292,211 286.472,211 282.078,209 277,209 277,209 276,208 276,208 276,205.146 274.178,203.855 273,201.5 270.031,195.563 270,186.077 270,179 270,179 271,178 271,178 271,178 272,178 272,178 272,178 282,180 282,180 282,180 286,182 286,182 286,182 287,183 287,183 287,183 291,185 291,185 291,185 294,187 294,187 294,187 303,189 303,189 303,189 305,193 305,193 305,193 305,197 305,197 304.325,197 303,202.294 303,203 300.359,203 297,206.707 297,209  Z"/>

<path  fill="#FEA5D1" stroke-width="0" stroke="#FEA5D1" d = " M331 226 L332,226 C335.843,226 338.791,209.082 337,205.5 331.739,194.978 326.364,178 311,178 311,178 310,178 310,178 310,178 308,178 308,178 308,178 304,181 304,181 304,181 303,183 303,183 307.283,183 307,184.482 307,188 311.797,188 321,198.659 321,203 326.399,203 331,221.853 331,226  Z"/>

<path  fill="#FF9BCD" stroke-width="0" stroke="#FF9BCD" d = " M172 181 L171,182 C171,182 169,181 169,181 169,179.423 170.762,179 172,179 172,179.839 170.07,181 172,181  Z"/>

<path  fill="#FEB3D7" stroke-width="0" stroke="#FEB3D7" d = " M172 181 L173,181 C173,181 174,180 174,180 174,180 172,179 172,179 172,179.839 170.07,181 172,181  Z"/>

<path  fill="#AAA9A7" stroke-width="0" stroke="#AAA9A7" d = " M249 179 L248,180 C248,180 249,179 249,179  Z"/>

<path  fill="#FEB3D7" stroke-width="0" stroke="#FEB3D7" d = " M282 180 L286,182 C288.675,182 282,176.93 282,180  Z"/>

<path  fill="#CBC9CC" stroke-width="0" stroke="#CBC9CC" d = " M320 179 L323,181 C321.762,181 320,180.577 320,179  Z"/>

<path  fill="#CBC9CC" stroke-width="0" stroke="#CBC9CC" d = " M121 199 L119,202 C116.659,202 117.579,199.658 117,198.5 112.662,189.824 121,191.57 121,186 121,186 125,180 125,180 125,180 127.5,182 127.5,182 127.5,182 133,181 133,181 133,183.384 125,186.852 125,191 122.553,191 121,197.063 121,199  Z"/>

<path  fill="#CBC9CC" stroke-width="0" stroke="#CBC9CC" d = " M134 181 L135,181 C135,181 135,180 135,180 135,180 134,181 134,181  Z"/>

<path  fill="#FF9BCD" stroke-width="0" stroke="#FF9BCD" d = " M174 180 L173,181 C173,181 174,180 174,180  Z"/>

<path  fill="#AAA9A7" stroke-width="0" stroke="#AAA9A7" d = " M248 180 L247,181 C247,181 248,180 248,180  Z"/>

<path  fill="#CBC9CC" stroke-width="0" stroke="#CBC9CC" d = " M335 185 C335,194.372 345.011,187.478 339,199.5 338.187,201.127 339.658,202 337,202 337,195.319 324,181.281 324,181 325.647,181 331,183.001 331,180 331,180 335,185 335,185  Z"/>

<path  fill="#A9AAA7" stroke-width="0" stroke="#A9AAA7" d = " M135 181 L125,191 C125,186.852 133,183.384 133,181 133,181 134,181 134,181 134,181 135,181 135,181  Z"/>

<path  fill="#FF9BCD" stroke-width="0" stroke="#FF9BCD" d = " M171 182 L169,183 C169,183 165,182 165,182 165,180.421 167.855,181 169,181 169,181 171,182 171,182  Z"/>

<path  fill="#FEB3D7" stroke-width="0" stroke="#FEB3D7" d = " M169 181 L171,182 C171,182 169,181 169,181  Z"/>

<path  fill="#AAA9A7" stroke-width="0" stroke="#AAA9A7" d = " M247 181 C244.527,181 241,184.527 241,187 241,187 247,181 247,181  Z"/>

<path  fill="#CCCBC8" stroke-width="0" stroke="#CCCBC8" d = " M153 187 L149,188 C149,188 151,185.5 151,185.5 151,182.963 148.038,183 153,183 154.741,183 164,183.773 164,182 164,182 165,182 165,182 165,182 169,183 169,183 169,183 165,185 165,185 165,185 164,185 164,185 159.924,185 156.205,187 153,187  Z"/>

<path  fill="#CCCBC8" stroke-width="0" stroke="#CCCBC8" d = " M303 187 L307,188 C307,184.482 307.283,183 303,183 301.343,183 293,183.763 293,182 293,182 291,182 291,182 291,182 287,183 287,183 287,183 291,185 291,185 291,185 293,185 293,185 295.049,185 303,184.658 303,187  Z"/>

<path  fill="#FEB3D7" stroke-width="0" stroke="#FEB3D7" d = " M154 189 L156,189 C156,189 157,188 157,188 157,188 164,186 164,186 164,186 164,185 164,185 159.924,185 156.205,187 153,187 153,187 154,189 154,189  Z"/>

<path  fill="#FF9BCD" stroke-width="0" stroke="#FF9BCD" d = " M165 185 L164,186 C164,186 164,185 164,185 164,185 165,185 165,185  Z"/>

<path  fill="#FF9BCD" stroke-width="0" stroke="#FF9BCD" d = " M293 185 L294,187 C294,187 291,185 291,185 291,185 293,185 293,185  Z"/>

<path  fill="#FEB3D7" stroke-width="0" stroke="#FEB3D7" d = " M303 187 L303,189 C303,189 294,187 294,187 294,187 293,185 293,185 295.049,185 303,184.658 303,187  Z"/>

<path  fill="#FF9BCD" stroke-width="0" stroke="#FF9BCD" d = " M135 204 L135,207 C136.728,207 138.305,199.89 139,198.5 141.574,193.352 146.46,193 152,193 152,193 154,189 154,189 154,189 153,187 153,187 153,187 149,188 149,188 143.684,188 135,199.267 135,204  Z"/>

<path  fill="#AAA9A7" stroke-width="0" stroke="#AAA9A7" d = " M241 187 C239.423,187 239,188.762 239,190 240.577,190 241,188.238 241,187  Z"/>

<path  fill="#FF9BCD" stroke-width="0" stroke="#FF9BCD" d = " M321 203 C321,206.157 323,208.481 323,212 321.676,212 319.704,202.907 319,201.5 315.952,195.405 312.515,193 305,193 305,193 303,189 303,189 303,189 303,187 303,187 303,187 307,188 307,188 311.797,188 321,198.659 321,203  Z"/>

<path  fill="#FF9BCD" stroke-width="0" stroke="#FF9BCD" d = " M157 188 L156,189 C156,189 157,188 157,188  Z"/>

<path  fill="#AAA9A7" stroke-width="0" stroke="#AAA9A7" d = " M239 192 L235,195 C235,193.438 237.189,190 239,190 239,190 239,192 239,192  Z"/>

<path  fill="#A9AAA7" stroke-width="0" stroke="#A9AAA7" d = " M125 191 C122.553,191 121,197.063 121,199 121,199 125,191 125,191  Z"/>

<path  fill="#FFB3D7" stroke-width="0" stroke="#FFB3D7" d = " M234 208 L246,208 C246,208 247,207 247,207 247,207 239,192 239,192 239,192 235,195 235,195 235,195 234,196 234,196 234,196 233,197 233,197 233,198.747 232.747,199 231,199 231,209.661 219.95,193 218,193 215.268,193 212.018,202.464 211,204.5 211,204.5 209,207 209,207 209,207 210,208 210,208 210,208 222,208 222,208 224.47,208 226.552,206 228.5,206 230.095,206 231.755,208 234,208  Z"/>

<path  fill="#C9C9C8" stroke-width="0" stroke="#C9C9C8" d = " M141 271 L136,272 C136,272 134,271 134,271 134,271 133,270 133,270 133,270 131,269 131,269 131,269 131,268 131,268 131,268 125,257.5 125,257.5 125,257.5 125,238 125,238 125,238 125,236 125,236 127.087,236 129,227.091 129,225 129,225 130,223 130,223 130,223 131,221 131,221 131,221 131,219 131,219 131,219 132,217 132,217 133.473,217 133,215.048 133,214 133,214 133,213 133,213 134.353,213 135,208.357 135,207 136.728,207 138.305,199.89 139,198.5 141.574,193.352 146.46,193 152,193 152,193 152,196 152,196 151.451,196 149.079,202.421 148,203.5 138.283,213.217 137.561,224.378 132,235.5 131.257,236.987 129.781,251 132,251 132,258.987 141,270.098 141,271  Z"/>

<path  fill="#C9C9C8" stroke-width="0" stroke="#C9C9C8" d = " M320 273 L321,273 C321,271.253 321.253,271 323,271 323,271 324,270 324,270 324,270 325,269 325,269 325,267.762 325.423,266 327,266 327,266 328,265 328,265 328,265 329,263 329,263 329,263 331,259 331,259 331,251.647 331,244.723 331,237 331,237 331,235 331,235 328.792,235 326,224.104 326,222 326,222 326,221 326,221 326,221 325,219 325,219 325,219 325,218 325,218 325,218 324,216 324,216 324,216 324,215 324,215 324,215 323,213 323,213 323,213 323,212 323,212 321.676,212 319.704,202.907 319,201.5 315.952,195.405 312.515,193 305,193 305,193 305,197 305,197 305,202.842 311.589,204.679 314,209.5 316.806,215.112 324,228.957 324,235 324,236.663 327.244,248 325,248 325,257.946 316,269.58 316,271 318.177,271 320,270.359 320,273  Z"/>

<path  fill="#AAA9A7" stroke-width="0" stroke="#AAA9A7" d = " M235 195 L234,196 C234,196 235,195 235,195  Z"/>

<path  fill="#FF9BCD" stroke-width="0" stroke="#FF9BCD" d = " M149 221 C149,217.501 155.063,214.626 153,210.5 151.061,206.622 142.857,215.787 142,217.5 136.678,228.143 132,238.085 132,251 129.781,251 131.257,236.987 132,235.5 137.561,224.378 138.283,213.217 148,203.5 149.079,202.421 151.451,196 152,196 152,196 153,203 153,203 150.235,203 146.873,207.186 150.5,209 153.558,210.529 157.015,209 160,209 160,211.109 162.535,211 164,211 164,212.674 163,213.326 163,215 157.232,215 153.814,221 149,221  Z"/>

<path  fill="#AAA9A7" stroke-width="0" stroke="#AAA9A7" d = " M234 196 L233,197 C233,197 234,196 234,196  Z"/>

<path  fill="#AAA9A7" stroke-width="0" stroke="#AAA9A7" d = " M233 197 L231,199 C232.747,199 233,198.747 233,197  Z"/>

<path  fill="#FF9BCD" stroke-width="0" stroke="#FF9BCD" d = " M313 229 C313,224.931 301.675,214.149 303,211.5 305.079,207.341 311.722,212.944 313,215.5 317.924,225.348 325,236.284 325,248 327.244,248 324,236.663 324,235 324,228.957 316.806,215.112 314,209.5 311.589,204.679 305,202.842 305,197 304.325,197 303,202.294 303,203 305.918,203 310.104,207.198 306.5,209 303.42,210.54 299.796,209 297,209 297,210.638 293.424,211 292,211 292,211 294,215 294,215 302.384,215 311.773,229 313,229  Z"/>

<path  fill="#A9AAA7" stroke-width="0" stroke="#A9AAA7" d = " M122 237 C123.532,237 122.95,238 125,238 125,238 125,236 125,236 125,232.675 124,228.69 124,226 116.185,226 121,202.854 121,199 121,199 119,202 119,202 119,207.938 116,213.378 116,219 118.493,219 122.306,225.888 121,228.5 120.112,230.276 118.145,227.645 117.5,227 115.764,225.264 116,222.496 116,220 116,220 115,220 115,220 115,220 114,223 114,223 115.639,223 118.22,231.94 119,233.5 119,233.5 122,237 122,237  Z"/>

<path  fill="#FFB0D9" stroke-width="0" stroke="#FFB0D9" d = " M153 203 C154.97,203 160,207.024 160,209 157.015,209 153.558,210.529 150.5,209 146.873,207.186 150.235,203 153,203  Z"/>

<path  fill="#FFB0D9" stroke-width="0" stroke="#FFB0D9" d = " M303 203 C305.918,203 310.104,207.198 306.5,209 303.42,210.54 299.796,209 297,209 297,206.707 300.359,203 303,203  Z"/>

<path  fill="#FEA4D2" stroke-width="0" stroke="#FEA4D2" d = " M331 226 L331,227 C327.552,227 328.09,222 326,222 326,222 326,221 326,221 326,221 325,219 325,219 325,219 325,218 325,218 325,218 324,216 324,216 324,216 324,215 324,215 324,215 323,213 323,213 323,213 323,212 323,212 323,208.481 321,206.157 321,203 326.399,203 331,221.853 331,226  Z"/>

<path  fill="#FEA4D2" stroke-width="0" stroke="#FEA4D2" d = " M129 225 C127.626,225 125,227.374 125,226 125,221.374 129.045,204 135,204 135,204 135,207 135,207 133.005,207 133,211.377 133,213 133,213 133,214 133,214 131.527,214 132,215.952 132,217 132,217 131,219 131,219 131,219 131,221 131,221 131,221 130,223 130,223 130,223 129,225 129,225  Z"/>

<path  fill="#FF9BCD" stroke-width="0" stroke="#FF9BCD" d = " M227 231 C227.714,231 229,234.336 229,232 229,232 229.5,209 229.5,209 233.22,207.14 231,219.539 231,222 231,222 234,221 234,221 234,216.896 234,211.343 234,208 231.755,208 230.095,206 228.5,206 226.552,206 224.47,208 222,208 222,211.381 222,216.814 222,221 222,221 225,221 225,221 225,218.536 223.321,207.41 226.5,209 226.5,209 227,231 227,231  Z"/>

<path  fill="#FF9BCD" stroke-width="0" stroke="#FF9BCD" d = " M135 207 C133.005,207 133,211.377 133,213 134.353,213 135,208.357 135,207  Z"/>

<path  fill="#FF9BCD" stroke-width="0" stroke="#FF9BCD" d = " M210 208 L208,209 C208,209 209,207 209,207 209,207 210,208 210,208  Z"/>

<path  fill="#FF9BCD" stroke-width="0" stroke="#FF9BCD" d = " M254 213 C254,214.473 252.048,214 251,214 248.571,214 249.722,208 246,208 246,208 247,207 247,207 250.082,207 250.405,213 254,213  Z"/>

<path  fill="#FCB3D8" stroke-width="0" stroke="#FCB3D8" d = " M222 221 C217.067,221 211.27,222 207,222 207,222 206,221 206,221 206,218.28 206,217.447 206,215 206,215 207,210 207,210 207,210 208,209 208,209 208,209 210,208 210,208 210,208 222,208 222,208 222,211.381 222,216.814 222,221  Z"/>

<path  fill="#FCB3D8" stroke-width="0" stroke="#FCB3D8" d = " M250 221 L249,222 C244.73,222 238.933,221 234,221 234,216.896 234,211.343 234,208 234,208 246,208 246,208 249.722,208 248.571,214 251,214 251,216.409 250,219.181 250,221  Z"/>

<path  fill="#FF9BCD" stroke-width="0" stroke="#FF9BCD" d = " M276 209 L277,209 C277,209 276,208 276,208 276,208 276,209 276,209  Z"/>

<path  fill="#FDA5D1" stroke-width="0" stroke="#FDA5D1" d = " M169 219 L173,220 C178.712,220 183.435,215 190,215 190,215 191,214 191,214 191,214 192,214 192,214 192,214 193,213 193,213 193,213 193,212 193,212 193,210.561 181.767,209 180,209 174.418,209 169.908,211 164,211 164,212.674 163,213.326 163,215 163,215 169,219 169,219  Z"/>

<path  fill="#FF9BCD" stroke-width="0" stroke="#FF9BCD" d = " M208 209 L207,210 C207,210 208,209 208,209  Z"/>

<path  fill="#CBCBCC" stroke-width="0" stroke="#CBCBCC" d = " M225 221 C225,222.249 226.074,231 227,231 227,231 226.5,209 226.5,209 223.321,207.41 225,218.536 225,221  Z"/>

<path  fill="#CBCBCC" stroke-width="0" stroke="#CBCBCC" d = " M231 222 C231,223.928 230.888,232 229,232 229,232 229.5,209 229.5,209 233.22,207.14 231,219.539 231,222  Z"/>

<path  fill="#FDA5D1" stroke-width="0" stroke="#FDA5D1" d = " M283 220 L287,220 C287,217.996 292.378,215 294,215 294,215 292,211 292,211 286.472,211 282.078,209 277,209 277,209 276,209 276,209 274.233,209 263,210.561 263,212 263,212 264,214 264,214 264,214 265,214 265,214 265,214 267,215 267,215 273.262,215 278.392,220 283,220  Z"/>

<path  fill="#C8CACA" stroke-width="0" stroke="#C8CACA" d = " M141 271 L151,274 C151,268.026 143,268.338 143,264 143,264 142,262 142,262 142,262 141,261 141,261 141,261 141,260 141,260 138.539,260 139,256.622 139,255 139,255 139,254 139,254 137.421,254 138,251.145 138,250 138,247.641 138.373,237 141,237 141,237 141,236 141,236 141,236 142,234 142,234 142,232.952 141.527,231 143,231 143,229.535 142.891,227 145,227 145,225.016 146.444,221 149,221 149,217.501 155.063,214.626 153,210.5 151.061,206.622 142.857,215.787 142,217.5 136.678,228.143 132,238.085 132,251 132,258.987 141,270.098 141,271  Z"/>

<path  fill="#FF9BCD" stroke-width="0" stroke="#FF9BCD" d = " M202 213 L206,215 C206,215 207,210 207,210 207,210 202,213 202,213  Z"/>

<path  fill="#C8CACA" stroke-width="0" stroke="#C8CACA" d = " M316 271 C312.321,271 309.269,274 306,274 306,268.31 311,269.044 311,266 311,266 312,265 312,265 312,265 313,264 313,264 313,264 314,263 314,263 314,263 315,262 315,262 315,262 315,261 315,261 315,261 316,260 316,260 316,260 316,259 316,259 316,259 317,257 317,257 318.643,257 318,253.235 318,252 318,248.974 318.767,236 315,236 315,236 315,235 315,235 315,233.959 314.014,230 313,230 313,230 313,229 313,229 313,224.931 301.675,214.149 303,211.5 305.079,207.341 311.722,212.944 313,215.5 317.924,225.348 325,236.284 325,248 325,257.946 316,269.58 316,271  Z"/>

<path  fill="#FF9BCD" stroke-width="0" stroke="#FF9BCD" d = " M193 213 L197,213 C197,211.421 194.145,212 193,212 193,212 193,213 193,213  Z"/>

<path  fill="#FF9BCD" stroke-width="0" stroke="#FF9BCD" d = " M259 213 L264,214 C264,214 263,212 263,212 261.855,212 259,211.421 259,213  Z"/>

<path  fill="#FF9BCD" stroke-width="0" stroke="#FF9BCD" d = " M193 213 L192,214 C192,214 193,213 193,213  Z"/>

<path  fill="#FFB2D8" stroke-width="0" stroke="#FFB2D8" d = " M176 263 C182.593,263 186.999,266 193,266 193,262.183 195.426,259.648 197,256.5 199.343,251.813 206,228.144 206,223 206,223 206,221 206,221 206,218.28 206,217.447 206,215 206,215 202,213 202,213 202,213 197,213 197,213 197,213 193,213 193,213 193,213 192,214 192,214 192,214 191,214 191,214 191,214 190,215 190,215 190,227.284 171,247.103 171,259 173.226,259 175,260.774 175,263 175,263 176,263 176,263  Z"/>

<path  fill="#FFB2D8" stroke-width="0" stroke="#FFB2D8" d = " M263 265 L264,266 C269.95,266 274.162,263 281,263 281,263 282,263 282,263 282,259.885 282.885,259 286,259 286,256.903 283.895,255.29 283,253.5 279.109,245.718 267,222.844 267,215 267,215 265,214 265,214 265,214 264,214 264,214 264,214 259,213 259,213 259,213 254,213 254,213 254,214.473 252.048,214 251,214 251,216.409 250,219.181 250,221 250,221 251,224 251,224 251,236.362 263,256.334 263,265  Z"/>

<path  fill="#FF9BCD" stroke-width="0" stroke="#FF9BCD" d = " M323 213 L324,215 C324,215 323,213 323,213  Z"/>

<path  fill="#FF9BCD" stroke-width="0" stroke="#FF9BCD" d = " M133 214 C131.527,214 132,215.952 132,217 133.473,217 133,215.048 133,214  Z"/>

<path  fill="#FF9BCD" stroke-width="0" stroke="#FF9BCD" d = " M191 214 L190,215 C190,215 191,214 191,214  Z"/>

<path  fill="#FF9BCD" stroke-width="0" stroke="#FF9BCD" d = " M265 214 L267,215 C267,215 265,214 265,214  Z"/>

<path  fill="#FFA4D0" stroke-width="0" stroke="#FFA4D0" d = " M143 264 L146.5,266 C148.456,266.978 150.577,265 152,265 156.073,265 154.385,246.729 156,243.5 160.015,235.47 170,231.887 170,222 170,222 169,219 169,219 169,219 163,215 163,215 157.232,215 153.814,221 149,221 149,222.334 146.028,227 145,227 145,227 143,231 143,231 143,232.048 143.473,234 142,234 142,234 141,236 141,236 141,236 141,237 141,237 141,243.056 139,247.735 139,254 139,254 139,255 139,255 139.672,255 141,259.329 141,260 141,260 141,261 141,261 141,261 142,262 142,262 142,262 143,264 143,264  Z"/>

<path  fill="#FCB3D9" stroke-width="0" stroke="#FCB3D9" d = " M152 265 C152,268.484 156.088,270 159,270 159,266.384 167,266.918 167,264 167,264 168,263 168,263 168,263 171,259 171,259 171,247.103 190,227.284 190,215 183.435,215 178.712,220 173,220 173,220 170,222 170,222 170,231.887 160.015,235.47 156,243.5 154.385,246.729 156.073,265 152,265  Z"/>

<path  fill="#FCB3D9" stroke-width="0" stroke="#FCB3D9" d = " M305 265 C305,269.464 298.696,269 297,269 297,269 289,264 289,264 289,264 288,263 288,263 288,263 286,259 286,259 286,256.903 283.895,255.29 283,253.5 279.109,245.718 267,222.844 267,215 273.262,215 278.392,220 283,220 283,220 286,222 286,222 288.207,222 286.338,227.176 287,228.5 287,228.5 299,239.5 299,239.5 299,239.5 301,245.5 301,245.5 302.544,248.588 298.932,265 305,265  Z"/>

<path  fill="#FFA4D0" stroke-width="0" stroke="#FFA4D0" d = " M312 265 L311,266 C308.876,266 306.564,265 305,265 298.932,265 302.544,248.588 301,245.5 301,245.5 299,239.5 299,239.5 299,239.5 287,228.5 287,228.5 286.338,227.176 288.207,222 286,222 286,222 287,220 287,220 287,217.996 292.378,215 294,215 302.384,215 311.773,229 313,229 313,229 313,230 313,230 313,231.424 313.362,235 315,235 315,235 315,236 315,236 315,242.981 317,249.316 317,257 317,257 316,259 316,259 316,259 316,260 316,260 316,260 315,261 315,261 315,261 315,262 315,262 315,262 314,263 314,263 314,263 313,264 313,264 313,264 312,265 312,265  Z"/>

<path  fill="#FF9BCD" stroke-width="0" stroke="#FF9BCD" d = " M324 216 L325,218 C325,218 324,216 324,216  Z"/>

<path  fill="#FF9BCD" stroke-width="0" stroke="#FF9BCD" d = " M132 217 L131,219 C131,219 132,217 132,217  Z"/>

<path  fill="#F0F080" stroke-width="0" stroke="#F0F080" d = " M115 220 L116,220 C116,220 116,219 116,219 116,219 115,220 115,220  Z"/>

<path  fill="#A9AAA8" stroke-width="0" stroke="#A9AAA8" d = " M116 219 C118.493,219 122.306,225.888 121,228.5 120.112,230.276 118.145,227.645 117.5,227 115.764,225.264 116,222.496 116,220 116,220 116,219 116,219  Z"/>

<path  fill="#FF9BCD" stroke-width="0" stroke="#FF9BCD" d = " M173 220 L170,222 C170,222 169,219 169,219 169,219 173,220 173,220  Z"/>

<path  fill="#FF9BCD" stroke-width="0" stroke="#FF9BCD" d = " M325 219 L326,221 C326,221 325,219 325,219  Z"/>

<path  fill="#A9AAA8" stroke-width="0" stroke="#A9AAA8" d = " M341 221 L339,228 C339,228 335.5,229 335.5,229 334.167,228.334 337.44,219.53 338.5,219 338.5,219 341,220 341,220 341,220 341,221 341,221  Z"/>

<path  fill="#F0F080" stroke-width="0" stroke="#F0F080" d = " M110 221 L114,223 C114,223 115,220 115,220 113.765,220 110,219.357 110,221  Z"/>

<path  fill="#FF9BCD" stroke-width="0" stroke="#FF9BCD" d = " M287 220 L286,222 C286,222 283,220 283,220 283,220 287,220 287,220  Z"/>

<path  fill="#F0F080" stroke-width="0" stroke="#F0F080" d = " M346 221 L342,223 C342,223 341,221 341,221 341,221 341,220 341,220 342.235,220 346,219.357 346,221  Z"/>

<path  fill="#FF9BCD" stroke-width="0" stroke="#FF9BCD" d = " M131 221 L130,223 C130,223 131,221 131,221  Z"/>

<path  fill="#FF9BCD" stroke-width="0" stroke="#FF9BCD" d = " M149 221 C146.444,221 145,225.016 145,227 146.028,227 149,222.334 149,221  Z"/>

<path  fill="#FF9BCD" stroke-width="0" stroke="#FF9BCD" d = " M207 222 L206,223 C206,223 206,221 206,221 206,221 207,222 207,222  Z"/>

<path  fill="#FEB0D8" stroke-width="0" stroke="#FEB0D8" d = " M255 276 L256,276 C256,271.056 250.595,266 263,266 263,266 263,265 263,265 263,256.334 251,236.362 251,224 251,224 249,222 249,222 244.73,222 238.933,221 234,221 234,221 231,222 231,222 231,223.928 230.888,232 229,232 229,234.336 227.714,231 227,231 226.074,231 225,222.249 225,221 225,221 222,221 222,221 217.067,221 211.27,222 207,222 207,222 206,223 206,223 206,228.144 199.343,251.813 197,256.5 195.426,259.648 193,262.183 193,266 205.184,266 201,271.016 201,276 201,276 202,276 202,276 202,270.142 215.598,261 221,261 221,254.913 227,231.665 227,251 227,251 229,251 229,251 229,232.497 235,254.322 235,261 244.428,261 253.277,276 255,276  Z"/>

<path  fill="#FF9BCD" stroke-width="0" stroke="#FF9BCD" d = " M249 222 L251,224 C251,224 250,221 250,221 250,221 249,222 249,222  Z"/>

<path  fill="#A9AAA7" stroke-width="0" stroke="#A9AAA7" d = " M342 223 C342,224.408 340.803,228 339,228 339,228 341,221 341,221 341,221 342,223 342,223  Z"/>

<path  fill="#FF9BCD" stroke-width="0" stroke="#FF9BCD" d = " M331 227 L331,235 C328.792,235 326,224.104 326,222 328.09,222 327.552,227 331,227  Z"/>

<path  fill="#FF9BCD" stroke-width="0" stroke="#FF9BCD" d = " M130 223 L129,225 C129,225 130,223 130,223  Z"/>

<path  fill="#FF9BCD" stroke-width="0" stroke="#FF9BCD" d = " M124 226 L125,226 C125,227.374 127.626,225 129,225 129,227.091 127.087,236 125,236 125,232.675 124,228.69 124,226  Z"/>

<path  fill="#FF9BCD" stroke-width="0" stroke="#FF9BCD" d = " M332 226 L331,227 C331,227 331,226 331,226 331,226 332,226 332,226  Z"/>

<path  fill="#FF9BCD" stroke-width="0" stroke="#FF9BCD" d = " M145 227 C142.891,227 143,229.535 143,231 143,231 145,227 145,227  Z"/>

<path  fill="#FF9BCD" stroke-width="0" stroke="#FF9BCD" d = " M313 230 C314.014,230 315,233.959 315,235 313.362,235 313,231.424 313,230  Z"/>

<path  fill="#FF9BCD" stroke-width="0" stroke="#FF9BCD" d = " M143 231 C141.527,231 142,232.952 142,234 143.473,234 143,232.048 143,231  Z"/>

<path  fill="#FF9BCD" stroke-width="0" stroke="#FF9BCD" d = " M142 234 L141,236 C141,236 142,234 142,234  Z"/>

<path  fill="#FF9BCD" stroke-width="0" stroke="#FF9BCD" d = " M315 236 C318.767,236 318,248.974 318,252 318,253.235 318.643,257 317,257 317,249.316 315,242.981 315,236  Z"/>

<path  fill="#FF9BCD" stroke-width="0" stroke="#FF9BCD" d = " M125 238 L125,257.5 L131,268 C123.653,268 122,241.291 122,237 123.532,237 122.95,238 125,238  Z"/>

<path  fill="#FF9BCD" stroke-width="0" stroke="#FF9BCD" d = " M141 237 C138.373,237 138,247.641 138,250 138,251.145 137.421,254 139,254 139,247.735 141,243.056 141,237  Z"/>

<path  fill="#FF9BCD" stroke-width="0" stroke="#FF9BCD" d = " M335 237 L333,254 C333,255.424 332.638,259 331,259 331,251.647 331,244.723 331,237 331,237 332.5,239 332.5,239 332.5,239 335,237 335,237  Z"/>

<path  fill="#C8C8CC" stroke-width="0" stroke="#C8C8CC" d = " M221 261 C222.481,261 221.785,263 224,263 224,263 227,259 227,259 227,259 227,251 227,251 227,231.665 221,254.913 221,261  Z"/>

<path  fill="#C8C8CC" stroke-width="0" stroke="#C8C8CC" d = " M235 261 L233,263 C233,263 229,258 229,258 229,258 229,251 229,251 229,232.497 235,254.322 235,261  Z"/>

<path  fill="#FEC6E2" stroke-width="0" stroke="#FEC6E2" d = " M227 278 L229,278 C229,272.746 229,266.514 229,261 229,261 229,258 229,258 229,258 229,251 229,251 229,251 227,251 227,251 227,251 227,259 227,259 227,259 227,263 227,263 227,267.875 227,273.289 227,278  Z"/>

<path  fill="#FF9BCD" stroke-width="0" stroke="#FF9BCD" d = " M139 255 C139.672,255 141,259.329 141,260 138.539,260 139,256.622 139,255  Z"/>

<path  fill="#FF9BCD" stroke-width="0" stroke="#FF9BCD" d = " M317 257 L316,259 C316,259 317,257 317,257  Z"/>

<path  fill="#FEB0D8" stroke-width="0" stroke="#FEB0D8" d = " M233 263 L231,265 C231,265 229,261 229,261 229,261 229,258 229,258 229,258 233,263 233,263  Z"/>

<path  fill="#FEB3D6" stroke-width="0" stroke="#FEB3D6" d = " M168 264 C169.631,264 172.369,264 174,264 174,264 175,263 175,263 175,260.774 173.226,259 171,259 171,259 168,263 168,263 168,263 168,264 168,264  Z"/>

<path  fill="#FEB0D8" stroke-width="0" stroke="#FEB0D8" d = " M227 263 L225,265 C225,265 224,263 224,263 224,263 227,259 227,259 227,259 227,263 227,263  Z"/>

<path  fill="#FEB3D6" stroke-width="0" stroke="#FEB3D6" d = " M283 264 C284.467,264 286.533,264 288,264 288,264 288,263 288,263 288,263 286,259 286,259 282.885,259 282,259.885 282,263 282,263 283,264 283,264  Z"/>

<path  fill="#FF9BCD" stroke-width="0" stroke="#FF9BCD" d = " M331 259 L329,263 C331.109,263 331,260.465 331,259  Z"/>

<path  fill="#FF9BCD" stroke-width="0" stroke="#FF9BCD" d = " M316 260 L315,261 C315,261 316,260 316,260  Z"/>

<path  fill="#FF9BCD" stroke-width="0" stroke="#FF9BCD" d = " M141 261 L142,262 C142,262 141,261 141,261  Z"/>

<path  fill="#FDB2D9" stroke-width="0" stroke="#FDB2D9" d = " M225 265 C225,275.703 219.377,276.061 211.5,280 208.555,281.472 203.613,285.726 201,280.5 L202,276 C202,270.142 215.598,261 221,261 222.481,261 221.785,263 224,263 224,263 225,265 225,265  Z"/>

<path  fill="#FF9BCD" stroke-width="0" stroke="#FF9BCD" d = " M218 299 C222.617,299 227.845,292 228.5,292 L231.5,296 C233.612,298.112 235.913,299 239,299 239,299 233,294.5 233,294.5 231.011,290.521 237,291.089 237,289 237,289 234,288.5 234,288.5 234,288.5 235,285.5 235,285.5 234.501,284.501 230.527,279.987 232.5,279 232.5,279 237.5,283 237.5,283 239.18,283.84 240.264,279.882 242.5,281 246.546,283.023 250.551,285.026 254.5,287 254.5,287 258,289.5 258,289.5 258,291.455 254.111,291 253,291 252.29,291 239,284.8 239,289 241.411,289 251.183,289.133 249,293.5 248.396,294.707 245,296.839 245,299 253.91,299 262.087,295 270.5,295 271.758,295 279,292.788 279,292 275.572,292 282,287.573 282,287 279.271,287 281,286.577 281,285 281,285 271.5,289 271.5,289 267.522,287.011 263.319,283.819 260,280.5 260,280.5 256,276 256,276 256,276 255,276 255,276 255,278.151 255.815,281.843 253.5,283 250.803,284.348 233.433,275.366 232,272.5 230.859,270.217 231,267.774 231,265 231,265 229,261 229,261 229,266.514 229,272.746 229,278 229,278.86 232.798,284.905 231,288.5 229.771,290.958 226.091,289.681 225,287.5 223.216,283.933 227,280.428 227,278 227,273.289 227,267.875 227,263 227,263 225,265 225,265 225,275.703 219.377,276.061 211.5,280 208.555,281.472 203.613,285.726 201,280.5 201,280.5 202,276 202,276 202,276 201,276 201,276 201,276 196.5,281 196.5,281 196.5,281 184.5,289 184.5,289 184.5,289 175,285 175,285 175,285 177,286.5 177,286.5 177,286.5 175.5,288 175.5,288 174.579,288 166.169,281 163,281 163,281 179,290.5 179,290.5 179,292.135 173.784,290.142 173.5,290 173.5,290 159.5,283 159.5,283 158.402,282.451 153.347,277 157,277 157,273.959 156.697,273 160,273 160,273 159,270 159,270 156.088,270 152,268.484 152,265 150.577,265 148.456,266.978 146.5,266 146.5,266 143,264 143,264 143,268.338 151,268.026 151,274 151,274 155,277.5 155,277.5 155.844,279.187 152.396,279.448 151.5,279 148.277,277.388 143.771,275 140,275 140,277.452 150.532,279.016 152.5,280 164.719,286.11 180.128,297 194.5,297 199.663,297 207.085,297.792 211.5,300 212.445,300.472 215,300.156 215,299 208.342,299 201.399,289 218,289 218,287.357 214.235,288 213,288 210.689,288 200.296,293.092 199,290.5 197.676,287.851 208.171,284.664 209.5,284 216.756,280.372 218.213,283.643 219.5,283 219.5,283 223.5,279 223.5,279 226.361,280.431 221,285.39 221,285.5 221,285.5 223,288.5 223,288.5 223,288.5 219,289 219,289 219,291.089 224.989,290.521 223,294.5 222.219,296.063 218,298.026 218,299  Z"/>

<path  fill="#FDB2D9" stroke-width="0" stroke="#FDB2D9" d = " M231 265 C231,267.774 230.859,270.217 232,272.5 233.433,275.366 250.803,284.348 253.5,283 255.815,281.843 255,278.151 255,276 253.277,276 244.428,261 235,261 235,261 233,263 233,263 233,263 231,265 231,265  Z"/>

<path  fill="#FF9BCD" stroke-width="0" stroke="#FF9BCD" d = " M315 262 L314,263 C314,263 315,262 315,262  Z"/>

<path  fill="#FF9BCD" stroke-width="0" stroke="#FF9BCD" d = " M167 264 L168,264 C168,264 168,263 168,263 168,263 167,264 167,264  Z"/>

<path  fill="#FF9BCD" stroke-width="0" stroke="#FF9BCD" d = " M176 263 L174,264 C174,264 175,263 175,263 175,263 176,263 176,263  Z"/>

<path  fill="#FCB2D9" stroke-width="0" stroke="#FCB2D9" d = " M174 284 L175,285 C175,285 184.5,289 184.5,289 184.5,289 196.5,281 196.5,281 196.5,281 201,276 201,276 201,271.016 205.184,266 193,266 186.999,266 182.593,263 176,263 176,263 174,264 174,264 172.369,264 169.631,264 168,264 168,264 167,264 167,264 167,266.918 159,266.384 159,270 159,270 160,273 160,273 163.692,273 165.781,279 168,279 168,279 170,281 170,281 170,281 172,282 172,282 172,282 174,284 174,284  Z"/>

<path  fill="#FCB2D9" stroke-width="0" stroke="#FCB2D9" d = " M282 284 L281,285 C281,285 271.5,289 271.5,289 267.522,287.011 263.319,283.819 260,280.5 260,280.5 256,276 256,276 256,271.056 250.595,266 263,266 263,266 264,266 264,266 269.95,266 274.162,263 281,263 281,263 283,264 283,264 284.467,264 286.533,264 288,264 288,264 289,264 289,264 289,264 297,269 297,269 297,269 297,273 297,273 297,273 296,273 296,273 296,273 295,274 295,274 291.847,274 290.696,279 288,279 288,279 287,280 287,280 287,280 286,281 286,281 286,281 285,282 285,282 285,282 283,283 283,283 283,283 282,284 282,284  Z"/>

<path  fill="#FF9BCD" stroke-width="0" stroke="#FF9BCD" d = " M282 263 L283,264 C283,264 281,263 281,263 281,263 282,263 282,263  Z"/>

<path  fill="#FF9BCD" stroke-width="0" stroke="#FF9BCD" d = " M288 264 L289,264 C289,264 288,263 288,263 288,263 288,264 288,264  Z"/>

<path  fill="#FF9BCD" stroke-width="0" stroke="#FF9BCD" d = " M314 263 L313,264 C313,264 314,263 314,263  Z"/>

<path  fill="#FF9BCD" stroke-width="0" stroke="#FF9BCD" d = " M329 263 L328,265 C328,265 329,263 329,263  Z"/>

<path  fill="#FF9BCD" stroke-width="0" stroke="#FF9BCD" d = " M313 264 L312,265 C312,265 313,264 313,264  Z"/>

<path  fill="#FF9BCD" stroke-width="0" stroke="#FF9BCD" d = " M263 266 L264,266 C264,266 263,265 263,265 263,265 263,266 263,266  Z"/>

<path  fill="#FF9BCD" stroke-width="0" stroke="#FF9BCD" d = " M299 277 L301,278 C301,276.467 304.753,274 306,274 306,268.31 311,269.044 311,266 308.876,266 306.564,265 305,265 305,269.464 298.696,269 297,269 297,269 297,273 297,273 299.698,273 299,273.331 299,277  Z"/>

<path  fill="#FF9BCD" stroke-width="0" stroke="#FF9BCD" d = " M312 265 L311,266 C311,266 312,265 312,265  Z"/>

<path  fill="#FF9BCD" stroke-width="0" stroke="#FF9BCD" d = " M328 265 L327,266 C327,266 328,265 328,265  Z"/>

<path  fill="#FF9BCD" stroke-width="0" stroke="#FF9BCD" d = " M327 266 C325.423,266 325,267.762 325,269 326.577,269 327,267.238 327,266  Z"/>

<path  fill="#FF9BCD" stroke-width="0" stroke="#FF9BCD" d = " M131 269 L133,270 C133,270 131,269 131,269  Z"/>

<path  fill="#FF9BCD" stroke-width="0" stroke="#FF9BCD" d = " M325 269 L324,270 C324,270 325,269 325,269  Z"/>

<path  fill="#FF9BCD" stroke-width="0" stroke="#FF9BCD" d = " M324 270 L323,271 C323,271 324,270 324,270  Z"/>

<path  fill="#FF9BCD" stroke-width="0" stroke="#FF9BCD" d = " M136 272 L137,274 C137,274 134,271 134,271 134,271 136,272 136,272  Z"/>

<path  fill="#C9CACA" stroke-width="0" stroke="#C9CACA" d = " M139 275 L140,275 C143.771,275 148.277,277.388 151.5,279 152.396,279.448 155.844,279.187 155,277.5 155,277.5 151,274 151,274 151,274 141,271 141,271 141,271 136,272 136,272 136,272 137,274 137,274 137,274 138,274 138,274 138,274 139,275 139,275  Z"/>

<path  fill="#C9CACA" stroke-width="0" stroke="#C9CACA" d = " M305 279 L306,279 C306,277.005 310.377,277 312,277 312,277 314,276 314,276 314,276 316,275 316,275 316,275 317,275 317,275 317,275 319,274 319,274 319,274 320,273 320,273 320,270.359 318.177,271 316,271 312.321,271 309.269,274 306,274 304.753,274 301,276.467 301,278 301,278 301,279 301,279 301,279 305,279 305,279  Z"/>

<path  fill="#FF9BCD" stroke-width="0" stroke="#FF9BCD" d = " M323 271 C321.253,271 321,271.253 321,273 321,273 323,271 323,271  Z"/>

<path  fill="#C8C8CB" stroke-width="0" stroke="#C8C8CB" d = " M286 285 L287,285 C287,285 289,284 289,284 289,281.902 290.939,281 293,281 295.02,281 299,278.811 299,277 299,273.331 299.698,273 297,273 297,273 296,273 296,273 296,273 295,274 295,274 291.847,274 290.696,279 288,279 288,279 287,280 287,280 287,280 286,281 286,281 286,281 285,282 285,282 285,282 283,283 283,283 283,283 282,284 282,284 282,284 281,285 281,285 281,286.577 279.271,287 282,287 282,284.891 284.535,285 286,285  Z"/>

<path  fill="#C8C8CB" stroke-width="0" stroke="#C8C8CB" d = " M174 284 L175,285 C175,285 177,286.5 177,286.5 177,286.5 175.5,288 175.5,288 174.579,288 166.169,281 163,281 163,281 161,280 161,280 161,280 160,279 160,279 158.762,279 157,278.577 157,277 157,273.959 156.697,273 160,273 163.692,273 165.781,279 168,279 168,279 170,281 170,281 170,281 172,282 172,282 172,282 174,284 174,284  Z"/>

<path  fill="#FF9BCD" stroke-width="0" stroke="#FF9BCD" d = " M296 273 L295,274 C295,274 296,273 296,273  Z"/>

<path  fill="#FF9BCD" stroke-width="0" stroke="#FF9BCD" d = " M320 273 L319,274 C319,274 320,273 320,273  Z"/>

<path  fill="#FF9BCD" stroke-width="0" stroke="#FF9BCD" d = " M138 274 L139,275 C139,275 138,274 138,274  Z"/>

<path  fill="#FF9BCD" stroke-width="0" stroke="#FF9BCD" d = " M319 274 L317,275 C317,275 319,274 319,274  Z"/>

<path  fill="#FF9BCD" stroke-width="0" stroke="#FF9BCD" d = " M316 275 L314,276 C314,276 316,275 316,275  Z"/>

<path  fill="#FF9BCD" stroke-width="0" stroke="#FF9BCD" d = " M314 276 L312,277 C312,277 314,276 314,276  Z"/>

<path  fill="#CBC7CC" stroke-width="0" stroke="#CBC7CC" d = " M161 280 L163,281 C163,281 179,290.5 179,290.5 179,292.135 173.784,290.142 173.5,290 173.5,290 159.5,283 159.5,283 158.402,282.451 153.347,277 157,277 157,278.577 158.762,279 160,279 160,279 161,280 161,280  Z"/>

<path  fill="#CBC7CC" stroke-width="0" stroke="#CBC7CC" d = " M282 291 C280.952,291 279,290.527 279,292 275.572,292 282,287.573 282,287 283.465,287 286,287.109 286,285 286,285 287,285 287,285 287,285 289,284 289,284 289,284 293,281 293,281 295.02,281 299,278.811 299,277 299,277 301,278 301,278 301,278 301,279 301,279 301,282.55 286,286.724 286,289 284.535,289 282,288.891 282,291  Z"/>

<path  fill="#FF9BCD" stroke-width="0" stroke="#FF9BCD" d = " M312 277 C310.377,277 306,277.005 306,279 307.357,279 312,278.353 312,277  Z"/>

<path  fill="#FFC6E2" stroke-width="0" stroke="#FFC6E2" d = " M227 278 L229,278 C229,278.86 232.798,284.905 231,288.5 229.771,290.958 226.091,289.681 225,287.5 223.216,283.933 227,280.428 227,278  Z"/>

<path  fill="#FF9BCD" stroke-width="0" stroke="#FF9BCD" d = " M160 279 L161,280 C161,280 160,279 160,279  Z"/>

<path  fill="#FF9BCD" stroke-width="0" stroke="#FF9BCD" d = " M168 279 L170,281 C170,281 168,279 168,279  Z"/>

<path  fill="#FFB3D8" stroke-width="0" stroke="#FFB3D8" d = " M218 289 L219,289 C219,289 223,288.5 223,288.5 223,288.5 221,285.5 221,285.5 221,285.39 226.361,280.431 223.5,279 223.5,279 219.5,283 219.5,283 218.213,283.643 216.756,280.372 209.5,284 208.171,284.664 197.676,287.851 199,290.5 200.296,293.092 210.689,288 213,288 214.235,288 218,287.357 218,289  Z"/>

<path  fill="#FFB3D8" stroke-width="0" stroke="#FFB3D8" d = " M237 289 L239,289 C239,284.8 252.29,291 253,291 254.111,291 258,291.455 258,289.5 258,289.5 254.5,287 254.5,287 250.551,285.026 246.546,283.023 242.5,281 240.264,279.882 239.18,283.84 237.5,283 237.5,283 232.5,279 232.5,279 230.527,279.987 234.501,284.501 235,285.5 235,285.5 234,288.5 234,288.5 234,288.5 237,289 237,289  Z"/>

<path  fill="#FF9BCD" stroke-width="0" stroke="#FF9BCD" d = " M288 279 L287,280 C287,280 288,279 288,279  Z"/>

<path  fill="#FF9BCD" stroke-width="0" stroke="#FF9BCD" d = " M305 279 C305,280.818 288.586,289 286,289 286,286.724 301,282.55 301,279 301,279 305,279 305,279  Z"/>

<path  fill="#FF9BCD" stroke-width="0" stroke="#FF9BCD" d = " M286 281 L285,282 C285,282 286,281 286,281  Z"/>

<path  fill="#FF9BCD" stroke-width="0" stroke="#FF9BCD" d = " M293 281 C290.939,281 289,281.902 289,284 289,284 293,281 293,281  Z"/>

<path  fill="#FF9BCD" stroke-width="0" stroke="#FF9BCD" d = " M172 282 L174,284 C174,284 172,282 172,282  Z"/>

<path  fill="#FF9BCD" stroke-width="0" stroke="#FF9BCD" d = " M285 282 L283,283 C283,283 285,282 285,282  Z"/>

<path  fill="#FF9BCD" stroke-width="0" stroke="#FF9BCD" d = " M283 283 L282,284 C282,284 283,283 283,283  Z"/>

<path  fill="#FF9BCD" stroke-width="0" stroke="#FF9BCD" d = " M282 284 L281,285 C281,285 282,284 282,284  Z"/>

<path  fill="#FF9BCD" stroke-width="0" stroke="#FF9BCD" d = " M289 284 L287,285 C287,285 289,284 289,284  Z"/>

<path  fill="#FF9BCD" stroke-width="0" stroke="#FF9BCD" d = " M286 285 C284.535,285 282,284.891 282,287 283.465,287 286,287.109 286,285  Z"/>

<path  fill="#C7C9C9" stroke-width="0" stroke="#C7C9C9" d = " M215 299 L218,299 C218,298.026 222.219,296.063 223,294.5 224.989,290.521 219,291.089 219,289 219,289 218,289 218,289 201.399,289 208.342,299 215,299  Z"/>

<path  fill="#C7C9C9" stroke-width="0" stroke="#C7C9C9" d = " M241 299 L245,299 C245,296.839 248.396,294.707 249,293.5 251.183,289.133 241.411,289 239,289 239,289 237,289 237,289 237,291.089 231.011,290.521 233,294.5 233,294.5 239,299 239,299 239,299 241,299 241,299  Z"/>

<path  fill="#FF9BCD" stroke-width="0" stroke="#FF9BCD" d = " M286 289 C284.535,289 282,288.891 282,291 282,291 286,289 286,289  Z"/>

<path  fill="#FF9BCD" stroke-width="0" stroke="#FF9BCD" d = " M282 291 C280.952,291 279,290.527 279,292 280.048,292 282,292.473 282,291  Z"/>

<path  fill="#FF9BCD" stroke-width="0" stroke="#FF9BCD" d = " M241 299 L245,299 C245,300.535 241,300.535 241,299  Z"/>

</g>
</svg>
