<svg xmlns="http://www.w3.org/2000/svg" xmlns:xlink="http://www.w3.org/1999/xlink"  viewBox="0 0 456 320">
<g>
<rect width="456" height="320" fill="#000000"  stroke-width="0" /> 
<path  fill="#9AD1BD" stroke-width="0" stroke="#9AD1BD" d = " M146 146 L147,160 C148.845,160 148.441,163.381 149,164.5 149,164.5 154,174.5 154,174.5 158.363,183.226 160.707,192.914 165,201.5 165,201.5 165,218.5 165,218.5 166.609,221.718 169.352,224.205 171,227.5 171,227.5 173.5,231 173.5,231 178.306,233.403 182.659,236.58 187.5,239 190.313,240.406 196.937,240.281 199.5,239 199.5,239 205.5,238 205.5,238 218.185,231.658 221,198.196 221,185 221,185 221,165.5 221,165.5 222.588,162.325 226.739,132.978 225,129.5 222.419,124.338 220.63,118.759 218,113.5 216.621,110.742 213,109.722 213,107 213,107 212,107 212,107 212,107 211,106 211,106 211,106 204.5,103 204.5,103 193.215,97.3573 168.336,110.164 161,117.5 158.422,120.078 152,125.489 152,129 152,129 151,130 151,130 151,130 151,131 151,131 151,131 150,133 150,133 150,133 149,134 149,134 149,134 149,136 149,136 149,136 148,137 148,137 148,137 148,138 148,138 148,138 147,139 147,139 147,139 147,141 147,141 147,142.145 147.579,145 146,145 146,145 146,146 146,146  Z"/>

<path  fill="#9AD1BD" stroke-width="0" stroke="#9AD1BD" d = " M309 140 C309,145.79 309,153.256 309,159 309,166.627 296.762,185.975 293,193.5 289.852,199.795 293.785,213.929 291,219.5 291,219.5 287,226.5 287,226.5 285.473,229.555 281.029,231.736 278.5,233 265.585,239.457 251.863,246.227 243,228.5 238.229,218.958 239.278,204.057 236,197.5 232.857,191.213 238.2,180.9 235,174.5 235,174.5 235,160.5 235,160.5 233.788,158.076 229.894,133.711 231,131.5 234.042,125.416 235.893,118.714 239,112.5 239,112.5 244,107 244,107 244,107 251.5,103 251.5,103 259.124,99.1878 279.766,106.133 285.5,109 285.5,109 292.5,115 292.5,115 295.248,116.374 303,123.679 303,127 303,127 304,128 304,128 304,128 305,131 305,131 305,131 307,133 307,133 307,133 307,135 307,135 307,135 308,136 308,136 308,136 308,137 308,137 308,137 309,138 309,138 309,138 309,140 309,140  Z"/>

<path  fill="#99D2BD" stroke-width="0" stroke="#99D2BD" d = " M211 106 L212,107 C212,107 211,106 211,106  Z"/>

<path  fill="#C7CBCA" stroke-width="0" stroke="#C7CBCA" d = " M153 210 C153,228.885 183.578,245.039 197.5,252 200.446,253.473 213.088,254.706 216.5,253 228.84,246.83 227,228.854 227,217 227,217 227,194 227,194 227,192.594 226.286,187 228,187 228,187 228,170 228,170 226.421,170 227,167.145 227,166 227,166 227,152 227,152 227,136.435 228.668,129.837 222,116.5 220.571,113.643 217.168,107 213,107 213,109.722 216.621,110.742 218,113.5 220.63,118.759 222.419,124.338 225,129.5 226.739,132.978 222.588,162.325 221,165.5 221,165.5 221,185 221,185 221,198.196 218.185,231.658 205.5,238 205.5,238 199.5,239 199.5,239 196.937,240.281 190.313,240.406 187.5,239 182.659,236.58 178.306,233.403 173.5,231 173.5,231 171,227.5 171,227.5 169.352,224.205 166.609,221.718 165,218.5 165,218.5 165,201.5 165,201.5 160.707,192.914 158.363,183.226 154,174.5 154,174.5 149,164.5 149,164.5 148.441,163.381 148.845,160 147,160 147,160 147,168 147,168 147,168 147,171 147,171 148.684,171 148,175.679 148,177 148,177 148,178 148,178 149.714,178 149,183.594 149,185 149,185 149,188 149,188 151.144,188 149.381,192.262 150,193.5 150.873,195.246 153,208.269 153,210  Z"/>

<path  fill="#C7CBCA" stroke-width="0" stroke="#C7CBCA" d = " M305 207 L303,211 C303,228.033 272.487,245.506 259.5,252 255.827,253.836 239.215,254.929 237,250.5 237,250.5 231,242.5 231,242.5 226.98,234.46 229,220.545 229,211 229,211 229,140.5 229,140.5 229,130.695 232.421,107 244,107 244,107 239,112.5 239,112.5 235.893,118.714 234.042,125.416 231,131.5 229.894,133.711 233.788,158.076 235,160.5 235,160.5 235,174.5 235,174.5 238.2,180.9 232.857,191.213 236,197.5 239.278,204.057 238.229,218.958 243,228.5 251.863,246.227 265.585,239.457 278.5,233 281.029,231.736 285.473,229.555 287,226.5 287,226.5 291,219.5 291,219.5 293.785,213.929 289.852,199.795 293,193.5 296.762,185.975 309,166.627 309,159 310.522,159 309,167.928 309,170 309,170 309,175 309,175 307.316,175 308,179.679 308,181 308,181 308,182 308,182 306.3,182 307,187.137 307,188.5 307,194.196 305,199.691 305,206 305,206 305,207 305,207  Z"/>

<path  fill="#99D2BD" stroke-width="0" stroke="#99D2BD" d = " M303 127 L304,128 C304,128 303,127 303,127  Z"/>

<path  fill="#99D2BD" stroke-width="0" stroke="#99D2BD" d = " M152 129 L151,130 C151,130 152,129 152,129  Z"/>

<path  fill="#99D2BD" stroke-width="0" stroke="#99D2BD" d = " M151 131 L150,133 C150,133 151,131 151,131  Z"/>

<path  fill="#99D2BD" stroke-width="0" stroke="#99D2BD" d = " M305 131 L307,133 C307,133 305,131 305,131  Z"/>

<path  fill="#99D2BD" stroke-width="0" stroke="#99D2BD" d = " M150 133 L149,134 C149,134 150,133 150,133  Z"/>

<path  fill="#99D2BD" stroke-width="0" stroke="#99D2BD" d = " M307 135 L308,136 C308,136 307,135 307,135  Z"/>

<path  fill="#99D2BD" stroke-width="0" stroke="#99D2BD" d = " M149 136 L148,137 C148,137 149,136 149,136  Z"/>

<path  fill="#99D2BD" stroke-width="0" stroke="#99D2BD" d = " M308 137 L309,138 C309,138 308,137 308,137  Z"/>

<path  fill="#99D2BD" stroke-width="0" stroke="#99D2BD" d = " M148 138 L147,139 C147,139 148,138 148,138  Z"/>

<path  fill="#99D2BD" stroke-width="0" stroke="#99D2BD" d = " M309 159 C310.522,159 309,167.928 309,170 311.064,170 309.426,166.647 310,165.5 312.468,160.565 311,151.809 311,146 311,144.643 310.353,140 309,140 309,145.79 309,153.256 309,159  Z"/>

<path  fill="#99D2BD" stroke-width="0" stroke="#99D2BD" d = " M147 141 C145.421,141 146,143.855 146,145 147.579,145 147,142.145 147,141  Z"/>

<path  fill="#99D2BD" stroke-width="0" stroke="#99D2BD" d = " M147 160 L147,168 C144.936,168 146.574,164.647 146,163.5 144.171,159.842 145,154.35 145,150 145,148.855 144.421,146 146,146 146,146 147,160 147,160  Z"/>

<path  fill="#99D2BD" stroke-width="0" stroke="#99D2BD" d = " M227 152 C228.579,152 228,154.855 228,156 L228,170 C226.421,170 227,167.145 227,166 227,166 227,152 227,152  Z"/>

<path  fill="#99D2BD" stroke-width="0" stroke="#99D2BD" d = " M147 171 C148.684,171 148,175.679 148,177 146.316,177 147,172.321 147,171  Z"/>

<path  fill="#99D2BD" stroke-width="0" stroke="#99D2BD" d = " M309 175 C307.316,175 308,179.679 308,181 309.684,181 309,176.321 309,175  Z"/>

<path  fill="#99D2BD" stroke-width="0" stroke="#99D2BD" d = " M148 178 C149.714,178 149,183.594 149,185 147.286,185 148,179.406 148,178  Z"/>

<path  fill="#99D2BD" stroke-width="0" stroke="#99D2BD" d = " M308 182 C306.3,182 307,187.137 307,188.5 307,194.196 305,199.691 305,206 307.064,206 305.426,202.647 306,201.5 308.612,196.276 308,188.233 308,182  Z"/>

<path  fill="#99D2BD" stroke-width="0" stroke="#99D2BD" d = " M228 187 C226.286,187 227,192.594 227,194 L227,217 C228.714,217 228,211.406 228,210 228,210 228,187 228,187  Z"/>

<path  fill="#99D2BD" stroke-width="0" stroke="#99D2BD" d = " M149 188 C151.144,188 149.381,192.262 150,193.5 150.873,195.246 153,208.269 153,210 149.621,210 149,191.807 149,188  Z"/>

<path  fill="#99D2BD" stroke-width="0" stroke="#99D2BD" d = " M305 207 L303,211 C305.109,211 305,208.465 305,207  Z"/>

</g>
</svg>
