<svg xmlns="http://www.w3.org/2000/svg" xmlns:xlink="http://www.w3.org/1999/xlink"  viewBox="0 0 456 320">
<g>
<rect width="456" height="320" fill="#000000"  stroke-width="0" /> 
<path  fill="#99D2BD" stroke-width="0" stroke="#99D2BD" d = " M222 182 C223.594,182 223.926,193 227,193 227,193 227,133 227,133 227,133 225.5,136 225.5,136 223.925,136 220.88,128 225,128 225,125.491 215.509,121.004 213.5,120 201.486,113.993 191.223,119.638 180.5,125 178.213,126.144 169,130.452 169,134 169,137.067 168.235,138.029 167,140.5 163.593,147.315 168.3,172.1 171,177.5 172.031,179.563 172.717,189 176,189 176,178.561 163.849,164.802 169,154.5 170.068,152.365 182.419,144.96 184.5,146 185.838,146.669 183.871,156.315 186.5,155 186.5,155 189,151.5 189,151.5 189,151.5 195,145.5 195,145.5 197.207,141.086 190.301,134.6 201.5,129 206.25,126.625 209.864,126.682 214.5,129 233.706,138.603 222,164.929 222,182  Z"/>

<path  fill="#99D2BD" stroke-width="0" stroke="#99D2BD" d = " M233 135 C235.051,135 244.066,123.783 250.5,127 254.188,128.844 260.829,133.158 263,137.5 L261,144.5 L269.5,155 C273.61,157.055 270.407,146.547 271.5,146 274.865,144.318 277.173,148.836 279.5,150 L287,153.5 C292.662,164.824 281,176.826 281,188 284.113,188 284.078,180.344 285,178.5 290.104,168.292 289,158.879 289,147.5 289,142.887 288.884,140.267 287,136.5 286.56,135.621 286.972,134 288,134 288,131.511 281.218,127.859 279.5,127 266.2,120.35 256.232,113.634 241.5,121 239.765,121.867 232,125.813 232,128 233.714,128 233,133.594 233,135  Z"/>

<path  fill="#9AD1BD" stroke-width="0" stroke="#9AD1BD" d = " M177 194 L178,195 C178,204.409 184.888,220.694 193.5,225 206.274,231.387 220,202.624 220,193 220,193 221,192 221,192 221,188.49 222,184.978 222,182 222,164.929 233.706,138.603 214.5,129 209.864,126.682 206.25,126.625 201.5,129 190.301,134.6 197.207,141.086 195,145.5 195,145.5 189,151.5 189,151.5 189,151.5 186.5,155 186.5,155 183.871,156.315 185.838,146.669 184.5,146 182.419,144.96 170.068,152.365 169,154.5 163.849,164.802 176,178.561 176,189 176,189 176,190 176,190 176,190 177,191 177,191 177,191 177,194 177,194  Z"/>

<path  fill="#9AD1BD" stroke-width="0" stroke="#9AD1BD" d = " M279 195 L278,196 C278,196 275,205.5 275,205.5 272.628,210.244 273.368,220.066 267.5,223 248.951,232.275 236,205.442 236,190 236,190 235,189 235,189 235,189 235,183 235,183 235,177.409 233.485,166.469 231,161.5 227.399,154.299 233,141.702 233,135 235.051,135 244.066,123.783 250.5,127 254.188,128.844 260.829,133.158 263,137.5 263,137.5 261,144.5 261,144.5 261,144.5 269.5,155 269.5,155 273.61,157.055 270.407,146.547 271.5,146 274.865,144.318 277.173,148.836 279.5,150 279.5,150 287,153.5 287,153.5 292.662,164.824 281,176.826 281,188 281,188 281,189 281,189 281,189 280,190 280,190 280,190 280,191 280,191 280,191 279,193 279,193 279,193 279,195 279,195  Z"/>

<path  fill="#C7CBCA" stroke-width="0" stroke="#C7CBCA" d = " M225 128 C226.638,128 227,131.576 227,133 227,133 225.5,136 225.5,136 223.925,136 220.88,128 225,128  Z"/>

<path  fill="#C7CBCA" stroke-width="0" stroke="#C7CBCA" d = " M233 135 L230,136 C230,134.051 229.009,128 232,128 233.714,128 233,133.594 233,135  Z"/>

<path  fill="#C7CBCA" stroke-width="0" stroke="#C7CBCA" d = " M177 194 L178,195 C178,204.409 184.888,220.694 193.5,225 206.274,231.387 220,202.624 220,193 220,193 221,192 221,192 221,188.49 222,184.978 222,182 223.594,182 223.926,193 227,193 227,199.608 227.746,207.009 225,212.5 225,212.5 215,223.5 215,223.5 213.507,226.486 210.754,230.373 207.5,232 204.607,233.446 200.337,232.581 197.5,234 183.338,241.081 165,234.227 165,217 165,208.017 162.709,192.918 159,185.5 159,185.5 159,161 159,161 159,161 159,157 159,157 160.684,157 160,152.321 160,151 160,151 160,150 160,150 161.579,150 161,147.145 161,146 161,146 161,144 161,144 161,144 162,142 162,142 162,142 162,141 162,141 162,141 163,140 163,140 163,140 165,137 165,137 165,137 166,136 166,136 166,136 167,135 167,135 167,135 169,134 169,134 169,137.067 168.235,138.029 167,140.5 163.593,147.315 168.3,172.1 171,177.5 172.031,179.563 172.717,189 176,189 176,189 176,190 176,190 176,190 177,191 177,191 177,191 177,194 177,194  Z"/>

<path  fill="#C7CBCA" stroke-width="0" stroke="#C7CBCA" d = " M279 195 L278,196 C278,196 275,205.5 275,205.5 272.628,210.244 273.368,220.066 267.5,223 248.951,232.275 236,205.442 236,190 236,190 235,189 235,189 235,189 235,183 235,183 231.709,183 233.249,192 230,192 230,195.036 227.282,201.064 229,204.5 234.068,214.635 240.147,227.323 251.5,233 255.223,234.862 260.839,233.169 264.5,235 278.117,241.808 292,229.95 292,216 292,206.494 293.069,197.362 297,189.5 297,189.5 297,157 297,157 297,157 297,154 297,154 295.316,154 296,149.321 296,148 296,148 296,147 296,147 294.527,147 295,145.048 295,144 295,144 295,143 295,143 295,143 293,140 293,140 293,140 293,139 293,139 293,139 291,137 291,137 291,137 288,134 288,134 286.972,134 286.56,135.621 287,136.5 288.884,140.267 289,142.887 289,147.5 289,158.879 290.104,168.292 285,178.5 284.078,180.344 284.113,188 281,188 281,188 281,189 281,189 281,189 280,190 280,190 280,190 280,191 280,191 280,191 279,193 279,193 279,193 279,195 279,195  Z"/>

<path  fill="#99D2BD" stroke-width="0" stroke="#99D2BD" d = " M167 135 L166,136 C166,136 167,135 167,135  Z"/>

<path  fill="#99D2BD" stroke-width="0" stroke="#99D2BD" d = " M235 183 C231.709,183 233.249,192 230,192 230,192 230,136 230,136 230,136 233,135 233,135 233,141.702 227.399,154.299 231,161.5 233.485,166.469 235,177.409 235,183  Z"/>

<path  fill="#99D2BD" stroke-width="0" stroke="#99D2BD" d = " M166 136 L165,137 C165,137 166,136 166,136  Z"/>

<path  fill="#99D2BD" stroke-width="0" stroke="#99D2BD" d = " M291 137 L293,139 C293,139 291,137 291,137  Z"/>

<path  fill="#99D2BD" stroke-width="0" stroke="#99D2BD" d = " M163 140 L162,141 C162,141 163,140 163,140  Z"/>

<path  fill="#99D2BD" stroke-width="0" stroke="#99D2BD" d = " M293 140 C294.577,140 295,141.762 295,143 295,143 293,140 293,140  Z"/>

<path  fill="#99D2BD" stroke-width="0" stroke="#99D2BD" d = " M162 142 L161,144 C161,144 162,142 162,142  Z"/>

<path  fill="#99D2BD" stroke-width="0" stroke="#99D2BD" d = " M295 144 C296.473,144 296,145.952 296,147 294.527,147 295,145.048 295,144  Z"/>

<path  fill="#99D2BD" stroke-width="0" stroke="#99D2BD" d = " M161 146 C159.421,146 160,148.855 160,150 161.579,150 161,147.145 161,146  Z"/>

<path  fill="#99D2BD" stroke-width="0" stroke="#99D2BD" d = " M296 148 C297.684,148 297,152.679 297,154 295.316,154 296,149.321 296,148  Z"/>

<path  fill="#99D2BD" stroke-width="0" stroke="#99D2BD" d = " M160 151 C158.316,151 159,155.679 159,157 160.684,157 160,152.321 160,151  Z"/>

<path  fill="#99D2BD" stroke-width="0" stroke="#99D2BD" d = " M297 157 C298.7,157 298,162.137 298,163.5 298,167.036 300.965,174.571 299,178.5 298.405,179.69 297.174,181.847 298,183.5 299.192,185.883 297.863,189.225 299,191.5 L305,201.5 C305.768,203.037 308.085,205.329 307,207.5 305.158,211.184 298.462,209.519 295.5,211 L292,216 C292,206.494 293.069,197.362 297,189.5 297,189.5 297,157 297,157  Z"/>

<path  fill="#99D2BD" stroke-width="0" stroke="#99D2BD" d = " M159 161 C157.316,161 158,165.679 158,167 L158,186.5 C158,191.716 146.706,206.603 151.5,209 L160.5,211 L165,217 C165,208.017 162.709,192.918 159,185.5 159,185.5 159,161 159,161  Z"/>

<path  fill="#99D2BD" stroke-width="0" stroke="#99D2BD" d = " M235 189 L236,190 C236,190 235,189 235,189  Z"/>

<path  fill="#99D2BD" stroke-width="0" stroke="#99D2BD" d = " M281 189 L280,190 C280,190 281,189 281,189  Z"/>

<path  fill="#99D2BD" stroke-width="0" stroke="#99D2BD" d = " M176 190 L177,191 C177,191 176,190 176,190  Z"/>

<path  fill="#99D2BD" stroke-width="0" stroke="#99D2BD" d = " M280 191 L279,193 C279,193 280,191 280,191  Z"/>

<path  fill="#99D2BD" stroke-width="0" stroke="#99D2BD" d = " M221 192 L220,193 C220,193 221,192 221,192  Z"/>

<path  fill="#99D2BD" stroke-width="0" stroke="#99D2BD" d = " M177 194 L178,195 C178,195 177,194 177,194  Z"/>

<path  fill="#99D2BD" stroke-width="0" stroke="#99D2BD" d = " M279 195 L278,196 C278,196 279,195 279,195  Z"/>

</g>
</svg>
