<svg xmlns="http://www.w3.org/2000/svg" xmlns:xlink="http://www.w3.org/1999/xlink"  viewBox="0 0 456 320">
<g>
<rect width="456" height="320" fill="#000000"  stroke-width="0" /> 
<path  fill="#9AD1BD" stroke-width="0" stroke="#9AD1BD" d = " M145 165 C146.353,165 147,169.643 147,171 148.811,171 155.803,188.105 157,190.5 165.86,208.219 157.407,227.953 179.5,239 179.5,239 183.5,243 183.5,243 183.5,243 194.5,244 194.5,244 219.449,244 221,202.599 221,183.5 221,183.5 221,162.5 221,162.5 222.617,159.266 225.882,133.265 224,129.5 224,129.5 218,114.5 218,114.5 218,114.5 211,107 211,107 211,107 202.5,103 202.5,103 202.5,103 195.5,103 195.5,103 179.97,103 168.985,107.515 158,118.5 155.046,121.454 148,127.986 148,132 148,132 147,133 147,133 147,133 146,137 146,137 146,137 145,138 145,138 145,138 145,141 145,141 145,141 144,142 144,142 144,142 144,145 144,145 144,146.321 144.684,151 143,151 143,151 143,152 143,152 144.643,152 144,155.765 144,157 144,157 144,159 144,159 145.473,159 145,160.952 145,162 145,162 145,165 145,165  Z"/>

<path  fill="#9AD1BD" stroke-width="0" stroke="#9AD1BD" d = " M282 237 L281,238 C275.502,238 266.058,248.779 254.5,243 236.146,233.823 235,199.056 235,179.5 235,179.5 235,157.5 235,157.5 232.826,153.152 230.851,130.798 233,126.5 233,126.5 239,113.5 239,113.5 239,113.5 245,107 245,107 245,107 253.5,103 253.5,103 253.5,103 271.5,103 271.5,103 271.5,103 287.5,109 287.5,109 287.5,109 296.5,117 296.5,117 299.075,118.288 306,124.794 306,128 306,128 307,129 307,129 307,129 307,130 307,130 307,130 309,132 309,132 309,132 309,133 309,133 309,133 311,137 311,137 311,137 311,139 311,139 311,139 312,141 312,141 312,141 312,143 312,143 312,144.048 311.527,146 313,146 313,146 313,155 313,155 311.357,155 312,158.765 312,160 312,160 312,161 312,161 310.421,161 311,163.855 311,165 311,165 311,166 311,166 311,166 309,170 309,170 309,174.625 303.04,180.419 301,184.5 301,184.5 295,204.5 295,204.5 295,204.5 295,213.5 295,213.5 293.329,216.841 291,222.141 291,226 289.423,226 289,227.762 289,229 289,229 287,231 287,231 287,231 287,232 287,232 287,232 286,233 286,233 286,233 285,234 285,234 285,234 284,235 284,235 284,235 283,236 283,236 283,236 282,237 282,237  Z"/>

<path  fill="#C7CBCA" stroke-width="0" stroke="#C7CBCA" d = " M154 210 C154,216.046 162.426,220.352 165,225.5 170.43,236.359 181.193,243.847 191.5,249 193.829,250.165 197.206,249.853 199.5,251 203.215,252.857 212.766,260.367 217.5,258 231.126,251.187 227,227.952 227,215 227,215 227,158 227,158 227,141.432 227.928,130.357 221,116.5 219.238,112.976 215.724,107 211,107 211,107 218,114.5 218,114.5 218,114.5 224,129.5 224,129.5 225.882,133.265 222.617,159.266 221,162.5 221,162.5 221,183.5 221,183.5 221,202.599 219.449,244 194.5,244 194.5,244 183.5,243 183.5,243 183.5,243 179.5,239 179.5,239 157.407,227.953 165.86,208.219 157,190.5 155.803,188.105 148.811,171 147,171 147,171 147,173 147,173 147,173 147,180 147,180 148.643,180 148,183.765 148,185 148,185 148,186 148,186 149.473,186 149,187.952 149,189 149,189 149,193 149,193 149,193 150,195 150,195 150,195 150,196 150,196 151.473,196 151,197.952 151,199 151,199 151,202 151,202 152.014,202 153,205.959 153,207 153,207 153,209 153,209 153,209 154,210 154,210  Z"/>

<path  fill="#C7CBCA" stroke-width="0" stroke="#C7CBCA" d = " M245 107 C236.155,107 232.846,122.807 230,128.5 L230,141.5 C226.47,148.56 229,162.764 229,171 L229,214 C229,219.566 227.639,227.777 230,232.5 L230,245.5 L235,254.5 C239.267,263.034 264.934,248.283 271.5,245 273.383,244.059 281,240.795 281,238 275.502,238 266.058,248.779 254.5,243 236.146,233.823 235,199.056 235,179.5 235,179.5 235,157.5 235,157.5 232.826,153.152 230.851,130.798 233,126.5 233,126.5 239,113.5 239,113.5 239,113.5 245,107 245,107  Z"/>

<path  fill="#99D2BD" stroke-width="0" stroke="#99D2BD" d = " M306 128 L307,129 C307,129 306,128 306,128  Z"/>

<path  fill="#99D2BD" stroke-width="0" stroke="#99D2BD" d = " M307 130 L309,132 C309,132 307,130 307,130  Z"/>

<path  fill="#99D2BD" stroke-width="0" stroke="#99D2BD" d = " M148 132 L147,133 C147,133 148,132 148,132  Z"/>

<path  fill="#99D2BD" stroke-width="0" stroke="#99D2BD" d = " M309 133 L311,137 C311,137 309,133 309,133  Z"/>

<path  fill="#99D2BD" stroke-width="0" stroke="#99D2BD" d = " M146 137 L145,138 C145,138 146,137 146,137  Z"/>

<path  fill="#99D2BD" stroke-width="0" stroke="#99D2BD" d = " M311 139 L312,141 C312,141 311,139 311,139  Z"/>

<path  fill="#99D2BD" stroke-width="0" stroke="#99D2BD" d = " M145 141 L144,142 C144,142 145,141 145,141  Z"/>

<path  fill="#99D2BD" stroke-width="0" stroke="#99D2BD" d = " M312 143 C313.473,143 313,144.952 313,146 311.527,146 312,144.048 312,143  Z"/>

<path  fill="#99D2BD" stroke-width="0" stroke="#99D2BD" d = " M144 145 C142.316,145 143,149.679 143,151 144.684,151 144,146.321 144,145  Z"/>

<path  fill="#99D2BD" stroke-width="0" stroke="#99D2BD" d = " M143 152 C144.643,152 144,155.765 144,157 142.357,157 143,153.235 143,152  Z"/>

<path  fill="#99D2BD" stroke-width="0" stroke="#99D2BD" d = " M313 155 C311.357,155 312,158.765 312,160 313.643,160 313,156.235 313,155  Z"/>

<path  fill="#99D2BD" stroke-width="0" stroke="#99D2BD" d = " M227 158 C228.769,158 228,166.801 228,168.5 L228,203 C228,204.824 228.781,215 227,215 227,215 227,158 227,158  Z"/>

<path  fill="#99D2BD" stroke-width="0" stroke="#99D2BD" d = " M144 159 C145.473,159 145,160.952 145,162 143.527,162 144,160.048 144,159  Z"/>

<path  fill="#99D2BD" stroke-width="0" stroke="#99D2BD" d = " M312 161 C310.421,161 311,163.855 311,165 312.579,165 312,162.145 312,161  Z"/>

<path  fill="#99D2BD" stroke-width="0" stroke="#99D2BD" d = " M147 171 L147,173 C145.941,173 145,166.257 145,165 146.353,165 147,169.643 147,171  Z"/>

<path  fill="#99D2BD" stroke-width="0" stroke="#99D2BD" d = " M309 170 L310,170 C311.579,170 311,167.145 311,166 311,166 309,170 309,170  Z"/>

<path  fill="#C7CBCA" stroke-width="0" stroke="#C7CBCA" d = " M303 209 C303,210.643 292.039,226 291,226 291,222.141 293.329,216.841 295,213.5 295,213.5 295,204.5 295,204.5 295,204.5 301,184.5 301,184.5 303.04,180.419 309,174.625 309,170 309,170 310,170 310,170 310,170 310,173 310,173 310,173 309,175 309,175 309,175 309,184 309,184 307.527,184 308,185.952 308,187 306.421,187 307,189.855 307,191 307,191 307,195 307,195 307,195 306,197 306,197 306,197 306,198 306,198 304.527,198 305,199.952 305,201 305,201 305,204 305,204 305,204 304,206 304,206 302.527,206 303,207.952 303,209  Z"/>

<path  fill="#99D2BD" stroke-width="0" stroke="#99D2BD" d = " M310 173 L309,175 C309,175 310,173 310,173  Z"/>

<path  fill="#99D2BD" stroke-width="0" stroke="#99D2BD" d = " M147 180 C148.643,180 148,183.765 148,185 146.357,185 147,181.235 147,180  Z"/>

<path  fill="#99D2BD" stroke-width="0" stroke="#99D2BD" d = " M309 184 C307.527,184 308,185.952 308,187 309.473,187 309,185.048 309,184  Z"/>

<path  fill="#99D2BD" stroke-width="0" stroke="#99D2BD" d = " M148 186 C149.473,186 149,187.952 149,189 147.527,189 148,187.048 148,186  Z"/>

<path  fill="#99D2BD" stroke-width="0" stroke="#99D2BD" d = " M308 187 C306.421,187 307,189.855 307,191 308.579,191 308,188.145 308,187  Z"/>

<path  fill="#99D2BD" stroke-width="0" stroke="#99D2BD" d = " M149 193 L150,195 C150,195 149,193 149,193  Z"/>

<path  fill="#99D2BD" stroke-width="0" stroke="#99D2BD" d = " M307 195 L306,197 C306,197 307,195 307,195  Z"/>

<path  fill="#99D2BD" stroke-width="0" stroke="#99D2BD" d = " M150 196 C151.473,196 151,197.952 151,199 149.527,199 150,197.048 150,196  Z"/>

<path  fill="#99D2BD" stroke-width="0" stroke="#99D2BD" d = " M306 198 C304.527,198 305,199.952 305,201 306.473,201 306,199.048 306,198  Z"/>

<path  fill="#99D2BD" stroke-width="0" stroke="#99D2BD" d = " M151 202 C152.014,202 153,205.959 153,207 151.362,207 151,203.424 151,202  Z"/>

<path  fill="#99D2BD" stroke-width="0" stroke="#99D2BD" d = " M305 204 L304,206 C304,206 305,204 305,204  Z"/>

<path  fill="#99D2BD" stroke-width="0" stroke="#99D2BD" d = " M304 206 C302.527,206 303,207.952 303,209 304.473,209 304,207.048 304,206  Z"/>

<path  fill="#99D2BD" stroke-width="0" stroke="#99D2BD" d = " M153 209 L154,210 C154,210 153,209 153,209  Z"/>

<path  fill="#C7CBCA" stroke-width="0" stroke="#C7CBCA" d = " M291 226 C289.423,226 289,227.762 289,229 290.577,229 291,227.238 291,226  Z"/>

<path  fill="#C7CBCA" stroke-width="0" stroke="#C7CBCA" d = " M289 229 L287,231 C288.747,231 289,230.747 289,229  Z"/>

<path  fill="#C7CBCA" stroke-width="0" stroke="#C7CBCA" d = " M287 232 L286,233 C286,233 287,232 287,232  Z"/>

<path  fill="#C7CBCA" stroke-width="0" stroke="#C7CBCA" d = " M286 233 L285,234 C285,234 286,233 286,233  Z"/>

<path  fill="#C7CBCA" stroke-width="0" stroke="#C7CBCA" d = " M285 234 L284,235 C284,235 285,234 285,234  Z"/>

<path  fill="#C7CBCA" stroke-width="0" stroke="#C7CBCA" d = " M284 235 L283,236 C283,236 284,235 284,235  Z"/>

<path  fill="#C7CBCA" stroke-width="0" stroke="#C7CBCA" d = " M283 236 L282,237 C282,237 283,236 283,236  Z"/>

<path  fill="#C7CBCA" stroke-width="0" stroke="#C7CBCA" d = " M282 237 L281,238 C281,238 282,237 282,237  Z"/>

</g>
</svg>
