<svg xmlns="http://www.w3.org/2000/svg" xmlns:xlink="http://www.w3.org/1999/xlink"  viewBox="0 0 456 320">
<g>
<rect width="456" height="320" fill="#000000"  stroke-width="0" /> 
<path  fill="#1E9C59" stroke-width="0" stroke="#1E9C59" d = " M227 55 L222,57 C222,54.3221 220.089,53.6774 219,51.5 211.725,36.9509 195.145,43 183,43 183,41.3756 183,40.25 183,38 183,36.2008 196.384,37 198.5,37 198.5,37 209.5,37 209.5,37 214.389,39.4443 227,48.191 227,55  Z"/>

<path  fill="#1E9C59" stroke-width="0" stroke="#1E9C59" d = " M229 55 L234,57 C234,54.0238 237.734,52.0318 239,49.5 245.364,36.7724 263.207,43 274,43 274,43 274,38 274,38 260.032,38 242.393,32.7134 235,47.5 235,47.5 229,55 229,55  Z"/>

<path  fill="#1E9D5A" stroke-width="0" stroke="#1E9D5A" d = " M131 54 L131,60 C135.099,60 139.97,56.7651 143.5,55 149.839,51.8304 174.979,44 182,44 182,44 183,43 183,43 183,41.3756 183,40.25 183,38 171.615,38 152.335,45.0823 142.5,50 140.912,50.7938 131,52.4693 131,54  Z"/>

<path  fill="#1E9D5A" stroke-width="0" stroke="#1E9D5A" d = " M325 54 L326,61 C326,61 315.5,56 315.5,56 311.913,54.2064 276.968,43 274,43 274,43 274,38 274,38 284.862,38 304.048,45.274 313.5,50 315.088,50.7938 325,52.4693 325,54  Z"/>

<path  fill="#1E9D58" stroke-width="0" stroke="#1E9D58" d = " M181 58 C186.375,58 207.091,44.6818 213,56.5 L216,61 C217.208,61 219.947,57 222,57 222,54.3221 220.089,53.6774 219,51.5 211.725,36.9509 195.145,43 183,43 183,43 182,44 182,44 182,44 181,58 181,58  Z"/>

<path  fill="#1E9D58" stroke-width="0" stroke="#1E9D58" d = " M275 58 C268.718,58 254.104,45.3961 244,55.5 L241,60 C241,60 234,57 234,57 234,54.0238 237.734,52.0318 239,49.5 245.364,36.7724 263.207,43 274,43 274,47.331 275,53.5601 275,58  Z"/>

<path  fill="#1F9C58" stroke-width="0" stroke="#1F9C58" d = " M183 43 L182,44 C182,44 183,43 183,43  Z"/>

<path  fill="#1F9C58" stroke-width="0" stroke="#1F9C58" d = " M327 77 C326.467,77 326,81.7069 326,83 326,83 314.5,77 314.5,77 305.767,72.6334 296.224,69.3619 287.5,65 284.164,63.3319 278.698,58 275,58 275,53.5601 274,47.331 274,43 276.968,43 311.913,54.2064 315.5,56 315.5,56 326,61 326,61 326,67.4514 327,72.6824 327,77  Z"/>

<path  fill="#1F9C58" stroke-width="0" stroke="#1F9C58" d = " M130 83 L131,83 C131,83 141.5,77 141.5,77 145.99,74.7548 178.777,59 181,59 181,59 181,58 181,58 181,58 182,44 182,44 174.979,44 149.839,51.8304 143.5,55 139.97,56.7651 135.099,60 131,60 131,60 130,61 130,61 130,65.781 130,69.7991 130,77 130,77 130,83 130,83  Z"/>

<path  fill="#1F9D58" stroke-width="0" stroke="#1F9D58" d = " M201 73 L202,73 C202,69.7229 213.625,61 216,61 216,61 213,56.5 213,56.5 207.091,44.6818 186.375,58 181,58 181,58 181,59 181,59 181,59 178,77 178,77 185.029,77 189.485,66.9926 197.5,71 198.658,71.5792 201,70.659 201,73  Z"/>

<path  fill="#1F9D58" stroke-width="0" stroke="#1F9D58" d = " M255 73 C255,70.7181 260.29,70 262,70 268.566,70 272.902,77 279,77 279,77 275,58 275,58 268.718,58 254.104,45.3961 244,55.5 244,55.5 241,60 241,60 241,60 241,61 241,61 246.27,61 250.112,73 255,73  Z"/>

<path  fill="#197E64" stroke-width="0" stroke="#197E64" d = " M102 69 L104,74 C107.895,74 124.674,61 130,61 130,61 131,60 131,60 131,60 131,54 131,54 123.307,54 115.118,61.6908 108.5,65 107.074,65.7129 102,66.7645 102,69  Z"/>

<path  fill="#197E64" stroke-width="0" stroke="#197E64" d = " M354 69 L352,74 C350.204,74 330.64,61 326,61 326,61 325,54 325,54 328.658,54 354,66.6889 354,69  Z"/>

<path  fill="#3EA665" stroke-width="0" stroke="#3EA665" d = " M222 84 C225.251,84 230.749,84 234,84 234,84 234,57 234,57 234,57 229,55 229,55 229,56.93 227.839,55 227,55 227,55 222,57 222,57 222,65.411 222,75.4269 222,84  Z"/>

<path  fill="#40A565" stroke-width="0" stroke="#40A565" d = " M222 84 L217,85 C217,77.1051 216,68.2167 216,61 217.208,61 219.947,57 222,57 222,65.411 222,75.4269 222,84  Z"/>

<path  fill="#40A565" stroke-width="0" stroke="#40A565" d = " M234 84 L239,85 C239,85 239,66.5 239,66.5 239,64.9683 239.173,61 241,61 241,61 241,60 241,60 241,60 234,57 234,57 234,57 234,84 234,84  Z"/>

<path  fill="#1E9C5A" stroke-width="0" stroke="#1E9C5A" d = " M326 98 L327,98 C327,93.5003 326,87.074 326,83 326,83 314.5,77 314.5,77 305.767,72.6334 296.224,69.3619 287.5,65 284.164,63.3319 278.698,58 275,58 275,58 279,77 279,77 279,77 279,78 279,78 283.184,78 288.812,83.1559 292.5,85 301.236,89.368 311.747,90.6237 320.5,95 320.5,95 326,98 326,98  Z"/>

<path  fill="#1E9C5A" stroke-width="0" stroke="#1E9C5A" d = " M130 84 C130,89.2366 130,92.6342 130,98 131.014,98 165.535,84.4825 168.5,83 171.195,81.6526 174.969,77 178,77 178,77 181,59 181,59 178.777,59 145.99,74.7548 141.5,77 141.5,77 131,83 131,83 131,83 130,84 130,84  Z"/>

<path  fill="#197F61" stroke-width="0" stroke="#197F61" d = " M111 85 L112,85 C112,82.8861 127.353,77 130,77 130,69.7991 130,65.781 130,61 124.674,61 107.895,74 104,74 104,74 104,75 104,75 105.762,75 111,83.5668 111,85  Z"/>

<path  fill="#3EA566" stroke-width="0" stroke="#3EA566" d = " M217 85 C213.318,85 206.451,92 204,92 204,85.2274 202,78.9955 202,73 202,69.7229 213.625,61 216,61 216,68.2167 217,77.1051 217,85  Z"/>

<path  fill="#3EA566" stroke-width="0" stroke="#3EA566" d = " M239 85 L252,91 C252,88.9124 252.779,74 255,74 255,74 255,73 255,73 250.112,73 246.27,61 241,61 239.173,61 239,64.9683 239,66.5 239,66.5 239,85 239,85  Z"/>

<path  fill="#197F61" stroke-width="0" stroke="#197F61" d = " M327 77 C333.155,77 340.871,85 345,85 345,83.9082 350.18,75 352,75 352,75 352,74 352,74 350.204,74 330.64,61 326,61 326,67.4514 327,72.6824 327,77  Z"/>

<path  fill="#187E61" stroke-width="0" stroke="#187E61" d = " M57 138 L61,139 C62.9515,139 61.4772,136.546 62,135.5 64.2745,130.951 63.7429,125.014 66,120.5 72.3387,107.823 79.7064,95.7936 90,85.5 93.2259,82.2741 99.5654,75 104,75 104,75 104,74 104,74 104,74 102,69 102,69 96.0528,69 92.0461,78.2269 86.5,81 73.3364,87.5818 57,123.043 57,138  Z"/>

<path  fill="#187E61" stroke-width="0" stroke="#187E61" d = " M400 138 L395,139 C395,125.158 377.603,91.0513 365.5,85 361.661,83.0806 357.475,75 352,75 352,75 352,74 352,74 352,74 354,69 354,69 359.297,69 363.779,77.1393 367.5,79 380.393,85.4467 400,122.979 400,138  Z"/>

<path  fill="#1D9C5A" stroke-width="0" stroke="#1D9C5A" d = " M189 95 L190,95 C190,86.9492 201,77.1903 201,73 201,70.659 198.658,71.5792 197.5,71 189.485,66.9926 185.029,77 178,77 178,82.9367 177,90.507 177,98 177,98 189,95 189,95  Z"/>

<path  fill="#1D9C5A" stroke-width="0" stroke="#1D9C5A" d = " M267 95 L279,98 C279,90.5721 279,85.524 279,78 279,78 279,77 279,77 272.902,77 268.566,70 262,70 260.29,70 255,70.7181 255,73 255,73 255,74 255,74 256.949,74 267,92.3266 267,95  Z"/>

<path  fill="#3FA664" stroke-width="0" stroke="#3FA664" d = " M190 95 L195,100 C198.398,100 200.13,93 204,93 204,93 204,92 204,92 204,85.2274 202,78.9955 202,73 202,73 201,73 201,73 201,77.1903 190,86.9492 190,95  Z"/>

<path  fill="#3FA664" stroke-width="0" stroke="#3FA664" d = " M261 101 L262,101 C262,101 263,99 263,99 263,97.2531 263.253,97 265,97 265,97 267,96 267,96 267,96 267,95 267,95 267,92.3266 256.949,74 255,74 252.779,74 252,88.9124 252,91 252,91 252,92 252,92 254.344,92 261,99.6769 261,101  Z"/>

<path  fill="#1A7E64" stroke-width="0" stroke="#1A7E64" d = " M61 140 C64.541,140 67.1447,143 71,143 71,129.164 81.185,117.13 87,105.5 87,105.5 93,99.5 93,99.5 94.796,95.908 107.38,85 111,85 111,83.5668 105.762,75 104,75 99.5654,75 93.2259,82.2741 90,85.5 79.7064,95.7936 72.3387,107.823 66,120.5 63.7429,125.014 64.2745,130.951 62,135.5 61.4772,136.546 62.9515,139 61,139 61,139 61,140 61,140  Z"/>

<path  fill="#1A7E64" stroke-width="0" stroke="#1A7E64" d = " M395 140 C391.459,140 388.855,143 385,143 385,126.443 372.724,108.224 361,96.5 357.903,93.4026 348.793,85 345,85 345,83.9082 350.18,75 352,75 357.475,75 361.661,83.0806 365.5,85 377.603,91.0513 395,125.158 395,139 395,139 395,140 395,140  Z"/>

<path  fill="#1A7F63" stroke-width="0" stroke="#1A7F63" d = " M112 85 L116,92 C116,92 130,84 130,84 130,84 130,83 130,83 130,83 130,77 130,77 127.353,77 112,82.8861 112,85  Z"/>

<path  fill="#1F9B5A" stroke-width="0" stroke="#1F9B5A" d = " M130 121 L131,121 C131,118.855 155.403,107 159,107 159,104.545 170.459,101 173,101 173,101 177,99 177,99 177,99 177,98 177,98 177,90.507 178,82.9367 178,77 174.969,77 171.195,81.6526 168.5,83 165.535,84.4825 131.014,98 130,98 130,98 129,110 129,110 129,113.948 130,117.181 130,121  Z"/>

<path  fill="#1A7F63" stroke-width="0" stroke="#1A7F63" d = " M345 85 C345,88.1009 341,88.3871 341,92 335.693,92 330.888,83 326,83 326,81.7069 326.467,77 327,77 333.155,77 340.871,85 345,85  Z"/>

<path  fill="#1F9B5A" stroke-width="0" stroke="#1F9B5A" d = " M327 111 C327,114.717 326,116.842 326,120 319.308,120 289.055,99 279,99 279,99 279,98 279,98 279,90.5721 279,85.524 279,78 283.184,78 288.812,83.1559 292.5,85 301.236,89.368 311.747,90.6237 320.5,95 320.5,95 326,98 326,98 326,101.823 327,106.586 327,111  Z"/>

<path  fill="#187E62" stroke-width="0" stroke="#187E62" d = " M131 83 L130,84 C130,84 130,83 130,83 130,83 131,83 131,83  Z"/>

<path  fill="#40A664" stroke-width="0" stroke="#40A664" d = " M229 112 C232.448,112 231.91,117 234,117 234,117 234,84 234,84 230.749,84 225.251,84 222,84 222,95.3038 222,106.164 222,117 222,117 227,112 227,112 227,108.85 229,108.554 229,112  Z"/>

<path  fill="#187E62" stroke-width="0" stroke="#187E62" d = " M333 102 L334,102 C334,99.7535 339.059,93 341,93 341,93 341,92 341,92 335.693,92 330.888,83 326,83 326,87.074 327,93.5003 327,98 327,98 333,102 333,102  Z"/>

<path  fill="#187E62" stroke-width="0" stroke="#187E62" d = " M130 98 L123,102 C123,102 116,92 116,92 116,92 130,84 130,84 130,89.2366 130,92.6342 130,98  Z"/>

<path  fill="#3FA566" stroke-width="0" stroke="#3FA566" d = " M221 120 L218,121 C218,121 217,85 217,85 217,85 222,84 222,84 222,95.3038 222,106.164 222,117 222,117 221,120 221,120  Z"/>

<path  fill="#3FA566" stroke-width="0" stroke="#3FA566" d = " M236 120 L238,121 C238,109.77 239,96.9046 239,85 239,85 234,84 234,84 234,84 234,117 234,117 234,117 236,120 236,120  Z"/>

<path  fill="#1B7F62" stroke-width="0" stroke="#1B7F62" d = " M77 146 L78,146 C78,132.664 91.721,112.779 101,103.5 103.497,101.003 113.973,92 116,92 116,92 112,85 112,85 112,85 111,85 111,85 107.38,85 94.796,95.908 93,99.5 93,99.5 87,105.5 87,105.5 81.185,117.13 71,129.164 71,143 71,143 71,144 71,144 71.9857,144 77,145.087 77,146  Z"/>

<path  fill="#3EA666" stroke-width="0" stroke="#3EA666" d = " M209 117 C209,119.644 218,122.004 218,121 218,121 217,85 217,85 213.318,85 206.451,92 204,92 204,92 204,93 204,93 204,100.843 209,111.263 209,117  Z"/>

<path  fill="#3EA666" stroke-width="0" stroke="#3EA666" d = " M247 118 C247,120.056 240.09,121 238,121 238,109.77 239,96.9046 239,85 239,85 252,91 252,91 252,91 252,92 252,92 252,92 251,106.5 251,106.5 251,106.5 247,118 247,118  Z"/>

<path  fill="#1B7F62" stroke-width="0" stroke="#1B7F62" d = " M385 144 L379,145 C379,136.346 361.832,106.166 353.5,102 349.147,99.8233 346.155,93 341,93 341,93 341,92 341,92 341,88.3871 345,88.1009 345,85 348.793,85 357.903,93.4026 361,96.5 372.724,108.224 385,126.443 385,143 385,143 385,144 385,144  Z"/>

<path  fill="#1B7E63" stroke-width="0" stroke="#1B7E63" d = " M78 146 C82.0804,146 84.7381,149 89,149 89,135.482 107.093,103 123,103 123,103 123,102 123,102 123,102 116,92 116,92 113.973,92 103.497,101.003 101,103.5 91.721,112.779 78,132.664 78,146  Z"/>

<path  fill="#40A564" stroke-width="0" stroke="#40A564" d = " M250 116 L247,118 C247,118 251,106.5 251,106.5 251,106.5 252,92 252,92 254.344,92 261,99.6769 261,101 261,101 261,103 261,103 259.383,103 257,107.583 257,109 255.253,109 255,109.253 255,111 252.774,111 251,112.774 251,115 251,115 250,116 250,116  Z"/>

<path  fill="#40A564" stroke-width="0" stroke="#40A564" d = " M206 116 L209,117 C209,111.263 204,100.843 204,93 200.13,93 198.398,100 195,100 195,100 195,101 195,101 195,106.115 205,109.888 205,115 205,115 206,116 206,116  Z"/>

<path  fill="#1B7E63" stroke-width="0" stroke="#1B7E63" d = " M379 146 L367,149 C367,134.352 356.645,124.791 351,113.5 349.479,110.457 334,102.529 334,102 334,99.7535 339.059,93 341,93 346.155,93 349.147,99.8233 353.5,102 361.832,106.166 379,136.346 379,145 379,145 379,146 379,146  Z"/>

<path  fill="#1E9C58" stroke-width="0" stroke="#1E9C58" d = " M177 98 L177,99 C181.499,99 184.354,97 189,97 189,97 189,95 189,95 189,95 177,98 177,98  Z"/>

<path  fill="#3FA466" stroke-width="0" stroke="#3FA466" d = " M194 101 L195,101 C195,101 195,100 195,100 195,100 190,95 190,95 190,95 189,95 189,95 189,95 189,97 189,97 191.813,97 192.461,101 194,101  Z"/>

<path  fill="#1E9C58" stroke-width="0" stroke="#1E9C58" d = " M279 98 L279,99 C274.525,99 271.775,97 267,97 267,97 267,96 267,96 267,96 267,95 267,95 267,95 279,98 279,98  Z"/>

<path  fill="#3FA466" stroke-width="0" stroke="#3FA466" d = " M265 97 L267,97 C267,97 267,96 267,96 267,96 265,97 265,97  Z"/>

<path  fill="#CACCC7" stroke-width="0" stroke="#CACCC7" d = " M205 115 L206,116 C206,117.945 203.34,115.42 202.5,115 198.008,112.754 194.901,106.2 192.5,105 192.5,105 187.5,101 187.5,101 182.039,98.2695 175.726,105 171,105 171,105 170,106 170,106 170,106 169,106 169,106 169,106 168,107 168,107 168,107 167,107 167,107 167,107 162,107 162,107 162,107 173,101 173,101 174.465,101 177,101.109 177,99 181.499,99 184.354,97 189,97 191.813,97 192.461,101 194,101 194,103.761 201.544,115 205,115  Z"/>

<path  fill="#3FA466" stroke-width="0" stroke="#3FA466" d = " M265 97 C263.253,97 263,97.2531 263,99 263,99 265,97 265,97  Z"/>

<path  fill="#CACCC7" stroke-width="0" stroke="#CACCC7" d = " M251 115 L250,116 C250,117.585 254.056,115.444 255,114.5 255,114.5 268.5,101 268.5,101 273.961,98.2695 280.274,105 285,105 285,105 286,106 286,106 286,106 287,106 287,106 287,106 288,107 288,107 288,107 289,107 289,107 289,107 294,107 294,107 294,107 279,99 279,99 274.525,99 271.775,97 267,97 267,97 265,97 265,97 265,97 263,99 263,99 263,99 263,101 263,101 263,101 261,103 261,103 261,104.664 259.177,109 257,109 257,110.747 256.747,111 255,111 255,112.366 252.634,115 251,115  Z"/>

<path  fill="#197D61" stroke-width="0" stroke="#197D61" d = " M123 103 L129,110 C129,110 130,98 130,98 130,98 123,102 123,102 123,102 123,103 123,103  Z"/>

<path  fill="#197D61" stroke-width="0" stroke="#197D61" d = " M333 102 C333,103.549 328.328,111 327,111 327,106.586 326,101.823 326,98 326,98 327,98 327,98 327,98 333,102 333,102  Z"/>

<path  fill="#1D9D5A" stroke-width="0" stroke="#1D9D5A" d = " M177 99 L173,101 C174.465,101 177,101.109 177,99  Z"/>

<path  fill="#3FA466" stroke-width="0" stroke="#3FA466" d = " M262 101 L263,101 C263,101 263,99 263,99 263,99 262,101 262,101  Z"/>

<path  fill="#1D9D5A" stroke-width="0" stroke="#1D9D5A" d = " M327 121 L326,122 C321.044,122 302.46,107 294,107 294,107 279,99 279,99 289.055,99 319.308,120 326,120 326,120 327,121 327,121  Z"/>

<path  fill="#1D9D5A" stroke-width="0" stroke="#1D9D5A" d = " M159 107 L162,107 C162,107 173,101 173,101 170.459,101 159,104.545 159,107  Z"/>

<path  fill="#C9C7C9" stroke-width="0" stroke="#C9C7C9" d = " M131 127 L125,130 C125,127.138 131.654,123.923 133.5,123 141.618,118.941 149.475,115.012 157.5,111 159.068,110.216 167,109.076 167,107 167,107 168,107 168,107 168,107 169,106 169,106 169,106 170,106 170,106 170,106 171,105 171,105 175.726,105 182.039,98.2695 187.5,101 187.5,101 192.5,105 192.5,105 194.901,106.2 198.008,112.754 202.5,115 203.34,115.42 206,117.945 206,116 206,116 209,117 209,117 209,119.644 218,122.004 218,121 218,121 221,120 221,120 221,124.655 227.856,120 228.5,120 228.5,120 229.5,122 229.5,122 230.859,122.68 236,121.011 236,120 236,120 238,121 238,121 240.09,121 247,120.056 247,118 247,118 250,116 250,116 250,117.585 254.056,115.444 255,114.5 255,114.5 268.5,101 268.5,101 273.961,98.2695 280.274,105 285,105 285,105 286,106 286,106 286,106 287,106 287,106 287,106 288,107 288,107 288,107 289,107 289,107 289,109.031 298.733,111.117 300.5,112 305.958,114.729 312.081,116.29 317.5,119 317.5,119 329.5,128 329.5,128 329.5,128 337,135 337,135 333.13,135 327.164,126.332 322.5,124 313.488,119.494 303.439,117.47 294.5,113 291.132,111.316 280.336,113.582 277.5,115 277.5,115 270.5,116 270.5,116 270.5,116 254.5,127 254.5,127 248.618,129.941 242.34,132.08 236.5,135 234.699,135.901 230.673,135.586 229.5,135 228.965,134.732 217.305,134.903 213.5,133 203.179,127.84 193.884,120.192 183.5,115 172.898,109.699 151.66,115.42 142.5,120 140.401,121.05 131,123.981 131,127  Z"/>

<path  fill="#40A465" stroke-width="0" stroke="#40A465" d = " M195 101 C195,106.115 205,109.888 205,115 201.544,115 194,103.761 194,101 194,101 195,101 195,101  Z"/>

<path  fill="#40A465" stroke-width="0" stroke="#40A465" d = " M263 101 L261,103 C261,103 261,101 261,101 261,101 262,101 262,101 262,101 263,101 263,101  Z"/>

<path  fill="#187D61" stroke-width="0" stroke="#187D61" d = " M353 165 L364,167 C364,163.041 361.6,150 367,150 367,150 367,149 367,149 367,134.352 356.645,124.791 351,113.5 349.479,110.457 334,102.529 334,102 334,102 333,102 333,102 333,103.549 328.328,111 327,111 327,114.717 326,116.842 326,120 326,120 327,121 327,121 330.452,121 333.498,127.999 335.5,129 345.298,133.899 352,153.983 352,165 352,165 353,165 353,165  Z"/>

<path  fill="#187D61" stroke-width="0" stroke="#187D61" d = " M104 165 L93,167 C93,164.349 94.7724,150 89,150 89,150 89,149 89,149 89,135.482 107.093,103 123,103 123,103 129,110 129,110 129,113.948 130,117.181 130,121 127.012,121 122.185,127.315 120,129.5 110.748,138.752 104,151.76 104,165  Z"/>

<path  fill="#40A465" stroke-width="0" stroke="#40A465" d = " M261 103 C259.383,103 257,107.583 257,109 259.177,109 261,104.664 261,103  Z"/>

<path  fill="#C9C9CA" stroke-width="0" stroke="#C9C9CA" d = " M171 105 L170,106 C170,106 171,105 171,105  Z"/>

<path  fill="#C9C9CA" stroke-width="0" stroke="#C9C9CA" d = " M285 105 L286,106 C286,106 285,105 285,105  Z"/>

<path  fill="#C9C9CA" stroke-width="0" stroke="#C9C9CA" d = " M169 106 L168,107 C168,107 169,106 169,106  Z"/>

<path  fill="#C9C9CA" stroke-width="0" stroke="#C9C9CA" d = " M287 106 L288,107 C288,107 287,106 287,106  Z"/>

<path  fill="#1D9D5A" stroke-width="0" stroke="#1D9D5A" d = " M159 107 C155.403,107 131,118.855 131,121 131,121 153,110.5 153,110.5 154.825,108.675 159,110.417 159,107  Z"/>

<path  fill="#C9C9CA" stroke-width="0" stroke="#C9C9CA" d = " M117 137 L118,137 C118,137 119,136 119,136 119,136 120,135 120,135 120,135 121,134 121,134 121,134 122,133 122,133 122,133 123,132 123,132 123,132 124,131 124,131 124,131 125,130 125,130 125,127.138 131.654,123.923 133.5,123 141.618,118.941 149.475,115.012 157.5,111 159.068,110.216 167,109.076 167,107 167,107 162,107 162,107 162,107 159,107 159,107 159,110.417 154.825,108.675 153,110.5 153,110.5 131,121 131,121 131,121 130,122 130,122 130,124.537 117,131.373 117,137  Z"/>

<path  fill="#C9C9CA" stroke-width="0" stroke="#C9C9CA" d = " M349 158 L350,158 C350,149.91 343.119,138.619 337.5,133 337.5,133 326,122 326,122 321.044,122 302.46,107 294,107 294,107 289,107 289,107 289,109.031 298.733,111.117 300.5,112 305.958,114.729 312.081,116.29 317.5,119 317.5,119 329.5,128 329.5,128 329.5,128 337,135 337,135 337,135 337,136 337,136 338.59,136 343,141.662 343,143 343,143 343,144 343,144 343,144 344,145 344,145 344,145 344,146 344,146 344,146 345,147 345,147 345,147 345,148 345,148 347.216,148 349,155.15 349,157 349,157 349,158 349,158  Z"/>

<path  fill="#40A465" stroke-width="0" stroke="#40A465" d = " M257 109 C255.253,109 255,109.253 255,111 256.747,111 257,110.747 257,109  Z"/>

<path  fill="#40A465" stroke-width="0" stroke="#40A465" d = " M255 111 C252.774,111 251,112.774 251,115 252.634,115 255,112.366 255,111  Z"/>

<path  fill="#7ED04B" stroke-width="0" stroke="#7ED04B" d = " M221 120 C221,124.655 227.856,120 228.5,120 L229.5,122 C230.859,122.68 236,121.011 236,120 236,120 234,117 234,117 231.91,117 232.448,112 229,112 229,113.93 227.839,112 227,112 227,112 222,117 222,117 222,117 221,120 221,120  Z"/>

<path  fill="#CCC7C9" stroke-width="0" stroke="#CCC7C9" d = " M345 148 L346,151 C346,151 342,144.5 342,144.5 342,144.5 324.5,127 324.5,127 316.512,123.006 284.793,111.854 274.5,117 274.5,117 269,120 269,120 269,120 268,121 268,121 266.428,121 261,123.052 261,125 259.762,125 258,125.423 258,127 256.762,127 255,127.423 255,129 253.762,129 252,129.423 252,131 250.762,131 249,131.423 249,133 246.033,133 235.189,141.844 231.5,140 231.5,140 228.5,137 228.5,137 228.5,137 224.5,140 224.5,140 224.5,140 219.5,139 219.5,139 216.561,137.53 210.127,133 207,133 207,131.505 187.567,119 186,119 186,119 182.5,117 182.5,117 182.5,117 160.5,117 160.5,117 155.661,119.419 149.279,118.61 144.5,121 144.5,121 131,127 131,127 131,123.981 140.401,121.05 142.5,120 151.66,115.42 172.898,109.699 183.5,115 193.884,120.192 203.179,127.84 213.5,133 217.305,134.903 228.965,134.732 229.5,135 230.673,135.586 234.699,135.901 236.5,135 242.34,132.08 248.618,129.941 254.5,127 254.5,127 270.5,116 270.5,116 270.5,116 277.5,115 277.5,115 280.336,113.582 291.132,111.316 294.5,113 303.439,117.47 313.488,119.494 322.5,124 327.164,126.332 333.13,135 337,135 337,135 337,136 337,136 337,136 343,143 343,143 343,143 343,144 343,144 343,144 344,145 344,145 344,145 344,146 344,146 344,146 345,147 345,147 345,147 345,148 345,148  Z"/>

<path  fill="#98D5F9" stroke-width="0" stroke="#98D5F9" d = " M126 229 C127.936,229 131.554,234 135,234 143.325,234 153.647,236.927 161.5,233 161.5,233 170.5,227 170.5,227 174.031,225.234 174.684,206 182,206 182,206 191,198 191,198 191,192.211 192,186.22 192,181 192,179.679 191.316,175 193,175 193,175 193,170 193,170 193,170 194,169 194,169 194,169 195,161 195,161 195,156.187 198.473,146.445 196,141.5 194.172,137.843 191,130.052 191,126 191,126 186,119 186,119 186,119 182.5,117 182.5,117 182.5,117 160.5,117 160.5,117 155.661,119.419 149.279,118.61 144.5,121 144.5,121 131,127 131,127 131,127 115,143 115,143 115,144.238 114.577,146 113,146 113,147.238 112.577,149 111,149 111,149 111,151 111,151 111,151 110,152 110,152 110,152 110,153 110,153 110,153 109,154 109,154 109,154 109,156 109,156 109,156 108,157 108,157 108,157 107,159 107,159 107,159 107,160 107,160 107,160 107,161 107,161 107,162.145 107.579,165 106,165 106,165 106,166 106,166 106,176.489 106.693,184.886 111,193.5 111,193.5 112,203.5 112,203.5 112,203.5 115,214 115,214 115,214 115,215 115,215 115,215 116,216 116,216 116,216 116,217 116,217 116,217 117,218 117,218 117,218 117,219 117,219 117,219 119,221 119,221 119,221 119,222 119,222 119,222 121,224 121,224 121,224 122,226 122,226 122,226 126,229 126,229  Z"/>

<path  fill="#98D5F9" stroke-width="0" stroke="#98D5F9" d = " M330 230 L321,235 C308.707,235 299.58,235.04 289.5,230 281.733,226.117 282.016,206 274,206 274,206 265,197 265,197 265,191.191 266.468,182.435 264,177.5 263.426,176.353 265.064,173 263,173 263,173 263,168 263,168 263,168 262,167 262,167 262,167 262,164 262,164 262,164 261,163 261,163 261,163 261,160 261,160 261,160 261,137.5 261,137.5 262.688,134.124 266,128.861 266,125 266,125 268,121 268,121 268,121 269,120 269,120 269,120 274.5,117 274.5,117 284.793,111.854 316.512,123.006 324.5,127 324.5,127 342,144.5 342,144.5 342,144.5 346,151 346,151 346,151 346,152 346,152 346,152 347,153 347,153 347,153 347,155 347,155 347,155 348,156 348,156 348,156 348,157 348,157 348,157 349,158 349,158 349,158 349,159 349,159 349,159 350,166 350,166 350,171.918 351.506,181.488 349,186.5 346.418,191.665 345,195.665 345,202 343.566,202 343,208.448 343,210 341.362,210 341,213.576 341,215 341,215 341,216 341,216 341,216 340,217 340,217 340,217 339,219 339,219 339,219 338,221 338,221 338,221 337,222 337,222 337,222 336,223 336,223 336,223 335,225 335,225 335,225 334,226 334,226 334,226 333,227 333,227 333,227 331,229 331,229 331,229 330,230 330,230  Z"/>

<path  fill="#AAA8A9" stroke-width="0" stroke="#AAA8A9" d = " M191 126 C191,121.211 204.917,133 207,133 207,131.505 187.567,119 186,119 186,119 191,126 191,126  Z"/>

<path  fill="#AAA8A9" stroke-width="0" stroke="#AAA8A9" d = " M269 120 L268,121 C268,121 269,120 269,120  Z"/>

<path  fill="#188064" stroke-width="0" stroke="#188064" d = " M105 165 L106,165 C106,165 106,161 106,161 106,161 106,160 106,160 106,157.658 106.131,150 109,150 109,148.762 109.423,147 111,147 111,147 111,146 111,146 111,144.762 111.423,143 113,143 113,143 114,141 114,141 114,139.571 115.288,137 117,137 117,131.373 130,124.537 130,122 130,122 130,121 130,121 127.012,121 122.185,127.315 120,129.5 110.748,138.752 104,151.76 104,165 104,165 105,165 105,165  Z"/>

<path  fill="#1D9D5A" stroke-width="0" stroke="#1D9D5A" d = " M131 121 L130,122 C130,122 130,121 130,121 130,121 131,121 131,121  Z"/>

<path  fill="#AAA8A9" stroke-width="0" stroke="#AAA8A9" d = " M261 125 C263.25,125 264.376,125 266,125 266,125 268,121 268,121 266.428,121 261,123.052 261,125  Z"/>

<path  fill="#188064" stroke-width="0" stroke="#188064" d = " M351 165 L352,165 C352,153.983 345.298,133.899 335.5,129 333.498,127.999 330.452,121 327,121 327,121 326,122 326,122 326,122 337.5,133 337.5,133 343.119,138.619 350,149.91 350,158 350,158 350,159 350,159 350,159 350,160 350,160 350,160 351,162 351,162 351,162 351,165 351,165  Z"/>

<path  fill="#A8AAAA" stroke-width="0" stroke="#A8AAAA" d = " M197 157 L195,161 C195,156.187 198.473,146.445 196,141.5 194.172,137.843 191,130.052 191,126 191,121.211 204.917,133 207,133 207,133 207,134 207,134 207,134 208,135 208,135 208,142.124 197,151.659 197,157  Z"/>

<path  fill="#A8AAAA" stroke-width="0" stroke="#A8AAAA" d = " M259 157 L261,160 C261,160 261,137.5 261,137.5 262.688,134.124 266,128.861 266,125 264.376,125 263.25,125 261,125 261,126.577 259.238,127 258,127 258,128.577 256.238,129 255,129 255,130.577 253.238,131 252,131 252,131 249,134 249,134 249,134 248,138.5 248,138.5 250.701,143.901 259,150.786 259,157  Z"/>

<path  fill="#AAA8A9" stroke-width="0" stroke="#AAA8A9" d = " M261 125 C259.762,125 258,125.423 258,127 259.238,127 261,126.577 261,125  Z"/>

<path  fill="#CCC7C9" stroke-width="0" stroke="#CCC7C9" d = " M115 141 L115,143 C115,143 131,127 131,127 131,127 125,130 125,130 125,130 124,131 124,131 124,131 123,132 123,132 123,132 122,133 122,133 122,133 121,134 121,134 121,134 120,135 120,135 120,135 119,136 119,136 119,136 118,137 118,137 118,137 117,138 117,138 117,138 117,139 117,139 117,139 116,140 116,140 116,140 115,141 115,141  Z"/>

<path  fill="#AAA8A9" stroke-width="0" stroke="#AAA8A9" d = " M258 127 C256.762,127 255,127.423 255,129 256.238,129 258,128.577 258,127  Z"/>

<path  fill="#AAA8A9" stroke-width="0" stroke="#AAA8A9" d = " M255 129 C253.762,129 252,129.423 252,131 253.238,131 255,130.577 255,129  Z"/>

<path  fill="#C9C7C9" stroke-width="0" stroke="#C9C7C9" d = " M125 130 L124,131 C124,131 125,130 125,130  Z"/>

<path  fill="#C9C7C9" stroke-width="0" stroke="#C9C7C9" d = " M124 131 L123,132 C123,132 124,131 124,131  Z"/>

<path  fill="#AAA8A9" stroke-width="0" stroke="#AAA8A9" d = " M249 133 L249,134 C249,134 252,131 252,131 250.762,131 249,131.423 249,133  Z"/>

<path  fill="#C9C7C9" stroke-width="0" stroke="#C9C7C9" d = " M123 132 L122,133 C122,133 123,132 123,132  Z"/>

<path  fill="#C9C7C9" stroke-width="0" stroke="#C9C7C9" d = " M122 133 L121,134 C121,134 122,133 122,133  Z"/>

<path  fill-rule="evenodd" fill="#97D6F9" stroke-width="0" stroke="#97D6F9" d = " M209 139 C209,140.93 210.93,139 209,139  M245 137 C245,142.677 249.136,137 245,137  M210 137 C210,141.123 214.123,137 210,137  M197 157 C200.504,157 202.551,152.475 205.5,151 211.586,147.957 217.292,144.104 223.5,141 225.325,140.087 227.316,142 228.5,142 229.684,142 231.675,140.087 233.5,141 237.071,142.785 257.248,157 259,157 259,150.786 250.701,143.901 248,138.5 248,138.5 249,134 249,134 249,134 249,133 249,133 246.033,133 235.189,141.844 231.5,140 231.5,140 228.5,137 228.5,137 228.5,137 224.5,140 224.5,140 224.5,140 219.5,139 219.5,139 216.561,137.53 210.127,133 207,133 207,133 207,134 207,134 207,134 208,135 208,135 208,142.124 197,151.659 197,157  Z"/>

<path  fill="#C9C7C9" stroke-width="0" stroke="#C9C7C9" d = " M121 134 L120,135 C120,135 121,134 121,134  Z"/>

<path  fill="#AAA8A9" stroke-width="0" stroke="#AAA8A9" d = " M207 134 L208,135 C208,135 207,134 207,134  Z"/>

<path  fill="#C9C7C9" stroke-width="0" stroke="#C9C7C9" d = " M120 135 L119,136 C119,136 120,135 120,135  Z"/>

<path  fill="#C9C7C9" stroke-width="0" stroke="#C9C7C9" d = " M119 136 L118,137 C118,137 119,136 119,136  Z"/>

<path  fill="#C9C7C9" stroke-width="0" stroke="#C9C7C9" d = " M337 136 C338.59,136 343,141.662 343,143 343,143 337,136 337,136  Z"/>

<path  fill="#C9C9CA" stroke-width="0" stroke="#C9C9CA" d = " M114 141 L115,141 C115,141 116,140 116,140 116,140 117,139 117,139 117,139 117,138 117,138 117,138 117,137 117,137 115.288,137 114,139.571 114,141  Z"/>

<path  fill="#C9C7C9" stroke-width="0" stroke="#C9C7C9" d = " M118 137 L117,138 C117,138 117,137 117,137 117,137 118,137 118,137  Z"/>

<path  fill="#90CBEC" stroke-width="0" stroke="#90CBEC" d = " M210 137 C210,141.123 214.123,137 210,137  Z"/>

<path  fill="#90CBEC" stroke-width="0" stroke="#90CBEC" d = " M245 137 C245,142.677 249.136,137 245,137  Z"/>

<path  fill="#1A7E62" stroke-width="0" stroke="#1A7E62" d = " M60 174 L55,175 C55,170.67 50.5111,163.478 53,158.5 55.3374,153.825 57,143.21 57,138 57,138 61,139 61,139 61,139 61,140 61,140 61,144.719 60.9795,150.541 59,154.5 59,154.5 60,174 60,174  Z"/>

<path  fill="#1A7E62" stroke-width="0" stroke="#1A7E62" d = " M397 174 L401,175 C403.156,175 403,167.923 403,166 403,156.23 400,147.591 400,138 400,138 395,139 395,139 395,139 395,140 395,140 395,142.937 395.706,147.913 397,150.5 397,150.5 397,174 397,174  Z"/>

<path  fill="#C9C7C9" stroke-width="0" stroke="#C9C7C9" d = " M117 139 L116,140 C116,140 117,139 117,139  Z"/>

<path  fill="#90CBEC" stroke-width="0" stroke="#90CBEC" d = " M209 139 C209,140.93 210.93,139 209,139  Z"/>

<path  fill="#1B8063" stroke-width="0" stroke="#1B8063" d = " M69 172 L60,174 C60,174 59,154.5 59,154.5 60.9795,150.541 61,144.719 61,140 64.541,140 67.1447,143 71,143 71,143 71,144 71,144 71,146.721 70.1645,150.171 69,152.5 69,152.5 69,171 69,171 69,171 69,172 69,172  Z"/>

<path  fill="#C9C7C9" stroke-width="0" stroke="#C9C7C9" d = " M116 140 L115,141 C115,141 116,140 116,140  Z"/>

<path  fill="#1B8063" stroke-width="0" stroke="#1B8063" d = " M396 174 L397,174 C397,174 397,150.5 397,150.5 395.706,147.913 395,142.937 395,140 391.459,140 388.855,143 385,143 385,143 385,144 385,144 385,144 387,149.5 387,149.5 389.779,155.058 387,166.614 387,172 390.519,172 392.843,174 396,174  Z"/>

<path  fill="#C9C9CA" stroke-width="0" stroke="#C9C9CA" d = " M113 143 L114,143 C114,143 114,141 114,141 114,141 113,143 113,143  Z"/>

<path  fill="#C9C7C9" stroke-width="0" stroke="#C9C7C9" d = " M114 143 L115,143 C115,143 115,141 115,141 115,141 114,141 114,141 114,141 114,143 114,143  Z"/>

<path  fill="#90CAED" stroke-width="0" stroke="#90CAED" d = " M221 207 L219,209 C219,200.705 214.394,196.288 211,189.5 211,189.5 207,186.5 207,186.5 205.422,183.344 201.095,176.798 197.5,175 197.5,175 193,176 193,176 193,176 193,175 193,175 193,175 193,170 193,170 193,170 194,169 194,169 194,169 195,161 195,161 195,161 197,157 197,157 200.504,157 202.551,152.475 205.5,151 211.586,147.957 217.292,144.104 223.5,141 225.325,140.087 227.316,142 228.5,142 229.684,142 231.675,140.087 233.5,141 237.071,142.785 257.248,157 259,157 259,157 261,160 261,160 261,160 261,163 261,163 261,163 262,164 262,164 262,164 262,167 262,167 262,167 263,168 263,168 263,168 263,173 263,173 263,173 263,175 263,175 253.237,175 237,199.632 237,209 237,209 235,205 235,205 235,193.436 231,183.317 231,172 231,172 229,159.5 229,159.5 229,159.5 228.5,151 228.5,151 228.5,151 228,154.5 228,154.5 225.959,158.582 226,166.27 226,171 226,171 225,173 225,173 225,184.932 221,195.068 221,207  Z"/>

<path  fill="#C9C9CA" stroke-width="0" stroke="#C9C9CA" d = " M111 146 L112,146 C112,146 113,145 113,145 113,145 113,144 113,144 113,144 113,143 113,143 111.423,143 111,144.762 111,146  Z"/>

<path  fill="#C9C7C9" stroke-width="0" stroke="#C9C7C9" d = " M114 143 L113,144 C113,144 113,143 113,143 113,143 114,143 114,143  Z"/>

<path  fill="#CCC7C9" stroke-width="0" stroke="#CCC7C9" d = " M113 145 L113,146 C114.577,146 115,144.238 115,143 115,143 114,143 114,143 114,143 113,144 113,144 113,144 113,145 113,145  Z"/>

<path  fill="#187C63" stroke-width="0" stroke="#187C63" d = " M69 171 L74,171 C74,162.571 77,154.28 77,146 77,145.087 71.9857,144 71,144 71,146.721 70.1645,150.171 69,152.5 69,152.5 69,171 69,171  Z"/>

<path  fill="#C9C7C9" stroke-width="0" stroke="#C9C7C9" d = " M343 144 L344,145 C344,145 343,144 343,144  Z"/>

<path  fill="#187C63" stroke-width="0" stroke="#187C63" d = " M382 171 L387,172 C387,166.614 389.779,155.058 387,149.5 387,149.5 385,144 385,144 385,144 379,145 379,145 379,145 379,146 379,146 379,154.003 382,162.325 382,171  Z"/>

<path  fill="#C9C7C9" stroke-width="0" stroke="#C9C7C9" d = " M112 146 L113,146 C113,146 113,145 113,145 113,145 112,146 112,146  Z"/>

<path  fill="#1C8063" stroke-width="0" stroke="#1C8063" d = " M88 168 L74,171 C74,162.571 77,154.28 77,146 77,146 78,146 78,146 82.0804,146 84.7381,149 89,149 89,149 89,150 89,150 89,155.421 88,161.091 88,167 88,167 88,168 88,168  Z"/>

<path  fill="#C9C7C9" stroke-width="0" stroke="#C9C7C9" d = " M112 146 L111,147 C111,147 111,146 111,146 111,146 112,146 112,146  Z"/>

<path  fill="#CCC7C9" stroke-width="0" stroke="#CCC7C9" d = " M111 147 L111,149 C112.577,149 113,147.238 113,146 113,146 112,146 112,146 112,146 111,147 111,147  Z"/>

<path  fill="#C9C7C9" stroke-width="0" stroke="#C9C7C9" d = " M344 146 L345,147 C345,147 344,146 344,146  Z"/>

<path  fill="#1C8063" stroke-width="0" stroke="#1C8063" d = " M369 168 C373.187,168 378.088,171 382,171 382,162.325 379,154.003 379,146 379,146 367,149 367,149 367,149 367,150 367,150 367,155.604 369,161.634 369,168  Z"/>

<path  fill="#C9C9CA" stroke-width="0" stroke="#C9C9CA" d = " M111 149 L109,150 C109,148.762 109.423,147 111,147 111,147 111,149 111,149  Z"/>

<path  fill="#C9C7C9" stroke-width="0" stroke="#C9C7C9" d = " M348 157 L349,157 C349,155.15 347.216,148 345,148 345,148 346,151 346,151 346,151 346,152 346,152 346,152 347,153 347,153 347,153 347,155 347,155 347,155 348,156 348,156 348,156 348,157 348,157  Z"/>

<path  fill="#C9C7C9" stroke-width="0" stroke="#C9C7C9" d = " M109 153 L110,153 C110,153 110,152 110,152 110,152 111,151 111,151 111,151 111,149 111,149 111,149 109,150 109,150 109,150 109,153 109,153  Z"/>

<path  fill="#197D63" stroke-width="0" stroke="#197D63" d = " M88 167 L93,167 C93,164.349 94.7724,150 89,150 89,155.421 88,161.091 88,167  Z"/>

<path  fill="#C9C9CA" stroke-width="0" stroke="#C9C9CA" d = " M106 160 L107,160 C107,160 107,159 107,159 107,159 107,157 107,157 107,157 109,153 109,153 109,153 109,150 109,150 106.131,150 106,157.658 106,160  Z"/>

<path  fill="#197D63" stroke-width="0" stroke="#197D63" d = " M364 167 L369,168 C369,161.634 367,155.604 367,150 361.6,150 364,163.041 364,167  Z"/>

<path  fill="#CCC7C9" stroke-width="0" stroke="#CCC7C9" d = " M111 151 L110,152 C110,152 111,151 111,151  Z"/>

<path  fill="#97D6F9" stroke-width="0" stroke="#97D6F9" d = " M226 171 L228.5,168 L231,172 C231,172 229,159.5 229,159.5 229,159.5 228.5,151 228.5,151 228.5,151 228,154.5 228,154.5 225.959,158.582 226,166.27 226,171  Z"/>

<path  fill="#CCC7C9" stroke-width="0" stroke="#CCC7C9" d = " M346 152 L347,153 C347,153 346,152 346,152  Z"/>

<path  fill="#C9C7C9" stroke-width="0" stroke="#C9C7C9" d = " M107 157 L108,157 C108,157 109,156 109,156 109,156 109,154 109,154 109,154 109,153 109,153 109,153 107,157 107,157  Z"/>

<path  fill="#CCC7C9" stroke-width="0" stroke="#CCC7C9" d = " M110 153 L109,154 C109,154 109,153 109,153 109,153 110,153 110,153  Z"/>

<path  fill="#CCC7C9" stroke-width="0" stroke="#CCC7C9" d = " M347 155 L348,156 C348,156 347,155 347,155  Z"/>

<path  fill="#CCC7C9" stroke-width="0" stroke="#CCC7C9" d = " M109 156 L108,157 C108,157 109,156 109,156  Z"/>

<path  fill="#CCC7C9" stroke-width="0" stroke="#CCC7C9" d = " M108 157 L107,159 C107,159 107,157 107,157 107,157 108,157 108,157  Z"/>

<path  fill="#CCC7C9" stroke-width="0" stroke="#CCC7C9" d = " M349 157 L349,158 C349,158 348,157 348,157 348,157 349,157 349,157  Z"/>

<path  fill="#C9C7C9" stroke-width="0" stroke="#C9C7C9" d = " M349 159 L350,159 C350,159 350,158 350,158 350,158 349,158 349,158 349,158 349,159 349,159  Z"/>

<path  fill="#CCC7C9" stroke-width="0" stroke="#CCC7C9" d = " M350 166 L351,166 C351,166 351,165 351,165 351,165 351,162 351,162 351,162 350,160 350,160 350,160 350,159 350,159 350,159 349,159 349,159 349,159 350,166 350,166  Z"/>

<path  fill="#C9C7C9" stroke-width="0" stroke="#C9C7C9" d = " M106 161 L107,161 C107,161 107,160 107,160 107,160 106,160 106,160 106,160 106,161 106,161  Z"/>

<path  fill="#C9C9CA" stroke-width="0" stroke="#C9C9CA" d = " M350 160 L351,162 C351,162 350,160 350,160  Z"/>

<path  fill="#CCC7C9" stroke-width="0" stroke="#CCC7C9" d = " M107 161 C107,162.145 107.579,165 106,165 106,165 106,161 106,161 106,161 107,161 107,161  Z"/>

<path  fill="#A8AAAA" stroke-width="0" stroke="#A8AAAA" d = " M261 163 L262,164 C262,164 261,163 261,163  Z"/>

<path  fill="#009B74" stroke-width="0" stroke="#009B74" d = " M104 180 L89,185 C87.1958,185 88,170.241 88,168 88,168 88,167 88,167 88,167 93,167 93,167 93,167 104,165 104,165 104,169.44 104,175.56 104,180  Z"/>

<path  fill="#019C74" stroke-width="0" stroke="#019C74" d = " M104 180 L105,180 C105,180 105,166 105,166 105,166 105,165 105,165 105,165 104,165 104,165 104,169.44 104,175.56 104,180  Z"/>

<path  fill="#CCC7C9" stroke-width="0" stroke="#CCC7C9" d = " M105 166 L106,166 C106,166 106,165 106,165 106,165 105,165 105,165 105,165 105,166 105,166  Z"/>

<path  fill="#019C74" stroke-width="0" stroke="#019C74" d = " M351 180 L353,180 C353,180 353,165 353,165 353,165 352,165 352,165 352,165 351,165 351,165 351,165 351,166 351,166 351,166 351,180 351,180  Z"/>

<path  fill="#009B74" stroke-width="0" stroke="#009B74" d = " M353 180 C357.916,180 362.695,185 368,185 368,179.579 369,173.909 369,168 369,168 364,167 364,167 364,167 353,165 353,165 353,165 353,180 353,180  Z"/>

<path  fill="#C8CBCC" stroke-width="0" stroke="#C8CBCC" d = " M113 210 L115,214 C115,214 112,203.5 112,203.5 112,203.5 111,193.5 111,193.5 106.693,184.886 106,176.489 106,166 106,166 105,166 105,166 105,166 105,180 105,180 105.981,180 107,187.758 107,189 107,192.697 110,195.94 110,200 110,201.819 111,204.591 111,207 111,207 113,210 113,210  Z"/>

<path  fill="#C8CBCC" stroke-width="0" stroke="#C8CBCC" d = " M346 200 L345,202 C345,195.665 346.418,191.665 349,186.5 351.506,181.488 350,171.918 350,166 350,166 351,166 351,166 351,166 351,180 351,180 351,183.324 349,186.16 349,189 349,189 346,200 346,200  Z"/>

<path  fill="#A8AAAA" stroke-width="0" stroke="#A8AAAA" d = " M262 167 L263,168 C263,168 262,167 262,167  Z"/>

<path  fill="#019C75" stroke-width="0" stroke="#019C75" d = " M75 191 L76,191 C76,189.889 87.438,186 89,186 89,186 89,185 89,185 87.1958,185 88,170.241 88,168 88,168 74,171 74,171 74,171 75,191 75,191  Z"/>

<path  fill="#96A7D3" stroke-width="0" stroke="#96A7D3" d = " M220 235 C224.935,235 229.995,235 236,235 236,224.97 235,214.411 235,205 235,193.436 231,183.317 231,172 231,172 228.5,168 228.5,168 228.5,168 226,171 226,171 226,171 225,173 225,173 225,184.932 221,195.068 221,207 221,207 220,235 220,235  Z"/>

<path  fill="#019C75" stroke-width="0" stroke="#019C75" d = " M368 186 C372.273,186 376.101,190 381,190 381,184.174 382,177.417 382,171 378.088,171 373.187,168 369,168 369,173.909 368,179.579 368,185 368,185 368,186 368,186  Z"/>

<path  fill="#A8AAAA" stroke-width="0" stroke="#A8AAAA" d = " M194 169 L193,170 C193,170 194,169 194,169  Z"/>

<path  fill="#009C74" stroke-width="0" stroke="#009C74" d = " M73 191 L75,191 C75,191 74,171 74,171 74,171 69,171 69,171 69,171 69,172 69,172 69,178.921 73,184.878 73,191  Z"/>

<path  fill="#97D6F9" stroke-width="0" stroke="#97D6F9" d = " M226 171 L225,173 C225,173 226,171 226,171  Z"/>

<path  fill="#009C74" stroke-width="0" stroke="#009C74" d = " M381 191 L384,191 C384,184.548 387,179.105 387,172 387,172 382,171 382,171 382,177.417 381,184.174 381,190 381,190 381,191 381,191  Z"/>

<path  fill="#009B75" stroke-width="0" stroke="#009B75" d = " M65 195 L69,195 C69,192.121 73,193.007 73,191 73,184.878 69,178.921 69,172 69,172 60,174 60,174 60,181.104 65,188.43 65,195  Z"/>

<path  fill="#009B75" stroke-width="0" stroke="#009B75" d = " M387 195 L391,195 C392.993,195 392.35,189.8 393,188.5 395.05,184.4 396,178.889 396,174 392.843,174 390.519,172 387,172 387,179.105 384,184.548 384,191 384,192.457 387,192.46 387,195  Z"/>

<path  fill="#A8AAAA" stroke-width="0" stroke="#A8AAAA" d = " M262 196 C262,200.419 265,204.038 265,197 265,191.191 266.468,182.435 264,177.5 263.426,176.353 265.064,173 263,173 263,173 263,175 263,175 263,181.967 262,189.681 262,196  Z"/>

<path  fill="#009C75" stroke-width="0" stroke="#009C75" d = " M65 195 L61,197 C61,189.874 55,182.589 55,175 55,175 60,174 60,174 60,181.104 65,188.43 65,195  Z"/>

<path  fill="#009C75" stroke-width="0" stroke="#009C75" d = " M391 196 C392.145,196 395,195.421 395,197 396.993,197 396.35,191.8 397,190.5 399.263,185.973 401,180.417 401,175 401,175 397,174 397,174 397,174 396,174 396,174 396,178.889 395.05,184.4 393,188.5 392.35,189.8 392.993,195 391,195 391,195 391,196 391,196  Z"/>

<path  fill="#A8AAAA" stroke-width="0" stroke="#A8AAAA" d = " M194 195 C194,199.185 191,205.486 191,198 191,192.211 192,186.22 192,181 192,179.679 191.316,175 193,175 193,175 193,176 193,176 193,182.417 194,189.174 194,195  Z"/>

<path  fill="#8FCBED" stroke-width="0" stroke="#8FCBED" d = " M194 195 L198,199.5 L209.5,209 C210.987,210.487 219,212.844 219,209 219,200.705 214.394,196.288 211,189.5 211,189.5 207,186.5 207,186.5 205.422,183.344 201.095,176.798 197.5,175 197.5,175 193,176 193,176 193,182.417 194,189.174 194,195  Z"/>

<path  fill="#8FCBED" stroke-width="0" stroke="#8FCBED" d = " M262 196 L244.5,211 C241.383,212.558 239.099,209 237,209 237,199.632 253.237,175 263,175 263,181.967 262,189.681 262,196  Z"/>

<path  fill="#209666" stroke-width="0" stroke="#209666" d = " M93 203 C95.4827,203 97.0256,203 99,203 99,195.466 95.2218,188 105,188 105,188 104,180 104,180 104,180 89,185 89,185 89,185 89,186 89,186 89,192.587 93,197.437 93,203  Z"/>

<path  fill="#1F9766" stroke-width="0" stroke="#1F9766" d = " M106 189 L107,189 C107,187.758 105.981,180 105,180 105,180 104,180 104,180 104,180 105,188 105,188 105,188 106,189 106,189  Z"/>

<path  fill="#1F9766" stroke-width="0" stroke="#1F9766" d = " M349 189 L351,189 C351,185.676 353,182.84 353,180 353,180 351,180 351,180 351,183.324 349,186.16 349,189  Z"/>

<path  fill="#209666" stroke-width="0" stroke="#209666" d = " M357 202 C358.564,202 360.876,203 363,203 363,197.841 368,192.079 368,186 368,186 368,185 368,185 362.695,185 357.916,180 353,180 353,182.84 351,185.676 351,189 351,189 354.5,187 354.5,187 360.505,190.003 357,197.471 357,202  Z"/>

<path  fill="#209665" stroke-width="0" stroke="#209665" d = " M81 205 L82,205 C85.9783,205 89.5486,203 93,203 93,197.437 89,192.587 89,186 87.438,186 76,189.889 76,191 76,196.35 81,201.593 81,205  Z"/>

<path  fill-rule="evenodd" fill="#209665" stroke-width="0" stroke="#209665" d = " M377 190 C377,191.93 378.93,190 377,190  M363 203 C366.741,203 370.636,205 375,205 375,200.842 381,195.963 381,191 381,191 381,190 381,190 376.101,190 372.273,186 368,186 368,192.079 363,197.841 363,203  Z"/>

<path  fill="#8ADA86" stroke-width="0" stroke="#8ADA86" d = " M109 200 C109,203.927 106.849,209.674 101.5,207 L99,203 C99,195.466 95.2218,188 105,188 105,188 106,189 106,189 106,189 109,200 109,200  Z"/>

<path  fill="#8ADA86" stroke-width="0" stroke="#8ADA86" d = " M347 201 C347,208.495 357,209.286 357,202 357,197.471 360.505,190.003 354.5,187 354.5,187 351,189 351,189 351,190.219 347.526,201 347,201  Z"/>

<path  fill="#209666" stroke-width="0" stroke="#209666" d = " M109 200 L110,200 C110,195.94 107,192.697 107,189 107,189 106,189 106,189 106,189 109,200 109,200  Z"/>

<path  fill="#209666" stroke-width="0" stroke="#209666" d = " M346 200 L347,201 C347.526,201 351,190.219 351,189 351,189 349,189 349,189 349,189 346,200 346,200  Z"/>

<path  fill="#019C75" stroke-width="0" stroke="#019C75" d = " M377 190 C377,191.93 378.93,190 377,190  Z"/>

<path  fill="#209765" stroke-width="0" stroke="#209765" d = " M81 205 L74,206 C74,205.422 69,197.203 69,195 69,192.121 73,193.007 73,191 73,191 75,191 75,191 75,191 76,191 76,191 76,196.35 81,201.593 81,205  Z"/>

<path  fill="#209765" stroke-width="0" stroke="#209765" d = " M375 205 C376.296,205 382,205.825 382,207 384.075,207 387,197.434 387,195 387,192.46 384,192.457 384,191 384,191 381,191 381,191 381,195.963 375,200.842 375,205  Z"/>

<path  fill="#219765" stroke-width="0" stroke="#219765" d = " M75 218 L70,220 C70,214.28 61,204.304 61,197 61,197 65,195 65,195 65,203.24 75,209.939 75,218  Z"/>

<path  fill="#209865" stroke-width="0" stroke="#209865" d = " M78 217 L75,218 C75,209.939 65,203.24 65,195 65,195 69,195 69,195 69,197.203 74,205.422 74,206 74,206 78,217 78,217  Z"/>

<path  fill="#97D6F9" stroke-width="0" stroke="#97D6F9" d = " M218 244 L217,245 C213.641,245 205,253.739 205,241 205,241 204,226 204,226 204,219.66 205.937,214.375 203,208.5 203,208.5 199,204.5 199,204.5 198.466,203.431 197.371,202.065 195.5,203 192.993,204.254 191.018,210 191,210 188.725,210 187.486,209 185,209 185,206.253 184.747,206 182,206 182,206 191,198 191,198 191,205.486 194,199.185 194,195 194,195 198,199.5 198,199.5 198,199.5 209.5,209 209.5,209 210.987,210.487 219,212.844 219,209 219,209 221,207 221,207 221,207 220,235 220,235 220,235 218,244 218,244  Z"/>

<path  fill="#209865" stroke-width="0" stroke="#209865" d = " M378 217 L381,218 C381,210.513 391,203.896 391,196 391,196 391,195 391,195 391,195 387,195 387,195 387,197.434 384.075,207 382,207 382,210.645 378,213.777 378,217  Z"/>

<path  fill="#97D6F9" stroke-width="0" stroke="#97D6F9" d = " M252 235 C251.127,235 250.556,246.472 247.5,248 L239,245 C239,242.346 236,238.014 236,235 236,224.97 235,214.411 235,205 235,205 237,209 237,209 239.099,209 241.383,212.558 244.5,211 244.5,211 262,196 262,196 262,200.419 265,204.038 265,197 265,197 274,206 274,206 270.788,206 272,207.288 272,209 268.841,209 267.194,210 265,210 265,200.151 256.26,202.981 253,209.5 250.24,215.021 253,222.328 253,228 251.286,228 252,233.594 252,235  Z"/>

<path  fill="#219765" stroke-width="0" stroke="#219765" d = " M381 218 C381.671,218 386,219.328 386,220 387.732,220 395,200.443 395,197 395,195.421 392.145,196 391,196 391,203.896 381,210.513 381,218  Z"/>

<path  fill="#1F9866" stroke-width="0" stroke="#1F9866" d = " M105 209 L106,209 C106,207.362 109.576,207 111,207 111,204.591 110,201.819 110,200 110,200 109,200 109,200 109,203.927 106.849,209.674 101.5,207 101.5,207 99,203 99,203 97.0256,203 95.4827,203 93,203 93,205.759 97,208.795 97,212 97,212 105,209 105,209  Z"/>

<path  fill="#1F9866" stroke-width="0" stroke="#1F9866" d = " M351 209 L359,212 C359,212 363,203 363,203 360.876,203 358.564,202 357,202 357,209.286 347,208.495 347,201 347,201 346,200 346,200 346,200 345,202 345,202 345,202 345,206 345,206 345,206 350,209 350,209 350,209 351,209 351,209  Z"/>

<path  fill="#C8CBCC" stroke-width="0" stroke="#C8CBCC" d = " M343 210 L344,210 C344,210 345,206 345,206 345,206 345,202 345,202 343.566,202 343,208.448 343,210  Z"/>

<path  fill="#1F9865" stroke-width="0" stroke="#1F9865" d = " M89 214 L92,214 C92,213.328 96.3294,212 97,212 97,208.795 93,205.759 93,203 89.5486,203 85.9783,205 82,205 82,205 89,214 89,214  Z"/>

<path  fill="#80CDF8" stroke-width="0" stroke="#80CDF8" d = " M133 238 C133,243.993 137,248.417 137,254 137,254 145.5,263 145.5,263 151.914,266.207 173.544,261.478 178.5,259 183.061,256.719 196.633,241.234 199,236.5 199,236.5 204,226 204,226 204,219.66 205.937,214.375 203,208.5 203,208.5 199,204.5 199,204.5 198.466,203.431 197.371,202.065 195.5,203 192.993,204.254 191.018,210 191,210 191,213.067 192.376,213.748 191,216.5 191,216.5 189.5,221 189.5,221 178.663,231.837 174.996,209 185,209 185,206.253 184.747,206 182,206 174.684,206 174.031,225.234 170.5,227 170.5,227 161.5,233 161.5,233 153.647,236.927 143.325,234 135,234 135,235.24 133,235.576 133,238  Z"/>

<path  fill="#80CDF8" stroke-width="0" stroke="#80CDF8" d = " M324 237 C324,243.06 319,248.487 319,254 319,254 315.5,258 315.5,258 315.5,258 310.5,263 310.5,263 304.06,266.22 283.462,261.481 278.5,259 275.076,257.288 259.069,240.637 257,236.5 256.251,235.001 255.192,228 253,228 253,222.328 250.24,215.021 253,209.5 256.26,202.981 265,200.151 265,210 265,210 265,217.5 265,217.5 265,224.534 275.644,224.212 278,219.5 279.135,217.229 275.84,214.18 275,212.5 275,212.5 272,209 272,209 272,207.288 270.788,206 274,206 282.016,206 281.733,226.117 289.5,230 299.58,235.04 308.707,235 321,235 323.215,235 322.519,237 324,237  Z"/>

<path  fill="#1F9865" stroke-width="0" stroke="#1F9865" d = " M365 214 L367,214 C367,214 375,205 375,205 370.636,205 366.741,203 363,203 363,203 359,212 359,212 359.986,212 365,213.087 365,214  Z"/>

<path  fill="#219764" stroke-width="0" stroke="#219764" d = " M89 214 C89,215.222 79.612,217 78,217 78,217 74,206 74,206 74,206 81,205 81,205 81,205 82,205 82,205 82,205 89,214 89,214  Z"/>

<path  fill="#219764" stroke-width="0" stroke="#219764" d = " M367 214 C367,214.854 376.53,217 378,217 378,213.777 382,210.645 382,207 382,205.825 376.296,205 375,205 375,205 367,214 367,214  Z"/>

<path  fill="#8AD987" stroke-width="0" stroke="#8AD987" d = " M350 209 C347.876,209 345.564,210 344,210 344,210 345,206 345,206 345,206 350,209 350,209  Z"/>

<path  fill="#8AD987" stroke-width="0" stroke="#8AD987" d = " M106 209 L113,210 C113,210 111,207 111,207 109.576,207 106,207.362 106,209  Z"/>

<path  fill="#CBCBC7" stroke-width="0" stroke="#CBCBC7" d = " M185 209 C187.486,209 188.725,210 191,210 191,213.067 192.376,213.748 191,216.5 191,216.5 189.5,221 189.5,221 178.663,231.837 174.996,209 185,209  Z"/>

<path  fill="#CBCBC7" stroke-width="0" stroke="#CBCBC7" d = " M272 209 L275,212.5 C275.84,214.18 279.135,217.229 278,219.5 275.644,224.212 265,224.534 265,217.5 L265,210 C267.194,210 268.841,209 272,209  Z"/>

<path  fill="#99D2BD" stroke-width="0" stroke="#99D2BD" d = " M92 214 C96.546,214 98.2993,220 101,220 101,220 101,213.5 101,213.5 101,213.5 105,210 105,210 105,210 105,209 105,209 105,209 97,212 97,212 96.3294,212 92,213.328 92,214  Z"/>

<path  fill="#8AD987" stroke-width="0" stroke="#8AD987" d = " M106 209 L105,210 C105,210 105,209 105,209 105,209 106,209 106,209  Z"/>

<path  fill="#A0EE9C" stroke-width="0" stroke="#A0EE9C" d = " M118 232 L121,232 C121,232 123,230.5 123,230.5 123,230.5 122,226 122,226 122,226 121,224 121,224 121,224 119,222 119,222 119,222 119,221 119,221 119,221 117,219 117,219 117,219 117,218 117,218 117,218 116,217 116,217 116,217 116,216 116,216 116,216 115,215 115,215 115,215 115,214 115,214 115,214 113,210 113,210 113,210 106,209 106,209 106,209 105,210 105,210 105,210 101,213.5 101,213.5 101,213.5 101,220 101,220 101,220 101,221 101,221 101,221 102,222 102,222 102,222 104,224 104,224 104,224 106,226 106,226 106,226 109,227 109,227 109,227 111,229 111,229 111,229 112,229 112,229 112,229 115,231 115,231 115,231 116,231 116,231 116,231 117,232 117,232 117,232 118,232 118,232  Z"/>

<path  fill="#A0EE9C" stroke-width="0" stroke="#A0EE9C" d = " M338 232 L339,232 C339,232 340,231 340,231 340,231 342,231 342,231 342,231 343,230 343,230 343,230 344,229 344,229 344,229 345,229 345,229 345,229 347,228 347,228 347,228 348,227 348,227 348,227 349,227 349,227 349,227 350,226 350,226 350,226 351,225 351,225 351,225 352,225 352,225 352,225 353,224 353,224 353,224 354,223 354,223 354,223 355,222 355,222 355,222 355,221 355,221 355,218.391 356.264,216.029 355,213.5 355,213.5 351,209 351,209 351,209 350,209 350,209 347.876,209 345.564,210 344,210 344,210 343,211 343,211 343,211 341,215 341,215 341,215 341,216 341,216 341,216 340,217 340,217 340,217 339,219 339,219 339,219 338,221 338,221 338,221 337,222 337,222 337,222 336,223 336,223 336,223 335,225 335,225 335,225 334,226 334,226 334,226 333,227 333,227 333,229.567 335,230.913 335,232 335,232 338,232 338,232  Z"/>

<path  fill="#99D2BD" stroke-width="0" stroke="#99D2BD" d = " M365 214 C359.028,214 355.41,221 355,221 355,218.391 356.264,216.029 355,213.5 355,213.5 351,209 351,209 351,209 359,212 359,212 359.986,212 365,213.087 365,214  Z"/>

<path  fill="#C8CBCC" stroke-width="0" stroke="#C8CBCC" d = " M343 211 L341,215 C341,213.576 341.362,210 343,210 343,210 343,211 343,211  Z"/>

<path  fill="#8AD987" stroke-width="0" stroke="#8AD987" d = " M344 210 L343,211 C343,211 343,210 343,210 343,210 344,210 344,210  Z"/>

<path  fill="#6ACAB9" stroke-width="0" stroke="#6ACAB9" d = " M119 262 L121,263 C123.46,263 125.17,259 128,259 128,259 129,258 129,258 129,249.99 135.378,252.256 129,239.5 128.092,237.685 118,233.024 118,232 118,232 117,232 117,232 117,232 116,231 116,231 116,231 115,231 115,231 113.762,231 112,230.577 112,229 112,229 111,229 111,229 111,229 109,227 109,227 109,227 106,226 106,226 106,226 104,224 104,224 104,224 102,222 102,222 102,222 101,221 101,221 101,221 101,220 101,220 98.2993,220 96.546,214 92,214 92,214 89,214 89,214 89,215.222 79.612,217 78,217 78,217 75,218 75,218 75,218 70,220 70,220 70,225.874 88.4585,251 95,251 100.09,251 119,255.721 119,262  Z"/>

<path  fill="#6ACAB9" stroke-width="0" stroke="#6ACAB9" d = " M335 263 L337,263 C337,255.87 355.086,251 361,251 367.911,251 386,227.2 386,220 386,219.328 381.671,218 381,218 381,218 378,217 378,217 376.53,217 367,214.854 367,214 367,214 365,214 365,214 359.028,214 355.41,221 355,221 355,221 355,222 355,222 355,222 354,223 354,223 354,223 353,224 353,224 353,224 352,225 352,225 352,225 351,225 351,225 351,225 350,226 350,226 350,226 349,227 349,227 349,227 348,227 348,227 348,227 347,228 347,228 347,228 345,229 345,229 345,229 344,229 344,229 344,229 343,230 343,230 343,230 342,231 342,231 342,231 340,231 340,231 340,231 339,232 339,232 339,232 338,232 338,232 338,232 332.5,235 332.5,235 332.5,235 325,243.5 325,243.5 321.938,249.623 329,256.093 329,259 329,259 335,263 335,263  Z"/>

<path  fill="#C8CBCC" stroke-width="0" stroke="#C8CBCC" d = " M115 215 L116,216 C116,216 115,215 115,215  Z"/>

<path  fill="#C8CBCC" stroke-width="0" stroke="#C8CBCC" d = " M341 216 L340,217 C340,217 341,216 341,216  Z"/>

<path  fill="#C8CBCC" stroke-width="0" stroke="#C8CBCC" d = " M116 217 L117,218 C117,218 116,217 116,217  Z"/>

<path  fill="#C8CBCC" stroke-width="0" stroke="#C8CBCC" d = " M340 217 L339,219 C339,219 340,217 340,217  Z"/>

<path  fill="#C8CBCC" stroke-width="0" stroke="#C8CBCC" d = " M117 219 L119,221 C119,221 117,219 117,219  Z"/>

<path  fill="#C8CBCC" stroke-width="0" stroke="#C8CBCC" d = " M339 219 L338,221 C338,221 339,219 339,219  Z"/>

<path  fill="#99D2BD" stroke-width="0" stroke="#99D2BD" d = " M101 221 L102,222 C102,222 101,221 101,221  Z"/>

<path  fill="#8AD987" stroke-width="0" stroke="#8AD987" d = " M338 221 L337,222 C337,222 338,221 338,221  Z"/>

<path  fill="#8AD987" stroke-width="0" stroke="#8AD987" d = " M119 222 L121,224 C121,224 119,222 119,222  Z"/>

<path  fill="#8AD987" stroke-width="0" stroke="#8AD987" d = " M337 222 L336,223 C336,223 337,222 337,222  Z"/>

<path  fill="#99D2BD" stroke-width="0" stroke="#99D2BD" d = " M355 222 L354,223 C354,223 355,222 355,222  Z"/>

<path  fill="#8AD987" stroke-width="0" stroke="#8AD987" d = " M336 223 L335,225 C335,225 336,223 336,223  Z"/>

<path  fill="#99D2BD" stroke-width="0" stroke="#99D2BD" d = " M104 224 L106,226 C106,226 104,224 104,224  Z"/>

<path  fill="#99D2BD" stroke-width="0" stroke="#99D2BD" d = " M353 224 L352,225 C352,225 353,224 353,224  Z"/>

<path  fill="#8AD987" stroke-width="0" stroke="#8AD987" d = " M335 225 L334,226 C334,226 335,225 335,225  Z"/>

<path  fill="#99D2BD" stroke-width="0" stroke="#99D2BD" d = " M351 225 L350,226 C350,226 351,225 351,225  Z"/>

<path  fill="#8AD987" stroke-width="0" stroke="#8AD987" d = " M121 232 L125,232 C125,232 126,229 126,229 126,229 122,226 122,226 122,226 123,230.5 123,230.5 123,230.5 121,232 121,232  Z"/>

<path  fill="#A2B1D7" stroke-width="0" stroke="#A2B1D7" d = " M191 270 L189,275 C180.153,275 153.397,277.948 147.5,275 142.575,272.538 138.141,268.641 134,264.5 134,264.5 129,259 129,259 129,259 129,258 129,258 129,258 137,254 137,254 137,254 145.5,263 145.5,263 151.914,266.207 173.544,261.478 178.5,259 183.061,256.719 196.633,241.234 199,236.5 199,236.5 204,226 204,226 204,226 205,241 205,241 204.628,241 202,250.943 202,252 202,257.12 194,261.888 194,266 192.288,266 191,268.571 191,270  Z"/>

<path  fill="#8AD987" stroke-width="0" stroke="#8AD987" d = " M334 226 L333,227 C333,227 334,226 334,226  Z"/>

<path  fill="#99D2BD" stroke-width="0" stroke="#99D2BD" d = " M350 226 L349,227 C349,227 350,226 350,226  Z"/>

<path  fill="#99D2BD" stroke-width="0" stroke="#99D2BD" d = " M109 227 L111,229 C111,229 109,227 109,227  Z"/>

<path  fill="#8AD987" stroke-width="0" stroke="#8AD987" d = " M331 232 L335,232 C335,230.913 333,229.567 333,227 333,227 331,229 331,229 331,229 330,230 330,230 330,230 331,232 331,232  Z"/>

<path  fill="#99D2BD" stroke-width="0" stroke="#99D2BD" d = " M348 227 L347,228 C347,228 348,227 348,227  Z"/>

<path  fill="#A2B1D7" stroke-width="0" stroke="#A2B1D7" d = " M266 271 L267,275 C275.847,275 302.603,277.948 308.5,275 313.942,272.279 318.242,267.129 322.5,265 322.5,265 327,259 327,259 327,257.015 320.738,254 319,254 319,254 315.5,258 315.5,258 315.5,258 310.5,263 310.5,263 304.06,266.22 283.462,261.481 278.5,259 275.076,257.288 259.069,240.637 257,236.5 256.251,235.001 255.192,228 253,228 251.286,228 252,233.594 252,235 252,241.236 254,246.483 254,252 254,252 256,254.5 256,254.5 257.429,257.357 263,264.8 263,267 264.747,267 265,267.253 265,269 265,269 265,270 265,270 265,270 266,271 266,271  Z"/>

<path  fill="#99D2BD" stroke-width="0" stroke="#99D2BD" d = " M347 228 L345,229 C345,229 347,228 347,228  Z"/>

<path  fill="#99D2BD" stroke-width="0" stroke="#99D2BD" d = " M112 229 L115,231 C113.762,231 112,230.577 112,229  Z"/>

<path  fill="#97D6F9" stroke-width="0" stroke="#97D6F9" d = " M135 234 C135,235.24 133,235.576 133,238 130.395,238 129.043,232 125,232 125,232 126,229 126,229 127.936,229 131.554,234 135,234  Z"/>

<path  fill="#97D6F9" stroke-width="0" stroke="#97D6F9" d = " M331 229 L330,230 C330,230 331,229 331,229  Z"/>

<path  fill="#99D2BD" stroke-width="0" stroke="#99D2BD" d = " M344 229 L343,230 C343,230 344,229 344,229  Z"/>

<path  fill="#97D6F9" stroke-width="0" stroke="#97D6F9" d = " M321 235 C323.215,235 322.519,237 324,237 327.042,237 327.173,232 331,232 331,232 330,230 330,230 330,230 321,235 321,235  Z"/>

<path  fill="#99D2BD" stroke-width="0" stroke="#99D2BD" d = " M343 230 L342,231 C342,231 343,230 343,230  Z"/>

<path  fill="#99D2BD" stroke-width="0" stroke="#99D2BD" d = " M116 231 L117,232 C117,232 116,231 116,231  Z"/>

<path  fill="#99D2BD" stroke-width="0" stroke="#99D2BD" d = " M340 231 L339,232 C339,232 340,231 340,231  Z"/>

<path  fill="#99D2BD" stroke-width="0" stroke="#99D2BD" d = " M137 254 L129,258 C129,249.99 135.378,252.256 129,239.5 128.092,237.685 118,233.024 118,232 118,232 121,232 121,232 121,232 125,232 125,232 129.043,232 130.395,238 133,238 133,243.993 137,248.417 137,254  Z"/>

<path  fill="#99D2BD" stroke-width="0" stroke="#99D2BD" d = " M327 259 L329,259 C329,256.093 321.938,249.623 325,243.5 325,243.5 332.5,235 332.5,235 332.5,235 338,232 338,232 338,232 335,232 335,232 335,232 331,232 331,232 327.173,232 327.042,237 324,237 324,243.06 319,248.487 319,254 320.738,254 327,257.015 327,259  Z"/>

<path  fill="#96A6D3" stroke-width="0" stroke="#96A6D3" d = " M244 271 L245,271 C248.792,271 261,279.233 261,269 261,269 261,267 261,267 259.005,267 249,259.453 249,257 244.845,257 239,248.572 239,245 239,242.346 236,238.014 236,235 229.995,235 224.935,235 220,235 220,235 218,244 218,244 218,244 217,245 217,245 217,249.177 211.511,257 207,257 207,259.247 198.336,267 196,267 196,267 195,269 195,269 195,276.507 205.204,273 209,273 209,271.423 210.762,271 212,271 212,271 214,270 214,270 214,270 215,269 215,269 215,269 216,268 216,268 216,268 217,267 217,267 217,267 217,266 217,266 217,266 220,262.5 220,262.5 221.362,259.775 223.19,248 228.5,248 228.5,248 231.5,252 231.5,252 234.084,254.584 239,263.509 239,267 239,267 240,268 240,268 240,268 242,269 242,269 242,269 244,271 244,271  Z"/>

<path  fill="#E64438" stroke-width="0" stroke="#E64438" d = " M254 252 C250.617,252 249,253.617 249,257 244.845,257 239,248.572 239,245 239,245 247.5,248 247.5,248 250.556,246.472 251.127,235 252,235 252,241.236 254,246.483 254,252  Z"/>

<path  fill="#E64438" stroke-width="0" stroke="#E64438" d = " M202 252 C205.383,252 207,253.617 207,257 211.511,257 217,249.177 217,245 213.641,245 205,253.739 205,241 204.628,241 202,250.943 202,252  Z"/>

<path  fill="#E64438" stroke-width="0" stroke="#E64438" d = " M218 244 L217,245 C217,245 218,244 218,244  Z"/>

<path  fill="#FE5446" stroke-width="0" stroke="#FE5446" d = " M218 267 C222.09,267 225.376,262 228.5,262 229.926,262 234.492,267 239,267 239,263.509 234.084,254.584 231.5,252 231.5,252 228.5,248 228.5,248 223.19,248 221.362,259.775 220,262.5 220,262.5 217,266 217,266 217,266 218,267 218,267  Z"/>

<path  fill="#CAC8C7" stroke-width="0" stroke="#CAC8C7" d = " M119 267 L118,268 C115.223,268 113.838,264.169 111.5,263 108.249,261.374 95,254.409 95,251 100.09,251 119,255.721 119,262 119,262 119,265 119,265 119,265 119,267 119,267  Z"/>

<path  fill="#CAC8C7" stroke-width="0" stroke="#CAC8C7" d = " M337 266 L339,268 C339,268 343.5,264 343.5,264 346.336,262.582 361,253.08 361,251 355.086,251 337,255.87 337,263 337,263 337,265 337,265 337,265 337,266 337,266  Z"/>

<path  fill="#F2473B" stroke-width="0" stroke="#F2473B" d = " M194 266 L196,267 C198.336,267 207,259.247 207,257 207,253.617 205.383,252 202,252 202,257.12 194,261.888 194,266  Z"/>

<path  fill="#F2473B" stroke-width="0" stroke="#F2473B" d = " M261 267 L263,267 C263,264.8 257.429,257.357 256,254.5 256,254.5 254,252 254,252 250.617,252 249,253.617 249,257 249,259.453 259.005,267 261,267  Z"/>

<path  fill="#99D2BD" stroke-width="0" stroke="#99D2BD" d = " M128 259 L129,259 C129,259 129,258 129,258 129,258 128,259 128,259  Z"/>

<path  fill="#7FCCF7" stroke-width="0" stroke="#7FCCF7" d = " M189 275 C194.056,275 198,275.163 198,281 198,289.882 188.518,291.991 182.5,295 182.5,295 176.5,295 176.5,295 159.386,303.557 135.809,299.118 127,281.5 125.604,278.708 120,275.218 120,271 120,271 120,265 120,265 120,265 121,263 121,263 123.46,263 125.17,259 128,259 128,259 129,259 129,259 129,259 134,264.5 134,264.5 138.141,268.641 142.575,272.538 147.5,275 153.397,277.948 180.153,275 189,275  Z"/>

<path  fill="#7FCCF7" stroke-width="0" stroke="#7FCCF7" d = " M267 275 C262.566,275 258,275.579 258,281 259.149,281 259.508,285.516 260,286.5 261.533,289.567 264.311,291.406 267.5,293 271.203,294.851 276.889,293.195 280.5,295 295.996,302.748 320.265,299.969 329,282.5 330.884,278.732 336,275.456 336,271 336,271 337,270 337,270 337,270 337,269 337,269 337,269 337,267 337,267 337,267 336,265 336,265 336,265 335,263 335,263 335,263 329,259 329,259 329,259 327,259 327,259 327,259 322.5,265 322.5,265 318.242,267.129 313.942,272.279 308.5,275 302.603,277.948 275.847,275 267,275  Z"/>

<path  fill="#99D2BD" stroke-width="0" stroke="#99D2BD" d = " M119 265 L120,265 C120,265 121,263 121,263 121,263 119,262 119,262 119,262 119,265 119,265  Z"/>

<path  fill="#99D2BD" stroke-width="0" stroke="#99D2BD" d = " M336 265 L337,265 C337,265 337,263 337,263 337,263 335,263 335,263 335,263 336,265 336,265  Z"/>

<path  fill="#97D6F9" stroke-width="0" stroke="#97D6F9" d = " M119 269 L120,271 C120,271 120,265 120,265 120,265 119,265 119,265 119,265 119,267 119,267 119,267 119,269 119,269  Z"/>

<path  fill="#97D6F9" stroke-width="0" stroke="#97D6F9" d = " M337 266 L337,267 C337,267 336,265 336,265 336,265 337,265 337,265 337,265 337,266 337,266  Z"/>

<path  fill="#E64438" stroke-width="0" stroke="#E64438" d = " M195 269 L191,270 C191,268.571 192.288,266 194,266 194,266 196,267 196,267 196,267 195,269 195,269  Z"/>

<path  fill="#E64438" stroke-width="0" stroke="#E64438" d = " M217 267 L218,267 C218,267 217,266 217,266 217,266 217,267 217,267  Z"/>

<path  fill="#99D2BD" stroke-width="0" stroke="#99D2BD" d = " M339 268 L337,269 C337,269 337,267 337,267 337,267 337,266 337,266 337,266 339,268 339,268  Z"/>

<path  fill="#99D2BD" stroke-width="0" stroke="#99D2BD" d = " M118 268 L119,269 C119,269 119,267 119,267 119,267 118,268 118,268  Z"/>

<path  fill="#E64438" stroke-width="0" stroke="#E64438" d = " M217 267 L216,268 C216,268 217,267 217,267  Z"/>

<path  fill="#E64438" stroke-width="0" stroke="#E64438" d = " M239 267 L240,268 C240,268 239,267 239,267  Z"/>

<path  fill="#E64438" stroke-width="0" stroke="#E64438" d = " M261 269 L265,269 C265,267.253 264.747,267 263,267 263,267 261,267 261,267 261,267 261,269 261,269  Z"/>

<path  fill="#E64438" stroke-width="0" stroke="#E64438" d = " M216 268 L215,269 C215,269 216,268 216,268  Z"/>

<path  fill="#8599CC" stroke-width="0" stroke="#8599CC" d = " M189 275 C194.056,275 198,275.163 198,281 198,281 209,273 209,273 205.204,273 195,276.507 195,269 195,269 191,270 191,270 191,270 189,275 189,275  Z"/>

<path  fill="#8599CC" stroke-width="0" stroke="#8599CC" d = " M215 269 L214,270 C214,270 215,269 215,269  Z"/>

<path  fill="#8599CC" stroke-width="0" stroke="#8599CC" d = " M242 269 L244,271 C244,271 242,269 242,269  Z"/>

<path  fill="#8599CC" stroke-width="0" stroke="#8599CC" d = " M267 275 C262.566,275 258,275.579 258,281 258,281 245,271 245,271 248.792,271 261,279.233 261,269 261,269 265,269 265,269 265,269 265,270 265,270 265,270 266,271 266,271 266,271 267,275 267,275  Z"/>

<path  fill="#E64438" stroke-width="0" stroke="#E64438" d = " M265 270 L266,271 C266,271 265,270 265,270  Z"/>

<path  fill="#97D6F9" stroke-width="0" stroke="#97D6F9" d = " M337 270 L336,271 C336,271 337,270 337,270  Z"/>

<path  fill="#8599CC" stroke-width="0" stroke="#8599CC" d = " M212 271 C210.762,271 209,271.423 209,273 210.238,273 212,272.577 212,271  Z"/>

<path  fill="#CBCCC7" stroke-width="0" stroke="#CBCCC7" d = " M215 275 C215,277.167 208.233,280.033 207,282.5 205.047,286.407 211.445,289.527 214.5,288 222.342,284.079 229.147,275 215,275  Z"/>

<path  fill="#CBCCC7" stroke-width="0" stroke="#CBCCC7" d = " M234 275 C234,276.423 232.022,278.544 233,280.5 234.758,284.016 245.967,292.566 249,286.5 253.198,278.104 239.022,275 234,275  Z"/>

</g>
</svg>
