<svg xmlns="http://www.w3.org/2000/svg" xmlns:xlink="http://www.w3.org/1999/xlink"  viewBox="0 0 456 320">
<g>
<rect width="456" height="320" fill="#000000"  stroke-width="0" /> 
<path  fill="#1E9C59" stroke-width="0" stroke="#1E9C59" d = " M223 61 C223,65.8881 221,60.9733 221,64 221,64 214.5,57 214.5,57 209.021,54.2603 204.057,50 196.5,50 189.1,50 176.892,51.8039 170.5,55 170.5,55 161,59 161,59 161,59 160,59 160,59 160,56.5529 160,55.7198 160,53 160,53 174.5,47 174.5,47 174.5,47 179.5,47 179.5,47 191.414,41.0428 223,45.9836 223,61  Z"/>

<path  fill="#1E9C59" stroke-width="0" stroke="#1E9C59" d = " M233 61 C233,62.5392 234.342,64 236,64 236,64 241.5,57 241.5,57 247.4,54.0501 252.414,50 259.5,50 267.013,50 279.989,51.7446 286.5,55 289.422,56.4611 292.523,59 296,59 296,59 296,53 296,53 295.153,53 283.083,47.7914 281.5,47 270.745,41.6226 242.805,43.8902 237,55.5 235.787,57.9261 233,58.5309 233,61  Z"/>

<path  fill="#1E9D58" stroke-width="0" stroke="#1E9D58" d = " M214 68 C213.824,68 200.025,57.7376 193.5,61 191.047,62.2265 161.084,75 161,75 158.422,75 161.46,72.4203 161,71.5 159.429,68.3574 161,63.4794 161,59 161,59 170.5,55 170.5,55 176.892,51.8039 189.1,50 196.5,50 204.057,50 209.021,54.2603 214.5,57 214.5,57 221,64 221,64 221,64 221,65 221,65 221,65 214,68 214,68  Z"/>

<path  fill="#1E9D58" stroke-width="0" stroke="#1E9D58" d = " M243 69 C243,63.1414 251.171,63.6646 254.5,62 267.529,55.4856 286.774,76 296,76 296,70.4722 296,64.372 296,60 296,60 296,59 296,59 292.523,59 289.422,56.4611 286.5,55 279.989,51.7446 267.013,50 259.5,50 252.414,50 247.4,54.0501 241.5,57 241.5,57 236,64 236,64 236,64 236,65 236,65 238.773,65 239.67,69 242,69 242,69 243,69 243,69  Z"/>

<path  fill="#1E9D5A" stroke-width="0" stroke="#1E9D5A" d = " M99 89 C99,90.5637 100,92.8764 100,95 100,95 107.5,88 107.5,88 116.747,83.3765 124.312,75.5942 133.5,71 133.5,71 154.5,61 154.5,61 155.819,60.3406 160,61.3342 160,59 160,56.5529 160,55.7198 160,53 155.556,53 150.336,57.082 146.5,59 135.409,64.5455 120.649,69.8507 111.5,79 109.271,81.2292 99,85.3747 99,89  Z"/>

<path  fill="#1E9D5A" stroke-width="0" stroke="#1E9D5A" d = " M357 88 C357,90.8328 357,92.8405 357,95 354.636,95 346.342,84.9212 342.5,83 329.867,76.6834 310.145,60 296,60 296,60 296,59 296,59 296,59 296,53 296,53 307.521,53 333.35,73.4252 344.5,79 346.483,79.9916 357,85.924 357,88  Z"/>

<path  fill="#1F9C58" stroke-width="0" stroke="#1F9C58" d = " M105 119 L104,120 C101.338,120 104.662,113 102,113 102,109.777 100,102.133 100,96 100,96 100,95 100,95 100,95 107.5,88 107.5,88 116.747,83.3765 124.312,75.5942 133.5,71 133.5,71 154.5,61 154.5,61 155.819,60.3406 160,61.3342 160,59 160,59 161,59 161,59 161,63.4794 159.429,68.3574 161,71.5 161.46,72.4203 158.422,75 161,75 161,75 160,77 160,77 153.736,77 134.194,91.6532 127.5,95 127.5,95 118.5,103 118.5,103 118.5,103 105,119 105,119  Z"/>

<path  fill="#1F9C58" stroke-width="0" stroke="#1F9C58" d = " M352 121 L353,121 C353,119.051 352.009,113 355,113 355,110.19 354.012,105.477 356,101.5 356.574,100.353 354.936,97 357,97 357,97 357,95 357,95 354.636,95 346.342,84.9212 342.5,83 329.867,76.6834 310.145,60 296,60 296,64.372 296,70.4722 296,76 296,76 307.5,83 307.5,83 318.651,88.5756 336.568,96.6353 343,109.5 344.968,113.436 352,116.386 352,121  Z"/>

<path  fill="#1F9D58" stroke-width="0" stroke="#1F9D58" d = " M197 85 L198,85 C198,83.0948 212.465,69 214,69 214,69 214,68 214,68 213.824,68 200.025,57.7376 193.5,61 191.047,62.2265 161.084,75 161,75 161,75 160,77 160,77 160,83.037 160,89.3665 160,97 165.774,97 181.671,86.9145 187.5,84 188.992,83.2538 197,81.3381 197,85  Z"/>

<path  fill="#3EA665" stroke-width="0" stroke="#3EA665" d = " M223 96 C226.642,96 231.002,97 234,97 234,88.95 234,81.0439 234,73.5 234,71.8391 234.443,65 236,65 236,65 236,64 236,64 234.342,64 233,62.5392 233,61 230.63,61 229.275,68 228.5,68 226.082,68 226.321,61 223,61 223,65.8881 221,60.9733 221,64 221,64 221,65 221,65 221,67.6127 221.93,69.3602 223,71.5 223,71.5 223,96 223,96  Z"/>

<path  fill="#1F9D58" stroke-width="0" stroke="#1F9D58" d = " M259 85 C259,83.1181 265.745,82.1227 267.5,83 272.567,85.5335 291.683,97 296,97 296,91.27 296,83.6811 296,76 286.774,76 267.529,55.4856 254.5,62 251.171,63.6646 243,63.1414 243,69 243,71.8518 258,79.4393 258,85 258,85 259,85 259,85  Z"/>

<path  fill="#40A565" stroke-width="0" stroke="#40A565" d = " M217 97 L222,97 C222,97 223,96 223,96 223,96 223,71.5 223,71.5 221.93,69.3602 221,67.6127 221,65 221,65 214,68 214,68 214,68 214,69 214,69 215.183,69 215.535,72.5701 216,73.5 218.893,79.2856 217,90.2195 217,97  Z"/>

<path  fill="#40A565" stroke-width="0" stroke="#40A565" d = " M234 97 C236.124,97 238.436,98 240,98 240,98 240,73.5 240,73.5 240,73.5 242,69 242,69 239.67,69 238.773,65 236,65 234.443,65 234,71.8391 234,73.5 234,81.0439 234,88.95 234,97  Z"/>

<path  fill="#3EA566" stroke-width="0" stroke="#3EA566" d = " M217 98 C211.196,98 205.329,105 202,105 202,101.863 200.911,85 198,85 198,83.0948 212.465,69 214,69 215.183,69 215.535,72.5701 216,73.5 218.893,79.2856 217,90.2195 217,97 217,97 217,98 217,98  Z"/>

<path  fill="#3EA566" stroke-width="0" stroke="#3EA566" d = " M240 98 C245.748,98 249.816,105 255,105 255,105 255,91.5 255,91.5 255.579,90.3429 258,86.0091 258,85 258,79.4393 243,71.8518 243,69 243,69 242,69 242,69 242,69 240,73.5 240,73.5 240,73.5 240,98 240,98  Z"/>

<path  fill="#1E9C5A" stroke-width="0" stroke="#1E9C5A" d = " M346 169 L349,170 C349,170 351,157 351,157 351,153.006 351.537,131.573 351,130.5 351,130.5 349,129.5 349,129.5 349,129.5 352,126.5 352,126.5 352,124.905 352,123.245 352,121 352,116.386 344.968,113.436 343,109.5 336.568,96.6353 318.651,88.5756 307.5,83 307.5,83 296,76 296,76 296,83.6811 296,91.27 296,97 296,97 297,97 297,97 300.055,97 308.391,103.445 311.5,105 342.725,120.612 346,134.06 346,169  Z"/>

<path  fill="#1E9C5A" stroke-width="0" stroke="#1E9C5A" d = " M111 169 L107,170 C107,165.364 105,161.081 105,157 105,153.12 102.664,145.173 105,140.5 106.268,137.963 107,137.032 107,134.5 107,130.562 104,125.131 104,121 104,121 104,120 104,120 104,120 105,119 105,119 105,119 118.5,103 118.5,103 118.5,103 127.5,95 127.5,95 134.194,91.6532 153.736,77 160,77 160,83.037 160,89.3665 160,97 155.151,97 148.788,102.856 144.5,105 130.84,111.83 120.058,120.383 113,134.5 111.078,138.343 111.94,143.62 110,147.5 110,147.5 111,169 111,169  Z"/>

<path  fill="#1D9C5A" stroke-width="0" stroke="#1D9C5A" d = " M161 119 L163,119 C163,113.939 180.484,111 185,111 185,102.897 197,89.2044 197,85 197,81.3381 188.992,83.2538 187.5,84 181.671,86.9145 165.774,97 160,97 160,104.249 161,111.72 161,119  Z"/>

<path  fill="#1D9C5A" stroke-width="0" stroke="#1D9C5A" d = " M295 119 L296,119 C296,111.63 297,105.336 297,97 297,97 296,97 296,97 291.683,97 272.567,85.5335 267.5,83 265.745,82.1227 259,83.1181 259,85 259,87.4781 271,102.557 271,111 271,111 272,111 272,111 283.102,111 292.191,119 295,119  Z"/>

<path  fill="#3FA664" stroke-width="0" stroke="#3FA664" d = " M185 111 L189,113 C192.891,113 196.03,107 200,107 200,107 202,105 202,105 202,101.863 200.911,85 198,85 198,85 197,85 197,85 197,89.2044 185,102.897 185,111  Z"/>

<path  fill="#3FA664" stroke-width="0" stroke="#3FA664" d = " M267 113 L269,113 C269,111.253 269.253,111 271,111 271,102.557 259,87.4781 259,85 259,85 258,85 258,85 258,86.0091 255.579,90.3429 255,91.5 255,91.5 255,105 255,105 255,105 255,106 255,106 255,106 257,108 257,108 261.173,108 263.651,113 267,113  Z"/>

<path  fill="#187E61" stroke-width="0" stroke="#187E61" d = " M381 164 L385,165 C385,165 387,150.5 387,150.5 384.378,145.256 386.607,137.714 384,132.5 379.267,123.034 375.812,113.123 371,103.5 369.889,101.279 359.573,88 357,88 357,90.8328 357,92.8405 357,95 357,95 357,97 357,97 360.325,97 365.588,105.675 367,108.5 379.943,134.385 381,132.744 381,163 381,163 381,164 381,164  Z"/>

<path  fill="#187E61" stroke-width="0" stroke="#187E61" d = " M75 164 L71,165 C71,160.187 67.5274,150.445 70,145.5 71.6319,142.236 70.393,137.714 72,134.5 76.6705,125.159 79.2706,114.959 84,105.5 85.9672,101.566 93.4884,89 99,89 99,90.5637 100,92.8764 100,95 100,95 100,96 100,96 97.2643,96 90.0875,106.325 89,108.5 76.7089,133.082 75,135.357 75,164  Z"/>

<path  fill="#1A7E64" stroke-width="0" stroke="#1A7E64" d = " M86 161 C81.8946,161 78.8411,164 75,164 75,135.357 76.7089,133.082 89,108.5 90.0875,106.325 97.2643,96 100,96 100,102.133 102,109.777 102,113 98.7545,113 96.0775,120.345 95,122.5 88.8875,134.725 86,146.13 86,161  Z"/>

<path  fill="#40A664" stroke-width="0" stroke="#40A664" d = " M231 144 L233,145 C233,129.205 234,113.267 234,97 231.002,97 226.642,96 223,96 223,96 222,97 222,97 222,97 223,145 223,145 223,145 226,144 226,144 226,144 227,143 227,143 227,137.27 229.316,143 230,143 230,143 231,144 231,144  Z"/>

<path  fill="#1F9B5A" stroke-width="0" stroke="#1F9B5A" d = " M130 161 C123.711,161 117.526,169 111,169 111,169 110,147.5 110,147.5 111.94,143.62 111.078,138.343 113,134.5 120.058,120.383 130.84,111.83 144.5,105 148.788,102.856 155.151,97 160,97 160,104.249 161,111.72 161,119 161,119 161,120 161,120 156.254,120 152.584,126.958 148.5,129 137.333,134.584 130,149.137 130,161  Z"/>

<path  fill="#3FA566" stroke-width="0" stroke="#3FA566" d = " M219 145 L223,145 C223,145 222,97 222,97 222,97 217,97 217,97 217,97 217,98 217,98 217,114.372 219,129.359 219,145  Z"/>

<path  fill="#3FA566" stroke-width="0" stroke="#3FA566" d = " M233 145 L237,145 C237,130.076 240,113.345 240,98 238.436,98 236.124,97 234,97 234,113.267 233,129.205 233,145  Z"/>

<path  fill="#1F9B5A" stroke-width="0" stroke="#1F9B5A" d = " M345 169 L346,169 C346,134.06 342.725,120.612 311.5,105 308.391,103.445 300.055,97 297,97 297,105.336 296,111.63 296,119 296,122.245 306.805,127.305 309,129.5 318.37,138.87 326,146.862 326,160 326,160 326,161 326,161 332.14,161 338.794,169 345,169  Z"/>

<path  fill="#1A7E64" stroke-width="0" stroke="#1A7E64" d = " M370 161 C374.867,161 375.857,163 381,163 381,132.744 379.943,134.385 367,108.5 365.588,105.675 360.325,97 357,97 354.936,97 356.574,100.353 356,101.5 354.012,105.477 355,110.19 355,113 355,113.252 364.095,126.69 365,128.5 369.875,138.249 370,150.388 370,161  Z"/>

<path  fill="#3EA666" stroke-width="0" stroke="#3EA666" d = " M213 145 L219,145 C219,129.359 217,114.372 217,98 211.196,98 205.329,105 202,105 202,115.487 202.652,126.803 207,135.5 208.499,138.499 213,142.306 213,145  Z"/>

<path  fill="#3EA666" stroke-width="0" stroke="#3EA666" d = " M237 145 L243,145 C243,145 249,136.5 249,136.5 253.087,128.326 255,115.658 255,106 255,106 255,105 255,105 249.816,105 245.748,98 240,98 240,113.345 237,130.076 237,145  Z"/>

<path  fill="#40A564" stroke-width="0" stroke="#40A564" d = " M205 143 C206.996,143 209.985,145 213,145 213,142.306 208.499,138.499 207,135.5 202.652,126.803 202,115.487 202,105 202,105 200,107 200,107 200,117.61 205,126.483 205,135 205,135 205,143 205,143  Z"/>

<path  fill="#40A564" stroke-width="0" stroke="#40A564" d = " M251 144 L243,145 C243,145 249,136.5 249,136.5 253.087,128.326 255,115.658 255,106 255,106 257,108 257,108 257,116.315 251,126.24 251,135 251,135 251,143 251,143 251,143 251,144 251,144  Z"/>

<path  fill="#2FA850" stroke-width="0" stroke="#2FA850" d = " M205 135 L202,136 C202,136 199,132.5 199,132.5 197.676,129.851 191.876,114 189,114 189,114 189,113 189,113 192.891,113 196.03,107 200,107 200,117.61 205,126.483 205,135  Z"/>

<path  fill="#2FA850" stroke-width="0" stroke="#2FA850" d = " M254 136 L255,136 C255,136 263,121 263,121 263,118.756 264.725,115 267,115 267,115 267,114 267,114 267,114 267,113 267,113 263.651,113 261.173,108 257,108 257,116.315 251,126.24 251,135 252.048,135 254,134.527 254,136  Z"/>

<path  fill="#1E9C58" stroke-width="0" stroke="#1E9C58" d = " M167 118 L163,119 C163,113.939 180.484,111 185,111 185,111 185,112 185,112 181.357,112 167,114.13 167,118  Z"/>

<path  fill="#3FA466" stroke-width="0" stroke="#3FA466" d = " M189 114 L189,115 C189,115 185,112 185,112 185,112 185,111 185,111 185,111 189,113 189,113 189,113 189,114 189,114  Z"/>

<path  fill="#3FA466" stroke-width="0" stroke="#3FA466" d = " M272 112 L269,113 C269,111.253 269.253,111 271,111 271,111 272,111 272,111 272,111 272,112 272,112  Z"/>

<path  fill="#1E9C58" stroke-width="0" stroke="#1E9C58" d = " M295 119 L295,121 C295,121 289,118 289,118 289,112.628 275.767,112 272,112 272,112 272,111 272,111 283.102,111 292.191,119 295,119  Z"/>

<path  fill="#CACCC7" stroke-width="0" stroke="#CACCC7" d = " M202 139 L203,142 C199.371,142 192,128.261 192,125 192,125 191,124 191,124 191,124 191,123 191,123 191,118.785 184.066,117 181,117 176.865,117 173.695,119 170,119 170,119 167,118 167,118 167,114.13 181.357,112 185,112 185,112 189,115 189,115 189,115 192,119.5 192,119.5 193.308,122.117 198.042,137 201,137 201,137 202,139 202,139  Z"/>

<path  fill="#CACCC7" stroke-width="0" stroke="#CACCC7" d = " M254 139 L253,142 C256.229,142 265,127.267 265,124 265,124 266,123 266,123 266,123 267,122 267,122 267,117.939 271.776,117 275,117 279.503,117 283.044,119 287,119 287,119 289,118 289,118 289,112.628 275.767,112 272,112 272,112 269,113 269,113 269,113 268,114 268,114 268,114 267,115 267,115 267,116.178 264.428,121 263,121 263,126.864 256,133.19 256,137 256,137 254,139 254,139  Z"/>

<path  fill="#1B7F62" stroke-width="0" stroke="#1B7F62" d = " M91 160 L86,161 C86,146.13 88.8875,134.725 95,122.5 96.0775,120.345 98.7545,113 102,113 104.662,113 101.338,120 104,120 104,120 104,121 104,121 104,121 100,128.5 100,128.5 95.9422,136.616 91,149.578 91,159 91,159 91,160 91,160  Z"/>

<path  fill="#3FA466" stroke-width="0" stroke="#3FA466" d = " M267 114 L268,114 C268,114 269,113 269,113 269,113 267,113 267,113 267,113 267,114 267,114  Z"/>

<path  fill="#1B7F62" stroke-width="0" stroke="#1B7F62" d = " M365 160 L370,161 C370,150.388 369.875,138.249 365,128.5 364.095,126.69 355,113.252 355,113 352.009,113 353,119.051 353,121 353,123.807 355.807,126.113 357,128.5 361.238,136.976 365,150.016 365,160  Z"/>

<path  fill="#2FA84F" stroke-width="0" stroke="#2FA84F" d = " M202 136 L201,137 C198.042,137 193.308,122.117 192,119.5 192,119.5 189,115 189,115 189,115 189,114 189,114 191.876,114 197.676,129.851 199,132.5 199,132.5 202,136 202,136  Z"/>

<path  fill="#2FA84F" stroke-width="0" stroke="#2FA84F" d = " M268 114 L267,115 C267,115 267,114 267,114 267,114 268,114 268,114  Z"/>

<path  fill="#2FA84F" stroke-width="0" stroke="#2FA84F" d = " M267 115 C264.725,115 263,118.756 263,121 264.428,121 267,116.178 267,115  Z"/>

<path  fill="#CAC7CC" stroke-width="0" stroke="#CAC7CC" d = " M135 171 L138,171 C138,152.934 136.194,146.153 154.5,137 166.505,130.998 195,140.461 195,155 196.008,155 199,160.147 199,161 201.711,161 203.969,159 205,159 205,159 205,143 205,143 205,143 203,142 203,142 199.371,142 192,128.261 192,125 192,125 191,124 191,124 191,124 191,123 191,123 189.739,123 181,117.751 181,117 176.865,117 173.695,119 170,119 170,121.236 164.926,122.287 163.5,123 157.369,126.065 152.673,131.913 146.5,135 137.117,139.692 134,159.356 134,169 134,169 135,171 135,171  Z"/>

<path  fill="#CCC7C9" stroke-width="0" stroke="#CCC7C9" d = " M181 117 C184.066,117 191,118.785 191,123 189.739,123 181,117.751 181,117  Z"/>

<path  fill="#CCC7C9" stroke-width="0" stroke="#CCC7C9" d = " M275 117 C271.776,117 267,117.939 267,122 268.156,122 275,118.155 275,117  Z"/>

<path  fill="#CAC7CC" stroke-width="0" stroke="#CAC7CC" d = " M319 170 C319,171.473 320.952,171 322,171 322,171 322,169 322,169 322,156.671 319.083,138.292 306.5,132 301.316,129.408 296.606,125.553 291.5,123 291.5,123 287,119 287,119 283.044,119 279.503,117 275,117 275,118.155 268.156,122 267,122 267,122 266,123 266,123 266,123 265,124 265,124 265,127.267 256.229,142 253,142 253,142 252,143 252,143 252,143 251,145 251,145 251,145 251,158 251,158 252.274,158 253.933,161 257,161 257,161 260,157 260,157 260,157 261,155 261,155 261,143.912 286.88,130.69 297.5,136 317.871,146.185 319,145.757 319,170  Z"/>

<path  fill="#C9C9CA" stroke-width="0" stroke="#C9C9CA" d = " M133 159 C133,160.657 132.237,169 134,169 134,159.356 137.117,139.692 146.5,135 152.673,131.913 157.369,126.065 163.5,123 164.926,122.287 170,121.236 170,119 170,119 167,118 167,118 167,118 163,119 163,119 163,119 161,121 161,121 161,122.676 150.496,129.004 148.5,131 140.158,139.342 133,146.447 133,159  Z"/>

<path  fill="#C9C9CA" stroke-width="0" stroke="#C9C9CA" d = " M324 159 C324,160.737 323.484,169 322,169 322,156.671 319.083,138.292 306.5,132 301.316,129.408 296.606,125.553 291.5,123 291.5,123 287,119 287,119 287,119 289,118 289,118 289,118 295,121 295,121 300.91,121 318.555,141.61 321,146.5 321.671,147.842 323.398,159 324,159  Z"/>

<path  fill="#1E9C58" stroke-width="0" stroke="#1E9C58" d = " M161 120 L161,121 C161,121 163,119 163,119 163,119 161,119 161,119 161,119 161,120 161,120  Z"/>

<path  fill="#1D9D5A" stroke-width="0" stroke="#1D9D5A" d = " M324 159 L326,160 C326,146.862 318.37,138.87 309,129.5 306.805,127.305 296,122.245 296,119 296,119 295,119 295,119 295,119 295,121 295,121 300.91,121 318.555,141.61 321,146.5 321.671,147.842 323.398,159 324,159  Z"/>

<path  fill="#1D9D5A" stroke-width="0" stroke="#1D9D5A" d = " M133 159 L130,161 C130,149.137 137.333,134.584 148.5,129 152.584,126.958 156.254,120 161,120 161,120 161,121 161,121 161,122.676 150.496,129.004 148.5,131 140.158,139.342 133,146.447 133,159  Z"/>

<path  fill="#1B7E63" stroke-width="0" stroke="#1B7E63" d = " M105 157 L91,159 C91,149.578 95.9422,136.616 100,128.5 100,128.5 104,121 104,121 104,125.131 107,130.562 107,134.5 107,137.032 106.268,137.963 105,140.5 102.664,145.173 105,153.12 105,157  Z"/>

<path  fill="#2FA84F" stroke-width="0" stroke="#2FA84F" d = " M255 136 L256,137 C256,133.19 263,126.864 263,121 263,121 255,136 255,136  Z"/>

<path  fill="#1B7E63" stroke-width="0" stroke="#1B7E63" d = " M351 157 C355.835,157 360.782,160 365,160 365,150.016 361.238,136.976 357,128.5 355.807,126.113 353,123.807 353,121 353,121 352,121 352,121 352,123.245 352,124.905 352,126.5 352,126.5 349,129.5 349,129.5 349,129.5 351,130.5 351,130.5 351.537,131.573 351,153.006 351,157  Z"/>

<path  fill="#CCC7C9" stroke-width="0" stroke="#CCC7C9" d = " M267 122 L266,123 C266,123 267,122 267,122  Z"/>

<path  fill="#CCC7C9" stroke-width="0" stroke="#CCC7C9" d = " M266 123 L265,124 C265,124 266,123 266,123  Z"/>

<path  fill="#CCC7C9" stroke-width="0" stroke="#CCC7C9" d = " M191 124 L192,125 C192,125 191,124 191,124  Z"/>

<path  fill="#58B362" stroke-width="0" stroke="#58B362" d = " M203 142 L205,143 C205,143 205,135 205,135 205,135 202,136 202,136 202,137.333 202,137.667 202,139 202,139 203,142 203,142  Z"/>

<path  fill="#58B362" stroke-width="0" stroke="#58B362" d = " M251 143 L252,143 C252,143 253,142 253,142 253,142 254,139 254,139 254,139 254,136 254,136 254,134.527 252.048,135 251,135 251,135 251,143 251,143  Z"/>

<path  fill="#98D5F9" stroke-width="0" stroke="#98D5F9" d = " M153 224 L155,225 C162.831,225 160.306,219.888 163,214.5 167.39,205.721 180.174,199.163 188.5,195 188.5,195 195,189 195,189 195,187.762 195.423,186 197,186 197,186 197,185 197,185 197,185 197,167 197,167 197,162.626 195,158.437 195,155 195,140.461 166.505,130.998 154.5,137 136.194,146.153 138,152.934 138,171 139.022,171 143.891,185.283 145,187.5 145,187.5 144,195 144,195 144,201.27 146,206.142 146,212 146,212 146,213 146,213 146,213 147,214 147,214 147,217.794 153,220.572 153,224  Z"/>

<path  fill="#58B263" stroke-width="0" stroke="#58B263" d = " M201 137 L202,139 C202,137.667 202,137.333 202,136 202,136 201,137 201,137  Z"/>

<path  fill="#58B263" stroke-width="0" stroke="#58B263" d = " M256 137 L254,139 C254,139 254,136 254,136 254,136 255,136 255,136 255,136 256,137 256,137  Z"/>

<path  fill="#98D5F9" stroke-width="0" stroke="#98D5F9" d = " M301 225 L302,225 C302,225 303,224 303,224 303,224 304,223 304,223 305.222,223 309,216.451 309,215 309,215 310,214 310,214 310,214 310,213 310,213 310,213 313,195 313,195 311.286,195 312,189.406 312,188 312,185.497 317.799,170 319,170 319,145.757 317.871,146.185 297.5,136 286.88,130.69 261,143.912 261,155 261,155 260,157 260,157 260,157 260,170 260,170 260,170 260,183 260,183 260,183 260,185 260,185 260,185 261,189 261,189 261,189 267.5,195 267.5,195 273.81,198.155 287.217,203.934 291,211.5 293.454,216.407 294.434,225 301,225  Z"/>

<path  fill="#CCC7C9" stroke-width="0" stroke="#CCC7C9" d = " M253 142 L252,143 C252,143 253,142 253,142  Z"/>

<path  fill="#A3DAA3" stroke-width="0" stroke="#A3DAA3" d = " M207 161 L225,161 C225,161 227,152 227,152 227,152 227,145 227,145 227,145 226,144 226,144 226,144 223,145 223,145 223,145 219,145 219,145 219,145 213,145 213,145 209.985,145 206.996,143 205,143 205,143 205,159 205,159 205,159 207,161 207,161  Z"/>

<path  fill="#99D2BD" stroke-width="0" stroke="#99D2BD" d = " M226 144 L227,145 C227,145 227,143 227,143 227,143 226,144 226,144  Z"/>

<path  fill="#99D2BD" stroke-width="0" stroke="#99D2BD" d = " M230 144 L231,144 C231,144 230,143 230,143 230,143 230,144 230,144  Z"/>

<path  fill="#CCC7C9" stroke-width="0" stroke="#CCC7C9" d = " M251 144 L251,145 C251,145 252,143 252,143 252,143 251,143 251,143 251,143 251,144 251,144  Z"/>

<path  fill="#A3DAA3" stroke-width="0" stroke="#A3DAA3" d = " M231 161 L250,161 C250,161 251,158 251,158 251,158 251,145 251,145 251,145 251,144 251,144 251,144 243,145 243,145 243,145 237,145 237,145 237,145 233,145 233,145 233,145 231,144 231,144 231,144 230,144 230,144 230,144 230,145 230,145 230,150.605 231,155.861 231,161  Z"/>

<path  fill="#99D2BD" stroke-width="0" stroke="#99D2BD" d = " M231 161 L229,163 C229,163 229,149 229,149 229,147.855 228.421,145 230,145 230,150.605 231,155.861 231,161  Z"/>

<path  fill="#99D2BD" stroke-width="0" stroke="#99D2BD" d = " M216 184 C216,185.914 222.984,190.758 224.5,190 L228.5,186 L231.5,190 C233.139,190.819 241,186.002 241,184 241,184 231.5,186 231.5,186 226.708,183.604 229,168.831 229,164 226.164,164 229.836,152 227,152 227,152 225,161 225,161 228.298,161 228.395,181.711 227,184.5 225.004,188.492 218.461,184 216,184  Z"/>

<path  fill="#AAA8A9" stroke-width="0" stroke="#AAA8A9" d = " M197 167 C200.17,167 199,179.446 199,182 200.951,182 199.477,179.546 200,178.5 203.021,172.458 199,166.651 199,161 199,160.147 196.008,155 195,155 195,158.437 197,162.626 197,167  Z"/>

<path  fill="#AAA8A9" stroke-width="0" stroke="#AAA8A9" d = " M261 155 L260,157 C260,157 261,155 261,155  Z"/>

<path  fill="#019C75" stroke-width="0" stroke="#019C75" d = " M107 170 L91,178 C91,172.298 91,166.245 91,160 91,160 91,159 91,159 91,159 105,157 105,157 105,161.081 107,165.364 107,170  Z"/>

<path  fill="#AAA8A9" stroke-width="0" stroke="#AAA8A9" d = " M260 170 L258.5,168 L258,171.5 C256.598,174.304 257,177.626 257,181 255.357,181 256,177.235 256,176 256,170.828 257,165.635 257,161 257,161 260,157 260,157 260,157 260,170 260,170  Z"/>

<path  fill="#019C75" stroke-width="0" stroke="#019C75" d = " M349 170 L352.5,172 L366,178 C366,171.898 365,165.521 365,160 360.782,160 355.835,157 351,157 351,157 349,170 349,170  Z"/>

<path  fill="#99D2BD" stroke-width="0" stroke="#99D2BD" d = " M257 182 C257,183.238 257.423,185 259,185 259,186.99 256.854,187.207 256,185.5 256,185.5 252.5,177 252.5,177 249.921,175.711 249.594,177 247,177 247,174.173 249.831,172.837 251,170.5 252.386,167.728 250,163.231 250,161 250,161 251,158 251,158 252.274,158 253.933,161 257,161 257,165.635 256,170.828 256,176 256,177.235 255.357,181 257,181 257,181 257,182 257,182  Z"/>

<path  fill="#1F9766" stroke-width="0" stroke="#1F9766" d = " M137 177 L136,179 C136,179 133,176 133,176 133,171.206 130,166.262 130,161 130,161 133,159 133,159 133,160.657 132.237,169 134,169 134,169 135,171 135,171 135,173.447 137,174.28 137,177  Z"/>

<path  fill="#99D2BD" stroke-width="0" stroke="#99D2BD" d = " M197 185 L197,186 C204.069,186 199.012,179.244 205.5,176 205.5,176 211,179 211,179 211,179 205,168.5 205,168.5 203.442,165.383 207,163.099 207,161 207,161 205,159 205,159 203.969,159 201.711,161 199,161 199,166.651 203.021,172.458 200,178.5 199.477,179.546 200.951,182 199,182 199,182 199,183 199,183 199,183 198,184 198,184 198,184 197,185 197,185  Z"/>

<path  fill="#1F9766" stroke-width="0" stroke="#1F9766" d = " M319 178 L320,179 C320,179 323,176 323,176 323,176 324,175 324,175 324,175 326,161 326,161 326,161 326,160 326,160 326,160 324,159 324,159 324,160.737 323.484,169 322,169 322,169 322,171 322,171 322,173.538 319,174.953 319,178  Z"/>

<path  fill="#009C74" stroke-width="0" stroke="#009C74" d = " M91 178 L89,179 C89,172.876 86,167.335 86,161 86,161 91,160 91,160 91,166.245 91,172.298 91,178  Z"/>

<path  fill="#009C74" stroke-width="0" stroke="#009C74" d = " M366 178 L367,178 C367,172.695 370,167.036 370,161 370,161 365,160 365,160 365,165.521 366,171.898 366,178  Z"/>

<path  fill="#009B75" stroke-width="0" stroke="#009B75" d = " M78 182 L79,182 C79,182 89,179 89,179 89,172.876 86,167.335 86,161 81.8946,161 78.8411,164 75,164 75,164 78,182 78,182  Z"/>

<path  fill="#209666" stroke-width="0" stroke="#209666" d = " M125 189 L121,191 C121,187.944 111,180.134 111,169 117.526,169 123.711,161 130,161 130,166.262 133,171.206 133,176 133,176 129.5,174 129.5,174 124.974,171.737 118.829,178.157 121,182.5 122.169,184.837 125,186.173 125,189  Z"/>

<path  fill="#61D09F" stroke-width="0" stroke="#61D09F" d = " M214 183 L216,184 C218.461,184 225.004,188.492 227,184.5 228.395,181.711 228.298,161 225,161 225,161 207,161 207,161 207,163.099 203.442,165.383 205,168.5 205,168.5 211,179 211,179 211,179 213,182 213,182 213,182 214,183 214,183  Z"/>

<path  fill="#61D09F" stroke-width="0" stroke="#61D09F" d = " M244 181 L241,184 C241,184 231.5,186 231.5,186 226.708,183.604 229,168.831 229,164 229,164 229,163 229,163 229,163 231,161 231,161 231,161 250,161 250,161 250,163.231 252.386,167.728 251,170.5 249.831,172.837 247,174.173 247,177 247,177 246,178 246,178 246,178 245,180 245,180 245,180 244,181 244,181  Z"/>

<path  fill="#209666" stroke-width="0" stroke="#209666" d = " M331 189 L335,191 C335,191 342,182.5 342,182.5 344.268,177.965 345,174.579 345,169 338.794,169 332.14,161 326,161 326,161 324,175 324,175 327.435,175 339.378,173.743 335,182.5 335,182.5 331,189 331,189  Z"/>

<path  fill="#009B75" stroke-width="0" stroke="#009B75" d = " M367 178 C367,179.92 376.104,182 378,182 378,175.917 381,170.481 381,164 381,164 381,163 381,163 375.857,163 374.867,161 370,161 370,167.036 367,172.695 367,178  Z"/>

<path  fill="#009C75" stroke-width="0" stroke="#009C75" d = " M78 182 C78,183.473 76.0479,183 75,183 72.9362,183 74.5736,179.647 74,178.5 72.2878,175.076 71,168.944 71,165 71,165 75,164 75,164 75,164 78,182 78,182  Z"/>

<path  fill="#009C75" stroke-width="0" stroke="#009C75" d = " M378 183 L382,183 C382,176.999 385,171.308 385,165 385,165 381,164 381,164 381,170.481 378,175.917 378,182 378,182 378,183 378,183  Z"/>

<path  fill="#A8AAAA" stroke-width="0" stroke="#A8AAAA" d = " M198 184 L197,185 C197,185 197,167 197,167 200.17,167 199,179.446 199,182 199,182 199,183 199,183 199,183 198,184 198,184  Z"/>

<path  fill="#A8AAAA" stroke-width="0" stroke="#A8AAAA" d = " M257 182 C258.532,182 257.95,183 260,183 260,183 260,170 260,170 260,170 258.5,168 258.5,168 258.5,168 258,171.5 258,171.5 256.598,174.304 257,177.626 257,181 257,181 257,182 257,182  Z"/>

<path  fill="#209665" stroke-width="0" stroke="#209665" d = " M97 199 L98,199 C103.429,199 117.17,191 121,191 121,187.944 111,180.134 111,169 111,169 107,170 107,170 107,170 91,178 91,178 91,182.883 90.9775,188.455 93,192.5 93,192.5 97,199 97,199  Z"/>

<path  fill="#209665" stroke-width="0" stroke="#209665" d = " M335 191 C338.502,191 353.529,199 359,199 359,199 363,193.5 363,193.5 364.898,189.703 366,182.398 366,178 366,178 352.5,172 352.5,172 352.5,172 349,170 349,170 349,170 346,169 346,169 346,169 345,169 345,169 345,174.579 344.268,177.965 342,182.5 342,182.5 335,191 335,191  Z"/>

<path  fill="#C8CBCC" stroke-width="0" stroke="#C8CBCC" d = " M313 195 L315,196 C315,195.234 310.62,189 315,189 315,189 315,187 315,187 315,187 316,185 316,185 316,185 317,183 317,183 317,183 317,181 317,181 317,181 319,178 319,178 319,174.953 322,173.538 322,171 320.952,171 319,171.473 319,170 317.799,170 312,185.497 312,188 312,189.406 311.286,195 313,195  Z"/>

<path  fill="#C8CBCC" stroke-width="0" stroke="#C8CBCC" d = " M144 195 L142,196 C142,194.622 144.244,187 141,187 141,187 141,186 141,186 141,186 139,181 139,181 139,181 137,177 137,177 137,174.28 135,173.447 135,171 135,171 138,171 138,171 139.022,171 143.891,185.283 145,187.5 145,187.5 144,195 144,195  Z"/>

<path  fill="#8ADA86" stroke-width="0" stroke="#8ADA86" d = " M141 187 C141,190.746 140.923,201.211 132.5,197 L125,189 C125,186.173 122.169,184.837 121,182.5 118.829,178.157 124.974,171.737 129.5,174 129.5,174 133,176 133,176 133,176 136,179 136,179 136,179 138,181 138,181 138,182.408 139.197,186 141,186 141,186 141,187 141,187  Z"/>

<path  fill="#8ADA86" stroke-width="0" stroke="#8ADA86" d = " M315 189 C315,203.507 331,194.705 331,189 331,189 335,182.5 335,182.5 339.378,173.743 327.435,175 324,175 324,175 323,176 323,176 323,176 320,179 320,179 320,179 319,181 319,181 319,181 317,183 317,183 317,183 316,185 316,185 316,185 315,187 315,187 315,187 315,189 315,189  Z"/>

<path  fill="#209666" stroke-width="0" stroke="#209666" d = " M324 175 L323,176 C323,176 324,175 324,175  Z"/>

<path  fill="#97D6F9" stroke-width="0" stroke="#97D6F9" d = " M218 248 C218,252.04 221,255.361 221,260 221,260 223,257.5 223,257.5 224.203,255.095 227,247.498 227,245 224.274,245 225,237.559 225,235.5 225,232.394 224.873,217 227.5,217 227.5,217 228.5,219 228.5,219 228.5,219 229.5,217 229.5,217 230.899,217 231,221.872 231,223 231,223 231,244.5 231,244.5 230.163,246.173 227,237.07 227,245 232.278,245 233.668,263 237,263 237,263 235,257.5 235,257.5 235,257.5 239,247 239,247 235.971,247 238.51,233 242,233 242,227.828 243,222.635 243,218 243,218 239.5,219 239.5,219 231.166,214.833 241.884,181.384 249,188.5 253.469,192.969 252,192.138 252,198 255.306,198 255.98,189 261,189 261,189 260,185 260,185 260,185 259,185 259,185 259,186.99 256.854,187.207 256,185.5 256,185.5 252.5,177 252.5,177 249.921,175.711 249.594,177 247,177 247,177 246,178 246,178 246,178 245,180 245,180 245,180 244,181 244,181 244,181 241,184 241,184 241,186.002 233.139,190.819 231.5,190 231.5,190 228.5,186 228.5,186 228.5,186 224.5,190 224.5,190 222.984,190.758 216,185.914 216,184 216,184 214,183 214,183 214,183 213,182 213,182 213,182 211,179 211,179 211,179 205.5,176 205.5,176 199.012,179.244 204.069,186 197,186 195.423,186 195,187.762 195,189 201.658,189 207.09,207 209,207 209,207 203,194.5 203,194.5 201.682,191.863 208.767,185.633 211.5,187 215.559,189.029 223.964,215.768 217.5,219 217.5,219 213,218 213,218 213,222.537 215,227.554 215,233 219.184,233 218,245.9 218,248  Z"/>

<path  fill="#219665" stroke-width="0" stroke="#219665" d = " M138 181 L139,181 C139,181 137,177 137,177 137,177 136,179 136,179 136,179 138,181 138,181  Z"/>

<path  fill="#99D2BD" stroke-width="0" stroke="#99D2BD" d = " M247 177 L246,178 C246,178 247,177 247,177  Z"/>

<path  fill="#209765" stroke-width="0" stroke="#209765" d = " M86 203 L87,203 C87,201.741 95.6318,199 97,199 97,199 93,192.5 93,192.5 90.9775,188.455 91,182.883 91,178 91,178 89,179 89,179 89,179 79,182 79,182 79,189.494 86,198.153 86,203  Z"/>

<path  fill="#219665" stroke-width="0" stroke="#219665" d = " M317 181 L319,181 C319,181 320,179 320,179 320,179 319,178 319,178 319,178 317,181 317,181  Z"/>

<path  fill="#209765" stroke-width="0" stroke="#209765" d = " M359 199 C362.697,199 365.94,202 370,202 373.186,202 375.766,188.967 377,186.5 377.523,185.454 376.049,183 378,183 378,183 378,182 378,182 376.104,182 367,179.92 367,178 367,178 366,178 366,178 366,182.398 364.898,189.703 363,193.5 363,193.5 359,199 359,199  Z"/>

<path  fill="#99D2BD" stroke-width="0" stroke="#99D2BD" d = " M245 180 L244,181 C244,181 245,180 245,180  Z"/>

<path  fill="#1F9866" stroke-width="0" stroke="#1F9866" d = " M139 181 L141,186 C139.197,186 138,182.408 138,181 138,181 139,181 139,181  Z"/>

<path  fill="#1F9866" stroke-width="0" stroke="#1F9866" d = " M319 181 L317,183 C317,183 317,181 317,181 317,181 319,181 319,181  Z"/>

<path  fill="#209764" stroke-width="0" stroke="#209764" d = " M86 203 L83,204 C81.4071,204 75,185.95 75,183 76.0479,183 78,183.473 78,182 78,182 79,182 79,182 79,189.494 86,198.153 86,203  Z"/>

<path  fill="#99D2BD" stroke-width="0" stroke="#99D2BD" d = " M213 182 L214,183 C214,183 213,182 213,182  Z"/>

<path  fill="#AAA8A9" stroke-width="0" stroke="#AAA8A9" d = " M259 185 L260,185 C260,185 260,183 260,183 257.95,183 258.532,182 257,182 257,183.238 257.423,185 259,185  Z"/>

<path  fill="#AAA8A9" stroke-width="0" stroke="#AAA8A9" d = " M199 183 L198,184 C198,184 199,183 199,183  Z"/>

<path  fill="#1F9866" stroke-width="0" stroke="#1F9866" d = " M317 183 L316,185 C316,185 317,183 317,183  Z"/>

<path  fill="#209764" stroke-width="0" stroke="#209764" d = " M370 203 L374,204 C374,198.626 382,189.534 382,183 382,183 378,183 378,183 376.049,183 377.523,185.454 377,186.5 375.766,188.967 373.186,202 370,202 370,202 370,203 370,203  Z"/>

<path  fill="#1F9866" stroke-width="0" stroke="#1F9866" d = " M316 185 L315,187 C315,187 316,185 316,185  Z"/>

<path  fill="#1F9866" stroke-width="0" stroke="#1F9866" d = " M129 207 L130,207 C130,207 131,206 131,206 131,203.085 138.775,200 141,200 141,198.855 140.421,196 142,196 142,194.622 144.244,187 141,187 141,190.746 140.923,201.211 132.5,197 132.5,197 125,189 125,189 125,189 121,191 121,191 121,191 129,207 129,207  Z"/>

<path  fill="#90CAED" stroke-width="0" stroke="#90CAED" d = " M213 217 L213,218 C213,218 217.5,219 217.5,219 223.964,215.768 215.559,189.029 211.5,187 208.767,185.633 201.682,191.863 203,194.5 203,194.5 209,207 209,207 209,207 211,213 211,213 211,213 213,217 213,217  Z"/>

<path  fill="#90CAED" stroke-width="0" stroke="#90CAED" d = " M244 216 L243,218 C243,218 239.5,219 239.5,219 231.166,214.833 241.884,181.384 249,188.5 253.469,192.969 252,192.138 252,198 252,198 251,199 251,199 251,199 251,200 251,200 251,200 250,202 250,202 250,202 249,203 249,203 249,203 249,205 249,205 249,205 248,206 248,206 248,206 248,207 248,207 248,207 247,208 247,208 247,208 246,211 246,211 246,211 245,213 245,213 245,213 245,214 245,214 245,214 244,216 244,216  Z"/>

<path  fill-rule="evenodd" fill="#80CDF8" stroke-width="0" stroke="#80CDF8" d = " M175 210 L169,216.5 C166.875,220.749 171.877,227.311 176.5,225 182.391,222.054 182.828,210 175,210  M215 233 L214,244.5 C208.819,254.863 191.967,267.233 179.5,261 L173.5,261 C167.796,258.148 157,255.736 157,247 157,244.089 154.305,237.891 156,234.5 156.523,233.453 157.748,231.995 157,230.5 157,230.5 155,225 155,225 162.831,225 160.306,219.888 163,214.5 167.39,205.721 180.174,199.163 188.5,195 188.5,195 195,189 195,189 201.658,189 207.09,207 209,207 209,207 211,213 211,213 211,213 213,217 213,217 213,217 213,218 213,218 213,222.537 215,227.554 215,233  Z"/>

<path  fill-rule="evenodd" fill="#80CDF8" stroke-width="0" stroke="#80CDF8" d = " M280 210 C280,211.373 276,211.435 276,214.5 276,217.005 275.975,218.45 277,220.5 284.947,236.393 294.144,210 280,210  M242 233 C242,236.997 241.33,242.161 243,245.5 247.632,254.764 264.868,266.816 276.5,261 279.865,259.318 285.04,260.73 288.5,259 L296,254.5 L300,247 C300,239.627 301,231.758 301,225 294.434,225 293.454,216.407 291,211.5 287.217,203.934 273.81,198.155 267.5,195 267.5,195 261,189 261,189 255.98,189 255.306,198 252,198 252,198 251,199 251,199 251,199 251,200 251,200 251,200 250,202 250,202 250,202 249,203 249,203 249,203 249,205 249,205 249,205 248,206 248,206 248,206 248,207 248,207 248,207 247,208 247,208 247,208 246,211 246,211 246,211 245,213 245,213 245,213 245,214 245,214 245,214 244,216 244,216 244,216 243,218 243,218 243,222.635 242,227.828 242,233  Z"/>

<path  fill="#1F9866" stroke-width="0" stroke="#1F9866" d = " M326 206 L327,206 C329.341,206 328.421,203.658 329,202.5 330.662,199.176 335,194.813 335,191 335,191 331,189 331,189 331,194.705 315,203.507 315,189 310.62,189 315,195.234 315,196 315,196 316,200 316,200 319.971,200 322.693,206 326,206  Z"/>

<path  fill="#1F9865" stroke-width="0" stroke="#1F9865" d = " M114 211 L118,211 C118,209.756 127.649,207 129,207 129,207 121,191 121,191 117.17,191 103.429,199 98,199 98,205.737 114,203.637 114,211  Z"/>

<path  fill="#1F9865" stroke-width="0" stroke="#1F9865" d = " M338 211 L342,211 C342,203.657 359,205.362 359,199 353.529,199 338.502,191 335,191 335,194.813 330.662,199.176 329,202.5 328.421,203.658 329.341,206 327,206 327,209.714 338,207.843 338,211  Z"/>

<path  fill="#8AD987" stroke-width="0" stroke="#8AD987" d = " M141 200 C146.14,200 142.022,212 146,212 146,206.142 144,201.27 144,195 144,195 142,196 142,196 140.421,196 141,198.855 141,200  Z"/>

<path  fill="#8AD987" stroke-width="0" stroke="#8AD987" d = " M316 200 C310.39,200 314.685,213 310,213 310,213 313,195 313,195 313,195 315,196 315,196 315,196 316,200 316,200  Z"/>

<path  fill="#97D6F9" stroke-width="0" stroke="#97D6F9" d = " M252 198 L251,199 C251,199 252,198 252,198  Z"/>

<path  fill="#219764" stroke-width="0" stroke="#219764" d = " M114 211 L95,216 C95,210.792 87,208.592 87,203 87,201.741 95.6318,199 97,199 97,199 98,199 98,199 98,205.737 114,203.637 114,211  Z"/>

<path  fill="#219764" stroke-width="0" stroke="#219764" d = " M342 211 L361,216 C361,216 370,203 370,203 370,203 370,202 370,202 365.94,202 362.697,199 359,199 359,205.362 342,203.657 342,211  Z"/>

<path  fill="#A0EE9C" stroke-width="0" stroke="#A0EE9C" d = " M134 223 C138.25,223 153,234.427 153,224 153,220.572 147,217.794 147,214 147,214 146,213 146,213 146,213 146,212 146,212 142.022,212 146.14,200 141,200 138.775,200 131,203.085 131,206 131,206 130,207 130,207 130,207 129,207 129,207 129,209.846 127,212.382 127,216 127,216 127,217 127,217 127,217 129,219 129,219 129,219 129,220 129,220 129,220 130,221 130,221 130,221 131,221 131,221 131,221 133,223 133,223 133,223 134,223 134,223  Z"/>

<path  fill="#97D6F9" stroke-width="0" stroke="#97D6F9" d = " M251 200 L250,202 C250,202 251,200 251,200  Z"/>

<path  fill="#A0EE9C" stroke-width="0" stroke="#A0EE9C" d = " M317 226 L315,227 C312.077,227 303,230.726 303,225 303,225 303,224 303,224 303,224 304,223 304,223 305.222,223 309,216.451 309,215 309,215 310,214 310,214 310,214 310,213 310,213 314.685,213 310.39,200 316,200 319.971,200 322.693,206 326,206 326,209.164 330,211.21 330,215 330,215 329,217 329,217 329,217 329,218 329,218 329,218 328,219 328,219 328,219 327,220 327,220 327,220 326,221 326,221 326,221 324,222 324,222 324,222 323,223 323,223 323,223 322,223 322,223 322,223 321,224 321,224 321,224 320,225 320,225 320,225 319,225 319,225 319,225 317,226 317,226  Z"/>

<path  fill="#97D6F9" stroke-width="0" stroke="#97D6F9" d = " M250 202 L249,203 C249,203 250,202 250,202  Z"/>

<path  fill="#209864" stroke-width="0" stroke="#209864" d = " M95 216 L91,217 C88.6301,217 83,206.155 83,204 83,204 86,203 86,203 86,203 87,203 87,203 87,208.592 95,210.792 95,216  Z"/>

<path  fill="#209864" stroke-width="0" stroke="#209864" d = " M361 216 L366,217 C367.46,217 374,205.716 374,204 374,204 370,203 370,203 370,203 361,216 361,216  Z"/>

<path  fill="#97D6F9" stroke-width="0" stroke="#97D6F9" d = " M249 205 L248,206 C248,206 249,205 249,205  Z"/>

<path  fill="#99D2BD" stroke-width="0" stroke="#99D2BD" d = " M131 206 L130,207 C130,207 131,206 131,206  Z"/>

<path  fill="#99D2BD" stroke-width="0" stroke="#99D2BD" d = " M338 211 L332.5,211 L330,215 C330,211.21 326,209.164 326,206 326,206 327,206 327,206 327,209.714 338,207.843 338,211  Z"/>

<path  fill="#99D2BD" stroke-width="0" stroke="#99D2BD" d = " M118 211 L123.5,211 L127,216 C127,212.382 129,209.846 129,207 127.649,207 118,209.756 118,211  Z"/>

<path  fill="#97D6F9" stroke-width="0" stroke="#97D6F9" d = " M248 207 L247,208 C247,208 248,207 248,207  Z"/>

<path  fill="#CBCBC7" stroke-width="0" stroke="#CBCBC7" d = " M175 210 L169,216.5 C166.875,220.749 171.877,227.311 176.5,225 182.391,222.054 182.828,210 175,210  Z"/>

<path  fill="#CBCBC7" stroke-width="0" stroke="#CBCBC7" d = " M280 210 C280,211.373 276,211.435 276,214.5 276,217.005 275.975,218.45 277,220.5 284.947,236.393 294.144,210 280,210  Z"/>

<path  fill="#6ACAB9" stroke-width="0" stroke="#6ACAB9" d = " M144 253 C139.401,253 136.895,257 133,257 133,251.504 113.551,244 110,244 110,244 103,238.5 103,238.5 99.6429,231.786 91,226.065 91,217 91,217 95,216 95,216 95,216 114,211 114,211 114,211 118,211 118,211 118,211 123.5,211 123.5,211 123.5,211 127,216 127,216 127,216 127,217 127,217 127,217 129,219 129,219 129,219 129,220 129,220 129,220 130,221 130,221 130,221 131,221 131,221 131,221 133,223 133,223 133,223 134,223 134,223 134,224.988 137.315,225.408 138.5,226 143.123,228.311 148.453,231.405 151,236.5 154.851,244.201 144,249.329 144,253  Z"/>

<path  fill="#97D6F9" stroke-width="0" stroke="#97D6F9" d = " M246 211 L245,213 C245,213 246,211 246,211  Z"/>

<path  fill="#6ACAB9" stroke-width="0" stroke="#6ACAB9" d = " M313 253 C317.259,253 319.618,257 323,257 323,257 326.5,253 326.5,253 330.616,250.942 334.454,248.023 338.5,246 339.658,245.421 346,241.91 346,244 351.479,244 366,222.573 366,217 366,217 361,216 361,216 361,216 342,211 342,211 342,211 338,211 338,211 338,211 332.5,211 332.5,211 332.5,211 330,215 330,215 330,215 329,217 329,217 329,217 329,218 329,218 329,218 328,219 328,219 328,219 327,220 327,220 327,220 326,221 326,221 326,221 324,222 324,222 324,222 323,223 323,223 323,223 322,223 322,223 322,223 321,224 321,224 321,224 320,225 320,225 320,225 319,225 319,225 319,225 317,226 317,226 317,226 315,227 315,227 315,228.76 310.712,230.394 309.5,231 309.5,231 305,237.5 305,237.5 301.635,244.23 313,250.913 313,253  Z"/>

<path  fill="#8AD987" stroke-width="0" stroke="#8AD987" d = " M146 213 L147,214 C147,214 146,213 146,213  Z"/>

<path  fill="#97D6F9" stroke-width="0" stroke="#97D6F9" d = " M211 213 L213,217 C213,217 211,213 211,213  Z"/>

<path  fill="#97D6F9" stroke-width="0" stroke="#97D6F9" d = " M245 214 L244,216 C244,216 245,214 245,214  Z"/>

<path  fill="#8AD987" stroke-width="0" stroke="#8AD987" d = " M310 214 L309,215 C309,215 310,214 310,214  Z"/>

<path  fill="#99D2BD" stroke-width="0" stroke="#99D2BD" d = " M330 215 L329,217 C329,217 330,215 330,215  Z"/>

<path  fill="#97D6F9" stroke-width="0" stroke="#97D6F9" d = " M244 216 L243,218 C243,218 244,216 244,216  Z"/>

<path  fill="#99D2BD" stroke-width="0" stroke="#99D2BD" d = " M127 217 L129,219 C129,219 127,217 127,217  Z"/>

<path  fill="#96A6D3" stroke-width="0" stroke="#96A6D3" d = " M227 245 C227,237.07 230.163,246.173 231,244.5 L231,223 C231,221.872 230.899,217 229.5,217 L228.5,219 L227.5,217 C224.873,217 225,232.394 225,235.5 225,237.559 224.274,245 227,245  Z"/>

<path  fill="#99D2BD" stroke-width="0" stroke="#99D2BD" d = " M329 218 L328,219 C328,219 329,218 329,218  Z"/>

<path  fill="#99D2BD" stroke-width="0" stroke="#99D2BD" d = " M328 219 L327,220 C327,220 328,219 328,219  Z"/>

<path  fill="#99D2BD" stroke-width="0" stroke="#99D2BD" d = " M129 220 L130,221 C130,221 129,220 129,220  Z"/>

<path  fill="#99D2BD" stroke-width="0" stroke="#99D2BD" d = " M327 220 L326,221 C326,221 327,220 327,220  Z"/>

<path  fill="#99D2BD" stroke-width="0" stroke="#99D2BD" d = " M131 221 L133,223 C133,223 131,221 131,221  Z"/>

<path  fill="#99D2BD" stroke-width="0" stroke="#99D2BD" d = " M324 222 L323,223 C323,223 324,222 324,222  Z"/>

<path  fill="#99D2BD" stroke-width="0" stroke="#99D2BD" d = " M144 253 L147,253 C147,249.817 153.969,247 157,247 157,244.089 154.305,237.891 156,234.5 156.523,233.453 157.748,231.995 157,230.5 157,230.5 155,225 155,225 155,225 153,224 153,224 153,234.427 138.25,223 134,223 134,224.988 137.315,225.408 138.5,226 143.123,228.311 148.453,231.405 151,236.5 154.851,244.201 144,249.329 144,253  Z"/>

<path  fill="#99D2BD" stroke-width="0" stroke="#99D2BD" d = " M304 223 L303,224 C303,224 304,223 304,223  Z"/>

<path  fill="#99D2BD" stroke-width="0" stroke="#99D2BD" d = " M322 223 L321,224 C321,224 322,223 322,223  Z"/>

<path  fill="#80CDF8" stroke-width="0" stroke="#80CDF8" d = " M302 225 L303,225 C303,225 303,224 303,224 303,224 302,225 302,225  Z"/>

<path  fill="#99D2BD" stroke-width="0" stroke="#99D2BD" d = " M321 224 L320,225 C320,225 321,224 321,224  Z"/>

<path  fill="#99D2BD" stroke-width="0" stroke="#99D2BD" d = " M310 253 L313,253 C313,250.913 301.635,244.23 305,237.5 305,237.5 309.5,231 309.5,231 310.712,230.394 315,228.76 315,227 312.077,227 303,230.726 303,225 303,225 302,225 302,225 302,225 301,225 301,225 301,231.758 300,239.627 300,247 301.969,247 310,250.732 310,253  Z"/>

<path  fill="#99D2BD" stroke-width="0" stroke="#99D2BD" d = " M319 225 L317,226 C317,226 319,225 319,225  Z"/>

<path  fill="#99D2BD" stroke-width="0" stroke="#99D2BD" d = " M317 226 L315,227 C315,227 317,226 317,226  Z"/>

<path  fill="#A2B1D7" stroke-width="0" stroke="#A2B1D7" d = " M218 248 C214.647,248 202.849,263.825 196.5,267 L191.5,267 C180.77,272.365 165.107,265.303 156.5,261 L147,253 C147,249.817 153.969,247 157,247 157,255.736 167.796,258.148 173.5,261 173.5,261 179.5,261 179.5,261 191.967,267.233 208.819,254.863 214,244.5 214,244.5 215,233 215,233 219.184,233 218,245.9 218,248  Z"/>

<path  fill="#A2B1D7" stroke-width="0" stroke="#A2B1D7" d = " M300 247 C301.969,247 310,250.732 310,253 310,253 300.5,261 300.5,261 294.057,264.221 274.117,272.309 265.5,268 258.491,264.496 252.095,261.595 247,256.5 244.667,254.167 241.415,247 239,247 235.971,247 238.51,233 242,233 242,236.997 241.33,242.161 243,245.5 247.632,254.764 264.868,266.816 276.5,261 279.865,259.318 285.04,260.73 288.5,259 288.5,259 296,254.5 296,254.5 296,254.5 300,247 300,247  Z"/>

<path  fill="#CAC8C7" stroke-width="0" stroke="#CAC8C7" d = " M133 261 L132,262 C130.056,262 110,245.269 110,244 113.551,244 133,251.504 133,257 133,257 133,261 133,261  Z"/>

<path  fill="#CAC8C7" stroke-width="0" stroke="#CAC8C7" d = " M323 261 L325,262 C326.714,262 346,245.509 346,244 346,241.91 339.658,245.421 338.5,246 334.454,248.023 330.616,250.942 326.5,253 326.5,253 323,257 323,257 323,257 323,261 323,261  Z"/>

<path  fill="#7FCCF7" stroke-width="0" stroke="#7FCCF7" d = " M216 270 L215,271 C215,277.671 201.6,283.95 197.5,286 192.671,288.415 184.188,287 178.5,287 178.5,287 173.5,289 173.5,289 166.44,292.53 146.708,282.916 144,277.5 141.747,272.994 135,271.07 135,266 135,266 133,263 133,263 133,263 133,261 133,261 133,261 133,257 133,257 136.895,257 139.401,253 144,253 144,253 147,253 147,253 147,253 156.5,261 156.5,261 165.107,265.303 180.77,272.365 191.5,267 191.5,267 196.5,267 196.5,267 202.849,263.825 214.647,248 218,248 218,252.04 221,255.361 221,260 221,260 219,264 219,264 219,264 219,265 219,265 219,265 218,267 218,267 218,267 217,268 217,268 217,268 217,269 217,269 217,269 216,270 216,270  Z"/>

<path  fill="#7FCCF7" stroke-width="0" stroke="#7FCCF7" d = " M240 269 L242,272 C242,278.075 254.479,283.989 258.5,286 264.099,288.799 273.014,284.257 278.5,287 290.324,292.912 310.142,285.216 316,273.5 316,273.5 323,264 323,264 323,264 323,261 323,261 323,261 323,257 323,257 319.618,257 317.259,253 313,253 313,253 310,253 310,253 310,253 300.5,261 300.5,261 294.057,264.221 274.117,272.309 265.5,268 258.491,264.496 252.095,261.595 247,256.5 244.667,254.167 241.415,247 239,247 239,247 235,257.5 235,257.5 235,257.5 237,263 237,263 237,263 237,265 237,265 237,265 239,267 239,267 239,267 239,268 239,268 239,268 240,269 240,269  Z"/>

<path  fill="#97D6F9" stroke-width="0" stroke="#97D6F9" d = " M221 260 L219,264 C221.109,264 221,261.465 221,260  Z"/>

<path  fill="#99D2BD" stroke-width="0" stroke="#99D2BD" d = " M132 262 L133,263 C133,263 133,261 133,261 133,261 132,262 132,262  Z"/>

<path  fill="#99D2BD" stroke-width="0" stroke="#99D2BD" d = " M325 262 L323,264 C323,264 323,261 323,261 323,261 325,262 325,262  Z"/>

<path  fill="#97D6F9" stroke-width="0" stroke="#97D6F9" d = " M133 263 L135,266 C133.423,266 133,264.238 133,263  Z"/>

<path  fill="#97D6F9" stroke-width="0" stroke="#97D6F9" d = " M219 265 L218,267 C218,267 219,265 219,265  Z"/>

<path  fill="#97D6F9" stroke-width="0" stroke="#97D6F9" d = " M237 265 L239,267 C239,267 237,265 237,265  Z"/>

<path  fill="#97D6F9" stroke-width="0" stroke="#97D6F9" d = " M218 267 L217,268 C217,268 218,267 218,267  Z"/>

<path  fill="#97D6F9" stroke-width="0" stroke="#97D6F9" d = " M239 268 L240,269 C240,269 239,268 239,268  Z"/>

<path  fill="#8599CC" stroke-width="0" stroke="#8599CC" d = " M217 269 L216,270 C216,270 217,269 217,269  Z"/>

<path  fill="#8599CC" stroke-width="0" stroke="#8599CC" d = " M240 269 L242,272 C240.423,272 240,270.238 240,269  Z"/>

<path  fill="#8599CC" stroke-width="0" stroke="#8599CC" d = " M216 270 L215,271 C215,271 216,270 216,270  Z"/>

</g>
</svg>
