<svg xmlns="http://www.w3.org/2000/svg" xmlns:xlink="http://www.w3.org/1999/xlink"  viewBox="0 0 456 320">
<g>
<rect width="456" height="320" fill="#000000"  stroke-width="0" /> 
<path  fill="#1E9D5A" stroke-width="0" stroke="#1E9D5A" d = " M194 33 L195,33 C195,33 195,28 195,28 195,28 173.5,29 173.5,29 169.869,30.8153 163.165,32 159,32 159,32 159,38 159,38 170.785,38 181.699,33 194,33  Z"/>

<path  fill="#1E9C59" stroke-width="0" stroke="#1E9C59" d = " M222 47 L223,47 C223,47 227,45 227,45 227,42.4939 224.28,39.7804 222.5,38 213.843,29.3434 207.071,28 195,28 195,28 195,33 195,33 204.662,33 222,35.3068 222,47  Z"/>

<path  fill="#1E9C59" stroke-width="0" stroke="#1E9C59" d = " M229 44 L234,47 C234,34.8721 253.165,33 262,33 262,33 262,28 262,28 250.13,28 243.547,28.9533 235,37.5 235,37.5 229,44 229,44  Z"/>

<path  fill="#1E9D5A" stroke-width="0" stroke="#1E9D5A" d = " M262 33 C274.73,33 285.781,38 298,38 298,36.4363 297,34.1236 297,32 293.118,32 286.899,30.6995 283.5,29 283.5,29 262,28 262,28 262,28 262,33 262,33  Z"/>

<path  fill="#187F60" stroke-width="0" stroke="#187F60" d = " M158 39 C152.433,39 147.708,43 143,43 143,43 141,37 141,37 146.772,37 153.094,32 159,32 159,32 159,38 159,38 159,38 158,39 158,39  Z"/>

<path  fill="#187F60" stroke-width="0" stroke="#187F60" d = " M313 43 L314,43 C314,40.5173 316,38.9744 316,37 309.741,37 303.506,32 297,32 297,34.1236 298,36.4363 298,38 299.721,38 313,41.6868 313,43  Z"/>

<path  fill="#1F9C58" stroke-width="0" stroke="#1F9C58" d = " M156 55 C156,56.6218 155.172,60 156,60 162.406,60 180.194,45 191,45 191,45 192,44 192,44 192,44 193,44 193,44 193,44 194,33 194,33 181.699,33 170.785,38 159,38 159,38 158,39 158,39 158,45.2876 156,49.9961 156,55  Z"/>

<path  fill="#1E9D58" stroke-width="0" stroke="#1E9D58" d = " M222 47 L216,50 C216,50 209.5,44 209.5,44 204.466,41.4828 197.991,44 193,44 193,44 194,33 194,33 194,33 195,33 195,33 204.662,33 222,35.3068 222,47  Z"/>

<path  fill="#1E9D58" stroke-width="0" stroke="#1E9D58" d = " M234 47 L240,50 C240,50 246.5,44 246.5,44 251.743,41.3784 258.776,44 264,44 264,44 262,33 262,33 253.165,33 234,34.8721 234,47  Z"/>

<path  fill="#1F9C58" stroke-width="0" stroke="#1F9C58" d = " M300 55 L301,60 C293.795,60 274.293,44 264,44 264,44 262,33 262,33 274.73,33 285.781,38 298,38 298,42.7224 300,49.7239 300,55  Z"/>

<path  fill="#197E64" stroke-width="0" stroke="#197E64" d = " M105 54 L107,59 C113.911,59 131.905,43 143,43 143,43 141,37 141,37 134.46,37 119.711,45.8947 113.5,49 113.5,49 105,54 105,54  Z"/>

<path  fill="#197E64" stroke-width="0" stroke="#197E64" d = " M349 59 L350,59 C350,59 351,53 351,53 347.177,53 322.584,37 316,37 316,38.9744 314,40.5173 314,43 323.954,43 342.711,59 349,59  Z"/>

<path  fill="#187F64" stroke-width="0" stroke="#187F64" d = " M159 38 L158,39 C158,39 159,38 159,38  Z"/>

<path  fill="#187F64" stroke-width="0" stroke="#187F64" d = " M300 55 C303.447,55 306.245,57 309,57 309,54.119 313,48.0795 313,43 313,41.6868 299.721,38 298,38 298,42.7224 300,49.7239 300,55  Z"/>

<path  fill="#187F64" stroke-width="0" stroke="#187F64" d = " M156 55 C152.362,55 150.071,57 147,57 147,57 143,43 143,43 147.708,43 152.433,39 158,39 158,45.2876 156,49.9961 156,55  Z"/>

<path  fill="#197F61" stroke-width="0" stroke="#197F61" d = " M112 72 L113,72 C113,72 120.5,68 120.5,68 127.251,64.6245 139.401,57 147,57 147,57 143,43 143,43 131.905,43 113.911,59 107,59 107,59 107,60 107,60 107,63.6708 112,67.9716 112,72  Z"/>

<path  fill="#1F9D58" stroke-width="0" stroke="#1F9D58" d = " M188 61 C189.911,61 196.441,59 201,59 L204,61 C204,61 216,51 216,51 216,51 216,50 216,50 216,50 209.5,44 209.5,44 204.466,41.4828 197.991,44 193,44 193,44 192,44 192,44 192,44 191,45 191,45 191,50.9506 188,55.5176 188,61  Z"/>

<path  fill="#1F9D58" stroke-width="0" stroke="#1F9D58" d = " M252 61 C254.995,61 260.312,56.9058 264.5,59 L269,61 C269,61 264,44 264,44 258.776,44 251.743,41.3784 246.5,44 246.5,44 240,50 240,50 240,50 240,51 240,51 244.931,51 248.099,61 252,61  Z"/>

<path  fill="#197F61" stroke-width="0" stroke="#197F61" d = " M349 59 C349,63.8059 344,67.7644 344,72 338.858,72 318.685,57 309,57 309,54.119 313,48.0795 313,43 313,43 314,43 314,43 323.954,43 342.711,59 349,59  Z"/>

<path  fill="#1E9C5A" stroke-width="0" stroke="#1E9C5A" d = " M192 44 L191,45 C191,45 192,44 192,44  Z"/>

<path  fill="#3EA665" stroke-width="0" stroke="#3EA665" d = " M223 71 L233,71 C233,63.1051 234,54.2167 234,47 234,47 229,44 229,44 229,46.7292 228.577,45 227,45 227,45 223,47 223,47 223,47 223,71 223,71  Z"/>

<path  fill="#1E9C5A" stroke-width="0" stroke="#1E9C5A" d = " M301 61 C301,66.8331 302,72.6739 302,77 292.936,77 273.784,61 269,61 269,61 264,44 264,44 274.293,44 293.795,60 301,60 301,60 301,61 301,61  Z"/>

<path  fill="#1E9C5A" stroke-width="0" stroke="#1E9C5A" d = " M187 62 C179.492,62 164.274,77 155,77 155,71.3653 156,64.9525 156,61 156,61 156,60 156,60 162.406,60 180.194,45 191,45 191,50.9506 188,55.5176 188,61 188,61 187,62 187,62  Z"/>

<path  fill="#40A565" stroke-width="0" stroke="#40A565" d = " M223 71 L218,72 C218,72 217,56 217,56 217,54.7655 217.643,51 216,51 216,51 216,50 216,50 216,50 222,47 222,47 222,47 223,47 223,47 223,47 223,71 223,71  Z"/>

<path  fill="#40A565" stroke-width="0" stroke="#40A565" d = " M233 71 C235.124,71 237.436,72 239,72 239,65.0331 240,57.3186 240,51 240,51 240,50 240,50 240,50 234,47 234,47 234,54.2167 233,63.1051 233,71  Z"/>

<path  fill="#3EA566" stroke-width="0" stroke="#3EA566" d = " M218 72 L206,78 C206,76.0564 205.139,62 204,62 204,62 204,61 204,61 204,61 216,51 216,51 217.643,51 217,54.7655 217,56 217,56 218,72 218,72  Z"/>

<path  fill="#3EA566" stroke-width="0" stroke="#3EA566" d = " M239 73 C243.717,73 246.108,78 250,78 250,73.401 252,66.6387 252,62 252,62 252,61 252,61 248.099,61 244.931,51 240,51 240,57.3186 239,65.0331 239,72 239,72 239,73 239,73  Z"/>

<path  fill="#1B8062" stroke-width="0" stroke="#1B8062" d = " M360 67 L361,67 C361,65.7618 362.923,62 364,62 364,62 351,53 351,53 351,53 350,59 350,59 350,59 360,67 360,67  Z"/>

<path  fill="#1B8062" stroke-width="0" stroke="#1B8062" d = " M95 67 L96,67 C96,64.8485 104.996,60 107,60 107,60 107,59 107,59 107,59 105,54 105,54 100.628,54 96.9583,61 93,61 93,61 95,67 95,67  Z"/>

<path  fill="#1C7F64" stroke-width="0" stroke="#1C7F64" d = " M156 61 C152.575,61 151.239,64 148,64 148,64 147,57 147,57 150.071,57 152.362,55 156,55 156,56.6218 155.172,60 156,60 156,60 156,61 156,61  Z"/>

<path  fill="#1C7F64" stroke-width="0" stroke="#1C7F64" d = " M301 61 L308,64 C308,64 309,57 309,57 306.245,57 303.447,55 300,55 300,55 301,60 301,60 301,60 301,61 301,61  Z"/>

<path  fill="#1A7F63" stroke-width="0" stroke="#1A7F63" d = " M113 72 C113,75.2381 116,77.3002 116,80 121.732,80 140.113,65 148,65 148,65 148,64 148,64 148,64 147,57 147,57 139.401,57 127.251,64.6245 120.5,68 120.5,68 113,72 113,72  Z"/>

<path  fill="#1A7F63" stroke-width="0" stroke="#1A7F63" d = " M344 72 L341,80 C333.299,80 317.04,65 308,65 308,65 308,64 308,64 308,64 309,57 309,57 318.685,57 338.858,72 344,72  Z"/>

<path  fill="#1D9C5A" stroke-width="0" stroke="#1D9C5A" d = " M185 83 L186,83 C186,83 193,81 193,81 193,78.6831 202.034,62 204,62 204,62 204,61 204,61 204,61 201,59 201,59 196.441,59 189.911,61 188,61 188,61 187,62 187,62 187,69.1535 185,75.3295 185,83  Z"/>

<path  fill="#1D9C5A" stroke-width="0" stroke="#1D9C5A" d = " M263 81 C266.303,81 268.115,83 271,83 271,75.1057 269,68.0797 269,61 269,61 264.5,59 264.5,59 260.312,56.9058 254.995,61 252,61 252,61 252,62 252,62 254.879,62 263,77.9559 263,81  Z"/>

<path  fill="#1C7F63" stroke-width="0" stroke="#1C7F63" d = " M344 72 C347.79,72 350.935,78 355,78 355,76.1937 360,71.299 360,67 360,67 350,59 350,59 350,59 349,59 349,59 349,63.8059 344,67.7644 344,72  Z"/>

<path  fill="#1C7F63" stroke-width="0" stroke="#1C7F63" d = " M112 72 C112,73.8258 102.835,78 101,78 101,74.2355 96,71.2008 96,67 96,64.8485 104.996,60 107,60 107,63.6708 112,67.9716 112,72  Z"/>

<path  fill="#197E63" stroke-width="0" stroke="#197E63" d = " M50 118 C52.666,118 52.4822,121 55,121 55,111.912 71.2818,88.2182 78.5,81 78.5,81 91,69.5 91,69.5 91,69.5 95,67 95,67 95,67 93,61 93,61 88.6212,61 84.3588,69.0706 80.5,71 70.9216,75.7892 50,108.571 50,118  Z"/>

<path  fill="#197C63" stroke-width="0" stroke="#197C63" d = " M153 77 L155,77 C155,71.3653 156,64.9525 156,61 152.575,61 151.239,64 148,64 148,64 148,65 148,65 151.414,65 149.586,77 153,77  Z"/>

<path  fill="#1F9B5A" stroke-width="0" stroke="#1F9B5A" d = " M188 61 L187,62 C187,62 188,61 188,61  Z"/>

<path  fill="#1F9B5A" stroke-width="0" stroke="#1F9B5A" d = " M301 96 L302,96 C302,90.851 302,87.453 302,83 300.469,83 302,77.7523 302,77 292.936,77 273.784,61 269,61 269,68.0797 271,75.1057 271,83 277.822,83 286.528,90.0138 292.5,93 294.117,93.8087 301,93.4048 301,96  Z"/>

<path  fill="#197C63" stroke-width="0" stroke="#197C63" d = " M302 77 L304,78 C304,76.369 307.004,65 308,65 308,65 308,64 308,64 308,64 301,61 301,61 301,66.8331 302,72.6739 302,77  Z"/>

<path  fill="#1F9B5A" stroke-width="0" stroke="#1F9B5A" d = " M155 95 L158,95 C158,92.7266 163.226,93 165,93 165,90.7823 170.144,89 172,89 172,87.3616 175.576,87 177,87 177,85.3616 180.576,85 182,85 182,85 185,83 185,83 185,75.3295 187,69.1535 187,62 179.492,62 164.274,77 155,77 155,77 155,83 155,83 155,87.6813 155,90.1666 155,95  Z"/>

<path  fill="#3FA664" stroke-width="0" stroke="#3FA664" d = " M193 82 C195.226,82 197,83.7736 197,86 200.218,86 202.402,79 206,79 206,79 206,78 206,78 206,76.0564 205.139,62 204,62 202.034,62 193,78.6831 193,81 193,81 193,82 193,82  Z"/>

<path  fill="#3FA664" stroke-width="0" stroke="#3FA664" d = " M263 82 C260.46,82 260.457,85 259,85 255.274,85 253.624,79 250,79 250,79 250,78 250,78 250,73.401 252,66.6387 252,62 254.879,62 263,77.9559 263,81 263,81 263,82 263,82  Z"/>

<path  fill="#197E63" stroke-width="0" stroke="#197E63" d = " M406 118 C404.053,118 403.364,121 401,121 401,110.078 381.555,81.0274 373.5,77 369.508,75.004 365.582,67 361,67 361,65.7618 362.923,62 364,62 368.899,62 376.024,70.5239 379.5,74 388.538,83.0384 406,105.533 406,118  Z"/>

<path  fill="#187E62" stroke-width="0" stroke="#187E62" d = " M120 91 L121,91 C124.392,91 145.524,78 153,78 153,78 153,77 153,77 149.586,77 151.414,65 148,65 140.113,65 121.732,80 116,80 116,84.2577 120,86.6264 120,91  Z"/>

<path  fill="#187E62" stroke-width="0" stroke="#187E62" d = " M335 91 L336,91 C336,91 341,81 341,81 341,81 341,80 341,80 333.299,80 317.04,65 308,65 307.004,65 304,76.369 304,78 311.576,78 330.875,91 335,91  Z"/>

<path  fill="#1B7F64" stroke-width="0" stroke="#1B7F64" d = " M55 122 L57,122 C61.2691,122 62.7309,119 67,119 67,119 67,118 67,118 67,107.407 89.0915,79 101,79 101,79 101,78 101,78 101,74.2355 96,71.2008 96,67 96,67 95,67 95,67 95,67 91,69.5 91,69.5 91,69.5 78.5,81 78.5,81 71.2818,88.2182 55,111.912 55,121 55,121 55,122 55,122  Z"/>

<path  fill="#1B7F64" stroke-width="0" stroke="#1B7F64" d = " M399 122 L401,122 C401,122 401,121 401,121 401,110.078 381.555,81.0274 373.5,77 369.508,75.004 365.582,67 361,67 361,67 360,67 360,67 360,71.299 355,76.1937 355,78 355,78 355,79 355,79 367.858,79 389,106.568 389,119 389,119 390,119 390,119 394.444,119 394.615,122 399,122  Z"/>

<path  fill="#3FA566" stroke-width="0" stroke="#3FA566" d = " M221 104 L218,105 C218,105 218,72 218,72 218,72 223,71 223,71 223,81.4193 222,92.1709 222,102 222,102 221,104 221,104  Z"/>

<path  fill="#40A664" stroke-width="0" stroke="#40A664" d = " M229 97 C231.618,97 232.093,101 234,101 234,91.3756 233,81.167 233,71 233,71 223,71 223,71 223,81.4193 222,92.1709 222,102 222,102 227,97 227,97 227,92.7477 229,92.5341 229,97  Z"/>

<path  fill="#3FA566" stroke-width="0" stroke="#3FA566" d = " M235 103 L238,105 C238,94.5356 239,83.9348 239,73 239,73 239,72 239,72 237.436,72 235.124,71 233,71 233,81.167 234,91.3756 234,101 234,101 235,103 235,103  Z"/>

<path  fill="#197E61" stroke-width="0" stroke="#197E61" d = " M116 80 L106,85 C106,85 101,79 101,79 101,79 101,78 101,78 102.835,78 112,73.8258 112,72 112,72 113,72 113,72 113,75.2381 116,77.3002 116,80  Z"/>

<path  fill="#3EA666" stroke-width="0" stroke="#3EA666" d = " M210 102 C210,104.638 215.848,105 218,105 218,105 218,72 218,72 218,72 206,78 206,78 206,78 206,79 206,79 206,86.6185 210,95.1354 210,102  Z"/>

<path  fill="#197E61" stroke-width="0" stroke="#197E61" d = " M341 81 C345.046,81 347.085,85 351,85 351,85 355,79 355,79 355,79 355,78 355,78 350.935,78 347.79,72 344,72 344,72 341,80 341,80 341,80 341,81 341,81  Z"/>

<path  fill="#3EA666" stroke-width="0" stroke="#3EA666" d = " M247 102 C247,104.54 240.157,105 238,105 238,94.5356 239,83.9348 239,73 243.717,73 246.108,78 250,78 250,78 250,79 250,79 250,86.8206 247,93.921 247,101 247,101 247,102 247,102  Z"/>

<path  fill="#1A7F64" stroke-width="0" stroke="#1A7F64" d = " M153 78 C153,79.4242 153.362,83 155,83 155,83 155,77 155,77 155,77 153,77 153,77 153,77 153,78 153,78  Z"/>

<path  fill="#1A7F64" stroke-width="0" stroke="#1A7F64" d = " M304 78 C304,78.6706 302.672,83 302,83 300.469,83 302,77.7523 302,77 302,77 304,78 304,78  Z"/>

<path  fill="#197D61" stroke-width="0" stroke="#197D61" d = " M127 107 L128,107 C128,104.539 131.378,105 133,105 133,103.362 136.576,103 138,103 138,101.362 141.576,101 143,101 143,99.3071 151.239,97 153,97 153,97 155,96 155,96 155,96 155,95 155,95 155,90.1666 155,87.6813 155,83 153.362,83 153,79.4242 153,78 145.524,78 124.392,91 121,91 121,96.392 127,101.165 127,107  Z"/>

<path  fill="#197D61" stroke-width="0" stroke="#197D61" d = " M302 96 C310.11,96 320.342,106 329,106 329,101.048 335,96.4652 335,91 330.875,91 311.576,78 304,78 304,78.6706 302.672,83 302,83 302,87.453 302,90.851 302,96  Z"/>

<path  fill="#1A8062" stroke-width="0" stroke="#1A8062" d = " M77 114 L78,114 C78,114 79,113 79,113 79,107.375 100.293,86 106,86 106,86 106,85 106,85 106,85 101,79 101,79 89.0915,79 67,107.407 67,118 70.8491,118 74.0145,114 77,114  Z"/>

<path  fill="#40A564" stroke-width="0" stroke="#40A564" d = " M209 102 L210,102 C210,95.1354 206,86.6185 206,79 202.402,79 200.218,86 197,86 197,86 197,87 197,87 197,87 207,99 207,99 207,101.215 209,100.519 209,102  Z"/>

<path  fill="#40A564" stroke-width="0" stroke="#40A564" d = " M249 100 L247,101 C247,93.921 250,86.8206 250,79 253.624,79 255.274,85 259,85 259,85 259,86 259,86 259,86 259,87 259,87 259,87 256,92.5 256,92.5 254.36,95.7801 249,96.4328 249,100  Z"/>

<path  fill="#1A8062" stroke-width="0" stroke="#1A8062" d = " M379 114 L389,119 C389,106.568 367.858,79 355,79 355,79 351,85 351,85 351,85 351,86 351,86 355.923,86 378,108.975 378,113 378,113 379,114 379,114  Z"/>

<path  fill="#197D62" stroke-width="0" stroke="#197D62" d = " M110 97 L111,97 C111,97 112,96 112,96 112,96 114,95 114,95 114,95 120,91 120,91 120,86.6264 116,84.2577 116,80 116,80 106,85 106,85 106,85 106,86 106,86 106,86 110,97 110,97  Z"/>

<path  fill="#1E9C58" stroke-width="0" stroke="#1E9C58" d = " M193 83 L186,84 C186,84 186,83 186,83 186,83 193,81 193,81 193,81 193,82 193,82 193,82 193,83 193,83  Z"/>

<path  fill="#1E9C58" stroke-width="0" stroke="#1E9C58" d = " M271 83 L271,84 C271,84 264,83 264,83 264,83 263,82 263,82 263,82 263,81 263,81 266.303,81 268.115,83 271,83  Z"/>

<path  fill="#197D62" stroke-width="0" stroke="#197D62" d = " M345 97 L346,97 C346,93.6 351,89.2066 351,86 351,86 351,85 351,85 347.085,85 345.046,81 341,81 341,81 336,91 336,91 336,91 343,95 343,95 343,95 344,96 344,96 344,96 345,97 345,97  Z"/>

<path  fill="#3FA466" stroke-width="0" stroke="#3FA466" d = " M197 86 L197,87 C194.993,87 195.879,83 193,83 193,83 193,82 193,82 195.226,82 197,83.7736 197,86  Z"/>

<path  fill="#3FA466" stroke-width="0" stroke="#3FA466" d = " M259 86 L260,86 C261.457,86 261.46,83 264,83 264,83 263,82 263,82 260.46,82 260.457,85 259,85 259,85 259,86 259,86  Z"/>

<path  fill="#1D9D5A" stroke-width="0" stroke="#1D9D5A" d = " M186 84 C186,85.5791 183.145,85 182,85 182,85 185,83 185,83 185,83 186,83 186,83 186,83 186,84 186,84  Z"/>

<path  fill="#CACCC7" stroke-width="0" stroke="#CACCC7" d = " M207 99 C207,101.215 209,100.519 209,102 200.285,102 194.285,91.3926 187.5,88 183.37,85.9352 175.208,93 171,93 171,93 170,94 170,94 170,94 169,94 169,94 169,94 165,94 165,94 165,94 165,93 165,93 166.572,93 172,90.9482 172,89 173.622,89 177,89.4606 177,87 178.622,87 182,87.4606 182,85 183.145,85 186,85.5791 186,84 186,84 193,83 193,83 195.879,83 194.993,87 197,87 197,90.5716 202.845,99 207,99  Z"/>

<path  fill="#CACCC7" stroke-width="0" stroke="#CACCC7" d = " M247 101 L247,102 C256.867,102 260.661,91.9193 268.5,88 272.862,85.8189 280.767,93 285,93 285,93 286,94 286,94 286,94 288,94 288,94 288,94 291,94 291,94 291,91.492 271,84.6856 271,84 271,84 264,83 264,83 261.46,83 261.457,86 260,86 260,86 259,87 259,87 259,90.9364 253.704,100 249,100 249,100 247,101 247,101  Z"/>

<path  fill="#1D9D5A" stroke-width="0" stroke="#1D9D5A" d = " M301 96 L301,97 C297.972,97 294.606,94 291,94 291,91.492 271,84.6856 271,84 271,84 271,83 271,83 277.822,83 286.528,90.0138 292.5,93 294.117,93.8087 301,93.4048 301,96  Z"/>

<path  fill="#1D9D5A" stroke-width="0" stroke="#1D9D5A" d = " M182 85 C180.576,85 177,85.3616 177,87 178.622,87 182,87.4606 182,85  Z"/>

<path  fill="#197E62" stroke-width="0" stroke="#197E62" d = " M92 109 C86.5848,109 82.1131,113 79,113 79,107.375 100.293,86 106,86 106,86 110,97 110,97 108.444,97 97,104.294 97,106 97,106 96,107 96,107 96,107 95,107 95,107 95,107 93,108 93,108 93,108 92,109 92,109  Z"/>

<path  fill="#40A465" stroke-width="0" stroke="#40A465" d = " M260 86 L259,87 C259,87 259,86 259,86 259,86 260,86 260,86  Z"/>

<path  fill="#197E62" stroke-width="0" stroke="#197E62" d = " M363 108 C363,106.751 375.866,113 378,113 378,108.975 355.923,86 351,86 351,89.2066 346,93.6 346,97 347.516,97 362,106.786 362,108 362,108 363,108 363,108  Z"/>

<path  fill="#1D9D5A" stroke-width="0" stroke="#1D9D5A" d = " M177 87 C175.576,87 172,87.3616 172,89 173.622,89 177,89.4606 177,87  Z"/>

<path  fill="#40A465" stroke-width="0" stroke="#40A465" d = " M197 87 L207,99 C202.845,99 197,90.5716 197,87  Z"/>

<path  fill="#40A465" stroke-width="0" stroke="#40A465" d = " M259 87 L256,92.5 C254.36,95.7801 249,96.4328 249,100 253.704,100 259,90.9364 259,87  Z"/>

<path  fill="#C9C7C9" stroke-width="0" stroke="#C9C7C9" d = " M366 159 L367,164 C364.845,164 363.767,157.035 363,155.5 358.102,145.705 349.95,137.399 345,127.5 345,127.5 337.5,121 337.5,121 333.208,118.854 328.502,113.501 323.5,111 323.5,111 300.5,104 300.5,104 296.448,101.974 288.701,105 285,105 285,95.8209 263,98.2515 263,103 261.144,103 256,104.782 256,107 256,107 254,108 254,108 254,108 253,109 253,109 253,109 252,109 252,109 245.569,109 239.826,114 234,114 234,114 232,115 232,115 232,115 229,115 229,115 229,113.07 227.839,115 227,115 227,115 225,115 225,115 225,113.527 223.048,114 222,114 216.904,114 210.39,109 204,109 204,109 203,109 203,109 203,103.386 171,91.3326 171,105 145.491,105 146.45,106.025 124.5,117 120.863,118.819 114.546,122.407 113,125.5 108.091,135.318 100.018,142.464 95,152.5 94.1739,154.152 92.045,163 90,163 90,163 91,157 91,157 91,157 92,156 92,156 92,156 92,155 92,155 92,155 93,153 93,153 94.4729,153 94,151.048 94,150 94,150 95,149 95,149 95,149 95,148 95,148 95,148 96,146 96,146 96,146 97,144 97,144 97,144 98,142 98,142 98,142 99,140 99,140 100.577,140 101,138.238 101,137 102.36,137 111,124.777 111,123 112.797,123 115,120.797 115,119 116.747,119 117,118.747 117,117 120.559,117 125.335,111.583 128.5,110 137.767,105.366 148.262,103.619 157.5,99 159.22,98.1398 169,95.825 169,94 169,94 170,94 170,94 170,94 171,93 171,93 175.208,93 183.37,85.9352 187.5,88 194.285,91.3926 200.285,102 209,102 209,102 210,102 210,102 210,104.638 215.848,105 218,105 218,105 221,104 221,104 222.423,104 224.544,105.978 226.5,105 226.5,105 228.5,103 228.5,103 228.5,103 229.5,105 229.5,105 231.017,105.759 235,104.963 235,103 235,103 238,105 238,105 240.157,105 247,104.54 247,102 256.867,102 260.661,91.9193 268.5,88 272.862,85.8189 280.767,93 285,93 285,93 286,94 286,94 286,94 288,94 288,94 288,96.0288 294.967,97.2333 296.5,98 306.022,102.761 317.018,104.259 326.5,109 336.213,113.856 341.941,121.441 350,129.5 351.672,131.172 354.502,139 357,139 357,139 357,140 357,140 357,140 361,147 361,147 361,147 361,148 361,148 361,148 363,151 363,151 363,151 363,152 363,152 363,153.424 363.362,157 365,157 365,157 365,158 365,158 365,158 366,159 366,159  Z"/>

<path  fill="#1D9D5A" stroke-width="0" stroke="#1D9D5A" d = " M172 89 C170.144,89 165,90.7823 165,93 166.572,93 172,90.9482 172,89  Z"/>

<path  fill="#1A7F61" stroke-width="0" stroke="#1A7F61" d = " M126 107 L127,107 C127,101.165 121,96.392 121,91 121,91 120,91 120,91 120,91 114,95 114,95 114,97.466 116.005,95 116.5,95 117.32,95 126,104.844 126,107  Z"/>

<path  fill="#1A7F61" stroke-width="0" stroke="#1A7F61" d = " M329 107 L330,107 C330,104.501 336.628,96 339.5,96 342.749,96 338.465,96.0174 340.5,95 341.591,94.4545 343,97.1514 343,95 343,95 336,91 336,91 336,91 335,91 335,91 335,96.4652 329,101.048 329,106 329,106 329,107 329,107  Z"/>

<path  fill="#1D9D5A" stroke-width="0" stroke="#1D9D5A" d = " M165 94 L158,95 C158,92.7266 163.226,93 165,93 165,93 165,94 165,94  Z"/>

<path  fill="#C9C9CA" stroke-width="0" stroke="#C9C9CA" d = " M171 93 L170,94 C170,94 171,93 171,93  Z"/>

<path  fill="#C9C9CA" stroke-width="0" stroke="#C9C9CA" d = " M285 93 L286,94 C286,94 285,93 285,93  Z"/>

<path  fill="#C9C9CA" stroke-width="0" stroke="#C9C9CA" d = " M117 115 L117,117 C120.559,117 125.335,111.583 128.5,110 137.767,105.366 148.262,103.619 157.5,99 159.22,98.1398 169,95.825 169,94 169,94 165,94 165,94 165,94 158,95 158,95 158,96.5774 156.238,97 155,97 155,97 153,97 153,97 153,99.271 145.161,101 143,101 143,103.461 139.622,103 138,103 138,105.461 134.622,105 133,105 133,105 128,108 128,108 128,108 127,108 127,108 127,110.314 122.738,111 121,111 121,111 117,115 117,115  Z"/>

<path  fill="#C9C9CA" stroke-width="0" stroke="#C9C9CA" d = " M329 108 C329,109.272 336.481,112.981 338,114.5 343.021,119.521 357,132.004 357,139 354.502,139 351.672,131.172 350,129.5 341.941,121.441 336.213,113.856 326.5,109 317.018,104.259 306.022,102.761 296.5,98 294.967,97.2333 288,96.0288 288,94 288,94 291,94 291,94 294.606,94 297.972,97 301,97 301,97 329,108 329,108  Z"/>

<path  fill="#187D61" stroke-width="0" stroke="#187D61" d = " M93 147 L94,147 C94,143.702 108.01,120 111,120 111,120 112,119 112,119 112,117.423 113.762,117 115,117 115,115.253 115.253,115 117,115 117,112.774 118.774,111 121,111 121,111 126,107 126,107 126,104.844 117.32,95 116.5,95 116.005,95 114,97.466 114,95 114,95 112,96 112,96 112,96 111,97 111,97 111,103.214 103.42,106 97,106 97,106 96,107 96,107 96,108.186 95,108.186 95,107 95,107 93,108 93,108 93,108 92,109 92,109 92,113.761 79,129.713 79,137 79,137 79,138 79,138 79,141.476 93,142.41 93,147  Z"/>

<path  fill="#1D9D5A" stroke-width="0" stroke="#1D9D5A" d = " M155 96 L155,97 C156.238,97 158,96.5774 158,95 158,95 155,95 155,95 155,95 155,96 155,96  Z"/>

<path  fill="#187D61" stroke-width="0" stroke="#187D61" d = " M378 138 L363,146 C363,146 357,134.5 357,134.5 354.448,129.395 336.146,107 330,107 330,104.501 336.628,96 339.5,96 342.749,96 338.465,96.0174 340.5,95 341.591,94.4545 343,97.1514 343,95 343,95 344,96 344,96 344,96 345,97 345,97 345,101.934 357.63,108 362,108 362,108 363,108 363,108 363,108 367,112.5 367,112.5 369.118,116.736 370.865,121.231 373,125.5 373.805,127.111 376.557,137 378,137 378,137 378,138 378,138  Z"/>

<path  fill="#1A7F61" stroke-width="0" stroke="#1A7F61" d = " M112 96 L111,97 C111,97 112,96 112,96  Z"/>

<path  fill="#1C8064" stroke-width="0" stroke="#1C8064" d = " M153 97 L155,97 C155,97 155,96 155,96 155,96 153,97 153,97  Z"/>

<path  fill="#1C8064" stroke-width="0" stroke="#1C8064" d = " M329 107 L329,108 C329,108 301,97 301,97 301,97 301,96 301,96 301,96 302,96 302,96 310.11,96 320.342,106 329,106 329,106 329,107 329,107  Z"/>

<path  fill="#1A7F61" stroke-width="0" stroke="#1A7F61" d = " M344 96 L345,97 C345,97 344,96 344,96  Z"/>

<path  fill="#187D62" stroke-width="0" stroke="#187D62" d = " M111 97 C111,103.214 103.42,106 97,106 97,104.294 108.444,97 110,97 110,97 111,97 111,97  Z"/>

<path  fill="#1C8064" stroke-width="0" stroke="#1C8064" d = " M153 97 C151.239,97 143,99.3071 143,101 145.161,101 153,99.271 153,97  Z"/>

<path  fill="#7ED04B" stroke-width="0" stroke="#7ED04B" d = " M235 103 C235,104.963 231.017,105.759 229.5,105 L228.5,103 L226.5,105 C224.544,105.978 222.423,104 221,104 221,104 222,102 222,102 222,102 227,97 227,97 227.839,97 229,98.93 229,97 231.618,97 232.093,101 234,101 234,101 235,103 235,103  Z"/>

<path  fill="#187D62" stroke-width="0" stroke="#187D62" d = " M346 97 C347.516,97 362,106.786 362,108 357.63,108 345,101.934 345,97 345,97 346,97 346,97  Z"/>

<path  fill="#AAA8A9" stroke-width="0" stroke="#AAA8A9" d = " M175 106 C175,91.3523 201.127,109 203,109 203,103.386 171,91.3326 171,105 171,105 175,106 175,106  Z"/>

<path  fill="#AAA8A9" stroke-width="0" stroke="#AAA8A9" d = " M285 105 L281,106 C281,96.1864 268.031,103 263,103 263,98.2515 285,95.8209 285,105  Z"/>

<path  fill="#1C8064" stroke-width="0" stroke="#1C8064" d = " M143 101 C141.576,101 138,101.362 138,103 139.622,103 143,103.461 143,101  Z"/>

<path  fill="#A8AAAA" stroke-width="0" stroke="#A8AAAA" d = " M191 177 L193,177 C193,177 193,173 193,173 192.223,173 191,164.06 191,163 191,155.189 191,148.353 191,141 191,127.58 204,115.178 204,109 204,109 203,109 203,109 201.127,109 175,91.3523 175,106 175,106 185,125.5 185,125.5 188.168,131.836 187,141.415 187,149 187,158.195 190,166.715 190,175 190,175 191,177 191,177  Z"/>

<path  fill="#A8AAAA" stroke-width="0" stroke="#A8AAAA" d = " M264 176 L265,177 C267.109,177 267,174.465 267,173 267,169.834 267.693,167.114 269,164.5 269,164.5 269,147 269,147 269,140.405 268.237,131.026 271,125.5 273.173,121.154 281,110.409 281,106 281,96.1864 268.031,103 263,103 263,105.218 257.856,107 256,107 256,107 254,108 254,108 254,108 253,109 253,109 253,109 252,109 252,109 252,114.016 265,126.56 265,140 266.473,140 266,141.952 266,143 266,143 265,165 265,165 265,166.49 265.735,173 264,173 264,173 264,176 264,176  Z"/>

<path  fill="#1C8064" stroke-width="0" stroke="#1C8064" d = " M138 103 C136.576,103 133,103.362 133,105 134.622,105 138,105.461 138,103  Z"/>

<path  fill="#AAA8A9" stroke-width="0" stroke="#AAA8A9" d = " M263 103 C261.144,103 256,104.782 256,107 257.856,107 263,105.218 263,103  Z"/>

<path  fill="#98D5F9" stroke-width="0" stroke="#98D5F9" d = " M140 229 L127.5,235 L115,235 C111.037,235 103.819,226 101,226 101,226 101,225 101,225 101,225 100,224 100,224 100,224 98,220 98,220 98,220 97,219 97,219 97,219 95,212 95,212 95,212 94,211 94,211 94,211 94,210 94,210 94,210 93,209 93,209 93,209 93,208 93,208 93,206.576 92.6384,203 91,203 91,203 91,202 91,202 91,202 91,201 91,201 91,196.643 88.8912,190.282 87,186.5 87,186.5 87,174 87,174 87,174 87,171 87,171 87,171 88,170 88,170 88,170 88,169 88,169 88,169 88,168 88,168 88,168 89,167 89,167 89,167 89,165 89,165 89,165 90,163 90,163 92.045,163 94.1739,154.152 95,152.5 100.018,142.464 108.091,135.318 113,125.5 114.546,122.407 120.863,118.819 124.5,117 146.45,106.025 145.491,105 171,105 171,105 175,106 175,106 175,106 185,125.5 185,125.5 188.168,131.836 187,141.415 187,149 187,149 182.5,157 182.5,157 166.743,164.879 175,172.553 175,186 175,186 173,210 173,210 173,210 169,213 169,213 169,213 165,213 165,213 165,213 164,214 164,214 164,214 163,215 163,215 163,215 162,215 162,215 162,215 161,216 161,216 161,216 159,217 159,217 156.713,217 151,220.22 151,223 149.762,223 148,223.423 148,225 148,225 144,227 144,227 144,227 140,229 140,229  Z"/>

<path  fill="#98D5F9" stroke-width="0" stroke="#98D5F9" d = " M347 233 C345.576,233 342,233.362 342,235 326.737,235 319.881,230.191 307.5,224 303.464,221.982 299.689,215 295,215 295,215 294,215 294,215 294,215 293,214 293,214 291.436,214 289.124,213 287,213 287,212.724 283.571,208.643 283,207.5 280.925,203.35 284.131,196.763 282,192.5 275.624,179.749 295.102,167.801 273.5,157 273.5,157 269,147 269,147 269,140.405 268.237,131.026 271,125.5 273.173,121.154 281,110.409 281,106 281,106 285,105 285,105 288.701,105 296.448,101.974 300.5,104 300.5,104 323.5,111 323.5,111 328.502,113.501 333.208,118.854 337.5,121 337.5,121 345,127.5 345,127.5 349.95,137.399 358.102,145.705 363,155.5 363.767,157.035 364.845,164 367,164 367,164 367,165 367,165 367,165 368,167 368,167 368,167 368,168 368,168 368,168 369,169 369,169 369,169 369,173 369,173 369,174.048 368.527,176 370,176 370,176 370,177 370,177 370,177 370,179 370,179 370,179 367,196 367,196 367,196 367,197 367,197 365.005,197 365,201.377 365,203 365,203 365,204 365,204 363.362,204 363,207.576 363,209 363,209 363,210 363,210 363,210 362,211 362,211 362,211 362,212 362,212 362,212 361,213 361,213 361,213 361,215 361,215 361,215 360,217 360,217 360,217 359,219 359,219 359,221.83 355,223.54 355,226 355,226 351,230 351,230 349.571,230 347,231.288 347,233  Z"/>

<path  fill="#1C8064" stroke-width="0" stroke="#1C8064" d = " M128 107 L128,108 C128,108 133,105 133,105 131.378,105 128,104.539 128,107  Z"/>

<path  fill="#187D62" stroke-width="0" stroke="#187D62" d = " M95 107 L96,107 C96,108.186 95,108.186 95,107  Z"/>

<path  fill="#188064" stroke-width="0" stroke="#188064" d = " M127 108 C127,110.314 122.738,111 121,111 121,111 126,107 126,107 126,107 127,107 127,107 127,107 127,108 127,108  Z"/>

<path  fill="#1A7D63" stroke-width="0" stroke="#1A7D63" d = " M127 108 L128,108 C128,108 128,107 128,107 128,107 127,107 127,107 127,107 127,108 127,108  Z"/>

<path  fill="#AAA8A9" stroke-width="0" stroke="#AAA8A9" d = " M256 107 L254,108 C254,108 256,107 256,107  Z"/>

<path  fill="#1A7D63" stroke-width="0" stroke="#1A7D63" d = " M330 107 L329,108 C329,108 329,107 329,107 329,107 330,107 330,107  Z"/>

<path  fill="#188064" stroke-width="0" stroke="#188064" d = " M361 147 L363,147 C363,147 363,146 363,146 363,146 357,134.5 357,134.5 354.448,129.395 336.146,107 330,107 330,107 329,108 329,108 329,109.272 336.481,112.981 338,114.5 343.021,119.521 357,132.004 357,139 357,139 357,140 357,140 358.948,140 361,145.428 361,147  Z"/>

<path  fill="#1B7E63" stroke-width="0" stroke="#1B7E63" d = " M387 132 C383.61,132 381.379,137 378,137 376.557,137 373.805,127.111 373,125.5 370.865,121.231 369.118,116.736 367,112.5 367,112.5 363,108 363,108 363,106.751 375.866,113 378,113 378,113 379,114 379,114 379,114 387,131 387,131 387,131 387,132 387,132  Z"/>

<path  fill="#1B7E63" stroke-width="0" stroke="#1B7E63" d = " M93 108 L92,109 C92,109 93,108 93,108  Z"/>

<path  fill="#AAA8A9" stroke-width="0" stroke="#AAA8A9" d = " M254 108 L253,109 C253,109 254,108 254,108  Z"/>

<path  fill="#1B7E63" stroke-width="0" stroke="#1B7E63" d = " M69 132 L79,137 C79,129.713 92,113.761 92,109 86.5848,109 82.1131,113 79,113 79,113 78,114 78,114 78,114 77,114 77,114 77,120.135 69,125.013 69,131 69,131 69,132 69,132  Z"/>

<path  fill="#90CBEC" stroke-width="0" stroke="#90CBEC" d = " M223 115 L216.5,123 C213.294,126.206 194.43,141 191,141 191,127.58 204,115.178 204,109 210.39,109 216.904,114 222,114 222,114 223,115 223,115  Z"/>

<path  fill="#90CBEC" stroke-width="0" stroke="#90CBEC" d = " M265 140 L265,141 C261.183,141 259.667,136.583 256.5,135 250.77,132.135 234,120.008 234,115 234,115 234,114 234,114 239.826,114 245.569,109 252,109 252,114.016 265,126.56 265,140  Z"/>

<path  fill="#188064" stroke-width="0" stroke="#188064" d = " M121 111 C118.774,111 117,112.774 117,115 117,115 121,111 121,111  Z"/>

<path  fill="#197E62" stroke-width="0" stroke="#197E62" d = " M79 113 L78,114 C78,114 79,113 79,113  Z"/>

<path  fill="#1B7F62" stroke-width="0" stroke="#1B7F62" d = " M63 128 L69,131 C69,125.013 77,120.135 77,114 74.0145,114 70.8491,118 67,118 67,118 67,119 67,119 67,119 63,127 63,127 63,127 63,128 63,128  Z"/>

<path  fill="#97D6F9" stroke-width="0" stroke="#97D6F9" d = " M223 115 L225,115 C225,113.527 223.048,114 222,114 222,114 223,115 223,115  Z"/>

<path  fill="#97D6F9" stroke-width="0" stroke="#97D6F9" d = " M227 115 C227.839,115 229,113.07 229,115 229,117.488 227,116.919 227,115  Z"/>

<path  fill="#97D6F9" stroke-width="0" stroke="#97D6F9" d = " M232 115 L234,115 C234,115 234,114 234,114 234,114 232,115 232,115  Z"/>

<path  fill="#1B7F62" stroke-width="0" stroke="#1B7F62" d = " M393 128 L387,131 C387,131 379,114 379,114 379,114 389,119 389,119 389,119 390,119 390,119 390,120.654 391.198,127 393,127 393,127 393,128 393,128  Z"/>

<path  fill="#188064" stroke-width="0" stroke="#188064" d = " M115 117 L117,117 C117,117 117,115 117,115 115.253,115 115,115.253 115,117  Z"/>

<path  fill="#90CAED" stroke-width="0" stroke="#90CAED" d = " M194 169 L195,169 C195,169 199,164.5 199,164.5 200.399,161.702 204.702,146 209,146 209,146 209,145 209,145 209,145 210,144 210,144 210,144 211,143 211,143 211,143 212,142 212,142 212,142 213,141 213,141 213,141 221,132.5 221,132.5 221,132.5 227,123.5 227,123.5 227,123.5 227.5,121 227.5,121 228.439,120.531 233.351,129.203 234,130.5 236.094,134.687 243,137.046 243,141 243,141 246,144 246,144 251.876,144 255.994,165.247 259.5,167 263.919,169.21 261.648,165 265,165 265,165 266,143 266,143 266,143 265,141 265,141 261.183,141 259.667,136.583 256.5,135 250.77,132.135 234,120.008 234,115 234,115 232,115 232,115 232,115 229,115 229,115 229,117.488 227,116.919 227,115 227,115 225,115 225,115 225,115 223,115 223,115 223,115 216.5,123 216.5,123 213.294,126.206 194.43,141 191,141 191,148.353 191,155.189 191,163 191,163 194,169 194,169  Z"/>

<path  fill="#188064" stroke-width="0" stroke="#188064" d = " M112 119 L115,119 C115,119 115,117 115,117 113.762,117 112,117.423 112,119  Z"/>

<path  fill="#C9C9CA" stroke-width="0" stroke="#C9C9CA" d = " M117 117 C117,118.747 116.747,119 115,119 115,119 115,117 115,117 115,117 117,117 117,117  Z"/>

<path  fill="#1A7E62" stroke-width="0" stroke="#1A7E62" d = " M40 177 L44,177 C44,168.052 43.594,148.312 47,141.5 48.5208,138.458 55,124.607 55,122 55,122 55,121 55,121 52.4822,121 52.666,118 50,118 50,118 44,132.5 44,132.5 40.3191,139.862 39,153.441 39,162 39,164.075 38.2027,177 40,177  Z"/>

<path  fill="#1A7E62" stroke-width="0" stroke="#1A7E62" d = " M412 177 L417,177 C417,160.763 417.727,143.955 411,130.5 410.112,128.725 407.907,118 406,118 404.053,118 403.364,121 401,121 401,121 401,122 401,122 403.031,122 405.117,131.733 406,133.5 412.439,146.379 412,162.685 412,177  Z"/>

<path  fill="#1A7E64" stroke-width="0" stroke="#1A7E64" d = " M57 122 L63,127 C63,127 67,119 67,119 62.7309,119 61.2691,122 57,122  Z"/>

<path  fill="#188064" stroke-width="0" stroke="#188064" d = " M112 119 L111,120 C111,120 112,119 112,119  Z"/>

<path  fill="#C9C9CA" stroke-width="0" stroke="#C9C9CA" d = " M111 120 L111,123 C112.797,123 115,120.797 115,119 115,119 112,119 112,119 112,119 111,120 111,120  Z"/>

<path  fill="#1A7E64" stroke-width="0" stroke="#1A7E64" d = " M399 122 L393,127 C391.198,127 390,120.654 390,119 394.444,119 394.615,122 399,122  Z"/>

<path  fill="#188064" stroke-width="0" stroke="#188064" d = " M94 147 L95,147 C95,147 96,146 96,146 96,146 97,144 97,144 97,144 98,142 98,142 98,142 99,140 99,140 99,138.762 99.4226,137 101,137 101,134.15 107.414,123 111,123 111,123 111,120 111,120 108.01,120 94,143.702 94,147  Z"/>

<path  fill="#8FCBEC" stroke-width="0" stroke="#8FCBEC" d = " M243 174 C243,175.72 243.659,185 245,185 245,178.533 264,161.926 264,173 265.735,173 265,166.49 265,165 261.648,165 263.919,169.21 259.5,167 255.994,165.247 251.876,144 246,144 246,145.423 247.978,147.544 247,149.5 243.24,157.019 232.697,140 241.5,140 241.5,140 243,141 243,141 243,137.046 236.094,134.687 234,130.5 233.351,129.203 228.439,120.531 227.5,121 227.5,121 227,123.5 227,123.5 227,123.5 221,132.5 221,132.5 221,132.5 213,141 213,141 227.063,141 209,159.738 209,146 204.702,146 200.399,161.702 199,164.5 199,164.5 195,169 195,169 200.495,169 205.611,176.111 209.5,180 209.5,180 212,185 212,185 212,181.469 213,177.107 213,173 209.693,173 207.689,166.122 209,163.5 211.213,159.074 224.281,145.89 230.5,149 237.268,152.384 243.754,157.007 247,163.5 248.521,166.541 246.053,174 243,174  Z"/>

<path  fill="#1B8063" stroke-width="0" stroke="#1B8063" d = " M53 176 C49.7778,176 46.7232,177 44,177 44,168.052 43.594,148.312 47,141.5 48.5208,138.458 55,124.607 55,122 55,122 57,122 57,122 57,122 63,127 63,127 63,127 63,128 63,128 63,128 57,144.5 57,144.5 52.7602,152.98 53,165.846 53,176  Z"/>

<path  fill="#1B8063" stroke-width="0" stroke="#1B8063" d = " M403 176 C406.013,176 409.611,177 412,177 412,162.685 412.439,146.379 406,133.5 405.117,131.733 403.031,122 401,122 401,122 399,122 399,122 399,122 393,127 393,127 393,127 393,128 393,128 393,128 399,142.5 399,142.5 402.601,149.701 403,166.705 403,176  Z"/>

<path  fill="#C9C9CA" stroke-width="0" stroke="#C9C9CA" d = " M111 123 C107.414,123 101,134.15 101,137 102.36,137 111,124.777 111,123  Z"/>

<path  fill="#187C63" stroke-width="0" stroke="#187C63" d = " M58 175 L59,175 C59,165.622 59.092,154.316 63,146.5 63,146.5 69,132 69,132 69,132 69,131 69,131 69,131 63,128 63,128 63,128 57,144.5 57,144.5 52.7602,152.98 53,165.846 53,176 53,176 58,175 58,175  Z"/>

<path  fill="#187C63" stroke-width="0" stroke="#187C63" d = " M398 175 L403,176 C403,166.705 402.601,149.701 399,142.5 399,142.5 393,128 393,128 393,128 387,131 387,131 387,131 387,132 387,132 389.076,132 390.216,139.932 391,141.5 395.713,150.927 398,163.783 398,175  Z"/>

<path  fill="#1C8063" stroke-width="0" stroke="#1C8063" d = " M59 175 L71,175 C71,164.794 71.7523,153.995 76,145.5 76.6359,144.228 77.4498,138 79,138 79,138 79,137 79,137 79,137 69,132 69,132 69,132 63,146.5 63,146.5 59.092,154.316 59,165.622 59,175  Z"/>

<path  fill="#1C8063" stroke-width="0" stroke="#1C8063" d = " M385 175 L398,175 C398,163.783 395.713,150.927 391,141.5 390.216,139.932 389.076,132 387,132 383.61,132 381.379,137 378,137 378,137 378,138 378,138 378,141.935 381.287,147.075 383,150.5 385.119,154.738 385,169.225 385,175  Z"/>

<path  fill="#C9C9CA" stroke-width="0" stroke="#C9C9CA" d = " M101 137 C99.4226,137 99,138.762 99,140 100.577,140 101,138.238 101,137  Z"/>

<path  fill="#197D63" stroke-width="0" stroke="#197D63" d = " M71 175 L85,175 C85,165.181 93,156.278 93,147 93,142.41 79,141.476 79,138 77.4498,138 76.6359,144.228 76,145.5 71.7523,153.995 71,164.794 71,175  Z"/>

<path  fill="#197D63" stroke-width="0" stroke="#197D63" d = " M372 175 L385,175 C385,169.225 385.119,154.738 383,150.5 381.287,147.075 378,141.935 378,138 378,138 363,146 363,146 363,146 363,147 363,147 363,152.993 371,166.068 371,175 371,175 372,175 372,175  Z"/>

<path  fill="#C9C9CA" stroke-width="0" stroke="#C9C9CA" d = " M99 140 L98,142 C98,142 99,140 99,140  Z"/>

<path  fill="#CBC8CB" stroke-width="0" stroke="#CBC8CB" d = " M209 145 L209,146 C209,159.738 227.063,141 213,141 213,141 212,142 212,142 212,142 211,143 211,143 211,143 210,144 210,144 210,144 209,145 209,145  Z"/>

<path  fill="#CBC8CB" stroke-width="0" stroke="#CBC8CB" d = " M243 141 L246,144 C246,145.423 247.978,147.544 247,149.5 243.24,157.019 232.697,140 241.5,140 241.5,140 243,141 243,141  Z"/>

<path  fill="#97D6F9" stroke-width="0" stroke="#97D6F9" d = " M265 141 L266,143 C266,141.952 266.473,140 265,140 265,140 265,141 265,141  Z"/>

<path  fill="#C9C9CA" stroke-width="0" stroke="#C9C9CA" d = " M357 140 C358.948,140 361,145.428 361,147 361,147 357,140 357,140  Z"/>

<path  fill="#8FCBEC" stroke-width="0" stroke="#8FCBEC" d = " M213 141 L212,142 C212,142 213,141 213,141  Z"/>

<path  fill="#C9C9CA" stroke-width="0" stroke="#C9C9CA" d = " M98 142 L97,144 C97,144 98,142 98,142  Z"/>

<path  fill="#8FCBEC" stroke-width="0" stroke="#8FCBEC" d = " M212 142 L211,143 C211,143 212,142 212,142  Z"/>

<path  fill="#8FCBEC" stroke-width="0" stroke="#8FCBEC" d = " M211 143 L210,144 C210,144 211,143 211,143  Z"/>

<path  fill="#C9C9CA" stroke-width="0" stroke="#C9C9CA" d = " M97 144 L96,146 C96,146 97,144 97,144  Z"/>

<path  fill="#8FCBEC" stroke-width="0" stroke="#8FCBEC" d = " M210 144 L209,145 C209,145 210,144 210,144  Z"/>

<path  fill="#C9C9CA" stroke-width="0" stroke="#C9C9CA" d = " M95 147 L95,148 C95,148 96,146 96,146 96,146 95,147 95,147  Z"/>

<path  fill="#1A8061" stroke-width="0" stroke="#1A8061" d = " M85 175 L86,175 C86,175 87,174 87,174 87,174 87,171 87,171 87,171 87,170 87,170 87,170 88,169 88,169 88,169 88,168 88,168 88,168 89,167 89,167 89,167 89,165 89,165 89,165 90,163 90,163 90,163 91,157 91,157 91,157 92,156 92,156 92,156 92,155 92,155 92,155 93,153 93,153 93,151.952 92.5271,150 94,150 94,150 95,149 95,149 95,149 95,148 95,148 95,148 95,147 95,147 95,147 94,147 94,147 94,147 93,147 93,147 93,156.278 85,165.181 85,175  Z"/>

<path  fill="#97D6F9" stroke-width="0" stroke="#97D6F9" d = " M285 213 L287,213 C287,212.724 283.571,208.643 283,207.5 280.925,203.35 284.131,196.763 282,192.5 275.624,179.749 295.102,167.801 273.5,157 273.5,157 269,147 269,147 269,147 269,164.5 269,164.5 267.693,167.114 267,169.834 267,173 269.296,173 271.877,173 274,173 274,173 275,174 275,174 275,174 275,175 275,175 275,175 277,175 277,175 277,174.323 279.296,170.093 280,171.5 280.335,172.171 281,198.848 281,203 283.064,203 281.426,206.353 282,207.5 282,207.5 285,213 285,213  Z"/>

<path  fill="#1A8061" stroke-width="0" stroke="#1A8061" d = " M370 175 L371,175 C371,166.068 363,152.993 363,147 363,147 361,147 361,147 361,147 361,148 361,148 362.577,148 363,149.762 363,151 363,151 363,152 363,152 364.014,152 365,155.959 365,157 365,157 365,158 365,158 365,158 366,159 366,159 366,159 367,164 367,164 367,164 367,165 367,165 367,165 368,167 368,167 368,167 368,168 368,168 368,168 369,169 369,169 369,169 369,173 369,173 369,173 370,175 370,175  Z"/>

<path  fill="#C9C9CA" stroke-width="0" stroke="#C9C9CA" d = " M361 148 C362.577,148 363,149.762 363,151 363,151 361,148 361,148  Z"/>

<path  fill="#C9C9CA" stroke-width="0" stroke="#C9C9CA" d = " M95 149 L94,150 C94,150 95,149 95,149  Z"/>

<path  fill="#97D6F9" stroke-width="0" stroke="#97D6F9" d = " M176 200 C173.964,200 175.464,210 173,210 173,210 175,186 175,186 175,172.553 166.743,164.879 182.5,157 182.5,157 187,149 187,149 187,158.195 190,166.715 190,175 190,175 187.5,172 187.5,172 186.07,171.285 182,172.722 182,174 182,174 179,176 179,176 179,175.011 179.189,172 177.5,172 177.5,172 177,179.5 177,179.5 177,186.45 176,192.927 176,200  Z"/>

<path  fill="#96A7D2" stroke-width="0" stroke="#96A7D2" d = " M229 175 L231,177 C234.08,177 243,164.011 243,174 246.053,174 248.521,166.541 247,163.5 243.754,157.007 237.268,152.384 230.5,149 224.281,145.89 211.213,159.074 209,163.5 207.689,166.122 209.693,173 213,173 213,164.832 223.596,177 225,177 225,177 227,175 227,175 227,173.081 229,172.512 229,175  Z"/>

<path  fill="#C9C9CA" stroke-width="0" stroke="#C9C9CA" d = " M94 150 C92.5271,150 93,151.952 93,153 94.4729,153 94,151.048 94,150  Z"/>

<path  fill="#C9C9CA" stroke-width="0" stroke="#C9C9CA" d = " M363 152 C364.014,152 365,155.959 365,157 363.362,157 363,153.424 363,152  Z"/>

<path  fill="#C9C9CA" stroke-width="0" stroke="#C9C9CA" d = " M93 153 L92,155 C92,155 93,153 93,153  Z"/>

<path  fill="#C9C9CA" stroke-width="0" stroke="#C9C9CA" d = " M92 156 L91,157 C91,157 92,156 92,156  Z"/>

<path  fill="#C9C9CA" stroke-width="0" stroke="#C9C9CA" d = " M365 158 L366,159 C366,159 365,158 365,158  Z"/>

<path  fill="#C9C7C9" stroke-width="0" stroke="#C9C7C9" d = " M90 163 L89,165 C89,165 90,163 90,163  Z"/>

<path  fill="#8FCBEC" stroke-width="0" stroke="#8FCBEC" d = " M194 169 L193,173 C192.223,173 191,164.06 191,163 191,163 194,169 194,169  Z"/>

<path  fill="#C9C7C9" stroke-width="0" stroke="#C9C7C9" d = " M367 165 L368,167 C368,167 367,165 367,165  Z"/>

<path  fill="#C9C7C9" stroke-width="0" stroke="#C9C7C9" d = " M89 167 L88,168 C88,168 89,167 89,167  Z"/>

<path  fill="#C9C7C9" stroke-width="0" stroke="#C9C7C9" d = " M368 168 L369,169 C369,169 368,168 368,168  Z"/>

<path  fill="#C9C7C9" stroke-width="0" stroke="#C9C7C9" d = " M87 170 L88,170 C88,170 88,169 88,169 88,169 87,170 87,170  Z"/>

<path  fill="#8FCBED" stroke-width="0" stroke="#8FCBED" d = " M212 187 L211,189 C208.741,189 205.849,192.675 202.5,191 202.5,191 198,186 198,186 198,186 197,184 197,184 197,181.54 193,179.83 193,177 193,177 193,173 193,173 193,173 194,169 194,169 194,169 195,169 195,169 200.495,169 205.611,176.111 209.5,180 209.5,180 212,185 212,185 212,185 212,187 212,187  Z"/>

<path  fill="#8FCBED" stroke-width="0" stroke="#8FCBED" d = " M245 189 C247.259,189 250.151,192.675 253.5,191 L256,189 C256,189 257,188 257,188 257,188 258,187 258,187 258,187 258,186 258,186 258,186 259,185 259,185 259,185 261,182 261,182 261,182 262,181 262,181 262,179.959 262.986,176 264,176 264,176 264,173 264,173 264,161.926 245,178.533 245,185 245,185 245,189 245,189  Z"/>

<path  fill="#C8CBCC" stroke-width="0" stroke="#C8CBCC" d = " M88 170 L87,171 C87,171 87,170 87,170 87,170 88,170 88,170  Z"/>

<path  fill="#C7C8CA" stroke-width="0" stroke="#C7C8CA" d = " M223 194 L218.5,198 L213,197 C213,194.115 211,192.303 211,189 211,189 212,187 212,187 212,187 212,185 212,185 212,181.469 213,177.107 213,173 213,164.832 223.596,177 225,177 225,177 225,185 225,185 225,185 225,187 225,187 223.421,187 224,189.855 224,191 222.527,191 223,192.952 223,194  Z"/>

<path  fill="#C7C8CA" stroke-width="0" stroke="#C7C8CA" d = " M245 189 C245,192.354 243,194.291 243,197 243,197 238.5,198 238.5,198 231.768,194.634 231,184.008 231,177 234.08,177 243,164.011 243,174 243,175.72 243.659,185 245,185 245,185 245,189 245,189  Z"/>

<path  fill="#CCCCCC" stroke-width="0" stroke="#CCCCCC" d = " M277 193 C279.319,193 277.982,203 281,203 281,198.848 280.335,172.171 280,171.5 279.296,170.093 277,174.323 277,175 277,175 277,189 277,189 277,189 277,193 277,193  Z"/>

<path  fill="#CCCCCC" stroke-width="0" stroke="#CCCCCC" d = " M180 187 C179.687,187 176,208.492 176,200 176,192.927 177,186.45 177,179.5 177,179.5 177.5,172 177.5,172 179.189,172 179,175.011 179,176 179,176 180,185 180,185 180,185 180,187 180,187  Z"/>

<path  fill="#B3C0DE" stroke-width="0" stroke="#B3C0DE" d = " M178 218 L177,223.5 C181.164,231.827 190.332,233 199,233 199,231.78 207.626,228.249 209,225.5 210.807,221.887 209,219.695 209,216 206.993,216 196.029,215.558 195,213.5 193.351,210.202 203.224,203 206,203 206,203 205,199 205,199 205,194.018 198,190.524 198,186 198,186 197,184 197,184 194.976,184 191,178.171 191,177 191,177 190,175 190,175 190,175 187.5,172 187.5,172 186.07,171.285 182,172.722 182,174 182,175.116 180.766,185 180,185 180,185 180,187 180,187 180,197.699 178,206.939 178,218  Z"/>

<path  fill="#B3C0DE" stroke-width="0" stroke="#B3C0DE" d = " M247 216 C247,226.069 247.729,228.114 257.5,233 265.437,236.969 279,227.786 279,220 279,210.208 277,202.3 277,193 277,193 277,189 277,189 275.165,189 275,177.24 275,175 275,175 275,174 275,174 275,174 274,173 274,173 271.877,173 269.296,173 267,173 267,174.465 267.109,177 265,177 265,178.429 263.712,181 262,181 262,181 261,182 261,182 261,182 259,185 259,185 259,185 258,186 258,186 258,186 258,187 258,187 258,187 257,188 257,188 257,188 256,189 256,189 256,192.294 252,194.341 252,198 252,198 251,199 251,199 251,199 251,203 251,203 254.168,203 263.128,210.245 261,214.5 260.643,215.214 247.999,216 247,216  Z"/>

<path  fill="#FF5445" stroke-width="0" stroke="#FF5445" d = " M224 191 C224,192.048 224.473,194 223,194 223,197.156 231.62,199.26 233,196.5 233.961,194.579 229,178.396 229,175 229,172.512 227,173.081 227,175 227,176.495 226.16,185 225,185 225,185 225,187 225,187 225,188.145 225.579,191 224,191  Z"/>

<path  fill="#8599CC" stroke-width="0" stroke="#8599CC" d = " M274 173 L275,174 C275,174 274,173 274,173  Z"/>

<path  fill="#C8CBCC" stroke-width="0" stroke="#C8CBCC" d = " M370 175 L370,176 C368.527,176 369,174.048 369,173 369,173 370,175 370,175  Z"/>

<path  fill="#C8CBCC" stroke-width="0" stroke="#C8CBCC" d = " M90 201 L91,201 C91,196.643 88.8912,190.282 87,186.5 87,186.5 87,174 87,174 87,174 86,175 86,175 86,175 86,177 86,177 86,181.725 87,186.879 87,191 87,191 90,201 90,201  Z"/>

<path  fill="#8599CC" stroke-width="0" stroke="#8599CC" d = " M179 176 L180,185 C180.766,185 182,175.116 182,174 182,174 179,176 179,176  Z"/>

<path  fill="#11AC82" stroke-width="0" stroke="#11AC82" d = " M58 183 L54,185 C54,185 53,176 53,176 53,176 58,175 58,175 58,175 58,183 58,183  Z"/>

<path  fill="#12AD82" stroke-width="0" stroke="#12AD82" d = " M58 183 L59,183 C62.9557,183 66.497,181 71,181 71,181 71,180 71,180 71,180 71,175 71,175 71,175 59,175 59,175 59,175 58,175 58,175 58,175 58,183 58,183  Z"/>

<path  fill="#11AC83" stroke-width="0" stroke="#11AC83" d = " M85 178 C79.7198,178 76.0296,180 71,180 71,180 71,175 71,175 71,175 85,175 85,175 85,175 85,177 85,177 85,177 85,178 85,178  Z"/>

<path  fill="#11AD82" stroke-width="0" stroke="#11AD82" d = " M85 177 L86,177 C86,177 86,175 86,175 86,175 85,175 85,175 85,175 85,177 85,177  Z"/>

<path  fill="#CAC7CB" stroke-width="0" stroke="#CAC7CB" d = " M225 177 L225,185 C226.16,185 227,176.495 227,175 227,175 225,177 225,177  Z"/>

<path  fill="#CAC7CB" stroke-width="0" stroke="#CAC7CB" d = " M206 203 L213.5,200 C215.297,199.102 236.337,197.919 238.5,199 L251,203 C251,203 251,199 251,199 249.449,199 243,201.386 243,197 243,197 238.5,198 238.5,198 231.768,194.634 231,184.008 231,177 231,177 229,175 229,175 229,178.396 233.961,194.579 233,196.5 231.62,199.26 223,197.156 223,194 223,194 218.5,198 218.5,198 218.5,198 213,197 213,197 213,201.386 206.551,199 205,199 205,199 206,203 206,203  Z"/>

<path  fill="#8599CC" stroke-width="0" stroke="#8599CC" d = " M277 175 L277,189 C275.165,189 275,177.24 275,175 275,175 277,175 277,175  Z"/>

<path  fill="#11AD82" stroke-width="0" stroke="#11AD82" d = " M370 177 L372,178 C372,178 372,175 372,175 372,175 371,175 371,175 371,175 370,175 370,175 370,175 370,176 370,176 370,176 370,177 370,177  Z"/>

<path  fill="#11AC83" stroke-width="0" stroke="#11AC83" d = " M372 178 C377.334,178 380.902,180 385,180 385,180 385,175 385,175 385,175 372,175 372,175 372,175 372,178 372,178  Z"/>

<path  fill="#12AD82" stroke-width="0" stroke="#12AD82" d = " M385 180 L398,183 C398,183 398,175 398,175 398,175 385,175 385,175 385,175 385,180 385,180  Z"/>

<path  fill="#11AC82" stroke-width="0" stroke="#11AC82" d = " M398 184 L402,185 C402,182.611 403,179.013 403,176 403,176 398,175 398,175 398,175 398,183 398,183 398,183 398,184 398,184  Z"/>

<path  fill="#12AC83" stroke-width="0" stroke="#12AC83" d = " M46 188 L47,188 C47,187.714 53.3019,185 54,185 54,185 53,176 53,176 49.7778,176 46.7232,177 44,177 44,177 46,188 46,188  Z"/>

<path  fill="#97D6F9" stroke-width="0" stroke="#97D6F9" d = " M265 177 C265,178.429 263.712,181 262,181 262,179.959 262.986,176 264,176 264,176 265,177 265,177  Z"/>

<path  fill="#12AC83" stroke-width="0" stroke="#12AC83" d = " M402 185 L410,188 C410,184.622 412,181.078 412,177 409.611,177 406.013,176 403,176 403,179.013 402,182.611 402,185  Z"/>

<path  fill="#12AD83" stroke-width="0" stroke="#12AD83" d = " M46 188 L43,190 C40.685,190 40,179.343 40,177 40,177 44,177 44,177 44,177 46,188 46,188  Z"/>

<path  fill="#019C74" stroke-width="0" stroke="#019C74" d = " M86 191 L87,191 C87,186.879 86,181.725 86,177 86,177 85,177 85,177 85,177 85,178 85,178 85,182.284 86,187.371 86,191  Z"/>

<path  fill="#97D6F9" stroke-width="0" stroke="#97D6F9" d = " M193 177 C193,179.83 197,181.54 197,184 194.976,184 191,178.171 191,177 191,177 193,177 193,177  Z"/>

<path  fill="#019C74" stroke-width="0" stroke="#019C74" d = " M369 191 L371,191 C371,191 372,178 372,178 372,178 370,177 370,177 370,177 370,179 370,179 372.407,179 369,189.494 369,191  Z"/>

<path  fill="#12AD83" stroke-width="0" stroke="#12AD83" d = " M410 188 L414,189 C415.485,189 417,178.87 417,177 417,177 412,177 412,177 412,181.078 410,184.622 410,188  Z"/>

<path  fill="#009B74" stroke-width="0" stroke="#009B74" d = " M74 195 L75,195 C75,194.147 81.031,193 82,193 83.2404,193 83.5759,191 86,191 86,187.371 85,182.284 85,178 79.7198,178 76.0296,180 71,180 71,180 71,181 71,181 71,181 74,195 74,195  Z"/>

<path  fill="#009B74" stroke-width="0" stroke="#009B74" d = " M374 193 L382,195 C382,190.195 385,185.543 385,180 380.902,180 377.334,178 372,178 372,178 371,191 371,191 372.238,191 374,191.423 374,193  Z"/>

<path  fill="#C8CBCC" stroke-width="0" stroke="#C8CBCC" d = " M369 191 C369,192.424 368.638,196 367,196 367,196 370,179 370,179 372.407,179 369,189.494 369,191  Z"/>

<path  fill="#019C75" stroke-width="0" stroke="#019C75" d = " M382 195 L395,196 C395,192.592 398,188.012 398,184 398,184 398,183 398,183 398,183 385,180 385,180 385,185.543 382,190.195 382,195  Z"/>

<path  fill="#019C75" stroke-width="0" stroke="#019C75" d = " M74 195 L61,196 C61,192.136 59,187.791 59,183 62.9557,183 66.497,181 71,181 71,181 74,195 74,195  Z"/>

<path  fill="#97D6F9" stroke-width="0" stroke="#97D6F9" d = " M262 181 L261,182 C261,182 262,181 262,181  Z"/>

<path  fill="#009C74" stroke-width="0" stroke="#009C74" d = " M61 196 L59,197 C59,193.646 54,189.145 54,185 54,185 58,183 58,183 58,183 59,183 59,183 59,187.791 61,192.136 61,196  Z"/>

<path  fill="#009C74" stroke-width="0" stroke="#009C74" d = " M395 196 L398,197 C398,193.104 402,189.56 402,185 402,185 398,184 398,184 398,188.012 395,192.592 395,196  Z"/>

<path  fill="#009B75" stroke-width="0" stroke="#009B75" d = " M59 197 L51,199 C51,195.105 47,192.599 47,188 47,187.714 53.3019,185 54,185 54,189.145 59,193.646 59,197  Z"/>

<path  fill="#97D6F9" stroke-width="0" stroke="#97D6F9" d = " M259 185 L258,186 C258,186 259,185 259,185  Z"/>

<path  fill="#009B75" stroke-width="0" stroke="#009B75" d = " M405 199 L406,199 C406,199 410,188 410,188 410,188 402,185 402,185 402,189.56 398,193.104 398,197 398,197 405,199 405,199  Z"/>

<path  fill="#97D6F9" stroke-width="0" stroke="#97D6F9" d = " M213 197 C213,201.386 206.551,199 205,199 205,194.018 198,190.524 198,186 198,186 202.5,191 202.5,191 205.849,192.675 208.741,189 211,189 211,192.303 213,194.115 213,197  Z"/>

<path  fill="#8599CC" stroke-width="0" stroke="#8599CC" d = " M169 222 L173,223 C176.448,223 175.91,218 178,218 178,206.939 180,197.699 180,187 179.687,187 176,208.492 176,200 173.964,200 175.464,210 173,210 173,210 172,213 172,213 172,214.284 175.47,215.561 174,218.5 174,218.5 169,222 169,222  Z"/>

<path  fill="#97D6F9" stroke-width="0" stroke="#97D6F9" d = " M212 187 L211,189 C211,189 212,187 212,187  Z"/>

<path  fill="#CAC7CB" stroke-width="0" stroke="#CAC7CB" d = " M225 187 C223.421,187 224,189.855 224,191 225.579,191 225,188.145 225,187  Z"/>

<path  fill="#97D6F9" stroke-width="0" stroke="#97D6F9" d = " M258 187 L257,188 C257,188 258,187 258,187  Z"/>

<path  fill="#009C75" stroke-width="0" stroke="#009C75" d = " M51 200 L47,201 C47,197.386 43,194.101 43,190 43,190 46,188 46,188 46,188 47,188 47,188 47,192.599 51,195.105 51,199 51,199 51,200 51,200  Z"/>

<path  fill="#97D6F9" stroke-width="0" stroke="#97D6F9" d = " M257 188 L256,189 C256,189 257,188 257,188  Z"/>

<path  fill="#009C75" stroke-width="0" stroke="#009C75" d = " M406 199 L409,201 C410.977,201 414,191.008 414,189 414,189 410,188 410,188 410,188 406,199 406,199  Z"/>

<path  fill="#97D6F9" stroke-width="0" stroke="#97D6F9" d = " M252 198 L251,199 C249.449,199 243,201.386 243,197 243,194.291 245,192.354 245,189 247.259,189 250.151,192.675 253.5,191 253.5,191 256,189 256,189 256,192.294 252,194.341 252,198  Z"/>

<path  fill="#8ADA86" stroke-width="0" stroke="#8ADA86" d = " M91 207 L88,208 C80.3964,208 82,197.486 82,193 83.2404,193 83.5759,191 86,191 86,191 87,191 87,191 87,191 90,201 90,201 90,201 91,202 91,202 91,202 91,203 91,203 91,203 91,206 91,206 91,206 91,207 91,207  Z"/>

<path  fill="#CAC7CB" stroke-width="0" stroke="#CAC7CB" d = " M224 191 C222.527,191 223,192.952 223,194 224.473,194 224,192.048 224,191  Z"/>

<path  fill="#8ADA86" stroke-width="0" stroke="#8ADA86" d = " M365 207 L369,208 C376.288,208 374,197.394 374,193 374,191.423 372.238,191 371,191 371,191 369,191 369,191 369,192.424 368.638,196 367,196 367,196 367,197 367,197 367,198.357 366.353,203 365,203 365,203 365,204 365,204 365,204 365,207 365,207  Z"/>

<path  fill="#209766" stroke-width="0" stroke="#209766" d = " M82 213 L84,213 C84,210.187 88,209.539 88,208 80.3964,208 82,197.486 82,193 81.031,193 75,194.147 75,195 75,201.641 82,206.665 82,213  Z"/>

<path  fill="#8599CC" stroke-width="0" stroke="#8599CC" d = " M288 222 L283,223 C280.382,223 281.349,220 279,220 279,210.208 277,202.3 277,193 279.319,193 277.982,203 281,203 283.064,203 281.426,206.353 282,207.5 282,207.5 285,213 285,213 283.127,213 280.934,215.369 282,217.5 282,217.5 288,222 288,222  Z"/>

<path  fill="#209766" stroke-width="0" stroke="#209766" d = " M372 212 L374,213 C374,213 382,195 382,195 382,195 374,193 374,193 374,197.394 376.288,208 369,208 369,208 372,212 372,212  Z"/>

<path  fill="#219864" stroke-width="0" stroke="#219864" d = " M80 215 L75,216 C75,212.592 61,201.805 61,196 61,196 74,195 74,195 74,195 75,195 75,195 75,201.641 82,206.665 82,213 82,213 80,215 80,215  Z"/>

<path  fill="#219864" stroke-width="0" stroke="#219864" d = " M377 215 L381,216 C381,213.854 395,202.386 395,196 395,196 382,195 382,195 382,195 374,213 374,213 374,213 377,215 377,215  Z"/>

<path  fill="#209865" stroke-width="0" stroke="#209865" d = " M75 216 C75,216.473 66.2165,220 65,220 65,217.57 51,204.765 51,200 51,200 51,199 51,199 51,199 59,197 59,197 59,197 61,196 61,196 61,201.805 75,212.592 75,216  Z"/>

<path  fill="#209865" stroke-width="0" stroke="#209865" d = " M381 216 L391,220 C393.238,220 405,201.611 405,199 405,199 398,197 398,197 398,197 395,196 395,196 395,202.386 381,213.854 381,216  Z"/>

<path  fill="#C8CBCC" stroke-width="0" stroke="#C8CBCC" d = " M367 197 C365.005,197 365,201.377 365,203 366.353,203 367,198.357 367,197  Z"/>

<path  fill="#CAC7CB" stroke-width="0" stroke="#CAC7CB" d = " M252 198 L251,199 C251,199 252,198 252,198  Z"/>

<path  fill-rule="evenodd" fill="#C9C9C9" stroke-width="0" stroke="#C9C9C9" d = " M225 200 C225,200.148 213.251,204 212,204 L207,204.5 L212,208.5 C216.322,217.144 234.023,217.238 242.5,213 L245,207.5 L249,204.5 L237.5,202 C233.982,200.241 229.211,200 225,200  M232 217 L234,217 C237.629,217 242.716,216 247,216 247.999,216 260.643,215.214 261,214.5 263.128,210.245 254.168,203 251,203 251,203 238.5,199 238.5,199 236.337,197.919 215.297,199.102 213.5,200 213.5,200 206,203 206,203 203.224,203 193.351,210.202 195,213.5 196.029,215.558 206.993,216 209,216 213.725,216 218.879,217 223,217 223,217 224,217 224,217 224,217 228,217 228,217 228,215.814 229,215.814 229,217 229,217 232,217 232,217  Z"/>

<path  fill="#219765" stroke-width="0" stroke="#219765" d = " M391 220 L396,223 C397.128,223 409,203.534 409,201 409,201 406,199 406,199 406,199 405,199 405,199 405,201.611 393.238,220 391,220  Z"/>

<path  fill="#219765" stroke-width="0" stroke="#219765" d = " M65 220 L61,223 C59.6322,223 47,203.779 47,201 47,201 51,200 51,200 51,204.765 65,217.57 65,220  Z"/>

<path  fill="#CBCBC7" stroke-width="0" stroke="#CBCBC7" d = " M225 200 C225,200.148 213.251,204 212,204 L207,204.5 L212,208.5 C216.322,217.144 234.023,217.238 242.5,213 L245,207.5 L249,204.5 L237.5,202 C233.982,200.241 229.211,200 225,200  Z"/>

<path  fill="#209766" stroke-width="0" stroke="#209766" d = " M91 201 L91,202 C91,202 90,201 90,201 90,201 91,201 91,201  Z"/>

<path  fill="#C8CBCC" stroke-width="0" stroke="#C8CBCC" d = " M92 208 L93,208 C93,206.576 92.6384,203 91,203 91,203 91,206 91,206 91,206 92,208 92,208  Z"/>

<path  fill="#C8CBCC" stroke-width="0" stroke="#C8CBCC" d = " M365 207 L363,209 C363,207.576 363.362,204 365,204 365,204 365,207 365,207  Z"/>

<path  fill="#209766" stroke-width="0" stroke="#209766" d = " M91 207 L92,208 C92,208 91,206 91,206 91,206 91,207 91,207  Z"/>

<path  fill="#A0EE9C" stroke-width="0" stroke="#A0EE9C" d = " M94 229 C95.9744,229 97.5173,231 100,231 101.577,231 102,229.238 102,228 102,228 101,226 101,226 101,226 101,225 101,225 101,225 100,224 100,224 100,224 98,220 98,220 98,220 97,219 97,219 97,219 95,212 95,212 95,212 94,211 94,211 94,211 94,210 94,210 94,210 93,209 93,209 93,209 93,208 93,208 93,208 92,208 92,208 92,208 91,207 91,207 91,207 88,208 88,208 88,209.539 84,210.187 84,213 84,215.409 85,218.181 85,220 85,220 86,222 86,222 86,222 93,229 93,229 93,229 94,229 94,229  Z"/>

<path  fill="#A0EE9C" stroke-width="0" stroke="#A0EE9C" d = " M363 229 L356,231 C356,231 354,229 354,229 354,229 355,226 355,226 355,223.54 359,221.83 359,219 359,219 360,217 360,217 360,217 361,215 361,215 361,215 361,213 361,213 361,213 362,212 362,212 362,212 362,211 362,211 362,211 363,210 363,210 363,210 363,209 363,209 363,209 365,207 365,207 365,207 369,208 369,208 369,208 372,212 372,212 372,214.123 372,216.704 372,219 372,219 371,220 371,220 371,220 371,221 371,221 371,221 370,222 370,222 370,222 369,223 369,223 369,223 367,225 367,225 367,225 367,226 367,226 367,226 366,227 366,227 366,227 365,227 365,227 365,227 364,228 364,228 364,228 363,229 363,229  Z"/>

<path  fill="#C8CBCC" stroke-width="0" stroke="#C8CBCC" d = " M93 209 L94,210 C94,210 93,209 93,209  Z"/>

<path  fill="#97D6F9" stroke-width="0" stroke="#97D6F9" d = " M169 213 L172,213 C172,213 173,210 173,210 173,210 169,213 169,213  Z"/>

<path  fill="#C8CBCC" stroke-width="0" stroke="#C8CBCC" d = " M363 210 L362,211 C362,211 363,210 363,210  Z"/>

<path  fill="#C8CBCC" stroke-width="0" stroke="#C8CBCC" d = " M94 211 L95,212 C95,212 94,211 94,211  Z"/>

<path  fill="#C8CBCC" stroke-width="0" stroke="#C8CBCC" d = " M362 212 L361,213 C361,213 362,212 362,212  Z"/>

<path  fill="#99D2BD" stroke-width="0" stroke="#99D2BD" d = " M377 215 L372,219 C372,216.704 372,214.123 372,212 372,212 374,213 374,213 374,213 377,215 377,215  Z"/>

<path  fill="#99D2BD" stroke-width="0" stroke="#99D2BD" d = " M80 215 L85,220 C85,218.181 84,215.409 84,213 84,213 82,213 82,213 82,213 80,215 80,215  Z"/>

<path  fill="#97D6F9" stroke-width="0" stroke="#97D6F9" d = " M165 213 L164,214 C164,214 165,213 165,213  Z"/>

<path  fill="#C9C9C9" stroke-width="0" stroke="#C9C9C9" d = " M140 235 L141,235 C141,233.647 145.643,233 147,233 147,231.187 158.003,227 160,227 160,225.423 161.762,225 163,225 163,225 165,224 165,224 165,224 167,223 167,223 167,223 168,222 168,222 168,222 169,222 169,222 169,222 174,218.5 174,218.5 175.47,215.561 172,214.284 172,213 172,213 169,213 169,213 169,213 165,213 165,213 165,213 164,214 164,214 164,214 163,215 163,215 163,215 162,215 162,215 162,215 161,216 161,216 161,216 159,217 159,217 159,219.158 153.36,223 151,223 151,224.577 149.238,225 148,225 148,227.109 145.465,227 144,227 144,229.109 141.465,229 140,229 140,231.027 131.691,235 140,235  Z"/>

<path  fill="#C9C9C9" stroke-width="0" stroke="#C9C9C9" d = " M315 235 L316,235 C330.27,235 295,219.464 295,215 295,215 294,215 294,215 294,215 293,214 293,214 291.436,214 289.124,213 287,213 287,213 285,213 285,213 283.127,213 280.934,215.369 282,217.5 282,217.5 288,222 288,222 288,222 289,222 289,222 289,222 290,223 290,223 290,223 291,223 291,223 291,223 315,235 315,235  Z"/>

<path  fill="#97D6F9" stroke-width="0" stroke="#97D6F9" d = " M164 214 L163,215 C163,215 164,214 164,214  Z"/>

<path  fill="#97D6F9" stroke-width="0" stroke="#97D6F9" d = " M293 214 L294,215 C294,215 293,214 293,214  Z"/>

<path  fill="#6ACAB9" stroke-width="0" stroke="#6ACAB9" d = " M122 281 L121,282 C116.002,282 111.608,282.054 107.5,280 106.523,279.512 100,274.211 100,277 95.9506,277 92.4264,267.926 89.5,265 89.5,265 67,233.5 67,233.5 65.1307,229.761 61,227.538 61,223 61,223 65,220 65,220 66.2165,220 75,216.473 75,216 75,216 80,215 80,215 80,215 85,220 85,220 85,220 86,222 86,222 86,222 93,229 93,229 93,229 94,229 94,229 94,229 102,235 102,235 102,235 120,250 120,250 120,250 125,258.5 125,258.5 125,258.5 125,269 125,269 125,272.255 123,275.058 123,279 123,279 122,280 122,280 122,280 122,281 122,281  Z"/>

<path  fill="#97D6F9" stroke-width="0" stroke="#97D6F9" d = " M162 215 L161,216 C161,216 162,215 162,215  Z"/>

<path  fill="#97D6F9" stroke-width="0" stroke="#97D6F9" d = " M318 273 L319,274 C320.238,274 322,273.577 322,272 322,272 323,271 323,271 323,271 325,269 325,269 325,267.253 325.253,267 327,267 327,267 329,266 329,266 329,262.979 329.724,247 335,247 335,247 339,240 339,240 339,240 340,239 340,239 340,239 341,238 341,238 341,238 342,237 342,237 342,237 343,236 343,236 343,236 342,235 342,235 326.737,235 319.881,230.191 307.5,224 303.464,221.982 299.689,215 295,215 295,219.464 330.27,235 316,235 316,235.733 331.009,237 332.5,237 333.663,237 338,236.451 338,238.5 338,238.5 324.5,251 324.5,251 321.678,252.411 317.421,250 315,250 315,250 315,251 315,251 318.871,251 326.24,273 318,273  Z"/>

<path  fill="#C8CBCC" stroke-width="0" stroke="#C8CBCC" d = " M361 215 L360,217 C360,217 361,215 361,215  Z"/>

<path  fill="#6ACAB9" stroke-width="0" stroke="#6ACAB9" d = " M334 280 L336,282 C339.732,282 344.391,282.555 347.5,281 347.5,281 355.5,276 355.5,276 355.5,276 356,278 356,278 359.992,278 363.29,268.21 365.5,266 372.482,259.018 383.028,244.443 387,236.5 389.213,232.073 396,228.173 396,223 396,223 391,220 391,220 391,220 381,216 381,216 381,216 377,215 377,215 377,215 372,219 372,219 372,219 371,220 371,220 371,220 371,221 371,221 371,221 370,222 370,222 370,222 369,223 369,223 369,224.747 368.747,225 367,225 367,225 367,226 367,226 367,226 366,227 366,227 366,227 365,227 365,227 365,227 364,228 364,228 364,228 363,229 363,229 363,229 355,235 355,235 355,235 336,250 336,250 336,252.537 331,259.196 331,267 331,271.943 334,274.723 334,280  Z"/>

<path  fill="#97D6F9" stroke-width="0" stroke="#97D6F9" d = " M161 216 L159,217 C159,217 161,216 161,216  Z"/>

<path  fill="#E64438" stroke-width="0" stroke="#E64438" d = " M236 237 L232,240 C232,240 232,222.5 232,222.5 230.636,219.772 229,225.909 229,227 229,227 228,227 228,227 228,226.388 225.803,220.895 225,222.5 223.675,225.151 224,236.342 224,239 224,239 220,237 220,237 220,222.798 206.894,233 199,233 199,231.78 207.626,228.249 209,225.5 210.807,221.887 209,219.695 209,216 213.725,216 218.879,217 223,217 223,217 224,218 224,218 224,220.39 232,221.853 232,218 232,218 234,217 234,217 237.629,217 242.716,216 247,216 247,226.069 247.729,228.114 257.5,233 265.437,236.969 279,227.786 279,220 281.349,220 280.382,223 283,223 283,223 275,239 275,239 275,228.526 265.583,236 264,236 257.159,236 236,220.604 236,237  Z"/>

<path  fill="#CAC7CB" stroke-width="0" stroke="#CAC7CB" d = " M228 217 L229,217 C229,215.814 228,215.814 228,217  Z"/>

<path  fill="#97D6F9" stroke-width="0" stroke="#97D6F9" d = " M159 217 C156.713,217 151,220.22 151,223 153.36,223 159,219.158 159,217  Z"/>

<path  fill="#CAC7CB" stroke-width="0" stroke="#CAC7CB" d = " M224 217 L224,218 C224,218 223,217 223,217 223,217 224,217 224,217  Z"/>

<path  fill="#CAC7CB" stroke-width="0" stroke="#CAC7CB" d = " M234 217 L232,218 C232,218 232,217 232,217 232,217 234,217 234,217  Z"/>

<path  fill="#C8CBCC" stroke-width="0" stroke="#C8CBCC" d = " M360 217 L359,219 C359,219 360,217 360,217  Z"/>

<path  fill="#E64438" stroke-width="0" stroke="#E64438" d = " M192 236 C186.199,236 193.104,230.698 184.5,235 182.541,235.98 182,237.401 182,240 179.533,240 177.924,230.349 177,228.5 177,228.5 173,223 173,223 176.448,223 175.91,218 178,218 178,218 177,223.5 177,223.5 181.164,231.827 190.332,233 199,233 199,234.267 193.147,236 192,236  Z"/>

<path  fill="#C8CBCC" stroke-width="0" stroke="#C8CBCC" d = " M97 219 L98,220 C98,220 97,219 97,219  Z"/>

<path  fill="#99D2BD" stroke-width="0" stroke="#99D2BD" d = " M372 219 L371,220 C371,220 372,219 372,219  Z"/>

<path  fill="#99D2BD" stroke-width="0" stroke="#99D2BD" d = " M371 221 L370,222 C370,222 371,221 371,221  Z"/>

<path  fill="#99D2BD" stroke-width="0" stroke="#99D2BD" d = " M86 222 L93,229 C93,229 86,222 86,222  Z"/>

<path  fill="#8599CC" stroke-width="0" stroke="#8599CC" d = " M168 222 L167,223 C167,223 168,222 168,222  Z"/>

<path  fill="#A2B1D7" stroke-width="0" stroke="#A2B1D7" d = " M169 257 C158.857,257 149.142,261 139,261 139,261 141,251 141,251 141,251 141,250 141,250 141,248.068 157,233.868 157,230 157,230 158,229 158,229 158,229 160,227 160,227 161.238,227 163,226.577 163,225 163,225 165,224 165,224 165,224 167,223 167,223 167,223 168,222 168,222 168,222 169,222 169,222 169,222 173,223 173,223 173,223 177,228.5 177,228.5 177.924,230.349 179.533,240 182,240 182,243.519 183.819,245.861 182,249.5 182,249.5 175,255 175,255 175,255 171,256 171,256 171,256 169,257 169,257  Z"/>

<path  fill="#FE5547" stroke-width="0" stroke="#FE5547" d = " M218 274 L221,274 C221,274 223,273 223,273 223,273 224,272 224,272 224,272 225,271 225,271 225,271 228,264.5 228,264.5 228,264.5 228.5,261 228.5,261 228.5,261 229,266.5 229,266.5 229,266.5 231,271 231,271 231,271 232,272 232,272 232,272 239,274 239,274 239,270.953 236,269.538 236,267 231.319,267 232,244.641 232,240 232,240 232,222.5 232,222.5 230.636,219.772 229,225.909 229,227 229,230.246 228,230.246 228,227 228,226.388 225.803,220.895 225,222.5 223.675,225.151 224,236.342 224,239 224,239 224,259.5 224,259.5 224,259.5 222,265 222,265 222,265 221,266 221,266 221,266 220,267 220,267 220,268.522 215.847,274 218,274  Z"/>

<path  fill="#A2B1D7" stroke-width="0" stroke="#A2B1D7" d = " M287 257 C297.243,257 306.792,261 317,261 317,257.279 315,254.119 315,251 315,251 315,250 315,250 315,246.345 299,233.5 299,229 297.495,229 291,224.803 291,223 291,223 290,223 290,223 290,223 289,222 289,222 289,222 288,222 288,222 288,222 283,223 283,223 283,223 275,239 275,239 275,244.147 272.281,245.062 275,250.5 275,250.5 281,255 281,255 281,255 285,256 285,256 285,256 287,257 287,257  Z"/>

<path  fill="#8599CC" stroke-width="0" stroke="#8599CC" d = " M289 222 L290,223 C290,223 289,222 289,222  Z"/>

<path  fill="#99D2BD" stroke-width="0" stroke="#99D2BD" d = " M370 222 L369,223 C369,223 370,222 370,222  Z"/>

<path  fill="#97D6F9" stroke-width="0" stroke="#97D6F9" d = " M151 223 C149.762,223 148,223.423 148,225 149.238,225 151,224.577 151,223  Z"/>

<path  fill="#97D6F9" stroke-width="0" stroke="#97D6F9" d = " M299 229 C303.036,229 309.153,235 315,235 315,235 291,223 291,223 291,224.803 297.495,229 299,229  Z"/>

<path  fill="#99D2BD" stroke-width="0" stroke="#99D2BD" d = " M369 223 L367,225 C368.747,225 369,224.747 369,223  Z"/>

<path  fill="#C8CBCC" stroke-width="0" stroke="#C8CBCC" d = " M100 224 L101,225 C101,225 100,224 100,224  Z"/>

<path  fill="#97D6F9" stroke-width="0" stroke="#97D6F9" d = " M165 224 L163,225 C163,225 165,224 165,224  Z"/>

<path  fill="#97D6F9" stroke-width="0" stroke="#97D6F9" d = " M148 225 L144,227 C145.465,227 148,227.109 148,225  Z"/>

<path  fill="#97D6F9" stroke-width="0" stroke="#97D6F9" d = " M163 225 C161.762,225 160,225.423 160,227 161.238,227 163,226.577 163,225  Z"/>

<path  fill="#C8CBCC" stroke-width="0" stroke="#C8CBCC" d = " M113 235 C113.839,235 115,236.93 115,235 111.037,235 103.819,226 101,226 101,226 102,228 102,228 102,228 105,231 105,231 105,231 106,231 106,231 106,231 107,232 107,232 107,232 112,235 112,235 112,235 113,235 113,235  Z"/>

<path  fill="#C8CBCC" stroke-width="0" stroke="#C8CBCC" d = " M354 229 L351,230 C351,230 355,226 355,226 355,226 354,229 354,229  Z"/>

<path  fill="#99D2BD" stroke-width="0" stroke="#99D2BD" d = " M367 226 L366,227 C366,227 367,226 367,226  Z"/>

<path  fill="#97D6F9" stroke-width="0" stroke="#97D6F9" d = " M144 227 L140,229 C141.465,229 144,229.109 144,227  Z"/>

<path  fill="#97D6F9" stroke-width="0" stroke="#97D6F9" d = " M157 230 C153.314,230 150.823,233 147,233 147,231.187 158.003,227 160,227 160,227 158,229 158,229 158,229 157,230 157,230  Z"/>

<path  fill="#A8A9AA" stroke-width="0" stroke="#A8A9AA" d = " M228 227 L229,227 C229,230.246 228,230.246 228,227  Z"/>

<path  fill="#99D2BD" stroke-width="0" stroke="#99D2BD" d = " M365 227 L364,228 C364,228 365,227 365,227  Z"/>

<path  fill="#8AD987" stroke-width="0" stroke="#8AD987" d = " M105 231 C103.762,231 102,231.423 102,233 102,233 100,231 100,231 101.577,231 102,229.238 102,228 102,228 105,231 105,231  Z"/>

<path  fill="#99D2BD" stroke-width="0" stroke="#99D2BD" d = " M364 228 L363,229 C363,229 364,228 364,228  Z"/>

<path  fill="#99D2BD" stroke-width="0" stroke="#99D2BD" d = " M102 233 L102,235 C102,235 94,229 94,229 95.9744,229 97.5173,231 100,231 100,231 102,233 102,233  Z"/>

<path  fill="#97D6F9" stroke-width="0" stroke="#97D6F9" d = " M137 274 L138,274 C138,272.126 132.895,269.71 134,267.5 135.813,263.873 135.192,259.117 137,255.5 137.989,253.522 140,253.477 140,251 140,251 131.5,251 131.5,251 131.5,251 118,238.5 118,238.5 118,236.545 121.889,237 123,237 127.213,237 131.782,236 136.5,236 137.598,236 140,236.534 140,235 131.691,235 140,231.027 140,229 140,229 127.5,235 127.5,235 127.5,235 115,235 115,235 115,236.93 113.839,235 113,235 113,235 113,236 113,236 113,236 114,237 114,237 114,237 118,241 118,241 118,241 121,247 121,247 127.817,247 127,263.414 127,267 127,267 129,267 129,267 131.169,267 134,269.899 134,272 134,272 137,274 137,274  Z"/>

<path  fill="#7ECDF8" stroke-width="0" stroke="#7ECDF8" d = " M158 229 L157,230 C157,230 158,229 158,229  Z"/>

<path  fill="#FF5346" stroke-width="0" stroke="#FF5346" d = " M193 269 L198.5,268 L202,271 C204.317,271 210,270.291 210,267 205.552,267 206,256.542 206,253.5 206,244.235 210.451,237 220,237 220,222.798 206.894,233 199,233 199,234.267 193.147,236 192,236 192,236 194,241.5 194,241.5 197.061,247.621 193,260.995 193,267 193,267 193,269 193,269  Z"/>

<path  fill="#FF5346" stroke-width="0" stroke="#FF5346" d = " M263 269 C261.577,269 259.456,267.022 257.5,268 L254,271 C251.074,271 247,270.627 247,267 247,266.598 249.465,263.57 250,262.5 255.324,251.853 247.616,237 236,237 236,220.604 257.159,236 264,236 264,238.582 263.179,244.141 262,246.5 262,246.5 263,267 263,267 263,267 263,269 263,269  Z"/>

<path  fill="#7ECDF8" stroke-width="0" stroke="#7ECDF8" d = " M316 235 C316,235.733 331.009,237 332.5,237 333.663,237 338,236.451 338,238.5 L324.5,251 C321.678,252.411 317.421,250 315,250 315,246.345 299,233.5 299,229 303.036,229 309.153,235 315,235 315,235 316,235 316,235  Z"/>

<path  fill="#8AD987" stroke-width="0" stroke="#8AD987" d = " M356 231 L355,233 C355,233 351,231 351,231 351,231 351,230 351,230 351,230 354,229 354,229 354,229 356,231 356,231  Z"/>

<path  fill="#99D2BD" stroke-width="0" stroke="#99D2BD" d = " M355 233 L355,235 C355,235 363,229 363,229 363,229 356,231 356,231 356,231 355,233 355,233  Z"/>

<path  fill="#7ECDF8" stroke-width="0" stroke="#7ECDF8" d = " M141 250 L140,251 C140,251 131.5,251 131.5,251 131.5,251 118,238.5 118,238.5 118,236.545 121.889,237 123,237 127.213,237 131.782,236 136.5,236 137.598,236 140,236.534 140,235 140,235 141,235 141,235 142.623,235 147,234.995 147,233 150.823,233 153.314,230 157,230 157,233.868 141,248.068 141,250  Z"/>

<path  fill="#C8CBCC" stroke-width="0" stroke="#C8CBCC" d = " M351 231 L347,233 C347,231.288 349.571,230 351,230 351,230 351,231 351,231  Z"/>

<path  fill="#A0ED9D" stroke-width="0" stroke="#A0ED9D" d = " M121 247 C121,247.922 122.681,250 120,250 120,250 102,235 102,235 102,235 102,233 102,233 102,231.423 103.762,231 105,231 105,231 106,231 106,231 106,231 107,232 107,232 107,232 112,235 112,235 112,235 113,236 113,236 113,236 114,237 114,237 114,237 118,241 118,241 118,241 121,247 121,247  Z"/>

<path  fill="#8AD987" stroke-width="0" stroke="#8AD987" d = " M106 231 L107,232 C107,232 106,231 106,231  Z"/>

<path  fill="#A0ED9D" stroke-width="0" stroke="#A0ED9D" d = " M335 247 C335,248.048 334.527,250 336,250 336,250 355,235 355,235 355,235 355,233 355,233 355,233 351,231 351,231 351,231 347,233 347,233 347,233 346,234 346,234 346,234 345,235 345,235 345,235 344,235 344,235 344,235 343,236 343,236 343,236 342,237 342,237 342,237 341,238 341,238 341,238 340,239 340,239 340,239 339,240 339,240 339,240 335,247 335,247  Z"/>

<path  fill="#97D6F9" stroke-width="0" stroke="#97D6F9" d = " M147 233 C145.643,233 141,233.647 141,235 142.623,235 147,234.995 147,233  Z"/>

<path  fill="#F2473B" stroke-width="0" stroke="#F2473B" d = " M192 267 L193,267 C193,260.995 197.061,247.621 194,241.5 194,241.5 192,236 192,236 186.199,236 193.104,230.698 184.5,235 182.541,235.98 182,237.401 182,240 182,243.519 183.819,245.861 182,249.5 182,249.5 175,255 175,255 175,255 178,258 178,258 182.301,258 191.028,267 192,267  Z"/>

<path  fill="#F2473B" stroke-width="0" stroke="#F2473B" d = " M263 267 L265,267 C265,263.515 276.33,258 279,258 279,258 281,255 281,255 281,255 275,250.5 275,250.5 272.281,245.062 275,244.147 275,239 275,228.526 265.583,236 264,236 264,238.582 263.179,244.141 262,246.5 262,246.5 263,267 263,267  Z"/>

<path  fill="#C8CBCC" stroke-width="0" stroke="#C8CBCC" d = " M344 235 L345,235 C345,235 346,234 346,234 346,234 347,233 347,233 345.576,233 342,233.362 342,235 342,235 343,236 343,236 343,236 344,235 344,235  Z"/>

<path  fill="#8AD987" stroke-width="0" stroke="#8AD987" d = " M346 234 L345,235 C345,235 346,234 346,234  Z"/>

<path  fill="#8AD987" stroke-width="0" stroke="#8AD987" d = " M113 235 L113,236 C113,236 112,235 112,235 112,235 113,235 113,235  Z"/>

<path  fill="#97D6F9" stroke-width="0" stroke="#97D6F9" d = " M344 235 L343,236 C343,236 344,235 344,235  Z"/>

<path  fill="#8AD987" stroke-width="0" stroke="#8AD987" d = " M114 237 L118,241 C118,241 114,237 114,237  Z"/>

<path  fill="#FD4C3E" stroke-width="0" stroke="#FD4C3E" d = " M215 267 L220,267 C220,267 221,266 221,266 221,266 222,265 222,265 222,265 224,259.5 224,259.5 224,259.5 224,239 224,239 224,239 220,237 220,237 210.451,237 206,244.235 206,253.5 206,256.542 205.552,267 210,267 210,267 215,267 215,267  Z"/>

<path  fill="#FD4C3E" stroke-width="0" stroke="#FD4C3E" d = " M242 267 L247,267 C247,266.598 249.465,263.57 250,262.5 255.324,251.853 247.616,237 236,237 236,237 232,240 232,240 232,244.641 231.319,267 236,267 236,267 242,267 242,267  Z"/>

<path  fill="#8AD987" stroke-width="0" stroke="#8AD987" d = " M342 237 L341,238 C341,238 342,237 342,237  Z"/>

<path  fill="#8AD987" stroke-width="0" stroke="#8AD987" d = " M341 238 L340,239 C340,239 341,238 341,238  Z"/>

<path  fill="#8AD987" stroke-width="0" stroke="#8AD987" d = " M340 239 L339,240 C339,240 340,239 340,239  Z"/>

<path  fill="#99D2BD" stroke-width="0" stroke="#99D2BD" d = " M127 267 L125,269 C125,269 125,258.5 125,258.5 125,258.5 120,250 120,250 122.681,250 121,247.922 121,247 127.817,247 127,263.414 127,267  Z"/>

<path  fill="#99D2BD" stroke-width="0" stroke="#99D2BD" d = " M329 266 L331,267 C331,259.196 336,252.537 336,250 334.527,250 335,248.048 335,247 329.724,247 329,262.979 329,266  Z"/>

<path  fill="#97D6F9" stroke-width="0" stroke="#97D6F9" d = " M140 251 L141,251 C141,251 141,250 141,250 141,250 140,251 140,251  Z"/>

<path  fill="#8599CC" stroke-width="0" stroke="#8599CC" d = " M143 272 L138,274 C138,272.126 132.895,269.71 134,267.5 135.813,263.873 135.192,259.117 137,255.5 137.989,253.522 140,253.477 140,251 140,251 141,251 141,251 141,251 139,261 139,261 135.46,261 143,271.245 143,272  Z"/>

<path  fill="#8599CC" stroke-width="0" stroke="#8599CC" d = " M314 271 C314,273.109 316.535,273 318,273 326.24,273 318.871,251 315,251 315,254.119 317,257.279 317,261 319.724,261 315.994,271 314,271  Z"/>

<path  fill="#E64438" stroke-width="0" stroke="#E64438" d = " M172 259 L173,260 C173,258.362 176.576,258 178,258 178,258 175,255 175,255 175,255 171,256 171,256 171,256 172,259 172,259  Z"/>

<path  fill="#E64438" stroke-width="0" stroke="#E64438" d = " M285 259 L283,261 C283,258.285 281.343,258 279,258 279,258 281,255 281,255 281,255 285,256 285,256 285,256 285,259 285,259  Z"/>

<path  fill="#8599CC" stroke-width="0" stroke="#8599CC" d = " M169 257 L172,259 C172,259 171,256 171,256 171,256 169,257 169,257  Z"/>

<path  fill="#8599CC" stroke-width="0" stroke="#8599CC" d = " M287 257 L285,259 C285,259 285,256 285,256 285,256 287,257 287,257  Z"/>

<path  fill="#A2B1D8" stroke-width="0" stroke="#A2B1D8" d = " M160 278 L166,278 C166,277.114 171.824,275 173,275 173,275 173,260 173,260 173,260 172,259 172,259 172,259 169,257 169,257 158.857,257 149.142,261 139,261 135.46,261 143,271.245 143,272 143,272 152.5,276 152.5,276 153.673,276.587 160,276.619 160,278  Z"/>

<path  fill="#A2B1D8" stroke-width="0" stroke="#A2B1D8" d = " M290 278 L296,278 C296,276.353 303.176,276.662 304.5,276 306.447,275.027 312.931,271 314,271 315.994,271 319.724,261 317,261 306.792,261 297.243,257 287,257 287,257 285,259 285,259 285,259 283,261 283,261 283,261 283,274 283,274 283,274 290,278 290,278  Z"/>

<path  fill="#96A6D3" stroke-width="0" stroke="#96A6D3" d = " M173 275 L179.5,279 L190,279 C190,275.359 193,273.115 193,269 193,269 192,267 192,267 191.028,267 182.301,258 178,258 176.576,258 173,258.362 173,260 173,260 173,275 173,275  Z"/>

<path  fill="#96A6D3" stroke-width="0" stroke="#96A6D3" d = " M266 278 L267,279 C271.395,279 283,279.692 283,274 283,274 283,261 283,261 283,258.285 281.343,258 279,258 276.33,258 265,263.515 265,267 265,267 264,271 264,271 264,271 266,278 266,278  Z"/>

<path  fill="#A8A9AA" stroke-width="0" stroke="#A8A9AA" d = " M226 271 C227.467,271 229.533,271 231,271 231,271 229,266.5 229,266.5 229,266.5 228.5,261 228.5,261 228.5,261 228,264.5 228,264.5 228,264.5 225,271 225,271 225,271 226,271 226,271  Z"/>

<path  fill="#E64438" stroke-width="0" stroke="#E64438" d = " M222 265 L221,266 C221,266 222,265 222,265  Z"/>

<path  fill="#7FCCF7" stroke-width="0" stroke="#7FCCF7" d = " M325 291 L324,292 C324,292 314.5,297 314.5,297 307.161,300.67 295.662,297.081 289.5,294 287.474,292.987 281,291.75 281,288 281,281 281.054,278 290,278 290,278 296,278 296,278 299.644,278 319,280.841 319,274 320.238,274 322,273.577 322,272 322,272 323,271 323,271 324.747,271 325,270.747 325,269 326.747,269 327,268.747 327,267 327,267 329,266 329,266 329,266 331,267 331,267 331,271.943 334,274.723 334,280 334,280 334,281 334,281 332.099,281 329,285.332 329,287 329,287 328,288 328,288 328,288 327,289 327,289 327,289 326,290 326,290 326,290 325,291 325,291  Z"/>

<path  fill="#7FCCF7" stroke-width="0" stroke="#7FCCF7" d = " M175 289 C175,293.331 165.867,293.817 163.5,295 158.126,297.687 147.734,300.117 141.5,297 L131,291 C131,286.826 123,284.343 123,280 123,280 123,279 123,279 123,275.058 125,272.255 125,269 125,269 127,267 127,267 127,267 129,267 129,267 129,267 134,272 134,272 134,272 137,274 137,274 137,278.851 150.311,279 154,279 155.321,279 160,279.684 160,278 160,278 166,278 166,278 175.374,278 176,280.329 176,288 176,288 175,289 175,289  Z"/>

<path  fill="#A2B1D7" stroke-width="0" stroke="#A2B1D7" d = " M129 267 C131.169,267 134,269.899 134,272 134,272 129,267 129,267  Z"/>

<path  fill="#E64438" stroke-width="0" stroke="#E64438" d = " M193 267 L193,269 C193,269 192,267 192,267 192,267 193,267 193,267  Z"/>

<path  fill="#E64438" stroke-width="0" stroke="#E64438" d = " M202 271 L204,275 C204,275 209.5,270 209.5,270 209.5,270 215,267 215,267 215,267 210,267 210,267 210,270.291 204.317,271 202,271  Z"/>

<path  fill="#FD5545" stroke-width="0" stroke="#FD5545" d = " M204 279 L210,279 C210,279 218,274 218,274 215.847,274 220,268.522 220,267 220,267 215,267 215,267 215,267 209.5,270 209.5,270 209.5,270 204,275 204,275 204,275 204,279 204,279  Z"/>

<path  fill="#FD5545" stroke-width="0" stroke="#FD5545" d = " M253 278 L252,279 C249.278,279 239,277.141 239,274 239,270.953 236,269.538 236,267 236,267 242,267 242,267 242,268.674 249.058,272.279 250.5,273 250.5,273 253,276 253,276 253,276 253,278 253,278  Z"/>

<path  fill="#E64438" stroke-width="0" stroke="#E64438" d = " M254 271 L253,276 C253,276 250.5,273 250.5,273 249.058,272.279 242,268.674 242,267 242,267 247,267 247,267 247,270.627 251.074,271 254,271  Z"/>

<path  fill="#E64438" stroke-width="0" stroke="#E64438" d = " M263 269 L264,271 C264,271 265,267 265,267 265,267 263,267 263,267 263,267 263,269 263,269  Z"/>

<path  fill="#A2B1D7" stroke-width="0" stroke="#A2B1D7" d = " M327 267 C325.253,267 325,267.253 325,269 326.747,269 327,268.747 327,267  Z"/>

<path  fill="#FE5546" stroke-width="0" stroke="#FE5546" d = " M199 281 L201,281 C201,281 203,280 203,280 203,280 204,279 204,279 204,279 204,275 204,275 204,275 202,271 202,271 202,271 198.5,268 198.5,268 198.5,268 193,269 193,269 193,273.115 190,275.359 190,279 190,279 199,281 199,281  Z"/>

<path  fill="#FE5546" stroke-width="0" stroke="#FE5546" d = " M266 279 L258,281 C256.576,281 253,280.638 253,279 253,279 253,278 253,278 253,278 253,276 253,276 253,276 254,271 254,271 254,271 257.5,268 257.5,268 259.456,267.022 261.577,269 263,269 263,269 264,271 264,271 264,271 266,278 266,278 266,278 266,279 266,279  Z"/>

<path  fill="#A2B1D7" stroke-width="0" stroke="#A2B1D7" d = " M325 269 L323,271 C324.747,271 325,270.747 325,269  Z"/>

<path  fill="#CAC7CB" stroke-width="0" stroke="#CAC7CB" d = " M223 273 L227,273 C227,273 226,271 226,271 226,271 225,271 225,271 225,271 224,272 224,272 224,272 223,273 223,273  Z"/>

<path  fill="#A2B1D7" stroke-width="0" stroke="#A2B1D7" d = " M319 274 C319,280.841 299.644,278 296,278 296,276.353 303.176,276.662 304.5,276 306.447,275.027 312.931,271 314,271 314,273.109 316.535,273 318,273 318,273 319,274 319,274  Z"/>

<path  fill="#A2B1D7" stroke-width="0" stroke="#A2B1D7" d = " M323 271 L322,272 C322,272 323,271 323,271  Z"/>

<path  fill="#A2B1D7" stroke-width="0" stroke="#A2B1D7" d = " M137 274 L138,274 C138,274 143,272 143,272 143,272 152.5,276 152.5,276 153.673,276.587 160,276.619 160,278 160,279.684 155.321,279 154,279 150.311,279 137,278.851 137,274  Z"/>

<path  fill="#CAC7CB" stroke-width="0" stroke="#CAC7CB" d = " M199 281 L201,281 C201,281 199,284.5 199,284.5 203.471,293.441 226.806,282.153 234.5,286 237.386,287.443 260.243,289.987 257,283.5 254.873,279.247 245.184,279.842 241.5,278 237.326,275.913 234.084,273 229,273 229,271.527 230.952,272 232,272 232,272 239,274 239,274 239,277.141 249.278,279 252,279 252,279 253,279 253,279 253,280.638 256.576,281 258,281 258,281 259,287.5 259,287.5 257.582,290.336 232.854,290.677 229.5,289 229.5,289 228.5,287 228.5,287 228.5,287 227.5,289 227.5,289 227.5,289 217.5,290 217.5,290 213.683,290 198.376,290.252 197,287.5 197,287.5 199,281 199,281  Z"/>

<path  fill="#CAC7CB" stroke-width="0" stroke="#CAC7CB" d = " M223 273 L221,274 C221,274 223,273 223,273  Z"/>

<path  fill="#CBCACC" stroke-width="0" stroke="#CBCACC" d = " M210 279 C210,281.156 202.923,281 201,281 201,281 199,284.5 199,284.5 203.471,293.441 226.806,282.153 234.5,286 237.386,287.443 260.243,289.987 257,283.5 254.873,279.247 245.184,279.842 241.5,278 237.326,275.913 234.084,273 229,273 229,273 227,273 227,273 227,273 223,273 223,273 223,273 221,274 221,274 221,276.268 212.086,279 210,279  Z"/>

<path  fill="#CAC7CB" stroke-width="0" stroke="#CAC7CB" d = " M221 274 C221,276.268 212.086,279 210,279 210,279 218,274 218,274 218,274 221,274 221,274  Z"/>

<path  fill="#8599CC" stroke-width="0" stroke="#8599CC" d = " M267 279 C267,281.023 278.86,288 281,288 281,281 281.054,278 290,278 290,278 283,274 283,274 283,279.692 271.395,279 267,279  Z"/>

<path  fill="#8599CC" stroke-width="0" stroke="#8599CC" d = " M190 279 C190,280.833 177.339,288 176,288 176,280.329 175.374,278 166,278 166,277.114 171.824,275 173,275 173,275 179.5,279 179.5,279 179.5,279 190,279 190,279  Z"/>

<path  fill="#CAC8C7" stroke-width="0" stroke="#CAC8C7" d = " M122 286 L121,287 C121,287.982 117.702,289.601 116.5,289 112.396,286.948 100,283.568 100,277 100,274.211 106.523,279.512 107.5,280 111.608,282.054 116.002,282 121,282 121,282 121,283 121,283 121,283 122,286 122,286  Z"/>

<path  fill="#CAC8C7" stroke-width="0" stroke="#CAC8C7" d = " M335 283 L335,287 C335,288.278 339.07,289.715 340.5,289 343.467,287.516 355,283.903 355,279 355,279 356,278 356,278 356,278 355.5,276 355.5,276 355.5,276 347.5,281 347.5,281 344.391,282.555 339.732,282 336,282 336,282 335,283 335,283  Z"/>

<path  fill="#E64438" stroke-width="0" stroke="#E64438" d = " M252 279 L253,279 C253,279 253,278 253,278 253,278 252,279 252,279  Z"/>

<path  fill="#E64438" stroke-width="0" stroke="#E64438" d = " M266 279 L267,279 C267,279 266,278 266,278 266,278 266,279 266,279  Z"/>

<path  fill="#6ACAB9" stroke-width="0" stroke="#6ACAB9" d = " M356 278 L355,279 C355,279 356,278 356,278  Z"/>

<path  fill="#99D2BD" stroke-width="0" stroke="#99D2BD" d = " M122 280 L123,280 C123,280 123,279 123,279 123,279 122,280 122,280  Z"/>

<path  fill="#E64438" stroke-width="0" stroke="#E64438" d = " M204 279 L203,280 C203,280 204,279 204,279  Z"/>

<path  fill="#CAC7CB" stroke-width="0" stroke="#CAC7CB" d = " M203 280 L201,281 C202.923,281 210,281.156 210,279 210,279 204,279 204,279 204,279 203,280 203,280  Z"/>

<path  fill="#97D6F9" stroke-width="0" stroke="#97D6F9" d = " M122 286 C125.984,286 128.027,291 131,291 131,286.826 123,284.343 123,280 123,280 122,280 122,280 122,280 122,281 122,281 122,281 121,283 121,283 121,283 122,286 122,286  Z"/>

<path  fill="#99D2BD" stroke-width="0" stroke="#99D2BD" d = " M336 282 L335,283 C335,283 334,281 334,281 334,281 334,280 334,280 334,280 336,282 336,282  Z"/>

<path  fill="#99D2BD" stroke-width="0" stroke="#99D2BD" d = " M121 282 L121,283 C121,283 122,281 122,281 122,281 121,282 121,282  Z"/>

<path  fill="#97D6F9" stroke-width="0" stroke="#97D6F9" d = " M329 287 C331.483,287 333.026,287 335,287 335,287 335,283 335,283 335,283 334,281 334,281 332.099,281 329,285.332 329,287  Z"/>

<path  fill="#97D6F9" stroke-width="0" stroke="#97D6F9" d = " M122 286 L121,287 C121,287 122,286 122,286  Z"/>

<path  fill="#97D6F9" stroke-width="0" stroke="#97D6F9" d = " M329 287 L328,288 C328,288 329,287 329,287  Z"/>

<path  fill="#8599CC" stroke-width="0" stroke="#8599CC" d = " M176 288 L175,289 C175,289 176,288 176,288  Z"/>

<path  fill="#97D6F9" stroke-width="0" stroke="#97D6F9" d = " M328 288 L327,289 C327,289 328,288 328,288  Z"/>

<path  fill="#97D6F9" stroke-width="0" stroke="#97D6F9" d = " M327 289 L326,290 C326,290 327,289 327,289  Z"/>

<path  fill="#97D6F9" stroke-width="0" stroke="#97D6F9" d = " M326 290 L325,291 C325,291 326,290 326,290  Z"/>

<path  fill="#97D6F9" stroke-width="0" stroke="#97D6F9" d = " M325 291 L324,292 C324,292 325,291 325,291  Z"/>

</g>
</svg>
