<svg xmlns="http://www.w3.org/2000/svg" xmlns:xlink="http://www.w3.org/1999/xlink"  viewBox="0 0 456 320">
<g>
<rect width="456" height="320" fill="#000000"  stroke-width="0" /> 
<path  fill="#99D2BD" stroke-width="0" stroke="#99D2BD" d = " M169 172 L171,171.5 C175.81,181.12 180.457,191.414 185,200.5 187.628,205.756 193.304,206.902 197.5,209 199.144,209.822 205,207.962 205,211 209.434,211 216.235,202.03 218,198.5 218,198.5 219,191.5 219,191.5 222.609,184.282 222.622,143.744 219,136.5 212.909,124.317 192.957,127.543 185,135.5 180.557,139.943 177.495,143.511 175,148.5 171.289,155.922 169,163.008 169,172  Z"/>

<path  fill="#99D2BD" stroke-width="0" stroke="#99D2BD" d = " M287 171 C286.127,171 279.975,184.549 279,186.5 276.103,192.294 271.445,203.527 264.5,207 261.258,208.621 256.618,207.441 253.5,209 L251,211 C251,211 247,208.5 247,208.5 243.473,204.973 240.061,201.621 238,197.5 233.379,188.258 236,164.606 236,153 236,148.305 235.027,141.446 237,137.5 241.943,127.615 256.784,126.142 266.5,131 280.913,138.206 287,156.363 287,171  Z"/>

<path  fill="#C7CBCA" stroke-width="0" stroke="#C7CBCA" d = " M169 172 L171,171.5 C175.81,181.12 180.457,191.414 185,200.5 187.628,205.756 193.304,206.902 197.5,209 199.144,209.822 205,207.962 205,211 205,215.519 194.957,218.585 193,222.5 191.318,225.864 193.043,230.728 188.5,233 186.663,233.919 181.345,235.191 180,232.5 177.107,226.714 183.612,220.725 181,215.5 171.095,195.689 169,196.276 169,172  Z"/>

<path  fill="#C7CBCA" stroke-width="0" stroke="#C7CBCA" d = " M287 171 C286.127,171 279.975,184.549 279,186.5 276.103,192.294 271.445,203.527 264.5,207 261.258,208.621 256.618,207.441 253.5,209 L251,211 C251,214.478 257.288,215.075 259,218.5 259,218.5 263,222.5 263,222.5 264.189,224.878 271.378,242.745 277,231.5 279.351,226.798 273.254,219.993 275,216.5 286.05,194.401 287,196.601 287,171  Z"/>

</g>
</svg>
