<svg xmlns="http://www.w3.org/2000/svg" xmlns:xlink="http://www.w3.org/1999/xlink"  viewBox="0 0 456 320">
<g>
<rect width="456" height="320" fill="#000000"  stroke-width="0" /> 
<path  fill="#FE79FE" stroke-width="0" stroke="#FE79FE" d = " M197 100 C197,101.238 197.423,103 199,103 199,106.055 190.559,109.97 188.5,111 179.856,115.322 164.512,121.524 158,108.5 154.951,102.401 146.844,88.8116 151,80.5 152.688,77.124 155,70.8313 155,67 156.712,67 158,64.4289 158,63 159.712,63 161,60.4289 161,59 161,59 163,57 163,57 163,57 163,56 163,56 163,56 164,55 164,55 164,55 165,54 165,54 165,54 166,53 166,53 166,53 168,52 168,52 168,52 169,51 169,51 169,51 180.5,45 180.5,45 180.5,45 202,44 202,44 202,44 202,45 202,45 199.721,45 191,53.3117 191,55 191,55 181,61.5 181,61.5 178.032,67.436 170.775,74.9493 167,82.5 162.606,91.2882 170.771,113.864 182.5,108 186.054,106.223 189.906,104.797 193.5,103 193.5,103 197,100 197,100  Z"/>

<path  fill="#FF64FF" stroke-width="0" stroke="#FF64FF" d = " M202 45 L204,45 C204,45 202,44 202,44 202,44 202,45 202,45  Z"/>

<path  fill="#FF64FF" stroke-width="0" stroke="#FF64FF" d = " M253 45 L255,45 C255,45 255,44 255,44 255,44 253,45 253,45  Z"/>

<path  fill="#FE79FE" stroke-width="0" stroke="#FE79FE" d = " M259 100 L258,104 C258,105.858 266.792,110.146 268.5,111 283.856,118.678 294.477,118.546 303,101.5 307.643,92.2147 305.228,75.9559 301,67.5 301,67.5 291,54 291,54 291,54 283.5,49 283.5,49 274.453,44.4765 266.033,44 255,44 255,44 255,45 255,45 255,49.3743 265,50.2251 265,55 269.461,55 277.061,62.6226 279,66.5 279,66.5 284,71.5 284,71.5 288.675,80.85 296.959,99.7706 282.5,107 271.346,112.577 265.086,100 259,100  Z"/>

<path  fill="#FE79FF" stroke-width="0" stroke="#FE79FF" d = " M197 100 C197,101.238 197.423,103 199,103 201.859,103 202.197,100.151 204.5,99 216.866,92.8168 217.542,77.4154 223,66.5 225.691,61.1179 220,54.5618 220,50 220,50 216,48 216,48 216,48 215,47 215,47 215,47 213,47 213,47 213,47 211,46 211,46 211,46 210,46 210,46 210,46 208,45 208,45 208,45 204,45 204,45 204,45 202,45 202,45 199.721,45 191,53.3117 191,55 193.236,55 194.287,60.0743 195,61.5 200.743,72.9857 197,88.2381 197,100  Z"/>

<path  fill="#FF64FF" stroke-width="0" stroke="#FF64FF" d = " M208 45 L210,46 C210,46 208,45 208,45  Z"/>

<path  fill="#FF64FF" stroke-width="0" stroke="#FF64FF" d = " M248 45 L247,46 C247,46 248,45 248,45  Z"/>

<path  fill="#FE79FF" stroke-width="0" stroke="#FE79FF" d = " M259 100 L258,104 C255.776,104 255.728,101.614 254.5,101 240.04,93.77 239.194,77.889 233,65.5 230.705,60.9096 236,55.2219 236,51 236,48.5532 242.063,47 244,47 244,47 245,46 245,46 245,46 247,46 247,46 247,46 248,45 248,45 248,45 253,45 253,45 253,45 255,45 255,45 255,49.3743 265,50.2251 265,55 262.705,55 261.737,61.0253 261,62.5 255.597,73.3065 259,87.3853 259,100  Z"/>

<path  fill="#FF64FF" stroke-width="0" stroke="#FF64FF" d = " M211 46 L213,47 C213,47 211,46 211,46  Z"/>

<path  fill="#FF64FF" stroke-width="0" stroke="#FF64FF" d = " M245 46 L244,47 C244,47 245,46 245,46  Z"/>

<path  fill="#FF64FF" stroke-width="0" stroke="#FF64FF" d = " M215 47 L216,48 C216,48 215,47 215,47  Z"/>

<path  fill-rule="evenodd" fill="#FF64FF" stroke-width="0" stroke="#FF64FF" d = " M231 79 L230,82.5 C230,94.5038 239.385,79 231,79  M223 79 L222,82.5 C222,93.8075 232.816,79 223,79  M187 125 L188,125 C188,125 189,124 189,124 189,122.375 210.57,108 212,108 212,106.016 213.444,102 216,102 216,102 216,100 216,100 216,100 217,98 217,98 217,95.0174 219.629,95 222,95 222,89.0901 235,89.0381 235,95 236.048,95 238,94.5271 238,96 238,96 239,97 239,97 239,97 240,99 240,99 241.579,99 241,101.855 241,103 244.177,103 244,106.346 244,108 250.741,108 262.986,123 267,123 267,123 271.5,126 271.5,126 272.92,126.71 279.823,124 281.5,124 283.436,124 287.231,127 289.5,127 291.481,127 291.517,122.466 292,121.5 292,121.5 305,107 305,107 305,105.253 305.253,105 307,105 308.579,105 308,102.145 308,101 308,101 308,94 308,94 308,92.9521 307.527,91 309,91 309,91 309,81 309,81 309,81 309,80 309,80 309,78.5758 308.638,75 307,75 307,76.0402 308.645,83 307.5,83 306.822,83 305,73.3096 305,72 305,70.6756 292.817,54 291,54 291,54 301,67.5 301,67.5 305.228,75.9559 307.643,92.2147 303,101.5 294.477,118.546 283.856,118.678 268.5,111 266.792,110.146 258,105.858 258,104 255.776,104 255.728,101.614 254.5,101 240.04,93.77 239.194,77.889 233,65.5 230.705,60.9096 236,55.2219 236,51 233.892,51 230.087,56.3259 229,58.5 229,58.5 228.5,63 228.5,63 228.5,63 228,59.5 228,59.5 227.268,58.0352 222.333,50 220,50 220,54.5618 225.691,61.1179 223,66.5 217.542,77.4154 216.866,92.8168 204.5,99 202.197,100.151 201.859,103 199,103 199,106.055 190.559,109.97 188.5,111 179.856,115.322 164.512,121.524 158,108.5 154.951,102.401 146.844,88.8116 151,80.5 152.688,77.124 155,70.8313 155,67 155,67 151,73 151,73 151,75.17 150.837,83 148,83 148,83 148,92 148,92 148,92 148,95 148,95 148,95 149,97 149,97 149,97 149,98 149,98 149,98 148,100 148,100 148,100 148,104 148,104 148,104 149,105 149,105 149,105 151,106 151,106 151,106 164,120.5 164,120.5 164.454,121.407 164.911,127 166.5,127 168.573,127 172.943,124 174.5,124 178.353,124 183.402,125 187,125  Z"/>

<path  fill="#FF64FF" stroke-width="0" stroke="#FF64FF" d = " M169 51 L168,52 C168,52 169,51 169,51  Z"/>

<path  fill="#FF64FF" stroke-width="0" stroke="#FF64FF" d = " M166 53 L165,54 C165,54 166,53 166,53  Z"/>

<path  fill="#FF64FF" stroke-width="0" stroke="#FF64FF" d = " M164 55 L163,56 C163,56 164,55 164,55  Z"/>

<path  fill="#FE7AFE" stroke-width="0" stroke="#FE7AFE" d = " M191 55 C193.236,55 194.287,60.0743 195,61.5 200.743,72.9857 197,88.2381 197,100 197,100 193.5,103 193.5,103 189.906,104.797 186.054,106.223 182.5,108 170.771,113.864 162.606,91.2882 167,82.5 170.775,74.9493 178.032,67.436 181,61.5 181,61.5 191,55 191,55  Z"/>

<path  fill="#FE7AFE" stroke-width="0" stroke="#FE7AFE" d = " M265 55 C269.461,55 277.061,62.6226 279,66.5 L284,71.5 C288.675,80.85 296.959,99.7706 282.5,107 271.346,112.577 265.086,100 259,100 259,87.3853 255.597,73.3065 261,62.5 261.737,61.0253 262.705,55 265,55  Z"/>

<path  fill="#FF64FF" stroke-width="0" stroke="#FF64FF" d = " M163 57 C161.253,57 161,57.2531 161,59 161,59 163,57 163,57  Z"/>

<path  fill="#FF64FF" stroke-width="0" stroke="#FF64FF" d = " M161 59 C159.288,59 158,61.5711 158,63 159.712,63 161,60.4289 161,59  Z"/>

<path  fill="#FF64FF" stroke-width="0" stroke="#FF64FF" d = " M158 63 C156.288,63 155,65.5711 155,67 156.712,67 158,64.4289 158,63  Z"/>

<path  fill="#FDFB8F" stroke-width="0" stroke="#FDFB8F" d = " M101 167 L105,167 C105,167 108.5,165 108.5,165 108.5,165 112,158.5 112,158.5 115.997,150.507 114.198,134.104 119,124.5 120.116,122.268 119.604,116 123.5,116 124.151,116 120.598,126.303 120,127.5 117.512,132.475 115,147.695 115,153.5 115,156.261 113.687,163 117,163 124.639,163 133.209,130.082 137,122.5 139.179,118.142 147,112.984 147,108 147,108 148,104 148,104 148,104 148,100 148,100 148,100 149,98 149,98 149,98 149,97 149,97 149,97 148,95 148,95 148,95 148,92 148,92 146.237,92 147,83.6574 147,82 147,82 147,80 147,80 145.238,80 141.892,73.1962 139.5,72 133.977,69.2386 106.865,85.7691 104,91.5 104,91.5 99,99.5 99,99.5 97.3581,102.784 97.6664,107.167 96,110.5 95.0299,112.44 95.8638,123 93,123 93,130.884 91.8535,145.207 95,151.5 97.0555,155.611 99.8705,159.241 102,163.5 102,163.5 101,167 101,167  Z"/>

<path  fill="#C9C8C8" stroke-width="0" stroke="#C9C8C8" d = " M305 72 C306.577,72 307,73.7617 307,75 307,76.0402 308.645,83 307.5,83 306.822,83 305,73.3096 305,72  Z"/>

<path  fill="#FDFB8F" stroke-width="0" stroke="#FDFB8F" d = " M352 167 L355,167 C355,162.667 358.687,157.125 361,152.5 364.816,144.868 363,132.08 363,123 363,119.518 360.606,111.713 359,108.5 357.164,104.829 356.281,98.0612 354,93.5 348.372,82.2434 331.784,76.642 322.5,72 314.872,68.1859 311.213,80 310,80 310,80 309,81 309,81 309,81 309,91 309,91 309,92.0479 309.473,94 308,94 308,94 308,101 308,101 309.684,101 309,105.679 309,107 309,113.057 316.312,116.124 319,121.5 323.573,130.646 324.505,141.51 329,150.5 330.266,153.031 335.29,163 339,163 341.526,163 343.286,158.073 342,155.5 341.497,154.493 336,127.545 336,126.5 336,124.995 331.21,118.145 333.5,117 336.258,115.621 339,126.575 339,128 339,134.301 344.611,167 352,167  Z"/>

<path  fill="#C9C8C8" stroke-width="0" stroke="#C9C8C8" d = " M148 82 L148,83 C150.837,83 151,75.17 151,73 151,73 150,74 150,74 150,74 149,75 149,75 149,75 149,76 149,76 149,76 148,82 148,82  Z"/>

<path  fill="#FF64FF" stroke-width="0" stroke="#FF64FF" d = " M150 74 L149,75 C149,75 150,74 150,74  Z"/>

<path  fill="#FF64FF" stroke-width="0" stroke="#FF64FF" d = " M147 82 L148,82 C148,82 149,76 149,76 146.891,76 147,78.5345 147,80 147,80 147,82 147,82  Z"/>

<path  fill="#FC8FFF" stroke-width="0" stroke="#FC8FFF" d = " M223 79 L222,82.5 C222,93.8075 232.816,79 223,79  Z"/>

<path  fill="#FC8FFF" stroke-width="0" stroke="#FC8FFF" d = " M231 79 L230,82.5 C230,94.5038 239.385,79 231,79  Z"/>

<path  fill="#F0F080" stroke-width="0" stroke="#F0F080" d = " M310 80 L309,81 C309,81 309,80 309,80 309,80 310,80 310,80  Z"/>

<path  fill="#F0F080" stroke-width="0" stroke="#F0F080" d = " M148 83 L148,92 C146.237,92 147,83.6574 147,82 147,82 148,82 148,82 148,82 148,83 148,83  Z"/>

<path  fill="#A9A9A8" stroke-width="0" stroke="#A9A9A8" d = " M222 95 C224.536,95 225.915,98 227.5,98 229.828,98 231.764,95 235,95 235,89.0381 222,89.0901 222,95  Z"/>

<path  fill="#F0F080" stroke-width="0" stroke="#F0F080" d = " M309 91 C307.527,91 308,92.9521 308,94 309.473,94 309,92.0479 309,91  Z"/>

<path  fill="#F0F080" stroke-width="0" stroke="#F0F080" d = " M148 95 L149,97 C149,97 148,95 148,95  Z"/>

<path  fill="#FFFC8E" stroke-width="0" stroke="#FFFC8E" d = " M217 105 C220.078,105 227.493,101.997 229.5,103 232.783,104.641 235.996,105 240,105 240,105 240,103 240,103 240,103 240,99 240,99 240,99 239,97 239,97 239,97 238,96 238,96 238,94.5271 236.048,95 235,95 231.764,95 229.828,98 227.5,98 225.915,98 224.536,95 222,95 219.629,95 217,95.0174 217,98 217,98 216,100 216,100 216,100 216,102 216,102 216,102 216,103 216,103 216,103 217,105 217,105  Z"/>

<path  fill="#F0F080" stroke-width="0" stroke="#F0F080" d = " M238 96 L239,97 C239,97 238,96 238,96  Z"/>

<path  fill="#F0F080" stroke-width="0" stroke="#F0F080" d = " M149 98 L148,100 C148,100 149,98 149,98  Z"/>

<path  fill="#F0F080" stroke-width="0" stroke="#F0F080" d = " M217 98 L216,100 C216,100 217,98 217,98  Z"/>

<path  fill="#F0F080" stroke-width="0" stroke="#F0F080" d = " M240 103 L241,103 C241,101.855 241.579,99 240,99 240,99 240,103 240,103  Z"/>

<path  fill="#F0F080" stroke-width="0" stroke="#F0F080" d = " M307 105 L309,107 C309,105.679 309.684,101 308,101 308,102.145 308.579,105 307,105  Z"/>

<path  fill="#A9A9A8" stroke-width="0" stroke="#A9A9A8" d = " M215 107 L212,108 C212,106.016 213.444,102 216,102 216,102 216,103 216,103 216,103 216,105 216,105 216,105 216,106 216,106 216,106 215,107 215,107  Z"/>

<path  fill="#F0F080" stroke-width="0" stroke="#F0F080" d = " M216 105 L217,105 C217,105 216,103 216,103 216,103 216,105 216,105  Z"/>

<path  fill="#FDFA91" stroke-width="0" stroke="#FDFA91" d = " M241 155 L242,155 C242,153.049 244.454,154.523 245.5,154 248.925,152.288 253.995,150 258,150 258,148.986 261.959,148 263,148 263,148 265,147 265,147 265,147 267,146 267,146 267,146 269,145 269,145 269,145 270,145 270,145 270,145 271,145 271,145 271,145 272,144 272,144 272,144 274,144 274,144 274,144 277,137.5 277,137.5 277,137.5 276,131 276,131 276,128.478 267,126.835 267,123 262.986,123 250.741,108 244,108 244,108 240,105 240,105 235.996,105 232.783,104.641 229.5,103 227.493,101.997 220.078,105 217,105 217,105 216,105 216,105 216,105 216,106 216,106 216,106 215,107 215,107 215,107 212,108 212,108 210.57,108 189,122.375 189,124 189,124 188,125 188,125 188,125 187,125 187,125 187,126.777 182.987,130 181,130 181,130 180,131 180,131 180,135.854 182,139.932 182,144 182,144 185,144 185,144 185,144 186,145 186,145 186,145 189,145 189,145 189,145 190,146 190,146 190,146 191,147 191,147 191,147 192,147 192,147 192,147 194,148 194,148 194,148 198,150 198,150 202.005,150 207.075,152.288 210.5,154 211.546,154.523 214,153.049 214,155 214,155 215,155 215,155 219.53,155 226.984,159.258 231.5,157 234.219,155.641 237.76,155 241,155  Z"/>

<path  fill="#A9A9A8" stroke-width="0" stroke="#A9A9A8" d = " M240 105 L244,108 C244,106.346 244.177,103 241,103 241,103 240,103 240,103 240,103 240,105 240,105  Z"/>

<path  fill="#F0F080" stroke-width="0" stroke="#F0F080" d = " M149 105 C149,106.238 148.577,108 147,108 147,108 148,104 148,104 148,104 149,105 149,105  Z"/>

<path  fill="#FCFB90" stroke-width="0" stroke="#FCFB90" d = " M140 162 C140,156.111 145,152.35 145,147 L144.5,141 L141,150.5 C138.402,155.695 132.337,163 126,163 124.758,163 117,165.558 117,163 124.639,163 133.209,130.082 137,122.5 139.179,118.142 147,112.984 147,108 148.577,108 149,106.238 149,105 149,105 151,106 151,106 151,114.959 157.986,115.472 161,121.5 162.993,125.486 161,129.234 161,133 161,137.887 149.444,152.056 145.5,156 145.5,156 140,162 140,162  Z"/>

<path  fill="#FCFB90" stroke-width="0" stroke="#FCFB90" d = " M316 161 C316,155.148 311,151.529 311,146 L311.5,140 L317,153.5 C319.457,158.413 325.997,163 332,163 332.759,163 339,165.768 339,163 335.29,163 330.266,153.031 329,150.5 324.505,141.51 323.573,130.646 319,121.5 316.312,116.124 309,113.057 309,107 309,107 307,105 307,105 305.253,105 305,105.253 305,107 305,115.93 298.386,115.727 295,122.5 293.119,126.262 295,129.211 295,133 295,135.421 313.357,161 316,161  Z"/>

<path  fill="#F0F080" stroke-width="0" stroke="#F0F080" d = " M180 131 L175.5,132 C173.798,131.149 169.944,127.278 166.5,129 164.197,130.151 163.859,133 161,133 161,129.234 162.993,125.486 161,121.5 157.986,115.472 151,114.959 151,106 151,106 164,120.5 164,120.5 164.454,121.407 164.911,127 166.5,127 168.573,127 172.943,124 174.5,124 178.353,124 183.402,125 187,125 187,126.777 182.987,130 181,130 181,130 180,131 180,131  Z"/>

<path  fill="#F0F080" stroke-width="0" stroke="#F0F080" d = " M216 106 L215,107 C215,107 216,106 216,106  Z"/>

<path  fill="#F0F080" stroke-width="0" stroke="#F0F080" d = " M276 131 L280.5,132 C282.843,130.829 287.318,127.409 290.5,129 292.425,129.962 292.165,133 295,133 295,129.211 293.119,126.262 295,122.5 298.386,115.727 305,115.93 305,107 305,107 292,121.5 292,121.5 291.517,122.466 291.481,127 289.5,127 287.231,127 283.436,124 281.5,124 279.823,124 272.92,126.71 271.5,126 271.5,126 267,123 267,123 267,126.835 276,128.478 276,131  Z"/>

<path  fill="#CBC9CC" stroke-width="0" stroke="#CBC9CC" d = " M119 203 C116.158,203 111.58,208.92 109.5,211 L108,214 C108,210.235 100,216.994 100,213.5 100,210.774 108.884,207.808 110.5,207 118.28,203.11 123,195.7 123,186 123,183.891 116.991,182.746 115.5,182 103.26,175.88 92.6187,183.941 82.5,189 82.5,189 66,201.5 66,201.5 66,201.5 75.5,191 75.5,191 82.9103,187.295 89.1852,180.657 96.5,177 99.3226,175.589 104.135,177.229 106,173.5 107.411,170.678 105,170.008 105,167 105,167 108.5,165 108.5,165 108.5,165 112,158.5 112,158.5 115.997,150.507 114.198,134.104 119,124.5 120.116,122.268 119.604,116 123.5,116 124.151,116 120.598,126.303 120,127.5 117.512,132.475 115,147.695 115,153.5 115,156.261 113.687,163 117,163 117,165.558 124.758,163 126,163 132.337,163 138.402,155.695 141,150.5 141,150.5 144.5,141 144.5,141 144.5,141 145,147 145,147 145,152.35 140,156.111 140,162 140,181.297 160.901,157 165,157 165,157 166,157 166,157 166,157 164,159 164,159 164,159 163,160 163,160 163,160.782 157.917,165 157,165 157,165 156,166 156,166 156,166 155,167 155,167 155,167 153,170 153,170 153,170 152,171 152,171 152,171 151,172 151,172 151,172 151,173 151,173 151,173 150,175 150,175 150,175 149,176 149,176 149,176 149,177 149,177 147.288,177 146,179.571 146,181 146,181 145,182 145,182 145,184.101 142.169,187 140,187 140,179.753 135.177,188 133,188 133,188 133,187 133,187 133,183.34 141.289,180.078 139,175.5 137.873,173.245 137.113,168.307 134.5,167 131.272,165.386 111.759,168.018 117,178.5 118.456,181.412 123.116,181.808 125.5,183 125.5,183 131,188 131,188 131,188 132,189 132,189 132,190.457 129,190.46 129,193 129,193 128,194 128,194 128,194 127,195 127,195 127,195 126,195 126,195 126,195 125,196 125,196 125,196 122,200 122,200 122,200 121,201 121,201 121,201 120,202 120,202 120,202 119,203 119,203  Z"/>

<path  fill="#CBC9CC" stroke-width="0" stroke="#CBC9CC" d = " M337 203 C340.999,203 348,211.244 348,215 348,215 349.5,213 349.5,213 349.5,213 355.5,215 355.5,215 358.084,215 353.068,210.284 352.5,210 347.319,207.409 341.89,204.39 337.5,200 335.14,197.64 333,193.382 333,190 333,188.855 332.421,186 334,186 334,182.399 342.851,181 345.5,181 360.751,181 361.108,182.304 374.5,189 374.5,189 390,201.5 390,201.5 390.859,199.782 382.519,192.01 380.5,191 373.44,187.47 367.981,180.74 360.5,177 358.191,175.846 352.408,177.316 351,174.5 349.106,170.711 352,170.274 352,167 344.611,167 339,134.301 339,128 339,126.575 336.258,115.621 333.5,117 331.21,118.145 336,124.995 336,126.5 336,127.545 341.497,154.493 342,155.5 343.286,158.073 341.526,163 339,163 339,165.768 332.759,163 332,163 325.997,163 319.457,158.413 317,153.5 317,153.5 311.5,140 311.5,140 311.5,140 311,146 311,146 311,151.529 316,155.148 316,161 316,183.54 294.289,155 290,155 290,159.553 288.41,153 285,153 285,154.608 293.496,161 295,161 295,161 297,163 297,163 297,163 301,167 301,167 301,167 302,168 302,168 302,168 303,170 303,170 303,170 305,172 305,172 305,172 306,173 306,173 306,173 312,183 312,183 312,183 316,187 316,187 316,181.332 323,186.161 323,189 323,189 324,189 324,189 324,189 324,187 324,187 318.369,187 314.954,170.273 321.5,167 325.327,165.087 336.407,168.454 339.5,170 347.86,174.18 331.576,182.962 329.5,184 329.5,184 327,187 327,187 327,187 326,188 326,188 326,188 325,189 325,189 325,191.25 329,191.259 329,194 329,194 334,199 334,199 334,199 335,200 335,200 335,200 336,202 336,202 336,202 337,203 337,203  Z"/>

<path  fill="#FCFC90" stroke-width="0" stroke="#FCFC90" d = " M94 165 L101,167 C101,167 102,163.5 102,163.5 99.8705,159.241 97.0555,155.611 95,151.5 91.8535,145.207 93,130.884 93,123 80.0921,123 76.518,145.536 81,154.5 83.1163,158.733 94,160.514 94,165  Z"/>

<path  fill="#FCFC90" stroke-width="0" stroke="#FCFC90" d = " M363 165 L355,167 C355,162.667 358.687,157.125 361,152.5 364.816,144.868 363,132.08 363,123 377.107,123 379.583,146.335 375,155.5 373.001,159.497 363,160.04 363,165  Z"/>

<path  fill="#F0F080" stroke-width="0" stroke="#F0F080" d = " M189 124 L188,125 C188,125 189,124 189,124  Z"/>

<path  fill="#FFFC8E" stroke-width="0" stroke="#FFFC8E" d = " M165 157 C160.901,157 140,181.297 140,162 140,162 145.5,156 145.5,156 149.444,152.056 161,137.887 161,133 163.859,133 164.197,130.151 166.5,129 169.944,127.278 173.798,131.149 175.5,132 175.5,132 180,131 180,131 180,135.854 182,139.932 182,144 180.854,144 176,145.339 176,147 174.253,147 174,147.253 174,149 174,149 172,150 172,150 172,150 171,151 171,151 171,151 170,152 170,152 170,152 169,153 169,153 169,153 167,155 167,155 167,155 166,155 166,155 166,155 165,156 165,156 165,156 165,157 165,157  Z"/>

<path  fill="#FFFC8E" stroke-width="0" stroke="#FFFC8E" d = " M290 155 C294.289,155 316,183.54 316,161 313.357,161 295,135.421 295,133 292.165,133 292.425,129.962 290.5,129 287.318,127.409 282.843,130.829 280.5,132 280.5,132 276,131 276,131 276,131 277,137.5 277,137.5 277,137.5 274,144 274,144 276.479,144 285,147.678 285,151 285,151 290,155 290,155  Z"/>

<path  fill="#FFFC8E" stroke-width="0" stroke="#FFFC8E" d = " M181 130 L180,131 C180,131 181,130 181,130  Z"/>

<path  fill="#CBC9CC" stroke-width="0" stroke="#CBC9CC" d = " M176 147 C177.257,147 184,144.539 184,147 184,147 186,146 186,146 186,146 186,145 186,145 186,145 185,144 185,144 185,144 182,144 182,144 180.854,144 176,145.339 176,147  Z"/>

<path  fill="#F0F080" stroke-width="0" stroke="#F0F080" d = " M185 144 L186,145 C186,145 185,144 185,144  Z"/>

<path  fill="#F0F080" stroke-width="0" stroke="#F0F080" d = " M272 144 L271,145 C271,145 272,144 272,144  Z"/>

<path  fill="#CBC9CC" stroke-width="0" stroke="#CBC9CC" d = " M273 146 C278.575,146 282.155,151 285,151 285,147.678 276.479,144 274,144 274,144 272,144 272,144 272,144 271,145 271,145 271,145 271,146 271,146 271,146 272,146 272,146 272,146 273,146 273,146  Z"/>

<path  fill="#FF9B88" stroke-width="0" stroke="#FF9B88" d = " M190 146 L191,147 C191,147 186,146 186,146 186,146 186,145 186,145 186,145 189,145 189,145 189,145 190,146 190,146  Z"/>

<path  fill="#F0F080" stroke-width="0" stroke="#F0F080" d = " M189 145 L190,146 C190,146 189,145 189,145  Z"/>

<path  fill="#FF9B88" stroke-width="0" stroke="#FF9B88" d = " M269 145 L267,146 C267,146 269,145 269,145  Z"/>

<path  fill-rule="evenodd" fill="#FFAD6D" stroke-width="0" stroke="#FFAD6D" d = " M269 152 L266,157.5 C266,159.951 272.139,162.32 273.5,163 279.115,165.808 293.032,182.234 299.5,179 305.6,175.95 291.034,166.267 288.5,165 L276.5,161 C272.756,159.128 272.578,152 269,152  M306 180 C306,181.636 301,183.733 301,187 291.052,187 290.177,182.338 281.5,178 278.681,176.591 273.183,178.842 271.5,178 271.5,178 269,176 269,176 269,176 269,173 269,173 269,171.364 262.549,160 261,160 261,160 261,159 261,159 261,159 261,154 261,154 261,154 261,151 261,151 261,151 262,150 262,150 262,150 263,149 263,149 263,149 263,148 263,148 263,148 265,147 265,147 265,147 267,146 267,146 267,146 269,145 269,145 269,145 270,145 270,145 270,145 271,146 271,146 271,146 272,146 272,146 272,146 273,147 273,147 273,147 275,147 275,147 275,147 276,148 276,148 276,148 283,152 283,152 283,152 284,153 284,153 284,153 285,153 285,153 285,154.608 293.496,161 295,161 295,161 297,163 297,163 297,163 301,167 301,167 301,167 302,168 302,168 302,168 303,170 303,170 303,170 305,172 305,172 305,172 305,173 305,173 305,173 298.5,167 298.5,167 296.044,165.772 298.709,169.918 299,170.5 299.815,172.13 306,175.364 306,178 306,178 306,180 306,180  Z"/>

<path  fill="#FF9B88" stroke-width="0" stroke="#FF9B88" d = " M271 145 L271,146 C271,146 270,145 270,145 270,145 271,145 271,145  Z"/>

<path  fill="#CBC7CC" stroke-width="0" stroke="#CBC7CC" d = " M167 155 L169,155 C169,155 171,154 171,154 171,154 172,153 172,153 175.932,153 179.161,147 184,147 184,144.539 177.257,147 176,147 176,147 174,149 174,149 174,149 172,150 172,150 172,150 171,151 171,151 171,151 170,152 170,152 170,152 169,153 169,153 169,153 167,155 167,155  Z"/>

<path  fill-rule="evenodd" fill="#FFAD6D" stroke-width="0" stroke="#FFAD6D" d = " M157 168 C157,169.93 158.93,168 157,168  M158 167 C158,168.93 159.93,167 158,167  M185 152 C185,165.359 165.513,161.474 161,170.5 159.973,172.555 153.921,174.341 156,178.5 157.246,180.993 164.369,177.566 165.5,177 L179.5,165 C182.355,163.573 188.325,161.851 190,158.5 191.464,155.572 187.483,152 185,152  M151 181 C153.556,181 155,185.016 155,187 156.423,187 158.544,188.978 160.5,188 171.223,182.639 173.428,177 187,177 187,177 187,174 187,174 187,174 188,173 188,173 188,173 189,172 189,172 189,172 189,171 189,171 189,171 190,169 190,169 190,169 191,167 191,167 191,165.762 191.423,164 193,164 193,164 193,163 193,163 193,163 194,162 194,162 194,162 195,161 195,161 195,161 195,160 195,160 195,160 196,154 196,154 196,154 195,151 195,151 195,151 195,150 195,150 195,150 192,147 192,147 192,147 191,147 191,147 191,147 186,146 186,146 186,146 184,147 184,147 179.161,147 175.932,153 172,153 172,153 171,154 171,154 171,154 169,155 169,155 169,155 167,157 167,157 167,157 166,157 166,157 166,157 164,159 164,159 164,159 163,160 163,160 163,160.782 157.917,165 157,165 157,165 156,166 156,166 156,166 155,167 155,167 155,167 153,170 153,170 153,170 153,171 153,171 154.764,171 155.313,168.407 156.5,169 158.114,169.807 151.967,178 150,178 150,178 151,181 151,181  Z"/>

<path  fill="#FF9B88" stroke-width="0" stroke="#FF9B88" d = " M267 146 L265,147 C265,147 267,146 267,146  Z"/>

<path  fill="#FF9B88" stroke-width="0" stroke="#FF9B88" d = " M273 146 L273,147 C273,147 272,146 272,146 272,146 273,146 273,146  Z"/>

<path  fill="#CBC7CC" stroke-width="0" stroke="#CBC7CC" d = " M285 153 C288.41,153 290,159.553 290,155 290,155 285,151 285,151 282.155,151 278.575,146 273,146 273,146 273,147 273,147 273,147 275,147 275,147 275,147 276,148 276,148 276,148 283,152 283,152 283,152 284,153 284,153 284,153 285,153 285,153  Z"/>

<path  fill="#CBC9CC" stroke-width="0" stroke="#CBC9CC" d = " M176 147 C174.253,147 174,147.253 174,149 174,149 176,147 176,147  Z"/>

<path  fill="#FF9B88" stroke-width="0" stroke="#FF9B88" d = " M194 148 L195,150 C195,150 192,147 192,147 192,147 194,148 194,148  Z"/>

<path  fill="#FF9B88" stroke-width="0" stroke="#FF9B88" d = " M265 147 L263,148 C263,148 265,147 265,147  Z"/>

<path  fill="#FF9B88" stroke-width="0" stroke="#FF9B88" d = " M275 147 L276,148 C276,148 275,147 275,147  Z"/>

<path  fill="#F0F080" stroke-width="0" stroke="#F0F080" d = " M195 151 L197,151 C197,151 198,150 198,150 198,150 194,148 194,148 194,148 195,150 195,150 195,150 195,151 195,151  Z"/>

<path  fill="#F0F080" stroke-width="0" stroke="#F0F080" d = " M259 151 L261,151 C261,151 262,150 262,150 262,150 263,149 263,149 263,149 263,148 263,148 261.959,148 258,148.986 258,150 258,150 259,151 259,151  Z"/>

<path  fill="#FF9B88" stroke-width="0" stroke="#FF9B88" d = " M263 149 L262,150 C262,150 263,149 263,149  Z"/>

<path  fill="#CBC9CC" stroke-width="0" stroke="#CBC9CC" d = " M172 150 L171,151 C171,151 172,150 172,150  Z"/>

<path  fill="#AAA9A7" stroke-width="0" stroke="#AAA9A7" d = " M201 154 L214,155 C214,153.049 211.546,154.523 210.5,154 207.075,152.288 202.005,150 198,150 198,150 197,151 197,151 197,151 201,154 201,154  Z"/>

<path  fill="#AAA9A7" stroke-width="0" stroke="#AAA9A7" d = " M255 154 L242,155 C242,153.049 244.454,154.523 245.5,154 248.925,152.288 253.995,150 258,150 258,150 259,151 259,151 259,151 255,154 255,154  Z"/>

<path  fill="#FF9B88" stroke-width="0" stroke="#FF9B88" d = " M262 150 L261,151 C261,151 262,150 262,150  Z"/>

<path  fill="#CBC9CC" stroke-width="0" stroke="#CBC9CC" d = " M171 151 L170,152 C170,152 171,151 171,151  Z"/>

<path  fill="#FF9B88" stroke-width="0" stroke="#FF9B88" d = " M201 154 L197,158 C197,156.855 197.579,154 196,154 196,154 195,151 195,151 195,151 197,151 197,151 197,151 201,154 201,154  Z"/>

<path  fill="#FF9B88" stroke-width="0" stroke="#FF9B88" d = " M261 154 C259.423,154 259,155.762 259,157 259,157 255,154 255,154 255,154 259,151 259,151 259,151 261,151 261,151 261,151 261,154 261,154  Z"/>

<path  fill="#CBC9CC" stroke-width="0" stroke="#CBC9CC" d = " M170 152 L169,153 C169,153 170,152 170,152  Z"/>

<path  fill="#CBC9CB" stroke-width="0" stroke="#CBC9CB" d = " M185 152 C185,165.359 165.513,161.474 161,170.5 159.973,172.555 153.921,174.341 156,178.5 157.246,180.993 164.369,177.566 165.5,177 L179.5,165 C182.355,163.573 188.325,161.851 190,158.5 191.464,155.572 187.483,152 185,152  Z"/>

<path  fill="#CBC9CB" stroke-width="0" stroke="#CBC9CB" d = " M269 152 L266,157.5 C266,159.951 272.139,162.32 273.5,163 279.115,165.808 293.032,182.234 299.5,179 305.6,175.95 291.034,166.267 288.5,165 L276.5,161 C272.756,159.128 272.578,152 269,152  Z"/>

<path  fill="#FF9B88" stroke-width="0" stroke="#FF9B88" d = " M283 152 L284,153 C284,153 283,152 283,152  Z"/>

<path  fill="#CBC9CC" stroke-width="0" stroke="#CBC9CC" d = " M172 153 L171,154 C171,154 172,153 172,153  Z"/>

<path  fill="#CBC9CC" stroke-width="0" stroke="#CBC9CC" d = " M171 154 L169,155 C169,155 171,154 171,154  Z"/>

<path  fill="#FF79FE" stroke-width="0" stroke="#FF79FE" d = " M195 160 L196,160 C196,160 197,159 197,159 197,159 197,158 197,158 197,156.855 197.579,154 196,154 196,154 195,160 195,160  Z"/>

<path  fill-rule="evenodd" fill="#FFBA84" stroke-width="0" stroke="#FFBA84" d = " M234 164 C234,166.125 231,167.511 231,170.5 231,172.788 231.889,173.389 233.5,175 240.698,182.198 246.608,164 234,164  M218 164 L215,170 C215,187.963 235.877,164 218,164  M253 159 C253,160.791 249.73,161.959 251,164.5 254.722,171.944 263.039,159 253,159  M200 159 C200,160.606 197.919,163.339 199,165.5 201.689,170.878 210.982,159 200,159  M252 195 L250,197 C250,186.027 233,194.857 233,188 235.203,188 237.569,191.465 240.5,190 253.667,183.416 233,170.008 233,187 228.793,187 232.719,180.11 230.5,179 222.472,174.986 226.632,187 224,187 224,166.578 196.742,190 221,190 221,192.39 212.144,190.178 210.5,191 206.386,193.057 207,194.626 207,198 207,198 204,195 204,195 204,189.355 206.073,182 197,182 197,180.486 201.631,178.762 200,175.5 196.607,168.715 189.846,172.191 193,178.5 193,178.5 196,182 196,182 196,182 194,183 194,183 194,182.302 191.286,176 191,176 191,176 194,165 194,165 194,165 195,163 195,163 195,163 195,162 195,162 195,162 196,160 196,160 196,160 197,159 197,159 197,159 197,158 197,158 197,158 201,154 201,154 201,154 214,155 214,155 214,155 215,155 215,155 215,157.257 227,157.761 227,163 227,164.919 229,165.488 229,163 229,163 235.5,157 235.5,157 236.819,156.341 241,157.334 241,155 241,155 242,155 242,155 242,155 255,154 255,154 255,154 259,157 259,157 259,157 259,158 259,158 259,158 261,161 261,161 261,161 261,162 261,162 261,162 262,164 262,164 262,164 262,165 262,165 262,165 263,166 263,166 263,170.22 265,173.344 265,178 263.986,178 263,181.959 263,183 263,183 261,182 261,182 261,180.991 263.421,176.657 264,175.5 265.767,171.966 259.334,168.832 257,173.5 254.788,177.924 259,179.387 259,182 250.726,182 252,189.456 252,195  Z"/>

<path  fill="#FF79FE" stroke-width="0" stroke="#FF79FE" d = " M259 158 L261,159 C261,159 261,154 261,154 259.423,154 259,155.762 259,157 259,157 259,158 259,158  Z"/>

<path  fill="#CBC9CC" stroke-width="0" stroke="#CBC9CC" d = " M166 155 L165,156 C165,156 166,155 166,155  Z"/>

<path  fill="#CBC7CC" stroke-width="0" stroke="#CBC7CC" d = " M166 157 L167,157 C167,157 167,155 167,155 167,155 166,155 166,155 166,155 165,156 165,156 165,156 165,157 165,157 165,157 166,157 166,157  Z"/>

<path  fill="#CBC9CC" stroke-width="0" stroke="#CBC9CC" d = " M169 155 L167,157 C167,157 167,155 167,155 167,155 169,155 169,155  Z"/>

<path  fill="#AAA9A7" stroke-width="0" stroke="#AAA9A7" d = " M227 163 L229,163 C229,163 235.5,157 235.5,157 236.819,156.341 241,157.334 241,155 237.76,155 234.219,155.641 231.5,157 226.984,159.258 219.53,155 215,155 215,157.257 227,157.761 227,163  Z"/>

<path  fill="#FF9B88" stroke-width="0" stroke="#FF9B88" d = " M261 160 L261,161 C261,161 259,158 259,158 259,158 261,159 261,159 261,159 261,160 261,160  Z"/>

<path  fill="#FF9B88" stroke-width="0" stroke="#FF9B88" d = " M164 159 L163,160 C163,160 164,159 164,159  Z"/>

<path  fill="#FF9B88" stroke-width="0" stroke="#FF9B88" d = " M197 159 L196,160 C196,160 197,159 197,159  Z"/>

<path  fill="#FEC395" stroke-width="0" stroke="#FEC395" d = " M200 159 C200,160.606 197.919,163.339 199,165.5 201.689,170.878 210.982,159 200,159  Z"/>

<path  fill="#FEC395" stroke-width="0" stroke="#FEC395" d = " M253 159 C253,160.791 249.73,161.959 251,164.5 254.722,171.944 263.039,159 253,159  Z"/>

<path  fill="#FF9B88" stroke-width="0" stroke="#FF9B88" d = " M195 161 L195,162 C195,162 196,160 196,160 196,160 195,160 195,160 195,160 195,161 195,161  Z"/>

<path  fill="#FF79FE" stroke-width="0" stroke="#FF79FE" d = " M262 163 C265.168,163 264.876,173 269,173 269,171.364 262.549,160 261,160 261,160 261,161 261,161 261,161 262,162 262,162 262,162 262,163 262,163  Z"/>

<path  fill="#FF79FE" stroke-width="0" stroke="#FF79FE" d = " M194 162 L195,162 C195,162 195,161 195,161 195,161 194,162 194,162  Z"/>

<path  fill="#FDC395" stroke-width="0" stroke="#FDC395" d = " M261 162 L262,162 C262,162 261,161 261,161 261,161 261,162 261,162  Z"/>

<path  fill="#FF9B88" stroke-width="0" stroke="#FF9B88" d = " M295 161 L297,163 C297,163 295,161 295,161  Z"/>

<path  fill="#FF79FE" stroke-width="0" stroke="#FF79FE" d = " M193 163 L194,163 C194,163 194,162 194,162 194,162 193,163 193,163  Z"/>

<path  fill="#FDC395" stroke-width="0" stroke="#FDC395" d = " M194 163 L195,163 C195,163 195,162 195,162 195,162 194,162 194,162 194,162 194,163 194,163  Z"/>

<path  fill="#FF9B88" stroke-width="0" stroke="#FF9B88" d = " M262 163 L262,164 C262,164 261,162 261,162 261,162 262,162 262,162 262,162 262,163 262,163  Z"/>

<path  fill="#FDC395" stroke-width="0" stroke="#FDC395" d = " M191 176 C191,181.278 189.455,177 187,177 187,177 187,174 187,174 187,174 188,173 188,173 188,173 189,172 189,172 189,172 189,171 189,171 189,171 190,169 190,169 190,169 191,167 191,167 192.577,167 193,165.238 193,164 193,164 193,163 193,163 193,163 194,163 194,163 194,163 194,165 194,165 194,165 191,176 191,176  Z"/>

<path  fill="#FF9B88" stroke-width="0" stroke="#FF9B88" d = " M195 163 L194,165 C194,165 194,163 194,163 194,163 195,163 195,163  Z"/>

<path  fill="#FF9B88" stroke-width="0" stroke="#FF9B88" d = " M227 163 L229,163 C229,165.488 227,164.919 227,163  Z"/>

<path  fill="#FDC395" stroke-width="0" stroke="#FDC395" d = " M269 176 C269,178.978 266.005,178 265,178 265,173.344 263,170.22 263,166 263,166 262,165 262,165 262,165 262,164 262,164 262,164 262,163 262,163 265.168,163 264.876,173 269,173 269,173 269,176 269,176  Z"/>

<path  fill="#FF79FE" stroke-width="0" stroke="#FF79FE" d = " M193 164 C191.423,164 191,165.762 191,167 192.577,167 193,165.238 193,164  Z"/>

<path  fill="#FEB985" stroke-width="0" stroke="#FEB985" d = " M218 164 L215,170 C215,187.963 235.877,164 218,164  Z"/>

<path  fill="#FEB985" stroke-width="0" stroke="#FEB985" d = " M234 164 C234,166.125 231,167.511 231,170.5 231,172.788 231.889,173.389 233.5,175 240.698,182.198 246.608,164 234,164  Z"/>

<path  fill-rule="evenodd" fill="#FFFC8D" stroke-width="0" stroke="#FFFC8D" d = " M63 203 C63,206.746 65.0912,203 63,203  M123 186 C119.322,186 113.746,189.377 110.5,191 106.818,192.841 101.138,191.181 97.5,193 89.4226,197.039 79,203.655 79,215 77.2155,215 78,225.634 78,227.5 78,235.652 68.4495,249.975 58.5,245 26.7896,229.145 49.4157,192.042 71.5,181 80.07,176.715 78.3999,165 94,165 94,165 101,167 101,167 101,167 105,167 105,167 105,170.008 107.411,170.678 106,173.5 104.135,177.229 99.3226,175.589 96.5,177 89.1852,180.657 82.9103,187.295 75.5,191 75.5,191 66,201.5 66,201.5 66,201.5 82.5,189 82.5,189 92.6187,183.941 103.26,175.88 115.5,182 116.991,182.746 123,183.891 123,186  Z"/>

<path  fill="#FF9B88" stroke-width="0" stroke="#FF9B88" d = " M157 165 L156,166 C156,166 157,165 157,165  Z"/>

<path  fill="#FF9B88" stroke-width="0" stroke="#FF9B88" d = " M262 165 L263,166 C263,166 262,165 262,165  Z"/>

<path  fill="#FFFC8D" stroke-width="0" stroke="#FFFC8D" d = " M334 186 L345.5,191 C349.182,192.841 354.862,191.181 358.5,193 366.032,196.766 377,202.692 377,213 378.788,213 378,224.092 378,226 378,235.484 387.604,250.448 398.5,245 428.196,230.152 407.877,192.188 385.5,181 376.314,176.407 376.213,165 363,165 363,165 355,167 355,167 355,167 352,167 352,167 352,170.274 349.106,170.711 351,174.5 352.408,177.316 358.191,175.846 360.5,177 367.981,180.74 373.44,187.47 380.5,191 382.519,192.01 390.859,199.782 390,201.5 390,201.5 374.5,189 374.5,189 361.108,182.304 360.751,181 345.5,181 342.851,181 334,182.399 334,186  Z"/>

<path  fill="#FF9B88" stroke-width="0" stroke="#FF9B88" d = " M156 166 L155,167 C155,167 156,166 156,166  Z"/>

<path  fill="#CCCCCA" stroke-width="0" stroke="#CCCCCA" d = " M131 188 L132,188 C132,188 133,187 133,187 133,183.34 141.289,180.078 139,175.5 137.873,173.245 137.113,168.307 134.5,167 131.272,165.386 111.759,168.018 117,178.5 118.456,181.412 123.116,181.808 125.5,183 125.5,183 131,188 131,188  Z"/>

<path  fill="#CBC9C8" stroke-width="0" stroke="#CBC9C8" d = " M158 167 C158,168.93 159.93,167 158,167  Z"/>

<path  fill="#FF79FE" stroke-width="0" stroke="#FF79FE" d = " M191 167 L190,169 C190,169 191,167 191,167  Z"/>

<path  fill="#CBC9C8" stroke-width="0" stroke="#CBC9C8" d = " M305 173 L298.5,167 C296.044,165.772 298.709,169.918 299,170.5 299.815,172.13 306,175.364 306,178 308.402,178 305,174.238 305,173  Z"/>

<path  fill="#FF9B88" stroke-width="0" stroke="#FF9B88" d = " M301 167 L302,168 C302,168 301,167 301,167  Z"/>

<path  fill="#CCCCCA" stroke-width="0" stroke="#CCCCCA" d = " M327 187 L326,188 C326,188 324,187 324,187 318.369,187 314.954,170.273 321.5,167 325.327,165.087 336.407,168.454 339.5,170 347.86,174.18 331.576,182.962 329.5,184 329.5,184 327,187 327,187  Z"/>

<path  fill="#CBC9C8" stroke-width="0" stroke="#CBC9C8" d = " M157 168 C157,169.93 158.93,168 157,168  Z"/>

<path  fill="#CBC9C8" stroke-width="0" stroke="#CBC9C8" d = " M149 177 L150,178 C151.967,178 158.114,169.807 156.5,169 155.313,168.407 154.764,171 153,171 153,171 152,173 152,173 152,173 151,173 151,173 151,173 150,175 150,175 150,175 149,176 149,176 149,176 149,177 149,177  Z"/>

<path  fill="#FF79FE" stroke-width="0" stroke="#FF79FE" d = " M190 169 L189,171 C189,171 190,169 190,169  Z"/>

<path  fill="#F0F080" stroke-width="0" stroke="#F0F080" d = " M152 171 L153,171 C153,171 153,170 153,170 153,170 152,171 152,171  Z"/>

<path  fill="#FF9B88" stroke-width="0" stroke="#FF9B88" d = " M303 170 L305,172 C305,172 303,170 303,170  Z"/>

<path  fill="#F0F080" stroke-width="0" stroke="#F0F080" d = " M151 172 L152,172 C152,172 152,171 152,171 152,171 151,172 151,172  Z"/>

<path  fill="#FFAD6D" stroke-width="0" stroke="#FFAD6D" d = " M152 172 L152,173 C152,173 153,171 153,171 153,171 152,171 152,171 152,171 152,172 152,172  Z"/>

<path  fill="#FFBA86" stroke-width="0" stroke="#FFBA86" d = " M196 182 L197,182 C197,180.486 201.631,178.762 200,175.5 196.607,168.715 189.846,172.191 193,178.5 193,178.5 196,182 196,182  Z"/>

<path  fill="#FFBA86" stroke-width="0" stroke="#FFBA86" d = " M259 182 L261,182 C261,180.991 263.421,176.657 264,175.5 265.767,171.966 259.334,168.832 257,173.5 254.788,177.924 259,179.387 259,182  Z"/>

<path  fill="#FF9B88" stroke-width="0" stroke="#FF9B88" d = " M151 173 L152,173 C152,173 152,172 152,172 152,172 151,172 151,172 151,172 151,173 151,173  Z"/>

<path  fill="#FF79FE" stroke-width="0" stroke="#FF79FE" d = " M189 172 L188,173 C188,173 189,172 189,172  Z"/>

<path  fill="#F0F080" stroke-width="0" stroke="#F0F080" d = " M305 173 L306,173 C306,173 305,172 305,172 305,172 305,173 305,173  Z"/>

<path  fill="#FF9B88" stroke-width="0" stroke="#FF9B88" d = " M151 173 L150,175 C150,175 151,173 151,173  Z"/>

<path  fill="#FF79FE" stroke-width="0" stroke="#FF79FE" d = " M188 173 L187,174 C187,174 188,173 188,173  Z"/>

<path  fill="#FF9B88" stroke-width="0" stroke="#FF9B88" d = " M306 180 C308.813,180 309.921,183 312,183 312,183 306,173 306,173 306,173 305,173 305,173 305,174.238 308.402,178 306,178 306,178 306,180 306,180  Z"/>

<path  fill="#FF9B88" stroke-width="0" stroke="#FF9B88" d = " M150 175 L149,176 C149,176 150,175 150,175  Z"/>

<path  fill="#FF9B88" stroke-width="0" stroke="#FF9B88" d = " M269 221 L265,222 C265,208.183 253.816,198.842 241.5,205 241.5,205 235,213.5 235,213.5 234.426,214.647 236.064,218 234,218 234,215.438 230.27,218.615 229.5,219 228.64,219.43 223.355,218 222,218 222,209.207 210.249,198.625 201.5,203 193.003,207.248 192,216.85 192,225 190.279,225 192.773,221 187,221 187,221 186,219 186,219 186,218.39 194.89,206.305 187.5,210 187.5,210 184,213 184,213 184,213 184,211 184,211 184,206.475 179.014,205 175,205 175,205 174,204 174,204 174,204 171,204 171,204 171,202.527 169.048,203 168,203 168,203 163,203 163,203 163,203 162,204 162,204 158.926,204 158.872,209 157,209 157,209 152,201 152,201 152,197.213 155,192.58 155,187 156.423,187 158.544,188.978 160.5,188 171.223,182.639 173.428,177 187,177 189.455,177 191,181.278 191,176 191.286,176 194,182.302 194,183 194,183 193,184 193,184 193,181.732 187.15,181.175 185.5,182 182.858,183.321 185,185.788 185,188 181.845,188 179.27,179.115 173.5,182 170.071,183.714 154.614,194.727 157,199.5 158.605,202.71 185.075,201.351 187,197.5 188.513,194.475 185,191.63 185,189 187.268,189 185.729,197 195,197 195,197 202.5,197 202.5,197 202.5,197 204,195 204,195 204,195 207,198 207,198 207,199.554 221.225,203 223,203 223,203 223,207 223,207 221.398,207 220.616,203.942 218.5,205 217.999,205.25 221.798,213 223.5,213 223.5,213 224,209 224,209 224,209 225.5,211 225.5,211 227.251,211 227.545,205.589 227,204.5 227,204.5 225,203 225,203 228.019,203 228.981,203 232,203 232,203 229,204.5 229,204.5 227.1,208.299 230.06,210 232,210 232,215.924 239.743,206.122 237.5,205 235.384,203.942 234.602,207 233,207 233,207 233,203 233,203 235.012,203 250,199.002 250,197 250,197 252,195 252,195 252,195 254.5,197 254.5,197 256.864,198.182 260.196,196 262,196 262,201.788 268.201,194 269,194 269,203.851 308.868,205.368 296,192.5 296,192.5 290,186.5 290,186.5 287.412,183.912 283.698,182 280,182 275.856,182 271.245,189 271,189 271,178.654 271.31,183 263,183 263,181.959 263.986,178 265,178 266.005,178 269,178.978 269,176 269,176 271.5,178 271.5,178 273.183,178.842 278.681,176.591 281.5,178 290.177,182.338 291.052,187 301,187 301,192.332 304,196.475 304,201 304,201 299,209 299,209 299,206.899 296.169,204 294,204 294,204 293,203 293,203 293,203 288,203 288,203 288,203 286,204 286,204 286,204 283,204 283,204 283,204 282,205 282,205 276.774,205 273,206.159 273,212 273,212 272,212 272,212 272,212 268.5,210 268.5,210 266.891,209.195 265.195,210.891 266,212.5 266,212.5 270,218 270,218 270,218 269,221 269,221  Z"/>

<path  fill="#FF9B88" stroke-width="0" stroke="#FF9B88" d = " M146 181 C148.033,181 149.256,181 151,181 151,181 150,178 150,178 150,178 149,177 149,177 147.288,177 146,179.571 146,181  Z"/>

<path  fill="#FFB984" stroke-width="0" stroke="#FFB984" d = " M222 189 L221,190 C196.742,190 224,166.578 224,187 224,187 223,188 223,188 223,188 222,189 222,189  Z"/>

<path  fill="#FEC294" stroke-width="0" stroke="#FEC294" d = " M232 203 L233,203 C235.012,203 250,199.002 250,197 250,186.027 233,194.857 233,188 233,188 233,187 233,187 228.793,187 232.719,180.11 230.5,179 222.472,174.986 226.632,187 224,187 224,187 223,188 223,188 223,188 222,189 222,189 222,189 221,190 221,190 221,192.39 212.144,190.178 210.5,191 206.386,193.057 207,194.626 207,198 207,199.554 221.225,203 223,203 223,203 225,203 225,203 228.019,203 228.981,203 232,203  Z"/>

<path  fill="#FFB984" stroke-width="0" stroke="#FFB984" d = " M233 187 L233,188 C235.203,188 237.569,191.465 240.5,190 253.667,183.416 233,170.008 233,187  Z"/>

<path  fill="#FEAD6E" stroke-width="0" stroke="#FEAD6E" d = " M152 201 L147,203 C131.617,203 140,195.95 140,187 142.169,187 145,184.101 145,182 145,182 146,181 146,181 148.033,181 149.256,181 151,181 153.556,181 155,185.016 155,187 155,192.58 152,197.213 152,201  Z"/>

<path  fill="#FEAD6E" stroke-width="0" stroke="#FEAD6E" d = " M304 201 C306.72,201 307.553,203 310,203 325.366,203 316,193.882 316,187 316,187 312,183 312,183 309.921,183 308.813,180 306,180 306,181.636 301,183.733 301,187 301,192.332 304,196.475 304,201  Z"/>

<path  fill="#FF9B88" stroke-width="0" stroke="#FF9B88" d = " M146 181 L145,182 C145,182 146,181 146,181  Z"/>

<path  fill="#FFB0D7" stroke-width="0" stroke="#FFB0D7" d = " M185 188 C181.845,188 179.27,179.115 173.5,182 170.071,183.714 154.614,194.727 157,199.5 158.605,202.71 185.075,201.351 187,197.5 188.513,194.475 185,191.63 185,189 185,189 185,188 185,188  Z"/>

<path  fill="#FEC394" stroke-width="0" stroke="#FEC394" d = " M185 189 C187.268,189 185.729,197 195,197 195,195.089 193,188.559 193,184 193,181.732 187.15,181.175 185.5,182 182.858,183.321 185,185.788 185,188 185,188 185,189 185,189  Z"/>

<path  fill="#FEC295" stroke-width="0" stroke="#FEC295" d = " M204 195 L202.5,197 L195,197 C195,195.089 193,188.559 193,184 193,184 194,183 194,183 194,183 196,182 196,182 196,182 197,182 197,182 206.073,182 204,189.355 204,195  Z"/>

<path  fill="#FEC295" stroke-width="0" stroke="#FEC295" d = " M252 195 L254.5,197 C256.864,198.182 260.196,196 262,196 262,192.371 263,187.284 263,183 263,183 261,182 261,182 261,182 259,182 259,182 250.726,182 252,189.456 252,195  Z"/>

<path  fill="#FEC394" stroke-width="0" stroke="#FEC394" d = " M269 194 C268.201,194 262,201.788 262,196 262,192.371 263,187.284 263,183 271.31,183 271,178.654 271,189 271,189 271,190 271,190 271,190 270,192 270,192 270,192 269,193 269,193 269,193 269,194 269,194  Z"/>

<path  fill="#FFB0D7" stroke-width="0" stroke="#FFB0D7" d = " M269 193 L269,194 C269,203.851 308.868,205.368 296,192.5 296,192.5 290,186.5 290,186.5 287.412,183.912 283.698,182 280,182 275.856,182 271.245,189 271,189 271,189 271,190 271,190 271,190 270,192 270,192 270,192 269,193 269,193  Z"/>

<path  fill="#FF9B88" stroke-width="0" stroke="#FF9B88" d = " M138 211 C140.129,211 142,221.739 142,224 143.773,224 143,214.741 143,213 143,208.321 147,204.883 147,203 131.617,203 140,195.95 140,187 140,179.753 135.177,188 133,188 133,188 133,189 133,189 133,189 133,193 133,193 133,193 133,194 133,194 139.742,194 133,203.257 133,206 137.437,206 138,206.863 138,211  Z"/>

<path  fill="#FF9B88" stroke-width="0" stroke="#FF9B88" d = " M318 212 C315.137,212 315,224.928 315,228 313.219,228 314,217.824 314,216 314,211.521 310,204.481 310,203 325.366,203 316,193.882 316,187 316,181.332 323,186.161 323,189 323,189 324,193 324,193 324,193 323,194 323,194 317.982,194 323,203.638 323,205 323,205 323,206 323,206 319.101,206 318,206.829 318,212  Z"/>

<path  fill="#FEF991" stroke-width="0" stroke="#FEF991" d = " M108 221 C108,224.791 103,228.808 103,233 88.8856,233 79,232.773 79,215 79,203.655 89.4226,197.039 97.5,193 101.138,191.181 106.818,192.841 110.5,191 113.746,189.377 119.322,186 123,186 123,195.7 118.28,203.11 110.5,207 108.884,207.808 100,210.774 100,213.5 100,216.994 108,210.235 108,214 108,216.123 108,218.704 108,221  Z"/>

<path  fill="#FEF991" stroke-width="0" stroke="#FEF991" d = " M348 221 C349.914,221 353,230.818 353,233 368.909,233 377,232.523 377,213 377,202.692 366.032,196.766 358.5,193 354.862,191.181 349.182,192.841 345.5,191 345.5,191 334,186 334,186 332.421,186 333,188.855 333,190 333,193.382 335.14,197.64 337.5,200 341.89,204.39 347.319,207.409 352.5,210 353.068,210.284 358.084,215 355.5,215 355.5,215 349.5,213 349.5,213 349.5,213 348,215 348,215 345.888,215 348,219.643 348,221  Z"/>

<path  fill="#C9C9C8" stroke-width="0" stroke="#C9C9C8" d = " M132 188 L133,188 C133,188 133,187 133,187 133,187 132,188 132,188  Z"/>

<path  fill="#FFBA84" stroke-width="0" stroke="#FFBA84" d = " M224 187 L223,188 C223,188 224,187 224,187  Z"/>

<path  fill="#C9C9C8" stroke-width="0" stroke="#C9C9C8" d = " M324 189 L325,189 C325,189 326,188 326,188 326,188 324,187 324,187 324,187 324,189 324,189  Z"/>

<path  fill="#C9C9C8" stroke-width="0" stroke="#C9C9C8" d = " M327 187 L326,188 C326,188 327,187 327,187  Z"/>

<path  fill="#C9C9C8" stroke-width="0" stroke="#C9C9C8" d = " M132 188 L132,189 C132,189 131,188 131,188 131,188 132,188 132,188  Z"/>

<path  fill="#CBC9CC" stroke-width="0" stroke="#CBC9CC" d = " M132 189 L133,189 C133,189 133,188 133,188 133,188 132,188 132,188 132,188 132,189 132,189  Z"/>

<path  fill="#FFBA84" stroke-width="0" stroke="#FFBA84" d = " M223 188 L222,189 C222,189 223,188 223,188  Z"/>

<path  fill="#F0F080" stroke-width="0" stroke="#F0F080" d = " M129 193 L133,193 C133,193 133,189 133,189 133,189 132,189 132,189 132,190.457 129,190.46 129,193  Z"/>

<path  fill="#FFBA84" stroke-width="0" stroke="#FFBA84" d = " M222 189 L221,190 C221,190 222,189 222,189  Z"/>

<path  fill="#F0F080" stroke-width="0" stroke="#F0F080" d = " M328 194 L329,194 C329,191.259 325,191.25 325,189 325,189 324,189 324,189 324,189 323,189 323,189 323,189 324,193 324,193 325.145,193 328,192.421 328,194  Z"/>

<path  fill="#FF9B88" stroke-width="0" stroke="#FF9B88" d = " M271 190 L270,192 C270,192 271,190 271,190  Z"/>

<path  fill="#FF9B88" stroke-width="0" stroke="#FF9B88" d = " M270 192 L269,193 C269,193 270,192 270,192  Z"/>

<path  fill="#F0F080" stroke-width="0" stroke="#F0F080" d = " M128 194 L129,194 C129,194 129,193 129,193 129,193 128,194 128,194  Z"/>

<path  fill="#FF9BCD" stroke-width="0" stroke="#FF9BCD" d = " M129 194 L133,194 C133,194 133,193 133,193 133,193 129,193 129,193 129,193 129,194 129,194  Z"/>

<path  fill="#F0F080" stroke-width="0" stroke="#F0F080" d = " M323 194 L324,194 C324,194 324,193 324,193 324,193 323,194 323,194  Z"/>

<path  fill="#FF9BCD" stroke-width="0" stroke="#FF9BCD" d = " M324 194 L328,194 C328,192.421 325.145,193 324,193 324,193 324,194 324,194  Z"/>

<path  fill="#FF9BCD" stroke-width="0" stroke="#FF9BCD" d = " M128 194 L127,195 C127,195 128,194 128,194  Z"/>

<path  fill="#FEA4D2" stroke-width="0" stroke="#FEA4D2" d = " M115 253 L115,256 C115,256 119.5,261 119.5,261 124.744,263.622 128,255.39 128,252 128,240.974 128,232.216 128,221 128,219.952 127.527,218 129,218 129,218 129,215 129,215 129,213.576 129.362,210 131,210 131,210 131,209 131,209 131,207.762 131.423,206 133,206 133,203.257 139.742,194 133,194 133,194 129,194 129,194 129,194 128,194 128,194 128,194 127,195 127,195 127,195 126,195 126,195 126,195 125,196 125,196 125,196 122,200 122,200 122,200 121,201 121,201 121,201 120,202 120,202 120,202 119,203 119,203 119,203 118,206 118,206 118,206 117,207 117,207 117,208.596 113.363,219 112,219 112,219 111,221 111,221 111,221 110,223 110,223 110,223 109,225 109,225 109,225 109,226 109,226 109,226 108,228 108,228 108,228 108,229 108,229 108,229 107,231 107,231 107,231 107,235 107,235 107,235 108,236 108,236 108,236 108,237 108,237 108,237 109,238 109,238 109,242.422 114,245.932 114,251 114,251 115,253 115,253  Z"/>

<path  fill="#FEA4D2" stroke-width="0" stroke="#FEA4D2" d = " M341 256 L341,257 C338.979,257 336.623,263.061 332.5,261 329.791,259.645 328.862,251 328,251 328,242.102 329,233.399 329,225 329,223.855 329.579,221 328,221 328,221 328,219 328,219 328,217.952 328.473,216 327,216 327,216 327,213 327,213 327,213 323,205 323,205 323,203.638 317.982,194 323,194 323,194 324,194 324,194 324,194 328,194 328,194 328,194 329,194 329,194 329,194 334,199 334,199 334,199 335,200 335,200 335,200 336,202 336,202 336,202 337,203 337,203 337,203 337,204 337,204 337,204 339,206 339,206 339,210.264 343,213.497 343,218 343,218 345,220 345,220 345,220 345,221 345,221 345,222.238 345.423,224 347,224 347,224 347,225 347,225 347,225 349,229 349,229 349,229 349,231 349,231 349,231 349,236 349,236 349,236 348,237 348,237 348,237 348,238 348,238 348,238 347,239 347,239 347,242.685 343,245.026 343,249 343,249 342,251 342,251 342,251 342,252 342,252 340.421,252 341,254.855 341,256  Z"/>

<path  fill="#F0F080" stroke-width="0" stroke="#F0F080" d = " M126 195 L125,196 C125,196 126,195 126,195  Z"/>

<path  fill="#FEA5D1" stroke-width="0" stroke="#FEA5D1" d = " M334 199 L335,200 C335,200 334,199 334,199  Z"/>

<path  fill="#FEA5D1" stroke-width="0" stroke="#FEA5D1" d = " M122 200 L121,201 C121,201 122,200 122,200  Z"/>

<path  fill="#A9AAA7" stroke-width="0" stroke="#A9AAA7" d = " M121 201 L120,202 C120,202 121,201 121,201  Z"/>

<path  fill="#FFAE6F" stroke-width="0" stroke="#FFAE6F" d = " M154 259 L153,260 C151.577,260 149.456,261.978 147.5,261 147.5,261 143,258 143,258 143,258 142,256 142,256 142,252.455 139,247.345 139,242 139,242 139,241 139,241 140.674,241 141,233.759 141,232 141,232 141,230 141,230 142.643,230 142,226.235 142,225 142,225 142,224 142,224 143.773,224 143,214.741 143,213 143,208.321 147,204.883 147,203 147,203 152,201 152,201 152,201 157,209 157,209 157,226.026 154,242.291 154,259  Z"/>

<path  fill="#FFAE6F" stroke-width="0" stroke="#FFAE6F" d = " M309 261 L310,261 C310,261 311,260 311,260 311,260 312,259 312,259 312,259 313,258 313,258 313,258 314,257 314,257 314,257 315,256 315,256 315,256 315,255 315,255 315,255 316,254 316,254 316,254 316,253 316,253 316,253 317,252 317,252 317,252 317,251 317,251 317,243.309 315,237.081 315,230 315,230 315,228 315,228 313.219,228 314,217.824 314,216 314,211.521 310,204.481 310,203 307.553,203 306.72,201 304,201 304,201 299,209 299,209 299,225.325 302,241.72 302,258 302,258 303,259 303,259 303,259 303,260 303,260 304.564,260 306.876,261 309,261  Z"/>

<path  fill="#A9AAA7" stroke-width="0" stroke="#A9AAA7" d = " M120 202 L119,203 C119,203 120,202 120,202  Z"/>

<path  fill="#FDBA86" stroke-width="0" stroke="#FDBA86" d = " M219 229 L213,235.5 C210.002,241.496 194,249.767 194,253 192.3,253 193,247.863 193,246.5 193,246.5 192,225 192,225 192,216.85 193.003,207.248 201.5,203 210.249,198.625 222,209.207 222,218 222,218 222,221 222,221 222,221 218.5,217 218.5,217 217.242,216.371 214.223,217.946 215,219.5 215,219.5 219,229 219,229  Z"/>

<path  fill="#FDBA86" stroke-width="0" stroke="#FDBA86" d = " M238 229 C239.818,229 244.172,236.844 245,238.5 247.976,244.453 255.719,246.609 260.5,249 L263,253 C263,242.168 265,232.389 265,222 265,208.183 253.816,198.842 241.5,205 241.5,205 235,213.5 235,213.5 234.426,214.647 236.064,218 234,218 234,218 234,223 234,223 234,223 237.5,217 237.5,217 244.021,213.739 238,227.183 238,229  Z"/>

<path  fill="#FEA5D1" stroke-width="0" stroke="#FEA5D1" d = " M336 202 L337,203 C337,203 336,202 336,202  Z"/>

<path  fill="#CBC9CC" stroke-width="0" stroke="#CBC9CC" d = " M63 203 C63,206.746 65.0912,203 63,203  Z"/>

<path  fill="#A9AAA7" stroke-width="0" stroke="#A9AAA7" d = " M108 221 L110,221 C110,221 111,220 111,220 111,220 112,219 112,219 113.363,219 117,208.596 117,207 117,207 118,206 118,206 118,206 119,203 119,203 116.158,203 111.58,208.92 109.5,211 109.5,211 108,214 108,214 108,216.123 108,218.704 108,221  Z"/>

<path  fill="#FF9BCD" stroke-width="0" stroke="#FF9BCD" d = " M163 203 L162,204 C162,204 163,203 163,203  Z"/>

<path  fill="#FCB3D9" stroke-width="0" stroke="#FCB3D9" d = " M154 259 C154.979,259 156.61,260 160,260 160,260 164,256 164,256 164,251.776 172,247.737 172,243 172,243 173,242 173,242 173,242 173,241 173,241 173,238.591 174,235.819 174,234 171.814,234 173.613,230.274 174,229.5 174,229.5 181,217 181,217 181,217 182,216 182,216 182,216 182,215 182,215 182,215 183,214 183,214 183,212.952 182.527,211 184,211 184,206.475 179.014,205 175,205 175,205 174,204 174,204 174,204 171,204 171,204 169.952,204 168,204.473 168,203 168,203 163,203 163,203 163,203 162,204 162,204 158.926,204 158.872,209 157,209 157,226.026 154,242.291 154,259  Z"/>

<path  fill="#FF9BCD" stroke-width="0" stroke="#FF9BCD" d = " M168 203 C169.048,203 171,202.527 171,204 169.952,204 168,204.473 168,203  Z"/>

<path  fill="#FFC294" stroke-width="0" stroke="#FFC294" d = " M223 207 L224,209 C224,209 225.5,211 225.5,211 227.251,211 227.545,205.589 227,204.5 227,204.5 225,203 225,203 225,203 223,203 223,203 223,203 223,207 223,207  Z"/>

<path  fill="#FFC294" stroke-width="0" stroke="#FFC294" d = " M233 207 L232,210 C230.06,210 227.1,208.299 229,204.5 229,204.5 232,203 232,203 232,203 233,203 233,203 233,203 233,207 233,207  Z"/>

<path  fill="#FF9BCD" stroke-width="0" stroke="#FF9BCD" d = " M288 203 L286,204 C286,204 288,203 288,203  Z"/>

<path  fill="#FCB3D9" stroke-width="0" stroke="#FCB3D9" d = " M296 259 C296.853,259 302,263.714 302,259 302,259 302,258 302,258 302,241.72 299,225.325 299,209 299,206.899 296.169,204 294,204 294,204 293,203 293,203 293,203 288,203 288,203 288,203 286,204 286,204 286,204 283,204 283,204 283,204 282,205 282,205 276.774,205 273,206.159 273,212 273,212 275,216 275,216 275,216 275,217 275,217 275,217 276,218 276,218 276,223.59 283,227.568 283,234 283,234 283,240 283,240 283,240 283,241 283,241 283,241 284,242 284,242 284,247.164 292,251.143 292,256 292,256 296,259 296,259  Z"/>

<path  fill="#FF9BCD" stroke-width="0" stroke="#FF9BCD" d = " M293 203 L294,204 C294,204 293,203 293,203  Z"/>

<path  fill="#A9AAA7" stroke-width="0" stroke="#A9AAA7" d = " M345 220 L348,221 C348,219.643 345.888,215 348,215 348,211.244 340.999,203 337,203 337,203 337,204 337,204 337,204 339,206 339,206 339,210.264 343,213.497 343,218 343,218 345,220 345,220  Z"/>

<path  fill="#FF9BCD" stroke-width="0" stroke="#FF9BCD" d = " M174 204 L175,205 C175,205 174,204 174,204  Z"/>

<path  fill="#FF9BCD" stroke-width="0" stroke="#FF9BCD" d = " M283 204 L282,205 C282,205 283,204 283,204  Z"/>

<path  fill="#FEA5D1" stroke-width="0" stroke="#FEA5D1" d = " M337 204 L339,206 C339,206 337,204 337,204  Z"/>

<path  fill="#C9CACB" stroke-width="0" stroke="#C9CACB" d = " M128 252 L130.5,257 L132,254 C132,248.904 130.732,233.036 133,228.5 135.312,223.875 138,216.333 138,211 138,206.863 137.437,206 133,206 133,207.238 132.577,209 131,209 131,209 131,210 131,210 131,211.424 130.638,215 129,215 129,215 129,218 129,218 129,219.048 129.473,221 128,221 128,232.216 128,240.974 128,252  Z"/>

<path  fill="#CBCBCC" stroke-width="0" stroke="#CBCBCC" d = " M223 207 C221.398,207 220.616,203.942 218.5,205 217.999,205.25 221.798,213 223.5,213 L224,209 C224,209 223,207 223,207  Z"/>

<path  fill="#CBCBCC" stroke-width="0" stroke="#CBCBCC" d = " M233 207 C234.602,207 235.384,203.942 237.5,205 239.743,206.122 232,215.924 232,210 232,210 233,207 233,207  Z"/>

<path  fill="#C9CACB" stroke-width="0" stroke="#C9CACB" d = " M328 251 C328,253.654 325,258.918 325,253 325,253 323,227.5 323,227.5 323,227.5 321,223 321,223 321,221.321 319.025,212 318,212 318,206.829 319.101,206 323,206 323,206 327,213 327,213 327,213 327,216 327,216 327,217.048 326.527,219 328,219 328,219 328,221 328,221 328,222.145 327.421,225 329,225 329,233.399 328,242.102 328,251  Z"/>

<path  fill="#FF9BCD" stroke-width="0" stroke="#FF9BCD" d = " M323 206 L327,213 C327,213 323,205 323,205 323,205 323,206 323,206  Z"/>

<path  fill="#FEA5D1" stroke-width="0" stroke="#FEA5D1" d = " M118 206 L117,207 C117,207 118,206 118,206  Z"/>

<path  fill="#FF9BCD" stroke-width="0" stroke="#FF9BCD" d = " M133 206 C131.423,206 131,207.762 131,209 132.577,209 133,207.238 133,206  Z"/>

<path  fill="#FF9BCD" stroke-width="0" stroke="#FF9BCD" d = " M131 210 C129.362,210 129,213.576 129,215 130.638,215 131,211.424 131,210  Z"/>

<path  fill="#CCCCC7" stroke-width="0" stroke="#CCCCC7" d = " M179 231 C177.053,231 176.364,234 174,234 171.814,234 173.613,230.274 174,229.5 174,229.5 181,217 181,217 181,217 182,216 182,216 182,216 182,215 182,215 182,215 183,214 183,214 183,214 184,213 184,213 184,213 187.5,210 187.5,210 194.89,206.305 186,218.39 186,219 184.421,219 185,221.855 185,223 185,223 184,224 184,224 184,224 183,225 183,225 183,225 183,226 183,226 183,226 182,227 182,227 182,227 181,228 181,228 179.423,228 179,229.762 179,231  Z"/>

<path  fill="#CCCCC7" stroke-width="0" stroke="#CCCCC7" d = " M275 228 C277.761,228 280.111,234 283,234 283,227.568 276,223.59 276,218 276,218 275,217 275,217 275,217 275,216 275,216 275,216 272,212 272,212 272,212 268.5,210 268.5,210 266.891,209.195 265.195,210.891 266,212.5 266,212.5 270,218 270,218 271.59,218 271.443,222.386 272,223.5 272,223.5 275,227 275,227 275,227 275,228 275,228  Z"/>

<path  fill="#C8CACA" stroke-width="0" stroke="#C8CACA" d = " M153 266 L152,268 C149.741,268 148.655,272.578 145.5,271 139.549,268.024 132,261.091 132,254 132,248.904 130.732,233.036 133,228.5 135.312,223.875 138,216.333 138,211 140.129,211 142,221.739 142,224 142,224 142,225 142,225 140.357,225 141,228.765 141,230 141,230 141,232 141,232 139.326,232 139,239.241 139,241 139,241 139,242 139,242 136.691,242 138.488,256 142,256 142,256 143,258 143,258 143,260.026 151.368,265 153,265 153,265 153,266 153,266  Z"/>

<path  fill="#FF9BCD" stroke-width="0" stroke="#FF9BCD" d = " M184 213 L183,214 C183,212.952 182.527,211 184,211 184,211 184,213 184,213  Z"/>

<path  fill="#FF9BCD" stroke-width="0" stroke="#FF9BCD" d = " M273 212 L275,216 C275,216 272,212 272,212 272,212 273,212 273,212  Z"/>

<path  fill="#C8CACA" stroke-width="0" stroke="#C8CACA" d = " M304 267 L304,268 C311.257,268 302.573,274.464 317.5,267 321.714,264.893 321.387,259.727 323,256.5 323,256.5 325,253 325,253 325,253 323,227.5 323,227.5 323,227.5 321,223 321,223 321,221.321 319.025,212 318,212 315.137,212 315,224.928 315,228 315,228 315,230 315,230 316.506,230 318,243.21 318,246 318,247.235 318.643,251 317,251 317,251 317,252 317,252 317,252 316,253 316,253 316,253 316,254 316,254 316,254 315,255 315,255 315,255 315,256 315,256 315,256 314,257 314,257 314,257 313,258 313,258 313,258 312,259 312,259 312,259 311,260 311,260 311,260 310,261 310,261 310,261 309,261 309,261 309,262.477 305.076,264 304,264 304,264 304,267 304,267  Z"/>

<path  fill="#FF9BCD" stroke-width="0" stroke="#FF9BCD" d = " M183 214 L182,215 C182,215 183,214 183,214  Z"/>

<path  fill="#FF9BCD" stroke-width="0" stroke="#FF9BCD" d = " M182 216 L181,217 C181,217 182,216 182,216  Z"/>

<path  fill="#FF9BCD" stroke-width="0" stroke="#FF9BCD" d = " M327 216 C328.473,216 328,217.952 328,219 326.527,219 327,217.048 327,216  Z"/>

<path  fill="#C8C8CC" stroke-width="0" stroke="#C8C8CC" d = " M222 221 L218.5,217 C217.242,216.371 214.223,217.946 215,219.5 L219,229 C219,229 220,246 220,246 220,247.069 220.811,249.845 222.5,249 227.019,246.741 222,224.33 222,221  Z"/>

<path  fill="#FEB0D8" stroke-width="0" stroke="#FEB0D8" d = " M194 276 L195,276 C195,271.371 201.293,273 203,273 203,267.01 213.125,261.188 217.5,259 220.617,257.442 222.901,261 225,261 225,261 226,261 226,261 226,247.181 231,247.843 231,261 231,261 233.5,259 233.5,259 237.057,257.222 241.977,260.738 244.5,262 244.5,262 252.5,270 252.5,270 252.5,270 254,273 254,273 254,270.814 261,273.031 261,275 261,275 263,276 263,276 263,272.106 265,269.395 265,266 265,261.486 263,257.908 263,253 263,253 260.5,249 260.5,249 255.719,246.609 247.976,244.453 245,238.5 244.172,236.844 239.818,229 238,229 236.357,229 237,232.765 237,234 237,237.076 238.443,247.529 235.5,249 233.01,250.245 232,244.962 232,243.5 232,236.337 234,229.48 234,223 234,223 234,218 234,218 234,215.438 230.27,218.615 229.5,219 228.64,219.43 223.355,218 222,218 222,218 222,221 222,221 222,224.33 227.019,246.741 222.5,249 220.811,249.845 220,247.069 220,246 220,246 219,229 219,229 219,229 213,235.5 213,235.5 210.002,241.496 194,249.767 194,253 194,257.068 192,261.523 192,266 192,266 192,267 192,267 192,267 194,276 194,276  Z"/>

<path  fill="#C8C8CC" stroke-width="0" stroke="#C8C8CC" d = " M234 223 L237.5,217 C244.021,213.739 238,227.183 238,229 236.357,229 237,232.765 237,234 237,237.076 238.443,247.529 235.5,249 233.01,250.245 232,244.962 232,243.5 232,236.337 234,229.48 234,223  Z"/>

<path  fill="#FF9BCD" stroke-width="0" stroke="#FF9BCD" d = " M275 217 L276,218 C276,218 275,217 275,217  Z"/>

<path  fill="#FF9BCD" stroke-width="0" stroke="#FF9BCD" d = " M129 218 C127.527,218 128,219.952 128,221 129.473,221 129,219.048 129,218  Z"/>

<path  fill="#FF9BCD" stroke-width="0" stroke="#FF9BCD" d = " M269 221 L275,227 C275,227 272,223.5 272,223.5 271.443,222.386 271.59,218 270,218 270,218 269,221 269,221  Z"/>

<path  fill="#FF9BCD" stroke-width="0" stroke="#FF9BCD" d = " M343 218 L345,220 C345,220 343,218 343,218  Z"/>

<path  fill="#FF9BCD" stroke-width="0" stroke="#FF9BCD" d = " M111 220 L111,221 C111,221 112,219 112,219 112,219 111,220 111,220  Z"/>

<path  fill="#FF9BCD" stroke-width="0" stroke="#FF9BCD" d = " M187 221 L185,223 C185,221.855 184.421,219 186,219 186,219 187,221 187,221  Z"/>

<path  fill="#F0F080" stroke-width="0" stroke="#F0F080" d = " M110 221 L111,221 C111,221 111,220 111,220 111,220 110,221 110,221  Z"/>

<path  fill="#F0F080" stroke-width="0" stroke="#F0F080" d = " M349 231 L353,233 C353,230.818 349.914,221 348,221 348,221 345,220 345,220 345,220 345,221 345,221 346.577,221 347,222.762 347,224 347,224 347,225 347,225 347,225 349,229 349,229 349,229 349,231 349,231  Z"/>

<path  fill="#F0F080" stroke-width="0" stroke="#F0F080" d = " M107 231 L103,233 C103,228.808 108,224.791 108,221 108,221 110,221 110,221 110,221 110,223 110,223 110,223 109,225 109,225 109,225 109,226 109,226 109,226 108,228 108,228 108,228 108,229 108,229 108,229 107,231 107,231  Z"/>

<path  fill="#FF9BCD" stroke-width="0" stroke="#FF9BCD" d = " M111 221 L110,223 C110,223 110,221 110,221 110,221 111,221 111,221  Z"/>

<path  fill-rule="evenodd" fill="#FFB2D8" stroke-width="0" stroke="#FFB2D8" d = " M182 252 C182,260.477 191.489,252 182,252  M191 266 L192,266 C192,261.523 194,257.068 194,253 192.3,253 193,247.863 193,246.5 193,246.5 192,225 192,225 190.279,225 192.773,221 187,221 187,221 185,223 185,223 185,223 184,224 184,224 184,224 183,225 183,225 183,225 183,226 183,226 183,226 182,227 182,227 182,227 181,228 181,228 181,229.238 180.577,231 179,231 179,232.48 174.029,241 173,241 173,241 173,242 173,242 173,242 172,243 172,243 172,247.737 164,251.776 164,256 169.81,256 191,260.193 191,266  Z"/>

<path  fill-rule="evenodd" fill="#FFB2D8" stroke-width="0" stroke="#FFB2D8" d = " M270 252 C270,260.56 280.481,252 270,252  M292 256 C286.434,256 279.181,256.659 274.5,259 L265,266 C265,261.486 263,257.908 263,253 263,242.168 265,232.389 265,222 265,222 269,221 269,221 269,221 275,227 275,227 275,227 275,228 275,228 275,229.413 281.807,240 283,240 283,240 283,241 283,241 283,241 284,242 284,242 284,247.164 292,251.143 292,256  Z"/>

<path  fill="#FF9BCD" stroke-width="0" stroke="#FF9BCD" d = " M328 221 C329.579,221 329,223.855 329,225 327.421,225 328,222.145 328,221  Z"/>

<path  fill="#FF9BCD" stroke-width="0" stroke="#FF9BCD" d = " M345 221 C346.577,221 347,222.762 347,224 345.423,224 345,222.238 345,221  Z"/>

<path  fill="#FF9BCD" stroke-width="0" stroke="#FF9BCD" d = " M110 223 L109,225 C109,225 110,223 110,223  Z"/>

<path  fill="#FF9BCD" stroke-width="0" stroke="#FF9BCD" d = " M185 223 L184,224 C184,224 185,223 185,223  Z"/>

<path  fill="#FF9BCD" stroke-width="0" stroke="#FF9BCD" d = " M184 224 L183,225 C183,225 184,224 184,224  Z"/>

<path  fill="#FF9B88" stroke-width="0" stroke="#FF9B88" d = " M142 225 C140.357,225 141,228.765 141,230 142.643,230 142,226.235 142,225  Z"/>

<path  fill="#FF9BCD" stroke-width="0" stroke="#FF9BCD" d = " M347 225 L349,229 C349,229 347,225 347,225  Z"/>

<path  fill="#FF9BCD" stroke-width="0" stroke="#FF9BCD" d = " M109 226 L108,228 C108,228 109,226 109,226  Z"/>

<path  fill="#FF9BCD" stroke-width="0" stroke="#FF9BCD" d = " M183 226 L182,227 C182,227 183,226 183,226  Z"/>

<path  fill="#FF9BCD" stroke-width="0" stroke="#FF9BCD" d = " M182 227 L181,228 C181,228 182,227 182,227  Z"/>

<path  fill="#FF9BCD" stroke-width="0" stroke="#FF9BCD" d = " M181 228 C179.423,228 179,229.762 179,231 180.577,231 181,229.238 181,228  Z"/>

<path  fill="#FF9BCD" stroke-width="0" stroke="#FF9BCD" d = " M283 234 L283,240 C281.807,240 275,229.413 275,228 277.761,228 280.111,234 283,234  Z"/>

<path  fill="#FF9BCD" stroke-width="0" stroke="#FF9BCD" d = " M108 229 L107,231 C107,231 108,229 108,229  Z"/>

<path  fill="#FF9B88" stroke-width="0" stroke="#FF9B88" d = " M315 230 C316.506,230 318,243.21 318,246 318,247.235 318.643,251 317,251 317,243.309 315,237.081 315,230  Z"/>

<path  fill="#FF9BCD" stroke-width="0" stroke="#FF9BCD" d = " M174 234 C174,235.819 173,238.591 173,241 174.029,241 179,232.48 179,231 177.053,231 176.364,234 174,234  Z"/>

<path  fill="#FF9B88" stroke-width="0" stroke="#FF9B88" d = " M141 232 C139.326,232 139,239.241 139,241 140.674,241 141,233.759 141,232  Z"/>

<path  fill="#FF9BCD" stroke-width="0" stroke="#FF9BCD" d = " M107 235 L108,236 C108,236 107,235 107,235  Z"/>

<path  fill="#FF9BCD" stroke-width="0" stroke="#FF9BCD" d = " M349 236 L348,237 C348,237 349,236 349,236  Z"/>

<path  fill="#FF9BCD" stroke-width="0" stroke="#FF9BCD" d = " M108 237 L109,238 C109,238 108,237 108,237  Z"/>

<path  fill="#FF9BCD" stroke-width="0" stroke="#FF9BCD" d = " M348 238 L347,239 C347,239 348,238 348,238  Z"/>

<path  fill="#FF9BCD" stroke-width="0" stroke="#FF9BCD" d = " M283 241 L284,242 C284,242 283,241 283,241  Z"/>

<path  fill="#FF9B88" stroke-width="0" stroke="#FF9B88" d = " M139 242 C136.691,242 138.488,256 142,256 142,252.455 139,247.345 139,242  Z"/>

<path  fill="#FF9BCD" stroke-width="0" stroke="#FF9BCD" d = " M173 242 L172,243 C172,243 173,242 173,242  Z"/>

<path  fill="#FF9BCD" stroke-width="0" stroke="#FF9BCD" d = " M343 249 L342,251 C342,251 343,249 343,249  Z"/>

<path  fill="#FFC5E2" stroke-width="0" stroke="#FFC5E2" d = " M230 275 L227,276 C227,276 226,274 226,274 226,274 226,273 226,273 226,273 226,261 226,261 226,247.181 231,247.843 231,261 231,261 231,265 231,265 229.265,265 230,271.51 230,273 230,273 230,275 230,275  Z"/>

<path  fill="#FF9BCD" stroke-width="0" stroke="#FF9BCD" d = " M114 251 L115,253 C115,253 114,251 114,251  Z"/>

<path  fill="#FF9BCD" stroke-width="0" stroke="#FF9BCD" d = " M303 275 C308.396,275 302,279.489 302,281 304.115,281 316.23,270.635 319.5,269 322.843,267.328 328.939,271.719 331.5,273 332.995,273.748 334.453,272.523 335.5,272 341.773,268.863 341,264.141 341,257 338.979,257 336.623,263.061 332.5,261 329.791,259.645 328.862,251 328,251 328,253.654 325,258.918 325,253 325,253 323,256.5 323,256.5 321.387,259.727 321.714,264.893 317.5,267 302.573,274.464 311.257,268 304,268 304,268 305,272.5 305,272.5 305,272.5 303,275 303,275  Z"/>

<path  fill="#FF9BCD" stroke-width="0" stroke="#FF9BCD" d = " M153 275 C146.419,275 161,284.768 161,285 153.791,285 146.754,274.127 140.5,271 127.211,264.355 115,285.916 115,256 115,256 119.5,261 119.5,261 124.744,263.622 128,255.39 128,252 128,252 130.5,257 130.5,257 130.5,257 132,254 132,254 132,261.091 139.549,268.024 145.5,271 148.655,272.578 149.741,268 152,268 152,268 153,275 153,275  Z"/>

<path  fill="#FDB0D9" stroke-width="0" stroke="#FDB0D9" d = " M182 252 C182,260.477 191.489,252 182,252  Z"/>

<path  fill="#FDB0D9" stroke-width="0" stroke="#FDB0D9" d = " M270 252 C270,260.56 280.481,252 270,252  Z"/>

<path  fill="#FF9B88" stroke-width="0" stroke="#FF9B88" d = " M317 252 L316,253 C316,253 317,252 317,252  Z"/>

<path  fill="#FF9BCD" stroke-width="0" stroke="#FF9BCD" d = " M342 252 C340.421,252 341,254.855 341,256 342.579,256 342,253.145 342,252  Z"/>

<path  fill="#FF9B88" stroke-width="0" stroke="#FF9B88" d = " M316 254 L315,255 C315,255 316,254 316,254  Z"/>

<path  fill="#FFB3D6" stroke-width="0" stroke="#FFB3D6" d = " M193 281 L189.5,285 C183.848,287.826 173.074,283 167,283 167,280.329 157,279.197 157,274 157,274 156,273 156,273 156,273 156,267 156,267 156,267 160,260 160,260 160,260 164,256 164,256 169.81,256 191,260.193 191,266 191,266 192,267 192,267 192,267 194,276 194,276 194,276 194,277 194,277 194,277 193,281 193,281  Z"/>

<path  fill="#FFB3D6" stroke-width="0" stroke="#FFB3D6" d = " M264 282 L267.5,285 C271.132,286.816 284.9,283 290,283 290,283 296,279 296,279 296,279 297,278 297,278 297,278 298,277 298,277 298,277 299,276 299,276 299,276 299,275 299,275 299,275 300,274 300,274 300,274 301,268 301,268 301,268 296,259 296,259 296,259 292,256 292,256 286.434,256 279.181,256.659 274.5,259 274.5,259 265,266 265,266 265,269.395 263,272.106 263,276 263,276 263,277 263,277 263,277 264,282 264,282  Z"/>

<path  fill="#FF9B88" stroke-width="0" stroke="#FF9B88" d = " M315 256 L314,257 C314,257 315,256 315,256  Z"/>

<path  fill="#FF9B88" stroke-width="0" stroke="#FF9B88" d = " M314 257 L313,258 C313,258 314,257 314,257  Z"/>

<path  fill="#FF9B88" stroke-width="0" stroke="#FF9B88" d = " M153 260 L153,265 C151.368,265 143,260.026 143,258 143,258 147.5,261 147.5,261 149.456,261.978 151.577,260 153,260  Z"/>

<path  fill="#FF9B88" stroke-width="0" stroke="#FF9B88" d = " M302 259 L303,259 C303,259 302,258 302,258 302,258 302,259 302,259  Z"/>

<path  fill="#FF9B88" stroke-width="0" stroke="#FF9B88" d = " M313 258 L312,259 C312,259 313,258 313,258  Z"/>

<path  fill="#FF9B88" stroke-width="0" stroke="#FF9B88" d = " M154 259 L153,260 C153,260 154,259 154,259  Z"/>

<path  fill="#FF9BCD" stroke-width="0" stroke="#FF9BCD" d = " M153 266 C155.54,266 156,258.816 156,267 156,267 160,260 160,260 156.61,260 154.979,259 154,259 154,259 153,260 153,260 153,260 153,265 153,265 153,265 153,266 153,266  Z"/>

<path  fill="#FDB2D9" stroke-width="0" stroke="#FDB2D9" d = " M203 273 C203,274.533 203,275.095 203,277 208.877,277 222.035,273.429 225,267.5 225,267.5 225,261 225,261 222.901,261 220.617,257.442 217.5,259 213.125,261.188 203,267.01 203,273  Z"/>

<path  fill="#FDB2D9" stroke-width="0" stroke="#FDB2D9" d = " M254 273 L253,277 C246.995,277 231,272.205 231,265 231,265 231,261 231,261 231,261 233.5,259 233.5,259 237.057,257.222 241.977,260.738 244.5,262 244.5,262 252.5,270 252.5,270 252.5,270 254,273 254,273  Z"/>

<path  fill="#FF9BCD" stroke-width="0" stroke="#FF9BCD" d = " M304 267 L302,263.5 C300.341,260.182 301,267.338 301,268 301,268 296,259 296,259 296.853,259 302,263.714 302,259 302,259 303,259 303,259 303,259 303,260 303,260 303,260 304,264 304,264 304,264 304,267 304,267  Z"/>

<path  fill="#FF9B88" stroke-width="0" stroke="#FF9B88" d = " M312 259 L311,260 C311,260 312,259 312,259  Z"/>

<path  fill="#FF9B88" stroke-width="0" stroke="#FF9B88" d = " M309 261 C309,262.477 305.076,264 304,264 304,264 303,260 303,260 304.564,260 306.876,261 309,261  Z"/>

<path  fill="#FF9B88" stroke-width="0" stroke="#FF9B88" d = " M311 260 L310,261 C310,261 311,260 311,260  Z"/>

<path  fill="#FF9BCD" stroke-width="0" stroke="#FF9BCD" d = " M162 285 C162,287.191 172.043,288 174,288 181.552,288 203.348,288.924 209.5,292 210.85,292.675 219,292.247 219,291 219,291 213,291 213,291 210.887,291 210.218,290.859 208.5,290 196.31,283.905 221,283.04 221,279 217.24,279 218.952,273.274 221.5,272 221.5,272 226,273 226,273 226,273 226,261 226,261 226,261 225,261 225,261 225,261 225,267.5 225,267.5 222.035,273.429 208.877,277 203,277 203,281.665 193,287.28 193,281 193,281 189.5,285 189.5,285 183.848,287.826 173.074,283 167,283 167,283 167,284 167,284 167,286.455 172.142,283.784 173,285.5 174.008,287.515 163.523,285 162,285  Z"/>

<path  fill="#C8C8CB" stroke-width="0" stroke="#C8C8CB" d = " M167 283 L167,284 C163.737,284 153,279.514 153,275 153,275 152,268 152,268 152,268 153,266 153,266 155.54,266 156,258.816 156,267 156,267 156,273 156,273 156,273 157,274 157,274 157,279.197 167,280.329 167,283  Z"/>

<path  fill="#C8C8CB" stroke-width="0" stroke="#C8C8CB" d = " M290 283 L290,284 C293.586,284 303,278.731 303,275 303,275 305,272.5 305,272.5 305,272.5 304,268 304,268 304,268 304,267 304,267 304,267 302,263.5 302,263.5 300.341,260.182 301,267.338 301,268 301,268 300,274 300,274 300,274 299,275 299,275 299,275 299,276 299,276 299,276 298,277 298,277 298,277 297,278 297,278 297,278 296,279 296,279 296,279 290,283 290,283  Z"/>

<path  fill="#FF9BCD" stroke-width="0" stroke="#FF9BCD" d = " M295 285 C295,287.67 288.125,286.187 286.5,287 279.217,290.642 256.989,291 248,291 248,289.577 252.954,289.407 251,285.5 249.454,282.407 236,283.872 236,279 238.086,279 237.818,273.659 236.5,273 233.547,271.524 232.638,273 230,273 230,271.51 229.265,265 231,265 231,272.205 246.995,277 253,277 253,279.967 259.5,285.5 262.5,284 262.5,284 264,282 264,282 264,282 267.5,285 267.5,285 271.132,286.816 284.9,283 290,283 290,283 290,284 290,284 289.326,284 280.877,285.689 283.5,287 283.5,287 295,285 295,285  Z"/>

<path  fill="#FF9BCD" stroke-width="0" stroke="#FF9BCD" d = " M192 266 L192,267 C192,267 191,266 191,266 191,266 192,266 192,266  Z"/>

<path  fill="#FCB2D8" stroke-width="0" stroke="#FCB2D8" d = " M203 277 C203,281.665 193,287.28 193,281 193,281 194,277 194,277 194,277 195,276 195,276 195,271.371 201.293,273 203,273 203,274.533 203,275.095 203,277  Z"/>

<path  fill="#CACCC8" stroke-width="0" stroke="#CACCC8" d = " M221 279 L225,279 C226.473,279 226,277.048 226,276 226,276 226,274 226,274 226,274 226,273 226,273 226,273 221.5,272 221.5,272 218.952,273.274 217.24,279 221,279  Z"/>

<path  fill="#CACCC8" stroke-width="0" stroke="#CACCC8" d = " M232 279 L236,279 C238.086,279 237.818,273.659 236.5,273 233.547,271.524 232.638,273 230,273 230,273 230,275 230,275 230,276.145 229.421,279 231,279 231,279 232,279 232,279  Z"/>

<path  fill="#FCB2D8" stroke-width="0" stroke="#FCB2D8" d = " M263 277 L264,282 C264,282 262.5,284 262.5,284 259.5,285.5 253,279.967 253,277 253,277 254,273 254,273 254,270.814 261,273.031 261,275 261,275 263,277 263,277  Z"/>

<path  fill="#FF9BCD" stroke-width="0" stroke="#FF9BCD" d = " M156 273 L157,274 C157,274 156,273 156,273  Z"/>

<path  fill="#FF9BCD" stroke-width="0" stroke="#FF9BCD" d = " M226 276 L227,276 C227,276 226,274 226,274 226,274 226,276 226,276  Z"/>

<path  fill="#FF9BCD" stroke-width="0" stroke="#FF9BCD" d = " M300 274 L299,275 C299,275 300,274 300,274  Z"/>

<path  fill="#CBC7CC" stroke-width="0" stroke="#CBC7CC" d = " M161 285 L162,285 C163.523,285 174.008,287.515 173,285.5 172.142,283.784 167,286.455 167,284 163.737,284 153,279.514 153,275 146.419,275 161,284.768 161,285  Z"/>

<path  fill="#FFC6E2" stroke-width="0" stroke="#FFC6E2" d = " M226 284 C226.666,284 230,286.56 230,284 230,284 231,280 231,280 231,280 231,279 231,279 229.421,279 230,276.145 230,275 230,275 227,276 227,276 227,276 226,276 226,276 226,277.048 226.473,279 225,279 225,279 226,284 226,284  Z"/>

<path  fill="#FF9BCD" stroke-width="0" stroke="#FF9BCD" d = " M263 276 L263,277 C263,277 261,275 261,275 261,275 263,276 263,276  Z"/>

<path  fill="#CBC7CC" stroke-width="0" stroke="#CBC7CC" d = " M297 284 L295,285 C295,285 283.5,287 283.5,287 280.877,285.689 289.326,284 290,284 293.586,284 303,278.731 303,275 308.396,275 302,279.489 302,281 300.762,281 299,281.423 299,283 299,283 297,284 297,284  Z"/>

<path  fill="#FF9BCD" stroke-width="0" stroke="#FF9BCD" d = " M195 276 L194,277 C194,277 194,276 194,276 194,276 195,276 195,276  Z"/>

<path  fill="#FF9BCD" stroke-width="0" stroke="#FF9BCD" d = " M299 276 L298,277 C298,277 299,276 299,276  Z"/>

<path  fill="#FF9BCD" stroke-width="0" stroke="#FF9BCD" d = " M297 278 L296,279 C296,279 297,278 297,278  Z"/>

<path  fill="#C7C9C9" stroke-width="0" stroke="#C7C9C9" d = " M226 284 C226,287.324 219,289.419 219,291 219,291 213,291 213,291 210.887,291 210.218,290.859 208.5,290 196.31,283.905 221,283.04 221,279 221,279 225,279 225,279 225,279 226,284 226,284  Z"/>

<path  fill="#FF9BCD" stroke-width="0" stroke="#FF9BCD" d = " M232 279 L231,280 C231,280 231,279 231,279 231,279 232,279 232,279  Z"/>

<path  fill="#C7C9C9" stroke-width="0" stroke="#C7C9C9" d = " M247 291 L248,291 C248,289.577 252.954,289.407 251,285.5 249.454,282.407 236,283.872 236,279 236,279 232,279 232,279 232,279 231,280 231,280 231,280 230,284 230,284 230,284 233,288.5 233,288.5 233,288.5 237,291 237,291 237,291 238,291 238,291 238,291 247,291 247,291  Z"/>

<path  fill="#FF9BCD" stroke-width="0" stroke="#FF9BCD" d = " M302 281 C300.762,281 299,281.423 299,283 300.238,283 302,282.577 302,281  Z"/>

<path  fill="#FF9BCD" stroke-width="0" stroke="#FF9BCD" d = " M299 283 L297,284 C297,284 299,283 299,283  Z"/>

<path  fill="#FF9BCD" stroke-width="0" stroke="#FF9BCD" d = " M219 291 C222.82,291 224.414,289.543 227.5,288 228.703,287.398 234.6,291 237,291 237,291 233,288.5 233,288.5 233,288.5 230,284 230,284 230,286.56 226.666,284 226,284 226,287.324 219,289.419 219,291  Z"/>

<path  fill="#FF9BCD" stroke-width="0" stroke="#FF9BCD" d = " M297 284 L295,285 C295,285 297,284 297,284  Z"/>

<path  fill="#FF9BCD" stroke-width="0" stroke="#FF9BCD" d = " M238 291 L247,291 C247,292.622 238,292.622 238,291  Z"/>

</g>
</svg>
