<svg xmlns="http://www.w3.org/2000/svg" xmlns:xlink="http://www.w3.org/1999/xlink"  viewBox="0 0 456 320">
<g>
<rect width="456" height="320" fill="#000000"  stroke-width="0" /> 
<path  fill-rule="evenodd" fill="#9AD1BD" stroke-width="0" stroke="#9AD1BD" d = " M183 132 L179,136 L179,142.5 C184.132,152.763 196.962,132 183,132  M183 123 L178,126.5 C178,127.638 186.786,126 188,126 188.768,126 196,128.946 196,127.5 196,124.299 189.964,124.732 188.5,124 186.559,123.029 185.378,123 183,123  M185 245 L186,245 C190.593,245 196.009,247.245 200.5,245 220.154,235.173 221,208.077 221,188 221,188 221,163.5 221,163.5 222.628,160.244 224.939,131.378 223,127.5 220.949,123.398 219.836,117.336 216.5,114 216.5,114 209,107 209,107 209,107 208,107 208,107 208,107 207,106 207,106 207,106 201.5,104 201.5,104 191.142,98.821 166.199,110.301 159.5,117 159.5,117 150,128 150,128 150,128 149,129 149,129 149,129 149,130 149,130 149,130 148,131 148,131 148,131 147,134 147,134 147,134 146,135 146,135 146,135 146,136 146,136 146,136 145,137 145,137 145,137 145,140 145,140 145,140 144,142 144,142 144,142 144,144 144,144 144,145.235 144.643,149 143,149 143,149 143,154 143,154 144.473,154 144,155.952 144,157 144,157 144,159 144,159 145.473,159 145,160.952 145,162 145,162 145,165 145,165 146.473,165 146,166.952 146,168 146,168 146,169 146,169 147.473,169 147,170.952 147,172 148.961,172 152.135,181.769 153,183.5 155.185,187.869 156.851,192.202 159,196.5 160.569,199.639 159.363,204.226 161,207.5 161,207.5 161,214.5 161,214.5 161,214.5 163,219 163,219 163,219 163,220 163,220 163,220 164,221 164,221 164,221 164,222 164,222 164,222 165,223 165,223 165,226.627 173.11,239 177,239 177,239 185,245 185,245  Z"/>

<path  fill-rule="evenodd" fill="#9AD1BD" stroke-width="0" stroke="#9AD1BD" d = " M271 132 C271,132.276 267.571,136.357 267,137.5 265.413,140.674 270.686,146.907 274.5,145 280.956,141.772 277.421,132 271,132  M269 123 C269,124.615 259.414,124.328 261,127.5 261.569,128.638 268.066,126 269.5,126 L278,127.5 C279.025,125.451 274.362,124.431 273.5,124 271.782,123.141 271.113,123 269,123  M273 244 L271,245 C266.305,245 260.123,247.312 255.5,245 231.486,232.993 235,186.821 235,161.5 235,154.687 229.763,135.975 233,129.5 235.791,123.918 238.167,118.167 241,112.5 241,112.5 247,107 247,107 247,107 248,107 248,107 248,107 249,106 249,106 256.109,106 268.873,101.186 276.5,105 276.5,105 288.5,110 288.5,110 288.5,110 296.5,117 296.5,117 299.248,118.374 307,125.679 307,129 307,129 308,130 308,130 308,130 309,133 309,133 309,133 310,134 310,134 310,134 310,135 310,135 310,135 311,137 311,137 311,137 311,139 311,139 311,139 312,140 312,140 312,140 312,142 312,142 312,143.048 311.527,145 313,145 313,145 313,156 313,156 311.527,156 312,157.952 312,159 312,159 312,162 312,162 312,162 311,164 311,164 311,164 311,167 311,167 309.527,167 310,168.952 310,170 308.527,170 309,171.952 309,173 307.039,173 303.865,182.769 303,184.5 298.294,193.912 294,206.948 294,218 294,218 293,219 293,219 293,219 293,221 293,221 293,221 292,222 292,222 292,224.444 284.794,237 282,237 282,237 281,238 281,238 281,238 279,240 279,240 279,240 277,241 277,241 277,241 276,242 276,242 276,242 275,243 275,243 275,243 273,244 273,244  Z"/>

<path  fill="#99D2BD" stroke-width="0" stroke="#99D2BD" d = " M207 106 L208,107 C208,107 207,106 207,106  Z"/>

<path  fill="#99D2BD" stroke-width="0" stroke="#99D2BD" d = " M249 106 L248,107 C248,107 249,106 249,106  Z"/>

<path  fill="#C7CBCA" stroke-width="0" stroke="#C7CBCA" d = " M227 212 C227,224.419 230.389,255.055 218.5,261 211.219,264.64 207.366,254.933 201.5,252 198.948,250.724 196.121,250.311 193.5,249 191.863,248.181 186,247.825 186,245 190.593,245 196.009,247.245 200.5,245 220.154,235.173 221,208.077 221,188 221,188 221,163.5 221,163.5 222.628,160.244 224.939,131.378 223,127.5 220.949,123.398 219.836,117.336 216.5,114 216.5,114 209,107 209,107 212.316,107 215.627,109.754 217,112.5 218.009,114.519 221.628,116.756 223,119.5 228.746,130.993 227,147.189 227,161 227,161 227,212 227,212  Z"/>

<path  fill="#C7CBCA" stroke-width="0" stroke="#C7CBCA" d = " M247 107 C235.775,107 230,129.308 230,138.5 230,159.17 229,180.742 229,202 229,209.266 226.895,221.29 230,227.5 232.814,233.129 228.569,246.637 233,255.5 239.758,269.016 248.59,254.955 256.5,251 258.538,249.981 271,248.14 271,245 266.305,245 260.123,247.312 255.5,245 231.486,232.993 235,186.821 235,161.5 235,154.687 229.763,135.975 233,129.5 235.791,123.918 238.167,118.167 241,112.5 241,112.5 247,107 247,107  Z"/>

<path  fill="#CACAC9" stroke-width="0" stroke="#CACAC9" d = " M183 123 L178,126.5 C178,127.638 186.786,126 188,126 188.768,126 196,128.946 196,127.5 196,124.299 189.964,124.732 188.5,124 186.559,123.029 185.378,123 183,123  Z"/>

<path  fill="#CACAC9" stroke-width="0" stroke="#CACAC9" d = " M269 123 C269,124.615 259.414,124.328 261,127.5 261.569,128.638 268.066,126 269.5,126 L278,127.5 C279.025,125.451 274.362,124.431 273.5,124 271.782,123.141 271.113,123 269,123  Z"/>

<path  fill="#99D2BD" stroke-width="0" stroke="#99D2BD" d = " M150 128 L149,129 C149,129 150,128 150,128  Z"/>

<path  fill="#99D2BD" stroke-width="0" stroke="#99D2BD" d = " M307 129 L308,130 C308,130 307,129 307,129  Z"/>

<path  fill="#99D2BD" stroke-width="0" stroke="#99D2BD" d = " M149 130 L148,131 C148,131 149,130 149,130  Z"/>

<path  fill="#95E4C8" stroke-width="0" stroke="#95E4C8" d = " M183 132 L179,136 L179,142.5 C184.132,152.763 196.962,132 183,132  Z"/>

<path  fill="#95E4C8" stroke-width="0" stroke="#95E4C8" d = " M271 132 C271,132.276 267.571,136.357 267,137.5 265.413,140.674 270.686,146.907 274.5,145 280.956,141.772 277.421,132 271,132  Z"/>

<path  fill="#99D2BD" stroke-width="0" stroke="#99D2BD" d = " M309 133 L310,134 C310,134 309,133 309,133  Z"/>

<path  fill="#99D2BD" stroke-width="0" stroke="#99D2BD" d = " M147 134 L146,135 C146,135 147,134 147,134  Z"/>

<path  fill="#99D2BD" stroke-width="0" stroke="#99D2BD" d = " M310 135 L311,137 C311,137 310,135 310,135  Z"/>

<path  fill="#99D2BD" stroke-width="0" stroke="#99D2BD" d = " M146 136 L145,137 C145,137 146,136 146,136  Z"/>

<path  fill="#99D2BD" stroke-width="0" stroke="#99D2BD" d = " M311 139 L312,140 C312,140 311,139 311,139  Z"/>

<path  fill="#99D2BD" stroke-width="0" stroke="#99D2BD" d = " M145 140 L144,142 C144,142 145,140 145,140  Z"/>

<path  fill="#99D2BD" stroke-width="0" stroke="#99D2BD" d = " M312 142 C313.473,142 313,143.952 313,145 311.527,145 312,143.048 312,142  Z"/>

<path  fill="#99D2BD" stroke-width="0" stroke="#99D2BD" d = " M144 144 C142.357,144 143,147.765 143,149 144.643,149 144,145.235 144,144  Z"/>

<path  fill="#99D2BD" stroke-width="0" stroke="#99D2BD" d = " M143 154 C144.473,154 144,155.952 144,157 142.527,157 143,155.048 143,154  Z"/>

<path  fill="#99D2BD" stroke-width="0" stroke="#99D2BD" d = " M313 156 C311.527,156 312,157.952 312,159 313.473,159 313,157.048 313,156  Z"/>

<path  fill="#99D2BD" stroke-width="0" stroke="#99D2BD" d = " M144 159 C145.473,159 145,160.952 145,162 143.527,162 144,160.048 144,159  Z"/>

<path  fill="#99D2BD" stroke-width="0" stroke="#99D2BD" d = " M227 161 C228.758,161 228,168.884 228,170.5 L228,201 C228,202.741 228.773,212 227,212 227,212 227,161 227,161  Z"/>

<path  fill="#99D2BD" stroke-width="0" stroke="#99D2BD" d = " M312 162 L311,164 C311,164 312,162 312,162  Z"/>

<path  fill="#99D2BD" stroke-width="0" stroke="#99D2BD" d = " M145 165 C146.473,165 146,166.952 146,168 144.527,168 145,166.048 145,165  Z"/>

<path  fill="#99D2BD" stroke-width="0" stroke="#99D2BD" d = " M311 167 C309.527,167 310,168.952 310,170 311.473,170 311,168.048 311,167  Z"/>

<path  fill="#99D2BD" stroke-width="0" stroke="#99D2BD" d = " M146 169 C147.473,169 147,170.952 147,172 145.527,172 146,170.048 146,169  Z"/>

<path  fill="#99D2BD" stroke-width="0" stroke="#99D2BD" d = " M309 173 L309,175 C310.643,175 310,171.235 310,170 308.527,170 309,171.952 309,173  Z"/>

<path  fill="#C7CBCA" stroke-width="0" stroke="#C7CBCA" d = " M155 210 L163,219 C163,219 161,214.5 161,214.5 161,214.5 161,207.5 161,207.5 159.363,204.226 160.569,199.639 159,196.5 156.851,192.202 155.185,187.869 153,183.5 152.135,181.769 148.961,172 147,172 147,172 147,178 147,178 148.579,178 148,180.855 148,182 148,182 148,183 148,183 148,183 149,185 149,185 149,185 149,189 149,189 149,189 150,191 150,191 150,191 150,193 150,193 150,193 151,195 151,195 151,195 151,197 151,197 152.473,197 152,198.952 152,200 152,200 152,201 152,201 152,201 153,203 153,203 153,203 153,205 153,205 153,205 154,207 154,207 154,207 154,208 154,208 154,208 155,210 155,210  Z"/>

<path  fill="#C7CBCA" stroke-width="0" stroke="#C7CBCA" d = " M301 210 C301,211.852 296.073,218 294,218 294,206.948 298.294,193.912 303,184.5 303.865,182.769 307.039,173 309,173 309,173 309,175 309,175 309,175 309,181 309,181 309,181 308,183 308,183 308,183 308,184 308,184 306.527,184 307,185.952 307,187 307,187 307,191 307,191 307,191 306,193 306,193 306,193 306,194 306,194 304.527,194 305,195.952 305,197 305,197 305,199 305,199 303.527,199 304,200.952 304,202 304,202 303,204 303,204 303,204 303,207 303,207 303,207 302,209 302,209 302,209 301,210 301,210  Z"/>

<path  fill="#99D2BD" stroke-width="0" stroke="#99D2BD" d = " M147 178 C148.579,178 148,180.855 148,182 146.421,182 147,179.145 147,178  Z"/>

<path  fill="#99D2BD" stroke-width="0" stroke="#99D2BD" d = " M309 181 L308,183 C308,183 309,181 309,181  Z"/>

<path  fill="#99D2BD" stroke-width="0" stroke="#99D2BD" d = " M148 183 L149,185 C149,185 148,183 148,183  Z"/>

<path  fill="#99D2BD" stroke-width="0" stroke="#99D2BD" d = " M308 184 C306.527,184 307,185.952 307,187 308.473,187 308,185.048 308,184  Z"/>

<path  fill="#99D2BD" stroke-width="0" stroke="#99D2BD" d = " M149 189 L150,191 C150,191 149,189 149,189  Z"/>

<path  fill="#99D2BD" stroke-width="0" stroke="#99D2BD" d = " M307 191 L306,193 C306,193 307,191 307,191  Z"/>

<path  fill="#99D2BD" stroke-width="0" stroke="#99D2BD" d = " M150 193 L151,195 C151,195 150,193 150,193  Z"/>

<path  fill="#99D2BD" stroke-width="0" stroke="#99D2BD" d = " M306 194 C304.527,194 305,195.952 305,197 306.473,197 306,195.048 306,194  Z"/>

<path  fill="#99D2BD" stroke-width="0" stroke="#99D2BD" d = " M151 197 C152.473,197 152,198.952 152,200 150.527,200 151,198.048 151,197  Z"/>

<path  fill="#99D2BD" stroke-width="0" stroke="#99D2BD" d = " M305 199 C303.527,199 304,200.952 304,202 305.473,202 305,200.048 305,199  Z"/>

<path  fill="#99D2BD" stroke-width="0" stroke="#99D2BD" d = " M152 201 L153,203 C153,203 152,201 152,201  Z"/>

<path  fill="#99D2BD" stroke-width="0" stroke="#99D2BD" d = " M304 202 L303,204 C303,204 304,202 304,202  Z"/>

<path  fill="#99D2BD" stroke-width="0" stroke="#99D2BD" d = " M153 205 L154,207 C154,207 153,205 153,205  Z"/>

<path  fill="#99D2BD" stroke-width="0" stroke="#99D2BD" d = " M303 207 L302,209 C302,209 303,207 303,207  Z"/>

<path  fill="#99D2BD" stroke-width="0" stroke="#99D2BD" d = " M154 208 L155,210 C155,210 154,208 154,208  Z"/>

<path  fill="#99D2BD" stroke-width="0" stroke="#99D2BD" d = " M302 209 L301,210 C301,210 302,209 302,209  Z"/>

<path  fill="#C7CBCA" stroke-width="0" stroke="#C7CBCA" d = " M294 218 L293,219 C293,219 294,218 294,218  Z"/>

<path  fill="#C7CBCA" stroke-width="0" stroke="#C7CBCA" d = " M163 220 L164,221 C164,221 163,220 163,220  Z"/>

<path  fill="#C7CBCA" stroke-width="0" stroke="#C7CBCA" d = " M293 221 L292,222 C292,222 293,221 293,221  Z"/>

<path  fill="#C7CBCA" stroke-width="0" stroke="#C7CBCA" d = " M164 222 L165,223 C165,223 164,222 164,222  Z"/>

<path  fill="#C7CBCA" stroke-width="0" stroke="#C7CBCA" d = " M282 237 L281,238 C281,238 282,237 282,237  Z"/>

<path  fill="#C7CBCA" stroke-width="0" stroke="#C7CBCA" d = " M177 239 L185,245 C183.374,245 177,240.89 177,239  Z"/>

<path  fill="#C7CBCA" stroke-width="0" stroke="#C7CBCA" d = " M279 240 L277,241 C277,241 279,240 279,240  Z"/>

<path  fill="#C7CBCA" stroke-width="0" stroke="#C7CBCA" d = " M277 241 L276,242 C276,242 277,241 277,241  Z"/>

<path  fill="#C7CBCA" stroke-width="0" stroke="#C7CBCA" d = " M276 242 L275,243 C275,243 276,242 276,242  Z"/>

<path  fill="#C7CBCA" stroke-width="0" stroke="#C7CBCA" d = " M275 243 L273,244 C273,244 275,243 275,243  Z"/>

<path  fill="#C7CBCA" stroke-width="0" stroke="#C7CBCA" d = " M273 244 L271,245 C271,245 273,244 273,244  Z"/>

</g>
</svg>
