<svg xmlns="http://www.w3.org/2000/svg" xmlns:xlink="http://www.w3.org/1999/xlink"  viewBox="0 0 456 320">
<g>
<rect width="456" height="320" fill="#000000"  stroke-width="0" /> 
<path  fill="#1E9C59" stroke-width="0" stroke="#1E9C59" d = " M146 137 C141.967,137 140.067,139 136,139 133.856,139 135.619,134.738 135,133.5 132.188,127.876 134.565,120.371 137,115.5 143.95,101.6 151.318,94.0908 165.5,87 169.725,84.8875 175.223,85.1383 179.5,83 184.328,80.5861 193.852,84 198.5,84 199.322,84 204,85.2126 204,86 204,86 199,92 199,92 174.02,92 158.334,90.8324 145,117.5 141.865,123.771 146,131.084 146,137  Z"/>

<path  fill="#1E9C59" stroke-width="0" stroke="#1E9C59" d = " M310 137 C314.135,137 317.305,139 321,139 321,136.813 323.664,130.829 323,129.5 320.275,124.05 320.23,114.959 317,108.5 312.125,98.7504 299.125,91.3126 290.5,87 283.926,83.7132 268.139,80.1806 260.5,84 259.197,84.6516 253,84.2192 253,86 253,88.0534 257,90.7918 257,92 281.91,92 298.005,90.5109 311,116.5 314.307,123.115 310,131.07 310,137  Z"/>

<path  fill="#2FA750" stroke-width="0" stroke="#2FA750" d = " M217 112 L226,113 C226,103.098 215.234,86 204,86 204,86 199,92 199,92 199,92 199,93 199,93 208.554,93 217,102.714 217,112  Z"/>

<path  fill="#2FA750" stroke-width="0" stroke="#2FA750" d = " M231 113 L239,113 C239,113 239,112 239,112 239,103.233 247.956,93 257,93 257,93 257,92 257,92 257,90.7918 253,88.0534 253,86 240.823,86 231,101.922 231,113  Z"/>

<path  fill="#1E9D58" stroke-width="0" stroke="#1E9D58" d = " M147 138 L154,139 C154,139 158,137 158,137 158,137 159,136 159,136 159,136 160,135 160,135 160,132.462 161,131.047 161,128 161,124.371 154.273,120.954 157,115.5 164.842,99.8161 179.001,97 196,97 196,97 199,93 199,93 199,93 199,92 199,92 174.02,92 158.334,90.8324 145,117.5 141.865,123.771 146,131.084 146,137 146,137 147,138 147,138  Z"/>

<path  fill="#1E9D58" stroke-width="0" stroke="#1E9D58" d = " M309 138 L302,139 C302,139 298,137 298,137 298,137 297,135 297,135 297,135 295,128 295,128 295,126.35 300,122.609 300,119.5 300,100.696 276.1,97 260,97 260,95.8863 257.966,93 257,93 257,93 257,92 257,92 281.91,92 298.005,90.5109 311,116.5 314.307,123.115 310,131.07 310,137 310,137 309,138 309,138  Z"/>

<path  fill="#2FA74F" stroke-width="0" stroke="#2FA74F" d = " M211 110 L217,112 C217,102.714 208.554,93 199,93 199,93 196,97 196,97 200.052,97 211,105.451 211,110  Z"/>

<path  fill="#2FA74F" stroke-width="0" stroke="#2FA74F" d = " M244 111 L239,112 C239,103.233 247.956,93 257,93 257.966,93 260,95.8863 260,97 253.539,97 245.302,111 244,111  Z"/>

<path  fill-rule="evenodd" fill="#268E45" stroke-width="0" stroke="#268E45" d = " M190 102 C190,103.026 181.04,104.58 183,108.5 186.131,114.761 196.335,116.083 202.5,113 205.308,111.596 203.932,105.216 201.5,104 L196.5,103 C194.341,101.921 192.632,102 190,102  M189 115 C195.327,115 200.426,117 206,117 206,117 208.5,119 208.5,119 216.529,123.014 211,113.089 211,110 211,105.451 200.052,97 196,97 179.001,97 164.842,99.8161 157,115.5 154.273,120.954 161,124.371 161,128 171.408,128 177.8,115 189,115  Z"/>

<path  fill-rule="evenodd" fill="#268E45" stroke-width="0" stroke="#268E45" d = " M261 102 C261,103.452 253.892,103.716 253,105.5 245.85,119.801 282.668,115.168 271.5,104 269.977,102.477 269.082,103.791 267.5,103 265.341,101.921 263.632,102 261,102  M249 118 L248,119 C240.524,119 244,118.94 244,111 245.302,111 253.539,97 260,97 276.1,97 300,100.696 300,119.5 300,122.609 295,126.35 295,128 287.296,128 277.408,115 267,115 259.956,115 253.768,118 249,118  Z"/>

<path  fill="#258F45" stroke-width="0" stroke="#258F45" d = " M190 102 C190,103.026 181.04,104.58 183,108.5 186.131,114.761 196.335,116.083 202.5,113 205.308,111.596 203.932,105.216 201.5,104 L196.5,103 C194.341,101.921 192.632,102 190,102  Z"/>

<path  fill="#258F45" stroke-width="0" stroke="#258F45" d = " M261 102 C261,103.452 253.892,103.716 253,105.5 245.85,119.801 282.668,115.168 271.5,104 269.977,102.477 269.082,103.791 267.5,103 265.341,101.921 263.632,102 261,102  Z"/>

<path  fill="#24885D" stroke-width="0" stroke="#24885D" d = " M210 127 L211,127 C218.036,127 217,116.776 217,112 217,112 211,110 211,110 211,113.089 216.529,123.014 208.5,119 208.5,119 206,117 206,117 206,119.801 210,123.46 210,127  Z"/>

<path  fill="#24885D" stroke-width="0" stroke="#24885D" d = " M245 127 L246,127 C246,123.505 248,121.061 248,119 240.524,119 244,118.94 244,111 244,111 239,112 239,112 239,112 239,113 239,113 239,117.254 239.255,127 245,127  Z"/>

<path  fill="#23895D" stroke-width="0" stroke="#23895D" d = " M222 143 L219,145 C219,145 215,143 215,143 215,137.301 211,132.245 211,127 218.036,127 217,116.776 217,112 217,112 226,113 226,113 226,113 226,131.5 226,131.5 226,131.5 223,142 223,142 223,142 222,143 222,143  Z"/>

<path  fill="#23895D" stroke-width="0" stroke="#23895D" d = " M242 142 C242,143.077 238.238,145 237,145 237,145 234,142 234,142 234,142 231,135.5 231,135.5 228.51,130.52 231,117.54 231,113 231,113 239,113 239,113 239,117.254 239.255,127 245,127 245,132.164 242,137.68 242,142  Z"/>

<path  fill="#238A5E" stroke-width="0" stroke="#238A5E" d = " M161 128 C161,131.047 160,132.462 160,135 161.372,135 176.908,125 187,125 187,125 189,115 189,115 177.8,115 171.408,128 161,128  Z"/>

<path  fill="#248A5D" stroke-width="0" stroke="#248A5D" d = " M187 125 C190.766,125 198.505,123.002 202.5,125 205.309,126.405 206.526,127 210,127 210,123.46 206,119.801 206,117 200.426,117 195.327,115 189,115 189,115 187,125 187,125  Z"/>

<path  fill="#248A5D" stroke-width="0" stroke="#248A5D" d = " M269 125 L270,125 C270,125 267,115 267,115 259.956,115 253.768,118 249,118 249,118 248,119 248,119 248,121.061 246,123.505 246,127 253.905,127 261.414,125 269,125  Z"/>

<path  fill="#238A5E" stroke-width="0" stroke="#238A5E" d = " M295 128 L297,135 C293.026,135 280.182,125 270,125 270,125 267,115 267,115 277.408,115 287.296,128 295,128  Z"/>

<path  fill="#24885D" stroke-width="0" stroke="#24885D" d = " M249 118 L248,119 C248,119 249,118 249,118  Z"/>

<path  fill="#248A5B" stroke-width="0" stroke="#248A5B" d = " M213 142 L215,143 C215,137.301 211,132.245 211,127 211,127 210,127 210,127 206.526,127 205.309,126.405 202.5,125 198.505,123.002 190.766,125 187,125 187,125 186,134 186,134 186,134 193,134 193,134 196.65,134 213,139.052 213,142  Z"/>

<path  fill="#248A5B" stroke-width="0" stroke="#248A5B" d = " M242 142 L243,142 C243,139.301 260.335,134 264,134 264,134 271,134 271,134 271,134 269,125 269,125 261.414,125 253.905,127 246,127 246,127 245,127 245,127 245,132.164 242,137.68 242,142  Z"/>

<path  fill="#238A5D" stroke-width="0" stroke="#238A5D" d = " M157 140 C157,145.266 156,149.674 156,155 156,155 159,149.5 159,149.5 160.602,146.296 170.8,139 174,139 177.494,139 181.656,134 186,134 186,134 187,125 187,125 176.908,125 161.372,135 160,135 160,135 159,136 159,136 159,136 158,137 158,137 158,138.048 158.473,140 157,140  Z"/>

<path  fill="#238A5D" stroke-width="0" stroke="#238A5D" d = " M299 141 C299,145.152 300,149.328 300,154 300,154 296,148.5 296,148.5 294.01,146.51 281.884,137 280,137 277.226,137 273.965,134 271,134 271,134 269,125 269,125 269,125 270,125 270,125 280.182,125 293.026,135 297,135 297,135 298,137 298,137 298,137 299,141 299,141  Z"/>

<path  fill="#9DF0D1" stroke-width="0" stroke="#9DF0D1" d = " M193 146 L183.5,150 C180.274,151.613 176.018,147 173,147 173,147 174,139 174,139 177.494,139 181.656,134 186,134 186,134 193,134 193,134 193,134 195,139 195,139 195,141.833 193,143.84 193,146  Z"/>

<path  fill="#99D2BD" stroke-width="0" stroke="#99D2BD" d = " M211 142 L213,142 C213,139.052 196.65,134 193,134 193,134 195,139 195,139 196.423,139 198.544,137.022 200.5,138 200.5,138 211,142 211,142  Z"/>

<path  fill="#99D2BD" stroke-width="0" stroke="#99D2BD" d = " M243 142 L245,143 C247.28,143 254.561,138 261,138 261,138 264,134 264,134 260.335,134 243,139.301 243,142  Z"/>

<path  fill="#9DF0D1" stroke-width="0" stroke="#9DF0D1" d = " M263 146 L272.5,150 C276.285,151.892 279.849,147 283,147 283,147 284,142.5 284,142.5 284,142.5 280,137 280,137 277.226,137 273.965,134 271,134 271,134 264,134 264,134 264,134 261,138 261,138 261,141.303 263,143.115 263,146  Z"/>

<path  fill="#238A5E" stroke-width="0" stroke="#238A5E" d = " M160 135 L159,136 C159,136 160,135 160,135  Z"/>

<path  fill="#209764" stroke-width="0" stroke="#209764" d = " M156 155 L155,157 C146.757,157 136,147.489 136,139 140.067,139 141.967,137 146,137 146,137 147,138 147,138 147,141.482 152.666,140 154,140 154,140 157,140 157,140 157,145.266 156,149.674 156,155  Z"/>

<path  fill="#1E9C59" stroke-width="0" stroke="#1E9C59" d = " M154 140 L157,140 C158.473,140 158,138.048 158,137 158,137 154,139 154,139 154,139 154,140 154,140  Z"/>

<path  fill="#99D2BD" stroke-width="0" stroke="#99D2BD" d = " M276 229 L278,233 C278.972,233 285.952,217.596 287,215.5 296.284,196.932 301,179.592 301,157 301,157 301,156 301,156 301,156 300,155 300,155 300,155 300,154 300,154 300,154 296,148.5 296,148.5 294.01,146.51 281.884,137 280,137 280,137 284,142.5 284,142.5 284,142.5 283,147 283,147 289.221,147 286,154.947 286,158 288.185,158 294,157.881 294,161 298.357,161 297,176.893 297,179.5 297,193.128 288.758,206.984 283,218.5 282.107,220.285 278.075,229 276,229  Z"/>

<path  fill="#1E9C59" stroke-width="0" stroke="#1E9C59" d = " M302 140 L299,141 C299,141 298,137 298,137 298,137 302,139 302,139 302,139 302,140 302,140  Z"/>

<path  fill="#209764" stroke-width="0" stroke="#209764" d = " M301 156 L301,157 C308.953,157 321,147.349 321,139 317.305,139 314.135,137 310,137 310,137 309,138 309,138 309,142.664 303.56,140 302,140 302,140 299,141 299,141 299,145.152 300,149.328 300,154 300,154 300,155 300,155 300,155 301,156 301,156  Z"/>

<path  fill="#209765" stroke-width="0" stroke="#209765" d = " M154 139 L154,140 C152.666,140 147,141.482 147,138 147,138 154,139 154,139  Z"/>

<path  fill="#9AD1BD" stroke-width="0" stroke="#9AD1BD" d = " M181 237 C181,242.175 199.673,252 205,252 212.757,252 216.491,239.518 219,234.5 226.743,219.013 226,201.231 226,182.5 226,182.5 226,164.5 226,164.5 224.068,160.635 222.967,156.434 221,152.5 221,152.5 218,149 218,149 218,149 215,146 215,146 215,146 211,142 211,142 211,142 200.5,138 200.5,138 198.544,137.022 196.423,139 195,139 195,141.833 193,143.84 193,146 193,146 195,147.5 195,147.5 195,147.5 195,157 195,157 197.56,157 195,160.334 195,161 195,161 195,165 195,165 197.261,165 195.297,171.094 196,172.5 197.253,175.007 194,195.744 194,202 194,205.288 193.289,219 190,219 190,219 185,226 185,226 185,232.229 183.616,229 180,229 180,229 179,233 179,233 179,233 180,236 180,236 180,236 181,237 181,237  Z"/>

<path  fill="#9AD1BD" stroke-width="0" stroke="#9AD1BD" d = " M277 234 C277,241.37 257.485,252 251,252 243.727,252 239.715,238.929 237,233.5 226.613,212.726 231,184.825 231,161 232.638,161 233,157.424 233,156 234.097,156 238,150.014 238,149 238,149 239,148 239,148 239,148 240,147 240,147 240,147 243,145 243,145 243,145 244,144 244,144 244,144 245,143 245,143 247.28,143 254.561,138 261,138 261,141.303 263,143.115 263,146 263,146 261,148.5 261,148.5 259.716,151.068 262,154.986 262,157 259.213,157 261,159.571 261,161 261,161 261,167 261,167 259.372,167 259.372,177 261,177 261,177 261,179 261,179 261,179 263,197 263,197 263,201.075 261.916,219 267,219 267,220.463 270.486,226 272,226 272,226.169 269.714,232.893 273.5,231 273.5,231 276,229 276,229 276,229 278,233 278,233 278,233 277,234 277,234  Z"/>

<path  fill="#209765" stroke-width="0" stroke="#209765" d = " M302 139 L302,140 C303.56,140 309,142.664 309,138 309,138 302,139 302,139  Z"/>

<path  fill="#99D2BD" stroke-width="0" stroke="#99D2BD" d = " M180 229 L179,233 C176.308,233 170.251,217.002 169,214.5 160.016,196.533 155,178.772 155,157 155,157 156,155 156,155 156,155 159,149.5 159,149.5 160.602,146.296 170.8,139 174,139 174,139 173,147 173,147 166.773,147 171,155.706 171,158 168.072,158 163,157.339 163,161 159.235,161 157.057,175.614 159,179.5 160.49,182.481 159.554,186.608 161,189.5 165.12,197.74 166.856,207.212 171,215.5 171,215.5 180,229 180,229  Z"/>

<path  fill="#CAC8C9" stroke-width="0" stroke="#CAC8C9" d = " M223 153 L224,154 C227.208,154 223,149.53 223,149 223,149 219,145 219,145 219,145 215,143 215,143 215,143 213,142 213,142 213,142 211,142 211,142 211,142 215,146 215,146 215,146 219,149 219,149 219,149 223,153 223,153  Z"/>

<path  fill="#99D2BD" stroke-width="0" stroke="#99D2BD" d = " M223 142 L222,143 C222,143 223,142 223,142  Z"/>

<path  fill="#99D2BD" stroke-width="0" stroke="#99D2BD" d = " M237 145 L234,148 C234,148 234,142 234,142 234,142 237,145 237,145  Z"/>

<path  fill="#CAC8C9" stroke-width="0" stroke="#CAC8C9" d = " M232 154 L233,154 C233,152.168 236.242,149 238,149 238,149 239,148 239,148 239,148 240,147 240,147 240,147 243,145 243,145 243,145 244,144 244,144 244,144 245,143 245,143 245,143 243,142 243,142 243,142 242,142 242,142 242,143.077 238.238,145 237,145 237,145 234,148 234,148 234,149.974 232,151.517 232,154  Z"/>

<path  fill="#99D2BD" stroke-width="0" stroke="#99D2BD" d = " M219 145 L223,149 C223,149 222,143 222,143 222,143 219,145 219,145  Z"/>

<path  fill="#99D2BD" stroke-width="0" stroke="#99D2BD" d = " M245 143 L244,144 C244,144 245,143 245,143  Z"/>

<path  fill="#99D2BD" stroke-width="0" stroke="#99D2BD" d = " M244 144 L243,145 C243,145 244,144 244,144  Z"/>

<path  fill="#9DEFD2" stroke-width="0" stroke="#9DEFD2" d = " M195 157 C189.58,157 186.793,165.147 174.5,159 173.454,158.477 171,159.951 171,158 171,155.706 166.773,147 173,147 176.018,147 180.274,151.613 183.5,150 183.5,150 193,146 193,146 193,146 195,147.5 195,147.5 195,147.5 195,157 195,157  Z"/>

<path  fill="#99D2BD" stroke-width="0" stroke="#99D2BD" d = " M218 149 L219,149 C219,149 215,146 215,146 215,146 218,149 218,149  Z"/>

<path  fill="#9DEFD2" stroke-width="0" stroke="#9DEFD2" d = " M262 157 L268.5,161 C274.345,163.923 281.209,158 286,158 286,154.947 289.221,147 283,147 279.849,147 276.285,151.892 272.5,150 272.5,150 263,146 263,146 263,146 261,148.5 261,148.5 259.716,151.068 262,154.986 262,157  Z"/>

<path  fill="#99D2BD" stroke-width="0" stroke="#99D2BD" d = " M240 147 L239,148 C239,148 240,147 240,147  Z"/>

<path  fill="#99D2BD" stroke-width="0" stroke="#99D2BD" d = " M239 148 L238,149 C238,149 239,148 239,148  Z"/>

<path  fill="#C7CBCA" stroke-width="0" stroke="#C7CBCA" d = " M227 163 L227,208 C227,213.809 228.468,222.565 226,227.5 L225,242.5 C221.808,248.884 221.104,251.698 214.5,255 212.378,256.061 205,253.884 205,252 212.757,252 216.491,239.518 219,234.5 226.743,219.013 226,201.231 226,182.5 226,182.5 226,164.5 226,164.5 224.068,160.635 222.967,156.434 221,152.5 221,152.5 218,149 218,149 218,149 219,149 219,149 219,149 223,153 223,153 223,153 225,157 225,157 225,157 226,162 226,162 226,162 227,163 227,163  Z"/>

<path  fill="#C7CBCA" stroke-width="0" stroke="#C7CBCA" d = " M233 154 L233,156 C234.097,156 238,150.014 238,149 236.242,149 233,152.168 233,154  Z"/>

<path  fill="#99D2BD" stroke-width="0" stroke="#99D2BD" d = " M224 154 L225,157 C225,157 223,153 223,153 223,153 224,154 224,154  Z"/>

<path  fill="#99D2BD" stroke-width="0" stroke="#99D2BD" d = " M232 156 L233,156 C233,156 233,154 233,154 233,154 232,154 232,154 232,154 232,156 232,156  Z"/>

<path  fill="#238A5D" stroke-width="0" stroke="#238A5D" d = " M300 155 L301,156 C301,156 300,155 300,155  Z"/>

<path  fill="#99D2BD" stroke-width="0" stroke="#99D2BD" d = " M232 156 L231,157 C231,157 232,156 232,156  Z"/>

<path  fill="#C7CBCA" stroke-width="0" stroke="#C7CBCA" d = " M231 160 L231,161 C232.638,161 233,157.424 233,156 233,156 232,156 232,156 232,156 231,157 231,157 231,157 231,160 231,160  Z"/>

<path  fill="#CACAC9" stroke-width="0" stroke="#CACAC9" d = " M175 163 L177,163 C177,163 185.5,164 185.5,164 185.5,164 195,161 195,161 195,160.334 197.56,157 195,157 189.58,157 186.793,165.147 174.5,159 173.454,158.477 171,159.951 171,158 168.072,158 163,157.339 163,161 163,162.238 163.423,164 165,164 166.477,164 170.699,162 174,162 174,162 175,163 175,163  Z"/>

<path  fill="#CACAC9" stroke-width="0" stroke="#CACAC9" d = " M280 163 L281,163 C281,163 283,162 283,162 286.618,162 289.154,164 292,164 292,164 294,161 294,161 294,157.881 288.185,158 286,158 281.209,158 274.345,163.923 268.5,161 268.5,161 262,157 262,157 259.213,157 261,159.571 261,161 261,161 271.5,164 271.5,164 271.5,164 280,163 280,163  Z"/>

<path  fill="#99D2BD" stroke-width="0" stroke="#99D2BD" d = " M230 161 L231,161 C231,161 231,160 231,160 231,160 230,161 230,161  Z"/>

<path  fill="#CAC8C7" stroke-width="0" stroke="#CAC8C7" d = " M185 226 C185,232.229 183.616,229 180,229 180,229 171,215.5 171,215.5 166.856,207.212 165.12,197.74 161,189.5 159.554,186.608 160.49,182.481 159,179.5 157.057,175.614 159.235,161 163,161 163,162.238 163.423,164 165,164 165,169.135 158.686,177.872 162,184.5 162,184.5 171,208.5 171,208.5 171,208.5 175,213.5 175,213.5 176.301,216.102 180.656,226 185,226  Z"/>

<path  fill="#95E4C8" stroke-width="0" stroke="#95E4C8" d = " M195 165 C195,167.371 194.983,170 192,170 188.416,170 177,167.064 177,163 177,163 185.5,164 185.5,164 185.5,164 195,161 195,161 195,161 195,165 195,165  Z"/>

<path  fill="#C7CBCA" stroke-width="0" stroke="#C7CBCA" d = " M231 161 C231,184.825 226.613,212.726 237,233.5 239.715,238.929 243.727,252 251,252 251,254.673 243.695,256.097 241.5,255 234.834,251.667 234.279,248.057 231,241.5 231,241.5 230,222.5 230,222.5 225.415,213.33 230,172.894 230,161 230,161 231,161 231,161  Z"/>

<path  fill="#95E4C8" stroke-width="0" stroke="#95E4C8" d = " M261 167 C261,168.712 263.571,170 265,170 267.712,170 280,166.385 280,163 280,163 271.5,164 271.5,164 271.5,164 261,161 261,161 261,161 261,167 261,167  Z"/>

<path  fill="#CAC8C7" stroke-width="0" stroke="#CAC8C7" d = " M272 226 C272,226.169 269.714,232.893 273.5,231 L276,229 C278.075,229 282.107,220.285 283,218.5 288.758,206.984 297,193.128 297,179.5 297,176.893 298.357,161 294,161 294,161 292,164 292,164 292,168.905 297.995,176.509 295,182.5 295,182.5 291,195.5 291,195.5 287.77,201.96 284.259,207.982 281,214.5 280.218,216.064 274.689,226 272,226  Z"/>

<path  fill="#54BF94" stroke-width="0" stroke="#54BF94" d = " M190 219 L185,226 C180.656,226 176.301,216.102 175,213.5 175,213.5 171,208.5 171,208.5 171,208.5 162,184.5 162,184.5 158.686,177.872 165,169.135 165,164 166.477,164 170.699,162 174,162 174,162 175,163 175,163 175,163 177,163 177,163 177,167.064 188.416,170 192,170 192,172.446 201.723,181 189,181 189,181 184.5,180 184.5,180 182.597,180.952 185,184.487 185,185.5 185,187.702 188.834,199.168 190,201.5 191.225,203.95 191.291,212.919 190,215.5 190,215.5 187,218.5 187,218.5 187,218.5 190,219 190,219  Z"/>

<path  fill="#95E4C8" stroke-width="0" stroke="#95E4C8" d = " M174 162 L175,163 C175,163 174,162 174,162  Z"/>

<path  fill="#99D2BD" stroke-width="0" stroke="#99D2BD" d = " M226 162 L227,163 C227,163 226,162 226,162  Z"/>

<path  fill="#95E4C8" stroke-width="0" stroke="#95E4C8" d = " M283 162 L281,163 C281,163 283,162 283,162  Z"/>

<path  fill="#54BF94" stroke-width="0" stroke="#54BF94" d = " M267 219 C267,220.463 270.486,226 272,226 274.689,226 280.218,216.064 281,214.5 284.259,207.982 287.77,201.96 291,195.5 291,195.5 295,182.5 295,182.5 297.995,176.509 292,168.905 292,164 289.154,164 286.618,162 283,162 283,162 281,163 281,163 281,163 280,163 280,163 280,166.385 267.712,170 265,170 265,171.536 261,173.454 261,177 261,177 261,179 261,179 263.447,179 264.28,181 267,181 267,181 271.5,180 271.5,180 273.074,180.787 272.553,183.394 272,184.5 269.046,190.408 268.918,197.664 266,203.5 263.525,208.45 269.979,219 267,219  Z"/>

<path  fill="#99D2BD" stroke-width="0" stroke="#99D2BD" d = " M189 181 C189,186.067 193,191.264 193,196 193,197.321 192.316,202 194,202 194,195.744 197.253,175.007 196,172.5 195.297,171.094 197.261,165 195,165 195,167.371 194.983,170 192,170 192,172.446 201.723,181 189,181  Z"/>

<path  fill="#99D2BD" stroke-width="0" stroke="#99D2BD" d = " M265 170 C265,171.536 261,173.454 261,177 259.372,177 259.372,167 261,167 261,168.712 263.571,170 265,170  Z"/>

<path  fill="#99D2BD" stroke-width="0" stroke="#99D2BD" d = " M267 181 C267,183.212 264.817,197 263,197 263,197 261,179 261,179 263.447,179 264.28,181 267,181  Z"/>

<path  fill="#CBCBC7" stroke-width="0" stroke="#CBCBC7" d = " M194 202 C194,205.288 193.289,219 190,219 190,219 187,218.5 187,218.5 187,218.5 190,215.5 190,215.5 191.291,212.919 191.225,203.95 190,201.5 188.834,199.168 185,187.702 185,185.5 185,184.487 182.597,180.952 184.5,180 184.5,180 189,181 189,181 189,186.067 193,191.264 193,196 193,197.321 192.316,202 194,202  Z"/>

<path  fill="#CBCBC7" stroke-width="0" stroke="#CBCBC7" d = " M263 197 C263,201.075 261.916,219 267,219 269.979,219 263.525,208.45 266,203.5 268.918,197.664 269.046,190.408 272,184.5 272.553,183.394 273.074,180.787 271.5,180 271.5,180 267,181 267,181 267,183.212 264.817,197 263,197  Z"/>

<path  fill="#99D2BD" stroke-width="0" stroke="#99D2BD" d = " M278 233 L277,234 C277,234 278,233 278,233  Z"/>

<path  fill="#99D2BD" stroke-width="0" stroke="#99D2BD" d = " M180 236 L181,237 C181,237 180,236 180,236  Z"/>

</g>
</svg>
