<svg xmlns="http://www.w3.org/2000/svg" xmlns:xlink="http://www.w3.org/1999/xlink"  viewBox="0 0 456 320">
<g>
<rect width="456" height="320" fill="#000000"  stroke-width="0" /> 
<path  fill="#FCFB90" stroke-width="0" stroke="#FCFB90" d = " M157 131 C165.958,131 173.334,123.833 177,116.5 L176,104.5 C178.85,98.7995 180.085,92.3305 183,86.5 186.95,78.5996 198.907,74.2966 205.5,71 208.942,69.2789 213.866,70.8172 217.5,69 222.586,66.4571 237.363,68.9315 241.5,71 L250.5,71 C258.209,74.8543 270.677,79.854 275,88.5 277.688,93.8754 278.334,100.168 281,105.5 282.324,108.148 278.194,114.888 280,118.5 282.984,124.469 291.92,131 299,131 299,122.272 298.271,98.0428 295,91.5 295,91.5 282,66 282,66 277.9,66 279,54.9139 279,52 279,45.2342 265.793,41.1464 261.5,39 250.855,33.6776 205.139,33.6805 194.5,39 188.997,41.7513 177,45.5343 177,53 177,55.2934 177.983,65 175,65 175,65 174,67 174,67 174,71.2725 165.23,83.0398 163,87.5 158.352,96.7962 157,119.745 157,131  Z"/>

<path  fill="#FDFB8F" stroke-width="0" stroke="#FDFB8F" d = " M137 109 C139.315,109 141.127,100.246 142,98.5 145.703,91.0941 147.332,82.8356 151,75.5 152.12,73.2591 150.835,69.8309 152,67.5 L160.5,60 C161.975,60 155.431,67.6383 155,68.5 L151,80.5 L149,90.5 C143.36,101.781 134.803,131 157,131 157,119.745 158.352,96.7962 163,87.5 165.23,83.0398 174,71.2725 174,67 174,67 175,65 175,65 175,65 176,53 176,53 176,53 167.5,47 167.5,47 159.234,42.8668 129,60.0377 129,69 132.272,69 133,75.5266 133,78 133,81.4344 132.34,94.1797 134,97.5 135.763,101.027 137,104.715 137,109  Z"/>

<path  fill="#FDFB8F" stroke-width="0" stroke="#FDFB8F" d = " M319 108 C316.397,108 314.924,99.3478 314,97.5 310.259,90.0185 303.993,60 295.5,60 294.38,60 300.616,66.7312 301,67.5 L305,79.5 L308,92.5 C313.93,104.359 320.311,131 299,131 299,122.272 298.271,98.0428 295,91.5 295,91.5 282,66 282,66 282,62.1774 281,57.414 281,53 281,51.2778 292.653,45.0766 296.5,47 304.701,51.1003 327,55.8139 327,69 327,69 323,75.5 323,75.5 323,75.5 323,94.5 323,94.5 323,94.5 319,108 319,108  Z"/>

<path  fill="#FEFA90" stroke-width="0" stroke="#FEFA90" d = " M281 53 C281,57.414 282,62.1774 282,66 277.9,66 279,54.9139 279,52 279,52 281,53 281,53  Z"/>

<path  fill="#FEFA90" stroke-width="0" stroke="#FEFA90" d = " M177 53 C177,55.2934 177.983,65 175,65 175,65 176,53 176,53 176,53 177,53 177,53  Z"/>

<path  fill-rule="evenodd" fill="#CBC9CC" stroke-width="0" stroke="#CBC9CC" d = " M209 143 L209.5,152 L223.5,148 C229.41,145.045 244.139,153.181 246.5,152 L246.5,143 C246.49,142.995 226.948,145 223.5,145 218.119,145 214.703,143 209,143  M331 189 C331,190.759 338.381,202 333,202 333,196.34 327.426,190.352 325,185.5 324.026,183.551 318,180.73 318,180 318.376,180 320.334,167.832 321,166.5 324.418,159.663 328.973,157.446 325,149.5 320.729,140.957 313.207,150.353 308.5,148 308.5,148 298.5,143 298.5,143 298.5,143 292.5,143 292.5,143 286.424,139.962 279,132.228 279,144 277.436,144 275.124,145 273,145 273,133.098 251.898,141.704 249,147.5 245.675,154.15 259,157.709 259,159 254.313,159 250.221,155 246,155 246,148.609 211,147.424 211,155 206.201,155 202.214,159 197,159 197,157.611 211.143,154.786 207,146.5 204.148,140.796 183,134.124 183,145 180.876,145 178.564,144 177,144 177,132.304 170.476,140.012 164.5,143 164.5,143 157.5,143 157.5,143 154.348,144.576 151.63,146.435 148.5,148 143.51,150.495 135.25,141 131,149.5 127.081,157.337 132.671,160.841 136,167.5 137.344,170.188 135.617,180 139,180 139,181.951 136.546,180.477 135.5,181 135.5,181 129,188.5 129,188.5 128.169,190.163 124.081,202 123,202 118.523,202 126,189.578 126,189 126,181.822 141.265,166.883 127.5,160 127.5,160 120.5,157 120.5,157 120.5,157 112,158 112,158 112,158 98.5,161 98.5,161 97.3305,161.585 91.5475,167.595 91,166.5 91,166.5 94,160.5 94,160.5 94,160.5 93,158 93,158 93,155.233 78,151.841 78,149.5 78,149.5 80.5,149 80.5,149 80.5,149 90.5,154 90.5,154 94.6999,156.1 114.586,148.957 118.5,147 119.85,146.325 126,144.761 126,143 129.69,143 135.466,131.433 133,126.5 131.776,124.053 125.082,113.791 123.5,113 123.5,113 120,112.5 120,112.5 118.302,109.105 117.666,104.832 116,101.5 113.62,96.7399 112.588,94.3234 115,89.5 117.211,85.0786 117,96.6624 117,98.5 117,102.055 121.433,107.366 123,110.5 125.286,115.072 137,114.959 137,109 139.315,109 141.127,100.246 142,98.5 145.703,91.0941 147.332,82.8356 151,75.5 152.12,73.2591 150.835,69.8309 152,67.5 152,67.5 160.5,60 160.5,60 161.975,60 155.431,67.6383 155,68.5 155,68.5 151,80.5 151,80.5 151,80.5 149,90.5 149,90.5 143.36,101.781 134.803,131 157,131 165.958,131 173.334,123.833 177,116.5 177,116.5 176,104.5 176,104.5 178.85,98.7995 180.085,92.3305 183,86.5 186.95,78.5996 198.907,74.2966 205.5,71 208.942,69.2789 213.866,70.8172 217.5,69 222.586,66.4571 237.363,68.9315 241.5,71 241.5,71 250.5,71 250.5,71 258.209,74.8543 270.677,79.854 275,88.5 277.688,93.8754 278.334,100.168 281,105.5 282.324,108.148 278.194,114.888 280,118.5 282.984,124.469 291.92,131 299,131 320.311,131 313.93,104.359 308,92.5 308,92.5 305,79.5 305,79.5 305,79.5 301,67.5 301,67.5 300.616,66.7312 294.38,60 295.5,60 303.993,60 310.259,90.0185 314,97.5 314.924,99.3478 316.397,108 319,108 319,117.355 332.612,113.276 335,108.5 336.585,105.33 340,100.157 340,96.5 340,95.0852 338.644,83.7879 341,88.5 341,88.5 344,93.5 344,93.5 344,93.5 341,99.5 341,99.5 338.999,103.502 338.046,108.408 336,112.5 335.229,114.043 329.084,116.332 328,118.5 328,118.5 324,126.5 324,126.5 321.873,130.754 325.654,143 331,143 331,144.727 336.244,146.372 337.5,147 341.088,148.794 361.902,155.799 365.5,154 368.871,152.315 372.044,150.728 375.5,149 375.5,149 378,149.5 378,149.5 378,152.296 363,155.435 363,158 363,160.4 366.602,166.297 366,167.5 366,167.5 360.5,163 360.5,163 355.511,160.506 349.967,158 344,158 335.958,158 328.545,157.411 324,166.5 321.966,170.567 329.15,189 331,189  M219 141 C213.432,141 210.097,137.299 205.5,135 194.266,129.383 187.735,123.969 182,112.5 175.781,100.063 192.247,81.6267 201.5,77 206.339,74.5805 214.396,75 219,75 222.477,75 227.755,71.6274 230.5,73 234.432,74.9658 240.421,73.4604 241.5,74 250.16,78.3298 263.397,77.294 269,88.5 280.255,111.01 273.422,124.039 251.5,135 247.474,137.013 241.583,142 237,142 234.912,142 219,145.932 219,141  Z"/>

<path  fill="#FEFA90" stroke-width="0" stroke="#FEFA90" d = " M175 65 L174,67 C174,67 175,65 175,65  Z"/>

<path  fill-rule="evenodd" fill="#FCFC90" stroke-width="0" stroke="#FCFC90" d = " M117 87 C117,88.93 118.93,87 117,87  M75 116 C80.6414,116 90.0805,116.661 93,122.5 95.3753,127.251 95.4389,134.969 101.5,138 107.195,140.848 119.565,143 126,143 129.69,143 135.466,131.433 133,126.5 131.776,124.053 125.082,113.791 123.5,113 123.5,113 120,112.5 120,112.5 118.302,109.105 117.666,104.832 116,101.5 113.62,96.7399 112.588,94.3234 115,89.5 117.211,85.0786 117,96.6624 117,98.5 117,102.055 121.433,107.366 123,110.5 125.286,115.072 137,114.959 137,109 137,104.715 135.763,101.027 134,97.5 132.34,94.1797 133,81.4344 133,78 133,75.5266 132.272,69 129,69 123.031,69 118.246,68.1271 112.5,71 102.353,76.0735 75,104.192 75,116  Z"/>

<path  fill="#FCFC90" stroke-width="0" stroke="#FCFC90" d = " M381 116 C376.031,116 366.534,116.432 364,121.5 L358.5,135 C351.323,138.588 340.386,143 331,143 325.654,143 321.873,130.754 324,126.5 324,126.5 328,118.5 328,118.5 329.084,116.332 335.229,114.043 336,112.5 338.046,108.408 338.999,103.502 341,99.5 341,99.5 344,93.5 344,93.5 344,93.5 341,88.5 341,88.5 338.644,83.7879 340,95.0852 340,96.5 340,100.157 336.585,105.33 335,108.5 332.612,113.276 319,117.355 319,108 319,108 323,94.5 323,94.5 323,94.5 323,75.5 323,75.5 323,75.5 327,69 327,69 330.948,69 335.405,66.9527 339.5,69 353.498,75.9988 381,100.825 381,116  Z"/>

<path  fill="#FCFB90" stroke-width="0" stroke="#FCFB90" d = " M219 141 C213.432,141 210.097,137.299 205.5,135 194.266,129.383 187.735,123.969 182,112.5 175.781,100.063 192.247,81.6267 201.5,77 206.339,74.5805 214.396,75 219,75 222.477,75 227.755,71.6274 230.5,73 234.432,74.9658 240.421,73.4604 241.5,74 250.16,78.3298 263.397,77.294 269,88.5 280.255,111.01 273.422,124.039 251.5,135 247.474,137.013 241.583,142 237,142 237,136.203 242.276,123.052 240,118.5 239.013,116.527 231.099,109.8 229.5,109 228.257,108.379 217.783,114.933 217,116.5 213.429,123.642 219,133.146 219,141  Z"/>

<path  fill="#CBC9CC" stroke-width="0" stroke="#CBC9CC" d = " M117 87 C117,88.93 118.93,87 117,87  Z"/>

<path  fill="#FFFC8E" stroke-width="0" stroke="#FFFC8E" d = " M219 141 C219,145.932 234.912,142 237,142 237,136.203 242.276,123.052 240,118.5 239.013,116.527 231.099,109.8 229.5,109 228.257,108.379 217.783,114.933 217,116.5 213.429,123.642 219,133.146 219,141  Z"/>

<path  fill="#FCFA91" stroke-width="0" stroke="#FCFA91" d = " M93 158 C87.9056,158 79.2887,167 76,167 76,167 72.5,164 72.5,164 59.8179,157.659 61.46,136.58 67,125.5 67,125.5 75,116 75,116 80.6414,116 90.0805,116.661 93,122.5 95.3753,127.251 95.4389,134.969 101.5,138 107.195,140.848 119.565,143 126,143 126,144.761 119.85,146.325 118.5,147 114.586,148.957 94.6999,156.1 90.5,154 90.5,154 80.5,149 80.5,149 80.5,149 78,149.5 78,149.5 78,151.841 93,155.233 93,158  Z"/>

<path  fill="#FCFA91" stroke-width="0" stroke="#FCFA91" d = " M363 158 C368.919,158 376.638,167 381,167 381,164.83 389.555,160.39 391,157.5 396.282,146.936 393.383,123.941 383.5,119 383.5,119 381,116 381,116 376.031,116 366.534,116.432 364,121.5 364,121.5 358.5,135 358.5,135 351.323,138.588 340.386,143 331,143 331,144.727 336.244,146.372 337.5,147 341.088,148.794 361.902,155.799 365.5,154 368.871,152.315 372.044,150.728 375.5,149 375.5,149 378,149.5 378,149.5 378,152.296 363,155.435 363,158  Z"/>

<path  fill="#FFFDBC" stroke-width="0" stroke="#FFFDBC" d = " M146 178 L139,180 C135.617,180 137.344,170.188 136,167.5 132.671,160.841 127.081,157.337 131,149.5 135.25,141 143.51,150.495 148.5,148 151.63,146.435 154.348,144.576 157.5,143 157.5,143 164.5,143 164.5,143 170.476,140.012 177,132.304 177,144 177,144 175,149 175,149 175,151.58 171,152.211 171,155 162.042,155 164.537,163.427 162,168.5 162,168.5 158,172 158,172 158,172 157,172 157,172 157,172 156,173 156,173 156,173 147,177 147,177 147,177 146,178 146,178  Z"/>

<path  fill="#FFFDBC" stroke-width="0" stroke="#FFFDBC" d = " M308 177 C311.541,177 314.145,180 318,180 318.376,180 320.334,167.832 321,166.5 324.418,159.663 328.973,157.446 325,149.5 320.729,140.957 313.207,150.353 308.5,148 308.5,148 298.5,143 298.5,143 298.5,143 292.5,143 292.5,143 286.424,139.962 279,132.228 279,144 279,144 281,149 281,149 281,149 286,155 286,155 294.152,155 291.608,163.716 294,168.5 294,168.5 300,173 300,173 300,173 307,176 307,176 307,176 308,177 308,177  Z"/>

<path  fill="#FFFCBC" stroke-width="0" stroke="#FFFCBC" d = " M191 161 L192,161 C192,161 194,160 194,160 194,158.527 195.952,159 197,159 197,157.611 211.143,154.786 207,146.5 204.148,140.796 183,134.124 183,145 183,146.495 182.16,155 181,155 181,155 180,160 180,160 180,165.43 186.892,161 188,161 188,161 191,161 191,161  Z"/>

<path  fill="#FFFCBC" stroke-width="0" stroke="#FFFCBC" d = " M276 159 C276,166 270.23,161 268,161 268,161 260,159 260,159 260,159 259,159 259,159 259,157.709 245.675,154.15 249,147.5 251.898,141.704 273,133.098 273,145 273,146.588 274.129,156 276,156 276,156 276,159 276,159  Z"/>

<path  fill="#CBC8CA" stroke-width="0" stroke="#CBC8CA" d = " M209 143 L209.5,152 L223.5,148 C229.41,145.045 244.139,153.181 246.5,152 L246.5,143 C246.49,142.995 226.948,145 223.5,145 218.119,145 214.703,143 209,143  Z"/>

<path  fill="#F0F080" stroke-width="0" stroke="#F0F080" d = " M175 149 C180.453,149 181,148.243 181,155 182.16,155 183,146.495 183,145 180.876,145 178.564,144 177,144 177,144 175,149 175,149  Z"/>

<path  fill="#F0F080" stroke-width="0" stroke="#F0F080" d = " M281 149 C275.638,149 276,149.725 276,156 274.129,156 273,146.588 273,145 275.124,145 277.436,144 279,144 279,144 281,149 281,149  Z"/>

<path  fill="#FEB1D8" stroke-width="0" stroke="#FEB1D8" d = " M181 155 L180,160 C176.867,160 169,165.744 169,158 169,158 171,155 171,155 171,152.211 175,151.58 175,149 180.453,149 181,148.243 181,155  Z"/>

<path  fill="#FEB1D8" stroke-width="0" stroke="#FEB1D8" d = " M276 156 L276,159 C278.146,159 284.716,166.069 288,159.5 288,159.5 286,155 286,155 286,155 281,149 281,149 275.638,149 276,149.725 276,156  Z"/>

<path  fill="#FEFA91" stroke-width="0" stroke="#FEFA91" d = " M211 155 C223.473,155 233.527,155 246,155 246,148.609 211,147.424 211,155  Z"/>

<path  fill="#F0F080" stroke-width="0" stroke="#F0F080" d = " M183 168 C183,166.832 178.634,167.433 177.5,168 172.691,170.405 163.534,172 158,172 158,172 162,168.5 162,168.5 164.537,163.427 162.042,155 171,155 171,155 169,158 169,158 169,165.744 176.867,160 180,160 180,165.43 186.892,161 188,161 188,161 189,163 189,163 189,163 183,168 183,168  Z"/>

<path  fill="#FDFC8F" stroke-width="0" stroke="#FDFC8F" d = " M263 175 C256.21,175 251.056,176.222 245.5,179 244.2,179.65 239,179.007 239,181 239,181 217.5,181 217.5,181 209.159,176.83 198.471,176.986 190.5,173 190.5,173 185.5,173 185.5,173 185.5,173 183,171 183,171 183,171 183,168 183,168 183,168 189,163 189,163 189,163 190,162 190,162 190,162 191,161 191,161 191,161 192,161 192,161 192,161 194,160 194,160 195.048,160 197,160.473 197,159 202.214,159 206.201,155 211,155 223.473,155 233.527,155 246,155 250.221,155 254.313,159 259,159 259,159 260,159 260,159 260,159 267,163 267,163 267,164.183 270.57,164.535 271.5,165 271.5,165 273,168 273,168 273,168 273,171 273,171 273,171 271,173 271,173 269.225,173 263,173.069 263,175  Z"/>

<path  fill="#F0F080" stroke-width="0" stroke="#F0F080" d = " M273 168 C273,166.1 277.565,167.532 278.5,168 280.536,169.018 297.912,173 300,173 300,173 294,168.5 294,168.5 291.608,163.716 294.152,155 286,155 286,155 288,159.5 288,159.5 284.716,166.069 278.146,159 276,159 276,166 270.23,161 268,161 268,161 267,163 267,163 267,164.183 270.57,164.535 271.5,165 271.5,165 273,168 273,168  Z"/>

<path  fill="#FFF990" stroke-width="0" stroke="#FFF990" d = " M108 173 C113.653,173 124.393,189 126,189 126,181.822 141.265,166.883 127.5,160 127.5,160 120.5,157 120.5,157 120.5,157 112,158 112,158 112,158 108,173 108,173  Z"/>

<path  fill="#FFF990" stroke-width="0" stroke="#FFF990" d = " M348 173 C344.146,173 331,185.31 331,189 329.15,189 321.966,170.567 324,166.5 328.545,157.411 335.958,158 344,158 344,162.876 348,167.651 348,173  Z"/>

<path  fill="#FFFB8E" stroke-width="0" stroke="#FFFB8E" d = " M108 173 C104.035,173 101,187.578 101,192 101,192 89.5,193 89.5,193 80.9337,188.717 76,176.711 76,167 79.2887,167 87.9056,158 93,158 93,158 94,160.5 94,160.5 94,160.5 91,166.5 91,166.5 91.5475,167.595 97.3305,161.585 98.5,161 98.5,161 112,158 112,158 112,158 108,173 108,173  Z"/>

<path  fill="#FFFB8E" stroke-width="0" stroke="#FFFB8E" d = " M348 173 C353.337,173 355,187.695 355,192 355,192 367.5,193 367.5,193 375.609,188.946 381,175.532 381,167 376.638,167 368.919,158 363,158 363,160.4 366.602,166.297 366,167.5 366,167.5 360.5,163 360.5,163 355.511,160.506 349.967,158 344,158 344,162.876 348,167.651 348,173  Z"/>

<path  fill="#CBC9CC" stroke-width="0" stroke="#CBC9CC" d = " M197 159 C195.952,159 194,158.527 194,160 195.048,160 197,160.473 197,159  Z"/>

<path  fill="#CBC9CC" stroke-width="0" stroke="#CBC9CC" d = " M268 161 L267,163 C267,163 260,159 260,159 260,159 268,161 268,161  Z"/>

<path  fill="#CBC9CC" stroke-width="0" stroke="#CBC9CC" d = " M194 160 L192,161 C192,161 194,160 194,160  Z"/>

<path  fill="#CBC9CC" stroke-width="0" stroke="#CBC9CC" d = " M190 162 L189,163 C189,163 188,161 188,161 188,161 191,161 191,161 191,161 190,162 190,162  Z"/>

<path  fill="#F0F080" stroke-width="0" stroke="#F0F080" d = " M190 162 L189,163 C189,163 190,162 190,162  Z"/>

<path  fill-rule="evenodd" fill="#A9AAA7" stroke-width="0" stroke="#A9AAA7" d = " M121 217 L118,221.5 L119,225 C119,242.182 136.614,217 121,217  M122 243 L124,243 C124,237.832 127,233.805 127,229 127,229 128,228 128,228 128,228 128,227 128,227 128,227 129,226 129,226 129,226 129,224 129,224 129,220.843 131,218.519 131,215 120.343,215 123.871,201.757 127,195.5 132.609,184.282 142.41,179 155,179 155,179 156,179 156,179 156,179 158,179 158,179 158,179 165,179 165,179 165,177.205 159,178.354 159,176.5 159,171.21 178.599,173 183,173 183,173 183,171 183,171 183,171 183,168 183,168 183,166.832 178.634,167.433 177.5,168 172.691,170.405 163.534,172 158,172 158,172 157,172 157,172 157,172 156,173 156,173 156,173 147,177 147,177 147,177 146,178 146,178 146,178 139,180 139,180 139,181.951 136.546,180.477 135.5,181 135.5,181 129,188.5 129,188.5 128.169,190.163 124.081,202 123,202 123,207.426 118,210.757 118,215 118,216.429 116.712,219 115,219 115,226.575 122,235.087 122,243  Z"/>

<path  fill-rule="evenodd" fill="#A9AAA7" stroke-width="0" stroke="#A9AAA7" d = " M331 217 C331,218.984 327.722,220.945 329,223.5 330.047,225.595 331.535,232 334.5,232 335.464,232 342.739,217 331,217  M335 242 L333,243 C333,243 333,242 333,242 333,242 332,241 332,241 332,236.054 329,232.623 329,228 329,228 328,227 328,227 328,227 328,226 328,226 328,226 327,225 327,225 327,225 327,224 327,224 327,224 325,215 325,215 336.415,215 332.522,202.544 329,195.5 323.336,184.173 313.707,179 301,179 301,179 298,179 298,179 298,179 292,179 292,179 292,177.361 298.507,178.514 297,175.5 294.725,170.949 278.514,173 273,173 273,173 273,171 273,171 273,171 273,168 273,168 273,166.1 277.565,167.532 278.5,168 280.536,169.018 297.912,173 300,173 300,173 307,176 307,176 307,176 308,177 308,177 311.541,177 314.145,180 318,180 318,180.73 324.026,183.551 325,185.5 327.426,190.352 333,196.34 333,202 333,204.599 335.66,215 339,215 339,216.465 338.891,219 341,219 341,226.593 335,234.113 335,242  Z"/>

<path  fill="#AAA9A7" stroke-width="0" stroke="#AAA9A7" d = " M218 194 L223,198 C223,194.941 211.61,184.281 213,181.5 213.952,179.597 217.487,182 218.5,182 222.997,182 228.858,183 234,183 235.041,183 239,182.014 239,181 239,181 217.5,181 217.5,181 209.159,176.83 198.471,176.986 190.5,173 190.5,173 185.5,173 185.5,173 185.5,173 183,171 183,171 183,171 183,173 183,173 183,173 193,175.5 193,175.5 193,178.848 185,175.318 185,178 185,178 185,179 185,179 185,179 188,179 188,179 199.393,179 209.262,177.023 215,188.5 215.895,190.29 218,191.903 218,194  Z"/>

<path  fill="#AAA9A7" stroke-width="0" stroke="#AAA9A7" d = " M271 173 L273,173 C273,173 273,171 273,171 273,171 271,173 271,173  Z"/>

<path  fill="#F0F080" stroke-width="0" stroke="#F0F080" d = " M157 172 L156,173 C156,173 157,172 157,172  Z"/>

<path  fill="#A9AAA8" stroke-width="0" stroke="#A9AAA8" d = " M165 179 L171,179 C171,177.237 179.343,178 181,178 181,178 185,178 185,178 185,175.318 193,178.848 193,175.5 193,175.5 183,173 183,173 178.599,173 159,171.21 159,176.5 159,178.354 165,177.205 165,179  Z"/>

<path  fill="#A9AAA8" stroke-width="0" stroke="#A9AAA8" d = " M285 179 L292,179 C292,177.361 298.507,178.514 297,175.5 294.725,170.949 278.514,173 273,173 273,173 271,173 271,173 271,174.434 264.552,175 263,175 263,178.52 272,175.576 272,178 272,178 276,178 276,178 277.574,178 285,177.249 285,179  Z"/>

<path  fill="#FFFC8D" stroke-width="0" stroke="#FFFC8D" d = " M113 215 C114.624,215 115.75,215 118,215 118,210.757 123,207.426 123,202 118.523,202 126,189.578 126,189 124.393,189 113.653,173 108,173 104.035,173 101,187.578 101,192 101,197.608 113,210.378 113,215  Z"/>

<path  fill="#AAA9A7" stroke-width="0" stroke="#AAA9A7" d = " M271 173 C269.225,173 263,173.069 263,175 264.552,175 271,174.434 271,173  Z"/>

<path  fill="#FFFC8D" stroke-width="0" stroke="#FFFC8D" d = " M339 215 L343,216 C343,210.312 355,198.905 355,192 355,187.695 353.337,173 348,173 344.146,173 331,185.31 331,189 331,190.759 338.381,202 333,202 333,204.599 335.66,215 339,215  Z"/>

<path  fill="#AAA9A7" stroke-width="0" stroke="#AAA9A7" d = " M239 181 C244.244,181 243,180.884 243,185 243,185 251.5,179 251.5,179 255.78,176.86 262.859,179 268,179 268,179 272,179 272,179 272,179 272,178 272,178 272,175.576 263,178.52 263,175 256.21,175 251.056,176.222 245.5,179 244.2,179.65 239,179.007 239,181  Z"/>

<path  fill="#F0F080" stroke-width="0" stroke="#F0F080" d = " M307 176 L308,177 C308,177 307,176 307,176  Z"/>

<path  fill="#F0F080" stroke-width="0" stroke="#F0F080" d = " M147 177 L146,178 C146,178 147,177 147,177  Z"/>

<path  fill="#A9AAA7" stroke-width="0" stroke="#A9AAA7" d = " M179 179 L181,179 C181,179 181,178 181,178 179.343,178 171,177.237 171,179 171,179 179,179 179,179  Z"/>

<path  fill="#FF9BCD" stroke-width="0" stroke="#FF9BCD" d = " M181 179 L185,179 C185,179 185,178 185,178 185,178 181,178 181,178 181,178 181,179 181,179  Z"/>

<path  fill="#FFB0D7" stroke-width="0" stroke="#FFB0D7" d = " M210 209 L206.5,212 C204.544,212.978 202.423,211 201,211 201,211 198.5,209 198.5,209 198.5,209 183,207 183,207 183,207 187,195.5 187,195.5 187,195.5 188,179 188,179 199.393,179 209.262,177.023 215,188.5 215.895,190.29 218,191.903 218,194 218,194 215,197.5 215,197.5 213.689,200.121 210,206.122 210,209  Z"/>

<path  fill="#FFB0D7" stroke-width="0" stroke="#FFB0D7" d = " M246 208 L249.5,212 L256,211 C256,208.583 270.17,207 273,207 273,202.731 270.811,198.122 269,194.5 269,194.5 268,179 268,179 262.859,179 255.78,176.86 251.5,179 251.5,179 243,185 243,185 243,185 239,193 239,193 239,193 246,208 246,208  Z"/>

<path  fill="#FF9BCD" stroke-width="0" stroke="#FF9BCD" d = " M272 179 L276,179 C276,179 276,178 276,178 276,178 272,178 272,178 272,178 272,179 272,179  Z"/>

<path  fill="#A9AAA7" stroke-width="0" stroke="#A9AAA7" d = " M278 179 L285,179 C285,177.249 277.574,178 276,178 276,178 276,179 276,179 276,179 278,179 278,179  Z"/>

<path  fill="#FEA5D1" stroke-width="0" stroke="#FEA5D1" d = " M135 211 L131,215 C120.343,215 123.871,201.757 127,195.5 132.609,184.282 142.41,179 155,179 155,179 156,180 156,180 156,180 157,180 157,180 157,181.835 159,184.235 159,187 159,187 155,191 155,191 155,191 147,195 147,195 145.253,195 145,195.253 145,197 142.774,197 141,198.774 141,201 139.423,201 139,202.762 139,204 137.423,204 137,205.762 137,207 135.423,207 135,208.762 135,210 135,210 135,211 135,211  Z"/>

<path  fill="#FF9BCD" stroke-width="0" stroke="#FF9BCD" d = " M156 179 L156,180 C156,180 155,179 155,179 155,179 156,179 156,179  Z"/>

<path  fill="#F0F080" stroke-width="0" stroke="#F0F080" d = " M156 180 L157,180 C157,180 158,179 158,179 158,179 156,179 156,179 156,179 156,180 156,180  Z"/>

<path  fill="#FF9BCD" stroke-width="0" stroke="#FF9BCD" d = " M157 180 C157,181.835 159,184.235 159,187 159,187 171.5,181 171.5,181 172.803,180.348 179,180.781 179,179 179,179 171,179 171,179 171,179 165,179 165,179 165,179 158,179 158,179 158,179 157,180 157,180  Z"/>

<path  fill="#FEB1D9" stroke-width="0" stroke="#FEB1D9" d = " M183 207 C177.861,207 172.914,209 167,209 164.482,209 162.714,207 161,207 161,203.537 163.134,199 157,199 157,197.004 155,194.015 155,191 155,191 159,187 159,187 159,187 171.5,181 171.5,181 172.803,180.348 179,180.781 179,179 179,179 181,179 181,179 181,179 185,179 185,179 185,179 188,179 188,179 188,179 187,195.5 187,195.5 187,195.5 183,207 183,207  Z"/>

<path  fill="#FEB1D9" stroke-width="0" stroke="#FEB1D9" d = " M295 207 C293.376,207 292.25,209 290,209 283.764,209 278.517,207 273,207 273,202.731 270.811,198.122 269,194.5 269,194.5 268,179 268,179 268,179 272,179 272,179 272,179 276,179 276,179 276,179 278,179 278,179 278,180.45 286.12,181.31 287.5,182 287.5,182 299,188 299,188 299,188 302,191 302,191 302,194.119 299,196.616 299,199 293.868,199 295,204.045 295,207  Z"/>

<path  fill="#FF9BCD" stroke-width="0" stroke="#FF9BCD" d = " M300 180 L297,183.5 C295.942,185.616 299,186.398 299,188 299,188 287.5,182 287.5,182 286.12,181.31 278,180.45 278,179 278,179 285,179 285,179 285,179 292,179 292,179 292,179 298,179 298,179 298,179 300,180 300,180  Z"/>

<path  fill="#F0F080" stroke-width="0" stroke="#F0F080" d = " M301 179 L300,180 C300,180 298,179 298,179 298,179 301,179 301,179  Z"/>

<path  fill="#FEA5D1" stroke-width="0" stroke="#FEA5D1" d = " M321 210 L325,215 C336.415,215 332.522,202.544 329,195.5 323.336,184.173 313.707,179 301,179 301,179 300,180 300,180 300,180 297,183.5 297,183.5 295.942,185.616 299,186.398 299,188 299,188 302,191 302,191 306.882,191 319,200.55 319,206 319,206 319,207 319,207 319,207 321,209 321,209 321,209 321,210 321,210  Z"/>

<path  fill="#A9AAA8" stroke-width="0" stroke="#A9AAA8" d = " M232 200 L231,201 C227.27,201 225.343,199 223,199 223,199 223,198 223,198 223,194.941 211.61,184.281 213,181.5 213.952,179.597 217.487,182 218.5,182 222.997,182 228.858,183 234,183 235.041,183 239,182.014 239,181 244.244,181 243,180.884 243,185 240.583,185 236,192.935 236,195 236,195 235,196 235,196 235,196 235,197 235,197 233.253,197 233,197.253 233,199 233,199 232,200 232,200  Z"/>

<path  fill="#AAA9A7" stroke-width="0" stroke="#AAA9A7" d = " M239 193 L236,195 C236,192.935 240.583,185 243,185 243,185 239,193 239,193  Z"/>

<path  fill="#FF9BCD" stroke-width="0" stroke="#FF9BCD" d = " M157 199 C154.75,199 153.624,201 152,201 152,194.265 154.509,195 147,195 147,195 155,191 155,191 155,194.015 157,197.004 157,199  Z"/>

<path  fill="#FF9BCD" stroke-width="0" stroke="#FF9BCD" d = " M317 218 C312.754,218 307.789,205.356 302.5,208 297.364,210.568 310.073,219.647 311,221.5 315.135,229.77 320,236.985 320,247 320,248.574 320.751,256 319,256 319,239.349 313.591,215 293,215 293,211.546 290,211.165 290,209 292.25,209 293.376,207 295,207 296.423,207 298.544,208.978 300.5,208 305.981,205.259 306.307,199 299,199 299,196.616 302,194.119 302,191 306.882,191 319,200.55 319,206 319,206 311.5,197 311.5,197 289.466,185.983 317,214.209 317,218  Z"/>

<path  fill="#FFB3D7" stroke-width="0" stroke="#FFB3D7" d = " M233 210 L246,210 C246,210 246,208 246,208 246,208 239,193 239,193 239,193 236,195 236,195 236,195 235,196 235,196 235,196 235,197 235,197 235,197 233,199 233,199 233,199 232,200 232,200 232,200 231,201 231,201 231,207.127 223,202.085 223,199 223,199 223,198 223,198 223,198 218,194 218,194 218,194 215,197.5 215,197.5 213.689,200.121 210,206.122 210,209 210,209 211,210 211,210 211,210 223,210 223,210 226.896,210 229.274,210 233,210  Z"/>

<path  fill="#C9C9C8" stroke-width="0" stroke="#C9C9C8" d = " M134 272 C135.423,272 137.544,270.022 139.5,271 L144,273 C144,273 138,268.5 138,268.5 136.124,264.748 133.168,261.837 131,257.5 126.318,248.137 138,225.607 138,220 138,220 139,219 139,219 139,215.967 147.79,203 151,203 151,203 152,201 152,201 152,194.265 154.509,195 147,195 147,195 145,197 145,197 145,197 141,201 141,201 141,202.238 140.577,204 139,204 139,205.238 138.577,207 137,207 137,208.238 136.577,210 135,210 135,210 135,211 135,211 135,212.91 130.997,224 129,224 129,224 129,226 129,226 129,226 128,227 128,227 128,227 128,228 128,228 128,228 127,229 127,229 127,233.805 124,237.832 124,243 124,243 123,247 123,247 123,247 123,255 123,255 124.473,255 124,256.952 124,258 124,258 124,259 124,259 124,259 125,260 125,260 125,260 125,261 125,261 125,261 131,270 131,270 131,270 132,271 132,271 132,271 134,272 134,272  Z"/>

<path  fill="#C9C9C8" stroke-width="0" stroke="#C9C9C8" d = " M322 273 L323,273 C323,271.253 323.253,271 325,271 325,269.253 325.253,269 327,269 327,269 327,268 327,268 327,268 328,267 328,267 328,267 329,266 329,266 329,266 329,265 329,265 329,265 330,264 330,264 330,264 331,263 331,263 331,263 331,261 331,261 331,261 332,259 332,259 332,259 333,258 333,258 333,258 333,255 333,255 333,255 333,243 333,243 333,243 333,242 333,242 333,242 332,241 332,241 332,236.054 329,232.623 329,228 329,228 328,227 328,227 328,227 328,226 328,226 328,226 327,225 327,225 327,225 327,224 327,224 325.558,224 321,211.826 321,210 321,210 321,209 321,209 321,209 319,207 319,207 319,207 319,206 319,206 319,206 311.5,197 311.5,197 289.466,185.983 317,214.209 317,218 317,218 318,220 318,220 318,220 319,221 319,221 319,221 323,230.5 323,230.5 324.411,233.322 326.763,254.973 325,258.5 323.089,262.322 320.771,265.729 317.5,269 317.5,269 313,273 313,273 315.069,273 322,268.096 322,273  Z"/>

<path  fill="#FFFC8D" stroke-width="0" stroke="#FFFC8D" d = " M69 195 C69,198.124 53.8871,206.274 59,216.5 63.7313,225.963 58.4904,241.481 64,252.5 68.3142,261.128 86.49,261.52 91,252.5 102.713,229.074 104.546,195 69,195  Z"/>

<path  fill="#FF9BCD" stroke-width="0" stroke="#FF9BCD" d = " M147 195 C145.253,195 145,195.253 145,197 145,197 147,195 147,195  Z"/>

<path  fill="#AAA9A7" stroke-width="0" stroke="#AAA9A7" d = " M236 195 L235,196 C235,196 236,195 236,195  Z"/>

<path  fill="#FFFC8D" stroke-width="0" stroke="#FFFC8D" d = " M377 195 C377,195.44 366.827,200.337 365.5,201 360.306,203.597 360.253,209.993 358,214.5 356.661,217.179 357.895,225.29 359,227.5 L359,237.5 C365.861,251.223 368.721,265.889 388.5,256 396.957,251.771 392.864,242.772 396,236.5 397.989,232.522 397,226.216 397,221.5 397,203.908 396.541,195 377,195  Z"/>

<path  fill="#FF9BCD" stroke-width="0" stroke="#FF9BCD" d = " M145 197 C142.774,197 141,198.774 141,201 141,201 145,197 145,197  Z"/>

<path  fill="#AAA9A7" stroke-width="0" stroke="#AAA9A7" d = " M235 197 C233.253,197 233,197.253 233,199 233,199 235,197 235,197  Z"/>

<path  fill="#FFB0D9" stroke-width="0" stroke="#FFB0D9" d = " M151 203 C151,209.009 158.094,207 161,207 161,203.537 163.134,199 157,199 154.75,199 153.624,201 152,201 152,201 151,203 151,203  Z"/>

<path  fill="#AAA9A7" stroke-width="0" stroke="#AAA9A7" d = " M223 199 C225.343,199 227.27,201 231,201 231,207.127 223,202.085 223,199  Z"/>

<path  fill="#AAA9A7" stroke-width="0" stroke="#AAA9A7" d = " M233 199 L232,200 C232,200 233,199 233,199  Z"/>

<path  fill="#FFB0D9" stroke-width="0" stroke="#FFB0D9" d = " M299 199 C306.307,199 305.981,205.259 300.5,208 298.544,208.978 296.423,207 295,207 295,204.045 293.868,199 299,199  Z"/>

<path  fill="#AAA9A7" stroke-width="0" stroke="#AAA9A7" d = " M232 200 L231,201 C231,201 232,200 232,200  Z"/>

<path  fill="#FF9BCD" stroke-width="0" stroke="#FF9BCD" d = " M141 201 C139.423,201 139,202.762 139,204 140.577,204 141,202.238 141,201  Z"/>

<path  fill="#FF9BCD" stroke-width="0" stroke="#FF9BCD" d = " M152 201 L151,203 C151,203 152,201 152,201  Z"/>

<path  fill="#FF9BCD" stroke-width="0" stroke="#FF9BCD" d = " M139 219 L146.5,211 L149.5,209 C152.941,207.279 156.023,208.454 154,212.5 152.324,215.852 144,220.535 144,225 145.709,225 155.639,215 163,215 163,211.767 167,210.548 167,209 164.482,209 162.714,207 161,207 158.094,207 151,209.009 151,203 147.79,203 139,215.967 139,219  Z"/>

<path  fill="#FF9BCD" stroke-width="0" stroke="#FF9BCD" d = " M139 204 C137.423,204 137,205.762 137,207 138.577,207 139,205.238 139,204  Z"/>

<path  fill="#FF9BCD" stroke-width="0" stroke="#FF9BCD" d = " M137 207 C135.423,207 135,208.762 135,210 136.577,210 137,208.238 137,207  Z"/>

<path  fill="#FDA5D1" stroke-width="0" stroke="#FDA5D1" d = " M171 221 L173,221 C179.202,221 183.98,217 191,217 191,217 192,216 192,216 192,216 200,213 200,213 200,213 201,211 201,211 201,211 198.5,209 198.5,209 198.5,209 183,207 183,207 177.861,207 172.914,209 167,209 167,210.548 163,211.767 163,215 163,215 168,217 168,217 168,217 171,220 171,220 171,220 171,221 171,221  Z"/>

<path  fill="#FDA5D1" stroke-width="0" stroke="#FDA5D1" d = " M286 219 C284.519,219 285.215,221 283,221 276.927,221 272.042,217 265,217 265,214.947 257.649,213 256,213 256,213 256,211 256,211 256,208.583 270.17,207 273,207 278.517,207 283.764,209 290,209 290,211.165 293,211.546 293,215 290.17,215 288.46,219 286,219  Z"/>

<path  fill="#FF9BCD" stroke-width="0" stroke="#FF9BCD" d = " M319 207 L321,209 C321,209 319,207 319,207  Z"/>

<path  fill="#C8CACA" stroke-width="0" stroke="#C8CACA" d = " M146 274 L147,274 C159.649,274 141,266.846 141,264 141,264 141,263 141,263 136.709,263 136,253.169 136,249.5 136,248.222 135.335,244 137,244 137,240.867 140.568,227 143,227 143,227 144,225 144,225 144,220.535 152.324,215.852 154,212.5 156.023,208.454 152.941,207.279 149.5,209 149.5,209 146.5,211 146.5,211 146.5,211 139,219 139,219 139,219 138,220 138,220 138,225.607 126.318,248.137 131,257.5 133.168,261.837 136.124,264.748 138,268.5 138,268.5 144,273 144,273 144,273 145,273 145,273 145,273 146,274 146,274  Z"/>

<path  fill="#FF9BCD" stroke-width="0" stroke="#FF9BCD" d = " M256 213 L249,215 C249,215 246,210 246,210 246,210 246,208 246,208 246,208 249.5,212 249.5,212 249.5,212 256,211 256,211 256,211 256,213 256,213  Z"/>

<path  fill="#C8CACA" stroke-width="0" stroke="#C8CACA" d = " M313 273 L309,274 C299.463,274 311,269.662 311,267 311,267 313,266 313,266 313,266 314,265 314,265 314,265 315,264 315,264 315,264 316,263 316,263 316,263 317,261 317,261 318.577,261 319,259.238 319,258 319,258 319,256 319,256 320.751,256 320,248.574 320,247 320,236.985 315.135,229.77 311,221.5 310.073,219.647 297.364,210.568 302.5,208 307.789,205.356 312.754,218 317,218 317,218 318,220 318,220 318,220 319,221 319,221 319,221 323,230.5 323,230.5 324.411,233.322 326.763,254.973 325,258.5 323.089,262.322 320.771,265.729 317.5,269 317.5,269 313,273 313,273  Z"/>

<path  fill="#FF9BCD" stroke-width="0" stroke="#FF9BCD" d = " M200 213 L207,215 C207,215 211,210 211,210 211,210 210,209 210,209 210,209 206.5,212 206.5,212 204.544,212.978 202.423,211 201,211 201,211 200,213 200,213  Z"/>

<path  fill="#FF9BCD" stroke-width="0" stroke="#FF9BCD" d = " M227 234 C227,235.919 229,236.488 229,234 229,234 229.5,211 229.5,211 233.498,209.001 231,219.973 231,222 231,222 235,221 235,221 235,217.891 233,213.186 233,210 229.274,210 226.896,210 223,210 223,214.048 221,220.214 221,221 221,221 225,222 225,222 225,222 225,217 225,217 225,216.191 224.601,206.702 227,211.5 227,211.5 227,228.5 227,228.5 227,229.71 229.239,234 227,234  Z"/>

<path  fill="#FCB3D8" stroke-width="0" stroke="#FCB3D8" d = " M221 221 C217.038,221 212.312,222 209,222 209,222 207,215 207,215 207,215 211,210 211,210 211,210 223,210 223,210 223,214.048 221,220.214 221,221  Z"/>

<path  fill="#FCB3D8" stroke-width="0" stroke="#FCB3D8" d = " M248 221 L247,222 C243.688,222 238.962,221 235,221 235,217.891 233,213.186 233,210 233,210 246,210 246,210 246,210 249,215 249,215 249,215 248,221 248,221  Z"/>

<path  fill="#FF9BCD" stroke-width="0" stroke="#FF9BCD" d = " M325 215 L327,224 C325.558,224 321,211.826 321,210 321,210 325,215 325,215  Z"/>

<path  fill="#FF9BCD" stroke-width="0" stroke="#FF9BCD" d = " M131 215 C131,218.519 129,220.843 129,224 130.997,224 135,212.91 135,211 135,211 131,215 131,215  Z"/>

<path  fill="#CBCBCC" stroke-width="0" stroke="#CBCBCC" d = " M225 222 C225,226.228 227,230.235 227,234 229.239,234 227,229.71 227,228.5 227,228.5 227,211.5 227,211.5 224.601,206.702 225,216.191 225,217 225,217 225,222 225,222  Z"/>

<path  fill="#CBCBCC" stroke-width="0" stroke="#CBCBCC" d = " M231 222 C231,224.264 231.627,234 229,234 229,234 229.5,211 229.5,211 233.498,209.001 231,219.973 231,222  Z"/>

<path  fill="#FFB2D8" stroke-width="0" stroke="#FFB2D8" d = " M176 263 C182.44,263 186.778,265 193,265 193,261.005 202.69,241.119 205,236.5 206.544,233.412 205.456,228.588 207,225.5 207,225.5 209,222 209,222 209,222 207,215 207,215 207,215 200,213 200,213 200,213 192,216 192,216 192,216 191,217 191,217 191,224.661 171,252.713 171,258 173.96,258 175,260.399 175,263 175,263 176,263 176,263  Z"/>

<path  fill="#FFB2D8" stroke-width="0" stroke="#FFB2D8" d = " M280 263 L281,263 C281,260.687 282.452,258 285,258 285,258 265,217 265,217 265,214.947 257.649,213 256,213 256,213 249,215 249,215 249,215 248,221 248,221 248,221 248,223 248,223 248,235.607 263,253.795 263,265 269.229,265 273.664,263 280,263  Z"/>

<path  fill="#F0F080" stroke-width="0" stroke="#F0F080" d = " M118 215 C118,216.429 116.712,219 115,219 115,219 113,215 113,215 114.624,215 115.75,215 118,215  Z"/>

<path  fill="#FFA4D0" stroke-width="0" stroke="#FFA4D0" d = " M141 264 C143.467,264 146.49,267 151,267 151,267 155,262.5 155,262.5 156.678,259.144 154.51,246.479 159,237.5 161.95,231.601 171,235.098 171,222 171,222 171,221 171,221 171,221 171,220 171,220 171,220 168,217 168,217 168,217 163,215 163,215 155.639,215 145.709,225 144,225 144,225 143,227 143,227 143,231.728 139,235.359 139,240 139,240 137,244 137,244 137,248.431 136.142,254.783 138,258.5 138,258.5 141,263 141,263 141,263 141,264 141,264  Z"/>

<path  fill="#FFA4D0" stroke-width="0" stroke="#FFA4D0" d = " M305 267 L311,267 C311,267 313,266 313,266 313,266 314,265 314,265 314,265 315,264 315,264 315,264 316,263 316,263 316,263 317,261 317,261 317,259.762 317.423,258 319,258 319,258 319,256 319,256 319,239.349 313.591,215 293,215 290.17,215 288.46,219 286,219 286,219 286,223 286,223 286,236.388 294.594,230.688 299,239.5 301.995,245.49 298.093,254.685 301,260.5 301,260.5 305,267 305,267  Z"/>

<path  fill="#F0F080" stroke-width="0" stroke="#F0F080" d = " M343 216 L341,219 C338.891,219 339,216.465 339,215 339,215 343,216 343,216  Z"/>

<path  fill="#FF9BCD" stroke-width="0" stroke="#FF9BCD" d = " M192 216 L191,217 C191,217 192,216 192,216  Z"/>

<path  fill="#A9AAA8" stroke-width="0" stroke="#A9AAA8" d = " M121 217 L118,221.5 L119,225 C119,242.182 136.614,217 121,217  Z"/>

<path  fill="#FF9BCD" stroke-width="0" stroke="#FF9BCD" d = " M168 217 L171,220 C171,220 168,217 168,217  Z"/>

<path  fill="#FCB3D9" stroke-width="0" stroke="#FCB3D9" d = " M151 267 C151,271.534 155.71,271 159,271 159,269.421 165.722,265 167,265 167,265 168,264 168,264 168,264 171,258 171,258 171,252.713 191,224.661 191,217 183.98,217 179.202,221 173,221 173,221 171,222 171,222 171,235.098 161.95,231.601 159,237.5 154.51,246.479 156.678,259.144 155,262.5 155,262.5 151,267 151,267  Z"/>

<path  fill="#FCB3D9" stroke-width="0" stroke="#FCB3D9" d = " M305 267 C305,271.534 300.29,271 297,271 297,269.45 290.854,265 289,265 289,262.17 285,260.46 285,258 285,258 265,217 265,217 272.042,217 276.927,221 283,221 283,221 286,223 286,223 286,236.388 294.594,230.688 299,239.5 301.995,245.49 298.093,254.685 301,260.5 301,260.5 305,267 305,267  Z"/>

<path  fill="#A9AAA8" stroke-width="0" stroke="#A9AAA8" d = " M331 217 C331,218.984 327.722,220.945 329,223.5 330.047,225.595 331.535,232 334.5,232 335.464,232 342.739,217 331,217  Z"/>

<path  fill="#FF9BCD" stroke-width="0" stroke="#FF9BCD" d = " M139 219 L138,220 C138,220 139,219 139,219  Z"/>

<path  fill="#FF9BCD" stroke-width="0" stroke="#FF9BCD" d = " M283 221 L286,223 C286,223 286,219 286,219 284.519,219 285.215,221 283,221  Z"/>

<path  fill="#FF9BCD" stroke-width="0" stroke="#FF9BCD" d = " M318 220 L319,221 C319,221 318,220 318,220  Z"/>

<path  fill="#FF9BCD" stroke-width="0" stroke="#FF9BCD" d = " M173 221 L171,222 C171,222 171,221 171,221 171,221 173,221 173,221  Z"/>

<path  fill="#FEB0D8" stroke-width="0" stroke="#FEB0D8" d = " M197 278 L201,278 C201,268.381 213.929,261 221,261 221,258.56 227,241.393 227,251 227,251 229,250 229,250 229,242.828 235,257.775 235,261 242.276,261 255,268.032 255,278 256.145,278 259,278.579 259,277 259,271.961 251.119,271.19 259.5,267 259.5,267 263,265 263,265 263,253.795 248,235.607 248,223 248,223 247,222 247,222 243.688,222 238.962,221 235,221 235,221 231,222 231,222 231,224.264 231.627,234 229,234 229,236.488 227,235.919 227,234 227,230.235 225,226.228 225,222 225,222 221,221 221,221 217.038,221 212.312,222 209,222 209,222 207,225.5 207,225.5 205.456,228.588 206.544,233.412 205,236.5 202.69,241.119 193,261.005 193,265 207.926,265 197,276.831 197,278  Z"/>

<path  fill="#FF9BCD" stroke-width="0" stroke="#FF9BCD" d = " M247 222 L248,223 C248,223 248,221 248,221 248,221 247,222 247,222  Z"/>

<path  fill="#FF9BCD" stroke-width="0" stroke="#FF9BCD" d = " M144 225 L143,227 C143,227 144,225 144,225  Z"/>

<path  fill="#FF9BCD" stroke-width="0" stroke="#FF9BCD" d = " M327 225 L328,226 C328,226 327,225 327,225  Z"/>

<path  fill="#FF9BCD" stroke-width="0" stroke="#FF9BCD" d = " M129 226 L128,227 C128,227 129,226 129,226  Z"/>

<path  fill="#FF9BCD" stroke-width="0" stroke="#FF9BCD" d = " M143 227 C140.568,227 137,240.867 137,244 137,244 139,240 139,240 139,235.359 143,231.728 143,227  Z"/>

<path  fill="#FF9BCD" stroke-width="0" stroke="#FF9BCD" d = " M328 227 L329,228 C329,228 328,227 328,227  Z"/>

<path  fill="#FF9BCD" stroke-width="0" stroke="#FF9BCD" d = " M128 228 L127,229 C127,229 128,228 128,228  Z"/>

<path  fill="#FF9BCD" stroke-width="0" stroke="#FF9BCD" d = " M332 241 L333,242 C333,242 332,241 332,241  Z"/>

<path  fill="#FF9BCD" stroke-width="0" stroke="#FF9BCD" d = " M333 243 L333,255 C333.835,255 335,243.354 335,242 335,242 333,243 333,243  Z"/>

<path  fill="#FF9BCD" stroke-width="0" stroke="#FF9BCD" d = " M124 243 L123,247 C121.421,247 122,244.145 122,243 122,243 124,243 124,243  Z"/>

<path  fill="#FF9BCD" stroke-width="0" stroke="#FF9BCD" d = " M137 244 C135.335,244 136,248.222 136,249.5 136,253.169 136.709,263 141,263 141,263 138,258.5 138,258.5 136.142,254.783 137,248.431 137,244  Z"/>

<path  fill="#C8C8CC" stroke-width="0" stroke="#C8C8CC" d = " M226 266 L223,268 C223,267.938 221,263.847 221,261 221,258.56 227,241.393 227,251 227,251 227,264 227,264 227,264 226,266 226,266  Z"/>

<path  fill="#C8C8CC" stroke-width="0" stroke="#C8C8CC" d = " M229 263 C230.872,263 230.926,268 234,268 234,266.181 235,263.409 235,261 235,257.775 229,242.828 229,250 229,250 229,263 229,263  Z"/>

<path  fill="#FEC6E2" stroke-width="0" stroke="#FEC6E2" d = " M227 274 L229,274 C229,274 230,273 230,273 230,269.49 229,265.978 229,263 229,263 229,250 229,250 229,250 227,251 227,251 227,251 227,264 227,264 227,264 226,266 226,266 226,268.409 227,271.181 227,273 227,273 227,274 227,274  Z"/>

<path  fill="#FF9BCD" stroke-width="0" stroke="#FF9BCD" d = " M123 255 C124.473,255 124,256.952 124,258 122.527,258 123,256.048 123,255  Z"/>

<path  fill="#FEB3D6" stroke-width="0" stroke="#FEB3D6" d = " M168 265 C169.631,265 172.369,265 174,265 174,265 175,264 175,264 175,264 175,263 175,263 175,260.399 173.96,258 171,258 171,258 168,264 168,264 168,264 168,265 168,265  Z"/>

<path  fill="#FEB3D6" stroke-width="0" stroke="#FEB3D6" d = " M281 264 L283.5,266 L289,265 C289,262.17 285,260.46 285,258 282.452,258 281,260.687 281,263 281,263 281,264 281,264  Z"/>

<path  fill="#FF9BCD" stroke-width="0" stroke="#FF9BCD" d = " M319 258 C317.423,258 317,259.762 317,261 318.577,261 319,259.238 319,258  Z"/>

<path  fill="#FF9BCD" stroke-width="0" stroke="#FF9BCD" d = " M333 258 L332,259 C332,259 333,258 333,258  Z"/>

<path  fill="#FF9BCD" stroke-width="0" stroke="#FF9BCD" d = " M124 259 L125,260 C125,260 124,259 124,259  Z"/>

<path  fill="#FF9BCD" stroke-width="0" stroke="#FF9BCD" d = " M332 259 L331,261 C331,261 332,259 332,259  Z"/>

<path  fill="#FDB2D9" stroke-width="0" stroke="#FDB2D9" d = " M223 268 C223,275.093 210.364,278.568 205.5,281 L201,278 C201,268.381 213.929,261 221,261 221,263.847 223,267.938 223,268  Z"/>

<path  fill="#FDB2D9" stroke-width="0" stroke="#FDB2D9" d = " M234 268 C234,275.224 244.704,278.102 250.5,281 251.511,281.505 255,279.131 255,278 255,268.032 242.276,261 235,261 235,263.409 234,266.181 234,268  Z"/>

<path  fill="#FF9BCD" stroke-width="0" stroke="#FF9BCD" d = " M125 261 L131,270 C128.18,270 125,263.103 125,261  Z"/>

<path  fill="#FF9BCD" stroke-width="0" stroke="#FF9BCD" d = " M317 261 L316,263 C316,263 317,261 317,261  Z"/>

<path  fill="#FF9BCD" stroke-width="0" stroke="#FF9BCD" d = " M176 263 L175,264 C175,264 175,263 175,263 175,263 176,263 176,263  Z"/>

<path  fill="#FCB2D9" stroke-width="0" stroke="#FCB2D9" d = " M197 278 C196.676,278 187.306,287.597 184.5,289 180.784,290.858 177.85,285 175,285 167.998,285 168.266,273 160,273 160,273 159,271 159,271 159,269.421 165.722,265 167,265 167,265 168,265 168,265 169.631,265 172.369,265 174,265 174,265 175,264 175,264 175,264 176,263 176,263 182.44,263 186.778,265 193,265 207.926,265 197,276.831 197,278  Z"/>

<path  fill="#FF9BCD" stroke-width="0" stroke="#FF9BCD" d = " M279 293 C279,294.993 273.8,294.35 272.5,295 265.491,298.505 254.226,300 246,300 246,298.69 251.063,297.627 249,293.5 249,293.5 245,289 245,289 249.149,289 255.417,295.542 256.5,295 259.23,293.635 255.615,291.942 257.5,291 257.932,290.784 264,294.475 264,292.5 264,290.288 258.687,288.593 257.5,288 252.459,285.479 248.437,281.468 243.5,279 240.598,277.549 238.301,281 237.5,281 234.556,281 234.667,273 230,273 230,269.49 229,265.978 229,263 230.872,263 230.926,268 234,268 234,275.224 244.704,278.102 250.5,281 251.511,281.505 255,279.131 255,278 256.145,278 259,278.579 259,277 259,277 271.5,289 271.5,289 275.161,290.831 278.126,286 281,286 281,289.027 285.088,285 288,285 288,287.441 281.155,289.173 279.5,290 278.513,290.493 276.883,293 279,293  Z"/>

<path  fill="#FCB2D9" stroke-width="0" stroke="#FCB2D9" d = " M282 285 L281,286 C278.126,286 275.161,290.831 271.5,289 271.5,289 259,277 259,277 259,271.961 251.119,271.19 259.5,267 259.5,267 263,265 263,265 269.229,265 273.664,263 280,263 280,263 281,264 281,264 281,264 283.5,266 283.5,266 283.5,266 289,265 289,265 290.854,265 297,269.45 297,271 297,271 296,273 296,273 289.316,273 289.595,283 284,283 284,283 283,284 283,284 283,284 282,285 282,285  Z"/>

<path  fill="#FF9BCD" stroke-width="0" stroke="#FF9BCD" d = " M281 263 L281,264 C281,264 280,263 280,263 280,263 281,263 281,263  Z"/>

<path  fill="#FF9BCD" stroke-width="0" stroke="#FF9BCD" d = " M316 263 L315,264 C315,264 316,263 316,263  Z"/>

<path  fill="#FF9BCD" stroke-width="0" stroke="#FF9BCD" d = " M331 263 L330,264 C330,264 331,263 331,263  Z"/>

<path  fill="#FF9BCD" stroke-width="0" stroke="#FF9BCD" d = " M209 291 C209,293.099 205.442,295.383 207,298.5 207.749,299.998 211,297.795 211,300 193.033,300 175.53,293.515 160.5,286 160.5,286 150.5,281 150.5,281 149.381,280.441 146,280.845 146,279 148.688,279 156,284.427 156,280 156,277.959 155.041,277 153,277 153,277 147,274 147,274 159.649,274 141,266.846 141,264 143.467,264 146.49,267 151,267 151,271.534 155.71,271 159,271 159,271 160,273 160,273 160,275.332 155.278,275.057 157,278.5 158.063,280.626 161,277.22 161,281 151.404,281 169.169,289.335 172.5,291 172.964,291.232 179,292.849 179,291.5 179,291.5 168,285 168,285 170.591,285 175,288.756 175,285 177.85,285 180.784,290.858 184.5,289 187.306,287.597 196.676,278 197,278 197,278 201,278 201,278 201,278 205.5,281 205.5,281 210.364,278.568 223,275.093 223,268 223,268 226,266 226,266 226,268.409 227,271.181 227,273 220.23,273 223.804,278.848 219.5,281 218.742,281.379 215.333,277.584 212.5,279 212.5,279 206.5,283 206.5,283 203.307,284.597 196.41,287.68 195,290.5 195,290.5 193,292.5 193,292.5 194.173,294.846 197.51,291 198.5,291 199.609,291 198.23,297.135 202.5,295 206.39,293.055 202.566,291 209,291  Z"/>

<path  fill="#FF9BCD" stroke-width="0" stroke="#FF9BCD" d = " M167 265 L168,265 C168,265 168,264 168,264 168,264 167,265 167,265  Z"/>

<path  fill="#FF9BCD" stroke-width="0" stroke="#FF9BCD" d = " M175 264 L174,265 C174,265 175,264 175,264  Z"/>

<path  fill="#FF9BCD" stroke-width="0" stroke="#FF9BCD" d = " M227 264 L226,266 C226,266 227,264 227,264  Z"/>

<path  fill="#FF9BCD" stroke-width="0" stroke="#FF9BCD" d = " M315 264 L314,265 C314,265 315,264 315,264  Z"/>

<path  fill="#FF9BCD" stroke-width="0" stroke="#FF9BCD" d = " M330 264 L329,265 C329,265 330,264 330,264  Z"/>

<path  fill="#FF9BCD" stroke-width="0" stroke="#FF9BCD" d = " M314 265 L313,266 C313,266 314,265 314,265  Z"/>

<path  fill="#FF9BCD" stroke-width="0" stroke="#FF9BCD" d = " M313 266 L311,267 C311,267 313,266 313,266  Z"/>

<path  fill="#FF9BCD" stroke-width="0" stroke="#FF9BCD" d = " M329 266 L328,267 C328,267 329,266 329,266  Z"/>

<path  fill="#FF9BCD" stroke-width="0" stroke="#FF9BCD" d = " M306 281 C306,282.845 302.619,282.441 301.5,283 297.871,284.814 293.189,289 289,289 289,286.442 305.923,281 295,281 295,278.27 298.306,279.888 299,278.5 300.634,275.231 296,274.543 296,273 296,273 297,271 297,271 300.29,271 305,271.534 305,267 305,267 311,267 311,267 311,269.662 299.463,274 309,274 309,275.662 304.643,277 303,277 300.707,277 301,277.997 301,280 299.214,280 300.685,281.592 301.5,282 301.5,282 306,281 306,281  Z"/>

<path  fill="#FF9BCD" stroke-width="0" stroke="#FF9BCD" d = " M328 267 L327,268 C327,268 328,267 328,267  Z"/>

<path  fill="#FF9BCD" stroke-width="0" stroke="#FF9BCD" d = " M327 269 C325.253,269 325,269.253 325,271 325,271 327,269 327,269  Z"/>

<path  fill="#FF9BCD" stroke-width="0" stroke="#FF9BCD" d = " M134 272 L136,275 C136,275 132,271 132,271 132,271 134,272 134,272  Z"/>

<path  fill="#C9CACA" stroke-width="0" stroke="#C9CACA" d = " M146 279 C148.688,279 156,284.427 156,280 153.959,280 153,279.041 153,277 153,277 147,274 147,274 147,274 146,274 146,274 146,274 145,273 145,273 145,273 144,273 144,273 144,273 139.5,271 139.5,271 137.544,270.022 135.423,272 134,272 134,272 136,275 136,275 136,275 137,275 137,275 137,275 140,276 140,276 140,276 141,277 141,277 141,277 143,277 143,277 143,277 144,278 144,278 144,278 145,279 145,279 145,279 146,279 146,279  Z"/>

<path  fill="#C9CACA" stroke-width="0" stroke="#C9CACA" d = " M301 280 C299.214,280 300.685,281.592 301.5,282 L306,281 C306,279.362 309.576,279 311,279 311,279 315,277 315,277 315,277 316,276 316,276 316,276 317,276 317,276 317,276 318,275 318,275 318,275 319,275 319,275 319,275 320,275 320,275 320,275 321,274 321,274 321,274 322,273 322,273 322,268.096 315.069,273 313,273 313,273 309,274 309,274 309,275.662 304.643,277 303,277 303,278.238 302.577,280 301,280  Z"/>

<path  fill="#FF9BCD" stroke-width="0" stroke="#FF9BCD" d = " M325 271 C323.253,271 323,271.253 323,273 323,273 325,271 325,271  Z"/>

<path  fill="#C9C9C8" stroke-width="0" stroke="#C9C9C8" d = " M145 273 L146,274 C146,274 145,273 145,273  Z"/>

<path  fill="#C8C8CB" stroke-width="0" stroke="#C8C8CB" d = " M168 285 C170.591,285 175,288.756 175,285 167.998,285 168.266,273 160,273 160,275.332 155.278,275.057 157,278.5 158.063,280.626 161,277.22 161,281 161,281 162,281 162,281 163.247,281 167,283.467 167,285 167,285 168,285 168,285  Z"/>

<path  fill-rule="evenodd" fill="#FFB3D8" stroke-width="0" stroke="#FFB3D8" d = " M207 289 C207,290.93 208.93,289 207,289  M208 288 C208,289.93 209.93,288 208,288  M211 290 L209,291 C202.566,291 206.39,293.055 202.5,295 198.23,297.135 199.609,291 198.5,291 197.51,291 194.173,294.846 193,292.5 193,292.5 195,290.5 195,290.5 196.41,287.68 203.307,284.597 206.5,283 206.5,283 212.5,279 212.5,279 215.333,277.584 218.742,281.379 219.5,281 223.804,278.848 220.23,273 227,273 227,273 227,274 227,274 227,274 227,277 227,277 227,277 227,278 227,278 227,278 226,279 226,279 226,279 226,280 226,280 226,280 221.5,285 221.5,285 221.5,285 226,283 226,283 226,284.333 226,284.667 226,286 225.344,286 221.862,289.319 220.5,290 218.148,291.176 213,284.767 213,289 213,289 212,289 212,289 212,289 211,290 211,290  Z"/>

<path  fill-rule="evenodd" fill="#FFB3D8" stroke-width="0" stroke="#FFB3D8" d = " M247 288 C247,289.93 248.93,288 247,288  M243 289 L245,289 C249.149,289 255.417,295.542 256.5,295 259.23,293.635 255.615,291.942 257.5,291 257.932,290.784 264,294.475 264,292.5 264,290.288 258.687,288.593 257.5,288 252.459,285.479 248.437,281.468 243.5,279 240.598,277.549 238.301,281 237.5,281 234.556,281 234.667,273 230,273 230,273 229,274 229,274 229,274 230,278 230,278 230,278 230,279 230,279 230,279 231,280 231,280 231,280 231,281 231,281 232.043,281 235.553,283.394 235,284.5 234.307,285.886 231,283.81 231,283 229.527,283 230,284.952 230,286 231.883,286 235.321,290 240,290 240,290 241,289 241,289 241,285.015 243,288.857 243,289  Z"/>

<path  fill="#C8C8CB" stroke-width="0" stroke="#C8C8CB" d = " M288 285 L289,285 C289,283.288 291.571,282 293,282 293,282 295,281 295,281 295,278.27 298.306,279.888 299,278.5 300.634,275.231 296,274.543 296,273 289.316,273 289.595,283 284,283 284,283 283,284 283,284 283,284 282,285 282,285 282,285 281,286 281,286 281,289.027 285.088,285 288,285  Z"/>

<path  fill="#FF9BCD" stroke-width="0" stroke="#FF9BCD" d = " M227 277 L230,278 C230,278 229,274 229,274 229,274 227,274 227,274 227,274 227,277 227,277  Z"/>

<path  fill="#FF9BCD" stroke-width="0" stroke="#FF9BCD" d = " M321 274 L320,275 C320,275 321,274 321,274  Z"/>

<path  fill="#FF9BCD" stroke-width="0" stroke="#FF9BCD" d = " M140 276 L140,277 C140,277 137,275 137,275 137,275 140,276 140,276  Z"/>

<path  fill="#C9C9C8" stroke-width="0" stroke="#C9C9C8" d = " M317 276 L318,276 C318,276 318,275 318,275 318,275 317,276 317,276  Z"/>

<path  fill="#FF9BCD" stroke-width="0" stroke="#FF9BCD" d = " M319 275 L318,276 C318,276 318,275 318,275 318,275 319,275 319,275  Z"/>

<path  fill="#C9C9C8" stroke-width="0" stroke="#C9C9C8" d = " M140 277 L141,277 C141,277 140,276 140,276 140,276 140,277 140,277  Z"/>

<path  fill="#C9C9C8" stroke-width="0" stroke="#C9C9C8" d = " M315 277 L316,277 C316,277 316,276 316,276 316,276 315,277 315,277  Z"/>

<path  fill="#FF9BCD" stroke-width="0" stroke="#FF9BCD" d = " M318 276 L316,277 C316,277 316,276 316,276 316,276 317,276 317,276 317,276 318,276 318,276  Z"/>

<path  fill="#FF9BCD" stroke-width="0" stroke="#FF9BCD" d = " M144 278 L145,279 C145,279 141,277 141,277 141,277 143,277 143,277 143,277 144,278 144,278  Z"/>

<path  fill="#C9C9C8" stroke-width="0" stroke="#C9C9C8" d = " M143 277 L144,278 C144,278 143,277 143,277  Z"/>

<path  fill="#FEB0D9" stroke-width="0" stroke="#FEB0D9" d = " M153 277 C155.041,277 156,277.959 156,280 153.959,280 153,279.041 153,277  Z"/>

<path  fill="#FFC6E2" stroke-width="0" stroke="#FFC6E2" d = " M226 286 C226,290.12 230,290.12 230,286 230,284.952 229.527,283 231,283 231,283 231,281 231,281 231,281 231,280 231,280 231,280 230,279 230,279 230,279 230,278 230,278 230,278 227,277 227,277 227,277 227,278 227,278 227,278 226,279 226,279 226,279 226,280 226,280 226,280 226,283 226,283 226,284.333 226,284.667 226,286  Z"/>

<path  fill="#FEB0D9" stroke-width="0" stroke="#FEB0D9" d = " M303 277 C300.707,277 301,277.997 301,280 302.577,280 303,278.238 303,277  Z"/>

<path  fill="#FF9BCD" stroke-width="0" stroke="#FF9BCD" d = " M315 277 L311,279 C312.465,279 315,279.109 315,277  Z"/>

<path  fill="#FF9BCD" stroke-width="0" stroke="#FF9BCD" d = " M227 278 L226,279 C226,279 227,278 227,278  Z"/>

<path  fill="#FF9BCD" stroke-width="0" stroke="#FF9BCD" d = " M230 279 L231,280 C231,280 230,279 230,279  Z"/>

<path  fill="#FF9BCD" stroke-width="0" stroke="#FF9BCD" d = " M311 279 C309.576,279 306,279.362 306,281 307.424,281 311,280.638 311,279  Z"/>

<path  fill="#FF9BCD" stroke-width="0" stroke="#FF9BCD" d = " M226 280 L221.5,285 L226,283 C226,283 226,280 226,280  Z"/>

<path  fill="#CBC7CC" stroke-width="0" stroke="#CBC7CC" d = " M167 285 L168,285 C168,285 179,291.5 179,291.5 179,292.849 172.964,291.232 172.5,291 169.169,289.335 151.404,281 161,281 161,281 162,281 162,281 162,281 167,285 167,285  Z"/>

<path  fill="#FF9BCD" stroke-width="0" stroke="#FF9BCD" d = " M162 281 C163.247,281 167,283.467 167,285 167,285 162,281 162,281  Z"/>

<path  fill="#FF9BCD" stroke-width="0" stroke="#FF9BCD" d = " M231 281 C232.043,281 235.553,283.394 235,284.5 234.307,285.886 231,283.81 231,283 231,283 231,281 231,281  Z"/>

<path  fill="#FF9BCD" stroke-width="0" stroke="#FF9BCD" d = " M295 281 L293,282 C293,282 295,281 295,281  Z"/>

<path  fill="#CBC7CC" stroke-width="0" stroke="#CBC7CC" d = " M285 291 C283.377,291 279,291.005 279,293 276.883,293 278.513,290.493 279.5,290 281.155,289.173 288,287.441 288,285 288,285 289,285 289,285 290.429,285 293,283.712 293,282 293,282 295,281 295,281 305.923,281 289,286.442 289,289 287.535,289 285,288.891 285,291  Z"/>

<path  fill="#FF9BCD" stroke-width="0" stroke="#FF9BCD" d = " M293 282 C291.571,282 289,283.288 289,285 290.429,285 293,283.712 293,282  Z"/>

<path  fill="#FF9BCD" stroke-width="0" stroke="#FF9BCD" d = " M284 283 L283,284 C283,284 284,283 284,283  Z"/>

<path  fill="#FF9BCD" stroke-width="0" stroke="#FF9BCD" d = " M283 284 L282,285 C282,285 283,284 283,284  Z"/>

<path  fill="#FF9BCD" stroke-width="0" stroke="#FF9BCD" d = " M282 285 L281,286 C281,286 282,285 282,285  Z"/>

<path  fill="#FF9BCD" stroke-width="0" stroke="#FF9BCD" d = " M219 299 C222.658,299 228.028,292 228.5,292 L229.5,295 L238,299 C238,297.415 232.455,296.59 234,293.5 234,293.5 240,290 240,290 235.321,290 231.883,286 230,286 230,290.12 226,290.12 226,286 225.344,286 221.862,289.319 220.5,290 218.148,291.176 213,284.767 213,289 214.355,289 223.483,293.534 223,294.5 223,294.5 219,299 219,299  Z"/>

<path  fill="#FF9BCD" stroke-width="0" stroke="#FF9BCD" d = " M241 289 L243,289 C243,288.857 241,285.015 241,289  Z"/>

<path  fill="#FF9BCD" stroke-width="0" stroke="#FF9BCD" d = " M208 288 C208,289.93 209.93,288 208,288  Z"/>

<path  fill="#FF9BCD" stroke-width="0" stroke="#FF9BCD" d = " M247 288 C247,289.93 248.93,288 247,288  Z"/>

<path  fill="#FF9BCD" stroke-width="0" stroke="#FF9BCD" d = " M207 289 C207,290.93 208.93,289 207,289  Z"/>

<path  fill="#FF9BCD" stroke-width="0" stroke="#FF9BCD" d = " M212 289 L211,290 C211,290 212,289 212,289  Z"/>

<path  fill="#C7C9C9" stroke-width="0" stroke="#C7C9C9" d = " M211 300 L214,300 C214,298.527 215.952,299 217,299 217,299 219,299 219,299 219,299 223,294.5 223,294.5 223.483,293.534 214.355,289 213,289 213,289 212,289 212,289 212,289 211,290 211,290 211,290 209,291 209,291 209,293.099 205.442,295.383 207,298.5 207.749,299.998 211,297.795 211,300  Z"/>

<path  fill="#FF9BCD" stroke-width="0" stroke="#FF9BCD" d = " M241 289 L240,290 C240,290 241,289 241,289  Z"/>

<path  fill="#C7C9C9" stroke-width="0" stroke="#C7C9C9" d = " M243 300 L246,300 C246,298.69 251.063,297.627 249,293.5 249,293.5 245,289 245,289 245,289 243,289 243,289 243,289 241,289 241,289 241,289 240,290 240,290 240,290 234,293.5 234,293.5 232.455,296.59 238,297.415 238,299 238,299 240,299 240,299 241.048,299 243,298.527 243,300  Z"/>

<path  fill="#FF9BCD" stroke-width="0" stroke="#FF9BCD" d = " M289 289 C287.535,289 285,288.891 285,291 285,291 289,289 289,289  Z"/>

<path  fill="#FF9BCD" stroke-width="0" stroke="#FF9BCD" d = " M211 290 L209,291 C209,291 211,290 211,290  Z"/>

<path  fill="#FF9BCD" stroke-width="0" stroke="#FF9BCD" d = " M285 291 C283.377,291 279,291.005 279,293 280.623,293 285,292.995 285,291  Z"/>

<path  fill="#FF9BCD" stroke-width="0" stroke="#FF9BCD" d = " M217 299 C215.952,299 214,298.527 214,300 215.048,300 217,300.473 217,299  Z"/>

<path  fill="#FF9BCD" stroke-width="0" stroke="#FF9BCD" d = " M240 299 C241.048,299 243,298.527 243,300 241.952,300 240,300.473 240,299  Z"/>

</g>
</svg>
