<svg xmlns="http://www.w3.org/2000/svg" xmlns:xlink="http://www.w3.org/1999/xlink"  viewBox="0 0 456 320">
<g>
<rect width="456" height="320" fill="#000000"  stroke-width="0" /> 
<path  fill="#99D2BD" stroke-width="0" stroke="#99D2BD" d = " M201 111 C199.594,111 194,110.286 194,112 195.406,112 201,112.714 201,111  Z"/>

<path  fill="#9AD1BD" stroke-width="0" stroke="#9AD1BD" d = " M193 113 C186.318,113 181.116,118.192 175.5,121 142.544,137.478 160.219,170.937 172,194.5 175.05,200.599 172.109,212.719 175,218.5 179.487,227.474 185.271,229.885 193.5,234 201.986,238.243 212.267,224.965 215,219.5 222.589,204.321 217.389,175.721 223,164.5 224.137,162.225 222.808,158.883 224,156.5 225.991,152.519 223.973,146.555 226,142.5 228.183,138.135 222.632,119 220,119 220,119 216.5,115 216.5,115 216.5,115 210,112 210,112 210,112 201,111 201,111 201,112.714 195.406,112 194,112 194,112 193,113 193,113  Z"/>

<path  fill="#9AD1BD" stroke-width="0" stroke="#9AD1BD" d = " M240 115 L236,119 C236,119.729 230.762,130.976 230,132.5 228.104,136.293 234,158.728 234,164.5 234,172.816 233.377,188.255 237,195.5 237,195.5 238,208.5 238,208.5 241.236,214.972 243.687,221.874 247,228.5 252.249,238.997 274.539,232.422 279,223.5 283.12,215.26 280.299,202.903 284,195.5 298.005,167.49 313.356,136.928 277.5,119 273.429,116.965 268.776,113 264,113 263.019,113 256,111.816 256,111 256,111 246,112 246,112 246,113.473 244.048,113 243,113 243,113 241,114 241,114 241,114 240,115 240,115  Z"/>

<path  fill="#99D2BD" stroke-width="0" stroke="#99D2BD" d = " M264 112 L264,113 C263.019,113 256,111.816 256,111 258.707,111 261.903,112 264,112  Z"/>

<path  fill="#C7CBCA" stroke-width="0" stroke="#C7CBCA" d = " M299 221 L298,222 C298,224.976 294.266,226.968 293,229.5 286.239,243.023 280.514,238.993 270.5,244 270.5,244 263.5,244 263.5,244 259.937,245.781 251.333,249.416 246.5,247 239.656,243.578 234.194,232.889 231,226.5 231,226.5 228.5,211 228.5,211 228.5,211 226,224.5 226,224.5 222.392,231.716 217.545,242.978 209.5,247 204.898,249.301 195.939,245.719 192.5,244 192.5,244 185.5,244 185.5,244 174.327,238.413 170.44,243.379 163,228.5 161.481,225.463 158,224.724 158,221 158,199.442 152,182.163 152,159 152,159 152,157 152,157 153.684,157 153,152.321 153,151 153,151 153,146 153,146 154.473,146 154,144.048 154,143 155.473,143 155,141.048 155,140 155,140 155,137 155,137 155,137 156,136 156,136 156,136 156,135 156,135 156,135 157,134 157,134 157,134 157,133 157,133 157,133 158,132 158,132 158,132 159,131 159,131 159,131 159,130 159,130 159,130 160,129 160,129 160,129 161,128 161,128 161,121.82 187.498,112 193,112 193,112 193,113 193,113 186.318,113 181.116,118.192 175.5,121 142.544,137.478 160.219,170.937 172,194.5 175.05,200.599 172.109,212.719 175,218.5 179.487,227.474 185.271,229.885 193.5,234 201.986,238.243 212.267,224.965 215,219.5 222.589,204.321 217.389,175.721 223,164.5 224.137,162.225 222.808,158.883 224,156.5 225.991,152.519 223.973,146.555 226,142.5 228.183,138.135 222.632,119 220,119 220,116.627 222.284,119 223,119 223,119 228.5,128 228.5,128 229.682,128 231.111,118 235,118 235,118 236,119 236,119 236,119.729 230.762,130.976 230,132.5 228.104,136.293 234,158.728 234,164.5 234,172.816 233.377,188.255 237,195.5 237,195.5 238,208.5 238,208.5 241.236,214.972 243.687,221.874 247,228.5 252.249,238.997 274.539,232.422 279,223.5 283.12,215.26 280.299,202.903 284,195.5 298.005,167.49 313.356,136.928 277.5,119 273.429,116.965 268.776,113 264,113 264,113 264,112 264,112 268.912,112 295,122.11 295,127 295,127 297,129 297,129 297,129 297,130 297,130 297,131.178 299.572,136 301,136 301,136 301,138 301,138 301,139.357 301.647,144 303,144 303,144 303,147 303,147 303,148.235 302.357,152 304,152 304,152 304,154 304,154 304,155.574 303.249,163 305,163 305,163 305,167 305,167 305,177.301 302.07,203.36 298,211.5 298,211.5 299,221 299,221  Z"/>

<path  fill="#99D2BD" stroke-width="0" stroke="#99D2BD" d = " M194 112 L193,113 C193,113 193,112 193,112 193,112 194,112 194,112  Z"/>

<path  fill="#99D2BD" stroke-width="0" stroke="#99D2BD" d = " M220 119 C220,116.627 222.284,119 223,119 223,115.974 212.555,112 210,112 210,112 216.5,115 216.5,115 216.5,115 220,119 220,119  Z"/>

<path  fill="#99D2BD" stroke-width="0" stroke="#99D2BD" d = " M246 112 C244.952,112 243,111.527 243,113 244.048,113 246,113.473 246,112  Z"/>

<path  fill="#99D2BD" stroke-width="0" stroke="#99D2BD" d = " M243 113 L241,114 C241,114 243,113 243,113  Z"/>

<path  fill="#99D2BD" stroke-width="0" stroke="#99D2BD" d = " M241 114 L240,115 C240,115 241,114 241,114  Z"/>

<path  fill="#99D2BD" stroke-width="0" stroke="#99D2BD" d = " M235 118 L236,119 C236,119 240,115 240,115 238.592,115 235,116.197 235,118  Z"/>

<path  fill="#99D2BD" stroke-width="0" stroke="#99D2BD" d = " M295 127 L297,129 C297,129 295,127 295,127  Z"/>

<path  fill="#99D2BD" stroke-width="0" stroke="#99D2BD" d = " M161 128 L160,129 C160,129 161,128 161,128  Z"/>

<path  fill="#99D2BD" stroke-width="0" stroke="#99D2BD" d = " M160 129 L159,130 C159,130 160,129 160,129  Z"/>

<path  fill="#99D2BD" stroke-width="0" stroke="#99D2BD" d = " M297 130 C298.428,130 301,134.822 301,136 299.572,136 297,131.178 297,130  Z"/>

<path  fill="#99D2BD" stroke-width="0" stroke="#99D2BD" d = " M159 131 L158,132 C158,132 159,131 159,131  Z"/>

<path  fill="#99D2BD" stroke-width="0" stroke="#99D2BD" d = " M158 132 L157,133 C157,133 158,132 158,132  Z"/>

<path  fill="#99D2BD" stroke-width="0" stroke="#99D2BD" d = " M157 134 L156,135 C156,135 157,134 157,134  Z"/>

<path  fill="#99D2BD" stroke-width="0" stroke="#99D2BD" d = " M156 136 L155,137 C155,137 156,136 156,136  Z"/>

<path  fill="#99D2BD" stroke-width="0" stroke="#99D2BD" d = " M301 138 C302.353,138 303,142.643 303,144 301.647,144 301,139.357 301,138  Z"/>

<path  fill="#99D2BD" stroke-width="0" stroke="#99D2BD" d = " M155 140 C153.527,140 154,141.952 154,143 155.473,143 155,141.048 155,140  Z"/>

<path  fill="#99D2BD" stroke-width="0" stroke="#99D2BD" d = " M154 143 C152.527,143 153,144.952 153,146 154.473,146 154,144.048 154,143  Z"/>

<path  fill="#99D2BD" stroke-width="0" stroke="#99D2BD" d = " M303 147 C304.643,147 304,150.765 304,152 302.357,152 303,148.235 303,147  Z"/>

<path  fill="#99D2BD" stroke-width="0" stroke="#99D2BD" d = " M153 151 C151.316,151 152,155.679 152,157 153.684,157 153,152.321 153,151  Z"/>

<path  fill="#99D2BD" stroke-width="0" stroke="#99D2BD" d = " M304 154 C305.751,154 305,161.426 305,163 303.249,163 304,155.574 304,154  Z"/>

<path  fill="#99D2BD" stroke-width="0" stroke="#99D2BD" d = " M152 159 C151.126,159 150,173.362 150,175 150,187.754 144.938,199.376 151,211.5 152.077,213.655 154.754,221 158,221 158,199.442 152,182.163 152,159  Z"/>

<path  fill="#99D2BD" stroke-width="0" stroke="#99D2BD" d = " M305 167 C306.76,167 307,178.334 307,180.5 307,186.163 310.475,203.55 308,208.5 L304,213.5 C303.284,214.931 300.757,221 299,221 299,221 298,211.5 298,211.5 302.07,203.36 305,177.301 305,167  Z"/>

<path  fill="#99D2BD" stroke-width="0" stroke="#99D2BD" d = " M299 221 L298,222 C298,222 299,221 299,221  Z"/>

</g>
</svg>
