<svg xmlns="http://www.w3.org/2000/svg" xmlns:xlink="http://www.w3.org/1999/xlink"  viewBox="0 0 456 320">
<g>
<rect width="456" height="320" fill="#000000"  stroke-width="0" /> 
<path  fill="#1E9C59" stroke-width="0" stroke="#1E9C59" d = " M224 63 L220,65 C218.403,65 213.25,56.3748 210.5,55 206.388,52.9441 201.535,53.0175 197.5,51 190.918,47.7092 163.817,61 157,61 157,61 157,55 157,55 157,55 171.5,49 171.5,49 177.763,45.8685 201.931,43.7154 208.5,47 210.569,48.0343 212.077,50.2883 213.5,51 216.344,52.4222 224,59.5411 224,63  Z"/>

<path  fill="#1E9C59" stroke-width="0" stroke="#1E9C59" d = " M233 63 L236,65 C236,65 243.5,57 243.5,57 243.5,57 249.5,53 249.5,53 252.2,51.6499 255.763,52.3686 258.5,51 265.355,47.5723 292.161,61 299,61 299,61 299,55 299,55 296.818,55 287.903,50.2014 285.5,49 285.5,49 280.5,49 280.5,49 273.263,45.3815 256.281,43.1096 248.5,47 244.84,48.8299 241.541,53.4797 238.5,55 236.707,55.8963 233,60.4194 233,63  Z"/>

<path  fill="#1E9D58" stroke-width="0" stroke="#1E9D58" d = " M214 70 C214,63.5922 203.584,64.5418 200.5,63 187.611,56.5553 167.226,78 158,78 158,73.1853 157,68.0762 157,62 157,62 157,61 157,61 163.817,61 190.918,47.7092 197.5,51 201.535,53.0175 206.388,52.9441 210.5,55 213.25,56.3748 218.403,65 220,65 220,65 220,66 220,66 220,66 214,70 214,70  Z"/>

<path  fill="#1E9D58" stroke-width="0" stroke="#1E9D58" d = " M243 69 C246.005,69 253.917,58.2086 263.5,63 L268.5,63 L299,78 C299,78 299,61 299,61 292.161,61 265.355,47.5723 258.5,51 255.763,52.3686 252.2,51.6499 249.5,53 249.5,53 243.5,57 243.5,57 243.5,57 236,65 236,65 236,65 236,66 236,66 238.363,66 240.713,70 242,70 242,70 243,69 243,69  Z"/>

<path  fill="#1E9D5A" stroke-width="0" stroke="#1E9D5A" d = " M97 93 L97,101 C97,101 111.5,87 111.5,87 122.081,81.7097 144.745,62 157,62 157,62 157,61 157,61 157,61 157,55 157,55 157,55 144.5,61 144.5,61 133.397,66.5516 118.623,72.8769 109.5,82 107.129,84.3711 97,89.4529 97,93  Z"/>

<path  fill="#1E9D5A" stroke-width="0" stroke="#1E9D5A" d = " M360 93 C360,95.9706 359,97.7678 359,100 359,100 342.5,85 342.5,85 333.17,80.3348 307.879,61 299,61 299,61 299,55 299,55 303.189,55 307.871,59.1855 311.5,61 319.289,64.8945 345.775,78.0504 349,84.5 350.277,87.053 360,89.5447 360,93  Z"/>

<path  fill="#1F9C58" stroke-width="0" stroke="#1F9C58" d = " M354 127 L355,127 C355,126.072 355.348,118 357,118 357,111.527 359,108.362 359,102 359,102 359,100 359,100 359,100 342.5,85 342.5,85 333.17,80.3348 307.879,61 299,61 299,61 299,78 299,78 299,78 299,79 299,79 303.397,79 309.565,85.0325 313.5,87 324.815,92.6577 337.991,101.482 343,111.5 345.368,116.236 354,121.596 354,127  Z"/>

<path  fill="#1F9C58" stroke-width="0" stroke="#1F9C58" d = " M102 127 L103,127 C103,115.062 134.152,91.174 144.5,86 148.396,84.0518 153.502,79 158,79 158,79 158,78 158,78 158,73.1853 157,68.0762 157,62 144.745,62 122.081,81.7097 111.5,87 111.5,87 97,101 97,101 97,101 97,102 97,102 97,108.045 99,112.033 99,119 101.055,119 99.9448,127 102,127  Z"/>

<path  fill="#1F9D58" stroke-width="0" stroke="#1F9D58" d = " M197 86 L191.5,84 C184.993,87.2536 163.109,99 157,99 157,91.0907 158,84.6381 158,79 158,79 158,78 158,78 167.226,78 187.611,56.5553 200.5,63 203.584,64.5418 214,63.5922 214,70 209.893,70 198.861,86 197,86  Z"/>

<path  fill="#1F9D58" stroke-width="0" stroke="#1F9D58" d = " M259 86 L264.5,84 C273.002,84 289.41,99 299,99 299,99 299,79 299,79 299,79 299,78 299,78 299,78 268.5,63 268.5,63 268.5,63 263.5,63 263.5,63 253.917,58.2086 246.005,69 243,69 243,69 243,70 243,70 243,71.5599 259,82.119 259,86  Z"/>

<path  fill="#3EA665" stroke-width="0" stroke="#3EA665" d = " M223 97 C226.642,97 231.002,98 234,98 234,98 233,74.5 233,74.5 233,74.5 236,66 236,66 236,66 236,65 236,65 236,65 233,63 233,63 229.937,63 230.152,69 228.5,69 228.5,69 224,63 224,63 224,63 220,65 220,65 220,65 220,66 220,66 221.59,66 221.443,70.386 222,71.5 225.105,77.7105 223,89.7341 223,97  Z"/>

<path  fill="#40A565" stroke-width="0" stroke="#40A565" d = " M222 98 L217,99 C217,99 217,76.5 217,76.5 217,76.5 214,70 214,70 214,70 220,66 220,66 221.59,66 221.443,70.386 222,71.5 225.105,77.7105 223,89.7341 223,97 223,97 222,98 222,98  Z"/>

<path  fill="#40A565" stroke-width="0" stroke="#40A565" d = " M234 98 L240,99 C240,99 240,75.5 240,75.5 240,75.5 242,70 242,70 240.713,70 238.363,66 236,66 236,66 233,74.5 233,74.5 233,74.5 234,98 234,98  Z"/>

<path  fill="#40A565" stroke-width="0" stroke="#40A565" d = " M242 70 L243,70 C243,70 243,69 243,69 243,69 242,70 242,70  Z"/>

<path  fill="#3EA566" stroke-width="0" stroke="#3EA566" d = " M207 103 L201,105 C201,100.634 202.663,87 197,87 197,87 197,86 197,86 198.861,86 209.893,70 214,70 214,70 217,76.5 217,76.5 217,76.5 217,99 217,99 213.186,99 210.482,103 207,103  Z"/>

<path  fill="#3EA566" stroke-width="0" stroke="#3EA566" d = " M249 103 L255,105 C255,101.446 254.165,87 259,87 259,87 259,86 259,86 259,82.119 243,71.5599 243,70 243,70 242,70 242,70 242,70 240,75.5 240,75.5 240,75.5 240,99 240,99 242.902,99 246.443,103 249,103  Z"/>

<path  fill="#1E9C5A" stroke-width="0" stroke="#1E9C5A" d = " M114 167 C110.929,167 106.771,171 104,171 104,165.887 103,162.902 103,158.5 103,158.5 101,157 101,157 101,145.025 102,137.965 102,128 102,128 103,127 103,127 103,115.062 134.152,91.174 144.5,86 148.396,84.0518 153.502,79 158,79 158,84.6381 157,91.0907 157,99 157,99 157,100 157,100 151.115,100 145.552,106.474 140.5,109 113.921,122.29 114,140.56 114,167  Z"/>

<path  fill="#1E9C5A" stroke-width="0" stroke="#1E9C5A" d = " M342 167 C345.071,167 349.229,171 352,171 352,171 355,157 355,157 355,152.634 357.488,144.476 355,139.5 355,139.5 353,137.5 353,137.5 353,134.711 355,132.873 355,130 355,130 355,128 355,128 355,128 354,127 354,127 354,121.596 345.368,116.236 343,111.5 337.991,101.482 324.815,92.6577 313.5,87 309.565,85.0325 303.397,79 299,79 299,79 299,99 299,99 299,99 299,100 299,100 304.983,100 310.386,106.443 315.5,109 343.557,123.029 342,140.096 342,167  Z"/>

<path  fill="#1D9C5A" stroke-width="0" stroke="#1D9C5A" d = " M163 121 L158,123 C158,117.166 157,108.394 157,100 157,100 157,99 157,99 163.109,99 184.993,87.2536 191.5,84 191.5,84 197,86 197,86 197,86 197,87 197,87 197,87 193,91.5 193,91.5 193,91.5 188,101.5 188,101.5 187.286,102.927 185.109,112 184,112 181.925,112 172,113.307 172,115 170.762,115 169,115.423 169,117 166.756,117 163,118.725 163,121  Z"/>

<path  fill="#1D9C5A" stroke-width="0" stroke="#1D9C5A" d = " M298 124 L299,124 C299,117.75 299,108.987 299,100 299,100 299,99 299,99 289.41,99 273.002,84 264.5,84 264.5,84 259,86 259,86 259,86 259,87 259,87 262.004,87 272,109.445 272,113 272,113 273,113 273,113 273,111.182 279.404,112.452 280.5,113 282.977,114.239 298,121.245 298,124  Z"/>

<path  fill="#3FA664" stroke-width="0" stroke="#3FA664" d = " M187 115 L188,115 C188,112.162 198.448,105 201,105 201,100.634 202.663,87 197,87 197,87 193,91.5 193,91.5 193,91.5 188,101.5 188,101.5 187.286,102.927 185.109,112 184,112 184,112 184,113 184,113 185.238,113 187,113.423 187,115  Z"/>

<path  fill="#3FA664" stroke-width="0" stroke="#3FA664" d = " M268 115 L269,115 C269,113.423 270.762,113 272,113 272,109.445 262.004,87 259,87 254.165,87 255,101.446 255,105 257.974,105 268,112.034 268,115  Z"/>

<path  fill="#187E61" stroke-width="0" stroke="#187E61" d = " M73 163 L77,163 C77,163 77,162 77,162 77,139.855 79.9198,130.66 89,112.5 89.9225,110.655 94.869,102 97,102 97,102 97,101 97,101 97,101 97,93 97,93 92.24,93 87.0242,104.452 85,108.5 73.5411,131.418 73,136.791 73,163  Z"/>

<path  fill="#187E61" stroke-width="0" stroke="#187E61" d = " M379 162 L383,163 C383,163 385,149.5 385,149.5 382.968,145.436 384.972,139.444 383,135.5 378.469,126.438 375.609,116.718 371,107.5 369.631,104.762 364.085,93 360,93 360,95.9706 359,97.7678 359,100 359,100 359,102 359,102 360.619,102 368.031,112.561 369,114.5 377.634,131.768 379,142.264 379,162  Z"/>

<path  fill="#3EA665" stroke-width="0" stroke="#3EA665" d = " M223 97 L222,98 C222,98 223,97 223,97  Z"/>

<path  fill="#40A664" stroke-width="0" stroke="#40A664" d = " M229 147 L233,147 C233,130.819 234,114.629 234,98 231.002,98 226.642,97 223,97 223,97 222,98 222,98 222,98 223,147 223,147 223,147 227,147 227,147 227,147 228,146 228,146 228,139.592 229,141.826 229,147  Z"/>

<path  fill="#3FA566" stroke-width="0" stroke="#3FA566" d = " M219 147 L223,147 C223,147 222,98 222,98 222,98 217,99 217,99 217,115.743 219,130.938 219,147  Z"/>

<path  fill="#3FA566" stroke-width="0" stroke="#3FA566" d = " M233 147 L237,147 C237,131.412 240,114.98 240,99 240,99 234,98 234,98 234,114.629 233,130.819 233,147  Z"/>

<path  fill="#3EA666" stroke-width="0" stroke="#3EA666" d = " M213 147 L219,147 C219,130.938 217,115.743 217,99 213.186,99 210.482,103 207,103 207,112.784 210,122.762 210,133 210,133 209,141 209,141 209,141 209,142 209,142 209,142 213,147 213,147  Z"/>

<path  fill="#3EA666" stroke-width="0" stroke="#3EA666" d = " M237 147 L244,147 C244,147 247,141 247,141 247,141 246,133 246,133 246,133 249,103 249,103 246.443,103 242.902,99 240,99 240,114.98 237,131.412 237,147  Z"/>

<path  fill="#1F9B5A" stroke-width="0" stroke="#1F9B5A" d = " M136 156 C128.634,156 121.838,167 114,167 114,140.56 113.921,122.29 140.5,109 145.552,106.474 151.115,100 157,100 157,108.394 158,117.166 158,123 158,123 158,124 158,124 154.683,124 152.437,130.032 150.5,131 143.866,134.317 136,145.623 136,155 136,155 136,156 136,156  Z"/>

<path  fill="#1F9B5A" stroke-width="0" stroke="#1F9B5A" d = " M321 156 C326.008,156 335.518,167 342,167 342,140.096 343.557,123.029 315.5,109 310.386,106.443 304.983,100 299,100 299,108.987 299,117.75 299,124 299,124 308.5,133 308.5,133 314.238,138.738 321,146.469 321,155 321,155 321,156 321,156  Z"/>

<path  fill="#1A7E64" stroke-width="0" stroke="#1A7E64" d = " M89 159 C84.3816,159 82.2429,162 77,162 77,139.855 79.9198,130.66 89,112.5 89.9225,110.655 94.869,102 97,102 97,108.045 99,112.033 99,119 99,119 91,135.5 91,135.5 87.714,142.072 89,152.246 89,159  Z"/>

<path  fill="#1A7E64" stroke-width="0" stroke="#1A7E64" d = " M368 160 L379,162 C379,142.264 377.634,131.768 369,114.5 368.031,112.561 360.619,102 359,102 359,108.362 357,111.527 357,118 357,118 365,134.5 365,134.5 368.227,140.955 368,151.323 368,159 368,159 368,160 368,160  Z"/>

<path  fill="#2EA84F" stroke-width="0" stroke="#2EA84F" d = " M210 133 L206,134 C206,134 203,124.5 203,124.5 201.857,122.213 201,107.915 201,105 201,105 207,103 207,103 207,112.784 210,122.762 210,133  Z"/>

<path  fill="#2EA84F" stroke-width="0" stroke="#2EA84F" d = " M246 133 L251,134 C251,124.43 255,115.511 255,105 255,105 249,103 249,103 249,103 246,133 246,133  Z"/>

<path  fill="#2FA850" stroke-width="0" stroke="#2FA850" d = " M206 135 L199,137 C199,134.691 189.444,115 188,115 188,112.162 198.448,105 201,105 201,107.915 201.857,122.213 203,124.5 203,124.5 206,134 206,134 206,134 206,135 206,135  Z"/>

<path  fill="#2FA850" stroke-width="0" stroke="#2FA850" d = " M259 135 L257,137 C255.026,137 253.483,135 251,135 251,135 251,134 251,134 251,124.43 255,115.511 255,105 257.974,105 268,112.034 268,115 268,117.103 259,128.77 259,135  Z"/>

<path  fill="#1E9C58" stroke-width="0" stroke="#1E9C58" d = " M184 114 C180.146,114 176.597,115 172,115 172,113.307 181.925,112 184,112 184,112 184,113 184,113 184,113 184,114 184,114  Z"/>

<path  fill="#1E9C58" stroke-width="0" stroke="#1E9C58" d = " M298 124 L299,126 C295.136,126 292.249,119 288,119 288,115.381 275.757,113 273,113 273,111.182 279.404,112.452 280.5,113 282.977,114.239 298,121.245 298,124  Z"/>

<path  fill="#CACCC7" stroke-width="0" stroke="#CACCC7" d = " M202 147 C202,148.35 203.977,157 201,157 201,148.207 192.265,122.883 184.5,119 184.5,119 172,120 172,120 172,120 168,119 168,119 168,119 169,117 169,117 170.238,117 172,116.577 172,115 176.597,115 180.146,114 184,114 184,114 187,115 187,115 187,115 191,120.5 191,120.5 191,120.5 195,132.5 195,132.5 195,132.5 198,137 198,137 198,138.402 199.11,143 201,143 201,143 202,147 202,147  Z"/>

<path  fill="#3FA466" stroke-width="0" stroke="#3FA466" d = " M184 114 L187,115 C187,113.423 185.238,113 184,113 184,113 184,114 184,114  Z"/>

<path  fill="#3FA466" stroke-width="0" stroke="#3FA466" d = " M269 115 L269,116 C269,116 273,113 273,113 273,113 272,113 272,113 270.762,113 269,113.423 269,115  Z"/>

<path  fill="#CACCC7" stroke-width="0" stroke="#CACCC7" d = " M254 147 C254,148.574 253.249,156 255,156 257.064,156 255.426,152.647 256,151.5 256,151.5 261,135.5 261,135.5 269.837,117.827 266.307,120 285,120 285,120 288,119 288,119 288,115.381 275.757,113 273,113 273,113 269,116 269,116 269,116 266,119.5 266,119.5 264.931,121.637 260.577,135 259,135 259,135 258,137 258,137 258,138.357 257.353,143 256,143 256,143 254,147 254,147  Z"/>

<path  fill="#1E9C58" stroke-width="0" stroke="#1E9C58" d = " M172 115 C170.762,115 169,115.423 169,117 170.238,117 172,116.577 172,115  Z"/>

<path  fill="#2FA84F" stroke-width="0" stroke="#2FA84F" d = " M198 137 L199,137 C199,134.691 189.444,115 188,115 188,115 187,115 187,115 187,115 191,120.5 191,120.5 191,120.5 195,132.5 195,132.5 195,132.5 198,137 198,137  Z"/>

<path  fill="#2FA84F" stroke-width="0" stroke="#2FA84F" d = " M269 116 L266,119.5 C264.931,121.637 260.577,135 259,135 259,128.77 268,117.103 268,115 268,115 269,115 269,115 269,115 269,116 269,116  Z"/>

<path  fill="#1E9C58" stroke-width="0" stroke="#1E9C58" d = " M168 119 L163,121 C163,118.725 166.756,117 169,117 169,117 168,119 168,119  Z"/>

<path  fill="#1B7F62" stroke-width="0" stroke="#1B7F62" d = " M363 158 L368,159 C368,151.323 368.227,140.955 365,134.5 365,134.5 357,118 357,118 355.348,118 355,126.072 355,127 355,127 355,128 355,128 355,128 355,130 355,130 357.162,130 357.284,136.067 358,137.5 360.601,142.703 363,152.004 363,158  Z"/>

<path  fill="#1B7F62" stroke-width="0" stroke="#1B7F62" d = " M93 158 L89,159 C89,152.246 87.714,142.072 91,135.5 91,135.5 99,119 99,119 101.055,119 99.9448,127 102,127 102,127 102,128 102,128 99.9671,128 99.7393,135.021 99,136.5 96.2778,141.944 93,151.79 93,158  Z"/>

<path  fill="#C9C9CA" stroke-width="0" stroke="#C9C9CA" d = " M139 154 C139,158.284 140,163.371 140,167 141.784,167 141,156.366 141,154.5 141,148.97 144.687,144.127 147,139.5 149.876,133.748 160.38,126.56 165.5,124 166.78,123.36 172,121.615 172,120 172,120 168,119 168,119 168,119 163,121 163,121 163,122.976 160.124,125 158,125 158,125 149,134.5 149,134.5 143.433,140.067 139,146.075 139,154  Z"/>

<path  fill="#CAC7CC" stroke-width="0" stroke="#CAC7CC" d = " M141 171 L142,171 C142,171 145,170 145,170 145,163.007 139.329,148.586 150.5,143 162.284,137.108 182.944,136.388 190,150.5 191.578,153.656 195,156.242 195,160 196.631,160 199.369,160 201,160 201,160 201,157 201,157 201,148.207 192.265,122.883 184.5,119 184.5,119 172,120 172,120 172,121.615 166.78,123.36 165.5,124 160.38,126.56 149.876,133.748 147,139.5 144.687,144.127 141,148.97 141,154.5 141,156.366 141.784,167 140,167 140,167 141,171 141,171  Z"/>

<path  fill="#CAC7CC" stroke-width="0" stroke="#CAC7CC" d = " M311 170 L315,171 C315,171 316,167 316,167 316,153.431 314.093,143.593 304.5,134 304.5,134 285,120 285,120 266.307,120 269.837,117.827 261,135.5 261,135.5 256,151.5 256,151.5 255.426,152.647 257.064,156 255,156 255,156 255,160 255,160 256.564,160 258.876,161 261,161 261,144.2 288.626,134.063 302.5,141 309.361,144.43 317.218,157.063 313,165.5 313,165.5 311,170 311,170  Z"/>

<path  fill="#C9C9CA" stroke-width="0" stroke="#C9C9CA" d = " M318 154 C318,156.312 318.379,167 316,167 316,153.431 314.093,143.593 304.5,134 304.5,134 285,120 285,120 285,120 288,119 288,119 292.249,119 295.136,126 299,126 299,126 305,131.5 305,131.5 308.391,138.282 318,143.474 318,154  Z"/>

<path  fill="#1E9C58" stroke-width="0" stroke="#1E9C58" d = " M158 124 L158,125 C160.124,125 163,122.976 163,121 163,121 158,123 158,123 158,123 158,124 158,124  Z"/>

<path  fill="#1D9D5A" stroke-width="0" stroke="#1D9D5A" d = " M139 154 L136,155 C136,145.623 143.866,134.317 150.5,131 152.437,130.032 154.683,124 158,124 158,124 158,125 158,125 158,125 149,134.5 149,134.5 143.433,140.067 139,146.075 139,154  Z"/>

<path  fill="#1D9D5A" stroke-width="0" stroke="#1D9D5A" d = " M318 154 L321,155 C321,146.469 314.238,138.738 308.5,133 308.5,133 299,124 299,124 299,124 298,124 298,124 298,124 299,126 299,126 299,126 305,131.5 305,131.5 308.391,138.282 318,143.474 318,154  Z"/>

<path  fill="#1B7E63" stroke-width="0" stroke="#1B7E63" d = " M103 127 L102,128 C102,128 102,127 102,127 102,127 103,127 103,127  Z"/>

<path  fill="#1B7E63" stroke-width="0" stroke="#1B7E63" d = " M355 127 L355,128 C355,128 354,127 354,127 354,127 355,127 355,127  Z"/>

<path  fill="#1B7E63" stroke-width="0" stroke="#1B7E63" d = " M101 157 L93,158 C93,151.79 96.2778,141.944 99,136.5 99.7393,135.021 99.9671,128 102,128 102,137.965 101,145.025 101,157  Z"/>

<path  fill="#1B7E63" stroke-width="0" stroke="#1B7E63" d = " M355 157 L363,158 C363,152.004 360.601,142.703 358,137.5 357.284,136.067 357.162,130 355,130 355,132.873 353,134.711 353,137.5 353,137.5 355,139.5 355,139.5 357.488,144.476 355,152.634 355,157  Z"/>

<path  fill="#59B262" stroke-width="0" stroke="#59B262" d = " M206 135 L209,141 C209,141 210,133 210,133 210,133 206,134 206,134 206,134 206,135 206,135  Z"/>

<path  fill="#59B262" stroke-width="0" stroke="#59B262" d = " M247 141 L248,141 C248,141 251,135 251,135 251,135 251,134 251,134 251,134 246,133 246,133 246,133 247,141 247,141  Z"/>

<path  fill="#58B362" stroke-width="0" stroke="#58B362" d = " M202 147 L205,147 C205,146.008 208.159,142 209,142 209,142 209,141 209,141 209,141 206,135 206,135 206,135 199,137 199,137 199,138.714 201,140.482 201,143 201,143 202,147 202,147  Z"/>

<path  fill="#58B362" stroke-width="0" stroke="#58B362" d = " M251 147 L254,147 C254,147 256,143 256,143 256,140.99 257,139.488 257,137 255.026,137 253.483,135 251,135 251,135 248,141 248,141 248,141 251,147 251,147  Z"/>

<path  fill="#2FA84F" stroke-width="0" stroke="#2FA84F" d = " M257 137 L258,137 C258,137 259,135 259,135 259,135 257,137 257,137  Z"/>

<path  fill="#58B263" stroke-width="0" stroke="#58B263" d = " M199 137 C199,138.714 201,140.482 201,143 199.11,143 198,138.402 198,137 198,137 199,137 199,137  Z"/>

<path  fill="#58B263" stroke-width="0" stroke="#58B263" d = " M258 137 C258,138.357 257.353,143 256,143 256,140.99 257,139.488 257,137 257,137 258,137 258,137  Z"/>

<path  fill="#98D5F9" stroke-width="0" stroke="#98D5F9" d = " M153 212 C154.353,212 155.158,215 158,215 158,208.034 183.263,195.618 188.5,193 188.5,193 194,187 194,187 194,187 196,183 196,183 196,175.381 195,166.965 195,160 195,156.242 191.578,153.656 190,150.5 182.944,136.388 162.284,137.108 150.5,143 139.329,148.586 145,163.007 145,170 145,170 151,181.5 151,181.5 152.751,185.002 151,188.29 151,192 151,192 152,204 152,204 152,204 153,211 153,211 153,211 153,212 153,212  Z"/>

<path  fill="#98D5F9" stroke-width="0" stroke="#98D5F9" d = " M303 213 L299,215 C299,213.661 280.592,198.046 278.5,197 278.5,197 269.5,194 269.5,194 269.5,194 262,187 262,187 262,185.959 261.014,182 260,182 260,182 261,161 261,161 261,144.2 288.626,134.063 302.5,141 309.361,144.43 317.218,157.063 313,165.5 313,165.5 311,170 311,170 311,173.179 305,181.261 305,191 305,194.843 305,198.451 305,203 303.516,203 303,211.263 303,213  Z"/>

<path  fill="#40A564" stroke-width="0" stroke="#40A564" d = " M244 147 L251,147 C251,147 248,141 248,141 248,141 247,141 247,141 247,141 244,147 244,147  Z"/>

<path  fill="#40A564" stroke-width="0" stroke="#40A564" d = " M205 147 L213,147 C213,147 209,142 209,142 208.159,142 205,146.008 205,147  Z"/>

<path  fill="#99D2BD" stroke-width="0" stroke="#99D2BD" d = " M227 147 C227,148.048 226.527,150 228,150 228,150 228,146 228,146 228,146 227,147 227,147  Z"/>

<path  fill="#A3DAA3" stroke-width="0" stroke="#A3DAA3" d = " M226 166 C219.097,166 211.228,167 205,167 203.199,167 201,161.385 201,160 201,160 201,157 201,157 203.977,157 202,148.35 202,147 202,147 205,147 205,147 205,147 213,147 213,147 213,147 219,147 219,147 219,147 223,147 223,147 223,147 227,147 227,147 227,148.048 226.527,150 228,150 228,150 228,154 228,154 227.241,154 226,164.821 226,166  Z"/>

<path  fill="#A3DAA3" stroke-width="0" stroke="#A3DAA3" d = " M231 166 C237.573,166 245.1,167 251,167 253.767,167 255,162.025 255,160 255,160 255,156 255,156 253.249,156 254,148.574 254,147 254,147 251,147 251,147 251,147 244,147 244,147 244,147 237,147 237,147 237,147 233,147 233,147 233,147 229,147 229,147 229,147 229,159 229,159 229,161.833 231,163.84 231,166  Z"/>

<path  fill="#1F9766" stroke-width="0" stroke="#1F9766" d = " M141 171 C141,172.747 140.747,173 139,173 139,169.931 136,162.468 136,156 136,156 136,155 136,155 136,155 139,154 139,154 139,158.284 140,163.371 140,167 140,167 141,171 141,171  Z"/>

<path  fill="#99D2BD" stroke-width="0" stroke="#99D2BD" d = " M226 166 C228.834,166 227.382,171 228.5,171 229.959,171 227.526,166 231,166 231,163.84 229,161.833 229,159 227.357,159 228,155.235 228,154 227.241,154 226,164.821 226,166  Z"/>

<path  fill="#1F9766" stroke-width="0" stroke="#1F9766" d = " M317 173 L318,173 C318,167.365 321,162.332 321,156 321,156 321,155 321,155 321,155 318,154 318,154 318,156.312 318.379,167 316,167 316,167 315,171 315,171 315,171 315,172 315,172 315,172 317,173 317,173  Z"/>

<path  fill="#209666" stroke-width="0" stroke="#209666" d = " M129 185 L125,188 C125,182.926 114,176.33 114,167 121.838,167 128.634,156 136,156 136,162.468 139,169.931 139,173 136.771,173 136.529,171.014 134.5,170 129.658,167.579 122.502,175.503 125,180.5 125,180.5 129,185 129,185  Z"/>

<path  fill="#209666" stroke-width="0" stroke="#209666" d = " M331 188 L332,188 C332,182.945 342,177.11 342,167 335.518,167 326.008,156 321,156 321,162.332 318,167.365 318,173 318,173 321.5,170 321.5,170 325.079,168.211 334.153,174.193 332,178.5 332,178.5 327,185 327,185 327,185 331,188 331,188  Z"/>

<path  fill="#019C75" stroke-width="0" stroke="#019C75" d = " M104 171 C100.386,171 97.1009,175 93,175 93,175 93,158 93,158 93,158 101,157 101,157 101,157 103,158.5 103,158.5 103,162.902 104,165.887 104,171  Z"/>

<path  fill="#019C75" stroke-width="0" stroke="#019C75" d = " M352 171 L364,176 C364,176 363,158 363,158 363,158 355,157 355,157 355,157 352,171 352,171  Z"/>

<path  fill="#009C74" stroke-width="0" stroke="#009C74" d = " M92 176 L93,176 C93,176 93,175 93,175 93,175 93,158 93,158 93,158 89,159 89,159 89,162.087 90.1719,176 92,176  Z"/>

<path  fill="#009C74" stroke-width="0" stroke="#009C74" d = " M364 176 L365,176 C365,171.162 368,165.036 368,160 368,160 368,159 368,159 368,159 363,158 363,158 363,158 364,176 364,176  Z"/>

<path  fill="#009B75" stroke-width="0" stroke="#009B75" d = " M92 176 C92,177.208 82.6374,181 81,181 81,175.319 77,168.869 77,163 77,163 77,162 77,162 82.2429,162 84.3816,159 89,159 89,162.087 90.1719,176 92,176  Z"/>

<path  fill="#99D2BD" stroke-width="0" stroke="#99D2BD" d = " M211 188 C208.979,188 207.106,183.697 204.5,185 201.712,186.394 202.433,190 199,190 199,190 198,188 198,188 198,187.329 196.672,183 196,183 196,175.381 195,166.965 195,160 196.631,160 199.369,160 201,160 201,161.385 203.199,167 205,167 205,175.599 211,182.039 211,188  Z"/>

<path  fill="#99D2BD" stroke-width="0" stroke="#99D2BD" d = " M245 189 C247.319,189 248.583,183.542 251.5,185 L257,190 C257,190 259,187 259,187 259,187 260,182 260,182 260,182 261,161 261,161 258.876,161 256.564,160 255,160 255,162.025 253.767,167 251,167 251,167 252,172.5 252,172.5 252,172.5 245,189 245,189  Z"/>

<path  fill="#009B75" stroke-width="0" stroke="#009B75" d = " M375 181 L376,181 C376,174.434 379,168.837 379,162 379,162 368,160 368,160 368,165.036 365,171.162 365,176 365,177.742 373.352,181 375,181  Z"/>

<path  fill="#009C75" stroke-width="0" stroke="#009C75" d = " M376 181 L379,182 C379.843,182 381,178.354 381,177.5 381,172.243 383,168.569 383,163 383,163 379,162 379,162 379,168.837 376,174.434 376,181  Z"/>

<path  fill="#009C75" stroke-width="0" stroke="#009C75" d = " M81 181 L77,182 C77,175.955 73,169.547 73,163 73,163 77,163 77,163 77,168.869 81,175.319 81,181  Z"/>

<path  fill="#61D09F" stroke-width="0" stroke="#61D09F" d = " M241 192 L239,193 C239,193 230.5,193 230.5,193 229.211,192.356 228.905,188 228.5,188 228.5,188 226.5,193 226.5,193 222.309,195.096 217.138,191 214,191 214,191 211,188 211,188 211,182.039 205,175.599 205,167 211.228,167 219.097,166 226,166 228.834,166 227.382,171 228.5,171 229.959,171 227.526,166 231,166 237.573,166 245.1,167 251,167 251,167 252,172.5 252,172.5 252,172.5 245,189 245,189 245,189 241,192 241,192  Z"/>

<path  fill="#209665" stroke-width="0" stroke="#209665" d = " M125 189 C117.708,189 108.319,198 99,198 99,195.359 93,185.496 93,176 93,176 93,175 93,175 97.1009,175 100.386,171 104,171 106.771,171 110.929,167 114,167 114,176.33 125,182.926 125,188 125,188 125,189 125,189  Z"/>

<path  fill="#209665" stroke-width="0" stroke="#209665" d = " M357 198 L358,198 C358,192.937 364,183.676 364,176 364,176 352,171 352,171 349.229,171 345.071,167 342,167 342,177.11 332,182.945 332,188 332,190.659 353.291,198 357,198  Z"/>

<path  fill="#8ADA86" stroke-width="0" stroke="#8ADA86" d = " M141 176 L146,183.5 C149.615,190.731 140.49,193.495 135.5,191 L129,185 C129,185 125,180.5 125,180.5 122.502,175.503 129.658,167.579 134.5,170 136.529,171.014 136.771,173 139,173 139,175.215 141,174.519 141,176  Z"/>

<path  fill="#C8CBCC" stroke-width="0" stroke="#C8CBCC" d = " M151 192 L146,194 C146,190.812 147.726,191.048 149,188.5 150.01,186.48 144.7,175 143,175 143,175 142,171 142,171 142,171 145,170 145,170 145,170 151,181.5 151,181.5 152.751,185.002 151,188.29 151,192  Z"/>

<path  fill="#C8CBCC" stroke-width="0" stroke="#C8CBCC" d = " M305 191 L311,194 C311,191.253 307,189.894 307,187.5 307,186.037 312.041,175 313,175 313,173.762 313.423,172 315,172 315,172 315,171 315,171 315,171 311,170 311,170 311,173.179 305,181.261 305,191  Z"/>

<path  fill="#8ADA86" stroke-width="0" stroke="#8ADA86" d = " M315 176 L310,184.5 C306.158,192.185 317.689,192.905 321.5,191 L327,185 C327,185 332,178.5 332,178.5 334.153,174.193 325.079,168.211 321.5,170 321.5,170 318,173 318,173 318,173 317,174 317,174 317,174 315,176 315,176  Z"/>

<path  fill="#219665" stroke-width="0" stroke="#219665" d = " M143 175 L141,176 C141,174.519 139,175.215 139,173 140.747,173 141,172.747 141,171 141,171 142,171 142,171 142,171 143,175 143,175  Z"/>

<path  fill="#219665" stroke-width="0" stroke="#219665" d = " M313 175 L315,176 C315,176 317,174 317,174 317,174 317,173 317,173 317,173 315,172 315,172 313.423,172 313,173.762 313,175  Z"/>

<path  fill="#209666" stroke-width="0" stroke="#209666" d = " M318 173 L317,174 C317,174 317,173 317,173 317,173 318,173 318,173  Z"/>

<path  fill="#1F9866" stroke-width="0" stroke="#1F9866" d = " M142 199 L135,204 C135,204 125,189 125,189 125,189 125,188 125,188 125,188 129,185 129,185 129,185 135.5,191 135.5,191 140.49,193.495 149.615,190.731 146,183.5 146,183.5 141,176 141,176 141,176 143,175 143,175 144.7,175 150.01,186.48 149,188.5 147.726,191.048 146,190.812 146,194 145.172,194 142,197.748 142,199  Z"/>

<path  fill="#1F9866" stroke-width="0" stroke="#1F9866" d = " M314 199 C315.865,199 321,202.657 321,204 322.131,204 331,189.723 331,188 331,188 327,185 327,185 327,185 321.5,191 321.5,191 317.689,192.905 306.158,192.185 310,184.5 310,184.5 315,176 315,176 315,176 313,175 313,175 312.041,175 307,186.037 307,187.5 307,189.894 311,191.253 311,194 311,195.947 314,196.636 314,199  Z"/>

<path  fill="#209765" stroke-width="0" stroke="#209765" d = " M88 202 L89,202 C89,200.261 97.1256,199 99,199 99,199 99,198 99,198 99,195.359 93,185.496 93,176 93,176 92,176 92,176 92,177.208 82.6374,181 81,181 81,188.552 88,195.058 88,202  Z"/>

<path  fill="#209765" stroke-width="0" stroke="#209765" d = " M358 198 C358,198.567 366.99,202 368,202 368,197.369 375,188.604 375,181 373.352,181 365,177.742 365,176 365,176 364,176 364,176 364,183.676 358,192.937 358,198  Z"/>

<path  fill="#209764" stroke-width="0" stroke="#209764" d = " M88 202 L85,203 C83.2421,203 77,185.002 77,182 77,182 81,181 81,181 81,188.552 88,195.058 88,202  Z"/>

<path  fill="#209764" stroke-width="0" stroke="#209764" d = " M368 202 L371,203 C373.597,203 379,185.339 379,182 379,182 376,181 376,181 376,181 375,181 375,181 375,188.604 368,197.369 368,202  Z"/>

<path  fill="#97D6F9" stroke-width="0" stroke="#97D6F9" d = " M259 187 L262,187 C262,185.959 261.014,182 260,182 260,182 259,187 259,187  Z"/>

<path  fill="#97D6F9" stroke-width="0" stroke="#97D6F9" d = " M194 187 L198,188 C198,187.329 196.672,183 196,183 196,183 194,187 194,187  Z"/>

<path  fill-rule="evenodd" fill="#97D6F9" stroke-width="0" stroke="#97D6F9" d = " M246 195 C246,197.71 234.845,213.673 241.5,217 242.709,217.604 244.53,213.439 245,212.5 246.52,209.46 251.302,195 246,195  M208 195 C208,201.205 209.42,207.34 212,212.5 212.431,213.362 213.451,218.025 215.5,217 220.005,214.747 212.852,195 208,195  M222 257 C222.341,257 225.317,245.866 226,244.5 226.383,243.735 226.905,240.202 228.5,241 231.471,242.485 233,250.109 233,253 233,254.041 233.986,258 235,258 235,253.435 237,248.516 237,246 237,243.755 237.874,233 242,233 242,221.49 246.195,209.11 251,199.5 252.539,196.423 257,193.616 257,190 257,190 251.5,185 251.5,185 248.583,183.542 247.319,189 245,189 245,189 241,192 241,192 241,192 239,193 239,193 239,194.573 233.838,196.669 232.5,196 231.009,195.255 230.167,193 228.5,193 228.5,193 224.5,196 224.5,196 222.446,197.027 214,193.018 214,191 214,191 211,188 211,188 208.979,188 207.106,183.697 204.5,185 201.712,186.394 202.433,190 199,190 199,190 206,201.5 206,201.5 210.432,210.365 215,222.475 215,233 217.776,233 220.79,246 219,246 219,249.322 222,252.616 222,257  Z"/>

<path  fill-rule="evenodd" fill="#80CDF8" stroke-width="0" stroke="#80CDF8" d = " M174 210 C174,210.403 168.731,216.038 168,217.5 165.873,221.754 172.656,226.922 176.5,225 182.303,222.098 181.302,210 174,210  M215 233 C215,257.998 189.232,266.866 169.5,257 166.848,255.674 163.196,252.893 162,250.5 161.535,249.57 161.183,246 160,246 160,242.259 163.495,219 158,219 158,217.467 158,216.905 158,215 158,208.034 183.263,195.618 188.5,193 188.5,193 194,187 194,187 194,187 198,188 198,188 198,188 199,190 199,190 199,190 206,201.5 206,201.5 210.432,210.365 215,222.475 215,233  Z"/>

<path  fill-rule="evenodd" fill="#80CDF8" stroke-width="0" stroke="#80CDF8" d = " M280 210 C280,210.276 276.571,214.357 276,215.5 L277,218.5 C277.877,220.255 277.279,223.889 279.5,225 283.119,226.809 291.049,221.599 289,217.5 287.966,215.431 285.712,213.923 285,212.5 284.02,210.541 282.599,210 280,210  M242 233 C242,246.426 249.178,255.339 260.5,261 269.223,265.361 296,255.675 296,246 296,243.769 298.386,239.272 297,236.5 295.68,233.86 293.24,227.02 295,223.5 295,223.5 299,218 299,218 299,218 299,215 299,215 299,213.661 280.592,198.046 278.5,197 278.5,197 269.5,194 269.5,194 269.5,194 262,187 262,187 262,187 259,187 259,187 259,187 257,190 257,190 257,193.616 252.539,196.423 251,199.5 246.195,209.11 242,221.49 242,233  Z"/>

<path  fill="#99D2BD" stroke-width="0" stroke="#99D2BD" d = " M214 191 C217.138,191 222.309,195.096 226.5,193 L228.5,188 C228.905,188 229.211,192.356 230.5,193 L239,193 C239,194.573 233.838,196.669 232.5,196 231.009,195.255 230.167,193 228.5,193 228.5,193 224.5,196 224.5,196 222.446,197.027 214,193.018 214,191  Z"/>

<path  fill="#1F9865" stroke-width="0" stroke="#1F9865" d = " M329 208 L337,210 C337,210 341.5,206 341.5,206 344.438,204.531 357,202.99 357,198 353.291,198 332,190.659 332,188 332,188 331,188 331,188 331,189.723 322.131,204 321,204 321,204 322,205 322,205 322.978,205 329,207.267 329,208  Z"/>

<path  fill="#1F9865" stroke-width="0" stroke="#1F9865" d = " M127 208 L119,210 C119,210 116.5,207 116.5,207 116.5,207 104.5,203 104.5,203 102.074,201.787 101.469,199 99,199 99,199 99,198 99,198 108.319,198 117.708,189 125,189 125,189 135,204 135,204 135,204 134,205 134,205 134,205 129,207 129,207 129,207 128,207 128,207 128,207 127,208 127,208  Z"/>

<path  fill="#8AD987" stroke-width="0" stroke="#8AD987" d = " M305 209 L305,210 C307.261,210 305.297,203.906 306,202.5 307.89,198.72 309.907,199 314,199 314,196.636 311,195.947 311,194 311,194 305,191 305,191 305,194.843 305,198.451 305,203 305,203 305,209 305,209  Z"/>

<path  fill="#8AD987" stroke-width="0" stroke="#8AD987" d = " M151 207 L151,208 C149.813,208 149.605,200.71 149,199.5 149,199.5 142,199 142,199 142,197.748 145.172,194 146,194 146,194 151,192 151,192 151,192 152,204 152,204 150.527,204 151,205.952 151,207  Z"/>

<path  fill="#99D2BD" stroke-width="0" stroke="#99D2BD" d = " M241 192 L239,193 C239,193 241,192 241,192  Z"/>

<path  fill="#90CAED" stroke-width="0" stroke="#90CAED" d = " M208 195 C208,201.205 209.42,207.34 212,212.5 212.431,213.362 213.451,218.025 215.5,217 220.005,214.747 212.852,195 208,195  Z"/>

<path  fill="#90CAED" stroke-width="0" stroke="#90CAED" d = " M246 195 C246,197.71 234.845,213.673 241.5,217 242.709,217.604 244.53,213.439 245,212.5 246.52,209.46 251.302,195 246,195  Z"/>

<path  fill="#219764" stroke-width="0" stroke="#219764" d = " M337 210 C337,212.064 340.353,210.426 341.5,211 345.928,213.214 352.808,215 358,215 358,210.619 368,206.774 368,202 366.99,202 358,198.567 358,198 358,198 357,198 357,198 357,202.99 344.438,204.531 341.5,206 341.5,206 337,210 337,210  Z"/>

<path  fill="#219764" stroke-width="0" stroke="#219764" d = " M119 210 C119,212.064 115.647,210.426 114.5,211 110.072,213.214 103.192,215 98,215 98,210.561 89,207.466 89,202 89,200.261 97.1256,199 99,199 101.469,199 102.074,201.787 104.5,203 104.5,203 116.5,207 116.5,207 116.5,207 119,210 119,210  Z"/>

<path  fill="#A0EE9C" stroke-width="0" stroke="#A0EE9C" d = " M143 225 L144,225 C144,225 151.5,228 151.5,228 153.271,228.886 161.563,227.626 160,224.5 156.804,218.109 151,215.888 151,208 149.813,208 149.605,200.71 149,199.5 149,199.5 142,199 142,199 142,199 135,204 135,204 135,204 134,205 134,205 134,206.429 132.712,209 131,209 131,209 131,211 131,211 131,211 131,214 131,214 131,214 131,216 131,216 131,216 136,221 136,221 136,221 137,221 137,221 137,221 139,223 139,223 139,223 140,223 140,223 140,223 143,225 143,225  Z"/>

<path  fill="#A0EE9C" stroke-width="0" stroke="#A0EE9C" d = " M311 226 L309,227 C307.036,227 293.628,230.244 297,223.5 298.701,220.098 303,219.162 303,215 303,215 304,213 304,213 305.473,213 305,211.048 305,210 307.261,210 305.297,203.906 306,202.5 307.89,198.72 309.907,199 314,199 315.865,199 321,202.657 321,204 321,204 322,205 322,205 322,206.863 325,210.792 325,215 325,215 325,216 325,216 325,216 324,217 324,217 324,217 323,219 323,219 323,219 322,219 322,219 322,219 321,220 321,220 321,220 320,221 320,221 320,221 319,221 319,221 319,221 318,222 318,222 318,222 317,223 317,223 317,223 316,223 316,223 316,223 315,224 315,224 315,224 313,225 313,225 313,225 311,226 311,226  Z"/>

<path  fill="#209864" stroke-width="0" stroke="#209864" d = " M98 215 L94,217 C92.0954,217 85,205.111 85,203 85,203 88,202 88,202 88,202 89,202 89,202 89,207.466 98,210.561 98,215  Z"/>

<path  fill="#209864" stroke-width="0" stroke="#209864" d = " M358 215 L363,216 C365.486,216 371,205.291 371,203 371,203 368,202 368,202 368,206.774 358,210.619 358,215  Z"/>

<path  fill="#97D6F9" stroke-width="0" stroke="#97D6F9" d = " M303 213 L304,213 C304,211.855 303.421,209 305,209 305,209 305,203 305,203 303.516,203 303,211.263 303,213  Z"/>

<path  fill="#97D6F9" stroke-width="0" stroke="#97D6F9" d = " M151 207 L153,211 C153,211 152,204 152,204 150.527,204 151,205.952 151,207  Z"/>

<path  fill="#99D2BD" stroke-width="0" stroke="#99D2BD" d = " M129 207 L131,209 C132.712,209 134,206.429 134,205 134,205 129,207 129,207  Z"/>

<path  fill="#99D2BD" stroke-width="0" stroke="#99D2BD" d = " M329 208 C323.633,208 327.727,215 325,215 325,210.792 322,206.863 322,205 322.978,205 329,207.267 329,208  Z"/>

<path  fill="#99D2BD" stroke-width="0" stroke="#99D2BD" d = " M128 207 L127,208 C127,208 128,207 128,207  Z"/>

<path  fill="#6ACAB9" stroke-width="0" stroke="#6ACAB9" d = " M135 256 L137,256 C137,254.183 144.169,252 146,252 146,252 147,251 147,251 147,251 148,251 148,251 148,246.133 158.442,242.384 155,235.5 153.457,232.414 144,227.211 144,225 144,225 143,225 143,225 141.762,225 140,224.577 140,223 140,223 139,223 139,223 139,223 137,221 137,221 137,221 136,221 136,221 136,221 131,216 131,216 131,216 131,214 131,214 129.514,214 129.514,211 131,211 131,211 131,209 131,209 131,209 129,207 129,207 129,207 128,207 128,207 128,207 127,208 127,208 127,208 119,210 119,210 119,212.064 115.647,210.426 114.5,211 110.072,213.214 103.192,215 98,215 98,215 94,217 94,217 94,222.393 106.829,243 113,243 117.202,243 135,250.726 135,256  Z"/>

<path  fill="#99D2BD" stroke-width="0" stroke="#99D2BD" d = " M148 251 L149,251 C149,251 160,246 160,246 160,242.259 163.495,219 158,219 155.575,219 153,213.884 153,212 153,212 153,211 153,211 153,211 151,207 151,207 151,207 151,208 151,208 151,215.888 156.804,218.109 160,224.5 161.563,227.626 153.271,228.886 151.5,228 151.5,228 144,225 144,225 144,227.211 153.457,232.414 155,235.5 158.442,242.384 148,246.133 148,251  Z"/>

<path  fill="#6ACAB9" stroke-width="0" stroke="#6ACAB9" d = " M320 256 L321,256 C321,250.344 340.71,243 344,243 344,243 352,235.5 352,235.5 357.006,230.494 363,222.949 363,216 363,216 358,215 358,215 352.808,215 345.928,213.214 341.5,211 340.353,210.426 337,212.064 337,210 337,210 329,208 329,208 323.633,208 327.727,215 325,215 325,215 325,216 325,216 325,216 324,217 324,217 324,217 323,219 323,219 323,219 322,219 322,219 322,219 321,220 321,220 321,220 320,221 320,221 320,221 319,221 319,221 319,221 318,222 318,222 318,222 317,223 317,223 317,223 316,223 316,223 316,223 315,224 315,224 315,224 313,225 313,225 313,225 311,226 311,226 311,226 309,227 309,227 309,231.356 298.005,234.51 301,240.5 302.62,243.74 304.676,246.176 307.5,249 307.5,249 311,252 311,252 314.47,252 317.007,256 320,256  Z"/>

<path  fill="#99D2BD" stroke-width="0" stroke="#99D2BD" d = " M305 210 C305,211.048 305.473,213 304,213 304,211.855 303.421,209 305,209 305,209 305,210 305,210  Z"/>

<path  fill="#CBCBC7" stroke-width="0" stroke="#CBCBC7" d = " M174 210 C174,210.403 168.731,216.038 168,217.5 165.873,221.754 172.656,226.922 176.5,225 182.303,222.098 181.302,210 174,210  Z"/>

<path  fill="#CBCBC7" stroke-width="0" stroke="#CBCBC7" d = " M280 210 C280,210.276 276.571,214.357 276,215.5 L277,218.5 C277.877,220.255 277.279,223.889 279.5,225 283.119,226.809 291.049,221.599 289,217.5 287.966,215.431 285.712,213.923 285,212.5 284.02,210.541 282.599,210 280,210  Z"/>

<path  fill="#99D2BD" stroke-width="0" stroke="#99D2BD" d = " M131 211 C129.514,211 129.514,214 131,214 131,214 131,211 131,211  Z"/>

<path  fill="#97D6F9" stroke-width="0" stroke="#97D6F9" d = " M158 215 C158,216.905 158,217.467 158,219 155.575,219 153,213.884 153,212 154.353,212 155.158,215 158,215  Z"/>

<path  fill="#97D6F9" stroke-width="0" stroke="#97D6F9" d = " M303 215 L299,218 C299,218 299,215 299,215 299,215 303,213 303,213 303,213 303,215 303,215  Z"/>

<path  fill="#99D2BD" stroke-width="0" stroke="#99D2BD" d = " M304 213 L303,215 C303,215 303,213 303,213 303,213 304,213 304,213  Z"/>

<path  fill="#99D2BD" stroke-width="0" stroke="#99D2BD" d = " M307 251 L311,252 C311,252 307.5,249 307.5,249 304.676,246.176 302.62,243.74 301,240.5 298.005,234.51 309,231.356 309,227 307.036,227 293.628,230.244 297,223.5 298.701,220.098 303,219.162 303,215 303,215 299,218 299,218 299,218 295,223.5 295,223.5 293.24,227.02 295.68,233.86 297,236.5 298.386,239.272 296,243.769 296,246 299.648,246 303.682,251 307,251  Z"/>

<path  fill="#99D2BD" stroke-width="0" stroke="#99D2BD" d = " M131 216 L136,221 C136,221 131,216 131,216  Z"/>

<path  fill="#99D2BD" stroke-width="0" stroke="#99D2BD" d = " M325 216 L324,217 C324,217 325,216 325,216  Z"/>

<path  fill="#99D2BD" stroke-width="0" stroke="#99D2BD" d = " M324 217 L323,219 C323,219 324,217 324,217  Z"/>

<path  fill="#99D2BD" stroke-width="0" stroke="#99D2BD" d = " M322 219 L321,220 C321,220 322,219 322,219  Z"/>

<path  fill="#99D2BD" stroke-width="0" stroke="#99D2BD" d = " M321 220 L320,221 C320,221 321,220 321,220  Z"/>

<path  fill="#99D2BD" stroke-width="0" stroke="#99D2BD" d = " M137 221 L139,223 C139,223 137,221 137,221  Z"/>

<path  fill="#99D2BD" stroke-width="0" stroke="#99D2BD" d = " M319 221 L318,222 C318,222 319,221 319,221  Z"/>

<path  fill="#99D2BD" stroke-width="0" stroke="#99D2BD" d = " M318 222 L317,223 C317,223 318,222 318,222  Z"/>

<path  fill="#99D2BD" stroke-width="0" stroke="#99D2BD" d = " M140 223 L143,225 C141.762,225 140,224.577 140,223  Z"/>

<path  fill="#99D2BD" stroke-width="0" stroke="#99D2BD" d = " M316 223 L315,224 C315,224 316,223 316,223  Z"/>

<path  fill="#99D2BD" stroke-width="0" stroke="#99D2BD" d = " M315 224 L313,225 C313,225 315,224 315,224  Z"/>

<path  fill="#99D2BD" stroke-width="0" stroke="#99D2BD" d = " M313 225 L311,226 C311,226 313,225 313,225  Z"/>

<path  fill="#99D2BD" stroke-width="0" stroke="#99D2BD" d = " M311 226 L309,227 C309,227 311,226 311,226  Z"/>

<path  fill="#A2B1D7" stroke-width="0" stroke="#A2B1D7" d = " M219 246 C213.475,246 215.852,253.324 212.5,255 208.824,256.838 206.272,261.114 202.5,263 L192.5,267 C187.939,269.28 169.103,264.801 165.5,263 L157.5,257 L149,251 C149,251 160,246 160,246 161.183,246 161.535,249.57 162,250.5 163.196,252.893 166.848,255.674 169.5,257 189.232,266.866 215,257.998 215,233 217.776,233 220.79,246 219,246  Z"/>

<path  fill="#A2B1D7" stroke-width="0" stroke="#A2B1D7" d = " M296 246 C299.648,246 303.682,251 307,251 307,254.221 299.5,257 297.5,258 290.589,261.455 272.806,271.653 263.5,267 257.057,263.779 250.551,261.051 245,255.5 241.767,252.267 242.077,246 237,246 237,243.755 237.874,233 242,233 242,246.426 249.178,255.339 260.5,261 269.223,265.361 296,255.675 296,246  Z"/>

<path  fill="#CAC8C7" stroke-width="0" stroke="#CAC8C7" d = " M321 261 L322,261 C323.28,261 344,245.585 344,243 340.71,243 321,250.344 321,256 321,256 321,257 321,257 321,257 321,261 321,261  Z"/>

<path  fill="#CAC8C7" stroke-width="0" stroke="#CAC8C7" d = " M135 256 C135,257.235 135.643,261 134,261 131.957,261 113,245.411 113,243 117.202,243 135,250.726 135,256  Z"/>

<path  fill="#7FCCF7" stroke-width="0" stroke="#7FCCF7" d = " M217 269 L216,270 C216,275.396 203.352,282.074 199.5,284 195.756,285.872 165.032,286.766 161.5,285 157.044,282.772 152.278,278.889 148.5,277 144.779,275.14 137,267.996 137,264 137,264 136,262 136,262 136,259.876 137,257.564 137,256 137,254.183 144.169,252 146,252 146,252 147,251 147,251 147,251 148,251 148,251 148,251 149,251 149,251 149,251 157.5,257 157.5,257 157.5,257 165.5,263 165.5,263 169.103,264.801 187.939,269.28 192.5,267 192.5,267 202.5,263 202.5,263 206.272,261.114 208.824,256.838 212.5,255 215.852,253.324 213.475,246 219,246 219,249.322 222,252.616 222,257 222,257 221,259 221,259 221,259 221,260 221,260 221,260 220,262 220,262 220,262 220,263 220,263 220,263 219,264 219,264 219,264 219,265 219,265 219,265 218,266 218,266 218,266 218,267 218,267 218,267 217,268 217,268 217,268 217,269 217,269  Z"/>

<path  fill="#7FCCF7" stroke-width="0" stroke="#7FCCF7" d = " M238 266 L239,267 C239,272.016 245.887,277.194 249.5,279 249.5,279 257.5,285 257.5,285 263.146,287.823 273.15,281.825 279.5,285 281.663,286.081 285.901,286.799 287.5,286 287.5,286 292.5,286 292.5,286 296.9,283.8 301.013,281.244 305.5,279 309.783,276.858 319,269.218 319,264 319,264 320,263 320,263 320,263 321,261 321,261 321,261 321,257 321,257 321,257 320,256 320,256 317.007,256 314.47,252 311,252 311,252 307,251 307,251 307,254.221 299.5,257 297.5,258 290.589,261.455 272.806,271.653 263.5,267 257.057,263.779 250.551,261.051 245,255.5 241.767,252.267 242.077,246 237,246 237,248.516 235,253.435 235,258 235,258 235,259 235,259 235,259 237,263 237,263 237,263 238,266 238,266  Z"/>

<path  fill="#99D2BD" stroke-width="0" stroke="#99D2BD" d = " M147 251 L146,252 C146,252 147,251 147,251  Z"/>

<path  fill="#99D2BD" stroke-width="0" stroke="#99D2BD" d = " M135 262 L136,262 C136,259.876 137,257.564 137,256 137,256 135,256 135,256 135,257.235 135.643,261 134,261 134,261 135,262 135,262  Z"/>

<path  fill="#99D2BD" stroke-width="0" stroke="#99D2BD" d = " M321 256 L321,257 C321,257 320,256 320,256 320,256 321,256 321,256  Z"/>

<path  fill="#97D6F9" stroke-width="0" stroke="#97D6F9" d = " M222 257 L221,259 C221,259 222,257 222,257  Z"/>

<path  fill="#97D6F9" stroke-width="0" stroke="#97D6F9" d = " M235 259 L237,263 C237,263 235,259 235,259  Z"/>

<path  fill="#97D6F9" stroke-width="0" stroke="#97D6F9" d = " M221 260 L220,262 C220,262 221,260 221,260  Z"/>

<path  fill="#97D6F9" stroke-width="0" stroke="#97D6F9" d = " M321 262 L320,263 C320,263 321,261 321,261 321,261 321,262 321,262  Z"/>

<path  fill="#99D2BD" stroke-width="0" stroke="#99D2BD" d = " M322 261 L321,262 C321,262 321,261 321,261 321,261 322,261 322,261  Z"/>

<path  fill="#97D6F9" stroke-width="0" stroke="#97D6F9" d = " M136 262 L137,264 C137,264 135,262 135,262 135,262 136,262 136,262  Z"/>

<path  fill="#97D6F9" stroke-width="0" stroke="#97D6F9" d = " M220 263 L219,264 C219,264 220,263 220,263  Z"/>

<path  fill="#97D6F9" stroke-width="0" stroke="#97D6F9" d = " M320 263 L319,264 C319,264 320,263 320,263  Z"/>

<path  fill="#97D6F9" stroke-width="0" stroke="#97D6F9" d = " M219 265 L218,266 C218,266 219,265 219,265  Z"/>

<path  fill="#97D6F9" stroke-width="0" stroke="#97D6F9" d = " M238 266 L239,267 C239,267 238,266 238,266  Z"/>

<path  fill="#97D6F9" stroke-width="0" stroke="#97D6F9" d = " M218 267 L217,268 C217,268 218,267 218,267  Z"/>

<path  fill="#8599CC" stroke-width="0" stroke="#8599CC" d = " M217 269 L216,270 C216,270 217,269 217,269  Z"/>

</g>
</svg>
