<svg xmlns="http://www.w3.org/2000/svg" xmlns:xlink="http://www.w3.org/1999/xlink"  viewBox="0 0 456 320">
<g>
<rect width="456" height="320" fill="#000000"  stroke-width="0" /> 
<path  fill="#9AD1BD" stroke-width="0" stroke="#9AD1BD" d = " M144 154 C144.508,154 147,165.62 147,167 147,167 155,182.5 155,182.5 157.195,186.89 158.833,191.165 161,195.5 161,195.5 161,201.5 161,201.5 167.111,213.723 159.295,227.397 178.5,237 213.506,254.503 221,217.082 221,189.5 221,189.5 221,163.5 221,163.5 222.159,161.182 225.989,133.478 225,131.5 222.146,125.792 220.9,119.3 218,113.5 218,113.5 212,107 212,107 212,107 204.5,103 204.5,103 193.897,97.6986 163.925,108.649 159,118.5 157.513,121.473 150,125.054 150,130 150,130 149,131 149,131 149,131 149,132 149,132 149,132 148,133 148,133 148,133 148,134 148,134 148,134 147,135 147,135 147,135 147,136 147,136 147,136 146,137 146,137 146,137 146,139 146,139 146,139 145,140 145,140 145,140 145,144 145,144 145,145.048 145.473,147 144,147 144,147 144,154 144,154  Z"/>

<path  fill="#9AD1BD" stroke-width="0" stroke="#9AD1BD" d = " M311 163 L309,167 C309,167 299,185.5 299,185.5 292.571,198.358 295.068,214.364 288,228.5 285.874,232.753 279.975,235.262 276.5,237 263.602,243.449 250.534,245.569 243,230.5 238.309,221.118 239.225,205.95 236,199.5 232.857,193.213 238.2,182.9 235,176.5 235,176.5 235,159.5 235,159.5 233.457,156.413 230.215,133.069 232,129.5 234.192,125.115 234.787,119.926 237,115.5 237,115.5 244,107 244,107 244,107 251.5,103 251.5,103 251.5,103 259.5,103 259.5,103 273.676,103 285.185,105.685 296,116.5 298.528,119.028 306,125.611 306,129 306,129 307,130 307,130 307,130 307,131 307,131 307,131 308,132 308,132 308,132 308,133 308,133 308,133 309,134 309,134 309,134 309,135 309,135 309,135 310,136 310,136 310,136 310,137 310,137 310,137 311,139 311,139 311,139 311,142 311,142 311,142 312,144 312,144 312,144 312,147 312,147 312,147 312,157 312,157 312,157 312,158 312,158 310.357,158 311,161.765 311,163  Z"/>

<path  fill="#C7CBCA" stroke-width="0" stroke="#C7CBCA" d = " M153 209 C153,216.666 160.157,219.814 163,225.5 171.168,241.836 186.045,244.773 200.5,252 203.585,253.543 215.69,256.405 218.5,255 228.683,249.908 227,227.29 227,216 227,216 227,155 227,155 227,137.87 228.268,130.036 221,115.5 219.276,112.053 216.667,107 212,107 212,107 218,113.5 218,113.5 220.9,119.3 222.146,125.792 225,131.5 225.989,133.478 222.159,161.182 221,163.5 221,163.5 221,189.5 221,189.5 221,217.082 213.506,254.503 178.5,237 159.295,227.397 167.111,213.723 161,201.5 161,201.5 161,195.5 161,195.5 158.833,191.165 157.195,186.89 155,182.5 155,182.5 147,167 147,167 147,167 147,171 147,171 147,171 147,179 147,179 148.684,179 148,183.679 148,185 148,185 148,186 148,186 149.579,186 149,188.855 149,190 149,190 149,194 149,194 150.473,194 150,195.952 150,197 150,197 150,198 150,198 151.473,198 151,199.952 151,201 151,201 151,205 151,205 151,205 152,207 152,207 152,207 152,208 152,208 152,208 153,209 153,209  Z"/>

<path  fill="#C7CBCA" stroke-width="0" stroke="#C7CBCA" d = " M304 209 L303,210 C303,216.353 297.584,218.332 295,223.5 289.523,234.455 277.475,243.512 266.5,249 263.289,250.605 258.711,250.395 255.5,252 253.388,253.056 250.505,251.997 248.5,253 244.081,255.209 238.441,258.383 235,251.5 235,251.5 230,242.5 230,242.5 227.933,238.366 229,218.091 229,212 229,212 229,139 229,139 229,130.835 234.321,107 244,107 244,107 237,115.5 237,115.5 234.787,119.926 234.192,125.115 232,129.5 230.215,133.069 233.457,156.413 235,159.5 235,159.5 235,176.5 235,176.5 238.2,182.9 232.857,193.213 236,199.5 239.225,205.95 238.309,221.118 243,230.5 250.534,245.569 263.602,243.449 276.5,237 279.975,235.262 285.874,232.753 288,228.5 295.068,214.364 292.571,198.358 299,185.5 299,185.5 309,167 309,167 309,167 310,169 310,169 310,169 310,170 310,170 308.357,170 309,173.765 309,175 309,175 309,185 309,185 309,185 308,187 308,187 308,187 308,189 308,189 306.421,189 307,191.855 307,193 307,193 307,197 307,197 307,197 306,199 306,199 306,199 306,200 306,200 304.527,200 305,201.952 305,203 305,203 305,207 305,207 305,207 304,209 304,209  Z"/>

<path  fill="#99D2BD" stroke-width="0" stroke="#99D2BD" d = " M306 129 L307,130 C307,130 306,129 306,129  Z"/>

<path  fill="#99D2BD" stroke-width="0" stroke="#99D2BD" d = " M150 130 L149,131 C149,131 150,130 150,130  Z"/>

<path  fill="#99D2BD" stroke-width="0" stroke="#99D2BD" d = " M307 131 L308,132 C308,132 307,131 307,131  Z"/>

<path  fill="#99D2BD" stroke-width="0" stroke="#99D2BD" d = " M149 132 L148,133 C148,133 149,132 149,132  Z"/>

<path  fill="#99D2BD" stroke-width="0" stroke="#99D2BD" d = " M308 133 L309,134 C309,134 308,133 308,133  Z"/>

<path  fill="#99D2BD" stroke-width="0" stroke="#99D2BD" d = " M148 134 L147,135 C147,135 148,134 148,134  Z"/>

<path  fill="#99D2BD" stroke-width="0" stroke="#99D2BD" d = " M309 135 L310,136 C310,136 309,135 309,135  Z"/>

<path  fill="#99D2BD" stroke-width="0" stroke="#99D2BD" d = " M147 136 L146,137 C146,137 147,136 147,136  Z"/>

<path  fill="#99D2BD" stroke-width="0" stroke="#99D2BD" d = " M310 137 L311,139 C311,139 310,137 310,137  Z"/>

<path  fill="#99D2BD" stroke-width="0" stroke="#99D2BD" d = " M146 139 L145,140 C145,140 146,139 146,139  Z"/>

<path  fill="#99D2BD" stroke-width="0" stroke="#99D2BD" d = " M311 142 L312,144 C312,144 311,142 311,142  Z"/>

<path  fill="#99D2BD" stroke-width="0" stroke="#99D2BD" d = " M145 144 C143.527,144 144,145.952 144,147 145.473,147 145,145.048 145,144  Z"/>

<path  fill="#99D2BD" stroke-width="0" stroke="#99D2BD" d = " M312 147 C313.628,147 313.628,157 312,157 312,157 312,147 312,147  Z"/>

<path  fill="#99D2BD" stroke-width="0" stroke="#99D2BD" d = " M147 167 L147,171 C145.049,171 146.523,168.546 146,167.5 144.087,163.675 144,158.595 144,154 144.508,154 147,165.62 147,167  Z"/>

<path  fill="#99D2BD" stroke-width="0" stroke="#99D2BD" d = " M227 155 C228.773,155 228,164.259 228,166 L228,203 C228,204.908 228.788,216 227,216 227,216 227,155 227,155  Z"/>

<path  fill="#99D2BD" stroke-width="0" stroke="#99D2BD" d = " M312 158 C310.357,158 311,161.765 311,163 312.643,163 312,159.235 312,158  Z"/>

<path  fill="#99D2BD" stroke-width="0" stroke="#99D2BD" d = " M309 167 L310,169 C311.684,169 311,164.321 311,163 311,163 309,167 309,167  Z"/>

<path  fill="#99D2BD" stroke-width="0" stroke="#99D2BD" d = " M310 170 C308.357,170 309,173.765 309,175 310.643,175 310,171.235 310,170  Z"/>

<path  fill="#99D2BD" stroke-width="0" stroke="#99D2BD" d = " M147 179 C148.684,179 148,183.679 148,185 146.316,185 147,180.321 147,179  Z"/>

<path  fill="#99D2BD" stroke-width="0" stroke="#99D2BD" d = " M309 185 L308,187 C308,187 309,185 309,185  Z"/>

<path  fill="#99D2BD" stroke-width="0" stroke="#99D2BD" d = " M148 186 C149.579,186 149,188.855 149,190 147.421,190 148,187.145 148,186  Z"/>

<path  fill="#99D2BD" stroke-width="0" stroke="#99D2BD" d = " M308 189 C306.421,189 307,191.855 307,193 308.579,193 308,190.145 308,189  Z"/>

<path  fill="#99D2BD" stroke-width="0" stroke="#99D2BD" d = " M149 194 C150.473,194 150,195.952 150,197 148.527,197 149,195.048 149,194  Z"/>

<path  fill="#99D2BD" stroke-width="0" stroke="#99D2BD" d = " M307 197 L306,199 C306,199 307,197 307,197  Z"/>

<path  fill="#99D2BD" stroke-width="0" stroke="#99D2BD" d = " M150 198 C151.473,198 151,199.952 151,201 149.527,201 150,199.048 150,198  Z"/>

<path  fill="#99D2BD" stroke-width="0" stroke="#99D2BD" d = " M306 200 C304.527,200 305,201.952 305,203 306.473,203 306,201.048 306,200  Z"/>

<path  fill="#99D2BD" stroke-width="0" stroke="#99D2BD" d = " M151 205 L152,207 C152,207 151,205 151,205  Z"/>

<path  fill="#99D2BD" stroke-width="0" stroke="#99D2BD" d = " M305 207 L304,209 C304,209 305,207 305,207  Z"/>

<path  fill="#99D2BD" stroke-width="0" stroke="#99D2BD" d = " M152 208 L153,209 C153,209 152,208 152,208  Z"/>

<path  fill="#99D2BD" stroke-width="0" stroke="#99D2BD" d = " M304 209 L303,210 C303,210 304,209 304,209  Z"/>

</g>
</svg>
