<svg xmlns="http://www.w3.org/2000/svg" xmlns:xlink="http://www.w3.org/1999/xlink"  viewBox="0 0 456 320">
<g>
<rect width="456" height="320" fill="#000000"  stroke-width="0" /> 
<path  fill="#1E9D5A" stroke-width="0" stroke="#1E9D5A" d = " M153 36 L152,43 C152,43 156.5,41 156.5,41 159.821,39.3396 187.166,35 192,35 192,35 193,30 193,30 188.106,30 167.91,31.2952 164.5,33 161.578,34.4612 156.341,36 153,36  Z"/>

<path  fill="#1E9C59" stroke-width="0" stroke="#1E9C59" d = " M222 49 L223,49 C223,49 227,47 227,47 227,44.4939 224.28,41.7804 222.5,40 213.198,30.6977 205.968,30 193,30 193,30 192,35 192,35 202.081,35 222,35.9335 222,49  Z"/>

<path  fill="#1E9C59" stroke-width="0" stroke="#1E9C59" d = " M229 47 L234,49 C234,36.2059 254.815,35 264,35 264,35 264,30 264,30 250.46,30 243.755,30.7446 234,40.5 234,40.5 229,47 229,47  Z"/>

<path  fill="#1E9D5A" stroke-width="0" stroke="#1E9D5A" d = " M303 36 L305,43 C305,43 300.5,41 300.5,41 297.546,39.5229 268.495,35 264,35 264,35 264,30 264,30 267.661,30 290.444,31.972 292.5,33 292.5,33 303,36 303,36  Z"/>

<path  fill="#1F9C58" stroke-width="0" stroke="#1F9C58" d = " M150 59 C151.203,59 150,64.2256 150,66 153.699,66 158.225,60.6375 161.5,59 168.017,55.7414 182.987,47 190,47 190,43.0443 192,39.503 192,35 187.166,35 159.821,39.3396 156.5,41 156.5,41 152,43 152,43 152,48.0438 150,54.2081 150,59  Z"/>

<path  fill="#1E9D58" stroke-width="0" stroke="#1E9D58" d = " M216 53 L217,53 C217,53 222,49 222,49 222,35.9335 202.081,35 192,35 192,39.503 190,43.0443 190,47 195.142,47 216,40.4083 216,53  Z"/>

<path  fill="#1E9D58" stroke-width="0" stroke="#1E9D58" d = " M240 53 L241,53 C241,40.6215 260.382,47 266,47 266,47 264,35 264,35 254.815,35 234,36.2059 234,49 234,49 240,53 240,53  Z"/>

<path  fill="#1F9C58" stroke-width="0" stroke="#1F9C58" d = " M306 59 C306,61.4092 307,64.181 307,66 300.655,66 277.338,47 267,47 267,47 266,47 266,47 266,47 264,35 264,35 268.495,35 297.546,39.5229 300.5,41 300.5,41 305,43 305,43 305,47.5181 306,53.3793 306,59  Z"/>

<path  fill="#187F60" stroke-width="0" stroke="#187F60" d = " M152 43 C148.481,43 146.157,45 143,45 143,45 141,40 141,40 141,38.9995 151.391,36 153,36 153,36 152,43 152,43  Z"/>

<path  fill="#187F60" stroke-width="0" stroke="#187F60" d = " M305 43 C308.68,43 310.511,45 314,45 314,45 315,39 315,39 310.573,39 307.348,36 303,36 303,36 305,43 305,43  Z"/>

<path  fill="#197E64" stroke-width="0" stroke="#197E64" d = " M350 63 L351,63 C351,60.5173 353,58.9744 353,57 349.969,57 346.195,52.3474 343.5,51 339.408,48.9539 318.33,39 315,39 315,39 314,45 314,45 314,45 314,46 314,46 323.654,46 333.312,53.9062 341.5,58 343.055,58.7777 350,61.0039 350,63  Z"/>

<path  fill="#197E64" stroke-width="0" stroke="#197E64" d = " M103 58 C104.477,58 106,61.9243 106,63 108.905,63 135.122,45 143,45 143,45 141,40 141,40 131.835,40 120.425,48.0377 112.5,52 112.5,52 103,58 103,58  Z"/>

<path  fill="#187F64" stroke-width="0" stroke="#187F64" d = " M150 59 L146,60 C146,54.57 143,50.8045 143,45 146.157,45 148.481,43 152,43 152,48.0438 150,54.2081 150,59  Z"/>

<path  fill="#187F64" stroke-width="0" stroke="#187F64" d = " M306 59 L310,60 C310,60 314,46 314,46 314,46 314,45 314,45 310.511,45 308.68,43 305,43 305,47.5181 306,53.3793 306,59  Z"/>

<path  fill="#197F61" stroke-width="0" stroke="#197F61" d = " M106 63 L111,75 C114.984,75 137.502,60 146,60 146,54.57 143,50.8045 143,45 135.122,45 108.905,63 106,63  Z"/>

<path  fill="#1F9D58" stroke-width="0" stroke="#1F9D58" d = " M203 64 L204,64 C204,61.6978 213.941,53 216,53 216,40.4083 195.142,47 190,47 190,47 186,64 186,64 187.643,64 203,56.2805 203,64  Z"/>

<path  fill="#1F9D58" stroke-width="0" stroke="#1F9D58" d = " M253 64 C253,56.3466 268.499,64 270,64 270,57.8171 267,53.4238 267,47 267,47 266,47 266,47 260.382,47 241,40.6215 241,53 241,53 250.5,61 250.5,61 250.5,61 253,64 253,64  Z"/>

<path  fill="#197F61" stroke-width="0" stroke="#197F61" d = " M350 63 C350,67.388 345,71.3222 345,75 340.843,75 318.889,60 311,60 311,60 310,60 310,60 310,60 314,46 314,46 323.654,46 333.312,53.9062 341.5,58 343.055,58.7777 350,61.0039 350,63  Z"/>

<path  fill="#1E9C5A" stroke-width="0" stroke="#1E9C5A" d = " M150 72 C150,74.2481 148.726,81 150,81 160.129,81 181.055,64 186,64 186,64 190,47 190,47 182.987,47 168.017,55.7414 161.5,59 158.225,60.6375 153.699,66 150,66 150,66 150,72 150,72  Z"/>

<path  fill="#3EA665" stroke-width="0" stroke="#3EA665" d = " M233 73 C229.675,73 225.69,74 223,74 223,74 223,49 223,49 223,49 227,47 227,47 227.839,47 229,48.93 229,47 229,47 234,49 234,49 234,56.2892 233,65.0535 233,73  Z"/>

<path  fill="#1E9C5A" stroke-width="0" stroke="#1E9C5A" d = " M307 69 L307,81 C296.053,81 277.501,65 271,65 271,65 270,64 270,64 270,57.8171 267,53.4238 267,47 277.338,47 300.655,66 307,66 307,66 307,67 307,67 307,67 307,69 307,69  Z"/>

<path  fill="#40A565" stroke-width="0" stroke="#40A565" d = " M223 74 L218,75 C218,67.9443 217,60.5584 217,53 217,53 222,49 222,49 222,49 223,49 223,49 223,49 223,74 223,74  Z"/>

<path  fill="#40A565" stroke-width="0" stroke="#40A565" d = " M233 74 C235.124,74 237.436,75 239,75 239,67.7074 240,59.641 240,53 240,53 234,49 234,49 234,56.2892 233,65.0535 233,73 233,73 233,74 233,74  Z"/>

<path  fill="#3EA566" stroke-width="0" stroke="#3EA566" d = " M218 75 C212.937,75 209.582,81 205,81 205,75.3251 204,69.0459 204,64 204,61.6978 213.941,53 216,53 216,53 217,53 217,53 217,60.5584 218,67.9443 218,75  Z"/>

<path  fill="#3EA566" stroke-width="0" stroke="#3EA566" d = " M239 75 L251,81 C251,78.161 251.142,65 253,65 253,65 253,64 253,64 253,64 250.5,61 250.5,61 250.5,61 241,53 241,53 241,53 240,53 240,53 240,59.641 239,67.7074 239,75  Z"/>

<path  fill="#1B8062" stroke-width="0" stroke="#1B8062" d = " M361 71 L362,71 C362,71 364,65 364,65 364,63.6766 354.433,57 353,57 353,58.9744 351,60.5173 351,63 351,65.4957 361,67.3377 361,71  Z"/>

<path  fill="#1B8062" stroke-width="0" stroke="#1B8062" d = " M92 65 C92,67.554 95,68.688 95,70 95,70 106,63 106,63 106,61.9243 104.477,58 103,58 101.178,58 92,63.3011 92,65  Z"/>

<path  fill="#1C7F64" stroke-width="0" stroke="#1C7F64" d = " M148 67 L149,67 C149,67 150,66 150,66 150,64.2256 151.203,59 150,59 150,59 146,60 146,60 146,60 148,67 148,67  Z"/>

<path  fill="#1C7F64" stroke-width="0" stroke="#1C7F64" d = " M307 67 L308,67 C308,64.8201 311,61.8116 311,60 311,60 310,60 310,60 310,60 306,59 306,59 306,61.4092 307,64.181 307,66 307,66 307,67 307,67  Z"/>

<path  fill="#1A7F63" stroke-width="0" stroke="#1A7F63" d = " M111 76 L115,83 C121.711,83 140.255,67 148,67 148,67 146,60 146,60 137.502,60 114.984,75 111,75 111,75 111,76 111,76  Z"/>

<path  fill="#1A7F63" stroke-width="0" stroke="#1A7F63" d = " M345 76 L341,83 C335.939,83 315.29,67 308,67 308,64.8201 311,61.8116 311,60 318.889,60 340.843,75 345,75 345,75 345,76 345,76  Z"/>

<path  fill="#1D9C5A" stroke-width="0" stroke="#1D9C5A" d = " M184 86 L185,86 C186.819,86 189.591,85 192,85 192,78.0119 203,69.0875 203,64 203,56.2805 187.643,64 186,64 186,71.1305 184,78.1815 184,86  Z"/>

<path  fill="#1D9C5A" stroke-width="0" stroke="#1D9C5A" d = " M265 85 L272,86 C272,78.9829 271,73.0887 271,65 271,65 270,64 270,64 268.499,64 253,56.3466 253,64 253,64 253,65 253,65 255.614,65 264,81.7722 264,85 264,85 265,85 265,85  Z"/>

<path  fill="#1C7F63" stroke-width="0" stroke="#1C7F63" d = " M111 76 L100,81 C100,81 95,71 95,71 95,71 95,70 95,70 95,70 106,63 106,63 106,63 111,75 111,75 111,75 111,76 111,76  Z"/>

<path  fill="#1C7F63" stroke-width="0" stroke="#1C7F63" d = " M356 82 L357,82 C357,82 361,71 361,71 361,67.3377 351,65.4957 351,63 351,63 350,63 350,63 350,67.388 345,71.3222 345,75 345,75 345,76 345,76 346.721,76 356,80.422 356,82  Z"/>

<path  fill="#1F9B5A" stroke-width="0" stroke="#1F9B5A" d = " M160 97 C156.177,97 153.686,100 150,100 150,94.1371 150,88.5609 150,82 150,82 150,81 150,81 160.129,81 181.055,64 186,64 186,71.1305 184,78.1815 184,86 184,86 179,89 179,89 179,89 175,91 175,91 173.535,91 171,90.891 171,93 169.377,93 165,93.0047 165,95 163.576,95 160,95.3616 160,97  Z"/>

<path  fill="#3FA664" stroke-width="0" stroke="#3FA664" d = " M196 89 L197,89 C197,89 205,82 205,82 205,82 205,81 205,81 205,75.3251 204,69.0459 204,64 204,64 203,64 203,64 203,69.0875 192,78.0119 192,85 194.226,85 196,86.7736 196,89  Z"/>

<path  fill="#197E63" stroke-width="0" stroke="#197E63" d = " M62 109 C58.6799,109 58.2638,112 55,112 55,101.851 72.2037,82.2963 79.5,75 82.2738,72.2262 88.2066,65 92,65 92,67.554 95,68.688 95,70 95,70 95,71 95,71 90.8552,71 89.1134,75.6933 86.5,77 82.5572,78.9714 63,101.138 63,107 63,107 63,108 63,108 63,108 62,109 62,109  Z"/>

<path  fill="#3FA664" stroke-width="0" stroke="#3FA664" d = " M259 89 L260,89 C260,89 262,87 262,87 262,87 263,86 263,86 263,86 264,85 264,85 264,81.7722 255.614,65 253,65 251.142,65 251,78.161 251,81 251,81 251,82 251,82 251,82 259,89 259,89  Z"/>

<path  fill="#1F9B5A" stroke-width="0" stroke="#1F9B5A" d = " M272 87 C282.811,87 295.724,100 307,100 307,93.1827 307,88.5676 307,82 307,82 307,81 307,81 296.053,81 277.501,65 271,65 271,73.0887 272,78.9829 272,86 272,86 272,87 272,87  Z"/>

<path  fill="#197E63" stroke-width="0" stroke="#197E63" d = " M395 109 C395,107.857 399.065,112 401,112 401,102.741 383.516,77.508 374.5,73 370.372,70.9362 368.741,65 364,65 364,65 362,71 362,71 367.746,71 384.443,91.3867 387,96.5 388.347,99.1948 393,102.969 393,106 393,106 395,109 395,109  Z"/>

<path  fill="#197C63" stroke-width="0" stroke="#197C63" d = " M149 67 C149,68.2345 148.357,72 150,72 150,72 150,66 150,66 150,66 149,67 149,67  Z"/>

<path  fill="#187E62" stroke-width="0" stroke="#187E62" d = " M115 83 C115,86.3185 120,90.3519 120,94 126.423,94 140.65,82 150,82 150,82 150,81 150,81 148.726,81 150,74.2481 150,72 148.357,72 149,68.2345 149,67 149,67 148,67 148,67 140.255,67 121.711,83 115,83  Z"/>

<path  fill="#197C63" stroke-width="0" stroke="#197C63" d = " M308 67 L307,69 C307,69 307,67 307,67 307,67 308,67 308,67  Z"/>

<path  fill="#187E62" stroke-width="0" stroke="#187E62" d = " M336 94 L337,94 C337,89.8221 341,87.0658 341,83 335.939,83 315.29,67 308,67 308,67 307,69 307,69 307,69 307,81 307,81 307,81 307,82 307,82 315.142,82 331.468,94 336,94  Z"/>

<path  fill="#1B7F64" stroke-width="0" stroke="#1B7F64" d = " M77 101 C72.8187,101 67.9418,107 63,107 63,101.138 82.5572,78.9714 86.5,77 89.1134,75.6933 90.8552,71 95,71 95,71 100,81 100,81 100,81 100,82 100,82 96.1469,82 79,95.7462 79,100 79,100 77,101 77,101  Z"/>

<path  fill="#1B7F64" stroke-width="0" stroke="#1B7F64" d = " M379 101 C384.079,101 388.284,106 393,106 393,102.969 388.347,99.1948 387,96.5 384.443,91.3867 367.746,71 362,71 362,71 361,71 361,71 361,71 357,82 357,82 361.637,82 377,96.0953 377,100 377,100 379,101 379,101  Z"/>

<path  fill="#40A664" stroke-width="0" stroke="#40A664" d = " M229 100 C231.832,100 231.953,105 234,105 234,94.9531 233,84.5536 233,74 233,74 233,73 233,73 229.675,73 225.69,74 223,74 223,84.4193 222,95.1709 222,105 222,105 227,100 227,100 227,96.85 229,96.5542 229,100  Z"/>

<path  fill="#3FA566" stroke-width="0" stroke="#3FA566" d = " M221 107 L218,109 C218,109 218,75 218,75 218,75 223,74 223,74 223,84.4193 222,95.1709 222,105 222,105 221,107 221,107  Z"/>

<path  fill="#3FA566" stroke-width="0" stroke="#3FA566" d = " M235 107 L238,108 C238,97.5355 239,86.0655 239,75 237.436,75 235.124,74 233,74 233,84.5536 234,94.9531 234,105 234,105 235,107 235,107  Z"/>

<path  fill="#3EA666" stroke-width="0" stroke="#3EA666" d = " M209 105 L218,109 C218,109 218,75 218,75 212.937,75 209.582,81 205,81 205,81 205,82 205,82 206.684,82 206,86.6792 206,88 206,88 209,105 209,105  Z"/>

<path  fill="#3EA666" stroke-width="0" stroke="#3EA666" d = " M247 105 C245.806,105 238,109.978 238,108 238,97.5355 239,86.0655 239,75 239,75 251,81 251,81 251,81 251,82 251,82 251,89.7539 247,97.6325 247,105  Z"/>

<path  fill="#197E61" stroke-width="0" stroke="#197E61" d = " M110 85 L111,85 C111,85 115,83 115,83 115,83 111,76 111,76 111,76 100,81 100,81 100,81 100,82 100,82 100,82 102,87 102,87 102.496,87 102.603,84.9484 104.5,84 104.5,84 110,85 110,85  Z"/>

<path  fill="#197E61" stroke-width="0" stroke="#197E61" d = " M346 85 C348.229,85 349.933,84 351.5,84 L354,86 C354,86 356,82 356,82 356,80.422 346.721,76 345,76 345,76 341,83 341,83 341,83 345,85 345,85 345,85 346,85 346,85  Z"/>

<path  fill="#1A8062" stroke-width="0" stroke="#1A8062" d = " M97 94 C91.0639,94 86.4489,100 79,100 79,95.7462 96.1469,82 100,82 100,82 102,87 102,87 101.441,87 99,91.241 99,92 99,92 97,94 97,94  Z"/>

<path  fill="#197D61" stroke-width="0" stroke="#197D61" d = " M128 110 L129,110 C129,110 131,109 131,109 131,109 135,107 135,107 135,107 139,105 139,105 139,103.362 142.576,103 144,103 144,101.005 148.377,101 150,101 150,101 150,100 150,100 150,94.1371 150,88.5609 150,82 140.65,82 126.423,94 120,94 120,94 124,102 124,102 124,102 128,110 128,110  Z"/>

<path  fill="#40A564" stroke-width="0" stroke="#40A564" d = " M208 105 L209,105 C209,105 206,88 206,88 206,86.6792 206.684,82 205,82 205,82 197,89 197,89 197,96.0472 207,97.5996 207,103 207,103 208,105 208,105  Z"/>

<path  fill="#40A564" stroke-width="0" stroke="#40A564" d = " M247 105 L248,105 C248,105 249,103 249,103 249,103 259,92 259,92 259,92 259,89 259,89 259,89 251,82 251,82 251,89.7539 247,97.6325 247,105  Z"/>

<path  fill="#197D61" stroke-width="0" stroke="#197D61" d = " M333 101 L328,109 C320.467,109 314.774,101 307,101 307,101 307,100 307,100 307,93.1827 307,88.5676 307,82 315.142,82 331.468,94 336,94 336,94 334,100 334,100 334,100 333,101 333,101  Z"/>

<path  fill="#1A8062" stroke-width="0" stroke="#1A8062" d = " M359 93 C359,90.5603 363.6,96 364.5,96 368.703,96 372.064,100 377,100 377,96.0953 361.637,82 357,82 357,82 356,82 356,82 356,82 354,86 354,86 354,89.2624 358,90.1169 358,93 358,93 359,93 359,93  Z"/>

<path  fill="#197D62" stroke-width="0" stroke="#197D62" d = " M119 94 L120,94 C120,90.3519 115,86.3185 115,83 115,83 111,85 111,85 111,85 119,94 119,94  Z"/>

<path  fill="#197D62" stroke-width="0" stroke="#197D62" d = " M337 95 L338,95 C338,90.2324 345,88.7093 345,85 345,85 341,83 341,83 341,87.0658 337,89.8221 337,94 337,94 337,95 337,95  Z"/>

<path  fill="#1B7F62" stroke-width="0" stroke="#1B7F62" d = " M102 87 C101.441,87 99,91.241 99,92 100.767,92 110,86.9454 110,85 110,85 104.5,84 104.5,84 102.603,84.9484 102.496,87 102,87  Z"/>

<path  fill="#1B7F62" stroke-width="0" stroke="#1B7F62" d = " M354 86 C354,89.2624 358,90.1169 358,93 356.693,93 346,86.105 346,85 348.229,85 349.933,84 351.5,84 351.5,84 354,86 354,86  Z"/>

<path  fill="#1B7E63" stroke-width="0" stroke="#1B7E63" d = " M80 141 L81,141 C81,125.221 95.4569,107.522 108.5,101 112.059,99.2206 114.748,95 119,95 119,95 119,94 119,94 119,94 111,85 111,85 111,85 110,85 110,85 110,86.9454 100.767,92 99,92 99,92 97,94 97,94 97,94 89,101.5 89,101.5 84.603,110.294 70,125.361 70,135 70,135 70,136 70,136 70,136 80,141 80,141  Z"/>

<path  fill="#1E9C58" stroke-width="0" stroke="#1E9C58" d = " M192 86 L185,87 C185,87 185,86 185,86 186.819,86 189.591,85 192,85 192,85 192,86 192,86  Z"/>

<path  fill="#3FA466" stroke-width="0" stroke="#3FA466" d = " M196 89 L196,90 C196,90 192,86 192,86 192,86 192,85 192,85 194.226,85 196,86.7736 196,89  Z"/>

<path  fill="#3FA466" stroke-width="0" stroke="#3FA466" d = " M263 86 L265,86 C265,86 265,85 265,85 265,85 264,85 264,85 264,85 263,86 263,86  Z"/>

<path  fill="#1E9C58" stroke-width="0" stroke="#1E9C58" d = " M272 86 L272,87 C272,87 265,86 265,86 265,86 265,85 265,85 265,85 272,86 272,86  Z"/>

<path  fill="#1B7E63" stroke-width="0" stroke="#1B7E63" d = " M387 136 L376,141 C376,138.228 374.167,135.833 373,133.5 366.779,121.059 365.328,109.914 351.5,103 347.429,100.965 342.701,95 338,95 338,90.2324 345,88.7093 345,85 345,85 346,85 346,85 346,86.105 356.693,93 358,93 358,93 359,93 359,93 359,94.4659 374.279,110.059 376,113.5 376,113.5 387,135 387,135 387,135 387,136 387,136  Z"/>

<path  fill="#1D9D5A" stroke-width="0" stroke="#1D9D5A" d = " M185 87 C185,88.9953 180.623,89 179,89 179,89 184,86 184,86 184,86 185,86 185,86 185,86 185,87 185,87  Z"/>

<path  fill="#CACCC7" stroke-width="0" stroke="#CACCC7" d = " M207 103 L208,105 C199.796,105 196.344,94.4219 189.5,91 183.07,87.7849 175.684,96 170,96 170,96 169,97 169,97 169,97 167,97 167,97 167,97 164,97 164,97 164,97 165,95 165,95 166.623,95 171,94.9953 171,93 172.465,93 175,93.109 175,91 176.465,91 179,91.109 179,89 180.623,89 185,88.9953 185,87 185,87 192,86 192,86 192,86 196,90 196,90 196,93.6432 203.416,103 207,103  Z"/>

<path  fill="#3FA466" stroke-width="0" stroke="#3FA466" d = " M263 86 L262,87 C262,87 263,86 263,86  Z"/>

<path  fill="#CACCC7" stroke-width="0" stroke="#CACCC7" d = " M249 103 L248,105 C256.876,105 260.428,94.5359 267.5,91 273.86,87.82 280.545,96 286,96 286,96 287,97 287,97 287,97 289,97 289,97 289,97 293,97 293,97 293,94.6658 288.819,95.6594 287.5,95 287.5,95 272,87 272,87 272,87 265,86 265,86 265,86 263,86 263,86 263,86 262,87 262,87 262,88.2383 261.577,90 260,90 260,90 259,92 259,92 259,95.412 252.648,103 249,103  Z"/>

<path  fill="#3FA466" stroke-width="0" stroke="#3FA466" d = " M260 89 L260,90 C261.577,90 262,88.2383 262,87 262,87 260,89 260,89  Z"/>

<path  fill="#1D9D5A" stroke-width="0" stroke="#1D9D5A" d = " M307 101 L307,102 C302.06,102 298.194,97 293,97 293,94.6658 288.819,95.6594 287.5,95 287.5,95 272,87 272,87 282.811,87 295.724,100 307,100 307,100 307,101 307,101  Z"/>

<path  fill="#1D9D5A" stroke-width="0" stroke="#1D9D5A" d = " M179 89 L175,91 C176.465,91 179,91.109 179,89  Z"/>

<path  fill="#40A465" stroke-width="0" stroke="#40A465" d = " M196 90 C196,93.6432 203.416,103 207,103 207,97.5996 197,96.0472 197,89 197,89 196,89 196,89 196,89 196,90 196,90  Z"/>

<path  fill="#40A465" stroke-width="0" stroke="#40A465" d = " M260 90 L259,92 C259,92 259,89 259,89 259,89 260,89 260,89 260,89 260,90 260,90  Z"/>

<path  fill="#1D9D5A" stroke-width="0" stroke="#1D9D5A" d = " M175 91 C173.535,91 171,90.891 171,93 172.465,93 175,93.109 175,91  Z"/>

<path  fill="#C9C7C9" stroke-width="0" stroke="#C9C7C9" d = " M91 167 L92,167 C92,159.705 99.8132,150.874 103,144.5 116.858,116.783 144.223,106 175,106 175.646,106 180.212,102.644 181.5,102 184.514,100.493 204,111.585 204,114 204,114 205,114 205,114 207.672,114 222,116.866 222,119 222,119 223,119 223,119 223,119 227,119 227,119 227,117.601 229,117.601 229,119 229,119 233,119 233,119 233,119 234,119 234,119 236.985,119 245.635,114 252,114 252,114 253,113 253,113 253,113 255,112 255,112 255,112 257,111 257,111 257,108.787 272.831,100.665 275.5,102 276.88,102.69 279.989,106 281,106 301.42,106 315.782,110.641 332.5,119 332.5,119 346.5,133 346.5,133 349.964,134.732 358.943,153.386 361,157.5 361.807,159.115 362.736,167 365,167 365,163.32 363,161.489 363,158 363,158 362,157 362,157 362,157 361,153 361,153 361,153 355,141.5 355,141.5 351.91,135.319 340.856,120.178 334.5,117 334.5,117 320.5,109 320.5,109 314.254,105.877 306.804,105.152 300.5,102 298.663,101.081 289,99.3605 289,97 289,97 287,97 287,97 287,97 286,96 286,96 280.545,96 273.86,87.82 267.5,91 260.428,94.5359 256.876,105 248,105 248,105 247,105 247,105 245.806,105 238,109.978 238,108 238,108 235,107 235,107 235,108.951 232.546,107.477 231.5,108 228.619,109.441 225.123,107 221,107 221,107 218,109 218,109 218,109 209,105 209,105 209,105 208,105 208,105 199.796,105 196.344,94.4219 189.5,91 183.07,87.7849 175.684,96 170,96 170,96 169,97 169,97 169,97 167,97 167,97 167,99.3152 158.246,101.127 156.5,102 156.5,102 131.5,111 131.5,111 128.468,112.516 124.451,117 121,117 121,118.189 112.993,127 111,127 111,128.562 108.811,132 107,132 107,133.238 106.577,135 105,135 105,136.238 104.577,138 103,138 103,139.572 100.948,145 99,145 99,145 98,147 98,147 98,147 97,149 97,149 97,150.048 97.4729,152 96,152 96,152 95,154 95,154 95,158.875 91,162.125 91,167  Z"/>

<path  fill="#40A465" stroke-width="0" stroke="#40A465" d = " M259 92 L249,103 C252.648,103 259,95.412 259,92  Z"/>

<path  fill="#1B7F62" stroke-width="0" stroke="#1B7F62" d = " M391 132 C391,133.712 388.429,135 387,135 387,135 376,113.5 376,113.5 374.279,110.059 359,94.4659 359,93 359,90.5603 363.6,96 364.5,96 368.703,96 372.064,100 377,100 377,100 379,101 379,101 379,106.488 391,122.917 391,132  Z"/>

<path  fill="#1B7F62" stroke-width="0" stroke="#1B7F62" d = " M65 133 C67.5227,133 66.9592,135 70,135 70,125.361 84.603,110.294 89,101.5 89,101.5 97,94 97,94 91.0639,94 86.4489,100 79,100 79,100 77,101 77,101 77,107.621 65,122.798 65,131 65,131 65,133 65,133  Z"/>

<path  fill="#1D9D5A" stroke-width="0" stroke="#1D9D5A" d = " M171 93 C169.377,93 165,93.0047 165,95 166.623,95 171,94.9953 171,93  Z"/>

<path  fill="#1A7F61" stroke-width="0" stroke="#1A7F61" d = " M119 95 C119,96.1799 122.441,102 124,102 124,102 120,94 120,94 120,94 119,94 119,94 119,94 119,95 119,95  Z"/>

<path  fill="#1A7F61" stroke-width="0" stroke="#1A7F61" d = " M337 95 C337,96.4082 335.803,100 334,100 334,100 336,94 336,94 336,94 337,94 337,94 337,94 337,95 337,95  Z"/>

<path  fill="#187D61" stroke-width="0" stroke="#187D61" d = " M81 141 L95,148 C95,143.992 114.175,117 119,117 119,115.253 119.253,115 121,115 121,113.423 122.762,113 124,113 124,111.423 125.762,111 127,111 127,111 128,110 128,110 128,110 124,102 124,102 122.441,102 119,96.1799 119,95 114.748,95 112.059,99.2206 108.5,101 95.4569,107.522 81,125.221 81,141  Z"/>

<path  fill="#1D9D5A" stroke-width="0" stroke="#1D9D5A" d = " M160 97 L164,97 C164,97 165,95 165,95 163.576,95 160,95.3616 160,97  Z"/>

<path  fill="#187D61" stroke-width="0" stroke="#187D61" d = " M361 149 L362,149 C362,146.742 371.623,143.939 373.5,143 373.5,143 376,141 376,141 376,138.228 374.167,135.833 373,133.5 366.779,121.059 365.328,109.914 351.5,103 347.429,100.965 342.701,95 338,95 338,95 337,95 337,95 337,96.4082 335.803,100 334,100 334,100 333,101 333,101 333,101 328,109 328,109 328,109 328,110 328,110 336.779,110 361,141.054 361,149  Z"/>

<path  fill="#C9C9CA" stroke-width="0" stroke="#C9C9CA" d = " M170 96 L169,97 C169,97 170,96 170,96  Z"/>

<path  fill="#C9C9CA" stroke-width="0" stroke="#C9C9CA" d = " M286 96 L287,97 C287,97 286,96 286,96  Z"/>

<path  fill="#1D9D5A" stroke-width="0" stroke="#1D9D5A" d = " M150 100 L150,101 C152.172,101 160,99.6225 160,97 156.177,97 153.686,100 150,100  Z"/>

<path  fill="#C9C9CA" stroke-width="0" stroke="#C9C9CA" d = " M121 115 L121,117 C124.451,117 128.468,112.516 131.5,111 131.5,111 156.5,102 156.5,102 158.246,101.127 167,99.3152 167,97 167,97 164,97 164,97 164,97 160,97 160,97 160,99.6225 152.172,101 150,101 150,103.698 145.745,103 144,103 144,105.461 140.622,105 139,105 139,107.109 136.465,107 135,107 135,109.109 132.465,109 131,109 131,109 129,111 129,111 129,111 127,111 127,111 127,112.577 125.238,113 124,113 124,114.577 122.238,115 121,115  Z"/>

<path  fill="#C9C9CA" stroke-width="0" stroke="#C9C9CA" d = " M360 149 L361,153 C361,153 355,141.5 355,141.5 351.91,135.319 340.856,120.178 334.5,117 334.5,117 320.5,109 320.5,109 314.254,105.877 306.804,105.152 300.5,102 298.663,101.081 289,99.3605 289,97 289,97 293,97 293,97 298.194,97 302.06,102 307,102 314.331,102 321.135,111 328,111 334.171,111 351.426,132.351 354,137.5 354,137.5 360,149 360,149  Z"/>

<path  fill="#1A7E64" stroke-width="0" stroke="#1A7E64" d = " M79 100 L77,101 C77,101 79,100 79,100  Z"/>

<path  fill="#7ED04B" stroke-width="0" stroke="#7ED04B" d = " M221 107 C225.123,107 228.619,109.441 231.5,108 232.546,107.477 235,108.951 235,107 235,107 234,105 234,105 231.953,105 231.832,100 229,100 229,101.399 227,101.399 227,100 227,100 222,105 222,105 222,105 221,107 221,107  Z"/>

<path  fill="#1A7F61" stroke-width="0" stroke="#1A7F61" d = " M334 100 L333,101 C333,101 334,100 334,100  Z"/>

<path  fill="#1A7E64" stroke-width="0" stroke="#1A7E64" d = " M56 127 C58.9516,127 61.4524,131 65,131 65,122.798 77,107.621 77,101 72.8187,101 67.9418,107 63,107 63,107 63,108 63,108 63,108 62,109 62,109 62,115.249 56,120.57 56,127  Z"/>

<path  fill="#1C8064" stroke-width="0" stroke="#1C8064" d = " M150 101 C148.377,101 144,101.005 144,103 145.745,103 150,103.698 150,101  Z"/>

<path  fill="#1C8064" stroke-width="0" stroke="#1C8064" d = " M328 110 L328,111 C321.135,111 314.331,102 307,102 307,102 307,101 307,101 314.774,101 320.467,109 328,109 328,109 328,110 328,110  Z"/>

<path  fill="#1A7E64" stroke-width="0" stroke="#1A7E64" d = " M391 132 L392,132 C395.29,132 397.518,127 401,127 401,127 401,126 401,126 398.666,126 399.659,121.819 399,120.5 397.14,116.781 395,113.513 395,109 395,109 393,106 393,106 388.284,106 384.079,101 379,101 379,106.488 391,122.917 391,132  Z"/>

<path  fill="#AAA8A9" stroke-width="0" stroke="#AAA8A9" d = " M180 109 L179,105.5 C181.977,99.5456 201.945,114 204,114 204,111.585 184.514,100.493 181.5,102 180.212,102.644 175.646,106 175,106 175,106 180,109 180,109  Z"/>

<path  fill="#AAA8A9" stroke-width="0" stroke="#AAA8A9" d = " M277 109 C277,97.784 261.062,111 257,111 257,108.787 272.831,100.665 275.5,102 276.88,102.69 279.989,106 281,106 281,106 277,109 277,109  Z"/>

<path  fill="#1C8064" stroke-width="0" stroke="#1C8064" d = " M144 103 C142.576,103 139,103.362 139,105 140.622,105 144,105.461 144,103  Z"/>

<path  fill="#1C8064" stroke-width="0" stroke="#1C8064" d = " M139 105 L135,107 C136.465,107 139,107.109 139,105  Z"/>

<path  fill="#A8AAAA" stroke-width="0" stroke="#A8AAAA" d = " M191 148 C191,149.145 191.579,152 190,152 190,152 189,127.5 189,127.5 189,127.5 180,109 180,109 180,109 179,105.5 179,105.5 181.977,99.5456 201.945,114 204,114 204,114 205,114 205,114 205,114 198,123.5 198,123.5 194.651,130.197 191,136.914 191,145 191,145 191,148 191,148  Z"/>

<path  fill="#A8AAAA" stroke-width="0" stroke="#A8AAAA" d = " M266 181 L266,182 C266,182 265,181 265,181 265,181 265,172 265,172 265,164.05 265,154.865 265,147 265,147 265,145 265,145 265,138.694 263.598,132.696 261,127.5 261,127.5 252,114 252,114 252,114 253,113 253,113 253,113 255,112 255,112 255,112 257,111 257,111 261.062,111 277,97.784 277,109 277,111.344 268.599,126.302 267,129.5 264.47,134.56 267,163.825 267,172 267,172 267,180 267,180 267,180 266,181 266,181  Z"/>

<path  fill="#98D5F9" stroke-width="0" stroke="#98D5F9" d = " M103 224 L107.5,229 L117,234 C117,234 128.5,236 128.5,236 142.824,228.838 164.072,232.356 173,214.5 176.958,206.583 174.539,183.423 177,178.5 179.6,173.3 185,169.315 185,179 185,179 188,179 188,179 188,179 189,175 189,175 189,172.925 188.203,160 190,160 190,160 190,152 190,152 190,152 189,127.5 189,127.5 189,127.5 180,109 180,109 180,109 175,106 175,106 144.223,106 116.858,116.783 103,144.5 99.8132,150.874 92,159.705 92,167 92,167 91,168 91,168 91,168 91,169 91,169 91,169 90,171 90,171 90,171 90,172 90,172 90,181.939 93,190.736 93,198 93,198 93,200 93,200 94.8555,200 99,213.065 99,215 99,215 99,216 99,216 99,216 101,220 101,220 101,220 101,221 101,221 101,221 103,223 103,223 103,223 103,224 103,224  Z"/>

<path  fill="#98D5F9" stroke-width="0" stroke="#98D5F9" d = " M343 233 C341.952,233 340,232.527 340,234 340,234 328.5,236 328.5,236 313.914,228.707 292.107,232.714 283,214.5 278.66,205.821 283.332,193.165 279,184.5 279,184.5 279,176.5 279,176.5 276.172,170.845 271,173.51 271,179 271,179 269,179 269,179 269,178.031 267.853,172 267,172 267,163.825 264.47,134.56 267,129.5 268.599,126.302 277,111.344 277,109 277,109 281,106 281,106 301.42,106 315.782,110.641 332.5,119 332.5,119 346.5,133 346.5,133 349.964,134.732 358.943,153.386 361,157.5 361.807,159.115 362.736,167 365,167 365,168.424 365.362,172 367,172 367,172 367,175 367,175 367,181.6 365,186.5 365,193 363.421,193 364,195.855 364,197 364,197 363,199 363,199 363,199 363,201 363,201 360.913,201 359,209.909 359,212 359,212 359,213 359,213 359,213 358,215 358,215 358,215 357,217 357,217 357,217 356,219 356,219 356,219 355,221 355,221 355,221 354,223 354,223 354,223 353,224 353,224 353,224 353,225 353,225 351.253,225 351,225.253 351,227 351,227 350,228 350,228 350,228 349,229 349,229 347.583,229 343,231.383 343,233  Z"/>

<path  fill="#1C8064" stroke-width="0" stroke="#1C8064" d = " M135 107 L131,109 C132.465,109 135,109.109 135,107  Z"/>

<path  fill="#1B7F64" stroke-width="0" stroke="#1B7F64" d = " M63 108 L62,109 C62,109 63,108 63,108  Z"/>

<path  fill="#187E61" stroke-width="0" stroke="#187E61" d = " M406 123 L401,126 C398.666,126 399.659,121.819 399,120.5 397.14,116.781 395,113.513 395,109 395,107.857 399.065,112 401,112 401.99,112 406,121.73 406,123  Z"/>

<path  fill="#187E61" stroke-width="0" stroke="#187E61" d = " M55 127 L56,127 C56,120.57 62,115.249 62,109 58.6799,109 58.2638,112 55,112 55,112 51,123 51,123 52.6212,123 55,125.379 55,127  Z"/>

<path  fill="#1C8064" stroke-width="0" stroke="#1C8064" d = " M129 110 L129,111 C129,111 131,109 131,109 131,109 129,110 129,110  Z"/>

<path  fill="#188064" stroke-width="0" stroke="#188064" d = " M127 111 L129,111 C129,111 129,110 129,110 129,110 128,110 128,110 128,110 127,111 127,111  Z"/>

<path  fill="#188064" stroke-width="0" stroke="#188064" d = " M360 149 L361,149 C361,141.054 336.779,110 328,110 328,110 328,111 328,111 334.171,111 351.426,132.351 354,137.5 354,137.5 360,149 360,149  Z"/>

<path  fill="#188064" stroke-width="0" stroke="#188064" d = " M127 111 C125.762,111 124,111.423 124,113 125.238,113 127,112.577 127,111  Z"/>

<path  fill="#AAA8A9" stroke-width="0" stroke="#AAA8A9" d = " M257 111 L255,112 C255,112 257,111 257,111  Z"/>

<path  fill="#AAA8A9" stroke-width="0" stroke="#AAA8A9" d = " M255 112 L253,113 C253,113 255,112 255,112  Z"/>

<path  fill="#188064" stroke-width="0" stroke="#188064" d = " M124 113 C122.762,113 121,113.423 121,115 122.238,115 124,114.577 124,113  Z"/>

<path  fill="#90CBEC" stroke-width="0" stroke="#90CBEC" d = " M191 145 L193,145 C196.081,145 199.338,140.162 201.5,138 205.493,134.007 222,125.346 222,120 222,120 222,119 222,119 222,116.866 207.672,114 205,114 205,114 198,123.5 198,123.5 194.651,130.197 191,136.914 191,145  Z"/>

<path  fill="#90CBEC" stroke-width="0" stroke="#90CBEC" d = " M265 145 L264,146 C260.939,146 260.428,141.964 258.5,141 254.929,139.214 234,122.511 234,120 234,120 234,119 234,119 236.985,119 245.635,114 252,114 252,114 261,127.5 261,127.5 263.598,132.696 265,138.694 265,145  Z"/>

<path  fill="#188064" stroke-width="0" stroke="#188064" d = " M119 117 L121,117 C121,117 121,115 121,115 119.253,115 119,115.253 119,117  Z"/>

<path  fill="#188064" stroke-width="0" stroke="#188064" d = " M96 149 L97,149 C97,149 98,147 98,147 98,147 99,145 99,145 99,143.428 101.052,138 103,138 103,136.762 103.423,135 105,135 105,133.762 105.423,132 107,132 107,130.438 109.189,127 111,127 111,122.783 119,120.741 119,117 114.175,117 95,143.992 95,148 95,148 95,149 95,149 95,149 96,149 96,149  Z"/>

<path  fill="#C9C9CA" stroke-width="0" stroke="#C9C9CA" d = " M121 117 C121,118.189 112.993,127 111,127 111,122.783 119,120.741 119,117 119,117 121,117 121,117  Z"/>

<path  fill="#97D6F9" stroke-width="0" stroke="#97D6F9" d = " M227 119 C227,120.919 229,121.488 229,119 229,117.601 227,117.601 227,119  Z"/>

<path  fill="#97D6F9" stroke-width="0" stroke="#97D6F9" d = " M223 119 L222,120 C222,120 222,119 222,119 222,119 223,119 223,119  Z"/>

<path  fill="#90CAED" stroke-width="0" stroke="#90CAED" d = " M265 172 C263.053,172 261.356,168.572 258.5,170 256.581,170.96 249.757,175 248,175 248,170.715 246.86,164.221 245,160.5 244.254,159.007 245.729,154 243,154 243,152.428 240.948,147 239,147 239,142.576 232.914,138.328 231,134.5 231,134.5 228.5,128 228.5,128 228.5,128 226,132.5 226,132.5 225.034,133.466 217,146.003 217,147 217,147 216,148 216,148 216,148 215,149 215,149 215,149 213,155 213,155 211.647,155 211,159.643 211,161 211,165.703 209,170.513 209,176 209,176 202.5,171 202.5,171 198.951,169.226 195.245,171 192,171 191.114,171 190,161.272 190,160 190,160 190,152 190,152 191.579,152 191,149.145 191,148 192.577,148 193,146.238 193,145 196.081,145 199.338,140.162 201.5,138 205.493,134.007 222,125.346 222,120 222,120 223,119 223,119 223,119 227,119 227,119 227,120.919 229,121.488 229,119 229,119 233,119 233,119 233,119 234,120 234,120 234,122.511 254.929,139.214 258.5,141 260.428,141.964 260.939,146 264,146 264,146 265,147 265,147 265,154.865 265,164.05 265,172  Z"/>

<path  fill="#97D6F9" stroke-width="0" stroke="#97D6F9" d = " M234 119 L234,120 C234,120 233,119 233,119 233,119 234,119 234,119  Z"/>

<path  fill="#1A7E62" stroke-width="0" stroke="#1A7E62" d = " M42 177 L47,177 C47,171.954 44.8811,155.738 47,151.5 49.083,147.334 55,131.211 55,127 55,125.379 52.6212,123 51,123 51,125.279 44.426,141.648 43,144.5 40.1243,150.251 42,169.916 42,177  Z"/>

<path  fill="#1A7E62" stroke-width="0" stroke="#1A7E62" d = " M409 177 L414,177 C414,169.045 416.457,148.414 413,141.5 413,141.5 406,123 406,123 406,123 401,126 401,126 401,126 401,127 401,127 401,127 407,141.5 407,141.5 409.67,146.84 410,157.279 410,163.5 410,165.366 410.784,176 409,176 409,176 409,177 409,177  Z"/>

<path  fill="#1B8063" stroke-width="0" stroke="#1B8063" d = " M56 175 L47,177 C47,171.954 44.8811,155.738 47,151.5 49.083,147.334 55,131.211 55,127 55,127 56,127 56,127 58.9516,127 61.4524,131 65,131 65,131 65,133 65,133 62.6014,133 61.8679,141.764 61,143.5 56.3732,152.754 56,163.809 56,175  Z"/>

<path  fill="#C9C9CA" stroke-width="0" stroke="#C9C9CA" d = " M111 127 C109.189,127 107,130.438 107,132 108.811,132 111,128.562 111,127  Z"/>

<path  fill="#1B8063" stroke-width="0" stroke="#1B8063" d = " M401 175 C403.097,175 406.293,176 409,176 410.784,176 410,165.366 410,163.5 410,157.279 409.67,146.84 407,141.5 407,141.5 401,127 401,127 397.518,127 395.29,132 392,132 392,136.105 395.203,141.906 397,145.5 400.809,153.118 401,165.981 401,175  Z"/>

<path  fill="#8FCBEC" stroke-width="0" stroke="#8FCBEC" d = " M215 189 C218.786,189 217.877,194.311 222.5,192 225.013,190.743 226.748,182 228.5,182 L229,184.5 C230.595,187.69 232.107,191.303 235.5,193 238.59,194.545 239.415,189 241,189 241,184.021 247,180.482 247,176 247,176 248,175 248,175 248,170.715 246.86,164.221 245,160.5 244.254,159.007 245.729,154 243,154 243,154 243,157 243,157 243,167.574 230.78,147 239,147 239,142.576 232.914,138.328 231,134.5 231,134.5 228.5,128 228.5,128 228.5,128 226,132.5 226,132.5 225.034,133.466 217,146.003 217,147 226.241,147 213,169.46 213,155 211.647,155 211,159.643 211,161 211,165.703 209,170.513 209,176 209,180.181 215,183.766 215,189  Z"/>

<path  fill="#C9C9CA" stroke-width="0" stroke="#C9C9CA" d = " M107 132 C105.423,132 105,133.762 105,135 106.577,135 107,133.238 107,132  Z"/>

<path  fill="#187C63" stroke-width="0" stroke="#187C63" d = " M395 175 L401,175 C401,165.981 400.809,153.118 397,145.5 395.203,141.906 392,136.105 392,132 392,132 391,132 391,132 391,133.712 388.429,135 387,135 387,135 387,136 387,136 387,139.771 389.388,144.277 391,147.5 393.45,152.401 395,168.634 395,175  Z"/>

<path  fill="#187C63" stroke-width="0" stroke="#187C63" d = " M56 175 L61,175 C61,165.61 63.0144,153.471 67,145.5 67.7187,144.063 68.3425,136 70,136 70,136 70,135 70,135 66.9592,135 67.5227,133 65,133 62.6014,133 61.8679,141.764 61,143.5 56.3732,152.754 56,163.809 56,175  Z"/>

<path  fill="#C9C9CA" stroke-width="0" stroke="#C9C9CA" d = " M105 135 C103.423,135 103,136.762 103,138 104.577,138 105,136.238 105,135  Z"/>

<path  fill="#1C8063" stroke-width="0" stroke="#1C8063" d = " M61 175 C65.5518,175 70.5647,175 74,175 74,175 74,174 74,174 74,166.255 73.7589,155.982 77,149.5 77,149.5 80,141 80,141 80,141 70,136 70,136 68.3425,136 67.7187,144.063 67,145.5 63.0144,153.471 61,165.61 61,175  Z"/>

<path  fill="#1C8063" stroke-width="0" stroke="#1C8063" d = " M382 175 C385.614,175 390.328,175 395,175 395,168.634 393.45,152.401 391,147.5 389.388,144.277 387,139.771 387,136 387,136 376,141 376,141 376,141 381,155.5 381,155.5 383.394,160.288 382,169.339 382,175  Z"/>

<path  fill="#C9C9CA" stroke-width="0" stroke="#C9C9CA" d = " M103 138 C101.052,138 99,143.428 99,145 100.948,145 103,139.572 103,138  Z"/>

<path  fill="#197D63" stroke-width="0" stroke="#197D63" d = " M84 175 L87,175 C87,175 95,149 95,149 95,149 95,148 95,148 95,148 81,141 81,141 81,141 80,141 80,141 80,141 77,149.5 77,149.5 73.7589,155.982 74,166.255 74,174 76.5998,174 80.8765,175 83,175 83,173.814 84,173.814 84,175  Z"/>

<path  fill="#197D63" stroke-width="0" stroke="#197D63" d = " M373 175 C375.526,175 378.577,175 382,175 382,169.339 383.394,160.288 381,155.5 381,155.5 376,141 376,141 376,141 373.5,143 373.5,143 371.623,143.939 362,146.742 362,149 362,158.245 369,165.799 369,175 369,175 373,175 373,175  Z"/>

<path  fill="#C9C9CA" stroke-width="0" stroke="#C9C9CA" d = " M99 145 L98,147 C98,147 99,145 99,145  Z"/>

<path  fill="#97D6F9" stroke-width="0" stroke="#97D6F9" d = " M193 145 C193,146.238 192.577,148 191,148 191,148 191,145 191,145 191,145 193,145 193,145  Z"/>

<path  fill="#97D6F9" stroke-width="0" stroke="#97D6F9" d = " M264 146 L265,147 C265,147 265,145 265,145 265,145 264,146 264,146  Z"/>

<path  fill="#C9C9CA" stroke-width="0" stroke="#C9C9CA" d = " M98 147 L97,149 C97,149 98,147 98,147  Z"/>

<path  fill="#CBC8CB" stroke-width="0" stroke="#CBC8CB" d = " M215 149 L213,155 C213,169.46 226.241,147 217,147 217,147 216,148 216,148 216,148 215,149 215,149  Z"/>

<path  fill="#CBC8CB" stroke-width="0" stroke="#CBC8CB" d = " M239 147 C240.948,147 243,152.428 243,154 243,154 243,157 243,157 243,167.574 230.78,147 239,147  Z"/>

<path  fill="#8FCBEC" stroke-width="0" stroke="#8FCBEC" d = " M216 148 L215,149 C215,149 216,148 216,148  Z"/>

<path  fill="#1A8061" stroke-width="0" stroke="#1A8061" d = " M87 175 L89,175 C89,173.952 88.5271,172 90,172 90,172 90,171 90,171 90,171 91,169 91,169 91,169 91,168 91,168 91,168 91,167 91,167 91,162.125 95,158.875 95,154 95,154 96,152 96,152 96,152 96,149 96,149 96,149 95,149 95,149 95,149 87,175 87,175  Z"/>

<path  fill="#C9C9CA" stroke-width="0" stroke="#C9C9CA" d = " M97 149 C97,150.048 97.4729,152 96,152 96,152 96,149 96,149 96,149 97,149 97,149  Z"/>

<path  fill="#1A8061" stroke-width="0" stroke="#1A8061" d = " M368 175 L369,175 C369,165.799 362,158.245 362,149 362,149 361,149 361,149 361,149 360,149 360,149 360,149 361,153 361,153 361,153 362,157 362,157 362,157 363,158 363,158 363,161.489 365,163.32 365,167 366.014,167 367,170.959 367,172 367,172 367,175 367,175 367,175 368,175 368,175  Z"/>

<path  fill="#C9C9CA" stroke-width="0" stroke="#C9C9CA" d = " M96 152 L95,154 C95,154 96,152 96,152  Z"/>

<path  fill="#C9C9CA" stroke-width="0" stroke="#C9C9CA" d = " M362 157 L363,158 C363,158 362,157 362,157  Z"/>

<path  fill="#A8AAAA" stroke-width="0" stroke="#A8AAAA" d = " M191 182 L192,182 C192,182 192,171 192,171 191.114,171 190,161.272 190,160 188.203,160 189,172.925 189,175 190.684,175 190,179.679 190,181 190,181 191,182 191,182  Z"/>

<path  fill="#C8CBCC" stroke-width="0" stroke="#C8CBCC" d = " M92 167 L91,168 C91,168 91,167 91,167 91,167 92,167 92,167  Z"/>

<path  fill="#C8CBCC" stroke-width="0" stroke="#C8CBCC" d = " M365 167 C366.014,167 367,170.959 367,172 365.362,172 365,168.424 365,167  Z"/>

<path  fill="#C8CBCC" stroke-width="0" stroke="#C8CBCC" d = " M91 169 L90,171 C90,171 91,169 91,169  Z"/>

<path  fill="#8FCBED" stroke-width="0" stroke="#8FCBED" d = " M200 193 L201,193 C205.28,193 215,201.466 215,189 215,183.766 209,180.181 209,176 209,176 202.5,171 202.5,171 198.951,169.226 195.245,171 192,171 192,171 192,182 192,182 192.235,182 200,191.586 200,193  Z"/>

<path  fill="#8FCBED" stroke-width="0" stroke="#8FCBED" d = " M256 193 L255,194 C249.873,194 241,198.736 241,189 241,184.021 247,180.482 247,176 247,176 248,175 248,175 249.757,175 256.581,170.96 258.5,170 261.356,168.572 263.053,172 265,172 265,172 265,181 265,181 265,181 263,185 263,185 263,185 262,186 262,186 262,186 261,187 261,187 261,187 259,190 259,190 259,190 258,191 258,191 258,191 257,192 257,192 257,192 256,193 256,193  Z"/>

<path  fill="#C8CBCC" stroke-width="0" stroke="#C8CBCC" d = " M92 198 L93,198 C93,190.736 90,181.939 90,172 88.5271,172 89,173.952 89,175 89,180.93 90,186.168 90,191 90,191 91,195 91,195 91,195 92,197 92,197 92,197 92,198 92,198  Z"/>

<path  fill="#97D6F9" stroke-width="0" stroke="#97D6F9" d = " M269 179 L267,180 C267,180 267,172 267,172 267.853,172 269,178.031 269,179  Z"/>

<path  fill="#97D6F9" stroke-width="0" stroke="#97D6F9" d = " M139 255 C139,258.362 130.896,264 128,264 128,264 130,261.5 130,261.5 131.186,259.127 128.013,250.526 127,248.5 125.782,246.064 119,240.796 119,239 119,237.571 117.712,235 116,235 116,235 117,234 117,234 117,234 128.5,236 128.5,236 142.824,228.838 164.072,232.356 173,214.5 176.958,206.583 174.539,183.423 177,178.5 179.6,173.3 185,169.315 185,179 185,179 184,181 184,181 184,181 183,182 183,182 183,182 183,183 183,183 183,183 180,187 180,187 180,186.009 178,193.766 178,197 178,197 177,198 177,198 177,198 175,217 175,217 170.242,217 168.747,222 176,222 176,222 178,224 178,224 178,224 176,229 176,229 171.988,229 168.572,234 165,234 165,234 170,224.5 170,224.5 169.402,223.303 165.323,224.589 164.5,225 164.5,225 152.5,233 152.5,233 150.14,234.18 146.942,233.779 144.5,235 143.406,235.547 128.486,237 127,237 125.872,237 121,237.101 121,238.5 121,240.376 133.957,255 139,255  Z"/>

<path  fill="#97D6F9" stroke-width="0" stroke="#97D6F9" d = " M317 255 C317,257.98 325.507,264 328,264 328,264 326,260.5 326,260.5 326,256.642 328.324,250.852 330,247.5 330,247.5 337,239 337,239 337,239 341,234 341,234 341,234 340,234 340,234 340,234 328.5,236 328.5,236 313.914,228.707 292.107,232.714 283,214.5 278.66,205.821 283.332,193.165 279,184.5 279,184.5 279,176.5 279,176.5 276.172,170.845 271,173.51 271,179 271,179 273,182 273,182 273,182 277,187 277,187 278.484,187 279,195.263 279,197 279,197 281,217 281,217 286.044,217 288.538,222 280,222 280,222 279,224 279,224 279,226.25 281,227.376 281,229 286.113,229 290.447,237 295,237 295,233.083 286,229.062 286,224.5 286,223.365 291.015,224.758 291.5,225 291.5,225 304.5,233 304.5,233 313.217,237.359 325.779,233.639 334.5,238 334.5,238 330.5,244 330.5,244 325.951,248.549 324.771,255 317,255  Z"/>

<path  fill="#12AD82" stroke-width="0" stroke="#12AD82" d = " M74 177 C69.6972,177 65.0589,181 61,181 61,181 61,175 61,175 65.5518,175 70.5647,175 74,175 74,175 74,177 74,177  Z"/>

<path  fill="#11AC83" stroke-width="0" stroke="#11AC83" d = " M83 175 C83,175.981 75.2425,177 74,177 74,177 74,175 74,175 74,175 74,174 74,174 76.5998,174 80.8765,175 83,175  Z"/>

<path  fill="#11AC83" stroke-width="0" stroke="#11AC83" d = " M83 175 L84,175 C84,173.814 83,173.814 83,175  Z"/>

<path  fill="#11AC83" stroke-width="0" stroke="#11AC83" d = " M382 175 L382,177 C380.758,177 373,175.981 373,175 375.526,175 378.577,175 382,175  Z"/>

<path  fill="#12AD82" stroke-width="0" stroke="#12AD82" d = " M382 177 C386.418,177 390.962,181 395,181 395,181 395,175 395,175 390.328,175 385.614,175 382,175 382,175 382,177 382,177  Z"/>

<path  fill="#12AC83" stroke-width="0" stroke="#12AC83" d = " M56 183 C53.1672,183 51.1595,185 49,185 49,185 47,177 47,177 47,177 56,175 56,175 56,175 56,182 56,182 56,182 56,183 56,183  Z"/>

<path  fill="#11AC82" stroke-width="0" stroke="#11AC82" d = " M61 181 L56,182 C56,182 56,175 56,175 56,175 61,175 61,175 61,175 61,181 61,181  Z"/>

<path  fill="#009B74" stroke-width="0" stroke="#009B74" d = " M85 193 L77,194 C77,188.959 74,182.762 74,177 75.2425,177 83,175.981 83,175 83,175 84,175 84,175 84,175 87,175 87,175 87,180.649 89,186.352 89,191 87.5345,191 85,190.891 85,193  Z"/>

<path  fill="#019C74" stroke-width="0" stroke="#019C74" d = " M89 191 L90,191 C90,186.168 89,180.93 89,175 89,175 87,175 87,175 87,180.649 89,186.352 89,191  Z"/>

<path  fill="#97D6F9" stroke-width="0" stroke="#97D6F9" d = " M188 179 L190,181 C190,179.679 190.684,175 189,175 189,175 188,179 188,179  Z"/>

<path  fill="#90CAED" stroke-width="0" stroke="#90CAED" d = " M248 175 L247,176 C247,176 248,175 248,175  Z"/>

<path  fill="#C8CBCC" stroke-width="0" stroke="#C8CBCC" d = " M365 193 L366,193 C366,193 366,192 366,192 366,192 367,191 367,191 367,185.861 368,180.605 368,175 368,175 367,175 367,175 367,181.6 365,186.5 365,193  Z"/>

<path  fill="#019C74" stroke-width="0" stroke="#019C74" d = " M367 191 L368,191 C368,186.266 369,180.356 369,175 369,175 368,175 368,175 368,180.605 367,185.861 367,191  Z"/>

<path  fill="#009B74" stroke-width="0" stroke="#009B74" d = " M379 194 L380,194 C380,188.334 382,183.156 382,177 380.758,177 373,175.981 373,175 373,175 369,175 369,175 369,180.356 368,186.266 368,191 368,191 372,193 372,193 372,193 379,194 379,194  Z"/>

<path  fill="#11AC82" stroke-width="0" stroke="#11AC82" d = " M395 181 L400,182 C400,182 401,175 401,175 401,175 395,175 395,175 395,175 395,181 395,181  Z"/>

<path  fill="#12AC83" stroke-width="0" stroke="#12AC83" d = " M407 185 L408,185 C408,185 409,177 409,177 409,177 409,176 409,176 406.293,176 403.097,175 401,175 401,175 400,182 400,182 401.176,182 407,184.114 407,185  Z"/>

<path  fill="#12AD83" stroke-width="0" stroke="#12AD83" d = " M49 185 L45,187 C45,187 42,177 42,177 42,177 47,177 47,177 47,177 49,185 49,185  Z"/>

<path  fill="#019C75" stroke-width="0" stroke="#019C75" d = " M64 196 L65,196 C65,196 77,194 77,194 77,188.959 74,182.762 74,177 69.6972,177 65.0589,181 61,181 61,181 64,196 64,196  Z"/>

<path  fill="#019C75" stroke-width="0" stroke="#019C75" d = " M380 194 L392,196 C392,191.188 395,186.673 395,181 390.962,181 386.418,177 382,177 382,183.156 380,188.334 380,194  Z"/>

<path  fill="#12AD83" stroke-width="0" stroke="#12AD83" d = " M408 185 C409.238,185 411,185.423 411,187 412.931,187 414,178.698 414,177 414,177 409,177 409,177 409,177 408,185 408,185  Z"/>

<path  fill="#B3C0DE" stroke-width="0" stroke="#B3C0DE" d = " M197 206 C190.877,206 185.336,216 179,216 179,203.931 183,194.448 183,183 183,183 183,182 183,182 183,182 184,181 184,181 184,181 185,179 185,179 185,179 188,179 188,179 188,179 190,181 190,181 190,181 191,182 191,182 191,183.72 198.864,193 200,193 200,193 201,193 201,193 201,196.78 206,200.596 206,205 202.296,205 199.295,206 197,206  Z"/>

<path  fill="#B3C0DE" stroke-width="0" stroke="#B3C0DE" d = " M259 206 C265.4,206 270.628,216 277,216 277,202.863 273,193.127 273,182 273,182 271,179 271,179 271,179 269,179 269,179 269,179 267,180 267,180 267,180 266,181 266,181 266,181 266,182 266,182 266,182 263,185 263,185 263,185 262,186 262,186 262,186 261,187 261,187 261,187 259,190 259,190 259,190 258,191 258,191 258,191 257,192 257,192 257,192 256,193 256,193 256,193 255,194 255,194 255,197.382 251,199.741 251,204 254.091,204 256.478,206 259,206  Z"/>

<path  fill="#97D6F9" stroke-width="0" stroke="#97D6F9" d = " M267 180 L266,181 C266,181 267,180 267,180  Z"/>

<path  fill="#009C74" stroke-width="0" stroke="#009C74" d = " M64 196 L62,197 C62,197 57,187.5 57,187.5 56.4264,186.353 58.0638,183 56,183 56,183 56,182 56,182 56,182 61,181 61,181 61,181 64,196 64,196  Z"/>

<path  fill="#8599CC" stroke-width="0" stroke="#8599CC" d = " M184 181 L183,182 C183,182 184,181 184,181  Z"/>

<path  fill="#97D6F9" stroke-width="0" stroke="#97D6F9" d = " M266 182 L263,185 C263,185 265,181 265,181 265,181 266,182 266,182  Z"/>

<path  fill="#009C74" stroke-width="0" stroke="#009C74" d = " M392 196 L395,197 C395,191.884 400,187.688 400,182 400,182 395,181 395,181 395,186.673 392,191.188 392,196  Z"/>

<path  fill="#97D6F9" stroke-width="0" stroke="#97D6F9" d = " M192 182 C192.235,182 200,191.586 200,193 198.864,193 191,183.72 191,182 191,182 192,182 192,182  Z"/>

<path  fill="#97D6F9" stroke-width="0" stroke="#97D6F9" d = " M206 205 C210.549,205 214.872,207 220,207 220,207 223,204.5 223,204.5 223.636,203.228 224.45,197 226,197 226,190.425 231,194.328 231,199 232.845,199 232.441,202.381 233,203.5 233,203.5 237,207 237,207 239.37,207 251,206.584 251,204 251,199.741 255,197.382 255,194 249.873,194 241,198.736 241,189 239.415,189 238.59,194.545 235.5,193 232.107,191.303 230.595,187.69 229,184.5 229,184.5 228.5,182 228.5,182 226.748,182 225.013,190.743 222.5,192 217.877,194.311 218.786,189 215,189 215,201.466 205.28,193 201,193 201,196.78 206,200.596 206,205  Z"/>

<path  fill="#8599CC" stroke-width="0" stroke="#8599CC" d = " M277 216 L281,217 C281,217 279,197 279,197 275.837,197 277,189.129 277,187 277,187 273,182 273,182 273,193.127 277,202.863 277,216  Z"/>

<path  fill="#009B75" stroke-width="0" stroke="#009B75" d = " M402 199 L403,199 C403,193.988 407,190.35 407,185 407,184.114 401.176,182 400,182 400,187.688 395,191.884 395,197 395,197 402,199 402,199  Z"/>

<path  fill="#009B75" stroke-width="0" stroke="#009B75" d = " M62 197 C58.9087,197 56.5219,199 54,199 54,199 49,185 49,185 51.1595,185 53.1672,183 56,183 58.0638,183 56.4264,186.353 57,187.5 57,187.5 62,197 62,197  Z"/>

<path  fill="#8599CC" stroke-width="0" stroke="#8599CC" d = " M179 216 L175,217 C175,217 177,198 177,198 177,198 178,197 178,197 179.888,197 180,188.928 180,187 180,187 183,183 183,183 183,194.448 179,203.931 179,216  Z"/>

<path  fill="#009C75" stroke-width="0" stroke="#009C75" d = " M54 199 L50,200 C50,200 45,187 45,187 45,187 49,185 49,185 49,185 54,199 54,199  Z"/>

<path  fill="#97D6F9" stroke-width="0" stroke="#97D6F9" d = " M263 185 L262,186 C262,186 263,185 263,185  Z"/>

<path  fill="#009C75" stroke-width="0" stroke="#009C75" d = " M403 199 L407,200 C407,195.415 411,192.043 411,187 411,185.423 409.238,185 408,185 408,185 407,185 407,185 407,190.35 403,193.988 403,199  Z"/>

<path  fill="#CCCCCC" stroke-width="0" stroke="#CCCCCC" d = " M180 187 C180,188.928 179.888,197 178,197 178,193.766 180,186.009 180,187  Z"/>

<path  fill="#97D6F9" stroke-width="0" stroke="#97D6F9" d = " M262 186 L261,187 C261,187 262,186 262,186  Z"/>

<path  fill="#CCCCCC" stroke-width="0" stroke="#CCCCCC" d = " M277 187 C278.484,187 279,195.263 279,197 275.837,197 277,189.129 277,187  Z"/>

<path  fill="#97D6F9" stroke-width="0" stroke="#97D6F9" d = " M259 190 L258,191 C258,191 259,190 259,190  Z"/>

<path  fill="#8ADA86" stroke-width="0" stroke="#8ADA86" d = " M93 208 C93,209.473 91.0479,209 90,209 81.4351,209 85,197.796 85,193 85,190.891 87.5345,191 89,191 89,191 90,191 90,191 90,191 91,195 91,195 91,195 92,197 92,197 92,197 92,198 92,198 92,198 93,200 93,200 93,200 93,202 93,202 93,202 93,207 93,207 93,207 93,208 93,208  Z"/>

<path  fill="#97D6F9" stroke-width="0" stroke="#97D6F9" d = " M258 191 L257,192 C257,192 258,191 258,191  Z"/>

<path  fill="#209766" stroke-width="0" stroke="#209766" d = " M367 191 L366,192 C366,192 367,191 367,191  Z"/>

<path  fill="#8ADA86" stroke-width="0" stroke="#8ADA86" d = " M363 208 L367,209 C374.317,209 372,196.887 372,193 372,193 368,191 368,191 368,191 367,191 367,191 367,191 366,192 366,192 366,192 366,193 366,193 366,193 365,194 365,194 365,194 365,197 365,197 365,197 364,198 364,198 364,198 364,199 364,199 364,200.048 364.473,202 363,202 363,202 363,206 363,206 363,206 363,207 363,207 363,207 363,208 363,208  Z"/>

<path  fill="#97D6F9" stroke-width="0" stroke="#97D6F9" d = " M257 192 L256,193 C256,193 257,192 257,192  Z"/>

<path  fill="#209766" stroke-width="0" stroke="#209766" d = " M88 211 L84,213 C84,213 77,194 77,194 77,194 85,193 85,193 85,197.796 81.4351,209 90,209 90,209 88,211 88,211  Z"/>

<path  fill="#FF5445" stroke-width="0" stroke="#FF5445" d = " M226 197 C226,207.181 231,209.593 231,199 231,194.328 226,190.425 226,197  Z"/>

<path  fill="#97D6F9" stroke-width="0" stroke="#97D6F9" d = " M256 193 L255,194 C255,194 256,193 256,193  Z"/>

<path  fill="#C8CBCC" stroke-width="0" stroke="#C8CBCC" d = " M364 197 L365,197 C365,197 365,194 365,194 365,194 365,193 365,193 363.421,193 364,195.855 364,197  Z"/>

<path  fill="#209766" stroke-width="0" stroke="#209766" d = " M366 193 L365,194 C365,194 365,193 365,193 365,193 366,193 366,193  Z"/>

<path  fill="#209766" stroke-width="0" stroke="#209766" d = " M368 211 L372,213 C372,206.589 379,200.77 379,194 379,194 372,193 372,193 372,196.887 374.317,209 367,209 367,209 368,211 368,211  Z"/>

<path  fill="#219864" stroke-width="0" stroke="#219864" d = " M82 215 L77,216 C77,211.145 65,203.789 65,196 65,196 77,194 77,194 77,194 84,213 84,213 84,213 82,215 82,215  Z"/>

<path  fill="#219864" stroke-width="0" stroke="#219864" d = " M375 215 L379,215 C382.225,215 392,198.8 392,196 392,196 380,194 380,194 380,194 379,194 379,194 379,200.77 372,206.589 372,213 372,213 375,215 375,215  Z"/>

<path  fill="#209766" stroke-width="0" stroke="#209766" d = " M91 195 L92,197 C92,197 91,195 91,195  Z"/>

<path  fill="#209865" stroke-width="0" stroke="#209865" d = " M77 216 L68,219 C65.2871,219 54,201.493 54,199 56.5219,199 58.9087,197 62,197 62,197 64,196 64,196 64,196 65,196 65,196 65,203.789 77,211.145 77,216  Z"/>

<path  fill="#209865" stroke-width="0" stroke="#209865" d = " M379 215 L389,220 C389,218.062 402,203.852 402,199 402,199 395,197 395,197 395,197 392,196 392,196 392,198.8 382.225,215 379,215  Z"/>

<path  fill="#CCCCCC" stroke-width="0" stroke="#CCCCCC" d = " M178 197 L177,198 C177,198 178,197 178,197  Z"/>

<path  fill="#CAC7CB" stroke-width="0" stroke="#CAC7CB" d = " M229 218 C234.163,218 239.237,218 245,218 245,215.787 237.174,213.837 235.5,213 233.573,212.037 234.88,207 237,207 237,207 233,203.5 233,203.5 232.441,202.381 232.845,199 231,199 231,209.593 226,207.181 226,197 224.45,197 223.636,203.228 223,204.5 223,204.5 220,207 220,207 222.077,207 221.115,213.192 219.5,214 217.817,214.842 211,215.33 211,218 216.763,218 221.837,218 227,218 227.839,218 229,216.07 229,218  Z"/>

<path  fill="#C8CBCC" stroke-width="0" stroke="#C8CBCC" d = " M363 199 L364,199 C364,199 364,198 364,198 364,198 364,197 364,197 364,197 363,199 363,199  Z"/>

<path  fill="#209766" stroke-width="0" stroke="#209766" d = " M365 197 L364,198 C364,198 364,197 364,197 364,197 365,197 365,197  Z"/>

<path  fill="#209766" stroke-width="0" stroke="#209766" d = " M93 198 L93,200 C93,200 92,198 92,198 92,198 93,198 93,198  Z"/>

<path  fill="#219765" stroke-width="0" stroke="#219765" d = " M68 219 L62,222 C62,219.74 50,205.379 50,200 50,200 54,199 54,199 54,201.493 65.2871,219 68,219  Z"/>

<path  fill="#209766" stroke-width="0" stroke="#209766" d = " M363 201 L363,202 C364.473,202 364,200.048 364,199 364,199 363,199 363,199 363,199 363,201 363,201  Z"/>

<path  fill="#219765" stroke-width="0" stroke="#219765" d = " M389 220 L395,222 C395,216.819 407,205.784 407,200 407,200 403,199 403,199 403,199 402,199 402,199 402,203.852 389,218.062 389,220  Z"/>

<path  fill="#C8CBCC" stroke-width="0" stroke="#C8CBCC" d = " M95 209 C95,209.853 97.9917,215 99,215 99,213.065 94.8555,200 93,200 93,200 93,202 93,202 94.5658,202 94.5658,207 93,207 93,207 93,208 93,208 93,208 94,208 94,208 94,208 95,209 95,209  Z"/>

<path  fill="#C8CBCC" stroke-width="0" stroke="#C8CBCC" d = " M362 209 L359,212 C359,209.909 360.913,201 363,201 363,201 363,202 363,202 363,202 363,206 363,206 361.814,206 361.814,207 363,207 363,207 363,208 363,208 363,208 362,209 362,209  Z"/>

<path  fill="#209766" stroke-width="0" stroke="#209766" d = " M93 202 C94.5658,202 94.5658,207 93,207 93,207 93,202 93,202  Z"/>

<path  fill="#CBCBC7" stroke-width="0" stroke="#CBCBC7" d = " M209 218 L211,218 C211,215.33 217.817,214.842 219.5,214 221.115,213.192 222.077,207 220,207 214.872,207 210.549,205 206,205 202.296,205 199.295,206 197,206 197,211.528 203,215.279 203,219 205.124,219 207.436,218 209,218  Z"/>

<path  fill="#CBCBC7" stroke-width="0" stroke="#CBCBC7" d = " M247 218 L253,219 C253,215.894 259,213.179 259,206 256.478,206 254.091,204 251,204 251,206.584 239.37,207 237,207 234.88,207 233.573,212.037 235.5,213 237.174,213.837 245,215.787 245,218 245,218 247,218 247,218  Z"/>

<path  fill="#C9C9C9" stroke-width="0" stroke="#C9C9C9" d = " M179 221 L176,222 C168.747,222 170.242,217 175,217 175,217 179,216 179,216 185.336,216 190.877,206 197,206 197,211.528 203,215.279 203,219 194.462,219 186.724,221 179,221  Z"/>

<path  fill="#C9C9C9" stroke-width="0" stroke="#C9C9C9" d = " M277 221 L280,222 C288.538,222 286.044,217 281,217 281,217 277,216 277,216 270.628,216 265.4,206 259,206 259,213.179 253,215.894 253,219 261.538,219 269.276,221 277,221  Z"/>

<path  fill="#209766" stroke-width="0" stroke="#209766" d = " M363 206 C361.814,206 361.814,207 363,207 363,207 363,206 363,206  Z"/>

<path  fill="#A0EE9C" stroke-width="0" stroke="#A0EE9C" d = " M100 231 L103,231 C103,231 105,228 105,228 105,228 103,224 103,224 103,224 103,223 103,223 103,223 101,221 101,221 101,221 101,220 101,220 101,220 99,216 99,216 99,216 99,215 99,215 97.9917,215 95,209.853 95,209 95,209 94,208 94,208 94,208 93,208 93,208 93,209.473 91.0479,209 90,209 90,209 88,211 88,211 88,211 87,219 87,219 87,219 87,220 87,220 87,220 89,222 89,222 89,222 89,223 89,223 89,223 91,225 91,225 91,225 93,227 93,227 93,227 95,229 95,229 95,229 96,229 96,229 96,229 97,230 97,230 97,230 98,230 98,230 98,230 99,231 99,231 99,231 100,231 100,231  Z"/>

<path  fill="#8AD987" stroke-width="0" stroke="#8AD987" d = " M94 208 L95,209 C95,209 94,208 94,208  Z"/>

<path  fill="#8AD987" stroke-width="0" stroke="#8AD987" d = " M363 208 L362,209 C362,209 363,208 363,208  Z"/>

<path  fill="#A0EE9C" stroke-width="0" stroke="#A0EE9C" d = " M354 231 L357,231 C357,231 359,230 359,230 359,230 360,229 360,229 360,229 361,229 361,229 361,229 362,228 362,228 362,228 364,227 364,227 364,227 365,226 365,226 365,226 366,225 366,225 366,225 367,224 367,224 367,224 367,223 367,223 367,223 368,222 368,222 368,222 369,219 369,219 369,216.293 368,213.097 368,211 368,211 367,209 367,209 367,209 363,208 363,208 363,208 362,209 362,209 362,209 359,212 359,212 359,212 359,213 359,213 359,213 358,215 358,215 358,215 357,217 357,217 357,217 356,219 356,219 356,219 355,221 355,221 355,221 354,223 354,223 354,223 353,224 353,224 353,224 353,225 353,225 353,225 352,227 352,227 352,227 354,231 354,231  Z"/>

<path  fill="#99D2BD" stroke-width="0" stroke="#99D2BD" d = " M82 215 C84.359,215 85.6979,219 87,219 87,219 88,211 88,211 88,211 84,213 84,213 84,213 82,215 82,215  Z"/>

<path  fill="#99D2BD" stroke-width="0" stroke="#99D2BD" d = " M375 215 C372.227,215 371.33,219 369,219 369,216.293 368,213.097 368,211 368,211 372,213 372,213 372,213 375,215 375,215  Z"/>

<path  fill="#C8CBCC" stroke-width="0" stroke="#C8CBCC" d = " M359 213 L358,215 C358,215 359,213 359,213  Z"/>

<path  fill="#6ACAB9" stroke-width="0" stroke="#6ACAB9" d = " M119 275 L117,276 C109.697,276 100.894,266 95,266 95,266 86,256.5 86,256.5 81.0707,251.571 62,227.78 62,222 62,222 68,219 68,219 68,219 77,216 77,216 77,216 82,215 82,215 84.359,215 85.6979,219 87,219 87,219 87,220 87,220 87,220 89,222 89,222 89,222 89,223 89,223 89,223 91,225 91,225 91,225 93,227 93,227 93,227 95,229 95,229 95,229 96,229 96,229 96,229 97,230 97,230 97,230 98,230 98,230 98,230 99,231 99,231 99,231 100,231 100,231 100,233.341 102.342,232.421 103.5,233 103.5,233 116.5,241 116.5,241 124.499,244.999 126,256.287 126,265 122.847,265 120,271.688 120,274 120,274 119,275 119,275  Z"/>

<path  fill="#C8CBCC" stroke-width="0" stroke="#C8CBCC" d = " M358 215 L357,217 C357,217 358,215 358,215  Z"/>

<path  fill="#6ACAB9" stroke-width="0" stroke="#6ACAB9" d = " M337 275 L339,276 C346.142,276 351.496,270.002 357.5,267 358.278,266.611 361,265.039 361,267 361,267 369.5,257 369.5,257 376.516,249.984 383.105,241.29 387,233.5 388.505,230.491 395,226.427 395,222 395,222 389,220 389,220 389,220 379,215 379,215 379,215 375,215 375,215 372.227,215 371.33,219 369,219 369,219 368,222 368,222 368,222 367,223 367,223 367,223 367,224 367,224 367,224 366,225 366,225 366,225 365,226 365,226 365,226 364,227 364,227 364,227 362,228 362,228 362,228 361,229 361,229 361,229 360,229 360,229 360,229 359,230 359,230 359,230 357,231 357,231 357,231 352.5,234 352.5,234 347.408,236.546 342.687,240.406 337.5,243 330.167,246.666 331,258.893 331,265 333.268,265 337,273.031 337,275  Z"/>

<path  fill="#C8CBCC" stroke-width="0" stroke="#C8CBCC" d = " M99 216 L101,220 C101,220 99,216 99,216  Z"/>

<path  fill="#E64438" stroke-width="0" stroke="#E64438" d = " M224 242 L227,242 C227,242 227,236 227,236 227,230.587 227,223.33 227,218 221.837,218 216.763,218 211,218 211,218 209,218 209,218 209,220.559 209,222.441 209,225 210.714,225 210,230.594 210,232 210,232 213,231 213,231 213,231 213,221.5 213,221.5 213.943,219.614 221.741,216.982 223,219.5 224.735,222.97 222,228.798 222,232 227.537,232 224,239.476 224,242  Z"/>

<path  fill="#FF5445" stroke-width="0" stroke="#FF5445" d = " M227 236 L229,236 C229,236 231,231.5 231,231.5 231,231.5 231,219.5 231,219.5 231,219.5 229,218 229,218 229,216.07 227.839,218 227,218 227,223.33 227,230.587 227,236  Z"/>

<path  fill="#E64438" stroke-width="0" stroke="#E64438" d = " M229 242 L232,242 C232,239.158 228.984,232 235,232 235,228.892 231.138,224.225 233,220.5 234.596,217.308 241.638,218.776 243,221.5 243,221.5 244,231 244,231 244,231 247,232 247,232 247,230.154 247,226.846 247,225 247,221.981 247,221.019 247,218 247,218 245,218 245,218 239.237,218 234.163,218 229,218 229,218 231,219.5 231,219.5 231,219.5 231,231.5 231,231.5 231,231.5 229,236 229,236 229,236 229,242 229,242  Z"/>

<path  fill="#C8CBCC" stroke-width="0" stroke="#C8CBCC" d = " M357 217 L356,219 C356,219 357,217 357,217  Z"/>

<path  fill="#B3C0DE" stroke-width="0" stroke="#B3C0DE" d = " M209 225 C202.768,225 199.723,232 194,232 187.446,232 179,231.158 179,223 179,223 179,221 179,221 186.724,221 194.462,219 203,219 205.124,219 207.436,218 209,218 209,220.559 209,222.441 209,225  Z"/>

<path  fill="#B3C0DE" stroke-width="0" stroke="#B3C0DE" d = " M247 225 C253.39,225 256.223,232 262,232 270,232 277,230.759 277,223 277,223 277,221 277,221 269.276,221 261.538,219 253,219 253,219 247,218 247,218 247,221.019 247,221.981 247,225  Z"/>

<path  fill="#FF5547" stroke-width="0" stroke="#FF5547" d = " M213 231 C213,241.917 221.32,232 222,232 222,228.798 224.735,222.97 223,219.5 221.741,216.982 213.943,219.614 213,221.5 213,221.5 213,231 213,231  Z"/>

<path  fill="#FF5547" stroke-width="0" stroke="#FF5547" d = " M244 231 C244,236.265 235,237.866 235,232 235,228.892 231.138,224.225 233,220.5 234.596,217.308 241.638,218.776 243,221.5 243,221.5 244,231 244,231  Z"/>

<path  fill="#C8CBCC" stroke-width="0" stroke="#C8CBCC" d = " M356 219 L355,221 C355,221 356,219 356,219  Z"/>

<path  fill="#99D2BD" stroke-width="0" stroke="#99D2BD" d = " M87 220 L89,222 C89,222 87,220 87,220  Z"/>

<path  fill="#C8CBCC" stroke-width="0" stroke="#C8CBCC" d = " M101 221 L103,223 C103,223 101,221 101,221  Z"/>

<path  fill="#8599CC" stroke-width="0" stroke="#8599CC" d = " M179 223 L178,224 C178,224 176,222 176,222 176,222 179,221 179,221 179,221 179,223 179,223  Z"/>

<path  fill="#8599CC" stroke-width="0" stroke="#8599CC" d = " M277 223 L279,224 C279,224 280,222 280,222 280,222 277,221 277,221 277,221 277,223 277,223  Z"/>

<path  fill="#C8CBCC" stroke-width="0" stroke="#C8CBCC" d = " M355 221 L354,223 C354,223 355,221 355,221  Z"/>

<path  fill="#99D2BD" stroke-width="0" stroke="#99D2BD" d = " M368 222 L367,223 C367,223 368,222 368,222  Z"/>

<path  fill="#99D2BD" stroke-width="0" stroke="#99D2BD" d = " M89 223 L91,225 C91,225 89,223 89,223  Z"/>

<path  fill="#E64438" stroke-width="0" stroke="#E64438" d = " M203 241 L198,246 C198,240.564 190.939,241 188,241 187.052,241 176,230.034 176,229 176,229 178,224 178,224 178,224 179,223 179,223 179,231.158 187.446,232 194,232 194,232 192,235.5 192,235.5 189.204,241.091 200.456,241 203,241  Z"/>

<path  fill="#E64438" stroke-width="0" stroke="#E64438" d = " M268 241 C265.749,241 258,240.636 258,246 257.08,246 252,240.518 252,239 255.05,239 261.157,244.187 264,238.5 265.428,235.644 262,233.947 262,232 270,232 277,230.759 277,223 277,223 279,224 279,224 279,226.25 281,227.376 281,229 279.29,229 271.747,241 268,241  Z"/>

<path  fill="#C8CBCC" stroke-width="0" stroke="#C8CBCC" d = " M354 223 L353,224 C353,224 354,223 354,223  Z"/>

<path  fill="#C8CBCC" stroke-width="0" stroke="#C8CBCC" d = " M117 234 L116,235 C112.048,235 108.502,228 105,228 105,228 103,224 103,224 103,224 107.5,229 107.5,229 107.5,229 117,234 117,234  Z"/>

<path  fill="#7ECDF8" stroke-width="0" stroke="#7ECDF8" d = " M162 237 L156.5,243 C149.951,246.275 147.634,255 139,255 133.957,255 121,240.376 121,238.5 121,237.101 125.872,237 127,237 128.486,237 143.406,235.547 144.5,235 146.942,233.779 150.14,234.18 152.5,233 152.5,233 164.5,225 164.5,225 165.323,224.589 169.402,223.303 170,224.5 170,224.5 165,234 165,234 165,234 164,235 164,235 164,235 163,236 163,236 163,236 162,237 162,237  Z"/>

<path  fill="#7ECDF8" stroke-width="0" stroke="#7ECDF8" d = " M295 237 C295,241.037 312.853,255 317,255 324.771,255 325.951,248.549 330.5,244 330.5,244 334.5,238 334.5,238 325.779,233.639 313.217,237.359 304.5,233 304.5,233 291.5,225 291.5,225 291.015,224.758 286,223.365 286,224.5 286,229.062 295,233.083 295,237  Z"/>

<path  fill="#99D2BD" stroke-width="0" stroke="#99D2BD" d = " M367 224 L366,225 C366,225 367,224 367,224  Z"/>

<path  fill="#FD5446" stroke-width="0" stroke="#FD5446" d = " M204 240 L203,241 C200.456,241 189.204,241.091 192,235.5 192,235.5 194,232 194,232 199.723,232 202.768,225 209,225 210.714,225 210,230.594 210,232 210,232 204,240 204,240  Z"/>

<path  fill="#FD5446" stroke-width="0" stroke="#FD5446" d = " M262 232 C262,233.947 265.428,235.644 264,238.5 261.157,244.187 255.05,239 252,239 249.996,239 247,233.622 247,232 247,230.154 247,226.846 247,225 253.39,225 256.223,232 262,232  Z"/>

<path  fill="#C8CBCC" stroke-width="0" stroke="#C8CBCC" d = " M351 227 L352,227 C352,227 353,225 353,225 351.253,225 351,225.253 351,227  Z"/>

<path  fill="#99D2BD" stroke-width="0" stroke="#99D2BD" d = " M365 226 L364,227 C364,227 365,226 365,226  Z"/>

<path  fill="#99D2BD" stroke-width="0" stroke="#99D2BD" d = " M93 227 L95,229 C95,229 93,227 93,227  Z"/>

<path  fill="#C8CBCC" stroke-width="0" stroke="#C8CBCC" d = " M351 227 L350,228 C350,228 351,227 351,227  Z"/>

<path  fill="#8AD987" stroke-width="0" stroke="#8AD987" d = " M341 234 L337,239 C344.071,239 347.183,231 354,231 354,231 352,227 352,227 352,227 351,227 351,227 351,227 350,228 350,228 350,228 349,229 349,229 349,231.177 344.664,233 343,233 343,233 341,234 341,234  Z"/>

<path  fill="#8AD987" stroke-width="0" stroke="#8AD987" d = " M116 235 C117.712,235 119,237.571 119,239 112.33,239 109.513,231 103,231 103,231 105,228 105,228 108.502,228 112.048,235 116,235  Z"/>

<path  fill="#C8CBCC" stroke-width="0" stroke="#C8CBCC" d = " M350 228 L349,229 C349,229 350,228 350,228  Z"/>

<path  fill="#99D2BD" stroke-width="0" stroke="#99D2BD" d = " M362 228 L361,229 C361,229 362,228 362,228  Z"/>

<path  fill="#99D2BD" stroke-width="0" stroke="#99D2BD" d = " M96 229 L97,230 C97,230 96,229 96,229  Z"/>

<path  fill="#A2B1D7" stroke-width="0" stroke="#A2B1D7" d = " M128 265 L131.5,269 C134.807,272.307 137.696,275.098 141.5,277 149.992,281.246 158.492,277 167,277 167,274.273 157.508,273.515 156,270.5 153.858,266.217 172.661,260 175,260 175,260 179,259 179,259 179,259 180,258 180,258 180,258 185,253.5 185,253.5 187.061,249.378 188,246.048 188,241 187.052,241 176,230.034 176,229 171.988,229 168.572,234 165,234 165,234 164,235 164,235 164,235 163,236 163,236 163,236 162,237 162,237 162,237 156.5,243 156.5,243 149.951,246.275 147.634,255 139,255 139,258.362 130.896,264 128,264 128,264 128,265 128,265  Z"/>

<path  fill="#A2B1D7" stroke-width="0" stroke="#A2B1D7" d = " M329 265 L325.5,269 L315.5,277 C306.82,281.34 297.782,277 289,277 289,274.702 298.544,273.412 300,270.5 302.17,266.16 283.919,260 281,260 281,260 276,258 276,258 276,257.662 268,249.067 268,241 271.747,241 279.29,229 281,229 286.113,229 290.447,237 295,237 295,241.037 312.853,255 317,255 317,257.98 325.507,264 328,264 328,264 329,265 329,265  Z"/>

<path  fill="#C8CBCC" stroke-width="0" stroke="#C8CBCC" d = " M349 229 C347.583,229 343,231.383 343,233 344.664,233 349,231.177 349,229  Z"/>

<path  fill="#99D2BD" stroke-width="0" stroke="#99D2BD" d = " M360 229 L359,230 C359,230 360,229 360,229  Z"/>

<path  fill="#99D2BD" stroke-width="0" stroke="#99D2BD" d = " M98 230 L99,231 C99,231 98,230 98,230  Z"/>

<path  fill="#99D2BD" stroke-width="0" stroke="#99D2BD" d = " M359 230 L357,231 C357,231 359,230 359,230  Z"/>

<path  fill="#99D2BD" stroke-width="0" stroke="#99D2BD" d = " M126 265 L127,265 C127,265 128,264 128,264 128,264 130,261.5 130,261.5 131.186,259.127 128.013,250.526 127,248.5 125.782,246.064 119,240.796 119,239 112.33,239 109.513,231 103,231 103,231 100,231 100,231 100,233.341 102.342,232.421 103.5,233 103.5,233 116.5,241 116.5,241 124.499,244.999 126,256.287 126,265  Z"/>

<path  fill="#FF5346" stroke-width="0" stroke="#FF5346" d = " M196 269 C197.345,269 203,266.688 203,270 207.496,270 209.713,265 212,265 212,257.678 210.393,243 222,243 222,243 223,243 223,243 223,243 224,242 224,242 224,239.476 227.537,232 222,232 221.32,232 213,241.917 213,231 213,231 210,232 210,232 210,232 204,240 204,240 204,240 203,241 203,241 203,241 198,246 198,246 198,246 196,258 196,258 196.676,258 200.932,252.784 202.5,252 204.179,251.161 209.022,253.457 208,255.5 206.042,259.417 205.581,261.919 202,265.5 200.359,267.141 196,265.288 196,263 196,263 196,258 196,258 195.318,258 194,264.241 194,265 194,265 196,269 196,269  Z"/>

<path  fill="#FF5346" stroke-width="0" stroke="#FF5346" d = " M260 269 L255.5,268 L253,270 C250.723,270 245,268.078 245,265 245,256.3 244.831,243 234,243 234,243 233,243 233,243 233,243 232,242 232,242 232,239.158 228.984,232 235,232 235,237.866 244,236.265 244,231 244,231 247,232 247,232 247,233.622 249.996,239 252,239 252,240.518 257.08,246 258,246 258,246 261,259 261,259 258.653,259 256.218,249.141 250.5,252 246.168,254.166 250.609,263.554 253.5,265 258.313,267.407 258.225,263 261,263 261,263 262,264 262,264 262,264 262,266 262,266 262,266 260,269 260,269  Z"/>

<path  fill="#99D2BD" stroke-width="0" stroke="#99D2BD" d = " M329 265 L331,265 C331,258.893 330.167,246.666 337.5,243 342.687,240.406 347.408,236.546 352.5,234 352.5,234 357,231 357,231 357,231 354,231 354,231 347.183,231 344.071,239 337,239 337,239 330,247.5 330,247.5 328.324,250.852 326,256.642 326,260.5 326,260.5 328,264 328,264 328,264 329,265 329,265  Z"/>

<path  fill="#C8CBCC" stroke-width="0" stroke="#C8CBCC" d = " M340 234 L341,234 C341,234 343,233 343,233 341.952,233 340,232.527 340,234  Z"/>

<path  fill="#97D6F9" stroke-width="0" stroke="#97D6F9" d = " M165 234 L164,235 C164,235 165,234 165,234  Z"/>

<path  fill="#97D6F9" stroke-width="0" stroke="#97D6F9" d = " M164 235 L163,236 C163,236 164,235 164,235  Z"/>

<path  fill="#97D6F9" stroke-width="0" stroke="#97D6F9" d = " M163 236 L162,237 C162,237 163,236 163,236  Z"/>

<path  fill="#A8A9AA" stroke-width="0" stroke="#A8A9AA" d = " M230 269 C230,270.579 227.145,270 226,270 226,261.404 227,251.261 227,242 227,242 227,236 227,236 227,236 229,236 229,236 229,236 229,242 229,242 229,250.932 230,260.732 230,269  Z"/>

<path  fill="#F2473B" stroke-width="0" stroke="#F2473B" d = " M181 259 C185.873,259 189.492,265 194,265 194,264.241 195.318,258 196,258 196,258 198,246 198,246 198,240.564 190.939,241 188,241 188,246.048 187.061,249.378 185,253.5 185,253.5 180,258 180,258 180,258 181,259 181,259  Z"/>

<path  fill="#E64438" stroke-width="0" stroke="#E64438" d = " M204 240 L203,241 C203,241 204,240 204,240  Z"/>

<path  fill="#F2473B" stroke-width="0" stroke="#F2473B" d = " M262 264 L263,265 C267.016,265 271.239,259 276,259 276,259 276,258 276,258 276,257.662 268,249.067 268,241 265.749,241 258,240.636 258,246 258,246 261,259 261,259 261,259 261,263 261,263 261,263 262,264 262,264  Z"/>

<path  fill="#FE5446" stroke-width="0" stroke="#FE5446" d = " M213 275 L216,275 C216,275 218,274 218,274 218,274 220,273 220,273 220,273 221,273 221,273 221,273 223,272 223,272 223,272 225,271 225,271 225,271 226,270 226,270 226,261.404 227,251.261 227,242 227,242 224,242 224,242 224,242 223,243 223,243 223,243 223,244 223,244 223,248.521 219.322,267 213,267 213,269.862 213,272.48 213,275  Z"/>

<path  fill="#FE5446" stroke-width="0" stroke="#FE5446" d = " M232 271 L243,275 C247.429,275 243,268.49 243,267 236.88,267 234,248.826 234,244 234,244 233,243 233,243 233,243 232,242 232,242 232,242 229,242 229,242 229,250.932 230,260.732 230,269 230,269 232,271 232,271  Z"/>

<path  fill="#FD4C3E" stroke-width="0" stroke="#FD4C3E" d = " M212 265 L213,267 C219.322,267 223,248.521 223,244 223,244 222,243 222,243 210.393,243 212,257.678 212,265  Z"/>

<path  fill="#E64438" stroke-width="0" stroke="#E64438" d = " M223 243 L223,244 C223,244 222,243 222,243 222,243 223,243 223,243  Z"/>

<path  fill="#E64438" stroke-width="0" stroke="#E64438" d = " M234 243 L234,244 C234,244 233,243 233,243 233,243 234,243 234,243  Z"/>

<path  fill="#FD4C3E" stroke-width="0" stroke="#FD4C3E" d = " M245 265 L243,267 C236.88,267 234,248.826 234,244 234,244 234,243 234,243 244.831,243 245,256.3 245,265  Z"/>

<path  fill="#FE5447" stroke-width="0" stroke="#FE5447" d = " M196 258 L196,263 C196,265.288 200.359,267.141 202,265.5 205.581,261.919 206.042,259.417 208,255.5 209.022,253.457 204.179,251.161 202.5,252 200.932,252.784 196.676,258 196,258  Z"/>

<path  fill="#FE5447" stroke-width="0" stroke="#FE5447" d = " M261 259 C258.653,259 256.218,249.141 250.5,252 246.168,254.166 250.609,263.554 253.5,265 258.313,267.407 258.225,263 261,263 261,263 261,259 261,259  Z"/>

<path  fill="#E64438" stroke-width="0" stroke="#E64438" d = " M179 259 L181,259 C181,259 180,258 180,258 180,258 179,259 179,259  Z"/>

<path  fill="#E64438" stroke-width="0" stroke="#E64438" d = " M281 260 L279,262 C279,262 276,259 276,259 276,259 276,258 276,258 276,258 281,260 281,260  Z"/>

<path  fill="#E64438" stroke-width="0" stroke="#E64438" d = " M175 260 L177,261 C177,261 179,259 179,259 179,259 175,260 175,260  Z"/>

<path  fill="#96A6D3" stroke-width="0" stroke="#96A6D3" d = " M193 279 L192,280 C192,280 181.5,279 181.5,279 181.5,279 177,275 177,275 177,270.699 177,265.38 177,261 177,261 179,259 179,259 179,259 181,259 181,259 185.873,259 189.492,265 194,265 194,265 196,269 196,269 196,272.285 193,276.16 193,279  Z"/>

<path  fill="#96A6D3" stroke-width="0" stroke="#96A6D3" d = " M279 275 C279,281.701 266.033,279 263,279 263,279 260,269 260,269 260,269 262,266 262,266 262,266 263,265 263,265 267.016,265 271.239,259 276,259 276,259 279,262 279,262 279,262 279,275 279,275  Z"/>

<path  fill="#A2B1D8" stroke-width="0" stroke="#A2B1D8" d = " M167 277 L173,277 C173,277 177,275 177,275 177,270.699 177,265.38 177,261 177,261 175,260 175,260 172.661,260 153.858,266.217 156,270.5 157.508,273.515 167,274.273 167,277  Z"/>

<path  fill="#A2B1D8" stroke-width="0" stroke="#A2B1D8" d = " M283 277 L289,277 C289,274.702 298.544,273.412 300,270.5 302.17,266.16 283.919,260 281,260 281,260 279,262 279,262 279,262 279,275 279,275 279,275 283,277 283,277  Z"/>

<path  fill="#97D6F9" stroke-width="0" stroke="#97D6F9" d = " M127 265 L128,265 C128,265 128,264 128,264 128,264 127,265 127,265  Z"/>

<path  fill="#CBCCCB" stroke-width="0" stroke="#CBCCCB" d = " M263 265 L262,266 C262,266 262,264 262,264 262,264 263,265 263,265  Z"/>

<path  fill="#7FCCF7" stroke-width="0" stroke="#7FCCF7" d = " M181 288 L180,289 C180,293.736 170.97,293.765 168.5,295 155.945,301.278 145.3,298.9 133.5,293 130.51,291.505 123,287.214 123,283 123,283 122,282 122,282 122,282 122,281 122,281 122,281 120,275 120,275 120,275 120,274 120,274 120,271.688 122.847,265 126,265 126,265 127,265 127,265 127,265 128,265 128,265 128,265 131.5,269 131.5,269 134.807,272.307 137.696,275.098 141.5,277 149.992,281.246 158.492,277 167,277 167,277 173,277 173,277 178.641,277 181,281.866 181,287 181,287 181,288 181,288  Z"/>

<path  fill="#E64438" stroke-width="0" stroke="#E64438" d = " M213 275 C213,276.794 206.49,279 205,279 205,275.577 203,272.526 203,270 207.496,270 209.713,265 212,265 212,265 213,267 213,267 213,269.862 213,272.48 213,275  Z"/>

<path  fill="#E64438" stroke-width="0" stroke="#E64438" d = " M243 275 L251,279 C251,275.362 253,273.071 253,270 250.723,270 245,268.078 245,265 245,265 243,267 243,267 243,268.49 247.429,275 243,275  Z"/>

<path  fill="#7FCCF7" stroke-width="0" stroke="#7FCCF7" d = " M334 282 C334,286.122 328.59,289.455 325.5,291 313.219,297.141 304.907,303.203 290.5,296 286.929,294.215 276,293.774 276,288 276,283.71 275.729,277 283,277 283,277 289,277 289,277 297.782,277 306.82,281.34 315.5,277 315.5,277 325.5,269 325.5,269 325.5,269 329,265 329,265 329,265 331,265 331,265 333.268,265 337,273.031 337,275 337,275 337,276 337,276 335.362,276 335,279.576 335,281 335,281 334,282 334,282  Z"/>

<path  fill="#CAC8C7" stroke-width="0" stroke="#CAC8C7" d = " M118 279 L118,280 C116.683,280 116.212,283.356 113.5,282 108.136,279.318 95,273.297 95,266 100.894,266 109.697,276 117,276 117,277.048 116.527,279 118,279  Z"/>

<path  fill="#CAC8C7" stroke-width="0" stroke="#CAC8C7" d = " M339 278 L339,280 C339,283.122 344.121,281.689 345.5,281 349.297,279.102 361,272.433 361,267 361,265.039 358.278,266.611 357.5,267 351.496,270.002 346.142,276 339,276 339,276 339,278 339,278  Z"/>

<path  fill="#FE5546" stroke-width="0" stroke="#FE5546" d = " M205 279 C205,280.577 203.238,281 202,281 202,280.208 194.013,279 193,279 193,276.16 196,272.285 196,269 197.345,269 203,266.688 203,270 203,272.526 205,275.577 205,279  Z"/>

<path  fill="#FE5546" stroke-width="0" stroke="#FE5546" d = " M263 279 C262.108,279 254,280.305 254,281 254,281 251,279 251,279 251,275.362 253,273.071 253,270 253,270 255.5,268 255.5,268 255.5,268 260,269 260,269 260,269 263,279 263,279  Z"/>

<path  fill="#CAC7CB" stroke-width="0" stroke="#CAC7CB" d = " M223 272 L227,272 C227,272 225,271 225,271 225,271 223,272 223,272  Z"/>

<path  fill="#CAC7CB" stroke-width="0" stroke="#CAC7CB" d = " M202 281 C202,282.708 199,285.229 199,286.5 L201.5,287 C205.42,288.96 210.345,290 215,290 L226.5,291 L228.5,288 L229.5,291 L252.5,289 C256.696,286.902 256.88,287.26 255,283.5 254.541,282.581 255.765,281 254,281 254,281 251,279 251,279 251,279 243,275 243,275 243,275 232,271 232,271 230.952,271 229,270.527 229,272 234.53,272 237.953,274.726 242.5,277 245.192,278.346 252.525,280.551 254,283.5 255.661,286.822 248.462,288 246.5,288 235.636,288 225.627,288 215,288 210.888,288 204.14,288.78 202,284.5 202,284.5 205,281.5 205,281.5 206.822,279.678 216,278.099 216,275 216,275 213,275 213,275 213,276.794 206.49,279 205,279 205,280.577 203.238,281 202,281  Z"/>

<path  fill="#CAC7CB" stroke-width="0" stroke="#CAC7CB" d = " M223 272 L221,273 C221,273 223,272 223,272  Z"/>

<path  fill="#CBCACC" stroke-width="0" stroke="#CBCACC" d = " M218 274 L216,275 C216,278.099 206.822,279.678 205,281.5 205,281.5 202,284.5 202,284.5 204.14,288.78 210.888,288 215,288 225.627,288 235.636,288 246.5,288 248.462,288 255.661,286.822 254,283.5 252.525,280.551 245.192,278.346 242.5,277 237.953,274.726 234.53,272 229,272 229,273.93 227.839,272 227,272 227,272 223,272 223,272 223,272 221,273 221,273 221,273 220,273 220,273 220,273 218,274 218,274  Z"/>

<path  fill="#CAC7CB" stroke-width="0" stroke="#CAC7CB" d = " M220 273 L218,274 C218,274 220,273 220,273  Z"/>

<path  fill="#99D2BD" stroke-width="0" stroke="#99D2BD" d = " M119 275 L120,275 C120,275 120,274 120,274 120,274 119,275 119,275  Z"/>

<path  fill="#CAC7CB" stroke-width="0" stroke="#CAC7CB" d = " M218 274 L216,275 C216,275 218,274 218,274  Z"/>

<path  fill="#99D2BD" stroke-width="0" stroke="#99D2BD" d = " M117 276 C117,277.048 116.527,279 118,279 118,279 119,275 119,275 119,275 117,276 117,276  Z"/>

<path  fill="#97D6F9" stroke-width="0" stroke="#97D6F9" d = " M118 280 L122,281 C122,281 120,275 120,275 120,275 119,275 119,275 119,275 118,279 118,279 118,279 118,280 118,280  Z"/>

<path  fill="#8599CC" stroke-width="0" stroke="#8599CC" d = " M192 280 C192,282.761 183.209,287 181,287 181,281.866 178.641,277 173,277 173,277 177,275 177,275 177,275 181.5,279 181.5,279 181.5,279 192,280 192,280  Z"/>

<path  fill="#8599CC" stroke-width="0" stroke="#8599CC" d = " M263 279 C263,281.454 273.934,288 276,288 276,283.71 275.729,277 283,277 283,277 279,275 279,275 279,281.701 266.033,279 263,279  Z"/>

<path  fill="#99D2BD" stroke-width="0" stroke="#99D2BD" d = " M339 276 L339,278 C339,278 337,276 337,276 337,276 337,275 337,275 337,275 339,276 339,276  Z"/>

<path  fill="#97D6F9" stroke-width="0" stroke="#97D6F9" d = " M339 280 L335,281 C335,279.576 335.362,276 337,276 337,276 339,278 339,278 339,278 339,280 339,280  Z"/>

<path  fill="#8599CC" stroke-width="0" stroke="#8599CC" d = " M193 279 L192,280 C192,280 193,279 193,279  Z"/>

<path  fill="#97D6F9" stroke-width="0" stroke="#97D6F9" d = " M335 281 L334,282 C334,282 335,281 335,281  Z"/>

<path  fill="#97D6F9" stroke-width="0" stroke="#97D6F9" d = " M122 282 L123,283 C123,283 122,282 122,282  Z"/>

<path  fill="#8599CC" stroke-width="0" stroke="#8599CC" d = " M181 288 L180,289 C180,289 181,288 181,288  Z"/>

</g>
</svg>
