<svg xmlns="http://www.w3.org/2000/svg" xmlns:xlink="http://www.w3.org/1999/xlink"  viewBox="0 0 456 320">
<g>
<rect width="456" height="320" fill="#000000"  stroke-width="0" /> 
<path  fill="#098589" stroke-width="0" stroke="#098589" d = " M82 57 L85,60 C85,60 104.5,45 104.5,45 124.905,34.7975 144.374,21 169,21 169,21 168,17 168,17 142.287,17 120.963,32.2686 99.5,43 97.0551,44.2224 82,54.2111 82,57  Z"/>

<path  fill="#0A8589" stroke-width="0" stroke="#0A8589" d = " M175 21 L176,21 C176,21 176,17 176,17 176,17 168,17 168,17 168,17 169,21 169,21 169,21 175,21 175,21  Z"/>

<path  fill="#1BA696" stroke-width="0" stroke="#1BA696" d = " M176 21 C182.204,21 187.834,24 193,24 193,24 194,19 194,19 188.193,19 182.206,17 176,17 176,17 176,21 176,21  Z"/>

<path  fill="#1BA696" stroke-width="0" stroke="#1BA696" d = " M263 24 L264,24 C264,21.1157 278.13,21 281,21 281,21 281,17 281,17 274.674,17 268.819,19 263,19 263,19 263,24 263,24  Z"/>

<path  fill="#0A8589" stroke-width="0" stroke="#0A8589" d = " M281 21 L287,21 C287,21 288,17 288,17 288,17 281,17 281,17 281,17 281,21 281,21  Z"/>

<path  fill="#098589" stroke-width="0" stroke="#098589" d = " M371 60 L372,60 C372,60 374,56 374,56 374,53.0756 360.085,46.6694 359,44.5 356.96,40.421 346.824,37.1619 342.5,35 325.931,26.7154 307.81,17 288,17 288,17 287,21 287,21 312.23,21 328.717,34.6087 349.5,45 352.163,46.3314 371,57.7019 371,60  Z"/>

<path  fill="#1BA598" stroke-width="0" stroke="#1BA598" d = " M170 61 L169,62 C169,62 167,61 167,61 167,55.4629 192.851,42.7977 195,38.5 196.54,35.4209 200.255,25 193,25 193,25 193,24 193,24 193,24 194,19 194,19 198.298,19 208.951,29.5974 207,33.5 204.965,37.5698 183.688,50.906 179.5,53 179.5,53 171,60 171,60 171,60 170,61 170,61  Z"/>

<path  fill="#1BA598" stroke-width="0" stroke="#1BA598" d = " M286 61 C286,59.486 287.762,61 289,61 289,54.3409 263.262,43.0242 260,36.5 256.438,29.3768 263,27.2002 263,24 263,24 263,19 263,19 257.867,19 247.268,29.0359 250,34.5 252.257,39.0133 269.288,48.3942 274.5,51 274.5,51 281,56 281,56 281,56 282,57 282,57 282,57 286,61 286,61  Z"/>

<path  fill="#0A828C" stroke-width="0" stroke="#0A828C" d = " M89 67 L90,67 C90,67 109.5,54 109.5,54 128.43,44.5351 147.285,29 170,29 170,29 170,28 170,28 170,28 169,21 169,21 144.374,21 124.905,34.7975 104.5,45 104.5,45 85,60 85,60 85,60 85,61 85,61 86.6174,61 89,65.583 89,67  Z"/>

<path  fill="#08858B" stroke-width="0" stroke="#08858B" d = " M170 28 L174,28 C174,26.181 175,23.4092 175,21 175,21 169,21 169,21 169,21 170,28 170,28  Z"/>

<path  fill="#1AA496" stroke-width="0" stroke="#1AA496" d = " M186 32 L187,32 C187,32 191,28.5 191,28.5 191,28.5 193,25 193,25 193,25 193,24 193,24 187.834,24 182.204,21 176,21 176,21 175,21 175,21 175,23.4092 174,26.181 174,28 174,28 173,30 173,30 175.274,30 186,26.7164 186,32  Z"/>

<path  fill="#1AA496" stroke-width="0" stroke="#1AA496" d = " M283 30 C280.827,30 270,26.6459 270,32 267.396,32 264,26.0698 264,24 264,21.1157 278.13,21 281,21 281,22.7744 280.727,28 283,28 283,28 283,30 283,30  Z"/>

<path  fill="#08858B" stroke-width="0" stroke="#08858B" d = " M283 28 L286,28 C287.714,28 287,22.4056 287,21 287,21 281,21 281,21 281,22.7744 280.727,28 283,28  Z"/>

<path  fill="#0A828C" stroke-width="0" stroke="#0A828C" d = " M366 67 L367,67 C367,64.2146 371,63.4603 371,60 371,57.7019 352.163,46.3314 349.5,45 328.717,34.6087 312.23,21 287,21 287,22.4056 287.714,28 286,28 286,28 286,29 286,29 308.403,29 326.858,43.679 345.5,53 345.5,53 366,67 366,67  Z"/>

<path  fill="#1BA697" stroke-width="0" stroke="#1BA697" d = " M290 61 L292,62 C292,62 283.5,52 283.5,52 275.071,43.5713 270,42.7032 270,32 267.396,32 264,26.0698 264,24 264,24 263,24 263,24 263,27.2002 256.438,29.3768 260,36.5 263.262,43.0242 289,54.3409 289,61 289,61 290,61 290,61  Z"/>

<path  fill="#1BA697" stroke-width="0" stroke="#1BA697" d = " M166 61 L167,61 C167,55.4629 192.851,42.7977 195,38.5 196.54,35.4209 200.255,25 193,25 193,25 191,28.5 191,28.5 191,28.5 187,32 187,32 187,45.6417 165,54.4475 165,61 165,61 166,61 166,61  Z"/>

<path  fill="#09828B" stroke-width="0" stroke="#09828B" d = " M171 31 L173,31 C173,31 173,30 173,30 173,30 174,28 174,28 174,28 170,28 170,28 170,28 170,29 170,29 170,29 170,31 170,31 170,31 171,31 171,31  Z"/>

<path  fill="#09828B" stroke-width="0" stroke="#09828B" d = " M283 30 L286,31 C286,31 286,29 286,29 286,29 286,28 286,28 286,28 283,28 283,28 283,28 283,30 283,30  Z"/>

<path  fill="#0B848B" stroke-width="0" stroke="#0B848B" d = " M90 67 L93,72 C98.4126,72 104.722,63.3888 109.5,61 125.255,53.1226 152.762,31 170,31 170,31 170,29 170,29 147.285,29 128.43,44.5351 109.5,54 109.5,54 90,67 90,67  Z"/>

<path  fill="#1CA697" stroke-width="0" stroke="#1CA697" d = " M165 41 L169,41 C172.21,41 180.189,36.3111 182.5,34 182.5,34 186,32 186,32 186,26.7164 175.274,30 173,30 173,30 173,31 173,31 173,31 170,35 170,35 170,35 165,41 165,41  Z"/>

<path  fill="#1CA697" stroke-width="0" stroke="#1CA697" d = " M288 41 L291,41 C291,37.9143 287,38.0857 287,35 285.467,35 283,31.2473 283,30 280.827,30 270,26.6459 270,32 270,32 287,41 287,41 287,41 288,41 288,41  Z"/>

<path  fill="#0B848B" stroke-width="0" stroke="#0B848B" d = " M366 67 L363,72 C363,72 343.5,59 343.5,59 327.24,50.8701 304.548,31 286,31 286,31 286,29 286,29 308.403,29 326.858,43.679 345.5,53 345.5,53 366,67 366,67  Z"/>

<path  fill="#088489" stroke-width="0" stroke="#088489" d = " M286 31 L287,35 C285.467,35 283,31.2473 283,30 283,30 286,31 286,31  Z"/>

<path  fill="#088389" stroke-width="0" stroke="#088389" d = " M93 73 C96.7528,73 95.5356,80 99,80 104.446,80 110.325,70.5873 115.5,68 128.219,61.6403 149.139,42 163,42 163,42 164,41 164,41 164,41 165,41 165,41 165,41 170,35 170,35 170,35 171,31 171,31 171,31 170,31 170,31 152.762,31 125.255,53.1226 109.5,61 104.722,63.3888 98.4126,72 93,72 93,72 93,73 93,73  Z"/>

<path  fill="#088489" stroke-width="0" stroke="#088489" d = " M173 31 L170,35 C170,35 171,31 171,31 171,31 173,31 173,31  Z"/>

<path  fill="#088389" stroke-width="0" stroke="#088389" d = " M357 81 L358,81 C358,79.2621 361.015,73 363,73 363,73 363,72 363,72 363,72 343.5,59 343.5,59 327.24,50.8701 304.548,31 286,31 286,31 287,35 287,35 287,38.0857 291,37.9143 291,41 291,41 293,41 293,41 298.721,41 304.581,46.5406 309.5,49 318.008,53.2541 336.971,63.4711 343.5,70 343.5,70 357,81 357,81  Z"/>

<path  fill="#1AA596" stroke-width="0" stroke="#1AA596" d = " M155 64 L157,65 C159.72,65 160.553,63 163,63 163,63 164,62 164,62 164,62 165,62 165,62 165,62 165,61 165,61 165,54.4475 187,45.6417 187,32 187,32 186,32 186,32 186,32 182.5,34 182.5,34 180.189,36.3111 172.21,41 169,41 169,41 169,42 169,42 172.826,42 167.374,51.7525 167,52.5 167,52.5 155,64 155,64  Z"/>

<path  fill="#1AA596" stroke-width="0" stroke="#1AA596" d = " M302 64 L299,65 C295.7,65 295.9,62 293,62 293,62 292,62 292,62 292,62 283.5,52 283.5,52 275.071,43.5713 270,42.7032 270,32 270,32 287,41 287,41 287,53.2977 290.491,49.483 295,58.5 295,58.5 302,64 302,64  Z"/>

<path  fill="#08858C" stroke-width="0" stroke="#08858C" d = " M164 41 L163,42 C163,42 164,41 164,41  Z"/>

<path  fill="#1CA597" stroke-width="0" stroke="#1CA597" d = " M149 59 L150,59 C150,55.4046 165.605,42 169,42 169,42 169,41 169,41 169,41 165,41 165,41 165,41 164,41 164,41 164,41 163,42 163,42 163,44.9916 149,52.2735 149,59  Z"/>

<path  fill="#FF7AFD" stroke-width="0" stroke="#FF7AFD" d = " M230 67 C230,68.4729 228.048,68 227,68 227,66.2874 226.91,57.3197 226,55.5 223.279,50.0574 211.305,39.0976 203.5,43 203.5,43 187,51 187,51 187,48.0971 206.653,39.0765 210.5,41 215.819,43.6597 220.942,46.4423 225.5,51 225.5,51 228.5,58 228.5,58 228.5,58 229,53.5 229,53.5 230.268,50.9641 234.217,47 237,47 237,49.8351 232.423,50.6538 231,53.5 231,53.5 230,67 230,67  Z"/>

<path  fill="#FF7AFD" stroke-width="0" stroke="#FF7AFD" d = " M294 78 L295,79 C295,65.5331 267.964,48.232 257.5,43 253.078,40.7891 237,40.4718 237,47 241.567,47 247.067,40.2833 252.5,43 261.943,47.7216 294,64.9764 294,78  Z"/>

<path  fill="#1AA697" stroke-width="0" stroke="#1AA697" d = " M307 61 C304.636,61 303.947,64 302,64 302,64 295,58.5 295,58.5 290.491,49.483 287,53.2977 287,41 287,41 288,41 288,41 288,42.6895 307,54.1979 307,59 305.814,59 305.814,60 307,60 307,60 307,61 307,61  Z"/>

<path  fill="#1CA597" stroke-width="0" stroke="#1CA597" d = " M307 59 L308,59 C308,52.0835 293,46.9683 293,41 293,41 291,41 291,41 291,41 288,41 288,41 288,42.6895 307,54.1979 307,59  Z"/>

<path  fill="#08858C" stroke-width="0" stroke="#08858C" d = " M357 81 L353,87 C348.674,87 344.298,79.8992 340.5,78 332.259,73.8797 316.695,59 308,59 308,52.0835 293,46.9683 293,41 298.721,41 304.581,46.5406 309.5,49 318.008,53.2541 336.971,63.4711 343.5,70 343.5,70 357,81 357,81  Z"/>

<path  fill="#08858C" stroke-width="0" stroke="#08858C" d = " M99 81 L104,87 C109.181,87 113.323,77 119,77 119,75.6003 135.146,65 137,65 137,62.891 139.535,63 141,63 141,61.6324 146.878,59 148,59 148,59 149,59 149,59 149,52.2735 163,44.9916 163,42 149.139,42 128.219,61.6403 115.5,68 110.325,70.5873 104.446,80 99,80 99,80 99,81 99,81  Z"/>

<path  fill="#1AA697" stroke-width="0" stroke="#1AA697" d = " M149 61 L155,64 C155,64 167,52.5 167,52.5 167.374,51.7525 172.826,42 169,42 165.605,42 150,55.4046 150,59 150,59 149,60 149,60 149,60 149,61 149,61  Z"/>

<path  fill="#FF78FF" stroke-width="0" stroke="#FF78FF" d = " M163 74 L163,77 C168.304,77 173.859,69.3204 178.5,67 187.292,62.6039 196.755,59.3724 205.5,55 217.419,49.0403 223.819,68 227,68 227,66.2874 226.91,57.3197 226,55.5 223.279,50.0574 211.305,39.0976 203.5,43 203.5,43 187,51 187,51 187,52.8905 180.626,57 179,57 179,57 165,71 165,71 165,71 164,73 164,73 164,73 163,74 163,74  Z"/>

<path  fill="#FF78FF" stroke-width="0" stroke="#FF78FF" d = " M230 67 C233.268,67 238.723,49.1115 250.5,55 261.58,60.5398 273.293,65.3965 284.5,71 286.752,72.1262 290.546,78 294,78 294,64.9764 261.943,47.7216 252.5,43 247.067,40.2833 241.567,47 237,47 237,49.8351 232.423,50.6538 231,53.5 231,53.5 230,67 230,67  Z"/>

<path  fill="#FF7AFD" stroke-width="0" stroke="#FF7AFD" d = " M187 51 C185.178,51 179,54.7114 179,57 180.626,57 187,52.8905 187,51  Z"/>

<path  fill="#FD7AFF" stroke-width="0" stroke="#FD7AFF" d = " M295 82 L284.5,75 C275.553,70.5263 266.371,66.4355 257.5,62 249.77,58.1352 242.81,62.345 237.5,65 L230.5,72 L228.5,70 C227.268,69.3839 226.427,72.4633 223.5,71 L213.5,61 C203.613,56.0563 180.329,71.0854 172.5,75 L161,83 C161,83 161,82 161,82 161,82 161,79 161,79 161,79 163,77 163,77 168.304,77 173.859,69.3204 178.5,67 187.292,62.6039 196.755,59.3724 205.5,55 217.419,49.0403 223.819,68 227,68 228.048,68 230,68.4729 230,67 233.268,67 238.723,49.1115 250.5,55 261.58,60.5398 273.293,65.3965 284.5,71 286.752,72.1262 290.546,78 294,78 294,78 295,79 295,79 295,79 295,81 295,81 295,81 295,82 295,82  Z"/>

<path  fill="#1BA597" stroke-width="0" stroke="#1BA597" d = " M281 56 L282,57 C282,57 281,56 281,56  Z"/>

<path  fill="#09848A" stroke-width="0" stroke="#09848A" d = " M388 77 L389,77 C389,75.2531 389.253,75 391,75 391,73.2938 375.789,56 374,56 374,56 372,60 372,60 372,64.1908 388,71.8473 388,77  Z"/>

<path  fill="#09848A" stroke-width="0" stroke="#09848A" d = " M67 77 L69,77 C69,73.6567 81.6567,61 85,61 85,61 85,60 85,60 85,60 82,57 82,57 80.7982,57 65,73.8468 65,75 66.7469,75 67,75.2531 67,77  Z"/>

<path  fill="#FF7AFD" stroke-width="0" stroke="#FF7AFD" d = " M179 57 C175.558,57 165,67.6197 165,71 165,71 179,57 179,57  Z"/>

<path  fill="#08858A" stroke-width="0" stroke="#08858A" d = " M148 61 L141,63 C141,61.6324 146.878,59 148,59 148,59 148,61 148,61  Z"/>

<path  fill="#1AA598" stroke-width="0" stroke="#1AA598" d = " M148 61 L149,61 C149,61 149,60 149,60 149,60 149,59 149,59 149,59 148,59 148,59 148,59 148,61 148,61  Z"/>

<path  fill="#1BA698" stroke-width="0" stroke="#1BA698" d = " M150 59 L149,60 C149,60 149,59 149,59 149,59 150,59 150,59  Z"/>

<path  fill="#1BA698" stroke-width="0" stroke="#1BA698" d = " M307 59 C305.814,59 305.814,60 307,60 307,60 307,59 307,59  Z"/>

<path  fill="#1AA598" stroke-width="0" stroke="#1AA598" d = " M308 61 L309,61 C309,61 308,59 308,59 308,59 307,59 307,59 307,59 307,60 307,60 307,60 307,61 307,61 307,61 308,61 308,61  Z"/>

<path  fill="#08858A" stroke-width="0" stroke="#08858A" d = " M353 88 L352,89 C347.593,89 335.455,73 329,73 329,71.2194 311.419,61 309,61 309,61 308,59 308,59 316.695,59 332.259,73.8797 340.5,78 344.298,79.8992 348.674,87 353,87 353,87 353,88 353,88  Z"/>

<path  fill="#1BA597" stroke-width="0" stroke="#1BA597" d = " M171 60 L170,61 C170,61 171,60 171,60  Z"/>

<path  fill="#1BA597" stroke-width="0" stroke="#1BA597" d = " M295 68 L294,70 C294,70 286,61 286,61 286,59.486 287.762,61 289,61 289,61 290,61 290,61 290,61 295,68 295,68  Z"/>

<path  fill="#0A8489" stroke-width="0" stroke="#0A8489" d = " M388 77 L383,82 C383,82 367,67 367,67 367,64.2146 371,63.4603 371,60 371,60 372,60 372,60 372,64.1908 388,71.8473 388,77  Z"/>

<path  fill="#0A8489" stroke-width="0" stroke="#0A8489" d = " M69 77 L73,82 C73,82 77,78.5 77,78.5 79.7357,75.7643 89,70.4249 89,67 89,65.583 86.6174,61 85,61 81.6567,61 69,73.6567 69,77  Z"/>

<path  fill="#C9C9CA" stroke-width="0" stroke="#C9C9CA" d = " M127 73 L129,73 C135.295,73 139.464,65 146,65 146,65 147,64 147,64 147,64 149,63 149,63 149,63 149,61 149,61 149,61 148,61 148,61 148,61 141,63 141,63 141,65.109 138.465,65 137,65 137,69.112 127,68.8663 127,73  Z"/>

<path  fill="#33B932" stroke-width="0" stroke="#33B932" d = " M163 69 L160,74 C160,74 149,63 149,63 149,63 149,61 149,61 149,61 155,64 155,64 155,64 157,65 157,65 157,66.5774 158.762,67 160,67 160,67 161,68 161,68 161,68 163,69 163,69  Z"/>

<path  fill="#1AA597" stroke-width="0" stroke="#1AA597" d = " M166 61 L165,62 C165,62 165,61 165,61 165,61 166,61 166,61  Z"/>

<path  fill="#1BA597" stroke-width="0" stroke="#1BA597" d = " M161 68 L163,69 C163,69 169,62 169,62 169,62 167,61 167,61 167,61 166,61 166,61 166,61 165,62 165,62 165,63.417 162.617,68 161,68  Z"/>

<path  fill="#1BA597" stroke-width="0" stroke="#1BA597" d = " M170 61 L169,62 C169,62 170,61 170,61  Z"/>

<path  fill="#FF90FF" stroke-width="0" stroke="#FF90FF" d = " M153 107 C153,102.605 159.696,99.1078 161,96.5 164.934,88.6319 185.648,79.4262 194.5,75 198.574,72.9631 206.96,67.2302 212.5,70 L225.5,82 C232.899,85.6994 238.96,72.2702 243.5,70 250.811,66.3443 262.093,75.2964 267.5,78 275.891,82.1957 303,96.9094 303,107 309.445,107 306,101.428 306,98 306,98 306,97 306,97 306,97 305,96 305,96 305,96 305,95 305,95 305,95 304,94 304,94 304,94 302,90 302,90 302,90 301,89 301,89 301,89 299,86 299,86 299,86 299,85 299,85 299,85 298,85 298,85 298,85 297,84 297,84 297,84 295,82 295,82 295,82 284.5,75 284.5,75 275.553,70.5263 266.371,66.4355 257.5,62 249.77,58.1352 242.81,62.345 237.5,65 237.5,65 230.5,72 230.5,72 230.5,72 228.5,70 228.5,70 227.268,69.3839 226.427,72.4633 223.5,71 223.5,71 213.5,61 213.5,61 203.613,56.0563 180.329,71.0854 172.5,75 172.5,75 161,83 161,83 161,83 160,83 160,83 160,83 159,84 159,84 159,84 158,85 158,85 158,85 157,86 157,86 157,86 156,87 156,87 156,87 156,88 156,88 156,88 155,89 155,89 155,89 155,90 155,90 155,90 154,91 154,91 154,91 153,92 153,92 153,92 153,93 153,93 153,93 152,94 152,94 152,94 151,95 151,95 151,95 151,97 151,97 151,97 150,98 150,98 150,98 150,99 150,99 150,102.013 148.856,107 153,107  Z"/>

<path  fill="#1AA597" stroke-width="0" stroke="#1AA597" d = " M297 67 L295,68 C295,68 290,61 290,61 290,61 292,62 292,62 292,62 293,62 293,62 293,62 297,67 297,67  Z"/>

<path  fill="#33B932" stroke-width="0" stroke="#33B932" d = " M294 70 L296,74 C300.768,74 303.614,63 308,63 308,63 308,61 308,61 308,61 307,61 307,61 304.636,61 303.947,64 302,64 302,64 299,65 299,65 299,66.7469 298.747,67 297,67 297,67 295,68 295,68 295,68 294,70 294,70  Z"/>

<path  fill="#C9C9CA" stroke-width="0" stroke="#C9C9CA" d = " M327 73 L329,73 C329,71.2194 311.419,61 309,61 309,61 308,61 308,61 308,61 308,63 308,63 308,63 310,64 310,64 310,64 327,73 327,73  Z"/>

<path  fill="#1BA498" stroke-width="0" stroke="#1BA498" d = " M164 62 L163,63 C163,63 164,62 164,62  Z"/>

<path  fill="#1AA597" stroke-width="0" stroke="#1AA597" d = " M160 67 L161,68 C162.617,68 165,63.417 165,62 165,62 164,62 164,62 164,62 163,63 163,63 163,63 160,67 160,67  Z"/>

<path  fill="#1BA498" stroke-width="0" stroke="#1BA498" d = " M299 65 C299,66.7469 298.747,67 297,67 297,67 293,62 293,62 295.9,62 295.7,65 299,65  Z"/>

<path  fill="#08858A" stroke-width="0" stroke="#08858A" d = " M141 63 C139.535,63 137,62.891 137,65 138.465,65 141,65.109 141,63  Z"/>

<path  fill="#47C83C" stroke-width="0" stroke="#47C83C" d = " M117 109 L140,110 C141.996,110 144.222,103.055 145,101.5 147.995,95.5105 160,79.6093 160,74 160,74 149,63 149,63 149,63 147,64 147,64 147,64 146,65 146,65 146,65 140,71 140,71 140,71 139,72 139,72 139,72 138,73 138,73 138,73 133,79 133,79 133,79 132,80 132,80 132,80 130,84 130,84 130,84 129,85 129,85 129,85 128,88 128,88 128,88 127,89 127,89 127,89 117,109 117,109  Z"/>

<path  fill="#1BA498" stroke-width="0" stroke="#1BA498" d = " M157 65 C157,66.5774 158.762,67 160,67 160,67 163,63 163,63 160.553,63 159.72,65 157,65  Z"/>

<path  fill="#47C83C" stroke-width="0" stroke="#47C83C" d = " M339 109 L316,110 C316,110 311,102.5 311,102.5 309.996,100.492 310.024,97.5477 309,95.5 305.884,89.2673 296,81.1152 296,74 300.768,74 303.614,63 308,63 308,63 310,64 310,64 310,67.7131 317,69.227 317,72 317,72 325,81 325,81 325,81 325,82 325,82 325,82 327,84 327,84 327,84 328,87 328,87 328,87 329,88 329,88 329,88 329,89 329,89 329,96.1069 339,101.62 339,109  Z"/>

<path  fill="#C8C9CA" stroke-width="0" stroke="#C8C9CA" d = " M147 64 L146,65 C146,65 147,64 147,64  Z"/>

<path  fill="#C8C9CA" stroke-width="0" stroke="#C8C9CA" d = " M359 99 L358,101 C358,101 352.5,95 352.5,95 346.236,91.8682 331.195,76 325,76 325,76 317,72 317,72 317,69.227 310,67.7131 310,64 310,64 327,73 327,73 327,75.1152 332.996,78.2478 334.5,79 337.227,80.3635 359,97.1795 359,99  Z"/>

<path  fill="#08858A" stroke-width="0" stroke="#08858A" d = " M127 73 L119,77 C119,75.6003 135.146,65 137,65 137,69.112 127,68.8663 127,73  Z"/>

<path  fill="#C8C9CA" stroke-width="0" stroke="#C8C9CA" d = " M97 99 L98,101 C98,101 107.5,92 107.5,92 110.92,88.5805 127.929,76 132,76 132,76 138,73 138,73 138,73 139,72 139,72 139,72 140,71 140,71 140,71 146,65 146,65 139.464,65 135.295,73 129,73 129,75.0559 107.787,88.7126 105,91.5 105,91.5 97,99 97,99  Z"/>

<path  fill="#08828B" stroke-width="0" stroke="#08828B" d = " M73 83 L77,85 C77,85 93,73 93,73 93,73 93,72 93,72 93,72 90,67 90,67 90,67 89,67 89,67 89,70.4249 79.7357,75.7643 77,78.5 77,78.5 73,82 73,82 73,82 73,83 73,83  Z"/>

<path  fill="#08828B" stroke-width="0" stroke="#08828B" d = " M379 85 L380,85 C380,85 383,83 383,83 383,83 383,82 383,82 383,82 367,67 367,67 367,67 366,67 366,67 366,67 363,72 363,72 363,72 363,73 363,73 365.713,73 372.914,79.414 375.5,82 375.5,82 379,85 379,85  Z"/>

<path  fill="#FF90FE" stroke-width="0" stroke="#FF90FE" d = " M287 112 C287,105.798 270.655,95.5773 265.5,93 259.078,89.7889 255.105,84.3027 248.5,81 240.614,77.0572 232.459,88.4796 225.5,85 221.658,83.0789 212.671,78.4144 207.5,81 200.601,84.4495 195.493,91.5036 188.5,95 182.112,98.1942 170,106.133 170,113 164.095,113 158.181,107 153,107 153,102.605 159.696,99.1078 161,96.5 164.934,88.6319 185.648,79.4262 194.5,75 198.574,72.9631 206.96,67.2302 212.5,70 212.5,70 225.5,82 225.5,82 232.899,85.6994 238.96,72.2702 243.5,70 250.811,66.3443 262.093,75.2964 267.5,78 275.891,82.1957 303,96.9094 303,107 300.642,107 292.952,112 287,112  Z"/>

<path  fill="#7DCD4B" stroke-width="0" stroke="#7DCD4B" d = " M140 71 L139,72 C139,72 140,71 140,71  Z"/>

<path  fill="#FF7AFD" stroke-width="0" stroke="#FF7AFD" d = " M165 71 L164,73 C164,73 165,71 165,71  Z"/>

<path  fill="#7DCD4B" stroke-width="0" stroke="#7DCD4B" d = " M139 72 L138,73 C138,73 139,72 139,72  Z"/>

<path  fill="#7DCD4B" stroke-width="0" stroke="#7DCD4B" d = " M325 76 C321.228,76 325,79.7527 325,81 325,81 317,72 317,72 317,72 325,76 325,76  Z"/>

<path  fill="#0B858B" stroke-width="0" stroke="#0B858B" d = " M83 94 L84,94 C84,92.2175 97.5759,81 99,81 99,81 99,80 99,80 95.5356,80 96.7528,73 93,73 93,73 77,85 77,85 77,85 77,86 77,86 77,89.0502 83,90.4833 83,94  Z"/>

<path  fill="#CBC9C7" stroke-width="0" stroke="#CBC9C7" d = " M71 125 L70,129 C73.4543,129 73.0458,122 77,122 77,119.901 94.7833,99 97,99 97,99 105,91.5 105,91.5 107.787,88.7126 129,75.0559 129,73 129,73 127,73 127,73 127,73 119,77 119,77 119,79.4771 110.064,84.7179 107.5,86 107.5,86 104,89 104,89 104,89 103,89 103,89 103,90.7469 102.747,91 101,91 101,92.7469 100.747,93 99,93 99,94.7469 98.7469,95 97,95 97,96.7469 96.7469,97 95,97 95,98.7972 92.7972,101 91,101 91,101 91,102 91,102 91,102 90,103 90,103 90,103 89,103 89,103 89,104.747 88.7469,105 87,105 87,106.747 86.7469,107 85,107 85,109.645 77.1974,119 75,119 75,120.664 73.1775,125 71,125  Z"/>

<path  fill="#7DCD4B" stroke-width="0" stroke="#7DCD4B" d = " M132 76 C133.473,76 133,77.9521 133,79 133,79 138,73 138,73 138,73 132,76 132,76  Z"/>

<path  fill="#FF7AFD" stroke-width="0" stroke="#FF7AFD" d = " M164 73 L163,74 C163,74 164,73 164,73  Z"/>

<path  fill="#CBC9C7" stroke-width="0" stroke="#CBC9C7" d = " M366 102 C366,106.751 387,121.763 387,129 383.618,129 364.418,99 359,99 359,97.1795 337.227,80.3635 334.5,79 332.996,78.2478 327,75.1152 327,73 327,73 329,73 329,73 335.455,73 347.593,89 352,89 352,89 366,102 366,102  Z"/>

<path  fill="#0B858B" stroke-width="0" stroke="#0B858B" d = " M379 85 C379,89.1595 373,90.4598 373,94 373,94 358,81 358,81 358,79.2621 361.015,73 363,73 365.713,73 372.914,79.414 375.5,82 375.5,82 379,85 379,85  Z"/>

<path  fill="#FF7AFD" stroke-width="0" stroke="#FF7AFD" d = " M163 77 L161,79 C161,77.5758 161.362,74 163,74 163,74 163,77 163,77  Z"/>

<path  fill="#0C858C" stroke-width="0" stroke="#0C858C" d = " M59 87 L60,87 C61.5414,87 67,78.8188 67,77 67,75.2531 66.7469,75 65,75 63.2177,75 57,83.2835 57,85 57,85 59,87 59,87  Z"/>

<path  fill="#0C858C" stroke-width="0" stroke="#0C858C" d = " M396 87 L397,87 C397,85.5187 399,86.2148 399,84 399,82.0143 392.489,75 391,75 389.253,75 389,75.2531 389,77 389,80.9669 396,83.2337 396,87  Z"/>

<path  fill="#C9CCC9" stroke-width="0" stroke="#C9CCC9" d = " M111 107 L97.5,107 L93,109 C93,109 92,107 92,107 92,107 98,101 98,101 98,101 107.5,92 107.5,92 110.92,88.5805 127.929,76 132,76 133.473,76 133,77.9521 133,79 133,79 132,80 132,80 132,80 130,84 130,84 130,84 129,85 129,85 129,85 128,88 128,88 128,88 127,89 127,89 124.517,89 119.972,98.5563 119,100.5 119,100.5 111,107 111,107  Z"/>

<path  fill="#C9CCC9" stroke-width="0" stroke="#C9CCC9" d = " M364 107 L364,109 C364,109 358.5,107 358.5,107 358.5,107 345,107 345,107 345,107 340.5,103 340.5,103 337.559,100.059 331.95,89 329,89 329,89 329,88 329,88 329,88 328,87 328,87 328,87 327,84 327,84 327,84 325,82 325,82 325,82 325,81 325,81 325,79.7527 321.228,76 325,76 331.195,76 346.236,91.8682 352.5,95 352.5,95 358,101 358,101 358,101 364,107 364,107  Z"/>

<path  fill="#0A858A" stroke-width="0" stroke="#0A858A" d = " M60 87 C60,88.6543 63.7401,92 65,92 65,92 73,83 73,83 73,83 73,82 73,82 73,82 69,77 69,77 69,77 67,77 67,77 67,78.8188 61.5414,87 60,87  Z"/>

<path  fill="#08858A" stroke-width="0" stroke="#08858A" d = " M104 88 L104,89 C104,89 107.5,86 107.5,86 110.064,84.7179 119,79.4771 119,77 113.323,77 109.181,87 104,87 104,87 104,88 104,88  Z"/>

<path  fill="#0A858A" stroke-width="0" stroke="#0A858A" d = " M396 87 C396,89.101 393.169,92 391,92 391,92 383,83 383,83 383,83 383,82 383,82 383,82 388,77 388,77 388,77 389,77 389,77 389,80.9669 396,83.2337 396,87  Z"/>

<path  fill="#7DCD4B" stroke-width="0" stroke="#7DCD4B" d = " M133 79 L132,80 C132,80 133,79 133,79  Z"/>

<path  fill="#08848C" stroke-width="0" stroke="#08848C" d = " M90 101 L91,101 C91,98.7736 92.7736,97 95,97 95,95.2531 95.2531,95 97,95 97,93.2531 97.2531,93 99,93 99,91.2531 99.2531,91 101,91 101,89.2531 101.253,89 103,89 103,89 104,88 104,88 104,88 104,87 104,87 104,87 99,81 99,81 97.5759,81 84,92.2175 84,94 84,96.6959 89,97.8465 89,101 89,101 90,101 90,101  Z"/>

<path  fill="#FF8FFF" stroke-width="0" stroke="#FF8FFF" d = " M277 122 L279,122 C279,122 282.5,120 282.5,120 283.734,119.383 287,113.458 287,112 287,105.798 270.655,95.5773 265.5,93 259.078,89.7889 255.105,84.3027 248.5,81 240.614,77.0572 232.459,88.4796 225.5,85 221.658,83.0789 212.671,78.4144 207.5,81 200.601,84.4495 195.493,91.5036 188.5,95 182.112,98.1942 170,106.133 170,113 170,116.399 177,120.04 177,122 177,122 180,122 180,122 180,122 191,119 191,119 191,119 190,109.5 190,109.5 194.454,100.592 201.616,93.4421 210.5,89 210.5,89 228,91 228,91 228,91 246.5,89 246.5,89 253.751,92.6253 262.574,100.648 266,107.5 266,107.5 266,119 266,119 269.818,119 272.678,122 277,122  Z"/>

<path  fill="#FF64FF" stroke-width="0" stroke="#FF64FF" d = " M295 82 L296,82 C296,82 295,81 295,81 295,81 295,82 295,82  Z"/>

<path  fill="#08848C" stroke-width="0" stroke="#08848C" d = " M366 101 L367,101 C367,98.8967 371.468,95 373,95 373,95 373,94 373,94 373,94 358,81 358,81 358,81 357,81 357,81 357,81 353,87 353,87 353,87 353,88 353,88 353,88 366,101 366,101  Z"/>

<path  fill="#C7CBCB" stroke-width="0" stroke="#C7CBCB" d = " M160 83 L161,83 C161,83 161,82 161,82 161,82 159,83 159,83 159,83 160,83 160,83  Z"/>

<path  fill="#C7CBCB" stroke-width="0" stroke="#C7CBCB" d = " M298 85 L299,85 C299,85 296,82 296,82 296,82 295,82 295,82 295,82 297,84 297,84 297,84 298,85 298,85  Z"/>

<path  fill="#7DCD4B" stroke-width="0" stroke="#7DCD4B" d = " M325 82 L327,84 C327,84 325,82 325,82  Z"/>

<path  fill="#08828C" stroke-width="0" stroke="#08828C" d = " M67 95 L68,95 C68,92.4893 74.43,86 77,86 77,86 77,85 77,85 77,85 73,83 73,83 73,83 65,92 65,92 65,92 65,93 65,93 65,93 67,95 67,95  Z"/>

<path  fill="#C7CBCB" stroke-width="0" stroke="#C7CBCB" d = " M159 84 L158,85 C158,85 159,83 159,83 159,83 159,84 159,84  Z"/>

<path  fill="#FF64FF" stroke-width="0" stroke="#FF64FF" d = " M160 83 L159,84 C159,84 159,83 159,83 159,83 160,83 160,83  Z"/>

<path  fill="#08828C" stroke-width="0" stroke="#08828C" d = " M391 93 L389,94 C389,94 380,85 380,85 380,85 383,83 383,83 383,83 391,92 391,92 391,92 391,93 391,93  Z"/>

<path  fill="#7DCD4B" stroke-width="0" stroke="#7DCD4B" d = " M130 84 L129,85 C129,85 130,84 130,84  Z"/>

<path  fill="#FF64FF" stroke-width="0" stroke="#FF64FF" d = " M297 84 L298,85 C298,85 297,84 297,84  Z"/>

<path  fill="#09818C" stroke-width="0" stroke="#09818C" d = " M411 99 L409,103 C409,103 406,99.5 406,99.5 403.651,97.1509 397,89.5068 397,87 397,85.5187 399,86.2148 399,84 399,84 401.5,87 401.5,87 403.18,87.8398 411,96.8975 411,99  Z"/>

<path  fill="#09818C" stroke-width="0" stroke="#09818C" d = " M46 99 L47,104 C47,104 50,100.5 50,100.5 52.3092,98.1908 59,90.284 59,87 59,87 57,85 57,85 54.2163,85 46,96.6949 46,99  Z"/>

<path  fill="#C7CBCB" stroke-width="0" stroke="#C7CBCB" d = " M158 85 L157,86 C157,86 158,85 158,85  Z"/>

<path  fill="#0A848A" stroke-width="0" stroke="#0A848A" d = " M379 103 L381,103 C381,102.057 387.778,96 389,96 389,96 389,94 389,94 389,94 380,85 380,85 380,85 379,85 379,85 379,89.1595 373,90.4598 373,94 373,94 373,95 373,95 374.46,95 379,101.472 379,103  Z"/>

<path  fill="#0A848A" stroke-width="0" stroke="#0A848A" d = " M77 102 L76,103 C76,103 68,95 68,95 68,92.4893 74.43,86 77,86 77,89.0502 83,90.4833 83,94 83,97.374 77,99.8747 77,102  Z"/>

<path  fill="#C7CBCB" stroke-width="0" stroke="#C7CBCB" d = " M157 86 L156,87 C156,87 157,86 157,86  Z"/>

<path  fill="#C7CBCB" stroke-width="0" stroke="#C7CBCB" d = " M304 94 L305,94 C305,92.1776 301.289,86 299,86 299,86 301,89 301,89 301,89 302,90 302,90 302,90 304,94 304,94  Z"/>

<path  fill="#0A8389" stroke-width="0" stroke="#0A8389" d = " M47 106 C47,109.582 46.9516,120 48,120 48,117.09 62.6493,93 65,93 65,93 65,92 65,92 63.7401,92 60,88.6543 60,87 60,87 59,87 59,87 59,90.284 52.3092,98.1908 50,100.5 50,100.5 47,104 47,104 47,104 47,105 47,105 47,105 47,106 47,106  Z"/>

<path  fill="#C7CBCB" stroke-width="0" stroke="#C7CBCB" d = " M155 88 L156,88 C156,88 156,87 156,87 156,87 155,88 155,88  Z"/>

<path  fill="#7DCD4B" stroke-width="0" stroke="#7DCD4B" d = " M328 87 L329,88 C329,88 328,87 328,87  Z"/>

<path  fill="#0A8389" stroke-width="0" stroke="#0A8389" d = " M408 120 L409,120 C409,116.118 409.333,107 410,107 410,107 410,106 410,106 410,106 409,105 409,105 409,105 409,104 409,104 409,104 409,103 409,103 409,103 406,99.5 406,99.5 403.651,97.1509 397,89.5068 397,87 397,87 396,87 396,87 396,89.101 393.169,92 391,92 391,92 391,93 391,93 394.466,93 408,115.73 408,120  Z"/>

<path  fill="#09858C" stroke-width="0" stroke="#09858C" d = " M103 89 L104,89 C104,89 104,88 104,88 104,88 103,89 103,89  Z"/>

<path  fill="#7DCD4B" stroke-width="0" stroke="#7DCD4B" d = " M128 88 L127,89 C127,89 128,88 128,88  Z"/>

<path  fill="#FF64FF" stroke-width="0" stroke="#FF64FF" d = " M156 88 L155,89 C155,89 155,88 155,88 155,88 156,88 156,88  Z"/>

<path  fill="#09858C" stroke-width="0" stroke="#09858C" d = " M366 101 L366,102 C366,102 352,89 352,89 352,89 353,88 353,88 353,88 366,101 366,101  Z"/>

<path  fill="#09858C" stroke-width="0" stroke="#09858C" d = " M103 89 C101.253,89 101,89.2531 101,91 102.747,91 103,90.7469 103,89  Z"/>

<path  fill="#7DCD4B" stroke-width="0" stroke="#7DCD4B" d = " M112 108 L117,109 C117,109 127,89 127,89 124.517,89 119.972,98.5563 119,100.5 119,100.5 111,107 111,107 111,107 112,108 112,108  Z"/>

<path  fill="#C7CBCB" stroke-width="0" stroke="#C7CBCB" d = " M154 90 L155,90 C155,90 155,89 155,89 155,89 154,90 154,90  Z"/>

<path  fill="#FF8FFE" stroke-width="0" stroke="#FF8FFE" d = " M193 120 C193,108.824 199.871,97.3143 210.5,92 L226,93 L245.5,92 C254.74,96.6198 264,108.153 264,120 264,120 266,119 266,119 266,119 266,107.5 266,107.5 262.574,100.648 253.751,92.6253 246.5,89 246.5,89 228,91 228,91 228,91 210.5,89 210.5,89 201.616,93.4421 194.454,100.592 190,109.5 190,109.5 191,119 191,119 191,119 193,120 193,120  Z"/>

<path  fill="#FF64FF" stroke-width="0" stroke="#FF64FF" d = " M301 89 L302,90 C302,90 301,89 301,89  Z"/>

<path  fill="#7DCD4B" stroke-width="0" stroke="#7DCD4B" d = " M339 109 L340,109 C340,109 345,108 345,108 345,108 345,107 345,107 345,107 340.5,103 340.5,103 337.559,100.059 331.95,89 329,89 329,96.1069 339,101.62 339,109  Z"/>

<path  fill="#C7CBCB" stroke-width="0" stroke="#C7CBCB" d = " M153 91 L154,91 C154,91 154,90 154,90 154,90 153,91 153,91  Z"/>

<path  fill="#FF64FF" stroke-width="0" stroke="#FF64FF" d = " M155 90 L154,91 C154,91 154,90 154,90 154,90 155,90 155,90  Z"/>

<path  fill="#09858C" stroke-width="0" stroke="#09858C" d = " M101 91 C99.2531,91 99,91.2531 99,93 100.747,93 101,92.7469 101,91  Z"/>

<path  fill="#FF64FF" stroke-width="0" stroke="#FF64FF" d = " M154 91 L153,92 C153,92 153,91 153,91 153,91 154,91 154,91  Z"/>

<path  fill="#C7CBCB" stroke-width="0" stroke="#C7CBCB" d = " M152 93 L153,93 C153,93 153,92 153,92 153,92 152,93 152,93  Z"/>

<path  fill="#FC8FFF" stroke-width="0" stroke="#FC8FFF" d = " M212 149 L213,149 C217.88,149 226,143.227 226,138 222.289,138 215.079,149.79 209.5,147 206.134,145.317 208.995,140.252 211.5,139 214.256,137.622 220.797,133.149 224.5,135 224.5,135 226,137 226,137 226,132.275 227,127.121 227,123 227,123 224,117.5 224,117.5 226.519,112.462 229.481,112.462 232,117.5 232,117.5 229,124 229,124 229,124.17 231,131.269 231,135 235.791,135 245.67,136.84 248,141.5 248.978,143.456 247,145.577 247,147 251.84,147 263,131.056 263,127 263,127 264,120 264,120 264,108.153 254.74,96.6198 245.5,92 245.5,92 226,93 226,93 226,93 210.5,92 210.5,92 199.871,97.3143 193,108.824 193,120 193,120 193,127 193,127 193,131.12 205.736,148 211,148 211,148 212,149 212,149  Z"/>

<path  fill="#0A828A" stroke-width="0" stroke="#0A828A" d = " M48 121 L49,125 C49,125 56,111.5 56,111.5 56,111.5 67,95 67,95 67,95 65,93 65,93 62.6493,93 48,117.09 48,120 49.1859,120 49.1859,121 48,121  Z"/>

<path  fill="#09858C" stroke-width="0" stroke="#09858C" d = " M99 93 C97.2531,93 97,93.2531 97,95 98.7469,95 99,94.7469 99,93  Z"/>

<path  fill="#C7CBCB" stroke-width="0" stroke="#C7CBCB" d = " M152 94 L151,95 C151,95 152,93 152,93 152,93 152,94 152,94  Z"/>

<path  fill="#FF64FF" stroke-width="0" stroke="#FF64FF" d = " M153 93 L152,94 C152,94 152,93 152,93 152,93 153,93 153,93  Z"/>

<path  fill="#0A828A" stroke-width="0" stroke="#0A828A" d = " M409 122 L407,126 C407,121.727 391.344,96 389,96 389,96 389,94 389,94 389,94 391,93 391,93 394.466,93 408,115.73 408,120 408,120 409,121 409,121 409,121 409,122 409,122  Z"/>

<path  fill="#088488" stroke-width="0" stroke="#088488" d = " M88 103 L89,103 C89,103 89,102 89,102 89,102 89,101 89,101 89,97.8465 84,96.6959 84,94 84,94 83,94 83,94 83,97.374 77,99.8747 77,102 77.6724,102 88,101.33 88,103  Z"/>

<path  fill="#FF64FF" stroke-width="0" stroke="#FF64FF" d = " M305 94 L305,95 C305,95 304,94 304,94 304,94 305,94 305,94  Z"/>

<path  fill="#0B838A" stroke-width="0" stroke="#0B838A" d = " M49 130 C52.0979,130 52.5084,138 57,138 59.0222,138 60.1272,127.246 61,125.5 62.6365,122.227 76,104.418 76,103 76,103 68,95 68,95 68,95 67,95 67,95 67,95 56,111.5 56,111.5 56,111.5 49,125 49,125 49,125 49,126 49,126 49,126 49,130 49,130  Z"/>

<path  fill="#09858C" stroke-width="0" stroke="#09858C" d = " M97 95 C95.2531,95 95,95.2531 95,97 96.7469,97 97,96.7469 97,95  Z"/>

<path  fill="#C7CBCB" stroke-width="0" stroke="#C7CBCB" d = " M150 97 L151,97 C151,97 151,95 151,95 151,95 150,97 150,97  Z"/>

<path  fill="#C7CBCB" stroke-width="0" stroke="#C7CBCB" d = " M306 98 L307,98 C307,96.7617 306.577,95 305,95 305,95 305,96 305,96 305,96 306,97 306,97 306,97 306,98 306,98  Z"/>

<path  fill="#088488" stroke-width="0" stroke="#088488" d = " M368 102 C371.806,102 375.751,103 379,103 379,101.472 374.46,95 373,95 371.468,95 367,98.8967 367,101 367,101 367,102 367,102 367,102 368,102 368,102  Z"/>

<path  fill="#FF64FF" stroke-width="0" stroke="#FF64FF" d = " M305 96 L306,97 C306,97 305,96 305,96  Z"/>

<path  fill="#0B838A" stroke-width="0" stroke="#0B838A" d = " M407 130 C407,131.916 401.321,139 399,139 399,130.473 392.616,121.732 389,114.5 387.306,111.111 381,106.837 381,103 381,102.057 387.778,96 389,96 391.344,96 407,121.727 407,126 407,126 407,128 407,128 407,128 407,130 407,130  Z"/>

<path  fill="#09858C" stroke-width="0" stroke="#09858C" d = " M95 97 C92.7736,97 91,98.7736 91,101 92.7972,101 95,98.7972 95,97  Z"/>

<path  fill="#C7CBCB" stroke-width="0" stroke="#C7CBCB" d = " M149 99 L150,99 C150,99 150,98 150,98 150,98 150,97 150,97 150,97 149,99 149,99  Z"/>

<path  fill="#FF64FF" stroke-width="0" stroke="#FF64FF" d = " M151 97 L150,98 C150,98 150,97 150,97 150,97 151,97 151,97  Z"/>

<path  fill="#FF64FF" stroke-width="0" stroke="#FF64FF" d = " M279 189 C279,189.918 282.595,190.548 283.5,191 284.617,191.559 298.071,195 299,195 300.845,195 300.441,191.619 301,190.5 301,190.5 308.5,181 308.5,181 308.5,181 312,182 312,182 312,175.525 316.205,167.09 319,161.5 319.498,160.504 321,137.403 321,135 319.981,135 317.998,138.495 317,136.5 314.506,131.512 317.565,123.63 315,118.5 313.385,115.271 305.817,109.865 308,105.5 308,105.5 312,107 312,107 312,107 307,98 307,98 307,98 306,98 306,98 306,101.428 309.445,107 303,107 300.642,107 292.952,112 287,112 287,113.458 283.734,119.383 282.5,120 282.5,120 279,122 279,122 279,122 289.5,121 289.5,121 291.539,122.019 299.132,126 301,126 301,126 302,121 302,121 302,121 305,116.5 305,116.5 312.261,109.239 316.894,129.803 314.5,131 311.532,132.484 307.567,132 304,132 304,132 303,147 303,147 310.827,147 309,150.477 309,157 311.841,157 310.549,150.476 313.5,149 316.421,147.539 316.392,151.285 317,152.5 320.38,159.259 309,171.711 309,158 309,158 303.5,161 303.5,161 300.151,162.675 297.259,159 295,159 295,162.882 289,164.862 289,168 289,168 297,175.5 297,175.5 299.027,179.553 294.91,187.295 291.5,189 291.5,189 279,189 279,189  Z"/>

<path  fill="#15B0B3" stroke-width="0" stroke="#15B0B3" d = " M36 132 L37,132 C37,127.796 43.5812,106 47,106 47,106 47,105 47,105 45.8141,105 45.8141,104 47,104 47,104 46,99 46,99 43.732,99 41.7718,104.956 41,106.5 36.6614,115.177 31,122.516 31,133 31,133 36,132 36,132  Z"/>

<path  fill="#C8CBCC" stroke-width="0" stroke="#C8CBCC" d = " M79 121 L77,122 C77,119.901 94.7833,99 97,99 97,99 98,101 98,101 98,101 92,107 92,107 90.0985,107 87,111.332 87,113 85.2531,113 85,113.253 85,115 85,115 84,116 84,116 84,116 83,117 83,117 83,117 82,118 82,118 82,118 81,119 81,119 81,119 80,120 80,120 80,120 79,121 79,121  Z"/>

<path  fill="#FF64FF" stroke-width="0" stroke="#FF64FF" d = " M177 190 C169.825,190 163.495,195 157,195 157,191.642 150.853,182.676 147.5,181 145.123,179.811 145.384,183 144,183 144,175.239 140.273,167.046 137,160.5 137,160.5 136,135 136,135 136,135 138.5,137 138.5,137 138.5,137 140,133 140,133 140,133 141,119.5 141,119.5 142.122,117.256 150.161,108.822 149,106.5 147.887,104.275 146.788,106 145,106 145,106 149,99 149,99 149,99 150,99 150,99 150,102.013 148.856,107 153,107 158.181,107 164.095,113 170,113 170,116.399 177,120.04 177,122 172.407,122 166.991,119.755 162.5,122 162.5,122 155,126 155,126 155,123.622 154.971,122.441 154,120.5 145.835,104.171 137.049,128.775 143.5,132 143.5,132 153,132 153,132 153,134.014 150.716,137.932 152,140.5 152,140.5 154,147 154,147 149.83,147 146,146.825 146,153 146,153 141.5,149 141.5,149 132.556,153.472 144.85,168.801 148,162.5 148,162.5 147,157 147,157 147,157 153.5,161 153.5,161 153.5,161 161,160 161,160 161,160 167,168 167,168 167,168 159,176.5 159,176.5 157.383,179.735 161.93,187.715 164.5,189 164.5,189 177,189 177,189 177,189 177,190 177,190  Z"/>

<path  fill="#C8CBCC" stroke-width="0" stroke="#C8CBCC" d = " M386 177 L387,177 C387,173.828 389.492,165.516 391,162.5 394.069,156.361 390,143.04 390,137 390,134.252 387,131.196 387,129 383.618,129 364.418,99 359,99 359,99 358,101 358,101 358,101 364,107 364,107 365.716,107 383,126.433 383,129 383,129 383,131 383,131 383,131 384,132 384,132 384,132 385,137 385,137 385,137 385,138 385,138 387.342,138 387,145.951 387,148 387,148 387,150 387,150 388.647,150 388.647,165 387,165 387,165 387,166 387,166 387,166 386,177 386,177  Z"/>

<path  fill="#15B0B3" stroke-width="0" stroke="#15B0B3" d = " M420 132 L425,133 C425,123.568 420.911,115.322 417,107.5 417,107.5 411,99 411,99 411,99 409,103 409,103 409,103 409,104 409,104 409,104 410,105 410,105 410,105 410,106 410,106 410,106 410,107 410,107 411.891,107 420,127.735 420,131 420,131 420,132 420,132  Z"/>

<path  fill="#08818B" stroke-width="0" stroke="#08818B" d = " M91 102 L90,103 C90,103 89,102 89,102 89,102 89,101 89,101 89,101 90,101 90,101 90,101 91,102 91,102  Z"/>

<path  fill="#09858C" stroke-width="0" stroke="#09858C" d = " M91 101 L91,102 C91,102 90,101 90,101 90,101 91,101 91,101  Z"/>

<path  fill="#08818B" stroke-width="0" stroke="#08818B" d = " M366 102 L367,102 C367,102 367,101 367,101 367,101 366,101 366,101 366,101 366,102 366,102  Z"/>

<path  fill="#0B838A" stroke-width="0" stroke="#0B838A" d = " M77 102 L76,103 C76,103 77,102 77,102  Z"/>

<path  fill="#0C858B" stroke-width="0" stroke="#0C858B" d = " M57 140 L61,141 C61,141 64,139 64,139 64,136.347 67.7165,125 71,125 71,122.756 72.7253,119 75,119 75,116.2 82.6029,107 85,107 85,105.253 85.2531,105 87,105 87,105 88,103 88,103 88,101.33 77.6724,102 77,102 77,102 76,103 76,103 76,104.418 62.6365,122.227 61,125.5 60.1272,127.246 59.0222,138 57,138 57,138 57,140 57,140  Z"/>

<path  fill="#0C848C" stroke-width="0" stroke="#0C848C" d = " M89 103 L90,103 C90,103 89,102 89,102 89,102 89,103 89,103  Z"/>

<path  fill="#0C848C" stroke-width="0" stroke="#0C848C" d = " M390 137 L393,139 C393,129.365 381.142,119.783 377,111.5 375.963,109.426 368,105.112 368,102 368,102 367,102 367,102 367,102 366,102 366,102 366,106.751 387,121.763 387,129 387,131.196 390,134.252 390,137  Z"/>

<path  fill="#0C858B" stroke-width="0" stroke="#0C858B" d = " M397 141 L398,141 C398,141 399,140 399,140 399,140 399,139 399,139 399,130.473 392.616,121.732 389,114.5 387.306,111.111 381,106.837 381,103 381,103 379,103 379,103 375.751,103 371.806,102 368,102 368,105.112 375.963,109.426 377,111.5 381.142,119.783 393,129.365 393,139 393,139 396,141 396,141 396,141 397,141 397,141  Z"/>

<path  fill="#0C848C" stroke-width="0" stroke="#0C848C" d = " M89 103 C89,104.747 88.7469,105 87,105 87,105 88,103 88,103 88,103 89,103 89,103  Z"/>

<path  fill="#09818C" stroke-width="0" stroke="#09818C" d = " M47 104 C45.8141,104 45.8141,105 47,105 47,105 47,104 47,104  Z"/>

<path  fill="#09818C" stroke-width="0" stroke="#09818C" d = " M409 105 L410,105 C410,105 409,104 409,104 409,104 409,105 409,105  Z"/>

<path  fill="#0C848C" stroke-width="0" stroke="#0C848C" d = " M87 105 C85.2531,105 85,105.253 85,107 86.7469,107 87,106.747 87,105  Z"/>

<path  fill="#C9C8C8" stroke-width="0" stroke="#C9C8C8" d = " M139 115 C139,119.704 135,124.469 135,129.5 135,130.778 134.335,135 136,135 136,135 138.5,137 138.5,137 138.5,137 140,133 140,133 140,133 141,119.5 141,119.5 142.122,117.256 150.161,108.822 149,106.5 147.887,104.275 146.788,106 145,106 145,106 139,115 139,115  Z"/>

<path  fill="#C9C8C8" stroke-width="0" stroke="#C9C8C8" d = " M312 107 C317.051,107 321,129.654 321,135 319.981,135 317.998,138.495 317,136.5 314.506,131.512 317.565,123.63 315,118.5 313.385,115.271 305.817,109.865 308,105.5 308,105.5 312,107 312,107  Z"/>

<path  fill="#16AFB3" stroke-width="0" stroke="#16AFB3" d = " M410 105 L410,106 C410,106 409,105 409,105 409,105 410,105 410,105  Z"/>

<path  fill="#16AFB3" stroke-width="0" stroke="#16AFB3" d = " M46 129 C46,130.139 38.2583,132 37,132 37,127.796 43.5812,106 47,106 47,109.582 46.9516,120 48,120 48,120 48,121 48,121 46.4284,121 45.1251,129 46,129  Z"/>

<path  fill="#0C848C" stroke-width="0" stroke="#0C848C" d = " M85 107 C82.6029,107 75,116.2 75,119 77.1974,119 85,109.645 85,107  Z"/>

<path  fill="#7DCD4B" stroke-width="0" stroke="#7DCD4B" d = " M93 109 C93,110.028 88.3341,113 87,113 87,111.332 90.0985,107 92,107 92,107 93,109 93,109  Z"/>

<path  fill="#C7C8CC" stroke-width="0" stroke="#C7C8CC" d = " M79 121 L79,123 C79,123 89.5,114 89.5,114 95.5968,110.952 104.869,108 112,108 112,108 111,107 111,107 111,107 97.5,107 97.5,107 97.5,107 93,109 93,109 93,110.028 88.3341,113 87,113 87,113 85,115 85,115 85,115 84,116 84,116 84,116 83,117 83,117 83,117 82,118 82,118 82,118 81,119 81,119 81,119 80,120 80,120 80,120 79,121 79,121  Z"/>

<path  fill="#C7C8CC" stroke-width="0" stroke="#C7C8CC" d = " M384 132 L385,137 C385,137 382.5,133 382.5,133 379.569,130.069 378.602,125.102 375,121.5 367.077,113.577 356.666,108 345,108 345,108 345,107 345,107 345,107 358.5,107 358.5,107 358.5,107 364,109 364,109 364,109 369,113.5 369,113.5 369,113.5 379,123.5 379,123.5 379.606,124.712 381.24,129 383,129 383,129 383,131 383,131 383,131 384,132 384,132  Z"/>

<path  fill="#7DCD4B" stroke-width="0" stroke="#7DCD4B" d = " M364 109 L369,113.5 L379,123.5 C379.606,124.712 381.24,129 383,129 383,126.433 365.716,107 364,107 364,107 364,109 364,109  Z"/>

<path  fill="#16AFB3" stroke-width="0" stroke="#16AFB3" d = " M411 130 C414.18,130 416.003,131 420,131 420,127.735 411.891,107 410,107 409.333,107 409,116.118 409,120 409,120 409,121 409,121 409,121 409,122 409,122 409,124.522 411,126.909 411,130  Z"/>

<path  fill="#4FC244" stroke-width="0" stroke="#4FC244" d = " M107 213 C104.28,213 103.447,215 101,215 96.8846,215 94.6408,212 91,212 91,210.753 88.5334,207 87,207 87,207 87,206 87,206 87,206 85,204 85,204 85,204 85,203 85,203 85,203 75,186.5 75,186.5 74.1174,184.735 73.5504,176 71,176 71,176 71,175 71,175 71,167.649 69,161.518 69,154 70.2052,154 71,140.926 71,139 72.3529,139 73,134.357 73,133 75.109,133 75,130.465 75,129 75,129 76,127 76,127 77.7116,127 79,124.429 79,123 79,123 89.5,114 89.5,114 95.5968,110.952 104.869,108 112,108 112,108 117,109 117,109 117,109 107,129.5 107,129.5 102.854,137.791 103.119,148.263 99,156.5 93.0621,168.376 108,198.458 108,210 108,210 107,213 107,213  Z"/>

<path  fill="#4FC244" stroke-width="0" stroke="#4FC244" d = " M365 212 C361.625,212 359.125,215 355,215 355,215 349,212 349,212 349,212 348,210 348,210 348,197.66 363.158,173.816 357,161.5 357,161.5 357,153.5 357,153.5 357,153.5 347,123.5 347,123.5 344.608,118.715 340,114.758 340,109 340,109 345,108 345,108 356.666,108 367.077,113.577 375,121.5 378.602,125.102 379.569,130.069 382.5,133 382.5,133 385,137 385,137 385,137 385,138 385,138 385,139.249 386.074,148 387,148 387,148 387,150 387,150 387,150 387,165 387,165 387,165 387,166 387,166 385.659,166 385,175.28 385,177 383.155,177 383.559,180.381 383,181.5 383,181.5 377,195 377,195 375.423,195 375,196.762 375,198 373.423,198 373,199.762 373,201 373,201 372,203 372,203 372,203 371,204 371,204 371,204 370,205 370,205 370,205 369,207 369,207 367.423,207 367,208.762 367,210 367,210 366,211 366,211 366,211 365,212 365,212  Z"/>

<path  fill="#59B847" stroke-width="0" stroke="#59B847" d = " M113 212 L117,212 C117,212 120,210 120,210 120,202.107 123,194.392 123,186 123,184.855 122.421,182 124,182 124,182 124,176 124,176 124,176 125,175 125,175 125,162.772 127.903,140.693 133,130.5 134.267,127.966 135.03,115 139,115 139,115 140,110 140,110 140,110 117,109 117,109 117,109 107,129.5 107,129.5 102.854,137.791 103.119,148.263 99,156.5 93.0621,168.376 108,198.458 108,210 108,210 113,212 113,212  Z"/>

<path  fill="#59B847" stroke-width="0" stroke="#59B847" d = " M339 211 L343,212 C343,212 348,210 348,210 348,197.66 363.158,173.816 357,161.5 357,161.5 357,153.5 357,153.5 357,153.5 347,123.5 347,123.5 344.608,118.715 340,114.758 340,109 340,109 339,109 339,109 339,109 316,110 316,110 316,111.812 322.729,126.958 324,129.5 327.134,135.768 331,164.588 331,173 331,173 332,174 332,174 332,174 332,180 332,180 332,180 333,181 333,181 333,181 333,189 333,189 333,189 334,191 334,191 334,191 336,210 336,210 336,210 339,211 339,211  Z"/>

<path  fill="#7DCD4B" stroke-width="0" stroke="#7DCD4B" d = " M87 113 C85.2531,113 85,113.253 85,115 85,115 87,113 87,113  Z"/>

<path  fill="#A9A9A8" stroke-width="0" stroke="#A9A9A8" d = " M227 123 L229,124 C229,124 232,117.5 232,117.5 229.481,112.462 226.519,112.462 224,117.5 224,117.5 227,123 227,123  Z"/>

<path  fill="#7DCD4B" stroke-width="0" stroke="#7DCD4B" d = " M85 115 L84,116 C84,116 85,115 85,115  Z"/>

<path  fill="#FE79FE" stroke-width="0" stroke="#FE79FE" d = " M155 126 C155,129.128 153,131.28 153,132 153,132 143.5,132 143.5,132 137.049,128.775 145.835,104.171 154,120.5 154.971,122.441 155,123.622 155,126  Z"/>

<path  fill="#FE79FE" stroke-width="0" stroke="#FE79FE" d = " M301 126 C301,128.607 300.584,132 304,132 307.567,132 311.532,132.484 314.5,131 316.894,129.803 312.261,109.239 305,116.5 305,116.5 302,121 302,121 302,121 301,126 301,126  Z"/>

<path  fill="#7DCD4B" stroke-width="0" stroke="#7DCD4B" d = " M84 116 L83,117 C83,117 84,116 84,116  Z"/>

<path  fill="#7DCD4B" stroke-width="0" stroke="#7DCD4B" d = " M83 117 L82,118 C82,118 83,117 83,117  Z"/>

<path  fill="#7DCD4B" stroke-width="0" stroke="#7DCD4B" d = " M82 118 L81,119 C81,119 82,118 82,118  Z"/>

<path  fill="#0C848C" stroke-width="0" stroke="#0C848C" d = " M75 119 C72.7253,119 71,122.756 71,125 73.1775,125 75,120.664 75,119  Z"/>

<path  fill="#7DCD4B" stroke-width="0" stroke="#7DCD4B" d = " M81 119 L80,120 C80,120 81,119 81,119  Z"/>

<path  fill="#FF64FF" stroke-width="0" stroke="#FF64FF" d = " M180 122 C180,123.781 186.197,123.348 187.5,124 189.373,124.936 190.73,127 193,127 193,127 193,120 193,120 193,120 191,119 191,119 191,119 180,122 180,122  Z"/>

<path  fill="#FF64FF" stroke-width="0" stroke="#FF64FF" d = " M277 122 C277,124.064 273.647,122.426 272.5,123 L263,127 C263,127 264,120 264,120 264,120 266,119 266,119 269.818,119 272.678,122 277,122  Z"/>

<path  fill="#15B0B2" stroke-width="0" stroke="#15B0B2" d = " M48 120 C49.1859,120 49.1859,121 48,121 48,121 48,120 48,120  Z"/>

<path  fill="#7DCD4B" stroke-width="0" stroke="#7DCD4B" d = " M80 120 L79,121 C79,121 80,120 80,120  Z"/>

<path  fill="#15B0B2" stroke-width="0" stroke="#15B0B2" d = " M409 120 L409,121 C409,121 408,120 408,120 408,120 409,120 409,120  Z"/>

<path  fill="#15B0B2" stroke-width="0" stroke="#15B0B2" d = " M48 130 L49,130 C49,130 49,126 49,126 47.8141,126 47.8141,125 49,125 49,125 48,121 48,121 46.4284,121 45.1251,129 46,129 46,129 48,130 48,130  Z"/>

<path  fill="#7DCD4B" stroke-width="0" stroke="#7DCD4B" d = " M79 123 L77,124 C77,124 77,122 77,122 77,122 79,121 79,121 79,121 79,123 79,123  Z"/>

<path  fill="#FF8FFD" stroke-width="0" stroke="#FF8FFD" d = " M204 186 C200.622,186 193.307,183.096 189.5,185 L184,187 C184,187 183,186 183,186 183,182.52 188.245,178.991 186,174.5 181.665,165.83 173.909,168 167,168 167,168 161,160 161,160 161,157.376 159.749,147 154,147 154,147 152,140.5 152,140.5 150.716,137.932 153,134.014 153,132 153,131.28 155,129.128 155,126 155,126 162.5,122 162.5,122 166.991,119.755 172.407,122 177,122 177,122 180,122 180,122 180,123.781 186.197,123.348 187.5,124 189.373,124.936 190.73,127 193,127 193,131.12 205.736,148 211,148 211,148 212,149 212,149 212,149 213,149 213,149 213,150.114 215.034,153 216,153 216,153 220,159 220,159 220,161.361 219.6,164 217,164 208.928,164 207,178.305 207,185 207,185 204,186 204,186  Z"/>

<path  fill="#FF8FFD" stroke-width="0" stroke="#FF8FFD" d = " M252 186 C255.476,186 262.654,183.077 266.5,185 L272,187 C272,187 273,185 273,185 273,182.158 268.367,178.767 270,175.5 274.602,166.296 281.007,168 289,168 289,164.862 295,162.882 295,159 295,155.831 297.635,147 303,147 303,147 304,132 304,132 300.584,132 301,128.607 301,126 299.132,126 291.539,122.019 289.5,121 289.5,121 279,122 279,122 279,122 277,122 277,122 277,124.064 273.647,122.426 272.5,123 272.5,123 263,127 263,127 263,131.056 251.84,147 247,147 247,147 246,148 246,148 246,148 244,149 244,149 244,149 240,153 240,153 240,155.773 236,156.67 236,159 236,160.408 237.197,164 239,164 247.668,164 249,177.381 249,185 249,185 252,186 252,186  Z"/>

<path  fill="#C8CBCC" stroke-width="0" stroke="#C8CBCC" d = " M70 178 L71,178 C71,178 71,176 71,176 71,176 71,175 71,175 69.0485,175 70.5228,172.546 70,171.5 68.4464,168.393 68,162.567 68,159 68,157.765 67.3574,154 69,154 69,151.324 68.9096,139 71,139 71,139 72,133 72,133 72,133 73,132 73,132 73,132 73,131 73,131 73,131 74,129 74,129 74,129 75,127 75,127 75,127 76,125 76,125 76,125 77,124 77,124 77,124 77,122 77,122 73.0458,122 73.4543,129 70,129 70,129 66,137 66,137 66,143.207 63.2404,159.981 66,165.5 67.262,168.024 70,175.437 70,178  Z"/>

<path  fill="#15B0B2" stroke-width="0" stroke="#15B0B2" d = " M408 130 L411,130 C411,126.909 409,124.522 409,122 409,122 407,126 407,126 407,126 407,128 407,128 407,128 408,130 408,130  Z"/>

<path  fill="#C7C8CC" stroke-width="0" stroke="#C7C8CC" d = " M76 125 L76,127 C77.7116,127 79,124.429 79,123 79,123 77,124 77,124 77,124 76,125 76,125  Z"/>

<path  fill="#FF64FF" stroke-width="0" stroke="#FF64FF" d = " M243 190 L244,190 C244,180.625 239,172.625 239,164 237.197,164 236,160.408 236,159 236,159 233.5,164 233.5,164 232.229,164 230.403,160.694 231,159.5 231,159.5 236,155 236,155 228.022,155 237.071,143.642 240,149.5 240,149.5 239,153 239,153 239,153 240,153 240,153 240,153 244,149 244,149 239.067,149 231,144.13 231,139 231,139 231,135 231,135 231,131.269 229,124.17 229,124 229,124 227,123 227,123 227,127.121 226,132.275 226,137 226,137 226,138 226,138 226,143.227 217.88,149 213,149 213,150.114 215.034,153 216,153 216,153 217,153 217,153 217,153 217,149.5 217,149.5 220.169,143.162 226.997,155 221,155 221,156.362 225,158.389 225,163 226.865,163 230.2,162.35 231.5,163 231.5,163 235,166 235,166 235,162.672 238.651,168.802 239,169.5 241.485,174.47 237,183.414 237,173 237,173 233,175 233,175 233,177.798 236.992,182.516 235,186.5 232.469,191.562 223.588,191.677 221,186.5 218.989,182.477 223,178.089 223,175 223,175 219,172 219,172 219,172 218.5,179 218.5,179 216.722,179.889 216.369,171.762 217,170.5 217.326,169.848 222,161.765 222,166 222,166 224,164 224,164 224,164 220,159 220,159 220,161.361 219.6,164 217,164 217,171.448 212,181.18 212,190 212,190 213,190 213,190 213,190 215,190 215,190 215,187.566 218,186.038 218,189 222.324,189 223.039,191.269 226.5,193 229.985,194.742 234.306,189 238,189 238,185.863 241,187.031 241,190 241,190 243,190 243,190  Z"/>

<path  fill="#7DCD4B" stroke-width="0" stroke="#7DCD4B" d = " M77 124 L76,125 C76,125 77,124 77,124  Z"/>

<path  fill="#0A828A" stroke-width="0" stroke="#0A828A" d = " M49 125 C47.8141,125 47.8141,126 49,126 49,126 49,125 49,125  Z"/>

<path  fill="#0C848C" stroke-width="0" stroke="#0C848C" d = " M66 137 L64,139 C64,136.347 67.7165,125 71,125 71,125 70,129 70,129 70,129 66,137 66,137  Z"/>

<path  fill="#7DCD4B" stroke-width="0" stroke="#7DCD4B" d = " M75 127 L76,127 C76,127 76,125 76,125 76,125 75,127 75,127  Z"/>

<path  fill="#7DCD4B" stroke-width="0" stroke="#7DCD4B" d = " M74 129 L75,129 C75,129 75,127 75,127 75,127 74,129 74,129  Z"/>

<path  fill="#C7C8CC" stroke-width="0" stroke="#C7C8CC" d = " M76 127 L75,129 C75,129 75,127 75,127 75,127 76,127 76,127  Z"/>

<path  fill="#15AFB3" stroke-width="0" stroke="#15AFB3" d = " M407 130 L408,130 C408,130 407,128 407,128 407,128 407,130 407,130  Z"/>

<path  fill="#0D9F91" stroke-width="0" stroke="#0D9F91" d = " M37 143 L38,143 C40.5265,143 43.577,141 47,141 47,141 48,130 48,130 48,130 46,129 46,129 46,130.139 38.2583,132 37,132 37,132 36,132 36,132 36,135.806 37,139.751 37,143  Z"/>

<path  fill="#7DCD4B" stroke-width="0" stroke="#7DCD4B" d = " M74 129 L73,131 C73,131 74,129 74,129  Z"/>

<path  fill="#C7C8CC" stroke-width="0" stroke="#C7C8CC" d = " M73 132 L73,133 C75.109,133 75,130.465 75,129 75,129 74,129 74,129 74,129 73,131 73,131 73,131 73,132 73,132  Z"/>

<path  fill="#0D9E90" stroke-width="0" stroke="#0D9E90" d = " M57 141 L57,142 C57,142 50.5,139 50.5,139 50.5,139 50.5,141 50.5,141 50.5,141 47,141 47,141 47,141 48,130 48,130 48,130 49,130 49,130 52.0979,130 52.5084,138 57,138 57,138 57,140 57,140 57,140 57,141 57,141  Z"/>

<path  fill-rule="evenodd" fill="#0D9E90" stroke-width="0" stroke="#0D9E90" d = " M405 139 C405,140.93 406.93,139 405,139  M409 140 L409,141 C405.053,141 402.372,140 399,140 399,140 399,139 399,139 401.321,139 407,131.916 407,130 407,130 408,130 408,130 408,132.69 409,136.675 409,140  Z"/>

<path  fill="#0D9F91" stroke-width="0" stroke="#0D9F91" d = " M409 140 C412.665,140 415.335,143 419,143 419,143 421,138.5 421,138.5 421,138.5 420,132 420,132 420,132 420,131 420,131 416.003,131 414.18,130 411,130 411,130 408,130 408,130 408,132.69 409,136.675 409,140  Z"/>

<path  fill="#7DCD4B" stroke-width="0" stroke="#7DCD4B" d = " M383 131 L384,132 C384,132 383,131 383,131  Z"/>

<path  fill="#0D9F90" stroke-width="0" stroke="#0D9F90" d = " M37 143 L33,147 C29.8824,147 31,135.469 31,133 31,133 36,132 36,132 36,135.806 37,139.751 37,143  Z"/>

<path  fill="#7DCD4B" stroke-width="0" stroke="#7DCD4B" d = " M72 133 L73,133 C73,133 73,132 73,132 73,132 72,133 72,133  Z"/>

<path  fill="#0D9F90" stroke-width="0" stroke="#0D9F90" d = " M419 143 L423,147 C427.189,147 425,134.897 425,133 425,133 420,132 420,132 420,132 421,138.5 421,138.5 421,138.5 419,143 419,143  Z"/>

<path  fill="#C7C8CC" stroke-width="0" stroke="#C7C8CC" d = " M73 133 C73,134.357 72.3529,139 71,139 71,139 72,133 72,133 72,133 73,133 73,133  Z"/>

<path  fill="#FD90FC" stroke-width="0" stroke="#FD90FC" d = " M226 137 L224.5,135 C220.797,133.149 214.256,137.622 211.5,139 208.995,140.252 206.134,145.317 209.5,147 215.079,149.79 222.289,138 226,138 226,138 226,137 226,137  Z"/>

<path  fill="#FD90FC" stroke-width="0" stroke="#FD90FC" d = " M231 139 C236.449,139 240.682,147 247,147 247,145.577 248.978,143.456 248,141.5 245.67,136.84 235.791,135 231,135 231,135 231,139 231,139  Z"/>

<path  fill="#32B824" stroke-width="0" stroke="#32B824" d = " M91 212 L85,219 C82.6786,219 72.4929,207.486 71,204.5 67.8744,198.249 64.0883,192.677 61,186.5 55.9602,176.42 58,155.464 58,143 58,143 59,142 59,142 59,142 61,141 61,141 61,141 64,139 64,139 64,139 66,137 66,137 66,143.207 63.2404,159.981 66,165.5 67.262,168.024 70,175.437 70,178 70,179.799 73.2485,189 75,189 75,189 75,190 75,190 75,190 77,192 77,192 77,193.559 83.5703,203 85,203 85,203 85,204 85,204 85,204 87,206 87,206 87,206 87,207 87,207 87,207 91,212 91,212  Z"/>

<path  fill="#32B824" stroke-width="0" stroke="#32B824" d = " M371 220 L372,220 C372,220 379,212.5 379,212.5 383.432,208.068 388.061,202.377 391,196.5 398.558,181.384 399,161.043 399,143 399,143 397,142 397,142 397,142 396,141 396,141 396,141 393,139 393,139 393,139 390,137 390,137 390,143.04 394.069,156.361 391,162.5 389.492,165.516 387,173.828 387,177 387,177 386,178 386,178 386,178 385,180 385,180 385,180 385,181 385,181 385,181 384,183 384,183 384,183 383,185 383,185 383,185 383,186 383,186 383,186 382,188 382,188 382,188 381,189 381,189 381,190.417 378.617,195 377,195 377,196.238 376.577,198 375,198 375,199.238 374.577,201 373,201 373,201 372,203 372,203 372,203 371,204 371,204 371,204 370,205 370,205 370,205 369,207 369,207 369,208.238 368.577,210 367,210 367,210 366,211 366,211 366,211 366,212 366,212 366,212 371,220 371,220  Z"/>

<path  fill="#C7C8CC" stroke-width="0" stroke="#C7C8CC" d = " M385 138 C387.342,138 387,145.951 387,148 386.074,148 385,139.249 385,138  Z"/>

<path  fill="#0F9684" stroke-width="0" stroke="#0F9684" d = " M53 147 L49,148 C49,148 47,141 47,141 47,141 50.5,141 50.5,141 50.5,141 50.5,139 50.5,139 50.5,139 57,142 57,142 57,142 57,143 57,143 57,143 53,147 53,147  Z"/>

<path  fill="#C7C8CC" stroke-width="0" stroke="#C7C8CC" d = " M71 139 C68.9096,139 69,151.324 69,154 70.2052,154 71,140.926 71,139  Z"/>

<path  fill="#FC8FFF" stroke-width="0" stroke="#FC8FFF" d = " M246 148 L244,149 C239.067,149 231,144.13 231,139 236.449,139 240.682,147 247,147 247,147 246,148 246,148  Z"/>

<path  fill="#0F9684" stroke-width="0" stroke="#0F9684" d = " M405 139 C405,140.93 406.93,139 405,139  Z"/>

<path  fill="#0E9F91" stroke-width="0" stroke="#0E9F91" d = " M61 141 L59,142 C59,142 57,141 57,141 57,141 57,140 57,140 57,140 61,141 61,141  Z"/>

<path  fill="#0E9F91" stroke-width="0" stroke="#0E9F91" d = " M398 141 L399,141 C399,141 399,140 399,140 399,140 398,141 398,141  Z"/>

<path  fill="#0F9684" stroke-width="0" stroke="#0F9684" d = " M403 146 L408,149 C408,149 409,141 409,141 405.053,141 402.372,140 399,140 399,140 399,141 399,141 399,141 400,143 400,143 400,143 403,146 403,146  Z"/>

<path  fill="#0E9583" stroke-width="0" stroke="#0E9583" d = " M409 150 C411.607,150 413.913,153 416,153 416,149.715 419,145.84 419,143 415.335,143 412.665,140 409,140 409,140 409,141 409,141 409,141 408,149 408,149 408,149 409,150 409,150  Z"/>

<path  fill="#0E9583" stroke-width="0" stroke="#0E9583" d = " M47 150 L40,153 C40,153 38,143 38,143 40.5265,143 43.577,141 47,141 47,141 49,148 49,148 49,148 47,150 47,150  Z"/>

<path  fill="#0E9684" stroke-width="0" stroke="#0E9684" d = " M59 142 L58,143 C58,143 57,142 57,142 57,142 57,141 57,141 57,141 59,142 59,142  Z"/>

<path  fill="#0E9F91" stroke-width="0" stroke="#0E9F91" d = " M397 141 L397,142 C397,142 396,141 396,141 396,141 397,141 397,141  Z"/>

<path  fill="#0E9684" stroke-width="0" stroke="#0E9684" d = " M399 143 L400,143 C400,143 399,141 399,141 399,141 398,141 398,141 398,141 397,141 397,141 397,141 397,142 397,142 397,142 399,143 399,143  Z"/>

<path  fill="#0E9F91" stroke-width="0" stroke="#0E9F91" d = " M57 143 L58,143 C58,143 57,142 57,142 57,142 57,143 57,143  Z"/>

<path  fill="#0E9584" stroke-width="0" stroke="#0E9584" d = " M40 153 L35,157 C35,153.474 33,148.046 33,147 33,147 37,143 37,143 37,143 38,143 38,143 38,143 40,153 40,153  Z"/>

<path  fill="#31B824" stroke-width="0" stroke="#31B824" d = " M85 221 L81,226 C76.7473,226 69.0743,217.649 67,213.5 64.4054,208.311 59.5526,204.605 57,199.5 57,199.5 51,182.5 51,182.5 48.0445,176.589 53,154.61 53,147 53,147 57,143 57,143 57,143 58,143 58,143 58,155.464 55.9602,176.42 61,186.5 64.0883,192.677 67.8744,198.249 71,204.5 72.4929,207.486 82.6786,219 85,219 85,219 85,221 85,221  Z"/>

<path  fill="#31B824" stroke-width="0" stroke="#31B824" d = " M375 227 L376,227 C376,227 384,220.5 384,220.5 389.614,214.886 395.581,207.338 399,200.5 408.328,181.844 403,166.116 403,146 403,146 400,143 400,143 400,143 399,143 399,143 399,161.043 398.558,181.384 391,196.5 388.061,202.377 383.432,208.068 379,212.5 379,212.5 372,220 372,220 372,220 375,227 375,227  Z"/>

<path  fill="#0E9584" stroke-width="0" stroke="#0E9584" d = " M416 153 L421,156 C421,152.382 423,149.846 423,147 423,147 419,143 419,143 419,145.84 416,149.715 416,153  Z"/>

<path  fill="#FF7AFE" stroke-width="0" stroke="#FF7AFE" d = " M147 157 L153.5,161 L161,160 C161,157.376 159.749,147 154,147 149.83,147 146,146.825 146,153 146,153 146,154 146,154 146,154 147,156 147,156 147,156 147,157 147,157  Z"/>

<path  fill="#FF7AFE" stroke-width="0" stroke="#FF7AFE" d = " M309 158 L303.5,161 C300.151,162.675 297.259,159 295,159 295,155.831 297.635,147 303,147 310.827,147 309,150.477 309,157 309,157 309,158 309,158  Z"/>

<path  fill="#32B725" stroke-width="0" stroke="#32B725" d = " M376 227 C376,228.408 377.197,232 379,232 382.259,232 396.294,218.912 398,215.5 398,215.5 407,200.5 407,200.5 407,200.5 412,184.5 412,184.5 414.241,180.017 409,156.458 409,150 409,150 408,149 408,149 408,149 403,146 403,146 403,166.116 408.328,181.844 399,200.5 395.581,207.338 389.614,214.886 384,220.5 384,220.5 376,227 376,227  Z"/>

<path  fill="#32B725" stroke-width="0" stroke="#32B725" d = " M77 233 L78,233 C78,233 81,227 81,227 81,227 81,226 81,226 76.7473,226 69.0743,217.649 67,213.5 64.4054,208.311 59.5526,204.605 57,199.5 57,199.5 51,182.5 51,182.5 48.0445,176.589 53,154.61 53,147 53,147 49,148 49,148 49,148 47,150 47,150 47,178.978 40.0479,181.596 54,209.5 56.9485,215.397 63.1497,223.825 69.5,227 71.1575,227.829 77,230.415 77,233  Z"/>

<path  fill="#FF64FF" stroke-width="0" stroke="#FF64FF" d = " M211 148 L212,149 C212,149 211,148 211,148  Z"/>

<path  fill="#FE90FF" stroke-width="0" stroke="#FE90FF" d = " M220 155 L221,155 C226.997,155 220.169,143.162 217,149.5 217,149.5 217,153 217,153 217,153 219,154 219,154 219,154 220,155 220,155  Z"/>

<path  fill="#FE90FF" stroke-width="0" stroke="#FE90FF" d = " M236 155 L237,155 C237,155 238,154 238,154 238,154 239,153 239,153 239,153 240,149.5 240,149.5 237.071,143.642 228.022,155 236,155  Z"/>

<path  fill="#FF64FF" stroke-width="0" stroke="#FF64FF" d = " M246 148 L244,149 C244,149 246,148 246,148  Z"/>

<path  fill="#FF79FD" stroke-width="0" stroke="#FF79FD" d = " M147 156 L147,157 C147,157 148,162.5 148,162.5 144.85,168.801 132.556,153.472 141.5,149 141.5,149 146,153 146,153 146,153 146,154 146,154 146,154 147,156 147,156  Z"/>

<path  fill="#FF79FD" stroke-width="0" stroke="#FF79FD" d = " M309 157 C311.841,157 310.549,150.476 313.5,149 316.421,147.539 316.392,151.285 317,152.5 320.38,159.259 309,171.711 309,158 309,158 309,157 309,157  Z"/>

<path  fill="#32B825" stroke-width="0" stroke="#32B825" d = " M77 233 L75,237 C70.5721,237 68.1376,233.819 64.5,232 46.8563,223.178 45.135,206.77 37,190.5 35.5542,187.608 36.4904,183.481 35,180.5 32.5704,175.641 40,158.99 40,153 40,153 47,150 47,150 47,178.978 40.0479,181.596 54,209.5 56.9485,215.397 63.1497,223.825 69.5,227 71.1575,227.829 77,230.415 77,233  Z"/>

<path  fill="#C7C8CC" stroke-width="0" stroke="#C7C8CC" d = " M387 150 C388.647,150 388.647,165 387,165 387,165 387,150 387,150  Z"/>

<path  fill="#32B825" stroke-width="0" stroke="#32B825" d = " M381 237 L382,237 C385.224,237 386.832,234.334 389.5,233 406.216,224.642 407.913,216.675 416,200.5 416,200.5 418,192.5 418,192.5 419.975,188.549 423.563,176.626 421,171.5 418.687,166.874 416,158.287 416,153 413.913,153 411.607,150 409,150 409,156.458 414.241,180.017 412,184.5 412,184.5 407,200.5 407,200.5 407,200.5 398,215.5 398,215.5 396.294,218.912 382.259,232 379,232 379,232 379,233 379,233 379,233 381,237 381,237  Z"/>

<path  fill="#32B722" stroke-width="0" stroke="#32B722" d = " M75 238 C73.4226,238 73,239.762 73,241 68.3747,241 62.5806,235.04 58.5,233 41.6269,224.563 38.2983,203.097 31,188.5 29.8626,186.225 31.1915,182.883 30,180.5 26.0755,172.651 35,163.59 35,157 35,157 40,153 40,153 40,158.99 32.5704,175.641 35,180.5 36.4904,183.481 35.5542,187.608 37,190.5 45.135,206.77 46.8563,223.178 64.5,232 68.1376,233.819 70.5721,237 75,237 75,237 75,238 75,238  Z"/>

<path  fill="#CBCBCC" stroke-width="0" stroke="#CBCBCC" d = " M225 163 L224,164 C224,164 220,159 220,159 220,159 216,153 216,153 216,153 217,153 217,153 217,153 219,154 219,154 219,154 220,155 220,155 220,155 221,155 221,155 221,156.362 225,158.389 225,163  Z"/>

<path  fill="#FF64FF" stroke-width="0" stroke="#FF64FF" d = " M239 153 L238,154 C238,154 239,153 239,153  Z"/>

<path  fill="#CBCBCC" stroke-width="0" stroke="#CBCBCC" d = " M236 155 L237,155 C237,155 238,154 238,154 238,154 239,153 239,153 239,153 240,153 240,153 240,155.773 236,156.67 236,159 236,159 233.5,164 233.5,164 232.229,164 230.403,160.694 231,159.5 231,159.5 236,155 236,155  Z"/>

<path  fill="#32B722" stroke-width="0" stroke="#32B722" d = " M382 237 L383,241 C388.006,241 393.168,235.166 397.5,233 416.964,223.268 417.856,200.787 426,184.5 430.801,174.899 421,163.822 421,156 421,156 416,153 416,153 416,158.287 418.687,166.874 421,171.5 423.563,176.626 419.975,188.549 418,192.5 418,192.5 416,200.5 416,200.5 407.913,216.675 406.216,224.642 389.5,233 386.832,234.334 385.224,237 382,237  Z"/>

<path  fill="#C7C8CC" stroke-width="0" stroke="#C7C8CC" d = " M69 154 C67.3574,154 68,157.765 68,159 68,162.567 68.4464,168.393 70,171.5 70.5228,172.546 69.0485,175 71,175 71,167.649 69,161.518 69,154  Z"/>

<path  fill="#FF64FF" stroke-width="0" stroke="#FF64FF" d = " M146 154 L147,156 C147,156 146,154 146,154  Z"/>

<path  fill="#FF64FF" stroke-width="0" stroke="#FF64FF" d = " M219 154 L220,155 C220,155 219,154 219,154  Z"/>

<path  fill="#FF64FF" stroke-width="0" stroke="#FF64FF" d = " M238 154 L237,155 C237,155 238,154 238,154  Z"/>

<path  fill="#FF64FF" stroke-width="0" stroke="#FF64FF" d = " M225 163 L224,164 C224,164 225,163 225,163  Z"/>

<path  fill="#FFA4FF" stroke-width="0" stroke="#FFA4FF" d = " M223 175 L227.5,172 L233,175 C233,175 237,173 237,173 237,170.167 235,168.16 235,166 235,166 231.5,163 231.5,163 230.2,162.35 226.865,163 225,163 225,163 224,164 224,164 224,164 222,166 222,166 222,166 221,167 221,167 221,167 219,172 219,172 219,172 223,175 223,175  Z"/>

<path  fill="#C8C8CC" stroke-width="0" stroke="#C8C8CC" d = " M209 204 L210,204 C210,204 212,192 212,192 212,192 212,190 212,190 212,181.18 217,171.448 217,164 208.928,164 207,178.305 207,185 207,185 207,189 207,189 207,191.556 205.618,204 209,204  Z"/>

<path  fill="#C8C8CC" stroke-width="0" stroke="#C8C8CC" d = " M246 203 L247,204 C251.218,204 249,191.858 249,190 249,190 249,189 249,189 249,189 249,185 249,185 249,177.381 247.668,164 239,164 239,172.625 244,180.625 244,190 244,190 244,191 244,191 244,191 244,193 244,193 244,193 245,194 245,194 245,197.222 246,200.277 246,203  Z"/>

<path  fill="#C8C8C8" stroke-width="0" stroke="#C8C8C8" d = " M221 167 L219,172 C219,172 218.5,179 218.5,179 216.722,179.889 216.369,171.762 217,170.5 217.326,169.848 222,161.765 222,166 222,166 221,167 221,167  Z"/>

<path  fill="#C8C8C8" stroke-width="0" stroke="#C8C8C8" d = " M235 166 C235,168.16 237,170.167 237,173 237,183.414 241.485,174.47 239,169.5 238.651,168.802 235,162.672 235,166  Z"/>

<path  fill="#FF64FF" stroke-width="0" stroke="#FF64FF" d = " M222 166 L221,167 C221,167 222,166 222,166  Z"/>

<path  fill="#C7C8CC" stroke-width="0" stroke="#C7C8CC" d = " M385 177 L386,177 C386,177 387,166 387,166 385.659,166 385,175.28 385,177  Z"/>

<path  fill="#FFA5FD" stroke-width="0" stroke="#FFA5FD" d = " M177 189 L179,189 C179,189 181,188 181,188 181,188 183,186 183,186 183,182.52 188.245,178.991 186,174.5 181.665,165.83 173.909,168 167,168 167,168 159,176.5 159,176.5 157.383,179.735 161.93,187.715 164.5,189 164.5,189 177,189 177,189  Z"/>

<path  fill="#FFA5FD" stroke-width="0" stroke="#FFA5FD" d = " M278 189 L279,189 C279,189 291.5,189 291.5,189 294.91,187.295 299.027,179.553 297,175.5 297,175.5 289,168 289,168 281.007,168 274.602,166.296 270,175.5 268.367,178.767 273,182.158 273,185 273,185 277,189 277,189 277,189 278,189 278,189  Z"/>

<path  fill="#CCC7CC" stroke-width="0" stroke="#CCC7CC" d = " M223 175 L227.5,172 L233,175 C233,177.798 236.992,182.516 235,186.5 232.469,191.562 223.588,191.677 221,186.5 218.989,182.477 223,178.089 223,175  Z"/>

<path  fill="#72D568" stroke-width="0" stroke="#72D568" d = " M331 173 L332,174 C332,174 331,173 331,173  Z"/>

<path  fill="#72D568" stroke-width="0" stroke="#72D568" d = " M125 175 L124,176 C124,176 125,175 125,175  Z"/>

<path  fill="#C7C8CC" stroke-width="0" stroke="#C7C8CC" d = " M77 192 C77,193.559 83.5703,203 85,203 85,203 75,186.5 75,186.5 74.1174,184.735 73.5504,176 71,176 71,176 71,178 71,178 71,178 75,189 75,189 75,189 75,190 75,190 75,190 77,192 77,192  Z"/>

<path  fill="#C7C8CC" stroke-width="0" stroke="#C7C8CC" d = " M381 189 C381,190.417 378.617,195 377,195 377,195 383,181.5 383,181.5 383.559,180.381 383.155,177 385,177 385,177 385,178 385,178 385,178 385,180 385,180 385,180 385,181 385,181 385,181 384,183 384,183 384,183 383,185 383,185 383,185 383,186 383,186 383,186 382,188 382,188 382,188 381,189 381,189  Z"/>

<path  fill="#C8CBCC" stroke-width="0" stroke="#C8CBCC" d = " M385 178 L386,178 C386,178 386,177 386,177 386,177 385,177 385,177 385,177 385,178 385,178  Z"/>

<path  fill="#7DCD4B" stroke-width="0" stroke="#7DCD4B" d = " M387 177 L386,178 C386,178 386,177 386,177 386,177 387,177 387,177  Z"/>

<path  fill="#7DCD4B" stroke-width="0" stroke="#7DCD4B" d = " M71 178 L75,189 C73.2485,189 70,179.799 70,178 70,178 71,178 71,178  Z"/>

<path  fill="#7DCD4B" stroke-width="0" stroke="#7DCD4B" d = " M386 178 L385,180 C385,180 385,178 385,178 385,178 386,178 386,178  Z"/>

<path  fill="#72D568" stroke-width="0" stroke="#72D568" d = " M332 180 L333,181 C333,181 332,180 332,180  Z"/>

<path  fill="#C9C9CB" stroke-width="0" stroke="#C9C9CB" d = " M155 227 L157,233 C157,233 151,222.5 151,222.5 149.539,219.578 141,212.893 141,210 141,210 141,209 141,209 141,207.196 138.818,203.864 140,201.5 143.224,195.052 144,190.923 144,183 145.384,183 145.123,179.811 147.5,181 150.853,182.676 157,191.642 157,195 157,195 158,198 158,198 155.259,198 153.286,192.107 149.5,194 133.667,201.916 154,217.91 154,225 154,225 155,226 155,226 155,226 155,227 155,227  Z"/>

<path  fill="#C9C9CB" stroke-width="0" stroke="#C9C9CB" d = " M303 228 L301,229 C301,229 301,227 301,227 301,227 302,225 302,225 302,225 303,224 303,224 303,224 303,222 303,222 303,222 304,221 304,221 304,221 313,206.5 313,206.5 314.514,203.471 310.146,198.793 309,196.5 309,196.5 306.5,194 306.5,194 303.296,192.398 301.348,197 299,197 299,197 299,195 299,195 300.845,195 300.441,191.619 301,190.5 301,190.5 308.5,181 308.5,181 308.5,181 312,182 312,182 312,193.021 316,199.313 316,209 314.81,209 305,222.805 305,225 303.423,225 303,226.762 303,228  Z"/>

<path  fill="#7DCD4B" stroke-width="0" stroke="#7DCD4B" d = " M385 181 L384,183 C384,183 385,181 385,181  Z"/>

<path  fill="#72D568" stroke-width="0" stroke="#72D568" d = " M124 182 C122.421,182 123,184.855 123,186 124.579,186 124,183.145 124,182  Z"/>

<path  fill="#7DCD4B" stroke-width="0" stroke="#7DCD4B" d = " M384 183 L383,185 C383,185 384,183 384,183  Z"/>

<path  fill="#FFC295" stroke-width="0" stroke="#FFC295" d = " M175 234 C177.352,234 179.814,247 189,247 189,239.984 204.764,228 211,228 211,228 212,227 212,227 212,224.903 213,221.707 213,219 213,219 213,217 213,217 213,217 212,216 212,216 212,216 212,213 212,213 212,213 211,212 211,212 211,212 210,205 210,205 210,205 209,204 209,204 205.618,204 207,191.556 207,189 207,189 204,186 204,186 200.622,186 193.307,183.096 189.5,185 189.5,185 184,187 184,187 184,187 181,188 181,188 181,188 179,189 179,189 179,189 177,190 177,190 177,191.173 172,190.582 172,197 172,197 173.5,199 173.5,199 175.788,200.144 175.7,197 176.5,197 178.765,197 179.68,200.91 177.5,202 177.5,202 174.5,202 174.5,202 172.619,202.941 175.68,208 172,208 172,208 171,209 171,209 171,212.995 168.956,218.413 171,222.5 171,222.5 175,233 175,233 175,233 175,234 175,234  Z"/>

<path  fill="#FF64FF" stroke-width="0" stroke="#FF64FF" d = " M204 186 L207,189 C207,189 207,185 207,185 207,185 204,186 204,186  Z"/>

<path  fill="#FF64FF" stroke-width="0" stroke="#FF64FF" d = " M249 189 L250,189 C250,189 252,186 252,186 252,186 249,185 249,185 249,185 249,189 249,189  Z"/>

<path  fill="#FFC295" stroke-width="0" stroke="#FFC295" d = " M279 239 L271.5,247 L267,246 C267,239.784 249.298,227 244,227 244,227 243,220 243,220 243,220 243,219 243,219 243,219 244,217 244,217 244,217 244,215 244,215 244,215 245,214 245,214 245,214 246,206 246,206 246,206 247,204 247,204 251.218,204 249,191.858 249,190 249,190 250,189 250,189 250,189 252,186 252,186 255.476,186 262.654,183.077 266.5,185 266.5,185 272,187 272,187 272,187 277,189 277,189 277,189 278,189 278,189 278,191.612 285,190.572 285,197 282.591,197 283.945,198.277 282.5,199 282.5,199 279.5,197 279.5,197 279.5,197 278,201.5 278,201.5 278,201.5 281.5,202 281.5,202 281.5,202 283,207.5 283,207.5 283,207.5 285,209 285,209 285,211.421 287.411,215.678 286,218.5 286,218.5 283,229 283,229 283,229 283,230 283,230 283,230 282,232 282,232 282,232 281,234 281,234 281,234 281,235 281,235 278.891,235 279,237.535 279,239  Z"/>

<path  fill="#FF64FF" stroke-width="0" stroke="#FF64FF" d = " M272 187 L277,189 C277,189 273,185 273,185 273,185 272,187 272,187  Z"/>

<path  fill="#FF64FF" stroke-width="0" stroke="#FF64FF" d = " M184 187 L181,188 C181,188 183,186 183,186 183,186 184,187 184,187  Z"/>

<path  fill="#7DCD4B" stroke-width="0" stroke="#7DCD4B" d = " M383 186 L382,188 C382,188 383,186 383,186  Z"/>

<path  fill="#FD90FE" stroke-width="0" stroke="#FD90FE" d = " M218 189 C218,191.167 215,191.934 215,190 215,187.566 218,186.038 218,189  Z"/>

<path  fill="#FD90FE" stroke-width="0" stroke="#FD90FE" d = " M238 189 C238,190.348 241,192.216 241,190 241,187.031 238,185.863 238,189  Z"/>

<path  fill="#FF64FF" stroke-width="0" stroke="#FF64FF" d = " M181 188 L179,189 C179,189 181,188 181,188  Z"/>

<path  fill="#7DCD4B" stroke-width="0" stroke="#7DCD4B" d = " M382 188 L381,189 C381,189 382,188 382,188  Z"/>

<path  fill="#FF9B88" stroke-width="0" stroke="#FF9B88" d = " M179 189 L177,190 C177,190 177,189 177,189 177,189 179,189 179,189  Z"/>

<path  fill="#FFC393" stroke-width="0" stroke="#FFC393" d = " M225 230 L227,226.5 C227.646,225.208 225.697,219 228.5,219 L231,230 C231,230 236,229 236,229 236,229 237,228 237,228 237,228 243,220 243,220 243,220 243,219 243,219 243,219 244,217 244,217 244,217 244,215 244,215 244,215 245,214 245,214 245,214 246,206 246,206 246,206 246,203 246,203 246,200.277 245,197.222 245,194 245,194 244,193 244,193 244,193 244,191 244,191 244,191 243,190 243,190 243,190 241,190 241,190 241,192.216 238,190.348 238,189 234.306,189 229.985,194.742 226.5,193 223.039,191.269 222.324,189 218,189 218,191.167 215,191.934 215,190 215,190 213,190 213,190 213,190 212,192 212,192 212,192 210,204 210,204 210,204 210,205 210,205 210,205 211,212 211,212 211,212 212,213 212,213 212,213 212,216 212,216 212,216 213,217 213,217 213,217 213,219 213,219 213,219 219,228 219,228 219,228 225,230 225,230  Z"/>

<path  fill="#FF9B88" stroke-width="0" stroke="#FF9B88" d = " M250 189 L249,190 C249,190 249,189 249,189 249,189 250,189 250,189  Z"/>

<path  fill="#FF9B88" stroke-width="0" stroke="#FF9B88" d = " M285 209 C285,211.421 287.411,215.678 286,218.5 L283,229 C284.727,229 286.372,223.756 287,222.5 289.676,217.148 299,202.32 299,197 299,197 299,195 299,195 298.071,195 284.617,191.559 283.5,191 282.595,190.548 279,189.918 279,189 279,189 278,189 278,189 278,191.612 285,190.572 285,197 296.031,197 292.263,209 285,209  Z"/>

<path  fill="#72D568" stroke-width="0" stroke="#72D568" d = " M333 189 L334,191 C334,191 333,189 333,189  Z"/>

<path  fill="#7DCD4B" stroke-width="0" stroke="#7DCD4B" d = " M75 190 L77,192 C77,192 75,190 75,190  Z"/>

<path  fill="#FF9B88" stroke-width="0" stroke="#FF9B88" d = " M171 209 C171,212.995 168.956,218.413 171,222.5 L175,233 C175,233 171,225.5 171,225.5 167.925,219.35 158,204.325 158,198 158,198 157,195 157,195 163.495,195 169.825,190 177,190 177,191.173 172,190.582 172,197 160.28,197 164.649,209 171,209  Z"/>

<path  fill="#FF9B88" stroke-width="0" stroke="#FF9B88" d = " M213 190 L212,192 C212,192 212,190 212,190 212,190 213,190 213,190  Z"/>

<path  fill="#FF9B88" stroke-width="0" stroke="#FF9B88" d = " M244 190 L244,191 C244,191 243,190 243,190 243,190 244,190 244,190  Z"/>

<path  fill="#FF9B88" stroke-width="0" stroke="#FF9B88" d = " M244 193 L245,194 C245,194 244,193 244,193  Z"/>

<path  fill="#FFAC6F" stroke-width="0" stroke="#FFAC6F" d = " M179 255 C179,259.293 178.233,263.134 174.5,265 171.878,266.311 165,264.307 165,261 165,259.351 159.949,237.399 159,235.5 158.072,233.643 158.395,227 155,227 155,227 155,226 155,226 155,226 154,225 154,225 154,217.91 133.667,201.916 149.5,194 153.286,192.107 155.259,198 158,198 158,204.325 167.925,219.35 171,225.5 171,225.5 175,233 175,233 175,233 175,234 175,234 175,239.644 179,246.607 179,255  Z"/>

<path  fill="#FFAC6F" stroke-width="0" stroke="#FFAC6F" d = " M277 256 C277,261.076 282.252,268.124 288.5,265 L292,261 C292,254.491 297,241.753 297,236 297,234.169 299.183,227 301,227 301,227 302,225 302,225 302,225 303,224 303,224 303,224 303,222 303,222 303,222 304,221 304,221 304,221 313,206.5 313,206.5 314.514,203.471 310.146,198.793 309,196.5 309,196.5 306.5,194 306.5,194 303.296,192.398 301.348,197 299,197 299,202.32 289.676,217.148 287,222.5 286.372,223.756 284.727,229 283,229 283,229 283,230 283,230 283,230 282,232 282,232 282,232 281,234 281,234 281,234 281,235 281,235 281,235 279,239 279,239 279,244.806 277,249.668 277,256  Z"/>

<path  fill="#C7C8CC" stroke-width="0" stroke="#C7C8CC" d = " M377 195 C375.423,195 375,196.762 375,198 376.577,198 377,196.238 377,195  Z"/>

<path  fill="#C8C8CB" stroke-width="0" stroke="#C8C8CB" d = " M172 208 L171,209 C164.649,209 160.28,197 172,197 172,197 173.5,199 173.5,199 175.788,200.144 175.7,197 176.5,197 178.765,197 179.68,200.91 177.5,202 177.5,202 174.5,202 174.5,202 172.619,202.941 175.68,208 172,208  Z"/>

<path  fill="#C8C8CB" stroke-width="0" stroke="#C8C8CB" d = " M285 197 C296.031,197 292.263,209 285,209 285,209 283,207.5 283,207.5 283,207.5 281.5,202 281.5,202 281.5,202 278,201.5 278,201.5 278,201.5 279.5,197 279.5,197 279.5,197 282.5,199 282.5,199 283.945,198.277 282.591,197 285,197  Z"/>

<path  fill="#C7C8CC" stroke-width="0" stroke="#C7C8CC" d = " M375 198 C373.423,198 373,199.762 373,201 374.577,201 375,199.238 375,198  Z"/>

<path  fill="#C7C8CC" stroke-width="0" stroke="#C7C8CC" d = " M373 201 L372,203 C372,203 373,201 373,201  Z"/>

<path  fill="#FF9B88" stroke-width="0" stroke="#FF9B88" d = " M247 204 L246,206 C246,206 246,203 246,203 246,203 247,204 247,204  Z"/>

<path  fill="#C7C8CC" stroke-width="0" stroke="#C7C8CC" d = " M372 203 L371,204 C371,204 372,203 372,203  Z"/>

<path  fill="#C7C8CC" stroke-width="0" stroke="#C7C8CC" d = " M85 204 L87,206 C87,206 85,204 85,204  Z"/>

<path  fill="#FF9B88" stroke-width="0" stroke="#FF9B88" d = " M210 204 L210,205 C210,205 209,204 209,204 209,204 210,204 210,204  Z"/>

<path  fill="#C7C8CC" stroke-width="0" stroke="#C7C8CC" d = " M370 205 L369,207 C369,207 370,205 370,205  Z"/>

<path  fill="#C7C8CC" stroke-width="0" stroke="#C7C8CC" d = " M87 207 C88.5334,207 91,210.753 91,212 91,212 87,207 87,207  Z"/>

<path  fill="#C7C8CC" stroke-width="0" stroke="#C7C8CC" d = " M369 207 C367.423,207 367,208.762 367,210 368.577,210 369,208.238 369,207  Z"/>

<path  fill="#F0F080" stroke-width="0" stroke="#F0F080" d = " M141 210 C137.89,210 137.338,215 135,215 135,209.502 137.568,209 141,209 141,209 141,210 141,210  Z"/>

<path  fill="#FF9B88" stroke-width="0" stroke="#FF9B88" d = " M172 208 L171,209 C171,209 172,208 172,208  Z"/>

<path  fill="#F0F080" stroke-width="0" stroke="#F0F080" d = " M328 231 C324.934,231 323.583,233 321,233 321,227.828 323.599,220.699 321,215.5 319.806,213.111 316,211.253 316,209 324.257,209 320.135,218.769 323,224.5 323.834,226.167 328,229.789 328,231  Z"/>

<path  fill="#CCCCCA" stroke-width="0" stroke="#CCCCCA" d = " M296 245 L297,245 C297,252.183 298.961,252.579 302,246.5 302,246.5 303,233.5 303,233.5 303,233.5 307,228.5 307,228.5 307.949,226.603 306.755,225 305,225 305,222.805 314.81,209 316,209 316,211.253 319.806,213.111 321,215.5 323.599,220.699 321,227.828 321,233 321,233 307.5,252 307.5,252 307.5,252 303,257 303,257 301.655,257 297.87,259.76 297,261.5 297,261.5 295.5,265 295.5,265 295.5,265 295,260 295,260 295,260 296,245 296,245  Z"/>

<path  fill="#31B723" stroke-width="0" stroke="#31B723" d = " M81 227 L78,233 C83.9387,233 92.2271,240.636 99.5,237 105.862,233.819 113,218.626 113,212 113,212 108,210 108,210 108,210 107,213 107,213 107,219.769 101.152,237.326 90.5,232 90.5,232 81,227 81,227  Z"/>

<path  fill="#31B625" stroke-width="0" stroke="#31B625" d = " M75 238 C73.4226,238 73,239.762 73,241 73,244.492 95.9893,250.255 100.5,248 113.289,241.605 120,223.462 120,210 120,210 117,212 117,212 117,212 114,220.5 114,220.5 114,220.5 113,227.5 113,227.5 109.043,235.413 105.343,239.078 97.5,243 91.9827,245.759 80.1203,238 75,238  Z"/>

<path  fill-rule="evenodd" fill="#CCCCCA" stroke-width="0" stroke="#CCCCCA" d = " M150 225 L149,227.5 C150.579,230.659 152.461,233.421 154,236.5 155.406,239.312 153.539,243.578 155,246.5 155.483,247.466 155.519,252 157.5,252 159.829,252 159,245.39 159,244 159,241.522 152.528,225 150,225  M160 242 L161.5,266 L160,262.5 C158.997,260.494 155.089,257 153,257 153,253.672 136,238.447 136,234 136,229.983 134,225.721 134,221 135.579,221 135,218.145 135,217 135,217 135,215 135,215 137.338,215 137.89,210 141,210 141,212.893 149.539,219.578 151,222.5 151,222.5 157,233 157,233 157,233 157,235 157,235 157,235 158,236 158,236 158,236 158,237 158,237 158,237 159,238 159,238 159,238 159,241 159,241 159,241 160,242 160,242  Z"/>

<path  fill="#31B625" stroke-width="0" stroke="#31B625" d = " M382 237 L383,241 C383,244.585 360.652,250.076 356.5,248 339.316,239.408 345.442,233.383 339,220.5 337.663,217.825 336,213.041 336,210 336,210 339,211 339,211 339,211 342,218.5 342,218.5 342,218.5 343,226.5 343,226.5 347.491,235.481 350.679,238.59 359.5,243 362.498,244.499 375.119,241.381 377,239.5 377,239.5 381,237 381,237 381,237 382,237 382,237  Z"/>

<path  fill="#31B723" stroke-width="0" stroke="#31B723" d = " M379 232 L379,233 C369.721,233 356.67,244.841 349,229.5 347.835,227.171 348.147,223.794 347,221.5 347,221.5 343,212 343,212 343,212 348,210 348,210 348,210 349,212 349,212 349,218.715 354.605,237.447 365.5,232 365.5,232 375,227 375,227 375,227 376,227 376,227 376,228.408 377.197,232 379,232  Z"/>

<path  fill="#C7C8CC" stroke-width="0" stroke="#C7C8CC" d = " M367 210 L366,211 C366,211 367,210 367,210  Z"/>

<path  fill="#30B824" stroke-width="0" stroke="#30B824" d = " M379 233 L381,237 C381,237 377,239.5 377,239.5 375.119,241.381 362.498,244.499 359.5,243 350.679,238.59 347.491,235.481 343,226.5 343,226.5 342,218.5 342,218.5 342,218.5 339,211 339,211 339,211 343,212 343,212 343,212 347,221.5 347,221.5 348.147,223.794 347.835,227.171 349,229.5 356.67,244.841 369.721,233 379,233  Z"/>

<path  fill="#C7C8CC" stroke-width="0" stroke="#C7C8CC" d = " M365 212 L366,212 C366,212 366,211 366,211 366,211 365,212 365,212  Z"/>

<path  fill="#32B623" stroke-width="0" stroke="#32B623" d = " M85 219 L85,221 C90.7303,221 101,226.606 101,215 96.8846,215 94.6408,212 91,212 91,212 85,219 85,219  Z"/>

<path  fill="#30B824" stroke-width="0" stroke="#30B824" d = " M75 237 L75,238 C80.1203,238 91.9827,245.759 97.5,243 105.343,239.078 109.043,235.413 113,227.5 113,227.5 114,220.5 114,220.5 114,220.5 117,212 117,212 117,212 113,212 113,212 113,218.626 105.862,233.819 99.5,237 92.2271,240.636 83.9387,233 78,233 78,233 77,233 77,233 77,233 75,237 75,237  Z"/>

<path  fill="#FF9B88" stroke-width="0" stroke="#FF9B88" d = " M211 212 L212,213 C212,213 211,212 211,212  Z"/>

<path  fill="#30B724" stroke-width="0" stroke="#30B724" d = " M372 220 L375,227 C375,227 365.5,232 365.5,232 354.605,237.447 349,218.715 349,212 349,212 355,215 355,215 355,223.673 371,225.358 371,220 371,220 372,220 372,220  Z"/>

<path  fill="#32B623" stroke-width="0" stroke="#32B623" d = " M355 215 C355,223.673 371,225.358 371,220 371,220 366,212 366,212 366,212 365,212 365,212 361.625,212 359.125,215 355,215  Z"/>

<path  fill="#30B724" stroke-width="0" stroke="#30B724" d = " M81 226 L81,227 C81,227 90.5,232 90.5,232 101.152,237.326 107,219.769 107,213 104.28,213 103.447,215 101,215 101,226.606 90.7303,221 85,221 85,221 81,226 81,226  Z"/>

<path  fill="#FF9B88" stroke-width="0" stroke="#FF9B88" d = " M245 214 L244,215 C244,215 245,214 245,214  Z"/>

<path  fill="#FF9B88" stroke-width="0" stroke="#FF9B88" d = " M212 216 L213,217 C213,217 212,216 212,216  Z"/>

<path  fill="#F0F080" stroke-width="0" stroke="#F0F080" d = " M135 217 C133.421,217 134,219.855 134,221 135.579,221 135,218.145 135,217  Z"/>

<path  fill="#FF9B88" stroke-width="0" stroke="#FF9B88" d = " M244 217 L243,219 C243,219 244,217 244,217  Z"/>

<path  fill="#FF9B88" stroke-width="0" stroke="#FF9B88" d = " M212 227 C214.409,227 217.181,228 219,228 219,228 213,219 213,219 213,221.707 212,224.903 212,227  Z"/>

<path  fill-rule="evenodd" fill="#FF9B88" stroke-width="0" stroke="#FF9B88" d = " M294 266 C294,267.93 295.93,266 294,266  M152 263 C157.809,263 162.479,272.49 167.5,275 174.787,278.643 182.353,281.426 189.5,285 195.069,287.784 207.239,283.131 211.5,281 L220.5,281 C228.103,277.198 248.003,281.251 255.5,285 265.71,290.105 283.933,276.783 291.5,273 296.582,270.459 298.888,263 305,263 305,261.286 303,259.518 303,257 301.655,257 297.87,259.76 297,261.5 297,261.5 295.5,265 295.5,265 295.5,265 295,260 295,260 295,260 296,245 296,245 296,245 297,243 297,243 297,243 297,240 297,240 297,240 298,239 298,239 298,239 298,237 298,237 298,237 299,236 299,236 299,236 299,234 299,234 299,234 300,233 300,233 300,233 300,232 300,232 300,232 301,230 301,230 301,230 301,229 301,229 301,229 301,227 301,227 299.183,227 297,234.169 297,236 297,241.753 292,254.491 292,261 292,262.715 292.32,264.18 290.5,266 285.644,270.856 278.834,274.167 275,266.5 274.082,264.665 274.524,256 277,256 277,249.668 279,244.806 279,239 279,239 271.5,247 271.5,247 271.5,247 267,246 267,246 267,251.15 267,258.85 267,264 267,264 267,271.5 267,271.5 265.031,275.439 258.593,273.454 255.5,275 245.069,280.215 230,270.365 230,258 230,248.725 231,238.892 231,230 231,230 228.5,219 228.5,219 225.697,219 227.646,225.208 227,226.5 227,226.5 225,230 225,230 225,233.038 225.589,240.679 227,243.5 228.904,247.307 226,254.622 226,258 226,270.298 211.393,280.447 200.5,275 197.538,273.519 190.842,275.184 189,271.5 189,271.5 190,264 190,264 185.644,264 189,249.033 189,247 179.814,247 177.352,234 175,234 175,239.644 179,246.607 179,255 182.997,255 181.192,269.654 178.5,271 171.285,274.607 160.401,261 165,261 165,259.351 159.949,237.399 159,235.5 158.072,233.643 158.395,227 155,227 155,227 157,233 157,233 157,233 157,235 157,235 157,235 158,236 158,236 158,236 158,237 158,237 158,237 159,238 159,238 159,238 159,241 159,241 159,241 160,242 160,242 160,242 161.5,266 161.5,266 161.5,266 160,262.5 160,262.5 158.997,260.494 155.089,257 153,257 153,259.124 152,261.436 152,263  Z"/>

<path  fill="#FF9B88" stroke-width="0" stroke="#FF9B88" d = " M244 227 L237,228 C237,228 243,220 243,220 243,220 244,227 244,227  Z"/>

<path  fill="#F0F080" stroke-width="0" stroke="#F0F080" d = " M128 231 C132.144,231 133.033,234 136,234 136,229.983 134,225.721 134,221 132.851,221 132.527,226.447 132,227.5 132,227.5 128,231 128,231  Z"/>

<path  fill="#FF9B88" stroke-width="0" stroke="#FF9B88" d = " M304 221 L303,222 C303,222 304,221 304,221  Z"/>

<path  fill="#FF9B88" stroke-width="0" stroke="#FF9B88" d = " M303 224 L302,225 C302,225 303,224 303,224  Z"/>

<path  fill="#CCCBCA" stroke-width="0" stroke="#CCCBCA" d = " M150 225 L149,227.5 C150.579,230.659 152.461,233.421 154,236.5 155.406,239.312 153.539,243.578 155,246.5 155.483,247.466 155.519,252 157.5,252 159.829,252 159,245.39 159,244 159,241.522 152.528,225 150,225  Z"/>

<path  fill="#FF9B88" stroke-width="0" stroke="#FF9B88" d = " M154 225 L155,226 C155,226 154,225 154,225  Z"/>

<path  fill="#FF9B88" stroke-width="0" stroke="#FF9B88" d = " M302 225 L301,227 C301,227 302,225 302,225  Z"/>

<path  fill="#CCCCCA" stroke-width="0" stroke="#CCCCCA" d = " M305 225 C303.423,225 303,226.762 303,228 304.577,228 305,226.238 305,225  Z"/>

<path  fill="#CCCBCA" stroke-width="0" stroke="#CCCBCA" d = " M297 243 L297,245 C297,252.183 298.961,252.579 302,246.5 302,246.5 303,233.5 303,233.5 303,233.5 307,228.5 307,228.5 307.949,226.603 306.755,225 305,225 305,226.238 304.577,228 303,228 303,228 301,232 301,232 301,233.424 300.638,237 299,237 299,238.623 298.995,243 297,243  Z"/>

<path  fill="#FF9B88" stroke-width="0" stroke="#FF9B88" d = " M212 227 L211,228 C211,228 212,227 212,227  Z"/>

<path  fill-rule="evenodd" fill="#FEBA85" stroke-width="0" stroke="#FEBA85" d = " M200 257 C200,258.991 195.716,259.931 197,262.5 199.475,267.45 211,263.779 211,259.5 211,258.229 207.694,256.403 206.5,257 205.128,257.686 202.435,257 200,257  M219 235 L217,241.5 C215.241,245.019 219.465,251.018 223.5,249 229.069,246.215 223.792,235 219,235  M226 258 C217.309,258 213.532,263.984 205.5,268 L193.5,268 L190,264 C185.644,264 189,249.033 189,247 189,239.984 204.764,228 211,228 211,228 212,227 212,227 214.409,227 217.181,228 219,228 219,228 225,230 225,230 225,233.038 225.589,240.679 227,243.5 228.904,247.307 226,254.622 226,258  Z"/>

<path  fill-rule="evenodd" fill="#FEBA85" stroke-width="0" stroke="#FEBA85" d = " M247 257 C247,261.367 245.971,260.736 250.5,263 261.846,268.673 261.668,257 253,257 L247,257  M234 235 L231,240.5 C229.283,243.934 231.592,251.454 236.5,249 242.127,246.187 239.421,235 234,235  M230 258 C239.199,258 242.573,264.036 250.5,268 L263.5,268 C266.093,266.704 263.763,264 267,264 267,258.85 267,251.15 267,246 267,239.784 249.298,227 244,227 244,227 237,228 237,228 237,228 236,229 236,229 236,229 231,230 231,230 231,238.892 230,248.725 230,258  Z"/>

<path  fill="#FF9B88" stroke-width="0" stroke="#FF9B88" d = " M237 228 L236,229 C236,229 237,228 237,228  Z"/>

<path  fill="#CCCCCA" stroke-width="0" stroke="#CCCCCA" d = " M301 230 L301,232 C301,232 303,228 303,228 303,228 301,229 301,229 301,229 301,230 301,230  Z"/>

<path  fill="#FF9B88" stroke-width="0" stroke="#FF9B88" d = " M283 230 L282,232 C282,232 283,230 283,230  Z"/>

<path  fill="#C9C9CB" stroke-width="0" stroke="#C9C9CB" d = " M300 232 L301,232 C301,232 301,230 301,230 301,230 300,232 300,232  Z"/>

<path  fill="#F0F080" stroke-width="0" stroke="#F0F080" d = " M127 231 L125,232 C125,232 127,231 127,231  Z"/>

<path  fill="#CACACB" stroke-width="0" stroke="#CACACB" d = " M153 257 C153,259.124 152,261.436 152,263 149.971,263 150.119,264.191 148.5,265 141.07,268.715 123.795,262.09 120,254.5 117.77,250.039 118.616,232 125,232 125,232 127,231 127,231 127,231 128,231 128,231 132.144,231 133.033,234 136,234 136,238.447 153,253.672 153,257  Z"/>

<path  fill="#CACACB" stroke-width="0" stroke="#CACACB" d = " M303 257 C303,259.518 305,261.286 305,263 307.029,263 306.881,264.191 308.5,265 315.192,268.346 332.207,262.086 335,256.5 337.323,251.854 339.062,232 331,232 331,232 330,231 330,231 330,231 328,231 328,231 324.934,231 323.583,233 321,233 321,233 307.5,252 307.5,252 307.5,252 303,257 303,257  Z"/>

<path  fill="#F0F080" stroke-width="0" stroke="#F0F080" d = " M330 231 L331,232 C331,232 330,231 330,231  Z"/>

<path  fill="#FF9B88" stroke-width="0" stroke="#FF9B88" d = " M282 232 L281,234 C281,234 282,232 282,232  Z"/>

<path  fill="#CCCCCA" stroke-width="0" stroke="#CCCCCA" d = " M299 236 L299,237 C300.638,237 301,233.424 301,232 301,232 300,232 300,232 300,232 300,233 300,233 300,233 299,234 299,234 299,234 299,236 299,236  Z"/>

<path  fill="#C9C9CB" stroke-width="0" stroke="#C9C9CB" d = " M300 233 L299,234 C299,234 300,233 300,233  Z"/>

<path  fill="#C9C9CB" stroke-width="0" stroke="#C9C9CB" d = " M157 235 L158,236 C158,236 157,235 157,235  Z"/>

<path  fill="#CACCC8" stroke-width="0" stroke="#CACCC8" d = " M219 235 L217,241.5 C215.241,245.019 219.465,251.018 223.5,249 229.069,246.215 223.792,235 219,235  Z"/>

<path  fill="#CACCC8" stroke-width="0" stroke="#CACCC8" d = " M234 235 L231,240.5 C229.283,243.934 231.592,251.454 236.5,249 242.127,246.187 239.421,235 234,235  Z"/>

<path  fill="#FF9B88" stroke-width="0" stroke="#FF9B88" d = " M281 235 C278.891,235 279,237.535 279,239 279,239 281,235 281,235  Z"/>

<path  fill="#C9C9CB" stroke-width="0" stroke="#C9C9CB" d = " M298 237 L299,237 C299,237 299,236 299,236 299,236 298,237 298,237  Z"/>

<path  fill="#C9C9CB" stroke-width="0" stroke="#C9C9CB" d = " M158 237 L159,238 C159,238 158,237 158,237  Z"/>

<path  fill="#CCCCCA" stroke-width="0" stroke="#CCCCCA" d = " M297 240 L297,243 C298.995,243 299,238.623 299,237 299,237 298,237 298,237 298,237 298,239 298,239 298,239 297,240 297,240  Z"/>

<path  fill="#C9C9CB" stroke-width="0" stroke="#C9C9CB" d = " M298 239 L297,240 C297,240 298,239 298,239  Z"/>

<path  fill="#C9C9CB" stroke-width="0" stroke="#C9C9CB" d = " M159 241 L160,242 C160,242 159,241 159,241  Z"/>

<path  fill="#C9C9CB" stroke-width="0" stroke="#C9C9CB" d = " M296 245 L297,245 C297,245 297,243 297,243 297,243 296,245 296,245  Z"/>

<path  fill="#C9C9CB" stroke-width="0" stroke="#C9C9CB" d = " M179 255 C182.997,255 181.192,269.654 178.5,271 171.285,274.607 160.401,261 165,261 165,264.307 171.878,266.311 174.5,265 178.233,263.134 179,259.293 179,255  Z"/>

<path  fill="#C9C9CB" stroke-width="0" stroke="#C9C9CB" d = " M277 256 C274.524,256 274.082,264.665 275,266.5 278.834,274.167 285.644,270.856 290.5,266 292.32,264.18 292,262.715 292,261 292,261 288.5,265 288.5,265 282.252,268.124 277,261.076 277,256  Z"/>

<path  fill="#C8C7CC" stroke-width="0" stroke="#C8C7CC" d = " M200 257 C200,258.991 195.716,259.931 197,262.5 199.475,267.45 211,263.779 211,259.5 211,258.229 207.694,256.403 206.5,257 205.128,257.686 202.435,257 200,257  Z"/>

<path  fill="#FFB885" stroke-width="0" stroke="#FFB885" d = " M226 258 C217.309,258 213.532,263.984 205.5,268 L193.5,268 L190,264 C190,264 189,271.5 189,271.5 190.842,275.184 197.538,273.519 200.5,275 211.393,280.447 226,270.298 226,258  Z"/>

<path  fill="#FFB885" stroke-width="0" stroke="#FFB885" d = " M230 258 C239.199,258 242.573,264.036 250.5,268 L263.5,268 C266.093,266.704 263.763,264 267,264 267,264 267,271.5 267,271.5 265.031,275.439 258.593,273.454 255.5,275 245.069,280.215 230,270.365 230,258  Z"/>

<path  fill="#C8C7CC" stroke-width="0" stroke="#C8C7CC" d = " M247 257 C247,261.367 245.971,260.736 250.5,263 261.846,268.673 261.668,257 253,257 L247,257  Z"/>

<path  fill="#CCCCCA" stroke-width="0" stroke="#CCCCCA" d = " M294 266 C294,267.93 295.93,266 294,266  Z"/>

</g>
</svg>
