<svg xmlns="http://www.w3.org/2000/svg" xmlns:xlink="http://www.w3.org/1999/xlink"  viewBox="0 0 456 320">
<g>
<rect width="456" height="320" fill="#000000"  stroke-width="0" /> 
<path  fill="#1E9D5A" stroke-width="0" stroke="#1E9D5A" d = " M147 40 L147,46 C150.792,46 154.318,44.5909 157.5,43 160.143,41.6786 186.21,37 190,37 190,37 191,32 191,32 186.509,32 167.655,33.4223 164.5,35 160.238,37.1311 151.794,40 147,40  Z"/>

<path  fill="#1E9C59" stroke-width="0" stroke="#1E9C59" d = " M222 51 L223,51 C223,51 227,49 227,49 227,46.277 223.939,43.4389 222,41.5 211.378,30.878 205.481,32 191,32 191,32 190,37 190,37 199.478,37 222,35.5069 222,51  Z"/>

<path  fill="#1E9C59" stroke-width="0" stroke="#1E9C59" d = " M229 48 L234,51 C234,51 238,44.5 238,44.5 246.626,35.8739 254.437,37 266,37 266,37 266,32 266,32 255.439,32 241.199,30.1014 236,40.5 236,40.5 229,48 229,48  Z"/>

<path  fill="#1E9D5A" stroke-width="0" stroke="#1E9D5A" d = " M309 40 C309,42.5181 309,44.2861 309,46 305.393,46 302.501,44.5005 299.5,43 297.867,42.1834 268.957,37 266,37 266,37 266,32 266,32 271.773,32 296.455,34.9776 300.5,37 302.822,38.1612 306.336,40 309,40  Z"/>

<path  fill="#1E9D58" stroke-width="0" stroke="#1E9D58" d = " M216 55 L217,55 C217,53.4666 220.753,51 222,51 222,35.5069 199.478,37 190,37 190,37 188,49 188,49 193.519,49 216,41.8312 216,55  Z"/>

<path  fill="#1E9D58" stroke-width="0" stroke="#1E9D58" d = " M240 55 L241,55 C241,41.7463 262.006,49 268,49 268,44.9903 266,40.7005 266,37 254.437,37 246.626,35.8739 238,44.5 238,44.5 234,51 234,51 235.417,51 240,53.3826 240,55  Z"/>

<path  fill="#1F9C58" stroke-width="0" stroke="#1F9C58" d = " M145 63 L145,70 C152.793,70 178.271,49 188,49 188,49 190,37 190,37 186.21,37 160.143,41.6786 157.5,43 154.318,44.5909 150.792,46 147,46 147,46 147,47 147,47 147,47.2457 146.023,60 145,60 145,61.3332 145,61.6668 145,63  Z"/>

<path  fill="#1F9C58" stroke-width="0" stroke="#1F9C58" d = " M311 63 L311,70 C303.245,70 280.624,50 269,50 269,50 268,49 268,49 268,44.9903 266,40.7005 266,37 268.957,37 297.867,42.1834 299.5,43 302.501,44.5005 305.393,46 309,46 309,46 310,47 310,47 310,47 311,59 311,59 311,59 311,63 311,63  Z"/>

<path  fill="#187F60" stroke-width="0" stroke="#187F60" d = " M147 47 L142,48 C142,46.4363 141,44.1236 141,42 141,42 147,40 147,40 147,40 147,46 147,46 147,46 147,47 147,47  Z"/>

<path  fill="#187F60" stroke-width="0" stroke="#187F60" d = " M314 48 L315,48 C315,45.8764 316,43.5637 316,42 316,42 309,40 309,40 309,42.5181 309,44.2861 309,46 309,46 310,47 310,47 310,47 314,48 314,48  Z"/>

<path  fill="#197E64" stroke-width="0" stroke="#197E64" d = " M103 60 L105,65 C112.603,65 131.963,48 142,48 142,46.4363 141,44.1236 141,42 133.11,42 118.716,51.3918 111.5,55 111.5,55 103,60 103,60  Z"/>

<path  fill="#197E64" stroke-width="0" stroke="#197E64" d = " M354 61 L351,65 C344.691,65 323.703,48 315,48 315,45.8764 316,43.5637 316,42 322.237,42 338.391,51.9454 344.5,55 346.185,55.8424 354,58.6429 354,61  Z"/>

<path  fill="#187F64" stroke-width="0" stroke="#187F64" d = " M142 48 L145,60 C146.023,60 147,47.2457 147,47 147,47 142,48 142,48  Z"/>

<path  fill="#1F9D58" stroke-width="0" stroke="#1F9D58" d = " M185 66 C186.749,66 203,58.5454 203,66 207.368,66 210.76,55 216,55 216,41.8312 193.519,49 188,49 188,49 185,66 185,66  Z"/>

<path  fill="#1F9D58" stroke-width="0" stroke="#1F9D58" d = " M253 65 C256.208,65 260.555,61.0274 264.5,63 L272,67 C272,61.3981 269,56.1271 269,50 269,50 268,49 268,49 262.006,49 241,41.7463 241,55 245.949,55 248.918,65 253,65  Z"/>

<path  fill="#187F64" stroke-width="0" stroke="#187F64" d = " M314 48 C314,49.6964 312.612,59 311,59 311,59 310,47 310,47 310,47 314,48 314,48  Z"/>

<path  fill="#197F61" stroke-width="0" stroke="#197F61" d = " M110 78 L111,78 C111,75.8957 117.951,73.7744 119.5,73 125.388,70.0558 138.567,63 145,63 145,61.6668 145,61.3332 145,60 145,60 142,48 142,48 131.963,48 112.603,65 105,65 105,65 105,66 105,66 106.573,66 110,75.9204 110,78  Z"/>

<path  fill="#3EA665" stroke-width="0" stroke="#3EA665" d = " M223 76 L233,76 C233,67.7257 234,58.6148 234,51 234,51 229,48 229,48 229,50.7292 228.577,49 227,49 227,49 223,51 223,51 223,51 223,76 223,76  Z"/>

<path  fill="#197F61" stroke-width="0" stroke="#197F61" d = " M345 78 L346,78 C346,74.1598 351,70.8343 351,66 351,66 351,65 351,65 344.691,65 323.703,48 315,48 315,48 314,48 314,48 314,49.6964 312.612,59 311,59 311,59 311,63 311,63 317.787,63 330.38,69.94 336.5,73 338.049,73.7744 345,75.8957 345,78  Z"/>

<path  fill="#1E9C5A" stroke-width="0" stroke="#1E9C5A" d = " M145 70 C145,74.9669 145,79.2969 145,85 155.184,85 180.463,67 185,67 185,67 185,66 185,66 185,66 188,49 188,49 178.271,49 152.793,70 145,70  Z"/>

<path  fill="#1E9C5A" stroke-width="0" stroke="#1E9C5A" d = " M311 70 C311,75.2365 311,80.8926 311,85 303.866,85 288.129,76.3147 281.5,73 281.5,73 272,67 272,67 272,61.3981 269,56.1271 269,50 280.624,50 303.245,70 311,70  Z"/>

<path  fill="#40A565" stroke-width="0" stroke="#40A565" d = " M223 76 L218,77 C218,70.4427 217,62.2335 217,55 217,53.4666 220.753,51 222,51 222,51 223,51 223,51 223,51 223,76 223,76  Z"/>

<path  fill="#40A565" stroke-width="0" stroke="#40A565" d = " M233 76 C234.564,76 236.876,77 239,77 239,69.7074 240,61.641 240,55 240,53.3826 235.417,51 234,51 234,58.6148 233,67.7257 233,76  Z"/>

<path  fill="#3EA566" stroke-width="0" stroke="#3EA566" d = " M218 77 C213.182,77 208.841,84 205,84 205,81.2803 206.033,67 203,67 203,67 203,66 203,66 207.368,66 210.76,55 216,55 216,55 217,55 217,55 217,62.2335 218,70.4427 218,77  Z"/>

<path  fill="#3EA566" stroke-width="0" stroke="#3EA566" d = " M239 78 C244.154,78 246.22,83 251,83 251,77.426 253,72.0512 253,67 253,67 253,65 253,65 248.918,65 245.949,55 241,55 241,55 240,55 240,55 240,61.641 239,69.7074 239,77 239,77 239,78 239,78  Z"/>

<path  fill="#1B8062" stroke-width="0" stroke="#1B8062" d = " M91 69 C91,69.6706 92.3281,74 93,74 97.411,74 100.976,66 105,66 105,66 105,65 105,65 105,65 103,60 103,60 100.502,60 91,66.8985 91,69  Z"/>

<path  fill="#1B8062" stroke-width="0" stroke="#1B8062" d = " M363 74 L364,74 C364,74 365,68 365,68 365,66.6158 355.693,61 354,61 354,61 351,65 351,65 351,65 351,66 351,66 351,66 363,74 363,74  Z"/>

<path  fill="#1A7F63" stroke-width="0" stroke="#1A7F63" d = " M114 86 L115,86 C115,84.0385 120.282,83.2179 121.5,82 123.196,80.3045 143.02,70 145,70 145,70 145,63 145,63 138.567,63 125.388,70.0558 119.5,73 117.951,73.7744 111,75.8957 111,78 111,78 114,86 114,86  Z"/>

<path  fill="#1D9C5A" stroke-width="0" stroke="#1D9C5A" d = " M191 87 L192,87 C192,83.9181 200.507,67 203,67 203,67 203,66 203,66 203,58.5454 186.749,66 185,66 185,66 185,67 185,67 185,67 183,72.5 183,72.5 183,76.5956 183,83.5976 183,89 185.338,89 187.862,87 191,87  Z"/>

<path  fill="#1D9C5A" stroke-width="0" stroke="#1D9C5A" d = " M265 87 C268.138,87 270.662,89 273,89 273,86.6497 275.526,82.5512 274,79.5 272.446,76.3929 272,70.5672 272,67 272,67 264.5,63 264.5,63 260.555,61.0274 256.208,65 253,65 253,65 253,67 253,67 255.459,67 265,84.5245 265,87  Z"/>

<path  fill="#1A7F63" stroke-width="0" stroke="#1A7F63" d = " M345 78 C345,79.4888 343.165,85 342,85 342,85 311,70 311,70 311,70 311,63 311,63 317.787,63 330.38,69.94 336.5,73 338.049,73.7744 345,75.8957 345,78  Z"/>

<path  fill="#1C7F63" stroke-width="0" stroke="#1C7F63" d = " M110 78 L108,79 C108,79 100.5,74 100.5,74 99.305,73.4025 95.553,75 94.5,75 93.0601,75 96.3895,77 94,77 94,77 93,75 93,75 93,75 93,74 93,74 97.411,74 100.976,66 105,66 106.573,66 110,75.9204 110,78  Z"/>

<path  fill="#1C7F63" stroke-width="0" stroke="#1C7F63" d = " M348 79 L349,79 C349,76.0416 357.826,73.1631 359.5,74 361.667,75.0834 360.285,77 363,77 363,77 363,74 363,74 363,74 351,66 351,66 351,70.8343 346,74.1598 346,78 346,78 348,79 348,79  Z"/>

<path  fill="#1F9B5A" stroke-width="0" stroke="#1F9B5A" d = " M161 99 C155.303,99 150.526,104 145,104 145,97.8938 145,92.3797 145,85 155.184,85 180.463,67 185,67 185,67 183,72.5 183,72.5 183,76.5956 183,83.5976 183,89 181.428,89 176,91.0518 176,93 173.909,93 165,94.9125 165,97 165,97 161,99 161,99  Z"/>

<path  fill="#3FA664" stroke-width="0" stroke="#3FA664" d = " M192 87 C192,88.3021 196,89.641 196,92 199.448,92 201.78,85 205,85 205,85 205,84 205,84 205,81.2803 206.033,67 203,67 200.507,67 192,83.9181 192,87  Z"/>

<path  fill="#3FA664" stroke-width="0" stroke="#3FA664" d = " M260 92 L261,92 C261,90.7617 261.423,89 263,89 263,89 265,87 265,87 265,84.5245 255.459,67 253,67 253,72.0512 251,77.426 251,83 251,83 251,85 251,85 254.87,85 256.602,92 260,92  Z"/>

<path  fill="#1F9B5A" stroke-width="0" stroke="#1F9B5A" d = " M273 89 L311,104 C311,104 311,85 311,85 303.866,85 288.129,76.3147 281.5,73 281.5,73 272,67 272,67 272,70.5672 272.446,76.3929 274,79.5 275.526,82.5512 273,86.6497 273,89  Z"/>

<path  fill="#197E63" stroke-width="0" stroke="#197E63" d = " M382 92 C382,88.7256 388.911,94 390,94 390,89.9551 373.651,74.0756 371.5,73 371.5,73 365,68 365,68 365,68 364,74 364,74 364,74 380,89 380,89 380,89 381,90 381,90 381,90 382,92 382,92  Z"/>

<path  fill="#197E63" stroke-width="0" stroke="#197E63" d = " M75 91 C71.6971,91 69.8848,93 67,93 67,89.6516 87.5505,69 91,69 91,69.6706 92.3281,74 93,74 93,74 93,75 93,75 89.4838,75 79,84.2292 79,88 79,88 78,89 78,89 78,89 77,89 77,89 77,89 76,90 76,90 76,90 75,91 75,91  Z"/>

<path  fill="#187E62" stroke-width="0" stroke="#187E62" d = " M117 92 L120,96 C128.405,96 136.376,85 145,85 145,79.2969 145,74.9669 145,70 143.02,70 123.196,80.3045 121.5,82 120.282,83.2179 115,84.0385 115,86 115,88.4471 117,89.2802 117,92  Z"/>

<path  fill="#187E62" stroke-width="0" stroke="#187E62" d = " M339 93 L336,96 C329.533,96 318.351,85 311,85 311,80.8926 311,75.2365 311,70 311,70 342,85 342,85 342,85 342,86 342,86 340.527,86 341,87.9521 341,89 338.891,89 339,91.5345 339,93  Z"/>

<path  fill="#1A7E64" stroke-width="0" stroke="#1A7E64" d = " M66 135 L67,135 C67,118.569 82.0853,94.2074 96.5,87 100.249,85.1254 103.601,80 108,80 108,80 108,79 108,79 108,79 100.5,74 100.5,74 99.305,73.4025 95.553,75 94.5,75 93.0601,75 96.3895,77 94,77 92.6802,77 92.0337,84 89.5,84 86.0424,84 81.7986,88 79,88 79,88 78,89 78,89 78,89 77,89 77,89 77,89 76,90 76,90 76,90 75,91 75,91 75,93.8276 70.2531,96.9939 69,99.5 65.093,107.314 57,122.176 57,131 60.7087,131 62.4564,135 66,135  Z"/>

<path  fill="#1A7E64" stroke-width="0" stroke="#1A7E64" d = " M399 131 C395.291,131 393.544,135 390,135 390,122.122 377.457,101.957 368,92.5 363.958,88.4582 358.415,84.4576 353.5,82 352.315,81.4076 349,80.9882 349,79 349,76.0416 357.826,73.1631 359.5,74 361.667,75.0834 360.285,77 363,77 363,82.5881 375.276,90 380,90 380,90 381,90 381,90 381,90 382,92 382,92 382,92 389,102.5 389,102.5 393.039,110.579 399,121.485 399,131  Z"/>

<path  fill="#1B7F64" stroke-width="0" stroke="#1B7F64" d = " M380 89 L380,90 C375.276,90 363,82.5881 363,77 363,77 363,74 363,74 363,74 364,74 364,74 364,74 380,89 380,89  Z"/>

<path  fill="#1B7F64" stroke-width="0" stroke="#1B7F64" d = " M94 77 C92.6802,77 92.0337,84 89.5,84 86.0424,84 81.7986,88 79,88 79,84.2292 89.4838,75 93,75 93,75 94,77 94,77  Z"/>

<path  fill="#3FA566" stroke-width="0" stroke="#3FA566" d = " M221 110 L218,111 C218,111 218,77 218,77 218,77 223,76 223,76 223,86.7421 222,97.8538 222,108 222,108 221,110 221,110  Z"/>

<path  fill="#40A664" stroke-width="0" stroke="#40A664" d = " M229 103 C232.424,103 232.518,108 234,108 234,97.6447 233,86.8723 233,76 233,76 223,76 223,76 223,86.7421 222,97.8538 222,108 224.047,108 224.168,103 227,103 227,99.3456 229,99.3456 229,103  Z"/>

<path  fill="#3FA566" stroke-width="0" stroke="#3FA566" d = " M235 110 L238,111 C238,100.624 239,89.0065 239,78 239,78 239,77 239,77 236.876,77 234.564,76 233,76 233,86.8723 234,97.6447 234,108 234,108 235,110 235,110  Z"/>

<path  fill="#3EA666" stroke-width="0" stroke="#3EA666" d = " M209 107 C209,109.216 216.15,111 218,111 218,111 218,77 218,77 213.182,77 208.841,84 205,84 205,84 205,85 205,85 205,92.493 209,99.9156 209,107  Z"/>

<path  fill="#197E61" stroke-width="0" stroke="#197E61" d = " M113 86 L114,86 C114,86 111,78 111,78 111,78 110,78 110,78 110,78 108,79 108,79 108,79 108,80 108,80 108,80 113,86 113,86  Z"/>

<path  fill="#3EA666" stroke-width="0" stroke="#3EA666" d = " M247 107 C247,109.216 239.85,111 238,111 238,100.624 239,89.0065 239,78 244.154,78 246.22,83 251,83 251,83 251,85 251,85 251,92.545 247,101.769 247,107  Z"/>

<path  fill="#197E61" stroke-width="0" stroke="#197E61" d = " M342 86 L343,86 C344.514,86 348,80.4633 348,79 348,79 346,78 346,78 346,78 345,78 345,78 345,79.4888 343.165,85 342,85 342,85 342,86 342,86  Z"/>

<path  fill="#1B7F62" stroke-width="0" stroke="#1B7F62" d = " M390 136 L385,138 C385,128.518 364.003,98.7516 356.5,95 351.99,92.7449 348.38,87 343,87 343,87 343,86 343,86 344.514,86 348,80.4633 348,79 348,79 349,79 349,79 349,80.9882 352.315,81.4076 353.5,82 358.415,84.4576 363.958,88.4582 368,92.5 377.457,101.957 390,122.122 390,135 390,135 390,136 390,136  Z"/>

<path  fill="#1B7F62" stroke-width="0" stroke="#1B7F62" d = " M67 135 L71,138 C71,134.362 75.394,129.712 77,126.5 83.4569,113.586 90.1755,99.1622 104.5,92 107.485,90.5073 109.404,87 113,87 113,87 113,86 113,86 113,86 108,80 108,80 103.601,80 100.249,85.1254 96.5,87 82.0853,94.2074 67,118.569 67,135  Z"/>

<path  fill="#197D61" stroke-width="0" stroke="#197D61" d = " M129 111 L131,111 C131,109.435 139.408,107 141,107 141,104.891 143.535,105 145,105 145,105 145,104 145,104 145,97.8938 145,92.3797 145,85 136.376,85 128.405,96 120,96 120,96 120,97 120,97 122.656,97 126.002,106.504 127,108.5 127,108.5 129,111 129,111  Z"/>

<path  fill="#40A564" stroke-width="0" stroke="#40A564" d = " M208 107 L209,107 C209,99.9156 205,92.493 205,85 201.78,85 199.448,92 196,92 196,92 196,93 196,93 196,93 198.5,96 198.5,96 200.203,97.7029 207,103.997 207,106 207,106 208,107 208,107  Z"/>

<path  fill="#40A564" stroke-width="0" stroke="#40A564" d = " M247 107 L249,107 C249,107 250,105 250,105 250,103.189 253.438,101 255,101 255,99.2531 255.253,99 257,99 257,99 260,92 260,92 256.602,92 254.87,85 251,85 251,92.545 247,101.769 247,107  Z"/>

<path  fill="#197D61" stroke-width="0" stroke="#197D61" d = " M327 111 L328,111 C328,105.246 336,101.15 336,96 329.533,96 318.351,85 311,85 311,85 311,104 311,104 316.32,104 321.368,111 327,111  Z"/>

<path  fill="#197D62" stroke-width="0" stroke="#197D62" d = " M113 87 L117,92 C117,89.2802 115,88.4471 115,86 115,86 114,86 114,86 114,86 113,86 113,86 113,86 113,87 113,87  Z"/>

<path  fill="#197D62" stroke-width="0" stroke="#197D62" d = " M343 87 L341,89 C341,87.9521 340.527,86 342,86 342,86 343,86 343,86 343,86 343,87 343,87  Z"/>

<path  fill="#1B7E63" stroke-width="0" stroke="#1B7E63" d = " M71 139 C75.1779,139 77.9342,143 82,143 82,128.824 104.332,97 120,97 120,97 120,96 120,96 120,96 117,92 117,92 117,92 113,87 113,87 109.404,87 107.485,90.5073 104.5,92 90.1755,99.1622 83.4569,113.586 77,126.5 75.394,129.712 71,134.362 71,138 71,138 71,139 71,139  Z"/>

<path  fill="#1E9C58" stroke-width="0" stroke="#1E9C58" d = " M191 89 L183,90 C183,90 183,89 183,89 185.338,89 187.862,87 191,87 191,87 191,89 191,89  Z"/>

<path  fill="#3FA466" stroke-width="0" stroke="#3FA466" d = " M195 93 L196,93 C196,93 196,92 196,92 196,89.641 192,88.3021 192,87 192,87 191,87 191,87 191,87 191,89 191,89 193.226,89 195,90.7736 195,93  Z"/>

<path  fill="#3FA466" stroke-width="0" stroke="#3FA466" d = " M263 89 L265,89 C265,89 265,87 265,87 265,87 263,89 263,89  Z"/>

<path  fill="#1E9C58" stroke-width="0" stroke="#1E9C58" d = " M273 89 L273,90 C270.903,90 267.707,89 265,89 265,89 265,87 265,87 268.138,87 270.662,89 273,89  Z"/>

<path  fill="#1B7E63" stroke-width="0" stroke="#1B7E63" d = " M374 143 L375,143 C378.223,143 381.355,139 385,139 385,139 385,138 385,138 385,128.518 364.003,98.7516 356.5,95 351.99,92.7449 348.38,87 343,87 343,87 341,89 341,89 341,89 339,93 339,93 339,93 336,96 336,96 340.115,96 343.938,101.219 347.5,103 360.609,109.554 374,128.595 374,143  Z"/>

<path  fill="#1B7F64" stroke-width="0" stroke="#1B7F64" d = " M79 88 L78,89 C78,89 79,88 79,88  Z"/>

<path  fill="#187E61" stroke-width="0" stroke="#187E61" d = " M77 89 L76,90 C76,90 77,89 77,89  Z"/>

<path  fill="#1D9D5A" stroke-width="0" stroke="#1D9D5A" d = " M183 90 C183,91.1646 177.489,93 176,93 176,91.0518 181.428,89 183,89 183,89 183,90 183,90  Z"/>

<path  fill="#CACCC7" stroke-width="0" stroke="#CACCC7" d = " M207 106 L208,107 C198.61,107 195.188,96.8442 187.5,93 181.867,90.1837 173.337,99 168,99 168,99 164,99 164,99 164,99 165,97 165,97 167.091,97 176,95.0875 176,93 177.489,93 183,91.1646 183,90 183,90 191,89 191,89 193.226,89 195,90.7736 195,93 195,96.1468 203.554,106 207,106  Z"/>

<path  fill="#3FA466" stroke-width="0" stroke="#3FA466" d = " M263 89 C261.423,89 261,90.7617 261,92 262.577,92 263,90.2383 263,89  Z"/>

<path  fill="#CACCC7" stroke-width="0" stroke="#CACCC7" d = " M250 105 L249,107 C258.082,107 261.938,96.7812 269.5,93 272.821,91.3394 284.666,99 289,99 289,99 293,99 293,99 293,98.1318 273,91.3407 273,90 270.903,90 267.707,89 265,89 265,89 263,89 263,89 263,90.2383 262.577,92 261,92 261,93.8563 259.218,99 257,99 257,100.747 256.747,101 255,101 255,102.976 252.124,105 250,105  Z"/>

<path  fill="#1D9D5A" stroke-width="0" stroke="#1D9D5A" d = " M311 104 L311,105 C304.395,105 299.126,99 293,99 293,98.1318 273,91.3407 273,90 273,90 273,89 273,89 273,89 311,104 311,104  Z"/>

<path  fill="#197D62" stroke-width="0" stroke="#197D62" d = " M341 89 C338.891,89 339,91.5345 339,93 339,93 341,89 341,89  Z"/>

<path  fill="#187E61" stroke-width="0" stroke="#187E61" d = " M380 90 L381,90 C381,90 380,89 380,89 380,89 380,90 380,90  Z"/>

<path  fill="#187E61" stroke-width="0" stroke="#187E61" d = " M76 90 L75,91 C75,91 76,90 76,90  Z"/>

<path  fill="#187E61" stroke-width="0" stroke="#187E61" d = " M52 127 L57,131 C57,122.176 65.093,107.314 69,99.5 70.2531,96.9939 75,93.8276 75,91 71.6971,91 69.8848,93 67,93 67,93 66,94 66,94 66,97.7464 52,118.215 52,127  Z"/>

<path  fill="#187E61" stroke-width="0" stroke="#187E61" d = " M399 131 L400,131 C400,129.189 403.438,127 405,127 405,122.353 396.404,105.309 394,100.5 393.36,99.2199 391.615,94 390,94 388.911,94 382,88.7256 382,92 382,92 389,102.5 389,102.5 393.039,110.579 399,121.485 399,131  Z"/>

<path  fill="#40A465" stroke-width="0" stroke="#40A465" d = " M261 92 C261,93.8563 259.218,99 257,99 257,99 260,92 260,92 260,92 261,92 261,92  Z"/>

<path  fill="#197E63" stroke-width="0" stroke="#197E63" d = " M67 93 L66,94 C66,94 67,93 67,93  Z"/>

<path  fill="#1D9D5A" stroke-width="0" stroke="#1D9D5A" d = " M176 93 C173.909,93 165,94.9125 165,97 167.091,97 176,95.0875 176,93  Z"/>

<path  fill="#C9C7C9" stroke-width="0" stroke="#C9C7C9" d = " M362 166 L362,167 C360.093,167 357.888,156.275 357,154.5 354.205,148.909 344.157,129.828 338.5,127 338.5,127 331.5,121 331.5,121 324.004,117.252 315.958,114.729 308.5,111 304.421,108.961 298.641,110.071 294.5,108 290.034,105.767 281.158,109 277,109 277,100.484 257,112.574 257,115 257,115 255,116 255,116 255,116 253,117 253,117 253,117 252,118 252,118 252,118 251,118 251,118 248.469,118 235,121.603 235,123 229.895,123 226.965,123 222,123 216.557,123 211.222,118 205,118 205,118 203,117 203,117 203,115.362 179,98.8663 179,109 174.842,109 165.966,105.767 161.5,108 155.515,110.993 147.461,110.02 141.5,113 135.119,116.191 128.931,119.784 122.5,123 115.784,126.358 104.106,144.288 101,150.5 100.233,152.035 99.1551,159 97,159 97,159 97,156 97,156 97,156 98,155 98,155 98,155 98,154 98,154 98,154 99,152 99,152 99,152 99,151 99,151 99,151 101,147 101,147 101,147 103,143 103,143 103,143 104,141 104,141 104,141 105,139 105,139 106.577,139 107,137.238 107,136 108.577,136 109,134.238 109,133 109,133 113,129.5 113,129.5 115.154,127.346 125,119.06 125,117 125,117 147.5,107 147.5,107 150.72,105.39 156.323,106.177 159,103.5 159,103.5 168,99 168,99 173.337,99 181.867,90.1837 187.5,93 195.188,96.8442 198.61,107 208,107 208,107 209,107 209,107 209,109.216 216.15,111 218,111 218,111 221,110 221,110 221,112.051 235,111.344 235,110 235,110 238,111 238,111 239.85,111 247,109.216 247,107 247,107 249,107 249,107 258.082,107 261.938,96.7812 269.5,93 272.821,91.3394 284.666,99 289,99 289,101.621 295.858,102.179 297.5,103 307.131,107.815 317.864,110.182 327.5,115 336.208,119.354 346.762,131.024 351,139.5 351,139.5 357,150 357,150 357,150 357,151 357,151 357,151 359,155 359,155 359,155 362,166 362,166  Z"/>

<path  fill="#40A465" stroke-width="0" stroke="#40A465" d = " M196 93 L198.5,96 C200.203,97.7029 207,103.997 207,106 203.554,106 195,96.1468 195,93 195,93 196,93 196,93  Z"/>

<path  fill="#187D61" stroke-width="0" stroke="#187D61" d = " M374 143 C374,145.341 371.658,144.421 370.5,145 367.238,146.631 362.708,151 359,151 359,138.581 344.241,129.982 339,119.5 337.723,116.947 328,114.455 328,111 328,105.246 336,101.15 336,96 340.115,96 343.938,101.219 347.5,103 360.609,109.554 374,128.595 374,143  Z"/>

<path  fill="#187D61" stroke-width="0" stroke="#187D61" d = " M82 143 L97,151 C97,143.661 113.251,121.624 120.5,118 123.902,116.299 124.838,112 129,112 129,112 129,111 129,111 129,111 127,108.5 127,108.5 126.002,106.504 122.656,97 120,97 104.332,97 82,128.824 82,143  Z"/>

<path  fill="#1D9D5A" stroke-width="0" stroke="#1D9D5A" d = " M161 99 L164,99 C164,99 165,97 165,97 165,97 161,99 161,99  Z"/>

<path  fill="#1D9D5A" stroke-width="0" stroke="#1D9D5A" d = " M145 104 L145,105 C147.478,105 161,100.776 161,99 155.303,99 150.526,104 145,104  Z"/>

<path  fill="#C9C9CA" stroke-width="0" stroke="#C9C9CA" d = " M130 112 C130,114.047 125,114.168 125,117 125,117 147.5,107 147.5,107 150.72,105.39 156.323,106.177 159,103.5 159,103.5 168,99 168,99 168,99 164,99 164,99 164,99 161,99 161,99 161,100.776 147.478,105 145,105 145,105 141,107 141,107 141,109.623 133.172,111 131,111 131,111 130,112 130,112  Z"/>

<path  fill="#40A465" stroke-width="0" stroke="#40A465" d = " M257 99 C255.253,99 255,99.2531 255,101 256.747,101 257,100.747 257,99  Z"/>

<path  fill="#C9C9CA" stroke-width="0" stroke="#C9C9CA" d = " M327 113 L333.5,118 C340.942,121.721 357,142.436 357,150 357,150 351,139.5 351,139.5 346.762,131.024 336.208,119.354 327.5,115 317.864,110.182 307.131,107.815 297.5,103 295.858,102.179 289,101.621 289,99 289,99 293,99 293,99 299.126,99 304.395,105 311,105 311,105 327,113 327,113  Z"/>

<path  fill="#40A465" stroke-width="0" stroke="#40A465" d = " M255 101 C253.438,101 250,103.189 250,105 252.124,105 255,102.976 255,101  Z"/>

<path  fill="#7ED04B" stroke-width="0" stroke="#7ED04B" d = " M221 110 C221,112.051 235,111.344 235,110 235,110 234,108 234,108 232.518,108 232.424,103 229,103 229,104.93 227.839,103 227,103 224.168,103 224.047,108 222,108 222,108 221,110 221,110  Z"/>

<path  fill="#1C8064" stroke-width="0" stroke="#1C8064" d = " M327 111 L327,113 C327,113 311,105 311,105 311,105 311,104 311,104 316.32,104 321.368,111 327,111  Z"/>

<path  fill="#1C8064" stroke-width="0" stroke="#1C8064" d = " M145 105 C143.535,105 141,104.891 141,107 141,107 145,105 145,105  Z"/>

<path  fill="#AAA8A9" stroke-width="0" stroke="#AAA8A9" d = " M182 110 L185.5,108 C189.915,110.208 198.099,117 203,117 203,115.362 179,98.8663 179,109 179,109 182,110 182,110  Z"/>

<path  fill="#AAA8A9" stroke-width="0" stroke="#AAA8A9" d = " M274 110 C274,107.541 270.238,109 269,109 L257,115 C257,112.574 277,100.484 277,109 277,109 274,110 274,110  Z"/>

<path  fill="#1C8064" stroke-width="0" stroke="#1C8064" d = " M141 107 C139.408,107 131,109.435 131,111 133.172,111 141,109.623 141,107  Z"/>

<path  fill="#98D5F9" stroke-width="0" stroke="#98D5F9" d = " M137 235 L139,235 C139,233.852 150.286,233 152,233 152,233 154,233 154,233 154,233 155,232 155,232 161.416,232 169.372,225 173,225 173,225 177,214.5 177,214.5 179.671,209.158 175.386,186.057 181.5,183 181.5,183 187.5,185 187.5,185 187.5,185 190,182 190,182 190,180.092 189.212,169 191,169 191,169 191,155 191,155 191,155 191,149 191,149 191,147.952 190.527,146 192,146 192,146 192,145 192,145 189.503,145 191.938,133.376 191,131.5 189.779,129.058 190.18,125.86 189,123.5 187.217,119.933 182,114.005 182,110 182,110 179,109 179,109 174.842,109 165.966,105.767 161.5,108 155.515,110.993 147.461,110.02 141.5,113 135.119,116.191 128.931,119.784 122.5,123 115.784,126.358 104.106,144.288 101,150.5 100.233,152.035 99.1551,159 97,159 97,160.623 96.9953,165 95,165 95,165 95,166 95,166 95,167.424 94.6384,171 93,171 93,171 93,172 93,172 93,178.859 92.1432,187.786 95,193.5 95,193.5 101,212 101,212 101,212 101,214 101,214 101,214 102,215 102,215 102,215 102,216 102,216 102,216 103,217 103,217 103,217 104,220 104,220 104,220 105,221 105,221 105,221 105,222 105,222 105,222 107,224 107,224 107,224 107,225 107,225 108.007,225 118,231.316 118,233 118,233 128.5,236 128.5,236 128.5,236 137,235 137,235  Z"/>

<path  fill="#A8AAAA" stroke-width="0" stroke="#A8AAAA" d = " M205 118 C205,122.129 192,135.278 192,145 189.503,145 191.938,133.376 191,131.5 189.779,129.058 190.18,125.86 189,123.5 187.217,119.933 182,114.005 182,110 182,110 185.5,108 185.5,108 189.915,110.208 198.099,117 203,117 203,117 205,118 205,118  Z"/>

<path  fill="#A8AAAA" stroke-width="0" stroke="#A8AAAA" d = " M251 118 L252,118 C252,118 253,117 253,117 253,117 255,116 255,116 255,116 257,115 257,115 257,115 269,109 269,109 270.238,109 274,107.541 274,110 274,110 267,124.5 267,124.5 264.432,129.635 265,138.91 265,145 263.355,145 261.828,134.156 261,132.5 261,132.5 251,118 251,118  Z"/>

<path  fill="#98D5F9" stroke-width="0" stroke="#98D5F9" d = " M317 235 L319,235 C319,235 327.5,236 327.5,236 327.5,236 338,233 338,233 338,233 339,232 339,232 339,232 341,231 341,231 341,231 343,230 343,230 343,230 345,229 345,229 345,229 346,228 346,228 346,228 347,227 347,227 347,227 348,226 348,226 348,226 349,225 349,225 349,225 350,224 350,224 350,224 352,220 352,220 352,220 353,219 353,219 353,219 354,216 354,216 354,216 355,215 355,215 355,215 355,213 355,213 355,213 356,212 356,212 356,212 356,211 356,211 356,206.124 358.865,198.77 361,194.5 364.53,187.44 363,178.624 363,171 363,171 363,170 363,170 361.527,170 362,168.048 362,167 360.093,167 357.888,156.275 357,154.5 354.205,148.909 344.157,129.828 338.5,127 338.5,127 331.5,121 331.5,121 324.004,117.252 315.958,114.729 308.5,111 304.421,108.961 298.641,110.071 294.5,108 290.034,105.767 281.158,109 277,109 277,109 274,110 274,110 274,110 267,124.5 267,124.5 264.432,129.635 265,138.91 265,145 265,145 265,147 265,147 265,147 265,153 265,153 265,153 266,167 266,167 266,171.725 267,176.879 267,181 267,189.025 273.895,180.29 276,184.5 279.711,191.922 277.675,211.85 280,216.5 280,216.5 283,224 283,224 283,226.032 298.344,232 301,232 301,232 302,233 302,233 302,233 305,233 305,233 306.496,233 317,233.988 317,235  Z"/>

<path  fill="#1C8064" stroke-width="0" stroke="#1C8064" d = " M129 112 L130,112 C130,112 131,111 131,111 131,111 129,111 129,111 129,111 129,112 129,112  Z"/>

<path  fill="#188064" stroke-width="0" stroke="#188064" d = " M358 151 L359,151 C359,138.581 344.241,129.982 339,119.5 337.723,116.947 328,114.455 328,111 328,111 327,111 327,111 327,111 327,113 327,113 327,113 333.5,118 333.5,118 340.942,121.721 357,142.436 357,150 357,150 357,151 357,151 357,151 358,151 358,151  Z"/>

<path  fill="#188064" stroke-width="0" stroke="#188064" d = " M97 151 L99,151 C99,149.535 98.891,147 101,147 101,145.535 100.891,143 103,143 103,143 104,141 104,141 104,141 105,139 105,139 105,137.762 105.423,136 107,136 107,134.762 107.423,133 109,133 109,129.637 121.494,117 125,117 125,114.168 130,114.047 130,112 130,112 129,112 129,112 124.838,112 123.902,116.299 120.5,118 113.251,121.624 97,143.661 97,151  Z"/>

<path  fill="#AAA8A9" stroke-width="0" stroke="#AAA8A9" d = " M257 115 L255,116 C255,116 257,115 257,115  Z"/>

<path  fill="#AAA8A9" stroke-width="0" stroke="#AAA8A9" d = " M255 116 L253,117 C253,117 255,116 255,116  Z"/>

<path  fill="#C9C9CA" stroke-width="0" stroke="#C9C9CA" d = " M125 117 C121.494,117 109,129.637 109,133 109,133 113,129.5 113,129.5 115.154,127.346 125,119.06 125,117  Z"/>

<path  fill="#AAA8A9" stroke-width="0" stroke="#AAA8A9" d = " M253 117 L252,118 C252,118 253,117 253,117  Z"/>

<path  fill="#90CBEC" stroke-width="0" stroke="#90CBEC" d = " M192 148 L194,149 C194,149 201,142.5 201,142.5 204.724,138.776 222,129.414 222,125 222,125 222,123 222,123 216.557,123 211.222,118 205,118 205,122.129 192,135.278 192,145 192,145 192,146 192,146 192,146 192,148 192,148  Z"/>

<path  fill="#90CBEC" stroke-width="0" stroke="#90CBEC" d = " M265 147 L263,149 C259.746,149 258.965,144.233 256.5,143 252.852,141.176 235,129.021 235,125 235,125 235,123 235,123 235,121.603 248.469,118 251,118 251,118 261,132.5 261,132.5 261.828,134.156 263.355,145 265,145 265,145 265,147 265,147  Z"/>

<path  fill="#97D6F9" stroke-width="0" stroke="#97D6F9" d = " M222 125 C226.202,125 230.661,125 235,125 235,125 235,123 235,123 229.895,123 226.965,123 222,123 222,123 222,125 222,125  Z"/>

<path  fill="#90CAED" stroke-width="0" stroke="#90CAED" d = " M239 180 C240.714,180 240,185.594 240,187 240,187 247.5,179 247.5,179 252.329,176.585 256.719,173.39 261.5,171 261.5,171 265,173 265,173 265,171.679 264.316,167 266,167 266,167 265,153 265,153 265,153 263,149 263,149 259.746,149 258.965,144.233 256.5,143 252.852,141.176 235,129.021 235,125 230.661,125 226.202,125 222,125 222,129.414 204.724,138.776 201,142.5 201,142.5 194,149 194,149 194,149 191,155 191,155 191,155 191,169 191,169 191,169 192,173 192,173 192,173 193.5,171 193.5,171 196.163,169.669 204.199,175.85 206.5,177 206.5,177 216,187 216,187 216,187 217,179 217,179 217,166.161 219.731,156.038 225,145.5 225.633,144.233 226.751,135 228.5,135 229.26,135 230.54,143.579 231,144.5 236.657,155.814 239,166.171 239,180  Z"/>

<path  fill="#1A7E62" stroke-width="0" stroke="#1A7E62" d = " M45 177 L50,177 C50,177 50,176 50,176 50,170.717 46.256,158.988 49,153.5 49.8137,151.873 57,131.585 57,131 57,131 52,127 52,127 52,127 45,144.5 45,144.5 41.8864,150.727 45,169.93 45,177  Z"/>

<path  fill="#1A7E62" stroke-width="0" stroke="#1A7E62" d = " M407 177 L411,177 C411,168.067 415.521,157.541 411,148.5 411,148.5 411,143.5 411,143.5 411,143.5 405,127 405,127 403.438,127 400,129.189 400,131 400,131 407,151.5 407,151.5 407,151.5 407,176 407,176 407,176 407,177 407,177  Z"/>

<path  fill="#1B8063" stroke-width="0" stroke="#1B8063" d = " M59 175 L50,176 C50,170.717 46.256,158.988 49,153.5 49.8137,151.873 57,131.585 57,131 60.7087,131 62.4564,135 66,135 66,139.995 63.1436,146.213 61,150.5 57.6126,157.275 59,168.074 59,175  Z"/>

<path  fill="#1B8063" stroke-width="0" stroke="#1B8063" d = " M398 175 C400.723,175 403.778,176 407,176 407,176 407,151.5 407,151.5 407,151.5 400,131 400,131 400,131 399,131 399,131 395.291,131 393.544,135 390,135 390,135 390,136 390,136 391.45,136 392.31,144.12 393,145.5 397.358,154.216 398,164.46 398,175  Z"/>

<path  fill="#C9C9CA" stroke-width="0" stroke="#C9C9CA" d = " M109 133 C107.423,133 107,134.762 107,136 108.577,136 109,134.238 109,133  Z"/>

<path  fill="#187C63" stroke-width="0" stroke="#187C63" d = " M59 175 L64,175 C64,175 67,151.5 67,151.5 67,151.5 71,139 71,139 71,139 71,138 71,138 71,138 67,135 67,135 67,135 66,135 66,135 66,139.995 63.1436,146.213 61,150.5 57.6126,157.275 59,168.074 59,175  Z"/>

<path  fill="#8FCBEC" stroke-width="0" stroke="#8FCBEC" d = " M219 183 C219,174.719 220.512,164.476 224,157.5 224.518,156.464 225.795,149.648 228.5,151 234.7,154.1 237,176.78 237,184 237,184 239,180 239,180 239,166.171 236.657,155.814 231,144.5 230.54,143.579 229.26,135 228.5,135 226.751,135 225.633,144.233 225,145.5 219.731,156.038 217,166.161 217,179 217,179 219,183 219,183  Z"/>

<path  fill="#C9C9CA" stroke-width="0" stroke="#C9C9CA" d = " M107 136 C105.423,136 105,137.762 105,139 106.577,139 107,137.238 107,136  Z"/>

<path  fill="#187C63" stroke-width="0" stroke="#187C63" d = " M392 175 L398,175 C398,164.46 397.358,154.216 393,145.5 392.31,144.12 391.45,136 390,136 390,136 385,138 385,138 385,138 385,139 385,139 387.357,139 386.264,145.029 387,146.5 390.93,154.359 392,165.653 392,175  Z"/>

<path  fill="#1C8063" stroke-width="0" stroke="#1C8063" d = " M75 175 L76,175 C76,175 77,174 77,174 77,167.264 76.1878,158.124 79,152.5 79,152.5 82,143 82,143 77.9342,143 75.1779,139 71,139 71,139 67,151.5 67,151.5 67,151.5 64,175 64,175 65.9235,175 75,173.073 75,175  Z"/>

<path  fill="#C9C9CA" stroke-width="0" stroke="#C9C9CA" d = " M105 139 L104,141 C104,141 105,139 105,139  Z"/>

<path  fill="#1C8063" stroke-width="0" stroke="#1C8063" d = " M381 175 C381,172.744 390.28,175 392,175 392,165.653 390.93,154.359 387,146.5 386.264,145.029 387.357,139 385,139 381.355,139 378.223,143 375,143 375,148.192 376.786,155.072 379,159.5 379,159.5 379,174 379,174 379,174 380,175 380,175 380,175 381,175 381,175  Z"/>

<path  fill="#C9C9CA" stroke-width="0" stroke="#C9C9CA" d = " M104 141 L103,143 C103,143 104,141 104,141  Z"/>

<path  fill="#197D63" stroke-width="0" stroke="#197D63" d = " M77 174 L78,174 C82.0765,174 86.431,173 91,173 91,165.017 97,158.868 97,151 97,151 82,143 82,143 82,143 79,152.5 79,152.5 76.1878,158.124 77,167.264 77,174  Z"/>

<path  fill="#C9C9CA" stroke-width="0" stroke="#C9C9CA" d = " M103 143 C100.891,143 101,145.535 101,147 101,147 103,143 103,143  Z"/>

<path  fill="#197D63" stroke-width="0" stroke="#197D63" d = " M378 174 L379,174 C379,174 379,159.5 379,159.5 376.786,155.072 375,148.192 375,143 375,143 374,143 374,143 374,145.341 371.658,144.421 370.5,145 367.238,146.631 362.708,151 359,151 359,158.294 366,165.59 366,173 366,173 378,174 378,174  Z"/>

<path  fill="#A8AAAA" stroke-width="0" stroke="#A8AAAA" d = " M192 148 L191,149 C191,147.952 190.527,146 192,146 192,146 192,148 192,148  Z"/>

<path  fill="#C9C9CA" stroke-width="0" stroke="#C9C9CA" d = " M101 147 C98.891,147 99,149.535 99,151 99,151 101,147 101,147  Z"/>

<path  fill="#97D6F9" stroke-width="0" stroke="#97D6F9" d = " M263 149 L265,153 C265,153 265,147 265,147 265,147 263,149 263,149  Z"/>

<path  fill="#97D6F9" stroke-width="0" stroke="#97D6F9" d = " M194 149 L191,155 C191,155 191,149 191,149 191,149 192,148 192,148 192,148 194,149 194,149  Z"/>

<path  fill="#1A8061" stroke-width="0" stroke="#1A8061" d = " M91 173 L92,173 C92,173 93,172 93,172 93,172 93,171 93,171 93,171 94,166 94,166 94,166 95,165 95,165 95,163.643 95.6471,159 97,159 97,159 97,156 97,156 97,156 98,155 98,155 98,155 98,154 98,154 98,154 99,152 99,152 99,152 99,151 99,151 99,151 97,151 97,151 97,158.868 91,165.017 91,173  Z"/>

<path  fill="#96A7D3" stroke-width="0" stroke="#96A7D3" d = " M227 210 C227,208.882 228.287,204.074 229,205.5 229.574,206.647 227.936,210 230,210 235.787,210 237,189.046 237,184 237,176.78 234.7,154.1 228.5,151 225.795,149.648 224.518,156.464 224,157.5 220.512,164.476 219,174.719 219,183 219,188.775 220.697,210 227,210  Z"/>

<path  fill="#C9C9CA" stroke-width="0" stroke="#C9C9CA" d = " M358 151 L359,155 C359,155 357,151 357,151 357,151 358,151 358,151  Z"/>

<path  fill="#1A8061" stroke-width="0" stroke="#1A8061" d = " M365 173 L366,173 C366,165.59 359,158.294 359,151 359,151 358,151 358,151 358,151 359,155 359,155 359,155 362,166 362,166 363.579,166 363,168.855 363,170 363,170 363,171 363,171 363,171 365,173 365,173  Z"/>

<path  fill="#C9C9CA" stroke-width="0" stroke="#C9C9CA" d = " M99 152 L98,154 C98,154 99,152 99,152  Z"/>

<path  fill="#C9C9CA" stroke-width="0" stroke="#C9C9CA" d = " M98 155 L97,156 C97,156 98,155 98,155  Z"/>

<path  fill="#C9C7C9" stroke-width="0" stroke="#C9C7C9" d = " M97 159 C95.6471,159 95,163.643 95,165 96.9953,165 97,160.623 97,159  Z"/>

<path  fill="#C9C7C9" stroke-width="0" stroke="#C9C7C9" d = " M94 166 L95,166 C95,166 95,165 95,165 95,165 94,166 94,166  Z"/>

<path  fill="#C8CBCC" stroke-width="0" stroke="#C8CBCC" d = " M95 166 C95,167.424 94.6384,171 93,171 93,171 94,166 94,166 94,166 95,166 95,166  Z"/>

<path  fill="#C8CBCC" stroke-width="0" stroke="#C8CBCC" d = " M362 167 C362,168.048 361.527,170 363,170 363,168.855 363.579,166 362,166 362,166 362,167 362,167  Z"/>

<path  fill="#A8AAAA" stroke-width="0" stroke="#A8AAAA" d = " M264 186 L266,187 C266,185.679 265.316,181 267,181 267,176.879 266,171.725 266,167 264.316,167 265,171.679 265,173 265,177.414 264,182.177 264,186  Z"/>

<path  fill="#A8AAAA" stroke-width="0" stroke="#A8AAAA" d = " M190 182 C190,184.177 189.359,186 192,186 192,186 192,173 192,173 192,173 191,169 191,169 189.212,169 190,180.092 190,182  Z"/>

<path  fill="#8FCBED" stroke-width="0" stroke="#8FCBED" d = " M195 190 L200,195 C200,195 205.5,199 205.5,199 205.5,199 212,199 212,199 221.487,199 216,191.766 216,187 216,187 206.5,177 206.5,177 204.199,175.85 196.163,169.669 193.5,171 193.5,171 192,173 192,173 192,173 192,186 192,186 193.473,186 193,187.952 193,189 193,189 194,189 194,189 194,189 195,190 195,190  Z"/>

<path  fill="#8FCBED" stroke-width="0" stroke="#8FCBED" d = " M256 196 L255,197 C249.15,197 242.956,203.412 239,195.5 239,195.5 238,193.5 238,193.5 238,193.5 240,187 240,187 240,187 247.5,179 247.5,179 252.329,176.585 256.719,173.39 261.5,171 261.5,171 265,173 265,173 265,177.414 264,182.177 264,186 264,186 263,189 263,189 263,189 262,190 262,190 262,190 257,195 257,195 257,195 256,196 256,196  Z"/>

<path  fill="#C8CBCC" stroke-width="0" stroke="#C8CBCC" d = " M358 209 L356,211 C356,206.124 358.865,198.77 361,194.5 364.53,187.44 363,178.624 363,171 363,171 365,173 365,173 365,173 365,188 365,188 365,188 365,189 365,189 365,189 364,190 364,190 364,190 364,191 364,191 362.527,191 363,192.952 363,194 363,194 362,195 362,195 362,195 362,196 362,196 362,196 361,197 361,197 361,197 361,200 361,200 361,200 360,202 360,202 360,202 360,203 360,203 358.421,203 359,205.855 359,207 359,207 358,209 358,209  Z"/>

<path  fill="#C8CBCC" stroke-width="0" stroke="#C8CBCC" d = " M98 209 L101,212 C101,212 95,193.5 95,193.5 92.1432,187.786 93,178.859 93,172 93,172 92,173 92,173 92,178.828 92,183.98 92,190 92,190 93,191 93,191 93,191 94,195 94,195 94,195 95,196 95,196 95,196 95,198 95,198 95,198 96,200 96,200 96,200 96,201 96,201 97.6844,201 97,205.679 97,207 97,207 98,209 98,209  Z"/>

<path  fill="#009B74" stroke-width="0" stroke="#009B74" d = " M89 191 L91,191 C91,191 91,190 91,190 91,184.688 91,178.144 91,173 86.431,173 82.0765,174 78,174 78,174 77,175 77,175 77,181.616 79,186.873 79,193 83.0576,193 85.2923,191 89,191  Z"/>

<path  fill="#019C74" stroke-width="0" stroke="#019C74" d = " M91 190 L92,190 C92,183.98 92,178.828 92,173 92,173 91,173 91,173 91,178.144 91,184.688 91,190  Z"/>

<path  fill="#019C74" stroke-width="0" stroke="#019C74" d = " M366 173 C366,174.34 367.225,188 365,188 365,188 365,173 365,173 365,173 366,173 366,173  Z"/>

<path  fill="#009B74" stroke-width="0" stroke="#009B74" d = " M367 191 L377,193 C377,187.532 379,181.404 379,175 379,175 378,174 378,174 378,174 366,173 366,173 366,174.34 367.225,188 365,188 365,188 365,189 365,189 365,189 365,190 365,190 365,190 365,191 365,191 365,191 367,191 367,191  Z"/>

<path  fill="#12AD82" stroke-width="0" stroke="#12AD82" d = " M75 175 C71.3055,175 68.1351,177 64,177 64,177 64,175 64,175 65.9235,175 75,173.073 75,175  Z"/>

<path  fill="#12AD82" stroke-width="0" stroke="#12AD82" d = " M76 175 L77,175 C77,175 77,174 77,174 77,174 76,175 76,175  Z"/>

<path  fill="#11AC83" stroke-width="0" stroke="#11AC83" d = " M78 174 L77,175 C77,175 77,174 77,174 77,174 78,174 78,174  Z"/>

<path  fill="#11AC83" stroke-width="0" stroke="#11AC83" d = " M379 174 L379,175 C379,175 378,174 378,174 378,174 379,174 379,174  Z"/>

<path  fill="#12AD82" stroke-width="0" stroke="#12AD82" d = " M379 175 L380,175 C380,175 379,174 379,174 379,174 379,175 379,175  Z"/>

<path  fill="#12AD82" stroke-width="0" stroke="#12AD82" d = " M392 175 L392,177 C387.865,177 384.695,175 381,175 381,172.744 390.28,175 392,175  Z"/>

<path  fill="#12AC83" stroke-width="0" stroke="#12AC83" d = " M59 179 C55.2765,179 53.3698,182 51,182 51,182 50,177 50,177 50,177 50,176 50,176 50,176 59,175 59,175 59,175 59,179 59,179  Z"/>

<path  fill="#11AC82" stroke-width="0" stroke="#11AC82" d = " M64 178 L59,179 C59,179 59,175 59,175 59,175 64,175 64,175 64,175 64,177 64,177 64,177 64,178 64,178  Z"/>

<path  fill="#019C75" stroke-width="0" stroke="#019C75" d = " M79 194 L67,195 C64.834,195 64,180.295 64,178 64,178 64,177 64,177 68.1351,177 71.3055,175 75,175 75,175 76,175 76,175 76,175 77,175 77,175 77,181.616 79,186.873 79,193 79,193 79,194 79,194  Z"/>

<path  fill="#019C75" stroke-width="0" stroke="#019C75" d = " M377 193 C380.578,193 386.067,196 390,196 390,189.921 392,183.753 392,177 387.865,177 384.695,175 381,175 381,175 380,175 380,175 380,175 379,175 379,175 379,181.404 377,187.532 377,193  Z"/>

<path  fill="#11AC82" stroke-width="0" stroke="#11AC82" d = " M397 179 L398,179 C398,179 398,175 398,175 398,175 392,175 392,175 392,175 392,177 392,177 394.523,177 393.959,179 397,179  Z"/>

<path  fill="#12AC83" stroke-width="0" stroke="#12AC83" d = " M398 179 L405,183 C405,183 407,177 407,177 407,177 407,176 407,176 403.778,176 400.723,175 398,175 398,175 398,179 398,179  Z"/>

<path  fill="#12AD83" stroke-width="0" stroke="#12AD83" d = " M51 183 L47,184 C47,184 45,177 45,177 45,177 50,177 50,177 50,177 51,182 51,182 51,182 51,183 51,183  Z"/>

<path  fill="#009C74" stroke-width="0" stroke="#009C74" d = " M390 196 L391,196 C391,195.244 397,185.214 397,179 393.959,179 394.523,177 392,177 392,183.753 390,189.921 390,196  Z"/>

<path  fill="#12AD83" stroke-width="0" stroke="#12AD83" d = " M405 183 L409,184 C410.663,184 411,178.593 411,177 411,177 407,177 407,177 407,177 405,183 405,183  Z"/>

<path  fill="#009C74" stroke-width="0" stroke="#009C74" d = " M65 196 L67,196 C67,196 67,195 67,195 64.834,195 64,180.295 64,178 64,178 59,179 59,179 59,184.711 65,192.894 65,196  Z"/>

<path  fill="#009B75" stroke-width="0" stroke="#009B75" d = " M65 196 L57,198 C57,193.316 51,188.154 51,183 51,183 51,182 51,182 53.3698,182 55.2765,179 59,179 59,184.711 65,192.894 65,196  Z"/>

<path  fill="#97D6F9" stroke-width="0" stroke="#97D6F9" d = " M211 213 C211,207.571 222.001,213 223,213 224.429,213 227,211.712 227,210 220.697,210 219,188.775 219,183 219,183 217,179 217,179 217,179 216,187 216,187 216,191.766 221.487,199 212,199 212,199 205.5,199 205.5,199 205.5,199 200,195 200,195 200,195 204,199.5 204,199.5 204,199.5 208,213 208,213 208,213 211,213 211,213  Z"/>

<path  fill="#009B75" stroke-width="0" stroke="#009B75" d = " M399 198 L400,198 C400,192.843 405,188.559 405,183 405,183 398,179 398,179 398,179 397,179 397,179 397,185.214 391,195.244 391,196 392.257,196 399,196.941 399,198  Z"/>

<path  fill="#97D6F9" stroke-width="0" stroke="#97D6F9" d = " M246 213 L248,213 C249.781,213 249.348,206.803 250,205.5 250.719,204.062 255,198.108 255,197 249.15,197 242.956,203.412 239,195.5 239,195.5 238,193.5 238,193.5 238,193.5 240,187 240,187 240,185.594 240.714,180 239,180 239,180 237,184 237,184 237,189.046 235.787,210 230,210 230,211.658 231.461,213 233,213 233,213 234,213 234,213 236.428,213 239.933,209.216 243.5,211 243.5,211 246,213 246,213  Z"/>

<path  fill="#97D6F9" stroke-width="0" stroke="#97D6F9" d = " M281 236 C285.418,236 289.051,243 293,243 293,240.817 289.595,239.69 289,238.5 287.342,235.183 285.626,231.753 284,228.5 283.499,227.498 281.391,224 283,224 283,224 280,216.5 280,216.5 277.675,211.85 279.711,191.922 276,184.5 273.895,180.29 267,189.025 267,181 265.316,181 266,185.679 266,187 268.124,187 271,185.441 271,189 275.271,189 277.173,210.845 279,214.5 279.756,216.012 277.999,223 277,223 277,223 277,225 277,225 279.144,225 277.381,229.262 278,230.5 278,230.5 281,236 281,236  Z"/>

<path  fill="#97D6F9" stroke-width="0" stroke="#97D6F9" d = " M176 236 L165,241 C165,238.052 171.566,231.369 173,228.5 173.516,227.468 173.882,225 173,225 173,225 177,214.5 177,214.5 179.671,209.158 175.386,186.057 181.5,183 181.5,183 187.5,185 187.5,185 187.5,185 190,182 190,182 190,184.177 189.359,186 192,186 193.473,186 193,187.952 193,189 191.722,189 185,182.625 185,189 183.002,189 182.663,194.174 182,195.5 177.775,203.949 179,212.854 179,222 179,222 179,227 179,227 179,227 177,235 177,235 177,235 176,236 176,236  Z"/>

<path  fill="#009C75" stroke-width="0" stroke="#009C75" d = " M53 199 L57,199 C57,199 57,198 57,198 57,193.316 51,188.154 51,183 51,183 47,184 47,184 47,186.151 50.928,199 53,199  Z"/>

<path  fill="#009C75" stroke-width="0" stroke="#009C75" d = " M400 198 C400,199.579 402.855,199 404,199 404,194.032 409,189.469 409,184 409,184 405,183 405,183 405,188.559 400,192.843 400,198  Z"/>

<path  fill-rule="evenodd" fill="#B3C0DE" stroke-width="0" stroke="#B3C0DE" d = " M179 227 L183.5,231 L193,232 C200.925,232 201.13,223 209,223 209,223 209,218 209,218 209,218 208,214 208,214 208,214 208,213 208,213 208,213 204,199.5 204,199.5 204,199.5 200,195 200,195 200,195 195,190 195,190 195,190 194,189 194,189 194,189 193,189 193,189 191.722,189 185,182.625 185,189 185,194.719 182.534,205.431 180,210.5 179.139,212.222 181.427,222 179,222 179,222 179,227 179,227  M189 218 L190,219 C190,219 195.5,221 195.5,221 201.668,217.916 210.181,212.341 199.5,207 196.151,205.325 193.259,209 191,209 191,209 190,210 190,210 190,210 190,211 190,211 190,211 189,212 189,212 189,212 189,218 189,218  Z"/>

<path  fill="#97D6F9" stroke-width="0" stroke="#97D6F9" d = " M266 187 C266,188.577 264.238,189 263,189 263,189 264,186 264,186 264,186 266,187 266,187  Z"/>

<path  fill-rule="evenodd" fill="#B3C0DE" stroke-width="0" stroke="#B3C0DE" d = " M277 225 C277,231.495 268.034,232 263,232 256.696,232 254.826,223 248,223 248,223 247,223 247,223 247,223 247,216 247,216 247,216 248,215 248,215 248,215 248,213 248,213 249.781,213 249.348,206.803 250,205.5 250.719,204.062 255,198.108 255,197 255,197 256,196 256,196 256,196 257,195 257,195 257,195 262,190 262,190 262,190 263,189 263,189 264.238,189 266,188.577 266,187 268.124,187 271,185.441 271,189 271,189 273,193.5 273,193.5 274.92,197.34 277,217.791 277,223 277,223 277,225 277,225  M266 210 L267,211 C267,211 267,218.5 267,218.5 263.932,224.637 253.941,218.383 252,214.5 248.11,206.719 266,204.484 266,210  Z"/>

<path  fill="#8599CC" stroke-width="0" stroke="#8599CC" d = " M185 189 C183.002,189 182.663,194.174 182,195.5 177.775,203.949 179,212.854 179,222 181.427,222 179.139,212.222 180,210.5 182.534,205.431 185,194.719 185,189  Z"/>

<path  fill="#97D6F9" stroke-width="0" stroke="#97D6F9" d = " M194 189 L195,190 C195,190 194,189 194,189  Z"/>

<path  fill="#97D6F9" stroke-width="0" stroke="#97D6F9" d = " M263 189 L262,190 C262,190 263,189 263,189  Z"/>

<path  fill="#8599CC" stroke-width="0" stroke="#8599CC" d = " M271 189 C275.271,189 277.173,210.845 279,214.5 279.756,216.012 277.999,223 277,223 277,217.791 274.92,197.34 273,193.5 273,193.5 271,189 271,189  Z"/>

<path  fill="#019C74" stroke-width="0" stroke="#019C74" d = " M364 190 L365,190 C365,190 365,189 365,189 365,189 364,190 364,190  Z"/>

<path  fill="#209766" stroke-width="0" stroke="#209766" d = " M91 191 L92,191 C92,191 92,190 92,190 92,190 91,190 91,190 91,190 91,191 91,191  Z"/>

<path  fill="#219666" stroke-width="0" stroke="#219666" d = " M92 191 L93,191 C93,191 92,190 92,190 92,190 92,191 92,191  Z"/>

<path  fill="#219666" stroke-width="0" stroke="#219666" d = " M364 191 L365,191 C365,191 365,190 365,190 365,190 364,190 364,190 364,190 364,191 364,191  Z"/>

<path  fill="#209766" stroke-width="0" stroke="#209766" d = " M91 211 L87,212 C85.1554,212 85.5594,208.619 85,207.5 83.2118,203.924 79,198.05 79,194 79,194 79,193 79,193 83.0576,193 85.2923,191 89,191 89,194.372 83.1624,209 93,209 93,209 92,210 92,210 92,210 91,211 91,211  Z"/>

<path  fill="#8ADA86" stroke-width="0" stroke="#8ADA86" d = " M93 209 L94,209 C94,209 95,208 95,208 95,208 96,207 96,207 96,207 96,201 96,201 96,201 96,200 96,200 96,200 95,198 95,198 95,198 95,196 95,196 95,196 94,195 94,195 94,195 93,191 93,191 93,191 92,191 92,191 92,191 91,191 91,191 91,191 89,191 89,191 89,194.372 83.1624,209 93,209  Z"/>

<path  fill="#8ADA86" stroke-width="0" stroke="#8ADA86" d = " M363 209 L364,209 C374.131,209 367,191.706 367,191 367,191 365,191 365,191 365,191 364,191 364,191 362.527,191 363,192.952 363,194 363,194 362,195 362,195 362,195 362,196 362,196 362,196 361,197 361,197 361,197 361,200 361,200 361,200 360,202 360,202 360,202 360,203 360,203 360,203 361,207 361,207 361,207 362,209 362,209 362,209 363,209 363,209  Z"/>

<path  fill="#209766" stroke-width="0" stroke="#209766" d = " M364 209 C364,210.428 368.822,213 370,213 370,205.89 377,200.392 377,193 377,193 367,191 367,191 367,191.706 374.131,209 364,209  Z"/>

<path  fill="#219864" stroke-width="0" stroke="#219864" d = " M373 215 L377,215 C379.032,215 390,198.845 390,196 386.067,196 380.578,193 377,193 377,200.392 370,205.89 370,213 370,213 373,215 373,215  Z"/>

<path  fill="#219864" stroke-width="0" stroke="#219864" d = " M79 215 L83,215 C83,215 87,212 87,212 85.1554,212 85.5594,208.619 85,207.5 83.2118,203.924 79,198.05 79,194 79,194 67,195 67,195 67,195 67,196 67,196 67,198.806 76.6282,215 79,215  Z"/>

<path  fill="#209766" stroke-width="0" stroke="#209766" d = " M363 194 L362,195 C362,195 363,194 363,194  Z"/>

<path  fill="#209766" stroke-width="0" stroke="#209766" d = " M94 195 L95,196 C95,196 94,195 94,195  Z"/>

<path  fill="#97D6F9" stroke-width="0" stroke="#97D6F9" d = " M257 195 L256,196 C256,196 257,195 257,195  Z"/>

<path  fill="#209865" stroke-width="0" stroke="#209865" d = " M79 215 C79,216.259 70.3682,219 69,219 69,215.898 57,204.102 57,199 57,199 57,198 57,198 57,198 65,196 65,196 65,196 67,196 67,196 67,198.806 76.6282,215 79,215  Z"/>

<path  fill="#97D6F9" stroke-width="0" stroke="#97D6F9" d = " M256 196 L255,197 C255,197 256,196 256,196  Z"/>

<path  fill="#209766" stroke-width="0" stroke="#209766" d = " M362 196 L361,197 C361,197 362,196 362,196  Z"/>

<path  fill="#209865" stroke-width="0" stroke="#209865" d = " M377 215 C377,216.259 385.632,219 387,219 389.393,219 399,200.748 399,198 399,196.941 392.257,196 391,196 391,196 390,196 390,196 390,198.845 379.032,215 377,215  Z"/>

<path  fill="#209766" stroke-width="0" stroke="#209766" d = " M95 198 L96,200 C96,200 95,198 95,198  Z"/>

<path  fill="#219765" stroke-width="0" stroke="#219765" d = " M387 219 L393,222 C393,216.37 404,205.671 404,199 402.855,199 400,199.579 400,198 400,198 399,198 399,198 399,200.748 389.393,219 387,219  Z"/>

<path  fill="#219765" stroke-width="0" stroke="#219765" d = " M69 219 L64,222 C62.3733,222 53,201.89 53,199 53,199 57,199 57,199 57,204.102 69,215.898 69,219  Z"/>

<path  fill="#209766" stroke-width="0" stroke="#209766" d = " M361 200 L360,202 C360,202 361,200 361,200  Z"/>

<path  fill="#209766" stroke-width="0" stroke="#209766" d = " M96 207 L97,207 C97,205.679 97.6844,201 96,201 96,201 96,207 96,207  Z"/>

<path  fill="#209766" stroke-width="0" stroke="#209766" d = " M359 207 L361,207 C361,207 360,203 360,203 358.421,203 359,205.855 359,207  Z"/>

<path  fill="#209766" stroke-width="0" stroke="#209766" d = " M95 208 L96,208 C96,208 96,207 96,207 96,207 95,208 95,208  Z"/>

<path  fill="#8AD987" stroke-width="0" stroke="#8AD987" d = " M96 208 L98,209 C98,209 97,207 97,207 97,207 96,207 96,207 96,207 96,208 96,208  Z"/>

<path  fill="#CBCBC7" stroke-width="0" stroke="#CBCBC7" d = " M189 218 L190,219 C190,219 195.5,221 195.5,221 201.668,217.916 210.181,212.341 199.5,207 196.151,205.325 193.259,209 191,209 191,209 190,210 190,210 190,210 190,211 190,211 190,211 189,212 189,212 189,212 189,218 189,218  Z"/>

<path  fill="#CBCBC7" stroke-width="0" stroke="#CBCBC7" d = " M266 210 L267,211 C267,211 267,218.5 267,218.5 263.932,224.637 253.941,218.383 252,214.5 248.11,206.719 266,204.484 266,210  Z"/>

<path  fill="#8AD987" stroke-width="0" stroke="#8AD987" d = " M358 209 C359.905,209 360.467,209 362,209 362,209 361,207 361,207 361,207 359,207 359,207 359,207 358,209 358,209  Z"/>

<path  fill="#209766" stroke-width="0" stroke="#209766" d = " M95 208 L94,209 C94,209 95,208 95,208  Z"/>

<path  fill="#A0EE9C" stroke-width="0" stroke="#A0EE9C" d = " M101 229 L106,229 C106,229 107,226 107,226 107,226 107,225 107,225 107,225 107,224 107,224 107,224 105,222 105,222 105,222 105,221 105,221 105,221 104,220 104,220 104,220 103,217 103,217 103,217 102,216 102,216 102,216 102,215 102,215 102,215 101,214 101,214 101,214 101,212 101,212 101,212 98,209 98,209 98,209 96,208 96,208 96,208 95,208 95,208 95,208 94,209 94,209 94,209 93,209 93,209 93,209 92,210 92,210 92,210 91,211 91,211 91,214.454 91,217.689 91,221 91,221 91,222 91,222 91,222 93,224 93,224 93,224 94,225 94,225 94,225 96,227 96,227 96,227 98,228 98,228 98,228 99,229 99,229 99,229 101,229 101,229  Z"/>

<path  fill="#A0EE9C" stroke-width="0" stroke="#A0EE9C" d = " M356 229 L357,229 C357,229 359,228 359,228 359,228 360,227 360,227 360,227 361,226 361,226 361,226 362,225 362,225 362,225 365,222 365,222 365,222 366,220 366,220 366,215.389 363,210.182 363,209 363,209 362,209 362,209 360.467,209 359.905,209 358,209 358,209 356,211 356,211 356,211 356,212 356,212 356,212 355,213 355,213 355,213 355,215 355,215 355,215 354,216 354,216 354,216 353,219 353,219 353,219 352,220 352,220 352,220 350,224 350,224 350,224 349,225 349,225 349,225 349,226 349,226 349,226 351,229 351,229 351,229 356,229 356,229  Z"/>

<path  fill="#C9C9C9" stroke-width="0" stroke="#C9C9C9" d = " M191 209 L190,210 C190,210 191,209 191,209  Z"/>

<path  fill="#99D2BD" stroke-width="0" stroke="#99D2BD" d = " M373 215 C369.306,215 368.439,220 366,220 366,215.389 363,210.182 363,209 363,209 364,209 364,209 364,210.428 368.822,213 370,213 370,213 373,215 373,215  Z"/>

<path  fill="#99D2BD" stroke-width="0" stroke="#99D2BD" d = " M92 210 L91,211 C91,211 92,210 92,210  Z"/>

<path  fill="#C9C9C9" stroke-width="0" stroke="#C9C9C9" d = " M266 210 L267,211 C267,211 266,210 266,210  Z"/>

<path  fill="#99D2BD" stroke-width="0" stroke="#99D2BD" d = " M83 215 C87.3484,215 88.2341,221 91,221 91,217.689 91,214.454 91,211 91,211 87,212 87,212 87,212 83,215 83,215  Z"/>

<path  fill="#C9C9C9" stroke-width="0" stroke="#C9C9C9" d = " M190 211 L189,212 C189,212 190,211 190,211  Z"/>

<path  fill="#FF5547" stroke-width="0" stroke="#FF5547" d = " M209 231 L210,233 C212.203,233 214.569,236.465 217.5,235 217.5,235 223,230 223,230 223,225.177 223,218.72 223,214 223,214 223,213 223,213 222.001,213 211,207.571 211,213 211,213 210,215 210,215 210,216.048 210.473,218 209,218 209,218 209,223 209,223 209,223 209,231 209,231  Z"/>

<path  fill="#FF5547" stroke-width="0" stroke="#FF5547" d = " M247 232 L246,233 C243.81,233 234,237.571 234,230 234,225.406 233,219.259 233,214 233,214 234,213 234,213 236.428,213 239.933,209.216 243.5,211 243.5,211 246,213 246,213 246,213 247,215 247,215 247,215 247,216 247,216 247,216 247,223 247,223 247,223 247,224 247,224 247,224 247,232 247,232  Z"/>

<path  fill="#C8CBCC" stroke-width="0" stroke="#C8CBCC" d = " M356 212 L355,213 C355,213 356,212 356,212  Z"/>

<path  fill="#CAC7CB" stroke-width="0" stroke="#CAC7CB" d = " M208 214 L210,215 C210,215 211,213 211,213 211,213 208,213 208,213 208,213 208,214 208,214  Z"/>

<path  fill="#E64438" stroke-width="0" stroke="#E64438" d = " M234 213 L233,214 C233,214 233,213 233,213 233,213 234,213 234,213  Z"/>

<path  fill="#CAC7CB" stroke-width="0" stroke="#CAC7CB" d = " M247 215 L248,215 C248,215 248,213 248,213 248,213 246,213 246,213 246,213 247,215 247,215  Z"/>

<path  fill="#C8CBCC" stroke-width="0" stroke="#C8CBCC" d = " M101 214 L102,215 C102,215 101,214 101,214  Z"/>

<path  fill="#E64438" stroke-width="0" stroke="#E64438" d = " M210 215 C210,216.048 210.473,218 209,218 209,218 208,214 208,214 208,214 210,215 210,215  Z"/>

<path  fill="#E64438" stroke-width="0" stroke="#E64438" d = " M223 230 L226,231 C226,226.575 227,221.039 227,216 227,216 223,214 223,214 223,218.72 223,225.177 223,230  Z"/>

<path  fill="#E64438" stroke-width="0" stroke="#E64438" d = " M231 230 L234,230 C234,225.406 233,219.259 233,214 233,214 229,216 229,216 229,217.407 230.182,230 231,230  Z"/>

<path  fill="#6ACAB9" stroke-width="0" stroke="#6ACAB9" d = " M119 270 L118,271 C118,271 116,270 116,270 109.861,270 101.237,263 95,263 95,263 84,251.5 84,251.5 79.3548,246.855 64,228.733 64,222 64,222 69,219 69,219 70.3682,219 79,216.259 79,215 79,215 83,215 83,215 87.3484,215 88.2341,221 91,221 91,221 91,222 91,222 91,222 93,224 93,224 93,224 94,225 94,225 94,225 96,227 96,227 96,227 98,228 98,228 98,228 99,229 99,229 99,229 101,229 101,229 101,231.341 103.342,230.421 104.5,231 109.322,233.411 113.674,236.587 118.5,239 126.903,243.202 126,255.108 126,263 126,263 125,264 125,264 125,264 119,270 119,270  Z"/>

<path  fill="#FF5445" stroke-width="0" stroke="#FF5445" d = " M227 245 L229,245 C229,245 231,242 231,242 231,242 231,230 231,230 230.182,230 229,217.407 229,216 229,214.601 227,214.601 227,216 227,221.039 226,226.575 226,231 226,233.998 225,238.358 225,242 225,242 227,245 227,245  Z"/>

<path  fill="#E64438" stroke-width="0" stroke="#E64438" d = " M248 215 L247,216 C247,216 247,215 247,215 247,215 248,215 248,215  Z"/>

<path  fill="#C8CBCC" stroke-width="0" stroke="#C8CBCC" d = " M355 215 L354,216 C354,216 355,215 355,215  Z"/>

<path  fill="#6ACAB9" stroke-width="0" stroke="#6ACAB9" d = " M337 270 L340,271 C340,268.474 359.849,263 362,263 362,263 371,253.5 371,253.5 374.588,246.323 393,229.291 393,222 393,222 387,219 387,219 385.632,219 377,216.259 377,215 377,215 373,215 373,215 369.306,215 368.439,220 366,220 366,220 365,222 365,222 365,222 362,225 362,225 362,225 361,226 361,226 361,226 360,227 360,227 360,227 359,228 359,228 359,228 357,229 357,229 357,229 356,229 356,229 356,230.813 344.997,235 343,235 343,235 333,244.5 333,244.5 329.68,251.139 331,255.975 331,263 331,266.291 337,266.675 337,270  Z"/>

<path  fill="#C8CBCC" stroke-width="0" stroke="#C8CBCC" d = " M102 216 L103,217 C103,217 102,216 102,216  Z"/>

<path  fill="#C9C9C9" stroke-width="0" stroke="#C9C9C9" d = " M189 218 L190,219 C190,219 189,218 189,218  Z"/>

<path  fill="#C8CBCC" stroke-width="0" stroke="#C8CBCC" d = " M353 219 L352,220 C352,220 353,219 353,219  Z"/>

<path  fill="#C8CBCC" stroke-width="0" stroke="#C8CBCC" d = " M104 220 L105,221 C105,221 104,220 104,220  Z"/>

<path  fill="#99D2BD" stroke-width="0" stroke="#99D2BD" d = " M366 220 L365,222 C365,222 366,220 366,220  Z"/>

<path  fill="#99D2BD" stroke-width="0" stroke="#99D2BD" d = " M91 222 L93,224 C93,224 91,222 91,222  Z"/>

<path  fill="#C8CBCC" stroke-width="0" stroke="#C8CBCC" d = " M105 222 L107,224 C107,224 105,222 105,222  Z"/>

<path  fill="#FD5446" stroke-width="0" stroke="#FD5446" d = " M205 239 L202.5,241 C199.728,242.386 195.231,240 193,240 193,240 192,238 192,238 192,238 193,232 193,232 200.925,232 201.13,223 209,223 209,223 209,231 209,231 209,231 209,233 209,233 209,233 205,239 205,239  Z"/>

<path  fill="#FD5446" stroke-width="0" stroke="#FD5446" d = " M251 239 C253.516,239 258.435,241 263,241 263,241 264,238 264,238 264,235.989 263,234.011 263,232 256.696,232 254.826,223 248,223 248,223 247,224 247,224 247,224 247,232 247,232 247,232 248,233 248,233 248,233 251,239 251,239  Z"/>

<path  fill="#E64438" stroke-width="0" stroke="#E64438" d = " M248 223 L247,224 C247,224 247,223 247,223 247,223 248,223 248,223  Z"/>

<path  fill="#7ECDF8" stroke-width="0" stroke="#7ECDF8" d = " M325 254 L322.5,257 C321.581,257.459 320,256.235 320,258 314.486,258 310.022,257.261 305.5,255 305.5,255 293,243 293,243 293,240.817 289.595,239.69 289,238.5 287.342,235.183 285.626,231.753 284,228.5 283.499,227.498 281.391,224 283,224 283,226.032 298.344,232 301,232 301,232 302,233 302,233 302,233 305,233 305,233 305,235.238 314.802,235 317,235 317,235 319,235 319,235 319,237.064 322.353,235.426 323.5,236 327.523,238.012 331,236.012 331,241 331,241 330,243 330,243 330,243 328,246 328,246 328,246 327,247 327,247 327,247 327,249 327,249 327,249 326,251 326,251 324.527,251 325,252.952 325,254  Z"/>

<path  fill="#C8CBCC" stroke-width="0" stroke="#C8CBCC" d = " M350 224 L349,225 C349,225 350,224 350,224  Z"/>

<path  fill="#99D2BD" stroke-width="0" stroke="#99D2BD" d = " M94 225 L96,227 C96,227 94,225 94,225  Z"/>

<path  fill="#C8CBCC" stroke-width="0" stroke="#C8CBCC" d = " M107 226 C110.725,226 113.956,233 118,233 118,231.316 108.007,225 107,225 107,225 107,226 107,226  Z"/>

<path  fill="#7ECDF8" stroke-width="0" stroke="#7ECDF8" d = " M131 253 L136,258 C142.134,258 162,252.034 162,244 162,244 163,243 163,243 163,243 164,242 164,242 164,242 165,241 165,241 165,238.052 171.566,231.369 173,228.5 173.516,227.468 173.882,225 173,225 169.372,225 161.416,232 155,232 155,232 154,233 154,233 154,233 152,233 152,233 152,235.379 141.312,235 139,235 139,235 137,235 137,235 137,237.164 126.186,236.128 125,238.5 123.942,240.616 127,241.398 127,243 127,243 127,244 127,244 127,244 129,246 129,246 129,246 129,248 129,248 129,248 130,249 130,249 130,249 130,250 130,250 130,250 131,252 131,252 131,252 131,253 131,253  Z"/>

<path  fill="#E64438" stroke-width="0" stroke="#E64438" d = " M281 236 C274.276,236 269.59,238 264,238 264,235.989 263,234.011 263,232 268.034,232 277,231.495 277,225 279.144,225 277.381,229.262 278,230.5 278,230.5 281,236 281,236  Z"/>

<path  fill="#C8CBCC" stroke-width="0" stroke="#C8CBCC" d = " M348 226 L349,226 C349,226 349,225 349,225 349,225 348,226 348,226  Z"/>

<path  fill="#99D2BD" stroke-width="0" stroke="#99D2BD" d = " M362 225 L361,226 C361,226 362,225 362,225  Z"/>

<path  fill="#8AD987" stroke-width="0" stroke="#8AD987" d = " M118 233 C118,235.349 121,234.382 121,237 118.322,237 106,230.229 106,229 106,229 107,226 107,226 110.725,226 113.956,233 118,233  Z"/>

<path  fill="#C8CBCC" stroke-width="0" stroke="#C8CBCC" d = " M348 226 L347,227 C347,227 348,226 348,226  Z"/>

<path  fill="#8AD987" stroke-width="0" stroke="#8AD987" d = " M343 235 C340.17,235 338.46,237 336,237 336,237 338,233 338,233 338,233 339,233 339,233 339,233 341,231 341,231 341,231 343,230 343,230 343,230 345,229 345,229 345,229 346,228 346,228 346,228 347,227 347,227 347,227 348,226 348,226 348,226 349,226 349,226 349,226 351,229 351,229 351,230.809 343,231.663 343,235  Z"/>

<path  fill="#E64438" stroke-width="0" stroke="#E64438" d = " M177 235 L192,238 C192,238 193,232 193,232 193,232 183.5,231 183.5,231 183.5,231 179,227 179,227 179,227 177,235 177,235  Z"/>

<path  fill="#C8CBCC" stroke-width="0" stroke="#C8CBCC" d = " M347 227 L346,228 C346,228 347,227 347,227  Z"/>

<path  fill="#99D2BD" stroke-width="0" stroke="#99D2BD" d = " M360 227 L359,228 C359,228 360,227 360,227  Z"/>

<path  fill="#99D2BD" stroke-width="0" stroke="#99D2BD" d = " M98 228 L99,229 C99,229 98,228 98,228  Z"/>

<path  fill="#C8CBCC" stroke-width="0" stroke="#C8CBCC" d = " M346 228 L345,229 C345,229 346,228 346,228  Z"/>

<path  fill="#99D2BD" stroke-width="0" stroke="#99D2BD" d = " M359 228 L357,229 C357,229 359,228 359,228  Z"/>

<path  fill="#99D2BD" stroke-width="0" stroke="#99D2BD" d = " M126 263 L128,263 C128,263 132,260 132,260 132,260 131,253 131,253 131,253 131,252 131,252 131,252 130,250 130,250 130,250 130,249 130,249 130,249 129,248 129,248 129,248 129,246 129,246 129,246 127,244 127,244 127,244 127,243 127,243 127,243 121,237 121,237 118.322,237 106,230.229 106,229 106,229 101,229 101,229 101,231.341 103.342,230.421 104.5,231 109.322,233.411 113.674,236.587 118.5,239 126.903,243.202 126,255.108 126,263  Z"/>

<path  fill="#C8CBCC" stroke-width="0" stroke="#C8CBCC" d = " M345 229 L343,230 C343,230 345,229 345,229  Z"/>

<path  fill="#99D2BD" stroke-width="0" stroke="#99D2BD" d = " M356 229 C356,230.813 344.997,235 343,235 343,231.663 351,230.809 351,229 351,229 356,229 356,229  Z"/>

<path  fill="#FF5346" stroke-width="0" stroke="#FF5346" d = " M219 249 C216.798,249 215.659,243.921 209.5,247 L203,251.5 C202.394,252.712 200.76,257 199,257 199,251.796 203,248.425 203,243 203,243 205,239 205,239 205,239 209,233 209,233 209,233 210,233 210,233 212.203,233 214.569,236.465 217.5,235 217.5,235 223,230 223,230 223,230 226,231 226,231 226,233.998 225,238.358 225,242 220.804,242 220.848,249 219,249  Z"/>

<path  fill="#FF5346" stroke-width="0" stroke="#FF5346" d = " M257 269 L252,270 C248.719,270 245.866,265 243,265 243,261.315 239,258.974 239,255 242.176,255 251.623,274.254 258,261.5 260.937,255.625 238,236.951 238,251 237.098,251 236.564,242 231,242 231,242 231,230 231,230 231,230 234,230 234,230 234,237.571 243.81,233 246,233 246,233 248,233 248,233 248,233 251,239 251,239 251,239 253,244 253,244 253,244 259,261 259,261 259,261 260,262 260,262 260,262 260,263 260,263 260,263 260,264 260,264 259.441,264 257,268.241 257,269  Z"/>

<path  fill="#C8CBCC" stroke-width="0" stroke="#C8CBCC" d = " M343 230 L341,231 C341,231 343,230 343,230  Z"/>

<path  fill="#E64438" stroke-width="0" stroke="#E64438" d = " M209 233 L210,233 C210,233 209,231 209,231 209,231 209,233 209,233  Z"/>

<path  fill="#C8CBCC" stroke-width="0" stroke="#C8CBCC" d = " M339 232 L339,233 C339,233 341,231 341,231 341,231 339,232 339,232  Z"/>

<path  fill="#97D6F9" stroke-width="0" stroke="#97D6F9" d = " M155 232 L154,233 C154,233 155,232 155,232  Z"/>

<path  fill="#E64438" stroke-width="0" stroke="#E64438" d = " M246 233 L248,233 C248,233 247,232 247,232 247,232 246,233 246,233  Z"/>

<path  fill="#97D6F9" stroke-width="0" stroke="#97D6F9" d = " M301 232 L302,233 C302,233 301,232 301,232  Z"/>

<path  fill="#97D6F9" stroke-width="0" stroke="#97D6F9" d = " M338 233 L339,233 C339,233 339,232 339,232 339,232 338,233 338,233  Z"/>

<path  fill="#97D6F9" stroke-width="0" stroke="#97D6F9" d = " M121 237 L127,243 C127,241.398 123.942,240.616 125,238.5 126.186,236.128 137,237.164 137,235 137,235 128.5,236 128.5,236 128.5,236 118,233 118,233 118,235.349 121,234.382 121,237  Z"/>

<path  fill="#97D6F9" stroke-width="0" stroke="#97D6F9" d = " M152 233 C150.286,233 139,233.852 139,235 141.312,235 152,235.379 152,233  Z"/>

<path  fill="#97D6F9" stroke-width="0" stroke="#97D6F9" d = " M305 233 C306.496,233 317,233.988 317,235 314.802,235 305,235.238 305,233  Z"/>

<path  fill="#97D6F9" stroke-width="0" stroke="#97D6F9" d = " M336 237 C336,237.841 331.992,241 331,241 331,236.012 327.523,238.012 323.5,236 322.353,235.426 319,237.064 319,235 319,235 327.5,236 327.5,236 327.5,236 338,233 338,233 338,233 336,237 336,237  Z"/>

<path  fill="#E64438" stroke-width="0" stroke="#E64438" d = " M177 235 L176,236 C176,236 177,235 177,235  Z"/>

<path  fill="#A2B1D7" stroke-width="0" stroke="#A2B1D7" d = " M128 263 C128,266.327 134.862,271.681 137.5,273 L142.5,277 C152.115,281.808 163.078,277 173,277 173,277 169,272.5 169,272.5 167.275,269.049 178.72,262 181,262 181,262 183,261 183,261 183,261 185,259 185,259 185,257.798 193,249.478 193,243 193,243 193,240 193,240 193,240 192,238 192,238 192,238 177,235 177,235 177,235 176,236 176,236 176,236 165,241 165,241 165,241 164,242 164,242 164,242 163,243 163,243 163,243 162,244 162,244 162,252.034 142.134,258 136,258 136,258 132,260 132,260 132,260 128,263 128,263  Z"/>

<path  fill="#A2B1D7" stroke-width="0" stroke="#A2B1D7" d = " M329 263 C329,265.431 323.718,268.064 323,269.5 315.724,284.051 295.53,277 283,277 283,277 288,271.5 288,271.5 288,268.328 278.289,262 275,262 275,262 272,259 272,259 267.221,259 263,246.362 263,243 263,243 263,241 263,241 263,241 264,238 264,238 269.59,238 274.276,236 281,236 285.418,236 289.051,243 293,243 293,243 305.5,255 305.5,255 310.022,257.261 314.486,258 320,258 320,258 324,260 324,260 324,260 329,263 329,263  Z"/>

<path  fill="#99D2BD" stroke-width="0" stroke="#99D2BD" d = " M329 263 L331,263 C331,255.975 329.68,251.139 333,244.5 333,244.5 343,235 343,235 340.17,235 338.46,237 336,237 336,237.841 331.992,241 331,241 331,241 330,243 330,243 330,243 328,246 328,246 328,246 327,247 327,247 327,247 327,249 327,249 327,249 326,251 326,251 326,252.048 326.473,254 325,254 325,254 324,260 324,260 324,260 329,263 329,263  Z"/>

<path  fill="#E64438" stroke-width="0" stroke="#E64438" d = " M193 243 C196.413,243 199.272,243 203,243 203,243 205,239 205,239 205,239 202.5,241 202.5,241 199.728,242.386 195.231,240 193,240 193,240 193,243 193,243  Z"/>

<path  fill="#E64438" stroke-width="0" stroke="#E64438" d = " M263 243 L257.5,242 L253,244 C253,244 251,239 251,239 253.516,239 258.435,241 263,241 263,241 263,243 263,243  Z"/>

<path  fill="#97D6F9" stroke-width="0" stroke="#97D6F9" d = " M165 241 L164,242 C164,242 165,241 165,241  Z"/>

<path  fill="#97D6F9" stroke-width="0" stroke="#97D6F9" d = " M331 241 L330,243 C330,243 331,241 331,241  Z"/>

<path  fill="#97D6F9" stroke-width="0" stroke="#97D6F9" d = " M164 242 L163,243 C163,243 164,242 164,242  Z"/>

<path  fill="#F2473B" stroke-width="0" stroke="#F2473B" d = " M197 262 L196,263 C192.089,263 189.393,261 185,261 185,261 185,259 185,259 185,257.798 193,249.478 193,243 196.413,243 199.272,243 203,243 203,248.425 199,251.796 199,257 197.986,257 197,260.959 197,262  Z"/>

<path  fill="#FE5446" stroke-width="0" stroke="#FE5446" d = " M211 275 L214,275 C214,275 218,273 218,273 218,273 219,273 219,273 219,273 221,272 221,272 221,270.527 222.952,271 224,271 224,271 225,271 225,271 225,271 227,269 227,269 227,269 227,253 227,253 227,253 227,245 227,245 227,245 225,242 225,242 220.804,242 220.848,249 219,249 219,249 219,251 219,251 219,251 218,253 218,253 218,253 217,255 217,255 217,259.079 213,261.766 213,265 213,267.332 206.003,275 211,275  Z"/>

<path  fill="#FE5446" stroke-width="0" stroke="#FE5446" d = " M238 273 L245,275 C250.798,275 243,266.834 243,265 243,261.315 239,258.974 239,255 239,255 239,254 239,254 239,254 238,252 238,252 238,252 238,251 238,251 237.098,251 236.564,242 231,242 231,242 229,245 229,245 229,245 229,253 229,253 229,258.356 230,264.266 230,269 230,269 232,271 232,271 233.424,271 237,271.362 237,273 237,273 238,273 238,273  Z"/>

<path  fill="#F2473B" stroke-width="0" stroke="#F2473B" d = " M260 263 L261,263 C264.395,263 267.106,261 271,261 271,261 272,259 272,259 267.221,259 263,246.362 263,243 263,243 257.5,242 257.5,242 257.5,242 253,244 253,244 253,244 259,261 259,261 259,261 260,262 260,262 260,262 260,263 260,263  Z"/>

<path  fill="#97D6F9" stroke-width="0" stroke="#97D6F9" d = " M163 243 L162,244 C162,244 163,243 163,243  Z"/>

<path  fill="#97D6F9" stroke-width="0" stroke="#97D6F9" d = " M127 244 L129,246 C129,246 127,244 127,244  Z"/>

<path  fill="#FD5447" stroke-width="0" stroke="#FD5447" d = " M227 253 L229,253 C229,253 229,245 229,245 229,245 227,245 227,245 227,245 227,253 227,253  Z"/>

<path  fill="#FE5447" stroke-width="0" stroke="#FE5447" d = " M217 255 L212.5,261 C205.171,264.665 199,270.12 199,257 200.76,257 202.394,252.712 203,251.5 203,251.5 209.5,247 209.5,247 215.659,243.921 216.798,249 219,249 219,249 219,251 219,251 219,251 218,253 218,253 218,253 217,255 217,255  Z"/>

<path  fill="#FE5447" stroke-width="0" stroke="#FE5447" d = " M239 254 L239,255 C242.176,255 251.623,274.254 258,261.5 260.937,255.625 238,236.951 238,251 238,251 238,252 238,252 238,252 239,254 239,254  Z"/>

<path  fill="#97D6F9" stroke-width="0" stroke="#97D6F9" d = " M328 246 L327,247 C327,247 328,246 328,246  Z"/>

<path  fill="#97D6F9" stroke-width="0" stroke="#97D6F9" d = " M129 248 L130,249 C130,249 129,248 129,248  Z"/>

<path  fill="#97D6F9" stroke-width="0" stroke="#97D6F9" d = " M327 249 L326,251 C326,251 327,249 327,249  Z"/>

<path  fill="#97D6F9" stroke-width="0" stroke="#97D6F9" d = " M130 250 L131,252 C131,252 130,250 130,250  Z"/>

<path  fill="#FF5346" stroke-width="0" stroke="#FF5346" d = " M219 251 L218,253 C218,253 219,251 219,251  Z"/>

<path  fill="#97D6F9" stroke-width="0" stroke="#97D6F9" d = " M326 251 C324.527,251 325,252.952 325,254 326.473,254 326,252.048 326,251  Z"/>

<path  fill="#FF5346" stroke-width="0" stroke="#FF5346" d = " M238 252 L239,254 C239,254 238,252 238,252  Z"/>

<path  fill="#97D6F9" stroke-width="0" stroke="#97D6F9" d = " M136 258 L132,260 C132,260 131,253 131,253 131,253 136,258 136,258  Z"/>

<path  fill="#FF5346" stroke-width="0" stroke="#FF5346" d = " M218 253 L217,255 C217,255 218,253 218,253  Z"/>

<path  fill="#A8A9AA" stroke-width="0" stroke="#A8A9AA" d = " M227 269 C227,270.486 230,270.486 230,269 230,264.266 229,258.356 229,253 229,253 227,253 227,253 227,253 227,269 227,269  Z"/>

<path  fill="#97D6F9" stroke-width="0" stroke="#97D6F9" d = " M320 258 L324,260 C324,260 325,254 325,254 325,254 322.5,257 322.5,257 321.581,257.459 320,256.235 320,258  Z"/>

<path  fill="#FF5346" stroke-width="0" stroke="#FF5346" d = " M200 270 C200,268.465 204,268.465 204,270 207.281,270 210.134,265 213,265 213,261.766 217,259.079 217,255 217,255 212.5,261 212.5,261 205.171,264.665 199,270.12 199,257 197.986,257 197,260.959 197,262 197,262 197,264 197,264 197,264 200,270 200,270  Z"/>

<path  fill="#E64438" stroke-width="0" stroke="#E64438" d = " M183 261 L185,261 C185,261 185,259 185,259 185,259 183,261 183,261  Z"/>

<path  fill="#E64438" stroke-width="0" stroke="#E64438" d = " M275 262 L274,264 C274,261.959 273.041,261 271,261 271,261 272,259 272,259 272,259 275,262 275,262  Z"/>

<path  fill="#E64438" stroke-width="0" stroke="#E64438" d = " M181 262 L182,263 C182,263 183,261 183,261 183,261 181,262 181,262  Z"/>

<path  fill="#96A6D3" stroke-width="0" stroke="#96A6D3" d = " M197 278 L195,279 C188.709,279 182.047,275 181,275 181,271.469 182,267.107 182,263 182,263 183,261 183,261 183,261 185,261 185,261 189.393,261 192.089,263 196,263 196,263 197,264 197,264 197,264 200,270 200,270 200,270 197,278 197,278  Z"/>

<path  fill="#CBCCCB" stroke-width="0" stroke="#CBCCCB" d = " M259 261 L260,262 C260,262 259,261 259,261  Z"/>

<path  fill="#96A6D3" stroke-width="0" stroke="#96A6D3" d = " M260 278 L261,279 C264.459,279 268.627,279.437 271.5,278 271.5,278 275,275 275,275 275,275 274,264 274,264 274,261.959 273.041,261 271,261 267.106,261 264.395,263 261,263 261,263 260,264 260,264 259.441,264 257,268.241 257,269 257,272.303 259,274.115 259,277 259,277 260,278 260,278  Z"/>

<path  fill="#CAC8C7" stroke-width="0" stroke="#CAC8C7" d = " M117 273 L117,275 C115.577,275 113.456,276.978 111.5,276 107.7,274.1 95,267.367 95,263 101.237,263 109.861,270 116,270 116,270 117,273 117,273  Z"/>

<path  fill="#A2B1D8" stroke-width="0" stroke="#A2B1D8" d = " M173 277 L177,277 C177,277 181,275 181,275 181,271.469 182,267.107 182,263 182,263 181,262 181,262 178.72,262 167.275,269.049 169,272.5 169,272.5 173,277 173,277  Z"/>

<path  fill="#CBCCCB" stroke-width="0" stroke="#CBCCCB" d = " M196 263 L197,264 C197,264 197,262 197,262 197,262 196,263 196,263  Z"/>

<path  fill="#A2B1D8" stroke-width="0" stroke="#A2B1D8" d = " M279 277 L283,277 C283,277 288,271.5 288,271.5 288,268.328 278.289,262 275,262 275,262 274,264 274,264 274,264 275,275 275,275 275,275 279,277 279,277  Z"/>

<path  fill="#CAC8C7" stroke-width="0" stroke="#CAC8C7" d = " M339 275 L340,276 C345.269,276 362,268.331 362,263 359.849,263 340,268.474 340,271 340,271 339,272 339,272 339,272 339,275 339,275  Z"/>

<path  fill="#99D2BD" stroke-width="0" stroke="#99D2BD" d = " M126 263 L125,264 C125,264 126,263 126,263  Z"/>

<path  fill="#7FCCF7" stroke-width="0" stroke="#7FCCF7" d = " M121 280 C121,284.859 128.763,290.132 132.5,292 145.18,298.34 155.374,303.063 169.5,296 173.563,293.968 185,294.255 185,287 185,282.053 182.392,277 177,277 177,277 173,277 173,277 163.078,277 152.115,281.808 142.5,277 142.5,277 137.5,273 137.5,273 134.862,271.681 128,266.327 128,263 128,263 126,263 126,263 126,263 125,264 125,264 125,264 119,270 119,270 119,270 119,271 119,271 119,273.409 120,276.181 120,278 120,278 120,279 120,279 120,279 121,280 121,280  Z"/>

<path  fill="#CBCCCB" stroke-width="0" stroke="#CBCCCB" d = " M261 263 L260,264 C260,264 260,263 260,263 260,263 261,263 261,263  Z"/>

<path  fill="#7FCCF7" stroke-width="0" stroke="#7FCCF7" d = " M335 281 C335,284.434 328.199,289.65 325.5,291 309.337,299.081 302.768,304.134 284.5,295 281.172,293.336 272,293.616 272,288 272,283.891 272.107,277 279,277 279,277 283,277 283,277 295.53,277 315.724,284.051 323,269.5 323.718,268.064 329,265.431 329,263 329,263 331,263 331,263 331,266.291 337,266.675 337,270 337,270 338,272 338,272 338,272 337,277 337,277 337,277 337,278 337,278 337,278 336,279 336,279 336,279 336,280 336,280 336,280 335,281 335,281  Z"/>

<path  fill="#E64438" stroke-width="0" stroke="#E64438" d = " M208 277 L209,277 C209,277 210,276 210,276 210,276 211,275 211,275 206.003,275 213,267.332 213,265 210.134,265 207.281,270 204,270 204,271.819 205,274.591 205,277 205,277 208,277 208,277  Z"/>

<path  fill="#E64438" stroke-width="0" stroke="#E64438" d = " M247 276 L252,278 C252,275.905 252,272.095 252,270 248.719,270 245.866,265 243,265 243,266.834 250.798,275 245,275 245,275 247,276 247,276  Z"/>

<path  fill="#FE5546" stroke-width="0" stroke="#FE5546" d = " M198 278 L199,279 C199.706,279 205,277.675 205,277 205,274.591 204,271.819 204,270 204,268.465 200,268.465 200,270 200,270 197,278 197,278 197,278 198,278 198,278  Z"/>

<path  fill="#FE5546" stroke-width="0" stroke="#FE5546" d = " M252 278 C254.833,278 256.84,278 259,278 259,278 259,277 259,277 259,274.115 257,272.303 257,269 257,269 252,270 252,270 252,272.095 252,275.905 252,278  Z"/>

<path  fill="#99D2BD" stroke-width="0" stroke="#99D2BD" d = " M118 271 L117,273 C117,273 116,270 116,270 116,270 118,271 118,271  Z"/>

<path  fill="#99D2BD" stroke-width="0" stroke="#99D2BD" d = " M118 271 L119,271 C119,271 119,270 119,270 119,270 118,271 118,271  Z"/>

<path  fill="#99D2BD" stroke-width="0" stroke="#99D2BD" d = " M338 272 L339,272 C339,272 340,271 340,271 340,271 337,270 337,270 337,270 338,272 338,272  Z"/>

<path  fill="#97D6F9" stroke-width="0" stroke="#97D6F9" d = " M117 275 L120,278 C120,276.181 119,273.409 119,271 119,271 118,271 118,271 118,271 117,273 117,273 117,273 117,275 117,275  Z"/>

<path  fill="#CAC7CB" stroke-width="0" stroke="#CAC7CB" d = " M224 271 C222.952,271 221,270.527 221,272 222.048,272 224,272.473 224,271  Z"/>

<path  fill="#CBCACC" stroke-width="0" stroke="#CBCACC" d = " M246 288 L247,288 C247,288 251,283.5 251,283.5 251,283.5 241.5,275 241.5,275 241.5,275 238,273 238,273 238,273 237,273 237,273 235.959,273 232,272.014 232,271 232,271 230,271 230,271 230,271 229,272 229,272 229,272 227,272 227,272 227,272 226,271 226,271 226,271 225,271 225,271 225,271 224,271 224,271 224,272.473 222.048,272 221,272 221,272 219,273 219,273 219,273 218,273 218,273 218,275.109 215.465,275 214,275 214,275 206,283.5 206,283.5 204.606,286.289 209,286.535 209,288 209,288 210,288 210,288 222.861,288 233.194,288 246,288  Z"/>

<path  fill="#CAC7CB" stroke-width="0" stroke="#CAC7CB" d = " M226 271 L227,272 C227,272 226,271 226,271  Z"/>

<path  fill="#CAC7CB" stroke-width="0" stroke="#CAC7CB" d = " M230 271 L229,272 C229,272 230,271 230,271  Z"/>

<path  fill="#CAC7CB" stroke-width="0" stroke="#CAC7CB" d = " M232 271 C233.424,271 237,271.362 237,273 235.959,273 232,272.014 232,271  Z"/>

<path  fill="#CAC7CB" stroke-width="0" stroke="#CAC7CB" d = " M221 272 L219,273 C219,273 221,272 221,272  Z"/>

<path  fill="#97D6F9" stroke-width="0" stroke="#97D6F9" d = " M339 276 L337,277 C337,277 338,272 338,272 338,272 339,272 339,272 339,272 339,275 339,275 339,275 339,276 339,276  Z"/>

<path  fill="#CAC7CB" stroke-width="0" stroke="#CAC7CB" d = " M218 273 L214,275 C215.465,275 218,275.109 218,273  Z"/>

<path  fill="#CAC7CB" stroke-width="0" stroke="#CAC7CB" d = " M247 276 L252,281.5 C254.587,286.675 252.864,288 247,288 247,288 251,283.5 251,283.5 251,283.5 241.5,275 241.5,275 241.5,275 238,273 238,273 238,273 245,275 245,275 245,275 247,276 247,276  Z"/>

<path  fill="#8599CC" stroke-width="0" stroke="#8599CC" d = " M195 279 C195,280.936 186.602,287 185,287 185,282.053 182.392,277 177,277 177,277 181,275 181,275 182.047,275 188.709,279 195,279  Z"/>

<path  fill="#CAC7CB" stroke-width="0" stroke="#CAC7CB" d = " M208 277 L209,277 C209,277 210,276 210,276 210,276 211,275 211,275 211,275 214,275 214,275 214,275 206,283.5 206,283.5 204.606,286.289 209,286.535 209,288 202.859,288 202.607,285.287 205,280.5 205,280.5 208,277 208,277  Z"/>

<path  fill="#8599CC" stroke-width="0" stroke="#8599CC" d = " M261 279 C261,280.465 270.557,288 272,288 272,283.891 272.107,277 279,277 279,277 275,275 275,275 275,275 271.5,278 271.5,278 268.627,279.437 264.459,279 261,279  Z"/>

<path  fill="#99D2BD" stroke-width="0" stroke="#99D2BD" d = " M339 276 L340,276 C340,276 339,275 339,275 339,275 339,276 339,276  Z"/>

<path  fill="#E64438" stroke-width="0" stroke="#E64438" d = " M259 278 L260,278 C260,278 259,277 259,277 259,277 259,278 259,278  Z"/>

<path  fill="#E64438" stroke-width="0" stroke="#E64438" d = " M198 278 L199,279 C199,279 198,278 198,278  Z"/>

<path  fill="#97D6F9" stroke-width="0" stroke="#97D6F9" d = " M337 278 L336,279 C336,279 337,278 337,278  Z"/>

<path  fill="#97D6F9" stroke-width="0" stroke="#97D6F9" d = " M120 279 L121,280 C121,280 120,279 120,279  Z"/>

<path  fill="#97D6F9" stroke-width="0" stroke="#97D6F9" d = " M336 280 L335,281 C335,281 336,280 336,280  Z"/>

<path  fill="#CAC7CB" stroke-width="0" stroke="#CAC7CB" d = " M210 288 C222.861,288 233.194,288 246,288 246,289.725 239.948,289 238.5,289 231.689,289 225.181,289 218.5,289 216.968,289 210,289.743 210,288  Z"/>

</g>
</svg>
