<svg xmlns="http://www.w3.org/2000/svg" xmlns:xlink="http://www.w3.org/1999/xlink"  viewBox="0 0 456 320">
<g>
<rect width="456" height="320" fill="#000000"  stroke-width="0" /> 
<path  fill="#1E9C59" stroke-width="0" stroke="#1E9C59" d = " M112 118 C112,118.754 113.6,126 114,126 114,110.757 138.975,88.2623 151.5,82 157.566,78.967 165.482,79.0088 171.5,76 175.732,73.884 193.034,69.2668 198.5,72 198.5,72 207.5,75 207.5,75 210.562,76.5312 212.009,81 215,81 215,81 219,78 219,78 219,68.025 189.156,61.172 181.5,65 181.5,65 162.5,71 162.5,71 148.355,78.0724 129.134,85.2322 121,101.5 118.837,105.825 112,111.035 112,116 113.399,116 113.399,118 112,118  Z"/>

<path  fill="#1E9C59" stroke-width="0" stroke="#1E9C59" d = " M344 116 C344,117.213 344.041,126 342,126 342,109.012 318.02,88.7598 304.5,82 297.79,78.6448 287.897,78.1984 281.5,75 277.008,72.754 263.32,69.0902 257.5,72 257.5,72 247.5,76 247.5,76 247.5,76 242,81 242,81 242,81 241,81 241,81 241,81 237,78 237,78 237,68.1741 267.363,61.4316 274.5,65 280.627,68.0633 288.416,67.958 294.5,71 306.814,77.1568 325.787,84.0743 333,98.5 335.784,104.068 344,109.504 344,116  Z"/>

<path  fill="#1E9D58" stroke-width="0" stroke="#1E9D58" d = " M129 148 C129,149.549 122.949,153 121,153 121,153 118,148.5 118,148.5 116.609,145.717 114,134.104 114,131 115.186,131 115.186,130 114,130 114,130 114,126 114,126 114,110.757 138.975,88.2623 151.5,82 157.566,78.967 165.482,79.0088 171.5,76 175.732,73.884 193.034,69.2668 198.5,72 198.5,72 207.5,75 207.5,75 210.562,76.5312 212.009,81 215,81 215,81 215,82 215,82 213.74,82 210,85.3457 210,87 210,87 209,87 209,87 209,82.9118 201.635,83.0677 199.5,82 192.172,78.3361 177.853,83.8233 171.5,87 159.651,92.9247 141.937,100.626 135,114.5 132.27,119.961 130.713,126.074 128,131.5 128,131.5 129,148 129,148  Z"/>

<path  fill="#1E9D58" stroke-width="0" stroke="#1E9D58" d = " M339 149 C337.197,149 336,152.592 336,154 332.71,154 330.482,149 327,149 327,149 327,148 327,148 327,142.294 330.777,135.053 328,129.5 318.005,109.51 310.267,99.3835 289.5,89 282.339,85.4194 265.848,77.8259 257.5,82 255.307,83.0967 247,82.9998 247,87 247,87 246,87 246,87 246,84.4195 242,83.789 242,81 242,81 247.5,76 247.5,76 247.5,76 257.5,72 257.5,72 263.32,69.0902 277.008,72.754 281.5,75 287.897,78.1984 297.79,78.6448 304.5,82 318.02,88.7598 342,109.012 342,126 342,126 342,127 342,127 342,134.354 339,141.714 339,149  Z"/>

<path  fill="#3EA665" stroke-width="0" stroke="#3EA665" d = " M226 90 L221,92 C218.114,92 218.847,82 215,82 215,82 215,81 215,81 215,81 219,78 219,78 219,81.9494 226,85.582 226,90  Z"/>

<path  fill="#3EA665" stroke-width="0" stroke="#3EA665" d = " M235 93 L236,93 C236,88.481 241,85.1179 241,81 241,81 237,78 237,78 237,82.3688 231,85.2221 231,90 231,90 235,93 235,93  Z"/>

<path  fill="#1F9D58" stroke-width="0" stroke="#1F9D58" d = " M129 148 L130,148 C130,145.973 150.872,133 155,133 155,129.554 158.502,121 163,121 163,121 163,120 163,120 163,117.508 168.792,113 171,113 171,113 173,111 173,111 173,111 176,110 176,110 176,110 177,109 177,109 177,106.421 188.643,105 191,105 191,102.804 199.041,96 201,96 201,96 209,87 209,87 209,82.9118 201.635,83.0677 199.5,82 192.172,78.3361 177.853,83.8233 171.5,87 159.651,92.9247 141.937,100.626 135,114.5 132.27,119.961 130.713,126.074 128,131.5 128,131.5 129,148 129,148  Z"/>

<path  fill="#40A565" stroke-width="0" stroke="#40A565" d = " M243 94 L242,95 C240.026,95 238.483,93 236,93 236,88.481 241,85.1179 241,81 241,81 242,81 242,81 242,83.789 246,84.4195 246,87 246,89.2322 243,91.0294 243,94  Z"/>

<path  fill="#1F9D58" stroke-width="0" stroke="#1F9D58" d = " M302 133 C311.674,133 321.343,148 327,148 327,142.294 330.777,135.053 328,129.5 318.005,109.51 310.267,99.3835 289.5,89 282.339,85.4194 265.848,77.8259 257.5,82 255.307,83.0967 247,82.9998 247,87 247,87 255,96 255,96 257.32,96 265,102.409 265,105 265,105 266,105 266,105 268.524,105 281,107.191 281,110 281,110 283,111 283,111 285.772,111 293,116.915 293,120 293,120 294,122 294,122 297.64,122 302,129.318 302,133  Z"/>

<path  fill="#40A565" stroke-width="0" stroke="#40A565" d = " M214 95 L215,95 C215,93.6471 219.643,93 221,93 221,93 221,92 221,92 218.114,92 218.847,82 215,82 213.74,82 210,85.3457 210,87 210,89.4088 214,91.863 214,95  Z"/>

<path  fill="#3EA566" stroke-width="0" stroke="#3EA566" d = " M214 95 C211.829,95 201,97.1627 201,96 201,96 209,87 209,87 209,87 210,87 210,87 210,89.4088 214,91.863 214,95  Z"/>

<path  fill="#3EA566" stroke-width="0" stroke="#3EA566" d = " M243 94 C243,95.2659 255,97.1357 255,96 255,96 247,87 247,87 247,87 246,87 246,87 246,89.2322 243,91.0294 243,94  Z"/>

<path  fill="#2FA750" stroke-width="0" stroke="#2FA750" d = " M223 126 L233,126 C233,126 235,93 235,93 235,93 231,90 231,90 231,90 228.5,95 228.5,95 228.5,95 226,90 226,90 226,90 221,92 221,92 221,92 221,93 221,93 221,103.617 223,114.588 223,126  Z"/>

<path  fill="#2FA74F" stroke-width="0" stroke="#2FA74F" d = " M219 125 L223,126 C223,114.588 221,103.617 221,93 219.643,93 215,93.6471 215,95 215,99.9569 216.884,106.268 219,110.5 219,110.5 219,125 219,125  Z"/>

<path  fill="#2FA74F" stroke-width="0" stroke="#2FA74F" d = " M237 125 L233,126 C233,126 235,93 235,93 235,93 236,93 236,93 238.483,93 240.026,95 242,95 242,95 240,99.5 240,99.5 238.266,102.969 237,120.179 237,125  Z"/>

<path  fill="#2EA84F" stroke-width="0" stroke="#2EA84F" d = " M257 117 C253.148,117 243.592,125 237,125 237,120.179 238.266,102.969 240,99.5 240,99.5 242,95 242,95 242,95 243,94 243,94 243,95.2659 255,97.1357 255,96 257.32,96 265,102.409 265,105 260.717,105 257,112.53 257,116 257,116 257,117 257,117  Z"/>

<path  fill="#2EA84F" stroke-width="0" stroke="#2EA84F" d = " M199 117 C205.508,117 211.647,125 219,125 219,125 219,110.5 219,110.5 216.884,106.268 215,99.9569 215,95 215,95 214,95 214,95 211.829,95 201,97.1627 201,96 199.041,96 191,102.804 191,105 196.125,105 199,111.566 199,116 199,116 199,117 199,117  Z"/>

<path  fill="#1D9C5A" stroke-width="0" stroke="#1D9C5A" d = " M189 108 L177,109 C177,106.421 188.643,105 191,105 191,105 189,108 189,108  Z"/>

<path  fill="#2FA850" stroke-width="0" stroke="#2FA850" d = " M195 114 L199,116 C199,111.566 196.125,105 191,105 191,105 189,108 189,108 189,108 195,114 195,114  Z"/>

<path  fill="#2FA850" stroke-width="0" stroke="#2FA850" d = " M261 115 L257,116 C257,112.53 260.717,105 265,105 265,105 266,105 266,105 266,105 268,108 268,108 266.099,108 262,112.099 262,114 262,114 261,115 261,115  Z"/>

<path  fill="#1D9C5A" stroke-width="0" stroke="#1D9C5A" d = " M268 108 C272.846,108 276.793,110 281,110 281,107.191 268.524,105 266,105 266,105 268,108 268,108  Z"/>

<path  fill="#268E44" stroke-width="0" stroke="#268E44" d = " M163 121 C163,122.145 162.421,125 164,125 171.1,125 177.384,115 185,115 188.423,115 191.474,117 194,117 196.716,117 195,117.561 195,114 195,114 189,108 189,108 189,108 177,109 177,109 177,109 176,110 176,110 176,110 173,111 173,111 173,112.747 172.747,113 171,113 171,115.073 164.852,120 163,120 163,120 163,121 163,121  Z"/>

<path  fill="#268E44" stroke-width="0" stroke="#268E44" d = " M294 122 L293,125 C285.715,125 279.522,115 272,115 268.298,115 264.73,117 262,117 262,117 261,115 261,115 261,115 262,114 262,114 262,112.099 266.099,108 268,108 272.846,108 276.793,110 281,110 281,110 283,111 283,111 283,113.196 291.041,120 293,120 293,120 294,122 294,122  Z"/>

<path  fill="#1D9C5A" stroke-width="0" stroke="#1D9C5A" d = " M177 109 L176,110 C176,110 177,109 177,109  Z"/>

<path  fill="#258F45" stroke-width="0" stroke="#258F45" d = " M173 111 L171,113 C172.747,113 173,112.747 173,111  Z"/>

<path  fill="#258F45" stroke-width="0" stroke="#258F45" d = " M283 111 C285.772,111 293,116.915 293,120 291.041,120 283,113.196 283,111  Z"/>

<path  fill="#258F45" stroke-width="0" stroke="#258F45" d = " M171 113 C168.792,113 163,117.508 163,120 164.852,120 171,115.073 171,113  Z"/>

<path  fill="#22885E" stroke-width="0" stroke="#22885E" d = " M197 123 L198,123 C198,123 199,117 199,117 199,117 199,116 199,116 199,116 195,114 195,114 195,117.561 196.716,117 194,117 194,117 197,123 197,123  Z"/>

<path  fill="#22885E" stroke-width="0" stroke="#22885E" d = " M262 114 L261,115 C261,115 262,114 262,114  Z"/>

<path  fill="#24895D" stroke-width="0" stroke="#24895D" d = " M159 133 L158,137 C163.785,137 172.317,127 181,127 181,123.205 185,118.526 185,115 177.384,115 171.1,125 164,125 164,125 159,133 159,133  Z"/>

<path  fill="#238A5C" stroke-width="0" stroke="#238A5C" d = " M197 123 C197,125.234 183.912,127 181,127 181,123.205 185,118.526 185,115 188.423,115 191.474,117 194,117 194,117 197,123 197,123  Z"/>

<path  fill="#22885E" stroke-width="0" stroke="#22885E" d = " M262 117 C262,118.076 260.477,122 259,122 257.362,122 257,118.424 257,117 257,117 257,116 257,116 257,116 261,115 261,115 261,115 262,117 262,117  Z"/>

<path  fill="#238A5C" stroke-width="0" stroke="#238A5C" d = " M259 123 C261.378,123 269.105,127 275,127 275,127 272,115 272,115 268.298,115 264.73,117 262,117 262,118.076 260.477,122 259,122 259,122 259,123 259,123  Z"/>

<path  fill="#24895D" stroke-width="0" stroke="#24895D" d = " M297 133 L299,137 C293.306,137 284.278,127 275,127 275,127 272,115 272,115 279.522,115 285.715,125 293,125 293,125 297,133 297,133  Z"/>

<path  fill="#1E9D5A" stroke-width="0" stroke="#1E9D5A" d = " M112 116 C113.399,116 113.399,118 112,118 112,118 112,116 112,116  Z"/>

<path  fill="#1E9D5A" stroke-width="0" stroke="#1E9D5A" d = " M337 154 L343,157 C346.113,157 346.078,149.344 347,147.5 350.096,141.309 350.096,130.691 347,124.5 346.261,123.021 346.033,116 344,116 344,117.213 344.041,126 342,126 342,126 342,127 342,127 343.665,127 343,131.222 343,132.5 343,135.697 341.865,149 339,149 339,151.25 337,152.376 337,154  Z"/>

<path  fill="#23885E" stroke-width="0" stroke="#23885E" d = " M213 155 L214,155 C220.365,155 219,130.261 219,125 211.647,125 205.508,117 199,117 199,117 198,123 198,123 198,130.929 213,146.202 213,155  Z"/>

<path  fill="#23885E" stroke-width="0" stroke="#23885E" d = " M237 125 C237,131.745 236.055,155 243,155 243,155 259,123 259,123 259,123 259,122 259,122 257.362,122 257,118.424 257,117 253.148,117 243.592,125 237,125  Z"/>

<path  fill="#1E9D5A" stroke-width="0" stroke="#1E9D5A" d = " M119 155 C116.28,155 115.447,157 113,157 108.494,157 106.509,131.482 109,126.5 109.809,124.883 109.405,118 112,118 112,118.754 113.6,126 114,126 114,126 114,130 114,130 114,130 114,131 114,131 112.749,131 112.464,135.427 113,136.5 113.713,137.927 119,153.396 119,154 119,154 119,155 119,155  Z"/>

<path  fill="#1D9C5A" stroke-width="0" stroke="#1D9C5A" d = " M155 133 L159,133 C159,133 164,125 164,125 162.421,125 163,122.145 163,121 158.502,121 155,129.554 155,133  Z"/>

<path  fill="#1D9C5A" stroke-width="0" stroke="#1D9C5A" d = " M297 133 L302,133 C302,129.318 297.64,122 294,122 294,122 293,125 293,125 293,125 297,133 297,133  Z"/>

<path  fill="#23885C" stroke-width="0" stroke="#23885C" d = " M181 145 C182.423,145 184.544,143.022 186.5,144 191.283,146.391 208.483,155 213,155 213,146.202 198,130.929 198,123 198,123 197,123 197,123 197,125.234 183.912,127 181,127 181,134.442 181,138.812 181,145  Z"/>

<path  fill="#23885C" stroke-width="0" stroke="#23885C" d = " M275 144 C263.11,144 250.611,155 243,155 243,155 259,123 259,123 261.378,123 269.105,127 275,127 275,132.415 275,138.104 275,144  Z"/>

<path  fill="#24885D" stroke-width="0" stroke="#24885D" d = " M214 155 L219,167 C223.43,167 221.676,161.149 223,158.5 227.26,149.979 223,135.083 223,126 223,126 219,125 219,125 219,130.261 220.365,155 214,155  Z"/>

<path  fill="#24885D" stroke-width="0" stroke="#24885D" d = " M243 155 L237,167 C233.473,167 233,159.12 233,156.5 233,147.516 233,136.214 233,126 233,126 237,125 237,125 237,131.745 236.055,155 243,155  Z"/>

<path  fill="#23895D" stroke-width="0" stroke="#23895D" d = " M225 178 L222,179 C222,175.099 219,171.457 219,168 219,168 219,167 219,167 223.43,167 221.676,161.149 223,158.5 227.26,149.979 223,135.083 223,126 223,126 233,126 233,126 233,136.214 233,147.516 233,156.5 233,159.12 233.473,167 237,167 237,167 237,168 237,168 237,171.911 235,174.607 235,179 235,179 231,177 231,177 231,177 231,176 231,176 231,176 230,175 230,175 230,166.839 225,173.591 225,178  Z"/>

<path  fill="#228A5D" stroke-width="0" stroke="#228A5D" d = " M149 164 L148,171 C159.568,171 172.893,145 181,145 181,138.812 181,134.442 181,127 172.317,127 163.785,137 158,137 158,137 157,137 157,137 157,137 150,162 150,162 150,162 149,164 149,164  Z"/>

<path  fill="#228A5D" stroke-width="0" stroke="#228A5D" d = " M306 161 L308,171 C296.11,171 284.814,145 275,145 275,145 275,144 275,144 275,138.104 275,132.415 275,127 284.278,127 293.306,137 299,137 299,137 306,161 306,161  Z"/>

<path  fill="#1F9C58" stroke-width="0" stroke="#1F9C58" d = " M342 127 C343.665,127 343,131.222 343,132.5 343,135.697 341.865,149 339,149 339,141.714 342,134.354 342,127  Z"/>

<path  fill="#1F9C58" stroke-width="0" stroke="#1F9C58" d = " M114 130 C115.186,130 115.186,131 114,131 114,131 114,130 114,130  Z"/>

<path  fill="#1F9C58" stroke-width="0" stroke="#1F9C58" d = " M121 153 L119,154 C119,153.396 113.713,137.927 113,136.5 112.464,135.427 112.749,131 114,131 114,134.104 116.609,145.717 118,148.5 118,148.5 121,153 121,153  Z"/>

<path  fill="#209665" stroke-width="0" stroke="#209665" d = " M149 164 C147.438,164 144,170.653 144,172 139.779,172 130,152.141 130,148 130,145.973 150.872,133 155,133 155,135.177 154.359,137 157,137 157,137 150,162 150,162 150,162 149,164 149,164  Z"/>

<path  fill="#209666" stroke-width="0" stroke="#209666" d = " M157 137 L158,137 C158,137 159,133 159,133 159,133 155,133 155,133 155,135.177 154.359,137 157,137  Z"/>

<path  fill="#209666" stroke-width="0" stroke="#209666" d = " M302 133 C302,135.061 301.098,137 299,137 299,137 297,133 297,133 297,133 302,133 302,133  Z"/>

<path  fill="#209665" stroke-width="0" stroke="#209665" d = " M306 161 C307.187,161 312,170.415 312,172 318.164,172 326.259,149 327,149 327,149 327,148 327,148 321.343,148 311.674,133 302,133 302,135.061 301.098,137 299,137 299,137 306,161 306,161  Z"/>

<path  fill="#248A5D" stroke-width="0" stroke="#248A5D" d = " M219 167 L219,168 C206.56,168 197.313,157 185,157 185,157 184,157 184,157 184,152.831 181,148.966 181,145 182.423,145 184.544,143.022 186.5,144 191.283,146.391 208.483,155 213,155 213,155 214,155 214,155 214,155 219,167 219,167  Z"/>

<path  fill="#248A5D" stroke-width="0" stroke="#248A5D" d = " M237 167 L237,168 C249.791,168 259.181,157 272,157 272,153.136 275,149.268 275,145 275,145 275,144 275,144 263.11,144 250.611,155 243,155 243,155 237,167 237,167  Z"/>

<path  fill="#238A5E" stroke-width="0" stroke="#238A5E" d = " M148 172 C148,176.283 147,178.715 147,182 147,182 159,171.5 159,171.5 164.582,165.918 175.086,157 184,157 184,152.831 181,148.966 181,145 172.893,145 159.568,171 148,171 148,171 148,172 148,172  Z"/>

<path  fill="#238A5E" stroke-width="0" stroke="#238A5E" d = " M309 172 L309,181 C305.474,181 304.4,176.45 301.5,175 290.977,169.738 285.257,157 272,157 272,153.136 275,149.268 275,145 284.814,145 296.11,171 308,171 308,171 309,172 309,172  Z"/>

<path  fill="#209765" stroke-width="0" stroke="#209765" d = " M136 181 L137,181 C137,177.782 144,175.598 144,172 139.779,172 130,152.141 130,148 130,148 129,148 129,148 129,149.549 122.949,153 121,153 121,153 119,154 119,154 119,154 119,155 119,155 119,155 136,181 136,181  Z"/>

<path  fill="#209765" stroke-width="0" stroke="#209765" d = " M319 181 L320,181 C320,177.038 337,160.301 337,154 337,154 336,154 336,154 332.71,154 330.482,149 327,149 326.259,149 318.164,172 312,172 312,172 319,181 319,181  Z"/>

<path  fill="#1F9C58" stroke-width="0" stroke="#1F9C58" d = " M336 154 L337,154 C337,152.376 339,151.25 339,149 337.197,149 336,152.592 336,154  Z"/>

<path  fill="#209764" stroke-width="0" stroke="#209764" d = " M320 181 C320,182.803 323.592,184 325,184 325,178.597 343,163.657 343,157 343,157 337,154 337,154 337,160.301 320,177.038 320,181  Z"/>

<path  fill="#209764" stroke-width="0" stroke="#209764" d = " M136 181 L132,184 C132,184 127.5,178 127.5,178 124.909,175.409 113,159.953 113,157 115.447,157 116.28,155 119,155 119,155 136,181 136,181  Z"/>

<path  fill="#238A5D" stroke-width="0" stroke="#238A5D" d = " M147 183 L149,187 C149,187 161.5,175 161.5,175 169.456,171.022 175.252,165 186,165 186,165 185,157 185,157 185,157 184,157 184,157 175.086,157 164.582,165.918 159,171.5 159,171.5 147,182 147,182 147,182 147,183 147,183  Z"/>

<path  fill="#248A5B" stroke-width="0" stroke="#248A5B" d = " M219 168 C219,171.457 222,175.099 222,179 213.537,179 200.509,165 186,165 186,165 185,157 185,157 197.313,157 206.56,168 219,168  Z"/>

<path  fill="#248A5B" stroke-width="0" stroke="#248A5B" d = " M237 168 C237,171.911 235,174.607 235,179 242.492,179 255.762,165 271,165 271,165 272,157 272,157 259.181,157 249.791,168 237,168  Z"/>

<path  fill="#238A5D" stroke-width="0" stroke="#238A5D" d = " M309 182 L307,187 C307,187 293.5,174 293.5,174 288.024,168.524 278.88,165 271,165 271,165 272,157 272,157 285.257,157 290.977,169.738 301.5,175 304.4,176.45 305.474,181 309,181 309,181 309,182 309,182  Z"/>

<path  fill="#1F9865" stroke-width="0" stroke="#1F9865" d = " M309 172 L312,172 C312,170.415 307.187,161 306,161 306,161 308,171 308,171 308,171 309,172 309,172  Z"/>

<path  fill="#1F9865" stroke-width="0" stroke="#1F9865" d = " M150 162 L149,164 C149,164 150,162 150,162  Z"/>

<path  fill="#1F9865" stroke-width="0" stroke="#1F9865" d = " M144 172 L148,172 C148,172 148,171 148,171 148,171 149,164 149,164 147.438,164 144,170.653 144,172  Z"/>

<path  fill="#99D2BD" stroke-width="0" stroke="#99D2BD" d = " M213 229 C213,231.066 224,230.934 224,233 226.034,233 225.176,223.148 226,221.5 231.06,211.38 225,188.688 225,178 225,178 222,179 222,179 213.537,179 200.509,165 186,165 175.252,165 169.456,171.022 161.5,175 161.5,175 149,187 149,187 149,188.477 145.076,190 144,190 144,198.676 135.591,199.091 144.5,208 144.5,208 147,211 147,211 147,211 149,208 149,208 149,208 147,205.5 147,205.5 145.019,201.538 147.489,192.522 149,189.5 149,189.5 160.5,179 160.5,179 160.5,179 164.5,175 164.5,175 175.701,169.399 184.778,163.639 197.5,170 197.5,170 205,175.5 205,175.5 205,175.5 212,185.5 212,185.5 213.817,189.134 211.58,202.341 210,205.5 208.371,208.757 213,225.344 213,229  Z"/>

<path  fill="#99D2BD" stroke-width="0" stroke="#99D2BD" d = " M243 229 C243,229.468 233.177,233 232,233 232,229.046 230.802,220.104 229,216.5 226.303,211.106 231,184.381 231,177 231,177 235,179 235,179 242.492,179 255.762,165 271,165 278.88,165 288.024,168.524 293.5,174 293.5,174 307,187 307,187 307,187 313,190 313,190 313,198.221 319.089,200.411 311.5,208 311.5,208 309,211 309,211 309,211 308,208 308,208 308,202.917 311.742,197.983 309,192.5 303.849,182.198 276.322,160.589 263.5,167 263.5,167 257.5,171 257.5,171 257.5,171 249,178.5 249,178.5 247.523,181.454 241.98,187.459 244,191.5 245.858,195.216 248.218,210.063 246,214.5 243.919,218.662 243,223.996 243,229  Z"/>

<path  fill-rule="evenodd" fill="#54BF94" stroke-width="0" stroke="#54BF94" d = " M180 192 C180,197.036 185.268,207.037 188,212.5 188.569,213.637 190.897,219.801 192.5,219 197.908,216.296 193.617,205.733 192,202.5 L193,194.5 C191.384,191.269 183.307,192 180,192  M179 243 C179,245.469 190.654,251 193,251 193,241.479 203.415,229 213,229 213,225.344 208.371,208.757 210,205.5 211.58,202.341 213.817,189.134 212,185.5 212,185.5 205,175.5 205,175.5 205,175.5 197.5,170 197.5,170 184.778,163.639 175.701,169.399 164.5,175 164.5,175 160.5,179 160.5,179 160.5,179 149,189.5 149,189.5 147.489,192.522 145.019,201.538 147,205.5 147,205.5 149,208 149,208 149,208 151.5,207 151.5,207 158.305,210.403 167.347,224.194 171,231.5 173.064,235.628 179,237.259 179,242 179,242 179,243 179,243  Z"/>

<path  fill-rule="evenodd" fill="#54BF94" stroke-width="0" stroke="#54BF94" d = " M268 192 L263,194.5 C261.882,196.736 265.84,197.82 265,199.5 263.46,202.58 259.187,216.844 263.5,219 L267,216.5 C269.506,211.489 270.457,205.587 273,200.5 L278,193.5 C276.671,190.842 270.548,192 268,192  M277 243 C277,245.929 265.565,251 263,251 263,241.282 253.331,229 243,229 243,223.996 243.919,218.662 246,214.5 248.218,210.063 245.858,195.216 244,191.5 241.98,187.459 247.523,181.454 249,178.5 249,178.5 257.5,171 257.5,171 257.5,171 263.5,167 263.5,167 276.322,160.589 303.849,182.198 309,192.5 311.742,197.983 308,202.917 308,208 308,208 304.5,207 304.5,207 299.319,209.59 285.557,229.386 283,234.5 281.922,236.656 277,238.473 277,242 277,242 277,243 277,243  Z"/>

<path  fill="#219764" stroke-width="0" stroke="#219764" d = " M147 182 L147,183 C145.093,183 137,185.843 137,181 137,177.782 144,175.598 144,172 144,172 148,172 148,172 148,176.283 147,178.715 147,182  Z"/>

<path  fill="#219764" stroke-width="0" stroke="#219764" d = " M319 181 C319,187.22 311.146,182 309,182 309,182 309,181 309,181 309,181 309,172 309,172 309,172 312,172 312,172 312,172 319,181 319,181  Z"/>

<path  fill="#99D2BD" stroke-width="0" stroke="#99D2BD" d = " M230 175 L231,176 C231,176 230,175 230,175  Z"/>

<path  fill="#209864" stroke-width="0" stroke="#209864" d = " M149 187 C149,188.477 145.076,190 144,190 139.971,190 132,189.62 132,184 132,184 136,181 136,181 136,181 137,181 137,181 137,185.843 145.093,183 147,183 147,183 149,187 149,187  Z"/>

<path  fill="#209864" stroke-width="0" stroke="#209864" d = " M307 187 L313,190 C316.875,190 325,188.345 325,184 323.592,184 320,182.803 320,181 320,181 319,181 319,181 319,187.22 311.146,182 309,182 309,182 307,187 307,187  Z"/>

<path  fill="#CBCBC7" stroke-width="0" stroke="#CBCBC7" d = " M180 192 C180,197.036 185.268,207.037 188,212.5 188.569,213.637 190.897,219.801 192.5,219 197.908,216.296 193.617,205.733 192,202.5 L193,194.5 C191.384,191.269 183.307,192 180,192  Z"/>

<path  fill="#CBCBC7" stroke-width="0" stroke="#CBCBC7" d = " M268 192 L263,194.5 C261.882,196.736 265.84,197.82 265,199.5 263.46,202.58 259.187,216.844 263.5,219 L267,216.5 C269.506,211.489 270.457,205.587 273,200.5 L278,193.5 C276.671,190.842 270.548,192 268,192  Z"/>

<path  fill="#CAC8C7" stroke-width="0" stroke="#CAC8C7" d = " M179 242 L178,243 C172.38,243 155.026,221.552 153,217.5 151.773,215.047 147,214.372 147,211 147,211 149,208 149,208 149,208 151.5,207 151.5,207 158.305,210.403 167.347,224.194 171,231.5 173.064,235.628 179,237.259 179,242  Z"/>

<path  fill="#CAC8C7" stroke-width="0" stroke="#CAC8C7" d = " M277 242 L278,243 C283.817,243 298.408,225.684 301,220.5 302.734,217.032 309,215.139 309,211 309,211 308,208 308,208 308,208 304.5,207 304.5,207 299.319,209.59 285.557,229.386 283,234.5 281.922,236.656 277,238.473 277,242  Z"/>

<path  fill="#62CF9E" stroke-width="0" stroke="#62CF9E" d = " M224 233 C224,239.882 217.569,253.466 210.5,257 207.184,258.658 193,252.22 193,251 193,241.479 203.415,229 213,229 213,231.066 224,230.934 224,233  Z"/>

<path  fill="#62CF9E" stroke-width="0" stroke="#62CF9E" d = " M232 233 C232,240.814 239.611,253.555 246.5,257 249.662,258.581 263,252.128 263,251 263,241.282 253.331,229 243,229 243,229.468 233.177,233 232,233  Z"/>

<path  fill="#99D2BD" stroke-width="0" stroke="#99D2BD" d = " M178 243 L179,243 C179,243 179,242 179,242 179,242 178,243 178,243  Z"/>

<path  fill="#99D2BD" stroke-width="0" stroke="#99D2BD" d = " M277 243 L278,243 C278,243 277,242 277,242 277,242 277,243 277,243  Z"/>

</g>
</svg>
