<svg xmlns="http://www.w3.org/2000/svg" xmlns:xlink="http://www.w3.org/1999/xlink"  viewBox="0 0 456 320">
<g>
<rect width="456" height="320" fill="#000000"  stroke-width="0" /> 
<path  fill="#9AD1BD" stroke-width="0" stroke="#9AD1BD" d = " M153 143 L153,145 C153,164.054 161.216,175.932 169,191.5 173.66,200.82 169.3,214.1 174,223.5 179.338,234.175 203.837,242.827 211,228.5 214.402,221.697 215.659,214.182 219,207.5 221.239,203.021 218.701,196.098 221,191.5 221,191.5 222,161.5 222,161.5 223.182,159.136 227.107,134.713 226,132.5 226,132.5 223,121.5 223,121.5 223,121.5 219,116 219,116 219,114.519 217,115.215 217,113 217,113 212,110 212,110 212,110 211,109 211,109 207.036,109 199.612,105.944 195.5,108 192.264,109.618 178.085,115 175,115 175,115 174,116 174,116 174,116 173,116 173,116 173,116 172,117 172,117 172,117 171,117 171,117 171,117 159,129.5 159,129.5 158.093,131.314 154.605,143 153,143  Z"/>

<path  fill="#9AD1BD" stroke-width="0" stroke="#9AD1BD" d = " M283 116 L285,117 C285,117 293,123.5 293,123.5 295.702,128.904 307.36,145.779 304,152.5 302.06,156.38 302.922,161.657 301,165.5 295.837,175.826 291.099,186.301 286,196.5 282.688,203.124 286.617,214.266 281,225.5 278.708,230.084 273.09,231.205 269.5,233 255.843,239.829 247.046,232.593 241,220.5 236.006,210.513 239.95,196.399 235,186.5 232.124,180.747 236.933,171.366 234,165.5 234,165.5 233,150.5 233,150.5 231.116,146.732 228.656,133.188 231,128.5 232.392,125.716 237,118.906 237,116 238.577,116 239,114.238 239,113 239,113 240,113 240,113 240,113 241,111 241,111 241,111 245,109 245,109 245,109 260.5,108 260.5,108 263.818,109.659 268.04,111 272,111 272,111 273,112 273,112 273,112 281,115 281,115 281,115 282,116 282,116 282,116 283,116 283,116  Z"/>

<path  fill="#99D2BD" stroke-width="0" stroke="#99D2BD" d = " M212 109 L212,110 C212,110 211,109 211,109 211,109 212,109 212,109  Z"/>

<path  fill="#C7CBCA" stroke-width="0" stroke="#C7CBCA" d = " M217 112 L217,113 C217,113 212,110 212,110 212,110 212,109 212,109 212,109 216,111 216,111 216,111 217,112 217,112  Z"/>

<path  fill="#C7CBCA" stroke-width="0" stroke="#C7CBCA" d = " M245 109 C243.535,109 241,108.891 241,111 241,111 245,109 245,109  Z"/>

<path  fill="#99D2BD" stroke-width="0" stroke="#99D2BD" d = " M216 111 L217,112 C217,112 216,111 216,111  Z"/>

<path  fill="#C7CBCA" stroke-width="0" stroke="#C7CBCA" d = " M240 112 L240,113 C240,113 241,111 241,111 241,111 240,112 240,112  Z"/>

<path  fill="#99D2BD" stroke-width="0" stroke="#99D2BD" d = " M272 111 L273,112 C273,112 272,111 272,111  Z"/>

<path  fill="#99D2BD" stroke-width="0" stroke="#99D2BD" d = " M239 113 L240,113 C240,113 240,112 240,112 240,112 239,113 239,113  Z"/>

<path  fill="#99D2BD" stroke-width="0" stroke="#99D2BD" d = " M219 116 L222,117 C222,115.571 218.061,113 217,113 217,115.215 219,114.519 219,116  Z"/>

<path  fill="#99D2BD" stroke-width="0" stroke="#99D2BD" d = " M235 116 L237,116 C238.577,116 239,114.238 239,113 239,113 235,116 235,116  Z"/>

<path  fill="#99D2BD" stroke-width="0" stroke="#99D2BD" d = " M175 115 L174,116 C174,116 175,115 175,115  Z"/>

<path  fill="#99D2BD" stroke-width="0" stroke="#99D2BD" d = " M281 115 L282,116 C282,116 281,115 281,115  Z"/>

<path  fill="#99D2BD" stroke-width="0" stroke="#99D2BD" d = " M173 116 L172,117 C172,117 173,116 173,116  Z"/>

<path  fill-rule="evenodd" fill="#C7CBCA" stroke-width="0" stroke="#C7CBCA" d = " M228 180 L228.5,193 C229.053,193 229.916,180 228,180  M157 221 L158,222 C158,224.561 170.347,239.424 173.5,241 173.5,241 182.5,243 182.5,243 185.713,244.606 204.422,251.539 207.5,250 219.884,243.808 227,233.135 227,218 227,218 228,217 228,217 228,217 228.5,210 228.5,210 228.5,210 229,224.5 229,224.5 233.195,232.89 235.481,243.991 245.5,249 250.418,251.459 256.244,249.128 260.5,247 260.5,247 265.5,247 265.5,247 275.811,241.845 286.958,241.585 293,229.5 294.922,225.657 299,224.736 299,220 299,220 300,219 300,219 300,209.647 300.684,193.131 305,184.5 305.662,183.176 305.353,176 307,176 307,176 307,162 307,162 307,162 307,157 307,157 305.421,157 306,154.145 306,153 306,153 306,152 306,152 304.527,152 305,150.048 305,149 305,149 305,147 305,147 303.357,147 304,143.235 304,142 304,142 304,141 304,141 302.527,141 303,139.048 303,138 303,138 303,136 303,136 303,136 302,134 302,134 302,134 302,133 302,133 302,133 301,132 301,132 301,132 301,131 301,131 301,131 300,130 300,130 300,130 299,128 299,128 299,128 297,126 297,126 297,122.487 287.729,117 285,117 285,117 293,123.5 293,123.5 295.702,128.904 307.36,145.779 304,152.5 302.06,156.38 302.922,161.657 301,165.5 295.837,175.826 291.099,186.301 286,196.5 282.688,203.124 286.617,214.266 281,225.5 278.708,230.084 273.09,231.205 269.5,233 255.843,239.829 247.046,232.593 241,220.5 236.006,210.513 239.95,196.399 235,186.5 232.124,180.747 236.933,171.366 234,165.5 234,165.5 233,150.5 233,150.5 231.116,146.732 228.656,133.188 231,128.5 232.392,125.716 237,118.906 237,116 237,116 235,116 235,116 235,116 229,124.5 229,124.5 229,124.5 228.5,140 228.5,140 228.5,140 228,133.5 228,133.5 228,130.245 226.241,117 222,117 222,117 219,116 219,116 219,116 223,121.5 223,121.5 223,121.5 226,132.5 226,132.5 227.107,134.713 223.182,159.136 222,161.5 222,161.5 221,191.5 221,191.5 218.701,196.098 221.239,203.021 219,207.5 215.659,214.182 214.402,221.697 211,228.5 203.837,242.827 179.338,234.175 174,223.5 169.3,214.1 173.66,200.82 169,191.5 161.216,175.932 153,164.054 153,145 153,145 151,148 151,148 151,148 151,151 151,151 151,152.145 151.579,155 150,155 150,155 150,156 150,156 150,157.235 150.643,161 149,161 149,161 149,173 149,173 150.799,173 150.248,181.997 151,183.5 155.329,192.157 157,209.496 157,220 157,220 157,221 157,221  Z"/>

<path  fill="#99D2BD" stroke-width="0" stroke="#99D2BD" d = " M283 116 L285,117 C285,117 283,116 283,116  Z"/>

<path  fill="#C7CBCA" stroke-width="0" stroke="#C7CBCA" d = " M153 140 L153,143 C154.605,143 158.093,131.314 159,129.5 159,129.5 171,117 171,117 168.552,117 161,122.205 161,124 161,124 160,125 160,125 160,125 159,126 159,126 159,126 158,128 158,128 158,128 157,129 157,129 157,129 156,130 156,130 156,130 155,133 155,133 155,133 154,135 154,135 154,135 153,137 153,137 153,137 153,140 153,140  Z"/>

<path  fill="#99D2BD" stroke-width="0" stroke="#99D2BD" d = " M161 124 L160,125 C160,125 161,124 161,124  Z"/>

<path  fill="#99D2BD" stroke-width="0" stroke="#99D2BD" d = " M160 125 L159,126 C159,126 160,125 160,125  Z"/>

<path  fill="#99D2BD" stroke-width="0" stroke="#99D2BD" d = " M297 126 L299,128 C299,128 297,126 297,126  Z"/>

<path  fill="#99D2BD" stroke-width="0" stroke="#99D2BD" d = " M158 128 L157,129 C157,129 158,128 158,128  Z"/>

<path  fill="#99D2BD" stroke-width="0" stroke="#99D2BD" d = " M157 129 L156,130 C156,130 157,129 157,129  Z"/>

<path  fill="#99D2BD" stroke-width="0" stroke="#99D2BD" d = " M300 130 L301,131 C301,131 300,130 300,130  Z"/>

<path  fill="#99D2BD" stroke-width="0" stroke="#99D2BD" d = " M301 132 L302,133 C302,133 301,132 301,132  Z"/>

<path  fill="#99D2BD" stroke-width="0" stroke="#99D2BD" d = " M155 133 L154,135 C154,135 155,133 155,133  Z"/>

<path  fill="#99D2BD" stroke-width="0" stroke="#99D2BD" d = " M302 134 L303,136 C303,136 302,134 302,134  Z"/>

<path  fill="#99D2BD" stroke-width="0" stroke="#99D2BD" d = " M154 135 L153,137 C153,137 154,135 154,135  Z"/>

<path  fill="#99D2BD" stroke-width="0" stroke="#99D2BD" d = " M303 138 C304.473,138 304,139.952 304,141 302.527,141 303,139.048 303,138  Z"/>

<path  fill="#99D2BD" stroke-width="0" stroke="#99D2BD" d = " M153 145 L151,148 C151,146.448 151.566,140 153,140 153,140 153,143 153,143 153,143 153,145 153,145  Z"/>

<path  fill="#99D2BD" stroke-width="0" stroke="#99D2BD" d = " M304 142 C305.643,142 305,145.765 305,147 303.357,147 304,143.235 304,142  Z"/>

<path  fill="#99D2BD" stroke-width="0" stroke="#99D2BD" d = " M305 149 C306.473,149 306,150.952 306,152 304.527,152 305,150.048 305,149  Z"/>

<path  fill="#99D2BD" stroke-width="0" stroke="#99D2BD" d = " M151 151 C149.421,151 150,153.855 150,155 151.579,155 151,152.145 151,151  Z"/>

<path  fill="#99D2BD" stroke-width="0" stroke="#99D2BD" d = " M306 153 C307.579,153 307,155.855 307,157 305.421,157 306,154.145 306,153  Z"/>

<path  fill="#99D2BD" stroke-width="0" stroke="#99D2BD" d = " M150 156 C148.357,156 149,159.765 149,161 150.643,161 150,157.235 150,156  Z"/>

<path  fill="#99D2BD" stroke-width="0" stroke="#99D2BD" d = " M307 162 C308.644,162 308.644,176 307,176 307,176 307,162 307,162  Z"/>

<path  fill="#99D2BD" stroke-width="0" stroke="#99D2BD" d = " M149 173 C150.799,173 150.248,181.997 151,183.5 155.329,192.157 157,209.496 157,220 155.004,220 152.778,213.055 152,211.5 152,211.5 149,208.5 149,208.5 146.507,203.514 149,180.519 149,173  Z"/>

<path  fill="#99D2BD" stroke-width="0" stroke="#99D2BD" d = " M307 176 C305.353,176 305.662,183.176 305,184.5 300.684,193.131 300,209.647 300,219 301.816,219 302.392,214.716 303,213.5 303,213.5 307,209.5 307,209.5 311.364,200.771 307,185.426 307,176  Z"/>

<path  fill="#99D2BD" stroke-width="0" stroke="#99D2BD" d = " M228 217 L227,218 C227,218 228,217 228,217  Z"/>

<path  fill="#99D2BD" stroke-width="0" stroke="#99D2BD" d = " M300 219 L299,220 C299,220 300,219 300,219  Z"/>

<path  fill="#99D2BD" stroke-width="0" stroke="#99D2BD" d = " M157 221 L158,222 C158,222 157,221 157,221  Z"/>

</g>
</svg>
