<svg xmlns="http://www.w3.org/2000/svg" xmlns:xlink="http://www.w3.org/1999/xlink"  viewBox="0 0 456 320">
<g>
<rect width="456" height="320" fill="#000000"  stroke-width="0" /> 
<path  fill="#1E9C59" stroke-width="0" stroke="#1E9C59" d = " M222 53 L223,53 C223,53 227,50 227,50 227,50 220,41.5 220,41.5 209.208,30.7084 202.909,34 188,34 188,34 188,39 188,39 198.124,39 222,36.226 222,53  Z"/>

<path  fill="#1E9C59" stroke-width="0" stroke="#1E9C59" d = " M229 50 L234,52 C234,52 235.5,49 235.5,49 235.5,49 243.5,41 243.5,41 251.59,36.9548 259.272,39 268,39 268,36.7453 268,36.2547 268,34 256.106,34 241.655,30.1909 235,43.5 235,43.5 229,50 229,50  Z"/>

<path  fill="#1E9D5A" stroke-width="0" stroke="#1E9D5A" d = " M142 49 L142,50 C146.995,50 153.213,47.1436 157.5,45 159.911,43.7943 184.61,39 188,39 188,39 188,34 188,34 176.902,34 162.894,36.3029 153.5,41 151.867,41.8167 143,41.9202 143,44 143,44 142,49 142,49  Z"/>

<path  fill="#1E9D5A" stroke-width="0" stroke="#1E9D5A" d = " M315 49 L315,50 C309.806,50 302.977,47.2383 298.5,45 296.664,44.082 270.9,39 268,39 268,36.7453 268,36.2547 268,34 279.435,34 293.834,36.1669 303.5,41 304.915,41.7075 314,42.622 314,44 314,45.2345 313.357,49 315,49  Z"/>

<path  fill="#1E9D58" stroke-width="0" stroke="#1E9D58" d = " M222 53 L216,56 C215.23,56 210.332,49.9162 208.5,49 201.754,45.6268 193.515,51 187,51 187,51 188,39 188,39 198.124,39 222,36.226 222,53  Z"/>

<path  fill="#1E9D58" stroke-width="0" stroke="#1E9D58" d = " M234 53 L240,56 C240,56 247.5,49 247.5,49 254.596,45.4519 263.113,51 270,51 270,51 268,39 268,39 259.272,39 251.59,36.9548 243.5,41 243.5,41 235.5,49 235.5,49 235.5,49 234,52 234,52 234,52 234,53 234,53  Z"/>

<path  fill="#1F9C58" stroke-width="0" stroke="#1F9C58" d = " M141 67 L141,73 C151.998,73 174.675,52 186,52 186,52 187,51 187,51 187,51 188,39 188,39 184.61,39 159.911,43.7943 157.5,45 153.213,47.1436 146.995,50 142,50 142,50 142,51 142,51 142,55.7338 141,61.6442 141,67  Z"/>

<path  fill="#1F9C58" stroke-width="0" stroke="#1F9C58" d = " M316 67 C314.316,67 315,71.6792 315,73 302.993,73 282.953,52 270,52 270,52 270,51 270,51 270,51 268,39 268,39 270.9,39 296.664,44.082 298.5,45 302.977,47.2383 309.806,50 315,50 315,50 315,51 315,51 315,56.4792 316,62.0753 316,67  Z"/>

<path  fill="#187F60" stroke-width="0" stroke="#187F60" d = " M140 45 L142,49 C142,49 143,44 143,44 141.952,44 140,43.5271 140,45  Z"/>

<path  fill="#187F60" stroke-width="0" stroke="#187F60" d = " M316 45 L315,49 C313.357,49 314,45.2345 314,44 314,44 316,45 316,45  Z"/>

<path  fill="#197E64" stroke-width="0" stroke="#197E64" d = " M104 69 L105,69 C105,66.732 110.956,64.7718 112.5,64 121.057,59.7214 131.984,51 142,51 142,51 142,50 142,50 142,50 142,49 142,49 142,49 140,45 140,45 132.371,45 121.166,51.6668 114.5,55 114.5,55 102,63 102,63 102,65.3305 104,66.2266 104,69  Z"/>

<path  fill="#197E64" stroke-width="0" stroke="#197E64" d = " M354 63 C354,64.0411 353.014,68 352,68 345.24,68 324.788,51 315,51 315,51 315,50 315,50 315,50 315,49 315,49 315,49 316,45 316,45 324.207,45 335.417,51.4585 342.5,55 342.5,55 354,63 354,63  Z"/>

<path  fill="#1F9D58" stroke-width="0" stroke="#1F9D58" d = " M203 68 L199.5,66 C192.562,62.5309 189.033,69 183,69 183,69 186,52 186,52 186,52 187,51 187,51 193.515,51 201.754,45.6268 208.5,49 210.332,49.9162 215.23,56 216,56 216,56 216,57 216,57 211.484,57 205.175,68 203,68  Z"/>

<path  fill="#1F9D58" stroke-width="0" stroke="#1F9D58" d = " M253 68 C256.172,68 259.873,62.6867 264.5,65 L274,70 C274,70 270,52 270,52 270,52 270,51 270,51 263.113,51 254.596,45.4519 247.5,49 247.5,49 240,56 240,56 240,56 240,57 240,57 242.285,57 253,65.2522 253,68  Z"/>

<path  fill="#3EA665" stroke-width="0" stroke="#3EA665" d = " M233 78 C229.675,78 225.69,79 223,79 223,79 223,53 223,53 223,53 227,50 227,50 227,51.9188 229,52.4882 229,50 229,50 234,52 234,52 234,52 234,53 234,53 234,53 233,78 233,78  Z"/>

<path  fill="#197F61" stroke-width="0" stroke="#197F61" d = " M110 80 L111,80 C111,77.51 137.118,67 141,67 141,61.6442 142,55.7338 142,51 131.984,51 121.057,59.7214 112.5,64 110.956,64.7718 105,66.732 105,69 105,69 110,80 110,80  Z"/>

<path  fill="#197F61" stroke-width="0" stroke="#197F61" d = " M352 69 L346,80 C344.339,80 322.589,67 316,67 316,62.0753 315,56.4792 315,51 324.788,51 345.24,68 352,68 352,68 352,69 352,69  Z"/>

<path  fill="#1E9C5A" stroke-width="0" stroke="#1E9C5A" d = " M141 74 L141,89 C149.157,89 179.551,70 183,70 183,70 183,69 183,69 183,69 186,52 186,52 174.675,52 151.998,73 141,73 141,73 141,74 141,74  Z"/>

<path  fill="#1E9C5A" stroke-width="0" stroke="#1E9C5A" d = " M315 74 C315,79.0981 315,83.0548 315,88 304.284,88 280.147,71 274,71 274,71 274,70 274,70 274,70 270,52 270,52 282.953,52 302.993,73 315,73 315,73 315,74 315,74  Z"/>

<path  fill="#40A565" stroke-width="0" stroke="#40A565" d = " M223 79 C220.876,79 218.564,80 217,80 217,80 217,62.5 217,62.5 217,61.2221 217.665,57 216,57 216,57 216,56 216,56 216,56 222,53 222,53 222,53 223,53 223,53 223,53 223,79 223,79  Z"/>

<path  fill="#40A565" stroke-width="0" stroke="#40A565" d = " M233 79 L239,79 C239,71.7074 240,63.641 240,57 240,57 240,56 240,56 240,56 234,53 234,53 234,53 233,78 233,78 233,78 233,79 233,79  Z"/>

<path  fill="#3EA566" stroke-width="0" stroke="#3EA566" d = " M217 80 L205,86 C205,82.0385 204,77.3116 204,74 204,72.7655 204.643,69 203,69 203,69 203,68 203,68 205.175,68 211.484,57 216,57 217.665,57 217,61.2221 217,62.5 217,62.5 217,80 217,80  Z"/>

<path  fill="#3EA566" stroke-width="0" stroke="#3EA566" d = " M239 80 L251,85 C251,85 253,69 253,69 253,69 253,68 253,68 253,65.2522 242.285,57 240,57 240,63.641 239,71.7074 239,79 239,79 239,80 239,80  Z"/>

<path  fill="#1B8062" stroke-width="0" stroke="#1B8062" d = " M104 69 L102,70 C99.334,70 99.5178,67 97,67 97,65.4666 100.753,63 102,63 102,65.3305 104,66.2266 104,69  Z"/>

<path  fill="#1B8062" stroke-width="0" stroke="#1B8062" d = " M354 71 L355,71 C355,68.2677 359,68.741 359,66 359,66 354,63 354,63 354,64.0411 353.014,68 352,68 352,68 352,69 352,69 352,69 354,71 354,71  Z"/>

<path  fill="#1D9C5A" stroke-width="0" stroke="#1D9C5A" d = " M181 92 L182,92 C184.675,92 187.922,89 191,89 191,86.4845 200.519,69 203,69 203,69 203,68 203,68 203,68 199.5,66 199.5,66 192.562,62.5309 189.033,69 183,69 183,69 183,70 183,70 183,77.0144 181,85.4296 181,92  Z"/>

<path  fill="#1D9C5A" stroke-width="0" stroke="#1D9C5A" d = " M265 89 C268.679,89 271.731,92 275,92 275,84.9477 274,77.4449 274,71 274,71 274,70 274,70 274,70 264.5,65 264.5,65 259.873,62.6867 256.172,68 253,68 253,68 253,69 253,69 256,69 265,85.4427 265,89  Z"/>

<path  fill="#187E61" stroke-width="0" stroke="#187E61" d = " M398 133 L399,133 C399,133 403,131 403,131 403,116.932 386.108,83.8038 372.5,77 369.35,75.425 362.134,66 359,66 359,68.741 355,68.2677 355,71 357.904,71 369.278,81.7776 372,84.5 382.063,94.5627 398,117.861 398,133  Z"/>

<path  fill="#187E61" stroke-width="0" stroke="#187E61" d = " M53 131 L58,133 C58,120.222 71.4708,102.558 77,91.5 77,91.5 83,86.5 83,86.5 85.0868,82.3264 98.4272,71 102,71 102,71 102,70 102,70 99.334,70 99.5178,67 97,67 91.8032,67 84.2648,76.2352 80.5,80 69.2012,91.2988 53,115.789 53,131  Z"/>

<path  fill="#1A7F63" stroke-width="0" stroke="#1A7F63" d = " M114 88 L115,88 C115,86.184 119.284,85.6078 120.5,85 126.33,82.0852 134.317,74 141,74 141,74 141,73 141,73 141,73 141,67 141,67 137.118,67 111,77.51 111,80 111,80 111,83 111,83 112.803,83 114,86.5918 114,88  Z"/>

<path  fill="#1A7F63" stroke-width="0" stroke="#1A7F63" d = " M345 84 L342,87 C332.351,87 324.75,74 315,74 315,74 315,73 315,73 315,71.6792 314.316,67 316,67 322.589,67 344.339,80 346,80 346,80 346,81 346,81 344.527,81 345,82.9521 345,84  Z"/>

<path  fill="#1C7F63" stroke-width="0" stroke="#1C7F63" d = " M110 80 L109,81 C109,79.7719 103.103,71 102,71 102,71 102,70 102,70 102,70 104,69 104,69 104,69 105,69 105,69 105,69 110,80 110,80  Z"/>

<path  fill="#3FA664" stroke-width="0" stroke="#3FA664" d = " M191 90 C193.813,90 194.461,94 196,94 199.978,94 200.851,87 205,87 205,87 205,86 205,86 205,82.0385 204,77.3116 204,74 204,72.7655 204.643,69 203,69 200.519,69 191,86.4845 191,89 191,89 191,90 191,90  Z"/>

<path  fill="#3FA664" stroke-width="0" stroke="#3FA664" d = " M260 95 L261,95 C261,92.6871 262.452,90 265,90 265,90 265,89 265,89 265,85.4427 256,69 253,69 253,69 251,85 251,85 251,85 251,86 251,86 251,86 260,95 260,95  Z"/>

<path  fill="#1C7F63" stroke-width="0" stroke="#1C7F63" d = " M347 81 L348,81 C348,79.3019 352.773,71 354,71 354,71 352,69 352,69 352,69 346,80 346,80 346,80 346,81 346,81 346,81 347,81 347,81  Z"/>

<path  fill="#1F9B5A" stroke-width="0" stroke="#1F9B5A" d = " M147 107 C144.517,107 142.974,109 141,109 141,109 141,89 141,89 149.157,89 179.551,70 183,70 183,77.0144 181,85.4296 181,92 181,92 175,95 175,95 173.15,95 166,96.7839 166,99 164.576,99 161,99.3616 161,101 159.576,101 156,101.362 156,103 154.576,103 151,103.362 151,105 151,105 147,107 147,107  Z"/>

<path  fill="#1A7E64" stroke-width="0" stroke="#1A7E64" d = " M67 138 L68,138 C68,123.772 81.8199,97.34 94.5,91 99.0238,88.7381 103.798,81 109,81 109,79.7719 103.103,71 102,71 98.4272,71 85.0868,82.3264 83,86.5 83,86.5 77,91.5 77,91.5 71.4708,102.558 58,120.222 58,133 58.9078,133 61.974,136.237 63.5,137 64.5456,137.523 67,136.049 67,138  Z"/>

<path  fill="#1F9B5A" stroke-width="0" stroke="#1F9B5A" d = " M275 93 C285.065,93 308.708,109 315,109 315,101.536 315,95.899 315,89 315,89 315,88 315,88 304.284,88 280.147,71 274,71 274,77.4449 275,84.9477 275,92 275,92 275,93 275,93  Z"/>

<path  fill="#1A7E64" stroke-width="0" stroke="#1A7E64" d = " M398 133 C398,135.467 391.097,137 389,137 389,125.085 372.927,96.7137 361.5,91 358.262,89.3811 352.543,81 348,81 348,79.3019 352.773,71 354,71 354,71 355,71 355,71 357.904,71 369.278,81.7776 372,84.5 382.063,94.5627 398,117.861 398,133  Z"/>

<path  fill="#187E62" stroke-width="0" stroke="#187E62" d = " M141 89 C133.834,89 127.659,98 121,98 121,95.7375 115,92.4205 115,88 115,86.184 119.284,85.6078 120.5,85 126.33,82.0852 134.317,74 141,74 141,74 141,89 141,89  Z"/>

<path  fill="#187E62" stroke-width="0" stroke="#187E62" d = " M335 98 L336,98 C336,96.4032 341.423,88 342,88 342,88 342,87 342,87 332.351,87 324.75,74 315,74 315,79.0981 315,83.0548 315,88 315,88 315,89 315,89 321.471,89 330.382,98 335,98  Z"/>

<path  fill="#40A664" stroke-width="0" stroke="#40A664" d = " M229 105 C231.832,105 231.953,110 234,110 234,100.065 233,89.4866 233,79 233,79 233,78 233,78 229.675,78 225.69,79 223,79 223,89.7421 222,100.854 222,111 222,111 227,105 227,105 227,102.436 229,102.436 229,105  Z"/>

<path  fill="#3FA566" stroke-width="0" stroke="#3FA566" d = " M221 113 L218,114 C218,102.667 217,90.6995 217,80 218.564,80 220.876,79 223,79 223,89.7421 222,100.854 222,111 222,111 221,113 221,113  Z"/>

<path  fill="#3FA566" stroke-width="0" stroke="#3FA566" d = " M235 112 L238,114 C238,103.373 239,91.2831 239,80 239,80 239,79 239,79 239,79 233,79 233,79 233,89.4866 234,100.065 234,110 234,110 235,112 235,112  Z"/>

<path  fill="#197E61" stroke-width="0" stroke="#197E61" d = " M109 81 L111,83 C111,83 111,80 111,80 111,80 110,80 110,80 110,80 109,81 109,81  Z"/>

<path  fill="#3EA666" stroke-width="0" stroke="#3EA666" d = " M209 110 C209,111.653 216.372,114 218,114 218,102.667 217,90.6995 217,80 217,80 205,86 205,86 205,86 205,87 205,87 205,95.3732 209,102.4 209,110  Z"/>

<path  fill="#3EA666" stroke-width="0" stroke="#3EA666" d = " M247 110 C247,111.817 239.831,114 238,114 238,103.373 239,91.2831 239,80 239,80 251,85 251,85 251,85 251,86 251,86 251,86 250,101.5 250,101.5 250,101.5 247,110 247,110  Z"/>

<path  fill="#1B7F62" stroke-width="0" stroke="#1B7F62" d = " M68 138 L73,140 C73,130.311 93.7482,99.8759 103.5,95 103.5,95 114,88 114,88 114,86.5918 112.803,83 111,83 111,83 109,81 109,81 103.798,81 99.0238,88.7381 94.5,91 81.8199,97.34 68,123.772 68,138  Z"/>

<path  fill="#197E61" stroke-width="0" stroke="#197E61" d = " M347 81 C347,82.2383 346.577,84 345,84 345,82.9521 344.527,81 346,81 346,81 347,81 347,81  Z"/>

<path  fill="#1B7F62" stroke-width="0" stroke="#1B7F62" d = " M383 140 L384,140 C384,140 389,138 389,138 389,138 389,137 389,137 389,125.085 372.927,96.7137 361.5,91 358.262,89.3811 352.543,81 348,81 348,81 347,81 347,81 347,82.2383 346.577,84 345,84 345,84 342,87 342,87 342,87 342,88 342,88 345.261,88 348.673,92.5865 351.5,94 362.473,99.4865 383,128.193 383,140  Z"/>

<path  fill="#40A564" stroke-width="0" stroke="#40A564" d = " M247 110 L248,110 C248,110 250,108 250,108 250,108 251,107 251,107 251,105.842 257.162,99 259,99 259,99 260,95 260,95 260,95 251,86 251,86 251,86 250,101.5 250,101.5 250,101.5 247,110 247,110  Z"/>

<path  fill="#40A564" stroke-width="0" stroke="#40A564" d = " M208 110 L209,110 C209,102.4 205,95.3732 205,87 200.851,87 199.978,94 196,94 196,94 196,95 196,95 196,95 199,100.5 199,100.5 200.64,103.78 206,104.433 206,108 206,108 208,110 208,110  Z"/>

<path  fill="#1B7E63" stroke-width="0" stroke="#1B7E63" d = " M73 141 L84,146 C84,133.437 94.8007,112.85 106.5,107 111.496,104.502 115.067,98 121,98 121,95.7375 115,92.4205 115,88 115,88 114,88 114,88 114,88 103.5,95 103.5,95 93.7482,99.8759 73,130.311 73,140 73,140 73,141 73,141  Z"/>

<path  fill="#1B7E63" stroke-width="0" stroke="#1B7E63" d = " M383 140 C383,141.881 374.788,145 373,145 370.995,145 369.898,133.296 369,131.5 369,131.5 361,116.5 361,116.5 358.125,110.749 347.64,103.57 342.5,101 342.5,101 336,98 336,98 336,96.4032 341.423,88 342,88 345.261,88 348.673,92.5865 351.5,94 362.473,99.4865 383,128.193 383,140  Z"/>

<path  fill="#197D61" stroke-width="0" stroke="#197D61" d = " M131 113 L133,113 C133,110.891 135.535,111 137,111 137,111 141,109 141,109 141,109 141,89 141,89 133.834,89 127.659,98 121,98 121,100.469 126.134,107.634 128,109.5 128,109.5 131,113 131,113  Z"/>

<path  fill="#1E9C58" stroke-width="0" stroke="#1E9C58" d = " M182 92 L182,93 C185.071,93 187.362,91 191,91 191,91 191,90 191,90 191,90 191,89 191,89 187.922,89 184.675,92 182,92  Z"/>

<path  fill="#1E9C58" stroke-width="0" stroke="#1E9C58" d = " M275 92 L275,93 C271.422,93 269.113,91 265,91 265,91 265,90 265,90 265,90 265,89 265,89 268.679,89 271.731,92 275,92  Z"/>

<path  fill="#197D61" stroke-width="0" stroke="#197D61" d = " M315 109 L326,113 C326,113 328,109.5 328,109.5 329.681,106.138 335,101.865 335,98 330.382,98 321.471,89 315,89 315,95.899 315,101.536 315,109  Z"/>

<path  fill="#3FA466" stroke-width="0" stroke="#3FA466" d = " M195 95 L196,95 C196,95 196,94 196,94 194.461,94 193.813,90 191,90 191,90 191,91 191,91 193.879,91 192.993,95 195,95  Z"/>

<path  fill="#3FA466" stroke-width="0" stroke="#3FA466" d = " M265 91 L261,95 C261,92.6871 262.452,90 265,90 265,90 265,91 265,91  Z"/>

<path  fill="#CACCC7" stroke-width="0" stroke="#CACCC7" d = " M206 108 L208,110 C198.479,110 193.996,98.7481 186.5,95 183.162,93.3312 172.472,101 169,101 169,101 167,102 167,102 167,102 161,102 161,102 161,102 161,101 161,101 162.622,101 166,101.461 166,99 167.85,99 175,97.2161 175,95 176.774,95 182,95.2734 182,93 185.071,93 187.362,91 191,91 193.879,91 192.993,95 195,95 195,98.5691 201.914,108 206,108  Z"/>

<path  fill="#CACCC7" stroke-width="0" stroke="#CACCC7" d = " M250 108 L248,110 C257.543,110 262.205,98.6475 269.5,95 274.444,92.5282 283.106,101 288,101 288,101 295,102 295,102 295,101.316 275,93.5409 275,93 271.422,93 269.113,91 265,91 265,91 261,95 261,95 261,96.4655 261.109,99 259,99 259,101.664 253.664,107 251,107 251,107 250,108 250,108  Z"/>

<path  fill="#1D9D5A" stroke-width="0" stroke="#1D9D5A" d = " M182 93 C182,95.2734 176.774,95 175,95 175,95 181,92 181,92 181,92 182,92 182,92 182,92 182,93 182,93  Z"/>

<path  fill="#1D9D5A" stroke-width="0" stroke="#1D9D5A" d = " M315 109 L316,111 C311.858,111 301.049,102 295,102 295,101.316 275,93.5409 275,93 285.065,93 308.708,109 315,109  Z"/>

<path  fill="#1D9D5A" stroke-width="0" stroke="#1D9D5A" d = " M175 95 C173.15,95 166,96.7839 166,99 167.85,99 175,97.2161 175,95  Z"/>

<path  fill="#C9C7C9" stroke-width="0" stroke="#C9C7C9" d = " M359 162 L359,165 C356.969,165 354.883,155.267 354,153.5 350.401,146.302 340.262,128.881 332.5,125 307.279,112.39 303.07,111 274,111 274,108.598 263,111.705 263,115 263,115 261,116 261,116 261,116 259,117 259,117 259,117 258,118 258,118 258,118 257,119 257,119 257,119 254,120 254,120 254,120 253,121 253,121 253,121 251,123 251,123 248.093,123 235,124.892 235,128 235,128 232,128 232,128 232,128 230,128 230,128 230,125.289 226,126.491 226,128 226,128 225,128 225,128 225,128 222,128 222,128 219.48,128 211.795,123 206,123 206,123 202,120 202,120 202,120 201,119 201,119 201,119 200,119 200,119 200,116.219 188.788,111.144 186.5,110 185.555,109.528 183,109.844 183,111 178.517,111 169.208,107.646 164.5,110 160.093,112.203 153.861,110.82 149.5,113 140.977,117.262 132.138,120.681 123.5,125 117.795,127.853 108.92,141.66 106,147.5 106,147.5 101,156 101,156 101,156 101,153 101,153 101,153 103,149 103,149 103,149 103,148 103,148 104.577,148 105,146.238 105,145 105,145 105,144 105,144 106.577,144 107,142.238 107,141 107,141 109,137 109,137 110.811,137 113,133.562 113,132 114.811,132 117,128.562 117,127 118.747,127 119,126.747 119,125 120.747,125 121,124.747 121,123 121.161,123 145.853,110.323 148.5,109 150.912,107.794 167,103.564 167,102 167,102 169,101 169,101 172.472,101 183.162,93.3312 186.5,95 193.996,98.7481 198.479,110 208,110 208,110 209,110 209,110 209,111.653 216.372,114 218,114 218,114 221,113 221,113 221,117.03 227.985,113 228.5,113 228.5,113 229.5,115 229.5,115 231.404,115.952 235,113.643 235,112 235,112 238,114 238,114 239.831,114 247,111.817 247,110 247,110 248,110 248,110 257.543,110 262.205,98.6475 269.5,95 274.444,92.5282 283.106,101 288,101 288,103.192 295.001,104.251 296.5,105 304.778,109.139 314.232,110.866 322.5,115 329.743,118.621 341.05,126.601 345,134.5 345.791,136.082 348.942,143 351,143 351,143 351,144 351,144 351,145.238 351.423,147 353,147 353,147 353,148 353,148 353,148 355,152 355,152 355,152 355,153 355,153 355,153 357,157 357,157 357,157 358,161 358,161 358,161 359,162 359,162  Z"/>

<path  fill="#40A465" stroke-width="0" stroke="#40A465" d = " M196 95 L199,100.5 C200.64,103.78 206,104.433 206,108 201.914,108 195,98.5691 195,95 195,95 196,95 196,95  Z"/>

<path  fill="#40A465" stroke-width="0" stroke="#40A465" d = " M261 95 C261,96.4655 261.109,99 259,99 259,99 260,95 260,95 260,95 261,95 261,95  Z"/>

<path  fill="#187D61" stroke-width="0" stroke="#187D61" d = " M84 146 C89.1815,146 93.6777,152 99,152 99,148.233 113.415,125 117,125 117,123.253 117.253,123 119,123 119,121.253 119.253,121 121,121 121,118.432 124.478,117 127,117 127,115.288 129.571,114 131,114 131,114 131,113 131,113 131,113 128,109.5 128,109.5 126.134,107.634 121,100.469 121,98 115.067,98 111.496,104.502 106.5,107 94.8007,112.85 84,133.437 84,146  Z"/>

<path  fill="#187D61" stroke-width="0" stroke="#187D61" d = " M373 146 C367.315,146 362.874,152 357,152 357,144.221 334.679,114 326,114 326,114 326,113 326,113 326,113 328,109.5 328,109.5 329.681,106.138 335,101.865 335,98 335,98 336,98 336,98 336,98 342.5,101 342.5,101 347.64,103.57 358.125,110.749 361,116.5 361,116.5 369,131.5 369,131.5 369.898,133.296 370.995,145 373,145 373,145 373,146 373,146  Z"/>

<path  fill="#1D9D5A" stroke-width="0" stroke="#1D9D5A" d = " M166 99 C164.576,99 161,99.3616 161,101 162.622,101 166,101.461 166,99  Z"/>

<path  fill="#40A465" stroke-width="0" stroke="#40A465" d = " M259 99 C257.162,99 251,105.842 251,107 253.664,107 259,101.664 259,99  Z"/>

<path  fill="#1D9D5A" stroke-width="0" stroke="#1D9D5A" d = " M161 102 L156,103 C156,101.362 159.576,101 161,101 161,101 161,102 161,102  Z"/>

<path  fill="#C9C9CA" stroke-width="0" stroke="#C9C9CA" d = " M169 101 L167,102 C167,102 169,101 169,101  Z"/>

<path  fill="#C9C9CA" stroke-width="0" stroke="#C9C9CA" d = " M325 114 C325,117.726 331.892,117.283 333,119.5 336.005,125.51 351,135.262 351,143 348.942,143 345.791,136.082 345,134.5 341.05,126.601 329.743,118.621 322.5,115 314.232,110.866 304.778,109.139 296.5,105 295.001,104.251 288,103.192 288,101 288,101 295,102 295,102 301.049,102 311.858,111 316,111 319.647,111 321.609,114 325,114  Z"/>

<path  fill="#C9C9CA" stroke-width="0" stroke="#C9C9CA" d = " M121 121 L121,123 C121.161,123 145.853,110.323 148.5,109 150.912,107.794 167,103.564 167,102 167,102 161,102 161,102 161,102 156,103 156,103 156,105.461 152.622,105 151,105 151,107.109 148.465,107 147,107 147,108.89 142.402,110 141,110 141,111.579 138.145,111 137,111 137,113.109 134.465,113 133,113 133,113 131,115 131,115 131,115 127,117 127,117 127,118.617 122.417,121 121,121  Z"/>

<path  fill="#1D9D5A" stroke-width="0" stroke="#1D9D5A" d = " M156 103 C154.576,103 151,103.362 151,105 152.622,105 156,105.461 156,103  Z"/>

<path  fill="#1D9D5A" stroke-width="0" stroke="#1D9D5A" d = " M151 105 L147,107 C148.465,107 151,107.109 151,105  Z"/>

<path  fill="#7ED04B" stroke-width="0" stroke="#7ED04B" d = " M235 112 C235,113.643 231.404,115.952 229.5,115 L228.5,113 C227.985,113 221,117.03 221,113 221,113 222,111 222,111 222,111 227,105 227,105 227,106.399 229,106.399 229,105 231.832,105 231.953,110 234,110 234,110 235,112 235,112  Z"/>

<path  fill="#1D9D5A" stroke-width="0" stroke="#1D9D5A" d = " M141 109 L141,110 C142.402,110 147,108.89 147,107 144.517,107 142.974,109 141,109  Z"/>

<path  fill="#40A465" stroke-width="0" stroke="#40A465" d = " M251 107 L250,108 C250,108 251,107 251,107  Z"/>

<path  fill="#1C8064" stroke-width="0" stroke="#1C8064" d = " M141 110 C141,111.579 138.145,111 137,111 137,111 141,109 141,109 141,109 141,110 141,110  Z"/>

<path  fill="#1C8064" stroke-width="0" stroke="#1C8064" d = " M325 114 L326,114 C326,114 326,113 326,113 326,113 315,109 315,109 315,109 316,111 316,111 319.647,111 321.609,114 325,114  Z"/>

<path  fill="#98D5F9" stroke-width="0" stroke="#98D5F9" d = " M131 236 L133,236 C133,234.527 134.952,235 136,235 145.202,235 177,234.902 177,222 177,215.186 183.022,186 190,186 190,181.575 191,176.039 191,171 191,165.237 193,160.163 193,155 193,155 193,148 193,148 193,141.529 193.703,132.906 191,127.5 191,127.5 185,114 185,114 183.423,114 183,112.238 183,111 178.517,111 169.208,107.646 164.5,110 160.093,112.203 153.861,110.82 149.5,113 140.977,117.262 132.138,120.681 123.5,125 117.795,127.853 108.92,141.66 106,147.5 106,147.5 101,156 101,156 101,157.424 100.638,161 99,161 99,162.424 98.6384,166 97,166 97,166 97,168 97,168 97,168 96,181.5 96,181.5 98.6935,186.887 101,195.698 101,202 101,202 101,203 101,203 101.913,203 103,208.014 103,209 103,209 103,210 103,210 103,210 104,211 104,211 104,211 109,222 109,222 109,222 119,231 119,231 119,231 120,231 120,231 120,231 127.5,235 127.5,235 128.546,235.523 131,234.049 131,236  Z"/>

<path  fill="#AAA8A9" stroke-width="0" stroke="#AAA8A9" d = " M185 114 C192.197,114 196.399,119 200,119 200,116.219 188.788,111.144 186.5,110 185.555,109.528 183,109.844 183,111 183,112.238 183.423,114 185,114  Z"/>

<path  fill="#AAA8A9" stroke-width="0" stroke="#AAA8A9" d = " M271 114 C271,111.045 264.07,115 263,115 263,111.705 274,108.598 274,111 274,111 271,114 271,114  Z"/>

<path  fill="#98D5F9" stroke-width="0" stroke="#98D5F9" d = " M324 236 L326,236 C326,235.908 334.167,232 335,232 335,232 336,231 336,231 336,231 337,231 337,231 337,229.383 341.583,227 343,227 343,225.253 343.253,225 345,225 345,225 346,223 346,223 348.35,223 353,211.233 353,209 353,204.164 356.818,192.864 359,188.5 362.263,181.973 359,171.815 359,165 356.969,165 354.883,155.267 354,153.5 350.401,146.302 340.262,128.881 332.5,125 307.279,112.39 303.07,111 274,111 274,111 271,114 271,114 271,114 267,123.5 267,123.5 263.825,129.85 263,139.431 263,147 263,147 264,156 264,156 264,161.421 265,167.091 265,173 265,173 265,175 265,175 265,175 265,180 265,180 266.643,180 266,183.765 266,185 273.447,185 279,215.331 279,222 279,222 282,225.5 282,225.5 287.556,236.612 308.474,235 320,235 321.145,235 324,234.421 324,236  Z"/>

<path  fill="#1C8064" stroke-width="0" stroke="#1C8064" d = " M137 111 C135.535,111 133,110.891 133,113 134.465,113 137,113.109 137,111  Z"/>

<path  fill="#1C8064" stroke-width="0" stroke="#1C8064" d = " M131 114 L131,115 C131,115 133,113 133,113 133,113 131,113 131,113 131,113 131,114 131,114  Z"/>

<path  fill="#A8AAAA" stroke-width="0" stroke="#A8AAAA" d = " M194 147 L193,148 C193,141.529 193.703,132.906 191,127.5 191,127.5 185,114 185,114 192.197,114 196.399,119 200,119 200,119 201,119 201,119 201,119 202,120 202,120 202,120 206,123 206,123 206,125.786 194,138.527 194,147  Z"/>

<path  fill="#A8AAAA" stroke-width="0" stroke="#A8AAAA" d = " M262 147 L263,147 C263,139.431 263.825,129.85 267,123.5 267,123.5 271,114 271,114 271,111.045 264.07,115 263,115 263,115 261,116 261,116 261,116 259,117 259,117 259,117 258,118 258,118 258,118 257,119 257,119 257,119 254,120 254,120 254,120 253,121 253,121 253,121 251,123 251,123 251,127.585 262,137.1 262,147  Z"/>

<path  fill="#188064" stroke-width="0" stroke="#188064" d = " M131 115 L127,117 C127,115.288 129.571,114 131,114 131,114 131,115 131,115  Z"/>

<path  fill="#188064" stroke-width="0" stroke="#188064" d = " M355 153 L356,153 C356,153 357,152 357,152 357,144.221 334.679,114 326,114 326,114 325,114 325,114 325,117.726 331.892,117.283 333,119.5 336.005,125.51 351,135.262 351,143 351,143 351,144 351,144 352.577,144 353,145.762 353,147 353,147 353,148 353,148 355.109,148 355,150.535 355,152 355,152 355,153 355,153  Z"/>

<path  fill="#AAA8A9" stroke-width="0" stroke="#AAA8A9" d = " M263 115 L261,116 C261,116 263,115 263,115  Z"/>

<path  fill="#AAA8A9" stroke-width="0" stroke="#AAA8A9" d = " M261 116 L259,117 C259,117 261,116 261,116  Z"/>

<path  fill="#188064" stroke-width="0" stroke="#188064" d = " M127 117 C124.478,117 121,118.432 121,121 122.417,121 127,118.617 127,117  Z"/>

<path  fill="#AAA8A9" stroke-width="0" stroke="#AAA8A9" d = " M259 117 L258,118 C258,118 259,117 259,117  Z"/>

<path  fill="#AAA8A9" stroke-width="0" stroke="#AAA8A9" d = " M258 118 L257,119 C257,119 258,118 258,118  Z"/>

<path  fill="#AAA8A9" stroke-width="0" stroke="#AAA8A9" d = " M201 119 L202,120 C202,120 201,119 201,119  Z"/>

<path  fill="#AAA8A9" stroke-width="0" stroke="#AAA8A9" d = " M254 120 L253,121 C253,121 254,120 254,120  Z"/>

<path  fill="#188064" stroke-width="0" stroke="#188064" d = " M119 123 L121,123 C121,123 121,121 121,121 119.253,121 119,121.253 119,123  Z"/>

<path  fill="#188064" stroke-width="0" stroke="#188064" d = " M117 125 L119,125 C119,125 119,123 119,123 117.253,123 117,123.253 117,125  Z"/>

<path  fill="#C9C9CA" stroke-width="0" stroke="#C9C9CA" d = " M121 123 C121,124.747 120.747,125 119,125 119,125 119,123 119,123 119,123 121,123 121,123  Z"/>

<path  fill="#90CBEC" stroke-width="0" stroke="#90CBEC" d = " M197 149 L198,149 C198,149 199,148 199,148 199,143.26 222,136.215 222,129 222,129 222,128 222,128 219.48,128 211.795,123 206,123 206,125.786 194,138.527 194,147 195.481,147 194.785,149 197,149  Z"/>

<path  fill="#90CBEC" stroke-width="0" stroke="#90CBEC" d = " M262 147 C262,148.577 260.238,149 259,149 259,149 254.5,145 254.5,145 251.852,143.676 235,133.5 235,130 235,130 235,128 235,128 235,124.892 248.093,123 251,123 251,127.585 262,137.1 262,147  Z"/>

<path  fill="#188064" stroke-width="0" stroke="#188064" d = " M100 153 L101,153 C101,151.535 100.891,149 103,149 103,149 103,148 103,148 103,146.762 103.423,145 105,145 105,145 105,144 105,144 105,142.762 105.423,141 107,141 107,139.535 106.891,137 109,137 109,135.438 111.189,132 113,132 113,130.438 115.189,127 117,127 117,127 117,125 117,125 113.415,125 99,148.233 99,152 99,152 99,153 99,153 99,153 100,153 100,153  Z"/>

<path  fill="#C9C9CA" stroke-width="0" stroke="#C9C9CA" d = " M119 125 C119,126.747 118.747,127 117,127 117,127 117,125 117,125 117,125 119,125 119,125  Z"/>

<path  fill="#97D6F9" stroke-width="0" stroke="#97D6F9" d = " M226 128 C226.666,128 230,130.56 230,128 230,125.289 226,126.491 226,128  Z"/>

<path  fill="#C9C9CA" stroke-width="0" stroke="#C9C9CA" d = " M117 127 C115.189,127 113,130.438 113,132 114.811,132 117,128.562 117,127  Z"/>

<path  fill="#97D6F9" stroke-width="0" stroke="#97D6F9" d = " M225 128 C225,129.473 223.048,129 222,129 222,129 222,128 222,128 222,128 225,128 225,128  Z"/>

<path  fill="#90CAED" stroke-width="0" stroke="#90CAED" d = " M237 192 L238,192 C238,192 245.5,184 245.5,184 250.256,179.244 256.887,173 264,173 264,173 265,173 265,173 265,167.091 264,161.421 264,156 264,156 259,149 259,149 259,149 254.5,145 254.5,145 251.852,143.676 235,133.5 235,130 235,130 232,128 232,128 232,128 230,128 230,128 230,130.56 226.666,128 226,128 226,128 225,128 225,128 225,129.473 223.048,129 222,129 222,136.215 199,143.26 199,148 199,148 198,149 198,149 198,149 197,149 197,149 197,149.781 193.81,155 193,155 193,160.163 191,165.237 191,171 192.473,171 192,172.952 192,174 203.263,174 203.093,180.296 212.5,185 212.5,185 219,193 219,193 219,193 219,190 219,190 219,188.765 218.357,185 220,185 220,185 220,183 220,183 220,183 221,181 221,181 221,181 221,176 221,176 221,174.952 220.527,173 222,173 222,173 222,171 222,171 222,171 223,169 223,169 223,169 223,164 223,164 223,164 224,162 224,162 224,162 224,160 224,160 224,160 225,158 225,158 225,158 225,156 225,156 225,154.855 224.421,152 226,152 226,152 228,144 228,144 228,142.814 229,142.814 229,144 229,144 230,151 230,151 231.579,151 231,153.855 231,155 231,155 231,156 231,156 232.473,156 232,157.952 232,159 232,159 232,160 232,160 232,160 233,162 233,162 233,162 233,166 233,166 233,166 234,168 234,168 234,168 234,171 234,171 234,171 235,173 235,173 235,173 235,178 235,178 235,178 236,180 236,180 236,180 236,183 236,183 237.473,183 237,184.952 237,186 237,186 237,192 237,192  Z"/>

<path  fill="#97D6F9" stroke-width="0" stroke="#97D6F9" d = " M235 128 L235,130 C235,130 232,128 232,128 232,128 235,128 235,128  Z"/>

<path  fill="#1A7E62" stroke-width="0" stroke="#1A7E62" d = " M52 176 C52,177.579 49.1452,177 48,177 48,170.033 43.3667,154.767 47,147.5 47,147.5 53,131 53,131 53,131 58,133 58,133 58,133 51,156.5 51,156.5 48.5188,161.462 52,171.073 52,176  Z"/>

<path  fill="#1A7E62" stroke-width="0" stroke="#1A7E62" d = " M404 176 L409,177 C409,165.42 412.261,152.022 407,141.5 406.194,139.889 405.032,131 403,131 403,131 399,133 399,133 399,139.357 402.239,148.978 405,154.5 407.65,159.8 404,170.908 404,176  Z"/>

<path  fill="#C9C9CA" stroke-width="0" stroke="#C9C9CA" d = " M113 132 C111.189,132 109,135.438 109,137 110.811,137 113,133.562 113,132  Z"/>

<path  fill="#1B8063" stroke-width="0" stroke="#1B8063" d = " M52 176 L53,176 C55.7232,176 58.7778,175 62,175 62,175 63,155.5 63,155.5 65.4167,150.667 67,143.728 67,138 67,136.049 64.5456,137.523 63.5,137 61.974,136.237 58.9078,133 58,133 58,133 51,156.5 51,156.5 48.5188,161.462 52,171.073 52,176  Z"/>

<path  fill="#1B8063" stroke-width="0" stroke="#1B8063" d = " M395 175 L404,176 C404,170.908 407.65,159.8 405,154.5 402.239,148.978 399,139.357 399,133 399,133 398,133 398,133 398,135.467 391.097,137 389,137 389,137 389,138 389,138 389,148.813 395,160.941 395,175  Z"/>

<path  fill="#C9C9CA" stroke-width="0" stroke="#C9C9CA" d = " M109 137 C106.891,137 107,139.535 107,141 107,141 109,137 109,137  Z"/>

<path  fill="#187C63" stroke-width="0" stroke="#187C63" d = " M62 175 L65,175 C65,175 67,174 67,174 67,165.745 67.5083,154.483 71,147.5 71.7465,146.007 70.2712,141 73,141 73,141 73,140 73,140 73,140 68,138 68,138 68,138 67,138 67,138 67,143.728 65.4167,150.667 63,155.5 63,155.5 62,175 62,175  Z"/>

<path  fill="#187C63" stroke-width="0" stroke="#187C63" d = " M394 175 L395,175 C395,160.941 389,148.813 389,138 389,138 384,140 384,140 384,143.278 385.585,147.67 387,150.5 388.568,153.636 389,169.396 389,174 389,174 394,175 394,175  Z"/>

<path  fill="#1C8063" stroke-width="0" stroke="#1C8063" d = " M387 174 L389,174 C389,169.396 388.568,153.636 387,150.5 385.585,147.67 384,143.278 384,140 384,140 383,140 383,140 383,141.881 374.788,145 373,145 373,145 373,146 373,146 373,154.925 377,163.591 377,173 380.51,173 384.022,174 387,174  Z"/>

<path  fill="#1C8063" stroke-width="0" stroke="#1C8063" d = " M67 174 L70,174 C72.6901,174 76.6745,173 80,173 80,173 81,155.5 81,155.5 81,155.5 84,146 84,146 84,146 73,141 73,141 70.2712,141 71.7465,146.007 71,147.5 67.5083,154.483 67,165.745 67,174  Z"/>

<path  fill="#C9C9CA" stroke-width="0" stroke="#C9C9CA" d = " M107 141 C105.423,141 105,142.762 105,144 106.577,144 107,142.238 107,141  Z"/>

<path  fill="#97D6F9" stroke-width="0" stroke="#97D6F9" d = " M228 144 L229,144 C229,142.814 228,142.814 228,144  Z"/>

<path  fill="#8FCBEC" stroke-width="0" stroke="#8FCBEC" d = " M227 152 L230,153 C230,153 230,151 230,151 230,151 229,144 229,144 229,144 228,144 228,144 228,144 226,152 226,152 226,152 227,152 227,152  Z"/>

<path  fill="#C9C9CA" stroke-width="0" stroke="#C9C9CA" d = " M351 144 C352.577,144 353,145.762 353,147 351.423,147 351,145.238 351,144  Z"/>

<path  fill="#C9C9CA" stroke-width="0" stroke="#C9C9CA" d = " M105 145 C103.423,145 103,146.762 103,148 104.577,148 105,146.238 105,145  Z"/>

<path  fill="#197D63" stroke-width="0" stroke="#197D63" d = " M94 171 C88.9466,171 83.976,173 80,173 80,173 81,155.5 81,155.5 81,155.5 84,146 84,146 89.1815,146 93.6777,152 99,152 99,152 99,153 99,153 99,158.748 94,164.922 94,171  Z"/>

<path  fill="#197D63" stroke-width="0" stroke="#197D63" d = " M362 171 C366.984,171 372.339,173 377,173 377,163.591 373,154.925 373,146 367.315,146 362.874,152 357,152 357,158.069 362,164.378 362,171  Z"/>

<path  fill="#97D6F9" stroke-width="0" stroke="#97D6F9" d = " M197 149 C197,149.781 193.81,155 193,155 193,155 193,148 193,148 193,148 194,147 194,147 195.481,147 194.785,149 197,149  Z"/>

<path  fill="#97D6F9" stroke-width="0" stroke="#97D6F9" d = " M259 149 L264,156 C264,156 263,147 263,147 263,147 262,147 262,147 262,148.577 260.238,149 259,149  Z"/>

<path  fill="#97D6F9" stroke-width="0" stroke="#97D6F9" d = " M199 148 L198,149 C198,149 199,148 199,148  Z"/>

<path  fill="#C9C9CA" stroke-width="0" stroke="#C9C9CA" d = " M353 148 C355.109,148 355,150.535 355,152 355,152 353,148 353,148  Z"/>

<path  fill="#C9C9CA" stroke-width="0" stroke="#C9C9CA" d = " M103 149 C100.891,149 101,151.535 101,153 101,153 103,149 103,149  Z"/>

<path  fill="#97D6F9" stroke-width="0" stroke="#97D6F9" d = " M230 153 L231,155 C231,153.855 231.579,151 230,151 230,151 230,153 230,153  Z"/>

<path  fill="#97D6F9" stroke-width="0" stroke="#97D6F9" d = " M227 152 L225,156 C225,154.855 224.421,152 226,152 226,152 227,152 227,152  Z"/>

<path  fill="#96A7D3" stroke-width="0" stroke="#96A7D3" d = " M226 229 L228.5,225 C229.376,225 228.693,229 231,229 231,229 235,221 235,221 235,218.591 236,215.819 236,214 236,209.923 237,205.569 237,201 237,201 237,194 237,194 237,194 237,192 237,192 237,192 237,186 237,186 235.527,186 236,184.048 236,183 236,183 236,180 236,180 236,180 235,178 235,178 235,178 235,173 235,173 235,173 234,171 234,171 234,171 234,168 234,168 234,168 233,166 233,166 233,166 233,162 233,162 233,162 232,160 232,160 232,160 232,159 232,159 230.527,159 231,157.048 231,156 231,156 231,155 231,155 231,155 230,153 230,153 230,153 227,152 227,152 227,152 225,156 225,156 225,156 225,158 225,158 225,158 224,160 224,160 224,160 224,162 224,162 224,162 223,164 223,164 223,164 223,169 223,169 223,169 222,171 222,171 222,171 222,173 222,173 222,174.048 222.473,176 221,176 221,176 221,181 221,181 221,181 220,183 220,183 220,183 220,185 220,185 220,186.235 220.643,190 219,190 219,190 219,193 219,193 219,193 219,203 219,203 219,206.776 221,210.581 221,214 221,214 221,219 221,219 221,219 226,229 226,229  Z"/>

<path  fill="#1A8061" stroke-width="0" stroke="#1A8061" d = " M361 171 L362,171 C362,164.378 357,158.069 357,152 357,152 356,153 356,153 356,153 357,157 357,157 357,157 358,161 358,161 358,161 359,162 359,162 359,162 359,165 359,165 359.675,165 361,170.294 361,171  Z"/>

<path  fill="#1A8061" stroke-width="0" stroke="#1A8061" d = " M94 171 L96,171 C96,169.952 95.5271,168 97,168 97,168 97,166 97,166 97,166 98,161 98,161 98,161 99,159 99,159 99,159 99,157 99,157 99,157 100,156 100,156 100,156 100,153 100,153 100,153 99,153 99,153 99,158.748 94,164.922 94,171  Z"/>

<path  fill="#C9C9CA" stroke-width="0" stroke="#C9C9CA" d = " M100 156 L101,156 C101,156 101,153 101,153 101,153 100,153 100,153 100,153 100,156 100,156  Z"/>

<path  fill="#C9C9CA" stroke-width="0" stroke="#C9C9CA" d = " M356 153 L357,157 C357,157 355,153 355,153 355,153 356,153 356,153  Z"/>

<path  fill="#C9C9CA" stroke-width="0" stroke="#C9C9CA" d = " M100 156 L99,157 C99,157 100,156 100,156  Z"/>

<path  fill="#C9C7C9" stroke-width="0" stroke="#C9C7C9" d = " M99 159 L99,161 C100.638,161 101,157.424 101,156 101,156 100,156 100,156 100,156 99,157 99,157 99,157 99,159 99,159  Z"/>

<path  fill="#97D6F9" stroke-width="0" stroke="#97D6F9" d = " M231 156 C232.473,156 232,157.952 232,159 230.527,159 231,157.048 231,156  Z"/>

<path  fill="#97D6F9" stroke-width="0" stroke="#97D6F9" d = " M225 158 L224,160 C224,160 225,158 225,158  Z"/>

<path  fill="#C9C9CA" stroke-width="0" stroke="#C9C9CA" d = " M98 161 L99,161 C99,161 99,159 99,159 99,159 98,161 98,161  Z"/>

<path  fill="#97D6F9" stroke-width="0" stroke="#97D6F9" d = " M232 160 L233,162 C233,162 232,160 232,160  Z"/>

<path  fill="#C9C7C9" stroke-width="0" stroke="#C9C7C9" d = " M99 161 C99,162.424 98.6384,166 97,166 97,166 98,161 98,161 98,161 99,161 99,161  Z"/>

<path  fill="#C9C9CA" stroke-width="0" stroke="#C9C9CA" d = " M358 161 L359,162 C359,162 358,161 358,161  Z"/>

<path  fill="#97D6F9" stroke-width="0" stroke="#97D6F9" d = " M224 162 L223,164 C223,164 224,162 224,162  Z"/>

<path  fill="#C8CBCC" stroke-width="0" stroke="#C8CBCC" d = " M353 209 L355,209 C355,207.952 354.527,206 356,206 356,206 356,204 356,204 356,202.952 355.527,201 357,201 357,201 357,200 357,200 357,198.952 356.527,197 358,197 358,197 359,195 359,195 359,195 359,193 359,193 359,193 360,191 360,191 360,191 361,187 361,187 361,181.219 361,177.006 361,171 361,170.294 359.675,165 359,165 359,171.815 362.263,181.973 359,188.5 356.818,192.864 353,204.164 353,209  Z"/>

<path  fill="#97D6F9" stroke-width="0" stroke="#97D6F9" d = " M233 166 L234,168 C234,168 233,166 233,166  Z"/>

<path  fill="#C8CBCC" stroke-width="0" stroke="#C8CBCC" d = " M99 201 L101,202 C101,195.698 98.6935,186.887 96,181.5 96,181.5 97,168 97,168 95.5271,168 96,169.952 96,171 96,175.734 95,181.644 95,187 95,187 97,191 97,191 97,191 97,192 97,192 97,192 97,194 97,194 99.4606,194 99,197.378 99,199 99,199 99,201 99,201  Z"/>

<path  fill="#97D6F9" stroke-width="0" stroke="#97D6F9" d = " M223 169 L222,171 C222,171 223,169 223,169  Z"/>

<path  fill="#009B74" stroke-width="0" stroke="#009B74" d = " M82 192 L86,192 C86,189.995 92.5373,187 94,187 94,181.471 94,176.169 94,171 88.9466,171 83.976,173 80,173 80,173 81,192 81,192 81,192 82,192 82,192  Z"/>

<path  fill="#019C74" stroke-width="0" stroke="#019C74" d = " M94 187 L95,187 C95,181.644 96,175.734 96,171 96,171 94,171 94,171 94,176.169 94,181.471 94,187  Z"/>

<path  fill="#A8AAAA" stroke-width="0" stroke="#A8AAAA" d = " M190 186 C190,187.985 192,193.125 192,189 192,189 192,174 192,174 192,172.952 192.473,171 191,171 191,176.039 190,181.575 190,186  Z"/>

<path  fill="#97D6F9" stroke-width="0" stroke="#97D6F9" d = " M234 171 L235,173 C235,173 234,171 234,171  Z"/>

<path  fill="#019C74" stroke-width="0" stroke="#019C74" d = " M361 187 L362,187 C362,182.493 362,175.507 362,171 362,171 361,171 361,171 361,177.006 361,181.219 361,187  Z"/>

<path  fill="#009B74" stroke-width="0" stroke="#009B74" d = " M370 192 L375,192 C375,185.374 377,179.903 377,173 372.339,173 366.984,171 362,171 362,175.507 362,182.493 362,187 364.35,187 370,189.277 370,192  Z"/>

<path  fill="#019C75" stroke-width="0" stroke="#019C75" d = " M81 192 C81,192.983 70.5801,195 69,195 69,195 67,191.5 67,191.5 67,191.5 67,175 67,175 68.0479,175 70,175.473 70,174 72.6901,174 76.6745,173 80,173 80,173 81,192 81,192  Z"/>

<path  fill="#8FCBED" stroke-width="0" stroke="#8FCBED" d = " M204 201 C207.011,201 210.856,204.678 213.5,206 216.769,207.634 217.457,203 219,203 219,203 219,193 219,193 219,193 212.5,185 212.5,185 203.093,180.296 203.263,174 192,174 192,174 192,189 192,189 192,189 194,193 194,193 194,193 202,199 202,199 202,199 203,200 203,200 203,200 204,201 204,201  Z"/>

<path  fill="#97D6F9" stroke-width="0" stroke="#97D6F9" d = " M222 173 C220.527,173 221,174.952 221,176 222.473,176 222,174.048 222,173  Z"/>

<path  fill="#8FCBED" stroke-width="0" stroke="#8FCBED" d = " M237 201 C238.468,201 238.806,207.847 242.5,206 L253,201 C253,201 254,200 254,200 254,200 255,199 255,199 255,199 256,198 256,198 256,198 257,197 257,197 257,197 260,195 260,195 260,195 261,194 261,194 261,194 262,193 262,193 262,193 264,190 264,190 264,186.49 265,182.978 265,180 265,180 265,175 265,175 265,175 264,173 264,173 256.887,173 250.256,179.244 245.5,184 245.5,184 238,192 238,192 238,192 237,194 237,194 237,194 237,201 237,201  Z"/>

<path  fill="#A8AAAA" stroke-width="0" stroke="#A8AAAA" d = " M265 173 L265,175 C265,175 264,173 264,173 264,173 265,173 265,173  Z"/>

<path  fill="#019C75" stroke-width="0" stroke="#019C75" d = " M387 195 L388,195 C388,189.002 389,181.642 389,175 389,175 387,174 387,174 384.022,174 380.51,173 377,173 377,179.903 375,185.374 375,192 375,192 387,195 387,195  Z"/>

<path  fill="#11AC82" stroke-width="0" stroke="#11AC82" d = " M65 175 L67,175 C67,175 67,174 67,174 67,174 65,175 65,175  Z"/>

<path  fill="#12AD82" stroke-width="0" stroke="#12AD82" d = " M70 174 C70,175.473 68.0479,175 67,175 67,175 67,174 67,174 67,174 70,174 70,174  Z"/>

<path  fill="#12AD82" stroke-width="0" stroke="#12AD82" d = " M389 174 L389,175 C389,175 387,174 387,174 387,174 389,174 389,174  Z"/>

<path  fill="#11AC82" stroke-width="0" stroke="#11AC82" d = " M394 175 L394,176 C394,176 389,175 389,175 389,175 389,174 389,174 389,174 394,175 394,175  Z"/>

<path  fill="#12AC83" stroke-width="0" stroke="#12AC83" d = " M62 177 C58.545,177 56.0825,180 53,180 53,180 53,176 53,176 55.7232,176 58.7778,175 62,175 62,175 62,177 62,177  Z"/>

<path  fill="#11AC82" stroke-width="0" stroke="#11AC82" d = " M65 175 L62,177 C62,177 62,175 62,175 62,175 65,175 65,175  Z"/>

<path  fill="#009C74" stroke-width="0" stroke="#009C74" d = " M69 195 L67,196 C67,189.944 62,183.317 62,177 62,177 65,175 65,175 65,175 67,175 67,175 67,175 67,191.5 67,191.5 67,191.5 69,195 69,195  Z"/>

<path  fill="#009C74" stroke-width="0" stroke="#009C74" d = " M388 195 L389,195 C390.567,195 394,179.752 394,177 394,177 394,176 394,176 394,176 389,175 389,175 389,181.642 388,189.002 388,195  Z"/>

<path  fill="#12AC83" stroke-width="0" stroke="#12AC83" d = " M394 177 C397.736,177 399.264,179 403,179 403,179 404,176 404,176 404,176 395,175 395,175 395,175 394,175 394,175 394,175 394,176 394,176 394,176 394,177 394,177  Z"/>

<path  fill="#12AD83" stroke-width="0" stroke="#12AD83" d = " M53 180 L49,181 C49,181 48,177 48,177 49.1452,177 52,177.579 52,176 52,176 53,176 53,176 53,176 53,180 53,180  Z"/>

<path  fill="#12AD83" stroke-width="0" stroke="#12AD83" d = " M403 180 L407,181 C407,181 409,177 409,177 409,177 404,176 404,176 404,176 403,179 403,179 403,179 403,180 403,180  Z"/>

<path  fill="#009B75" stroke-width="0" stroke="#009B75" d = " M67 196 C64.2775,196 62.4699,197 59,197 59,197 53,180 53,180 56.0825,180 58.545,177 62,177 62,183.317 67,189.944 67,196  Z"/>

<path  fill="#009B75" stroke-width="0" stroke="#009B75" d = " M389 195 C389,197.049 394.822,197 397,197 399.334,197 398.341,192.819 399,191.5 400.663,188.174 403,183.908 403,180 403,180 403,179 403,179 399.264,179 397.736,177 394,177 394,179.752 390.567,195 389,195  Z"/>

<path  fill="#97D6F9" stroke-width="0" stroke="#97D6F9" d = " M235 178 L236,180 C236,180 235,178 235,178  Z"/>

<path  fill="#009C75" stroke-width="0" stroke="#009C75" d = " M59 198 L55,199 C55,199 49,181 49,181 49,181 53,180 53,180 53,180 59,197 59,197 59,197 59,198 59,198  Z"/>

<path  fill="#A8AAAA" stroke-width="0" stroke="#A8AAAA" d = " M266 185 C266,188.838 266.867,190 264,190 264,186.49 265,182.978 265,180 266.643,180 266,183.765 266,185  Z"/>

<path  fill="#009C75" stroke-width="0" stroke="#009C75" d = " M397 198 L401,199 C401,193.206 407,187.549 407,181 407,181 403,180 403,180 403,183.908 400.663,188.174 399,191.5 398.341,192.819 399.334,197 397,197 397,197 397,198 397,198  Z"/>

<path  fill="#97D6F9" stroke-width="0" stroke="#97D6F9" d = " M221 181 L220,183 C220,183 221,181 221,181  Z"/>

<path  fill="#97D6F9" stroke-width="0" stroke="#97D6F9" d = " M236 183 C237.473,183 237,184.952 237,186 235.527,186 236,184.048 236,183  Z"/>

<path  fill="#97D6F9" stroke-width="0" stroke="#97D6F9" d = " M220 185 C218.357,185 219,188.765 219,190 220.643,190 220,186.235 220,185  Z"/>

<path  fill="#97D6F9" stroke-width="0" stroke="#97D6F9" d = " M274 222 L279,222 C279,215.331 273.447,185 266,185 266,188.838 266.867,190 264,190 264,190 262,193 262,193 267.93,193 271,192.698 271,200 271,200 272,201 272,201 272,201 271,212 271,212 271,212 271,216 271,216 271,216 274,222 274,222  Z"/>

<path  fill="#97D6F9" stroke-width="0" stroke="#97D6F9" d = " M177 222 L182,222 C182,222 185,217 185,217 185,217 185,213 185,213 185,203.68 181.15,193 194,193 194,193 192,189 192,189 192,193.125 190,187.985 190,186 183.022,186 177,215.186 177,222  Z"/>

<path  fill="#209666" stroke-width="0" stroke="#209666" d = " M86 192 L89,198 C89,194.334 91.032,190 95,190 95,190 94,187 94,187 92.5373,187 86,189.995 86,192  Z"/>

<path  fill="#1F9766" stroke-width="0" stroke="#1F9766" d = " M96 191 L97,191 C97,191 95,187 95,187 95,187 94,187 94,187 94,187 95,190 95,190 95,190 96,191 96,191  Z"/>

<path  fill="#1F9766" stroke-width="0" stroke="#1F9766" d = " M361 190 L360,191 C360,191 361,187 361,187 361,187 362,187 362,187 362,187 361,190 361,190  Z"/>

<path  fill="#209666" stroke-width="0" stroke="#209666" d = " M370 192 C370,193.84 369.015,198 367,198 367,194.145 365.167,190 361,190 361,190 362,187 362,187 364.35,187 370,189.277 370,192  Z"/>

<path  fill="#8ADA86" stroke-width="0" stroke="#8ADA86" d = " M95 209 L97,209 C97,209 98,208 98,208 98,208 99,208 99,208 99,208 99,207 99,207 99,207 100,206 100,206 100,206 99,204 99,204 99,204 99,201 99,201 99,201 99,199 99,199 97.9856,199 97,195.041 97,194 97,194 97,192 97,192 97,192 96,191 96,191 96,191 95,190 95,190 91.032,190 89,194.334 89,198 89,198 89,199 89,199 90.0144,199 91,202.959 91,204 91,204 91,206 91,206 91,206 95,209 95,209  Z"/>

<path  fill="#8ADA86" stroke-width="0" stroke="#8ADA86" d = " M358 208 L361,209 C361,209 365,207 365,207 365,207 365,206 365,206 365,204.959 365.986,201 367,201 367,201 367,200 367,200 367,200 367,199 367,199 367,199 367,198 367,198 367,194.145 365.167,190 361,190 361,190 360,191 360,191 360,191 359,193 359,193 359,193 359,195 359,195 359,195 358,197 358,197 358,198.048 358.473,200 357,200 357,200 357,201 357,201 357,201 357,204 357,204 357,204 357,207 357,207 357,207 358,208 358,208  Z"/>

<path  fill="#209666" stroke-width="0" stroke="#209666" d = " M97 191 L97,192 C97,192 96,191 96,191 96,191 97,191 97,191  Z"/>

<path  fill="#209666" stroke-width="0" stroke="#209666" d = " M360 191 L359,193 C359,193 360,191 360,191  Z"/>

<path  fill="#219864" stroke-width="0" stroke="#219864" d = " M81 215 L85,215 C85,215 89,212 89,212 89,204.946 82,199.617 82,192 82,192 81,192 81,192 81,192.983 70.5801,195 69,195 69,198.459 79.696,215 81,215  Z"/>

<path  fill="#209766" stroke-width="0" stroke="#209766" d = " M92 211 C92,212.473 90.0479,212 89,212 89,204.946 82,199.617 82,192 82,192 86,192 86,192 86,192 89,198 89,198 89,198 89,199 89,199 89,200.622 88.5394,204 91,204 91,204 91,206 91,206 91,206 92,211 92,211  Z"/>

<path  fill="#97D6F9" stroke-width="0" stroke="#97D6F9" d = " M238 192 L237,194 C237,194 237,192 237,192 237,192 238,192 238,192  Z"/>

<path  fill="#B3C0DE" stroke-width="0" stroke="#B3C0DE" d = " M261 231 L272,231 C272,227.577 274,224.526 274,222 274,222 271,216 271,216 271,233.706 242.517,208 266,208 268.741,208 268.75,212 271,212 271,212 272,201 272,201 272,201 271,200 271,200 271,192.698 267.93,193 262,193 262,193 261,194 261,194 261,194 260,195 260,195 260,195 257,197 257,197 257,197 256,198 256,198 256,198 255,199 255,199 255,199 254,200 254,200 254,200 253,201 253,201 253,204.185 248,208.179 248,212 248,213.048 248.473,215 247,215 247,215 247,216 247,216 247.672,216 249,220.329 249,221 254.545,221 254.648,231 261,231  Z"/>

<path  fill="#209766" stroke-width="0" stroke="#209766" d = " M365 211 L367,212 C367,205.352 375,199.12 375,192 375,192 370,192 370,192 370,193.84 369.015,198 367,198 367,198 367,199 367,199 368.186,199 368.186,200 367,200 367,200 367,201 367,201 367,202.622 367.461,206 365,206 365,206 365,207 365,207 365,207 365,211 365,211  Z"/>

<path  fill="#219864" stroke-width="0" stroke="#219864" d = " M371 215 L376,215 C376,210.146 387,202.744 387,195 387,195 375,192 375,192 375,199.12 367,205.352 367,212 367,212 371,215 371,215  Z"/>

<path  fill="#B3C0DE" stroke-width="0" stroke="#B3C0DE" d = " M184 231 L195,231 C201.976,231 201.24,221 208,221 208,221 209,219 209,219 209,219 209,213 209,213 209,213 208,212 208,212 208,208.085 204,204.378 204,201 204,201 203,200 203,200 203,200 202,199 202,199 202,199 194,193 194,193 181.15,193 185,203.68 185,213 185,213 189.5,208 189.5,208 191.294,207.103 194.176,208.338 195.5,209 208.736,215.618 185,228.894 185,217 185,217 182,222 182,222 182,223.477 184,227.699 184,231  Z"/>

<path  fill="#97D6F9" stroke-width="0" stroke="#97D6F9" d = " M262 193 L261,194 C261,194 262,193 262,193  Z"/>

<path  fill="#209666" stroke-width="0" stroke="#209666" d = " M97 194 C99.4606,194 99,197.378 99,199 97.9856,199 97,195.041 97,194  Z"/>

<path  fill="#97D6F9" stroke-width="0" stroke="#97D6F9" d = " M261 194 L260,195 C260,195 261,194 261,194  Z"/>

<path  fill="#209865" stroke-width="0" stroke="#209865" d = " M81 215 C81,215.885 71.3166,219 70,219 70,213.499 59,203.758 59,198 59,198 59,197 59,197 62.4699,197 64.2775,196 67,196 67,196 69,195 69,195 69,198.459 79.696,215 81,215  Z"/>

<path  fill="#209666" stroke-width="0" stroke="#209666" d = " M359 195 L358,197 C358,197 359,195 359,195  Z"/>

<path  fill="#209865" stroke-width="0" stroke="#209865" d = " M376 215 C376,216.259 384.632,219 386,219 386,214.159 397,204.232 397,198 397,198 397,197 397,197 394.822,197 389,197.049 389,195 389,195 388,195 388,195 388,195 387,195 387,195 387,202.744 376,210.146 376,215  Z"/>

<path  fill="#97D6F9" stroke-width="0" stroke="#97D6F9" d = " M257 197 L256,198 C256,198 257,197 257,197  Z"/>

<path  fill="#209666" stroke-width="0" stroke="#209666" d = " M358 197 C356.527,197 357,198.952 357,200 358.473,200 358,198.048 358,197  Z"/>

<path  fill="#219765" stroke-width="0" stroke="#219765" d = " M70 219 L65,221 C65,215.756 55,205.023 55,199 55,199 59,198 59,198 59,203.758 70,213.499 70,219  Z"/>

<path  fill="#97D6F9" stroke-width="0" stroke="#97D6F9" d = " M256 198 L255,199 C255,199 256,198 256,198  Z"/>

<path  fill="#219765" stroke-width="0" stroke="#219765" d = " M386 219 L391,221 C391,221 394,215.5 394,215.5 396.229,211.042 401,204.095 401,199 401,199 397,198 397,198 397,204.232 386,214.159 386,219  Z"/>

<path  fill="#209666" stroke-width="0" stroke="#209666" d = " M89 199 C90.0144,199 91,202.959 91,204 88.5394,204 89,200.622 89,199  Z"/>

<path  fill="#97D6F9" stroke-width="0" stroke="#97D6F9" d = " M202 199 L203,200 C203,200 202,199 202,199  Z"/>

<path  fill="#97D6F9" stroke-width="0" stroke="#97D6F9" d = " M255 199 L254,200 C254,200 255,199 255,199  Z"/>

<path  fill="#209666" stroke-width="0" stroke="#209666" d = " M367 199 C368.186,199 368.186,200 367,200 367,200 367,199 367,199  Z"/>

<path  fill="#97D6F9" stroke-width="0" stroke="#97D6F9" d = " M254 200 L253,201 C253,201 254,200 254,200  Z"/>

<path  fill="#8599CC" stroke-width="0" stroke="#8599CC" d = " M271 200 L272,201 C272,201 271,200 271,200  Z"/>

<path  fill="#209666" stroke-width="0" stroke="#209666" d = " M99 204 L101,204 C101,204 101,203 101,203 101,203 101,202 101,202 101,202 99,201 99,201 99,201 99,204 99,204  Z"/>

<path  fill="#97D6F9" stroke-width="0" stroke="#97D6F9" d = " M209 213 L217.5,212 L221,214 C221,210.581 219,206.776 219,203 217.457,203 216.769,207.634 213.5,206 210.856,204.678 207.011,201 204,201 204,204.378 208,208.085 208,212 208,212 209,213 209,213  Z"/>

<path  fill="#97D6F9" stroke-width="0" stroke="#97D6F9" d = " M247 213 L238.5,212 L236,214 C236,209.923 237,205.569 237,201 238.468,201 238.806,207.847 242.5,206 242.5,206 253,201 253,201 253,204.185 248,208.179 248,212 248,212 247,213 247,213  Z"/>

<path  fill="#209666" stroke-width="0" stroke="#209666" d = " M356 204 L357,204 C357,204 357,201 357,201 355.527,201 356,202.952 356,204  Z"/>

<path  fill="#209666" stroke-width="0" stroke="#209666" d = " M367 201 C365.986,201 365,204.959 365,206 367.461,206 367,202.622 367,201  Z"/>

<path  fill="#C8CBCC" stroke-width="0" stroke="#C8CBCC" d = " M102 209 L103,209 C103,208.014 101.913,203 101,203 101,203 101,204 101,204 101,204 101,206 101,206 101,206 102,209 102,209  Z"/>

<path  fill="#1F9866" stroke-width="0" stroke="#1F9866" d = " M100 206 L101,206 C101,206 101,204 101,204 101,204 99,204 99,204 99,204 100,206 100,206  Z"/>

<path  fill="#1F9866" stroke-width="0" stroke="#1F9866" d = " M356 206 L357,207 C357,207 357,204 357,204 357,204 356,204 356,204 356,204 356,206 356,206  Z"/>

<path  fill="#1F9866" stroke-width="0" stroke="#1F9866" d = " M92 211 L94,211 C94,211 95,210 95,210 95,210 95,209 95,209 95,209 91,206 91,206 91,206 92,211 92,211  Z"/>

<path  fill="#1F9866" stroke-width="0" stroke="#1F9866" d = " M100 206 L99,207 C99,207 100,206 100,206  Z"/>

<path  fill="#8AD987" stroke-width="0" stroke="#8AD987" d = " M99 208 L102,209 C102,209 101,206 101,206 101,206 100,206 100,206 100,206 99,207 99,207 99,207 99,208 99,208  Z"/>

<path  fill="#8AD987" stroke-width="0" stroke="#8AD987" d = " M358 208 L355,209 C355,207.952 354.527,206 356,206 356,206 357,207 357,207 357,207 358,208 358,208  Z"/>

<path  fill="#1F9866" stroke-width="0" stroke="#1F9866" d = " M363 211 L365,211 C365,211 365,207 365,207 365,207 361,209 361,209 361,209 363,211 363,211  Z"/>

<path  fill="#1F9866" stroke-width="0" stroke="#1F9866" d = " M98 208 L97,209 C97,209 98,208 98,208  Z"/>

<path  fill="#A0EE9C" stroke-width="0" stroke="#A0EE9C" d = " M101 227 L106,228 C108.361,228 111,227.6 111,225 111,225 109,222 109,222 109,222 104,211 104,211 104,211 103,210 103,210 103,210 103,209 103,209 103,209 102,209 102,209 102,209 99,208 99,208 99,208 98,208 98,208 98,208 97,209 97,209 97,209 95,209 95,209 95,209 95,210 95,210 95,210 94,211 94,211 94,212.804 91.8178,216.136 93,218.5 93,218.5 95,222 95,222 95,222 95,223 95,223 95,223 97,225 97,225 97,225 98,225 98,225 98,225 100,227 100,227 100,227 101,227 101,227  Z"/>

<path  fill="#CBCBC7" stroke-width="0" stroke="#CBCBC7" d = " M185 213 L189.5,208 C191.294,207.103 194.176,208.338 195.5,209 208.736,215.618 185,228.894 185,217 185,217 185,213 185,213  Z"/>

<path  fill="#CBCBC7" stroke-width="0" stroke="#CBCBC7" d = " M271 212 C268.75,212 268.741,208 266,208 242.517,208 271,233.706 271,216 271,216 271,212 271,212  Z"/>

<path  fill="#A0EE9C" stroke-width="0" stroke="#A0EE9C" d = " M350 228 L354,228 C354,228 355,227 355,227 355,227 358,226 358,226 358,226 359,225 359,225 359,225 360,224 360,224 360,224 361,223 361,223 361,223 362,222 362,222 362,222 363,220 363,220 363,220 363,211 363,211 363,211 361,209 361,209 361,209 358,208 358,208 358,208 355,209 355,209 355,209 353,209 353,209 353,211.233 348.35,223 346,223 346,223 345,225 345,225 345,225 345,226 345,226 346.624,226 347.75,228 350,228  Z"/>

<path  fill="#99D2BD" stroke-width="0" stroke="#99D2BD" d = " M95 210 L94,211 C94,211 95,210 95,210  Z"/>

<path  fill="#C8CBCC" stroke-width="0" stroke="#C8CBCC" d = " M103 210 L104,211 C104,211 103,210 103,210  Z"/>

<path  fill="#99D2BD" stroke-width="0" stroke="#99D2BD" d = " M85 215 C91.1905,215 92.4066,222 95,222 95,222 93,218.5 93,218.5 91.8178,216.136 94,212.804 94,211 94,211 92,211 92,211 92,212.473 90.0479,212 89,212 89,212 85,215 85,215  Z"/>

<path  fill="#99D2BD" stroke-width="0" stroke="#99D2BD" d = " M371 215 C366.385,215 366.081,220 363,220 363,220 363,211 363,211 363,211 365,211 365,211 365,211 367,212 367,212 367,212 371,215 371,215  Z"/>

<path  fill="#E64438" stroke-width="0" stroke="#E64438" d = " M208 212 L209,213 C209,213 208,212 208,212  Z"/>

<path  fill="#FF5547" stroke-width="0" stroke="#FF5547" d = " M209 224 L209,227 C209,227 213.5,231 213.5,231 218.903,233.701 221,222.265 221,219 221,219 221,214 221,214 221,214 217.5,212 217.5,212 217.5,212 209,213 209,213 209,213 209,219 209,219 209,219 209,224 209,224  Z"/>

<path  fill="#FF5547" stroke-width="0" stroke="#FF5547" d = " M247 216 C247,220.07 247.703,225.093 246,228.5 242.27,235.961 235,225.322 235,221 235,218.591 236,215.819 236,214 236,214 238.5,212 238.5,212 238.5,212 247,213 247,213 247,213 247,215 247,215 247,215 247,216 247,216  Z"/>

<path  fill="#E64438" stroke-width="0" stroke="#E64438" d = " M247 213 L247,215 C248.473,215 248,213.048 248,212 248,212 247,213 247,213  Z"/>

<path  fill="#6ACAB9" stroke-width="0" stroke="#6ACAB9" d = " M117 267 L119,267 C119,267 126,262 126,262 126,255.309 130.343,242.921 120.5,238 120.5,238 106.5,230 106.5,230 105.189,229.344 101,229.203 101,227 101,227 100,227 100,227 100,227 98,225 98,225 98,225 97,225 97,225 97,225 95,223 95,223 95,223 95,222 95,222 92.4066,222 91.1905,215 85,215 85,215 81,215 81,215 81,215.885 71.3166,219 70,219 70,219 65,221 65,221 65,227.082 83.5034,250.502 88.5,253 90.4157,253.958 91.8025,259 95,259 97.9784,259 117,264.217 117,267  Z"/>

<path  fill="#6ACAB9" stroke-width="0" stroke="#6ACAB9" d = " M337 267 L339,267 C339,267 344.5,263 344.5,263 348.492,261.004 357.48,259 362,259 362,259 371,249.5 371,249.5 371,249.5 375,246.5 375,246.5 379.069,238.361 391,230.573 391,221 391,221 386,219 386,219 384.632,219 376,216.259 376,215 376,215 371,215 371,215 366.385,215 366.081,220 363,220 363,220 362,222 362,222 362,222 361,223 361,223 361,223 360,224 360,224 360,224 359,225 359,225 359,225 358,226 358,226 358,226 355,227 355,227 355,227 354,228 354,228 354,228 351,229.5 351,229.5 348.808,231.692 342.088,235 339,235 339,235 330,245.5 330,245.5 326.747,252.005 331,257.31 331,262 331,262 337,267 337,267  Z"/>

<path  fill="#E64438" stroke-width="0" stroke="#E64438" d = " M251 242 C253.033,242 254.256,242 256,242 256,242 256,241 256,241 247.394,241 249,225.14 249,221 249,220.329 247.672,216 247,216 247,220.07 247.703,225.093 246,228.5 242.27,235.961 235,225.322 235,221 235,221 231,229 231,229 231,229 230,233 230,233 230,233 233.5,229 233.5,229 236.629,227.436 251,237.858 251,242  Z"/>

<path  fill="#E64438" stroke-width="0" stroke="#E64438" d = " M208 221 C208,222.048 207.527,224 209,224 209,224 209,219 209,219 209,219 208,221 208,221  Z"/>

<path  fill="#E64438" stroke-width="0" stroke="#E64438" d = " M201 241 L205,242 C205,237.95 219.749,227.625 222.5,229 222.5,229 227,235 227,235 227,235 226,229 226,229 226,229 221,219 221,219 221,222.265 218.903,233.701 213.5,231 213.5,231 209,227 209,227 209,231.849 201,240.457 201,241  Z"/>

<path  fill="#99D2BD" stroke-width="0" stroke="#99D2BD" d = " M363 220 L362,222 C362,222 363,220 363,220  Z"/>

<path  fill="#FD5446" stroke-width="0" stroke="#FD5446" d = " M200 241 L201,241 C201,240.457 209,231.849 209,227 209,227 209,224 209,224 207.527,224 208,222.048 208,221 201.24,221 201.976,231 195,231 195,231 193,235 193,235 193,237.38 197.801,241 200,241  Z"/>

<path  fill="#FD5446" stroke-width="0" stroke="#FD5446" d = " M263 235 C263,237.445 258.87,241 256,241 247.394,241 249,225.14 249,221 254.545,221 254.648,231 261,231 261,231 263,235 263,235  Z"/>

<path  fill="#C8CBCC" stroke-width="0" stroke="#C8CBCC" d = " M111 225 C112.843,225 115.584,231 119,231 119,231 109,222 109,222 109,222 111,225 111,225  Z"/>

<path  fill="#80CDF8" stroke-width="0" stroke="#80CDF8" d = " M134 257 L135,257 C135,257 137.5,259 137.5,259 143.652,262.076 153.225,259.637 158.5,257 164.114,254.193 175.534,238 181,238 181,238 184,231 184,231 184,227.699 182,223.477 182,222 182,222 177,222 177,222 177,234.902 145.202,235 136,235 136,236.473 134.048,236 133,236 133,236 131,236 131,236 131,236 127,239 127,239 127,244.209 133,249.293 133,255 133,255 134,256 134,256 134,256 134,257 134,257  Z"/>

<path  fill="#80CDF8" stroke-width="0" stroke="#80CDF8" d = " M323 256 L321,258 C314.958,258 307.979,262.24 301.5,259 295.969,256.234 281.32,239 277,239 277,239 273,234.5 273,234.5 272.477,233.454 273.951,231 272,231 272,227.577 274,224.526 274,222 274,222 279,222 279,222 279,222 282,225.5 282,225.5 287.556,236.612 308.474,235 320,235 320,236.579 322.855,236 324,236 324,236 326,236 326,236 328.409,236 329,237.957 329,240 329,244.931 323,250.432 323,256  Z"/>

<path  fill="#99D2BD" stroke-width="0" stroke="#99D2BD" d = " M362 222 L361,223 C361,223 362,222 362,222  Z"/>

<path  fill="#99D2BD" stroke-width="0" stroke="#99D2BD" d = " M95 223 L97,225 C97,225 95,223 95,223  Z"/>

<path  fill="#C8CBCC" stroke-width="0" stroke="#C8CBCC" d = " M346 223 L345,225 C345,225 346,223 346,223  Z"/>

<path  fill="#99D2BD" stroke-width="0" stroke="#99D2BD" d = " M361 223 L360,224 C360,224 361,223 361,223  Z"/>

<path  fill="#99D2BD" stroke-width="0" stroke="#99D2BD" d = " M360 224 L359,225 C359,225 360,224 360,224  Z"/>

<path  fill="#99D2BD" stroke-width="0" stroke="#99D2BD" d = " M98 225 L100,227 C100,227 98,225 98,225  Z"/>

<path  fill="#8AD987" stroke-width="0" stroke="#8AD987" d = " M120 231 L122,235 C115.993,235 115.304,231.402 110.5,229 109.353,228.426 106,230.064 106,228 108.361,228 111,227.6 111,225 112.843,225 115.584,231 119,231 119,231 120,231 120,231  Z"/>

<path  fill="#C8CBCC" stroke-width="0" stroke="#C8CBCC" d = " M345 226 L343,227 C343,225.253 343.253,225 345,225 345,225 345,226 345,226  Z"/>

<path  fill="#99D2BD" stroke-width="0" stroke="#99D2BD" d = " M359 225 L358,226 C358,226 359,225 359,225  Z"/>

<path  fill="#8AD987" stroke-width="0" stroke="#8AD987" d = " M335 235 L339,235 C339,231.52 350,229.612 350,228 347.75,228 346.624,226 345,226 345,226 343,227 343,227 343,229.177 338.664,231 337,231 337,231 336,231 336,231 336,231 335,232 335,232 335,232 335,235 335,235  Z"/>

<path  fill="#99D2BD" stroke-width="0" stroke="#99D2BD" d = " M126 262 L127,262 C127,262 133,259 133,259 133,259 134,258 134,258 134,258 134,257 134,257 134,257 134,256 134,256 134,256 133,255 133,255 133,249.293 127,244.209 127,239 125.438,239 122,236.811 122,235 115.993,235 115.304,231.402 110.5,229 109.353,228.426 106,230.064 106,228 106,228 101,227 101,227 101,229.203 105.189,229.344 106.5,230 106.5,230 120.5,238 120.5,238 130.343,242.921 126,255.309 126,262  Z"/>

<path  fill="#C8CBCC" stroke-width="0" stroke="#C8CBCC" d = " M343 227 C341.583,227 337,229.383 337,231 338.664,231 343,229.177 343,227  Z"/>

<path  fill="#99D2BD" stroke-width="0" stroke="#99D2BD" d = " M355 227 L354,228 C354,228 355,227 355,227  Z"/>

<path  fill="#99D2BD" stroke-width="0" stroke="#99D2BD" d = " M354 228 L351,229.5 C348.808,231.692 342.088,235 339,235 339,231.52 350,229.612 350,228 350,228 354,228 354,228  Z"/>

<path  fill="#FF5346" stroke-width="0" stroke="#FF5346" d = " M213 265 C210.007,265 207.47,269 204,269 204,265.658 199,264.219 199,262 199,262 199,261 199,261 199,257.84 205,250.044 205,242 205,237.95 219.749,227.625 222.5,229 222.5,229 227,235 227,235 227,235 227,237 227,237 227,237 226,241 226,241 226,241 225,244 225,244 221.306,244 220.892,249 219,249 219,246.859 214.087,246.207 212.5,247 206.499,250 196.566,263 209,263 209,263 215,261 215,261 215,261 213,265 213,265  Z"/>

<path  fill="#FF5346" stroke-width="0" stroke="#FF5346" d = " M243 265 L252,269 C252,269 257,262 257,262 257,262 257,261 257,261 257,254.764 251,249.449 251,242 251,237.858 236.629,227.436 233.5,229 233.5,229 230,233 230,233 230,233 230,240 230,240 230,240 231,244 231,244 233.116,244 237,246.575 237,249 238.947,249 240.644,245.572 243.5,247 246.588,248.544 258.687,259.906 252.5,263 247.873,265.313 244.172,260 241,260 241,260 243,265 243,265  Z"/>

<path  fill="#97D6F9" stroke-width="0" stroke="#97D6F9" d = " M131 236 L127,239 C125.438,239 122,236.811 122,235 122,235 120,231 120,231 120,231 127.5,235 127.5,235 128.546,235.523 131,234.049 131,236  Z"/>

<path  fill="#E64438" stroke-width="0" stroke="#E64438" d = " M193 235 L181,238 C181,238 184,231 184,231 184,231 195,231 195,231 195,231 193,235 193,235  Z"/>

<path  fill="#E64438" stroke-width="0" stroke="#E64438" d = " M263 235 C267.592,235 272.746,239 277,239 277,239 273,234.5 273,234.5 272.477,233.454 273.951,231 272,231 272,231 261,231 261,231 261,231 263,235 263,235  Z"/>

<path  fill="#97D6F9" stroke-width="0" stroke="#97D6F9" d = " M336 231 L335,232 C335,232 336,231 336,231  Z"/>

<path  fill="#97D6F9" stroke-width="0" stroke="#97D6F9" d = " M326 236 C328.409,236 329,237.957 329,240 329,240 335,235 335,235 335,235 335,232 335,232 334.167,232 326,235.908 326,236  Z"/>

<path  fill="#E64438" stroke-width="0" stroke="#E64438" d = " M229 240 L230,240 C230,240 230,233 230,233 228.286,233 229,238.594 229,240  Z"/>

<path  fill="#97D6F9" stroke-width="0" stroke="#97D6F9" d = " M136 235 C134.952,235 133,234.527 133,236 134.048,236 136,236.473 136,235  Z"/>

<path  fill="#A2B1D7" stroke-width="0" stroke="#A2B1D7" d = " M184 264 C171.351,264 179,275.394 179,277 159.281,277 158.397,282.448 139.5,273 136.608,271.554 134.235,269.971 133,267.5 133,267.5 127,262 127,262 127,262 133,259 133,259 133,259 134,258 134,258 134,258 135,257 135,257 135,257 137.5,259 137.5,259 143.652,262.076 153.225,259.637 158.5,257 164.114,254.193 175.534,238 181,238 181,238 193,235 193,235 193,237.38 197.801,241 200,241 200,241 200,242 200,242 200,247.93 187,258.448 187,262 187,262 184,264 184,264  Z"/>

<path  fill="#A2B1D7" stroke-width="0" stroke="#A2B1D7" d = " M273 264 L277,266.5 C284.42,273.92 277,271.239 277,277 287.947,277 300.523,281.988 310.5,277 313.718,275.391 316.205,272.648 319.5,271 319.5,271 329,262 329,262 329,262 323,258 323,258 323,258 321,258 321,258 314.958,258 307.979,262.24 301.5,259 295.969,256.234 281.32,239 277,239 272.746,239 267.592,235 263,235 263,237.445 258.87,241 256,241 256,241 256,242 256,242 257.838,242 260.235,249.971 261,251.5 261,251.5 269,261 269,261 269,261 273,264 273,264  Z"/>

<path  fill="#97D6F9" stroke-width="0" stroke="#97D6F9" d = " M320 235 C321.145,235 324,234.421 324,236 322.855,236 320,236.579 320,235  Z"/>

<path  fill="#99D2BD" stroke-width="0" stroke="#99D2BD" d = " M329 262 L331,262 C331,257.31 326.747,252.005 330,245.5 330,245.5 339,235 339,235 339,235 335,235 335,235 335,235 329,240 329,240 329,244.931 323,250.432 323,256 323,256 323,258 323,258 323,258 329,262 329,262  Z"/>

<path  fill="#E64438" stroke-width="0" stroke="#E64438" d = " M228 240 L226,241 C226,241 227,237 227,237 228.473,237 228,238.952 228,240  Z"/>

<path  fill="#FF5445" stroke-width="0" stroke="#FF5445" d = " M225 255 L231,255 C231,255 231,244 231,244 231,244 230,240 230,240 230,240 229,240 229,240 229,240 228,240 228,240 228,240 226,241 226,241 226,241 225,244 225,244 225,244 225,255 225,255  Z"/>

<path  fill="#E64438" stroke-width="0" stroke="#E64438" d = " M201 241 L200,242 C200,242 200,241 200,241 200,241 201,241 201,241  Z"/>

<path  fill="#F2473B" stroke-width="0" stroke="#F2473B" d = " M188 262 L198,262 C198,262 199,261 199,261 199,257.84 205,250.044 205,242 205,242 201,241 201,241 201,241 200,242 200,242 200,247.93 187,258.448 187,262 187,262 188,262 188,262  Z"/>

<path  fill="#F2473B" stroke-width="0" stroke="#F2473B" d = " M259 262 C262.325,262 266.31,263 269,263 269,263 269,261 269,261 269,261 261,251.5 261,251.5 260.235,249.971 257.838,242 256,242 254.256,242 253.033,242 251,242 251,249.449 257,254.764 257,261 257,261 259,262 259,262  Z"/>

<path  fill="#FE5446" stroke-width="0" stroke="#FE5446" d = " M217 273 L212,274 C212,271.14 213,268.42 213,265 213,265 215,261 215,261 215,257.738 219,254.233 219,249 220.892,249 221.306,244 225,244 225,244 225,255 225,255 225,255 225,269 225,269 225,269 225,270 225,270 225,270 224,271 224,271 224,271 220,271 220,271 220,271 219,272 219,272 219,272 217,273 217,273  Z"/>

<path  fill="#FE5446" stroke-width="0" stroke="#FE5446" d = " M236 271 C238.86,271 241.58,274 245,274 245,270.362 243,268.071 243,265 243,265 241,260 241,260 241,256.701 237,253.515 237,249 237,246.575 233.116,244 231,244 231,244 231,255 231,255 231,255 231,269 231,269 231,269 231,270 231,270 231,270 236,271 236,271  Z"/>

<path  fill="#FE5447" stroke-width="0" stroke="#FE5447" d = " M219 249 C219,254.233 215,257.738 215,261 215,261 209,263 209,263 196.566,263 206.499,250 212.5,247 214.087,246.207 219,246.859 219,249  Z"/>

<path  fill="#FE5447" stroke-width="0" stroke="#FE5447" d = " M237 249 C238.947,249 240.644,245.572 243.5,247 246.588,248.544 258.687,259.906 252.5,263 247.873,265.313 244.172,260 241,260 241,256.701 237,253.515 237,249  Z"/>

<path  fill="#97D6F9" stroke-width="0" stroke="#97D6F9" d = " M133 255 L134,256 C134,256 133,255 133,255  Z"/>

<path  fill="#FD5447" stroke-width="0" stroke="#FD5447" d = " M229 269 L231,269 C231,269 231,255 231,255 231,255 225,255 225,255 225,255 225,269 225,269 225,269 226,269 226,269 226,269 227,269 227,269 227,267.601 229,267.601 229,269  Z"/>

<path  fill="#97D6F9" stroke-width="0" stroke="#97D6F9" d = " M321 258 L323,258 C323,258 323,256 323,256 323,256 321,258 321,258  Z"/>

<path  fill="#97D6F9" stroke-width="0" stroke="#97D6F9" d = " M135 257 L134,258 C134,258 134,257 134,257 134,257 135,257 135,257  Z"/>

<path  fill="#97D6F9" stroke-width="0" stroke="#97D6F9" d = " M134 258 L133,259 C133,259 134,258 134,258  Z"/>

<path  fill="#CAC8C7" stroke-width="0" stroke="#CAC8C7" d = " M117 273 L116,274 C113.22,274 95,262.286 95,259 97.9784,259 117,264.217 117,267 117,267 117,271 117,271 117,271 117,273 117,273  Z"/>

<path  fill="#CAC8C7" stroke-width="0" stroke="#CAC8C7" d = " M339 273 L340,274 C343.026,274 362,261.934 362,259 357.48,259 348.492,261.004 344.5,263 344.5,263 339,267 339,267 339,267 339,270 339,270 339,270 339,273 339,273  Z"/>

<path  fill="#CBCCCB" stroke-width="0" stroke="#CBCCCB" d = " M198 262 L199,262 C199,262 199,261 199,261 199,261 198,262 198,262  Z"/>

<path  fill="#CBCCCB" stroke-width="0" stroke="#CBCCCB" d = " M257 262 L259,262 C259,262 257,261 257,261 257,261 257,262 257,262  Z"/>

<path  fill="#E64438" stroke-width="0" stroke="#E64438" d = " M273 264 L271,265 C271,265 269,263 269,263 269,263 269,261 269,261 269,261 273,264 273,264  Z"/>

<path  fill="#7FCCF7" stroke-width="0" stroke="#7FCCF7" d = " M120 278 C120,281.834 126.296,287.398 129.5,289 L133.5,293 C145.664,299.082 158.133,302.684 171.5,296 176.767,293.367 189,294.209 189,285 189,280.54 185.468,277 181,277 181,277 179,277 179,277 159.281,277 158.397,282.448 139.5,273 136.608,271.554 134.235,269.971 133,267.5 133,267.5 127,262 127,262 127,262 126,262 126,262 126,262 119,267 119,267 119,267 119,269 119,269 119,269 119,276 119,276 119,276 119,277 119,277 119,277 120,278 120,278  Z"/>

<path  fill="#E64438" stroke-width="0" stroke="#E64438" d = " M184 264 L185,265 C185,265 188,262 188,262 188,262 187,262 187,262 187,262 184,264 184,264  Z"/>

<path  fill="#96A6D3" stroke-width="0" stroke="#96A6D3" d = " M199 277 L200,277 C200,274.416 204,272.482 204,269 204,265.658 199,264.219 199,262 199,262 198,262 198,262 198,262 188,262 188,262 188,262 185,265 185,265 185,268.222 184,271.277 184,274 184.656,274 188.138,277.319 189.5,278 192.448,279.474 195.017,278 198,278 198,278 199,277 199,277  Z"/>

<path  fill="#96A6D3" stroke-width="0" stroke="#96A6D3" d = " M256 277 L258,277 C259.17,277 272,280.564 272,274 272,274 271,265 271,265 271,265 269,263 269,263 266.31,263 262.325,262 259,262 259,262 257,262 257,262 257,262 252,269 252,269 252,269 256,277 256,277  Z"/>

<path  fill="#7FCCF7" stroke-width="0" stroke="#7FCCF7" d = " M337 277 C337,281.506 328.294,289.103 324.5,291 312.715,296.893 304.271,303.886 290.5,297 288.766,296.133 286.339,296.92 284.5,296 279.384,293.442 267,293.666 267,285 267,280.029 271.238,277 276,277 276,277 277,277 277,277 287.947,277 300.523,281.988 310.5,277 313.718,275.391 316.205,272.648 319.5,271 319.5,271 329,262 329,262 329,262 331,262 331,262 331,262 337,267 337,267 337,267 338,270 338,270 338,270 338,275 338,275 338,275 337,277 337,277  Z"/>

<path  fill="#A2B1D8" stroke-width="0" stroke="#A2B1D8" d = " M179 277 L181,277 C181,277 184,274 184,274 184,271.277 185,268.222 185,265 185,265 184,264 184,264 171.351,264 179,275.394 179,277  Z"/>

<path  fill="#A2B1D8" stroke-width="0" stroke="#A2B1D8" d = " M276 277 L277,277 C277,271.239 284.42,273.92 277,266.5 277,266.5 273,264 273,264 273,264 271,265 271,265 271,265 272,274 272,274 272,274 276,277 276,277  Z"/>

<path  fill="#E64438" stroke-width="0" stroke="#E64438" d = " M212 274 L200,277 C200,274.416 204,272.482 204,269 207.47,269 210.007,265 213,265 213,268.42 212,271.14 212,274  Z"/>

<path  fill="#E64438" stroke-width="0" stroke="#E64438" d = " M245 274 L256,277 C256,277 252,269 252,269 252,269 243,265 243,265 243,268.071 245,270.362 245,274  Z"/>

<path  fill="#99D2BD" stroke-width="0" stroke="#99D2BD" d = " M119 269 L117,271 C117,271 117,267 117,267 117,267 119,267 119,267 119,267 119,269 119,269  Z"/>

<path  fill="#99D2BD" stroke-width="0" stroke="#99D2BD" d = " M338 270 L339,270 C339,270 339,267 339,267 339,267 337,267 337,267 337,267 338,270 338,270  Z"/>

<path  fill="#A8A9AA" stroke-width="0" stroke="#A8A9AA" d = " M227 269 C227,270.399 229,270.399 229,269 229,267.601 227,267.601 227,269  Z"/>

<path  fill="#97D6F9" stroke-width="0" stroke="#97D6F9" d = " M117 274 L119,276 C119,276 119,269 119,269 119,269 117,271 117,271 117,271 117,273 117,273 117,273 117,274 117,274  Z"/>

<path  fill="#E64438" stroke-width="0" stroke="#E64438" d = " M225 270 L226,270 C226,270 226,269 226,269 226,269 225,269 225,269 225,269 225,270 225,270  Z"/>

<path  fill="#CAC7CB" stroke-width="0" stroke="#CAC7CB" d = " M209 283 L207,286.5 L212.5,287 C217.098,289.299 233.12,290.19 237.5,288 239.109,287.195 250,288.171 250,285.5 L247,284 C242.826,284 235.363,274 239,274 239,274 236,271 236,271 236,271 231,270 231,270 231,272.061 226,272.061 226,270 226,270 225,270 225,270 225,270 224,271 224,271 224,271 220,271 220,271 220,271 219,272 219,272 219,272 217,273 217,273 217,273 217,274 217,274 222.212,274 215.002,283 209,283  Z"/>

<path  fill="#97D6F9" stroke-width="0" stroke="#97D6F9" d = " M339 274 L338,275 C338,275 338,270 338,270 338,270 339,270 339,270 339,270 339,273 339,273 339,273 339,274 339,274  Z"/>

<path  fill="#99D2BD" stroke-width="0" stroke="#99D2BD" d = " M116 274 L117,274 C117,274 117,273 117,273 117,273 116,274 116,274  Z"/>

<path  fill="#99D2BD" stroke-width="0" stroke="#99D2BD" d = " M339 274 L340,274 C340,274 339,273 339,273 339,273 339,274 339,274  Z"/>

<path  fill="#8599CC" stroke-width="0" stroke="#8599CC" d = " M198 278 C198,279.592 190.39,285 189,285 189,280.54 185.468,277 181,277 181,277 184,274 184,274 184.656,274 188.138,277.319 189.5,278 192.448,279.474 195.017,278 198,278  Z"/>

<path  fill="#CBCCC7" stroke-width="0" stroke="#CBCCC7" d = " M217 274 C222.212,274 215.002,283 209,283 209,276.749 217,274.673 217,274  Z"/>

<path  fill="#CBCCC7" stroke-width="0" stroke="#CBCCC7" d = " M239 274 C245.145,274 247,279.958 247,284 242.826,284 235.363,274 239,274  Z"/>

<path  fill="#8599CC" stroke-width="0" stroke="#8599CC" d = " M276 277 C271.238,277 267,280.029 267,285 265.325,285 258,278.938 258,277 259.17,277 272,280.564 272,274 272,274 276,277 276,277  Z"/>

<path  fill="#97D6F9" stroke-width="0" stroke="#97D6F9" d = " M338 275 L337,277 C337,277 338,275 338,275  Z"/>

<path  fill="#97D6F9" stroke-width="0" stroke="#97D6F9" d = " M119 277 L120,278 C120,278 119,277 119,277  Z"/>

<path  fill="#8599CC" stroke-width="0" stroke="#8599CC" d = " M199 277 L198,278 C198,278 199,277 199,277  Z"/>

</g>
</svg>
