<svg xmlns="http://www.w3.org/2000/svg" xmlns:xlink="http://www.w3.org/1999/xlink"  viewBox="0 0 456 320">
<g>
<rect width="456" height="320" fill="#000000"  stroke-width="0" /> 
<path  fill="#1E9C59" stroke-width="0" stroke="#1E9C59" d = " M158 141 L159,141 C159,141 161,129 161,129 161,126.629 157.263,124.027 156,121.5 155.43,120.36 155.737,115 157,115 157,115 157,112 157,112 157,112 158,111 158,111 158,111 158,110 158,110 158,110 159,109 159,109 159,109 159,108 159,108 159,108 160,107 160,107 160,107 161,106 161,106 161,106 162,105 162,105 162,105 163,104 163,104 163,104 165,103 165,103 165,103 167,101 167,101 167,101 169,100 169,100 169,100 170,99 170,99 170,99 171,99 171,99 171,96.8466 178.075,96 180,96 180,96 181,96 181,96 181,96 183,95 183,95 183,95 196,95 196,95 196,95 197,95 197,95 197,92.4348 201,91.0908 201,88 198.747,88 194.531,87.0157 192.5,86 186.38,82.9402 166.408,90.5459 161.5,93 161.5,93 155.5,98 155.5,98 155.5,98 149,103.5 149,103.5 145.218,111.064 135.314,122.128 140,131.5 140.815,133.13 139.819,138 143,138 143,138 158,141 158,141  Z"/>

<path  fill="#1E9C59" stroke-width="0" stroke="#1E9C59" d = " M314 138 L298,141 C298,136.604 295,133.329 295,129 295,125.148 302.142,122.784 300,118.5 299.426,117.353 301.064,114 299,114 299,114 299,111 299,111 299,111 298,110 298,110 298,110 297,108 297,108 297,105.168 288.327,99 286,99 286,99 285,99 285,99 285,96.891 282.465,97 281,97 281,97 280,97 280,97 280,97 278,96 278,96 278,96 276,96 276,96 276,94.5271 274.048,95 273,95 273,95 261,95 261,95 261,95 259,95 259,95 259,92.17 255,90.4596 255,88 259.601,88 267.516,83.5081 272.5,86 276.649,88.0745 282.372,86.9362 286.5,89 294.955,93.2276 306.125,98.7491 311,108.5 311,108.5 317,122.5 317,122.5 319.771,128.043 314,133.903 314,138  Z"/>

<path  fill="#2FA750" stroke-width="0" stroke="#2FA750" d = " M214 110 L224,112 C224,101.281 211.986,88 201,88 201,91.0908 197,92.4348 197,95 197,95 198,96 198,96 198,96 199,96 199,96 199,96 200,97 200,97 200,97 202,97 202,97 202,97 203,98 203,98 203,98 205,99 205,99 207.698,99 213,105.407 213,108 213,108 213,109 213,109 213,109 214,110 214,110  Z"/>

<path  fill="#2FA750" stroke-width="0" stroke="#2FA750" d = " M243 110 L233,112 C233,101.207 243.768,88 255,88 255,90.4596 259,92.17 259,95 259,95 257,96 257,96 257,96 256,97 256,97 256,97 254,97 254,97 254,97 253,98 253,98 253,98 252,99 252,99 248.522,99 243,105.813 243,109 243,109 243,110 243,110  Z"/>

<path  fill="#1E9D58" stroke-width="0" stroke="#1E9D58" d = " M183 95 L181,96 C181,96 183,95 183,95  Z"/>

<path  fill="#268E45" stroke-width="0" stroke="#268E45" d = " M210 120 L211,120 C211,117.05 213,112.982 213,109 213,109 213,108 213,108 211.661,108 205,100.174 205,99 205,99 203,98 203,98 203,98 202,97 202,97 202,97 200,97 200,97 200,97 199,96 199,96 199,96 198,96 198,96 198,96 196,95 196,95 196,95 183,95 183,95 183,95 181,96 181,96 181,96 180,96 180,96 180,97.4085 172.593,99 171,99 171,99 170,99 170,99 170,99 169,100 169,100 169,100 167,101 167,101 167,102.747 166.747,103 165,103 165,103 163,104 163,104 163,104 162,105 162,105 162,105 161,106 161,106 161,106 160,107 160,107 160,107 159,108 159,108 159,108 159,109 159,109 159,109 158,110 158,110 158,110 158,111 158,111 158,111 157,112 157,112 157,112 157,115 157,115 157,125.641 167.807,121 175,121 175,121 177,120 177,120 177,120 178,120 178,120 178,120 179,119 179,119 179,119 181,119 181,119 181,119 189,115 189,115 196.191,115 202.648,119 209,119 209,119 210,120 210,120  Z"/>

<path  fill="#268F45" stroke-width="0" stroke="#268F45" d = " M197 95 L198,96 C198,96 196,95 196,95 196,95 197,95 197,95  Z"/>

<path  fill="#268F45" stroke-width="0" stroke="#268F45" d = " M261 95 C261,96.5791 258.145,96 257,96 257,96 259,95 259,95 259,95 261,95 261,95  Z"/>

<path  fill="#268E45" stroke-width="0" stroke="#268E45" d = " M281 121 L282,121 C290.151,121 299,125.646 299,114 299,114 299,111 299,111 299,111 298,110 298,110 298,110 297,108 297,108 297,108 286,99 286,99 286,99 285,99 285,99 285,99 281,97 281,97 281,97 280,97 280,97 280,97 278,96 278,96 278,96 276,96 276,96 274.952,96 273,96.4729 273,95 273,95 261,95 261,95 261,96.5791 258.145,96 257,96 257,96 256,97 256,97 256,97 254,97 254,97 254,97 253,98 253,98 253,98 252,99 252,99 252,99 243,109 243,109 243,109 243,110 243,110 243,110 243,111 243,111 243,114.676 246,117.439 246,120 246,120 247,120 247,120 247,120 248,119 248,119 253.22,119 260.123,115 267,115 268.49,115 275,117.206 275,119 275,119 279,120 279,120 279,120 281,121 281,121  Z"/>

<path  fill="#1E9D58" stroke-width="0" stroke="#1E9D58" d = " M273 95 C274.048,95 276,94.5271 276,96 274.952,96 273,96.4729 273,95  Z"/>

<path  fill="#1E9D58" stroke-width="0" stroke="#1E9D58" d = " M180 96 C178.075,96 171,96.8466 171,99 172.593,99 180,97.4085 180,96  Z"/>

<path  fill="#268F45" stroke-width="0" stroke="#268F45" d = " M199 96 L200,97 C200,97 199,96 199,96  Z"/>

<path  fill="#268F45" stroke-width="0" stroke="#268F45" d = " M257 96 L256,97 C256,97 257,96 257,96  Z"/>

<path  fill="#1E9D58" stroke-width="0" stroke="#1E9D58" d = " M278 96 L280,97 C280,97 278,96 278,96  Z"/>

<path  fill="#268F45" stroke-width="0" stroke="#268F45" d = " M202 97 L203,98 C203,98 202,97 202,97  Z"/>

<path  fill="#268F45" stroke-width="0" stroke="#268F45" d = " M254 97 L253,98 C253,98 254,97 254,97  Z"/>

<path  fill="#1E9D58" stroke-width="0" stroke="#1E9D58" d = " M281 97 C282.465,97 285,96.891 285,99 285,99 281,97 281,97  Z"/>

<path  fill="#1E9D58" stroke-width="0" stroke="#1E9D58" d = " M170 99 L169,100 C169,100 170,99 170,99  Z"/>

<path  fill="#2FA74F" stroke-width="0" stroke="#2FA74F" d = " M205 99 C207.698,99 213,105.407 213,108 211.661,108 205,100.174 205,99  Z"/>

<path  fill="#2FA74F" stroke-width="0" stroke="#2FA74F" d = " M252 99 C248.522,99 243,105.813 243,109 243,109 252,99 252,99  Z"/>

<path  fill="#1E9D58" stroke-width="0" stroke="#1E9D58" d = " M286 99 C288.327,99 297,105.168 297,108 297,108 286,99 286,99  Z"/>

<path  fill="#1E9D58" stroke-width="0" stroke="#1E9D58" d = " M169 100 L167,101 C167,101 169,100 169,100  Z"/>

<path  fill="#1E9D58" stroke-width="0" stroke="#1E9D58" d = " M167 101 L165,103 C166.747,103 167,102.747 167,101  Z"/>

<path  fill="#1E9D58" stroke-width="0" stroke="#1E9D58" d = " M165 103 L163,104 C163,104 165,103 165,103  Z"/>

<path  fill="#1E9D58" stroke-width="0" stroke="#1E9D58" d = " M163 104 L162,105 C162,105 163,104 163,104  Z"/>

<path  fill="#1E9D58" stroke-width="0" stroke="#1E9D58" d = " M162 105 L161,106 C161,106 162,105 162,105  Z"/>

<path  fill="#1E9D58" stroke-width="0" stroke="#1E9D58" d = " M160 107 L159,108 C159,108 160,107 160,107  Z"/>

<path  fill="#1E9D58" stroke-width="0" stroke="#1E9D58" d = " M159 109 L158,110 C158,110 159,109 159,109  Z"/>

<path  fill="#268F45" stroke-width="0" stroke="#268F45" d = " M214 110 C214,117.367 218.084,120 211,120 211,117.05 213,112.982 213,109 213,109 214,110 214,110  Z"/>

<path  fill="#23895D" stroke-width="0" stroke="#23895D" d = " M213 135 C213,141.296 219.527,137 221,137 221,132.401 223.031,126.437 225,122.5 225,122.5 224,112 224,112 224,112 214,110 214,110 214,117.367 218.084,120 211,120 211,120 210,120 210,120 210,120 209,120 209,120 209,125.948 213,129.932 213,135  Z"/>

<path  fill="#23895D" stroke-width="0" stroke="#23895D" d = " M244 135 C243.33,135 242.401,138 236,138 236,131.356 232,125.903 232,118.5 232,117.137 231.3,112 233,112 233,112 243,110 243,110 243,110 243,111 243,111 241.397,111 240.649,120.075 242.5,121 242.5,121 246,120 246,120 246,120 247,120 247,120 247,124.709 244,129.427 244,135  Z"/>

<path  fill="#1E9D58" stroke-width="0" stroke="#1E9D58" d = " M298 110 L299,111 C299,111 298,110 298,110  Z"/>

<path  fill="#1E9D58" stroke-width="0" stroke="#1E9D58" d = " M158 111 L157,112 C157,112 158,111 158,111  Z"/>

<path  fill="#268F45" stroke-width="0" stroke="#268F45" d = " M243 111 C241.397,111 240.649,120.075 242.5,121 L246,120 C246,117.439 243,114.676 243,111  Z"/>

<path  fill="#268F45" stroke-width="0" stroke="#268F45" d = " M282 121 C282,124.24 291.992,129 295,129 295,125.148 302.142,122.784 300,118.5 299.426,117.353 301.064,114 299,114 299,125.646 290.151,121 282,121  Z"/>

<path  fill="#268F45" stroke-width="0" stroke="#268F45" d = " M175 121 C175,123.877 164.039,129 161,129 161,126.629 157.263,124.027 156,121.5 155.43,120.36 155.737,115 157,115 157,125.641 167.807,121 175,121  Z"/>

<path  fill="#238A5E" stroke-width="0" stroke="#238A5E" d = " M188 120 L189,120 C189,120 189,115 189,115 189,115 181,119 181,119 181,119 188,120 188,120  Z"/>

<path  fill="#248A5D" stroke-width="0" stroke="#248A5D" d = " M189 120 L209,120 C209,120 209,119 209,119 202.648,119 196.191,115 189,115 189,115 189,120 189,120  Z"/>

<path  fill="#248A5D" stroke-width="0" stroke="#248A5D" d = " M248 120 L268,120 C268,120 267,115 267,115 260.123,115 253.22,119 248,119 248,119 248,120 248,120  Z"/>

<path  fill="#238A5E" stroke-width="0" stroke="#238A5E" d = " M275 119 C273.181,119 270.409,120 268,120 268,120 267,115 267,115 268.49,115 275,117.206 275,119  Z"/>

<path  fill="#268F45" stroke-width="0" stroke="#268F45" d = " M179 119 L178,120 C178,120 179,119 179,119  Z"/>

<path  fill="#238A5D" stroke-width="0" stroke="#238A5D" d = " M173 133 C167.978,133 164.352,141 159,141 159,141 161,129 161,129 164.039,129 175,123.877 175,121 175,121 177,120 177,120 177,120 178,120 178,120 178,120 179,119 179,119 179,119 181,119 181,119 181,119 188,120 188,120 188,120 187,129 187,129 182.115,129 178.277,132 174,132 174,132 173,133 173,133  Z"/>

<path  fill="#24885D" stroke-width="0" stroke="#24885D" d = " M209 120 L210,120 C210,120 209,119 209,119 209,119 209,120 209,120  Z"/>

<path  fill="#24885D" stroke-width="0" stroke="#24885D" d = " M247 120 L248,120 C248,120 248,119 248,119 248,119 247,120 247,120  Z"/>

<path  fill="#238A5D" stroke-width="0" stroke="#238A5D" d = " M298 141 L298,142 C298,142 282,132 282,132 278.146,132 274.597,129 270,129 270,129 268,120 268,120 270.409,120 273.181,119 275,119 275,119 279,120 279,120 279,120 281,121 281,121 281,121 282,121 282,121 282,124.24 291.992,129 295,129 295,133.329 298,136.604 298,141  Z"/>

<path  fill="#268F45" stroke-width="0" stroke="#268F45" d = " M177 120 L175,121 C175,121 177,120 177,120  Z"/>

<path  fill="#248A5B" stroke-width="0" stroke="#248A5B" d = " M191 129 C200.966,129 209.694,135 213,135 213,129.932 209,125.948 209,120 209,120 189,120 189,120 189,120 188,120 188,120 188,120 187,129 187,129 187,129 191,129 191,129  Z"/>

<path  fill="#248A5B" stroke-width="0" stroke="#248A5B" d = " M265 129 L270,129 C270,129 268,120 268,120 268,120 248,120 248,120 248,120 247,120 247,120 247,124.709 244,129.427 244,135 244,135 250.5,131 250.5,131 254.545,128.978 260.117,129 265,129  Z"/>

<path  fill="#268F45" stroke-width="0" stroke="#268F45" d = " M279 120 L281,121 C281,121 279,120 279,120  Z"/>

<path  fill="#9DF0D1" stroke-width="0" stroke="#9DF0D1" d = " M173 142 L179.5,146 C184.149,148.325 189.088,143 193,143 193,140.142 194,137.722 194,135 194,135 191,129 191,129 191,129 187,129 187,129 182.115,129 178.277,132 174,132 174,132 173,133 173,133 173,136.324 173,139.16 173,142  Z"/>

<path  fill="#99D2BD" stroke-width="0" stroke="#99D2BD" d = " M217 145 L216,142.5 C216,137.974 222.505,145 223,145 223,142.662 221,140.138 221,137 219.527,137 213,141.296 213,135 209.694,135 200.966,129 191,129 191,129 194,135 194,135 199.838,135 203.849,134.174 209.5,137 211.625,138.062 216.153,145 217,145  Z"/>

<path  fill="#99D2BD" stroke-width="0" stroke="#99D2BD" d = " M235 143 C239.309,143 239,138.416 239,145 241.167,145 244.033,138.233 246.5,137 252.04,134.23 256.303,135 262,135 262,135 265,129 265,129 260.117,129 254.545,128.978 250.5,131 250.5,131 244,135 244,135 243.33,135 242.401,138 236,138 236,138 235,143 235,143  Z"/>

<path  fill="#9DF0D1" stroke-width="0" stroke="#9DF0D1" d = " M283 142 L281,143.5 C274.997,149.503 269.744,143 264,143 264,140.662 262,138.138 262,135 262,135 265,129 265,129 265,129 270,129 270,129 274.597,129 278.146,132 282,132 282,134.755 284,137.553 284,141 284,141 283,142 283,142  Z"/>

<path  fill="#99D2BD" stroke-width="0" stroke="#99D2BD" d = " M174 132 L173,133 C173,133 174,132 174,132  Z"/>

<path  fill="#99D2BD" stroke-width="0" stroke="#99D2BD" d = " M279 224 C280.429,224 283,222.213 283,225 284.845,225 284.441,221.619 285,220.5 287.272,215.955 288.761,210.978 291,206.5 300.259,187.981 303,167.264 303,146 300.595,146 298,144.681 298,142 298,142 282,132 282,132 282,134.755 284,137.553 284,141 289.152,141 288,149.26 288,153 290.313,153 293,150.727 293,155 298.663,155 297,168.634 297,173 297,185.596 292.287,199.925 287,210.5 286.171,212.158 279,223.437 279,224  Z"/>

<path  fill="#99D2BD" stroke-width="0" stroke="#99D2BD" d = " M177 224 C175.288,224 174,222.788 174,226 172.833,226 167.168,210.835 166,208.5 156.841,190.181 153,168.244 153,146 154.145,146 157,146.579 157,145 157,145 158,144 158,144 158,144 158,143 158,143 158,143 159,141 159,141 164.352,141 167.978,133 173,133 173,136.324 173,139.16 173,142 166.279,142 169,149.066 169,154 167.277,154 163,149.824 163,155 157.833,155 159,169.816 159,173.5 159,185.047 166.042,204.584 171,214.5 171,214.5 177,224 177,224  Z"/>

<path  fill="#9AD1BD" stroke-width="0" stroke="#9AD1BD" d = " M175 228 C175,238.019 193.088,251 202,251 210.845,251 213.713,244.074 217,237.5 224.558,222.385 226,205.249 226,187 226,187 226,166.5 226,166.5 223.677,161.854 223.366,156.233 221,151.5 219.93,149.36 217,147.558 217,145 216.153,145 211.625,138.062 209.5,137 203.849,134.174 199.838,135 194,135 194,137.722 193,140.142 193,143 193,143.17 195,150.269 195,154 199.369,154 195,158.091 195,159 195,159 195,165 195,165 195,175.459 192,183.5 192,194 192,197.91 195.673,217 188,217 188,217 182,222 182,222 182,222 184,227.5 184,227.5 182.654,230.192 177,226.395 177,224 175.288,224 174,222.788 174,226 174,226 174,227 174,227 174,227 175,228 175,228  Z"/>

<path  fill="#9AD1BD" stroke-width="0" stroke="#9AD1BD" d = " M281 229 C281,237.898 262.075,251 254,251 243.061,251 240.573,238.646 237,231.5 229.489,216.479 231,197.617 231,179.5 231,179.5 231,161.5 231,161.5 231,161.5 237,148 237,148 237,148 238,147 238,147 238,147 239,145 239,145 241.167,145 244.033,138.233 246.5,137 252.04,134.23 256.303,135 262,135 262,138.138 264,140.662 264,143 258.44,143 262,152.875 262,155 258.582,155 260.62,159 262,159 262,162.019 262,162.981 262,166 260.749,166 260.464,170.427 261,171.5 263.186,175.871 264,182.313 264,187.5 264,188.778 263.335,193 265,193 265,193 265,195 265,195 265,195 264,197 264,197 264,200.785 261.655,217 268,217 268,217 274,222 274,222 274,223.606 271.919,226.339 273,228.5 273.965,230.43 279,225.159 279,224 280.429,224 283,222.213 283,225 283,225 283,226 283,226 283,226 282,227 282,227 282,227 282,228 282,228 282,228 281,229 281,229  Z"/>

<path  fill="#209764" stroke-width="0" stroke="#209764" d = " M157 145 C157,146.579 154.145,146 153,146 153,143.036 143,142.7 143,138 143,138 158,141 158,141 158,141 158,143 158,143 158,143 158,144 158,144 158,144 157,145 157,145  Z"/>

<path  fill="#209764" stroke-width="0" stroke="#209764" d = " M298 142 C298,144.681 300.595,146 303,146 303,143.531 314,142.391 314,138 314,138 298,141 298,141 298,141 298,142 298,142  Z"/>

<path  fill="#238A5D" stroke-width="0" stroke="#238A5D" d = " M159 141 L158,143 C158,143 158,141 158,141 158,141 159,141 159,141  Z"/>

<path  fill="#9DEFD2" stroke-width="0" stroke="#9DEFD2" d = " M195 154 L194,155 C194,155 188.5,159 188.5,159 184.801,160.85 169,158.078 169,154 169,149.066 166.279,142 173,142 173,142 179.5,146 179.5,146 184.149,148.325 189.088,143 193,143 193,143.17 195,150.269 195,154  Z"/>

<path  fill="#CAC8C9" stroke-width="0" stroke="#CAC8C9" d = " M224 153 L225,153 C225,148.997 223,149.003 223,145 222.505,145 216,137.974 216,142.5 216,142.5 217,145 217,145 217,145 224,153 224,153  Z"/>

<path  fill="#CAC8C9" stroke-width="0" stroke="#CAC8C9" d = " M231 153 L232,153 C232,153 237,148 237,148 237,148 238,147 238,147 238,147 239,145 239,145 239,138.416 239.309,143 235,143 235,143 234,145 234,145 234,145 231,153 231,153  Z"/>

<path  fill="#99D2BD" stroke-width="0" stroke="#99D2BD" d = " M284 141 L283,142 C283,142 284,141 284,141  Z"/>

<path  fill="#9DEFD2" stroke-width="0" stroke="#9DEFD2" d = " M262 155 C266.303,155 270.489,163.006 276.5,160 278.842,158.829 284.562,155 287,155 287,155 288,153 288,153 288,149.26 289.152,141 284,141 284,141 283,142 283,142 283,142 281,143.5 281,143.5 274.997,149.503 269.744,143 264,143 258.44,143 262,152.875 262,155  Z"/>

<path  fill="#99D2BD" stroke-width="0" stroke="#99D2BD" d = " M235 143 L234,145 C234,145 235,143 235,143  Z"/>

<path  fill="#238A5D" stroke-width="0" stroke="#238A5D" d = " M158 144 L157,145 C157,145 158,144 158,144  Z"/>

<path  fill="#C7CBCA" stroke-width="0" stroke="#C7CBCA" d = " M227 211 C227,221.891 227.212,245.075 223,253.5 220.59,258.321 202,255.008 202,251 210.845,251 213.713,244.074 217,237.5 224.558,222.385 226,205.249 226,187 226,187 226,166.5 226,166.5 223.677,161.854 223.366,156.233 221,151.5 219.93,149.36 217,147.558 217,145 217,145 224,153 224,153 224,153 225,154 225,154 225,154 227,159.5 227,159.5 227,159.5 228,199 228,199 226.219,199 227,209.176 227,211  Z"/>

<path  fill="#C7CBCA" stroke-width="0" stroke="#C7CBCA" d = " M239 145 L238,147 C238,147 239,145 239,145  Z"/>

<path  fill="#C7CBCA" stroke-width="0" stroke="#C7CBCA" d = " M238 147 L237,148 C237,148 238,147 238,147  Z"/>

<path  fill="#C7CBCA" stroke-width="0" stroke="#C7CBCA" d = " M231 154 C231,156.654 230.112,159.275 229,161.5 L229,204 C229,209.809 227.532,218.565 230,223.5 L231,246.5 C232.203,248.906 232.608,253.554 235.5,255 238.918,256.709 254,256.702 254,251 243.061,251 240.573,238.646 237,231.5 229.489,216.479 231,197.617 231,179.5 231,179.5 231,161.5 231,161.5 231,161.5 237,148 237,148 237,148 232,153 232,153 232,153 231,154 231,154  Z"/>

<path  fill="#CACAC9" stroke-width="0" stroke="#CACAC9" d = " M165 161 L167,161 C167,158.008 180.119,162.31 181.5,163 185.308,164.904 191.34,159 195,159 195,158.091 199.369,154 195,154 195,154 194,155 194,155 194,155 188.5,159 188.5,159 184.801,160.85 169,158.078 169,154 167.277,154 163,149.824 163,155 163,155 165,161 165,161  Z"/>

<path  fill="#CACAC9" stroke-width="0" stroke="#CACAC9" d = " M290 161 L291,161 C292.353,161 293,156.357 293,155 293,150.727 290.313,153 288,153 288,153 287,155 287,155 284.562,155 278.842,158.829 276.5,160 270.489,163.006 266.303,155 262,155 258.582,155 260.62,159 262,159 265.72,159 271.097,165.202 275.5,163 276.743,162.378 290,157.57 290,161  Z"/>

<path  fill="#99D2BD" stroke-width="0" stroke="#99D2BD" d = " M225 153 L225,154 C225,154 224,153 224,153 224,153 225,153 225,153  Z"/>

<path  fill="#99D2BD" stroke-width="0" stroke="#99D2BD" d = " M232 153 L231,154 C231,154 231,153 231,153 231,153 232,153 232,153  Z"/>

<path  fill="#99D2BD" stroke-width="0" stroke="#99D2BD" d = " M288 153 L287,155 C287,155 288,153 288,153  Z"/>

<path  fill="#9AD1BD" stroke-width="0" stroke="#9AD1BD" d = " M195 154 L194,155 C194,155 195,154 195,154  Z"/>

<path  fill="#CAC8C7" stroke-width="0" stroke="#CAC8C7" d = " M182 222 L184,227.5 C182.654,230.192 177,226.395 177,224 177,224 171,214.5 171,214.5 166.042,204.584 159,185.047 159,173.5 159,169.816 157.833,155 163,155 163,155 165,161 165,161 165,161 165,162 165,162 165,162 163,166.5 163,166.5 158.057,176.386 170.141,201.783 174,209.5 175.124,211.748 178.907,222 182,222  Z"/>

<path  fill="#CAC8C7" stroke-width="0" stroke="#CAC8C7" d = " M274 222 C274,223.606 271.919,226.339 273,228.5 273.965,230.43 279,225.159 279,224 279,223.437 286.171,212.158 287,210.5 292.287,199.925 297,185.596 297,173 297,168.634 298.663,155 293,155 293,156.357 292.353,161 291,161 291,161 291,162 291,162 291,165.918 296.485,171.531 294,176.5 292.808,178.883 294.137,182.225 293,184.5 288.582,193.336 285.472,202.555 281,211.5 279.878,213.744 277.961,222 274,222  Z"/>

<path  fill="#95E4C8" stroke-width="0" stroke="#95E4C8" d = " M195 165 L192.5,169 C189.306,170.597 187.284,169 184,169 184,169 167,162 167,162 167,162 167,161 167,161 167,158.008 180.119,162.31 181.5,163 185.308,164.904 191.34,159 195,159 195,159 195,165 195,165  Z"/>

<path  fill="#95E4C8" stroke-width="0" stroke="#95E4C8" d = " M262 166 C262,170.835 269.828,169 272,169 278.144,169 283.328,162 289,162 289,162 290,161 290,161 290,157.57 276.743,162.378 275.5,163 271.097,165.202 265.72,159 262,159 262,162.019 262,162.981 262,166  Z"/>

<path  fill="#99D2BD" stroke-width="0" stroke="#99D2BD" d = " M165 162 L167,162 C167,162 167,161 167,161 167,161 165,161 165,161 165,161 165,162 165,162  Z"/>

<path  fill="#99D2BD" stroke-width="0" stroke="#99D2BD" d = " M289 162 L291,162 C291,162 291,161 291,161 291,161 290,161 290,161 290,161 289,162 289,162  Z"/>

<path  fill="#54BF94" stroke-width="0" stroke="#54BF94" d = " M188 217 L182,222 C178.907,222 175.124,211.748 174,209.5 170.141,201.783 158.057,176.386 163,166.5 163,166.5 165,162 165,162 165,162 167,162 167,162 167,162 184,169 184,169 184,170.402 186,170.901 186,176 180.412,176 187.576,192.651 189,195.5 189,195.5 189,212.5 189,212.5 189,212.5 186,215.5 186,215.5 185.259,216.982 187.147,217 188,217  Z"/>

<path  fill="#54BF94" stroke-width="0" stroke="#54BF94" d = " M268 217 L274,222 C277.961,222 279.878,213.744 281,211.5 285.472,202.555 288.582,193.336 293,184.5 294.137,182.225 292.808,178.883 294,176.5 296.485,171.531 291,165.918 291,162 291,162 289,162 289,162 283.328,162 278.144,169 272,169 272,170.834 270,172.838 270,176 276.285,176 268.602,194.296 267,197.5 267,197.5 267,211.5 267,211.5 267,211.5 271,215.5 271,215.5 271,215.5 268,217 268,217  Z"/>

<path  fill="#99D2BD" stroke-width="0" stroke="#99D2BD" d = " M186 176 C189.197,176 190.273,194 192,194 192,183.5 195,175.459 195,165 195,165 192.5,169 192.5,169 189.306,170.597 187.284,169 184,169 184,170.402 186,170.901 186,176  Z"/>

<path  fill="#99D2BD" stroke-width="0" stroke="#99D2BD" d = " M270 176 C270,180.977 265,187.565 265,193 263.335,193 264,188.778 264,187.5 264,182.313 263.186,175.871 261,171.5 260.464,170.427 260.749,166 262,166 262,170.835 269.828,169 272,169 272,170.834 270,172.838 270,176  Z"/>

<path  fill="#CBCBC7" stroke-width="0" stroke="#CBCBC7" d = " M192 194 C192,197.91 195.673,217 188,217 187.147,217 185.259,216.982 186,215.5 186,215.5 189,212.5 189,212.5 189,212.5 189,195.5 189,195.5 187.576,192.651 180.412,176 186,176 189.197,176 190.273,194 192,194  Z"/>

<path  fill="#CBCBC7" stroke-width="0" stroke="#CBCBC7" d = " M264 197 C264,200.785 261.655,217 268,217 268,217 271,215.5 271,215.5 271,215.5 267,211.5 267,211.5 267,211.5 267,197.5 267,197.5 268.602,194.296 276.285,176 270,176 270,180.977 265,187.565 265,193 265,193 265,195 265,195 265,195 264,197 264,197  Z"/>

<path  fill="#99D2BD" stroke-width="0" stroke="#99D2BD" d = " M265 195 L264,197 C264,197 265,195 265,195  Z"/>

<path  fill="#99D2BD" stroke-width="0" stroke="#99D2BD" d = " M228 199 C226.219,199 227,209.176 227,211 228.781,211 228,200.824 228,199  Z"/>

<path  fill="#99D2BD" stroke-width="0" stroke="#99D2BD" d = " M283 226 L282,227 C282,227 283,226 283,226  Z"/>

<path  fill="#99D2BD" stroke-width="0" stroke="#99D2BD" d = " M174 227 L175,228 C175,228 174,227 174,227  Z"/>

<path  fill="#99D2BD" stroke-width="0" stroke="#99D2BD" d = " M282 228 L281,229 C281,229 282,228 282,228  Z"/>

</g>
</svg>
