<svg xmlns="http://www.w3.org/2000/svg" xmlns:xlink="http://www.w3.org/1999/xlink"  viewBox="0 0 456 320">
<g>
<rect width="456" height="320" fill="#000000"  stroke-width="0" /> 
<path  fill="#FEFA90" stroke-width="0" stroke="#FEFA90" d = " M185 93 C192.305,93 199.926,95 208,95 L261.5,95 C263.689,93.9057 268.593,93 271,93 271,87.1648 264.634,81.0672 258.5,78 249.69,73.5952 208.647,72.4265 199.5,77 193.099,80.2005 185,86.8332 185,93  Z"/>

<path  fill-rule="evenodd" fill="#FDFB90" stroke-width="0" stroke="#FDFB90" d = " M211 108 C211,109.264 201.004,109.248 199.5,110 L196,110.5 L202.5,111 C209.104,107.698 220.691,109 228.5,109 236.134,109 247.063,107.782 253.5,111 L261,110.5 C261,109.424 250.554,109 249,109 237.001,109 223.643,108 211,108  M182 131 C183.701,131 197.024,124.238 199.5,123 205.55,119.975 217.364,123.068 223.5,120 227.585,117.958 259.78,123.14 263.5,125 L274,131 C276.064,131 274.426,127.647 275,126.5 276.319,123.862 281.228,107 283,107 283,107 283,100 283,100 282.105,100 274.948,93 271,93 268.593,93 263.689,93.9057 261.5,95 261.5,95 208,95 208,95 199.926,95 192.305,93 185,93 185,94.4536 179.634,94.4331 178.5,95 178.5,95 173,100 173,100 173,100 174,107 174,107 175.183,107 175.535,110.57 176,111.5 178.536,116.573 182,125.146 182,131  Z"/>

<path  fill="#FCFA91" stroke-width="0" stroke="#FCFA91" d = " M174 107 C166.432,107 144.537,122.982 136.5,127 L125,135 C122.543,135 120.478,138.489 117.5,137 115.924,136.212 115.106,129.288 116,127.5 116,127.5 125,116.5 125,116.5 125,116.5 122,113.5 122,113.5 123.246,111.008 129.826,105.837 131.5,105 137.642,101.929 158.618,92.059 166.5,96 167.84,96.67 172.952,100 173,100 173,100 174,107 174,107  Z"/>

<path  fill="#FCFA91" stroke-width="0" stroke="#FCFA91" d = " M283 107 C288.878,107 316.246,123.746 321,128.5 L331,135 C333.457,135 335.522,138.489 338.5,137 344.951,133.774 338.638,126.775 337,123.5 337,123.5 332,117.5 332,117.5 332,117.5 335,114.5 335,114.5 335,113.59 322.764,103.632 321.5,103 316.252,100.376 296.172,92.6642 289.5,96 288.212,96.6439 283.646,100 283,100 283,100 283,107 283,107  Z"/>

<path  fill="#FFFB8E" stroke-width="0" stroke="#FFFB8E" d = " M142 178 L138,182 C133.781,182 130.504,185.502 125.5,183 122.635,181.568 110.587,163.674 109,160.5 109,160.5 111,150.5 111,150.5 112.399,147.702 125,135.192 125,135 125,135 136.5,127 136.5,127 144.537,122.982 166.432,107 174,107 175.183,107 175.535,110.57 176,111.5 178.536,116.573 182,125.146 182,131 182,131 182,132 182,132 178.544,132 175.392,138.108 173,140.5 164.731,148.769 153.995,158.509 149,168.5 149,168.5 143,177 143,177 143,177 142,178 142,178  Z"/>

<path  fill="#FFFB8E" stroke-width="0" stroke="#FFFB8E" d = " M313 176 L320,183 C335.106,183 333.259,182.982 340,169.5 343.218,163.063 351.029,162.558 346,152.5 343.518,147.535 340.346,143.846 336,139.5 336,139.5 331,135 331,135 331,135 321,128.5 321,128.5 316.246,123.746 288.878,107 283,107 281.228,107 276.319,123.862 275,126.5 274.426,127.647 276.064,131 274,131 274,131 274,132 274,132 278.462,132 280.542,139.521 283.5,141 290.516,144.508 302.832,160.165 307,168.5 307.87,170.24 313,173.16 313,176  Z"/>

<path  fill="#CBC9CC" stroke-width="0" stroke="#CBC9CC" d = " M211 108 C211,109.264 201.004,109.248 199.5,110 L196,110.5 L202.5,111 C209.104,107.698 220.691,109 228.5,109 236.134,109 247.063,107.782 253.5,111 L261,110.5 C261,109.424 250.554,109 249,109 237.001,109 223.643,108 211,108  Z"/>

<path  fill="#FBFC91" stroke-width="0" stroke="#FBFC91" d = " M185 145 C187.438,145 192.619,140.441 195.5,139 199.912,136.794 238.048,132.274 243.5,135 250.171,138.335 258.772,137.636 265.5,141 L272,146 C272,146 274,132 274,132 274,132 274,131 274,131 274,131 263.5,125 263.5,125 259.78,123.14 227.585,117.958 223.5,120 217.364,123.068 205.55,119.975 199.5,123 197.024,124.238 183.701,131 182,131 182,131 182,132 182,132 184.114,132 182.714,145 185,145  Z"/>

<path  fill-rule="evenodd" fill="#FFF990" stroke-width="0" stroke="#FFF990" d = " M164 171 C164,172.93 165.93,171 164,171  M169 163 C169,163.995 164.392,171 165.5,171 166.685,171 173.783,163 169,163  M172 183 C168.95,183 139,206.142 139,184 139,184 142,178 142,178 142,178 143,177 143,177 143,177 149,168.5 149,168.5 153.995,158.509 164.731,148.769 173,140.5 175.392,138.108 178.544,132 182,132 184.114,132 182.714,145 185,145 185,149.019 176.106,153.288 174,157.5 173.84,157.819 169.26,164.62 172.5,163 176.217,161.142 180.079,149 185,149 185,149 185,165 185,165 185,165 180,172 180,172 180,172 179,173 179,173 179,173 175,178 175,178 175,178 174,179 174,179 174,179 173,180 173,180 173,180 172,183 172,183  Z"/>

<path  fill="#FFF990" stroke-width="0" stroke="#FFF990" d = " M285 183 L289.5,187 C298.145,191.323 317,199.127 317,183 316.006,183 313,177.243 313,176 313,173.16 307.87,170.24 307,168.5 302.832,160.165 290.516,144.508 283.5,141 280.542,139.521 278.462,132 274,132 274,132 272,146 272,146 272,147.593 285.244,160.988 287,164.5 287.227,164.953 292.016,170 290.5,170 290.5,170 272,149 272,149 272,153.27 271,159.067 271,164 271,167.345 277,169.413 277,173 278.871,173 283,178.4 283,180 283,180 284,182 284,182 284,182 285,183 285,183  Z"/>

<path  fill="#CBC9CC" stroke-width="0" stroke="#CBC9CC" d = " M185 149 C185,143.383 200.308,141.596 203.5,140 212.778,135.361 250.53,136.515 259.5,141 L267.5,145 L272,149 C272,149 290.5,170 290.5,170 292.016,170 287.227,164.953 287,164.5 285.244,160.988 272,147.593 272,146 272,146 265.5,141 265.5,141 258.772,137.636 250.171,138.335 243.5,135 238.048,132.274 199.912,136.794 195.5,139 192.619,140.441 187.438,145 185,145 185,149.019 176.106,153.288 174,157.5 173.84,157.819 169.26,164.62 172.5,163 176.217,161.142 180.079,149 185,149  Z"/>

<path  fill="#FBFC91" stroke-width="0" stroke="#FBFC91" d = " M271 164 L260.5,158 C252.243,153.871 234.765,155 224.5,155 L212.5,155 C206.881,157.809 199.155,156.172 193.5,159 L185,165 C185,165 185,149 185,149 185,143.383 200.308,141.596 203.5,140 212.778,135.361 250.53,136.515 259.5,141 259.5,141 267.5,145 267.5,145 267.5,145 272,149 272,149 272,153.27 271,159.067 271,164  Z"/>

<path  fill="#FFFA8F" stroke-width="0" stroke="#FFFA8F" d = " M180 172 C185.362,172 192.956,171.728 197.5,174 L220.5,172 C238.955,172 258.88,173 277,173 277,169.413 271,167.345 271,164 271,164 260.5,158 260.5,158 252.243,153.871 234.765,155 224.5,155 224.5,155 212.5,155 212.5,155 206.881,157.809 199.155,156.172 193.5,159 193.5,159 185,165 185,165 185,165 180,172 180,172  Z"/>

<path  fill="#CBC9CC" stroke-width="0" stroke="#CBC9CC" d = " M169 163 C169,163.995 164.392,171 165.5,171 166.685,171 173.783,163 169,163  Z"/>

<path  fill="#CBC9CC" stroke-width="0" stroke="#CBC9CC" d = " M164 171 C164,172.93 165.93,171 164,171  Z"/>

<path  fill="#FFFA8F" stroke-width="0" stroke="#FFFA8F" d = " M180 172 L179,173 C179,173 180,172 180,172  Z"/>

<path  fill="#CBC9CC" stroke-width="0" stroke="#CBC9CC" d = " M175 178 C179.961,178 208.074,178.713 211.5,177 213.263,176.118 230.799,174.15 232.5,175 239.604,178.552 263.907,177 273.5,177 277.326,177 280.361,180 283,180 283,178.4 278.871,173 277,173 258.88,173 238.955,172 220.5,172 220.5,172 197.5,174 197.5,174 192.956,171.728 185.362,172 180,172 180,172 179,173 179,173 179,173 175,178 175,178  Z"/>

<path  fill="#FFFA8F" stroke-width="0" stroke="#FFFA8F" d = " M172 183 C172,192.606 189.325,190.413 194.5,193 206.746,199.123 249.251,199.125 261.5,193 266.887,190.307 284,192.641 284,184 284,184 284,182 284,182 284,182 283,180 283,180 280.361,180 277.326,177 273.5,177 263.907,177 239.604,178.552 232.5,175 230.799,174.15 213.263,176.118 211.5,177 208.074,178.713 179.961,178 175,178 175,178 174,179 174,179 174,179 173,180 173,180 173,180 172,183 172,183  Z"/>

<path  fill="#F0F080" stroke-width="0" stroke="#F0F080" d = " M317 183 C318.333,183 318.667,183 320,183 320,183 313,176 313,176 313,177.243 316.006,183 317,183  Z"/>

<path  fill="#F0F080" stroke-width="0" stroke="#F0F080" d = " M143 177 L142,178 C142,178 143,177 143,177  Z"/>

<path  fill="#F0F080" stroke-width="0" stroke="#F0F080" d = " M138 182 L139,184 C139,184 142,178 142,178 142,178 138,182 138,182  Z"/>

<path  fill="#CBC9CC" stroke-width="0" stroke="#CBC9CC" d = " M175 178 L174,179 C174,179 175,178 175,178  Z"/>

<path  fill="#CBC9CC" stroke-width="0" stroke="#CBC9CC" d = " M174 179 L173,180 C173,180 174,179 174,179  Z"/>

<path  fill="#F0F080" stroke-width="0" stroke="#F0F080" d = " M285 183 L284,184 C284,184 284,182 284,182 284,182 285,183 285,183  Z"/>

<path  fill="#FF9BCD" stroke-width="0" stroke="#FF9BCD" d = " M212 239 L216,240 C216,236.364 210.75,232 213,227.5 215.268,222.963 225.086,230.672 226,232.5 226,232.5 228.5,235 228.5,235 228.5,235 232.5,230 232.5,230 232.5,230 236,227 236,227 236,227 231,227 231,227 231,227 229,229 229,229 229,231.212 228,231.212 228,229 226.253,229 226,228.747 226,227 220.193,227 213.254,223 211,223 204.603,223 203,223.828 203,217 192.683,217 186,217.625 186,205 186,205 185,203 185,203 185,201.506 178,202.349 178,193 171.083,193 147,201.366 147,210 147,210 153.5,204 153.5,204 157.656,201.922 161.392,199.054 165.5,197 167.767,195.866 178.177,198.147 177,200.5 176.198,202.103 174.847,200 174,200 174,200 166,201 166,201 166,201 167,203 167,203 167,203 175.5,202 175.5,202 177.891,203.196 188.51,212.48 187,215.5 187,215.5 183,221 183,221 190.291,221 208,221.185 208,231 213.459,231 212,235.752 212,239  Z"/>

<path  fill="#FFA2D2" stroke-width="0" stroke="#FFA2D2" d = " M187 203 L188,203 C188,203 189,202 189,202 189,202 190,197 190,197 190,193.847 183,195.247 183,193 183,193 178,193 178,193 178,202.349 185,201.506 185,203 185,203 187,203 187,203  Z"/>

<path  fill="#FF9BCD" stroke-width="0" stroke="#FF9BCD" d = " M197 196 C194.591,196 191.819,197 190,197 190,193.847 183,195.247 183,193 184.354,193 197,195.616 197,196  Z"/>

<path  fill="#FF9BCD" stroke-width="0" stroke="#FF9BCD" d = " M274 193 C272.407,193 267,193.337 267,195 268.593,195 274,194.663 274,193  Z"/>

<path  fill="#FFA2D2" stroke-width="0" stroke="#FFA2D2" d = " M270 203 L271,203 C277.38,203 278,196.898 278,193 278,193 274,193 274,193 274,194.663 268.593,195 267,195 267,195 266,196 266,196 266,198.765 268,201.165 268,203 268,203 270,203 270,203  Z"/>

<path  fill="#FF9BCD" stroke-width="0" stroke="#FF9BCD" d = " M270 205 C270,206.564 271,208.876 271,211 271,211 277.5,204 277.5,204 282.42,201.54 284.853,203 290,203 290,203 290,201 290,201 290,201 282,200 282,200 281.153,200 279.802,202.103 279,200.5 278.202,198.905 281.735,198.383 282.5,198 286.483,196.009 292.792,197.146 296.5,199 300.217,200.858 311.888,214 313,214 313,203.932 286.242,193 278,193 278,196.898 277.38,203 271,203 271,203 270,205 270,205  Z"/>

<path  fill="#FF9BCD" stroke-width="0" stroke="#FF9BCD" d = " M259 196 L266,196 C266,196 267,195 267,195 265.51,195 259,194.265 259,196  Z"/>

<path  fill="#FDA5D0" stroke-width="0" stroke="#FDA5D0" d = " M204 216 L203,217 C192.683,217 186,217.625 186,205 186,205 188,204 188,204 188,204 188,203 188,203 188,203 189,202 189,202 189,202 190,197 190,197 191.819,197 194.591,196 197,196 197,196 199,196 199,196 199,196 201,197 201,197 201,197 203,197 203,197 203,197 205,199 205,199 205,199 210,209 210,209 210,209 209,211 209,211 209,211 204,216 204,216  Z"/>

<path  fill="#FF9BCD" stroke-width="0" stroke="#FF9BCD" d = " M199 196 L201,197 C201,197 199,196 199,196  Z"/>

<path  fill="#FF9BCD" stroke-width="0" stroke="#FF9BCD" d = " M258 196 L256,197 C256,197 258,196 258,196  Z"/>

<path  fill="#FDA5D0" stroke-width="0" stroke="#FDA5D0" d = " M249 213 L253,217 C256.689,217 260.644,218.928 264.5,217 264.5,217 271,211 271,211 271,208.876 270,206.564 270,205 270,205 269,204 269,204 269,204 268,203 268,203 268,201.165 266,198.765 266,196 266,196 259,196 259,196 259,196 258,196 258,196 258,196 256,197 256,197 256,197 254,197 254,197 254,198.577 252.238,199 251,199 251,199 247,208 247,208 247,210.25 249,211.376 249,213  Z"/>

<path  fill="#C8CACA" stroke-width="0" stroke="#C8CACA" d = " M148 270 L149,272 C149,272 154,276.5 154,276.5 154,278.451 148.74,275.12 148.5,275 148.5,275 141,262.5 141,262.5 135.569,251.638 139,237.047 139,225 139,225 139,224 139,224 140.638,224 141,220.424 141,219 141,219 142,217 142,217 142,217 143,215 143,215 143,215 144,214 144,214 144,214 145,213 145,213 145,213 145,212 145,212 145,212 146,211 146,211 146,211 147,210 147,210 147,210 153.5,204 153.5,204 157.656,201.922 161.392,199.054 165.5,197 167.767,195.866 178.177,198.147 177,200.5 176.198,202.103 174.847,200 174,200 174,200 166,201 166,201 163.446,201 157,201.255 157,205 157,205 155,207 155,207 153.762,207 152,207.423 152,209 152,209 151,210 151,210 149.189,210 147,213.438 147,215 147,215 145,219 145,219 145,219 143,223 143,223 143,223 143,225 143,225 141.527,225 142,226.952 142,228 142,228 142,230 142,230 140.421,230 141,232.855 141,234 141,234 141,255 141,255 141,255 142,257 142,257 142,257 142,259 142,259 142,259 143,260 143,260 143,260 144,264 144,264 144,264 145,265 145,265 145,265 145,266 145,266 145,266 146,267 146,267 146,267 146,268 146,268 146,268 148,270 148,270  Z"/>

<path  fill="#FF9BCD" stroke-width="0" stroke="#FF9BCD" d = " M206 198 L205,199 C205,199 203,197 203,197 204.048,197 206,196.527 206,198  Z"/>

<path  fill="#FF9BCD" stroke-width="0" stroke="#FF9BCD" d = " M207 198 L208,198 C208,196.814 207,196.814 207,198  Z"/>

<path  fill="#FF9BCD" stroke-width="0" stroke="#FF9BCD" d = " M248 198 L249,198 C249,196.814 248,196.814 248,198  Z"/>

<path  fill="#FF9BCD" stroke-width="0" stroke="#FF9BCD" d = " M250 198 L251,199 C252.238,199 254,198.577 254,197 254,197 250,198 250,198  Z"/>

<path  fill="#C8CACA" stroke-width="0" stroke="#C8CACA" d = " M308 275 L307,276 C303.607,276 304,278.356 304,275 304,275 305,274 305,274 305,274 306,273 306,273 306,273 307,272 307,272 307,272 308,271 308,271 308,271 309,270 309,270 309,270 310,268 310,268 310,268 311,267 311,267 311,267 312,264 312,264 312,264 313,263 313,263 313,263 314,259 314,259 314,259 315,258 315,258 315,258 315,251 315,251 316.622,251 316.622,242 315,242 315,242 315,231 315,231 315,225.156 306.754,205 300,205 299.124,205 294.45,201 290,201 290,201 282,200 282,200 281.153,200 279.802,202.103 279,200.5 278.202,198.905 281.735,198.383 282.5,198 286.483,196.009 292.792,197.146 296.5,199 300.217,200.858 311.888,214 313,214 313,214 313,215 313,215 313,215 317,223 317,223 317,223 317,224 317,224 317,229.965 321.925,240.651 319,246.5 317.34,249.819 317,255.098 317,259 315.362,259 315,262.576 315,264 315,264 313,268 313,268 311.423,268 311,269.762 311,271 311,271 310,273 310,273 310,273 309,274 309,274 309,274 308,275 308,275  Z"/>

<path  fill="#FEA3D0" stroke-width="0" stroke="#FEA3D0" d = " M210 209 L212,210 C215.045,210 222,212.724 222,207 222,207 221,205 221,205 221,205 221,203 221,203 219.939,203 216,200.429 216,199 216,199 208,198 208,198 208,198 207,198 207,198 207,198 206,198 206,198 206,198 205,199 205,199 205,199 210,209 210,209  Z"/>

<path  fill="#FF9BCD" stroke-width="0" stroke="#FF9BCD" d = " M244 198 L243,199 C243,199 244,198 244,198  Z"/>

<path  fill="#FEA3D0" stroke-width="0" stroke="#FEA3D0" d = " M247 208 L245,210 C241.73,210 235,212.669 235,207 235,207 235,206 235,206 235,206 235,204 235,204 235,204 239,200 239,200 239,200 240,200 240,200 240,200 241,199 241,199 241,199 243,199 243,199 243,199 244,198 244,198 244,198 248,198 248,198 248,198 249,198 249,198 249,198 250,198 250,198 250,198 251,199 251,199 251,199 247,208 247,208  Z"/>

<path  fill="#FF9BCD" stroke-width="0" stroke="#FF9BCD" d = " M225 202 C225,203.579 222.145,203 221,203 219.939,203 216,200.429 216,199 216.611,199 225,201.959 225,202  Z"/>

<path  fill="#FF9BCD" stroke-width="0" stroke="#FF9BCD" d = " M241 199 L240,200 C240,200 241,199 241,199  Z"/>

<path  fill="#FF9BCD" stroke-width="0" stroke="#FF9BCD" d = " M231 202 L235,204 C235,204 239,200 239,200 238.019,200 231,201.184 231,202  Z"/>

<path  fill="#FDA3D1" stroke-width="0" stroke="#FDA3D1" d = " M157 205 L157,206 C160.855,206 163.459,203 167,203 167,203 166,201 166,201 163.446,201 157,201.255 157,205  Z"/>

<path  fill="#FDA3D1" stroke-width="0" stroke="#FDA3D1" d = " M300 205 L299,206 C295.922,206 292.675,203 290,203 290,203 290,201 290,201 294.45,201 299.124,205 300,205  Z"/>

<path  fill="#FDA4D0" stroke-width="0" stroke="#FDA4D0" d = " M149 272 C149.781,272 153.65,275 158,275 160.671,275 165.973,266.554 167,264.5 168.586,261.328 167.439,256.622 169,253.5 172.59,246.32 173.405,237.69 177,230.5 177,230.5 183,221 183,221 183,221 187,215.5 187,215.5 188.51,212.48 177.891,203.196 175.5,202 175.5,202 167,203 167,203 163.459,203 160.855,206 157,206 157,206 155,207 155,207 155,208.577 153.238,209 152,209 152,209 151,210 151,210 151,211.562 148.811,215 147,215 147,216.465 147.109,219 145,219 145,220.465 145.109,223 143,223 143,223 143,225 143,225 143,226.048 143.473,228 142,228 142,228 142,230 142,230 142,231.145 142.579,234 141,234 141,234 141,255 141,255 141,255 142,257 142,257 142,257 142,259 142,259 142,259 143,260 143,260 143,260 144,264 144,264 144,264 145,265 145,265 145,265 145,266 145,266 145,266 146,267 146,267 146,267 146,268 146,268 146,268 148,270 148,270 148,270 149,272 149,272  Z"/>

<path  fill="#FF9BCD" stroke-width="0" stroke="#FF9BCD" d = " M189 202 L188,203 C188,203 189,202 189,202  Z"/>

<path  fill="#FFA5D0" stroke-width="0" stroke="#FFA5D0" d = " M234 207 L228.5,211 L224,208 C224,208 221,205 221,205 221,205 221,203 221,203 222.145,203 225,203.579 225,202 227.413,202 228.587,202 231,202 231,202 235,204 235,204 235,204 235,206 235,206 235,206 234,207 234,207  Z"/>

<path  fill="#FDA4D0" stroke-width="0" stroke="#FDA4D0" d = " M299 275 L304,275 C304,275 305,274 305,274 305,274 306,273 306,273 306,273 307,272 307,272 307,272 308,271 308,271 308,271 309,270 309,270 309,270 310,268 310,268 310,268 311,267 311,267 311,267 312,264 312,264 312,264 313,263 313,263 313,263 314,259 314,259 314,259 315,258 315,258 315,258 315,251 315,251 315,251 315,242 315,242 315,242 315,231 315,231 314.334,231 310.749,218.999 310,217.5 308.645,214.791 305.624,209.562 302.5,208 302.5,208 299,206 299,206 295.922,206 292.675,203 290,203 284.853,203 282.42,201.54 277.5,204 277.5,204 271,211 271,211 271,211 270,216.5 270,216.5 270,216.5 273,221 273,221 275.683,221 278.074,229.649 279,231.5 281.611,236.721 289.796,265.296 290.5,266 293.064,268.564 294.59,275 299,275  Z"/>

<path  fill="#CAC9CC" stroke-width="0" stroke="#CAC9CC" d = " M188 204 L186,205 C186,205 185,203 185,203 185,203 187,203 187,203 187,203 188,204 188,204  Z"/>

<path  fill="#FF9BCD" stroke-width="0" stroke="#FF9BCD" d = " M188 203 L188,204 C188,204 187,203 187,203 187,203 188,203 188,203  Z"/>

<path  fill="#FF9BCD" stroke-width="0" stroke="#FF9BCD" d = " M270 203 L269,204 C269,204 268,203 268,203 268,203 270,203 270,203  Z"/>

<path  fill="#CAC9CC" stroke-width="0" stroke="#CAC9CC" d = " M269 204 L270,205 C270,205 271,203 271,203 271,203 270,203 270,203 270,203 269,204 269,204  Z"/>

<path  fill="#FF9BCD" stroke-width="0" stroke="#FF9BCD" d = " M157 206 L155,207 C155,207 157,205 157,205 157,205 157,206 157,206  Z"/>

<path  fill="#FF9BCD" stroke-width="0" stroke="#FF9BCD" d = " M222 207 L224,208 C224,208 221,205 221,205 221,205 222,207 222,207  Z"/>

<path  fill="#FF9BCD" stroke-width="0" stroke="#FF9BCD" d = " M299 206 L302.5,208 C305.624,209.562 308.645,214.791 310,217.5 310.749,218.999 314.334,231 315,231 315,225.156 306.754,205 300,205 300,205 299,206 299,206  Z"/>

<path  fill="#FF9BCD" stroke-width="0" stroke="#FF9BCD" d = " M234 207 L235,207 C235,207 235,206 235,206 235,206 234,207 234,207  Z"/>

<path  fill="#FF9BCD" stroke-width="0" stroke="#FF9BCD" d = " M155 207 C153.762,207 152,207.423 152,209 153.238,209 155,208.577 155,207  Z"/>

<path  fill-rule="evenodd" fill="#FDA5D1" stroke-width="0" stroke="#FDA5D1" d = " M243 215 C243,223.29 249.398,215 243,215  M211 215 L210,217 C210,222.164 216.765,215 211,215  M228 229 L229,229 C229,229 231,227 231,227 231,213.13 245,218.296 245,223 251.563,223 253,223.839 253,217 253,217 249,213 249,213 249,213 245,210 245,210 241.73,210 235,212.669 235,207 235,207 234,207 234,207 234,207 228.5,211 228.5,211 228.5,211 224,208 224,208 224,208 222,207 222,207 222,212.724 215.045,210 212,210 212,210 209,211 209,211 209,211 204,216 204,216 204,216 203,217 203,217 203,223.828 204.603,223 211,223 211,218.361 226,213.515 226,227 226,228.747 226.253,229 228,229  Z"/>

<path  fill="#FF9BCD" stroke-width="0" stroke="#FF9BCD" d = " M245 210 L249,213 C249,211.376 247,210.25 247,208 247,208 245,210 245,210  Z"/>

<path  fill="#FF9BCD" stroke-width="0" stroke="#FF9BCD" d = " M152 209 L151,210 C151,210 152,209 152,209  Z"/>

<path  fill="#FF9BCD" stroke-width="0" stroke="#FF9BCD" d = " M212 210 L209,211 C209,211 210,209 210,209 210,209 212,210 212,210  Z"/>

<path  fill="#FF9BCD" stroke-width="0" stroke="#FF9BCD" d = " M147 210 L146,211 C146,211 147,210 147,210  Z"/>

<path  fill="#FF9BCD" stroke-width="0" stroke="#FF9BCD" d = " M151 210 C149.189,210 147,213.438 147,215 148.811,215 151,211.562 151,210  Z"/>

<path  fill="#FF9BCD" stroke-width="0" stroke="#FF9BCD" d = " M146 211 L145,212 C145,212 146,211 146,211  Z"/>

<path  fill="#FF9BCD" stroke-width="0" stroke="#FF9BCD" d = " M244 239 L241,240 C241,233.128 248.182,227 237,227 237,227 245,223 245,223 251.563,223 253,223.839 253,217 256.689,217 260.644,218.928 264.5,217 264.5,217 271,211 271,211 271,211 270,216.5 270,216.5 270,216.5 273,221 273,221 264.633,221 249,221.328 249,231 243.596,231 244,234.183 244,239  Z"/>

<path  fill="#FF9BCD" stroke-width="0" stroke="#FF9BCD" d = " M145 213 L144,214 C144,214 145,213 145,213  Z"/>

<path  fill="#FF9BCD" stroke-width="0" stroke="#FF9BCD" d = " M144 214 L143,215 C143,215 144,214 144,214  Z"/>

<path  fill="#FF9BCD" stroke-width="0" stroke="#FF9BCD" d = " M143 215 L142,217 C142,217 143,215 143,215  Z"/>

<path  fill="#FF9BCD" stroke-width="0" stroke="#FF9BCD" d = " M147 215 L145,219 C147.109,219 147,216.465 147,215  Z"/>

<path  fill="#C8CAC7" stroke-width="0" stroke="#C8CAC7" d = " M211 215 L210,217 C210,222.164 216.765,215 211,215  Z"/>

<path  fill="#C8CAC7" stroke-width="0" stroke="#C8CAC7" d = " M243 215 C243,223.29 249.398,215 243,215  Z"/>

<path  fill="#FF9BCD" stroke-width="0" stroke="#FF9BCD" d = " M313 215 C315.447,215 317,221.063 317,223 317,223 313,215 313,215  Z"/>

<path  fill="#FF9BCD" stroke-width="0" stroke="#FF9BCD" d = " M204 216 L203,217 C203,217 204,216 204,216  Z"/>

<path  fill="#FF9BCD" stroke-width="0" stroke="#FF9BCD" d = " M142 217 L141,219 C141,219 142,217 142,217  Z"/>

<path  fill="#FDB1D8" stroke-width="0" stroke="#FDB1D8" d = " M211 223 C213.254,223 220.193,227 226,227 226,213.515 211,218.361 211,223  Z"/>

<path  fill="#FDB1D8" stroke-width="0" stroke="#FDB1D8" d = " M236 227 L237,227 C237,227 245,223 245,223 245,218.296 231,213.13 231,227 231,227 236,227 236,227  Z"/>

<path  fill="#FF9BCD" stroke-width="0" stroke="#FF9BCD" d = " M141 219 C139.362,219 139,222.576 139,224 140.638,224 141,220.424 141,219  Z"/>

<path  fill="#FF9BCD" stroke-width="0" stroke="#FF9BCD" d = " M145 219 L143,223 C145.109,223 145,220.465 145,219  Z"/>

<path  fill="#FDB1D7" stroke-width="0" stroke="#FDB1D7" d = " M161 278 C162.842,278 165.283,277 166.5,277 L171,279 C171,279 174,276 174,276 174,270.918 193.593,242.454 198.5,240 198.5,240 208,231 208,231 208,221.185 190.291,221 183,221 183,221 177,230.5 177,230.5 173.405,237.69 172.59,246.32 169,253.5 167.439,256.622 168.586,261.328 167,264.5 165.973,266.554 160.671,275 158,275 158,277.041 158.959,278 161,278  Z"/>

<path  fill="#FDB1D7" stroke-width="0" stroke="#FDB1D7" d = " M285 279 L287,279 C287,279 288,278 288,278 288,278 295,278 295,278 296.429,278 299,276.712 299,275 294.59,275 293.064,268.564 290.5,266 289.796,265.296 281.611,236.721 279,231.5 278.074,229.649 275.683,221 273,221 264.633,221 249,221.328 249,231 249,231 262,243.5 262,243.5 266.443,247.943 283,271.797 283,277 283,277 285,279 285,279  Z"/>

<path  fill="#FF9BCD" stroke-width="0" stroke="#FF9BCD" d = " M317 224 C319.67,224 318.187,230.875 319,232.5 321.18,236.86 320.5,259 317,259 317,255.098 317.34,249.819 319,246.5 321.925,240.651 317,229.965 317,224  Z"/>

<path  fill="#FF9BCD" stroke-width="0" stroke="#FF9BCD" d = " M214 300 C214,290.205 217.966,296.568 221,290.5 L220,284.5 L223,277.5 C224.695,274.111 225,268.029 225,264 L225.5,259 L231,259.5 C232.989,263.478 232.734,277.968 236,284.5 L236,290.5 C238.177,294.855 243,293.02 243,300 246.619,300 270.023,300.238 272.5,299 274.725,297.888 277.346,297 280,297 280,295.264 290.956,289.412 291,289.5 292.287,292.073 287,293.082 287,295 290.44,295 307,278.925 307,276 303.607,276 304,278.356 304,275 304,275 299,275 299,275 299,276.712 296.429,278 295,278 295,278 296,281 296,281 296.353,281 300.862,276.225 302,278.5 302.505,279.51 292,292.934 292,287 288.396,287 285,282.334 285,279 285,279 283,277 283,277 283,277 281,279 281,279 281,279 284,282.5 284,282.5 289.427,293.353 273.619,291.738 271,286.5 269.644,283.788 273,283.317 273,282 249.857,282 240.979,264.458 232,246.5 232,246.5 234,244 234,244 229.586,244 224.823,243 221,243 221,244.465 225.394,244.711 224,247.5 215.195,265.11 206.753,282 184,282 184,282 185,286.5 185,286.5 182.108,292.283 170,292.011 170,285 168.376,285 167.25,287 165,287 165,292.22 153.162,280.177 154,278.5 155.115,276.269 158.865,280 160,280 160,280 161,278 161,278 158.959,278 158,277.041 158,275 153.65,275 149.781,272 149,272 149,272 154,276.5 154,276.5 154,278.451 148.74,275.12 148.5,275 148.5,275 141,262.5 141,262.5 135.569,251.638 139,237.047 139,225 138.087,225 137,230.014 137,231 137,231 136,249.5 136,249.5 136,258.653 143.139,266.778 147,274.5 147,274.5 157,284.5 157,284.5 159.088,288.676 163.887,295 169,295 169,295 165,289.5 165,289.5 165.797,287.905 168.433,291.467 169.5,292 170.923,292.711 177,295.09 177,297 179.128,297 182.608,298.054 184.5,299 187.003,300.252 210.345,300 214,300  Z"/>

<path  fill="#FF9BCD" stroke-width="0" stroke="#FF9BCD" d = " M143 225 C141.527,225 142,226.952 142,228 143.473,228 143,226.048 143,225  Z"/>

<path  fill="#FEB1D7" stroke-width="0" stroke="#FEB1D7" d = " M236 243 L237,243 C237,243 238,242 238,242 238,242 240,241 240,241 240,241 241,240 241,240 241,233.128 248.182,227 237,227 237,227 236,227 236,227 236,227 232.5,230 232.5,230 232.5,230 228.5,235 228.5,235 228.5,235 226,232.5 226,232.5 225.086,230.672 215.268,222.963 213,227.5 210.75,232 216,236.364 216,240 216,240 217,241 217,241 217,241 218,242 218,242 218,242 221,243 221,243 224.823,243 229.586,244 234,244 234,244 236,243 236,243  Z"/>

<path  fill="#A7AAA9" stroke-width="0" stroke="#A7AAA9" d = " M228 229 L229,229 C229,231.212 228,231.212 228,229  Z"/>

<path  fill="#FF9BCD" stroke-width="0" stroke="#FF9BCD" d = " M142 230 C140.421,230 141,232.855 141,234 142.579,234 142,231.145 142,230  Z"/>

<path  fill="#FFB2D8" stroke-width="0" stroke="#FFB2D8" d = " M175 279 L180,279 C180,279 181,278 181,278 181,270.834 203.789,239 212,239 212,235.752 213.459,231 208,231 208,231 198.5,240 198.5,240 193.593,242.454 174,270.918 174,276 174,276 175,279 175,279  Z"/>

<path  fill="#FFB2D8" stroke-width="0" stroke="#FFB2D8" d = " M277 279 L281,279 C281,279 283,277 283,277 283,271.797 266.443,247.943 262,243.5 262,243.5 249,231 249,231 243.596,231 244,234.183 244,239 252.885,239 275,270.292 275,278 275,278 277,279 277,279  Z"/>

<path  fill="#FFB1D6" stroke-width="0" stroke="#FFB1D6" d = " M182 281 L184,282 C206.753,282 215.195,265.11 224,247.5 225.394,244.711 221,244.465 221,243 221,243 218,242 218,242 218,242 217,241 217,241 217,241 216,240 216,240 216,240 212,239 212,239 203.789,239 181,270.834 181,278 181,278 182,281 182,281  Z"/>

<path  fill="#FFB1D6" stroke-width="0" stroke="#FFB1D6" d = " M274 281 L273,282 C249.857,282 240.979,264.458 232,246.5 232,246.5 234,244 234,244 234,244 236,243 236,243 236,243 237,243 237,243 237,243 238,242 238,242 238,242 240,241 240,241 240,241 241,240 241,240 241,240 244,239 244,239 252.885,239 275,270.292 275,278 275,278 275,280 275,280 275,280 274,281 274,281  Z"/>

<path  fill="#FF9BCD" stroke-width="0" stroke="#FF9BCD" d = " M241 240 L240,241 C240,241 241,240 241,240  Z"/>

<path  fill="#FF9BCD" stroke-width="0" stroke="#FF9BCD" d = " M217 241 L218,242 C218,242 217,241 217,241  Z"/>

<path  fill="#FF9BCD" stroke-width="0" stroke="#FF9BCD" d = " M238 242 L237,243 C237,243 238,242 238,242  Z"/>

<path  fill="#FF9BCD" stroke-width="0" stroke="#FF9BCD" d = " M315 242 C316.622,242 316.622,251 315,251 315,251 315,242 315,242  Z"/>

<path  fill="#FF9BCD" stroke-width="0" stroke="#FF9BCD" d = " M236 243 L234,244 C234,244 236,243 236,243  Z"/>

<path  fill="#FF9BCD" stroke-width="0" stroke="#FF9BCD" d = " M141 255 L142,257 C142,257 141,255 141,255  Z"/>

<path  fill="#FF9BCD" stroke-width="0" stroke="#FF9BCD" d = " M315 258 L314,259 C314,259 315,258 315,258  Z"/>

<path  fill="#FF9BCD" stroke-width="0" stroke="#FF9BCD" d = " M142 259 L143,260 C143,260 142,259 142,259  Z"/>

<path  fill="#C9C7CC" stroke-width="0" stroke="#C9C7CC" d = " M214 300 C214,290.205 217.966,296.568 221,290.5 L220,284.5 L223,277.5 C224.695,274.111 225,268.029 225,264 L225.5,259 L231,259.5 C232.989,263.478 232.734,277.968 236,284.5 L236,290.5 C238.177,294.855 243,293.02 243,300 241.196,300 237.864,302.182 235.5,301 235.5,301 230,295 230,295 230,291.722 227,289.148 227,294 227,294 226,295 226,295 226,295 225,296 225,296 225,296 224,297 224,297 224,300.954 214,302.481 214,300  Z"/>

<path  fill="#FF9BCD" stroke-width="0" stroke="#FF9BCD" d = " M317 259 C315.362,259 315,262.576 315,264 316.638,264 317,260.424 317,259  Z"/>

<path  fill="#FF9BCD" stroke-width="0" stroke="#FF9BCD" d = " M313 263 L312,264 C312,264 313,263 313,263  Z"/>

<path  fill="#FF9BCD" stroke-width="0" stroke="#FF9BCD" d = " M144 264 L145,265 C145,265 144,264 144,264  Z"/>

<path  fill="#FF9BCD" stroke-width="0" stroke="#FF9BCD" d = " M315 264 L313,268 C315.109,268 315,265.465 315,264  Z"/>

<path  fill="#FF9BCD" stroke-width="0" stroke="#FF9BCD" d = " M145 266 L146,267 C146,267 145,266 145,266  Z"/>

<path  fill="#FF9BCD" stroke-width="0" stroke="#FF9BCD" d = " M311 267 L310,268 C310,268 311,267 311,267  Z"/>

<path  fill="#FF9BCD" stroke-width="0" stroke="#FF9BCD" d = " M146 268 L148,270 C148,270 146,268 146,268  Z"/>

<path  fill="#FF9BCD" stroke-width="0" stroke="#FF9BCD" d = " M313 268 C311.423,268 311,269.762 311,271 312.577,271 313,269.238 313,268  Z"/>

<path  fill="#FF9BCD" stroke-width="0" stroke="#FF9BCD" d = " M309 270 L308,271 C308,271 309,270 309,270  Z"/>

<path  fill="#FF9BCD" stroke-width="0" stroke="#FF9BCD" d = " M308 271 L307,272 C307,272 308,271 308,271  Z"/>

<path  fill="#FF9BCD" stroke-width="0" stroke="#FF9BCD" d = " M311 271 L310,273 C310,273 311,271 311,271  Z"/>

<path  fill="#FF9BCD" stroke-width="0" stroke="#FF9BCD" d = " M306 273 L305,274 C305,274 306,273 306,273  Z"/>

<path  fill="#FF9BCD" stroke-width="0" stroke="#FF9BCD" d = " M310 273 L309,274 C309,274 310,273 310,273  Z"/>

<path  fill="#FF9BCD" stroke-width="0" stroke="#FF9BCD" d = " M305 274 L304,275 C304,275 305,274 305,274  Z"/>

<path  fill="#FF9BCD" stroke-width="0" stroke="#FF9BCD" d = " M309 274 L308,275 C308,275 309,274 309,274  Z"/>

<path  fill="#FF9BCD" stroke-width="0" stroke="#FF9BCD" d = " M308 275 L307,276 C307,276 308,275 308,275  Z"/>

<path  fill="#FF9BCD" stroke-width="0" stroke="#FF9BCD" d = " M175 279 L170,285 C170,285 171,279 171,279 171,279 174,276 174,276 174,276 175,279 175,279  Z"/>

<path  fill="#C8C8CB" stroke-width="0" stroke="#C8C8CB" d = " M170 285 C168.376,285 167.25,287 165,287 165,287 160,280 160,280 160,280 161,278 161,278 162.842,278 165.283,277 166.5,277 166.5,277 171,279 171,279 171,279 170,285 170,285  Z"/>

<path  fill="#C9CACA" stroke-width="0" stroke="#C9CACA" d = " M160 280 C158.865,280 155.115,276.269 154,278.5 153.162,280.177 165,292.22 165,287 165,287 160,280 160,280  Z"/>

<path  fill="#FF9BCD" stroke-width="0" stroke="#FF9BCD" d = " M180 279 L182,281 C182,281 181,278 181,278 181,278 180,279 180,279  Z"/>

<path  fill="#FF9BCD" stroke-width="0" stroke="#FF9BCD" d = " M277 279 L275,280 C275,280 275,278 275,278 275,278 277,279 277,279  Z"/>

<path  fill="#FF9BCD" stroke-width="0" stroke="#FF9BCD" d = " M288 278 L287,279 C287,279 288,278 288,278  Z"/>

<path  fill="#C8C8CB" stroke-width="0" stroke="#C8C8CB" d = " M296 281 C294.972,281 292,285.666 292,287 288.396,287 285,282.334 285,279 285,279 287,279 287,279 287,279 288,278 288,278 288,278 295,278 295,278 295,278 296,281 296,281  Z"/>

<path  fill="#C9CACA" stroke-width="0" stroke="#C9CACA" d = " M296 281 C296.353,281 300.862,276.225 302,278.5 302.505,279.51 292,292.934 292,287 292,285.666 294.972,281 296,281  Z"/>

<path  fill="#FCB3D7" stroke-width="0" stroke="#FCB3D7" d = " M184 282 L185,286.5 C182.108,292.283 170,292.011 170,285 170,285 175,279 175,279 175,279 180,279 180,279 180,279 182,281 182,281 182,281 184,282 184,282  Z"/>

<path  fill="#FCB3D7" stroke-width="0" stroke="#FCB3D7" d = " M274 281 L273,282 C273,283.317 269.644,283.788 271,286.5 273.619,291.738 289.427,293.353 284,282.5 284,282.5 281,279 281,279 281,279 277,279 277,279 277,279 275,280 275,280 275,280 274,281 274,281  Z"/>

<path  fill="#FF9BCD" stroke-width="0" stroke="#FF9BCD" d = " M274 281 L273,282 C273,282 274,281 274,281  Z"/>

<path  fill="#CBC7CC" stroke-width="0" stroke="#CBC7CC" d = " M173 297 L177,297 C177,295.09 170.923,292.711 169.5,292 168.433,291.467 165.797,287.905 165,289.5 165,289.5 169,295 169,295 169,295 170,295 170,295 170,295 173,297 173,297  Z"/>

<path  fill="#CBC7CC" stroke-width="0" stroke="#CBC7CC" d = " M280 297 L283,297 C283,297 285,296 285,296 285,296 287,295 287,295 287,293.082 292.287,292.073 291,289.5 290.956,289.412 280,295.264 280,297  Z"/>

<path  fill="#FF9BCD" stroke-width="0" stroke="#FF9BCD" d = " M227 294 L230,295 C230,291.722 227,289.148 227,294  Z"/>

<path  fill="#FF9BCD" stroke-width="0" stroke="#FF9BCD" d = " M227 294 L226,295 C226,295 227,294 227,294  Z"/>

<path  fill="#FF9BCD" stroke-width="0" stroke="#FF9BCD" d = " M170 295 L173,297 C171.762,297 170,296.577 170,295  Z"/>

<path  fill="#FF9BCD" stroke-width="0" stroke="#FF9BCD" d = " M287 295 L285,296 C285,296 287,295 287,295  Z"/>

<path  fill="#FF9BCD" stroke-width="0" stroke="#FF9BCD" d = " M225 296 L224,297 C224,297 225,296 225,296  Z"/>

<path  fill="#FF9BCD" stroke-width="0" stroke="#FF9BCD" d = " M285 296 L283,297 C283,297 285,296 285,296  Z"/>

</g>
</svg>
