<svg xmlns="http://www.w3.org/2000/svg" xmlns:xlink="http://www.w3.org/1999/xlink"  viewBox="0 0 456 320">
<g>
<rect width="456" height="320" fill="#000000"  stroke-width="0" /> 
<path  fill-rule="evenodd" fill="#9AD1BD" stroke-width="0" stroke="#9AD1BD" d = " M161 212 C161,221.385 179.376,247 190,247 192.995,247 197.334,248.583 200.5,247 207.941,243.28 213.484,235.533 217,228.5 219.511,223.479 217.7,213.1 220,208.5 221.864,204.773 219.192,199.116 221,195.5 223.352,190.797 223,154.817 223,147.5 223,138.385 219.791,109 208,109 208,109 206,108 206,108 203.747,108 199.531,107.016 197.5,106 190.945,102.722 170.688,110.406 165.5,113 160.085,115.707 157.575,119.925 153.5,124 153.5,124 150,129 150,129 150,129 149,130 149,130 149,130 149,131 149,131 149,131 148,132 148,132 148,132 148,133 148,133 148,133 147,134 147,134 147,134 147,135 147,135 147,135 146,137 146,137 146,137 146,138 146,138 146,138 145,139 145,139 145,139 145,143 145,143 145,144.048 145.473,146 144,146 144,146 144,150 144,150 144,150 144,152 144,152 144,152 144,156 144,156 145.579,156 145,158.855 145,160 145,160 145,164 145,164 145,164 146,166 146,166 146,166 146,167 146,167 146,167 147,169 147,169 147,169 147,173 147,173 147,173 149,176 149,176 149,176 149,177 149,177 149,177 149,178 149,178 151.155,178 152.233,184.965 153,186.5 156.294,193.088 161,204.465 161,212  M177 130 C177,131.961 169.475,138.451 173,145.5 176.869,153.237 186.263,157.974 191,148.5 194.133,142.235 189,139.835 189,136 189,132.915 198,137.154 198,134.5 198,131.483 177,121.366 177,130  Z"/>

<path  fill-rule="evenodd" fill="#9AD1BD" stroke-width="0" stroke="#9AD1BD" d = " M295 213 C295,222.063 276.502,247 267,247 263.496,247 258.95,248.725 255.5,247 231.518,235.009 234,188.751 234,163.5 234,155.487 230.944,137.611 234,131.5 236.183,127.134 236.802,121.897 239,117.5 239,117.5 247,109 247,109 247,109 249,109 249,109 249,109 250,108 250,108 252.721,108 256.171,107.164 258.5,106 263.459,103.521 283.489,108.994 287.5,111 287.5,111 295.5,117 295.5,117 298.691,118.595 307,126.232 307,130 307,130 308,131 308,131 308,131 308,132 308,132 308,132 309,133 309,133 309,133 309,135 309,135 309,135 310,136 310,136 310,136 310,137 310,137 310,137 311,138 311,138 311,138 311,141 311,141 311,141 312,143 312,143 312,143 312,146 312,146 312,147.145 311.421,150 313,150 313,150 313,151 313,151 311.357,151 312,154.765 312,156 312,156 312,160 312,160 312,160 311,162 311,162 311,162 311,166 311,166 311,166 310,167 310,167 310,167 310,169 310,169 310,169 309,171 309,171 309,171 309,174 309,174 309,174 308,176 308,176 306.527,176 307,177.952 307,179 304.845,179 303.767,185.965 303,187.5 299.821,193.859 296,203.61 296,211 296,211 295,212 295,212 295,212 295,213 295,213  M279 130 C282.157,130 278.325,126.412 277.5,126 275.741,125.121 260.111,131.278 259,133.5 256.656,138.188 267,132.496 267,136 267,138.798 263.008,143.516 265,147.5 270.812,159.123 279.679,152.143 284,143.5 286.902,137.695 279,131.347 279,130  Z"/>

<path  fill="#99D2BD" stroke-width="0" stroke="#99D2BD" d = " M208 108 L208,109 C208,109 206,108 206,108 206,108 208,108 208,108  Z"/>

<path  fill="#C7CBCA" stroke-width="0" stroke="#C7CBCA" d = " M227 210 C227,226.301 229.83,246.841 223,260.5 L218.5,263 C209.229,267.635 207.201,255.351 200.5,252 198.431,250.965 190,250.375 190,247 192.995,247 197.334,248.583 200.5,247 207.941,243.28 213.484,235.533 217,228.5 219.511,223.479 217.7,213.1 220,208.5 221.864,204.773 219.192,199.116 221,195.5 223.352,190.797 223,154.817 223,147.5 223,138.385 219.791,109 208,109 208,109 208,108 208,108 214.196,108 218.748,115.996 221,120.5 227.589,133.678 227,149.047 227,165 227,165 227,181 227,181 227,182.235 226.357,186 228,186 228,186 228,198 228,198 226.219,198 227,208.176 227,210  Z"/>

<path  fill="#C7CBCA" stroke-width="0" stroke="#C7CBCA" d = " M247 109 L249,109 C249,109 249,108 249,108 249,108 247,109 247,109  Z"/>

<path  fill="#99D2BD" stroke-width="0" stroke="#99D2BD" d = " M250 108 L249,109 C249,109 249,108 249,108 249,108 250,108 250,108  Z"/>

<path  fill="#C7CBCA" stroke-width="0" stroke="#C7CBCA" d = " M247 109 C235.697,109 234.479,125.541 231,132.5 L231,137.5 C227.94,143.619 229,161.222 229,169 229,187.722 230,207.458 230,225.5 230,236.743 228.306,250.112 233,259.5 234.125,261.75 236.75,262.125 238.5,263 247.713,267.606 248.742,255.379 255.5,252 257.544,250.978 267,250.02 267,247 263.496,247 258.95,248.725 255.5,247 231.518,235.009 234,188.751 234,163.5 234,155.487 230.944,137.611 234,131.5 236.183,127.134 236.802,121.897 239,117.5 239,117.5 247,109 247,109  Z"/>

<path  fill="#CACAC9" stroke-width="0" stroke="#CACAC9" d = " M177 130 C180.698,130 182.928,136 189,136 189,132.915 198,137.154 198,134.5 198,131.483 177,121.366 177,130  Z"/>

<path  fill="#CACAC9" stroke-width="0" stroke="#CACAC9" d = " M279 130 C282.157,130 278.325,126.412 277.5,126 275.741,125.121 260.111,131.278 259,133.5 256.656,138.188 267,132.496 267,136 272.987,136 275.721,130 279,130  Z"/>

<path  fill="#99D2BD" stroke-width="0" stroke="#99D2BD" d = " M150 129 L149,130 C149,130 150,129 150,129  Z"/>

<path  fill="#95E4C8" stroke-width="0" stroke="#95E4C8" d = " M177 130 C180.698,130 182.928,136 189,136 189,139.835 194.133,142.235 191,148.5 186.263,157.974 176.869,153.237 173,145.5 169.475,138.451 177,131.961 177,130  Z"/>

<path  fill="#95E4C8" stroke-width="0" stroke="#95E4C8" d = " M279 130 C275.721,130 272.987,136 267,136 267,138.798 263.008,143.516 265,147.5 270.812,159.123 279.679,152.143 284,143.5 286.902,137.695 279,131.347 279,130  Z"/>

<path  fill="#99D2BD" stroke-width="0" stroke="#99D2BD" d = " M307 130 L308,131 C308,131 307,130 307,130  Z"/>

<path  fill="#99D2BD" stroke-width="0" stroke="#99D2BD" d = " M149 131 L148,132 C148,132 149,131 149,131  Z"/>

<path  fill="#99D2BD" stroke-width="0" stroke="#99D2BD" d = " M308 132 L309,133 C309,133 308,132 308,132  Z"/>

<path  fill="#99D2BD" stroke-width="0" stroke="#99D2BD" d = " M148 133 L147,134 C147,134 148,133 148,133  Z"/>

<path  fill="#99D2BD" stroke-width="0" stroke="#99D2BD" d = " M147 135 L146,137 C146,137 147,135 147,135  Z"/>

<path  fill="#99D2BD" stroke-width="0" stroke="#99D2BD" d = " M309 135 L310,136 C310,136 309,135 309,135  Z"/>

<path  fill="#99D2BD" stroke-width="0" stroke="#99D2BD" d = " M310 137 L311,138 C311,138 310,137 310,137  Z"/>

<path  fill="#99D2BD" stroke-width="0" stroke="#99D2BD" d = " M146 138 L145,139 C145,139 146,138 146,138  Z"/>

<path  fill="#99D2BD" stroke-width="0" stroke="#99D2BD" d = " M311 141 L312,143 C312,143 311,141 311,141  Z"/>

<path  fill="#99D2BD" stroke-width="0" stroke="#99D2BD" d = " M145 143 C143.527,143 144,144.952 144,146 145.473,146 145,144.048 145,143  Z"/>

<path  fill="#99D2BD" stroke-width="0" stroke="#99D2BD" d = " M312 146 C313.579,146 313,148.855 313,150 311.421,150 312,147.145 312,146  Z"/>

<path  fill="#99D2BD" stroke-width="0" stroke="#99D2BD" d = " M144 150 C142.601,150 142.601,152 144,152 144,152 144,150 144,150  Z"/>

<path  fill="#99D2BD" stroke-width="0" stroke="#99D2BD" d = " M313 151 C311.357,151 312,154.765 312,156 313.643,156 313,152.235 313,151  Z"/>

<path  fill="#99D2BD" stroke-width="0" stroke="#99D2BD" d = " M144 156 C145.579,156 145,158.855 145,160 143.421,160 144,157.145 144,156  Z"/>

<path  fill="#99D2BD" stroke-width="0" stroke="#99D2BD" d = " M312 160 L311,162 C311,162 312,160 312,160  Z"/>

<path  fill="#99D2BD" stroke-width="0" stroke="#99D2BD" d = " M145 164 L146,166 C146,166 145,164 145,164  Z"/>

<path  fill="#99D2BD" stroke-width="0" stroke="#99D2BD" d = " M227 165 C228.643,165 228,168.765 228,170 L228,186 C226.357,186 227,182.235 227,181 227,181 227,165 227,165  Z"/>

<path  fill="#99D2BD" stroke-width="0" stroke="#99D2BD" d = " M311 166 L310,167 C310,167 311,166 311,166  Z"/>

<path  fill="#99D2BD" stroke-width="0" stroke="#99D2BD" d = " M146 167 L147,169 C147,169 146,167 146,167  Z"/>

<path  fill="#99D2BD" stroke-width="0" stroke="#99D2BD" d = " M310 169 L309,171 C309,171 310,169 310,169  Z"/>

<path  fill="#99D2BD" stroke-width="0" stroke="#99D2BD" d = " M148 176 L149,176 C149,176 147,173 147,173 147,173 148,176 148,176  Z"/>

<path  fill="#99D2BD" stroke-width="0" stroke="#99D2BD" d = " M308 176 L308,177 C309.473,177 309,175.048 309,174 309,174 308,176 308,176  Z"/>

<path  fill="#C7CBCA" stroke-width="0" stroke="#C7CBCA" d = " M148 177 L149,177 C149,177 149,176 149,176 149,176 148,176 148,176 148,176 148,177 148,177  Z"/>

<path  fill="#C7CBCA" stroke-width="0" stroke="#C7CBCA" d = " M307 179 L308,179 C308,179 308,177 308,177 308,177 308,176 308,176 306.527,176 307,177.952 307,179  Z"/>

<path  fill="#99D2BD" stroke-width="0" stroke="#99D2BD" d = " M149 178 L149,179 C149,179 148,177 148,177 148,177 149,177 149,177 149,177 149,178 149,178  Z"/>

<path  fill="#C7CBCA" stroke-width="0" stroke="#C7CBCA" d = " M160 211 L161,212 C161,204.465 156.294,193.088 153,186.5 152.233,184.965 151.155,178 149,178 149,178 149,179 149,179 149,179 149,183 149,183 149,183 150,184 150,184 150,184 150,185 150,185 150,185 151,187 151,187 151,187 151,190 151,190 151,190 152,192 152,192 152,192 152,193 152,193 152,193 153,195 153,195 153,195 153,197 153,197 153,197 154,198 154,198 154,198 154,199 154,199 154,199 155,200 155,200 155,200 155,202 155,202 155,202 156,203 156,203 156,203 156,204 156,204 156,204 157,205 157,205 157,205 157,207 157,207 157,207 159,209 159,209 159,209 159,210 159,210 159,210 160,211 160,211  Z"/>

<path  fill="#C7CBCA" stroke-width="0" stroke="#C7CBCA" d = " M297 210 L296,211 C296,203.61 299.821,193.859 303,187.5 303.767,185.965 304.845,179 307,179 307,179 307,181 307,181 307,181 307,184 307,184 307,184 306,186 306,186 306,186 306,187 306,187 306,187 305,189 305,189 305,189 305,192 305,192 305,192 304,194 304,194 304,194 304,195 304,195 304,195 303,196 303,196 303,196 303,198 303,198 303,198 302,199 302,199 302,199 302,200 302,200 302,200 301,201 301,201 301,201 301,203 301,203 301,203 300,205 300,205 300,205 299,206 299,206 299,206 299,207 299,207 299,207 298,209 298,209 298,209 297,210 297,210  Z"/>

<path  fill="#99D2BD" stroke-width="0" stroke="#99D2BD" d = " M308 179 L307,181 C307,181 307,179 307,179 307,179 308,179 308,179  Z"/>

<path  fill="#99D2BD" stroke-width="0" stroke="#99D2BD" d = " M149 183 L150,184 C150,184 149,183 149,183  Z"/>

<path  fill="#99D2BD" stroke-width="0" stroke="#99D2BD" d = " M307 184 L306,186 C306,186 307,184 307,184  Z"/>

<path  fill="#99D2BD" stroke-width="0" stroke="#99D2BD" d = " M150 185 L151,187 C151,187 150,185 150,185  Z"/>

<path  fill="#99D2BD" stroke-width="0" stroke="#99D2BD" d = " M306 187 L305,189 C305,189 306,187 306,187  Z"/>

<path  fill="#99D2BD" stroke-width="0" stroke="#99D2BD" d = " M151 190 L152,192 C152,192 151,190 151,190  Z"/>

<path  fill="#99D2BD" stroke-width="0" stroke="#99D2BD" d = " M305 192 L304,194 C304,194 305,192 305,192  Z"/>

<path  fill="#99D2BD" stroke-width="0" stroke="#99D2BD" d = " M152 193 L153,195 C153,195 152,193 152,193  Z"/>

<path  fill="#99D2BD" stroke-width="0" stroke="#99D2BD" d = " M304 195 L303,196 C303,196 304,195 304,195  Z"/>

<path  fill="#99D2BD" stroke-width="0" stroke="#99D2BD" d = " M153 197 L154,198 C154,198 153,197 153,197  Z"/>

<path  fill="#99D2BD" stroke-width="0" stroke="#99D2BD" d = " M228 198 C226.219,198 227,208.176 227,210 228.781,210 228,199.824 228,198  Z"/>

<path  fill="#99D2BD" stroke-width="0" stroke="#99D2BD" d = " M303 198 L302,199 C302,199 303,198 303,198  Z"/>

<path  fill="#99D2BD" stroke-width="0" stroke="#99D2BD" d = " M154 199 L155,200 C155,200 154,199 154,199  Z"/>

<path  fill="#99D2BD" stroke-width="0" stroke="#99D2BD" d = " M302 200 L301,201 C301,201 302,200 302,200  Z"/>

<path  fill="#99D2BD" stroke-width="0" stroke="#99D2BD" d = " M155 202 L156,203 C156,203 155,202 155,202  Z"/>

<path  fill="#99D2BD" stroke-width="0" stroke="#99D2BD" d = " M301 203 L300,205 C300,205 301,203 301,203  Z"/>

<path  fill="#99D2BD" stroke-width="0" stroke="#99D2BD" d = " M156 204 L157,205 C157,205 156,204 156,204  Z"/>

<path  fill="#99D2BD" stroke-width="0" stroke="#99D2BD" d = " M300 205 L299,206 C299,206 300,205 300,205  Z"/>

<path  fill="#99D2BD" stroke-width="0" stroke="#99D2BD" d = " M157 207 L159,209 C159,209 157,207 157,207  Z"/>

<path  fill="#99D2BD" stroke-width="0" stroke="#99D2BD" d = " M299 207 L298,209 C298,209 299,207 299,207  Z"/>

<path  fill="#99D2BD" stroke-width="0" stroke="#99D2BD" d = " M298 209 L297,210 C297,210 298,209 298,209  Z"/>

<path  fill="#99D2BD" stroke-width="0" stroke="#99D2BD" d = " M159 210 L160,211 C160,211 159,210 159,210  Z"/>

<path  fill="#C7CBCA" stroke-width="0" stroke="#C7CBCA" d = " M295 212 L296,212 C296,212 296,211 296,211 296,211 295,212 295,212  Z"/>

<path  fill="#99D2BD" stroke-width="0" stroke="#99D2BD" d = " M296 212 L295,213 C295,213 295,212 295,212 295,212 296,212 296,212  Z"/>

</g>
</svg>
