<svg xmlns="http://www.w3.org/2000/svg" xmlns:xlink="http://www.w3.org/1999/xlink"  viewBox="0 0 456 320">
<g>
<rect width="456" height="320" fill="#000000"  stroke-width="0" /> 
<path  fill-rule="evenodd" fill="#9AD1BD" stroke-width="0" stroke="#9AD1BD" d = " M183 130 L177,136.5 C174.667,141.166 180.128,149.686 185.5,147 192.334,143.583 191.129,130 183,130  M183 123 L178,126.5 L188,127 C189.462,127 195.082,130.337 196,128.5 197.586,125.329 189.563,124.531 188.5,124 186.559,123.029 185.378,123 183,123  M185 245 L186,245 C190.76,245 196.675,247.413 201.5,245 221.593,234.953 221,205.164 221,184.5 221,184.5 221,163.5 221,163.5 222.561,160.377 224.862,132.225 223,128.5 220.357,123.213 217.688,117.877 215,112.5 215,112.5 209,107 209,107 209,107 207,107 207,107 207,107 206,106 206,106 199.513,106 187.416,101.542 180.5,105 180.5,105 166.5,111 166.5,111 166.5,111 162.5,115 162.5,115 160.251,116.124 150,125.71 150,128 150,128 149,129 149,129 149,129 149,130 149,130 149,130 148,131 148,131 148,131 147,134 147,134 147,134 146,135 146,135 146,135 146,136 146,136 146,136 145,138 145,138 145,138 145,140 145,140 145,140 144,142 144,142 144,142 144,144 144,144 144,145.235 144.643,149 143,149 143,149 143,153 143,153 144.579,153 144,155.855 144,157 144,157 144,159 144,159 145.473,159 145,160.952 145,162 145,162 145,165 145,165 145,165 146,167 146,167 146,167 146,169 146,169 146,169 147,171 147,171 147,171 147,172 147,172 147,172 148,173 148,173 148,177.252 153.135,182.769 155,186.5 158.371,193.242 157.653,201.806 161,208.5 161,208.5 161,214.5 161,214.5 161,214.5 163,218 163,218 163,218 163,220 163,220 163,220 164,221 164,221 164,223.85 175.219,240 178,240 178,240 180,242 180,242 180,242 182,243 182,243 182,243 185,245 185,245  Z"/>

<path  fill-rule="evenodd" fill="#9AD1BD" stroke-width="0" stroke="#9AD1BD" d = " M271 130 C271,131.548 267,132.767 267,136 L267,142.5 C275.084,158.668 287.758,130 271,130  M269 123 C269,124.266 259.223,124.946 261,128.5 261.914,130.327 266.939,127 268.5,127 L278,127.5 C279.531,124.437 274.808,124.654 273.5,124 271.782,123.141 271.113,123 269,123  M271 245 L272,245 C272,245 273,244 273,244 273,244 275,243 275,243 275,243 276,242 276,242 276,242 277,241 277,241 277,241 278,241 278,241 278,241 279,240 279,240 279,240 281,238 281,238 281,238 282,237 282,237 285.034,237 293,222.497 293,219 293,219 294,218 294,218 294,218 294,217 294,217 294,217 295,216 295,216 295,204.194 299.051,192.399 304,182.5 304,182.5 309,173 309,173 309,171.952 308.527,170 310,170 310,170 310,169 310,169 310,169 311,167 311,167 311,167 311,163 311,163 311,163 312,162 312,162 312,162 312,159 312,159 312,157.952 311.527,156 313,156 313,156 313,145 313,145 311.527,145 312,143.048 312,142 312,142 312,140 312,140 312,140 311,139 311,139 311,139 311,137 311,137 311,137 310,135 310,135 310,135 310,134 310,134 310,134 309,133 309,133 309,133 308,130 308,130 308,130 307,129 307,129 307,125.842 299.048,118.274 296.5,117 296.5,117 286.5,109 286.5,109 282.671,107.086 263.19,101.655 258.5,104 256.469,105.016 252.253,106 250,106 250,106 249,107 249,107 249,107 248,107 248,107 248,107 239,115.5 239,115.5 236.581,120.338 235.402,125.696 233,130.5 229.863,136.774 235,155.576 235,162.5 235,186.387 231.447,233.473 254.5,245 259.575,247.538 265.889,245 271,245  Z"/>

<path  fill="#99D2BD" stroke-width="0" stroke="#99D2BD" d = " M206 106 L207,107 C207,107 206,106 206,106  Z"/>

<path  fill="#99D2BD" stroke-width="0" stroke="#99D2BD" d = " M250 106 L249,107 C249,107 250,106 250,106  Z"/>

<path  fill="#C7CBCA" stroke-width="0" stroke="#C7CBCA" d = " M227 211 C227,222.57 230.042,255.729 219.5,261 210.424,265.538 208.407,255.453 201.5,252 198.948,250.724 196.121,250.311 193.5,249 191.773,248.137 186,248.156 186,245 190.76,245 196.675,247.413 201.5,245 221.593,234.953 221,205.164 221,184.5 221,184.5 221,163.5 221,163.5 222.561,160.377 224.862,132.225 223,128.5 220.357,123.213 217.688,117.877 215,112.5 215,112.5 209,107 209,107 214.823,107 218.812,114.124 221,118.5 227.661,131.822 227,145.828 227,162 227,162 227,211 227,211  Z"/>

<path  fill="#C7CBCA" stroke-width="0" stroke="#C7CBCA" d = " M248 107 C236.072,107 230,127.666 230,137.5 230,158.008 229,178.969 229,200 229,207.266 226.895,219.29 230,225.5 233.068,231.637 228.289,247.078 233,256.5 240.258,271.015 251.23,254.135 257.5,251 259.767,249.866 271,248.371 271,245 265.889,245 259.575,247.538 254.5,245 231.447,233.473 235,186.387 235,162.5 235,155.576 229.863,136.774 233,130.5 235.402,125.696 236.581,120.338 239,115.5 239,115.5 248,107 248,107  Z"/>

<path  fill="#CACAC9" stroke-width="0" stroke="#CACAC9" d = " M183 123 L178,126.5 L188,127 C189.462,127 195.082,130.337 196,128.5 197.586,125.329 189.563,124.531 188.5,124 186.559,123.029 185.378,123 183,123  Z"/>

<path  fill="#CACAC9" stroke-width="0" stroke="#CACAC9" d = " M269 123 C269,124.266 259.223,124.946 261,128.5 261.914,130.327 266.939,127 268.5,127 L278,127.5 C279.531,124.437 274.808,124.654 273.5,124 271.782,123.141 271.113,123 269,123  Z"/>

<path  fill="#99D2BD" stroke-width="0" stroke="#99D2BD" d = " M150 128 L149,129 C149,129 150,128 150,128  Z"/>

<path  fill="#99D2BD" stroke-width="0" stroke="#99D2BD" d = " M307 129 L308,130 C308,130 307,129 307,129  Z"/>

<path  fill="#99D2BD" stroke-width="0" stroke="#99D2BD" d = " M149 130 L148,131 C148,131 149,130 149,130  Z"/>

<path  fill="#95E4C8" stroke-width="0" stroke="#95E4C8" d = " M183 130 L177,136.5 C174.667,141.166 180.128,149.686 185.5,147 192.334,143.583 191.129,130 183,130  Z"/>

<path  fill="#95E4C8" stroke-width="0" stroke="#95E4C8" d = " M271 130 C271,131.548 267,132.767 267,136 L267,142.5 C275.084,158.668 287.758,130 271,130  Z"/>

<path  fill="#99D2BD" stroke-width="0" stroke="#99D2BD" d = " M309 133 L310,134 C310,134 309,133 309,133  Z"/>

<path  fill="#99D2BD" stroke-width="0" stroke="#99D2BD" d = " M147 134 L146,135 C146,135 147,134 147,134  Z"/>

<path  fill="#99D2BD" stroke-width="0" stroke="#99D2BD" d = " M310 135 L311,137 C311,137 310,135 310,135  Z"/>

<path  fill="#99D2BD" stroke-width="0" stroke="#99D2BD" d = " M146 136 L145,138 C145,138 146,136 146,136  Z"/>

<path  fill="#99D2BD" stroke-width="0" stroke="#99D2BD" d = " M311 139 L312,140 C312,140 311,139 311,139  Z"/>

<path  fill="#99D2BD" stroke-width="0" stroke="#99D2BD" d = " M145 140 L144,142 C144,142 145,140 145,140  Z"/>

<path  fill="#99D2BD" stroke-width="0" stroke="#99D2BD" d = " M312 142 C313.473,142 313,143.952 313,145 311.527,145 312,143.048 312,142  Z"/>

<path  fill="#99D2BD" stroke-width="0" stroke="#99D2BD" d = " M144 144 C142.357,144 143,147.765 143,149 144.643,149 144,145.235 144,144  Z"/>

<path  fill="#99D2BD" stroke-width="0" stroke="#99D2BD" d = " M143 153 C144.579,153 144,155.855 144,157 142.421,157 143,154.145 143,153  Z"/>

<path  fill="#99D2BD" stroke-width="0" stroke="#99D2BD" d = " M313 156 C311.527,156 312,157.952 312,159 313.473,159 313,157.048 313,156  Z"/>

<path  fill="#99D2BD" stroke-width="0" stroke="#99D2BD" d = " M144 159 C145.473,159 145,160.952 145,162 143.527,162 144,160.048 144,159  Z"/>

<path  fill="#99D2BD" stroke-width="0" stroke="#99D2BD" d = " M227 162 C228.751,162 228,169.426 228,171 L228,200.5 C228,202.199 228.769,211 227,211 227,211 227,162 227,162  Z"/>

<path  fill="#99D2BD" stroke-width="0" stroke="#99D2BD" d = " M312 162 L311,163 C311,163 312,162 312,162  Z"/>

<path  fill="#99D2BD" stroke-width="0" stroke="#99D2BD" d = " M145 165 L146,167 C146,167 145,165 145,165  Z"/>

<path  fill="#99D2BD" stroke-width="0" stroke="#99D2BD" d = " M311 167 L310,169 C310,169 311,167 311,167  Z"/>

<path  fill="#99D2BD" stroke-width="0" stroke="#99D2BD" d = " M146 169 L147,171 C147,171 146,169 146,169  Z"/>

<path  fill="#99D2BD" stroke-width="0" stroke="#99D2BD" d = " M310 170 C308.527,170 309,171.952 309,173 310.473,173 310,171.048 310,170  Z"/>

<path  fill="#99D2BD" stroke-width="0" stroke="#99D2BD" d = " M147 173 L148,173 C148,173 147,172 147,172 147,172 147,173 147,173  Z"/>

<path  fill="#C7CBCA" stroke-width="0" stroke="#C7CBCA" d = " M156 210 L163,218 C163,218 161,214.5 161,214.5 161,214.5 161,208.5 161,208.5 157.653,201.806 158.371,193.242 155,186.5 153.135,182.769 148,177.252 148,173 148,173 147,173 147,173 147,173 147,177 147,177 148.579,177 148,179.855 148,181 148,181 148,182 148,182 148,182 149,184 149,184 149,184 149,187 149,187 150.473,187 150,188.952 150,190 150,190 150,191 150,191 150,191 151,193 151,193 151,193 151,196 151,196 152.014,196 153,199.959 153,201 153,201 153,203 153,203 153,203 154,205 154,205 154,205 154,206 154,206 154,206 155,208 155,208 155,208 155,209 155,209 155,209 156,210 156,210  Z"/>

<path  fill="#C7CBCA" stroke-width="0" stroke="#C7CBCA" d = " M301 209 C301,210.338 296.59,216 295,216 295,204.194 299.051,192.399 304,182.5 304,182.5 309,173 309,173 309,173 309,181 309,181 309,181 308,183 308,183 306.527,183 307,184.952 307,186 307,186 307,190 307,190 307,190 306,192 306,192 306,192 306,193 306,193 306,193 305,195 305,195 305,195 305,198 305,198 305,198 304,200 304,200 304,200 304,201 304,201 304,201 303,203 303,203 303,203 303,205 303,205 303,205 302,207 302,207 302,207 301,209 301,209  Z"/>

<path  fill="#99D2BD" stroke-width="0" stroke="#99D2BD" d = " M147 177 C148.579,177 148,179.855 148,181 146.421,181 147,178.145 147,177  Z"/>

<path  fill="#99D2BD" stroke-width="0" stroke="#99D2BD" d = " M309 181 L308,183 C308,183 309,181 309,181  Z"/>

<path  fill="#99D2BD" stroke-width="0" stroke="#99D2BD" d = " M148 182 L149,184 C149,184 148,182 148,182  Z"/>

<path  fill="#99D2BD" stroke-width="0" stroke="#99D2BD" d = " M308 183 C306.527,183 307,184.952 307,186 308.473,186 308,184.048 308,183  Z"/>

<path  fill="#99D2BD" stroke-width="0" stroke="#99D2BD" d = " M149 187 C150.473,187 150,188.952 150,190 148.527,190 149,188.048 149,187  Z"/>

<path  fill="#99D2BD" stroke-width="0" stroke="#99D2BD" d = " M307 190 L306,192 C306,192 307,190 307,190  Z"/>

<path  fill="#99D2BD" stroke-width="0" stroke="#99D2BD" d = " M150 191 L151,193 C151,193 150,191 150,191  Z"/>

<path  fill="#99D2BD" stroke-width="0" stroke="#99D2BD" d = " M306 193 L305,195 C305,195 306,193 306,193  Z"/>

<path  fill="#99D2BD" stroke-width="0" stroke="#99D2BD" d = " M151 196 C152.014,196 153,199.959 153,201 151.362,201 151,197.424 151,196  Z"/>

<path  fill="#99D2BD" stroke-width="0" stroke="#99D2BD" d = " M305 198 L304,200 C304,200 305,198 305,198  Z"/>

<path  fill="#99D2BD" stroke-width="0" stroke="#99D2BD" d = " M304 201 L303,203 C303,203 304,201 304,201  Z"/>

<path  fill="#99D2BD" stroke-width="0" stroke="#99D2BD" d = " M153 203 L154,205 C154,205 153,203 153,203  Z"/>

<path  fill="#99D2BD" stroke-width="0" stroke="#99D2BD" d = " M303 205 L302,207 C302,207 303,205 303,205  Z"/>

<path  fill="#99D2BD" stroke-width="0" stroke="#99D2BD" d = " M154 206 L155,208 C155,208 154,206 154,206  Z"/>

<path  fill="#99D2BD" stroke-width="0" stroke="#99D2BD" d = " M302 207 L301,209 C301,209 302,207 302,207  Z"/>

<path  fill="#99D2BD" stroke-width="0" stroke="#99D2BD" d = " M155 209 L156,210 C156,210 155,209 155,209  Z"/>

<path  fill="#C7CBCA" stroke-width="0" stroke="#C7CBCA" d = " M295 216 L294,217 C294,217 295,216 295,216  Z"/>

<path  fill="#C7CBCA" stroke-width="0" stroke="#C7CBCA" d = " M294 218 L293,219 C293,219 294,218 294,218  Z"/>

<path  fill="#C7CBCA" stroke-width="0" stroke="#C7CBCA" d = " M163 220 L164,221 C164,221 163,220 163,220  Z"/>

<path  fill="#C7CBCA" stroke-width="0" stroke="#C7CBCA" d = " M282 237 L281,238 C281,238 282,237 282,237  Z"/>

<path  fill="#C7CBCA" stroke-width="0" stroke="#C7CBCA" d = " M178 240 L180,242 C180,242 178,240 178,240  Z"/>

<path  fill="#C7CBCA" stroke-width="0" stroke="#C7CBCA" d = " M279 240 L278,241 C278,241 279,240 279,240  Z"/>

<path  fill="#C7CBCA" stroke-width="0" stroke="#C7CBCA" d = " M277 241 L276,242 C276,242 277,241 277,241  Z"/>

<path  fill="#C7CBCA" stroke-width="0" stroke="#C7CBCA" d = " M276 242 L275,243 C275,243 276,242 276,242  Z"/>

<path  fill="#C7CBCA" stroke-width="0" stroke="#C7CBCA" d = " M182 243 L185,245 C183.762,245 182,244.577 182,243  Z"/>

<path  fill="#C7CBCA" stroke-width="0" stroke="#C7CBCA" d = " M275 243 L273,244 C273,244 275,243 275,243  Z"/>

<path  fill="#C7CBCA" stroke-width="0" stroke="#C7CBCA" d = " M273 244 L272,245 C272,245 273,244 273,244  Z"/>

</g>
</svg>
