<svg xmlns="http://www.w3.org/2000/svg" xmlns:xlink="http://www.w3.org/1999/xlink"  viewBox="0 0 456 320">
<g>
<rect width="456" height="320" fill="#000000"  stroke-width="0" /> 
<path  fill="#1E9D5A" stroke-width="0" stroke="#1E9D5A" d = " M149 39 C149,41.043 149,42.957 149,45 149,45 158.5,42 158.5,42 162.228,40.136 186.213,36 191,36 191,36 192,31 192,31 186.464,31 164.54,32.9801 160.5,35 157.67,36.4151 153.278,38 150,38 150,38 149,39 149,39  Z"/>

<path  fill="#1E9C59" stroke-width="0" stroke="#1E9C59" d = " M222 50 L223,50 C223,50 227,48 227,48 227,45.0031 223.357,41.9283 221.5,41 221.5,41 213.5,33 213.5,33 207.564,30.0321 199.128,31 192,31 192,31 191,36 191,36 200.342,36 222,36.2567 222,50  Z"/>

<path  fill="#1E9C59" stroke-width="0" stroke="#1E9C59" d = " M230 47 L234,50 C234,36.1043 256.719,36 265,36 265,36 265,31 265,31 250.797,31 243.417,32.0828 234.5,41 234.5,41 230,47 230,47  Z"/>

<path  fill="#1E9D5A" stroke-width="0" stroke="#1E9D5A" d = " M307 39 C307,41.5181 307,43.2861 307,45 307,45 298.5,42 298.5,42 294.547,40.0237 270.105,36 265,36 265,36 265,31 265,31 274.136,31 288.644,32.0722 296.5,36 298.131,36.8156 307,36.8866 307,39  Z"/>

<path  fill="#1E9D58" stroke-width="0" stroke="#1E9D58" d = " M222 50 L216,54 C216,41.7489 193.64,48 189,48 189,43.7542 191,40.5269 191,36 200.342,36 222,36.2567 222,50  Z"/>

<path  fill="#1E9D58" stroke-width="0" stroke="#1E9D58" d = " M240 54 L241,54 C241,41.434 260.816,48 267,48 267,43.629 265,39.9811 265,36 256.719,36 234,36.1043 234,50 234,50 240,54 240,54  Z"/>

<path  fill="#1F9C58" stroke-width="0" stroke="#1F9C58" d = " M147 62 L147,68 C154.967,68 178.878,48 189,48 189,43.7542 191,40.5269 191,36 186.213,36 162.228,40.136 158.5,42 158.5,42 149,45 149,45 149,45 147,61 147,61 147,61 147,62 147,62  Z"/>

<path  fill="#1F9C58" stroke-width="0" stroke="#1F9C58" d = " M309 63 L309,68 C300.911,68 280.02,49 268,49 268,49 267,48 267,48 267,43.629 265,39.9811 265,36 270.105,36 294.547,40.0237 298.5,42 298.5,42 307,45 307,45 307,45 308,45 308,45 308,45 309,61 309,61 309,61 309,63 309,63  Z"/>

<path  fill="#187F60" stroke-width="0" stroke="#187F60" d = " M150 38 L149,39 C149,39 150,38 150,38  Z"/>

<path  fill="#187F60" stroke-width="0" stroke="#187F60" d = " M142 47 L143,47 C144.974,47 146.517,45 149,45 149,42.957 149,41.043 149,39 145.697,39 143.885,41 141,41 141,41 142,47 142,47  Z"/>

<path  fill="#187F60" stroke-width="0" stroke="#187F60" d = " M314 47 L315,47 C315,44.4819 315,42.7139 315,41 312.115,41 310.303,39 307,39 307,41.5181 307,43.2861 307,45 307,45 308,45 308,45 308,45 314,47 314,47  Z"/>

<path  fill="#197E64" stroke-width="0" stroke="#197E64" d = " M105 65 L106,65 C106,62.2706 112.041,61.4593 113.5,60 116.615,56.8855 137.646,47 142,47 142,47 141,41 141,41 134.09,41 117.105,50.6975 110.5,54 110.5,54 103,59 103,59 103,59 105,65 105,65  Z"/>

<path  fill="#197E64" stroke-width="0" stroke="#197E64" d = " M353 59 L351,64 C344.145,64 324.144,47 315,47 315,44.4819 315,42.7139 315,41 318.692,41 342.453,50.953 345,53.5 345,53.5 353,59 353,59  Z"/>

<path  fill="#187F64" stroke-width="0" stroke="#187F64" d = " M146 61 L147,61 C147,61 149,45 149,45 146.517,45 144.974,47 143,47 143,52.3207 146,56.2947 146,61  Z"/>

<path  fill="#187F64" stroke-width="0" stroke="#187F64" d = " M309 61 L311,61 C311,55.981 314,51.8369 314,47 314,47 308,45 308,45 308,45 309,61 309,61  Z"/>

<path  fill="#1F9D58" stroke-width="0" stroke="#1F9D58" d = " M203 65 L204,65 C204,63.9219 215.513,54 216,54 216,41.7489 193.64,48 189,48 189,53.3185 185,59.9008 185,65 187.069,65 203,58.7035 203,65  Z"/>

<path  fill="#1F9D58" stroke-width="0" stroke="#1F9D58" d = " M253 65 C253,58.801 269.207,65 271,65 271,59.7599 268,54.4759 268,49 268,49 267,48 267,48 260.816,48 241,41.434 241,54 241,54 253,65 253,65  Z"/>

<path  fill="#197F61" stroke-width="0" stroke="#197F61" d = " M106 65 C106,69.3549 111,73.7033 111,77 111,77 118.5,72 118.5,72 124.617,68.9417 139.266,62 146,62 146,62 146,61 146,61 146,56.2947 143,52.3207 143,47 143,47 142,47 142,47 137.646,47 116.615,56.8855 113.5,60 112.041,61.4593 106,62.2706 106,65  Z"/>

<path  fill="#3EA665" stroke-width="0" stroke="#3EA665" d = " M223 75 L233,75 C233,66.7257 234,57.6148 234,50 234,50 230,47 230,47 228.468,47 229.05,48 227,48 227,48 223,50 223,50 223,50 223,75 223,75  Z"/>

<path  fill="#197F61" stroke-width="0" stroke="#197F61" d = " M351 65 C351,66.3397 346.533,76 345,76 340.9,76 319.375,62 311,62 311,62 311,61 311,61 311,55.981 314,51.8369 314,47 314,47 315,47 315,47 324.144,47 344.145,64 351,64 351,64 351,65 351,65  Z"/>

<path  fill="#1E9C5A" stroke-width="0" stroke="#1E9C5A" d = " M147 69 L147,84 C155.966,84 179.996,66 185,66 185,66 185,65 185,65 185,59.9008 189,53.3185 189,48 178.878,48 154.967,68 147,68 147,68 147,69 147,69  Z"/>

<path  fill="#1E9C5A" stroke-width="0" stroke="#1E9C5A" d = " M309 69 C309,72.8036 309,78.9732 309,83 297.512,83 277.035,66 271,66 271,66 271,65 271,65 271,59.7599 268,54.4759 268,49 280.02,49 300.911,68 309,68 309,68 309,69 309,69  Z"/>

<path  fill="#40A565" stroke-width="0" stroke="#40A565" d = " M223 75 L218,76 C218,69.4701 216,60.5072 216,54 216,54 222,50 222,50 222,50 223,50 223,50 223,50 223,75 223,75  Z"/>

<path  fill="#40A565" stroke-width="0" stroke="#40A565" d = " M233 75 C235.483,75 237.026,77 239,77 239,69.3808 240,60.9646 240,54 240,54 234,50 234,50 234,57.6148 233,66.7257 233,75  Z"/>

<path  fill="#3EA566" stroke-width="0" stroke="#3EA566" d = " M218 77 C213.001,77 209.045,83 205,83 205,76.7839 204,70.7076 204,65 204,63.9219 215.513,54 216,54 216,60.5072 218,69.4701 218,76 218,76 218,77 218,77  Z"/>

<path  fill="#3EA566" stroke-width="0" stroke="#3EA566" d = " M239 77 C243.647,77 247.128,83 251,83 251,76.977 253,71.3162 253,66 253,66 253,65 253,65 253,65 241,54 241,54 241,54 240,54 240,54 240,60.9646 239,69.3808 239,77  Z"/>

<path  fill="#1B8062" stroke-width="0" stroke="#1B8062" d = " M92 67 L94,73 C94,73 105,65 105,65 105,65 103,59 103,59 101.399,59 92,65.4164 92,67  Z"/>

<path  fill="#1B8062" stroke-width="0" stroke="#1B8062" d = " M365 67 C364.351,67 364.023,72 362,72 357.818,72 354.452,65 351,65 351,65 351,64 351,64 351,64 353,59 353,59 354.72,59 365,65.514 365,67  Z"/>

<path  fill="#1C7F64" stroke-width="0" stroke="#1C7F64" d = " M146 62 L147,62 C147,62 147,61 147,61 147,61 146,61 146,61 146,61 146,62 146,62  Z"/>

<path  fill="#1C7F64" stroke-width="0" stroke="#1C7F64" d = " M311 62 L309,63 C309,63 309,61 309,61 309,61 311,61 311,61 311,61 311,62 311,62  Z"/>

<path  fill="#1A7F63" stroke-width="0" stroke="#1A7F63" d = " M111 77 C111,77.831 113.963,84 115,84 126.041,84 135.806,69 147,69 147,69 147,68 147,68 147,68 147,62 147,62 147,62 146,62 146,62 139.266,62 124.617,68.9417 118.5,72 118.5,72 111,77 111,77  Z"/>

<path  fill="#1D9C5A" stroke-width="0" stroke="#1D9C5A" d = " M183 88 L184,88 C184,86.3574 187.765,87 189,87 189,85.5271 190.952,86 192,86 192,78.4554 203,70.2914 203,65 203,58.7035 187.069,65 185,65 185,65 185,66 185,66 185,73.2693 183,80.093 183,88  Z"/>

<path  fill="#1D9C5A" stroke-width="0" stroke="#1D9C5A" d = " M265 86 L273,88 C273,82.5976 273,75.5956 273,71.5 273,69.9046 271,68.2446 271,66 271,66 271,65 271,65 269.207,65 253,58.801 253,65 253,65 253,66 253,66 254.499,66 265,83.7042 265,86  Z"/>

<path  fill="#1A7F63" stroke-width="0" stroke="#1A7F63" d = " M341 85 L342,85 C342,85 345,77 345,77 345,77 345,76 345,76 340.9,76 319.375,62 311,62 311,62 309,63 309,63 309,63 309,68 309,68 309,68 309,69 309,69 315.73,69 327.307,77.9036 333.5,81 334.975,81.7373 341,82.7046 341,85  Z"/>

<path  fill="#1C7F63" stroke-width="0" stroke="#1C7F63" d = " M97 79 C99.9077,79 103.092,79 106,79 108.25,79 109.376,77 111,77 111,73.7033 106,69.3549 106,65 106,65 105,65 105,65 105,65 94,73 94,73 94,74.1464 95.3393,79 97,79  Z"/>

<path  fill="#3FA664" stroke-width="0" stroke="#3FA664" d = " M196 91 L197,91 C197,91 205,84 205,84 205,84 205,83 205,83 205,76.7839 204,70.7076 204,65 204,65 203,65 203,65 203,70.2914 192,78.4554 192,86 193.811,86 196,89.4383 196,91  Z"/>

<path  fill="#1C7F63" stroke-width="0" stroke="#1C7F63" d = " M350 79 C352.954,79 359,75.8768 359,80 361.334,80 360.341,75.8189 361,74.5 361,74.5 363,73 363,73 363,73 362,72 362,72 357.818,72 354.452,65 351,65 351,66.3397 346.533,76 345,76 345,76 345,77 345,77 345,77 350,79 350,79  Z"/>

<path  fill="#1F9B5A" stroke-width="0" stroke="#1F9B5A" d = " M154 101 C151.167,101 149.16,103 147,103 147,103 147,84 147,84 155.966,84 179.996,66 185,66 185,73.2693 183,80.093 183,88 183,88 182,89 182,89 180.063,89 174,90.5532 174,93 171.909,93 163,94.9125 163,97 161.535,97 159,96.891 159,99 157.576,99 154,99.3616 154,101  Z"/>

<path  fill="#3FA664" stroke-width="0" stroke="#3FA664" d = " M265 86 C262.831,86 260,88.899 260,91 260,91 251,83 251,83 251,76.977 253,71.3162 253,66 254.499,66 265,83.7042 265,86  Z"/>

<path  fill="#1F9B5A" stroke-width="0" stroke="#1F9B5A" d = " M273 88 C280.873,88 298.935,102 309,102 309,94.7082 309,90.9124 309,84 309,84 309,83 309,83 297.512,83 277.035,66 271,66 271,68.2446 273,69.9046 273,71.5 273,75.5956 273,82.5976 273,88  Z"/>

<path  fill="#197E63" stroke-width="0" stroke="#197E63" d = " M69 98 C65.5501,98 64.0537,101 61,101 61,95.4593 86.9264,67 92,67 92,67 94,73 94,73 90.5834,73 71,93.0388 71,96 71,96 70,97 70,97 70,97 69,98 69,98  Z"/>

<path  fill="#197E63" stroke-width="0" stroke="#197E63" d = " M387 98 C389.371,98 392.423,101 395,101 395,95.5026 378.311,75.9054 372.5,73 369.438,71.4688 367.991,67 365,67 364.351,67 364.023,72 362,72 362,72 363,73 363,73 366.232,73 385,93.6386 385,96 385,96 387,98 387,98  Z"/>

<path  fill="#187E62" stroke-width="0" stroke="#187E62" d = " M119 95 L120,95 C127.722,95 138.285,84 147,84 147,84 147,69 147,69 135.806,69 126.041,84 115,84 115,84 115,85 115,85 115,88.6846 119,91.0256 119,95  Z"/>

<path  fill="#187E62" stroke-width="0" stroke="#187E62" d = " M341 85 C341,89.046 337,91.085 337,95 328.518,95 318.508,84 309,84 309,84 309,83 309,83 309,78.9732 309,72.8036 309,69 315.73,69 327.307,77.9036 333.5,81 334.975,81.7373 341,82.7046 341,85  Z"/>

<path  fill="#1B7F64" stroke-width="0" stroke="#1B7F64" d = " M90 89 C83.0404,89 78.7955,96 71,96 71,93.0388 90.5834,73 94,73 94,74.1464 95.3393,79 97,79 97,79 97,80 97,80 97,80 97,81 97,81 97,83.741 95,83.2677 95,86 95,86 94,87 94,87 94,87 93,87 93,87 93,87 91,88 91,88 91,88 90,89 90,89  Z"/>

<path  fill="#1B7F64" stroke-width="0" stroke="#1B7F64" d = " M367 89 C370.211,89 380.703,96 385,96 385,93.6386 366.232,73 363,73 363,73 361,74.5 361,74.5 360.341,75.8189 361.334,80 359,80 359,82.6758 363,84.3242 363,87 363,87 365,88 365,88 365,85.7839 366,87.6517 366,89 366,89 367,89 367,89  Z"/>

<path  fill="#3FA566" stroke-width="0" stroke="#3FA566" d = " M221 109 L218,110 C218,110 218,77 218,77 218,77 218,76 218,76 218,76 223,75 223,75 223,85.7421 222,96.8538 222,107 222,107 221,109 221,109  Z"/>

<path  fill="#40A664" stroke-width="0" stroke="#40A664" d = " M229 102 C232.424,102 232.518,107 234,107 234,96.6447 233,85.8723 233,75 233,75 223,75 223,75 223,85.7421 222,96.8538 222,107 222,107 227,102 227,102 227,98.3456 229,98.3456 229,102  Z"/>

<path  fill="#3FA566" stroke-width="0" stroke="#3FA566" d = " M235 109 L238,110 C238,99.5355 239,88.0655 239,77 237.026,77 235.483,75 233,75 233,85.8723 234,96.6447 234,107 234,107 235,109 235,109  Z"/>

<path  fill="#197E61" stroke-width="0" stroke="#197E61" d = " M113 85 L115,85 C115,85 115,84 115,84 113.963,84 111,77.831 111,77 109.376,77 108.25,79 106,79 106,79 106,80 106,80 106,80 113,85 113,85  Z"/>

<path  fill="#3EA666" stroke-width="0" stroke="#3EA666" d = " M209 106 C209,107.653 216.372,110 218,110 218,110 218,77 218,77 213.001,77 209.045,83 205,83 205,83 205,84 205,84 205,91.1524 209,99.0263 209,106  Z"/>

<path  fill="#3EA666" stroke-width="0" stroke="#3EA666" d = " M247 106 C247,108.078 239.789,110 238,110 238,99.5355 239,88.0655 239,77 243.647,77 247.128,83 251,83 251,91.0838 247,98.7187 247,106  Z"/>

<path  fill="#197E61" stroke-width="0" stroke="#197E61" d = " M343 86 L344,86 C344,84.0989 348.099,80 350,80 350,80 350,79 350,79 350,79 345,77 345,77 345,77 342,85 342,85 342,85 343,86 343,86  Z"/>

<path  fill="#1A7E64" stroke-width="0" stroke="#1A7E64" d = " M359 80 C359,82.6758 363,84.3242 363,87 358.324,87 354.959,80 350,80 350,80 350,79 350,79 352.954,79 359,75.8768 359,80  Z"/>

<path  fill="#1A7E64" stroke-width="0" stroke="#1A7E64" d = " M97 81 C97,83.741 95,83.2677 95,86 95,86 106,80 106,80 106,80 106,79 106,79 103.092,79 99.9077,79 97,79 97,79 97,80 97,80 98.1859,80 98.1859,81 97,81  Z"/>

<path  fill="#1C7F63" stroke-width="0" stroke="#1C7F63" d = " M97 80 C98.1859,80 98.1859,81 97,81 97,81 97,80 97,80  Z"/>

<path  fill="#1B7F62" stroke-width="0" stroke="#1B7F62" d = " M66 135 L71,137 C71,132.572 75.1076,128.285 77,124.5 83.296,111.908 90.6242,97.9379 104.5,91 107.485,89.5073 109.404,86 113,86 113,86 113,85 113,85 113,85 106,80 106,80 106,80 95,86 95,86 95,86 94,87 94,87 94,87 93,87 93,87 93,87 91,88 91,88 91,88 90,89 90,89 90,89 79,101.5 79,101.5 74.048,111.404 66,123.311 66,135  Z"/>

<path  fill="#1B7F62" stroke-width="0" stroke="#1B7F62" d = " M385 137 L386,137 C386,137 391,135 391,135 391,135 391,134 391,134 391,128.746 381.7,108.9 379,103.5 376.539,98.5788 367,93.2146 367,89 367,89 366,89 366,89 366,89 365,88 365,88 365,88 363,87 363,87 358.324,87 354.959,80 350,80 348.099,80 344,84.0989 344,86 344,86 351.5,91 351.5,91 363.166,96.8332 385,124.116 385,137  Z"/>

<path  fill="#40A564" stroke-width="0" stroke="#40A564" d = " M247 106 L249,106 C249,106 249,105 249,105 249,100.291 260,96.3794 260,91 260,91 251,83 251,83 251,91.0838 247,98.7187 247,106  Z"/>

<path  fill="#197D61" stroke-width="0" stroke="#197D61" d = " M139 107 C135.177,107 132.686,110 129,110 129,110 120,96 120,96 120,96 120,95 120,95 127.722,95 138.285,84 147,84 147,84 147,103 147,103 145.302,103 139,104.768 139,107  Z"/>

<path  fill="#40A564" stroke-width="0" stroke="#40A564" d = " M208 106 L209,106 C209,99.0263 205,91.1524 205,84 205,84 197,91 197,91 197,97.0513 207,100.638 207,105 207,105 208,106 208,106  Z"/>

<path  fill="#197D61" stroke-width="0" stroke="#197D61" d = " M327 111 L328,111 C328,110.133 335.985,96 337,96 337,96 337,95 337,95 328.518,95 318.508,84 309,84 309,90.9124 309,94.7082 309,102 309,102 309,103 309,103 313.92,103 318.347,106.924 322.5,109 323.619,109.559 327,109.155 327,111  Z"/>

<path  fill="#197D62" stroke-width="0" stroke="#197D62" d = " M113 86 C113,87.4286 117.933,95 119,95 119,91.0256 115,88.6846 115,85 115,85 113,85 113,85 113,85 113,86 113,86  Z"/>

<path  fill="#197D62" stroke-width="0" stroke="#197D62" d = " M343 86 C343,87.6536 338.772,95 337,95 337,91.085 341,89.046 341,85 341,85 342,85 342,85 342,85 343,86 343,86  Z"/>

<path  fill="#1A7E64" stroke-width="0" stroke="#1A7E64" d = " M95 86 L94,87 C94,87 95,86 95,86  Z"/>

<path  fill="#1B7E63" stroke-width="0" stroke="#1B7E63" d = " M71 137 C73.2946,137 77.4842,142 81,142 81,142 83,138.5 83,138.5 91.8228,120.854 88.296,112.102 110.5,101 113.877,99.3117 115.919,96 120,96 120,96 120,95 120,95 120,95 119,95 119,95 117.933,95 113,87.4286 113,86 109.404,86 107.485,89.5073 104.5,91 90.6242,97.9379 83.296,111.908 77,124.5 75.1076,128.285 71,132.572 71,137  Z"/>

<path  fill="#1E9C58" stroke-width="0" stroke="#1E9C58" d = " M189 87 L192,87 C192,87 192,86 192,86 190.952,86 189,85.5271 189,87  Z"/>

<path  fill="#3FA466" stroke-width="0" stroke="#3FA466" d = " M195 91 L196,91 C196,89.4383 193.811,86 192,86 192,86 192,87 192,87 192.966,87 195,89.8863 195,91  Z"/>

<path  fill="#3FA466" stroke-width="0" stroke="#3FA466" d = " M260 91 L261,91 C261,91 265,87 265,87 265,87 265,86 265,86 262.831,86 260,88.899 260,91  Z"/>

<path  fill="#1E9C58" stroke-width="0" stroke="#1E9C58" d = " M273 88 L273,89 C273,89 265,87 265,87 265,87 265,86 265,86 265,86 273,88 273,88  Z"/>

<path  fill="#1B7E63" stroke-width="0" stroke="#1B7E63" d = " M385 137 C382.808,137 378.572,142 375,142 375,138.805 372.403,134.306 371,131.5 369.835,129.171 370.147,125.794 369,123.5 364.157,113.814 357.332,106.916 347.5,102 343.813,100.156 341.419,96 337,96 337,96 337,95 337,95 338.772,95 343,87.6536 343,86 343,86 344,86 344,86 344,86 351.5,91 351.5,91 363.166,96.8332 385,124.116 385,137  Z"/>

<path  fill="#1A7E64" stroke-width="0" stroke="#1A7E64" d = " M93 87 L91,88 C91,88 93,87 93,87  Z"/>

<path  fill="#1E9C58" stroke-width="0" stroke="#1E9C58" d = " M184 88 L184,89 C185.041,89 189,88.0144 189,87 187.765,87 184,86.3574 184,88  Z"/>

<path  fill="#CACCC7" stroke-width="0" stroke="#CACCC7" d = " M207 105 L208,106 C198.924,106 196.3,96.4 189.5,93 183.015,89.7575 176.331,97 171,97 171,97 170,98 170,98 170,98 168,98 168,98 168,98 166,99 166,99 164.952,99 163,99.4729 163,98 163,98 163,97 163,97 165.091,97 174,95.0875 174,93 175.7,93 182,90.5402 182,89 182,89 184,89 184,89 185.041,89 189,88.0144 189,87 189,87 192,87 192,87 192.966,87 195,89.8863 195,91 195,94.4209 203.089,105 207,105  Z"/>

<path  fill="#CACCC7" stroke-width="0" stroke="#CACCC7" d = " M290 99 L291,99 C292.048,99 294,99.4729 294,98 286.744,98 279.725,89 273,89 273,89 265,87 265,87 265,87 261,91 261,91 261,96.8346 251,100.289 251,105 258.936,105 260.211,96.1447 266.5,93 273.09,89.7049 280.278,97 286,97 286,97 287,98 287,98 287,98 288,98 288,98 288,98 290,99 290,99  Z"/>

<path  fill="#1A7E64" stroke-width="0" stroke="#1A7E64" d = " M365 88 L366,89 C366,87.6517 365,85.7839 365,88  Z"/>

<path  fill="#1A7E64" stroke-width="0" stroke="#1A7E64" d = " M91 88 L90,89 C90,89 91,88 91,88  Z"/>

<path  fill="#1D9D5A" stroke-width="0" stroke="#1D9D5A" d = " M182 89 L184,89 C184,89 184,88 184,88 184,88 183,88 183,88 183,88 182,89 182,89  Z"/>

<path  fill="#1D9D5A" stroke-width="0" stroke="#1D9D5A" d = " M309 103 L309,104 C303.86,104 298.732,98 294,98 286.744,98 279.725,89 273,89 273,89 273,88 273,88 280.873,88 298.935,102 309,102 309,102 309,103 309,103  Z"/>

<path  fill="#1A7E64" stroke-width="0" stroke="#1A7E64" d = " M65 135 L66,135 C66,123.311 74.048,111.404 79,101.5 79,101.5 90,89 90,89 83.0404,89 78.7955,96 71,96 71,96 70,97 70,97 70,97 69,98 69,98 69,104.312 57,119.001 57,129 58.3446,129 65,134.43 65,135  Z"/>

<path  fill="#1D9D5A" stroke-width="0" stroke="#1D9D5A" d = " M182 89 C180.063,89 174,90.5532 174,93 175.7,93 182,90.5402 182,89  Z"/>

<path  fill="#1A7E64" stroke-width="0" stroke="#1A7E64" d = " M400 129 C396.945,129 394.571,134 391,134 391,128.746 381.7,108.9 379,103.5 376.539,98.5788 367,93.2146 367,89 370.211,89 380.703,96 385,96 385,96 387,98 387,98 387,98 395,112.5 395,112.5 395.965,114.43 398.681,128 400,128 400,128 400,129 400,129  Z"/>

<path  fill="#40A465" stroke-width="0" stroke="#40A465" d = " M197 91 C197,97.0513 207,100.638 207,105 203.089,105 195,94.4209 195,91 195,91 196,91 196,91 196,91 197,91 197,91  Z"/>

<path  fill="#40A465" stroke-width="0" stroke="#40A465" d = " M249 105 L251,105 C251,100.289 261,96.8346 261,91 261,91 260,91 260,91 260,96.3794 249,100.291 249,105  Z"/>

<path  fill="#1D9D5A" stroke-width="0" stroke="#1D9D5A" d = " M174 93 C171.909,93 163,94.9125 163,97 165.091,97 174,95.0875 174,93  Z"/>

<path  fill="#C9C7C9" stroke-width="0" stroke="#C9C7C9" d = " M363 167 L364,167 C364,162.084 359,157.305 359,152 359,152 353,140.5 353,140.5 349.618,133.737 339.434,120.467 332.5,117 322.432,111.966 311.439,108.97 301.5,104 299.652,103.076 291,101.603 291,99 291,99 290,99 290,99 290,99 288,98 288,98 288,98 287,98 287,98 287,98 286,97 286,97 280.278,97 273.09,89.7049 266.5,93 260.211,96.1447 258.936,105 251,105 251,105 249,106 249,106 249,106 247,106 247,106 247,108.078 239.789,110 238,110 238,110 235,109 235,109 235,111.307 222.501,109 221,109 221,109 218,110 218,110 216.372,110 209,107.653 209,106 209,106 208,106 208,106 198.924,106 196.3,96.4 189.5,93 183.015,89.7575 176.331,97 171,97 171,97 170,98 170,98 170,98 168,98 168,98 168,98 166,99 166,99 166,101.91 142.784,107.358 139.5,109 139.5,109 121.5,119 121.5,119 117.784,120.858 114.512,129 111,129 111,130.429 109.712,133 108,133 108,134.408 106.803,138 105,138 105,139.238 104.577,141 103,141 103,141 101,145 101,145 101,145 99,149 99,149 99,149 98,151 98,151 98,151 97,153 97,153 97,153 97,156 97,156 97,156 97,157 97,157 97,157 103,145.5 103,145.5 105.812,139.876 117.336,124.082 123.5,121 130.485,117.508 137.566,114.467 144.5,111 149.245,108.627 155.68,109.41 160.5,107 164.966,104.767 173.842,108 178,108 178,98.2555 202,112.048 202,115 202,115 203,115 203,115 203,115 204,116 204,116 204,116 205,116 205,116 210.932,116 216.671,121 222,121 222,121 224,122 224,122 224,122 226,122 226,122 226,120.465 230,120.465 230,122 230,122 233,122 233,122 233,122 235,121 235,121 238.907,121 245.964,117 252,117 252,117 254,115 254,115 254,112.108 279,98.1153 279,108 282.928,108 291.241,104.871 295.5,107 295.5,107 317.5,113 317.5,113 332.759,120.63 345.058,130.615 353,146.5 355.863,152.226 363,160.476 363,167  Z"/>

<path  fill="#187E61" stroke-width="0" stroke="#187E61" d = " M71 96 L70,97 C70,97 71,96 71,96  Z"/>

<path  fill="#187D61" stroke-width="0" stroke="#187D61" d = " M96 150 L97,150 C97,147.268 101.803,135 105,135 105,131.551 119.336,115 123,115 123,112.725 126.756,111 129,111 129,111 129,110 129,110 129,110 120,96 120,96 115.919,96 113.877,99.3117 110.5,101 88.296,112.102 91.8228,120.854 83,138.5 83,138.5 81,142 81,142 81,142 81,143 81,143 81,143 96,150 96,150  Z"/>

<path  fill="#187D61" stroke-width="0" stroke="#187D61" d = " M375 143 L360,150 C360,142.747 342.896,120.198 336.5,117 333.528,115.514 331.515,111 328,111 328,110.133 335.985,96 337,96 341.419,96 343.813,100.156 347.5,102 357.332,106.916 364.157,113.814 369,123.5 370.147,125.794 369.835,129.171 371,131.5 372.403,134.306 375,138.805 375,142 375,142 375,143 375,143  Z"/>

<path  fill="#1D9D5A" stroke-width="0" stroke="#1D9D5A" d = " M163 98 L159,99 C159,96.891 161.535,97 163,97 163,97 163,98 163,98  Z"/>

<path  fill="#C9C9CA" stroke-width="0" stroke="#C9C9CA" d = " M171 97 L170,98 C170,98 171,97 171,97  Z"/>

<path  fill="#C9C9CA" stroke-width="0" stroke="#C9C9CA" d = " M286 97 L287,98 C287,98 286,97 286,97  Z"/>

<path  fill="#187E61" stroke-width="0" stroke="#187E61" d = " M405 125 C403.688,125 402.554,128 400,128 398.681,128 395.965,114.43 395,112.5 395,112.5 387,98 387,98 389.371,98 392.423,101 395,101 395,101 398,106.5 398,106.5 398,106.5 405,125 405,125  Z"/>

<path  fill="#187E61" stroke-width="0" stroke="#187E61" d = " M56 129 L57,129 C57,119.001 69,104.312 69,98 65.5501,98 64.0537,101 61,101 61,106.057 52,117.376 52,125 52,128.234 56,125.959 56,129  Z"/>

<path  fill="#C9C9CA" stroke-width="0" stroke="#C9C9CA" d = " M123 115 C123,119.689 111,123.264 111,129 114.512,129 117.784,120.858 121.5,119 121.5,119 139.5,109 139.5,109 142.784,107.358 166,101.91 166,99 164.952,99 163,99.4729 163,98 163,98 159,99 159,99 159,101.461 155.622,101 154,101 154,102.429 148.345,104 147,104 147,104.616 140.07,107 139,107 139,109.623 131.172,111 129,111 129,112.617 124.417,115 123,115  Z"/>

<path  fill="#C9C9CA" stroke-width="0" stroke="#C9C9CA" d = " M168 98 L166,99 C166,99 168,98 168,98  Z"/>

<path  fill="#C9C9CA" stroke-width="0" stroke="#C9C9CA" d = " M288 98 L290,99 C290,99 288,98 288,98  Z"/>

<path  fill="#C9C9CA" stroke-width="0" stroke="#C9C9CA" d = " M359 150 L359,152 C359,152 353,140.5 353,140.5 349.618,133.737 339.434,120.467 332.5,117 322.432,111.966 311.439,108.97 301.5,104 299.652,103.076 291,101.603 291,99 292.048,99 294,99.4729 294,98 298.732,98 303.86,104 309,104 309,106.064 312.353,104.426 313.5,105 317.943,107.222 321.675,111 327,111 327,112.76 331.288,114.394 332.5,115 332.5,115 347,129.5 347,129.5 347,129.5 357,145.5 357,145.5 357.559,146.619 357.155,150 359,150  Z"/>

<path  fill="#1D9D5A" stroke-width="0" stroke="#1D9D5A" d = " M159 99 C157.576,99 154,99.3616 154,101 155.622,101 159,101.461 159,99  Z"/>

<path  fill="#1D9D5A" stroke-width="0" stroke="#1D9D5A" d = " M147 103 L147,104 C148.345,104 154,102.429 154,101 151.167,101 149.16,103 147,103  Z"/>

<path  fill="#7ED04B" stroke-width="0" stroke="#7ED04B" d = " M221 109 C222.501,109 235,111.307 235,109 235,109 234,107 234,107 232.518,107 232.424,102 229,102 229,103.93 227.839,102 227,102 227,102 222,107 222,107 222,107 221,109 221,109  Z"/>

<path  fill="#1C8064" stroke-width="0" stroke="#1C8064" d = " M147 104 C147,104.616 140.07,107 139,107 139,104.768 145.302,103 147,103 147,103 147,104 147,104  Z"/>

<path  fill="#1C8064" stroke-width="0" stroke="#1C8064" d = " M309 104 C309,106.064 312.353,104.426 313.5,105 317.943,107.222 321.675,111 327,111 327,109.155 323.619,109.559 322.5,109 318.347,106.924 313.92,103 309,103 309,103 309,104 309,104  Z"/>

<path  fill="#AAA8A9" stroke-width="0" stroke="#AAA8A9" d = " M181 109 C181,101.281 199.909,115 202,115 202,112.048 178,98.2555 178,108 178,108 181,109 181,109  Z"/>

<path  fill="#CACCC7" stroke-width="0" stroke="#CACCC7" d = " M251 105 L249,106 C249,106 249,105 249,105 249,105 251,105 251,105  Z"/>

<path  fill="#AAA8A9" stroke-width="0" stroke="#AAA8A9" d = " M275 109 C275,101.515 256.523,115 254,115 254,112.108 279,98.1153 279,108 279,108 275,109 275,109  Z"/>

<path  fill="#1C8064" stroke-width="0" stroke="#1C8064" d = " M129 110 L129,111 C131.172,111 139,109.623 139,107 135.177,107 132.686,110 129,110  Z"/>

<path  fill="#98D5F9" stroke-width="0" stroke="#98D5F9" d = " M135 235 L136,235 C136,233.165 147.76,233 150,233 150,231.527 151.952,232 153,232 153,232 155,231 155,231 155,231 157,231 157,231 157,231 158,230 158,230 158,230 172,223 172,223 172,223 176,212.5 176,212.5 178.684,207.133 175.71,188.079 179,181.5 181.072,177.355 186,182.049 186,184 186,184 188,184 188,184 188,184 190,180 190,180 190,180 190,164.5 190,164.5 190,163.31 189.386,160 191,160 191,160 191,152 191,152 191,152 191,146 191,146 191,146 191,143 191,143 191,137.649 191.269,129.038 189,124.5 186.818,120.135 181,114.013 181,109 181,109 178,108 178,108 173.842,108 164.966,104.767 160.5,107 155.68,109.41 149.245,108.627 144.5,111 137.566,114.467 130.485,117.508 123.5,121 117.336,124.082 105.812,139.876 103,145.5 103,145.5 97,157 97,157 97,158.622 97.4606,162 95,162 95,163.424 94.6384,167 93,167 93,168.145 93.5791,171 92,171 92,172.321 92.6844,177 91,177 91,189.904 101,206.587 101,216 101,216 101,217 101,217 101,217 102,218 102,218 102,218 102,219 102,219 102,219 103,220 103,220 103,220 103,221 103,221 103,221 104,222 104,222 104,222 105,224 105,224 105,224 117,233 117,233 117,233 127.5,236 127.5,236 127.5,236 135,235 135,235  Z"/>

<path  fill="#A8AAAA" stroke-width="0" stroke="#A8AAAA" d = " M205 116 C205,120.731 197.113,127.273 195,131.5 194.156,133.187 192.941,143 191,143 191,137.649 191.269,129.038 189,124.5 186.818,120.135 181,114.013 181,109 181,101.281 199.909,115 202,115 202,115 203,115 203,115 203,115 204,116 204,116 204,116 205,116 205,116  Z"/>

<path  fill="#A8AAAA" stroke-width="0" stroke="#A8AAAA" d = " M252 117 L261,130.5 C261.788,132.076 263.368,142 265,142 265,142 267,125.5 267,125.5 269.335,120.829 275,114.392 275,109 275,101.515 256.523,115 254,115 254,115 252,117 252,117  Z"/>

<path  fill="#98D5F9" stroke-width="0" stroke="#98D5F9" d = " M320 235 L321,235 C321,235 329.5,236 329.5,236 329.5,236 340,233 340,233 340,231.423 341.762,231 343,231 343,229.383 347.583,227 349,227 349,225.253 349.253,225 351,225 351,225 351,224 351,224 351,224 352,223 352,223 352,223 353,220 353,220 353,220 354,219 354,219 354,219 355,218 355,218 355,218 355,217 355,217 355,217 356,215 356,215 356,215 357,213 357,213 357,213 357,212 357,212 357,210.142 359.188,200 361,200 361,191.579 365,184.041 365,175 365,175 365,174 365,174 365,174 365,173 365,173 363.647,173 363,168.357 363,167 363,160.476 355.863,152.226 353,146.5 345.058,130.615 332.759,120.63 317.5,113 317.5,113 295.5,107 295.5,107 291.241,104.871 282.928,108 279,108 279,108 275,109 275,109 275,114.392 269.335,120.829 267,125.5 267,125.5 265,142 265,142 265,142 265,147 265,147 265,147 265,151 265,151 265,151 265,153 265,153 265,153 266,155 266,155 266,155 266,167 266,167 266,167 267,181 267,181 267,183.215 269,182.519 269,184 269,184 271,184 271,184 271,182.075 275.138,176.777 277,180.5 280.075,186.649 278.85,211.199 281,215.5 281,215.5 286,224 286,224 290.888,224 295.615,231 301,231 301,231 315,234 315,234 316.235,234 320,233.357 320,235  Z"/>

<path  fill="#188064" stroke-width="0" stroke="#188064" d = " M129 111 C126.756,111 123,112.725 123,115 124.417,115 129,112.617 129,111  Z"/>

<path  fill="#188064" stroke-width="0" stroke="#188064" d = " M359 150 L360,150 C360,142.747 342.896,120.198 336.5,117 333.528,115.514 331.515,111 328,111 328,111 327,111 327,111 327,112.76 331.288,114.394 332.5,115 332.5,115 347,129.5 347,129.5 347,129.5 357,145.5 357,145.5 357.559,146.619 357.155,150 359,150  Z"/>

<path  fill="#188064" stroke-width="0" stroke="#188064" d = " M108 133 L105,135 C105,131.551 119.336,115 123,115 123,119.689 111,123.264 111,129 109.288,129 108,131.571 108,133  Z"/>

<path  fill="#AAA8A9" stroke-width="0" stroke="#AAA8A9" d = " M203 115 L204,116 C204,116 203,115 203,115  Z"/>

<path  fill="#90CBEC" stroke-width="0" stroke="#90CBEC" d = " M191 146 L193,148 C195.864,148 198.503,143.997 200.5,142 204.438,138.062 222,127.464 222,123 222,123 222,121 222,121 216.671,121 210.932,116 205,116 205,120.731 197.113,127.273 195,131.5 194.156,133.187 192.941,143 191,143 191,143 191,146 191,146  Z"/>

<path  fill="#90CBEC" stroke-width="0" stroke="#90CBEC" d = " M265 147 L263,148 C263,148 257,142.5 257,142.5 251.875,137.375 245.302,134.802 240.5,130 240.5,130 234,123 234,123 234,123 235,121 235,121 238.907,121 245.964,117 252,117 252,117 261,130.5 261,130.5 261.788,132.076 263.368,142 265,142 265,142 265,147 265,147  Z"/>

<path  fill="#97D6F9" stroke-width="0" stroke="#97D6F9" d = " M224 122 L222,123 C222,123 222,121 222,121 222,121 224,122 224,122  Z"/>

<path  fill="#97D6F9" stroke-width="0" stroke="#97D6F9" d = " M226 122 C227.375,122 228.625,122 230,122 230,120.465 226,120.465 226,122  Z"/>

<path  fill="#97D6F9" stroke-width="0" stroke="#97D6F9" d = " M233 122 L234,123 C234,123 235,121 235,121 235,121 233,122 233,122  Z"/>

<path  fill="#90CAED" stroke-width="0" stroke="#90CAED" d = " M242 180 L242,184 C242,184 250.5,175 250.5,175 253.256,173.622 259.797,169.149 263.5,171 263.5,171 265,173 265,173 265,171.679 264.316,167 266,167 266,167 266,155 266,155 266,155 265,153 265,153 265,153 265,151 265,151 265,151 263,148 263,148 263,148 257,142.5 257,142.5 251.875,137.375 245.302,134.802 240.5,130 240.5,130 234,123 234,123 234,123 233,122 233,122 233,122 230,122 230,122 228.625,122 227.375,122 226,122 226,122 224,122 224,122 224,122 222,123 222,123 222,127.464 204.438,138.062 200.5,142 198.503,143.997 195.864,148 193,148 193,148 191,152 191,152 191,152 191,160 191,160 191,163.962 192,168.688 192,172 200.314,172 200.882,173.191 208.5,177 208.5,177 214,183 214,183 214,183 214,179 214,179 214,163.924 217.847,154.806 224,142.5 224,142.5 228.5,132 228.5,132 228.5,132 229,135.5 229,135.5 230.474,138.449 231.557,141.614 233,144.5 240.13,158.759 242,162.618 242,180  Z"/>

<path  fill="#1A7E62" stroke-width="0" stroke="#1A7E62" d = " M44 177 L49,177 C49,177 49,176 49,176 49,169.623 46.0285,154.443 49,148.5 49,148.5 56,129 56,129 56,125.959 52,128.234 52,125 49.5115,125 47.9682,135.564 47,137.5 41.0919,149.316 44,163.855 44,177  Z"/>

<path  fill="#1A7E62" stroke-width="0" stroke="#1A7E62" d = " M408 177 L412,177 C413.784,177 413,166.366 413,164.5 413,156.733 414.25,146.001 411,139.5 411,139.5 405,125 405,125 403.688,125 402.554,128 400,128 400,128 400,129 400,129 400,129 407,147.5 407,147.5 409.657,152.815 408,169.154 408,176 408,176 408,177 408,177  Z"/>

<path  fill="#1B8063" stroke-width="0" stroke="#1B8063" d = " M57 175 L49,176 C49,169.623 46.0285,154.443 49,148.5 49,148.5 56,129 56,129 56,129 57,129 57,129 58.3446,129 65,134.43 65,135 65,138.908 62.6629,143.174 61,146.5 57.2301,154.04 57,166.023 57,175  Z"/>

<path  fill="#C9C9CA" stroke-width="0" stroke="#C9C9CA" d = " M111 129 C109.288,129 108,131.571 108,133 109.712,133 111,130.429 111,129  Z"/>

<path  fill="#1B8063" stroke-width="0" stroke="#1B8063" d = " M399 175 C401.723,175 404.778,176 408,176 408,169.154 409.657,152.815 407,147.5 407,147.5 400,129 400,129 396.945,129 394.571,134 391,134 391,134 391,135 391,135 391,139.735 394.901,147.303 397,151.5 400.025,157.549 399,167.781 399,175  Z"/>

<path  fill="#8FCBEC" stroke-width="0" stroke="#8FCBEC" d = " M220 189 C220,180.451 218.615,156.442 227.5,152 230.202,150.649 232.454,158.409 233,159.5 237.834,169.169 236,178.306 236,189 240.476,189 239.352,180 242,180 242,162.618 240.13,158.759 233,144.5 231.557,141.614 230.474,138.449 229,135.5 229,135.5 228.5,132 228.5,132 228.5,132 224,142.5 224,142.5 217.847,154.806 214,163.924 214,179 216.768,179 215.87,189 220,189  Z"/>

<path  fill="#C9C9CA" stroke-width="0" stroke="#C9C9CA" d = " M105 135 L105,138 C106.803,138 108,134.408 108,133 108,133 105,135 105,135  Z"/>

<path  fill="#187C63" stroke-width="0" stroke="#187C63" d = " M57 175 L63,175 C63,168.382 64.336,152.828 67,147.5 67,147.5 71,137 71,137 71,137 66,135 66,135 66,135 65,135 65,135 65,138.908 62.6629,143.174 61,146.5 57.2301,154.04 57,166.023 57,175  Z"/>

<path  fill="#188064" stroke-width="0" stroke="#188064" d = " M97 151 L98,151 C98,151 99,149 99,149 99,147.535 98.891,145 101,145 101,143.535 100.891,141 103,141 103,139.762 103.423,138 105,138 105,138 105,135 105,135 101.803,135 97,147.268 97,150 97,150 97,151 97,151  Z"/>

<path  fill="#187C63" stroke-width="0" stroke="#187C63" d = " M393 175 L399,175 C399,167.781 400.025,157.549 397,151.5 394.901,147.303 391,139.735 391,135 391,135 386,137 386,137 386,137 389,146.5 389,146.5 392.761,154.022 393,166.031 393,175  Z"/>

<path  fill="#1C8063" stroke-width="0" stroke="#1C8063" d = " M76 174 C71.6439,174 68.359,175 63,175 63,168.382 64.336,152.828 67,147.5 67,147.5 71,137 71,137 73.2946,137 77.4842,142 81,142 81,142 81,143 81,143 81,143 77,155.5 77,155.5 77,155.5 76,174 76,174  Z"/>

<path  fill="#1C8063" stroke-width="0" stroke="#1C8063" d = " M381 174 C384.531,174 388.893,175 393,175 393,166.031 392.761,154.022 389,146.5 389,146.5 386,137 386,137 386,137 385,137 385,137 382.808,137 378.572,142 375,142 375,142 375,143 375,143 375,143 379,154.5 379,154.5 381.421,159.343 381,168.27 381,174  Z"/>

<path  fill="#C9C9CA" stroke-width="0" stroke="#C9C9CA" d = " M105 138 C103.423,138 103,139.762 103,141 104.577,141 105,139.238 105,138  Z"/>

<path  fill="#C9C9CA" stroke-width="0" stroke="#C9C9CA" d = " M103 141 C100.891,141 101,143.535 101,145 101,145 103,141 103,141  Z"/>

<path  fill="#197D63" stroke-width="0" stroke="#197D63" d = " M79 175 L80,175 C80,175 82,174 82,174 85.3125,174 86.4896,174 89,174 89,165.726 96,158.418 96,150 96,150 81,143 81,143 81,143 77,155.5 77,155.5 77,155.5 76,174 76,174 77.0479,174 79,173.527 79,175  Z"/>

<path  fill="#197D63" stroke-width="0" stroke="#197D63" d = " M374 174 L381,174 C381,168.27 381.421,159.343 379,154.5 379,154.5 375,143 375,143 375,143 360,150 360,150 360,158.199 367,165.398 367,174 367,174 374,174 374,174  Z"/>

<path  fill="#C9C9CA" stroke-width="0" stroke="#C9C9CA" d = " M101 145 C98.891,145 99,147.535 99,149 99,149 101,145 101,145  Z"/>

<path  fill="#97D6F9" stroke-width="0" stroke="#97D6F9" d = " M193 148 L191,152 C191,152 191,146 191,146 191,146 193,148 193,148  Z"/>

<path  fill="#97D6F9" stroke-width="0" stroke="#97D6F9" d = " M263 148 L265,151 C265,151 265,147 265,147 265,147 263,148 263,148  Z"/>

<path  fill="#C9C9CA" stroke-width="0" stroke="#C9C9CA" d = " M99 149 L98,151 C98,151 99,149 99,149  Z"/>

<path  fill="#1A8061" stroke-width="0" stroke="#1A8061" d = " M91 173 L89,174 C89,165.726 96,158.418 96,150 96,150 97,150 97,150 97,150 97,151 97,151 97,151 97,153 97,153 97,153 97,156 97,156 97,156 96,157 96,157 96,157 95,162 95,162 93.3616,162 93,165.576 93,167 91.4209,167 92,169.855 92,171 92,171 91,173 91,173  Z"/>

<path  fill="#1A8061" stroke-width="0" stroke="#1A8061" d = " M365 174 L367,174 C367,165.398 360,158.199 360,150 360,150 359,150 359,150 359,150 359,152 359,152 359,157.305 364,162.084 364,167 364,167 365,173 365,173 365,173 365,174 365,174  Z"/>

<path  fill="#C9C9CA" stroke-width="0" stroke="#C9C9CA" d = " M98 151 L97,153 C97,153 97,151 97,151 97,151 98,151 98,151  Z"/>

<path  fill="#96A7D3" stroke-width="0" stroke="#96A7D3" d = " M227 202 L226,203 C221.711,203 220,192.048 220,189 220,180.451 218.615,156.442 227.5,152 230.202,150.649 232.454,158.409 233,159.5 237.834,169.169 236,178.306 236,189 236,193.076 235.128,203 230,203 230,199.376 227,196.225 227,202  Z"/>

<path  fill="#97D6F9" stroke-width="0" stroke="#97D6F9" d = " M265 153 L266,155 C266,155 265,153 265,153  Z"/>

<path  fill="#C9C9CA" stroke-width="0" stroke="#C9C9CA" d = " M96 157 L97,157 C97,157 97,156 97,156 97,156 96,157 96,157  Z"/>

<path  fill="#C9C7C9" stroke-width="0" stroke="#C9C7C9" d = " M97 157 C97,158.622 97.4606,162 95,162 95,162 96,157 96,157 96,157 97,157 97,157  Z"/>

<path  fill="#A8AAAA" stroke-width="0" stroke="#A8AAAA" d = " M191 185 L192,185 C192,185 192,172 192,172 192,168.688 191,163.962 191,160 189.386,160 190,163.31 190,164.5 190,164.5 190,180 190,180 190,180 190,185 190,185 190,185 191,185 191,185  Z"/>

<path  fill="#C9C7C9" stroke-width="0" stroke="#C9C7C9" d = " M95 162 C93.3616,162 93,165.576 93,167 94.6384,167 95,163.424 95,162  Z"/>

<path  fill="#C8CBCC" stroke-width="0" stroke="#C8CBCC" d = " M93 167 C91.4209,167 92,169.855 92,171 93.5791,171 93,168.145 93,167  Z"/>

<path  fill="#A8AAAA" stroke-width="0" stroke="#A8AAAA" d = " M265 185 L266,185 C266,183.855 265.421,181 267,181 267,181 266,167 266,167 264.316,167 265,171.679 265,173 265,176.642 264,181.002 264,184 264,184 265,185 265,185  Z"/>

<path  fill="#C8CBCC" stroke-width="0" stroke="#C8CBCC" d = " M364 167 L365,173 C363.647,173 363,168.357 363,167 363,167 364,167 364,167  Z"/>

<path  fill="#C8CBCC" stroke-width="0" stroke="#C8CBCC" d = " M91 173 L91,177 C92.6844,177 92,172.321 92,171 92,171 91,173 91,173  Z"/>

<path  fill="#8FCBED" stroke-width="0" stroke="#8FCBED" d = " M198 192 L200,194 C201.186,194 205.192,197.346 206.5,198 208.294,198.897 211.176,197.662 212.5,197 212.5,197 215.5,197 215.5,197 220.176,194.662 215,187.386 215,185 215,185 214,184 214,184 214,184 214,183 214,183 214,183 208.5,177 208.5,177 200.882,173.191 200.314,172 192,172 192,172 192,185 192,185 192,185 198,192 198,192  Z"/>

<path  fill="#8FCBED" stroke-width="0" stroke="#8FCBED" d = " M255 195 L256,195 C256,195 257,194 257,194 257,194 258,193 258,193 258,193 259,192 259,192 259,192 262,189 262,189 262,189 263,188 263,188 263,188 263,187 263,187 263,187 264,184 264,184 264,181.002 265,176.642 265,173 265,173 263.5,171 263.5,171 259.797,169.149 253.256,173.622 250.5,175 250.5,175 242,184 242,184 242,184 239,189.5 239,189.5 236.012,195.477 245.896,200.302 250.5,198 250.5,198 255,195 255,195  Z"/>

<path  fill="#009B74" stroke-width="0" stroke="#009B74" d = " M78 194 L79,194 C80.819,194 83.5908,193 86,193 86,193 87,192 87,192 87,192 91,191 91,191 91,191 91,190 91,190 87.7854,190 89,176.639 89,174 86.4896,174 85.3125,174 82,174 82,174 80,175 80,175 80,175 79,175 79,175 79,175 76,176 76,176 76,182.429 78,188.024 78,194  Z"/>

<path  fill="#019C74" stroke-width="0" stroke="#019C74" d = " M91 177 C88.2478,177 91,188.646 91,190 87.7854,190 89,176.639 89,174 89,174 91,173 91,173 91,173 91,177 91,177  Z"/>

<path  fill="#12AD82" stroke-width="0" stroke="#12AD82" d = " M76 176 C71.1764,176 67.0853,179 63,179 63,179 63,175 63,175 68.359,175 71.6439,174 76,174 76,174 76,176 76,176  Z"/>

<path  fill="#11AC83" stroke-width="0" stroke="#11AC83" d = " M79 175 L76,176 C76,176 76,174 76,174 77.0479,174 79,173.527 79,175  Z"/>

<path  fill="#11AC83" stroke-width="0" stroke="#11AC83" d = " M82 174 L80,175 C80,175 82,174 82,174  Z"/>

<path  fill="#019C74" stroke-width="0" stroke="#019C74" d = " M365 191 L366,191 C366,185.734 367,178.876 367,174 367,174 365,174 365,174 365,174 365,175 365,175 367.813,175 365,189.469 365,191  Z"/>

<path  fill="#009B74" stroke-width="0" stroke="#009B74" d = " M369 192 L378,194 C378,188.326 381,182.038 381,176 380.031,176 374,174.853 374,174 374,174 367,174 367,174 367,178.876 366,185.734 366,191 367.048,191 369,190.527 369,192  Z"/>

<path  fill="#11AC83" stroke-width="0" stroke="#11AC83" d = " M381 174 L381,176 C380.031,176 374,174.853 374,174 374,174 381,174 381,174  Z"/>

<path  fill="#12AD82" stroke-width="0" stroke="#12AD82" d = " M381 176 C385.126,176 389.346,179 393,179 393,179 393,175 393,175 388.893,175 384.531,174 381,174 381,174 381,176 381,176  Z"/>

<path  fill="#12AC83" stroke-width="0" stroke="#12AC83" d = " M58 181 C55.1152,181 53.3029,183 50,183 50,183 49,177 49,177 49,177 49,176 49,176 49,176 57,175 57,175 57,175 58,180 58,180 58,180 58,181 58,181  Z"/>

<path  fill="#11AC82" stroke-width="0" stroke="#11AC82" d = " M63 179 L58,180 C58,180 57,175 57,175 57,175 63,175 63,175 63,175 63,179 63,179  Z"/>

<path  fill="#C8CBCC" stroke-width="0" stroke="#C8CBCC" d = " M361 200 L362,200 C362,200 363,198 363,198 363,198 363,195 363,195 363,195 364,194 364,194 364,194 364,193 364,193 364,193 365,192 365,192 365,192 365,191 365,191 365,189.469 367.813,175 365,175 365,184.041 361,191.579 361,200  Z"/>

<path  fill="#11AC82" stroke-width="0" stroke="#11AC82" d = " M393 179 C395.518,179 397.286,181 399,181 399,181 399,175 399,175 399,175 393,175 393,175 393,175 393,179 393,179  Z"/>

<path  fill="#12AC83" stroke-width="0" stroke="#12AC83" d = " M406 183 L407,183 C407,181.679 406.316,177 408,177 408,177 408,176 408,176 404.778,176 401.723,175 399,175 399,175 399,181 399,181 399,181 406,183 406,183  Z"/>

<path  fill="#019C75" stroke-width="0" stroke="#019C75" d = " M78 194 L66,195 C64.2926,195 63,181.931 63,179 67.0853,179 71.1764,176 76,176 76,182.429 78,188.024 78,194  Z"/>

<path  fill="#019C75" stroke-width="0" stroke="#019C75" d = " M378 194 C382.477,194 386.932,196 391,196 391,190.29 393,185.351 393,179 389.346,179 385.126,176 381,176 381,182.038 378,188.326 378,194  Z"/>

<path  fill="#12AD83" stroke-width="0" stroke="#12AD83" d = " M50 184 L46,185 C46,185 44,177 44,177 44,177 49,177 49,177 49,177 50,183 50,183 50,183 50,184 50,184  Z"/>

<path  fill="#C8CBCC" stroke-width="0" stroke="#C8CBCC" d = " M97 209 L101,216 C101,206.587 91,189.904 91,177 88.2478,177 91,188.646 91,190 91,190 91,191 91,191 91,191 92,193 92,193 92,193 93,194 93,194 93,194 93,196 93,196 93,196 94,198 94,198 94,198 94,199 94,199 94,199 95,201 95,201 95,201 95,203 95,203 96.5791,203 96,205.855 96,207 96,207 97,209 97,209  Z"/>

<path  fill="#12AD83" stroke-width="0" stroke="#12AD83" d = " M407 183 C407,184.577 408.762,185 410,185 411.434,185 412,178.552 412,177 412,177 408,177 408,177 406.316,177 407,181.679 407,183  Z"/>

<path  fill="#009C74" stroke-width="0" stroke="#009C74" d = " M63 196 L66,196 C66,196 66,195 66,195 64.2926,195 63,181.931 63,179 63,179 58,180 58,180 58,180 58,181 58,181 58,186.683 63,190.772 63,196  Z"/>

<path  fill="#97D6F9" stroke-width="0" stroke="#97D6F9" d = " M176 233 L165,239 C165,236.763 169.872,229.757 171,227.5 171.385,226.73 174.562,223 172,223 172,223 176,212.5 176,212.5 178.684,207.133 175.71,188.079 179,181.5 181.072,177.355 186,182.049 186,184 186,184 185,185 185,185 185,185 184,187 184,187 180.249,187 177,210.238 177,215 177,217.008 176.344,224 179,224 179,224 179,225 179,225 178.496,225 176,232.078 176,233  Z"/>

<path  fill="#97D6F9" stroke-width="0" stroke="#97D6F9" d = " M217 213 L221,213 C221,213 225,211 225,211 225,209.952 224.527,208 226,208 226,208 226,205 226,205 226,205 226,203 226,203 221.711,203 220,192.048 220,189 215.87,189 216.768,179 214,179 214,179 214,183 214,183 214,183 214,184 214,184 214,184 215,185 215,185 215,187.386 220.176,194.662 215.5,197 215.5,197 212.5,197 212.5,197 211.176,197.662 208.294,198.897 206.5,198 205.192,197.346 201.186,194 200,194 200,196.503 207,203.635 207,209 207,209 208,211 208,211 210.84,211 213.676,213 217,213  Z"/>

<path  fill="#97D6F9" stroke-width="0" stroke="#97D6F9" d = " M280 233 C284.764,233 288.592,240 293,240 293,240 289,235.5 289,235.5 289,235.5 285,227.5 285,227.5 285,227.5 283.5,223 283.5,223 283.5,223 286,224 286,224 286,224 281,215.5 281,215.5 278.85,211.199 280.075,186.649 277,180.5 275.138,176.777 271,182.075 271,184 271,184 271,185 271,185 273.825,185 274.181,190.863 275,192.5 276.694,195.888 281.875,215.749 280,219.5 280,219.5 278,224 278,224 278,224 278,226 278,226 278,226 280,233 280,233  Z"/>

<path  fill="#009C74" stroke-width="0" stroke="#009C74" d = " M391 196 L393,196 C393,191.158 399,186.201 399,181 397.286,181 395.518,179 393,179 393,185.351 391,190.29 391,196  Z"/>

<path  fill="#97D6F9" stroke-width="0" stroke="#97D6F9" d = " M188 184 L190,185 C190,185 190,180 190,180 190,180 188,184 188,184  Z"/>

<path  fill="#97D6F9" stroke-width="0" stroke="#97D6F9" d = " M235 213 L239,213 C242.894,213 245.605,211 249,211 249,211 250,209 250,209 250,203.627 255,198.305 255,195 255,195 250.5,198 250.5,198 245.896,200.302 236.012,195.477 239,189.5 239,189.5 242,184 242,184 242,184 242,180 242,180 239.352,180 240.476,189 236,189 236,193.076 235.128,203 230,203 230,203 231,210 231,210 231,210 235,213 235,213  Z"/>

<path  fill="#009B75" stroke-width="0" stroke="#009B75" d = " M63 196 C63,196.853 56.969,198 56,198 54.4142,198 50,186.005 50,184 50,184 50,183 50,183 53.3029,183 55.1152,181 58,181 58,186.683 63,190.772 63,196  Z"/>

<path  fill="#97D6F9" stroke-width="0" stroke="#97D6F9" d = " M269 184 L266,185 C266,183.855 265.421,181 267,181 267,183.215 269,182.519 269,184  Z"/>

<path  fill="#009B75" stroke-width="0" stroke="#009B75" d = " M400 199 L401,199 C401,193.427 406,188.882 406,183 406,183 399,181 399,181 399,186.201 393,191.158 393,196 393,198.102 400,196.058 400,199  Z"/>

<path  fill="#009C75" stroke-width="0" stroke="#009C75" d = " M401 199 L405,200 C405,194.89 410,190.567 410,185 408.762,185 407,184.577 407,183 407,183 406,183 406,183 406,188.882 401,193.427 401,199  Z"/>

<path  fill="#009C75" stroke-width="0" stroke="#009C75" d = " M56 199 L52,200 C50.4453,200 46,187.102 46,185 46,185 50,184 50,184 50,186.005 54.4142,198 56,198 56,198 56,199 56,199  Z"/>

<path  fill="#B3C0DE" stroke-width="0" stroke="#B3C0DE" d = " M179 225 C179,231.539 188.804,232 194,232 200.452,232 202.66,223 209,223 209,223 210,223 210,223 210,223 210,221 210,221 210,221 209,217 209,217 209,217 208,213 208,213 208,213 204.5,218 204.5,218 201.953,219.273 199.093,220 196,220 194.457,220 185,219.825 185,218.5 185,216.941 189.908,209 192,209 192,209 193,208 193,208 193,208 194,207 194,207 194,207 200.5,206 200.5,206 200.5,206 207,209 207,209 207,203.635 200,196.503 200,194 200,194 198,192 198,192 198,192 191,185 191,185 191,185 190,185 190,185 190,185 188,184 188,184 188,184 186,184 186,184 186,184 185,185 185,185 185,185 184,187 184,187 184,198.651 179,211.311 179,224 179,224 179,225 179,225  Z"/>

<path  fill="#90CAED" stroke-width="0" stroke="#90CAED" d = " M214 184 L215,185 C215,185 214,184 214,184  Z"/>

<path  fill="#97D6F9" stroke-width="0" stroke="#97D6F9" d = " M265 185 C265,186.747 264.747,187 263,187 263,187 264,184 264,184 264,184 265,185 265,185  Z"/>

<path  fill="#B3C0DE" stroke-width="0" stroke="#B3C0DE" d = " M278 226 L274.5,230 C271.143,231.679 267.065,232 263,232 257.386,232 255.164,225.332 250.5,223 250.5,223 247,224 247,224 247,224 247,217 247,217 247,217 249,214 249,214 249,219.026 257.158,220 261,220 263.014,220 270.16,220.18 271,218.5 272.202,216.097 264.561,207 262,207 262,207 255.5,206 255.5,206 255.5,206 250,209 250,209 250,203.627 255,198.305 255,195 255,195 256,195 256,195 256,195 257,194 257,194 257,194 258,193 258,193 258,193 259,192 259,192 259,192 262,189 262,189 262,189 263,188 263,188 263,188 263,187 263,187 264.747,187 265,186.747 265,185 265,185 266,185 266,185 266,185 269,184 269,184 269,184 271,184 271,184 271,184 271,185 271,185 271,187.742 275.64,204.781 277,207.5 278.053,209.605 275.406,224 278,224 278,224 278,226 278,226  Z"/>

<path  fill="#8599CC" stroke-width="0" stroke="#8599CC" d = " M185 185 L184,187 C184,187 185,185 185,185  Z"/>

<path  fill="#97D6F9" stroke-width="0" stroke="#97D6F9" d = " M192 185 L198,192 C198,192 191,185 191,185 191,185 192,185 192,185  Z"/>

<path  fill="#8599CC" stroke-width="0" stroke="#8599CC" d = " M271 185 C273.825,185 274.181,190.863 275,192.5 276.694,195.888 281.875,215.749 280,219.5 L278,224 C275.406,224 278.053,209.605 277,207.5 275.64,204.781 271,187.742 271,185  Z"/>

<path  fill="#8599CC" stroke-width="0" stroke="#8599CC" d = " M184 187 C180.249,187 177,210.238 177,215 177,217.008 176.344,224 179,224 179,211.311 184,198.651 184,187  Z"/>

<path  fill="#97D6F9" stroke-width="0" stroke="#97D6F9" d = " M263 188 L262,189 C262,189 263,188 263,188  Z"/>

<path  fill="#8ADA86" stroke-width="0" stroke="#8ADA86" d = " M92 209 L94,209 C94,209 94,208 94,208 94,208 95,207 95,207 95,207 95,203 95,203 95,203 95,201 95,201 95,201 94,199 94,199 94,199 94,198 94,198 94,198 93,196 93,196 93,196 93,194 93,194 93,194 92,193 92,193 92,193 91,191 91,191 91,191 87,192 87,192 87,192 86,193 86,193 86,197.072 84.2367,209 92,209  Z"/>

<path  fill="#8ADA86" stroke-width="0" stroke="#8ADA86" d = " M363 209 L365,209 C369.23,209 372.987,198.474 371,194.5 371,194.5 369,192 369,192 369,190.527 367.048,191 366,191 366,191 365,191 365,191 365,191 365,192 365,192 365,192 364,193 364,193 364,193 364,194 364,194 364,194 363,195 363,195 363,195 363,198 363,198 363,198 362,200 362,200 362,201.145 362.579,204 361,204 361,204 361,207 361,207 361,207 362,208 362,208 362,208 363,209 363,209  Z"/>

<path  fill="#209766" stroke-width="0" stroke="#209766" d = " M87 192 L86,193 C86,193 87,192 87,192  Z"/>

<path  fill="#97D6F9" stroke-width="0" stroke="#97D6F9" d = " M259 192 L258,193 C258,193 259,192 259,192  Z"/>

<path  fill="#209766" stroke-width="0" stroke="#209766" d = " M365 192 L364,193 C364,193 365,192 365,192  Z"/>

<path  fill="#209766" stroke-width="0" stroke="#209766" d = " M365 210 L371,213 C371,206.414 378,200.632 378,194 378,194 369,192 369,192 369,192 371,194.5 371,194.5 372.987,198.474 369.23,209 365,209 365,209 365,210 365,210  Z"/>

<path  fill="#209766" stroke-width="0" stroke="#209766" d = " M90 211 L86,213 C86,206.593 79,201.027 79,194 80.819,194 83.5908,193 86,193 86,197.072 84.2367,209 92,209 92,209 90,211 90,211  Z"/>

<path  fill="#209766" stroke-width="0" stroke="#209766" d = " M92 193 L93,194 C93,194 92,193 92,193  Z"/>

<path  fill="#219864" stroke-width="0" stroke="#219864" d = " M83 215 L78,216 C78,211.188 66,203.113 66,196 66,196 66,195 66,195 66,195 78,194 78,194 78,194 79,194 79,194 79,201.027 86,206.593 86,213 86,213 83,215 83,215  Z"/>

<path  fill="#97D6F9" stroke-width="0" stroke="#97D6F9" d = " M257 194 L256,195 C256,195 257,194 257,194  Z"/>

<path  fill="#209766" stroke-width="0" stroke="#209766" d = " M364 194 L363,195 C363,195 364,194 364,194  Z"/>

<path  fill="#219864" stroke-width="0" stroke="#219864" d = " M374 215 L378,216 C378,212.086 391,202.024 391,196 386.932,196 382.477,194 378,194 378,200.632 371,206.414 371,213 371,213 374,215 374,215  Z"/>

<path  fill="#209865" stroke-width="0" stroke="#209865" d = " M78 216 L69,219 C66.8179,219 56,200.781 56,199 56,199 56,198 56,198 56.969,198 63,196.853 63,196 63,196 66,196 66,196 66,203.113 78,211.188 78,216  Z"/>

<path  fill="#209766" stroke-width="0" stroke="#209766" d = " M93 196 L94,198 C94,198 93,196 93,196  Z"/>

<path  fill="#209865" stroke-width="0" stroke="#209865" d = " M378 216 L387,219 C390.031,219 400,202.172 400,199 400,196.058 393,198.102 393,196 393,196 391,196 391,196 391,202.024 378,212.086 378,216  Z"/>

<path  fill="#209766" stroke-width="0" stroke="#209766" d = " M363 198 L362,200 C362,200 363,198 363,198  Z"/>

<path  fill="#219765" stroke-width="0" stroke="#219765" d = " M69 219 L63,222 C63,219.233 52,205.372 52,200 52,200 56,199 56,199 56,200.781 66.8179,219 69,219  Z"/>

<path  fill="#209766" stroke-width="0" stroke="#209766" d = " M94 199 L95,201 C95,201 94,199 94,199  Z"/>

<path  fill="#219765" stroke-width="0" stroke="#219765" d = " M387 219 L393,222 C395.226,222 394.829,218.671 396,217.5 397.797,215.703 405,202.109 405,200 405,200 401,199 401,199 401,199 400,199 400,199 400,202.172 390.031,219 387,219  Z"/>

<path  fill="#C8CBCC" stroke-width="0" stroke="#C8CBCC" d = " M358 211 L357,212 C357,210.142 359.188,200 361,200 361,200 361,204 361,204 361,204 361,207 361,207 361,207 360,209 360,209 360,209 359,210 359,210 359,210 358,211 358,211  Z"/>

<path  fill="#209766" stroke-width="0" stroke="#209766" d = " M362 200 C362,201.145 362.579,204 361,204 361,204 361,200 361,200 361,200 362,200 362,200  Z"/>

<path  fill="#97D6F9" stroke-width="0" stroke="#97D6F9" d = " M226 203 L227,203 C227,203 227,202 227,202 227,202 226,203 226,203  Z"/>

<path  fill="#209766" stroke-width="0" stroke="#209766" d = " M95 207 L96,207 C96,205.855 96.5791,203 95,203 95,203 95,207 95,207  Z"/>

<path  fill="#FF5445" stroke-width="0" stroke="#FF5445" d = " M227 243 L229,243 C229,243 230,242 230,242 230,242 231,241 231,241 231,241 231,231 231,231 231,231 231,214 231,214 231,214 231,210 231,210 231,210 230,203 230,203 230,203 227,203 227,203 227,203 226,205 226,205 226,205 226,208 226,208 226,208 226,213 226,213 226,213 226,232 226,232 226,232 226,241 226,241 226,241 226,242 226,242 226,242 227,243 227,243  Z"/>

<path  fill="#CBCBC7" stroke-width="0" stroke="#CBCBC7" d = " M208 213 L204.5,218 C201.953,219.273 199.093,220 196,220 196,220 191,216.5 191,216.5 190.792,216.084 192,210.414 192,209 192,209 193,208 193,208 193,208 194,207 194,207 194,207 200.5,206 200.5,206 200.5,206 207,209 207,209 207,209 208,211 208,211 208,211 208,213 208,213  Z"/>

<path  fill="#CBCBC7" stroke-width="0" stroke="#CBCBC7" d = " M249 214 C249,219.026 257.158,220 261,220 261,220 265,217.5 265,217.5 266.877,213.746 262,209.837 262,207 262,207 255.5,206 255.5,206 255.5,206 250,209 250,209 250,209 249,211 249,211 249,211 249,214 249,214  Z"/>

<path  fill="#209766" stroke-width="0" stroke="#209766" d = " M95 207 L94,208 C94,208 95,207 95,207  Z"/>

<path  fill="#8AD987" stroke-width="0" stroke="#8AD987" d = " M94 209 L97,209 C97,209 96,207 96,207 96,207 95,207 95,207 95,207 94,208 94,208 94,208 94,209 94,209  Z"/>

<path  fill="#C9C9C9" stroke-width="0" stroke="#C9C9C9" d = " M194 207 L193,208 C193,208 194,207 194,207  Z"/>

<path  fill="#C9C9C9" stroke-width="0" stroke="#C9C9C9" d = " M262 207 C264.561,207 272.202,216.097 271,218.5 270.16,220.18 263.014,220 261,220 261,220 265,217.5 265,217.5 266.877,213.746 262,209.837 262,207  Z"/>

<path  fill="#8AD987" stroke-width="0" stroke="#8AD987" d = " M360 209 L363,209 C363,209 362,208 362,208 362,208 361,207 361,207 361,207 360,209 360,209  Z"/>

<path  fill="#209766" stroke-width="0" stroke="#209766" d = " M361 207 L362,208 C362,208 361,207 361,207  Z"/>

<path  fill="#C9C9C9" stroke-width="0" stroke="#C9C9C9" d = " M193 208 L192,209 C192,209 193,208 193,208  Z"/>

<path  fill="#A0EE9C" stroke-width="0" stroke="#A0EE9C" d = " M99 229 L104,230 C104,228.519 106,229.215 106,227 106,227 105,224 105,224 105,224 104,222 104,222 104,222 103,221 103,221 103,221 103,220 103,220 103,220 102,219 102,219 102,219 102,218 102,218 102,218 101,217 101,217 101,217 101,216 101,216 101,216 97,209 97,209 97,209 94,209 94,209 94,209 92,209 92,209 92,209 90,211 90,211 90,211 89,219 89,219 89,219 89,220 89,220 89,220 90,221 90,221 90,221 90,222 90,222 90,222 91,223 91,223 91,223 95,227 95,227 95,227 97,229 97,229 97,229 99,229 99,229  Z"/>

<path  fill="#C9C9C9" stroke-width="0" stroke="#C9C9C9" d = " M192 209 C189.908,209 185,216.941 185,218.5 185,219.825 194.457,220 196,220 196,220 191,216.5 191,216.5 190.792,216.084 192,210.414 192,209  Z"/>

<path  fill="#A0EE9C" stroke-width="0" stroke="#A0EE9C" d = " M356 230 L357,230 C357,230 358,229 358,229 358,229 359,229 359,229 359,229 360,228 360,228 360,228 361,227 361,227 361,227 362,227 362,227 362,227 363,226 363,226 363,226 364,225 364,225 364,225 365,224 365,224 365,224 366,222 366,222 366,222 367,221 367,221 367,221 367,220 367,220 367,216.474 365,211.046 365,210 365,210 365,209 365,209 365,209 363,209 363,209 363,209 360,209 360,209 360,209 359,210 359,210 359,210 358,211 358,211 358,211 357,212 357,212 357,212 357,213 357,213 357,213 356,215 356,215 356,215 355,217 355,217 355,217 355,218 355,218 355,218 354,219 354,219 354,219 353,220 353,220 353,220 352,223 352,223 352,223 351,224 351,224 351,224 351,225 351,225 351,225 350,227 350,227 350,227 352,230 352,230 352,230 356,230 356,230  Z"/>

<path  fill="#CAC7CB" stroke-width="0" stroke="#CAC7CB" d = " M231 214 L234,214 C234,214 235,213 235,213 235,213 231,210 231,210 231,210 231,214 231,214  Z"/>

<path  fill="#8AD987" stroke-width="0" stroke="#8AD987" d = " M359 210 L358,211 C358,211 359,210 359,210  Z"/>

<path  fill="#99D2BD" stroke-width="0" stroke="#99D2BD" d = " M374 215 C370.024,215 369.985,220 367,220 367,216.474 365,211.046 365,210 365,210 371,213 371,213 371,213 374,215 374,215  Z"/>

<path  fill="#99D2BD" stroke-width="0" stroke="#99D2BD" d = " M83 215 C85.7734,215 86.6695,219 89,219 89,219 90,211 90,211 90,211 86,213 86,213 86,213 83,215 83,215  Z"/>

<path  fill="#CAC7CB" stroke-width="0" stroke="#CAC7CB" d = " M209 217 L211,217 C211,217 217,213 217,213 213.676,213 210.84,211 208,211 208,211 208,213 208,213 208,213 209,217 209,217  Z"/>

<path  fill="#CAC7CB" stroke-width="0" stroke="#CAC7CB" d = " M225 213 C225,214.473 223.048,214 222,214 222,214 221,213 221,213 221,213 225,211 225,211 225,211 225,213 225,213  Z"/>

<path  fill="#CAC7CB" stroke-width="0" stroke="#CAC7CB" d = " M244 216 L247,217 C247,217 249,214 249,214 249,214 249,211 249,211 245.605,211 242.894,213 239,213 239,213 244,216 244,216  Z"/>

<path  fill="#FF5547" stroke-width="0" stroke="#FF5547" d = " M223 231 L216.5,236 C214.484,237.008 211.911,233 211,233 211,231.952 211.473,230 210,230 210,230 210,225 210,225 210,225 210,223 210,223 210,223 210,221 210,221 211.579,221 211,218.145 211,217 211,217 217,213 217,213 217,213 221,213 221,213 221,213 222,214 222,214 222,214 224,217.5 224,217.5 224,217.5 223,231 223,231  Z"/>

<path  fill="#E64438" stroke-width="0" stroke="#E64438" d = " M223 231 L226,232 C226,232 226,213 226,213 226,213 225,213 225,213 225,214.473 223.048,214 222,214 222,214 224,217.5 224,217.5 224,217.5 223,231 223,231  Z"/>

<path  fill="#FF5547" stroke-width="0" stroke="#FF5547" d = " M234 231 L239.5,236 C242.052,237.276 244.868,232 246,232 246,230.952 245.527,229 247,229 247,229 247,227 247,227 245.286,227 246,221.406 246,220 246,220 244,216 244,216 244,216 239,213 239,213 239,213 235,213 235,213 235,213 234,214 234,214 234,218.911 234,226.053 234,231  Z"/>

<path  fill="#C8CBCC" stroke-width="0" stroke="#C8CBCC" d = " M357 213 L356,215 C356,215 357,213 357,213  Z"/>

<path  fill="#E64438" stroke-width="0" stroke="#E64438" d = " M231 231 L234,231 C234,226.053 234,218.911 234,214 234,214 231,214 231,214 231,214 231,231 231,231  Z"/>

<path  fill="#6ACAB9" stroke-width="0" stroke="#6ACAB9" d = " M116 272 L119,272 C119,270.148 123.927,264 126,264 126,255.505 126.486,243.993 116.5,239 111.64,236.57 107.338,233.419 102.5,231 101.342,230.421 99,231.341 99,229 99,229 97,229 97,229 97,229 95,227 95,227 95,227 91,223 91,223 91,223 90,222 90,222 90,222 90,221 90,221 90,221 89,220 89,220 89,220 89,219 89,219 86.6695,219 85.7734,215 83,215 83,215 78,216 78,216 78,216 69,219 69,219 69,219 63,222 63,222 63,226.965 84.1992,254.85 88.5,257 90.9655,258.233 91.746,263 95,263 101.854,263 108.565,272 116,272  Z"/>

<path  fill="#C8CBCC" stroke-width="0" stroke="#C8CBCC" d = " M356 215 L355,217 C355,217 356,215 356,215  Z"/>

<path  fill="#6ACAB9" stroke-width="0" stroke="#6ACAB9" d = " M337 271 L340,272 C347.691,272 355.285,264 362,264 362,260.888 369.963,256.574 371,254.5 375.493,245.515 393,231.912 393,222 393,222 387,219 387,219 387,219 378,216 378,216 378,216 374,215 374,215 370.024,215 369.985,220 367,220 367,220 367,221 367,221 367,221 366,222 366,222 366,222 365,224 365,224 365,224 364,225 364,225 364,225 363,226 363,226 363,226 362,227 362,227 362,227 361,227 361,227 361,227 360,228 360,228 360,228 359,229 359,229 359,229 358,229 358,229 358,229 357,230 357,230 357,230 356,230 356,230 356,230 339.5,239 339.5,239 339.5,239 337,242.5 337,242.5 337,242.5 333,246.5 333,246.5 329.765,252.97 331,257.129 331,264 331,266.519 337,267.78 337,271  Z"/>

<path  fill="#E64438" stroke-width="0" stroke="#E64438" d = " M247 224 L247,227 C245.286,227 246,221.406 246,220 246,220 244,216 244,216 244,216 247,217 247,217 247,217 247,224 247,224  Z"/>

<path  fill="#C8CBCC" stroke-width="0" stroke="#C8CBCC" d = " M101 217 L102,218 C102,218 101,217 101,217  Z"/>

<path  fill="#E64438" stroke-width="0" stroke="#E64438" d = " M211 217 C211,218.145 211.579,221 210,221 210,221 209,217 209,217 209,217 211,217 211,217  Z"/>

<path  fill="#C8CBCC" stroke-width="0" stroke="#C8CBCC" d = " M355 218 L354,219 C354,219 355,218 355,218  Z"/>

<path  fill="#C8CBCC" stroke-width="0" stroke="#C8CBCC" d = " M102 219 L103,220 C103,220 102,219 102,219  Z"/>

<path  fill="#C8CBCC" stroke-width="0" stroke="#C8CBCC" d = " M354 219 L353,220 C353,220 354,219 354,219  Z"/>

<path  fill="#99D2BD" stroke-width="0" stroke="#99D2BD" d = " M89 220 L90,221 C90,221 89,220 89,220  Z"/>

<path  fill="#C8CBCC" stroke-width="0" stroke="#C8CBCC" d = " M103 221 L104,222 C104,222 103,221 103,221  Z"/>

<path  fill="#99D2BD" stroke-width="0" stroke="#99D2BD" d = " M367 221 L366,222 C366,222 367,221 367,221  Z"/>

<path  fill="#99D2BD" stroke-width="0" stroke="#99D2BD" d = " M90 222 L91,223 C91,223 90,222 90,222  Z"/>

<path  fill="#7ECDF8" stroke-width="0" stroke="#7ECDF8" d = " M129 249 C131.621,249 132.615,257 137,257 145.089,257 148.738,254.762 154.5,249 154.5,249 164,240 164,240 164,240 165,239 165,239 165,236.763 169.872,229.757 171,227.5 171.385,226.73 174.562,223 172,223 172,223 158,230 158,230 158,230 157,231 157,231 157,231 155,231 155,231 155,231 153,232 153,232 153,233.473 151.048,233 150,233 150,235.827 138.454,235 136,235 136,235 135,235 135,235 135,238.08 125.4,235.7 124,238.5 124,238.5 127,244 127,244 127,244 127,245 127,245 128.577,245 129,246.762 129,248 129,248 129,249 129,249  Z"/>

<path  fill="#FD5446" stroke-width="0" stroke="#FD5446" d = " M205 239 L204,240 C201.448,240 187.687,243.127 192,234.5 192,234.5 194,232 194,232 200.452,232 202.66,223 209,223 209,223 210,225 210,225 210,225 210,230 210,230 210,230 209,233 209,233 209,233 205,239 205,239  Z"/>

<path  fill="#E64438" stroke-width="0" stroke="#E64438" d = " M210 223 L210,225 C210,225 209,223 209,223 209,223 210,223 210,223  Z"/>

<path  fill="#FD5446" stroke-width="0" stroke="#FD5446" d = " M265 239 L262.5,241 C259.523,242.489 254.454,240 252,240 252,240 247,233 247,233 247,233 247,229 247,229 247,229 247,227 247,227 247,227 247,224 247,224 247,224 250.5,223 250.5,223 255.164,225.332 257.386,232 263,232 263,234.16 265,236.167 265,239  Z"/>

<path  fill="#7ECDF8" stroke-width="0" stroke="#7ECDF8" d = " M327 249 C324.628,249 324.086,257 320,257 309.948,257 299.752,251.003 295,241.5 295,241.5 293,240 293,240 293,240 289,235.5 289,235.5 289,235.5 285,227.5 285,227.5 285,227.5 283.5,223 283.5,223 283.5,223 286,224 286,224 290.888,224 295.615,231 301,231 301,234.14 316.483,235 320,235 320,235 321,235 321,235 321,238.17 331.645,235.789 333,238.5 333.771,240.043 329,242.906 329,245 329,245 328,247 328,247 328,247 327,249 327,249  Z"/>

<path  fill="#C8CBCC" stroke-width="0" stroke="#C8CBCC" d = " M352 223 L351,224 C351,224 352,223 352,223  Z"/>

<path  fill="#C8CBCC" stroke-width="0" stroke="#C8CBCC" d = " M106 227 C109.782,227 112.509,233 117,233 117,233 105,224 105,224 105,224 106,227 106,227  Z"/>

<path  fill="#99D2BD" stroke-width="0" stroke="#99D2BD" d = " M365 224 L364,225 C364,225 365,224 365,224  Z"/>

<path  fill="#E64438" stroke-width="0" stroke="#E64438" d = " M191 243 C192.692,243 201,240.55 201,245 202.803,245 204,241.408 204,240 201.448,240 187.687,243.127 192,234.5 192,234.5 194,232 194,232 188.804,232 179,231.539 179,225 178.496,225 176,232.078 176,233 176,233 191,239.5 191,239.5 191,239.5 191,243 191,243  Z"/>

<path  fill="#C8CBCC" stroke-width="0" stroke="#C8CBCC" d = " M349 227 L350,227 C350,227 351,225 351,225 349.253,225 349,225.253 349,227  Z"/>

<path  fill="#99D2BD" stroke-width="0" stroke="#99D2BD" d = " M364 225 L363,226 C363,226 364,225 364,225  Z"/>

<path  fill="#E64438" stroke-width="0" stroke="#E64438" d = " M280 233 C275.093,233 270.435,239 265,239 265,236.167 263,234.16 263,232 267.065,232 271.143,231.679 274.5,230 274.5,230 278,226 278,226 278,226 280,233 280,233  Z"/>

<path  fill="#99D2BD" stroke-width="0" stroke="#99D2BD" d = " M363 226 L362,227 C362,227 363,226 363,226  Z"/>

<path  fill="#99D2BD" stroke-width="0" stroke="#99D2BD" d = " M95 227 L97,229 C97,229 95,227 95,227  Z"/>

<path  fill="#8AD987" stroke-width="0" stroke="#8AD987" d = " M117 233 C117,234.947 120,235.636 120,238 113.082,238 110.257,230 104,230 104,228.519 106,229.215 106,227 109.782,227 112.509,233 117,233  Z"/>

<path  fill="#C8CBCC" stroke-width="0" stroke="#C8CBCC" d = " M349 227 C347.583,227 343,229.383 343,231 344.664,231 349,229.177 349,227  Z"/>

<path  fill="#8AD987" stroke-width="0" stroke="#8AD987" d = " M340 233 C340,235.25 336,235.259 336,238 342.702,238 345.808,230 352,230 352,230 350,227 350,227 350,227 349,227 349,227 349,229.177 344.664,231 343,231 343,232.577 341.238,233 340,233  Z"/>

<path  fill="#99D2BD" stroke-width="0" stroke="#99D2BD" d = " M361 227 L360,228 C360,228 361,227 361,227  Z"/>

<path  fill="#99D2BD" stroke-width="0" stroke="#99D2BD" d = " M360 228 L359,229 C359,229 360,228 360,228  Z"/>

<path  fill="#99D2BD" stroke-width="0" stroke="#99D2BD" d = " M126 264 L127,264 C127,264 132,261 132,261 132,261 129,249 129,249 129,249 129,248 129,248 127.423,248 127,246.238 127,245 127,245 127,244 127,244 127,244 120,238 120,238 113.082,238 110.257,230 104,230 104,230 99,229 99,229 99,231.341 101.342,230.421 102.5,231 107.338,233.419 111.64,236.57 116.5,239 126.486,243.993 126,255.505 126,264  Z"/>

<path  fill="#E64438" stroke-width="0" stroke="#E64438" d = " M246 232 L247,233 C247,233 247,229 247,229 245.527,229 246,230.952 246,232  Z"/>

<path  fill="#99D2BD" stroke-width="0" stroke="#99D2BD" d = " M358 229 L357,230 C357,230 358,229 358,229  Z"/>

<path  fill="#97D6F9" stroke-width="0" stroke="#97D6F9" d = " M158 230 L157,231 C157,231 158,230 158,230  Z"/>

<path  fill="#E64438" stroke-width="0" stroke="#E64438" d = " M209 233 L211,233 C211,231.952 211.473,230 210,230 210,230 209,233 209,233  Z"/>

<path  fill="#99D2BD" stroke-width="0" stroke="#99D2BD" d = " M329 264 L331,264 C331,257.129 329.765,252.97 333,246.5 333,246.5 337,242.5 337,242.5 337,242.5 339.5,239 339.5,239 339.5,239 356,230 356,230 356,230 352,230 352,230 345.808,230 342.702,238 336,238 336,238 329,245 329,245 329,245 328,247 328,247 328,247 327,249 327,249 327,253.646 325,256.501 325,261 325,261 329,264 329,264  Z"/>

<path  fill="#97D6F9" stroke-width="0" stroke="#97D6F9" d = " M155 231 L153,232 C153,232 155,231 155,231  Z"/>

<path  fill="#FF5346" stroke-width="0" stroke="#FF5346" d = " M199 269 C199.893,269 204,267.198 204,270 207.541,270 210.151,265 213,265 213,265 216,261 216,261 216,261 217,259 217,259 217,257.126 218.261,249 220,249 220,249 221,248 221,248 221,244.953 222.384,241 226,241 226,241 226,232 226,232 226,232 223,231 223,231 223,231 216.5,236 216.5,236 214.484,237.008 211.911,233 211,233 211,233 209,233 209,233 209,233 205,239 205,239 205,239 204,240 204,240 204,241.408 202.803,245 201,245 201,250.557 197,254.354 197,260 198.183,260 198.535,256.43 199,255.5 200.743,252.013 213.13,243.759 216,249.5 218.363,254.227 197,276.882 197,260 197,260 195,264 195,264 195,265.247 197.467,269 199,269  Z"/>

<path  fill="#FF5346" stroke-width="0" stroke="#FF5346" d = " M258 269 C254.671,269 253.03,270 252,270 248.719,270 245.866,265 243,265 243,265 240,260 240,260 240,257.96 238.28,249 236,249 236,245.59 234.846,242 231,242 231,242 231,241 231,241 231,241 231,231 231,231 231,231 234,231 234,231 234,231 239.5,236 239.5,236 242.052,237.276 244.868,232 246,232 246,232 247,233 247,233 247,233 252,240 252,240 252,240 255,245 255,245 255,249.447 259,253.339 259,258 256.775,258 256.627,254.127 255.5,253 253.037,250.537 250.224,250.362 247.5,249 246.552,248.526 241.914,246.673 241,248.5 236.992,256.515 259,275.792 259,259 259,259 261,263 261,263 261,263 261,264 261,264 261,266.364 258,267.053 258,269  Z"/>

<path  fill="#97D6F9" stroke-width="0" stroke="#97D6F9" d = " M301 231 L315,234 C316.235,234 320,233.357 320,235 316.483,235 301,234.14 301,231  Z"/>

<path  fill="#C8CBCC" stroke-width="0" stroke="#C8CBCC" d = " M343 231 C341.762,231 340,231.423 340,233 341.238,233 343,232.577 343,231  Z"/>

<path  fill="#97D6F9" stroke-width="0" stroke="#97D6F9" d = " M153 232 C151.952,232 150,231.527 150,233 151.048,233 153,233.473 153,232  Z"/>

<path  fill="#97D6F9" stroke-width="0" stroke="#97D6F9" d = " M120 238 L127,244 C127,244 124,238.5 124,238.5 125.4,235.7 135,238.08 135,235 135,235 127.5,236 127.5,236 127.5,236 117,233 117,233 117,234.947 120,235.636 120,238  Z"/>

<path  fill="#97D6F9" stroke-width="0" stroke="#97D6F9" d = " M150 233 C147.76,233 136,233.165 136,235 138.454,235 150,235.827 150,233  Z"/>

<path  fill="#A2B1D7" stroke-width="0" stroke="#A2B1D7" d = " M127 264 C127.647,264 138.428,275.464 141.5,277 150.868,281.684 161.371,277 171,277 171,277 164,271.5 164,271.5 162.661,268.822 176.064,262 178,262 178,260.923 181.762,259 183,259 183,257.175 191,251.359 191,243 191,243 191,239.5 191,239.5 191,239.5 176,233 176,233 176,233 165,239 165,239 165,239 164,240 164,240 164,240 154.5,249 154.5,249 148.738,254.762 145.089,257 137,257 137,257 132,261 132,261 132,261 127,264 127,264  Z"/>

<path  fill="#A2B1D7" stroke-width="0" stroke="#A2B1D7" d = " M329 264 L325.5,268 C321.888,271.612 318.669,274.915 314.5,277 305.11,281.695 294.702,277 285,277 285,275.23 291.938,272.625 293,270.5 293,270.5 289.5,267 289.5,267 286.595,265.547 281.326,262 278,262 278,260.923 274.238,259 273,259 273,256.224 265,250.144 265,243 265,243 265,239 265,239 270.435,239 275.093,233 280,233 284.764,233 288.592,240 293,240 293,240 295,241.5 295,241.5 299.752,251.003 309.948,257 320,257 320,258.429 323.939,261 325,261 325,261 329,264 329,264  Z"/>

<path  fill="#97D6F9" stroke-width="0" stroke="#97D6F9" d = " M336 238 L329,245 C329,242.906 333.771,240.043 333,238.5 331.645,235.789 321,238.17 321,235 321,235 329.5,236 329.5,236 329.5,236 340,233 340,233 340,235.25 336,235.259 336,238  Z"/>

<path  fill="#97D6F9" stroke-width="0" stroke="#97D6F9" d = " M165 239 L164,240 C164,240 165,239 165,239  Z"/>

<path  fill="#E64438" stroke-width="0" stroke="#E64438" d = " M205 239 L204,240 C204,240 205,239 205,239  Z"/>

<path  fill="#E64438" stroke-width="0" stroke="#E64438" d = " M265 243 C263.483,243 255,240.97 255,245 255,245 252,240 252,240 254.454,240 259.523,242.489 262.5,241 262.5,241 265,239 265,239 265,239 265,243 265,243  Z"/>

<path  fill="#FE5446" stroke-width="0" stroke="#FE5446" d = " M212 275 L215,275 C215,275 217,274 217,274 217,274 219,273 219,273 219,271.362 222.576,271 224,271 224,271 225,271 225,271 225,271 226,269 226,269 226,261.122 227,251.557 227,243 227,243 226,242 226,242 226,242 226,241 226,241 222.384,241 221,244.953 221,248 221,248 220,249 220,249 220,250.926 219.16,259 217,259 217,259 216,261 216,261 216,261 213,265 213,265 213,267.228 206.877,275 212,275  Z"/>

<path  fill="#E64438" stroke-width="0" stroke="#E64438" d = " M230 242 L231,242 C231,242 231,241 231,241 231,241 230,242 230,242  Z"/>

<path  fill="#F2473B" stroke-width="0" stroke="#F2473B" d = " M197 260 L195,264 C191.12,264 187.236,260 183,260 183,260 183,259 183,259 183,257.175 191,251.359 191,243 192.692,243 201,240.55 201,245 201,250.557 197,254.354 197,260  Z"/>

<path  fill="#E64438" stroke-width="0" stroke="#E64438" d = " M226 242 L227,243 C227,243 226,242 226,242  Z"/>

<path  fill="#E64438" stroke-width="0" stroke="#E64438" d = " M230 242 L229,243 C229,243 230,242 230,242  Z"/>

<path  fill="#FE5446" stroke-width="0" stroke="#FE5446" d = " M242 275 L244,275 C249.989,275 243,267.778 243,265 243,265 240,260 240,260 237.831,260 236,250.898 236,249 236,245.59 234.846,242 231,242 231,242 230,242 230,242 230,242 229,243 229,243 229,251.603 230,261.059 230,269 230,269 232,271 232,271 233.831,271 241,273.183 241,275 241,275 242,275 242,275  Z"/>

<path  fill="#F2473B" stroke-width="0" stroke="#F2473B" d = " M261 263 L262,264 C265.378,264 269.085,260 273,260 273,260 273,259 273,259 273,256.224 265,250.144 265,243 263.483,243 255,240.97 255,245 255,249.447 259,253.339 259,258 259,258 259,259 259,259 259,259 261,263 261,263  Z"/>

<path  fill="#A8A9AA" stroke-width="0" stroke="#A8A9AA" d = " M226 269 C226.666,269 230,271.56 230,269 230,261.059 229,251.603 229,243 229,243 227,243 227,243 227,251.557 226,261.122 226,269  Z"/>

<path  fill="#97D6F9" stroke-width="0" stroke="#97D6F9" d = " M127 245 C128.577,245 129,246.762 129,248 127.423,248 127,246.238 127,245  Z"/>

<path  fill="#97D6F9" stroke-width="0" stroke="#97D6F9" d = " M329 245 L328,247 C328,247 329,245 329,245  Z"/>

<path  fill="#97D6F9" stroke-width="0" stroke="#97D6F9" d = " M328 247 L327,249 C327,249 328,247 328,247  Z"/>

<path  fill="#FE5447" stroke-width="0" stroke="#FE5447" d = " M197 260 C197,276.882 218.363,254.227 216,249.5 213.13,243.759 200.743,252.013 199,255.5 198.535,256.43 198.183,260 197,260  Z"/>

<path  fill="#FD4C3E" stroke-width="0" stroke="#FD4C3E" d = " M221 248 L220,249 C220,249 221,248 221,248  Z"/>

<path  fill="#FE5447" stroke-width="0" stroke="#FE5447" d = " M259 258 C256.775,258 256.627,254.127 255.5,253 253.037,250.537 250.224,250.362 247.5,249 246.552,248.526 241.914,246.673 241,248.5 236.992,256.515 259,275.792 259,259 259,259 259,258 259,258  Z"/>

<path  fill="#97D6F9" stroke-width="0" stroke="#97D6F9" d = " M137 257 L132,261 C132,261 129,249 129,249 131.621,249 132.615,257 137,257  Z"/>

<path  fill="#FD4C3E" stroke-width="0" stroke="#FD4C3E" d = " M220 249 C218.261,249 217,257.126 217,259 219.16,259 220,250.926 220,249  Z"/>

<path  fill="#FD4C3E" stroke-width="0" stroke="#FD4C3E" d = " M236 249 C238.28,249 240,257.96 240,260 237.831,260 236,250.898 236,249  Z"/>

<path  fill="#97D6F9" stroke-width="0" stroke="#97D6F9" d = " M320 257 C320,258.429 323.939,261 325,261 325,256.501 327,253.646 327,249 324.628,249 324.086,257 320,257  Z"/>

<path  fill="#E64438" stroke-width="0" stroke="#E64438" d = " M178 262 L180,263 C180,263 183,260 183,260 183,260 183,259 183,259 181.762,259 178,260.923 178,262  Z"/>

<path  fill="#FD4C3E" stroke-width="0" stroke="#FD4C3E" d = " M217 259 L216,261 C216,261 217,259 217,259  Z"/>

<path  fill="#E64438" stroke-width="0" stroke="#E64438" d = " M278 262 L276,263 C276,260.07 273,261.916 273,260 273,260 273,259 273,259 274.238,259 278,260.923 278,262  Z"/>

<path  fill="#96A6D3" stroke-width="0" stroke="#96A6D3" d = " M195 278 L195,279 C195,279 185.5,279 185.5,279 184.138,278.319 180.656,275 180,275 180,271.541 180,266.393 180,263 180,263 183,260 183,260 187.236,260 191.12,264 195,264 195,265.247 197.467,269 199,269 199,271.902 195,275.443 195,278  Z"/>

<path  fill="#96A6D3" stroke-width="0" stroke="#96A6D3" d = " M261 279 L262,279 C262,279 271.5,279 271.5,279 271.5,279 277,275 277,275 277,275 275,269.5 275,269.5 275,269.5 276,263 276,263 276,260.07 273,261.916 273,260 269.085,260 265.378,264 262,264 262,264 261,264 261,264 261,266.364 258,267.053 258,269 258,269 261,279 261,279  Z"/>

<path  fill="#A2B1D8" stroke-width="0" stroke="#A2B1D8" d = " M171 277 L175,277 C175,275.986 178.959,275 180,275 180,271.541 180,266.393 180,263 180,263 178,262 178,262 176.064,262 162.661,268.822 164,271.5 164,271.5 171,277 171,277  Z"/>

<path  fill="#A2B1D8" stroke-width="0" stroke="#A2B1D8" d = " M281 277 L285,277 C285,275.23 291.938,272.625 293,270.5 293,270.5 289.5,267 289.5,267 286.595,265.547 281.326,262 278,262 278,262 276,263 276,263 276,263 275,269.5 275,269.5 275,269.5 277,275 277,275 277,275 281,277 281,277  Z"/>

<path  fill="#CAC8C7" stroke-width="0" stroke="#CAC8C7" d = " M117 274 L117,277 C117,277 112.5,278 112.5,278 106.889,275.195 95,270.563 95,263 101.854,263 108.565,272 116,272 116,272 117,274 117,274  Z"/>

<path  fill="#CBCCCB" stroke-width="0" stroke="#CBCCCB" d = " M261 264 L262,264 C262,264 261,263 261,263 261,263 261,264 261,264  Z"/>

<path  fill="#CAC8C7" stroke-width="0" stroke="#CAC8C7" d = " M339 274 L340,277 C340,277 344.5,278 344.5,278 348.513,275.993 362,269.65 362,264 355.285,264 347.691,272 340,272 340,272 339,274 339,274  Z"/>

<path  fill="#7FCCF7" stroke-width="0" stroke="#7FCCF7" d = " M122 282 C122,285.158 128.021,289.761 130.5,291 143.622,297.561 153.715,303.393 168.5,296 172.135,294.182 183,294.044 183,288 183,282.99 182.529,277 175,277 175,277 171,277 171,277 161.371,277 150.868,281.684 141.5,277 138.428,275.464 127.647,264 127,264 127,264 126,264 126,264 123.927,264 119,270.148 119,272 119,272 119,273 119,273 119,273 121,280 121,280 121,280 121,281 121,281 121,281 122,282 122,282  Z"/>

<path  fill="#7FCCF7" stroke-width="0" stroke="#7FCCF7" d = " M335 281 C335,285.525 328.878,289.311 325.5,291 311.696,297.902 304.359,303.929 288.5,296 284.437,293.968 273,294.255 273,287 273,282.349 275.755,277 281,277 281,277 285,277 285,277 294.702,277 305.11,281.695 314.5,277 318.669,274.915 321.888,271.612 325.5,268 325.5,268 329,264 329,264 329,264 331,264 331,264 331,266.519 337,267.78 337,271 337,271 338,274 338,274 336.986,274 336,277.959 336,279 336,279 335,281 335,281  Z"/>

<path  fill="#E64438" stroke-width="0" stroke="#E64438" d = " M205 278 L207,278 C207,278 208,277 208,277 208,277 212,275 212,275 206.877,275 213,267.228 213,265 210.151,265 207.541,270 204,270 204,272.097 205,275.293 205,278  Z"/>

<path  fill="#E64438" stroke-width="0" stroke="#E64438" d = " M248 277 L251,278 C251,275.293 252,272.097 252,270 248.719,270 245.866,265 243,265 243,267.778 249.989,275 244,275 244,275 248,277 248,277  Z"/>

<path  fill="#FE5546" stroke-width="0" stroke="#FE5546" d = " M196 279 L205,279 C205,279 205,278 205,278 205,275.293 204,272.097 204,270 204,267.198 199.893,269 199,269 199,271.902 195,275.443 195,278 195,278 196,279 196,279  Z"/>

<path  fill="#FE5546" stroke-width="0" stroke="#FE5546" d = " M251 278 C251,279.763 259.343,279 261,279 261,279 258,269 258,269 254.671,269 253.03,270 252,270 252,272.097 251,275.293 251,278  Z"/>

<path  fill="#CAC7CB" stroke-width="0" stroke="#CAC7CB" d = " M224 271 C222.576,271 219,271.362 219,273 220.424,273 224,272.638 224,271  Z"/>

<path  fill="#CBCACC" stroke-width="0" stroke="#CBCACC" d = " M242 275 C242,278.06 249.862,279.224 251,281.5 253.074,285.649 249,285.498 249,288 237.523,288 227.874,288 217,288 213.511,288 206.813,289.126 205,285.5 202.13,279.76 215,278.155 215,275 215,275 217,274 217,274 217,274 219,273 219,273 220.424,273 224,272.638 224,271 224,271 225,271 225,271 225,271 226,271 226,271 226,271 227,272 227,272 227,272 229,272 229,272 229,272 230,271 230,271 230,271 232,271 232,271 232,271.855 239.665,275 241,275 241,275 242,275 242,275  Z"/>

<path  fill="#CAC7CB" stroke-width="0" stroke="#CAC7CB" d = " M226 271 L227,272 C227,272 226,271 226,271  Z"/>

<path  fill="#CAC7CB" stroke-width="0" stroke="#CAC7CB" d = " M230 271 L229,272 C229,272 230,271 230,271  Z"/>

<path  fill="#CAC7CB" stroke-width="0" stroke="#CAC7CB" d = " M232 271 C233.831,271 241,273.183 241,275 239.665,275 232,271.855 232,271  Z"/>

<path  fill="#99D2BD" stroke-width="0" stroke="#99D2BD" d = " M338 274 L339,274 C339,274 340,272 340,272 340,272 337,271 337,271 337,271 338,274 338,274  Z"/>

<path  fill="#99D2BD" stroke-width="0" stroke="#99D2BD" d = " M119 273 L117,274 C117,274 116,272 116,272 116,272 119,272 119,272 119,272 119,273 119,273  Z"/>

<path  fill="#97D6F9" stroke-width="0" stroke="#97D6F9" d = " M117 277 L121,280 C121,280 119,273 119,273 119,273 117,274 117,274 117,274 117,277 117,277  Z"/>

<path  fill="#CAC7CB" stroke-width="0" stroke="#CAC7CB" d = " M219 273 L217,274 C217,274 219,273 219,273  Z"/>

<path  fill="#CAC7CB" stroke-width="0" stroke="#CAC7CB" d = " M217 274 L215,275 C215,275 217,274 217,274  Z"/>

<path  fill="#97D6F9" stroke-width="0" stroke="#97D6F9" d = " M340 277 L336,279 C336,277.959 336.986,274 338,274 338,274 339,274 339,274 339,274 340,277 340,277  Z"/>

<path  fill="#8599CC" stroke-width="0" stroke="#8599CC" d = " M195 279 C195,280.729 184.795,288 183,288 183,282.99 182.529,277 175,277 175,275.986 178.959,275 180,275 180.656,275 184.138,278.319 185.5,279 185.5,279 195,279 195,279  Z"/>

<path  fill="#CAC7CB" stroke-width="0" stroke="#CAC7CB" d = " M205 279 C205,280.676 200.593,285.685 201,286.5 L206.5,288 C210.801,290.151 230.055,290.722 231.5,290 L244.5,289 C245.69,289 249,289.614 249,288 237.523,288 227.874,288 217,288 213.511,288 206.813,289.126 205,285.5 202.13,279.76 215,278.155 215,275 215,275 212,275 212,275 212,275 208,277 208,277 208,277 207,278 207,278 207,278 205,279 205,279  Z"/>

<path  fill="#CAC7CB" stroke-width="0" stroke="#CAC7CB" d = " M248 277 C248,277.944 260.641,288 252,288 L249,288 C249,285.498 253.074,285.649 251,281.5 249.862,279.224 242,278.06 242,275 242,275 244,275 244,275 244,275 248,277 248,277  Z"/>

<path  fill="#8599CC" stroke-width="0" stroke="#8599CC" d = " M262 279 C262,281.591 270.929,287 273,287 273,282.349 275.755,277 281,277 281,277 277,275 277,275 277,275 271.5,279 271.5,279 271.5,279 262,279 262,279  Z"/>

<path  fill="#E64438" stroke-width="0" stroke="#E64438" d = " M195 279 L196,279 C196,279 195,278 195,278 195,278 195,279 195,279  Z"/>

<path  fill="#97D6F9" stroke-width="0" stroke="#97D6F9" d = " M336 279 L335,281 C335,281 336,279 336,279  Z"/>

<path  fill="#97D6F9" stroke-width="0" stroke="#97D6F9" d = " M121 281 L122,282 C122,282 121,281 121,281  Z"/>

</g>
</svg>
