<svg xmlns="http://www.w3.org/2000/svg" xmlns:xlink="http://www.w3.org/1999/xlink"  viewBox="0 0 456 320">
<g>
<rect width="456" height="320" fill="#000000"  stroke-width="0" /> 
<path  fill-rule="evenodd" fill="#FCFB90" stroke-width="0" stroke="#FCFB90" d = " M171 99 C171,108.211 173.105,99 171,99  M172 96 C172,101.567 174.112,96 172,96  M174 91 L173,93.5 C170.189,99.1226 178.522,91 174,91  M175 89 C175,92.7458 177.091,89 175,89  M219 57 C219,61.692 208.03,58.7352 205.5,60 194.729,65.3855 186.332,67.8362 180,80.5 179.091,82.3176 174.808,86.1166 176,88.5 L181,83.5 L191.5,72 C199.631,63.8689 210.591,64 221,64 L229.5,62 C234.988,64.7442 240.355,60.9273 244.5,63 247.241,64.3707 250.897,63.6983 253.5,65 L264.5,71 L276.5,85 L281,89.5 C282.263,86.9733 273.245,76.9909 272,74.5 269.488,69.4756 262.189,63.8446 256.5,61 254.766,60.1328 252.339,60.9197 250.5,60 L241.5,60 C234.627,56.5636 227.156,57 219,57  M192 131 C187.203,131 185.293,122.896 181.5,121 177.649,119.074 174.306,120.112 172,115.5 171.315,114.131 172.431,104 170.5,104 168.791,104 169.621,113.257 169,114.5 165.816,120.868 161.891,134 152,134 152,120.095 155.343,90.8132 161,79.5 165.299,70.9016 173,63.323 173,53 173,53 181.5,43 181.5,43 192.468,37.516 202.618,35 216,35 226.814,35 253.424,32.9621 261.5,37 261.5,37 277.5,45 277.5,45 280.627,46.5636 280.011,53 284,53 284,64.6977 292.144,73.788 297,83.5 301.94,93.3801 304,121.538 304,134 301.322,134 300.677,132.089 298.5,131 286.218,124.859 289.951,111.402 285,101.5 284.261,100.022 284.045,91 281.5,91 280.42,91 283.611,97.7225 284,98.5 285.149,100.797 286.391,110.718 285,113.5 283.907,115.686 267.389,130 265,130 265,130 268,122.5 268,122.5 271.019,116.462 269.882,105.265 267,99.5 256.799,79.0977 199.305,79.8908 189,100.5 185.962,106.576 185.942,118.385 189,124.5 189,124.5 192,131 192,131  Z"/>

<path  fill="#FDFB8F" stroke-width="0" stroke="#FDFB8F" d = " M131 118 C135.132,118 135.806,107.888 137,105.5 141.241,97.017 141.774,86.9516 146,78.5 L148,67.5 L158.5,58 C160.537,58 154.505,63.9951 154,64.5 150.61,67.8904 149.92,71.6598 148,75.5 L147,85.5 C142.199,95.1026 129.287,134 152,134 152,120.095 155.343,90.8132 161,79.5 165.299,70.9016 173,63.323 173,53 173,53 167.5,47 167.5,47 157.263,41.8816 125,59.7641 125,69 125,69 129,81.5 129,81.5 129,81.5 129,108.5 129,108.5 130.593,111.686 131,114.086 131,118  Z"/>

<path  fill="#FDFB8F" stroke-width="0" stroke="#FDFB8F" d = " M325 117 C320.952,117 320.194,106.888 319,104.5 315.37,97.2397 314.639,88.7773 311,81.5 L309,68.5 C308.055,66.609 299.41,58.545 298.5,59 L301,62.5 C302.925,66.3498 306.104,69.7077 308,73.5 L310,86.5 C315.621,97.7414 326.226,134 304,134 304,121.538 301.94,93.3801 297,83.5 292.144,73.788 284,64.6977 284,53 284.835,53 287.772,47.8641 289.5,47 298.949,42.2757 331,59.1617 331,69 331,71.7372 329.211,76.0779 328,78.5 328,78.5 328,103.5 328,103.5 326.443,106.614 325,113.551 325,117  Z"/>

<path  fill="#CBC9CC" stroke-width="0" stroke="#CBC9CC" d = " M219 57 C219,61.692 208.03,58.7352 205.5,60 194.729,65.3855 186.332,67.8362 180,80.5 179.091,82.3176 174.808,86.1166 176,88.5 L181,83.5 L191.5,72 C199.631,63.8689 210.591,64 221,64 L229.5,62 C234.988,64.7442 240.355,60.9273 244.5,63 247.241,64.3707 250.897,63.6983 253.5,65 L264.5,71 L276.5,85 L281,89.5 C282.263,86.9733 273.245,76.9909 272,74.5 269.488,69.4756 262.189,63.8446 256.5,61 254.766,60.1328 252.339,60.9197 250.5,60 L241.5,60 C234.627,56.5636 227.156,57 219,57  Z"/>

<path  fill-rule="evenodd" fill="#CBC9CC" stroke-width="0" stroke="#CBC9CC" d = " M210 143 C210,144.307 207.694,155 211.5,155 L216.5,151 L223.5,149 C229.626,145.937 243.668,154.916 245.5,154 247.933,152.783 247.933,144.217 245.5,143 243.767,142.133 241.756,144.372 240.5,145 L223.5,146 L210,143  M259 163 C260.465,163 263,164.115 263,163 263,160.666 258.819,161.659 257.5,161 254.578,159.539 249.785,158.071 248,154.5 244.759,148.018 259.091,139.796 263.5,142 264.808,142.654 268.814,146 270,146 272.261,146 274.324,146 277,146 277,141.634 276.417,139.042 280.5,137 280.819,136.84 306.105,146.803 308.5,148 314.032,150.766 318.767,144.133 324.5,147 327.503,148.502 327,153.978 327,157 327,160.441 333,160.717 333,166 334.344,166 342.311,160 351,160 356.874,160 361.62,162.56 366.5,165 368.398,165.949 367.658,161 370,161 370,161 372,159.5 372,159.5 372,159.5 364.5,159 364.5,159 364.5,159 350.5,153 350.5,153 348.858,152.179 342,151.621 342,149 335.925,149 330.152,134.196 333,128.5 333,128.5 341,121.5 341,121.5 341,120.377 335.814,123 335,123 331.611,123 325,120.327 325,117 320.952,117 320.194,106.888 319,104.5 315.37,97.2397 314.639,88.7773 311,81.5 311,81.5 309,68.5 309,68.5 308.055,66.609 299.41,58.545 298.5,59 298.5,59 301,62.5 301,62.5 302.925,66.3498 306.104,69.7077 308,73.5 308,73.5 310,86.5 310,86.5 315.621,97.7414 326.226,134 304,134 301.322,134 300.677,132.089 298.5,131 286.218,124.859 289.951,111.402 285,101.5 284.261,100.022 284.045,91 281.5,91 280.42,91 283.611,97.7225 284,98.5 285.149,100.797 286.391,110.718 285,113.5 283.907,115.686 267.389,130 265,130 265,133.631 248.113,135.693 245.5,137 234.137,142.682 217.702,141.601 206.5,136 206.5,136 199.5,135 199.5,135 197.361,133.93 194.422,131 192,131 187.203,131 185.293,122.896 181.5,121 177.649,119.074 174.306,120.112 172,115.5 171.315,114.131 172.431,104 170.5,104 168.791,104 169.621,113.257 169,114.5 165.816,120.868 161.891,134 152,134 129.287,134 142.199,95.1026 147,85.5 147,85.5 148,75.5 148,75.5 149.92,71.6598 150.61,67.8904 154,64.5 154.505,63.9951 160.537,58 158.5,58 158.5,58 148,67.5 148,67.5 148,67.5 146,78.5 146,78.5 141.774,86.9516 141.241,97.017 137,105.5 135.806,107.888 135.132,118 131,118 131,120.68 121.894,124.197 119.5,123 119.159,122.829 115,119.797 115,121.5 115,121.5 123,127.5 123,127.5 126.044,133.587 121.796,149 114,149 114,150.793 94.557,157.472 91.5,159 91.5,159 84.5,159 84.5,159 84.5,159 82,157.5 82,157.5 80.8685,159.763 87,159.472 87,161 88.5854,161 88.5706,165.965 90.5,165 95.3411,162.579 99.123,160 105,160 105,160 116.5,161 116.5,161 116.5,161 123,166 123,166 123,160.452 130,158.845 130,157 126.17,157 131.487,147.007 133.5,146 138.105,143.697 143.235,150.633 148.5,148 153.177,145.662 177.243,133.985 180,139.5 180,139.5 179,146 179,146 182.615,146 186,142.248 186,147 186,147 189.5,143 189.5,143 195.58,139.96 212.548,145.404 208,154.5 206.872,156.756 199,159.745 199,161 199,161 205,161 205,161 205,161 212.5,157 212.5,157 222.179,152.161 233.821,152.161 243.5,157 243.5,157 251,161 251,161 252.899,161 259,160.512 259,163  Z"/>

<path  fill-rule="evenodd" fill="#FCFC90" stroke-width="0" stroke="#FCFC90" d = " M113 117 C113,122.677 117.136,117 113,117  M110 89 C110,92.7452 104,95.1885 104,98.5 104,98.7811 107.53,102.559 108,103.5 108.733,104.966 110.492,115 112.5,115 113.356,115 109.593,103.687 109,102.5 107.367,99.2347 112.984,89 110,89  M69 127 C93.388,127 82.1895,137.345 97.5,145 101.343,146.922 106.62,146.06 110.5,148 111.546,148.523 114,147.049 114,149 121.796,149 126.044,133.587 123,127.5 123,127.5 115,121.5 115,121.5 115,119.797 119.159,122.829 119.5,123 121.894,124.197 131,120.68 131,118 131,114.086 130.593,111.686 129,108.5 129,108.5 129,81.5 129,81.5 129,81.5 125,69 125,69 118.792,69 114.305,68.0974 108.5,71 102.641,73.9296 95.8904,80.7191 93,86.5 93,86.5 85.5,93 85.5,93 80.8026,95.3487 71.1345,109.231 68,115.5 65.7711,119.958 69,123.389 69,127  Z"/>

<path  fill-rule="evenodd" fill="#FCFC90" stroke-width="0" stroke="#FCFC90" d = " M341 119 C341,122.746 343.091,119 341,119  M342 117 C342,120.746 344.091,117 342,117  M346 107 C346,107.807 341.856,117 343.5,117 344.314,117 349.024,107 346,107  M345 89 L347,94.5 C348.86,98.2191 345.508,103.517 347,106.5 348.032,108.564 348.812,101.876 349,101.5 L352,98.5 C352.491,97.5184 346.263,89 345,89  M388 127 C382.729,127 376.873,126.814 372.5,129 367.065,131.717 367.127,140.686 362.5,143 357.844,145.328 350.019,145.24 346.5,147 L342,149 C335.925,149 330.152,134.196 333,128.5 333,128.5 341,121.5 341,121.5 341,120.377 335.814,123 335,123 331.611,123 325,120.327 325,117 325,113.551 326.443,106.614 328,103.5 328,103.5 328,78.5 328,78.5 329.211,76.0779 331,71.7372 331,69 335.152,69 339.657,67.0785 343.5,69 357.629,76.0646 382.217,103.933 389,117.5 390.411,120.322 388,124.579 388,127  Z"/>

<path  fill="#FFFC8E" stroke-width="0" stroke="#FFFC8E" d = " M265 130 C265,133.631 248.113,135.693 245.5,137 234.137,142.682 217.702,141.601 206.5,136 L199.5,135 C197.361,133.93 194.422,131 192,131 192,131 189,124.5 189,124.5 185.942,118.385 185.962,106.576 189,100.5 199.305,79.8908 256.799,79.0977 267,99.5 269.882,105.265 271.019,116.462 268,122.5 268,122.5 265,130 265,130  Z"/>

<path  fill="#CBC9CC" stroke-width="0" stroke="#CBC9CC" d = " M110 89 C110,92.7452 104,95.1885 104,98.5 104,98.7811 107.53,102.559 108,103.5 108.733,104.966 110.492,115 112.5,115 113.356,115 109.593,103.687 109,102.5 107.367,99.2347 112.984,89 110,89  Z"/>

<path  fill="#CBC9CC" stroke-width="0" stroke="#CBC9CC" d = " M175 89 C175,92.7458 177.091,89 175,89  Z"/>

<path  fill="#CBC9CC" stroke-width="0" stroke="#CBC9CC" d = " M345 89 L347,94.5 C348.86,98.2191 345.508,103.517 347,106.5 348.032,108.564 348.812,101.876 349,101.5 L352,98.5 C352.491,97.5184 346.263,89 345,89  Z"/>

<path  fill="#CBC9CC" stroke-width="0" stroke="#CBC9CC" d = " M174 91 L173,93.5 C170.189,99.1226 178.522,91 174,91  Z"/>

<path  fill="#CBC9CC" stroke-width="0" stroke="#CBC9CC" d = " M172 96 C172,101.567 174.112,96 172,96  Z"/>

<path  fill="#CBC9CC" stroke-width="0" stroke="#CBC9CC" d = " M171 99 C171,108.211 173.105,99 171,99  Z"/>

<path  fill="#CBC9CC" stroke-width="0" stroke="#CBC9CC" d = " M346 107 C346,107.807 341.856,117 343.5,117 344.314,117 349.024,107 346,107  Z"/>

<path  fill="#CBC9CC" stroke-width="0" stroke="#CBC9CC" d = " M113 117 C113,122.677 117.136,117 113,117  Z"/>

<path  fill="#CBC9CC" stroke-width="0" stroke="#CBC9CC" d = " M342 117 C342,120.746 344.091,117 342,117  Z"/>

<path  fill="#CBC9CC" stroke-width="0" stroke="#CBC9CC" d = " M341 119 C341,122.746 343.091,119 341,119  Z"/>

<path  fill="#FCFA91" stroke-width="0" stroke="#FCFA91" d = " M87 161 C85.0307,161 77,164.732 77,167 73.7263,167 70.0319,159.564 69,157.5 65.8722,151.244 61.134,143.232 65,135.5 66.364,132.772 69,130.231 69,127 93.388,127 82.1895,137.345 97.5,145 101.343,146.922 106.62,146.06 110.5,148 111.546,148.523 114,147.049 114,149 114,150.793 94.557,157.472 91.5,159 91.5,159 84.5,159 84.5,159 84.5,159 82,157.5 82,157.5 80.8685,159.763 87,159.472 87,161  Z"/>

<path  fill-rule="evenodd" fill="#FCFA91" stroke-width="0" stroke="#FCFA91" d = " M372 158 C372,160.091 375.746,158 372,158  M374 157 C374,158.93 375.93,157 374,157  M370 161 C373.723,161 376.793,167 380,167 381.737,167 386.179,160.142 387,158.5 388.598,155.304 395,146.5 393,142.5 391.021,138.542 388,131.535 388,127 382.729,127 376.873,126.814 372.5,129 367.065,131.717 367.127,140.686 362.5,143 357.844,145.328 350.019,145.24 346.5,147 346.5,147 342,149 342,149 342,151.621 348.858,152.179 350.5,153 350.5,153 364.5,159 364.5,159 364.5,159 372,159.5 372,159.5 372,159.5 370,161 370,161  Z"/>

<path  fill="#FFFDBC" stroke-width="0" stroke="#FFFDBC" d = " M135 180 L136,180 C136,180 137,179 137,179 137,179 144,177 144,177 144,177 145,176 145,176 145,176 146,176 146,176 146,176 155,170 155,170 155,170 156,170 156,170 156,170 157,169 157,169 157,169 160,168 160,168 160,168 161,167 161,167 161,160.623 163.796,154 171,154 171,154 172,153 172,153 172,153 173,153 173,153 173,153 174,152 174,152 174,152 175,152 175,152 175,152 176,151 176,151 176,151 179,146 179,146 179,146 180,139.5 180,139.5 177.243,133.985 153.177,145.662 148.5,148 143.235,150.633 138.105,143.697 133.5,146 131.487,147.007 126.17,157 130,157 135.333,157 139.872,171.755 138,175.5 137.011,177.478 135,177.523 135,180  Z"/>

<path  fill="#FFFDBC" stroke-width="0" stroke="#FFFDBC" d = " M320 179 L322,180 C322,180 318,174.5 318,174.5 316.195,170.89 321.233,157 327,157 327,153.978 327.503,148.502 324.5,147 318.767,144.133 314.032,150.766 308.5,148 306.105,146.803 280.819,136.84 280.5,137 276.417,139.042 277,141.634 277,146 277,146 283,153 283,153 283,153 284,153 284,153 291.313,153 296,160.371 296,167 296,167 296,168 296,168 296,168 299,169 299,169 299,169 301,170 301,170 302.715,170 311,174.456 311,176 311,176 312,176 312,176 312,176 313,177 313,177 313,177 320,179 320,179  Z"/>

<path  fill="#FFFCBC" stroke-width="0" stroke="#FFFCBC" d = " M192 164 L190,165 C187.121,165 184.37,159 181,159 181,154.142 186,151.046 186,147 186,147 189.5,143 189.5,143 195.58,139.96 212.548,145.404 208,154.5 206.872,156.756 199,159.745 199,161 197.576,161 194,161.362 194,163 194,163 193,163 193,163 193,163 192,164 192,164  Z"/>

<path  fill="#FFFCBC" stroke-width="0" stroke="#FFFCBC" d = " M264 163 L267,164 C267,164 275,159 275,159 275,153.651 270,150.299 270,146 268.814,146 264.808,142.654 263.5,142 259.091,139.796 244.759,148.018 248,154.5 249.785,158.071 254.578,159.539 257.5,161 258.819,161.659 263,160.666 263,163 263,163 264,163 264,163  Z"/>

<path  fill="#CBC8CA" stroke-width="0" stroke="#CBC8CA" d = " M210 143 C210,144.307 207.694,155 211.5,155 L216.5,151 L223.5,149 C229.626,145.937 243.668,154.916 245.5,154 247.933,152.783 247.933,144.217 245.5,143 243.767,142.133 241.756,144.372 240.5,145 L223.5,146 L210,143  Z"/>

<path  fill="#F0F080" stroke-width="0" stroke="#F0F080" d = " M179 159 L181,159 C181,154.142 186,151.046 186,147 186,142.248 182.615,146 179,146 179,146 176,151 176,151 181.864,151 179,155.711 179,159  Z"/>

<path  fill="#F0F080" stroke-width="0" stroke="#F0F080" d = " M275 159 L278,160 C278,159.713 275.123,148.812 279.5,151 279.5,151 283,153 283,153 283,153 277,146 277,146 274.324,146 272.261,146 270,146 270,150.299 275,153.651 275,159  Z"/>

<path  fill="#F0F080" stroke-width="0" stroke="#F0F080" d = " M176 151 L175,152 C175,152 176,151 176,151  Z"/>

<path  fill="#FEB1D8" stroke-width="0" stroke="#FEB1D8" d = " M179 159 C179,161.289 172.822,165 171,165 160.49,165 171,156.803 171,154 171,154 172,153 172,153 172,153 173,153 173,153 173,153 174,152 174,152 174,152 175,152 175,152 175,152 176,151 176,151 181.864,151 179,155.711 179,159  Z"/>

<path  fill="#FEB1D8" stroke-width="0" stroke="#FEB1D8" d = " M278 160 C278,161.391 283.706,165 285,165 297.315,165 284,154.822 284,153 284,153 283,153 283,153 283,153 279.5,151 279.5,151 275.123,148.812 278,159.713 278,160  Z"/>

<path  fill="#F0F080" stroke-width="0" stroke="#F0F080" d = " M174 152 L173,153 C173,153 174,152 174,152  Z"/>

<path  fill="#F0F080" stroke-width="0" stroke="#F0F080" d = " M172 153 L171,154 C171,154 172,153 172,153  Z"/>

<path  fill="#FEFA91" stroke-width="0" stroke="#FEFA91" d = " M205 161 C208.121,161 223.937,170.282 228.5,168 231.153,166.674 234.956,168.272 237.5,167 241.008,165.246 247.042,161 251,161 251,161 243.5,157 243.5,157 233.821,152.161 222.179,152.161 212.5,157 212.5,157 205,161 205,161  Z"/>

<path  fill="#F0F080" stroke-width="0" stroke="#F0F080" d = " M295 167 L296,167 C296,160.371 291.313,153 284,153 284,154.822 297.315,165 285,165 285,165 287,167 287,167 287,167 288,167 288,167 288,165.434 293,165.434 293,167 293,167 295,167 295,167  Z"/>

<path  fill="#F0F080" stroke-width="0" stroke="#F0F080" d = " M161 167 L163,167 C163,165.316 167.679,166 169,166 169,166 171,165 171,165 160.49,165 171,156.803 171,154 163.796,154 161,160.623 161,167  Z"/>

<path  fill="#FFFDBB" stroke-width="0" stroke="#FFFDBB" d = " M133 181 L134,181 C134,181 135,180 135,180 135,177.523 137.011,177.478 138,175.5 139.872,171.755 135.333,157 130,157 130,158.845 123,160.452 123,166 123,168.93 126,176.168 126,180 126,180 133,181 133,181  Z"/>

<path  fill="#FFFDBB" stroke-width="0" stroke="#FFFDBB" d = " M322 180 C324.095,180 327.905,180 330,180 330,175.541 333,170.192 333,166 333,160.717 327,160.441 327,157 321.233,157 316.195,170.89 318,174.5 318,174.5 322,180 322,180  Z"/>

<path  fill="#CBC9CC" stroke-width="0" stroke="#CBC9CC" d = " M374 157 C374,158.93 375.93,157 374,157  Z"/>

<path  fill="#CBC9CC" stroke-width="0" stroke="#CBC9CC" d = " M372 158 C372,160.091 375.746,158 372,158  Z"/>

<path  fill="#FEFDBC" stroke-width="0" stroke="#FEFDBC" d = " M179 173 L180,173 C180,173 181,172 181,172 181,172 182,171 182,171 182,171 183,171 183,171 183,171 185,170 185,170 185,170 187,169 187,169 187,169 190,165 190,165 187.121,165 184.37,159 181,159 181,159 179,159 179,159 179,161.289 172.822,165 171,165 171,165 169,166 169,166 169,166 169,167 169,167 169,167 170,167 170,167 170,167 171,168 171,168 171,168 173,170 173,170 173,170 176,173 176,173 176,173 179,173 179,173  Z"/>

<path  fill="#FEFDBC" stroke-width="0" stroke="#FEFDBC" d = " M277 173 L281,173 C281,173 282,172 282,172 282,172 283,171 283,171 283,171 284,169 284,169 284,169 285,168 285,168 285,168 286,167 286,167 286,167 287,167 287,167 287,167 285,165 285,165 283.706,165 278,161.391 278,160 278,160 275,159 275,159 275,159 267,164 267,164 267,166.25 269,167.376 269,169 269,169 270,169 270,169 270,169 271,170 271,170 271,170 272,170 272,170 272,170 273,171 273,171 273,171 274,171 274,171 274,171 275,172 275,172 275,172 277,173 277,173  Z"/>

<path  fill="#FFFB8E" stroke-width="0" stroke="#FFFB8E" d = " M103 171 C103,171.272 95,178.191 95,183 84.3675,183 77,180.283 77,167 77,164.732 85.0307,161 87,161 88.5854,161 88.5706,165.965 90.5,165 95.3411,162.579 99.123,160 105,160 105,160 103,171 103,171  Z"/>

<path  fill="#FFF990" stroke-width="0" stroke="#FFF990" d = " M126 180 C123.04,180 123.876,186 122,186 122,182.978 107.216,171 103,171 103,171 105,160 105,160 105,160 116.5,161 116.5,161 116.5,161 123,166 123,166 123,168.93 126,176.168 126,180  Z"/>

<path  fill="#FFF990" stroke-width="0" stroke="#FFF990" d = " M330 180 L334,185 C337.766,185 345.933,171 353,171 353,166.704 351,163.982 351,160 342.311,160 334.344,166 333,166 333,170.192 330,175.541 330,180  Z"/>

<path  fill="#FFFB8E" stroke-width="0" stroke="#FFFB8E" d = " M353 171 C356.856,171 361,179.732 361,183 371.478,183 380,180.547 380,167 376.793,167 373.723,161 370,161 367.658,161 368.398,165.949 366.5,165 361.62,162.56 356.874,160 351,160 351,163.982 353,166.704 353,171  Z"/>

<path  fill="#CBC9CC" stroke-width="0" stroke="#CBC9CC" d = " M198 162 L194,163 C194,161.362 197.576,161 199,161 199,161 198,162 198,162  Z"/>

<path  fill="#FDFC8F" stroke-width="0" stroke="#FDFC8F" d = " M239 177 L240,177 C240,177 242,176 242,176 242,176 244,175 244,175 244,175 245,175 245,175 245,175 247,174 247,174 247,174 248,174 248,174 248,174 249,173 249,173 252.434,173 257,170.673 257,167 257,167 255,164.5 255,164.5 255.749,163.002 259,165.205 259,163 259,160.512 252.899,161 251,161 247.042,161 241.008,165.246 237.5,167 234.956,168.272 231.153,166.674 228.5,168 223.937,170.282 208.121,161 205,161 205,161 199,161 199,161 199,161 198,162 198,162 198,163.23 204.165,167 199,167 199,169.848 202.462,172 205,172 205,172 206,173 206,173 206,173 208,173 208,173 208,173 211,175 211,175 211,175 212,175 212,175 212,175 214,176 214,176 214,176 215,176 215,176 215,176 217,177 217,177 217,177 218,177 218,177 224.578,177 232.371,177 239,177  Z"/>

<path  fill="#AAA9A7" stroke-width="0" stroke="#AAA9A7" d = " M199 167 C199,164.398 192.131,168 191,168 191,168 192,164 192,164 192,164 193,163 193,163 193,164.186 194,164.186 194,163 194,163 198,162 198,162 198,163.23 204.165,167 199,167  Z"/>

<path  fill="#CBC9CC" stroke-width="0" stroke="#CBC9CC" d = " M193 163 L194,163 C194,164.186 193,164.186 193,163  Z"/>

<path  fill="#AAA9A7" stroke-width="0" stroke="#AAA9A7" d = " M257 167 C257,163.98 265.99,169 267,169 267,169 264,163 264,163 264,163 263,163 263,163 263,164.115 260.465,163 259,163 259,165.205 255.749,163.002 255,164.5 255,164.5 257,167 257,167  Z"/>

<path  fill="#F0F080" stroke-width="0" stroke="#F0F080" d = " M267 169 L269,169 C269,167.376 267,166.25 267,164 267,164 264,163 264,163 264,163 267,169 267,169  Z"/>

<path  fill="#F0F080" stroke-width="0" stroke="#F0F080" d = " M191 168 L187,169 C187,169 190,165 190,165 190,165 192,164 192,164 192,164 191,168 191,168  Z"/>

<path  fill="#FF9BCD" stroke-width="0" stroke="#FF9BCD" d = " M163 167 L169,167 C169,167 169,166 169,166 167.679,166 163,165.316 163,167  Z"/>

<path  fill="#A9AAA8" stroke-width="0" stroke="#A9AAA8" d = " M234 196 L233,197 C230.741,197 229.655,201.578 226.5,200 218.519,196.009 217.119,183.31 208.5,179 200.948,175.224 192.13,176 183,176 183,174.519 181,175.215 181,173 181,173 182,172 182,172 182,172 183,171 183,171 183,171 185,170 185,170 185,170 187,169 187,169 187,169 191,168 191,168 192.131,168 199,164.398 199,167 199,169.848 202.462,172 205,172 205,172 206,173 206,173 206,173 208,173 208,173 208,174.577 209.762,175 211,175 211,175 212,175 212,175 212,175 214,176 214,176 214,176 215,176 215,176 215,176 217,177 217,177 217,177 218,177 218,177 218,180.61 239,180.166 239,177 239,177 240,177 240,177 240,177 242,176 242,176 242,176 244,175 244,175 244,175 245,175 245,175 245,175 247,174 247,174 247,174 248,174 248,174 248,174 249,173 249,173 252.434,173 257,170.673 257,167 257,163.98 265.99,169 267,169 267,169 269,169 269,169 269,169 270,170 270,170 270,170 271,170 271,170 271,170 272,170 272,170 272,170 273,171 273,171 273,171 274,171 274,171 274,171 275,172 275,172 275,174.424 273,174.76 273,176 273,176 258.5,176 258.5,176 257.31,176 254,175.386 254,177 252.535,177 250,176.891 250,179 250,179 249,179 249,179 249,179 248,180 248,180 248,180 247,181 247,181 244.527,181 241,184.527 241,187 239.423,187 239,188.762 239,190 237.189,190 235,193.438 235,195 235,195 234,196 234,196  Z"/>

<path  fill="#FF9BCD" stroke-width="0" stroke="#FF9BCD" d = " M288 167 L293,167 C293,165.434 288,165.434 288,167  Z"/>

<path  fill="#FF9BCD" stroke-width="0" stroke="#FF9BCD" d = " M161 167 L160,168 C160,168 161,167 161,167  Z"/>

<path  fill="#FDB3D6" stroke-width="0" stroke="#FDB3D6" d = " M154 178 C155.577,178 156,179.762 156,181 161.912,181 171.274,182.951 175,175.5 175,175.5 173,170 173,170 173,170 171,168 171,168 171,168 170,167 170,167 170,167 169,167 169,167 169,167 163,167 163,167 163,167 161,167 161,167 161,167 160,168 160,168 160,168 157,169 157,169 157,169 156,170 156,170 156,170 155,171 155,171 155,171 155,172 155,172 155,172 154,173 154,173 154,173 154,178 154,178  Z"/>

<path  fill="#FF9BCD" stroke-width="0" stroke="#FF9BCD" d = " M170 167 L171,168 C171,168 170,167 170,167  Z"/>

<path  fill="#FF9BCD" stroke-width="0" stroke="#FF9BCD" d = " M286 167 L285,168 C285,168 286,167 286,167  Z"/>

<path  fill="#FDB3D6" stroke-width="0" stroke="#FDB3D6" d = " M302 178 L300,181 C295.488,181 281,182.26 281,174 281,174 281,173 281,173 281,173 282,172 282,172 282,172 283,171 283,171 283,171 284,169 284,169 284,169 285,168 285,168 285,168 286,167 286,167 286,167 287,167 287,167 287,167 288,167 288,167 288,167 293,167 293,167 293,167 295,167 295,167 295,167 296,168 296,168 296,168 299,169 299,169 299,169 302,172 302,172 302,172 302,173 302,173 302,173 302,178 302,178  Z"/>

<path  fill="#FF9BCD" stroke-width="0" stroke="#FF9BCD" d = " M296 167 L296,168 C296,168 295,167 295,167 295,167 296,167 296,167  Z"/>

<path  fill="#FF9BCD" stroke-width="0" stroke="#FF9BCD" d = " M285 168 L284,169 C284,169 285,168 285,168  Z"/>

<path  fill="#F0F080" stroke-width="0" stroke="#F0F080" d = " M157 169 L156,170 C156,170 157,169 157,169  Z"/>

<path  fill="#F0F080" stroke-width="0" stroke="#F0F080" d = " M187 169 L185,170 C185,170 187,169 187,169  Z"/>

<path  fill="#AAA9A7" stroke-width="0" stroke="#AAA9A7" d = " M270 169 L270,170 C270,170 269,169 269,169 269,169 270,169 270,169  Z"/>

<path  fill="#F0F080" stroke-width="0" stroke="#F0F080" d = " M270 170 L271,170 C271,170 270,169 270,169 270,169 270,170 270,170  Z"/>

<path  fill="#FF9BCD" stroke-width="0" stroke="#FF9BCD" d = " M301 170 L302,172 C302,172 299,169 299,169 299,169 301,170 301,170  Z"/>

<path  fill="#F0F080" stroke-width="0" stroke="#F0F080" d = " M148 177 L150,177 C150,177 154,173 154,173 154,173 155,172 155,172 155,172 155,171 155,171 155,171 155,170 155,170 155,170 146,176 146,176 146,176 147,177 147,177 147,177 148,177 148,177  Z"/>

<path  fill="#FF9BCD" stroke-width="0" stroke="#FF9BCD" d = " M156 170 L155,171 C155,171 155,170 155,170 155,170 156,170 156,170  Z"/>

<path  fill="#FF9BCD" stroke-width="0" stroke="#FF9BCD" d = " M156 183 L167,183 C171.816,183 177.986,178 187,178 187,178 187,177 187,177 185.855,177 183,177.579 183,176 181.855,176 179,176.579 179,175 177.762,175 176,174.577 176,173 176,173 173,170 173,170 173,170 175,175.5 175,175.5 171.274,182.951 161.912,181 156,181 156,181 156,183 156,183  Z"/>

<path  fill="#F0F080" stroke-width="0" stroke="#F0F080" d = " M185 170 L183,171 C183,171 185,170 185,170  Z"/>

<path  fill="#F0F080" stroke-width="0" stroke="#F0F080" d = " M272 170 L273,171 C273,171 272,170 272,170  Z"/>

<path  fill="#F0F080" stroke-width="0" stroke="#F0F080" d = " M309 178 L310,178 C310,176.423 308.271,176 311,176 311,174.456 302.715,170 301,170 301,170 302,172 302,172 302,172 302,173 302,173 302,173 306,177 306,177 306,177 308,177 308,177 308,177 309,178 309,178  Z"/>

<path  fill="#FFFC8D" stroke-width="0" stroke="#FFFC8D" d = " M116 219 L117,219 C117,219 118,209 118,209 118,209 119,208 119,208 119,208 120,202 120,202 117.407,202 117.666,198.833 117,197.5 113.942,191.384 122,190.716 122,186 122,182.978 107.216,171 103,171 103,171.272 95,178.191 95,183 95,189.472 106.822,194.857 103,202.5 102.042,204.415 98.7878,202.288 98,201.5 94.168,197.668 89.1319,193.316 84.5,191 74.8339,186.167 62.0911,188.318 57,198.5 52.4785,207.543 54.2954,243.091 59,252.5 62.7622,260.024 75.3296,267.085 83.5,263 93.5591,257.97 94.6443,249.211 99,240.5 102.204,234.092 97.7794,219 110,219 110,219 116,219 116,219  Z"/>

<path  fill="#F0F080" stroke-width="0" stroke="#F0F080" d = " M181 172 L182,172 C182,172 182,171 182,171 182,171 181,172 181,172  Z"/>

<path  fill="#A9AAA7" stroke-width="0" stroke="#A9AAA7" d = " M183 171 L182,172 C182,172 182,171 182,171 182,171 183,171 183,171  Z"/>

<path  fill="#F0F080" stroke-width="0" stroke="#F0F080" d = " M274 171 L275,172 C275,172 274,171 274,171  Z"/>

<path  fill="#FF9BCD" stroke-width="0" stroke="#FF9BCD" d = " M283 171 L282,172 C282,172 283,171 283,171  Z"/>

<path  fill="#FFFC8D" stroke-width="0" stroke="#FFFC8D" d = " M340 219 L347,219 C357.899,219 354.1,232.7 357,238.5 361.557,247.614 361.993,257.747 372.5,263 379.526,266.513 384.952,261.774 390.5,259 402.349,253.076 404.943,209.386 399,197.5 392.301,184.103 368.794,186.911 363,198.5 363,198.5 360.5,199 360.5,199 359.981,199.26 354.777,206.054 353,202.5 349.6,195.699 361,188.92 361,183 361,179.732 356.856,171 353,171 345.933,171 337.766,185 334,185 334,192.49 343.525,189.451 339,198.5 338.421,199.658 339.341,202 337,202 337,207.882 340,213.321 340,219  Z"/>

<path  fill="#FF9BCD" stroke-width="0" stroke="#FF9BCD" d = " M155 172 L154,173 C154,173 155,172 155,172  Z"/>

<path  fill="#F0F080" stroke-width="0" stroke="#F0F080" d = " M180 173 L181,173 C181,173 181,172 181,172 181,172 180,173 180,173  Z"/>

<path  fill="#A9AAA7" stroke-width="0" stroke="#A9AAA7" d = " M182 172 L181,173 C181,173 181,172 181,172 181,172 182,172 182,172  Z"/>

<path  fill="#AAA9A7" stroke-width="0" stroke="#AAA9A7" d = " M205 172 L206,173 C206,173 205,172 205,172  Z"/>

<path  fill="#A9AAA7" stroke-width="0" stroke="#A9AAA7" d = " M277 176 L273,177 C273,177 273,176 273,176 273,174.76 275,174.424 275,172 275,172 277,173 277,173 277,173 278,175 278,175 278,175 277,176 277,176  Z"/>

<path  fill="#FF9BCD" stroke-width="0" stroke="#FF9BCD" d = " M282 172 L281,173 C281,173 282,172 282,172  Z"/>

<path  fill="#FF9BCD" stroke-width="0" stroke="#FF9BCD" d = " M150 177 C150,178.579 152.855,178 154,178 154,178 154,173 154,173 154,173 150,177 150,177  Z"/>

<path  fill="#F0F080" stroke-width="0" stroke="#F0F080" d = " M179 173 L179,175 C177.762,175 176,174.577 176,173 176,173 179,173 179,173  Z"/>

<path  fill="#A9AAA7" stroke-width="0" stroke="#A9AAA7" d = " M179 175 C179,176.579 181.855,176 183,176 183,174.519 181,175.215 181,173 181,173 180,173 180,173 180,173 179,173 179,173 179,173 179,175 179,175  Z"/>

<path  fill="#AAA9A7" stroke-width="0" stroke="#AAA9A7" d = " M208 173 L211,175 C209.762,175 208,174.577 208,173  Z"/>

<path  fill="#AAA9A7" stroke-width="0" stroke="#AAA9A7" d = " M249 173 L248,174 C248,174 249,173 249,173  Z"/>

<path  fill="#F0F080" stroke-width="0" stroke="#F0F080" d = " M281 174 L278,175 C278,175 277,173 277,173 277,173 281,173 281,173 281,173 281,174 281,174  Z"/>

<path  fill="#FF9BCD" stroke-width="0" stroke="#FF9BCD" d = " M306 177 C306,178.579 303.145,178 302,178 302,178 302,173 302,173 302,173 306,177 306,177  Z"/>

<path  fill="#AAA9A7" stroke-width="0" stroke="#AAA9A7" d = " M247 174 L245,175 C245,175 247,174 247,174  Z"/>

<path  fill="#FF9BCD" stroke-width="0" stroke="#FF9BCD" d = " M289 183 L301,183 C301,183 300,181 300,181 295.488,181 281,182.26 281,174 281,174 278,175 278,175 278,175 277,176 277,176 277,176 273,177 273,177 273,177 269,177 269,177 269,177 269,178 269,178 277.801,178 284.482,183 289,183  Z"/>

<path  fill="#AAA9A7" stroke-width="0" stroke="#AAA9A7" d = " M212 175 L214,176 C214,176 212,175 212,175  Z"/>

<path  fill="#AAA9A7" stroke-width="0" stroke="#AAA9A7" d = " M244 175 L242,176 C242,176 244,175 244,175  Z"/>

<path  fill="#F0F080" stroke-width="0" stroke="#F0F080" d = " M278 175 L277,176 C277,176 278,175 278,175  Z"/>

<path  fill="#F0F080" stroke-width="0" stroke="#F0F080" d = " M145 176 L144,177 C144,177 145,176 145,176  Z"/>

<path  fill="#A9AAA7" stroke-width="0" stroke="#A9AAA7" d = " M122 239 C123.333,239 123.667,239 125,239 125,239 125,235 125,235 125,235 125,225 125,225 120.068,225 118.267,208.966 120,205.5 125.618,194.263 130.776,178 147,178 147,178 147,177 147,177 147,177 146,176 146,176 146,176 145,176 145,176 145,176 144,177 144,177 144,177 137,179 137,179 137,179 136,180 136,180 136,180 135,180 135,180 135,180 134,181 134,181 134,181 133,181 133,181 133,181 128,185.5 128,185.5 125.473,190.554 120,196.034 120,202 120,202 119,208 119,208 119,208 118,209 118,209 118,209 117,219 117,219 118.405,219 123,226.597 123,228.5 123,231.528 117.646,227.792 117,226.5 117,226.5 116,220 116,220 116,220 115,222 115,222 115,228.505 122,232.93 122,239  Z"/>

<path  fill="#AAA9A7" stroke-width="0" stroke="#AAA9A7" d = " M218 193 C224.59,193 224.041,207.459 231,200.5 232.245,199.255 233,198.775 233,197 230.741,197 229.655,201.578 226.5,200 218.519,196.009 217.119,183.31 208.5,179 200.948,175.224 192.13,176 183,176 183,177.579 185.855,177 187,177 197.481,177 208.816,176.132 214,186.5 214,186.5 218,193 218,193  Z"/>

<path  fill="#AAA9A7" stroke-width="0" stroke="#AAA9A7" d = " M215 176 L217,177 C217,177 215,176 215,176  Z"/>

<path  fill="#AAA9A7" stroke-width="0" stroke="#AAA9A7" d = " M242 176 L240,177 C240,177 242,176 242,176  Z"/>

<path  fill="#AAA9A7" stroke-width="0" stroke="#AAA9A7" d = " M269 177 L273,177 C273,177 273,176 273,176 273,176 258.5,176 258.5,176 257.31,176 254,175.386 254,177 254,177 269,177 269,177  Z"/>

<path  fill="#A9AAA7" stroke-width="0" stroke="#A9AAA7" d = " M331 238 C331.264,238 334,241.999 334,239 334,235.09 339,231.607 339,227 337.93,227 336.538,231.019 334.5,230 332.352,228.926 337.689,219 340,219 340,213.321 337,207.882 337,202 337,197.037 330.613,188.113 327,184.5 327,184.5 320,179 320,179 320,179 313,177 313,177 313,177 312,176 312,176 312,176 311,176 311,176 308.271,176 310,176.423 310,178 327.853,178 331.165,195.829 337,207.5 338.921,211.341 335.881,225 331,225 331,225 331,234 331,234 331,234 331,238 331,238  Z"/>

<path  fill="#F0F080" stroke-width="0" stroke="#F0F080" d = " M312 176 L313,177 C313,177 312,176 312,176  Z"/>

<path  fill="#FF9BCD" stroke-width="0" stroke="#FF9BCD" d = " M148 177 L147,178 C147,178 147,177 147,177 147,177 148,177 148,177  Z"/>

<path  fill="#FEA5D1" stroke-width="0" stroke="#FEA5D1" d = " M135 204 C131.297,204 125,221.986 125,225 120.068,225 118.267,208.966 120,205.5 125.618,194.263 130.776,178 147,178 147,178 148,177 148,177 148,177 150,177 150,177 150,178.579 152.855,178 154,178 155.577,178 156,179.762 156,181 156,181 156,183 156,183 151.751,183 150,184.336 150,189 145.661,189 139,194.341 139,199 139,199 135,204 135,204  Z"/>

<path  fill="#FFB0D7" stroke-width="0" stroke="#FFB0D7" d = " M199 213 L203,213 C203,213 207,211 207,211 207,211 207,210 207,210 207,210 208,209 208,209 208,209 209,207 209,207 209,207 218,193 218,193 218,193 214,186.5 214,186.5 208.816,176.132 197.481,177 187,177 187,177 187,178 187,178 187,183.82 187.432,191.637 185,196.5 183.388,199.723 181,204.229 181,208 181,208 181,209 181,209 181,209 194,211 194,211 194.671,211 199,212.328 199,213  Z"/>

<path  fill="#AAA9A7" stroke-width="0" stroke="#AAA9A7" d = " M218 177 C224.578,177 232.371,177 239,177 239,180.166 218,180.61 218,177  Z"/>

<path  fill="#AAA9A7" stroke-width="0" stroke="#AAA9A7" d = " M254 177 C252.535,177 250,176.891 250,179 250,179 254,177 254,177  Z"/>

<path  fill="#FFB0D7" stroke-width="0" stroke="#FFB0D7" d = " M254 213 L258,213 C258,211.421 260.855,212 262,212 262,212 263,211 263,211 263,211 275,209 275,209 275,209 276,208 276,208 276,208 273,202.5 273,202.5 269.791,196.082 269,185.618 269,178 269,178 269,177 269,177 269,177 254,177 254,177 254,177 250,179 250,179 250,179 249,179 249,179 249,179 248,180 248,180 248,180 247,181 247,181 247,181 241,187 241,187 241,188.238 240.577,190 239,190 239,190 239,192 239,192 239,192 247,207 247,207 249.465,207 250.564,213 254,213  Z"/>

<path  fill="#FEA5D1" stroke-width="0" stroke="#FEA5D1" d = " M321 204 C327.011,204 331,220.324 331,225 335.881,225 338.921,211.341 337,207.5 331.165,195.829 327.853,178 310,178 310,178 309,178 309,178 309,178 308,177 308,177 308,177 306,177 306,177 306,178.579 303.145,178 302,178 302,178 300,181 300,181 300,181 301,183 301,183 304.109,183 307,185.553 307,189 311.498,189 321,199.35 321,204  Z"/>

<path  fill="#FF9BCD" stroke-width="0" stroke="#FF9BCD" d = " M308 177 L309,178 C309,178 308,177 308,177  Z"/>

<path  fill="#FEB1D9" stroke-width="0" stroke="#FEB1D9" d = " M180 209 L164,211 C164,211 160,209 160,209 160,206.077 156.067,202 153,202 153,202 152,197 152,197 152,197 152,193 152,193 152,189.306 157,188.892 157,187 158.357,187 163,186.353 163,185 164.465,185 167,185.109 167,183 171.816,183 177.986,178 187,178 187,183.82 187.432,191.637 185,196.5 183.388,199.723 181,204.229 181,208 181,208 180,209 180,209  Z"/>

<path  fill="#FEB1D9" stroke-width="0" stroke="#FEB1D9" d = " M297 209 L293,211 C293,211 276,209 276,209 276,209 276,208 276,208 276,208 273,202.5 273,202.5 269.791,196.082 269,185.618 269,178 277.801,178 284.482,183 289,183 289,185.109 291.535,185 293,185 293,187.667 305,187.332 305,193 305,193 304,196 304,196 304,196 303,202 303,202 303,202 296,206.5 296,206.5 296,206.5 297,209 297,209  Z"/>

<path  fill="#CBC9CC" stroke-width="0" stroke="#CBC9CC" d = " M137 179 L136,180 C136,180 137,179 137,179  Z"/>

<path  fill="#AAA9A7" stroke-width="0" stroke="#AAA9A7" d = " M249 179 L248,180 C248,180 249,179 249,179  Z"/>

<path  fill="#CBC9CC" stroke-width="0" stroke="#CBC9CC" d = " M334 185 C334,192.49 343.525,189.451 339,198.5 338.421,199.658 339.341,202 337,202 337,197.037 330.613,188.113 327,184.5 327,184.5 320,179 320,179 320,179 322,180 322,180 324.095,180 327.905,180 330,180 330,180 334,185 334,185  Z"/>

<path  fill="#CBC9CC" stroke-width="0" stroke="#CBC9CC" d = " M122 186 C122,190.716 113.942,191.384 117,197.5 117.666,198.833 117.407,202 120,202 120,196.034 125.473,190.554 128,185.5 128,185.5 133,181 133,181 133,181 126,180 126,180 123.04,180 123.876,186 122,186  Z"/>

<path  fill="#CBC9CC" stroke-width="0" stroke="#CBC9CC" d = " M135 180 L134,181 C134,181 135,180 135,180  Z"/>

<path  fill="#AAA9A7" stroke-width="0" stroke="#AAA9A7" d = " M248 180 L247,181 C247,181 248,180 248,180  Z"/>

<path  fill="#AAA9A7" stroke-width="0" stroke="#AAA9A7" d = " M247 181 C244.527,181 241,184.527 241,187 241,187 247,181 247,181  Z"/>

<path  fill="#CCCBC8" stroke-width="0" stroke="#CCCBC8" d = " M157 187 C154.167,187 152.16,189 150,189 150,184.336 151.751,183 156,183 156,183 167,183 167,183 167,185.109 164.465,185 163,185 161.377,185 157,185.005 157,187  Z"/>

<path  fill="#CCCBC8" stroke-width="0" stroke="#CCCBC8" d = " M293 185 C298.313,185 302.231,189 307,189 307,185.553 304.109,183 301,183 301,183 289,183 289,183 289,185.109 291.535,185 293,185  Z"/>

<path  fill="#FF9BCD" stroke-width="0" stroke="#FF9BCD" d = " M163 185 C161.377,185 157,185.005 157,187 158.357,187 163,186.353 163,185  Z"/>

<path  fill="#FF9BCD" stroke-width="0" stroke="#FF9BCD" d = " M321 204 L325,218 C323.059,218 321.844,208.187 321,206.5 317.467,199.434 314.086,193 305,193 305,187.332 293,187.667 293,185 298.313,185 302.231,189 307,189 311.498,189 321,199.35 321,204  Z"/>

<path  fill="#FF9BCD" stroke-width="0" stroke="#FF9BCD" d = " M152 193 C145.351,193 139.793,199 139,199 139,194.341 145.661,189 150,189 152.16,189 154.167,187 157,187 157,188.892 152,189.306 152,193  Z"/>

<path  fill="#AAA9A7" stroke-width="0" stroke="#AAA9A7" d = " M241 187 C239.423,187 239,188.762 239,190 240.577,190 241,188.238 241,187  Z"/>

<path  fill="#AAA9A7" stroke-width="0" stroke="#AAA9A7" d = " M239 192 L235,195 C235,193.438 237.189,190 239,190 239,190 239,192 239,192  Z"/>

<path  fill="#FFB3D7" stroke-width="0" stroke="#FFB3D7" d = " M219 209 C219,206.665 232.008,208 233.5,208 234.69,208 238,207.386 238,209 238,209 246,208 246,208 246,208 247,207 247,207 247,207 239,192 239,192 239,192 235,195 235,195 235,195 234,196 234,196 234,196 233,197 233,197 233,198.775 232.245,199.255 231,200.5 224.041,207.459 224.59,193 218,193 218,193 209,207 209,207 209,207 210,208 210,208 210,208 219,209 219,209  Z"/>

<path  fill="#C9C9C8" stroke-width="0" stroke="#C9C9C8" d = " M135 272 L136,272 C136,270.357 139.765,271 141,271 141,271 135,263.5 135,263.5 132.866,259.231 131,253.008 131,248 131,237.644 137.759,210.37 146.5,206 148.959,204.771 150.631,197 152,197 152,197 152,193 152,193 145.351,193 139.793,199 139,199 139,199 135,207 135,207 135,208.623 134.995,213 133,213 133,213 133,214 133,214 133,215.048 133.473,217 132,217 132,217 131,219 131,219 131,219 131,220 131,220 131,220 130,222 130,222 130,224.363 127.542,235 125,235 125,235 125,239 125,239 125,245.848 125,251.776 125,258 125,258 125,259 125,259 125,259 134,272 134,272 134,272 135,272 135,272  Z"/>

<path  fill="#C9C9C8" stroke-width="0" stroke="#C9C9C8" d = " M321 272 L322,272 C322,272 323,271 323,271 323,271 324,270 324,270 324,270 325,269 325,269 325,269 326,268 326,268 326,268 327,267 327,267 327,267 328,265 328,265 328,265 329,264 329,264 329,264 329,263 329,263 329,261.762 329.423,260 331,260 331,260 331,259 331,259 331,259 332,257 332,257 332,250.372 331,244.182 331,238 331,238 331,234 331,234 328.726,234 325,221.15 325,219 325,219 325,218 325,218 323.059,218 321.844,208.187 321,206.5 317.467,199.434 314.086,193 305,193 305,193 304,196 304,196 304,196 308,203.5 308,203.5 317.728,213.228 318.477,223.453 324,234.5 324.849,236.199 325.574,246 325,246 325,253.202 323.944,258.613 321,264.5 321,264.5 316,271 316,271 316,271 321,272 321,272  Z"/>

<path  fill="#AAA9A7" stroke-width="0" stroke="#AAA9A7" d = " M235 195 L234,196 C234,196 235,195 235,195  Z"/>

<path  fill="#AAA9A7" stroke-width="0" stroke="#AAA9A7" d = " M234 196 L233,197 C233,197 234,196 234,196  Z"/>

<path  fill="#FF9BCD" stroke-width="0" stroke="#FF9BCD" d = " M313 229 C313,224.205 301.028,214.445 303,210.5 304.624,207.252 312.142,213.785 313,215.5 317.572,224.644 325,235.183 325,246 325.574,246 324.849,236.199 324,234.5 318.477,223.453 317.728,213.228 308,203.5 308,203.5 304,196 304,196 304,196 303,202 303,202 306.146,202 309.208,207.146 305.5,209 305.5,209 297,209 297,209 297,209 293,211 293,211 293,211 294,215 294,215 302.159,215 312.11,229 313,229  Z"/>

<path  fill="#FF9BCD" stroke-width="0" stroke="#FF9BCD" d = " M149 221 C149,218.173 151.831,216.837 153,214.5 155.366,209.769 150.132,209.684 147.5,211 144.831,212.335 140.573,219.353 139,222.5 136.608,227.285 135.399,232.702 133,237.5 132.248,239.003 132.799,248 131,248 131,237.644 137.759,210.37 146.5,206 148.959,204.771 150.631,197 152,197 152,197 153,202 153,202 151.379,202 146.902,206.701 149.5,208 152.468,209.484 156.433,209 160,209 160,209 164,211 164,211 164,212.674 163,213.326 163,215 157.234,215 153.04,221 149,221  Z"/>

<path  fill="#FF9BCD" stroke-width="0" stroke="#FF9BCD" d = " M135 204 L135,207 C135,207 139,199 139,199 139,199 135,204 135,204  Z"/>

<path  fill="#FFB0D9" stroke-width="0" stroke="#FFB0D9" d = " M153 202 C156.067,202 160,206.077 160,209 156.433,209 152.468,209.484 149.5,208 146.902,206.701 151.379,202 153,202  Z"/>

<path  fill="#FFB0D9" stroke-width="0" stroke="#FFB0D9" d = " M303 202 C306.146,202 309.208,207.146 305.5,209 L297,209 C297,209 296,206.5 296,206.5 296,206.5 303,202 303,202  Z"/>

<path  fill="#FEA4D2" stroke-width="0" stroke="#FEA4D2" d = " M130 222 C128.777,222 128.591,225 125,225 125,221.986 131.297,204 135,204 135,204 135,207 135,207 133.005,207 133,211.377 133,213 133,213 133,214 133,214 131.527,214 132,215.952 132,217 132,217 131,219 131,219 131,219 131,220 131,220 131,220 130,222 130,222  Z"/>

<path  fill="#FEA4D2" stroke-width="0" stroke="#FEA4D2" d = " M325 219 C327.072,219 326.228,225 331,225 331,220.324 327.011,204 321,204 321,204 325,218 325,218 325,218 325,219 325,219  Z"/>

<path  fill="#FF9BCD" stroke-width="0" stroke="#FF9BCD" d = " M135 207 C133.005,207 133,211.377 133,213 134.995,213 135,208.623 135,207  Z"/>

<path  fill="#FF9BCD" stroke-width="0" stroke="#FF9BCD" d = " M210 208 L208,209 C208,209 209,207 209,207 209,207 210,208 210,208  Z"/>

<path  fill="#FF9BCD" stroke-width="0" stroke="#FF9BCD" d = " M228 232 C228,233.186 229,233.186 229,232 229,232 229.5,209 229.5,209 233.453,207.023 231,219.769 231,222 231,222 235,221 235,221 235,221 233,218.5 233,218.5 232.022,216.544 234,214.423 234,213 234,213 233.5,209 233.5,209 233.5,209 238,209 238,209 238,207.386 234.69,208 233.5,208 232.008,208 219,206.665 219,209 226.115,209 222,216.095 222,221 222,221 225,221 225,221 225,218.958 223.383,207.441 226.5,209 226.5,209 227,214.5 227,214.5 227,220.251 228,226.918 228,232  Z"/>

<path  fill="#FF9BCD" stroke-width="0" stroke="#FF9BCD" d = " M254 213 C254,214.473 252.048,214 251,214 251,214 246,208 246,208 246,208 247,207 247,207 249.465,207 250.564,213 254,213  Z"/>

<path  fill="#F0F080" stroke-width="0" stroke="#F0F080" d = " M119 208 L118,209 C118,209 119,208 119,208  Z"/>

<path  fill="#FF9BCD" stroke-width="0" stroke="#FF9BCD" d = " M180 209 L181,209 C181,209 181,208 181,208 181,208 180,209 180,209  Z"/>

<path  fill="#FCB3D8" stroke-width="0" stroke="#FCB3D8" d = " M222 221 C217.393,221 211.948,222 208,222 208,222 206,220 206,220 206,220 206,215 206,215 206,215 207,211 207,211 207,211 207,210 207,210 207,210 208,209 208,209 208,209 210,208 210,208 210,208 219,209 219,209 226.115,209 222,216.095 222,221  Z"/>

<path  fill="#FCB3D8" stroke-width="0" stroke="#FCB3D8" d = " M250 221 L249,222 C245.052,222 239.607,221 235,221 235,221 233,218.5 233,218.5 232.022,216.544 234,214.423 234,213 234,213 233.5,209 233.5,209 233.5,209 238,209 238,209 238,209 246,208 246,208 246,208 251,214 251,214 251,216.402 250,218.31 250,221  Z"/>

<path  fill="#FF9BCD" stroke-width="0" stroke="#FF9BCD" d = " M275 209 L276,209 C276,209 276,208 276,208 276,208 275,209 275,209  Z"/>

<path  fill="#FDA5D1" stroke-width="0" stroke="#FDA5D1" d = " M169 219 L171,221 C177.276,221 182.928,215 190,215 190,215 193,214 193,214 193,214 194,213 194,213 194,213 194,211 194,211 194,211 181,209 181,209 181,209 180,209 180,209 180,209 164,211 164,211 164,212.674 163,213.326 163,215 165.58,215 166.211,219 169,219  Z"/>

<path  fill="#FF9BCD" stroke-width="0" stroke="#FF9BCD" d = " M208 209 L207,210 C207,210 208,209 208,209  Z"/>

<path  fill="#CBCBCC" stroke-width="0" stroke="#CBCBCC" d = " M225 221 C225,222.748 225.689,232 228,232 228,226.918 227,220.251 227,214.5 227,214.5 226.5,209 226.5,209 223.383,207.441 225,218.958 225,221  Z"/>

<path  fill="#CBCBCC" stroke-width="0" stroke="#CBCBCC" d = " M231 222 C231,223.928 230.888,232 229,232 229,232 229.5,209 229.5,209 233.453,207.023 231,219.769 231,222  Z"/>

<path  fill="#FDA5D1" stroke-width="0" stroke="#FDA5D1" d = " M286 220 L285,221 C278.623,221 273.24,215 266,215 266,215 265,214 265,214 265,214 262,213 262,213 262,213 262,212 262,212 262,212 263,211 263,211 263,211 275,209 275,209 275,209 276,209 276,209 276,209 293,211 293,211 293,211 294,215 294,215 290.77,215 288.74,220 286,220  Z"/>

<path  fill="#C8CACA" stroke-width="0" stroke="#C8CACA" d = " M141 271 L151,274 C151,267.714 141,267.42 141,262 141,262 141,260 141,260 139.423,260 139,258.238 139,257 139,257 139,255 139,255 137.386,255 138,251.69 138,250.5 138,247.877 138.071,236 141,236 141,234.952 140.527,233 142,233 142,233 143,231 143,231 143,231 143,230 143,230 143,230 144,228 144,228 144,228 145,226 145,226 145,224.762 145.423,223 147,223 147,221.253 147.253,221 149,221 149,218.173 151.831,216.837 153,214.5 155.366,209.769 150.132,209.684 147.5,211 144.831,212.335 140.573,219.353 139,222.5 136.608,227.285 135.399,232.702 133,237.5 132.248,239.003 132.799,248 131,248 131,253.008 132.866,259.231 135,263.5 135,263.5 141,271 141,271  Z"/>

<path  fill="#C8CACA" stroke-width="0" stroke="#C8CACA" d = " M316 271 L306,274 C306,268.31 311,269.044 311,266 311,266 312,265 312,265 312,265 313,264 313,264 313,264 314,263 314,263 314,263 315,262 315,262 315,262 315,261 315,261 315,261 316,260 316,260 316,260 316,259 316,259 316,259 317,258 317,258 317,258 317,257 317,257 319.064,257 317.426,253.647 318,252.5 319.629,249.242 315.739,230 313,230 313,230 313,229 313,229 313,224.205 301.028,214.445 303,210.5 304.624,207.252 312.142,213.785 313,215.5 317.572,224.644 325,235.183 325,246 325,253.202 323.944,258.613 321,264.5 321,264.5 316,271 316,271  Z"/>

<path  fill="#FF9BCD" stroke-width="0" stroke="#FF9BCD" d = " M194 213 L199,213 C199,212.328 194.671,211 194,211 194,211 194,213 194,213  Z"/>

<path  fill="#FF9BCD" stroke-width="0" stroke="#FF9BCD" d = " M203 213 L206,215 C206,215 207,211 207,211 207,211 203,213 203,213  Z"/>

<path  fill="#FF9BCD" stroke-width="0" stroke="#FF9BCD" d = " M263 211 L262,212 C262,212 263,211 263,211  Z"/>

<path  fill="#FF9BCD" stroke-width="0" stroke="#FF9BCD" d = " M258 213 L262,213 C262,213 262,212 262,212 260.855,212 258,211.421 258,213  Z"/>

<path  fill="#FF9BCD" stroke-width="0" stroke="#FF9BCD" d = " M194 213 L193,214 C193,214 194,213 194,213  Z"/>

<path  fill="#FFB2D8" stroke-width="0" stroke="#FFB2D8" d = " M175 263 C181.834,263 186.166,266 193,266 193,262.183 195.426,259.648 197,256.5 199.729,251.042 206,229.198 206,223 206,223 206,220 206,220 206,220 206,215 206,215 206,215 203,213 203,213 203,213 199,213 199,213 199,213 194,213 194,213 194,213 193,214 193,214 193,214 190,215 190,215 190,225.46 171,249.654 171,259 173.708,259 175,260.119 175,263  Z"/>

<path  fill="#FFB2D8" stroke-width="0" stroke="#FFB2D8" d = " M263 265 L264,266 C270.594,266 274.461,263 281,263 281,263 282,263 282,263 282,260.444 282.135,259 286,259 286,251.885 266,224.023 266,215 266,215 265,214 265,214 265,214 262,213 262,213 262,213 258,213 258,213 258,213 254,213 254,213 254,214.473 252.048,214 251,214 251,216.402 250,218.31 250,221 250,221 250,223 250,223 250,234.366 263,256.462 263,265  Z"/>

<path  fill="#FF9BCD" stroke-width="0" stroke="#FF9BCD" d = " M133 214 C131.527,214 132,215.952 132,217 133.473,217 133,215.048 133,214  Z"/>

<path  fill="#FF9BCD" stroke-width="0" stroke="#FF9BCD" d = " M265 214 L266,215 C266,215 265,214 265,214  Z"/>

<path  fill="#FFA4D0" stroke-width="0" stroke="#FFA4D0" d = " M141 262 L146.5,266 C148.456,266.978 150.577,265 152,265 156.073,265 154.442,246.616 156,243.5 160.074,235.352 170,232.226 170,222 170,222 169,219 169,219 166.211,219 165.58,215 163,215 157.234,215 153.04,221 149,221 149,222.747 148.747,223 147,223 147,224.238 146.577,226 145,226 145,226 144,228 144,228 144,228 143,230 143,230 143,230 143,231 143,231 143,231 142,233 142,233 142,234.048 142.473,236 141,236 141,242.615 139,248.007 139,255 139,255 139,257 139,257 139,257 141,260 141,260 141,260 141,262 141,262  Z"/>

<path  fill="#FCB3D9" stroke-width="0" stroke="#FCB3D9" d = " M152 265 C152,268.87 155.53,270 159,270 159,266.384 167,266.918 167,264 167,264 168,263 168,263 168,263 171,259 171,259 171,249.654 190,225.46 190,215 182.928,215 177.276,221 171,221 171,221 170,222 170,222 170,232.226 160.074,235.352 156,243.5 154.442,246.616 156.073,265 152,265  Z"/>

<path  fill="#FCB3D9" stroke-width="0" stroke="#FCB3D9" d = " M305 266 C305,270.629 298.707,269 297,269 297,269 289,264 289,264 289,264 288,263 288,263 288,263 286,259 286,259 286,251.885 266,224.023 266,215 273.24,215 278.623,221 285,221 285,221 286,222 286,222 286,232.462 295.059,231.618 299,239.5 301.718,244.935 298.365,253.23 301,258.5 301,258.5 305,266 305,266  Z"/>

<path  fill="#FFA4D0" stroke-width="0" stroke="#FFA4D0" d = " M305 266 L311,266 C311,266 312,265 312,265 312,265 313,264 313,264 313,264 314,263 314,263 314,263 315,262 315,262 315,262 315,261 315,261 315,261 316,260 316,260 316,260 316,259 316,259 316,259 317,258 317,258 317,258 317,257 317,257 317,257 317,243.5 317,243.5 315.336,240.173 313,233.744 313,230 313,230 313,229 313,229 312.11,229 302.159,215 294,215 290.77,215 288.74,220 286,220 286,220 286,222 286,222 286,232.462 295.059,231.618 299,239.5 301.718,244.935 298.365,253.23 301,258.5 301,258.5 305,266 305,266  Z"/>

<path  fill="#FF9BCD" stroke-width="0" stroke="#FF9BCD" d = " M132 217 L131,219 C131,219 132,217 132,217  Z"/>

<path  fill="#F0F080" stroke-width="0" stroke="#F0F080" d = " M116 220 L115,222 C114.365,222 110,221.773 110,219 110,219 116,219 116,219 116,219 116,220 116,220  Z"/>

<path  fill="#A9AAA7" stroke-width="0" stroke="#A9AAA7" d = " M117 219 L116,220 C116,220 116,219 116,219 116,219 117,219 117,219  Z"/>

<path  fill="#A9AAA8" stroke-width="0" stroke="#A9AAA8" d = " M117 219 C118.405,219 123,226.597 123,228.5 123,231.528 117.646,227.792 117,226.5 L116,220 C116,220 117,219 117,219  Z"/>

<path  fill="#FF9BCD" stroke-width="0" stroke="#FF9BCD" d = " M171 221 L170,222 C170,222 169,219 169,219 169,219 171,221 171,221  Z"/>

<path  fill="#FF9BCD" stroke-width="0" stroke="#FF9BCD" d = " M331 225 L331,234 C328.726,234 325,221.15 325,219 327.072,219 326.228,225 331,225  Z"/>

<path  fill="#A9AAA8" stroke-width="0" stroke="#A9AAA8" d = " M340 220 L339,227 C337.93,227 336.538,231.019 334.5,230 332.352,228.926 337.689,219 340,219 340,219 340,220 340,220  Z"/>

<path  fill="#F0F080" stroke-width="0" stroke="#F0F080" d = " M340 220 C341.577,220 342,221.762 342,223 342,223 347,219 347,219 347,219 340,219 340,219 340,219 340,220 340,220  Z"/>

<path  fill="#FF9BCD" stroke-width="0" stroke="#FF9BCD" d = " M131 220 L130,222 C130,222 131,220 131,220  Z"/>

<path  fill="#FF9BCD" stroke-width="0" stroke="#FF9BCD" d = " M208 222 L206,223 C206,223 206,220 206,220 206,220 208,222 208,222  Z"/>

<path  fill="#FF9BCD" stroke-width="0" stroke="#FF9BCD" d = " M285 221 L286,222 C286,222 286,220 286,220 286,220 285,221 285,221  Z"/>

<path  fill="#A9AAA7" stroke-width="0" stroke="#A9AAA7" d = " M342 223 L339,227 C339,227 340,220 340,220 341.577,220 342,221.762 342,223  Z"/>

<path  fill="#FF9BCD" stroke-width="0" stroke="#FF9BCD" d = " M149 221 C147.253,221 147,221.253 147,223 148.747,223 149,222.747 149,221  Z"/>

<path  fill="#FEB0D8" stroke-width="0" stroke="#FEB0D8" d = " M255 276 L256,276 C256,271.757 250.931,266 263,266 263,266 263,265 263,265 263,256.462 250,234.366 250,223 250,223 249,222 249,222 245.052,222 239.607,221 235,221 235,221 231,222 231,222 231,223.928 230.888,232 229,232 229,233.186 228,233.186 228,232 225.689,232 225,222.748 225,221 225,221 222,221 222,221 217.393,221 211.948,222 208,222 208,222 206,223 206,223 206,229.198 199.729,251.042 197,256.5 195.426,259.648 193,262.183 193,266 207.375,266 200,273.449 200,276 200,276 202,276 202,276 202,270.001 215.495,261 221,261 221,254.788 227,235.666 227,251 227,251 229,251 229,251 229,233.737 235,254.87 235,261 243.967,261 254.037,276 255,276  Z"/>

<path  fill="#FF9BCD" stroke-width="0" stroke="#FF9BCD" d = " M249 222 L250,223 C250,223 250,221 250,221 250,221 249,222 249,222  Z"/>

<path  fill="#FF9BCD" stroke-width="0" stroke="#FF9BCD" d = " M125 225 L125,235 C127.542,235 130,224.363 130,222 128.777,222 128.591,225 125,225  Z"/>

<path  fill="#FF9BCD" stroke-width="0" stroke="#FF9BCD" d = " M147 223 C145.423,223 145,224.762 145,226 146.577,226 147,224.238 147,223  Z"/>

<path  fill="#FF9BCD" stroke-width="0" stroke="#FF9BCD" d = " M145 226 L144,228 C144,228 145,226 145,226  Z"/>

<path  fill="#FF9BCD" stroke-width="0" stroke="#FF9BCD" d = " M144 228 L143,230 C143,230 144,228 144,228  Z"/>

<path  fill="#FF9BCD" stroke-width="0" stroke="#FF9BCD" d = " M313 230 C315.739,230 319.629,249.242 318,252.5 317.426,253.647 319.064,257 317,257 317,257 317,243.5 317,243.5 315.336,240.173 313,233.744 313,230  Z"/>

<path  fill="#FF9BCD" stroke-width="0" stroke="#FF9BCD" d = " M143 231 L142,233 C142,233 143,231 143,231  Z"/>

<path  fill="#FF9BCD" stroke-width="0" stroke="#FF9BCD" d = " M142 233 C140.527,233 141,234.952 141,236 142.473,236 142,234.048 142,233  Z"/>

<path  fill="#FF9BCD" stroke-width="0" stroke="#FF9BCD" d = " M141 236 C138.071,236 138,247.877 138,250.5 138,251.69 137.386,255 139,255 139,248.007 141,242.615 141,236  Z"/>

<path  fill="#FF9BCD" stroke-width="0" stroke="#FF9BCD" d = " M334 239 C335.49,239 333,250.82 333,253 333,254.145 333.579,257 332,257 332,250.372 331,244.182 331,238 331.264,238 334,241.999 334,239  Z"/>

<path  fill="#FF9BCD" stroke-width="0" stroke="#FF9BCD" d = " M125 239 C125,245.848 125,251.776 125,258 122.317,258 123,247.813 123,245.5 123,244.314 119.753,239 122,239 123.333,239 123.667,239 125,239  Z"/>

<path  fill="#C8C8CC" stroke-width="0" stroke="#C8C8CC" d = " M221 261 C221,262.577 222.762,263 224,263 224,263 227,260 227,260 227,260 227,251 227,251 227,235.666 221,254.788 221,261  Z"/>

<path  fill="#C8C8CC" stroke-width="0" stroke="#C8C8CC" d = " M235 261 C235,262.747 234.747,263 233,263 233,263 229,259 229,259 229,259 229,251 229,251 229,233.737 235,254.87 235,261  Z"/>

<path  fill="#FEC6E2" stroke-width="0" stroke="#FEC6E2" d = " M229 277 L230,277 C230,277 230,276 230,276 230,276 229,261 229,261 229,261 229,259 229,259 229,259 229,251 229,251 229,251 227,251 227,251 227,251 227,260 227,260 227,260 227,263 227,263 227,263 226,275 226,275 226,275 226,276 226,276 226,276 227,277 227,277 227,277 229,277 229,277  Z"/>

<path  fill="#FF9BCD" stroke-width="0" stroke="#FF9BCD" d = " M139 257 L141,260 C139.423,260 139,258.238 139,257  Z"/>

<path  fill="#FF9BCD" stroke-width="0" stroke="#FF9BCD" d = " M332 257 L331,259 C331,259 332,257 332,257  Z"/>

<path  fill="#FF9BCD" stroke-width="0" stroke="#FF9BCD" d = " M317 258 L316,259 C316,259 317,258 317,258  Z"/>

<path  fill="#FF9BCD" stroke-width="0" stroke="#FF9BCD" d = " M125 259 L134,272 C130.493,272 125,261.666 125,259  Z"/>

<path  fill="#FEB3D6" stroke-width="0" stroke="#FEB3D6" d = " M168 264 C169.631,264 172.369,264 174,264 174,264 175,263 175,263 175,260.119 173.708,259 171,259 171,259 168,263 168,263 168,263 168,264 168,264  Z"/>

<path  fill="#FEB0D8" stroke-width="0" stroke="#FEB0D8" d = " M233 263 L232,265 C228.546,265 231.266,261 229,261 229,261 229,259 229,259 229,259 233,263 233,263  Z"/>

<path  fill="#FEB3D6" stroke-width="0" stroke="#FEB3D6" d = " M282 264 C284.152,264 286.071,264 288,264 288,264 288,263 288,263 288,263 286,259 286,259 282.135,259 282,260.444 282,263 282,263 282,264 282,264  Z"/>

<path  fill="#FEB0D8" stroke-width="0" stroke="#FEB0D8" d = " M227 263 L225,265 C225,265 224,263 224,263 224,263 227,260 227,260 227,260 227,263 227,263  Z"/>

<path  fill="#FF9BCD" stroke-width="0" stroke="#FF9BCD" d = " M316 260 L315,261 C315,261 316,260 316,260  Z"/>

<path  fill="#FF9BCD" stroke-width="0" stroke="#FF9BCD" d = " M331 260 C329.423,260 329,261.762 329,263 330.577,263 331,261.238 331,260  Z"/>

<path  fill="#FDB2D9" stroke-width="0" stroke="#FDB2D9" d = " M225 265 C225,277.252 204.031,286.561 201,280.5 L202,276 C202,270.001 215.495,261 221,261 221,262.577 222.762,263 224,263 224,263 225,265 225,265  Z"/>

<path  fill="#FF9BCD" stroke-width="0" stroke="#FF9BCD" d = " M282 291 C282,293.308 275.037,293.232 273.5,294 266.61,297.445 257.316,295.592 250.5,299 249.245,299.628 241,300.737 241,299 249.184,299 253.009,289 239,289 239,287.335 243.222,288 244.5,288 246.592,288 257.193,294.113 259,290.5 259.84,288.82 247.122,283.811 245.5,283 243.963,282.232 241.671,279.915 239.5,281 239.5,281 237.5,283 237.5,283 232.986,280.743 234.603,276 230,276 230,276 229,261 229,261 231.266,261 228.546,265 232,265 232,265 231,269.5 231,269.5 234.181,275.861 255,290.408 255,276 255,276 256,276 256,276 256,276 260.5,281 260.5,281 263.437,283.937 267.894,287.197 271.5,289 274.419,290.46 278.19,285 281,285 281,286.577 279.271,287 282,287 282,290.83 272.512,291 282,291  Z"/>

<path  fill="#FDB2D9" stroke-width="0" stroke="#FDB2D9" d = " M232 265 L231,269.5 C234.181,275.861 255,290.408 255,276 254.037,276 243.967,261 235,261 235,262.747 234.747,263 233,263 233,263 232,265 232,265  Z"/>

<path  fill="#FF9BCD" stroke-width="0" stroke="#FF9BCD" d = " M217 289 C203.844,289 205.829,299 216,299 216,300.22 212.508,300.504 211.5,300 207.436,297.968 201.444,299.972 197.5,298 190.58,294.54 181.426,295.463 174.5,292 167.413,288.456 160.655,284.577 153.5,281 151.439,279.97 140,277.544 140,275 141.281,275 157.844,283.188 155,277.5 155,277.5 151,274 151,274 151,267.714 141,267.42 141,262 141,262 146.5,266 146.5,266 148.456,266.978 150.577,265 152,265 152,268.87 155.53,270 159,270 159,270 160,273 160,273 155.979,273 157,275.575 157,279 157,283.72 167.698,286.599 172.5,289 173.499,289.499 178.013,293.473 179,291.5 180.313,288.874 168,286.138 168,284 172.086,284 175,288.514 175,285 175,285 183.5,289 183.5,289 183.5,289 187.5,287 187.5,287 189.863,285.818 200,279.276 200,276 200,276 202,276 202,276 202,276 201,280.5 201,280.5 204.031,286.561 225,277.252 225,265 225,265 227,263 227,263 227,263 226,275 226,275 222.458,275 222.004,283 218.5,283 216.989,283 215.978,279.761 213.5,281 213.5,281 200.5,288 200.5,288 200.5,288 197,290.5 197,290.5 197,290.5 202,291 202,291 203.366,291 217,285.409 217,289  Z"/>

<path  fill="#FF9BCD" stroke-width="0" stroke="#FF9BCD" d = " M315 262 L314,263 C314,263 315,262 315,262  Z"/>

<path  fill="#FF9BCD" stroke-width="0" stroke="#FF9BCD" d = " M167 264 L168,264 C168,264 168,263 168,263 168,263 167,264 167,264  Z"/>

<path  fill="#FF9BCD" stroke-width="0" stroke="#FF9BCD" d = " M175 263 L174,264 C174,264 175,263 175,263  Z"/>

<path  fill="#FCB2D9" stroke-width="0" stroke="#FCB2D9" d = " M174 284 L175,285 C175,285 183.5,289 183.5,289 183.5,289 187.5,287 187.5,287 189.863,285.818 200,279.276 200,276 200,273.449 207.375,266 193,266 186.166,266 181.834,263 175,263 175,263 174,264 174,264 172.369,264 169.631,264 168,264 168,264 167,264 167,264 167,266.918 159,266.384 159,270 159,270 160,273 160,273 162.209,273 169,278.507 169,280 169,280 170,281 170,281 170,281 172,282 172,282 172,282 174,284 174,284  Z"/>

<path  fill="#FCB2D9" stroke-width="0" stroke="#FCB2D9" d = " M282 284 L281,285 C278.19,285 274.419,290.46 271.5,289 267.894,287.197 263.437,283.937 260.5,281 260.5,281 256,276 256,276 256,271.757 250.931,266 263,266 263,266 264,266 264,266 270.594,266 274.461,263 281,263 281,263 282,264 282,264 284.152,264 286.071,264 288,264 288,264 289,264 289,264 289,264 297,269 297,269 297,269 296,273 296,273 291.404,273 290.06,281 286,281 286,281 285,282 285,282 285,282 284,283 284,283 284,283 283,283 283,283 283,283 282,284 282,284  Z"/>

<path  fill="#FF9BCD" stroke-width="0" stroke="#FF9BCD" d = " M282 263 L282,264 C282,264 281,263 281,263 281,263 282,263 282,263  Z"/>

<path  fill="#FF9BCD" stroke-width="0" stroke="#FF9BCD" d = " M288 264 L289,264 C289,264 288,263 288,263 288,263 288,264 288,264  Z"/>

<path  fill="#FF9BCD" stroke-width="0" stroke="#FF9BCD" d = " M314 263 L313,264 C313,264 314,263 314,263  Z"/>

<path  fill="#FF9BCD" stroke-width="0" stroke="#FF9BCD" d = " M313 264 L312,265 C312,265 313,264 313,264  Z"/>

<path  fill="#FF9BCD" stroke-width="0" stroke="#FF9BCD" d = " M329 264 L328,265 C328,265 329,264 329,264  Z"/>

<path  fill="#FF9BCD" stroke-width="0" stroke="#FF9BCD" d = " M263 266 L264,266 C264,266 263,265 263,265 263,265 263,266 263,266  Z"/>

<path  fill="#FF9BCD" stroke-width="0" stroke="#FF9BCD" d = " M312 265 L311,266 C311,266 312,265 312,265  Z"/>

<path  fill="#FF9BCD" stroke-width="0" stroke="#FF9BCD" d = " M328 265 L327,267 C327,267 328,265 328,265  Z"/>

<path  fill="#FF9BCD" stroke-width="0" stroke="#FF9BCD" d = " M306 279 L301,282.5 C297.873,285.627 286.528,291 282,291 282,289.989 296.433,283.034 298.5,282 299.487,281.507 301.117,279 299,279 299,275.575 300.021,273 296,273 296,273 297,269 297,269 298.707,269 305,270.629 305,266 305,266 311,266 311,266 311,269.044 306,268.31 306,274 306,274 301,277.5 301,277.5 300.549,278.402 301.089,280.706 302.5,280 302.5,280 306,279 306,279  Z"/>

<path  fill="#FF9BCD" stroke-width="0" stroke="#FF9BCD" d = " M327 267 L326,268 C326,268 327,267 327,267  Z"/>

<path  fill="#FF9BCD" stroke-width="0" stroke="#FF9BCD" d = " M326 268 L325,269 C325,269 326,268 326,268  Z"/>

<path  fill="#FF9BCD" stroke-width="0" stroke="#FF9BCD" d = " M325 269 L324,270 C324,270 325,269 325,269  Z"/>

<path  fill="#FF9BCD" stroke-width="0" stroke="#FF9BCD" d = " M324 270 L323,271 C323,271 324,270 324,270  Z"/>

<path  fill="#C9CACA" stroke-width="0" stroke="#C9CACA" d = " M139 275 L140,275 C141.281,275 157.844,283.188 155,277.5 155,277.5 151,274 151,274 151,274 141,271 141,271 139.765,271 136,270.357 136,272 136,272 139,275 139,275  Z"/>

<path  fill="#C9CACA" stroke-width="0" stroke="#C9CACA" d = " M312 277 C310.643,277 306,277.647 306,279 306,279 302.5,280 302.5,280 301.089,280.706 300.549,278.402 301,277.5 301,277.5 306,274 306,274 306,274 316,271 316,271 316,271 321,272 321,272 321,272 321,273 321,273 321,273 320,273 320,273 320,273 319,274 319,274 319,274 317,275 317,275 317,275 315,275 315,275 315,275 314,276 314,276 314,276 312,277 312,277  Z"/>

<path  fill="#FF9BCD" stroke-width="0" stroke="#FF9BCD" d = " M323 271 L322,272 C322,272 323,271 323,271  Z"/>

<path  fill="#FF9BCD" stroke-width="0" stroke="#FF9BCD" d = " M136 272 L139,275 C137.571,275 135,273.712 135,272 135,272 136,272 136,272  Z"/>

<path  fill="#FF9BCD" stroke-width="0" stroke="#FF9BCD" d = " M322 272 L321,273 C321,273 321,272 321,272 321,272 322,272 322,272  Z"/>

<path  fill="#C8C8CB" stroke-width="0" stroke="#C8C8CB" d = " M174 284 L175,285 C175,288.514 172.086,284 168,284 168,284 167,283 167,283 167,283 163,281 163,281 163,281 161,280 161,280 161,280 160,279 160,279 160,279 157,279 157,279 157,275.575 155.979,273 160,273 162.209,273 169,278.507 169,280 169,280 170,281 170,281 170,281 172,282 172,282 172,282 174,284 174,284  Z"/>

<path  fill="#C8C8CB" stroke-width="0" stroke="#C8C8CB" d = " M286 285 L287,285 C287,285 289,284 289,284 289,281.902 290.939,281 293,281 293,281 296,280 296,280 296,280 297,279 297,279 297,279 299,279 299,279 299,275.575 300.021,273 296,273 291.404,273 290.06,281 286,281 286,281 285,282 285,282 285,282 284,283 284,283 284,283 283,283 283,283 283,283 282,284 282,284 282,284 281,285 281,285 281,286.577 279.271,287 282,287 282,284.891 284.535,285 286,285  Z"/>

<path  fill="#FF9BCD" stroke-width="0" stroke="#FF9BCD" d = " M320 273 L319,274 C319,274 320,273 320,273  Z"/>

<path  fill="#FF9BCD" stroke-width="0" stroke="#FF9BCD" d = " M319 274 L317,275 C317,275 319,274 319,274  Z"/>

<path  fill="#FFB3D8" stroke-width="0" stroke="#FFB3D8" d = " M217 289 L218,289 C225.126,289 220.716,285.892 222.5,285 222.5,285 225,281 225,281 225,281 225,280 225,280 225,280 226,279 226,279 226,279 226,276 226,276 226,276 226,275 226,275 222.458,275 222.004,283 218.5,283 216.989,283 215.978,279.761 213.5,281 213.5,281 200.5,288 200.5,288 200.5,288 197,290.5 197,290.5 197,290.5 202,291 202,291 203.366,291 217,285.409 217,289  Z"/>

<path  fill="#FFB3D8" stroke-width="0" stroke="#FFB3D8" d = " M238 289 L239,289 C239,287.335 243.222,288 244.5,288 246.592,288 257.193,294.113 259,290.5 259.84,288.82 247.122,283.811 245.5,283 243.963,282.232 241.671,279.915 239.5,281 239.5,281 237.5,283 237.5,283 232.986,280.743 234.603,276 230,276 230,276 230,277 230,277 230,277 231,279 231,279 231,279 231,281 231,281 231,281 235,285.5 235,285.5 235,285.5 233,287.5 233,287.5 231.935,289.63 236.996,289 238,289  Z"/>

<path  fill="#C9C9C8" stroke-width="0" stroke="#C9C9C8" d = " M314 276 L315,276 C315,276 315,275 315,275 315,275 314,276 314,276  Z"/>

<path  fill="#FF9BCD" stroke-width="0" stroke="#FF9BCD" d = " M317 275 L315,276 C315,276 315,275 315,275 315,275 317,275 317,275  Z"/>

<path  fill="#FF9BCD" stroke-width="0" stroke="#FF9BCD" d = " M227 277 L226,279 C226,279 226,276 226,276 226,276 227,277 227,277  Z"/>

<path  fill="#FF9BCD" stroke-width="0" stroke="#FF9BCD" d = " M315 276 C315,277.473 313.048,277 312,277 312,277 314,276 314,276 314,276 315,276 315,276  Z"/>

<path  fill="#FFC6E2" stroke-width="0" stroke="#FFC6E2" d = " M225 281 C225,292.331 231,292.757 231,281 231,281 231,279 231,279 231,279 229,277 229,277 229,277 227,277 227,277 227,277 226,279 226,279 226,279 225,280 225,280 225,280 225,281 225,281  Z"/>

<path  fill="#FF9BCD" stroke-width="0" stroke="#FF9BCD" d = " M230 277 L231,279 C231,279 229,277 229,277 229,277 230,277 230,277  Z"/>

<path  fill="#FF9BCD" stroke-width="0" stroke="#FF9BCD" d = " M312 277 C310.643,277 306,277.647 306,279 307.623,279 312,278.995 312,277  Z"/>

<path  fill="#CBC7CC" stroke-width="0" stroke="#CBC7CC" d = " M167 283 L168,284 C168,286.138 180.313,288.874 179,291.5 178.013,293.473 173.499,289.499 172.5,289 167.698,286.599 157,283.72 157,279 157,279 160,279 160,279 160,279 161,280 161,280 161,280 163,281 163,281 163,283.109 165.535,283 167,283  Z"/>

<path  fill="#FF9BCD" stroke-width="0" stroke="#FF9BCD" d = " M160 279 L161,280 C161,280 160,279 160,279  Z"/>

<path  fill="#FF9BCD" stroke-width="0" stroke="#FF9BCD" d = " M226 279 L225,280 C225,280 226,279 226,279  Z"/>

<path  fill="#FF9BCD" stroke-width="0" stroke="#FF9BCD" d = " M297 279 L296,280 C296,280 297,279 297,279  Z"/>

<path  fill="#CBC7CC" stroke-width="0" stroke="#CBC7CC" d = " M282 287 C282,290.83 272.512,291 282,291 282,289.989 296.433,283.034 298.5,282 299.487,281.507 301.117,279 299,279 299,279 297,279 297,279 297,279 296,280 296,280 296,280 293,281 293,281 293,281 289,284 289,284 289,284 287,285 287,285 287,285 286,285 286,285 286,287.109 283.465,287 282,287  Z"/>

<path  fill="#FF9BCD" stroke-width="0" stroke="#FF9BCD" d = " M169 280 L170,281 C170,281 169,280 169,280  Z"/>

<path  fill="#FF9BCD" stroke-width="0" stroke="#FF9BCD" d = " M163 281 L167,283 C165.535,283 163,283.109 163,281  Z"/>

<path  fill="#FF9BCD" stroke-width="0" stroke="#FF9BCD" d = " M218 299 C222.617,299 227.845,292 228.5,292 L231,295.5 C232.917,297.417 235.21,299 238,299 238,297.271 231.334,295.831 233,292.5 234.03,290.44 238,291.635 238,289 236.996,289 231.935,289.63 233,287.5 233,287.5 235,285.5 235,285.5 235,285.5 231,281 231,281 231,292.757 225,292.331 225,281 225,281 222.5,285 222.5,285 220.716,285.892 225.126,289 218,289 218,289 223,291.5 223,291.5 225.509,296.518 218,296.76 218,299  Z"/>

<path  fill="#FF9BCD" stroke-width="0" stroke="#FF9BCD" d = " M286 281 L285,282 C285,282 286,281 286,281  Z"/>

<path  fill="#FF9BCD" stroke-width="0" stroke="#FF9BCD" d = " M293 281 C290.939,281 289,281.902 289,284 289,284 293,281 293,281  Z"/>

<path  fill="#FF9BCD" stroke-width="0" stroke="#FF9BCD" d = " M172 282 L174,284 C174,284 172,282 172,282  Z"/>

<path  fill="#FF9BCD" stroke-width="0" stroke="#FF9BCD" d = " M285 282 L284,283 C284,283 285,282 285,282  Z"/>

<path  fill="#FF9BCD" stroke-width="0" stroke="#FF9BCD" d = " M283 283 L282,284 C282,284 283,283 283,283  Z"/>

<path  fill="#FF9BCD" stroke-width="0" stroke="#FF9BCD" d = " M282 284 L281,285 C281,285 282,284 282,284  Z"/>

<path  fill="#FF9BCD" stroke-width="0" stroke="#FF9BCD" d = " M289 284 L287,285 C287,285 289,284 289,284  Z"/>

<path  fill="#FF9BCD" stroke-width="0" stroke="#FF9BCD" d = " M286 285 C284.535,285 282,284.891 282,287 283.465,287 286,287.109 286,285  Z"/>

<path  fill="#C7C9C9" stroke-width="0" stroke="#C7C9C9" d = " M216 299 L218,299 C218,296.76 225.509,296.518 223,291.5 223,291.5 218,289 218,289 218,289 217,289 217,289 203.844,289 205.829,299 216,299  Z"/>

<path  fill="#C7C9C9" stroke-width="0" stroke="#C7C9C9" d = " M238 299 L241,299 C249.184,299 253.009,289 239,289 239,289 238,289 238,289 238,291.635 234.03,290.44 233,292.5 231.334,295.831 238,297.271 238,299  Z"/>

</g>
</svg>
