<svg xmlns="http://www.w3.org/2000/svg" xmlns:xlink="http://www.w3.org/1999/xlink"  viewBox="0 0 456 320">
<g>
<rect width="456" height="320" fill="#000000"  stroke-width="0" /> 
<path  fill="#FCFB90" stroke-width="0" stroke="#FCFB90" d = " M235 69 L236,69 C236,69 237,68 237,68 237,68 239,64 239,64 239,64 240,63 240,63 240,63 240,62 240,62 240,62 241,61 241,61 241,61 241,59 241,59 241,59 242,58 242,58 242,58 242,57 242,57 242,57 243,56 243,56 243,56 243,54 243,54 243,54 244,53 244,53 244,53 245,51 245,51 245,51 246,50 246,50 246,50 247,49 247,49 247,49 248,48 248,48 248,48 250,46 250,46 250,37.2822 222.241,41 216.5,41 213.799,41 206,42.2511 206,46 206,46 208,48 208,48 208,48 213,53 213,53 213,53 213,54 213,54 213,54 214,56 214,56 214,56 214,57 214,57 214,57 215,58 215,58 215,58 215,60 215,60 215,60 216,61 216,61 216,61 216,62 216,62 216,62 217,63 217,63 217,64.4082 218.197,68 220,68 220,68 221,69 221,69 221,69 226,69 226,69 226,69 227,69 227,69 227,69 229,68 229,68 229,68 231,69 231,69 231,69 235,69 235,69  Z"/>

<path  fill="#FF64FF" stroke-width="0" stroke="#FF64FF" d = " M191 45 C189.952,45 188,44.5271 188,46 189.048,46 191,46.4729 191,45  Z"/>

<path  fill="#FE79FE" stroke-width="0" stroke="#FE79FE" d = " M165 59 C165,64.4525 162.369,72.2371 165,77.5 166.835,81.1696 170.147,83.794 172,87.5 173.181,89.8627 175.266,93.8831 177.5,95 180.675,96.5876 197,89.8673 197,87 191.35,87 191,78.1949 191,73.5 191,66.258 200.068,53 207,53 207,48.3984 198,47.0342 198,45 198,45 191,45 191,45 191,46.4729 189.048,46 188,46 182.097,46 177.111,52 172,52 172,52 171,53 171,53 171,53 170,54 170,54 170,54 169,55 169,55 169,55 168,56 168,56 168,56 167,57 167,57 167,57 166,58 166,58 166,58 165,59 165,59  Z"/>

<path  fill="#FF64FF" stroke-width="0" stroke="#FF64FF" d = " M213 76 L215,76 C215,76 216,75 216,75 216,75 217,74 217,74 217,74 218,73 218,73 218,73 219,72 219,72 219,72 221,70 221,70 221,70 221,69 221,69 221,69 220,68 220,68 218.197,68 217,64.4082 217,63 217,63 216,62 216,62 216,62 216,61 216,61 216,61 215,60 215,60 215,60 215,58 215,58 215,58 214,57 214,57 214,57 214,56 214,56 214,56 213,54 213,54 213,54 213,53 213,53 213,53 208,48 208,48 208,48 206,46 206,46 206,46 198,45 198,45 198,47.0342 207,48.3984 207,53 210.242,53 218,67.0243 218,69.5 218,71.4839 213,73.4756 213,76  Z"/>

<path  fill="#FF64FF" stroke-width="0" stroke="#FF64FF" d = " M241 59 L241,61 C241,61 249,53 249,53 249,51.111 253.697,46.9015 255.5,46 256.546,45.4772 259,46.9515 259,45 259,45 250,46 250,46 250,46 248,48 248,48 248,48 247,49 247,49 247,49 246,50 246,50 246,50 245,51 245,51 245,51 244,53 244,53 244,53 243,54 243,54 243,54 243,56 243,56 243,56 242,57 242,57 242,57 242,58 242,58 242,58 241,59 241,59  Z"/>

<path  fill="#FE79FE" stroke-width="0" stroke="#FE79FE" d = " M290 57 L293,66.5 C295.791,72.0812 285.26,85.9798 283,90.5 278.941,98.6183 260,92.0984 260,87 265.267,87 265,78.4838 265,74.5 265,74.5 265,65.5 265,65.5 263.867,63.2332 250.628,53 249,53 249,51.111 253.697,46.9015 255.5,46 256.546,45.4772 259,46.9515 259,45 259,45 265,45 265,45 265,46.4729 266.952,46 268,46 273.798,46 280.102,52 284,52 284,52 285,53 285,53 285,53 286,53 286,53 286,53 289,56 289,56 289,56 290,57 290,57  Z"/>

<path  fill="#FF64FF" stroke-width="0" stroke="#FF64FF" d = " M265 45 C266.048,45 268,44.5271 268,46 266.952,46 265,46.4729 265,45  Z"/>

<path  fill="#F0F080" stroke-width="0" stroke="#F0F080" d = " M208 48 L213,53 C213,53 208,48 208,48  Z"/>

<path  fill="#F0F080" stroke-width="0" stroke="#F0F080" d = " M248 48 L247,49 C247,49 248,48 248,48  Z"/>

<path  fill="#F0F080" stroke-width="0" stroke="#F0F080" d = " M247 49 L246,50 C246,50 247,49 247,49  Z"/>

<path  fill="#F0F080" stroke-width="0" stroke="#F0F080" d = " M246 50 L245,51 C245,51 246,50 246,50  Z"/>

<path  fill="#F0F080" stroke-width="0" stroke="#F0F080" d = " M245 51 L244,53 C244,53 245,51 245,51  Z"/>

<path  fill="#FF64FF" stroke-width="0" stroke="#FF64FF" d = " M172 52 L171,53 C171,53 172,52 172,52  Z"/>

<path  fill="#FF64FF" stroke-width="0" stroke="#FF64FF" d = " M284 52 L285,53 C285,53 284,52 284,52  Z"/>

<path  fill="#FF64FF" stroke-width="0" stroke="#FF64FF" d = " M171 53 L170,54 C170,54 171,53 171,53  Z"/>

<path  fill="#FE79FF" stroke-width="0" stroke="#FE79FF" d = " M205 83 L197,87 C191.35,87 191,78.1949 191,73.5 191,66.258 200.068,53 207,53 210.242,53 218,67.0243 218,69.5 218,71.4839 213,73.4756 213,76 213,76 212,77 212,77 212,77 211,78 211,78 211,78 210,79 210,79 210,79 209,80 209,80 209,80 208,81 208,81 208,81 207,81 207,81 207,81 205,83 205,83  Z"/>

<path  fill="#F0F080" stroke-width="0" stroke="#F0F080" d = " M244 53 L243,54 C243,54 244,53 244,53  Z"/>

<path  fill="#FE79FF" stroke-width="0" stroke="#FE79FF" d = " M247 79 C249.787,79 254.958,87 260,87 265.267,87 265,78.4838 265,74.5 265,74.5 265,65.5 265,65.5 263.867,63.2332 250.628,53 249,53 249,53 241,61 241,61 241,61 241,62 241,62 241,62 240,64 240,64 240,64 239,70.5 239,70.5 240.169,72.8376 244,74.2227 244,77 244,77 245,78 245,78 245,78 246,79 246,79 246,79 247,79 247,79  Z"/>

<path  fill="#FF64FF" stroke-width="0" stroke="#FF64FF" d = " M286 53 L289,56 C289,56 286,53 286,53  Z"/>

<path  fill="#FF64FF" stroke-width="0" stroke="#FF64FF" d = " M170 54 L169,55 C169,55 170,54 170,54  Z"/>

<path  fill="#F0F080" stroke-width="0" stroke="#F0F080" d = " M213 54 L214,56 C214,56 213,54 213,54  Z"/>

<path  fill="#FDFB8F" stroke-width="0" stroke="#FDFB8F" d = " M117 148 C117,145.373 119.755,138.989 121,136.5 L121,126.5 C124.357,119.786 123.603,111.294 127,104.5 127.292,103.916 130.565,82.6293 132,85.5 133.339,88.1786 132.105,96.2902 131,98.5 L131,103.5 C127.619,110.262 128.363,118.774 125,125.5 L125,132.5 C124.082,134.337 122.846,140.192 124,142.5 126.058,146.617 129.964,148 135,148 135,148 137,142.5 137,142.5 139.842,136.815 135.12,127.259 138,121.5 142.905,111.69 147.066,101.368 152,91.5 154.119,87.262 155.85,82.7995 158,78.5 158.465,77.5701 158.817,74 160,74 160,74 160,72 160,72 160,72 160,67 160,67 157.936,67 159.574,63.6472 159,62.5 159,62.5 151.5,55 151.5,55 142.35,50.425 118.053,67.7235 111.5,71 108.582,72.4591 102,80.107 102,83 102,100.949 100.566,119.632 108,134.5 109.298,137.095 113.033,148 117,148  Z"/>

<path  fill="#FDFB8F" stroke-width="0" stroke="#FDFB8F" d = " M321 148 C324.898,148 329.966,147.569 332,143.5 335.141,137.218 327.67,106.841 325,101.5 L325.5,86 L328,98.5 C332.309,107.118 336,125.277 336,135.5 336,137.631 338.037,148 340,148 340,144.682 345.383,142.735 347,139.5 347,139.5 351,128.5 351,128.5 357.571,115.358 354,98.0341 354,83 354,68.8118 320.495,59.4975 311.5,55 304.611,51.5555 297,60.2691 297,66 297,66 296,73 296,73 296,73 304,90.5 304,90.5 309.414,101.329 313.626,112.752 319,123.5 319,123.5 319,138.5 319,138.5 320.094,140.689 321,145.593 321,148  Z"/>

<path  fill="#FF64FF" stroke-width="0" stroke="#FF64FF" d = " M168 56 L167,57 C167,57 168,56 168,56  Z"/>

<path  fill="#F0F080" stroke-width="0" stroke="#F0F080" d = " M243 56 L242,57 C242,57 243,56 243,56  Z"/>

<path  fill="#FF64FF" stroke-width="0" stroke="#FF64FF" d = " M167 57 L166,58 C166,58 167,57 167,57  Z"/>

<path  fill="#F0F080" stroke-width="0" stroke="#F0F080" d = " M214 57 L215,58 C215,58 214,57 214,57  Z"/>

<path  fill="#FF64FF" stroke-width="0" stroke="#FF64FF" d = " M284 102 L283,103 C278.561,103 257.637,90.1372 254,86.5 254,86.5 247,79 247,79 249.787,79 254.958,87 260,87 260,92.0984 278.941,98.6183 283,90.5 285.26,85.9798 295.791,72.0812 293,66.5 293,66.5 290,57 290,57 290,57 297,66 297,66 297,66 296,73 296,73 296,73 296,75 296,75 294.421,75 295,77.8548 295,79 295,79 294,80 294,80 294,80 293,81 293,81 293,81 292,83 292,83 292,83 291,84 291,84 291,84 291,86 291,86 291,86 290,87 290,87 290,87 290,88 290,88 290,88 289,90 289,90 289,90 289,91 289,91 287.362,91 287,94.5758 287,96 287,96 287,97 287,97 287,97 286,99 286,99 286,99 285,101 285,101 285,101 284,102 284,102  Z"/>

<path  fill="#FF64FF" stroke-width="0" stroke="#FF64FF" d = " M166 58 L165,59 C165,59 166,58 166,58  Z"/>

<path  fill="#F0F080" stroke-width="0" stroke="#F0F080" d = " M242 58 L241,59 C241,59 242,58 242,58  Z"/>

<path  fill="#FF64FF" stroke-width="0" stroke="#FF64FF" d = " M174 103 L176,103 C176,101.423 177.762,101 179,101 179,101 183,99 183,99 183,96.3267 194.657,91 197,91 197,89.4226 198.762,89 200,89 200,87.1887 203.438,85 205,85 205,85 205,83 205,83 205,83 197,87 197,87 197,89.8673 180.675,96.5876 177.5,95 175.266,93.8831 173.181,89.8627 172,87.5 170.147,83.794 166.835,81.1696 165,77.5 162.369,72.2371 165,64.4525 165,59 163.015,59 160,65.2621 160,67 160,67 160,72 160,72 161.579,72 161,74.8548 161,76 161,76 161,78 161,78 161,78 163,80 163,80 163,80 164,82 164,82 164,82 165,83 165,83 165,83 165,85 165,85 165,85 166,86 166,86 166,86 166,87 166,87 166,87 167,89 167,89 167,89 167,90 167,90 168.638,90 169,93.5758 169,95 169,95 169,96 169,96 169,96 171,99 171,99 171,99 171,100 171,100 171,100 173,102 173,102 173,102 173,103 173,103 173,103 174,103 174,103  Z"/>

<path  fill="#F0F080" stroke-width="0" stroke="#F0F080" d = " M215 60 L216,61 C216,61 215,60 215,60  Z"/>

<path  fill="#F0F080" stroke-width="0" stroke="#F0F080" d = " M240 62 L241,62 C241,62 241,61 241,61 241,61 240,62 240,62  Z"/>

<path  fill="#F0F080" stroke-width="0" stroke="#F0F080" d = " M216 62 L217,63 C217,63 216,62 216,62  Z"/>

<path  fill="#FF64FF" stroke-width="0" stroke="#FF64FF" d = " M240 63 L240,64 C240,64 241,62 241,62 241,62 240,62 240,62 240,62 240,63 240,63  Z"/>

<path  fill="#F0F080" stroke-width="0" stroke="#F0F080" d = " M239 64 L240,64 C240,64 240,63 240,63 240,63 239,64 239,64  Z"/>

<path  fill="#FF64FF" stroke-width="0" stroke="#FF64FF" d = " M236 69 C236,71.1669 241.834,77 244,77 244,74.2227 240.169,72.8376 239,70.5 239,70.5 240,64 240,64 240,64 239,64 239,64 239,64 237,68 237,68 237,68 236,69 236,69  Z"/>

<path  fill="#F0F080" stroke-width="0" stroke="#F0F080" d = " M220 68 L221,69 C221,69 220,68 220,68  Z"/>

<path  fill="#F0F080" stroke-width="0" stroke="#F0F080" d = " M231 69 L230,70 C230,70 229,69 229,69 229,69 229,68 229,68 229,68 231,69 231,69  Z"/>

<path  fill="#F0F080" stroke-width="0" stroke="#F0F080" d = " M237 68 L236,69 C236,69 237,68 237,68  Z"/>

<path  fill="#FFFC8E" stroke-width="0" stroke="#FFFC8E" d = " M185 147 C185,141.51 177.877,138.746 182,130.5 184.045,126.411 194.758,124.871 198.5,123 217.429,113.535 240.955,114.727 259.5,124 263.6,126.05 272.529,126.558 275,131.5 278.057,137.615 271,143.839 271,147 278.675,147 284.607,150.446 291.5,147 294.107,145.696 291.175,141.663 292.5,141 294.011,140.245 303,144.037 303,139 303,139 296.5,132 296.5,132 291.655,127.155 283,110.592 283,104 276.726,104 258.378,91.8779 253.5,87 251.699,85.1994 246,81.9358 246,79 246,79 245,79 245,79 242.151,79 235,71.2046 235,69 235,69 231,69 231,69 231,69 230,70 230,70 230,71.4729 228.048,71 227,71 227,71 226,70 226,70 226,70 226,69 226,69 226,69 221,69 221,69 221,69 221,70 221,70 221,71.7469 220.747,72 219,72 219,72 218,73 218,73 218,73 217,74 217,74 217,74 216,75 216,75 216,75 215,76 215,76 215,76 213,77 213,77 213,77 212,78 212,78 212,78 211,79 211,79 211,79 209,80 209,80 209,80 209,81 209,81 209,81 207,83 207,83 207,83 205,85 205,85 205,86.8113 201.562,89 200,89 200,90.5774 198.238,91 197,91 197,93.7205 185.411,99 183,99 183,101.109 180.465,101 179,101 179,102.577 177.238,103 176,103 176,104.399 174,104.399 174,103 174,103 173,103 173,103 173,112.072 166.828,120.843 163,128.5 163,128.5 154,139 154,139 154,144.497 162.566,140.033 164.5,141 166.241,141.871 162.127,145.313 165.5,147 172.101,150.301 177.653,147 185,147  Z"/>

<path  fill="#FF64FF" stroke-width="0" stroke="#FF64FF" d = " M230 70 C230,71.4729 228.048,71 227,71 227,71 226,70 226,70 226,70 226,69 226,69 226,69 227,69 227,69 227,69 229,69 229,69 229,69 230,70 230,70  Z"/>

<path  fill="#F0F080" stroke-width="0" stroke="#F0F080" d = " M245 78 L245,79 C242.151,79 235,71.2046 235,69 235,69 236,69 236,69 236,71.1669 241.834,77 244,77 244,77 245,78 245,78  Z"/>

<path  fill="#F0F080" stroke-width="0" stroke="#F0F080" d = " M221 70 L219,72 C220.747,72 221,71.7469 221,70  Z"/>

<path  fill="#F0F080" stroke-width="0" stroke="#F0F080" d = " M226 70 L227,71 C227,71 226,70 226,70  Z"/>

<path  fill="#F0F080" stroke-width="0" stroke="#F0F080" d = " M160 74 L161,76 C161,74.8548 161.579,72 160,72 160,72 160,74 160,74  Z"/>

<path  fill="#F0F080" stroke-width="0" stroke="#F0F080" d = " M219 72 L218,73 C218,73 219,72 219,72  Z"/>

<path  fill="#F0F080" stroke-width="0" stroke="#F0F080" d = " M218 73 L217,74 C217,74 218,73 218,73  Z"/>

<path  fill="#FCFB90" stroke-width="0" stroke="#FCFB90" d = " M303 139 L302.5,120 L303,123.5 C304.903,127.306 303.163,132.826 305,136.5 308.247,142.994 313.316,148 321,148 321,145.593 320.094,140.689 319,138.5 319,138.5 319,123.5 319,123.5 313.626,112.752 309.414,101.329 304,90.5 304,90.5 296,73 296,73 296,73 296,75 296,75 296,76.1452 296.579,79 295,79 295,79 294,80 294,80 294,80 293,81 293,81 293,81 292,83 292,83 292,83 291,84 291,84 291,84 291,86 291,86 291,86 290,87 290,87 290,87 290,88 290,88 290,88 289,90 289,90 289,90 289,91 289,91 289,92.4242 288.638,96 287,96 287,96 287,97 287,97 287,97 286,99 286,99 286,99 285,101 285,101 285,101 284,102 284,102 284,102 283,103 283,103 283,103 283,104 283,104 283,110.592 291.655,127.155 296.5,132 296.5,132 303,139 303,139  Z"/>

<path  fill="#FCFB90" stroke-width="0" stroke="#FCFB90" d = " M154 139 C152.421,139 153,136.145 153,135 153,131.098 153.34,125.819 155,122.5 L154.5,119 C152.136,119 152.797,130.906 152,132.5 147.913,140.675 146.471,148 135,148 135,148 137,142.5 137,142.5 139.842,136.815 135.12,127.259 138,121.5 142.905,111.69 147.066,101.368 152,91.5 154.119,87.262 155.85,82.7995 158,78.5 158.465,77.5701 158.817,74 160,74 160,74 161,76 161,76 161,76 161,78 161,78 161,79.7469 161.253,80 163,80 163,80 164,82 164,82 164,82 165,83 165,83 165,83 165,85 165,85 165,85 166,86 166,86 166,86 166,87 166,87 166,87 167,89 167,89 167,89 167,90 167,90 167,91.4242 167.362,95 169,95 169,95 169,96 169,96 169,97.2383 169.423,99 171,99 171,99 171,100 171,100 171,100 173,102 173,102 173,102 173,103 173,103 173,112.072 166.828,120.843 163,128.5 163,128.5 154,139 154,139  Z"/>

<path  fill="#F0F080" stroke-width="0" stroke="#F0F080" d = " M217 74 L216,75 C216,75 217,74 217,74  Z"/>

<path  fill="#F0F080" stroke-width="0" stroke="#F0F080" d = " M216 75 L215,76 C215,76 216,75 216,75  Z"/>

<path  fill="#F0F080" stroke-width="0" stroke="#F0F080" d = " M296 75 C294.421,75 295,77.8548 295,79 296.579,79 296,76.1452 296,75  Z"/>

<path  fill="#FF64FF" stroke-width="0" stroke="#FF64FF" d = " M212 77 L213,77 C213,77 213,76 213,76 213,76 212,77 212,77  Z"/>

<path  fill="#F0F080" stroke-width="0" stroke="#F0F080" d = " M215 76 L213,77 C213,77 213,76 213,76 213,76 215,76 215,76  Z"/>

<path  fill="#FF64FF" stroke-width="0" stroke="#FF64FF" d = " M211 78 L212,78 C212,78 212,77 212,77 212,77 211,78 211,78  Z"/>

<path  fill="#F0F080" stroke-width="0" stroke="#F0F080" d = " M213 77 L212,78 C212,78 212,77 212,77 212,77 213,77 213,77  Z"/>

<path  fill="#F0F080" stroke-width="0" stroke="#F0F080" d = " M161 78 L163,80 C161.253,80 161,79.7469 161,78  Z"/>

<path  fill="#FF64FF" stroke-width="0" stroke="#FF64FF" d = " M210 79 L211,79 C211,79 211,78 211,78 211,78 210,79 210,79  Z"/>

<path  fill="#F0F080" stroke-width="0" stroke="#F0F080" d = " M212 78 L211,79 C211,79 211,78 211,78 211,78 212,78 212,78  Z"/>

<path  fill="#FF64FF" stroke-width="0" stroke="#FF64FF" d = " M245 79 L246,79 C246,79 245,78 245,78 245,78 245,79 245,79  Z"/>

<path  fill="#F0F080" stroke-width="0" stroke="#F0F080" d = " M211 79 L209,80 C209,80 210,79 210,79 210,79 211,79 211,79  Z"/>

<path  fill="#F0F080" stroke-width="0" stroke="#F0F080" d = " M283 103 L283,104 C276.726,104 258.378,91.8779 253.5,87 251.699,85.1994 246,81.9358 246,79 246,79 247,79 247,79 247,79 254,86.5 254,86.5 257.637,90.1372 278.561,103 283,103  Z"/>

<path  fill="#F0F080" stroke-width="0" stroke="#F0F080" d = " M295 79 L294,80 C294,80 295,79 295,79  Z"/>

<path  fill="#FF64FF" stroke-width="0" stroke="#FF64FF" d = " M208 81 L209,81 C209,81 209,80 209,80 209,80 208,81 208,81  Z"/>

<path  fill="#F0F080" stroke-width="0" stroke="#F0F080" d = " M294 80 L293,81 C293,81 294,80 294,80  Z"/>

<path  fill="#FF64FF" stroke-width="0" stroke="#FF64FF" d = " M205 83 L207,83 C207,83 207,81 207,81 207,81 205,83 205,83  Z"/>

<path  fill="#F0F080" stroke-width="0" stroke="#F0F080" d = " M209 81 L207,83 C207,83 207,81 207,81 207,81 208,81 208,81 208,81 209,81 209,81  Z"/>

<path  fill="#F0F080" stroke-width="0" stroke="#F0F080" d = " M164 82 L165,83 C165,83 164,82 164,82  Z"/>

<path  fill="#FCFC90" stroke-width="0" stroke="#FCFC90" d = " M93 162 C93,163.579 90.1452,163 89,163 89,161.94 70.4719,153.444 67,146.5 56.6161,125.732 80.1173,83 102,83 102,100.949 100.566,119.632 108,134.5 109.298,137.095 113.033,148 117,148 117,148 115,150.5 115,150.5 109.869,160.763 92.9924,158.485 89,150.5 89,150.5 86.5,143 86.5,143 84.8651,143 86.858,148.216 87,148.5 87.9118,150.324 93,161.35 93,162  Z"/>

<path  fill="#F0F080" stroke-width="0" stroke="#F0F080" d = " M207 83 L205,85 C205,85 205,83 205,83 205,83 207,83 207,83  Z"/>

<path  fill="#F0F080" stroke-width="0" stroke="#F0F080" d = " M292 83 L291,84 C291,84 292,83 292,83  Z"/>

<path  fill-rule="evenodd" fill="#FCFC90" stroke-width="0" stroke="#FCFC90" d = " M370 143 C370,144.93 371.93,143 370,143  M363 162 C363,163.579 365.855,163 367,163 367,160.07 374.629,158.935 376.5,158 382.822,154.839 387.588,150.323 391,143.5 400.266,124.968 374.109,83 354,83 354,98.0341 357.571,115.358 351,128.5 351,128.5 347,139.5 347,139.5 345.383,142.735 340,144.682 340,148 340,160.845 362.507,159.486 367,150.5 367,150.5 369.5,144 369.5,144 369.5,144 370,147.5 370,147.5 370,147.5 366,154.5 366,154.5 366,154.5 366,159.5 366,159.5 366,159.5 363,162 363,162  Z"/>

<path  fill-rule="evenodd" fill="#CBC9CC" stroke-width="0" stroke="#CBC9CC" d = " M125 160 C125,162.62 119.936,171.629 119,173.5 117.513,176.474 118.221,188.139 124.5,185 128.779,182.86 137.598,160 125,160  M130 189 C125.211,189 123.802,195 121,195 121,195 122,189 122,189 122,183.97 113.29,183.105 109.5,185 98.6518,190.424 83.949,194.551 75,203.5 72.3579,206.142 67,211.385 67,215 67,217.374 65.9242,228.348 64,224.5 62.6462,221.792 62.6754,218.149 64,215.5 65.7571,211.986 65.1843,207.131 67,203.5 69.6408,198.218 90.6515,184.924 96.5,182 99.667,180.416 109,182.178 109,177 114.745,177 108.828,165 103,165 103,163.214 94.5211,162 93,162 93,161.35 87.9118,150.324 87,148.5 86.858,148.216 84.8651,143 86.5,143 86.5,143 89,150.5 89,150.5 92.9924,158.485 109.869,160.763 115,150.5 115,150.5 117,148 117,148 117,145.373 119.755,138.989 121,136.5 121,136.5 121,126.5 121,126.5 124.357,119.786 123.603,111.294 127,104.5 127.292,103.916 130.565,82.6293 132,85.5 133.339,88.1786 132.105,96.2902 131,98.5 131,98.5 131,103.5 131,103.5 127.619,110.262 128.363,118.774 125,125.5 125,125.5 125,132.5 125,132.5 124.082,134.337 122.846,140.192 124,142.5 126.058,146.617 129.964,148 135,148 146.471,148 147.913,140.675 152,132.5 152.797,130.906 152.136,119 154.5,119 154.5,119 155,122.5 155,122.5 153.34,125.819 153,131.098 153,135 153,136.145 152.421,139 154,139 154,144.497 162.566,140.033 164.5,141 166.241,141.871 162.127,145.313 165.5,147 172.101,150.301 177.653,147 185,147 189.025,147 195,152.911 195,157 195,157 194,158 194,158 194,158 193,158 193,158 193,158 192,157 192,157 192,157 192,156 192,156 192,153.285 190.343,153 188,153 188,146.991 172,150.98 172,155 169.923,155 159,161.611 159,164 159,164 149,172 149,172 146.752,172 143.068,167.716 140.5,169 133.16,172.67 131,179.791 131,188 131,188 130,189 130,189  Z"/>

<path  fill="#F0F080" stroke-width="0" stroke="#F0F080" d = " M165 85 L166,86 C166,86 165,85 165,85  Z"/>

<path  fill="#F0F080" stroke-width="0" stroke="#F0F080" d = " M205 85 C203.438,85 200,87.1887 200,89 201.562,89 205,86.8113 205,85  Z"/>

<path  fill="#F0F080" stroke-width="0" stroke="#F0F080" d = " M291 86 L290,87 C290,87 291,86 291,86  Z"/>

<path  fill-rule="evenodd" fill="#CBC9CC" stroke-width="0" stroke="#CBC9CC" d = " M328 160 L325,162.5 C324.099,164.303 325,166.817 325,168 325,170.483 327,172.026 327,174 327,180.719 333.866,190.768 339,180.5 340.596,177.307 336.151,173.803 335,171.5 333.59,168.681 334.453,164.406 333,161.5 332.36,160.22 329.4,160 328,160  M336 197 L337,197 C337,194.474 335,191.423 335,188 335,184.013 343.787,183.643 346.5,185 358.065,190.783 373.387,194.887 383,204.5 387.777,209.277 387.336,214.173 390,219.5 390.304,220.108 391.174,227.151 392,225.5 393.648,222.203 393.65,215.801 392,212.5 392,212.5 391,206.5 391,206.5 385.675,195.849 375.033,191.766 365.5,187 365.5,187 361.5,183 361.5,183 358.949,181.724 347,181.039 347,177 341.247,177 347.931,165 353,165 355.84,165 359.715,162 363,162 363,162 366,159.5 366,159.5 366,159.5 366,154.5 366,154.5 366,154.5 370,147.5 370,147.5 370,147.5 369.5,144 369.5,144 369.5,144 367,150.5 367,150.5 362.507,159.486 340,160.845 340,148 338.037,148 336,137.631 336,135.5 336,125.277 332.309,107.118 328,98.5 328,98.5 325.5,86 325.5,86 325.5,86 325,101.5 325,101.5 327.67,106.841 335.141,137.218 332,143.5 329.966,147.569 324.898,148 321,148 313.316,148 308.247,142.994 305,136.5 303.163,132.826 304.903,127.306 303,123.5 303,123.5 302.5,120 302.5,120 302.5,120 303,139 303,139 303,144.037 294.011,140.245 292.5,141 291.175,141.663 294.107,145.696 291.5,147 284.607,150.446 278.675,147 271,147 267.642,147 261,153.635 261,157 261,157 263,158 263,158 263,158 264,157 264,157 264,157 265,156 265,156 265,153.959 265.959,153 268,153 268,146.991 284,150.98 284,155 286.89,155 297,160.923 297,164 297,164 307,172 307,172 309.498,172 313.783,167.642 316.5,169 323.877,172.688 325,180.133 325,187 325,187 326,189 326,189 332.09,189 335.095,197 336,197  Z"/>

<path  fill="#F0F080" stroke-width="0" stroke="#F0F080" d = " M166 87 L167,89 C167,89 166,87 166,87  Z"/>

<path  fill="#F0F080" stroke-width="0" stroke="#F0F080" d = " M290 88 L289,90 C289,90 290,88 290,88  Z"/>

<path  fill="#F0F080" stroke-width="0" stroke="#F0F080" d = " M200 89 C198.762,89 197,89.4226 197,91 198.238,91 200,90.5774 200,89  Z"/>

<path  fill="#F0F080" stroke-width="0" stroke="#F0F080" d = " M167 90 C168.638,90 169,93.5758 169,95 167.362,95 167,91.4242 167,90  Z"/>

<path  fill="#F0F080" stroke-width="0" stroke="#F0F080" d = " M197 91 C194.657,91 183,96.3267 183,99 185.411,99 197,93.7205 197,91  Z"/>

<path  fill="#F0F080" stroke-width="0" stroke="#F0F080" d = " M289 91 C287.362,91 287,94.5758 287,96 288.638,96 289,92.4242 289,91  Z"/>

<path  fill="#F0F080" stroke-width="0" stroke="#F0F080" d = " M169 96 L171,99 C169.423,99 169,97.2383 169,96  Z"/>

<path  fill="#F0F080" stroke-width="0" stroke="#F0F080" d = " M287 97 L286,99 C286,99 287,97 287,97  Z"/>

<path  fill="#F0F080" stroke-width="0" stroke="#F0F080" d = " M183 99 L179,101 C180.465,101 183,101.109 183,99  Z"/>

<path  fill="#F0F080" stroke-width="0" stroke="#F0F080" d = " M286 99 L285,101 C285,101 286,99 286,99  Z"/>

<path  fill="#F0F080" stroke-width="0" stroke="#F0F080" d = " M171 100 L173,102 C173,102 171,100 171,100  Z"/>

<path  fill="#F0F080" stroke-width="0" stroke="#F0F080" d = " M179 101 C177.762,101 176,101.423 176,103 177.238,103 179,102.577 179,101  Z"/>

<path  fill="#F0F080" stroke-width="0" stroke="#F0F080" d = " M285 101 L284,102 C284,102 285,101 285,101  Z"/>

<path  fill="#F0F080" stroke-width="0" stroke="#F0F080" d = " M284 102 L283,103 C283,103 284,102 284,102  Z"/>

<path  fill="#F0F080" stroke-width="0" stroke="#F0F080" d = " M174 103 L176,103 C176,104.399 174,104.399 174,103  Z"/>

<path  fill-rule="evenodd" fill="#FDFA91" stroke-width="0" stroke="#FDFA91" d = " M188 135 C188,137.159 184,135.061 184,136.5 L187.5,137 C191.675,139.087 197.267,138.384 200.5,140 212.92,146.21 238.029,147.236 250.5,141 255.808,138.346 263.023,139.739 268.5,137 L273,136.5 L263.5,135 C258.559,135 241.912,138.794 237.5,141 227.528,145.986 200.258,135 188,135  M210 165 C210,163.275 216.052,164 217.5,164 L239.5,164 C240.863,164 246,163.3 246,165 250.693,165 254.742,160 259,160 259,160 261,157 261,157 261,153.635 267.642,147 271,147 271,143.839 278.057,137.615 275,131.5 272.529,126.558 263.6,126.05 259.5,124 240.955,114.727 217.429,113.535 198.5,123 194.758,124.871 184.045,126.411 182,130.5 177.877,138.746 185,141.51 185,147 189.025,147 195,152.911 195,157 195,157 197,159 197,159 200.816,159 205.607,165 210,165  Z"/>

<path  fill="#CBC9CC" stroke-width="0" stroke="#CBC9CC" d = " M188 135 C188,137.159 184,135.061 184,136.5 L187.5,137 C191.675,139.087 197.267,138.384 200.5,140 212.92,146.21 238.029,147.236 250.5,141 255.808,138.346 263.023,139.739 268.5,137 L273,136.5 L263.5,135 C258.559,135 241.912,138.794 237.5,141 227.528,145.986 200.258,135 188,135  Z"/>

<path  fill="#CBC9CC" stroke-width="0" stroke="#CBC9CC" d = " M370 143 C370,144.93 371.93,143 370,143  Z"/>

<path  fill="#F0F080" stroke-width="0" stroke="#F0F080" d = " M188 153 C186.394,153 183.661,150.919 181.5,152 L172,155 C172,150.98 188,146.991 188,153  Z"/>

<path  fill="#F0F080" stroke-width="0" stroke="#F0F080" d = " M268 153 C269.804,153 273.136,150.818 275.5,152 277.147,152.823 282.402,155 284,155 284,150.98 268,146.991 268,153  Z"/>

<path  fill="#CBC9C8" stroke-width="0" stroke="#CBC9C8" d = " M164 164 C162.952,164 161,163.527 161,165 161,165 159,164 159,164 159,161.611 169.923,155 172,155 172,155 181.5,152 181.5,152 183.661,150.919 186.394,153 188,153 190.343,153 192,153.285 192,156 192,156 191,156 191,156 188.45,156 173,156.687 173,161 173,161 171,161 171,161 171,161 169,162 169,162 169,162 168,162 168,162 168,162 167,163 167,163 167,163 164,164 164,164  Z"/>

<path  fill="#CBC9C8" stroke-width="0" stroke="#CBC9C8" d = " M293 164 C294.137,164 297,166.091 297,164 297,160.923 286.89,155 284,155 282.402,155 277.147,152.823 275.5,152 273.136,150.818 269.804,153 268,153 265.959,153 265,153.959 265,156 265,156 271.5,155 271.5,155 271.5,155 285,161 285,161 285,161 287,162 287,162 287,162 288,162 288,162 288,162 289,163 289,163 289,163 291,163 291,163 291,163 292,164 292,164 292,164 293,164 293,164  Z"/>

<path  fill="#FFAD6D" stroke-width="0" stroke="#FFAD6D" d = " M176 168 L178,170 C187.174,170 193,170.65 193,158 193,158 192,157 192,157 192,157 191,156 191,156 188.45,156 173,156.687 173,161 177.013,161 182.705,156.102 186.5,158 194.295,161.897 179.67,165 177,165 177,165 176,168 176,168  Z"/>

<path  fill="#FFAD6D" stroke-width="0" stroke="#FFAD6D" d = " M277 171 L278,171 C278,171 279,170 279,170 279,170 281,168 281,168 281,168 279,165 279,165 275.701,165 263.128,161.686 270.5,158 274.549,155.975 280.825,162 285,162 285,162 285,161 285,161 285,161 271.5,155 271.5,155 271.5,155 265,156 265,156 265,156 264,157 264,157 264,157 263,158 263,158 263,158 263,159 263,159 263,164.362 267.352,171 273,171 273,171 274,171 274,171 274,171 277,171 277,171  Z"/>

<path  fill="#FF9B88" stroke-width="0" stroke="#FF9B88" d = " M192 156 L192,157 C192,157 191,156 191,156 191,156 192,156 192,156  Z"/>

<path  fill="#F0F080" stroke-width="0" stroke="#F0F080" d = " M197 159 L197,161 C197,161 194,158 194,158 194,158 195,157 195,157 195,157 197,159 197,159  Z"/>

<path  fill="#F0F080" stroke-width="0" stroke="#F0F080" d = " M259 160 L260,161 C261.481,161 260.785,159 263,159 263,159 263,158 263,158 263,158 261,157 261,157 261,157 259,160 259,160  Z"/>

<path  fill="#FF9B88" stroke-width="0" stroke="#FF9B88" d = " M264 157 L263,158 C263,158 264,157 264,157  Z"/>

<path  fill="#CBC9CB" stroke-width="0" stroke="#CBC9CB" d = " M157 172 L159,173 C159,173 166,170 166,170 166,170 167,169 167,169 167,169 168,169 168,169 168,169 170,168 170,168 170,166.527 171.952,167 173,167 173,167 177,165 177,165 179.67,165 194.295,161.897 186.5,158 182.705,156.102 177.013,161 173,161 173,161 171,162 171,162 171,162 169,162 169,162 169,162 168,162 168,162 168,162 167,163 167,163 167,163 164,164 164,164 164,165.473 162.048,165 161,165 161,166.843 157,167.567 157,172  Z"/>

<path  fill="#FF9B88" stroke-width="0" stroke="#FF9B88" d = " M179 172 C186.302,172 192.503,174.001 198.5,177 L205,182 C205,182 199,174.5 199,174.5 199,174.5 199.5,169 199.5,169 199.5,169 203,170 203,170 203,167.835 197,165.432 197,161 197,161 194,158 194,158 194,158 193,158 193,158 193,170.65 187.174,170 178,170 178,170 178,171 178,171 178,171 179,172 179,172  Z"/>

<path  fill="#CBC9CB" stroke-width="0" stroke="#CBC9CB" d = " M299 172 L298,173 C295.517,173 293.974,171 292,171 292,171 291,170 291,170 291,170 290,170 290,170 290,170 289,169 289,169 289,169 288,169 288,169 288,169 284,167 284,167 284,165.986 280.041,165 279,165 275.701,165 263.128,161.686 270.5,158 274.549,155.975 280.825,162 285,162 285,162 287,162 287,162 287,162 288,162 288,162 288,162 289,163 289,163 289,163 291,163 291,163 291,163 292,164 292,164 292,164 293,164 293,164 293,165.956 299,165.416 299,172  Z"/>

<path  fill="#AAA9A7" stroke-width="0" stroke="#AAA9A7" d = " M226 203 C227.375,203 228.625,203 230,203 231.473,203 231,201.048 231,200 231,192.143 228.655,179.423 237.5,175 237.5,175 246.5,173 246.5,173 246.5,173 254,170 254,170 254,166.689 260,165.19 260,161 260,161 259,160 259,160 254.742,160 250.693,165 246,165 243.346,165 240.725,165.888 238.5,167 232.367,170.066 215.927,165 210,165 205.607,165 200.816,159 197,159 197,159 197,161 197,161 197,165.432 203,167.835 203,170 203,170 209.5,173 209.5,173 212.053,174.276 215.884,173.692 218.5,175 225.67,178.585 226,188.082 226,195 226,195 226,203 226,203  Z"/>

<path  fill="#FF9B88" stroke-width="0" stroke="#FF9B88" d = " M273 171 C273,172.646 263.103,174.199 261.5,175 L253,181 C253,176.934 264.478,170 254,170 254,166.689 260,165.19 260,161 261.481,161 260.785,159 263,159 263,164.362 267.352,171 273,171  Z"/>

<path  fill="#FFFDBB" stroke-width="0" stroke="#FFFDBB" d = " M125 160 C125,162.62 119.936,171.629 119,173.5 117.513,176.474 118.221,188.139 124.5,185 128.779,182.86 137.598,160 125,160  Z"/>

<path  fill="#FFFDBB" stroke-width="0" stroke="#FFFDBB" d = " M328 160 L325,162.5 C324.099,164.303 325,166.817 325,168 325,170.483 327,172.026 327,174 327,180.719 333.866,190.768 339,180.5 340.596,177.307 336.151,173.803 335,171.5 333.59,168.681 334.453,164.406 333,161.5 332.36,160.22 329.4,160 328,160  Z"/>

<path  fill="#F0F080" stroke-width="0" stroke="#F0F080" d = " M169 162 L171,162 C171,162 171,161 171,161 171,161 169,162 169,162  Z"/>

<path  fill="#FFAD6D" stroke-width="0" stroke="#FFAD6D" d = " M173 161 L171,162 C171,162 171,161 171,161 171,161 173,161 173,161  Z"/>

<path  fill="#F0F080" stroke-width="0" stroke="#F0F080" d = " M285 162 L287,162 C287,162 285,161 285,161 285,161 285,162 285,162  Z"/>

<path  fill="#FFFC8D" stroke-width="0" stroke="#FFFC8D" d = " M122 189 C115.512,189 115.981,193.759 109.5,197 101.255,201.122 93.6489,206.926 85.5,211 82.3088,212.596 79.1773,219.855 81,223.5 83.4898,228.48 86.4777,233.455 89,238.5 L93,241 C90.5147,241 89.8312,248.838 89,250.5 86.3059,255.888 78.9262,258.787 74.5,261 68.1092,264.195 55.7315,256.963 53,251.5 53,251.5 47,241.5 47,241.5 44.0417,235.583 41.6726,208.155 45,201.5 49.6576,192.185 57.4428,183.529 66.5,179 69.1704,177.665 77.5089,178.482 79,175.5 79,175.5 80,168.5 80,168.5 81.4055,165.689 89,164.759 89,163 90.1452,163 93,163.579 93,162 94.5211,162 103,163.214 103,165 103,169.839 109,173.068 109,177 109,182.178 99.667,180.416 96.5,182 90.6515,184.924 69.6408,198.218 67,203.5 65.1843,207.131 65.7571,211.986 64,215.5 62.6754,218.149 62.6462,221.792 64,224.5 65.9242,228.348 67,217.374 67,215 67,211.385 72.3579,206.142 75,203.5 83.949,194.551 98.6518,190.424 109.5,185 113.29,183.105 122,183.97 122,189  Z"/>

<path  fill="#F0F080" stroke-width="0" stroke="#F0F080" d = " M168 162 L167,163 C167,163 168,162 168,162  Z"/>

<path  fill="#F0F080" stroke-width="0" stroke="#F0F080" d = " M288 162 L289,163 C289,163 288,162 288,162  Z"/>

<path  fill="#FFFC8D" stroke-width="0" stroke="#FFFC8D" d = " M335 188 C339.949,188 341.426,193.963 345.5,196 352.612,199.556 380.273,213.954 375,224.5 L369,236.5 L364,241 C364.562,241 368.317,251.135 369,252.5 371.044,256.588 378.06,258.78 382.5,261 389.686,264.593 398.155,256.345 402.5,252 410.218,244.282 417.716,214.932 412,203.5 408.884,197.267 404.033,186.766 396.5,183 394.028,181.764 377.537,175.573 377,174.5 377,174.5 377,169.5 377,169.5 375.72,166.941 367,163.805 367,163 365.855,163 363,163.579 363,162 359.715,162 355.84,165 353,165 353,167.636 348.518,177 347,177 347,181.039 358.949,181.724 361.5,183 361.5,183 365.5,187 365.5,187 375.033,191.766 385.675,195.849 391,206.5 391,206.5 392,212.5 392,212.5 393.65,215.801 393.648,222.203 392,225.5 391.174,227.151 390.304,220.108 390,219.5 387.336,214.173 387.777,209.277 383,204.5 373.387,194.887 358.065,190.783 346.5,185 343.787,183.643 335,184.013 335,188  Z"/>

<path  fill="#F0F080" stroke-width="0" stroke="#F0F080" d = " M291 163 L292,164 C292,164 291,163 291,163  Z"/>

<path  fill="#F0F080" stroke-width="0" stroke="#F0F080" d = " M157 172 C154.623,172 150.946,175 149,175 149,175 149,172 149,172 149,172 159,164 159,164 159,164 161,165 161,165 161,166.843 157,167.567 157,172  Z"/>

<path  fill="#F0F080" stroke-width="0" stroke="#F0F080" d = " M164 164 C162.952,164 161,163.527 161,165 162.048,165 164,165.473 164,164  Z"/>

<path  fill="#FEFA91" stroke-width="0" stroke="#FEFA91" d = " M210 165 C215.927,165 232.367,170.066 238.5,167 240.725,165.888 243.346,165 246,165 246,163.3 240.863,164 239.5,164 239.5,164 217.5,164 217.5,164 216.052,164 210,163.275 210,165  Z"/>

<path  fill="#F0F080" stroke-width="0" stroke="#F0F080" d = " M307 172 L307,175 C304.804,175 301.748,172 299,172 299,165.416 293,165.956 293,164 294.137,164 297,166.091 297,164 297,164 307,172 307,172  Z"/>

<path  fill="#FFF990" stroke-width="0" stroke="#FFF990" d = " M103 165 C108.828,165 114.745,177 109,177 109,173.068 103,169.839 103,165  Z"/>

<path  fill="#FF9B88" stroke-width="0" stroke="#FF9B88" d = " M174 168 L176,168 C176,168 177,165 177,165 177,165 173,167 173,167 173,167 174,168 174,168  Z"/>

<path  fill="#FF9B88" stroke-width="0" stroke="#FF9B88" d = " M283 167 L284,167 C284,165.986 280.041,165 279,165 279,165 281,168 281,168 281,168 283,167 283,167  Z"/>

<path  fill="#FFF990" stroke-width="0" stroke="#FFF990" d = " M353 165 C347.931,165 341.247,177 347,177 348.518,177 353,167.636 353,165  Z"/>

<path  fill="#FF9BCD" stroke-width="0" stroke="#FF9BCD" d = " M170 168 L174,168 C174,168 173,167 173,167 171.952,167 170,166.527 170,168  Z"/>

<path  fill="#FDB3D6" stroke-width="0" stroke="#FDB3D6" d = " M290 184 L292,185 C295.122,185 303,188.601 303,182 303,182 304,181 304,181 304,177.224 302.385,173 298,173 295.517,173 293.974,171 292,171 292,171 291,170 291,170 291,170 290,170 290,170 290,170 289,169 289,169 289,169 288,169 288,169 286.959,169 283,168.014 283,167 283,167 281,168 281,168 281,168 279,170 279,170 279,170 279,171 279,171 279,171 279,172 279,172 279,172 290,184 290,184  Z"/>

<path  fill="#FF9BCD" stroke-width="0" stroke="#FF9BCD" d = " M284 167 L288,169 C286.959,169 283,168.014 283,167 283,167 284,167 284,167  Z"/>

<path  fill="#FF9BCD" stroke-width="0" stroke="#FF9BCD" d = " M170 168 L168,169 C168,169 170,168 170,168  Z"/>

<path  fill="#FDB3D6" stroke-width="0" stroke="#FDB3D6" d = " M167 184 L164,185 C161.656,185 153,188.186 153,182 153,177.566 153.579,173 159,173 159,173 166,170 166,170 166,170 167,169 167,169 167,169 168,169 168,169 168,169 170,168 170,168 170,168 174,168 174,168 174,168 176,168 176,168 176,168 178,170 178,170 178,170 178,171 178,171 178,171 177,173 177,173 177,173 176,174 176,174 176,174 167,184 167,184  Z"/>

<path  fill="#C9C9C8" stroke-width="0" stroke="#C9C9C8" d = " M132 192 L132,194 C134.42,194 131.477,207 135.5,207 135.5,207 145,191 145,191 145,191 146,189 146,189 146,189 147,188 147,188 147,188 147,186 147,186 147,186 148,185 148,185 148,185 148,184 148,184 148,184 149,183 149,183 149,183 149,175 149,175 149,175 149,172 149,172 146.752,172 143.068,167.716 140.5,169 133.16,172.67 131,179.791 131,188 131,188 131,190 131,190 131,190 132,192 132,192  Z"/>

<path  fill="#FF9BCD" stroke-width="0" stroke="#FF9BCD" d = " M167 169 L166,170 C166,170 167,169 167,169  Z"/>

<path  fill-rule="evenodd" fill="#FFBA84" stroke-width="0" stroke="#FFBA84" d = " M213 193 L212,196.5 C219.042,210.584 229.386,193 213,193  M214 205 L217,205 C221.237,205 223.094,204.312 225,200.5 225.619,199.262 223.856,195 226,195 226,188.082 225.67,178.585 218.5,175 215.884,173.692 212.053,174.276 209.5,173 209.5,173 203,170 203,170 203,170 199.5,169 199.5,169 199.5,169 199,174.5 199,174.5 199,174.5 205,182 205,182 205,182 208,192 208,192 208.486,192 213,203.821 213,205 213,205 214,205 214,205  Z"/>

<path  fill-rule="evenodd" fill="#FFBA84" stroke-width="0" stroke="#FFBA84" d = " M240 193 C240,193.835 234.864,196.772 234,198.5 233.147,200.207 236.143,202.678 237.5,202 241.054,200.223 249.78,193 240,193  M239 186 C239,187.93 240.93,186 239,186  M239 205 L243,205 C243,203.346 246.155,198.189 247,196.5 247.523,195.454 246.049,193 248,193 248,193 251,183 251,183 251,183 252,182 252,182 252,182 253,181 253,181 253,176.934 264.478,170 254,170 254,170 246.5,173 246.5,173 246.5,173 237.5,175 237.5,175 228.655,179.423 231,192.143 231,200 231.654,200 233.358,205 239,205  Z"/>

<path  fill="#FF9BCD" stroke-width="0" stroke="#FF9BCD" d = " M289 169 L290,170 C290,170 289,169 289,169  Z"/>

<path  fill="#C9C9C8" stroke-width="0" stroke="#C9C9C8" d = " M311 191 C312.771,191 318.051,201.603 319,203.5 319.383,204.265 319.905,207.798 321.5,207 324.135,205.682 322.831,191 325,191 325,191 325,190 325,190 325,190 325,187 325,187 325,180.133 323.877,172.688 316.5,169 313.783,167.642 309.498,172 307,172 307,172 307,175 307,175 307,175 308,183 308,183 308,183 308,184 308,184 308,184 309,185 309,185 309,185 309,187 309,187 310.577,187 311,188.762 311,190 311,190 311,191 311,191  Z"/>

<path  fill="#FF9B88" stroke-width="0" stroke="#FF9B88" d = " M278 171 L279,171 C279,171 279,170 279,170 279,170 278,171 278,171  Z"/>

<path  fill="#FF9BCD" stroke-width="0" stroke="#FF9BCD" d = " M291 170 L292,171 C292,171 291,170 291,170  Z"/>

<path  fill="#FF9BCD" stroke-width="0" stroke="#FF9BCD" d = " M179 172 L177,173 C177,173 178,171 178,171 178,171 179,172 179,172  Z"/>

<path  fill="#FFB0D7" stroke-width="0" stroke="#FFB0D7" d = " M275 209 L285,209 C285,209 295.5,209 295.5,209 295.5,209 298,207 298,207 298,199.654 291,194.234 291,186 291,186 290,184 290,184 290,184 279,172 279,172 279,172 277,172 277,172 275.952,172 274,172.473 274,171 274,171 273,171 273,171 273,172.646 263.103,174.199 261.5,175 261.5,175 253,181 253,181 253,181 252,182 252,182 252,182 251,183 251,183 251,183 248,193 248,193 248,193 249,199 249,199 249,199 252,201 252,201 254.25,201 255.376,203 257,203 257,203 266.5,209 266.5,209 266.5,209 275,209 275,209  Z"/>

<path  fill="#FF9B88" stroke-width="0" stroke="#FF9B88" d = " M277 171 L277,172 C275.952,172 274,172.473 274,171 274,171 277,171 277,171  Z"/>

<path  fill="#FF9BCD" stroke-width="0" stroke="#FF9BCD" d = " M277 172 L279,172 C279,172 279,171 279,171 279,171 278,171 278,171 278,171 277,171 277,171 277,171 277,172 277,172  Z"/>

<path  fill="#FF9BCD" stroke-width="0" stroke="#FF9BCD" d = " M153 182 C151.326,182 150.674,183 149,183 149,183 149,175 149,175 150.946,175 154.623,172 157,172 157,172 159,173 159,173 153.579,173 153,177.566 153,182  Z"/>

<path  fill="#FFB0D7" stroke-width="0" stroke="#FFB0D7" d = " M171 209 L182,209 C190.163,209 194.579,204 199,204 199,202.923 202.762,201 204,201 204,201 207,199 207,199 207,197.181 208,194.409 208,192 208,192 205,182 205,182 205,182 198.5,177 198.5,177 192.503,174.001 186.302,172 179,172 179,172 177,173 177,173 177,173 176,174 176,174 176,174 167,184 167,184 167,184 165,186 165,186 165,194.585 159,199.185 159,207 159,209.983 168.707,209 171,209  Z"/>

<path  fill="#FF9BCD" stroke-width="0" stroke="#FF9BCD" d = " M304 181 L308,183 C308,183 307,175 307,175 304.804,175 301.748,172 299,172 299,172 298,173 298,173 302.385,173 304,177.224 304,181  Z"/>

<path  fill="#FF9BCD" stroke-width="0" stroke="#FF9BCD" d = " M177 173 L176,174 C176,174 177,173 177,173  Z"/>

<path  fill="#FEB3D7" stroke-width="0" stroke="#FEB3D7" d = " M155 206 L159,207 C159,199.185 165,194.585 165,186 165,186 164,185 164,185 161.656,185 153,188.186 153,182 151.326,182 150.674,183 149,183 149,183 148,184 148,184 148,184 148,185 148,185 148,185 147,186 147,186 147,186 147,188 147,188 147,188 146,189 146,189 146,189 145,191 145,191 145,192.406 144.286,198 146,198 151.042,198 155,200.653 155,206  Z"/>

<path  fill="#FF9B88" stroke-width="0" stroke="#FF9B88" d = " M253 181 L252,182 C252,182 253,181 253,181  Z"/>

<path  fill="#FF9BCD" stroke-width="0" stroke="#FF9BCD" d = " M304 181 L303,182 C303,182 304,181 304,181  Z"/>

<path  fill="#FEB3D7" stroke-width="0" stroke="#FEB3D7" d = " M298 207 L301,207 C301,202.15 305.15,198 310,198 313.14,198 311,192.989 311,191 311,191 311,190 311,190 311,190 309,187 309,187 309,187 309,185 309,185 309,185 308,184 308,184 308,184 308,183 308,183 308,183 304,181 304,181 304,181 303,182 303,182 303,188.601 295.122,185 292,185 292,185 291,186 291,186 291,194.234 298,199.654 298,207  Z"/>

<path  fill="#FF9B88" stroke-width="0" stroke="#FF9B88" d = " M252 182 L251,183 C251,183 252,182 252,182  Z"/>

<path  fill="#FF9BCD" stroke-width="0" stroke="#FF9BCD" d = " M149 183 L148,184 C148,184 149,183 149,183  Z"/>

<path  fill="#FF9BCD" stroke-width="0" stroke="#FF9BCD" d = " M164 185 L165,186 C165,186 167,184 167,184 167,184 164,185 164,185  Z"/>

<path  fill="#FF9BCD" stroke-width="0" stroke="#FF9BCD" d = " M292 185 L291,186 C291,186 290,184 290,184 290,184 292,185 292,185  Z"/>

<path  fill="#FF9BCD" stroke-width="0" stroke="#FF9BCD" d = " M308 184 L309,185 C309,185 308,184 308,184  Z"/>

<path  fill="#FF9BCD" stroke-width="0" stroke="#FF9BCD" d = " M148 185 L147,186 C147,186 148,185 148,185  Z"/>

<path  fill="#FFB984" stroke-width="0" stroke="#FFB984" d = " M239 186 C239,187.93 240.93,186 239,186  Z"/>

<path  fill="#FF9BCD" stroke-width="0" stroke="#FF9BCD" d = " M309 187 C310.577,187 311,188.762 311,190 311,190 309,187 309,187  Z"/>

<path  fill="#F0F080" stroke-width="0" stroke="#F0F080" d = " M326 189 L325,190 C325,190 325,187 325,187 325,187 326,189 326,189  Z"/>

<path  fill="#FEF991" stroke-width="0" stroke="#FEF991" d = " M104 233 C104,237.711 96.8934,241 93,241 93,241 89,238.5 89,238.5 86.4777,233.455 83.4898,228.48 81,223.5 79.1773,219.855 82.3088,212.596 85.5,211 93.6489,206.926 101.255,201.122 109.5,197 115.981,193.759 115.512,189 122,189 122,189 121,195 121,195 121,195 120,197 120,197 120,197 119,199 119,199 119,199 114,205 114,205 114,205 113,207 113,207 111.253,207 111,207.253 111,209 107.951,209 103,217.079 103,219.5 103,220.778 102.335,225 104,225 104,225 104,228 104,228 104,228 104,233 104,233  Z"/>

<path  fill="#F0F080" stroke-width="0" stroke="#F0F080" d = " M130 189 L131,190 C131,190 131,188 131,188 131,188 130,189 130,189  Z"/>

<path  fill="#FF9BCD" stroke-width="0" stroke="#FF9BCD" d = " M147 188 L146,189 C146,189 147,188 147,188  Z"/>

<path  fill="#FEF991" stroke-width="0" stroke="#FEF991" d = " M353 233 C353,238.614 359.263,241 364,241 364,241 369,236.5 369,236.5 369,236.5 375,224.5 375,224.5 380.273,213.954 352.612,199.556 345.5,196 341.426,193.963 339.949,188 335,188 335,191.423 337,194.474 337,197 337,197 342,204 342,204 342,204 343,205 343,205 343,205 343,206 343,206 343,206 353,216.5 353,216.5 353.47,217.439 355.082,223 353,223 353,224.145 353.579,227 352,227 352,227 352,229 352,229 352,229 352,232 352,232 352,232 353,233 353,233  Z"/>

<path  fill="#FEA5D1" stroke-width="0" stroke="#FEA5D1" d = " M132 206 C123.21,206 122.937,224 115,224 115,219.16 112.545,212.41 115,207.5 115,207.5 119,199 119,199 119,199 120,197 120,197 120,197 121,195 121,195 123.802,195 125.211,189 130,189 130,189 131,190 131,190 131,190 132,192 132,192 132,192 132,194 132,194 132,194 132,206 132,206  Z"/>

<path  fill="#FF9BCD" stroke-width="0" stroke="#FF9BCD" d = " M146 189 L145,191 C145,191 146,189 146,189  Z"/>

<path  fill="#FEA5D1" stroke-width="0" stroke="#FEA5D1" d = " M325 207 C333.625,207 333.849,224 341,224 341,220.622 343.904,213.307 342,209.5 342,209.5 336,197 336,197 335.095,197 332.09,189 326,189 326,189 325,190 325,190 325,190 325,191 325,191 325,191 325,207 325,207  Z"/>

<path  fill="#FF9BCD" stroke-width="0" stroke="#FF9BCD" d = " M131 190 L132,192 C132,192 131,190 131,190  Z"/>

<path  fill="#FF9BCD" stroke-width="0" stroke="#FF9BCD" d = " M132 206 L134,211.5 L133,218 C133,218 141,206.5 141,206.5 141,206.5 141,202.5 141,202.5 141.808,200.885 146,198.568 146,198 144.286,198 145,192.406 145,191 145,191 135.5,207 135.5,207 131.477,207 134.42,194 132,194 132,194 132,206 132,206  Z"/>

<path  fill="#FF9BCD" stroke-width="0" stroke="#FF9BCD" d = " M325 207 C321.837,207 323,214.871 323,217 323,217 315,206.5 315,206.5 315,206.5 315,201.5 315,201.5 315,201.5 310,198 310,198 313.14,198 311,192.989 311,191 312.771,191 318.051,201.603 319,203.5 319.383,204.265 319.905,207.798 321.5,207 324.135,205.682 322.831,191 325,191 325,191 325,207 325,207  Z"/>

<path  fill="#FF9B88" stroke-width="0" stroke="#FF9B88" d = " M210 205 L213,205 C213,203.821 208.486,192 208,192 208,194.409 207,197.181 207,199 207,199 207,202 207,202 207,202 209,204 209,204 209,204 210,205 210,205  Z"/>

<path  fill="#FFB986" stroke-width="0" stroke="#FFB986" d = " M213 193 L212,196.5 C219.042,210.584 229.386,193 213,193  Z"/>

<path  fill="#FFB986" stroke-width="0" stroke="#FFB986" d = " M240 193 C240,193.835 234.864,196.772 234,198.5 233.147,200.207 236.143,202.678 237.5,202 241.054,200.223 249.78,193 240,193  Z"/>

<path  fill="#FF9B88" stroke-width="0" stroke="#FF9B88" d = " M244 205 L246,205 C246,205 247,204 247,204 247,204 249,202 249,202 249,202 249,199 249,199 249,199 248,193 248,193 246.049,193 247.523,195.454 247,196.5 246.155,198.189 243,203.346 243,205 243,205 244,205 244,205  Z"/>

<path  fill="#CBC9CC" stroke-width="0" stroke="#CBC9CC" d = " M121 195 L120,197 C120,197 121,195 121,195  Z"/>

<path  fill="#FF9B88" stroke-width="0" stroke="#FF9B88" d = " M217 205 L218,206 C220.789,206 226,206.183 226,203 226,203 226,195 226,195 223.856,195 225.619,199.262 225,200.5 223.094,204.312 221.237,205 217,205  Z"/>

<path  fill="#A9AAA7" stroke-width="0" stroke="#A9AAA7" d = " M120 197 L119,199 C119,199 120,197 120,197  Z"/>

<path  fill="#A9AAA7" stroke-width="0" stroke="#A9AAA7" d = " M341 224 L345,228 C345,226.913 340.64,211.43 343.5,210 343.5,210 346,211 346,211 346,209.053 343,208.364 343,206 343,206 343,205 343,205 343,205 342,204 342,204 342,204 337,197 337,197 337,197 336,197 336,197 336,197 342,209.5 342,209.5 343.904,213.307 341,220.622 341,224  Z"/>

<path  fill="#C9CACB" stroke-width="0" stroke="#C9CACB" d = " M133 235 L133,237 C133,237 131,235 131,235 131,235 131,229 131,229 132.473,229 132,227.048 132,226 132,226 132,223 132,223 133.473,223 133,221.048 133,220 133,220 133,218 133,218 133,218 141,206.5 141,206.5 141,206.5 141,202.5 141,202.5 141.808,200.885 146,198.568 146,198 151.042,198 155,200.653 155,206 155,210.947 152.591,211 148,211 138.936,211 134,226.669 134,234 134,234 133,235 133,235  Z"/>

<path  fill="#C9CACB" stroke-width="0" stroke="#C9CACB" d = " M325 233 C325,235.177 325.641,237 323,237 323,237 323,233 323,233 323,233 322,232 322,232 322,225.236 316.97,211 309,211 305.71,211 301,211.534 301,207 301,202.15 305.15,198 310,198 310,198 315,201.5 315,201.5 315,201.5 315,206.5 315,206.5 315,206.5 323,217 323,217 323,217 323,218 323,218 323,218 324,220 324,220 324,220 324,222 324,222 324,223.048 323.527,225 325,225 325,225 325,233 325,233  Z"/>

<path  fill="#A9AAA7" stroke-width="0" stroke="#A9AAA7" d = " M115 224 L113,226 C113,222.68 114.501,210 111,210 111,210 111,209 111,209 112.747,209 113,208.747 113,207 113,207 114,205 114,205 114,205 119,199 119,199 119,199 115,207.5 115,207.5 112.545,212.41 115,219.16 115,224  Z"/>

<path  fill="#FF9BCD" stroke-width="0" stroke="#FF9BCD" d = " M204 201 L207,202 C207,202 207,199 207,199 207,199 204,201 204,201  Z"/>

<path  fill="#FF9BCD" stroke-width="0" stroke="#FF9BCD" d = " M252 201 L249,202 C249,202 249,199 249,199 249,199 252,201 252,201  Z"/>

<path  fill="#FF9B88" stroke-width="0" stroke="#FF9B88" d = " M239 205 L239,206 C236.655,206 230,206.421 230,203 231.473,203 231,201.048 231,200 231.654,200 233.358,205 239,205  Z"/>

<path  fill="#C9CCC7" stroke-width="0" stroke="#C9CCC7" d = " M213 206 L206,210 C202.581,210 199,207.715 199,204 199,202.923 202.762,201 204,201 204,201 207,202 207,202 207,202 209,204 209,204 209,204 210,205 210,205 210,205 213,205 213,205 213,205 213,206 213,206  Z"/>

<path  fill="#C9CCC7" stroke-width="0" stroke="#C9CCC7" d = " M244 206 L251,210 C255.122,210 257,206.81 257,203 255.376,203 254.25,201 252,201 252,201 249,202 249,202 249,202 247,204 247,204 247,204 246,205 246,205 246,205 244,205 244,205 244,205 244,206 244,206  Z"/>

<path  fill="#FF9BCD" stroke-width="0" stroke="#FF9BCD" d = " M227 217 C228.333,217 228.667,217 230,217 230,217 230,208.5 230,208.5 230.589,207.321 234.184,205.868 235,207.5 235.002,207.503 232,212.869 232,215 232,215 234.5,213 234.5,213 238.286,211.107 247.51,214.505 250.5,216 251.819,216.659 256,215.666 256,218 256,218 259.5,215 259.5,215 259.5,215 269,214 269,214 269,211.059 275,210.371 275,209 275,209 266.5,209 266.5,209 266.5,209 257,203 257,203 257,206.81 255.122,210 251,210 251,214.763 239,214.763 239,206 236.655,206 230,206.421 230,203 228.625,203 227.375,203 226,203 226,206.183 220.789,206 218,206 218,209.333 215,210.487 215,213 219.713,213 224.865,216 225,216 225,216 224,210.5 224,210.5 224,210.5 221,207.5 221,207.5 221,207.5 226,207.5 226,207.5 227.372,210.245 227,213.69 227,217  Z"/>

<path  fill="#FF9BCD" stroke-width="0" stroke="#FF9BCD" d = " M211 214 C211,216.064 207.647,214.426 206.5,215 L200,218 C200,214.665 189.421,214 187,214 187,210.552 182,211.09 182,209 190.163,209 194.579,204 199,204 199,207.715 202.581,210 206,210 206,213.894 211,212.073 211,214  Z"/>

<path  fill="#FF9BCD" stroke-width="0" stroke="#FF9BCD" d = " M209 204 L210,205 C210,205 209,204 209,204  Z"/>

<path  fill="#FF9BCD" stroke-width="0" stroke="#FF9BCD" d = " M247 204 L246,205 C246,205 247,204 247,204  Z"/>

<path  fill="#CBC9CC" stroke-width="0" stroke="#CBC9CC" d = " M342 204 L343,205 C343,205 342,204 342,204  Z"/>

<path  fill="#CBC9CC" stroke-width="0" stroke="#CBC9CC" d = " M114 205 L113,207 C113,207 114,205 114,205  Z"/>

<path  fill="#FF9BCD" stroke-width="0" stroke="#FF9BCD" d = " M214 205 L213,206 C213,206 213,205 213,205 213,205 214,205 214,205  Z"/>

<path  fill="#FDB1D9" stroke-width="0" stroke="#FDB1D9" d = " M211 214 L212,214 C212,214 214,213 214,213 214,213 215,213 215,213 215,210.487 218,209.333 218,206 218,206 217,205 217,205 217,205 214,205 214,205 214,205 213,206 213,206 213,206 206,210 206,210 206,213.894 211,212.073 211,214  Z"/>

<path  fill="#FDB1D9" stroke-width="0" stroke="#FDB1D9" d = " M244 206 L251,210 C251,214.763 239,214.763 239,206 239,206 239,205 239,205 239,205 243,205 243,205 243,205 244,206 244,206  Z"/>

<path  fill="#FF9BCD" stroke-width="0" stroke="#FF9BCD" d = " M244 205 L244,206 C244,206 243,205 243,205 243,205 244,205 244,205  Z"/>

<path  fill="#FEA4D2" stroke-width="0" stroke="#FEA4D2" d = " M121 253 L121,255 C123.509,255 123.553,260.973 127.5,259 131.846,256.827 131,239.531 131,235 131,235 131,229 131,229 131,227.952 130.527,226 132,226 132,226 132,223 132,223 132,221.952 131.527,220 133,220 133,220 133,218 133,218 133,218 134,211.5 134,211.5 134,211.5 132,206 132,206 123.21,206 122.937,224 115,224 115,224 113,226 113,226 113,226 112,227 112,227 112,227 112,228 112,228 112,228 111,229 111,229 111,229 111,231 111,231 111,231 111,232 111,232 111,232 111,234 111,234 111,234 113,236 113,236 113,236 118,247 118,247 118,247 119,248 119,248 119,248 119,250 119,250 119,250 120,251 120,251 120,251 120,252 120,252 120,252 121,253 121,253  Z"/>

<path  fill="#FF9BCD" stroke-width="0" stroke="#FF9BCD" d = " M166 215 L164.5,212 C162.873,211.186 157.611,209.944 155.5,211 151.648,212.926 148.778,215.945 147,219.5 146.443,220.614 146.59,225 145,225 145,219.844 148,216.054 148,211 152.591,211 155,210.947 155,206 155,206 159,207 159,207 159,209.983 168.707,209 171,209 171,210.892 166,211.306 166,215  Z"/>

<path  fill="#CBC9CC" stroke-width="0" stroke="#CBC9CC" d = " M353 221 L353,223 C355.082,223 353.47,217.439 353,216.5 353,216.5 343,206 343,206 343,208.364 346,209.053 346,211 346,211 348,213 348,213 348,213 349,214 349,214 349,214 350,216 350,216 350,216 351,217 351,217 351,217 351,218 351,218 351,218 352,219 352,219 352,219 352,220 352,220 352,220 353,221 353,221  Z"/>

<path  fill="#CBC9CC" stroke-width="0" stroke="#CBC9CC" d = " M113 207 C111.253,207 111,207.253 111,209 112.747,209 113,208.747 113,207  Z"/>

<path  fill="#CBCBCC" stroke-width="0" stroke="#CBCBCC" d = " M225 216 C225,218.082 227,220.219 227,217 227,213.69 227.372,210.245 226,207.5 226,207.5 221,207.5 221,207.5 221,207.5 224,210.5 224,210.5 224,210.5 225,216 225,216  Z"/>

<path  fill="#CBCBCC" stroke-width="0" stroke="#CBCBCC" d = " M231 216 C231,218.079 230,220.177 230,217 230,217 230,208.5 230,208.5 230.589,207.321 234.184,205.868 235,207.5 235.002,207.503 232,212.869 232,215 232,215 231,216 231,216  Z"/>

<path  fill="#FF9BCD" stroke-width="0" stroke="#FF9BCD" d = " M291 214 C291,208.05 302.573,212.037 304.5,213 307.41,214.455 309.282,223 311,223 311,218.525 309,215.775 309,211 305.71,211 301,211.534 301,207 301,207 298,207 298,207 298,207 295.5,209 295.5,209 295.5,209 285,209 285,209 285,209 288,210.5 288,210.5 288,210.5 291,214 291,214  Z"/>

<path  fill="#FEA4D2" stroke-width="0" stroke="#FEA4D2" d = " M335 255 L335,256 C332.894,256 329.434,262.368 327,257.5 327,257.5 326,239 326,239 326,237.679 326.684,233 325,233 325,233 325,225 325,225 325,223.952 325.473,222 324,222 324,222 324,220 324,220 324,220 323,218 323,218 323,218 323,217 323,217 323,214.871 321.837,207 325,207 333.625,207 333.849,224 341,224 341,224 345,228 345,228 345,228 345,230 345,230 345,230 345,231 345,231 345,231 345,233 345,233 345,237.71 337,245.151 337,251 337,251 336,252 336,252 336,252 336,253 336,253 336,253 335,255 335,255  Z"/>

<path  fill="#CBC9CC" stroke-width="0" stroke="#CBC9CC" d = " M111 210 C111,212.924 104,217.892 104,225 102.335,225 103,220.778 103,219.5 103,217.079 107.951,209 111,209 111,209 111,210 111,210  Z"/>

<path  fill="#FCB3D9" stroke-width="0" stroke="#FCB3D9" d = " M153 261 L156,263 C156,259.348 161.85,256 165,256 165,256 174,246.5 174,246.5 177.768,238.965 187,222.228 187,214 187,210.552 182,211.09 182,209 182,209 171,209 171,209 171,210.892 166,211.306 166,215 166,226.694 160.723,230.055 156,239.5 153.638,244.224 157.318,251.864 155,256.5 155,256.5 153,261 153,261  Z"/>

<path  fill="#FCB3D9" stroke-width="0" stroke="#FCB3D9" d = " M302 262 L301,263 C298.191,263 296.384,256 292,256 292,256 283,247.5 283,247.5 279.834,241.168 269,220.206 269,214 269,211.059 275,210.371 275,209 275,209 285,209 285,209 285,209 288,210.5 288,210.5 288,210.5 291,214 291,214 291,219.85 290.585,225.671 293,230.5 293,230.5 300,238.5 300,238.5 300.452,239.403 303,259.617 303,261 303,261 302,262 302,262  Z"/>

<path  fill="#A9AAA8" stroke-width="0" stroke="#A9AAA8" d = " M111 229 L111,231 C111,231 106.5,232 106.5,232 106.5,232 104,228 104,228 104,228 104,225 104,225 104,217.892 111,212.924 111,210 114.501,210 113,222.68 113,226 113,226 112,227 112,227 112,227 112,228 112,228 112,228 111,229 111,229  Z"/>

<path  fill="#A9AAA8" stroke-width="0" stroke="#A9AAA8" d = " M352 229 L349.5,232 C347.384,233.058 346.602,230 345,230 345,230 345,228 345,228 345,226.913 340.64,211.43 343.5,210 343.5,210 346,211 346,211 346,211 348,213 348,213 348,213 349,214 349,214 349,214 350,216 350,216 350,216 351,217 351,217 351,217 351,218 351,218 351,218 352,219 352,219 352,219 352,220 352,220 352,220 353,221 353,221 353,221 353,223 353,223 351.421,223 352,225.855 352,227 352,227 352,229 352,229  Z"/>

<path  fill="#C8CACA" stroke-width="0" stroke="#C8CACA" d = " M151 267 C151,269.409 150,272.181 150,274 137.819,274 132,262.756 132,251.5 132,251.5 131,247.5 131,247.5 132.418,244.663 133,240.331 133,237 133,237 133,235 133,235 133,235 134,234 134,234 134,226.669 138.936,211 148,211 148,216.054 145,219.844 145,225 142.82,225 136.403,246.306 139,251.5 139.769,253.038 137.774,257 141,257 141,257 141,258 141,258 141,261.085 148.228,267 151,267  Z"/>

<path  fill="#FFA4D0" stroke-width="0" stroke="#FFA4D0" d = " M141 258 L146.5,263 C149.356,264.428 151.053,261 153,261 153,261 155,256.5 155,256.5 157.318,251.864 153.638,244.224 156,239.5 160.723,230.055 166,226.694 166,215 166,215 164.5,212 164.5,212 162.873,211.186 157.611,209.944 155.5,211 151.648,212.926 148.778,215.945 147,219.5 146.443,220.614 146.59,225 145,225 145,230.489 142.373,238.754 140,243.5 138.161,247.178 141,253.596 141,257 141,257 141,258 141,258  Z"/>

<path  fill="#FFA4D0" stroke-width="0" stroke="#FFA4D0" d = " M313 261 L311,263 C307.985,263 304.996,261 303,261 303,259.617 300.452,239.403 300,238.5 300,238.5 293,230.5 293,230.5 290.585,225.671 291,219.85 291,214 291,208.05 302.573,212.037 304.5,213 307.41,214.455 309.282,223 311,223 311,223 311,224 311,224 311,230.125 314.32,240.139 317,245.5 318.792,249.085 315,254.479 315,258 315,258 315,259 315,259 315,259 314,260 314,260 314,260 313,261 313,261  Z"/>

<path  fill="#C8CACA" stroke-width="0" stroke="#C8CACA" d = " M317 271 C313.597,271 311.048,274 307,274 307,271.861 306,269.967 306,267 306,267 311,263 311,263 312.747,263 313,262.747 313,261 313,261 314,260 314,260 314,260 315,259 315,259 315,259 315,258 315,258 317.954,258 318,251.179 318,249 318,249 319,243.5 319,243.5 316.589,238.678 315.399,233.299 313,228.5 312.535,227.57 312.183,224 311,224 311,224 311,223 311,223 311,218.525 309,215.775 309,211 316.97,211 322,225.236 322,232 322,232 323,233 323,233 323,233 323,237 323,237 323,241.798 327.834,250.832 325,256.5 324.205,258.089 317,270.773 317,271  Z"/>

<path  fill="#FF9BCD" stroke-width="0" stroke="#FF9BCD" d = " M214 213 L212,214 C212,214 214,213 214,213  Z"/>

<path  fill-rule="evenodd" fill="#FEB0D8" stroke-width="0" stroke="#FEB0D8" d = " M232 227 C232,228.076 226.013,250 232.5,250 234.549,250 234,245.663 234,244.5 234,241.054 235.523,227 232,227  M223 227 L222,235.5 L222,242 C222,259.863 229.994,239.489 226,231.5 225.007,229.514 226.084,227 223,227  M253 272 L254,272 C254,265.965 259.929,271 262,271 262,271 265,265 265,265 265,260.485 262.911,255.322 261,251.5 260.041,249.582 256,221.283 256,218 256,215.666 251.819,216.659 250.5,216 247.51,214.505 238.286,211.107 234.5,213 234.5,213 232,215 232,215 232,215 231,216 231,216 231,218.079 230,220.177 230,217 228.667,217 228.333,217 227,217 227,220.219 225,218.082 225,216 224.865,216 219.713,213 215,213 215,213 214,213 214,213 214,213 212,214 212,214 212,214 211,214 211,214 211,216.064 207.647,214.426 206.5,215 206.5,215 200,218 200,218 200,233.98 192,252.652 192,266 192,267.974 194,269.517 194,272 194.227,272 203,264.881 203,272 203,272 209.5,265 209.5,265 215.084,262.208 219.295,261 225,261 225,261 226,261 226,261 226,246.718 231,251.423 231,262 231,262 233.5,260 233.5,260 237.177,260 253,267.289 253,272  Z"/>

<path  fill="#A9AAA7" stroke-width="0" stroke="#A9AAA7" d = " M348 213 L349,214 C349,214 348,213 348,213  Z"/>

<path  fill="#FFB2D8" stroke-width="0" stroke="#FFB2D8" d = " M165 256 C171.266,256 179.199,257.35 184.5,260 187.11,261.305 189.314,266 192,266 192,252.652 200,233.98 200,218 200,214.665 189.421,214 187,214 187,222.228 177.768,238.965 174,246.5 174,246.5 165,256 165,256  Z"/>

<path  fill="#FFB2D8" stroke-width="0" stroke="#FFB2D8" d = " M292 256 C286.446,256 278.231,256.635 273.5,259 270.563,260.469 267.717,265 265,265 265,260.485 262.911,255.322 261,251.5 260.041,249.582 256,221.283 256,218 256,218 259.5,215 259.5,215 259.5,215 269,214 269,214 269,220.206 279.834,241.168 283,247.5 283,247.5 292,256 292,256  Z"/>

<path  fill="#FF9BCD" stroke-width="0" stroke="#FF9BCD" d = " M232 215 L231,216 C231,216 232,215 232,215  Z"/>

<path  fill="#A9AAA7" stroke-width="0" stroke="#A9AAA7" d = " M350 216 L351,217 C351,217 350,216 350,216  Z"/>

<path  fill="#FF9BCD" stroke-width="0" stroke="#FF9BCD" d = " M323 218 L324,220 C324,220 323,218 323,218  Z"/>

<path  fill="#A9AAA7" stroke-width="0" stroke="#A9AAA7" d = " M351 218 L352,219 C352,219 351,218 351,218  Z"/>

<path  fill="#FF9BCD" stroke-width="0" stroke="#FF9BCD" d = " M133 220 C131.527,220 132,221.952 132,223 133.473,223 133,221.048 133,220  Z"/>

<path  fill="#A9AAA7" stroke-width="0" stroke="#A9AAA7" d = " M352 220 L353,221 C353,221 352,220 352,220  Z"/>

<path  fill="#FF9BCD" stroke-width="0" stroke="#FF9BCD" d = " M324 222 C325.473,222 325,223.952 325,225 323.527,225 324,223.048 324,222  Z"/>

<path  fill="#A9AAA7" stroke-width="0" stroke="#A9AAA7" d = " M353 223 C351.421,223 352,225.855 352,227 353.579,227 353,224.145 353,223  Z"/>

<path  fill="#FF9BCD" stroke-width="0" stroke="#FF9BCD" d = " M311 224 C312.183,224 312.535,227.57 313,228.5 315.399,233.299 316.589,238.678 319,243.5 L318,249 C318,251.179 317.954,258 315,258 315,254.479 318.792,249.085 317,245.5 314.32,240.139 311,230.125 311,224  Z"/>

<path  fill="#FF9BCD" stroke-width="0" stroke="#FF9BCD" d = " M145 225 C142.82,225 136.403,246.306 139,251.5 139.769,253.038 137.774,257 141,257 141,253.596 138.161,247.178 140,243.5 142.373,238.754 145,230.489 145,225  Z"/>

<path  fill="#A9AAA7" stroke-width="0" stroke="#A9AAA7" d = " M113 226 L112,227 C112,227 113,226 113,226  Z"/>

<path  fill="#FF9BCD" stroke-width="0" stroke="#FF9BCD" d = " M132 226 C130.527,226 131,227.952 131,229 132.473,229 132,227.048 132,226  Z"/>

<path  fill="#C8C8CC" stroke-width="0" stroke="#C8C8CC" d = " M223 227 L222,235.5 L222,242 C222,259.863 229.994,239.489 226,231.5 225.007,229.514 226.084,227 223,227  Z"/>

<path  fill="#C8C8CC" stroke-width="0" stroke="#C8C8CC" d = " M232 227 C232,228.076 226.013,250 232.5,250 234.549,250 234,245.663 234,244.5 234,241.054 235.523,227 232,227  Z"/>

<path  fill="#A9AAA7" stroke-width="0" stroke="#A9AAA7" d = " M111 232 C109.181,232 106.409,233 104,233 104,233 104,228 104,228 104,228 106.5,232 106.5,232 106.5,232 111,231 111,231 111,231 111,232 111,232  Z"/>

<path  fill="#A9AAA7" stroke-width="0" stroke="#A9AAA7" d = " M112 228 L111,229 C111,229 112,228 112,228  Z"/>

<path  fill="#A9AAA7" stroke-width="0" stroke="#A9AAA7" d = " M346 233 L352,233 C352,233 352,232 352,232 352,232 352,229 352,229 352,229 349.5,232 349.5,232 347.384,233.058 346.602,230 345,230 345,230 345,231 345,231 345,231 346,233 346,233  Z"/>

<path  fill="#FF9BCD" stroke-width="0" stroke="#FF9BCD" d = " M345 233 L346,233 C346,233 345,231 345,231 345,231 345,233 345,233  Z"/>

<path  fill="#FF9BCD" stroke-width="0" stroke="#FF9BCD" d = " M322 232 L323,233 C323,233 322,232 322,232  Z"/>

<path  fill="#F0F080" stroke-width="0" stroke="#F0F080" d = " M352 233 L353,233 C353,233 352,232 352,232 352,232 352,233 352,233  Z"/>

<path  fill="#FF9BCD" stroke-width="0" stroke="#FF9BCD" d = " M335 256 C335,258.485 319.791,271 317,271 317,270.773 324.205,258.089 325,256.5 327.834,250.832 323,241.798 323,237 325.641,237 325,235.177 325,233 326.684,233 326,237.679 326,239 326,239 327,257.5 327,257.5 329.434,262.368 332.894,256 335,256  Z"/>

<path  fill="#FF9BCD" stroke-width="0" stroke="#FF9BCD" d = " M111 234 L113,236 C113,236 111,234 111,234  Z"/>

<path  fill="#FF9BCD" stroke-width="0" stroke="#FF9BCD" d = " M134 234 L133,235 C133,235 134,234 134,234  Z"/>

<path  fill="#FF9BCD" stroke-width="0" stroke="#FF9BCD" d = " M151 276 C151,280.008 156,280.412 156,283 156,283 146.5,276 146.5,276 141.021,273.261 121,260.406 121,255 123.509,255 123.553,260.973 127.5,259 131.846,256.827 131,239.531 131,235 131,235 133,237 133,237 133,240.331 132.418,244.663 131,247.5 131,247.5 132,251.5 132,251.5 132,262.756 137.819,274 150,274 150,274 151,276 151,276  Z"/>

<path  fill="#FF9BCD" stroke-width="0" stroke="#FF9BCD" d = " M118 247 L119,248 C119,248 118,247 118,247  Z"/>

<path  fill="#FF9BCD" stroke-width="0" stroke="#FF9BCD" d = " M119 250 L120,251 C120,251 119,250 119,250  Z"/>

<path  fill="#FFC5E2" stroke-width="0" stroke="#FFC5E2" d = " M230 279 L227,280 C227,280 226,279 226,279 226,279 226,275 226,275 226,275 226,261 226,261 226,246.718 231,251.423 231,262 231,262 231,265 231,265 229.237,265 230,273.343 230,275 230,275 230,279 230,279  Z"/>

<path  fill="#FF9BCD" stroke-width="0" stroke="#FF9BCD" d = " M337 251 L336,252 C336,252 337,251 337,251  Z"/>

<path  fill="#FF9BCD" stroke-width="0" stroke="#FF9BCD" d = " M120 252 L121,253 C121,253 120,252 120,252  Z"/>

<path  fill="#FF9BCD" stroke-width="0" stroke="#FF9BCD" d = " M336 253 L335,255 C335,255 336,253 336,253  Z"/>

<path  fill="#FFB3D6" stroke-width="0" stroke="#FFB3D6" d = " M171 286 C178.395,286 184.172,287 191,287 191,287 194,280 194,280 194,280 194,279 194,279 194,279 194,272 194,272 194,269.517 192,267.974 192,266 189.314,266 187.11,261.305 184.5,260 179.199,257.35 171.266,256 165,256 161.85,256 156,259.348 156,263 156,263 155,264 155,264 155,264 154,268 154,268 154,268 153,269 153,269 153,274.173 153.749,278.624 158.5,281 159.975,281.737 166,282.705 166,285 166,285 167,285 167,285 167,285 169,286 169,286 169,286 171,286 171,286  Z"/>

<path  fill="#FFB3D6" stroke-width="0" stroke="#FFB3D6" d = " M285 286 L288,286 C288,286 289,285 289,285 289,285 290,285 290,285 290,285 301,278.5 301,278.5 304.913,270.675 301,269.776 301,263 298.191,263 296.384,256 292,256 286.446,256 278.231,256.635 273.5,259 270.563,260.469 267.717,265 265,265 265,265 262,271 262,271 262,273.477 262,276.661 262,279 262,279 262,280 262,280 262,280 265,286 265,286 267.395,286 270.263,289.619 273.5,288 277.249,286.126 280.416,286 285,286  Z"/>

<path  fill="#FF9BCD" stroke-width="0" stroke="#FF9BCD" d = " M155 264 C155,261.03 151,265.676 151,267 148.228,267 141,261.085 141,258 141,258 146.5,263 146.5,263 149.356,264.428 151.053,261 153,261 153,261 156,263 156,263 156,263 155,264 155,264  Z"/>

<path  fill="#FF9BCD" stroke-width="0" stroke="#FF9BCD" d = " M315 259 L314,260 C314,260 315,259 315,259  Z"/>

<path  fill="#FDB2D9" stroke-width="0" stroke="#FDB2D9" d = " M201 278 C201,280.424 203,280.76 203,282 209.249,282 214.689,276 220,276 220,276 221,275 221,275 221,275 222,274 222,274 222,274 225,270.5 225,270.5 225,270.5 225,261 225,261 219.295,261 215.084,262.208 209.5,265 209.5,265 203,272 203,272 203,272 203,273 203,273 203,273 202,274 202,274 202,274 201,276 201,276 201,276 201,278 201,278  Z"/>

<path  fill="#FDB2D9" stroke-width="0" stroke="#FDB2D9" d = " M255 278 L254,282 C244.66,282 231,275.677 231,265 231,265 231,262 231,262 231,262 233.5,260 233.5,260 237.177,260 253,267.289 253,272 253,272 254,273 254,273 254,273 255,276 255,276 255,276 255,278 255,278  Z"/>

<path  fill="#FF9BCD" stroke-width="0" stroke="#FF9BCD" d = " M314 260 L313,261 C313,261 314,260 314,260  Z"/>

<path  fill="#FF9BCD" stroke-width="0" stroke="#FF9BCD" d = " M222 274 L226,275 C226,275 226,261 226,261 226,261 225,261 225,261 225,261 225,270.5 225,270.5 225,270.5 222,274 222,274  Z"/>

<path  fill="#FF9BCD" stroke-width="0" stroke="#FF9BCD" d = " M311 263 L306,267 C306,267 302,262 302,262 302,262 303,261 303,261 304.996,261 307.985,263 311,263  Z"/>

<path  fill="#FF9BCD" stroke-width="0" stroke="#FF9BCD" d = " M313 261 L311,263 C312.747,263 313,262.747 313,261  Z"/>

<path  fill="#C8C8CB" stroke-width="0" stroke="#C8C8CB" d = " M304 277 C302.858,277 295.913,285 290,285 290,285 301,278.5 301,278.5 304.913,270.675 301,269.776 301,263 301,263 302,262 302,262 302,262 306,267 306,267 306,269.967 307,271.861 307,274 305.461,274 304,275.342 304,277  Z"/>

<path  fill="#C8C8CB" stroke-width="0" stroke="#C8C8CB" d = " M151 276 C154.136,276 159.143,285 166,285 166,282.705 159.975,281.737 158.5,281 153.749,278.624 153,274.173 153,269 153,269 154,268 154,268 154,268 155,264 155,264 155,261.03 151,265.676 151,267 151,269.409 150,272.181 150,274 150,274 151,276 151,276  Z"/>

<path  fill="#FF9BCD" stroke-width="0" stroke="#FF9BCD" d = " M287 288 C287,289.715 277.038,289.231 275.5,290 267.097,294.201 253.955,295 244,295 244,293.255 250.062,294.376 251,292.5 254.017,286.466 235.189,283 231,283 231,283 231,282 231,282 240.705,282 238.662,275 230,275 230,273.343 229.237,265 231,265 231,275.677 244.66,282 254,282 254,287.074 265,291.916 265,286 267.395,286 270.263,289.619 273.5,288 277.249,286.126 280.416,286 285,286 285,288.159 281,286.061 281,287.5 281,287.5 287,288 287,288  Z"/>

<path  fill="#FF9BCD" stroke-width="0" stroke="#FF9BCD" d = " M154 268 L153,269 C153,269 154,268 154,268  Z"/>

<path  fill="#FCB2D9" stroke-width="0" stroke="#FCB2D9" d = " M194 279 L195,279 C195,279 200,277 200,277 200,277 201,276 201,276 201,276 202,274 202,274 202,274 203,273 203,273 203,273 203,272 203,272 203,264.881 194.227,272 194,272 194,272 194,279 194,279  Z"/>

<path  fill="#FCB2D9" stroke-width="0" stroke="#FCB2D9" d = " M261 279 L262,279 C262,276.661 262,273.477 262,271 259.929,271 254,265.965 254,272 254,272 254,273 254,273 254,273 255,276 255,276 255,276 257,277 257,277 257,277 261,279 261,279  Z"/>

<path  fill="#FF9BCD" stroke-width="0" stroke="#FF9BCD" d = " M304 277 L305,279 C306.919,279 317,273.228 317,271 313.597,271 311.048,274 307,274 305.461,274 304,275.342 304,277  Z"/>

<path  fill="#FF9BCD" stroke-width="0" stroke="#FF9BCD" d = " M254 272 L254,273 C254,273 253,272 253,272 253,272 254,272 254,272  Z"/>

<path  fill="#FF9BCD" stroke-width="0" stroke="#FF9BCD" d = " M203 273 L202,274 C202,274 203,273 203,273  Z"/>

<path  fill="#FF9BCD" stroke-width="0" stroke="#FF9BCD" d = " M222 274 L221,275 C221,275 222,274 222,274  Z"/>

<path  fill="#CACCC8" stroke-width="0" stroke="#CACCC8" d = " M227 280 L225,282 C218.67,282 220,280.542 220,276 220,276 221,275 221,275 221,275 222,274 222,274 222,274 226,275 226,275 226,275 226,279 226,279 226,279 227,280 227,280  Z"/>

<path  fill="#CACCC8" stroke-width="0" stroke="#CACCC8" d = " M230 279 L231,282 C240.705,282 238.662,275 230,275 230,275 230,279 230,279  Z"/>

<path  fill="#FF9BCD" stroke-width="0" stroke="#FF9BCD" d = " M221 275 L220,276 C220,276 221,275 221,275  Z"/>

<path  fill="#CBC7CC" stroke-width="0" stroke="#CBC7CC" d = " M164 287 L166,287 C166.68,287 175,289.152 175,287.5 175,286.061 171,288.159 171,286 171,286 169,286 169,286 169,286 167,285 167,285 167,285 166,285 166,285 159.143,285 154.136,276 151,276 151,280.008 156,280.412 156,283 156,283 157,283 157,283 157,283 159,285 159,285 159,285 160,285 160,285 160,285 164,287 164,287  Z"/>

<path  fill="#FF9BCD" stroke-width="0" stroke="#FF9BCD" d = " M200 277 L201,278 C201,278 201,276 201,276 201,276 200,277 200,277  Z"/>

<path  fill="#FF9BCD" stroke-width="0" stroke="#FF9BCD" d = " M166 287 C166,290.158 174.608,288.054 176.5,289 184.728,293.114 202.024,295 212,295 212,293.255 205.938,294.376 205,292.5 202.204,286.909 220.848,283 225,283 225,283 225,282 225,282 218.67,282 220,280.542 220,276 214.689,276 209.249,282 203,282 203,284.774 196.282,290.391 193.5,289 193.5,289 191,287 191,287 184.172,287 178.395,286 171,286 171,288.159 175,286.061 175,287.5 175,289.152 166.68,287 166,287  Z"/>

<path  fill="#FF9BCD" stroke-width="0" stroke="#FF9BCD" d = " M257 277 L255,278 C255,278 255,276 255,276 255,276 257,277 257,277  Z"/>

<path  fill="#FCB2D8" stroke-width="0" stroke="#FCB2D8" d = " M203 282 C203,284.774 196.282,290.391 193.5,289 L191,287 C191,287 194,280 194,280 194,280 195,279 195,279 195,279 200,277 200,277 200,277 201,278 201,278 201,280.424 203,280.76 203,282  Z"/>

<path  fill="#FCB2D8" stroke-width="0" stroke="#FCB2D8" d = " M254 282 C254,287.074 265,291.916 265,286 265,286 262,280 262,280 262,280 261,279 261,279 261,279 257,277 257,277 257,277 255,278 255,278 255,278 254,282 254,282  Z"/>

<path  fill="#CBC7CC" stroke-width="0" stroke="#CBC7CC" d = " M291 287 L292,287 C292,287 294,286 294,286 294,286 295,286 295,286 295,286 296,285 296,285 296,285 297,285 297,285 297,285 299,284 299,284 299,284 300,283 300,283 300,283 301,283 301,283 301,283 302,282 302,282 302,282 303,281 303,281 303,281 305,279 305,279 305,279 304,277 304,277 302.858,277 295.913,285 290,285 290,285 289,285 289,285 289,285 288,286 288,286 288,286 285,286 285,286 285,288.159 281,286.061 281,287.5 281,287.5 287,288 287,288 287,286.421 289.855,287 291,287  Z"/>

<path  fill="#FF9BCD" stroke-width="0" stroke="#FF9BCD" d = " M195 279 L194,280 C194,280 194,279 194,279 194,279 195,279 195,279  Z"/>

<path  fill="#FF9BCD" stroke-width="0" stroke="#FF9BCD" d = " M226 279 L227,280 C227,280 226,279 226,279  Z"/>

<path  fill="#FFC6E2" stroke-width="0" stroke="#FFC6E2" d = " M231 286 C229.51,286 228.413,287 226,287 226,287 225,283 225,283 225,283 225,282 225,282 225,282 227,280 227,280 227,280 230,279 230,279 230,279 231,282 231,282 231,282 231,283 231,283 231,283 231,286 231,286  Z"/>

<path  fill="#FF9BCD" stroke-width="0" stroke="#FF9BCD" d = " M262 279 L262,280 C262,280 261,279 261,279 261,279 262,279 262,279  Z"/>

<path  fill="#FF9BCD" stroke-width="0" stroke="#FF9BCD" d = " M305 279 L303,281 C304.747,281 305,280.747 305,279  Z"/>

<path  fill="#FF9BCD" stroke-width="0" stroke="#FF9BCD" d = " M303 281 L302,282 C302,282 303,281 303,281  Z"/>

<path  fill="#FF9BCD" stroke-width="0" stroke="#FF9BCD" d = " M302 282 L301,283 C301,283 302,282 302,282  Z"/>

<path  fill="#FF9BCD" stroke-width="0" stroke="#FF9BCD" d = " M157 283 L159,285 C159,285 157,283 157,283  Z"/>

<path  fill="#C7C9C9" stroke-width="0" stroke="#C7C9C9" d = " M212 295 L215,295 C215,293.546 220.366,293.567 221.5,293 221.5,293 226,287 226,287 226,287 225,283 225,283 220.848,283 202.204,286.909 205,292.5 205.938,294.376 212,293.255 212,295  Z"/>

<path  fill="#C7C9C9" stroke-width="0" stroke="#C7C9C9" d = " M241 295 L244,295 C244,293.255 250.062,294.376 251,292.5 254.017,286.466 235.189,283 231,283 231,283 231,286 231,286 231,286 234.5,293 234.5,293 235.634,293.567 241,293.546 241,295  Z"/>

<path  fill="#FF9BCD" stroke-width="0" stroke="#FF9BCD" d = " M300 283 L299,284 C299,284 300,283 300,283  Z"/>

<path  fill="#FF9BCD" stroke-width="0" stroke="#FF9BCD" d = " M299 284 L297,285 C297,285 299,284 299,284  Z"/>

<path  fill="#FF9BCD" stroke-width="0" stroke="#FF9BCD" d = " M160 285 L164,287 C164,287 160,285 160,285  Z"/>

<path  fill="#FF9BCD" stroke-width="0" stroke="#FF9BCD" d = " M167 285 L169,286 C169,286 167,285 167,285  Z"/>

<path  fill="#FF9BCD" stroke-width="0" stroke="#FF9BCD" d = " M289 285 L288,286 C288,286 289,285 289,285  Z"/>

<path  fill="#FF9BCD" stroke-width="0" stroke="#FF9BCD" d = " M296 285 L295,286 C295,286 296,285 296,285  Z"/>

<path  fill="#FF9BCD" stroke-width="0" stroke="#FF9BCD" d = " M215 295 C219.743,295 222.651,293.925 226.5,292 L228.5,289 L231.5,293 C234.645,294.573 237.135,295 241,295 241,293.546 235.634,293.567 234.5,293 234.5,293 231,286 231,286 229.51,286 228.413,287 226,287 226,287 221.5,293 221.5,293 220.366,293.567 215,293.546 215,295  Z"/>

<path  fill="#FF9BCD" stroke-width="0" stroke="#FF9BCD" d = " M294 286 L292,287 C292,287 294,286 294,286  Z"/>

<path  fill="#FF9BCD" stroke-width="0" stroke="#FF9BCD" d = " M291 287 C289.855,287 287,286.421 287,288 288.145,288 291,288.579 291,287  Z"/>

</g>
</svg>
