<svg xmlns="http://www.w3.org/2000/svg" xmlns:xlink="http://www.w3.org/1999/xlink"  viewBox="0 0 456 320">
<g>
<rect width="456" height="320" fill="#000000"  stroke-width="0" /> 
<path  fill="#99D2BD" stroke-width="0" stroke="#99D2BD" d = " M222 120 L221,121 C218.603,121 214.281,116.391 211.5,115 205.834,112.167 196.698,117 192,117 192,117 192,115 192,115 192,115 197.5,113 197.5,113 202.712,110.394 213.506,115.003 217.5,117 217.5,117 222,120 222,120  Z"/>

<path  fill="#99D2BD" stroke-width="0" stroke="#99D2BD" d = " M240 117 C245.064,117 254.595,112.047 260.5,115 L265,117 C265,117 264,115 264,115 264,112.936 260.647,114.574 259.5,114 256.423,112.461 240,113.532 240,117  Z"/>

<path  fill="#C7CBCA" stroke-width="0" stroke="#C7CBCA" d = " M298 221 L297,222 C297,225.113 293.895,225.711 293,227.5 288.243,237.015 285.747,237.376 276.5,242 276.5,242 262.5,241 262.5,241 258.476,243.012 250.368,245.434 245.5,243 245.5,243 231,222.5 231,222.5 231,222.5 228.5,207 228.5,207 226.735,207 226.686,218.127 226,219.5 223.728,224.043 215.039,240.73 210.5,243 205.692,245.404 197.475,242.988 193.5,241 193.5,241 180.5,242 180.5,242 172.531,238.015 167.327,236.153 163,227.5 161.85,225.201 159,224.845 159,221 159,201.018 154,182.773 154,161 154,161 154,157 154,157 155.684,157 155,152.321 155,151 155,151 155,147 155,147 156.579,147 156,144.145 156,143 157.473,143 157,141.048 157,140 157,140 157,139 157,139 157,139 158,137 158,137 158,137 159,135 159,135 159,135 159,134 159,134 159,134 160,133 160,133 160,133 161,131 161,131 161,124.533 186.61,115 192,115 192,115 192,117 192,117 186.913,117 183.723,120.888 179.5,123 150.97,137.265 157.614,159.729 169,182.5 169,182.5 175,198.5 175,198.5 178.132,204.764 176.605,215.71 181,224.5 184.695,231.89 204.15,236.199 209,226.5 211.06,222.38 214.63,217.24 217,212.5 218.985,208.53 217.057,202.385 219,198.5 221.165,194.169 223,170.662 223,165 223,158.38 229.765,139.029 227,133.5 225.566,130.633 221,124.033 221,121 221,121 222,120 222,120 224.865,120 226.667,128 228.5,128 229.232,128 231.698,120 234,120 234,120 236,121 236,121 236,121 230,131.5 230,131.5 226.784,137.932 233,157.923 233,165.5 233,168.1 236.122,193.744 237,195.5 239.213,199.925 236.732,206.963 239,211.5 241.868,217.236 246.446,223.393 249,228.5 249,228.5 252.5,230 252.5,230 261.286,234.393 272.384,230.731 277,221.5 280.181,215.138 278.168,205.164 281,199.5 283.551,194.398 284.477,188.546 287,183.5 296.685,164.13 306.367,137.934 280.5,125 275.885,122.692 270.354,117 265,117 265,117 264,115 264,115 269.972,115 295,124.546 295,131 295,131 297,133 297,133 297,133 297,134 297,134 297,134 299,138 299,138 299,138 299,139 299,139 299,140.041 299.986,144 301,144 301,144 301,147 301,147 301,148.321 300.316,153 302,153 302,153 302,155 302,155 302,155 302,183.5 302,183.5 297.979,191.542 298,211.835 298,221  Z"/>

<path  fill="#9AD1BD" stroke-width="0" stroke="#9AD1BD" d = " M192 117 C196.698,117 205.834,112.167 211.5,115 214.281,116.391 218.603,121 221,121 221,124.033 225.566,130.633 227,133.5 229.765,139.029 223,158.38 223,165 223,170.662 221.165,194.169 219,198.5 217.057,202.385 218.985,208.53 217,212.5 214.63,217.24 211.06,222.38 209,226.5 204.15,236.199 184.695,231.89 181,224.5 176.605,215.71 178.132,204.764 175,198.5 175,198.5 169,182.5 169,182.5 157.614,159.729 150.97,137.265 179.5,123 183.723,120.888 186.913,117 192,117  Z"/>

<path  fill="#9AD1BD" stroke-width="0" stroke="#9AD1BD" d = " M265 117 C270.354,117 275.885,122.692 280.5,125 306.367,137.934 296.685,164.13 287,183.5 284.477,188.546 283.551,194.398 281,199.5 278.168,205.164 280.181,215.138 277,221.5 272.384,230.731 261.286,234.393 252.5,230 L249,228.5 C246.446,223.393 241.868,217.236 239,211.5 236.732,206.963 239.213,199.925 237,195.5 236.122,193.744 233,168.1 233,165.5 233,157.923 226.784,137.932 230,131.5 L236,121 C236,121 240,117 240,117 245.064,117 254.595,112.047 260.5,115 260.5,115 265,117 265,117  Z"/>

<path  fill="#99D2BD" stroke-width="0" stroke="#99D2BD" d = " M234 120 L236,121 C236,121 240,117 240,117 238.357,117 234,118.338 234,120  Z"/>

<path  fill="#99D2BD" stroke-width="0" stroke="#99D2BD" d = " M161 131 L160,133 C160,133 161,131 161,131  Z"/>

<path  fill="#99D2BD" stroke-width="0" stroke="#99D2BD" d = " M295 131 L297,133 C297,133 295,131 295,131  Z"/>

<path  fill="#99D2BD" stroke-width="0" stroke="#99D2BD" d = " M160 133 L159,134 C159,134 160,133 160,133  Z"/>

<path  fill="#99D2BD" stroke-width="0" stroke="#99D2BD" d = " M297 134 L299,138 C299,138 297,134 297,134  Z"/>

<path  fill="#99D2BD" stroke-width="0" stroke="#99D2BD" d = " M159 135 L158,137 C158,137 159,135 159,135  Z"/>

<path  fill="#99D2BD" stroke-width="0" stroke="#99D2BD" d = " M158 137 L157,139 C157,139 158,137 158,137  Z"/>

<path  fill="#99D2BD" stroke-width="0" stroke="#99D2BD" d = " M299 139 C300.638,139 301,142.576 301,144 299.986,144 299,140.041 299,139  Z"/>

<path  fill="#99D2BD" stroke-width="0" stroke="#99D2BD" d = " M157 140 C155.527,140 156,141.952 156,143 157.473,143 157,141.048 157,140  Z"/>

<path  fill="#99D2BD" stroke-width="0" stroke="#99D2BD" d = " M156 143 C154.421,143 155,145.855 155,147 156.579,147 156,144.145 156,143  Z"/>

<path  fill="#99D2BD" stroke-width="0" stroke="#99D2BD" d = " M301 147 C302.684,147 302,151.679 302,153 300.316,153 301,148.321 301,147  Z"/>

<path  fill="#99D2BD" stroke-width="0" stroke="#99D2BD" d = " M155 151 C153.316,151 154,155.679 154,157 155.684,157 155,152.321 155,151  Z"/>

<path  fill="#99D2BD" stroke-width="0" stroke="#99D2BD" d = " M302 155 C303.643,155 303,158.765 303,160 L304,175.5 C305.484,178.467 310.404,203.692 309,206.5 308.012,208.476 305.713,210.074 305,211.5 303.906,213.689 301.965,221 298,221 298,211.835 297.979,191.542 302,183.5 302,183.5 302,155 302,155  Z"/>

<path  fill="#99D2BD" stroke-width="0" stroke="#99D2BD" d = " M154 161 C152.505,161 152.904,175.691 152,177.5 149.8,181.9 145.242,202.985 148,208.5 149.598,211.695 153.52,214.541 155,217.5 155.712,218.925 157.014,221 159,221 159,201.018 154,182.773 154,161  Z"/>

<path  fill="#99D2BD" stroke-width="0" stroke="#99D2BD" d = " M298 221 L297,222 C297,222 298,221 298,221  Z"/>

</g>
</svg>
