<svg xmlns="http://www.w3.org/2000/svg" xmlns:xlink="http://www.w3.org/1999/xlink"  viewBox="0 0 456 320">
<g>
<rect width="456" height="320" fill="#000000"  stroke-width="0" /> 
<path  fill="#098589" stroke-width="0" stroke="#098589" d = " M82 53 L85,56 C85,56 103.5,43 103.5,43 121.348,34.0761 142.87,19 164,19 164,19 164,15 164,15 161.387,15 159.64,15.9301 157.5,17 154.49,18.5049 142.612,18.9438 138.5,21 125.179,27.6607 112.008,34.2459 98.5,41 96.0685,42.2157 82,50.6033 82,53  Z"/>

<path  fill="#0A8589" stroke-width="0" stroke="#0A8589" d = " M165 19 L175,19 C175,19 175,15 175,15 175,15 164,15 164,15 164,15 164,19 164,19 164,19 165,19 165,19  Z"/>

<path  fill="#1BA696" stroke-width="0" stroke="#1BA696" d = " M192 18 C186.325,18 180.046,19 175,19 175,19 175,15 175,15 175,15 193,15 193,15 193,15 192,18 192,18  Z"/>

<path  fill="#1BA598" stroke-width="0" stroke="#1BA598" d = " M211 35 L205,37 C205,37 207,32.5 207,32.5 210.127,26.2468 197.358,18 192,18 192,18 193,15 193,15 197.81,15 207.592,18.6834 210,23.5 210.481,24.4615 214.251,35 211,35  Z"/>

<path  fill="#1BA598" stroke-width="0" stroke="#1BA598" d = " M245 35 L252,37 C252,37 250,33.5 250,33.5 246.249,25.9975 258.394,18 264,18 264,18 264,15 264,15 258.024,15 248.074,19.3529 245,25.5 243.482,28.536 245,32.3858 245,35  Z"/>

<path  fill="#1BA696" stroke-width="0" stroke="#1BA696" d = " M264 18 C269.675,18 275.954,19 281,19 281,19 281,15 281,15 281,15 264,15 264,15 264,15 264,18 264,18  Z"/>

<path  fill="#0A8589" stroke-width="0" stroke="#0A8589" d = " M281 19 L292,19 C292,19 293,15 293,15 293,15 281,15 281,15 281,15 281,19 281,19  Z"/>

<path  fill="#098589" stroke-width="0" stroke="#098589" d = " M374 53 L371,56 C371,56 353.5,43 353.5,43 336.48,34.4901 311.778,19 292,19 292,19 293,15 293,15 295.592,15 296.416,15.9581 298.5,17 300.183,17.8414 315.359,19.4294 318.5,21 330.781,27.1405 343.129,32.8144 355.5,39 357.948,40.2241 374,50.585 374,53  Z"/>

<path  fill="#1AA496" stroke-width="0" stroke="#1AA496" d = " M174 25 L174,27 C176.868,27 185.173,24 191,24 191,24 192,18 192,18 186.325,18 180.046,19 175,19 175,20.3208 175.684,25 174,25  Z"/>

<path  fill="#1BA697" stroke-width="0" stroke="#1BA697" d = " M203 37 L205,37 C205,37 207,32.5 207,32.5 210.127,26.2468 197.358,18 192,18 192,18 191,24 191,24 191,24 191,25 191,25 203.189,25 196,34.8262 196,38 196,39.1395 201.29,37 203,37  Z"/>

<path  fill="#1BA697" stroke-width="0" stroke="#1BA697" d = " M253 37 C256.303,37 258.115,39 261,39 261,35.6824 251.952,25 266,25 266,25 266,24 266,24 265.325,24 264,18.706 264,18 258.394,18 246.249,25.9975 250,33.5 250,33.5 252,37 252,37 252,37 253,37 253,37  Z"/>

<path  fill="#1AA496" stroke-width="0" stroke="#1AA496" d = " M282 25 L282,27 C278.997,27 271.36,24 266,24 265.325,24 264,18.706 264,18 269.675,18 275.954,19 281,19 281,19 282,25 282,25  Z"/>

<path  fill="#0A828C" stroke-width="0" stroke="#0A828C" d = " M85 57 L90,63 C95.1428,63 100.977,55.2615 105.5,53 119.077,46.2117 151.751,27 166,27 166,27 165,19 165,19 165,19 164,19 164,19 142.87,19 121.348,34.0761 103.5,43 103.5,43 85,56 85,56 85,56 85,57 85,57  Z"/>

<path  fill="#08858B" stroke-width="0" stroke="#08858B" d = " M174 25 L166,27 C166,27 165,19 165,19 165,19 175,19 175,19 175,20.3208 175.684,25 174,25  Z"/>

<path  fill="#08858B" stroke-width="0" stroke="#08858B" d = " M290 27 L291,27 C291,24.293 292,21.0966 292,19 292,19 281,19 281,19 281,19 282,25 282,25 282,25 290,27 290,27  Z"/>

<path  fill="#0A828C" stroke-width="0" stroke="#0A828C" d = " M366 63 L367,63 C367,63 371,57 371,57 371,57 371,56 371,56 371,56 353.5,43 353.5,43 336.48,34.4901 311.778,19 292,19 292,21.0966 291,24.293 291,27 291,29.0986 298.032,28.2661 299.5,29 307.194,32.8468 315.807,35.1534 323.5,39 333.319,43.9095 342.767,49.1334 352.5,54 356.127,55.8135 362.035,63 366,63  Z"/>

<path  fill="#1CA697" stroke-width="0" stroke="#1CA697" d = " M176 37 L177,37 C180.115,37 186.153,31.3473 188.5,29 189.553,27.9467 188.547,25 191,25 191,25 191,24 191,24 185.173,24 176.868,27 174,27 174,30.898 170,33.2706 170,37 170,37 176,37 176,37  Z"/>

<path  fill="#1CA697" stroke-width="0" stroke="#1CA697" d = " M281 37 L287,37 C287,37 282,27 282,27 278.997,27 271.36,24 266,24 266,24 266,25 266,25 266,30.4523 279,36.5072 279,37 279,37 281,37 281,37  Z"/>

<path  fill="#09828B" stroke-width="0" stroke="#09828B" d = " M166 29 L167,29 C167,29 174,27 174,27 174,27 174,25 174,25 174,25 166,27 166,27 166,27 166,29 166,29  Z"/>

<path  fill="#1AA596" stroke-width="0" stroke="#1AA596" d = " M194 39 C186.628,39 183.482,44 177,44 177,41.7037 177,39.1229 177,37 180.115,37 186.153,31.3473 188.5,29 189.553,27.9467 188.547,25 191,25 203.189,25 196,34.8262 196,38 196,38 194,39 194,39  Z"/>

<path  fill="#1AA596" stroke-width="0" stroke="#1AA596" d = " M263 39 C270.389,39 276.652,46 281,46 281,44.7997 279,41.3624 279,37 279,36.5072 266,30.4523 266,25 251.952,25 261,35.6824 261,39 261,39 263,39 263,39  Z"/>

<path  fill="#09828B" stroke-width="0" stroke="#09828B" d = " M290 27 L290,29 C290,29 282,27 282,27 282,27 282,25 282,25 282,25 290,27 290,27  Z"/>

<path  fill="#0B848B" stroke-width="0" stroke="#0B848B" d = " M93 69 L94,69 C94,65.9755 104.296,62.102 106.5,61 121.648,53.426 135.411,43.5446 150.5,36 150.5,36 161.5,31 161.5,31 162.619,30.4406 166,30.8446 166,29 166,29 166,27 166,27 151.751,27 119.077,46.2117 105.5,53 100.977,55.2615 95.1428,63 90,63 90,63 90,64 90,64 91.0768,64 93,67.7618 93,69  Z"/>

<path  fill="#088489" stroke-width="0" stroke="#088489" d = " M167 38 L168,38 C168,38 170,37 170,37 170,33.2706 174,30.898 174,27 174,27 167,29 167,29 167,29 167,38 167,38  Z"/>

<path  fill="#088489" stroke-width="0" stroke="#088489" d = " M289 38 L290,38 C290,34.5383 290,32.9735 290,29 290,29 282,27 282,27 282,27 287,37 287,37 287,37 289,38 289,38  Z"/>

<path  fill="#0B848B" stroke-width="0" stroke="#0B848B" d = " M366 63 C366,64.4082 364.803,68 363,68 356.884,68 349.86,59.6799 344.5,57 331.727,50.6134 319.241,43.3704 306.5,37 302.148,34.8238 294.87,29 290,29 290,29 290,27 290,27 290,27 291,27 291,27 291,29.0986 298.032,28.2661 299.5,29 307.194,32.8468 315.807,35.1534 323.5,39 333.319,43.9095 342.767,49.1334 352.5,54 356.127,55.8135 362.035,63 366,63  Z"/>

<path  fill="#088389" stroke-width="0" stroke="#088389" d = " M98 77 L99,77 C99,77 113.5,67 113.5,67 124.434,61.5331 156,39 166,39 166,39 167,39 167,39 167,39 167,38 167,38 167,38 167,29 167,29 167,29 166,29 166,29 166,30.8446 162.619,30.4406 161.5,31 161.5,31 150.5,36 150.5,36 135.411,43.5446 121.648,53.426 106.5,61 104.296,62.102 94,65.9755 94,69 94,69 98,77 98,77  Z"/>

<path  fill="#088389" stroke-width="0" stroke="#088389" d = " M363 69 L358,77 C353.705,77 343.909,67.2043 339.5,65 328.765,59.6325 300.151,39 290,39 290,39 290,38 290,38 290,34.5383 290,32.9735 290,29 294.87,29 302.148,34.8238 306.5,37 319.241,43.3704 331.727,50.6134 344.5,57 349.86,59.6799 356.884,68 363,68 363,68 363,69 363,69  Z"/>

<path  fill="#1BA597" stroke-width="0" stroke="#1BA597" d = " M164 67 L165,69 C165,69 177,57.5 177,57.5 183.197,51.3027 211,42.8155 211,35 211,35 205,37 205,37 205,37 203,37 203,37 203,40.2812 196.964,41.7681 194.5,43 189.509,45.4956 164,61.1524 164,67  Z"/>

<path  fill="#1BA597" stroke-width="0" stroke="#1BA597" d = " M293 67 L291,69 C291,69 279,57.5 279,57.5 272.734,51.2339 245,42.3218 245,35 245,35 252,37 252,37 252,37 253,37 253,37 253,40.1963 260.578,42.0389 262.5,43 270.751,47.1253 279.665,53.1649 286.5,60 286.5,60 293,67 293,67  Z"/>

<path  fill="#1CA597" stroke-width="0" stroke="#1CA597" d = " M166 40 C166,42.6959 161,43.8465 161,47 164.258,47 168.939,40.7805 172.5,39 172.5,39 176,37 176,37 176,37 170,37 170,37 170,37 168,38 168,38 168,38 167,39 167,39 167,39 166,40 166,40  Z"/>

<path  fill="#1AA697" stroke-width="0" stroke="#1AA697" d = " M158 52 L159,55 C164.249,55 164.474,49 171,49 171,49 172,48 172,48 172,48 173,47 173,47 173,47 175,46 175,46 175,46 176,45 176,45 176,45 177,44 177,44 177,41.7037 177,39.1229 177,37 177,37 176,37 176,37 176,37 172.5,39 172.5,39 168.939,40.7805 164.258,47 161,47 161,48.7469 160.747,49 159,49 159,49 158,52 158,52  Z"/>

<path  fill="#1AA597" stroke-width="0" stroke="#1AA597" d = " M162 65 L164,67 C164,61.1524 189.509,45.4956 194.5,43 196.964,41.7681 203,40.2812 203,37 201.29,37 196,39.1395 196,38 196,38 194,39 194,39 194,41.0578 187.082,44.2089 185.5,45 182.435,46.5327 162,61.7735 162,65  Z"/>

<path  fill="#1AA597" stroke-width="0" stroke="#1AA597" d = " M295 65 L293,67 C293,67 286.5,60 286.5,60 279.665,53.1649 270.751,47.1253 262.5,43 260.578,42.0389 253,40.1963 253,37 256.303,37 258.115,39 261,39 261,39 263,39 263,39 263,39.2046 285.346,55.846 289,59.5 289,59.5 295,65 295,65  Z"/>

<path  fill="#1AA697" stroke-width="0" stroke="#1AA697" d = " M299 55 L299,56 C292.235,56 289.886,47 283,47 283,47 281,46 281,46 281,44.7997 279,41.3624 279,37 279,37 281,37 281,37 281,39.0526 299,47.4811 299,52 296.798,52 296.798,55 299,55  Z"/>

<path  fill="#1CA597" stroke-width="0" stroke="#1CA597" d = " M299 52 L300,52 C300,48.0061 291,45.1711 291,41 289.423,41 289,39.2383 289,38 289,38 287,37 287,37 287,37 281,37 281,37 281,39.0526 299,47.4811 299,52  Z"/>

<path  fill="#09858B" stroke-width="0" stroke="#09858B" d = " M168 38 L167,39 C167,39 167,38 167,38 167,38 168,38 168,38  Z"/>

<path  fill="#09858B" stroke-width="0" stroke="#09858B" d = " M290 39 L291,41 C289.423,41 289,39.2383 289,38 289,38 290,38 290,38 290,38 290,39 290,39  Z"/>

<path  fill="#08858C" stroke-width="0" stroke="#08858C" d = " M99 77 C99,79.83 103,81.5404 103,84 109.791,84 126.156,65 134,65 134,63.4226 135.762,63 137,63 137,60.7319 145.031,57 147,57 147,57 151,55 151,55 151,53.5232 154.924,52 156,52 156,52 157,52 157,52 157,50.7617 157.423,49 159,49 159,49 161,47 161,47 161,43.8465 166,42.6959 166,40 166,40 166,39 166,39 156,39 124.434,61.5331 113.5,67 113.5,67 99,77 99,77  Z"/>

<path  fill="#09858B" stroke-width="0" stroke="#09858B" d = " M167 39 L166,40 C166,40 166,39 166,39 166,39 167,39 167,39  Z"/>

<path  fill="#1BA498" stroke-width="0" stroke="#1BA498" d = " M157 61 C157,62.8113 160.438,65 162,65 162,61.7735 182.435,46.5327 185.5,45 187.082,44.2089 194,41.0578 194,39 186.628,39 183.482,44 177,44 177,44 176,45 176,45 176,45 175,46 175,46 175,46 173,47 173,47 173,47 172,48 172,48 172,48 171,49 171,49 171,52.0689 159.577,61 157,61  Z"/>

<path  fill="#1BA498" stroke-width="0" stroke="#1BA498" d = " M299 61 L295,65 C295,65 289,59.5 289,59.5 285.346,55.846 263,39.2046 263,39 270.389,39 276.652,46 281,46 281,46 283,47 283,47 283,48.0024 298.12,61 299,61  Z"/>

<path  fill="#08858C" stroke-width="0" stroke="#08858C" d = " M358 78 L353,84 C353,84 339.5,75 339.5,75 331.055,70.7775 307.737,52 300,52 300,48.0061 291,45.1711 291,41 291,41 290,39 290,39 300.151,39 328.765,59.6325 339.5,65 343.909,67.2043 353.705,77 358,77 358,77 358,78 358,78  Z"/>

<path  fill="#FF7AFD" stroke-width="0" stroke="#FF7AFD" d = " M294 80 L295,81 C295,81 295,78 295,78 295,78 295,77 295,77 295,77 293,75 293,75 293,75 293,74 293,74 293,74 284.5,65 284.5,65 278.079,58.5794 270.649,53.0743 262.5,49 249.497,42.4986 247.091,42.7044 234.5,49 234.5,49 229,55.5 229,55.5 229,55.5 228.5,59 228.5,59 228.5,59 225,51.5 225,51.5 222.962,47.4245 214.146,44.8228 210.5,43 208.324,41.9118 186.753,53.3734 183.5,55 183.5,55 177,61 177,61 179.827,61 181.163,58.1685 183.5,57 194.618,51.4411 205.029,42.7646 217.5,49 221.216,50.8582 226,53.5145 226,58.5 226,62.3014 227,66.8455 227,70 228.048,70 230,70.4729 230,69 230,64.7433 229.217,59.0656 231,55.5 232.616,52.2676 235.536,50.4819 238.5,49 253.709,41.3953 264.499,54.4993 277.5,61 282.596,63.5478 294,74.1828 294,80  Z"/>

<path  fill="#1AA596" stroke-width="0" stroke="#1AA596" d = " M177 44 L176,45 C176,45 177,44 177,44  Z"/>

<path  fill="#1AA596" stroke-width="0" stroke="#1AA596" d = " M176 45 L175,46 C175,46 176,45 176,45  Z"/>

<path  fill="#FF78FF" stroke-width="0" stroke="#FF78FF" d = " M164 75 L163,80 C163,80 175.5,72 175.5,72 186.609,66.4454 198.513,62.4935 209.5,57 218.474,52.513 224.144,70 227,70 227,66.8455 226,62.3014 226,58.5 226,53.5145 221.216,50.8582 217.5,49 205.029,42.7646 194.618,51.4411 183.5,57 181.163,58.1685 179.827,61 177,61 177,62.7469 176.747,63 175,63 175,64.1585 168.838,71 167,71 167,72.4289 165.712,75 164,75  Z"/>

<path  fill="#FF78FF" stroke-width="0" stroke="#FF78FF" d = " M230 69 C232.442,69 238.121,52.3107 247.5,57 256.798,61.6492 267.21,64.3552 276.5,69 281.472,71.4862 288.387,80 294,80 294,74.1828 282.596,63.5478 277.5,61 264.499,54.4993 253.709,41.3953 238.5,49 235.536,50.4819 232.616,52.2676 231,55.5 229.217,59.0656 230,64.7433 230,69  Z"/>

<path  fill="#1CA597" stroke-width="0" stroke="#1CA597" d = " M161 47 L159,49 C160.747,49 161,48.7469 161,47  Z"/>

<path  fill="#1AA498" stroke-width="0" stroke="#1AA498" d = " M173 47 L172,48 C172,48 173,47 173,47  Z"/>

<path  fill="#1AA498" stroke-width="0" stroke="#1AA498" d = " M299 61 L301,61 C301,61 299,56 299,56 292.235,56 289.886,47 283,47 283,48.0024 298.12,61 299,61  Z"/>

<path  fill="#1AA498" stroke-width="0" stroke="#1AA498" d = " M172 48 L171,49 C171,49 172,48 172,48  Z"/>

<path  fill="#1CA597" stroke-width="0" stroke="#1CA597" d = " M157 52 L158,52 C158,52 159,49 159,49 157.423,49 157,50.7617 157,52  Z"/>

<path  fill="#1AA498" stroke-width="0" stroke="#1AA498" d = " M155 61 L157,61 C159.577,61 171,52.0689 171,49 164.474,49 164.249,55 159,55 159,55 158,55 158,55 158,55 157,56 157,56 157,58.25 155,59.3756 155,61  Z"/>

<path  fill="#08858A" stroke-width="0" stroke="#08858A" d = " M156 54 L151,55 C151,53.5232 154.924,52 156,52 156,52 156,54 156,54  Z"/>

<path  fill="#1AA598" stroke-width="0" stroke="#1AA598" d = " M156 54 L157,54 C157,54 157,52 157,52 157,52 156,52 156,52 156,52 156,54 156,54  Z"/>

<path  fill="#1BA698" stroke-width="0" stroke="#1BA698" d = " M158 55 L159,55 C159,55 158,52 158,52 158,52 157,52 157,52 157,52 157,54 157,54 157,54 158,55 158,55  Z"/>

<path  fill="#1BA698" stroke-width="0" stroke="#1BA698" d = " M300 54 L299,55 C296.798,55 296.798,52 299,52 299,52 300,54 300,54  Z"/>

<path  fill="#1AA598" stroke-width="0" stroke="#1AA598" d = " M300 54 L301,54 C301,54 300,52 300,52 300,52 299,52 299,52 299,52 300,54 300,54  Z"/>

<path  fill="#08858A" stroke-width="0" stroke="#08858A" d = " M353 85 L353,86 C346.514,86 324.701,63 317,63 317,62.1304 303.673,54 301,54 301,54 300,52 300,52 307.737,52 331.055,70.7775 339.5,75 339.5,75 353,84 353,84 353,84 353,85 353,85  Z"/>

<path  fill="#09848A" stroke-width="0" stroke="#09848A" d = " M67 73 L68,73 C68,73 72,68.5 72,68.5 75.294,65.206 81.7364,57 85,57 85,57 85,56 85,56 85,56 82,53 82,53 80.7695,53 65,69.5068 65,71 65,71 67,73 67,73  Z"/>

<path  fill="#09848A" stroke-width="0" stroke="#09848A" d = " M392 71 L389,73 C385.605,73 376.189,57 371,57 371,57 371,56 371,56 371,56 374,53 374,53 376.144,53 392,69.2527 392,71  Z"/>

<path  fill="#C9C9CA" stroke-width="0" stroke="#C9C9CA" d = " M139 63 L142,63 C147.285,63 151.373,56 157,56 157,56 158,55 158,55 158,55 157,54 157,54 157,54 156,54 156,54 156,54 151,55 151,55 151,57.109 148.465,57 147,57 147,60.2256 139,60.327 139,63  Z"/>

<path  fill="#C9C9CA" stroke-width="0" stroke="#C9C9CA" d = " M314 63 L317,63 C317,62.1304 303.673,54 301,54 301,54 300,54 300,54 300,54 299,55 299,55 299,55 299,56 299,56 304.841,56 308.826,63 314,63  Z"/>

<path  fill="#08858A" stroke-width="0" stroke="#08858A" d = " M151 55 L147,57 C148.465,57 151,57.109 151,55  Z"/>

<path  fill="#C8C9CA" stroke-width="0" stroke="#C8C9CA" d = " M158 55 L157,56 C157,56 158,55 158,55  Z"/>

<path  fill="#C8C9CA" stroke-width="0" stroke="#C8C9CA" d = " M78 115 L79,115 C79,113.253 79.2531,113 81,113 81,110.774 82.7736,109 85,109 85,107.253 85.2531,107 87,107 87,107 89,105 89,105 89,103.288 91.5711,102 93,102 93,102 95,101 95,101 95,99.4226 96.7617,99 98,99 98,97.4226 99.7617,97 101,97 101,95.2504 111.114,91 113,91 113,83.2284 136.118,69 143,69 143,69 144,69 144,69 147.817,69 150.758,61 155,61 155,59.3756 157,58.25 157,56 151.373,56 147.285,63 142,63 142,66.4565 129.996,71.7522 127.5,73 119.49,77.0048 88.3931,98.7139 85,105.5 83.266,108.968 77,110.861 77,115 77,115 78,115 78,115  Z"/>

<path  fill="#C8C9CA" stroke-width="0" stroke="#C8C9CA" d = " M379 115 L380,115 C380,112.928 368.678,102.089 366.5,101 366.5,101 355.5,91 355.5,91 355.5,91 328.5,73 328.5,73 326.196,71.8481 314,65.6549 314,63 308.826,63 304.841,56 299,56 299,56 301,61 301,61 304.928,61 307.566,68 311,68 311,68 314,69 314,69 314,65.2712 322.599,72.5493 323.5,73 328.72,75.6099 344,83.9753 344,91 344,91 360.5,99 360.5,99 360.5,99 379,115 379,115  Z"/>

<path  fill="#0A8489" stroke-width="0" stroke="#0A8489" d = " M72 79 L73,79 C73,79 76.5,75 76.5,75 79.3135,72.1865 86.858,64 90,64 90,64 90,63 90,63 90,63 85,57 85,57 81.7364,57 75.294,65.206 72,68.5 72,68.5 68,73 68,73 68,76.1034 72,75.7492 72,79  Z"/>

<path  fill="#08858A" stroke-width="0" stroke="#08858A" d = " M137 63 L139,63 C139,60.327 147,60.2256 147,57 145.031,57 137,60.7319 137,63  Z"/>

<path  fill="#FD7AFF" stroke-width="0" stroke="#FD7AFF" d = " M161 84 C166.149,84 171.998,77.2509 176.5,75 184.023,71.2387 193.299,69.6003 200.5,66 203.008,64.746 210.32,61.4102 213.5,63 L225.5,75 L228.5,72 L230.5,75 L237.5,67 C242.93,64.2851 248.274,61.3871 255.5,65 264.56,69.5301 274.39,72.4449 283.5,77 L295,84 C295,84 295,83 295,83 295,83 295,81 295,81 295,81 294,80 294,80 288.387,80 281.472,71.4862 276.5,69 267.21,64.3552 256.798,61.6492 247.5,57 238.121,52.3107 232.442,69 230,69 230,70.4729 228.048,70 227,70 224.144,70 218.474,52.513 209.5,57 198.513,62.4935 186.609,66.4454 175.5,72 175.5,72 163,80 163,80 163,80 161,81 161,81 161,81 161,83 161,83 161,83 161,84 161,84  Z"/>

<path  fill="#0A8489" stroke-width="0" stroke="#0A8489" d = " M383 79 L384,79 C384,79 389,74 389,74 389,74 389,73 389,73 385.605,73 376.189,57 371,57 371,57 367,63 367,63 367,66.6571 383,74.7683 383,79  Z"/>

<path  fill="#47C83C" stroke-width="0" stroke="#47C83C" d = " M124 109 C129.587,109 136.081,110 141,110 141,110 147,102 147,102 147,102 147,101 147,101 147,101 148,100 148,100 148,100 149,99 149,99 149,99 150,96 150,96 150,96 151,95 151,95 151,95 152,94 152,94 152,94 153,93 153,93 153,93 153,92 153,92 153,92 154,91 154,91 154,91 154,90 154,90 154,90 155,89 155,89 155,89 156,88 156,88 156,88 157,87 157,87 157,87 157,86 157,86 157,86 158,85 158,85 158,85 161,79 161,79 161,79 161,78 161,78 161,78 162,76 162,76 162,76 163,75 163,75 163,75 164,73 164,73 164,73 165,69 165,69 165,69 164,67 164,67 164,67 162,65 162,65 160.438,65 157,62.8113 157,61 157,61 155,61 155,61 150.758,61 147.817,69 144,69 144,69 143,70 143,70 143,70 142,72 142,72 142,72 141,73 141,73 141,73 141,74 141,74 141,74 140,75 140,75 140,75 140,76 140,76 140,76 139,77 139,77 139,77 138,80 138,80 138,80 137,81 137,81 137,81 134,88 134,88 134,88 133,89 133,89 133,89 129,93 129,93 129,94.0479 129.473,96 128,96 128,100.658 124,105.143 124,109  Z"/>

<path  fill="#FF7AFD" stroke-width="0" stroke="#FF7AFD" d = " M177 61 C175.253,61 175,61.2531 175,63 176.747,63 177,62.7469 177,61  Z"/>

<path  fill="#47C83C" stroke-width="0" stroke="#47C83C" d = " M332 109 C329.842,109 316,108.199 316,110 316,110 309,101 309,101 309,101 309,100 309,100 309,100 308,99 308,99 308,99 307,98 307,98 307,98 307,97 307,97 307,97 306,96 306,96 306,96 305,94 305,94 305,94 303,92 303,92 303,92 303,91 303,91 303,91 302,90 302,90 302,90 301,88 301,88 301,88 299,86 299,86 299,86 299,85 299,85 299,85 295,78 295,78 295,78 295,77 295,77 295,77 293,75 293,75 293,75 293,74 293,74 293,74 291,69 291,69 291,69 293,67 293,67 293,67 295,65 295,65 295,65 299,61 299,61 299,61 301,61 301,61 304.928,61 307.566,68 311,68 311,68 317,76 317,76 317,76 317,78 317,78 317,78 319,80 319,80 319,80 319,82 319,82 319,82 320,83 320,83 320,83 321,86 321,86 321,86 323,88 323,88 323,88 324,90 324,90 324,90 329,97 329,97 329,101.868 332,104.951 332,109  Z"/>

<path  fill="#08858A" stroke-width="0" stroke="#08858A" d = " M137 63 C135.762,63 134,63.4226 134,65 135.238,65 137,64.5774 137,63  Z"/>

<path  fill="#CBC9C7" stroke-width="0" stroke="#CBC9C7" d = " M66 126 C66,128.607 63,130.913 63,133 68.1707,133 67.994,121 73,121 73,119.336 74.8225,115 77,115 77,110.861 83.266,108.968 85,105.5 88.3931,98.7139 119.49,77.0048 127.5,73 129.996,71.7522 142,66.4565 142,63 142,63 139,63 139,63 139,63 137,63 137,63 137,64.5774 135.238,65 134,65 134,65 127.5,70 127.5,70 127.5,70 104,86 104,86 104,86 101,87 101,87 101,89.0057 90.7972,97 89,97 89,97 80,106 80,106 80,107.992 76.6613,111 75,111 75,114.332 70.4671,119.566 69,122.5 69,122.5 66,126 66,126  Z"/>

<path  fill="#FF7AFD" stroke-width="0" stroke="#FF7AFD" d = " M175 63 C172.336,63 167,68.3364 167,71 168.838,71 175,64.1585 175,63  Z"/>

<path  fill="#FF90FF" stroke-width="0" stroke="#FF90FF" d = " M150 119 L151,119 C152.465,119 155,119.109 155,117 155,96.9327 176.15,88.6749 191.5,81 194.293,79.6034 206.571,72.5353 209.5,74 211.064,74.782 213.038,74.2689 214.5,75 219.598,77.549 221.153,85 228.5,85 234.907,85 240.084,77.2081 246.5,74 249.914,72.2932 261.496,79.498 264.5,81 280.023,88.7615 301,96.5791 301,117 302.624,117 303.75,119 306,119 306,119 307,118 307,118 307,118 310,113.5 310,113.5 310,113.5 309,104 309,104 309,104 309,103 309,103 309,103 308,102 308,102 308,102 307,99 307,99 307,99 306,98 306,98 306,98 299,88 299,88 299,88 299,87 299,87 296.785,87 297.481,85 296,85 296,85 295,84 295,84 295,84 283.5,77 283.5,77 274.39,72.4449 264.56,69.5301 255.5,65 248.274,61.3871 242.93,64.2851 237.5,67 237.5,67 230.5,75 230.5,75 230.5,75 228.5,72 228.5,72 228.5,72 225.5,75 225.5,75 225.5,75 213.5,63 213.5,63 210.32,61.4102 203.008,64.746 200.5,66 193.299,69.6003 184.023,71.2387 176.5,75 171.998,77.2509 166.149,84 161,84 161,84 160,85 160,85 160,85 159,86 159,86 159,86 158,87 158,87 158,87 157,88 157,88 157,88 156,89 156,89 156,89 155,91 155,91 155,91 154,92 154,92 154,92 153,93 153,93 153,93 152,95 152,95 152,95 151,96 151,96 151,97.2383 150.577,99 149,99 149,99 149,101 149,101 149,101 148,102 148,102 148,102 148,103 148,103 148,103 147,104 147,104 147,104 147,105 147,105 147,108.398 145.431,111.362 147,114.5 147,114.5 150,119 150,119  Z"/>

<path  fill="#CBC9C7" stroke-width="0" stroke="#CBC9C7" d = " M391 127 L393,134 C390.14,134 382.603,115 380,115 380,112.928 368.678,102.089 366.5,101 366.5,101 355.5,91 355.5,91 355.5,91 328.5,73 328.5,73 326.196,71.8481 314,65.6549 314,63 314,63 317,63 317,63 324.701,63 346.514,86 353,86 353,86 368,98 368,98 368,98 376,106 376,106 376,106 387,119.5 387,119.5 387.675,120.85 389.239,127 391,127  Z"/>

<path  fill="#08828B" stroke-width="0" stroke="#08828B" d = " M383 79 C383,81.2148 381,80.5187 381,82 374.356,82 369.25,69 363,69 363,69 363,68 363,68 364.803,68 366,64.4082 366,63 366,63 367,63 367,63 367,66.6571 383,74.7683 383,79  Z"/>

<path  fill="#08828B" stroke-width="0" stroke="#08828B" d = " M75 83 L76,83 C76,82.2754 91.5652,69 93,69 93,67.7618 91.0768,64 90,64 86.858,64 79.3135,72.1865 76.5,75 76.5,75 73,79 73,79 73,79 75,83 75,83  Z"/>

<path  fill="#08858A" stroke-width="0" stroke="#08858A" d = " M103 85 L104,86 C104,86 127.5,70 127.5,70 127.5,70 134,65 134,65 126.156,65 109.791,84 103,84 103,84 103,85 103,85  Z"/>

<path  fill="#C9CCC9" stroke-width="0" stroke="#C9CCC9" d = " M123 94 L124,94 C124,94 129,93 129,93 129,93 133,89 133,89 133,89 134,88 134,88 134,88 137,81 137,81 137,81 138,80 138,80 138,80 139,77 139,77 139,77 140,76 140,76 140,76 140,75 140,75 140,75 141,74 141,74 141,74 141,73 141,73 141,73 142,72 142,72 142,72 143,70 143,70 143,70 143,69 143,69 136.118,69 113,83.2284 113,91 114.926,91 123,91.8404 123,94  Z"/>

<path  fill="#7DCD4B" stroke-width="0" stroke="#7DCD4B" d = " M314 69 L317,76 C317,76 311,68 311,68 311,68 314,69 314,69  Z"/>

<path  fill="#C9CCC9" stroke-width="0" stroke="#C9CCC9" d = " M344 91 C341.846,91 333,91.5675 333,94 329.105,94 326.749,90 324,90 324,90 323,88 323,88 323,88 321,86 321,86 321,86 320,83 320,83 320,83 319,82 319,82 319,82 319,80 319,80 319,80 317,78 317,78 317,78 317,76 317,76 317,76 314,69 314,69 314,65.2712 322.599,72.5493 323.5,73 328.72,75.6099 344,83.9753 344,91  Z"/>

<path  fill="#0B858B" stroke-width="0" stroke="#0B858B" d = " M82 91 L83,91 C83,87.2233 98,79.1137 98,77 98,77 94,69 94,69 94,69 93,69 93,69 91.5652,69 76,82.2754 76,83 77.8905,83 82,89.3737 82,91  Z"/>

<path  fill="#7DCD4B" stroke-width="0" stroke="#7DCD4B" d = " M144 69 L143,70 C143,70 143,69 143,69 143,69 144,69 144,69  Z"/>

<path  fill="#0B858B" stroke-width="0" stroke="#0B858B" d = " M373 91 L374,91 C374,88.7671 379.192,83 381,83 381,83 381,82 381,82 374.356,82 369.25,69 363,69 363,69 358,77 358,77 358,77 358,78 358,78 361.525,78 373,87.8529 373,91  Z"/>

<path  fill="#7DCD4B" stroke-width="0" stroke="#7DCD4B" d = " M143 70 L142,72 C142,72 143,70 143,70  Z"/>

<path  fill="#0C858C" stroke-width="0" stroke="#0C858C" d = " M56 81 L59,83 C61.149,83 67,75.4977 67,73 67,73 65,71 65,71 65,71 56,81 56,81  Z"/>

<path  fill="#FF7AFD" stroke-width="0" stroke="#FF7AFD" d = " M164 73 L164,75 C165.712,75 167,72.4289 167,71 167,71 164,73 164,73  Z"/>

<path  fill="#0C858C" stroke-width="0" stroke="#0C858C" d = " M397 84 L398,84 C398,84 400,81 400,81 400,79.0977 393.032,71 392,71 392,71 389,73 389,73 389,73 389,74 389,74 389,74 397,84 397,84  Z"/>

<path  fill="#7DCD4B" stroke-width="0" stroke="#7DCD4B" d = " M142 72 L141,73 C141,73 142,72 142,72  Z"/>

<path  fill="#0A858A" stroke-width="0" stroke="#0A858A" d = " M64 89 L65,89 C65,85.566 72,83.0604 72,79 72,75.7492 68,76.1034 68,73 68,73 67,73 67,73 67,75.4977 61.149,83 59,83 59,83 59,84 59,84 59,84 64,89 64,89  Z"/>

<path  fill="#7DCD4B" stroke-width="0" stroke="#7DCD4B" d = " M141 74 L140,75 C140,75 141,74 141,74  Z"/>

<path  fill="#FF90FE" stroke-width="0" stroke="#FF90FE" d = " M169 120 C169,112.257 180.725,111.05 184,104.5 187.702,97.0952 205.827,84 214.5,84 218.492,84 225.424,90.0379 229.5,88 234.563,85.4687 243.69,82.0949 249.5,85 256.038,88.2692 259.061,94.7807 265.5,98 269.688,100.094 287,116.136 287,120 287,120 293.5,121 293.5,121 293.5,121 301,117 301,117 301,96.5791 280.023,88.7615 264.5,81 261.496,79.498 249.914,72.2932 246.5,74 240.084,77.2081 234.907,85 228.5,85 221.153,85 219.598,77.549 214.5,75 213.038,74.2689 211.064,74.782 209.5,74 206.571,72.5353 194.293,79.6034 191.5,81 176.15,88.6749 155,96.9327 155,117 155,117 159.5,120 159.5,120 162.799,121.65 165.694,120 169,120  Z"/>

<path  fill="#0A858A" stroke-width="0" stroke="#0A858A" d = " M391 89 L392,89 C392,89 397,84 397,84 397,84 389,74 389,74 389,74 384,79 384,79 384,82.5558 391,85.1036 391,89  Z"/>

<path  fill="#FF7AFD" stroke-width="0" stroke="#FF7AFD" d = " M163 80 L161,81 C161,81 161,79 161,79 161,79 161,78 161,78 161,78 162,76 162,76 162,76 163,75 163,75 163,75 164,75 164,75 164,75 163,80 163,80  Z"/>

<path  fill="#7DCD4B" stroke-width="0" stroke="#7DCD4B" d = " M140 76 L139,77 C139,77 140,76 140,76  Z"/>

<path  fill="#08848C" stroke-width="0" stroke="#08848C" d = " M83 91 L88,96 C92.6859,96 95.4595,87 101,87 101,87 103,85 103,85 103,85 103,84 103,84 103,81.5404 99,79.83 99,77 99,77 98,77 98,77 98,79.1137 83,87.2233 83,91  Z"/>

<path  fill="#7DCD4B" stroke-width="0" stroke="#7DCD4B" d = " M317 78 L319,80 C319,80 317,78 317,78  Z"/>

<path  fill="#08848C" stroke-width="0" stroke="#08848C" d = " M368 97 L369,97 C369,94.2266 373,93.3305 373,91 373,87.8529 361.525,78 358,78 358,78 353,84 353,84 353,84 353,85 353,85 355.343,85 368,94.0996 368,97  Z"/>

<path  fill="#08828C" stroke-width="0" stroke="#08828C" d = " M65 90 L67,91 C67,91 75,83 75,83 75,83 73,79 73,79 73,79 72,79 72,79 72,83.0604 65,85.566 65,89 65,89 65,90 65,90  Z"/>

<path  fill="#08828C" stroke-width="0" stroke="#08828C" d = " M389 92 L390,92 C390,92 391,91 391,91 391,91 391,89 391,89 391,85.1036 384,82.5558 384,79 384,79 383,79 383,79 383,81.2148 381,80.5187 381,82 381,82 381,83 381,83 383.097,83 389,90.1482 389,92  Z"/>

<path  fill="#7DCD4B" stroke-width="0" stroke="#7DCD4B" d = " M138 80 L137,81 C137,81 138,80 138,80  Z"/>

<path  fill="#15B0B3" stroke-width="0" stroke="#15B0B3" d = " M32 141 L27,142 C27,126.753 33.6727,114.155 40,101.5 40,101.5 47,92.5 47,92.5 47.9473,90.6055 54.0505,81 56,81 56,81 59,83 59,83 59,83 59,84 59,84 59,84 47,99.5 47,99.5 40.3749,112.75 32,125.017 32,141  Z"/>

<path  fill="#15B0B3" stroke-width="0" stroke="#15B0B3" d = " M424 141 L429,142 C429,118.628 420.106,112.712 411,94.5 409.942,92.3847 401.553,81 400,81 400,81 398,84 398,84 398,84 412,103.5 412,103.5 417.78,115.06 424,125.984 424,140 424,140 424,141 424,141  Z"/>

<path  fill="#7DCD4B" stroke-width="0" stroke="#7DCD4B" d = " M319 82 L320,83 C320,83 319,82 319,82  Z"/>

<path  fill="#0A848A" stroke-width="0" stroke="#0A848A" d = " M67 93 C70.4136,93 71.2072,99 75,99 75,99 82,91 82,91 82,89.3737 77.8905,83 76,83 76,83 75,83 75,83 75,83 67,91 67,91 67,91 67,93 67,93  Z"/>

<path  fill="#C7CBCB" stroke-width="0" stroke="#C7CBCB" d = " M159 85 L160,85 C160,85 161,84 161,84 161,84 161,83 161,83 161,83 159,85 159,85  Z"/>

<path  fill="#C7CBCB" stroke-width="0" stroke="#C7CBCB" d = " M299 86 L299,87 C296.785,87 297.481,85 296,85 296,85 295,84 295,84 295,84 295,83 295,83 295,83 298,85 298,85 298,85 299,86 299,86  Z"/>

<path  fill="#0A848A" stroke-width="0" stroke="#0A848A" d = " M381 100 L382,100 C382,96.1111 389,95.5832 389,92 389,90.1482 383.097,83 381,83 379.192,83 374,88.7671 374,91 375.009,91 381,98.4893 381,100  Z"/>

<path  fill="#16AFB3" stroke-width="0" stroke="#16AFB3" d = " M40 139 L32,141 C32,125.017 40.3749,112.75 47,99.5 47,99.5 59,84 59,84 59,84 64,89 64,89 64,89 53,103.5 53,103.5 46.9148,115.67 40,124.092 40,139  Z"/>

<path  fill="#FF8FFF" stroke-width="0" stroke="#FF8FFF" d = " M275 125 L276,125 C276,122.936 279.353,124.574 280.5,124 281.808,123.346 285.814,120 287,120 287,116.136 269.688,100.094 265.5,98 259.061,94.7807 256.038,88.2692 249.5,85 243.69,82.0949 234.563,85.4687 229.5,88 225.424,90.0379 218.492,84 214.5,84 205.827,84 187.702,97.0952 184,104.5 180.725,111.05 169,112.257 169,120 169,120 175.5,124 175.5,124 176.647,124.574 180,122.936 180,125 180,125 182,125 182,125 183.954,125 192,123.414 192,121 192,109.201 199.562,97.9689 209.5,93 209.5,93 226,93 226,93 226,93 246.5,93 246.5,93 256.149,97.8246 265,109.329 265,121 265,124.008 272.116,125 275,125  Z"/>

<path  fill="#FF64FF" stroke-width="0" stroke="#FF64FF" d = " M295 84 L296,85 C296,85 295,84 295,84  Z"/>

<path  fill="#16AFB3" stroke-width="0" stroke="#16AFB3" d = " M417 139 L424,140 C424,125.984 417.78,115.06 412,103.5 412,103.5 398,84 398,84 398,84 397,84 397,84 397,84 392,89 392,89 392,89 399.5,99 399.5,99 407.603,103.052 417,129.22 417,139  Z"/>

<path  fill="#09858C" stroke-width="0" stroke="#09858C" d = " M104 86 L101,87 C101,87 103,85 103,85 103,85 104,86 104,86  Z"/>

<path  fill="#CAC7CB" stroke-width="0" stroke="#CAC7CB" d = " M158 86 L159,86 C159,86 159,85 159,85 159,85 158,85 158,85 158,85 158,86 158,86  Z"/>

<path  fill="#FF64FF" stroke-width="0" stroke="#FF64FF" d = " M160 85 L159,86 C159,86 159,85 159,85 159,85 160,85 160,85  Z"/>

<path  fill="#CAC7CB" stroke-width="0" stroke="#CAC7CB" d = " M299 85 L299,86 C299,86 298,85 298,85 298,85 299,85 299,85  Z"/>

<path  fill="#09858C" stroke-width="0" stroke="#09858C" d = " M368 97 L368,98 C368,98 353,86 353,86 353,86 353,85 353,85 355.343,85 368,94.0996 368,97  Z"/>

<path  fill="#CAC7CB" stroke-width="0" stroke="#CAC7CB" d = " M157 87 L158,87 C158,87 158,86 158,86 158,86 157,86 157,86 157,86 157,87 157,87  Z"/>

<path  fill="#C7CBCB" stroke-width="0" stroke="#C7CBCB" d = " M159 86 L158,87 C158,87 158,86 158,86 158,86 159,86 159,86  Z"/>

<path  fill="#7DCD4B" stroke-width="0" stroke="#7DCD4B" d = " M321 86 L323,88 C323,88 321,86 321,86  Z"/>

<path  fill="#09858C" stroke-width="0" stroke="#09858C" d = " M88 97 L89,97 C90.7972,97 101,89.0057 101,87 95.4595,87 92.6859,96 88,96 88,96 88,97 88,97  Z"/>

<path  fill="#CAC7CB" stroke-width="0" stroke="#CAC7CB" d = " M156 88 L157,88 C157,88 157,87 157,87 157,87 156,88 156,88  Z"/>

<path  fill="#C7CBCB" stroke-width="0" stroke="#C7CBCB" d = " M158 87 L157,88 C157,88 157,87 157,87 157,87 158,87 158,87  Z"/>

<path  fill="#CAC7CB" stroke-width="0" stroke="#CAC7CB" d = " M301 88 L302,90 C302,90 299,88 299,88 299,88 299,87 299,87 299,87 301,88 301,88  Z"/>

<path  fill="#7DCD4B" stroke-width="0" stroke="#7DCD4B" d = " M134 88 L133,89 C133,89 134,88 134,88  Z"/>

<path  fill="#CAC7CB" stroke-width="0" stroke="#CAC7CB" d = " M155 89 L156,89 C156,89 156,88 156,88 156,88 155,89 155,89  Z"/>

<path  fill="#C7CBCB" stroke-width="0" stroke="#C7CBCB" d = " M157 88 L156,89 C156,89 156,88 156,88 156,88 157,88 157,88  Z"/>

<path  fill="#C7CBCB" stroke-width="0" stroke="#C7CBCB" d = " M306 98 L307,98 C307,98 307,97 307,97 307,97 306,96 306,96 306,96 305,94 305,94 305,94 303,92 303,92 303,92 303,91 303,91 303,91 302,90 302,90 302,90 299,88 299,88 299,88 306,98 306,98  Z"/>

<path  fill="#15B0B2" stroke-width="0" stroke="#15B0B2" d = " M40 139 L42,139 C42,126.052 52.017,116.466 57,106.5 57.8538,104.792 62.1422,96 64,96 64,96 64,95 64,95 64,95 65,93 65,93 65,93 65,90 65,90 65,90 65,89 65,89 65,89 64,89 64,89 64,89 53,103.5 53,103.5 46.9148,115.67 40,124.092 40,139  Z"/>

<path  fill="#C7CBCB" stroke-width="0" stroke="#C7CBCB" d = " M155 90 L155,91 C155,91 156,89 156,89 156,89 155,89 155,89 155,89 155,90 155,90  Z"/>

<path  fill="#15B0B2" stroke-width="0" stroke="#15B0B2" d = " M414 139 L417,139 C417,129.22 407.603,103.052 399.5,99 399.5,99 392,89 392,89 392,89 391,89 391,89 391,89 391,91 391,91 391,91.839 392.93,93 391,93 391,93 391,94 391,94 391,94 392,95 392,95 392,95 393,96 393,96 393,96 393,97 393,97 395.058,97 398.209,103.918 399,105.5 404.635,116.771 414,125.398 414,139  Z"/>

<path  fill="#0A828A" stroke-width="0" stroke="#0A828A" d = " M65 93 L67,93 C67,93 67,91 67,91 67,91 65,90 65,90 65,90 65,93 65,93  Z"/>

<path  fill="#CAC7CB" stroke-width="0" stroke="#CAC7CB" d = " M154 91 L155,91 C155,91 155,90 155,90 155,90 154,90 154,90 154,90 154,91 154,91  Z"/>

<path  fill="#7DCD4B" stroke-width="0" stroke="#7DCD4B" d = " M333 94 C333,96.2661 329,93.5463 329,97 329,97 324,90 324,90 326.749,90 329.105,94 333,94  Z"/>

<path  fill="#088488" stroke-width="0" stroke="#088488" d = " M79 105 L80,105 C80,105 88,97 88,97 88,97 88,96 88,96 88,96 83,91 83,91 83,91 82,91 82,91 82,91 75,99 75,99 75,99 75,100 75,100 75.8413,100 79,104.008 79,105  Z"/>

<path  fill="#C7C8CC" stroke-width="0" stroke="#C7C8CC" d = " M123 94 L110.5,94 C107.853,95.3235 104.1,97 101,97 101,95.2504 111.114,91 113,91 114.926,91 123,91.8404 123,94  Z"/>

<path  fill="#CAC7CB" stroke-width="0" stroke="#CAC7CB" d = " M153 92 L154,92 C154,92 154,91 154,91 154,91 153,92 153,92  Z"/>

<path  fill="#C7CBCB" stroke-width="0" stroke="#C7CBCB" d = " M155 91 L154,92 C154,92 154,91 154,91 154,91 155,91 155,91  Z"/>

<path  fill="#C7C8CC" stroke-width="0" stroke="#C7C8CC" d = " M379 115 C379,117.919 383,119.243 383,122 380.168,122 368.524,103 363,103 363,96.5446 338.97,94 333,94 333,91.5675 341.846,91 344,91 344,91 360.5,99 360.5,99 360.5,99 379,115 379,115  Z"/>

<path  fill="#088488" stroke-width="0" stroke="#088488" d = " M381 100 L377,104 C377,104 369,97 369,97 369,94.2266 373,93.3305 373,91 373,91 374,91 374,91 375.009,91 381,98.4893 381,100  Z"/>

<path  fill="#0A828A" stroke-width="0" stroke="#0A828A" d = " M390 92 L391,93 C392.93,93 391,91.839 391,91 391,91 390,92 390,92  Z"/>

<path  fill="#C7CBCB" stroke-width="0" stroke="#C7CBCB" d = " M154 92 L153,93 C153,93 153,92 153,92 153,92 154,92 154,92  Z"/>

<path  fill="#CAC7CB" stroke-width="0" stroke="#CAC7CB" d = " M303 92 L305,94 C305,94 303,92 303,92  Z"/>

<path  fill="#0B838A" stroke-width="0" stroke="#0B838A" d = " M392 114 L393,114 C393,109.76 391,104.393 391,100.5 391,99.7962 391.251,97 393,97 393,97 393,96 393,96 393,96 392,95 392,95 392,95 391,94 391,94 391,94 391,93 391,93 391,93 390,92 390,92 390,92 389,92 389,92 389,95.5832 382,96.1111 382,100 382,104.54 392,108.782 392,114  Z"/>

<path  fill="#0A828A" stroke-width="0" stroke="#0A828A" d = " M64 95 L65,95 C65,95 65,93 65,93 65,93 64,95 64,95  Z"/>

<path  fill="#0B838A" stroke-width="0" stroke="#0B838A" d = " M75 100 L65,111 C65,105.55 64,100.184 64,96 64,96 65,95 65,95 65,95 65,93 65,93 65,93 67,93 67,93 70.4136,93 71.2072,99 75,99 75,99 75,100 75,100  Z"/>

<path  fill="#7DCD4B" stroke-width="0" stroke="#7DCD4B" d = " M124 94 L128,96 C129.473,96 129,94.0479 129,93 129,93 124,94 124,94  Z"/>

<path  fill="#C7CBCB" stroke-width="0" stroke="#C7CBCB" d = " M152 94 L152,95 C152,95 153,93 153,93 153,93 152,94 152,94  Z"/>

<path  fill="#FF8FFE" stroke-width="0" stroke="#FF8FFE" d = " M262 121 L265,121 C265,109.329 256.149,97.8246 246.5,93 246.5,93 226,93 226,93 226,93 209.5,93 209.5,93 199.562,97.9689 192,109.201 192,121 192,121 194,121 194,121 194,112.39 203.531,98.9844 211.5,95 211.5,95 225.5,95 225.5,95 225.5,95 244.5,95 244.5,95 253.273,99.3865 262,111.64 262,121  Z"/>

<path  fill="#4FC244" stroke-width="0" stroke="#4FC244" d = " M108 129 L106,130 C104.675,130 103.57,124.639 103,123.5 100.089,117.678 93,109.725 93,103 93,103 93,102 93,102 93,102 95,101 95,101 96.2383,101 98,100.577 98,99 99.2383,99 101,98.5774 101,97 104.1,97 107.853,95.3235 110.5,94 110.5,94 123,94 123,94 123,94 124,94 124,94 124,94 128,96 128,96 128,100.658 124,105.143 124,109 124,113.69 108,125.113 108,129  Z"/>

<path  fill="#CAC7CB" stroke-width="0" stroke="#CAC7CB" d = " M151 95 L152,95 C152,95 152,94 152,94 152,94 151,95 151,95  Z"/>

<path  fill="#4FC244" stroke-width="0" stroke="#4FC244" d = " M350 130 L351,131 C351,120.907 363,113.323 363,103 363,96.5446 338.97,94 333,94 333,96.2661 329,93.5463 329,97 329,101.868 332,104.951 332,109 332,109 350,130 350,130  Z"/>

<path  fill="#0A828A" stroke-width="0" stroke="#0A828A" d = " M391 94 L392,95 C392,95 391,94 391,94  Z"/>

<path  fill="#15AFB3" stroke-width="0" stroke="#15AFB3" d = " M65 95 L64,96 C64,96 64,95 64,95 64,95 65,95 65,95  Z"/>

<path  fill="#CAC7CB" stroke-width="0" stroke="#CAC7CB" d = " M150 96 L151,96 C151,96 151,95 151,95 151,95 150,96 150,96  Z"/>

<path  fill="#C7CBCB" stroke-width="0" stroke="#C7CBCB" d = " M152 95 L151,96 C151,96 151,95 151,95 151,95 152,95 152,95  Z"/>

<path  fill-rule="evenodd" fill="#FC8FFF" stroke-width="0" stroke="#FC8FFF" d = " M233 135 L232,138.5 C233.125,140.749 240.479,146.51 243.5,145 249.299,142.101 235.839,135 233,135  M221 135 C221,136.233 206.151,141.326 213.5,145 217.673,147.087 229.668,135 221,135  M239 149 L243,149 C243,149 244,148 244,148 244,148 245,147 245,147 248.155,147 257.938,128 262,128 262,128 262,121 262,121 262,111.64 253.273,99.3865 244.5,95 244.5,95 225.5,95 225.5,95 225.5,95 211.5,95 211.5,95 203.531,98.9844 194,112.39 194,121 194,121 194,128 194,128 198.651,128 208.554,147 211,147 211,147 212,148 212,148 212,148 213,148 213,148 213,148 217,149 217,149 217,146.539 220.378,147 222,147 226.765,147 227,127.224 227,123 227,123 226,120.5 226,120.5 226.986,118.527 231,117.385 231,120.5 231,120.5 229,123 229,123 229,125.253 229.984,129.469 231,131.5 231,131.5 231,145.5 231,145.5 231,145.5 234,147 234,147 235.622,147 239,146.539 239,149  Z"/>

<path  fill="#15AFB3" stroke-width="0" stroke="#15AFB3" d = " M392 95 L393,96 C393,96 392,95 392,95  Z"/>

<path  fill="#15AFB3" stroke-width="0" stroke="#15AFB3" d = " M42 139 L53,139 C53,139 54,138 54,138 54,134.568 61.83,115 64,115 64,115 64,113 64,113 64,113 65,111 65,111 65,105.55 64,100.184 64,96 62.1422,96 57.8538,104.792 57,106.5 52.017,116.466 42,126.052 42,139  Z"/>

<path  fill="#C7CBCB" stroke-width="0" stroke="#C7CBCB" d = " M151 96 C151,97.2383 150.577,99 149,99 149,99 150,96 150,96 150,96 151,96 151,96  Z"/>

<path  fill="#CAC7CB" stroke-width="0" stroke="#CAC7CB" d = " M306 96 L307,97 C307,97 306,96 306,96  Z"/>

<path  fill="#08818B" stroke-width="0" stroke="#08818B" d = " M80 105 L80,106 C80,106 89,97 89,97 89,97 88,97 88,97 88,97 80,105 80,105  Z"/>

<path  fill="#C7C8CC" stroke-width="0" stroke="#C7C8CC" d = " M101 97 C99.7617,97 98,97.4226 98,99 99.2383,99 101,98.5774 101,97  Z"/>

<path  fill="#08818B" stroke-width="0" stroke="#08818B" d = " M377 105 L376,106 C376,106 368,98 368,98 368,98 368,97 368,97 368,97 369,97 369,97 369,97 377,104 377,104 377,104 377,105 377,105  Z"/>

<path  fill="#15AFB3" stroke-width="0" stroke="#15AFB3" d = " M403 139 L414,139 C414,125.398 404.635,116.771 399,105.5 398.209,103.918 395.058,97 393,97 391.251,97 391,99.7962 391,100.5 391,104.393 393,109.76 393,114 393,120.68 403,130.053 403,138 403,138 403,139 403,139  Z"/>

<path  fill="#FF64FF" stroke-width="0" stroke="#FF64FF" d = " M307 98 L307,99 C307,99 306,98 306,98 306,98 307,98 307,98  Z"/>

<path  fill="#CAC7CB" stroke-width="0" stroke="#CAC7CB" d = " M307 99 L308,99 C308,99 307,98 307,98 307,98 307,99 307,99  Z"/>

<path  fill="#C7C8CC" stroke-width="0" stroke="#C7C8CC" d = " M98 99 C96.7617,99 95,99.4226 95,101 96.2383,101 98,100.577 98,99  Z"/>

<path  fill="#C7CBCB" stroke-width="0" stroke="#C7CBCB" d = " M148 101 L149,101 C149,101 149,99 149,99 149,99 148,100 148,100 148,100 148,101 148,101  Z"/>

<path  fill="#C7CBCB" stroke-width="0" stroke="#C7CBCB" d = " M308 102 L309,102 C309,102 309,101 309,101 309,101 309,100 309,100 309,100 308,99 308,99 308,99 307,99 307,99 307,99 308,102 308,102  Z"/>

<path  fill="#0C858B" stroke-width="0" stroke="#0C858B" d = " M64 115 L65,124 C69.1514,124 69.6034,111 75,111 75,108.227 79,107.33 79,105 79,104.008 75.8413,100 75,100 75,100 65,111 65,111 65,111 64,113 64,113 64,113 64,115 64,115  Z"/>

<path  fill="#0C858B" stroke-width="0" stroke="#0C858B" d = " M392 114 C392,115.657 392.763,124 391,124 391,122.302 382.277,110.777 380.5,109 380.5,109 377,105 377,105 377,105 377,104 377,104 377,104 381,100 381,100 381,100 382,100 382,100 382,104.54 392,108.782 392,114  Z"/>

<path  fill="#C7C8CC" stroke-width="0" stroke="#C7C8CC" d = " M95 101 L93,102 C93,102 95,101 95,101  Z"/>

<path  fill="#C7CBCB" stroke-width="0" stroke="#C7CBCB" d = " M147 103 L148,103 C148,103 148,102 148,102 148,102 148,101 148,101 148,101 147,101 147,101 147,101 147,102 147,102 147,102 147,103 147,103  Z"/>

<path  fill="#FF64FF" stroke-width="0" stroke="#FF64FF" d = " M149 101 L148,102 C148,102 148,101 148,101 148,101 149,101 149,101  Z"/>

<path  fill="#C7C8CC" stroke-width="0" stroke="#C7C8CC" d = " M93 103 L89,105 C89,103.288 91.5711,102 93,102 93,102 93,103 93,103  Z"/>

<path  fill="#FF64FF" stroke-width="0" stroke="#FF64FF" d = " M309 102 L309,103 C309,103 308,102 308,102 308,102 309,102 309,102  Z"/>

<path  fill="#57B947" stroke-width="0" stroke="#57B947" d = " M71 195 L73,197 C78.9614,197 90.4808,185 99,185 99,185 95,176.5 95,176.5 94.2197,174.939 93.0226,155.455 94,153.5 96.729,148.042 98.2368,142.026 101,136.5 101,136.5 106,130 106,130 104.675,130 103.57,124.639 103,123.5 100.089,117.678 93,109.725 93,103 93,103 89,105 89,105 89,106.747 88.7469,107 87,107 87,107 85,109 85,109 85,109 81,113 81,113 81,113 79,115 79,115 79,116.747 78.7469,117 77,117 77,117 76,119 76,119 76,119 75,120 75,120 75,121.238 74.5774,123 73,123 73,123 72,125 72,125 72,125 71,126 71,126 71,126 71,127 71,127 71,128.238 70.5774,130 69,130 69,130 69,131 69,131 69,131 68,133 68,133 68,133 67,135 67,135 67,136.424 66.6384,140 65,140 65,140 65,141 65,141 65,142.145 65.5791,145 64,145 64,146.406 64.7136,152 63,152 63,152 63,153 63,153 63,153 63,162 63,162 63,162 63,164 63,164 64.2321,164 65,174.288 65,176 65,176 65,177 65,177 66.3529,177 67,181.643 67,183 67,183 67,184 67,184 68.3529,184 69,188.643 69,190 69,190 69,191 69,191 70.5774,191 71,192.762 71,194 71,194 71,195 71,195  Z"/>

<path  fill="#FF64FF" stroke-width="0" stroke="#FF64FF" d = " M148 103 L147,104 C147,104 147,103 147,103 147,103 148,103 148,103  Z"/>

<path  fill="#57B947" stroke-width="0" stroke="#57B947" d = " M383 197 L384,197 C384,197 385,195 385,195 385,195 386,193 386,193 386,193 387,191 387,191 387,189.576 387.362,186 389,186 389,186 389,185 389,185 389,183.377 389.005,179 391,179 391,179 391,178 391,178 391,176.512 391.924,167 393,167 393,167 393,149 393,149 393,149 393,148 393,148 392.382,148 389,136.302 389,135 389,135 389,133 389,133 387.423,133 387,131.238 387,130 387,130 387,129 387,129 385.423,129 385,127.238 385,126 385,126 385,125 385,125 385,125 383,123 383,123 383,123 383,122 383,122 380.168,122 368.524,103 363,103 363,113.323 351,120.907 351,131 351,131 356,137.5 356,137.5 359.027,143.553 360.028,150.555 363,156.5 367.508,165.516 358,177.264 358,185 365.177,185 378.314,197 383,197  Z"/>

<path  fill="#FF64FF" stroke-width="0" stroke="#FF64FF" d = " M307 118 L311,118 C311,116.288 309.788,115 313,115 313,115 311,112.5 311,112.5 310.187,110.875 311.67,104 309,104 309,104 310,113.5 310,113.5 310,113.5 307,118 307,118  Z"/>

<path  fill="#0C848C" stroke-width="0" stroke="#0C848C" d = " M80 106 C80,107.992 76.6613,111 75,111 75,108.227 79,107.33 79,105 79,105 80,105 80,105 80,105 80,106 80,106  Z"/>

<path  fill="#C7C8CC" stroke-width="0" stroke="#C7C8CC" d = " M89 105 L87,107 C88.7469,107 89,106.747 89,105  Z"/>

<path  fill="#FF64FF" stroke-width="0" stroke="#FF64FF" d = " M146 118 L150,119 C150,119 147,114.5 147,114.5 145.431,111.362 147,108.398 147,105 145.627,105 144,113.535 144,115 146.293,115 146,115.997 146,118  Z"/>

<path  fill="#0C848C" stroke-width="0" stroke="#0C848C" d = " M391 126 L391,127 C389.239,127 387.675,120.85 387,119.5 387,119.5 376,106 376,106 376,106 377,105 377,105 377,105 380.5,109 380.5,109 382.277,110.777 391,122.302 391,124 391,124 391,126 391,126  Z"/>

<path  fill="#C7C8CC" stroke-width="0" stroke="#C7C8CC" d = " M87 107 C85.2531,107 85,107.253 85,109 85,109 87,107 87,107  Z"/>

<path  fill="#C7C8CC" stroke-width="0" stroke="#C7C8CC" d = " M85 109 C82.7736,109 81,110.774 81,113 81,113 85,109 85,109  Z"/>

<path  fill="#59B847" stroke-width="0" stroke="#59B847" d = " M123 141 L125,141 C125,141 126,137 126,137 126,137 127,136 127,136 127,132.762 130,130.7 130,128 130,128 131,127 131,127 131,121.292 141,115.45 141,110 136.081,110 129.587,109 124,109 124,113.69 108,125.113 108,129 108,129 111.5,127 111.5,127 120.194,122.653 123,135.565 123,141  Z"/>

<path  fill="#59B847" stroke-width="0" stroke="#59B847" d = " M333 139 C333,140.747 332.747,141 331,141 331,141 331,138 331,138 331,138 330,137 330,137 330,128.123 316,117.648 316,110 316,108.199 329.842,109 332,109 332,109 350,130 350,130 350,130 344.5,127 344.5,127 337.474,123.487 333,134.131 333,139  Z"/>

<path  fill="#0B838A" stroke-width="0" stroke="#0B838A" d = " M65 111 L64,113 C64,113 65,111 65,111  Z"/>

<path  fill="#0C848C" stroke-width="0" stroke="#0C848C" d = " M65 126 L66,126 C66,126 69,122.5 69,122.5 70.4671,119.566 75,114.332 75,111 69.6034,111 69.1514,124 65,124 65,124 65,126 65,126  Z"/>

<path  fill="#C7C8CC" stroke-width="0" stroke="#C7C8CC" d = " M81 113 C79.2531,113 79,113.253 79,115 79,115 81,113 81,113  Z"/>

<path  fill="#15AFB2" stroke-width="0" stroke="#15AFB2" d = " M403 138 C401.436,138 399.124,139 397,139 397,139 396,138 396,138 396,135.804 393.235,126 391,126 391,126 391,124 391,124 392.763,124 392,115.657 392,114 392,114 393,114 393,114 393,120.68 403,130.053 403,138  Z"/>

<path  fill="#15AFB2" stroke-width="0" stroke="#15AFB2" d = " M60 138 L59,139 C59,139 54,138 54,138 54,134.568 61.83,115 64,115 64,115 65,124 65,124 65,124 65,126 65,126 65,129.926 60,133.609 60,138  Z"/>

<path  fill="#C8CBCC" stroke-width="0" stroke="#C8CBCC" d = " M75 120 L73,121 C73,119.336 74.8225,115 77,115 77,115 78,115 78,115 78,115 77,117 77,117 77,117 76,119 76,119 76,119 75,120 75,120  Z"/>

<path  fill="#C7C8CC" stroke-width="0" stroke="#C7C8CC" d = " M79 115 C79,116.747 78.7469,117 77,117 77,117 78,115 78,115 78,115 79,115 79,115  Z"/>

<path  fill="#C9C8C8" stroke-width="0" stroke="#C9C8C8" d = " M139 141 L135,143 C135,138.326 135.793,115 144,115 146.293,115 146,115.997 146,118 146,118 145,119 145,119 145,121.827 142.169,123.163 141,125.5 141,125.5 139,141 139,141  Z"/>

<path  fill="#C9C8C8" stroke-width="0" stroke="#C9C8C8" d = " M317 141 C318.624,141 319.75,143 322,143 322,137.52 319.148,115 313,115 309.788,115 311,116.288 311,118 311,118 316,127.5 316,127.5 316,127.5 317,141 317,141  Z"/>

<path  fill="#C8CBCC" stroke-width="0" stroke="#C8CBCC" d = " M385 195 L385,197 C387.268,197 389.228,191.044 390,189.5 393.921,181.658 397,169.159 397,160 397,160 397,150 397,150 397,145.629 395,141.981 395,138 395,138 394,135 394,135 394,135 393,134 393,134 390.14,134 382.603,115 380,115 380,115 379,115 379,115 379,117.919 383,119.243 383,122 383,122 383,123 383,123 383,123 385,125 385,125 385,125 385,126 385,126 386.577,126 387,127.762 387,129 387,129 387,130 387,130 387,130 389,133 389,133 389,133 389,135 389,135 391.936,135 393,145.46 393,148 393,148 393,149 393,149 394.652,149 394.652,167 393,167 393,169.161 393.497,178 391,178 391,178 391,179 391,179 391,180.357 390.353,185 389,185 389,185 389,186 389,186 389,187.424 388.638,191 387,191 387,191 386,193 386,193 386,193 385,195 385,195  Z"/>

<path  fill="#C7C8CC" stroke-width="0" stroke="#C7C8CC" d = " M77 117 L76,119 C76,119 77,117 77,117  Z"/>

<path  fill="#FF64FF" stroke-width="0" stroke="#FF64FF" d = " M151 125 C160.359,125 169.905,125 180,125 180,122.936 176.647,124.574 175.5,124 175.5,124 169,120 169,120 165.694,120 162.799,121.65 159.5,120 159.5,120 155,117 155,117 155,119.109 152.465,119 151,119 151,119 151,125 151,125  Z"/>

<path  fill="#FF64FF" stroke-width="0" stroke="#FF64FF" d = " M276 125 L301.5,124 L306,126 C306,124.154 306,120.846 306,119 303.75,119 302.624,117 301,117 301,117 293.5,121 293.5,121 293.5,121 287,120 287,120 285.814,120 281.808,123.346 280.5,124 279.353,124.574 276,122.936 276,125  Z"/>

<path  fill="#FF64FF" stroke-width="0" stroke="#FF64FF" d = " M146 118 L145,119 C145,119 146,118 146,118  Z"/>

<path  fill="#FE7AFD" stroke-width="0" stroke="#FE7AFD" d = " M147 136 C145.41,136 145.557,140.386 145,141.5 143.982,143.536 139,143.849 139,141 139,141 141,125.5 141,125.5 142.169,123.163 145,121.827 145,119 145,119 146,118 146,118 146,118 150,119 150,119 150,119 151,119 151,119 151,119 151,125 151,125 151,125 151,126 151,126 151,126 150,127 150,127 148.986,127 148,130.959 148,132 148,132 147,133 147,133 147,133 147,136 147,136  Z"/>

<path  fill="#A9A9A8" stroke-width="0" stroke="#A9A9A8" d = " M227 123 L229,123 C229,123 231,120.5 231,120.5 231,117.385 226.986,118.527 226,120.5 226,120.5 227,123 227,123  Z"/>

<path  fill="#FE7AFD" stroke-width="0" stroke="#FE7AFD" d = " M309 134 C310.993,134 310.35,139.2 311,140.5 312.202,142.904 317,144.705 317,141 317,141 316,127.5 316,127.5 316,127.5 311,118 311,118 311,118 307,118 307,118 307,118 306,119 306,119 306,120.846 306,124.154 306,126 306,128.7 309,130.762 309,134  Z"/>

<path  fill="#C7C8CC" stroke-width="0" stroke="#C7C8CC" d = " M76 119 L75,120 C75,120 76,119 76,119  Z"/>

<path  fill="#C7C8CC" stroke-width="0" stroke="#C7C8CC" d = " M73 121 L73,123 C74.5774,123 75,121.238 75,120 75,120 73,121 73,121  Z"/>

<path  fill="#C8CBCC" stroke-width="0" stroke="#C8CBCC" d = " M73 199 L73,200 C70.7645,200 69.7129,194.926 69,193.5 63.7783,183.057 60,172.569 60,160 60,157.31 59,153.325 59,150 59,150 61,138 61,138 62.0144,138 63,134.041 63,133 68.1707,133 67.994,121 73,121 73,121 73,123 73,123 73,123 72,125 72,125 72,125 71,126 71,126 71,126 71,127 71,127 69.4226,127 69,128.762 69,130 69,130 69,131 69,131 69,131 68,133 68,133 68,133 67,135 67,135 65.3616,135 65,138.576 65,140 65,140 65,141 65,141 63.4209,141 64,143.855 64,145 62.2864,145 63,150.594 63,152 63,152 63,153 63,153 61.3783,153 61.3783,162 63,162 63,162 63,164 63,164 63,166.264 62.3733,176 65,176 65,176 65,177 65,177 65,178.623 65.0047,183 67,183 67,183 67,184 67,184 67,185.357 67.6471,190 69,190 69,190 69,191 69,191 69,192.238 69.4226,194 71,194 71,194 71,195 71,195 71,196.238 71.4226,198 73,198 73,198 73,199 73,199  Z"/>

<path  fill="#FF64FF" stroke-width="0" stroke="#FF64FF" d = " M182 125 C182,125.256 192.955,128 194,128 194,128 194,121 194,121 194,121 192,121 192,121 192,123.414 183.954,125 182,125  Z"/>

<path  fill="#FF64FF" stroke-width="0" stroke="#FF64FF" d = " M275 125 C275,125.164 263.044,128 262,128 262,128 262,121 262,121 262,121 265,121 265,121 265,124.008 272.116,125 275,125  Z"/>

<path  fill="#C7C8CC" stroke-width="0" stroke="#C7C8CC" d = " M73 123 L72,125 C72,125 73,123 73,123  Z"/>

<path  fill="#FF64FF" stroke-width="0" stroke="#FF64FF" d = " M233 167 C231.098,167 226.928,165.286 225.5,166 L223,168 C223,167.476 224.962,163 223.5,163 223.5,163 221,165 221,165 221,165 221,164 221,164 221,164 221,159 221,159 221,159 224.5,163 224.5,163 229.274,163 223,158.229 223,157 229.198,157 222,148.239 222,147 226.765,147 227,127.224 227,123 227,123 229,123 229,123 229,125.253 229.984,129.469 231,131.5 231,131.5 231,145.5 231,145.5 231,145.5 234,147 234,147 234,149.535 226.459,157 234,157 234,157.499 227.207,163 233,163 233,164.533 233,165.095 233,167  Z"/>

<path  fill="#C7C8CC" stroke-width="0" stroke="#C7C8CC" d = " M383 123 L385,125 C385,125 383,123 383,123  Z"/>

<path  fill-rule="evenodd" fill="#FF8FFD" stroke-width="0" stroke="#FF8FFD" d = " M195 161 C195,163.598 187.216,165.933 190,171.5 199.587,190.673 222.29,161 195,161  M209 179 C206.987,179 202.918,182.791 200.5,184 195.819,186.34 189.583,184 185,184 185,181.406 192.799,183.099 189,175.5 186.269,170.037 167,169.222 167,175 163.07,175 160.139,166.778 159,164.5 154.505,155.51 147,146.737 147,136 147,136 147,133 147,133 147,133 148,132 148,132 148,130.959 148.986,127 150,127 150,127 151,126 151,126 151,126 151,125 151,125 160.359,125 169.905,125 180,125 180,125 182,125 182,125 182,125.256 192.955,128 194,128 198.651,128 208.554,147 211,147 211,147 212,148 212,148 212,148 213,148 213,148 213,148 216,152 216,152 216,155.694 221,156.561 221,159 221,159 221,164 221,164 216.055,164 209,174.496 209,179  Z"/>

<path  fill-rule="evenodd" fill="#FF8FFD" stroke-width="0" stroke="#FF8FFD" d = " M253 161 C253,163.816 246.096,166.693 248,170.5 257.083,188.666 276.266,168.383 261.5,161 L253,161  M247 178 L255.5,184 C260.449,186.475 267.043,184 272,184 272,182.82 264.011,181.478 267,175.5 269.7,170.101 289,168.548 289,175 292.836,175 295.395,168.711 297,165.5 302.258,154.985 309,146.765 309,134 309,130.762 306,128.7 306,126 306,126 301.5,124 301.5,124 301.5,124 276,125 276,125 276,125 275,125 275,125 275,125.164 263.044,128 262,128 257.938,128 248.155,147 245,147 245,147 244,148 244,148 244,148 243,149 243,149 243,149 241,152 241,152 241,153.6 236.871,159 235,159 235,159 235,164 235,164 239.976,164 247,172.992 247,178  Z"/>

<path  fill="#C7C8CC" stroke-width="0" stroke="#C7C8CC" d = " M72 125 L71,126 C71,126 72,125 72,125  Z"/>

<path  fill="#16B0B2" stroke-width="0" stroke="#16B0B2" d = " M60 138 L61,138 C62.0144,138 63,134.041 63,133 63,130.913 66,128.607 66,126 66,126 65,126 65,126 65,129.926 60,133.609 60,138  Z"/>

<path  fill="#FF64FF" stroke-width="0" stroke="#FF64FF" d = " M151 126 L150,127 C150,127 151,126 151,126  Z"/>

<path  fill="#C7C8CC" stroke-width="0" stroke="#C7C8CC" d = " M385 126 C386.577,126 387,127.762 387,129 385.423,129 385,127.238 385,126  Z"/>

<path  fill="#16B0B2" stroke-width="0" stroke="#16B0B2" d = " M395 138 L396,138 C396,135.804 393.235,126 391,126 391,126 391,127 391,127 391,127 393,134 393,134 393,134 394,135 394,135 394,135 395,138 395,138  Z"/>

<path  fill="#C7C8CC" stroke-width="0" stroke="#C7C8CC" d = " M71 127 C69.4226,127 69,128.762 69,130 70.5774,130 71,128.238 71,127  Z"/>

<path  fill="#7BD04A" stroke-width="0" stroke="#7BD04A" d = " M120 211 C121.624,211 122.75,213 125,213 132.297,213 133,200.76 133,196 133,189.501 131.624,187.748 129,182.5 124.567,173.634 123,161.649 123,151 123,151 123,141 123,141 123,135.565 120.194,122.653 111.5,127 111.5,127 108,129 108,129 108,129 106,130 106,130 106,130 101,136.5 101,136.5 98.2368,142.026 96.729,148.042 94,153.5 93.0226,155.455 94.2197,174.939 95,176.5 95,176.5 99,185 99,185 99,192.289 120,205.997 120,211  Z"/>

<path  fill="#7DCD4B" stroke-width="0" stroke="#7DCD4B" d = " M131 127 L130,128 C130,128 131,127 131,127  Z"/>

<path  fill="#7BD04A" stroke-width="0" stroke="#7BD04A" d = " M336 211 L337,211 C337,209.685 351.141,193.359 353.5,191 353.5,191 358,185 358,185 358,177.264 367.508,165.516 363,156.5 360.028,150.555 359.027,143.553 356,137.5 356,137.5 351,131 351,131 351,131 350,130 350,130 350,130 344.5,127 344.5,127 337.474,123.487 333,134.131 333,139 334.206,139 334.206,149 333,149 333,159.025 333.153,170.194 329,178.5 326.164,184.171 323,188.033 323,195 323,199.43 325.387,213 331,213 333.25,213 334.376,211 336,211  Z"/>

<path  fill="#C7C8CC" stroke-width="0" stroke="#C7C8CC" d = " M387 130 L389,133 C387.423,133 387,131.238 387,130  Z"/>

<path  fill="#C7C8CC" stroke-width="0" stroke="#C7C8CC" d = " M69 131 L68,133 C68,133 69,131 69,131  Z"/>

<path  fill="#FF64FF" stroke-width="0" stroke="#FF64FF" d = " M148 132 L147,133 C147,133 148,132 148,132  Z"/>

<path  fill="#C7C8CC" stroke-width="0" stroke="#C7C8CC" d = " M68 133 L67,135 C67,135 68,133 68,133  Z"/>

<path  fill-rule="evenodd" fill="#FF64FF" stroke-width="0" stroke="#FF64FF" d = " M228 188 C228,193.567 230.112,188 228,188  M147 164 C147,167.746 149.091,164 147,164  M292 215 L291,216 C285.284,216 294.137,205 286,205 286,198.47 271.507,179.487 267,188.5 267,188.5 268,192 268,192 259.66,192 248,174.451 248,199 248,199 242,200 242,200 242,191.922 231,193.848 231,196 231,196 226,196 226,196 223.588,196 220.474,192.513 217.5,194 215.46,195.02 215.076,200 214,200 214,200 209,199 209,199 209,177.666 198.01,191 189,191 189,184.658 183.436,187.032 179.5,189 174.253,191.624 171,199.718 171,205 161.957,205 171.231,214.135 167.5,216 167.5,216 164,214 164,214 164,214 157.5,206 157.5,206 157.5,206 152,208 152,208 152,193.468 143.064,180.628 137,168.5 133.063,160.626 135,151.604 135,143 135,143 139,141 139,141 139,143.849 143.982,143.536 145,141.5 145.557,140.386 145.41,136 147,136 147,146.737 154.505,155.51 159,164.5 160.139,166.778 163.07,175 167,175 167,177.477 169.011,177.522 170,179.5 173.602,186.705 178.734,184 185,184 189.583,184 195.819,186.34 200.5,184 202.918,182.791 206.987,179 209,179 209,179 208,183.5 208,183.5 208,198.726 215,183.362 215,178 215,178 217,175 217,175 217,178.669 216.302,179 219,179 219,181.382 222.114,187.693 225.5,186 225.5,186 228.5,183 228.5,183 230.802,183 231.975,189.551 235,183.5 236.24,181.02 237,181.063 237,178 239.452,178 239,182.027 239,174 241.943,174 242.878,186.256 244,188.5 244.948,190.397 247.052,190.397 248,188.5 248,188.5 248,185.5 248,185.5 248,185.5 249,182.5 249,182.5 249,182.5 247,178 247,178 247,178 255.5,184 255.5,184 260.449,186.475 267.043,184 272,184 277.87,184 289,184.984 289,175 292.836,175 295.395,168.711 297,165.5 302.258,154.985 309,146.765 309,134 310.993,134 310.35,139.2 311,140.5 312.202,142.904 317,144.705 317,141 318.624,141 319.75,143 322,143 322,166.961 314.78,178.94 305,198.5 303.408,201.684 306,207.319 306,210 306,210 301.5,206 301.5,206 298.403,204.451 296.79,208.919 296,210.5 296,210.5 293,214 293,214 293,214 292,215 292,215  Z"/>

<path  fill="#C9C9CA" stroke-width="0" stroke="#C9C9CA" d = " M393 134 L394,135 C394,135 393,134 393,134  Z"/>

<path  fill="#C7C8CC" stroke-width="0" stroke="#C7C8CC" d = " M67 135 C65.3616,135 65,138.576 65,140 66.6384,140 67,136.424 67,135  Z"/>

<path  fill="#FD90FC" stroke-width="0" stroke="#FD90FC" d = " M221 135 C221,136.233 206.151,141.326 213.5,145 217.673,147.087 229.668,135 221,135  Z"/>

<path  fill="#FD90FC" stroke-width="0" stroke="#FD90FC" d = " M233 135 L232,138.5 C233.125,140.749 240.479,146.51 243.5,145 249.299,142.101 235.839,135 233,135  Z"/>

<path  fill="#C7C8CC" stroke-width="0" stroke="#C7C8CC" d = " M389 135 C391.936,135 393,145.46 393,148 392.382,148 389,136.302 389,135  Z"/>

<path  fill="#7DCD4B" stroke-width="0" stroke="#7DCD4B" d = " M127 136 L126,137 C126,137 127,136 127,136  Z"/>

<path  fill="#7DCD4B" stroke-width="0" stroke="#7DCD4B" d = " M330 137 L331,138 C331,138 330,137 330,137  Z"/>

<path  fill="#0E9F91" stroke-width="0" stroke="#0E9F91" d = " M58 150 C55.4194,150 56.9185,152 56.5,152 54.9975,152 53.5112,151 52,151 52,151 53,139 53,139 53,139 54,138 54,138 54,138 59,139 59,139 59,139 58,150 58,150  Z"/>

<path  fill="#0E9F91" stroke-width="0" stroke="#0E9F91" d = " M60 138 L59,139 C59,139 60,138 60,138  Z"/>

<path  fill="#0E9F90" stroke-width="0" stroke="#0E9F90" d = " M58 150 L59,150 C59,150 61,138 61,138 61,138 60,138 60,138 60,138 59,139 59,139 59,139 58,150 58,150  Z"/>

<path  fill="#0E9F90" stroke-width="0" stroke="#0E9F90" d = " M397 150 L399,150 C399,150 397,139 397,139 397,139 396,138 396,138 396,138 395,138 395,138 395,141.981 397,145.629 397,150  Z"/>

<path  fill="#0E9F91" stroke-width="0" stroke="#0E9F91" d = " M399 150 C400.852,150 402.309,151 404,151 404,151 403,139 403,139 403,139 403,138 403,138 401.436,138 399.124,139 397,139 397,139 399,150 399,150  Z"/>

<path  fill="#0D9F91" stroke-width="0" stroke="#0D9F91" d = " M43 151 C43,152.175 37.2959,153 36,153 33.0224,153 32,143.37 32,141 32,141 40,139 40,139 40,139 42,139 42,139 42,139 43,150 43,150 43,150 43,151 43,151  Z"/>

<path  fill="#0D9E90" stroke-width="0" stroke="#0D9E90" d = " M52 151 L52,152 C52,152 50.5,150 50.5,150 50.5,150 48,151 48,151 48,151 43,150 43,150 43,150 42,139 42,139 42,139 53,139 53,139 53,139 52,151 52,151  Z"/>

<path  fill="#7DCD4B" stroke-width="0" stroke="#7DCD4B" d = " M331 141 L333,149 C334.206,149 334.206,139 333,139 333,140.747 332.747,141 331,141  Z"/>

<path  fill="#0D9E90" stroke-width="0" stroke="#0D9E90" d = " M413 150 C408.485,150 405.367,151 404,151 404,151 403,139 403,139 403,139 414,139 414,139 414,142.642 413,147.002 413,150  Z"/>

<path  fill="#0D9F91" stroke-width="0" stroke="#0D9F91" d = " M420 154 L421,154 C421,149.945 424,145.991 424,141 424,141 424,140 424,140 424,140 417,139 417,139 417,139 414,139 414,139 414,142.642 413,147.002 413,150 413,150 413,151 413,151 413.705,151 420,152.094 420,154  Z"/>

<path  fill="#0D9F90" stroke-width="0" stroke="#0D9F90" d = " M36 154 C34.3415,154 33,155.461 33,157 28.5267,157 27,145.068 27,142 27,142 32,141 32,141 32,143.37 33.0224,153 36,153 36,153 36,154 36,154  Z"/>

<path  fill="#C7C8CC" stroke-width="0" stroke="#C7C8CC" d = " M65 141 C63.4209,141 64,143.855 64,145 65.5791,145 65,142.145 65,141  Z"/>

<path  fill="#7DCD4B" stroke-width="0" stroke="#7DCD4B" d = " M125 141 C125,142.495 124.16,151 123,151 123,151 123,141 123,141 123,141 125,141 125,141  Z"/>

<path  fill="#0D9F90" stroke-width="0" stroke="#0D9F90" d = " M421 154 L424,157 C424,156.445 429,148.745 429,142 429,142 424,141 424,141 424,145.991 421,149.945 421,154  Z"/>

<path  fill="#C7C8CC" stroke-width="0" stroke="#C7C8CC" d = " M64 145 C62.2864,145 63,150.594 63,152 64.7136,152 64,146.406 64,145  Z"/>

<path  fill="#FF64FF" stroke-width="0" stroke="#FF64FF" d = " M211 147 L212,148 C212,148 211,147 211,147  Z"/>

<path  fill="#FE90FF" stroke-width="0" stroke="#FE90FF" d = " M222 157 L223,157 C229.198,157 222,148.239 222,147 220.378,147 217,146.539 217,149 217,153.045 222,154.458 222,157  Z"/>

<path  fill="#FE90FF" stroke-width="0" stroke="#FE90FF" d = " M237 155 C235.762,155 234,155.423 234,157 226.459,157 234,149.535 234,147 235.622,147 239,146.539 239,149 239,150.333 239,150.667 239,152 239,152 239,153 239,153 239,153 238,154 238,154 238,154 237,155 237,155  Z"/>

<path  fill="#FF64FF" stroke-width="0" stroke="#FF64FF" d = " M245 147 L244,148 C244,148 245,147 245,147  Z"/>

<path  fill="#FF64FF" stroke-width="0" stroke="#FF64FF" d = " M216 152 C218.572,152 218.494,157 222,157 222,154.458 217,153.045 217,149 217,149 213,148 213,148 213,148 216,152 216,152  Z"/>

<path  fill="#FF64FF" stroke-width="0" stroke="#FF64FF" d = " M244 148 L243,149 C243,149 244,148 244,148  Z"/>

<path  fill="#FF64FF" stroke-width="0" stroke="#FF64FF" d = " M239 152 L241,152 C241,152 243,149 243,149 243,149 239,149 239,149 239,150.333 239,150.667 239,152  Z"/>

<path  fill="#C7C8CC" stroke-width="0" stroke="#C7C8CC" d = " M393 149 C394.652,149 394.652,167 393,167 393,167 393,149 393,149  Z"/>

<path  fill="#0F9684" stroke-width="0" stroke="#0F9684" d = " M47 161 L51,161 C51,161 53,160 53,160 53,160 52,152 52,152 52,152 50.5,150 50.5,150 50.5,150 48,151 48,151 48,151 43,150 43,150 43,150 43,151 43,151 43.5668,151 47,159.99 47,161  Z"/>

<path  fill="#0E9684" stroke-width="0" stroke="#0E9684" d = " M55 160 L57,160 C57,160 58,150 58,150 55.4194,150 56.9185,152 56.5,152 54.9975,152 53.5112,151 52,151 52,151 52,152 52,152 52,152 53,160 53,160 53,160 55,160 55,160  Z"/>

<path  fill="#0E9683" stroke-width="0" stroke="#0E9683" d = " M57 160 L60,160 C60,157.31 59,153.325 59,150 59,150 58,150 58,150 58,150 57,160 57,160  Z"/>

<path  fill="#0E9683" stroke-width="0" stroke="#0E9683" d = " M397 160 L399,160 C399,160 399,150 399,150 399,150 397,150 397,150 397,150 397,160 397,160  Z"/>

<path  fill="#0E9684" stroke-width="0" stroke="#0E9684" d = " M401 160 L404,161 C404,161 404,151 404,151 402.309,151 400.852,150 399,150 399,150 399,160 399,160 399,160 401,160 401,160  Z"/>

<path  fill="#0F9684" stroke-width="0" stroke="#0F9684" d = " M406 161 L410,161 C410,161 413,151 413,151 413,151 413,150 413,150 408.485,150 405.367,151 404,151 404,151 404,161 404,161 404,161 406,161 406,161  Z"/>

<path  fill="#0E9583" stroke-width="0" stroke="#0E9583" d = " M45 161 L47,161 C47,159.99 43.5668,151 43,151 43,152.175 37.2959,153 36,153 36,153 36,154 36,154 37.8694,154 39,161.329 39,163 39,163 45,161 45,161  Z"/>

<path  fill="#0E9583" stroke-width="0" stroke="#0E9583" d = " M411 161 L418,163 C418,159.577 420,156.526 420,154 420,152.094 413.705,151 413,151 413,151 410,161 410,161 410,161 411,161 411,161  Z"/>

<path  fill="#CBCBCC" stroke-width="0" stroke="#CBCBCC" d = " M223 157 C223,158.229 229.274,163 224.5,163 L221,159 C221,156.561 216,155.694 216,152 218.572,152 218.494,157 222,157 222,157 223,157 223,157  Z"/>

<path  fill="#CBCBCC" stroke-width="0" stroke="#CBCBCC" d = " M235 159 C232.891,159 233,161.535 233,163 227.207,163 234,157.499 234,157 235.238,157 237,156.577 237,155 237,155 238,154 238,154 238,154 239,153 239,153 239,153 239,152 239,152 239,152 241,152 241,152 241,153.6 236.871,159 235,159  Z"/>

<path  fill="#C7C8CC" stroke-width="0" stroke="#C7C8CC" d = " M63 153 C61.3783,153 61.3783,162 63,162 63,162 63,153 63,153  Z"/>

<path  fill="#FF64FF" stroke-width="0" stroke="#FF64FF" d = " M239 153 L238,154 C238,154 239,153 239,153  Z"/>

<path  fill="#0E9584" stroke-width="0" stroke="#0E9584" d = " M38 163 L39,163 C39,161.329 37.8694,154 36,154 34.3415,154 33,155.461 33,157 33,159.721 33,162.279 33,165 33,165 38,163 38,163  Z"/>

<path  fill="#FF64FF" stroke-width="0" stroke="#FF64FF" d = " M238 154 L237,155 C237,155 238,154 238,154  Z"/>

<path  fill="#0E9584" stroke-width="0" stroke="#0E9584" d = " M418 163 L423,164 C423,160.949 424,158.817 424,157 424,157 421,154 421,154 421,154 420,154 420,154 420,156.526 418,159.577 418,163  Z"/>

<path  fill="#FF64FF" stroke-width="0" stroke="#FF64FF" d = " M237 155 C235.762,155 234,155.423 234,157 235.238,157 237,156.577 237,155  Z"/>

<path  fill="#FF64FF" stroke-width="0" stroke="#FF64FF" d = " M233 163 L235,164 C235,164 235,159 235,159 232.891,159 233,161.535 233,163  Z"/>

<path  fill="#31B824" stroke-width="0" stroke="#31B824" d = " M77 229 L78,229 C78,229 82,225 82,225 82,225 82,224 82,224 82,222.503 66.9275,206.355 65,202.5 58.3158,189.132 55,176.174 55,160 55,160 53,160 53,160 53,160 51,161 51,161 51,177.985 46.7762,187.052 55,203.5 58.4193,210.339 63.9015,216.401 69.5,222 69.5,222 77,229 77,229  Z"/>

<path  fill="#32B824" stroke-width="0" stroke="#32B824" d = " M87 220 C87,221.533 83.2473,224 82,224 82,222.503 66.9275,206.355 65,202.5 58.3158,189.132 55,176.174 55,160 55,160 57,160 57,160 57,160 60,160 60,160 60,172.569 63.7783,183.057 69,193.5 69.7129,194.926 70.7645,200 73,200 73,200 73,201 73,201 73,201 75,203 75,203 75,203 75,204 75,204 75,204 77,206 77,206 77,206 77,207 77,207 77,207 78,208 78,208 78,208 87,220 87,220  Z"/>

<path  fill="#32B824" stroke-width="0" stroke="#32B824" d = " M369 221 C371.364,221 372.053,224 374,224 374,224 381.5,215 381.5,215 384.385,213.557 387.455,208.589 389,205.5 398.634,186.231 401,183.549 401,160 401,160 399,160 399,160 399,160 397,160 397,160 397,169.159 393.921,181.658 390,189.5 389.228,191.044 387.268,197 385,197 385,197 384,199 384,199 384,199 383,201 383,201 383,201 382,203 382,203 382,203 381,204 381,204 381,204 380,206 380,206 380,206 379,207 379,207 379,207 377,209 377,209 377,210.429 375.712,213 374,213 374,213 373,214 373,214 373,214 372,215 372,215 372,215 371,217 371,217 371,217 369,219 369,219 369,219 369,221 369,221  Z"/>

<path  fill="#31B824" stroke-width="0" stroke="#31B824" d = " M374 225 L379,229 C380.852,229 392.004,216.492 393,214.5 393,214.5 401,204.5 401,204.5 407.96,190.579 406,176.887 406,161 406,161 404,161 404,161 404,161 401,160 401,160 401,183.549 398.634,186.231 389,205.5 387.455,208.589 384.385,213.557 381.5,215 381.5,215 374,224 374,224 374,224 374,225 374,225  Z"/>

<path  fill="#32B825" stroke-width="0" stroke="#32B825" d = " M68 239 L69,239 C69,237.571 70.2884,235 72,235 72,235 72,234 72,234 68.902,234 57.3791,220.258 56,217.5 51.3371,208.174 47.5856,198.671 43,189.5 40.0301,183.56 45,167.345 45,161 45,161 39,163 39,163 39,163 38,163 38,163 38,166.549 35.5975,173.305 34,176.5 30.5897,183.321 41.996,213.492 45,219.5 47.9735,225.447 54.478,231.989 60.5,235 61.8174,235.659 68,237.269 68,239  Z"/>

<path  fill="#32B725" stroke-width="0" stroke="#32B725" d = " M77 229 L72,234 C68.902,234 57.3791,220.258 56,217.5 51.3371,208.174 47.5856,198.671 43,189.5 40.0301,183.56 45,167.345 45,161 45,161 47,161 47,161 47,161 51,161 51,161 51,177.985 46.7762,187.052 55,203.5 58.4193,210.339 63.9015,216.401 69.5,222 69.5,222 77,229 77,229  Z"/>

<path  fill="#FE90FD" stroke-width="0" stroke="#FE90FD" d = " M195 161 C195,163.598 187.216,165.933 190,171.5 199.587,190.673 222.29,161 195,161  Z"/>

<path  fill="#FE90FD" stroke-width="0" stroke="#FE90FD" d = " M253 161 C253,163.816 246.096,166.693 248,170.5 257.083,188.666 276.266,168.383 261.5,161 L253,161  Z"/>

<path  fill="#32B725" stroke-width="0" stroke="#32B725" d = " M384 235 L385,235 C385,231.189 390.835,228.333 393.5,227 398.228,224.636 402.873,214.755 405,210.5 407.643,205.215 417.18,183.859 414,177.5 412.118,173.736 411,165.201 411,161 411,161 410,161 410,161 410,161 406,161 406,161 406,176.887 407.96,190.579 401,204.5 401,204.5 393,214.5 393,214.5 392.004,216.492 380.852,229 379,229 379,229 379,230 379,230 379,230 384,235 384,235  Z"/>

<path  fill="#32B825" stroke-width="0" stroke="#32B825" d = " M385 235 L388,238 C392.955,238 395.389,234.055 399.5,232 415.17,224.165 414.899,202.701 422,188.5 425.784,180.931 418,168.58 418,163 418,163 411,161 411,161 411,165.201 412.118,173.736 414,177.5 417.18,183.859 407.643,205.215 405,210.5 402.873,214.755 398.228,224.636 393.5,227 390.835,228.333 385,231.189 385,235  Z"/>

<path  fill="#32B722" stroke-width="0" stroke="#32B722" d = " M68 239 L65,243 C61.6491,243 57.4941,237.497 54.5,236 39.8599,228.68 35.5191,201.538 29,188.5 29,188.5 29,171.5 29,171.5 29,171.5 33,165 33,165 33,165 38,163 38,163 38,166.549 35.5975,173.305 34,176.5 30.5897,183.321 41.996,213.492 45,219.5 47.9735,225.447 54.478,231.989 60.5,235 61.8174,235.659 68,237.269 68,239  Z"/>

<path  fill="#C8C8C8" stroke-width="0" stroke="#C8C8C8" d = " M217 175 C217,178.669 216.302,179 219,179 219,176.876 220,174.564 220,173 220,173 221,172 221,172 221,172 223,168 223,168 223,167.476 224.962,163 223.5,163 223.5,163 221,165 221,165 221,169.211 217,170.789 217,175  Z"/>

<path  fill="#C8C8C8" stroke-width="0" stroke="#C8C8C8" d = " M239 174 C239,182.027 239.452,178 237,178 237,175.876 236,173.564 236,172 236,172 235,171 235,171 235,171 234,169 234,169 234,169 233,168 233,168 233,168 233,167 233,167 233,165.095 233,164.533 233,163 233,163 235,164 235,164 235,168.116 239,170.343 239,174  Z"/>

<path  fill="#32B722" stroke-width="0" stroke="#32B722" d = " M388 239 C389.712,239 391,241.571 391,243 396.499,243 400.784,235.358 405.5,233 415.554,227.973 421.96,200.58 427,190.5 428.003,188.495 426.944,185.612 428,183.5 431.319,176.861 423,168.383 423,164 423,164 418,163 418,163 418,168.58 425.784,180.931 422,188.5 414.899,202.701 415.17,224.165 399.5,232 395.389,234.055 392.955,238 388,238 388,238 388,239 388,239  Z"/>

<path  fill="#C7C8CC" stroke-width="0" stroke="#C7C8CC" d = " M63 164 C64.2321,164 65,174.288 65,176 62.3733,176 63,166.264 63,164  Z"/>

<path  fill="#FF79FD" stroke-width="0" stroke="#FF79FD" d = " M147 164 C147,167.746 149.091,164 147,164  Z"/>

<path  fill="#C8C8CC" stroke-width="0" stroke="#C8C8CC" d = " M217 175 L215,178 C215,183.362 208,198.726 208,183.5 L209,179 C209,174.496 216.055,164 221,164 221,164 221,165 221,165 221,169.211 217,170.789 217,175  Z"/>

<path  fill="#C8C8CC" stroke-width="0" stroke="#C8C8CC" d = " M239 174 C241.943,174 242.878,186.256 244,188.5 244.948,190.397 247.052,190.397 248,188.5 L248,185.5 L249,182.5 L247,178 C247,172.992 239.976,164 235,164 235,168.116 239,170.343 239,174  Z"/>

<path  fill="#FFA4FF" stroke-width="0" stroke="#FFA4FF" d = " M237 178 C237,181.063 236.24,181.02 235,183.5 231.975,189.551 230.802,183 228.5,183 L225.5,186 C222.114,187.693 219,181.382 219,179 219,176.876 220,174.564 220,173 220,173 221,172 221,172 221,172 223,168 223,168 223,168 225.5,166 225.5,166 226.928,165.286 231.098,167 233,167 233,167 233,168 233,168 233,168 234,169 234,169 234,169 235,171 235,171 235,171 236,172 236,172 236,173.564 237,175.876 237,178  Z"/>

<path  fill="#C7C8CC" stroke-width="0" stroke="#C7C8CC" d = " M393 167 C391.924,167 391,176.512 391,178 393.497,178 393,169.161 393,167  Z"/>

<path  fill="#FF64FF" stroke-width="0" stroke="#FF64FF" d = " M233 168 L234,169 C234,169 233,168 233,168  Z"/>

<path  fill="#FD8FFF" stroke-width="0" stroke="#FD8FFF" d = " M167 175 C167,177.477 169.011,177.522 170,179.5 173.602,186.705 178.734,184 185,184 185,181.406 192.799,183.099 189,175.5 186.269,170.037 167,169.222 167,175  Z"/>

<path  fill="#FF64FF" stroke-width="0" stroke="#FF64FF" d = " M235 171 L236,172 C236,172 235,171 235,171  Z"/>

<path  fill="#FD8FFF" stroke-width="0" stroke="#FD8FFF" d = " M289 175 C289,184.984 277.87,184 272,184 272,182.82 264.011,181.478 267,175.5 269.7,170.101 289,168.548 289,175  Z"/>

<path  fill="#FF64FF" stroke-width="0" stroke="#FF64FF" d = " M221 172 L220,173 C220,173 221,172 221,172  Z"/>

<path  fill="#C7C8CC" stroke-width="0" stroke="#C7C8CC" d = " M65 177 C66.3529,177 67,181.643 67,183 65.0047,183 65,178.623 65,177  Z"/>

<path  fill="#C7C8CC" stroke-width="0" stroke="#C7C8CC" d = " M391 179 C389.005,179 389,183.377 389,185 390.353,185 391,180.357 391,179  Z"/>

<path  fill="#C7C8CC" stroke-width="0" stroke="#C7C8CC" d = " M67 184 C68.3529,184 69,188.643 69,190 67.6471,190 67,185.357 67,184  Z"/>

<path  fill="#4FC244" stroke-width="0" stroke="#4FC244" d = " M93 224 L96,227 C99.947,227 117.817,211 120,211 120,205.997 99,192.289 99,185 90.4808,185 78.9614,197 73,197 73,197 73,198 73,198 73,198 73,199 73,199 73,199 77.5,205 77.5,205 78.9162,206.416 91,222.863 91,223 91,223 92,223 92,223 92,223 93,224 93,224  Z"/>

<path  fill="#4FC244" stroke-width="0" stroke="#4FC244" d = " M362 226 L360,227 C356.65,227 346.293,216.897 342.5,215 341.092,214.296 337,213.417 337,211 337,209.685 351.141,193.359 353.5,191 353.5,191 358,185 358,185 365.177,185 378.314,197 383,197 383,197 383,199 383,199 383,199 382,201 382,201 382,201 381,203 381,203 379.423,203 379,204.762 379,206 377.423,206 377,207.762 377,209 375.288,209 374,211.571 374,213 374,213 373,214 373,214 373,214 372,215 372,215 372,215 371,217 371,217 369.253,217 369,217.253 369,219 369,219 367,221 367,221 367,221 366,222 366,222 366,222 365,223 365,223 365,223 364,224 364,224 364,224 363,225 363,225 363,225 362,226 362,226  Z"/>

<path  fill="#FFC295" stroke-width="0" stroke="#FFC295" d = " M211 229 C209.54,229 197.62,230.44 196.5,231 L189,235 C182.492,235 174.26,215.981 177,210.5 177,210.5 179,208 179,208 179,208 183,205.5 183,205.5 183,205.5 184,197 184,197 184,197 185,196 185,196 185,196 185,194 185,194 185,194 188,192 188,192 188,192 189,191 189,191 198.01,191 209,177.666 209,199 209,205.83 210.087,215.674 213,221.5 214.292,224.083 211,226.621 211,229  Z"/>

<path  fill="#FFC295" stroke-width="0" stroke="#FFC295" d = " M267 235 L268,235 C278.462,235 278,214.695 278,208 272.601,208 272,200.184 272,196 272,196 269,192 269,192 269,192 268,192 268,192 259.66,192 248,174.451 248,199 248,202.749 245.639,216.222 244,219.5 242.216,223.067 246,226.572 246,229 251.661,229 262.009,234 266,234 266,234 267,235 267,235  Z"/>

<path  fill="#C7C8CC" stroke-width="0" stroke="#C7C8CC" d = " M389 186 C387.362,186 387,189.576 387,191 388.638,191 389,187.424 389,186  Z"/>

<path  fill="#C8C8CB" stroke-width="0" stroke="#C8C8CB" d = " M171 205 C171,208.183 176.211,208 179,208 179,208 183,205.5 183,205.5 183,205.5 184,197 184,197 184,197 185,196 185,196 185,196 185,194 185,194 185,191.707 185.997,192 188,192 188,192 189,191 189,191 189,184.658 183.436,187.032 179.5,189 174.253,191.624 171,199.718 171,205  Z"/>

<path  fill="#C8C8CB" stroke-width="0" stroke="#C8C8CB" d = " M286 205 C284.553,205 281.46,208 278,208 272.601,208 272,200.184 272,196 272,193.939 271.098,192 269,192 269,192 268,192 268,192 268,192 267,188.5 267,188.5 271.507,179.487 286,198.47 286,205  Z"/>

<path  fill="#CCC7CC" stroke-width="0" stroke="#CCC7CC" d = " M228 188 C228,193.567 230.112,188 228,188  Z"/>

<path  fill="#C7C8CC" stroke-width="0" stroke="#C7C8CC" d = " M69 191 C70.5774,191 71,192.762 71,194 69.4226,194 69,192.238 69,191  Z"/>

<path  fill="#C7C8CC" stroke-width="0" stroke="#C7C8CC" d = " M387 191 L386,193 C386,193 387,191 387,191  Z"/>

<path  fill="#FF64FF" stroke-width="0" stroke="#FF64FF" d = " M188 192 C185.997,192 185,191.707 185,194 185,194 188,192 188,192  Z"/>

<path  fill="#FF64FF" stroke-width="0" stroke="#FF64FF" d = " M269 192 C271.098,192 272,193.939 272,196 272,196 269,192 269,192  Z"/>

<path  fill="#C7C8CC" stroke-width="0" stroke="#C7C8CC" d = " M386 193 L385,195 C385,195 386,193 386,193  Z"/>

<path  fill="#FFC393" stroke-width="0" stroke="#FFC393" d = " M214 200 C214,207.535 210.396,220.948 218.5,225 220.295,225.897 221.92,230.29 224.5,229 227.589,227.455 226.64,220.22 228,217.5 L228.5,215 L229,218.5 C229,220.657 229.694,228.097 231.5,229 234.259,230.38 236.265,225.618 237.5,225 239.879,223.81 239.835,221.831 241,219.5 245.482,210.537 242,209.052 242,200 242,191.922 231,193.848 231,196 231,196 229,198.5 229,198.5 229,198.5 229,202.5 229,202.5 228.468,203.563 226,197.103 226,196 223.588,196 220.474,192.513 217.5,194 215.46,195.02 215.076,200 214,200  Z"/>

<path  fill="#C7C8CC" stroke-width="0" stroke="#C7C8CC" d = " M73 197 L73,198 C71.4226,198 71,196.238 71,195 71,195 73,197 73,197  Z"/>

<path  fill="#C7C8CC" stroke-width="0" stroke="#C7C8CC" d = " M384 197 L385,197 C385,197 385,195 385,195 385,195 384,197 384,197  Z"/>

<path  fill="#FF64FF" stroke-width="0" stroke="#FF64FF" d = " M185 196 L184,197 C184,197 185,196 185,196  Z"/>

<path  fill="#FFA6FE" stroke-width="0" stroke="#FFA6FE" d = " M226 196 L231,196 C231,196 229,198.5 229,198.5 229,198.5 229,202.5 229,202.5 228.468,203.563 226,197.103 226,196  Z"/>

<path  fill="#C7C8CC" stroke-width="0" stroke="#C7C8CC" d = " M383 199 L384,199 C384,199 384,197 384,197 384,197 383,197 383,197 383,197 383,199 383,199  Z"/>

<path  fill="#C8CBCC" stroke-width="0" stroke="#C8CBCC" d = " M385 197 L384,199 C384,199 384,197 384,197 384,197 385,197 385,197  Z"/>

<path  fill="#C7C8CC" stroke-width="0" stroke="#C7C8CC" d = " M87 220 L91,223 C91,222.863 78.9162,206.416 77.5,205 77.5,205 73,199 73,199 73,199 73,200 73,200 73,200 73,201 73,201 73,201 75,203 75,203 75,203 75,204 75,204 75,204 77,206 77,206 77,206 77,207 77,207 77,207 78,208 78,208 78,208 87,220 87,220  Z"/>

<path  fill="#FF9B88" stroke-width="0" stroke="#FF9B88" d = " M172 273 C172,275.097 189.655,281 192.5,281 195.88,281 224.075,279.712 225.5,279 L228.5,277 L231.5,279 C231.754,279.127 258.8,281 260.5,281 264.649,281 285,275.918 285,273 284.325,273 275,275.227 275,273.5 275,271.837 289,263.025 289,257 289,257 283.5,258 283.5,258 275.47,253.985 282.481,230.538 285,225.5 286.539,222.423 291,219.616 291,216 285.284,216 294.137,205 286,205 284.553,205 281.46,208 278,208 278,214.695 278.462,235 268,235 268,237.588 273,237.992 273,242 273,242 276.5,239 276.5,239 276.5,239 277,246.5 277,246.5 277,254.263 279.262,261.976 276,268.5 272.984,274.531 266.14,273.68 261.5,276 261.5,276 238.5,275 238.5,275 234.421,272.96 230.802,265.104 229,261.5 227.345,258.19 230,252.355 230,249.5 230,248.31 229.386,245 231,245 231,230.7 228.997,229 246,229 246,226.572 242.216,223.067 244,219.5 245.639,216.222 248,202.749 248,199 248,199 242,200 242,200 242,209.052 245.482,210.537 241,219.5 239.835,221.831 239.879,223.81 237.5,225 236.265,225.618 234.259,230.38 231.5,229 229.694,228.097 229,220.657 229,218.5 229,218.5 228.5,215 228.5,215 228.5,215 228,217.5 228,217.5 226.64,220.22 227.589,227.455 224.5,229 221.92,230.29 220.295,225.897 218.5,225 210.396,220.948 214,207.535 214,200 214,200 209,199 209,199 209,205.83 210.087,215.674 213,221.5 214.292,224.083 211,226.621 211,229 225.943,229 226,230.88 226,245 226,255.908 228.126,259.248 223,269.5 218.434,278.631 185.356,278.213 181,269.5 177.564,262.629 179,255.144 179,246.5 179,246.5 179.5,239 179.5,239 179.5,239 183,241 183,241 183,237.205 189,237.097 189,235 182.492,235 174.26,215.981 177,210.5 177,210.5 179,208 179,208 176.211,208 171,208.183 171,205 161.957,205 171.231,214.135 167.5,216 167.5,216 164,214 164,214 164,217.558 168.473,220.445 170,223.5 172.959,229.418 179.416,240.668 176,247.5 175.036,249.429 176.654,255.923 174.5,257 171.547,258.476 170.638,257 168,257 168,260.346 172.06,267.28 175.5,269 175.5,269 180.5,274 180.5,274 180.5,274 172,273 172,273  Z"/>

<path  fill="#C7C8CC" stroke-width="0" stroke="#C7C8CC" d = " M382 201 L383,201 C383,201 383,199 383,199 383,199 382,201 382,201  Z"/>

<path  fill="#C8CBCC" stroke-width="0" stroke="#C8CBCC" d = " M384 199 L383,201 C383,201 383,199 383,199 383,199 384,199 384,199  Z"/>

<path  fill="#C8CBCC" stroke-width="0" stroke="#C8CBCC" d = " M73 201 L75,203 C75,203 73,201 73,201  Z"/>

<path  fill="#C7C8CC" stroke-width="0" stroke="#C7C8CC" d = " M381 203 L382,203 C382,203 382,201 382,201 382,201 381,203 381,203  Z"/>

<path  fill="#C8CBCC" stroke-width="0" stroke="#C8CBCC" d = " M383 201 L382,203 C382,203 382,201 382,201 382,201 383,201 383,201  Z"/>

<path  fill="#C7C8CC" stroke-width="0" stroke="#C7C8CC" d = " M379 206 L380,206 C380,206 381,204 381,204 381,204 381,203 381,203 379.423,203 379,204.762 379,206  Z"/>

<path  fill="#C8CBCC" stroke-width="0" stroke="#C8CBCC" d = " M382 203 L381,204 C381,204 381,203 381,203 381,203 382,203 382,203  Z"/>

<path  fill="#C8CBCC" stroke-width="0" stroke="#C8CBCC" d = " M75 204 L77,206 C77,206 75,204 75,204  Z"/>

<path  fill-rule="evenodd" fill="#C9C9CB" stroke-width="0" stroke="#C9C9CB" d = " M155 212 C155,213.342 150.62,214.74 152,217.5 L165,243.5 C165.896,245.292 168.059,255.221 172.5,253 175.193,251.653 174,243.268 174,240.5 174,231.971 164.615,212 155,212  M164 214 C164,217.558 168.473,220.445 170,223.5 172.959,229.418 179.416,240.668 176,247.5 175.036,249.429 176.654,255.923 174.5,257 171.547,258.476 170.638,257 168,257 166.324,257 163.756,250.012 163,248.5 163,248.5 161,239.5 161,239.5 157.668,232.837 148,221.14 148,214 148,214 151,209 151,209 151,209 152,208 152,208 152,208 157.5,206 157.5,206 157.5,206 164,214 164,214  Z"/>

<path  fill-rule="evenodd" fill="#C9C9CB" stroke-width="0" stroke="#C9C9CB" d = " M298 212 L291,219.5 C289.234,223.032 276.84,249.17 284.5,253 287.041,254.271 290.081,248.339 291,246.5 292.775,242.949 304.974,216.448 304,214.5 303.003,212.506 299.98,212 298,212  M291 216 C291,219.616 286.539,222.423 285,225.5 282.481,230.538 275.47,253.985 283.5,258 L289,257 C289,257 293,250.5 293,250.5 295.204,246.092 294.753,239.995 297,235.5 299.178,231.145 309,218.957 309,215 309,212.636 306,211.947 306,210 306,210 301.5,206 301.5,206 298.403,204.451 296.79,208.919 296,210.5 296,210.5 293,214 293,214 293,214 292,215 292,215 292,215 291,216 291,216  Z"/>

<path  fill="#C7C8CC" stroke-width="0" stroke="#C7C8CC" d = " M379 207 L377,209 C377,207.762 377.423,206 379,206 379,206 379,207 379,207  Z"/>

<path  fill="#7DCD4B" stroke-width="0" stroke="#7DCD4B" d = " M380 206 L379,207 C379,207 379,206 379,206 379,206 380,206 380,206  Z"/>

<path  fill="#7DCD4B" stroke-width="0" stroke="#7DCD4B" d = " M77 207 L78,208 C78,208 77,207 77,207  Z"/>

<path  fill="#FF64FF" stroke-width="0" stroke="#FF64FF" d = " M152 208 L151,209 C151,209 152,208 152,208  Z"/>

<path  fill="#C7C8CC" stroke-width="0" stroke="#C7C8CC" d = " M377 209 C375.288,209 374,211.571 374,213 375.712,213 377,210.429 377,209  Z"/>

<path  fill="#33B931" stroke-width="0" stroke="#33B931" d = " M115 239 L119,240 C119,233.651 123,228.161 123,221 123,217.053 120,214.372 120,211 117.817,211 99.947,227 96,227 96,227 103,234 103,234 103,234 107,237 107,237 108.145,237 111,236.421 111,238 111,238 115,239 115,239  Z"/>

<path  fill="#7DCD4B" stroke-width="0" stroke="#7DCD4B" d = " M125 213 C125,214.552 124.434,221 123,221 123,217.053 120,214.372 120,211 121.624,211 122.75,213 125,213  Z"/>

<path  fill="#7DCD4B" stroke-width="0" stroke="#7DCD4B" d = " M331 213 C331,213.986 332.087,219 333,219 333,219 336,211 336,211 334.376,211 333.25,213 331,213  Z"/>

<path  fill="#33B931" stroke-width="0" stroke="#33B931" d = " M341 239 C339.762,239 338,239.423 338,241 336.546,241 336.567,235.634 336,234.5 333.742,229.983 333,224.457 333,219 333,219 336,211 336,211 336,211 337,211 337,211 337,213.417 341.092,214.296 342.5,215 346.293,216.897 356.65,227 360,227 360,227 354,234 354,234 352.592,234 349,235.197 349,237 347.855,237 345,236.421 345,238 345,238 341,239 341,239  Z"/>

<path  fill="#FFAC6F" stroke-width="0" stroke="#FFAC6F" d = " M155 212 C155,213.342 150.62,214.74 152,217.5 L165,243.5 C165.896,245.292 168.059,255.221 172.5,253 175.193,251.653 174,243.268 174,240.5 174,231.971 164.615,212 155,212  Z"/>

<path  fill="#FFAC6F" stroke-width="0" stroke="#FFAC6F" d = " M298 212 L291,219.5 C289.234,223.032 276.84,249.17 284.5,253 287.041,254.271 290.081,248.339 291,246.5 292.775,242.949 304.974,216.448 304,214.5 303.003,212.506 299.98,212 298,212  Z"/>

<path  fill="#C7C8CC" stroke-width="0" stroke="#C7C8CC" d = " M374 213 L373,214 C373,214 374,213 374,213  Z"/>

<path  fill-rule="evenodd" fill="#CCCCCA" stroke-width="0" stroke="#CCCCCA" d = " M152 245 L152,248.5 C152,252.699 159.584,256.669 155,247.5 154.206,245.912 154.199,245 152,245  M147 231 C147,232.727 152.103,242.295 154,238.5 155.119,236.261 149.009,231 147,231  M171 273 L172,273 C172,273 180.5,274 180.5,274 180.5,274 175.5,269 175.5,269 172.06,267.28 168,260.346 168,257 166.324,257 163.756,250.012 163,248.5 163,248.5 161,239.5 161,239.5 157.668,232.837 148,221.14 148,214 148,214 147,215 147,215 147,216.502 141.871,222.757 141,224.5 137.253,231.993 145,240.266 145,246 145,246 145,247 145,247 145,247 146,248 146,248 146,248 148,252 148,252 148,252 150,254 150,254 151.323,254 164.426,267.352 165,268.5 165,268.5 171,273 171,273  Z"/>

<path  fill="#FF9B88" stroke-width="0" stroke="#FF9B88" d = " M293 214 L292,215 C292,215 293,214 293,214  Z"/>

<path  fill="#C7C8CC" stroke-width="0" stroke="#C7C8CC" d = " M373 214 L372,215 C372,215 373,214 373,214  Z"/>

<path  fill="#F0F080" stroke-width="0" stroke="#F0F080" d = " M133 236 C139.491,236 142.881,246 145,246 145,240.266 137.253,231.993 141,224.5 141.871,222.757 147,216.502 147,215 132.916,215 142.147,225.206 139,231.5 139,231.5 133,236 133,236  Z"/>

<path  fill-rule="evenodd" fill="#CCCCCA" stroke-width="0" stroke="#CCCCCA" d = " M302 245 L300,249.5 C299.561,250.378 300.369,253 301.5,253 304.798,253 307.177,245 302,245  M307 231 L303,235.5 L303.5,240 C305.829,240 312.277,231 307,231  M287 272 L285,273 C284.325,273 275,275.227 275,273.5 275,271.837 289,263.025 289,257 289,257 293,250.5 293,250.5 295.204,246.092 294.753,239.995 297,235.5 299.178,231.145 309,218.957 309,215 309,215 310,215 310,215 310,215 315,222.5 315,222.5 318.072,228.644 313,238.655 313,244 313,244 312,245 312,245 312,245 311,247 311,247 311,247 311,248 311,248 311,248 310,249 310,249 310,249 309,250 309,250 309,250 309,251 309,251 309,251 308,252 308,252 308,252 307,253 307,253 307,253 306,254 306,254 306,254 293,267 293,267 293,267 292,268 292,268 292,268 291,269 291,269 291,269 290,270 290,270 290,270 289,271 289,271 289,271 288,271 288,271 288,271 287,272 287,272  Z"/>

<path  fill="#F0F080" stroke-width="0" stroke="#F0F080" d = " M323 236 C318.041,236 315.823,244 313,244 313,238.655 318.072,228.644 315,222.5 315,222.5 310,215 310,215 310,215 313.5,217 313.5,217 313.5,217 316.5,217 316.5,217 320.825,219.163 316.22,228.939 318,232.5 318,232.5 323,236 323,236  Z"/>

<path  fill="#C7C8CC" stroke-width="0" stroke="#C7C8CC" d = " M372 215 L371,217 C371,217 372,215 372,215  Z"/>

<path  fill="#C7C8CC" stroke-width="0" stroke="#C7C8CC" d = " M371 217 C369.253,217 369,217.253 369,219 369,219 371,217 371,217  Z"/>

<path  fill="#C7C8CC" stroke-width="0" stroke="#C7C8CC" d = " M367 221 L369,221 C369,221 369,219 369,219 369,219 367,221 367,221  Z"/>

<path  fill="#32B623" stroke-width="0" stroke="#32B623" d = " M96 227 L103,234 C98.7651,234 96.8147,235.157 92.5,233 92.5,233 82,225 82,225 82,225 82,224 82,224 83.2473,224 87,221.533 87,220 87,220 91,223 91,223 91,223 92,223 92,223 92,223 93,224 93,224 93,224 96,227 96,227  Z"/>

<path  fill="#C7C8CC" stroke-width="0" stroke="#C7C8CC" d = " M367 221 L366,222 C366,222 367,221 367,221  Z"/>

<path  fill="#32B623" stroke-width="0" stroke="#32B623" d = " M360 227 L354,234 C354,235.263 359.36,235.57 360.5,235 360.5,235 374,225 374,225 374,225 374,224 374,224 372.053,224 371.364,221 369,221 369,221 367,221 367,221 367,221 366,222 366,222 366,222 365,223 365,223 365,223 364,224 364,224 364,224 363,225 363,225 363,225 362,226 362,226 362,226 360,227 360,227  Z"/>

<path  fill="#C7C8CC" stroke-width="0" stroke="#C7C8CC" d = " M366 222 L365,223 C365,223 366,222 366,222  Z"/>

<path  fill="#C7C8CC" stroke-width="0" stroke="#C7C8CC" d = " M92 223 L93,224 C93,224 92,223 92,223  Z"/>

<path  fill="#C7C8CC" stroke-width="0" stroke="#C7C8CC" d = " M365 223 L364,224 C364,224 365,223 365,223  Z"/>

<path  fill="#C7C8CC" stroke-width="0" stroke="#C7C8CC" d = " M364 224 L363,225 C363,225 364,224 364,224  Z"/>

<path  fill="#30B724" stroke-width="0" stroke="#30B724" d = " M103 234 L107,237 C107,238.998 101.826,239.337 100.5,240 96.4146,242.043 78,234.445 78,229 78,229 82,225 82,225 82,225 92.5,233 92.5,233 96.8147,235.157 98.7651,234 103,234  Z"/>

<path  fill="#C7C8CC" stroke-width="0" stroke="#C7C8CC" d = " M363 225 L362,226 C362,226 363,225 363,225  Z"/>

<path  fill="#30B724" stroke-width="0" stroke="#30B724" d = " M354 234 C352.592,234 349,235.197 349,237 352.285,237 356.085,243.208 360.5,241 362.912,239.794 378.327,230 379,230 379,230 379,229 379,229 379,229 374,225 374,225 374,225 360.5,235 360.5,235 359.36,235.57 354,235.263 354,234  Z"/>

<path  fill="#31B723" stroke-width="0" stroke="#31B723" d = " M107 237 C108.145,237 111,236.421 111,238 111,242.538 103.792,242.854 101.5,244 91.6178,248.941 80.4325,235 72,235 72,235 72,234 72,234 72,234 77,229 77,229 77,229 78,229 78,229 78,234.445 96.4146,242.043 100.5,240 101.826,239.337 107,238.998 107,237  Z"/>

<path  fill-rule="evenodd" fill="#FEBA85" stroke-width="0" stroke="#FEBA85" d = " M196 245 C196,247.336 190.919,248.338 193,252.5 195.427,257.354 214.449,250.975 206.5,247 L201.5,247 L196,245  M222 247 L223,240.5 C223,228.507 208.777,235.054 213,243.5 214.071,245.641 213.153,249 217,249 217,251.315 208.246,253.127 206.5,254 196.955,258.772 183,252.945 183,241 183,237.205 189,237.097 189,235 189,235 196.5,231 196.5,231 197.62,230.44 209.54,229 211,229 225.943,229 226,230.88 226,245 226,245 222,247 222,247  Z"/>

<path  fill-rule="evenodd" fill="#FEBA85" stroke-width="0" stroke="#FEBA85" d = " M259 245 C259,248.194 245.321,245.141 248,250.5 254.038,262.576 273.833,245 259,245  M236 248 L233,242 L233.5,237 C245.338,225.162 248.167,249 239,249 239,251.315 247.754,253.127 249.5,254 254.866,256.683 266.558,257.384 270,250.5 270,250.5 271,245.5 271,245.5 271.86,243.781 273,244.893 273,242 273,237.992 268,237.588 268,235 268,235 267,235 267,235 267,235 266,234 266,234 262.009,234 251.661,229 246,229 228.997,229 231,230.7 231,245 231,245 236,248 236,248  Z"/>

<path  fill="#31B723" stroke-width="0" stroke="#31B723" d = " M349 237 C347.855,237 345,236.421 345,238 345,242.366 352.238,242.869 354.5,244 364.723,249.112 375.754,235 384,235 384,235 379,230 379,230 378.327,230 362.912,239.794 360.5,241 356.085,243.208 352.285,237 349,237  Z"/>

<path  fill="#CCCBCA" stroke-width="0" stroke="#CCCBCA" d = " M147 231 C147,232.727 152.103,242.295 154,238.5 155.119,236.261 149.009,231 147,231  Z"/>

<path  fill="#CCCBCA" stroke-width="0" stroke="#CCCBCA" d = " M307 231 L303,235.5 L303.5,240 C305.829,240 312.277,231 307,231  Z"/>

<path  fill="#CACCC8" stroke-width="0" stroke="#CACCC8" d = " M217 249 L218,249 C218,249 220,248 220,248 220,248 221,247 221,247 221,247 222,247 222,247 222,247 223,240.5 223,240.5 223,228.507 208.777,235.054 213,243.5 214.071,245.641 213.153,249 217,249  Z"/>

<path  fill="#CACCC8" stroke-width="0" stroke="#CACCC8" d = " M238 249 L239,249 C248.167,249 245.338,225.162 233.5,237 233.5,237 233,242 233,242 233,242 236,248 236,248 236,248 237,248 237,248 237,248 238,249 238,249  Z"/>

<path  fill="#FF9B88" stroke-width="0" stroke="#FF9B88" d = " M266 234 L267,235 C267,235 266,234 266,234  Z"/>

<path  fill="#30B824" stroke-width="0" stroke="#30B824" d = " M69 239 L78.5,244 C85.7837,247.642 115,256.204 115,239 115,239 111,238 111,238 111,242.538 103.792,242.854 101.5,244 91.6178,248.941 80.4325,235 72,235 70.2884,235 69,237.571 69,239  Z"/>

<path  fill="#30B824" stroke-width="0" stroke="#30B824" d = " M341 239 C341,241.927 344.205,244.853 346.5,246 357.539,251.519 367.744,249.378 378.5,244 L388,239 C388,239 388,238 388,238 388,238 385,235 385,235 385,235 384,235 384,235 375.754,235 364.723,249.112 354.5,244 352.238,242.869 345,242.366 345,238 345,238 341,239 341,239  Z"/>

<path  fill="#CACACB" stroke-width="0" stroke="#CACACB" d = " M149 254 C149,256.232 152,258.029 152,261 152,267.027 142.354,271.927 136.5,269 128.664,265.082 120.824,256.853 126,246.5 127.313,243.875 128.956,236 133,236 139.491,236 142.881,246 145,246 145,246 145,247 145,247 145,247 146,248 146,248 146,248 148,252 148,252 148,252 149,254 149,254  Z"/>

<path  fill="#CACACB" stroke-width="0" stroke="#CACACB" d = " M307 254 L304,261 C304,267.014 314.525,271.987 320.5,269 329.845,264.328 334.891,254.282 330,244.5 328.854,242.208 326.68,236 323,236 318.041,236 315.823,244 313,244 313,244 312,245 312,245 312,245 311,247 311,247 311,247 311,248 311,248 311,248 310,249 310,249 310,249 309,250 309,250 309,250 309,251 309,251 309,251 308,252 308,252 308,252 307,253 307,253 307,253 307,254 307,254  Z"/>

<path  fill="#31B625" stroke-width="0" stroke="#31B625" d = " M119 240 C119,247.094 102.098,259.799 96.5,257 89.8188,253.659 82.23,252.365 75.5,249 L65,243 C65,243 68,239 68,239 68,239 69,239 69,239 69,239 78.5,244 78.5,244 85.7837,247.642 115,256.204 115,239 115,239 119,240 119,240  Z"/>

<path  fill="#FFB885" stroke-width="0" stroke="#FFB885" d = " M217 249 L218,249 C218,249 220,248 220,248 220,248 221,247 221,247 221,247 222,247 222,247 222,247 226,245 226,245 226,255.908 228.126,259.248 223,269.5 218.434,278.631 185.356,278.213 181,269.5 177.564,262.629 179,255.144 179,246.5 179,246.5 179.5,239 179.5,239 179.5,239 183,241 183,241 183,252.945 196.955,258.772 206.5,254 208.246,253.127 217,251.315 217,249  Z"/>

<path  fill="#FFB885" stroke-width="0" stroke="#FFB885" d = " M238 249 L239,249 C239,251.315 247.754,253.127 249.5,254 254.866,256.683 266.558,257.384 270,250.5 270,250.5 271,245.5 271,245.5 271.86,243.781 273,244.893 273,242 273,242 276.5,239 276.5,239 276.5,239 277,246.5 277,246.5 277,254.263 279.262,261.976 276,268.5 272.984,274.531 266.14,273.68 261.5,276 261.5,276 238.5,275 238.5,275 234.421,272.96 230.802,265.104 229,261.5 227.345,258.19 230,252.355 230,249.5 230,248.31 229.386,245 231,245 231,245 236,248 236,248 236,248 237,248 237,248 237,248 238,249 238,249  Z"/>

<path  fill="#31B625" stroke-width="0" stroke="#31B625" d = " M338 241 C338,247.062 353.683,259.909 359.5,257 L377.5,251 L391,243 C391,241.571 389.712,239 388,239 388,239 378.5,244 378.5,244 367.744,249.378 357.539,251.519 346.5,246 344.205,244.853 341,241.927 341,239 339.762,239 338,239.423 338,241  Z"/>

<path  fill="#F0F080" stroke-width="0" stroke="#F0F080" d = " M313 244 L312,245 C312,245 313,244 313,244  Z"/>

<path  fill="#CCCBCA" stroke-width="0" stroke="#CCCBCA" d = " M152 245 L152,248.5 C152,252.699 159.584,256.669 155,247.5 154.206,245.912 154.199,245 152,245  Z"/>

<path  fill="#C8C7CC" stroke-width="0" stroke="#C8C7CC" d = " M196 245 C196,247.336 190.919,248.338 193,252.5 195.427,257.354 214.449,250.975 206.5,247 L201.5,247 L196,245  Z"/>

<path  fill="#C8C7CC" stroke-width="0" stroke="#C8C7CC" d = " M259 245 C259,248.194 245.321,245.141 248,250.5 254.038,262.576 273.833,245 259,245  Z"/>

<path  fill="#CCCBCA" stroke-width="0" stroke="#CCCBCA" d = " M302 245 L300,249.5 C299.561,250.378 300.369,253 301.5,253 304.798,253 307.177,245 302,245  Z"/>

<path  fill="#F0F080" stroke-width="0" stroke="#F0F080" d = " M312 245 L311,247 C311,247 312,245 312,245  Z"/>

<path  fill="#F0F080" stroke-width="0" stroke="#F0F080" d = " M145 247 L146,248 C146,248 145,247 145,247  Z"/>

<path  fill="#FEBA85" stroke-width="0" stroke="#FEBA85" d = " M221 247 L220,248 C220,248 221,247 221,247  Z"/>

<path  fill="#FEBA85" stroke-width="0" stroke="#FEBA85" d = " M220 248 L218,249 C218,249 220,248 220,248  Z"/>

<path  fill="#FEBA85" stroke-width="0" stroke="#FEBA85" d = " M237 248 L238,249 C238,249 237,248 237,248  Z"/>

<path  fill="#F0F080" stroke-width="0" stroke="#F0F080" d = " M311 248 L310,249 C310,249 311,248 311,248  Z"/>

<path  fill="#F0F080" stroke-width="0" stroke="#F0F080" d = " M310 249 L309,250 C309,250 310,249 310,249  Z"/>

<path  fill="#F0F080" stroke-width="0" stroke="#F0F080" d = " M309 251 L308,252 C308,252 309,251 309,251  Z"/>

<path  fill="#F0F080" stroke-width="0" stroke="#F0F080" d = " M149 254 L150,254 C150,254 148,252 148,252 148,252 149,254 149,254  Z"/>

<path  fill="#F0F080" stroke-width="0" stroke="#F0F080" d = " M308 252 L307,253 C307,253 308,252 308,252  Z"/>

<path  fill="#F0F080" stroke-width="0" stroke="#F0F080" d = " M306 254 L307,254 C307,254 307,253 307,253 307,253 306,254 306,254  Z"/>

<path  fill="#FF9B88" stroke-width="0" stroke="#FF9B88" d = " M152 261 C159.633,261 163.995,273 171,273 171,273 165,268.5 165,268.5 164.426,267.352 151.323,254 150,254 150,254 149,254 149,254 149,256.232 152,258.029 152,261  Z"/>

<path  fill="#FF9B88" stroke-width="0" stroke="#FF9B88" d = " M304 261 C299.811,261 297.044,267 293,267 293,267 306,254 306,254 306,254 307,254 307,254 307,254 304,261 304,261  Z"/>

<path  fill="#FF9B88" stroke-width="0" stroke="#FF9B88" d = " M293 267 L292,268 C292,268 293,267 293,267  Z"/>

<path  fill="#FF9B88" stroke-width="0" stroke="#FF9B88" d = " M292 268 L291,269 C291,269 292,268 292,268  Z"/>

<path  fill="#FF9B88" stroke-width="0" stroke="#FF9B88" d = " M291 269 L290,270 C290,270 291,269 291,269  Z"/>

<path  fill="#FF9B88" stroke-width="0" stroke="#FF9B88" d = " M290 270 L289,271 C289,271 290,270 290,270  Z"/>

<path  fill="#FF9B88" stroke-width="0" stroke="#FF9B88" d = " M288 271 L287,272 C287,272 288,271 288,271  Z"/>

<path  fill="#FF9B88" stroke-width="0" stroke="#FF9B88" d = " M287 272 L285,273 C285,273 287,272 287,272  Z"/>

</g>
</svg>
