<svg xmlns="http://www.w3.org/2000/svg" xmlns:xlink="http://www.w3.org/1999/xlink"  viewBox="0 0 456 320">
<g>
<rect width="456" height="320" fill="#000000"  stroke-width="0" /> 
<path  fill="#1E9D5A" stroke-width="0" stroke="#1E9D5A" d = " M143 43 L143,49 C147.87,49 152.429,47.0354 156.5,45 160.738,42.8808 182.587,39 188,39 188,39 188,38 188,38 188,38 189,33 189,33 182.899,33 160.352,36.5739 155.5,39 155.5,39 143,43 143,43  Z"/>

<path  fill="#1E9C59" stroke-width="0" stroke="#1E9C59" d = " M227 50 L222,52 C222,52 218,45.5 218,45.5 209.175,36.6749 200.117,38 188,38 188,38 189,33 189,33 201.473,33 215.641,31.7827 221,42.5 222.45,45.4005 227,46.4742 227,50  Z"/>

<path  fill="#1E9C59" stroke-width="0" stroke="#1E9C59" d = " M229 50 L234,52 C234,52 237,46.5 237,46.5 238.514,43.4715 243.819,40.3406 246.5,39 252.826,35.8371 261.4,38 268,38 268,38 268,33 268,33 254.308,33 245.206,32.2938 236,41.5 236,41.5 229,50 229,50  Z"/>

<path  fill="#1E9D5A" stroke-width="0" stroke="#1E9D5A" d = " M313 43 C313,44.745 313.632,49 313,49 300.383,49 281.298,38 268,38 268,38 268,33 268,33 273.524,33 296.077,36.7885 300.5,39 300.5,39 313,43 313,43  Z"/>

<path  fill="#1E9D58" stroke-width="0" stroke="#1E9D58" d = " M222 53 L216,56 C216,53.7049 213.206,51.8528 211.5,51 206.359,48.4296 197.579,45.9604 191.5,49 191.5,49 187,51 187,51 187,51 188,39 188,39 188,39 188,38 188,38 200.117,38 209.175,36.6749 218,45.5 218,45.5 222,52 222,52 222,52 222,53 222,53  Z"/>

<path  fill="#1E9D58" stroke-width="0" stroke="#1E9D58" d = " M240 56 L241,56 C241,41.9335 264.245,51 270,51 270,51 268,38 268,38 261.4,38 252.826,35.8371 246.5,39 243.819,40.3406 238.514,43.4715 237,46.5 237,46.5 234,52 234,52 234,52 234,53 234,53 234,53 240,56 240,56  Z"/>

<path  fill="#1F9C58" stroke-width="0" stroke="#1F9C58" d = " M315 67 C315,69.5181 315,71.2861 315,73 306.943,73 278.315,51 270,51 270,51 268,38 268,38 281.298,38 300.383,49 313,49 313,49 314,50 314,50 314,50 314,51 314,51 314,56.1393 315,61.3953 315,67  Z"/>

<path  fill="#1F9C58" stroke-width="0" stroke="#1F9C58" d = " M141 67 L142,73 C150.719,73 176.693,51 187,51 187,51 188,39 188,39 182.587,39 160.738,42.8808 156.5,45 152.429,47.0354 147.87,49 143,49 143,49 143,50 143,50 143,50 143,52 143,52 143,55.3636 141,62.5387 141,67  Z"/>

<path  fill="#187F60" stroke-width="0" stroke="#187F60" d = " M142 50 L143,50 C143,50 143,49 143,49 143,49 143,43 143,43 143,43 140,44 140,44 140,44 142,50 142,50  Z"/>

<path  fill="#187F60" stroke-width="0" stroke="#187F60" d = " M314 50 L315,50 C315,50 316,44 316,44 316,44 313,43 313,43 313,44.745 313.632,49 313,49 313,49 314,50 314,50  Z"/>

<path  fill="#197E64" stroke-width="0" stroke="#197E64" d = " M102 63 L105,67 C110.917,67 133.247,50 142,50 142,50 140,44 140,44 132.063,44 118.712,53.3941 111.5,57 109.853,57.8233 102,60.9195 102,63  Z"/>

<path  fill="#197E64" stroke-width="0" stroke="#197E64" d = " M354 63 C354,64.7173 352.748,67 351,67 346.547,67 322.155,50 315,50 315,50 316,44 316,44 324.127,44 337.175,53.3374 344.5,57 346.316,57.9081 354,60.2449 354,63  Z"/>

<path  fill="#1F9D58" stroke-width="0" stroke="#1F9D58" d = " M203 67 C199.862,67 194.691,62.9044 190.5,65 188.113,66.1935 185.807,69 183,69 183,69 187,51 187,51 187,51 191.5,49 191.5,49 197.579,45.9604 206.359,48.4296 211.5,51 213.206,51.8528 216,53.7049 216,56 216,56 216,57 216,57 210.652,57 207.981,67 203,67  Z"/>

<path  fill="#1F9D58" stroke-width="0" stroke="#1F9D58" d = " M253 67 C256.261,67 261.263,62.8813 265.5,65 267.639,66.0696 270.578,69 273,69 273,69 270,51 270,51 264.245,51 241,41.9335 241,56 241,56 253,67 253,67  Z"/>

<path  fill="#197F61" stroke-width="0" stroke="#197F61" d = " M110 80 L111,80 C111,76.9981 136.951,67 141,67 141,62.5387 143,55.3636 143,52 143,52 142,50 142,50 133.247,50 110.917,67 105,67 105,67 105,68 105,68 105,72.9596 110,75.3142 110,80  Z"/>

<path  fill="#187F64" stroke-width="0" stroke="#187F64" d = " M143 50 L143,52 C143,52 142,50 142,50 142,50 143,50 143,50  Z"/>

<path  fill="#3EA665" stroke-width="0" stroke="#3EA665" d = " M223 78 L233,78 C233,69.4986 234,60.9598 234,53 234,53 234,52 234,52 234,52 229,50 229,50 229,51.93 227.839,50 227,50 227,50 222,52 222,52 222,52 222,53 222,53 223.684,53 223,57.6792 223,59 223,59 223,78 223,78  Z"/>

<path  fill="#187F64" stroke-width="0" stroke="#187F64" d = " M315 50 L314,51 C314,51 314,50 314,50 314,50 315,50 315,50  Z"/>

<path  fill="#197F61" stroke-width="0" stroke="#197F61" d = " M352 69 L346,79 C343.173,79 341.837,76.1685 339.5,75 333.044,71.7721 322.513,67 315,67 315,61.3953 314,56.1393 314,51 314,51 315,50 315,50 322.155,50 346.547,67 351,67 351,67 352,69 352,69  Z"/>

<path  fill="#1E9C5A" stroke-width="0" stroke="#1E9C5A" d = " M141 74 C141,77.4826 142,83.8868 142,88 151.541,88 177.965,70 183,70 183,70 183,69 183,69 183,69 187,51 187,51 176.693,51 150.719,73 142,73 142,73 141,74 141,74  Z"/>

<path  fill="#1E9C5A" stroke-width="0" stroke="#1E9C5A" d = " M315 74 C315,78.3151 315,82.7872 315,88 308.553,88 288.835,78.1673 282.5,75 282.5,75 273,69 273,69 273,69 270,51 270,51 278.315,51 306.943,73 315,73 315,73 315,74 315,74  Z"/>

<path  fill="#40A565" stroke-width="0" stroke="#40A565" d = " M223 78 C221.436,78 219.124,79 217,79 217,79 217,62 217,62 217,60.7655 217.643,57 216,57 216,57 216,56 216,56 216,56 222,53 222,53 223.684,53 223,57.6792 223,59 223,59 223,78 223,78  Z"/>

<path  fill="#40A565" stroke-width="0" stroke="#40A565" d = " M233 78 C234.564,78 236.876,79 239,79 239,71.3808 240,62.9646 240,56 240,56 234,53 234,53 234,60.9598 233,69.4986 233,78  Z"/>

<path  fill="#3EA566" stroke-width="0" stroke="#3EA566" d = " M239 79 L251,85 C251,85 253,68 253,68 253,68 253,67 253,67 253,67 241,56 241,56 241,56 240,56 240,56 240,62.9646 239,71.3808 239,79  Z"/>

<path  fill="#3EA566" stroke-width="0" stroke="#3EA566" d = " M217 80 C212.23,80 209.276,85 205,85 205,82.1945 205.155,69 203,69 203,69 203,67 203,67 207.981,67 210.652,57 216,57 217.643,57 217,60.7655 217,62 217,62 217,79 217,79 217,79 217,80 217,80  Z"/>

<path  fill="#1B8062" stroke-width="0" stroke="#1B8062" d = " M101 71 L102,71 C102,71 105,68 105,68 105,68 105,67 105,67 105,67 102,63 102,63 100.583,63 96,65.3826 96,67 97.5617,67 101,69.1887 101,71  Z"/>

<path  fill="#1B8062" stroke-width="0" stroke="#1B8062" d = " M352 69 L355,70 C357.364,70 358.053,67 360,67 360,65.3826 355.417,63 354,63 354,64.7173 352.748,67 351,67 351,67 352,69 352,69  Z"/>

<path  fill="#1D9C5A" stroke-width="0" stroke="#1D9C5A" d = " M191 89 C187.362,89 185.071,91 182,91 182,87.797 181,83.8885 181,81.5 181,78.1516 183,73.5555 183,70 183,70 183,69 183,69 185.807,69 188.113,66.1935 190.5,65 194.691,62.9044 199.862,67 203,67 203,67 203,69 203,69 200.338,69 191,86.3704 191,89  Z"/>

<path  fill="#1D9C5A" stroke-width="0" stroke="#1D9C5A" d = " M274 91 L275,91 C275,83.2718 273,75.8254 273,69 270.578,69 267.639,66.0696 265.5,65 261.263,62.8813 256.261,67 253,67 253,67 253,68 253,68 255.421,68 265,86.0403 265,89 268.423,89 271.474,91 274,91  Z"/>

<path  fill="#187E61" stroke-width="0" stroke="#187E61" d = " M57 133 L58,133 C58,129.997 59.7267,127.047 61,124.5 62.4185,121.663 61.5535,117.393 63,114.5 68.8629,102.774 74.3426,94.1574 84,84.5 86.8878,81.6122 97.7835,71 101,71 101,69.1887 97.5617,67 96,67 91.7578,67 88.8173,75 85,75 85,76.7469 84.7469,77 83,77 83,77 73,87.5 73,87.5 64.5842,95.9158 53,119.196 53,131 53,131 57,133 57,133  Z"/>

<path  fill="#1A7F63" stroke-width="0" stroke="#1A7F63" d = " M114 87 L115,87 C120.755,87 133.841,74 141,74 141,74 142,73 142,73 142,73 141,67 141,67 136.951,67 111,76.9981 111,80 111,82.25 113,83.3756 113,85 113,85 114,87 114,87  Z"/>

<path  fill="#1A7F63" stroke-width="0" stroke="#1A7F63" d = " M344 85 L342,87 C334.158,87 323.693,74 315,74 315,74 315,73 315,73 315,71.2861 315,69.5181 315,67 322.513,67 333.044,71.7721 339.5,75 341.837,76.1685 343.173,79 346,79 346,79 346,80 346,80 346,80 345,83 345,83 345,83 344,85 344,85  Z"/>

<path  fill="#187E61" stroke-width="0" stroke="#187E61" d = " M403 130 L399,133 C399,133 396,125.5 396,125.5 396,125.5 393,113.5 393,113.5 393,113.5 381,93.5 381,93.5 381,93.5 373,85.5 373,85.5 371.221,81.9417 358.545,71 355,71 355,71 355,70 355,70 357.364,70 358.053,67 360,67 361.974,67 371,73.051 371,75 371,75.8862 374,79.2209 374,77 376.271,77 382.649,85.7986 384,88.5 384,88.5 391,97.5 391,97.5 395.743,106.987 403,118.785 403,130  Z"/>

<path  fill="#1C7F63" stroke-width="0" stroke="#1C7F63" d = " M109 80 L110,80 C110,75.3142 105,72.9596 105,68 105,68 102,71 102,71 105.2,71 105.412,80 109,80  Z"/>

<path  fill="#3FA664" stroke-width="0" stroke="#3FA664" d = " M260 94 L261,94 C261,92.7617 261.423,91 263,91 263,91 265,89 265,89 265,86.0403 255.421,68 253,68 253,68 251,85 251,85 251,85 251,86 251,86 252.397,86 260,92.9821 260,94  Z"/>

<path  fill="#3FA664" stroke-width="0" stroke="#3FA664" d = " M191 89 L196,94 C196,94 205,86 205,86 205,86 205,85 205,85 205,82.1945 205.155,69 203,69 200.338,69 191,86.3704 191,89  Z"/>

<path  fill="#1F9B5A" stroke-width="0" stroke="#1F9B5A" d = " M275 91 C275,93.9171 282.701,94.1004 284.5,95 L315,108 C315,102.383 315,94.7576 315,89 315,89 315,88 315,88 308.553,88 288.835,78.1673 282.5,75 282.5,75 273,69 273,69 273,75.8254 275,83.2718 275,91  Z"/>

<path  fill="#1C7F63" stroke-width="0" stroke="#1C7F63" d = " M347 81 L348,81 C348,79.273 352.705,71 355,71 355,71 355,70 355,70 355,70 352,69 352,69 352,69 346,79 346,79 346,79 346,80 346,80 346,80 347,81 347,81  Z"/>

<path  fill="#1F9B5A" stroke-width="0" stroke="#1F9B5A" d = " M151 105 C147.177,105 144.686,108 141,108 141,102.1 142,94.5733 142,88 151.541,88 177.965,70 183,70 183,73.5555 181,78.1516 181,81.5 181,83.8885 182,87.797 182,91 182,91 182,92 182,92 182,92 181,93 181,93 178.343,93 165,97.0494 165,99 163.239,99 155,101.307 155,103 155,103 151,105 151,105  Z"/>

<path  fill="#1A7E64" stroke-width="0" stroke="#1A7E64" d = " M58 133 C61.2417,133 63.3187,137 67,137 68.9515,137 67.4772,134.546 68,133.5 68,133.5 73,118.5 73,118.5 79.1035,106.293 87.1839,92.6581 100.5,86 103.234,84.6328 105.786,81 109,81 109,81 109,80 109,80 105.412,80 105.2,71 102,71 102,71 101,71 101,71 97.7835,71 86.8878,81.6122 84,84.5 74.3426,94.1574 68.8629,102.774 63,114.5 61.5535,117.393 62.4185,121.663 61,124.5 59.7267,127.047 58,129.997 58,133  Z"/>

<path  fill="#1A7E64" stroke-width="0" stroke="#1A7E64" d = " M399 133 L389,138 C389,124.142 374.451,96.9753 362.5,91 357.857,88.6786 353.384,81 348,81 348,79.273 352.705,71 355,71 358.545,71 371.221,81.9417 373,85.5 373,85.5 381,93.5 381,93.5 381,93.5 393,113.5 393,113.5 393,113.5 396,125.5 396,125.5 396,125.5 399,133 399,133  Z"/>

<path  fill="#187E62" stroke-width="0" stroke="#187E62" d = " M142 73 L141,74 C141,74 142,73 142,73  Z"/>

<path  fill="#187E62" stroke-width="0" stroke="#187E62" d = " M142 88 C134.658,88 128.275,97 121,97 118.359,97 115,89.0173 115,87 120.755,87 133.841,74 141,74 141,77.4826 142,83.8868 142,88  Z"/>

<path  fill="#187E62" stroke-width="0" stroke="#187E62" d = " M335 98 L336,98 C336,96.6911 340.611,88 342,88 342,88 342,87 342,87 334.158,87 323.693,74 315,74 315,78.3151 315,82.7872 315,88 315,88 315,89 315,89 317.71,89 335,96.8106 335,98  Z"/>

<path  fill="#197E63" stroke-width="0" stroke="#197E63" d = " M85 75 L83,77 C84.7469,77 85,76.7469 85,75  Z"/>

<path  fill="#197E63" stroke-width="0" stroke="#197E63" d = " M371 75 L374,77 C374,79.2209 371,75.8862 371,75  Z"/>

<path  fill="#3FA566" stroke-width="0" stroke="#3FA566" d = " M221 113 L218,114 C218,102.717 217,90.6271 217,80 217,80 217,79 217,79 219.124,79 221.436,78 223,78 223,88.7421 222,99.8538 222,110 222,110 221,113 221,113  Z"/>

<path  fill="#40A664" stroke-width="0" stroke="#40A664" d = " M229 105 C232.424,105 232.518,110 234,110 234,99.6447 233,88.8723 233,78 233,78 223,78 223,78 223,88.7421 222,99.8538 222,110 224.047,110 224.168,105 227,105 227,101.85 229,101.554 229,105  Z"/>

<path  fill="#3FA566" stroke-width="0" stroke="#3FA566" d = " M235 112 L238,113 C238,102.373 239,90.2831 239,79 236.876,79 234.564,78 233,78 233,88.8723 234,99.6447 234,110 234,110 235,112 235,112  Z"/>

<path  fill="#3EA666" stroke-width="0" stroke="#3EA666" d = " M247 109 C247,111.644 238,114.004 238,113 238,102.373 239,90.2831 239,79 239,79 251,85 251,85 251,85 251,86 251,86 251,95.0879 247,103.422 247,109  Z"/>

<path  fill="#197E61" stroke-width="0" stroke="#197E61" d = " M109 81 C109,82.6343 111.634,85 113,85 113,83.3756 111,82.25 111,80 111,80 110,80 110,80 110,80 109,80 109,80 109,80 109,81 109,81  Z"/>

<path  fill="#3EA666" stroke-width="0" stroke="#3EA666" d = " M209 109 C209,110.987 216.371,114 218,114 218,102.717 217,90.6271 217,80 212.23,80 209.276,85 205,85 205,85 205,86 205,86 205,94.2951 209,101.542 209,109  Z"/>

<path  fill="#197E61" stroke-width="0" stroke="#197E61" d = " M347 81 L345,83 C345,83 346,80 346,80 346,80 347,81 347,81  Z"/>

<path  fill="#1B7F62" stroke-width="0" stroke="#1B7F62" d = " M72 140 L73,140 C73,133.29 89.814,102.343 96.5,99 96.5,99 109.5,90 109.5,90 110.685,89.4076 114,88.9882 114,87 114,87 113,85 113,85 111.634,85 109,82.6343 109,81 105.786,81 103.234,84.6328 100.5,86 87.1839,92.6581 79.1035,106.293 73,118.5 73,118.5 68,133.5 68,133.5 67.4772,134.546 68.9515,137 67,137 67,137 67,138 67,138 68.0411,138 72,138.986 72,140  Z"/>

<path  fill="#1B7F62" stroke-width="0" stroke="#1B7F62" d = " M389 138 L384,139 C384,139 377,123.5 377,123.5 372.36,114.22 353.535,88 342,88 342,88 342,87 342,87 342,87 344,85 344,85 344,85 345,83 345,83 345,83 347,81 347,81 347,81 348,81 348,81 353.384,81 357.857,88.6786 362.5,91 374.451,96.9753 389,124.142 389,138  Z"/>

<path  fill="#197E61" stroke-width="0" stroke="#197E61" d = " M345 83 L344,85 C344,85 345,83 345,83  Z"/>

<path  fill="#40A564" stroke-width="0" stroke="#40A564" d = " M207 109 L209,109 C209,101.542 205,94.2951 205,86 205,86 196,94 196,94 196,94 196,95 196,95 196,95 199,100.5 199,100.5 199,100.5 206,107 206,107 206,107 207,109 207,109  Z"/>

<path  fill="#40A564" stroke-width="0" stroke="#40A564" d = " M247 109 L249,109 C249,109 250,107 250,107 250,105.423 251.762,105 253,105 253,101.388 260,98.3948 260,94 260,92.9821 252.397,86 251,86 251,95.0879 247,103.422 247,109  Z"/>

<path  fill="#1B7E63" stroke-width="0" stroke="#1B7E63" d = " M83 145 L84,145 C84,128.901 96.8882,110.306 111.5,103 114.656,101.422 117.242,98 121,98 121,98 121,97 121,97 118.359,97 115,89.0173 115,87 115,87 114,87 114,87 114,88.9882 110.685,89.4076 109.5,90 109.5,90 96.5,99 96.5,99 89.814,102.343 73,133.29 73,140 73,140 83,145 83,145  Z"/>

<path  fill="#197D61" stroke-width="0" stroke="#197D61" d = " M130 113 L131,113 C134.396,113 137.052,109 141,109 141,109 141,108 141,108 141,102.1 142,94.5733 142,88 134.658,88 128.275,97 121,97 121,97 121,98 121,98 121,98 130,113 130,113  Z"/>

<path  fill="#1B7E63" stroke-width="0" stroke="#1B7E63" d = " M384 141 C379.746,141 376.843,145 373,145 373,131.28 358.869,110.685 347.5,105 344.538,103.519 340.384,98 336,98 336,96.6911 340.611,88 342,88 353.535,88 372.36,114.22 377,123.5 377,123.5 384,139 384,139 384,139 384,141 384,141  Z"/>

<path  fill="#1E9C58" stroke-width="0" stroke="#1E9C58" d = " M182 92 L182,93 C184.675,93 187.922,90 191,90 191,90 191,89 191,89 187.362,89 185.071,91 182,91 182,91 182,92 182,92  Z"/>

<path  fill="#3FA466" stroke-width="0" stroke="#3FA466" d = " M195 95 L196,95 C196,95 196,94 196,94 196,94 191,89 191,89 191,89 191,90 191,90 191,90 195,95 195,95  Z"/>

<path  fill="#3FA466" stroke-width="0" stroke="#3FA466" d = " M265 90 L263,91 C263,91 265,89 265,89 265,89 265,90 265,90  Z"/>

<path  fill="#1E9C58" stroke-width="0" stroke="#1E9C58" d = " M274 91 L274,93 C271.657,93 267.918,90 265,90 265,90 265,89 265,89 268.423,89 271.474,91 274,91  Z"/>

<path  fill="#197D61" stroke-width="0" stroke="#197D61" d = " M326 113 L327,113 C327,106.964 335,104.283 335,98 335,96.8106 317.71,89 315,89 315,94.7576 315,102.383 315,108 315,108 315,109 315,109 319.254,109 322.157,113 326,113  Z"/>

<path  fill="#CACCC7" stroke-width="0" stroke="#CACCC7" d = " M206 107 L207,109 C196.948,109 196.507,99.0033 188.5,95 182.599,92.0493 175.254,100 170,100 170,100 169,101 169,101 169,101 168,101 168,101 168,101 164,101 164,101 164,101 165,99 165,99 168.856,99 172.268,96.6158 175.5,95 176.819,94.3406 181,95.3342 181,93 181,93 182,93 182,93 184.675,93 187.922,90 191,90 191,90 195,95 195,95 195,98.9754 202.164,107 206,107  Z"/>

<path  fill="#CACCC7" stroke-width="0" stroke="#CACCC7" d = " M250 107 L249,109 C258.882,109 260.537,98.9816 268.5,95 274.425,92.0375 280.913,100 286,100 286,100 287,101 287,101 287,101 289,101 289,101 289,101 296,102 296,102 296,100.817 292.43,100.465 291.5,100 287.728,98.1139 277.983,93 274,93 271.657,93 267.918,90 265,90 265,90 263,91 263,91 263,91 261,95 261,95 261,98.2055 256.787,105 253,105 253,106.577 251.238,107 250,107  Z"/>

<path  fill="#3FA466" stroke-width="0" stroke="#3FA466" d = " M261 94 L261,95 C261,95 263,91 263,91 261.423,91 261,92.7617 261,94  Z"/>

<path  fill="#1D9D5A" stroke-width="0" stroke="#1D9D5A" d = " M315 108 L315,109 C307.94,109 302.798,102 296,102 296,100.817 292.43,100.465 291.5,100 287.728,98.1139 277.983,93 274,93 274,93 274,91 274,91 274,91 275,91 275,91 275,93.9171 282.701,94.1004 284.5,95 284.5,95 315,108 315,108  Z"/>

<path  fill="#1D9D5A" stroke-width="0" stroke="#1D9D5A" d = " M181 93 L182,93 C182,93 182,92 182,92 182,92 181,93 181,93  Z"/>

<path  fill="#1D9D5A" stroke-width="0" stroke="#1D9D5A" d = " M181 93 C178.343,93 165,97.0494 165,99 168.856,99 172.268,96.6158 175.5,95 176.819,94.3406 181,95.3342 181,93  Z"/>

<path  fill="#40A465" stroke-width="0" stroke="#40A465" d = " M261 95 C261,98.2055 256.787,105 253,105 253,101.388 260,98.3948 260,94 260,94 261,94 261,94 261,94 261,95 261,95  Z"/>

<path  fill="#C9C7C9" stroke-width="0" stroke="#C9C7C9" d = " M359 166 L360,166 C360,166 359,161 359,161 359,161 358,159 358,159 358,159 358,158 358,158 358,158 357,157 357,157 357,157 357,155 357,155 357,155 353,147 353,147 353,147 353,146 353,146 350.92,146 347.823,138.147 347,136.5 343.848,130.197 333.231,120.366 326.5,117 317.104,112.302 306.834,109.667 297.5,105 295.858,104.179 289,103.621 289,101 289,101 287,101 287,101 287,101 286,100 286,100 280.913,100 274.425,92.0375 268.5,95 260.537,98.9816 258.882,109 249,109 249,109 247,109 247,109 247,111.644 238,114.004 238,113 238,113 235,112 235,112 235,115.926 222.964,113 221,113 221,113 218,114 218,114 216.371,114 209,110.987 209,109 209,109 207,109 207,109 196.948,109 196.507,99.0033 188.5,95 182.599,92.0493 175.254,100 170,100 170,100 169,101 169,101 169,101 168,101 168,101 168,102.722 162.765,103.368 161.5,104 155.236,107.132 147.692,107.904 141.5,111 134.635,114.432 127.678,119.911 121.5,123 121.5,123 115,129 115,129 115,130.747 114.747,131 113,131 113,132.654 108.772,140 107,140 107,141.238 106.577,143 105,143 105,144.465 105.109,147 103,147 103,147 102,149 102,149 102,149 101,151 101,151 101,151 101,152 101,152 101,152 101,155 101,155 101,155 105.5,148 105.5,148 110.564,142.936 113.642,130.429 120.5,127 145.117,114.692 150.707,110 181,110 181,110 186.5,109 186.5,109 188.396,109.948 198,114.987 198,117 198,117 199,117 199,117 199,117 201,119 201,119 201,119 203,120 203,120 203,120 204,121 204,121 204,121 205,123 205,123 205,123 209.5,122 209.5,122 210.799,122.65 221.308,127 222,127 222,127 224,127 224,127 224,127 227,127 227,127 227,123.197 229.524,127 230,127 230,127 232,127 232,127 232,127 235,127 235,127 235,125.294 248.462,122 251,122 251,122 255,119 255,119 255,119 256,118 256,118 256,118 257,118 257,118 257,118 258,117 258,117 258,117 259,117 259,117 259,117 260,116 260,116 260,116 261,115 261,115 261,115 265,113 265,113 265,108.51 272.552,110 275,110 305.734,110 334.669,116.838 349,145.5 352.118,151.735 359,158.709 359,166  Z"/>

<path  fill="#40A465" stroke-width="0" stroke="#40A465" d = " M196 95 L199,100.5 L206,107 C202.164,107 195,98.9754 195,95 195,95 196,95 196,95  Z"/>

<path  fill="#187D61" stroke-width="0" stroke="#187D61" d = " M84 145 C88.5021,145 93.9727,152 99,152 99,149.567 104.203,137 107,137 107,131.926 123.862,115 129,115 129,115 130,113 130,113 130,113 121,98 121,98 117.242,98 114.656,101.422 111.5,103 96.8882,110.306 84,128.901 84,145  Z"/>

<path  fill="#187D61" stroke-width="0" stroke="#187D61" d = " M357 152 L358,152 C362.881,152 368.293,145 373,145 373,131.28 358.869,110.685 347.5,105 344.538,103.519 340.384,98 336,98 336,98 335,98 335,98 335,104.283 327,106.964 327,113 327,113 338.5,122 338.5,122 345.468,128.968 357,142.21 357,152  Z"/>

<path  fill="#1D9D5A" stroke-width="0" stroke="#1D9D5A" d = " M161 102 L155,103 C155,101.307 163.239,99 165,99 165,99 164,101 164,101 164,101 163,101 163,101 163,101 161,102 161,102  Z"/>

<path  fill="#C9C9CA" stroke-width="0" stroke="#C9C9CA" d = " M170 100 L169,101 C169,101 170,100 170,100  Z"/>

<path  fill="#C9C9CA" stroke-width="0" stroke="#C9C9CA" d = " M286 100 L287,101 C287,101 286,100 286,100  Z"/>

<path  fill="#CACCC7" stroke-width="0" stroke="#CACCC7" d = " M163 101 L161,102 C161,102 163,101 163,101  Z"/>

<path  fill="#C9C9CA" stroke-width="0" stroke="#C9C9CA" d = " M129 115 C129,117.525 115,123.5 115,129 115,129 121.5,123 121.5,123 127.678,119.911 134.635,114.432 141.5,111 147.692,107.904 155.236,107.132 161.5,104 162.765,103.368 168,102.722 168,101 168,101 164,101 164,101 164,101 163,101 163,101 163,101 161,102 161,102 161,102 155,103 155,103 155,105.109 152.465,105 151,105 151,106.817 143.831,109 142,109 142,110.221 132.526,114 131,114 131,114 129,115 129,115  Z"/>

<path  fill="#C9C9CA" stroke-width="0" stroke="#C9C9CA" d = " M325 114 L334,120.5 C339.471,125.971 353,138.913 353,146 350.92,146 347.823,138.147 347,136.5 343.848,130.197 333.231,120.366 326.5,117 317.104,112.302 306.834,109.667 297.5,105 295.858,104.179 289,103.621 289,101 289,101 296,102 296,102 302.798,102 307.94,109 315,109 315,109 325,114 325,114  Z"/>

<path  fill="#1D9D5A" stroke-width="0" stroke="#1D9D5A" d = " M155 103 L151,105 C152.465,105 155,105.109 155,103  Z"/>

<path  fill="#1D9D5A" stroke-width="0" stroke="#1D9D5A" d = " M141 109 L142,109 C143.831,109 151,106.817 151,105 147.177,105 144.686,108 141,108 141,108 141,109 141,109  Z"/>

<path  fill="#7ED04B" stroke-width="0" stroke="#7ED04B" d = " M235 112 C235,115.926 222.964,113 221,113 221,113 222,110 222,110 224.047,110 224.168,105 227,105 227.839,105 229,106.93 229,105 232.424,105 232.518,110 234,110 234,110 235,112 235,112  Z"/>

<path  fill="#40A465" stroke-width="0" stroke="#40A465" d = " M253 105 C251.762,105 250,105.423 250,107 251.238,107 253,106.577 253,105  Z"/>

<path  fill="#1C8064" stroke-width="0" stroke="#1C8064" d = " M131 113 L131,114 C132.526,114 142,110.221 142,109 142,109 141,109 141,109 137.052,109 134.396,113 131,113  Z"/>

<path  fill="#AAA8A9" stroke-width="0" stroke="#AAA8A9" d = " M185 113 C191.891,113 194.396,117 198,117 198,114.987 188.396,109.948 186.5,109 186.5,109 181,110 181,110 181,110.966 183.886,113 185,113  Z"/>

<path  fill="#AAA8A9" stroke-width="0" stroke="#AAA8A9" d = " M265 113 C267.355,113 271,110.315 271,114 271,114 275,110 275,110 272.552,110 265,108.51 265,113  Z"/>

<path  fill="#1C8064" stroke-width="0" stroke="#1C8064" d = " M326 113 L325,114 C325,114 315,109 315,109 319.254,109 322.157,113 326,113  Z"/>

<path  fill="#98D5F9" stroke-width="0" stroke="#98D5F9" d = " M130 236 L133,236 C133,234.421 135.855,235 137,235 142.169,235 161.019,234.741 164.5,233 164.5,233 173,228.5 173,228.5 173,228.5 177,223 177,223 177,215.296 180.826,185 190,185 190,180.879 191,175.725 191,171 191,171 192,157 192,157 192,155.952 191.527,154 193,154 193,154 193,147 193,147 193,142.292 192.825,131.149 191,127.5 189.011,123.522 185,117.578 185,113 183.886,113 181,110.966 181,110 150.707,110 145.117,114.692 120.5,127 113.642,130.429 110.564,142.936 105.5,148 105.5,148 101,155 101,155 101,156.761 98.6929,165 97,165 97,165 97,166 97,166 97,167.048 97.4729,169 96,169 96,169 96,170 96,170 96,171.406 96.7136,177 95,177 95,177.918 100.874,205.247 101,205.5 101,205.5 103,210 103,210 103,214.333 109,219.188 109,223 109,223 119,231 119,231 119,231 120,232 120,232 120,232 121,232 121,232 121.833,232 130,235.908 130,236  Z"/>

<path  fill="#98D5F9" stroke-width="0" stroke="#98D5F9" d = " M324 236 L326,236 C326,235.037 333.561,233 335,233 335,233 336,232 336,232 336,232 337,231 337,231 337,231 338,231 338,231 338,229.423 339.762,229 341,229 341,229 343,227 343,227 343,227 345,225 345,225 345,225 347,223 347,223 347,223 348,222 348,222 348,218.09 353,214.607 353,210 353,210 354,209 354,209 354,196.984 361,186.865 361,174 361,174 361,171 361,171 359.527,171 360,169.048 360,168 360,168 360,167 360,167 360,167 359,166 359,166 359,158.709 352.118,151.735 349,145.5 334.669,116.838 305.734,110 275,110 275,110 271,114 271,114 271,119.493 263,134.14 263,144 263,144 263,147 263,147 263,147 263,149 263,149 263,149 264,151 264,151 264,151 264,155 264,155 264,160.521 265,166.898 265,173 265,176.249 266,180.194 266,184 266,184 268.5,187 268.5,187 279.834,192.667 273.236,203.972 277,211.5 278.32,214.139 280,220.1 280,223 280,234.357 310.612,235 319,235 320.235,235 324,234.357 324,236  Z"/>

<path  fill="#A8AAAA" stroke-width="0" stroke="#A8AAAA" d = " M193 147 L194,147 C194,137.582 205,126.812 205,123 205,123 204,121 204,121 204,121 203,120 203,120 203,120 201,119 201,119 201,119 199,117 199,117 199,117 198,117 198,117 194.396,117 191.891,113 185,113 185,117.578 189.011,123.522 191,127.5 192.825,131.149 193,142.292 193,147  Z"/>

<path  fill="#A8AAAA" stroke-width="0" stroke="#A8AAAA" d = " M251 122 C251,125.884 257.139,130.778 259,134.5 259.729,135.957 261.364,144 263,144 263,134.14 271,119.493 271,114 271,110.315 267.355,113 265,113 265,115.109 262.465,115 261,115 261,115 260,116 260,116 260,116 259,117 259,117 259,117 258,117 258,117 258,117 257,118 257,118 257,118 256,118 256,118 256,118 255,119 255,119 255,119 251,122 251,122  Z"/>

<path  fill="#188064" stroke-width="0" stroke="#188064" d = " M131 114 L129,115 C129,115 130,113 130,113 130,113 131,113 131,113 131,113 131,114 131,114  Z"/>

<path  fill="#AAA8A9" stroke-width="0" stroke="#AAA8A9" d = " M265 113 L261,115 C262.465,115 265,115.109 265,113  Z"/>

<path  fill="#188064" stroke-width="0" stroke="#188064" d = " M356 152 L357,152 C357,142.21 345.468,128.968 338.5,122 338.5,122 327,113 327,113 327,113 326,113 326,113 326,113 325,114 325,114 325,114 334,120.5 334,120.5 339.471,125.971 353,138.913 353,146 353,146 353,147 353,147 354.477,147 356,150.924 356,152  Z"/>

<path  fill="#188064" stroke-width="0" stroke="#188064" d = " M113 131 L107,137 C107,131.926 123.862,115 129,115 129,117.525 115,123.5 115,129 113.253,129 113,129.253 113,131  Z"/>

<path  fill="#AAA8A9" stroke-width="0" stroke="#AAA8A9" d = " M261 115 L260,116 C260,116 261,115 261,115  Z"/>

<path  fill="#AAA8A9" stroke-width="0" stroke="#AAA8A9" d = " M260 116 L259,117 C259,117 260,116 260,116  Z"/>

<path  fill="#AAA8A9" stroke-width="0" stroke="#AAA8A9" d = " M199 117 L201,119 C201,119 199,117 199,117  Z"/>

<path  fill="#AAA8A9" stroke-width="0" stroke="#AAA8A9" d = " M258 117 L257,118 C257,118 258,117 258,117  Z"/>

<path  fill="#AAA8A9" stroke-width="0" stroke="#AAA8A9" d = " M256 118 L255,119 C255,119 256,118 256,118  Z"/>

<path  fill="#AAA8A9" stroke-width="0" stroke="#AAA8A9" d = " M203 120 L204,121 C204,121 203,120 203,120  Z"/>

<path  fill="#90CBEC" stroke-width="0" stroke="#90CBEC" d = " M194 147 C194,148.577 195.762,149 197,149 197,149 203.5,143 203.5,143 203.5,143 220,132.5 220,132.5 220,132.5 222,129 222,129 222,129 222,127 222,127 221.308,127 210.799,122.65 209.5,122 209.5,122 205,123 205,123 205,126.812 194,137.582 194,147  Z"/>

<path  fill="#90CBEC" stroke-width="0" stroke="#90CBEC" d = " M263 147 L259,149 C259,143.026 235,136.323 235,129 235,129 235,127 235,127 235,125.294 248.462,122 251,122 251,125.884 257.139,130.778 259,134.5 259.729,135.957 261.364,144 263,144 263,144 263,147 263,147  Z"/>

<path  fill="#97D6F9" stroke-width="0" stroke="#97D6F9" d = " M227 127 C227,129.202 230,129.202 230,127 229.524,127 227,123.197 227,127  Z"/>

<path  fill="#97D6F9" stroke-width="0" stroke="#97D6F9" d = " M224 127 L222,129 C222,129 222,127 222,127 222,127 224,127 224,127  Z"/>

<path  fill="#90CAED" stroke-width="0" stroke="#90CAED" d = " M218 191 L219,191 C219,191 219,186 219,186 219,184.952 218.527,183 220,183 220,183 220,181 220,181 220,179.855 219.421,177 221,177 221,177 221,174 221,174 221,172.855 220.421,170 222,170 222,170 222,169 222,169 222,167.952 221.527,166 223,166 223,166 223,163 223,163 223,161.952 222.527,160 224,160 224,160 224,159 224,159 224,157.952 223.527,156 225,156 225,156 225,155 225,155 225,155 225,153 225,153 225,153 226,151 226,151 226,151 228,142 228,142 228,140.814 229,140.814 229,142 229,146.7 231,149.3 231,154 232.473,154 232,155.952 232,157 232,157 232,158 232,158 233.473,158 233,159.952 233,161 233,161 233,164 233,164 234.473,164 234,165.952 234,167 234,167 234,168 234,168 235.473,168 235,169.952 235,171 235,171 235,175 235,175 236.473,175 236,176.952 236,178 236,178 236,180 236,180 237.473,180 237,181.952 237,183 237,183 237,187 237,187 238.643,187 238,190.765 238,192 238,192 243.5,185 243.5,185 250.859,181.321 255.016,173 264,173 264,173 265,173 265,173 265,166.898 264,160.521 264,155 264,155 259,149 259,149 259,143.026 235,136.323 235,129 235,129 232,127 232,127 232,127 230,127 230,127 230,129.202 227,129.202 227,127 227,127 224,127 224,127 224,127 222,129 222,129 222,129 220,132.5 220,132.5 220,132.5 203.5,143 203.5,143 203.5,143 197,149 197,149 197,149 193,154 193,154 193,155.048 193.473,157 192,157 192,157 191,171 191,171 192.473,171 192,172.952 192,174 193.423,174 195.544,172.022 197.5,173 197.5,173 212.5,185 212.5,185 212.5,185 218,191 218,191  Z"/>

<path  fill="#97D6F9" stroke-width="0" stroke="#97D6F9" d = " M235 127 L235,129 C235,129 232,127 232,127 232,127 235,127 235,127  Z"/>

<path  fill="#C9C9CA" stroke-width="0" stroke="#C9C9CA" d = " M115 129 C113.253,129 113,129.253 113,131 114.747,131 115,130.747 115,129  Z"/>

<path  fill="#1A7E62" stroke-width="0" stroke="#1A7E62" d = " M405 177 L409,177 C409,174.872 410.054,171.392 411,169.5 413.682,164.135 409.124,143.748 407,139.5 406.21,137.92 404.984,130 403,130 403,130 399,133 399,133 399,138.744 402.516,146.532 405,151.5 407.675,156.849 405,169.672 405,176 405,176 405,177 405,177  Z"/>

<path  fill="#1A7E62" stroke-width="0" stroke="#1A7E62" d = " M47 177 L52,177 C52,177 52,176 52,176 52,170.672 48.2453,159.009 51,153.5 53.7275,148.045 57,139.342 57,133 57,133 53,131 53,131 51.016,131 49.7901,138.92 49,140.5 43.6554,151.189 47,165.233 47,177  Z"/>

<path  fill="#C9C9CA" stroke-width="0" stroke="#C9C9CA" d = " M107 137 L107,140 C108.772,140 113,132.654 113,131 113,131 107,137 107,137  Z"/>

<path  fill="#1B8063" stroke-width="0" stroke="#1B8063" d = " M61 175 C57.7778,175 54.7232,176 52,176 52,170.672 48.2453,159.009 51,153.5 53.7275,148.045 57,139.342 57,133 57,133 58,133 58,133 61.2417,133 63.3187,137 67,137 67,137 67,138 67,138 67,148.921 61,160.557 61,175  Z"/>

<path  fill="#1B8063" stroke-width="0" stroke="#1B8063" d = " M395 175 L405,176 C405,169.672 407.675,156.849 405,151.5 402.516,146.532 399,138.744 399,133 399,133 389,138 389,138 389,141.744 391.336,148.173 393,151.5 396.066,157.632 395,167.664 395,175  Z"/>

<path  fill="#188064" stroke-width="0" stroke="#188064" d = " M100 152 L101,152 C101,152 101,151 101,151 101,151 102,149 102,149 102,149 103,147 103,147 103,147 105,143 105,143 105,141.762 105.423,140 107,140 107,140 107,137 107,137 104.203,137 99,149.567 99,152 99,152 100,152 100,152  Z"/>

<path  fill="#187C63" stroke-width="0" stroke="#187C63" d = " M67 174 L61,175 C61,160.557 67,148.921 67,138 68.0411,138 72,138.986 72,140 72,143.341 70.4612,148.578 69,151.5 66.8378,155.824 67,168.44 67,174  Z"/>

<path  fill="#187C63" stroke-width="0" stroke="#187C63" d = " M390 174 L395,175 C395,167.664 396.066,157.632 393,151.5 391.336,148.173 389,141.744 389,138 389,138 384,139 384,139 384,139 384,141 384,141 385.781,141 385.348,147.197 386,148.5 389.577,155.654 389,165.382 389,174 389,174 390,174 390,174  Z"/>

<path  fill="#1C8063" stroke-width="0" stroke="#1C8063" d = " M68 175 L69,175 C69,175 71,174 71,174 73.0966,174 76.293,173 79,173 79,163.153 83,154.393 83,145 83,145 73,140 73,140 73,140 72,140 72,140 72,143.341 70.4612,148.578 69,151.5 66.8378,155.824 67,168.44 67,174 67,174 68,175 68,175  Z"/>

<path  fill="#C9C9CA" stroke-width="0" stroke="#C9C9CA" d = " M107 140 C105.423,140 105,141.762 105,143 106.577,143 107,141.238 107,140  Z"/>

<path  fill="#97D6F9" stroke-width="0" stroke="#97D6F9" d = " M228 142 L229,142 C229,140.814 228,140.814 228,142  Z"/>

<path  fill="#1C8063" stroke-width="0" stroke="#1C8063" d = " M387 175 L388,175 C388,175 389,174 389,174 389,165.382 389.577,155.654 386,148.5 385.348,147.197 385.781,141 384,141 379.746,141 376.843,145 373,145 373,154.134 377,162.829 377,173 379.707,173 382.903,174 385,174 385,174 387,175 387,175  Z"/>

<path  fill="#8FCBEC" stroke-width="0" stroke="#8FCBEC" d = " M226 153 L228.5,151 L231,154 C231,149.3 229,146.7 229,142 229,142 228,142 228,142 228,142 226,151 226,151 226,151 226,153 226,153  Z"/>

<path  fill="#C9C9CA" stroke-width="0" stroke="#C9C9CA" d = " M105 143 L103,147 C105.109,147 105,144.465 105,143  Z"/>

<path  fill="#197D63" stroke-width="0" stroke="#197D63" d = " M93 172 L79,173 C79,163.153 83,154.393 83,145 83,145 84,145 84,145 88.5021,145 93.9727,152 99,152 99,158.069 94,164.378 94,171 94,171 93,172 93,172  Z"/>

<path  fill="#197D63" stroke-width="0" stroke="#197D63" d = " M363 172 C367.602,172 372.021,173 377,173 377,162.829 373,154.134 373,145 368.293,145 362.881,152 358,152 358,152 363,171 363,171 363,171 363,172 363,172  Z"/>

<path  fill="#C9C9CA" stroke-width="0" stroke="#C9C9CA" d = " M103 147 L102,149 C102,149 103,147 103,147  Z"/>

<path  fill="#97D6F9" stroke-width="0" stroke="#97D6F9" d = " M197 149 L193,154 C193,154 193,147 193,147 193,147 194,147 194,147 194,148.577 195.762,149 197,149  Z"/>

<path  fill="#97D6F9" stroke-width="0" stroke="#97D6F9" d = " M264 151 L264,155 C264,155 259,149 259,149 259,149 263,147 263,147 263,147 263,149 263,149 263,149 264,151 264,151  Z"/>

<path  fill="#C9C9CA" stroke-width="0" stroke="#C9C9CA" d = " M356 152 L357,155 C357,155 353,147 353,147 354.477,147 356,150.924 356,152  Z"/>

<path  fill="#C9C9CA" stroke-width="0" stroke="#C9C9CA" d = " M102 149 L101,151 C101,151 102,149 102,149  Z"/>

<path  fill="#A8AAAA" stroke-width="0" stroke="#A8AAAA" d = " M263 149 L264,151 C264,151 263,149 263,149  Z"/>

<path  fill="#97D6F9" stroke-width="0" stroke="#97D6F9" d = " M225 153 L226,153 C226,153 226,151 226,151 226,151 225,153 225,153  Z"/>

<path  fill="#96A7D3" stroke-width="0" stroke="#96A7D3" d = " M225 225 C226.639,225 227.455,223 228.5,223 229.13,223 229.188,225 231,225 231,225 234,219 234,219 234,219 235,213 235,213 235,208.869 237,204.04 237,199 237,199 237,194 237,194 237,194 237,187 237,187 237,187 237,183 237,183 235.527,183 236,181.048 236,180 236,180 236,178 236,178 234.527,178 235,176.048 235,175 235,175 235,171 235,171 233.527,171 234,169.048 234,168 234,168 234,167 234,167 232.527,167 233,165.048 233,164 233,164 233,161 233,161 231.527,161 232,159.048 232,158 232,158 232,157 232,157 230.527,157 231,155.048 231,154 231,154 228.5,151 228.5,151 228.5,151 226,153 226,153 226,153 225,155 225,155 225,155 225,156 225,156 225,157.048 225.473,159 224,159 224,159 224,160 224,160 224,161.048 224.473,163 223,163 223,163 223,166 223,166 223,167.048 223.473,169 222,169 222,169 222,170 222,170 222,171.145 222.579,174 221,174 221,174 221,177 221,177 221,178.145 221.579,181 220,181 220,181 220,183 220,183 220,184.048 220.473,186 219,186 219,186 219,191 219,191 219,191 219,193 219,193 219,193 219,201 219,201 219,201 221,213 221,213 221,214.996 223,217.985 223,221 223,221 225,225 225,225  Z"/>

<path  fill="#1A8061" stroke-width="0" stroke="#1A8061" d = " M94 171 L95,171 C95,171 96,170 96,170 96,170 96,169 96,169 96,169 96,166 96,166 96,166 97,165 97,165 97,165 97,162 97,162 97,162 98,161 98,161 98,161 98,159 98,159 98,159 99,158 99,158 99,158 99,156 99,156 99,156 100,155 100,155 100,155 100,152 100,152 100,152 99,152 99,152 99,158.069 94,164.378 94,171  Z"/>

<path  fill="#C9C9CA" stroke-width="0" stroke="#C9C9CA" d = " M100 155 L101,155 C101,155 101,152 101,152 101,152 100,152 100,152 100,152 100,155 100,155  Z"/>

<path  fill="#1A8061" stroke-width="0" stroke="#1A8061" d = " M361 171 L363,171 C363,171 358,152 358,152 358,152 357,152 357,152 357,152 356,152 356,152 356,152 357,155 357,155 357,155 357,157 357,157 357,157 358,158 358,158 358,158 358,159 358,159 358,159 359,161 359,161 359,161 360,166 360,166 360,166 360,167 360,167 360,167 360,168 360,168 361.473,168 361,169.952 361,171  Z"/>

<path  fill="#8FCBEC" stroke-width="0" stroke="#8FCBEC" d = " M226 153 L225,155 C225,155 225,153 225,153 225,153 226,153 226,153  Z"/>

<path  fill="#97D6F9" stroke-width="0" stroke="#97D6F9" d = " M193 154 C191.527,154 192,155.952 192,157 193.473,157 193,155.048 193,154  Z"/>

<path  fill="#97D6F9" stroke-width="0" stroke="#97D6F9" d = " M231 154 C232.473,154 232,155.952 232,157 230.527,157 231,155.048 231,154  Z"/>

<path  fill="#C9C9CA" stroke-width="0" stroke="#C9C9CA" d = " M100 155 L99,156 C99,156 100,155 100,155  Z"/>

<path  fill="#C9C7C9" stroke-width="0" stroke="#C9C7C9" d = " M97 162 L97,165 C98.6929,165 101,156.761 101,155 101,155 100,155 100,155 100,155 99,156 99,156 99,156 99,158 99,158 99,158 98,159 98,159 98,159 98,161 98,161 98,161 97,162 97,162  Z"/>

<path  fill="#97D6F9" stroke-width="0" stroke="#97D6F9" d = " M225 156 C223.527,156 224,157.952 224,159 225.473,159 225,157.048 225,156  Z"/>

<path  fill="#C9C9CA" stroke-width="0" stroke="#C9C9CA" d = " M357 157 L358,158 C358,158 357,157 357,157  Z"/>

<path  fill="#C9C9CA" stroke-width="0" stroke="#C9C9CA" d = " M99 158 L98,159 C98,159 99,158 99,158  Z"/>

<path  fill="#97D6F9" stroke-width="0" stroke="#97D6F9" d = " M232 158 C233.473,158 233,159.952 233,161 231.527,161 232,159.048 232,158  Z"/>

<path  fill="#C9C9CA" stroke-width="0" stroke="#C9C9CA" d = " M358 159 L359,161 C359,161 358,159 358,159  Z"/>

<path  fill="#97D6F9" stroke-width="0" stroke="#97D6F9" d = " M224 160 C222.527,160 223,161.952 223,163 224.473,163 224,161.048 224,160  Z"/>

<path  fill="#C9C9CA" stroke-width="0" stroke="#C9C9CA" d = " M98 161 L97,162 C97,162 98,161 98,161  Z"/>

<path  fill="#97D6F9" stroke-width="0" stroke="#97D6F9" d = " M233 164 C234.473,164 234,165.952 234,167 232.527,167 233,165.048 233,164  Z"/>

<path  fill="#C9C7C9" stroke-width="0" stroke="#C9C7C9" d = " M96 166 L97,166 C97,166 97,165 97,165 97,165 96,166 96,166  Z"/>

<path  fill="#C8CBCC" stroke-width="0" stroke="#C8CBCC" d = " M97 166 C97,167.048 97.4729,169 96,169 96,169 96,166 96,166 96,166 97,166 97,166  Z"/>

<path  fill="#97D6F9" stroke-width="0" stroke="#97D6F9" d = " M223 166 C221.527,166 222,167.952 222,169 223.473,169 223,167.048 223,166  Z"/>

<path  fill="#C8CBCC" stroke-width="0" stroke="#C8CBCC" d = " M360 166 L360,167 C360,167 359,166 359,166 359,166 360,166 360,166  Z"/>

<path  fill="#97D6F9" stroke-width="0" stroke="#97D6F9" d = " M234 168 C235.473,168 235,169.952 235,171 233.527,171 234,169.048 234,168  Z"/>

<path  fill="#C8CBCC" stroke-width="0" stroke="#C8CBCC" d = " M360 168 C361.473,168 361,169.952 361,171 359.527,171 360,169.048 360,168  Z"/>

<path  fill="#C8CBCC" stroke-width="0" stroke="#C8CBCC" d = " M95 171 L95,177 C96.7136,177 96,171.406 96,170 96,170 95,171 95,171  Z"/>

<path  fill="#97D6F9" stroke-width="0" stroke="#97D6F9" d = " M222 170 C220.421,170 221,172.855 221,174 222.579,174 222,171.145 222,170  Z"/>

<path  fill="#1A8061" stroke-width="0" stroke="#1A8061" d = " M94 171 L93,172 C93,172 94,171 94,171  Z"/>

<path  fill="#019C74" stroke-width="0" stroke="#019C74" d = " M94 187 L95,187 C95,185.505 92.5879,177 95,177 95,177 95,171 95,171 95,171 94,171 94,171 94,171 93,172 93,172 93,176.933 94,182.73 94,187  Z"/>

<path  fill="#A8AAAA" stroke-width="0" stroke="#A8AAAA" d = " M190 185 C190,186.606 192,191.398 192,189 192,189 192,174 192,174 192,172.952 192.473,171 191,171 191,175.725 190,180.879 190,185  Z"/>

<path  fill="#019C74" stroke-width="0" stroke="#019C74" d = " M361 188 L363,188 C363,182.078 363,177.268 363,172 363,172 363,171 363,171 363,171 361,171 361,171 361,171 361,174 361,174 363.872,174 361,186.72 361,188  Z"/>

<path  fill="#009B74" stroke-width="0" stroke="#009B74" d = " M369 191 L375,192 C375,186.122 377,179.756 377,173 372.021,173 367.602,172 363,172 363,177.268 363,182.078 363,188 364.402,188 369,189.11 369,191  Z"/>

<path  fill="#009B74" stroke-width="0" stroke="#009B74" d = " M87 191 L81,193 C81,185.923 79,180.35 79,173 79,173 93,172 93,172 93,176.933 94,182.73 94,187 94,187 87,191 87,191  Z"/>

<path  fill="#019C75" stroke-width="0" stroke="#019C75" d = " M68 195 L69,195 C72.9216,195 75.8739,193 81,193 81,185.923 79,180.35 79,173 76.293,173 73.0966,174 71,174 71,174 69,175 69,175 69,175 68,175 68,175 68,175 67,175 67,175 67,175 67,176 67,176 67,182.318 68,189.322 68,195  Z"/>

<path  fill="#8FCBED" stroke-width="0" stroke="#8FCBED" d = " M202 199 L213.5,205 C216.59,206.545 217.415,201 219,201 219,201 219,193 219,193 219,193 218,191 218,191 218,191 212.5,185 212.5,185 212.5,185 197.5,173 197.5,173 195.544,172.022 193.423,174 192,174 192,174 192,189 192,189 192,189 196,194 196,194 196,194 200,197 200,197 200,197 201,198 201,198 201,198 202,199 202,199  Z"/>

<path  fill="#8FCBED" stroke-width="0" stroke="#8FCBED" d = " M253 200 L252,201 C252,201 240.5,205 240.5,205 240.5,205 237,199 237,199 237,199 237,194 237,194 237,194 238,192 238,192 238,192 243.5,185 243.5,185 250.859,181.321 255.016,173 264,173 264,178.501 264,184.062 264,190 264,190 263,192 263,192 263,192 262,193 262,193 262,193 259,195 259,195 259,195 258,196 258,196 258,196 254,199 254,199 254,199 253,200 253,200  Z"/>

<path  fill="#A8AAAA" stroke-width="0" stroke="#A8AAAA" d = " M266 184 C266,186.426 267.024,190 264,190 264,184.062 264,178.501 264,173 264,173 265,173 265,173 265,176.249 266,180.194 266,184  Z"/>

<path  fill="#019C75" stroke-width="0" stroke="#019C75" d = " M375 193 C379.908,193 383.486,195 388,195 388,189.371 390,182.636 390,176 390,176 390,175 390,175 390,175 388,175 388,175 388,175 387,175 387,175 387,175 385,174 385,174 382.903,174 379.707,173 377,173 377,179.756 375,186.122 375,192 375,192 375,193 375,193  Z"/>

<path  fill="#11AC82" stroke-width="0" stroke="#11AC82" d = " M67 176 L62,177 C62,177 61,175 61,175 61,175 67,174 67,174 67,174 67,175 67,175 67,175 67,176 67,176  Z"/>

<path  fill="#12AD82" stroke-width="0" stroke="#12AD82" d = " M67 175 L68,175 C68,175 67,174 67,174 67,174 67,175 67,175  Z"/>

<path  fill="#12AD82" stroke-width="0" stroke="#12AD82" d = " M71 174 L69,175 C69,175 71,174 71,174  Z"/>

<path  fill="#C8CBCC" stroke-width="0" stroke="#C8CBCC" d = " M354 209 L355,209 C355,209 357,206 357,206 357,206 357,204 357,204 357,202.855 356.421,200 358,200 358,198.952 357.527,197 359,197 359,197 359,195 359,195 359,195 360,193 360,193 360,193 361,192 361,192 361,192 361,191 361,191 361,191 361,190 361,190 361,190 361,188 361,188 361,186.72 363.872,174 361,174 361,186.865 354,196.984 354,209  Z"/>

<path  fill="#12AD82" stroke-width="0" stroke="#12AD82" d = " M385 174 L387,175 C387,175 385,174 385,174  Z"/>

<path  fill="#12AD82" stroke-width="0" stroke="#12AD82" d = " M388 175 L390,175 C390,175 390,174 390,174 390,174 389,174 389,174 389,174 388,175 388,175  Z"/>

<path  fill="#11AC82" stroke-width="0" stroke="#11AC82" d = " M390 176 L395,177 C395,177 395,175 395,175 395,175 390,174 390,174 390,174 390,175 390,175 390,175 390,176 390,176  Z"/>

<path  fill="#12AC83" stroke-width="0" stroke="#12AC83" d = " M62 177 L53,180 C53,180 52,177 52,177 52,177 52,176 52,176 54.7232,176 57.7778,175 61,175 61,175 62,177 62,177  Z"/>

<path  fill="#97D6F9" stroke-width="0" stroke="#97D6F9" d = " M235 175 C236.473,175 236,176.952 236,178 234.527,178 235,176.048 235,175  Z"/>

<path  fill="#12AC83" stroke-width="0" stroke="#12AC83" d = " M403 180 L404,180 C404,178.952 403.527,177 405,177 405,177 405,176 405,176 405,176 395,175 395,175 395,175 395,177 395,177 395,177 403,180 403,180  Z"/>

<path  fill="#009C74" stroke-width="0" stroke="#009C74" d = " M68 195 L67,196 C67,190.924 62,183.755 62,177 62,177 67,176 67,176 67,182.318 68,189.322 68,195  Z"/>

<path  fill="#009C74" stroke-width="0" stroke="#009C74" d = " M388 196 L389,196 C389,192.988 395,182.225 395,177 395,177 390,176 390,176 390,182.636 388,189.371 388,195 388,195 388,196 388,196  Z"/>

<path  fill="#12AD83" stroke-width="0" stroke="#12AD83" d = " M53 181 L49,182 C48.3281,182 47,177.671 47,177 47,177 52,177 52,177 52,177 53,180 53,180 53,180 53,181 53,181  Z"/>

<path  fill="#009B75" stroke-width="0" stroke="#009B75" d = " M67 196 L59,197 C56.6658,197 57.6594,192.819 57,191.5 55.4846,188.469 53,184.541 53,181 53,181 53,180 53,180 53,180 62,177 62,177 62,183.755 67,190.924 67,196  Z"/>

<path  fill="#C8CBCC" stroke-width="0" stroke="#C8CBCC" d = " M101 209 L103,210 C103,210 101,205.5 101,205.5 100.874,205.247 95,177.918 95,177 92.5879,177 95,185.505 95,187 95,187 96,191 96,191 96,191 96,192 96,192 96,192 97,194 97,194 97,194 97,195 97,195 98.2311,195 100,202.622 100,204 100,204 100,206 100,206 100,206 101,209 101,209  Z"/>

<path  fill="#97D6F9" stroke-width="0" stroke="#97D6F9" d = " M221 177 C219.421,177 220,179.855 220,181 221.579,181 221,178.145 221,177  Z"/>

<path  fill="#009B75" stroke-width="0" stroke="#009B75" d = " M389 196 L397,197 C399.333,197 403,182.807 403,180 403,180 395,177 395,177 395,182.225 389,192.988 389,196  Z"/>

<path  fill="#12AD83" stroke-width="0" stroke="#12AD83" d = " M404 180 L408,182 C408,182 409,177 409,177 409,177 405,177 405,177 403.527,177 404,178.952 404,180  Z"/>

<path  fill="#97D6F9" stroke-width="0" stroke="#97D6F9" d = " M236 180 C237.473,180 237,181.952 237,183 235.527,183 236,181.048 236,180  Z"/>

<path  fill="#009C75" stroke-width="0" stroke="#009C75" d = " M397 198 L402,199 C402,199 408,182 408,182 408,182 404,180 404,180 404,180 403,180 403,180 403,182.807 399.333,197 397,197 397,197 397,198 397,198  Z"/>

<path  fill="#009C75" stroke-width="0" stroke="#009C75" d = " M59 198 C57.5711,198 55,198.454 55,199 53.8174,199 53.4649,195.43 53,194.5 51.2343,190.969 49,186.154 49,182 49,182 53,181 53,181 53,184.541 55.4846,188.469 57,191.5 57.6594,192.819 56.6658,197 59,197 59,197 59,198 59,198  Z"/>

<path  fill="#97D6F9" stroke-width="0" stroke="#97D6F9" d = " M220 183 C218.527,183 219,184.952 219,186 220.473,186 220,184.048 220,183  Z"/>

<path  fill="#97D6F9" stroke-width="0" stroke="#97D6F9" d = " M275 222 L280,223 C280,220.1 278.32,214.139 277,211.5 273.236,203.972 279.834,192.667 268.5,187 268.5,187 266,184 266,184 266,186.426 267.024,190 264,190 264,190 263,192 263,192 267.051,192 271,191.288 271,197 271,197 272,199 272,199 272,199 272,200 272,200 273.473,200 273,201.952 273,203 273,206.133 270.522,222 275,222  Z"/>

<path  fill="#97D6F9" stroke-width="0" stroke="#97D6F9" d = " M182 222 L177,223 C177,215.296 180.826,185 190,185 190,186.606 192,191.398 192,189 192,189 196,194 196,194 193.219,194 186,187.898 186,195 186,195 185,196 185,196 185,196 185,199 185,199 185,199 184,201 184,201 184,206.582 185,209.933 185,215 184.267,215 182,221.022 182,222  Z"/>

<path  fill="#209666" stroke-width="0" stroke="#209666" d = " M87 191 L89,195 C89,193.075 92.0753,190 94,190 94,190 94,187 94,187 94,187 87,191 87,191  Z"/>

<path  fill="#1F9766" stroke-width="0" stroke="#1F9766" d = " M94 190 L96,191 C96,191 95,187 95,187 95,187 94,187 94,187 94,187 94,190 94,190  Z"/>

<path  fill="#97D6F9" stroke-width="0" stroke="#97D6F9" d = " M238 192 L237,194 C237,194 237,187 237,187 238.643,187 238,190.765 238,192  Z"/>

<path  fill="#1F9766" stroke-width="0" stroke="#1F9766" d = " M361 190 L362,190 C362,190 363,188 363,188 363,188 361,188 361,188 361,188 361,190 361,190  Z"/>

<path  fill="#209666" stroke-width="0" stroke="#209666" d = " M369 191 L367,195 C367,192.638 364.362,190 362,190 362,190 363,188 363,188 364.402,188 369,189.11 369,191  Z"/>

<path  fill="#8ADA86" stroke-width="0" stroke="#8ADA86" d = " M93 209 L95,209 C95,209 98,208 98,208 98,208 99,206 99,206 99,206 99,204 99,204 99,200.843 97,198.519 97,195 97,195 97,194 97,194 97,194 96,192 96,192 96,192 96,191 96,191 96,191 94,190 94,190 92.0753,190 89,193.075 89,195 89,200.633 93,206.584 93,209  Z"/>

<path  fill="#209666" stroke-width="0" stroke="#209666" d = " M362 190 L361,191 C361,191 361,190 361,190 361,190 362,190 362,190  Z"/>

<path  fill="#8ADA86" stroke-width="0" stroke="#8ADA86" d = " M361 209 L363,209 C363,209 364,208 364,208 364,205.589 367,200.4 367,195 367,192.638 364.362,190 362,190 362,190 361,191 361,191 361,191 361,192 361,192 361,192 360,193 360,193 360,193 359,195 359,195 359,195 359,197 359,197 359,198.048 359.473,200 358,200 358,201.145 358.579,204 357,204 357,204 357,206 357,206 357,206 360,209 360,209 360,209 361,209 361,209  Z"/>

<path  fill="#209766" stroke-width="0" stroke="#209766" d = " M93 211 L89,212 C89,205.896 81,199.526 81,193 81,193 87,191 87,191 87,191 89,195 89,195 89,200.633 93,206.584 93,209 93,209 93,211 93,211  Z"/>

<path  fill="#B3C0DE" stroke-width="0" stroke="#B3C0DE" d = " M184 231 L195,231 C200.797,231 201.341,222 208,222 208,222 209,220 209,220 209,220 209,213 209,213 209,213 208,212 208,212 208,207.429 202,201.132 202,199 202,199 201,198 201,198 201,198 200,197 200,197 200,197 196,194 196,194 193.219,194 186,187.898 186,195 186,195 185,196 185,196 185,196 185,199 185,199 185,199 184,201 184,201 184,206.582 185,209.933 185,215 186.845,215 186.441,211.619 187,210.5 187,210.5 193.5,207 193.5,207 195.786,205.857 201.168,212.165 200,214.5 196.872,220.755 185,226.564 185,215 184.267,215 182,221.022 182,222 182,223.477 184,227.699 184,231  Z"/>

<path  fill="#97D6F9" stroke-width="0" stroke="#97D6F9" d = " M219 191 L219,193 C219,193 218,191 218,191 218,191 219,191 219,191  Z"/>

<path  fill-rule="evenodd" fill="#B3C0DE" stroke-width="0" stroke="#B3C0DE" d = " M262 207 C262,209.069 257,208.43 257,211.5 257,225.56 275.657,224.814 269,211.5 267.653,208.806 265.202,207 262,207  M261 231 L273,231 C273,231 273,223.5 273,223.5 273,223.5 275,222 275,222 270.522,222 273,206.133 273,203 271.527,203 272,201.048 272,200 272,200 272,199 272,199 272,199 271,197 271,197 271,191.288 267.051,192 263,192 263,192 262,193 262,193 262,193 259,195 259,195 259,195 258,196 258,196 258,196 254,199 254,199 254,199 253,200 253,200 253,200 252,201 252,201 252,201 248,212 248,212 248,212 247,214 247,214 247,214 247,219 247,219 247,219 249,221 249,221 254.545,221 254.648,231 261,231  Z"/>

<path  fill="#209766" stroke-width="0" stroke="#209766" d = " M363 210 L367,212 C368.845,212 368.441,208.619 369,207.5 371.192,203.116 375,198.192 375,193 375,193 375,192 375,192 375,192 369,191 369,191 369,191 367,195 367,195 367,200.4 364,205.589 364,208 364,208 363,209 363,209 363,209 363,210 363,210  Z"/>

<path  fill="#209666" stroke-width="0" stroke="#209666" d = " M96 192 L97,194 C97,194 96,192 96,192  Z"/>

<path  fill="#97D6F9" stroke-width="0" stroke="#97D6F9" d = " M263 192 L262,193 C262,193 263,192 263,192  Z"/>

<path  fill="#209666" stroke-width="0" stroke="#209666" d = " M361 192 L360,193 C360,193 361,192 361,192  Z"/>

<path  fill="#219864" stroke-width="0" stroke="#219864" d = " M81 215 L85,215 C85,215 89,212 89,212 89,205.896 81,199.526 81,193 75.8739,193 72.9216,195 69,195 69,198.258 78.0457,215 81,215  Z"/>

<path  fill="#209666" stroke-width="0" stroke="#209666" d = " M360 193 L359,195 C359,195 360,193 360,193  Z"/>

<path  fill="#219864" stroke-width="0" stroke="#219864" d = " M372 215 L376,215 C376.804,215 385.108,202.284 386,200.5 386.465,199.57 386.817,196 388,196 388,196 388,195 388,195 383.486,195 379.908,193 375,193 375,198.192 371.192,203.116 369,207.5 368.441,208.619 368.845,212 367,212 367,212 372,215 372,215  Z"/>

<path  fill="#209865" stroke-width="0" stroke="#209865" d = " M81 215 C81,215.885 71.3166,219 70,219 70,214.159 59,204.232 59,198 59,198 59,197 59,197 59,197 67,196 67,196 67,196 68,195 68,195 68,195 69,195 69,195 69,198.258 78.0457,215 81,215  Z"/>

<path  fill="#209666" stroke-width="0" stroke="#209666" d = " M99 204 L100,204 C100,202.622 98.2311,195 97,195 97,198.519 99,200.843 99,204  Z"/>

<path  fill="#8599CC" stroke-width="0" stroke="#8599CC" d = " M186 195 L185,196 C185,196 186,195 186,195  Z"/>

<path  fill="#97D6F9" stroke-width="0" stroke="#97D6F9" d = " M259 195 L258,196 C258,196 259,195 259,195  Z"/>

<path  fill="#209865" stroke-width="0" stroke="#209865" d = " M376 215 C376,216.259 384.632,219 386,219 386,216.435 397,204.109 397,198 397,198 397,197 397,197 397,197 389,196 389,196 389,196 388,196 388,196 386.817,196 386.465,199.57 386,200.5 385.108,202.284 376.804,215 376,215  Z"/>

<path  fill="#97D6F9" stroke-width="0" stroke="#97D6F9" d = " M200 197 L201,198 C201,198 200,197 200,197  Z"/>

<path  fill="#8599CC" stroke-width="0" stroke="#8599CC" d = " M271 197 L272,199 C272,199 271,197 271,197  Z"/>

<path  fill="#209666" stroke-width="0" stroke="#209666" d = " M359 197 C357.527,197 358,198.952 358,200 359.473,200 359,198.048 359,197  Z"/>

<path  fill="#219765" stroke-width="0" stroke="#219765" d = " M70 219 L65,221 C65,221 62,215.5 62,215.5 59.7007,210.901 55,204.31 55,199 55,198.454 57.5711,198 59,198 59,204.232 70,214.159 70,219  Z"/>

<path  fill="#219765" stroke-width="0" stroke="#219765" d = " M386 219 L391,221 C393.226,221 392.829,217.671 394,216.5 394,216.5 402,199 402,199 402,199 397,198 397,198 397,204.109 386,216.435 386,219  Z"/>

<path  fill="#8599CC" stroke-width="0" stroke="#8599CC" d = " M185 199 L184,201 C184,201 185,199 185,199  Z"/>

<path  fill="#97D6F9" stroke-width="0" stroke="#97D6F9" d = " M209 213 C211.379,213 213.917,209.708 216.5,211 L221,213 C221,213 219,201 219,201 217.415,201 216.59,206.545 213.5,205 213.5,205 202,199 202,199 202,201.132 208,207.429 208,212 208,212 209,213 209,213  Z"/>

<path  fill="#97D6F9" stroke-width="0" stroke="#97D6F9" d = " M235 213 C237.379,213 239.917,209.708 242.5,211 L247,213 C247,213 248,212 248,212 248,212 252,201 252,201 252,201 240.5,205 240.5,205 240.5,205 237,199 237,199 237,204.04 235,208.869 235,213  Z"/>

<path  fill="#97D6F9" stroke-width="0" stroke="#97D6F9" d = " M254 199 L253,200 C253,200 254,199 254,199  Z"/>

<path  fill="#97D6F9" stroke-width="0" stroke="#97D6F9" d = " M253 200 L252,201 C252,201 253,200 253,200  Z"/>

<path  fill="#8599CC" stroke-width="0" stroke="#8599CC" d = " M272 200 C273.473,200 273,201.952 273,203 271.527,203 272,201.048 272,200  Z"/>

<path  fill="#209666" stroke-width="0" stroke="#209666" d = " M358 200 C356.421,200 357,202.855 357,204 358.579,204 358,201.145 358,200  Z"/>

<path  fill="#1F9866" stroke-width="0" stroke="#1F9866" d = " M99 206 L100,206 C100,206 100,204 100,204 100,204 99,204 99,204 99,204 99,206 99,206  Z"/>

<path  fill="#8AD987" stroke-width="0" stroke="#8AD987" d = " M98 208 L101,209 C101,209 100,206 100,206 100,206 99,206 99,206 99,206 98,208 98,208  Z"/>

<path  fill="#8AD987" stroke-width="0" stroke="#8AD987" d = " M358 208 L355,209 C355,209 357,206 357,206 357,206 358,208 358,208  Z"/>

<path  fill="#1F9866" stroke-width="0" stroke="#1F9866" d = " M358 208 L360,209 C360,209 357,206 357,206 357,206 358,208 358,208  Z"/>

<path  fill="#CBCBC7" stroke-width="0" stroke="#CBCBC7" d = " M185 215 C185,226.564 196.872,220.755 200,214.5 201.168,212.165 195.786,205.857 193.5,207 L187,210.5 C186.441,211.619 186.845,215 185,215  Z"/>

<path  fill="#CBCBC7" stroke-width="0" stroke="#CBCBC7" d = " M262 207 C262,209.069 257,208.43 257,211.5 257,225.56 275.657,224.814 269,211.5 267.653,208.806 265.202,207 262,207  Z"/>

<path  fill="#A0EE9C" stroke-width="0" stroke="#A0EE9C" d = " M100 227 L105,228 C107.565,228 110,228.236 110,225 110,225 109,223 109,223 109,219.188 103,214.333 103,210 103,210 101,209 101,209 101,209 98,208 98,208 98,208 95,209 95,209 95,209 93,211 93,211 93,211 93,219.5 93,219.5 93,219.5 99,227 99,227 99,227 100,227 100,227  Z"/>

<path  fill="#A0EE9C" stroke-width="0" stroke="#A0EE9C" d = " M351 228 L355,228 C355,228 356,227 356,227 356,227 357,227 357,227 357,227 358,226 358,226 358,226 360,225 360,225 360,225 361,224 361,224 361,224 362,223 362,223 362,223 363,221 363,221 363,221 364,213.5 364,213.5 364,213.5 362,210 362,210 362,210 361,209 361,209 361,209 360,209 360,209 360,209 358,208 358,208 358,208 355,209 355,209 355,209 354,209 354,209 354,209 353,210 353,210 353,214.607 348,218.09 348,222 348,222 347,223 347,223 347,223 346,225 346,225 346,227.393 349.234,228 351,228  Z"/>

<path  fill="#1F9866" stroke-width="0" stroke="#1F9866" d = " M364 208 L363,209 C363,209 364,208 364,208  Z"/>

<path  fill="#1F9866" stroke-width="0" stroke="#1F9866" d = " M95 209 L93,211 C93,211 93,209 93,209 93,209 95,209 95,209  Z"/>

<path  fill="#C8CBCC" stroke-width="0" stroke="#C8CBCC" d = " M354 209 L353,210 C353,210 354,209 354,209  Z"/>

<path  fill="#1F9866" stroke-width="0" stroke="#1F9866" d = " M362 210 L363,210 C363,210 363,209 363,209 363,209 361,209 361,209 361,209 362,210 362,210  Z"/>

<path  fill="#99D2BD" stroke-width="0" stroke="#99D2BD" d = " M372 215 C367.211,215 365.802,221 363,221 363,221 364,213.5 364,213.5 364,213.5 362,210 362,210 362,210 363,210 363,210 363,210 367,212 367,212 367,212 372,215 372,215  Z"/>

<path  fill="#99D2BD" stroke-width="0" stroke="#99D2BD" d = " M85 215 C92.2336,215 92.7934,227 99,227 99,227 93,219.5 93,219.5 93,219.5 93,211 93,211 93,211 89,212 89,212 89,212 85,215 85,215  Z"/>

<path  fill="#FF5547" stroke-width="0" stroke="#FF5547" d = " M214 232 L215,232 C215,232 217,231 217,231 217,231 218,231 218,231 218,231 219,230 219,230 219,230 220,229 220,229 220,228.078 222.496,221 223,221 223,217.985 221,214.996 221,213 221,213 216.5,211 216.5,211 213.917,209.708 211.379,213 209,213 209,213 209,220 209,220 209,220 209,223 209,223 209,223 209,228 209,228 210.302,228 211.641,232 214,232  Z"/>

<path  fill="#FF5547" stroke-width="0" stroke="#FF5547" d = " M241 232 L243,232 C248.355,232 247,222.864 247,219 247,219 247,214 247,214 247,214 247,213 247,213 247,213 242.5,211 242.5,211 239.917,209.708 237.379,213 235,213 235,213 234,219 234,219 234,222.909 237,226.158 237,229 237,230.577 238.762,231 240,231 240,231 241,232 241,232  Z"/>

<path  fill="#E64438" stroke-width="0" stroke="#E64438" d = " M208 212 L209,213 C209,213 208,212 208,212  Z"/>

<path  fill="#E64438" stroke-width="0" stroke="#E64438" d = " M247 213 L247,214 C247,214 248,212 248,212 248,212 247,213 247,213  Z"/>

<path  fill="#6ACAB9" stroke-width="0" stroke="#6ACAB9" d = " M117 267 L119,268 C119,268 125,263 125,263 125,263 126,262 126,262 126,253.084 129.44,242.47 118.5,237 118.5,237 100,227 100,227 100,227 99,227 99,227 92.7934,227 92.2336,215 85,215 85,215 81,215 81,215 81,215.885 71.3166,219 70,219 70,219 65,221 65,221 65,229.107 77.3919,239.284 81,246.5 81,246.5 85,249.5 85,249.5 86.3497,252.199 91.5664,259 95,259 98.2235,259 116.487,267 117,267  Z"/>

<path  fill="#6ACAB9" stroke-width="0" stroke="#6ACAB9" d = " M339 267 L337,268 C337,268 331,262 331,262 331,258.862 326.904,253.691 329,249.5 331.353,244.794 335.146,241.208 337,237.5 337,237.5 355,228 355,228 355,228 356,227 356,227 356,227 357,227 357,227 357,227 358,226 358,226 358,226 360,225 360,225 360,225 361,224 361,224 361,224 362,223 362,223 362,223 363,221 363,221 365.802,221 367.211,215 372,215 372,215 376,215 376,215 376,216.259 384.632,219 386,219 386,219 391,221 391,221 391,230.322 376.264,245.236 369.5,252 369.5,252 361,261 361,261 361,261 360.5,259 360.5,259 360.5,259 356.5,261 356.5,261 356.5,261 343.5,264 343.5,264 341.471,265.014 341.229,267 339,267  Z"/>

<path  fill="#E64438" stroke-width="0" stroke="#E64438" d = " M237 229 C234.235,229 231.835,231 230,231 230,231 231,225 231,225 231,225 234,219 234,219 234,222.909 237,226.158 237,229  Z"/>

<path  fill="#E64438" stroke-width="0" stroke="#E64438" d = " M257 242 C253.61,242 251.979,243 251,243 251,236.704 243,232.425 243,232 248.355,232 247,222.864 247,219 247,219 249,221 249,221 249,226.924 246.942,241 257,241 257,241 257,242 257,242  Z"/>

<path  fill="#E64438" stroke-width="0" stroke="#E64438" d = " M208 222 L209,223 C209,223 209,220 209,220 209,220 208,222 208,222  Z"/>

<path  fill="#FD5446" stroke-width="0" stroke="#FD5446" d = " M201 241 L202,241 C202,238.464 209,232.816 209,228 209,228 209,223 209,223 209,223 208,222 208,222 201.341,222 200.797,231 195,231 195,231 193,235 193,235 193,237.473 196.527,241 199,241 199,241 201,241 201,241  Z"/>

<path  fill="#E64438" stroke-width="0" stroke="#E64438" d = " M220 229 C226.918,229 226.36,235 227,235 227,231.23 225,227.979 225,225 225,225 223,221 223,221 222.496,221 220,228.078 220,229  Z"/>

<path  fill="#FD5446" stroke-width="0" stroke="#FD5446" d = " M263 235 C263,238.169 260.169,241 257,241 246.942,241 249,226.924 249,221 254.545,221 254.648,231 261,231 261,231 263,235 263,235  Z"/>

<path  fill="#99D2BD" stroke-width="0" stroke="#99D2BD" d = " M363 221 L362,223 C362,223 363,221 363,221  Z"/>

<path  fill="#80CDF8" stroke-width="0" stroke="#80CDF8" d = " M133 256 L135,258 C140.854,258 147.475,262.013 153.5,259 158.929,256.286 163.342,249.079 167.5,247 167.5,247 179,238 179,238 179,238 184,231 184,231 184,227.699 182,223.477 182,222 182,222 177,223 177,223 177,223 173,228.5 173,228.5 173,228.5 164.5,233 164.5,233 161.019,234.741 142.169,235 137,235 137,236.579 134.145,236 133,236 133,236 130,236 130,236 130,237.457 127,237.46 127,240 127,245.046 133,250.262 133,256  Z"/>

<path  fill="#80CDF8" stroke-width="0" stroke="#80CDF8" d = " M323 256 L321,258 C307.611,258 310.247,261.874 296.5,255 291.045,252.273 282.075,238 277,238 277,235.633 273,233.968 273,231 273,231 273,223.5 273,223.5 273,223.5 275,222 275,222 275,222 280,223 280,223 280,234.357 310.612,235 319,235 319,236.643 322.765,236 324,236 324,236 326,236 326,236 328.409,236 329,237.957 329,240 329,245.092 323,250.646 323,256  Z"/>

<path  fill="#C8CBCC" stroke-width="0" stroke="#C8CBCC" d = " M348 222 L347,223 C347,223 348,222 348,222  Z"/>

<path  fill="#C8CBCC" stroke-width="0" stroke="#C8CBCC" d = " M110 225 C113.138,225 115.118,231 119,231 119,231 109,223 109,223 109,223 110,225 110,225  Z"/>

<path  fill="#C8CBCC" stroke-width="0" stroke="#C8CBCC" d = " M345 225 L346,225 C346,225 347,223 347,223 347,223 345,225 345,225  Z"/>

<path  fill="#99D2BD" stroke-width="0" stroke="#99D2BD" d = " M361 224 L360,225 C360,225 361,224 361,224  Z"/>

<path  fill="#8AD987" stroke-width="0" stroke="#8AD987" d = " M121 232 L121,236 C116.544,236 113.268,230.884 109.5,229 108.353,228.426 105,230.064 105,228 107.565,228 110,228.236 110,225 113.138,225 115.118,231 119,231 119,231 120,232 120,232 120,232 121,232 121,232  Z"/>

<path  fill="#C8CBCC" stroke-width="0" stroke="#C8CBCC" d = " M345 225 L343,227 C344.747,227 345,226.747 345,225  Z"/>

<path  fill="#8AD987" stroke-width="0" stroke="#8AD987" d = " M335 233 L335,236 C335,236 351,228 351,228 349.234,228 346,227.393 346,225 346,225 345,225 345,225 345,226.747 344.747,227 343,227 343,228.747 342.747,229 341,229 341,230.577 339.238,231 338,231 338,231 337,231 337,231 337,231 336,232 336,232 336,232 335,233 335,233  Z"/>

<path  fill="#99D2BD" stroke-width="0" stroke="#99D2BD" d = " M358 226 L357,227 C357,227 358,226 358,226  Z"/>

<path  fill="#99D2BD" stroke-width="0" stroke="#99D2BD" d = " M126 262 L127,262 C127,262 133,259 133,259 133,259 134,258 134,258 134,258 133,256 133,256 133,250.262 127,245.046 127,240 124.67,240 123.773,236 121,236 116.544,236 113.268,230.884 109.5,229 108.353,228.426 105,230.064 105,228 105,228 100,227 100,227 100,227 118.5,237 118.5,237 129.44,242.47 126,253.084 126,262  Z"/>

<path  fill="#C8CBCC" stroke-width="0" stroke="#C8CBCC" d = " M343 227 L341,229 C342.747,229 343,228.747 343,227  Z"/>

<path  fill="#99D2BD" stroke-width="0" stroke="#99D2BD" d = " M356 227 L355,228 C355,228 356,227 356,227  Z"/>

<path  fill="#E64438" stroke-width="0" stroke="#E64438" d = " M202 241 L205,242 C205,242 208.5,235 208.5,235 208.5,235 214,232 214,232 211.641,232 210.302,228 209,228 209,232.816 202,238.464 202,241  Z"/>

<path  fill="#99D2BD" stroke-width="0" stroke="#99D2BD" d = " M329 262 L331,262 C331,258.862 326.904,253.691 329,249.5 331.353,244.794 335.146,241.208 337,237.5 337,237.5 355,228 355,228 355,228 351,228 351,228 351,228 335,236 335,236 335,236 329,240 329,240 329,245.092 323,250.646 323,256 323,256 323,258 323,258 323,258 329,262 329,262  Z"/>

<path  fill="#E64438" stroke-width="0" stroke="#E64438" d = " M220 229 L219,230 C219,230 220,229 220,229  Z"/>

<path  fill="#FF5346" stroke-width="0" stroke="#FF5346" d = " M213 265 C209.901,265 207.117,269 203,269 203,269 199,263 199,263 199,263 199,261 199,261 199,254.668 205,249.423 205,242 205,242 208.5,235 208.5,235 208.5,235 214,232 214,232 214,232 215,232 215,232 215,232 217,231 217,231 217,231 218,231 218,231 218,231 219,230 219,230 219,230 220,229 220,229 226.918,229 226.36,235 227,235 227,235 227,236 227,236 227,236 227,238 227,238 227,238 226,239 226,239 226,239 225,244 225,244 221.306,244 220.892,249 219,249 219,244.731 214.422,247 213,247 202.821,247 198.194,269.153 208.5,264 208.5,264 215,261 215,261 215,261 213,265 213,265  Z"/>

<path  fill="#FF5346" stroke-width="0" stroke="#FF5346" d = " M243 265 C246.657,265 248.884,269 253,269 253.81,269 257,263.781 257,263 257,263 258,262 258,262 258,262 258,261 258,261 256.749,261 251,245.548 251,243 251,236.704 243,232.425 243,232 243,232 241,232 241,232 241,232 240,231 240,231 238.762,231 237,230.577 237,229 234.235,229 231.835,231 230,231 230,231 230,239 230,239 231.579,239 231,241.855 231,243 233.684,243 235.535,248 237,248 237,248 242.5,246 242.5,246 246.39,247.945 260.827,259.336 251.5,264 247.207,266.146 244.179,260 241,260 241,260 243,265 243,265  Z"/>

<path  fill="#C8CBCC" stroke-width="0" stroke="#C8CBCC" d = " M341 229 C339.762,229 338,229.423 338,231 339.238,231 341,230.577 341,229  Z"/>

<path  fill="#E64438" stroke-width="0" stroke="#E64438" d = " M219 230 L218,231 C218,231 219,230 219,230  Z"/>

<path  fill="#97D6F9" stroke-width="0" stroke="#97D6F9" d = " M119 231 L120,232 C120,232 119,231 119,231  Z"/>

<path  fill="#E64438" stroke-width="0" stroke="#E64438" d = " M193 235 C188.693,235 183.575,238 179,238 179,238 184,231 184,231 184,231 195,231 195,231 195,231 193,235 193,235  Z"/>

<path  fill="#E64438" stroke-width="0" stroke="#E64438" d = " M217 231 L215,232 C215,232 217,231 217,231  Z"/>

<path  fill="#E64438" stroke-width="0" stroke="#E64438" d = " M229 238 L230,239 C230,239 230,231 230,231 228.286,231 229,236.594 229,238  Z"/>

<path  fill="#E64438" stroke-width="0" stroke="#E64438" d = " M240 231 L241,232 C241,232 240,231 240,231  Z"/>

<path  fill="#E64438" stroke-width="0" stroke="#E64438" d = " M263 235 C267.188,235 272.593,238 277,238 277,235.633 273,233.968 273,231 273,231 261,231 261,231 261,231 263,235 263,235  Z"/>

<path  fill="#97D6F9" stroke-width="0" stroke="#97D6F9" d = " M337 231 L336,232 C336,232 337,231 337,231  Z"/>

<path  fill="#97D6F9" stroke-width="0" stroke="#97D6F9" d = " M130 236 C130,237.457 127,237.46 127,240 124.67,240 123.773,236 121,236 121,236 121,232 121,232 121.833,232 130,235.908 130,236  Z"/>

<path  fill="#97D6F9" stroke-width="0" stroke="#97D6F9" d = " M336 232 L335,233 C335,233 336,232 336,232  Z"/>

<path  fill="#97D6F9" stroke-width="0" stroke="#97D6F9" d = " M335 236 L329,240 C329,237.957 328.409,236 326,236 326,235.037 333.561,233 335,233 335,233 335,236 335,236  Z"/>

<path  fill="#97D6F9" stroke-width="0" stroke="#97D6F9" d = " M137 235 C135.855,235 133,234.421 133,236 134.145,236 137,236.579 137,235  Z"/>

<path  fill="#A2B1D7" stroke-width="0" stroke="#A2B1D7" d = " M184 263 C181.435,263 173.382,269.264 175,272.5 L178,277 C167.329,277 155.401,281.95 145.5,277 145.5,277 136.5,271 136.5,271 136.5,271 127,262 127,262 127,262 133,259 133,259 133,259 134,258 134,258 134,258 135,258 135,258 140.854,258 147.475,262.013 153.5,259 158.929,256.286 163.342,249.079 167.5,247 167.5,247 179,238 179,238 183.575,238 188.693,235 193,235 193,237.473 196.527,241 199,241 199,241 199,242 199,242 199,247.398 187,257.86 187,261 187,261 184,263 184,263  Z"/>

<path  fill="#A2B1D7" stroke-width="0" stroke="#A2B1D7" d = " M273 264 C283.804,264 279,272.705 279,277 286.157,277 298.619,282.441 305.5,279 310.184,276.658 315.455,273.022 319.5,271 319.5,271 329,262 329,262 329,262 323,258 323,258 323,258 321,258 321,258 307.611,258 310.247,261.874 296.5,255 291.045,252.273 282.075,238 277,238 272.593,238 267.188,235 263,235 263,238.169 260.169,241 257,241 257,241 257,242 257,242 257,246.261 269,258.004 269,261 270.429,261 273,262.288 273,264  Z"/>

<path  fill="#97D6F9" stroke-width="0" stroke="#97D6F9" d = " M319 235 C320.235,235 324,234.357 324,236 322.765,236 319,236.643 319,235  Z"/>

<path  fill="#E64438" stroke-width="0" stroke="#E64438" d = " M227 238 L228,238 C228,238 227,236 227,236 227,236 227,238 227,238  Z"/>

<path  fill="#E64438" stroke-width="0" stroke="#E64438" d = " M227 238 L226,239 C226,239 227,238 227,238  Z"/>

<path  fill="#FF5445" stroke-width="0" stroke="#FF5445" d = " M226 254 L231,254 C231,254 231,243 231,243 231,241.855 231.579,239 230,239 230,239 229,238 229,238 229,238 228,238 228,238 228,238 227,238 227,238 227,238 226,239 226,239 226,239 225,244 225,244 225,245.657 224.237,254 226,254  Z"/>

<path  fill="#E64438" stroke-width="0" stroke="#E64438" d = " M201 241 L199,242 C199,242 199,241 199,241 199,241 201,241 201,241  Z"/>

<path  fill="#F2473B" stroke-width="0" stroke="#F2473B" d = " M187 262 C190.62,262 193.768,262 198,262 198,262 199,261 199,261 199,254.668 205,249.423 205,242 205,242 202,241 202,241 202,241 201,241 201,241 201,241 199,242 199,242 199,247.398 187,257.86 187,261 187,261 187,262 187,262  Z"/>

<path  fill="#F2473B" stroke-width="0" stroke="#F2473B" d = " M259 262 C262.894,262 265.605,262 269,262 269,262 269,261 269,261 269,258.004 257,246.261 257,242 253.61,242 251.979,243 251,243 251,245.548 256.749,261 258,261 258,261 259,262 259,262  Z"/>

<path  fill="#FE5446" stroke-width="0" stroke="#FE5446" d = " M240 273 L245,274 C245,271.443 243,267.902 243,265 243,265 241,260 241,260 241,257.477 237,253.195 237,248 235.535,248 233.684,243 231,243 231,243 231,254 231,254 231,254 231,268 231,268 231,268 231,269 231,269 231,269 231,270 231,270 231,270 238,272 238,272 238,272 239,273 239,273 239,273 240,273 240,273  Z"/>

<path  fill="#FE5446" stroke-width="0" stroke="#FE5446" d = " M217 273 L211,274 C211,270.481 213,268.157 213,265 213,265 215,261 215,261 215,257.738 219,254.233 219,249 220.892,249 221.306,244 225,244 225,245.657 224.237,254 226,254 226,254 225,269 225,269 225,269 225,270 225,270 225,270 220,271 220,271 220,271 219,272 219,272 219,272 218,272 218,272 218,272 217,273 217,273  Z"/>

<path  fill="#FE5447" stroke-width="0" stroke="#FE5447" d = " M219 249 C219,254.233 215,257.738 215,261 215,261 208.5,264 208.5,264 198.194,269.153 202.821,247 213,247 214.422,247 219,244.731 219,249  Z"/>

<path  fill="#FE5447" stroke-width="0" stroke="#FE5447" d = " M237 248 L242.5,246 C246.39,247.945 260.827,259.336 251.5,264 247.207,266.146 244.179,260 241,260 241,257.477 237,253.195 237,248  Z"/>

<path  fill="#FD5447" stroke-width="0" stroke="#FD5447" d = " M225 269 L226,269 C226,269 227,268 227,268 227,266.601 229,266.601 229,268 229,268 230,268 230,268 230,268 231,268 231,268 231,268 231,254 231,254 231,254 226,254 226,254 226,254 225,269 225,269  Z"/>

<path  fill="#97D6F9" stroke-width="0" stroke="#97D6F9" d = " M134 258 L135,258 C135,258 133,256 133,256 133,256 134,258 134,258  Z"/>

<path  fill="#97D6F9" stroke-width="0" stroke="#97D6F9" d = " M321 258 L323,258 C323,258 323,256 323,256 323,256 321,258 321,258  Z"/>

<path  fill="#97D6F9" stroke-width="0" stroke="#97D6F9" d = " M134 258 L133,259 C133,259 134,258 134,258  Z"/>

<path  fill="#CAC8C7" stroke-width="0" stroke="#CAC8C7" d = " M117 271 L117,274 C111.406,274 95,265.342 95,259 98.2235,259 116.487,267 117,267 117,267 117,271 117,271  Z"/>

<path  fill="#CAC8C7" stroke-width="0" stroke="#CAC8C7" d = " M339 273 L340,274 C343.563,274 361,263.782 361,261 361,261 360.5,259 360.5,259 360.5,259 356.5,261 356.5,261 356.5,261 343.5,264 343.5,264 341.471,265.014 341.229,267 339,267 339,267 339,270 339,270 339,270 339,273 339,273  Z"/>

<path  fill="#E64438" stroke-width="0" stroke="#E64438" d = " M184 263 L185,264 C185,264 187,262 187,262 187,262 187,261 187,261 187,261 184,263 184,263  Z"/>

<path  fill="#96A6D3" stroke-width="0" stroke="#96A6D3" d = " M200 277 L197,278 C194.613,278 184,279.472 184,274 184,274 185,264 185,264 185,264 187,262 187,262 190.62,262 193.768,262 198,262 198,262 199,263 199,263 199,263 203,269 203,269 203,272.47 200,274.278 200,277  Z"/>

<path  fill="#CBCCCB" stroke-width="0" stroke="#CBCCCB" d = " M198 262 L199,263 C199,263 199,261 199,261 199,261 198,262 198,262  Z"/>

<path  fill="#CBCCCB" stroke-width="0" stroke="#CBCCCB" d = " M258 262 L259,262 C259,262 258,261 258,261 258,261 258,262 258,262  Z"/>

<path  fill="#96A6D3" stroke-width="0" stroke="#96A6D3" d = " M257 277 L258,277 C259.984,277 261.945,280.278 264.5,279 264.5,279 273,275 273,275 273,275 271,265 271,265 271,262.785 269,263.481 269,262 265.605,262 262.894,262 259,262 259,262 258,262 258,262 258,262 257,263 257,263 257,263.781 253.81,269 253,269 253,272.482 257,274.416 257,277  Z"/>

<path  fill="#E64438" stroke-width="0" stroke="#E64438" d = " M273 264 L271,265 C271,262.785 269,263.481 269,262 269,262 269,261 269,261 270.429,261 273,262.288 273,264  Z"/>

<path  fill="#99D2BD" stroke-width="0" stroke="#99D2BD" d = " M126 262 L125,263 C125,263 126,262 126,262  Z"/>

<path  fill="#7FCCF7" stroke-width="0" stroke="#7FCCF7" d = " M120 278 C120,282.311 126.926,288.213 130.5,290 134.206,291.853 136.83,295.165 140.5,297 150.378,301.939 164.975,299.763 174.5,295 178.961,292.77 189,292.533 189,285 189,280.565 184.232,277 180,277 180,277 178,277 178,277 167.329,277 155.401,281.95 145.5,277 145.5,277 136.5,271 136.5,271 136.5,271 127,262 127,262 127,262 126,262 126,262 126,262 125,263 125,263 125,263 119,268 119,268 119,268 119,269 119,269 119,269 119,276 119,276 119,276 119,277 119,277 119,277 120,278 120,278  Z"/>

<path  fill="#CBCCCB" stroke-width="0" stroke="#CBCCCB" d = " M258 262 L257,263 C257,263 258,262 258,262  Z"/>

<path  fill="#7FCCF7" stroke-width="0" stroke="#7FCCF7" d = " M337 277 C337,282.057 328.491,289.005 324.5,291 309.811,298.344 302.855,304.678 285.5,296 281.003,293.752 268,294.345 268,286 268,281.262 271.037,277 276,277 276,277 279,277 279,277 286.157,277 298.619,282.441 305.5,279 310.184,276.658 315.455,273.022 319.5,271 319.5,271 329,262 329,262 329,262 331,262 331,262 331,262 337,268 337,268 337,268 338,270 338,270 338,270 338,275 338,275 338,275 337,277 337,277  Z"/>

<path  fill="#A2B1D8" stroke-width="0" stroke="#A2B1D8" d = " M178 277 L180,277 C180,277 184,274 184,274 184,274 185,264 185,264 185,264 184,263 184,263 181.435,263 173.382,269.264 175,272.5 175,272.5 178,277 178,277  Z"/>

<path  fill="#A2B1D8" stroke-width="0" stroke="#A2B1D8" d = " M276 277 L279,277 C279,272.705 283.804,264 273,264 273,264 271,265 271,265 271,265 273,275 273,275 274.238,275 276,275.423 276,277  Z"/>

<path  fill="#E64438" stroke-width="0" stroke="#E64438" d = " M211 274 C211,275.025 201.679,277 200,277 200,274.278 203,272.47 203,269 207.117,269 209.901,265 213,265 213,268.157 211,270.481 211,274  Z"/>

<path  fill="#E64438" stroke-width="0" stroke="#E64438" d = " M245 274 C249.091,274 252.605,277 257,277 257,274.416 253,272.482 253,269 248.884,269 246.657,265 243,265 243,267.902 245,271.443 245,274  Z"/>

<path  fill="#99D2BD" stroke-width="0" stroke="#99D2BD" d = " M119 269 L117,271 C117,271 117,267 117,267 117,267 119,268 119,268 119,268 119,269 119,269  Z"/>

<path  fill="#A8A9AA" stroke-width="0" stroke="#A8A9AA" d = " M229 268 C229,269.652 227,271.092 227,269 227,269 227,268 227,268 227,266.601 229,266.601 229,268  Z"/>

<path  fill="#99D2BD" stroke-width="0" stroke="#99D2BD" d = " M338 270 L339,270 C339,270 339,267 339,267 339,267 337,268 337,268 337,268 338,270 338,270  Z"/>

<path  fill="#E64438" stroke-width="0" stroke="#E64438" d = " M226 269 L227,269 C227,269 227,268 227,268 227,268 226,269 226,269  Z"/>

<path  fill="#E64438" stroke-width="0" stroke="#E64438" d = " M231 268 L231,269 C231,269 230,268 230,268 230,268 231,268 231,268  Z"/>

<path  fill="#97D6F9" stroke-width="0" stroke="#97D6F9" d = " M117 274 L119,276 C119,276 119,269 119,269 119,269 117,271 117,271 117,271 117,274 117,274  Z"/>

<path  fill="#E64438" stroke-width="0" stroke="#E64438" d = " M225 270 L226,270 C226,270 226,269 226,269 226,269 225,269 225,269 225,269 225,270 225,270  Z"/>

<path  fill="#CAC7CB" stroke-width="0" stroke="#CAC7CB" d = " M247 282 C248.139,282 251.778,286.361 250.5,287 247.076,288.712 242.018,287.241 238.5,289 236.559,289.971 208.856,288.178 206.5,287 204.65,286.075 207.998,283 209,283 213.463,283 219.556,275 216,275 216,275 217,273 217,273 217,273 218,272 218,272 218,272 219,272 219,272 219,272 220,271 220,271 220,271 225,270 225,270 225,270 226,270 226,270 226,272.061 231,272.061 231,270 231,270 238,272 238,272 238,272 239,273 239,273 239,273 240,273 240,273 240,273 241,275 241,275 233.211,275 247,286.7 247,282  Z"/>

<path  fill="#97D6F9" stroke-width="0" stroke="#97D6F9" d = " M339 274 L338,275 C338,275 338,270 338,270 338,270 339,270 339,270 339,270 339,273 339,273 339,273 339,274 339,274  Z"/>

<path  fill="#99D2BD" stroke-width="0" stroke="#99D2BD" d = " M339 274 L340,274 C340,274 339,273 339,273 339,273 339,274 339,274  Z"/>

<path  fill="#8599CC" stroke-width="0" stroke="#8599CC" d = " M197 278 C197,280.009 191.092,285 189,285 189,280.565 184.232,277 180,277 180,277 184,274 184,274 184,279.472 194.613,278 197,278  Z"/>

<path  fill="#CBCCC7" stroke-width="0" stroke="#CBCCC7" d = " M216 275 C219.556,275 213.463,283 209,283 209,279.159 211.841,275 216,275  Z"/>

<path  fill="#CBCCC7" stroke-width="0" stroke="#CBCCC7" d = " M241 275 C244.254,275 247,279.041 247,282 247,286.7 233.211,275 241,275  Z"/>

<path  fill="#8599CC" stroke-width="0" stroke="#8599CC" d = " M276 277 C271.037,277 268,281.262 268,286 268,286 258,277 258,277 259.984,277 261.945,280.278 264.5,279 264.5,279 273,275 273,275 274.238,275 276,275.423 276,277  Z"/>

<path  fill="#97D6F9" stroke-width="0" stroke="#97D6F9" d = " M338 275 L337,277 C337,277 338,275 338,275  Z"/>

<path  fill="#97D6F9" stroke-width="0" stroke="#97D6F9" d = " M119 277 L120,278 C120,278 119,277 119,277  Z"/>

</g>
</svg>
