<svg xmlns="http://www.w3.org/2000/svg" xmlns:xlink="http://www.w3.org/1999/xlink"  viewBox="0 0 456 320">
<g>
<rect width="456" height="320" fill="#000000"  stroke-width="0" /> 
<path  fill="#FEFA90" stroke-width="0" stroke="#FEFA90" d = " M179 105 C185.372,105 179.185,87.1576 183.5,85 L195.5,84 L203.5,79 C205.873,77.8134 230.891,74.6955 233.5,76 236.422,77.4611 240.688,75.594 243.5,77 249.062,79.7811 255.529,81.0146 261.5,84 264.529,85.5143 269.389,83.4447 272.5,85 277.524,87.5119 272.513,106 278,106 278,94.8912 291,85.1058 291,74 289.097,74 273.654,63.5772 270.5,62 255.435,54.4676 241.435,56 224,56 219.96,56 211.796,52.8519 207.5,55 204.519,56.4904 200.392,55.5542 197.5,57 191.623,59.9383 185.344,62.078 179.5,65 179.5,65 165,74 165,74 165,79.1925 173.419,93.3386 176,98.5 176.632,99.7649 177.278,105 179,105  Z"/>

<path  fill="#FCFC90" stroke-width="0" stroke="#FCFC90" d = " M179 105 C179,106.505 174.803,113 173,113 170.16,113 162.982,98.2409 158.5,96 148.912,91.2061 138.504,87 127,87 127,71.3853 152.767,74 165,74 165,79.1925 173.419,93.3386 176,98.5 176.632,99.7649 177.278,105 179,105  Z"/>

<path  fill="#FCFC90" stroke-width="0" stroke="#FCFC90" d = " M278 106 C278,107.6 282.129,113 284,113 284,113 291,104.5 291,104.5 297.43,91.6404 316.27,87 330,87 330,71.8707 301.186,74 291,74 291,85.1058 278,94.8912 278,106  Z"/>

<path  fill-rule="evenodd" fill="#CBC9CC" stroke-width="0" stroke="#CBC9CC" d = " M224 78 C224,80.4966 212.376,78.062 210.5,79 200.908,83.7962 192.384,85.7319 187,96.5 186.174,98.1529 187.405,100.31 188,101.5 L189,108.5 C191.682,113.864 198.247,115.873 202.5,118 215.495,124.497 231.617,127.942 245.5,121 249.147,119.176 257.243,119.015 259,115.5 L261.5,115 C266.048,112.726 271.666,99.8328 269,94.5 L258.5,84 L251,82.5 C248.293,77.0869 230.237,78 224,78  M164 173 C164.805,173 177.536,164.982 179.5,164 191.324,158.088 212.53,164.985 224.5,159 227.858,157.321 234.942,159.721 237.5,161 242.674,163.587 270.169,160.334 279.5,165 281.536,166.018 291.484,173 292,173 295.664,173 304.809,186 309.5,186 309.5,186 306,182.5 306,182.5 306,182.5 299,176.5 299,176.5 295.669,169.838 287.027,162.555 283,154.5 280.974,150.448 274,147.993 274,144 274,144 264.5,138 264.5,138 259.802,135.651 250.792,131 245.5,131 244.635,131 239.345,129.809 240,128.5 240,128.5 244.5,128 244.5,128 246.592,126.954 246.458,125 250,125 250,122.129 253.13,123.685 254.5,123 268.199,116.15 260.979,118 276,118 288.81,118 312.906,142.406 321.5,151 321.5,151 334.5,166 334.5,166 334.5,166 338.5,171 338.5,171 338.5,171 340,168.5 340,168.5 342.314,163.872 332.289,159.079 331,156.5 331,156.5 300,125 300,125 298.924,125 298.54,120.02 296.5,119 294.035,117.768 284,117.465 284,113 282.129,113 278,107.6 278,106 272.513,106 277.524,87.5119 272.5,85 269.389,83.4447 264.529,85.5143 261.5,84 255.529,81.0146 249.062,79.7811 243.5,77 240.688,75.594 236.422,77.4611 233.5,76 230.891,74.6955 205.873,77.8134 203.5,79 203.5,79 195.5,84 195.5,84 195.5,84 183.5,85 183.5,85 179.185,87.1576 185.372,105 179,105 179,106.505 174.803,113 173,113 173,116.549 162.752,117.874 160.5,119 153.979,122.26 122.925,116.649 119,124.5 119,124.5 111,130.5 111,130.5 111,132.001 117.369,128.131 118,127.5 120.432,125.068 124.55,124.475 127.5,123 128.1,122.7 156.405,120.953 156.5,121 158.399,121.95 158.407,125 156,125 156,125 155,126 155,126 155,126 123,158.5 123,158.5 121.721,161.058 114.572,164.645 117,169.5 117.857,171.215 120.557,168.386 121,167.5 123.958,161.583 130.007,156.493 135,151.5 144.667,141.833 166.816,118 180,118 195.286,118 188.424,116.462 201.5,123 202.87,123.685 206,122.129 206,125 207.731,125 216.233,129.033 216,129.5 216,129.5 209.5,131 209.5,131 205.682,132.909 201.206,133.147 197.5,135 193.794,136.853 187.078,143 183,143 183,145.991 178.531,147.438 177,150.5 175.131,154.237 166.999,165.501 163.5,169 163.5,169 153.5,181 153.5,181 153.5,181 163,175 163,175 163,175 164,173 164,173  M178 159 C184.511,159 210.322,158.589 215.5,156 L219,157 L232,157 C247.397,157 263.017,159 278,159 279.634,159 275.87,149 273,149 273,143.027 261.742,141.121 257.5,139 247.898,134.199 211.375,133.063 201.5,138 198.202,139.649 183,143.007 183,149 180.593,149 178,156.045 178,158 176.814,158 176.814,159 178,159  Z"/>

<path  fill="#FEFA90" stroke-width="0" stroke="#FEFA90" d = " M224 78 C224,80.4966 212.376,78.062 210.5,79 200.908,83.7962 192.384,85.7319 187,96.5 186.174,98.1529 187.405,100.31 188,101.5 L189,108.5 C191.682,113.864 198.247,115.873 202.5,118 215.495,124.497 231.617,127.942 245.5,121 249.147,119.176 257.243,119.015 259,115.5 L261.5,115 C266.048,112.726 271.666,99.8328 269,94.5 L258.5,84 L251,82.5 C248.293,77.0869 230.237,78 224,78  Z"/>

<path  fill="#FCFA91" stroke-width="0" stroke="#FCFA91" d = " M155 126 L140.5,133 C127.187,139.656 113.705,146.397 100.5,153 97.1519,154.674 91.7545,159 88,159 75.2953,159 77.1811,143.138 81,135.5 81,135.5 87,124.5 87,124.5 88.2882,121.924 87.6504,118.199 89,115.5 95.1879,103.124 113.016,87 127,87 138.504,87 148.912,91.2061 158.5,96 162.982,98.2409 170.16,113 173,113 173,116.549 162.752,117.874 160.5,119 153.979,122.26 122.925,116.649 119,124.5 119,124.5 111,130.5 111,130.5 111,132.001 117.369,128.131 118,127.5 120.432,125.068 124.55,124.475 127.5,123 128.1,122.7 156.405,120.953 156.5,121 158.399,121.95 158.407,125 156,125 156,125 155,126 155,126  Z"/>

<path  fill-rule="evenodd" fill="#FCFA91" stroke-width="0" stroke="#FCFA91" d = " M299 119 C299,121.716 323.276,123 328,123 331.141,123 343.937,131.281 344.5,131 L342,127.5 L332.5,120 L322,121 L299,119  M300 125 C304.39,125 311.517,131.008 315.5,133 327.432,138.966 339.639,145.07 351.5,151 355.625,153.063 363.482,159 368,159 381.326,159 378.885,142.271 375,134.5 365.003,114.505 363.527,102.514 340.5,91 337.372,89.4361 333.659,87 330,87 316.27,87 297.43,91.6404 291,104.5 291,104.5 284,113 284,113 284,117.465 294.035,117.768 296.5,119 298.54,120.02 298.924,125 300,125  Z"/>

<path  fill="#FDFB90" stroke-width="0" stroke="#FDFB90" d = " M206 125 C196.978,125 186.898,131 182,131 182,131 180,118 180,118 195.286,118 188.424,116.462 201.5,123 202.87,123.685 206,122.129 206,125  Z"/>

<path  fill="#FDFB90" stroke-width="0" stroke="#FDFB90" d = " M250 125 C259.491,125 268.33,131 275,131 275,131 276,118 276,118 260.979,118 268.199,116.15 254.5,123 253.13,123.685 250,122.129 250,125  Z"/>

<path  fill="#FFFB8E" stroke-width="0" stroke="#FFFB8E" d = " M121 201 L122,201 C122,201 130,193 130,193 130,186.994 134.523,184.454 137,179.5 139.584,174.331 163.814,142.343 168.5,140 172.697,137.901 177.16,131 182,131 182,131 180,118 180,118 166.816,118 144.667,141.833 135,151.5 130.007,156.493 123.958,161.583 121,167.5 120.557,168.386 117.857,171.215 117,169.5 114.572,164.645 121.721,161.058 123,158.5 123,158.5 155,126 155,126 155,126 140.5,133 140.5,133 127.187,139.656 113.705,146.397 100.5,153 97.1519,154.674 91.7545,159 88,159 88,161.395 84.3814,164.263 86,167.5 86,167.5 89,177.5 89,177.5 94.5874,188.675 107.136,202 120,202 120,202 121,201 121,201  Z"/>

<path  fill="#FFFB8E" stroke-width="0" stroke="#FFFB8E" d = " M336 201 L337,202 C351.822,202 363.2,185.1 369,173.5 370.323,170.855 369.643,167.214 371,164.5 371,164.5 368,159 368,159 363.482,159 355.625,153.063 351.5,151 339.639,145.07 327.432,138.966 315.5,133 311.517,131.008 304.39,125 300,125 300,125 331,156.5 331,156.5 332.289,159.079 342.314,163.872 340,168.5 340,168.5 338.5,171 338.5,171 338.5,171 334.5,166 334.5,166 334.5,166 321.5,151 321.5,151 312.906,142.406 288.81,118 276,118 276,118 275,131 275,131 275,131 275,132 275,132 285.741,132 304.629,157.758 309,166.5 309,166.5 319,178.5 319,178.5 321.305,183.109 327,187.574 327,193 327,193 334,201 334,201 334,201 336,201 336,201  Z"/>

<path  fill="#CBC9CC" stroke-width="0" stroke="#CBC9CC" d = " M299 119 C299,121.716 323.276,123 328,123 331.141,123 343.937,131.281 344.5,131 L342,127.5 L332.5,120 L322,121 L299,119  Z"/>

<path  fill="#FFFB8E" stroke-width="0" stroke="#FFFB8E" d = " M156 125 L155,126 C155,126 156,125 156,125  Z"/>

<path  fill="#FBFC91" stroke-width="0" stroke="#FBFC91" d = " M182 131 L183,143 C187.078,143 193.794,136.853 197.5,135 201.206,133.147 205.682,132.909 209.5,131 209.5,131 216,129.5 216,129.5 216.233,129.033 207.731,125 206,125 196.978,125 186.898,131 182,131  Z"/>

<path  fill="#FBFC91" stroke-width="0" stroke="#FBFC91" d = " M275 132 C275,135.312 274,140.038 274,144 274,144 264.5,138 264.5,138 259.802,135.651 250.792,131 245.5,131 244.635,131 239.345,129.809 240,128.5 240,128.5 244.5,128 244.5,128 246.592,126.954 246.458,125 250,125 259.491,125 268.33,131 275,131 275,131 275,132 275,132  Z"/>

<path  fill-rule="evenodd" fill="#FFF990" stroke-width="0" stroke="#FFF990" d = " M147 185 C147,186.93 148.93,185 147,185  M151 181 L148.5,185 C149.346,185.423 155.66,181 151,181  M144 199 L145,199 C145,199 146,198 146,198 146,198 147,197 147,197 147,197 164,182 164,182 164,182 164,181 164,181 164,179.436 163,177.124 163,175 163,175 153.5,181 153.5,181 153.5,181 163.5,169 163.5,169 166.999,165.501 175.131,154.237 177,150.5 178.531,147.438 183,145.991 183,143 183,143 182,131 182,131 177.16,131 172.697,137.901 168.5,140 163.814,142.343 139.584,174.331 137,179.5 134.523,184.454 130,186.994 130,193 130.353,193 134.439,199.969 136.5,201 139.083,202.292 141.621,199 144,199  Z"/>

<path  fill="#FFF990" stroke-width="0" stroke="#FFF990" d = " M327 193 L320.5,201 C315.923,203.289 311.77,196 308,196 308,196 303.5,192 303.5,192 303.5,192 293,182 293,182 293,182 293,181 293,181 293,181 294,176.5 294,176.5 294,176.5 292,173 292,173 295.664,173 304.809,186 309.5,186 309.5,186 306,182.5 306,182.5 306,182.5 299,176.5 299,176.5 295.669,169.838 287.027,162.555 283,154.5 280.974,150.448 274,147.993 274,144 274,140.038 275,135.312 275,132 285.741,132 304.629,157.758 309,166.5 309,166.5 319,178.5 319,178.5 321.305,183.109 327,187.574 327,193  Z"/>

<path  fill="#FBFC91" stroke-width="0" stroke="#FBFC91" d = " M183 153 L189.5,149 C194.015,146.742 199.939,147.281 204.5,145 L218.5,145 C229.574,145 251.669,142.584 260.5,147 262.991,148.246 270.567,153 273,153 273,153 273,149 273,149 273,143.027 261.742,141.121 257.5,139 247.898,134.199 211.375,133.063 201.5,138 198.202,139.649 183,143.007 183,149 183,149 183,153 183,153  Z"/>

<path  fill="#FFFA8F" stroke-width="0" stroke="#FFFA8F" d = " M178 159 C184.511,159 210.322,158.589 215.5,156 L219,157 L232,157 C247.397,157 263.017,159 278,159 278,156.316 273,154.465 273,153 270.567,153 262.991,148.246 260.5,147 251.669,142.584 229.574,145 218.5,145 218.5,145 204.5,145 204.5,145 199.939,147.281 194.015,146.742 189.5,149 189.5,149 183,153 183,153 183,153 178,158 178,158 178,158 178,159 178,159  Z"/>

<path  fill="#FFF990" stroke-width="0" stroke="#FFF990" d = " M183 153 L178,158 C178,156.045 180.593,149 183,149 183,149 183,153 183,153  Z"/>

<path  fill="#FFF990" stroke-width="0" stroke="#FFF990" d = " M273 153 C273,154.465 278,156.316 278,159 279.634,159 275.87,149 273,149 273,149 273,153 273,153  Z"/>

<path  fill="#FFF990" stroke-width="0" stroke="#FFF990" d = " M178 158 C176.814,158 176.814,159 178,159 178,159 178,158 178,158  Z"/>

<path  fill="#FFFA8F" stroke-width="0" stroke="#FFFA8F" d = " M291 181 L293,181 C293,181 294,176.5 294,176.5 294,176.5 292,173 292,173 291.484,173 281.536,166.018 279.5,165 270.169,160.334 242.674,163.587 237.5,161 234.942,159.721 227.858,157.321 224.5,159 212.53,164.985 191.324,158.088 179.5,164 177.536,164.982 164.805,173 164,173 164,173 163,175 163,175 163,177.124 164,179.436 164,181 164,181 165,181 165,181 174.995,181 201.286,187.893 209.5,192 209.5,192 226.5,192 226.5,192 232.819,192 247.588,193.456 252.5,191 261.905,186.297 273.776,182 285,182 285,182 286,181 286,181 286,181 291,181 291,181  Z"/>

<path  fill="#FFF990" stroke-width="0" stroke="#FFF990" d = " M164 173 L163,175 C163,175 164,173 164,173  Z"/>

<path  fill="#CBC9CC" stroke-width="0" stroke="#CBC9CC" d = " M151 181 L148.5,185 C149.346,185.423 155.66,181 151,181  Z"/>

<path  fill="#F0F080" stroke-width="0" stroke="#F0F080" d = " M165 181 L164,182 C164,182 164,181 164,181 164,181 165,181 165,181  Z"/>

<path  fill="#F0F080" stroke-width="0" stroke="#F0F080" d = " M286 181 L285,182 C285,182 286,181 286,181  Z"/>

<path  fill="#F0F080" stroke-width="0" stroke="#F0F080" d = " M293 181 L293,182 C293,182 291,181 291,181 291,181 293,181 293,181  Z"/>

<path  fill="#CBC9CC" stroke-width="0" stroke="#CBC9CC" d = " M147 185 C147,186.93 148.93,185 147,185  Z"/>

<path  fill="#FF9BCD" stroke-width="0" stroke="#FF9BCD" d = " M167 187 L166,188 C166,188 167,187 167,187  Z"/>

<path  fill="#FFA2D2" stroke-width="0" stroke="#FFA2D2" d = " M185 191 C185,194.741 179.483,199 176,199 163.779,199 163,199.551 163,189 163,189 164,189 164,189 164,189 165,188 165,188 165,188 166,188 166,188 166,188 167,187 167,187 167,187 176,187 176,187 176,187 177,188 177,188 177,188 179,188 179,188 179,188 181,189 181,189 181,189 182,189 182,189 182,190.577 183.762,191 185,191  Z"/>

<path  fill="#FF9BCD" stroke-width="0" stroke="#FF9BCD" d = " M176 187 L177,188 C177,188 176,187 176,187  Z"/>

<path  fill="#FF9BCD" stroke-width="0" stroke="#FF9BCD" d = " M281 187 L279,188 C279,188 281,187 281,187  Z"/>

<path  fill="#FFA2D2" stroke-width="0" stroke="#FFA2D2" d = " M281 199 L289,199 C289,199 295,194.5 295,194.5 295,194.5 293,189 293,189 293,189 292,189 292,189 292,189 289,187 289,187 289,187 281,187 281,187 281,187 279,188 279,188 279,188 277,188 277,188 277,188 276,189 276,189 276,189 274,189 274,189 274,189 272,191 272,191 272,195.501 276.75,199 281,199  Z"/>

<path  fill="#FF9BCD" stroke-width="0" stroke="#FF9BCD" d = " M289 187 C290.238,187 292,187.423 292,189 292,189 289,187 289,187  Z"/>

<path  fill="#FF9BCD" stroke-width="0" stroke="#FF9BCD" d = " M165 188 L164,189 C164,189 165,188 165,188  Z"/>

<path  fill="#FF9BCD" stroke-width="0" stroke="#FF9BCD" d = " M179 188 L181,189 C181,189 179,188 179,188  Z"/>

<path  fill="#FF9BCD" stroke-width="0" stroke="#FF9BCD" d = " M277 188 L276,189 C276,189 277,188 277,188  Z"/>

<path  fill="#FF9BCD" stroke-width="0" stroke="#FF9BCD" d = " M179 216 L183,216 C183,209.507 186,210.145 186,209 186,209 185,207 185,207 177.912,207 176,204.705 176,199 163.779,199 163,199.551 163,189 158.921,189 145,199.81 145,203 148.541,203 151.145,200 155,200 155,197.008 165.983,197.466 167,199.5 168.078,201.656 164,200.29 164,202 171.07,202 179,208.543 179,216  Z"/>

<path  fill="#FF9BCD" stroke-width="0" stroke="#FF9BCD" d = " M197 198 C198.235,198 202,197.357 202,199 202.755,199 211,195.289 211,195 211,195 182,189 182,189 182,190.577 183.762,191 185,191 188.978,191 197,193.839 197,198  Z"/>

<path  fill="#FF9BCD" stroke-width="0" stroke="#FF9BCD" d = " M255 199 C255,196.338 259.329,199 260,199 260,194.106 266.164,191 272,191 272,191 274,189 274,189 274,189 245,195 245,195 245,195.184 254.096,199 255,199  Z"/>

<path  fill="#FF9BCD" stroke-width="0" stroke="#FF9BCD" d = " M301 200 C307.601,200 314.915,209 318,209 318,205.787 295.985,189 293,189 293,189 295,194.5 295,194.5 295,194.5 289,199 289,199 290.781,199 301,195.997 301,200  Z"/>

<path  fill="#FDA5D0" stroke-width="0" stroke="#FDA5D0" d = " M196 199 C193.257,199 185,203.846 185,207 177.912,207 176,204.705 176,199 179.483,199 185,194.741 185,191 188.978,191 197,193.839 197,198 197,198 196,199 196,199  Z"/>

<path  fill="#FDA5D0" stroke-width="0" stroke="#FDA5D0" d = " M281 199 C281,204.982 276.96,207 271,207 271,203.81 262.804,199 260,199 260,194.106 266.164,191 272,191 272,195.501 276.75,199 281,199  Z"/>

<path  fill="#F0F080" stroke-width="0" stroke="#F0F080" d = " M144 199 C144,205.946 126.02,201 122,201 122,201 130,193 130,193 130.353,193 134.439,199.969 136.5,201 139.083,202.292 141.621,199 144,199  Z"/>

<path  fill="#FF9BCD" stroke-width="0" stroke="#FF9BCD" d = " M223 194 L226,194 C226,192.514 223,192.514 223,194  Z"/>

<path  fill="#FFA5D0" stroke-width="0" stroke="#FFA5D0" d = " M235 198 L236,198 C236,198 238,196 238,196 238,196 238,195 238,195 238,195 234,194 234,194 234,194 231,194 231,194 228.75,194 227.624,194 226,194 226,194 223,194 223,194 223,194 218,195 218,195 218,195 218,196 218,196 218,196 222,199 222,199 222,197.212 233.092,198 235,198  Z"/>

<path  fill="#FF9BCD" stroke-width="0" stroke="#FF9BCD" d = " M231 194 L234,194 C234,192.514 231,192.514 231,194  Z"/>

<path  fill="#F0F080" stroke-width="0" stroke="#F0F080" d = " M308 196 L311,198.5 C318.417,205.917 324.68,201 334,201 334,201 327,193 327,193 327,193 320.5,201 320.5,201 315.923,203.289 311.77,196 308,196  Z"/>

<path  fill="#FDA5D1" stroke-width="0" stroke="#FDA5D1" d = " M204 216 C203.6,216 200.427,220 196,220 196,220 183,216 183,216 183,209.507 186,210.145 186,209 190.377,209 192.749,204 196,204 196,205.914 198.861,207.779 200,205.5 200,205.5 199,202 199,202 199,202 202,199 202,199 202.755,199 211,195.289 211,195 211,195 217,195 217,195 217,195 218,196 218,196 218,196 222,199 222,199 222,203.055 227,207.683 227,212 227,218.14 223.545,213 221,213 221,200.321 204,205.721 204,216  Z"/>

<path  fill="#FF9BCD" stroke-width="0" stroke="#FF9BCD" d = " M218 195 L218,196 C218,196 217,195 217,195 217,195 218,195 218,195  Z"/>

<path  fill="#FF9BCD" stroke-width="0" stroke="#FF9BCD" d = " M239 195 L238,196 C238,196 238,195 238,195 238,195 239,195 239,195  Z"/>

<path  fill="#FDA5D1" stroke-width="0" stroke="#FDA5D1" d = " M261 220 L262,220 C262,220 263,219 263,219 266.489,219 268.32,217 272,217 272,217 273,216 273,216 273,216 274,211.5 274,211.5 274,211.5 271,209 271,209 267.846,209 261,207.116 261,204 261,204 257.5,207 257.5,207 255.298,207 257,202.404 257,202 257,200.519 255,201.215 255,199 254.096,199 245,195.184 245,195 245,195 239,195 239,195 239,195 238,196 238,196 238,196 236,198 236,198 236,198 235,199 235,199 235,202.557 229,208.05 229,212 229,217.196 232.139,214 235,214 235,198.572 253,207.316 253,216 253,220.358 257.781,220 261,220  Z"/>

<path  fill="#F0F080" stroke-width="0" stroke="#F0F080" d = " M147 197 L146,198 C146,198 147,197 147,197  Z"/>

<path  fill="#F0F080" stroke-width="0" stroke="#F0F080" d = " M146 198 L145,199 C145,199 146,198 146,198  Z"/>

<path  fill="#C8CACA" stroke-width="0" stroke="#C8CACA" d = " M160 203 L162,203 C162,203 163,202 163,202 163,202 164,202 164,202 164,200.29 168.078,201.656 167,199.5 165.983,197.466 155,197.008 155,200 159.059,200 160,199.652 160,203  Z"/>

<path  fill="#FF9BCD" stroke-width="0" stroke="#FF9BCD" d = " M197 198 L196,199 C196,199 197,198 197,198  Z"/>

<path  fill="#FFB2D6" stroke-width="0" stroke="#FFB2D6" d = " M185 207 L186,209 C190.377,209 192.749,204 196,204 196,202.423 197.762,202 199,202 199,202 202,199 202,199 202,197.357 198.235,198 197,198 197,198 196,199 196,199 193.257,199 185,203.846 185,207  Z"/>

<path  fill="#AAA9A7" stroke-width="0" stroke="#AAA9A7" d = " M227 212 L229,212 C229,208.05 235,202.557 235,199 235,199 235,198 235,198 233.092,198 222,197.212 222,199 222,203.055 227,207.683 227,212  Z"/>

<path  fill="#FF9BCD" stroke-width="0" stroke="#FF9BCD" d = " M236 198 L235,199 C235,199 235,198 235,198 235,198 236,198 236,198  Z"/>

<path  fill="#FFB2D6" stroke-width="0" stroke="#FFB2D6" d = " M271 207 L271,209 C267.846,209 261,207.116 261,204 261,204 257,202 257,202 257,200.519 255,201.215 255,199 255,196.338 259.329,199 260,199 262.804,199 271,203.81 271,207  Z"/>

<path  fill="#C8CACA" stroke-width="0" stroke="#C8CACA" d = " M295 203 L297,203 C297,199.584 296.404,200 301,200 301,195.997 290.781,199 289,199 289,202.583 295,199.976 295,203  Z"/>

<path  fill="#FF9BCD" stroke-width="0" stroke="#FF9BCD" d = " M273 216 L277,216 C277,211.273 283.299,204.1 287.5,202 287.5,202 295,203 295,203 295,199.976 289,202.583 289,199 289,199 281,199 281,199 281,204.982 276.96,207 271,207 271,207 271,209 271,209 271,209 274,211.5 274,211.5 274,211.5 273,216 273,216  Z"/>

<path  fill="#FDA3D1" stroke-width="0" stroke="#FDA3D1" d = " M134 214 C134,215.048 133.527,217 135,217 137.853,217 141.931,213 145,213 145,213 146,212 146,212 146,212 147,211 147,211 147,211 148,210 148,210 148,210 149,210 149,210 149,210 150,209 150,209 150,209 152,208 152,208 152,208 153,207 153,207 153,207 157,205 157,205 157,205 158,204 158,204 158,204 160,203 160,203 160,199.652 159.059,200 155,200 151.145,200 148.541,203 145,203 145,204.577 143.238,205 142,205 142,205 141,206 141,206 141,206 140,207 140,207 140,207 139,208 139,208 139,208 136,212 136,212 136,212 135,213 135,213 135,213 134,214 134,214  Z"/>

<path  fill="#FDA3D1" stroke-width="0" stroke="#FDA3D1" d = " M321 213 C321,213.701 324.889,217 322,217 318.04,217 310.507,210 308,210 304.71,210 302.482,205 299,205 299,205 297,203 297,203 297,199.584 296.404,200 301,200 307.601,200 314.915,209 318,209 318,209 321,213 321,213  Z"/>

<path  fill="#F0F080" stroke-width="0" stroke="#F0F080" d = " M121 201 L120,202 C120,202 121,201 121,201  Z"/>

<path  fill="#F0F080" stroke-width="0" stroke="#F0F080" d = " M336 201 L337,202 C337,202 336,201 336,201  Z"/>

<path  fill="#FF9BCD" stroke-width="0" stroke="#FF9BCD" d = " M163 202 L162,203 C162,203 163,202 163,202  Z"/>

<path  fill="#FDA5D2" stroke-width="0" stroke="#FDA5D2" d = " M143 269 L149,269 C150.145,269 153,269.579 153,268 153,268 150,264.5 150,264.5 150,264.5 147,256.5 147,256.5 144.114,250.729 151.583,226.958 155.5,225 160.609,222.445 162.355,225 167,225 172.852,225 179,222.919 179,216 179,208.543 171.07,202 164,202 164,202 163,202 163,202 163,202 162,203 162,203 162,203 160,203 160,203 160,203 158,204 158,204 158,204 157,205 157,205 157,205 153,207 153,207 153,207 152,208 152,208 152,208 150,209 150,209 150,209 149,210 149,210 149,210 148,211 148,211 148,211 147,211 147,211 147,211 147,212 147,212 147,212 146,213 146,213 146,213 145,213 145,213 145,213 145,214 145,214 145,214 144,215 144,215 144,215 135,223 135,223 135,223 134,224 134,224 134,224 133,225 133,225 133,225 132,227 132,227 132,227 131,228 131,228 131,228 131,230 131,230 131,230 130,231 130,231 130,231 129,243 129,243 129,243 129,245 129,245 129,245 129,249 129,249 129,249 130,250 130,250 130,250 130,251 130,251 130,251 131,253 131,253 131,253 131,255 131,255 131,255 132,256 132,256 132,256 132,257 132,257 132,257 133,259 133,259 133,259 133,260 133,260 133,260 134,261 134,261 134,261 134,262 134,262 134,262 135,263 135,263 135,264.429 136.288,267 138,267 138,267 140,269 140,269 140,269 143,269 143,269  Z"/>

<path  fill="#C8CAC7" stroke-width="0" stroke="#C8CAC7" d = " M199 202 C197.762,202 196,202.423 196,204 196,205.914 198.861,207.779 200,205.5 200,205.5 199,202 199,202  Z"/>

<path  fill="#C8CAC7" stroke-width="0" stroke="#C8CAC7" d = " M257 202 L261,204 C261,204 257.5,207 257.5,207 255.298,207 257,202.404 257,202  Z"/>

<path  fill="#FDA5D2" stroke-width="0" stroke="#FDA5D2" d = " M313 269 L316,269 C316,269 317,268 317,268 317,268 318,267 318,267 318,267 319,267 319,267 319,267 320,266 320,266 320,266 321,264 321,264 321,264 322,263 322,263 322,263 323,261 323,261 323,261 323,259 323,259 323,259 324,258 324,258 324,258 324,257 324,257 324,257 325,256 325,256 325,256 325,254 325,254 325,254 326,253 326,253 326,253 326,251 326,251 326,251 327,250 327,250 327,250 327,249 327,249 327,249 327,240 327,240 327,234.664 324,230.342 324,226 324,226 323,225 323,225 323,225 323,224 323,224 323,224 322,223 322,223 321.235,223 308,211.085 308,210 304.71,210 302.482,205 299,205 299,205 297,203 297,203 297,203 295,203 295,203 295,203 287.5,202 287.5,202 283.299,204.1 277,211.273 277,216 277,222.693 284.529,225 290,225 290,223.235 291.581,224.459 292.5,224 295.993,222.253 301.966,224.433 304,228.5 306.429,233.358 314.596,267 303,267 303,269.461 306.378,269 308,269 308,269 313,269 313,269  Z"/>

<path  fill="#FF9BCD" stroke-width="0" stroke="#FF9BCD" d = " M145 203 C143.762,203 142,203.423 142,205 143.238,205 145,204.577 145,203  Z"/>

<path  fill="#FF9BCD" stroke-width="0" stroke="#FF9BCD" d = " M297 203 L299,205 C299,205 297,203 297,203  Z"/>

<path  fill="#FF9BCD" stroke-width="0" stroke="#FF9BCD" d = " M158 204 L157,205 C157,205 158,204 158,204  Z"/>

<path  fill="#FF9BCD" stroke-width="0" stroke="#FF9BCD" d = " M142 205 L141,206 C141,206 142,205 142,205  Z"/>

<path  fill="#FDB1D8" stroke-width="0" stroke="#FDB1D8" d = " M221 213 C221,215.49 206.776,216 204,216 204,205.721 221,200.321 221,213  Z"/>

<path  fill="#FDB1D8" stroke-width="0" stroke="#FDB1D8" d = " M235 214 C235,215.579 237.855,215 239,215 L253,216 C253,207.316 235,198.572 235,214  Z"/>

<path  fill="#FF9BCD" stroke-width="0" stroke="#FF9BCD" d = " M141 206 L140,207 C140,207 141,206 141,206  Z"/>

<path  fill="#FF9BCD" stroke-width="0" stroke="#FF9BCD" d = " M140 207 L139,208 C139,208 140,207 140,207  Z"/>

<path  fill="#FF9BCD" stroke-width="0" stroke="#FF9BCD" d = " M153 207 L152,208 C152,208 153,207 153,207  Z"/>

<path  fill="#FF9BCD" stroke-width="0" stroke="#FF9BCD" d = " M150 209 L149,210 C149,210 150,209 150,209  Z"/>

<path  fill="#C8CACA" stroke-width="0" stroke="#C8CACA" d = " M147 211 L148,211 C148,211 148,210 148,210 148,210 147,211 147,211  Z"/>

<path  fill="#FF9BCD" stroke-width="0" stroke="#FF9BCD" d = " M149 210 L148,211 C148,211 148,210 148,210 148,210 149,210 149,210  Z"/>

<path  fill="#C8CACA" stroke-width="0" stroke="#C8CACA" d = " M312 274 L314,275 C314,275 319,273 319,273 319,271.253 319.253,271 321,271 321,269.253 321.253,269 323,269 323,269 323,268 323,268 323,268 324,267 324,267 324,267 325,266 325,266 325,266 326,264 326,264 326,264 327,262 327,262 327,260.952 326.527,259 328,259 328,259 329,257 329,257 329,250.591 331,242.198 331,234 331,234 331,233 331,233 331,233 330,231 330,231 330,231 328,224 328,224 328,224 327,223 327,223 327,223 327,222 327,222 327,222 322,217 322,217 318.04,217 310.507,210 308,210 308,211.085 321.235,223 322,223 322,223 323,224 323,224 323,224 323,225 323,225 323,225 324,226 324,226 324,230.342 327,234.664 327,240 328.622,240 328.622,249 327,249 327,249 327,250 327,250 327,250 326,251 326,251 326,251 326,253 326,253 326,253 325,254 325,254 325,254 325,256 325,256 325,256 324,257 324,257 324,257 324,258 324,258 324,258 323,259 323,259 323,259 323,261 323,261 323,261 322,263 322,263 322,263 321,264 321,264 321,264 320,266 320,266 320,266 319,267 319,267 319,267 318,267 318,267 318,267 317,268 317,268 317,268 316,269 316,269 316,269 313,269 313,269 313,269 312,274 312,274  Z"/>

<path  fill="#C8CACA" stroke-width="0" stroke="#C8CACA" d = " M146 212 L147,212 C147,212 147,211 147,211 147,211 146,212 146,212  Z"/>

<path  fill="#FF9BCD" stroke-width="0" stroke="#FF9BCD" d = " M136 212 L135,213 C135,213 136,212 136,212  Z"/>

<path  fill="#C8CACA" stroke-width="0" stroke="#C8CACA" d = " M145 213 L146,213 C146,213 146,212 146,212 146,212 145,213 145,213  Z"/>

<path  fill="#FF9BCD" stroke-width="0" stroke="#FF9BCD" d = " M147 212 L146,213 C146,213 146,212 146,212 146,212 147,212 147,212  Z"/>

<path  fill-rule="evenodd" fill="#FF9BCD" stroke-width="0" stroke="#FF9BCD" d = " M239 287 L235,291.5 C235,295.106 250.741,299.379 253.5,298 255.526,296.987 251.256,293.756 250.5,293 246.823,289.323 244.975,287 239,287  M212 287 C212,289.835 200.867,293.234 203,297.5 L208.5,298 C214.842,294.829 225.849,296.349 217,287.5 L212,287  M229 295 C235.202,295 243.248,297.374 248.5,300 254.113,302.807 265.788,298 271.5,298 273.907,298 286,298.227 286,296 278.316,296 293,291.612 293,289 293,289 291,289 291,289 288.173,289 286.837,291.831 284.5,293 275.008,297.746 270.43,290.36 267,283.5 266.105,281.71 264,280.097 264,278 249.41,278 241.56,256.621 236,245.5 234.189,241.878 239,240.606 239,239 236.902,239 236,237.061 236,235 236,235 229.5,235 229.5,235 227.082,233.791 230.367,218.067 232.5,217 235.245,215.628 238.69,216 242,216 243.812,216 246.015,215.531 247,217.5 249.034,221.568 245,226.539 245,230 245,230 246,230 246,230 246,230 253.5,221 253.5,221 256.212,219.644 256.683,223 258,223 258,223 261,220 261,220 257.781,220 253,220.358 253,216 253,216 239,215 239,215 237.855,215 235,215.579 235,214 232.139,214 229,217.196 229,212 229,212 227,212 227,212 227,218.14 223.545,213 221,213 221,215.49 206.776,216 204,216 203.6,216 200.427,220 196,220 196,220 198,223 198,223 199.791,223 200.959,219.73 203.5,221 205.206,221.853 210,229.195 210,231 210,231 212,230 212,230 212,226.49 206.732,222.037 209,217.5 210.033,215.435 220.378,214.939 222.5,216 225.369,217.434 230.772,233.364 227.5,235 227.5,235 220,235 220,235 220,236.465 220.109,239 218,239 218,239 221,244.5 221,244.5 217.188,252.125 215.484,261.016 209,267.5 209,267.5 196.5,278 196.5,278 195.722,278.389 193,279.961 193,278 192.019,278 186.936,291.782 184.5,293 175.456,297.522 171.262,289 166,289 166,289 163,289 163,289 163,289 174,295.5 174,295.5 174,295.5 170.5,296 170.5,296 167.472,294.486 159,292.264 159,288 159,286.634 156.634,284 155,284 155,284 156,285.5 156,285.5 156,292.024 150.018,281.759 148.5,281 148.5,281 142,275 142,275 129.803,275 125,245.16 125,236 123.421,236 124,238.855 124,240 124,240 125,253.5 125,253.5 129.803,263.106 140.258,281.379 151.5,287 169.514,296.007 172.857,299 195,299 195,299 207.5,300 207.5,300 210.763,298.369 223.197,295 227,295 227,295 225,292.5 225,292.5 225,292.5 226,286 226,286 219.102,286 212.803,283.697 207,289.5 207,289.5 200.5,295 200.5,295 199.185,295.658 193.84,294.82 195,292.5 197.244,288.013 221,276.573 221,273 210.874,273 226.512,256 227,256 227,250.446 229,249.047 229,256 231.356,256 244.121,273 236,273 236,277.201 258.538,287.576 261,292.5 261.997,294.494 257.807,295.653 256.5,295 256.5,295 249.5,289 249.5,289 241.229,284.864 238.678,286 230,286 230,286 231,292.5 231,292.5 231,292.5 229,295 229,295  Z"/>

<path  fill="#FF9BCD" stroke-width="0" stroke="#FF9BCD" d = " M135 213 L134,214 C134,214 135,213 135,213  Z"/>

<path  fill="#C8CACA" stroke-width="0" stroke="#C8CACA" d = " M145 274 C143.952,274 142,273.527 142,275 129.803,275 125,245.16 125,236 125,236 125,235 125,235 126.473,235 126,233.048 126,232 126,232 126,231 126,231 126,231 127,230 127,230 127,230 129,223 129,223 129,223 135,217 135,217 137.853,217 141.931,213 145,213 145,213 145,214 145,214 145,214 144,215 144,215 144,215 135,223 135,223 135,223 134,224 134,224 134,224 133,225 133,225 133,225 132,227 132,227 132,227 131,228 131,228 131,228 131,230 131,230 131,230 130,231 130,231 130,231 129,243 129,243 127.601,243 127.601,245 129,245 129,245 129,249 129,249 129,249 130,250 130,250 130,250 130,251 130,251 130,251 131,253 131,253 131,253 131,255 131,255 131,255 132,256 132,256 132,256 132,257 132,257 132,257 133,259 133,259 133,259 133,260 133,260 133,260 134,261 134,261 134,261 134,262 134,262 134,262 135,263 135,263 135,264.429 136.288,267 138,267 138,267 140,269 140,269 140,269 143,269 143,269 143,270.624 145,271.75 145,274  Z"/>

<path  fill="#FF9BCD" stroke-width="0" stroke="#FF9BCD" d = " M322 217 L327,222 C327,219.558 323.409,213 321,213 321,213.701 324.889,217 322,217  Z"/>

<path  fill="#FF9BCD" stroke-width="0" stroke="#FF9BCD" d = " M135 217 L129,223 C129,221.278 132.319,214 134,214 134,215.048 133.527,217 135,217  Z"/>

<path  fill="#FF9BCD" stroke-width="0" stroke="#FF9BCD" d = " M145 214 L144,215 C144,215 145,214 145,214  Z"/>

<path  fill="#FDB1D7" stroke-width="0" stroke="#FDB1D7" d = " M156 274 C158.477,274 161.661,274 164,274 164,270.576 171.807,264.886 173,262.5 173,262.5 191,234.5 191,234.5 192.884,230.732 198,227.456 198,223 198,223 196,220 196,220 196,220 183,216 183,216 183,216 179,216 179,216 179,222.919 172.852,225 167,225 167,226.238 159.553,258.394 159,259.5 158.261,260.978 154.496,268 153,268 153,269.579 150.145,269 149,269 149,273.698 152.024,274 156,274  Z"/>

<path  fill="#FEB1D7" stroke-width="0" stroke="#FEB1D7" d = " M212 230 C212,233.078 217.723,235 220,235 220,235 227.5,235 227.5,235 230.772,233.364 225.369,217.434 222.5,216 220.378,214.939 210.033,215.435 209,217.5 206.732,222.037 212,226.49 212,230  Z"/>

<path  fill="#FEB1D7" stroke-width="0" stroke="#FEB1D7" d = " M245 230 C243.702,230 240.381,235 236,235 236,235 229.5,235 229.5,235 227.082,233.791 230.367,218.067 232.5,217 235.245,215.628 238.69,216 242,216 243.812,216 246.015,215.531 247,217.5 249.034,221.568 245,226.539 245,230  Z"/>

<path  fill="#FF9BCD" stroke-width="0" stroke="#FF9BCD" d = " M273 216 L272,217 C272,217 273,216 273,216  Z"/>

<path  fill="#FDB1D7" stroke-width="0" stroke="#FDB1D7" d = " M293 273 L300,274 C303.891,274 308,273.526 308,269 306.378,269 303,269.461 303,267 301.345,267 297.751,260.002 297,258.5 296.514,257.529 290,226.79 290,225 284.529,225 277,222.693 277,216 277,216 273,216 273,216 273,216 272,217 272,217 268.32,217 266.489,219 263,219 263,219 262,220 262,220 262,220 261,220 261,220 261,220 258,223 258,223 258,226.649 263.404,230.307 265,233.5 269.718,242.936 276.259,254.759 284,262.5 286.64,265.14 288.498,273 293,273  Z"/>

<path  fill="#FF9BCD" stroke-width="0" stroke="#FF9BCD" d = " M263 219 L262,220 C262,220 263,219 263,219  Z"/>

<path  fill-rule="evenodd" fill="#FFB2D8" stroke-width="0" stroke="#FFB2D8" d = " M164 274 C166.772,274 169.167,275.833 171.5,277 175.23,278.865 179.776,274 183,274 183,265.848 197.157,252.187 201,244.5 201,244.5 205.5,237 205.5,237 205.5,237 210,236 210,236 210,236 211,235 211,235 211,235 210,231 210,231 210,229.195 205.206,221.853 203.5,221 200.959,219.73 199.791,223 198,223 198,227.456 192.884,230.732 191,234.5 191,234.5 173,262.5 173,262.5 171.807,264.886 164,270.576 164,274  M175 267 C175,264.195 186.857,268.821 178.5,273 172.79,275.855 169.461,267 175,267  Z"/>

<path  fill-rule="evenodd" fill="#FFB2D8" stroke-width="0" stroke="#FFB2D8" d = " M293 273 C293,278.43 276.946,275 275,275 275,275 269,265.5 269,265.5 266.276,260.052 252.833,236 247,236 247,236 246,235 246,235 246,235 246,230 246,230 246,230 253.5,221 253.5,221 256.212,219.644 256.683,223 258,223 258,226.649 263.404,230.307 265,233.5 269.718,242.936 276.259,254.759 284,262.5 286.64,265.14 288.498,273 293,273  M277 267 C277,264.134 285,267.673 285,270.5 285,279.11 269.457,267 277,267  Z"/>

<path  fill="#FF9BCD" stroke-width="0" stroke="#FF9BCD" d = " M135 223 L134,224 C134,224 135,223 135,223  Z"/>

<path  fill="#FDA4D0" stroke-width="0" stroke="#FDA4D0" d = " M167 225 C162.355,225 160.609,222.445 155.5,225 151.583,226.958 144.114,250.729 147,256.5 L150,264.5 L153,268 C154.496,268 158.261,260.978 159,259.5 159.553,258.394 167,226.238 167,225  Z"/>

<path  fill="#FDA4D0" stroke-width="0" stroke="#FDA4D0" d = " M290 225 C290,226.79 296.514,257.529 297,258.5 297.751,260.002 301.345,267 303,267 314.596,267 306.429,233.358 304,228.5 301.966,224.433 295.993,222.253 292.5,224 291.581,224.459 290,223.235 290,225  Z"/>

<path  fill="#FF9BCD" stroke-width="0" stroke="#FF9BCD" d = " M322 223 L323,224 C323,224 322,223 322,223  Z"/>

<path  fill="#FF9BCD" stroke-width="0" stroke="#FF9BCD" d = " M327 223 L328,224 C328,224 327,223 327,223  Z"/>

<path  fill="#FF9BCD" stroke-width="0" stroke="#FF9BCD" d = " M134 224 L133,225 C133,225 134,224 134,224  Z"/>

<path  fill="#FF9BCD" stroke-width="0" stroke="#FF9BCD" d = " M323 225 L324,226 C324,226 323,225 323,225  Z"/>

<path  fill="#FF9BCD" stroke-width="0" stroke="#FF9BCD" d = " M132 227 L131,228 C131,228 132,227 132,227  Z"/>

<path  fill="#FF9BCD" stroke-width="0" stroke="#FF9BCD" d = " M127 230 L126,231 C126,231 127,230 127,230  Z"/>

<path  fill="#FF9BCD" stroke-width="0" stroke="#FF9BCD" d = " M131 230 L130,231 C130,231 131,230 131,230  Z"/>

<path  fill="#FFB1D9" stroke-width="0" stroke="#FFB1D9" d = " M211 236 C213.232,236 215.029,239 218,239 220.109,239 220,236.465 220,235 217.723,235 212,233.078 212,230 212,230 210,231 210,231 210,231 211,235 211,235 211,235 211,236 211,236  Z"/>

<path  fill="#FFB1D9" stroke-width="0" stroke="#FFB1D9" d = " M245 236 C242.921,236 241.813,239 239,239 236.902,239 236,237.061 236,235 240.381,235 243.702,230 245,230 245,230 246,230 246,230 246,230 246,235 246,235 246,235 245,236 245,236  Z"/>

<path  fill="#FF9BCD" stroke-width="0" stroke="#FF9BCD" d = " M330 231 L331,233 C331,233 330,231 330,231  Z"/>

<path  fill="#FF9BCD" stroke-width="0" stroke="#FF9BCD" d = " M126 232 C124.527,232 125,233.952 125,235 126.473,235 126,233.048 126,232  Z"/>

<path  fill="#FF9BCD" stroke-width="0" stroke="#FF9BCD" d = " M331 234 C332.665,234 332,238.222 332,239.5 332,242.691 332.054,257 329,257 329,250.591 331,242.198 331,234  Z"/>

<path  fill="#FF9BCD" stroke-width="0" stroke="#FF9BCD" d = " M210 236 L211,236 C211,236 211,235 211,235 211,235 210,236 210,236  Z"/>

<path  fill="#FF9BCD" stroke-width="0" stroke="#FF9BCD" d = " M245 236 L247,236 C247,236 246,235 246,235 246,235 245,236 245,236  Z"/>

<path  fill="#FFB1D6" stroke-width="0" stroke="#FFB1D6" d = " M183 274 C187.614,274 193,270.29 193,278 193,279.961 195.722,278.389 196.5,278 196.5,278 209,267.5 209,267.5 215.484,261.016 217.188,252.125 221,244.5 221,244.5 218,239 218,239 215.029,239 213.232,236 211,236 211,236 210,236 210,236 210,236 205.5,237 205.5,237 205.5,237 201,244.5 201,244.5 197.157,252.187 183,265.848 183,274  Z"/>

<path  fill="#FFB1D6" stroke-width="0" stroke="#FFB1D6" d = " M275 275 C270.67,275 264,268.965 264,278 249.41,278 241.56,256.621 236,245.5 234.189,241.878 239,240.606 239,239 241.813,239 242.921,236 245,236 245,236 247,236 247,236 252.833,236 266.276,260.052 269,265.5 269,265.5 275,275 275,275  Z"/>

<path  fill="#FF9BCD" stroke-width="0" stroke="#FF9BCD" d = " M327 240 C328.622,240 328.622,249 327,249 327,249 327,240 327,240  Z"/>

<path  fill="#FF9BCD" stroke-width="0" stroke="#FF9BCD" d = " M129 243 C127.601,243 127.601,245 129,245 129,245 129,243 129,243  Z"/>

<path  fill="#FF9BCD" stroke-width="0" stroke="#FF9BCD" d = " M129 249 L130,250 C130,250 129,249 129,249  Z"/>

<path  fill="#FEC6E2" stroke-width="0" stroke="#FEC6E2" d = " M229 263 L229,264 C229,264 227,263 227,263 227,263 227,256 227,256 227,250.446 229,249.047 229,256 229,256 229,262 229,262 229,262 229,263 229,263  Z"/>

<path  fill="#FF9BCD" stroke-width="0" stroke="#FF9BCD" d = " M327 250 L326,251 C326,251 327,250 327,250  Z"/>

<path  fill="#FF9BCD" stroke-width="0" stroke="#FF9BCD" d = " M130 251 L131,253 C131,253 130,251 130,251  Z"/>

<path  fill="#FF9BCD" stroke-width="0" stroke="#FF9BCD" d = " M326 253 L325,254 C325,254 326,253 326,253  Z"/>

<path  fill="#FF9BCD" stroke-width="0" stroke="#FF9BCD" d = " M131 255 L132,256 C132,256 131,255 131,255  Z"/>

<path  fill="#C8C8CC" stroke-width="0" stroke="#C8C8CC" d = " M227 263 C225.085,263 221,270.746 221,273 210.874,273 226.512,256 227,256 227,256 227,263 227,263  Z"/>

<path  fill="#C8C8CC" stroke-width="0" stroke="#C8C8CC" d = " M230 263 L236,273 C244.121,273 231.356,256 229,256 229,256 229,262 229,262 229,262 230,263 230,263  Z"/>

<path  fill="#FF9BCD" stroke-width="0" stroke="#FF9BCD" d = " M325 256 L324,257 C324,257 325,256 325,256  Z"/>

<path  fill="#FF9BCD" stroke-width="0" stroke="#FF9BCD" d = " M132 257 L133,259 C133,259 132,257 132,257  Z"/>

<path  fill="#FF9BCD" stroke-width="0" stroke="#FF9BCD" d = " M329 257 L328,259 C328,259 329,257 329,257  Z"/>

<path  fill="#FF9BCD" stroke-width="0" stroke="#FF9BCD" d = " M324 258 L323,259 C323,259 324,258 324,258  Z"/>

<path  fill="#FF9BCD" stroke-width="0" stroke="#FF9BCD" d = " M328 259 C326.527,259 327,260.952 327,262 328.473,262 328,260.048 328,259  Z"/>

<path  fill="#FF9BCD" stroke-width="0" stroke="#FF9BCD" d = " M133 260 L134,261 C134,261 133,260 133,260  Z"/>

<path  fill="#FF9BCD" stroke-width="0" stroke="#FF9BCD" d = " M323 261 L322,263 C322,263 323,261 323,261  Z"/>

<path  fill="#FF9BCD" stroke-width="0" stroke="#FF9BCD" d = " M134 262 L135,263 C135,263 134,262 134,262  Z"/>

<path  fill="#FF9BCD" stroke-width="0" stroke="#FF9BCD" d = " M229 263 L230,263 C230,263 229,262 229,262 229,262 229,263 229,263  Z"/>

<path  fill="#FF9BCD" stroke-width="0" stroke="#FF9BCD" d = " M327 262 L326,264 C326,264 327,262 327,262  Z"/>

<path  fill="#FFB3D8" stroke-width="0" stroke="#FFB3D8" d = " M227 285 L226,286 C219.102,286 212.803,283.697 207,289.5 207,289.5 200.5,295 200.5,295 199.185,295.658 193.84,294.82 195,292.5 197.244,288.013 221,276.573 221,273 221,270.746 225.085,263 227,263 227,267.957 227,273.754 227,279 227,279 227,285 227,285  Z"/>

<path  fill="#FF9BCD" stroke-width="0" stroke="#FF9BCD" d = " M229 277 L227,279 C227,273.754 227,267.957 227,263 227,263 229,264 229,264 229,264 229,277 229,277  Z"/>

<path  fill="#FFB3D8" stroke-width="0" stroke="#FFB3D8" d = " M230 285 L230,286 C238.678,286 241.229,284.864 249.5,289 249.5,289 256.5,295 256.5,295 257.807,295.653 261.997,294.494 261,292.5 258.538,287.576 236,277.201 236,273 236,273 230,263 230,263 230,263 229,263 229,263 229,263 229,264 229,264 229,264 229,277 229,277 229,277 229,284 229,284 229,284 230,285 230,285  Z"/>

<path  fill="#FF9BCD" stroke-width="0" stroke="#FF9BCD" d = " M322 263 L321,264 C321,264 322,263 322,263  Z"/>

<path  fill="#FF9BCD" stroke-width="0" stroke="#FF9BCD" d = " M326 264 L325,266 C325,266 326,264 326,264  Z"/>

<path  fill-rule="evenodd" fill="#FF9BCD" stroke-width="0" stroke="#FF9BCD" d = " M175 267 C175,275.477 184.489,267 175,267  M175 267 C175,264.195 186.857,268.821 178.5,273 172.79,275.855 169.461,267 175,267  Z"/>

<path  fill-rule="evenodd" fill="#FF9BCD" stroke-width="0" stroke="#FF9BCD" d = " M277 267 C277,275.527 286.104,267 277,267  M277 267 C277,264.134 285,267.673 285,270.5 285,279.11 269.457,267 277,267  Z"/>

<path  fill="#FF9BCD" stroke-width="0" stroke="#FF9BCD" d = " M320 266 L319,267 C319,267 320,266 320,266  Z"/>

<path  fill="#FF9BCD" stroke-width="0" stroke="#FF9BCD" d = " M325 266 L324,267 C324,267 325,266 325,266  Z"/>

<path  fill="#FF9BCD" stroke-width="0" stroke="#FF9BCD" d = " M138 267 L140,269 C140,269 138,267 138,267  Z"/>

<path  fill="#FEB3D8" stroke-width="0" stroke="#FEB3D8" d = " M175 267 C175,275.477 184.489,267 175,267  Z"/>

<path  fill="#FEB3D8" stroke-width="0" stroke="#FEB3D8" d = " M277 267 C277,275.527 286.104,267 277,267  Z"/>

<path  fill="#FF9BCD" stroke-width="0" stroke="#FF9BCD" d = " M318 267 L317,268 C317,268 318,267 318,267  Z"/>

<path  fill="#FF9BCD" stroke-width="0" stroke="#FF9BCD" d = " M324 267 L323,268 C323,268 324,267 324,267  Z"/>

<path  fill="#FF9BCD" stroke-width="0" stroke="#FF9BCD" d = " M317 268 L316,269 C316,269 317,268 317,268  Z"/>

<path  fill="#FF9BCD" stroke-width="0" stroke="#FF9BCD" d = " M156 281 L155,283 C155,283 150,277.5 150,277.5 150,277.5 145,274 145,274 145,271.75 143,270.624 143,269 143,269 149,269 149,269 149,273.698 152.024,274 156,274 156,276.123 156,278.704 156,281  Z"/>

<path  fill="#FF9BCD" stroke-width="0" stroke="#FF9BCD" d = " M300 281 L302,282 C304.245,282 308.058,274 312,274 312,274 313,269 313,269 313,269 308,269 308,269 308,273.526 303.891,274 300,274 300,274 302,277.5 302,277.5 302,277.5 300,281 300,281  Z"/>

<path  fill="#FF9BCD" stroke-width="0" stroke="#FF9BCD" d = " M323 269 C321.253,269 321,269.253 321,271 321,271 323,269 323,269  Z"/>

<path  fill="#FF9BCD" stroke-width="0" stroke="#FF9BCD" d = " M321 271 C319.253,271 319,271.253 319,273 319,273 321,271 321,271  Z"/>

<path  fill="#FCB3D7" stroke-width="0" stroke="#FCB3D7" d = " M156 281 L166,289 C171.262,289 175.456,297.522 184.5,293 186.936,291.782 192.019,278 193,278 193,270.29 187.614,274 183,274 179.776,274 175.23,278.865 171.5,277 169.167,275.833 166.772,274 164,274 161.661,274 158.477,274 156,274 156,276.123 156,278.704 156,281  Z"/>

<path  fill="#FCB3D7" stroke-width="0" stroke="#FCB3D7" d = " M298 283 C296.338,283 291,287.775 291,289 288.173,289 286.837,291.831 284.5,293 275.008,297.746 270.43,290.36 267,283.5 266.105,281.71 264,280.097 264,278 264,268.965 270.67,275 275,275 276.946,275 293,278.43 293,273 293,273 300,274 300,274 300,274 302,277.5 302,277.5 302,277.5 300,281 300,281 300,281 299,282 299,282 299,282 298,283 298,283  Z"/>

<path  fill="#FF9BCD" stroke-width="0" stroke="#FF9BCD" d = " M314 275 C314,278.741 306,280.783 306,285 308.168,285 319,275.406 319,273 319,273 314,275 314,275  Z"/>

<path  fill="#C9CACA" stroke-width="0" stroke="#C9CACA" d = " M155 283 L155,284 C155,284 156,285.5 156,285.5 156,292.024 150.018,281.759 148.5,281 148.5,281 142,275 142,275 142,273.527 143.952,274 145,274 145,274 150,277.5 150,277.5 150,277.5 155,283 155,283  Z"/>

<path  fill="#C9CACA" stroke-width="0" stroke="#C9CACA" d = " M303 287 L304,287 C304,287 305,286 305,286 305,286 306,285 306,285 306,280.783 314,278.741 314,275 314,275 312,274 312,274 308.058,274 304.245,282 302,282 302,282 301,283 301,283 301,283 301,284 301,284 301,286.003 300.707,287 303,287  Z"/>

<path  fill="#FFC6E2" stroke-width="0" stroke="#FFC6E2" d = " M227 295 L229,295 C229,295 231,292.5 231,292.5 231,292.5 230,286 230,286 230,286 230,285 230,285 230,285 229,284 229,284 229,284 229,277 229,277 229,277 227,279 227,279 227,279 227,285 227,285 227,285 226,286 226,286 226,286 225,292.5 225,292.5 225,292.5 227,295 227,295  Z"/>

<path  fill="#C8C8CB" stroke-width="0" stroke="#C8C8CB" d = " M163 289 L166,289 C166,289 156,281 156,281 156,281 155,283 155,283 155,283 155,284 155,284 156.634,284 159,286.634 159,288 159,288 163,289 163,289  Z"/>

<path  fill="#C8C8CB" stroke-width="0" stroke="#C8C8CB" d = " M291 289 L293,289 C293,289 297,288 297,288 297,288 301,284 301,284 301,284 301,283 301,283 301,283 302,282 302,282 302,282 300,281 300,281 300,281 299,282 299,282 299,282 298,283 298,283 296.338,283 291,287.775 291,289  Z"/>

<path  fill="#FF9BCD" stroke-width="0" stroke="#FF9BCD" d = " M299 282 L298,283 C298,283 299,282 299,282  Z"/>

<path  fill="#FF9BCD" stroke-width="0" stroke="#FF9BCD" d = " M302 282 L301,283 C301,283 302,282 302,282  Z"/>

<path  fill="#FF9BCD" stroke-width="0" stroke="#FF9BCD" d = " M229 284 L230,285 C230,285 229,284 229,284  Z"/>

<path  fill="#FF9BCD" stroke-width="0" stroke="#FF9BCD" d = " M297 288 C300.596,288 290,294.343 290,295 292.572,295 303,290.262 303,287 300.707,287 301,286.003 301,284 301,284 297,288 297,288  Z"/>

<path  fill="#FF9BCD" stroke-width="0" stroke="#FF9BCD" d = " M227 285 L226,286 C226,286 227,285 227,285  Z"/>

<path  fill="#FF9BCD" stroke-width="0" stroke="#FF9BCD" d = " M306 285 L305,286 C305,286 306,285 306,285  Z"/>

<path  fill="#FF9BCD" stroke-width="0" stroke="#FF9BCD" d = " M305 286 L304,287 C304,287 305,286 305,286  Z"/>

<path  fill="#C7C9C9" stroke-width="0" stroke="#C7C9C9" d = " M212 287 C212,289.835 200.867,293.234 203,297.5 L208.5,298 C214.842,294.829 225.849,296.349 217,287.5 L212,287  Z"/>

<path  fill="#C7C9C9" stroke-width="0" stroke="#C7C9C9" d = " M239 287 L235,291.5 C235,295.106 250.741,299.379 253.5,298 255.526,296.987 251.256,293.756 250.5,293 246.823,289.323 244.975,287 239,287  Z"/>

<path  fill="#CBC7CC" stroke-width="0" stroke="#CBC7CC" d = " M159 288 L163,289 C163,289 174,295.5 174,295.5 174,295.5 170.5,296 170.5,296 167.472,294.486 159,292.264 159,288  Z"/>

<path  fill="#CBC7CC" stroke-width="0" stroke="#CBC7CC" d = " M286 296 L287,296 C287,296 289,295 289,295 289,295 290,295 290,295 290,294.343 300.596,288 297,288 297,288 293,289 293,289 293,291.612 278.316,296 286,296  Z"/>

<path  fill="#FF9BCD" stroke-width="0" stroke="#FF9BCD" d = " M289 295 L287,296 C287,296 289,295 289,295  Z"/>

</g>
</svg>
