<svg xmlns="http://www.w3.org/2000/svg" xmlns:xlink="http://www.w3.org/1999/xlink"  viewBox="0 0 456 320">
<g>
<rect width="456" height="320" fill="#000000"  stroke-width="0" /> 
<path  fill="#1E9C59" stroke-width="0" stroke="#1E9C59" d = " M151 66 L157.5,63 C165.246,59.1269 192.635,50.5673 201.5,55 L206.5,55 C209.494,56.4972 219,63.4406 219,67 219,67 223,65 223,65 223,62.7706 221.014,62.5285 220,60.5 211.824,44.1488 184.323,45.5884 169.5,53 167.092,54.2039 150,58.8825 150,61 150,61 151,66 151,66  Z"/>

<path  fill="#1E9C59" stroke-width="0" stroke="#1E9C59" d = " M237 67 L238,67 C238,62.3118 246.267,57.1164 250.5,55 250.5,55 255.5,55 255.5,55 261.362,52.0692 283.382,56.4412 288.5,59 293.419,61.4595 300.317,66 306,66 306,64.3756 306,63.25 306,61 306,57.9235 294.657,56.0784 292.5,55 280.414,48.9569 260.785,44.3576 247.5,51 243.421,53.0395 234,58.1287 234,64 234,65.6585 235.461,67 237,67  Z"/>

<path  fill="#1E9D58" stroke-width="0" stroke="#1E9D58" d = " M213 71 C209.813,71 197.825,59.8373 187.5,65 L151,84 C151,84 151,67 151,67 151,67 151,66 151,66 151,66 157.5,63 157.5,63 165.246,59.1269 192.635,50.5673 201.5,55 201.5,55 206.5,55 206.5,55 209.494,56.4972 219,63.4406 219,67 219,67 219,68 219,68 219,68 213,71 213,71  Z"/>

<path  fill="#1E9D58" stroke-width="0" stroke="#1E9D58" d = " M243 71 C245.723,71 258.543,60.0214 268.5,65 276.724,69.1119 285.289,72.8946 293.5,77 L305,84 C305,77.7734 306,71.7446 306,67 306,67 306,66 306,66 300.317,66 293.419,61.4595 288.5,59 283.382,56.4412 261.362,52.0692 255.5,55 255.5,55 250.5,55 250.5,55 246.267,57.1164 238,62.3118 238,67 238,68.4293 241.939,71 243,71  Z"/>

<path  fill-rule="evenodd" fill="#1E9D5A" stroke-width="0" stroke="#1E9D5A" d = " M91 110 C91,111.93 92.93,110 91,110  M90 109 L91,115 C91.7417,115 104.062,99.3759 105,97.5 108.781,89.9383 131.263,77.1183 139.5,73 143.469,71.0153 146.216,67 151,67 151,67 151,66 151,66 151,66 150,61 150,61 145.709,61 142.142,65.1788 138.5,67 125.422,73.5392 113.165,82.3354 102,93.5 98.9758,96.5242 90,103.917 90,108 91.1859,108 91.1859,109 90,109  Z"/>

<path  fill="#1E9D5A" stroke-width="0" stroke="#1E9D5A" d = " M366 108 L365,115 C365,115 351,97.5 351,97.5 341.221,87.7208 330.529,79.5147 317.5,73 314.053,71.2765 310.034,67 306,67 306,67 306,66 306,66 306,64.3756 306,63.25 306,61 311.855,61 316.552,66.5261 321.5,69 331.768,74.1342 352.579,87.6588 357,96.5 358.968,100.436 366,103.386 366,108  Z"/>

<path  fill="#1F9D58" stroke-width="0" stroke="#1F9D58" d = " M196 89 L189.5,88 C179.773,92.8636 169.172,96.1639 159.5,101 157.361,102.07 154.422,105 152,105 152,98.3177 151,92.4207 151,85 151,85 151,84 151,84 151,84 187.5,65 187.5,65 197.825,59.8373 209.813,71 213,71 213,71 213,73 213,73 208.339,73 197.973,89 196,89  Z"/>

<path  fill="#3EA665" stroke-width="0" stroke="#3EA665" d = " M222 97 L234,97 C234,97 233,75.5 233,75.5 233,75.5 237,67 237,67 235.461,67 234,65.6585 234,64 231.955,64 229.355,73 228.5,73 227.007,73 225.683,65 223,65 223,65 219,67 219,67 219,67 219,68 219,68 225.758,68 222,93.0784 222,97  Z"/>

<path  fill="#1F9D58" stroke-width="0" stroke="#1F9D58" d = " M260 89 L266.5,88 C272.131,90.8155 300.76,105 305,105 305,105 305,85 305,85 305,85 305,84 305,84 305,84 293.5,77 293.5,77 285.289,72.8946 276.724,69.1119 268.5,65 258.543,60.0214 245.723,71 243,71 243,71 243,72 243,72 247.231,72 258.71,89 260,89  Z"/>

<path  fill="#1F9C58" stroke-width="0" stroke="#1F9C58" d = " M97 171 L98,171 C98,140.735 107.345,108.577 134.5,95 139.812,92.3438 144.739,85 151,85 151,85 151,84 151,84 151,84 151,67 151,67 146.216,67 143.469,71.0153 139.5,73 131.263,77.1183 108.781,89.9383 105,97.5 104.062,99.3759 91.7417,115 91,115 91,115 91,117 91,117 92.7164,117 91.8223,126.145 93,128.5 94.2037,130.907 94,150.132 94,157 94,157 96,165 96,165 97.6844,165 97,169.679 97,171  Z"/>

<path  fill="#40A565" stroke-width="0" stroke="#40A565" d = " M234 97 L240,98 C240,98 240,78.5 240,78.5 240,78.5 243,72 243,72 243,72 243,71 243,71 241.939,71 238,68.4293 238,67 238,67 237,67 237,67 237,67 233,75.5 233,75.5 233,75.5 234,97 234,97  Z"/>

<path  fill="#1F9C58" stroke-width="0" stroke="#1F9C58" d = " M361 165 L359,167 C359,144.772 348.424,109.462 327.5,99 320.185,95.3425 313.599,85 305,85 305,85 305,84 305,84 305,77.7734 306,71.7446 306,67 310.034,67 314.053,71.2765 317.5,73 330.529,79.5147 341.221,87.7208 351,97.5 351,97.5 365,115 365,115 365,115 365,117 365,117 365,122.222 362,125.624 362,130.5 362,130.5 364,131.5 364,131.5 364,131.5 362,133.5 362,133.5 361.59,134.32 363.498,140.495 364,141.5 364,141.5 363,157 363,157 360.418,157 361,162.798 361,165  Z"/>

<path  fill="#40A565" stroke-width="0" stroke="#40A565" d = " M222 97 L217,98 C217,93.6054 217.653,73 213,73 213,73 213,71 213,71 213,71 219,68 219,68 225.758,68 222,93.0784 222,97  Z"/>

<path  fill="#3EA566" stroke-width="0" stroke="#3EA566" d = " M255 103 L256,103 C256,99.9065 255.354,90 260,90 260,90 260,89 260,89 258.71,89 247.231,72 243,72 243,72 240,78.5 240,78.5 240,78.5 240,98 240,98 245.292,98 250.349,103 255,103  Z"/>

<path  fill="#3EA566" stroke-width="0" stroke="#3EA566" d = " M217 98 C211.294,98 206.109,103 201,103 201,99.4516 200.34,90 196,90 196,90 196,89 196,89 197.973,89 208.339,73 213,73 217.653,73 217,93.6054 217,98  Z"/>

<path  fill="#1E9C5A" stroke-width="0" stroke="#1E9C5A" d = " M120 163 C112.632,163 105.857,171 98,171 98,140.735 107.345,108.577 134.5,95 139.812,92.3438 144.739,85 151,85 151,92.4207 152,98.3177 152,105 148.209,105 143.865,111.317 140.5,113 130.433,118.034 125.538,128.424 121,137.5 119.677,140.145 120.357,143.786 119,146.5 119,146.5 120,162 120,162 120,162 120,163 120,163  Z"/>

<path  fill="#1E9C5A" stroke-width="0" stroke="#1E9C5A" d = " M359 167 L359,172 C351.258,172 343.876,163 336,163 336,163 336,162 336,162 336,157.611 339.337,148.174 337,143.5 331.868,133.236 329.36,120.43 318.5,115 313.924,112.712 310.4,106 305,106 305,106 305,105 305,105 305,105 305,85 305,85 313.599,85 320.185,95.3425 327.5,99 348.424,109.462 359,144.772 359,167  Z"/>

<path  fill="#1D9C5A" stroke-width="0" stroke="#1D9C5A" d = " M150 145 L144,149 C144,140.856 147.766,131.969 152,123.5 152.431,122.638 152,108.059 152,105 154.422,105 157.361,102.07 159.5,101 169.172,96.1639 179.773,92.8636 189.5,88 189.5,88 196,89 196,89 196,89 196,90 196,90 193.896,90 183,113.454 183,117 181.99,117 173,116.303 173,119 171.535,119 169,118.891 169,121 164.033,121 150,140.714 150,145  Z"/>

<path  fill="#1D9C5A" stroke-width="0" stroke="#1D9C5A" d = " M306 145 L313,149 C313,140.201 308.621,133.742 305,126.5 302.999,122.497 305,111.511 305,106 305,106 305,105 305,105 300.76,105 272.131,90.8155 266.5,88 266.5,88 260,89 260,89 260,89 260,90 260,90 263.007,90 273,113.145 273,117 273,117 274,117 274,117 274,116.019 284.803,118.151 286.5,119 292.428,121.964 306,138.837 306,145  Z"/>

<path  fill="#3FA664" stroke-width="0" stroke="#3FA664" d = " M183 117 L185,117 C186.49,117 196.644,103 201,103 201,99.4516 200.34,90 196,90 193.896,90 183,113.454 183,117  Z"/>

<path  fill="#3FA664" stroke-width="0" stroke="#3FA664" d = " M271 118 L272,118 C272,118 273,117 273,117 273,113.145 263.007,90 260,90 255.354,90 256,99.9065 256,103 258.452,103 271,115.332 271,118  Z"/>

<path  fill="#2FA74F" stroke-width="0" stroke="#2FA74F" d = " M218 133 L223,133 C223,121.718 222,108.942 222,97 222,97 217,98 217,98 217,109.612 218,122.045 218,133  Z"/>

<path  fill="#2FA750" stroke-width="0" stroke="#2FA750" d = " M223 133 L234,133 C234,133 234,97 234,97 234,97 222,97 222,97 222,108.942 223,121.718 223,133  Z"/>

<path  fill="#2FA74F" stroke-width="0" stroke="#2FA74F" d = " M234 133 L238,133 C238,121.684 240,109.905 240,98 240,98 234,97 234,97 234,97 234,133 234,133  Z"/>

<path  fill="#2EA84F" stroke-width="0" stroke="#2EA84F" d = " M218 133 L205,135 C205,124.991 201,114.671 201,103 206.109,103 211.294,98 217,98 217,109.612 218,122.045 218,133  Z"/>

<path  fill="#2EA84F" stroke-width="0" stroke="#2EA84F" d = " M238 133 L252,135 C252,130.393 253.012,123.477 255,119.5 255,119.5 255,103 255,103 250.349,103 245.292,98 240,98 240,109.905 238,121.684 238,133  Z"/>

<path  fill="#2FA850" stroke-width="0" stroke="#2FA850" d = " M205 135 L195,136 C195,133.475 187.387,118 185,118 185,118 185,117 185,117 186.49,117 196.644,103 201,103 201,114.671 205,124.991 205,135  Z"/>

<path  fill="#2FA850" stroke-width="0" stroke="#2FA850" d = " M252 135 L261,136 C261,133.845 266.495,121 269,121 269,119.253 269.253,119 271,119 271,119 271,118 271,118 271,115.332 258.452,103 256,103 256,103 255,103 255,103 255,103 255,119.5 255,119.5 253.012,123.477 252,130.393 252,135  Z"/>

<path  fill="#1F9B5A" stroke-width="0" stroke="#1F9B5A" d = " M144 149 C135.374,149 128.41,162 120,162 120,162 119,146.5 119,146.5 120.357,143.786 119.677,140.145 121,137.5 125.538,128.424 130.433,118.034 140.5,113 143.865,111.317 148.209,105 152,105 152,108.059 152.431,122.638 152,123.5 147.766,131.969 144,140.856 144,149  Z"/>

<path  fill="#1F9B5A" stroke-width="0" stroke="#1F9B5A" d = " M313 149 L336,162 C336,157.611 339.337,148.174 337,143.5 331.868,133.236 329.36,120.43 318.5,115 313.924,112.712 310.4,106 305,106 305,111.511 302.999,122.497 305,126.5 308.621,133.742 313,140.201 313,149  Z"/>

<path  fill="#187E61" stroke-width="0" stroke="#187E61" d = " M90 108 C91.1859,108 91.1859,109 90,109 90,109 90,108 90,108  Z"/>

<path  fill="#187E61" stroke-width="0" stroke="#187E61" d = " M374 160 L379,161 C379,145.725 379.28,133.061 373,120.5 371.997,118.495 368.575,108 366,108 366,108 365,115 365,115 365,115 365,117 365,117 368.962,117 369.859,126.218 371,128.5 375.577,137.653 374,149.087 374,159 374,159 374,160 374,160  Z"/>

<path  fill="#187E61" stroke-width="0" stroke="#187E61" d = " M82 160 C80.5711,160 78,160.454 78,161 76.2072,161 77,148.991 77,147 77,136.411 79.6409,128.218 84,119.5 84.9257,117.649 87.3167,109 90,109 90,109 91,115 91,115 91,115 91,117 91,117 88.4581,117 86.8922,124.716 86,126.5 81.2021,136.096 82,148.436 82,160  Z"/>

<path  fill="#187E61" stroke-width="0" stroke="#187E61" d = " M91 110 C91,111.93 92.93,110 91,110  Z"/>

<path  fill="#1E9C58" stroke-width="0" stroke="#1E9C58" d = " M183 118 L173,119 C173,116.303 181.99,117 183,117 183,117 183,118 183,118  Z"/>

<path  fill="#1E9C58" stroke-width="0" stroke="#1E9C58" d = " M303 144 L306,145 C306,138.837 292.428,121.964 286.5,119 284.803,118.151 274,116.019 274,117 274,117 274,118 274,118 276.54,118 287,119.064 287,122 291.061,122 303,140.195 303,144  Z"/>

<path  fill="#1A7E64" stroke-width="0" stroke="#1A7E64" d = " M94 157 C89.4032,157 85.8537,160 82,160 82,148.436 81.2021,136.096 86,126.5 86.8922,124.716 88.4581,117 91,117 92.7164,117 91.8223,126.145 93,128.5 94.2037,130.907 94,150.132 94,157  Z"/>

<path  fill="#3FA466" stroke-width="0" stroke="#3FA466" d = " M185 118 L185,119 C185,119 183,118 183,118 183,118 183,117 183,117 183,117 185,117 185,117 185,117 185,118 185,118  Z"/>

<path  fill="#3FA466" stroke-width="0" stroke="#3FA466" d = " M274 118 L272,119 C272,119 272,118 272,118 272,118 273,117 273,117 273,117 274,117 274,117 274,117 274,118 274,118  Z"/>

<path  fill="#1A7E64" stroke-width="0" stroke="#1A7E64" d = " M363 157 L374,159 C374,149.087 375.577,137.653 371,128.5 369.859,126.218 368.962,117 365,117 365,122.222 362,125.624 362,130.5 362,130.5 364,131.5 364,131.5 364,131.5 362,133.5 362,133.5 361.59,134.32 363.498,140.495 364,141.5 364,141.5 363,157 363,157  Z"/>

<path  fill="#CACCC7" stroke-width="0" stroke="#CACCC7" d = " M194 137 L195,144 C193.388,144 191.757,135.013 191,133.5 186.82,125.14 182.045,124 173,124 173,124 169,122 169,122 169,122 169,121 169,121 169,121 173,119 173,119 173,119 183,118 183,118 183,118 185,119 185,119 185,122.627 194,131.392 194,137  Z"/>

<path  fill="#2FA84F" stroke-width="0" stroke="#2FA84F" d = " M194 137 L195,137 C195,137 195,136 195,136 195,133.475 187.387,118 185,118 185,118 185,119 185,119 185,122.627 194,131.392 194,137  Z"/>

<path  fill="#2FA84F" stroke-width="0" stroke="#2FA84F" d = " M271 119 L272,119 C272,119 272,118 272,118 272,118 271,118 271,118 271,118 271,119 271,119  Z"/>

<path  fill="#CACCC7" stroke-width="0" stroke="#CACCC7" d = " M263 137 C263,139.755 261,142.553 261,146 262.632,146 264.212,136.076 265,134.5 269.331,125.839 272.847,124 283,124 283,124 287,122 287,122 287,119.064 276.54,118 274,118 274,118 272,119 272,119 272,119 271,119 271,119 271,119 269,121 269,121 269,126.646 263,130.891 263,137  Z"/>

<path  fill="#1E9C58" stroke-width="0" stroke="#1E9C58" d = " M173 119 C171.535,119 169,118.891 169,121 169,121 173,119 173,119  Z"/>

<path  fill="#2FA84F" stroke-width="0" stroke="#2FA84F" d = " M271 119 C269.253,119 269,119.253 269,121 269,121 271,119 271,119  Z"/>

<path  fill="#1E9C58" stroke-width="0" stroke="#1E9C58" d = " M153 144 L150,145 C150,140.714 164.033,121 169,121 169,121 169,122 169,122 169,123.587 153,137.468 153,144  Z"/>

<path  fill="#2FA84F" stroke-width="0" stroke="#2FA84F" d = " M261 137 L263,137 C263,130.891 269,126.646 269,121 266.495,121 261,133.845 261,136 261,136 261,137 261,137  Z"/>

<path  fill="#C9C9CA" stroke-width="0" stroke="#C9C9CA" d = " M153 155 C154.302,155 155.641,159 158,159 158,149.673 158.182,143.137 162,135.5 162,135.5 173,124 173,124 173,124 169,122 169,122 169,123.587 153,137.468 153,144 153,148.404 153,150.758 153,155  Z"/>

<path  fill="#C9C9CA" stroke-width="0" stroke="#C9C9CA" d = " M303 157 L298,159 C298,146.788 298.674,140.174 289,130.5 289,130.5 283,124 283,124 283,124 287,122 287,122 291.061,122 303,140.195 303,144 303,146.95 303,151.018 303,155 303,155 303,157 303,157  Z"/>

<path  fill="#CAC7CC" stroke-width="0" stroke="#CAC7CC" d = " M187 181 C187,183.456 189,184.913 189,182 189,173.811 197,166.62 197,159 197,153.998 195,150.386 195,145 195,145 195,144 195,144 193.388,144 191.757,135.013 191,133.5 186.82,125.14 182.045,124 173,124 173,124 162,135.5 162,135.5 158.182,143.137 158,149.673 158,159 163.229,159 181,160.854 181,167 181,167 181,169 181,169 184.147,169 187,178.536 187,181  Z"/>

<path  fill="#CAC7CC" stroke-width="0" stroke="#CAC7CC" d = " M270 181 C270,183.681 267.922,182 267,182 267,178.69 261.829,161 259,161 259,161 259,158 259,158 259,154.795 261,151.076 261,147 261,147 261,146 261,146 262.632,146 264.212,136.076 265,134.5 269.331,125.839 272.847,124 283,124 283,124 289,130.5 289,130.5 298.674,140.174 298,146.788 298,159 292.65,159 275,160.532 275,167 275,167 275,168 275,168 275,172.507 270,175.612 270,181  Z"/>

<path  fill="#59B262" stroke-width="0" stroke="#59B262" d = " M211 159 L219,159 C219,150.443 218,140.878 218,133 218,133 205,135 205,135 205,143.96 211,151.01 211,159  Z"/>

<path  fill="#59B362" stroke-width="0" stroke="#59B362" d = " M219 159 L223,159 C223,150.019 223,142.256 223,133 223,133 218,133 218,133 218,140.878 219,150.443 219,159  Z"/>

<path  fill="#59B263" stroke-width="0" stroke="#59B263" d = " M229 159 L234,159 C234,151.236 234,140.764 234,133 234,133 223,133 223,133 223,142.256 223,150.019 223,159 223,159 228,159 228,159 228,159 228,157 228,157 228,157 228,156 228,156 228,156 228.5,146 228.5,146 228.5,146 229,156 229,156 229,156 229,157 229,157 229,157 229,159 229,159  Z"/>

<path  fill="#59B362" stroke-width="0" stroke="#59B362" d = " M234 159 L237,159 C237,159 238,133 238,133 238,133 234,133 234,133 234,140.764 234,151.236 234,159  Z"/>

<path  fill="#59B262" stroke-width="0" stroke="#59B262" d = " M237 159 L245,159 C245,154.367 252,142.923 252,135 252,135 238,133 238,133 238,133 237,159 237,159  Z"/>

<path  fill="#58B362" stroke-width="0" stroke="#58B362" d = " M198 158 C201.823,158 206.586,159 211,159 211,151.01 205,143.96 205,135 205,135 195,136 195,136 195,136 195,137 195,137 195,141.782 198,148.753 198,154 198,154 198,158 198,158  Z"/>

<path  fill="#58B362" stroke-width="0" stroke="#58B362" d = " M258 158 C254.177,158 249.414,159 245,159 245,154.367 252,142.923 252,135 252,135 261,136 261,136 261,136 261,137 261,137 261,143.14 258,149.162 258,156 258,156 258,158 258,158  Z"/>

<path  fill="#58B263" stroke-width="0" stroke="#58B263" d = " M195 145 C197.013,145 195.752,154 198,154 198,148.753 195,141.782 195,137 195,137 194,137 194,137 194,137 195,144 195,144 195,144 195,145 195,145  Z"/>

<path  fill="#58B263" stroke-width="0" stroke="#58B263" d = " M261 147 C258.752,147 260.013,156 258,156 258,149.162 261,143.14 261,137 261,137 263,137 263,137 263,139.755 261,142.553 261,146 261,146 261,147 261,147  Z"/>

<path  fill="#1F9766" stroke-width="0" stroke="#1F9766" d = " M152 157 L150,158 C150,154.158 150,148.991 150,145 150,145 153,144 153,144 153,148.404 153,150.758 153,155 153,155 152,157 152,157  Z"/>

<path  fill="#1F9766" stroke-width="0" stroke="#1F9766" d = " M303 155 L306,158 C308.827,158 306,146.246 306,145 306,145 303,144 303,144 303,146.95 303,151.018 303,155  Z"/>

<path  fill="#209666" stroke-width="0" stroke="#209666" d = " M134 177 L135,177 C135,177 135,176 135,176 135,176 132,172.5 132,172.5 131.252,171.005 132.477,169.547 133,168.5 136.688,161.123 139.18,164 146,164 146,162.748 149.172,159 150,159 150,159 150,158 150,158 150,154.158 150,148.991 150,145 150,145 144,149 144,149 135.374,149 128.41,162 120,162 120,162 120,163 120,163 120.83,163 122.466,169.431 123,170.5 125.141,174.781 129.191,177 134,177  Z"/>

<path  fill="#CACCC7" stroke-width="0" stroke="#CACCC7" d = " M197 159 L198,159 C198,159 198,158 198,158 198,158 198,154 198,154 195.752,154 197.013,145 195,145 195,150.386 197,153.998 197,159  Z"/>

<path  fill="#209666" stroke-width="0" stroke="#209666" d = " M321 177 L323,177 C329.694,177 336,169.343 336,163 336,163 336,162 336,162 336,162 313,149 313,149 313,149 306,145 306,145 306,146.246 308.827,158 306,158 306,158 306,159 306,159 306,159 311,164 311,164 317.022,164 325,162.295 325,171.5 325,171.5 321,177 321,177  Z"/>

<path  fill="#99D2BD" stroke-width="0" stroke="#99D2BD" d = " M228 156 L229,156 C229,156 228.5,146 228.5,146 228.5,146 228,156 228,156  Z"/>

<path  fill="#CACCC7" stroke-width="0" stroke="#CACCC7" d = " M258 158 L259,158 C259,154.795 261,151.076 261,147 258.752,147 260.013,156 258,156 258,156 258,158 258,158  Z"/>

<path  fill="#219665" stroke-width="0" stroke="#219665" d = " M153 155 L152,157 C152,157 153,155 153,155  Z"/>

<path  fill="#248A5C" stroke-width="0" stroke="#248A5C" d = " M151 160 L158.5,165 C162.755,167.127 176.043,167 181,167 181,160.854 163.229,159 158,159 155.641,159 154.302,155 153,155 153,155 152,157 152,157 152,157 151,159 151,159 151,159 151,160 151,160  Z"/>

<path  fill="#219665" stroke-width="0" stroke="#219665" d = " M305 159 L306,159 C306,159 306,158 306,158 306,158 303,155 303,155 303,155 303,157 303,157 303,157 305,159 305,159  Z"/>

<path  fill="#009B75" stroke-width="0" stroke="#009B75" d = " M97 171 C97,173.337 87.6818,177 85,177 85,171.824 82,165.456 82,160 85.8537,160 89.4032,157 94,157 94,157 96,165 96,165 96,166.321 95.3156,171 97,171  Z"/>

<path  fill="#219665" stroke-width="0" stroke="#219665" d = " M150 159 L151,159 C151,159 152,157 152,157 152,157 150,158 150,158 150,158 150,159 150,159  Z"/>

<path  fill="#99D2BD" stroke-width="0" stroke="#99D2BD" d = " M228 159 C228,163.283 229,163.283 229,159 229,159 229,157 229,157 229,157 228,157 228,157 228,157 228,159 228,159  Z"/>

<path  fill="#248A5C" stroke-width="0" stroke="#248A5C" d = " M305 160 C305,165.932 279.199,167 275,167 275,160.532 292.65,159 298,159 298,159 303,157 303,157 303,157 305,159 305,159 305,159 305,160 305,160  Z"/>

<path  fill="#009B75" stroke-width="0" stroke="#009B75" d = " M359 173 C363.503,173 366.736,177 371,177 372.951,177 371.477,174.546 372,173.5 373.824,169.851 374,164.326 374,160 374,160 374,159 374,159 374,159 363,157 363,157 360.418,157 361,162.798 361,165 361,166.296 360.175,172 359,172 359,172 359,173 359,173  Z"/>

<path  fill="#A3DAA3" stroke-width="0" stroke="#A3DAA3" d = " M205 180 C205,176.164 215.434,179 217.5,179 220.731,179 248.396,177.448 249.5,178 L252,180 C252,180 257,175.5 257,175.5 259.097,171.307 259,166.088 259,161 259,161 259,158 259,158 259,158 258,158 258,158 254.177,158 249.414,159 245,159 245,159 237,159 237,159 237,159 234,159 234,159 234,159 229,159 229,159 229,163.283 228,163.283 228,159 228,159 223,159 223,159 223,159 219,159 219,159 219,159 211,159 211,159 206.586,159 201.823,158 198,158 198,158 198,159 198,159 198,164.012 197.33,180 205,180  Z"/>

<path  fill="#1F9866" stroke-width="0" stroke="#1F9866" d = " M146 164 L148,165 C148,165 151,160 151,160 151,160 151,159 151,159 151,159 150,159 150,159 149.172,159 146,162.748 146,164  Z"/>

<path  fill="#99D2BD" stroke-width="0" stroke="#99D2BD" d = " M226 207 C226,209.279 211.17,216 209.5,216 206.355,216 207.45,209 205,209 205,209 205,207 205,207 205,207 204,206 204,206 204,206 203,203 203,203 209.859,203 196,173.22 196,189 196,189 193,186 193,186 193,186 189,182 189,182 189,173.811 197,166.62 197,159 197,159 198,159 198,159 198,164.012 197.33,180 205,180 205,195.955 206.409,207 226,207  Z"/>

<path  fill="#1F9866" stroke-width="0" stroke="#1F9866" d = " M311 164 L308,166 C308,164.598 306.89,160 305,160 305,160 305,159 305,159 305,159 306,159 306,159 306,159 311,164 311,164  Z"/>

<path  fill="#009C75" stroke-width="0" stroke="#009C75" d = " M85 178 L81,179 C81,173.113 78,167.585 78,161 78,160.454 80.5711,160 82,160 82,165.456 85,171.824 85,177 85,177 85,178 85,178  Z"/>

<path  fill="#24895D" stroke-width="0" stroke="#24895D" d = " M155 175 C168.919,175 159,183.524 159,188 163.697,188 177.089,169 181,169 181,169 181,167 181,167 176.043,167 162.755,167.127 158.5,165 158.5,165 151,160 151,160 151,160 148,165 148,165 148,168.553 155,165.47 155,175  Z"/>

<path  fill="#24895D" stroke-width="0" stroke="#24895D" d = " M301 175 C286.962,175 298,184.615 298,188 292.558,188 278.59,168 275,168 275,168 275,167 275,167 279.199,167 305,165.932 305,160 306.89,160 308,164.598 308,166 303.733,166 301,171.591 301,175  Z"/>

<path  fill="#009C75" stroke-width="0" stroke="#009C75" d = " M371 178 L375,179 C375,173.488 379,166.963 379,161 379,161 374,160 374,160 374,164.326 373.824,169.851 372,173.5 371.477,174.546 372.951,177 371,177 371,177 371,178 371,178  Z"/>

<path  fill="#99D2BD" stroke-width="0" stroke="#99D2BD" d = " M251 208 L251,210 C251,210 246.5,216 246.5,216 242.379,216 227.171,205 227,205 227,205 228,200 228,200 228,200 229,200 229,200 229,208.806 242.491,209.517 245,204.5 249.108,196.284 252,190.078 252,180 252,180 257,175.5 257,175.5 259.097,171.307 259,166.088 259,161 261.829,161 267,178.69 267,182 265.571,182 263,185.939 263,187 263,187 261,188 261,188 261,176.944 252,193.683 252,198 252,199.235 251.357,203 253,203 253,203 252,207 252,207 252,207 251,208 251,208  Z"/>

<path  fill="#209665" stroke-width="0" stroke="#209665" d = " M104 197 L105,197 C109.293,197 134,182.447 134,177 129.191,177 125.141,174.781 123,170.5 122.466,169.431 120.83,163 120,163 112.632,163 105.857,171 98,171 98,176.019 97.8601,184.22 100,188.5 100,188.5 104,197 104,197  Z"/>

<path  fill="#8ADA86" stroke-width="0" stroke="#8ADA86" d = " M136 177 L150,179 C150,179 155,175 155,175 155,165.47 148,168.553 148,165 148,165 146,164 146,164 139.18,164 136.688,161.123 133,168.5 132.477,169.547 131.252,171.005 132,172.5 132,172.5 135,176 135,176 135,176 136,177 136,177  Z"/>

<path  fill="#8ADA86" stroke-width="0" stroke="#8ADA86" d = " M321 177 C315.718,177 310.553,178 306,178 303.334,178 303.518,175 301,175 301,171.591 303.733,166 308,166 308,166 311,164 311,164 317.022,164 325,162.295 325,171.5 325,171.5 321,177 321,177  Z"/>

<path  fill="#209665" stroke-width="0" stroke="#209665" d = " M351 197 L352,197 C352,194.728 355.881,188.738 357,186.5 357.856,184.788 357.156,173 359,173 359,173 359,172 359,172 351.258,172 343.876,163 336,163 336,169.343 329.694,177 323,177 323,183.162 346.034,197 351,197  Z"/>

<path  fill="#009C74" stroke-width="0" stroke="#009C74" d = " M96 165 C97.6844,165 97,169.679 97,171 95.3156,171 96,166.321 96,165  Z"/>

<path  fill="#009C74" stroke-width="0" stroke="#009C74" d = " M359 167 L359,172 C360.175,172 361,166.296 361,165 361,165 359,167 359,167  Z"/>

<path  fill="#99D2BD" stroke-width="0" stroke="#99D2BD" d = " M298 249 L303,249 C303,244.851 290.051,241.398 293,235.5 294.396,232.707 303,225.732 303,223 299.501,223 296.626,229.063 292.5,227 288.593,225.047 291.946,218.609 293,216.5 295.448,211.604 293.585,204.33 296,199.5 300.106,191.287 316,203.527 316,211 317.84,211 320,206 324,206 324,205.833 299,191.628 299,189 299,189 298,188 298,188 292.558,188 278.59,168 275,168 275,172.507 270,175.612 270,181 276.748,181 291,191.49 291,199 291,199 291,200 291,200 291,200 292,201 292,201 292,205.712 295.672,211 288,211 288,212.804 290.182,216.136 289,218.5 289,218.5 282,227 282,227 287.553,227 288,240.099 288,244 291.813,244 295.05,249 298,249  Z"/>

<path  fill="#99D2BD" stroke-width="0" stroke="#99D2BD" d = " M153 249 L159,249 C159,245.695 166.652,244 169,244 169,240.534 168.48,227 174,227 174,227 167,217.5 167,217.5 165.572,214.644 169,212.947 169,211 161.436,211 164,206.774 164,202 164,202 165,201 165,201 165,201 165,199 165,199 165,199 166,198 166,198 166,190.384 180.13,181 187,181 187,178.536 184.147,169 181,169 177.089,169 163.697,188 159,188 159,188 158,189 158,189 154.971,189 138.876,205 132,205 132,205 132,206 132,206 138.65,206 139.397,212 141,212 141,209.729 139.675,208.15 141,205.5 142.931,201.637 156.638,192.776 160,199.5 160,199.5 163,215.5 163,215.5 164.099,217.697 168.264,225.118 164.5,227 158.786,229.857 155.316,221 151,221 151,221.779 161.669,231.838 163,234.5 166.641,241.781 153,244.419 153,249  Z"/>

<path  fill="#209765" stroke-width="0" stroke="#209765" d = " M93 201 L94,201 C94,199.435 102.408,197 104,197 104,197 100,188.5 100,188.5 97.8601,184.22 98,176.019 98,171 98,171 97,171 97,171 97,173.337 87.6818,177 85,177 85,177 85,178 85,178 85,186.005 93,193.239 93,201  Z"/>

<path  fill="#209765" stroke-width="0" stroke="#209765" d = " M352 197 L363,200 C363,195.815 371,184.714 371,178 371,178 371,177 371,177 366.736,177 363.503,173 359,173 357.156,173 357.856,184.788 357,186.5 355.881,188.738 352,194.728 352,197  Z"/>

<path  fill="#228A5D" stroke-width="0" stroke="#228A5D" d = " M158 188 L159,188 C159,183.524 168.919,175 155,175 155,175 150,179 150,179 151.938,179 151.313,188 158,188  Z"/>

<path  fill="#228A5D" stroke-width="0" stroke="#228A5D" d = " M298 188 L299,188 C302.425,188 306,181.376 306,178 303.334,178 303.518,175 301,175 286.962,175 298,184.615 298,188  Z"/>

<path  fill="#1F9866" stroke-width="0" stroke="#1F9866" d = " M135 177 L136,177 C136,177 135,176 135,176 135,176 135,177 135,177  Z"/>

<path  fill="#1F9865" stroke-width="0" stroke="#1F9865" d = " M105 197 C105,206.563 124.491,200.495 127.5,202 L132,205 C138.876,205 154.971,189 158,189 158,189 158,188 158,188 151.313,188 151.938,179 150,179 150,179 136,177 136,177 136,177 135,177 135,177 135,177 134,177 134,177 134,182.447 109.293,197 105,197  Z"/>

<path  fill="#1F9865" stroke-width="0" stroke="#1F9865" d = " M324 206 L325,206 C325,197.883 351,207.934 351,197 346.034,197 323,183.162 323,177 323,177 321,177 321,177 315.718,177 310.553,178 306,178 306,181.376 302.425,188 299,188 299,188 299,189 299,189 299,191.628 324,205.833 324,206  Z"/>

<path  fill="#209764" stroke-width="0" stroke="#209764" d = " M93 201 L90,202 C88.6747,202 87.5697,196.639 87,195.5 84.7464,190.993 81,184.197 81,179 81,179 85,178 85,178 85,186.005 93,193.239 93,201  Z"/>

<path  fill="#61D09F" stroke-width="0" stroke="#61D09F" d = " M227 205 L226,207 C206.409,207 205,195.955 205,180 205,176.164 215.434,179 217.5,179 220.731,179 248.396,177.448 249.5,178 249.5,178 252,180 252,180 252,190.078 249.108,196.284 245,204.5 242.491,209.517 229,208.806 229,200 229,198.814 228,198.814 228,200 228,200 227,205 227,205  Z"/>

<path  fill="#209764" stroke-width="0" stroke="#209764" d = " M363 201 L367,202 C367,195.474 375,187.344 375,179 375,179 371,178 371,178 371,184.714 363,195.815 363,200 363,200 363,201 363,201  Z"/>

<path  fill="#97D6F9" stroke-width="0" stroke="#97D6F9" d = " M193 186 C187.181,186 178.543,189.479 173.5,192 L166,198 C166,190.384 180.13,181 187,181 187,183.456 189,184.913 189,182 189,182 193,186 193,186  Z"/>

<path  fill="#97D6F9" stroke-width="0" stroke="#97D6F9" d = " M263 187 C270.095,187 277.614,189.557 284.5,193 285.936,193.718 288.569,199 291,199 291,191.49 276.748,181 270,181 270,183.681 267.922,182 267,182 265.571,182 263,185.939 263,187  Z"/>

<path  fill="#54BF94" stroke-width="0" stroke="#54BF94" d = " M196 189 L203,203 C209.859,203 196,173.22 196,189  Z"/>

<path  fill="#54BF94" stroke-width="0" stroke="#54BF94" d = " M254 202 L253,203 C251.357,203 252,199.235 252,198 252,193.683 261,176.944 261,188 261,188 254,202 254,202  Z"/>

<path  fill="#80CDF8" stroke-width="0" stroke="#80CDF8" d = " M211 233 L211,244.5 C207.445,251.61 195.418,258.459 188.5,255 L181.5,255 C177.607,253.054 169,249.183 169,244 169,240.534 168.48,227 174,227 180.076,227 180.991,215.482 179,211.5 176.401,206.302 172.36,211 169,211 161.436,211 164,206.774 164,202 164,202 165,201 165,201 165,201 165,199 165,199 165,199 166,198 166,198 166,198 173.5,192 173.5,192 178.543,189.479 187.181,186 193,186 193,186 196,189 196,189 196,189 203,203 203,203 203,203 204,206 204,206 204,206 205,207 205,207 205,207 205,209 205,209 205,217.271 211,224.222 211,233  Z"/>

<path  fill="#80CDF8" stroke-width="0" stroke="#80CDF8" d = " M245 233 L245,243.5 C248.613,250.727 259.66,258.92 267.5,255 L274.5,255 C278.201,253.15 288,249.196 288,244 288,240.099 287.553,227 282,227 277.482,227 275.306,215.888 277,212.5 280.263,205.974 284.145,211 288,211 295.672,211 292,205.712 292,201 292,201 291,200 291,200 291,200 291,199 291,199 288.569,199 285.936,193.718 284.5,193 277.614,189.557 270.095,187 263,187 263,187 261,188 261,188 261,188 254,202 254,202 254,202 253,203 253,203 253,203 252,207 252,207 252,207 251,208 251,208 251,208 251,210 251,210 251,215.051 248.178,222.143 246,226.5 245.338,227.824 247.207,233 245,233  Z"/>

<path  fill="#1F9866" stroke-width="0" stroke="#1F9866" d = " M159 188 L158,189 C158,189 158,188 158,188 158,188 159,188 159,188  Z"/>

<path  fill="#1F9866" stroke-width="0" stroke="#1F9866" d = " M299 188 L299,189 C299,189 298,188 298,188 298,188 299,188 299,188  Z"/>

<path  fill="#219764" stroke-width="0" stroke="#219764" d = " M132 206 C122.765,206 114.629,214 105,214 105,211.641 94,205.397 94,201 94,199.435 102.408,197 104,197 104,197 105,197 105,197 105,206.563 124.491,200.495 127.5,202 127.5,202 132,205 132,205 132,205 132,206 132,206  Z"/>

<path  fill="#A0EE9C" stroke-width="0" stroke="#A0EE9C" d = " M150 221 L151,221 C155.316,221 158.786,229.857 164.5,227 168.264,225.118 164.099,217.697 163,215.5 163,215.5 160,199.5 160,199.5 156.638,192.776 142.931,201.637 141,205.5 139.675,208.15 141,209.729 141,212 141,212 141,213 141,213 142.702,213 147,217.802 147,219 147,219 148,219 148,219 148,219 150,221 150,221  Z"/>

<path  fill="#A0EE9C" stroke-width="0" stroke="#A0EE9C" d = " M305 222 L303,223 C299.501,223 296.626,229.063 292.5,227 288.593,225.047 291.946,218.609 293,216.5 295.448,211.604 293.585,204.33 296,199.5 300.106,191.287 316,203.527 316,211 316,211 316,212 316,212 316,212 315,213 315,213 315,213 313,215 313,215 313,215 311,217 311,217 311,217 310,218 310,218 310,218 309,219 309,219 309,219 308,219 308,219 308,219 307,220 307,220 307,220 306,221 306,221 306,221 305,222 305,222  Z"/>

<path  fill="#219764" stroke-width="0" stroke="#219764" d = " M325 206 C333.803,206 341.844,214 351,214 351,214 358,207.5 358,207.5 358,207.5 363,201 363,201 363,201 363,200 363,200 363,200 352,197 352,197 352,197 351,197 351,197 351,207.934 325,197.883 325,206  Z"/>

<path  fill="#97D6F9" stroke-width="0" stroke="#97D6F9" d = " M166 198 L165,199 C165,199 166,198 166,198  Z"/>

<path  fill="#97D6F9" stroke-width="0" stroke="#97D6F9" d = " M291 200 L292,201 C292,201 291,200 291,200  Z"/>

<path  fill="#209864" stroke-width="0" stroke="#209864" d = " M105 214 C105,215.684 100.321,215 99,215 99,210.84 90,206.628 90,202 90,202 93,201 93,201 93,201 94,201 94,201 94,205.397 105,211.641 105,214  Z"/>

<path  fill="#97D6F9" stroke-width="0" stroke="#97D6F9" d = " M165 201 L164,202 C164,202 165,201 165,201  Z"/>

<path  fill="#209864" stroke-width="0" stroke="#209864" d = " M351 214 C352.564,214 354.876,215 357,215 357,214.014 367,204.792 367,202 367,202 363,201 363,201 363,201 358,207.5 358,207.5 358,207.5 351,214 351,214  Z"/>

<path  fill="#99D2BD" stroke-width="0" stroke="#99D2BD" d = " M254 202 L253,203 C253,203 254,202 254,202  Z"/>

<path  fill="#99D2BD" stroke-width="0" stroke="#99D2BD" d = " M227 205 L226,207 C226,207 227,205 227,205  Z"/>

<path  fill="#97D6F9" stroke-width="0" stroke="#97D6F9" d = " M235 254 C232.856,254 234.619,249.738 234,248.5 231.583,243.666 232.417,237.334 230,232.5 L228.5,226 C226.27,226 227.471,229.558 227,230.5 224.518,235.465 223,243.159 223,249 223,249.986 221.913,255 221,255 221,252.235 219,249.835 219,248 220.22,248 220.504,244.508 220,243.5 218.306,240.112 214.682,233 211,233 211,224.222 205,217.271 205,209 207.45,209 206.355,216 209.5,216 211.17,216 226,209.279 226,207 226,207 227,205 227,205 227.171,205 242.379,216 246.5,216 246.5,216 251,210 251,210 251,215.051 248.178,222.143 246,226.5 245.338,227.824 247.207,233 245,233 239.188,233 237,244.677 237,248 237,249.714 235,251.482 235,254  Z"/>

<path  fill="#6ACAB9" stroke-width="0" stroke="#6ACAB9" d = " M142 253 L143,253 C146.685,253 149.026,249 153,249 153,244.419 166.641,241.781 163,234.5 161.669,231.838 151,221.779 151,221 151,221 150,221 150,221 150,221 148,219 148,219 148,219 147,219 147,219 147,219 141,213 141,213 141,213 141,212 141,212 139.397,212 138.65,206 132,206 122.765,206 114.629,214 105,214 105,215.684 100.321,215 99,215 99,222.292 110.528,240 119,240 128.269,240 138.561,253 142,253  Z"/>

<path  fill="#97D6F9" stroke-width="0" stroke="#97D6F9" d = " M204 206 L205,207 C205,207 204,206 204,206  Z"/>

<path  fill="#6ACAB9" stroke-width="0" stroke="#6ACAB9" d = " M313 253 L315,253 C315,253 321.5,247 321.5,247 321.5,247 336.5,239 336.5,239 336.5,239 338,241 338,241 338,238.569 344.336,236.164 346,234.5 351.117,229.383 357,222.111 357,215 354.876,215 352.564,214 351,214 341.844,214 333.803,206 325,206 325,206 324,206 324,206 320,206 317.84,211 316,211 316,211 316,212 316,212 316,212 315,213 315,213 315,214.747 314.747,215 313,215 313,216.747 312.747,217 311,217 311,217 310,218 310,218 310,218 309,219 309,219 309,219 308,219 308,219 308,219 307,220 307,220 307,220 306,221 306,221 306,221 305,222 305,222 305,222 303,223 303,223 303,225.732 294.396,232.707 293,235.5 290.051,241.398 303,244.851 303,249 306.948,249 309.604,253 313,253  Z"/>

<path  fill="#97D6F9" stroke-width="0" stroke="#97D6F9" d = " M252 207 L251,208 C251,208 252,207 252,207  Z"/>

<path  fill="#CBCBC7" stroke-width="0" stroke="#CBCBC7" d = " M169 211 C172.36,211 176.401,206.302 179,211.5 180.991,215.482 180.076,227 174,227 174,227 167,217.5 167,217.5 165.572,214.644 169,212.947 169,211  Z"/>

<path  fill="#CBCBC7" stroke-width="0" stroke="#CBCBC7" d = " M288 211 C284.145,211 280.263,205.974 277,212.5 275.306,215.888 277.482,227 282,227 282,227 289,218.5 289,218.5 290.182,216.136 288,212.804 288,211  Z"/>

<path  fill="#99D2BD" stroke-width="0" stroke="#99D2BD" d = " M316 212 L315,213 C315,213 316,212 316,212  Z"/>

<path  fill="#99D2BD" stroke-width="0" stroke="#99D2BD" d = " M141 213 C142.702,213 147,217.802 147,219 147,219 141,213 141,213  Z"/>

<path  fill="#99D2BD" stroke-width="0" stroke="#99D2BD" d = " M315 213 L313,215 C314.747,215 315,214.747 315,213  Z"/>

<path  fill="#99D2BD" stroke-width="0" stroke="#99D2BD" d = " M313 215 L311,217 C312.747,217 313,216.747 313,215  Z"/>

<path  fill="#99D2BD" stroke-width="0" stroke="#99D2BD" d = " M311 217 L310,218 C310,218 311,217 311,217  Z"/>

<path  fill="#99D2BD" stroke-width="0" stroke="#99D2BD" d = " M310 218 L309,219 C309,219 310,218 310,218  Z"/>

<path  fill="#99D2BD" stroke-width="0" stroke="#99D2BD" d = " M148 219 L150,221 C150,221 148,219 148,219  Z"/>

<path  fill="#99D2BD" stroke-width="0" stroke="#99D2BD" d = " M308 219 L307,220 C307,220 308,219 308,219  Z"/>

<path  fill="#99D2BD" stroke-width="0" stroke="#99D2BD" d = " M307 220 L306,221 C306,221 307,220 307,220  Z"/>

<path  fill="#99D2BD" stroke-width="0" stroke="#99D2BD" d = " M306 221 L305,222 C305,222 306,221 306,221  Z"/>

<path  fill="#99D2BD" stroke-width="0" stroke="#99D2BD" d = " M305 222 L303,223 C303,223 305,222 305,222  Z"/>

<path  fill="#A2B1D7" stroke-width="0" stroke="#A2B1D7" d = " M219 248 C212.588,248 210.269,256.615 205.5,259 192.509,265.496 181.68,262.09 169.5,256 167.606,255.053 159,251.56 159,249 159,245.695 166.652,244 169,244 169,249.183 177.607,253.054 181.5,255 181.5,255 188.5,255 188.5,255 195.418,258.459 207.445,251.61 211,244.5 211,244.5 211,233 211,233 214.682,233 218.306,240.112 220,243.5 220.504,244.508 220.22,248 219,248  Z"/>

<path  fill="#A2B1D7" stroke-width="0" stroke="#A2B1D7" d = " M237 248 C241.408,248 252.904,260.202 258.5,263 266.293,266.896 282.629,257.936 288.5,255 290.185,254.158 298,251.357 298,249 295.05,249 291.813,244 288,244 288,249.196 278.201,253.15 274.5,255 274.5,255 267.5,255 267.5,255 259.66,258.92 248.613,250.727 245,243.5 245,243.5 245,233 245,233 239.188,233 237,244.677 237,248  Z"/>

<path  fill="#CAC8C7" stroke-width="0" stroke="#CAC8C7" d = " M314 258 L315,259 C317.357,259 338,243.132 338,241 338,241 336.5,239 336.5,239 336.5,239 321.5,247 321.5,247 321.5,247 315,253 315,253 315,253 314,255 314,255 314,255 314,258 314,258  Z"/>

<path  fill="#CAC8C7" stroke-width="0" stroke="#CAC8C7" d = " M142 257 L141,259 C137.463,259 119,243.749 119,240 128.269,240 138.561,253 142,253 142,253 142,256 142,256 142,256 142,257 142,257  Z"/>

<path  fill="#7FCCF7" stroke-width="0" stroke="#7FCCF7" d = " M218 265 L217,266 C217,271.385 209.333,275.083 205.5,277 205.5,277 197.5,281 197.5,281 195.573,281.964 191.955,280.728 190.5,280 183.291,276.396 173.089,282.294 166.5,279 166.5,279 156.5,273 156.5,273 153.492,271.496 145,266.162 145,262 145,262 143,260 143,260 143,258.952 143.473,257 142,257 142,257 142,256 142,256 143.473,256 143,254.048 143,253 146.685,253 149.026,249 153,249 153,249 159,249 159,249 159,251.56 167.606,255.053 169.5,256 181.68,262.09 192.509,265.496 205.5,259 210.269,256.615 212.588,248 219,248 219,249.835 221,252.235 221,255 221,255 221,258 221,258 221,258 220,260 220,260 220,260 220,261 220,261 220,261 219,262 219,262 219,262 219,263 219,263 219,263 218,264 218,264 218,264 218,265 218,265  Z"/>

<path  fill="#7FCCF7" stroke-width="0" stroke="#7FCCF7" d = " M239 267 L240,268 C240,272.65 248.378,275.439 251.5,277 253.996,278.248 256.076,279.788 258.5,281 261.337,282.418 270.108,280.196 272.5,279 275.905,277.298 282.02,281.24 284.5,280 289.254,277.623 294.663,276.419 299.5,274 303.208,272.146 305.908,268.592 308.5,266 308.5,266 312,262 312,262 312,262 313,261 313,261 313,259.952 312.527,258 314,258 314,258 314,255 314,255 314,255 313,253 313,253 309.604,253 306.948,249 303,249 303,249 298,249 298,249 298,251.357 290.185,254.158 288.5,255 282.629,257.936 266.293,266.896 258.5,263 252.904,260.202 241.408,248 237,248 237,249.714 235,251.482 235,254 235,254 235,256 235,256 236.014,256 237,259.959 237,261 237,261 237,262 237,262 237,262 238,263 238,263 238,263 238,264 238,264 238,264 239,265 239,265 239,265 239,267 239,267  Z"/>

<path  fill="#99D2BD" stroke-width="0" stroke="#99D2BD" d = " M143 253 C143,254.048 143.473,256 142,256 142,256 142,253 142,253 142,253 143,253 143,253  Z"/>

<path  fill="#99D2BD" stroke-width="0" stroke="#99D2BD" d = " M315 253 L314,255 C314,255 313,253 313,253 313,253 315,253 315,253  Z"/>

<path  fill="#97D6F9" stroke-width="0" stroke="#97D6F9" d = " M235 256 C236.014,256 237,259.959 237,261 235.362,261 235,257.424 235,256  Z"/>

<path  fill="#99D2BD" stroke-width="0" stroke="#99D2BD" d = " M142 260 L143,260 C143,258.952 143.473,257 142,257 142,257 141,259 141,259 141,259 142,260 142,260  Z"/>

<path  fill="#97D6F9" stroke-width="0" stroke="#97D6F9" d = " M221 258 L220,260 C220,260 221,258 221,258  Z"/>

<path  fill="#97D6F9" stroke-width="0" stroke="#97D6F9" d = " M314 260 L313,261 C313,259.952 312.527,258 314,258 314,258 314,260 314,260  Z"/>

<path  fill="#99D2BD" stroke-width="0" stroke="#99D2BD" d = " M315 259 L314,260 C314,260 314,258 314,258 314,258 315,259 315,259  Z"/>

<path  fill="#97D6F9" stroke-width="0" stroke="#97D6F9" d = " M143 260 L145,262 C145,262 142,260 142,260 142,260 143,260 143,260  Z"/>

<path  fill="#97D6F9" stroke-width="0" stroke="#97D6F9" d = " M220 261 L219,262 C219,262 220,261 220,261  Z"/>

<path  fill="#97D6F9" stroke-width="0" stroke="#97D6F9" d = " M313 261 L312,262 C312,262 313,261 313,261  Z"/>

<path  fill="#97D6F9" stroke-width="0" stroke="#97D6F9" d = " M237 262 L238,263 C238,263 237,262 237,262  Z"/>

<path  fill="#97D6F9" stroke-width="0" stroke="#97D6F9" d = " M219 263 L218,264 C218,264 219,263 219,263  Z"/>

<path  fill="#97D6F9" stroke-width="0" stroke="#97D6F9" d = " M238 264 L239,265 C239,265 238,264 238,264  Z"/>

<path  fill="#97D6F9" stroke-width="0" stroke="#97D6F9" d = " M218 265 L217,266 C217,266 218,265 218,265  Z"/>

<path  fill="#97D6F9" stroke-width="0" stroke="#97D6F9" d = " M239 267 L240,268 C240,268 239,267 239,267  Z"/>

</g>
</svg>
