<svg xmlns="http://www.w3.org/2000/svg" xmlns:xlink="http://www.w3.org/1999/xlink"  viewBox="0 0 456 320">
<g>
<rect width="456" height="320" fill="#000000"  stroke-width="0" /> 
<path  fill="#1E9C59" stroke-width="0" stroke="#1E9C59" d = " M225 61 L221,63 C221,63 216.5,57 216.5,57 216.5,57 208.5,51 208.5,51 205.855,49.6774 202.214,50.3572 199.5,49 192.711,45.6053 169.595,57 163,57 163,57 163,51 163,51 163,48.1468 173.523,47.9886 175.5,47 186.758,41.3711 212.338,40.1764 219,53.5 219,53.5 225,61 225,61  Z"/>

<path  fill="#1E9C59" stroke-width="0" stroke="#1E9C59" d = " M235 64 L236,64 C236,59.5197 243.132,54.6839 246.5,53 255.773,48.3637 272.815,48.1574 282.5,53 285.306,54.4028 289.805,57 293,57 293,57 293,51 293,51 293,47.9167 282.552,48.026 280.5,47 268.517,41.0085 244.09,40.3191 237,54.5 236.136,56.2285 232,58.081 232,61 232,61 235,64 235,64  Z"/>

<path  fill="#1E9D58" stroke-width="0" stroke="#1E9D58" d = " M214 68 L215,68 C215,66.9723 219.666,64 221,64 221,64 221,63 221,63 221,63 216.5,57 216.5,57 216.5,57 208.5,51 208.5,51 205.855,49.6774 202.214,50.3572 199.5,49 192.711,45.6053 169.595,57 163,57 163,57 163,58 163,58 163,58 163,74 163,74 171.985,74 189.466,55.483 200.5,61 204.197,62.8486 214,61.1562 214,68  Z"/>

<path  fill="#1E9D58" stroke-width="0" stroke="#1E9D58" d = " M242 68 C242,61.5922 252.416,62.5418 255.5,61 266.848,55.3258 284.488,74 293,74 293,74 293,57 293,57 289.805,57 285.306,54.4028 282.5,53 272.815,48.1574 255.773,48.3637 246.5,53 243.132,54.6839 236,59.5197 236,64 236,64 242,68 242,68  Z"/>

<path  fill="#1E9D5A" stroke-width="0" stroke="#1E9D5A" d = " M103 83 C103,85.7198 103,86.5529 103,89 108.547,89 115.548,79.4761 120.5,77 130.501,71.9996 152.359,58 163,58 163,58 163,57 163,57 163,57 163,51 163,51 153.318,51 127.273,68.1133 117.5,73 117.5,73 103,83 103,83  Z"/>

<path  fill="#1E9D5A" stroke-width="0" stroke="#1E9D5A" d = " M354 91 L355,91 C355,89.181 354,86.4092 354,84 354,81.0092 341.872,75.1859 339.5,74 328.534,68.5172 304.46,51 293,51 293,51 293,57 293,57 302.542,57 330.82,76.1598 340.5,81 342.812,82.1559 354,89.2316 354,91  Z"/>

<path  fill="#1F9C58" stroke-width="0" stroke="#1F9C58" d = " M352 107 C352,107.822 350.689,115 350,115 350,115 339.5,103 339.5,103 339.5,103 330.5,95 330.5,95 321.364,90.4318 312.557,84.5286 303.5,80 300.257,78.3783 296.77,74 293,74 293,74 293,57 293,57 302.542,57 330.82,76.1598 340.5,81 342.812,82.1559 354,89.2316 354,91 354,91 352,107 352,107  Z"/>

<path  fill="#1F9C58" stroke-width="0" stroke="#1F9C58" d = " M105 107 L106,115 C106,115 122.5,98 122.5,98 127.995,92.5049 155.989,75 163,75 163,75 163,74 163,74 163,74 163,58 163,58 152.359,58 130.501,71.9996 120.5,77 115.548,79.4761 108.547,89 103,89 103,89 103,91 103,91 103,96.8588 105,102.032 105,107  Z"/>

<path  fill="#1F9D58" stroke-width="0" stroke="#1F9D58" d = " M198 83 L199,83 C199,79.2006 214,69.6154 214,68 214,61.1562 204.197,62.8486 200.5,61 189.466,55.483 171.985,74 163,74 163,74 163,75 163,75 163,82.9319 162,87.9063 162,95 166.384,95 185.393,83.5537 190.5,81 190.5,81 198,83 198,83  Z"/>

<path  fill="#1F9D58" stroke-width="0" stroke="#1F9D58" d = " M258 83 L265.5,81 L294,95 C294,87.2446 293,80.355 293,74 284.488,74 266.848,55.3258 255.5,61 252.416,62.5418 242,61.5922 242,68 242,68 242,69 242,69 246.908,69 255.897,83 258,83  Z"/>

<path  fill="#3EA665" stroke-width="0" stroke="#3EA665" d = " M223 95 L234,95 C234,95 233,77.5 233,77.5 234.629,74.2424 235,67.7105 235,64 235,64 232,61 232,61 227.542,61 230.752,71.004 227,63.5 227,63.5 225,61 225,61 225,61 221,63 221,63 221,63 221,64 221,64 221,66.6543 221.888,69.2753 223,71.5 223,71.5 223,95 223,95  Z"/>

<path  fill="#40A565" stroke-width="0" stroke="#40A565" d = " M223 95 L217,96 C217,96 217,73.5 217,73.5 215.958,71.4163 215,70.5921 215,68 215,66.9723 219.666,64 221,64 221,66.6543 221.888,69.2753 223,71.5 223,71.5 223,95 223,95  Z"/>

<path  fill="#40A565" stroke-width="0" stroke="#40A565" d = " M234 95 L240,96 C240,96 240,75 240,75 240,73.3767 240.005,69 242,69 242,69 242,68 242,68 242,68 236,64 236,64 236,64 235,64 235,64 235,67.7105 234.629,74.2424 233,77.5 233,77.5 234,95 234,95  Z"/>

<path  fill="#3EA566" stroke-width="0" stroke="#3EA566" d = " M217 96 C212.379,96 204.838,104 202,104 202,104 201,87.5 201,87.5 201,87.5 199,83 199,83 199,79.2006 214,69.6154 214,68 214,68 215,68 215,68 215,70.5921 215.958,71.4163 217,73.5 217,73.5 217,96 217,96  Z"/>

<path  fill="#3EA566" stroke-width="0" stroke="#3EA566" d = " M240 96 C245.164,96 250.155,104 255,104 255,100.503 254.044,84 258,84 258,84 258,83 258,83 255.897,83 246.908,69 242,69 240.005,69 240,73.3767 240,75 240,75 240,96 240,96  Z"/>

<path  fill="#1E9C5A" stroke-width="0" stroke="#1E9C5A" d = " M350 116 C348.12,116 350.711,118.079 350,119.5 347.233,125.033 347,131.058 347,137 345.155,137 345.559,133.619 345,132.5 342.74,127.98 339.797,123.297 336,119.5 328.798,112.298 303.312,95 294,95 294,87.2446 293,80.355 293,74 296.77,74 300.257,78.3783 303.5,80 312.557,84.5286 321.364,90.4318 330.5,95 330.5,95 339.5,103 339.5,103 339.5,103 350,115 350,115 350,115 350,116 350,116  Z"/>

<path  fill="#1E9C5A" stroke-width="0" stroke="#1E9C5A" d = " M106 117 C106,121.361 110,128.626 110,130.5 L108,130.5 C108,131.111 109.394,136 110,136 110,136 118.5,121 118.5,121 118.5,121 129.5,111 129.5,111 135.501,107.999 156.77,95 162,95 162,87.9063 163,82.9319 163,75 155.989,75 127.995,92.5049 122.5,98 122.5,98 106,115 106,115 106,115 106,117 106,117  Z"/>

<path  fill="#1D9C5A" stroke-width="0" stroke="#1D9C5A" d = " M176 111 C170.538,111 167.47,116 163,116 163,109.803 162,100.54 162,95 166.384,95 185.393,83.5537 190.5,81 190.5,81 198,83 198,83 198,87.0126 185,101.764 185,109 182.992,109 176,108.344 176,111  Z"/>

<path  fill="#1D9C5A" stroke-width="0" stroke="#1D9C5A" d = " M271 109 C281.037,109 292.782,117 294,117 294,108.007 294,102.723 294,95 294,95 265.5,81 265.5,81 265.5,81 258,83 258,83 258,83 258,84 258,84 260.828,84 271,105.661 271,109  Z"/>

<path  fill="#187E61" stroke-width="0" stroke="#187E61" d = " M73 165 L69,166 C69,166 68,148.5 68,148.5 70.3467,143.807 68.6613,137.177 71,132.5 71,132.5 78,112.5 78,112.5 80.0787,108.343 82.9089,104.682 85,100.5 86.6272,97.2456 99.5944,83 103,83 103,85.7198 103,86.5529 103,89 103,89 102,91 102,91 101.658,91 90.2701,102.96 89,105.5 76.5867,130.327 73,134.617 73,165  Z"/>

<path  fill="#3FA664" stroke-width="0" stroke="#3FA664" d = " M195 111 L191,112 C191,112 185,109 185,109 185,101.764 198,87.0126 198,83 198,83 199,83 199,83 199,83 201,87.5 201,87.5 201,87.5 202,104 202,104 202,104 195,111 195,111  Z"/>

<path  fill="#3FA664" stroke-width="0" stroke="#3FA664" d = " M265 113 L266,113 C266,113 267,112 267,112 267,112 268,111 268,111 268,109.423 269.762,109 271,109 271,105.661 260.828,84 258,84 254.044,84 255,100.503 255,104 255,104 255,105 255,105 256.63,105 261,109.37 261,111 261,111 265,113 265,113  Z"/>

<path  fill="#187E61" stroke-width="0" stroke="#187E61" d = " M383 165 L387,165 C387,165 389,152.5 389,152.5 385.904,146.309 388.088,137.676 385,131.5 385,131.5 378,111.5 378,111.5 376.054,107.607 372.987,104.475 371,100.5 369.109,96.7174 358.486,84 354,84 354,86.4092 355,89.181 355,91 355,91 362,98.5 362,98.5 365.79,102.29 370.149,107.799 373,113.5 381.962,131.423 383,144.381 383,165  Z"/>

<path  fill="#1E9D5A" stroke-width="0" stroke="#1E9D5A" d = " M102 91 L103,91 C103,91 103,89 103,89 103,89 102,91 102,91  Z"/>

<path  fill="#1A7E64" stroke-width="0" stroke="#1A7E64" d = " M73 165 L74,165 C74,165 84,162 84,162 84,145.048 88.0354,132.429 95,118.5 96.6484,115.203 101.604,107 105,107 105,102.032 103,96.8588 103,91 103,91 102,91 102,91 101.658,91 90.2701,102.96 89,105.5 76.5867,130.327 73,134.617 73,165  Z"/>

<path  fill="#1A7E64" stroke-width="0" stroke="#1A7E64" d = " M372 162 L383,165 C383,144.381 381.962,131.423 373,113.5 370.149,107.799 365.79,102.29 362,98.5 362,98.5 355,91 355,91 355,91 354,91 354,91 354,91 352,107 352,107 354.457,107 359.951,116.403 361,118.5 368.3,133.1 372,145.348 372,162  Z"/>

<path  fill="#1F9B5A" stroke-width="0" stroke="#1F9B5A" d = " M126 164 L110,170 C110,165.748 108,160.982 108,157 108,157 107,155 107,155 107,155 107,153 107,153 108.399,153 108.399,151 107,151 107,151 108,144 108,144 108,144 109,143 109,143 109,143 109,140 109,140 110.186,140 110.186,139 109,139 109,139 109,138 109,138 109,138 110,137 110,137 110,137 110,136 110,136 110,136 118.5,121 118.5,121 118.5,121 129.5,111 129.5,111 135.501,107.999 156.77,95 162,95 162,100.54 163,109.803 163,116 163,116 163,117 163,117 160.822,117 149,124.305 149,127 146.523,127 146.478,129.011 144.5,130 132.74,135.88 126,151.012 126,163 126,163 126,164 126,164  Z"/>

<path  fill="#3FA566" stroke-width="0" stroke="#3FA566" d = " M219 143 L222,143 C222,127.685 223,110.555 223,95 223,95 217,96 217,96 217,112.353 219,127.72 219,143  Z"/>

<path  fill="#40A664" stroke-width="0" stroke="#40A664" d = " M233 143 L234,143 C234,127.683 234,111.367 234,95 234,95 223,95 223,95 223,110.555 222,127.685 222,143 222,143 224,143 224,143 227.499,143 227.022,136.455 228,134.5 228,134.5 228.5,131 228.5,131 229.44,131 228.399,143 232,143 232,143 233,143 233,143  Z"/>

<path  fill="#3FA566" stroke-width="0" stroke="#3FA566" d = " M234 143 L237,143 C237,140.026 237.637,133.225 239,130.5 240.572,127.357 240,100.562 240,96 240,96 234,95 234,95 234,111.367 234,127.683 234,143  Z"/>

<path  fill="#1F9B5A" stroke-width="0" stroke="#1F9B5A" d = " M330 163 C331.622,163 342.349,170 346,170 346,168.471 348.011,157 349,157 349,157 349,146 349,146 349,146 348,145 348,145 348,145 348,144 348,144 346.814,144 346.814,143 348,143 348,143 347,137 347,137 345.155,137 345.559,133.619 345,132.5 342.74,127.98 339.797,123.297 336,119.5 328.798,112.298 303.312,95 294,95 294,102.723 294,108.007 294,117 297.537,117 302.297,123.399 305.5,125 319.829,132.165 330,147.614 330,163  Z"/>

<path  fill="#3EA666" stroke-width="0" stroke="#3EA666" d = " M213 143 L219,143 C219,127.72 217,112.353 217,96 212.379,96 204.838,104 202,104 202,113.925 202.892,124.284 207,132.5 207,132.5 213,143 213,143  Z"/>

<path  fill="#3EA666" stroke-width="0" stroke="#3EA666" d = " M237 143 L244,143 C244,139.63 247.563,136.374 249,133.5 252.777,125.946 255,113.879 255,105 255,105 255,104 255,104 250.155,104 245.164,96 240,96 240,100.562 240.572,127.357 239,130.5 237.637,133.225 237,140.026 237,143  Z"/>

<path  fill="#40A564" stroke-width="0" stroke="#40A564" d = " M209 143 L213,143 C213,143 207,132.5 207,132.5 202.892,124.284 202,113.925 202,104 202,104 195,111 195,111 195,111 195,119 195,119 195,119 197,125 197,125 197,125 198,126 198,126 198,126 198,127 198,127 198,127 199,128 199,128 199,128 199,129 199,129 199,129 201,131 201,131 201,131 201,132 201,132 202.577,132 203,133.762 203,135 203,135 203,137 203,137 203,137 209,143 209,143  Z"/>

<path  fill="#40A564" stroke-width="0" stroke="#40A564" d = " M244 143 L247,143 C247,143 253,137 253,137 253,137 253,136 253,136 253,136 255,132 255,132 255,132 256,131 256,131 256,131 257,130 257,130 257,130 257,129 257,129 257,129 258,128 258,128 258,128 258,127 258,127 258,127 259,126 259,126 259,126 259,125 259,125 259,125 260,124 260,124 260,124 261,120 261,120 261,116.382 261,113.846 261,111 261,109.37 256.63,105 255,105 255,113.879 252.777,125.946 249,133.5 247.563,136.374 244,139.63 244,143  Z"/>

<path  fill="#1B7F62" stroke-width="0" stroke="#1B7F62" d = " M89 161 L84,162 C84,145.048 88.0354,132.429 95,118.5 96.6484,115.203 101.604,107 105,107 105,107 106,115 106,115 106,115 106,117 106,117 103.204,117 100.891,123.718 100,125.5 95.4098,134.68 89,150.335 89,161  Z"/>

<path  fill="#1B7F62" stroke-width="0" stroke="#1B7F62" d = " M367 161 L372,162 C372,145.348 368.3,133.1 361,118.5 359.951,116.403 354.457,107 352,107 352,107.822 350.689,115 350,115 350,115 350,116 350,116 352.718,116 356.016,124.533 357,126.5 361.878,136.257 367,149.473 367,161  Z"/>

<path  fill="#1E9C58" stroke-width="0" stroke="#1E9C58" d = " M185 110 L176,111 C176,108.344 182.992,109 185,109 185,109 185,110 185,110  Z"/>

<path  fill="#3FA466" stroke-width="0" stroke="#3FA466" d = " M190 113 L191,113 C191,113 191,112 191,112 191,112 185,109 185,109 185,109 185,110 185,110 185,110 190,113 190,113  Z"/>

<path  fill="#3FA466" stroke-width="0" stroke="#3FA466" d = " M271 110 C271,111.473 269.048,111 268,111 268,109.423 269.762,109 271,109 271,109 271,110 271,110  Z"/>

<path  fill="#1E9C58" stroke-width="0" stroke="#1E9C58" d = " M292 118 L294,118 C294,118 294,117 294,117 292.782,117 281.037,109 271,109 271,109 271,110 271,110 274.656,110 292,114.085 292,118  Z"/>

<path  fill="#CACCC7" stroke-width="0" stroke="#CACCC7" d = " M203 135 L203,137 C197.909,137 190.984,121.468 189,117.5 187.538,114.576 174,113.639 174,117 174,117 171,117 171,117 171,117 170,118 170,118 170,118 169,118 169,118 167.855,118 165,118.579 165,117 165,117 176,111 176,111 176,111 185,110 185,110 185,110 190,113 190,113 190,116.716 195.273,125.046 197,128.5 197,128.5 201,133 201,133 201,133 203,135 203,135  Z"/>

<path  fill="#CACCC7" stroke-width="0" stroke="#CACCC7" d = " M255 133 L254,136 C260.073,136 263.692,121.808 267.5,118 269.193,116.307 282,111.918 282,117 282,117 287,118 287,118 287,118 292,118 292,118 292,114.085 274.656,110 271,110 271,111.473 269.048,111 268,111 268,111 267,112 267,112 267,112 267,113 267,113 267,113 265,115 265,115 265,115 260,125 260,125 260,125 259,127 259,127 259,127 258,129 258,129 258,129 257,131 257,131 257,132.747 256.747,133 255,133  Z"/>

<path  fill="#1E9C58" stroke-width="0" stroke="#1E9C58" d = " M165 117 L163,118 C163,118 163,117 163,117 163,117 163,116 163,116 167.47,116 170.538,111 176,111 176,111 165,117 165,117  Z"/>

<path  fill="#2FA850" stroke-width="0" stroke="#2FA850" d = " M191 113 C191,113.853 193.992,119 195,119 195,119 195,111 195,111 195,111 191,112 191,112 191,112 191,113 191,113  Z"/>

<path  fill="#2FA850" stroke-width="0" stroke="#2FA850" d = " M265 115 L261,120 C261,116.382 261,113.846 261,111 261,111 265,113 265,113 265,113 265,115 265,115  Z"/>

<path  fill="#3FA466" stroke-width="0" stroke="#3FA466" d = " M268 111 L267,112 C267,112 268,111 268,111  Z"/>

<path  fill="#3FA466" stroke-width="0" stroke="#3FA466" d = " M266 113 L267,113 C267,113 267,112 267,112 267,112 266,113 266,113  Z"/>

<path  fill="#2FA84F" stroke-width="0" stroke="#2FA84F" d = " M201 132 L201,133 C201,133 197,128.5 197,128.5 195.273,125.046 190,116.716 190,113 190,113 191,113 191,113 191,113.853 193.992,119 195,119 195,119 197,125 197,125 197,125 198,126 198,126 198,126 198,127 198,127 198,127 199,128 199,128 199,128 199,129 199,129 199,129 201,131 201,131 201,131 201,132 201,132  Z"/>

<path  fill="#2FA84F" stroke-width="0" stroke="#2FA84F" d = " M267 113 L265,115 C265,115 265,113 265,113 265,113 266,113 266,113 266,113 267,113 267,113  Z"/>

<path  fill="#CCC7C9" stroke-width="0" stroke="#CCC7C9" d = " M209 143 L210,148 C207.231,148 194.012,130.512 191,127.5 186.981,123.481 183.149,121.324 178.5,119 177.381,118.441 174,118.845 174,117 174,113.639 187.538,114.576 189,117.5 190.984,121.468 197.909,137 203,137 203,137 209,143 209,143  Z"/>

<path  fill="#2FA84F" stroke-width="0" stroke="#2FA84F" d = " M260 124 L260,125 C260,125 265,115 265,115 265,115 261,120 261,120 261,120 260,124 260,124  Z"/>

<path  fill="#CCC7C9" stroke-width="0" stroke="#CCC7C9" d = " M247 143 L247,147 C250.743,147 262.418,130.082 265.5,127 269.223,123.277 274.084,121.208 278.5,119 279.658,118.421 282,119.341 282,117 282,111.918 269.193,116.307 267.5,118 263.692,121.808 260.073,136 254,136 254,136 253,137 253,137 253,137 247,143 247,143  Z"/>

<path  fill="#1B7E63" stroke-width="0" stroke="#1B7E63" d = " M349 157 C355.301,157 360.952,161 367,161 367,149.473 361.878,136.257 357,126.5 356.016,124.533 352.718,116 350,116 348.12,116 350.711,118.079 350,119.5 347.233,125.033 347,131.058 347,137 347,137 348,143 348,143 348,143 348,144 348,144 348,144 348,145 348,145 348,145 349,146 349,146 349,146 349,157 349,157  Z"/>

<path  fill="#1B7E63" stroke-width="0" stroke="#1B7E63" d = " M107 157 C100.708,157 94.3583,161 89,161 89,150.335 95.4098,134.68 100,125.5 100.891,123.718 103.204,117 106,117 106,121.361 110,128.626 110,130.5 110,130.5 108,130.5 108,130.5 108,131.111 109.394,136 110,136 110,136 110,137 110,137 110,137 109,138 109,138 109,138 109,139 109,139 109,139 109,140 109,140 109,140 109,143 109,143 109,143 108,144 108,144 108,144 107,151 107,151 107,151 107,153 107,153 107,153 107,155 107,155 107,155 107,157 107,157  Z"/>

<path  fill="#1D9D5A" stroke-width="0" stroke="#1D9D5A" d = " M163 118 C163,119.411 150.791,127 149,127 149,124.305 160.822,117 163,117 163,117 163,118 163,118  Z"/>

<path  fill="#C9C9CA" stroke-width="0" stroke="#C9C9CA" d = " M129 163 C129,164.321 128.316,169 130,169 130,155.358 135.009,137.245 147.5,131 147.5,131 169,118 169,118 167.855,118 165,118.579 165,117 165,117 163,118 163,118 163,119.411 150.791,127 149,127 149,131.213 137.379,136.743 135,141.5 131.264,148.972 129,153.791 129,163  Z"/>

<path  fill="#CAC7CC" stroke-width="0" stroke="#CAC7CC" d = " M130 171 L133,171 C133,146.185 138.131,143.184 158.5,133 168.419,128.04 195,140.29 195,151 197.832,151 201,158.298 201,161 203.483,161 205.026,161 207,161 207,161 207,160 207,160 207,160 208,159 208,159 208,159 209,154 209,154 209,152.436 210,150.124 210,148 207.231,148 194.012,130.512 191,127.5 186.981,123.481 183.149,121.324 178.5,119 177.381,118.441 174,118.845 174,117 174,117 171,117 171,117 171,117 170,118 170,118 170,118 169,118 169,118 169,118 147.5,131 147.5,131 135.009,137.245 130,155.358 130,169 130,169 130,171 130,171  Z"/>

<path  fill="#CAC7CC" stroke-width="0" stroke="#CAC7CC" d = " M323 171 C324.048,171 326,170.527 326,172 327.714,172 327,166.406 327,165 327,151.348 317.769,134.634 304.5,128 304.5,128 287,118 287,118 287,118 282,117 282,117 282,119.341 279.658,118.421 278.5,119 274.084,121.208 269.223,123.277 265.5,127 262.418,130.082 250.743,147 247,147 247,147 247,155 247,155 247,155 249,159 249,159 249,159 249,161 249,161 250.929,161 252.848,161 255,161 255,159.43 258.795,151 261,151 261,141.369 286.97,127.735 297.5,133 319.811,144.155 323,144.157 323,171  Z"/>

<path  fill="#1D9D5A" stroke-width="0" stroke="#1D9D5A" d = " M328 163 L330,163 C330,147.614 319.829,132.165 305.5,125 302.297,123.399 297.537,117 294,117 294,117 294,118 294,118 294,118 298,121.5 298,121.5 300.895,124.395 307.669,129.084 311.5,131 322.587,136.543 328,152.257 328,163  Z"/>

<path  fill="#C9C9CA" stroke-width="0" stroke="#C9C9CA" d = " M328 163 L327,165 C327,151.348 317.769,134.634 304.5,128 304.5,128 287,118 287,118 287,118 292,118 292,118 292,118 294,118 294,118 294,118 298,121.5 298,121.5 300.895,124.395 307.669,129.084 311.5,131 322.587,136.543 328,152.257 328,163  Z"/>

<path  fill="#40A465" stroke-width="0" stroke="#40A465" d = " M259 125 L260,125 C260,125 260,124 260,124 260,124 259,125 259,125  Z"/>

<path  fill="#40A465" stroke-width="0" stroke="#40A465" d = " M197 125 L198,126 C198,126 197,125 197,125  Z"/>

<path  fill="#2FA84F" stroke-width="0" stroke="#2FA84F" d = " M259 126 L259,127 C259,127 260,125 260,125 260,125 259,125 259,125 259,125 259,126 259,126  Z"/>

<path  fill="#40A465" stroke-width="0" stroke="#40A465" d = " M258 127 L259,127 C259,127 259,126 259,126 259,126 258,127 258,127  Z"/>

<path  fill="#1D9D5A" stroke-width="0" stroke="#1D9D5A" d = " M126 163 L129,163 C129,153.791 131.264,148.972 135,141.5 137.379,136.743 149,131.213 149,127 146.523,127 146.478,129.011 144.5,130 132.74,135.88 126,151.012 126,163  Z"/>

<path  fill="#40A465" stroke-width="0" stroke="#40A465" d = " M198 127 L199,128 C199,128 198,127 198,127  Z"/>

<path  fill="#2FA84F" stroke-width="0" stroke="#2FA84F" d = " M258 128 L258,129 C258,129 259,127 259,127 259,127 258,127 258,127 258,127 258,128 258,128  Z"/>

<path  fill="#40A465" stroke-width="0" stroke="#40A465" d = " M257 129 L258,129 C258,129 258,128 258,128 258,128 257,129 257,129  Z"/>

<path  fill="#40A465" stroke-width="0" stroke="#40A465" d = " M199 129 L201,131 C201,131 199,129 199,129  Z"/>

<path  fill="#2FA84F" stroke-width="0" stroke="#2FA84F" d = " M257 130 L257,131 C257,131 258,129 258,129 258,129 257,129 257,129 257,129 257,130 257,130  Z"/>

<path  fill="#40A465" stroke-width="0" stroke="#40A465" d = " M256 131 L257,131 C257,131 257,130 257,130 257,130 256,131 256,131  Z"/>

<path  fill="#40A465" stroke-width="0" stroke="#40A465" d = " M256 131 L255,132 C255,132 256,131 256,131  Z"/>

<path  fill="#2FA84F" stroke-width="0" stroke="#2FA84F" d = " M255 132 L255,133 C256.747,133 257,132.747 257,131 257,131 256,131 256,131 256,131 255,132 255,132  Z"/>

<path  fill="#40A465" stroke-width="0" stroke="#40A465" d = " M201 133 L203,135 C203,133.762 202.577,132 201,132 201,132 201,133 201,133  Z"/>

<path  fill="#40A465" stroke-width="0" stroke="#40A465" d = " M253 136 L254,136 C254,136 255,133 255,133 255,133 255,132 255,132 255,132 253,136 253,136  Z"/>

<path  fill="#98D5F9" stroke-width="0" stroke="#98D5F9" d = " M147 225 L151,227 C152.606,227 155.339,229.081 157.5,228 162.337,225.582 164.603,216.293 167,211.5 170.775,203.949 181.986,199.257 188.5,196 188.5,196 195,191 195,191 195,191 196,189 196,189 196,189 196,188 196,188 196,188 197,160 197,160 197,156.553 195,153.755 195,151 195,140.29 168.419,128.04 158.5,133 138.131,143.184 133,146.185 133,171 134.149,171 134.508,175.516 135,176.5 138.282,183.065 140,191.168 140,199 140,205.578 143,210.87 143,217 143,217 143,218 143,218 143,218 144,219 144,219 144,219 147,225 147,225  Z"/>

<path  fill="#98D5F9" stroke-width="0" stroke="#98D5F9" d = " M309 225 L305,228 C294.733,228 296.523,223.545 293,216.5 293,216.5 288,209.5 288,209.5 284.565,202.629 273.102,198.801 267.5,196 267.5,196 261,191 261,191 261,191 260,189 260,189 260,189 260,188 260,188 260,178.779 259,168.539 259,160 259.792,160 261,152.013 261,151 261,141.369 286.97,127.735 297.5,133 319.811,144.155 323,144.157 323,171 323,174.466 320.462,177.575 319,180.5 316.328,185.843 317,193.565 317,200 317,204.246 315,207.473 315,212 313.527,212 314,213.952 314,215 314,215 314,216 314,216 314,216 313,217 313,217 313,217 309,225 309,225  Z"/>

<path  fill="#CACCC7" stroke-width="0" stroke="#CACCC7" d = " M254 136 L253,137 C253,137 253,136 253,136 253,136 254,136 254,136  Z"/>

<path  fill="#1E9C5A" stroke-width="0" stroke="#1E9C5A" d = " M110 137 L109,138 C109,138 110,137 110,137  Z"/>

<path  fill="#187D61" stroke-width="0" stroke="#187D61" d = " M109 139 C110.186,139 110.186,140 109,140 109,140 109,139 109,139  Z"/>

<path  fill="#187D61" stroke-width="0" stroke="#187D61" d = " M109 143 L108,144 C108,144 109,143 109,143  Z"/>

<path  fill="#A3DAA3" stroke-width="0" stroke="#A3DAA3" d = " M211 156 C214.743,156 220.314,156 224,156 224,156 225,149 225,149 225,149 225,146 225,146 225,146 224,144 224,144 224,144 224,143 224,143 224,143 222,143 222,143 222,143 219,143 219,143 219,143 213,143 213,143 213,143 209,143 209,143 209,143 210,148 210,148 210,150.124 209,152.436 209,154 209,154 211,156 211,156  Z"/>

<path  fill="#99D2BD" stroke-width="0" stroke="#99D2BD" d = " M233 143 L232,144 C232,144 232,143 232,143 232,143 233,143 233,143  Z"/>

<path  fill="#A3DAA3" stroke-width="0" stroke="#A3DAA3" d = " M233 156 C233,158.811 243.821,156 245,156 245,156 247,155 247,155 247,155 247,147 247,147 247,147 247,143 247,143 247,143 244,143 244,143 244,143 237,143 237,143 237,143 234,143 234,143 234,143 233,143 233,143 233,143 232,144 232,144 232,144 232,145 232,145 232,148.642 233,153.002 233,156  Z"/>

<path  fill="#187D61" stroke-width="0" stroke="#187D61" d = " M348 143 C346.814,143 346.814,144 348,144 348,144 348,143 348,143  Z"/>

<path  fill="#99D2BD" stroke-width="0" stroke="#99D2BD" d = " M224 144 L225,146 C225,146 224,144 224,144  Z"/>

<path  fill="#99D2BD" stroke-width="0" stroke="#99D2BD" d = " M233 156 C228.855,156 231.18,163 229,163 229,158.01 231,154.449 231,150 231,148.765 230.357,145 232,145 232,148.642 233,153.002 233,156  Z"/>

<path  fill="#187D61" stroke-width="0" stroke="#187D61" d = " M348 145 L349,146 C349,146 348,145 348,145  Z"/>

<path  fill="#99D2BD" stroke-width="0" stroke="#99D2BD" d = " M215 177 C215,184.532 239,187.76 239,179 229.191,179 229,177.543 229,168 228.463,168 226,155.406 226,154 226,152.765 226.643,149 225,149 225,149 224,156 224,156 226.565,156 228.435,175.63 227,178.5 225.361,181.778 216.351,177 215,177  Z"/>

<path  fill="#187D61" stroke-width="0" stroke="#187D61" d = " M107 151 C108.399,151 108.399,153 107,153 107,153 107,151 107,151  Z"/>

<path  fill="#AAA8A9" stroke-width="0" stroke="#AAA8A9" d = " M202 174 L201,175 C201,172 200.328,160 197,160 197,156.553 195,153.755 195,151 197.832,151 201,158.298 201,161 201,164.629 202,169.716 202,174  Z"/>

<path  fill="#AAA8A9" stroke-width="0" stroke="#AAA8A9" d = " M255 175 C255,176.145 254.421,179 256,179 256,175.605 255.354,160 259,160 259.792,160 261,152.013 261,151 258.795,151 255,159.43 255,161 255,166.4 255,169.6 255,175  Z"/>

<path  fill="#99D2BD" stroke-width="0" stroke="#99D2BD" d = " M211 156 L208,159 C208,159 209,154 209,154 209,154 211,156 211,156  Z"/>

<path  fill="#187D61" stroke-width="0" stroke="#187D61" d = " M107 157 L108,157 C108,157 107,155 107,155 107,155 107,157 107,157  Z"/>

<path  fill="#99D2BD" stroke-width="0" stroke="#99D2BD" d = " M245 156 L249,159 C249,159 247,155 247,155 247,155 245,156 245,156  Z"/>

<path  fill="#61D09F" stroke-width="0" stroke="#61D09F" d = " M212 174 L215,177 C216.351,177 225.361,181.778 227,178.5 228.435,175.63 226.565,156 224,156 220.314,156 214.743,156 211,156 211,156 208,159 208,159 208,159 207,160 207,160 207,160 207,161 207,161 207,164.942 209,167.745 209,171 209,171 211,173 211,173 211,173 212,174 212,174  Z"/>

<path  fill="#61D09F" stroke-width="0" stroke="#61D09F" d = " M240 178 L239,179 C229.191,179 229,177.543 229,168 229,168 229,163 229,163 231.18,163 228.855,156 233,156 233,158.811 243.821,156 245,156 245,156 249,159 249,159 249,159 249,161 249,161 249,164.702 247,168.27 247,171 247,171 246,172 246,172 246,172 240,178 240,178  Z"/>

<path  fill="#019C75" stroke-width="0" stroke="#019C75" d = " M108 171 L89,179 C89,179 89,161 89,161 94.3583,161 100.708,157 107,157 107,161.351 108,166.131 108,171  Z"/>

<path  fill="#009B74" stroke-width="0" stroke="#009B74" d = " M110 170 L108,171 C108,166.131 107,161.351 107,157 107,157 108,157 108,157 108,160.982 110,165.748 110,170  Z"/>

<path  fill="#009B74" stroke-width="0" stroke="#009B74" d = " M346 170 L349,171 C349,171 349,157 349,157 348.011,157 346,168.471 346,170  Z"/>

<path  fill="#019C75" stroke-width="0" stroke="#019C75" d = " M349 172 C355.727,172 360.621,179 367,179 367,173.193 367,167.206 367,161 360.952,161 355.301,157 349,157 349,157 349,171 349,171 349,171 349,172 349,172  Z"/>

<path  fill="#99D2BD" stroke-width="0" stroke="#99D2BD" d = " M208 159 L207,160 C207,160 208,159 208,159  Z"/>

<path  fill="#A8AAAA" stroke-width="0" stroke="#A8AAAA" d = " M196 188 L198,188 C198,188 199,187 199,187 199,187 199,185 199,185 199,183.952 198.527,182 200,182 200,182 200,181 200,181 200,179.855 199.421,177 201,177 201,177 201,175 201,175 201,172 200.328,160 197,160 197,160 196,188 196,188  Z"/>

<path  fill="#A8AAAA" stroke-width="0" stroke="#A8AAAA" d = " M259 188 L260,188 C260,178.779 259,168.539 259,160 255.354,160 256,175.605 256,179 256,179 256,180 256,180 257.579,180 257,182.855 257,184 257,184 257,186 257,186 257,186 258,187 258,187 258,187 259,188 259,188  Z"/>

<path  fill="#009C74" stroke-width="0" stroke="#009C74" d = " M89 179 L87,180 C87,174.17 84,168.043 84,162 84,162 89,161 89,161 89,161 89,179 89,179  Z"/>

<path  fill="#99D2BD" stroke-width="0" stroke="#99D2BD" d = " M209 171 C205.795,171 203.389,174 202,174 202,169.716 201,164.629 201,161 203.483,161 205.026,161 207,161 207,164.942 209,167.745 209,171  Z"/>

<path  fill="#99D2BD" stroke-width="0" stroke="#99D2BD" d = " M247 171 C251.427,171 254.6,175 255,175 255,169.6 255,166.4 255,161 252.848,161 250.929,161 249,161 249,164.702 247,168.27 247,171  Z"/>

<path  fill="#009C74" stroke-width="0" stroke="#009C74" d = " M367 179 L369,180 C369,174.442 372,168.285 372,162 372,162 367,161 367,161 367,167.206 367,173.193 367,179  Z"/>

<path  fill="#009B75" stroke-width="0" stroke="#009B75" d = " M87 180 L77,183 C77,177.165 74,171.435 74,165 74,165 84,162 84,162 84,168.043 87,174.17 87,180  Z"/>

<path  fill="#009B75" stroke-width="0" stroke="#009B75" d = " M369 180 L379,183 C380.951,183 379.477,180.546 380,179.5 381.765,175.97 383,169.019 383,165 383,165 372,162 372,162 372,168.285 369,174.442 369,180  Z"/>

<path  fill="#1F9766" stroke-width="0" stroke="#1F9766" d = " M131 181 L133,181 C133,181 130,171 130,171 130,171 130,169 130,169 128.316,169 129,164.321 129,163 129,163 126,163 126,163 126,163 126,164 126,164 126.2,164 129,175.916 129,177 129,177 129,178 129,178 129,178 131,180 131,180 131,180 131,181 131,181  Z"/>

<path  fill="#1F9766" stroke-width="0" stroke="#1F9766" d = " M323 181 L325,181 C325,181 326,180 326,180 326,180 327,178 327,178 327,173.206 330,168.262 330,163 330,163 328,163 328,163 328,163 327,165 327,165 327,166.406 327.714,172 326,172 326,174.918 323,178.657 323,181  Z"/>

<path  fill="#209666" stroke-width="0" stroke="#209666" d = " M335 192 L339,193 C339,193 347,182.5 347,182.5 347.68,181.141 347.67,172 349,172 349,172 349,171 349,171 349,171 346,170 346,170 342.349,170 331.622,163 330,163 330,168.262 327,173.206 327,178 328.991,178 329.931,173.716 332.5,175 340.808,179.154 335,186.357 335,192  Z"/>

<path  fill="#209666" stroke-width="0" stroke="#209666" d = " M117 193 L118,193 C119.238,193 121,192.577 121,191 121,185.134 115.936,179.782 123.5,176 123.5,176 126.5,175 126.5,175 127.945,175.723 126.591,177 129,177 129,175.916 126.2,164 126,164 126,164 110,170 110,170 110,170 108,171 108,171 108,183.003 117,190.408 117,193  Z"/>

<path  fill="#009C75" stroke-width="0" stroke="#009C75" d = " M77 184 L73,185 C73,185 69,166 69,166 69,166 73,165 73,165 73,165 74,165 74,165 74,171.435 77,177.165 77,183 77,183 77,184 77,184  Z"/>

<path  fill="#009C75" stroke-width="0" stroke="#009C75" d = " M379 184 L383,185 C383,178.495 387,172.114 387,165 387,165 383,165 383,165 383,169.019 381.765,175.97 380,179.5 379.477,180.546 380.951,183 379,183 379,183 379,184 379,184  Z"/>

<path  fill="#209665" stroke-width="0" stroke="#209665" d = " M117 193 C117,194.186 112.71,195 111.5,195 L96,199 C91.4375,199 89,182.873 89,179 89,179 108,171 108,171 108,183.003 117,190.408 117,193  Z"/>

<path  fill="#C8CBCC" stroke-width="0" stroke="#C8CBCC" d = " M140 199 L138,201 C138,197.599 135.549,183 133,183 133,183 133,181 133,181 133,181 130,171 130,171 130,171 133,171 133,171 134.149,171 134.508,175.516 135,176.5 138.282,183.065 140,191.168 140,199  Z"/>

<path  fill="#97D6F9" stroke-width="0" stroke="#97D6F9" d = " M237 265 L239,266 C239,262.158 239,256.991 239,253 239,253 240,252 240,252 240,252 240,250 240,250 240,247.715 237.36,234 242,234 242,234 242,220 242,220 225.052,220 237.716,184.392 244.5,181 244.5,181 247.5,183 247.5,183 249.993,184.246 254.122,186 257,186 257,186 257,184 257,184 255.421,184 256,181.145 256,180 256,180 256,179 256,179 254.421,179 255,176.145 255,175 254.6,175 251.427,171 247,171 247,171 246,172 246,172 246,172 240,178 240,178 240,178 239,179 239,179 239,187.76 215,184.532 215,177 215,177 212,174 212,174 212,174 211,173 211,173 211,173 209,171 209,171 205.795,171 203.389,174 202,174 202,174 201,175 201,175 201,175 201,177 201,177 201,178.145 201.579,181 200,181 200,181 200,182 200,182 200,182 200,185 200,185 204.386,185 209.581,181 211.5,181 214.904,181 216.142,188.784 217,190.5 220.067,196.633 228.952,214.774 218.5,220 213.495,222.502 216.098,217 213,217 213,221.715 215,227.914 215,234 219.052,234 216,247.165 216,249 216,249 216,250 216,250 216,250 217,251 217,251 217,254.067 217.765,255.029 219,257.5 219,257.5 218,265 218,265 218,265 219,265 219,265 219,265 220,264 220,264 220,264 222,259 222,259 222,259 223,258 223,258 223,258 223,256 223,256 223,256 224,254 224,254 224,254 224,253 224,253 222.242,253 223,245.116 223,243.5 223,235.38 222.503,221.493 226,214.5 228.703,209.094 230.935,217.369 232,219.5 234.249,223.998 233,247.639 233,253 233,253 233,255 233,255 233,255 233,257 233,257 233,257 234,258 234,258 234,258 234,259 234,259 234,259 235,260 235,260 235,260 237,265 237,265  Z"/>

<path  fill="#99D2BD" stroke-width="0" stroke="#99D2BD" d = " M247 171 L246,172 C246,172 247,171 247,171  Z"/>

<path  fill="#C8CBCC" stroke-width="0" stroke="#C8CBCC" d = " M317 200 L318,200 C318,197.846 318.567,189 321,189 321,187.576 321.362,184 323,184 323,184 323,183 323,183 323,183 323,181 323,181 323,178.657 326,174.918 326,172 326,170.527 324.048,171 323,171 323,174.466 320.462,177.575 319,180.5 316.328,185.843 317,193.565 317,200  Z"/>

<path  fill="#209665" stroke-width="0" stroke="#209665" d = " M339 194 C346.826,194 353.127,199 361,199 365.075,199 367,182.875 367,179 360.621,179 355.727,172 349,172 347.67,172 347.68,181.141 347,182.5 347,182.5 339,193 339,193 339,193 339,194 339,194  Z"/>

<path  fill="#99D2BD" stroke-width="0" stroke="#99D2BD" d = " M211 173 L212,174 C212,174 211,173 211,173  Z"/>

<path  fill="#8ADA86" stroke-width="0" stroke="#8ADA86" d = " M133 183 C133,189.423 140.184,195.658 131.5,200 129.383,201.059 128.714,201.107 126.5,200 L121,191 C121,185.134 115.936,179.782 123.5,176 123.5,176 126.5,175 126.5,175 127.945,175.723 126.591,177 129,177 129,177 129,178 129,178 129,178 131,180 131,180 131,180 131,181 131,181 131,181 133,183 133,183  Z"/>

<path  fill="#8ADA86" stroke-width="0" stroke="#8ADA86" d = " M321 189 C321,194.777 321.769,203.865 329.5,200 332.214,198.643 332.493,192 335,192 335,186.357 340.808,179.154 332.5,175 329.931,173.716 328.991,178 327,178 327,178 326,180 326,180 326,180 325,181 325,181 325,181 324,183 324,183 324,183 323,184 323,184 323,185.424 322.638,189 321,189  Z"/>

<path  fill="#AAA8A9" stroke-width="0" stroke="#AAA8A9" d = " M201 177 C199.421,177 200,179.855 200,181 201.579,181 201,178.145 201,177  Z"/>

<path  fill="#209666" stroke-width="0" stroke="#209666" d = " M129 178 L131,180 C131,180 129,178 129,178  Z"/>

<path  fill="#99D2BD" stroke-width="0" stroke="#99D2BD" d = " M240 178 L239,179 C239,179 240,178 240,178  Z"/>

<path  fill="#209765" stroke-width="0" stroke="#209765" d = " M96 200 C91.2775,200 88.4452,203 84,203 84,198.225 77,190.048 77,184 77,184 77,183 77,183 77,183 87,180 87,180 87,180 89,179 89,179 89,182.873 91.4375,199 96,199 96,199 96,200 96,200  Z"/>

<path  fill="#209765" stroke-width="0" stroke="#209765" d = " M372 203 L373,203 C373,196.674 379,190.799 379,184 379,184 379,183 379,183 379,183 369,180 369,180 369,180 367,179 367,179 367,182.875 365.075,199 361,199 361,199 361,200 361,200 361,200 372,203 372,203  Z"/>

<path  fill="#AAA8A9" stroke-width="0" stroke="#AAA8A9" d = " M256 180 C257.579,180 257,182.855 257,184 255.421,184 256,181.145 256,180  Z"/>

<path  fill="#209666" stroke-width="0" stroke="#209666" d = " M326 180 L325,181 C325,181 326,180 326,180  Z"/>

<path  fill="#209666" stroke-width="0" stroke="#209666" d = " M133 181 L133,183 C133,183 131,181 131,181 131,181 133,181 133,181  Z"/>

<path  fill="#90CAED" stroke-width="0" stroke="#90CAED" d = " M213 215 L213,217 C216.098,217 213.495,222.502 218.5,220 228.952,214.774 220.067,196.633 217,190.5 216.142,188.784 214.904,181 211.5,181 209.581,181 204.386,185 200,185 200,189.384 203,192.678 203,196 203,196 203,197 203,197 203,197 205,199 205,199 205,199 205,200 205,200 206.577,200 207,201.762 207,203 207,203 207,204 207,204 207,204 208,205 208,205 208,205 208,206 208,206 208,206 209,207 209,207 209,207 210,210 210,210 210,210 211,211 211,211 211,211 211,213 211,213 211,213 213,215 213,215  Z"/>

<path  fill="#90CAED" stroke-width="0" stroke="#90CAED" d = " M243 219 L242,220 C225.052,220 237.716,184.392 244.5,181 244.5,181 247.5,183 247.5,183 249.993,184.246 254.122,186 257,186 257,186 257,187 257,187 257,187 255,194 255,194 253.423,194 253,195.762 253,197 253,197 252,199 252,199 252,199 251,200 251,200 251,200 251,201 251,201 251,201 250,202 250,202 250,202 249,203 249,203 249,203 249,205 249,205 249,205 248,206 248,206 248,206 247,209 247,209 247,209 246,210 246,210 246,210 246,211 246,211 246,211 245,212 245,212 245,212 245,213 245,213 245,213 244,215 244,215 244,215 243,216 243,216 243,216 243,219 243,219  Z"/>

<path  fill="#209666" stroke-width="0" stroke="#209666" d = " M323 183 L324,183 C324,183 325,181 325,181 325,181 323,181 323,181 323,181 323,183 323,183  Z"/>

<path  fill="#AAA8A9" stroke-width="0" stroke="#AAA8A9" d = " M199 185 L200,185 C200,185 200,182 200,182 198.527,182 199,183.952 199,185  Z"/>

<path  fill="#1F9866" stroke-width="0" stroke="#1F9866" d = " M125 208 L126,208 C126,208 127,207 127,207 128.904,207 132.57,202 137,202 137,202 138,201 138,201 138,197.599 135.549,183 133,183 133,189.423 140.184,195.658 131.5,200 129.383,201.059 128.714,201.107 126.5,200 126.5,200 121,191 121,191 121,192.577 119.238,193 118,193 118,193 125,208 125,208  Z"/>

<path  fill="#1F9866" stroke-width="0" stroke="#1F9866" d = " M324 183 L323,184 C323,184 323,183 323,183 323,183 324,183 324,183  Z"/>

<path  fill="#209764" stroke-width="0" stroke="#209764" d = " M84 203 L81,205 C81,205 78.5,201 78.5,201 78.5,201 73,185 73,185 73,185 77,184 77,184 77,190.048 84,198.225 84,203  Z"/>

<path  fill="#1F9866" stroke-width="0" stroke="#1F9866" d = " M323 184 C321.362,184 321,187.576 321,189 322.638,189 323,185.424 323,184  Z"/>

<path  fill="#209764" stroke-width="0" stroke="#209764" d = " M373 203 L375,205 C376.333,205 383,187.784 383,185 383,185 379,184 379,184 379,190.799 373,196.674 373,203  Z"/>

<path  fill="#97D6F9" stroke-width="0" stroke="#97D6F9" d = " M195 191 C199.615,191 199.919,196 203,196 203,192.678 200,189.384 200,185 200,185 199,185 199,185 199,185 199,187 199,187 199,187 198,188 198,188 198,188 196,189 196,189 196,189 195,191 195,191  Z"/>

<path  fill="#AAA8A9" stroke-width="0" stroke="#AAA8A9" d = " M257 187 L258,187 C258,187 257,186 257,186 257,186 257,187 257,187  Z"/>

<path  fill="#AAA8A9" stroke-width="0" stroke="#AAA8A9" d = " M199 187 L198,188 C198,188 199,187 199,187  Z"/>

<path  fill="#97D6F9" stroke-width="0" stroke="#97D6F9" d = " M261 191 C258.187,191 257.079,194 255,194 255,194 257,187 257,187 257,187 258,187 258,187 258,187 259,188 259,188 259,188 260,189 260,189 260,189 261,191 261,191  Z"/>

<path  fill="#AAA8A9" stroke-width="0" stroke="#AAA8A9" d = " M198 188 L196,189 C196,189 196,188 196,188 196,188 198,188 198,188  Z"/>

<path  fill="#AAA8A9" stroke-width="0" stroke="#AAA8A9" d = " M260 188 L260,189 C260,189 259,188 259,188 259,188 260,188 260,188  Z"/>

<path  fill="#1F9866" stroke-width="0" stroke="#1F9866" d = " M319 202 C324.452,202 328.306,208 331,208 331,208 333,205.5 333,205.5 333.917,203.666 336.77,194 339,194 339,194 339,193 339,193 339,193 335,192 335,192 332.493,192 332.214,198.643 329.5,200 321.769,203.865 321,194.777 321,189 318.567,189 318,197.846 318,200 318,200 319,202 319,202  Z"/>

<path  fill-rule="evenodd" fill="#80CDF8" stroke-width="0" stroke="#80CDF8" d = " M176 210 C176,210.669 169.857,216.785 169,218.5 167.279,221.942 173.58,226.46 176.5,225 182.279,222.11 183.36,210 176,210  M215 234 C215,259.948 182.802,269.151 162.5,259 159.53,257.515 156.605,255.711 155,252.5 154.341,251.181 155.334,247 153,247 153,247 153,230.5 153,230.5 153,230.5 151,227 151,227 152.606,227 155.339,229.081 157.5,228 162.337,225.582 164.603,216.293 167,211.5 170.775,203.949 181.986,199.257 188.5,196 188.5,196 195,191 195,191 199.615,191 199.919,196 203,196 203,196 203,197 203,197 203,197 205,199 205,199 205,199 205,200 205,200 205,200 207,203 207,203 207,203 207,204 207,204 207,204 208,205 208,205 208,205 208,206 208,206 208,206 209,207 209,207 209,207 210,210 210,210 210,210 211,211 211,211 211,211 211,213 211,213 211,213 213,215 213,215 213,215 213,217 213,217 213,221.715 215,227.914 215,234  Z"/>

<path  fill-rule="evenodd" fill="#80CDF8" stroke-width="0" stroke="#80CDF8" d = " M279 210 C279,211.549 275,212.459 275,215.5 275,234.617 296.181,219.34 283.5,213 281.804,212.152 281.974,210 279,210  M242 234 C242,250.568 262.839,270.331 279.5,262 285.61,258.945 303,261.529 303,247 303,247 303,232.5 303,232.5 303,232.5 305,228 305,228 294.733,228 296.523,223.545 293,216.5 293,216.5 288,209.5 288,209.5 284.565,202.629 273.102,198.801 267.5,196 267.5,196 261,191 261,191 258.187,191 257.079,194 255,194 255,195.238 254.577,197 253,197 253,197 252,199 252,199 252,199 251,200 251,200 251,200 251,201 251,201 251,201 250,202 250,202 250,202 249,203 249,203 249,203 249,205 249,205 249,205 248,206 248,206 248,206 247,209 247,209 247,209 246,210 246,210 246,210 246,211 246,211 246,211 245,212 245,212 245,212 245,213 245,213 245,213 244,215 244,215 244,215 243,216 243,216 243,216 243,219 243,219 243,219 242,220 242,220 242,220 242,234 242,234  Z"/>

<path  fill="#1F9865" stroke-width="0" stroke="#1F9865" d = " M117 211 C114.876,211 112.564,212 111,212 111,207.615 101.128,204.314 98.5,203 98.5,203 96,200 96,200 96,200 96,199 96,199 96,199 111.5,195 111.5,195 112.71,195 117,194.186 117,193 117,193 118,193 118,193 118,193 125,208 125,208 123.754,208 117,209.554 117,211  Z"/>

<path  fill="#97D6F9" stroke-width="0" stroke="#97D6F9" d = " M255 194 C253.423,194 253,195.762 253,197 254.577,197 255,195.238 255,194  Z"/>

<path  fill="#1F9865" stroke-width="0" stroke="#1F9865" d = " M340 211 C342.124,211 344.436,212 346,212 346,209.849 359.604,200 361,200 361,200 361,199 361,199 353.127,199 346.826,194 339,194 336.77,194 333.917,203.666 333,205.5 333,205.5 331,208 331,208 332.458,208 340,209.314 340,211  Z"/>

<path  fill="#97D6F9" stroke-width="0" stroke="#97D6F9" d = " M203 197 L205,199 C205,199 203,197 203,197  Z"/>

<path  fill="#97D6F9" stroke-width="0" stroke="#97D6F9" d = " M253 197 L252,199 C252,199 253,197 253,197  Z"/>

<path  fill="#8AD987" stroke-width="0" stroke="#8AD987" d = " M137 202 L139,203.5 C140.037,205.574 140.156,217 143,217 143,210.87 140,205.578 140,199 140,199 138,201 138,201 138,201 137,202 137,202  Z"/>

<path  fill="#97D6F9" stroke-width="0" stroke="#97D6F9" d = " M252 199 L251,200 C251,200 252,199 252,199  Z"/>

<path  fill="#219764" stroke-width="0" stroke="#219764" d = " M111 212 L93,216 C93,216 84,203 84,203 88.4452,203 91.2775,200 96,200 96,200 98.5,203 98.5,203 101.128,204.314 111,207.615 111,212  Z"/>

<path  fill="#97D6F9" stroke-width="0" stroke="#97D6F9" d = " M205 200 C206.577,200 207,201.762 207,203 207,203 205,200 205,200  Z"/>

<path  fill="#8AD987" stroke-width="0" stroke="#8AD987" d = " M319 202 C319,202.825 315.395,212 315,212 315,207.473 317,204.246 317,200 317,200 318,200 318,200 318,200 319,202 319,202  Z"/>

<path  fill="#219764" stroke-width="0" stroke="#219764" d = " M346 212 L364,216 C364,216 372,203 372,203 372,203 361,200 361,200 359.604,200 346,209.849 346,212  Z"/>

<path  fill="#97D6F9" stroke-width="0" stroke="#97D6F9" d = " M251 201 L250,202 C250,202 251,201 251,201  Z"/>

<path  fill="#A0EE9C" stroke-width="0" stroke="#A0EE9C" d = " M133 225 C134.39,225 147,230.298 147,225 147,225 144,219 144,219 144,219 143,218 143,218 143,218 143,217 143,217 140.156,217 140.037,205.574 139,203.5 139,203.5 137,202 137,202 132.57,202 128.904,207 127,207 127,207 126,208 126,208 126,210.259 122.325,213.151 124,216.5 124,216.5 129,223 129,223 129,223 130,223 130,223 130,223 132,225 132,225 132,225 133,225 133,225  Z"/>

<path  fill="#97D6F9" stroke-width="0" stroke="#97D6F9" d = " M250 202 L249,203 C249,203 250,202 250,202  Z"/>

<path  fill="#A0EE9C" stroke-width="0" stroke="#A0EE9C" d = " M323 225 L324,225 C324,225 325,224 325,224 325,224 326,224 326,224 326,224 327,223 327,223 327,223 328,222 328,222 328,222 330,221 330,221 330,221 331,219 331,219 331,219 332,218 332,218 332,218 333,216 333,216 333,212.646 331,210.709 331,208 328.306,208 324.452,202 319,202 319,202.825 315.395,212 315,212 315,213.048 315.473,215 314,215 314,215 314,216 314,216 314,216 313,217 313,217 313,217 309,225 309,225 309,228.224 317.784,227 320,227 320,225.423 321.762,225 323,225  Z"/>

<path  fill="#209864" stroke-width="0" stroke="#209864" d = " M93 216 L87,217 C87,217 81,205 81,205 81,205 84,203 84,203 84,203 93,216 93,216  Z"/>

<path  fill="#209864" stroke-width="0" stroke="#209864" d = " M364 216 L369,217 C369,213.128 375,209.647 375,205 375,205 373,203 373,203 373,203 372,203 372,203 372,203 364,216 364,216  Z"/>

<path  fill="#97D6F9" stroke-width="0" stroke="#97D6F9" d = " M207 204 L208,205 C208,205 207,204 207,204  Z"/>

<path  fill="#97D6F9" stroke-width="0" stroke="#97D6F9" d = " M249 205 L248,206 C248,206 249,205 249,205  Z"/>

<path  fill="#97D6F9" stroke-width="0" stroke="#97D6F9" d = " M208 206 L209,207 C209,207 208,206 208,206  Z"/>

<path  fill="#99D2BD" stroke-width="0" stroke="#99D2BD" d = " M127 207 L126,208 C126,208 127,207 127,207  Z"/>

<path  fill="#99D2BD" stroke-width="0" stroke="#99D2BD" d = " M117 211 C123.321,211 123.35,223 129,223 129,223 124,216.5 124,216.5 122.325,213.151 126,210.259 126,208 126,208 125,208 125,208 123.754,208 117,209.554 117,211  Z"/>

<path  fill="#99D2BD" stroke-width="0" stroke="#99D2BD" d = " M340 211 C336.733,211 334.636,216 333,216 333,212.646 331,210.709 331,208 332.458,208 340,209.314 340,211  Z"/>

<path  fill="#97D6F9" stroke-width="0" stroke="#97D6F9" d = " M247 209 L246,210 C246,210 247,209 247,209  Z"/>

<path  fill="#CBCBC7" stroke-width="0" stroke="#CBCBC7" d = " M176 210 C176,210.669 169.857,216.785 169,218.5 167.279,221.942 173.58,226.46 176.5,225 182.279,222.11 183.36,210 176,210  Z"/>

<path  fill="#97D6F9" stroke-width="0" stroke="#97D6F9" d = " M210 210 L211,211 C211,211 210,210 210,210  Z"/>

<path  fill="#CBCBC7" stroke-width="0" stroke="#CBCBC7" d = " M279 210 C279,211.549 275,212.459 275,215.5 275,234.617 296.181,219.34 283.5,213 281.804,212.152 281.974,210 279,210  Z"/>

<path  fill="#6ACAB9" stroke-width="0" stroke="#6ACAB9" d = " M131 257 L132,257 C132,257 142,253 142,253 142,249.338 152.048,245.595 148,237.5 145.522,232.544 140.579,231.079 137,227.5 137,227.5 133,225 133,225 133,225 132,225 132,225 132,225 130,223 130,223 130,223 129,223 129,223 123.35,223 123.321,211 117,211 114.876,211 112.564,212 111,212 111,212 93,216 93,216 93,216 87,217 87,217 87,221.58 103.464,245 109,245 114.496,245 119.896,248.698 124.5,251 124.5,251 131,257 131,257  Z"/>

<path  fill="#97D6F9" stroke-width="0" stroke="#97D6F9" d = " M246 211 L245,212 C245,212 246,211 246,211  Z"/>

<path  fill="#6ACAB9" stroke-width="0" stroke="#6ACAB9" d = " M324 257 L326,257 C326,253.378 336.123,249.189 338.5,248 339.759,247.37 347,243.071 347,245 353.041,245 369,223.219 369,217 369,217 364,216 364,216 364,216 346,212 346,212 344.436,212 342.124,211 340,211 336.733,211 334.636,216 333,216 333,216 332,218 332,218 332,218 331,219 331,219 331,219 330,221 330,221 330,221 328,222 328,222 328,222 327,223 327,223 327,223 326,224 326,224 326,224 325,224 325,224 325,224 324,225 324,225 324,225 323,225 323,225 323,226.577 321.238,227 320,227 320,227 316,229.5 316,229.5 312.795,232.705 310.042,234.416 308,238.5 304.726,245.048 314,248.521 314,253 317.645,253 320.777,257 324,257  Z"/>

<path  fill="#8AD987" stroke-width="0" stroke="#8AD987" d = " M315 212 C313.527,212 314,213.952 314,215 315.473,215 315,213.048 315,212  Z"/>

<path  fill="#97D6F9" stroke-width="0" stroke="#97D6F9" d = " M211 213 L213,215 C213,215 211,213 211,213  Z"/>

<path  fill="#96A6D3" stroke-width="0" stroke="#96A6D3" d = " M232 253 L233,253 C233,247.639 234.249,223.998 232,219.5 230.935,217.369 228.703,209.094 226,214.5 222.503,221.493 223,235.38 223,243.5 223,245.116 222.242,253 224,253 224,253 225,253 225,253 225,253 226.5,251 226.5,251 230.57,246.93 228.237,253 232,253  Z"/>

<path  fill="#97D6F9" stroke-width="0" stroke="#97D6F9" d = " M245 213 L244,215 C244,215 245,213 245,213  Z"/>

<path  fill="#97D6F9" stroke-width="0" stroke="#97D6F9" d = " M244 215 L243,216 C243,216 244,215 244,215  Z"/>

<path  fill="#8AD987" stroke-width="0" stroke="#8AD987" d = " M314 216 L313,217 C313,217 314,216 314,216  Z"/>

<path  fill="#99D2BD" stroke-width="0" stroke="#99D2BD" d = " M333 216 L332,218 C332,218 333,216 333,216  Z"/>

<path  fill="#8AD987" stroke-width="0" stroke="#8AD987" d = " M143 218 L144,219 C144,219 143,218 143,218  Z"/>

<path  fill="#99D2BD" stroke-width="0" stroke="#99D2BD" d = " M332 218 L331,219 C331,219 332,218 332,218  Z"/>

<path  fill="#97D6F9" stroke-width="0" stroke="#97D6F9" d = " M243 219 L242,220 C242,220 243,219 243,219  Z"/>

<path  fill="#99D2BD" stroke-width="0" stroke="#99D2BD" d = " M331 219 L330,221 C330,221 331,219 331,219  Z"/>

<path  fill="#99D2BD" stroke-width="0" stroke="#99D2BD" d = " M328 222 L327,223 C327,223 328,222 328,222  Z"/>

<path  fill="#99D2BD" stroke-width="0" stroke="#99D2BD" d = " M130 223 L132,225 C132,225 130,223 130,223  Z"/>

<path  fill="#99D2BD" stroke-width="0" stroke="#99D2BD" d = " M327 223 L326,224 C326,224 327,223 327,223  Z"/>

<path  fill="#99D2BD" stroke-width="0" stroke="#99D2BD" d = " M325 224 L324,225 C324,225 325,224 325,224  Z"/>

<path  fill="#99D2BD" stroke-width="0" stroke="#99D2BD" d = " M142 253 L145,253 C145,253 153,247 153,247 153,247 153,230.5 153,230.5 153,230.5 151,227 151,227 151,227 147,225 147,225 147,230.298 134.39,225 133,225 133,225 137,227.5 137,227.5 140.579,231.079 145.522,232.544 148,237.5 152.048,245.595 142,249.338 142,253  Z"/>

<path  fill="#99D2BD" stroke-width="0" stroke="#99D2BD" d = " M312 253 L314,253 C314,248.521 304.726,245.048 308,238.5 310.042,234.416 312.795,232.705 316,229.5 316,229.5 320,227 320,227 317.784,227 309,228.224 309,225 309,225 305,228 305,228 305,228 303,232.5 303,232.5 303,232.5 303,247 303,247 303,247 312,253 312,253  Z"/>

<path  fill="#99D2BD" stroke-width="0" stroke="#99D2BD" d = " M323 225 C321.762,225 320,225.423 320,227 321.238,227 323,226.577 323,225  Z"/>

<path  fill="#A2B1D7" stroke-width="0" stroke="#A2B1D7" d = " M216 249 C212.246,249 213.004,253.748 210.5,255 L199.5,265 L190.5,269 C179.983,274.259 145,261.559 145,253 145,253 153,247 153,247 155.334,247 154.341,251.181 155,252.5 156.605,255.711 159.53,257.515 162.5,259 182.802,269.151 215,259.948 215,234 219.052,234 216,247.165 216,249  Z"/>

<path  fill="#A2B1D7" stroke-width="0" stroke="#A2B1D7" d = " M240 250 C245.582,250 252.858,263.679 259.5,267 269.351,271.926 300.396,268.709 305,259.5 L312,253 C312,253 303,247 303,247 303,261.529 285.61,258.945 279.5,262 262.839,270.331 242,250.568 242,234 237.36,234 240,247.715 240,250  Z"/>

<path  fill="#CAC8C7" stroke-width="0" stroke="#CAC8C7" d = " M326 257 C326,258.235 325.357,262 327,262 328.922,262 347,247.3 347,245 347,243.071 339.759,247.37 338.5,248 336.123,249.189 326,253.378 326,257  Z"/>

<path  fill="#CAC8C7" stroke-width="0" stroke="#CAC8C7" d = " M131 261 L129,262 C126.709,262 109,246.289 109,245 114.496,245 119.896,248.698 124.5,251 124.5,251 131,257 131,257 131,257 131,259 131,259 131,259 131,261 131,261  Z"/>

<path  fill="#7FCCF7" stroke-width="0" stroke="#7FCCF7" d = " M215 271 L214,272 C214,277.185 203.66,284.92 199.5,287 199.5,287 193.5,288 193.5,288 188.435,290.532 180.452,286.524 175.5,289 164.012,294.744 144.803,287.105 139,275.5 137.709,272.919 132,269.969 132,266 132,266 131,265 131,265 131,265 131,264 131,264 131,264 131,261 131,261 131,261 131,259 131,259 131,259 132,257 132,257 132,257 142,253 142,253 142,253 145,253 145,253 145,261.559 179.983,274.259 190.5,269 190.5,269 199.5,265 199.5,265 199.5,265 210.5,255 210.5,255 213.004,253.748 212.246,249 216,249 216,249 216,250 216,250 216,250 217,251 217,251 217,254.067 217.765,255.029 219,257.5 219,257.5 218,265 218,265 218,265 217,267 217,267 217,267 217,268 217,268 215.423,268 215,269.762 215,271  Z"/>

<path  fill="#7FCCF7" stroke-width="0" stroke="#7FCCF7" d = " M239 266 L243,273 C243,280.455 258.163,285.831 262.5,288 267.565,290.532 275.548,286.524 280.5,289 290.476,293.988 309.95,288.6 315,278.5 317.151,274.199 325,269.958 325,265 325,262.293 324,259.097 324,257 320.777,257 317.645,253 314,253 314,253 312,253 312,253 312,253 305,259.5 305,259.5 300.396,268.709 269.351,271.926 259.5,267 252.858,263.679 245.582,250 240,250 240,250 240,252 240,252 240,252 239,253 239,253 239,256.991 239,262.158 239,266  Z"/>

<path  fill="#A2B1D7" stroke-width="0" stroke="#A2B1D7" d = " M216 250 L217,251 C217,251 216,250 216,250  Z"/>

<path  fill="#A2B1D7" stroke-width="0" stroke="#A2B1D7" d = " M240 252 L239,253 C239,253 240,252 240,252  Z"/>

<path  fill="#8599CC" stroke-width="0" stroke="#8599CC" d = " M225 253 L224,254 C224,254 224,253 224,253 224,253 225,253 225,253  Z"/>

<path  fill="#8599CC" stroke-width="0" stroke="#8599CC" d = " M233 253 L233,255 C233,255 232,253 232,253 232,253 233,253 233,253  Z"/>

<path  fill="#8599CC" stroke-width="0" stroke="#8599CC" d = " M224 254 L223,256 C223,256 224,254 224,254  Z"/>

<path  fill="#99D2BD" stroke-width="0" stroke="#99D2BD" d = " M132 257 L131,259 C131,259 131,257 131,257 131,257 132,257 132,257  Z"/>

<path  fill="#8599CC" stroke-width="0" stroke="#8599CC" d = " M233 257 L234,258 C234,258 233,257 233,257  Z"/>

<path  fill="#99D2BD" stroke-width="0" stroke="#99D2BD" d = " M327 262 L325,265 C325,262.293 324,259.097 324,257 324,257 326,257 326,257 326,258.235 325.357,262 327,262  Z"/>

<path  fill="#8599CC" stroke-width="0" stroke="#8599CC" d = " M223 258 L222,259 C222,259 223,258 223,258  Z"/>

<path  fill="#8599CC" stroke-width="0" stroke="#8599CC" d = " M234 259 L235,260 C235,260 234,259 234,259  Z"/>

<path  fill="#99D2BD" stroke-width="0" stroke="#99D2BD" d = " M129 262 L131,264 C131,264 131,261 131,261 131,261 129,262 129,262  Z"/>

<path  fill="#8599CC" stroke-width="0" stroke="#8599CC" d = " M220 264 L219,265 C219,265 220,264 220,264  Z"/>

<path  fill="#97D6F9" stroke-width="0" stroke="#97D6F9" d = " M131 265 L132,266 C132,266 131,265 131,265  Z"/>

<path  fill="#97D6F9" stroke-width="0" stroke="#97D6F9" d = " M217 267 L218,267 C218,267 218,265 218,265 218,265 217,267 217,267  Z"/>

<path  fill="#8599CC" stroke-width="0" stroke="#8599CC" d = " M219 265 L218,267 C218,267 218,265 218,265 218,265 219,265 219,265  Z"/>

<path  fill="#8599CC" stroke-width="0" stroke="#8599CC" d = " M239 266 L243,273 C241.197,273 237,266.505 237,265 237,265 239,266 239,266  Z"/>

<path  fill="#8599CC" stroke-width="0" stroke="#8599CC" d = " M218 267 L217,268 C217,268 217,267 217,267 217,267 218,267 218,267  Z"/>

<path  fill="#8599CC" stroke-width="0" stroke="#8599CC" d = " M217 268 C215.423,268 215,269.762 215,271 216.577,271 217,269.238 217,268  Z"/>

<path  fill="#8599CC" stroke-width="0" stroke="#8599CC" d = " M215 271 L214,272 C214,272 215,271 215,271  Z"/>

</g>
</svg>
