<svg xmlns="http://www.w3.org/2000/svg" xmlns:xlink="http://www.w3.org/1999/xlink"  viewBox="0 0 456 320">
<g>
<rect width="456" height="320" fill="#000000"  stroke-width="0" /> 
<path  fill="#1E9C59" stroke-width="0" stroke="#1E9C59" d = " M226 55 L222,58 C222,55.0238 218.266,53.0318 217,50.5 210.308,37.1159 190.805,45 180,45 180,45 179,45 179,45 179,43.4363 180,41.1236 180,39 193.976,39 212.809,32.1174 221,48.5 222.304,51.1076 226,51.797 226,55  Z"/>

<path  fill="#1E9C59" stroke-width="0" stroke="#1E9C59" d = " M230 55 C230,57.3926 233.234,58 235,58 235,54.4589 237.52,51.9803 240,49.5 251.295,38.2049 263.675,45 277,45 277,42.2802 277,41.4471 277,39 263.946,39 244.048,32.4043 237,46.5 236.092,48.3155 230,52.1482 230,55  Z"/>

<path  fill="#1E9D5A" stroke-width="0" stroke="#1E9D5A" d = " M127 58 L127,64 C127,64 137.5,59 137.5,59 146.257,54.6214 156.676,53.4119 165.5,49 167.501,47.9993 179,47.6086 179,45 179,43.4363 180,41.1236 180,39 173.775,39 145.831,49.8344 139.5,53 137.725,53.8875 127,56.0934 127,58  Z"/>

<path  fill="#1E9D5A" stroke-width="0" stroke="#1E9D5A" d = " M329 58 C329,60.8129 330,61.9214 330,64 326.122,64 321.826,60.6628 318.5,59 318.5,59 277,45 277,45 277,42.2802 277,41.4471 277,39 281.935,39 311.044,50.2721 316.5,53 318.349,53.9245 329,55.7579 329,58  Z"/>

<path  fill-rule="evenodd" fill="#1E9D58" stroke-width="0" stroke="#1E9D58" d = " M196 51 C196,52.93 197.93,51 196,51  M179 61 C180.28,61 191.504,54.998 193.5,54 196.61,52.4451 207.886,53.6931 210.5,55 L216,61 C216,61 222,58 222,58 222,55.0238 218.266,53.0318 217,50.5 210.308,37.1159 190.805,45 180,45 180,49.9925 179,54.8108 179,61  Z"/>

<path  fill="#1E9D58" stroke-width="0" stroke="#1E9D58" d = " M278 61 L272.5,58 C263.592,53.5462 253.683,52.4085 244.5,57 243.023,57.7387 241,59.7634 241,62 241,62 235,59 235,59 235,59 235,58 235,58 235,54.4589 237.52,51.9803 240,49.5 251.295,38.2049 263.675,45 277,45 277,50.6047 278,55.8607 278,61  Z"/>

<path  fill="#1F9C58" stroke-width="0" stroke="#1F9C58" d = " M126 80 L126,87 C129.451,87 133.468,82.5158 136.5,81 146.876,75.8118 158.169,72.1654 168.5,67 171.374,65.563 174.63,62 178,62 178,62 179,61 179,61 179,54.8108 180,49.9925 180,45 180,45 179,45 179,45 179,47.6086 167.501,47.9993 165.5,49 156.676,53.4119 146.257,54.6214 137.5,59 137.5,59 127,64 127,64 127,64 126,65 126,65 126,65 126,80 126,80  Z"/>

<path  fill="#1F9C58" stroke-width="0" stroke="#1F9C58" d = " M330 87 L331,87 C331,85.6152 329.516,80 331,80 331,74.2105 331,70.5798 331,65 331,65 330,64 330,64 326.122,64 321.826,60.6628 318.5,59 318.5,59 277,45 277,45 277,50.6047 278,55.8607 278,61 278,61 279,62 279,62 282.288,62 284.71,65.6048 287.5,67 296.707,71.6037 307.253,74.3764 316.5,79 316.5,79 330,87 330,87  Z"/>

<path  fill="#1F9C58" stroke-width="0" stroke="#1F9C58" d = " M196 51 C196,52.93 197.93,51 196,51  Z"/>

<path  fill="#1F9D58" stroke-width="0" stroke="#1F9D58" d = " M201 74 C198.14,74 194.126,70.1872 190.5,72 L176,80 C176,80 178,62 178,62 178,62 179,61 179,61 180.28,61 191.504,54.998 193.5,54 196.61,52.4451 207.886,53.6931 210.5,55 210.5,55 216,61 216,61 216,61 216,62 216,62 211.53,62 204.437,74 201,74  Z"/>

<path  fill="#1F9D58" stroke-width="0" stroke="#1F9D58" d = " M255 74 C258.027,74 261.821,70.1605 265.5,72 269.561,74.0306 276.461,80 281,80 281,80 279,74.5 279,74.5 278.574,73.6484 279,64.6209 279,62 279,62 278,61 278,61 278,61 272.5,58 272.5,58 263.592,53.5462 253.683,52.4085 244.5,57 243.023,57.7387 241,59.7634 241,62 244.997,62 252.481,74 255,74  Z"/>

<path  fill="#3EA665" stroke-width="0" stroke="#3EA665" d = " M222 86 C225.251,86 230.749,86 234,86 234,86 234,65.5 234,65.5 234,64.1367 233.3,59 235,59 235,59 235,58 235,58 233.234,58 230,57.3926 230,55 230,55 228.5,58 228.5,58 228.5,58 226,55 226,55 226,55 222,58 222,58 222,67.0555 222,76.6608 222,86  Z"/>

<path  fill="#197E64" stroke-width="0" stroke="#197E64" d = " M102 71 L105,75 C105,75 126,65 126,65 126,65 127,64 127,64 127,64 127,58 127,58 119.87,58 105.326,71 102,71  Z"/>

<path  fill="#40A565" stroke-width="0" stroke="#40A565" d = " M222 86 L217,87 C217,78.7257 216,69.6148 216,62 216,62 216,61 216,61 216,61 222,58 222,58 222,67.0555 222,76.6608 222,86  Z"/>

<path  fill="#197E64" stroke-width="0" stroke="#197E64" d = " M354 71 L351,75 C351,75 331,65 331,65 331,65 330,64 330,64 330,61.9214 329,60.8129 329,58 332.322,58 354,68.9545 354,71  Z"/>

<path  fill="#40A565" stroke-width="0" stroke="#40A565" d = " M234 86 L239,87 C239,87 239,66.5 239,66.5 239,66.5 241,62 241,62 241,62 235,59 235,59 233.3,59 234,64.1367 234,65.5 234,65.5 234,86 234,86  Z"/>

<path  fill="#1E9C5A" stroke-width="0" stroke="#1E9C5A" d = " M125 89 C125,92.3024 125,97.6673 125,103 125,103 135.5,97 135.5,97 135.5,97 167.5,85 167.5,85 170.04,83.7299 173.089,80 176,80 176,80 178,62 178,62 174.63,62 171.374,65.563 168.5,67 158.169,72.1654 146.876,75.8118 136.5,81 133.468,82.5158 129.451,87 126,87 126,87 126,88 126,88 126,88 125,89 125,89  Z"/>

<path  fill="#3EA566" stroke-width="0" stroke="#3EA566" d = " M217 87 C212.826,87 206.428,94 204,94 204,94 203,78.5 203,78.5 203,78.5 201,75 201,75 201,75 201,74 201,74 204.437,74 211.53,62 216,62 216,69.6148 217,78.7257 217,87  Z"/>

<path  fill="#3EA566" stroke-width="0" stroke="#3EA566" d = " M239 87 C244.232,87 248.366,94 253,94 253,87.3641 255,80.6287 255,75 255,75 255,74 255,74 252.481,74 244.997,62 241,62 241,62 239,66.5 239,66.5 239,66.5 239,87 239,87  Z"/>

<path  fill="#1E9C5A" stroke-width="0" stroke="#1E9C5A" d = " M330 87 C330,91.4685 331,98.0134 331,102 331,102 281,81 281,81 281,81 281,80 281,80 281,80 279,74.5 279,74.5 278.574,73.6484 279,64.6209 279,62 282.288,62 284.71,65.6048 287.5,67 296.707,71.6037 307.253,74.3764 316.5,79 316.5,79 330,87 330,87  Z"/>

<path  fill="#1E9D5A" stroke-width="0" stroke="#1E9D5A" d = " M127 64 L126,65 C126,65 127,64 127,64  Z"/>

<path  fill="#197F61" stroke-width="0" stroke="#197F61" d = " M111 87 L113,87 C113,84.766 123.971,80 126,80 126,80 126,65 126,65 126,65 105,75 105,75 105,75 105,76 105,76 105,78.6609 111,82.5426 111,87  Z"/>

<path  fill="#197F61" stroke-width="0" stroke="#197F61" d = " M343 87 L345,87 C345,82.509 351,79.7819 351,76 351,76 351,75 351,75 351,75 331,65 331,65 331,70.5798 331,74.2105 331,80 331,82.5859 343,82.8172 343,87  Z"/>

<path  fill="#187E61" stroke-width="0" stroke="#187E61" d = " M58 140 L63,141 C63,126.686 79.8145,91.8428 93.5,85 97.4843,83.0079 100.433,76 105,76 105,76 105,75 105,75 105,75 102,71 102,71 99.2339,71 87.6292,81.8708 85,84.5 73.3524,96.1476 58,123.989 58,140  Z"/>

<path  fill="#187E61" stroke-width="0" stroke="#187E61" d = " M398 140 L393,141 C393,122.615 380.523,102.023 367.5,89 364.023,85.5228 355.711,76 351,76 351,76 351,75 351,75 351,75 354,71 354,71 359.149,71 363.878,79.1892 367.5,81 380.785,87.6423 398,124.152 398,140  Z"/>

<path  fill="#1D9C5A" stroke-width="0" stroke="#1D9C5A" d = " M175 101 L177,101 C177,99.1878 187.142,97 189,97 189,90.8853 201,76.6707 201,75 201,75 201,74 201,74 198.14,74 194.126,70.1872 190.5,72 190.5,72 176,80 176,80 176,86.4449 175,93.9477 175,101  Z"/>

<path  fill="#1D9C5A" stroke-width="0" stroke="#1D9C5A" d = " M267 97 C272.214,97 276.201,101 281,101 281,93.9475 281,88.5294 281,81 281,81 281,80 281,80 276.461,80 269.561,74.0306 265.5,72 261.821,70.1605 258.027,74 255,74 255,74 255,75 255,75 258.294,75 267,93.5674 267,97  Z"/>

<path  fill="#3FA664" stroke-width="0" stroke="#3FA664" d = " M194 103 L195,103 C195,101.833 202.086,94 204,94 204,94 203,78.5 203,78.5 203,78.5 201,75 201,75 201,76.6707 189,90.8853 189,97 189,97 189,98 189,98 191.362,98 194,100.638 194,103  Z"/>

<path  fill="#3FA664" stroke-width="0" stroke="#3FA664" d = " M262 102 L263,102 C263,99.7736 264.774,98 267,98 267,98 267,97 267,97 267,93.5674 258.294,75 255,75 255,80.6287 253,87.3641 253,94 253,94 253,95 253,95 253,95 262,102 262,102  Z"/>

<path  fill="#1A7E64" stroke-width="0" stroke="#1A7E64" d = " M63 142 L73,145 C73,130.134 82.8191,118.862 89,106.5 89,106.5 97,96.5 97,96.5 98.2941,93.9117 111,87.3484 111,87 111,82.5426 105,78.6609 105,76 100.433,76 97.4843,83.0079 93.5,85 79.8145,91.8428 63,126.686 63,141 63,141 63,142 63,142  Z"/>

<path  fill="#1A7E64" stroke-width="0" stroke="#1A7E64" d = " M393 142 L384,145 C384,131.421 373.722,118.945 368,107.5 368,107.5 362,100.5 362,100.5 360.243,96.9851 348.554,87 345,87 345,82.509 351,79.7819 351,76 355.711,76 364.023,85.5228 367.5,89 380.523,102.023 393,122.615 393,141 393,141 393,142 393,142  Z"/>

<path  fill="#1A7F63" stroke-width="0" stroke="#1A7F63" d = " M125 89 L117,93 C115.383,93 113,88.417 113,87 113,84.766 123.971,80 126,80 126,80 126,87 126,87 126,87 126,88 126,88 126,88 125,89 125,89  Z"/>

<path  fill="#1F9B5A" stroke-width="0" stroke="#1F9B5A" d = " M127 125 L128,125 C130.46,125 132.17,121 135,121 135,118.605 147.71,113 150,113 150,110.891 152.535,111 154,111 154,109.155 157.381,109.559 158.5,109 162.642,106.929 167.083,103 172,103 172,103 175,101 175,101 175,93.9477 176,86.4449 176,80 173.089,80 170.04,83.7299 167.5,85 167.5,85 135.5,97 135.5,97 135.5,97 125,103 125,103 125,103 125,104 125,104 125,111.008 127,117.291 127,125  Z"/>

<path  fill="#1A7F63" stroke-width="0" stroke="#1A7F63" d = " M343 87 L340,93 C338.346,93 331,88.7719 331,87 331,85.6152 329.516,80 331,80 331,82.5859 343,82.8172 343,87  Z"/>

<path  fill="#1F9B5A" stroke-width="0" stroke="#1F9B5A" d = " M331 105 C331,113.169 329,117.527 329,125 324.751,125 320.215,118.857 316.5,117 311.074,114.287 285.322,101 281,101 281,93.9475 281,88.5294 281,81 281,81 331,102 331,102 331,102 332,103 332,103 332,103 332,104 332,104 332,104 331,105 331,105  Z"/>

<path  fill="#40A664" stroke-width="0" stroke="#40A664" d = " M227 115 C224.382,115 223.907,119 222,119 222,108.213 222,97.4373 222,86 225.251,86 230.749,86 234,86 234,86 234,119 234,119 234,119 229,114 229,114 229,110.781 227,112.918 227,115  Z"/>

<path  fill="#3FA566" stroke-width="0" stroke="#3FA566" d = " M221 123 L218,124 C218,124 217,87 217,87 217,87 222,86 222,86 222,97.4373 222,108.213 222,119 222,119 221,123 221,123  Z"/>

<path  fill="#3FA566" stroke-width="0" stroke="#3FA566" d = " M236 123 L238,124 C238,112.389 239,99.2715 239,87 239,87 234,86 234,86 234,86 234,119 234,119 234,119 236,123 236,123  Z"/>

<path  fill="#1B7F62" stroke-width="0" stroke="#1B7F62" d = " M73 145 L80,147 C80,137.887 94.2504,109.125 102.5,105 107.47,102.515 111.159,94 117,94 117,94 117,93 117,93 115.383,93 113,88.417 113,87 113,87 111,87 111,87 111,87.3484 98.2941,93.9117 97,96.5 97,96.5 89,106.5 89,106.5 82.8191,118.862 73,130.134 73,145  Z"/>

<path  fill="#3EA666" stroke-width="0" stroke="#3EA666" d = " M209 120 C209,122.645 215.992,124 218,124 218,124 217,87 217,87 212.826,87 206.428,94 204,94 204,94 205,109.5 205,109.5 205,109.5 209,120 209,120  Z"/>

<path  fill="#3EA666" stroke-width="0" stroke="#3EA666" d = " M247 121 C244.374,121 241.543,124 238,124 238,112.389 239,99.2715 239,87 244.232,87 248.366,94 253,94 253,94 253,95 253,95 253,103.65 248,111.938 248,120 248,120 247,121 247,121  Z"/>

<path  fill="#187E62" stroke-width="0" stroke="#187E62" d = " M332 103 L333,103 C333,103 340,94 340,94 340,94 340,93 340,93 338.346,93 331,88.7719 331,87 331,87 330,87 330,87 330,91.4685 331,98.0134 331,102 331,102 332,103 332,103  Z"/>

<path  fill="#1B7F62" stroke-width="0" stroke="#1B7F62" d = " M384 145 L377,147 C377,137.249 359.434,106.967 351.5,103 348.428,101.464 344.505,94 340,94 340,94 340,93 340,93 340,93 343,87 343,87 343,87 345,87 345,87 348.554,87 360.243,96.9851 362,100.5 362,100.5 368,107.5 368,107.5 373.722,118.945 384,131.421 384,145  Z"/>

<path  fill="#187E62" stroke-width="0" stroke="#187E62" d = " M126 88 L125,89 C125,89 126,88 126,88  Z"/>

<path  fill="#187E62" stroke-width="0" stroke="#187E62" d = " M124 103 L125,103 C125,97.6673 125,92.3024 125,89 125,89 117,93 117,93 117,93 117,94 117,94 117,94 124,103 124,103  Z"/>

<path  fill="#1B7E63" stroke-width="0" stroke="#1B7E63" d = " M87 166 L91,166 C91,166 91,165 91,165 91,149.954 92.8242,137.852 99,125.5 100.372,122.756 103.991,120.519 105,118.5 107.688,113.124 118.127,104 124,104 124,104 124,103 124,103 124,103 117,94 117,94 111.159,94 107.47,102.515 102.5,105 94.2504,109.125 80,137.887 80,147 86.4476,147 87,154.741 87,158.5 87,160.339 85.9043,166 87,166  Z"/>

<path  fill="#40A564" stroke-width="0" stroke="#40A564" d = " M206 119 L209,120 C209,120 205,109.5 205,109.5 205,109.5 204,94 204,94 202.086,94 195,101.833 195,103 195,109.398 205,111.774 205,117 205,117 206,119 206,119  Z"/>

<path  fill="#1B7E63" stroke-width="0" stroke="#1B7E63" d = " M366 166 L369,166 C371.751,166 368.613,162.274 369,161.5 371.059,157.382 367.967,147 377,147 377,137.249 359.434,106.967 351.5,103 348.428,101.464 344.505,94 340,94 340,94 333,103 333,103 333,103 333,104 333,104 336.807,104 345.432,111.932 348.5,115 362.293,128.793 366,146.504 366,166  Z"/>

<path  fill="#40A564" stroke-width="0" stroke="#40A564" d = " M251 119 L248,120 C248,111.938 253,103.65 253,95 253,95 262,102 262,102 262,102 262,103 262,103 262,103 259,109 259,109 256.927,109 252,115.148 252,117 252,117 251,119 251,119  Z"/>

<path  fill="#1E9C58" stroke-width="0" stroke="#1E9C58" d = " M189 99 C184.354,99 181.499,101 177,101 177,99.1878 187.142,97 189,97 189,97 189,98 189,98 189,98 189,99 189,99  Z"/>

<path  fill="#1E9C58" stroke-width="0" stroke="#1E9C58" d = " M281 101 L281,102 C276.395,102 273.01,99 268,99 268,99 267,98 267,98 267,98 267,97 267,97 272.214,97 276.201,101 281,101  Z"/>

<path  fill="#3FA466" stroke-width="0" stroke="#3FA466" d = " M189 99 C191.732,99 191.259,103 194,103 194,100.638 191.362,98 189,98 189,98 189,99 189,99  Z"/>

<path  fill="#3FA466" stroke-width="0" stroke="#3FA466" d = " M268 99 C265.636,99 264.947,102 263,102 263,99.7736 264.774,98 267,98 267,98 268,99 268,99  Z"/>

<path  fill="#CACCC7" stroke-width="0" stroke="#CACCC7" d = " M205 117 L206,119 C193.121,119 194.128,97.1861 178.5,105 177.181,105.659 173,104.666 173,107 173,107 171,107 171,107 171,107 170,108 170,108 170,108 169,108 169,108 169,108 168,109 168,109 168,109 167,109 167,109 167,109 163,109 163,109 163,105.199 172,106.397 172,103 172,103 175,103 175,103 175,103 177,101 177,101 181.499,101 184.354,99 189,99 191.732,99 191.259,103 194,103 194,107.087 201.33,117 205,117  Z"/>

<path  fill="#CACCC7" stroke-width="0" stroke="#CACCC7" d = " M252 117 L251,119 C259.695,119 262.043,106.729 269.5,103 272.091,101.705 283,104.998 283,107 283,107 286,107 286,107 286,107 288,109 288,109 288,109 290,109 290,109 290,109 294,109 294,109 294,104.76 281,104.922 281,102 276.395,102 273.01,99 268,99 265.636,99 264.947,102 263,102 263,102 263,103 263,103 263,104.417 260.617,109 259,109 259,110.852 254.073,117 252,117  Z"/>

<path  fill="#1D9D5A" stroke-width="0" stroke="#1D9D5A" d = " M172 103 L175,103 C175,103 175,101 175,101 175,101 172,103 172,103  Z"/>

<path  fill="#1E9C58" stroke-width="0" stroke="#1E9C58" d = " M177 101 L175,103 C175,103 175,101 175,101 175,101 177,101 177,101  Z"/>

<path  fill="#1D9D5A" stroke-width="0" stroke="#1D9D5A" d = " M329 126 L329,127 C325.652,127 304.583,110 297,110 297,110 295,109 295,109 295,109 294,109 294,109 294,104.76 281,104.922 281,102 281,102 281,101 281,101 285.322,101 311.074,114.287 316.5,117 320.215,118.857 324.751,125 329,125 329,125 329,126 329,126  Z"/>

<path  fill="#3FA466" stroke-width="0" stroke="#3FA466" d = " M262 103 L263,103 C263,103 263,102 263,102 263,102 262,102 262,102 262,102 262,103 262,103  Z"/>

<path  fill="#197D61" stroke-width="0" stroke="#197D61" d = " M124 104 L125,104 C125,104 125,103 125,103 125,103 124,103 124,103 124,103 124,104 124,104  Z"/>

<path  fill="#1D9D5A" stroke-width="0" stroke="#1D9D5A" d = " M160 110 L154,111 C154,109.155 157.381,109.559 158.5,109 162.642,106.929 167.083,103 172,103 172,106.397 163,105.199 163,109 163,109 162,109 162,109 162,109 160,110 160,110  Z"/>

<path  fill="#C9C7C9" stroke-width="0" stroke="#C9C7C9" d = " M236 123 L238,124 C241.543,124 244.374,121 247,121 247,121 248,120 248,120 248,120 251,119 251,119 259.695,119 262.043,106.729 269.5,103 272.091,101.705 283,104.998 283,107 283,109.207 277.824,107.338 276.5,108 272.924,109.788 269.138,111.181 265.5,113 265.5,113 254.5,123 254.5,123 243.743,128.378 223.486,133.993 211.5,128 198.831,121.665 188.214,107 173,107 173,104.666 177.181,105.659 178.5,105 194.128,97.1861 193.121,119 206,119 206,119 209,120 209,120 209,122.645 215.992,124 218,124 218,124 221,123 221,123 221,128.147 227.803,123 228.5,123 228.5,123 229.5,125 229.5,125 232.356,126.428 234.053,123 236,123  Z"/>

<path  fill="#40A465" stroke-width="0" stroke="#40A465" d = " M195 103 C195,109.398 205,111.774 205,117 201.33,117 194,107.087 194,103 194,103 195,103 195,103  Z"/>

<path  fill="#40A465" stroke-width="0" stroke="#40A465" d = " M263 103 C263,104.417 260.617,109 259,109 259,109 262,103 262,103 262,103 263,103 263,103  Z"/>

<path  fill="#197D61" stroke-width="0" stroke="#197D61" d = " M332 104 L333,104 C333,104 333,103 333,103 333,103 332,103 332,103 332,103 332,104 332,104  Z"/>

<path  fill="#187D61" stroke-width="0" stroke="#187D61" d = " M106 164 C101.179,164 95.0305,165 91,165 91,149.954 92.8242,137.852 99,125.5 100.372,122.756 103.991,120.519 105,118.5 107.688,113.124 118.127,104 124,104 124,104 125,104 125,104 125,111.008 127,117.291 127,125 127,125 127,127 127,127 119.259,127 106,156.134 106,163 106,163 106,164 106,164  Z"/>

<path  fill="#197D61" stroke-width="0" stroke="#197D61" d = " M332 104 L331,105 C331,105 332,104 332,104  Z"/>

<path  fill="#187D61" stroke-width="0" stroke="#187D61" d = " M351 164 L366,166 C366,146.504 362.293,128.793 348.5,115 345.432,111.932 336.807,104 333,104 333,104 332,104 332,104 332,104 331,105 331,105 331,113.169 329,117.527 329,125 329,125 329,126 329,126 329,126 337,134.5 337,134.5 341.633,143.767 351,151.75 351,163 351,163 351,164 351,164  Z"/>

<path  fill="#C9C9CA" stroke-width="0" stroke="#C9C9CA" d = " M171 107 L170,108 C170,108 171,107 171,107  Z"/>

<path  fill="#CCC7C9" stroke-width="0" stroke="#CCC7C9" d = " M346 169 L349,169 C349,169 349,167 349,167 348.094,167 345,153.608 345,152 345,152 345,151 345,151 342.87,151 341.728,144.956 341,143.5 341,143.5 320.5,123 320.5,123 320.5,123 296.5,112 296.5,112 295.235,111.368 290,110.722 290,109 290,109 288,109 288,109 288,109 286,107 286,107 286,107 283,107 283,107 283,109.207 277.824,107.338 276.5,108 272.924,109.788 269.138,111.181 265.5,113 265.5,113 254.5,123 254.5,123 243.743,128.378 223.486,133.993 211.5,128 198.831,121.665 188.214,107 173,107 173,107 171,107 171,107 171,107 170,108 170,108 170,108 169,108 169,108 169,108 168,109 168,109 168,109 167,109 167,109 167,110.722 161.765,111.368 160.5,112 153.709,115.395 146.285,117.607 139.5,121 133.592,123.954 127.909,129.591 123,134.5 123,134.5 117,141 117,141 117,142.238 116.577,144 115,144 115,144 114,146 114,146 114,146 113,148 113,148 113,149.424 112.638,153 111,153 111,154.357 110.353,159 109,159 109,160.321 109.684,165 108,165 108,165 108,169 108,169 108,169 110,169 110,169 110,150.312 123.949,133.276 140.5,125 147.477,121.512 156.576,122.462 163.5,119 167.677,116.912 181.083,119.291 184.5,121 184.5,121 189,125 189,125 191.26,125 209,135.633 209,138 209,138 217.5,143 217.5,143 223.892,146.196 226.444,141 228.5,141 228.5,141 230.5,144 230.5,144 235.563,146.532 243.914,138 247,138 247,138 248,137 248,137 248,135.423 249.762,135 251,135 251,133.869 265.277,125 267,125 267,125 271.5,121 271.5,121 275.006,119.247 289.284,116.892 293.5,119 293.5,119 315.5,125 315.5,125 331.934,133.217 346,148.764 346,169  Z"/>

<path  fill="#C9C9CA" stroke-width="0" stroke="#C9C9CA" d = " M286 107 L288,109 C288,109 286,107 286,107  Z"/>

<path  fill="#C9C9CA" stroke-width="0" stroke="#C9C9CA" d = " M169 108 L168,109 C168,109 169,108 169,108  Z"/>

<path  fill="#CACCC7" stroke-width="0" stroke="#CACCC7" d = " M162 109 L160,110 C160,110 162,109 162,109  Z"/>

<path  fill="#C9C9CA" stroke-width="0" stroke="#C9C9CA" d = " M127 127 L128,127 C129.884,127 135,122.557 135,121 137.29,121 150,115.395 150,113 151.465,113 154,113.109 154,111 154,111 160,110 160,110 160,110 162,109 162,109 162,109 163,109 163,109 163,109 167,109 167,109 167,110.722 161.765,111.368 160.5,112 153.709,115.395 146.285,117.607 139.5,121 133.592,123.954 127.909,129.591 123,134.5 123,134.5 117,141 117,141 117,134.967 127,131.515 127,127  Z"/>

<path  fill="#40A465" stroke-width="0" stroke="#40A465" d = " M259 109 C256.927,109 252,115.148 252,117 254.073,117 259,110.852 259,109  Z"/>

<path  fill="#C9C9CA" stroke-width="0" stroke="#C9C9CA" d = " M329 127 C329,131.387 345,142.578 345,151 342.87,151 341.728,144.956 341,143.5 341,143.5 320.5,123 320.5,123 320.5,123 296.5,112 296.5,112 295.235,111.368 290,110.722 290,109 290,109 294,109 294,109 294,109 295,109 295,109 295,109 297,110 297,110 304.583,110 325.652,127 329,127  Z"/>

<path  fill="#CACCC7" stroke-width="0" stroke="#CACCC7" d = " M295 109 L297,110 C297,110 295,109 295,109  Z"/>

<path  fill="#1D9D5A" stroke-width="0" stroke="#1D9D5A" d = " M154 111 C152.535,111 150,110.891 150,113 151.465,113 154,113.109 154,111  Z"/>

<path  fill="#1D9D5A" stroke-width="0" stroke="#1D9D5A" d = " M150 113 C147.71,113 135,118.605 135,121 137.29,121 150,115.395 150,113  Z"/>

<path  fill="#7ED04B" stroke-width="0" stroke="#7ED04B" d = " M221 123 C221,128.147 227.803,123 228.5,123 L229.5,125 C232.356,126.428 234.053,123 236,123 236,123 234,119 234,119 234,119 229,114 229,114 229,116.729 228.577,115 227,115 224.382,115 223.907,119 222,119 222,119 221,123 221,123  Z"/>

<path  fill="#98D5F9" stroke-width="0" stroke="#98D5F9" d = " M127 227 L132.5,232 L136,234 C144.208,234 162.23,238.04 167,228.5 172.357,217.786 173.604,207.948 185.5,202 185.5,202 190,199 190,199 190,199 191,198 191,198 191,194.508 193,190.291 193,187 193,187 193,178 193,178 193,178 194,176 194,176 194,176 194,172 194,172 194,172 195,171 195,171 195,171 195,166 195,166 195,166 196,165 196,165 196,165 196,164 196,164 196,164 196,163 196,163 196,158.404 199.369,149.238 197,144.5 195.473,141.446 192,133.192 192,130 192,130 189,125 189,125 189,125 184.5,121 184.5,121 181.083,119.291 167.677,116.912 163.5,119 156.576,122.462 147.477,121.512 140.5,125 123.949,133.276 110,150.312 110,169 110,179.325 111.743,188.985 116,197.5 116,197.5 117,207.5 117,207.5 117,207.5 119,213 119,213 119,213 119,214 119,214 119,214 119,215 119,215 119,215 121,218 121,218 121,218 121,219 121,219 121,219 122,220 122,220 122,220 125,225 125,225 125,225 127,227 127,227  Z"/>

<path  fill="#98D5F9" stroke-width="0" stroke="#98D5F9" d = " M326 231 L320,234 C309.117,234 293.458,238.416 287,225.5 282.44,216.381 283.433,208.466 272.5,203 272.5,203 266,199 266,199 266,199 265,198 265,198 265,195.912 264.682,185 263,185 263,185 263,177 263,177 263,177 263,175 263,175 263,175 262,173 262,173 262,173 261,165 261,165 261,159.435 257.141,147.219 260,141.5 261.125,139.249 265,132.215 265,130 265,130 267,125 267,125 267,125 271.5,121 271.5,121 275.006,119.247 289.284,116.892 293.5,119 293.5,119 315.5,125 315.5,125 331.934,133.217 346,148.764 346,169 346,184.318 339,194.894 339,209 337.986,209 337,212.959 337,214 337,214 337,215 337,215 337,215 337,216 337,216 337,216 336,217 336,217 336,217 336,218 336,218 336,218 335,219 335,219 335,219 335,220 335,220 335,220 334,221 334,221 334,221 333,222 333,222 333,222 333,223 333,223 333,223 332,224 332,224 332,224 331,225 331,225 331,225 331,226 331,226 331,226 330,227 330,227 330,227 329,228 329,228 329,228 326,231 326,231  Z"/>

<path  fill="#40A564" stroke-width="0" stroke="#40A564" d = " M248 120 L247,121 C247,121 248,120 248,120  Z"/>

<path  fill="#1D9D5A" stroke-width="0" stroke="#1D9D5A" d = " M128 125 L128,127 C129.884,127 135,122.557 135,121 132.17,121 130.46,125 128,125  Z"/>

<path  fill="#188064" stroke-width="0" stroke="#188064" d = " M127 127 L128,127 C128,127 128,125 128,125 128,125 127,125 127,125 127,125 127,127 127,127  Z"/>

<path  fill="#AAA8A9" stroke-width="0" stroke="#AAA8A9" d = " M192 130 C192,126.826 195.956,130.728 196.5,131 199.242,132.371 206.091,138 209,138 209,135.633 191.26,125 189,125 189,125 192,130 192,130  Z"/>

<path  fill="#AAA8A9" stroke-width="0" stroke="#AAA8A9" d = " M265 130 C259.958,130 256.365,135 251,135 251,133.869 265.277,125 267,125 267,125 265,130 265,130  Z"/>

<path  fill="#188064" stroke-width="0" stroke="#188064" d = " M349 163 L351,163 C351,151.75 341.633,143.767 337,134.5 337,134.5 329,126 329,126 329,126 329,127 329,127 329,131.387 345,142.578 345,151 345,151 345,152 345,152 347.087,152 349,160.909 349,163  Z"/>

<path  fill="#188064" stroke-width="0" stroke="#188064" d = " M106 163 L108,163 C108,161.855 107.421,159 109,159 109,157.377 109.005,153 111,153 111,151.576 111.362,148 113,148 113,148 114,146 114,146 114,146 115,144 115,144 115,142.762 115.423,141 117,141 117,134.967 127,131.515 127,127 119.259,127 106,156.134 106,163  Z"/>

<path  fill="#A8AAAA" stroke-width="0" stroke="#A8AAAA" d = " M196 163 L197,163 C197,163 197,162 197,162 197,162 198,161 198,161 198,161 199,159 199,159 199,159 200,158 200,158 200,158 201,157 201,157 201,152.105 207.871,146.757 210,142.5 210,142.5 209,138 209,138 206.091,138 199.242,132.371 196.5,131 195.956,130.728 192,126.826 192,130 192,133.192 195.473,141.446 197,144.5 199.369,149.238 196,158.404 196,163  Z"/>

<path  fill="#A8AAAA" stroke-width="0" stroke="#A8AAAA" d = " M259 161 L261,165 C261,159.435 257.141,147.219 260,141.5 261.125,139.249 265,132.215 265,130 259.958,130 256.365,135 251,135 251,136.577 249.238,137 248,137 248,137 247,138 247,138 247,148.629 259,156.431 259,161  Z"/>

<path  fill="#AAA8A9" stroke-width="0" stroke="#AAA8A9" d = " M251 135 C249.762,135 248,135.423 248,137 249.238,137 251,136.577 251,135  Z"/>

<path  fill="#AAA8A9" stroke-width="0" stroke="#AAA8A9" d = " M248 137 L247,138 C247,138 248,137 248,137  Z"/>

<path  fill="#97D6F9" stroke-width="0" stroke="#97D6F9" d = " M226 178 C227.71,178 226.344,173.922 228.5,175 L231,179 C231,179 229,155 229,155 229,155 229.5,147 229.5,147 231.451,146.025 235.876,150.188 237.5,151 241.656,153.078 247.221,152.86 251.5,155 251.5,155 259,161 259,161 259,156.431 247,148.629 247,138 243.914,138 235.563,146.532 230.5,144 230.5,144 228.5,141 228.5,141 226.444,141 223.892,146.196 217.5,143 217.5,143 209,138 209,138 209,138 210,142.5 210,142.5 207.871,146.757 201,152.105 201,157 201,157 214.5,151 214.5,151 214.5,151 221.5,150 221.5,150 221.5,150 226.5,147 226.5,147 226.5,147 227,154.5 227,154.5 227,154.5 226,178 226,178  Z"/>

<path  fill="#1A7E62" stroke-width="0" stroke="#1A7E62" d = " M63 173 L58,174 C58,162.832 58,150.987 58,140 58,140 63,141 63,141 63,141 63,142 63,142 63,151.32 63,162.727 63,172 63,172 63,173 63,173  Z"/>

<path  fill="#1A7E62" stroke-width="0" stroke="#1A7E62" d = " M394 173 L398,174 C398,169.396 397.941,159.617 400,155.5 401.666,152.169 398,143.516 398,140 398,140 393,141 393,141 393,141 393,142 393,142 393,143.906 394.099,148.698 395,150.5 397.8,156.101 394,167.325 394,173  Z"/>

<path  fill="#C9C9CA" stroke-width="0" stroke="#C9C9CA" d = " M117 141 C115.423,141 115,142.762 115,144 116.577,144 117,142.238 117,141  Z"/>

<path  fill="#1B8063" stroke-width="0" stroke="#1B8063" d = " M71 171 L63,172 C63,162.727 63,151.32 63,142 63,142 73,145 73,145 73,152.787 71,161.293 71,170 71,170 71,171 71,171  Z"/>

<path  fill="#1B8063" stroke-width="0" stroke="#1B8063" d = " M393 173 L394,173 C394,167.325 397.8,156.101 395,150.5 394.099,148.698 393,143.906 393,142 393,142 384,145 384,145 384,152.96 385,161.499 385,170 385,170 385,171 385,171 386.775,171 393,171.069 393,173  Z"/>

<path  fill="#C9C9CA" stroke-width="0" stroke="#C9C9CA" d = " M115 144 L114,146 C114,146 115,144 115,144  Z"/>

<path  fill="#187C63" stroke-width="0" stroke="#187C63" d = " M77 169 L71,170 C71,161.293 73,152.787 73,145 73,145 80,147 80,147 80,154.093 77,161.34 77,169  Z"/>

<path  fill="#187C63" stroke-width="0" stroke="#187C63" d = " M379 169 L385,170 C385,161.499 384,152.96 384,145 384,145 377,147 377,147 377,154.475 379,161.038 379,169  Z"/>

<path  fill="#C9C9CA" stroke-width="0" stroke="#C9C9CA" d = " M114 146 L113,148 C113,148 114,146 114,146  Z"/>

<path  fill="#1C8063" stroke-width="0" stroke="#1C8063" d = " M87 166 C87,166.586 78.1667,169 77,169 77,161.34 80,154.093 80,147 86.4476,147 87,154.741 87,158.5 87,160.339 85.9043,166 87,166  Z"/>

<path  fill="#90CAED" stroke-width="0" stroke="#90CAED" d = " M211 209 C211,211.879 214.967,216.767 218.5,215 L221,211 C221,200.557 225,191.549 225,181 225,179.952 224.527,178 226,178 226,178 227,154.5 227,154.5 227,154.5 226.5,147 226.5,147 226.5,147 221.5,150 221.5,150 221.5,150 214.5,151 214.5,151 214.5,151 201,157 201,157 201,157 200,158 200,158 200,158 199,159 199,159 199,159 198,161 198,161 198,161 197,162 197,162 197,162 197,163 197,163 197,163 196,164 196,164 196,164 196,165 196,165 196,165 195,166 195,166 195,166 195,171 195,171 195,171 194,172 194,172 194,172 194,176 194,176 194,176 194,177 194,177 194,177 196.5,175 196.5,175 202.253,177.876 210.079,189.658 213,195.5 214.015,197.53 213.552,209 211,209  Z"/>

<path  fill="#90CAED" stroke-width="0" stroke="#90CAED" d = " M245 209 C245,212.207 241.375,216.938 237.5,215 L235,210 C235,198.999 231,189.955 231,179 231,179 229,155 229,155 229,155 229.5,147 229.5,147 231.451,146.025 235.876,150.188 237.5,151 241.656,153.078 247.221,152.86 251.5,155 251.5,155 259,161 259,161 259,161 261,165 261,165 261,165 262,173 262,173 262,173 263,175 263,175 263,175 263,177 263,177 263,177 259.5,175 259.5,175 253.859,177.821 245.473,192.553 243,197.5 241.008,201.484 245,206.202 245,209  Z"/>

<path  fill="#1C8063" stroke-width="0" stroke="#1C8063" d = " M369 166 C369,166.274 378.071,169 379,169 379,161.038 377,154.475 377,147 367.967,147 371.059,157.382 369,161.5 368.613,162.274 371.751,166 369,166  Z"/>

<path  fill="#C9C9CA" stroke-width="0" stroke="#C9C9CA" d = " M113 148 C111.362,148 111,151.576 111,153 112.638,153 113,149.424 113,148  Z"/>

<path  fill="#C9C9CA" stroke-width="0" stroke="#C9C9CA" d = " M349 163 L349,167 C348.094,167 345,153.608 345,152 347.087,152 349,160.909 349,163  Z"/>

<path  fill="#C9C9CA" stroke-width="0" stroke="#C9C9CA" d = " M111 153 C109.005,153 109,157.377 109,159 110.353,159 111,154.357 111,153  Z"/>

<path  fill="#97D6F9" stroke-width="0" stroke="#97D6F9" d = " M201 157 L200,158 C200,158 201,157 201,157  Z"/>

<path  fill="#97D6F9" stroke-width="0" stroke="#97D6F9" d = " M200 158 L199,159 C199,159 200,158 200,158  Z"/>

<path  fill="#C9C9CA" stroke-width="0" stroke="#C9C9CA" d = " M108 163 L108,165 C109.684,165 109,160.321 109,159 107.421,159 108,161.855 108,163  Z"/>

<path  fill="#97D6F9" stroke-width="0" stroke="#97D6F9" d = " M199 159 L198,161 C198,161 199,159 199,159  Z"/>

<path  fill="#97D6F9" stroke-width="0" stroke="#97D6F9" d = " M198 161 L197,162 C197,162 198,161 198,161  Z"/>

<path  fill="#019C74" stroke-width="0" stroke="#019C74" d = " M109 177 L107,178 C107,178 106,164 106,164 106,164 106,163 106,163 106,163 108,163 108,163 108,163 108,165 108,165 108,165 108,169 108,169 108,169 109,177 109,177  Z"/>

<path  fill="#97D6F9" stroke-width="0" stroke="#97D6F9" d = " M197 163 L196,164 C196,164 196,163 196,163 196,163 197,163 197,163  Z"/>

<path  fill="#019C74" stroke-width="0" stroke="#019C74" d = " M348 177 L349,177 C350.682,177 351,166.088 351,164 351,164 351,163 351,163 351,163 349,163 349,163 349,163 349,167 349,167 349,167 349,169 349,169 349,169 348,177 348,177  Z"/>

<path  fill="#009B74" stroke-width="0" stroke="#009B74" d = " M107 178 C101.335,178 96.8274,183 91,183 91,183 91,166 91,166 91,166 91,165 91,165 95.0305,165 101.179,164 106,164 106,164 107,178 107,178  Z"/>

<path  fill="#009B74" stroke-width="0" stroke="#009B74" d = " M349 178 C354.827,178 359.335,183 365,183 365,177.954 366,171.675 366,166 366,166 351,164 351,164 351,166.088 350.682,177 349,177 349,177 349,178 349,178  Z"/>

<path  fill="#A8AAAA" stroke-width="0" stroke="#A8AAAA" d = " M196 165 L195,166 C195,166 196,165 196,165  Z"/>

<path  fill="#019C75" stroke-width="0" stroke="#019C75" d = " M91 184 C86.0469,184 82.2508,189 78,189 78,183.1 77,175.573 77,169 78.1667,169 87,166.586 87,166 87,166 91,166 91,166 91,166 91,183 91,183 91,183 91,184 91,184  Z"/>

<path  fill="#019C75" stroke-width="0" stroke="#019C75" d = " M365 184 C370.376,184 374.056,189 379,189 379,189 379,169 379,169 378.071,169 369,166.274 369,166 369,166 366,166 366,166 366,171.675 365,177.954 365,183 365,183 365,184 365,184  Z"/>

<path  fill="#009C74" stroke-width="0" stroke="#009C74" d = " M78 189 L75,190 C75,190 71,171 71,171 71,171 71,170 71,170 71,170 77,169 77,169 77,175.573 78,183.1 78,189  Z"/>

<path  fill="#C8CBCC" stroke-width="0" stroke="#C8CBCC" d = " M118 213 L119,213 C119,213 117,207.5 117,207.5 117,207.5 116,197.5 116,197.5 111.743,188.985 110,179.325 110,169 110,169 108,169 108,169 108,169 109,177 109,177 109,177 111,189 111,189 111,192.157 113,194.481 113,198 114.663,198 115,203.407 115,205 116.014,205 117,208.959 117,210 117,210 118,213 118,213  Z"/>

<path  fill="#C8CBCC" stroke-width="0" stroke="#C8CBCC" d = " M339 209 L340,209 C340,209 341,206 341,206 341,204.576 341.362,201 343,201 343,201 343,197 343,197 343,195.959 343.986,192 345,192 345,192 345,189 345,189 345,189 346,188 346,188 346,188 348,177 348,177 348,177 349,169 349,169 349,169 346,169 346,169 346,184.318 339,194.894 339,209  Z"/>

<path  fill="#009C74" stroke-width="0" stroke="#009C74" d = " M379 190 L381,190 C381,183.878 385,177.921 385,171 385,171 385,170 385,170 385,170 379,169 379,169 379,169 379,189 379,189 379,189 379,190 379,190  Z"/>

<path  fill="#009B75" stroke-width="0" stroke="#009B75" d = " M67 193 L68,193 C68,190.418 75,191.093 75,190 75,190 71,171 71,171 71,171 63,172 63,172 63,172 63,173 63,173 63,180.281 67,186.051 67,193  Z"/>

<path  fill="#A8AAAA" stroke-width="0" stroke="#A8AAAA" d = " M195 171 L194,172 C194,172 195,171 195,171  Z"/>

<path  fill="#009B75" stroke-width="0" stroke="#009B75" d = " M381 190 L383.5,192 L383.5,190 L389,193 C389,186.362 393,180.396 393,173 393,171.069 386.775,171 385,171 385,177.921 381,183.878 381,190  Z"/>

<path  fill="#009C75" stroke-width="0" stroke="#009C75" d = " M63 196 L64,196 C64,193.959 64.9594,193 67,193 67,186.051 63,180.281 63,173 63,173 58,174 58,174 58,181.543 63,188.377 63,196  Z"/>

<path  fill="#A8AAAA" stroke-width="0" stroke="#A8AAAA" d = " M262 173 L263,175 C263,175 262,173 262,173  Z"/>

<path  fill="#009C75" stroke-width="0" stroke="#009C75" d = " M389 193 L393,195 C395.064,195 393.426,191.647 394,190.5 396.15,186.199 398,178.994 398,174 398,174 394,173 394,173 394,173 393,173 393,173 393,180.396 389,186.362 389,193  Z"/>

<path  fill="#8FCBED" stroke-width="0" stroke="#8FCBED" d = " M203 203 C206.05,203 207.483,209 211,209 213.552,209 214.015,197.53 213,195.5 210.079,189.658 202.253,177.876 196.5,175 196.5,175 194,177 194,177 194,177 193,178 193,178 193,178 193,187 193,187 193.981,187 195,194.758 195,196 195,196 196,197 196,197 197.6,197 203,201.129 203,203  Z"/>

<path  fill="#96A7D3" stroke-width="0" stroke="#96A7D3" d = " M236 231 C230.031,231 225.458,232 220,232 220,225.239 221,218.247 221,211 221,200.557 225,191.549 225,181 226.473,181 226,179.048 226,178 227.71,178 226.344,173.922 228.5,175 228.5,175 231,179 231,179 231,189.955 235,198.999 235,210 235,210 236,231 236,231  Z"/>

<path  fill="#8FCBED" stroke-width="0" stroke="#8FCBED" d = " M249 208 L245,209 C245,206.202 241.008,201.484 243,197.5 245.473,192.553 253.859,177.821 259.5,175 259.5,175 263,177 263,177 263,177 263,185 263,185 263,185 262,194 262,194 262,194 260,197 260,197 260,197 259,198 259,198 257.753,198 254,200.467 254,202 254,202 253,203 253,203 253,203 251,206 251,206 251,206 250,207 250,207 250,207 249,208 249,208  Z"/>

<path  fill="#A8AAAA" stroke-width="0" stroke="#A8AAAA" d = " M194 177 L193,178 C193,178 194,176 194,176 194,176 194,177 194,177  Z"/>

<path  fill="#1F9766" stroke-width="0" stroke="#1F9766" d = " M109 188 L111,189 C111,189 109,177 109,177 109,177 107,178 107,178 107,178 109,187 109,187 109,187 109,188 109,188  Z"/>

<path  fill="#1F9766" stroke-width="0" stroke="#1F9766" d = " M346 188 L347,188 C347,188 348,187 348,187 348,187 349,178 349,178 349,178 349,177 349,177 349,177 348,177 348,177 348,177 346,188 346,188  Z"/>

<path  fill="#209666" stroke-width="0" stroke="#209666" d = " M96 202 L97,202 C99.0104,202 100.512,201 103,201 103,194.45 98.8902,187 109,187 109,187 107,178 107,178 101.335,178 96.8274,183 91,183 91,183 91,184 91,184 91,190.762 96,196.082 96,202  Z"/>

<path  fill="#97D6F9" stroke-width="0" stroke="#97D6F9" d = " M226 178 C224.527,178 225,179.952 225,181 226.473,181 226,179.048 226,178  Z"/>

<path  fill="#209666" stroke-width="0" stroke="#209666" d = " M353 201 C356.047,201 357.462,202 360,202 360,198.09 365,191.42 365,184 365,184 365,183 365,183 359.335,183 354.827,178 349,178 349,178 348,187 348,187 358.424,187 353,195.045 353,201  Z"/>

<path  fill="#209665" stroke-width="0" stroke="#209665" d = " M84 204 L85,204 C88.1864,204 92.891,202 96,202 96,196.082 91,190.762 91,184 86.0469,184 82.2508,189 78,189 78,194.116 84,202.463 84,204  Z"/>

<path  fill="#209665" stroke-width="0" stroke="#209665" d = " M372 204 L373,204 C373,202.87 378.864,190 379,190 379,190 379,189 379,189 374.056,189 370.376,184 365,184 365,191.42 360,198.09 360,202 363.031,202 367.851,204 372,204  Z"/>

<path  fill="#A8AAAA" stroke-width="0" stroke="#A8AAAA" d = " M265 198 L265,199 C265,211.55 262,204.728 262,198 262,198 262,194 262,194 262,194 263,185 263,185 264.682,185 265,195.912 265,198  Z"/>

<path  fill="#8ADA86" stroke-width="0" stroke="#8ADA86" d = " M112 198 C112,199.423 113.978,201.544 113,203.5 110.143,209.214 103,206.695 103,201 103,194.45 98.8902,187 109,187 109,187 109,188 109,188 109,191.028 112,194.394 112,198  Z"/>

<path  fill="#A8AAAA" stroke-width="0" stroke="#A8AAAA" d = " M194 198 C194,205.694 191,210.708 191,199 191,199 191,198 191,198 191,194.508 193,190.291 193,187 193.981,187 195,194.758 195,196 195,196 195,197 195,197 195,197 194,198 194,198  Z"/>

<path  fill="#209666" stroke-width="0" stroke="#209666" d = " M348 187 L347,188 C347,188 348,187 348,187  Z"/>

<path  fill="#8ADA86" stroke-width="0" stroke="#8ADA86" d = " M343 201 C343,208.059 353,208.777 353,201 353,195.045 358.424,187 348,187 348,187 347,188 347,188 347,188 345,192 345,192 345,193.235 345.643,197 344,197 344,198.145 344.579,201 343,201  Z"/>

<path  fill="#209666" stroke-width="0" stroke="#209666" d = " M112 198 L113,198 C113,194.481 111,192.157 111,189 111,189 109,188 109,188 109,191.028 112,194.394 112,198  Z"/>

<path  fill="#1F9766" stroke-width="0" stroke="#1F9766" d = " M346 188 L345,189 C345,189 346,188 346,188  Z"/>

<path  fill="#209666" stroke-width="0" stroke="#209666" d = " M345 189 L345,192 C345,192 347,188 347,188 347,188 346,188 346,188 346,188 345,189 345,189  Z"/>

<path  fill="#209765" stroke-width="0" stroke="#209765" d = " M84 204 C80.5806,204 76.7762,206 73,206 73,206 68,193 68,193 68,190.418 75,191.093 75,190 75,190 78,189 78,189 78,194.116 84,202.463 84,204  Z"/>

<path  fill="#209765" stroke-width="0" stroke="#209765" d = " M373 204 C373,205.16 381.505,206 383,206 383,201.939 389,197.381 389,193 389,193 383.5,190 383.5,190 383.5,190 383.5,192 383.5,192 383.5,192 381,190 381,190 381,190 379,190 379,190 378.864,190 373,202.87 373,204  Z"/>

<path  fill="#209666" stroke-width="0" stroke="#209666" d = " M343 197 L344,197 C345.643,197 345,193.235 345,192 343.986,192 343,195.959 343,197  Z"/>

<path  fill="#209764" stroke-width="0" stroke="#209764" d = " M73 207 C71.8548,207 69,206.421 69,208 69,208 67,207 67,207 67,207 67,206 67,206 67,204.576 66.6384,201 65,201 65,201 65,199 65,199 65,199 64,196 64,196 64,193.959 64.9594,193 67,193 67,193 68,193 68,193 68,193 73,206 73,206 73,206 73,207 73,207  Z"/>

<path  fill="#209764" stroke-width="0" stroke="#209764" d = " M389 207 L388,208 C388,208 383,207 383,207 383,207 383,206 383,206 383,201.939 389,197.381 389,193 389,193 393,195 393,195 393,195 393,196 393,196 393,196 392,198 392,198 390.527,198 391,199.952 391,201 391,201 391,202 391,202 391,202 390,204 390,204 390,204 390,205 390,205 390,205 389,207 389,207  Z"/>

<path  fill="#97D6F9" stroke-width="0" stroke="#97D6F9" d = " M260 197 L262,198 C262,198 262,194 262,194 262,194 260,197 260,197  Z"/>

<path  fill="#219765" stroke-width="0" stroke="#219765" d = " M64 196 L65,199 C65,199 63,196 63,196 63,196 64,196 64,196  Z"/>

<path  fill="#97D6F9" stroke-width="0" stroke="#97D6F9" d = " M195 197 L196,197 C196,197 195,196 195,196 195,196 195,197 195,197  Z"/>

<path  fill="#219765" stroke-width="0" stroke="#219765" d = " M393 196 L392,198 C392,198 393,196 393,196  Z"/>

<path  fill="#97D6F9" stroke-width="0" stroke="#97D6F9" d = " M195 197 L194,198 C194,198 195,197 195,197  Z"/>

<path  fill-rule="evenodd" fill="#80CDF8" stroke-width="0" stroke="#80CDF8" d = " M183 209 L177,215.5 C175.621,218.257 178.933,225.784 182.5,224 188.514,220.993 194.662,209 183,209  M135 236 C135,242.847 139,248.06 139,254 139,265.857 171.173,266.664 178.5,263 183.644,260.428 198.915,246.67 201,242.5 201.823,240.853 204.92,233 207,233 207,233 207,231 207,231 207,231 208,230 208,230 208,225.859 212.288,219.077 210,214.5 210,214.5 203,203 203,203 203,201.129 197.6,197 196,197 196,197 195,197 195,197 195,197 194,198 194,198 194,205.694 191,210.708 191,199 191,199 190,199 190,199 190,199 185.5,202 185.5,202 173.604,207.948 172.357,217.786 167,228.5 162.23,238.04 144.208,234 136,234 136,234 135,236 135,236  Z"/>

<path  fill="#97D6F9" stroke-width="0" stroke="#97D6F9" d = " M260 197 L259,198 C259,198 260,197 260,197  Z"/>

<path  fill-rule="evenodd" fill="#80CDF8" stroke-width="0" stroke="#80CDF8" d = " M269 209 C269,211.428 265.216,214.933 267,218.5 275.392,235.284 288.443,209 269,209  M322 235 C322,241.593 318,247.653 318,254 318,254 310.5,263 310.5,263 304.861,265.82 283.087,265.793 277.5,263 267.505,258.003 262.987,249.487 254.5,241 252.903,239.403 251.83,232 249,232 249,227.628 243.686,220.128 246,215.5 247.2,213.099 249,210.912 249,208 249,208 250,207 250,207 250,207 251,206 251,206 251,206 253,203 253,203 253,203 254,202 254,202 254,200.467 257.753,198 259,198 259,198 260,197 260,197 260,197 262,198 262,198 262,204.728 265,211.55 265,199 265,199 266,199 266,199 266,199 272.5,203 272.5,203 283.433,208.466 282.44,216.381 287,225.5 293.458,238.416 309.117,234 320,234 320,234 322,235 322,235  Z"/>

<path  fill="#1F9866" stroke-width="0" stroke="#1F9866" d = " M344 197 C344,198.145 344.579,201 343,201 343,201 343,197 343,197 343,197 344,197 344,197  Z"/>

<path  fill="#1F9866" stroke-width="0" stroke="#1F9866" d = " M109 209 C106.115,209 104.303,211 101,211 99.5562,211 97,203.606 97,202 99.0104,202 100.512,201 103,201 103,206.695 110.143,209.214 113,203.5 113.978,201.544 112,199.423 112,198 112,198 113,198 113,198 114.663,198 115,203.407 115,205 115,208.004 109,206.483 109,209  Z"/>

<path  fill="#97D6F9" stroke-width="0" stroke="#97D6F9" d = " M190 199 L191,199 C191,199 191,198 191,198 191,198 190,199 190,199  Z"/>

<path  fill="#97D6F9" stroke-width="0" stroke="#97D6F9" d = " M265 199 L266,199 C266,199 265,198 265,198 265,198 265,199 265,199  Z"/>

<path  fill="#219765" stroke-width="0" stroke="#219765" d = " M392 198 C390.527,198 391,199.952 391,201 392.473,201 392,199.048 392,198  Z"/>

<path  fill="#219765" stroke-width="0" stroke="#219765" d = " M65 201 C66.6384,201 67,204.576 67,206 65.9856,206 65,202.041 65,201  Z"/>

<path  fill="#1F9866" stroke-width="0" stroke="#1F9866" d = " M347 209 C350.235,209 351.55,211 355,211 356.327,211 360,203.25 360,202 357.462,202 356.047,201 353,201 353,208.777 343,208.059 343,201 341.362,201 341,204.576 341,206 341,206 347,209 347,209  Z"/>

<path  fill="#1F9865" stroke-width="0" stroke="#1F9865" d = " M97 213 L92,214 C92,209.974 85,208.109 85,204 88.1864,204 92.891,202 96,202 96,202 97,202 97,202 97,203.606 99.5562,211 101,211 101,211 97,213 97,213  Z"/>

<path  fill="#97D6F9" stroke-width="0" stroke="#97D6F9" d = " M254 202 L253,203 C253,203 254,202 254,202  Z"/>

<path  fill="#1F9865" stroke-width="0" stroke="#1F9865" d = " M360 213 L364,214 C364,214 372,204 372,204 367.851,204 363.031,202 360,202 360,203.25 356.327,211 355,211 355,212.014 358.959,213 360,213  Z"/>

<path  fill="#219765" stroke-width="0" stroke="#219765" d = " M391 202 L390,204 C390,204 391,202 391,202  Z"/>

<path  fill="#97D6F9" stroke-width="0" stroke="#97D6F9" d = " M207 256 L209,256 C211.723,256 215,251.512 215,249 215,249 216,248 216,248 216,243.43 220,237.418 220,232 220,225.239 221,218.247 221,211 221,211 218.5,215 218.5,215 214.967,216.767 211,211.879 211,209 207.483,209 206.05,203 203,203 203,203 210,214.5 210,214.5 212.288,219.077 208,225.859 208,230 208,230 207,231 207,231 207,231 207,233 207,233 207,233 205,251 205,251 205,251 205,254 205,254 205,254 207,256 207,256  Z"/>

<path  fill="#219764" stroke-width="0" stroke="#219764" d = " M92 214 C87.668,214 83.67,217 79,217 79,217 73,207 73,207 73,207 73,206 73,206 76.7762,206 80.5806,204 84,204 84,204 85,204 85,204 85,208.109 92,209.974 92,214  Z"/>

<path  fill="#219764" stroke-width="0" stroke="#219764" d = " M364 214 C368.932,214 372.768,217 378,217 378,217 383,207 383,207 383,207 383,206 383,206 381.505,206 373,205.16 373,204 373,204 372,204 372,204 372,204 364,214 364,214  Z"/>

<path  fill="#8AD987" stroke-width="0" stroke="#8AD987" d = " M109 209 L113.5,208 L117,210 C117,208.959 116.014,205 115,205 115,208.004 109,206.483 109,209  Z"/>

<path  fill="#219765" stroke-width="0" stroke="#219765" d = " M390 205 L389,207 C389,207 390,205 390,205  Z"/>

<path  fill="#97D6F9" stroke-width="0" stroke="#97D6F9" d = " M251 206 L250,207 C250,207 251,206 251,206  Z"/>

<path  fill="#8AD987" stroke-width="0" stroke="#8AD987" d = " M340 209 C343.019,209 343.981,209 347,209 347,209 341,206 341,206 341,206 340,209 340,209  Z"/>

<path  fill="#219765" stroke-width="0" stroke="#219765" d = " M72 219 L73,219 C73,214.584 69,211.426 69,208 69,208 67,207 67,207 67,207 72,219 72,219  Z"/>

<path  fill="#209864" stroke-width="0" stroke="#209864" d = " M79 217 L73,219 C73,214.584 69,211.426 69,208 69,206.421 71.8548,207 73,207 73,207 79,217 79,217  Z"/>

<path  fill="#97D6F9" stroke-width="0" stroke="#97D6F9" d = " M250 207 L249,208 C249,208 250,207 250,207  Z"/>

<path  fill="#209864" stroke-width="0" stroke="#209864" d = " M378 217 C378,218.014 381.959,219 383,219 383,217.762 383.423,216 385,216 385,212.762 388,210.7 388,208 388,208 383,207 383,207 383,207 378,217 378,217  Z"/>

<path  fill="#219765" stroke-width="0" stroke="#219765" d = " M388 208 C388,210.7 385,212.762 385,216 387.216,216 389,208.85 389,207 389,207 388,208 388,208  Z"/>

<path  fill="#A0EE9C" stroke-width="0" stroke="#A0EE9C" d = " M121 232 L122,232 C122,232 126,231 126,231 126,231 127,230 127,230 127,230 127,229 127,229 127,229 127,228 127,228 127,228 127,227 127,227 127,227 125,225 125,225 125,225 122,220 122,220 122,220 121,219 121,219 121,219 121,218 121,218 119.423,218 119,216.238 119,215 119,215 119,214 119,214 119,214 118,213 118,213 118,213 117,210 117,210 117,210 113.5,208 113.5,208 113.5,208 109,209 109,209 109,211.127 104,214.597 104,220 104,220 106,223 106,223 106,223 107,224 107,224 107,224 110,226 110,226 110,226 111,227 111,227 111,227 112,227 112,227 112,227 114,229 114,229 114,229 115,229 115,229 115,229 116,230 116,230 116,230 119,231 119,231 119,231 121,232 121,232  Z"/>

<path  fill="#97D6F9" stroke-width="0" stroke="#97D6F9" d = " M247 256 L249,256 C249,256 251,254 251,254 251,252.952 250.527,251 252,251 252,244.954 249,238.337 249,232 249,227.628 243.686,220.128 246,215.5 247.2,213.099 249,210.912 249,208 249,208 245,209 245,209 245,212.207 241.375,216.938 237.5,215 237.5,215 235,210 235,210 235,210 236,231 236,231 236,235.528 241.539,256 247,256  Z"/>

<path  fill="#A0EE9C" stroke-width="0" stroke="#A0EE9C" d = " M337 231 L339,231 C339,231 340,230 340,230 340,230 341,229 341,229 341,229 342,229 342,229 342,229 343,228 343,228 343,228 345,227 345,227 345,227 347,226 347,226 347,226 348,225 348,225 348,225 351,222 351,222 351,222 352,221 352,221 352,221 353,219 353,219 353,215.627 347,209.453 347,209 343.981,209 343.019,209 340,209 340,209 339,210 339,210 339,210 338,214 338,214 338,214 337,215 337,215 337,215 337,216 337,216 337,216 336,217 336,217 336,217 336,218 336,218 336,218 335,219 335,219 335,219 335,220 335,220 335,220 334,221 334,221 334,221 333,222 333,222 333,222 333,223 333,223 333,223 332,224 332,224 332,224 331,225 331,225 331,225 331,226 331,226 331,226 330,227 330,227 330,227 330,231 330,231 330,231 335,232 335,232 335,232 337,231 337,231  Z"/>

<path  fill="#99D2BD" stroke-width="0" stroke="#99D2BD" d = " M97 213 L101,215.5 L104,220 C104,214.597 109,211.127 109,209 106.115,209 104.303,211 101,211 101,211 97,213 97,213  Z"/>

<path  fill="#CBCBC7" stroke-width="0" stroke="#CBCBC7" d = " M183 209 L177,215.5 C175.621,218.257 178.933,225.784 182.5,224 188.514,220.993 194.662,209 183,209  Z"/>

<path  fill="#CBCBC7" stroke-width="0" stroke="#CBCBC7" d = " M269 209 C269,211.428 265.216,214.933 267,218.5 275.392,235.284 288.443,209 269,209  Z"/>

<path  fill="#C8CBCC" stroke-width="0" stroke="#C8CBCC" d = " M337 214 L338,214 C338,214 339,210 339,210 339,210 339,209 339,209 337.986,209 337,212.959 337,214  Z"/>

<path  fill="#8AD987" stroke-width="0" stroke="#8AD987" d = " M340 209 L339,210 C339,210 339,209 339,209 339,209 340,209 340,209  Z"/>

<path  fill="#99D2BD" stroke-width="0" stroke="#99D2BD" d = " M360 213 L356.5,215 L353,219 C353,215.627 347,209.453 347,209 350.235,209 351.55,211 355,211 355,212.014 358.959,213 360,213  Z"/>

<path  fill="#6ACAB9" stroke-width="0" stroke="#6ACAB9" d = " M121 261 L123,261 C125.747,261 127.56,257 131,257 131,251.975 135.896,248.292 133,242.5 133,242.5 126.5,235 126.5,235 126.5,235 122,232 122,232 122,232 121,232 121,232 121,232 119,231 119,231 119,231 116,230 116,230 116,230 115,229 115,229 115,229 114,229 114,229 114,229 112,227 112,227 112,227 111,227 111,227 111,227 110,226 110,226 110,226 107,224 107,224 107,224 106,223 106,223 106,223 104,220 104,220 104,220 101,215.5 101,215.5 101,215.5 97,213 97,213 97,213 92,214 92,214 87.668,214 83.67,217 79,217 79,217 73,219 73,219 73,219 72,219 72,219 72,226.583 89.7508,249 98,249 103.714,249 108.852,252.176 114.5,255 114.5,255 121,261 121,261  Z"/>

<path  fill="#8AD987" stroke-width="0" stroke="#8AD987" d = " M119 213 L119,214 C119,214 118,213 118,213 118,213 119,213 119,213  Z"/>

<path  fill="#6ACAB9" stroke-width="0" stroke="#6ACAB9" d = " M334 261 L336,261 C336,258.979 358,243.252 358,250 358,250 360.5,247 360.5,247 370.016,242.242 384,230.936 384,219 384,219 383,219 383,219 381.959,219 378,218.014 378,217 372.768,217 368.932,214 364,214 364,214 360,213 360,213 360,213 356.5,215 356.5,215 356.5,215 353,219 353,219 353,219 352,221 352,221 352,221 351,222 351,222 351,222 348,225 348,225 348,225 347,226 347,226 347,226 345,227 345,227 345,227 343,228 343,228 343,228 342,229 342,229 342,229 341,229 341,229 341,229 340,230 340,230 340,230 339,231 339,231 339,231 337,231 337,231 337,231 335,232 335,232 335,232 329.5,235 329.5,235 327.209,236.145 324.35,240.801 323,243.5 320.437,248.626 326,253.47 326,257 326,257 334,261 334,261  Z"/>

<path  fill="#8AD987" stroke-width="0" stroke="#8AD987" d = " M338 214 L337,215 C337,215 337,214 337,214 337,214 338,214 338,214  Z"/>

<path  fill="#8AD987" stroke-width="0" stroke="#8AD987" d = " M119 215 L121,218 C119.423,218 119,216.238 119,215  Z"/>

<path  fill="#8AD987" stroke-width="0" stroke="#8AD987" d = " M337 216 L336,217 C336,217 337,216 337,216  Z"/>

<path  fill="#219765" stroke-width="0" stroke="#219765" d = " M383 219 L384,219 C385.473,219 385,217.048 385,216 383.423,216 383,217.762 383,219  Z"/>

<path  fill="#8AD987" stroke-width="0" stroke="#8AD987" d = " M336 218 L335,219 C335,219 336,218 336,218  Z"/>

<path  fill="#8AD987" stroke-width="0" stroke="#8AD987" d = " M121 219 L122,220 C122,220 121,219 121,219  Z"/>

<path  fill="#99D2BD" stroke-width="0" stroke="#99D2BD" d = " M353 219 L352,221 C352,221 353,219 353,219  Z"/>

<path  fill="#8AD987" stroke-width="0" stroke="#8AD987" d = " M335 220 L334,221 C334,221 335,220 335,220  Z"/>

<path  fill="#8AD987" stroke-width="0" stroke="#8AD987" d = " M334 221 L333,222 C333,222 334,221 334,221  Z"/>

<path  fill="#99D2BD" stroke-width="0" stroke="#99D2BD" d = " M352 221 L351,222 C351,222 352,221 352,221  Z"/>

<path  fill="#99D2BD" stroke-width="0" stroke="#99D2BD" d = " M106 223 L107,224 C107,224 106,223 106,223  Z"/>

<path  fill="#8AD987" stroke-width="0" stroke="#8AD987" d = " M333 223 L332,224 C332,224 333,223 333,223  Z"/>

<path  fill="#8AD987" stroke-width="0" stroke="#8AD987" d = " M332 224 L331,225 C331,225 332,224 332,224  Z"/>

<path  fill="#8AD987" stroke-width="0" stroke="#8AD987" d = " M125 225 L127,227 C127,227 125,225 125,225  Z"/>

<path  fill="#99D2BD" stroke-width="0" stroke="#99D2BD" d = " M348 225 L347,226 C347,226 348,225 348,225  Z"/>

<path  fill="#99D2BD" stroke-width="0" stroke="#99D2BD" d = " M110 226 L111,227 C111,227 110,226 110,226  Z"/>

<path  fill="#8AD987" stroke-width="0" stroke="#8AD987" d = " M331 226 L330,227 C330,227 331,226 331,226  Z"/>

<path  fill="#99D2BD" stroke-width="0" stroke="#99D2BD" d = " M347 226 L345,227 C345,227 347,226 347,226  Z"/>

<path  fill="#99D2BD" stroke-width="0" stroke="#99D2BD" d = " M112 227 L114,229 C114,229 112,227 112,227  Z"/>

<path  fill="#97D6F9" stroke-width="0" stroke="#97D6F9" d = " M136 234 L135,236 C132.579,236 130.437,230 127,230 127,230 127,229 127,229 128.186,229 128.186,228 127,228 127,228 127,227 127,227 127,227 132.5,232 132.5,232 132.5,232 136,234 136,234  Z"/>

<path  fill="#8AD987" stroke-width="0" stroke="#8AD987" d = " M329 231 L330,231 C330,231 330,227 330,227 330,227 329,228 329,228 329,228 329,231 329,231  Z"/>

<path  fill="#99D2BD" stroke-width="0" stroke="#99D2BD" d = " M345 227 L343,228 C343,228 345,227 345,227  Z"/>

<path  fill="#8AD987" stroke-width="0" stroke="#8AD987" d = " M127 228 C128.186,228 128.186,229 127,229 127,229 127,228 127,228  Z"/>

<path  fill="#97D6F9" stroke-width="0" stroke="#97D6F9" d = " M326 231 L329,231 C329,231 329,228 329,228 329,228 326,231 326,231  Z"/>

<path  fill="#99D2BD" stroke-width="0" stroke="#99D2BD" d = " M343 228 L342,229 C342,229 343,228 343,228  Z"/>

<path  fill="#99D2BD" stroke-width="0" stroke="#99D2BD" d = " M115 229 L116,230 C116,230 115,229 115,229  Z"/>

<path  fill="#99D2BD" stroke-width="0" stroke="#99D2BD" d = " M341 229 L340,230 C340,230 341,229 341,229  Z"/>

<path  fill="#8AD987" stroke-width="0" stroke="#8AD987" d = " M127 230 L126,231 C126,231 127,230 127,230  Z"/>

<path  fill="#99D2BD" stroke-width="0" stroke="#99D2BD" d = " M131 257 L132,257 C132,255.571 137.655,254 139,254 139,248.06 135,242.847 135,236 132.579,236 130.437,230 127,230 127,230 126,231 126,231 126,231 122,232 122,232 122,232 126.5,235 126.5,235 126.5,235 133,242.5 133,242.5 135.896,248.292 131,251.975 131,257  Z"/>

<path  fill="#A2B1D7" stroke-width="0" stroke="#A2B1D7" d = " M208 230 L207,231 C207,231 208,230 208,230  Z"/>

<path  fill="#99D2BD" stroke-width="0" stroke="#99D2BD" d = " M340 230 L339,231 C339,231 340,230 340,230  Z"/>

<path  fill="#99D2BD" stroke-width="0" stroke="#99D2BD" d = " M119 231 L121,232 C121,232 119,231 119,231  Z"/>

<path  fill="#96A6D3" stroke-width="0" stroke="#96A6D3" d = " M220 266 C218.706,266 213,269.609 213,271 207.882,271 201,276.083 201,266 201,266 201,265 201,265 201,265 202,264 202,264 203.901,264 207,259.668 207,258 207,258 208,257 208,257 208,257 209,256 209,256 211.723,256 215,251.512 215,249 215,249 216,248 216,248 216,243.43 220,237.418 220,232 225.458,232 230.031,231 236,231 236,235.528 241.539,256 247,256 247,256 248,257 248,257 248,257 249,258 249,258 249,261.351 255,263.107 255,265 255,265 256,266 256,266 256,283.498 236.07,264 234,264 234,260.48 225,253.435 225,261 225,261 225,262 225,262 225,262 224,263 224,263 224,263 221,265 221,265 221,265 220,266 220,266  Z"/>

<path  fill="#97D6F9" stroke-width="0" stroke="#97D6F9" d = " M320 234 L322,235 C322,235 326,231 326,231 326,231 320,234 320,234  Z"/>

<path  fill="#99D2BD" stroke-width="0" stroke="#99D2BD" d = " M324 257 L326,257 C326,253.47 320.437,248.626 323,243.5 324.35,240.801 327.209,236.145 329.5,235 329.5,235 335,232 335,232 335,232 330,231 330,231 330,231 329,231 329,231 329,231 326,231 326,231 326,231 322,235 322,235 322,241.593 318,247.653 318,254 318,254 324,257 324,257  Z"/>

<path  fill="#99D2BD" stroke-width="0" stroke="#99D2BD" d = " M337 231 L335,232 C335,232 337,231 337,231  Z"/>

<path  fill="#A2B1D7" stroke-width="0" stroke="#A2B1D7" d = " M259 268 L260,273 C277.349,273 296.705,278.398 311.5,271 315.982,268.759 324,262.672 324,257 324,257 318,254 318,254 318,254 310.5,263 310.5,263 304.861,265.82 283.087,265.793 277.5,263 267.505,258.003 262.987,249.487 254.5,241 252.903,239.403 251.83,232 249,232 249,238.337 252,244.954 252,251 252,251 253,254 253,254 253,254 257,264 257,264 257,264 259,268 259,268  Z"/>

<path  fill="#A2B1D7" stroke-width="0" stroke="#A2B1D7" d = " M197 269 L196,273 C196,273 166.5,274 166.5,274 164.29,275.105 156.179,276.339 153.5,275 149.064,272.782 139.585,270.669 137,265.5 137,265.5 132,257 132,257 132,255.571 137.655,254 139,254 139,265.857 171.173,266.664 178.5,263 183.644,260.428 198.915,246.67 201,242.5 201.823,240.853 204.92,233 207,233 207,233 205,251 205,251 205,251 203,255 203,255 203,255 199,264 199,264 199,264 198,267 198,267 198,267 198,268 198,268 198,268 197,269 197,269  Z"/>

<path  fill="#CAC8C7" stroke-width="0" stroke="#CAC8C7" d = " M119 265 L120,265 C120,265 121,263 121,263 121,263 121,261 121,261 121,261 114.5,255 114.5,255 108.852,252.176 103.714,249 98,249 98,251.445 116.49,265 118,265 118,265 119,265 119,265  Z"/>

<path  fill="#E64438" stroke-width="0" stroke="#E64438" d = " M216 248 L215,249 C215,249 216,248 216,248  Z"/>

<path  fill="#CAC8C7" stroke-width="0" stroke="#CAC8C7" d = " M336 261 C336,262.465 335.891,265 338,265 339.988,265 358,251.393 358,250 358,243.252 336,258.979 336,261  Z"/>

<path  fill="#E64438" stroke-width="0" stroke="#E64438" d = " M205 254 L203,255 C203,255 205,251 205,251 205,251 205,254 205,254  Z"/>

<path  fill="#E64438" stroke-width="0" stroke="#E64438" d = " M251 254 L253,254 C253,254 252,251 252,251 250.527,251 251,252.952 251,254  Z"/>

<path  fill="#F2473B" stroke-width="0" stroke="#F2473B" d = " M202 264 L201,265 C201,265 199,264 199,264 199,264 203,255 203,255 203,255 205,254 205,254 205,254 207,256 207,256 207,256 207,257 207,257 207,257 207,258 207,258 207,259.668 203.901,264 202,264  Z"/>

<path  fill="#F2473B" stroke-width="0" stroke="#F2473B" d = " M257 264 L255,265 C255,263.107 249,261.351 249,258 249,258 249,257 249,257 249,257 249,256 249,256 249,256 251,254 251,254 251,254 253,254 253,254 253,254 257,264 257,264  Z"/>

<path  fill="#8599CC" stroke-width="0" stroke="#8599CC" d = " M207 257 L208,257 C208,257 209,256 209,256 209,256 207,256 207,256 207,256 207,257 207,257  Z"/>

<path  fill="#8599CC" stroke-width="0" stroke="#8599CC" d = " M248 257 L249,257 C249,257 249,256 249,256 249,256 247,256 247,256 247,256 248,257 248,257  Z"/>

<path  fill="#7FCCF7" stroke-width="0" stroke="#7FCCF7" d = " M196 273 C198.896,273 201,276.334 201,279 201,291.37 189.342,291.079 181.5,295 181.5,295 173.5,295 173.5,295 156.86,303.32 135.771,297.042 127,279.5 125.098,275.695 121,272.525 121,268 121,268 121,265 121,265 121,265 121,263 121,263 121,263 123,261 123,261 125.747,261 127.56,257 131,257 131,257 132,257 132,257 132,257 137,265.5 137,265.5 139.585,270.669 149.064,272.782 153.5,275 156.179,276.339 164.29,275.105 166.5,274 166.5,274 196,273 196,273  Z"/>

<path  fill="#E64438" stroke-width="0" stroke="#E64438" d = " M208 257 L207,258 C207,258 207,257 207,257 207,257 208,257 208,257  Z"/>

<path  fill="#E64438" stroke-width="0" stroke="#E64438" d = " M225 261 C230.843,261 232.728,264 234,264 234,260.48 225,253.435 225,261  Z"/>

<path  fill="#E64438" stroke-width="0" stroke="#E64438" d = " M249 257 L249,258 C249,258 248,257 248,257 248,257 249,257 249,257  Z"/>

<path  fill="#7FCCF7" stroke-width="0" stroke="#7FCCF7" d = " M260 273 C258.099,273 255,277.332 255,279 255,290.758 266.863,291.181 274.5,295 274.5,295 282.5,295 282.5,295 297.079,302.289 318.783,298.934 327,282.5 329.35,277.799 335,274.609 335,269 335,269 335,264 335,264 335,264 334,261 334,261 334,261 326,257 326,257 326,257 324,257 324,257 324,262.672 315.982,268.759 311.5,271 296.705,278.398 277.349,273 260,273  Z"/>

<path  fill="#99D2BD" stroke-width="0" stroke="#99D2BD" d = " M123 261 L121,263 C121,263 121,261 121,261 121,261 123,261 123,261  Z"/>

<path  fill="#99D2BD" stroke-width="0" stroke="#99D2BD" d = " M338 265 L337,266 C337,266 335,264 335,264 335,264 334,261 334,261 334,261 336,261 336,261 336,262.465 335.891,265 338,265  Z"/>

<path  fill="#E64438" stroke-width="0" stroke="#E64438" d = " M225 262 L224,263 C224,263 225,262 225,262  Z"/>

<path  fill="#99D2BD" stroke-width="0" stroke="#99D2BD" d = " M120 265 L121,265 C121,265 121,263 121,263 121,263 120,265 120,265  Z"/>

<path  fill="#E64438" stroke-width="0" stroke="#E64438" d = " M201 266 L198,267 C198,267 199,264 199,264 199,264 201,265 201,265 201,265 201,266 201,266  Z"/>

<path  fill="#E64438" stroke-width="0" stroke="#E64438" d = " M202 264 L201,265 C201,265 202,264 202,264  Z"/>

<path  fill="#8599CC" stroke-width="0" stroke="#8599CC" d = " M260 273 C258.099,273 255,277.332 255,279 254.274,279 234,266.636 234,264 236.07,264 256,283.498 256,266 256,266 259,268 259,268 259,268 260,273 260,273  Z"/>

<path  fill="#E64438" stroke-width="0" stroke="#E64438" d = " M256 266 L259,268 C259,268 257,264 257,264 257,264 255,265 255,265 255,265 256,266 256,266  Z"/>

<path  fill="#97D6F9" stroke-width="0" stroke="#97D6F9" d = " M337 266 L335,269 C335,269 335,264 335,264 335,264 337,266 337,266  Z"/>

<path  fill="#99D2BD" stroke-width="0" stroke="#99D2BD" d = " M119 265 L119,266 C119,266 118,265 118,265 118,265 119,265 119,265  Z"/>

<path  fill="#97D6F9" stroke-width="0" stroke="#97D6F9" d = " M119 266 L121,268 C121,268 121,265 121,265 121,265 120,265 120,265 120,265 119,265 119,265 119,265 119,266 119,266  Z"/>

<path  fill="#E64438" stroke-width="0" stroke="#E64438" d = " M220 266 L221,266 C221,266 221,265 221,265 221,265 220,266 220,266  Z"/>

<path  fill="#8599CC" stroke-width="0" stroke="#8599CC" d = " M196 273 C198.896,273 201,276.334 201,279 202.719,279 213,272.743 213,271 207.882,271 201,276.083 201,266 201,266 198,267 198,267 198,267 198,268 198,268 198,268 197,269 197,269 197,269 196,273 196,273  Z"/>

<path  fill="#8599CC" stroke-width="0" stroke="#8599CC" d = " M221 266 C221,268.449 214.846,271 213,271 213,269.609 218.706,266 220,266 220,266 221,266 221,266  Z"/>

<path  fill="#E64438" stroke-width="0" stroke="#E64438" d = " M198 268 L197,269 C197,269 198,268 198,268  Z"/>

<path  fill="#CBCCC7" stroke-width="0" stroke="#CBCCC7" d = " M216 275 C216,275.757 209.021,280.458 208,282.5 205.546,287.408 213.066,289.717 216.5,288 223.645,284.427 227.857,275 216,275  Z"/>

<path  fill="#CBCCC7" stroke-width="0" stroke="#CBCCC7" d = " M234 275 C234,276.804 231.818,280.136 233,282.5 235.24,286.98 245.955,291.591 249,285.5 252.4,278.7 237.97,275 234,275  Z"/>

</g>
</svg>
