<svg xmlns="http://www.w3.org/2000/svg" xmlns:xlink="http://www.w3.org/1999/xlink"  viewBox="0 0 456 320">
<g>
<rect width="456" height="320" fill="#000000"  stroke-width="0" /> 
<path  fill="#1E9C59" stroke-width="0" stroke="#1E9C59" d = " M114 110 C114,112.167 115,113.855 115,117 115,117 123,104.5 123,104.5 126.815,96.87 139.635,86.9325 147.5,83 155.083,79.2084 191.349,66.4247 200.5,71 204.23,72.8649 207.703,75.1014 211.5,77 211.5,77 215,80 215,80 215,80 219,77 219,77 219,70.2941 194.545,58.9773 186.5,63 181.661,65.4194 175.279,64.6105 170.5,67 157.455,73.5227 133.633,79.2342 127,92.5 124.728,97.0444 115,102.776 115,109 115,109 114,110 114,110  Z"/>

<path  fill="#1E9C59" stroke-width="0" stroke="#1E9C59" d = " M343 111 C342.908,111 341,114.65 341,116 339.032,116 332.994,104.487 332,102.5 328.651,95.802 312.636,85.0682 306.5,82 299.492,78.496 264.974,66.7632 256.5,71 254.421,72.0393 241.643,80 241,80 241,80 237,77 237,77 237,70.3903 261.968,59.2342 269.5,63 272.481,64.4904 276.608,63.5542 279.5,65 295.034,72.7669 323.844,78.1878 333,96.5 334.862,100.223 342,104.788 342,109 339.971,109 341.942,110 343,110 343,110 343,111 343,111  Z"/>

<path  fill="#1E9D58" stroke-width="0" stroke="#1E9D58" d = " M128 150 L121,153 C121,148.994 118,145.979 118,142.5 118,135.975 115,126.826 115,120 115,120 115,117 115,117 115,117 123,104.5 123,104.5 126.815,96.87 139.635,86.9325 147.5,83 155.083,79.2084 191.349,66.4247 200.5,71 204.23,72.8649 207.703,75.1014 211.5,77 211.5,77 215,80 215,80 215,80 215,81 215,81 212.01,81 211.591,86 210,86 210,86 209,86 209,86 209,81.8009 200.465,81 197.5,81 187.894,81 178.379,82.5604 169.5,87 146.734,98.3828 138.289,106.921 127,129.5 124.559,134.382 128,144.378 128,149 128,149 128,150 128,150  Z"/>

<path  fill="#1E9D58" stroke-width="0" stroke="#1E9D58" d = " M328 150 L335,153 C335,149.9 336.676,146.147 338,143.5 340.588,138.324 341,125.78 341,119 341,119 341,116 341,116 339.032,116 332.994,104.487 332,102.5 328.651,95.802 312.636,85.0682 306.5,82 299.492,78.496 264.974,66.7632 256.5,71 254.421,72.0393 241.643,80 241,80 241,80 241,81 241,81 242.661,81 246,84.0075 246,86 246,86 247,86 247,86 247,79.77 269.027,79.7635 273.5,82 296.201,93.3507 313.136,96.7711 326,122.5 328.734,127.968 332.199,137.102 329,143.5 328.381,144.738 330.144,149 328,149 328,149 328,150 328,150  Z"/>

<path  fill="#3EA665" stroke-width="0" stroke="#3EA665" d = " M227 91 C224.67,91 223.773,93 221,93 221,91.006 217.382,81 215,81 215,81 215,80 215,80 215,80 219,77 219,77 219,77 221,80.5 221,80.5 222.605,83.7096 227,87.283 227,91  Z"/>

<path  fill="#3EA665" stroke-width="0" stroke="#3EA665" d = " M230 91 L235,93 C235,93 241,81 241,81 241,81 241,80 241,80 241,80 237,77 237,77 237,81.7239 230,85.7238 230,91  Z"/>

<path  fill="#1F9D58" stroke-width="0" stroke="#1F9D58" d = " M151 133 L152,133 C152,126.646 159.699,115 167,115 167,108.516 186.966,104 192,104 192,102.012 197.237,98 199,98 199,94.2034 209,89.8652 209,86 209,81.8009 200.465,81 197.5,81 187.894,81 178.379,82.5604 169.5,87 146.734,98.3828 138.289,106.921 127,129.5 124.559,134.382 128,144.378 128,149 133.821,149 145.734,133 151,133  Z"/>

<path  fill="#1F9D58" stroke-width="0" stroke="#1F9D58" d = " M305 133 L328,149 C330.144,149 328.381,144.738 329,143.5 332.199,137.102 328.734,127.968 326,122.5 313.136,96.7711 296.201,93.3507 273.5,82 269.027,79.7635 247,79.77 247,86 247,86 257,98 257,98 258.763,98 264,102.012 264,104 264,104 265,104 265,104 277.213,104 305,119.168 305,133  Z"/>

<path  fill="#40A565" stroke-width="0" stroke="#40A565" d = " M221 93 C218.517,93 216.974,95 215,95 215,91.9864 210,88.5861 210,86 211.591,86 212.01,81 215,81 217.382,81 221,91.006 221,93  Z"/>

<path  fill="#40A565" stroke-width="0" stroke="#40A565" d = " M241 95 L242,95 C242,91.5296 246,88.9932 246,86 246,84.0075 242.661,81 241,81 241,81 235,93 235,93 236.623,93 241,93.0047 241,95  Z"/>

<path  fill="#3EA566" stroke-width="0" stroke="#3EA566" d = " M215 95 C213.135,95 199,99.7453 199,98 199,94.2034 209,89.8652 209,86 209,86 210,86 210,86 210,88.5861 215,91.9864 215,95  Z"/>

<path  fill="#3EA566" stroke-width="0" stroke="#3EA566" d = " M242 95 C245.206,95 249.814,97 252.5,97 253.202,97 257,100.848 257,98 257,98 247,86 247,86 247,86 246,86 246,86 246,88.9932 242,91.5296 242,95  Z"/>

<path  fill="#2FA750" stroke-width="0" stroke="#2FA750" d = " M223 127 L233,127 C233,127 235,93 235,93 235,93 230,91 230,91 229.316,91 227,96.7302 227,91 224.67,91 223.773,93 221,93 221,103.753 223,115.339 223,127  Z"/>

<path  fill="#2FA74F" stroke-width="0" stroke="#2FA74F" d = " M219 127 L223,127 C223,115.339 221,103.753 221,93 218.517,93 216.974,95 215,95 215,99.696 216.94,107.38 219,111.5 219,111.5 219,127 219,127  Z"/>

<path  fill="#2FA74F" stroke-width="0" stroke="#2FA74F" d = " M233 127 L237,127 C237,115.431 241,105.798 241,95 241,93.0047 236.623,93 235,93 235,93 233,127 233,127  Z"/>

<path  fill="#2EA84F" stroke-width="0" stroke="#2EA84F" d = " M201 119 C204.28,119 214.747,127 219,127 219,127 219,111.5 219,111.5 216.94,107.38 215,99.696 215,95 213.135,95 199,99.7453 199,98 197.237,98 192,102.012 192,104 192,104 192,105 192,105 198.515,105 201,113.828 201,119  Z"/>

<path  fill="#2EA84F" stroke-width="0" stroke="#2EA84F" d = " M255 120 L237,127 C237,115.431 241,105.798 241,95 241,95 242,95 242,95 245.206,95 249.814,97 252.5,97 253.202,97 257,100.848 257,98 258.763,98 264,102.012 264,104 264,104 259,107.5 259,107.5 257.351,110.798 255,115.116 255,119 255,119 255,120 255,120  Z"/>

<path  fill="#1D9C5A" stroke-width="0" stroke="#1D9C5A" d = " M188 109 C178.802,109 170.879,115 167,115 167,108.516 186.966,104 192,104 192,104 192,105 192,105 192,105 188,109 188,109  Z"/>

<path  fill="#2FA850" stroke-width="0" stroke="#2FA850" d = " M263 115 L255,119 C255,115.116 257.351,110.798 259,107.5 259,107.5 264,104 264,104 264,104 265,104 265,104 265,104 269,109 269,109 266.527,109 263,112.527 263,115  Z"/>

<path  fill="#1D9C5A" stroke-width="0" stroke="#1D9C5A" d = " M297 133 C300.354,133 302.291,133 305,133 305,119.168 277.213,104 265,104 265,104 269,109 269,109 277.245,109 281.798,111.649 288.5,115 290.309,115.905 295.732,125 292,125 292,125 297,133 297,133  Z"/>

<path  fill="#2FA850" stroke-width="0" stroke="#2FA850" d = " M193 114 L201,119 C201,113.828 198.515,105 192,105 192,105 188,109 188,109 188,109 193,114 193,114  Z"/>

<path  fill="#1E9D5A" stroke-width="0" stroke="#1E9D5A" d = " M115 109 L114,110 C114,110 115,109 115,109  Z"/>

<path  fill="#268E44" stroke-width="0" stroke="#268E44" d = " M184 116 C176.503,116 170.992,125 164,125 164,125 163,120.5 163,120.5 164.213,118.074 167,117.469 167,115 170.879,115 178.802,109 188,109 188,109 193,114 193,114 193,117.195 196.772,117 193,117 191.512,117 184,114.663 184,116  Z"/>

<path  fill="#268E44" stroke-width="0" stroke="#268E44" d = " M272 115 L292,125 C295.732,125 290.309,115.905 288.5,115 281.798,111.649 277.245,109 269,109 266.527,109 263,112.527 263,115 263,115.716 260.627,118 263,118 263,116.131 270.329,115 272,115  Z"/>

<path  fill="#1E9D5A" stroke-width="0" stroke="#1E9D5A" d = " M342 109 L343,110 C341.942,110 339.971,109 342,109  Z"/>

<path  fill="#1E9D5A" stroke-width="0" stroke="#1E9D5A" d = " M117 156 C115.762,156 112,157.923 112,159 109.293,159 108.876,151.252 108,149.5 103.325,140.15 105.555,127.391 110,118.5 110.767,116.965 111.845,110 114,110 114,112.167 115,113.855 115,117 115,117 115,120 115,120 112.984,120 112,127.698 112,129.5 112,134.016 109.707,139.914 112,144.5 113.114,146.729 117,152.713 117,155 117,155 117,156 117,156  Z"/>

<path  fill="#1E9D5A" stroke-width="0" stroke="#1E9D5A" d = " M340 155 L345,159 C345,159 349,151.5 349,151.5 350.072,149.356 352.401,133.303 351,130.5 351,130.5 347,117.5 347,117.5 347,117.5 343,111 343,111 342.908,111 341,114.65 341,116 341,116 341,119 341,119 343.595,119 343.191,125.883 344,127.5 349.338,138.175 340,147.465 340,155  Z"/>

<path  fill="#22885E" stroke-width="0" stroke="#22885E" d = " M201 119 C201,121.176 201.348,126 198,126 197.405,126 193,118.272 193,117 196.772,117 193,117.195 193,114 193,114 201,119 201,119  Z"/>

<path  fill="#1D9C5A" stroke-width="0" stroke="#1D9C5A" d = " M152 133 C155.066,133 156.417,133 159,133 160.985,133 164,126.738 164,125 164,125 163,120.5 163,120.5 164.213,118.074 167,117.469 167,115 159.699,115 152,126.646 152,133  Z"/>

<path  fill="#238A5C" stroke-width="0" stroke="#238A5C" d = " M198 127 C192.483,127 187.236,129 181,129 181,124.202 184,120.383 184,116 184,114.663 191.512,117 193,117 193,118.272 197.405,126 198,126 198,126 198,127 198,127  Z"/>

<path  fill="#22885E" stroke-width="0" stroke="#22885E" d = " M255 120 C255,121.738 255.686,126 258,126 258,126 263,118 263,118 260.627,118 263,115.716 263,115 263,115 255,119 255,119 255,119 255,120 255,120  Z"/>

<path  fill="#238A5C" stroke-width="0" stroke="#238A5C" d = " M258 127 C263.642,127 270.228,130 276,130 276,124.989 272,119.65 272,115 270.329,115 263,116.131 263,118 263,118 258,126 258,126 258,126 258,127 258,127  Z"/>

<path  fill="#24895D" stroke-width="0" stroke="#24895D" d = " M297 133 L300,142 C293.764,142 285.614,130 276,130 276,124.989 272,119.65 272,115 272,115 292,125 292,125 292,125 297,133 297,133  Z"/>

<path  fill="#24895D" stroke-width="0" stroke="#24895D" d = " M159 133 C159,136.559 156,138.504 156,142 161.612,142 170.332,130 181,130 181,130 181,129 181,129 181,124.202 184,120.383 184,116 176.503,116 170.992,125 164,125 164,126.738 160.985,133 159,133  Z"/>

<path  fill="#23885E" stroke-width="0" stroke="#23885E" d = " M213 158 L214,158 C220.889,158 219,131.142 219,127 214.747,127 204.28,119 201,119 201,121.176 201.348,126 198,126 198,126 198,127 198,127 198,127 202,134.5 202,134.5 205.289,141.078 213,150.411 213,158  Z"/>

<path  fill="#1F9C58" stroke-width="0" stroke="#1F9C58" d = " M339 155 L340,155 C340,147.465 349.338,138.175 344,127.5 343.191,125.883 343.595,119 341,119 341,125.78 340.588,138.324 338,143.5 336.676,146.147 335,149.9 335,153 335,153 339,155 339,155  Z"/>

<path  fill="#1F9C58" stroke-width="0" stroke="#1F9C58" d = " M121 153 L117,155 C117,152.713 113.114,146.729 112,144.5 109.707,139.914 112,134.016 112,129.5 112,127.698 112.984,120 115,120 115,126.826 118,135.975 118,142.5 118,145.979 121,148.994 121,153  Z"/>

<path  fill="#23885E" stroke-width="0" stroke="#23885E" d = " M242 158 L243,158 C243,150.857 258,132.33 258,127 258,127 258,126 258,126 255.686,126 255,121.738 255,120 255,120 237,127 237,127 237,134.178 234.943,146.386 238,152.5 238.571,153.643 242,157.724 242,158  Z"/>

<path  fill="#23885C" stroke-width="0" stroke="#23885C" d = " M182 147 C182,145.182 188.404,146.452 189.5,147 L213,158 C213,150.411 205.289,141.078 202,134.5 202,134.5 198,127 198,127 192.483,127 187.236,129 181,129 181,129 181,130 181,130 181,135.462 181,141.212 181,147 181,147 182,147 182,147  Z"/>

<path  fill="#24885D" stroke-width="0" stroke="#24885D" d = " M214 158 C214,159.285 218.129,169 219,169 223.882,169 221.625,163.25 223,160.5 227.365,151.771 223,136.31 223,127 223,127 219,127 219,127 219,131.142 220.889,158 214,158  Z"/>

<path  fill="#23895D" stroke-width="0" stroke="#23895D" d = " M226 179 L222,180 C222,180 219,170 219,170 219,170 219,169 219,169 223.882,169 221.625,163.25 223,160.5 227.365,151.771 223,136.31 223,127 223,127 233,127 233,127 233,135.096 230.056,153.613 233,159.5 234.42,162.341 232.095,169 237,169 237,169 237,170 237,170 237,173.708 235,175.942 235,180 232.75,180 231.624,178 230,178 230,174.286 227,171.418 227,177 227,177 226,179 226,179  Z"/>

<path  fill="#24885D" stroke-width="0" stroke="#24885D" d = " M242 158 C242,159.869 238.802,169 237,169 232.095,169 234.42,162.341 233,159.5 230.056,153.613 233,135.096 233,127 233,127 237,127 237,127 237,134.178 234.943,146.386 238,152.5 238.571,153.643 242,157.724 242,158  Z"/>

<path  fill="#23885C" stroke-width="0" stroke="#23885C" d = " M275 146 C262.638,146 251.926,158 243,158 243,150.857 258,132.33 258,127 263.642,127 270.228,130 276,130 276,134.64 277,136.576 277,140.5 277,140.5 275,146 275,146  Z"/>

<path  fill="#228A5D" stroke-width="0" stroke="#228A5D" d = " M149 162 C149,166.135 147,169.305 147,173 156.867,173 174.131,147 181,147 181,141.212 181,135.462 181,130 170.332,130 161.612,142 156,142 156,142 150,161 150,161 150,161 149,162 149,162  Z"/>

<path  fill="#228A5D" stroke-width="0" stroke="#228A5D" d = " M306 160 C306,164.062 309,168.575 309,173 299.289,173 282.576,147 275,147 275,147 275,146 275,146 275,146 277,140.5 277,140.5 277,136.576 276,134.64 276,130 285.614,130 293.764,142 300,142 300,142 301,142 301,142 301,142 306,160 306,160  Z"/>

<path  fill="#209666" stroke-width="0" stroke="#209666" d = " M159 133 C159,136.559 156,138.504 156,142 152.149,142 151,136.189 151,133 151,133 152,133 152,133 155.066,133 156.417,133 159,133  Z"/>

<path  fill="#209666" stroke-width="0" stroke="#209666" d = " M300 142 L301,142 C304.745,142 305,135.554 305,133 302.291,133 300.354,133 297,133 297,133 300,142 300,142  Z"/>

<path  fill="#209665" stroke-width="0" stroke="#209665" d = " M149 162 L142,173 C138.14,173 128,153.587 128,150 128,150 128,149 128,149 133.821,149 145.734,133 151,133 151,136.189 152.149,142 156,142 156,142 150,161 150,161 150,161 149,162 149,162  Z"/>

<path  fill="#209665" stroke-width="0" stroke="#209665" d = " M306 160 C309.813,160 310.566,173 314,173 318.753,173 328,154.134 328,150 328,150 328,149 328,149 328,149 305,133 305,133 305,135.554 304.745,142 301,142 301,142 306,160 306,160  Z"/>

<path  fill="#248A5D" stroke-width="0" stroke="#248A5D" d = " M219 169 L219,170 C208.164,170 197.75,159 186,159 186,159 185,159 185,159 185,154.302 182,151.847 182,147 182,145.182 188.404,146.452 189.5,147 189.5,147 213,158 213,158 213,158 214,158 214,158 214,159.285 218.129,169 219,169  Z"/>

<path  fill="#248A5D" stroke-width="0" stroke="#248A5D" d = " M237 169 L237,170 C248.031,170 258.196,159 270,159 270,159 271,159 271,159 271,159 275,147 275,147 275,147 275,146 275,146 262.638,146 251.926,158 243,158 243,158 242,158 242,158 242,159.869 238.802,169 237,169  Z"/>

<path  fill="#238A5E" stroke-width="0" stroke="#238A5E" d = " M147 174 L147,182 C150.519,182 153.269,176.115 155.5,175 166.978,169.261 170.644,159 185,159 185,154.302 182,151.847 182,147 182,147 181,147 181,147 174.131,147 156.867,173 147,173 147,173 147,174 147,174  Z"/>

<path  fill="#238A5E" stroke-width="0" stroke="#238A5E" d = " M309 183 L310,183 C310,183 309,173 309,173 299.289,173 282.576,147 275,147 275,147 271,159 271,159 288.061,159 288.083,169.292 299.5,175 301.519,176.009 309,179.908 309,183  Z"/>

<path  fill="#209765" stroke-width="0" stroke="#209765" d = " M134 182 L135,182 C135,182 142,174 142,174 142,174 142,173 142,173 138.14,173 128,153.587 128,150 128,150 121,153 121,153 121,153 117,155 117,155 117,155 117,156 117,156 117,161.038 134,177.524 134,182  Z"/>

<path  fill="#209765" stroke-width="0" stroke="#209765" d = " M314 174 C317.929,174 317.398,181 322,181 323.503,181 339,157.811 339,155 339,155 335,153 335,153 335,153 328,150 328,150 328,154.134 318.753,173 314,173 314,173 314,174 314,174  Z"/>

<path  fill="#209764" stroke-width="0" stroke="#209764" d = " M322 182 C323.947,182 324.636,185 327,185 327,185 331.5,179 331.5,179 333.421,178.039 345,161.745 345,159 345,159 340,155 340,155 340,155 339,155 339,155 339,157.811 323.503,181 322,181 322,181 322,182 322,182  Z"/>

<path  fill="#209764" stroke-width="0" stroke="#209764" d = " M134 182 L130,186 C129.052,186 112,162.235 112,159 112,157.923 115.762,156 117,156 117,161.038 134,177.524 134,182  Z"/>

<path  fill="#238A5D" stroke-width="0" stroke="#238A5D" d = " M147 183 L149,187 C152.05,187 153.483,181 157,181 157,179.253 157.253,179 159,179 159,173.832 180.685,165 186,165 186,165 186,159 186,159 186,159 185,159 185,159 170.644,159 166.978,169.261 155.5,175 153.269,176.115 150.519,182 147,182 147,182 147,183 147,183  Z"/>

<path  fill="#248A5B" stroke-width="0" stroke="#248A5B" d = " M219 170 L222,180 C211.79,180 199.559,165 186,165 186,165 186,159 186,159 197.75,159 208.164,170 219,170  Z"/>

<path  fill="#248A5B" stroke-width="0" stroke="#248A5B" d = " M237 170 C237,173.708 235,175.942 235,180 245.631,180 256.912,165 270,165 270,162.517 270,160.974 270,159 258.196,159 248.031,170 237,170  Z"/>

<path  fill="#238A5D" stroke-width="0" stroke="#238A5D" d = " M309 183 C309,184.465 309.109,187 307,187 307,187 296.5,177 296.5,177 287.378,172.439 281.057,165 270,165 270,162.517 270,160.974 270,159 270,159 271,159 271,159 288.061,159 288.083,169.292 299.5,175 301.519,176.009 309,179.908 309,183  Z"/>

<path  fill="#1F9865" stroke-width="0" stroke="#1F9865" d = " M314 173 L314,174 C314,174 309,173 309,173 309,168.575 306,164.062 306,160 309.813,160 310.566,173 314,173  Z"/>

<path  fill="#1F9865" stroke-width="0" stroke="#1F9865" d = " M150 161 L149,162 C149,162 150,161 150,161  Z"/>

<path  fill="#1F9865" stroke-width="0" stroke="#1F9865" d = " M142 174 L147,174 C147,174 147,173 147,173 147,169.305 149,166.135 149,162 149,162 142,173 142,173 142,173 142,174 142,174  Z"/>

<path  fill="#99D2BD" stroke-width="0" stroke="#99D2BD" d = " M217 229 C219.522,229 221.909,231 225,231 227.238,231 227,221.198 227,219 227,205.501 226,191.955 226,179 226,179 222,180 222,180 211.79,180 199.559,165 186,165 180.685,165 159,173.832 159,179 165.782,179 179.571,162.535 188.5,167 193.969,169.734 199.647,174.574 204.5,177 204.5,177 209,183 209,183 209,179.509 219.182,182.135 216,188.5 216,188.5 214.5,191 214.5,191 214.5,191 211,188 211,188 211,193.077 211.045,213.591 213,217.5 214.114,219.728 215.857,223.679 218.5,225 218.5,225 222,227.5 222,227.5 222,229.03 217,226.721 217,229  Z"/>

<path  fill="#99D2BD" stroke-width="0" stroke="#99D2BD" d = " M239 229 C236.478,229 234.091,231 231,231 231,229.094 229.901,224.302 229,222.5 226.64,217.781 230,184.062 230,178 231.624,178 232.75,180 235,180 245.631,180 256.912,165 270,165 281.057,165 287.378,172.439 296.5,177 296.5,177 307,187 307,187 307,189.462 315,190.851 315,192 315,199.901 321.913,201.587 314.5,209 314.5,209 311,212 311,212 311,209.785 309,210.481 309,209 312.139,209 312.216,196.933 311,194.5 306.432,185.365 292.911,175.205 284.5,171 274.324,165.912 267.214,167.143 257.5,172 257.5,172 247,184 247,184 247,178.005 240,182.602 240,187 240,187 241.5,191 241.5,191 242.545,191 243.361,189 245,189 245,194.331 245.089,214.321 243,218.5 241.034,222.432 235.96,224.579 235,226.5 233.799,228.901 239,227.091 239,229  Z"/>

<path  fill-rule="evenodd" fill="#54BF94" stroke-width="0" stroke="#54BF94" d = " M179 193 C179,193.832 186.963,212.427 188,214.5 L192.5,219 C195.612,217.444 193.122,205.744 192,203.5 189.888,199.276 194.573,197.646 193,194.5 191.495,191.489 182.019,193 179,193  M177 243 C182.243,243 187.016,252 193,252 193,243.524 200.943,232.779 208.5,229 208.5,229 217,229 217,229 217,226.721 222,229.03 222,227.5 222,227.5 218.5,225 218.5,225 215.857,223.679 214.114,219.728 213,217.5 211.045,213.591 211,193.077 211,188 211,188 211,187 211,187 211,187 210,186 210,186 210,186 210,185 210,185 210,185 209,184 209,184 209,184 209,183 209,183 209,183 204.5,177 204.5,177 199.647,174.574 193.969,169.734 188.5,167 179.571,162.535 165.782,179 159,179 159,180.747 158.747,181 157,181 157,181.943 146.149,193.203 145,195.5 145,195.5 145,208.5 145,208.5 145,208.5 147,210 147,210 147,210 150.5,209 150.5,209 155.962,211.731 177,238.602 177,243  Z"/>

<path  fill-rule="evenodd" fill="#54BF94" stroke-width="0" stroke="#54BF94" d = " M264 193 C264,194.501 265.223,202.053 265,202.5 263.488,205.524 259.331,216.416 264.5,219 266.823,220.162 269.304,209.891 270,208.5 270.718,207.064 278,194.521 278,194.5 278,191.935 265.893,193 264,193  M279 243 C276.48,243 268.358,252 264,252 264,244.508 255.25,232.375 248.5,229 248.5,229 239,229 239,229 239,227.091 233.799,228.901 235,226.5 235.96,224.579 241.034,222.432 243,218.5 245.089,214.321 245,194.331 245,189 245,189 247,184 247,184 247,184 257.5,172 257.5,172 267.214,167.143 274.324,165.912 284.5,171 292.911,175.205 306.432,185.365 311,194.5 312.216,196.933 312.139,209 309,209 302.103,209 289.649,226.201 287,231.5 284.697,236.106 279,237.355 279,243  Z"/>

<path  fill="#219764" stroke-width="0" stroke="#219764" d = " M322 182 C320.021,182 317.79,186 315.5,186 L310,183 C310,183 309,173 309,173 309,173 314,174 314,174 317.929,174 317.398,181 322,181 322,181 322,182 322,182  Z"/>

<path  fill="#219764" stroke-width="0" stroke="#219764" d = " M147 182 L147,183 C145.236,183 135,189.159 135,182 135,182 142,174 142,174 142,174 147,174 147,174 147,174 147,182 147,182  Z"/>

<path  fill="#99D2BD" stroke-width="0" stroke="#99D2BD" d = " M227 177 L226,179 C226,179 227,177 227,177  Z"/>

<path  fill="#99D2BD" stroke-width="0" stroke="#99D2BD" d = " M159 179 C157.253,179 157,179.253 157,181 158.747,181 159,180.747 159,179  Z"/>

<path  fill="#99D2BD" stroke-width="0" stroke="#99D2BD" d = " M147 210 L145,211 C142.591,211 143.945,209.723 142.5,209 134.052,204.776 141,198.815 141,192 142.6,192 149,188.884 149,187 152.05,187 153.483,181 157,181 157,181.943 146.149,193.203 145,195.5 145,195.5 145,208.5 145,208.5 145,208.5 147,210 147,210  Z"/>

<path  fill="#61D09F" stroke-width="0" stroke="#61D09F" d = " M211 187 L211,188 C211,188 214.5,191 214.5,191 214.5,191 216,188.5 216,188.5 219.182,182.135 209,179.509 209,183 209,183 209,184 209,184 209,184 210,185 210,185 210,185 210,186 210,186 210,186 211,187 211,187  Z"/>

<path  fill="#61D09F" stroke-width="0" stroke="#61D09F" d = " M247 184 L245,189 C243.361,189 242.545,191 241.5,191 241.5,191 240,187 240,187 240,182.602 247,178.005 247,184  Z"/>

<path  fill="#209864" stroke-width="0" stroke="#209864" d = " M149 187 C149,188.884 142.6,192 141,192 137.827,192 130,190.548 130,186 130,186 134,182 134,182 134,182 135,182 135,182 135,189.159 145.236,183 147,183 147,183 149,187 149,187  Z"/>

<path  fill="#209864" stroke-width="0" stroke="#209864" d = " M307 187 C307,189.462 315,190.851 315,192 319.367,192 327,190.305 327,185 324.636,185 323.947,182 322,182 320.021,182 317.79,186 315.5,186 315.5,186 310,183 310,183 310,183 309,183 309,183 309,184.465 309.109,187 307,187  Z"/>

<path  fill="#99D2BD" stroke-width="0" stroke="#99D2BD" d = " M209 184 L210,185 C210,185 209,184 209,184  Z"/>

<path  fill="#99D2BD" stroke-width="0" stroke="#99D2BD" d = " M210 186 L211,187 C211,187 210,186 210,186  Z"/>

<path  fill="#CBCBC7" stroke-width="0" stroke="#CBCBC7" d = " M179 193 C179,193.832 186.963,212.427 188,214.5 L192.5,219 C195.612,217.444 193.122,205.744 192,203.5 189.888,199.276 194.573,197.646 193,194.5 191.495,191.489 182.019,193 179,193  Z"/>

<path  fill="#CBCBC7" stroke-width="0" stroke="#CBCBC7" d = " M264 193 C264,194.501 265.223,202.053 265,202.5 263.488,205.524 259.331,216.416 264.5,219 266.823,220.162 269.304,209.891 270,208.5 270.718,207.064 278,194.521 278,194.5 278,191.935 265.893,193 264,193  Z"/>

<path  fill="#CAC8C7" stroke-width="0" stroke="#CAC8C7" d = " M145 211 C145,215.404 150.403,217.903 153.5,221 158.663,226.163 169.38,243 177,243 177,238.602 155.962,211.731 150.5,209 150.5,209 147,210 147,210 147,210 145,211 145,211  Z"/>

<path  fill="#CAC8C7" stroke-width="0" stroke="#CAC8C7" d = " M311 212 C311,216.561 304.565,217.37 303,220.5 299.86,226.781 286.62,243 279,243 279,237.355 284.697,236.106 287,231.5 289.649,226.201 302.103,209 309,209 309,210.481 311,209.785 311,212  Z"/>

<path  fill="#62CF9E" stroke-width="0" stroke="#62CF9E" d = " M225 231 C225,241.232 217.823,254.839 209.5,259 206.326,260.587 199.062,255.281 196.5,254 L193,252 C193,243.524 200.943,232.779 208.5,229 208.5,229 217,229 217,229 219.522,229 221.909,231 225,231  Z"/>

<path  fill="#62CF9E" stroke-width="0" stroke="#62CF9E" d = " M231 231 C231,236.056 242.129,262.685 249.5,259 L264,252 C264,244.508 255.25,232.375 248.5,229 248.5,229 239,229 239,229 236.478,229 234.091,231 231,231  Z"/>

</g>
</svg>
