<svg xmlns="http://www.w3.org/2000/svg" xmlns:xlink="http://www.w3.org/1999/xlink"  viewBox="0 0 456 320">
<g>
<rect width="456" height="320" fill="#000000"  stroke-width="0" /> 
<path  fill="#FCFB90" stroke-width="0" stroke="#FCFB90" d = " M155 132 C161.123,132 170.268,122.964 173,117.5 L174,97.5 C175.91,93.6805 177.084,89.3315 179,85.5 183.173,77.1549 194.049,70.7255 201.5,67 206.818,64.3412 214.051,65.7243 219.5,63 222.458,61.5211 227.985,65.2573 228.5,65 L229.5,63 C233.37,61.065 241.535,64.5177 244.5,66 L251.5,66 C259.898,70.1992 271.468,74.4359 276,83.5 278.615,88.7302 280.412,94.3249 283,99.5 284.138,101.775 281.342,106.185 282,107.5 283.645,110.79 282.368,115.235 284,118.5 286.233,122.965 295.366,132 301,132 301,119.47 300.126,95.7523 295,85.5 289.806,75.1117 282,65.5639 282,53 278.804,53 276.637,44.5687 273.5,43 266.913,39.7067 244.065,30.7175 235.5,35 225.515,39.9924 207.767,31.3665 196.5,37 191.576,39.4618 186.467,41.5167 181.5,44 181.5,44 174,53 174,53 174,66.2273 166.436,75.6284 161,86.5 157.17,94.1605 155,122.217 155,132  Z"/>

<path  fill="#FDFB8F" stroke-width="0" stroke="#FDFB8F" d = " M135 112 C137.603,112 139.076,103.348 140,101.5 L148,78.5 L150,67.5 C150.977,65.5465 158.325,57.9123 160.5,59 L156.5,64 L151,72.5 L149,84.5 L141,106.5 C137.313,113.874 142.413,123.326 145,128.5 145.87,130.241 155,135.214 155,132 155,122.217 157.17,94.1605 161,86.5 166.436,75.6284 174,66.2273 174,53 174,53 168.5,47 168.5,47 158.229,41.8647 127,60.2845 127,69 127,69 131,75.5 131,75.5 131,75.5 132,102.5 132,102.5 133.324,105.147 135,108.9 135,112  Z"/>

<path  fill="#FDFB8F" stroke-width="0" stroke="#FDFB8F" d = " M322 113 C319.249,113 317.93,104.36 317,102.5 313.641,95.7815 312.375,88.2509 309,81.5 L307,68.5 C306.2,66.8998 297.597,58.4513 296.5,59 L305,71.5 C306.586,74.6718 305.439,79.3775 307,82.5 310.6,89.6995 311.372,98.2449 315,105.5 317.592,110.685 316.404,123.096 312.5,127 311.635,127.865 301,136.993 301,132 301,119.47 300.126,95.7523 295,85.5 289.806,75.1117 282,65.5639 282,53 282,53 288.5,47 288.5,47 297.921,42.2897 329,59.3645 329,69 329,70.6539 325.845,75.8107 325,77.5 325,77.5 325,99.5 325,99.5 323.044,103.411 322,108.31 322,113  Z"/>

<path  fill-rule="evenodd" fill="#CBC9CC" stroke-width="0" stroke="#CBC9CC" d = " M209 143 C209,145.431 208.109,151.804 210.5,153 L213.5,151 C217.144,149.178 221.872,149.814 225.5,148 231.854,144.823 240.383,153 245.5,153 247.546,153 247.747,143.624 246.5,143 244.561,142.03 240.066,144.217 238.5,145 L223.5,145 C217.942,145 214.37,143 209,143  M348 159 C353.316,159 358.104,160.802 362.5,163 L366.5,166 C367.715,165.393 364.047,159 367,159 367,156.102 372,157.891 372,155.5 372,155.5 361.5,156 361.5,156 357.987,154.244 337,149.656 337,146 326.441,146 323.69,125.405 336.5,119 337.284,118.608 339.6,114.699 339,113.5 339,113.5 332.5,119 332.5,119 330.338,120.081 322,115.701 322,113 319.249,113 317.93,104.36 317,102.5 313.641,95.7815 312.375,88.2509 309,81.5 309,81.5 307,68.5 307,68.5 306.2,66.8998 297.597,58.4513 296.5,59 296.5,59 305,71.5 305,71.5 306.586,74.6718 305.439,79.3775 307,82.5 310.6,89.6995 311.372,98.2449 315,105.5 317.592,110.685 316.404,123.096 312.5,127 311.635,127.865 301,136.993 301,132 295.366,132 286.233,122.965 284,118.5 282.368,115.235 283.645,110.79 282,107.5 281.342,106.185 284.138,101.775 283,99.5 280.412,94.3249 278.615,88.7302 276,83.5 271.468,74.4359 259.898,70.1992 251.5,66 251.5,66 244.5,66 244.5,66 241.535,64.5177 233.37,61.065 229.5,63 229.5,63 228.5,65 228.5,65 227.985,65.2573 222.458,61.5211 219.5,63 214.051,65.7243 206.818,64.3412 201.5,67 194.049,70.7255 183.173,77.1549 179,85.5 177.084,89.3315 175.91,93.6805 174,97.5 174,97.5 173,117.5 173,117.5 170.268,122.964 161.123,132 155,132 155,135.214 145.87,130.241 145,128.5 142.413,123.326 137.313,113.874 141,106.5 141,106.5 149,84.5 149,84.5 149,84.5 151,72.5 151,72.5 151,72.5 156.5,64 156.5,64 156.5,64 160.5,59 160.5,59 158.325,57.9123 150.977,65.5465 150,67.5 150,67.5 148,78.5 148,78.5 148,78.5 140,101.5 140,101.5 139.076,103.348 137.603,112 135,112 135,115.101 126.362,120.431 123.5,119 120.849,117.674 115.695,108.11 115,109.5 115,109.5 119,117.5 119,117.5 119,117.5 123.5,121 123.5,121 130.953,128.453 129.04,133.421 125,141.5 124.582,142.336 121.533,146 120,146 120,146 112.5,151 112.5,151 107.081,153.71 100.01,153.245 94.5,156 91.5725,157.464 81.2359,153.028 81,153.5 80.2142,155.072 89,156.466 89,159 93.4289,159 88.6817,166 90.5,166 90.8032,166 102.04,159 109,159 109,159 120.5,159 120.5,159 122.294,159.897 125.615,164 127,164 132.545,164 129,161.641 129,159 129,135.492 141.93,151.285 148.5,148 151.63,146.435 154.348,144.576 157.5,143 157.5,143 161.5,143 161.5,143 164.243,141.628 173.312,135.406 176.5,137 180.866,139.183 178,141.546 178,145 178,145 185,145 185,145 185,145 188.5,141 188.5,141 194.294,138.103 211.991,144.518 208,152.5 206.928,154.644 201,157.611 201,159 201,159 207,158 207,158 207,158 212.5,155 212.5,155 221.669,150.416 229.655,148.077 239.5,153 241.029,153.765 249,156.162 249,158 249,158 261,161 261,161 261,158.335 243.975,157.549 249,147.5 251.679,142.141 271,136.765 271,145 271,145 278,145 278,145 278,141.841 275.787,138.857 279.5,137 281.274,136.113 302.559,145.53 305.5,147 310.927,149.713 316.881,143.19 322.5,146 327.024,148.262 327,154.596 327,159 327,161.313 324.727,164 329,164 329,164 336.5,159 336.5,159 336.5,159 348,159 348,159  M207 137 C214.465,137 224.654,147.423 233.5,143 237.192,141.154 244.967,137 249,137 258.001,137 271.094,125.311 275,117.5 275,117.5 280,113.5 280,113.5 282.255,108.99 281.069,100.637 279,96.5 273.967,86.4337 264.502,77.0009 254.5,72 254.5,72 246.5,71 246.5,71 244.437,69.9687 228.456,67.0219 226.5,68 222.773,69.8636 217.116,67.1922 213.5,69 203.547,73.9765 189.451,74.5981 183,87.5 181.483,90.5348 173.33,103.16 175,106.5 175.92,108.339 175.133,110.766 176,112.5 179.531,119.563 198.218,137 207,137  Z"/>

<path  fill-rule="evenodd" fill="#FCFC90" stroke-width="0" stroke="#FCFC90" d = " M114 87 C114,90.0305 108,92.9797 108,95.5 L113,101.5 L114.5,107 C116.132,107 113,98.3575 113,97.5 113,95.4985 115.708,87 114,87  M71 120 C76.107,120 87.3551,120.21 90,125.5 92.6381,130.776 93.5349,138.017 99.5,141 104.579,143.539 111.399,142.45 116.5,145 117.546,145.523 120,144.049 120,146 121.533,146 124.582,142.336 125,141.5 129.04,133.421 130.953,128.453 123.5,121 123.5,121 119,117.5 119,117.5 119,117.5 115,109.5 115,109.5 115.695,108.11 120.849,117.674 123.5,119 126.362,120.431 135,115.101 135,112 135,108.9 133.324,105.147 132,102.5 132,102.5 131,75.5 131,75.5 131,75.5 127,69 127,69 120.911,69 116.287,68.1067 110.5,71 100.869,75.8155 75.8001,103.9 71,113.5 71,113.5 71,120 71,120  Z"/>

<path  fill="#FCFB90" stroke-width="0" stroke="#FCFB90" d = " M207 137 C198.218,137 179.531,119.563 176,112.5 175.133,110.766 175.92,108.339 175,106.5 173.33,103.16 181.483,90.5348 183,87.5 189.451,74.5981 203.547,73.9765 213.5,69 217.116,67.1922 222.773,69.8636 226.5,68 228.456,67.0219 244.437,69.9687 246.5,71 L254.5,72 C264.502,77.0009 273.967,86.4337 279,96.5 281.069,100.637 282.255,108.99 280,113.5 L275,117.5 C271.094,125.311 258.001,137 249,137 249,124.749 258.319,118.139 252,105.5 248.701,98.9024 240.46,102.48 235.5,100 228.282,96.3912 207.429,98.642 203,107.5 197.941,117.618 207,127.343 207,137  Z"/>

<path  fill-rule="evenodd" fill="#FCFC90" stroke-width="0" stroke="#FCFC90" d = " M340 109 L339,110.5 C336.312,115.875 344.521,109 340,109  M342 102 L341,104.5 C338.119,110.262 346.959,102 342,102  M341 87 L343,92.5 L343,101.5 L348,96.5 C348.416,95.6678 342.33,87 341,87  M385 120 C380.972,120 369.017,120.466 367,124.5 364.868,128.764 363.577,137.461 358.5,140 354.092,142.204 347.175,144 342,144 341.329,144 337,145.328 337,146 326.441,146 323.69,125.405 336.5,119 337.284,118.608 339.6,114.699 339,113.5 339,113.5 332.5,119 332.5,119 330.338,120.081 322,115.701 322,113 322,108.31 323.044,103.411 325,99.5 325,99.5 325,77.5 325,77.5 325.845,75.8107 329,70.6539 329,69 333.108,69 337.375,66.9377 341.5,69 357.217,76.8584 378.369,100.238 386,115.5 386,115.5 385,120 385,120  Z"/>

<path  fill="#CBC9CC" stroke-width="0" stroke="#CBC9CC" d = " M114 87 C114,90.0305 108,92.9797 108,95.5 L113,101.5 L114.5,107 C116.132,107 113,98.3575 113,97.5 113,95.4985 115.708,87 114,87  Z"/>

<path  fill="#CBC9CC" stroke-width="0" stroke="#CBC9CC" d = " M341 87 L343,92.5 L343,101.5 L348,96.5 C348.416,95.6678 342.33,87 341,87  Z"/>

<path  fill="#FFFC8E" stroke-width="0" stroke="#FFFC8E" d = " M207 137 C214.465,137 224.654,147.423 233.5,143 237.192,141.154 244.967,137 249,137 249,124.749 258.319,118.139 252,105.5 248.701,98.9024 240.46,102.48 235.5,100 228.282,96.3912 207.429,98.642 203,107.5 197.941,117.618 207,127.343 207,137  Z"/>

<path  fill="#CBC9CC" stroke-width="0" stroke="#CBC9CC" d = " M342 102 L341,104.5 C338.119,110.262 346.959,102 342,102  Z"/>

<path  fill="#CBC9CC" stroke-width="0" stroke="#CBC9CC" d = " M340 109 L339,110.5 C336.312,115.875 344.521,109 340,109  Z"/>

<path  fill="#FCFA91" stroke-width="0" stroke="#FCFA91" d = " M89 159 L76,167 C75.1583,167 70.4595,162.419 70,161.5 67.1099,155.72 58.992,145.516 63,137.5 65.0675,133.365 71,123.856 71,120 76.107,120 87.3551,120.21 90,125.5 92.6381,130.776 93.5349,138.017 99.5,141 104.579,143.539 111.399,142.45 116.5,145 117.546,145.523 120,144.049 120,146 120,146 112.5,151 112.5,151 107.081,153.71 100.01,153.245 94.5,156 91.5725,157.464 81.2359,153.028 81,153.5 80.2142,155.072 89,156.466 89,159  Z"/>

<path  fill-rule="evenodd" fill="#FCFA91" stroke-width="0" stroke="#FCFA91" d = " M374 153 L372.5,155 C374.45,155.975 376.175,153 374,153  M367 159 C368.636,159 380,165.451 380,167 383.621,167 387.763,159.974 389,157.5 392.86,149.78 395.288,139.075 391,130.5 389.221,126.941 385,124.252 385,120 380.972,120 369.017,120.466 367,124.5 364.868,128.764 363.577,137.461 358.5,140 354.092,142.204 347.175,144 342,144 341.329,144 337,145.328 337,146 337,149.656 357.987,154.244 361.5,156 361.5,156 372,155.5 372,155.5 372,157.891 367,156.102 367,159  Z"/>

<path  fill="#FFFDBC" stroke-width="0" stroke="#FFFDBC" d = " M135 178 L137,180 C137,180 150,175 150,175 150,175 151,174 151,174 151,174 152,174 152,174 152,172.338 156.357,171 158,171 158,168.891 160.535,169 162,169 162,164.39 163.255,155 169,155 169,155 171,154 171,154 171,154 175,150 175,150 175,150 176,149 176,149 176,149 178,145 178,145 178,141.546 180.866,139.183 176.5,137 173.312,135.406 164.243,141.628 161.5,143 161.5,143 157.5,143 157.5,143 154.348,144.576 151.63,146.435 148.5,148 141.93,151.285 129,135.492 129,159 132.631,159 137,172.09 137,174.5 137,174.892 135,176.06 135,178  Z"/>

<path  fill="#FFFDBC" stroke-width="0" stroke="#FFFDBC" d = " M322 178 L319,180 C319,180 306,175 306,175 306,173.177 296.83,169 295,169 295,169 294,169 294,169 294,163.513 292.464,153 285,153 285,153 284,153 284,153 284,153 283,152 283,152 283,152 282,151 282,151 282,151 278,145 278,145 278,141.841 275.787,138.857 279.5,137 281.274,136.113 302.559,145.53 305.5,147 310.927,149.713 316.881,143.19 322.5,146 327.024,148.262 327,154.596 327,159 323.386,159 318.818,172.136 320,174.5 320,174.5 322,178 322,178  Z"/>

<path  fill="#FFFCBC" stroke-width="0" stroke="#FFFCBC" d = " M188 163 L190,163 C190,161.362 193.576,161 195,161 195,159.647 199.643,159 201,159 201,157.611 206.928,154.644 208,152.5 211.991,144.518 194.294,138.103 188.5,141 188.5,141 185,145 185,145 185,146.32 181.865,155 181,155 181,155 181,157 181,157 181,157 180,158 180,158 180,158 180,160 180,160 180,160 181,162 181,162 181,162 185,164 185,164 185,164 188,163 188,163  Z"/>

<path  fill="#FFFCBC" stroke-width="0" stroke="#FFFCBC" d = " M275 163 L271,164 C271,164 268,163 268,163 268,163 267,163 267,163 267,163 266,163 266,163 266,160.891 263.465,161 262,161 262,161 261,161 261,161 261,158.335 243.975,157.549 249,147.5 251.679,142.141 271,136.765 271,145 271,146.207 275.448,157 276,157 276,157 276,159 276,159 276,159 275,163 275,163  Z"/>

<path  fill="#CBC8CA" stroke-width="0" stroke="#CBC8CA" d = " M209 143 C209,145.431 208.109,151.804 210.5,153 L213.5,151 C217.144,149.178 221.872,149.814 225.5,148 231.854,144.823 240.383,153 245.5,153 247.546,153 247.747,143.624 246.5,143 244.561,142.03 240.066,144.217 238.5,145 L223.5,145 C217.942,145 214.37,143 209,143  Z"/>

<path  fill="#F0F080" stroke-width="0" stroke="#F0F080" d = " M176 149 C181.051,149 181,149.036 181,155 181.865,155 185,146.32 185,145 185,145 178,145 178,145 178,145 176,149 176,149  Z"/>

<path  fill="#F0F080" stroke-width="0" stroke="#F0F080" d = " M282 151 L279.5,149 C273.672,146.086 276,153.96 276,157 275.448,157 271,146.207 271,145 271,145 278,145 278,145 278,145 282,151 282,151  Z"/>

<path  fill="#FEB1D8" stroke-width="0" stroke="#FEB1D8" d = " M180 160 L177,163 C173.628,163 163.732,164.037 167,157.5 167,157.5 169,155 169,155 169,155 171,154 171,154 171,154 175,150 175,150 175,150 176,149 176,149 181.051,149 181,149.036 181,155 181,155 181,157 181,157 181,157 180,158 180,158 180,158 180,160 180,160  Z"/>

<path  fill="#FEB1D8" stroke-width="0" stroke="#FEB1D8" d = " M276 157 L276,159 C276,159 280.5,163 280.5,163 282.918,164.209 292.088,162.676 290,158.5 290,158.5 285,153 285,153 285,153 284,153 284,153 284,153 283,152 283,152 283,152 282,151 282,151 282,151 279.5,149 279.5,149 273.672,146.086 276,153.96 276,157  Z"/>

<path  fill="#F0F080" stroke-width="0" stroke="#F0F080" d = " M176 149 L175,150 C175,150 176,149 176,149  Z"/>

<path  fill="#FEFA91" stroke-width="0" stroke="#FEFA91" d = " M207 158 C210.322,158 218.408,159.454 221.5,161 229.185,164.843 241.972,158 249,158 249,156.162 241.029,153.765 239.5,153 229.655,148.077 221.669,150.416 212.5,155 212.5,155 207,158 207,158  Z"/>

<path  fill="#F0F080" stroke-width="0" stroke="#F0F080" d = " M283 152 L284,153 C284,153 283,152 283,152  Z"/>

<path  fill="#F0F080" stroke-width="0" stroke="#F0F080" d = " M288 170 L289,170 C289,168.357 292.765,169 294,169 294,163.513 292.464,153 285,153 285,153 290,158.5 290,158.5 292.088,162.676 282.918,164.209 280.5,163 280.5,163 276,159 276,159 276,159 275,163 275,163 281.14,163 286.472,170 288,170  Z"/>

<path  fill="#CBC9CC" stroke-width="0" stroke="#CBC9CC" d = " M374 153 L372.5,155 C374.45,155.975 376.175,153 374,153  Z"/>

<path  fill="#F0F080" stroke-width="0" stroke="#F0F080" d = " M171 154 L169,155 C169,155 171,154 171,154  Z"/>

<path  fill="#F0F080" stroke-width="0" stroke="#F0F080" d = " M162 169 L169,170 C169,166.486 177,164.991 177,163 173.628,163 163.732,164.037 167,157.5 167,157.5 169,155 169,155 163.255,155 162,164.39 162,169  Z"/>

<path  fill="#F0F080" stroke-width="0" stroke="#F0F080" d = " M181 157 L180,158 C180,158 181,157 181,157  Z"/>

<path  fill="#FDFC8F" stroke-width="0" stroke="#FDFC8F" d = " M244 177 L247,177 C247,177 249,176 249,176 249,176 250,176 250,176 250,176 252,175 252,175 252,175 254,175 254,175 254,175 255,174 255,174 255,174 258,174 258,174 258,174 259,173 259,173 259,173 263,173 263,173 263,170.63 265,169.545 265,166 265,166 265,163 265,163 265,163 262,161 262,161 262,161 261,161 261,161 261,161 249,158 249,158 241.972,158 229.185,164.843 221.5,161 218.408,159.454 210.322,158 207,158 207,158 201,159 201,159 201,160.995 196.623,161 195,161 195,161 191,163 191,163 191,163 191,167 191,167 191,169.72 193,170.553 193,173 193,173 201,174 201,174 201,174 203,175 203,175 203,175 205,175 205,175 205,175 207,176 207,176 207,176 208,176 208,176 208,176 210,177 210,177 210,177 212,177 212,177 212,177 227.5,180 227.5,180 230.017,178.742 239.995,177 244,177  Z"/>

<path  fill="#FFFB8E" stroke-width="0" stroke="#FFFB8E" d = " M105 173 C99.4639,173 99,184.677 99,188 97.3568,188 88.3398,189.42 87.5,189 80.4918,185.496 76,174.434 76,167 76,167 89,159 89,159 93.4289,159 88.6817,166 90.5,166 90.8032,166 102.04,159 109,159 109,163.25 106,167.447 106,172 106,172 105,173 105,173  Z"/>

<path  fill="#FFF990" stroke-width="0" stroke="#FFF990" d = " M129 177 L124,187 C120.863,187 112.731,172 106,172 106,167.447 109,163.25 109,159 109,159 120.5,159 120.5,159 122.294,159.897 125.615,164 127,164 127,166.846 129,169.382 129,173 129,173 129,177 129,177  Z"/>

<path  fill="#FFFDBB" stroke-width="0" stroke="#FFFDBB" d = " M130 176 L135,178 C135,176.06 137,174.892 137,174.5 137,172.09 132.631,159 129,159 129,161.641 132.545,164 127,164 127,166.846 129,169.382 129,173 130.473,173 130,174.952 130,176  Z"/>

<path  fill="#CBC9CC" stroke-width="0" stroke="#CBC9CC" d = " M201 159 C199.643,159 195,159.647 195,161 196.623,161 201,160.995 201,159  Z"/>

<path  fill="#FFFDBB" stroke-width="0" stroke="#FFFDBB" d = " M326 176 L322,178 C322,178 320,174.5 320,174.5 318.818,172.136 323.386,159 327,159 327,161.313 324.727,164 329,164 329,167.911 327,170.607 327,175 327,175 326,176 326,176  Z"/>

<path  fill="#FFF990" stroke-width="0" stroke="#FFF990" d = " M327 176 C327,177.575 331.409,188 333,188 333,183.409 346.271,172 351,172 351,167.75 348,163.553 348,159 348,159 336.5,159 336.5,159 336.5,159 329,164 329,164 329,167.911 327,170.607 327,175 327,175 327,176 327,176  Z"/>

<path  fill="#FFFB8E" stroke-width="0" stroke="#FFFB8E" d = " M351 172 C351,172.966 358,180.2 358,188 359.845,188 366.263,190.119 368.5,189 376.222,185.139 380,175.093 380,167 380,165.451 368.636,159 367,159 364.047,159 367.715,165.393 366.5,166 366.5,166 362.5,163 362.5,163 358.104,160.802 353.316,159 348,159 348,163.553 351,167.75 351,172  Z"/>

<path  fill="#F0F080" stroke-width="0" stroke="#F0F080" d = " M181 162 C181,163.579 178.145,163 177,163 177,163 180,160 180,160 180,160 181,162 181,162  Z"/>

<path  fill="#CBC9CC" stroke-width="0" stroke="#CBC9CC" d = " M190 163 L191,163 C191,163 195,161 195,161 193.576,161 190,161.362 190,163  Z"/>

<path  fill="#CBC9CC" stroke-width="0" stroke="#CBC9CC" d = " M265 163 L266,163 C266,160.891 263.465,161 262,161 262,161 265,163 265,163  Z"/>

<path  fill="#FEFDBC" stroke-width="0" stroke="#FEFDBC" d = " M170 174 L171,174 C171,173.114 176.824,171 178,171 178,171 180,170 180,170 180,170 181,169 181,169 181,169 182,169 182,169 182,167.777 185,167.591 185,164 185,164 181,162 181,162 181,163.579 178.145,163 177,163 177,164.991 169,166.486 169,170 169,170 169,171 169,171 169,171 169,172 169,172 169,172 170,173 170,173 170,173 170,174 170,174  Z"/>

<path  fill="#F0F080" stroke-width="0" stroke="#F0F080" d = " M182 169 L183,169 C183,169 191,167 191,167 191,167 191,163 191,163 191,163 190,163 190,163 190,164.399 188,164.399 188,163 188,163 185,164 185,164 185,167.591 182,167.777 182,169  Z"/>

<path  fill="#CBC9CC" stroke-width="0" stroke="#CBC9CC" d = " M188 163 L190,163 C190,164.399 188,164.399 188,163  Z"/>

<path  fill="#F0F080" stroke-width="0" stroke="#F0F080" d = " M273 169 L274,169 C274,166.703 271,167.151 271,164 271,164 268,163 268,163 268,164.186 267,164.186 267,163 267,163 266,163 266,163 266,163 265,163 265,163 265,163 265,166 265,166 265,166 273,169 273,169  Z"/>

<path  fill="#CBC9CC" stroke-width="0" stroke="#CBC9CC" d = " M267 163 L268,163 C268,164.186 267,164.186 267,163  Z"/>

<path  fill="#FEFDBC" stroke-width="0" stroke="#FEFDBC" d = " M286 173 L287,173 C287,173 288,171 288,171 288,171 288,170 288,170 286.472,170 281.14,163 275,163 275,163 271,164 271,164 271,167.151 274,166.703 274,169 274,169 275,169 275,169 276.238,169 278,169.423 278,171 278,171 279,171 279,171 279,171 286,173 286,173  Z"/>

<path  fill="#AAA9A7" stroke-width="0" stroke="#AAA9A7" d = " M273 171 C270.022,171 265.978,173 263,173 263,170.63 265,169.545 265,166 265,166 273,169 273,169 273,169 273,171 273,171  Z"/>

<path  fill="#AAA9A7" stroke-width="0" stroke="#AAA9A7" d = " M183 171 C185.978,171 190.022,173 193,173 193,170.553 191,169.72 191,167 191,167 183,169 183,169 183,169 183,171 183,171  Z"/>

<path  fill="#F0F080" stroke-width="0" stroke="#F0F080" d = " M158 171 L160,171 C160,171 161,170 161,170 161,170 162,170 162,170 162,170 162,169 162,169 160.535,169 158,168.891 158,171  Z"/>

<path  fill="#FF9BCD" stroke-width="0" stroke="#FF9BCD" d = " M169 170 L169,171 C169,171 162,170 162,170 162,170 162,169 162,169 162,169 169,170 169,170  Z"/>

<path  fill="#F0F080" stroke-width="0" stroke="#F0F080" d = " M181 169 L180,170 C180,170 181,169 181,169  Z"/>

<path  fill="#A9AAA7" stroke-width="0" stroke="#A9AAA7" d = " M180 171 L183,171 C183,171 183,169 183,169 183,169 182,169 182,169 182,169 181,169 181,169 181,169 180,170 180,170 180,170 180,171 180,171  Z"/>

<path  fill="#A9AAA7" stroke-width="0" stroke="#A9AAA7" d = " M283 176 C281.436,176 279.124,177 277,177 277,174.994 282.505,171 273,171 273,171 273,169 273,169 273,169 274,169 274,169 274,169 275,169 275,169 275,169 278,171 278,171 278,171 279,171 279,171 279,171 283,176 283,176  Z"/>

<path  fill="#F0F080" stroke-width="0" stroke="#F0F080" d = " M275 169 C276.238,169 278,169.423 278,171 278,171 275,169 275,169  Z"/>

<path  fill="#FF9BCD" stroke-width="0" stroke="#FF9BCD" d = " M289 170 L297,171 C297,171 295,169 295,169 295,169 294,169 294,169 292.765,169 289,168.357 289,170  Z"/>

<path  fill="#F0F080" stroke-width="0" stroke="#F0F080" d = " M302 177 L303,177 C303,172.742 302.044,175 306,175 306,173.177 296.83,169 295,169 295,169 297,171 297,171 299.393,171 300,174.234 300,176 300,176 302,177 302,177  Z"/>

<path  fill="#FF9BCD" stroke-width="0" stroke="#FF9BCD" d = " M161 170 L160,171 C160,171 161,170 161,170  Z"/>

<path  fill="#FDB3D6" stroke-width="0" stroke="#FDB3D6" d = " M170 174 C170,188.172 156.907,177 156,177 156,174.517 158,172.974 158,171 158,171 160,171 160,171 160,171 161,170 161,170 161,170 162,170 162,170 162,170 169,171 169,171 169,171 169,172 169,172 169,172 170,173 170,173 170,173 170,174 170,174  Z"/>

<path  fill="#F0F080" stroke-width="0" stroke="#F0F080" d = " M178 171 L180,171 C180,171 180,170 180,170 180,170 178,171 178,171  Z"/>

<path  fill="#A9AAA8" stroke-width="0" stroke="#A9AAA8" d = " M233 198 L232,199 C230.209,199 229.041,202.27 226.5,201 226.5,201 223,198 223,198 223,198 223,197 223,197 223,197 218,190.5 218,190.5 210.488,175.475 200.084,177 186,177 186,177 179,177 179,177 179,175.76 177,175.424 177,173 178.238,173 180,172.577 180,171 180,171 183,171 183,171 185.978,171 190.022,173 193,173 193,173 201,174 201,174 201,174 203,175 203,175 203,175 205,175 205,175 205,175 207,176 207,176 207,176 208,176 208,176 208,176 210,177 210,177 210,177 212,177 212,177 212,182.286 235.11,181.195 239.5,179 240.619,178.441 244,178.845 244,177 244,177 247,177 247,177 247,177 249,176 249,176 249,176 250,176 250,176 250,176 252,175 252,175 252,175 254,175 254,175 254,175 255,174 255,174 255,174 258,174 258,174 258,174 259,173 259,173 259,173 263,173 263,173 265.978,173 270.022,171 273,171 282.505,171 277,174.994 277,177 277,177 271,177 271,177 264.663,177 243,173.47 243,185 241.253,185 241,185.253 241,187 239.383,187 237,191.583 237,193 237,193 235,195 235,195 235,195 235,196 235,196 235,196 234,197 234,197 234,197 233,198 233,198  Z"/>

<path  fill="#FF9BCD" stroke-width="0" stroke="#FF9BCD" d = " M289 170 L288,171 C288,171 288,170 288,170 288,170 289,170 289,170  Z"/>

<path  fill="#FDB3D6" stroke-width="0" stroke="#FDB3D6" d = " M300 176 L299,179 C293.219,179 287,185.239 287,173 287,173 288,171 288,171 288,171 289,170 289,170 289,170 297,171 297,171 299.393,171 300,174.234 300,176  Z"/>

<path  fill="#F0F080" stroke-width="0" stroke="#F0F080" d = " M155 177 L156,177 C156,174.517 158,172.974 158,171 156.357,171 152,172.338 152,174 155.382,174 153,175.342 153,177 153,177 155,177 155,177  Z"/>

<path  fill="#F0F080" stroke-width="0" stroke="#F0F080" d = " M171 174 L173,176 C173,174.288 175.571,173 177,173 177,173 178,171 178,171 176.824,171 171,173.114 171,174  Z"/>

<path  fill="#A9AAA7" stroke-width="0" stroke="#A9AAA7" d = " M180 171 C180,172.577 178.238,173 177,173 177,173 178,171 178,171 178,171 180,171 180,171  Z"/>

<path  fill="#F0F080" stroke-width="0" stroke="#F0F080" d = " M286 173 C286,175.041 285.041,176 283,176 283,176 279,171 279,171 279,171 286,173 286,173  Z"/>

<path  fill="#FFF990" stroke-width="0" stroke="#FFF990" d = " M106 172 L105,173 C105,173 106,172 106,172  Z"/>

<path  fill="#FFFC8D" stroke-width="0" stroke="#FFFC8D" d = " M112 217 L117,217 C118.936,217 119.904,204 122,204 122,204 122,202 122,202 122,202 120,199.5 120,199.5 116.959,193.418 124,192.367 124,187 120.863,187 112.731,172 106,172 106,172 105,173 105,173 99.4639,173 99,184.677 99,188 99,191.339 107.071,205.643 109,209.5 109.846,211.192 108.917,217 112,217  Z"/>

<path  fill="#FF9BCD" stroke-width="0" stroke="#FF9BCD" d = " M169 172 L170,173 C170,173 169,172 169,172  Z"/>

<path  fill="#FFFC8D" stroke-width="0" stroke="#FFFC8D" d = " M339 217 L345,217 C345,217 347,214.5 347,214.5 347,214.5 349,204.5 349,204.5 351.183,200.134 358,192.86 358,188 358,180.2 351,172.966 351,172 346.271,172 333,183.409 333,188 333,192.918 338.791,193.918 336,199.5 335.541,200.419 336.765,202 335,202 335,202 335,206 335,206 335,206 335,207 335,207 336.693,207 339,215.239 339,217  Z"/>

<path  fill="#F0F080" stroke-width="0" stroke="#F0F080" d = " M130 176 L129,177 C129,177 129,173 129,173 130.473,173 130,174.952 130,176  Z"/>

<path  fill="#A9AAA7" stroke-width="0" stroke="#A9AAA7" d = " M173 176 C174.564,176 176.876,177 179,177 179,175.76 177,175.424 177,173 175.571,173 173,174.288 173,176  Z"/>

<path  fill="#AAA9A7" stroke-width="0" stroke="#AAA9A7" d = " M259 173 L258,174 C258,174 259,173 259,173  Z"/>

<path  fill="#FF9BCD" stroke-width="0" stroke="#FF9BCD" d = " M302 188 L302,189 C297.774,189 282.393,178 271,178 271,178 271,177 271,177 271,177 277,177 277,177 279.124,177 281.436,176 283,176 285.041,176 286,175.041 286,173 286,173 287,173 287,173 287,185.239 293.219,179 299,179 299,180.732 297.484,187 301,187 301,187 302,188 302,188  Z"/>

<path  fill="#F0F080" stroke-width="0" stroke="#F0F080" d = " M151 174 L150,175 C150,175 151,174 151,174  Z"/>

<path  fill="#A9AAA7" stroke-width="0" stroke="#A9AAA7" d = " M137 180 C133.252,180 127,187.36 127,191 127,191 132.5,185 132.5,185 138.886,181.807 144.294,178 152,178 152,178 153,177 153,177 153,175.342 155.382,174 152,174 152,174 151,174 151,174 151,174 150,175 150,175 150,175 137,180 137,180  Z"/>

<path  fill="#FF9BCD" stroke-width="0" stroke="#FF9BCD" d = " M186 178 C174.822,178 163.718,187 157,187 157,187 158,181.5 158,181.5 158,181.5 155,177 155,177 155,177 156,177 156,177 156.907,177 170,188.172 170,174 170,174 171,174 171,174 171,174 173,176 173,176 174.564,176 176.876,177 179,177 179,177 186,177 186,177 186,177 186,178 186,178  Z"/>

<path  fill="#AAA9A7" stroke-width="0" stroke="#AAA9A7" d = " M201 174 L203,175 C203,175 201,174 201,174  Z"/>

<path  fill="#AAA9A7" stroke-width="0" stroke="#AAA9A7" d = " M255 174 L254,175 C254,175 255,174 255,174  Z"/>

<path  fill="#A9AAA7" stroke-width="0" stroke="#A9AAA7" d = " M335 202 L335,206 C334.168,206 329.833,193.167 329,191.5 324.499,182.498 313.26,178 304,178 304,178 303,177 303,177 303,172.742 302.044,175 306,175 306,175 319,180 319,180 324.761,180 335,197.023 335,202  Z"/>

<path  fill="#AAA9A7" stroke-width="0" stroke="#AAA9A7" d = " M205 175 L207,176 C207,176 205,175 205,175  Z"/>

<path  fill="#AAA9A7" stroke-width="0" stroke="#AAA9A7" d = " M252 175 L250,176 C250,176 252,175 252,175  Z"/>

<path  fill="#F0F080" stroke-width="0" stroke="#F0F080" d = " M326 176 L327,176 C327,176 327,175 327,175 327,175 326,176 326,176  Z"/>

<path  fill="#CBC9CC" stroke-width="0" stroke="#CBC9CC" d = " M123 200 L122,202 C122,202 120,199.5 120,199.5 116.959,193.418 124,192.367 124,187 124,187 129,177 129,177 129,177 130,176 130,176 130,176 135,178 135,178 135,178 137,180 137,180 133.252,180 127,187.36 127,191 124.089,191 123,197.752 123,200  Z"/>

<path  fill="#AAA9A7" stroke-width="0" stroke="#AAA9A7" d = " M218 193 C220.741,193 220.268,197 223,197 223,197 218,190.5 218,190.5 210.488,175.475 200.084,177 186,177 186,177 186,178 186,178 186,178 188,178 188,178 188,178 189,178 189,178 200.385,178 209.181,176.862 215,188.5 215,188.5 218,193 218,193  Z"/>

<path  fill="#AAA9A7" stroke-width="0" stroke="#AAA9A7" d = " M208 176 L210,177 C210,177 208,176 208,176  Z"/>

<path  fill="#AAA9A7" stroke-width="0" stroke="#AAA9A7" d = " M249 176 L247,177 C247,177 249,176 249,176  Z"/>

<path  fill="#AAA9A7" stroke-width="0" stroke="#AAA9A7" d = " M269 178 L271,178 C271,178 271,177 271,177 264.663,177 243,173.47 243,185 243,185 250.5,179 250.5,179 256.099,176.2 261.529,178 268,178 268,178 269,178 269,178  Z"/>

<path  fill="#FF9BCD" stroke-width="0" stroke="#FF9BCD" d = " M302 177 C302,178.577 300.238,179 299,179 299,179 300,176 300,176 300,176 302,177 302,177  Z"/>

<path  fill="#CBC9CC" stroke-width="0" stroke="#CBC9CC" d = " M333 188 C333,192.918 338.791,193.918 336,199.5 335.541,200.419 336.765,202 335,202 335,197.023 324.761,180 319,180 319,180 322,178 322,178 322,178 326,176 326,176 326,176 327,176 327,176 327,177.575 331.409,188 333,188  Z"/>

<path  fill="#F0F080" stroke-width="0" stroke="#F0F080" d = " M153 177 L152,178 C152,178 153,177 153,177  Z"/>

<path  fill="#FEA5D1" stroke-width="0" stroke="#FEA5D1" d = " M128 219 L127,220 C120.006,220 122,208.636 122,204 123.579,204 123,201.145 123,200 124.289,200 127,192.403 127,191 127,191 132.5,185 132.5,185 138.886,181.807 144.294,178 152,178 152,178 153,177 153,177 153,177 155,177 155,177 155,177 158,181.5 158,181.5 158,181.5 157,187 157,187 157,187 155,187 155,187 153.942,187 151.971,188 154,188 154,188 154,189 154,189 154,189 153,189 153,189 153,189 153,190 153,190 151.653,190 145,193.438 145,195 142.774,195 141,196.774 141,199 138.725,199 137,202.756 137,205 134.823,205 133,209.336 133,211 129.886,211 129,215.168 129,218 129,218 128,219 128,219  Z"/>

<path  fill="#FFB0D7" stroke-width="0" stroke="#FFB0D7" d = " M209 209 L205.5,212 C203.136,213.182 199.804,211 198,211 195.048,211 187.234,208 183,208 183,208 183,207 183,207 183,198.483 188,189.61 188,179 188,179 189,178 189,178 200.385,178 209.181,176.862 215,188.5 215,188.5 218,193 218,193 218,193 210,207 210,207 210,207 209,209 209,209  Z"/>

<path  fill="#AAA9A7" stroke-width="0" stroke="#AAA9A7" d = " M212 177 L227.5,180 C230.017,178.742 239.995,177 244,177 244,178.845 240.619,178.441 239.5,179 235.11,181.195 212,182.286 212,177  Z"/>

<path  fill="#FFB0D7" stroke-width="0" stroke="#FFB0D7" d = " M274 208 C269.94,208 261.704,211 259,211 256.476,211 247,214.372 247,208 247,208 239,193 239,193 239,193 241,187 241,187 241,187 243,185 243,185 243,185 250.5,179 250.5,179 256.099,176.2 261.529,178 268,178 268,178 268,179 268,179 268,189.249 274,199.207 274,207 274,207 274,208 274,208  Z"/>

<path  fill="#FEA5D1" stroke-width="0" stroke="#FEA5D1" d = " M328 219 L329,220 C335.595,220 335,212.105 335,207 335,207 335,206 335,206 334.168,206 329.833,193.167 329,191.5 324.499,182.498 313.26,178 304,178 304,178 303,177 303,177 303,177 302,177 302,177 302,178.577 300.238,179 299,179 299,180.732 297.484,187 301,187 303.434,187 304.962,188 302,188 302,188 302,189 302,189 302,189 303,190 303,190 308.523,190 316.469,197.438 319,202.5 319,202.5 324,211 324,211 326.716,211 328,217.173 328,219  Z"/>

<path  fill="#FF9BCD" stroke-width="0" stroke="#FF9BCD" d = " M303 177 L304,178 C304,178 303,177 303,177  Z"/>

<path  fill="#FEB1D9" stroke-width="0" stroke="#FEB1D9" d = " M181 208 C175.808,208 170.67,210 165,210 165,210 161,208 161,208 161,204.646 158.989,200 155,200 155,200 153,196 153,196 153,196 153,195 153,195 153,195 153,190 153,190 153,190 154,189 154,189 154,189 155,188 155,188 155,188 157,187 157,187 163.718,187 174.822,178 186,178 186,178 188,178 188,178 188,178 188,179 188,179 188,189.61 183,198.483 183,207 183,207 181,208 181,208  Z"/>

<path  fill="#FF9BCD" stroke-width="0" stroke="#FF9BCD" d = " M189 178 L188,179 C188,179 188,178 188,178 188,178 189,178 189,178  Z"/>

<path  fill="#FF9BCD" stroke-width="0" stroke="#FF9BCD" d = " M269 178 L268,179 C268,179 268,178 268,178 268,178 269,178 269,178  Z"/>

<path  fill="#FEB1D9" stroke-width="0" stroke="#FEB1D9" d = " M275 208 C280.501,208 286.062,210 292,210 293.658,210 295,208.539 295,207 295,204.579 298.425,200 301,200 301,198.829 303,193.541 303,190 303,190 302,189 302,189 297.774,189 282.393,178 271,178 271,178 269,178 269,178 269,178 268,179 268,179 268,189.249 274,199.207 274,207 274,207 275,208 275,208  Z"/>

<path  fill="#AAA9A7" stroke-width="0" stroke="#AAA9A7" d = " M243 185 C241.253,185 241,185.253 241,187 241,187 243,185 243,185  Z"/>

<path  fill="#CCCBC8" stroke-width="0" stroke="#CCCBC8" d = " M154 188 L155,188 C155,188 155,187 155,187 153.942,187 151.971,188 154,188  Z"/>

<path  fill="#FF9BCD" stroke-width="0" stroke="#FF9BCD" d = " M157 187 L155,188 C155,188 155,187 155,187 155,187 157,187 157,187  Z"/>

<path  fill="#AAA9A7" stroke-width="0" stroke="#AAA9A7" d = " M237 193 L239,193 C239,193 241,187 241,187 239.383,187 237,191.583 237,193  Z"/>

<path  fill="#CCCBC8" stroke-width="0" stroke="#CCCBC8" d = " M301 187 C303.434,187 304.962,188 302,188 302,188 301,187 301,187  Z"/>

<path  fill="#FF9BCD" stroke-width="0" stroke="#FF9BCD" d = " M155 188 L154,189 C154,189 154,188 154,188 154,188 155,188 155,188  Z"/>

<path  fill="#FF9BCD" stroke-width="0" stroke="#FF9BCD" d = " M154 189 L153,190 C153,190 153,189 153,189 153,189 154,189 154,189  Z"/>

<path  fill="#FF9BCD" stroke-width="0" stroke="#FF9BCD" d = " M145 195 C147.862,195 150.48,195 153,195 153,195 153,190 153,190 151.653,190 145,193.438 145,195  Z"/>

<path  fill="#FF9BCD" stroke-width="0" stroke="#FF9BCD" d = " M321 228 C321,220.393 313.947,208.223 307.5,205 L306,201.5 C300.416,190.332 311.878,193.256 314,197.5 318.38,206.26 322.684,214.868 327,223.5 327.721,224.942 329.276,233 331,233 331,229.009 329,223.842 329,220 329,220 328,219 328,219 325.056,219 324,213.061 324,211 324,211 319,202.5 319,202.5 316.469,197.438 308.523,190 303,190 303,193.541 301,198.829 301,200 303.625,200 307.624,203.252 306,206.5 306,206.5 302,209 302,209 308.129,209 314.323,215.147 317,220.5 317,220.5 321,228 321,228  Z"/>

<path  fill="#FFFC8D" stroke-width="0" stroke="#FFFC8D" d = " M70 191 L61,197.5 C57.7001,204.1 57,208.392 57,216.5 57,223.695 55.9536,234.407 59,240.5 60.695,243.89 59.2495,248.999 61,252.5 66.1163,262.733 79.5993,261.95 87.5,258 L91,256.5 C102.597,233.306 110.245,191 70,191  Z"/>

<path  fill="#A9AAA7" stroke-width="0" stroke="#A9AAA7" d = " M127 191 C124.089,191 123,197.752 123,200 124.289,200 127,192.403 127,191  Z"/>

<path  fill="#FFFC8D" stroke-width="0" stroke="#FFFC8D" d = " M380 191 C380,192.259 370.933,194.283 369.5,195 362.111,198.694 358.274,206.951 355,213.5 354.057,215.386 357.88,236.26 359,238.5 L359,242.5 C361.504,247.508 363.736,251.972 366,256.5 369.701,263.902 389.66,262.18 393,255.5 L397,248.5 C398.951,244.597 400.706,206.911 399,203.5 395.058,195.617 388.977,191 380,191  Z"/>

<path  fill="#FFB3D7" stroke-width="0" stroke="#FFB3D7" d = " M234 209 L246,209 C246,209 247,208 247,208 247,208 239,193 239,193 239,193 237,193 237,193 237,194.747 236.747,195 235,195 235,195 235,196 235,196 235,196 234,197 234,197 234,197 233,198 233,198 233,198 232,199 232,199 232,205.633 223,202.639 223,198 223,198 223,197 223,197 220.268,197 220.741,193 218,193 218,193 210,207 210,207 210,207 210,209 210,209 210,209 223,209 223,209 223,209 226,209 226,209 226,209 227,209 227,209 227,206.704 231.212,209 234,209  Z"/>

<path  fill="#AAA9A7" stroke-width="0" stroke="#AAA9A7" d = " M237 193 L235,195 C236.747,195 237,194.747 237,193  Z"/>

<path  fill="#C9C9C8" stroke-width="0" stroke="#C9C9C8" d = " M135 272 C135,269.232 141.241,272 142,272 142,269.528 134.272,263.045 133,260.5 129.587,253.674 132,246.343 132,239 132,239 133,237 133,237 133,237 133,234 133,234 133,234 134,232 134,232 134,230.952 133.527,229 135,229 135,227.576 135.362,224 137,224 137,219.957 147.225,202 151,202 151,202 151,201 151,201 151,201 153,196 153,196 153,196 153,195 153,195 150.48,195 147.862,195 145,195 145,195 141,199 141,199 141,200.417 138.617,205 137,205 137,210.673 131.503,219.495 129,224.5 128.337,225.826 127.998,231 126,231 126,231 125,240 125,240 125,240 124,241 124,241 124,241 124,242 124,242 124,243.406 124.714,249 123,249 123,249 123,254 123,254 124.473,254 124,255.952 124,257 124,257 124,258 124,258 124,258 125,259 125,259 125,259 125,260 125,260 126.012,260 130,267.673 130,269 130,269 131,270 131,270 131,270 135,272 135,272  Z"/>

<path  fill="#C9C9C8" stroke-width="0" stroke="#C9C9C8" d = " M322 272 L323,272 C323,272 324,271 324,271 324,271 325,270 325,270 325,270 326,269 326,269 326,269 327,268 327,268 327,268 327,267 327,267 327,267 329,265 329,265 329,265 330,263 330,263 330,263 331,261 331,261 331,261 331,260 331,260 331,260 332,259 332,259 332,259 332,258 332,258 332,258 333,256 333,256 333,256 333,252 333,252 333,252 332,241 332,241 332,241 331,233 331,233 329.276,233 327.721,224.942 327,223.5 322.684,214.868 318.38,206.26 314,197.5 311.878,193.256 300.416,190.332 306,201.5 306,201.5 307.5,205 307.5,205 313.947,208.223 321,220.393 321,228 321,228 321,229 321,229 321,229 323,233 323,233 323,233 323,235 323,235 323,235 324,236 324,236 324,241.141 327.586,251.328 325,256.5 324.121,258.257 316,270.687 316,271 318.124,271 320.436,272 322,272  Z"/>

<path  fill="#FF9BCD" stroke-width="0" stroke="#FF9BCD" d = " M145 195 C142.774,195 141,196.774 141,199 141,199 145,195 145,195  Z"/>

<path  fill="#FF9BCD" stroke-width="0" stroke="#FF9BCD" d = " M155 200 L151,201 C151,201 153,196 153,196 153,196 155,200 155,200  Z"/>

<path  fill="#AAA9A7" stroke-width="0" stroke="#AAA9A7" d = " M235 196 L234,197 C234,197 235,196 235,196  Z"/>

<path  fill="#AAA9A7" stroke-width="0" stroke="#AAA9A7" d = " M234 197 L233,198 C233,198 234,197 234,197  Z"/>

<path  fill="#AAA9A7" stroke-width="0" stroke="#AAA9A7" d = " M223 198 L226.5,201 C229.041,202.27 230.209,199 232,199 232,205.633 223,202.639 223,198  Z"/>

<path  fill="#AAA9A7" stroke-width="0" stroke="#AAA9A7" d = " M233 198 L232,199 C232,199 233,198 233,198  Z"/>

<path  fill="#FF9BCD" stroke-width="0" stroke="#FF9BCD" d = " M141 199 C138.725,199 137,202.756 137,205 138.617,205 141,200.417 141,199  Z"/>

<path  fill="#A9AAA7" stroke-width="0" stroke="#A9AAA7" d = " M122 202 L122,204 C123.579,204 123,201.145 123,200 123,200 122,202 122,202  Z"/>

<path  fill="#FFB0D9" stroke-width="0" stroke="#FFB0D9" d = " M151 202 C151,210.943 154.364,208 161,208 161,204.646 158.989,200 155,200 155,200 151,201 151,201 151,201 151,202 151,202  Z"/>

<path  fill="#FFB0D9" stroke-width="0" stroke="#FFB0D9" d = " M295 207 C296.835,207 299.235,209 302,209 302,209 306,206.5 306,206.5 307.624,203.252 303.625,200 301,200 298.425,200 295,204.579 295,207  Z"/>

<path  fill="#FF9BCD" stroke-width="0" stroke="#FF9BCD" d = " M137 224 C137.422,224 144.463,212.518 147.5,211 151.672,208.914 156.111,208.278 153,214.5 151.236,218.028 145,220.869 145,225 146.669,225 155.353,215 163,215 163,212.433 165,211.087 165,210 165,210 161,208 161,208 154.364,208 151,210.943 151,202 147.225,202 137,219.957 137,224  Z"/>

<path  fill-rule="evenodd" fill="#A9AAA7" stroke-width="0" stroke="#A9AAA7" d = " M118 219 C118,221.448 116.676,220.851 118,223.5 L119,228.5 C123.708,237.917 129.32,219 118,219  M124 241 L124,242 C124,242 122,241 122,241 122,234.577 115,227.264 115,221 115,221 117,217 117,217 118.936,217 119.904,204 122,204 122,208.636 120.006,220 127,220 127,220 126,231 126,231 126,231 125,240 125,240 125,240 124,241 124,241  Z"/>

<path  fill="#FF9BCD" stroke-width="0" stroke="#FF9BCD" d = " M127 220 L126,231 C127.998,231 128.337,225.826 129,224.5 131.503,219.495 137,210.673 137,205 134.823,205 133,209.336 133,211 133,212.572 130.948,218 129,218 129,218 128,219 128,219 128,219 127,220 127,220  Z"/>

<path  fill="#FF9BCD" stroke-width="0" stroke="#FF9BCD" d = " M181 208 L183,208 C183,208 183,207 183,207 183,207 181,208 181,208  Z"/>

<path  fill="#FF9BCD" stroke-width="0" stroke="#FF9BCD" d = " M209 209 L210,209 C210,209 210,207 210,207 210,207 209,209 209,209  Z"/>

<path  fill="#FF9BCD" stroke-width="0" stroke="#FF9BCD" d = " M228 233 C228,235.212 229,235.212 229,233 229,233 229.5,210 229.5,210 232.918,208.291 231,220.197 231,222 231,222 235,221 235,221 235,221 233,217.5 233,217.5 232.693,216.886 234,209.512 234,209 231.212,209 227,206.704 227,209 227,216.946 228,225.711 228,233  Z"/>

<path  fill="#FF9BCD" stroke-width="0" stroke="#FF9BCD" d = " M274 208 L275,208 C275,208 274,207 274,207 274,207 274,208 274,208  Z"/>

<path  fill="#FF9BCD" stroke-width="0" stroke="#FF9BCD" d = " M293 215 C299.059,215 302.54,218.52 307.5,221 L313,227 C313,220.434 302,216.39 302,209 299.235,209 296.835,207 295,207 295,208.539 293.658,210 292,210 292,211.49 293,212.587 293,215  Z"/>

<path  fill-rule="evenodd" fill="#A9AAA7" stroke-width="0" stroke="#A9AAA7" d = " M335 219 L331,226.5 C330.258,227.984 333.486,232.007 335.5,231 339.002,229.249 341.159,219 335,219  M332 241 C333.333,241 333.667,241 335,241 335,233.976 341,227.757 341,221 341,221 339,217 339,217 339,215.239 336.693,207 335,207 335,212.105 335.595,220 329,220 329,223.842 331,229.009 331,233 331,233 332,241 332,241  Z"/>

<path  fill="#FDA5D1" stroke-width="0" stroke="#FDA5D1" d = " M172 221 L174,221 C174,221 175,220 175,220 179.587,220 184.821,216 190,216 190,216 191,216 191,216 191,214.571 196.655,213 198,213 198,213 198,211 198,211 195.048,211 187.234,208 183,208 183,208 181,208 181,208 175.808,208 170.67,210 165,210 165,211.087 163,212.433 163,215 164.622,215 170,217.996 170,220 170,220 172,221 172,221  Z"/>

<path  fill="#FF9BCD" stroke-width="0" stroke="#FF9BCD" d = " M259 213 C255.577,213 252.526,215 250,215 248.227,215 249.487,209 246,209 246,209 247,208 247,208 247,214.372 256.476,211 259,211 259,211 259,213 259,213  Z"/>

<path  fill="#FDA5D1" stroke-width="0" stroke="#FDA5D1" d = " M286 220 L284,221 C278.183,221 272.528,216 266,216 266,216 265,215 265,215 265,215 259,213 259,213 259,213 259,211 259,211 261.704,211 269.94,208 274,208 274,208 275,208 275,208 280.501,208 286.062,210 292,210 292,211.49 293,212.587 293,215 293,215 289,217 289,217 289,217 288,218 288,218 288,218 286,220 286,220  Z"/>

<path  fill="#C8CACA" stroke-width="0" stroke="#C8CACA" d = " M144 273 L149,274 C157.763,274 141,265.378 141,263 141,263 141,262 141,262 133.226,262 138.573,229 143,229 143,229 143,228 143,228 143,226.762 143.423,225 145,225 145,220.869 151.236,218.028 153,214.5 156.111,208.278 151.672,208.914 147.5,211 144.463,212.518 137.422,224 137,224 137,225.424 136.638,229 135,229 135,230.048 135.473,232 134,232 134,232 133,234 133,234 133,234 133,237 133,237 133,237 132,239 132,239 132,246.343 129.587,253.674 133,260.5 134.272,263.045 142,269.528 142,272 142,272 143,272 143,272 143,272 144,273 144,273  Z"/>

<path  fill="#FF9BCD" stroke-width="0" stroke="#FF9BCD" d = " M198 213 C201.447,213 204.245,215 207,215 207,215 209,209 209,209 209,209 205.5,212 205.5,212 203.136,213.182 199.804,211 198,211 198,211 198,213 198,213  Z"/>

<path  fill="#FCB3D8" stroke-width="0" stroke="#FCB3D8" d = " M221 221 C216.586,221 211.823,222 208,222 208,222 207,221 207,221 207,221 207,215 207,215 207,215 209,209 209,209 209,209 210,209 210,209 210,209 223,209 223,209 223,211.036 223.425,217.649 223,218.5 223,218.5 221,221 221,221  Z"/>

<path  fill="#FF9BCD" stroke-width="0" stroke="#FF9BCD" d = " M221 221 L225,222 C225,220.074 223.621,212.257 224,211.5 224,211.5 226,209 226,209 226,209 223,209 223,209 223,211.036 223.425,217.649 223,218.5 223,218.5 221,221 221,221  Z"/>

<path  fill="#CBCBCC" stroke-width="0" stroke="#CBCBCC" d = " M225 222 C225,223.948 225.504,233 228,233 228,225.711 227,216.946 227,209 227,209 226,209 226,209 226,209 224,211.5 224,211.5 223.621,212.257 225,220.074 225,222  Z"/>

<path  fill="#FCB3D8" stroke-width="0" stroke="#FCB3D8" d = " M249 221 L248,222 C244.371,222 239.284,221 235,221 235,221 233,217.5 233,217.5 232.693,216.886 234,209.512 234,209 234,209 246,209 246,209 249.487,209 248.227,215 250,215 250,216.564 249,218.876 249,221  Z"/>

<path  fill="#C8CACA" stroke-width="0" stroke="#C8CACA" d = " M314 272 L308,274 C299.896,274 310,268.73 310,267 310,267 312,266 312,266 312,266 313,265 313,265 313,265 314,264 314,264 314,264 315,263 315,263 315,263 316,261 316,261 316,261 317,260 317,260 317,260 317,259 317,259 317,259 318,257 318,257 319.725,257 319,250.948 319,249.5 319,245.537 315.908,228 313,228 313,228 313,227 313,227 313,220.434 302,216.39 302,209 308.129,209 314.323,215.147 317,220.5 317,220.5 321,228 321,228 321,228 321,229 321,229 321,229 323,233 323,233 323,233 323,235 323,235 323,235 324,236 324,236 324,241.141 327.586,251.328 325,256.5 324.121,258.257 316,270.687 316,271 316,271 315,271 315,271 315,271 314,272 314,272  Z"/>

<path  fill="#CBCBCC" stroke-width="0" stroke="#CBCBCC" d = " M231 222 C231,224.072 231.076,233 229,233 229,233 229.5,210 229.5,210 232.918,208.291 231,220.197 231,222  Z"/>

<path  fill="#FEA4D2" stroke-width="0" stroke="#FEA4D2" d = " M133 211 C129.886,211 129,215.168 129,218 130.948,218 133,212.572 133,211  Z"/>

<path  fill="#FEA4D2" stroke-width="0" stroke="#FEA4D2" d = " M324 211 C326.716,211 328,217.173 328,219 325.056,219 324,213.061 324,211  Z"/>

<path  fill="#FFB2D8" stroke-width="0" stroke="#FFB2D8" d = " M175 263 C182.67,263 185.71,265 193,265 193,261.545 195.578,259.344 197,256.5 200.592,249.316 207,231.179 207,223 207,223 207,221 207,221 207,221 207,215 207,215 204.245,215 201.447,213 198,213 196.655,213 191,214.571 191,216 191,216 190,217 190,217 190,227.022 171,250.332 171,258 173.96,258 175,260.399 175,263  Z"/>

<path  fill="#FFB2D8" stroke-width="0" stroke="#FFB2D8" d = " M281 263 C273.696,263 269.926,265 263,265 263,256.26 249,234.501 249,223 249,223 249,221 249,221 249,218.876 250,216.564 250,215 252.526,215 255.577,213 259,213 259,213 265,215 265,215 265,215 266,216 266,216 266,221.715 279.711,247.922 283,254.5 283,254.5 286,259 286,259 283.359,259 281,258.503 281,263  Z"/>

<path  fill="#FFA4D0" stroke-width="0" stroke="#FFA4D0" d = " M141 263 C144.099,263 146.883,267 151,267 151,267 155,261.5 155,261.5 157.901,255.697 154.018,246.465 157,240.5 160.99,232.521 170,234.131 170,223 170,223 171,222 171,222 171,222 170,220 170,220 170,217.996 164.622,215 163,215 155.353,215 146.669,225 145,225 145,226.238 144.577,228 143,228 143,228 143,229 143,229 143,230.303 138.718,248.064 138,249.5 135.88,253.739 141,258.594 141,262 141,262 141,263 141,263  Z"/>

<path  fill="#FF9BCD" stroke-width="0" stroke="#FF9BCD" d = " M265 215 L266,216 C266,216 265,215 265,215  Z"/>

<path  fill="#FFA4D0" stroke-width="0" stroke="#FFA4D0" d = " M312 266 L310,267 C310,267 305,266 305,266 299.613,266 301.857,246.214 300,242.5 295.164,232.829 286,234.016 286,222 286,222 286,220 286,220 286,220 288,218 288,218 288,218 289,217 289,217 289,217 293,215 293,215 299.059,215 302.54,218.52 307.5,221 307.5,221 313,227 313,227 313,227 313,228 313,228 313,231.859 315.329,237.159 317,240.5 317,240.5 318,257 318,257 318,257 317,259 317,259 317,259 317,260 317,260 317,260 316,261 316,261 316,261 315,263 315,263 315,263 314,264 314,264 314,264 313,265 313,265 313,265 312,266 312,266  Z"/>

<path  fill="#FCB3D9" stroke-width="0" stroke="#FCB3D9" d = " M151 267 C151.447,267 154.935,271 159,271 159,268.726 164.9,265 167,265 167,265 167,264 167,264 167,264 171,258 171,258 171,250.332 190,227.022 190,217 190,217 190,216 190,216 184.821,216 179.587,220 175,220 175,220 174,221 174,221 174,221 172,221 172,221 172,221 171,222 171,222 171,222 170,223 170,223 170,234.131 160.99,232.521 157,240.5 154.018,246.465 157.901,255.697 155,261.5 155,261.5 151,267 151,267  Z"/>

<path  fill="#FF9BCD" stroke-width="0" stroke="#FF9BCD" d = " M191 216 L190,217 C190,217 190,216 190,216 190,216 191,216 191,216  Z"/>

<path  fill="#FCB3D9" stroke-width="0" stroke="#FCB3D9" d = " M305 266 C305,270.433 300.415,271 297,271 297,268.431 290.72,265 289,265 289,265 286,259 286,259 286,259 283,254.5 283,254.5 279.711,247.922 266,221.715 266,216 272.528,216 278.183,221 284,221 284,221 286,222 286,222 286,234.016 295.164,232.829 300,242.5 301.857,246.214 299.613,266 305,266  Z"/>

<path  fill="#F0F080" stroke-width="0" stroke="#F0F080" d = " M117 217 L115,221 C115,221 112,217 112,217 112,217 117,217 117,217  Z"/>

<path  fill="#FF9BCD" stroke-width="0" stroke="#FF9BCD" d = " M289 217 L288,218 C288,218 289,217 289,217  Z"/>

<path  fill="#F0F080" stroke-width="0" stroke="#F0F080" d = " M345 217 L341,221 C341,221 339,217 339,217 339,217 345,217 345,217  Z"/>

<path  fill="#FEA4D2" stroke-width="0" stroke="#FEA4D2" d = " M129 218 L128,219 C128,219 129,218 129,218  Z"/>

<path  fill="#A9AAA8" stroke-width="0" stroke="#A9AAA8" d = " M118 219 C118,221.448 116.676,220.851 118,223.5 L119,228.5 C123.708,237.917 129.32,219 118,219  Z"/>

<path  fill="#A9AAA8" stroke-width="0" stroke="#A9AAA8" d = " M335 219 L331,226.5 C330.258,227.984 333.486,232.007 335.5,231 339.002,229.249 341.159,219 335,219  Z"/>

<path  fill="#FF9BCD" stroke-width="0" stroke="#FF9BCD" d = " M172 221 L171,222 C171,222 170,220 170,220 170,220 172,221 172,221  Z"/>

<path  fill="#FF9BCD" stroke-width="0" stroke="#FF9BCD" d = " M175 220 L174,221 C174,221 175,220 175,220  Z"/>

<path  fill="#FF9BCD" stroke-width="0" stroke="#FF9BCD" d = " M284 221 L286,222 C286,222 286,220 286,220 286,220 284,221 284,221  Z"/>

<path  fill="#FF9BCD" stroke-width="0" stroke="#FF9BCD" d = " M208 222 L207,223 C207,223 207,221 207,221 207,221 208,222 208,222  Z"/>

<path  fill="#FEB0D8" stroke-width="0" stroke="#FEB0D8" d = " M255 277 L258,277 C258,274.544 253.205,273.089 255,269.5 256.195,267.11 263,266.488 263,265 263,256.26 249,234.501 249,223 249,223 248,222 248,222 244.371,222 239.284,221 235,221 235,221 231,222 231,222 231,224.072 231.076,233 229,233 229,235.212 228,235.212 228,233 225.504,233 225,223.948 225,222 225,222 221,221 221,221 216.586,221 211.823,222 208,222 208,222 207,223 207,223 207,231.179 200.592,249.316 197,256.5 195.578,259.344 193,261.545 193,265 193,265 196.5,267 196.5,267 196.5,267 198.5,267 198.5,267 205.097,270.298 199,273.019 199,277 199,277 201,277 201,277 201,270.249 214.249,261 221,261 221,256.536 227,239.078 227,251 227,251 229,251 229,251 229,238.133 235,256.5 235,261 242.333,261 255,268.628 255,277  Z"/>

<path  fill="#FF9BCD" stroke-width="0" stroke="#FF9BCD" d = " M248 222 L249,223 C249,223 249,221 249,221 249,221 248,222 248,222  Z"/>

<path  fill="#FF9BCD" stroke-width="0" stroke="#FF9BCD" d = " M171 222 L170,223 C170,223 171,222 171,222  Z"/>

<path  fill="#FF9BCD" stroke-width="0" stroke="#FF9BCD" d = " M137 224 C135.362,224 135,227.576 135,229 136.638,229 137,225.424 137,224  Z"/>

<path  fill="#FF9BCD" stroke-width="0" stroke="#FF9BCD" d = " M145 225 C143.423,225 143,226.762 143,228 144.577,228 145,226.238 145,225  Z"/>

<path  fill="#FF9BCD" stroke-width="0" stroke="#FF9BCD" d = " M313 228 C315.908,228 319,245.537 319,249.5 319,250.948 319.725,257 318,257 318,257 317,240.5 317,240.5 315.329,237.159 313,231.859 313,228  Z"/>

<path  fill="#FF9BCD" stroke-width="0" stroke="#FF9BCD" d = " M135 229 C133.527,229 134,230.952 134,232 135.473,232 135,230.048 135,229  Z"/>

<path  fill="#FF9BCD" stroke-width="0" stroke="#FF9BCD" d = " M143 229 C138.573,229 133.226,262 141,262 141,258.594 135.88,253.739 138,249.5 138.718,248.064 143,230.303 143,229  Z"/>

<path  fill="#FF9BCD" stroke-width="0" stroke="#FF9BCD" d = " M321 229 L323,233 C323,233 321,229 321,229  Z"/>

<path  fill="#FF9BCD" stroke-width="0" stroke="#FF9BCD" d = " M134 232 L133,234 C133,234 134,232 134,232  Z"/>

<path  fill="#FF9BCD" stroke-width="0" stroke="#FF9BCD" d = " M323 235 L324,236 C324,236 323,235 323,235  Z"/>

<path  fill="#FF9BCD" stroke-width="0" stroke="#FF9BCD" d = " M133 237 L132,239 C132,239 133,237 133,237  Z"/>

<path  fill="#FF9BCD" stroke-width="0" stroke="#FF9BCD" d = " M125 240 L124,241 C124,241 125,240 125,240  Z"/>

<path  fill="#FF9BCD" stroke-width="0" stroke="#FF9BCD" d = " M124 242 C124,243.406 124.714,249 123,249 123,249 122,241 122,241 122,241 124,242 124,242  Z"/>

<path  fill="#FF9BCD" stroke-width="0" stroke="#FF9BCD" d = " M335 241 C335,242.116 333.766,252 333,252 333,252 332,241 332,241 333.333,241 333.667,241 335,241  Z"/>

<path  fill="#C8C8CC" stroke-width="0" stroke="#C8C8CC" d = " M225 265 L223,266 C220.539,266 221,262.622 221,261 221,256.536 227,239.078 227,251 227,251 227,263 227,263 227,263 226,264 226,264 226,264 225,265 225,265  Z"/>

<path  fill="#C8C8CC" stroke-width="0" stroke="#C8C8CC" d = " M231 264 L233,266 C235.461,266 235,262.622 235,261 235,256.5 229,238.133 229,251 229,251 229,261 229,261 229,261 230,263 230,263 230,263 231,264 231,264  Z"/>

<path  fill="#FEC6E2" stroke-width="0" stroke="#FEC6E2" d = " M227 275 L229,275 C229,275 230,274 230,274 230,274 229,261 229,261 229,261 229,251 229,251 229,251 227,251 227,251 227,251 227,263 227,263 227,263 226,273 226,273 226,273 227,275 227,275  Z"/>

<path  fill="#FF9BCD" stroke-width="0" stroke="#FF9BCD" d = " M123 254 C124.473,254 124,255.952 124,257 122.527,257 123,255.048 123,254  Z"/>

<path  fill="#FF9BCD" stroke-width="0" stroke="#FF9BCD" d = " M333 256 L332,258 C332,258 333,256 333,256  Z"/>

<path  fill="#FF9BCD" stroke-width="0" stroke="#FF9BCD" d = " M318 257 L317,259 C317,259 318,257 318,257  Z"/>

<path  fill="#FF9BCD" stroke-width="0" stroke="#FF9BCD" d = " M124 258 L125,259 C125,259 124,258 124,258  Z"/>

<path  fill="#FEB3D6" stroke-width="0" stroke="#FEB3D6" d = " M167 264 L168,265 C169.851,265 175,265.867 175,263 175,260.399 173.96,258 171,258 171,258 167,264 167,264  Z"/>

<path  fill="#FEB3D6" stroke-width="0" stroke="#FEB3D6" d = " M282 264 C282,265.714 287.594,265 289,265 289,265 286,259 286,259 283.359,259 281,258.503 281,263 281,263 282,264 282,264  Z"/>

<path  fill="#FF9BCD" stroke-width="0" stroke="#FF9BCD" d = " M332 259 L331,260 C331,260 332,259 332,259  Z"/>

<path  fill="#FF9BCD" stroke-width="0" stroke="#FF9BCD" d = " M125 260 C126.012,260 130,267.673 130,269 128.319,269 125,261.722 125,260  Z"/>

<path  fill="#FF9BCD" stroke-width="0" stroke="#FF9BCD" d = " M317 260 L316,261 C316,261 317,260 317,260  Z"/>

<path  fill="#FDB2D9" stroke-width="0" stroke="#FDB2D9" d = " M223 266 C223,268.271 224.325,269.85 223,272.5 221.638,275.224 201,287.533 201,277 201,270.249 214.249,261 221,261 221,262.622 220.539,266 223,266  Z"/>

<path  fill="#FF9BCD" stroke-width="0" stroke="#FF9BCD" d = " M277 293 C277,295.334 272.819,294.341 271.5,295 264.564,298.468 255.381,296.56 248.5,300 247.221,300.639 240,300.258 240,299 240,299 245,299 245,299 253.262,299 245,289.689 245,289 249.084,289 249.645,291.072 253.5,293 253.5,293 256.5,291 256.5,291 257.563,290.468 259.971,293.559 261,291.5 261,291.5 257,287.5 257,287.5 257,287.5 242.5,280 242.5,280 240.022,278.761 239.011,282 237.5,282 235.897,282 234.664,274 230,274 230,274 229,261 229,261 229,261 230,263 230,263 230,263 231,264 231,264 231,264 233,266 233,266 233,266 233,271.5 233,271.5 235.201,275.902 255,286.9 255,277 255,277 258,277 258,277 258,277 262,281.5 262,281.5 262,281.5 271.5,289 271.5,289 275.216,290.858 278.15,285 281,285 281,286.048 280.527,288 282,288 282,289.482 277,289.576 277,293  Z"/>

<path  fill="#FDB2D9" stroke-width="0" stroke="#FDB2D9" d = " M233 266 L233,271.5 C235.201,275.902 255,286.9 255,277 255,268.628 242.333,261 235,261 235,262.622 235.461,266 233,266  Z"/>

<path  fill="#FF9BCD" stroke-width="0" stroke="#FF9BCD" d = " M316 261 L315,263 C315,263 316,261 316,261  Z"/>

<path  fill="#FF9BCD" stroke-width="0" stroke="#FF9BCD" d = " M331 261 L330,263 C330,263 331,261 331,261  Z"/>

<path  fill="#FF9BCD" stroke-width="0" stroke="#FF9BCD" d = " M210 290 L208,292.5 L209,295 C209,300.029 211.452,299 217,299 217,300.665 212.778,300 211.5,300 211.5,300 195.5,298 195.5,298 189.503,295.002 181.485,295.993 175.5,293 175.5,293 151.5,281 151.5,281 149.341,279.92 138,277.84 138,275 138,275 140,275 140,275 140,275 141,276 141,276 144.639,276 150.268,279.384 153.5,281 154.402,281.451 156.706,280.911 156,279.5 155.014,277.529 149,275.739 149,274 157.763,274 141,265.378 141,263 144.099,263 146.883,267 151,267 151.447,267 154.935,271 159,271 159,271 160,273 160,273 157.714,273 155.83,276.16 157,278.5 157.749,279.998 161,277.795 161,280 149.057,280 177.181,293.16 179.5,292 180.819,291.341 170,286.538 170,285 170.611,285 176.298,288.095 175,285.5 175,285.5 173,283 173,283 176.529,283 179.707,291.397 184.5,289 188.101,287.199 195.606,277 199,277 199,277 201,277 201,277 201,287.533 221.638,275.224 223,272.5 224.325,269.85 223,268.271 223,266 223,266 225,265 225,265 225,265 226,264 226,264 226,264 227,263 227,263 227,263 226,273 226,273 222.045,273 221.327,283 218.5,283 218.5,283 216.5,280 216.5,280 213.516,278.508 203.993,284.507 202,286.5 201.037,287.463 194.289,290.078 195,291.5 195.872,293.243 198.493,291 199.5,291 199.5,291 202.5,293 202.5,293 206.171,291.165 206.42,290 210,290  Z"/>

<path  fill="#FCB2D9" stroke-width="0" stroke="#FCB2D9" d = " M172 283 L173,283 C176.529,283 179.707,291.397 184.5,289 188.101,287.199 195.606,277 199,277 199,273.019 205.097,270.298 198.5,267 198.5,267 196.5,267 196.5,267 196.5,267 193,265 193,265 185.71,265 182.67,263 175,263 175,265.867 169.851,265 168,265 168,265 167,265 167,265 164.9,265 159,268.726 159,271 159,271 160,273 160,273 163.103,273 171,279.228 171,282 171,282 172,283 172,283  Z"/>

<path  fill="#FEB0D8" stroke-width="0" stroke="#FEB0D8" d = " M230 263 L231,264 C231,264 230,263 230,263  Z"/>

<path  fill="#FCB2D9" stroke-width="0" stroke="#FCB2D9" d = " M281 285 L282,285 C282,285 283,284 283,284 283,284 284,283 284,283 284,283 285,282 285,282 285,282 286,281 286,281 289.762,281 290.741,273 296,273 296,273 297,271 297,271 297,268.431 290.72,265 289,265 287.594,265 282,265.714 282,264 282,264 281,263 281,263 273.696,263 269.926,265 263,265 263,266.488 256.195,267.11 255,269.5 253.205,273.089 258,274.544 258,277 258,277 262,281.5 262,281.5 262,281.5 271.5,289 271.5,289 275.216,290.858 278.15,285 281,285  Z"/>

<path  fill="#FF9BCD" stroke-width="0" stroke="#FF9BCD" d = " M281 263 L282,264 C282,264 281,263 281,263  Z"/>

<path  fill="#FF9BCD" stroke-width="0" stroke="#FF9BCD" d = " M315 263 L314,264 C314,264 315,263 315,263  Z"/>

<path  fill="#FF9BCD" stroke-width="0" stroke="#FF9BCD" d = " M330 263 L329,265 C329,265 330,263 330,263  Z"/>

<path  fill="#FF9BCD" stroke-width="0" stroke="#FF9BCD" d = " M167 265 L168,265 C168,265 167,264 167,264 167,264 167,265 167,265  Z"/>

<path  fill="#FEB0D8" stroke-width="0" stroke="#FEB0D8" d = " M226 264 L225,265 C225,265 226,264 226,264  Z"/>

<path  fill="#FF9BCD" stroke-width="0" stroke="#FF9BCD" d = " M314 264 L313,265 C313,265 314,264 314,264  Z"/>

<path  fill="#FF9BCD" stroke-width="0" stroke="#FF9BCD" d = " M313 265 L312,266 C312,266 313,265 313,265  Z"/>

<path  fill="#FF9BCD" stroke-width="0" stroke="#FF9BCD" d = " M329 265 L327,267 C328.747,267 329,266.747 329,265  Z"/>

<path  fill="#FF9BCD" stroke-width="0" stroke="#FF9BCD" d = " M304 281 C304,283.295 297.975,284.263 296.5,285 290.701,287.899 284.914,293 278,293 278,291.817 281.57,291.465 282.5,291 285.861,289.32 292.476,287.024 295,284.5 295.632,283.868 300.882,281.191 298.5,280 298.5,280 295,281 295,281 295,280.873 304.017,273 296,273 296,273 297,271 297,271 300.415,271 305,270.433 305,266 305,266 310,267 310,267 310,268.73 299.896,274 308,274 308,274.42 294.869,281 304,281  Z"/>

<path  fill="#FF9BCD" stroke-width="0" stroke="#FF9BCD" d = " M312 266 L310,267 C310,267 312,266 312,266  Z"/>

<path  fill="#FF9BCD" stroke-width="0" stroke="#FF9BCD" d = " M327 268 L326,269 C326,269 327,268 327,268  Z"/>

<path  fill="#FF9BCD" stroke-width="0" stroke="#FF9BCD" d = " M326 269 L325,270 C325,270 326,269 326,269  Z"/>

<path  fill="#FF9BCD" stroke-width="0" stroke="#FF9BCD" d = " M135 272 L137,275 C137,275 131,270 131,270 131,270 135,272 135,272  Z"/>

<path  fill="#C9CACA" stroke-width="0" stroke="#C9CACA" d = " M140 275 L141,276 C144.639,276 150.268,279.384 153.5,281 154.402,281.451 156.706,280.911 156,279.5 155.014,277.529 149,275.739 149,274 149,274 144,273 144,273 144,273 143,272 143,272 143,272 142,272 142,272 141.241,272 135,269.232 135,272 135,272 137,275 137,275 137,275 138,275 138,275 138,275 140,275 140,275  Z"/>

<path  fill="#C9C9C8" stroke-width="0" stroke="#C9C9C8" d = " M315 271 L314,272 C314,272 315,271 315,271  Z"/>

<path  fill="#C9CACA" stroke-width="0" stroke="#C9CACA" d = " M309 279 C307.576,279 304,279.362 304,281 294.869,281 308,274.42 308,274 308,274 314,272 314,272 314,272 315,271 315,271 315,271 316,271 316,271 318.124,271 320.436,272 322,272 322,272 322,273 322,273 322,273 321,274 321,274 321,274 319,275 319,275 319,275 315,276 315,276 315,276 314,277 314,277 314,277 312,277 312,277 312,277 311,278 311,278 311,278 309,279 309,279  Z"/>

<path  fill="#FF9BCD" stroke-width="0" stroke="#FF9BCD" d = " M324 271 L323,272 C323,272 324,271 324,271  Z"/>

<path  fill="#C9C9C8" stroke-width="0" stroke="#C9C9C8" d = " M143 272 L144,273 C144,273 143,272 143,272  Z"/>

<path  fill="#FF9BCD" stroke-width="0" stroke="#FF9BCD" d = " M323 272 L322,273 C322,273 322,272 322,272 322,272 323,272 323,272  Z"/>

<path  fill="#C8C8CB" stroke-width="0" stroke="#C8C8CB" d = " M169 285 L170,285 C170.611,285 176.298,288.095 175,285.5 175,285.5 173,283 173,283 173,283 172,283 172,283 172,283 171,282 171,282 171,279.228 163.103,273 160,273 157.714,273 155.83,276.16 157,278.5 157.749,279.998 161,277.795 161,280 161,280 163,281 163,281 164.429,281 167,282.288 167,284 167,284 168,284 168,284 168,284 169,285 169,285  Z"/>

<path  fill="#FFB3D8" stroke-width="0" stroke="#FFB3D8" d = " M212 289 L213,289 C213,286.871 220.06,290.72 223.5,289 226.645,287.428 219.157,281 225,281 225,281 226,280 226,280 226,280 226,279 226,279 226,279 227,278 227,278 227,278 227,277 227,277 227,277 227,275 227,275 227,275 226,273 226,273 222.045,273 221.327,283 218.5,283 218.5,283 216.5,280 216.5,280 213.516,278.508 203.993,284.507 202,286.5 201.037,287.463 194.289,290.078 195,291.5 195.872,293.243 198.493,291 199.5,291 199.5,291 202.5,293 202.5,293 206.171,291.165 206.42,290 210,290 210,290 212,289 212,289  Z"/>

<path  fill="#FFB3D8" stroke-width="0" stroke="#FFB3D8" d = " M243 289 L245,289 C249.084,289 249.645,291.072 253.5,293 253.5,293 256.5,291 256.5,291 257.563,290.468 259.971,293.559 261,291.5 261,291.5 257,287.5 257,287.5 257,287.5 242.5,280 242.5,280 240.022,278.761 239.011,282 237.5,282 235.897,282 234.664,274 230,274 230,274 229,275 229,275 229,279.184 238.622,286 231,286 231,286 231,287 231,287 233.404,287 235.649,290 239,290 239,290 240,289 240,289 240,287.514 243,287.514 243,289  Z"/>

<path  fill="#C8C8CB" stroke-width="0" stroke="#C8C8CB" d = " M283 287 L282,288 C280.527,288 281,286.048 281,285 281,285 282,285 282,285 282,285 283,284 283,284 283,284 284,283 284,283 284,283 285,282 285,282 285,282 286,281 286,281 289.762,281 290.741,273 296,273 304.017,273 295,280.873 295,281 295,281 294,281 294,281 292.762,281 291,281.423 291,283 291,283 290,283 290,283 290,283 289,284 289,284 289,284 288,285 288,285 288,285 287,285 287,285 287,285 285,286 285,286 285,286 283,287 283,287  Z"/>

<path  fill="#FF9BCD" stroke-width="0" stroke="#FF9BCD" d = " M322 273 L321,274 C321,274 322,273 322,273  Z"/>

<path  fill="#FF9BCD" stroke-width="0" stroke="#FF9BCD" d = " M321 274 L319,275 C319,275 321,274 321,274  Z"/>

<path  fill="#C9C9C8" stroke-width="0" stroke="#C9C9C8" d = " M140 275 L141,276 C141,276 140,275 140,275  Z"/>

<path  fill="#FF9BCD" stroke-width="0" stroke="#FF9BCD" d = " M227 277 C230.626,277 231,282.878 231,286 238.622,286 229,279.184 229,275 229,275 227,275 227,275 227,275 227,277 227,277  Z"/>

<path  fill="#FF9BCD" stroke-width="0" stroke="#FF9BCD" d = " M315 276 L315,277 C315,277 319,275 319,275 319,275 315,276 315,276  Z"/>

<path  fill="#C9C9C8" stroke-width="0" stroke="#C9C9C8" d = " M314 277 L315,277 C315,277 315,276 315,276 315,276 314,277 314,277  Z"/>

<path  fill="#FFC6E2" stroke-width="0" stroke="#FFC6E2" d = " M231 286 L231,287 C231,289.289 227.436,291.372 226,288.5 226,288.5 225,281 225,281 225,281 226,280 226,280 226,280 226,279 226,279 226,279 227,278 227,278 227,278 227,277 227,277 230.626,277 231,282.878 231,286  Z"/>

<path  fill="#C9C9C8" stroke-width="0" stroke="#C9C9C8" d = " M311 278 L312,278 C312,278 312,277 312,277 312,277 311,278 311,278  Z"/>

<path  fill="#FF9BCD" stroke-width="0" stroke="#FF9BCD" d = " M314 277 L312,278 C312,278 312,277 312,277 312,277 314,277 314,277  Z"/>

<path  fill="#FF9BCD" stroke-width="0" stroke="#FF9BCD" d = " M227 278 L226,279 C226,279 227,278 227,278  Z"/>

<path  fill="#FF9BCD" stroke-width="0" stroke="#FF9BCD" d = " M312 278 C312,279.473 310.048,279 309,279 309,279 311,278 311,278 311,278 312,278 312,278  Z"/>

<path  fill="#FF9BCD" stroke-width="0" stroke="#FF9BCD" d = " M309 279 C307.576,279 304,279.362 304,281 305.424,281 309,280.638 309,279  Z"/>

<path  fill="#CBC7CC" stroke-width="0" stroke="#CBC7CC" d = " M169 285 L170,285 C170,286.538 180.819,291.341 179.5,292 177.181,293.16 149.057,280 161,280 161,280 163,281 163,281 163,281 167,284 167,284 167,284 168,284 168,284 168,284 169,285 169,285  Z"/>

<path  fill="#FF9BCD" stroke-width="0" stroke="#FF9BCD" d = " M226 280 L225,281 C225,281 226,280 226,280  Z"/>

<path  fill="#CBC7CC" stroke-width="0" stroke="#CBC7CC" d = " M277 293 L278,293 C278,291.817 281.57,291.465 282.5,291 285.861,289.32 292.476,287.024 295,284.5 295.632,283.868 300.882,281.191 298.5,280 298.5,280 295,281 295,281 295,281 294,281 294,281 294,282.577 292.238,283 291,283 291,283 290,283 290,283 290,283 289,284 289,284 289,284 288,285 288,285 288,285 287,285 287,285 287,285 285,286 285,286 285,286 283,287 283,287 283,287 282,288 282,288 282,289.482 277,289.576 277,293  Z"/>

<path  fill="#FF9BCD" stroke-width="0" stroke="#FF9BCD" d = " M163 281 C164.429,281 167,282.288 167,284 167,284 163,281 163,281  Z"/>

<path  fill="#FF9BCD" stroke-width="0" stroke="#FF9BCD" d = " M219 299 C222.658,299 228.028,292 228.5,292 L231,295.5 C232.917,297.417 235.21,299 238,299 238,299 233,293.5 233,293.5 233,293.5 239,290 239,290 235.649,290 233.404,287 231,287 231,289.289 227.436,291.372 226,288.5 226,288.5 225,281 225,281 219.157,281 226.645,287.428 223.5,289 220.06,290.72 213,286.871 213,289 214.475,289 224.299,291.903 223,294.5 223,294.5 219,299 219,299  Z"/>

<path  fill="#FF9BCD" stroke-width="0" stroke="#FF9BCD" d = " M286 281 L285,282 C285,282 286,281 286,281  Z"/>

<path  fill="#FF9BCD" stroke-width="0" stroke="#FF9BCD" d = " M294 281 C292.762,281 291,281.423 291,283 292.238,283 294,282.577 294,281  Z"/>

<path  fill="#FF9BCD" stroke-width="0" stroke="#FF9BCD" d = " M171 282 L172,283 C172,283 171,282 171,282  Z"/>

<path  fill="#FF9BCD" stroke-width="0" stroke="#FF9BCD" d = " M285 282 L284,283 C284,283 285,282 285,282  Z"/>

<path  fill="#FF9BCD" stroke-width="0" stroke="#FF9BCD" d = " M284 283 L283,284 C283,284 284,283 284,283  Z"/>

<path  fill="#FF9BCD" stroke-width="0" stroke="#FF9BCD" d = " M290 283 L289,284 C289,284 290,283 290,283  Z"/>

<path  fill="#FF9BCD" stroke-width="0" stroke="#FF9BCD" d = " M168 284 L169,285 C169,285 168,284 168,284  Z"/>

<path  fill="#FF9BCD" stroke-width="0" stroke="#FF9BCD" d = " M283 284 L282,285 C282,285 283,284 283,284  Z"/>

<path  fill="#FF9BCD" stroke-width="0" stroke="#FF9BCD" d = " M289 284 L288,285 C288,285 289,284 289,284  Z"/>

<path  fill="#FF9BCD" stroke-width="0" stroke="#FF9BCD" d = " M287 285 L285,286 C285,286 287,285 287,285  Z"/>

<path  fill="#FF9BCD" stroke-width="0" stroke="#FF9BCD" d = " M285 286 L283,287 C283,287 285,286 285,286  Z"/>

<path  fill="#FF9BCD" stroke-width="0" stroke="#FF9BCD" d = " M283 287 L282,288 C282,288 283,287 283,287  Z"/>

<path  fill="#FF9BCD" stroke-width="0" stroke="#FF9BCD" d = " M240 289 L243,289 C243,287.514 240,287.514 240,289  Z"/>

<path  fill="#FF9BCD" stroke-width="0" stroke="#FF9BCD" d = " M212 289 L210,290 C210,290 212,289 212,289  Z"/>

<path  fill="#C7C9C9" stroke-width="0" stroke="#C7C9C9" d = " M217 299 L219,299 C219,299 223,294.5 223,294.5 224.299,291.903 214.475,289 213,289 213,289 212,289 212,289 212,289 210,290 210,290 210,290 208,292.5 208,292.5 208,292.5 209,295 209,295 209,300.029 211.452,299 217,299  Z"/>

<path  fill="#FF9BCD" stroke-width="0" stroke="#FF9BCD" d = " M240 289 L239,290 C239,290 240,289 240,289  Z"/>

<path  fill="#C7C9C9" stroke-width="0" stroke="#C7C9C9" d = " M238 299 L240,299 C240,299 245,299 245,299 253.262,299 245,289.689 245,289 245,289 243,289 243,289 243,289 240,289 240,289 240,289 239,290 239,290 239,290 233,293.5 233,293.5 233,293.5 238,299 238,299  Z"/>

</g>
</svg>
