<svg xmlns="http://www.w3.org/2000/svg" xmlns:xlink="http://www.w3.org/1999/xlink"  viewBox="0 0 456 320">
<g>
<rect width="456" height="320" fill="#000000"  stroke-width="0" /> 
<path  fill="#098589" stroke-width="0" stroke="#098589" d = " M83 63 C84.5392,63 86,64.3415 86,66 88.6363,66 91.8699,59.815 93.5,59 102.057,54.7213 108.502,47.4992 117.5,43 127.121,38.1894 136.935,33.7827 146.5,29 151.21,26.6452 157.787,28.3566 162.5,26 162.5,26 174,28 174,28 174,28 175,24 175,24 175,22.2998 169.863,23 168.5,23 163.857,23 150.79,23.3552 147.5,25 135.578,30.9609 122.539,34.9806 110.5,41 110.5,41 96.5,51 96.5,51 94.0479,52.2261 83,59.7252 83,63  Z"/>

<path  fill="#098589" stroke-width="0" stroke="#098589" d = " M373 63 C371.423,63 371,64.7617 371,66 367.94,66 350.52,49.5099 345.5,47 333.755,41.1274 322.167,34.8334 310.5,29 305.541,26.5207 298.463,28.4815 293.5,26 290.474,24.4868 285.746,28 283,28 283,28 282,28 282,28 282,28 281,24 281,24 281,22.2998 286.137,23 287.5,23 292.143,23 305.21,23.3552 308.5,25 319.382,30.4412 331.533,33.5167 342.5,39 348.562,42.0309 354.184,48.342 359.5,51 363.428,52.9639 373,59.2173 373,63  Z"/>

<path  fill="#1BA696" stroke-width="0" stroke="#1BA696" d = " M191 33 L183,37 C183,33.4195 177.526,28 174,28 174,28 175,24 175,24 179.374,24 191,27.5305 191,33  Z"/>

<path  fill="#1BA696" stroke-width="0" stroke="#1BA696" d = " M265 32 L274,38 C274,33.8707 277.297,28 282,28 282,28 281,24 281,24 277.764,24 265,27.7273 265,32  Z"/>

<path  fill="#0A828C" stroke-width="0" stroke="#0A828C" d = " M86 67 C87.7768,67 91,71.0129 91,73 91,73 106.5,61 106.5,61 120.668,53.9161 133.408,44.0458 147.5,37 152.042,34.729 157.993,35 163.5,35 164.778,35 169,34.3345 169,36 170.884,36 174,29.5996 174,28 174,28 162.5,26 162.5,26 157.787,28.3566 151.21,26.6452 146.5,29 136.935,33.7827 127.121,38.1894 117.5,43 108.502,47.4992 102.057,54.7213 93.5,59 91.8699,59.815 88.6363,66 86,66 86,66 86,67 86,67  Z"/>

<path  fill="#0A828C" stroke-width="0" stroke="#0A828C" d = " M365 73 L366,73 C366,70.4622 368.152,67 371,67 371,67 371,66 371,66 367.94,66 350.52,49.5099 345.5,47 333.755,41.1274 322.167,34.8334 310.5,29 305.541,26.5207 298.463,28.4815 293.5,26 290.474,24.4868 285.746,28 283,28 283,30.591 284.238,35 287,35 287,35 303.5,35 303.5,35 313.849,40.1743 324.09,45.795 334.5,51 334.5,51 348.5,61 348.5,61 350.456,61.9781 365,71.9757 365,73  Z"/>

<path  fill="#1AA496" stroke-width="0" stroke="#1AA496" d = " M166 40 C167.766,40 171,40.6074 171,43 174.35,43 178.045,39 182,39 182,39 183,38 183,38 183,38 183,37 183,37 183,33.4195 177.526,28 174,28 174,29.5996 170.884,36 169,36 169,36 166,40 166,40  Z"/>

<path  fill="#1AA496" stroke-width="0" stroke="#1AA496" d = " M285 43 L286,43 C286,40.4004 288.639,40 291,40 291,38.0935 287,37.6179 287,35 284.238,35 283,30.591 283,28 283,28 282,28 282,28 277.297,28 274,33.8707 274,38 275.464,38 285,41.8269 285,43  Z"/>

<path  fill="#1BA598" stroke-width="0" stroke="#1BA598" d = " M298 73 L299,73 C299,64.8073 274,48.7188 274,38 274,38 265,32 265,32 265,44.3991 277.838,47.1768 283,57.5 283,57.5 288,61.5 288,61.5 289.124,63.7475 295.617,73 298,73  Z"/>

<path  fill="#1BA598" stroke-width="0" stroke="#1BA598" d = " M157 73 L159,73 C159,73 181,47.5 181,47.5 181,47.5 190.5,39 190.5,39 191.23,38.2704 193.464,33 191,33 191,33 183,37 183,37 183,37 183,38 183,38 183,38 182,39 182,39 182,48.4382 157,66.0121 157,73  Z"/>

<path  fill="#0B848B" stroke-width="0" stroke="#0B848B" d = " M91 73 L94,77 C98.6841,77 104.171,68.6643 107.5,67 113.294,64.1032 117.584,57.9582 123.5,55 130.909,51.2957 138.058,46.7209 145.5,43 145.5,43 159.5,39 159.5,39 160.573,38.4637 165,38.7491 165,40 165,40 166,40 166,40 166,40 169,36 169,36 169,34.3345 164.778,35 163.5,35 157.993,35 152.042,34.729 147.5,37 133.408,44.0458 120.668,53.9161 106.5,61 106.5,61 91,73 91,73  Z"/>

<path  fill="#0B848B" stroke-width="0" stroke="#0B848B" d = " M365 73 L363,77 C355.857,77 342.541,60.5206 335.5,57 319.424,48.9619 309.6,40 291,40 291,38.0935 287,37.6179 287,35 287,35 303.5,35 303.5,35 313.849,40.1743 324.09,45.795 334.5,51 334.5,51 348.5,61 348.5,61 350.456,61.9781 365,71.9757 365,73  Z"/>

<path  fill="#1BA697" stroke-width="0" stroke="#1BA697" d = " M183 38 L182,39 C182,39 183,38 183,38  Z"/>

<path  fill="#1BA697" stroke-width="0" stroke="#1BA697" d = " M299 73 L303,73 C303,70.5692 297.718,67.9365 297,66.5 293.216,58.931 285,52.0654 285,43 285,41.8269 275.464,38 274,38 274,48.7188 299,64.8073 299,73  Z"/>

<path  fill="#088389" stroke-width="0" stroke="#088389" d = " M98 86 L99,86 C99,86 110,76.5 110,76.5 117.609,68.8911 139.787,52 150,52 150,52 151,52 151,52 151,52 165,40 165,40 165,38.7491 160.573,38.4637 159.5,39 159.5,39 145.5,43 145.5,43 138.058,46.7209 130.909,51.2957 123.5,55 117.584,57.9582 113.294,64.1032 107.5,67 104.171,68.6643 98.6841,77 94,77 94,77 94,78 94,78 94,78 98,86 98,86  Z"/>

<path  fill="#1BA697" stroke-width="0" stroke="#1BA697" d = " M153 73 L157,73 C157,66.0121 182,48.4382 182,39 178.045,39 174.35,43 171,43 171,51.8118 164.624,57.2529 161,64.5 160.077,66.3451 153,70.1334 153,73  Z"/>

<path  fill="#088389" stroke-width="0" stroke="#088389" d = " M363 78 C361.438,78 358,84.6529 358,86 353.305,86 348.653,77.0763 344.5,75 332.652,69.0761 321.047,52 306,52 306,52 305,52 305,52 305,52 291,40 291,40 309.6,40 319.424,48.9619 335.5,57 342.541,60.5206 355.857,77 363,77 363,77 363,78 363,78  Z"/>

<path  fill="#1CA697" stroke-width="0" stroke="#1CA697" d = " M151 52 C152.145,52 155,51.4209 155,53 155,53 171,43 171,43 171,40.6074 167.766,40 166,40 166,40 165,40 165,40 165,40 151,52 151,52  Z"/>

<path  fill="#1CA697" stroke-width="0" stroke="#1CA697" d = " M301 53 L302,53 C302,51.5271 303.952,52 305,52 305,52 291,40 291,40 288.639,40 286,40.4004 286,43 286,43 301,53 301,53  Z"/>

<path  fill="#FF7AFD" stroke-width="0" stroke="#FF7AFD" d = " M228 67 L229,67 C229,67 230,65 230,65 230,33.3621 261.567,41.0669 277,56.5 277,56.5 287,67.5 287,67.5 287.606,68.7116 289.24,73 291,73 291,67.0051 284.563,65.6266 282,60.5 276.608,49.7168 253.613,35.9435 241.5,42 238.16,43.67 232.39,46.7204 231,49.5 229.821,51.857 231.135,57 228.5,57 228.5,57 226.5,51 226.5,51 222.105,48.8027 217.478,43.4892 212.5,41 206.461,37.9807 185,46.0548 185,51 186.6,51 199.065,44.2174 201.5,43 209.286,39.1071 222.219,46.9373 225,52.5 226.67,55.8394 226,61.0029 226,65 226,65 228,67 228,67  Z"/>

<path  fill="#1AA596" stroke-width="0" stroke="#1AA596" d = " M147 73 L153,73 C153,70.1334 160.077,66.3451 161,64.5 164.624,57.2529 171,51.8118 171,43 171,43 155,53 155,53 155,53 155,54 155,54 156.9,54 155.468,58.5646 155,59.5 152.965,63.571 147,68.2992 147,73  Z"/>

<path  fill="#FF78FF" stroke-width="0" stroke="#FF78FF" d = " M169 67 L167,73 C172.695,73 178.557,65.4713 183.5,63 183.5,63 197.5,56 197.5,56 201.337,54.0815 206.602,54.9489 210.5,53 218.219,49.1407 221.494,65 226,65 226,61.0029 226.67,55.8394 225,52.5 222.219,46.9373 209.286,39.1071 201.5,43 199.065,44.2174 186.6,51 185,51 185,51 171,65 171,65 171,66.7469 170.747,67 169,67  Z"/>

<path  fill="#FF78FF" stroke-width="0" stroke="#FF78FF" d = " M291 74 L291,75 C291,75 279.5,67 279.5,67 270.255,62.3773 260.61,58.5548 251.5,54 238.915,47.7074 234.431,65 230,65 230,33.3621 261.567,41.0669 277,56.5 277,56.5 287,67.5 287,67.5 287.606,68.7116 289.24,73 291,73 291,73 291,74 291,74  Z"/>

<path  fill="#1AA596" stroke-width="0" stroke="#1AA596" d = " M303 73 L310,73 C310,67.2713 301,62.0277 301,53 301,53 286,43 286,43 286,43 285,43 285,43 285,52.0654 293.216,58.931 297,66.5 297.718,67.9365 303,70.5692 303,73  Z"/>

<path  fill="#FF7AFD" stroke-width="0" stroke="#FF7AFD" d = " M185 51 C181.452,51 171,61.4517 171,65 171,65 185,51 185,51  Z"/>

<path  fill="#08858C" stroke-width="0" stroke="#08858C" d = " M121 86 C116.946,86 111.064,88.218 107.5,90 103.842,91.8292 101.594,87 99,87 99,87 99,86 99,86 99,86 110,76.5 110,76.5 117.609,68.8911 139.787,52 150,52 150,52 143,58.5 143,58.5 139.031,66.4387 130.555,73.3906 127,80.5 127,80.5 121,86 121,86  Z"/>

<path  fill="#1CA597" stroke-width="0" stroke="#1CA597" d = " M121 86 L123,86 C127.63,86 131.186,77 136,77 136,77 138,75 138,75 138,69.3918 150.034,54 155,54 155,54 155,53 155,53 155,51.4209 152.145,52 151,52 151,52 150,52 150,52 150,52 143,58.5 143,58.5 139.031,66.4387 130.555,73.3906 127,80.5 127,80.5 121,86 121,86  Z"/>

<path  fill="#1CA597" stroke-width="0" stroke="#1CA597" d = " M334 86 L335,86 C335,86 328,78.5 328,78.5 322.402,72.9019 320.186,65.6861 314.5,60 314.5,60 306,52 306,52 306,52 305,52 305,52 303.952,52 302,51.5271 302,53 302,57.862 319,65.0914 319,75 319,75 321,77 321,77 325.12,77 329.145,86 334,86  Z"/>

<path  fill="#08858C" stroke-width="0" stroke="#08858C" d = " M358 86 L358,87 C355.406,87 353.158,91.8292 349.5,90 345.924,88.2122 339.037,86 335,86 335,86 328,78.5 328,78.5 322.402,72.9019 320.186,65.6861 314.5,60 314.5,60 306,52 306,52 321.047,52 332.652,69.0761 344.5,75 348.653,77.0763 353.305,86 358,86  Z"/>

<path  fill="#FD7AFF" stroke-width="0" stroke="#FD7AFF" d = " M165 77 L165,78 C169.31,78 171.524,72.9878 175.5,71 180.245,68.6276 184.689,65.4055 189.5,63 189.5,63 201.5,59 201.5,59 206.233,56.6336 215.986,59.486 219,62.5 219.737,63.237 228,71.4471 228,67 228,67 226,65 226,65 221.494,65 218.219,49.1407 210.5,53 206.602,54.9489 201.337,54.0815 197.5,56 197.5,56 183.5,63 183.5,63 178.557,65.4713 172.695,73 167,73 167,73 166,74 166,74 166,74 165,75 165,75 165,75 165,77 165,77  Z"/>

<path  fill="#FD7AFF" stroke-width="0" stroke="#FD7AFF" d = " M292 78 L292,79 C292,79 280.5,71 280.5,71 275.484,68.492 271.79,65.645 266.5,63 266.5,63 254.5,59 254.5,59 249.404,56.4521 240.748,59.7516 237.5,63 236.791,63.7095 229,71.3465 229,67 229,67 230,65 230,65 234.431,65 238.915,47.7074 251.5,54 260.61,58.5548 270.255,62.3773 279.5,67 279.5,67 291,75 291,75 291,75 292,75 292,75 292,75 292,78 292,78  Z"/>

<path  fill="#1AA697" stroke-width="0" stroke="#1AA697" d = " M310 73 C313.618,73 316.154,75 319,75 319,65.0914 302,57.862 302,53 302,53 301,53 301,53 301,62.0277 310,67.2713 310,73  Z"/>

<path  fill="#1AA697" stroke-width="0" stroke="#1AA697" d = " M147 73 C143.699,73 139.477,75 138,75 138,69.3918 150.034,54 155,54 156.9,54 155.468,58.5646 155,59.5 152.965,63.571 147,68.2992 147,73  Z"/>

<path  fill="#FF90FF" stroke-width="0" stroke="#FF90FF" d = " M160 92 C160,89.1872 179.271,78.6147 182.5,77 189.202,73.6491 205.478,62.4889 214.5,67 218.921,69.2103 225.72,78.3901 230.5,76 L242.5,67 C249.783,63.3586 261.149,70.3244 266.5,73 270.444,74.9722 296,87.5679 296,92 301.674,92 295.146,79 292,79 292,79 280.5,71 280.5,71 275.484,68.492 271.79,65.645 266.5,63 266.5,63 254.5,59 254.5,59 249.404,56.4521 240.748,59.7516 237.5,63 236.791,63.7095 229,71.3465 229,67 229,67 228,67 228,67 228,71.4471 219.737,63.237 219,62.5 215.986,59.486 206.233,56.6336 201.5,59 201.5,59 189.5,63 189.5,63 184.689,65.4055 180.245,68.6276 175.5,71 171.524,72.9878 169.31,78 165,78 165,78 164,79 164,79 164,83.7015 156.108,83.7151 159,89.5 159.459,90.4189 158.235,92 160,92  Z"/>

<path  fill="#09848A" stroke-width="0" stroke="#09848A" d = " M67 80 L70,82 C70,80.9053 85.198,67 86,67 86,67 86,66 86,66 86,64.3415 84.5392,63 83,63 81.7324,63 67,78.6487 67,80  Z"/>

<path  fill="#09848A" stroke-width="0" stroke="#09848A" d = " M386 82 L387,82 C387,80.5187 389,81.2148 389,79 389,76.8171 385.595,75.6899 385,74.5 383.744,71.9887 376.015,63 373,63 371.423,63 371,64.7617 371,66 371,66 371,67 371,67 371.588,67 386,81.3384 386,82  Z"/>

<path  fill="#FF7AFD" stroke-width="0" stroke="#FF7AFD" d = " M171 65 C169.253,65 169,65.2531 169,67 170.747,67 171,66.7469 171,65  Z"/>

<path  fill="#0A8489" stroke-width="0" stroke="#0A8489" d = " M75 87 L76,87 C76,87 87,76.5 87,76.5 87,76.5 91,73 91,73 91,71.0129 87.7768,67 86,67 85.198,67 70,80.9053 70,82 70,82 70,83 70,83 71.7116,83 73,85.5711 73,87 73,87 75,87 75,87  Z"/>

<path  fill="#FF7AFD" stroke-width="0" stroke="#FF7AFD" d = " M166 74 L165,75 C165,72.798 166.226,67 169,67 169,67 167,73 167,73 167,73 166,74 166,74  Z"/>

<path  fill="#FF90FE" stroke-width="0" stroke="#FF90FE" d = " M170 101 L205.5,79 C214.148,74.6761 226.607,82.9464 228.5,82 230.957,80.7715 241.947,75.7233 244.5,77 246.675,78.0875 249.425,77.9623 251.5,79 259.57,83.0349 266.535,89.0174 274.5,93 L284.5,99 L287,102 C287,102 293,93.5 293,93.5 293,93.5 296,92 296,92 296,87.5679 270.444,74.9722 266.5,73 261.149,70.3244 249.783,63.3586 242.5,67 242.5,67 230.5,76 230.5,76 225.72,78.3901 218.921,69.2103 214.5,67 205.478,62.4889 189.202,73.6491 182.5,77 179.271,78.6147 160,89.1872 160,92 165.421,92 165.394,101 170,101  Z"/>

<path  fill="#0A8489" stroke-width="0" stroke="#0A8489" d = " M381 87 L383,87 C383,87 386,82 386,82 386,81.3384 371.588,67 371,67 368.152,67 366,70.4622 366,73 366,73 380,87 380,87 380,87 381,87 381,87  Z"/>

<path  fill="#08828B" stroke-width="0" stroke="#08828B" d = " M79 88 L80,88 C80,88 82,87 82,87 82,87 94,78 94,78 94,78 94,77 94,77 94,77 91,73 91,73 91,73 87,76.5 87,76.5 87,76.5 76,87 76,87 77.0479,87 79,86.5271 79,88  Z"/>

<path  fill="#33B932" stroke-width="0" stroke="#33B932" d = " M136 77 C136,81.4367 141.089,85.6785 143,89.5 143.579,90.6585 142.659,93 145,93 145,93 159,73 159,73 159,73 157,73 157,73 157,73 153,73 153,73 153,73 147,73 147,73 143.699,73 139.477,75 138,75 138,75 136,77 136,77  Z"/>

<path  fill="#FF78FF" stroke-width="0" stroke="#FF78FF" d = " M167 73 L166,74 C166,74 167,73 167,73  Z"/>

<path  fill="#33B932" stroke-width="0" stroke="#33B932" d = " M321 77 L319,80.5 C317.196,84.1071 312,89.9433 312,94 312,94 309,89.5 309,89.5 306.672,84.8437 298,78.222 298,73 298,73 299,73 299,73 299,73 303,73 303,73 303,73 310,73 310,73 313.618,73 316.154,75 319,75 319,75 321,77 321,77  Z"/>

<path  fill="#08828B" stroke-width="0" stroke="#08828B" d = " M376 88 L377,88 C377,86.5271 378.952,87 380,87 380,87 366,73 366,73 366,73 365,73 365,73 365,73 363,77 363,77 363,77 363,78 363,78 363,81.3895 375,83.1382 375,88 375,88 376,88 376,88  Z"/>

<path  fill="#FF7AFD" stroke-width="0" stroke="#FF7AFD" d = " M291 75 L292,75 C292,75 291,74 291,74 291,74 291,75 291,75  Z"/>

<path  fill="#47C83C" stroke-width="0" stroke="#47C83C" d = " M114 109 L138,109 C138,109 145,93 145,93 142.659,93 143.579,90.6585 143,89.5 141.089,85.6785 136,81.4367 136,77 131.186,77 127.63,86 123,86 123,86 117,89 117,89 117,89 117,90 117,90 117,90 117,91 117,91 117,97.9127 113,102.187 113,109 113,109 114,109 114,109  Z"/>

<path  fill="#FF64FF" stroke-width="0" stroke="#FF64FF" d = " M164 78 L165,78 C165,78 165,77 165,77 165,77 164,78 164,78  Z"/>

<path  fill="#FF8FFF" stroke-width="0" stroke="#FF8FFF" d = " M189 112 C189,99.8874 199.787,91.8565 209.5,87 213.877,84.8117 220.745,87 226,87 L238,87 L241.5,86 C253.458,91.979 267,96.1536 267,112 277.473,112 279.142,116.216 285,104.5 285,104.5 287,102 287,102 287,102 284.5,99 284.5,99 284.5,99 274.5,93 274.5,93 266.535,89.0174 259.57,83.0349 251.5,79 249.425,77.9623 246.675,78.0875 244.5,77 241.947,75.7233 230.957,80.7715 228.5,82 226.607,82.9464 214.148,74.6761 205.5,79 205.5,79 170,101 170,101 170,114.416 180.83,112 189,112  Z"/>

<path  fill="#47C83C" stroke-width="0" stroke="#47C83C" d = " M343 109 L344,109 C344,109 344,107 344,107 342.049,107 343.523,104.546 343,103.5 341.097,99.6942 339,95.5587 339,91 339,91 339,90 339,90 339,90 339,89 339,89 337.762,89 334,87.0768 334,86 329.145,86 325.12,77 321,77 321,77 319,80.5 319,80.5 317.196,84.1071 312,89.9433 312,94 312,97.6929 315.417,101.333 317,104.5 317.559,105.619 317.155,109 319,109 319,109 343,109 343,109  Z"/>

<path  fill="#0B858B" stroke-width="0" stroke="#0B858B" d = " M98 87 L96,88 C93.0861,88 82,88.4198 82,87 82,87 94,78 94,78 94,78 98,86 98,86 98,86 98,87 98,87  Z"/>

<path  fill="#FD7AFF" stroke-width="0" stroke="#FD7AFF" d = " M165 78 L164,79 C164,79 164,78 164,78 164,78 165,78 165,78  Z"/>

<path  fill="#FF64FF" stroke-width="0" stroke="#FF64FF" d = " M265 125 C267.389,125 276.549,115.025 284.5,119 L293,125 C293,117.318 294.828,110.844 298,104.5 298.781,102.938 300.841,97.6707 303.5,99 307.804,101.152 311.174,107.848 313,111.5 313.559,112.619 313.155,116 315,116 315,105.181 302,97.6517 302,88 302,88 292,78 292,78 292,78 292,79 292,79 295.146,79 301.674,92 296,92 296,92 293,93.5 293,93.5 293,93.5 287,102 287,102 287,102 285,104.5 285,104.5 279.142,116.216 277.473,112 267,112 267,113.949 267.991,120 265,120 265,120 265,125 265,125  Z"/>

<path  fill="#0B858B" stroke-width="0" stroke="#0B858B" d = " M361 88 C367.207,88 370.034,88 375,88 375,83.1382 363,81.3895 363,78 361.438,78 358,84.6529 358,86 358,86 358,87 358,87 358,87 361,88 361,88  Z"/>

<path  fill="#FF64FF" stroke-width="0" stroke="#FF64FF" d = " M191 124 C186.757,124 179.64,115.43 172.5,119 171,119.75 164.388,125 164,125 164,120.899 158.285,96.1075 152.5,99 149.641,100.429 143.698,112 143,112 143,102.512 155,97.51 155,88 155,85.4893 161.43,79 164,79 164,83.7015 156.108,83.7151 159,89.5 159.459,90.4189 158.235,92 160,92 165.421,92 165.394,101 170,101 170,114.416 180.83,112 189,112 189,112.981 190.184,120 191,120 191,120 191,124 191,124  Z"/>

<path  fill="#0C858C" stroke-width="0" stroke="#0C858C" d = " M396 87 C396,88.6426 392.235,88 391,88 391,88 387,82 387,82 387,80.5187 389,81.2148 389,79 389,79 396,87 396,87  Z"/>

<path  fill="#0C858C" stroke-width="0" stroke="#0C858C" d = " M65 87 L66,87 C66,87 70,83 70,83 70,83 70,82 70,82 70,82 67,80 67,80 64.9757,80 61,85.8293 61,87 61,89.5596 64.3339,87 65,87  Z"/>

<path  fill="#0A858A" stroke-width="0" stroke="#0A858A" d = " M383 87 C386.119,87 388.616,88 391,88 391,88 387,82 387,82 387,82 386,82 386,82 386,82 383,87 383,87  Z"/>

<path  fill="#0A858A" stroke-width="0" stroke="#0A858A" d = " M66 87 C66,88.8568 72.3917,87 73,87 73,85.5711 71.7116,83 70,83 70,83 66,87 66,87  Z"/>

<path  fill="#08848C" stroke-width="0" stroke="#08848C" d = " M98 87 L99,87 C99,87 99,86 99,86 99,86 98,86 98,86 98,86 98,87 98,87  Z"/>

<path  fill="#08838C" stroke-width="0" stroke="#08838C" d = " M86 107 L87,107 C87,107 88,106 88,106 88,106 89,105 89,105 89,102.527 92.5274,99 95,99 95,97.3826 99.583,95 101,95 101,90.9507 113.725,89 117,89 117,89 123,86 123,86 123,86 121,86 121,86 116.946,86 111.064,88.218 107.5,90 103.842,91.8292 101.594,87 99,87 99,87 98,87 98,87 98,87 96,88 96,88 96,88 85,100 85,100 85,100 85,102 85,102 86.6997,102 86,105.3 86,107  Z"/>

<path  fill="#FF8FFE" stroke-width="0" stroke="#FF8FFE" d = " M191 120 C191,106.057 199.177,95.1614 211.5,89 L230,89 L245.5,89 C257.807,95.1534 265,105.358 265,120 267.991,120 267,113.949 267,112 267,96.1536 253.458,91.979 241.5,86 241.5,86 238,87 238,87 238,87 226,87 226,87 220.745,87 213.877,84.8117 209.5,87 199.787,91.8565 189,99.8874 189,112 189,112.981 190.184,120 191,120  Z"/>

<path  fill="#08838C" stroke-width="0" stroke="#08838C" d = " M369 106 L370,107 C370,102.958 371.404,107.692 372,106.5 372.149,106.202 371,101.373 371,101 371,101 371,100 371,100 371,100 361,88 361,88 361,88 358,87 358,87 355.406,87 353.158,91.8292 349.5,90 345.924,88.2122 339.037,86 335,86 335,86 334,86 334,86 334,87.0768 337.762,89 339,89 344.96,89 367,97.6392 367,104 367,104 367,105 367,105 367,105 368,105 368,105 368,105 369,106 369,106  Z"/>

<path  fill="#09818C" stroke-width="0" stroke="#09818C" d = " M45 136 L40,141 C40,125.171 38.9771,119.546 46,105.5 46,105.5 53,96.5 53,96.5 53.9582,94.5836 58.2031,87 61,87 61,89.5596 64.3339,87 65,87 65,90.6472 53.1594,102.181 51,106.5 46.2969,115.906 45,123.462 45,135 45,135 45,136 45,136  Z"/>

<path  fill="#0A8389" stroke-width="0" stroke="#0A8389" d = " M54 130 C50.7102,130 48.4818,135 45,135 45,123.462 46.2969,115.906 51,106.5 53.1594,102.181 65,90.6472 65,87 65,87 66,87 66,87 66,88.8568 72.3917,87 73,87 73,87 75,87 75,87 75,89.5724 54.136,109 63,109 63,113.039 55,121.083 55,129 55,129 54,130 54,130  Z"/>

<path  fill="#0A828A" stroke-width="0" stroke="#0A828A" d = " M79 89 C79,90.7996 63,103.39 63,109 54.136,109 75,89.5724 75,87 75,87 76,87 76,87 77.0479,87 79,86.5271 79,88 79,88 79,89 79,89  Z"/>

<path  fill="#0B838C" stroke-width="0" stroke="#0B838C" d = " M80 89 C80,92.6038 85,95.8074 85,100 85,100 96,88 96,88 93.0861,88 82,88.4198 82,87 82,87 80,88 80,88 80,88 80,89 80,89  Z"/>

<path  fill="#0B838C" stroke-width="0" stroke="#0B838C" d = " M376 89 L371,100 C371,100 361,88 361,88 367.207,88 370.034,88 375,88 375,88 376,88 376,88 376,88 376,89 376,89  Z"/>

<path  fill="#0A828A" stroke-width="0" stroke="#0A828A" d = " M377 89 C381.678,89 392.752,109 394,109 397.12,109 394.665,104.83 394,103.5 394,103.5 381,87 381,87 381,87 380,87 380,87 378.952,87 377,86.5271 377,88 377,88 377,89 377,89  Z"/>

<path  fill="#0A8389" stroke-width="0" stroke="#0A8389" d = " M402 130 L411,135 C411,123.094 409.856,115.212 405,105.5 405,105.5 391,88 391,88 388.616,88 386.119,87 383,87 383,87 381,87 381,87 381,87 394,103.5 394,103.5 394.665,104.83 397.12,109 394,109 394,115.899 402,121.551 402,129 402,129 402,130 402,130  Z"/>

<path  fill="#09818C" stroke-width="0" stroke="#09818C" d = " M411 136 C414.165,136 413.508,140 416,140 416,125.422 417.589,119.678 411,106.5 411,106.5 405,98.5 405,98.5 403.804,96.1088 398.093,87 396,87 396,88.6426 392.235,88 391,88 391,88 405,105.5 405,105.5 409.856,115.212 411,123.094 411,135 411,135 411,136 411,136  Z"/>

<path  fill="#0B858A" stroke-width="0" stroke="#0B858A" d = " M79 89 L80,89 C80,89 80,88 80,88 80,88 79,88 79,88 79,88 79,89 79,89  Z"/>

<path  fill="#C9C8C8" stroke-width="0" stroke="#C9C8C8" d = " M141 120 C138.692,120 140.743,127.013 140,128.5 139.005,130.489 137,128.414 137,127 137,118.245 145.658,88 155,88 155,97.51 143,102.512 143,112 141.005,112 141,116.377 141,118 141,118 141,120 141,120  Z"/>

<path  fill="#C9C8C8" stroke-width="0" stroke="#C9C8C8" d = " M315 117 C318.267,117 312.515,129 320,129 320,117.13 315.87,109.241 311,99.5 309.445,96.39 306.78,88 302,88 302,97.6517 315,105.181 315,116 315,116 315,117 315,117  Z"/>

<path  fill="#0B858A" stroke-width="0" stroke="#0B858A" d = " M376 89 L377,89 C377,89 377,88 377,88 377,88 376,88 376,88 376,88 376,89 376,89  Z"/>

<path  fill="#0B838A" stroke-width="0" stroke="#0B838A" d = " M61 128 L55,129 C55,121.083 63,113.039 63,109 63,103.39 79,90.7996 79,89 79,89 80,89 80,89 80,92.6038 85,95.8074 85,100 85,100 85,102 85,102 83.7418,102 70,120.208 70,122 70,122 69,123 69,123 69,123 69,124 69,124 69,124 61,128 61,128  Z"/>

<path  fill="#08848A" stroke-width="0" stroke="#08848A" d = " M117 90 C111.099,90 106.425,95 101,95 101,90.9507 113.725,89 117,89 117,89 117,90 117,90  Z"/>

<path  fill="#FC8FFF" stroke-width="0" stroke="#FC8FFF" d = " M234 153 L235,153 C235,149.582 242,145.924 242,151 242,151 245,152 245,152 248.576,152 250.53,149.485 253.5,148 266.183,141.659 265,139.111 265,125 265,125 265,120 265,120 265,105.358 257.807,95.1534 245.5,89 245.5,89 230,89 230,89 230,89 211.5,89 211.5,89 199.177,95.1614 191,106.057 191,120 191,120 191,124 191,124 191,136.715 189.422,140.961 201.5,147 204.877,148.688 206.919,152 211,152 211,152 214,151 214,151 214,147.148 221,148.958 221,152 221,152 223,152 223,152 223,152 223,133.5 223,133.5 223,133.5 226,130 226,130 226,130 226,125 226,125 226,116.876 215.726,120.774 225.5,111 225.5,111 227.5,107 227.5,107 228.967,106.267 236.111,116.278 235,118.5 235,118.5 230,125 230,125 231.643,125 231,128.765 231,130 231,131.009 233.421,135.343 234,136.5 234.176,136.852 234,151.531 234,153  Z"/>

<path  fill="#08848A" stroke-width="0" stroke="#08848A" d = " M339 90 C345.373,90 351.178,93.339 356.5,96 L367,104 C367,97.6392 344.96,89 339,89 339,89 339,90 339,90  Z"/>

<path  fill="#0B838A" stroke-width="0" stroke="#0B838A" d = " M395 127 C397.16,127 399.167,129 402,129 402,121.551 394,115.899 394,109 392.752,109 381.678,89 377,89 377,89 376,89 376,89 376,89 371,100 371,100 371,100 371,101 371,101 371,101 375.5,106 375.5,106 378.583,109.083 387,118.783 387,123 387,123 395,127 395,127  Z"/>

<path  fill="#C8CBCC" stroke-width="0" stroke="#C8CBCC" d = " M88 106 L87,107 C87,107.853 87.0182,109.741 88.5,109 88.5,109 96.5,101 96.5,101 102.404,98.0478 108.738,95.8808 114.5,93 114.5,93 117,91 117,91 117,91 117,90 117,90 111.099,90 106.425,95 101,95 101,97.1775 96.6639,99 95,99 95,100.198 90.7023,105 89,105 89,105 88,106 88,106  Z"/>

<path  fill="#C8CBCC" stroke-width="0" stroke="#C8CBCC" d = " M371 110 L371,111 C367.025,111 365.06,104.28 362.5,103 356.604,100.052 345.466,91 339,91 339,91 339,90 339,90 345.373,90 351.178,93.339 356.5,96 356.5,96 367,104 367,104 367,104 367,105 367,105 367,105 371,110 371,110  Z"/>

<path  fill="#7DCD4B" stroke-width="0" stroke="#7DCD4B" d = " M86 111 C86,114.948 85,120.393 85,125 86.9515,125 85.4772,122.546 86,121.5 86,121.5 91,109.5 91,109.5 93.1963,105.107 111,98.6464 111,107 111,107 113,109 113,109 113,102.187 117,97.9127 117,91 117,91 114.5,93 114.5,93 108.738,95.8808 102.404,98.0478 96.5,101 96.5,101 88.5,109 88.5,109 87.0182,109.741 87,107.853 87,107 87,107 86,107 86,107 86,107 85,109 85,109 85,109 86,109 86,109 87.3993,109 87.3993,111 86,111  Z"/>

<path  fill="#7DCD4B" stroke-width="0" stroke="#7DCD4B" d = " M371 111 L372,128 C370.619,128 370.587,121.673 370,120.5 368.212,116.924 366.819,113.138 365,109.5 362.62,104.74 345,99.0089 345,107 345,107 344,107 344,107 342.049,107 343.523,104.546 343,103.5 341.097,99.6942 339,95.5587 339,91 345.466,91 356.604,100.052 362.5,103 365.06,104.28 367.025,111 371,111  Z"/>

<path  fill="#08848A" stroke-width="0" stroke="#08848A" d = " M101 95 C99.583,95 95,97.3826 95,99 96.6639,99 101,97.1775 101,95  Z"/>

<path  fill="#08848A" stroke-width="0" stroke="#08848A" d = " M95 99 C92.5274,99 89,102.527 89,105 90.7023,105 95,100.198 95,99  Z"/>

<path  fill="#FE79FE" stroke-width="0" stroke="#FE79FE" d = " M164 125 C164,126.935 161.284,131 159,131 149.567,131 141,132.29 141,120 141,120 141,118 141,118 142.353,118 143,113.357 143,112 143.698,112 149.641,100.429 152.5,99 158.285,96.1075 164,120.899 164,125  Z"/>

<path  fill="#FE79FE" stroke-width="0" stroke="#FE79FE" d = " M293 125 C293,127.666 295.104,131 298,131 310.651,131 315,132.531 315,117 315,117 315,116 315,116 313.155,116 313.559,112.619 313,111.5 311.174,107.848 307.804,101.152 303.5,99 300.841,97.6707 298.781,102.938 298,104.5 294.828,110.844 293,117.318 293,125  Z"/>

<path  fill="#0C858B" stroke-width="0" stroke="#0C858B" d = " M371 109 C377.248,109 381.237,123 387,123 387,118.783 378.583,109.083 375.5,106 375.5,106 371,101 371,101 371,101.373 372.149,106.202 372,106.5 371.404,107.692 370,102.958 370,107 370,107 371,109 371,109  Z"/>

<path  fill="#0C858B" stroke-width="0" stroke="#0C858B" d = " M85 109 C78.9198,109 76.3899,122 70,122 70,120.208 83.7418,102 85,102 86.6997,102 86,105.3 86,107 86,107 85,109 85,109  Z"/>

<path  fill="#32B623" stroke-width="0" stroke="#32B623" d = " M81 142 C81,156.201 75,175.349 75,189 77.5884,189 81.4984,192.501 84.5,191 90.2194,188.14 87.8225,180.855 90,176.5 92.2588,171.982 89.6642,167.172 92,162.5 96.9669,152.566 94.9991,139.502 100,129.5 101.482,126.535 107.591,107 111,107 111,98.6464 93.1963,105.107 91,109.5 91,109.5 86,121.5 86,121.5 85.4772,122.546 86.9515,125 85,125 85,125 85,126 85,126 85,127.145 85.5791,130 84,130 84,130 84,132 84,132 84,132 83,133 83,133 83,133 82,141 82,141 82,141 81,142 81,142  Z"/>

<path  fill="#32B623" stroke-width="0" stroke="#32B623" d = " M375 140 C375,156.023 381,172.741 381,189 381,189 372.5,191 372.5,191 363.571,186.536 368.197,173.894 365,167.5 360.036,157.572 361.833,140.166 356,128.5 354.489,125.477 349.002,107 345,107 345,99.0089 362.62,104.74 365,109.5 366.819,113.138 368.212,116.924 370,120.5 370.587,121.673 370.619,128 372,128 372,128 372,129 372,129 372,129 373,131 373,131 373,131 374,139 374,139 374,139 375,140 375,140  Z"/>

<path  fill="#08848A" stroke-width="0" stroke="#08848A" d = " M89 105 L88,106 C88,106 89,105 89,105  Z"/>

<path  fill="#7DCD4B" stroke-width="0" stroke="#7DCD4B" d = " M371 109 L371,110 C371,110 367,105 367,105 367,105 368,105 368,105 368,105 369,106 369,106 369,106 370,107 370,107 370,107 371,109 371,109  Z"/>

<path  fill="#08848A" stroke-width="0" stroke="#08848A" d = " M368 105 L369,106 C369,106 368,105 368,105  Z"/>

<path  fill="#7DCD4B" stroke-width="0" stroke="#7DCD4B" d = " M88 106 L87,107 C87,107 88,106 88,106  Z"/>

<path  fill="#30B724" stroke-width="0" stroke="#30B724" d = " M75 189 L73,203 C73,203 78.5,207 78.5,207 87.2983,211.399 93.0931,206.314 97,198.5 99.9435,192.613 99.072,173.356 103,165.5 103.813,163.875 102.33,157 105,157 105,157 105,154 105,154 105,154 106,152 106,152 106,143.299 109.263,130.975 113,123.5 113,123.5 113,109 113,109 113,109 111,107 111,107 107.591,107 101.482,126.535 100,129.5 94.9991,139.502 96.9669,152.566 92,162.5 89.6642,167.172 92.2588,171.982 90,176.5 87.8225,180.855 90.2194,188.14 84.5,191 81.4984,192.501 77.5884,189 75,189  Z"/>

<path  fill="#A9A9A8" stroke-width="0" stroke="#A9A9A8" d = " M226 125 C227.905,125 228.467,125 230,125 230,125 235,118.5 235,118.5 236.111,116.278 228.967,106.267 227.5,107 227.5,107 225.5,111 225.5,111 215.726,120.774 226,116.876 226,125  Z"/>

<path  fill="#30B724" stroke-width="0" stroke="#30B724" d = " M381 189 L384,203 C378.33,203 367.864,216.228 361,202.5 355.839,192.177 359.159,177.818 354,167.5 353.072,165.643 353.505,155 351,155 351,146.132 347.819,133.139 344,125.5 341.628,120.755 344,113.916 344,109 344,109 344,107 344,107 344,107 345,107 345,107 349.002,107 354.489,125.477 356,128.5 361.833,140.166 360.036,157.572 365,167.5 368.197,173.894 363.571,186.536 372.5,191 372.5,191 381,189 381,189  Z"/>

<path  fill="#32B824" stroke-width="0" stroke="#32B824" d = " M81 142 C81,156.201 75,175.349 75,189 71.6616,189 68.1726,177.845 67,175.5 58.959,159.418 69,140.808 69,124 69,124 69,123 69,123 69,123 70,122 70,122 76.3899,122 78.9198,109 85,109 85,109 86,109 86,109 86,109 86,111 86,111 86,114.948 85,120.393 85,125 85,125 85,126 85,126 83.4209,126 84,128.855 84,130 84,130 84,132 84,132 84,132 83,133 83,133 83,133 82,141 82,141 82,141 81,142 81,142  Z"/>

<path  fill="#C8CBCC" stroke-width="0" stroke="#C8CBCC" d = " M86 109 C87.3993,109 87.3993,111 86,111 86,111 86,109 86,109  Z"/>

<path  fill="#72D568" stroke-width="0" stroke="#72D568" d = " M109 196 L112,202 C113.743,202 114.992,188.517 116,186.5 119.682,179.137 119.307,169.885 123,162.5 123,162.5 125,148.5 125,148.5 127.155,144.19 130,136.962 130,132 128.148,132 114,111.718 114,109 114,109 113,109 113,109 113,109 113,123.5 113,123.5 109.263,130.975 106,143.299 106,152 106,152 105,154 105,154 105,154 105,157 105,157 105,157 104,177.5 104,177.5 105.269,180.039 106,186.228 106,189 106.886,189 109,194.824 109,196  Z"/>

<path  fill="#59B847" stroke-width="0" stroke="#59B847" d = " M138 109 L132,127.5 C131.535,128.43 131.183,132 130,132 128.148,132 114,111.718 114,109 114,109 138,109 138,109  Z"/>

<path  fill="#59B847" stroke-width="0" stroke="#59B847" d = " M343 109 C343,111.283 327.721,132 326,132 326,125.722 319,116.21 319,109 319,109 343,109 343,109  Z"/>

<path  fill="#72D568" stroke-width="0" stroke="#72D568" d = " M347 197 C345.005,197 345,201.377 345,203 342.975,203 341.167,187.834 340,185.5 334.85,175.199 336.156,161.811 331,151.5 331,151.5 331,147.5 331,147.5 331,147.5 326,132 326,132 327.721,132 343,111.283 343,109 343,109 344,109 344,109 344,113.916 341.628,120.755 344,125.5 347.819,133.139 351,146.132 351,155 351,160.307 354.438,177.624 352,182.5 351.054,184.392 350,187.872 350,190 350,190 347,197 347,197  Z"/>

<path  fill="#32B824" stroke-width="0" stroke="#32B824" d = " M375 140 C375,156.023 381,172.741 381,189 384.679,189 387.832,178.837 389,176.5 397.514,159.471 387,141.122 387,123 381.237,123 377.248,109 371,109 371,109 371,110 371,110 371,110 371,111 371,111 371,111 372,128 372,128 372,128 372,129 372,129 372,129 373,131 373,131 373,131 374,139 374,139 374,139 375,140 375,140  Z"/>

<path  fill="#FF64FF" stroke-width="0" stroke="#FF64FF" d = " M143 112 C141.005,112 141,116.377 141,118 142.353,118 143,113.357 143,112  Z"/>

<path  fill-rule="evenodd" fill="#FF64FF" stroke-width="0" stroke="#FF64FF" d = " M297 162 C303.418,162 298.663,173 303,173 303,165.612 302.932,162.284 309.5,159 309.5,159 312.5,158 312.5,158 312.5,158 316,161 316,161 316,159.741 315.85,154 317.5,154 317.5,154 320,157 320,157 320,148.288 320,137.743 320,129 312.515,129 318.267,117 315,117 315,132.531 310.651,131 298,131 298,135.576 300.327,140.846 298,145.5 298,145.5 289,153 289,153 292.818,153 297,158.488 297,162  M313 147 C314.571,147 313.911,139.706 316.5,141 318.891,142.196 318.891,149.804 316.5,151 314.123,152.189 314.384,149 313,149 310.406,149 308.158,153.829 304.5,152 291.608,145.554 313,130.598 313,147  Z"/>

<path  fill="#FF8FFD" stroke-width="0" stroke="#FF8FFD" d = " M209 187 L213,187 C213,182.508 212.107,177 218,177 218,177 218,176 218,176 215.895,176 218.709,168 221,168 221,168 220,165 220,165 220,165 220,164 220,164 220,164 220,161 220,161 218.423,161 218,159.238 218,158 218,158 217,158 217,158 217,167.705 203.451,154 213,154 213,154 211,152 211,152 206.919,152 204.877,148.688 201.5,147 189.422,140.961 191,136.715 191,124 186.757,124 179.64,115.43 172.5,119 171,119.75 164.388,125 164,125 164,126.935 161.284,131 159,131 159,137.311 154.507,137.514 159,146.5 160.309,149.118 168,151.65 168,153 173.169,153 180.269,150.385 185.5,153 185.5,153 189.5,159 189.5,159 191.247,159.874 194,163.576 194,166 197.581,166 208.333,164.917 212.5,167 213.977,167.738 215.215,174.143 213.5,175 210.312,176.594 205.819,176 202,176 202,184.484 187,181.853 187,185 187,185 198.5,185 198.5,185 198.5,185 203,187 203,187 203,187 205,187 205,187 205,183.299 209,183.299 209,187  Z"/>

<path  fill="#FF8FFD" stroke-width="0" stroke="#FF8FFD" d = " M252 187 L253,187 C253,187 257.5,185 257.5,185 261.612,182.944 269.036,186 273,186 273,186 273,185 273,185 267.867,185 254,182.25 254,176 250.268,176 245.609,176.555 242.5,175 242.5,175 242.5,168 242.5,168 247.676,165.412 258.161,166 263,166 263,162.572 264.576,160.924 267,158.5 277.347,148.153 276.217,153 289,153 289,153 298,145.5 298,145.5 300.327,140.846 298,135.576 298,131 295.104,131 293,127.666 293,125 293,125 284.5,119 284.5,119 276.549,115.025 267.389,125 265,125 265,139.111 266.183,141.659 253.5,148 250.53,149.485 248.576,152 245,152 245,152 243,154 243,154 246.312,154 247.583,159.458 244.5,161 241.959,162.27 240.791,159 239,159 239,159 236,161 236,161 236,161 236,163 236,163 236,163 236,166 236,166 236,166 236,168 236,168 238.954,168 239,174.821 239,177 244.029,177 243,183.457 243,187 243,187 247,187 247,187 247,180.079 251.784,187 252,187  Z"/>

<path  fill-rule="evenodd" fill="#FF64FF" stroke-width="0" stroke="#FF64FF" d = " M140 163 L143.5,158 L146.5,159 C155.465,163.482 153,165.065 153,174 157.401,174 153.018,162 159,162 160.117,162 162.019,153 168,153 168,151.65 160.309,149.118 159,146.5 154.507,137.514 159,137.311 159,131 149.567,131 141,132.29 141,120 138.692,120 140.743,127.013 140,128.5 139.005,130.489 137,128.414 137,127 135.286,127 136,132.594 136,134 136,134 136,158 136,158 136,158 138.5,154 138.5,154 140.893,154 140,161.525 140,163  M143 144 C144.759,144 146.909,137.204 150.5,139 160.042,143.771 154.542,155.521 147.5,152 145.63,151.065 143.516,145 143,145 143,145 143,148.5 143,148.5 143,156.698 133.288,144.106 139.5,141 139.5,141 143,144 143,144  Z"/>

<path  fill="#0C858B" stroke-width="0" stroke="#0C858B" d = " M70 122 L69,123 C69,123 70,122 70,122  Z"/>

<path  fill="#31B824" stroke-width="0" stroke="#31B824" d = " M381 189 L384,203 C388.098,203 394.391,192.718 396,189.5 400.259,180.983 403.753,166.005 399,156.5 397.594,153.688 399.461,149.422 398,146.5 398,146.5 397,132.5 397,132.5 397,132.5 395,127 395,127 395,127 387,123 387,123 387,141.122 397.514,159.471 389,176.5 387.832,178.837 384.679,189 381,189  Z"/>

<path  fill="#31B824" stroke-width="0" stroke="#31B824" d = " M75 189 L73,203 C68.7685,203 63.5509,194.602 62,191.5 60.5414,188.583 58.4205,186.341 57,183.5 54.593,178.686 55.7279,154.044 58,149.5 58,149.5 59,134.5 59,134.5 60.0699,132.36 61,130.613 61,128 61,128 69,124 69,124 69,140.808 58.959,159.418 67,175.5 68.1726,177.845 71.6616,189 75,189  Z"/>

<path  fill="#FF64FF" stroke-width="0" stroke="#FF64FF" d = " M226 130 L231,130 C231,128.765 231.643,125 230,125 228.467,125 227.905,125 226,125 226,125 226,130 226,130  Z"/>

<path  fill="#7DCD4B" stroke-width="0" stroke="#7DCD4B" d = " M85 126 C83.4209,126 84,128.855 84,130 85.5791,130 85,127.145 85,126  Z"/>

<path  fill="#32B725" stroke-width="0" stroke="#32B725" d = " M384 203 L386,215 C388.006,215 397.87,201.759 399,199.5 414.924,167.653 402,161.255 402,130 402,130 402,129 402,129 399.167,129 397.16,127 395,127 395,127 397,132.5 397,132.5 397,132.5 398,146.5 398,146.5 399.461,149.422 397.594,153.688 399,156.5 403.753,166.005 400.259,180.983 396,189.5 394.391,192.718 388.098,203 384,203  Z"/>

<path  fill="#32B725" stroke-width="0" stroke="#32B725" d = " M70 215 L71,215 C71,210.589 73,206.629 73,203 68.7685,203 63.5509,194.602 62,191.5 60.5414,188.583 58.4205,186.341 57,183.5 54.593,178.686 55.7279,154.044 58,149.5 58,149.5 59,134.5 59,134.5 60.0699,132.36 61,130.613 61,128 61,128 55,129 55,129 55,129 54,130 54,130 54,157.146 42.6767,170.853 56,197.5 57.1349,199.77 68.0691,215 70,215  Z"/>

<path  fill="#7DCD4B" stroke-width="0" stroke="#7DCD4B" d = " M372 129 L373,131 C373,131 372,129 372,129  Z"/>

<path  fill="#32B825" stroke-width="0" stroke="#32B825" d = " M70 215 L69,222 C64.1544,222 52.1217,208.743 50,204.5 46.2514,197.003 34.154,172.192 39,162.5 43.2941,153.912 45,145.275 45,136 45,136 45,135 45,135 48.4818,135 50.7102,130 54,130 54,157.146 42.6767,170.853 56,197.5 57.1349,199.77 68.0691,215 70,215  Z"/>

<path  fill="#FDA6FF" stroke-width="0" stroke="#FDA6FF" d = " M231 163 L231,164 C231,164 227.5,166 227.5,166 227.5,166 225,163 225,163 225,163 225,161 225,161 225,158.474 223,155.423 223,152 223,152 223,133.5 223,133.5 223,133.5 226,130 226,130 226,130 231,130 231,130 231,131.009 233.421,135.343 234,136.5 234.176,136.852 234,151.531 234,153 234,153 233,159 233,159 233,159 232,160 232,160 232,160 232,161 232,161 232,161 231,163 231,163  Z"/>

<path  fill="#32B825" stroke-width="0" stroke="#32B825" d = " M386 215 L387,222 C392.808,222 404.579,208.341 407,203.5 409.712,198.076 421.055,173.611 418,167.5 414.291,160.083 411,145.126 411,136 411,136 411,135 411,135 411,135 402,130 402,130 402,161.255 414.924,167.653 399,199.5 397.87,201.759 388.006,215 386,215  Z"/>

<path  fill="#7DCD4B" stroke-width="0" stroke="#7DCD4B" d = " M84 132 L83,133 C83,133 84,132 84,132  Z"/>

<path  fill="#32B722" stroke-width="0" stroke="#32B722" d = " M69 222 L69,227 C62.7107,227 58.9354,219.218 54.5,217 44.431,211.966 29.4964,176.507 35,165.5 35,165.5 35,158.5 35,158.5 37.8384,152.823 40,147.919 40,141 40,141 45,136 45,136 45,145.275 43.2941,153.912 39,162.5 34.154,172.192 46.2514,197.003 50,204.5 52.1217,208.743 64.1544,222 69,222  Z"/>

<path  fill="#32B722" stroke-width="0" stroke="#32B722" d = " M387 223 L388,227 C392.588,227 396.391,220.554 399.5,219 412.142,212.679 414.696,197.109 420,186.5 420,186.5 421,179.5 421,179.5 422.29,176.921 423.523,166.546 422,163.5 419.418,158.337 416,146.043 416,140 413.508,140 414.165,136 411,136 411,145.126 414.291,160.083 418,167.5 421.055,173.611 409.712,198.076 407,203.5 404.579,208.341 392.808,222 387,222 387,222 387,223 387,223  Z"/>

<path  fill="#FF7AFE" stroke-width="0" stroke="#FF7AFE" d = " M143 144 C144.759,144 146.909,137.204 150.5,139 160.042,143.771 154.542,155.521 147.5,152 145.63,151.065 143.516,145 143,145 143,145 143,144 143,144  Z"/>

<path  fill="#FF7AFE" stroke-width="0" stroke="#FF7AFE" d = " M313 147 L313,149 C310.406,149 308.158,153.829 304.5,152 291.608,145.554 313,130.598 313,147  Z"/>

<path  fill="#7DCD4B" stroke-width="0" stroke="#7DCD4B" d = " M374 139 L375,140 C375,140 374,139 374,139  Z"/>

<path  fill="#7DCD4B" stroke-width="0" stroke="#7DCD4B" d = " M82 141 L81,142 C81,142 82,141 82,141  Z"/>

<path  fill="#FF79FD" stroke-width="0" stroke="#FF79FD" d = " M143 144 L139.5,141 C133.288,144.106 143,156.698 143,148.5 L143,145 C143,145 143,144 143,144  Z"/>

<path  fill="#FF79FD" stroke-width="0" stroke="#FF79FD" d = " M313 147 C314.571,147 313.911,139.706 316.5,141 318.891,142.196 318.891,149.804 316.5,151 314.123,152.189 314.384,149 313,149 313,149 313,147 313,147  Z"/>

<path  fill="#FD90FF" stroke-width="0" stroke="#FD90FF" d = " M241 154 L240,155 C237.687,155 235,157.273 235,153 235,149.582 242,145.924 242,151 242,151 241,154 241,154  Z"/>

<path  fill="#FD90FF" stroke-width="0" stroke="#FD90FF" d = " M214 151 C214,155.332 221,158.73 221,152 221,148.958 214,147.148 214,151  Z"/>

<path  fill="#FF64FF" stroke-width="0" stroke="#FF64FF" d = " M218 158 C218,153.937 224.953,161 225,161 225,158.474 223,155.423 223,152 223,152 221,152 221,152 221,158.73 214,155.332 214,151 214,151 211,152 211,152 211,152 213,154 213,154 215.226,154 217,155.774 217,158 217,158 218,158 218,158  Z"/>

<path  fill="#FF64FF" stroke-width="0" stroke="#FF64FF" d = " M241 154 L243,154 C243,154 245,152 245,152 245,152 242,151 242,151 242,151 241,154 241,154  Z"/>

<path  fill="#31B723" stroke-width="0" stroke="#31B723" d = " M106 152 L105,154 C105,154 106,152 106,152  Z"/>

<path  fill="#FFA5FD" stroke-width="0" stroke="#FFA5FD" d = " M167 187 C171.539,187 176.153,187 181,187 181,187 183,186 183,186 183,184.421 185.855,185 187,185 187,181.853 202,184.484 202,176 199.888,176 193.132,174.764 192,172.5 191.32,171.141 192.989,166 194,166 194,163.576 191.247,159.874 189.5,159 189.5,159 185.5,153 185.5,153 180.269,150.385 173.169,153 168,153 162.019,153 160.117,162 159,162 159,163.423 160.978,165.544 160,167.5 160,167.5 158,171 158,171 158,171 157,172 157,172 157,175.078 160,178.325 160,181 160,181 161,182 161,182 161,182 161,183 161,183 161,183 167,187 167,187  Z"/>

<path  fill="#FFA5FD" stroke-width="0" stroke="#FFA5FD" d = " M274 186 C276.128,186 279.608,187.054 281.5,188 L290,187 C290,187 295,183 295,183 295,183 296,182 296,182 296,182 299,175.5 299,175.5 300.707,172.086 297.186,168.873 296,166.5 296,166.5 297,162 297,162 297,158.488 292.818,153 289,153 276.217,153 277.347,148.153 267,158.5 264.576,160.924 263,162.572 263,166 263,172.894 267.352,176 254,176 254,182.25 267.867,185 273,185 273,185 274,186 274,186  Z"/>

<path  fill="#FF64FF" stroke-width="0" stroke="#FF64FF" d = " M239 158 C235.671,158 234.03,159 233,159 233,159 234,153 234,153 234,153 235,153 235,153 235,157.273 237.687,155 240,155 240,155 239,158 239,158  Z"/>

<path  fill="#C9C9CB" stroke-width="0" stroke="#C9C9CB" d = " M141 199 L143,203 C139.934,203 137.813,198 136,198 136,198 135,195 135,195 135,189.369 131.435,170.63 134,165.5 135.112,163.275 136,160.654 136,158 136,158 138.5,154 138.5,154 140.893,154 140,161.525 140,163 140,169.527 134.775,187.05 137,191.5 137,191.5 141,199 141,199  Z"/>

<path  fill="#FE8DFE" stroke-width="0" stroke="#FE8DFE" d = " M213 154 C215.226,154 217,155.774 217,158 217,167.705 203.451,154 213,154  Z"/>

<path  fill="#FF64FF" stroke-width="0" stroke="#FF64FF" d = " M241 154 L240,155 C240,155 241,154 241,154  Z"/>

<path  fill="#FE8DFE" stroke-width="0" stroke="#FE8DFE" d = " M239 158 L239,159 C240.791,159 241.959,162.27 244.5,161 247.583,159.458 246.312,154 243,154 243,154 241,154 241,154 241,154 240,155 240,155 240,155 239,158 239,158  Z"/>

<path  fill="#C9C9CB" stroke-width="0" stroke="#C9C9CB" d = " M315 199 L314,203 C314,203 320,198 320,198 320,198 322,194 322,194 322,189.065 325.561,178.622 323,173.5 321.241,169.982 320,160.811 320,157 320,157 317.5,154 317.5,154 315.85,154 316,159.741 316,161 316,168.221 321.844,186.813 319,192.5 319,192.5 316,198 316,198 316,198 315,199 315,199  Z"/>

<path  fill="#31B723" stroke-width="0" stroke="#31B723" d = " M384 203 L386,215 C372.095,215 376.512,223.506 359.5,215 356.359,213.429 353.751,199.002 352,195.5 351.443,194.386 351.59,190 350,190 350,187.872 351.054,184.392 352,182.5 354.438,177.624 351,160.307 351,155 353.505,155 353.072,165.643 354,167.5 359.159,177.818 355.839,192.177 361,202.5 367.864,216.228 378.33,203 384,203  Z"/>

<path  fill="#31B723" stroke-width="0" stroke="#31B723" d = " M73 203 C73,206.629 71,210.589 71,215 76.7232,215 84.534,222.483 91.5,219 98.7557,215.372 106,196.631 106,189 106,186.228 105.269,180.039 104,177.5 104,177.5 105,157 105,157 102.33,157 103.813,163.875 103,165.5 99.072,173.356 99.9435,192.613 97,198.5 93.0931,206.314 87.2983,211.399 78.5,207 78.5,207 73,203 73,203  Z"/>

<path  fill="#CBCBCC" stroke-width="0" stroke="#CBCBCC" d = " M220 164 L220,165 C221.85,165 225,166.798 225,163 225,163 225,161 225,161 224.953,161 218,153.937 218,158 218,159.238 218.423,161 220,161 221.486,161 221.486,164 220,164  Z"/>

<path  fill="#CBCBCC" stroke-width="0" stroke="#CBCBCC" d = " M231 164 C232.624,164 233.75,166 236,166 236,166 236,163 236,163 234.601,163 234.601,161 236,161 236,161 239,159 239,159 239,159 239,158 239,158 235.671,158 234.03,159 233,159 233,159 232,160 232,160 232,160 232,161 232,161 232,161 231,163 231,163 231,163 231,164 231,164  Z"/>

<path  fill="#FFAC6F" stroke-width="0" stroke="#FFAC6F" d = " M147 203 L151,203 C151,203 154,198 154,198 154,198 153,174 153,174 153,165.065 155.465,163.482 146.5,159 146.5,159 143.5,158 143.5,158 143.5,158 140,163 140,163 140,169.527 134.775,187.05 137,191.5 137,191.5 141,199 141,199 143.33,199 144.227,203 147,203  Z"/>

<path  fill="#FFAC6F" stroke-width="0" stroke="#FFAC6F" d = " M305 203 L309,203 C311.773,203 312.67,199 315,199 315,199 316,198 316,198 316,198 319,192.5 319,192.5 321.844,186.813 316,168.221 316,161 316,161 312.5,158 312.5,158 312.5,158 309.5,159 309.5,159 302.932,162.284 303,165.612 303,173 303,181.394 303,189.332 303,197 303,199.518 305,201.286 305,203  Z"/>

<path  fill="#FF64FF" stroke-width="0" stroke="#FF64FF" d = " M233 159 L232,160 C232,160 233,159 233,159  Z"/>

<path  fill="#FF64FF" stroke-width="0" stroke="#FF64FF" d = " M220 161 C221.486,161 221.486,164 220,164 220,164 220,161 220,161  Z"/>

<path  fill="#FF64FF" stroke-width="0" stroke="#FF64FF" d = " M232 161 L231,163 C231,163 232,161 232,161  Z"/>

<path  fill="#FF64FF" stroke-width="0" stroke="#FF64FF" d = " M236 161 C234.601,161 234.601,163 236,163 236,163 236,161 236,161  Z"/>

<path  fill="#C9C9CB" stroke-width="0" stroke="#C9C9CB" d = " M161 187 C161,190.892 160.282,198.109 156.5,200 L154,198 C154,198 153,174 153,174 157.401,174 153.018,162 159,162 159,163.423 160.978,165.544 160,167.5 160,167.5 158,171 158,171 158,171 157,172 157,172 157,175.078 160,178.325 160,181 160,181 161,182 161,182 161,182 161,183 161,183 161,183 161,187 161,187  Z"/>

<path  fill="#C9C9CB" stroke-width="0" stroke="#C9C9CB" d = " M295 187 C295,189.641 296.513,200 300.5,200 L303,197 C303,189.332 303,181.394 303,173 298.663,173 303.418,162 297,162 297,162 296,166.5 296,166.5 297.186,168.873 300.707,172.086 299,175.5 299,175.5 296,182 296,182 296,182 295,183 295,183 295,183 295,187 295,187  Z"/>

<path  fill-rule="evenodd" fill="#FF64FF" stroke-width="0" stroke="#FF64FF" d = " M227 170 C227,170.402 224.535,173.43 224,174.5 222.483,177.534 227.525,181.488 230.5,180 234.955,177.773 231.374,170 227,170  M223 189 C224.772,189 228.385,191.057 228.5,191 230.459,190.021 229.731,189 233,189 233,186.395 234.386,177 238,177 238,174.16 236,171.324 236,168 236,168 236,166 236,166 233.75,166 232.624,164 231,164 231,164 227.5,166 227.5,166 227.5,166 225,163 225,163 225,166.798 221.85,165 220,165 220,165 221,168 221,168 221,169.4 219.569,176 218,176 218,176 218,177 218,177 222.152,177 223,186.098 223,189  Z"/>

<path  fill="#CBC9CB" stroke-width="0" stroke="#CBC9CB" d = " M194 166 C197.581,166 208.333,164.917 212.5,167 213.977,167.738 215.215,174.143 213.5,175 210.312,176.594 205.819,176 202,176 199.888,176 193.132,174.764 192,172.5 191.32,171.141 192.989,166 194,166  Z"/>

<path  fill="#CBC9CB" stroke-width="0" stroke="#CBC9CB" d = " M263 166 C258.161,166 247.676,165.412 242.5,168 L242.5,175 C245.609,176.555 250.268,176 254,176 267.352,176 263,172.894 263,166  Z"/>

<path  fill="#C8C8C8" stroke-width="0" stroke="#C8C8C8" d = " M221 168 C218.709,168 215.895,176 218,176 219.569,176 221,169.4 221,168  Z"/>

<path  fill="#C8C8C8" stroke-width="0" stroke="#C8C8C8" d = " M238 177 L239,177 C239,174.821 238.954,168 236,168 236,171.324 238,174.16 238,177  Z"/>

<path  fill="#CCC7CC" stroke-width="0" stroke="#CCC7CC" d = " M227 170 C227,170.402 224.535,173.43 224,174.5 222.483,177.534 227.525,181.488 230.5,180 234.955,177.773 231.374,170 227,170  Z"/>

<path  fill="#FF64FF" stroke-width="0" stroke="#FF64FF" d = " M158 171 L157,172 C157,172 158,171 158,171  Z"/>

<path  fill="#FD90FE" stroke-width="0" stroke="#FD90FE" d = " M214 188 C214,191.474 223,194.762 223,189 223,186.098 222.152,177 218,177 212.107,177 213,182.508 213,187 213,187 214,188 214,188  Z"/>

<path  fill="#FD90FE" stroke-width="0" stroke="#FD90FE" d = " M243 188 C242.136,188 233,197.264 233,189 233,186.395 234.386,177 238,177 238,177 239,177 239,177 244.029,177 243,183.457 243,187 243,187 243,188 243,188  Z"/>

<path  fill="#FF64FF" stroke-width="0" stroke="#FF64FF" d = " M160 181 L161,182 C161,182 160,181 160,181  Z"/>

<path  fill="#FF64FF" stroke-width="0" stroke="#FF64FF" d = " M296 182 L295,183 C295,183 296,182 296,182  Z"/>

<path  fill="#FF64FF" stroke-width="0" stroke="#FF64FF" d = " M161 187 L167,187 C167,187 161,183 161,183 161,183 161,187 161,187  Z"/>

<path  fill="#FF64FF" stroke-width="0" stroke="#FF64FF" d = " M290 187 L295,187 C295,187 295,183 295,183 295,183 290,187 290,187  Z"/>

<path  fill="#C8C8CC" stroke-width="0" stroke="#C8C8CC" d = " M212 197 L213,214 C210.078,214 205,191.83 205,188 205,188 205,187 205,187 205,183.299 209,183.299 209,187 209,187 209,188 209,188 209,188.877 211.665,197 212,197  Z"/>

<path  fill="#C8C8CC" stroke-width="0" stroke="#C8C8CC" d = " M243 213 L244,214 C246.569,214 251,192.146 251,189 251,189 252,188 252,188 252,188 252,187 252,187 251.784,187 247,180.079 247,187 247,187 247,188 247,188 247,189.419 244.661,200 244,200 244,200 243,213 243,213  Z"/>

<path  fill="#FF8FFD" stroke-width="0" stroke="#FF8FFD" d = " M183 186 L184,186 C185.048,186 187,186.473 187,185 185.855,185 183,184.421 183,186  Z"/>

<path  fill="#FFC295" stroke-width="0" stroke="#FFC295" d = " M177 253 L206,253 C206,253 206,252 206,252 198.547,252 204.341,230 213,230 213,228.286 215,226.518 215,224 215,224 215,220 215,220 215,220 214,219 214,219 214,219 214,217 214,217 212.527,217 213,215.048 213,214 210.078,214 205,191.83 205,188 205,188 203,187 203,187 203,187 198.5,185 198.5,185 198.5,185 187,185 187,185 187,186.473 185.048,186 184,186 184,187.473 182.048,187 181,187 181,188.59 176.614,188.443 175.5,189 171.518,190.991 163.382,191.736 161,196.5 159.857,198.785 162.226,199.953 163,201.5 163,201.5 167,213.5 167,213.5 168.346,216.192 164.534,231 169,231 177.033,231 177,246.117 177,253  Z"/>

<path  fill="#FFC295" stroke-width="0" stroke="#FFC295" d = " M250 253 L279,253 C279,253 279,252 279,252 279,244.496 279.232,231 288,231 289.614,231 289,227.69 289,226.5 289,226.5 290,211.5 290,211.5 291.416,208.668 296.645,198.791 295,195.5 292.963,191.426 281.32,189.91 277.5,188 276.57,187.535 273,187.183 273,186 269.036,186 261.612,182.944 257.5,185 257.5,185 253,187 253,187 253,187 252,188 252,188 252,188 251,189 251,189 251,192.146 246.569,214 244,214 244,214 243,215 243,215 243,215 243,217 243,217 243,217 242,219 242,219 242,219 242,220 242,220 242,220 241,222 241,222 241,222 241,225 241,225 241,225 243,230 243,230 251.662,230 256.318,244.865 253,251.5 253,251.5 250,253 250,253  Z"/>

<path  fill="#FF64FF" stroke-width="0" stroke="#FF64FF" d = " M273 186 L274,186 C274,186 273,185 273,185 273,185 273,186 273,186  Z"/>

<path  fill="#FF9B88" stroke-width="0" stroke="#FF9B88" d = " M184 186 C184,187.473 182.048,187 181,187 181,187 183,186 183,186 183,186 184,186 184,186  Z"/>

<path  fill-rule="evenodd" fill="#FF9B88" stroke-width="0" stroke="#FF9B88" d = " M289 277 C289,280.746 291.091,277 289,277  M300 239 C300,244.567 302.112,239 300,239  M310 215 C310,215.035 303.617,228.265 303,229.5 L302,238 C302,260.611 321.223,236.946 314,222.5 313.192,220.884 312.648,215 310,215  M283 285 L281,286 C281,284.527 279.048,285 278,285 278,284.509 287,280.172 287,273 287,273 290,269.5 290,269.5 291.14,267.22 293.577,262.655 292,259.5 291.118,257.737 287,255.46 287,259 287,259 285,255 285,255 285,255 288,250.5 288,250.5 289.574,247.353 288.373,242.753 290,239.5 291.675,236.151 288,233.259 288,231 289.614,231 289,227.69 289,226.5 289,226.5 290,211.5 290,211.5 291.416,208.668 296.645,198.791 295,195.5 292.963,191.426 281.32,189.91 277.5,188 276.57,187.535 273,187.183 273,186 273,186 274,186 274,186 276.128,186 279.608,187.054 281.5,188 281.5,188 290,187 290,187 290,187 295,187 295,187 295,189.641 296.513,200 300.5,200 300.5,200 303,197 303,197 303,199.518 305,201.286 305,203 305,203.529 302.525,215 304.5,215 307.423,215 309,204.93 309,203 311.773,203 312.67,199 315,199 315,199 314,203 314,203 314,203 313,204 313,204 313,206.099 309.442,208.383 311,211.5 314.931,219.362 320,224.587 320,233 320,233 317,236.5 317,236.5 311.919,246.663 313.813,248 302,248 302,243.548 299.977,243 297,243 297,243 297,235 297,235 297,230.44 297,228.139 297,223.5 297,223.5 297,215 297,215 297,213.113 296.2,199.099 293,205.5 291.432,208.637 289.085,234.669 291,238.5 291.901,240.301 294.058,239 295,239 295,247.236 297.53,261.44 294,268.5 293.43,269.64 293.737,275 295,275 295,277.643 288.281,283 285,283 285,283 283,285 283,285  Z"/>

<path  fill="#FF9B88" stroke-width="0" stroke="#FF9B88" d = " M155 245 L155,249 C144.859,249 144.489,246.478 140,237.5 140,237.5 137,234 137,234 137,222.522 141.004,220.492 146,210.5 146,210.5 145,206 145,206 145,206 143,204 143,204 143,204 143,203 143,203 143,203 141,199 141,199 143.33,199 144.227,203 147,203 147,204.444 149.844,215 151.5,215 152.629,215 152.758,203 151,203 151,203 154,198 154,198 154,198 156.5,200 156.5,200 160.282,198.109 161,190.892 161,187 161,187 167,187 167,187 171.539,187 176.153,187 181,187 181,188.59 176.614,188.443 175.5,189 171.518,190.991 163.382,191.736 161,196.5 159.857,198.785 162.226,199.953 163,201.5 163,201.5 167,213.5 167,213.5 168.346,216.192 164.534,231 169,231 169,231 166,235 166,235 166,235 165,210 165,210 165,209.057 162.413,203.543 161.5,204 156.322,206.589 160,229.11 160,234 158.265,234 159,240.51 159,242 159,242 157,241 157,241 157,238.271 156.577,240 155,240 155,232.892 151.99,225.48 149,219.5 149,219.5 146.5,215 146.5,215 143.245,215 139.151,233.802 141,237.5 142.346,240.192 147.471,250.015 151.5,248 151.5,248 155,245 155,245  Z"/>

<path  fill="#FF9B88" stroke-width="0" stroke="#FF9B88" d = " M205 187 L205,188 C205,188 203,187 203,187 203,187 205,187 205,187  Z"/>

<path  fill="#FF64FF" stroke-width="0" stroke="#FF64FF" d = " M212 188 L214,188 C214,188 213,187 213,187 213,187 209,187 209,187 209,187 209,188 209,188 209,188 212,188 212,188  Z"/>

<path  fill="#FF64FF" stroke-width="0" stroke="#FF64FF" d = " M244 188 L247,188 C247,188 247,187 247,187 247,187 243,187 243,187 243,187 243,188 243,188 243,188 244,188 244,188  Z"/>

<path  fill="#FF9B88" stroke-width="0" stroke="#FF9B88" d = " M253 187 L252,188 C252,188 252,187 252,187 252,187 253,187 253,187  Z"/>

<path  fill="#FF9B88" stroke-width="0" stroke="#FF9B88" d = " M212 188 L212,197 C211.665,197 209,188.877 209,188 209,188 212,188 212,188  Z"/>

<path  fill="#FFC393" stroke-width="0" stroke="#FFC393" d = " M225 232 C228.484,232 225.369,220.065 227.5,219 229.835,217.832 229.016,232 232,232 232,232 235,231 235,231 235,231 241,225 241,225 241,225 241,222 241,222 241,222 242,220 242,220 242,220 242,219 242,219 242,219 243,217 243,217 243,217 243,215 243,215 243,215 243,213 243,213 243,213 244,200 244,200 244,200 244,188 244,188 244,188 243,188 243,188 242.136,188 233,197.264 233,189 229.731,189 230.459,190.021 228.5,191 228.385,191.057 224.772,189 223,189 223,194.762 214,191.474 214,188 214,188 212,188 212,188 212,188 212,197 212,197 212,197 213,214 213,214 214.473,214 214,215.952 214,217 214,217 214,219 214,219 214,219 215,220 215,220 215,220 215,224 215,224 215,224 221,231 221,231 221,231 225,232 225,232  Z"/>

<path  fill="#FF9B88" stroke-width="0" stroke="#FF9B88" d = " M247 188 C247,189.419 244.661,200 244,200 244,200 244,188 244,188 244,188 247,188 247,188  Z"/>

<path  fill="#FF9B88" stroke-width="0" stroke="#FF9B88" d = " M252 188 L251,189 C251,189 252,188 252,188  Z"/>

<path  fill="#30B824" stroke-width="0" stroke="#30B824" d = " M70 215 L71,215 C76.7232,215 84.534,222.483 91.5,219 98.7557,215.372 106,196.631 106,189 106.886,189 109,194.824 109,196 109,196 107,200.5 107,200.5 107,200.5 107,204.5 107,204.5 101.006,216.488 104.372,221.064 90.5,228 86.0004,230.25 73.1198,222 69,222 69,222 70,215 70,215  Z"/>

<path  fill="#30B824" stroke-width="0" stroke="#30B824" d = " M387 222 L387,223 C375.429,223 371.159,231.33 358.5,225 354.305,222.903 350,210.172 350,206 350,204.329 348.869,197 347,197 347,197 350,190 350,190 351.59,190 351.443,194.386 352,195.5 353.751,199.002 356.359,213.429 359.5,215 376.512,223.506 372.095,215 386,215 386,215 387,222 387,222  Z"/>

<path  fill="#F0F080" stroke-width="0" stroke="#F0F080" d = " M136 198 C136,198.733 129.978,201 129,201 129,195.722 131.179,195 135,195 135,195 136,198 136,198  Z"/>

<path  fill="#F0F080" stroke-width="0" stroke="#F0F080" d = " M320 198 L327,201.5 L329,205 C329,201.686 326.281,194 322,194 322,194 320,198 320,198  Z"/>

<path  fill="#31B625" stroke-width="0" stroke="#31B625" d = " M69 222 L69,227 C69,230.851 90.9628,235.269 95.5,233 104.444,228.528 112,211.815 112,202 112,202 109,196 109,196 109,196 107,200.5 107,200.5 107,200.5 107,204.5 107,204.5 101.006,216.488 104.372,221.064 90.5,228 86.0004,230.25 73.1198,222 69,222  Z"/>

<path  fill="#31B625" stroke-width="0" stroke="#31B625" d = " M387 223 L388,227 C388,230.379 366.11,235.305 361.5,233 351.351,227.926 345,213.991 345,203 345,201.377 345.005,197 347,197 348.869,197 350,204.329 350,206 350,210.172 354.305,222.903 358.5,225 371.159,231.33 375.429,223 387,223  Z"/>

<path  fill="#CCCCCA" stroke-width="0" stroke="#CCCCCA" d = " M129 227 C129,228.782 135.482,234 137,234 137,222.522 141.004,220.492 146,210.5 146,210.5 145,206 145,206 145,206 143,204 143,204 143,204 143,203 143,203 139.934,203 137.813,198 136,198 136,198.733 129.978,201 129,201 129,201 128,203 128,203 128,203 128,204 128,204 128,205.048 128.473,207 127,207 127,207 127,211 127,211 127,216.88 129,221.652 129,227  Z"/>

<path  fill="#FF9B88" stroke-width="0" stroke="#FF9B88" d = " M316 198 L315,199 C315,199 316,198 316,198  Z"/>

<path  fill="#CCCCCA" stroke-width="0" stroke="#CCCCCA" d = " M327 228 C327,229.343 321.865,233 320,233 320,224.587 314.931,219.362 311,211.5 309.442,208.383 313,206.099 313,204 313,204 314,203 314,203 314,203 320,198 320,198 320,198 327,201.5 327,201.5 327,201.5 329,205 329,205 329,205 329,208 329,208 329,215.067 327,221.852 327,228  Z"/>

<path  fill="#F0F080" stroke-width="0" stroke="#F0F080" d = " M129 201 L128,203 C128,203 129,201 129,201  Z"/>

<path  fill="#CBC7CC" stroke-width="0" stroke="#CBC7CC" d = " M147 203 L151,203 C152.758,203 152.629,215 151.5,215 149.844,215 147,204.444 147,203  Z"/>

<path  fill="#CBC7CC" stroke-width="0" stroke="#CBC7CC" d = " M305 203 L309,203 C309,204.93 307.423,215 304.5,215 302.525,215 305,203.529 305,203  Z"/>

<path  fill="#C9C9CB" stroke-width="0" stroke="#C9C9CB" d = " M314 203 L313,204 C313,204 314,203 314,203  Z"/>

<path  fill="#F0F080" stroke-width="0" stroke="#F0F080" d = " M128 204 C126.527,204 127,205.952 127,207 128.473,207 128,205.048 128,204  Z"/>

<path  fill="#C9C9CB" stroke-width="0" stroke="#C9C9CB" d = " M143 204 L145,206 C145,206 143,204 143,204  Z"/>

<path  fill="#C8C8CB" stroke-width="0" stroke="#C8C8CB" d = " M161 237 L161,239 C166.597,239 164.477,235 166,235 166,235 165,210 165,210 165,209.057 162.413,203.543 161.5,204 156.322,206.589 160,229.11 160,234 160,234 160,236 160,236 160,236 161,237 161,237  Z"/>

<path  fill="#C8C8CB" stroke-width="0" stroke="#C8C8CB" d = " M296 238 L295,239 C294.058,239 291.901,240.301 291,238.5 289.085,234.669 291.432,208.637 293,205.5 296.2,199.099 297,213.113 297,215 297,215 297,223.5 297,223.5 297,228.139 297,230.44 297,235 295.527,235 296,236.952 296,238  Z"/>

<path  fill="#F0F080" stroke-width="0" stroke="#F0F080" d = " M327 228 C328.631,228 331.369,228 333,228 333,224.403 331.664,215.829 330,212.5 329.426,211.353 331.064,208 329,208 329,215.067 327,221.852 327,228  Z"/>

<path  fill="#F0F080" stroke-width="0" stroke="#F0F080" d = " M129 227 L124,228 C124,228 123,227 123,227 123,227 125,223.5 125,223.5 125.951,221.597 124.344,211 127,211 127,216.88 129,221.652 129,227  Z"/>

<path  fill="#FF9B88" stroke-width="0" stroke="#FF9B88" d = " M244 214 L243,215 C243,215 243,213 243,213 243,213 244,214 244,214  Z"/>

<path  fill="#FF9B88" stroke-width="0" stroke="#FF9B88" d = " M213 214 C214.473,214 214,215.952 214,217 212.527,217 213,215.048 213,214  Z"/>

<path  fill="#FFAE6F" stroke-width="0" stroke="#FFAE6F" d = " M155 244 L155,245 C155,245 151.5,248 151.5,248 147.471,250.015 142.346,240.192 141,237.5 139.151,233.802 143.245,215 146.5,215 146.5,215 149,219.5 149,219.5 151.99,225.48 155,232.892 155,240 155,240 155,241 155,241 155,241 155,244 155,244  Z"/>

<path  fill="#FFAE6F" stroke-width="0" stroke="#FFAE6F" d = " M310 215 C310,215.035 303.617,228.265 303,229.5 L302,238 C302,260.611 321.223,236.946 314,222.5 313.192,220.884 312.648,215 310,215  Z"/>

<path  fill="#FF9B88" stroke-width="0" stroke="#FF9B88" d = " M243 217 L242,219 C242,219 243,217 243,217  Z"/>

<path  fill="#FF9B88" stroke-width="0" stroke="#FF9B88" d = " M214 219 L215,220 C215,220 214,219 214,219  Z"/>

<path  fill="#FF9B88" stroke-width="0" stroke="#FF9B88" d = " M226 260 L231,260 C231,260 231,251 231,251 229.386,251 230,247.69 230,246.5 230,241.397 232,236.565 232,232 229.016,232 229.835,217.832 227.5,219 225.369,220.065 228.484,232 225,232 225,232 227,244.5 227,244.5 227,245.69 227.614,249 226,249 226,249 226,260 226,260  Z"/>

<path  fill="#FF9B88" stroke-width="0" stroke="#FF9B88" d = " M242 220 L241,222 C241,222 242,220 242,220  Z"/>

<path  fill="#FF9B88" stroke-width="0" stroke="#FF9B88" d = " M213 230 L221,231 C221,231 215,224 215,224 215,226.518 213,228.286 213,230  Z"/>

<path  fill="#FF9B88" stroke-width="0" stroke="#FF9B88" d = " M243 230 L235,231 C235,231 241,225 241,225 241,225 243,230 243,230  Z"/>

<path  fill="#FF9B88" stroke-width="0" stroke="#FF9B88" d = " M124 228 L123,229 C123,229 123,227 123,227 123,227 124,228 124,228  Z"/>

<path  fill="#CACACB" stroke-width="0" stroke="#CACACB" d = " M155 249 L156,253 C155.627,253 152.973,257.263 151.5,258 149.706,258.897 146.824,257.662 145.5,257 145.5,257 137.5,257 137.5,257 128.207,252.353 122,244.233 122,233 122,233 122,231 122,231 122,231 123,229 123,229 123,229 124,228 124,228 124,228 129,227 129,227 129,228.782 135.482,234 137,234 137,234 140,237.5 140,237.5 144.489,246.478 144.859,249 155,249  Z"/>

<path  fill="#CACACB" stroke-width="0" stroke="#CACACB" d = " M301 249 L300,253 C300,253 304.5,258 304.5,258 306.427,258.964 310.045,257.728 311.5,257 311.5,257 319.5,257 319.5,257 331.044,251.228 334,242.813 334,231 334,231 334,230 334,230 334,230 333,228 333,228 331.369,228 328.631,228 327,228 327,229.343 321.865,233 320,233 320,233 317,236.5 317,236.5 311.919,246.663 313.813,248 302,248 302,248 301,249 301,249  Z"/>

<path  fill="#FF9B88" stroke-width="0" stroke="#FF9B88" d = " M333 228 L334,230 C334,230 333,228 333,228  Z"/>

<path  fill="#FF9B88" stroke-width="0" stroke="#FF9B88" d = " M123 229 L122,231 C122,231 123,229 123,229  Z"/>

<path  fill="#FEBA85" stroke-width="0" stroke="#FEBA85" d = " M206 252 L212.5,254 C214.864,255.182 218.196,253 220,253 222.318,253 219.483,245 223.5,245 223.5,245 226,249 226,249 227.614,249 227,245.69 227,244.5 227,244.5 225,232 225,232 225,232 221,231 221,231 221,231 213,230 213,230 204.341,230 198.547,252 206,252  Z"/>

<path  fill="#FEBA85" stroke-width="0" stroke="#FEBA85" d = " M249 253 L250,253 C250,253 253,251.5 253,251.5 256.318,244.865 251.662,230 243,230 243,230 235,231 235,231 235,231 232,232 232,232 232,236.565 230,241.397 230,246.5 230,247.69 229.386,251 231,251 231,241.699 236,246.811 236,253 240.068,253 244.523,253 249,253  Z"/>

<path  fill="#C9C9CB" stroke-width="0" stroke="#C9C9CB" d = " M171 255 L174,255 C174,253.423 175.762,253 177,253 177,246.117 177.033,231 169,231 169,231 166,235 166,235 166,237.772 167.874,250.248 169,252.5 169.723,253.945 171,252.591 171,255  Z"/>

<path  fill="#C9C9CB" stroke-width="0" stroke="#C9C9CB" d = " M282 255 L285,255 C285,255 288,250.5 288,250.5 289.574,247.353 288.373,242.753 290,239.5 291.675,236.151 288,233.259 288,231 279.232,231 279,244.496 279,252 279,252 282,255 282,255  Z"/>

<path  fill="#FF9B88" stroke-width="0" stroke="#FF9B88" d = " M297 253 C297.476,253 300,256.803 300,253 300,253 304.5,258 304.5,258 306.427,258.964 310.045,257.728 311.5,257 311.5,257 319.5,257 319.5,257 331.044,251.228 334,242.813 334,231 335.614,231 335,234.31 335,235.5 335,240.653 335.119,245.261 333,249.5 329.827,255.845 311.587,262.957 305.5,266 301.753,267.873 299.437,275 295,275 295,272.519 300,269.632 300,266.5 300,262.055 297,258.143 297,253  Z"/>

<path  fill-rule="evenodd" fill="#FF9B88" stroke-width="0" stroke="#FF9B88" d = " M166 277 C166,278.93 167.93,277 166,277  M181 285 C181,287.9 171,281.834 171,282.5 171,284.389 179,285.997 179,287 170.565,287 167.451,278.475 160.5,275 160.5,275 149.5,265 149.5,265 144.908,262.704 140.038,261.269 135.5,259 133.275,257.887 130.398,254.449 127.5,253 122.678,250.589 121,243.565 121,239 121,237.679 120.316,233 122,233 122,244.233 128.207,252.353 137.5,257 137.5,257 145.5,257 145.5,257 146.824,257.662 149.706,258.897 151.5,258 152.973,257.263 155.627,253 156,253 156,253 157.5,255 157.5,255 159.893,255 159,247.475 159,246 160.725,246 160,252.052 160,253.5 160,256.105 152.792,275 161.5,275 163.576,275 162,268.266 162,266.5 162,257.204 161,247.731 161,239 166.597,239 164.477,235 166,235 166,237.772 167.874,250.248 169,252.5 169.723,253.945 171,252.591 171,255 171,255 170,260 170,260 167.567,260 170.02,255.74 165.5,258 160.984,260.258 165.872,273 170,273 170,278.471 173.661,285 181,285  Z"/>

<path  fill="#CBC7CC" stroke-width="0" stroke="#CBC7CC" d = " M159 242 L159,246 C160.725,246 160,252.052 160,253.5 160,256.105 152.792,275 161.5,275 163.576,275 162,268.266 162,266.5 162,257.204 161,247.731 161,239 161,239 161,237 161,237 161,237 160,236 160,236 160,236 160,234 160,234 158.265,234 159,240.51 159,242  Z"/>

<path  fill="#CBC7CC" stroke-width="0" stroke="#CBC7CC" d = " M297 253 C297,258.143 300,262.055 300,266.5 300,269.632 295,272.519 295,275 293.737,275 293.43,269.64 294,268.5 297.53,261.44 295,247.236 295,239 295,239 296,238 296,238 296,236.952 295.527,235 297,235 297,235 297,243 297,243 297,243 297,253 297,253  Z"/>

<path  fill="#FF9B88" stroke-width="0" stroke="#FF9B88" d = " M160 236 L161,237 C161,237 160,236 160,236  Z"/>

<path  fill="#FF9B88" stroke-width="0" stroke="#FF9B88" d = " M296 238 L295,239 C295,239 296,238 296,238  Z"/>

<path  fill="#CCCBCA" stroke-width="0" stroke="#CCCBCA" d = " M155 241 L157,241 C157,238.271 156.577,240 155,240 155,240 155,241 155,241  Z"/>

<path  fill="#CCCBCA" stroke-width="0" stroke="#CCCBCA" d = " M300 239 C300,244.567 302.112,239 300,239  Z"/>

<path  fill="#FF9B88" stroke-width="0" stroke="#FF9B88" d = " M157 241 L155,244 C155,244 155,241 155,241 155,241 157,241 157,241  Z"/>

<path  fill="#FDB986" stroke-width="0" stroke="#FDB986" d = " M155 249 L156,253 C156,253 157.5,255 157.5,255 159.893,255 159,247.475 159,246 159,246 159,242 159,242 159,242 157,241 157,241 157,241 155,244 155,244 155,244 155,245 155,245 155,245 155,249 155,249  Z"/>

<path  fill="#FDB986" stroke-width="0" stroke="#FDB986" d = " M297 253 C297.476,253 300,256.803 300,253 300,253 301,249 301,249 301,249 302,248 302,248 302,243.548 299.977,243 297,243 297,243 297,253 297,253  Z"/>

<path  fill="#CACCC8" stroke-width="0" stroke="#CACCC8" d = " M215 260 C215,269.001 226,268.148 226,260 226,260 226,249 226,249 226,249 223.5,245 223.5,245 219.483,245 222.318,253 220,253 220,256.943 215,256.319 215,260  Z"/>

<path  fill="#CACCC8" stroke-width="0" stroke="#CACCC8" d = " M231 260 C231,268.494 241,268.799 241,260 241,256.319 236,256.943 236,253 236,246.811 231,241.699 231,251 231,251 231,260 231,260  Z"/>

<path  fill="#FF9B88" stroke-width="0" stroke="#FF9B88" d = " M302 248 L301,249 C301,249 302,248 302,248  Z"/>

<path  fill="#FF9B88" stroke-width="0" stroke="#FF9B88" d = " M215 260 L211,261 C209.821,261 199,259.759 199,259 202.981,259 212.809,258.309 209,254.5 209,254.5 206,253 206,253 206,253 206,252 206,252 206,252 212.5,254 212.5,254 214.864,255.182 218.196,253 220,253 220,256.943 215,256.319 215,260  Z"/>

<path  fill="#FF9B88" stroke-width="0" stroke="#FF9B88" d = " M282 255 L280,256 C280,256 278,255 278,255 278,255 279,253 279,253 279,253 279,252 279,252 279,252 282,255 282,255  Z"/>

<path  fill="#FF9B88" stroke-width="0" stroke="#FF9B88" d = " M179 255 L177,256 C177,256 174,255 174,255 174,253.423 175.762,253 177,253 177,253 179,255 179,255  Z"/>

<path  fill="#FDBA86" stroke-width="0" stroke="#FDBA86" d = " M199 259 L192,260 C192,258.527 190.048,259 189,259 185.901,259 183.117,255 179,255 179,255 177,253 177,253 177,253 206,253 206,253 206,253 209,254.5 209,254.5 212.809,258.309 202.981,259 199,259  Z"/>

<path  fill="#FF9B88" stroke-width="0" stroke="#FF9B88" d = " M241 260 L245,261 C246.179,261 257,259.759 257,259 255.119,259 244.646,258.207 246,255.5 246,255.5 249,253 249,253 244.523,253 240.068,253 236,253 236,256.943 241,256.319 241,260  Z"/>

<path  fill="#FDBA86" stroke-width="0" stroke="#FDBA86" d = " M267 259 L265,260 C265,260 257,259 257,259 255.119,259 244.646,258.207 246,255.5 246,255.5 249,253 249,253 249,253 250,253 250,253 250,253 279,253 279,253 279,253 278,255 278,255 273.485,255 270.299,259 267,259  Z"/>

<path  fill="#FEAD6F" stroke-width="0" stroke="#FEAD6F" d = " M181 285 L184,285 C184,284.026 190.851,282.798 192,280.5 194.118,276.264 191,274.937 191,271 185.655,271 177,261.593 177,256 177,256 174,255 174,255 174,255 171,255 171,255 171,255 170,260 170,260 170,263.991 170,269.158 170,273 170,278.471 173.661,285 181,285  Z"/>

<path  fill="#FFAD6E" stroke-width="0" stroke="#FFAD6E" d = " M191 268 L191,271 C185.655,271 177,261.593 177,256 177,256 179,255 179,255 183.117,255 185.901,259 189,259 189,259 191,262 191,262 191,262 191,268 191,268  Z"/>

<path  fill="#FFAD6E" stroke-width="0" stroke="#FFAD6E" d = " M265 269 L266,271 C270.749,271 280,260.395 280,256 280,256 278,255 278,255 273.485,255 270.299,259 267,259 267,259 265,263 265,263 265,263 265,269 265,269  Z"/>

<path  fill="#FEAD6F" stroke-width="0" stroke="#FEAD6F" d = " M277 285 L278,285 C278,284.509 287,280.172 287,273 282.034,273 287,260.733 287,259 287,259 285,255 285,255 285,255 282,255 282,255 282,255 280,256 280,256 280,260.395 270.749,271 266,271 266,273.181 261.763,276.025 263,278.5 264.274,281.048 273,284.58 273,285 273,285 275,285 275,285 275,285 277,285 277,285  Z"/>

<path  fill="#FEAE6E" stroke-width="0" stroke="#FEAE6E" d = " M170 260 C167.567,260 170.02,255.74 165.5,258 160.984,260.258 165.872,273 170,273 170,269.158 170,263.991 170,260  Z"/>

<path  fill="#FEAE6E" stroke-width="0" stroke="#FEAE6E" d = " M287 259 C287,260.733 282.034,273 287,273 287,273 290,269.5 290,269.5 291.14,267.22 293.577,262.655 292,259.5 291.118,257.737 287,255.46 287,259  Z"/>

<path  fill="#FF9B88" stroke-width="0" stroke="#FF9B88" d = " M192 260 L191,262 C191,262 189,259 189,259 190.048,259 192,258.527 192,260  Z"/>

<path  fill="#FEA3D2" stroke-width="0" stroke="#FEA3D2" d = " M191 268 C193.559,268 191.864,273 196,273 196,273 208,265.5 208,265.5 208,265.5 211,264.5 211,264.5 211.929,262.642 211,262.607 211,261 209.821,261 199,259.759 199,259 199,259 192,260 192,260 192,260 191,262 191,262 191,262 191,268 191,268  Z"/>

<path  fill="#FEA3D2" stroke-width="0" stroke="#FEA3D2" d = " M265 269 C263.03,269 263.522,273 260,273 260,269.892 245,267.144 245,261 246.179,261 257,259.759 257,259 257,259 265,260 265,260 265,260 265,263 265,263 265,263 265,269 265,269  Z"/>

<path  fill="#FF9B88" stroke-width="0" stroke="#FF9B88" d = " M265 260 L265,263 C265,263 267,259 267,259 267,259 265,260 265,260  Z"/>

<path  fill="#FF9BCD" stroke-width="0" stroke="#FF9BCD" d = " M211 281 C218.195,281 223.795,268.648 232.5,273 237.486,275.493 239.998,281 246,281 246,281 241,276.5 241,276.5 239.906,274.311 240.866,266.683 245.5,269 249.191,270.845 251.687,272.187 255,275.5 255,275.5 258,279 258,279 258,279 260,273 260,273 260,269.892 245,267.144 245,261 245,261 241,260 241,260 241,268.799 231,268.494 231,260 231,260 226,260 226,260 226,268.148 215,269.001 215,260 215,260 211,261 211,261 211,262.607 211.929,262.642 211,264.5 211,264.5 208,265.5 208,265.5 208,265.5 196,273 196,273 196,273.698 198.714,280 199,280 199,275.176 212.173,263.847 216,271.5 218.15,275.8 211,277.875 211,281  Z"/>

<path  fill="#FF9B88" stroke-width="0" stroke="#FF9B88" d = " M198 283 C193.23,283 189.263,285 184,285 184,284.026 190.851,282.798 192,280.5 194.118,276.264 191,274.937 191,271 191,271 191,268 191,268 193.559,268 191.864,273 196,273 196,273.698 198.714,280 199,280 199,280 199,281 199,281 199,281 198,283 198,283  Z"/>

<path  fill="#C7C9C9" stroke-width="0" stroke="#C7C9C9" d = " M202 283 L204,283 C204,283 205,282 205,282 205,282 208,282 208,282 208,282 209,281 209,281 209,281 211,281 211,281 211,277.875 218.15,275.8 216,271.5 212.173,263.847 199,275.176 199,280 199,280 199,281 199,281 199,281 202,283 202,283  Z"/>

<path  fill="#C7C9C9" stroke-width="0" stroke="#C7C9C9" d = " M252 283 L255,283 C255,283 258,281 258,281 258,281 258,279 258,279 258,279 255,275.5 255,275.5 251.687,272.187 249.191,270.845 245.5,269 240.866,266.683 239.906,274.311 241,276.5 241,276.5 246,281 246,281 246,281 247,281 247,281 247,281 248,282 248,282 248,282 251,282 251,282 251,282 252,283 252,283  Z"/>

<path  fill="#FF9B88" stroke-width="0" stroke="#FF9B88" d = " M258 283 C263.02,283 267.401,285 273,285 273,284.58 264.274,281.048 263,278.5 261.763,276.025 266,273.181 266,271 266,271 265,269 265,269 263.03,269 263.522,273 260,273 260,273 258,279 258,279 258,279 258,281 258,281 258,281 258,283 258,283  Z"/>

<path  fill="#CCC7CB" stroke-width="0" stroke="#CCC7CB" d = " M261 288 L263,288 C263,286.207 275.009,287 277,287 277,287 275,285 275,285 275,285 273,285 273,285 267.401,285 263.02,283 258,283 258,283 255,283 255,283 255,283 252,283 252,283 252,283 251,282 251,282 251,282 248,282 248,282 248,282 247,281 247,281 247,281 246,281 246,281 239.998,281 237.486,275.493 232.5,273 223.795,268.648 218.195,281 211,281 211,281 209,281 209,281 209,281 208,282 208,282 208,282 205,282 205,282 205,282 204,283 204,283 204,283 202,283 202,283 202,283 198,283 198,283 193.23,283 189.263,285 184,285 184,285 181,285 181,285 181,287.9 171,281.834 171,282.5 171,284.389 179,285.997 179,287 179,287 180,287 180,287 181.991,287 194,286.207 194,288 194,288 196,288 196,288 196,288 197,287 197,287 197,287 201,287 201,287 201,285.222 213.312,285 216,285 216,285 219,285 219,285 219,285 220,284 220,284 220,284 221,283 221,283 223.839,283 227.121,279.31 230.5,281 230.5,281 235,283 235,283 235,283 236,284 236,284 236,284 237,284 237,284 237,284 238,285 238,285 238,285 240,285 240,285 247.374,285 253.175,287 260,287 260,287 261,288 261,288  Z"/>

<path  fill="#CCC7CB" stroke-width="0" stroke="#CCC7CB" d = " M166 277 C166,278.93 167.93,277 166,277  Z"/>

<path  fill="#CCC7CB" stroke-width="0" stroke="#CCC7CB" d = " M289 277 C289,280.746 291.091,277 289,277  Z"/>

<path  fill="#FF9BCD" stroke-width="0" stroke="#FF9BCD" d = " M198 283 L202,283 C202,283 199,281 199,281 199,281 198,283 198,283  Z"/>

<path  fill="#FF9BCD" stroke-width="0" stroke="#FF9BCD" d = " M209 281 L208,282 C208,282 209,281 209,281  Z"/>

<path  fill="#FF9BCD" stroke-width="0" stroke="#FF9BCD" d = " M247 281 L248,282 C248,282 247,281 247,281  Z"/>

<path  fill="#FF9BCD" stroke-width="0" stroke="#FF9BCD" d = " M255 283 L258,283 C258,283 258,281 258,281 258,281 255,283 255,283  Z"/>

<path  fill="#FF9BCD" stroke-width="0" stroke="#FF9BCD" d = " M205 282 L204,283 C204,283 205,282 205,282  Z"/>

<path  fill="#FF9BCD" stroke-width="0" stroke="#FF9BCD" d = " M251 282 L252,283 C252,283 251,282 251,282  Z"/>

<path  fill="#FF9BCD" stroke-width="0" stroke="#FF9BCD" d = " M221 283 L220,284 C220,284 221,283 221,283  Z"/>

<path  fill="#FF9BCD" stroke-width="0" stroke="#FF9BCD" d = " M235 283 L236,284 C236,284 235,283 235,283  Z"/>

<path  fill="#FF9BCD" stroke-width="0" stroke="#FF9BCD" d = " M220 284 L219,285 C219,285 220,284 220,284  Z"/>

<path  fill="#FF9BCD" stroke-width="0" stroke="#FF9BCD" d = " M237 284 L238,285 C238,285 237,284 237,284  Z"/>

<path  fill="#FF9BCD" stroke-width="0" stroke="#FF9BCD" d = " M216 285 C213.312,285 201,285.222 201,287 203.1,287 216,286.424 216,285  Z"/>

<path  fill="#FF9BCD" stroke-width="0" stroke="#FF9BCD" d = " M260 287 L260,288 C260,288 245,286 245,286 243.765,286 240,286.643 240,285 247.374,285 253.175,287 260,287  Z"/>

<path  fill="#FF9B88" stroke-width="0" stroke="#FF9B88" d = " M281 286 C281,287.579 278.145,287 277,287 277,287 275,285 275,285 275,285 277,285 277,285 277,286.579 279.855,286 281,286  Z"/>

<path  fill="#CCC7CB" stroke-width="0" stroke="#CCC7CB" d = " M278 285 C279.048,285 281,284.527 281,286 279.855,286 277,286.579 277,285 277,285 278,285 278,285  Z"/>

<path  fill="#FF9B88" stroke-width="0" stroke="#FF9B88" d = " M180 287 C181.991,287 194,286.207 194,288 192.009,288 180,288.793 180,287  Z"/>

<path  fill="#FF9B88" stroke-width="0" stroke="#FF9B88" d = " M196 288 L197,288 C197,288 197,287 197,287 197,287 196,288 196,288  Z"/>

<path  fill="#FF9BCD" stroke-width="0" stroke="#FF9BCD" d = " M201 287 C201,288.579 198.145,288 197,288 197,288 197,287 197,287 197,287 201,287 201,287  Z"/>

<path  fill="#FF9B88" stroke-width="0" stroke="#FF9B88" d = " M260 288 L261,288 C261,288 260,287 260,287 260,287 260,288 260,288  Z"/>

<path  fill="#FF9B88" stroke-width="0" stroke="#FF9B88" d = " M277 287 C275.009,287 263,286.207 263,288 264.991,288 277,288.793 277,287  Z"/>

</g>
</svg>
