<svg xmlns="http://www.w3.org/2000/svg" xmlns:xlink="http://www.w3.org/1999/xlink"  viewBox="0 0 456 320">
<g>
<rect width="456" height="320" fill="#000000"  stroke-width="0" /> 
<path  fill="#9AD1BD" stroke-width="0" stroke="#9AD1BD" d = " M147 146 C147,149.325 148,153.31 148,156 148,166.463 160.233,183.966 165,193.5 169.675,202.851 164.08,214.66 169,224.5 175.502,237.503 204.256,245.988 212,230.5 217.81,218.879 221,202.774 221,189 221,182.904 219.974,161.552 222,157.5 223.567,154.366 226.909,132.317 225,128.5 222.549,123.597 220.492,118.484 218,113.5 216.621,110.742 213,109.722 213,107 213,107 203.5,103 203.5,103 197.516,100.008 182.191,104.655 177.5,107 170.814,110.343 165.299,114.201 159.5,120 159.5,120 154,127 154,127 154,127 153,128 153,128 153,128 153,129 153,129 153,129 152,131 152,131 152,131 151,133 151,133 151,133 150,135 150,135 150,135 149,137 149,137 149,137 149,138 149,138 149,138 148,140 148,140 148,140 148,141 148,141 148,141 147,143 147,143 147,143 147,146 147,146  Z"/>

<path  fill="#9AD1BD" stroke-width="0" stroke="#9AD1BD" d = " M309 144 L309,157 C307.556,157 303.904,169.692 303,171.5 298.364,180.773 294.557,190.386 290,199.5 286.213,207.073 295.754,223.873 281.5,231 275.192,234.154 262.156,243.328 253.5,239 233.793,229.146 235,182.844 235,162 235,155.568 228.144,136.212 231,130.5 233.92,124.659 236.032,118.436 239,112.5 239,112.5 244,107 244,107 244,107 245,107 245,107 245,107 246,106 246,106 246,106 253.5,103 253.5,103 262.766,98.3672 291.728,111.955 295,118.5 296.512,121.524 303,124.444 303,129 303,129 305,131 305,131 305,131 305,132 305,132 305,132 307,136 307,136 307,136 307,137 307,137 307,137 309,141 309,141 309,141 309,144 309,144  Z"/>

<path  fill="#99D2BD" stroke-width="0" stroke="#99D2BD" d = " M246 106 L245,107 C245,107 246,106 246,106  Z"/>

<path  fill="#C7CBCA" stroke-width="0" stroke="#C7CBCA" d = " M153 211 C153,219.458 160.75,223 164,229.5 167.555,236.611 177.568,241.534 184.5,245 L191.5,251 C197.84,254.17 210.173,254.163 216.5,251 228.461,245.019 227,228.438 227,217 227,217 227,197 227,197 227,195.679 226.316,191 228,191 228,191 228,163 228,163 226.219,163 227,152.824 227,151 227,133.014 228.744,129.988 221,114.5 219.793,112.086 216.149,107 213,107 213,109.722 216.621,110.742 218,113.5 220.492,118.484 222.549,123.597 225,128.5 226.909,132.317 223.567,154.366 222,157.5 219.974,161.552 221,182.904 221,189 221,202.774 217.81,218.879 212,230.5 204.256,245.988 175.502,237.503 169,224.5 164.08,214.66 169.675,202.851 165,193.5 160.233,183.966 148,166.463 148,156 146.249,156 147,163.426 147,165 147,165 147,169 147,169 148.579,169 148,171.855 148,173 148,173 148,174 148,174 149.684,174 149,178.679 149,180 149,180 149,181 149,181 149.759,181 151,186.671 151,187.5 151,195.892 153,203.319 153,211  Z"/>

<path  fill="#C7CBCA" stroke-width="0" stroke="#C7CBCA" d = " M308 178 C307.256,178 306,184.639 306,185.5 306,193.116 303,204.544 303,211 303,219.197 297.327,220.847 294,227.5 290.542,234.417 269.35,248.575 262.5,252 257.073,254.713 244.482,253.491 239.5,251 229.718,246.109 229,229.759 229,220 229,220 229,135.5 229,135.5 229,127.484 234.097,107 244,107 244,107 239,112.5 239,112.5 236.032,118.436 233.92,124.659 231,130.5 228.144,136.212 235,155.568 235,162 235,182.844 233.793,229.146 253.5,239 262.156,243.328 275.192,234.154 281.5,231 295.754,223.873 286.213,207.073 290,199.5 294.557,190.386 298.364,180.773 303,171.5 303.904,169.692 307.556,157 309,157 309.616,157 309,165.797 309,168 309,168 309,172 309,172 307.357,172 308,175.765 308,177 308,177 308,178 308,178  Z"/>

<path  fill="#99D2BD" stroke-width="0" stroke="#99D2BD" d = " M154 127 L153,128 C153,128 154,127 154,127  Z"/>

<path  fill="#99D2BD" stroke-width="0" stroke="#99D2BD" d = " M153 129 L152,131 C152,131 153,129 153,129  Z"/>

<path  fill="#99D2BD" stroke-width="0" stroke="#99D2BD" d = " M303 129 L305,131 C305,131 303,129 303,129  Z"/>

<path  fill="#99D2BD" stroke-width="0" stroke="#99D2BD" d = " M152 131 L151,133 C151,133 152,131 152,131  Z"/>

<path  fill="#99D2BD" stroke-width="0" stroke="#99D2BD" d = " M305 132 L307,136 C307,136 305,132 305,132  Z"/>

<path  fill="#99D2BD" stroke-width="0" stroke="#99D2BD" d = " M151 133 L150,135 C150,135 151,133 151,133  Z"/>

<path  fill="#99D2BD" stroke-width="0" stroke="#99D2BD" d = " M150 135 L149,137 C149,137 150,135 150,135  Z"/>

<path  fill="#99D2BD" stroke-width="0" stroke="#99D2BD" d = " M307 137 L309,141 C309,141 307,137 307,137  Z"/>

<path  fill="#99D2BD" stroke-width="0" stroke="#99D2BD" d = " M149 138 L148,140 C148,140 149,138 149,138  Z"/>

<path  fill="#99D2BD" stroke-width="0" stroke="#99D2BD" d = " M148 141 L147,143 C147,143 148,141 148,141  Z"/>

<path  fill="#99D2BD" stroke-width="0" stroke="#99D2BD" d = " M309 157 C309.616,157 309,165.797 309,168 310.684,168 310,163.321 310,162 310,159.844 312.31,144 309,144 309,144 309,157 309,157  Z"/>

<path  fill="#99D2BD" stroke-width="0" stroke="#99D2BD" d = " M148 156 C146.249,156 147,163.426 147,165 145.421,165 146,162.145 146,161 146,158.925 145.203,146 147,146 147,149.325 148,153.31 148,156  Z"/>

<path  fill="#99D2BD" stroke-width="0" stroke="#99D2BD" d = " M227 151 C228.781,151 228,161.176 228,163 226.219,163 227,152.824 227,151  Z"/>

<path  fill="#99D2BD" stroke-width="0" stroke="#99D2BD" d = " M147 169 C148.579,169 148,171.855 148,173 146.421,173 147,170.145 147,169  Z"/>

<path  fill="#99D2BD" stroke-width="0" stroke="#99D2BD" d = " M309 172 C307.357,172 308,175.765 308,177 309.643,177 309,173.235 309,172  Z"/>

<path  fill="#99D2BD" stroke-width="0" stroke="#99D2BD" d = " M148 174 C149.684,174 149,178.679 149,180 147.316,180 148,175.321 148,174  Z"/>

<path  fill="#99D2BD" stroke-width="0" stroke="#99D2BD" d = " M308 178 C307.256,178 306,184.639 306,185.5 306,193.116 303,204.544 303,211 308.469,211 308,183.53 308,178  Z"/>

<path  fill="#99D2BD" stroke-width="0" stroke="#99D2BD" d = " M149 181 C149.759,181 151,186.671 151,187.5 151,195.892 153,203.319 153,211 148.492,211 149,186.101 149,181  Z"/>

<path  fill="#99D2BD" stroke-width="0" stroke="#99D2BD" d = " M228 191 C226.316,191 227,195.679 227,197 L227,217 C228.684,217 228,212.321 228,211 228,211 228,191 228,191  Z"/>

</g>
</svg>
