<svg xmlns="http://www.w3.org/2000/svg" xmlns:xlink="http://www.w3.org/1999/xlink"  viewBox="0 0 456 320">
<g>
<rect width="456" height="320" fill="#000000"  stroke-width="0" /> 
<path  fill="#FCFB90" stroke-width="0" stroke="#FCFB90" d = " M217 70 C225.18,70 231.82,70 240,70 240,68.9521 239.527,67 241,67 241,67 241,66 241,66 241,66 242,64 242,64 242,64 243,62 243,62 243,62 244,60 244,60 244,60 245,58 245,58 245,56.5345 244.891,54 247,54 247,52.7617 247.423,51 249,51 249,51 251,49 251,49 251,49 252,48 252,48 252,48 253,47 253,47 253,47 255,46 255,46 255,43.7597 249.41,41.9549 247.5,41 240.914,37.7072 219.57,36.4648 212.5,40 210.136,41.182 202,41.4987 202,46 205.918,46 215,61.4338 215,65 215,65 215,66 215,66 215,66 217,70 217,70  Z"/>

<path  fill="#FF64FF" stroke-width="0" stroke="#FF64FF" d = " M175 96 L179,97 C179,95.4226 180.762,95 182,95 182,95 186,93 186,93 186,91.2059 192.51,89 194,89 194,87.4226 195.762,87 197,87 197,87 199,85 199,85 199,83.4226 200.762,83 202,83 202,83 203,82 203,82 203,82 204,81 204,81 204,81 205,80 205,80 205,80 206,79 206,79 206,79 207,79 207,79 207,79 208,78 208,78 208,78 209,77 209,77 209,77 210,77 210,77 210,77 211,76 211,76 211,76 212,75 212,75 212,75 213,74 213,74 213,74 215,73 215,73 215,70.3225 215,68.9108 215,66 215,66 215,65 215,65 215,65 210,55.5 210,55.5 210,55.5 202,46 202,46 200.092,46 189,45.2125 189,47 198.096,47 202.95,49.3991 207,57.5 207,57.5 209,60 209,60 209,62.5482 214.197,69.1058 213,71.5 211.7,74.0995 195.619,85 193,85 193,87.5643 180.946,93.392 179,89.5 177.371,86.2423 173.685,83.8695 172,80.5 169.428,75.356 168.562,69.6235 166,64.5 166,64.5 169,57 169,57 169,57 162,64 162,64 162,64 161,68 161,68 161,68 163,71 163,71 163,71 163,72 163,72 163,72 165,74 165,74 165,74 165,75 165,75 165,75 167,77 167,77 167,77 167,78 167,78 168.428,78 171,82.8225 171,84 171,84 171,85 171,85 171,85 173,88 173,88 173,88 173,90 173,90 173,90 174,91 174,91 174,91 174,92 174,92 174,92 175,94 175,94 175,94 175,96 175,96  Z"/>

<path  fill="#F0F080" stroke-width="0" stroke="#F0F080" d = " M202 46 C205.918,46 215,61.4338 215,65 215,65 210,55.5 210,55.5 210,55.5 202,46 202,46  Z"/>

<path  fill="#FF64FF" stroke-width="0" stroke="#FF64FF" d = " M278 97 L281,97 C281,97 281,95 281,95 281,95 282,93 282,93 282,93 283,91 283,91 283,91 283,89 283,89 283,89 284,88 284,88 284,88 284,87 284,87 284,87 285,86 285,86 285,86 285,85 285,85 285,85 286,83 286,83 286,83 287,82 287,82 287,82 288,80 288,80 288,80 289,78 289,78 289,78 290,77 290,77 290,77 291,75 291,75 291,75 292,73 292,73 292,73 293,72 293,72 293,72 294,70 294,70 294,70 295,69 295,69 295,69 295,67 295,67 295,67 295,65 295,65 295,65 294,63 294,63 289.099,63 287.007,52 282,52 282,52 289,60.5 289,60.5 291.349,65.1984 287.232,75.0359 285,79.5 284.033,81.435 277.911,90.2943 276.5,91 274.369,92.0656 263,86.9308 263,85 261.872,85 244.648,73.7967 244,72.5 241.934,68.3681 248,63.2777 248,60 248,60 249,59 249,59 249,49.5846 259.699,47 268,47 268,45.2125 256.908,46 255,46 255,46 253,47 253,47 253,47 252,48 252,48 252,48 251,49 251,49 251,50.7469 250.747,51 249,51 249,52.2383 248.577,54 247,54 247,54 245,58 245,58 245,58 244,60 244,60 244,60 243,62 243,62 243,62 242,64 242,64 242,64 241,66 241,66 241,66 241,67 241,67 241,67 241,73 241,73 241,73 242,73 242,73 242,73 244,75 244,75 244,75 245,75 245,75 245,75 248,78 248,78 248,78 250,79 250,79 250,79 252,81 252,81 252,81 253,81 253,81 253,81 257.5,85 257.5,85 257.5,85 269.5,92 269.5,92 270.685,92.5924 274,93.0118 274,95 274,95 275,95 275,95 275,95 277,97 277,97 277,97 278,97 278,97  Z"/>

<path  fill="#FE79FE" stroke-width="0" stroke="#FE79FE" d = " M209 60 L201.5,59 C195.335,62.0825 186.612,71.7247 191,80.5 L193,85 C193,87.5643 180.946,93.392 179,89.5 177.371,86.2423 173.685,83.8695 172,80.5 169.428,75.356 168.562,69.6235 166,64.5 166,64.5 169,57 169,57 169,57 171,55 171,55 171,55 172,54 172,54 172,54 173,53 173,53 173,53 175,52 175,52 175,52 176,51 176,51 176,51 177,51 177,51 177,51 178,50 178,50 181.58,50 184.832,47 189,47 198.096,47 202.95,49.3991 207,57.5 207,57.5 209,60 209,60  Z"/>

<path  fill="#F0F080" stroke-width="0" stroke="#F0F080" d = " M253 47 L252,48 C252,48 253,47 253,47  Z"/>

<path  fill="#FE79FE" stroke-width="0" stroke="#FE79FE" d = " M249 59 C261.571,59 265,66.863 265,76.5 L265,82.5 L263,85 C263,86.9308 274.369,92.0656 276.5,91 277.911,90.2943 284.033,81.435 285,79.5 287.232,75.0359 291.349,65.1984 289,60.5 289,60.5 282,52 282,52 277.437,52 273.359,47 268,47 259.699,47 249,49.5846 249,59  Z"/>

<path  fill="#F0F080" stroke-width="0" stroke="#F0F080" d = " M252 48 L251,49 C251,49 252,48 252,48  Z"/>

<path  fill="#F0F080" stroke-width="0" stroke="#F0F080" d = " M251 49 L249,51 C250.747,51 251,50.7469 251,49  Z"/>

<path  fill="#FF64FF" stroke-width="0" stroke="#FF64FF" d = " M178 50 L177,51 C177,51 178,50 178,50  Z"/>

<path  fill="#FF64FF" stroke-width="0" stroke="#FF64FF" d = " M176 51 L175,52 C175,52 176,51 176,51  Z"/>

<path  fill="#F0F080" stroke-width="0" stroke="#F0F080" d = " M249 51 C247.423,51 247,52.7617 247,54 248.577,54 249,52.2383 249,51  Z"/>

<path  fill="#FF64FF" stroke-width="0" stroke="#FF64FF" d = " M175 52 L173,53 C173,53 175,52 175,52  Z"/>

<path  fill="#FF64FF" stroke-width="0" stroke="#FF64FF" d = " M173 53 L172,54 C172,54 173,53 173,53  Z"/>

<path  fill="#FDFB8F" stroke-width="0" stroke="#FDFB8F" d = " M118 144 C121.66,144 119.898,133.704 121,131.5 122.759,127.982 121.288,122.924 123,119.5 127.02,111.459 126.972,101.556 131,93.5 131.876,91.7488 131.918,79 134.5,79 L135,84 L133,98.5 C128.188,108.124 117.724,147 137,147 137,124.821 143.828,106.845 153,88.5 154.106,86.2889 160.617,71 162,71 162,71 161,68 161,68 161,68 162,64 162,64 162,57.2765 151.371,50.5645 144.5,54 136.202,58.1489 105,66.2134 105,80 105,92.1156 102.163,114.826 107,124.5 107,124.5 113,138.5 113,138.5 113,138.5 118,144 118,144  Z"/>

<path  fill="#FF64FF" stroke-width="0" stroke="#FF64FF" d = " M172 54 L171,55 C171,55 172,54 172,54  Z"/>

<path  fill="#F0F080" stroke-width="0" stroke="#F0F080" d = " M247 54 C244.891,54 245,56.5345 245,58 245,58 247,54 247,54  Z"/>

<path  fill="#FDFB8F" stroke-width="0" stroke="#FDFB8F" d = " M339 145 C335.766,145 335,133.759 335,131 335,121.355 329.181,99.8624 325,91.5 323.694,88.8881 324.358,85.2155 323,82.5 L322.5,79 L322,83 L323,96.5 C325.567,101.634 324.492,108.483 327,113.5 331.82,123.14 335.594,147 319,147 319,129.583 316.202,113.904 309,99.5 309,99.5 295,70 295,70 295,70 295,69 295,69 295,69 295,67 295,67 296.399,67 296.399,65 295,65 295,65 294,63 294,63 296.298,63 299.013,55.2434 301.5,54 310.523,49.4883 331.513,61.5063 338.5,65 338.5,65 342.5,69 342.5,69 345.512,70.5059 352,76.3847 352,80 352,91.8005 354.233,115.034 349,125.5 347.395,128.711 339,142.76 339,145  Z"/>

<path  fill="#FF64FF" stroke-width="0" stroke="#FF64FF" d = " M171 55 C169.253,55 169,55.2531 169,57 169,57 171,55 171,55  Z"/>

<path  fill="#F0F080" stroke-width="0" stroke="#F0F080" d = " M245 58 L244,60 C244,60 245,58 245,58  Z"/>

<path  fill="#FE79FF" stroke-width="0" stroke="#FE79FF" d = " M209 60 L201.5,59 C195.335,62.0825 186.612,71.7247 191,80.5 L193,85 C195.619,85 211.7,74.0995 213,71.5 214.197,69.1058 209,62.5482 209,60  Z"/>

<path  fill="#FE79FE" stroke-width="0" stroke="#FE79FE" d = " M249 59 L248,60 C248,60 249,59 249,59  Z"/>

<path  fill="#FE79FF" stroke-width="0" stroke="#FE79FF" d = " M248 60 C248,63.2777 241.934,68.3681 244,72.5 244.648,73.7967 261.872,85 263,85 263,85 265,82.5 265,82.5 265,82.5 265,76.5 265,76.5 265,66.863 261.571,59 249,59 249,59 248,60 248,60  Z"/>

<path  fill="#F0F080" stroke-width="0" stroke="#F0F080" d = " M244 60 L243,62 C243,62 244,60 244,60  Z"/>

<path  fill="#F0F080" stroke-width="0" stroke="#F0F080" d = " M243 62 L242,64 C242,64 243,62 243,62  Z"/>

<path  fill="#F0F080" stroke-width="0" stroke="#F0F080" d = " M242 64 L241,66 C241,66 242,64 242,64  Z"/>

<path  fill="#F0F080" stroke-width="0" stroke="#F0F080" d = " M295 65 C296.399,65 296.399,67 295,67 295,67 295,65 295,65  Z"/>

<path  fill="#F0F080" stroke-width="0" stroke="#F0F080" d = " M217 70 C217,71.2383 216.577,73 215,73 215,70.3225 215,68.9108 215,66 215,66 217,70 217,70  Z"/>

<path  fill="#F0F080" stroke-width="0" stroke="#F0F080" d = " M240 70 C240,71.0479 239.527,73 241,73 241,73 241,67 241,67 239.527,67 240,68.9521 240,70  Z"/>

<path  fill="#F0F080" stroke-width="0" stroke="#F0F080" d = " M162 71 L163,71 C163,71 161,68 161,68 161,68 162,71 162,71  Z"/>

<path  fill="#FFFC8E" stroke-width="0" stroke="#FFFC8E" d = " M183 146 L181,143.5 C178.725,138.95 181.052,133.395 183,129.5 L202.5,123 L210.5,123 C219.306,118.597 249.239,120.87 257.5,125 262.064,127.282 272.194,125.888 275,131.5 277.683,136.866 274,141.143 274,146 276.602,146 284.694,144.112 286,141.5 286,141.5 285.5,135 285.5,135 285.5,135 286.5,136 286.5,136 288.758,138.258 301,142.173 301,136 301,136 294,128.5 294,128.5 289.615,124.115 281,104.152 281,98 279.952,98 278,98.4729 278,97 278,97 277,97 277,97 277,97 275,95 275,95 275,95 274,95 274,95 269.689,95 253,84.6091 253,81 253,81 252,81 252,81 252,81 250,79 250,79 250,79 248,78 248,78 248,78 245,75 245,75 245,75 244,75 244,75 244,75 242,73 242,73 242,73 241,73 241,73 239.527,73 240,71.0479 240,70 231.82,70 225.18,70 217,70 217,71.2383 216.577,73 215,73 215,73 213,74 213,74 213,74 212,75 212,75 212,75 211,76 211,76 211,76 210,77 210,77 210,77 209,77 209,77 209,77 208,78 208,78 208,78 207,79 207,79 207,79 206,79 206,79 206,79 205,80 205,80 205,80 204,81 204,81 204,81 203,82 203,82 203,82 202,83 202,83 202,84.5774 200.238,85 199,85 199,86.7469 198.747,87 197,87 197,88.5774 195.238,89 194,89 194,91.4468 187.937,93 186,93 186,95.109 183.465,95 182,95 182,96.5774 180.238,97 179,97 179,98.5791 176.145,98 175,98 175,106.858 168.32,122.18 162,128.5 162,128.5 155,136 155,136 155,139.041 162.651,140.424 165.5,139 165.5,139 170.5,135 170.5,135 170.5,135 170,141.5 170,141.5 171.317,144.133 180.386,146 183,146  Z"/>

<path  fill="#F0F080" stroke-width="0" stroke="#F0F080" d = " M294 70 L295,70 C295,70 295,69 295,69 295,69 294,70 294,70  Z"/>

<path  fill="#FCFB90" stroke-width="0" stroke="#FCFB90" d = " M301 136 C301,131.932 301,127.854 301,123 L301.5,119 L302,121.5 C303.595,124.691 301.46,129.42 303,132.5 306.383,139.266 310.309,147 319,147 319,129.583 316.202,113.904 309,99.5 309,99.5 295,70 295,70 295,70 294,70 294,70 294,70 293,72 293,72 293,72 292,73 292,73 292,73 291,75 291,75 291,75 290,77 290,77 290,77 289,78 289,78 289,78 288,80 288,80 288,80 287,82 287,82 287,82 286,83 286,83 286,83 285,85 285,85 285,85 285,86 285,86 285,86 284,87 284,87 284,87 284,88 284,88 284,88 283,89 283,89 283,89 283,91 283,91 283,91 282,93 282,93 282,93 281,95 281,95 281,95 281,97 281,97 281,97 281,98 281,98 281,104.152 289.615,124.115 294,128.5 294,128.5 301,136 301,136  Z"/>

<path  fill="#FCFB90" stroke-width="0" stroke="#FCFB90" d = " M155 136 L155.5,117 L155,120.5 C153.519,123.463 153,126.391 153,130 153,138.363 145.655,147 137,147 137,124.821 143.828,106.845 153,88.5 154.106,86.2889 160.617,71 162,71 162,71 163,71 163,71 163,71 163,72 163,72 163,72 165,74 165,74 165,74 165,75 165,75 165,75 167,77 167,77 167,77 167,78 167,78 167,79.1775 169.572,84 171,84 171,84 171,85 171,85 171,86.2383 171.423,88 173,88 173,88 173,90 173,90 173,90 174,91 174,91 174,91 174,92 174,92 174,92 175,94 175,94 175,94 175,96 175,96 175,96 175,98 175,98 175,106.858 168.32,122.18 162,128.5 162,128.5 155,136 155,136  Z"/>

<path  fill="#F0F080" stroke-width="0" stroke="#F0F080" d = " M163 72 L165,74 C165,74 163,72 163,72  Z"/>

<path  fill="#F0F080" stroke-width="0" stroke="#F0F080" d = " M293 72 L292,73 C292,73 293,72 293,72  Z"/>

<path  fill="#F0F080" stroke-width="0" stroke="#F0F080" d = " M215 73 L213,74 C213,74 215,73 215,73  Z"/>

<path  fill="#F0F080" stroke-width="0" stroke="#F0F080" d = " M242 73 L244,75 C244,75 242,73 242,73  Z"/>

<path  fill="#F0F080" stroke-width="0" stroke="#F0F080" d = " M292 73 L291,75 C291,75 292,73 292,73  Z"/>

<path  fill="#F0F080" stroke-width="0" stroke="#F0F080" d = " M213 74 L212,75 C212,75 213,74 213,74  Z"/>

<path  fill="#F0F080" stroke-width="0" stroke="#F0F080" d = " M165 75 L167,77 C167,77 165,75 165,75  Z"/>

<path  fill="#F0F080" stroke-width="0" stroke="#F0F080" d = " M212 75 L211,76 C211,76 212,75 212,75  Z"/>

<path  fill="#F0F080" stroke-width="0" stroke="#F0F080" d = " M245 75 L248,78 C248,78 245,75 245,75  Z"/>

<path  fill="#F0F080" stroke-width="0" stroke="#F0F080" d = " M291 75 L290,77 C290,77 291,75 291,75  Z"/>

<path  fill="#F0F080" stroke-width="0" stroke="#F0F080" d = " M211 76 L210,77 C210,77 211,76 211,76  Z"/>

<path  fill="#F0F080" stroke-width="0" stroke="#F0F080" d = " M209 77 L208,78 C208,78 209,77 209,77  Z"/>

<path  fill="#F0F080" stroke-width="0" stroke="#F0F080" d = " M290 77 L289,78 C289,78 290,77 290,77  Z"/>

<path  fill="#F0F080" stroke-width="0" stroke="#F0F080" d = " M167 78 C168.428,78 171,82.8225 171,84 169.572,84 167,79.1775 167,78  Z"/>

<path  fill="#F0F080" stroke-width="0" stroke="#F0F080" d = " M208 78 L207,79 C207,79 208,78 208,78  Z"/>

<path  fill="#F0F080" stroke-width="0" stroke="#F0F080" d = " M289 78 L288,80 C288,80 289,78 289,78  Z"/>

<path  fill-rule="evenodd" fill="#CBC9CC" stroke-width="0" stroke="#CBC9CC" d = " M124 159 C124,159.965 117.868,173.765 117,175.5 115.224,179.053 118.812,188.344 123.5,186 129.81,182.845 140.786,159 124,159  M130 188 C125.454,188 123.701,194 121,194 121,194 121,188 121,188 121,185.901 112.392,185.054 110.5,186 99.4722,191.514 88.6002,197.45 77.5,203 71.5218,205.989 70.3367,212.827 68,217.5 68,217.5 66.5,229 66.5,229 64.0801,229 65,221.017 65,219.5 65,211.628 66.3658,201.067 74.5,197 74.5,197 92.5,188 92.5,188 92.5,188 97.5,183 97.5,183 99.5838,181.958 109,182.439 109,179 115.938,179 109.646,164 103,164 103,164 93,162 93,162 88.3097,162 96.6443,155.789 95,152.5 95,152.5 89,146.5 89,146.5 87.5872,143.674 86.501,140.502 85,137.5 85,137.5 84.5,131 84.5,131 84.5,131 87,136.5 87,136.5 89.3141,141.128 92.006,150.253 97.5,153 104.377,156.438 118,155.239 118,144 121.66,144 119.898,133.704 121,131.5 122.759,127.982 121.288,122.924 123,119.5 127.02,111.459 126.972,101.556 131,93.5 131.876,91.7488 131.918,79 134.5,79 134.5,79 135,84 135,84 135,84 133,98.5 133,98.5 128.188,108.124 117.724,147 137,147 145.655,147 153,138.363 153,130 153,126.391 153.519,123.463 155,120.5 155,120.5 155.5,117 155.5,117 155.5,117 155,136 155,136 155,139.041 162.651,140.424 165.5,139 165.5,139 170.5,135 170.5,135 170.5,135 170,141.5 170,141.5 171.317,144.133 180.386,146 183,146 190.747,146 190.263,149.026 193,154.5 193,154.5 196,159 196,159 196,159 194,159 194,159 194,155.237 188,153.266 188,152 188,148.339 172,149.612 172,155 172,155 166,159 166,159 166,159 157,165 157,165 157,160.82 151.146,166 155,166 155,170.23 149,168.29 149,173 147.814,173 143.808,169.654 142.5,169 138.089,166.794 131,181.682 131,185 131,186.048 131.473,188 130,188  Z"/>

<path  fill="#F0F080" stroke-width="0" stroke="#F0F080" d = " M206 79 L205,80 C205,80 206,79 206,79  Z"/>

<path  fill="#F0F080" stroke-width="0" stroke="#F0F080" d = " M250 79 L252,81 C252,81 250,79 250,79  Z"/>

<path  fill-rule="evenodd" fill="#CBC9CC" stroke-width="0" stroke="#CBC9CC" d = " M326 159 L323,164.5 L324,170 C324,175.244 333.033,194.433 339,182.5 340.442,179.616 335.198,160.349 332.5,159 L326,159  M336 196 L337,196 C337,195.359 332.603,188 336,188 336,184.35 347.759,186.129 349.5,187 349.5,187 380.5,204 380.5,204 385.815,206.657 386.811,215.122 389,219.5 389,219.5 389.5,230 389.5,230 392.17,230 390.405,224.691 391,223.5 393.5,218.5 391.26,210.021 389,205.5 384.349,196.198 373.951,193.226 365.5,189 365.5,189 358.5,183 358.5,183 358.5,183 354.5,183 354.5,183 354.5,183 347,179 347,179 347,179 344,173.5 344,173.5 345.941,169.618 348.67,164 354,164 354,164 363,162 363,162 368.772,162 359.621,156.259 362,151.5 362,151.5 367,146.5 367,146.5 368.652,143.197 370.288,139.925 372,136.5 372,136.5 371.5,132 371.5,132 370.98,132 369.325,137.85 369,138.5 367.656,141.188 361.323,152.088 359.5,153 352.892,156.304 339,156.081 339,145 335.766,145 335,133.759 335,131 335,121.355 329.181,99.8624 325,91.5 323.694,88.8881 324.358,85.2155 323,82.5 323,82.5 322.5,79 322.5,79 322.5,79 322,83 322,83 322,83 323,96.5 323,96.5 325.567,101.634 324.492,108.483 327,113.5 331.82,123.14 335.594,147 319,147 310.309,147 306.383,139.266 303,132.5 301.46,129.42 303.595,124.691 302,121.5 302,121.5 301.5,119 301.5,119 301.5,119 301,123 301,123 301,127.854 301,131.932 301,136 301,142.173 288.758,138.258 286.5,136 286.5,136 285.5,135 285.5,135 285.5,135 286,141.5 286,141.5 284.694,144.112 276.602,146 274,146 267.742,146 263,148.165 263,155 265.523,155 264.959,153 268,153 268,153 269,152 269,152 269,147.825 284,149.935 284,155 284,155 290,159 290,159 293.379,159 295.61,164 299,164 299,159.873 305.081,167.79 301.5,166 301.5,166 300,165 300,165 300,169.274 308,168.833 308,173 309.49,173 313.146,167.323 316.5,169 322.241,171.87 325,181.667 325,188 325,188 326,188 326,188 326,188 329,188 329,188 329,188 330,189 330,189 330,189 334,193 334,193 334,193 335,194 335,194 335,194 336,196 336,196  Z"/>

<path  fill="#FCFC90" stroke-width="0" stroke="#FCFC90" d = " M93 162 L89,164 C89,162.785 69.2856,152.071 67,147.5 64.7175,142.935 59.9024,131.695 63,125.5 63,125.5 67,113.5 67,113.5 73.3265,100.847 89.4963,80 105,80 105,92.1156 102.163,114.826 107,124.5 107,124.5 113,138.5 113,138.5 113,138.5 118,144 118,144 118,155.239 104.377,156.438 97.5,153 92.006,150.253 89.3141,141.128 87,136.5 87,136.5 84.5,131 84.5,131 84.5,131 85,137.5 85,137.5 86.501,140.502 87.5872,143.674 89,146.5 89,146.5 95,152.5 95,152.5 96.6443,155.789 88.3097,162 93,162  Z"/>

<path  fill="#F0F080" stroke-width="0" stroke="#F0F080" d = " M205 80 L204,81 C204,81 205,80 205,80  Z"/>

<path  fill="#F0F080" stroke-width="0" stroke="#F0F080" d = " M288 80 L287,82 C287,82 288,80 288,80  Z"/>

<path  fill="#FCFC90" stroke-width="0" stroke="#FCFC90" d = " M363 162 C363,162.672 367.329,164 368,164 368,159.729 379.241,156.63 382.5,155 387.282,152.609 390.949,144.603 393,140.5 394.645,137.21 393.412,125.324 392,122.5 389.979,118.459 389.058,113.615 387,109.5 381.493,98.4863 364.467,80 352,80 352,91.8005 354.233,115.034 349,125.5 347.395,128.711 339,142.76 339,145 339,156.081 352.892,156.304 359.5,153 361.323,152.088 367.656,141.188 369,138.5 369.325,137.85 370.98,132 371.5,132 371.5,132 372,136.5 372,136.5 370.288,139.925 368.652,143.197 367,146.5 367,146.5 362,151.5 362,151.5 359.621,156.259 368.772,162 363,162  Z"/>

<path  fill="#F0F080" stroke-width="0" stroke="#F0F080" d = " M204 81 L203,82 C203,82 204,81 204,81  Z"/>

<path  fill="#F0F080" stroke-width="0" stroke="#F0F080" d = " M253 81 L257.5,85 L269.5,92 C270.685,92.5924 274,93.0118 274,95 269.689,95 253,84.6091 253,81  Z"/>

<path  fill="#F0F080" stroke-width="0" stroke="#F0F080" d = " M203 82 L202,83 C202,83 203,82 203,82  Z"/>

<path  fill="#F0F080" stroke-width="0" stroke="#F0F080" d = " M287 82 L286,83 C286,83 287,82 287,82  Z"/>

<path  fill="#F0F080" stroke-width="0" stroke="#F0F080" d = " M202 83 C200.762,83 199,83.4226 199,85 200.238,85 202,84.5774 202,83  Z"/>

<path  fill="#F0F080" stroke-width="0" stroke="#F0F080" d = " M286 83 L285,85 C285,85 286,83 286,83  Z"/>

<path  fill="#F0F080" stroke-width="0" stroke="#F0F080" d = " M171 85 L173,88 C171.423,88 171,86.2383 171,85  Z"/>

<path  fill="#F0F080" stroke-width="0" stroke="#F0F080" d = " M199 85 L197,87 C198.747,87 199,86.7469 199,85  Z"/>

<path  fill="#F0F080" stroke-width="0" stroke="#F0F080" d = " M285 86 L284,87 C284,87 285,86 285,86  Z"/>

<path  fill="#F0F080" stroke-width="0" stroke="#F0F080" d = " M197 87 C195.762,87 194,87.4226 194,89 195.238,89 197,88.5774 197,87  Z"/>

<path  fill="#F0F080" stroke-width="0" stroke="#F0F080" d = " M284 88 L283,89 C283,89 284,88 284,88  Z"/>

<path  fill="#F0F080" stroke-width="0" stroke="#F0F080" d = " M194 89 C192.51,89 186,91.2059 186,93 187.937,93 194,91.4468 194,89  Z"/>

<path  fill="#F0F080" stroke-width="0" stroke="#F0F080" d = " M173 90 L174,91 C174,91 173,90 173,90  Z"/>

<path  fill="#F0F080" stroke-width="0" stroke="#F0F080" d = " M283 91 L282,93 C282,93 283,91 283,91  Z"/>

<path  fill="#F0F080" stroke-width="0" stroke="#F0F080" d = " M174 92 L175,94 C175,94 174,92 174,92  Z"/>

<path  fill="#F0F080" stroke-width="0" stroke="#F0F080" d = " M186 93 L182,95 C183.465,95 186,95.109 186,93  Z"/>

<path  fill="#F0F080" stroke-width="0" stroke="#F0F080" d = " M282 93 L281,95 C281,95 282,93 282,93  Z"/>

<path  fill="#F0F080" stroke-width="0" stroke="#F0F080" d = " M182 95 C180.762,95 179,95.4226 179,97 180.238,97 182,96.5774 182,95  Z"/>

<path  fill="#F0F080" stroke-width="0" stroke="#F0F080" d = " M275 95 L277,97 C277,97 275,95 275,95  Z"/>

<path  fill="#F0F080" stroke-width="0" stroke="#F0F080" d = " M179 97 C179,98.5791 176.145,98 175,98 175,98 175,96 175,96 175,96 179,97 179,97  Z"/>

<path  fill="#F0F080" stroke-width="0" stroke="#F0F080" d = " M281 97 L281,98 C279.952,98 278,98.4729 278,97 278,97 281,97 281,97  Z"/>

<path  fill-rule="evenodd" fill="#FDFA91" stroke-width="0" stroke="#FDFA91" d = " M187 135 C187,137.279 182,134.97 182,136.5 182,139.428 198.379,139.939 200.5,141 213.865,147.682 238.748,148.876 252.5,142 257.579,139.461 264.273,140.613 269.5,138 270.577,137.461 275,138.991 275,136.5 L265,135 C262.458,135 242.158,140.671 239.5,142 L233.5,142 C222.074,147.713 199.599,135 187,135  M209 165 C209,163.249 216.426,164 218,164 227.884,164 238.798,165 248,165 252.254,165 255.157,161 259,161 259,161 260,159 260,159 260,159 262,157 262,157 262,157 263,155 263,155 263,148.165 267.742,146 274,146 274,141.143 277.683,136.866 275,131.5 272.194,125.888 262.064,127.282 257.5,125 249.239,120.87 219.306,118.597 210.5,123 210.5,123 202.5,123 202.5,123 202.5,123 183,129.5 183,129.5 181.052,133.395 178.725,138.95 181,143.5 181,143.5 183,146 183,146 190.747,146 190.263,149.026 193,154.5 193,154.5 196,159 196,159 196,159 197,160 197,160 199.343,160 204.19,165 209,165  Z"/>

<path  fill="#CBC9CC" stroke-width="0" stroke="#CBC9CC" d = " M187 135 C187,137.279 182,134.97 182,136.5 182,139.428 198.379,139.939 200.5,141 213.865,147.682 238.748,148.876 252.5,142 257.579,139.461 264.273,140.613 269.5,138 270.577,137.461 275,138.991 275,136.5 L265,135 C262.458,135 242.158,140.671 239.5,142 L233.5,142 C222.074,147.713 199.599,135 187,135  Z"/>

<path  fill="#F0F080" stroke-width="0" stroke="#F0F080" d = " M188 152 C181.784,152 175.305,155 172,155 172,149.612 188,148.339 188,152  Z"/>

<path  fill="#F0F080" stroke-width="0" stroke="#F0F080" d = " M269 152 C274.59,152 280.697,155 284,155 284,149.935 269,147.825 269,152  Z"/>

<path  fill="#CBC9C8" stroke-width="0" stroke="#CBC9C8" d = " M170 161 L171,161 C171,161 173,160 173,160 173,160 185.5,156 185.5,156 188.055,154.722 190.016,158 192,158 192,158 193,159 193,159 193,159 194,159 194,159 194,155.237 188,153.266 188,152 181.784,152 175.305,155 172,155 172,155 166,159 166,159 166,161.641 167.823,161 170,161  Z"/>

<path  fill="#F0F080" stroke-width="0" stroke="#F0F080" d = " M269 152 L268,153 C268,153 269,152 269,152  Z"/>

<path  fill="#CBC9C8" stroke-width="0" stroke="#CBC9C8" d = " M285 161 L286,161 C289.669,161 290,161.698 290,159 290,159 284,155 284,155 280.697,155 274.59,152 269,152 269,152 268,153 268,153 264.959,153 265.523,155 263,155 263,155 262,157 262,157 262,157 262,159 262,159 262,159 263,159 263,159 263,159 264,159 264,159 264,159 265,158 265,158 265,156.814 269.29,156 270.5,156 275.092,156 279.63,160 284,160 284,160 285,161 285,161  Z"/>

<path  fill="#CBC9CC" stroke-width="0" stroke="#CBC9CC" d = " M263 155 L262,157 C262,157 263,155 263,155  Z"/>

<path  fill="#FFAD6D" stroke-width="0" stroke="#FFAD6D" d = " M182 171 L184,171 C184,171 189,168.5 189,168.5 190.806,164.887 192,162.446 192,158 190.016,158 188.055,154.722 185.5,156 185.5,156 173,160 173,160 173,160 173,161 173,161 176.758,161 182.38,156.44 185.5,158 193.562,162.031 184.594,164 180,164 180,165.481 178,164.785 178,167 178,167 180,169 180,169 180,169 182,171 182,171  Z"/>

<path  fill="#FFAD6D" stroke-width="0" stroke="#FFAD6D" d = " M272 171 L274,171 C274,171 276,170 276,170 276,170 277,169 277,169 277,169 279,166 279,166 279,166 277,164 277,164 272.406,164 263.438,162.031 271.5,158 273.887,156.807 280.609,161 284,161 284,161 284,160 284,160 279.63,160 275.092,156 270.5,156 269.29,156 265,156.814 265,158 265,158 264,159 264,159 264,162.359 265.619,164.739 267,167.5 267,167.5 272,171 272,171  Z"/>

<path  fill="#CBC9CC" stroke-width="0" stroke="#CBC9CC" d = " M260 159 L262,159 C262,159 262,157 262,157 262,157 260,159 260,159  Z"/>

<path  fill="#CBC9CB" stroke-width="0" stroke="#CBC9CB" d = " M157 172 L158,172 C158,172 164,170 164,170 164,170 165,169 165,169 165,169 166,169 166,169 166,169 167,168 167,168 167,168 168,168 168,168 168,168 169,167 169,167 169,167 170,167 170,167 170,167 172,166 172,166 172,164.527 173.952,165 175,165 175,165 180,164 180,164 184.594,164 193.562,162.031 185.5,158 182.38,156.44 176.758,161 173,161 173,161 171,161 171,161 171,161 170,161 170,161 170,162.454 164.634,162.433 163.5,163 162.168,163.666 154.178,168.856 155,170.5 155,170.5 157,172 157,172  Z"/>

<path  fill="#FF9B88" stroke-width="0" stroke="#FF9B88" d = " M212 182 L211,187 C211,187 202.5,178 202.5,178 197.397,175.448 189.94,171 184,171 184,171 189,168.5 189,168.5 190.806,164.887 192,162.446 192,158 192,158 193,159 193,159 193,160.624 195,161.75 195,164 195,174.695 212,176.894 212,182  Z"/>

<path  fill="#FF9B88" stroke-width="0" stroke="#FF9B88" d = " M265 158 L264,159 C264,159 265,158 265,158  Z"/>

<path  fill="#CBC9CB" stroke-width="0" stroke="#CBC9CB" d = " M290 169 C293.171,169 295.383,172 299,172 299,170.245 303.063,168.281 296.5,165 295.206,164.353 286,161.895 286,161 286,161 285,161 285,161 285,161 284,161 284,161 280.609,161 273.887,156.807 271.5,158 263.438,162.031 272.406,164 277,164 277,164 281,165 281,165 282.424,165 286,165.362 286,167 286,167 288,167 288,167 288,167 290,169 290,169  Z"/>

<path  fill="#FFFDBB" stroke-width="0" stroke="#FFFDBB" d = " M124 159 C124,159.965 117.868,173.765 117,175.5 115.224,179.053 118.812,188.344 123.5,186 129.81,182.845 140.786,159 124,159  Z"/>

<path  fill="#F0F080" stroke-width="0" stroke="#F0F080" d = " M149 173 L149,175 C151.404,175 153.649,172 157,172 157,172 155,170.5 155,170.5 154.178,168.856 162.168,163.666 163.5,163 164.634,162.433 170,162.454 170,161 167.823,161 166,161.641 166,159 166,159 157,165 157,165 157,165 155,166 155,166 155,170.23 149,168.29 149,173  Z"/>

<path  fill="#F0F080" stroke-width="0" stroke="#F0F080" d = " M197 160 L195,164 C195,161.75 193,160.624 193,159 193,159 194,159 194,159 194,159 196,159 196,159 196,159 197,160 197,160  Z"/>

<path  fill="#F0F080" stroke-width="0" stroke="#F0F080" d = " M259 161 L261,163 C261,163 263,159 263,159 263,159 262,159 262,159 262,159 260,159 260,159 260,159 259,161 259,161  Z"/>

<path  fill="#FF9B88" stroke-width="0" stroke="#FF9B88" d = " M244 182 L246,187 C246,187 252.5,179 252.5,179 258.063,176.218 265.502,171 272,171 272,171 267,167.5 267,167.5 265.619,164.739 264,162.359 264,159 264,159 263,159 263,159 263,159 261,163 261,163 261,175.568 252.455,171.59 249,178.5 249,178.5 244,182 244,182  Z"/>

<path  fill="#F0F080" stroke-width="0" stroke="#F0F080" d = " M308 173 L307,175 C307,172.361 300.968,172 299,172 299,170.245 303.063,168.281 296.5,165 295.206,164.353 286,161.895 286,161 289.669,161 290,161.698 290,159 293.379,159 295.61,164 299,164 299,164 300,165 300,165 300,169.274 308,168.833 308,173  Z"/>

<path  fill="#FFFDBB" stroke-width="0" stroke="#FFFDBB" d = " M326 159 L323,164.5 L324,170 C324,175.244 333.033,194.433 339,182.5 340.442,179.616 335.198,160.349 332.5,159 L326,159  Z"/>

<path  fill="#F0F080" stroke-width="0" stroke="#F0F080" d = " M171 161 L173,161 C173,161 173,160 173,160 173,160 171,161 171,161  Z"/>

<path  fill="#AAA9A7" stroke-width="0" stroke="#AAA9A7" d = " M226 203 L230,204 C230,202.489 231.188,193 233,193 233,193 233,192 233,192 233,192 234,191 234,191 234,191 235,189 235,189 235,186.561 242.088,182 244,182 244,182 249,178.5 249,178.5 252.455,171.59 261,175.568 261,163 261,163 259,161 259,161 255.157,161 252.254,165 248,165 248,167.357 241.971,166.264 240.5,167 235.83,169.335 221.17,169.335 216.5,167 214.856,166.178 209,168.038 209,165 204.19,165 199.343,160 197,160 197,160 195,164 195,164 195,174.695 212,176.894 212,182 215.059,182 221,186.384 221,189 221,189 223,191 223,191 223,191 223,192 223,192 224.812,192 226,201.489 226,203  Z"/>

<path  fill="#F0F080" stroke-width="0" stroke="#F0F080" d = " M284 161 L285,161 C285,161 284,160 284,160 284,160 284,161 284,161  Z"/>

<path  fill="#FFFC8D" stroke-width="0" stroke="#FFFC8D" d = " M121 188 C116.268,188 113.524,195.988 109.5,198 106.734,199.383 83.6633,214.173 83,215.5 L82,222.5 C84.1073,226.715 85.8374,231.175 88,235.5 L93,241 C93,254.798 76.1745,267.337 63.5,261 41.5788,250.039 39.5318,212.436 49,193.5 52.4541,186.592 63.1161,181.192 69.5,178 69.5,178 78.5,178 78.5,178 84.4515,175.024 78.6546,164 89,164 89,164 93,162 93,162 93,162 103,164 103,164 103,170.259 109,173.254 109,179 109,182.439 99.5838,181.958 97.5,183 97.5,183 92.5,188 92.5,188 92.5,188 74.5,197 74.5,197 66.3658,201.067 65,211.628 65,219.5 65,221.017 64.0801,229 66.5,229 66.5,229 68,217.5 68,217.5 70.3367,212.827 71.5218,205.989 77.5,203 88.6002,197.45 99.4722,191.514 110.5,186 112.392,185.054 121,185.901 121,188  Z"/>

<path  fill="#FFFC8D" stroke-width="0" stroke="#FFFC8D" d = " M336 188 C339.66,188 341.096,193.798 343.5,195 345.975,196.237 373.3,216.099 374,217.5 378.675,226.849 363,238.878 363,241 363,253.012 372.182,256.841 380.5,261 382.452,261.976 385.75,264.375 388.5,263 388.5,263 398.5,257 398.5,257 408.67,251.915 407.671,237.158 412,228.5 412,228.5 412,219 412,219 412,201.783 406.989,187.245 390.5,179 386.836,177.168 381.074,179.787 377.5,178 374.684,176.592 376.154,170.809 375,168.5 373.955,166.411 368,164.684 368,164 367.329,164 363,162.672 363,162 363,162 354,164 354,164 354,170.339 347,173.164 347,179 347,179 354.5,183 354.5,183 354.5,183 358.5,183 358.5,183 358.5,183 365.5,189 365.5,189 373.951,193.226 384.349,196.198 389,205.5 391.26,210.021 393.5,218.5 391,223.5 390.405,224.691 392.17,230 389.5,230 389.5,230 389,219.5 389,219.5 386.811,215.122 385.815,206.657 380.5,204 380.5,204 349.5,187 349.5,187 347.759,186.129 336,184.35 336,188  Z"/>

<path  fill="#FFFDBC" stroke-width="0" stroke="#FFFDBC" d = " M157 165 L155,166 C151.146,166 157,160.82 157,165  Z"/>

<path  fill="#FFFDBC" stroke-width="0" stroke="#FFFDBC" d = " M299 164 L300,165 C300,165 301.5,166 301.5,166 305.081,167.79 299,159.873 299,164  Z"/>

<path  fill="#FFF990" stroke-width="0" stroke="#FFF990" d = " M103 164 C109.646,164 115.938,179 109,179 109,173.254 103,170.259 103,164  Z"/>

<path  fill="#FF9B88" stroke-width="0" stroke="#FF9B88" d = " M175 166 L178,167 C178,164.785 180,165.481 180,164 180,164 175,165 175,165 175,165 175,166 175,166  Z"/>

<path  fill="#FEFA91" stroke-width="0" stroke="#FEFA91" d = " M209 165 C209,168.038 214.856,166.178 216.5,167 221.17,169.335 235.83,169.335 240.5,167 241.971,166.264 248,167.357 248,165 238.798,165 227.884,164 218,164 216.426,164 209,163.249 209,165  Z"/>

<path  fill="#FF9B88" stroke-width="0" stroke="#FF9B88" d = " M279 166 L281,166 C281,166 281,165 281,165 281,165 277,164 277,164 277,164 279,166 279,166  Z"/>

<path  fill="#FFF990" stroke-width="0" stroke="#FFF990" d = " M354 164 C348.67,164 345.941,169.618 344,173.5 L347,179 C347,173.164 354,170.339 354,164  Z"/>

<path  fill="#FF9BCD" stroke-width="0" stroke="#FF9BCD" d = " M172 166 L175,166 C175,166 175,165 175,165 173.952,165 172,164.527 172,166  Z"/>

<path  fill="#FF9BCD" stroke-width="0" stroke="#FF9BCD" d = " M281 166 L286,167 C286,165.362 282.424,165 281,165 281,165 281,166 281,166  Z"/>

<path  fill="#FF9BCD" stroke-width="0" stroke="#FF9BCD" d = " M172 166 L170,167 C170,167 172,166 172,166  Z"/>

<path  fill="#FDB3D6" stroke-width="0" stroke="#FDB3D6" d = " M169 183 L167,185 C163.466,185 152,190.93 152,182 152,179.362 150.524,178.453 152,175.5 152,175.5 158,172 158,172 158,172 164,170 164,170 164,170 165,169 165,169 165,169 166,169 166,169 166,169 167,168 167,168 167,168 168,168 168,168 168,168 169,167 169,167 169,167 170,167 170,167 170,167 172,166 172,166 172,166 175,166 175,166 175,166 178,167 178,167 178,167 180,169 180,169 180,169 180,171 180,171 180,171 179,172 179,172 179,172 169,183 169,183  Z"/>

<path  fill="#FDB3D6" stroke-width="0" stroke="#FDB3D6" d = " M304 183 L300.5,187 C296.693,188.904 292.434,185 289,185 289,185 286,182 286,182 286,180.5 278.628,172 277,172 277,172 277,170 277,170 277,170 277,169 277,169 277,169 279,166 279,166 279,166 281,166 281,166 281,166 286,167 286,167 286,167 288,167 288,167 288,167 290,169 290,169 293.171,169 295.383,172 299,172 299,172.529 305,174.478 305,182 305,182 304,183 304,183  Z"/>

<path  fill="#FF9BCD" stroke-width="0" stroke="#FF9BCD" d = " M169 167 L168,168 C168,168 169,167 169,167  Z"/>

<path  fill="#FF9BCD" stroke-width="0" stroke="#FF9BCD" d = " M288 167 L290,169 C290,169 288,167 288,167  Z"/>

<path  fill="#FF9BCD" stroke-width="0" stroke="#FF9BCD" d = " M167 168 L166,169 C166,169 167,168 167,168  Z"/>

<path  fill="#C9C9C8" stroke-width="0" stroke="#C9C9C8" d = " M132 192 C133.579,192 133,194.855 133,196 133,198.726 131.99,207.745 134.5,209 L138,206.5 C139.009,204.482 142.782,193 145,193 145,193 146,191 146,191 146,191 147,189 147,189 147,189 147,188 147,188 147,188 148,187 148,187 148,187 148,185 148,185 148,185 149,184 149,184 149,184 149,183 149,183 149,183 149,175 149,175 149,175 149,173 149,173 147.814,173 143.808,169.654 142.5,169 138.089,166.794 131,181.682 131,185 132.579,185 132,187.855 132,189 132,189 132,191 132,191 132,191 132,192 132,192  Z"/>

<path  fill="#FF9BCD" stroke-width="0" stroke="#FF9BCD" d = " M165 169 L164,170 C164,170 165,169 165,169  Z"/>

<path  fill="#FF9B88" stroke-width="0" stroke="#FF9B88" d = " M180 171 L182,171 C182,171 180,169 180,169 180,169 180,171 180,171  Z"/>

<path  fill="#FF9B88" stroke-width="0" stroke="#FF9B88" d = " M276 170 L277,170 C277,170 277,169 277,169 277,169 276,170 276,170  Z"/>

<path  fill="#C9C9C8" stroke-width="0" stroke="#C9C9C8" d = " M311 191 L311,192 C313.038,192 317.637,207.568 320.5,209 322.485,209.993 323,206.621 323,205.5 323,205.5 324,189 324,189 324,189 325,188 325,188 325,181.667 322.241,171.87 316.5,169 313.146,167.323 309.49,173 308,173 308,173 307,175 307,175 307,175 309,187 309,187 309,187 309,188 309,188 309,188 311,191 311,191  Z"/>

<path  fill="#FF9B88" stroke-width="0" stroke="#FF9B88" d = " M274 171 L276,171 C276,171 276,170 276,170 276,170 274,171 274,171  Z"/>

<path  fill="#FF9BCD" stroke-width="0" stroke="#FF9BCD" d = " M276 171 L277,172 C277,172 277,170 277,170 277,170 276,170 276,170 276,170 276,171 276,171  Z"/>

<path  fill="#FF9BCD" stroke-width="0" stroke="#FF9BCD" d = " M180 171 L179,172 C179,172 180,171 180,171  Z"/>

<path  fill-rule="evenodd" fill="#FFB0D7" stroke-width="0" stroke="#FFB0D7" d = " M181 191 C181,198.258 185.709,191 181,191  M174 210 L182,210 C189.424,210 197.054,205 199,205 199,205 204,202 204,202 204,202 207,200 207,200 207,199.245 210.711,191 211,191 211,191 211,187 211,187 211,187 202.5,178 202.5,178 197.397,175.448 189.94,171 184,171 184,171 182,171 182,171 182,171 180,171 180,171 180,171 179,172 179,172 179,172 169,183 169,183 169,183 168,185 168,185 168,194.343 161,199.731 161,208 161,211.44 170.935,210 174,210  Z"/>

<path  fill-rule="evenodd" fill="#FFB0D7" stroke-width="0" stroke="#FFB0D7" d = " M274 191 L273,192.5 C270.631,197.237 279.488,191 274,191  M274 210 L283,210 C287.284,210 292.371,209 296,209 296,202.067 289,197.943 289,191 289,191 288,190 288,190 288,190 288,186 288,186 288,186 286,182 286,182 286,180.5 278.628,172 277,172 277,172 276,171 276,171 276,171 274,171 274,171 274,171 272,171 272,171 265.502,171 258.063,176.218 252.5,179 252.5,179 246,187 246,187 246,187 246,189 246,189 246,193.032 250,198.88 250,201 250,201 252,202 252,202 253.408,202 257,203.197 257,205 260.741,205 266.832,210 274,210  Z"/>

<path  fill="#FF9BCD" stroke-width="0" stroke="#FF9BCD" d = " M152 182 L149,183 C149,183 149,175 149,175 151.404,175 153.649,172 157,172 157,172 158,172 158,172 158,172 152,175.5 152,175.5 150.524,178.453 152,179.362 152,182  Z"/>

<path  fill="#FF9BCD" stroke-width="0" stroke="#FF9BCD" d = " M305 182 L309,187 C309,187 307,175 307,175 307,172.361 300.968,172 299,172 299,172.529 305,174.478 305,182  Z"/>

<path  fill="#FEB3D7" stroke-width="0" stroke="#FEB3D7" d = " M157 207 C157,211.685 159.189,208 161,208 161,199.731 168,194.343 168,185 168,185 167,185 167,185 163.466,185 152,190.93 152,182 152,182 149,183 149,183 149,183 149,184 149,184 149,184 148,185 148,185 148,185 148,187 148,187 148,187 147,188 147,188 147,188 147,189 147,189 147,189 146,191 146,191 146,191 145,193 145,193 145,195.177 144.359,197 147,197 151.706,197 157,202.2 157,207  Z"/>

<path  fill="#FFBA84" stroke-width="0" stroke="#FFBA84" d = " M212 195 C215.833,195 222,194.596 222,200 223.735,200 223,193.49 223,192 223,192 223,191 223,191 223,191 221,189 221,189 221,186.384 215.059,182 212,182 212,182 211,187 211,187 211,187 211,191 211,191 211,191 212,195 212,195  Z"/>

<path  fill="#FFBA84" stroke-width="0" stroke="#FFBA84" d = " M244 196 C244,194.737 238.64,194.43 237.5,195 235.513,195.994 235,198.541 235,201 232.512,201 233,194.899 233,193 233,193 233,192 233,192 233,192 234,191 234,191 234,191 235,189 235,189 235,186.561 242.088,182 244,182 244,182 246,187 246,187 246,187 246,189 246,189 243.338,189 246.662,196 244,196  Z"/>

<path  fill="#FF9BCD" stroke-width="0" stroke="#FF9BCD" d = " M289 185 L288,186 C288,186 286,182 286,182 286,182 289,185 289,185  Z"/>

<path  fill="#FF9BCD" stroke-width="0" stroke="#FF9BCD" d = " M305 182 L304,183 C304,183 305,182 305,182  Z"/>

<path  fill="#FEB3D7" stroke-width="0" stroke="#FEB3D7" d = " M296 209 C297.375,209 298.625,209 300,209 300,202.423 302.859,197 310,197 311.643,197 311,193.235 311,192 311,192 311,191 311,191 309.423,191 309,189.238 309,188 309,188 309,187 309,187 309,187 305,182 305,182 305,182 304,183 304,183 304,183 300.5,187 300.5,187 296.693,188.904 292.434,185 289,185 289,185 288,186 288,186 288,186 288,190 288,190 288,190 289,191 289,191 289,197.943 296,202.067 296,209  Z"/>

<path  fill="#FF9BCD" stroke-width="0" stroke="#FF9BCD" d = " M167 185 L168,185 C168,185 169,183 169,183 169,183 167,185 167,185  Z"/>

<path  fill="#FF9BCD" stroke-width="0" stroke="#FF9BCD" d = " M149 184 L148,185 C148,185 149,184 149,184  Z"/>

<path  fill="#F0F080" stroke-width="0" stroke="#F0F080" d = " M131 189 L132,189 C132,187.855 132.579,185 131,185 131,186.048 131.473,188 130,188 130,188 131,189 131,189  Z"/>

<path  fill="#FF9BCD" stroke-width="0" stroke="#FF9BCD" d = " M148 187 L147,188 C147,188 148,187 148,187  Z"/>

<path  fill="#FEF991" stroke-width="0" stroke="#FEF991" d = " M104 233 C104,238.59 97.6909,241 93,241 93,241 88,235.5 88,235.5 85.8374,231.175 84.1073,226.715 82,222.5 82,222.5 83,215.5 83,215.5 83.6633,214.173 106.734,199.383 109.5,198 113.524,195.988 116.268,188 121,188 121,188 121,194 121,194 121,194 120,196 120,196 118.801,196 114,203.844 114,205 114,205 113,207 113,207 111.423,207 111,208.762 111,210 111,210 110,211 110,211 110,211 109,212 109,212 109,212 108,213 108,213 104.899,213 100.909,225 104,225 104,225 104,232 104,232 104,232 104,233 104,233  Z"/>

<path  fill="#FEA5D1" stroke-width="0" stroke="#FEA5D1" d = " M132 207 C126.687,207 120.245,226 115,226 115,226 115,207.5 115,207.5 116.663,204.174 120,199.878 120,196 120,196 121,194 121,194 123.701,194 125.454,188 130,188 130,188 131,189 131,189 131,189 132,191 132,191 132,191 132,192 132,192 132,192 132,207 132,207  Z"/>

<path  fill="#FF9BCD" stroke-width="0" stroke="#FF9BCD" d = " M309 188 L311,191 C309.423,191 309,189.238 309,188  Z"/>

<path  fill="#F0F080" stroke-width="0" stroke="#F0F080" d = " M324 189 L325,189 C325,189 326,188 326,188 326,188 325,188 325,188 325,188 324,189 324,189  Z"/>

<path  fill="#FEA5D1" stroke-width="0" stroke="#FEA5D1" d = " M325 208 C332.861,208 333.473,225 341,225 341,219.588 343.706,211.913 341,206.5 341,206.5 336,196 336,196 336,196 335,194 335,194 335,194 334,193 334,193 334,193 330,189 330,189 330,189 329,188 329,188 329,188 326,188 326,188 326,188 325,189 325,189 325,189 325,208 325,208  Z"/>

<path  fill="#F0F080" stroke-width="0" stroke="#F0F080" d = " M329 188 L330,189 C330,189 329,188 329,188  Z"/>

<path  fill="#FEF991" stroke-width="0" stroke="#FEF991" d = " M353 234 C353,238.555 359.254,241 363,241 363,238.878 378.675,226.849 374,217.5 373.3,216.099 345.975,196.237 343.5,195 341.096,193.798 339.66,188 336,188 332.603,188 337,195.359 337,196 337,199.936 343,202.717 343,207 346.548,207 351.79,217.079 353,219.5 353.57,220.64 353.263,226 352,226 352,226 352,232 352,232 352,232 353,234 353,234  Z"/>

<path  fill="#FF9BCD" stroke-width="0" stroke="#FF9BCD" d = " M132 189 L132,191 C132,191 131,189 131,189 131,189 132,189 132,189  Z"/>

<path  fill="#FF9BCD" stroke-width="0" stroke="#FF9BCD" d = " M147 189 L146,191 C146,191 147,189 147,189  Z"/>

<path  fill="#FF9B88" stroke-width="0" stroke="#FF9B88" d = " M221 189 L223,191 C223,191 221,189 221,189  Z"/>

<path  fill="#FF9B88" stroke-width="0" stroke="#FF9B88" d = " M235 189 L234,191 C234,191 235,189 235,189  Z"/>

<path  fill="#FF9B88" stroke-width="0" stroke="#FF9B88" d = " M239 207 L240,207 C240,205.421 242.855,206 244,206 244,206 245,205 245,205 245,205 247,205 247,205 247,205 248,204 248,204 248,204 249,203 249,203 249,203 250,201 250,201 250,198.88 246,193.032 246,189 243.338,189 246.662,196 244,196 244,196 244,198 244,198 244,198 243,199 243,199 243,201.96 237,204.746 237,202 237,202 235,201 235,201 232.512,201 233,194.899 233,193 231.188,193 230,202.489 230,204 230,205.408 237.407,207 239,207  Z"/>

<path  fill="#FF9BCD" stroke-width="0" stroke="#FF9BCD" d = " M334 255 C334,259.163 321.354,271 317,271 317,268.817 320.405,267.69 321,266.5 321,266.5 325,256.5 325,256.5 329.266,247.968 321,236.32 321,229 323.941,229 323.764,224.028 322,220.5 320.095,216.69 316.958,213.415 315,209.5 315,209.5 313,199.5 313,199.5 313,199.5 310,197 310,197 311.643,197 311,193.235 311,192 313.038,192 317.637,207.568 320.5,209 322.485,209.993 323,206.621 323,205.5 323,205.5 324,189 324,189 324,189 325,189 325,189 325,189 325,208 325,208 325,211.138 320.904,216.309 323,220.5 325.898,226.296 326,237.286 326,244 326,246.57 326.039,256.769 328.5,258 331.069,259.284 332.009,255 334,255  Z"/>

<path  fill="#FF9BCD" stroke-width="0" stroke="#FF9BCD" d = " M288 190 L289,191 C289,191 288,190 288,190  Z"/>

<path  fill="#FF9BCD" stroke-width="0" stroke="#FF9BCD" d = " M146 191 L145,193 C145,193 146,191 146,191  Z"/>

<path  fill="#CCCBC8" stroke-width="0" stroke="#CCCBC8" d = " M181 191 C181,198.258 185.709,191 181,191  Z"/>

<path  fill="#FF9B88" stroke-width="0" stroke="#FF9B88" d = " M212 206 L213,206 C216.18,206 226,208.229 226,203 226,201.489 224.812,192 223,192 223,193.49 223.735,200 222,200 222,200 220,202 220,202 220,204.589 213,202.517 213,199 213,199 212,195 212,195 212,195 211,191 211,191 210.711,191 207,199.245 207,200 207,202.25 209,203.376 209,205 209,205 211,205 211,205 211,205 212,206 212,206  Z"/>

<path  fill="#FF9B88" stroke-width="0" stroke="#FF9B88" d = " M234 191 L233,192 C233,192 234,191 234,191  Z"/>

<path  fill="#CCCBC8" stroke-width="0" stroke="#CCCBC8" d = " M274 191 L273,192.5 C270.631,197.237 279.488,191 274,191  Z"/>

<path  fill="#FF9BCD" stroke-width="0" stroke="#FF9BCD" d = " M152 276 C149.598,276 153,279.762 153,281 153,281 145.5,275 145.5,275 138.88,271.69 121,261.89 121,253 123.676,253 124.162,260.169 128.5,258 131.652,256.424 128.69,249.119 130,246.5 133.604,239.292 132,215.465 132,207 132,207 132,192 132,192 133.579,192 133,194.855 133,196 133,198.726 131.99,207.745 134.5,209 134.5,209 138,206.5 138,206.5 139.009,204.482 142.782,193 145,193 145,195.177 144.359,197 147,197 147,197 143,199.5 143,199.5 143,199.5 143,205.5 143,205.5 140.266,210.968 136.707,216.086 134,221.5 132.958,223.583 131.744,230 135,230 135,238.636 127.491,249.481 132,258.5 133.918,262.336 137.007,265.515 139,269.5 140.051,271.601 145.755,275 148.5,275 148.5,275 151,273 151,273 151,273 152,276 152,276  Z"/>

<path  fill="#F0F080" stroke-width="0" stroke="#F0F080" d = " M334 193 L335,194 C335,194 334,193 334,193  Z"/>

<path  fill="#CBC9CC" stroke-width="0" stroke="#CBC9CC" d = " M121 194 L120,196 C120,196 121,194 121,194  Z"/>

<path  fill="#FFB986" stroke-width="0" stroke="#FFB986" d = " M222 200 L220,202 C217.393,202 215.087,199 213,199 213,199 212,195 212,195 215.833,195 222,194.596 222,200  Z"/>

<path  fill="#FFB986" stroke-width="0" stroke="#FFB986" d = " M235 201 L237,202 C237,202 243,199 243,199 243,199 244,198 244,198 244,198 244,196 244,196 244,194.737 238.64,194.43 237.5,195 235.513,195.994 235,198.541 235,201  Z"/>

<path  fill="#A9AAA7" stroke-width="0" stroke="#A9AAA7" d = " M115 226 L113,227 C113,224.759 113.804,210 112,210 112,210 113,207 113,207 113,207 114,205 114,205 114,203.844 118.801,196 120,196 120,199.878 116.663,204.174 115,207.5 115,207.5 115,226 115,226  Z"/>

<path  fill="#A9AAA7" stroke-width="0" stroke="#A9AAA7" d = " M345 232 C346.846,232 350.154,232 352,232 352,232 352,226 352,226 352,226 352,223 352,223 349.873,223 352.462,232.981 346.5,230 342.514,228.007 340.817,210 345,210 345,210 343,207 343,207 343,202.717 337,199.936 337,196 337,196 336,196 336,196 336,196 341,206.5 341,206.5 343.706,211.913 341,219.588 341,225 341,225 345,231 345,231 345,231 345,232 345,232  Z"/>

<path  fill="#C9CACB" stroke-width="0" stroke="#C9CACB" d = " M142 214 C138.558,214 135,227.086 135,230 131.744,230 132.958,223.583 134,221.5 136.707,216.086 140.266,210.968 143,205.5 143,205.5 143,199.5 143,199.5 143,199.5 147,197 147,197 151.706,197 157,202.2 157,207 157,207 154.5,211 154.5,211 152.75,211.875 145,207.386 145,212 145,212 144,212 144,212 144,212 143,213 143,213 143,213 142,214 142,214  Z"/>

<path  fill="#C9CACB" stroke-width="0" stroke="#C9CACB" d = " M315 214 C315,217.431 321,223.094 321,229 323.941,229 323.764,224.028 322,220.5 320.095,216.69 316.958,213.415 315,209.5 315,209.5 313,199.5 313,199.5 313,199.5 310,197 310,197 302.859,197 300,202.423 300,209 300,209 301.5,211 301.5,211 303.25,211.875 311,207.386 311,212 311,212 312,212 312,212 313.238,212 315,212.423 315,214  Z"/>

<path  fill="#FFBA84" stroke-width="0" stroke="#FFBA84" d = " M244 198 L243,199 C243,199 244,198 244,198  Z"/>

<path  fill="#FFBA84" stroke-width="0" stroke="#FFBA84" d = " M213 199 C215.087,199 217.393,202 220,202 220,204.589 213,202.517 213,199  Z"/>

<path  fill="#FFBA84" stroke-width="0" stroke="#FFBA84" d = " M243 199 L237,202 C237,204.746 243,201.96 243,199  Z"/>

<path  fill="#FF9BCD" stroke-width="0" stroke="#FF9BCD" d = " M204 202 L209,205 C209,203.376 207,202.25 207,200 207,200 204,202 204,202  Z"/>

<path  fill="#FF9BCD" stroke-width="0" stroke="#FF9BCD" d = " M252 202 L249,203 C249,203 250,201 250,201 250,201 252,202 252,202  Z"/>

<path  fill="#C9CCC7" stroke-width="0" stroke="#C9CCC7" d = " M210 209 L211,209 C211,209 212,208 212,208 212,208 213,207 213,207 213,207 213,206 213,206 213,206 212,206 212,206 212,206 211,205 211,205 211,205 209,205 209,205 209,205 204,202 204,202 204,202 199,205 199,205 199,213.017 207.012,209 210,209  Z"/>

<path  fill="#C9CCC7" stroke-width="0" stroke="#C9CCC7" d = " M245 208 L246,209 C249.777,209 257,213.719 257,205 257,203.197 253.408,202 252,202 252,202 249,203 249,203 249,203 248,204 248,204 248,204 247,205 247,205 247,205 245,205 245,205 245,205 244,206 244,206 244,206 245,208 245,208  Z"/>

<path  fill="#FF9BCD" stroke-width="0" stroke="#FF9BCD" d = " M227 219 L229,220 C229,220 230,208.5 230,208.5 230.714,207.072 235,205.971 235,208.5 235,208.5 233,209.5 233,209.5 233,209.5 231,217 231,217 231,217 234,216 234,216 234,214.136 232.398,211.551 235.5,210 236.647,209.426 240,211.064 240,209 240,209 239,207 239,207 237.407,207 230,205.408 230,204 230,204 226,203 226,203 226,208.229 216.18,206 213,206 213,206 213,207 213,207 216.454,207 216,206.539 216,209 220.219,209 223,211.661 223,216 223,216 225,217 225,217 225,217 224,210.5 224,210.5 224,210.5 221,208.5 221,208.5 221,205.87 226.241,206.983 227,208.5 227,208.5 227,219 227,219  Z"/>

<path  fill="#FF9BCD" stroke-width="0" stroke="#FF9BCD" d = " M248 204 L247,205 C247,205 248,204 248,204  Z"/>

<path  fill="#CBC9CC" stroke-width="0" stroke="#CBC9CC" d = " M114 205 L113,207 C113,207 114,205 114,205  Z"/>

<path  fill="#FF9BCD" stroke-width="0" stroke="#FF9BCD" d = " M212 216 L203.5,217 L200,221 C200,216.078 191.259,214 187,214 187,210.719 182,211.947 182,210 189.424,210 197.054,205 199,205 199,213.017 207.012,209 210,209 210,211.293 210.997,211 213,211 213,211 212,216 212,216  Z"/>

<path  fill="#FF9BCD" stroke-width="0" stroke="#FF9BCD" d = " M211 205 L212,206 C212,206 211,205 211,205  Z"/>

<path  fill="#FF9BCD" stroke-width="0" stroke="#FF9BCD" d = " M245 205 L244,206 C244,206 245,205 245,205  Z"/>

<path  fill="#FF9BCD" stroke-width="0" stroke="#FF9BCD" d = " M245 216 L252.5,217 L256,221 C256,216.345 264.909,214 269,214 269,211.146 274,211.552 274,210 266.832,210 260.741,205 257,205 257,213.719 249.777,209 246,209 246,212.669 246.095,210 243,210 243,211.974 245,213.517 245,216  Z"/>

<path  fill="#FF9BCD" stroke-width="0" stroke="#FF9BCD" d = " M240 207 L245,208 C245,208 244,206 244,206 242.855,206 240,205.421 240,207  Z"/>

<path  fill="#CBC9CC" stroke-width="0" stroke="#CBC9CC" d = " M111 210 L112,210 C112,210 113,207 113,207 111.423,207 111,208.762 111,210  Z"/>

<path  fill="#FEA4D2" stroke-width="0" stroke="#FEA4D2" d = " M113 234 C113,240.346 121,246.242 121,253 123.676,253 124.162,260.169 128.5,258 131.652,256.424 128.69,249.119 130,246.5 133.604,239.292 132,215.465 132,207 126.687,207 120.245,226 115,226 115,226 113,227 113,227 113,227 112,231 112,231 112,231 113,234 113,234  Z"/>

<path  fill="#FF9BCD" stroke-width="0" stroke="#FF9BCD" d = " M154 263 L151,267 C151,267 144.5,263 144.5,263 131.966,256.733 140.72,234.06 145,225.5 145,225.5 147,216.5 147,216.5 147,216.5 149,212.5 149,212.5 149,212.5 145,212 145,212 145,207.386 152.75,211.875 154.5,211 154.5,211 157,207 157,207 157,211.685 159.189,208 161,208 161,211.44 170.935,210 174,210 174,210.783 167,210.881 167,217 165.982,217 162.528,208.486 153.5,213 146.885,216.307 147.56,224.379 145,229.5 141.622,236.257 135.373,257.937 145.5,263 147.864,264.182 151.196,262 153,262 153,262 154,263 154,263  Z"/>

<path  fill="#FF9BCD" stroke-width="0" stroke="#FF9BCD" d = " M213 207 L212,208 C212,208 213,207 213,207  Z"/>

<path  fill="#FDB1D9" stroke-width="0" stroke="#FDB1D9" d = " M214 210 L213,211 C210.997,211 210,211.293 210,209 210,209 211,209 211,209 211,209 212,208 212,208 212,208 213,207 213,207 216.454,207 216,206.539 216,209 216,209 215,209 215,209 215,209 214,210 214,210  Z"/>

<path  fill="#CBCBCC" stroke-width="0" stroke="#CBCBCC" d = " M225 217 C225,218.805 227,222.827 227,219 227,219 227,208.5 227,208.5 226.241,206.983 221,205.87 221,208.5 221,208.5 224,210.5 224,210.5 224,210.5 225,217 225,217  Z"/>

<path  fill="#CBCBCC" stroke-width="0" stroke="#CBCBCC" d = " M231 217 C231,219.003 231.293,220 229,220 229,220 230,208.5 230,208.5 230.714,207.072 235,205.971 235,208.5 235,208.5 233,209.5 233,209.5 233,209.5 231,217 231,217  Z"/>

<path  fill="#FDB1D9" stroke-width="0" stroke="#FDB1D9" d = " M242 210 L243,210 C246.095,210 246,212.669 246,209 246,209 245,208 245,208 245,208 240,207 240,207 240,207 239,207 239,207 239,207 240,209 240,209 240,209 241,209 241,209 241,209 242,210 242,210  Z"/>

<path  fill="#CBC9CC" stroke-width="0" stroke="#CBC9CC" d = " M352 223 L352,226 C353.263,226 353.57,220.64 353,219.5 351.79,217.079 346.548,207 343,207 343,207 345,210 345,210 345,210 348,214 348,214 348,214 349,215 349,215 349,215 349,216 349,216 349,216 350,217 350,217 350,217 351,220 351,220 351,220 352,221 352,221 352,221 352,223 352,223  Z"/>

<path  fill="#FF9BCD" stroke-width="0" stroke="#FF9BCD" d = " M212 208 L211,209 C211,209 212,208 212,208  Z"/>

<path  fill="#FEA4D2" stroke-width="0" stroke="#FEA4D2" d = " M335 254 L334,255 C332.009,255 331.069,259.284 328.5,258 326.039,256.769 326,246.57 326,244 326,237.286 325.898,226.296 323,220.5 320.904,216.309 325,211.138 325,208 332.861,208 333.473,225 341,225 341,225 345,231 345,231 345,231 344,233 344,233 344,236.521 340,238.168 340,242 340,242 339,243 339,243 339,243 337,249 337,249 337,249 336,250 336,250 336,250 336,251 336,251 336,251 335,252 335,252 335,252 335,254 335,254  Z"/>

<path  fill="#FF9BCD" stroke-width="0" stroke="#FF9BCD" d = " M215 209 L214,210 C214,210 215,209 215,209  Z"/>

<path  fill="#FCB3D8" stroke-width="0" stroke="#FCB3D8" d = " M212 216 C216.135,216 219.305,216 223,216 223,211.661 220.219,209 216,209 216,209 215,209 215,209 215,209 214,210 214,210 214,210 213,211 213,211 213,211 212,216 212,216  Z"/>

<path  fill="#FCB3D8" stroke-width="0" stroke="#FCB3D8" d = " M234 216 C237.439,216 241.983,216 245,216 245,213.517 243,211.974 243,210 243,210 242,210 242,210 242,210 241,209 241,209 241,209 240,209 240,209 240,211.064 236.647,209.426 235.5,210 232.398,211.551 234,214.136 234,216  Z"/>

<path  fill="#FF9BCD" stroke-width="0" stroke="#FF9BCD" d = " M241 209 L242,210 C242,210 241,209 241,209  Z"/>

<path  fill="#FF9BCD" stroke-width="0" stroke="#FF9BCD" d = " M290 215 C291.909,215 295.265,209.883 299.5,212 315.464,219.982 315,241.697 315,258 319.941,258 316.778,248.945 318,246.5 320.713,241.073 302.619,212 311,212 311,207.386 303.25,211.875 301.5,211 301.5,211 300,209 300,209 298.625,209 297.375,209 296,209 292.371,209 287.284,210 283,210 283,211.951 285.454,210.477 286.5,211 286.5,211 290,215 290,215  Z"/>

<path  fill="#CBC9CC" stroke-width="0" stroke="#CBC9CC" d = " M110 211 L111,211 C111,211 111,210 111,210 111,210 110,211 110,211  Z"/>

<path  fill="#A9AAA7" stroke-width="0" stroke="#A9AAA7" d = " M112 210 L111,211 C111,211 111,210 111,210 111,210 112,210 112,210  Z"/>

<path  fill="#A9AAA8" stroke-width="0" stroke="#A9AAA8" d = " M105 222 L105,226 C105,233.789 110.381,227 113,227 113,224.759 113.804,210 112,210 112,210 111,211 111,211 111,211 110,211 110,211 110,211 109,212 109,212 109,212 109,213 109,213 109,213 108,214 108,214 108,216.7 105,218.762 105,222  Z"/>

<path  fill="#FCB3D9" stroke-width="0" stroke="#FCB3D9" d = " M155 263 L156,263 C158.184,263 160.984,256 165,256 165,256 175,244.5 175,244.5 179.13,236.24 187,223.554 187,214 187,210.719 182,211.947 182,210 182,210 174,210 174,210 174,210.783 167,210.881 167,217 167,229.893 160.925,229.65 156,239.5 155.717,240.066 153,261.08 153,262 153,262 154,263 154,263 154,263 155,263 155,263  Z"/>

<path  fill="#FF9BCD" stroke-width="0" stroke="#FF9BCD" d = " M214 210 L213,211 C213,211 214,210 214,210  Z"/>

<path  fill="#FCB3D9" stroke-width="0" stroke="#FCB3D9" d = " M301 263 L303,263 C303,263 303,261 303,261 303,259.786 300.39,239.279 300,238.5 300,238.5 294,232.5 294,232.5 289.116,227.616 290,220.978 290,215 290,215 286.5,211 286.5,211 285.454,210.477 283,211.951 283,210 283,210 274,210 274,210 274,211.552 269,211.146 269,214 269,221.714 278.415,238.331 282,245.5 282,245.5 291,256 291,256 295.669,256 298.211,263 301,263  Z"/>

<path  fill="#A9AAA8" stroke-width="0" stroke="#A9AAA8" d = " M352 221 L352,223 C349.873,223 352.462,232.981 346.5,230 342.514,228.007 340.817,210 345,210 345,210 348,214 348,214 348,214 349,215 349,215 349,215 349,216 349,216 349,216 350,217 350,217 350,217 351,220 351,220 351,220 352,221 352,221  Z"/>

<path  fill="#CBC9CC" stroke-width="0" stroke="#CBC9CC" d = " M110 211 L109,212 C109,212 110,211 110,211  Z"/>

<path  fill="#CBC9CC" stroke-width="0" stroke="#CBC9CC" d = " M108 213 L109,213 C109,213 109,212 109,212 109,212 108,213 108,213  Z"/>

<path  fill="#FF9BCD" stroke-width="0" stroke="#FF9BCD" d = " M144 212 L143,213 C143,213 144,212 144,212  Z"/>

<path  fill="#C8CACA" stroke-width="0" stroke="#C8CACA" d = " M151 267 L151,273 C151,273 148.5,275 148.5,275 145.755,275 140.051,271.601 139,269.5 137.007,265.515 133.918,262.336 132,258.5 127.491,249.481 135,238.636 135,230 135,227.086 138.558,214 142,214 142,214 143,213 143,213 143,213 144,212 144,212 144,212 145,212 145,212 145,212 149,212.5 149,212.5 149,212.5 147,216.5 147,216.5 147,216.5 145,225.5 145,225.5 140.72,234.06 131.966,256.733 144.5,263 144.5,263 151,267 151,267  Z"/>

<path  fill="#FFA4D0" stroke-width="0" stroke="#FFA4D0" d = " M167 217 C165.982,217 162.528,208.486 153.5,213 146.885,216.307 147.56,224.379 145,229.5 141.622,236.257 135.373,257.937 145.5,263 147.864,264.182 151.196,262 153,262 153,261.08 155.717,240.066 156,239.5 160.925,229.65 167,229.893 167,217  Z"/>

<path  fill="#FFA4D0" stroke-width="0" stroke="#FFA4D0" d = " M303 261 C305.099,261 307.383,264.558 310.5,263 L313,261 C313,261 314,260 314,260 314,260 315,259 315,259 315,259 315,258 315,258 315,241.697 315.464,219.982 299.5,212 295.265,209.883 291.909,215 290,215 290,220.978 289.116,227.616 294,232.5 294,232.5 300,238.5 300,238.5 300.39,239.279 303,259.786 303,261  Z"/>

<path  fill="#C8CACA" stroke-width="0" stroke="#C8CACA" d = " M306 273 C306,276.776 312.063,273 314,273 314,271.423 315.762,271 317,271 317,268.817 320.405,267.69 321,266.5 321,266.5 325,256.5 325,256.5 329.266,247.968 321,236.32 321,229 321,223.094 315,217.431 315,214 315,214 312,212 312,212 312,212 311,212 311,212 302.619,212 320.713,241.073 318,246.5 316.778,248.945 319.941,258 315,258 315,258 315,259 315,259 315,259 314,260 314,260 314,260 313,261 313,261 313,265.255 306,264.073 306,268 306,269.744 306,270.967 306,273  Z"/>

<path  fill="#FF9BCD" stroke-width="0" stroke="#FF9BCD" d = " M312 212 C313.238,212 315,212.423 315,214 315,214 312,212 312,212  Z"/>

<path  fill="#CBC9CC" stroke-width="0" stroke="#CBC9CC" d = " M105 222 C103.527,222 104,223.952 104,225 100.909,225 104.899,213 108,213 108,213 108,214 108,214 108,216.7 105,218.762 105,222  Z"/>

<path  fill="#A9AAA7" stroke-width="0" stroke="#A9AAA7" d = " M109 213 L108,214 C108,214 108,213 108,213 108,213 109,213 109,213  Z"/>

<path  fill="#FF9BCD" stroke-width="0" stroke="#FF9BCD" d = " M143 213 L142,214 C142,214 143,213 143,213  Z"/>

<path  fill="#FFB2D8" stroke-width="0" stroke="#FFB2D8" d = " M165 256 C169.871,256 178.295,256.897 182.5,259 185.303,260.401 190.251,267 192,267 192,252.737 200,237.056 200,221 200,216.078 191.259,214 187,214 187,223.554 179.13,236.24 175,244.5 175,244.5 165,256 165,256  Z"/>

<path  fill="#FFB2D8" stroke-width="0" stroke="#FFB2D8" d = " M291 256 C286.399,256 277.52,256.99 273.5,259 L265,266 C265,260.954 263.083,256.666 261,252.5 259.878,250.256 256,224.465 256,221 256,216.345 264.909,214 269,214 269,221.714 278.415,238.331 282,245.5 282,245.5 291,256 291,256  Z"/>

<path  fill="#A9AAA7" stroke-width="0" stroke="#A9AAA7" d = " M348 214 L349,215 C349,215 348,214 348,214  Z"/>

<path  fill-rule="evenodd" fill="#FEB0D8" stroke-width="0" stroke="#FEB0D8" d = " M231 228 C231,230.885 229,232.697 229,236 L229.5,243 C230.349,243.849 229.822,251.339 232.5,250 234.825,248.837 235.619,228 231,228  M223 228 L223,236.5 L222,242 L223,244.5 C223,260.178 233.365,228 223,228  M253 272 L254,272 C254,265.601 260.068,271 262,271 262,271 265,266 265,266 265,260.954 263.083,256.666 261,252.5 259.878,250.256 256,224.465 256,221 256,221 252.5,217 252.5,217 252.5,217 245,216 245,216 241.983,216 237.439,216 234,216 234,216 231,217 231,217 231,219.003 231.293,220 229,220 229,220 227,219 227,219 227,222.827 225,218.805 225,217 225,217 223,216 223,216 219.305,216 216.135,216 212,216 212,216 203.5,217 203.5,217 203.5,217 200,221 200,221 200,237.056 192,252.737 192,267 192,267 194,271 194,271 195.282,271 203,265.742 203,272 203,272 209.5,265 209.5,265 214.746,262.377 218.535,261 225,261 225,261 226,261 226,261 226,246.559 231,251.833 231,262 238.778,262 246.617,261.735 251,270.5 251,270.5 253,272 253,272  Z"/>

<path  fill="#A9AAA7" stroke-width="0" stroke="#A9AAA7" d = " M349 216 L350,217 C350,217 349,216 349,216  Z"/>

<path  fill="#A9AAA7" stroke-width="0" stroke="#A9AAA7" d = " M351 220 L352,221 C352,221 351,220 351,220  Z"/>

<path  fill="#A9AAA7" stroke-width="0" stroke="#A9AAA7" d = " M105 233 L111,233 C111,233 112,231 112,231 112,231 113,227 113,227 110.381,227 105,233.789 105,226 105,226 105,222 105,222 103.527,222 104,223.952 104,225 104,225 104,232 104,232 104,232 105,233 105,233  Z"/>

<path  fill="#C8C8CC" stroke-width="0" stroke="#C8C8CC" d = " M223 228 L223,236.5 L222,242 L223,244.5 C223,260.178 233.365,228 223,228  Z"/>

<path  fill="#C8C8CC" stroke-width="0" stroke="#C8C8CC" d = " M231 228 C231,230.885 229,232.697 229,236 L229.5,243 C230.349,243.849 229.822,251.339 232.5,250 234.825,248.837 235.619,228 231,228  Z"/>

<path  fill="#FF9BCD" stroke-width="0" stroke="#FF9BCD" d = " M111 233 L113,234 C113,234 112,231 112,231 112,231 111,233 111,233  Z"/>

<path  fill="#FF9BCD" stroke-width="0" stroke="#FF9BCD" d = " M345 232 L344,233 C344,233 345,231 345,231 345,231 345,232 345,232  Z"/>

<path  fill="#F0F080" stroke-width="0" stroke="#F0F080" d = " M104 233 L105,233 C105,233 104,232 104,232 104,232 104,233 104,233  Z"/>

<path  fill="#F0F080" stroke-width="0" stroke="#F0F080" d = " M352 232 L353,234 C353,234 352,232 352,232  Z"/>

<path  fill="#FF9BCD" stroke-width="0" stroke="#FF9BCD" d = " M340 242 L339,243 C339,243 340,242 340,242  Z"/>

<path  fill="#FF9BCD" stroke-width="0" stroke="#FF9BCD" d = " M337 249 L336,250 C336,250 337,249 337,249  Z"/>

<path  fill="#FFC5E2" stroke-width="0" stroke="#FFC5E2" d = " M230 280 L227,281 C227,281 226,280 226,280 226,280 226,275 226,275 226,275 226,261 226,261 226,246.559 231,251.833 231,262 231,262 231,265 231,265 229.227,265 230,274.259 230,276 230,276 230,280 230,280  Z"/>

<path  fill="#FF9BCD" stroke-width="0" stroke="#FF9BCD" d = " M336 251 L335,252 C335,252 336,251 336,251  Z"/>

<path  fill="#FF9BCD" stroke-width="0" stroke="#FF9BCD" d = " M335 254 L334,255 C334,255 335,254 335,254  Z"/>

<path  fill="#FFB3D6" stroke-width="0" stroke="#FFB3D6" d = " M171 286 C178.396,286 184.077,287 191,287 191,287 194,280 194,280 194,280 194,279 194,279 194,276.478 194,274.091 194,271 194,271 192,267 192,267 190.251,267 185.303,260.401 182.5,259 178.295,256.897 169.871,256 165,256 160.984,256 158.184,263 156,263 156,263 155,264 155,264 155,264 154,268 154,268 154,268 153,270 153,270 153,280.013 166,283.398 166,285 166,285 167,285 167,285 167,285 169,286 169,286 169,286 171,286 171,286  Z"/>

<path  fill="#FFB3D6" stroke-width="0" stroke="#FFB3D6" d = " M286 286 L287,286 C287,286 289,285 289,285 289,285 290,285 290,285 290,283.937 299.548,279 301,279 301,275.814 303,272.135 303,268 303,268 302,267 302,267 302,267 301,263 301,263 298.211,263 295.669,256 291,256 286.399,256 277.52,256.99 273.5,259 273.5,259 265,266 265,266 265,266 262,271 262,271 262,271.822 264.798,279 262,279 262,279 263,281 263,281 263,281 265,286 265,286 267.579,286 270.997,289.752 274.5,288 278.388,286.056 281.244,286 286,286  Z"/>

<path  fill="#FF9BCD" stroke-width="0" stroke="#FF9BCD" d = " M315 259 L314,260 C314,260 315,259 315,259  Z"/>

<path  fill="#FF9BCD" stroke-width="0" stroke="#FF9BCD" d = " M314 260 L313,261 C313,261 314,260 314,260  Z"/>

<path  fill="#FDB2D9" stroke-width="0" stroke="#FDB2D9" d = " M201 278 C201,280.25 203,281.376 203,283 209.014,283 217.566,275 221,275 221,275 222,275 222,275 222,275 223,274 223,274 223,272.089 225,265.559 225,261 218.535,261 214.746,262.377 209.5,265 209.5,265 203,272 203,272 203,272 203,273 203,273 203,273 202,274 202,274 202,274 202,275 202,275 202,275 201,276 201,276 201,276 201,277 201,277 201,277 201,278 201,278  Z"/>

<path  fill="#FF9BCD" stroke-width="0" stroke="#FF9BCD" d = " M223 274 L226,275 C226,275 226,261 226,261 226,261 225,261 225,261 225,265.559 223,272.089 223,274  Z"/>

<path  fill="#FDB2D9" stroke-width="0" stroke="#FDB2D9" d = " M254 282 L253,283 C244.22,283 231,274.885 231,265 231,265 231,262 231,262 238.778,262 246.617,261.735 251,270.5 251,270.5 253,272 253,272 253,272 254,273 254,273 254,273 254,274 254,274 254,274 255,275 255,275 255,275 255,276 255,276 255,276 255,279 255,279 255,280.048 255.473,282 254,282  Z"/>

<path  fill="#FF9BCD" stroke-width="0" stroke="#FF9BCD" d = " M303 263 L306,268 C306,264.073 313,265.255 313,261 313,261 310.5,263 310.5,263 307.383,264.558 305.099,261 303,261 303,261 303,263 303,263  Z"/>

<path  fill="#C8C8CB" stroke-width="0" stroke="#C8C8CB" d = " M152 276 C152,280.398 162.812,285 166,285 166,283.398 153,280.013 153,270 153,270 154,268 154,268 154,268 155,264 155,264 155,264 155,263 155,263 155,263 154,263 154,263 154,263 151,267 151,267 151,267 151,273 151,273 151,273 152,276 152,276  Z"/>

<path  fill="#FF9BCD" stroke-width="0" stroke="#FF9BCD" d = " M156 263 L155,264 C155,264 155,263 155,263 155,263 156,263 156,263  Z"/>

<path  fill="#C8C8CB" stroke-width="0" stroke="#C8C8CB" d = " M304 277 C302.519,277 303.215,279 301,279 301,275.814 303,272.135 303,268 303,268 302,267 302,267 302,267 301,263 301,263 301,263 303,263 303,263 303,263 306,268 306,268 306,269.744 306,270.967 306,273 306,273 304,277 304,277  Z"/>

<path  fill="#FF9BCD" stroke-width="0" stroke="#FF9BCD" d = " M281 289 C281,290.344 273.727,290.387 272.5,291 265.828,294.336 255.942,295 248,295 248,293.425 252.801,294.102 251,290.5 247.831,284.162 236.025,284 231,284 231,284 231,282 231,282 236.58,282 239.867,277.183 233.5,274 231.123,272.811 231.384,276 230,276 230,274.259 229.227,265 231,265 231,274.885 244.22,283 253,283 253,287.3 265,292.52 265,286 267.579,286 270.997,289.752 274.5,288 278.388,286.056 281.244,286 286,286 286,288.527 281,285.174 281,289  Z"/>

<path  fill="#FF9BCD" stroke-width="0" stroke="#FF9BCD" d = " M302 267 L303,268 C303,268 302,267 302,267  Z"/>

<path  fill="#FF9BCD" stroke-width="0" stroke="#FF9BCD" d = " M154 268 L153,270 C153,270 154,268 154,268  Z"/>

<path  fill="#FCB2D9" stroke-width="0" stroke="#FCB2D9" d = " M194 279 L195,279 C195,279 199,278 199,278 199,278 201,277 201,277 201,277 201,276 201,276 201,276 202,275 202,275 202,275 202,274 202,274 202,274 203,273 203,273 203,273 203,272 203,272 203,265.742 195.282,271 194,271 194,274.091 194,276.478 194,279  Z"/>

<path  fill="#FCB2D9" stroke-width="0" stroke="#FCB2D9" d = " M261 279 L262,279 C264.798,279 262,271.822 262,271 260.068,271 254,265.601 254,272 254,272 254,273 254,273 254,273 254,274 254,274 254,274 255,275 255,275 255,275 255,276 255,276 255,276 257,278 257,278 257,278 261,279 261,279  Z"/>

<path  fill="#FF9BCD" stroke-width="0" stroke="#FF9BCD" d = " M317 271 C315.762,271 314,271.423 314,273 315.238,273 317,272.577 317,271  Z"/>

<path  fill="#FF9BCD" stroke-width="0" stroke="#FF9BCD" d = " M254 272 L254,273 C254,273 253,272 253,272 253,272 254,272 254,272  Z"/>

<path  fill="#FF9BCD" stroke-width="0" stroke="#FF9BCD" d = " M203 273 L202,274 C202,274 203,273 203,273  Z"/>

<path  fill="#FF9BCD" stroke-width="0" stroke="#FF9BCD" d = " M304 277 L305,279 C306.44,279 314,274.442 314,273 312.063,273 306,276.776 306,273 306,273 304,277 304,277  Z"/>

<path  fill="#FF9BCD" stroke-width="0" stroke="#FF9BCD" d = " M223 274 L222,275 C222,275 223,274 223,274  Z"/>

<path  fill="#CACCC8" stroke-width="0" stroke="#CACCC8" d = " M226 280 L226,281 C215.66,281 221,282.851 221,275 221,275 222,275 222,275 222,275 223,274 223,274 223,274 226,275 226,275 226,275 226,280 226,280  Z"/>

<path  fill="#CACCC8" stroke-width="0" stroke="#CACCC8" d = " M230 280 L231,282 C236.58,282 239.867,277.183 233.5,274 231.123,272.811 231.384,276 230,276 230,276 230,280 230,280  Z"/>

<path  fill="#FF9BCD" stroke-width="0" stroke="#FF9BCD" d = " M254 274 L255,275 C255,275 254,274 254,274  Z"/>

<path  fill="#FF9BCD" stroke-width="0" stroke="#FF9BCD" d = " M202 275 L201,276 C201,276 202,275 202,275  Z"/>

<path  fill="#FF9BCD" stroke-width="0" stroke="#FF9BCD" d = " M176 289 C176,290.647 183.176,290.338 184.5,291 190.981,294.241 200.277,295 208,295 208,293.535 203.606,293.289 205,290.5 207.981,284.538 220.284,284 225,284 225,284 226,281 226,281 215.66,281 221,282.851 221,275 217.566,275 209.014,283 203,283 203,287.405 191,291.676 191,287 184.077,287 178.396,286 171,286 171,288.173 176,285.768 176,289  Z"/>

<path  fill="#CBC7CC" stroke-width="0" stroke="#CBC7CC" d = " M172 289 L176,289 C176,285.768 171,288.173 171,286 171,286 169,286 169,286 169,286 167,285 167,285 167,285 166,285 166,285 162.812,285 152,280.398 152,276 149.598,276 153,279.762 153,281 153,281 154,281 154,281 154,281 156,283 156,283 156,283 157,283 157,283 157,283 159,285 159,285 159,285 161,285 161,285 161,285 164,287 164,287 164,287 166,287 166,287 166,287 168,288 168,288 168,288 169,288 169,288 170.048,288 172,287.527 172,289  Z"/>

<path  fill="#FF9BCD" stroke-width="0" stroke="#FF9BCD" d = " M257 278 L255,279 C255,279 255,276 255,276 255,276 257,278 257,278  Z"/>

<path  fill="#FF9BCD" stroke-width="0" stroke="#FF9BCD" d = " M199 278 L201,278 C201,278 201,277 201,277 201,277 199,278 199,278  Z"/>

<path  fill="#CBC7CC" stroke-width="0" stroke="#CBC7CC" d = " M281 289 L285,289 C285,289 287,288 287,288 287,288 288,288 288,288 288,286.527 289.952,287 291,287 291,287 292,287 292,287 292,287 294,286 294,286 294,286 295,286 295,286 295,286 296,285 296,285 296,285 297,285 297,285 297,285 299,284 299,284 299,284 300,283 300,283 300,283 301,283 301,283 301,283 302,282 302,282 302,282 303,281 303,281 303,281 304,280 304,280 304,280 305,279 305,279 305,279 304,277 304,277 302.519,277 303.215,279 301,279 301,282.707 293.382,285 290,285 290,285 289,285 289,285 289,285 287,286 287,286 287,286 286,286 286,286 286,288.527 281,285.174 281,289  Z"/>

<path  fill="#FCB2D8" stroke-width="0" stroke="#FCB2D8" d = " M203 283 C203,287.405 191,291.676 191,287 191,287 194,280 194,280 194,280 195,279 195,279 195,279 199,278 199,278 199,278 201,278 201,278 201,280.25 203,281.376 203,283  Z"/>

<path  fill="#FCB2D8" stroke-width="0" stroke="#FCB2D8" d = " M253 283 C253,287.3 265,292.52 265,286 265,286 263,281 263,281 263,281 261,279 261,279 261,279 257,278 257,278 257,278 255,279 255,279 255,280.048 255.473,282 254,282 254,282 253,283 253,283  Z"/>

<path  fill="#FF9BCD" stroke-width="0" stroke="#FF9BCD" d = " M195 279 L194,280 C194,280 194,279 194,279 194,279 195,279 195,279  Z"/>

<path  fill="#FF9BCD" stroke-width="0" stroke="#FF9BCD" d = " M262 279 L263,281 C263,281 261,279 261,279 261,279 262,279 262,279  Z"/>

<path  fill="#C8C8CB" stroke-width="0" stroke="#C8C8CB" d = " M301 279 C299.548,279 290,283.937 290,285 293.382,285 301,282.707 301,279  Z"/>

<path  fill="#FF9BCD" stroke-width="0" stroke="#FF9BCD" d = " M305 279 L304,280 C304,280 305,279 305,279  Z"/>

<path  fill="#FF9BCD" stroke-width="0" stroke="#FF9BCD" d = " M226 281 L227,281 C227,281 226,280 226,280 226,280 226,281 226,281  Z"/>

<path  fill="#FFC6E2" stroke-width="0" stroke="#FFC6E2" d = " M231 286 C229.51,286 228.413,287 226,287 226,287 225,284 225,284 225,284 226,281 226,281 226,281 227,281 227,281 227,281 230,280 230,280 230,280 231,282 231,282 231,282 231,284 231,284 231,284 231,286 231,286  Z"/>

<path  fill="#FF9BCD" stroke-width="0" stroke="#FF9BCD" d = " M304 280 L303,281 C303,281 304,280 304,280  Z"/>

<path  fill="#FF9BCD" stroke-width="0" stroke="#FF9BCD" d = " M154 281 L156,283 C156,283 154,281 154,281  Z"/>

<path  fill="#FF9BCD" stroke-width="0" stroke="#FF9BCD" d = " M303 281 L302,282 C302,282 303,281 303,281  Z"/>

<path  fill="#FF9BCD" stroke-width="0" stroke="#FF9BCD" d = " M254 282 L253,283 C253,283 254,282 254,282  Z"/>

<path  fill="#FF9BCD" stroke-width="0" stroke="#FF9BCD" d = " M302 282 L301,283 C301,283 302,282 302,282  Z"/>

<path  fill="#FF9BCD" stroke-width="0" stroke="#FF9BCD" d = " M157 283 L159,285 C159,285 157,283 157,283  Z"/>

<path  fill="#C7C9C9" stroke-width="0" stroke="#C7C9C9" d = " M208 295 L219,295 C219,295 223,292.5 223,292.5 223,292.5 226,287 226,287 226,287 225,284 225,284 220.284,284 207.981,284.538 205,290.5 203.606,293.289 208,293.535 208,295  Z"/>

<path  fill="#C7C9C9" stroke-width="0" stroke="#C7C9C9" d = " M238 295 L248,295 C248,293.425 252.801,294.102 251,290.5 247.831,284.162 236.025,284 231,284 231,284 231,286 231,286 231,290.936 238,294.469 238,295  Z"/>

<path  fill="#FF9BCD" stroke-width="0" stroke="#FF9BCD" d = " M300 283 L299,284 C299,284 300,283 300,283  Z"/>

<path  fill="#FF9BCD" stroke-width="0" stroke="#FF9BCD" d = " M299 284 L297,285 C297,285 299,284 299,284  Z"/>

<path  fill="#FF9BCD" stroke-width="0" stroke="#FF9BCD" d = " M161 285 L164,287 C162.762,287 161,286.577 161,285  Z"/>

<path  fill="#FF9BCD" stroke-width="0" stroke="#FF9BCD" d = " M167 285 L169,286 C169,286 167,285 167,285  Z"/>

<path  fill="#FF9BCD" stroke-width="0" stroke="#FF9BCD" d = " M289 285 L287,286 C287,286 289,285 289,285  Z"/>

<path  fill="#FF9BCD" stroke-width="0" stroke="#FF9BCD" d = " M296 285 L295,286 C295,286 296,285 296,285  Z"/>

<path  fill="#FF9BCD" stroke-width="0" stroke="#FF9BCD" d = " M219 295 C223.433,295 226.987,290 228.5,290 228.53,290 233.865,295 238,295 238,294.469 231,290.936 231,286 229.51,286 228.413,287 226,287 226,287 223,292.5 223,292.5 223,292.5 219,295 219,295  Z"/>

<path  fill="#FF9BCD" stroke-width="0" stroke="#FF9BCD" d = " M294 286 L292,287 C292,287 294,286 294,286  Z"/>

<path  fill="#FF9BCD" stroke-width="0" stroke="#FF9BCD" d = " M166 287 L168,288 C168,288 166,287 166,287  Z"/>

<path  fill="#FF9BCD" stroke-width="0" stroke="#FF9BCD" d = " M291 287 C289.952,287 288,286.527 288,288 289.048,288 291,288.473 291,287  Z"/>

<path  fill="#FF9BCD" stroke-width="0" stroke="#FF9BCD" d = " M169 288 C170.048,288 172,287.527 172,289 170.952,289 169,289.473 169,288  Z"/>

<path  fill="#FF9BCD" stroke-width="0" stroke="#FF9BCD" d = " M287 288 L285,289 C285,289 287,288 287,288  Z"/>

</g>
</svg>
