<svg xmlns="http://www.w3.org/2000/svg" xmlns:xlink="http://www.w3.org/1999/xlink"  viewBox="0 0 456 320">
<g>
<rect width="456" height="320" fill="#000000"  stroke-width="0" /> 
<path  fill="#1E9D5A" stroke-width="0" stroke="#1E9D5A" d = " M155 35 L154,41 C166.902,41 179.646,34 193,34 193,34 193,29 193,29 188.439,29 163.335,31.5827 160.5,33 160.5,33 155,35 155,35  Z"/>

<path  fill="#1E9C59" stroke-width="0" stroke="#1E9C59" d = " M222 48 L223,48 C223,48 227,46 227,46 227,43.1412 224.151,42.8029 223,40.5 217.962,30.4232 205.588,29 193,29 193,29 193,34 193,34 201.928,34 222,35.7184 222,48  Z"/>

<path  fill="#1E9C59" stroke-width="0" stroke="#1E9C59" d = " M229 46 L234,48 C234,36.2036 254.257,34 263,34 263,34 263,29 263,29 249.655,29 243.065,30.435 233.5,40 233.5,40 229,46 229,46  Z"/>

<path  fill="#1E9D5A" stroke-width="0" stroke="#1E9D5A" d = " M302 41 L303,41 C303,39.2861 301,37.5181 301,35 297.315,35 289.862,32.6808 286.5,31 284.993,30.2467 265.865,29 263,29 263,29 263,34 263,34 276.446,34 289.086,41 302,41  Z"/>

<path  fill="#1F9C58" stroke-width="0" stroke="#1F9C58" d = " M152 57 L152,64 C155.989,64 160.034,58.7331 163.5,57 169.578,53.9609 184.476,46 191,46 191,41.7542 193,38.5269 193,34 179.646,34 166.902,41 154,41 154,41 152,57 152,57  Z"/>

<path  fill="#1E9D58" stroke-width="0" stroke="#1E9D58" d = " M222 48 L216,52 C216,49.7758 213.614,49.7282 213,48.5 209.069,40.6387 197.22,46 191,46 191,41.7542 193,38.5269 193,34 201.928,34 222,35.7184 222,48  Z"/>

<path  fill="#1E9D58" stroke-width="0" stroke="#1E9D58" d = " M240 52 L241,52 C241,40.196 259.866,46 265,46 265,41.6363 263,37.7412 263,34 254.257,34 234,36.2036 234,48 234,48 234,49 234,49 234,49 240,52 240,52  Z"/>

<path  fill="#1F9C58" stroke-width="0" stroke="#1F9C58" d = " M304 57 L305,64 C298.379,64 276.615,46 266,46 266,46 265,46 265,46 265,41.6363 263,37.7412 263,34 276.446,34 289.086,41 302,41 302,45.8674 304,53.2912 304,57  Z"/>

<path  fill="#187F60" stroke-width="0" stroke="#187F60" d = " M154 41 L143,44 C143,44 141,39 141,39 145.424,39 150.011,35 155,35 155,35 154,41 154,41  Z"/>

<path  fill="#187F60" stroke-width="0" stroke="#187F60" d = " M313 45 L314,45 C314,45 315,39 315,39 315,37.1047 303.106,35 301,35 301,37.5181 303,39.2861 303,41 304.368,41 313,43.7408 313,45  Z"/>

<path  fill="#197E64" stroke-width="0" stroke="#197E64" d = " M106 62 L107,62 C107,62 114,57.5 114,57.5 118.293,53.2073 136.799,45 143,45 143,45 143,44 143,44 143,44 141,39 141,39 131.842,39 121.386,47.0569 113.5,51 113.5,51 104,56 104,56 104,56 106,62 106,62  Z"/>

<path  fill="#197E64" stroke-width="0" stroke="#197E64" d = " M350 62 L351,62 C351,60.3782 350.539,57 353,57 353,54.5345 345.275,51.8874 343.5,51 336.051,47.2757 323.406,39 315,39 315,39 314,45 314,45 323.449,45 333.448,52.9742 341.5,57 343.055,57.7777 350,60.0039 350,62  Z"/>

<path  fill="#187F64" stroke-width="0" stroke="#187F64" d = " M146 59 L147,59 C147,59 152,57 152,57 152,57 154,41 154,41 154,41 143,44 143,44 143,44 143,45 143,45 143,45 146,59 146,59  Z"/>

<path  fill="#187F64" stroke-width="0" stroke="#187F64" d = " M304 57 L310,59 C310,53.6638 313,50.3205 313,45 313,43.7408 304.368,41 303,41 303,41 302,41 302,41 302,45.8674 304,53.2912 304,57  Z"/>

<path  fill="#1F9D58" stroke-width="0" stroke="#1F9D58" d = " M203 63 L204,63 C208.02,63 210.198,53 216,53 216,53 216,52 216,52 216,49.7758 213.614,49.7282 213,48.5 209.069,40.6387 197.22,46 191,46 191,51.7415 187,56.9513 187,63 188.205,63 203,56.2665 203,63  Z"/>

<path  fill="#1F9D58" stroke-width="0" stroke="#1F9D58" d = " M252 63 L253,63 C253,57.4049 266.793,62 269,62 269,56.0231 266,51.8806 266,46 266,46 265,46 265,46 259.866,46 241,40.196 241,52 241,52 252,63 252,63  Z"/>

<path  fill="#197F61" stroke-width="0" stroke="#197F61" d = " M111 74 L112,74 C115.881,74 138.015,59 146,59 146,59 143,45 143,45 136.799,45 118.293,53.2073 114,57.5 114,57.5 107,62 107,62 107,66.7038 111,69.2962 111,74  Z"/>

<path  fill="#197F61" stroke-width="0" stroke="#197F61" d = " M350 62 L345,74 C341.034,74 318.54,59 310,59 310,53.6638 313,50.3205 313,45 313,45 314,45 314,45 323.449,45 333.448,52.9742 341.5,57 343.055,57.7777 350,60.0039 350,62  Z"/>

<path  fill="#1E9C5A" stroke-width="0" stroke="#1E9C5A" d = " M151 73 L151,80 C159.494,80 183.239,63 186,63 186,63 187,63 187,63 187,56.9513 191,51.7415 191,46 184.476,46 169.578,53.9609 163.5,57 160.034,58.7331 155.989,64 152,64 152,67.6175 151,69.829 151,73  Z"/>

<path  fill="#3EA665" stroke-width="0" stroke="#3EA665" d = " M223 73 L233,73 C233,73 233,54.5 233,54.5 233,53.2221 232.335,49 234,49 234,49 234,48 234,48 234,48 229,46 229,46 229,47.93 227.839,46 227,46 227,46 223,48 223,48 223,48 223,73 223,73  Z"/>

<path  fill="#1E9C5A" stroke-width="0" stroke="#1E9C5A" d = " M305 75 L305,80 C296.237,80 274.118,63 270,63 270,63 269,62 269,62 269,56.0231 266,51.8806 266,46 276.615,46 298.379,64 305,64 305,64 305,65 305,65 305,65 305,75 305,75  Z"/>

<path  fill="#40A565" stroke-width="0" stroke="#40A565" d = " M223 73 L218,74 C218,74 217,58 217,58 217,56.7655 217.643,53 216,53 216,53 216,52 216,52 216,52 222,48 222,48 222,48 223,48 223,48 223,48 223,73 223,73  Z"/>

<path  fill="#40A565" stroke-width="0" stroke="#40A565" d = " M233 73 C235.124,73 237.436,74 239,74 239,66.7074 240,58.641 240,52 240,52 234,49 234,49 232.335,49 233,53.2221 233,54.5 233,54.5 233,73 233,73  Z"/>

<path  fill="#3EA566" stroke-width="0" stroke="#3EA566" d = " M239 74 L251,80 C251,80 252,63 252,63 252,63 241,52 241,52 241,52 240,52 240,52 240,58.641 239,66.7074 239,74  Z"/>

<path  fill="#3EA566" stroke-width="0" stroke="#3EA566" d = " M218 74 C212.974,74 209.679,80 206,80 206,75.0886 204,67.9471 204,63 208.02,63 210.198,53 216,53 217.643,53 217,56.7655 217,58 217,58 218,74 218,74  Z"/>

<path  fill="#1B8062" stroke-width="0" stroke="#1B8062" d = " M92 64 C92,66.666 95,66.4822 95,69 98.4523,69 101.818,62 106,62 106,62 104,56 104,56 104,56 92,64 92,64  Z"/>

<path  fill="#1C7F64" stroke-width="0" stroke="#1C7F64" d = " M152 64 L148,66 C148,66 147,59 147,59 147,59 152,57 152,57 152,57 152,64 152,64  Z"/>

<path  fill="#1C7F64" stroke-width="0" stroke="#1C7F64" d = " M305 65 L308,66 C308,66 310,59 310,59 310,59 304,57 304,57 304,57 305,64 305,64 305,64 305,65 305,65  Z"/>

<path  fill="#1B8062" stroke-width="0" stroke="#1B8062" d = " M364 64 C364,65.0757 362.477,69 361,69 361,69 351,62 351,62 351,60.3782 350.539,57 353,57 354.975,57 364,62.2813 364,64  Z"/>

<path  fill="#1A7F63" stroke-width="0" stroke="#1A7F63" d = " M112 74 L115,82 C115,82 148,66 148,66 148,66 147,59 147,59 147,59 146,59 146,59 138.015,59 115.881,74 112,74  Z"/>

<path  fill="#1A7F63" stroke-width="0" stroke="#1A7F63" d = " M345 75 L341,81 C332.304,81 316.215,66 308,66 308,66 310,59 310,59 318.54,59 341.034,74 345,74 345,74 345,75 345,75  Z"/>

<path  fill="#1D9C5A" stroke-width="0" stroke="#1D9C5A" d = " M185 85 L187,85 C187,84.3281 191.329,83 192,83 193.55,83 194.364,76.7717 195,75.5 196.824,71.8516 203,67.1466 203,63 203,56.2665 188.205,63 187,63 187,63 186,63 186,63 186,71.0847 185,78.1793 185,85  Z"/>

<path  fill="#1D9C5A" stroke-width="0" stroke="#1D9C5A" d = " M264 84 L271,85 C271,82.5458 273.489,77.4772 272,74.5 270.631,71.7623 270,66.0797 270,63 270,63 269,62 269,62 266.793,62 253,57.4049 253,63 253,67.3422 264,76.6974 264,84  Z"/>

<path  fill="#1C7F63" stroke-width="0" stroke="#1C7F63" d = " M111 74 C111,75.3391 102.509,80 101,80 101,80 99,78.5 99,78.5 99,76.0913 95,73.1076 95,70 95,70 95,69 95,69 98.4523,69 101.818,62 106,62 106,62 107,62 107,62 107,66.7038 111,69.2962 111,74  Z"/>

<path  fill="#1C7F63" stroke-width="0" stroke="#1C7F63" d = " M345 75 L356,80 C356,80 361,70 361,70 361,70 361,69 361,69 361,69 351,62 351,62 351,62 350,62 350,62 350,62 345,74 345,74 345,74 345,75 345,75  Z"/>

<path  fill="#1F9B5A" stroke-width="0" stroke="#1F9B5A" d = " M152 99 L154,99 C154,97.3616 157.576,97 159,97 159,94.3775 166.828,93 169,93 169,93 173,91 173,91 173,89.1834 180.169,87 182,87 182,87 185,85 185,85 185,78.1793 186,71.0847 186,63 183.239,63 159.494,80 151,80 151,80 151,81 151,81 151,87.8105 151,92.9926 151,99 151,99 152,99 152,99  Z"/>

<path  fill="#3FA664" stroke-width="0" stroke="#3FA664" d = " M192 84 C193.562,84 197,86.1887 197,88 200.398,88 202.13,81 206,81 206,81 206,80 206,80 206,75.0886 204,67.9471 204,63 204,63 203,63 203,63 203,67.1466 196.824,71.8516 195,75.5 194.364,76.7717 193.55,83 192,83 192,83 192,84 192,84  Z"/>

<path  fill="#3FA664" stroke-width="0" stroke="#3FA664" d = " M259 88 L260,88 C260,88 261,87 261,87 261,85.2531 261.253,85 263,85 263,85 264,84 264,84 264,76.6974 253,67.3422 253,63 253,63 252,63 252,63 252,63 251,80 251,80 251,80 251,81 251,81 252.668,81 259,87.1316 259,88  Z"/>

<path  fill="#1F9B5A" stroke-width="0" stroke="#1F9B5A" d = " M271 85 C279.163,85 295.895,99 305,99 305,91.987 305,87.2142 305,80 296.237,80 274.118,63 270,63 270,66.0797 270.631,71.7623 272,74.5 273.489,77.4772 271,82.5458 271,85  Z"/>

<path  fill="#197E63" stroke-width="0" stroke="#197E63" d = " M59 114 L60,114 C60,105.136 76.8211,81.3394 85.5,77 88.4035,75.5483 90.5076,70 95,70 95,70 95,69 95,69 95,66.4822 92,66.666 92,64 87.6249,64 84.2748,71.1126 80.5,73 72.0923,77.2038 52,108.734 52,117 55.0472,117 56.4622,114 59,114  Z"/>

<path  fill="#197C63" stroke-width="0" stroke="#197C63" d = " M148 66 C148,66.978 150.267,73 151,73 151,69.829 152,67.6175 152,64 152,64 148,66 148,66  Z"/>

<path  fill="#197E63" stroke-width="0" stroke="#197E63" d = " M397 114 L404,117 C404,105.836 386.657,83.1572 378.5,75 375.505,72.0045 368.091,64 364,64 364,65.0757 362.477,69 361,69 361,69 361,70 361,70 365.615,70 370.209,75.7094 373.5,79 380.597,86.0967 397,105.073 397,114  Z"/>

<path  fill="#197C63" stroke-width="0" stroke="#197C63" d = " M308 66 C308,67.3777 306.231,75 305,75 305,75 305,65 305,65 305,65 308,66 308,66  Z"/>

<path  fill="#187E62" stroke-width="0" stroke="#187E62" d = " M120 93 L121,93 C125.288,93 141.666,81 151,81 151,81 151,80 151,80 151,80 151,73 151,73 150.267,73 148,66.978 148,66 148,66 115,82 115,82 115,82 115,83 115,83 116.418,83 120,91.0534 120,93  Z"/>

<path  fill="#187E62" stroke-width="0" stroke="#187E62" d = " M341 82 L336,93 C329.931,93 313.254,80 305,80 305,80 305,75 305,75 306.231,75 308,67.3777 308,66 316.215,66 332.304,81 341,81 341,81 341,82 341,82  Z"/>

<path  fill="#1B7F64" stroke-width="0" stroke="#1B7F64" d = " M73 107 C66.6539,107 65.8651,114 60,114 60,105.136 76.8211,81.3394 85.5,77 88.4035,75.5483 90.5076,70 95,70 95,73.1076 99,76.0913 99,78.5 99,78.5 101,80 101,80 101,80 101,81 101,81 94.215,81 75,98.0125 75,105 75,105 74,106 74,106 74,106 73,107 73,107  Z"/>

<path  fill="#1B7F64" stroke-width="0" stroke="#1B7F64" d = " M383 107 C388.174,107 392.336,114 397,114 397,105.073 380.597,86.0967 373.5,79 370.209,75.7094 365.615,70 361,70 361,70 356,80 356,80 356,80 356,81 356,81 363.114,81 383,100.721 383,107  Z"/>

<path  fill="#3FA566" stroke-width="0" stroke="#3FA566" d = " M221 106 L218,107 C218,107 218,74 218,74 218,74 223,73 223,73 223,83.4193 222,94.1709 222,104 222,104 221,106 221,106  Z"/>

<path  fill="#40A664" stroke-width="0" stroke="#40A664" d = " M229 99 C231.832,99 231.953,104 234,104 234,93.9531 233,83.5536 233,73 233,73 223,73 223,73 223,83.4193 222,94.1709 222,104 222,104 227,99 227,99 227,95.85 229,95.5542 229,99  Z"/>

<path  fill="#3FA566" stroke-width="0" stroke="#3FA566" d = " M235 106 L238,107 C238,96.438 239,85.1283 239,74 237.436,74 235.124,73 233,73 233,83.5536 234,93.9531 234,104 234,104 235,106 235,106  Z"/>

<path  fill="#197E61" stroke-width="0" stroke="#197E61" d = " M107 87 L104,88 C104,88 101,81 101,81 101,81 101,80 101,80 102.509,80 111,75.3391 111,74 111,74 112,74 112,74 112,74 115,82 115,82 115,82 115,83 115,83 113.3,83 107,85.4598 107,87  Z"/>

<path  fill="#3EA666" stroke-width="0" stroke="#3EA666" d = " M210 104 C210,105.802 216.346,107 218,107 218,107 218,74 218,74 212.974,74 209.679,80 206,80 206,80 206,81 206,81 206,81 207,96.5 207,96.5 208.035,98.569 210,101.63 210,104  Z"/>

<path  fill="#3EA666" stroke-width="0" stroke="#3EA666" d = " M247 104 C247,105.408 239.593,107 238,107 238,96.438 239,85.1283 239,74 239,74 251,80 251,80 251,80 251,81 251,81 251,88.661 247,96.5683 247,104  Z"/>

<path  fill="#197E61" stroke-width="0" stroke="#197E61" d = " M351 88 L352,88 C352,88 356,81 356,81 356,81 356,80 356,80 356,80 345,75 345,75 345,75 341,81 341,81 341,81 341,82 341,82 342.509,82 351,86.6609 351,88  Z"/>

<path  fill="#197D61" stroke-width="0" stroke="#197D61" d = " M328 109 L329,109 C329,107.535 328.891,105 331,105 331,103.535 330.891,101 333,101 333,97.7619 336,95.6998 336,93 329.931,93 313.254,80 305,80 305,87.2142 305,91.987 305,99 311.282,99 322.476,109 328,109  Z"/>

<path  fill="#1A8062" stroke-width="0" stroke="#1A8062" d = " M88 102 C82.4479,102 80.003,105 75,105 75,98.0125 94.215,81 101,81 101,81 104,88 104,88 104,88 104,89 104,89 101.345,89 90,96.6305 90,100 90,100 89,101 89,101 89,101 88,102 88,102  Z"/>

<path  fill="#197D61" stroke-width="0" stroke="#197D61" d = " M129 109 L130,109 C130,106.891 132.535,107 134,107 134,107 138,105 138,105 138,103.362 141.576,103 143,103 143,103 151,99 151,99 151,92.9926 151,87.8105 151,81 141.666,81 125.288,93 121,93 121,97.8415 126,101.308 126,106 126,106 128,109 128,109 128,109 129,109 129,109  Z"/>

<path  fill="#40A564" stroke-width="0" stroke="#40A564" d = " M209 104 L210,104 C210,101.63 208.035,98.569 207,96.5 207,96.5 206,81 206,81 202.13,81 200.398,88 197,88 197,88 197,89 197,89 197,94.3747 207,97.2434 207,102 207,102 209,104 209,104  Z"/>

<path  fill="#40A564" stroke-width="0" stroke="#40A564" d = " M247 104 L248,104 C248,104 249,103 249,103 249,103 249,102 249,102 249,102 259,91 259,91 259,91 259,88 259,88 259,87.1316 252.668,81 251,81 251,88.661 247,96.5683 247,104  Z"/>

<path  fill="#1A8062" stroke-width="0" stroke="#1A8062" d = " M367 100 C374.196,100 376.554,107 383,107 383,100.721 363.114,81 356,81 356,81 352,88 352,88 352,88 352,89 352,89 355.764,89 365,95.9404 365,99 365,99 366,100 366,100 366,100 367,100 367,100  Z"/>

<path  fill="#197D62" stroke-width="0" stroke="#197D62" d = " M338 94 L339,94 C339,87.5187 348.213,89 351,89 351,89 351,88 351,88 351,86.6609 342.509,82 341,82 341,82 336,93 336,93 336,93 338,94 338,94  Z"/>

<path  fill="#197D62" stroke-width="0" stroke="#197D62" d = " M118 94 L119,94 C119,94 120,93 120,93 120,91.0534 116.418,83 115,83 113.3,83 107,85.4598 107,87 109.54,87 118,90.3991 118,94  Z"/>

<path  fill="#1E9C58" stroke-width="0" stroke="#1E9C58" d = " M187 85 L192,85 C192,85 192,84 192,84 192,84 192,83 192,83 191.329,83 187,84.3281 187,85  Z"/>

<path  fill="#3FA466" stroke-width="0" stroke="#3FA466" d = " M196 89 L197,89 C197,89 197,88 197,88 197,86.1887 193.562,84 192,84 192,84 192,85 192,85 192,85 196,89 196,89  Z"/>

<path  fill="#3FA466" stroke-width="0" stroke="#3FA466" d = " M263 85 L264,85 C264,85 264,84 264,84 264,84 263,85 263,85  Z"/>

<path  fill="#1E9C58" stroke-width="0" stroke="#1E9C58" d = " M271 85 L271,86 C271,86 264,85 264,85 264,85 264,84 264,84 264,84 271,85 271,85  Z"/>

<path  fill="#1D9D5A" stroke-width="0" stroke="#1D9D5A" d = " M185 86 C185,87.4729 183.048,87 182,87 182,87 185,85 185,85 185,85 185,86 185,86  Z"/>

<path  fill="#1E9C58" stroke-width="0" stroke="#1E9C58" d = " M187 85 L185,86 C185,86 185,85 185,85 185,85 187,85 187,85  Z"/>

<path  fill="#CACCC7" stroke-width="0" stroke="#CACCC7" d = " M207 102 L209,104 C200.128,104 195.858,93.6791 188.5,90 182.719,87.1096 175.432,95 170,95 170,95 169,96 169,96 169,96 168,96 168,96 168,96 164,96 164,96 164,96 169,93 169,93 170.465,93 173,93.109 173,91 175.097,91 182,89.4671 182,87 183.048,87 185,87.4729 185,86 185,86 187,85 187,85 187,85 192,85 192,85 192,85 196,89 196,89 196,92.2775 203.309,102 207,102  Z"/>

<path  fill="#3FA466" stroke-width="0" stroke="#3FA466" d = " M263 85 C261.253,85 261,85.2531 261,87 261,87 263,85 263,85  Z"/>

<path  fill="#CACCC7" stroke-width="0" stroke="#CACCC7" d = " M249 102 L249,103 C258.243,103 260.149,93.6753 267.5,90 273.362,87.0691 281.354,95 287,95 288.564,95 290.876,96 293,96 293,94.8505 288.484,94.4922 287.5,94 284.108,92.3042 277.025,90.5252 274.5,88 274.5,88 271,86 271,86 271,86 264,85 264,85 264,85 263,85 263,85 263,85 261,87 261,87 261,87 260,89 260,89 260,89 259,91 259,91 259,94.3088 252.586,102 249,102  Z"/>

<path  fill="#1D9D5A" stroke-width="0" stroke="#1D9D5A" d = " M305 99 L305,101 C301.395,101 296.826,96 293,96 293,94.8505 288.484,94.4922 287.5,94 284.108,92.3042 277.025,90.5252 274.5,88 274.5,88 271,86 271,86 271,86 271,85 271,85 279.163,85 295.895,99 305,99  Z"/>

<path  fill="#197D62" stroke-width="0" stroke="#197D62" d = " M104 89 L105,89 C106.747,89 107,88.7469 107,87 107,87 104,88 104,88 104,88 104,89 104,89  Z"/>

<path  fill="#1B7E63" stroke-width="0" stroke="#1B7E63" d = " M79 140 L80,140 C80,137.228 81.8334,134.833 83,132.5 90.7384,117.023 90.7583,108.871 108.5,100 111.347,98.5765 114.754,94 118,94 118,90.3991 109.54,87 107,87 107,88.7469 106.747,89 105,89 105,91.5806 103,90.0815 103,90.5 103,92.2218 103,94.0701 103,95.5 103,95.5 99.5,96 99.5,96 96.3686,97.5657 93.7575,100 90,100 90,100 89,101 89,101 89,101 88,102 88,102 88,106.251 70,124.817 70,134 70,137.4 79,137.254 79,140  Z"/>

<path  fill="#1D9D5A" stroke-width="0" stroke="#1D9D5A" d = " M182 87 C180.169,87 173,89.1834 173,91 175.097,91 182,89.4671 182,87  Z"/>

<path  fill="#3FA466" stroke-width="0" stroke="#3FA466" d = " M260 88 L260,89 C260,89 261,87 261,87 261,87 260,88 260,88  Z"/>

<path  fill="#40A465" stroke-width="0" stroke="#40A465" d = " M260 89 L259,91 C259,91 259,88 259,88 259,88 260,88 260,88 260,88 260,89 260,89  Z"/>

<path  fill="#1B7E63" stroke-width="0" stroke="#1B7E63" d = " M387 135 L377,140 C377,133.023 363.632,108.566 356.5,105 356.5,105 339,94 339,94 339,87.5187 348.213,89 351,89 351,95.7622 359.985,99 365,99 365,99 366,100 366,100 366,100 368,102 368,102 368,102.248 378.011,115.521 379,117.5 379,117.5 387,133 387,133 387,133 387,135 387,135  Z"/>

<path  fill="#1B7E63" stroke-width="0" stroke="#1B7E63" d = " M351 89 L352,89 C352,89 352,88 352,88 352,88 351,88 351,88 351,88 351,89 351,89  Z"/>

<path  fill="#197E62" stroke-width="0" stroke="#197E62" d = " M105 89 C105,91.5806 103,90.0815 103,90.5 103,92.2218 103,94.0701 103,95.5 L99.5,96 C96.3686,97.5657 93.7575,100 90,100 90,96.6305 101.345,89 104,89 104,89 105,89 105,89  Z"/>

<path  fill="#40A465" stroke-width="0" stroke="#40A465" d = " M197 89 C197,94.3747 207,97.2434 207,102 203.309,102 196,92.2775 196,89 196,89 197,89 197,89  Z"/>

<path  fill-rule="evenodd" fill="#197E62" stroke-width="0" stroke="#197E62" d = " M352 90 C352,91.93 353.93,90 352,90  M352 89 C355.764,89 365,95.9404 365,99 359.985,99 351,95.7622 351,89 351,89 352,89 352,89  Z"/>

<path  fill="#C9C7C9" stroke-width="0" stroke="#C9C7C9" d = " M91 162 L91,165 C94.0135,165 95.9169,153.666 97,151.5 102.322,140.857 111.724,134.052 117,123.5 118.78,119.941 126.737,116.882 130.5,115 147.556,106.472 154.857,106 174,106 174,93.6716 202,107.06 202,111 202,111 204,113 204,113 210.814,113 217.889,117 222,117 222,117 234,117 234,117 238.383,117 245.497,113 252,113 252,113 253,112 253,112 253,112 254,111 254,111 254,107.543 282,93.2123 282,106 285.85,106 294.274,102.887 298.5,105 310.709,111.104 333.808,112.116 341,126.5 341,126.5 345,129.5 345,129.5 345,129.5 359,150.5 359,150.5 359,150.5 362.5,160 362.5,160 362.5,160 367,169 367,169 367,164.359 363,160.728 363,156 363,156 362,155 362,155 362,155 362,154 362,154 362,154 361,152 361,152 361,152 361,151 361,151 361,151 355,139.5 355,139.5 350.224,129.948 339.929,117.714 330.5,113 319.199,107.35 306.779,104.639 295.5,99 293.858,98.1789 287,97.6215 287,95 281.354,95 273.362,87.0691 267.5,90 260.149,93.6753 258.243,103 249,103 249,103 248,104 248,104 248,104 247,104 247,104 247,105.408 239.593,107 238,107 238,107 235,106 235,106 235,107.446 221,107.569 221,106 221,106 218,107 218,107 216.346,107 210,105.802 210,104 210,104 209,104 209,104 200.128,104 195.858,93.6791 188.5,90 182.719,87.1096 175.432,95 170,95 170,95 169,96 169,96 169,96 168,96 168,96 168,96 159.5,100 159.5,100 155.125,102.187 132.924,111 129,111 129,112.617 124.417,115 123,115 123,116.577 121.238,117 120,117 120,117 119,118 119,118 119,119.712 116.429,121 115,121 115,123.409 104.704,135.092 103,138.5 103,138.5 99,143 99,143 99,144.465 99.109,147 97,147 97,148.424 96.6384,152 95,152 95,152 95,153 95,153 95,153 94,155 94,155 94,155 92,161 92,161 92,161 91,162 91,162  Z"/>

<path  fill="#1B7E63" stroke-width="0" stroke="#1B7E63" d = " M352 90 C352,91.93 353.93,90 352,90  Z"/>

<path  fill="#1D9D5A" stroke-width="0" stroke="#1D9D5A" d = " M173 91 L169,93 C170.465,93 173,93.109 173,91  Z"/>

<path  fill="#40A465" stroke-width="0" stroke="#40A465" d = " M259 91 L249,102 C252.586,102 259,94.3088 259,91  Z"/>

<path  fill="#1A7F61" stroke-width="0" stroke="#1A7F61" d = " M119 94 C119,95.8851 124.317,106 126,106 126,101.308 121,97.8415 121,93 121,93 120,93 120,93 120,93 119,94 119,94  Z"/>

<path  fill="#1D9D5A" stroke-width="0" stroke="#1D9D5A" d = " M164 96 L159,97 C159,94.3775 166.828,93 169,93 169,93 164,96 164,96  Z"/>

<path  fill="#1A7F61" stroke-width="0" stroke="#1A7F61" d = " M338 94 C338,95.2939 334.391,101 333,101 333,97.7619 336,95.6998 336,93 336,93 338,94 338,94  Z"/>

<path  fill="#187D61" stroke-width="0" stroke="#187D61" d = " M80 140 L83.5,142 C85.4229,143.923 92.6981,148 95,148 95,144.547 101.962,131 105,131 105,127.408 119.556,113 123,113 123,111.423 124.762,111 126,111 126,111 128,109 128,109 128,109 126,106 126,106 124.317,106 119,95.8851 119,94 119,94 118,94 118,94 114.754,94 111.347,98.5765 108.5,100 90.7583,108.871 90.7384,117.023 83,132.5 81.8334,134.833 80,137.228 80,140  Z"/>

<path  fill="#187D61" stroke-width="0" stroke="#187D61" d = " M377 140 C372.032,140 367.404,148 362,148 362,143.429 345.716,120.608 342.5,119 342.5,119 329,109 329,109 329,107.535 328.891,105 331,105 331,105 333,101 333,101 334.391,101 338,95.2939 338,94 338,94 339,94 339,94 339,94 356.5,105 356.5,105 363.632,108.566 377,133.023 377,140  Z"/>

<path  fill="#C9C9CA" stroke-width="0" stroke="#C9C9CA" d = " M170 95 L169,96 C169,96 170,95 170,95  Z"/>

<path  fill="#C9C9CA" stroke-width="0" stroke="#C9C9CA" d = " M361 148 L361,151 C361,151 355,139.5 355,139.5 350.224,129.948 339.929,117.714 330.5,113 319.199,107.35 306.779,104.639 295.5,99 293.858,98.1789 287,97.6215 287,95 288.564,95 290.876,96 293,96 296.826,96 301.395,101 305,101 311.863,101 323.956,111 328,111 333.63,111 350.962,129.424 353,133.5 353.908,135.315 359.771,148 361,148  Z"/>

<path  fill="#C9C9CA" stroke-width="0" stroke="#C9C9CA" d = " M129 110 L129,111 C132.924,111 155.125,102.187 159.5,100 159.5,100 168,96 168,96 168,96 164,96 164,96 164,96 159,97 159,97 159,98.6384 155.424,99 154,99 154,99 152,101 152,101 148.511,101 146.68,103 143,103 143,105.461 139.622,105 138,105 138,107.109 135.465,107 134,107 134,109.109 131.465,109 130,109 130,109 129,110 129,110  Z"/>

<path  fill="#1D9D5A" stroke-width="0" stroke="#1D9D5A" d = " M159 97 C157.576,97 154,97.3616 154,99 155.424,99 159,98.6384 159,97  Z"/>

<path  fill="#1C8064" stroke-width="0" stroke="#1C8064" d = " M152 101 C148.511,101 146.68,103 143,103 143,103 151,99 151,99 151,99 152,99 152,99 152,99 152,101 152,101  Z"/>

<path  fill="#1D9D5A" stroke-width="0" stroke="#1D9D5A" d = " M154 99 L152,101 C152,101 152,99 152,99 152,99 154,99 154,99  Z"/>

<path  fill="#7ED04B" stroke-width="0" stroke="#7ED04B" d = " M221 106 C221,107.569 235,107.446 235,106 235,106 234,104 234,104 231.953,104 231.832,99 229,99 229,100.399 227,100.399 227,99 227,99 222,104 222,104 222,104 221,106 221,106  Z"/>

<path  fill="#1C8064" stroke-width="0" stroke="#1C8064" d = " M328 109 L328,111 C323.956,111 311.863,101 305,101 305,101 305,99 305,99 311.282,99 322.476,109 328,109  Z"/>

<path  fill="#197E62" stroke-width="0" stroke="#197E62" d = " M90 100 L89,101 C89,101 90,100 90,100  Z"/>

<path  fill="#197E62" stroke-width="0" stroke="#197E62" d = " M367 100 L368,102 C368,102 366,100 366,100 366,100 367,100 367,100  Z"/>

<path  fill="#1B7F62" stroke-width="0" stroke="#1B7F62" d = " M392 131 L387,133 C387,133 379,117.5 379,117.5 378.011,115.521 368,102.248 368,102 368,102 367,100 367,100 374.196,100 376.554,107 383,107 383,113.434 392,123.785 392,131  Z"/>

<path  fill="#AAA8A9" stroke-width="0" stroke="#AAA8A9" d = " M179 109 L178,104.5 C181.43,97.6391 198.22,111 202,111 202,107.06 174,93.6716 174,106 174,106 179,109 179,109  Z"/>

<path  fill="#AAA8A9" stroke-width="0" stroke="#AAA8A9" d = " M279 107 C279,95.6609 257.203,111 254,111 254,107.543 282,93.2123 282,106 282,106 279,107 279,107  Z"/>

<path  fill="#1A7F61" stroke-width="0" stroke="#1A7F61" d = " M333 101 C330.891,101 331,103.535 331,105 331,105 333,101 333,101  Z"/>

<path  fill="#1B7F62" stroke-width="0" stroke="#1B7F62" d = " M69 134 L70,134 C70,124.817 88,106.251 88,102 82.4479,102 80.003,105 75,105 75,105 74,106 74,106 74,106 73,107 73,107 73,114.117 65,122.629 65,131 65,131 69,134 69,134  Z"/>

<path  fill="#1C8064" stroke-width="0" stroke="#1C8064" d = " M143 103 C141.576,103 138,103.362 138,105 139.622,105 143,105.461 143,103  Z"/>

<path  fill="#A8AAAA" stroke-width="0" stroke="#A8AAAA" d = " M191 180 L192,180 C192,180 192,171 192,171 192,169.094 190.901,164.302 190,162.5 187.735,157.969 191,149.382 191,145 191,145 191,144 191,144 191,135.99 193.716,130.068 197,123.5 197,123.5 204,113 204,113 204,113 202,111 202,111 198.22,111 181.43,97.6391 178,104.5 178,104.5 179,109 179,109 179,109 188,127.5 188,127.5 191.826,135.153 189,151.072 189,160 189,166.216 190,172.292 190,178 190,178 191,180 191,180  Z"/>

<path  fill="#CACCC7" stroke-width="0" stroke="#CACCC7" d = " M249 103 L248,104 C248,104 249,103 249,103  Z"/>

<path  fill="#A8AAAA" stroke-width="0" stroke="#A8AAAA" d = " M264 180 L266,180 C266,180 267,177 267,177 267,174.842 266.199,161 268,161 268,150.536 264.15,135.2 269,125.5 271.354,120.792 278,113.327 278,108 278,108 279,107 279,107 279,95.6609 257.203,111 254,111 254,111 253,112 253,112 253,112 252,113 252,113 252,113 255,118.5 255,118.5 258.905,126.31 266,132.66 266,142 266,142 266,147 266,147 266,155.099 265,163.484 265,171 265,174.222 264,177.277 264,180  Z"/>

<path  fill="#1A8062" stroke-width="0" stroke="#1A8062" d = " M75 105 L74,106 C74,106 75,105 75,105  Z"/>

<path  fill="#1C8064" stroke-width="0" stroke="#1C8064" d = " M138 105 L134,107 C135.465,107 138,107.109 138,105  Z"/>

<path  fill="#98D5F9" stroke-width="0" stroke="#98D5F9" d = " M101 223 L109.5,231 L117,235 C129.344,235 141.454,233.523 152.5,228 155.725,226.387 165.715,217 168,217 168,217 169,216 169,216 169,216 170,215 170,215 170,215 171,215 171,215 171,215 172,214 172,214 172,214 173,213 173,213 173,210.872 174.054,207.392 175,205.5 178.039,199.421 173.385,177.729 177,170.5 179.012,166.475 181.716,168.392 184.5,167 186.614,165.943 187.846,160 189,160 189,151.072 191.826,135.153 188,127.5 188,127.5 179,109 179,109 179,109 174,106 174,106 154.857,106 147.556,106.472 130.5,115 126.737,116.882 118.78,119.941 117,123.5 111.724,134.052 102.322,140.857 97,151.5 95.9169,153.666 94.0135,165 91,165 91,166.048 91.4729,168 90,168 90,168 90,169 90,169 90,169 89,170 89,170 89,170 89,173 89,173 89,173 89,186.5 89,186.5 91.0038,190.508 93,197.369 93,202 93,202 93,203 93,203 94.2592,203 97,211.632 97,213 97,213 97,215 97,215 97,215 98,216 98,216 98,216 98,217 98,217 98,217 99,218 99,218 99,218 99,219 99,219 99,219 101,222 101,222 101,222 101,223 101,223  Z"/>

<path  fill="#98D5F9" stroke-width="0" stroke="#98D5F9" d = " M353 226 C348.835,226 344.803,234 340,234 338.302,234 334.11,235.195 332.5,236 330.667,236.917 316.587,232.043 314.5,231 314.5,231 309.5,231 309.5,231 303.939,228.22 298.362,223.431 293.5,221 293.5,221 289,217 289,217 289,217 288,217 288,217 288,217 286,215 286,215 286,215 285,214 285,214 285,214 283,212.5 283,212.5 281.112,208.724 282.906,203.313 281,199.5 277.737,192.974 282.704,176.908 279,169.5 277.029,165.559 274.242,168.371 271.5,167 271.5,167 268,161 268,161 268,150.536 264.15,135.2 269,125.5 271.354,120.792 278,113.327 278,108 278,108 279,107 279,107 279,107 282,106 282,106 285.85,106 294.274,102.887 298.5,105 310.709,111.104 333.808,112.116 341,126.5 341,126.5 345,129.5 345,129.5 345,129.5 359,150.5 359,150.5 359,150.5 362.5,160 362.5,160 362.5,160 367,169 367,169 367,169 367,171 367,171 367,171 367,188.5 367,188.5 365.564,191.372 365,193.466 365,197 363.421,197 364,199.855 364,201 364,201 363,203 363,203 363,203 363,204 363,204 361.005,204 361,208.377 361,210 361,210 360,212 360,212 360,212 360,213 360,213 360,213 359,214 359,214 359,214 359,216 359,216 359,216 358,217 358,217 358,217 358,218 358,218 358,218 357,219 357,219 357,219 357,220 357,220 357,220 356,221 356,221 356,221 355,223 355,223 355,223 354,224 354,224 354,224 354,225 354,225 354,225 353,226 353,226  Z"/>

<path  fill="#1A7E64" stroke-width="0" stroke="#1A7E64" d = " M64 131 L65,131 C65,122.629 73,114.117 73,107 66.6539,107 65.8651,114 60,114 60,114 59,114 59,114 59,114 56,125 56,125 56,125 64,131 64,131  Z"/>

<path  fill="#1C8064" stroke-width="0" stroke="#1C8064" d = " M134 107 C132.535,107 130,106.891 130,109 131.465,109 134,109.109 134,107  Z"/>

<path  fill="#AAA8A9" stroke-width="0" stroke="#AAA8A9" d = " M279 107 L278,108 C278,108 279,107 279,107  Z"/>

<path  fill-rule="evenodd" fill="#1A7E64" stroke-width="0" stroke="#1A7E64" d = " M389 110 C389,111.93 390.93,110 389,110  M392 131 L393,131 C393,129.421 399.722,125 401,125 401,125 401,124 401,124 401,124 397,114 397,114 392.336,114 388.174,107 383,107 383,113.434 392,123.785 392,131  Z"/>

<path  fill="#188064" stroke-width="0" stroke="#188064" d = " M126 111 L129,111 C129,111 129,110 129,110 129,110 129,109 129,109 129,109 128,109 128,109 128,109 126,111 126,111  Z"/>

<path  fill="#1C8064" stroke-width="0" stroke="#1C8064" d = " M130 109 L129,110 C129,110 129,109 129,109 129,109 130,109 130,109  Z"/>

<path  fill="#188064" stroke-width="0" stroke="#188064" d = " M361 148 L362,148 C362,143.429 345.716,120.608 342.5,119 342.5,119 329,109 329,109 329,109 328,109 328,109 328,109 328,111 328,111 333.63,111 350.962,129.424 353,133.5 353.908,135.315 359.771,148 361,148  Z"/>

<path  fill="#1B7F64" stroke-width="0" stroke="#1B7F64" d = " M389 110 C389,111.93 390.93,110 389,110  Z"/>

<path  fill="#188064" stroke-width="0" stroke="#188064" d = " M126 111 C124.762,111 123,111.423 123,113 124.238,113 126,112.577 126,111  Z"/>

<path  fill="#C9C9CA" stroke-width="0" stroke="#C9C9CA" d = " M123 113 L123,115 C124.417,115 129,112.617 129,111 129,111 126,111 126,111 126,112.577 124.238,113 123,113  Z"/>

<path  fill="#AAA8A9" stroke-width="0" stroke="#AAA8A9" d = " M254 111 L253,112 C253,112 254,111 254,111  Z"/>

<path  fill="#90CBEC" stroke-width="0" stroke="#90CBEC" d = " M191 144 L193,144 C193,144 200.5,137 200.5,137 204.018,135.241 222,122.106 222,119 222,119 222,117 222,117 217.889,117 210.814,113 204,113 204,113 197,123.5 197,123.5 193.716,130.068 191,135.99 191,144  Z"/>

<path  fill="#90CBEC" stroke-width="0" stroke="#90CBEC" d = " M266 142 L264,144 C261.137,144 257.551,139.051 255.5,137 251.838,133.338 234,123.575 234,118 234,118 234,117 234,117 238.383,117 245.497,113 252,113 252,113 255,118.5 255,118.5 258.905,126.31 266,132.66 266,142  Z"/>

<path  fill="#188064" stroke-width="0" stroke="#188064" d = " M115 121 L105,131 C105,127.408 119.556,113 123,113 123,113 123,115 123,115 121.762,115 120,115.423 120,117 120,117 119,118 119,118 117.571,118 115,119.288 115,121  Z"/>

<path  fill="#187E61" stroke-width="0" stroke="#187E61" d = " M55 125 L56,125 C56,125 59,114 59,114 56.4622,114 55.0472,117 52,117 52,117 51,121 51,121 51,121 55,125 55,125  Z"/>

<path  fill="#187E61" stroke-width="0" stroke="#187E61" d = " M406 121 C404.053,121 403.364,124 401,124 401,124 397,114 397,114 397,114 404,117 404,117 404,117 406,121 406,121  Z"/>

<path  fill="#C9C9CA" stroke-width="0" stroke="#C9C9CA" d = " M123 115 C121.762,115 120,115.423 120,117 121.238,117 123,116.577 123,115  Z"/>

<path  fill="#C9C9CA" stroke-width="0" stroke="#C9C9CA" d = " M120 117 L119,118 C119,118 120,117 120,117  Z"/>

<path  fill="#97D6F9" stroke-width="0" stroke="#97D6F9" d = " M234 118 L229.5,118 L228.5,120 L226.5,118 L222,119 C222,119 222,117 222,117 222,117 234,117 234,117 234,117 234,118 234,118  Z"/>

<path  fill="#C9C9CA" stroke-width="0" stroke="#C9C9CA" d = " M119 118 C117.571,118 115,119.288 115,121 116.429,121 119,119.712 119,118  Z"/>

<path  fill="#90CAED" stroke-width="0" stroke="#90CAED" d = " M265 171 C263.209,171 262.041,167.73 259.5,169 L251,172 C251,167.272 249.041,160.582 247,156.5 246.441,155.381 246.845,152 245,152 245,152 245,151 245,151 245,151 244,150 244,150 244,150 242,146 242,146 242,146 233,134.5 233,134.5 233,134.5 229,128.5 229,128.5 229,128.5 228.5,125 228.5,125 228.5,125 225,132.5 225,132.5 225,132.5 215,145 215,145 215,145 212,151 212,151 212,151 209,155.5 209,155.5 207.979,157.542 205,169.846 205,172 205,172 197.5,169 197.5,169 194.959,167.73 193.791,171 192,171 192,169.094 190.901,164.302 190,162.5 187.735,157.969 191,149.382 191,145 191,145 193,144 193,144 193,144 200.5,137 200.5,137 204.018,135.241 222,122.106 222,119 222,119 226.5,118 226.5,118 226.5,118 228.5,120 228.5,120 228.5,120 229.5,118 229.5,118 229.5,118 234,118 234,118 234,123.575 251.838,133.338 255.5,137 257.551,139.051 261.137,144 264,144 264,144 266,147 266,147 266,155.099 265,163.484 265,171  Z"/>

<path  fill="#1A7E62" stroke-width="0" stroke="#1A7E62" d = " M41 177 L46,177 C46,168.797 44.2352,151.03 48,143.5 50.3336,138.833 55,130.27 55,125 55,125 51,121 51,121 49.0934,121 46.8875,131.725 46,133.5 39.7877,145.925 41,162.032 41,177  Z"/>

<path  fill="#C9C9CA" stroke-width="0" stroke="#C9C9CA" d = " M105 131 L99,143 C99,143 103,138.5 103,138.5 104.704,135.092 115,123.409 115,121 115,121 105,131 105,131  Z"/>

<path  fill="#1A7E62" stroke-width="0" stroke="#1A7E62" d = " M411 177 L415,177 C415,167.628 417.087,146.674 413,138.5 410.891,134.282 406,125.638 406,121 404.053,121 403.364,124 401,124 401,124 401,125 401,125 401,125 409,145.5 409,145.5 411.635,150.771 411,169.767 411,177  Z"/>

<path  fill="#1B8063" stroke-width="0" stroke="#1B8063" d = " M55 176 C51.9867,176 48.3885,177 46,177 46,168.797 44.2352,151.03 48,143.5 50.3336,138.833 55,130.27 55,125 55,125 56,125 56,125 56,125 64,131 64,131 64,134.551 60.5894,140.321 59,143.5 55.0944,151.311 55,165.359 55,175 55,175 55,176 55,176  Z"/>

<path  fill-rule="evenodd" fill="#8FCBEC" stroke-width="0" stroke="#8FCBEC" d = " M240 162 C240,163.911 238,166.611 238,169.5 238,189.579 261.756,162 240,162  M211 162 C211,163.912 208,166.186 208,168.5 208,189.907 231.164,162 211,162  M214 190 L218.5,194 C221.106,195.303 222.979,191 225,191 225,191 226,189 226,189 226,189 227,187 227,187 227,187 227,186 227,186 227,182.847 229,180.653 229,185 229,185 229,186 229,186 229,186 235.5,194 235.5,194 238.655,195.578 239.741,191 242,191 242,183.16 251,173.746 251,172 251,167.272 249.041,160.582 247,156.5 246.441,155.381 246.845,152 245,152 245,152 245,156 245,156 245,169.066 232.491,147.504 237.5,145 237.5,145 242,146 242,146 242,146 233,134.5 233,134.5 233,134.5 229,128.5 229,128.5 229,128.5 228.5,125 228.5,125 228.5,125 225,132.5 225,132.5 225,132.5 215,145 215,145 225.971,145 215.517,165.533 211,156.5 211,156.5 212,151 212,151 212,151 209,155.5 209,155.5 207.979,157.542 205,169.846 205,172 205,173.58 214,181.908 214,190  Z"/>

<path  fill="#1B8063" stroke-width="0" stroke="#1B8063" d = " M410 177 L411,177 C411,169.767 411.635,150.771 409,145.5 409,145.5 401,125 401,125 399.722,125 393,129.421 393,131 393,136.571 396.58,144.661 399,149.5 402.311,156.121 401,167.092 401,175 401,175 401,176 401,176 404.013,176 407.611,177 410,177  Z"/>

<path  fill="#187C63" stroke-width="0" stroke="#187C63" d = " M55 175 L60,175 C60,168.907 62.5859,150.328 65,145.5 66.6629,142.174 69,137.908 69,134 69,134 65,131 65,131 65,131 64,131 64,131 64,134.551 60.5894,140.321 59,143.5 55.0944,151.311 55,165.359 55,175  Z"/>

<path  fill="#188064" stroke-width="0" stroke="#188064" d = " M95 148 L95,149 C95,149 97,147 97,147 97,147 99,143 99,143 99,143 105,131 105,131 101.962,131 95,144.547 95,148  Z"/>

<path  fill="#187C63" stroke-width="0" stroke="#187C63" d = " M396 175 L401,175 C401,167.092 402.311,156.121 399,149.5 396.58,144.661 393,136.571 393,131 393,131 392,131 392,131 392,131 387,133 387,133 387,133 387,135 387,135 387,135 391,144.5 391,144.5 394.991,152.482 396,165.55 396,175  Z"/>

<path  fill="#1C8063" stroke-width="0" stroke="#1C8063" d = " M60 175 L73,175 C73,167.96 72.0594,158.381 75,152.5 76.7657,148.969 79,144.154 79,140 79,137.254 70,137.4 70,134 70,134 69,134 69,134 69,137.908 66.6629,142.174 65,145.5 62.5859,150.328 60,168.907 60,175  Z"/>

<path  fill="#1C8063" stroke-width="0" stroke="#1C8063" d = " M383 175 L396,175 C396,165.55 394.991,152.482 391,144.5 391,144.5 387,135 387,135 387,135 377,140 377,140 377,140 383,158.5 383,158.5 383,158.5 383,175 383,175  Z"/>

<path  fill="#197D63" stroke-width="0" stroke="#197D63" d = " M73 175 C76.8637,175 81.2086,175 86,175 86,173.073 89.3512,161 91,161 91,159.142 93.1878,149 95,149 95,149 95,148 95,148 92.6981,148 85.4229,143.923 83.5,142 83.5,142 80,140 80,140 80,140 79,140 79,140 79,144.154 76.7657,148.969 75,152.5 72.0594,158.381 73,167.96 73,175  Z"/>

<path  fill="#197D63" stroke-width="0" stroke="#197D63" d = " M370 175 C374.791,175 379.136,175 383,175 383,175 383,158.5 383,158.5 383,158.5 377,140 377,140 372.032,140 367.404,148 362,148 362,157.24 370,165.469 370,175  Z"/>

<path  fill="#97D6F9" stroke-width="0" stroke="#97D6F9" d = " M264 144 L266,147 C266,147 266,142 266,142 266,142 264,144 264,144  Z"/>

<path  fill="#C9C9CA" stroke-width="0" stroke="#C9C9CA" d = " M99 143 L97,147 C99.109,147 99,144.465 99,143  Z"/>

<path  fill="#97D6F9" stroke-width="0" stroke="#97D6F9" d = " M193 144 L191,145 C191,145 191,144 191,144 191,144 193,144 193,144  Z"/>

<path  fill="#CBC8CB" stroke-width="0" stroke="#CBC8CB" d = " M215 145 C225.971,145 215.517,165.533 211,156.5 L212,151 C212,151 215,145 215,145  Z"/>

<path  fill="#CBC8CB" stroke-width="0" stroke="#CBC8CB" d = " M245 151 L245,152 C245,152 245,156 245,156 245,169.066 232.491,147.504 237.5,145 237.5,145 242,146 242,146 242,146 244,150 244,150 244,150 245,151 245,151  Z"/>

<path  fill="#C9C9CA" stroke-width="0" stroke="#C9C9CA" d = " M95 149 L95,152 C96.6384,152 97,148.424 97,147 97,147 95,149 95,149  Z"/>

<path  fill="#1A8061" stroke-width="0" stroke="#1A8061" d = " M369 175 L370,175 C370,165.469 362,157.24 362,148 362,148 361,148 361,148 361,148 361,151 361,151 361,151 361,152 361,152 361,152 362,154 362,154 362,154 362,155 362,155 362,155 363,156 363,156 363,160.728 367,164.359 367,169 367,169 367,171 367,171 367,171 369,175 369,175  Z"/>

<path  fill="#1A8061" stroke-width="0" stroke="#1A8061" d = " M91 161 L92,161 C92,161 94,155 94,155 94,155 95,153 95,153 95,153 95,152 95,152 95,152 95,149 95,149 93.1878,149 91,159.142 91,161  Z"/>

<path  fill="#8FCBEC" stroke-width="0" stroke="#8FCBEC" d = " M244 150 L245,151 C245,151 244,150 244,150  Z"/>

<path  fill="#C9C9CA" stroke-width="0" stroke="#C9C9CA" d = " M361 152 L362,154 C362,154 361,152 361,152  Z"/>

<path  fill="#C9C9CA" stroke-width="0" stroke="#C9C9CA" d = " M95 153 L94,155 C94,155 95,153 95,153  Z"/>

<path  fill="#C9C9CA" stroke-width="0" stroke="#C9C9CA" d = " M362 155 L363,156 C363,156 362,155 362,155  Z"/>

<path  fill="#97D6F9" stroke-width="0" stroke="#97D6F9" d = " M173 213 L175,213 C175,213 177,199 177,199 177,194.732 180,176.925 180,182 180,182 183,179 183,179 183,179 184,178 184,178 184,171.679 189.808,178 190,178 190,172.292 189,166.216 189,160 187.846,160 186.614,165.943 184.5,167 181.716,168.392 179.012,166.475 177,170.5 173.385,177.729 178.039,199.421 175,205.5 174.054,207.392 173,210.872 173,213  Z"/>

<path  fill="#1A8061" stroke-width="0" stroke="#1A8061" d = " M86 175 L88,175 C88,175 89,173 89,173 89,173 89,170 89,170 89,170 89,169 89,169 89,169 90,168 90,168 90,166.952 89.5271,165 91,165 91,165 91,162 91,162 91,162 91,161 91,161 89.3512,161 86,173.073 86,175  Z"/>

<path  fill="#C9C9CA" stroke-width="0" stroke="#C9C9CA" d = " M92 161 L91,162 C91,162 91,161 91,161 91,161 92,161 92,161  Z"/>

<path  fill="#97D6F9" stroke-width="0" stroke="#97D6F9" d = " M282 213 L285,214 C285,214 283,212.5 283,212.5 281.112,208.724 282.906,203.313 281,199.5 277.737,192.974 282.704,176.908 279,169.5 277.029,165.559 274.242,168.371 271.5,167 271.5,167 268,161 268,161 266.199,161 267,174.842 267,177 267.903,177 273,173.539 273,178 273,178 277,183 277,183 277,178.62 279,194.168 279,198 279,198 279,199 279,199 279,199 280,200 280,200 280,203.991 282,209.158 282,213  Z"/>

<path  fill="#C7C8CA" stroke-width="0" stroke="#C7C8CA" d = " M211 162 C211,163.912 208,166.186 208,168.5 208,189.907 231.164,162 211,162  Z"/>

<path  fill="#C7C8CA" stroke-width="0" stroke="#C7C8CA" d = " M240 162 C240,163.911 238,166.611 238,169.5 238,189.579 261.756,162 240,162  Z"/>

<path  fill="#C9C7C9" stroke-width="0" stroke="#C9C7C9" d = " M91 165 C89.5271,165 90,166.952 90,168 91.4729,168 91,166.048 91,165  Z"/>

<path  fill="#C9C7C9" stroke-width="0" stroke="#C9C7C9" d = " M89 169 L90,169 C90,169 90,168 90,168 90,168 89,169 89,169  Z"/>

<path  fill="#C8CBCC" stroke-width="0" stroke="#C8CBCC" d = " M90 169 L89,170 C89,170 89,169 89,169 89,169 90,169 90,169  Z"/>

<path  fill="#8FCBED" stroke-width="0" stroke="#8FCBED" d = " M201 192 L201,193 C203.984,193 214,197.588 214,190 214,181.908 205,173.58 205,172 205,172 197.5,169 197.5,169 194.959,167.73 193.791,171 192,171 192,171 192,180 192,180 192,180 195,185 195,185 195,185 197,188 197,188 197,188 201,192 201,192  Z"/>

<path  fill="#8FCBED" stroke-width="0" stroke="#8FCBED" d = " M255 193 L254,194 C251.017,194 248.448,195.474 245.5,194 245.5,194 242,191 242,191 242,183.16 251,173.746 251,172 251,172 259.5,169 259.5,169 262.041,167.73 263.209,171 265,171 265,174.222 264,177.277 264,180 264,180 263,183 263,183 263,183 262,185 262,185 262,185 261,186 261,186 261,186 260,187 260,187 260,187 259,188 259,188 259,188 258,189 258,189 258,189 257,191 257,191 257,191 256,192 256,192 256,192 255,193 255,193  Z"/>

<path  fill="#C8CBCC" stroke-width="0" stroke="#C8CBCC" d = " M367 192 C367,193.424 366.638,197 365,197 365,193.466 365.564,191.372 367,188.5 367,188.5 367,171 367,171 367,171 369,175 369,175 369,175 369,176 369,176 369,176 369,187 369,187 369,187 369,188 369,188 367.527,188 368,189.952 368,191 368,191 367,192 367,192  Z"/>

<path  fill="#C8CBCC" stroke-width="0" stroke="#C8CBCC" d = " M92 202 L93,202 C93,197.369 91.0038,190.508 89,186.5 89,186.5 89,173 89,173 89,173 88,175 88,175 88,175 88,176 88,176 88,181.039 89,186.575 89,191 89,191 89,193 89,193 89,193 90,194 90,194 90,194 90,195 90,195 90,195 91,196 91,196 91,196 91,199 91,199 91,199 92,201 92,201 92,201 92,202 92,202  Z"/>

<path  fill="#11AC83" stroke-width="0" stroke="#11AC83" d = " M86 176 L73,178 C73,178 73,175 73,175 76.8637,175 81.2086,175 86,175 86,175 86,176 86,176  Z"/>

<path  fill="#11AC83" stroke-width="0" stroke="#11AC83" d = " M370 176 C374.351,176 379.798,178 383,178 383,178 383,175 383,175 379.136,175 374.791,175 370,175 370,175 370,176 370,176  Z"/>

<path  fill="#11AC82" stroke-width="0" stroke="#11AC82" d = " M55 183 L56,183 C56,183 60,182 60,182 60,182 60,181 60,181 60,181 60,175 60,175 60,175 55,175 55,175 55,175 55,176 55,176 55,176 55,183 55,183  Z"/>

<path  fill="#12AD82" stroke-width="0" stroke="#12AD82" d = " M73 178 C68.4779,178 64.7981,181 60,181 60,181 60,175 60,175 60,175 73,175 73,175 73,175 73,178 73,178  Z"/>

<path  fill="#11AD82" stroke-width="0" stroke="#11AD82" d = " M86 176 L88,176 C88,176 88,175 88,175 88,175 86,175 86,175 86,175 86,176 86,176  Z"/>

<path  fill="#B3C0DE" stroke-width="0" stroke="#B3C0DE" d = " M199 205 C196.271,205 186.017,212 179,212 179,200.029 183,190.264 183,179 183,179 184,178 184,178 184,171.679 189.808,178 190,178 190,178 191,180 191,180 191,181.562 193.189,185 195,185 195,185 197,188 197,188 197,188 201,192 201,192 201,192 201,193 201,193 201,196.115 205,198.701 205,203 205,203 199,205 199,205  Z"/>

<path  fill="#B3C0DE" stroke-width="0" stroke="#B3C0DE" d = " M257 205 C259.293,205 270.253,212 277,212 277,200.775 273,189.362 273,178 273,173.539 267.903,177 267,177 267,177 266,180 266,180 266,180 263,183 263,183 263,183 262,185 262,185 262,185 261,186 261,186 261,186 260,187 260,187 260,187 259,188 259,188 259,188 258,189 258,189 258,189 257,191 257,191 257,191 256,192 256,192 256,192 255,193 255,193 255,193 254,194 254,194 254,196.933 251,199.321 251,203 253.483,203 255.026,205 257,205  Z"/>

<path  fill="#11AD82" stroke-width="0" stroke="#11AD82" d = " M369 176 L370,176 C370,176 370,175 370,175 370,175 369,175 369,175 369,175 369,176 369,176  Z"/>

<path  fill="#12AD82" stroke-width="0" stroke="#12AD82" d = " M383 178 C387.522,178 391.202,181 396,181 396,181 396,175 396,175 396,175 383,175 383,175 383,175 383,178 383,178  Z"/>

<path  fill="#11AC82" stroke-width="0" stroke="#11AC82" d = " M396 182 L401,183 C401,183 401,176 401,176 401,176 401,175 401,175 401,175 396,175 396,175 396,175 396,181 396,181 396,181 396,182 396,182  Z"/>

<path  fill="#12AC83" stroke-width="0" stroke="#12AC83" d = " M55 183 C52.8201,183 49.8116,186 48,186 48,186 46,177 46,177 48.3885,177 51.9867,176 55,176 55,176 55,183 55,183  Z"/>

<path  fill="#009B74" stroke-width="0" stroke="#009B74" d = " M83 193 L76,194 C76,188.783 73,183.843 73,178 73,178 86,176 86,176 86,180.537 88,186.578 88,191 84.9592,191 85.5227,193 83,193  Z"/>

<path  fill="#019C74" stroke-width="0" stroke="#019C74" d = " M88 191 L89,191 C89,186.575 88,181.039 88,176 88,176 86,176 86,176 86,180.537 88,186.578 88,191  Z"/>

<path  fill="#019C74" stroke-width="0" stroke="#019C74" d = " M370 176 C370,177.741 370.773,187 369,187 369,187 369,176 369,176 369,176 370,176 370,176  Z"/>

<path  fill="#009B74" stroke-width="0" stroke="#009B74" d = " M380 194 L381,194 C381,188.526 383,184.041 383,178 379.798,178 374.351,176 370,176 370,177.741 370.773,187 369,187 369,187 369,188 369,188 369,188 369,191 369,191 369,191 373,193 373,193 373,193 380,194 380,194  Z"/>

<path  fill="#12AC83" stroke-width="0" stroke="#12AC83" d = " M408 186 L409,186 C409,186 410,177 410,177 407.611,177 404.013,176 401,176 401,176 401,183 401,183 403.607,183 405.913,186 408,186  Z"/>

<path  fill="#12AD83" stroke-width="0" stroke="#12AD83" d = " M48 186 L44,188 C44,188 41,177 41,177 41,177 46,177 46,177 46,177 48,186 48,186  Z"/>

<path  fill="#12AD83" stroke-width="0" stroke="#12AD83" d = " M409 186 L412,188 C413.795,188 415,178.9 415,177 415,177 411,177 411,177 411,177 410,177 410,177 410,177 409,186 409,186  Z"/>

<path  fill="#019C75" stroke-width="0" stroke="#019C75" d = " M63 197 L64,197 C64,195.397 74.3707,194 76,194 76,188.783 73,183.843 73,178 68.4779,178 64.7981,181 60,181 60,181 60,182 60,182 60,182 63,197 63,197  Z"/>

<path  fill="#8599CC" stroke-width="0" stroke="#8599CC" d = " M184 178 L183,179 C183,179 184,178 184,178  Z"/>

<path  fill="#8599CC" stroke-width="0" stroke="#8599CC" d = " M277 212 L282,213 C282,209.158 280,203.991 280,200 280,200 279,199 279,199 279,199 279,198 279,198 275.297,198 277,184.709 277,183 277,183 273,178 273,178 273,189.362 277,200.775 277,212  Z"/>

<path  fill="#019C75" stroke-width="0" stroke="#019C75" d = " M381 194 L393,196 C393,191.683 396,187.051 396,182 396,182 396,181 396,181 391.202,181 387.522,178 383,178 383,184.041 381,188.526 381,194  Z"/>

<path  fill="#8599CC" stroke-width="0" stroke="#8599CC" d = " M179 212 L175,213 C175,213 177,199 177,199 180.354,199 180,184.984 180,182 180,182 183,179 183,179 183,190.264 179,200.029 179,212  Z"/>

<path  fill="#CCCCCC" stroke-width="0" stroke="#CCCCCC" d = " M180 182 C180,184.984 180.354,199 177,199 177,194.732 180,176.925 180,182  Z"/>

<path  fill="#97D6F9" stroke-width="0" stroke="#97D6F9" d = " M192 180 L195,185 C193.189,185 191,181.562 191,180 191,180 192,180 192,180  Z"/>

<path  fill="#97D6F9" stroke-width="0" stroke="#97D6F9" d = " M266 180 L263,183 C263,183 264,180 264,180 264,180 266,180 266,180  Z"/>

<path  fill="#CCCCCC" stroke-width="0" stroke="#CCCCCC" d = " M277 183 C277,184.709 275.297,198 279,198 279,194.168 277,178.62 277,183  Z"/>

<path  fill="#009C74" stroke-width="0" stroke="#009C74" d = " M61 197 L63,197 C63,197 60,182 60,182 60,182 56,183 56,183 56,188.341 61,194.117 61,197  Z"/>

<path  fill="#97D6F9" stroke-width="0" stroke="#97D6F9" d = " M229 185 L227,186 C227,182.847 229,180.653 229,185  Z"/>

<path  fill="#009C74" stroke-width="0" stroke="#009C74" d = " M393 197 L395,197 C395,194.355 401,187.863 401,183 401,183 396,182 396,182 396,187.051 393,191.683 393,196 393,196 393,197 393,197  Z"/>

<path  fill="#009B75" stroke-width="0" stroke="#009B75" d = " M61 197 C57.9087,197 55.5219,199 53,199 53,199 48,186 48,186 49.8116,186 52.8201,183 55,183 55,183 56,183 56,183 56,188.341 61,194.117 61,197  Z"/>

<path  fill="#97D6F9" stroke-width="0" stroke="#97D6F9" d = " M263 183 L262,185 C262,185 263,183 263,183  Z"/>

<path  fill="#009B75" stroke-width="0" stroke="#009B75" d = " M403 199 L404,199 C404,194.351 408,190.871 408,186 405.913,186 403.607,183 401,183 401,187.863 395,194.355 395,197 398.091,197 400.478,199 403,199  Z"/>

<path  fill="#FF5445" stroke-width="0" stroke="#FF5445" d = " M224 196 C224,202.431 231.069,197 233,197 233,197 229,186 229,186 229,186 229,185 229,185 229,185 227,186 227,186 227,186 227,187 227,187 227,187 226,189 226,189 226,189 225,191 225,191 225,191 224,196 224,196  Z"/>

<path  fill="#009C75" stroke-width="0" stroke="#009C75" d = " M53 199 L49,200 C47.9586,200 44,189.579 44,188 44,188 48,186 48,186 48,186 53,199 53,199  Z"/>

<path  fill="#97D6F9" stroke-width="0" stroke="#97D6F9" d = " M241 203 L251,203 C251,199.321 254,196.933 254,194 251.017,194 248.448,195.474 245.5,194 245.5,194 242,191 242,191 239.741,191 238.655,195.578 235.5,194 235.5,194 229,186 229,186 229,186 233,197 233,197 233,201.003 241,200.615 241,203  Z"/>

<path  fill="#97D6F9" stroke-width="0" stroke="#97D6F9" d = " M261 186 L260,187 C260,187 261,186 261,186  Z"/>

<path  fill="#009C75" stroke-width="0" stroke="#009C75" d = " M404 199 L408,200 C408,195.761 412,192.624 412,188 412,188 409,186 409,186 409,186 408,186 408,186 408,190.871 404,194.351 404,199  Z"/>

<path  fill="#97D6F9" stroke-width="0" stroke="#97D6F9" d = " M227 187 L226,189 C226,189 227,187 227,187  Z"/>

<path  fill="#97D6F9" stroke-width="0" stroke="#97D6F9" d = " M197 188 L201,192 C201,192 197,188 197,188  Z"/>

<path  fill="#97D6F9" stroke-width="0" stroke="#97D6F9" d = " M259 188 L258,189 C258,189 259,188 259,188  Z"/>

<path  fill="#019C74" stroke-width="0" stroke="#019C74" d = " M368 191 L369,191 C369,191 369,188 369,188 367.527,188 368,189.952 368,191  Z"/>

<path  fill="#97D6F9" stroke-width="0" stroke="#97D6F9" d = " M226 189 L225,191 C225,191 226,189 226,189  Z"/>

<path  fill="#97D6F9" stroke-width="0" stroke="#97D6F9" d = " M258 189 L257,191 C257,191 258,189 258,189  Z"/>

<path  fill="#97D6F9" stroke-width="0" stroke="#97D6F9" d = " M205 203 L215,203 C215,201.41 219.386,201.557 220.5,201 220.5,201 224,196 224,196 224,196 225,191 225,191 222.979,191 221.106,195.303 218.5,194 218.5,194 214,190 214,190 214,197.588 203.984,193 201,193 201,196.115 205,198.701 205,203  Z"/>

<path  fill="#8ADA86" stroke-width="0" stroke="#8ADA86" d = " M92 208 L88,209 C82.3084,209 83,197.395 83,193 85.5227,193 84.9592,191 88,191 88,191 89,191 89,191 89,191 89,193 89,193 89,193 90,194 90,194 90,194 90,195 90,195 90,195 91,196 91,196 91,196 91,199 91,199 91,199 92,201 92,201 92,201 92,202 92,202 92,202 93,204 93,204 93,204 93,207 93,207 93,207 92,208 92,208  Z"/>

<path  fill="#97D6F9" stroke-width="0" stroke="#97D6F9" d = " M257 191 L256,192 C256,192 257,191 257,191  Z"/>

<path  fill="#009B74" stroke-width="0" stroke="#009B74" d = " M368 191 L367,192 C367,192 368,191 368,191  Z"/>

<path  fill="#8ADA86" stroke-width="0" stroke="#8ADA86" d = " M364 208 L368,209 C374.37,209 373,198.151 373,193 373,193 369,191 369,191 369,191 368,191 368,191 368,191 367,192 367,192 367,193.424 366.638,197 365,197 365,197 365,201 365,201 365,201 364,202 364,202 364,202 364,203 364,203 364,203 364,208 364,208  Z"/>

<path  fill="#97D6F9" stroke-width="0" stroke="#97D6F9" d = " M256 192 L255,193 C255,193 256,192 256,192  Z"/>

<path  fill="#209766" stroke-width="0" stroke="#209766" d = " M86 212 L83,213 C83,206.092 76,200.7 76,194 76,194 83,193 83,193 83,197.395 82.3084,209 88,209 88,209 86,212 86,212  Z"/>

<path  fill="#209766" stroke-width="0" stroke="#209766" d = " M89 193 L90,194 C90,194 89,193 89,193  Z"/>

<path  fill="#97D6F9" stroke-width="0" stroke="#97D6F9" d = " M255 193 L254,194 C254,194 255,193 255,193  Z"/>

<path  fill="#209766" stroke-width="0" stroke="#209766" d = " M370 212 L373,213 C373,206.303 380,200.931 380,194 380,194 373,193 373,193 373,198.151 374.37,209 368,209 368,209 370,212 370,212  Z"/>

<path  fill="#219864" stroke-width="0" stroke="#219864" d = " M77 215 L81,215 C81,215 83,213 83,213 83,206.092 76,200.7 76,194 74.3707,194 64,195.397 64,197 64,201.56 72.9556,215 77,215  Z"/>

<path  fill="#219864" stroke-width="0" stroke="#219864" d = " M375 215 L380,216 C380,216 388,206.5 388,206.5 388,206.5 393,197 393,197 393,197 393,196 393,196 393,196 381,194 381,194 381,194 380,194 380,194 380,200.931 373,206.303 373,213 373,213 375,215 375,215  Z"/>

<path  fill="#209766" stroke-width="0" stroke="#209766" d = " M90 195 L91,196 C91,196 90,195 90,195  Z"/>

<path  fill="#CAC7CB" stroke-width="0" stroke="#CAC7CB" d = " M215 203 L241,203 C241,200.615 233,201.003 233,197 231.069,197 224,202.431 224,196 224,196 220.5,201 220.5,201 219.386,201.557 215,201.41 215,203  Z"/>

<path  fill="#209865" stroke-width="0" stroke="#209865" d = " M77 215 L67,220 C67,220 63,216.5 63,216.5 63,216.5 53,199 53,199 55.5219,199 57.9087,197 61,197 61,197 63,197 63,197 63,197 64,197 64,197 64,201.56 72.9556,215 77,215  Z"/>

<path  fill="#C8CBCC" stroke-width="0" stroke="#C8CBCC" d = " M364 201 L365,201 C365,201 365,197 365,197 363.421,197 364,199.855 364,201  Z"/>

<path  fill="#209865" stroke-width="0" stroke="#209865" d = " M380 216 L390,220 C390,218.097 403,204.194 403,199 400.478,199 398.091,197 395,197 395,197 393,197 393,197 393,197 388,206.5 388,206.5 388,206.5 380,216 380,216  Z"/>

<path  fill="#219765" stroke-width="0" stroke="#219765" d = " M67 220 C65.9243,220 62,221.523 62,223 60.9187,223 49,202.568 49,200 49,200 53,199 53,199 53,199 63,216.5 63,216.5 63,216.5 67,220 67,220  Z"/>

<path  fill="#209766" stroke-width="0" stroke="#209766" d = " M91 199 L92,201 C92,201 91,199 91,199  Z"/>

<path  fill="#CCCCCC" stroke-width="0" stroke="#CCCCCC" d = " M279 199 L280,200 C280,200 279,199 279,199  Z"/>

<path  fill="#219765" stroke-width="0" stroke="#219765" d = " M390 220 L395,222 C396.988,222 397.408,218.685 398,217.5 400.524,212.452 408,205.741 408,200 408,200 404,199 404,199 404,199 403,199 403,199 403,204.194 390,218.097 390,220  Z"/>

<path  fill="#C8CBCC" stroke-width="0" stroke="#C8CBCC" d = " M363 203 L364,203 C364,203 364,202 364,202 364,202 364,201 364,201 364,201 363,203 363,203  Z"/>

<path  fill="#209766" stroke-width="0" stroke="#209766" d = " M365 201 L364,202 C364,202 364,201 364,201 364,201 365,201 365,201  Z"/>

<path  fill="#209766" stroke-width="0" stroke="#209766" d = " M93 203 L93,204 C93,204 92,202 92,202 92,202 93,202 93,202 93,202 93,203 93,203  Z"/>

<path  fill="#C8CBCC" stroke-width="0" stroke="#C8CBCC" d = " M94 209 L97,213 C97,211.632 94.2592,203 93,203 93,203 93,204 93,204 93,204 93,207 93,207 93,207 93,208 93,208 93,208 94,209 94,209  Z"/>

<path  fill="#CBCBC7" stroke-width="0" stroke="#CBCBC7" d = " M239 218 L247,218 C247,216.727 257,209.819 257,205 255.026,205 253.483,203 251,203 251,203 241,203 241,203 241,203 215,203 215,203 215,203 205,203 205,203 205,203 199,205 199,205 199,209.869 205.32,213.14 207,216.5 207,216.5 210,218 210,218 210,218 218,218 218,218 218,216.357 221.765,217 223,217 227.499,217 230.354,217 235,217 236.145,217 239,216.421 239,218  Z"/>

<path  fill="#209766" stroke-width="0" stroke="#209766" d = " M363 208 L364,208 C364,208 364,203 364,203 364,203 363,203 363,203 363,203 363,204 363,204 363,204 363,208 363,208  Z"/>

<path  fill="#C8CBCC" stroke-width="0" stroke="#C8CBCC" d = " M363 208 L361,210 C361,208.377 361.005,204 363,204 363,204 363,208 363,208  Z"/>

<path  fill="#C9C9C9" stroke-width="0" stroke="#C9C9C9" d = " M166 225 L167,225 C167,223.337 172.407,223 174,223 174,221.986 177.959,221 179,221 179,221 185.5,219 185.5,219 185.5,219 209,218 209,218 209,218 210,218 210,218 210,218 207,216.5 207,216.5 205.32,213.14 199,209.869 199,205 196.271,205 186.017,212 179,212 179,212 175,213 175,213 175,213 173,213 173,213 173,213 172,214 172,214 172,214 171,215 171,215 171,215 170,215 170,215 170,215 169,216 169,216 169,216 168,217 168,217 168,217 161,224.5 161,224.5 160.294,225.911 162.598,226.451 163.5,226 163.5,226 166,225 166,225  Z"/>

<path  fill="#C9C9C9" stroke-width="0" stroke="#C9C9C9" d = " M289 225 L290,225 C290,225 292.5,226 292.5,226 294.109,226.805 295.805,225.109 295,223.5 293.834,221.169 289,220.866 289,217 289,217 288,217 288,217 288,217 286,215 286,215 286,215 285,214 285,214 285,214 282,213 282,213 282,213 277,212 277,212 270.253,212 259.293,205 257,205 257,209.819 247,216.727 247,218 247,218 271.5,219 271.5,219 271.5,219 278,221 278,221 278,221 282,223 282,223 283.774,223 289,222.727 289,225  Z"/>

<path  fill="#209766" stroke-width="0" stroke="#209766" d = " M92 208 L93,208 C93,208 93,207 93,207 93,207 92,208 92,208  Z"/>

<path  fill="#A0EE9C" stroke-width="0" stroke="#A0EE9C" d = " M99 231 L103,231 C103,231 104,228 104,228 104,228 101,223 101,223 101,223 101,222 101,222 99.4226,222 99,220.238 99,219 99,219 99,218 99,218 99,218 98,217 98,217 98,217 98,216 98,216 98,216 97,215 97,215 97,215 97,213 97,213 97,213 94,209 94,209 94,209 93,208 93,208 93,208 92,208 92,208 92,208 88,209 88,209 88,209 86,212 86,212 86,214.707 87,217.903 87,220 87,220 87,221 87,221 87,221 88,222 88,222 88,222 89,224 89,224 89,224 94,229 94,229 94,229 95,229 95,229 95,229 96,230 96,230 96,230 97,230 97,230 97,230 98,231 98,231 98,231 99,231 99,231  Z"/>

<path  fill="#8AD987" stroke-width="0" stroke="#8AD987" d = " M93 208 L94,209 C94,209 93,208 93,208  Z"/>

<path  fill="#A0EE9C" stroke-width="0" stroke="#A0EE9C" d = " M358 231 L359,231 C359,231 360,230 360,230 360,230 361,229 361,229 361,229 362,229 362,229 362,229 363,228 363,228 363,228 364,227 364,227 364,227 365,226 365,226 365,226 366,225 366,225 366,225 367,224 367,224 367,224 368,223 368,223 368,223 369,222 369,222 369,222 369,221 369,221 369,221 370,220 370,220 370,220 371,218 371,218 371,215.876 370,213.564 370,212 370,212 368,209 368,209 368,209 364,208 364,208 364,208 363,208 363,208 363,208 361,210 361,210 361,210 360,212 360,212 360,212 360,213 360,213 360,213 359,214 359,214 359,214 359,216 359,216 359,216 358,217 358,217 358,217 358,218 358,218 358,218 357,219 357,219 357,219 357,220 357,220 357,220 356,221 356,221 356,221 355,223 355,223 355,223 354,224 354,224 354,224 354,225 354,225 354,225 353,226 353,226 353,226 353,228 353,228 353,228 354,231 354,231 354,231 358,231 358,231  Z"/>

<path  fill="#C8CBCC" stroke-width="0" stroke="#C8CBCC" d = " M361 210 L360,212 C360,212 361,210 361,210  Z"/>

<path  fill="#99D2BD" stroke-width="0" stroke="#99D2BD" d = " M81 215 L87,220 C87,217.903 86,214.707 86,212 86,212 83,213 83,213 83,213 81,215 81,215  Z"/>

<path  fill="#99D2BD" stroke-width="0" stroke="#99D2BD" d = " M375 215 L371,218 C371,215.876 370,213.564 370,212 370,212 373,213 373,213 373,213 375,215 375,215  Z"/>

<path  fill="#97D6F9" stroke-width="0" stroke="#97D6F9" d = " M173 213 L172,214 C172,214 173,213 173,213  Z"/>

<path  fill="#C8CBCC" stroke-width="0" stroke="#C8CBCC" d = " M360 213 L359,214 C359,214 360,213 360,213  Z"/>

<path  fill="#97D6F9" stroke-width="0" stroke="#97D6F9" d = " M172 214 L171,215 C171,215 172,214 172,214  Z"/>

<path  fill="#6ACAB9" stroke-width="0" stroke="#6ACAB9" d = " M120 277 L118,278 C108.95,278 101.589,268 95,268 95,268 85,256.5 85,256.5 81.1828,248.866 62,230.322 62,223 62,221.523 65.9243,220 67,220 67,220 77,215 77,215 77,215 81,215 81,215 81,215 87,220 87,220 87,220 87,221 87,221 87,221 88,222 88,222 88,222 89,224 89,224 89,224 94,229 94,229 94,229 95,229 95,229 95,229 96,230 96,230 96,230 97,230 97,230 97,230 98,231 98,231 98,231 99,231 99,231 99,231.847 112.658,240.079 114.5,241 122.938,245.219 126,255.941 126,265 123.042,265 121,273.339 121,276 121,276 120,277 120,277  Z"/>

<path  fill="#C8CBCC" stroke-width="0" stroke="#C8CBCC" d = " M97 215 L98,216 C98,216 97,215 97,215  Z"/>

<path  fill="#97D6F9" stroke-width="0" stroke="#97D6F9" d = " M170 215 L169,216 C169,216 170,215 170,215  Z"/>

<path  fill="#97D6F9" stroke-width="0" stroke="#97D6F9" d = " M286 215 L288,217 C288,217 286,215 286,215  Z"/>

<path  fill="#6ACAB9" stroke-width="0" stroke="#6ACAB9" d = " M336 277 L339,278 C344.664,278 349.761,274.37 354.5,272 355.206,271.647 361,265.619 361,269 361,269 363,265.5 363,265.5 364.282,262.936 368.249,261.002 370,257.5 374.187,249.125 395,230.26 395,222 395,222 390,220 390,220 390,220 380,216 380,216 380,216 375,215 375,215 375,215 371,218 371,218 371,218 370,220 370,220 370,220 369,221 369,221 369,221 369,222 369,222 369,222 368,223 368,223 368,223 367,224 367,224 367,224 366,225 366,225 366,225 365,226 365,226 365,226 364,227 364,227 364,227 363,228 363,228 363,228 362,229 362,229 362,229 361,229 361,229 361,229 360,230 360,230 360,230 359,231 359,231 359,231 358,231 358,231 358,233.341 355.658,232.421 354.5,233 354.5,233 343.5,240 343.5,240 333.863,244.818 331,254.347 331,265 331,268.494 336,272.656 336,277  Z"/>

<path  fill="#97D6F9" stroke-width="0" stroke="#97D6F9" d = " M169 216 L168,217 C168,217 169,216 169,216  Z"/>

<path  fill="#CAC7CB" stroke-width="0" stroke="#CAC7CB" d = " M227 219 L230,219 C232.723,219 235.778,218 239,218 239,216.421 236.145,217 235,217 230.354,217 227.499,217 223,217 221.765,217 218,216.357 218,218 221.222,218 224.277,219 227,219  Z"/>

<path  fill="#C8CBCC" stroke-width="0" stroke="#C8CBCC" d = " M359 216 L358,217 C358,217 359,216 359,216  Z"/>

<path  fill="#C8CBCC" stroke-width="0" stroke="#C8CBCC" d = " M98 217 L99,218 C99,218 98,217 98,217  Z"/>

<path  fill="#97D6F9" stroke-width="0" stroke="#97D6F9" d = " M132 264 L128,265 C128,262.579 130.411,258.322 129,255.5 127.48,252.461 122.835,240 118,240 118,237.636 115,236.947 115,235 115,235 117,235 117,235 129.344,235 141.454,233.523 152.5,228 155.725,226.387 165.715,217 168,217 168,217 161,224.5 161,224.5 160.294,225.911 162.598,226.451 163.5,226 163.5,226 166,225 166,225 166,227.604 156.414,230.043 154.5,231 146.269,235.116 138.278,233.111 130.5,237 127.713,238.393 123.385,236.558 120.5,238 120.5,238 126,244.5 126,244.5 133.279,251.779 130.21,253 141,253 141,253 137,258 137,258 137,258 136,259 136,259 136,259 135,261 135,261 135,261 134,262 134,262 134,262 133,263 133,263 133,263 132,264 132,264  Z"/>

<path  fill="#97D6F9" stroke-width="0" stroke="#97D6F9" d = " M328 265 L329,265 C329,265 327,259.5 327,259.5 327,255.979 333.702,240 338,240 338,237.636 341,236.947 341,235 341,235 340,234 340,234 338.302,234 334.11,235.195 332.5,236 330.667,236.917 316.587,232.043 314.5,231 314.5,231 309.5,231 309.5,231 303.939,228.22 298.362,223.431 293.5,221 293.5,221 289,217 289,217 289,220.866 293.834,221.169 295,223.5 295.805,225.109 294.109,226.805 292.5,226 292.5,226 290,225 290,225 290,225 297.5,229 297.5,229 297.5,229 310.5,235 310.5,235 313.408,236.454 318.775,233.637 325.5,237 327.063,237.781 336,235.431 336,238.5 336,238.5 323.5,253 323.5,253 320.54,254.48 318.607,253 316,253 316,253 319,258 319,258 319,258 321,260 321,260 321,260 321,261 321,261 321,261 323,263 323,263 323,263 328,265 328,265  Z"/>

<path  fill="#B3C0DE" stroke-width="0" stroke="#B3C0DE" d = " M208 226 C202.999,226 200.327,232 195,232 186.555,232 179,230.623 179,222 179,222 179,221 179,221 179,221 185.5,219 185.5,219 185.5,219 209,218 209,218 209,218 210,222.5 210,222.5 210,222.5 208,226 208,226  Z"/>

<path  fill="#E64438" stroke-width="0" stroke="#E64438" d = " M221 233 C224.281,233 223.053,238 225,238 225,236.343 224.237,228 226,228 226,224.169 227,221.354 227,219 224.277,219 221.222,218 218,218 218,218 210,218 210,218 210,218 209,218 209,218 209,218 210,222.5 210,222.5 210,222.5 208,226 208,226 210.461,226 210,229.378 210,231 211.49,231 212.587,230 215,230 215,226.794 219.331,215.161 223,222.5 223,222.5 221,233 221,233  Z"/>

<path  fill="#E64438" stroke-width="0" stroke="#E64438" d = " M235 233 C232.07,233 233.916,236 232,236 232,236 231,228 231,228 231,224.778 230,221.723 230,219 232.723,219 235.778,218 239,218 239,218 247,218 247,218 247,218 246,222.5 246,222.5 246,222.5 248,226 248,226 244.81,226 247,230.967 247,232 244.988,232 247.099,230 241,230 241,226.222 240.535,224.569 239,221.5 239,221.5 234,221.5 234,221.5 234,221.5 235,233 235,233  Z"/>

<path  fill="#B3C0DE" stroke-width="0" stroke="#B3C0DE" d = " M248 226 C253.441,226 255.344,232 261,232 267.842,232 278,231.606 278,223 278,223 278,221 278,221 278,221 271.5,219 271.5,219 271.5,219 247,218 247,218 247,218 246,222.5 246,222.5 246,222.5 248,226 248,226  Z"/>

<path  fill="#C8CBCC" stroke-width="0" stroke="#C8CBCC" d = " M358 218 L357,219 C357,219 358,218 358,218  Z"/>

<path  fill="#99D2BD" stroke-width="0" stroke="#99D2BD" d = " M371 218 L370,220 C370,220 371,218 371,218  Z"/>

<path  fill="#C8CBCC" stroke-width="0" stroke="#C8CBCC" d = " M99 219 L101,222 C99.4226,222 99,220.238 99,219  Z"/>

<path  fill="#FF5445" stroke-width="0" stroke="#FF5445" d = " M228 231 L229,231 C229,231 231,228 231,228 231,224.778 230,221.723 230,219 230,219 227,219 227,219 227,221.354 226,224.169 226,228 226,228 228,231 228,231  Z"/>

<path  fill="#C8CBCC" stroke-width="0" stroke="#C8CBCC" d = " M357 220 L356,221 C356,221 357,220 357,220  Z"/>

<path  fill="#99D2BD" stroke-width="0" stroke="#99D2BD" d = " M370 220 L369,221 C369,221 370,220 370,220  Z"/>

<path  fill="#99D2BD" stroke-width="0" stroke="#99D2BD" d = " M87 221 L88,222 C88,222 87,221 87,221  Z"/>

<path  fill="#8599CC" stroke-width="0" stroke="#8599CC" d = " M174 223 L177,224 C177,224 179,222 179,222 179,222 179,221 179,221 177.959,221 174,221.986 174,223  Z"/>

<path  fill="#FF5547" stroke-width="0" stroke="#FF5547" d = " M215 230 C215,233.997 221,236.665 221,233 221,233 223,222.5 223,222.5 219.331,215.161 215,226.794 215,230  Z"/>

<path  fill="#FF5547" stroke-width="0" stroke="#FF5547" d = " M241 230 C241,237.209 238.603,233 235,233 235,233 234,221.5 234,221.5 234,221.5 239,221.5 239,221.5 240.535,224.569 241,226.222 241,230  Z"/>

<path  fill="#8599CC" stroke-width="0" stroke="#8599CC" d = " M282 223 L280,224 C280,224 278,223 278,223 278,223 278,221 278,221 278,221 282,223 282,223  Z"/>

<path  fill="#C8CBCC" stroke-width="0" stroke="#C8CBCC" d = " M356 221 L355,223 C355,223 356,221 356,221  Z"/>

<path  fill="#E64438" stroke-width="0" stroke="#E64438" d = " M200 241 L196,245 C196,240.537 186,232.473 186,240 179.104,240 180.56,227 175,227 175,224.785 177,225.481 177,224 177,224 179,222 179,222 179,230.623 186.555,232 195,232 195,234.004 188.461,241 200,241  Z"/>

<path  fill="#99D2BD" stroke-width="0" stroke="#99D2BD" d = " M369 222 L368,223 C368,223 369,222 369,222  Z"/>

<path  fill="#C8CBCC" stroke-width="0" stroke="#C8CBCC" d = " M115 235 L117,235 C117,235 109.5,231 109.5,231 109.5,231 101,223 101,223 101,223 104,228 104,228 107.45,228 110.747,235 115,235  Z"/>

<path  fill="#97D6F9" stroke-width="0" stroke="#97D6F9" d = " M175 227 C170.686,227 167.408,231 164,231 164,231 167,225 167,225 167,223.337 172.407,223 174,223 174,223 177,224 177,224 177,225.481 175,224.785 175,227  Z"/>

<path  fill="#E64438" stroke-width="0" stroke="#E64438" d = " M263 239 L267.5,237 L271,240 C271,240 277,234.5 277,234.5 277.863,232.773 277.844,227 281,227 281,227 280,224 280,224 280,224 278,223 278,223 278,231.606 267.842,232 261,232 261,232.062 263,236.153 263,239  Z"/>

<path  fill="#97D6F9" stroke-width="0" stroke="#97D6F9" d = " M281 227 C287.678,227 292.811,234 296,234 296,234 289,225 289,225 289,222.727 283.774,223 282,223 282,223 280,224 280,224 280,224 281,227 281,227  Z"/>

<path  fill="#C8CBCC" stroke-width="0" stroke="#C8CBCC" d = " M355 223 L354,224 C354,224 355,223 355,223  Z"/>

<path  fill="#99D2BD" stroke-width="0" stroke="#99D2BD" d = " M368 223 L367,224 C367,224 368,223 368,223  Z"/>

<path  fill="#99D2BD" stroke-width="0" stroke="#99D2BD" d = " M89 224 L94,229 C94,229 89,224 89,224  Z"/>

<path  fill="#7ECDF8" stroke-width="0" stroke="#7ECDF8" d = " M164 231 C158.095,231 149.597,253 141,253 130.21,253 133.279,251.779 126,244.5 126,244.5 120.5,238 120.5,238 123.385,236.558 127.713,238.393 130.5,237 138.278,233.111 146.269,235.116 154.5,231 156.414,230.043 166,227.604 166,225 166,225 167,225 167,225 167,225 164,231 164,231  Z"/>

<path  fill="#7ECDF8" stroke-width="0" stroke="#7ECDF8" d = " M296 234 C299.122,234 308.113,253 316,253 318.607,253 320.54,254.48 323.5,253 323.5,253 336,238.5 336,238.5 336,235.431 327.063,237.781 325.5,237 318.775,233.637 313.408,236.454 310.5,235 310.5,235 297.5,229 297.5,229 297.5,229 290,225 290,225 290,225 289,225 289,225 289,225 296,234 296,234  Z"/>

<path  fill="#C8CBCC" stroke-width="0" stroke="#C8CBCC" d = " M354 225 L353,226 C353,226 354,225 354,225  Z"/>

<path  fill="#99D2BD" stroke-width="0" stroke="#99D2BD" d = " M366 225 L365,226 C365,226 366,225 366,225  Z"/>

<path  fill="#FD5446" stroke-width="0" stroke="#FD5446" d = " M200 241 L201,241 C201,241 202,240 202,240 204.434,240 210,233.22 210,231 210,229.378 210.461,226 208,226 202.999,226 200.327,232 195,232 195,234.004 188.461,241 200,241  Z"/>

<path  fill="#FD5446" stroke-width="0" stroke="#FD5446" d = " M255 241 L256,241 C256,241 263,239 263,239 263,236.153 261,232.062 261,232 255.344,232 253.441,226 248,226 244.81,226 247,230.967 247,232 247,233.763 251.012,239 253,239 253,239 255,241 255,241  Z"/>

<path  fill="#C8CBCC" stroke-width="0" stroke="#C8CBCC" d = " M340 234 L341,235 C345.725,235 348.937,228 353,228 353,228 353,226 353,226 348.835,226 344.803,234 340,234  Z"/>

<path  fill="#A2B1D7" stroke-width="0" stroke="#A2B1D7" d = " M128 265 L134,271.5 C145.469,282.969 152.034,277 165,277 165,275.41 160.614,275.557 159.5,275 156.944,273.722 152.521,271.543 151,268.5 151,268.5 155.5,264 155.5,264 159.992,261.754 168.895,259 174,259 174,259 179,257 179,257 179,257 184,252.5 184,252.5 186.355,247.79 186,244.762 186,240 179.104,240 180.56,227 175,227 170.686,227 167.408,231 164,231 158.095,231 149.597,253 141,253 141,253 137,258 137,258 137,258 136,259 136,259 136,259 135,261 135,261 135,261 134,262 134,262 134,262 133,263 133,263 133,263 132,264 132,264 132,264 128,265 128,265  Z"/>

<path  fill="#A2B1D7" stroke-width="0" stroke="#A2B1D7" d = " M328 265 C328,267.519 325.241,269.259 323.5,271 311.268,283.232 305.429,277 292,277 292,274.651 303.332,272.835 305,269.5 307.481,264.538 286.562,259 283,259 280.553,259 279.72,257 277,257 277,257 271,250.5 271,250.5 269.226,246.951 271,243.245 271,240 271,240 277,234.5 277,234.5 277.863,232.773 277.844,227 281,227 287.678,227 292.811,234 296,234 299.122,234 308.113,253 316,253 316,253 319,258 319,258 319,258 321,260 321,260 321,260 321,261 321,261 321,261 323,263 323,263 323,263 328,265 328,265  Z"/>

<path  fill="#99D2BD" stroke-width="0" stroke="#99D2BD" d = " M364 227 L363,228 C363,228 364,227 364,227  Z"/>

<path  fill="#8AD987" stroke-width="0" stroke="#8AD987" d = " M115 235 C115,236.947 118,237.636 118,240 111.71,240 106.528,231 103,231 103,231 104,228 104,228 107.45,228 110.747,235 115,235  Z"/>

<path  fill="#FE5547" stroke-width="0" stroke="#FE5547" d = " M238 273 L239,273 C239,270.28 237,269.447 237,267 231.442,267 232,248.211 232,243 232,243 232,241 232,241 232,241 232,236 232,236 232,236 231,228 231,228 231,228 229,231 229,231 229,231 229,233 229,233 229,237.283 228,237.283 228,233 228,233 228,231 228,231 228,231 226,228 226,228 224.237,228 225,236.343 225,238 225,238 225,239 225,239 225,239 224,241 224,241 224,241 224,243 224,243 224,247.713 224.645,268 219,268 219,268 217,273 217,273 217,273 219,273 219,273 219,273 221,273 221,273 221,273 225,271 225,271 225,271 226,270 226,270 226,270 228.5,259 228.5,259 228.5,259 229,266.5 229,266.5 229,266.5 231,270 231,270 231,270 231,271 231,271 231,271 235,273 235,273 235,273 236,273 236,273 236,273 238,273 238,273  Z"/>

<path  fill="#8AD987" stroke-width="0" stroke="#8AD987" d = " M341 235 C341,236.947 338,237.636 338,240 344.424,240 348.392,231 354,231 354,231 353,228 353,228 348.937,228 345.725,235 341,235  Z"/>

<path  fill="#99D2BD" stroke-width="0" stroke="#99D2BD" d = " M363 228 L362,229 C362,229 363,228 363,228  Z"/>

<path  fill="#99D2BD" stroke-width="0" stroke="#99D2BD" d = " M95 229 L96,230 C96,230 95,229 95,229  Z"/>

<path  fill="#FF5346" stroke-width="0" stroke="#FF5346" d = " M195 269 L200.5,268 L203,270 C206.205,270 208.611,267 210,267 210,255.275 206.448,242 223,242 223,242 224,241 224,241 224,241 225,239 225,239 225,239 225,238 225,238 223.053,238 224.281,233 221,233 221,236.665 215,233.997 215,230 212.587,230 211.49,231 210,231 210,233.22 204.434,240 202,240 202,240 201,241 201,241 201,241 200,241 200,241 200,241 196,245 196,245 196,245 195,259 195,259 196.77,259 201.07,248.641 205,256.5 207.639,261.778 195,269.042 195,262 193.527,262 194,263.952 194,265 194,265 194,267 194,267 194,267 195,269 195,269  Z"/>

<path  fill="#FF5346" stroke-width="0" stroke="#FF5346" d = " M261 269 L256.5,268 L253,270 C249.855,270 248.167,267 246,267 246,256.143 250.07,242 234,242 234,242 232,241 232,241 232,241 232,236 232,236 233.916,236 232.07,233 235,233 238.603,233 241,237.209 241,230 247.099,230 244.988,232 247,232 247,233.763 251.012,239 253,239 253,239 255,241 255,241 255,241 256,241 256,241 256,241 260,245 260,245 260,245 261,257 261,257 261,257 255.5,253 255.5,253 245.768,253 256.659,272.182 261,263.5 261,263.5 261,259 261,259 261.853,259 263,265.031 263,266 263,267.238 262.577,269 261,269  Z"/>

<path  fill="#99D2BD" stroke-width="0" stroke="#99D2BD" d = " M361 229 L360,230 C360,230 361,229 361,229  Z"/>

<path  fill="#99D2BD" stroke-width="0" stroke="#99D2BD" d = " M97 230 L98,231 C98,231 97,230 97,230  Z"/>

<path  fill="#99D2BD" stroke-width="0" stroke="#99D2BD" d = " M360 230 L359,231 C359,231 360,230 360,230  Z"/>

<path  fill="#99D2BD" stroke-width="0" stroke="#99D2BD" d = " M126 265 L128,265 C128,262.579 130.411,258.322 129,255.5 127.48,252.461 122.835,240 118,240 111.71,240 106.528,231 103,231 103,231 99,231 99,231 99,231.847 112.658,240.079 114.5,241 122.938,245.219 126,255.941 126,265  Z"/>

<path  fill="#E64438" stroke-width="0" stroke="#E64438" d = " M228 233 L229,233 C229,233 229,231 229,231 229,231 228,231 228,231 228,231 228,233 228,233  Z"/>

<path  fill="#99D2BD" stroke-width="0" stroke="#99D2BD" d = " M329 265 L331,265 C331,254.347 333.863,244.818 343.5,240 343.5,240 354.5,233 354.5,233 355.658,232.421 358,233.341 358,231 358,231 354,231 354,231 348.392,231 344.424,240 338,240 333.702,240 327,255.979 327,259.5 327,259.5 329,265 329,265  Z"/>

<path  fill="#A8A9AA" stroke-width="0" stroke="#A8A9AA" d = " M228 233 L229,233 C229,237.283 228,237.283 228,233  Z"/>

<path  fill="#F2473B" stroke-width="0" stroke="#F2473B" d = " M194 265 L193,266 C190.204,266 185.206,259 180,259 180,259 179,257 179,257 179,257 184,252.5 184,252.5 186.355,247.79 186,244.762 186,240 186,232.473 196,240.537 196,245 196,245 195,259 195,259 195,259 195,262 195,262 193.527,262 194,263.952 194,265  Z"/>

<path  fill="#F2473B" stroke-width="0" stroke="#F2473B" d = " M277 259 C271.746,259 265.663,266 263,266 263,265.031 261.853,259 261,259 261,259 261,257 261,257 261,257 260,245 260,245 260,245 263,239 263,239 263,239 267.5,237 267.5,237 267.5,237 271,240 271,240 271,243.245 269.226,246.951 271,250.5 271,250.5 277,257 277,257 277,257 277,259 277,259  Z"/>

<path  fill="#E64438" stroke-width="0" stroke="#E64438" d = " M225 239 L224,241 C224,241 225,239 225,239  Z"/>

<path  fill="#E64438" stroke-width="0" stroke="#E64438" d = " M253 239 L255,241 C255,241 253,239 253,239  Z"/>

<path  fill="#E64438" stroke-width="0" stroke="#E64438" d = " M256 241 L260,245 C260,245 263,239 263,239 263,239 256,241 256,241  Z"/>

<path  fill="#E64438" stroke-width="0" stroke="#E64438" d = " M202 240 L201,241 C201,241 202,240 202,240  Z"/>

<path  fill="#E64438" stroke-width="0" stroke="#E64438" d = " M223 242 L224,243 C224,243 224,241 224,241 224,241 223,242 223,242  Z"/>

<path  fill="#E64438" stroke-width="0" stroke="#E64438" d = " M234 242 L232,243 C232,243 232,241 232,241 232,241 234,242 234,242  Z"/>

<path  fill="#FD4C3E" stroke-width="0" stroke="#FD4C3E" d = " M215 267 C216.145,267 219,266.421 219,268 224.645,268 224,247.713 224,243 224,243 223,242 223,242 206.448,242 210,255.275 210,267 210,267 215,267 215,267  Z"/>

<path  fill="#FD4C3E" stroke-width="0" stroke="#FD4C3E" d = " M241 267 L246,267 C246,256.143 250.07,242 234,242 234,242 232,243 232,243 232,248.211 231.442,267 237,267 237,267 241,267 241,267  Z"/>

<path  fill="#FE5447" stroke-width="0" stroke="#FE5447" d = " M261 257 L255.5,253 C245.768,253 256.659,272.182 261,263.5 L261,259 C261,259 261,257 261,257  Z"/>

<path  fill="#FE5447" stroke-width="0" stroke="#FE5447" d = " M195 259 C196.77,259 201.07,248.641 205,256.5 207.639,261.778 195,269.042 195,262 195,262 195,259 195,259  Z"/>

<path  fill="#E64438" stroke-width="0" stroke="#E64438" d = " M180 259 C177.657,259 176,259.285 176,262 176,262 174,259 174,259 174,259 179,257 179,257 179,257 180,259 180,259  Z"/>

<path  fill="#E64438" stroke-width="0" stroke="#E64438" d = " M283 259 L281,261 C281,261 277,259 277,259 277,259 277,257 277,257 279.72,257 280.553,259 283,259  Z"/>

<path  fill="#8599CC" stroke-width="0" stroke="#8599CC" d = " M137 258 L136,259 C136,259 137,258 137,258  Z"/>

<path  fill="#8599CC" stroke-width="0" stroke="#8599CC" d = " M319 258 L321,260 C321,260 319,258 319,258  Z"/>

<path  fill="#8599CC" stroke-width="0" stroke="#8599CC" d = " M136 259 L135,261 C135,261 136,259 136,259  Z"/>

<path  fill="#A2B1D8" stroke-width="0" stroke="#A2B1D8" d = " M165 277 L172,277 C172,277 176,274 176,274 176,274 176,262 176,262 176,262 174,259 174,259 168.895,259 159.992,261.754 155.5,264 155.5,264 151,268.5 151,268.5 152.521,271.543 156.944,273.722 159.5,275 160.614,275.557 165,275.41 165,277  Z"/>

<path  fill="#96A6D3" stroke-width="0" stroke="#96A6D3" d = " M192 279 L191,280 C186.5,280 176,279.986 176,274 176,274 176,262 176,262 176,259.285 177.657,259 180,259 185.206,259 190.204,266 193,266 193,266 194,267 194,267 194,267 195,269 195,269 195,272.679 192,275.731 192,279  Z"/>

<path  fill="#A8A9AA" stroke-width="0" stroke="#A8A9AA" d = " M226 270 L231,270 C231,270 229,266.5 229,266.5 229,266.5 228.5,259 228.5,259 228.5,259 226,270 226,270  Z"/>

<path  fill="#96A6D3" stroke-width="0" stroke="#96A6D3" d = " M281 275 C279.594,275 274.086,279.207 272.5,280 269.932,281.284 266.014,279 264,279 264,279 261,269 261,269 262.577,269 263,267.238 263,266 265.663,266 271.746,259 277,259 277,259 281,261 281,261 281,261 281,275 281,275  Z"/>

<path  fill="#A2B1D8" stroke-width="0" stroke="#A2B1D8" d = " M285 277 L292,277 C292,274.651 303.332,272.835 305,269.5 307.481,264.538 286.562,259 283,259 283,259 281,261 281,261 281,261 281,275 281,275 281,275 285,277 285,277  Z"/>

<path  fill="#8599CC" stroke-width="0" stroke="#8599CC" d = " M135 261 L134,262 C134,262 135,261 135,261  Z"/>

<path  fill="#8599CC" stroke-width="0" stroke="#8599CC" d = " M321 261 L323,263 C323,263 321,261 321,261  Z"/>

<path  fill="#8599CC" stroke-width="0" stroke="#8599CC" d = " M134 262 L133,263 C133,263 134,262 134,262  Z"/>

<path  fill="#8599CC" stroke-width="0" stroke="#8599CC" d = " M133 263 L132,264 C132,264 133,263 133,263  Z"/>

<path  fill="#7FCCF7" stroke-width="0" stroke="#7FCCF7" d = " M124 284 C124,287.899 130.734,291.617 133.5,293 144.921,298.71 155.365,301.067 167.5,295 170.098,293.701 179,292.974 179,288 179,283.779 179.066,277 172,277 172,277 165,277 165,277 152.034,277 145.469,282.969 134,271.5 134,271.5 128,265 128,265 128,265 126,265 126,265 123.042,265 121,273.339 121,276 121,276 121,277 121,277 121,280.047 124,281.462 124,284  Z"/>

<path  fill="#E64438" stroke-width="0" stroke="#E64438" d = " M193 266 L194,267 C194,267 194,265 194,265 194,265 193,266 193,266  Z"/>

<path  fill="#7FCCF7" stroke-width="0" stroke="#7FCCF7" d = " M277 288 L278,289 C278,293.736 287.03,293.765 289.5,295 301.537,301.018 311.131,298.685 322.5,293 324.519,291.991 332,288.092 332,285 332,285 333,284 333,284 333,284 333,283 333,283 333,283 336,277 336,277 336,272.656 331,268.494 331,265 331,265 329,265 329,265 329,265 328,265 328,265 328,267.519 325.241,269.259 323.5,271 311.268,283.232 305.429,277 292,277 292,277 285,277 285,277 279.241,277 277,281.71 277,287 277,287 277,288 277,288  Z"/>

<path  fill="#E64438" stroke-width="0" stroke="#E64438" d = " M208 278 C208,279.473 206.048,279 205,279 205,275.362 203,273.071 203,270 206.205,270 208.611,267 210,267 210,267 215,267 215,267 215,267.624 204.877,278 208,278  Z"/>

<path  fill="#FD5545" stroke-width="0" stroke="#FD5545" d = " M217 274 L208,278 C204.877,278 215,267.624 215,267 216.145,267 219,266.421 219,268 219,268 217,273 217,273 217,273 217,274 217,274  Z"/>

<path  fill="#FD5545" stroke-width="0" stroke="#FD5545" d = " M241 275 L248,278 C252.617,278 241,267.175 241,267 241,267 237,267 237,267 237,269.447 239,270.28 239,273 239,273 239,274 239,274 239,274 240,274 240,274 240,274 241,275 241,275  Z"/>

<path  fill="#E64438" stroke-width="0" stroke="#E64438" d = " M248 278 C248,279.473 249.952,279 251,279 251,275.32 253,273.489 253,270 249.855,270 248.167,267 246,267 246,267 241,267 241,267 241,267.175 252.617,278 248,278  Z"/>

<path  fill="#CAC8C7" stroke-width="0" stroke="#CAC8C7" d = " M119 279 L119,282 C119,282 115.5,285 115.5,285 111.339,285 95,272.674 95,268 101.589,268 108.95,278 118,278 118,278 119,279 119,279  Z"/>

<path  fill="#FE5546" stroke-width="0" stroke="#FE5546" d = " M201 281 L204,281 C204,281 205,279 205,279 205,275.362 203,273.071 203,270 203,270 200.5,268 200.5,268 200.5,268 195,269 195,269 195,272.679 192,275.731 192,279 192,279 201,281 201,281  Z"/>

<path  fill="#FE5546" stroke-width="0" stroke="#FE5546" d = " M264 279 L255,281 C255,281 251,279 251,279 251,275.32 253,273.489 253,270 253,270 256.5,268 256.5,268 256.5,268 261,269 261,269 261,269 264,279 264,279  Z"/>

<path  fill="#CAC8C7" stroke-width="0" stroke="#CAC8C7" d = " M338 281 L338,282 C338,283.963 341.983,284.759 343.5,284 347.771,281.864 361,275.183 361,269 361,265.619 355.206,271.647 354.5,272 349.761,274.37 344.664,278 339,278 339,278 338,281 338,281  Z"/>

<path  fill="#CAC7CB" stroke-width="0" stroke="#CAC7CB" d = " M221 273 C224.066,273 225.417,273 228,273 228,271.423 226.238,271 225,271 225,271 221,273 221,273  Z"/>

<path  fill="#CAC7CB" stroke-width="0" stroke="#CAC7CB" d = " M229 273 L235,273 C235,273 231,271 231,271 229.253,271 229,271.253 229,273  Z"/>

<path  fill="#CBCACC" stroke-width="0" stroke="#CBCACC" d = " M204 281 L201,283 C201,287.697 207.461,288 211,288 219.609,288 234.271,283.885 242.5,288 245.124,289.312 253.82,287.859 255,285.5 257.443,280.613 236,277.374 236,273 236,273 235,273 235,273 235,273 229,273 229,273 229,273 228,273 228,273 225.417,273 224.066,273 221,273 221,273 219,274 219,274 219,275.646 206.519,281 204,281  Z"/>

<path  fill="#E64438" stroke-width="0" stroke="#E64438" d = " M217 274 L219,274 C219,274 219,273 219,273 219,273 217,273 217,273 217,273 217,274 217,274  Z"/>

<path  fill="#CAC7CB" stroke-width="0" stroke="#CAC7CB" d = " M221 273 L219,274 C219,274 219,273 219,273 219,273 221,273 221,273  Z"/>

<path  fill="#CAC7CB" stroke-width="0" stroke="#CAC7CB" d = " M255 281 L258,286.5 C258,288.089 251.453,289 250,289 245.044,289 235.498,293.499 230.5,291 L228.5,288 L226.5,291 L217.5,291 C213.18,288.84 206.733,291.117 202.5,289 L198,286.5 L201,283 C201,287.697 207.461,288 211,288 219.609,288 234.271,283.885 242.5,288 245.124,289.312 253.82,287.859 255,285.5 257.443,280.613 236,277.374 236,273 236,273 238,273 238,273 238,273 239,274 239,274 239,274 240,274 240,274 240,274 241,275 241,275 241,275 248,278 248,278 248,279.473 249.952,279 251,279 251,279 255,281 255,281  Z"/>

<path  fill="#E64438" stroke-width="0" stroke="#E64438" d = " M239 273 L239,274 C239,274 238,273 238,273 238,273 239,273 239,273  Z"/>

<path  fill="#8599CC" stroke-width="0" stroke="#8599CC" d = " M191 280 C191,282.17 180.735,288 179,288 179,283.779 179.066,277 172,277 172,277 176,274 176,274 176,279.986 186.5,280 191,280  Z"/>

<path  fill="#CAC7CB" stroke-width="0" stroke="#CAC7CB" d = " M205 279 L204,281 C206.519,281 219,275.646 219,274 219,274 217,274 217,274 217,274 208,278 208,278 208,279.473 206.048,279 205,279  Z"/>

<path  fill="#E64438" stroke-width="0" stroke="#E64438" d = " M240 274 L241,275 C241,275 240,274 240,274  Z"/>

<path  fill="#8599CC" stroke-width="0" stroke="#8599CC" d = " M264 279 C264,281.754 274.591,287 277,287 277,281.71 279.241,277 285,277 285,277 281,275 281,275 279.594,275 274.086,279.207 272.5,280 269.932,281.284 266.014,279 264,279  Z"/>

<path  fill="#99D2BD" stroke-width="0" stroke="#99D2BD" d = " M120 277 L121,277 C121,277 121,276 121,276 121,276 120,277 120,277  Z"/>

<path  fill="#99D2BD" stroke-width="0" stroke="#99D2BD" d = " M118 278 L119,279 C119,279 120,277 120,277 120,277 118,278 118,278  Z"/>

<path  fill="#97D6F9" stroke-width="0" stroke="#97D6F9" d = " M119 282 C121.009,282 121.991,284 124,284 124,281.462 121,280.047 121,277 121,277 120,277 120,277 120,277 119,279 119,279 119,279 119,282 119,282  Z"/>

<path  fill="#97D6F9" stroke-width="0" stroke="#97D6F9" d = " M338 282 L333,283 C333,283 336,277 336,277 336,277 338,281 338,281 338,281 338,282 338,282  Z"/>

<path  fill="#99D2BD" stroke-width="0" stroke="#99D2BD" d = " M339 278 L338,281 C338,281 336,277 336,277 336,277 339,278 339,278  Z"/>

<path  fill="#8599CC" stroke-width="0" stroke="#8599CC" d = " M192 279 L191,280 C191,280 192,279 192,279  Z"/>

<path  fill="#CAC7CB" stroke-width="0" stroke="#CAC7CB" d = " M204 281 L201,283 C201,283 201,281 201,281 201,281 204,281 204,281  Z"/>

<path  fill="#97D6F9" stroke-width="0" stroke="#97D6F9" d = " M333 284 L332,285 C332,285 333,284 333,284  Z"/>

<path  fill="#8599CC" stroke-width="0" stroke="#8599CC" d = " M277 288 L278,289 C278,289 277,288 277,288  Z"/>

</g>
</svg>
