<svg xmlns="http://www.w3.org/2000/svg" xmlns:xlink="http://www.w3.org/1999/xlink"  viewBox="0 0 456 320">
<g>
<rect width="456" height="320" fill="#000000"  stroke-width="0" /> 
<path  fill="#098589" stroke-width="0" stroke="#098589" d = " M83 61 L86,64 C87.941,64 106.932,47.2839 111.5,45 136.17,32.6652 144.677,25 174,25 174,25 173,21 173,21 149.552,21 130.85,29.3249 111.5,39 111.5,39 101.5,46 101.5,46 98.9174,47.2913 83,57.8592 83,61  Z"/>

<path  fill="#0A8589" stroke-width="0" stroke="#0A8589" d = " M174 25 L175,25 C175,25 176,22 176,22 176,22 173,21 173,21 173,21 174,25 174,25  Z"/>

<path  fill="#0A8589" stroke-width="0" stroke="#0A8589" d = " M281 25 L282,25 C282,25 283,21 283,21 283,21 281,22 281,22 281,22 281,25 281,25  Z"/>

<path  fill="#098589" stroke-width="0" stroke="#098589" d = " M373 61 L371,64 C369.4,64 348.996,47.2479 344.5,45 319.552,32.5258 311.74,25 282,25 282,25 283,21 283,21 304.936,21 323.378,27.9391 341.5,37 341.5,37 353.5,45 353.5,45 357.971,47.2355 373,56.355 373,61  Z"/>

<path  fill="#1BA696" stroke-width="0" stroke="#1BA696" d = " M193 29 C189.978,29 189.737,34 186,34 186,29.5222 178.977,25 175,25 175,25 176,22 176,22 180.032,22 193,24.2394 193,29  Z"/>

<path  fill="#1BA696" stroke-width="0" stroke="#1BA696" d = " M263 29 C266.273,29 266.506,34 270,34 270,29.4085 277.256,26 281,26 281,26 281,25 281,25 281,25 281,22 281,22 276.731,22 263,23.8998 263,29  Z"/>

<path  fill="#0A828C" stroke-width="0" stroke="#0A828C" d = " M90 71 L91,71 C91,71 113.5,55 113.5,55 135.768,43.8659 143.149,33 171,33 171,33 175,27 175,27 175,27 174,25 174,25 144.677,25 136.17,32.6652 111.5,45 106.932,47.2839 87.941,64 86,64 86,64 86,65 86,65 86,65 90,71 90,71  Z"/>

<path  fill="#0A828C" stroke-width="0" stroke="#0A828C" d = " M365 71 L366,71 C367.371,71 368.059,65 371,65 371,65 371,64 371,64 369.4,64 348.996,47.2479 344.5,45 319.552,32.5258 311.74,25 282,25 282,25 282,26 282,26 282,28.9706 285,30.7678 285,33 285,33 301.5,33 301.5,33 313.159,38.8295 324.77,45.135 336.5,51 336.5,51 347.5,59 347.5,59 349.629,60.0644 365,70.3213 365,71  Z"/>

<path  fill="#08858B" stroke-width="0" stroke="#08858B" d = " M175 25 L175,27 C175,27 174,25 174,25 174,25 175,25 175,25  Z"/>

<path  fill="#1AA496" stroke-width="0" stroke="#1AA496" d = " M169 37 C171.59,37 175,36.9739 175,40 175,40 186,35 186,35 186,35 186,34 186,34 186,29.5222 178.977,25 175,25 175,25 175,27 175,27 175,27 171,33 171,33 171,33 169,37 169,37  Z"/>

<path  fill="#08858B" stroke-width="0" stroke="#08858B" d = " M281 26 L282,26 C282,26 282,25 282,25 282,25 281,25 281,25 281,25 281,26 281,26  Z"/>

<path  fill="#1AA496" stroke-width="0" stroke="#1AA496" d = " M288 37 C285.824,37 281,36.6521 281,40 281,40 270,34 270,34 270,29.4085 277.256,26 281,26 281,26 282,26 282,26 282,28.9706 285,30.7678 285,33 285,33 288,37 288,37  Z"/>

<path  fill="#1BA598" stroke-width="0" stroke="#1BA598" d = " M159 71 L161,71 C161,71 168,63.5 168,63.5 172.903,53.6931 185.276,47.224 191.5,41 192.896,39.6039 197.641,29 193,29 189.978,29 189.737,34 186,34 186,34 186,35 186,35 186,46.7582 159,62.5273 159,71  Z"/>

<path  fill="#1BA598" stroke-width="0" stroke="#1BA598" d = " M296 71 L297,71 C297,62.2387 270,45.6455 270,34 266.506,34 266.273,29 263,29 263,29 261,34.5 261,34.5 265.927,44.3535 278.482,51.982 286.5,60 288.297,61.7965 293.8,71 296,71  Z"/>

<path  fill="#0B848B" stroke-width="0" stroke="#0B848B" d = " M91 71 L94,76 C96.9465,76 115.047,59.2265 119.5,57 135.726,48.8872 148.287,37 168,37 168,37 169,37 169,37 169,37 171,33 171,33 143.149,33 135.768,43.8659 113.5,55 113.5,55 91,71 91,71  Z"/>

<path  fill="#0B848B" stroke-width="0" stroke="#0B848B" d = " M365 71 L363,76 C357.988,76 345.831,62.6657 340.5,60 322.486,50.9932 309.928,37 288,37 288,37 285,33 285,33 285,33 301.5,33 301.5,33 313.159,38.8295 324.77,45.135 336.5,51 336.5,51 347.5,59 347.5,59 349.629,60.0644 365,70.3213 365,71  Z"/>

<path  fill="#1BA697" stroke-width="0" stroke="#1BA697" d = " M297 71 L300,71 C300,65.7917 281,50.6302 281,40 281,40 270,34 270,34 270,45.6455 297,62.2387 297,71  Z"/>

<path  fill="#1BA697" stroke-width="0" stroke="#1BA697" d = " M157 71 L159,71 C159,62.5273 186,46.7582 186,35 186,35 175,40 175,40 175,51.9322 157,64.2855 157,71  Z"/>

<path  fill="#088389" stroke-width="0" stroke="#088389" d = " M94 77 C96.627,77 96.2649,84 99,84 103.695,84 108.347,75.0763 112.5,73 126.44,66.03 139.496,48 156,48 156,48 168,37 168,37 148.287,37 135.726,48.8872 119.5,57 115.047,59.2265 96.9465,76 94,76 94,76 94,77 94,77  Z"/>

<path  fill="#1CA697" stroke-width="0" stroke="#1CA697" d = " M159 49 L160,49 C160,47.0868 172.92,40 175,40 175,36.9739 171.59,37 169,37 169,37 168,37 168,37 168,37 156,48 156,48 157.048,48 159,47.5271 159,49  Z"/>

<path  fill="#1CA697" stroke-width="0" stroke="#1CA697" d = " M296 49 L297,49 C297,47.5271 298.952,48 300,48 300,48 288,37 288,37 285.824,37 281,36.6521 281,40 283.503,40 296,46.2487 296,49  Z"/>

<path  fill="#088389" stroke-width="0" stroke="#088389" d = " M357 85 L358,85 C358,82.9475 360.129,77 363,77 363,77 363,76 363,76 357.988,76 345.831,62.6657 340.5,60 322.486,50.9932 309.928,37 288,37 288,37 300,48 300,48 300,48 301,48 301,48 311.932,48 336.798,66.2978 345,74.5 345,74.5 357,85 357,85  Z"/>

<path  fill="#1AA596" stroke-width="0" stroke="#1AA596" d = " M148 71 L157,71 C157,64.2855 175,51.9322 175,40 172.92,40 160,47.0868 160,49 163.02,49 159.43,57.6406 159,58.5 157.632,61.2363 148,70.4713 148,71  Z"/>

<path  fill="#1AA596" stroke-width="0" stroke="#1AA596" d = " M300 71 L309,71 C309,71 301,63.5 301,63.5 298.157,57.813 296,54.8753 296,49 296,46.2487 283.503,40 281,40 281,50.6302 300,65.7917 300,71  Z"/>

<path  fill="#FF7AFD" stroke-width="0" stroke="#FF7AFD" d = " M292 76 L293,76 C293,64.0104 257.15,34.1748 243.5,41 243.5,41 231,49.5 231,49.5 229.821,51.857 231.135,57 228.5,57 228.5,57 226.5,51 226.5,51 221.735,48.6177 218.03,43.7651 212.5,41 206.408,37.9538 185,46.2169 185,51 185,51 200.5,43 200.5,43 208.234,39.1332 221.975,46.4509 225,52.5 226.347,55.1939 227,63.0733 227,66 227,68.3726 229.284,66 230,66 230,30.8861 262.468,41.968 279,58.5 283.647,63.1474 292,69.4521 292,76  Z"/>

<path  fill="#FF78FF" stroke-width="0" stroke="#FF78FF" d = " M167 69 C167,71.4471 165,72.2802 165,75 165,75 177.5,67 177.5,67 186.484,62.5081 195.686,58.407 204.5,54 217.419,47.5407 223.245,66 227,66 227,63.0733 226.347,55.1939 225,52.5 221.975,46.4509 208.234,39.1332 200.5,43 200.5,43 185,51 185,51 185,52.8113 181.562,55 180,55 180,55 179,56 179,56 179,56 167,69 167,69  Z"/>

<path  fill="#FF78FF" stroke-width="0" stroke="#FF78FF" d = " M230 66 C231.674,66 235.279,58.9421 236,57.5 238.159,53.1828 248.422,51.961 252.5,54 261.354,58.427 270.564,62.5318 279.5,67 L292,76 C292,69.4521 283.647,63.1474 279,58.5 262.468,41.968 230,30.8861 230,66  Z"/>

<path  fill="#08858C" stroke-width="0" stroke="#08858C" d = " M102 92 L103,92 C103,89.3135 115.21,84.1448 117.5,83 118.75,82.3752 127,76.4178 127,79 127,79 135,74 135,74 135,65.4461 146.265,58.9691 149,53.5 149,53.5 156,48 156,48 139.496,48 126.44,66.03 112.5,73 108.347,75.0763 103.695,84 99,84 99,84 99,85 99,85 99,85 102,92 102,92  Z"/>

<path  fill="#1CA597" stroke-width="0" stroke="#1CA597" d = " M139 72 L135,74 C135,65.4461 146.265,58.9691 149,53.5 149,53.5 156,48 156,48 157.048,48 159,47.5271 159,49 159,52.7007 139,63.7267 139,72  Z"/>

<path  fill="#1CA597" stroke-width="0" stroke="#1CA597" d = " M317 72 L321,74 C321,66.8202 313.135,59.6352 308,54.5 308,54.5 301,48 301,48 301,48 300,48 300,48 298.952,48 297,47.5271 297,49 300.466,49 317,68.2664 317,72  Z"/>

<path  fill="#08858C" stroke-width="0" stroke="#08858C" d = " M353 92 L354,92 C354,92 357,85 357,85 357,85 345,74.5 345,74.5 336.798,66.2978 311.932,48 301,48 301,48 308,54.5 308,54.5 313.135,59.6352 321,66.8202 321,74 321,74 329,79 329,79 329,79 330,79 330,79 330,77.2937 336.237,81.3685 337.5,82 339.401,82.9507 353,90.7018 353,92  Z"/>

<path  fill="#1AA697" stroke-width="0" stroke="#1AA697" d = " M139 72 L141,72 C141,68.9992 146.353,71 148,71 148,70.4713 157.632,61.2363 159,58.5 159.43,57.6406 163.02,49 160,49 160,49 159,49 159,49 159,52.7007 139,63.7267 139,72  Z"/>

<path  fill="#1AA697" stroke-width="0" stroke="#1AA697" d = " M315 71 L317,72 C317,68.2664 300.466,49 297,49 297,49 296,49 296,49 296,54.8753 298.157,57.813 301,63.5 301,63.5 309,71 309,71 311.413,71 312.587,71 315,71  Z"/>

<path  fill="#FF7AFD" stroke-width="0" stroke="#FF7AFD" d = " M185 51 C183.438,51 180,53.1887 180,55 181.562,55 185,52.8113 185,51  Z"/>

<path  fill="#FD7AFF" stroke-width="0" stroke="#FD7AFF" d = " M163 80 C166.21,80 168.738,75.381 171.5,74 179.632,69.9338 187.407,65.0467 195.5,61 201.239,58.1307 210.84,58.17 216.5,61 L224.5,69 C226.119,69.8096 227.501,68 228.5,68 229.499,68 230.881,69.8096 232.5,69 236.301,67.0996 238.889,61.3054 243.5,59 253.106,54.1972 275.87,69.1849 283.5,73 L293,80 C293,80 293,79 293,79 293,79 293,76 293,76 293,76 292,76 292,76 292,76 279.5,67 279.5,67 270.564,62.5318 261.354,58.427 252.5,54 248.422,51.961 238.159,53.1828 236,57.5 235.279,58.9421 231.674,66 230,66 229.284,66 227,68.3726 227,66 223.245,66 217.419,47.5407 204.5,54 195.686,58.407 186.484,62.5081 177.5,67 177.5,67 165,75 165,75 165,75 164,76 164,76 164,76 163,76 163,76 163,76 163,80 163,80  Z"/>

<path  fill="#FF7AFD" stroke-width="0" stroke="#FF7AFD" d = " M180 55 L179,56 C179,56 180,55 180,55  Z"/>

<path  fill="#FF7AFD" stroke-width="0" stroke="#FF7AFD" d = " M179 56 C175.602,56 167,65.8577 167,69 167,69 179,56 179,56  Z"/>

<path  fill="#FF90FF" stroke-width="0" stroke="#FF90FF" d = " M157 93 C162.207,93 163.263,88.1187 167.5,86 177.111,81.1943 185.946,74.7769 195.5,70 202.652,66.424 211.87,67.685 218.5,71 L225.5,78 C226.778,78.6392 227.603,77.0515 229.5,78 232.358,79.4289 235.773,71.8636 237.5,71 240.848,69.3261 245.574,67 249.5,67 262.343,67 274.592,78.5462 285.5,84 289.86,86.1798 293.884,93 299,93 299,84.841 293,80.2685 293,80 293,80 283.5,73 283.5,73 275.87,69.1849 253.106,54.1972 243.5,59 238.889,61.3054 236.301,67.0996 232.5,69 230.881,69.8096 229.499,68 228.5,68 227.501,68 226.119,69.8096 224.5,69 224.5,69 216.5,61 216.5,61 210.84,58.17 201.239,58.1307 195.5,61 187.407,65.0467 179.632,69.9338 171.5,74 168.738,75.381 166.21,80 163,80 163,80 162,81 162,81 162,81 161,82 161,82 161,82 160,83 160,83 160,83 159,84 159,84 159,84 158,85 158,85 158,85 157,93 157,93  Z"/>

<path  fill="#09848A" stroke-width="0" stroke="#09848A" d = " M67 78 L69,80 C69,80 86,65 86,65 86,65 86,64 86,64 86,64 83,61 83,61 81.8814,61 79.449,62.602 79,63.5 77.3601,66.7797 67,72.9751 67,78  Z"/>

<path  fill="#09848A" stroke-width="0" stroke="#09848A" d = " M390 78 L387,80 C384.706,80 374.696,65 371,65 371,65 371,64 371,64 371,64 373,61 373,61 375.427,61 390,77.1327 390,78  Z"/>

<path  fill="#0A8489" stroke-width="0" stroke="#0A8489" d = " M74 86 L75,86 C75,86 90,71 90,71 90,71 86,65 86,65 86,65 69,80 69,80 69,80 69,81 69,81 69,81 74,86 74,86  Z"/>

<path  fill="#0A8489" stroke-width="0" stroke="#0A8489" d = " M387 81 L382,86 C382,86 366,71 366,71 367.371,71 368.059,65 371,65 374.696,65 384.706,80 387,80 387,80 387,81 387,81  Z"/>

<path  fill="#FF90FE" stroke-width="0" stroke="#FF90FE" d = " M169 105 C169,101.57 185.117,92.6915 188.5,91 194.688,87.9058 199.257,82.1215 205.5,79 212.218,75.641 221.841,80.1703 227.5,83 230.075,84.2877 241.153,75.8263 245.5,78 L252.5,80 L264.5,89 C268.15,90.8252 287,101.394 287,105 291.794,105 299,96.8574 299,93 293.884,93 289.86,86.1798 285.5,84 274.592,78.5462 262.343,67 249.5,67 245.574,67 240.848,69.3261 237.5,71 235.773,71.8636 232.358,79.4289 229.5,78 227.603,77.0515 226.778,78.6392 225.5,78 225.5,78 218.5,71 218.5,71 211.87,67.685 202.652,66.424 195.5,70 185.946,74.7769 177.111,81.1943 167.5,86 163.263,88.1187 162.207,93 157,93 157,97.2717 164.964,105 169,105  Z"/>

<path  fill="#FF7AFD" stroke-width="0" stroke="#FF7AFD" d = " M163 76 L164,76 C164,76 165,75 165,75 165,72.2802 167,71.4471 167,69 164.526,69 163,74.251 163,76  Z"/>

<path  fill="#33B932" stroke-width="0" stroke="#33B932" d = " M141 72 C145.137,72 146.357,86 151,86 151,86 161,71 161,71 161,71 159,71 159,71 159,71 157,71 157,71 157,71 148,71 148,71 146.353,71 141,68.9992 141,72  Z"/>

<path  fill="#33B932" stroke-width="0" stroke="#33B932" d = " M315 71 C315,76.7207 306,81.6009 306,87 306,87 304,83.5 304,83.5 302.266,80.0314 296,74.8993 296,71 296,71 297,71 297,71 297,71 300,71 300,71 300,71 309,71 309,71 311.413,71 312.587,71 315,71  Z"/>

<path  fill="#08828B" stroke-width="0" stroke="#08828B" d = " M75 86 L77,89 C80.7689,89 88.5683,77 94,77 94,77 94,76 94,76 94,76 91,71 91,71 91,71 90,71 90,71 90,71 75,86 75,86  Z"/>

<path  fill="#47C83C" stroke-width="0" stroke="#47C83C" d = " M318 109 L343,109 C343,100.749 334,94.3926 334,86 334,86 331,81 331,81 331,81 329,79 329,79 329,79 321,74 321,74 321,74 317,72 317,72 317,72 315,71 315,71 315,76.7207 306,81.6009 306,87 306,87 315.5,104 315.5,104 315.5,104 318,109 318,109  Z"/>

<path  fill="#08828B" stroke-width="0" stroke="#08828B" d = " M382 87 L379,89 C376.027,89 367.239,77 363,77 363,77 363,76 363,76 363,76 365,71 365,71 365,71 366,71 366,71 366,71 382,86 382,86 382,86 382,87 382,87  Z"/>

<path  fill="#47C83C" stroke-width="0" stroke="#47C83C" d = " M113 109 L139,109 C139,103.272 151,89.3147 151,86 146.357,86 145.137,72 141,72 141,72 139,72 139,72 139,72 135,74 135,74 135,74 127,79 127,79 127,79 126,80 126,80 126,80 125,81 125,81 125,81 125,82 125,82 125,82 124,83 124,83 124,83 123,84 123,84 123,84 123,86 123,86 123,86 122,87 122,87 122,95.1185 113,101.323 113,109  Z"/>

<path  fill="#FF78FF" stroke-width="0" stroke="#FF78FF" d = " M165 75 L164,76 C164,76 165,75 165,75  Z"/>

<path  fill="#0B858B" stroke-width="0" stroke="#0B858B" d = " M91 91 L92,91 C92,88.9757 97.8293,85 99,85 99,85 99,84 99,84 96.2649,84 96.627,77 94,77 88.5683,77 80.7689,89 77,89 77,89 77,90 77,90 79.0786,90 80.1871,91 83,91 83,91 91,91 91,91  Z"/>

<path  fill="#0B858B" stroke-width="0" stroke="#0B858B" d = " M365 91 L373,91 C374.999,91 379,90.8247 379,90 379,90 379,89 379,89 376.027,89 367.239,77 363,77 360.129,77 358,82.9475 358,85 358,85 364,91 364,91 364,91 365,91 365,91  Z"/>

<path  fill="#0C858C" stroke-width="0" stroke="#0C858C" d = " M58 88 L61,91 C61,91 69,81 69,81 69,81 69,80 69,80 69,80 67,78 67,78 67,78 58,88 58,88  Z"/>

<path  fill="#08858A" stroke-width="0" stroke="#08858A" d = " M104 93 L105,93 C105,93 106,92 106,92 106,92 107,91 107,91 107,91 108,91 108,91 108,91 109,90 109,90 109,90 111,89 111,89 111,89 113,88 113,88 113,88 115,87 115,87 115,85.4226 116.762,85 118,85 118,83.0518 123.428,81 125,81 125,81 126,80 126,80 126,80 127,79 127,79 127,76.4178 118.75,82.3752 117.5,83 115.21,84.1448 103,89.3135 103,92 103,92 103,93 103,93 103,93 104,93 104,93  Z"/>

<path  fill="#FF8FFF" stroke-width="0" stroke="#FF8FFF" d = " M190 113 C190,111.577 188.022,109.456 189,107.5 193.464,98.572 201.761,91.3694 210.5,87 L228,88 L245.5,87 C256.966,92.7332 267,99.8515 267,114 267,114 277.5,116 277.5,116 280.942,114.279 287,108.698 287,105 287,101.394 268.15,90.8252 264.5,89 264.5,89 252.5,80 252.5,80 252.5,80 245.5,78 245.5,78 241.153,75.8263 230.075,84.2877 227.5,83 221.841,80.1703 212.218,75.641 205.5,79 199.257,82.1215 194.688,87.9058 188.5,91 185.117,92.6915 169,101.57 169,105 169,107.798 170.536,108.036 172,109.5 176.076,113.576 179.926,118.287 186.5,115 186.5,115 190,113 190,113  Z"/>

<path  fill="#08858A" stroke-width="0" stroke="#08858A" d = " M353 92 L353,93 C353,93 350,92 350,92 350,89.813 330,80.2877 330,79 330,77.2937 336.237,81.3685 337.5,82 339.401,82.9507 353,90.7018 353,92  Z"/>

<path  fill="#0C858C" stroke-width="0" stroke="#0C858C" d = " M395 91 L396,91 C396,91 398,88 398,88 398,86.8156 391.14,78 390,78 390,78 387,80 387,80 387,80 387,81 387,81 387,81 395,91 395,91  Z"/>

<path  fill="#C9C9CA" stroke-width="0" stroke="#C9C9CA" d = " M127 79 L126,80 C126,80 127,79 127,79  Z"/>

<path  fill-rule="evenodd" fill="#FF64FF" stroke-width="0" stroke="#FF64FF" d = " M315 142 C315,143.583 313,144.407 313,146.5 L313,150.5 C313,163.103 324.101,142 315,142  M305 177 C301.687,177 300.51,181 298,181 298,175.882 301.737,170.973 299,165.5 297.569,162.639 291,157.312 291,155 291,155 298,148 298,148 298,165.047 322.425,147.962 308.5,141 305.208,139.354 302.617,143 300,143 300,138.893 299,134.531 299,131 304.03,131 311.639,134.222 315,127.5 317.37,122.76 309.429,103 305.5,103 300.201,103 294,120.881 294,125 294,125 290.5,121 290.5,121 287.809,119.654 278.999,117.25 275.5,119 273.239,120.131 267.262,125 265,125 265,125 265,120 265,120 267.698,120 267,115.745 267,114 267,114 277.5,116 277.5,116 280.942,114.279 287,108.698 287,105 291.794,105 299,96.8574 299,93 299,84.841 293,80.2685 293,80 293,80 293,79 293,79 295.567,79 303,88.8678 303,91 300.918,91 302.53,96.5609 303,97.5 305.261,102.022 311.17,105.84 313,109.5 314.784,113.067 317,119.896 317,124 317,124 317.5,131 317.5,131 317.5,131 320,130 320,130 320,136.019 324.003,148.495 321,154.5 321,154.5 319,161 319,161 313.257,161 317.93,171 314,171 314,158.089 305,169.616 305,177  Z"/>

<path  fill="#C9C9CA" stroke-width="0" stroke="#C9C9CA" d = " M331 81 L350,92 C350,89.813 330,80.2877 330,79 330,79 329,79 329,79 329,79 331,81 331,81  Z"/>

<path  fill="#C9C9CA" stroke-width="0" stroke="#C9C9CA" d = " M126 80 L125,81 C125,81 126,80 126,80  Z"/>

<path  fill="#FF64FF" stroke-width="0" stroke="#FF64FF" d = " M163 80 L162,81 C162,81 163,80 163,80  Z"/>

<path  fill="#0A858A" stroke-width="0" stroke="#0A858A" d = " M69 92 L68,93 C65.0814,93 63.7574,91 61,91 61,91 69,81 69,81 69,81 74,86 74,86 74,86 71,91 71,91 71,91 69,92 69,92  Z"/>

<path  fill="#C9C9CA" stroke-width="0" stroke="#C9C9CA" d = " M123 83 L124,83 C124,83 125,82 125,82 125,82 125,81 125,81 123.428,81 118,83.0518 118,85 118,85 123,83 123,83  Z"/>

<path  fill="#FF64FF" stroke-width="0" stroke="#FF64FF" d = " M162 81 L161,82 C161,82 162,81 162,81  Z"/>

<path  fill="#C8CBCC" stroke-width="0" stroke="#C8CBCC" d = " M376 115 L377,118 C371.308,118 358.588,95 349,95 349,95 348,94 348,94 348,94 347,93 347,93 347,93 345,93 345,93 345,93 334,86 334,86 334,86 331,81 331,81 331,81 350,92 350,92 350,92 353,93 353,93 353,93 354,94 354,94 354,94 355,95 355,95 355,95 363,101 363,101 363,101 365,103 365,103 365,103 366,103 366,103 366,104.338 370.41,110 372,110 372,110 373,112 373,112 373,112 374,113 374,113 374,113 375,114 375,114 375,114 376,115 376,115  Z"/>

<path  fill="#0A858A" stroke-width="0" stroke="#0A858A" d = " M386 92 L387,92 C388.49,92 395,92.7349 395,91 395,91 387,81 387,81 387,81 382,86 382,86 382,86 382,87 382,87 383.533,87 386,90.7527 386,92  Z"/>

<path  fill="#7DCD4B" stroke-width="0" stroke="#7DCD4B" d = " M125 82 L124,83 C124,83 125,82 125,82  Z"/>

<path  fill="#FF64FF" stroke-width="0" stroke="#FF64FF" d = " M161 82 L160,83 C160,83 161,82 161,82  Z"/>

<path  fill="#C8CBCC" stroke-width="0" stroke="#C8CBCC" d = " M80 116 L80,118 C85.492,118 98.4883,95 107,95 107,95 108,94 108,94 108,94 109,93 109,93 109,93 111,93 111,93 111,91.6837 120.232,87 122,87 122,87 123,86 123,86 123,86 123,84 123,84 123,84 123,83 123,83 123,83 118,85 118,85 118,86.5774 116.238,87 115,87 115,87 113,88 113,88 113,88 111,89 111,89 111,89 109,90 109,90 109,90 108,91 108,91 108,91 107,91 107,91 107,91 106,92 106,92 106,92 105,93 105,93 105,93 104,93 104,93 104,93 103,94 103,94 103,94 101,95 101,95 101,95 100,96 100,96 98.0533,96 97.3644,99 95,99 95,99 95,100 95,100 95,100 94,101 94,101 94,101 91,103 91,103 91,103 87,107 87,107 87,108.747 86.7469,109 85,109 85,109 85,110 85,110 85,110 84,111 84,111 84,111 83,112 83,112 83,112 82,113 82,113 82,113 81,115 81,115 81,115 80,116 80,116  Z"/>

<path  fill="#7DCD4B" stroke-width="0" stroke="#7DCD4B" d = " M124 83 L123,84 C123,84 123,83 123,83 123,83 124,83 124,83  Z"/>

<path  fill="#FF64FF" stroke-width="0" stroke="#FF64FF" d = " M159 84 L158,85 C158,85 159,84 159,84  Z"/>

<path  fill="#08848C" stroke-width="0" stroke="#08848C" d = " M102 92 L100,93 C96.9853,93 93.9958,91 92,91 92,88.9757 97.8293,85 99,85 99,85 102,92 102,92  Z"/>

<path  fill="#C9C9CA" stroke-width="0" stroke="#C9C9CA" d = " M118 85 C116.762,85 115,85.4226 115,87 116.238,87 118,86.5774 118,85  Z"/>

<path  fill="#FF64FF" stroke-width="0" stroke="#FF64FF" d = " M162 125 C164.743,125 173.058,115.279 180.5,119 L187.5,122 L192,126 C192,126 192,120 192,120 188.864,120 190,115.529 190,113 190,113 186.5,115 186.5,115 179.926,118.287 176.076,113.576 172,109.5 170.536,108.036 169,107.798 169,105 164.964,105 157,97.2717 157,93 157,93 158,85 158,85 158,85 153,91 153,91 155.36,91 153.428,96.6447 153,97.5 149.037,105.426 141,109.361 141,119 141.347,119 147.423,105.038 149.5,104 156.257,100.622 162,119.631 162,125  Z"/>

<path  fill="#08848C" stroke-width="0" stroke="#08848C" d = " M364 91 C364,95.2369 355.541,92 354,92 354,92 357,85 357,85 357,85 358,85 358,85 358,85 364,91 364,91  Z"/>

<path  fill="#08828C" stroke-width="0" stroke="#08828C" d = " M76 91 L74,92 C74,92 71,91 71,91 71,91 74,86 74,86 74,86 75,86 75,86 75,86 77,89 77,89 77,89 77,90 77,90 77,90 76,91 76,91  Z"/>

<path  fill="#7DCD4B" stroke-width="0" stroke="#7DCD4B" d = " M123 86 L122,87 C122,87 123,86 123,86  Z"/>

<path  fill="#7DCD4B" stroke-width="0" stroke="#7DCD4B" d = " M377 118 C377,124.458 384.597,145.306 381,152.5 379.475,155.551 377,163.759 377,167 372.159,167 372.712,150.923 371,147.5 364.373,134.246 367.433,115.466 350.5,107 347.644,105.572 345.947,109 344,109 344,109 343,109 343,109 343,100.749 334,94.3926 334,86 334,86 345,93 345,93 337.431,93 350,102.116 350,96.5 350,96.5 349,95 349,95 358.588,95 371.308,118 377,118  Z"/>

<path  fill="#C9C9CA" stroke-width="0" stroke="#C9C9CA" d = " M115 87 L113,88 C113,88 115,87 115,87  Z"/>

<path  fill="#7DCD4B" stroke-width="0" stroke="#7DCD4B" d = " M80 118 C77.6226,118 77,126.683 77,129 77,137.476 77,148.539 77,157 77,159.155 77.5254,167 80,167 83.1787,167 84.5846,148.331 86,145.5 93.0074,131.485 88.7002,115.9 106.5,107 109.356,105.572 111.053,109 113,109 113,101.323 122,95.1185 122,87 120.232,87 111,91.6837 111,93 118.119,93 107,103.213 107,95 98.4883,95 85.492,118 80,118  Z"/>

<path  fill="#FF8FFE" stroke-width="0" stroke="#FF8FFE" d = " M192 120 C192,105.624 198.636,95.4322 211.5,89 216.151,86.6743 223.193,91 227.5,91 232.176,91 239.932,86.7159 244.5,89 256.891,95.1956 265,105.939 265,120 267.698,120 267,115.745 267,114 267,99.8515 256.966,92.7332 245.5,87 245.5,87 228,88 228,88 228,88 210.5,87 210.5,87 201.761,91.3694 193.464,98.572 189,107.5 188.022,109.456 190,111.577 190,113 190,115.529 188.864,120 192,120  Z"/>

<path  fill="#08828C" stroke-width="0" stroke="#08828C" d = " M382 91 L386,92 C386,90.7527 383.533,87 382,87 382,87 379,89 379,89 379,89 379,90 379,90 379,90 380,90 380,90 380,90 382,91 382,91  Z"/>

<path  fill="#09818C" stroke-width="0" stroke="#09818C" d = " M44 141 L42,142 C42,142 40,140.5 40,140.5 39.443,139.386 39.5898,135 38,135 38,135 37,134 37,134 37,114.66 42.0313,114.437 50,98.5 50,98.5 58,88 58,88 58,88 61,91 61,91 61,91 49,107.5 49,107.5 47.1198,111.26 39.7292,125.958 42,130.5 43.0004,132.501 44,137.877 44,140 44,140 44,141 44,141  Z"/>

<path  fill="#C9C9CA" stroke-width="0" stroke="#C9C9CA" d = " M113 88 L111,89 C111,89 113,88 113,88  Z"/>

<path  fill="#09818C" stroke-width="0" stroke="#09818C" d = " M413 140 L415,142 C415,140.233 417.41,135 419,135 419,135 420,134 420,134 420,117.546 413.573,112.647 407,99.5 405.954,97.4081 400.753,88 398,88 398,88 396,91 396,91 396,91 408,108.5 408,108.5 414.276,121.053 413,126.067 413,140  Z"/>

<path  fill="#C9C9CA" stroke-width="0" stroke="#C9C9CA" d = " M111 89 L109,90 C109,90 111,89 111,89  Z"/>

<path  fill="#FC8FFF" stroke-width="0" stroke="#FC8FFF" d = " M242 150 L244,151 C257.189,151 264,138.87 264,127 264,127 265,125 265,125 265,125 265,120 265,120 265,105.939 256.891,95.1956 244.5,89 239.932,86.7159 232.176,91 227.5,91 223.193,91 216.151,86.6743 211.5,89 198.636,95.4322 192,105.624 192,120 192,120 192,126 192,126 192,138.054 198.488,151 212,151 212,149.527 213.952,150 215,150 215,146.392 216.774,148 219,148 219,147.073 223,147.906 223,145 223,142.183 222.949,130 226,130 226,128.679 225.316,124 227,124 227,124 222,117.5 222,117.5 221.312,116.123 226.853,108 228.5,108 228.5,108 231,112.5 231,112.5 231,112.5 234,115.5 234,115.5 235.743,118.985 230,121.092 230,124 230,125.564 231,127.876 231,130 231,133.228 233,139.486 233,145 233,145 237,148 237,148 239.313,148 242,145.727 242,150  Z"/>

<path  fill="#0A848A" stroke-width="0" stroke="#0A848A" d = " M77 90 L76,91 C76,91 77,90 77,90  Z"/>

<path  fill="#0B838A" stroke-width="0" stroke="#0B838A" d = " M58 133 C56.0256,133 54.4827,135 52,135 52,126.144 60,115.811 60,111 60,111 65,102.5 65,102.5 65,102.5 74,92 74,92 74,92 76,91 76,91 76,91 77,90 77,90 79.0786,90 80.1871,91 83,91 83,91 86,97 86,97 86,97 80.5,104 80.5,104 75.3708,109.129 65,121.757 65,129 65,129 64,130 64,130 64,130 58,133 58,133  Z"/>

<path  fill="#C9C9CA" stroke-width="0" stroke="#C9C9CA" d = " M109 90 L108,91 C108,91 109,90 109,90  Z"/>

<path  fill="#0B838A" stroke-width="0" stroke="#0B838A" d = " M398 133 L404,135 C404,125.333 397,117.098 397,111 394.622,111 385.888,92 382,92 382,92 380,90 380,90 380,90 379,90 379,90 379,90.8247 374.999,91 373,91 373,92.4082 371.803,96 370,96 370,96 370,97 370,97 372.061,97 373.975,102.475 375.5,104 378.563,107.063 393,127.13 393,130 393,130 398,133 398,133  Z"/>

<path  fill="#0A848A" stroke-width="0" stroke="#0A848A" d = " M382 91 L382,92 C382,92 380,90 380,90 380,90 382,91 382,91  Z"/>

<path  fill="#0A8389" stroke-width="0" stroke="#0A8389" d = " M52 136 L44,140 C44,137.877 43.0004,132.501 42,130.5 39.7292,125.958 47.1198,111.26 49,107.5 49,107.5 61,91 61,91 63.7574,91 65.0814,93 68,93 68,97.5603 61.0405,101.419 59,105.5 58.3668,106.766 56.809,111 60,111 60,115.811 52,126.144 52,135 52,135 52,136 52,136  Z"/>

<path  fill="#0A828A" stroke-width="0" stroke="#0A828A" d = " M68 93 C68,97.5603 61.0405,101.419 59,105.5 58.3668,106.766 56.809,111 60,111 60,111 65,102.5 65,102.5 65,102.5 74,92 74,92 74,92 71,91 71,91 71,91 69,92 69,92 69,92 68,93 68,93  Z"/>

<path  fill="#0B838C" stroke-width="0" stroke="#0B838C" d = " M86 97 L87,97 C87,94.4195 91,93.789 91,91 91,91 83,91 83,91 83,91 86,97 86,97  Z"/>

<path  fill="#08838C" stroke-width="0" stroke="#08838C" d = " M95 99 C92.6356,99 91.9467,102 90,102 88.5232,102 87,98.0757 87,97 87,94.4195 91,93.789 91,91 91,91 92,91 92,91 93.9958,91 96.9853,93 100,93 100,96.0046 95,96.1711 95,99  Z"/>

<path  fill="#C9C9CA" stroke-width="0" stroke="#C9C9CA" d = " M107 91 L106,92 C106,92 107,91 107,91  Z"/>

<path  fill="#C9C8C8" stroke-width="0" stroke="#C9C8C8" d = " M141 119 C138.123,119 141.674,129.913 139.5,131 136.393,132.553 137.723,128 136,128 136,118.884 140.13,104.37 146.5,98 146.5,98 153,91 153,91 155.36,91 153.428,96.6447 153,97.5 149.037,105.426 141,109.361 141,119  Z"/>

<path  fill="#C9C8C8" stroke-width="0" stroke="#C9C8C8" d = " M303 91 C306.092,91 309.991,98.4811 311,100.5 315.986,110.472 320,117.79 320,130 320,130 317.5,131 317.5,131 317.5,131 317,124 317,124 317,119.896 314.784,113.067 313,109.5 311.17,105.84 305.261,102.022 303,97.5 302.53,96.5609 300.918,91 303,91  Z"/>

<path  fill="#08838C" stroke-width="0" stroke="#08838C" d = " M370 97 L367,102 C367,102 354,92 354,92 355.541,92 364,95.2369 364,91 364,91 365,91 365,91 365,91 370,96 370,96 370,96 370,97 370,97  Z"/>

<path  fill="#0B838C" stroke-width="0" stroke="#0B838C" d = " M373 91 C373,92.4082 371.803,96 370,96 370,96 365,91 365,91 365,91 373,91 373,91  Z"/>

<path  fill="#0A828A" stroke-width="0" stroke="#0A828A" d = " M387 92 L390.5,96 C391.908,97.4085 401.941,111 397,111 394.622,111 385.888,92 382,92 382,92 382,91 382,91 382,91 386,92 386,92 386,92 387,92 387,92  Z"/>

<path  fill="#0A8389" stroke-width="0" stroke="#0A8389" d = " M412 140 L413,140 C413,126.067 414.276,121.053 408,108.5 408,108.5 396,91 396,91 396,91 395,91 395,91 395,92.7349 388.49,92 387,92 387,92 390.5,96 390.5,96 391.908,97.4085 401.941,111 397,111 397,117.098 404,125.333 404,135 404,135 404,136 404,136 404,136 412,140 412,140  Z"/>

<path  fill="#0A8389" stroke-width="0" stroke="#0A8389" d = " M69 92 L68,93 C68,93 69,92 69,92  Z"/>

<path  fill="#08838C" stroke-width="0" stroke="#08838C" d = " M102 92 L100,93 C100,93 102,92 102,92  Z"/>

<path  fill="#08848A" stroke-width="0" stroke="#08848A" d = " M100 96 C98.0533,96 97.3644,99 95,99 95,96.1711 100,96.0046 100,93 100,93 102,92 102,92 102,92 103,92 103,92 103,92 103,93 103,93 103,93 103,94 103,94 103,94 101,95 101,95 101,95 100,96 100,96  Z"/>

<path  fill="#C9C9CA" stroke-width="0" stroke="#C9C9CA" d = " M106 92 L105,93 C105,93 106,92 106,92  Z"/>

<path  fill="#08848A" stroke-width="0" stroke="#08848A" d = " M366 103 L367,103 C367,103 367,102 367,102 367,102 354,92 354,92 354,92 353,92 353,92 353,92 353,93 353,93 353,93 354,94 354,94 354,94 355,95 355,95 355,95 363,101 363,101 363,101 365,103 365,103 365,103 366,103 366,103  Z"/>

<path  fill="#C9C9CA" stroke-width="0" stroke="#C9C9CA" d = " M104 93 L103,94 C103,94 103,93 103,93 103,93 104,93 104,93  Z"/>

<path  fill="#7DCD4B" stroke-width="0" stroke="#7DCD4B" d = " M109 93 L108,94 C108,94 109,93 109,93  Z"/>

<path  fill="#C9CCC9" stroke-width="0" stroke="#C9CCC9" d = " M108 94 L107,95 C107,103.213 118.119,93 111,93 111,93 109,93 109,93 109,93 108,94 108,94  Z"/>

<path  fill="#C9CCC9" stroke-width="0" stroke="#C9CCC9" d = " M348 94 L349,95 C349,95 350,96.5 350,96.5 350,102.116 337.431,93 345,93 345,93 347,93 347,93 347,93 348,94 348,94  Z"/>

<path  fill="#7DCD4B" stroke-width="0" stroke="#7DCD4B" d = " M347 93 L348,94 C348,94 347,93 347,93  Z"/>

<path  fill="#7DCD4B" stroke-width="0" stroke="#7DCD4B" d = " M108 94 L107,95 C107,95 108,94 108,94  Z"/>

<path  fill="#C9C9CA" stroke-width="0" stroke="#C9C9CA" d = " M354 94 L355,95 C355,95 354,94 354,94  Z"/>

<path  fill="#C9C9CA" stroke-width="0" stroke="#C9C9CA" d = " M101 95 L100,96 C100,96 101,95 101,95  Z"/>

<path  fill="#0C858B" stroke-width="0" stroke="#0C858B" d = " M80 116 C77.7396,116 70.8309,129 65,129 65,121.757 75.3708,109.129 80.5,104 80.5,104 86,97 86,97 86,97 87,97 87,97 87,98.0757 88.5232,102 90,102 90,102 90,103 90,103 88.2884,103 87,105.571 87,107 87,107 85,109 85,109 85,109 85,110 85,110 85,110 84,111 84,111 84,111 83,112 83,112 83,112 82,113 82,113 82,113 81,115 81,115 81,115 80,116 80,116  Z"/>

<path  fill="#0C858B" stroke-width="0" stroke="#0C858B" d = " M391 129 L393,130 C393,127.13 378.563,107.063 375.5,104 373.975,102.475 372.061,97 370,97 370,97 367,102 367,102 367,102 367,103 367,103 367,103 372,110 372,110 372,110 373,112 373,112 373,112 374,113 374,113 374,113 375,114 375,114 375,114 376,115 376,115 377.612,115 385.66,129 391,129  Z"/>

<path  fill="#08848A" stroke-width="0" stroke="#08848A" d = " M90 103 L91,103 C91,103 94,101 94,101 94,101 95,100 95,100 95,100 95,99 95,99 92.6356,99 91.9467,102 90,102 90,102 90,103 90,103  Z"/>

<path  fill="#C9C9CA" stroke-width="0" stroke="#C9C9CA" d = " M95 100 L94,101 C94,101 95,100 95,100  Z"/>

<path  fill="#C9C9CA" stroke-width="0" stroke="#C9C9CA" d = " M363 101 L365,103 C365,103 363,101 363,101  Z"/>

<path  fill="#0C848C" stroke-width="0" stroke="#0C848C" d = " M91 103 L87,107 C87,105.571 88.2884,103 90,103 90,103 91,103 91,103  Z"/>

<path  fill="#FE79FE" stroke-width="0" stroke="#FE79FE" d = " M158 131 L157,132 C145.941,132 141,130.965 141,119 141.347,119 147.423,105.038 149.5,104 156.257,100.622 162,119.631 162,125 162,127.473 162.321,131 158,131  Z"/>

<path  fill="#FE79FE" stroke-width="0" stroke="#FE79FE" d = " M294 125 C294,128.71 294.914,131 299,131 304.03,131 311.639,134.222 315,127.5 317.37,122.76 309.429,103 305.5,103 300.201,103 294,120.881 294,125  Z"/>

<path  fill="#0C848C" stroke-width="0" stroke="#0C848C" d = " M367 103 L372,110 C370.41,110 366,104.338 366,103 366,103 367,103 367,103  Z"/>

<path  fill="#0C848C" stroke-width="0" stroke="#0C848C" d = " M87 107 L85,109 C86.7469,109 87,108.747 87,107  Z"/>

<path  fill="#32B623" stroke-width="0" stroke="#32B623" d = " M79 198 L79,199 C82.1764,199 86.2761,205.612 89.5,204 95.2449,201.128 91.8797,194.741 94,190.5 98.8282,180.844 95.1288,153.242 101,141.5 102.681,138.139 107.84,115 112,115 112,115 113,114 113,114 113,114 113,109 113,109 111.053,109 109.356,105.572 106.5,107 88.7002,115.9 93.0074,131.485 86,145.5 84.5846,148.331 83.1787,167 80,167 80,176.829 79,187.581 79,198  Z"/>

<path  fill="#32B623" stroke-width="0" stroke="#32B623" d = " M377 167 L378,198 C374.466,198 370.673,206.086 366.5,204 360.854,201.177 364.221,191.942 362,187.5 357.461,178.422 361.322,154.144 356,143.5 354.024,139.547 349.742,115 344,115 344,115 344,109 344,109 345.947,109 347.644,105.572 350.5,107 367.433,115.466 364.373,134.246 371,147.5 372.712,150.923 372.159,167 377,167  Z"/>

<path  fill="#A9A9A8" stroke-width="0" stroke="#A9A9A8" d = " M227 124 C227,126.373 229.284,124 230,124 230,121.092 235.743,118.985 234,115.5 234,115.5 231,112.5 231,112.5 231,112.5 228.5,108 228.5,108 226.853,108 221.312,116.123 222,117.5 222,117.5 227,124 227,124  Z"/>

<path  fill="#59B847" stroke-width="0" stroke="#59B847" d = " M112 119 C113.325,119 114.43,124.361 115,125.5 116.003,127.505 127.058,141 129,141 129,135.258 139,114.204 139,109 139,109 113,109 113,109 113,109 113,114 113,114 113,114 112,115 112,115 112,115 112,119 112,119  Z"/>

<path  fill="#59B847" stroke-width="0" stroke="#59B847" d = " M345 119 C344.716,119 331.967,141 327,141 327,130.42 318,119.646 318,109 318,109 343,109 343,109 343,109 344,109 344,109 344,109 344,115 344,115 344,115 345,119 345,119  Z"/>

<path  fill="#0C848C" stroke-width="0" stroke="#0C848C" d = " M85 110 L84,111 C84,111 85,110 85,110  Z"/>

<path  fill="#0C848C" stroke-width="0" stroke="#0C848C" d = " M84 111 L83,112 C83,112 84,111 84,111  Z"/>

<path  fill="#0C848C" stroke-width="0" stroke="#0C848C" d = " M373 112 L374,113 C374,113 373,112 373,112  Z"/>

<path  fill="#7DCD4B" stroke-width="0" stroke="#7DCD4B" d = " M82 113 L81,115 C81,115 82,113 82,113  Z"/>

<path  fill="#7DCD4B" stroke-width="0" stroke="#7DCD4B" d = " M374 113 L375,114 C375,114 374,113 374,113  Z"/>

<path  fill="#30B724" stroke-width="0" stroke="#30B724" d = " M113 114 L112,115 C112,115 113,114 113,114  Z"/>

<path  fill="#32B824" stroke-width="0" stroke="#32B824" d = " M81 115 L80,116 C80,116 81,115 81,115  Z"/>

<path  fill="#30B724" stroke-width="0" stroke="#30B724" d = " M77 213 L77,214 C82.9269,214 92.3245,221.851 97,212.5 97,212.5 103,195.5 103,195.5 103.574,194.353 101.936,191 104,191 104,180.131 99.9791,164.542 105,154.5 105,154.5 105,147.5 105,147.5 107.499,142.502 112,124.55 112,119 112,119 112,115 112,115 107.84,115 102.681,138.139 101,141.5 95.1288,153.242 98.8282,180.844 94,190.5 91.8797,194.741 95.2449,201.128 89.5,204 86.2761,205.612 82.1764,199 79,199 79,203.366 77,208.272 77,213  Z"/>

<path  fill="#30B724" stroke-width="0" stroke="#30B724" d = " M378 198 L379,214 C375.088,214 370.149,219.325 365.5,217 356.48,212.49 353,198.983 353,189 353,180.33 353.815,151.131 351,145.5 348.114,139.727 345,125.818 345,119 345,119 344,115 344,115 349.742,115 354.024,139.547 356,143.5 361.322,154.144 357.461,178.422 362,187.5 364.221,191.942 360.854,201.177 366.5,204 370.673,206.086 374.466,198 378,198  Z"/>

<path  fill="#32B824" stroke-width="0" stroke="#32B824" d = " M377 167 L378,198 C381.666,198 387.706,186.088 389,183.5 398.763,163.975 391,149.788 391,129 385.66,129 377.612,115 376,115 376,115 377,118 377,118 377,124.458 384.597,145.306 381,152.5 379.475,155.551 377,163.759 377,167  Z"/>

<path  fill="#32B824" stroke-width="0" stroke="#32B824" d = " M80 167 C80,176.829 79,187.581 79,198 75.5393,198 70.4221,189.344 69,186.5 56.3791,161.258 65,155.485 65,130 65,130 65,129 65,129 70.8309,129 77.7396,116 80,116 80,116 80,118 80,118 77.6226,118 77,126.683 77,129 77,137.476 77,148.539 77,157 77,159.155 77.5254,167 80,167  Z"/>

<path  fill="#72D568" stroke-width="0" stroke="#72D568" d = " M111 206 L113,208 C115.644,208 115.969,195.562 117,193.5 122.104,183.292 119.915,169.67 125,159.5 125,159.5 125,154.5 125,154.5 126.947,150.607 129,145.641 129,141 127.058,141 116.003,127.505 115,125.5 114.43,124.361 113.325,119 112,119 112,124.55 107.499,142.502 105,147.5 105,147.5 105,154.5 105,154.5 99.9791,164.542 104,180.131 104,191 104,191 108,201 108,201 108,201 111,206 111,206  Z"/>

<path  fill-rule="evenodd" fill="#FF64FF" stroke-width="0" stroke="#FF64FF" d = " M140 142 C140,143.583 138,144.407 138,146.5 L138,150.5 C143.598,161.695 146.458,142 140,142  M167 189 C164.876,189 162.564,190 161,190 161,183.839 156.917,177 151,177 151,168.869 143,157.838 143,171 138.287,171 142.981,161 137,161 137,150.76 136,138.912 136,128 137.723,128 136.393,132.553 139.5,131 141.674,129.913 138.123,119 141,119 141,130.965 145.941,132 157,132 157,135.886 157,140.219 157,144 154.678,144 152.67,141 149.5,141 138.225,141 146.817,162.683 156,153.5 157.463,152.037 159,151.117 159,149 159,149 166,155 166,155 166,156.62 152.035,167.571 157,177.5 158.62,180.74 160.676,183.176 163.5,186 163.5,186 167,189 167,189  Z"/>

<path  fill="#FF8FFD" stroke-width="0" stroke="#FF8FFD" d = " M217 173 L214,175 C214,175 214,171 214,171 214,168.323 198.468,166.016 196.5,167 196.5,167 194,169 194,169 194,165.132 191.777,162.638 188.5,161 188.5,161 182.5,153 182.5,153 176.095,149.798 171.495,155 166,155 166,155 159,149 159,149 159,149 159,148 159,148 159,148 158,147 158,147 158,147 157,144 157,144 157,140.219 157,135.886 157,132 157,132 158,131 158,131 162.321,131 162,127.473 162,125 164.743,125 173.058,115.279 180.5,119 180.5,119 187.5,122 187.5,122 187.5,122 192,126 192,126 192,138.054 198.488,151 212,151 212,151 213,153 213,153 204.253,153 217,165.361 217,157 217,157 218,157 218,157 218,158.747 218.253,159 220,159 220,159 220,167 220,167 220,167 218,171 218,171 218,171 217,172 217,172 217,172 217,173 217,173  Z"/>

<path  fill="#FF8FFD" stroke-width="0" stroke="#FF8FFD" d = " M239 173 C241.215,173 240.519,175 242,175 242,175 242,172 242,172 242,168.374 256.603,165.551 259.5,167 259.5,167 263,169 263,169 263,161.755 271.793,154.853 277.5,152 281.835,149.832 287.223,155 291,155 291,155 298,148 298,148 298,148 299,144 299,144 299,144 300,143 300,143 300,138.893 299,134.531 299,131 294.914,131 294,128.71 294,125 294,125 290.5,121 290.5,121 287.809,119.654 278.999,117.25 275.5,119 273.239,120.131 267.262,125 265,125 265,125 264,127 264,127 264,138.87 257.189,151 244,151 244,151 243,153 243,153 246.068,153 247.57,157.465 244.5,159 242.544,159.978 240.423,158 239,158 239,158 236,159 236,159 236,159 236,163 236,163 236,163 236,166 236,166 236,166 237,167 237,167 237,167 239,173 239,173  Z"/>

<path  fill="#72D568" stroke-width="0" stroke="#72D568" d = " M346 206 L343,208 C343,205.557 334.33,171.161 333,168.5 330.787,164.074 333.222,156.945 331,152.5 331,152.5 327,141 327,141 331.967,141 344.716,119 345,119 345,125.818 348.114,139.727 351,145.5 353.815,151.131 353,180.33 353,189 352.432,189 349,199.732 349,201 347.523,201 346,204.924 346,206  Z"/>

<path  fill="#FF64FF" stroke-width="0" stroke="#FF64FF" d = " M226 130 C227.467,130 229.533,130 231,130 231,127.876 230,125.564 230,124 229.284,124 227,126.373 227,124 225.316,124 226,128.679 226,130  Z"/>

<path  fill="#FF64FF" stroke-width="0" stroke="#FF64FF" d = " M265 125 L264,127 C264,127 265,125 265,125  Z"/>

<path  fill="#0C858B" stroke-width="0" stroke="#0C858B" d = " M64 130 L65,130 C65,130 65,129 65,129 65,129 64,130 64,130  Z"/>

<path  fill="#FDA6FF" stroke-width="0" stroke="#FDA6FF" d = " M231 162 L231,163 C231,163 227.5,165 227.5,165 227.5,165 225,161 225,161 225,161 225,160 225,160 225,158.41 223.897,145 223,145 223,142.183 222.949,130 226,130 227.467,130 229.533,130 231,130 231,133.228 233,139.486 233,145 233,151.27 231,156.142 231,162  Z"/>

<path  fill="#31B824" stroke-width="0" stroke="#31B824" d = " M379 214 L380,214 C380,214 387,206.5 387,206.5 390.885,198.73 397.162,192.176 401,184.5 406.999,172.501 398,145.688 398,133 398,133 393,130 393,130 393,130 391,129 391,129 391,149.788 398.763,163.975 389,183.5 387.706,186.088 381.666,198 378,198 378,198 379,214 379,214  Z"/>

<path  fill="#31B824" stroke-width="0" stroke="#31B824" d = " M79 199 C79,203.366 77,208.272 77,213 71.8003,213 63.9414,199.383 62,195.5 59.894,191.288 57.0723,187.645 55,183.5 50.3454,174.191 58,144.336 58,133 58,133 64,130 64,130 64,130 65,130 65,130 65,155.485 56.3791,161.258 69,186.5 70.4221,189.344 75.5393,198 79,198 79,198 79,199 79,199  Z"/>

<path  fill="#FF64FF" stroke-width="0" stroke="#FF64FF" d = " M158 131 L157,132 C157,132 158,131 158,131  Z"/>

<path  fill="#32B725" stroke-width="0" stroke="#32B725" d = " M77 214 L75,223 C73.6154,223 61.5626,210.625 61,209.5 59.3661,206.232 54.9887,202.477 53,198.5 50.085,192.67 49.9145,185.329 47,179.5 44.0055,173.511 52,144.458 52,136 52,136 52,135 52,135 54.4827,135 56.0256,133 58,133 58,144.336 50.3454,174.191 55,183.5 57.0723,187.645 59.894,191.288 62,195.5 63.9414,199.383 71.8003,213 77,213 77,213 77,214 77,214  Z"/>

<path  fill="#32B725" stroke-width="0" stroke="#32B725" d = " M380 214 L381,223 C382.757,223 395.791,209.918 397,207.5 398.987,203.525 402.054,200.393 404,196.5 404,196.5 409,181.5 409,181.5 413.043,173.413 404,145.291 404,136 404,136 404,135 404,135 404,135 398,133 398,133 398,145.688 406.999,172.501 401,184.5 397.162,192.176 390.885,198.73 387,206.5 387,206.5 380,214 380,214  Z"/>

<path  fill="#0D9F90" stroke-width="0" stroke="#0D9F90" d = " M37 135 L38,135 C38,135 37,134 37,134 37,134 37,135 37,135  Z"/>

<path  fill="#0D9F90" stroke-width="0" stroke="#0D9F90" d = " M420 134 L419,135 C419,135 420,134 420,134  Z"/>

<path  fill="#0E9584" stroke-width="0" stroke="#0E9584" d = " M42 142 C42,143.577 40.2383,144 39,144 39,144 37,135 37,135 37,135 38,135 38,135 39.5898,135 39.443,139.386 40,140.5 40,140.5 42,142 42,142  Z"/>

<path  fill="#0E9584" stroke-width="0" stroke="#0E9584" d = " M415 142 L417,144 C417,141.16 419,138.324 419,135 417.41,135 415,140.233 415,142  Z"/>

<path  fill="#32B825" stroke-width="0" stroke="#32B825" d = " M75 223 L74,231 C74,231 64.5,224 64.5,224 51.2796,217.39 38,191.044 38,177 38,169.151 37.7409,160.018 41,153.5 41.7614,151.977 46.0018,141 44,141 44,141 44,140 44,140 44,140 52,136 52,136 52,144.458 44.0055,173.511 47,179.5 49.9145,185.329 50.085,192.67 53,198.5 54.9887,202.477 59.3661,206.232 61,209.5 61.5626,210.625 73.6154,223 75,223  Z"/>

<path  fill="#32B825" stroke-width="0" stroke="#32B825" d = " M382 231 L383,231 C383,231 395.5,221 395.5,221 408.2,214.65 411.309,197.881 417,186.5 417,186.5 417,181.5 417,181.5 418.391,178.717 420.841,171.182 419,167.5 416.147,161.794 412,146.593 412,140 412,140 404,136 404,136 404,145.291 413.043,173.413 409,181.5 409,181.5 404,196.5 404,196.5 402.054,200.393 398.987,203.525 397,207.5 395.791,209.918 382.757,223 381,223 381,223 382,231 382,231  Z"/>

<path  fill="#32B722" stroke-width="0" stroke="#32B722" d = " M383 231 L383,233 C387.548,233 390.695,228.902 394.5,227 412.248,218.126 413.775,201.95 421,187.5 422.436,184.628 425.747,174.994 424,171.5 422.539,168.578 424.406,164.312 423,161.5 420.457,156.415 417,149.997 417,144 417,144 415,142 415,142 415,142 413,140 413,140 413,140 412,140 412,140 412,146.593 416.147,161.794 419,167.5 420.841,171.182 418.391,178.717 417,181.5 417,181.5 417,186.5 417,186.5 411.309,197.881 408.2,214.65 395.5,221 395.5,221 383,231 383,231  Z"/>

<path  fill="#32B722" stroke-width="0" stroke="#32B722" d = " M74 231 L74,234 C74,234 66.5,230 66.5,230 51.099,222.299 44.0793,208.659 37,194.5 35.383,191.266 35.6281,186.756 34,183.5 32.4657,180.431 31.2333,167.033 33,163.5 35.8692,157.762 39,150.862 39,144 40.2383,144 42,143.577 42,142 42,142 44,141 44,141 46.0018,141 41.7614,151.977 41,153.5 37.7409,160.018 38,169.151 38,177 38,191.044 51.2796,217.39 64.5,224 64.5,224 74,231 74,231  Z"/>

<path  fill="#FF7AFE" stroke-width="0" stroke="#FF7AFE" d = " M159 148 L159,149 C159,151.117 157.463,152.037 156,153.5 146.817,162.683 138.225,141 149.5,141 152.67,141 154.678,144 157,144 157,144 158,147 158,147 158,147 159,148 159,148  Z"/>

<path  fill="#FF7AFE" stroke-width="0" stroke="#FF7AFE" d = " M299 144 L298,148 C298,165.047 322.425,147.962 308.5,141 305.208,139.354 302.617,143 300,143 300,143 299,144 299,144  Z"/>

<path  fill="#FF79FD" stroke-width="0" stroke="#FF79FD" d = " M140 142 C140,143.583 138,144.407 138,146.5 L138,150.5 C143.598,161.695 146.458,142 140,142  Z"/>

<path  fill="#FF79FD" stroke-width="0" stroke="#FF79FD" d = " M315 142 C315,143.583 313,144.407 313,146.5 L313,150.5 C313,163.103 324.101,142 315,142  Z"/>

<path  fill="#FF64FF" stroke-width="0" stroke="#FF64FF" d = " M300 143 L299,144 C299,144 300,143 300,143  Z"/>

<path  fill="#FF64FF" stroke-width="0" stroke="#FF64FF" d = " M218 157 C218,151.471 223.829,160 225,160 225,158.41 223.897,145 223,145 223,147.906 219,147.073 219,148 219,148.1 224.37,157.935 218.5,155 218.5,155 216,153 216,153 216,153 217,157 217,157 217,157 218,157 218,157  Z"/>

<path  fill="#FF64FF" stroke-width="0" stroke="#FF64FF" d = " M239 157 L234.5,156 L231,162 C231,156.142 233,151.27 233,145 233,145 237,148 237,148 237,148.927 232.284,157.608 237.5,155 237.5,155 239,154 239,154 239,154 239,157 239,157  Z"/>

<path  fill="#FF64FF" stroke-width="0" stroke="#FF64FF" d = " M158 147 L159,148 C159,148 158,147 158,147  Z"/>

<path  fill="#FD90FF" stroke-width="0" stroke="#FD90FF" d = " M215 153 L216,153 C216,153 218.5,155 218.5,155 224.37,157.935 219,148.1 219,148 216.774,148 215,146.392 215,150 215,150 215,153 215,153  Z"/>

<path  fill="#FD90FF" stroke-width="0" stroke="#FD90FF" d = " M240 153 L241,153 C241,153 242,150 242,150 242,145.727 239.313,148 237,148 237,148.927 232.284,157.608 237.5,155 237.5,155 239,154 239,154 239,154 240,153 240,153  Z"/>

<path  fill="#FF64FF" stroke-width="0" stroke="#FF64FF" d = " M213 153 L215,153 C215,153 215,150 215,150 213.952,150 212,149.527 212,151 212,151 213,153 213,153  Z"/>

<path  fill="#FF64FF" stroke-width="0" stroke="#FF64FF" d = " M241 153 L243,153 C243,153 244,151 244,151 244,151 242,150 242,150 242,150 241,153 241,153  Z"/>

<path  fill="#FFA5FD" stroke-width="0" stroke="#FFA5FD" d = " M175 189 L176,189 C176,187.527 177.952,188 179,188 179,188 181,187 181,187 181,187 182,187 182,187 182,187 183,186 183,186 183,184.851 187.516,184.492 188.5,184 192.529,181.986 201,181.841 201,176 201,172.962 195.144,174.822 193.5,174 192.414,173.457 192.63,169 194,169 194,165.132 191.777,162.638 188.5,161 188.5,161 182.5,153 182.5,153 176.095,149.798 171.495,155 166,155 166,156.62 152.035,167.571 157,177.5 158.62,180.74 160.676,183.176 163.5,186 163.5,186 167,189 167,189 167,189 175,189 175,189  Z"/>

<path  fill="#FFA5FD" stroke-width="0" stroke="#FFA5FD" d = " M282 189 L289,189 C289,187.858 296.066,183 297,183 297,183 297,182 297,182 297,182 298,181 298,181 298,175.882 301.737,170.973 299,165.5 297.569,162.639 291,157.312 291,155 287.223,155 281.835,149.832 277.5,152 271.793,154.853 263,161.755 263,169 263,173.937 260.927,175 256,175 256,175 255,176 255,176 255,181.435 263.564,182.032 267.5,184 268.484,184.492 273,184.851 273,186 273,186 275,187 275,187 275,187 276,187 276,187 277.041,187 281,187.986 281,189 281,189 282,189 282,189  Z"/>

<path  fill="#FE8DFE" stroke-width="0" stroke="#FE8DFE" d = " M216 153 L217,157 C217,165.361 204.253,153 213,153 213,153 215,153 215,153 215,153 216,153 216,153  Z"/>

<path  fill="#FF64FF" stroke-width="0" stroke="#FF64FF" d = " M240 153 L239,154 C239,154 240,153 240,153  Z"/>

<path  fill="#FE8DFE" stroke-width="0" stroke="#FE8DFE" d = " M239 157 L239,158 C240.423,158 242.544,159.978 244.5,159 247.57,157.465 246.068,153 243,153 243,153 241,153 241,153 241,153 240,153 240,153 240,153 239,154 239,154 239,154 239,157 239,157  Z"/>

<path  fill="#CBCBCC" stroke-width="0" stroke="#CBCBCC" d = " M225 160 L225,161 C225,163.043 223.923,166 221.5,166 219.866,166 222.415,159 220,159 218.253,159 218,158.747 218,157 218,151.471 223.829,160 225,160  Z"/>

<path  fill="#CBCBCC" stroke-width="0" stroke="#CBCBCC" d = " M236 163 L236,166 C236,166 231,163 231,163 231,163 231,162 231,162 231,162 234.5,156 234.5,156 234.5,156 239,157 239,157 239,157 239,158 239,158 239,158 236,159 236,159 234.465,159 234.465,163 236,163  Z"/>

<path  fill-rule="evenodd" fill="#FF64FF" stroke-width="0" stroke="#FF64FF" d = " M227 170 C227,170.568 222.808,172.885 222,174.5 216.758,184.983 245.081,184.581 232,171.5 L227,170  M244 189 L246,189 C246,184.922 244,181.378 244,178 242.423,178 242,176.238 242,175 240.519,175 241.215,173 239,173 239,184.593 234.213,167 237,167 237,167 236,166 236,166 236,166 231,163 231,163 231,163 227.5,165 227.5,165 227.5,165 225,161 225,161 225,163.043 223.923,166 221.5,166 219.866,166 222.415,159 220,159 220,159 220,167 220,167 221.574,167 217,185.584 217,173 217,173 214,175 214,175 214,175 214,176 214,176 214,176 213,177 213,177 213,178.219 207.9,189 211,189 211,189 213,189 213,189 213,173.868 223,178.124 223,189 225.536,189 226.915,192 228.5,192 229.055,192 230.89,189 233,189 233,180.591 243,171.568 243,189 243,189 244,189 244,189  Z"/>

<path  fill="#FF64FF" stroke-width="0" stroke="#FF64FF" d = " M236 159 C234.465,159 234.465,163 236,163 236,163 236,159 236,159  Z"/>

<path  fill="#C9C9CB" stroke-width="0" stroke="#C9C9CB" d = " M143 205 C143,207.46 147,209.17 147,212 144.078,212 141.114,203 137,203 137,203 135,199 135,199 135,194.187 131.527,184.445 134,179.5 135.546,176.407 137,164.658 137,161 142.981,161 138.287,171 143,171 143,171 138,185.5 138,185.5 135.282,190.935 141,197.464 141,202 141,202 142,203 142,203 142,203 143,205 143,205  Z"/>

<path  fill="#C9C9CB" stroke-width="0" stroke="#C9C9CB" d = " M311 208 L311,209 C313.956,209 315.815,203 319,203 319,203 321,199 321,199 321,199 322,198 322,198 322,192.901 324.201,178.901 322,174.5 320.443,171.386 319,164.449 319,161 313.257,161 317.93,171 314,171 314,177.751 321.931,187.639 318,195.5 316.723,198.055 311,205.492 311,208  Z"/>

<path  fill="#FFAC6F" stroke-width="0" stroke="#FFAC6F" d = " M143 205 L147.5,209 C151.292,210.896 152.034,208 155,208 155,202.241 157.849,193.197 155,187.5 153.67,184.839 151,179.972 151,177 151,168.869 143,157.838 143,171 143,171 138,185.5 138,185.5 135.282,190.935 141,197.464 141,202 141,202 142,203 142,203 142,203 143,205 143,205  Z"/>

<path  fill="#FFAC6F" stroke-width="0" stroke="#FFAC6F" d = " M301 207 L303.5,210 C306.083,211.292 308.621,208 311,208 311,205.492 316.723,198.055 318,195.5 321.931,187.639 314,177.751 314,171 314,158.089 305,169.616 305,177 305,180.859 302.671,186.159 301,189.5 301,189.5 301,207 301,207  Z"/>

<path  fill="#CBC9CB" stroke-width="0" stroke="#CBC9CB" d = " M201 176 C203.932,176 205.186,177 208,177 208,173.831 210.725,171 214,171 214,168.323 198.468,166.016 196.5,167 196.5,167 194,169 194,169 192.63,169 192.414,173.457 193.5,174 195.144,174.822 201,172.962 201,176  Z"/>

<path  fill="#C8C8C8" stroke-width="0" stroke="#C8C8C8" d = " M217 172 L217,173 C217,185.584 221.574,167 220,167 220,167 218,171 218,171 218,171 217,172 217,172  Z"/>

<path  fill="#C8C8C8" stroke-width="0" stroke="#C8C8C8" d = " M237 167 C234.213,167 239,184.593 239,173 239,173 237,167 237,167  Z"/>

<path  fill="#CBC9CB" stroke-width="0" stroke="#CBC9CB" d = " M255 176 C252.989,176 251.011,177 249,177 245.69,177 250.904,172 242,172 242,168.374 256.603,165.551 259.5,167 259.5,167 263,169 263,169 263,173.937 260.927,175 256,175 256,175 255,176 255,176  Z"/>

<path  fill="#CCC7CC" stroke-width="0" stroke="#CCC7CC" d = " M227 170 C227,170.568 222.808,172.885 222,174.5 216.758,184.983 245.081,184.581 232,171.5 L227,170  Z"/>

<path  fill="#C8C8CC" stroke-width="0" stroke="#C8C8CC" d = " M212 209 L211,210 C209.254,210 208.584,206.668 208,205.5 208,205.5 208,197.5 208,197.5 206.676,194.853 205,191.1 205,188 205,188 205,187 205,187 205,187 208,177 208,177 208,173.831 210.725,171 214,171 214,171 214,175 214,175 214,175 214,176 214,176 214,176 213,177 213,177 213,178.219 207.9,189 211,189 211,190.235 210.357,194 212,194 212,194 212,209 212,209  Z"/>

<path  fill="#FF64FF" stroke-width="0" stroke="#FF64FF" d = " M218 171 L217,172 C217,172 218,171 218,171  Z"/>

<path  fill="#C8C8CC" stroke-width="0" stroke="#C8C8CC" d = " M245 208 L245,210 C247.498,210 251,191.498 251,189 251,189 251,188 251,188 251,188 251,187 251,187 251,187 249,177 249,177 245.69,177 250.904,172 242,172 242,172 242,175 242,175 242,175 244,178 244,178 244,181.378 246,184.922 246,189 246,189 245,196 245,196 245,200.364 245,204.259 245,208  Z"/>

<path  fill="#CBC9CB" stroke-width="0" stroke="#CBC9CB" d = " M242 175 L244,178 C242.423,178 242,176.238 242,175  Z"/>

<path  fill="#FF8FFD" stroke-width="0" stroke="#FF8FFD" d = " M256 175 L255,176 C255,176 256,175 256,175  Z"/>

<path  fill="#FF8FFD" stroke-width="0" stroke="#FF8FFD" d = " M204 187 L205,187 C205,187 208,177 208,177 205.186,177 203.932,176 201,176 201,181.841 192.529,181.986 188.5,184 187.516,184.492 183,184.851 183,186 183,186 183,187 183,187 187.17,187 194.49,182.495 199.5,185 199.5,185 204,187 204,187  Z"/>

<path  fill="#CBC9CB" stroke-width="0" stroke="#CBC9CB" d = " M214 176 L213,177 C213,177 214,176 214,176  Z"/>

<path  fill="#FF8FFD" stroke-width="0" stroke="#FF8FFD" d = " M252 187 C256.143,187 263.432,182.466 268.5,185 L273,187 C273,187 273,186 273,186 273,184.851 268.484,184.492 267.5,184 263.564,182.032 255,181.435 255,176 252.989,176 251.011,177 249,177 249,177 251,187 251,187 251,187 252,187 252,187  Z"/>

<path  fill="#C9C9CB" stroke-width="0" stroke="#C9C9CB" d = " M173 252 L175,252 C175,252 177,250 177,250 177,243.877 175.515,238.53 173,233.5 173,233.5 168,230 168,230 165.239,230 161,221.209 161,219 161,219 161,218 161,218 159.337,218 159,212.593 159,211 159,203.542 161,196.544 161,190 161,183.839 156.917,177 151,177 151,179.972 153.67,184.839 155,187.5 157.849,193.197 155,202.241 155,208 155,208 155,217 155,217 155,217 156,223 156,223 156,223 157,224 157,224 157,224 157,226 157,226 158.577,226 159,227.762 159,229 159,229 159,230 159,230 162.931,230 168.504,252 173,252  Z"/>

<path  fill="#C9C9CB" stroke-width="0" stroke="#C9C9CB" d = " M282 252 L284,252 C288.038,252 292.482,231 297,231 297,231 297,230 297,230 297,230 298,228 298,228 298,228 299,227 299,227 299,227 299,225 299,225 299,225 300,224 300,224 300,224 301,219 301,219 301,217.855 300.421,215 302,215 302,215 301,207 301,207 301,207 301,189.5 301,189.5 302.671,186.159 305,180.859 305,177 301.687,177 300.51,181 298,181 298,181 297,182 297,182 297,182 297,183 297,183 297,183 295,189 295,189 295,189 298,204 298,204 298,205.235 298.643,209 297,209 297,211.049 297.342,219 295,219 295,219 295,221 295,221 295,221 294,222 294,222 294,222 293,224 293,224 293,225.562 290.811,229 289,229 289,229 283,234.5 283,234.5 280.802,238.896 279,243.684 279,249 279,249 282,252 282,252  Z"/>

<path  fill="#FD90FE" stroke-width="0" stroke="#FD90FE" d = " M213 189 C214.624,189 223,198.645 223,189 223,178.124 213,173.868 213,189  Z"/>

<path  fill="#FD90FE" stroke-width="0" stroke="#FD90FE" d = " M233 189 C233,195.312 243,193.718 243,189 243,171.568 233,180.591 233,189  Z"/>

<path  fill="#FF64FF" stroke-width="0" stroke="#FF64FF" d = " M298 181 L297,182 C297,182 298,181 298,181  Z"/>

<path  fill="#FF64FF" stroke-width="0" stroke="#FF64FF" d = " M289 189 L295,189 C295,189 297,183 297,183 296.066,183 289,187.858 289,189  Z"/>

<path  fill="#FFC295" stroke-width="0" stroke="#FFC295" d = " M193 259 L194,259 C194,256.91 199,257.448 199,254 199,245.746 201.723,229 213,229 213,229 215,225 215,225 215,221.018 213,218.296 213,214 213,214 212,213 212,213 212,213 212,212 212,212 212,212 211,210 211,210 209.254,210 208.584,206.668 208,205.5 208,205.5 208,197.5 208,197.5 206.676,194.853 205,191.1 205,188 205,188 204,187 204,187 204,187 199.5,185 199.5,185 194.49,182.495 187.17,187 183,187 183,187 182,187 182,187 182,187 181,187 181,187 181,187 179,188 179,188 179,189.473 177.048,189 176,189 176,189 175,189 175,189 175,190.489 162.634,191.231 161,194.5 159.572,197.356 163,199.053 163,201 172.999,201 167,216.972 167,222 167,224.707 168,227.903 168,230 168,230 173,233.5 173,233.5 175.515,238.53 177,243.877 177,250 177,250 178,252 178,252 178,252 184,256 184,256 186.86,256 189.58,259 193,259  Z"/>

<path  fill="#FFC295" stroke-width="0" stroke="#FFC295" d = " M271 257 L272,257 C272,257 273,256 273,256 273,256 279,252 279,252 279,252 279,249 279,249 279,243.684 280.802,238.896 283,234.5 283,234.5 289,229 289,229 289,229 290,222 290,222 290,216.469 283.146,201 294,201 294,201 296,195.5 296,195.5 294.261,192.022 282,190.999 282,189 282,189 281,189 281,189 279.576,189 276,188.638 276,187 276,187 275,187 275,187 275,187 273,187 273,187 273,187 268.5,185 268.5,185 263.432,182.466 256.143,187 252,187 252,187 252,188 252,188 252,188 251,189 251,189 251,191.498 247.498,210 245,210 245,211.048 245.473,213 244,213 244,213 242,223 242,223 242,223 243,229 243,229 254.956,229 257,246.154 257,255 258.186,255 262.192,258.346 263.5,259 263.5,259 271,257 271,257  Z"/>

<path  fill="#FF64FF" stroke-width="0" stroke="#FF64FF" d = " M182 187 L183,187 C183,187 183,186 183,186 183,186 182,187 182,187  Z"/>

<path  fill="#FF64FF" stroke-width="0" stroke="#FF64FF" d = " M273 187 L275,187 C275,187 273,186 273,186 273,186 273,187 273,187  Z"/>

<path  fill="#FF9B88" stroke-width="0" stroke="#FF9B88" d = " M181 187 L179,188 C179,188 181,187 181,187  Z"/>

<path  fill="#FF9B88" stroke-width="0" stroke="#FF9B88" d = " M205 187 L205,188 C205,188 204,187 204,187 204,187 205,187 205,187  Z"/>

<path  fill="#FF64FF" stroke-width="0" stroke="#FF64FF" d = " M251 188 L252,188 C252,188 252,187 252,187 252,187 251,187 251,187 251,187 251,188 251,188  Z"/>

<path  fill="#FF9B88" stroke-width="0" stroke="#FF9B88" d = " M276 187 C277.041,187 281,187.986 281,189 279.576,189 276,188.638 276,187  Z"/>

<path  fill="#FF9B88" stroke-width="0" stroke="#FF9B88" d = " M179 188 C177.952,188 176,187.527 176,189 177.048,189 179,189.473 179,188  Z"/>

<path  fill="#FF9B88" stroke-width="0" stroke="#FF9B88" d = " M252 188 L251,189 C251,189 251,188 251,188 251,188 252,188 252,188  Z"/>

<path  fill="#FF9B88" stroke-width="0" stroke="#FF9B88" d = " M163 201 C157.499,201 161,214.304 161,218 159.337,218 159,212.593 159,211 159,203.542 161,196.544 161,190 162.564,190 164.876,189 167,189 167,189 175,189 175,189 175,190.489 162.634,191.231 161,194.5 159.572,197.356 163,199.053 163,201  Z"/>

<path  fill="#FF9B88" stroke-width="0" stroke="#FF9B88" d = " M213 189 L212,194 C210.357,194 211,190.235 211,189 211,189 213,189 213,189  Z"/>

<path  fill="#FFC393" stroke-width="0" stroke="#FFC393" d = " M231 231 C229.203,231 229.949,219 228.5,219 226.779,219 226,230.58 226,232 226,232 219,229 219,229 219,229 215,225 215,225 215,221.018 213,218.296 213,214 213,214 212,213 212,213 212,213 212,212 212,212 212,212 212,209 212,209 212,209 212,194 212,194 212,194 213,189 213,189 214.624,189 223,198.645 223,189 225.536,189 226.915,192 228.5,192 229.055,192 230.89,189 233,189 233,195.312 243,193.718 243,189 243,189 244,189 244,189 244,190.406 243.286,196 245,196 245,200.364 245,204.259 245,208 243.357,208 244,211.765 244,213 244,213 242,223 242,223 242,223 237,229 237,229 237,229 231,231 231,231  Z"/>

<path  fill="#FF9B88" stroke-width="0" stroke="#FF9B88" d = " M246 189 L245,196 C243.286,196 244,190.406 244,189 244,189 246,189 246,189  Z"/>

<path  fill="#FF9B88" stroke-width="0" stroke="#FF9B88" d = " M294 201 C296.638,201 297,206.848 297,209 298.643,209 298,205.235 298,204 298,204 295,189 295,189 295,189 289,189 289,189 289,189 282,189 282,189 282,190.999 294.261,192.022 296,195.5 296,195.5 294,201 294,201  Z"/>

<path  fill="#31B723" stroke-width="0" stroke="#31B723" d = " M380 214 L381,223 C376.144,223 367.194,227.847 361.5,225 354.735,221.617 349,208.181 349,201 349,199.732 352.432,189 353,189 353,198.983 356.48,212.49 365.5,217 370.149,219.325 375.088,214 379,214 379,214 380,214 380,214  Z"/>

<path  fill="#31B723" stroke-width="0" stroke="#31B723" d = " M77 214 L75,223 C79.8562,223 88.8059,227.847 94.5,225 100.158,222.171 108,206.848 108,201 108,201 104,191 104,191 101.936,191 103.574,194.353 103,195.5 103,195.5 97,212.5 97,212.5 92.3245,221.851 82.9269,214 77,214  Z"/>

<path  fill="#F0F080" stroke-width="0" stroke="#F0F080" d = " M137 203 L131,205 C131,200.905 132.056,199 135,199 135,199 137,203 137,203  Z"/>

<path  fill="#F0F080" stroke-width="0" stroke="#F0F080" d = " M319 203 C322.429,203 325.404,208 327,208 327,206.259 324.143,198 322,198 322,198 321,199 321,199 321,199 319,203 319,203  Z"/>

<path  fill="#30B824" stroke-width="0" stroke="#30B824" d = " M75 223 L74,231 C82.5526,231 90.1838,235.158 98.5,231 105.226,227.637 106.234,217.032 109,211.5 109.659,210.181 108.666,206 111,206 111,206 108,201 108,201 108,206.848 100.158,222.171 94.5,225 88.8059,227.847 79.8562,223 75,223  Z"/>

<path  fill="#C8C8CB" stroke-width="0" stroke="#C8C8CB" d = " M161 219 C163.402,219 159.579,222 167,222 167,216.972 172.999,201 163,201 157.499,201 161,214.304 161,218 161,218 161,219 161,219  Z"/>

<path  fill="#C8C8CB" stroke-width="0" stroke="#C8C8CB" d = " M294 222 L293,224 C293,224 290,222 290,222 290,216.469 283.146,201 294,201 296.638,201 297,206.848 297,209 295.516,209 295,217.263 295,219 295,219 295,221 295,221 295,221 294,222 294,222  Z"/>

<path  fill="#30B824" stroke-width="0" stroke="#30B824" d = " M381 223 L382,231 C376.628,231 367.976,235.738 362.5,233 354.645,229.073 346,214.851 346,206 346,204.924 347.523,201 349,201 349,208.181 354.735,221.617 361.5,225 367.194,227.847 376.144,223 381,223  Z"/>

<path  fill="#FF9B88" stroke-width="0" stroke="#FF9B88" d = " M141 202 L142,203 C142,203 141,202 141,202  Z"/>

<path  fill="#CCCCCA" stroke-width="0" stroke="#CCCCCA" d = " M130 229 C130,230.492 137.274,236 139,236 139,232.921 143.608,219 146.5,219 146.5,219 150,223 150,223 150,223 150,222 150,222 150,222 149,216 149,216 149,216 148,215 148,215 148,215 148,214 148,214 148,214 147,213 147,213 147,213 147,212 147,212 144.078,212 141.114,203 137,203 137,203 131,205 131,205 131,205 130,207 130,207 130,208.048 130.473,210 129,210 129,210 129,211 129,211 129,216.996 130,223.639 130,229  Z"/>

<path  fill="#CCCCCA" stroke-width="0" stroke="#CCCCCA" d = " M327 229 C323.93,229 321.651,235 318,235 318,232.495 312.425,219 309.5,219 309.053,219 307.406,225.312 306,222.5 306,222.5 308,215 308,215 308,215 309,213 309,213 309,213 310,211 310,211 310,211 311,209 311,209 313.956,209 315.815,203 319,203 322.429,203 325.404,208 327,208 327,208 327,210 327,210 327,210 327,229 327,229  Z"/>

<path  fill="#F0F080" stroke-width="0" stroke="#F0F080" d = " M131 205 L130,207 C130,207 131,205 131,205  Z"/>

<path  fill="#FF9B88" stroke-width="0" stroke="#FF9B88" d = " M153 245 L155,247 C155,247 156,244 156,244 152.276,244 157,229.617 157,238 157,238 157,240 157,240 157,240 157,243 157,243 157,243 159,242 159,242 159,233.528 152,227.146 152,219 152,217.762 148.439,213.03 150.5,212 154.116,210.192 153.113,217 155,217 155,217 155,208 155,208 152.034,208 151.292,210.896 147.5,209 147.5,209 143,205 143,205 143,207.46 147,209.17 147,212 147,212 147,213 147,213 147,213 148,214 148,214 148,214 148,215 148,215 148,215 149,216 149,216 149,216 150,222 150,222 151.737,222 156.609,237.718 153,230.5 153,230.5 152,227.5 152,227.5 152,227.5 150,223 150,223 150,223 146.5,219 146.5,219 143.608,219 139,232.921 139,236 139,240.632 145.356,247 150,247 150,247 152,245 152,245 140.849,245 143.257,223 147.5,223 149.735,223 151.378,229.256 152,230.5 152,230.5 154,236 154,236 154,239.013 153,242.611 153,245  Z"/>

<path  fill="#31B625" stroke-width="0" stroke="#31B625" d = " M74 231 L74,234 C76.5389,234 87.8521,239.324 90.5,238 93.6125,236.444 97.3526,236.574 100.5,235 107.784,231.358 113,215.101 113,208 113,208 111,206 111,206 108.666,206 109.659,210.181 109,211.5 106.234,217.032 105.226,227.637 98.5,231 90.1838,235.158 82.5526,231 74,231  Z"/>

<path  fill="#31B625" stroke-width="0" stroke="#31B625" d = " M383 231 L383,233 C383,236.366 362.226,238.363 359.5,237 350.598,232.549 343,217.823 343,208 343,208 346,206 346,206 346,214.851 354.645,229.073 362.5,233 367.976,235.738 376.628,231 382,231 382,231 383,231 383,231  Z"/>

<path  fill="#F0F080" stroke-width="0" stroke="#F0F080" d = " M130 207 C128.527,207 129,208.952 129,210 130.473,210 130,208.048 130,207  Z"/>

<path  fill-rule="evenodd" fill="#FF9B88" stroke-width="0" stroke="#FF9B88" d = " M305 223 C305,226.746 307.091,223 305,223  M304 245 L306,247 C310.879,247 317,240.805 317,236 317,236 318,235 318,235 318,232.495 312.425,219 309.5,219 309.053,219 307.406,225.312 306,222.5 306,222.5 308,215 308,215 308,215 309,213 309,213 309,213 310,211 310,211 310,211 311,209 311,209 311,209 311,208 311,208 308.621,208 306.083,211.292 303.5,210 303.5,210 301,207 301,207 301,207 302,215 302,215 302,215 304.5,211 304.5,211 308.819,211 305.882,216.735 305,218.5 301.737,225.026 297,235.423 297,243 297,243 299,242 299,242 299,239.454 302,229.501 302,236 303.579,236 303,233.145 303,232 300.627,232 303,228.664 303,231 304.577,231 305,229.238 305,228 300.937,228 305,224.307 305,227 307.332,227 307.057,222.278 310.5,224 316.431,226.965 312.505,245 304,245  Z"/>

<path  fill="#FF9B88" stroke-width="0" stroke="#FF9B88" d = " M245 210 C245,211.048 245.473,213 244,213 244,211.765 243.357,208 245,208 245,208 245,210 245,210  Z"/>

<path  fill="#FF9B88" stroke-width="0" stroke="#FF9B88" d = " M211 210 L212,212 C212,212 212,209 212,209 212,209 211,210 211,210  Z"/>

<path  fill="#FF9B88" stroke-width="0" stroke="#FF9B88" d = " M297 209 C295.516,209 295,217.263 295,219 297.342,219 297,211.049 297,209  Z"/>

<path  fill="#C9C9CB" stroke-width="0" stroke="#C9C9CB" d = " M311 209 L310,211 C310,211 311,209 311,209  Z"/>

<path  fill="#F0F080" stroke-width="0" stroke="#F0F080" d = " M327 229 L333,229 C333,229 329,218.5 329,218.5 329,218.5 329,213.5 329,213.5 329,213.5 327,210 327,210 327,210 327,229 327,229  Z"/>

<path  fill="#F0F080" stroke-width="0" stroke="#F0F080" d = " M124 229 L130,229 C130,223.639 129,216.996 129,211 127.049,211 128.523,213.454 128,214.5 128,214.5 124,228 124,228 124,228 124,229 124,229  Z"/>

<path  fill="#CBC7CC" stroke-width="0" stroke="#CBC7CC" d = " M297 243 L297,258 C297,277.287 293,262.84 293,255 293,246.157 297,238.726 297,231 297,231 297,230 297,230 297,230 298,228 298,228 298,228 299,227 299,227 299,227 299,225 299,225 299,225 300,224 300,224 300,224 301,219 301,219 302.579,219 302,216.145 302,215 302,215 304.5,211 304.5,211 308.819,211 305.882,216.735 305,218.5 301.737,225.026 297,235.423 297,243  Z"/>

<path  fill="#C9C9CB" stroke-width="0" stroke="#C9C9CB" d = " M310 211 L309,213 C309,213 310,211 310,211  Z"/>

<path  fill="#CBC7CC" stroke-width="0" stroke="#CBC7CC" d = " M159 242 C159,246.425 160,251.961 160,257 160,259.279 158,262.418 158,264.5 158,265.656 160.943,268.615 162,266.5 162.933,264.634 164.102,244.703 163,242.5 163,242.5 159,230 159,230 159,230 159,229 159,229 159,229 157,226 157,226 157,226 157,224 157,224 157,224 156,223 156,223 156,223 155,217 155,217 153.113,217 154.116,210.192 150.5,212 148.439,213.03 152,217.762 152,219 152,227.146 159,233.528 159,242  Z"/>

<path  fill="#C9C9CB" stroke-width="0" stroke="#C9C9CB" d = " M147 213 L148,214 C148,214 147,213 147,213  Z"/>

<path  fill="#FF9B88" stroke-width="0" stroke="#FF9B88" d = " M212 213 L213,214 C213,214 212,213 212,213  Z"/>

<path  fill="#C9C9CB" stroke-width="0" stroke="#C9C9CB" d = " M309 213 L308,215 C308,215 309,213 309,213  Z"/>

<path  fill="#C9C9CB" stroke-width="0" stroke="#C9C9CB" d = " M148 215 L149,216 C149,216 148,215 148,215  Z"/>

<path  fill="#FF9B88" stroke-width="0" stroke="#FF9B88" d = " M302 215 C300.421,215 301,217.855 301,219 302.579,219 302,216.145 302,215  Z"/>

<path  fill="#FF9B88" stroke-width="0" stroke="#FF9B88" d = " M167 222 C167,224.707 168,227.903 168,230 165.239,230 161,221.209 161,219 163.402,219 159.579,222 167,222  Z"/>

<path  fill="#FF9B88" stroke-width="0" stroke="#FF9B88" d = " M223 265 C223.896,265 233,270.302 233,265 233,263.523 231,259.301 231,256 226.542,256 231,234.29 231,231 229.203,231 229.949,219 228.5,219 226.779,219 226,230.58 226,232 226,232 227,250 227,250 227,251.321 227.684,256 226,256 226,259.543 223,262.374 223,265  Z"/>

<path  fill="#FF9B88" stroke-width="0" stroke="#FF9B88" d = " M295 221 L294,222 C294,222 295,221 295,221  Z"/>

<path  fill="#CCCBCA" stroke-width="0" stroke="#CCCBCA" d = " M150 222 C151.737,222 156.609,237.718 153,230.5 L152,227.5 L150,223 C150,223 150,222 150,222  Z"/>

<path  fill="#FF9B88" stroke-width="0" stroke="#FF9B88" d = " M293 224 C293,225.562 290.811,229 289,229 289,229 290,222 290,222 290,222 293,224 293,224  Z"/>

<path  fill="#FF9B88" stroke-width="0" stroke="#FF9B88" d = " M294 222 L293,224 C293,224 294,222 294,222  Z"/>

<path  fill="#FFAE6F" stroke-width="0" stroke="#FFAE6F" d = " M152 245 L153,245 C153,242.611 154,239.013 154,236 154,236 152,230.5 152,230.5 151.378,229.256 149.735,223 147.5,223 143.257,223 140.849,245 152,245  Z"/>

<path  fill="#FF9B88" stroke-width="0" stroke="#FF9B88" d = " M156 223 L157,224 C157,224 156,223 156,223  Z"/>

<path  fill="#FF9B88" stroke-width="0" stroke="#FF9B88" d = " M237 229 L243,229 C243,229 242,223 242,223 242,223 237,229 237,229  Z"/>

<path  fill="#CCCBCA" stroke-width="0" stroke="#CCCBCA" d = " M305 223 C305,226.746 307.091,223 305,223  Z"/>

<path  fill="#FF9B88" stroke-width="0" stroke="#FF9B88" d = " M300 224 L299,225 C299,225 300,224 300,224  Z"/>

<path  fill="#FFAE6F" stroke-width="0" stroke="#FFAE6F" d = " M303 245 L304,245 C312.505,245 316.431,226.965 310.5,224 307.057,222.278 307.332,227 305,227 305,227 305,228 305,228 305,229.238 304.577,231 303,231 303,231 303,232 303,232 303,233.145 303.579,236 302,236 302,236 302,242 302,242 302,242 303,245 303,245  Z"/>

<path  fill="#FF9B88" stroke-width="0" stroke="#FF9B88" d = " M213 229 L219,229 C219,229 215,225 215,225 215,225 213,229 213,229  Z"/>

<path  fill="#CCCBCA" stroke-width="0" stroke="#CCCBCA" d = " M305 227 L305,228 C300.937,228 305,224.307 305,227  Z"/>

<path  fill="#FF9B88" stroke-width="0" stroke="#FF9B88" d = " M157 226 C158.577,226 159,227.762 159,229 159,229 157,226 157,226  Z"/>

<path  fill="#FF9B88" stroke-width="0" stroke="#FF9B88" d = " M299 227 L298,228 C298,228 299,227 299,227  Z"/>

<path  fill="#FF9B88" stroke-width="0" stroke="#FF9B88" d = " M123 229 L124,229 C124,229 124,228 124,228 124,228 123,229 123,229  Z"/>

<path  fill="#FF9B88" stroke-width="0" stroke="#FF9B88" d = " M298 228 L297,230 C297,230 298,228 298,228  Z"/>

<path  fill="#CACACB" stroke-width="0" stroke="#CACACB" d = " M150 247 L155,254 C155,259.238 142.255,261.378 137.5,259 133.593,257.047 131.469,254.985 127.5,253 127.5,253 122,247 122,247 122,247 122,245 122,245 122,245 122,232 122,232 122,232 122,231 122,231 122,231 123,230 123,230 123,230 123,229 123,229 123,229 124,229 124,229 124,229 130,229 130,229 130,230.492 137.274,236 139,236 139,240.632 145.356,247 150,247  Z"/>

<path  fill="#FEBA85" stroke-width="0" stroke="#FEBA85" d = " M226 256 C226,252.808 226.387,238.056 220.5,241 218.237,242.132 221.814,257 219,257 219,257 202.5,257 202.5,257 202.5,257 199,254 199,254 199,245.746 201.723,229 213,229 213,229 219,229 219,229 219,229 226,232 226,232 226,232 227,250 227,250 227,251.321 227.684,256 226,256  Z"/>

<path  fill="#FEBA85" stroke-width="0" stroke="#FEBA85" d = " M231 256 C231,253.468 229.604,238.052 235.5,241 238.38,242.44 237,254.735 237,257 237,257 254.5,257 254.5,257 255.945,256.277 254.591,255 257,255 257,246.154 254.956,229 243,229 243,229 237,229 237,229 237,229 231,231 231,231 231,234.29 226.542,256 231,256  Z"/>

<path  fill="#CACACB" stroke-width="0" stroke="#CACACB" d = " M323 257 L319,259 C314.188,259 301,261.057 301,254 301,254 301,253 301,253 301,253 306,247 306,247 310.879,247 317,240.805 317,236 317,236 318,235 318,235 321.651,235 323.93,229 327,229 327,229 333,229 333,229 333,229 334,230 334,230 334,231.819 335,234.591 335,237 335,237 335,242 335,242 335,242 335,245 335,245 335,245 334,247 334,247 334,247 333,249 333,249 333,249 329,253 329,253 327.762,253 326,253.423 326,255 324.762,255 323,255.423 323,257  Z"/>

<path  fill="#FF9B88" stroke-width="0" stroke="#FF9B88" d = " M333 229 L334,230 C334,230 333,229 333,229  Z"/>

<path  fill="#FF9B88" stroke-width="0" stroke="#FF9B88" d = " M123 230 L122,231 C122,231 123,230 123,230  Z"/>

<path  fill="#FF9B88" stroke-width="0" stroke="#FF9B88" d = " M200 282 C200,282.667 189.855,284.323 188.5,285 L185,285.5 C185,287.091 191,284.642 191,287 169.478,287 158.694,269.097 142.5,261 137.141,258.32 122,255.488 122,247 122,247 127.5,253 127.5,253 131.469,254.985 133.593,257.047 137.5,259 142.255,261.378 155,259.238 155,254 155,254 156,254 156,254 156,261.674 157.539,257 160,257 160,259.279 158,262.418 158,264.5 158,265.656 160.943,268.615 162,266.5 162.933,264.634 164.102,244.703 163,242.5 163,242.5 159,230 159,230 162.931,230 168.504,252 173,252 173,252 170,254.5 170,254.5 167.801,258.899 166.625,268.75 169,273.5 172.394,280.287 185.263,289.973 191,278.5 192.908,274.683 191,270.989 191,267 192.384,267 192.123,270.189 194.5,269 195.292,268.604 203,262.671 203,262.5 203,259.513 194,261.033 194,259 194,256.91 199,257.448 199,254 199,254 202.5,257 202.5,257 202.5,257 219,257 219,257 219,259.533 217,259.976 217,264 211.59,264 199.715,263.071 197,268.5 197,268.5 200,275 200,275 200,275 201,280 201,280 201,280 200,282 200,282  Z"/>

<path  fill="#CCCBCA" stroke-width="0" stroke="#CCCBCA" d = " M303 231 L303,232 C300.627,232 303,228.664 303,231  Z"/>

<path  fill="#FF9B88" stroke-width="0" stroke="#FF9B88" d = " M256 282 L272,285.5 C272,287.091 266,284.642 266,287 289.314,287 289.211,273.144 305.5,265 307.22,264.14 319,260.288 319,259 314.188,259 301,261.057 301,254 301,254 300,254 300,254 300,257.835 299.933,258 297,258 297,277.287 293,262.84 293,255 293,246.157 297,238.726 297,231 292.482,231 288.038,252 284,252 284,252 287,255.5 287,255.5 290.562,262.624 288.177,272.147 285,278.5 281.136,286.229 268.108,283.716 265,277.5 265,277.5 265,268 265,268 262.644,268 262.438,270.376 261,267.5 261,267.5 253,262.5 253,262.5 253,261.116 259.177,260 260.5,260 264.201,260 266,259.879 266,265 266.385,265 271,257.608 271,257 271,257 263.5,259 263.5,259 262.192,258.346 258.186,255 257,255 254.591,255 255.945,256.277 254.5,257 254.5,257 237,257 237,257 237,257 241,261.5 241,261.5 241,261.5 239,264 239,264 244.744,264 251.711,263.606 256.5,266 260.024,267.762 258.357,275 256,275 256,275 255,280 255,280 255,280 256,282 256,282  Z"/>

<path  fill="#FF9B88" stroke-width="0" stroke="#FF9B88" d = " M122 232 C120.359,232 120.359,245 122,245 122,245 122,232 122,232  Z"/>

<path  fill="#CCCBCA" stroke-width="0" stroke="#CCCBCA" d = " M302 242 L301,244 C301,244 299,242 299,242 299,239.454 302,229.501 302,236 302,236 302,242 302,242  Z"/>

<path  fill="#CCCBCA" stroke-width="0" stroke="#CCCBCA" d = " M157 243 L156,244 C152.276,244 157,229.617 157,238 157,238 157,240 157,240 157,240 157,243 157,243  Z"/>

<path  fill="#CCCCCA" stroke-width="0" stroke="#CCCCCA" d = " M318 235 L317,236 C317,236 318,235 318,235  Z"/>

<path  fill="#FF9B88" stroke-width="0" stroke="#FF9B88" d = " M335 237 C336.566,237 336.566,242 335,242 335,242 335,237 335,237  Z"/>

<path  fill="#CACCC8" stroke-width="0" stroke="#CACCC8" d = " M217 264 C217,266.962 221.707,265 223,265 223,262.374 226,259.543 226,256 226,252.808 226.387,238.056 220.5,241 218.237,242.132 221.814,257 219,257 219,259.533 217,259.976 217,264  Z"/>

<path  fill="#CACCC8" stroke-width="0" stroke="#CACCC8" d = " M239 264 C239,266.962 234.293,265 233,265 233,263.523 231,259.301 231,256 231,253.468 229.604,238.052 235.5,241 238.38,242.44 237,254.735 237,257 237,257 241,261.5 241,261.5 241,261.5 239,264 239,264  Z"/>

<path  fill="#FDB986" stroke-width="0" stroke="#FDB986" d = " M156 254 C156,261.674 157.539,257 160,257 160,251.961 159,246.425 159,242 159,242 157,243 157,243 157,243 156,244 156,244 156,244 155,247 155,247 155,247 156,254 156,254  Z"/>

<path  fill="#FDB986" stroke-width="0" stroke="#FDB986" d = " M300 254 C300,257.835 299.933,258 297,258 297,258 297,243 297,243 297,243 299,242 299,242 299,242 301,244 301,244 301,244 301,248 301,248 301,248 301,253 301,253 301,253 300,254 300,254  Z"/>

<path  fill="#FF9B88" stroke-width="0" stroke="#FF9B88" d = " M303 245 C303,246.238 302.577,248 301,248 301,248 301,244 301,244 301,244 302,242 302,242 302,242 303,245 303,245  Z"/>

<path  fill="#FF9B88" stroke-width="0" stroke="#FF9B88" d = " M157 243 L156,244 C156,244 157,243 157,243  Z"/>

<path  fill="#CCCCCA" stroke-width="0" stroke="#CCCCCA" d = " M155 254 L156,254 C156,254 155,247 155,247 155,247 153,245 153,245 153,245 152,245 152,245 152,245 150,247 150,247 150,247 155,254 155,254  Z"/>

<path  fill="#CCCCCA" stroke-width="0" stroke="#CCCCCA" d = " M301 248 L301,253 C301,253 306,247 306,247 306,247 304,245 304,245 304,245 303,245 303,245 303,246.238 302.577,248 301,248  Z"/>

<path  fill="#FF9B88" stroke-width="0" stroke="#FF9B88" d = " M335 245 L334,247 C334,247 335,245 335,245  Z"/>

<path  fill="#FF9B88" stroke-width="0" stroke="#FF9B88" d = " M334 247 L333,249 C333,249 334,247 334,247  Z"/>

<path  fill="#FF9B88" stroke-width="0" stroke="#FF9B88" d = " M279 252 L282,252 C282,252 279,249 279,249 279,249 279,252 279,252  Z"/>

<path  fill="#FF9B88" stroke-width="0" stroke="#FF9B88" d = " M333 249 L329,253 C331.226,253 333,251.226 333,249  Z"/>

<path  fill="#FF9B88" stroke-width="0" stroke="#FF9B88" d = " M175 252 L178,252 C178,252 177,250 177,250 177,250 175,252 175,252  Z"/>

<path  fill="#FEAD6F" stroke-width="0" stroke="#FEAD6F" d = " M191 266 L191,267 C191,270.989 192.908,274.683 191,278.5 185.263,289.973 172.394,280.287 169,273.5 166.625,268.75 167.801,258.899 170,254.5 170,254.5 173,252 173,252 173,252 175,252 175,252 175,252 178,252 178,252 178,252 184,256 184,256 184,256 189,261.5 189,261.5 189.465,262.43 189.817,266 191,266  Z"/>

<path  fill="#FEAD6F" stroke-width="0" stroke="#FEAD6F" d = " M265 267 L265,268 C265,268 265,277.5 265,277.5 268.108,283.716 281.136,286.229 285,278.5 288.177,272.147 290.562,262.624 287,255.5 287,255.5 284,252 284,252 284,252 282,252 282,252 282,252 279,252 279,252 279,252 273,256 273,256 273,256 272,257 272,257 272,257 271,257 271,257 271,257.608 266.385,265 266,265 266,265 265,267 265,267  Z"/>

<path  fill="#CCCCCA" stroke-width="0" stroke="#CCCCCA" d = " M300 254 L301,254 C301,254 301,253 301,253 301,253 300,254 300,254  Z"/>

<path  fill="#FF9B88" stroke-width="0" stroke="#FF9B88" d = " M329 253 C327.762,253 326,253.423 326,255 327.238,255 329,254.577 329,253  Z"/>

<path  fill="#FF9B88" stroke-width="0" stroke="#FF9B88" d = " M326 255 C324.762,255 323,255.423 323,257 324.238,257 326,256.577 326,255  Z"/>

<path  fill="#FF9B88" stroke-width="0" stroke="#FF9B88" d = " M193 259 C193,259.062 191,263.153 191,266 189.817,266 189.465,262.43 189,261.5 189,261.5 184,256 184,256 186.86,256 189.58,259 193,259  Z"/>

<path  fill="#FF9B88" stroke-width="0" stroke="#FF9B88" d = " M273 256 L272,257 C272,257 273,256 273,256  Z"/>

<path  fill="#FF9B88" stroke-width="0" stroke="#FF9B88" d = " M323 257 L319,259 C320.465,259 323,259.109 323,257  Z"/>

<path  fill="#FEA3D2" stroke-width="0" stroke="#FEA3D2" d = " M191 266 L191,267 C192.384,267 192.123,270.189 194.5,269 195.292,268.604 203,262.671 203,262.5 203,259.513 194,261.033 194,259 194,259 193,259 193,259 193,259.062 191,263.153 191,266  Z"/>

<path  fill="#FEA3D2" stroke-width="0" stroke="#FEA3D2" d = " M265 267 L265,268 C262.644,268 262.438,270.376 261,267.5 261,267.5 253,262.5 253,262.5 253,261.116 259.177,260 260.5,260 264.201,260 266,259.879 266,265 266,265 265,267 265,267  Z"/>

<path  fill="#FF9BCD" stroke-width="0" stroke="#FF9BCD" d = " M200 282 C209.509,282 214.724,276.888 222.5,273 231.63,268.435 245.814,282 256,282 256,282 255,280 255,280 252.876,280 250.564,279 249,279 245.762,279 239.017,273.465 241,269.5 244.497,262.507 256,269.328 256,275 258.357,275 260.024,267.762 256.5,266 251.711,263.606 244.744,264 239,264 239,266.962 234.293,265 233,265 233,270.302 223.896,265 223,265 221.707,265 217,266.962 217,264 211.59,264 199.715,263.071 197,268.5 197,268.5 200,275 200,275 200.463,275 205.843,263.172 213.5,267 222.023,271.262 208.333,280 201,280 201,280 200,282 200,282  Z"/>

<path  fill="#FF9B88" stroke-width="0" stroke="#FF9B88" d = " M266 265 L265,267 C265,267 266,265 266,265  Z"/>

<path  fill="#C7C9C9" stroke-width="0" stroke="#C7C9C9" d = " M200 275 C200.463,275 205.843,263.172 213.5,267 222.023,271.262 208.333,280 201,280 201,280 200,275 200,275  Z"/>

<path  fill="#C7C9C9" stroke-width="0" stroke="#C7C9C9" d = " M256 275 L255,280 C252.876,280 250.564,279 249,279 245.762,279 239.017,273.465 241,269.5 244.497,262.507 256,269.328 256,275  Z"/>

<path  fill="#CCC7CB" stroke-width="0" stroke="#CCC7CB" d = " M264 287 L266,287 C266,284.642 272,287.091 272,285.5 272,285.5 256,282 256,282 245.814,282 231.63,268.435 222.5,273 214.724,276.888 209.509,282 200,282 200,282.667 189.855,284.323 188.5,285 188.5,285 185,285.5 185,285.5 185,287.091 191,284.642 191,287 191,287 192,287 192,287 192,287 198,287 198,287 198,287 201,287 201,287 201,285.421 203.855,286 205,286 205,283.373 214.736,284 217,284 217,284 218,284 218,284 218,284 219,283 219,283 219,283 220,283 220,283 220,283 221,282 221,282 221,282 228.5,280 228.5,280 228.5,280 235,282 235,282 235,282 239.5,284 239.5,284 241.509,285.004 251,282.653 251,286 251,286 252,286 252,286 253.048,286 255,285.527 255,287 255,287 258,287 258,287 258,287 259,287 259,287 259,287 264,287 264,287  Z"/>

<path  fill="#FF9BCD" stroke-width="0" stroke="#FF9BCD" d = " M221 282 L220,283 C220,283 221,282 221,282  Z"/>

<path  fill="#FF9BCD" stroke-width="0" stroke="#FF9BCD" d = " M235 282 L239.5,284 C241.509,285.004 251,282.653 251,286 248.539,286 235,285.034 235,282  Z"/>

<path  fill="#FF9BCD" stroke-width="0" stroke="#FF9BCD" d = " M219 283 L218,284 C218,284 219,283 219,283  Z"/>

<path  fill="#FF9BCD" stroke-width="0" stroke="#FF9BCD" d = " M217 284 C214.736,284 205,283.373 205,286 206.496,286 217,285.012 217,284  Z"/>

<path  fill="#FF9BCD" stroke-width="0" stroke="#FF9BCD" d = " M205 286 C203.855,286 201,285.421 201,287 202.145,287 205,287.579 205,286  Z"/>

<path  fill="#FF9BCD" stroke-width="0" stroke="#FF9BCD" d = " M252 286 C253.048,286 255,285.527 255,287 253.952,287 252,287.473 252,286  Z"/>

<path  fill="#FF9B88" stroke-width="0" stroke="#FF9B88" d = " M192 287 L198,287 C198,288.587 192,288.587 192,287  Z"/>

<path  fill="#FF9BCD" stroke-width="0" stroke="#FF9BCD" d = " M259 287 L259,288 C259,288 258,287 258,287 258,287 259,287 259,287  Z"/>

<path  fill="#FF9B88" stroke-width="0" stroke="#FF9B88" d = " M264 287 C264,288.643 260.235,288 259,288 259,288 259,287 259,287 259,287 264,287 264,287  Z"/>

</g>
</svg>
