<svg xmlns="http://www.w3.org/2000/svg" xmlns:xlink="http://www.w3.org/1999/xlink"  viewBox="0 0 456 320">
<g>
<rect width="456" height="320" fill="#000000"  stroke-width="0" /> 
<path  fill="#1E9C59" stroke-width="0" stroke="#1E9C59" d = " M219 66 L220,66 C220,64.0838 223,65.9297 223,63 223,58.5788 214.835,52.6673 211.5,51 200.548,45.5238 180.57,45.4652 169.5,51 169.5,51 153,58 153,58 153,58 153,64 153,64 157.585,64 162.593,60.9535 166.5,59 176.227,54.1367 195.533,49.5163 206.5,55 209.665,56.5825 219,61.35 219,66  Z"/>

<path  fill="#1E9C59" stroke-width="0" stroke="#1E9C59" d = " M303 64 C298.601,64 294.238,60.8688 290.5,59 278.144,52.8219 259.398,50.5509 246.5,57 243.935,58.2827 237,62.5208 237,66 237,66 233,64 233,64 233,61.1626 238.875,55.6247 241,53.5 252.543,41.957 277.035,46.7674 289.5,53 291.148,53.8241 303,57.0419 303,58 303,58 303,64 303,64  Z"/>

<path  fill="#1E9D58" stroke-width="0" stroke="#1E9D58" d = " M213 71 L214,71 C214,71 219,66 219,66 219,61.35 209.665,56.5825 206.5,55 195.533,49.5163 176.227,54.1367 166.5,59 162.593,60.9535 157.585,64 153,64 153,64 153,65 153,65 153,69.8322 154,74.8536 154,81 163.252,81 187.34,57.9199 199.5,64 202.431,65.4653 213,65.2439 213,71  Z"/>

<path  fill="#1E9D58" stroke-width="0" stroke="#1E9D58" d = " M302 82 L303,82 C303,76.6431 303,71.074 303,64 298.601,64 294.238,60.8688 290.5,59 278.144,52.8219 259.398,50.5509 246.5,57 243.935,58.2827 237,62.5208 237,66 237,66 237,67 237,67 237,67 243,71 243,71 243,65.2439 253.569,65.4653 256.5,64 267.06,58.72 282.84,71.67 291.5,76 293.304,76.9022 302,79.7051 302,82  Z"/>

<path  fill="#1E9D5A" stroke-width="0" stroke="#1E9D5A" d = " M93 109 L94,109 C94,109 105.5,95 105.5,95 105.5,95 116.5,85 116.5,85 124.763,80.8686 144.944,65 153,65 153,65 153,64 153,64 153,64 153,58 153,58 153,58 141.5,64 141.5,64 129.348,70.0762 115.656,77.8435 105.5,88 102.074,91.4256 93,96.8757 93,101 93,104.015 93,106.112 93,109  Z"/>

<path  fill="#1E9D5A" stroke-width="0" stroke="#1E9D5A" d = " M364 102 C364,104.607 363,106.913 363,109 363,109 348.5,93 348.5,93 348.5,93 338.5,84 338.5,84 330.65,80.0749 323.271,74.8854 315.5,71 311.978,69.239 306.983,64 303,64 303,64 303,58 303,58 307.315,58 312.708,63.1039 316.5,65 324.688,69.0942 347.211,80.9227 351,88.5 353.043,92.5863 364,96.2864 364,102  Z"/>

<path  fill="#1F9D58" stroke-width="0" stroke="#1F9D58" d = " M196 88 L197,88 C197,83.7397 213,72.796 213,71 213,65.2439 202.431,65.4653 199.5,64 187.34,57.9199 163.252,81 154,81 154,81 154,82 154,82 154,89.7839 154,95.0564 154,103 160.669,103 184.259,86 191.5,86 191.5,86 196,88 196,88  Z"/>

<path  fill="#3EA665" stroke-width="0" stroke="#3EA665" d = " M222 99 L234,99 C234,94.5248 230.824,67 237,67 237,67 237,66 237,66 237,66 233,64 233,64 230.63,64 229.275,71 228.5,71 228.5,71 223,63 223,63 223,65.9297 220,64.0838 220,66 220,66 223,73.5 223,73.5 226.081,79.6622 222,92.9067 222,99  Z"/>

<path  fill="#1F9D58" stroke-width="0" stroke="#1F9D58" d = " M260 88 L264.5,86 C266.836,86 287.23,95.3652 290.5,97 294.129,98.8145 298.811,103 303,103 303,96.285 302,87.9417 302,82 302,79.7051 293.304,76.9022 291.5,76 282.84,71.67 267.06,58.72 256.5,64 253.569,65.4653 243,65.2439 243,71 243,71 243,72 243,72 245.86,72 259,84.7895 259,88 259,88 260,88 260,88  Z"/>

<path  fill="#1F9C58" stroke-width="0" stroke="#1F9C58" d = " M360 130 C359.368,130 358,135.82 358,136.5 L360,137.5 C360.403,138.306 360,150.811 360,153 358.402,153 357.908,139.315 357,137.5 352.778,129.056 347.281,121.062 343,112.5 339.408,105.315 323.25,92.8749 315.5,89 315.5,89 303,82 303,82 303,76.6431 303,71.074 303,64 306.983,64 311.978,69.239 315.5,71 323.271,74.8854 330.65,80.0749 338.5,84 338.5,84 348.5,93 348.5,93 348.5,93 363,109 363,109 363,109 363,111 363,111 363,111 361,115.5 361,115.5 361,122.947 360,123.681 360,130  Z"/>

<path  fill="#1F9C58" stroke-width="0" stroke="#1F9C58" d = " M97 131 C98.1112,131 96,142.569 96,144.5 96,145.69 95.3855,149 97,149 97,131.309 119.316,101.592 134.5,94 140.423,91.0387 147.174,82 154,82 154,82 154,81 154,81 154,74.8536 153,69.8322 153,65 144.944,65 124.763,80.8686 116.5,85 116.5,85 105.5,95 105.5,95 105.5,95 94,109 94,109 94,117.476 97,123.263 97,131  Z"/>

<path  fill="#40A565" stroke-width="0" stroke="#40A565" d = " M217 99 L222,99 C222,92.9067 226.081,79.6622 223,73.5 223,73.5 220,66 220,66 220,66 219,66 219,66 219,66 214,71 214,71 214,71 217,78.5 217,78.5 217,78.5 217,99 217,99  Z"/>

<path  fill="#40A565" stroke-width="0" stroke="#40A565" d = " M234 99 L240,99 C240,94.6565 238.861,72 243,72 243,72 243,71 243,71 243,71 237,67 237,67 230.824,67 234,94.5248 234,99  Z"/>

<path  fill="#3EA566" stroke-width="0" stroke="#3EA566" d = " M217 99 L201,103 C201,96.707 197,89.2279 197,88 197,83.7397 213,72.796 213,71 213,71 214,71 214,71 214,71 217,78.5 217,78.5 217,78.5 217,99 217,99  Z"/>

<path  fill="#3EA566" stroke-width="0" stroke="#3EA566" d = " M240 99 C245.378,99 249.925,103 255,103 255,98.1834 259,90.1671 259,88 259,84.7895 245.86,72 243,72 238.861,72 240,94.6565 240,99  Z"/>

<path  fill="#1E9C5A" stroke-width="0" stroke="#1E9C5A" d = " M118 164 C112.149,164 106.431,171 100,171 100,166.062 97,161.569 97,157 97,157 97,153 97,153 97,153 97,151 97,151 97,151 97,149 97,149 97,131.309 119.316,101.592 134.5,94 140.423,91.0387 147.174,82 154,82 154,89.7839 154,95.0564 154,103 148.382,103 142.543,110.978 138.5,113 116.81,123.845 118,143.772 118,164  Z"/>

<path  fill="#1E9C5A" stroke-width="0" stroke="#1E9C5A" d = " M339 165 C345.178,165 350.516,171 357,171 357,168.853 356,166.007 356,164.5 356,162.21 359,159.65 359,157 359,155.952 358.527,154 360,154 360,154 360,153 360,153 358.402,153 357.908,139.315 357,137.5 352.778,129.056 347.281,121.062 343,112.5 339.408,105.315 323.25,92.8749 315.5,89 315.5,89 303,82 303,82 303,82 302,82 302,82 302,87.9417 303,96.285 303,103 306.905,103 315.63,112.065 319.5,114 325.518,117.009 328.165,120.829 331,126.5 332.261,129.022 335.402,132.304 337,135.5 340.755,143.009 339,155.062 339,164 339,164 339,165 339,165  Z"/>

<path  fill="#1D9C5A" stroke-width="0" stroke="#1D9C5A" d = " M183 114 C172.485,114 166.223,122.639 157.5,127 L151,134 C151,134 154,126.5 154,126.5 156.287,121.926 154,108.576 154,103 160.669,103 184.259,86 191.5,86 191.5,86 196,88 196,88 196,90.8146 188.569,100.362 187,103.5 187,103.5 186,108.5 186,108.5 186,108.5 183,114 183,114  Z"/>

<path  fill="#1D9C5A" stroke-width="0" stroke="#1D9C5A" d = " M274 115 C274,112.641 284.149,117.324 285.5,118 291.562,121.031 297.034,128.267 302.5,131 L307,136 C307,136 302,126.5 302,126.5 300.813,124.127 303,105.811 303,103 298.811,103 294.129,98.8145 290.5,97 287.23,95.3652 266.836,86 264.5,86 264.5,86 260,88 260,88 260,92.4028 273,107.193 273,115 273,115 274,115 274,115  Z"/>

<path  fill="#3FA664" stroke-width="0" stroke="#3FA664" d = " M183 115 L186,116 C188.32,116 196.062,104 201,104 201,104 201,103 201,103 201,96.707 197,89.2279 197,88 197,88 196,88 196,88 196,90.8146 188.569,100.362 187,103.5 187,103.5 186,108.5 186,108.5 186,108.5 183,114 183,114 183,114 183,115 183,115  Z"/>

<path  fill="#3FA664" stroke-width="0" stroke="#3FA664" d = " M270 117 L271,117 C271,115.253 271.253,115 273,115 273,107.193 260,92.4028 260,88 260,88 259,88 259,88 259,90.1671 255,98.1834 255,103 255,103 255,104 255,104 258.681,104 270,112.784 270,117  Z"/>

<path  fill="#2EA84F" stroke-width="0" stroke="#2EA84F" d = " M218 132 L205,135 C205,124.781 201,115.037 201,104 201,104 201,103 201,103 201,103 217,99 217,99 217,109.912 218,121.76 218,132  Z"/>

<path  fill="#2FA74F" stroke-width="0" stroke="#2FA74F" d = " M218 132 L223,132 C223,121.76 222,109.912 222,99 222,99 217,99 217,99 217,109.912 218,121.76 218,132  Z"/>

<path  fill="#2FA750" stroke-width="0" stroke="#2FA750" d = " M223 132 L234,132 C234,132 234,99 234,99 234,99 222,99 222,99 222,109.912 223,121.76 223,132  Z"/>

<path  fill="#2FA74F" stroke-width="0" stroke="#2FA74F" d = " M238 132 L239,132 C239,132 240,99 240,99 240,99 234,99 234,99 234,99 234,132 234,132 234,132 238,132 238,132  Z"/>

<path  fill="#2EA84F" stroke-width="0" stroke="#2EA84F" d = " M239 132 L251,135 C251,130.979 253.165,122.17 255,118.5 255,118.5 255,104 255,104 255,104 255,103 255,103 249.925,103 245.378,99 240,99 240,99 239,132 239,132  Z"/>

<path  fill="#187E61" stroke-width="0" stroke="#187E61" d = " M80 161 L76,162 C76,141.066 74.6211,133.258 84,114.5 85.1231,112.254 90.1443,101 93,101 93,104.015 93,106.112 93,109 93,109 83,128.5 83,128.5 78.3807,137.739 80,150.943 80,161  Z"/>

<path  fill="#187E61" stroke-width="0" stroke="#187E61" d = " M377 161 L381,162 C381,141.891 380.338,131.176 372,114.5 370.864,112.229 367.335,102 364,102 364,104.607 363,106.913 363,109 363,109 363,111 363,111 365.956,111 368.728,118.957 370,121.5 375.995,133.489 377,146.456 377,161  Z"/>

<path  fill="#1F9B5A" stroke-width="0" stroke="#1F9B5A" d = " M143 151 C133.824,151 126.993,164 118,164 118,143.772 116.81,123.845 138.5,113 142.543,110.978 148.382,103 154,103 154,108.576 156.287,121.926 154,126.5 154,126.5 151,134 151,134 151,134 148,139 148,139 148,139 147,140 147,140 147,140 147,141 147,141 147,141 146,142 146,142 144.527,142 145,143.952 145,145 143.421,145 144,147.855 144,149 144,149 143,150 143,150 143,150 143,151 143,151  Z"/>

<path  fill="#1F9B5A" stroke-width="0" stroke="#1F9B5A" d = " M313 150 C318.889,150 331.784,164 339,164 339,155.062 340.755,143.009 337,135.5 335.402,132.304 332.261,129.022 331,126.5 328.165,120.829 325.518,117.009 319.5,114 315.63,112.065 306.905,103 303,103 303,105.811 300.813,124.127 302,126.5 302,126.5 307,136 307,136 307,136 308,138 308,138 308,138 309,139 309,139 309,139 309,140 309,140 309,140 311,142 311,142 311,142 311,144 311,144 312.638,144 313,147.576 313,149 313,149 313,150 313,150  Z"/>

<path  fill="#2FA850" stroke-width="0" stroke="#2FA850" d = " M205 135 C201.909,135 199.522,137 197,137 197,134.27 188.79,117 186,117 186,117 186,116 186,116 188.32,116 196.062,104 201,104 201,115.037 205,124.781 205,135  Z"/>

<path  fill="#2FA850" stroke-width="0" stroke="#2FA850" d = " M259 137 L260,137 C260,134.916 262.574,125 265,125 265,122.756 266.725,119 269,119 269,119 270,117 270,117 270,112.784 258.681,104 255,104 255,104 255,118.5 255,118.5 253.165,122.17 251,130.979 251,135 252.775,135 259,135.069 259,137  Z"/>

<path  fill="#1A7E64" stroke-width="0" stroke="#1A7E64" d = " M92 158 L80,161 C80,150.943 78.3807,137.739 83,128.5 83,128.5 93,109 93,109 93,109 94,109 94,109 94,117.476 97,123.263 97,131 94.6658,131 95.6594,135.181 95,136.5 92.1828,142.134 92,150.286 92,157 92,157 92,158 92,158  Z"/>

<path  fill="#1A7E64" stroke-width="0" stroke="#1A7E64" d = " M376 161 L377,161 C377,146.456 375.995,133.489 370,121.5 368.728,118.957 365.956,111 363,111 363,111 361,115.5 361,115.5 361,122.947 360,123.681 360,130 360,130 363,139.5 363,139.5 363,139.5 364,157 364,157 365.219,157 376,160.474 376,161  Z"/>

<path  fill="#1E9C58" stroke-width="0" stroke="#1E9C58" d = " M145 149 L147,149 C147,141.963 161.534,121 169,121 169,118.87 180.823,115 183,115 183,115 183,114 183,114 172.485,114 166.223,122.639 157.5,127 157.5,127 151,134 151,134 151,134 148,139 148,139 148,139 147,140 147,140 147,140 147,141 147,141 147,141 146,142 146,142 146,143.048 146.473,145 145,145 145,145 145,149 145,149  Z"/>

<path  fill="#1E9C58" stroke-width="0" stroke="#1E9C58" d = " M310 149 L311,149 C311,147.376 311,146.25 311,144 311,144 311,142 311,142 311,142 309,140 309,140 309,140 309,139 309,139 309,139 308,138 308,138 308,138 307,136 307,136 307,136 302.5,131 302.5,131 297.034,128.267 291.562,121.031 285.5,118 284.149,117.324 274,112.641 274,115 274,115 287,120 287,120 293.258,120 310,142.659 310,149  Z"/>

<path  fill="#CACCC7" stroke-width="0" stroke="#CACCC7" d = " M199 151 L199,159 C196.588,159 196.094,143.687 195,141.5 188.539,128.579 190.651,122 173,122 173,122 169,121 169,121 169,118.87 180.823,115 183,115 183,115 185,117 185,117 185,119.014 190.933,125.367 192,127.5 192.736,128.972 194.483,137 196,137 196,138.698 197.069,147 199,147 199,147 199,151 199,151  Z"/>

<path  fill="#3FA466" stroke-width="0" stroke="#3FA466" d = " M185 117 L186,117 C186,117 186,116 186,116 186,116 183,115 183,115 183,115 185,117 185,117  Z"/>

<path  fill="#3FA466" stroke-width="0" stroke="#3FA466" d = " M273 116 L271,117 C271,115.253 271.253,115 273,115 273,115 273,116 273,116  Z"/>

<path  fill="#1E9C58" stroke-width="0" stroke="#1E9C58" d = " M274 115 L273,116 C273,116 273,115 273,115 273,115 274,115 274,115  Z"/>

<path  fill="#CACCC7" stroke-width="0" stroke="#CACCC7" d = " M257 152 C257,154.124 258,156.436 258,158 259.598,158 260.092,144.315 261,142.5 267.671,129.158 265.238,122 284,122 284,122 287,120 287,120 287,120 274,115 274,115 274,115 273,116 273,116 273,116 271,117 271,117 271,117 269,119 269,119 269,120.417 266.617,125 265,125 265,125 261,137 261,137 261,138.346 257.937,150 257,150 257,150 257,152 257,152  Z"/>

<path  fill="#2FA84F" stroke-width="0" stroke="#2FA84F" d = " M196 137 L197,137 C197,134.27 188.79,117 186,117 186,117 185,117 185,117 185,119.014 190.933,125.367 192,127.5 192.736,128.972 194.483,137 196,137  Z"/>

<path  fill="#2FA84F" stroke-width="0" stroke="#2FA84F" d = " M271 117 L269,119 C269,119 270,117 270,117 270,117 271,117 271,117  Z"/>

<path  fill="#2FA84F" stroke-width="0" stroke="#2FA84F" d = " M269 119 C266.725,119 265,122.756 265,125 266.617,125 269,120.417 269,119  Z"/>

<path  fill="#C9C9CA" stroke-width="0" stroke="#C9C9CA" d = " M304 169 L304,170 C304,170 307,168 307,168 307,168 308,167 308,167 308,167 310,163 310,163 310,157.622 310,154.511 310,149 310,142.659 293.258,120 287,120 287,120 284,122 284,122 284,122 303,139.5 303,139.5 305.136,143.771 309.866,154.768 307,160.5 307,160.5 304,169 304,169  Z"/>

<path  fill="#C9C9CA" stroke-width="0" stroke="#C9C9CA" d = " M153 169 L153,171 C153,171 149,168 149,168 149,168 149,167 149,167 149,167 147,164 147,164 147,158.257 147,154.5 147,149 147,141.963 161.534,121 169,121 169,121 173,122 173,122 173,122 167.5,126 167.5,126 167.5,126 153,140.5 153,140.5 151.177,144.145 146.764,169 153,169  Z"/>

<path  fill="#CAC7CC" stroke-width="0" stroke="#CAC7CC" d = " M158 167 C156.376,167 155.25,169 153,169 146.764,169 151.177,144.145 153,140.5 153,140.5 167.5,126 167.5,126 167.5,126 173,122 173,122 190.651,122 188.539,128.579 195,141.5 196.094,143.687 196.588,159 199,159 199,159 199,160 199,160 199,160 192,167 192,167 192,153.926 162.553,134.394 155,149.5 150.75,158 158,162.303 158,167  Z"/>

<path  fill="#CAC7CC" stroke-width="0" stroke="#CAC7CC" d = " M299 167 C299,169.461 302.378,169 304,169 304,169 307,160.5 307,160.5 309.866,154.768 305.136,143.771 303,139.5 303,139.5 284,122 284,122 265.238,122 267.671,129.158 261,142.5 260.092,144.315 259.598,158 258,158 258,158 258,159 258,159 258,160.597 263.928,168 265,168 265,153.516 293.447,133.393 302,150.5 305.362,157.223 299,161.158 299,167  Z"/>

<path  fill="#2FA84F" stroke-width="0" stroke="#2FA84F" d = " M260 137 L261,137 C261,137 265,125 265,125 262.574,125 260,134.916 260,137  Z"/>

<path  fill="#1B7F62" stroke-width="0" stroke="#1B7F62" d = " M360 157 L364,157 C364,157 363,139.5 363,139.5 363,139.5 360,130 360,130 359.368,130 358,135.82 358,136.5 358,136.5 360,137.5 360,137.5 360.403,138.306 360,150.811 360,153 360,153 360,154 360,154 360,154 360,157 360,157  Z"/>

<path  fill="#1B7F62" stroke-width="0" stroke="#1B7F62" d = " M96 157 L97,157 C97,157 97,153 97,153 95.6007,153 95.6007,151 97,151 97,151 97,149 97,149 95.3855,149 96,145.69 96,144.5 96,142.569 98.1112,131 97,131 94.6658,131 95.6594,135.181 95,136.5 92.1828,142.134 92,150.286 92,157 92,157 96,157 96,157  Z"/>

<path  fill="#59B262" stroke-width="0" stroke="#59B262" d = " M212 153 L219,153 C219,146.033 218,138.319 218,132 218,132 205,135 205,135 205,141.219 212,148.965 212,153  Z"/>

<path  fill="#59B362" stroke-width="0" stroke="#59B362" d = " M219 153 L223,153 C223,145.609 223,139.843 223,132 223,132 218,132 218,132 218,138.319 219,146.033 219,153  Z"/>

<path  fill="#59B263" stroke-width="0" stroke="#59B263" d = " M229 153 L233,153 C233,146.033 234,138.319 234,132 234,132 223,132 223,132 223,139.843 223,145.609 223,153 223,153 228,153 228,153 228,153 228,146 228,146 228,142.754 229,142.754 229,146 229,146 229,153 229,153  Z"/>

<path  fill="#59B362" stroke-width="0" stroke="#59B362" d = " M233 153 L237,153 C237,153 238,132 238,132 238,132 234,132 234,132 234,138.319 233,146.033 233,153  Z"/>

<path  fill-rule="evenodd" fill="#59B262" stroke-width="0" stroke="#59B262" d = " M239 148 C239,149.93 240.93,148 239,148  M237 153 L245,153 C245,147.056 251,141.762 251,135 251,135 239,132 239,132 239,132 238,132 238,132 238,132 237,153 237,153  Z"/>

<path  fill="#58B362" stroke-width="0" stroke="#58B362" d = " M199 151 C202.686,151 208.257,153 212,153 212,148.965 205,141.219 205,135 201.909,135 199.522,137 197,137 197,140.255 199,143.058 199,147 199,147 199,151 199,151  Z"/>

<path  fill="#58B362" stroke-width="0" stroke="#58B362" d = " M257 152 C253.038,152 248.312,153 245,153 245,147.056 251,141.762 251,135 252.775,135 259,135.069 259,137 259,141.449 257,145.01 257,150 257,150 257,152 257,152  Z"/>

<path  fill="#58B263" stroke-width="0" stroke="#58B263" d = " M197 137 C197,140.255 199,143.058 199,147 197.069,147 196,138.698 196,137 196,137 197,137 197,137  Z"/>

<path  fill="#58B263" stroke-width="0" stroke="#58B263" d = " M261 137 C261,138.346 257.937,150 257,150 257,145.01 259,141.449 259,137 259,137 260,137 260,137 260,137 261,137 261,137  Z"/>

<path  fill="#1D9D5A" stroke-width="0" stroke="#1D9D5A" d = " M308 138 L309,139 C309,139 308,138 308,138  Z"/>

<path  fill="#1D9D5A" stroke-width="0" stroke="#1D9D5A" d = " M148 139 L147,140 C147,140 148,139 148,139  Z"/>

<path  fill="#1D9D5A" stroke-width="0" stroke="#1D9D5A" d = " M309 140 L311,142 C311,142 309,140 309,140  Z"/>

<path  fill="#1D9D5A" stroke-width="0" stroke="#1D9D5A" d = " M147 141 L146,142 C146,142 147,141 147,141  Z"/>

<path  fill="#1D9D5A" stroke-width="0" stroke="#1D9D5A" d = " M146 142 C144.527,142 145,143.952 145,145 146.473,145 146,143.048 146,142  Z"/>

<path  fill="#1D9D5A" stroke-width="0" stroke="#1D9D5A" d = " M311 149 L313,149 C313,147.576 312.638,144 311,144 311,146.25 311,147.376 311,149  Z"/>

<path  fill="#1D9D5A" stroke-width="0" stroke="#1D9D5A" d = " M144 149 L145,149 C145,149 145,145 145,145 143.421,145 144,147.855 144,149  Z"/>

<path  fill="#98D5F9" stroke-width="0" stroke="#98D5F9" d = " M182 189 L183,189 C183,189 189,184.5 189,184.5 189,184.5 191,172 191,172 191,172 192,167 192,167 192,153.926 162.553,134.394 155,149.5 150.75,158 158,162.303 158,167 160.775,167 163,174.502 163,177 163,177 163,179 163,179 163,179 162,180 162,180 162,180 162,182 162,182 162,184.676 162,186.739 162,189 162,193.451 177.763,190 180,190 180,190 182,189 182,189  Z"/>

<path  fill="#98D5F9" stroke-width="0" stroke="#98D5F9" d = " M276 190 L277,190 C280.964,190 288.388,193.056 292.5,191 292.5,191 295,189 295,189 295,186.591 294,183.819 294,182 294,182 294,180 294,180 294,180 294,176 294,176 294,173.547 295.762,167 299,167 299,161.158 305.362,157.223 302,150.5 293.447,133.393 265,153.516 265,168 265,168 265,173 265,173 266.921,173 266.26,181.021 267,182.5 267.815,184.13 273,188.566 273,189 273,189 274,189 274,189 274,189 276,190 276,190  Z"/>

<path  fill="#99D2BD" stroke-width="0" stroke="#99D2BD" d = " M228 153 C228,162.17 229,162.17 229,153 229,153 229,146 229,146 229,146 228,146 228,146 228,146 228,153 228,153  Z"/>

<path  fill="#3EA666" stroke-width="0" stroke="#3EA666" d = " M239 148 C239,149.93 240.93,148 239,148  Z"/>

<path  fill="#1D9D5A" stroke-width="0" stroke="#1D9D5A" d = " M144 149 L143,150 C143,150 144,149 144,149  Z"/>

<path  fill="#1F9766" stroke-width="0" stroke="#1F9766" d = " M147 164 L144,166 C144,161.575 143,156.039 143,151 143,151 143,150 143,150 143,150 144,149 144,149 144,149 145,149 145,149 145,149 147,149 147,149 147,154.5 147,158.257 147,164  Z"/>

<path  fill="#1F9766" stroke-width="0" stroke="#1F9766" d = " M310 163 L312,166 C313.801,166 313,152.158 313,150 313,150 313,149 313,149 313,149 311,149 311,149 311,149 310,149 310,149 310,154.511 310,157.622 310,163  Z"/>

<path  fill="#209666" stroke-width="0" stroke="#209666" d = " M324 181 L325,181 C330.536,181 334.839,174.822 337,170.5 337.557,169.386 337.41,165 339,165 339,165 339,164 339,164 331.784,164 318.889,150 313,150 313,152.158 313.801,166 312,166 312,166 312,167 312,167 312,167 314,168 314,168 314,168 319.5,165 319.5,165 322.127,165 330.612,171.275 329,174.5 328.166,176.167 324,179.789 324,181  Z"/>

<path  fill="#1F9C58" stroke-width="0" stroke="#1F9C58" d = " M97 151 C95.6007,151 95.6007,153 97,153 97,153 97,151 97,151  Z"/>

<path  fill="#209666" stroke-width="0" stroke="#209666" d = " M131 181 L132,181 C132,181 132,180 132,180 123.869,180 129.71,167.895 133.5,166 138.071,163.715 139.15,169 143,169 143,169 144,167 144,167 144,167 144,166 144,166 144,161.575 143,156.039 143,151 133.824,151 126.993,164 118,164 118,170.237 123.89,181 131,181  Z"/>

<path  fill="#A3DAA3" stroke-width="0" stroke="#A3DAA3" d = " M205 174 C205,172.223 214.717,173 216.5,173 221.208,173 247.687,171.594 250.5,173 L252,175 C252,173.789 256.166,170.167 257,168.5 257.783,166.934 255.65,159 258,159 258,159 258,158 258,158 258,156.436 257,154.124 257,152 253.038,152 248.312,153 245,153 245,153 237,153 237,153 237,153 233,153 233,153 233,153 229,153 229,153 229,162.17 228,162.17 228,153 228,153 223,153 223,153 223,153 219,153 219,153 219,153 212,153 212,153 208.257,153 202.686,151 199,151 199,151 199,159 199,159 199,159 199,160 199,160 199,164.327 199.106,174 205,174  Z"/>

<path  fill="#1B7E63" stroke-width="0" stroke="#1B7E63" d = " M359 157 L360,157 C360,157 360,154 360,154 358.527,154 359,155.952 359,157  Z"/>

<path  fill="#009C74" stroke-width="0" stroke="#009C74" d = " M95 173 L96,173 C96,173 96,157 96,157 96,157 92,157 92,157 92,157 92,158 92,158 94.2222,158 92.0434,173 95,173  Z"/>

<path  fill="#019C75" stroke-width="0" stroke="#019C75" d = " M100 171 C100,173.109 97.4655,173 96,173 96,173 96,157 96,157 96,157 97,157 97,157 97,161.569 100,166.062 100,171  Z"/>

<path  fill="#019C75" stroke-width="0" stroke="#019C75" d = " M357 171 C357,173.109 359.535,173 361,173 361,173 360,157 360,157 360,157 359,157 359,157 359,159.65 356,162.21 356,164.5 356,166.007 357,168.853 357,171  Z"/>

<path  fill="#009C74" stroke-width="0" stroke="#009C74" d = " M361 174 L362,174 C362,174 364,157 364,157 364,157 360,157 360,157 360,157 361,173 361,173 361,173 361,174 361,174  Z"/>

<path  fill="#009B75" stroke-width="0" stroke="#009B75" d = " M362 174 L373,179 C373,173.442 376,167.285 376,161 376,160.474 365.219,157 364,157 364,157 362,174 362,174  Z"/>

<path  fill="#009B75" stroke-width="0" stroke="#009B75" d = " M95 173 C95,174.628 84.6195,179 83,179 83,173.056 80,167.222 80,161 80,161 92,158 92,158 94.2222,158 92.0434,173 95,173  Z"/>

<path  fill="#99D2BD" stroke-width="0" stroke="#99D2BD" d = " M255 196 L251.5,199 C249.427,200.036 231,209.754 231,202 248.351,202 252,191.004 252,175 252,173.789 256.166,170.167 257,168.5 257.783,166.934 255.65,159 258,159 258,160.597 263.928,168 265,168 265,168 265,173 265,173 263.504,173 261,184.357 261,186 261,186 256,195 256,195 256,195 255,196 255,196  Z"/>

<path  fill="#99D2BD" stroke-width="0" stroke="#99D2BD" d = " M201 196 C204.432,196 212.978,205 218,205 220.176,205 225,205.348 225,202 206.205,202 205,188.811 205,174 199.106,174 199,164.327 199,160 199,160 192,167 192,167 192,167 191,172 191,172 192.313,172 196,185.279 196,187 196,187 201,196 201,196  Z"/>

<path  fill="#009C75" stroke-width="0" stroke="#009C75" d = " M83 180 L79,181 C79,181 76,162 76,162 76,162 80,161 80,161 80,167.222 83,173.056 83,179 83,179 83,180 83,180  Z"/>

<path  fill="#009C75" stroke-width="0" stroke="#009C75" d = " M373 180 L377,181 C377,174.974 381,168.244 381,162 381,162 377,161 377,161 377,161 376,161 376,161 376,167.285 373,173.442 373,179 373,179 373,180 373,180  Z"/>

<path  fill="#219665" stroke-width="0" stroke="#219665" d = " M312 167 L308,168 C308,168 308,167 308,167 308,167 310,163 310,163 310,163 312,166 312,166 312,166 312,167 312,167  Z"/>

<path  fill="#209665" stroke-width="0" stroke="#209665" d = " M102 197 L103,197 C107.687,197 131,186.351 131,181 123.89,181 118,170.237 118,164 112.149,164 106.431,171 100,171 100,173.109 97.4655,173 96,173 96,177.129 98.3038,197 102,197  Z"/>

<path  fill="#219665" stroke-width="0" stroke="#219665" d = " M149 167 L148,168 C148,168 144,167 144,167 144,167 144,166 144,166 144,166 147,164 147,164 147,164 149,167 149,167  Z"/>

<path  fill="#8ADA86" stroke-width="0" stroke="#8ADA86" d = " M134 182 C138.136,182 141.278,184 147,184 149.359,184 150.698,180 152,180 152,175.439 149,174.716 149,173 146.227,173 145.33,169 143,169 139.15,169 138.071,163.715 133.5,166 129.71,167.895 123.869,180 132,180 132,180 134,182 134,182  Z"/>

<path  fill="#8ADA86" stroke-width="0" stroke="#8ADA86" d = " M322 182 L314.5,185 L310,184 C307.636,184 306.947,181 305,181 305,181 304,176.5 304,176.5 304,176.5 307,174 307,174 307,174 314,168 314,168 314,168 319.5,165 319.5,165 322.127,165 330.612,171.275 329,174.5 328.166,176.167 324,179.789 324,181 324,181 322,182 322,182  Z"/>

<path  fill="#209665" stroke-width="0" stroke="#209665" d = " M354 197 L355,197 C355,194.428 361,181.074 361,174 361,174 361,173 361,173 359.535,173 357,173.109 357,171 350.516,171 345.178,165 339,165 337.41,165 337.557,169.386 337,170.5 334.839,174.822 330.536,181 325,181 325,186.378 349.193,197 354,197  Z"/>

<path  fill="#1F9866" stroke-width="0" stroke="#1F9866" d = " M143 169 C145.33,169 146.227,173 149,173 149,173 148,168 148,168 148,168 144,167 144,167 144,167 143,169 143,169  Z"/>

<path  fill="#248A5C" stroke-width="0" stroke="#248A5C" d = " M148 168 L149,168 C149,168 149,167 149,167 149,167 148,168 148,168  Z"/>

<path  fill="#C8CBCC" stroke-width="0" stroke="#C8CBCC" d = " M153 171 C153,172.839 161.481,177 163,177 163,174.502 160.775,167 158,167 156.376,167 155.25,169 153,169 153,169 153,171 153,171  Z"/>

<path  fill="#C8CBCC" stroke-width="0" stroke="#C8CBCC" d = " M304 170 C304,172.915 296.225,176 294,176 294,173.547 295.762,167 299,167 299,169.461 302.378,169 304,169 304,169 304,170 304,170  Z"/>

<path  fill="#248A5C" stroke-width="0" stroke="#248A5C" d = " M307 168 L308,168 C308,168 308,167 308,167 308,167 307,168 307,168  Z"/>

<path  fill="#1F9866" stroke-width="0" stroke="#1F9866" d = " M314 168 L307,174 C307,171.512 308,170.01 308,168 308,168 312,167 312,167 312,167 314,168 314,168  Z"/>

<path  fill="#24895D" stroke-width="0" stroke="#24895D" d = " M162 182 L157,187 C153.222,187 152,183.019 152,180 152,175.439 149,174.716 149,173 149,173 148,168 148,168 148,168 149,168 149,168 149,168 153,171 153,171 153,172.839 161.481,177 163,177 163,177 163,179 163,179 163,179 162,180 162,180 162,180 162,182 162,182  Z"/>

<path  fill="#24895D" stroke-width="0" stroke="#24895D" d = " M295 182 L300,187 C304.042,187 302.371,181 305,181 305,181 304,176.5 304,176.5 304,176.5 307,174 307,174 307,171.512 308,170.01 308,168 308,168 307,168 307,168 307,168 304,170 304,170 304,172.915 296.225,176 294,176 294,176 294,180 294,180 294,180 295,182 295,182  Z"/>

<path  fill="#97D6F9" stroke-width="0" stroke="#97D6F9" d = " M196 187 C189.709,187 188.1,189 183,189 183,189 189,184.5 189,184.5 189,184.5 191,172 191,172 192.313,172 196,185.279 196,187  Z"/>

<path  fill="#209765" stroke-width="0" stroke="#209765" d = " M91 201 L92,201 C93.0103,201 102,197.567 102,197 98.3038,197 96,177.129 96,173 96,173 95,173 95,173 95,174.628 84.6195,179 83,179 83,179 83,180 83,180 83,186.895 91,194.192 91,201  Z"/>

<path  fill="#61D09F" stroke-width="0" stroke="#61D09F" d = " M226 201 L225,202 C206.205,202 205,188.811 205,174 205,172.223 214.717,173 216.5,173 221.208,173 247.687,171.594 250.5,173 250.5,173 252,175 252,175 252,191.004 248.351,202 231,202 231,202 229,198 229,198 229,193.573 227,196.132 227,199 227,199 226,201 226,201  Z"/>

<path  fill="#97D6F9" stroke-width="0" stroke="#97D6F9" d = " M261 186 C265.922,186 268.494,189 273,189 273,188.566 267.815,184.13 267,182.5 266.26,181.021 266.921,173 265,173 263.504,173 261,184.357 261,186  Z"/>

<path  fill="#209765" stroke-width="0" stroke="#209765" d = " M355 197 C355,198.018 363.863,201 365,201 365,195.552 373,186.637 373,180 373,180 373,179 373,179 373,179 362,174 362,174 362,174 361,174 361,174 361,181.074 355,194.428 355,197  Z"/>

<path  fill="#C8CBCC" stroke-width="0" stroke="#C8CBCC" d = " M163 179 L162,180 C162,180 163,179 163,179  Z"/>

<path  fill="#209764" stroke-width="0" stroke="#209764" d = " M91 201 C91,202.579 88.1452,202 87,202 87,196.709 79,187.169 79,181 79,181 83,180 83,180 83,186.895 91,194.192 91,201  Z"/>

<path  fill="#1F9866" stroke-width="0" stroke="#1F9866" d = " M132 181 L134,182 C134,182 132,180 132,180 132,180 132,181 132,181  Z"/>

<path  fill="#1F9866" stroke-width="0" stroke="#1F9866" d = " M157 187 C157,189.262 148.419,195 147,195 147,192.971 148.191,193.119 149,191.5 150.558,188.383 147,186.099 147,184 149.359,184 150.698,180 152,180 152,183.019 153.222,187 157,187  Z"/>

<path  fill="#C8CBCC" stroke-width="0" stroke="#C8CBCC" d = " M294 182 L295,182 C295,182 294,180 294,180 294,180 294,182 294,182  Z"/>

<path  fill="#209764" stroke-width="0" stroke="#209764" d = " M365 201 L369,202 C369,196.744 377,187.779 377,181 377,181 373,180 373,180 373,186.637 365,195.552 365,201  Z"/>

<path  fill="#1F9865" stroke-width="0" stroke="#1F9865" d = " M127 207 L131,207 C131,206.54 141.755,200 143,200 143,200 146,197 146,197 146,197 147,196 147,196 147,196 147,195 147,195 147,192.971 148.191,193.119 149,191.5 150.558,188.383 147,186.099 147,184 141.278,184 138.136,182 134,182 134,182 132,181 132,181 132,181 131,181 131,181 131,186.351 107.687,197 103,197 103,205.605 116.482,201.491 121.5,204 121.5,204 127,207 127,207  Z"/>

<path  fill="#1F9866" stroke-width="0" stroke="#1F9866" d = " M300 187 C300,188.875 308.374,196 310,196 310,196 307,190.5 307,190.5 305.189,186.878 310,185.606 310,184 307.636,184 306.947,181 305,181 302.371,181 304.042,187 300,187  Z"/>

<path  fill="#1F9866" stroke-width="0" stroke="#1F9866" d = " M324 181 L322,182 C322,182 324,181 324,181  Z"/>

<path  fill="#1F9865" stroke-width="0" stroke="#1F9865" d = " M326 207 L330,207 C330,207 331.5,205 331.5,205 335.514,202.993 354,204.796 354,197 349.193,197 325,186.378 325,181 325,181 324,181 324,181 324,181 322,182 322,182 322,182 314.5,185 314.5,185 314.5,185 310,184 310,184 310,185.606 305.189,186.878 307,190.5 307,190.5 310,196 310,196 310,198.299 319.527,204.013 321.5,205 322.43,205.465 326,205.817 326,207  Z"/>

<path  fill="#99D2BD" stroke-width="0" stroke="#99D2BD" d = " M152 249 L155,250 C155,250 165,245 165,245 165,242.733 163.57,237.361 165,234.5 166.671,231.158 169,226.924 169,223 169,220.553 167,219.72 167,217 162.857,217 160,212.866 160,209 156.432,209 161,195.096 161,194 161,192.765 160.357,189 162,189 162,186.739 162,184.676 162,182 162,182 157,187 157,187 157,189.262 148.419,195 147,195 147,195 147,196 147,196 147,196 146,197 146,197 146,197 143,200 143,200 146.253,200 150.725,196.112 154.5,198 154.5,198 157,200.5 157,200.5 157,200.5 157,207.5 157,207.5 159.467,212.434 161.509,217.518 164,222.5 164.686,223.872 163.78,226.36 162.5,227 156.483,230.008 154.02,223 149,223 149,223.139 158.811,233.122 160,235.5 162.995,241.49 152,244.644 152,249  Z"/>

<path  fill="#99D2BD" stroke-width="0" stroke="#99D2BD" d = " M302 250 C303.375,250 304.625,250 306,250 306,250 297,240.5 297,240.5 293.067,232.634 305,230.327 305,225 300.515,225 298.193,229.347 293.5,227 289.125,224.813 295.813,216.873 297,214.5 297,214.5 300,204.5 300,204.5 300,204.5 300.5,199 300.5,199 309.533,194.483 316.724,202.947 320,209.5 320,209.5 319,214 319,214 321.631,214 320.197,207 326,207 326,205.817 322.43,205.465 321.5,205 319.527,204.013 310,198.299 310,196 308.374,196 300,188.875 300,187 300,187 295,182 295,182 295,182 294,182 294,182 294,183.819 295,186.591 295,189 295,194.752 297,198.904 297,205 297,206.235 297.643,210 296,210 296,215.272 292.55,216 289,216 289,218.805 287,220.541 287,223 287,229.711 292,236.482 292,245 292,245 302,250 302,250  Z"/>

<path  fill="#80CDF8" stroke-width="0" stroke="#80CDF8" d = " M213 233 C213,236.047 214.717,241.065 213,244.5 209.654,251.192 196.364,261.432 189.5,258 L182.5,258 C177.391,255.445 165,253.07 165,245 165,242.733 163.57,237.361 165,234.5 166.671,231.158 169,226.924 169,223 169,223 170,223 170,223 170,223 172,225 172,225 175.795,225 179,225.39 179,219.5 179,204.648 167,209.575 167,217 162.857,217 160,212.866 160,209 161.951,209 160.477,206.546 161,205.5 162.83,201.84 164.262,199.238 167.5,196 167.5,196 180,190 180,190 180,190 182,189 182,189 182,189 183,189 183,189 188.1,189 189.709,187 196,187 196,187 201,196 201,196 201,196 205,201.5 205,201.5 206.855,205.21 213,228.553 213,233  Z"/>

<path  fill="#80CDF8" stroke-width="0" stroke="#80CDF8" d = " M243 233 L243,243.5 C248.613,254.726 265.205,263.147 277.5,257 L288.5,251 L292,245 C292,236.482 287,229.711 287,223 287,223 286,223 286,223 286,223 285,224 285,224 285,231.96 273.407,219.686 277,212.5 279.74,207.021 289,210.864 289,216 292.55,216 296,215.272 296,210 296,204.102 292.49,197.495 287.5,195 287.5,195 277,190 277,190 277,190 276,190 276,190 276,190 274,189 274,189 274,189 273,189 273,189 268.494,189 265.922,186 261,186 261,186 256,195 256,195 256,195 255,196 255,196 255,198.827 252.169,200.163 251,202.5 249.683,205.135 243,230.011 243,233  Z"/>

<path  fill="#97D6F9" stroke-width="0" stroke="#97D6F9" d = " M180 190 L167.5,196 C164.262,199.238 162.83,201.84 161,205.5 160.477,206.546 161.951,209 160,209 156.432,209 161,195.096 161,194 161,192.765 160.357,189 162,189 162,193.451 177.763,190 180,190  Z"/>

<path  fill="#97D6F9" stroke-width="0" stroke="#97D6F9" d = " M182 189 L180,190 C180,190 182,189 182,189  Z"/>

<path  fill="#97D6F9" stroke-width="0" stroke="#97D6F9" d = " M274 189 L276,190 C276,190 274,189 274,189  Z"/>

<path  fill="#97D6F9" stroke-width="0" stroke="#97D6F9" d = " M277 190 L287.5,195 C292.49,197.495 296,204.102 296,210 297.643,210 297,206.235 297,205 297,198.904 295,194.752 295,189 295,189 292.5,191 292.5,191 288.388,193.056 280.964,190 277,190  Z"/>

<path  fill="#99D2BD" stroke-width="0" stroke="#99D2BD" d = " M229 198 L227,199 C227,196.132 229,193.573 229,198  Z"/>

<path  fill="#97D6F9" stroke-width="0" stroke="#97D6F9" d = " M256 195 L255,196 C255,196 256,195 256,195  Z"/>

<path  fill="#1F9866" stroke-width="0" stroke="#1F9866" d = " M147 196 L146,197 C146,197 147,196 147,196  Z"/>

<path  fill="#97D6F9" stroke-width="0" stroke="#97D6F9" d = " M222 255 C223.665,255 223,250.778 223,249.5 L226,235.5 L228.5,233 C231.789,234.644 233,246.419 233,250 233,251.357 233.647,256 235,256 235,252.382 237,249.846 237,247 235.844,247 235.528,244.445 236,243.5 237.276,240.949 240.186,233 243,233 243,230.011 249.683,205.135 251,202.5 252.169,200.163 255,198.827 255,196 255,196 251.5,199 251.5,199 249.427,200.036 231,209.754 231,202 231,202 229,198 229,198 229,198 227,199 227,199 227,199 226,201 226,201 226,201 225,202 225,202 225,205.348 220.176,205 218,205 212.978,205 204.432,196 201,196 201,196 205,201.5 205,201.5 206.855,205.21 213,228.553 213,233 218.487,233 220,244.928 220,248 220,250.16 222,252.167 222,255  Z"/>

<path  fill="#219764" stroke-width="0" stroke="#219764" d = " M127 207 C127,209.334 122.819,208.341 121.5,209 117.04,211.23 107.957,215 103,215 103,210.197 92,206.511 92,201 93.0103,201 102,197.567 102,197 102,197 103,197 103,197 103,205.605 116.482,201.491 121.5,204 121.5,204 127,207 127,207  Z"/>

<path  fill="#219764" stroke-width="0" stroke="#219764" d = " M330 207 C330,209.02 349.509,214 353,214 356.205,214 365,203.955 365,201 363.863,201 355,198.018 355,197 355,197 354,197 354,197 354,204.796 335.514,202.993 331.5,205 331.5,205 330,207 330,207  Z"/>

<path  fill="#A0EE9C" stroke-width="0" stroke="#A0EE9C" d = " M148 223 L149,223 C154.02,223 156.483,230.008 162.5,227 163.78,226.36 164.686,223.872 164,222.5 161.509,217.518 159.467,212.434 157,207.5 157,207.5 157,200.5 157,200.5 157,200.5 154.5,198 154.5,198 150.725,196.112 146.253,200 143,200 143,201.566 137,205.882 137,213 137,213 137,214 137,214 137,214 148,223 148,223  Z"/>

<path  fill="#A0EE9C" stroke-width="0" stroke="#A0EE9C" d = " M308 223 C306.762,223 305,223.423 305,225 300.515,225 298.193,229.347 293.5,227 289.125,224.813 295.813,216.873 297,214.5 297,214.5 300,204.5 300,204.5 300,204.5 300.5,199 300.5,199 309.533,194.483 316.724,202.947 320,209.5 320,209.5 319,214 319,214 317.423,214 317,215.762 317,217 315.253,217 315,217.253 315,219 315,219 314,219 314,219 314,219 313,220 313,220 313,220 311,221 311,221 309.762,221 308,221.423 308,223  Z"/>

<path  fill="#99D2BD" stroke-width="0" stroke="#99D2BD" d = " M131 207 C134.795,207 134.903,213 137,213 137,205.882 143,201.566 143,200 141.755,200 131,206.54 131,207  Z"/>

<path  fill="#209864" stroke-width="0" stroke="#209864" d = " M103 215 C100.876,215 98.5637,216 97,216 97,216 87,202 87,202 88.1452,202 91,202.579 91,201 91,201 92,201 92,201 92,206.511 103,210.197 103,215  Z"/>

<path  fill="#99D2BD" stroke-width="0" stroke="#99D2BD" d = " M226 201 L225,202 C225,202 226,201 226,201  Z"/>

<path  fill="#209864" stroke-width="0" stroke="#209864" d = " M353 214 C353,214.675 358.294,216 359,216 360.785,216 369,203.845 369,202 369,202 365,201 365,201 365,203.955 356.205,214 353,214  Z"/>

<path  fill="#6ACAB9" stroke-width="0" stroke="#6ACAB9" d = " M139 254 L141,254 C143.799,254 146.826,250 150,250 150,250 151,249 151,249 151,249 152,249 152,249 152,244.644 162.995,241.49 160,235.5 158.811,233.122 149,223.139 149,223 149,223 148,223 148,223 145.25,223 137,216.675 137,214 137,214 137,213 137,213 134.903,213 134.795,207 131,207 131,207 127,207 127,207 127,209.334 122.819,208.341 121.5,209 117.04,211.23 107.957,215 103,215 100.876,215 98.5637,216 97,216 97,221.705 109.888,241 116,241 124.727,241 136.487,254 139,254  Z"/>

<path  fill="#6ACAB9" stroke-width="0" stroke="#6ACAB9" d = " M315 254 L318,254 C318,250.292 336.384,241 340,241 347.318,241 359,222.306 359,216 358.294,216 353,214.675 353,214 349.509,214 330,209.02 330,207 330,207 326,207 326,207 320.197,207 321.631,214 319,214 319,215.238 318.577,217 317,217 317,217 315,219 315,219 315,219 314,219 314,219 314,219 313,220 313,220 313,220 311,221 311,221 311,222.577 309.238,223 308,223 308,224.577 306.238,225 305,225 305,230.327 293.067,232.634 297,240.5 297,240.5 306,250 306,250 306,250 307,250 307,250 307,250 308,251 308,251 310.971,251 312.768,254 315,254  Z"/>

<path  fill="#CBCBC7" stroke-width="0" stroke="#CBCBC7" d = " M170 223 L172,225 C175.795,225 179,225.39 179,219.5 179,204.648 167,209.575 167,217 167,219.72 169,220.553 169,223 169,223 170,223 170,223  Z"/>

<path  fill="#CBCBC7" stroke-width="0" stroke="#CBCBC7" d = " M286 223 L287,223 C287,220.541 289,218.805 289,216 289,210.864 279.74,207.021 277,212.5 273.407,219.686 285,231.96 285,224 285,224 286,223 286,223  Z"/>

<path  fill="#99D2BD" stroke-width="0" stroke="#99D2BD" d = " M137 214 L148,223 C145.25,223 137,216.675 137,214  Z"/>

<path  fill="#99D2BD" stroke-width="0" stroke="#99D2BD" d = " M319 214 C317.423,214 317,215.762 317,217 318.577,217 319,215.238 319,214  Z"/>

<path  fill="#99D2BD" stroke-width="0" stroke="#99D2BD" d = " M317 217 C315.253,217 315,217.253 315,219 315,219 317,217 317,217  Z"/>

<path  fill="#99D2BD" stroke-width="0" stroke="#99D2BD" d = " M314 219 L313,220 C313,220 314,219 314,219  Z"/>

<path  fill="#99D2BD" stroke-width="0" stroke="#99D2BD" d = " M313 220 L311,221 C311,221 313,220 313,220  Z"/>

<path  fill="#99D2BD" stroke-width="0" stroke="#99D2BD" d = " M311 221 C309.762,221 308,221.423 308,223 309.238,223 311,222.577 311,221  Z"/>

<path  fill="#99D2BD" stroke-width="0" stroke="#99D2BD" d = " M170 223 L172,225 C172,225 170,223 170,223  Z"/>

<path  fill="#99D2BD" stroke-width="0" stroke="#99D2BD" d = " M286 223 L285,224 C285,224 286,223 286,223  Z"/>

<path  fill="#99D2BD" stroke-width="0" stroke="#99D2BD" d = " M308 223 C306.762,223 305,223.423 305,225 306.238,225 308,224.577 308,223  Z"/>

<path  fill="#A2B1D7" stroke-width="0" stroke="#A2B1D7" d = " M220 248 L217.5,246 L213,254.5 C210.919,258.663 200.937,262.782 196.5,265 188.507,268.996 170.556,260.028 164.5,257 162.879,256.189 155,251.884 155,250 155,250 165,245 165,245 165,253.07 177.391,255.445 182.5,258 182.5,258 189.5,258 189.5,258 196.364,261.432 209.654,251.192 213,244.5 214.717,241.065 213,236.047 213,233 218.487,233 220,244.928 220,248  Z"/>

<path  fill="#A2B1D7" stroke-width="0" stroke="#A2B1D7" d = " M237 247 C240.796,247 240.987,251.487 244.5,255 249.065,259.565 254.143,262.322 259.5,265 269.356,269.928 287.234,258.633 294.5,255 L302,250 C302,250 292,245 292,245 292,245 288.5,251 288.5,251 288.5,251 277.5,257 277.5,257 265.205,263.147 248.613,254.726 243,243.5 243,243.5 243,233 243,233 240.186,233 237.276,240.949 236,243.5 235.528,244.445 235.844,247 237,247  Z"/>

<path  fill="#CAC8C7" stroke-width="0" stroke="#CAC8C7" d = " M138 259 L139,259 C139,259 139,256 139,256 139,256 139,254 139,254 136.487,254 124.727,241 116,241 116,244.556 133.654,259 138,259  Z"/>

<path  fill="#CAC8C7" stroke-width="0" stroke="#CAC8C7" d = " M317 259 L319,259 C322.808,259 340,244.631 340,241 336.384,241 318,250.292 318,254 318,254 317,255 317,255 317,255 317,259 317,259  Z"/>

<path  fill="#7FCCF7" stroke-width="0" stroke="#7FCCF7" d = " M218 266 L217,267 C217,273.358 206.939,277.781 202.5,280 202.5,280 196.5,283 196.5,283 194.573,283.964 190.955,282.728 189.5,282 189.5,282 165.5,282 165.5,282 161.368,279.934 157.694,277.097 153.5,275 149.856,273.178 141,266.785 141,262 141,262 139,259 139,259 139,259 139,256 139,256 139,256 141,254 141,254 143.799,254 146.826,250 150,250 150,250 151,249 151,249 151,249 152,249 152,249 152,249 155,250 155,250 155,251.884 162.879,256.189 164.5,257 170.556,260.028 188.507,268.996 196.5,265 200.937,262.782 210.919,258.663 213,254.5 213,254.5 217.5,246 217.5,246 217.5,246 220,248 220,248 220,250.16 222,252.167 222,255 220.527,255 221,256.952 221,258 221,258 221,260 221,260 221,260 220,261 220,261 220,261 220,262 220,262 220,262 219,263 219,263 219,263 218,266 218,266  Z"/>

<path  fill="#7FCCF7" stroke-width="0" stroke="#7FCCF7" d = " M239 268 L240,269 C240,273.456 247.523,276.511 250.5,278 250.5,278 259.5,283 259.5,283 261.427,283.964 265.045,282.728 266.5,282 266.5,282 290.5,282 290.5,282 290.5,282 297.5,279 297.5,279 302.16,276.67 306.02,273.48 310,269.5 310,269.5 314,265 314,265 314,265 315,264 315,264 315,264 315,263 315,263 315,263 316,262 316,262 316,262 317,260 317,260 317,260 317,259 317,259 317,259 317,255 317,255 317,255 315,254 315,254 312.768,254 310.971,251 308,251 308,251 307,250 307,250 307,250 306,250 306,250 304.625,250 303.375,250 302,250 302,250 294.5,255 294.5,255 287.234,258.633 269.356,269.928 259.5,265 254.143,262.322 249.065,259.565 244.5,255 240.987,251.487 240.796,247 237,247 237,249.846 235,252.382 235,256 235,256 235,259 235,259 235,259 236,260 236,260 236,260 236,261 236,261 236,261 237,262 237,262 237,262 237,264 237,264 237,264 239,266 239,266 239,266 239,268 239,268  Z"/>

<path  fill="#99D2BD" stroke-width="0" stroke="#99D2BD" d = " M151 249 L150,250 C150,250 151,249 151,249  Z"/>

<path  fill="#99D2BD" stroke-width="0" stroke="#99D2BD" d = " M307 250 L308,251 C308,251 307,250 307,250  Z"/>

<path  fill="#99D2BD" stroke-width="0" stroke="#99D2BD" d = " M141 254 L139,256 C139,256 139,254 139,254 139,254 141,254 141,254  Z"/>

<path  fill="#99D2BD" stroke-width="0" stroke="#99D2BD" d = " M318 254 L317,255 C317,255 315,254 315,254 315,254 318,254 318,254  Z"/>

<path  fill="#97D6F9" stroke-width="0" stroke="#97D6F9" d = " M222 255 C220.527,255 221,256.952 221,258 222.473,258 222,256.048 222,255  Z"/>

<path  fill="#99D2BD" stroke-width="0" stroke="#99D2BD" d = " M139 259 L139,260 C139,260 138,259 138,259 138,259 139,259 139,259  Z"/>

<path  fill="#97D6F9" stroke-width="0" stroke="#97D6F9" d = " M139 260 L141,262 C141,262 139,259 139,259 139,259 139,260 139,260  Z"/>

<path  fill="#97D6F9" stroke-width="0" stroke="#97D6F9" d = " M235 259 L236,260 C236,260 235,259 235,259  Z"/>

<path  fill="#99D2BD" stroke-width="0" stroke="#99D2BD" d = " M317 260 L317,261 C317,261 319,259 319,259 319,259 317,259 317,259 317,259 317,260 317,260  Z"/>

<path  fill="#97D6F9" stroke-width="0" stroke="#97D6F9" d = " M221 260 L220,261 C220,261 221,260 221,260  Z"/>

<path  fill="#97D6F9" stroke-width="0" stroke="#97D6F9" d = " M317 261 L316,262 C316,262 317,260 317,260 317,260 317,261 317,261  Z"/>

<path  fill="#97D6F9" stroke-width="0" stroke="#97D6F9" d = " M236 261 L237,262 C237,262 236,261 236,261  Z"/>

<path  fill="#97D6F9" stroke-width="0" stroke="#97D6F9" d = " M220 262 L219,263 C219,263 220,262 220,262  Z"/>

<path  fill="#97D6F9" stroke-width="0" stroke="#97D6F9" d = " M316 262 L315,263 C315,263 316,262 316,262  Z"/>

<path  fill="#97D6F9" stroke-width="0" stroke="#97D6F9" d = " M237 264 L239,266 C239,266 237,264 237,264  Z"/>

<path  fill="#97D6F9" stroke-width="0" stroke="#97D6F9" d = " M315 264 L314,265 C314,265 315,264 315,264  Z"/>

<path  fill="#97D6F9" stroke-width="0" stroke="#97D6F9" d = " M218 266 L217,267 C217,267 218,266 218,266  Z"/>

<path  fill="#97D6F9" stroke-width="0" stroke="#97D6F9" d = " M239 268 L240,269 C240,269 239,268 239,268  Z"/>

</g>
</svg>
