<svg xmlns="http://www.w3.org/2000/svg" xmlns:xlink="http://www.w3.org/1999/xlink"  viewBox="0 0 456 320">
<g>
<rect width="456" height="320" fill="#000000"  stroke-width="0" /> 
<path  fill="#098589" stroke-width="0" stroke="#098589" d = " M91 75 L93,75 C93,75 101.5,67 101.5,67 101.5,67 113.5,57 113.5,57 113.5,57 129.5,49 129.5,49 131.234,48.1328 133.661,48.9197 135.5,48 138.675,46.4124 149,46.4588 149,52 150.602,52 160,45.2963 160,44 160,39.6247 143.227,37.1363 139.5,39 137.058,40.2211 133.86,39.8202 131.5,41 119.515,46.9924 106.709,51.7915 96.5,62 96.5,62 86,72 86,72 88.666,72 88.4822,75 91,75  Z"/>

<path  fill="#098589" stroke-width="0" stroke="#098589" d = " M364 75 L365,75 C367.364,75 368.053,72 370,72 370,72 359,61.5 359,61.5 351.316,53.8162 340.341,47.9205 330.5,43 326.551,41.0256 321.526,41.013 317.5,39 313.564,37.032 296,39.643 296,45 298.239,45 307,51.1844 307,53 307,53 308,53 308,53 308,46.8638 315.928,45.7141 320.5,48 322.612,49.056 325.495,47.9974 327.5,49 331.537,51.0185 335.537,53.0184 339.5,55 339.5,55 353.5,65 353.5,65 353.5,65 364,75 364,75  Z"/>

<path  fill="#1BA696" stroke-width="0" stroke="#1BA696" d = " M154 64 C148.588,64 146.497,70 143,70 143,64.2772 149,59.9609 149,53 149,53 149,52 149,52 150.602,52 160,45.2963 160,44 171.306,44 155,61.3699 155,63 155,63 154,64 154,64  Z"/>

<path  fill="#1BA696" stroke-width="0" stroke="#1BA696" d = " M302 64 C308.667,64 313.916,74 317,74 317,70.5003 307,61.3058 307,53 307,51.1844 298.239,45 296,45 288.203,45 297.876,58.2519 299,60.5 299,60.5 302,64 302,64  Z"/>

<path  fill="#FF7AFD" stroke-width="0" stroke="#FF7AFD" d = " M262 60 L265,60 C265,60 264,53 264,53 263.344,53 259.862,49.6808 258.5,49 249.408,44.4542 229,45.02 229,59 229,59 232,59 232,59 232,43.8536 262,46.2835 262,60  Z"/>

<path  fill="#0A828C" stroke-width="0" stroke="#0A828C" d = " M103 77 L105,77 C105,72.9884 128,59.1239 128,69 129.905,69 144.845,53 149,53 149,53 149,52 149,52 149,46.4588 138.675,46.4124 135.5,48 133.661,48.9197 131.234,48.1328 129.5,49 129.5,49 113.5,57 113.5,57 113.5,57 101.5,67 101.5,67 101.5,67 93,75 93,75 93,78.1627 100.871,77 103,77  Z"/>

<path  fill="#FF7AFD" stroke-width="0" stroke="#FF7AFD" d = " M192 60 L195,60 C195,45.9003 224,44.1841 224,59 224,59 227,59 227,59 227,48.1977 211.781,43.3597 202.5,48 200.402,49.0491 193,49.0982 193,53 193,54.819 192,57.5908 192,60  Z"/>

<path  fill="#0A828C" stroke-width="0" stroke="#0A828C" d = " M352 77 L353,77 C355.161,77 364,77.4974 364,75 364,75 353.5,65 353.5,65 353.5,65 339.5,55 339.5,55 335.537,53.0184 331.537,51.0185 327.5,49 325.495,47.9974 322.612,49.056 320.5,48 315.928,45.7141 308,46.8638 308,53 308,53 329,69 329,69 329,58.6858 352,74.4618 352,77  Z"/>

<path  fill="#FF78FF" stroke-width="0" stroke="#FF78FF" d = " M224 59 L212.5,57 C208.697,58.9016 199.171,60 195,60 195,45.9003 224,44.1841 224,59  Z"/>

<path  fill="#FF78FF" stroke-width="0" stroke="#FF78FF" d = " M232 59 L244.5,57 C248.434,58.9669 257.619,60 262,60 262,46.2835 232,43.8536 232,59  Z"/>

<path  fill="#1AA496" stroke-width="0" stroke="#1AA496" d = " M135 79 C133.952,79 132,78.5271 132,80 132,80 125,79 125,79 125,79 118,79 118,79 118,79 128,69 128,69 129.905,69 144.845,53 149,53 149,59.9609 143,64.2772 143,70 143,70 142,71 142,71 142,71 141,73 141,73 141,73 137,77 137,77 135.253,77 135,77.2531 135,79  Z"/>

<path  fill="#FF64FF" stroke-width="0" stroke="#FF64FF" d = " M167 132 C167,130.212 155.908,131 154,131 148.854,131 140,123.633 140,133 139.318,133 138,126.759 138,126 141.277,126 141,119.769 141,117.5 141,112.21 140.737,90 147,90 147,101.972 134.621,120.561 151.5,129 154.737,130.619 157.605,127 160,127 160,133.145 179,126.143 179,118 182.894,118 182.759,101.982 184,99.5 187.086,93.3287 186,78.4629 186,71.5 186,71.5 187,63.5 187,63.5 187,63.5 182.5,59 182.5,59 179.958,57.7289 177.132,61 175,61 175,61 173,61 173,61 173,61 177.5,58 177.5,58 178.459,57.5203 192.673,53 193,53 193,54.819 192,57.5908 192,60 192,60 192,63 192,63 192,63 191,68 191,68 191,68 190,85 190,85 188.192,85 188.261,101 191,101 191,102.622 190.539,106 193,106 193,111.968 187,116.597 187,123 187,123 183.5,120 183.5,120 179.811,120 173.305,132 167,132  Z"/>

<path  fill="#FF64FF" stroke-width="0" stroke="#FF64FF" d = " M289 132 C289,130.216 299.634,131 301.5,131 308.926,131 316,123.401 316,135 316.981,135 318,127.242 318,126 313.869,126 317.429,107.358 316,104.5 314.771,102.042 315.206,98.9129 314,96.5 311.744,91.9885 305,85.1153 305,80 305,80 303,79 303,79 303,82.4479 307.484,86.4677 309,89.5 313.952,99.4033 318.224,122.638 305.5,129 302.151,130.675 299.259,127 297,127 297,127 294.5,129 294.5,129 287.844,132.328 277,122.461 277,117 274.251,117 272,99.5376 272,96 272,86.1194 269,73.9444 269,64.5 269,64.5 273.5,59 273.5,59 276.525,57.4873 279.37,61 282,61 282,61 283,61 283,61 283,58.5465 280.053,59.5533 279,58.5 277.114,56.6143 273.667,58.0834 271.5,57 271.5,57 264,53 264,53 264,53 265,60 265,60 265,60 265,63 265,63 265,63 265,68 265,68 265,68 266,85 266,85 267.502,85 268.235,102 265,102 265,102 264,107 264,107 264,112.431 270,116.825 270,122 270,122 272.5,120 272.5,120 278.012,120 282.924,132 289,132  Z"/>

<path  fill="#1AA496" stroke-width="0" stroke="#1AA496" d = " M332 79 L338,79 C338,74.5285 329,73.2062 329,69 329,69 308,53 308,53 308,53 307,53 307,53 307,61.3058 317,70.5003 317,74 317,74 320,77 320,77 320,77 324,80 324,80 324,80 332,79 332,79  Z"/>

<path  fill="#FD7AFF" stroke-width="0" stroke="#FD7AFF" d = " M226 63 L227,63 C227,63 227,59 227,59 227,59 224,59 224,59 224,59 212.5,57 212.5,57 208.697,58.9016 199.171,60 195,60 195,60 192,60 192,60 192,60 192,63 192,63 195.996,63 202.044,61.7279 205.5,60 212.041,56.7297 220.617,63 226,63  Z"/>

<path  fill="#FD7AFF" stroke-width="0" stroke="#FD7AFF" d = " M230 63 C235.47,63 244.043,56.7716 250.5,60 254.189,61.8443 260.731,63 265,63 265,63 265,60 265,60 265,60 262,60 262,60 257.619,60 248.434,58.9669 244.5,57 244.5,57 232,59 232,59 232,59 229,59 229,59 229,60.1452 228.421,63 230,63  Z"/>

<path  fill="#FE79FF" stroke-width="0" stroke="#FE79FF" d = " M166 86 C169.519,86 168.07,92.6406 169,94.5 172.387,101.274 179,110.082 179,118 182.894,118 182.759,101.982 184,99.5 187.086,93.3287 186,78.4629 186,71.5 186,71.5 187,63.5 187,63.5 187,63.5 182.5,59 182.5,59 179.958,57.7289 177.132,61 175,61 175,68.3201 166,77.1557 166,86  Z"/>

<path  fill="#FE79FF" stroke-width="0" stroke="#FE79FF" d = " M290 86 C286.995,86 287.9,93.6999 287,95.5 284.095,101.31 277,110.407 277,117 274.251,117 272,99.5376 272,96 272,86.1194 269,73.9444 269,64.5 269,64.5 273.5,59 273.5,59 276.525,57.4873 279.37,61 282,61 282,69.8164 290,76.4653 290,86  Z"/>

<path  fill="#FF90FF" stroke-width="0" stroke="#FF90FF" d = " M226 65 L199.5,66 C196.886,67.3069 194.166,68 191,68 191,68 192,63 192,63 195.996,63 202.044,61.7279 205.5,60 212.041,56.7297 220.617,63 226,63 226,63 226,65 226,65  Z"/>

<path  fill="#FF90FF" stroke-width="0" stroke="#FF90FF" d = " M230 65 L256.5,66 C258.829,67.1645 262.279,68 265,68 265,68 265,63 265,63 260.731,63 254.189,61.8443 250.5,60 244.043,56.7716 235.47,63 230,63 230,63 230,64 230,64 230,64 230,65 230,65  Z"/>

<path  fill="#FE79FE" stroke-width="0" stroke="#FE79FE" d = " M147 90 C147,101.972 134.621,120.561 151.5,129 154.737,130.619 157.605,127 160,127 160,117.943 157.818,103.864 162,95.5 163.052,93.3966 161.895,86 166,86 166,77.1557 175,68.3201 175,61 175,61 173,61 173,61 166.946,61 158.495,75 156,75 156,75 155,76 155,76 155,76 155,77 155,77 155,77 154,78 154,78 154,78 153,79 153,79 153,79 152,81 152,81 152,81 151,82 151,82 151,82 151,83 151,83 151,84.2383 150.577,86 149,86 149,86 147,90 147,90  Z"/>

<path  fill="#FE79FE" stroke-width="0" stroke="#FE79FE" d = " M290 86 C293.387,86 295,93.5432 295,96.5 295,106.455 297,116.226 297,127 299.259,127 302.151,130.675 305.5,129 318.224,122.638 313.952,99.4033 309,89.5 307.484,86.4677 303,82.4479 303,79 303,79 303,78 303,78 303,78 301,76 301,76 301,76 300,75 300,75 300,75 299,74 299,74 299,71.055 285.335,61 283,61 283,61 282,61 282,61 282,69.8164 290,76.4653 290,86  Z"/>

<path  fill="#1BA598" stroke-width="0" stroke="#1BA598" d = " M155 63 L154,64 C154,64 155,63 155,63  Z"/>

<path  fill="#FF64FF" stroke-width="0" stroke="#FF64FF" d = " M226 65 C226,68.0069 229,72.6991 229,67 226.891,67 227,64.4655 227,63 227,63 226,63 226,63 226,63 226,65 226,65  Z"/>

<path  fill="#1BA598" stroke-width="0" stroke="#1BA598" d = " M126 99 L128,100 C128,100 134,91.5 134,91.5 136.79,88.7095 147.177,73.1455 149,69.5 149.964,67.5717 154,67.0612 154,64 148.588,64 146.497,70 143,70 143,70 142,71 142,71 142,71 141,73 141,73 141,73 137,77 137,77 137,77 135,79 135,79 135,79 129,87 129,87 129,87 127,91 127,91 127,91 126,99 126,99  Z"/>

<path  fill="#FF64FF" stroke-width="0" stroke="#FF64FF" d = " M230 65 L229,67 C229,65.9521 228.527,64 230,64 230,64 230,65 230,65  Z"/>

<path  fill="#1BA598" stroke-width="0" stroke="#1BA598" d = " M331 99 L329,100 C329,100 322.5,92 322.5,92 320.203,89.7035 320.308,87.1153 319,84.5 316.162,78.824 309.787,75.0746 307,69.5 307,69.5 302,64 302,64 308.667,64 313.916,74 317,74 317,74 320,77 320,77 320,78.5167 325.623,86 327,86 327,86 327,87 327,87 327,87 328,88 328,88 328,88 329,90 329,90 329,90 331,99 331,99  Z"/>

<path  fill="#FF90FE" stroke-width="0" stroke="#FF90FE" d = " M190 85 C197.197,85 215.173,68.3367 226.5,74 L227.5,76 L230.5,74 L246.5,75 L266,85 C266,85 265,68 265,68 262.279,68 258.829,67.1645 256.5,66 256.5,66 230,65 230,65 230,65 229,67 229,67 229,72.6991 226,68.0069 226,65 226,65 199.5,66 199.5,66 196.886,67.3069 194.166,68 191,68 191,68 190,85 190,85  Z"/>

<path  fill="#0B848B" stroke-width="0" stroke="#0B848B" d = " M105 77 C109.207,77 113.154,79 118,79 118,79 128,69 128,69 128,59.1239 105,72.9884 105,77  Z"/>

<path  fill="#0B848B" stroke-width="0" stroke="#0B848B" d = " M352 77 C352,77.7757 340.961,79 338,79 338,74.5285 329,73.2062 329,69 329,58.6858 352,74.4618 352,77  Z"/>

<path  fill="#1BA696" stroke-width="0" stroke="#1BA696" d = " M143 70 L142,71 C142,71 143,70 143,70  Z"/>

<path  fill="#1BA696" stroke-width="0" stroke="#1BA696" d = " M142 71 L141,73 C141,73 142,71 142,71  Z"/>

<path  fill="#0A838A" stroke-width="0" stroke="#0A838A" d = " M73 95 L74,95 C74,88.8249 91,80.421 91,75 88.4822,75 88.666,72 86,72 86,72 82.5,76 82.5,76 79.206,79.294 71,85.7364 71,89 71,91.4471 73,92.2802 73,95  Z"/>

<path  fill="#0A838A" stroke-width="0" stroke="#0A838A" d = " M386 89 L383,94 C383,94 378,89.5 378,89.5 376.76,88.2604 365,75.7267 365,75 367.364,75 368.053,72 370,72 370,72 386,89 386,89  Z"/>

<path  fill="#FF8FFF" stroke-width="0" stroke="#FF8FFF" d = " M191 101 C191,93.1453 198.687,89.9067 204.5,87 222.872,77.814 233.158,77.8289 251.5,87 258.627,90.5633 265,92.6922 265,102 268.235,102 267.502,85 266,85 266,85 246.5,75 246.5,75 246.5,75 230.5,74 230.5,74 230.5,74 227.5,76 227.5,76 227.5,76 226.5,74 226.5,74 215.173,68.3367 197.197,85 190,85 188.192,85 188.261,101 191,101  Z"/>

<path  fill="#FF64FF" stroke-width="0" stroke="#FF64FF" d = " M299 74 L300,75 C300,75 299,74 299,74  Z"/>

<path  fill="#09848C" stroke-width="0" stroke="#09848C" d = " M77 102 L78,102 C78,102 84,99 84,99 84,97.4981 96.4884,87 97,87 97,81.7696 103,80.812 103,77 100.871,77 93,78.1627 93,75 93,75 91,75 91,75 91,80.421 74,88.8249 74,95 74.4268,95 77,101.112 77,102  Z"/>

<path  fill="#FF64FF" stroke-width="0" stroke="#FF64FF" d = " M156 75 L155,76 C155,76 156,75 156,75  Z"/>

<path  fill="#09848C" stroke-width="0" stroke="#09848C" d = " M374 100 L379,102 C381.247,102 379.847,95 383,95 383,95 383,94 383,94 383,94 378,89.5 378,89.5 376.76,88.2604 365,75.7267 365,75 365,75 364,75 364,75 364,77.4974 355.161,77 353,77 353,80.8951 360,82.8064 360,87 360,87 372,99 372,99 372,99 373,99 373,99 373,99 374,100 374,100  Z"/>

<path  fill="#FF64FF" stroke-width="0" stroke="#FF64FF" d = " M301 76 L303,78 C303,78 301,76 301,76  Z"/>

<path  fill="#0B858A" stroke-width="0" stroke="#0B858A" d = " M118 86 C118,72.3677 100.071,87 97,87 97,81.7696 103,80.812 103,77 103,77 105,77 105,77 109.207,77 113.154,79 118,79 118,79 125,79 125,79 125,79 118,86 118,86  Z"/>

<path  fill="#1BA697" stroke-width="0" stroke="#1BA697" d = " M137 77 C135.253,77 135,77.2531 135,79 135,79 137,77 137,77  Z"/>

<path  fill="#FF64FF" stroke-width="0" stroke="#FF64FF" d = " M155 77 L154,78 C154,78 155,77 155,77  Z"/>

<path  fill="#1BA697" stroke-width="0" stroke="#1BA697" d = " M324 80 C324,81.2736 327,82.9328 327,86 325.623,86 320,78.5167 320,77 320,77 324,80 324,80  Z"/>

<path  fill="#0B858A" stroke-width="0" stroke="#0B858A" d = " M339 86 C339,72.866 355.792,87 360,87 360,82.8064 353,80.8951 353,77 353,77 352,77 352,77 352,77.7757 340.961,79 338,79 338,79 332,79 332,79 332,79 339,86 339,86  Z"/>

<path  fill="#FF64FF" stroke-width="0" stroke="#FF64FF" d = " M154 78 L153,79 C153,79 154,78 154,78  Z"/>

<path  fill="#09848C" stroke-width="0" stroke="#09848C" d = " M123 99 L121,100 C119.117,100 115.679,96 111,96 111,93.9296 118,90.1112 118,86 118,86 125,79 125,79 125,79 132,80 132,80 132,82.2322 129,84.0294 129,87 129,87 127,91 127,91 125.005,91 123,97.2679 123,99  Z"/>

<path  fill="#1BA697" stroke-width="0" stroke="#1BA697" d = " M132 80 C132,82.2322 129,84.0294 129,87 129,87 135,79 135,79 133.952,79 132,78.5271 132,80  Z"/>

<path  fill="#FF64FF" stroke-width="0" stroke="#FF64FF" d = " M152 80 L152,81 C152,81 153,79 153,79 153,79 152,80 152,80  Z"/>

<path  fill="#09848C" stroke-width="0" stroke="#09848C" d = " M334 99 L335,101 C337.156,101 340.037,96 345,96 345,95.2511 339,91.1646 339,86 339,86 332,79 332,79 332,79 324,80 324,80 324,81.2736 327,82.9328 327,86 327,86 327,87 327,87 327,87 328,88 328,88 328,88 329,90 329,90 330.587,90 334,97.5115 334,99  Z"/>

<path  fill="#C9C8C8" stroke-width="0" stroke="#C9C8C8" d = " M147 90 C140.737,90 141,112.21 141,117.5 141,119.769 141.277,126 138,126 138,107.864 136.824,105.851 145,89.5 146.355,86.7908 148.053,80 152,80 152,80 152,81 152,81 152,81 151,82 151,82 151,82 151,83 151,83 149.423,83 149,84.7617 149,86 146.891,86 147,88.5345 147,90  Z"/>

<path  fill="#FF8FFE" stroke-width="0" stroke="#FF8FFE" d = " M193 106 C193,102.324 199.162,97.3376 202,94.5 214.977,81.5234 235.06,83.28 250.5,91 L261,101.5 L264,107 C264,107 265,102 265,102 265,92.6922 258.627,90.5633 251.5,87 233.158,77.8289 222.872,77.814 204.5,87 198.687,89.9067 191,93.1453 191,101 191,102.622 190.539,106 193,106  Z"/>

<path  fill="#C9C8C8" stroke-width="0" stroke="#C9C8C8" d = " M305 80 C307.529,80 310.15,86.8002 311,88.5 L317,99.5 C319.064,103.628 317.925,109.351 320,113.5 320.656,114.812 318.6,126 318,126 313.869,126 317.429,107.358 316,104.5 314.771,102.042 315.206,98.9129 314,96.5 311.744,91.9885 305,85.1153 305,80  Z"/>

<path  fill="#0B838C" stroke-width="0" stroke="#0B838C" d = " M90 97 C87.5529,97 86.7198,99 84,99 84,97.4981 96.4884,87 97,87 100.071,87 118,72.3677 118,86 118,90.1112 111,93.9296 111,96 111,96 90,97 90,97  Z"/>

<path  fill="#FF64FF" stroke-width="0" stroke="#FF64FF" d = " M152 81 L151,82 C151,82 152,81 152,81  Z"/>

<path  fill="#0B838C" stroke-width="0" stroke="#0B838C" d = " M367 97 L372,99 C372,99 360,87 360,87 355.792,87 339,72.866 339,86 339,91.1646 345,95.2511 345,96 345,96 367,97 367,97  Z"/>

<path  fill="#FF64FF" stroke-width="0" stroke="#FF64FF" d = " M151 83 C149.423,83 149,84.7617 149,86 150.577,86 151,84.2383 151,83  Z"/>

<path  fill-rule="evenodd" fill="#FC8FFF" stroke-width="0" stroke="#FC8FFF" d = " M264 141 C264,147.548 269.827,141 264,141  M191 141 L190,142.5 C188.139,146.222 196.775,141 191,141  M242 159 C242,162.711 233.349,163 232,163 232,163 231,146 231,146 231,146 232,137 232,137 237.384,137 248.765,115.133 232.5,107 232.5,107 228.5,101 228.5,101 228.5,101 221.5,109 221.5,109 217.174,111.163 212.181,118.861 215,124.5 216.64,127.78 218.184,130.684 221,133.5 221,133.5 225,138 225,138 225,140.409 226,143.181 226,145 226,150.56 224,157.321 224,163 221.493,163 214,162.333 214,159 214,159 213,155 213,155 213,150.356 217.521,148.543 215,143.5 212.493,138.486 203,148.971 203,153 203,153 199,154 199,154 193.15,154 191.498,144 187,144 187,141.387 186.07,139.64 185,137.5 182.769,133.039 187,126.91 187,123 187,116.597 193,111.968 193,106 193,102.324 199.162,97.3376 202,94.5 214.977,81.5234 235.06,83.28 250.5,91 250.5,91 261,101.5 261,101.5 261,101.5 264,107 264,107 264,112.431 270,116.825 270,122 270,128.892 270,136.172 270,143 267.151,143 263.742,154 257,154 257,154 253,153 253,153 253,149.206 244.364,137.771 241,144.5 238.836,148.828 244,151.853 244,155 244,155 242,159 242,159  Z"/>

<path  fill="#FF64FF" stroke-width="0" stroke="#FF64FF" d = " M149 86 C146.891,86 147,88.5345 147,90 147,90 149,86 149,86  Z"/>

<path  fill="#FE7AFE" stroke-width="0" stroke="#FE7AFE" d = " M179 118 C179,126.143 160,133.145 160,127 160,117.943 157.818,103.864 162,95.5 163.052,93.3966 161.895,86 166,86 169.519,86 168.07,92.6406 169,94.5 172.387,101.274 179,110.082 179,118  Z"/>

<path  fill="#FE7AFE" stroke-width="0" stroke="#FE7AFE" d = " M277 117 C277,122.461 287.844,132.328 294.5,129 L297,127 C297,116.226 295,106.455 295,96.5 295,93.5432 293.387,86 290,86 286.995,86 287.9,93.6999 287,95.5 284.095,101.31 277,110.407 277,117  Z"/>

<path  fill="#1BA697" stroke-width="0" stroke="#1BA697" d = " M327 87 L328,88 C328,88 327,87 327,87  Z"/>

<path  fill="#09818C" stroke-width="0" stroke="#09818C" d = " M61 116 L55,118 C55,112.183 65.0943,89 71,89 71,91.4471 73,92.2802 73,95 73,98.7624 61,106.964 61,115 61,115 61,116 61,116  Z"/>

<path  fill="#09818C" stroke-width="0" stroke="#09818C" d = " M395 114 C395,115.948 400.428,118 402,118 402,112.955 390.234,89 386,89 386,89 383,94 383,94 383,94 383,95 383,95 385.776,95 395,110.947 395,114  Z"/>

<path  fill="#0A838A" stroke-width="0" stroke="#0A838A" d = " M331 99 L334,99 C334,97.5115 330.587,90 329,90 329,90 331,99 331,99  Z"/>

<path  fill="#0A838A" stroke-width="0" stroke="#0A838A" d = " M123 99 L126,99 C126,99 127,91 127,91 125.005,91 123,97.2679 123,99  Z"/>

<path  fill="#0A8389" stroke-width="0" stroke="#0A8389" d = " M61 115 L62,115 C62,111.076 73.5611,103 77,103 77,103 77,102 77,102 77,101.112 74.4268,95 74,95 74,95 73,95 73,95 73,98.7624 61,106.964 61,115  Z"/>

<path  fill="#0A8389" stroke-width="0" stroke="#0A8389" d = " M394 114 L395,114 C395,110.947 385.776,95 383,95 379.847,95 381.247,102 379,102 379,102 379,103 379,103 381.955,103 394,110.386 394,114  Z"/>

<path  fill="#72D568" stroke-width="0" stroke="#72D568" d = " M107 111 C107,117.825 109,125.272 109,133 109,133 113,125.5 113,125.5 114.735,122.031 124,106.684 124,104 124,102.543 121,102.54 121,100 119.117,100 115.679,96 111,96 111,96 90,97 90,97 90,97 90,98 90,98 96.1877,98 107,103.91 107,111  Z"/>

<path  fill="#72D568" stroke-width="0" stroke="#72D568" d = " M349 111 L347,132 C345.814,132 343.546,127.592 343,126.5 342.084,124.668 332,104.052 332,104 333.658,104 335,102.539 335,101 337.156,101 340.037,96 345,96 345,96 367,97 367,97 367,97 366,98 366,98 359.788,98 349,104.526 349,111  Z"/>

<path  fill="#31B723" stroke-width="0" stroke="#31B723" d = " M78 102 L77,103 C77,103 71,115.5 71,115.5 65.965,125.57 59.084,163.292 72.5,170 79.3224,173.411 80.6899,158.12 82,155.5 87.3842,144.732 90,112.121 90,98 90,98 90,97 90,97 87.5529,97 86.7198,99 84,99 84,99 78,102 78,102  Z"/>

<path  fill="#31B723" stroke-width="0" stroke="#31B723" d = " M379 102 L379,103 C379,106.813 383.338,111.176 385,114.5 390.515,125.529 394.876,152.748 389,164.5 381.113,180.274 376.298,161.096 374,156.5 371.416,151.332 373.488,140.477 371,135.5 365.831,125.162 366,109.42 366,98 366,98 367,97 367,97 367,97 372,99 372,99 372,99 373,99 373,99 373,99 374,100 374,100 374,100 379,102 379,102  Z"/>

<path  fill="#30B824" stroke-width="0" stroke="#30B824" d = " M62 115 L61,116 C61,120.437 56.8771,141.746 55,145.5 48.8223,157.855 64.7195,194.89 80.5,187 85.2978,184.601 84.9364,173.627 87,169.5 93.2258,157.048 91.7238,141.052 98,128.5 99.2979,125.904 103.449,111 107,111 107,103.91 96.1877,98 90,98 90,112.121 87.3842,144.732 82,155.5 80.6899,158.12 79.3224,173.411 72.5,170 59.084,163.292 65.965,125.57 71,115.5 71,115.5 77,103 77,103 73.5611,103 62,111.076 62,115  Z"/>

<path  fill="#30B824" stroke-width="0" stroke="#30B824" d = " M349 111 C353.237,111 357.556,127.612 359,130.5 365.755,144.009 364.273,161.046 371,174.5 372.714,177.929 372.221,184.86 376.5,187 392.788,195.144 406.997,155.494 401,143.5 400.544,142.588 394,114.57 394,114 394,110.386 381.955,103 379,103 379,106.813 383.338,111.176 385,114.5 390.515,125.529 394.876,152.748 389,164.5 381.113,180.274 376.298,161.096 374,156.5 371.416,151.332 373.488,140.477 371,135.5 365.831,125.162 366,109.42 366,98 359.788,98 349,104.526 349,111  Z"/>

<path  fill="#33B932" stroke-width="0" stroke="#33B932" d = " M128 100 L124,104 C124,102.543 121,102.54 121,100 121,100 123,99 123,99 123,99 126,99 126,99 126,99 128,100 128,100  Z"/>

<path  fill="#33B932" stroke-width="0" stroke="#33B932" d = " M335 101 C335,102.539 333.658,104 332,104 332,104 329,100 329,100 329,100 331,99 331,99 331,99 334,99 334,99 334,99 335,101 335,101  Z"/>

<path  fill="#0B838C" stroke-width="0" stroke="#0B838C" d = " M373 99 L374,100 C374,100 373,99 373,99  Z"/>

<path  fill="#A9A9A8" stroke-width="0" stroke="#A9A9A8" d = " M232 137 C237.384,137 248.765,115.133 232.5,107 L228.5,101 L221.5,109 C217.174,111.163 212.181,118.861 215,124.5 216.64,127.78 218.184,130.684 221,133.5 L225,138 C228.047,138 229.462,137 232,137  Z"/>

<path  fill="#30B824" stroke-width="0" stroke="#30B824" d = " M78 102 L77,103 C77,103 77,102 77,102 77,102 78,102 78,102  Z"/>

<path  fill="#31B625" stroke-width="0" stroke="#31B625" d = " M55 118 C53.0485,118 54.5228,120.454 54,121.5 51.9191,125.662 53.0388,131.422 51,135.5 47.0346,143.431 47.1775,166.855 51,174.5 53.6946,179.889 58.3616,184.223 61,189.5 67.2804,202.061 84.0682,200.364 89,190.5 L98,160.5 C101.265,153.97 101.768,145.965 105,139.5 106.169,137.163 109,135.827 109,133 109,125.272 107,117.825 107,111 103.449,111 99.2979,125.904 98,128.5 91.7238,141.052 93.2258,157.048 87,169.5 84.9364,173.627 85.2978,184.601 80.5,187 64.7195,194.89 48.8223,157.855 55,145.5 56.8771,141.746 61,120.437 61,116 61,116 55,118 55,118  Z"/>

<path  fill="#31B625" stroke-width="0" stroke="#31B625" d = " M402 118 C402,131.38 414.047,156.407 407,170.5 402.767,178.965 388.205,203.852 376.5,198 373.98,196.74 370.69,196.881 369,193.5 363.102,181.704 362.845,167.191 357,155.5 355.966,153.432 347,132.523 347,132 347,132 349,111 349,111 353.237,111 357.556,127.612 359,130.5 365.755,144.009 364.273,161.046 371,174.5 372.714,177.929 372.221,184.86 376.5,187 392.788,195.144 406.997,155.494 401,143.5 400.544,142.588 394,114.57 394,114 394,114 395,114 395,114 395,115.948 400.428,118 402,118  Z"/>

<path  fill="#31B625" stroke-width="0" stroke="#31B625" d = " M62 115 L61,116 C61,116 61,115 61,115 61,115 62,115 62,115  Z"/>

<path  fill="#FC90FF" stroke-width="0" stroke="#FC90FF" d = " M187 144 L184.5,147 C179.043,149.728 171.021,147.24 165.5,150 162.894,151.303 161.021,147 159,147 159,144.952 154.686,142.128 156,139.5 157.632,136.236 167,134.565 167,132 173.305,132 179.811,120 183.5,120 183.5,120 187,123 187,123 187,126.91 182.769,133.039 185,137.5 186.07,139.64 187,141.387 187,144  Z"/>

<path  fill="#FC90FF" stroke-width="0" stroke="#FC90FF" d = " M270 143 L271.5,147 L276.5,147 C277.6,147.55 291.987,150.256 292.5,150 L297,148 C297,143.762 301.487,142.474 299,137.5 297.825,135.149 289,135.151 289,132 282.924,132 278.012,120 272.5,120 272.5,120 270,122 270,122 270,128.892 270,136.172 270,143  Z"/>

<path  fill="#C9C9CB" stroke-width="0" stroke="#C9C9CB" d = " M153 163 L150,168 C145.424,168 147,162.804 147,159 147,159 146,157 146,157 146,157 146,156 146,156 146,148.747 141,143.803 141,136 141,136 140,134 140,134 140,134 140,133 140,133 140,123.633 148.854,131 154,131 155.908,131 167,130.212 167,132 167,134.565 157.632,136.236 156,139.5 154.686,142.128 159,144.952 159,147 159,150.303 157,152.115 157,155 157,155 156,157 156,157 156,157 155,159 155,159 155,159 153,163 153,163  Z"/>

<path  fill="#C9C9CB" stroke-width="0" stroke="#C9C9CB" d = " M301 159 C301.966,159 307,167.749 307,168 311.461,168 310,161.233 310,158 310,156.952 309.527,155 311,155 311,148.54 315,144.668 315,138 315,138 316,136 316,136 316,136 316,135 316,135 316,123.401 308.926,131 301.5,131 299.634,131 289,130.216 289,132 289,135.151 297.825,135.149 299,137.5 301.487,142.474 297,143.762 297,148 297,150.16 299,152.167 299,155 299,155 301,159 301,159  Z"/>

<path  fill="#FF64FF" stroke-width="0" stroke="#FF64FF" d = " M140 134 L141,136 C141,136 140,134 140,134  Z"/>

<path  fill="#FF64FF" stroke-width="0" stroke="#FF64FF" d = " M316 136 L315,138 C315,138 316,136 316,136  Z"/>

<path  fill="#FF64FF" stroke-width="0" stroke="#FF64FF" d = " M226 145 C228.688,145 229.418,146 231,146 231,146 232,137 232,137 229.462,137 228.047,138 225,138 225,140.409 226,143.181 226,145  Z"/>

<path  fill="#C8C9C8" stroke-width="0" stroke="#C8C9C8" d = " M191 141 L190,142.5 C188.139,146.222 196.775,141 191,141  Z"/>

<path  fill="#C8C9C8" stroke-width="0" stroke="#C8C9C8" d = " M264 141 C264,147.548 269.827,141 264,141  Z"/>

<path  fill="#FDFB8F" stroke-width="0" stroke="#FDFB8F" d = " M127 149 C127,153.414 119,158.178 119,163 107.386,163 127,131.478 127,149  Z"/>

<path  fill="#FEC395" stroke-width="0" stroke="#FEC395" d = " M203 153 C203,159.635 210.482,155 213,155 213,150.356 217.521,148.543 215,143.5 212.493,138.486 203,148.971 203,153  Z"/>

<path  fill="#FEC395" stroke-width="0" stroke="#FEC395" d = " M253 153 C253,159.685 246.389,155 244,155 244,151.853 238.836,148.828 241,144.5 244.364,137.771 253,149.206 253,153  Z"/>

<path  fill="#FF64FF" stroke-width="0" stroke="#FF64FF" d = " M261 156 L268.5,157 L271,160 C271,153.827 277.073,153 282,153 282,153 285,152 285,152 285,150.26 295.09,152.295 296.5,153 296.5,153 299,155 299,155 299,152.167 297,150.16 297,148 297,148 292.5,150 292.5,150 291.987,150.256 277.6,147.55 276.5,147 276.5,147 271.5,147 271.5,147 271.5,147 270,143 270,143 267.151,143 263.742,154 257,154 257,154 257,157 257,157 257,157 261,156 261,156  Z"/>

<path  fill="#FDFB8F" stroke-width="0" stroke="#FDFB8F" d = " M329 149 C329.352,149 337,161.115 337,163 349.6,163 329,131.74 329,149  Z"/>

<path  fill="#FF64FF" stroke-width="0" stroke="#FF64FF" d = " M191 159 L192,159 C192,156.253 192.253,156 195,156 195,156 199,156 199,156 199,156 199,154 199,154 193.15,154 191.498,144 187,144 187,144 184.5,147 184.5,147 179.043,149.728 171.021,147.24 165.5,150 162.894,151.303 161.021,147 159,147 159,150.303 157,152.115 157,155 160.298,155 163.216,152 167,152 167,148.699 174.222,153 175,153 182.415,153 185.819,159 186,159 186.715,159 191,153.979 191,159  Z"/>

<path  fill="#FDA6FF" stroke-width="0" stroke="#FDA6FF" d = " M224 163 C225.643,163 225,166.765 225,168 L226,182.5 C226.927,184.354 228.282,184.218 229.5,183 232.284,180.216 232,166.912 232,163 232,163 231,146 231,146 229.418,146 228.688,145 226,145 226,150.56 224,157.321 224,163  Z"/>

<path  fill="#FCFB90" stroke-width="0" stroke="#FCFB90" d = " M119 163 C119,167.62 118.58,178 125,178 125,178 133.5,181 133.5,181 141.826,176.837 145,166.673 145,157.5 145,157.5 143,153 143,153 143,153 143,152 143,152 143,152 142,151 142,151 142,151 141,151 141,151 141,151 139,150 139,150 139,150 138,150 138,150 136.952,150 135,150.473 135,149 131.697,149 129.885,149 127,149 127,153.414 119,158.178 119,163  Z"/>

<path  fill="#F0F080" stroke-width="0" stroke="#F0F080" d = " M135 149 C136.048,149 138,148.527 138,150 136.952,150 135,150.473 135,149  Z"/>

<path  fill="#F0F080" stroke-width="0" stroke="#F0F080" d = " M321 149 C319.952,149 318,148.527 318,150 319.048,150 321,150.473 321,149  Z"/>

<path  fill="#FCFB90" stroke-width="0" stroke="#FCFB90" d = " M332 178 L331,179 C328.125,179 325.705,181 323.5,181 311.308,181 313,159.977 313,153 313,153 314,152 314,152 314,152 315,151 315,151 315,151 317,150 317,150 317,150 318,150 318,150 319.048,150 321,150.473 321,149 324.091,149 326.478,149 329,149 329.352,149 337,161.115 337,163 337,166.311 338.199,177 333,177 333,177 332,178 332,178  Z"/>

<path  fill="#F0F080" stroke-width="0" stroke="#F0F080" d = " M139 150 L141,151 C141,151 139,150 139,150  Z"/>

<path  fill="#F0F080" stroke-width="0" stroke="#F0F080" d = " M317 150 L315,151 C315,151 317,150 317,150  Z"/>

<path  fill="#F0F080" stroke-width="0" stroke="#F0F080" d = " M142 151 L143,152 C143,152 142,151 142,151  Z"/>

<path  fill="#FF9B88" stroke-width="0" stroke="#FF9B88" d = " M175 153 L174,155 C172.611,155 170.205,152 167,152 167,148.699 174.222,153 175,153  Z"/>

<path  fill="#FF9B88" stroke-width="0" stroke="#FF9B88" d = " M306 170 L308,176 C305.559,176 303.827,169.155 303,167.5 299.685,160.87 293.328,152 285,152 285,150.26 295.09,152.295 296.5,153 296.5,153 299,155 299,155 299,155 301,159 301,159 301,159 306,169 306,169 306,169 306,170 306,170  Z"/>

<path  fill="#FF9B88" stroke-width="0" stroke="#FF9B88" d = " M153 163 L153,167 C153,167 163.5,155 163.5,155 163.5,155 167,152 167,152 163.216,152 160.298,155 157,155 157,155 156,157 156,157 156,157 155,159 155,159 155,160.465 155.109,163 153,163  Z"/>

<path  fill-rule="evenodd" fill="#FFAD6D" stroke-width="0" stroke="#FFAD6D" d = " M164 178 C164,179.93 165.93,178 164,178  M154 190 L155,191 C155,191 176,187 176,187 178.869,187 179,179.342 179,177 179,177 178,174 178,174 178,174 175,174 175,174 175,174 174,175 174,175 174,175 173,175 173,175 173,175 172,176 172,176 172,176 171,176 171,176 171,176 170,177 170,177 170,177 168,177 168,177 168,177 167,178 167,178 162.15,178 169,175.028 169,174 169,174 170,173 170,173 170,173 171,172 171,172 171,170.93 173.384,164 174,164 174,160.944 174,157.772 174,155 172.611,155 170.205,152 167,152 167,152 163.5,155 163.5,155 163.5,155 153,167 153,167 153,168.937 151.447,175 149,175 149,175 149,176 149,176 149,176 148,177 148,177 148,177 147,178 147,178 147,178 146,181 146,181 146,181 145,182 145,182 145,182 145,183 145,183 145,183 145,185 145,185 146.272,185 154,189.405 154,190  Z"/>

<path  fill="#FF9B88" stroke-width="0" stroke="#FF9B88" d = " M282 153 L283,154 C283,154 285,152 285,152 285,152 282,153 282,153  Z"/>

<path  fill="#FFAD6D" stroke-width="0" stroke="#FFAD6D" d = " M280 187 L302,191 C302,189.485 310.167,185 311,185 311,185 311,183 311,183 311,183 309,178 309,178 309,178 308,177 308,177 308,177 308,176 308,176 305.559,176 303.827,169.155 303,167.5 299.685,160.87 293.328,152 285,152 285,152 283,154 283,154 283,155.984 279.722,157.945 281,160.5 282.042,162.584 283,163.408 283,166 283,166 286,173 286,173 288.209,173 293.593,180.046 291.5,179 291.5,179 289,178 289,178 289,178 288,177 288,177 288,177 287,177 287,177 287,177 286,176 286,176 286,176 285,176 285,176 285,176 284,175 284,175 284,175 282,175 282,175 282,175 278,174 278,174 278,174 277,179 277,179 277,181.377 280,185.054 280,187  Z"/>

<path  fill="#F0F080" stroke-width="0" stroke="#F0F080" d = " M314 152 L313,153 C313,153 314,152 314,152  Z"/>

<path  fill="#F0F080" stroke-width="0" stroke="#F0F080" d = " M142 183 L139,185 C133.841,185 129.896,182 124,182 124,182 125,178 125,178 125,178 133.5,181 133.5,181 141.826,176.837 145,166.673 145,157.5 145,157.5 143,153 143,153 143,153 146,156 146,156 146,156 146,157 146,157 146,157 147,159 147,159 147,162.804 145.424,168 150,168 150,168 150,169 150,169 150,169 150,170 150,170 145.798,170 142,179.987 142,183  Z"/>

<path  fill="#FFA5FD" stroke-width="0" stroke="#FFA5FD" d = " M174 164 C174,166.25 176,167.376 176,169 179.554,169 186,162.554 186,159 185.819,159 182.415,153 175,153 175,153 174,155 174,155 174,157.772 174,160.944 174,164  Z"/>

<path  fill="#FF9B88" stroke-width="0" stroke="#FF9B88" d = " M214 159 C212.523,159 208.301,161 205,161 203.748,161 199,157.108 199,156 199,156 199,154 199,154 199,154 203,153 203,153 203,159.635 210.482,155 213,155 213,155 214,159 214,159  Z"/>

<path  fill="#FF9B88" stroke-width="0" stroke="#FF9B88" d = " M242 159 C244.526,159 247.577,161 251,161 253.773,161 254.67,157 257,157 257,157 257,154 257,154 257,154 253,153 253,153 253,159.685 246.389,155 244,155 244,155 242,159 242,159  Z"/>

<path  fill="#FFA5FD" stroke-width="0" stroke="#FFA5FD" d = " M283 166 L281,169 C277.571,169 271,163.446 271,160 271,153.827 277.073,153 282,153 282,153 283,154 283,154 283,155.984 279.722,157.945 281,160.5 282.042,162.584 283,163.408 283,166  Z"/>

<path  fill="#F0F080" stroke-width="0" stroke="#F0F080" d = " M332 182 C326.104,182 322.159,185 317,185 317,185 314,182 314,182 314,178.623 310.194,170 306,170 306,170 306,169 306,169 306,169 307,168 307,168 311.461,168 310,161.233 310,158 311.473,158 311,156.048 311,155 311,155 313,153 313,153 313,159.977 311.308,181 323.5,181 325.705,181 328.125,179 331,179 331,179 332,182 332,182  Z"/>

<path  fill="#CBC9CB" stroke-width="0" stroke="#CBC9CB" d = " M168 177 L170,177 C170,177 171,176 171,176 171,176 172,176 172,176 172,176 173,175 173,175 173,175 174,175 174,175 174,175 175,174 175,174 175,172.527 176.952,173 178,173 178,170.679 188.849,166 191,166 195.165,166 206.787,170.074 203,162.5 203,162.5 195,156 195,156 192.253,156 192,156.253 192,159 192,162.592 191,163.939 191,159 191,153.979 186.715,159 186,159 186,162.554 179.554,169 176,169 176,169 171,172 171,172 171,172 170,173 170,173 170,173 169,174 169,174 169,175.028 162.15,178 167,178 167,178 168,177 168,177  Z"/>

<path  fill-rule="evenodd" fill="#FF8FFD" stroke-width="0" stroke="#FF8FFD" d = " M213 173 L212,179.5 C215.014,185.527 227.355,173 213,173  M218 188 L221,188 C221,186.376 223,185.25 223,183 220.725,183 220,176.697 220,175 220,165.525 205,163.017 205,161 203.748,161 199,157.108 199,156 199,156 195,156 195,156 195,156 203,162.5 203,162.5 206.787,170.074 195.165,166 191,166 191,166 195,168.5 195,168.5 198.483,175.466 195.415,182 187,182 187,186.344 212.838,188 218,188  Z"/>

<path  fill="#FF8FFD" stroke-width="0" stroke="#FF8FFD" d = " M235 188 L238,188 C243.055,188 269,186.655 269,182 250.569,182 265,166.316 265,166 261.572,166 249.796,169.908 253,163.5 253,163.5 261,156 261,156 261,156 257,157 257,157 254.67,157 253.773,161 251,161 251,163.438 237,165.295 237,173 253.655,173 237,192.067 237,173 237,173 236,175 236,175 236,176.775 235.931,183 234,183 234,183 235,188 235,188  Z"/>

<path  fill-rule="evenodd" fill="#CBC9CB" stroke-width="0" stroke="#CBC9CB" d = " M264 158 C264,167.211 266.105,158 264,158  M288 177 L289,178 C289,178 291.5,179 291.5,179 293.593,180.046 288.209,173 286,173 286,173 281,169 281,169 277.571,169 271,163.446 271,160 271,160 268.5,157 268.5,157 268.5,157 261,156 261,156 261,156 253,163.5 253,163.5 249.796,169.908 261.572,166 265,166 267.119,166 279,171.1 279,173 280.238,173 282,173.423 282,175 282,175 284,175 284,175 284,175 285,176 285,176 285,176 286,176 286,176 286,176 287,177 287,177 287,177 288,177 288,177  Z"/>

<path  fill="#FF64FF" stroke-width="0" stroke="#FF64FF" d = " M156 157 L155,159 C155,159 156,157 156,157  Z"/>

<path  fill="#FF8FFD" stroke-width="0" stroke="#FF8FFD" d = " M264 158 C264,167.211 266.105,158 264,158  Z"/>

<path  fill="#FF64FF" stroke-width="0" stroke="#FF64FF" d = " M155 159 L153,163 C155.109,163 155,160.465 155,159  Z"/>

<path  fill="#FF8FFD" stroke-width="0" stroke="#FF8FFD" d = " M191 159 L192,159 C192,162.592 191,163.939 191,159  Z"/>

<path  fill="#FF64FF" stroke-width="0" stroke="#FF64FF" d = " M228 189 L229,189 C229,189 230,188 230,188 230,188 235,188 235,188 235,188 234,183 234,183 233.598,183 228.807,175 236,175 236,175 237,173 237,173 237,165.295 251,163.438 251,161 247.577,161 244.526,159 242,159 242,162.711 233.349,163 232,163 232,166.912 232.284,180.216 229.5,183 228.282,184.218 226.927,184.354 226,182.5 226,182.5 225,168 225,168 225,166.765 225.643,163 224,163 221.493,163 214,162.333 214,159 212.523,159 208.301,161 205,161 205,163.017 220,165.525 220,175 220,175 221.5,173 221.5,173 226.164,173 223,181.573 223,183 223,185.25 221,186.376 221,188 221,188 226,188 226,188 226,188 227,189 227,189 227,189 228,189 228,189  Z"/>

<path  fill="#FF64FF" stroke-width="0" stroke="#FF64FF" d = " M307 168 L306,169 C306,169 301,159 301,159 301.966,159 307,167.749 307,168  Z"/>

<path  fill="#FF64FF" stroke-width="0" stroke="#FF64FF" d = " M150 168 L150,169 C150,169 153,167 153,167 153,167 153,163 153,163 153,163 150,168 150,168  Z"/>

<path  fill="#FF9B88" stroke-width="0" stroke="#FF9B88" d = " M176 169 L171,172 C171,170.93 173.384,164 174,164 174,166.25 176,167.376 176,169  Z"/>

<path  fill="#FFA5FD" stroke-width="0" stroke="#FFA5FD" d = " M179 177 C179.515,177 181.8,182 187,182 195.415,182 198.483,175.466 195,168.5 195,168.5 191,166 191,166 188.849,166 178,170.679 178,173 178,173 178,174 178,174 178,174 179,177 179,177  Z"/>

<path  fill="#FFA5FD" stroke-width="0" stroke="#FFA5FD" d = " M277 179 C274.596,179 272.351,182 269,182 250.569,182 265,166.316 265,166 267.119,166 279,171.1 279,173 279,173 278,174 278,174 278,174 277,179 277,179  Z"/>

<path  fill="#FF9B88" stroke-width="0" stroke="#FF9B88" d = " M281 169 L286,173 C286,173 283,166 283,166 283,166 281,169 281,169  Z"/>

<path  fill="#FF9B88" stroke-width="0" stroke="#FF9B88" d = " M150 170 C151.551,170 149,173.592 149,175 151.447,175 153,168.937 153,167 153,167 150,169 150,169 150,169 150,170 150,170  Z"/>

<path  fill="#CBC7CC" stroke-width="0" stroke="#CBC7CC" d = " M142 183 C142,185.373 144.284,183 145,183 145,183 145,182 145,182 145,182 146,181 146,181 146,181 147,178 147,178 147,178 148,177 148,177 148,177 149,176 149,176 149,176 149,175 149,175 149,173.592 151.551,170 150,170 145.798,170 142,179.987 142,183  Z"/>

<path  fill="#CBC7CC" stroke-width="0" stroke="#CBC7CC" d = " M314 182 C314,184.845 313.041,183 311,183 311,183 309,178 309,178 309,178 308,177 308,177 308,177 308,176 308,176 308,176 306,170 306,170 310.194,170 314,178.623 314,182  Z"/>

<path  fill="#FF9B88" stroke-width="0" stroke="#FF9B88" d = " M170 173 L169,174 C169,174 170,173 170,173  Z"/>

<path  fill="#FF9B88" stroke-width="0" stroke="#FF9B88" d = " M175 174 L178,174 C178,174 178,173 178,173 176.952,173 175,172.527 175,174  Z"/>

<path  fill="#FC90FE" stroke-width="0" stroke="#FC90FE" d = " M213 173 L212,179.5 C215.014,185.527 227.355,173 213,173  Z"/>

<path  fill="#CBCBCC" stroke-width="0" stroke="#CBCBCC" d = " M220 175 L221.5,173 C226.164,173 223,181.573 223,183 220.725,183 220,176.697 220,175  Z"/>

<path  fill="#FC90FE" stroke-width="0" stroke="#FC90FE" d = " M237 173 C237,192.067 253.655,173 237,173  Z"/>

<path  fill="#FF9B88" stroke-width="0" stroke="#FF9B88" d = " M278 174 L282,175 C282,173.423 280.238,173 279,173 279,173 278,174 278,174  Z"/>

<path  fill="#FF9B88" stroke-width="0" stroke="#FF9B88" d = " M175 174 L174,175 C174,175 175,174 175,174  Z"/>

<path  fill="#CBCBCC" stroke-width="0" stroke="#CBCBCC" d = " M236 175 C228.807,175 233.598,183 234,183 235.931,183 236,176.775 236,175  Z"/>

<path  fill="#FF9B88" stroke-width="0" stroke="#FF9B88" d = " M173 175 L172,176 C172,176 173,175 173,175  Z"/>

<path  fill="#FF9B88" stroke-width="0" stroke="#FF9B88" d = " M284 175 L285,176 C285,176 284,175 284,175  Z"/>

<path  fill="#FF9B88" stroke-width="0" stroke="#FF9B88" d = " M149 176 L148,177 C148,177 149,176 149,176  Z"/>

<path  fill="#FF9B88" stroke-width="0" stroke="#FF9B88" d = " M171 176 L170,177 C170,177 171,176 171,176  Z"/>

<path  fill="#FF9B88" stroke-width="0" stroke="#FF9B88" d = " M286 176 L287,177 C287,177 286,176 286,176  Z"/>

<path  fill="#FF9B88" stroke-width="0" stroke="#FF9B88" d = " M148 177 L147,178 C147,178 148,177 148,177  Z"/>

<path  fill="#FF9B88" stroke-width="0" stroke="#FF9B88" d = " M168 177 L167,178 C167,178 168,177 168,177  Z"/>

<path  fill="#FF9B88" stroke-width="0" stroke="#FF9B88" d = " M216 202 C216,203.048 215.527,205 217,205 217,199.413 218,192.919 218,188 212.838,188 187,186.344 187,182 181.8,182 179.515,177 179,177 179,179.342 178.869,187 176,187 176,188.811 183,188.58 183,192 183.982,192 189.244,188.628 190.5,188 195.916,185.292 216,195.826 216,202  Z"/>

<path  fill="#FF9B88" stroke-width="0" stroke="#FF9B88" d = " M288 177 L289,178 C289,178 288,177 288,177  Z"/>

<path  fill="#FF9B88" stroke-width="0" stroke="#FF9B88" d = " M308 177 L309,178 C309,178 308,177 308,177  Z"/>

<path  fill="#F0F080" stroke-width="0" stroke="#F0F080" d = " M333 177 L332,178 C332,178 333,177 333,177  Z"/>

<path  fill="#CBC9CB" stroke-width="0" stroke="#CBC9CB" d = " M164 178 C164,179.93 165.93,178 164,178  Z"/>

<path  fill="#F0F080" stroke-width="0" stroke="#F0F080" d = " M332 178 L331,179 C331,179 332,178 332,178  Z"/>

<path  fill="#FF9B88" stroke-width="0" stroke="#FF9B88" d = " M241 202 L240,203 C240,203 240,191.5 240,191.5 240,191.5 238,188 238,188 243.055,188 269,186.655 269,182 272.351,182 274.596,179 277,179 277,181.377 280,185.054 280,187 280,188.873 274,187.648 274,194 274,194 272.5,191 272.5,191 272.5,191 266.5,188 266.5,188 260.909,185.204 241,195.251 241,202  Z"/>

<path  fill="#FEF991" stroke-width="0" stroke="#FEF991" d = " M115 219 C113.762,219 110,220.923 110,222 98.7038,222 103.606,189.288 107,182.5 108.544,179.412 119,178.956 119,183 119,188.636 121.594,195.688 124,200.5 125.539,203.578 122,208.093 122,211 122,211 119,214 119,214 119,214 118,215 118,215 118,215 118,216 118,216 118,216 117,217 117,217 117,217 116,217 116,217 116,217 115,218 115,218 115,218 115,219 115,219  Z"/>

<path  fill="#FEF991" stroke-width="0" stroke="#FEF991" d = " M341 218 L347,222 C348.812,222 351.015,222.469 352,220.5 354.614,215.271 353.458,189.416 351,184.5 349.484,181.468 338,176.665 338,183 338,187.644 335.023,194.453 333,198.5 330.906,202.688 335,208.005 335,211 335,211 338,215 338,215 338,215 339,216 339,216 339,216 339,217 339,217 339,217 341,218 341,218  Z"/>

<path  fill="#FF9B88" stroke-width="0" stroke="#FF9B88" d = " M146 181 L145,182 C145,182 146,181 146,181  Z"/>

<path  fill="#CCCCCA" stroke-width="0" stroke="#CCCCCA" d = " M139 192 L127,208 C125.005,208 125,203.623 125,202 125,194.703 122,190.44 122,183 122,183 124,182 124,182 129.896,182 133.841,185 139,185 139,187.261 139,189.324 139,192  Z"/>

<path  fill="#FF9B88" stroke-width="0" stroke="#FF9B88" d = " M329 217 C323.303,217 322.812,228 319,228 319,221.867 327.327,214.155 324,207.5 324,207.5 316,197 316,197 318.864,197 316.014,185 311,185 311,185 311,183 311,183 313.041,183 314,184.845 314,182 314,182 317,185 317,185 317,195.364 329,201.876 329,208 329,208 329,216 329,216 329,216 329,217 329,217  Z"/>

<path  fill="#CCCCCA" stroke-width="0" stroke="#CCCCCA" d = " M317 185 C317,195.364 329,201.876 329,208 331.109,208 331,205.465 331,204 331,197.74 332.449,193.602 335,188.5 336.428,185.644 333,183.947 333,182 333,182 332,182 332,182 326.104,182 322.159,185 317,185  Z"/>

<path  fill="#F0F080" stroke-width="0" stroke="#F0F080" d = " M332 212 L329,216 C329,216 329,208 329,208 331.109,208 331,205.465 331,204 331,197.74 332.449,193.602 335,188.5 336.428,185.644 333,183.947 333,182 333,182 338,183 338,183 338,187.644 335.023,194.453 333,198.5 330.906,202.688 335,208.005 335,211 333.952,211 332,210.527 332,212  Z"/>

<path  fill="#F0F080" stroke-width="0" stroke="#F0F080" d = " M125 213 L127,215 C127,215 127,208 127,208 125.005,208 125,203.623 125,202 125,194.703 122,190.44 122,183 122,183 119,183 119,183 119,188.636 121.594,195.688 124,200.5 125.539,203.578 122,208.093 122,211 124.003,211 125,210.707 125,213  Z"/>

<path  fill="#FF9B88" stroke-width="0" stroke="#FF9B88" d = " M145 185 C141.133,185 141.428,192 139,192 139,189.324 139,187.261 139,185 139,185 142,183 142,183 142,185.373 144.284,183 145,183 145,183 145,185 145,185  Z"/>

<path  fill="#FEAD6E" stroke-width="0" stroke="#FEAD6E" d = " M151 198 L148,199 C148,195.135 142.572,197 141,197 138.132,197 139,194.312 139,192 141.428,192 141.133,185 145,185 146.272,185 154,189.405 154,190 154,190 155,191 155,191 155,193.83 151,195.54 151,198  Z"/>

<path  fill="#FEAD6E" stroke-width="0" stroke="#FEAD6E" d = " M316 197 L311.5,196 L308,199 C308,199 305,197 305,197 305,197 302,191 302,191 302,189.485 310.167,185 311,185 316.014,185 318.864,197 316,197  Z"/>

<path  fill="#FEBA86" stroke-width="0" stroke="#FEBA86" d = " M168 199 C165.986,199 162.068,196.716 159.5,198 L154,203 C150.764,203 151,200.565 151,198 151,195.54 155,193.83 155,191 155,191 176,187 176,187 176,188.811 183,188.58 183,192 183,192 183,195 183,195 183,195 181,198 181,198 178.22,198 175.732,192.884 171.5,195 171.5,195 168,199 168,199  Z"/>

<path  fill="#FEBA86" stroke-width="0" stroke="#FEBA86" d = " M288 199 L296.5,198 C298.889,199.194 300.747,203 303,203 306.024,203 305,199.426 305,197 305,197 302,191 302,191 302,191 280,187 280,187 280,188.873 274,187.648 274,194 274,194 274,198 274,198 274,198 275,198 275,198 277.242,198 288,190.401 288,199  Z"/>

<path  fill="#FFC295" stroke-width="0" stroke="#FFC295" d = " M183 201 C188.092,201 199.2,197.35 204.5,200 207.238,201.369 212.92,202 216,202 216,195.826 195.916,185.292 190.5,188 189.244,188.628 183.982,192 183,192 183,192 183,195 183,195 183,195 183,199 183,199 183,199 183,201 183,201  Z"/>

<path  fill="#FFC393" stroke-width="0" stroke="#FFC393" d = " M218 213 C218.558,213 227,225.728 227,215 221.912,215 217.438,189 226,189 226,189 226,188 226,188 226,188 221,188 221,188 221,188 218,188 218,188 218,192.919 217,199.413 217,205 217,205 218,213 218,213  Z"/>

<path  fill="#FF9B88" stroke-width="0" stroke="#FF9B88" d = " M226 189 L227,189 C227,189 226,188 226,188 226,188 226,189 226,189  Z"/>

<path  fill="#FF9B88" stroke-width="0" stroke="#FF9B88" d = " M229 189 L230,189 C230,189 230,188 230,188 230,188 229,189 229,189  Z"/>

<path  fill="#FFC393" stroke-width="0" stroke="#FFC393" d = " M238 214 C236.079,214 229,223.954 229,215 234.868,215 239.216,189 230,189 230,189 230,188 230,188 230,188 235,188 235,188 235,188 238,188 238,188 238,188 240,191.5 240,191.5 240,191.5 240,203 240,203 240,203 239,213 239,213 239,213 238,214 238,214  Z"/>

<path  fill="#FFC295" stroke-width="0" stroke="#FFC295" d = " M273 201 C267.908,201 256.8,197.35 251.5,200 249.141,201.179 243.582,202 241,202 241,195.251 260.909,185.204 266.5,188 266.5,188 272.5,191 272.5,191 272.5,191 274,194 274,194 274,194 274,198 274,198 274,198 274,199 274,199 274,199 273,201 273,201  Z"/>

<path  fill="#FFC294" stroke-width="0" stroke="#FFC294" d = " M227 215 C229.427,215 227.139,205.222 228,203.5 228.278,202.943 229,212.812 229,215 234.868,215 239.216,189 230,189 230,189 229,189 229,189 229,190.186 228,190.186 228,189 228,189 227,189 227,189 227,189 226,189 226,189 217.438,189 221.912,215 227,215  Z"/>

<path  fill="#FF9B88" stroke-width="0" stroke="#FF9B88" d = " M228 189 L229,189 C229,190.186 228,190.186 228,189  Z"/>

<path  fill="#FF9B88" stroke-width="0" stroke="#FF9B88" d = " M154 190 L155,191 C155,191 154,190 154,190  Z"/>

<path  fill="#FF9B88" stroke-width="0" stroke="#FF9B88" d = " M128 217 C133.754,217 137,228.727 137,233.5 137,234.948 136.275,241 138,241 138,235.082 139.848,229.197 137,223.5 135.475,220.451 129.98,213.54 132,209.5 133.499,206.502 135.464,203.573 137,200.5 137,200.5 141,197 141,197 138.132,197 139,194.312 139,192 139,192 127,208 127,208 127,208 127,215 127,215 127,215 127,216 127,216 127,216 128,217 128,217  Z"/>

<path  fill="#FEB886" stroke-width="0" stroke="#FEB886" d = " M174 226 C174,234.475 173.904,231 167,231 167,230.692 170.552,221.395 171,220.5 174.426,213.649 168,204.539 168,199 168,199 171.5,195 171.5,195 175.732,192.884 178.22,198 181,198 181,198 183,199 183,199 183,199 183,201 183,201 183,201 184,214.5 184,214.5 182.984,216.531 182,220.747 182,223 182,223 179,223 179,223 179,219.202 174,220.003 174,226  Z"/>

<path  fill="#FF9B88" stroke-width="0" stroke="#FF9B88" d = " M181 198 L183,199 C183,199 183,195 183,195 183,195 181,198 181,198  Z"/>

<path  fill="#FEB886" stroke-width="0" stroke="#FEB886" d = " M282 226 L281,230.5 C281.674,231.847 289,233.191 289,231 289,231 285,218.5 285,218.5 281.914,212.328 288,204.454 288,199 288,190.401 277.242,198 275,198 275,198 274,199 274,199 274,199 273,201 273,201 273,207.967 274,215.681 274,222 274,222 277,223 277,223 277,215.86 286.915,226 282,226  Z"/>

<path  fill="#FFAE6F" stroke-width="0" stroke="#FFAE6F" d = " M149 254 L150,254 C156.167,254 159.919,245.337 157,239.5 152.94,231.379 148,208.605 148,199 148,195.135 142.572,197 141,197 141,197 137,200.5 137,200.5 135.464,203.573 133.499,206.502 132,209.5 129.98,213.54 135.475,220.451 137,223.5 139.848,229.197 138,235.082 138,241 138,241 138,242 138,242 139.473,242 139,243.952 139,245 139,245 139,246 139,246 139,246 141,248 141,248 141,248 142,249 142,249 142,249 143,250 143,250 143,250 144,251 144,251 144,251 145,252 145,252 145,252 148,253 148,253 148,253 149,254 149,254  Z"/>

<path  fill="#FFAE6F" stroke-width="0" stroke="#FFAE6F" d = " M306 254 L307,254 C307,254 308,253 308,253 310.968,253 312.633,249 315,249 315,249 316,248 316,248 316,248 317,247 317,247 317,247 317,246 317,246 317,246 318,244 318,244 318,241.925 317.203,229 319,229 319,229 319,228 319,228 319,221.867 327.327,214.155 324,207.5 324,207.5 316,197 316,197 316,197 311.5,196 311.5,196 311.5,196 308,199 308,199 308,211.06 304.076,230.349 299,240.5 296.19,246.12 300.565,254 306,254  Z"/>

<path  fill="#FF9B88" stroke-width="0" stroke="#FF9B88" d = " M291 281 C291.716,281 294,278.627 294,281 295.757,281 298.284,274.931 299,273.5 299.7,272.1 306.297,269.905 305,272.5 303.849,274.803 301,275.141 301,278 301,278 309,270.5 309,270.5 312.039,264.422 331,259.442 331,253 327.609,253 329.746,247 327.5,247 327.5,247 325,250 325,250 325,250 325,251 325,251 325,252.238 324.577,254 323,254 323,254 322,255 322,255 320.362,255 314.321,260.09 312.5,261 309.74,262.38 297.313,262.874 300,257.5 300,257.5 306,254 306,254 300.565,254 296.19,246.12 299,240.5 304.076,230.349 308,211.06 308,199 308,199 305,197 305,197 305,199.426 306.024,203 303,203 303,203 303,204 303,204 307.147,204 306.222,209 303,209 303,209 303,212 303,212 303,220.585 300.539,227.422 297,234.5 296.275,235.95 297.493,242.996 293.5,241 290.895,239.698 291.031,236.562 290,234.5 290,234.5 292,231 292,231 292,231 289,231 289,231 289,233.191 281.674,231.847 281,230.5 281,230.5 282,226 282,226 279.446,226 278.312,223 277,223 277,223 274,222 274,222 274,227.957 281,238.337 281,248 281,248 281,253 281,253 283.36,253 281,256.959 281,258 288.987,258 283.954,246.592 286,242.5 287.848,238.804 290,246.765 290,248 290,248 290,253 290,253 291.384,253 291.123,249.811 293.5,251 294.449,251.474 304.532,272 296.5,272 294.909,272 297.358,266 295,266 295,271.778 291,277.241 291,279 291,279 291,281 291,281  Z"/>

<path  fill="#FF9B88" stroke-width="0" stroke="#FF9B88" d = " M163 281 C160.885,281 157.752,275.004 157,273.5 155.806,271.113 150.208,269.915 152,273.5 L164,286 C160.275,286 159.028,280.264 156.5,279 156.5,279 142.5,265 142.5,265 139.008,263.254 134.855,262.678 131.5,261 131.5,261 126,254 126,254 126,254 129.5,247 129.5,247 129.5,247 131,249 131,249 131,249 131,250 131,250 131,251.238 131.423,253 133,253 133,253 133,254 133,254 133,254 134,255 134,255 134,255 143.5,261 143.5,261 146.564,262.532 158.894,263.287 156,257.5 156,257.5 150,254 150,254 156.167,254 159.919,245.337 157,239.5 152.94,231.379 148,208.605 148,199 148,199 151,198 151,198 151,200.565 150.764,203 154,203 154,203 153,204 153,204 150.029,204 150.029,209 153,209 153,209 154,212 154,212 154,217.024 158.625,251.249 166,236.5 167.27,233.959 164,232.791 164,231 164,231 167,231 167,231 173.904,231 174,234.475 174,226 175.766,226 179,225.393 179,223 179,223 182,223 182,223 182,228.957 175,239.337 175,249 175,249 175,252 175,252 175,254.409 176,257.181 176,259 168.989,259 171.238,242.869 169.5,242 164.743,239.622 168.707,251 166,251 166,251 162.5,251 162.5,251 160.615,251.943 161.736,255.027 161,256.5 158.944,260.611 151.256,271 161,271 161,272.463 163.995,279 166,279 166,287.994 183.26,286 190,286 190,287.665 185.778,287 184.5,287 178.78,287 172.242,287.371 167.5,285 166.084,284.292 163,276.707 163,281  Z"/>

<path  fill="#FEB986" stroke-width="0" stroke="#FEB986" d = " M164 231 L167,231 C167,230.692 170.552,221.395 171,220.5 174.426,213.649 168,204.539 168,199 165.986,199 162.068,196.716 159.5,198 159.5,198 154,203 154,203 154,203 153,204 153,204 153,205.744 153,206.967 153,209 153,209 154,212 154,212 158.656,212 157.029,231 164,231  Z"/>

<path  fill="#FF9B88" stroke-width="0" stroke="#FF9B88" d = " M275 198 L274,199 C274,199 274,198 274,198 274,198 275,198 275,198  Z"/>

<path  fill="#FEB986" stroke-width="0" stroke="#FEB986" d = " M289 231 L292,231 C300.872,231 295.497,212 303,212 303,212 303,209 303,209 303,209 303,204 303,204 303,204 303,203 303,203 300.747,203 298.889,199.194 296.5,198 296.5,198 288,199 288,199 288,204.454 281.914,212.328 285,218.5 285,218.5 289,231 289,231  Z"/>

<path  fill="#FDBA86" stroke-width="0" stroke="#FDBA86" d = " M195 269 L197,270 C197,270 197,265.5 197,265.5 197.582,264.337 216.34,265 218,265 218,265 219,264 219,264 219,264 220,263 220,263 220,263 222,262 222,262 222,259.851 227.334,255.168 225,250.5 225,250.5 219,243.5 219,243.5 216.059,237.619 217,228.04 217,221 213.696,221 208.849,210.326 211.5,209 211.5,209 218,215 218,215 218,215 218,213 218,213 218,213 217,205 217,205 215.527,205 216,203.048 216,202 212.92,202 207.238,201.369 204.5,200 199.2,197.35 188.092,201 183,201 183,201 184,214.5 184,214.5 182.984,216.531 182,220.747 182,223 182,228.957 175,239.337 175,249 176.488,249 178.618,243.559 181.5,245 183.968,246.234 187.309,258 182.5,258 179.418,258 176.625,252 175,252 175,254.409 176,257.181 176,259 176,259 180,263 180,263 180,263 181,263 181,263 186.049,263 189.829,269 195,269  Z"/>

<path  fill="#FDBA86" stroke-width="0" stroke="#FDBA86" d = " M260 269 L261,269 C266.347,269 270.1,263 275,263 275,263 277,263 277,263 277,263 281,258 281,258 281,256.959 283.36,253 281,253 278.802,253 276.083,259.291 273.5,258 270.196,256.348 271.721,246.389 274.5,245 277.106,243.697 278.979,248 281,248 281,238.337 274,227.957 274,222 274,215.681 273,207.967 273,201 267.908,201 256.8,197.35 251.5,200 249.141,201.179 243.582,202 241,202 241,202 240,203 240,203 240,203 239,213 239,213 239,213 244.5,209 244.5,209 247.809,210.654 243.99,215.52 243,217.5 242.529,218.442 243.73,222 241.5,222 241.5,222 239,221 239,221 239,231.155 240.227,241.273 233,248.5 233,248.5 231,251 231,251 231,251 231,258 231,258 231,258 234,262 234,262 234,262 237,264 237,264 237,264 239,265 239,265 243.438,265 260,261.968 260,269  Z"/>

<path  fill="#FF9B88" stroke-width="0" stroke="#FF9B88" d = " M222 262 L225,262 C225,262 226,261 226,261 226,261 226,245.5 226,245.5 228.732,240.036 231,248.83 231,251 231,251 233,248.5 233,248.5 240.227,241.273 239,231.155 239,221 239,217.934 239,216.583 239,214 239,214 238,214 238,214 236.079,214 229,223.954 229,215 229,212.812 228.278,202.943 228,203.5 227.139,205.222 229.427,215 227,215 227,225.728 218.558,213 218,213 218,213 218,215 218,215 218,215 217,221 217,221 217,228.04 216.059,237.619 219,243.5 219,243.5 225,250.5 225,250.5 227.334,255.168 222,259.851 222,262  Z"/>

<path  fill="#FEB984" stroke-width="0" stroke="#FEB984" d = " M153 204 C150.029,204 150.029,209 153,209 153,206.967 153,205.744 153,204  Z"/>

<path  fill="#FEB984" stroke-width="0" stroke="#FEB984" d = " M303 204 C307.147,204 306.222,209 303,209 303,209 303,204 303,204  Z"/>

<path  fill="#C8C8CC" stroke-width="0" stroke="#C8C8CC" d = " M218 215 L211.5,209 C208.849,210.326 213.696,221 217,221 217,221 218,215 218,215  Z"/>

<path  fill="#C8C8CC" stroke-width="0" stroke="#C8C8CC" d = " M239 214 C239,216.583 239,217.934 239,221 239,221 241.5,222 241.5,222 243.73,222 242.529,218.442 243,217.5 243.99,215.52 247.809,210.654 244.5,209 244.5,209 239,213 239,213 239,213 239,214 239,214  Z"/>

<path  fill="#FEA4D2" stroke-width="0" stroke="#FEA4D2" d = " M117 244 L115,245 C115,245 110,238.5 110,238.5 108.161,234.822 111,228.404 111,225 111,225 112,224 112,224 112,224 113,223 113,223 113,223 113,222 113,222 113,222 114,221 114,221 114,221 115,220 115,220 115,220 115,219 115,219 115,219 116,218 116,218 116,218 117,217 117,217 117,217 118,216 118,216 118,216 118,215 118,215 118,215 119,214 119,214 119,214 122,211 122,211 124.003,211 125,210.707 125,213 125,217.357 122.891,223.718 121,227.5 121,227.5 121,234.5 121,234.5 121,234.5 118,241 118,241 116.527,241 117,242.952 117,244  Z"/>

<path  fill="#FEA4D2" stroke-width="0" stroke="#FEA4D2" d = " M340 245 L341,245 C341,245 342.5,243 342.5,243 349.334,239.583 346,233.063 346,227 346,227 345,226 345,226 345,226 345,224 345,224 345,224 343,222 343,222 343,222 342,220 342,220 342,220 339,217 339,217 339,217 339,216 339,216 339,216 338,215 338,215 338,215 335,211 335,211 333.952,211 332,210.527 332,212 332,215.035 334.922,234.345 336,236.5 336,236.5 338,241 338,241 338,241 340,245 340,245  Z"/>

<path  fill="#FDB986" stroke-width="0" stroke="#FDB986" d = " M154 212 C158.656,212 157.029,231 164,231 164,232.791 167.27,233.959 166,236.5 158.625,251.249 154,217.024 154,212  Z"/>

<path  fill="#FDB986" stroke-width="0" stroke="#FDB986" d = " M303 212 C295.497,212 300.872,231 292,231 292,231 290,234.5 290,234.5 291.031,236.562 290.895,239.698 293.5,241 297.493,242.996 296.275,235.95 297,234.5 300.539,227.422 303,220.585 303,212  Z"/>

<path  fill="#FF9BCD" stroke-width="0" stroke="#FF9BCD" d = " M325 250 L327.5,247 C329.746,247 327.609,253 331,253 334.035,253 341,248.609 341,245 341,245 340,245 340,245 338,245 336.706,251.603 333.5,250 328.139,247.319 334.085,241 338,241 338,241 336,236.5 336,236.5 334.922,234.345 332,215.035 332,212 332,212 329,216 329,216 329,216 329,217 329,217 332.042,217 331,223.505 331,225.5 331,234.312 325,241.721 325,250  Z"/>

<path  fill="#FF9BCD" stroke-width="0" stroke="#FF9BCD" d = " M131 249 L129.5,247 L126,254 C123.453,254 115,247.682 115,245 115,245 117,244 117,244 117,246.029 118.191,245.881 119,247.5 122.997,255.494 129.803,241 118,241 118,241 121,234.5 121,234.5 121,234.5 121,227.5 121,227.5 122.891,223.718 125,217.357 125,213 125,213 127,215 127,215 127,215 127,216 127,216 127,216 127,217 127,217 124.952,217 125,223.648 125,225.5 125,233.85 131,240.777 131,249  Z"/>

<path  fill="#FDBA86" stroke-width="0" stroke="#FDBA86" d = " M238 214 L239,214 C239,214 239,213 239,213 239,213 238,214 238,214  Z"/>

<path  fill="#FF9BCD" stroke-width="0" stroke="#FF9BCD" d = " M119 214 L118,215 C118,215 119,214 119,214  Z"/>

<path  fill="#FF9BCD" stroke-width="0" stroke="#FF9BCD" d = " M338 215 L339,216 C339,216 338,215 338,215  Z"/>

<path  fill="#FF9BCD" stroke-width="0" stroke="#FF9BCD" d = " M118 216 L117,217 C117,217 118,216 118,216  Z"/>

<path  fill="#F0F080" stroke-width="0" stroke="#F0F080" d = " M127 217 L128,217 C128,217 127,216 127,216 127,216 127,217 127,217  Z"/>

<path  fill="#F0F080" stroke-width="0" stroke="#F0F080" d = " M115 218 L116,218 C116,218 116,217 116,217 116,217 115,218 115,218  Z"/>

<path  fill="#FF9BCD" stroke-width="0" stroke="#FF9BCD" d = " M117 217 L116,218 C116,218 116,217 116,217 116,217 117,217 117,217  Z"/>

<path  fill="#C8CACA" stroke-width="0" stroke="#C8CACA" d = " M150 254 L156,257.5 C158.894,263.287 146.564,262.532 143.5,261 L134,255 C134,255 133,254 133,254 133,254 133,253 133,253 133,251.762 132.577,250 131,250 131,250 131,249 131,249 131,240.777 125,233.85 125,225.5 125,223.648 124.952,217 127,217 127,217 128,217 128,217 133.754,217 137,228.727 137,233.5 137,234.948 136.275,241 138,241 138,241 138,242 138,242 138,243.048 137.527,245 139,245 139,245 139,246 139,246 139,246 141,248 141,248 141,248 142,249 142,249 142,249 143,250 143,250 143,250 144,251 144,251 144,251 145,252 145,252 145,252 148,253 148,253 148,253 149,254 149,254 149,254 150,254 150,254  Z"/>

<path  fill="#C8CACA" stroke-width="0" stroke="#C8CACA" d = " M323 254 L322,255 C320.362,255 314.321,260.09 312.5,261 309.74,262.38 297.313,262.874 300,257.5 300,257.5 306,254 306,254 306,254 307,254 307,254 307,254 308,253 308,253 310.968,253 312.633,249 315,249 315,249 316,248 316,248 316,248 317,247 317,247 317,247 317,246 317,246 317,246 318,244 318,244 319.797,244 319,231.075 319,229 319,229 319,228 319,228 322.812,228 323.303,217 329,217 332.042,217 331,223.505 331,225.5 331,234.312 325,241.721 325,250 325,250 325,251 325,251 323.423,251 323,252.762 323,254  Z"/>

<path  fill="#FF9BCD" stroke-width="0" stroke="#FF9BCD" d = " M341 218 L342,220 C342,220 339,217 339,217 339,217 341,218 341,218  Z"/>

<path  fill="#FF9BCD" stroke-width="0" stroke="#FF9BCD" d = " M116 218 L115,219 C115,219 115,218 115,218 115,218 116,218 116,218  Z"/>

<path  fill="#F0F080" stroke-width="0" stroke="#F0F080" d = " M347 222 L345,223 C345,223 343,222 343,222 343,222 342,220 342,220 342,220 341,218 341,218 341,218 347,222 347,222  Z"/>

<path  fill="#F0F080" stroke-width="0" stroke="#F0F080" d = " M111 224 L112,224 C112,224 113,223 113,223 113,223 113,222 113,222 113,222 114,221 114,221 114,221 115,220 115,220 115,220 115,219 115,219 113.762,219 110,220.923 110,222 110,222 111,224 111,224  Z"/>

<path  fill="#FF9BCD" stroke-width="0" stroke="#FF9BCD" d = " M115 220 L114,221 C114,221 115,220 115,220  Z"/>

<path  fill="#FF9BCD" stroke-width="0" stroke="#FF9BCD" d = " M114 221 L113,222 C113,222 114,221 114,221  Z"/>

<path  fill="#FDBA85" stroke-width="0" stroke="#FDBA85" d = " M179 223 C179,225.393 175.766,226 174,226 174,220.003 179,219.202 179,223  Z"/>

<path  fill="#FDBA85" stroke-width="0" stroke="#FDBA85" d = " M277 223 C278.312,223 279.446,226 282,226 286.915,226 277,215.86 277,223  Z"/>

<path  fill="#FF9BCD" stroke-width="0" stroke="#FF9BCD" d = " M345 223 L345,224 C345,224 343,222 343,222 343,222 345,223 345,223  Z"/>

<path  fill="#FF9BCD" stroke-width="0" stroke="#FF9BCD" d = " M113 223 L112,224 C112,224 113,223 113,223  Z"/>

<path  fill="#FF9BCD" stroke-width="0" stroke="#FF9BCD" d = " M112 224 L111,225 C111,225 111,224 111,224 111,224 112,224 112,224  Z"/>

<path  fill="#FF9BCD" stroke-width="0" stroke="#FF9BCD" d = " M345 226 L346,227 C346,227 345,226 345,226  Z"/>

<path  fill="#FF9B88" stroke-width="0" stroke="#FF9B88" d = " M319 229 C317.203,229 318,241.925 318,244 319.797,244 319,231.075 319,229  Z"/>

<path  fill="#C9CACB" stroke-width="0" stroke="#C9CACB" d = " M118 241 C129.803,241 122.997,255.494 119,247.5 118.191,245.881 117,246.029 117,244 117,242.952 116.527,241 118,241  Z"/>

<path  fill="#C9CACB" stroke-width="0" stroke="#C9CACB" d = " M338 241 L340,245 C338,245 336.706,251.603 333.5,250 328.139,247.319 334.085,241 338,241  Z"/>

<path  fill="#FF9B88" stroke-width="0" stroke="#FF9B88" d = " M138 242 C139.473,242 139,243.952 139,245 137.527,245 138,243.048 138,242  Z"/>

<path  fill="#FEAE6E" stroke-width="0" stroke="#FEAE6E" d = " M180 276 L174.5,280 L166,279 C163.995,279 161,272.463 161,271 161,263.738 165,259.331 165,255 165,255 166,254 166,254 166,254 166,251 166,251 168.707,251 164.743,239.622 169.5,242 171.238,242.869 168.989,259 176,259 176,259 180,263 180,263 180,263 181,265 181,265 181,265 180,276 180,276  Z"/>

<path  fill="#FEAE6E" stroke-width="0" stroke="#FEAE6E" d = " M277 276 C277,282.266 288.13,279 291,279 291,277.241 295,271.778 295,266 295,260.813 290,257.381 290,253 290,253 290,248 290,248 290,246.765 287.848,238.804 286,242.5 283.954,246.592 288.987,258 281,258 281,258 277,263 277,263 277,263 276,264 276,264 276,267.962 277,272.688 277,276  Z"/>

<path  fill="#FFC5E2" stroke-width="0" stroke="#FFC5E2" d = " M226 270 L230,271 C230,271 230,263 230,263 230,263 231,261 231,261 231,261 231,258 231,258 231,258 231,251 231,251 231,248.83 228.732,240.036 226,245.5 226,245.5 226,261 226,261 226,261 226,263 226,263 226,263 226,270 226,270  Z"/>

<path  fill="#FF9B88" stroke-width="0" stroke="#FF9B88" d = " M318 244 L317,246 C317,246 318,244 318,244  Z"/>

<path  fill="#C9C9CB" stroke-width="0" stroke="#C9C9CB" d = " M175 249 C176.488,249 178.618,243.559 181.5,245 183.968,246.234 187.309,258 182.5,258 179.418,258 176.625,252 175,252 175,252 175,249 175,249  Z"/>

<path  fill="#C9C9CB" stroke-width="0" stroke="#C9C9CB" d = " M281 248 C278.979,248 277.106,243.697 274.5,245 271.721,246.389 270.196,256.348 273.5,258 276.083,259.291 278.802,253 281,253 281,253 281,248 281,248  Z"/>

<path  fill="#FF9B88" stroke-width="0" stroke="#FF9B88" d = " M139 246 L141,248 C141,248 139,246 139,246  Z"/>

<path  fill="#FF9B88" stroke-width="0" stroke="#FF9B88" d = " M317 247 L316,248 C316,248 317,247 317,247  Z"/>

<path  fill="#FF9B88" stroke-width="0" stroke="#FF9B88" d = " M316 248 L315,249 C315,249 316,248 316,248  Z"/>

<path  fill="#FF9B88" stroke-width="0" stroke="#FF9B88" d = " M142 249 L143,250 C143,250 142,249 142,249  Z"/>

<path  fill="#FF9BCD" stroke-width="0" stroke="#FF9BCD" d = " M131 250 C132.577,250 133,251.762 133,253 131.423,253 131,251.238 131,250  Z"/>

<path  fill="#FF9B88" stroke-width="0" stroke="#FF9B88" d = " M144 251 L145,252 C145,252 144,251 144,251  Z"/>

<path  fill="#C8C8CB" stroke-width="0" stroke="#C8C8CB" d = " M165 255 C165,259.331 161,263.738 161,271 151.256,271 158.944,260.611 161,256.5 161.736,255.027 160.615,251.943 162.5,251 162.5,251 166,251 166,251 166,251 166,254 166,254 166,254 165,255 165,255  Z"/>

<path  fill="#C8C8CB" stroke-width="0" stroke="#C8C8CB" d = " M290 253 C291.384,253 291.123,249.811 293.5,251 294.449,251.474 304.532,272 296.5,272 294.909,272 297.358,266 295,266 295,260.813 290,257.381 290,253  Z"/>

<path  fill="#FF9BCD" stroke-width="0" stroke="#FF9BCD" d = " M325 251 C323.423,251 323,252.762 323,254 324.577,254 325,252.238 325,251  Z"/>

<path  fill="#FF9B88" stroke-width="0" stroke="#FF9B88" d = " M148 253 L149,254 C149,254 148,253 148,253  Z"/>

<path  fill="#FF9B88" stroke-width="0" stroke="#FF9B88" d = " M308 253 L307,254 C307,254 308,253 308,253  Z"/>

<path  fill="#FF9BCD" stroke-width="0" stroke="#FF9BCD" d = " M133 254 L134,255 C134,255 133,254 133,254  Z"/>

<path  fill="#FF9B88" stroke-width="0" stroke="#FF9B88" d = " M166 254 L165,255 C165,255 166,254 166,254  Z"/>

<path  fill="#FF9BCD" stroke-width="0" stroke="#FF9BCD" d = " M323 254 L322,255 C322,255 323,254 323,254  Z"/>

<path  fill="#FF9B88" stroke-width="0" stroke="#FF9B88" d = " M231 262 L234,262 C234,262 231,258 231,258 231,258 231,261 231,261 231,261 231,262 231,262  Z"/>

<path  fill="#FF9BCD" stroke-width="0" stroke="#FF9BCD" d = " M225 262 L226,263 C226,263 226,261 226,261 226,261 225,262 225,262  Z"/>

<path  fill="#FF9BCD" stroke-width="0" stroke="#FF9BCD" d = " M231 262 L230,263 C230,263 231,261 231,261 231,261 231,262 231,262  Z"/>

<path  fill="#CACCC8" stroke-width="0" stroke="#CACCC8" d = " M219 265 C219,267.588 215.499,271.498 217,274.5 218.698,277.896 226,273.684 226,270 226,270 226,263 226,263 226,263 225,262 225,262 225,262 222,262 222,262 222,262 220,263 220,263 220,263 219,264 219,264 219,264 219,265 219,265  Z"/>

<path  fill="#CACCC8" stroke-width="0" stroke="#CACCC8" d = " M238 265 C238,268.084 240,271.705 240,274.5 240,277.324 230,274.433 230,271 230,271 230,263 230,263 230,263 231,262 231,262 231,262 234,262 234,262 234,262 237,264 237,264 237,264 238,265 238,265  Z"/>

<path  fill="#FF9B88" stroke-width="0" stroke="#FF9B88" d = " M181 263 L181,265 C181,265 180,263 180,263 180,263 181,263 181,263  Z"/>

<path  fill="#FFAD6E" stroke-width="0" stroke="#FFAD6E" d = " M195 279 L194,280 C194,280 189.5,281 189.5,281 189.5,281 180,276 180,276 180,276 181,265 181,265 181,265 181,263 181,263 186.049,263 189.829,269 195,269 195,269 196,273 196,273 196,273 196,275 196,275 196,275 195,276 195,276 195,276 195,278 195,278 195,278 195,279 195,279  Z"/>

<path  fill="#FF9B88" stroke-width="0" stroke="#FF9B88" d = " M220 263 L219,264 C219,264 220,263 220,263  Z"/>

<path  fill="#FFAD6E" stroke-width="0" stroke="#FFAD6E" d = " M261 277 L263,280 C263,280 267.5,281 267.5,281 267.5,281 277,276 277,276 277,272.688 276,267.962 276,264 276,264 275,263 275,263 270.1,263 266.347,269 261,269 261,269 261,274 261,274 261,274 261,277 261,277  Z"/>

<path  fill="#FF9B88" stroke-width="0" stroke="#FF9B88" d = " M277 263 L276,264 C276,264 275,263 275,263 275,263 277,263 277,263  Z"/>

<path  fill="#CCC7CB" stroke-width="0" stroke="#CCC7CB" d = " M235 287 L237,287 C237,287 234,283.5 234,283.5 230.506,276.512 244.863,279 247,279 247,279 247,277 247,277 247,274.129 243,274.444 243,271 243,271 244,270 244,270 244,270 259,271 259,271 259,271 259,270 259,270 259,270 260,269 260,269 260,261.968 243.438,265 239,265 239,265 238,265 238,265 238,268.084 240,271.705 240,274.5 240,277.324 230,274.433 230,271 230,271 226,270 226,270 226,273.684 218.698,277.896 217,274.5 215.499,271.498 219,267.588 219,265 219,265 218,265 218,265 216.34,265 197.582,264.337 197,265.5 197,265.5 197,270 197,270 197,270 197,271 197,271 197,271 213,270.5 213,270.5 214.458,273.417 209,274.681 209,277 209,277 209,279 209,279 210.682,279 226.302,276.895 223,283.5 223,283.5 219,287 219,287 219,287 221,287 221,287 221,287 228.5,284 228.5,284 228.5,284 235,287 235,287  Z"/>

<path  fill="#FF9B88" stroke-width="0" stroke="#FF9B88" d = " M218 265 L219,265 C219,265 219,264 219,264 219,264 218,265 218,265  Z"/>

<path  fill="#FF9B88" stroke-width="0" stroke="#FF9B88" d = " M238 265 L239,265 C239,265 237,264 237,264 237,264 238,265 238,265  Z"/>

<path  fill="#FF9B88" stroke-width="0" stroke="#FF9B88" d = " M197 271 L196,273 C196,273 195,269 195,269 195,269 197,270 197,270 197,270 197,271 197,271  Z"/>

<path  fill="#FDBA86" stroke-width="0" stroke="#FDBA86" d = " M260 269 L259,270 C259,270 260,269 260,269  Z"/>

<path  fill="#FF9B88" stroke-width="0" stroke="#FF9B88" d = " M259 271 L261,274 C261,274 261,269 261,269 261,269 260,269 260,269 260,269 259,270 259,270 259,270 259,271 259,271  Z"/>

<path  fill="#FEA3D2" stroke-width="0" stroke="#FEA3D2" d = " M209 277 C206.73,277 205.373,279.064 203.5,280 200.151,281.675 197.259,278 195,278 195,278 195,276 195,276 195,276 196,275 196,275 196,275 196,273 196,273 196,273 197,271 197,271 197,271 213,270.5 213,270.5 214.458,273.417 209,274.681 209,277  Z"/>

<path  fill="#FF9BCD" stroke-width="0" stroke="#FF9BCD" d = " M244 270 L243,271 C243,271 244,270 244,270  Z"/>

<path  fill="#FEA3D2" stroke-width="0" stroke="#FEA3D2" d = " M261 277 L261,279 C259.196,279 255.864,281.182 253.5,280 253.5,280 247,277 247,277 247,274.129 243,274.444 243,271 243,271 244,270 244,270 244,270 259,271 259,271 259,271 261,274 261,274 261,274 261,277 261,277  Z"/>

<path  fill="#CBC7CC" stroke-width="0" stroke="#CBC7CC" d = " M164 286 L165,286 C165,286 165,285 165,285 165,285 163,281 163,281 160.885,281 157.752,275.004 157,273.5 155.806,271.113 150.208,269.915 152,273.5 152,273.5 164,286 164,286  Z"/>

<path  fill="#CBC7CC" stroke-width="0" stroke="#CBC7CC" d = " M293 285 L294,285 C294,285 295,284 295,284 295,284 296,283 296,283 296,283 297,282 297,282 297,282 298,281 298,281 298,281 299,280 299,280 299,280 300,279 300,279 300,279 301,278 301,278 301,275.141 303.849,274.803 305,272.5 306.297,269.905 299.7,272.1 299,273.5 298.284,274.931 295.757,281 294,281 294,281 291,285 291,285 291,285 292,286 292,286 292,286 293,285 293,285  Z"/>

<path  fill="#FF9B88" stroke-width="0" stroke="#FF9B88" d = " M196 275 L195,276 C195,276 196,275 196,275  Z"/>

<path  fill="#FEAD6F" stroke-width="0" stroke="#FEAD6F" d = " M190 286 L192,286 C192,286 193,285 193,285 193,285 194,285 194,285 194,285 195,284 195,284 195,284 195,280 195,280 195,280 194,280 194,280 194,280 189.5,281 189.5,281 189.5,281 180,276 180,276 180,276 174.5,280 174.5,280 174.5,280 166,279 166,279 166,287.994 183.26,286 190,286  Z"/>

<path  fill="#FEAD6F" stroke-width="0" stroke="#FEAD6F" d = " M265 286 L267,286 C273.525,286 280,285 286,285 286,285 291,281 291,281 291,281 291,279 291,279 288.13,279 277,282.266 277,276 277,276 267.5,281 267.5,281 267.5,281 263,280 263,280 263,280 261,280 261,280 261,280 261,283 261,283 261,283 263,285 263,285 263,285 264,285 264,285 264,285 265,286 265,286  Z"/>

<path  fill="#FF9BCD" stroke-width="0" stroke="#FF9BCD" d = " M195 284 L195,285 C197.522,285 199.909,283 203,283 203,283 205,282 205,282 205,282 209,279 209,279 209,279 209,277 209,277 206.73,277 205.373,279.064 203.5,280 200.151,281.675 197.259,278 195,278 195,278 195,279 195,279 195,279 195,280 195,280 195,280 195,284 195,284  Z"/>

<path  fill="#FF9BCD" stroke-width="0" stroke="#FF9BCD" d = " M261 283 L261,285 C261,285 252,282 252,282 252,282 247,279 247,279 247,279 247,277 247,277 247,277 253.5,280 253.5,280 255.864,281.182 259.196,279 261,279 261,279 261,280 261,280 261,280 261,283 261,283  Z"/>

<path  fill="#FF9B88" stroke-width="0" stroke="#FF9B88" d = " M261 280 L263,280 C263,280 261,277 261,277 261,277 261,279 261,279 261,279 261,280 261,280  Z"/>

<path  fill="#C7C9C9" stroke-width="0" stroke="#C7C9C9" d = " M205 287 L219,287 C219,287 223,283.5 223,283.5 226.302,276.895 210.682,279 209,279 209,279 205,282 205,282 205,282 203,283 203,283 203,285.878 204,285.954 204,287 204,287 205,287 205,287  Z"/>

<path  fill="#C7C9C9" stroke-width="0" stroke="#C7C9C9" d = " M251 287 L253,287 C253,284.587 252,283.49 252,282 252,282 247,279 247,279 244.863,279 230.506,276.512 234,283.5 234,283.5 237,287 237,287 237,287 251,287 251,287  Z"/>

<path  fill="#FF9B88" stroke-width="0" stroke="#FF9B88" d = " M301 278 L300,279 C300,279 301,278 301,278  Z"/>

<path  fill="#CCC7CB" stroke-width="0" stroke="#CCC7CB" d = " M192 288 L194,288 C194,288 196,287 196,287 196,287 201,287 201,287 201,287 204,287 204,287 204,285.954 203,285.878 203,283 199.909,283 197.522,285 195,285 195,285 194,285 194,285 194,285 193,285 193,285 193,285 192,286 192,286 192,286 190,286 190,286 190,287.665 185.778,287 184.5,287 178.78,287 172.242,287.371 167.5,285 166.084,284.292 163,276.707 163,281 163,281 165,285 165,285 165,285 171.5,288 171.5,288 171.5,288 192,288 192,288  Z"/>

<path  fill="#FF9B88" stroke-width="0" stroke="#FF9B88" d = " M194 280 L195,280 C195,280 195,279 195,279 195,279 194,280 194,280  Z"/>

<path  fill="#FF9B88" stroke-width="0" stroke="#FF9B88" d = " M300 279 L299,280 C299,280 300,279 300,279  Z"/>

<path  fill="#CCC7CB" stroke-width="0" stroke="#CCC7CB" d = " M285 288 L286,288 C286,286.527 287.952,287 289,287 289,287 291,285 291,285 291,285 294,281 294,281 294,278.627 291.716,281 291,281 291,283.96 288.601,285 286,285 286,287.868 274,287 271.5,287 270.31,287 267,287.614 267,286 267,286 265,286 265,286 265,286 264,285 264,285 264,285 263,285 263,285 263,285 261,285 261,285 261,285 252,282 252,282 252,283.49 253,284.587 253,287 253,287 255,287 255,287 255,287 261,287 261,287 261,287 262,288 262,288 262,288 264,288 264,288 264,288 285,288 285,288  Z"/>

<path  fill="#FF9B88" stroke-width="0" stroke="#FF9B88" d = " M299 280 L298,281 C298,281 299,280 299,280  Z"/>

<path  fill="#FF9B88" stroke-width="0" stroke="#FF9B88" d = " M291 281 L286,285 C288.601,285 291,283.96 291,281  Z"/>

<path  fill="#FF9B88" stroke-width="0" stroke="#FF9B88" d = " M298 281 L297,282 C297,282 298,281 298,281  Z"/>

<path  fill="#CCC7CB" stroke-width="0" stroke="#CCC7CB" d = " M205 282 L203,283 C203,283 205,282 205,282  Z"/>

<path  fill="#FF9B88" stroke-width="0" stroke="#FF9B88" d = " M297 282 L296,283 C296,283 297,282 297,282  Z"/>

<path  fill="#FF9B88" stroke-width="0" stroke="#FF9B88" d = " M261 285 L263,285 C263,285 261,283 261,283 261,283 261,285 261,285  Z"/>

<path  fill="#FF9B88" stroke-width="0" stroke="#FF9B88" d = " M296 283 L295,284 C295,284 296,283 296,283  Z"/>

<path  fill="#FF9B88" stroke-width="0" stroke="#FF9B88" d = " M194 285 L195,285 C195,285 195,284 195,284 195,284 194,285 194,285  Z"/>

<path  fill="#FF9B88" stroke-width="0" stroke="#FF9B88" d = " M295 284 L294,285 C294,285 295,284 295,284  Z"/>

<path  fill="#FF9B88" stroke-width="0" stroke="#FF9B88" d = " M165 286 C165,289.355 182.378,289 186,289 187.321,289 192,289.684 192,288 192,288 171.5,288 171.5,288 171.5,288 165,285 165,285 165,285 165,286 165,286  Z"/>

<path  fill="#FF9B88" stroke-width="0" stroke="#FF9B88" d = " M193 285 L192,286 C192,286 193,285 193,285  Z"/>

<path  fill="#FF9B88" stroke-width="0" stroke="#FF9B88" d = " M264 285 L265,286 C265,286 264,285 264,285  Z"/>

<path  fill="#FF9B88" stroke-width="0" stroke="#FF9B88" d = " M286 285 C280,285 273.525,286 267,286 267,287.614 270.31,287 271.5,287 274,287 286,287.868 286,285  Z"/>

<path  fill="#FF9B88" stroke-width="0" stroke="#FF9B88" d = " M292 286 C292,287.473 290.048,287 289,287 289,287 291,285 291,285 291,285 292,286 292,286  Z"/>

<path  fill="#FF9B88" stroke-width="0" stroke="#FF9B88" d = " M293 285 L292,286 C292,286 293,285 293,285  Z"/>

<path  fill="#FF9B88" stroke-width="0" stroke="#FF9B88" d = " M194 288 L196,288 C196,288 196,287 196,287 196,287 194,288 194,288  Z"/>

<path  fill="#FF9BCD" stroke-width="0" stroke="#FF9BCD" d = " M201 287 C201,288.643 197.235,288 196,288 196,288 196,287 196,287 196,287 201,287 201,287  Z"/>

<path  fill="#FF9BCD" stroke-width="0" stroke="#FF9BCD" d = " M219 287 L221,287 C221,289.329 205,288.768 205,287 205,287 219,287 219,287  Z"/>

<path  fill="#FF9BCD" stroke-width="0" stroke="#FF9BCD" d = " M237 287 L251,287 C251,288.768 235,289.329 235,287 235,287 237,287 237,287  Z"/>

<path  fill="#FF9BCD" stroke-width="0" stroke="#FF9BCD" d = " M261 287 L261,288 C259.679,288 255,288.684 255,287 255,287 261,287 261,287  Z"/>

<path  fill="#FF9B88" stroke-width="0" stroke="#FF9B88" d = " M261 288 L262,288 C262,288 261,287 261,287 261,287 261,288 261,288  Z"/>

<path  fill="#FF9B88" stroke-width="0" stroke="#FF9B88" d = " M289 287 C287.952,287 286,286.527 286,288 287.048,288 289,288.473 289,287  Z"/>

<path  fill="#FF9B88" stroke-width="0" stroke="#FF9B88" d = " M264 288 L285,288 C285,289.803 270.7,289 268.5,289 267.31,289 264,289.614 264,288  Z"/>

</g>
</svg>
