<svg xmlns="http://www.w3.org/2000/svg" xmlns:xlink="http://www.w3.org/1999/xlink"  viewBox="0 0 456 320">
<g>
<rect width="456" height="320" fill="#000000"  stroke-width="0" /> 
<path  fill="#1E9C59" stroke-width="0" stroke="#1E9C59" d = " M226 57 L221,60 C221,56.4589 218.48,53.9803 216,51.5 208.936,44.4356 192.749,41.3755 183.5,46 183.5,46 175,49 175,49 175,49 175,43 175,43 175,43 176,42 176,42 189.475,42 210.999,32.4984 219,48.5 220.504,51.5079 226,53.4477 226,57  Z"/>

<path  fill="#1E9C59" stroke-width="0" stroke="#1E9C59" d = " M231 57 L235,60 C235,57.1734 237.831,55.837 239,53.5 247.084,37.3312 268.744,48 281,48 281,48 281,43 281,43 281,40.1362 270.44,40.9701 268.5,40 256.93,34.2149 239.603,42.2937 235,51.5 233.849,53.8029 231,54.1412 231,57  Z"/>

<path  fill="#1E9D5A" stroke-width="0" stroke="#1E9D5A" d = " M176 42 L175,43 C175,43 176,42 176,42  Z"/>

<path  fill="#1E9D5A" stroke-width="0" stroke="#1E9D5A" d = " M119 71 L120,71 C124.197,71 130.701,64.8995 134.5,63 141.485,59.5077 167.825,49 175,49 175,49 175,43 175,43 162.947,43 143.172,53.6638 132.5,59 130.845,59.8274 121,62.293 121,64 121,64 119,71 119,71  Z"/>

<path  fill="#1E9D5A" stroke-width="0" stroke="#1E9D5A" d = " M336 64 L337,71 C332.332,71 325.642,65.0711 321.5,63 313.908,59.2039 289.018,49 281,49 281,49 281,48 281,48 281,48 281,43 281,43 290.54,43 317.596,54.5479 326.5,59 329.314,60.4071 332.761,64 336,64  Z"/>

<path  fill="#1E9D58" stroke-width="0" stroke="#1E9D58" d = " M215 63 C215,61.4793 212.365,59.4327 211.5,59 201.359,53.9293 191.038,56.2312 181.5,61 L174,66 C174,60.9541 175,54.6749 175,49 175,49 183.5,46 183.5,46 192.749,41.3755 208.936,44.4356 216,51.5 218.48,53.9803 221,56.4589 221,60 221,60 221,61 221,61 221,61 215,63 215,63  Z"/>

<path  fill="#1E9D58" stroke-width="0" stroke="#1E9D58" d = " M241 63 L245.5,58 C248.66,56.4202 258.393,53.9467 262.5,56 265.937,57.7185 279.013,65 282,65 282,65 281,49 281,49 281,49 281,48 281,48 268.744,48 247.084,37.3312 239,53.5 237.831,55.837 235,57.1734 235,60 235,60 235,61 235,61 237.72,61 238.553,63 241,63  Z"/>

<path  fill="#1F9C58" stroke-width="0" stroke="#1F9C58" d = " M118 95 L119,95 C120.044,95 131.329,86.0856 133.5,85 140.37,81.5649 168.176,66 174,66 174,60.9541 175,54.6749 175,49 167.825,49 141.485,59.5077 134.5,63 130.701,64.8995 124.197,71 120,71 120,73.0069 118.768,87 118,87 118,89.1901 118,92.8099 118,95  Z"/>

<path  fill="#1F9C58" stroke-width="0" stroke="#1F9C58" d = " M338 95 L339,95 C339,95 339,94 339,94 339,91.5985 338,89.6898 338,87 338,81.7156 337,75.608 337,71 332.332,71 325.642,65.0711 321.5,63 313.908,59.2039 289.018,49 281,49 281,49 282,65 282,65 282,65 282,66 282,66 289.488,66 318.262,82.8811 326.5,87 326.5,87 338,95 338,95  Z"/>

<path  fill="#1F9D58" stroke-width="0" stroke="#1F9D58" d = " M200 77 L201,77 C201,75.7417 212.985,64 215,64 215,64 215,63 215,63 215,61.4793 212.365,59.4327 211.5,59 201.359,53.9293 191.038,56.2312 181.5,61 181.5,61 174,66 174,66 174,72.0518 172,78.2453 172,84 177.349,84 184.759,77.3707 189.5,75 193.277,73.1113 197.392,77 200,77  Z"/>

<path  fill="#1F9D58" stroke-width="0" stroke="#1F9D58" d = " M256 77 C258.762,77 262.755,73.1274 266.5,75 L284,84 C284,78.1288 282,71.669 282,66 282,66 282,65 282,65 279.013,65 265.937,57.7185 262.5,56 258.393,53.9467 248.66,56.4202 245.5,58 245.5,58 241,63 241,63 241,63 241,64 241,64 245.697,64 254.202,77 256,77  Z"/>

<path  fill="#3EA665" stroke-width="0" stroke="#3EA665" d = " M222 89 C225.251,89 230.749,89 234,89 234,79.7794 235,69.5395 235,61 235,61 235,60 235,60 235,60 231,57 231,57 228.693,57 229.376,61 228.5,61 228.5,61 226,57 226,57 226,57 221,60 221,60 221,60 221,61 221,61 223.144,61 221.381,65.2619 222,66.5 225.16,72.8199 222,82.5729 222,89  Z"/>

<path  fill="#40A565" stroke-width="0" stroke="#40A565" d = " M222 89 L217,90 C217,90 217,70 217,70 217,68.3767 216.995,64 215,64 215,64 215,63 215,63 215,63 221,61 221,61 223.144,61 221.381,65.2619 222,66.5 225.16,72.8199 222,82.5729 222,89  Z"/>

<path  fill="#40A565" stroke-width="0" stroke="#40A565" d = " M234 89 L239,89 C239,89 239,71.5 239,71.5 239.805,69.89 241,65.6985 241,64 241,64 241,63 241,63 238.553,63 237.72,61 235,61 235,69.5395 234,79.7794 234,89  Z"/>

<path  fill="#197E64" stroke-width="0" stroke="#197E64" d = " M103 74 L106,78 C106,78 119,71 119,71 119,71 121,64 121,64 118.856,64 103,72.8879 103,74  Z"/>

<path  fill="#3EA566" stroke-width="0" stroke="#3EA566" d = " M217 90 C211.491,90 206.984,97 203,97 203,89.817 201,83.4048 201,77 201,75.7417 212.985,64 215,64 216.995,64 217,68.3767 217,70 217,70 217,90 217,90  Z"/>

<path  fill="#3EA566" stroke-width="0" stroke="#3EA566" d = " M239 90 C244.285,90 248.61,97 253,97 253,92.4144 253.034,85.4312 255,81.5 255.523,80.4544 254.049,78 256,78 256,78 256,77 256,77 254.202,77 245.697,64 241,64 241,65.6985 239.805,69.89 239,71.5 239,71.5 239,89 239,89 239,89 239,90 239,90  Z"/>

<path  fill="#197E64" stroke-width="0" stroke="#197E64" d = " M353 74 L350,78 C350,78 337,71 337,71 337,71 336,64 336,64 337.517,64 353,72.7031 353,74  Z"/>

<path  fill="#1E9C5A" stroke-width="0" stroke="#1E9C5A" d = " M118 96 C118,99.9482 119,105.393 119,110 122.71,110 125.325,104.587 128.5,103 138.027,98.2367 148.991,95.7545 158.5,91 158.5,91 172,85 172,85 172,85 172,84 172,84 172,78.2453 174,72.0518 174,66 168.176,66 140.37,81.5649 133.5,85 131.329,86.0856 120.044,95 119,95 119,95 118,96 118,96  Z"/>

<path  fill="#1E9C5A" stroke-width="0" stroke="#1E9C5A" d = " M338 96 C338,101.419 337,104.003 337,109 333.384,109 330.577,104.539 327.5,103 317.97,98.2351 306.964,95.7322 297.5,91 297.5,91 284,85 284,85 284,85 284,84 284,84 284,78.1288 282,71.669 282,66 289.488,66 318.262,82.8811 326.5,87 326.5,87 338,95 338,95 338,95 338,96 338,96  Z"/>

<path  fill="#197F61" stroke-width="0" stroke="#197F61" d = " M118 87 L114,89 C109.854,89 109.865,79 106,79 106,79 106,78 106,78 106,78 119,71 119,71 119,71 120,71 120,71 120,73.0069 118.768,87 118,87  Z"/>

<path  fill="#197F61" stroke-width="0" stroke="#197F61" d = " M338 87 L343,89 C343,89 350,79 350,79 350,79 350,78 350,78 350,78 337,71 337,71 337,75.608 338,81.7156 338,87  Z"/>

<path  fill="#187E61" stroke-width="0" stroke="#187E61" d = " M61 143 L66,144 C66,128.088 78.6785,102.822 90,91.5 93.1264,88.3736 101.797,79 106,79 106,79 106,78 106,78 106,78 103,74 103,74 97.855,74 89.7661,83.7339 86,87.5 74.7793,98.7207 61,127.492 61,143  Z"/>

<path  fill="#187E61" stroke-width="0" stroke="#187E61" d = " M390 144 L391,144 C391,144 395,143 395,143 395,127.699 380.154,91.3271 367.5,85 363.645,83.0724 359.177,74 353,74 353,74 350,78 350,78 350,78 350,79 350,79 354.877,79 362.467,87.9674 366,91.5 378.899,104.399 390,125.773 390,144  Z"/>

<path  fill="#1D9C5A" stroke-width="0" stroke="#1D9C5A" d = " M179 103 C175.934,103 174.583,105 172,105 172,98.0396 172,92.5056 172,85 172,85 172,84 172,84 177.349,84 184.759,77.3707 189.5,75 193.277,73.1113 197.392,77 200,77 200,81.313 188,92.755 188,101 186.241,101 179,101.326 179,103  Z"/>

<path  fill="#1D9C5A" stroke-width="0" stroke="#1D9C5A" d = " M269 101 C274.984,101 279.679,105 285,105 285,98.358 284,90.9976 284,85 284,85 284,84 284,84 284,84 266.5,75 266.5,75 262.755,73.1274 258.762,77 256,77 256,77 256,78 256,78 258.356,78 269,98.3812 269,101  Z"/>

<path  fill="#3FA664" stroke-width="0" stroke="#3FA664" d = " M188 101 C190.362,101 193,103.638 193,106 193,106 203,98 203,98 203,98 203,97 203,97 203,89.817 201,83.4048 201,77 201,77 200,77 200,77 200,81.313 188,92.755 188,101  Z"/>

<path  fill="#3FA664" stroke-width="0" stroke="#3FA664" d = " M265 104 L263,105 C258.783,105 256.741,97 253,97 253,92.4144 253.034,85.4312 255,81.5 255.523,80.4544 254.049,78 256,78 258.356,78 269,98.3812 269,101 266.939,101 265,101.902 265,104  Z"/>

<path  fill="#1A7E64" stroke-width="0" stroke="#1A7E64" d = " M66 144 C69.4139,144 72.353,147 76,147 76,136.459 90.419,103.54 99.5,99 104.218,96.6412 108.477,90 114,90 114,90 114,89 114,89 109.854,89 109.865,79 106,79 101.797,79 93.1264,88.3736 90,91.5 78.6785,102.822 66,128.088 66,144  Z"/>

<path  fill="#1A7E64" stroke-width="0" stroke="#1A7E64" d = " M390 144 L381,147 C381,136.097 364.573,102.037 354.5,97 351.225,95.3625 346.699,90 343,90 343,90 343,89 343,89 343,89 350,79 350,79 354.877,79 362.467,87.9674 366,91.5 378.899,104.399 390,125.773 390,144  Z"/>

<path  fill="#1F9B5A" stroke-width="0" stroke="#1F9B5A" d = " M123 135 L124,135 C124,132.424 138.691,121 141,121 141,118.891 143.535,119 145,119 145,115.518 158.165,111 161,111 161,108.891 163.535,109 165,109 165,109 172,105 172,105 172,98.0396 172,92.5056 172,85 172,85 158.5,91 158.5,91 148.991,95.7545 138.027,98.2367 128.5,103 125.325,104.587 122.71,110 119,110 119,110 119,111 119,111 122.179,111 119.625,115.751 120,116.5 122.905,122.31 123,128.595 123,135  Z"/>

<path  fill="#1F9B5A" stroke-width="0" stroke="#1F9B5A" d = " M337 110 C337,118.193 333,126.283 333,135 333,135 322.5,125 322.5,125 313.904,120.702 293.898,106 285,106 285,106 285,105 285,105 285,98.358 284,90.9976 284,85 284,85 297.5,91 297.5,91 306.964,95.7322 317.97,98.2351 327.5,103 330.577,104.539 333.384,109 337,109 337,109 337,110 337,110  Z"/>

<path  fill="#1A7F63" stroke-width="0" stroke="#1A7F63" d = " M114 90 C114,91.2473 116.467,95 118,95 118,92.8099 118,89.1901 118,87 118,87 114,89 114,89 114,89 114,90 114,90  Z"/>

<path  fill="#1A7F63" stroke-width="0" stroke="#1A7F63" d = " M343 90 L339,94 C339,91.5985 338,89.6898 338,87 338,87 343,89 343,89 343,89 343,90 343,90  Z"/>

<path  fill="#40A664" stroke-width="0" stroke="#40A664" d = " M229 119 C231.813,119 232.461,123 234,123 234,123 234,89 234,89 230.749,89 225.251,89 222,89 222,89 223,121 223,121 223,121 227,119 227,119 227,115.85 229,115.554 229,119  Z"/>

<path  fill="#3FA566" stroke-width="0" stroke="#3FA566" d = " M220 128 L218,129 C218,129 217,90 217,90 217,90 222,89 222,89 222,89 223,121 223,121 223,121 222,123 222,123 222,123 220,128 220,128  Z"/>

<path  fill="#3FA566" stroke-width="0" stroke="#3FA566" d = " M236 127 L238,129 C238,116.674 239,102.972 239,90 239,90 239,89 239,89 239,89 234,89 234,89 234,89 234,123 234,123 234,123 236,127 236,127  Z"/>

<path  fill="#1B7F62" stroke-width="0" stroke="#1B7F62" d = " M78 166 L81,166 C81,150.526 86.5204,134.459 93,121.5 93,121.5 101,111.5 101,111.5 102.556,108.389 114.864,96 118,96 118,96 118,95 118,95 116.467,95 114,91.2473 114,90 108.477,90 104.218,96.6412 99.5,99 90.419,103.54 76,136.459 76,147 76,147 76,148 76,148 76,149.794 78,150.951 78,152.5 78,155.861 78,162.665 78,166  Z"/>

<path  fill="#3EA666" stroke-width="0" stroke="#3EA666" d = " M209 125 C209,127.911 215.752,129 218,129 218,129 217,90 217,90 211.491,90 206.984,97 203,97 203,97 203,98 203,98 203,107.82 209,119.616 209,125  Z"/>

<path  fill="#3EA666" stroke-width="0" stroke="#3EA666" d = " M247 125 C247,127.911 240.248,129 238,129 238,116.674 239,102.972 239,90 244.285,90 248.61,97 253,97 253,103.304 253.623,111.253 251,116.5 251,116.5 247,125 247,125  Z"/>

<path  fill="#1B7F62" stroke-width="0" stroke="#1B7F62" d = " M376 166 L378,166 C379.028,166 379.44,164.379 379,163.5 379,163.5 377,162.5 377,162.5 377,162.5 379,161.5 379,161.5 380.174,159.152 378.17,156.161 379,154.5 379.659,153.181 378.666,149 381,149 381,149 381,147 381,147 381,136.097 364.573,102.037 354.5,97 351.225,95.3625 346.699,90 343,90 343,90 339,94 339,94 339,94 339,95 339,95 339,95 339,96 339,96 343.62,96 348.688,105.594 351.5,107 364.721,113.611 376,151.472 376,166  Z"/>

<path  fill="#187E62" stroke-width="0" stroke="#187E62" d = " M119 95 L118,96 C118,96 118,95 118,95 118,95 119,95 119,95  Z"/>

<path  fill="#187E62" stroke-width="0" stroke="#187E62" d = " M338 96 L339,96 C339,96 339,95 339,95 339,95 338,95 338,95 338,95 338,96 338,96  Z"/>

<path  fill="#1B7E63" stroke-width="0" stroke="#1B7E63" d = " M95 164 C90.1669,164 86.1385,166 81,166 81,150.526 86.5204,134.459 93,121.5 93,121.5 101,111.5 101,111.5 102.556,108.389 114.864,96 118,96 118,99.9482 119,105.393 119,110 119,110 119,111 119,111 114.689,111 108.787,117.926 107,121.5 107,121.5 101,129.5 101,129.5 95.8678,139.764 95,151.565 95,164  Z"/>

<path  fill="#1B7E63" stroke-width="0" stroke="#1B7E63" d = " M362 164 L376,166 C376,151.472 364.721,113.611 351.5,107 348.688,105.594 343.62,96 339,96 339,96 338,96 338,96 338,101.419 337,104.003 337,109 337,109 337,110 337,110 341.159,110 343.047,115.774 345.5,117 357.582,123.041 362,150.771 362,164  Z"/>

<path  fill="#40A564" stroke-width="0" stroke="#40A564" d = " M251 123 L247,125 C247,125 251,116.5 251,116.5 253.623,111.253 253,103.304 253,97 256.741,97 258.783,105 263,105 263,105 263,107 263,107 263,107 262,109 262,109 262,109 252,121 252,121 252,121 251,123 251,123  Z"/>

<path  fill="#40A564" stroke-width="0" stroke="#40A564" d = " M205 123 L209,125 C209,119.616 203,107.82 203,98 203,98 193,106 193,106 193,106 193,107 193,107 193,107 196,109.5 196,109.5 197.44,112.38 204,117.362 204,121 204,121 205,123 205,123  Z"/>

<path  fill="#1E9C58" stroke-width="0" stroke="#1E9C58" d = " M188 102 L179,103 C179,101.326 186.241,101 188,101 188,101 188,102 188,102  Z"/>

<path  fill="#3FA466" stroke-width="0" stroke="#3FA466" d = " M193 106 L193,107 C193,107 191,103.5 191,103.5 191,103.5 188,102 188,102 188,102 188,101 188,101 190.362,101 193,103.638 193,106  Z"/>

<path  fill="#3FA466" stroke-width="0" stroke="#3FA466" d = " M269 102 L265,104 C265,101.902 266.939,101 269,101 269,101 269,102 269,102  Z"/>

<path  fill="#1E9C58" stroke-width="0" stroke="#1E9C58" d = " M285 106 L284,107 C280.91,107 273.935,102 269,102 269,102 269,101 269,101 274.984,101 279.679,105 285,105 285,105 285,106 285,106  Z"/>

<path  fill="#CACCC7" stroke-width="0" stroke="#CACCC7" d = " M204 121 L205,123 C196.497,123 193.916,110.208 187.5,107 181.471,103.985 176.603,110 171,110 171,110 170,111 170,111 170,111 169,111 169,111 169,111 167,112 167,112 167,112 160,113 160,113 160,113 161,111 161,111 161,111 165,109 165,109 168.066,109 169.417,107 172,107 172,107 179,103 179,103 179,103 188,102 188,102 188,102 191,103.5 191,103.5 191,103.5 193,107 193,107 193,109.655 200.631,121 204,121  Z"/>

<path  fill="#CACCC7" stroke-width="0" stroke="#CACCC7" d = " M252 121 L251,123 C260.154,123 261.56,110.47 268.5,107 274.919,103.79 279.286,110 285,110 285,110 286,111 286,111 286,111 288,111 288,111 288,111 297,113 297,113 297,110.967 286.037,107 284,107 280.91,107 273.935,102 269,102 269,102 265,104 265,104 265,105.238 264.577,107 263,107 263,107 262,109 262,109 262,112.191 255.459,121 252,121  Z"/>

<path  fill="#1E9C58" stroke-width="0" stroke="#1E9C58" d = " M172 105 L172,107 C172,107 179,103 179,103 175.934,103 174.583,105 172,105  Z"/>

<path  fill="#3FA466" stroke-width="0" stroke="#3FA466" d = " M263 105 L263,107 C264.577,107 265,105.238 265,104 265,104 263,105 263,105  Z"/>

<path  fill="#1D9D5A" stroke-width="0" stroke="#1D9D5A" d = " M172 107 C169.417,107 168.066,109 165,109 165,109 172,105 172,105 172,105 172,107 172,107  Z"/>

<path  fill="#CCC7C9" stroke-width="0" stroke="#CCC7C9" d = " M341 173 L343,173 C343,173 343,164 343,164 343,164 342,162 342,162 342,162 342,160 342,160 342,160 342,159 342,159 341.214,159 338.699,148.897 338,147.5 335.275,142.05 325.076,129.788 319.5,127 311.997,123.249 304.974,118.737 297.5,115 295.838,114.169 288,113.485 288,111 288,111 286,111 286,111 286,111 285,110 285,110 279.286,110 274.919,103.79 268.5,107 261.56,110.47 260.154,123 251,123 251,123 247,125 247,125 247,127.911 240.248,129 238,129 238,129 236,127 236,127 236,128.743 231.612,132.056 229.5,131 229.5,131 228.5,128 228.5,128 225.452,128 227.937,132.219 223.5,130 223.5,130 221.5,129 221.5,129 221.5,129 220,128 220,128 220,128 218,129 218,129 215.752,129 209,127.911 209,125 209,125 205,123 205,123 196.497,123 193.916,110.208 187.5,107 181.471,103.985 176.603,110 171,110 171,110 170,111 170,111 170,111 169,111 169,111 169,111 167,112 167,112 167,113.55 160.772,114.364 159.5,115 159.5,115 139.5,125 139.5,125 132.436,128.532 122.372,139.756 119,146.5 118.304,147.891 116.609,155 115,155 115,155 115,157 115,157 115,158.145 115.579,161 114,161 114,161 114,173 114,173 114,173 116,173 116,173 116,149.804 126.118,136.691 145.5,127 148.497,125.502 152.431,125.534 155.5,124 161.594,120.953 191,123.71 191,132 196.157,132 211,141.195 211,147 211,147 221,153 221,153 221,153 225,153 225,153 227.45,153 226.698,150 228.5,150 228.5,150 231,153 231,153 231,153 236,153 236,153 236,153 245,147 245,147 245,141.379 260.438,132 265,132 265,124.74 293.203,120.351 300.5,124 300.5,124 315.5,129 315.5,129 332.355,137.428 341,154.12 341,173  Z"/>

<path  fill="#1D9D5A" stroke-width="0" stroke="#1D9D5A" d = " M333 136 L333,137 C333,137 321.5,126 321.5,126 318.285,122.785 301.238,113 297,113 297,110.967 286.037,107 284,107 284,107 285,106 285,106 293.898,106 313.904,120.702 322.5,125 322.5,125 333,135 333,135 333,135 333,136 333,136  Z"/>

<path  fill="#40A465" stroke-width="0" stroke="#40A465" d = " M193 107 L196,109.5 C197.44,112.38 204,117.362 204,121 200.631,121 193,109.655 193,107  Z"/>

<path  fill="#40A465" stroke-width="0" stroke="#40A465" d = " M263 107 L262,109 C262,109 263,107 263,107  Z"/>

<path  fill="#1D9D5A" stroke-width="0" stroke="#1D9D5A" d = " M165 109 C163.535,109 161,108.891 161,111 161,111 165,109 165,109  Z"/>

<path  fill="#40A465" stroke-width="0" stroke="#40A465" d = " M262 109 L252,121 C255.459,121 262,112.191 262,109  Z"/>

<path  fill="#C9C9CA" stroke-width="0" stroke="#C9C9CA" d = " M171 110 L170,111 C170,111 171,110 171,110  Z"/>

<path  fill="#C9C9CA" stroke-width="0" stroke="#C9C9CA" d = " M285 110 L286,111 C286,111 285,110 285,110  Z"/>

<path  fill="#187D61" stroke-width="0" stroke="#187D61" d = " M361 164 L362,164 C362,150.771 357.582,123.041 345.5,117 343.047,115.774 341.159,110 337,110 337,118.193 333,126.283 333,135 333,135 333,136 333,136 338.246,136 344,156.307 344,161 348.566,161 352.254,163 356.5,163 357.69,163 361,162.386 361,164  Z"/>

<path  fill="#187D61" stroke-width="0" stroke="#187D61" d = " M112 161 L113,161 C113,153.888 114.104,149.292 117,143.5 117,143.5 123,135 123,135 123,128.595 122.905,122.31 120,116.5 119.625,115.751 122.179,111 119,111 114.689,111 108.787,117.926 107,121.5 107,121.5 101,129.5 101,129.5 95.8678,139.764 95,151.565 95,164 100.622,164 106.062,161 112,161  Z"/>

<path  fill="#1D9D5A" stroke-width="0" stroke="#1D9D5A" d = " M160 113 C154.166,113 150.622,119 145,119 145,115.518 158.165,111 161,111 161,111 160,113 160,113  Z"/>

<path  fill="#C9C9CA" stroke-width="0" stroke="#C9C9CA" d = " M169 111 L167,112 C167,112 169,111 169,111  Z"/>

<path  fill="#C9C9CA" stroke-width="0" stroke="#C9C9CA" d = " M333 137 C333,141.979 342,150.01 342,159 341.214,159 338.699,148.897 338,147.5 335.275,142.05 325.076,129.788 319.5,127 311.997,123.249 304.974,118.737 297.5,115 295.838,114.169 288,113.485 288,111 288,111 297,113 297,113 301.238,113 318.285,122.785 321.5,126 321.5,126 333,137 333,137  Z"/>

<path  fill="#C9C9CA" stroke-width="0" stroke="#C9C9CA" d = " M124 137 C121.773,137 115,152.01 115,155 116.609,155 118.304,147.891 119,146.5 122.372,139.756 132.436,128.532 139.5,125 139.5,125 159.5,115 159.5,115 160.772,114.364 167,113.55 167,112 167,112 160,113 160,113 154.166,113 150.622,119 145,119 145,121.109 142.465,121 141,121 141,123.303 129.159,132.171 127.5,133 127.5,133 124,137 124,137  Z"/>

<path  fill="#1D9D5A" stroke-width="0" stroke="#1D9D5A" d = " M145 119 C143.535,119 141,118.891 141,121 142.465,121 145,121.109 145,119  Z"/>

<path  fill="#7ED04B" stroke-width="0" stroke="#7ED04B" d = " M236 127 C236,128.743 231.612,132.056 229.5,131 L228.5,128 C225.452,128 227.937,132.219 223.5,130 L221.5,129 L220,128 C220,128 222,123 222,123 222,123 223,121 223,121 223,121 227,119 227,119 227.839,119 229,120.93 229,119 231.813,119 232.461,123 234,123 234,123 236,127 236,127  Z"/>

<path  fill="#1D9D5A" stroke-width="0" stroke="#1D9D5A" d = " M124 135 L124,137 C124,137 127.5,133 127.5,133 129.159,132.171 141,123.303 141,121 138.691,121 124,132.424 124,135  Z"/>

<path  fill="#40A664" stroke-width="0" stroke="#40A664" d = " M223 121 L222,123 C222,123 223,121 223,121  Z"/>

<path  fill="#98D5F9" stroke-width="0" stroke="#98D5F9" d = " M137 232 L141,234 C147.604,234 153.291,236.104 159.5,233 164.322,230.589 164.978,221.544 167,217.5 172.953,205.593 177.498,204.501 188.5,199 188.5,199 191,197 191,197 191,197 192,196 192,196 192,192.891 194,188.186 194,185 194,185 194,181 194,181 194,181 195,179 195,179 195,179 195,177 195,177 195,177 195,174 195,174 195,172.952 194.527,171 196,171 196,171 196,170 196,170 196,168.952 195.527,167 197,167 197,167 197,143.5 197,143.5 195.93,141.36 195,139.613 195,137 195,137 191,132 191,132 191,123.71 161.594,120.953 155.5,124 152.431,125.534 148.497,125.502 145.5,127 126.118,136.691 116,149.804 116,173 116,184.185 123,193.491 123,205 123,205 125,214 125,214 125,214 125,215 125,215 125,215 127,218 127,218 127,218 127,219 127,219 127,219 128,220 128,220 128,220 130,224 130,224 130,224 131,225 131,225 131,225 137,232 137,232  Z"/>

<path  fill="#98D5F9" stroke-width="0" stroke="#98D5F9" d = " M319 232 L315,234 C308.737,234 303.471,235.986 297.5,233 291.423,229.961 291.421,221.342 289,216.5 283.92,206.34 277.052,203.776 267.5,199 267.5,199 265,197 265,197 265,197 264,196 264,196 264,194.512 263.076,185 262,185 262,185 262,178 262,178 262,176.952 262.473,175 261,175 261,175 261,172 261,172 261,165.295 255.303,151.895 259,144.5 259,144.5 262,137 262,137 262,137 265,132 265,132 265,124.74 293.203,120.351 300.5,124 300.5,124 315.5,129 315.5,129 332.355,137.428 341,154.12 341,173 341,183.734 333,193.842 333,205 333,205 333,209 333,209 331.647,209 331,213.643 331,215 331,215 331,216 331,216 331,216 330,217 330,217 330,217 330,218 330,218 330,218 329,219 329,219 329,219 329,220 329,220 329,220 328,221 328,221 328,221 327,222 327,222 327,222 327,223 327,223 327,223 326,224 326,224 326,224 325,225 325,225 325,225 325,226 325,226 325,226 320,231 320,231 320,231 319,232 319,232  Z"/>

<path  fill="#AAA8A9" stroke-width="0" stroke="#AAA8A9" d = " M211 147 L210,148 C210,144.04 201.578,138.539 198.5,137 197.722,136.611 195,135.039 195,137 195,137 191,132 191,132 196.157,132 211,141.195 211,147  Z"/>

<path  fill="#AAA8A9" stroke-width="0" stroke="#AAA8A9" d = " M245 147 L247,149 C247,141.845 256.705,137 262,137 262,137 265,132 265,132 260.438,132 245,141.379 245,147  Z"/>

<path  fill="#188064" stroke-width="0" stroke="#188064" d = " M113 161 L114,161 C114,159.855 113.421,157 115,157 115,157 115,155 115,155 115,152.01 121.773,137 124,137 124,137 124,135 124,135 124,135 123,135 123,135 123,135 117,143.5 117,143.5 114.104,149.292 113,153.888 113,161  Z"/>

<path  fill="#A8AAAA" stroke-width="0" stroke="#A8AAAA" d = " M197 167 L198,167 C198,167 199,165 199,165 199,158.678 210,153.995 210,148 210,144.04 201.578,138.539 198.5,137 197.722,136.611 195,135.039 195,137 195,139.613 195.93,141.36 197,143.5 197,143.5 197,167 197,167  Z"/>

<path  fill="#A8AAAA" stroke-width="0" stroke="#A8AAAA" d = " M259 167 C259,168.041 259.986,172 261,172 261,165.295 255.303,151.895 259,144.5 259,144.5 262,137 262,137 256.705,137 247,141.845 247,149 247,149 254,159 254,159 254,159 255,160 255,160 255,160 257,164 257,164 257,164 258,165 258,165 258,165 259,167 259,167  Z"/>

<path  fill="#188064" stroke-width="0" stroke="#188064" d = " M342 160 L344,161 C344,156.307 338.246,136 333,136 333,136 333,137 333,137 333,141.979 342,150.01 342,159 342,159 342,160 342,160  Z"/>

<path  fill="#1A7E62" stroke-width="0" stroke="#1A7E62" d = " M66 170 L62,172 C59.9362,172 61.5736,168.647 61,167.5 56.9089,159.318 61,151.258 61,143 61,143 66,144 66,144 66,151.928 66,162.046 66,170  Z"/>

<path  fill="#1A7E62" stroke-width="0" stroke="#1A7E62" d = " M390 170 L395,172 C395,165.588 397,158.806 397,151.5 397,151.5 395,143 395,143 395,143 391,144 391,144 391,152.557 390,162.122 390,170  Z"/>

<path  fill="#1B8063" stroke-width="0" stroke="#1B8063" d = " M75 167 L66,170 C66,162.046 66,151.928 66,144 69.4139,144 72.353,147 76,147 76,147 76,148 76,148 74.3855,148 75,151.31 75,152.5 75,152.5 75,167 75,167  Z"/>

<path  fill="#1B8063" stroke-width="0" stroke="#1B8063" d = " M382 167 L390,170 C390,162.122 391,152.557 391,144 391,144 390,144 390,144 390,144 381,147 381,147 381,147 381,149 381,149 381,149 382,167 382,167  Z"/>

<path  fill="#97D6F9" stroke-width="0" stroke="#97D6F9" d = " M221 162 C217.524,162 210.346,159.077 206.5,161 L199,165 C199,158.678 210,153.995 210,148 210,148 211,147 211,147 211,147 221,153 221,153 221,154.764 218.407,155.313 219,156.5 219,156.5 221,162 221,162  Z"/>

<path  fill="#97D6F9" stroke-width="0" stroke="#97D6F9" d = " M258 165 L259,167 C257.498,167 251.243,161.871 249.5,161 245.566,159.033 237.002,163 235,163 235,160.971 236.191,161.119 237,159.5 237,159.5 236,153 236,153 236,153 245,147 245,147 245,147 247,149 247,149 247,149 254,159 254,159 254,159 255,160 255,160 255,160 257,164 257,164 257,164 258,165 258,165  Z"/>

<path  fill="#187C63" stroke-width="0" stroke="#187C63" d = " M78 166 C78,167.473 76.0479,167 75,167 75,167 75,152.5 75,152.5 75,151.31 74.3855,148 76,148 76,149.794 78,150.951 78,152.5 78,155.861 78,162.665 78,166  Z"/>

<path  fill="#187C63" stroke-width="0" stroke="#187C63" d = " M378 166 C378,167.579 380.855,167 382,167 382,167 381,149 381,149 378.666,149 379.659,153.181 379,154.5 378.17,156.161 380.174,159.152 379,161.5 379,161.5 377,162.5 377,162.5 377,162.5 379,163.5 379,163.5 379.44,164.379 379.028,166 378,166  Z"/>

<path  fill="#97D6F9" stroke-width="0" stroke="#97D6F9" d = " M231 189 L228.5,185 L225,191 C225,191 226,170.5 226,170.5 225.372,169.244 222,163.982 222,163 222,163 226.5,164 226.5,164 226.5,164 227,154.5 227,154.5 227,154.5 225,153 225,153 227.45,153 226.698,150 228.5,150 228.5,150 231,153 231,153 231,154.333 226.718,165 231.5,165 232.545,165 233.361,163 235,163 235,163 231,167.5 231,167.5 231,167.5 231,189 231,189  Z"/>

<path  fill="#8FCAED" stroke-width="0" stroke="#8FCAED" d = " M221 162 L222,163 C222,163 226.5,164 226.5,164 226.5,164 227,154.5 227,154.5 227,154.5 225,153 225,153 225,153 221,153 221,153 221,154.764 218.407,155.313 219,156.5 219,156.5 221,162 221,162  Z"/>

<path  fill="#8FCAED" stroke-width="0" stroke="#8FCAED" d = " M236 153 L237,159.5 C236.191,161.119 235,160.971 235,163 233.361,163 232.545,165 231.5,165 226.718,165 231,154.333 231,153 231,153 236,153 236,153  Z"/>

<path  fill="#C9C9CA" stroke-width="0" stroke="#C9C9CA" d = " M115 157 C113.421,157 114,159.855 114,161 115.579,161 115,158.145 115,157  Z"/>

<path  fill="#AAA8A9" stroke-width="0" stroke="#AAA8A9" d = " M254 159 L255,160 C255,160 254,159 254,159  Z"/>

<path  fill="#019C74" stroke-width="0" stroke="#019C74" d = " M344 174 L345,174 C345,169.586 344,164.823 344,161 344,161 342,160 342,160 342,160 342,162 342,162 342,162 343,164 343,164 343,164 343,173 343,173 343,173 343,174 343,174 343,174 344,174 344,174  Z"/>

<path  fill="#009B74" stroke-width="0" stroke="#009B74" d = " M112 174 C106.783,174 100.76,180 95,180 95,180 95,164 95,164 100.622,164 106.062,161 112,161 112,161 112,174 112,174  Z"/>

<path  fill="#019C74" stroke-width="0" stroke="#019C74" d = " M114 173 L112,174 C112,174 112,161 112,161 112,161 113,161 113,161 113,161 114,161 114,161 114,161 114,173 114,173  Z"/>

<path  fill="#90CAED" stroke-width="0" stroke="#90CAED" d = " M221 216 L219.5,219 C216.644,220.428 214.947,217 213,217 213,217 213,216 213,216 213,216 211,214 211,214 211,214 210,211 210,211 210,211 209,207 209,207 212.758,207 212.36,198.22 211,195.5 208.206,189.912 201.856,177 195,177 195,177 195,174 195,174 196.473,174 196,172.048 196,171 196,171 197,170 197,170 197,170 197,168 197,168 197,168 198,167 198,167 198,167 199,165 199,165 199,165 206.5,161 206.5,161 210.346,159.077 217.524,162 221,162 221,162 222,163 222,163 222,163.982 225.372,169.244 226,170.5 226,170.5 225,191 225,191 225,200.085 221,207.296 221,216  Z"/>

<path  fill="#90CAED" stroke-width="0" stroke="#90CAED" d = " M244 216 L243,217 C241.209,217 240.041,220.27 237.5,219 237.5,219 235,215 235,215 235,215 232,196 232,196 232,194.952 232.473,193 231,193 231,193 231,189 231,189 231,189 231,167.5 231,167.5 231,167.5 235,163 235,163 237.002,163 245.566,159.033 249.5,161 251.243,161.871 257.498,167 259,167 259,168.041 259.986,172 261,172 261,172 261,175 261,175 261,175 261,177 261,177 254.138,177 247.821,190.859 245,196.5 243.583,199.335 244.603,207 248,207 248,207 248,208 248,208 248,208 247,209 247,209 247,209 244,216 244,216  Z"/>

<path  fill="#009B74" stroke-width="0" stroke="#009B74" d = " M345 174 C345,175.845 348.381,175.441 349.5,176 352.613,177.557 357.404,180 361,180 361,180 361,164 361,164 361,162.386 357.69,163 356.5,163 352.254,163 348.566,161 344,161 344,164.823 345,169.586 345,174  Z"/>

<path  fill="#C9C9CA" stroke-width="0" stroke="#C9C9CA" d = " M342 162 L343,164 C343,164 342,162 342,162  Z"/>

<path  fill="#019C75" stroke-width="0" stroke="#019C75" d = " M95 181 C89.5747,181 86.204,185 81,185 81,178.728 81,172.792 81,166 86.1385,166 90.1669,164 95,164 95,164 95,180 95,180 95,180 95,181 95,181  Z"/>

<path  fill="#AAA8A9" stroke-width="0" stroke="#AAA8A9" d = " M257 164 L258,165 C258,165 257,164 257,164  Z"/>

<path  fill="#019C75" stroke-width="0" stroke="#019C75" d = " M361 180 C365.968,180 370.531,185 376,185 376,185 376,166 376,166 376,166 362,164 362,164 362,164 361,164 361,164 361,164 361,180 361,180  Z"/>

<path  fill="#97D6F9" stroke-width="0" stroke="#97D6F9" d = " M199 165 L198,167 C198,167 199,165 199,165  Z"/>

<path  fill="#009C74" stroke-width="0" stroke="#009C74" d = " M81 185 L78,186 C78,179.69 75,174.012 75,167 76.0479,167 78,167.473 78,166 78,166 81,166 81,166 81,172.792 81,178.728 81,185  Z"/>

<path  fill="#009C74" stroke-width="0" stroke="#009C74" d = " M376 185 L378,186 C378,180.198 382,173.301 382,167 380.855,167 378,167.579 378,166 378,166 376,166 376,166 376,166 376,185 376,185  Z"/>

<path  fill="#009B75" stroke-width="0" stroke="#009B75" d = " M78 186 L71,190 C71,185.443 66,175.932 66,170 66,170 75,167 75,167 75,174.012 78,179.69 78,186  Z"/>

<path  fill="#A8AAAA" stroke-width="0" stroke="#A8AAAA" d = " M196 170 L197,170 C197,170 197,168 197,168 197,168 197,167 197,167 195.527,167 196,168.952 196,170  Z"/>

<path  fill="#97D6F9" stroke-width="0" stroke="#97D6F9" d = " M198 167 L197,168 C197,168 197,167 197,167 197,167 198,167 198,167  Z"/>

<path  fill="#009B75" stroke-width="0" stroke="#009B75" d = " M378 186 L386,190 C386,183.316 390,177.057 390,170 390,170 382,167 382,167 382,173.301 378,180.198 378,186  Z"/>

<path  fill="#009C75" stroke-width="0" stroke="#009C75" d = " M71 190 L67,191 C67,184.512 62,178.808 62,172 62,172 66,170 66,170 66,175.932 71,185.443 71,190  Z"/>

<path  fill="#97D6F9" stroke-width="0" stroke="#97D6F9" d = " M197 170 L196,171 C196,171 196,170 196,170 196,170 197,170 197,170  Z"/>

<path  fill="#009C75" stroke-width="0" stroke="#009C75" d = " M386 191 C387.333,191 387.667,191 389,191 389,191 395,172 395,172 395,172 390,170 390,170 390,177.057 386,183.316 386,190 386,190 386,191 386,191  Z"/>

<path  fill="#A8AAAA" stroke-width="0" stroke="#A8AAAA" d = " M196 171 C194.527,171 195,172.952 195,174 196.473,174 196,172.048 196,171  Z"/>

<path  fill="#1F9766" stroke-width="0" stroke="#1F9766" d = " M115 186 L116,186 C116,186 114,173 114,173 114,173 112,174 112,174 112,176.849 115,183.247 115,185 115,185 115,186 115,186  Z"/>

<path  fill="#C8CBCC" stroke-width="0" stroke="#C8CBCC" d = " M121 205 L123,205 C123,193.491 116,184.185 116,173 116,173 114,173 114,173 114,173 116,186 116,186 116,186 117,189 117,189 117,189 117,191 117,191 117,191 119,195 119,195 119,198.395 121,201.106 121,205  Z"/>

<path  fill="#C8CBCC" stroke-width="0" stroke="#C8CBCC" d = " M333 205 L335,205 C335,205 337,195 337,195 337,195 339,192 339,192 339,192 339,191 339,191 339,189.952 338.527,188 340,188 340,188 341,186 341,186 341,186 341,185 341,185 341,180.922 343,177.378 343,174 343,174 343,173 343,173 343,173 341,173 341,173 341,183.734 333,193.842 333,205  Z"/>

<path  fill="#209666" stroke-width="0" stroke="#209666" d = " M108 199 L102,200 C99.6464,200 95,183.888 95,181 95,181 95,180 95,180 100.76,180 106.783,174 112,174 112,176.849 115,183.247 115,185 103.255,185 108,190.622 108,199  Z"/>

<path  fill="#1F9766" stroke-width="0" stroke="#1F9766" d = " M341 185 L342,185 C342,185 343,184 343,184 343,184 344,174 344,174 344,174 343,174 343,174 343,177.378 341,180.922 341,185  Z"/>

<path  fill="#209666" stroke-width="0" stroke="#209666" d = " M354 201 L355,201 C355,195.607 361,188.322 361,180 357.404,180 352.613,177.557 349.5,176 348.381,175.441 345,175.845 345,174 345,174 344,174 344,174 344,174 343,184 343,184 350.757,184 349,193.477 349,199 350.424,199 354,199.362 354,201  Z"/>

<path  fill="#A8AAAA" stroke-width="0" stroke="#A8AAAA" d = " M261 177 L262,178 C262,176.952 262.473,175 261,175 261,175 261,177 261,177  Z"/>

<path  fill="#8FCBED" stroke-width="0" stroke="#8FCBED" d = " M208 207 L209,207 C212.758,207 212.36,198.22 211,195.5 208.206,189.912 201.856,177 195,177 195,177 195,179 195,179 195,179 194,181 194,181 194,181 194,185 194,185 194.689,185 196,192.178 196,193 196,193 197,195 197,195 201.954,195 204.286,207 208,207  Z"/>

<path  fill="#8FCBED" stroke-width="0" stroke="#8FCBED" d = " M248 207 L249,207 C249,205.317 256.067,196 258,196 258,196 259,195 259,195 259,195 260,195 260,195 260,195 261,193 261,193 261,193 262,185 262,185 262,185 262,178 262,178 262,178 261,177 261,177 254.138,177 247.821,190.859 245,196.5 243.583,199.335 244.603,207 248,207  Z"/>

<path  fill="#A8AAAA" stroke-width="0" stroke="#A8AAAA" d = " M195 179 L194,181 C194,181 195,179 195,179  Z"/>

<path  fill="#209665" stroke-width="0" stroke="#209665" d = " M355 201 C359.902,201 364.595,203 369,203 369,199.28 376,191.216 376,185 370.531,185 365.968,180 361,180 361,188.322 355,195.607 355,201  Z"/>

<path  fill="#209665" stroke-width="0" stroke="#209665" d = " M102 201 C96.5989,201 91.8755,203 87,203 87,198.094 81,192.335 81,185 86.204,185 89.5747,181 95,181 95,183.888 99.6464,200 102,200 102,200 102,201 102,201  Z"/>

<path  fill="#8ADA86" stroke-width="0" stroke="#8ADA86" d = " M118 195 L119,203.5 C115.724,210.051 108,204.09 108,199 108,190.622 103.255,185 115,185 115,185 115,186 115,186 115,186 117,189 117,189 117,189 117,191 117,191 117,191 118,195 118,195  Z"/>

<path  fill="#209666" stroke-width="0" stroke="#209666" d = " M343 184 L342,185 C342,185 343,184 343,184  Z"/>

<path  fill="#8ADA86" stroke-width="0" stroke="#8ADA86" d = " M338 195 C338,198.88 337.058,210.221 345.5,206 L349,199 C349,193.477 350.757,184 343,184 343,184 342,185 342,185 342,185 341,186 341,186 341,186 340,188 340,188 340,189.048 340.473,191 339,191 339,191 339,192 339,192 339,193.048 339.473,195 338,195  Z"/>

<path  fill="#209765" stroke-width="0" stroke="#209765" d = " M76 206 L77,206 C77,204.069 85.302,203 87,203 87,198.094 81,192.335 81,185 81,185 78,186 78,186 78,186 71,190 71,190 71,196.086 76,200.576 76,206  Z"/>

<path  fill="#A8AAAA" stroke-width="0" stroke="#A8AAAA" d = " M194 196 C194,201.582 192,204.885 192,197 192,197 192,196 192,196 192,192.891 194,188.186 194,185 194.689,185 196,192.178 196,193 196,193 195,195 195,195 195,195 194,196 194,196  Z"/>

<path  fill="#96A7D3" stroke-width="0" stroke="#96A7D3" d = " M221 226 C223.46,226 226.69,227 228.5,227 L229.5,225 L236,227 C236,223.469 235,219.107 235,215 235,215 232,196 232,196 230.527,196 231,194.048 231,193 231,193 231,189 231,189 231,189 228.5,185 228.5,185 228.5,185 225,191 225,191 225,200.085 221,207.296 221,216 221,216 221,226 221,226  Z"/>

<path  fill="#A8AAAA" stroke-width="0" stroke="#A8AAAA" d = " M264 196 L265,197 C265,206.078 262,200.237 262,195 262,195 261,193 261,193 261,193 262,185 262,185 263.076,185 264,194.512 264,196  Z"/>

<path  fill="#209666" stroke-width="0" stroke="#209666" d = " M342 185 L341,186 C341,186 341,185 341,185 341,185 342,185 342,185  Z"/>

<path  fill="#209765" stroke-width="0" stroke="#209765" d = " M369 203 C373.829,203 376.639,206 380,206 380,206 384,197.5 384,197.5 384.567,196.366 384.546,191 386,191 386,191 386,190 386,190 386,190 378,186 378,186 378,186 376,185 376,185 376,191.216 369,199.28 369,203  Z"/>

<path  fill="#209666" stroke-width="0" stroke="#209666" d = " M116 186 L117,189 C117,189 115,186 115,186 115,186 116,186 116,186  Z"/>

<path  fill="#209666" stroke-width="0" stroke="#209666" d = " M341 186 L340,188 C340,188 341,186 341,186  Z"/>

<path  fill="#209666" stroke-width="0" stroke="#209666" d = " M340 188 C338.527,188 339,189.952 339,191 340.473,191 340,189.048 340,188  Z"/>

<path  fill="#209764" stroke-width="0" stroke="#209764" d = " M76 206 L74,207 C74,207 72,203.5 72,203.5 72,203.5 67,191 67,191 67,191 71,190 71,190 71,196.086 76,200.576 76,206  Z"/>

<path  fill="#209764" stroke-width="0" stroke="#209764" d = " M380 206 L383,207 C383,201.819 389,196.479 389,191 387.667,191 387.333,191 386,191 384.546,191 384.567,196.366 384,197.5 384,197.5 380,206 380,206  Z"/>

<path  fill="#209666" stroke-width="0" stroke="#209666" d = " M118 195 L119,195 C119,195 117,191 117,191 117,191 118,195 118,195  Z"/>

<path  fill="#209666" stroke-width="0" stroke="#209666" d = " M337 195 L338,195 C339.473,195 339,193.048 339,192 339,192 337,195 337,195  Z"/>

<path  fill="#97D6F9" stroke-width="0" stroke="#97D6F9" d = " M195 195 L197,195 C197,195 196,193 196,193 196,193 195,195 195,195  Z"/>

<path  fill="#97D6F9" stroke-width="0" stroke="#97D6F9" d = " M231 193 C232.473,193 232,194.952 232,196 230.527,196 231,194.048 231,193  Z"/>

<path  fill="#97D6F9" stroke-width="0" stroke="#97D6F9" d = " M260 195 L262,195 C262,195 261,193 261,193 261,193 260,195 260,195  Z"/>

<path  fill="#1F9866" stroke-width="0" stroke="#1F9866" d = " M113 209 L114,209 C114,209 115,208 115,208 115,208 116,207 116,207 116,207 119,207 119,207 119,207 121,205 121,205 121,201.106 119,198.395 119,195 119,195 118,195 118,195 118,195 119,203.5 119,203.5 115.724,210.051 108,204.09 108,199 108,199 102,200 102,200 102,200 102,201 102,201 102,204.223 106,207.355 106,211 106,211 113,209 113,209  Z"/>

<path  fill="#97D6F9" stroke-width="0" stroke="#97D6F9" d = " M195 195 L194,196 C194,196 195,195 195,195  Z"/>

<path  fill-rule="evenodd" fill="#80CDF8" stroke-width="0" stroke="#80CDF8" d = " M181 209 C181,209.555 174.827,215.846 174,217.5 172.361,220.778 177.582,225.459 180.5,224 186.104,221.198 190.964,209 181,209  M209 241 L202.5,249 C196.324,252.088 190.351,261.075 182.5,265 174.418,269.041 142,264.119 142,252 142,246.103 139,241.324 139,235 139,235 141,234 141,234 147.604,234 153.291,236.104 159.5,233 164.322,230.589 164.978,221.544 167,217.5 172.953,205.593 177.498,204.501 188.5,199 188.5,199 191,197 191,197 191,197 192,197 192,197 192,204.885 194,201.582 194,196 194,196 195,195 195,195 195,195 197,195 197,195 201.954,195 204.286,207 208,207 208,207 210,211 210,211 210,211 211,214 211,214 211,214 213,216 213,216 213,216 213,217 213,217 213,217 213,229.5 213,229.5 213,229.5 210,239 210,239 210,239 209,241 209,241  Z"/>

<path  fill="#97D6F9" stroke-width="0" stroke="#97D6F9" d = " M259 195 L258,196 C258,196 259,195 259,195  Z"/>

<path  fill-rule="evenodd" fill="#80CDF8" stroke-width="0" stroke="#80CDF8" d = " M273 209 C273,211.209 270,213.212 270,216.5 270,232.589 290.842,218.671 279.5,213 277.446,211.973 276.437,209 273,209  M247 240 L254,248.5 C260.956,255.456 264.669,260.584 273.5,265 278.739,267.62 303.308,264.096 307.5,262 310.036,260.732 314.29,252 315,252 315,246.144 318,241.343 318,236 318,236 315,234 315,234 308.737,234 303.471,235.986 297.5,233 291.423,229.961 291.421,221.342 289,216.5 283.92,206.34 277.052,203.776 267.5,199 267.5,199 265,197 265,197 265,206.078 262,200.237 262,195 262,195 260,195 260,195 260,195 259,195 259,195 259,195 258,196 258,196 256.067,196 249,205.317 249,207 249,207 248,208 248,208 248,208 247,209 247,209 247,209 244,216 244,216 244,216 243,217 243,217 243,222.924 242.514,231.528 245,236.5 245,236.5 247,240 247,240  Z"/>

<path  fill="#1F9866" stroke-width="0" stroke="#1F9866" d = " M341 208 L350,211 C350,211 354,201 354,201 354,199.362 350.424,199 349,199 349,199 345.5,206 345.5,206 337.058,210.221 338,198.88 338,195 338,195 337,195 337,195 337,195 335,205 335,205 336.238,205 338,205.423 338,207 338,207 340,207 340,207 340,207 341,208 341,208  Z"/>

<path  fill="#97D6F9" stroke-width="0" stroke="#97D6F9" d = " M191 197 L192,197 C192,197 192,196 192,196 192,196 191,197 191,197  Z"/>

<path  fill="#97D6F9" stroke-width="0" stroke="#97D6F9" d = " M264 196 L265,197 C265,197 264,196 264,196  Z"/>

<path  fill="#1F9865" stroke-width="0" stroke="#1F9865" d = " M102 213 L95,214 C95,208.418 87,206.743 87,203 91.8755,203 96.5989,201 102,201 102,204.223 106,207.355 106,211 106,211 102,213 102,213  Z"/>

<path  fill="#1F9865" stroke-width="0" stroke="#1F9865" d = " M355 213 L361,214 C361,209.28 369,206.899 369,203 364.595,203 359.902,201 355,201 355,201 354,201 354,201 354,201 350,211 350,211 351.041,211 355,211.986 355,213  Z"/>

<path  fill="#219764" stroke-width="0" stroke="#219764" d = " M95 214 L82,217 C82,217 77,206 77,206 77,204.069 85.302,203 87,203 87,206.743 95,208.418 95,214  Z"/>

<path  fill="#219764" stroke-width="0" stroke="#219764" d = " M361 214 L374,217 C374,212.935 380,209.79 380,206 376.639,206 373.829,203 369,203 369,206.899 361,209.28 361,214  Z"/>

<path  fill="#8AD987" stroke-width="0" stroke="#8AD987" d = " M119 207 C123.487,207 122.461,214 125,214 125,214 123,205 123,205 123,205 121,205 121,205 121,205 119,207 119,207  Z"/>

<path  fill="#8AD987" stroke-width="0" stroke="#8AD987" d = " M338 207 C335.75,207 334.624,209 333,209 333,209 333,205 333,205 333,205 335,205 335,205 336.238,205 338,205.423 338,207  Z"/>

<path  fill="#209864" stroke-width="0" stroke="#209864" d = " M82 217 L79,218 C79,218 74,207 74,207 74,207 76,206 76,206 76,206 77,206 77,206 77,206 82,217 82,217  Z"/>

<path  fill="#209864" stroke-width="0" stroke="#209864" d = " M374 217 L377,218 C377,218 383,207 383,207 383,207 380,206 380,206 380,209.79 374,212.935 374,217  Z"/>

<path  fill="#8AD987" stroke-width="0" stroke="#8AD987" d = " M116 207 L115,208 C115,208 116,207 116,207  Z"/>

<path  fill="#A0EE9C" stroke-width="0" stroke="#A0EE9C" d = " M121 229 L123,229 C126.727,229 131,231.482 131,225 131,225 130,224 130,224 130,224 128,220 128,220 128,220 127,219 127,219 127,219 127,218 127,218 125.423,218 125,216.238 125,215 125,215 125,214 125,214 122.461,214 123.487,207 119,207 119,207 116,207 116,207 116,207 115,208 115,208 115,208 114,209 114,209 114,209 113,209 113,209 113,211.991 107.827,215.155 110,219.5 110,219.5 114,225 114,225 114,225 115,225 115,225 115,225 117,227 117,227 117,227 118,227 118,227 119.238,227 121,227.423 121,229  Z"/>

<path  fill="#97D6F9" stroke-width="0" stroke="#97D6F9" d = " M209 207 L210,211 C210,211 208,207 208,207 208,207 209,207 209,207  Z"/>

<path  fill="#97D6F9" stroke-width="0" stroke="#97D6F9" d = " M249 207 L248,208 C248,208 248,207 248,207 248,207 249,207 249,207  Z"/>

<path  fill="#A0EE9C" stroke-width="0" stroke="#A0EE9C" d = " M334 229 L335,229 C335,229 337,228 337,228 337,228 338,227 338,227 338,227 339,227 339,227 339,227 340,226 340,226 340,226 342,225 342,225 342,225 343,224 343,224 343,224 344,223 344,223 344,223 345,222 345,222 345,222 346,221 346,221 346,217.682 347.714,215.927 346,212.5 346,212.5 341,208 341,208 341,208 340,207 340,207 340,207 338,207 338,207 335.75,207 334.624,209 333,209 333,210.623 332.995,215 331,215 331,215 331,216 331,216 331,216 330,217 330,217 330,217 330,218 330,218 330,218 329,219 329,219 329,219 329,220 329,220 329,220 328,221 328,221 328,221 327,222 327,222 327,222 327,223 327,223 327,223 326,224 326,224 326,224 326,225 326,225 326,225 326,226 326,226 326,232.241 330.479,229 334,229  Z"/>

<path  fill="#8AD987" stroke-width="0" stroke="#8AD987" d = " M340 207 L341,208 C341,208 340,207 340,207  Z"/>

<path  fill="#99D2BD" stroke-width="0" stroke="#99D2BD" d = " M115 208 L114,209 C114,209 115,208 115,208  Z"/>

<path  fill="#97D6F9" stroke-width="0" stroke="#97D6F9" d = " M248 208 L247,209 C247,209 248,208 248,208  Z"/>

<path  fill="#99D2BD" stroke-width="0" stroke="#99D2BD" d = " M355 213 C350.676,213 349.424,221 346,221 346,217.682 347.714,215.927 346,212.5 346,212.5 341,208 341,208 341,208 350,211 350,211 351.041,211 355,211.986 355,213  Z"/>

<path  fill="#99D2BD" stroke-width="0" stroke="#99D2BD" d = " M102 213 C107.886,213 108.469,225 114,225 114,225 110,219.5 110,219.5 107.827,215.155 113,211.991 113,209 113,209 106,211 106,211 106,211 102,213 102,213  Z"/>

<path  fill="#CBCBC7" stroke-width="0" stroke="#CBCBC7" d = " M181 209 C181,209.555 174.827,215.846 174,217.5 172.361,220.778 177.582,225.459 180.5,224 186.104,221.198 190.964,209 181,209  Z"/>

<path  fill="#CBCBC7" stroke-width="0" stroke="#CBCBC7" d = " M273 209 C273,211.209 270,213.212 270,216.5 270,232.589 290.842,218.671 279.5,213 277.446,211.973 276.437,209 273,209  Z"/>

<path  fill="#8AD987" stroke-width="0" stroke="#8AD987" d = " M333 209 C331.647,209 331,213.643 331,215 332.995,215 333,210.623 333,209  Z"/>

<path  fill="#6ACAB9" stroke-width="0" stroke="#6ACAB9" d = " M123 260 L125,260 C125,260 133,256 133,256 133,256 134,255 134,255 134,248.534 139.828,249.155 135,239.5 135,239.5 123,229 123,229 123,229 121,229 121,229 121,229 118,227 118,227 118,227 117,227 117,227 117,227 115,225 115,225 115,225 114,225 114,225 108.469,225 107.886,213 102,213 102,213 95,214 95,214 95,214 82,217 82,217 82,217 79,218 79,218 79,223.139 96.1791,249 102,249 102,244.384 123,257.098 123,260  Z"/>

<path  fill="#6ACAB9" stroke-width="0" stroke="#6ACAB9" d = " M331 260 L333,260 C333,256.82 354,245.226 354,249 360.455,249 377,223.567 377,218 377,218 374,217 374,217 374,217 361,214 361,214 361,214 355,213 355,213 350.676,213 349.424,221 346,221 346,221 345,222 345,222 345,222 344,223 344,223 344,223 343,224 343,224 343,224 342,225 342,225 342,225 340,226 340,226 340,226 339,227 339,227 339,227 338,227 338,227 338,227 337,228 337,228 337,228 335,229 335,229 335,229 334,229 334,229 334,229.816 322.666,236.168 321,239.5 316.474,248.553 323,249.227 323,256 323,256 331,260 331,260  Z"/>

<path  fill="#97D6F9" stroke-width="0" stroke="#97D6F9" d = " M211 214 L213,216 C213,216 211,214 211,214  Z"/>

<path  fill="#8AD987" stroke-width="0" stroke="#8AD987" d = " M125 215 L127,218 C125.423,218 125,216.238 125,215  Z"/>

<path  fill="#97D6F9" stroke-width="0" stroke="#97D6F9" d = " M245 256 L249,256 C249,256 247,240 247,240 247,240 245,236.5 245,236.5 242.514,231.528 243,222.924 243,217 241.209,217 240.041,220.27 237.5,219 237.5,219 235,215 235,215 235,219.107 236,223.469 236,227 236,232.263 239.342,256 245,256  Z"/>

<path  fill="#97D6F9" stroke-width="0" stroke="#97D6F9" d = " M207 256 L211,256 C217.097,256 221,231.155 221,226 221,226 221,216 221,216 221,216 219.5,219 219.5,219 216.644,220.428 214.947,217 213,217 213,217 213,229.5 213,229.5 213,229.5 210,239 210,239 210,239 209,241 209,241 209,246.528 207,250.922 207,256  Z"/>

<path  fill="#97D6F9" stroke-width="0" stroke="#97D6F9" d = " M244 216 L243,217 C243,217 244,216 244,216  Z"/>

<path  fill="#8AD987" stroke-width="0" stroke="#8AD987" d = " M331 216 L330,217 C330,217 331,216 331,216  Z"/>

<path  fill="#8AD987" stroke-width="0" stroke="#8AD987" d = " M330 218 L329,219 C329,219 330,218 330,218  Z"/>

<path  fill="#8AD987" stroke-width="0" stroke="#8AD987" d = " M127 219 L128,220 C128,220 127,219 127,219  Z"/>

<path  fill="#8AD987" stroke-width="0" stroke="#8AD987" d = " M329 220 L328,221 C328,221 329,220 329,220  Z"/>

<path  fill="#8AD987" stroke-width="0" stroke="#8AD987" d = " M328 221 L327,222 C327,222 328,221 328,221  Z"/>

<path  fill="#99D2BD" stroke-width="0" stroke="#99D2BD" d = " M346 221 L345,222 C345,222 346,221 346,221  Z"/>

<path  fill="#8AD987" stroke-width="0" stroke="#8AD987" d = " M327 223 L326,224 C326,224 327,223 327,223  Z"/>

<path  fill="#99D2BD" stroke-width="0" stroke="#99D2BD" d = " M344 223 L343,224 C343,224 344,223 344,223  Z"/>

<path  fill="#8AD987" stroke-width="0" stroke="#8AD987" d = " M130 224 L131,225 C131,225 130,224 130,224  Z"/>

<path  fill="#99D2BD" stroke-width="0" stroke="#99D2BD" d = " M325 225 L326,225 C326,225 326,224 326,224 326,224 325,225 325,225  Z"/>

<path  fill="#99D2BD" stroke-width="0" stroke="#99D2BD" d = " M343 224 L342,225 C342,225 343,224 343,224  Z"/>

<path  fill="#99D2BD" stroke-width="0" stroke="#99D2BD" d = " M115 225 L117,227 C117,227 115,225 115,225  Z"/>

<path  fill="#99D2BD" stroke-width="0" stroke="#99D2BD" d = " M142 252 C139.3,252 137.238,255 134,255 134,248.534 139.828,249.155 135,239.5 135,239.5 123,229 123,229 126.727,229 131,231.482 131,225 131,225 137,232 137,232 137,232 139,235 139,235 139,241.324 142,246.103 142,252  Z"/>

<path  fill="#96A6D3" stroke-width="0" stroke="#96A6D3" d = " M223 263 L221,265 C218.173,265 216.837,267.831 214.5,269 210.788,270.856 204.911,266.677 207,262.5 208.169,260.163 211,258.827 211,256 217.097,256 221,231.155 221,226 223.46,226 226.69,227 228.5,227 228.5,227 229.5,225 229.5,225 229.5,225 236,227 236,227 236,232.263 239.342,256 245,256 245,256 249,261.5 249,261.5 250.856,265.212 246.677,271.089 242.5,269 242.5,269 229,259 229,259 229,257.07 227.839,259 227,259 227,259 226,260 226,260 226,260 225,261 225,261 225,261 223,263 223,263  Z"/>

<path  fill="#8AD987" stroke-width="0" stroke="#8AD987" d = " M325 226 L326,226 C326,226 326,225 326,225 326,225 325,225 325,225 325,225 325,226 325,226  Z"/>

<path  fill="#99D2BD" stroke-width="0" stroke="#99D2BD" d = " M322 256 L323,256 C323,249.227 316.474,248.553 321,239.5 322.666,236.168 334,229.816 334,229 330.479,229 326,232.241 326,226 326,226 325,226 325,226 325,226 320,231 320,231 320,231 319,232 319,232 319,232 318,236 318,236 318,241.343 315,246.144 315,252 315,252 322,256 322,256  Z"/>

<path  fill="#99D2BD" stroke-width="0" stroke="#99D2BD" d = " M340 226 L339,227 C339,227 340,226 340,226  Z"/>

<path  fill="#99D2BD" stroke-width="0" stroke="#99D2BD" d = " M118 227 C119.238,227 121,227.423 121,229 121,229 118,227 118,227  Z"/>

<path  fill="#99D2BD" stroke-width="0" stroke="#99D2BD" d = " M338 227 L337,228 C337,228 338,227 338,227  Z"/>

<path  fill="#99D2BD" stroke-width="0" stroke="#99D2BD" d = " M337 228 L335,229 C335,229 337,228 337,228  Z"/>

<path  fill="#97D6F9" stroke-width="0" stroke="#97D6F9" d = " M320 231 L319,232 C319,232 320,231 320,231  Z"/>

<path  fill="#97D6F9" stroke-width="0" stroke="#97D6F9" d = " M141 234 L139,235 C139,235 137,232 137,232 137,232 141,234 141,234  Z"/>

<path  fill="#97D6F9" stroke-width="0" stroke="#97D6F9" d = " M315 234 L318,236 C318,236 319,232 319,232 319,232 315,234 315,234  Z"/>

<path  fill="#A2B1D7" stroke-width="0" stroke="#A2B1D7" d = " M210 239 L209,241 C209,241 210,239 210,239  Z"/>

<path  fill="#A2B1D7" stroke-width="0" stroke="#A2B1D7" d = " M322 256 C318.97,256 319.882,260.309 318.5,261 313.719,263.39 308.594,269.453 301.5,273 295.04,276.23 268.248,272.874 262.5,270 258.155,267.827 254.991,273 252,273 252,266.732 249,261.47 249,256 249,256 247,240 247,240 247,240 254,248.5 254,248.5 260.956,255.456 264.669,260.584 273.5,265 278.739,267.62 303.308,264.096 307.5,262 310.036,260.732 314.29,252 315,252 315,252 322,256 322,256  Z"/>

<path  fill="#A2B1D7" stroke-width="0" stroke="#A2B1D7" d = " M207 256 C207,262.086 204,266.564 204,273 201.009,273 197.845,267.827 193.5,270 187.761,272.87 161.937,276.218 155.5,273 149.603,270.052 145.222,267.722 140,262.5 137.885,260.385 136.933,256 134,256 134,256 134,255 134,255 137.238,255 139.3,252 142,252 142,264.119 174.418,269.041 182.5,265 190.351,261.075 196.324,252.088 202.5,249 202.5,249 209,241 209,241 209,246.528 207,250.922 207,256  Z"/>

<path  fill="#CAC8C7" stroke-width="0" stroke="#CAC8C7" d = " M122 265 L123,265 C123,265 123,262 123,262 123,262 123,260 123,260 123,257.098 102,244.384 102,249 104.158,249 118.187,265 121,265 121,265 122,265 122,265  Z"/>

<path  fill="#CAC8C7" stroke-width="0" stroke="#CAC8C7" d = " M334 265 L335,265 C337.354,265 347.331,256.169 350,253.5 350,253.5 354,249 354,249 354,245.226 333,256.82 333,260 333,260 333,261 333,261 333,261 333,264 333,264 333,264 334,265 334,265  Z"/>

<path  fill="#99D2BD" stroke-width="0" stroke="#99D2BD" d = " M133 256 L134,256 C134,256 134,255 134,255 134,255 133,256 133,256  Z"/>

<path  fill="#7FCCF7" stroke-width="0" stroke="#7FCCF7" d = " M204 273 C205.579,273 205,275.855 205,277 205,287.813 197.149,289.176 189.5,293 189.5,293 182.5,293 182.5,293 178.446,295.027 172.457,293.021 168.5,295 154.908,301.796 137.663,292.825 132,281.5 129.938,277.376 124,273.848 124,269 124,269 123,268 123,268 123,268 123,267 123,267 123,267 123,265 123,265 123,265 123,262 123,262 123,262 125,260 125,260 125,260 133,256 133,256 133,256 134,256 134,256 136.933,256 137.885,260.385 140,262.5 145.222,267.722 149.603,270.052 155.5,273 161.937,276.218 187.761,272.87 193.5,270 197.845,267.827 201.009,273 204,273  Z"/>

<path  fill="#8599CC" stroke-width="0" stroke="#8599CC" d = " M204 273 C205.579,273 205,275.855 205,277 207.735,277 221,268.504 221,265 218.173,265 216.837,267.831 214.5,269 210.788,270.856 204.911,266.677 207,262.5 208.169,260.163 211,258.827 211,256 211,256 207,256 207,256 207,262.086 204,266.564 204,273  Z"/>

<path  fill="#8599CC" stroke-width="0" stroke="#8599CC" d = " M252 273 L251,277 C248.843,277 229,261.571 229,259 229,259 242.5,269 242.5,269 246.677,271.089 250.856,265.212 249,261.5 249,261.5 245,256 245,256 245,256 249,256 249,256 249,261.47 252,266.732 252,273  Z"/>

<path  fill="#7FCCF7" stroke-width="0" stroke="#7FCCF7" d = " M252 273 L251,277 C251,288.077 259.813,289.156 267.5,293 267.5,293 274.5,293 274.5,293 278.29,294.895 283.818,293.159 287.5,295 303.512,303.006 320.447,290.606 327,277.5 328.527,274.445 333,271.558 333,268 333,268 333,264 333,264 333,264 333,261 333,261 333,261 331,260 331,260 331,260 323,256 323,256 323,256 322,256 322,256 318.97,256 319.882,260.309 318.5,261 313.719,263.39 308.594,269.453 301.5,273 295.04,276.23 268.248,272.874 262.5,270 258.155,267.827 254.991,273 252,273  Z"/>

<path  fill="#8599CC" stroke-width="0" stroke="#8599CC" d = " M227 259 L226,260 C226,260 227,259 227,259  Z"/>

<path  fill="#99D2BD" stroke-width="0" stroke="#99D2BD" d = " M125 260 L123,262 C123,262 123,260 123,260 123,260 125,260 125,260  Z"/>

<path  fill="#8599CC" stroke-width="0" stroke="#8599CC" d = " M226 260 L225,261 C225,261 226,260 226,260  Z"/>

<path  fill="#99D2BD" stroke-width="0" stroke="#99D2BD" d = " M333 260 L333,261 C333,261 331,260 331,260 331,260 333,260 333,260  Z"/>

<path  fill="#8599CC" stroke-width="0" stroke="#8599CC" d = " M225 261 L223,263 C224.747,263 225,262.747 225,261  Z"/>

<path  fill="#8599CC" stroke-width="0" stroke="#8599CC" d = " M223 263 L221,265 C222.747,265 223,264.747 223,263  Z"/>

<path  fill="#97D6F9" stroke-width="0" stroke="#97D6F9" d = " M334 266 L333,268 C333,268 333,264 333,264 333,264 334,265 334,265 334,265 334,266 334,266  Z"/>

<path  fill="#99D2BD" stroke-width="0" stroke="#99D2BD" d = " M122 265 L122,266 C122,266 121,265 121,265 121,265 122,265 122,265  Z"/>

<path  fill="#97D6F9" stroke-width="0" stroke="#97D6F9" d = " M122 266 L123,267 C123,267 123,265 123,265 123,265 122,265 122,265 122,265 122,266 122,266  Z"/>

<path  fill="#99D2BD" stroke-width="0" stroke="#99D2BD" d = " M335 265 L334,266 C334,266 334,265 334,265 334,265 335,265 335,265  Z"/>

<path  fill="#97D6F9" stroke-width="0" stroke="#97D6F9" d = " M123 268 L124,269 C124,269 123,268 123,268  Z"/>

</g>
</svg>
