<svg xmlns="http://www.w3.org/2000/svg" xmlns:xlink="http://www.w3.org/1999/xlink"  viewBox="0 0 456 320">
<g>
<rect width="456" height="320" fill="#000000"  stroke-width="0" /> 
<path  fill-rule="evenodd" fill="#FCFB90" stroke-width="0" stroke="#FCFB90" d = " M170 92 L169,94.5 C166.189,100.123 174.522,92 170,92  M171 89 C171,92.7458 173.091,89 171,89  M172 87 C172,90.7458 174.091,87 172,87  M173 85 C173,86.93 174.93,85 173,85  M201 51 C201,53.5167 208.269,53.8844 210.5,55 217.347,58.4235 235.612,59.4442 242.5,56 244.106,55.1968 250.455,53 252,53 L256,52.5 C256,50.5448 252.111,51 251,51 245.72,51 242.03,53 237,53 224.238,53 213.124,51 201,51  M279 123 C289.973,123 292.414,110.327 288,101.5 L285,90.5 C284.829,90.1586 281.797,86 283.5,86 285.905,86 287.173,96.8465 288,98.5 292.938,108.377 289.054,136 307,136 307,121.926 304.649,93.7972 299,82.5 295.332,75.1631 285,60.8078 285,53 281.498,53 280.163,45.8317 276.5,44 269.109,40.3043 260.799,38.6497 253.5,35 253.5,35 237,35 237,35 221.593,35 202.378,32.561 189.5,39 189.5,39 178,45.5 178,45.5 175.691,47.8092 174.844,53 171,53 171,60.7371 160.726,76.0478 157,83.5 152.478,92.5448 149,124.419 149,136 156.298,136 162.074,127.352 165,121.5 166.54,118.42 164.405,113.691 166,110.5 167.574,107.353 166.373,102.753 168,99.5 168,99.5 168.5,97 168.5,97 169.444,97 168.407,105.686 168,106.5 164.076,114.349 168.136,123 177,123 177,62.7321 279,61.6501 279,123  Z"/>

<path  fill="#FDFB8F" stroke-width="0" stroke="#FDFB8F" d = " M128 122 C131.583,122 131.963,113.574 133,111.5 137.721,102.058 138.308,90.8836 143,81.5 144.561,78.3775 143.414,73.6718 145,70.5 145.936,68.6279 154.277,57.8886 156.5,59 L149.5,67 C146.284,70.2164 146.921,75.6582 145,79.5 143.45,82.599 144.563,87.3749 143,90.5 138.137,100.226 128.239,136 149,136 149,124.419 152.478,92.5448 157,83.5 160.726,76.0478 171,60.7371 171,53 171,47.4844 158.987,44.7563 154.5,47 147.481,50.5093 121,59.6536 121,70 121,70 125,77.5 125,77.5 125,77.5 125,91.5 125,91.5 125,91.5 125,109.5 125,109.5 126.665,112.829 128,118.121 128,122  Z"/>

<path  fill="#FDFB8F" stroke-width="0" stroke="#FDFB8F" d = " M329 123 C324.868,123 324.194,112.888 323,110.5 318.157,100.814 317.816,89.1312 313,79.5 L312,72.5 C311.178,70.8563 303.184,57.6579 300.5,59 299.44,59.5301 304.672,64.5862 305.5,65 308.298,66.3992 308.821,71.1425 310,73.5 L313,89.5 C318.089,99.6774 328.422,136 307,136 307,121.926 304.649,93.7972 299,82.5 295.332,75.1631 285,60.8078 285,53 285,53 290.5,47 290.5,47 300.139,42.1804 335,60.4468 335,70 335,70 331,78.5 331,78.5 329.416,81.668 330.649,92.7983 332,95.5 334.675,100.851 329,116.501 329,123  Z"/>

<path  fill="#CBC9CC" stroke-width="0" stroke="#CBC9CC" d = " M201 51 C201,53.5167 208.269,53.8844 210.5,55 217.347,58.4235 235.612,59.4442 242.5,56 244.106,55.1968 250.455,53 252,53 L256,52.5 C256,50.5448 252.111,51 251,51 245.72,51 242.03,53 237,53 224.238,53 213.124,51 201,51  Z"/>

<path  fill-rule="evenodd" fill="#CBC9CC" stroke-width="0" stroke="#CBC9CC" d = " M210 144 C210,146.231 207.614,150.728 209,153.5 210.278,156.055 215.577,155 218,155 220.829,155 245.71,155.395 246.5,155 L246.5,144 C244.921,143.21 228.434,147 224,147 219.549,147 214.795,144 210,144  M256 163 C256.986,163 262,165.515 262,163 253.778,163 245.376,150.062 255.5,145 262.672,141.414 264.436,149 270,149 270,143.927 272.298,146 277,146 277,146 277,141.5 277,141.5 278.642,138.216 283.983,141 286,141 293.893,141 304.693,146.596 311.5,150 315.972,152.236 319.317,144.409 324.5,147 328.039,148.769 326,152.694 326,155 335.774,155 335,165.17 335,173 336.221,173 337.825,165.837 339.5,165 345.084,162.208 348.109,161 355,161 357.267,161 372,168.014 372,163 366.644,163 359.166,158.333 354.5,156 354.5,156 349,153 349,153 346.024,153 342.156,147.812 341,145.5 332.934,129.369 355.71,122.92 351,113.5 350.378,112.255 349.314,116.872 349,117.5 348.291,118.919 343.605,126.447 342.5,127 339.441,128.529 329,128.67 329,123 324.868,123 324.194,112.888 323,110.5 318.157,100.814 317.816,89.1312 313,79.5 313,79.5 312,72.5 312,72.5 311.178,70.8563 303.184,57.6579 300.5,59 299.44,59.5301 304.672,64.5862 305.5,65 308.298,66.3992 308.821,71.1425 310,73.5 310,73.5 313,89.5 313,89.5 318.089,99.6774 328.422,136 307,136 289.054,136 292.938,108.377 288,98.5 287.173,96.8465 285.905,86 283.5,86 281.797,86 284.829,90.1586 285,90.5 285,90.5 288,101.5 288,101.5 292.414,110.327 289.973,123 279,123 271.459,123 270.895,127.803 264.5,131 255.407,135.547 239.436,131.032 233.5,134 231.663,134.918 225.808,136.154 223.5,135 217.1,131.8 206.787,137.143 200.5,134 193.975,130.737 183.557,123 177,123 168.136,123 164.076,114.349 168,106.5 168.407,105.686 169.444,97 168.5,97 168.5,97 168,99.5 168,99.5 166.373,102.753 167.574,107.353 166,110.5 164.405,113.691 166.54,118.42 165,121.5 162.074,127.352 156.298,136 149,136 128.239,136 138.137,100.226 143,90.5 144.563,87.3749 143.45,82.599 145,79.5 146.921,75.6582 146.284,70.2164 149.5,67 149.5,67 156.5,59 156.5,59 154.277,57.8886 145.936,68.6279 145,70.5 143.414,73.6718 144.561,78.3775 143,81.5 138.308,90.8836 137.721,102.058 133,111.5 131.963,113.574 131.583,122 128,122 128,124.072 126.035,124.465 125,125.5 118.521,131.979 111.148,124.796 108,118.5 105.986,114.472 103,107.642 103,103 103,101.627 105.316,94 104.5,94 104.5,94 99,102.5 99,102.5 99,102.5 102,104.5 102,104.5 105.053,110.606 104.93,118.36 108,124.5 108,124.5 118,134.5 118,134.5 120.923,140.347 112.917,153 107,153 107,154.149 90.8627,160.819 88.5,162 86.9578,162.771 83,162.342 83,163 85.2028,163 87.569,166.465 90.5,165 93.8257,163.337 98.0924,161 102,161 106.864,161 110.515,161.007 114.5,163 114.5,163 121,171 121,171 121,163.578 122.182,155 131,155 131,152.253 128.183,149.158 132.5,147 137.487,144.506 140.513,152.494 145.5,150 151.117,147.192 180,132.412 180,146 183.976,146 187,144.034 187,149 187,149 193.5,144 193.5,144 196.965,142.267 208.985,148.529 207,152.5 207,152.5 203,155.5 203,155.5 202.042,157.416 204.203,159.648 201.5,161 200.258,161.621 194,162.639 194,164 194,164 208,163 208,163 208,160.539 214.743,163 216,163 220.08,163 224.728,161 228.5,161 231.146,161 235.79,163 238.5,163 240.347,163 248,161.201 248,163 248,163 255,163 255,163 255,163 256,163 256,163  Z"/>

<path  fill-rule="evenodd" fill="#FCFC90" stroke-width="0" stroke="#FCFC90" d = " M105 92 C105,95.7458 107.091,92 105,92  M67 137 C70.2081,137 74.5549,133.027 78.5,135 82.7483,137.124 84.8477,140.195 87,144.5 87.9606,146.421 104.579,153 107,153 112.917,153 120.923,140.347 118,134.5 118,134.5 108,124.5 108,124.5 104.93,118.36 105.053,110.606 102,104.5 102,104.5 99,102.5 99,102.5 99,102.5 104.5,94 104.5,94 105.316,94 103,101.627 103,103 103,107.642 105.986,114.472 108,118.5 111.148,124.796 118.521,131.979 125,125.5 126.035,124.465 128,124.072 128,122 128,118.121 126.665,112.829 125,109.5 125,109.5 125,91.5 125,91.5 125,91.5 125,77.5 125,77.5 125,77.5 121,70 121,70 121,70 112.5,69 112.5,69 112.5,69 103.5,73 103.5,73 97.7966,75.8517 70.0583,107.383 67,113.5 67,113.5 64,122.5 64,122.5 61.3315,127.837 67,132.991 67,137  Z"/>

<path  fill-rule="evenodd" fill="#FCFC90" stroke-width="0" stroke="#FCFC90" d = " M350 92 C350,94.3587 351.987,96.475 353,98.5 354.663,101.826 352.214,107.071 351,109.5 L351.5,113 C353.73,113 352.529,109.442 353,108.5 354.11,106.28 356.189,104.121 357,102.5 357.758,100.983 351.887,92 350,92  M389 137 C385.792,137 381.445,133.027 377.5,135 374.028,136.736 372.58,139.34 371,142.5 368.968,146.565 352.985,153 349,153 346.024,153 342.156,147.812 341,145.5 332.934,129.369 355.71,122.92 351,113.5 350.378,112.255 349.314,116.872 349,117.5 348.291,118.919 343.605,126.447 342.5,127 339.441,128.529 329,128.67 329,123 329,116.501 334.675,100.851 332,95.5 330.649,92.7983 329.416,81.668 331,78.5 331,78.5 335,70 335,70 335,70 343.5,69 343.5,69 353.644,74.0719 366.137,82.7748 371,92.5 371,92.5 387,109.5 387,109.5 391.672,118.844 394.954,124.593 390,134.5 389.541,135.419 390.765,137 389,137  Z"/>

<path  fill="#FFFC8E" stroke-width="0" stroke="#FFFC8E" d = " M177 123 C183.557,123 193.975,130.737 200.5,134 206.787,137.143 217.1,131.8 223.5,135 225.808,136.154 231.663,134.918 233.5,134 239.436,131.032 255.407,135.547 264.5,131 270.895,127.803 271.459,123 279,123 279,61.6501 177,62.7321 177,123  Z"/>

<path  fill="#CBC9CC" stroke-width="0" stroke="#CBC9CC" d = " M173 85 C173,86.93 174.93,85 173,85  Z"/>

<path  fill="#CBC9CC" stroke-width="0" stroke="#CBC9CC" d = " M172 87 C172,90.7458 174.091,87 172,87  Z"/>

<path  fill="#CBC9CC" stroke-width="0" stroke="#CBC9CC" d = " M171 89 C171,92.7458 173.091,89 171,89  Z"/>

<path  fill="#CBC9CC" stroke-width="0" stroke="#CBC9CC" d = " M105 92 C105,95.7458 107.091,92 105,92  Z"/>

<path  fill="#CBC9CC" stroke-width="0" stroke="#CBC9CC" d = " M170 92 L169,94.5 C166.189,100.123 174.522,92 170,92  Z"/>

<path  fill="#CBC9CC" stroke-width="0" stroke="#CBC9CC" d = " M350 92 C350,94.3587 351.987,96.475 353,98.5 354.663,101.826 352.214,107.071 351,109.5 L351.5,113 C353.73,113 352.529,109.442 353,108.5 354.11,106.28 356.189,104.121 357,102.5 357.758,100.983 351.887,92 350,92  Z"/>

<path  fill="#FCFA91" stroke-width="0" stroke="#FCFA91" d = " M83 163 L78,167 C78,167 75,163.5 75,163.5 75,163.5 71,159.5 71,159.5 66.8315,151.163 67,146.495 67,137 70.2081,137 74.5549,133.027 78.5,135 82.7483,137.124 84.8477,140.195 87,144.5 87.9606,146.421 104.579,153 107,153 107,154.149 90.8627,160.819 88.5,162 86.9578,162.771 83,162.342 83,163  Z"/>

<path  fill="#FCFA91" stroke-width="0" stroke="#FCFA91" d = " M373 163 L379,167 C379,167 387,156.5 387,156.5 390.505,149.489 389,144.622 389,137 385.792,137 381.445,133.027 377.5,135 374.028,136.736 372.58,139.34 371,142.5 368.968,146.565 352.985,153 349,153 349,153 354.5,156 354.5,156 359.166,158.333 366.644,163 372,163 372,161.814 373,161.814 373,163  Z"/>

<path  fill="#FFFDBC" stroke-width="0" stroke="#FFFDBC" d = " M131 155 C135.574,155 137.483,163 140,163 143.726,163 147.106,169.697 152.5,167 155.827,165.336 156.937,160.281 159.5,159 164.769,156.365 170.333,154.584 175.5,152 175.5,152 180,146 180,146 180,132.412 151.117,147.192 145.5,150 140.513,152.494 137.487,144.506 132.5,147 128.183,149.158 131,152.253 131,155  Z"/>

<path  fill="#FFFDBC" stroke-width="0" stroke="#FFFDBC" d = " M326 155 C321.219,155 319.507,163 316,163 313.497,163 309.534,169.517 304.5,167 300.592,165.046 299.544,160.522 296.5,159 290.839,156.17 285.105,153.802 279.5,151 277.383,149.941 277,148.049 277,146 277,146 277,141.5 277,141.5 278.642,138.216 283.983,141 286,141 293.893,141 304.693,146.596 311.5,150 315.972,152.236 319.317,144.409 324.5,147 328.039,148.769 326,152.694 326,155  Z"/>

<path  fill="#FFFCBC" stroke-width="0" stroke="#FFFCBC" d = " M192 164 L194,164 C194,162.639 200.258,161.621 201.5,161 204.203,159.648 202.042,157.416 203,155.5 203,155.5 207,152.5 207,152.5 208.985,148.529 196.965,142.267 193.5,144 193.5,144 187,149 187,149 187,152.392 181,154.304 181,158 181,159.951 183.454,158.477 184.5,159 184.5,159 191,164 191,164 191,164 192,164 192,164  Z"/>

<path  fill="#CBC8CA" stroke-width="0" stroke="#CBC8CA" d = " M210 144 C210,146.231 207.614,150.728 209,153.5 210.278,156.055 215.577,155 218,155 220.829,155 245.71,155.395 246.5,155 L246.5,144 C244.921,143.21 228.434,147 224,147 219.549,147 214.795,144 210,144  Z"/>

<path  fill="#FFFCBC" stroke-width="0" stroke="#FFFCBC" d = " M264 164 L266,165 C266,161.26 275,159.877 275,158 275,154.574 270,152.165 270,149 264.436,149 262.672,141.414 255.5,145 245.376,150.062 253.778,163 262,163 262,163 264,164 264,164  Z"/>

<path  fill="#F0F080" stroke-width="0" stroke="#F0F080" d = " M138 179 L142,179 C142,179 145,177 145,177 145,177 146,176 146,176 146,176 149,175 149,175 149,175 154,171 154,171 154,171 155,170 155,170 155,170 156,169 156,169 156,169 157,168 157,168 157,168 158,167 158,167 158,167 159,167 159,167 159,167 160,166 160,166 160,164.527 161.952,165 163,165 163,165 164,165 164,165 164,163.514 167,163.514 167,165 167,165 168,165 168,165 168,162.353 165.298,161.904 167,158.5 168.138,156.225 177.229,150.959 179,154.5 179,154.5 178,159 178,159 178,159 181,158 181,158 181,154.304 187,152.392 187,149 187,144.034 183.976,146 180,146 180,146 175.5,152 175.5,152 170.333,154.584 164.769,156.365 159.5,159 156.937,160.281 155.827,165.336 152.5,167 147.106,169.697 143.726,163 140,163 140,167.852 138,173.907 138,179  Z"/>

<path  fill="#F0F080" stroke-width="0" stroke="#F0F080" d = " M318 179 L319,179 C319,174.105 316,168.843 316,163 313.497,163 309.534,169.517 304.5,167 300.592,165.046 299.544,160.522 296.5,159 290.839,156.17 285.105,153.802 279.5,151 277.383,149.941 277,148.049 277,146 272.298,146 270,143.927 270,149 270,152.165 275,154.574 275,158 275,158 278,159 278,159 278,159 277,155.5 277,155.5 280.529,148.443 290,158.854 290,164 290,164 292,165 292,165 292,165 294,165 294,165 294,165 298,167 298,167 298,167 299,167 299,167 299,167 307,175 307,175 307,175 309,175 309,175 309,175 314,179 314,179 314,179 318,179 318,179  Z"/>

<path  fill="#FEB1D8" stroke-width="0" stroke="#FEB1D8" d = " M169 165 L171,165 C171,165 172,164 172,164 174.684,164 176.535,159 178,159 178,159 179,154.5 179,154.5 177.229,150.959 168.138,156.225 167,158.5 165.298,161.904 168,162.353 168,165 168,165 169,165 169,165  Z"/>

<path  fill="#FEB1D8" stroke-width="0" stroke="#FEB1D8" d = " M287 165 L289,165 C289,165 290,164 290,164 290,158.854 280.529,148.443 277,155.5 277,155.5 278,159 278,159 278,159 284,164 284,164 284,164 286,165 286,165 286,165 287,165 287,165  Z"/>

<path  fill="#FFFDBB" stroke-width="0" stroke="#FFFDBB" d = " M129 183 L130,183 C130,183 131,182 131,182 131,182 132,181 132,181 132,181 134,181 134,181 134,181 135,180 135,180 135,180 138,179 138,179 138,173.907 140,167.852 140,163 137.483,163 135.574,155 131,155 122.182,155 121,163.578 121,171 121,171 121,172 121,172 122.473,172 122,173.952 122,175 122,177.124 123,179.436 123,181 123,186.953 125.831,183 129,183  Z"/>

<path  fill="#FFFDBB" stroke-width="0" stroke="#FFFDBB" d = " M326 183 L327,183 C329.483,183 334,186.677 334,181 334,181 335,173 335,173 335,165.17 335.774,155 326,155 321.219,155 319.507,163 316,163 316,168.843 319,174.105 319,179 319,179 320,179 320,179 320,179 321,180 321,180 321,180 322,180 322,180 322,180 323,181 323,181 323,181 324,181 324,181 324,181 326,183 326,183  Z"/>

<path  fill="#FEFDBC" stroke-width="0" stroke="#FEFDBC" d = " M180 173 L183,173 C183,171.423 184.762,171 186,171 186,171 187,170 187,170 187,170 188,169 188,169 188,169 189,169 189,169 189,169 190,168 190,168 190,168 191,167 191,167 191,167 191,165 191,165 191,165 191,164 191,164 191,164 184.5,159 184.5,159 183.454,158.477 181,159.951 181,158 181,158 178,159 178,159 176.535,159 174.684,164 172,164 172,164 172,165 172,165 172,165 173,167 173,167 173,167 174,167 174,167 174,167 180,173 180,173  Z"/>

<path  fill="#FEFDBC" stroke-width="0" stroke="#FEFDBC" d = " M277 173 L278,173 C278,173 279,171 279,171 279,169.253 279.253,169 281,169 281,167.253 281.253,167 283,167 283,167 284,166 284,166 284,166 284,164 284,164 284,164 278,159 278,159 278,159 275,158 275,158 275,159.877 266,161.26 266,165 266,165 267,169 267,169 267,169 268,169 268,169 268,169 269,170 269,170 269,170 270,170 270,170 270,170 271,171 271,171 271,171 272,171 272,171 273.624,171 274.75,173 277,173  Z"/>

<path  fill="#FFFB8E" stroke-width="0" stroke="#FFFB8E" d = " M101 169 C101,170.951 98.5456,169.477 97.5,170 94.8478,171.326 93,175.454 93,178 87.9992,178 78,172.987 78,167 78,167 83,163 83,163 85.2028,163 87.569,166.465 90.5,165 93.8257,163.337 98.0924,161 102,161 102,161 101,169 101,169  Z"/>

<path  fill="#FFF990" stroke-width="0" stroke="#FFF990" d = " M123 181 C119.766,181 122.041,185 119,185 118.708,185 107.229,169 101,169 101,169 102,161 102,161 106.864,161 110.515,161.007 114.5,163 114.5,163 121,171 121,171 121,171 121,172 121,172 121,173.048 120.527,175 122,175 122,177.124 123,179.436 123,181  Z"/>

<path  fill="#FEFA91" stroke-width="0" stroke="#FEFA91" d = " M208 163 C213.022,163 225.212,172.144 229.5,170 234.109,167.696 242.806,163 248,163 248,161.201 240.347,163 238.5,163 235.79,163 231.146,161 228.5,161 224.728,161 220.08,163 216,163 214.743,163 208,160.539 208,163  Z"/>

<path  fill="#FFF990" stroke-width="0" stroke="#FFF990" d = " M334 181 L338,186 C338,180.646 349.216,169 355,169 355,169 355,161 355,161 348.109,161 345.084,162.208 339.5,165 337.825,165.837 336.221,173 335,173 335,173 334,181 334,181  Z"/>

<path  fill="#FFFB8E" stroke-width="0" stroke="#FFFB8E" d = " M355 169 L361.5,172 L364,177 C369.624,177 379,173.918 379,167 379,167 373,163 373,163 373,163 372,163 372,163 372,168.014 357.267,161 355,161 355,161 355,169 355,169  Z"/>

<path  fill="#CBC9CC" stroke-width="0" stroke="#CBC9CC" d = " M372 163 L373,163 C373,161.814 372,161.814 372,163  Z"/>

<path  fill="#AAA9A7" stroke-width="0" stroke="#AAA9A7" d = " M190 169 L200.5,165 C205.298,162.601 224.092,171.296 227.5,173 L229.5,171 C234.632,168.434 241.279,168.61 246.5,166 253.899,162.3 259.591,169 266,169 266,169 264,164 264,164 264,164 262,163 262,163 262,165.515 256.986,163 256,163 256,164.186 255,164.186 255,163 255,163 248,163 248,163 242.806,163 234.109,167.696 229.5,170 225.212,172.144 213.022,163 208,163 208,163 194,164 194,164 194,164 192,164 192,164 192,164 191,165 191,165 191,165 191,167 191,167 191,167 190,168 190,168 190,168 190,169 190,169  Z"/>

<path  fill="#FEFA91" stroke-width="0" stroke="#FEFA91" d = " M255 163 L256,163 C256,164.186 255,164.186 255,163  Z"/>

<path  fill="#FF9BCD" stroke-width="0" stroke="#FF9BCD" d = " M164 165 L167,165 C167,163.514 164,163.514 164,165  Z"/>

<path  fill="#F0F080" stroke-width="0" stroke="#F0F080" d = " M171 165 L172,165 C172,165 172,164 172,164 172,164 171,165 171,165  Z"/>

<path  fill="#F0F080" stroke-width="0" stroke="#F0F080" d = " M192 164 L191,165 C191,165 191,164 191,164 191,164 192,164 192,164  Z"/>

<path  fill="#F0F080" stroke-width="0" stroke="#F0F080" d = " M266 169 L267,169 C267,169 266,165 266,165 266,165 264,164 264,164 264,164 266,169 266,169  Z"/>

<path  fill="#F0F080" stroke-width="0" stroke="#F0F080" d = " M284 166 L285,166 C285,166 286,165 286,165 286,165 284,164 284,164 284,164 284,166 284,166  Z"/>

<path  fill="#FF9BCD" stroke-width="0" stroke="#FF9BCD" d = " M289 165 L292,165 C292,165 290,164 290,164 290,164 289,165 289,165  Z"/>

<path  fill="#FF9BCD" stroke-width="0" stroke="#FF9BCD" d = " M163 165 C161.952,165 160,164.527 160,166 161.048,166 163,166.473 163,165  Z"/>

<path  fill="#FDB3D6" stroke-width="0" stroke="#FDB3D6" d = " M171 182 L167,183 C165.219,183 155,186.003 155,182 155,182 155,181 155,181 155,181 153,176 153,176 153,176 154,171 154,171 154,171 155,170 155,170 155,170 156,169 156,169 156,169 157,168 157,168 157,168 158,167 158,167 158,167 159,167 159,167 159,167 160,166 160,166 161.048,166 163,166.473 163,165 163,165 164,165 164,165 164,165 167,165 167,165 167,165 168,165 168,165 168,165 169,165 169,165 169,165 173,167 173,167 173,167 174,167 174,167 174,167 178,175 178,175 178,175 178,176 178,176 178,176 177,177 177,177 177,177 176,178 176,178 174.748,178 171,181.172 171,182  Z"/>

<path  fill="#FF9BCD" stroke-width="0" stroke="#FF9BCD" d = " M172 165 L173,167 C173,167 169,165 169,165 169,165 171,165 171,165 171,165 172,165 172,165  Z"/>

<path  fill="#A9AAA8" stroke-width="0" stroke="#A9AAA8" d = " M241 187 C239.218,187 233,195.283 233,197 229.47,197 229.335,199.918 225.5,198 221.283,195.891 213.977,181 210,181 210,181 209,181 209,181 209,176.792 199.688,175 196,175 196,175 195,175 195,175 195,171.913 186,176.912 186,171 186,171 187,170 187,170 187,170 188,170 188,170 188,170 189,169 189,169 189,169 190,169 190,169 190,169 200.5,165 200.5,165 205.298,162.601 224.092,171.296 227.5,173 227.5,173 229.5,171 229.5,171 234.632,168.434 241.279,168.61 246.5,166 253.899,162.3 259.591,169 266,169 266,169 267,169 267,169 267,169 268,170 268,170 268,170 269,170 269,170 269,170 270,171 270,171 270,171 271,171 271,171 271,176.542 262,172.142 262,175 262,175 260,175 260,175 258.226,175 253,174.727 253,177 253,177 251,178 251,178 251,178 249,179 249,179 249,179 248,180 248,180 248,180 247,181 247,181 244.527,181 241,184.527 241,187  Z"/>

<path  fill="#FF9BCD" stroke-width="0" stroke="#FF9BCD" d = " M287 165 L285,166 C285,166 286,165 286,165 286,165 287,165 287,165  Z"/>

<path  fill="#FDB3D6" stroke-width="0" stroke="#FDB3D6" d = " M302 182 L298.5,184 L289,183 C289,183 286,182 286,182 286,182 285,181 285,181 285,181 281,178 281,178 281,178 279,177 279,177 279,177 279,176 279,176 279,176 278,173 278,173 278,173 279,171 279,171 279,171 281,169 281,169 281,169 283,167 283,167 283,167 285,166 285,166 285,166 287,165 287,165 287,165 289,165 289,165 289,165 292,165 292,165 292,165 294,165 294,165 294,165 298,167 298,167 298,167 299,167 299,167 299,169.951 303,172.088 303,176 303,176 302,182 302,182  Z"/>

<path  fill="#FF9BCD" stroke-width="0" stroke="#FF9BCD" d = " M294 165 L298,167 C298,167 294,165 294,165  Z"/>

<path  fill="#FF9BCD" stroke-width="0" stroke="#FF9BCD" d = " M160 166 L159,167 C159,167 160,166 160,166  Z"/>

<path  fill="#FF9BCD" stroke-width="0" stroke="#FF9BCD" d = " M285 166 L283,167 C283,167 284,166 284,166 284,166 285,166 285,166  Z"/>

<path  fill="#FF9BCD" stroke-width="0" stroke="#FF9BCD" d = " M158 167 L157,168 C157,168 158,167 158,167  Z"/>

<path  fill="#FF9BCD" stroke-width="0" stroke="#FF9BCD" d = " M180 174 L178,175 C178,175 174,167 174,167 174,167 180,173 180,173 180,173 180,174 180,174  Z"/>

<path  fill="#F0F080" stroke-width="0" stroke="#F0F080" d = " M191 167 L190,168 C190,168 191,167 191,167  Z"/>

<path  fill="#FF9BCD" stroke-width="0" stroke="#FF9BCD" d = " M283 167 C281.253,167 281,167.253 281,169 281,169 283,167 283,167  Z"/>

<path  fill="#FF9BCD" stroke-width="0" stroke="#FF9BCD" d = " M307 175 L303,176 C303,172.088 299,169.951 299,167 299,167 307,175 307,175  Z"/>

<path  fill="#FF9BCD" stroke-width="0" stroke="#FF9BCD" d = " M157 168 L156,169 C156,169 157,168 157,168  Z"/>

<path  fill="#F0F080" stroke-width="0" stroke="#F0F080" d = " M189 169 L190,169 C190,169 190,168 190,168 190,168 189,169 189,169  Z"/>

<path  fill-rule="evenodd" fill="#FFFC8D" stroke-width="0" stroke="#FFFC8D" d = " M98 210 C98,211.814 84.4816,214.009 82.5,215 80.9053,215.797 77.9919,227.746 80.5,229 83.4956,230.498 82.3244,226.588 83.5,226 84.6295,225.435 108.718,210 98,210  M114 221 L110,223 C101.855,223 103.313,231.873 101,236.5 95.8365,246.827 95.5248,258.988 83.5,265 75.4647,269.018 61.0706,261.641 57,253.5 53.0338,245.568 48.4829,208.534 53,199.5 56.2869,192.926 67.6315,180.066 77.5,185 80.6284,186.564 95.5948,195.31 97,192.5 99.1055,188.289 93,182.375 93,178 93,175.454 94.8478,171.326 97.5,170 98.5456,169.477 101,170.951 101,169 107.229,169 118.708,185 119,185 119,189.689 108.193,190.886 112,198.5 114.275,203.049 119,193.903 119,197 117.601,197 117.601,199 119,199 119,199 119,201 119,201 116.844,201 117,208.077 117,210 117,210 116,211 116,211 116,213.409 115,216.181 115,218 115,218 114,221 114,221  Z"/>

<path  fill="#F0F080" stroke-width="0" stroke="#F0F080" d = " M187 170 L188,170 C188,170 188,169 188,169 188,169 187,170 187,170  Z"/>

<path  fill="#AAA9A7" stroke-width="0" stroke="#AAA9A7" d = " M189 169 L188,170 C188,170 188,169 188,169 188,169 189,169 189,169  Z"/>

<path  fill="#AAA9A7" stroke-width="0" stroke="#AAA9A7" d = " M268 169 L268,170 C268,170 267,169 267,169 267,169 268,169 268,169  Z"/>

<path  fill="#F0F080" stroke-width="0" stroke="#F0F080" d = " M268 170 L269,170 C269,170 268,169 268,169 268,169 268,170 268,170  Z"/>

<path  fill="#FF9BCD" stroke-width="0" stroke="#FF9BCD" d = " M281 169 C279.253,169 279,169.253 279,171 279,171 281,169 281,169  Z"/>

<path  fill-rule="evenodd" fill="#FFFC8D" stroke-width="0" stroke="#FFFC8D" d = " M355 210 C355,215.522 366.246,220.873 370.5,223 L375.5,230 L376,227.5 C377.791,223.919 376.673,219.847 375,216.5 373.148,212.796 358.778,210 355,210  M343 221 L346,223 C354.274,223 353.348,232.197 356,237.5 361.224,247.948 361.063,258.781 373.5,265 378.195,267.348 383.634,264.933 387.5,263 403.681,254.91 404,237.319 404,218.5 404,213.049 406.567,206.635 404,201.5 400.345,194.189 389.942,179.279 378.5,185 375.397,186.551 360.566,195.633 359,192.5 357.124,188.748 364,181.36 364,177 364,177 361.5,172 361.5,172 361.5,172 355,169 355,169 349.216,169 338,180.646 338,186 338,189.453 344.228,189.957 345,191.5 345.265,192.03 343.721,200.61 342.5,200 342.5,200 338.5,196 338.5,196 337.391,196 340.618,199 338,199 338,199 341,219 341,219 341,219 342,221 342,221 342,221 343,221 343,221  Z"/>

<path  fill="#FF9BCD" stroke-width="0" stroke="#FF9BCD" d = " M155 170 L154,171 C154,171 155,170 155,170  Z"/>

<path  fill="#F0F080" stroke-width="0" stroke="#F0F080" d = " M187 170 L186,171 C186,171 187,170 187,170  Z"/>

<path  fill="#AAA9A7" stroke-width="0" stroke="#AAA9A7" d = " M270 170 L270,171 C270,171 269,170 269,170 269,170 270,170 270,170  Z"/>

<path  fill="#F0F080" stroke-width="0" stroke="#F0F080" d = " M270 171 L271,171 C271,171 270,170 270,170 270,170 270,171 270,171  Z"/>

<path  fill="#FF9BCD" stroke-width="0" stroke="#FF9BCD" d = " M149 175 L153,176 C153,176 154,171 154,171 154,171 149,175 149,175  Z"/>

<path  fill="#AAA9A7" stroke-width="0" stroke="#AAA9A7" d = " M184 175 L195,175 C195,171.913 186,176.912 186,171 184.762,171 183,171.423 183,173 183,173 183,174 183,174 183,174 184,175 184,175  Z"/>

<path  fill="#AAA9A7" stroke-width="0" stroke="#AAA9A7" d = " M273 174 C273,175.773 263.741,175 262,175 262,172.142 271,176.542 271,171 271,171 272,171 272,171 272,171 273,174 273,174  Z"/>

<path  fill="#F0F080" stroke-width="0" stroke="#F0F080" d = " M273 174 L276,174 C276,174 277,173 277,173 274.75,173 273.624,171 272,171 272,171 273,174 273,174  Z"/>

<path  fill="#FF9BCD" stroke-width="0" stroke="#FF9BCD" d = " M279 171 L278,173 C278,173 279,171 279,171  Z"/>

<path  fill="#F0F080" stroke-width="0" stroke="#F0F080" d = " M121 172 C122.473,172 122,173.952 122,175 120.527,175 121,173.048 121,172  Z"/>

<path  fill="#F0F080" stroke-width="0" stroke="#F0F080" d = " M180 174 L183,174 C183,174 183,173 183,173 183,173 180,173 180,173 180,173 180,174 180,174  Z"/>

<path  fill="#FF9BCD" stroke-width="0" stroke="#FF9BCD" d = " M276 174 L279,176 C279,176 278,173 278,173 278,173 277,173 277,173 277,173 276,174 276,174  Z"/>

<path  fill="#FFB0D7" stroke-width="0" stroke="#FFB0D7" d = " M193 213 L195,213 C199.611,213 204.818,210 206,210 206,210 207,209 207,209 207,207.762 207.423,206 209,206 209,204.274 217.534,192 218,192 218,192 210,181 210,181 210,181 209,181 209,181 209,181 200.5,176 200.5,176 199.353,175.426 196,177.064 196,175 196,175 195,175 195,175 195,175 184,175 184,175 184,175 183,174 183,174 183,174 180,174 180,174 180,174 178,175 178,175 178,175 178,176 178,176 178,176 177,177 177,177 177,177 177,178 177,178 177,178 177,183 177,183 193.132,183 177,204.945 177,210 179.69,210 183.675,211 187,211 187,211 188,212 188,212 188,212 189,212 189,212 189,212 193,213 193,213  Z"/>

<path  fill="#FF9BCD" stroke-width="0" stroke="#FF9BCD" d = " M183 174 L184,175 C184,175 183,174 183,174  Z"/>

<path  fill="#FFB0D7" stroke-width="0" stroke="#FFB0D7" d = " M261 213 L263,213 C263,213 267,212 267,212 270.743,212 276.314,210 280,210 280,207.595 262.905,183 279,183 279,183 279,178 279,178 279,178 279,177 279,177 279,177 279,176 279,176 279,176 276,174 276,174 276,174 273,174 273,174 273,175.773 263.741,175 262,175 262,175 260,175 260,175 260,176.175 254.296,177 253,177 253,177 251,178 251,178 251,178 249,179 249,179 249,179 248,180 248,180 248,180 247,181 247,181 247,181 241,187 241,187 241,187 239,192 239,192 239,196.884 247,200.671 247,206 247,206 249,208 249,208 249,208 249,209 249,209 249.959,209 255.486,213 261,213  Z"/>

<path  fill="#FDB2D7" stroke-width="0" stroke="#FDB2D7" d = " M154 182 C154,183.577 152.238,184 151,184 151,184 145,181 145,181 145,181 145,179 145,179 145,179 145,177 145,177 145,177 146,176 146,176 146,176 149,175 149,175 149,175 153,176 153,176 153,176 155,181 155,181 155,181 154,182 154,182  Z"/>

<path  fill="#AAA9A7" stroke-width="0" stroke="#AAA9A7" d = " M196 175 C199.688,175 209,176.792 209,181 209,181 200.5,176 200.5,176 199.353,175.426 196,177.064 196,175  Z"/>

<path  fill="#AAA9A7" stroke-width="0" stroke="#AAA9A7" d = " M260 175 C258.226,175 253,174.727 253,177 254.296,177 260,176.175 260,175  Z"/>

<path  fill="#FDB2D7" stroke-width="0" stroke="#FDB2D7" d = " M311 182 L305,184 C303.762,184 302,183.577 302,182 302,182 303,176 303,176 303,176 307,175 307,175 307,175 309,175 309,175 309,175 312,179 312,179 312,179 311,182 311,182  Z"/>

<path  fill="#FF9BCD" stroke-width="0" stroke="#FF9BCD" d = " M312 179 L314,179 C314,179 309,175 309,175 309,175 312,179 312,179  Z"/>

<path  fill="#FF9BCD" stroke-width="0" stroke="#FF9BCD" d = " M146 176 L145,177 C145,177 146,176 146,176  Z"/>

<path  fill="#FF9BCD" stroke-width="0" stroke="#FF9BCD" d = " M178 176 L177,177 C177,177 178,176 178,176  Z"/>

<path  fill="#FF9BCD" stroke-width="0" stroke="#FF9BCD" d = " M142 179 L145,179 C145,179 145,177 145,177 145,177 142,179 142,179  Z"/>

<path  fill="#FF9BCD" stroke-width="0" stroke="#FF9BCD" d = " M176 178 L177,178 C177,178 177,177 177,177 177,177 176,178 176,178  Z"/>

<path  fill="#AAA9A7" stroke-width="0" stroke="#AAA9A7" d = " M253 177 L251,178 C251,178 253,177 253,177  Z"/>

<path  fill="#FF9BCD" stroke-width="0" stroke="#FF9BCD" d = " M279 178 L281,178 C281,178 279,177 279,177 279,177 279,178 279,178  Z"/>

<path  fill="#FEB3D7" stroke-width="0" stroke="#FEB3D7" d = " M151 184 L150,188.5 L153,192 C161.829,192 177,194.537 177,183 177,183 177,178 177,178 177,178 176,178 176,178 174.748,178 171,181.172 171,182 178.802,182 167,188.388 167,183 165.219,183 155,186.003 155,182 155,182 154,182 154,182 154,183.577 152.238,184 151,184  Z"/>

<path  fill="#AAA9A7" stroke-width="0" stroke="#AAA9A7" d = " M251 178 L249,179 C249,179 251,178 251,178  Z"/>

<path  fill="#FEB3D7" stroke-width="0" stroke="#FEB3D7" d = " M305 184 C305,185.423 306.978,187.544 306,189.5 L303,192 C294.213,192 279,194.452 279,183 279,183 279,178 279,178 279,178 281,178 281,178 281,178 285,181 285,181 285,181 285,182 285,182 278.688,182 289,188.615 289,183 289,183 298.5,184 298.5,184 298.5,184 302,182 302,182 302,183.577 303.762,184 305,184  Z"/>

<path  fill="#A9AAA7" stroke-width="0" stroke="#A9AAA7" d = " M135 180 L135,181 C136.238,181 138,180.577 138,179 138,179 135,180 135,180  Z"/>

<path  fill="#FEA5D1" stroke-width="0" stroke="#FEA5D1" d = " M122 229 L123,229 C123,225.79 131.695,203 134,203 134,203 137,197 137,197 137,190.487 145,187.67 145,181 145,181 145,179 145,179 145,179 142,179 142,179 142,179 138,179 138,179 138,180.577 136.238,181 135,181 135,182.028 130.334,185 129,185 129,186.634 126.366,189 125,189 125,189 119,201 119,201 119,201 118,219.5 118,219.5 118.868,221.236 122,227.382 122,229  Z"/>

<path  fill="#AAA9A7" stroke-width="0" stroke="#AAA9A7" d = " M249 179 L248,180 C248,180 249,179 249,179  Z"/>

<path  fill="#FEA5D1" stroke-width="0" stroke="#FEA5D1" d = " M333 229 L335,229 C335,229 338,221.5 338,221.5 340.659,216.182 338.489,202.478 336,197.5 333.918,193.337 329.34,185.42 324.5,183 324.5,183 318,179 318,179 318,179 314,179 314,179 314,179 312,179 312,179 312,179 311,182 311,182 311,187.18 322,194.985 322,203 322,203 323,204 323,204 323,204 323,205 323,205 326.963,205 333,225.639 333,229  Z"/>

<path  fill="#A9AAA7" stroke-width="0" stroke="#A9AAA7" d = " M335 229 L336,232 C338.676,232 341,231.575 341,227 341,227 337.5,228 337.5,228 336.267,227.384 339.167,219 341,219 341,219 338,199 338,199 338,199 335,192.5 335,192.5 335,192.5 327,183 327,183 327,183 326,183 326,183 326,183 324,181 324,181 324,181 323,181 323,181 323,181 322,180 322,180 322,180 321,180 321,180 321,180 320,179 320,179 320,179 319,179 319,179 319,179 318,179 318,179 318,179 324.5,183 324.5,183 329.34,185.42 333.918,193.337 336,197.5 338.489,202.478 340.659,216.182 338,221.5 338,221.5 335,229 335,229  Z"/>

<path  fill="#CBC9CC" stroke-width="0" stroke="#CBC9CC" d = " M320 179 L321,180 C321,180 320,179 320,179  Z"/>

<path  fill="#CBC9CC" stroke-width="0" stroke="#CBC9CC" d = " M134 181 L135,181 C135,181 135,180 135,180 135,180 134,181 134,181  Z"/>

<path  fill="#AAA9A7" stroke-width="0" stroke="#AAA9A7" d = " M248 180 L247,181 C247,181 248,180 248,180  Z"/>

<path  fill="#CBC9CC" stroke-width="0" stroke="#CBC9CC" d = " M322 180 L323,181 C323,181 322,180 322,180  Z"/>

<path  fill="#CBC9CC" stroke-width="0" stroke="#CBC9CC" d = " M125 189 C121.338,189 121.508,197 119,197 119,193.903 114.275,203.049 112,198.5 108.193,190.886 119,189.689 119,185 122.041,185 119.766,181 123,181 123,186.953 125.831,183 129,183 129,183 129,185 129,185 126.774,185 125,186.774 125,189  Z"/>

<path  fill="#CBC9CC" stroke-width="0" stroke="#CBC9CC" d = " M132 181 L131,182 C131,182 132,181 132,181  Z"/>

<path  fill="#A9AAA7" stroke-width="0" stroke="#A9AAA7" d = " M129 183 L130,183 C130,183 131,182 131,182 131,182 132,181 132,181 132,181 134,181 134,181 134,181 135,181 135,181 135,182.028 130.334,185 129,185 129,185 129,183 129,183  Z"/>

<path  fill="#FF9BCD" stroke-width="0" stroke="#FF9BCD" d = " M151 194 C151,187.281 142.903,190.597 140,193.5 L137,197 C137,190.487 145,187.67 145,181 145,181 151,184 151,184 151,184 150,188.5 150,188.5 150,188.5 153,192 153,192 153,192 151,194 151,194  Z"/>

<path  fill="#FF9BCD" stroke-width="0" stroke="#FF9BCD" d = " M154 182 L155,182 C155,182 155,181 155,181 155,181 154,182 154,182  Z"/>

<path  fill="#AAA9A7" stroke-width="0" stroke="#AAA9A7" d = " M218 192 C223.865,192 226.054,209.393 231,199.5 L233,197 C229.47,197 229.335,199.918 225.5,198 221.283,195.891 213.977,181 210,181 210,181 218,192 218,192  Z"/>

<path  fill="#AAA9A7" stroke-width="0" stroke="#AAA9A7" d = " M247 181 C244.527,181 241,184.527 241,187 241,187 247,181 247,181  Z"/>

<path  fill="#FF9BCD" stroke-width="0" stroke="#FF9BCD" d = " M285 182 L286,182 C286,182 285,181 285,181 285,181 285,182 285,182  Z"/>

<path  fill="#CBC9CC" stroke-width="0" stroke="#CBC9CC" d = " M324 181 L326,183 C326,183 324,181 324,181  Z"/>

<path  fill="#CBC9CC" stroke-width="0" stroke="#CBC9CC" d = " M338 186 C338,189.453 344.228,189.957 345,191.5 345.265,192.03 343.721,200.61 342.5,200 L338.5,196 C337.391,196 340.618,199 338,199 338,199 335,192.5 335,192.5 335,192.5 327,183 327,183 329.483,183 334,186.677 334,181 334,181 338,186 338,186  Z"/>

<path  fill="#CBC9CC" stroke-width="0" stroke="#CBC9CC" d = " M131 182 L130,183 C130,183 131,182 131,182  Z"/>

<path  fill="#CCCBC8" stroke-width="0" stroke="#CCCBC8" d = " M171 182 C178.802,182 167,188.388 167,183 167,183 171,182 171,182  Z"/>

<path  fill="#CCCBC8" stroke-width="0" stroke="#CCCBC8" d = " M286 182 L289,183 C289,188.615 278.688,182 285,182 285,182 286,182 286,182  Z"/>

<path  fill="#FF9BCD" stroke-width="0" stroke="#FF9BCD" d = " M323 205 L323,211 C321.571,211 319.861,198.222 319,196.5 317.569,193.637 305,185.197 305,193 305,193 303,192 303,192 303,192 306,189.5 306,189.5 306.978,187.544 305,185.423 305,184 305,184 311,182 311,182 311,187.18 322,194.985 322,203 322,203 323,204 323,204 323,204 323,205 323,205  Z"/>

<path  fill="#FEB1D9" stroke-width="0" stroke="#FEB1D9" d = " M177 210 L164,212 C161.653,212 157,211.491 157,209 157,206.725 153.244,205 151,205 151,205 151,197 151,197 151,197 151,194 151,194 151,194 153,192 153,192 161.829,192 177,194.537 177,183 193.132,183 177,204.945 177,210  Z"/>

<path  fill="#FEB1D9" stroke-width="0" stroke="#FEB1D9" d = " M280 210 C284.068,210 288.523,212 293,212 294.416,212 300,210.969 300,209 297.137,209 303.18,205 305,205 305,205 305,196 305,196 305,196 305,193 305,193 305,193 303,192 303,192 294.213,192 279,194.452 279,183 262.905,183 280,207.595 280,210  Z"/>

<path  fill="#A9AAA7" stroke-width="0" stroke="#A9AAA7" d = " M129 185 C126.774,185 125,186.774 125,189 126.366,189 129,186.634 129,185  Z"/>

<path  fill="#AAA9A7" stroke-width="0" stroke="#AAA9A7" d = " M239 192 L233,197 C233,195.283 239.218,187 241,187 241,187 239,192 239,192  Z"/>

<path  fill="#A9AAA7" stroke-width="0" stroke="#A9AAA7" d = " M119 199 L119,201 C119,201 125,189 125,189 121.338,189 121.508,197 119,197 119,197 119,199 119,199  Z"/>

<path  fill="#C9C9C8" stroke-width="0" stroke="#C9C9C8" d = " M140 271 L138,272 C135,272 132.134,267.768 131,265.5 131,265.5 127,260.5 127,260.5 126.21,258.919 125.017,241.466 126,239.5 127.748,236.005 129,233.298 129,229 130.579,229 130,226.145 130,225 130,225 131,224 131,224 131,224 131,220 131,220 131,220 132,219 132,219 132,219 132,217 132,217 132,217 133,216 133,216 133,216 133,213 133,213 134.951,213 133.477,210.546 134,209.5 135.512,206.477 137,200.404 137,197 137,197 140,193.5 140,193.5 142.903,190.597 151,187.281 151,194 151,194 151,197 151,197 148.764,197 148.022,204.239 146.5,205 137.695,209.403 135.141,230.219 131,238.5 129.861,240.779 130.343,253 132,253 132,259.12 140,269.466 140,271  Z"/>

<path  fill="#C9C9C8" stroke-width="0" stroke="#C9C9C8" d = " M318 273 L319,273 C319,273 320,272 320,272 320,272 321,271 321,271 321,271 323,270 323,270 323,270 324,269 324,269 324,267.45 329.882,256.736 331,254.5 335.756,244.988 326,233.453 326,225 326,225 325,219 325,219 325,219 324,217 324,217 324,217 324,216 324,216 322.527,216 323,214.048 323,213 323,213 323,211 323,211 321.571,211 319.861,198.222 319,196.5 317.569,193.637 305,185.197 305,193 305,193 305,196 305,196 306.446,196 308.502,202.505 309,203.5 312.527,210.555 317.527,216.555 321,223.5 323.01,227.519 322.971,232.443 325,236.5 325.781,238.061 326.965,252 325,252 325,252 324,253 324,253 324,260.234 317,266.487 317,271 317,271 318,273 318,273  Z"/>

<path  fill="#FFB3D7" stroke-width="0" stroke="#FFB3D7" d = " M238 208 L241,208 C241,208 242,207 242,207 242,207 247,207 247,207 247,207 247,206 247,206 247,200.671 239,196.884 239,192 239,192 233,197 233,197 233,197 231,199.5 231,199.5 226.054,209.393 223.865,192 218,192 217.534,192 209,204.274 209,206 209,206 209,207 209,207 213.908,207 217.486,207 222,207 222,207 226,207 226,207 226,207 227,207 227,207 227,204.704 231.212,207 234,207 234,207 237,207 237,207 237,207 238,208 238,208  Z"/>

<path  fill="#FF9BCD" stroke-width="0" stroke="#FF9BCD" d = " M313 231 C313,223.909 303,218.788 303,212.5 303,210.874 307.468,210.484 308.5,211 L315,218.5 C319.93,228.361 325,240.23 325,252 326.965,252 325.781,238.061 325,236.5 322.971,232.443 323.01,227.519 321,223.5 317.527,216.555 312.527,210.555 309,203.5 308.502,202.505 306.446,196 305,196 305,196 305,205 305,205 306.735,205 308.465,208.017 306.5,209 303.547,210.476 302.638,209 300,209 300,210.969 294.416,212 293,212 293,212 294,215 294,215 299.224,215 307.114,219.728 309,223.5 309,223.5 313,231 313,231  Z"/>

<path  fill="#CBC9CC" stroke-width="0" stroke="#CBC9CC" d = " M119 197 C117.601,197 117.601,199 119,199 119,199 119,197 119,197  Z"/>

<path  fill="#FF9BCD" stroke-width="0" stroke="#FF9BCD" d = " M134 203 L133,213 C134.951,213 133.477,210.546 134,209.5 135.512,206.477 137,200.404 137,197 137,197 134,203 134,203  Z"/>

<path  fill="#FF9BCD" stroke-width="0" stroke="#FF9BCD" d = " M147 224 C147,220.401 154.852,215.204 153,211.5 150.769,207.037 142.908,215.683 142,217.5 136.459,228.582 132,239.565 132,253 130.343,253 129.861,240.779 131,238.5 135.141,230.219 137.695,209.403 146.5,205 148.022,204.239 148.764,197 151,197 151,197 151,205 151,205 149.575,205 147.831,208.165 149.5,209 152.46,210.48 154.393,209 157,209 157,211.491 161.653,212 164,212 164,212 163,215 163,215 155.693,215 150.13,224 147,224  Z"/>

<path  fill="#A9AAA7" stroke-width="0" stroke="#A9AAA7" d = " M122 229 L120,232 C120,234.708 113,226.561 113,225 113,225 114,223 114,223 114,224.053 117.798,229.904 119,227.5 119.791,225.918 117.029,218 115,218 115,216.181 116,213.409 116,211 116,211 117,210 117,210 117,208.077 116.844,201 119,201 119,201 118,219.5 118,219.5 118.868,221.236 122,227.382 122,229  Z"/>

<path  fill="#FEA4D2" stroke-width="0" stroke="#FEA4D2" d = " M123 229 C123,237.321 127.345,229 129,229 129,227.855 128.421,225 130,225 130,225 131,224 131,224 131,224 131,220 131,220 131,220 132,219 132,219 132,219 132,217 132,217 132,217 133,216 133,216 133,216 133,213 133,213 133,213 134,203 134,203 131.695,203 123,225.79 123,229  Z"/>

<path  fill="#FEA4D2" stroke-width="0" stroke="#FEA4D2" d = " M322 203 L323,204 C323,204 322,203 322,203  Z"/>

<path  fill="#FFB0D9" stroke-width="0" stroke="#FFB0D9" d = " M151 205 C153.244,205 157,206.725 157,209 154.393,209 152.46,210.48 149.5,209 147.831,208.165 149.575,205 151,205  Z"/>

<path  fill="#FF9BCD" stroke-width="0" stroke="#FF9BCD" d = " M227 229 L229,230 C229,230 229.5,208 229.5,208 233.083,206.209 231,219.349 231,222 231,222 234,221 234,221 234,216.595 234,211.902 234,207 231.212,207 227,204.704 227,207 227,207 227,229 227,229  Z"/>

<path  fill="#FFB0D9" stroke-width="0" stroke="#FFB0D9" d = " M305 205 C306.735,205 308.465,208.017 306.5,209 303.547,210.476 302.638,209 300,209 297.137,209 303.18,205 305,205  Z"/>

<path  fill="#FEA4D2" stroke-width="0" stroke="#FEA4D2" d = " M326 225 C326.584,225 333,239.921 333,229 333,225.639 326.963,205 323,205 323,205 323,211 323,211 323,211 323,213 323,213 324.473,213 324,214.952 324,216 324,216 324,217 324,217 324,217 325,219 325,219 325,219 326,225 326,225  Z"/>

<path  fill="#FF9BCD" stroke-width="0" stroke="#FF9BCD" d = " M209 207 L207,209 C207,207.762 207.423,206 209,206 209,206 209,207 209,207  Z"/>

<path  fill="#FF9BCD" stroke-width="0" stroke="#FF9BCD" d = " M247 207 L249,208 C249,208 247,206 247,206 247,206 247,207 247,207  Z"/>

<path  fill="#FCB3D8" stroke-width="0" stroke="#FCB3D8" d = " M207 221 L223,221 C223,216.298 222,211.12 222,207 217.486,207 213.908,207 209,207 209,207 207,209 207,209 207,209 206,210 206,210 206,210 205,215 205,215 205,215 205,220 205,220 205,220 207,221 207,221  Z"/>

<path  fill="#FF9BCD" stroke-width="0" stroke="#FF9BCD" d = " M223 221 L225,221 C225,218.394 223.273,209.954 224,208.5 224,208.5 226,207 226,207 226,207 222,207 222,207 222,211.12 223,216.298 223,221  Z"/>

<path  fill="#CBCBCC" stroke-width="0" stroke="#CBCBCC" d = " M225 221 C225,221.981 226.184,229 227,229 227,229 227,207 227,207 227,207 226,207 226,207 226,207 224,208.5 224,208.5 223.273,209.954 225,218.394 225,221  Z"/>

<path  fill="#FCB3D8" stroke-width="0" stroke="#FCB3D8" d = " M250 221 L251,221 C251,221 252,215 252,215 252,215 249,209 249,209 249,209 249,208 249,208 249,208 247,207 247,207 247,207 242,207 242,207 242,207 241,208 241,208 241,208 238,208 238,208 238,208 237,207 237,207 237,207 234,207 234,207 234,211.902 234,216.595 234,221 234,221 250,221 250,221  Z"/>

<path  fill="#FF9BCD" stroke-width="0" stroke="#FF9BCD" d = " M237 207 L238,208 C238,208 237,207 237,207  Z"/>

<path  fill="#FF9BCD" stroke-width="0" stroke="#FF9BCD" d = " M242 207 L241,208 C241,208 242,207 242,207  Z"/>

<path  fill="#CBCBCC" stroke-width="0" stroke="#CBCBCC" d = " M231 222 C231,223.775 230.931,230 229,230 229,230 229.5,208 229.5,208 233.083,206.209 231,219.349 231,222  Z"/>

<path  fill="#FF9BCD" stroke-width="0" stroke="#FF9BCD" d = " M207 209 L206,210 C206,210 207,209 207,209  Z"/>

<path  fill="#FF9BCD" stroke-width="0" stroke="#FF9BCD" d = " M261 213 C261,213.695 252.892,215 252,215 252,215 249,209 249,209 249.959,209 255.486,213 261,213  Z"/>

<path  fill="#CBC9CC" stroke-width="0" stroke="#CBC9CC" d = " M98 210 C98,211.814 84.4816,214.009 82.5,215 80.9053,215.797 77.9919,227.746 80.5,229 83.4956,230.498 82.3244,226.588 83.5,226 84.6295,225.435 108.718,210 98,210  Z"/>

<path  fill="#F0F080" stroke-width="0" stroke="#F0F080" d = " M117 210 L116,211 C116,211 117,210 117,210  Z"/>

<path  fill="#FDA5D1" stroke-width="0" stroke="#FDA5D1" d = " M169 219 L174,219 C177.884,219 182.405,214 187,214 187,214 189,212 189,212 189,212 188,212 188,212 188,212 187,211 187,211 183.675,211 179.69,210 177,210 177,210 164,212 164,212 164,212 163,215 163,215 163,215 169,219 169,219  Z"/>

<path  fill="#FF9BCD" stroke-width="0" stroke="#FF9BCD" d = " M195 213 C195,213.777 203.94,215 205,215 205,215 206,210 206,210 204.818,210 199.611,213 195,213  Z"/>

<path  fill="#FDA5D1" stroke-width="0" stroke="#FDA5D1" d = " M283 219 L287,219 C289.919,219 291.243,215 294,215 294,215 293,212 293,212 288.523,212 284.068,210 280,210 276.314,210 270.743,212 267,212 267,212 269,214 269,214 273.488,214 276.967,218 281,218 281,218 282,219 282,219 282,219 283,219 283,219  Z"/>

<path  fill="#CBC9CC" stroke-width="0" stroke="#CBC9CC" d = " M355 210 C355,215.522 366.246,220.873 370.5,223 L375.5,230 L376,227.5 C377.791,223.919 376.673,219.847 375,216.5 373.148,212.796 358.778,210 355,210  Z"/>

<path  fill="#C8CACA" stroke-width="0" stroke="#C8CACA" d = " M140 271 C144.076,271 147.661,274 151,274 151,267.734 142,267.086 142,262 142,262 142,261 142,261 142,261 141,260 141,260 141,260 141,258 141,258 137.373,258 138.363,238 141,238 141,238 141,237 141,237 141,237 142,235 142,235 142,235 143,233 143,233 143,233 143,232 143,232 143,230.576 143.362,227 145,227 145,225.762 145.423,224 147,224 147,220.401 154.852,215.204 153,211.5 150.769,207.037 142.908,215.683 142,217.5 136.459,228.582 132,239.565 132,253 132,259.12 140,269.466 140,271  Z"/>

<path  fill="#FF9BCD" stroke-width="0" stroke="#FF9BCD" d = " M187 211 L188,212 C188,212 187,211 187,211  Z"/>

<path  fill="#C8CACA" stroke-width="0" stroke="#C8CACA" d = " M317 271 L306,273 C302.118,273 311,265.49 311,265 312.747,265 313,264.747 313,263 313,263 314,262 314,262 314,262 315,259 315,259 315,259 316,258 316,258 316,258 316,257 316,257 319.675,257 317.775,237 315,237 315,237 315,236 315,236 315,236 313,232 313,232 313,232 313,231 313,231 313,223.909 303,218.788 303,212.5 303,210.874 307.468,210.484 308.5,211 308.5,211 315,218.5 315,218.5 319.93,228.361 325,240.23 325,252 325,252 324,253 324,253 324,260.234 317,266.487 317,271  Z"/>

<path  fill="#FF9BCD" stroke-width="0" stroke="#FF9BCD" d = " M187 214 L189,214 C190.145,214 193,214.579 193,213 193,213 189,212 189,212 189,212 187,214 187,214  Z"/>

<path  fill="#FF9BCD" stroke-width="0" stroke="#FF9BCD" d = " M267 214 L269,214 C269,214 267,212 267,212 267,212 263,213 263,213 263,214.579 265.855,214 267,214  Z"/>

<path  fill="#FFB2D8" stroke-width="0" stroke="#FFB2D8" d = " M193 266 L192,267 C187.091,267 184.193,265 179,265 179,263.527 177.048,264 176,264 176,264 175,264 175,264 175,264 173,263 173,263 173,262.104 171,259.974 171,262 171,262 169,261 169,261 169,261 173,253.5 173,253.5 177.59,244.32 189,224.005 189,214 190.145,214 193,214.579 193,213 193,213 195,213 195,213 195,213.777 203.94,215 205,215 205,215 205,220 205,220 205,220 205,222 205,222 205,227.515 199.373,250.754 197,255.5 195.337,258.825 193,261.964 193,266  Z"/>

<path  fill="#FFB2D8" stroke-width="0" stroke="#FFB2D8" d = " M277 265 C271.895,265 268.965,267 264,267 264,267 263,265 263,265 263,260.964 260.663,257.825 259,254.5 257.142,250.783 251,226.116 251,222 251,222 251,221 251,221 251,221 252,215 252,215 252.892,215 261,213.695 261,213 261,213 263,213 263,213 263,214.579 265.855,214 267,214 267,225.704 287,252.009 287,261 287,261 286,262 286,262 284.423,262 284,260.271 284,263 282.952,263 281,262.527 281,264 279.855,264 277,263.421 277,265  Z"/>

<path  fill="#FF9BCD" stroke-width="0" stroke="#FF9BCD" d = " M323 213 C324.473,213 324,214.952 324,216 322.527,216 323,214.048 323,213  Z"/>

<path  fill="#FCB3D9" stroke-width="0" stroke="#FCB3D9" d = " M163 266 L160,269 C156.302,269 153.786,265 152,265 152,265 155,258.5 155,258.5 157.621,253.258 154.309,244.883 157,239.5 160.498,232.504 170,231.091 170,222 170,222 174,219 174,219 177.884,219 182.405,214 187,214 187,214 189,214 189,214 189,224.005 177.59,244.32 173,253.5 173,253.5 169,261 169,261 169,261 163,266 163,266  Z"/>

<path  fill="#FCB3D9" stroke-width="0" stroke="#FCB3D9" d = " M293 266 L296,268 C298.629,268 304,269.415 304,264 299.772,264 302.177,246.854 301,244.5 301,244.5 298,237.5 298,237.5 294.431,230.363 287,233.522 287,222 285.571,222 283,220.712 283,219 283,219 282,219 282,219 282,219 281,218 281,218 276.967,218 273.488,214 269,214 269,214 267,214 267,214 267,225.704 287,252.009 287,261 287,261 293,266 293,266  Z"/>

<path  fill="#FFA4D0" stroke-width="0" stroke="#FFA4D0" d = " M142 262 L147.5,266 L152,265 C152,265 155,258.5 155,258.5 157.621,253.258 154.309,244.883 157,239.5 160.498,232.504 170,231.091 170,222 170,222 169,219 169,219 169,219 163,215 163,215 155.693,215 150.13,224 147,224 147,225.238 146.577,227 145,227 145,228.424 144.638,232 143,232 143,232 143,233 143,233 143,233 142,235 142,235 142,235 141,237 141,237 141,237 141,238 141,238 141,244.749 141,251.589 141,258 141,258 141,260 141,260 141,260 142,261 142,261 142,261 142,262 142,262  Z"/>

<path  fill="#FFA4D0" stroke-width="0" stroke="#FFA4D0" d = " M304 264 C306.139,264 308.033,265 311,265 311,265 313,263 313,263 313,263 314,262 314,262 314,262 315,259 315,259 315,259 316,258 316,258 316,258 316,257 316,257 316,257 315,237 315,237 315,237 315,236 315,236 315,236 313,232 313,232 313,232 313,231 313,231 313,231 309,223.5 309,223.5 307.114,219.728 299.224,215 294,215 291.243,215 289.919,219 287,219 287,219 287,222 287,222 287,233.522 294.431,230.363 298,237.5 298,237.5 301,244.5 301,244.5 302.177,246.854 299.772,264 304,264  Z"/>

<path  fill="#FF9BCD" stroke-width="0" stroke="#FF9BCD" d = " M133 216 L132,217 C132,217 133,216 133,216  Z"/>

<path  fill="#FF9BCD" stroke-width="0" stroke="#FF9BCD" d = " M324 217 L325,219 C325,219 324,217 324,217  Z"/>

<path  fill="#A9AAA8" stroke-width="0" stroke="#A9AAA8" d = " M114 221 L114,223 C114,224.053 117.798,229.904 119,227.5 119.791,225.918 117.029,218 115,218 115,218 114,221 114,221  Z"/>

<path  fill="#FF9BCD" stroke-width="0" stroke="#FF9BCD" d = " M281 218 L282,219 C282,219 281,218 281,218  Z"/>

<path  fill="#FF9BCD" stroke-width="0" stroke="#FF9BCD" d = " M132 219 L131,220 C131,220 132,219 132,219  Z"/>

<path  fill="#FF9BCD" stroke-width="0" stroke="#FF9BCD" d = " M174 219 L170,222 C170,222 169,219 169,219 169,219 174,219 174,219  Z"/>

<path  fill="#FF9BCD" stroke-width="0" stroke="#FF9BCD" d = " M287 219 L287,222 C285.571,222 283,220.712 283,219 283,219 287,219 287,219  Z"/>

<path  fill="#A9AAA8" stroke-width="0" stroke="#A9AAA8" d = " M342 221 L341,227 C341,227 337.5,228 337.5,228 336.267,227.384 339.167,219 341,219 341,219 342,221 342,221  Z"/>

<path  fill="#FF9BCD" stroke-width="0" stroke="#FF9BCD" d = " M207 221 L205,222 C205,222 205,220 205,220 205,220 207,221 207,221  Z"/>

<path  fill="#F0F080" stroke-width="0" stroke="#F0F080" d = " M114 223 L113,225 C113,225 110,223 110,223 110,223 114,221 114,221 114,221 114,223 114,223  Z"/>

<path  fill="#FEB0D8" stroke-width="0" stroke="#FEB0D8" d = " M253 274 L254,274 C254,267.606 255.71,267 263,267 263,267 263,265 263,265 263,260.964 260.663,257.825 259,254.5 257.142,250.783 251,226.116 251,222 251,222 250,221 250,221 250,221 234,221 234,221 234,221 231,222 231,222 231,223.775 230.931,230 229,230 229,230 227,229 227,229 226.184,229 225,221.981 225,221 225,221 223,221 223,221 223,221 207,221 207,221 207,221 205,222 205,222 205,227.515 199.373,250.754 197,255.5 195.337,258.825 193,261.964 193,266 193,266 193,267 193,267 200.29,267 202,267.606 202,274 202,274 203,274 203,274 203,274 213.5,263 213.5,263 215.561,261.969 225,259.49 225,264 225,264 227,263 227,263 227,263 227,256 227,256 227,256 223.5,259 223.5,259 223.5,259 223,254 223,254 223,254 223,243.5 223,243.5 225.723,238.053 227,242.679 227,246.5 227,246.5 227,251 227,251 227,251 229,251 229,251 229,251 229,246.5 229,246.5 229,228.919 237.879,256.811 233.5,259 230.314,260.593 230.967,255 229,255 229,255 229,261 229,261 229,261 230,263 230,263 230,263 230,264 230,264 230,264 231,264 231,264 231,264 235.5,261 235.5,261 238.625,259.437 253,270.62 253,274  Z"/>

<path  fill="#FF9BCD" stroke-width="0" stroke="#FF9BCD" d = " M251 221 L251,222 C251,222 250,221 250,221 250,221 251,221 251,221  Z"/>

<path  fill="#A9AAA7" stroke-width="0" stroke="#A9AAA7" d = " M343 225 L341,227 C341,227 342,221 342,221 342,221 343,221 343,221 343,221 343,225 343,225  Z"/>

<path  fill="#F0F080" stroke-width="0" stroke="#F0F080" d = " M346 223 C346,224.577 344.238,225 343,225 343,225 343,221 343,221 343,221 346,223 346,223  Z"/>

<path  fill="#FF9BCD" stroke-width="0" stroke="#FF9BCD" d = " M131 224 L130,225 C130,225 131,224 131,224  Z"/>

<path  fill="#FF9BCD" stroke-width="0" stroke="#FF9BCD" d = " M147 224 C145.423,224 145,225.762 145,227 146.577,227 147,225.238 147,224  Z"/>

<path  fill="#FF9BCD" stroke-width="0" stroke="#FF9BCD" d = " M130 225 C128.421,225 129,227.855 129,229 130.579,229 130,226.145 130,225  Z"/>

<path  fill="#FF9BCD" stroke-width="0" stroke="#FF9BCD" d = " M336 232 C336,242.043 333.261,253.979 329,262.5 328.276,263.948 326.232,269 324,269 324,267.45 329.882,256.736 331,254.5 335.756,244.988 326,233.453 326,225 326.584,225 333,239.921 333,229 333,229 335,229 335,229 335,229 336,232 336,232  Z"/>

<path  fill="#FF9BCD" stroke-width="0" stroke="#FF9BCD" d = " M145 227 C143.362,227 143,230.576 143,232 144.638,232 145,228.424 145,227  Z"/>

<path  fill="#FF9BCD" stroke-width="0" stroke="#FF9BCD" d = " M138 272 L139,274 C136.973,274 133.659,270.817 133,269.5 131.48,266.459 126.83,263.16 125,259.5 122.623,254.746 124.359,248.218 122,243.5 121.269,242.039 121.483,232 120,232 120,232 122,229 122,229 122,229 123,229 123,229 123,237.321 127.345,229 129,229 129,233.298 127.748,236.005 126,239.5 125.017,241.466 126.21,258.919 127,260.5 127,260.5 131,265.5 131,265.5 132.134,267.768 135,272 138,272  Z"/>

<path  fill="#FF9BCD" stroke-width="0" stroke="#FF9BCD" d = " M313 232 L315,236 C315,236 313,232 313,232  Z"/>

<path  fill="#FF9BCD" stroke-width="0" stroke="#FF9BCD" d = " M143 233 L142,235 C142,235 143,233 143,233  Z"/>

<path  fill="#FF9BCD" stroke-width="0" stroke="#FF9BCD" d = " M142 235 L141,237 C141,237 142,235 142,235  Z"/>

<path  fill="#FF9BCD" stroke-width="0" stroke="#FF9BCD" d = " M315 237 C317.775,237 319.675,257 316,257 316,257 315,237 315,237  Z"/>

<path  fill="#FF9BCD" stroke-width="0" stroke="#FF9BCD" d = " M141 238 C138.363,238 137.373,258 141,258 141,251.589 141,244.749 141,238  Z"/>

<path  fill="#C8C8CC" stroke-width="0" stroke="#C8C8CC" d = " M227 251 L227,256 C227,256 223.5,259 223.5,259 223.5,259 223,254 223,254 223,254 223,243.5 223,243.5 225.723,238.053 227,242.679 227,246.5 227,246.5 227,251 227,251  Z"/>

<path  fill="#C8C8CC" stroke-width="0" stroke="#C8C8CC" d = " M229 251 L229,255 C230.967,255 230.314,260.593 233.5,259 237.879,256.811 229,228.919 229,246.5 229,246.5 229,251 229,251  Z"/>

<path  fill="#FFC5E2" stroke-width="0" stroke="#FFC5E2" d = " M227 281 L230,281 C230,281 230,264 230,264 230,264 230,263 230,263 230,263 229,261 229,261 229,261 229,255 229,255 229,255 229,251 229,251 229,251 227,251 227,251 227,251 227,256 227,256 227,256 227,263 227,263 227,263 226,267 226,267 226,267 226,269 226,269 226,270.824 225.219,281 227,281  Z"/>

<path  fill="#FF9BCD" stroke-width="0" stroke="#FF9BCD" d = " M325 252 L324,253 C324,253 325,252 325,252  Z"/>

<path  fill="#FF9BCD" stroke-width="0" stroke="#FF9BCD" d = " M316 258 L315,259 C315,259 316,258 316,258  Z"/>

<path  fill="#FF9BCD" stroke-width="0" stroke="#FF9BCD" d = " M141 260 L142,261 C142,261 141,260 141,260  Z"/>

<path  fill="#FF9BCD" stroke-width="0" stroke="#FF9BCD" d = " M168 265 L163,266 C163,266 169,261 169,261 169,261 171,262 171,262 171,262 173,263 173,263 173,263 175,264 175,264 172.591,264 169.819,265 168,265  Z"/>

<path  fill="#FEB3D6" stroke-width="0" stroke="#FEB3D6" d = " M171 262 L173,263 C173,262.104 171,259.974 171,262  Z"/>

<path  fill="#FDB2D9" stroke-width="0" stroke="#FDB2D9" d = " M226 269 C225.874,269 223.01,274.49 222,275.5 218.384,279.116 204.299,287.098 201,280.5 L203,274 C203,274 213.5,263 213.5,263 215.561,261.969 225,259.49 225,264 225,265.048 224.527,267 226,267 226,267 226,269 226,269  Z"/>

<path  fill="#FF9BCD" stroke-width="0" stroke="#FF9BCD" d = " M229 261 L230,263 C230,263 229,261 229,261  Z"/>

<path  fill="#FDB2D9" stroke-width="0" stroke="#FDB2D9" d = " M231 264 L235.5,261 C238.625,259.437 253,270.62 253,274 253,276.203 256.465,278.569 255,281.5 253.047,285.407 246.609,282.054 244.5,281 236.004,276.752 231,275.07 231,264  Z"/>

<path  fill="#FEB3D6" stroke-width="0" stroke="#FEB3D6" d = " M286 262 C284.423,262 284,260.271 284,263 284,263 286,262 286,262  Z"/>

<path  fill="#FF9BCD" stroke-width="0" stroke="#FF9BCD" d = " M288 266 C289.744,266 290.967,266 293,266 293,266 287,261 287,261 287,261 286,262 286,262 286,262 284,263 284,263 282.952,263 281,262.527 281,264 283.529,264 288,262.864 288,266  Z"/>

<path  fill="#FF9BCD" stroke-width="0" stroke="#FF9BCD" d = " M157 277 C152.551,277 157.615,282.057 159.5,283 161.409,283.954 175,289.88 175,291 168.269,291 155.809,281.154 149.5,278 147.794,277.147 140,276.51 140,274 143.567,274 151,280.293 151,274 151,267.734 142,267.086 142,262 142,262 147.5,266 147.5,266 147.5,266 152,265 152,265 153.786,265 156.302,269 160,269 160,269 161,274 161,274 158.55,274 159.302,271 157.5,271 157.5,271 157,277 157,277  Z"/>

<path  fill="#FF9BCD" stroke-width="0" stroke="#FF9BCD" d = " M314 262 L313,263 C313,263 314,262 314,262  Z"/>

<path  fill="#FF9BCD" stroke-width="0" stroke="#FF9BCD" d = " M225 264 C225,265.048 224.527,267 226,267 226,267 227,263 227,263 227,263 225,264 225,264  Z"/>

<path  fill="#FF9BCD" stroke-width="0" stroke="#FF9BCD" d = " M313 263 L311,265 C312.747,265 313,264.747 313,263  Z"/>

<path  fill="#FFB3D6" stroke-width="0" stroke="#FFB3D6" d = " M168 265 C168,270.846 176.552,266 178,266 178,266 176,264 176,264 176,264 175,264 175,264 172.591,264 169.819,265 168,265  Z"/>

<path  fill="#FF9BCD" stroke-width="0" stroke="#FF9BCD" d = " M179 265 L178,266 C178,266 176,264 176,264 177.048,264 179,263.527 179,265  Z"/>

<path  fill-rule="evenodd" fill="#FF9BCD" stroke-width="0" stroke="#FF9BCD" d = " M237 288 C237,289.527 230.786,290.071 233,294.5 236.608,301.716 252.29,296.081 250,291.5 248.597,288.693 244.639,290.07 242.5,289 240.559,288.029 239.378,288 237,288  M214 288 C214,288.974 207.149,290.202 206,292.5 204.834,294.832 208.73,294.615 209.5,295 L212.5,298 C218.373,300.936 227.041,291.271 222.5,289 L219.5,289 C217.559,288.029 216.378,288 214,288  M239 284 C239,287.129 246.331,289 249.5,289 L255,288.5 L250.5,287 C246.627,285.064 243.771,284 239,284  M212 284 L202,288.5 L207,289 C211.708,289 223.364,284 212,284  M223 279 C223,283.123 227.123,279 223,279  M232 278 C232,283.567 234.112,278 232,278  M176 291 C176,293.415 192.217,294.858 194.5,296 197.08,297.29 217.54,300.48 220.5,299 L228.5,291 L229.5,294 L236.5,299 C241.544,301.522 248.75,297 253,297 260.506,297 268.269,296.116 274.5,293 275.8,292.35 281,292.993 281,291 275.704,291 286,286.199 286,285 284.066,285 279,287.372 279,286 273.216,286 271.601,289.05 265.5,286 265.5,286 257,278.5 257,278.5 257,278.5 254,274 254,274 254,274 253,274 253,274 253,276.203 256.465,278.569 255,281.5 253.047,285.407 246.609,282.054 244.5,281 236.004,276.752 231,275.07 231,264 231,264 230,264 230,264 230,264 230,281 230,281 230,282.804 232.182,286.136 231,288.5 229.046,292.408 225.952,288.404 225,286.5 223.73,283.959 227,282.791 227,281 225.219,281 226,270.824 226,269 225.874,269 223.01,274.49 222,275.5 218.384,279.116 204.299,287.098 201,280.5 201,280.5 203,274 203,274 203,274 202,274 202,274 202,279.35 187.068,290.784 181.5,288 181.5,288 177,285 177,285 177,289.271 169.437,283 167,283 167,284.101 179.271,291 176,291  Z"/>

<path  fill="#FF9BCD" stroke-width="0" stroke="#FF9BCD" d = " M277 265 L279,266 C279,266 281,264 281,264 279.855,264 277,263.421 277,265  Z"/>

<path  fill="#FFB3D6" stroke-width="0" stroke="#FFB3D6" d = " M279 266 C279,270.638 286.952,266 288,266 288,262.864 283.529,264 281,264 281,264 279,266 279,266  Z"/>

<path  fill="#FF9BCD" stroke-width="0" stroke="#FF9BCD" d = " M299 278 L300.5,277 C304.619,277 297,282.575 297,283 300.958,283 306.992,278.754 310.5,277 311.658,276.421 314,277.341 314,275 307.94,275 306,281.356 306,273 302.118,273 311,265.49 311,265 308.033,265 306.139,264 304,264 304,269.415 298.629,268 296,268 296,268 295,275 295,275 295,275 298.5,271 298.5,271 298.5,271 299,278 299,278  Z"/>

<path  fill="#FCB2D9" stroke-width="0" stroke="#FCB2D9" d = " M175 284 L177,285 C177,285 181.5,288 181.5,288 187.068,290.784 202,279.35 202,274 202,267.606 200.29,267 193,267 193,267 192,267 192,267 187.091,267 184.193,265 179,265 179,265 178,266 178,266 176.552,266 168,270.846 168,265 168,265 163,266 163,266 163,266 160,269 160,269 160,269 161,274 161,274 161,274 162,275 162,275 162,275 164,277 164,277 164,277 165,277 165,277 165,277 167,279 167,279 167,279 168,279 168,279 168,279 172,282 172,282 172,282 174,283 174,283 174,283 175,284 175,284  Z"/>

<path  fill="#FF9BCD" stroke-width="0" stroke="#FF9BCD" d = " M263 267 L264,267 C264,267 263,265 263,265 263,265 263,267 263,267  Z"/>

<path  fill="#FCB2D9" stroke-width="0" stroke="#FCB2D9" d = " M280 285 L279,286 C273.216,286 271.601,289.05 265.5,286 265.5,286 257,278.5 257,278.5 257,278.5 254,274 254,274 254,267.606 255.71,267 263,267 263,267 264,267 264,267 268.965,267 271.895,265 277,265 277,265 279,266 279,266 279,270.638 286.952,266 288,266 289.744,266 290.967,266 293,266 293,266 296,268 296,268 296,268 295,275 295,275 295,275 294,276 294,276 294,276 292,277 292,277 292,277 291,278 291,278 291,278 289,279 289,279 289,279 288,279 288,279 288,279 287,280 287,280 287,280 286,281 286,281 286,281 285,281 285,281 285,281 284,282 284,282 284,282 283,283 283,283 283,283 282,283 282,283 282,283 281,284 281,284 281,284 280,285 280,285  Z"/>

<path  fill="#FF9BCD" stroke-width="0" stroke="#FF9BCD" d = " M192 267 L193,267 C193,267 193,266 193,266 193,266 192,267 192,267  Z"/>

<path  fill="#FF9BCD" stroke-width="0" stroke="#FF9BCD" d = " M324 269 L323,270 C323,270 324,269 324,269  Z"/>

<path  fill="#FF9BCD" stroke-width="0" stroke="#FF9BCD" d = " M323 270 L321,271 C321,271 323,270 323,270  Z"/>

<path  fill="#C9CACA" stroke-width="0" stroke="#C9CACA" d = " M140 274 C143.567,274 151,280.293 151,274 147.661,274 144.076,271 140,271 140,271 138,272 138,272 138,272 139,274 139,274 139,274 140,274 140,274  Z"/>

<path  fill="#C8C8CB" stroke-width="0" stroke="#C8C8CB" d = " M175 284 L177,285 C177,289.271 169.437,283 167,283 167,283 166,283 166,283 166,283 163,281 163,281 160.756,281 157,279.275 157,277 157,277 157.5,271 157.5,271 159.302,271 158.55,274 161,274 161,274 162,275 162,275 162,275 164,277 164,277 164,277 165,277 165,277 165,277 167,279 167,279 167,279 168,279 168,279 168,279 172,282 172,282 172,282 174,283 174,283 174,283 175,284 175,284  Z"/>

<path  fill="#C8C8CB" stroke-width="0" stroke="#C8C8CB" d = " M286 285 L287,285 C287,285 289,284 289,284 289,284 290,283 290,283 290,283 291,283 291,283 291,283 292,282 292,282 293.334,282 299,279.283 299,278 299,278 298.5,271 298.5,271 298.5,271 295,275 295,275 295,275 294,276 294,276 294,276 292,277 292,277 292,277 291,278 291,278 291,278 289,279 289,279 289,279 288,279 288,279 288,279 287,280 287,280 287,280 286,281 286,281 286,281 285,281 285,281 285,281 284,282 284,282 284,282 283,283 283,283 283,283 282,283 282,283 282,283 281,284 281,284 281,284 280,285 280,285 280,285 279,286 279,286 279,287.372 284.066,285 286,285  Z"/>

<path  fill="#C9CACA" stroke-width="0" stroke="#C9CACA" d = " M314 275 L315,275 C315,275 317,274 317,274 317,274 318,273 318,273 318,273 317,271 317,271 317,271 306,273 306,273 306,281.356 307.94,275 314,275  Z"/>

<path  fill="#FF9BCD" stroke-width="0" stroke="#FF9BCD" d = " M321 271 L320,272 C320,272 321,271 321,271  Z"/>

<path  fill="#FF9BCD" stroke-width="0" stroke="#FF9BCD" d = " M320 272 L319,273 C319,273 320,272 320,272  Z"/>

<path  fill="#FF9BCD" stroke-width="0" stroke="#FF9BCD" d = " M318 273 L317,274 C317,274 318,273 318,273  Z"/>

<path  fill="#FF9BCD" stroke-width="0" stroke="#FF9BCD" d = " M317 274 L315,275 C315,275 317,274 317,274  Z"/>

<path  fill="#FF9BCD" stroke-width="0" stroke="#FF9BCD" d = " M162 275 L164,277 C164,277 162,275 162,275  Z"/>

<path  fill="#FF9BCD" stroke-width="0" stroke="#FF9BCD" d = " M295 275 L294,276 C294,276 295,275 295,275  Z"/>

<path  fill="#CBC7CC" stroke-width="0" stroke="#CBC7CC" d = " M175 291 L176,291 C179.271,291 167,284.101 167,283 167,283 166,283 166,283 164.762,283 163,282.577 163,281 160.756,281 157,279.275 157,277 152.551,277 157.615,282.057 159.5,283 161.409,283.954 175,289.88 175,291  Z"/>

<path  fill="#FF9BCD" stroke-width="0" stroke="#FF9BCD" d = " M165 277 L167,279 C167,279 165,277 165,277  Z"/>

<path  fill="#FF9BCD" stroke-width="0" stroke="#FF9BCD" d = " M292 277 L291,278 C291,278 292,277 292,277  Z"/>

<path  fill="#CBC7CC" stroke-width="0" stroke="#CBC7CC" d = " M283 290 L281,291 C275.704,291 286,286.199 286,285 286,285 287,285 287,285 287,285 289,284 289,284 289,284 290,283 290,283 290,283 291,283 291,283 291,283 292,282 292,282 293.334,282 299,279.283 299,278 299,278 300.5,277 300.5,277 304.619,277 297,282.575 297,283 297,283 285,289 285,289 285,289 283,290 283,290  Z"/>

<path  fill="#CACCC8" stroke-width="0" stroke="#CACCC8" d = " M232 278 C232,283.567 234.112,278 232,278  Z"/>

<path  fill="#FF9BCD" stroke-width="0" stroke="#FF9BCD" d = " M291 278 L289,279 C289,279 291,278 291,278  Z"/>

<path  fill="#FF9BCD" stroke-width="0" stroke="#FF9BCD" d = " M168 279 L172,282 C172,282 168,279 168,279  Z"/>

<path  fill="#CACCC8" stroke-width="0" stroke="#CACCC8" d = " M223 279 C223,283.123 227.123,279 223,279  Z"/>

<path  fill="#FF9BCD" stroke-width="0" stroke="#FF9BCD" d = " M288 279 L287,280 C287,280 288,279 288,279  Z"/>

<path  fill="#FF9BCD" stroke-width="0" stroke="#FF9BCD" d = " M287 280 L286,281 C286,281 287,280 287,280  Z"/>

<path  fill="#FF9BCD" stroke-width="0" stroke="#FF9BCD" d = " M163 281 L166,283 C164.762,283 163,282.577 163,281  Z"/>

<path  fill="#FFC6E2" stroke-width="0" stroke="#FFC6E2" d = " M227 281 L230,281 C230,282.804 232.182,286.136 231,288.5 229.046,292.408 225.952,288.404 225,286.5 223.73,283.959 227,282.791 227,281  Z"/>

<path  fill="#FF9BCD" stroke-width="0" stroke="#FF9BCD" d = " M285 281 L284,282 C284,282 285,281 285,281  Z"/>

<path  fill="#FF9BCD" stroke-width="0" stroke="#FF9BCD" d = " M284 282 L283,283 C283,283 284,282 284,282  Z"/>

<path  fill="#FF9BCD" stroke-width="0" stroke="#FF9BCD" d = " M292 282 L291,283 C291,283 292,282 292,282  Z"/>

<path  fill="#FF9BCD" stroke-width="0" stroke="#FF9BCD" d = " M174 283 L175,284 C175,284 174,283 174,283  Z"/>

<path  fill="#FF9BCD" stroke-width="0" stroke="#FF9BCD" d = " M282 283 L281,284 C281,284 282,283 282,283  Z"/>

<path  fill="#FF9BCD" stroke-width="0" stroke="#FF9BCD" d = " M290 283 L289,284 C289,284 290,283 290,283  Z"/>

<path  fill="#FF9BCD" stroke-width="0" stroke="#FF9BCD" d = " M297 283 L285,289 C287.286,289 297,285.657 297,283  Z"/>

<path  fill="#FFB3D8" stroke-width="0" stroke="#FFB3D8" d = " M212 284 L202,288.5 L207,289 C211.708,289 223.364,284 212,284  Z"/>

<path  fill="#FFB3D8" stroke-width="0" stroke="#FFB3D8" d = " M239 284 C239,287.129 246.331,289 249.5,289 L255,288.5 L250.5,287 C246.627,285.064 243.771,284 239,284  Z"/>

<path  fill="#FF9BCD" stroke-width="0" stroke="#FF9BCD" d = " M281 284 L280,285 C280,285 281,284 281,284  Z"/>

<path  fill="#FF9BCD" stroke-width="0" stroke="#FF9BCD" d = " M289 284 L287,285 C287,285 289,284 289,284  Z"/>

<path  fill="#FF9BCD" stroke-width="0" stroke="#FF9BCD" d = " M280 285 L279,286 C279,286 280,285 280,285  Z"/>

<path  fill="#C7C9C9" stroke-width="0" stroke="#C7C9C9" d = " M214 288 C214,288.974 207.149,290.202 206,292.5 204.834,294.832 208.73,294.615 209.5,295 L212.5,298 C218.373,300.936 227.041,291.271 222.5,289 L219.5,289 C217.559,288.029 216.378,288 214,288  Z"/>

<path  fill="#C7C9C9" stroke-width="0" stroke="#C7C9C9" d = " M237 288 C237,289.527 230.786,290.071 233,294.5 236.608,301.716 252.29,296.081 250,291.5 248.597,288.693 244.639,290.07 242.5,289 240.559,288.029 239.378,288 237,288  Z"/>

<path  fill="#FF9BCD" stroke-width="0" stroke="#FF9BCD" d = " M285 289 L283,290 C283,290 285,289 285,289  Z"/>

<path  fill="#FF9BCD" stroke-width="0" stroke="#FF9BCD" d = " M283 290 L281,291 C281,291 283,290 283,290  Z"/>

</g>
</svg>
