<svg xmlns="http://www.w3.org/2000/svg" xmlns:xlink="http://www.w3.org/1999/xlink"  viewBox="0 0 456 320">
<g>
<rect width="456" height="320" fill="#000000"  stroke-width="0" /> 
<path  fill="#FF64FF" stroke-width="0" stroke="#FF64FF" d = " M187 46 L190,46 C191.048,46 193,46.4729 193,45 191.679,45 187,44.3156 187,46  Z"/>

<path  fill="#FE79FF" stroke-width="0" stroke="#FE79FF" d = " M201 103 L198,105 C198,103.977 180.939,87.6223 186,77.5 187.848,73.8045 190,61.3426 190,57 190,55.5944 190.714,50 189,50 189,50 190,46 190,46 191.048,46 193,46.4729 193,45 193,45 201,45 201,45 201,46.6628 206.407,47 208,47 208,47 209,47 209,47 209,48.4729 210.952,48 212,48 212,48 213,48 213,48 213,48 215,49 215,49 215,49 217,50 217,50 217,60.4542 217.725,69.0501 213,78.5 210.982,82.5361 204,95.0884 204,99 202.288,99 201,101.571 201,103  Z"/>

<path  fill="#FF64FF" stroke-width="0" stroke="#FF64FF" d = " M201 45 C202.296,45 208,45.8247 208,47 206.407,47 201,46.6628 201,45  Z"/>

<path  fill="#FF64FF" stroke-width="0" stroke="#FF64FF" d = " M255 45 L253,46 C253,46 255,45 255,45  Z"/>

<path  fill="#FE79FF" stroke-width="0" stroke="#FE79FF" d = " M267 50 L266,56.5 C267.735,59.9695 272.061,83.3782 270,87.5 268.212,91.0757 266.819,94.8622 265,98.5 L258,105 C254.148,105 250.293,93.0862 249,90.5 241.492,75.4848 239,67.0726 239,50 239,50 240,49 240,49 240,49 242,49 242,49 242,49 243,48 243,48 243,48 244,48 244,48 245.048,48 247,48.4729 247,47 247,47 249,47 249,47 250.048,47 252,47.4729 252,46 252,46 253,46 253,46 253,46 255,45 255,45 255,45 263,45 263,45 263,46.5791 265.855,46 267,46 267,46 267,50 267,50  Z"/>

<path  fill="#FF64FF" stroke-width="0" stroke="#FF64FF" d = " M267 46 L269,46 C269,44.3156 264.321,45 263,45 263,46.5791 265.855,46 267,46  Z"/>

<path  fill="#FF64FF" stroke-width="0" stroke="#FF64FF" d = " M184 46 L183,47 C183,47 184,46 184,46  Z"/>

<path  fill="#FE79FE" stroke-width="0" stroke="#FE79FE" d = " M149 79 C149,82.7123 147.608,88.284 146,91.5 142.325,98.8493 149.869,118.684 156.5,122 159.718,123.609 163.196,123 166,123 166,123 163,118.5 163,118.5 162.28,117.06 159.424,96.6524 160,95.5 162.447,90.6067 162.539,84.4229 165,79.5 167.817,73.8658 172.152,69.1956 175,63.5 177.232,59.0364 184.563,50 189,50 189,50 190,46 190,46 190,46 187,46 187,46 187,46 184,46 184,46 184,46 183,47 183,47 175.741,47 163.739,59 162,59 162,59 161,60 161,60 161,60 159,63 159,63 159,63 158,64 158,64 158,64 157,65 157,65 157,65 156,66 156,66 156,66 155,68 155,68 155,68 154,69 154,69 154,69 153,71 153,71 153,72.2383 152.577,74 151,74 151,75.4242 150.638,79 149,79  Z"/>

<path  fill="#FF64FF" stroke-width="0" stroke="#FF64FF" d = " M252 46 C250.952,46 249,45.5271 249,47 250.048,47 252,47.4729 252,46  Z"/>

<path  fill="#FE79FE" stroke-width="0" stroke="#FE79FE" d = " M303 71 C303,72.1979 308.103,82.7063 309,84.5 314.291,95.0826 309.199,117.651 298.5,123 296.123,124.188 291.713,123 290,123 290,123 295,113.5 295,113.5 295,113.5 295,104.5 295,104.5 295,104.5 296,93.5 296,93.5 290.529,82.5571 288.955,70.4551 279.5,61 276.679,58.179 272.501,50 267,50 267,50 267,46 267,46 267,46 269,46 269,46 269,46 272,46 272,46 272,46 273,47 273,47 279.897,47 284.774,52.137 290.5,55 290.5,55 296,61 296,61 296,61 297,62 297,62 297,62 298,63 298,63 298,63 299,64 299,64 299,64 299,65 299,65 299,65 303,70 303,70 303,70 303,71 303,71  Z"/>

<path  fill="#FF64FF" stroke-width="0" stroke="#FF64FF" d = " M272 46 L273,47 C273,47 272,46 272,46  Z"/>

<path  fill="#FF64FF" stroke-width="0" stroke="#FF64FF" d = " M209 47 C210.048,47 212,46.5271 212,48 210.952,48 209,48.4729 209,47  Z"/>

<path  fill="#FF64FF" stroke-width="0" stroke="#FF64FF" d = " M247 47 C245.952,47 244,46.5271 244,48 245.048,48 247,48.4729 247,47  Z"/>

<path  fill="#FF64FF" stroke-width="0" stroke="#FF64FF" d = " M213 48 L215,49 C215,49 213,48 213,48  Z"/>

<path  fill="#FF64FF" stroke-width="0" stroke="#FF64FF" d = " M243 48 L242,49 C242,49 243,48 243,48  Z"/>

<path  fill="#FF64FF" stroke-width="0" stroke="#FF64FF" d = " M240 49 L239,50 C239,50 240,49 240,49  Z"/>

<path  fill="#FE7AFE" stroke-width="0" stroke="#FE7AFE" d = " M177 123 L179,123 C179,123 180,122 180,122 180,122 186,119 186,119 186,119 193,112 193,112 193,112 194,111 194,111 194,111 195,110 195,110 195,110 196,109 196,109 196,109 197,108 197,108 197,108 198,107 198,107 198,107 198,105 198,105 198,103.977 180.939,87.6223 186,77.5 187.848,73.8045 190,61.3426 190,57 190,55.5944 190.714,50 189,50 184.563,50 177.232,59.0364 175,63.5 172.152,69.1956 167.817,73.8658 165,79.5 162.539,84.4229 162.447,90.6067 160,95.5 159.424,96.6524 162.28,117.06 163,118.5 163,118.5 166,123 166,123 166,123 174,124 174,124 174,122.527 175.952,123 177,123  Z"/>

<path  fill="#FF64FF" stroke-width="0" stroke="#FF64FF" d = " M268 119 L271,119 C271,117.965 258,108.225 258,105 254.148,105 250.293,93.0862 249,90.5 241.492,75.4848 239,67.0726 239,50 235.293,50 230.527,56.4455 229,59.5 229,59.5 228.5,63 228.5,63 228.5,63 227,58.5 227,58.5 225.371,55.2411 220.85,50 217,50 217,60.4542 217.725,69.0501 213,78.5 210.982,82.5361 204,95.0884 204,99 208.227,99 208.82,89.8594 210,87.5 212.45,82.6007 215.575,73.9627 221.5,71 223.732,69.8839 226.897,72 228.5,72 229.888,72 232.472,69.9858 234.5,71 243.54,75.5201 245.091,87.6814 249,95.5 251.22,99.9391 257.14,103.78 259,107.5 259,107.5 268,119 268,119  Z"/>

<path  fill="#FE7AFE" stroke-width="0" stroke="#FE7AFE" d = " M279 123 C282.838,123 286.162,123 290,123 290,123 295,113.5 295,113.5 295,113.5 295,104.5 295,104.5 295,104.5 296,93.5 296,93.5 290.529,82.5571 288.955,70.4551 279.5,61 276.679,58.179 272.501,50 267,50 267,50 266,56.5 266,56.5 267.735,59.9695 272.061,83.3782 270,87.5 268.212,91.0757 266.819,94.8622 265,98.5 265,98.5 258,105 258,105 258,108.225 271,117.965 271,119 271,119 273,120 273,120 273,120 274,121 274,121 274,121 275,121 275,121 275,121 276,122 276,122 276,122 277,122 277,122 277,122 278,123 278,123 278,123 279,123 279,123  Z"/>

<path  fill="#FF64FF" stroke-width="0" stroke="#FF64FF" d = " M162 59 L161,60 C161,60 162,59 162,59  Z"/>

<path  fill="#FF64FF" stroke-width="0" stroke="#FF64FF" d = " M296 61 L297,62 C297,62 296,61 296,61  Z"/>

<path  fill="#FF64FF" stroke-width="0" stroke="#FF64FF" d = " M159 63 L158,64 C158,64 159,63 159,63  Z"/>

<path  fill="#FF64FF" stroke-width="0" stroke="#FF64FF" d = " M298 63 L299,64 C299,64 298,63 298,63  Z"/>

<path  fill="#FF64FF" stroke-width="0" stroke="#FF64FF" d = " M158 64 L157,65 C157,65 158,64 158,64  Z"/>

<path  fill="#FF64FF" stroke-width="0" stroke="#FF64FF" d = " M157 65 L156,66 C156,66 157,65 157,65  Z"/>

<path  fill="#FF64FF" stroke-width="0" stroke="#FF64FF" d = " M299 65 C300.533,65 303,68.7527 303,70 303,70 299,65 299,65  Z"/>

<path  fill="#FF64FF" stroke-width="0" stroke="#FF64FF" d = " M155 68 L154,69 C154,69 155,68 155,68  Z"/>

<path  fill="#FF64FF" stroke-width="0" stroke="#FF64FF" d = " M154 69 L153,71 C153,71 154,69 154,69  Z"/>

<path  fill="#FF64FF" stroke-width="0" stroke="#FF64FF" d = " M151 72 L151,74 C152.577,74 153,72.2383 153,71 153,71 151,72 151,72  Z"/>

<path  fill-rule="evenodd" fill="#FC8FFF" stroke-width="0" stroke="#FC8FFF" d = " M257 152 L262,152 C262,152 263,149 263,149 263,149 263,148 263,148 263,148 265,147 265,147 265,145.952 264.527,144 266,144 266,144 267,143 267,143 267,141.762 267.423,140 269,140 269,140 269,139 269,139 269,139 269,135 269,135 269,135 270,125.5 270,125.5 270,125.5 268,119 268,119 268,119 259,107.5 259,107.5 257.14,103.78 251.22,99.9391 249,95.5 245.091,87.6814 243.54,75.5201 234.5,71 232.472,69.9858 229.888,72 228.5,72 226.897,72 223.732,69.8839 221.5,71 215.575,73.9627 212.45,82.6007 210,87.5 208.82,89.8594 208.227,99 204,99 204,100.429 202.712,103 201,103 201,104.429 199.712,107 198,107 198,107 197,108 197,108 197,108 196,109 196,109 196,109 195,110 195,110 195,110 194,111 194,111 194,111 193,112 193,112 193,114.83 189,116.54 189,119 189,119 187,121.5 187,121.5 187,121.5 187,136 187,136 187,136 188,140 188,140 188,140 189,142 189,142 189,142 190,143 190,143 190,143 190,144 190,144 190,144 191,145 191,145 191,145 191,146 191,146 191,146 193,147 193,147 193,142.863 199.113,148 193,148 193,148 193,149 193,149 194.473,149 194,150.952 194,152 194,152 199,152 199,152 199,152 203.5,148 203.5,148 204.602,147.449 210,146.426 210,148 210,148 213,148 213,148 217.032,148 222.88,152 225,152 225,152 225,151 225,151 225,151 221,147 221,147 219.52,147 211,142.029 211,141 206.847,141 208.473,139.487 205.5,138 202.73,136.615 192.561,138.379 197,129.5 197,129.5 201.5,124 201.5,124 202.546,123.477 205,124.951 205,123 205,116.619 221.85,93 228.5,93 228.5,93 232.5,97 232.5,97 240.482,100.991 251,113.825 251,123 256.124,123 261.811,130.879 259,136.5 257.554,139.392 252.75,136.875 250.5,138 247.527,139.487 249.153,141 245,141 245,142.375 237.351,147 236,147 236,147 235,149 235,149 235,149 244,148 244,148 244,148 247,148 247,148 247,146.558 257,148.532 257,152  M263 148 C263,141.928 258.762,148 263,148  Z"/>

<path  fill="#FF64FF" stroke-width="0" stroke="#FF64FF" d = " M308 125 C304.53,125 302.722,128 300,128 300,124.935 287.251,125 284.5,125 283.29,125 279,124.186 279,123 282.838,123 286.162,123 290,123 291.713,123 296.123,124.188 298.5,123 309.199,117.651 314.291,95.0826 309,84.5 308.103,82.7063 303,72.1979 303,71 303,71 305,72 305,72 305,72.2571 312.249,90.9984 313,92.5 313.898,94.2961 311.342,100 315,100 315,100 314,105 314,105 314,105 314,109 314,109 312.357,109 313,112.765 313,114 313,118.153 309,120.085 309,123 309,123 308,124 308,124 308,124 308,125 308,125  Z"/>

<path  fill="#C9C8C8" stroke-width="0" stroke="#C9C8C8" d = " M149 79 C147.589,79 144.147,93.2065 143,95.5 142.426,96.6472 144.064,100 142,100 142,95.387 145.086,72 151,72 151,72 151,74 151,74 148.539,74 149,77.3782 149,79  Z"/>

<path  fill="#C9C8C8" stroke-width="0" stroke="#C9C8C8" d = " M305 72 C310.403,72 315,94.5086 315,100 311.342,100 313.898,94.2961 313,92.5 312.249,90.9984 305,72.2571 305,72  Z"/>

<path  fill="#FF64FF" stroke-width="0" stroke="#FF64FF" d = " M151 74 C148.539,74 149,77.3782 149,79 150.638,79 151,75.4242 151,74  Z"/>

<path  fill="#FF64FF" stroke-width="0" stroke="#FF64FF" d = " M174 124 C174,126.741 162.815,125 161.5,125 L156,128 C156,128 148,124 148,124 148,124 143,115 143,115 143,115 143,107 143,107 143,107 142,106 142,106 142,106 142,104 142,104 142,104 142,100 142,100 144.064,100 142.426,96.6472 143,95.5 144.147,93.2065 147.589,79 149,79 149,82.7123 147.608,88.284 146,91.5 142.325,98.8493 149.869,118.684 156.5,122 159.718,123.609 163.196,123 166,123 166,123 174,124 174,124  Z"/>

<path  fill="#A9A9A8" stroke-width="0" stroke="#A9A9A8" d = " M205 123 L209.5,119 C214.769,116.366 221.735,121.118 225.5,123 228.539,124.52 234.527,120.486 237.5,119 243.343,116.079 248.457,123 251,123 251,113.825 240.482,100.991 232.5,97 232.5,97 228.5,93 228.5,93 221.85,93 205,116.619 205,123  Z"/>

<path  fill-rule="evenodd" fill="#FDFB8F" stroke-width="0" stroke="#FDFB8F" d = " M109 160 C109,163.746 111.091,160 109,160  M110 157 C110,160.746 112.091,157 110,157  M111 153 C111,158.567 113.112,153 111,153  M112 151 C112,154.746 114.091,151 112,151  M113 148 C113,151.746 115.091,148 113,148  M106 171 C108.033,171 109.256,171 111,171 111,170.52 120.724,163.053 122,160.5 122,160.5 133,133.5 133,133.5 133,133.5 141,123 141,123 141,123 142,121 142,121 142,121 142,117 142,117 142,117 143,116 143,116 143,116 143,115 143,115 143,115 143,107 143,107 143,107 142,106 142,106 142,106 142,104 142,104 142,104 131.5,96 131.5,96 128.085,94.2925 123.053,99.7236 120.5,101 115.216,103.642 102.247,123.007 99,129.5 95.3302,136.84 93.1602,152.82 97,160.5 97,160.5 101,164.5 101,164.5 101.724,165.948 103.768,171 106,171  Z"/>

<path  fill-rule="evenodd" fill="#FDFB8F" stroke-width="0" stroke="#FDFB8F" d = " M343 150 C343,152.067 346.825,160.849 347,160.5 347.591,159.319 344.204,150 343,150  M342 147 C342,148.93 343.93,147 342,147  M345 171 L347.5,169 C348.545,169 349.361,171 351,171 351,171 355.5,165 355.5,165 364.086,156.414 361.856,138.212 357,128.5 353.612,121.724 340.556,103.528 335.5,101 333.047,99.7736 328.83,94.3348 325.5,96 322.415,97.5426 319.679,98.8211 317,101.5 317,101.5 314,105 314,105 314,105 314,109 314,109 314,109 314,114 314,114 314,114 315,123 315,123 317.009,123 321.145,130.789 322,132.5 326.795,142.089 330.245,151.99 335,161.5 335,161.5 345,171 345,171  Z"/>

<path  fill="#FF64FF" stroke-width="0" stroke="#FF64FF" d = " M204 99 C202.288,99 201,101.571 201,103 202.712,103 204,100.429 204,99  Z"/>

<path  fill="#FF64FF" stroke-width="0" stroke="#FF64FF" d = " M198 105 L198,107 C199.712,107 201,104.429 201,103 201,103 198,105 198,105  Z"/>

<path  fill="#F0F080" stroke-width="0" stroke="#F0F080" d = " M142 106 L143,107 C143,107 142,106 142,106  Z"/>

<path  fill="#FF64FF" stroke-width="0" stroke="#FF64FF" d = " M198 107 L197,108 C197,108 198,107 198,107  Z"/>

<path  fill="#FF64FF" stroke-width="0" stroke="#FF64FF" d = " M197 108 L196,109 C196,109 197,108 197,108  Z"/>

<path  fill="#FF64FF" stroke-width="0" stroke="#FF64FF" d = " M196 109 L195,110 C195,110 196,109 196,109  Z"/>

<path  fill="#F0F080" stroke-width="0" stroke="#F0F080" d = " M313 114 L314,114 C314,114 314,109 314,109 312.357,109 313,112.765 313,114  Z"/>

<path  fill="#FF64FF" stroke-width="0" stroke="#FF64FF" d = " M195 110 L194,111 C194,111 195,110 195,110  Z"/>

<path  fill="#FF64FF" stroke-width="0" stroke="#FF64FF" d = " M194 111 L193,112 C193,112 194,111 194,111  Z"/>

<path  fill="#FF64FF" stroke-width="0" stroke="#FF64FF" d = " M186 119 L189,119 C189,116.54 193,114.83 193,112 193,112 186,119 186,119  Z"/>

<path  fill="#31B625" stroke-width="0" stroke="#31B625" d = " M77 113 C77,115.705 59.3542,137.927 71.5,144 72.2843,144.392 76.5308,142.438 77,141.5 80.0468,135.406 88.786,113 77,113  Z"/>

<path  fill="#31B625" stroke-width="0" stroke="#31B625" d = " M375 113 C375,117.018 372.897,121.293 375,125.5 376.879,129.258 376.091,134.682 378,138.5 380.844,144.188 385.876,145.749 389,139.5 392.145,133.21 382.484,113 375,113  Z"/>

<path  fill="#F0F080" stroke-width="0" stroke="#F0F080" d = " M143 116 L142,117 C142,117 143,116 143,116  Z"/>

<path  fill="#FC90FF" stroke-width="0" stroke="#FC90FF" d = " M170 143 L171,143 C171,141.421 173.855,142 175,142 175,142 177,142 177,142 177,142 179,141 179,141 179,141 180,141 180,141 180,141 181,141 181,141 181,141 183,140 183,140 183,140 185,139 185,139 185,137.762 185.423,136 187,136 187,136 187,121.5 187,121.5 187,121.5 189,119 189,119 189,119 186,119 186,119 186,119 180,122 180,122 180,122 179,123 179,123 179,123 177,123 177,123 177,124.473 175.048,124 174,124 174,126.741 162.815,125 161.5,125 161.5,125 156,128 156,128 156,136.045 161.64,143 170,143  Z"/>

<path  fill="#FDFA91" stroke-width="0" stroke="#FDFA91" d = " M211 141 C213.382,141 225.748,136.624 226.5,137 228.462,137.981 241.727,141 245,141 249.153,141 247.527,139.487 250.5,138 252.75,136.875 257.554,139.392 259,136.5 261.811,130.879 256.124,123 251,123 248.457,123 243.343,116.079 237.5,119 234.527,120.486 228.539,124.52 225.5,123 221.735,121.118 214.769,116.366 209.5,119 209.5,119 205,123 205,123 205,124.951 202.546,123.477 201.5,124 201.5,124 197,129.5 197,129.5 192.561,138.379 202.73,136.615 205.5,138 208.473,139.487 206.847,141 211,141  Z"/>

<path  fill="#FC90FF" stroke-width="0" stroke="#FC90FF" d = " M285 143 L286,143 C295.212,143 300,135.625 300,128 300,124.935 287.251,125 284.5,125 283.29,125 279,124.186 279,123 279,123 278,123 278,123 278,123 277,122 277,122 277,122 276,122 276,122 276,122 275,121 275,121 275,121 274,121 274,121 274,121 273,120 273,120 273,120 271,119 271,119 271,119 268,119 268,119 268,119 270,125.5 270,125.5 270,125.5 269,135 269,135 269,135 272,139 272,139 272,139 273,140 273,140 273,140 274,140 274,140 274,140 275,140 275,140 275,140 276,141 276,141 276,141 277,141 277,141 277,141 278,141 278,141 278,141 281,142 281,142 282.145,142 285,141.421 285,143  Z"/>

<path  fill="#FF64FF" stroke-width="0" stroke="#FF64FF" d = " M273 120 L274,121 C274,121 273,120 273,120  Z"/>

<path  fill="#F0F080" stroke-width="0" stroke="#F0F080" d = " M141 123 L142,123 C142,123 142,121 142,121 142,121 141,123 141,123  Z"/>

<path  fill="#FF64FF" stroke-width="0" stroke="#FF64FF" d = " M275 121 L276,122 C276,122 275,121 275,121  Z"/>

<path  fill="#FF64FF" stroke-width="0" stroke="#FF64FF" d = " M180 122 L179,123 C179,123 180,122 180,122  Z"/>

<path  fill="#FF64FF" stroke-width="0" stroke="#FF64FF" d = " M277 122 L278,123 C278,123 277,122 277,122  Z"/>

<path  fill-rule="evenodd" fill="#FCFB90" stroke-width="0" stroke="#FCFB90" d = " M136 156 L135,158.5 C132.189,164.123 140.522,156 136,156  M137 153 C137,156.746 139.091,153 137,153  M111 171 C117.013,171 121.756,172.872 127.5,170 L134.5,161 C135.479,161 132.077,169.654 133,171.5 136.421,178.342 138.678,178 145,178 145,171.695 154,166.712 154,161 154,161 155,160 155,160 155,160 155,159 155,159 155,159 155,157 155,157 155,150.321 158.049,141.598 155,135.5 155,135.5 149,125.5 149,125.5 149,125.5 146,123 146,123 146,123 142,123 142,123 142,123 141,123 141,123 141,123 133,133.5 133,133.5 133,133.5 122,160.5 122,160.5 120.724,163.053 111,170.52 111,171  Z"/>

<path  fill="#F0F080" stroke-width="0" stroke="#F0F080" d = " M157 157 L158,157 C158,157 159,155 159,155 159,152.336 164.336,147 167,147 167,144.382 170,145.349 170,143 161.64,143 156,136.045 156,128 156,128 148,124 148,124 148,124 146,123 146,123 146,123 149,125.5 149,125.5 149,125.5 155,135.5 155,135.5 158.049,141.598 155,150.321 155,157 155,157 157,157 157,157  Z"/>

<path  fill="#FF64FF" stroke-width="0" stroke="#FF64FF" d = " M177 123 C175.952,123 174,122.527 174,124 175.048,124 177,124.473 177,123  Z"/>

<path  fill="#F0F080" stroke-width="0" stroke="#F0F080" d = " M311 123 L309,124 C309,124 309,123 309,123 309,123 311,123 311,123  Z"/>

<path  fill="#FCFB90" stroke-width="0" stroke="#FCFB90" d = " M302 161 C302,163.521 313.605,180.948 317.5,179 321.805,176.847 325.017,169.534 323,165.5 322.589,164.679 317.76,155 319.5,155 L325.5,167 C334.441,171.47 334.392,171 345,171 345,171 335,161.5 335,161.5 330.245,151.99 326.795,142.089 322,132.5 321.145,130.789 317.009,123 315,123 315,123 311,123 311,123 311,123 309,124 309,124 309,124 308,125 308,125 308,125.55 300.976,137.549 300,139.5 298.582,142.337 300.804,151.108 302,153.5 302.472,154.445 302.156,157 301,157 301,157 302,161 302,161  Z"/>

<path  fill="#F0F080" stroke-width="0" stroke="#F0F080" d = " M309 124 L308,125 C308,125 308,124 308,124 308,124 309,124 309,124  Z"/>

<path  fill="#F0F080" stroke-width="0" stroke="#F0F080" d = " M301 157 L300,158 C300,158 294.5,150 294.5,150 294.5,150 286,143 286,143 295.212,143 300,135.625 300,128 302.722,128 304.53,125 308,125 308,125.55 300.976,137.549 300,139.5 298.582,142.337 300.804,151.108 302,153.5 302.472,154.445 302.156,157 301,157  Z"/>

<path  fill="#FF64FF" stroke-width="0" stroke="#FF64FF" d = " M269 139 L272,139 C272,139 269,135 269,135 269,135 269,139 269,139  Z"/>

<path  fill="#FF64FF" stroke-width="0" stroke="#FF64FF" d = " M187 140 L188,140 C188,140 187,136 187,136 185.423,136 185,137.762 185,139 185,139 186,139 186,139 186,139 187,140 187,140  Z"/>

<path  fill="#A9A9A8" stroke-width="0" stroke="#A9A9A8" d = " M221 147 C226.67,147 230.33,147 236,147 237.351,147 245,142.375 245,141 241.727,141 228.462,137.981 226.5,137 225.748,136.624 213.382,141 211,141 211,142.029 219.52,147 221,147  Z"/>

<path  fill="#FF9B88" stroke-width="0" stroke="#FF9B88" d = " M185 139 L183,140 C183,140 185,139 185,139  Z"/>

<path  fill="#FFAD6D" stroke-width="0" stroke="#FFAD6D" d = " M153 180 L154,180 C154,180 163,171.5 163,171.5 167.518,166.982 174.499,164 180.5,161 180.5,161 188,152 188,152 188,150.726 191,149.067 191,146 191,146 191,145 191,145 191,145 190,144 190,144 190,144 190,143 190,143 190,143 189,142 189,142 189,142 188,140 188,140 188,140 187,140 187,140 187,140 186,139 186,139 186,139 185,139 185,139 185,139 183,140 183,140 183,140 181,141 181,141 181,141 180,141 180,141 180,141 179,142 179,142 179,142 178,142 178,142 178,142 177,143 177,143 177,143 175,143 175,143 175,143 174,144 174,144 174,144 173,145 173,145 173,145 170,148 170,148 170,148 169,149 169,149 169,149 167,152 167,152 167,152 166,153 166,153 166,153 165,154 165,154 165,154 164,155 164,155 164,155 163,156 163,156 163,156 162,157 162,157 162,157 161,158 161,158 161,158 160,159 160,159 160,162.677 149,170.773 149,177 149,177 153,180 153,180  Z"/>

<path  fill="#FF9B88" stroke-width="0" stroke="#FF9B88" d = " M186 139 L187,140 C187,140 186,139 186,139  Z"/>

<path  fill="#FF9B88" stroke-width="0" stroke="#FF9B88" d = " M269 140 L273,140 C273,140 272,139 272,139 272,139 269,139 269,139 269,139 269,140 269,140  Z"/>

<path  fill="#FF9B88" stroke-width="0" stroke="#FF9B88" d = " M183 140 L181,141 C181,141 183,140 183,140  Z"/>

<path  fill="#FFAD6D" stroke-width="0" stroke="#FFAD6D" d = " M302 180 L303,180 C305.364,180 306.053,177 308,177 308,170.995 295,161.233 295,158 295,158 294,157 294,157 294,157 293,156 293,156 293,156 292,155 292,155 292,155 291,154 291,154 291,154 288,150 288,150 288,150 283,145 283,145 283,145 281,143 281,143 281,143 279,143 279,143 279,143 277,141 277,141 277,141 276,141 276,141 276,141 275,141 275,141 275,141 274,140 274,140 274,140 273,140 273,140 273,140 269,140 269,140 267.423,140 267,141.762 267,143 267,143 266,144 266,144 266,145.048 266.473,147 265,147 265,149.364 268,150.053 268,152 272.611,152 271.654,159.077 275.5,161 281.775,164.138 288.078,166.578 293.5,172 293.5,172 302,180 302,180  Z"/>

<path  fill="#FF9B88" stroke-width="0" stroke="#FF9B88" d = " M275 140 L275,141 C275,141 274,140 274,140 274,140 275,140 275,140  Z"/>

<path  fill="#FF64FF" stroke-width="0" stroke="#FF64FF" d = " M275 141 L276,141 C276,141 275,140 275,140 275,140 275,141 275,141  Z"/>

<path  fill="#FF64FF" stroke-width="0" stroke="#FF64FF" d = " M178 142 L179,142 C179,142 179,141 179,141 179,141 177,142 177,142 177,142 178,142 178,142  Z"/>

<path  fill="#FF9B88" stroke-width="0" stroke="#FF9B88" d = " M180 141 L179,142 C179,142 179,141 179,141 179,141 180,141 180,141  Z"/>

<path  fill="#FF9B88" stroke-width="0" stroke="#FF9B88" d = " M278 141 L279,143 C279,143 277,141 277,141 277,141 278,141 278,141  Z"/>

<path  fill="#FF64FF" stroke-width="0" stroke="#FF64FF" d = " M279 143 L281,143 C281,143 281,142 281,142 281,142 278,141 278,141 278,141 279,143 279,143  Z"/>

<path  fill="#F0F080" stroke-width="0" stroke="#F0F080" d = " M173 144 L174,144 C174,144 175,143 175,143 175,143 175,142 175,142 173.855,142 171,141.421 171,143 171,143 173,144 173,144  Z"/>

<path  fill="#FF64FF" stroke-width="0" stroke="#FF64FF" d = " M175 143 L177,143 C177,143 177,142 177,142 177,142 175,142 175,142 175,142 175,143 175,143  Z"/>

<path  fill="#FF9B88" stroke-width="0" stroke="#FF9B88" d = " M178 142 L177,143 C177,143 177,142 177,142 177,142 178,142 178,142  Z"/>

<path  fill="#FF9B88" stroke-width="0" stroke="#FF9B88" d = " M189 142 L190,143 C190,143 189,142 189,142  Z"/>

<path  fill="#F0F080" stroke-width="0" stroke="#F0F080" d = " M285 143 L283,144 C283,144 281,143 281,143 281,143 281,142 281,142 282.145,142 285,141.421 285,143  Z"/>

<path  fill="#CBC9CC" stroke-width="0" stroke="#CBC9CC" d = " M167 147 C168.048,147 170,146.527 170,148 170,148 173,145 173,145 173,145 173,144 173,144 173,144 171,143 171,143 171,143 170,143 170,143 170,145.349 167,144.382 167,147  Z"/>

<path  fill="#FF9B88" stroke-width="0" stroke="#FF9B88" d = " M267 143 L266,144 C266,144 267,143 267,143  Z"/>

<path  fill="#FF9B88" stroke-width="0" stroke="#FF9B88" d = " M283 144 L283,145 C283,145 281,143 281,143 281,143 283,144 283,144  Z"/>

<path  fill="#CBC9CC" stroke-width="0" stroke="#CBC9CC" d = " M335 201 L339,204 C341.75,204 345.442,208.529 348.5,207 351.547,205.477 344.02,202.26 343.5,202 339.602,200.051 335,195.098 335,190 335,190 336,189 336,189 336,184.027 351,176.249 351,172 351,172 351,171 351,171 349.361,171 348.545,169 347.5,169 347.5,169 345,171 345,171 334.392,171 334.441,171.47 325.5,167 325.5,167 319.5,155 319.5,155 317.76,155 322.589,164.679 323,165.5 325.017,169.534 321.805,176.847 317.5,179 313.605,180.948 302,163.521 302,161 302,161 300,158 300,158 300,158 294.5,150 294.5,150 294.5,150 286,143 286,143 286,143 285,143 285,143 285,143 283,144 283,144 283,144 283,145 283,145 283,145 288,150 288,150 288,150 286,146.5 286,146.5 286,146.5 289.5,148 289.5,148 292.72,151.22 295.041,152.582 297,156.5 297,156.5 300.5,162 300.5,162 298.639,162 297.543,158 295,158 295,161.233 308,170.995 308,177 311.153,177 312.304,182 315,182 315,182 317,181 317,181 317,181 319,180 319,180 319,180 320,179 320,179 322.848,179 325.089,175.206 327.5,174 329.153,173.174 331.31,174.405 332.5,175 332.5,175 336.5,175 336.5,175 342.582,178.041 331,186.492 331,189 331,192.526 333,197.954 333,199 333,199 334,199 334,199 334,199 335,200 335,200 335,200 335,201 335,201  Z"/>

<path  fill="#FF9B88" stroke-width="0" stroke="#FF9B88" d = " M174 144 L173,145 C173,145 173,144 173,144 173,144 174,144 174,144  Z"/>

<path  fill="#FF9B88" stroke-width="0" stroke="#FF9B88" d = " M190 144 L191,145 C191,145 190,144 190,144  Z"/>

<path  fill="#FF9B88" stroke-width="0" stroke="#FF9B88" d = " M266 144 C264.527,144 265,145.952 265,147 266.473,147 266,145.048 266,144  Z"/>

<path  fill="#C8C9C8" stroke-width="0" stroke="#C8C9C8" d = " M193 147 L193,148 C199.113,148 193,142.863 193,147  Z"/>

<path  fill="#C8C9C8" stroke-width="0" stroke="#C8C9C8" d = " M263 148 C263,141.928 258.762,148 263,148  Z"/>

<path  fill="#FF9B88" stroke-width="0" stroke="#FF9B88" d = " M188 152 L191,153 C191,153 193,149 193,149 193,149 193,148 193,148 193,148 193,147 193,147 193,147 191,146 191,146 191,149.067 188,150.726 188,152  Z"/>

<path  fill="#AAA9A7" stroke-width="0" stroke="#AAA9A7" d = " M229 152 L231,152 C231,152 232,151 232,151 232,149.423 233.762,149 235,149 235,149 236,147 236,147 230.33,147 226.67,147 221,147 221,147 225,151 225,151 225,151 228,152 228,152 228,152 229,152 229,152  Z"/>

<path  fill="#CBC7CC" stroke-width="0" stroke="#CBC7CC" d = " M294 157 L295,158 C297.543,158 298.639,162 300.5,162 300.5,162 297,156.5 297,156.5 295.041,152.582 292.72,151.22 289.5,148 289.5,148 286,146.5 286,146.5 286,146.5 288,150 288,150 288,150 291,154 291,154 291,154 292,155 292,155 292,155 293,156 293,156 293,156 294,157 294,157  Z"/>

<path  fill="#CBC9CC" stroke-width="0" stroke="#CBC9CC" d = " M167 147 C164.336,147 159,152.336 159,155 159,155 167,147 167,147  Z"/>

<path  fill="#CBC7CC" stroke-width="0" stroke="#CBC7CC" d = " M161 158 L160,159 C158.253,159 158,158.747 158,157 158,157 159,155 159,155 159,155 167,147 167,147 168.048,147 170,146.527 170,148 170,148 169,149 169,149 169,149 167,152 167,152 167,152 166,153 166,153 166,153 165,154 165,154 165,154 164,155 164,155 164,155 163,156 163,156 163,156 162,157 162,157 162,157 161,158 161,158  Z"/>

<path  fill="#FFBA84" stroke-width="0" stroke="#FFBA84" d = " M199 152 L199,154 C202.79,154 205.935,148 210,148 210,146.426 204.602,147.449 203.5,148 203.5,148 199,152 199,152  Z"/>

<path  fill="#FFBA84" stroke-width="0" stroke="#FFBA84" d = " M257 152 L258,155 C254.537,155 251.18,148 247,148 247,146.558 257,148.532 257,152  Z"/>

<path  fill="#FF9B88" stroke-width="0" stroke="#FF9B88" d = " M268 152 L265,153 C265,151.535 265.109,149 263,149 263,149 263,148 263,148 263,148 265,147 265,147 265,149.364 268,150.053 268,152  Z"/>

<path  fill="#CBC9CC" stroke-width="0" stroke="#CBC9CC" d = " M342 147 C342,148.93 343.93,147 342,147  Z"/>

<path  fill="#CBC9CC" stroke-width="0" stroke="#CBC9CC" d = " M113 148 C113,151.746 115.091,148 113,148  Z"/>

<path  fill="#CBC9CC" stroke-width="0" stroke="#CBC9CC" d = " M170 148 L169,149 C169,149 170,148 170,148  Z"/>

<path  fill="#FEC395" stroke-width="0" stroke="#FEC395" d = " M193 171 L193,174 C195.72,174 198.79,178.855 202.5,177 204.529,175.985 209.92,169 211,169 211,169 211,167 211,167 211,165.952 210.527,164 212,164 212,164 212,163 212,163 212,163 213,161 213,161 213,157.892 213.737,156.027 215,153.5 215,153.5 213,148 213,148 213,148 210,148 210,148 205.935,148 202.79,154 199,154 199,154 199,155 199,155 199,155 198,156 198,156 198,156 198,157 198,157 198,157 197,158 197,158 197,161.68 195,163.511 195,167 195,167 194,168 194,168 194,168 194,170 194,170 194,170 193,171 193,171  Z"/>

<path  fill="#FFBA84" stroke-width="0" stroke="#FFBA84" d = " M228 165 L229,165 C229,165 229,161 229,161 228.504,161 225,152.975 225,152 222.88,152 217.032,148 213,148 213,148 215,153.5 215,153.5 213.737,156.027 213,157.892 213,161 213,161 217.5,156 217.5,156 222.668,153.416 228,161.148 228,165  Z"/>

<path  fill="#FFBA84" stroke-width="0" stroke="#FFBA84" d = " M229 161 C231.835,161 233.422,153.461 238.5,156 240.898,157.199 244.211,165 245,165 245,161.615 243.419,158.337 242,155.5 240.35,152.199 244,149.355 244,148 244,148 235,149 235,149 235,150.577 233.238,151 232,151 232,151 231,152 231,152 231,154.846 229,157.382 229,161  Z"/>

<path  fill="#FEC395" stroke-width="0" stroke="#FEC395" d = " M263 169 L263,175 C258.66,175 256.299,178.4 251.5,176 249.102,174.801 245.789,167 245,167 245,167 245,165 245,165 245,161.615 243.419,158.337 242,155.5 240.35,152.199 244,149.355 244,148 244,148 247,148 247,148 251.18,148 254.537,155 258,155 258,155 258,156 258,156 258,156 259,157 259,157 259,160.68 261,162.511 261,166 261,166 262,167 262,167 262,167 262,168 262,168 262,168 263,169 263,169  Z"/>

<path  fill="#FF79FE" stroke-width="0" stroke="#FF79FE" d = " M191 153 C191,156.162 190.891,155 193,155 193,153.952 192.527,152 194,152 194,150.952 194.473,149 193,149 193,149 191,153 191,153  Z"/>

<path  fill="#FC8FFF" stroke-width="0" stroke="#FC8FFF" d = " M235 149 C233.762,149 232,149.423 232,151 233.238,151 235,150.577 235,149  Z"/>

<path  fill="#FF79FE" stroke-width="0" stroke="#FF79FE" d = " M265 153 C265,154.013 264,157.408 264,155 264,155 262,152 262,152 262,152 263,149 263,149 265.109,149 265,151.535 265,153  Z"/>

<path  fill="#CBC9CC" stroke-width="0" stroke="#CBC9CC" d = " M343 150 C343,152.067 346.825,160.849 347,160.5 347.591,159.319 344.204,150 343,150  Z"/>

<path  fill="#CBC9CC" stroke-width="0" stroke="#CBC9CC" d = " M112 151 C112,154.746 114.091,151 112,151  Z"/>

<path  fill="#FF9B88" stroke-width="0" stroke="#FF9B88" d = " M231 152 C231,154.846 229,157.382 229,161 228.504,161 225,152.975 225,152 225,152 225,151 225,151 225,151 228,152 228,152 228,153.186 229,153.186 229,152 229,152 231,152 231,152  Z"/>

<path  fill="#FF9B88" stroke-width="0" stroke="#FF9B88" d = " M232 151 L231,152 C231,152 232,151 232,151  Z"/>

<path  fill="#CBC9CC" stroke-width="0" stroke="#CBC9CC" d = " M167 152 L166,153 C166,153 167,152 167,152  Z"/>

<path  fill="#CBC9CB" stroke-width="0" stroke="#CBC9CB" d = " M155 181 L157,181 C165.738,181 177.37,163 185,163 185,163 188,163 188,163 188,163 189,162 189,162 189,157.201 192.154,160 193,160 193,160 193,155 193,155 190.891,155 191,156.162 191,153 191,153 188,152 188,152 188,152 180.5,161 180.5,161 174.499,164 167.518,166.982 163,171.5 163,171.5 154,180 154,180 154,180 154,181 154,181 154,181 155,181 155,181  Z"/>

<path  fill="#FF9B88" stroke-width="0" stroke="#FF9B88" d = " M222 205 C225.189,205 220.048,196.774 226.5,200 228.662,201.081 227.569,211 228.5,211 L229,200.5 C231.218,196.065 234,202.585 234,205 236.144,205 234.381,200.738 235,199.5 235.835,197.831 239,199.575 239,201 239,201 245.5,196 245.5,196 255.294,191.103 271,185.405 271,202 273.028,202 273.014,197 277,197 277,195.716 273.53,194.439 275,191.5 277.708,186.084 285.791,187 291,187 291,184.209 274.243,181.372 271.5,180 267.466,177.983 272,166.223 272,163 272,163 267,162 267,162 267,162 267,163 267,163 273.839,163 265,175.797 265,167 265,167 265,164 265,164 265,164 264,162 264,162 262.398,162 262.398,155 264,155 264,155 262,152 262,152 262,152 257,152 257,152 257,152 258,155 258,155 258,155 258,156 258,156 258,156 259,157 259,157 259,160.68 261,162.511 261,166 261,166 262,167 262,167 262,167 262,168 262,168 262,168 263,169 263,169 263,169 263,175 263,175 263,177.729 250.49,191 248,191 248,191 242.5,195 242.5,195 240.486,196.007 232.911,199.206 230.5,198 230.5,198 228.5,196 228.5,196 222.364,196 226.593,200.047 216.5,195 214.863,194.181 209,193.825 209,191 205.568,191 193,178.26 193,174 193,174 193,171 193,171 193,171 194,170 194,170 194,170 194,168 194,168 194,168 195,167 195,167 195,163.511 197,161.68 197,158 197,158 198,157 198,157 198,157 198,156 198,156 198,156 199,155 199,155 199,155 199,154 199,154 199,154 199,152 199,152 199,152 194,152 194,152 192.527,152 193,153.952 193,155 193,155 193,160 193,160 193,160 193,161 193,161 193,161 192,163 192,163 192,164.145 192.579,167 191,167 191,169.381 188.474,171.447 187,168.5 187,168.5 188,163 188,163 188,163 185,163 185,163 185,167.585 188.637,178.432 183.5,181 181.045,182.227 165,184.155 165,187 172.125,187 177.938,186.376 181,192.5 181,192.5 182,194.5 182,194.5 182,194.5 179,197 179,197 183.067,197 185,200.242 185,204 185.952,204 186.016,192.742 189.5,191 193.758,188.871 210.774,196.137 214.5,198 214.5,198 219,204 219,204 219,194.754 222,198.724 222,205  Z"/>

<path  fill="#FF64FF" stroke-width="0" stroke="#FF64FF" d = " M228 152 L229,152 C229,153.186 228,153.186 228,152  Z"/>

<path  fill="#CBC9CB" stroke-width="0" stroke="#CBC9CB" d = " M299 181 L302,181 C302,181 302,180 302,180 302,180 293.5,172 293.5,172 288.078,166.578 281.775,164.138 275.5,161 271.654,159.077 272.611,152 268,152 268,152 265,153 265,153 265,154.013 264,157.408 264,155 262.398,155 262.398,162 264,162 264,158.134 267,158.507 267,162 267,162 272,163 272,163 278.095,163 291.16,181 299,181  Z"/>

<path  fill="#CBC9CC" stroke-width="0" stroke="#CBC9CC" d = " M111 153 C111,158.567 113.112,153 111,153  Z"/>

<path  fill="#CBC9CC" stroke-width="0" stroke="#CBC9CC" d = " M137 153 C137,156.746 139.091,153 137,153  Z"/>

<path  fill="#CBC9CC" stroke-width="0" stroke="#CBC9CC" d = " M165 154 L164,155 C164,155 165,154 165,154  Z"/>

<path  fill="#CBC9CC" stroke-width="0" stroke="#CBC9CC" d = " M291 154 L292,155 C292,155 291,154 291,154  Z"/>

<path  fill="#CBC9CC" stroke-width="0" stroke="#CBC9CC" d = " M159 155 L158,157 C158,157 159,155 159,155  Z"/>

<path  fill="#CBC9CC" stroke-width="0" stroke="#CBC9CC" d = " M164 155 L163,156 C163,156 164,155 164,155  Z"/>

<path  fill="#FFBA84" stroke-width="0" stroke="#FFBA84" d = " M199 155 L198,156 C198,156 199,155 199,155  Z"/>

<path  fill="#CBC9CC" stroke-width="0" stroke="#CBC9CC" d = " M136 156 L135,158.5 C132.189,164.123 140.522,156 136,156  Z"/>

<path  fill="#CBC9CC" stroke-width="0" stroke="#CBC9CC" d = " M163 156 L162,157 C162,157 163,156 163,156  Z"/>

<path  fill="#FEB985" stroke-width="0" stroke="#FEB985" d = " M228 167 C228,178.764 211,179.244 211,169 211,169 211,167 211,167 212.473,167 212,165.048 212,164 212,164 212,163 212,163 212,163 213,161 213,161 213,161 217.5,156 217.5,156 222.668,153.416 228,161.148 228,165 228,165 228,167 228,167  Z"/>

<path  fill="#FEB985" stroke-width="0" stroke="#FEB985" d = " M229 167 C229,179.388 245,179.065 245,167 245,167 245,165 245,165 244.211,165 240.898,157.199 238.5,156 233.422,153.461 231.835,161 229,161 229,161 229,165 229,165 229,165 229,167 229,167  Z"/>

<path  fill="#FFBA84" stroke-width="0" stroke="#FFBA84" d = " M258 156 L259,157 C259,157 258,156 258,156  Z"/>

<path  fill="#CBC9CC" stroke-width="0" stroke="#CBC9CC" d = " M293 156 L294,157 C294,157 293,156 293,156  Z"/>

<path  fill="#CBC9CC" stroke-width="0" stroke="#CBC9CC" d = " M110 157 C110,160.746 112.091,157 110,157  Z"/>

<path  fill="#FFFC8E" stroke-width="0" stroke="#FFFC8E" d = " M155 159 L156,159 C156,159 157,158 157,158 157,158 157,157 157,157 157,157 155,157 155,157 155,157 155,159 155,159  Z"/>

<path  fill="#CBC9CC" stroke-width="0" stroke="#CBC9CC" d = " M149 177 L145,178 C145,171.695 154,166.712 154,161 154,161 155,160 155,160 155,160 156,160 156,160 156,160 156,159 156,159 156,159 157,159 157,159 157,159 157,158 157,158 157,158 157,157 157,157 157,157 158,157 158,157 158,158.747 158.253,159 160,159 160,162.677 149,170.773 149,177  Z"/>

<path  fill="#CBC9CC" stroke-width="0" stroke="#CBC9CC" d = " M162 157 L161,158 C161,158 162,157 162,157  Z"/>

<path  fill="#FFBA84" stroke-width="0" stroke="#FFBA84" d = " M198 157 L197,158 C197,158 198,157 198,157  Z"/>

<path  fill="#FFFC8E" stroke-width="0" stroke="#FFFC8E" d = " M300 158 L302,161 C302,161 301,157 301,157 301,157 300,158 300,158  Z"/>

<path  fill="#F0F080" stroke-width="0" stroke="#F0F080" d = " M156 159 L157,159 C157,159 157,158 157,158 157,158 156,159 156,159  Z"/>

<path  fill="#CBC9CC" stroke-width="0" stroke="#CBC9CC" d = " M161 158 L160,159 C160,159 161,158 161,158  Z"/>

<path  fill="#FF79FE" stroke-width="0" stroke="#FF79FE" d = " M192 163 C192,164.145 192.579,167 191,167 191,164.823 191.641,163 189,163 189,163 189,162 189,162 189,157.201 192.154,160 193,160 193,160 193,161 193,161 193,161 192,163 192,163  Z"/>

<path  fill="#F0F080" stroke-width="0" stroke="#F0F080" d = " M155 160 L156,160 C156,160 156,159 156,159 156,159 155,159 155,159 155,159 155,160 155,160  Z"/>

<path  fill="#FF79FE" stroke-width="0" stroke="#FF79FE" d = " M267 163 L265,164 C265,164 264,162 264,162 264,158.134 267,158.507 267,162 267,162 267,163 267,163  Z"/>

<path  fill="#CBC9CC" stroke-width="0" stroke="#CBC9CC" d = " M109 160 C109,163.746 111.091,160 109,160  Z"/>

<path  fill="#FFFC8E" stroke-width="0" stroke="#FFFC8E" d = " M155 160 L154,161 C154,161 155,160 155,160  Z"/>

<path  fill="#CBC9CC" stroke-width="0" stroke="#CBC9CC" d = " M121 201 L117,205 C117,205 108.5,207 108.5,207 107.368,206.434 108.844,203.328 109.5,203 114.82,200.34 121,197.248 121,190 121,183.177 106,178.439 106,172 106,172 106,171 106,171 108.033,171 109.256,171 111,171 117.013,171 121.756,172.872 127.5,170 127.5,170 134.5,161 134.5,161 135.479,161 132.077,169.654 133,171.5 136.421,178.342 138.678,178 145,178 145,179.429 143.712,182 142,182 142,182 141,182 141,182 141,182 140,181 140,181 140,181 136,179 136,179 136,179 129.5,174 129.5,174 127.847,173.174 125.69,174.405 124.5,175 124.5,175 120.5,175 120.5,175 113.977,178.261 125,186.031 125,189 125,189 126,194.5 126,194.5 126,194.5 123,199 123,199 123,199 122,200 122,200 122,200 121,201 121,201  Z"/>

<path  fill="#CBC9CB" stroke-width="0" stroke="#CBC9CB" d = " M193 161 L192,163 C192,163 193,161 193,161  Z"/>

<path  fill="#FFBA84" stroke-width="0" stroke="#FFBA84" d = " M213 161 L212,163 C212,163 213,161 213,161  Z"/>

<path  fill="#FF9B88" stroke-width="0" stroke="#FF9B88" d = " M188 163 L189,163 C189,163 189,162 189,162 189,162 188,163 188,163  Z"/>

<path  fill="#FFAD6D" stroke-width="0" stroke="#FFAD6D" d = " M165 187 L161,188 C161,188 157,187 157,187 157,187 157,185 157,185 157,185 157,181 157,181 165.738,181 177.37,163 185,163 185,167.585 188.637,178.432 183.5,181 181.045,182.227 165,184.155 165,187  Z"/>

<path  fill="#FFAD6D" stroke-width="0" stroke="#FFAD6D" d = " M189 163 C191.641,163 191,164.823 191,167 191,169.381 188.474,171.447 187,168.5 187,168.5 188,163 188,163 188,163 189,163 189,163  Z"/>

<path  fill="#FFAD6D" stroke-width="0" stroke="#FFAD6D" d = " M267 163 C273.839,163 265,175.797 265,167 L265,164 C265,164 267,163 267,163  Z"/>

<path  fill="#FFAD6D" stroke-width="0" stroke="#FFAD6D" d = " M294 188 L295,188 C297.554,188 298.688,185 300,185 300,185 300,183 300,183 300,183 299,181 299,181 291.16,181 278.095,163 272,163 272,166.223 267.466,177.983 271.5,180 274.243,181.372 291,184.209 291,187 291,187 293,187 293,187 293,187 294,188 294,188  Z"/>

<path  fill="#FFBA84" stroke-width="0" stroke="#FFBA84" d = " M212 164 C210.527,164 211,165.952 211,167 212.473,167 212,165.048 212,164  Z"/>

<path  fill="#FF9B88" stroke-width="0" stroke="#FF9B88" d = " M228 167 L229,167 C229,167 229,165 229,165 229,165 228,165 228,165 228,165 228,167 228,167  Z"/>

<path  fill="#FFBA84" stroke-width="0" stroke="#FFBA84" d = " M261 166 L262,167 C262,167 261,166 261,166  Z"/>

<path  fill="#FFBA84" stroke-width="0" stroke="#FFBA84" d = " M195 167 L194,168 C194,168 195,167 195,167  Z"/>

<path  fill="#FFBA84" stroke-width="0" stroke="#FFBA84" d = " M209 191 C209,186.818 218.646,189.427 221.5,188 225.51,185.995 222.55,175 228.5,175 234.648,175 230.464,185.482 233.5,187 235.795,188.148 248,187.718 248,191 250.49,191 263,177.729 263,175 258.66,175 256.299,178.4 251.5,176 249.102,174.801 245.789,167 245,167 245,179.065 229,179.388 229,167 229,167 228,167 228,167 228,178.764 211,179.244 211,169 209.92,169 204.529,175.985 202.5,177 198.79,178.855 195.72,174 193,174 193,178.26 205.568,191 209,191  Z"/>

<path  fill="#FFBA84" stroke-width="0" stroke="#FFBA84" d = " M262 168 L263,169 C263,169 262,168 262,168  Z"/>

<path  fill="#FFBA84" stroke-width="0" stroke="#FFBA84" d = " M194 170 L193,171 C193,171 194,170 194,170  Z"/>

<path  fill="#FFFC8D" stroke-width="0" stroke="#FFFC8D" d = " M95 187 C98.4566,187 103.643,183.072 107.5,185 111.029,186.764 116.958,190 121,190 121,183.177 106,178.439 106,172 97.4918,172 82.7878,187 95,187  Z"/>

<path  fill="#FFFC8D" stroke-width="0" stroke="#FFFC8D" d = " M362 187 C358.356,187 352.431,183.034 348.5,185 344.366,187.067 341.107,189 336,189 336,184.027 351,176.249 351,172 359.581,172 373.126,187 362,187  Z"/>

<path  fill="#CCCCCA" stroke-width="0" stroke="#CCCCCA" d = " M125 189 C128.036,189 126.095,194 130,194 130,194 139,185 139,185 139,185 140,184 140,184 140,184 141,183 141,183 141,183 141,182 141,182 141,182 140,181 140,181 138.535,181 136,181.109 136,179 136,179 129.5,174 129.5,174 127.847,173.174 125.69,174.405 124.5,175 124.5,175 120.5,175 120.5,175 113.977,178.261 125,186.031 125,189  Z"/>

<path  fill="#CCCCCA" stroke-width="0" stroke="#CCCCCA" d = " M331 189 L327,194 C327,194 315,183 315,183 315,183 315,182 315,182 315,182 317,181 317,181 317,181 319,180 319,180 319,180 320,179 320,179 322.848,179 325.089,175.206 327.5,174 329.153,173.174 331.31,174.405 332.5,175 332.5,175 336.5,175 336.5,175 342.582,178.041 331,186.492 331,189  Z"/>

<path  fill="#FEC294" stroke-width="0" stroke="#FEC294" d = " M209 191 C209,193.825 214.863,194.181 216.5,195 226.593,200.047 222.364,196 228.5,196 L230.5,198 C232.911,199.206 240.486,196.007 242.5,195 L248,191 C248,187.718 235.795,188.148 233.5,187 230.464,185.482 234.648,175 228.5,175 222.55,175 225.51,185.995 221.5,188 218.646,189.427 209,186.818 209,191  Z"/>

<path  fill="#FEAD6E" stroke-width="0" stroke="#FEAD6E" d = " M139 192 C141.566,192 151,186.772 151,193 154.795,193 154.903,187 157,187 157,187 157,185 157,185 157,185 155,181 155,181 155,181 154,181 154,181 154,181 153,180 153,180 153,180 149,177 149,177 149,177 145,178 145,178 145,179.429 143.712,182 142,182 142,182 141,183 141,183 141,183 140,184 140,184 140,184 139,185 139,185 139,186.296 136.678,192 139,192  Z"/>

<path  fill="#FEAD6E" stroke-width="0" stroke="#FEAD6E" d = " M317 192 C315.243,192 305,186.551 305,193 301.216,193 300,188.008 300,185 300,185 300,183 300,183 300,183 302,181 302,181 302,181 303,180 303,180 305.364,180 306.053,177 308,177 311.153,177 312.304,182 315,182 315,182 315,183 315,183 315,184.156 322.302,192 317,192  Z"/>

<path  fill="#F0F080" stroke-width="0" stroke="#F0F080" d = " M136 179 L140,181 C138.535,181 136,181.109 136,179  Z"/>

<path  fill="#F0F080" stroke-width="0" stroke="#F0F080" d = " M320 179 L319,180 C319,180 320,179 320,179  Z"/>

<path  fill="#FF9B88" stroke-width="0" stroke="#FF9B88" d = " M154 180 L154,181 C154,181 153,180 153,180 153,180 154,180 154,180  Z"/>

<path  fill="#FF9B88" stroke-width="0" stroke="#FF9B88" d = " M303 180 L302,181 C302,181 302,180 302,180 302,180 303,180 303,180  Z"/>

<path  fill="#F0F080" stroke-width="0" stroke="#F0F080" d = " M319 180 L317,181 C317,181 319,180 319,180  Z"/>

<path  fill="#FF9B88" stroke-width="0" stroke="#FF9B88" d = " M157 181 L157,185 C157,185 155,181 155,181 155,181 157,181 157,181  Z"/>

<path  fill="#FF9B88" stroke-width="0" stroke="#FF9B88" d = " M302 181 L300,183 C300,183 299,181 299,181 299,181 302,181 302,181  Z"/>

<path  fill="#FF9B88" stroke-width="0" stroke="#FF9B88" d = " M142 182 L141,183 C141,183 141,182 141,182 141,182 142,182 142,182  Z"/>

<path  fill="#FF9B88" stroke-width="0" stroke="#FF9B88" d = " M141 183 L140,184 C140,184 141,183 141,183  Z"/>

<path  fill="#FF9B88" stroke-width="0" stroke="#FF9B88" d = " M325 213 L321,215 C321,210.319 327.849,205.199 325,199.5 325,199.5 317,192 317,192 322.302,192 315,184.156 315,183 315,183 327,194 327,194 327,194 327,199 327,199 327,199 328,209 328,209 328,209 325,213 325,213  Z"/>

<path  fill="#FF9B88" stroke-width="0" stroke="#FF9B88" d = " M140 184 L139,185 C139,185 140,184 140,184  Z"/>

<path  fill="#FEF991" stroke-width="0" stroke="#FEF991" d = " M107 227 L103,230 C98.3571,230 94.7744,225.049 93,221.5 91.3595,218.219 86.1725,214.845 84,210.5 80.1242,202.748 95,189.613 95,187 98.4566,187 103.643,183.072 107.5,185 111.029,186.764 116.958,190 121,190 121,197.248 114.82,200.34 109.5,203 108.844,203.328 107.368,206.434 108.5,207 108.5,207 117,205 117,205 117,205 118,207 118,207 118,207 117,208 117,208 117,208 117,209 117,209 117,209 117,210 117,210 117,210 116,211 116,211 116,211 115,213 115,213 115,213 115,214 115,214 115,214 114,215 114,215 114,215 112,220 112,220 112,220 111,221 111,221 111,221 108,226 108,226 108,226 107,227 107,227  Z"/>

<path  fill="#FF9B88" stroke-width="0" stroke="#FF9B88" d = " M132 213 C136.182,213 136.407,223 139,223 139,216.726 133.664,209.828 131,204.5 128.012,198.524 139,195.761 139,192 136.678,192 139,186.296 139,185 139,185 130,194 130,194 130,194 129,198 129,198 129,201.071 129,203.362 129,207 129,208.999 129.067,213 132,213  Z"/>

<path  fill="#FF9B88" stroke-width="0" stroke="#FF9B88" d = " M300 199 C302.25,199 303.376,201 305,201 305,201 305,193 305,193 301.216,193 300,188.008 300,185 298.688,185 297.554,188 295,188 295,188 299,191.5 299,191.5 299,191.5 300,199 300,199  Z"/>

<path  fill="#FEF991" stroke-width="0" stroke="#FEF991" d = " M349 227 L353,230 C356.68,230 360.444,226.612 362,223.5 363.782,219.935 375.676,211.852 373,206.5 373,206.5 369,196.5 369,196.5 367.357,193.214 362,191.145 362,187 358.356,187 352.431,183.034 348.5,185 344.366,187.067 341.107,189 336,189 336,189 335,190 335,190 335,195.098 339.602,200.051 343.5,202 344.02,202.26 351.547,205.477 348.5,207 345.442,208.529 341.75,204 339,204 339,204 339,207 339,207 339,207 339,208 339,208 339,208 339,210 339,210 339,210 340,211 340,211 340,211 341,212 341,212 341,212 341,213 341,213 341,213 342,214 342,214 342,214 342,215 342,215 342,215 343,216 343,216 343,217.048 342.527,219 344,219 344,219 345,220 345,220 345,220 345,221 345,221 345,221 346,222 346,222 346,222 347,224 347,224 347,224 349,226 349,226 349,226 349,227 349,227  Z"/>

<path  fill="#FF9B88" stroke-width="0" stroke="#FF9B88" d = " M158 201 C156.26,201 152,196.14 152,203 150.237,203 151,194.657 151,193 154.795,193 154.903,187 157,187 157,187 161,188 161,188 161,190.568 150.615,199 158,199 158,199 158,201 158,201  Z"/>

<path  fill="#FEBA86" stroke-width="0" stroke="#FEBA86" d = " M175 197 L179,197 C179,197 182,194.5 182,194.5 182,194.5 181,192.5 181,192.5 177.938,186.376 172.125,187 165,187 165,187 161,188 161,188 161,190.568 150.615,199 158,199 158,199 163.5,196 163.5,196 163.5,196 174,197 174,197 174,197 175,197 175,197  Z"/>

<path  fill="#FEBA86" stroke-width="0" stroke="#FEBA86" d = " M298 199 L300,199 C300,199 299,191.5 299,191.5 299,191.5 295,188 295,188 295,188 294,188 294,188 294,188 293,187 293,187 293,187 291,187 291,187 285.791,187 277.708,186.084 275,191.5 273.53,194.439 277,195.716 277,197 277,197 281,197 281,197 281,197 282,197 282,197 282,197 292.5,196 292.5,196 293.546,196.523 297.792,199 298,199  Z"/>

<path  fill="#FF9B88" stroke-width="0" stroke="#FF9B88" d = " M293 187 L294,188 C294,188 293,187 293,187  Z"/>

<path  fill="#F0F080" stroke-width="0" stroke="#F0F080" d = " M129 198 L123,199 C123,199 126,194.5 126,194.5 126,194.5 125,189 125,189 128.036,189 126.095,194 130,194 130,194 129,198 129,198  Z"/>

<path  fill="#F0F080" stroke-width="0" stroke="#F0F080" d = " M327 199 C328.929,199 330.848,199 333,199 333,197.954 331,192.526 331,189 331,189 327,194 327,194 327,194 327,199 327,199  Z"/>

<path  fill="#FFFC8D" stroke-width="0" stroke="#FFFC8D" d = " M336 189 L335,190 C335,190 336,189 336,189  Z"/>

<path  fill="#FFAE6F" stroke-width="0" stroke="#FFAE6F" d = " M142 255 C144.46,255 146.17,259 149,259 153.935,259 156,255.586 156,251 156,251 155,234 155,234 152.104,234 153,225.203 153,223 153,223 152,203 152,203 150.237,203 151,194.657 151,193 151,186.772 141.566,192 139,192 139,195.761 128.012,198.524 131,204.5 133.664,209.828 139,216.726 139,223 139,223 139,225 139,225 140.602,225 140.602,232 139,232 139,232 139,235 139,235 139,236.048 139.473,238 138,238 138,238 138,241 138,241 138,241 137,242 137,242 137,242 137,245 137,245 137,245 138,247 138,247 138,247 139,251 139,251 139,251 141,253 141,253 141,253 141,254 141,254 141,254 142,255 142,255  Z"/>

<path  fill="#FFAE6F" stroke-width="0" stroke="#FFAE6F" d = " M312 257 L307,259 C300.236,259 300.934,251 300,251 300,251 301,235 301,235 303.983,235 303,225.293 303,223 303,215.496 305,208.814 305,201 305,201 305,193 305,193 305,186.551 315.243,192 317,192 317,192 325,199.5 325,199.5 327.849,205.199 321,210.319 321,215 318.891,215 319,217.535 319,219 317.005,219 317,223.377 317,225 317,225 317,232 317,232 317,233.145 316.421,236 318,236 318,236 318,239 318,239 318,239 319,240 319,240 319,240 319,247 319,247 319,247 318,249 318,249 318,249 317,251 317,251 317,251 315,254 315,254 315,254 314,255 314,255 314,255 313,256 313,256 313,256 312,257 312,257  Z"/>

<path  fill="#FDBA86" stroke-width="0" stroke="#FDBA86" d = " M201 274 L202,274 C202,272.527 203.952,273 205,273 205,273 207,273 207,273 207,273 208,272 208,272 208,272 209,271 209,271 209,266.738 224,258.015 224,251 224,251 222,241 222,241 216.943,241 215.891,225.283 214,221.5 213.56,220.62 211.784,215.858 213.5,215 219.646,211.927 218.308,225 221,225 221,225 221,209.5 221,209.5 221,209.5 219,205 219,205 219,205 219,204 219,204 219,204 214.5,198 214.5,198 210.774,196.137 193.758,188.871 189.5,191 186.016,192.742 185.952,204 185,204 185,204 185,217 185,217 185,229.639 184,241.8 184,254 184,254 184,262 184,262 184,265.773 189,270.066 189,271 189,271 195,274 195,274 195,274 201,274 201,274  Z"/>

<path  fill="#FDBA86" stroke-width="0" stroke="#FDBA86" d = " M255 274 L262,274 C262,274 266,272 266,272 266,272 267,271 267,271 267,270.438 272,266.639 272,262 272,260.181 273,257.409 273,255 271.242,255 272,247.116 272,245.5 272,245.5 271,216 271,216 271,216 271,202 271,202 271,185.405 255.294,191.103 245.5,196 245.5,196 239,201 239,201 239,201 238,203 238,203 238,203 238,204 238,204 238,204 237,205 237,205 237,205 237,206 237,206 237,206 235,211.5 235,211.5 235,211.5 235,227 235,227 237.718,227 235.984,211.742 242.5,215 244.524,216.012 239.412,232.676 238,235.5 237.264,236.973 238.385,240.057 236.5,241 236.5,241 234,240 234,240 234,240 232,251 232,251 232,251 234.5,256 234.5,256 236.929,258.429 247,270.043 247,271 248.238,271 250,271.423 250,273 250,273 251,273 251,273 252.048,273 254,272.527 254,274 254,274 255,274 255,274  Z"/>

<path  fill="#FEB986" stroke-width="0" stroke="#FEB986" d = " M159 221 C160.946,221 164.036,226.232 166.5,225 L171,221 C171,221 175,213.5 175,213.5 177.36,208.78 175,202.709 175,198 175,198 174,197 174,197 174,197 163.5,196 163.5,196 163.5,196 158,199 158,199 158,199 158,201 158,201 158,201 157,215.5 157,215.5 157,215.5 159,221 159,221  Z"/>

<path  fill="#FEB986" stroke-width="0" stroke="#FEB986" d = " M285 221 L290.5,225 L297,222 C297,219.408 297.958,218.584 299,216.5 300.733,213.035 299,202.733 299,200 299,200 298,199 298,199 297.792,199 293.546,196.523 292.5,196 292.5,196 282,197 282,197 282,197 281,198 281,198 281,202.602 278.898,208.296 281,212.5 281,212.5 285,221 285,221  Z"/>

<path  fill="#FF9B88" stroke-width="0" stroke="#FF9B88" d = " M175 197 L175,198 C175,198 174,197 174,197 174,197 175,197 175,197  Z"/>

<path  fill="#FEB886" stroke-width="0" stroke="#FEB886" d = " M185 217 L178.5,223 C176.85,223.825 171,223.268 171,221 171,221 175,213.5 175,213.5 177.36,208.78 175,202.709 175,198 175,198 175,197 175,197 175,197 179,197 179,197 183.067,197 185,200.242 185,204 185,204 185,217 185,217  Z"/>

<path  fill="#FEB886" stroke-width="0" stroke="#FEB886" d = " M271 216 L274.5,221 C276.427,221.964 285,225.526 285,221 285,221 281,212.5 281,212.5 278.898,208.296 281,202.602 281,198 281,198 281,197 281,197 281,197 277,197 277,197 273.014,197 273.028,202 271,202 271,202 271,216 271,216  Z"/>

<path  fill="#FF9B88" stroke-width="0" stroke="#FF9B88" d = " M282 197 L281,198 C281,198 281,197 281,197 281,197 282,197 282,197  Z"/>

<path  fill="#FEA4D2" stroke-width="0" stroke="#FEA4D2" d = " M114 256 L117.5,259 L122,257 C122,255.679 121.316,251 123,251 123,240.566 121.153,226.194 126,216.5 126.69,215.12 127.55,207 129,207 129,203.362 129,201.071 129,198 129,198 123,199 123,199 123,199 122,200 122,200 122,200 121,201 121,201 121,201 121,203 121,203 121,203 120,204 120,204 120,204 119,205 119,205 119,205 118,207 118,207 118,207 118,208 118,208 118,208 117,209 117,209 117,209 117,210 117,210 117,210 116,211 116,211 116,211 115,213 115,213 115,213 115,214 115,214 115,214 114,215 114,215 114,215 112,220 112,220 112,220 111,221 111,221 111,221 108,226 108,226 108,226 107,227 107,227 107,228.145 107.579,231 106,231 106,234.303 108,236.115 108,239 108,239 109,240 109,240 109,240 109,242 109,242 109,242 110,243 110,243 110,243 110,244 110,244 110,244 111,245 111,245 111,248.157 113,250.481 113,254 113,254 114,255 114,255 114,255 114,256 114,256  Z"/>

<path  fill="#FEA4D2" stroke-width="0" stroke="#FEA4D2" d = " M343 255 L338.5,259 L334,256 C334,254.533 334,252.467 334,251 334,241.151 335.167,226.833 331,218.5 330.31,217.12 329.45,209 328,209 328,209 327,199 327,199 328.929,199 330.848,199 333,199 333,199 335,201 335,201 335,201 335,202 335,202 335,202 337,205 337,205 337,205 337,206 337,206 337,206 339,208 339,208 339,208 339,210 339,210 339,210 340,211 340,211 340,211 341,212 341,212 341,212 341,213 341,213 341,213 341,214 341,214 341,214 342,215 342,215 342,215 343,216 343,216 343,217.048 342.527,219 344,219 344,219 345,220 345,220 345,220 345,221 345,221 345,221 346,222 346,222 346,222 347,224 347,224 347,224 349,226 349,226 349,226 349,227 349,227 349,227 350,231 350,231 350,234.324 348,237.16 348,240 348,240 347,241 347,241 347,245.769 343,249.687 343,255  Z"/>

<path  fill="#F0F080" stroke-width="0" stroke="#F0F080" d = " M123 199 L122,200 C122,200 123,199 123,199  Z"/>

<path  fill="#FEB984" stroke-width="0" stroke="#FEB984" d = " M159 221 C159,225.079 155.244,223 153,223 153,223 152,203 152,203 152,196.14 156.26,201 158,201 158,201 157,215.5 157,215.5 157,215.5 159,221 159,221  Z"/>

<path  fill="#CBCBCC" stroke-width="0" stroke="#CBCBCC" d = " M222 205 L222,208 C222,210.482 219.785,205 219,205 219,205 219,204 219,204 219,194.754 222,198.724 222,205  Z"/>

<path  fill="#FFC294" stroke-width="0" stroke="#FFC294" d = " M222 208 L225.5,215 L228.5,212 L229.5,215 C231.948,216.224 234,209.17 234,208 234,208 234,205 234,205 234,202.585 231.218,196.065 229,200.5 229,200.5 228.5,211 228.5,211 227.569,211 228.662,201.081 226.5,200 220.048,196.774 225.189,205 222,205 222,205 222,208 222,208  Z"/>

<path  fill="#CBCBCC" stroke-width="0" stroke="#CBCBCC" d = " M237 206 L234,208 C234,208 234,205 234,205 236.144,205 234.381,200.738 235,199.5 235.835,197.831 239,199.575 239,201 239,201 238,203 238,203 238,203 238,204 238,204 238,204 237,205 237,205 237,205 237,206 237,206  Z"/>

<path  fill="#FF9B88" stroke-width="0" stroke="#FF9B88" d = " M300 199 L299,200 C299,200 298,199 298,199 298,199 300,199 300,199  Z"/>

<path  fill="#FEB984" stroke-width="0" stroke="#FEB984" d = " M297 222 C297,224.962 301.707,223 303,223 303,215.496 305,208.814 305,201 303.376,201 302.25,199 300,199 300,199 299,200 299,200 299,202.733 300.733,213.035 299,216.5 297.958,218.584 297,219.408 297,222  Z"/>

<path  fill="#FF9BCD" stroke-width="0" stroke="#FF9BCD" d = " M335 200 L335,201 C335,201 333,199 333,199 333,199 334,199 334,199 334,199 335,200 335,200  Z"/>

<path  fill="#F0F080" stroke-width="0" stroke="#F0F080" d = " M334 199 L335,200 C335,200 334,199 334,199  Z"/>

<path  fill="#F0F080" stroke-width="0" stroke="#F0F080" d = " M122 200 L121,201 C121,201 122,200 122,200  Z"/>

<path  fill="#F0F080" stroke-width="0" stroke="#F0F080" d = " M119 205 L118,207 C118,207 117,205 117,205 117,205 121,201 121,201 121,201 121,203 121,203 121,203 120,204 120,204 120,204 119,205 119,205  Z"/>

<path  fill="#FF9B88" stroke-width="0" stroke="#FF9B88" d = " M239 201 L238,203 C238,203 239,201 239,201  Z"/>

<path  fill="#F0F080" stroke-width="0" stroke="#F0F080" d = " M337 206 L339,207 C339,207 339,204 339,204 339,204 335,201 335,201 335,201 335,202 335,202 336.577,202 337,203.762 337,205 337,205 337,206 337,206  Z"/>

<path  fill="#FF9BCD" stroke-width="0" stroke="#FF9BCD" d = " M335 202 C336.577,202 337,203.762 337,205 337,205 335,202 335,202  Z"/>

<path  fill="#FF9BCD" stroke-width="0" stroke="#FF9BCD" d = " M121 203 L120,204 C120,204 121,203 121,203  Z"/>

<path  fill="#FF9BCD" stroke-width="0" stroke="#FF9BCD" d = " M120 204 L119,205 C119,205 120,204 120,204  Z"/>

<path  fill="#FF9B88" stroke-width="0" stroke="#FF9B88" d = " M238 204 L237,205 C237,205 238,204 238,204  Z"/>

<path  fill="#FF9B88" stroke-width="0" stroke="#FF9B88" d = " M225 258 L226,258 C226,258 226,250.5 226,250.5 227.719,247.061 231,250.64 231,253 231,253 232,251 232,251 232,251 234,240 234,240 234,240 235,227 235,227 235,227 235,211.5 235,211.5 235,211.5 237,206 237,206 237,206 234,208 234,208 234,209.17 231.948,216.224 229.5,215 229.5,215 228.5,212 228.5,212 228.5,212 225.5,215 225.5,215 225.5,215 222,208 222,208 222,210.482 219.785,205 219,205 219,205 221,209.5 221,209.5 221,209.5 221,225 221,225 221,225 221,229 221,229 221,229 222,231 222,231 222,234.721 222,237.881 222,241 222,241 224,251 224,251 225.714,251 225,256.594 225,258  Z"/>

<path  fill="#FF9BCD" stroke-width="0" stroke="#FF9BCD" d = " M339 207 L339,208 C339,208 337,206 337,206 337,206 339,207 339,207  Z"/>

<path  fill="#F0F080" stroke-width="0" stroke="#F0F080" d = " M117 208 L118,208 C118,208 118,207 118,207 118,207 117,208 117,208  Z"/>

<path  fill-rule="evenodd" fill="#FF9BCD" stroke-width="0" stroke="#FF9BCD" d = " M200 277 L199,279.5 C200.026,281.551 210.248,277 200,277  M179 288 C187.121,288 202.444,286.472 209.5,290 210.85,290.675 219,290.247 219,289 215.128,289 210.76,288 207.5,288 206.593,288 203.335,286.831 204,285.5 206.996,279.507 220.879,280 226,280 226,280 226,277 226,277 226,277 218.5,277 218.5,277 216.202,275.851 220.649,269.426 221.5,269 221.5,269 226,270 226,270 226,270 226,258 226,258 226,258 225,258 225,258 225,267.452 217.762,271 209,271 209,271 208,272 208,272 208,272 207,273 207,273 207,273 205,273 205,273 205,274.473 203.048,274 202,274 202,274 201,274 201,274 201,275.951 198.546,274.477 197.5,275 197.5,275 195,279 195,279 195,279 195,280 195,280 195,280 194,281 194,281 194,283.226 192.226,285 190,285 190,287.279 195,284.97 195,286.5 195,287.815 186,286.283 186,285 186,285 183,285 183,285 180.802,285 171,285.238 171,283 171,283 170,283 170,283 170,283 169,283 169,283 169,284.168 164.634,283.567 163.5,283 163.5,283 153,277.5 153,277.5 151.414,275.914 149.238,270.869 153.5,273 153.5,273 156,275 156,275 156,275 154,270.5 154,270.5 154,269.25 158.5,260.5 160,263.5 161.595,266.69 160.126,277 165,277 165,277 165,276 165,276 165,276 164,275 164,275 164,275 164,274 164,274 164,274 163,273 163,273 163,273 163,269 163,269 163,269 163,267 163,267 163,264.53 162.684,257 166,257 166,251.828 169.844,242 176,242 176,240.287 171.12,233 169,233 169,233 165,241 165,241 166.639,241 167.455,239 168.5,239 168.5,239 169,244 169,244 169,246.611 160,257.949 160,250 160,250 157,251 157,251 157,253.342 156.869,261 154,261 154,271.141 141.776,265.138 137.5,263 132.071,260.286 130,247.34 130,241 120.854,241 125.897,214 132,214 132,214 132,213 132,213 129.067,213 129,208.999 129,207 127.55,207 126.69,215.12 126,216.5 121.153,226.194 123,240.566 123,251 124.602,251 125.384,247.942 127.5,249 129.176,249.838 130.384,263.058 128.5,264 123.486,266.507 125.107,257 122,257 122,257 117.5,259 117.5,259 117.5,259 114,256 114,256 114,262.457 118.662,284.419 129.5,279 129.5,279 133.5,275 133.5,275 133.5,275 140.5,273 140.5,273 140.5,273 150,277 150,277 150,277 152,279 152,279 152,279 154,280 154,280 154,280 155,281 155,281 155,281 156,281 156,281 156,281 157,282 157,282 157,282 160,283 160,283 160,283 162,285 162,285 162,285 165,285 165,285 165,285 166,286 166,286 166,286 167,286 167,286 167,286 169,287 169,287 169,287 177,287 177,287 177,287 179,288 179,288  Z"/>

<path  fill="#FF9BCD" stroke-width="0" stroke="#FF9BCD" d = " M118 208 L117,209 C117,209 117,208 117,208 117,208 118,208 118,208  Z"/>

<path  fill="#FF9BCD" stroke-width="0" stroke="#FF9BCD" d = " M299 281 L300,281 C303.669,281 312.011,274.744 315.5,273 318.825,271.338 324.905,277.703 327.5,279 338.06,284.28 343,261.269 343,255 343,255 338.5,259 338.5,259 338.5,259 334,256 334,256 334,256 332,260.5 332,260.5 332,260.5 330.5,264 330.5,264 326.139,266.18 325.728,250.386 328.5,249 328.5,249 334,251 334,251 334,241.151 335.167,226.833 331,218.5 330.31,217.12 329.45,209 328,209 328,209 325,213 325,213 325,213 325,214 325,214 326.602,214 333.757,229.986 332,233.5 331.143,235.213 329.59,236.319 329,237.5 328.392,238.716 327.816,243 326,243 326,248.94 324.486,260.007 318.5,263 314.261,265.119 303,271.253 303,261 299.992,261 299,253.884 299,251 299,251 296,250 296,250 296,257.714 284.61,244.281 287,239.5 288.522,236.456 294.661,247 295,247 295,244.709 289.486,234 287,234 284.842,234 281,239.64 281,242 286.238,242 291,252.909 291,257 291,258.046 293,263.474 293,267 293,267 293,268 293,268 293,268 293,269 293,269 294.399,269 294.399,271 293,271 293,271 293,274 293,274 293,274 293,275 293,275 296.72,275 294.932,265.635 296,263.5 296.715,262.07 300.499,264.497 301,265.5 302.51,268.52 301,271.194 301,274 301,274 303.5,273 303.5,273 305.965,271.767 305.45,275.6 305,276.5 305,276.5 299,281 299,281  Z"/>

<path  fill="#F0F080" stroke-width="0" stroke="#F0F080" d = " M117 210 L116,211 C116,211 117,210 117,210  Z"/>

<path  fill="#FF9BCD" stroke-width="0" stroke="#FF9BCD" d = " M339 210 L340,211 C340,211 339,210 339,210  Z"/>

<path  fill="#F0F080" stroke-width="0" stroke="#F0F080" d = " M116 211 L115,213 C115,213 116,211 116,211  Z"/>

<path  fill="#F0F080" stroke-width="0" stroke="#F0F080" d = " M340 211 L341,212 C341,212 340,211 340,211  Z"/>

<path  fill="#C8CACA" stroke-width="0" stroke="#C8CACA" d = " M149 259 C149,260.638 152.576,261 154,261 154,271.141 141.776,265.138 137.5,263 132.071,260.286 130,247.34 130,241 131.7,241 131,235.863 131,234.5 131,226.949 132,220.846 132,214 132,214 132,213 132,213 136.182,213 136.407,223 139,223 139,223 139,225 139,225 139,225 139,232 139,232 139,232 139,235 139,235 137.527,235 138,236.952 138,238 138,238 138,241 138,241 138,241 137,242 137,242 137,242 137,245 137,245 137,245 138,247 138,247 138,247 139,251 139,251 139,251 141,253 141,253 141,253 141,254 141,254 141,254 142,255 142,255 144.46,255 146.17,259 149,259  Z"/>

<path  fill="#C8CACA" stroke-width="0" stroke="#C8CACA" d = " M307 259 L303,261 C303,271.253 314.261,265.119 318.5,263 324.486,260.007 326,248.94 326,243 326,233.672 325,223.005 325,214 325,214 325,213 325,213 325,213 321,215 321,215 321,215 319,219 319,219 319,220.357 318.353,225 317,225 317,225 317,232 317,232 318.579,232 318,234.855 318,236 318,236 318,239 318,239 318,239 319,240 319,240 319,240 319,247 319,247 319,247 318,249 318,249 318,249 317,251 317,251 317,251 315,254 315,254 315,254 314,255 314,255 314,255 313,256 313,256 313,256 312,257 312,257 312,257 307,259 307,259  Z"/>

<path  fill="#F0F080" stroke-width="0" stroke="#F0F080" d = " M341 214 L342,214 C342,214 341,213 341,213 341,213 341,214 341,214  Z"/>

<path  fill="#F0F080" stroke-width="0" stroke="#F0F080" d = " M115 214 L114,215 C114,215 115,214 115,214  Z"/>

<path  fill="#C9CACB" stroke-width="0" stroke="#C9CACB" d = " M132 214 C125.897,214 120.854,241 130,241 131.7,241 131,235.863 131,234.5 131,226.949 132,220.846 132,214  Z"/>

<path  fill="#C9CACB" stroke-width="0" stroke="#C9CACB" d = " M325 214 C326.602,214 333.757,229.986 332,233.5 331.143,235.213 329.59,236.319 329,237.5 328.392,238.716 327.816,243 326,243 326,233.672 325,223.005 325,214  Z"/>

<path  fill="#FF9BCD" stroke-width="0" stroke="#FF9BCD" d = " M342 214 L342,215 C342,215 341,214 341,214 341,214 342,214 342,214  Z"/>

<path  fill="#C8C8CC" stroke-width="0" stroke="#C8C8CC" d = " M222 231 C222,234.721 222,237.881 222,241 216.943,241 215.891,225.283 214,221.5 213.56,220.62 211.784,215.858 213.5,215 219.646,211.927 218.308,225 221,225 221,225 221,229 221,229 221,229 222,231 222,231  Z"/>

<path  fill="#C8C8CC" stroke-width="0" stroke="#C8C8CC" d = " M235 227 C237.718,227 235.984,211.742 242.5,215 244.524,216.012 239.412,232.676 238,235.5 237.264,236.973 238.385,240.057 236.5,241 L234,240 C234,240 235,227 235,227  Z"/>

<path  fill="#FF9B88" stroke-width="0" stroke="#FF9B88" d = " M321 215 C318.891,215 319,217.535 319,219 319,219 321,215 321,215  Z"/>

<path  fill="#F0F080" stroke-width="0" stroke="#F0F080" d = " M342 215 L343,216 C343,216 342,215 342,215  Z"/>

<path  fill="#FF9B88" stroke-width="0" stroke="#FF9B88" d = " M281 242 C272.131,242 273,246.088 273,255 271.242,255 272,247.116 272,245.5 272,245.5 271,216 271,216 271,216 274.5,221 274.5,221 276.427,221.964 285,225.526 285,221 285,221 290.5,225 290.5,225 290.5,225 297,222 297,222 297,224.962 301.707,223 303,223 303,225.293 303.983,235 301,235 301,221.783 287,221.995 287,234 284.842,234 281,239.64 281,242  Z"/>

<path  fill="#FF9B88" stroke-width="0" stroke="#FF9B88" d = " M176 242 C179.674,242 180.763,241.027 183,245.5 183.743,246.987 181.692,254 184,254 184,241.8 185,229.639 185,217 185,217 178.5,223 178.5,223 176.85,223.825 171,223.268 171,221 171,221 166.5,225 166.5,225 164.036,226.232 160.946,221 159,221 159,225.079 155.244,223 153,223 153,225.203 152.104,234 155,234 155,222.861 169,221.779 169,233 171.12,233 176,240.287 176,242  Z"/>

<path  fill="#FF9B88" stroke-width="0" stroke="#FF9B88" d = " M319 219 C317.005,219 317,223.377 317,225 318.353,225 319,220.357 319,219  Z"/>

<path  fill="#FF9BCD" stroke-width="0" stroke="#FF9BCD" d = " M344 219 L345,220 C345,220 344,219 344,219  Z"/>

<path  fill="#FF9BCD" stroke-width="0" stroke="#FF9BCD" d = " M112 220 L111,221 C111,221 112,220 112,220  Z"/>

<path  fill="#FF9BCD" stroke-width="0" stroke="#FF9BCD" d = " M345 221 L346,222 C346,222 345,221 345,221  Z"/>

<path  fill="#FF9BCD" stroke-width="0" stroke="#FF9BCD" d = " M347 224 L349,226 C349,226 347,224 347,224  Z"/>

<path  fill="#FF9B88" stroke-width="0" stroke="#FF9B88" d = " M139 225 C140.602,225 140.602,232 139,232 139,232 139,225 139,225  Z"/>

<path  fill="#FCB3D9" stroke-width="0" stroke="#FCB3D9" d = " M156 251 L157,251 C157,251 160,250 160,250 160,250 161,249 161,249 161,249 161,248 161,248 161,248 162,246 162,246 162,246 163,244 163,244 163,244 163,243 163,243 163,243 165,241 165,241 165,241 169,233 169,233 169,221.779 155,222.861 155,234 155,234 156,251 156,251  Z"/>

<path  fill="#FCB3D9" stroke-width="0" stroke="#FCB3D9" d = " M299 251 L300,251 C300,251 301,235 301,235 301,221.783 287,221.995 287,234 289.486,234 295,244.709 295,247 295,247 295,248 295,248 295,248 296,249 296,249 296,249 296,250 296,250 296,250 299,251 299,251  Z"/>

<path  fill="#F0F080" stroke-width="0" stroke="#F0F080" d = " M108 226 L107,227 C107,227 108,226 108,226  Z"/>

<path  fill="#F0F080" stroke-width="0" stroke="#F0F080" d = " M103 230 L106,231 C107.579,231 107,228.145 107,227 107,227 103,230 103,230  Z"/>

<path  fill="#F0F080" stroke-width="0" stroke="#F0F080" d = " M353 230 L350,231 C350,231 349,227 349,227 349,227 353,230 353,230  Z"/>

<path  fill="#FDBA86" stroke-width="0" stroke="#FDBA86" d = " M221 229 L222,231 C222,231 221,229 221,229  Z"/>

<path  fill="#FF9B88" stroke-width="0" stroke="#FF9B88" d = " M317 232 C318.579,232 318,234.855 318,236 316.421,236 317,233.145 317,232  Z"/>

<path  fill="#FF9B88" stroke-width="0" stroke="#FF9B88" d = " M139 235 C137.527,235 138,236.952 138,238 139.473,238 139,236.048 139,235  Z"/>

<path  fill="#FF9BCD" stroke-width="0" stroke="#FF9BCD" d = " M108 239 L109,240 C109,240 108,239 108,239  Z"/>

<path  fill="#CCCCC7" stroke-width="0" stroke="#CCCCC7" d = " M161 249 L160,250 C160,257.949 169,246.611 169,244 169,244 168.5,239 168.5,239 167.455,239 166.639,241 165,241 165,242.747 164.747,243 163,243 163,243 163,244 163,244 163,244 162,246 162,246 162,246 161,248 161,248 161,248 161,249 161,249  Z"/>

<path  fill="#CCCCC7" stroke-width="0" stroke="#CCCCC7" d = " M296 249 L296,250 C296,257.714 284.61,244.281 287,239.5 288.522,236.456 294.661,247 295,247 295,247 295,248 295,248 295,248 296,249 296,249  Z"/>

<path  fill="#FF9B88" stroke-width="0" stroke="#FF9B88" d = " M318 239 L319,240 C319,240 318,239 318,239  Z"/>

<path  fill="#FF9BCD" stroke-width="0" stroke="#FF9BCD" d = " M348 240 L347,241 C347,241 348,240 348,240  Z"/>

<path  fill="#FF9B88" stroke-width="0" stroke="#FF9B88" d = " M138 241 L137,242 C137,242 138,241 138,241  Z"/>

<path  fill="#FF9BCD" stroke-width="0" stroke="#FF9BCD" d = " M165 241 L163,243 C164.747,243 165,242.747 165,241  Z"/>

<path  fill="#FFB2D8" stroke-width="0" stroke="#FFB2D8" d = " M184 262 L183,263 C180.342,263 170.867,257 166,257 166,251.828 169.844,242 176,242 179.674,242 180.763,241.027 183,245.5 183.743,246.987 181.692,254 184,254 184,254 184,262 184,262  Z"/>

<path  fill="#FFB2D8" stroke-width="0" stroke="#FFB2D8" d = " M272 262 L273,263 C277.582,263 284.663,257 291,257 291,252.909 286.238,242 281,242 272.131,242 273,246.088 273,255 273,257.409 272,260.181 272,262  Z"/>

<path  fill="#FF9BCD" stroke-width="0" stroke="#FF9BCD" d = " M109 242 L110,243 C110,243 109,242 109,242  Z"/>

<path  fill="#FF9BCD" stroke-width="0" stroke="#FF9BCD" d = " M110 244 L111,245 C111,245 110,244 110,244  Z"/>

<path  fill="#FF9BCD" stroke-width="0" stroke="#FF9BCD" d = " M163 244 L162,246 C162,246 163,244 163,244  Z"/>

<path  fill="#FF9B88" stroke-width="0" stroke="#FF9B88" d = " M137 245 L138,247 C138,247 137,245 137,245  Z"/>

<path  fill="#FF9BCD" stroke-width="0" stroke="#FF9BCD" d = " M162 246 L161,248 C161,248 162,246 162,246  Z"/>

<path  fill="#FF9B88" stroke-width="0" stroke="#FF9B88" d = " M319 247 L318,249 C318,249 319,247 319,247  Z"/>

<path  fill="#FF9BCD" stroke-width="0" stroke="#FF9BCD" d = " M295 248 L296,249 C296,249 295,248 295,248  Z"/>

<path  fill="#C9CACB" stroke-width="0" stroke="#C9CACB" d = " M123 251 C124.602,251 125.384,247.942 127.5,249 129.176,249.838 130.384,263.058 128.5,264 123.486,266.507 125.107,257 122,257 122,255.679 121.316,251 123,251  Z"/>

<path  fill="#FF9BCD" stroke-width="0" stroke="#FF9BCD" d = " M161 249 L160,250 C160,250 161,249 161,249  Z"/>

<path  fill="#FFC5E2" stroke-width="0" stroke="#FFC5E2" d = " M227 275 L229,275 C229,275 230,274 230,274 230,274 230,271 230,271 230,269.51 229.265,263 231,263 231,263 231,253 231,253 231,250.64 227.719,247.061 226,250.5 226,250.5 226,258 226,258 226,258 226,270 226,270 226,270 226,271 226,271 227.579,271 227,273.855 227,275  Z"/>

<path  fill="#FF9B88" stroke-width="0" stroke="#FF9B88" d = " M318 249 L317,251 C317,251 318,249 318,249  Z"/>

<path  fill="#C9CACB" stroke-width="0" stroke="#C9CACB" d = " M334 251 L328.5,249 C325.728,250.386 326.139,266.18 330.5,264 L332,260.5 L334,256 C334,254.533 334,252.467 334,251  Z"/>

<path  fill="#FF9B88" stroke-width="0" stroke="#FF9B88" d = " M139 251 L141,253 C141,253 139,251 139,251  Z"/>

<path  fill="#FF9B88" stroke-width="0" stroke="#FF9B88" d = " M149 259 C149,260.638 152.576,261 154,261 156.869,261 157,253.342 157,251 157,251 156,251 156,251 156,255.586 153.935,259 149,259  Z"/>

<path  fill="#FEB0D8" stroke-width="0" stroke="#FEB0D8" d = " M225 258 C225,267.452 217.762,271 209,271 209,266.738 224,258.015 224,251 225.714,251 225,256.594 225,258  Z"/>

<path  fill="#FEB0D8" stroke-width="0" stroke="#FEB0D8" d = " M231 263 C231,267.931 242.437,271 247,271 247,270.043 236.929,258.429 234.5,256 234.5,256 232,251 232,251 232,251 231,253 231,253 231,253 231,263 231,263  Z"/>

<path  fill="#FF9B88" stroke-width="0" stroke="#FF9B88" d = " M307 259 L303,261 C299.992,261 299,253.884 299,251 299,251 300,251 300,251 300.934,251 300.236,259 307,259  Z"/>

<path  fill="#FF9BCD" stroke-width="0" stroke="#FF9BCD" d = " M113 254 L114,255 C114,255 113,254 113,254  Z"/>

<path  fill="#FF9B88" stroke-width="0" stroke="#FF9B88" d = " M141 254 L142,255 C142,255 141,254 141,254  Z"/>

<path  fill="#FF9B88" stroke-width="0" stroke="#FF9B88" d = " M315 254 L314,255 C314,255 315,254 315,254  Z"/>

<path  fill="#FF9B88" stroke-width="0" stroke="#FF9B88" d = " M313 256 L312,257 C312,257 313,256 313,256  Z"/>

<path  fill="#FFB3D6" stroke-width="0" stroke="#FFB3D6" d = " M164 267 C166.579,267 169.997,263.248 173.5,265 L181,268 C183.868,268 183,265.312 183,263 180.342,263 170.867,257 166,257 162.684,257 163,264.53 163,267 163,267 164,267 164,267  Z"/>

<path  fill="#FFB3D6" stroke-width="0" stroke="#FFB3D6" d = " M292 267 L293,267 C293,263.474 291,258.046 291,257 284.663,257 277.582,263 273,263 273,265.565 272.764,268 276,268 276,268 282.5,265 282.5,265 286.003,263.248 289.421,267 292,267  Z"/>

<path  fill="#FF9B88" stroke-width="0" stroke="#FF9B88" d = " M189 271 L184.5,270 L182,273 C182,273 181,268 181,268 183.868,268 183,265.312 183,263 183,263 184,262 184,262 184,265.773 189,270.066 189,271  Z"/>

<path  fill="#FF9B88" stroke-width="0" stroke="#FF9B88" d = " M267 271 L271.5,270 L274,272 C274,272 276,268 276,268 272.764,268 273,265.565 273,263 273,263 272,262 272,262 272,266.639 267,270.438 267,271  Z"/>

<path  fill="#C8C8CB" stroke-width="0" stroke="#C8C8CB" d = " M165 280 L166,280 C166,280 165,277 165,277 160.126,277 161.595,266.69 160,263.5 158.5,260.5 154,269.25 154,270.5 154,270.5 156,275 156,275 157.53,275 159.216,279 162,279 162,279 163,280 163,280 163,280 165,280 165,280  Z"/>

<path  fill-rule="evenodd" fill="#FF9BCD" stroke-width="0" stroke="#FF9BCD" d = " M261 286 C261,287.747 267,287.149 267,286.5 L261,286  M252 277 C252,284.337 262.99,277 252,277  M277 288 L247,289 C247,289 253,285.5 253,285.5 253,281.799 233.26,279 231,279 231,279 230,276 230,276 231.804,276 235.136,278.182 237.5,277 240.055,275.723 235.981,269.74 234.5,269 231.788,267.644 231.317,271 230,271 230,269.51 229.265,263 231,263 231,267.931 242.437,271 247,271 247,271 250,273 250,273 250,273 251,273 251,273 251,274.473 252.952,274 254,274 254,274 255,274 255,274 255,275.951 257.454,274.477 258.5,275 258.5,275 261,278 261,278 261,278 261,279 261,279 261,282.173 263.957,285 267,285 267,286.486 270,286.486 270,285 270,285 273,285 273,285 275.004,285 283.674,284 279,284 279,284 279,283 279,283 279,283 280,283 280,283 280,283 281,283 281,283 281,284.535 285,284.535 285,283 285,283 286,283 286,283 286,283 288,283 288,283 288,284.186 289,284.186 289,283 289,283 299,281 299,281 299,281 299,282 299,282 299,282 298,283 298,283 298,283 297,283 297,283 297,283 296,284 296,284 296,284 295,284 295,284 295,284 294,285 294,285 294,285 292,285 292,285 292,285 291,286 291,286 291,286 289,286 289,286 289,286 287,287 287,287 287,287 279,287 279,287 279,287 277,288 277,288  Z"/>

<path  fill="#C8C8CB" stroke-width="0" stroke="#C8C8CB" d = " M293 280 L294,280 C294,280 295,279 295,279 296.562,279 300,276.811 300,275 300,275 301,274 301,274 301,271.194 302.51,268.52 301,265.5 300.499,264.497 296.715,262.07 296,263.5 294.932,265.635 296.72,275 293,275 293,275 292,277 292,277 292,277 291,278 291,278 291,278 291,280 291,280 291,280 292,280 292,280 292,280 293,280 293,280  Z"/>

<path  fill="#FEAE6E" stroke-width="0" stroke="#FEAE6E" d = " M165 277 C166.863,277 170.792,280 175,280 178.546,280 180.464,276 182,276 182,276 182,273 182,273 182,273 181,268 181,268 181,268 173.5,265 173.5,265 169.997,263.248 166.579,267 164,267 164,267 163,269 163,269 163,269 163,273 163,273 163,273 164,274 164,274 164,274 164,275 164,275 164,275 165,276 165,276 165,276 165,277 165,277  Z"/>

<path  fill="#FEAE6E" stroke-width="0" stroke="#FEAE6E" d = " M291 277 C289.137,277 285.208,280 281,280 278.347,280 275,279.121 275,276 275,276 274,272 274,272 274,272 276,268 276,268 276,268 282.5,265 282.5,265 286.003,263.248 289.421,267 292,267 292,267 293,268 293,268 293,268 293,269 293,269 293,269 293,271 293,271 293,271 293,274 293,274 293,274 292,275 292,275 292,275 291,277 291,277  Z"/>

<path  fill="#FF9B88" stroke-width="0" stroke="#FF9B88" d = " M164 267 L163,269 C163,269 163,267 163,267 163,267 164,267 164,267  Z"/>

<path  fill="#FF9B88" stroke-width="0" stroke="#FF9B88" d = " M293 267 L293,268 C293,268 292,267 292,267 292,267 293,267 293,267  Z"/>

<path  fill="#CACCC8" stroke-width="0" stroke="#CACCC8" d = " M226 276 L226,277 C226,277 218.5,277 218.5,277 216.202,275.851 220.649,269.426 221.5,269 221.5,269 226,270 226,270 226,270 226,271 226,271 226,271 226,276 226,276  Z"/>

<path  fill="#CACCC8" stroke-width="0" stroke="#CACCC8" d = " M230 275 L230,276 C231.804,276 235.136,278.182 237.5,277 240.055,275.723 235.981,269.74 234.5,269 231.788,267.644 231.317,271 230,271 230,271 230,274 230,274 230,274 230,275 230,275  Z"/>

<path  fill="#FF9B88" stroke-width="0" stroke="#FF9B88" d = " M293 269 C294.399,269 294.399,271 293,271 293,271 293,269 293,269  Z"/>

<path  fill="#FFAD6E" stroke-width="0" stroke="#FFAD6E" d = " M191 281 L194,281 C194,281 195,280 195,280 195,280 195,279 195,279 195,279 195,274 195,274 195,274 189,271 189,271 189,271 184.5,270 184.5,270 184.5,270 182,273 182,273 182,273 182,276 182,276 182,277.681 189.278,281 191,281  Z"/>

<path  fill="#FFAD6E" stroke-width="0" stroke="#FFAD6E" d = " M261 279 L265,281 C269.015,281 271.644,276 275,276 275,276 274,272 274,272 274,272 271.5,270 271.5,270 271.5,270 267,271 267,271 267,271 266,272 266,272 266,272 262,274 262,274 262,274 261,278 261,278 261,278 261,279 261,279  Z"/>

<path  fill="#FF9B88" stroke-width="0" stroke="#FF9B88" d = " M209 271 L208,272 C208,272 209,271 209,271  Z"/>

<path  fill="#FF9BCD" stroke-width="0" stroke="#FF9BCD" d = " M227 275 L226,276 C226,276 226,271 226,271 227.579,271 227,273.855 227,275  Z"/>

<path  fill="#FF9B88" stroke-width="0" stroke="#FF9B88" d = " M247 271 C248.238,271 250,271.423 250,273 250,273 247,271 247,271  Z"/>

<path  fill="#FF9B88" stroke-width="0" stroke="#FF9B88" d = " M267 271 L266,272 C266,272 267,271 267,271  Z"/>

<path  fill="#FF9B88" stroke-width="0" stroke="#FF9B88" d = " M208 272 L207,273 C207,273 208,272 208,272  Z"/>

<path  fill="#CBC7CC" stroke-width="0" stroke="#CBC7CC" d = " M168 282 L169,283 C169,284.168 164.634,283.567 163.5,283 163.5,283 153,277.5 153,277.5 151.414,275.914 149.238,270.869 153.5,273 153.5,273 156,275 156,275 157.53,275 159.216,279 162,279 162,279 163,280 163,280 163,280 165,281 165,281 165,281 166,281 166,281 166,281 167,282 167,282 167,282 168,282 168,282  Z"/>

<path  fill="#FF9B88" stroke-width="0" stroke="#FF9B88" d = " M163 273 L164,274 C164,274 163,273 163,273  Z"/>

<path  fill="#FF9B88" stroke-width="0" stroke="#FF9B88" d = " M205 273 C203.952,273 202,272.527 202,274 203.048,274 205,274.473 205,273  Z"/>

<path  fill="#FF9B88" stroke-width="0" stroke="#FF9B88" d = " M251 273 C252.048,273 254,272.527 254,274 252.952,274 251,274.473 251,273  Z"/>

<path  fill="#CBC7CC" stroke-width="0" stroke="#CBC7CC" d = " M289 282 L289,283 C289,283 299,281 299,281 299,281 305,276.5 305,276.5 305.45,275.6 305.965,271.767 303.5,273 303.5,273 301,274 301,274 301,274 300,275 300,275 300,276.811 296.562,279 295,279 295,279 294,280 294,280 294,280 293,280 293,280 293,280 292,281 292,281 292,281 291,281 291,281 291,281 289,282 289,282  Z"/>

<path  fill="#FF9B88" stroke-width="0" stroke="#FF9B88" d = " M201 274 C201,275.951 198.546,274.477 197.5,275 L195,279 C195,279 195,274 195,274 195,274 201,274 201,274  Z"/>

<path  fill="#FF9BCD" stroke-width="0" stroke="#FF9BCD" d = " M229 275 L230,275 C230,275 230,274 230,274 230,274 229,275 229,275  Z"/>

<path  fill="#FF9B88" stroke-width="0" stroke="#FF9B88" d = " M262 274 L261,278 C261,278 258.5,275 258.5,275 257.454,274.477 255,275.951 255,274 255,274 262,274 262,274  Z"/>

<path  fill="#FF9B88" stroke-width="0" stroke="#FF9B88" d = " M292 275 L293,275 C293,275 293,274 293,274 293,274 292,275 292,275  Z"/>

<path  fill="#FF9BCD" stroke-width="0" stroke="#FF9BCD" d = " M301 274 L300,275 C300,275 301,274 301,274  Z"/>

<path  fill="#FF9B88" stroke-width="0" stroke="#FF9B88" d = " M164 275 L165,276 C165,276 164,275 164,275  Z"/>

<path  fill="#FFC6E2" stroke-width="0" stroke="#FFC6E2" d = " M226 282 C227.375,282 228.625,282 230,282 230,282 231,279 231,279 231,279 230,276 230,276 230,276 230,275 230,275 230,275 229,275 229,275 229,275 227,275 227,275 227,275 226,276 226,276 226,276 226,277 226,277 226,277 226,280 226,280 226,280 226,282 226,282  Z"/>

<path  fill="#FF9B88" stroke-width="0" stroke="#FF9B88" d = " M291 277 L292,277 C292,277 292,275 292,275 292,275 291,277 291,277  Z"/>

<path  fill="#FF9BCD" stroke-width="0" stroke="#FF9BCD" d = " M293 275 L292,277 C292,277 292,275 292,275 292,275 293,275 293,275  Z"/>

<path  fill="#FEAD6F" stroke-width="0" stroke="#FEAD6F" d = " M182 284 L183,284 C187.554,284 191,285.11 191,281 189.278,281 182,277.681 182,276 180.464,276 178.546,280 175,280 175,284.145 182,281.82 182,284  Z"/>

<path  fill="#FEAD6F" stroke-width="0" stroke="#FEAD6F" d = " M273 284 L275,284 C275,282.421 277.855,283 279,283 279,283 280,283 280,283 280,283 281,280 281,280 278.347,280 275,279.121 275,276 271.644,276 269.015,281 265,281 265,285.434 269.309,284 273,284  Z"/>

<path  fill="#FF9B88" stroke-width="0" stroke="#FF9B88" d = " M150 277 L152,279 C152,279 150,277 150,277  Z"/>

<path  fill="#FF9B88" stroke-width="0" stroke="#FF9B88" d = " M177 284 L182,284 C182,281.82 175,284.145 175,280 170.792,280 166.863,277 165,277 165,277 166,280 166,280 166,280 166,281 166,281 166,281 167,282 167,282 167,282 168,282 168,282 168,282 170,283 170,283 170,283 171,283 171,283 171,283 175,283 175,283 175,283 177,284 177,284  Z"/>

<path  fill="#FEA3D2" stroke-width="0" stroke="#FEA3D2" d = " M200 277 L199,279.5 C200.026,281.551 210.248,277 200,277  Z"/>

<path  fill="#FEA3D2" stroke-width="0" stroke="#FEA3D2" d = " M252 277 C252,284.337 262.99,277 252,277  Z"/>

<path  fill="#FF9B88" stroke-width="0" stroke="#FF9B88" d = " M285 283 L286,283 C286,281.527 287.952,282 289,282 289,282 291,281 291,281 291,281 291,280 291,280 291,280 291,278 291,278 291,278 291,277 291,277 289.137,277 285.208,280 281,280 281,280 280,283 280,283 280,283 281,283 281,283 281,283 285,283 285,283  Z"/>

<path  fill="#FF9BCD" stroke-width="0" stroke="#FF9BCD" d = " M292 277 L291,278 C291,278 291,277 291,277 291,277 292,277 292,277  Z"/>

<path  fill="#C7C9C9" stroke-width="0" stroke="#C7C9C9" d = " M237 289 L247,289 C247,289 253,285.5 253,285.5 253,281.799 233.26,279 231,279 231,279 230,282 230,282 230,282 236,289 236,289 236,289 237,289 237,289  Z"/>

<path  fill="#FF9BCD" stroke-width="0" stroke="#FF9BCD" d = " M162 279 L163,280 C163,280 162,279 162,279  Z"/>

<path  fill="#C7C9C9" stroke-width="0" stroke="#C7C9C9" d = " M219 289 L221,289 C221,289 226,282 226,282 226,282 226,280 226,280 220.879,280 206.996,279.507 204,285.5 203.335,286.831 206.593,288 207.5,288 210.76,288 215.128,289 219,289  Z"/>

<path  fill="#FF9B88" stroke-width="0" stroke="#FF9B88" d = " M270 285 L273,285 C273,285 273,284 273,284 269.309,284 265,285.434 265,281 265,281 261,279 261,279 261,282.173 263.957,285 267,285 267,285 270,285 270,285  Z"/>

<path  fill="#FF9BCD" stroke-width="0" stroke="#FF9BCD" d = " M295 279 L294,280 C294,280 295,279 295,279  Z"/>

<path  fill="#FF9B88" stroke-width="0" stroke="#FF9B88" d = " M154 280 L155,281 C155,281 154,280 154,280  Z"/>

<path  fill="#CCC7CB" stroke-width="0" stroke="#CCC7CB" d = " M165 280 L165,281 C165,281 163,280 163,280 163,280 165,280 165,280  Z"/>

<path  fill="#FF9BCD" stroke-width="0" stroke="#FF9BCD" d = " M165 281 L166,281 C166,281 166,280 166,280 166,280 165,280 165,280 165,280 165,281 165,281  Z"/>

<path  fill="#FF9B88" stroke-width="0" stroke="#FF9B88" d = " M195 280 L194,281 C194,281 195,280 195,280  Z"/>

<path  fill="#FF9BCD" stroke-width="0" stroke="#FF9BCD" d = " M291 281 L292,281 C292,281 292,280 292,280 292,280 291,280 291,280 291,280 291,281 291,281  Z"/>

<path  fill="#CCC7CB" stroke-width="0" stroke="#CCC7CB" d = " M293 280 L292,281 C292,281 292,280 292,280 292,280 293,280 293,280  Z"/>

<path  fill="#FF9B88" stroke-width="0" stroke="#FF9B88" d = " M156 281 L157,282 C157,282 156,281 156,281  Z"/>

<path  fill="#CCC7CB" stroke-width="0" stroke="#CCC7CB" d = " M166 281 L167,282 C167,282 166,281 166,281  Z"/>

<path  fill="#FF9B88" stroke-width="0" stroke="#FF9B88" d = " M186 285 L190,285 C192.226,285 194,283.226 194,281 194,281 191,281 191,281 191,285.11 187.554,284 183,284 183,284 183,285 183,285 183,285 186,285 186,285  Z"/>

<path  fill="#CCC7CB" stroke-width="0" stroke="#CCC7CB" d = " M291 281 L289,282 C289,282 291,281 291,281  Z"/>

<path  fill="#FF9B88" stroke-width="0" stroke="#FF9B88" d = " M300 281 L299,282 C299,282 299,281 299,281 299,281 300,281 300,281  Z"/>

<path  fill="#CCC7CB" stroke-width="0" stroke="#CCC7CB" d = " M169 283 L170,283 C170,283 168,282 168,282 168,282 169,283 169,283  Z"/>

<path  fill="#FF9BCD" stroke-width="0" stroke="#FF9BCD" d = " M221 289 L227.5,286 L236,289 C236,289 230,282 230,282 228.625,282 227.375,282 226,282 226,282 221,289 221,289  Z"/>

<path  fill="#CCC7CB" stroke-width="0" stroke="#CCC7CB" d = " M288 283 L289,283 C289,283 289,282 289,282 287.952,282 286,281.527 286,283 286,283 288,283 288,283  Z"/>

<path  fill="#FF9B88" stroke-width="0" stroke="#FF9B88" d = " M299 282 L298,283 C298,283 299,282 299,282  Z"/>

<path  fill="#FF9B88" stroke-width="0" stroke="#FF9B88" d = " M160 283 L162,285 C162,285 160,283 160,283  Z"/>

<path  fill="#CCC7CB" stroke-width="0" stroke="#CCC7CB" d = " M183 284 L183,285 C180.802,285 171,285.238 171,283 171,283 175,283 175,283 175,283 177,284 177,284 177,284 182,284 182,284 182,284 183,284 183,284  Z"/>

<path  fill="#FF9BCD" stroke-width="0" stroke="#FF9BCD" d = " M175 283 L177,284 C177,284 175,283 175,283  Z"/>

<path  fill="#FF9B88" stroke-width="0" stroke="#FF9B88" d = " M275 284 L279,284 C279,284 279,283 279,283 277.855,283 275,282.421 275,284  Z"/>

<path  fill="#CCC7CB" stroke-width="0" stroke="#CCC7CB" d = " M281 283 L285,283 C285,284.535 281,284.535 281,283  Z"/>

<path  fill="#CBC7CC" stroke-width="0" stroke="#CBC7CC" d = " M288 283 L289,283 C289,284.186 288,284.186 288,283  Z"/>

<path  fill="#FF9B88" stroke-width="0" stroke="#FF9B88" d = " M297 283 L296,284 C296,284 297,283 297,283  Z"/>

<path  fill="#CCC7CB" stroke-width="0" stroke="#CCC7CB" d = " M279 284 C283.674,284 275.004,285 273,285 273,285 273,284 273,284 273,284 275,284 275,284 275,284 279,284 279,284  Z"/>

<path  fill="#FF9B88" stroke-width="0" stroke="#FF9B88" d = " M295 284 L294,285 C294,285 295,284 295,284  Z"/>

<path  fill="#FF9B88" stroke-width="0" stroke="#FF9B88" d = " M165 285 L166,286 C166,286 165,285 165,285  Z"/>

<path  fill="#CCC7CB" stroke-width="0" stroke="#CCC7CB" d = " M186 285 L190,285 C190,287.279 195,284.97 195,286.5 195,287.815 186,286.283 186,285  Z"/>

<path  fill="#CCC7CB" stroke-width="0" stroke="#CCC7CB" d = " M267 285 L270,285 C270,286.486 267,286.486 267,285  Z"/>

<path  fill="#FF9B88" stroke-width="0" stroke="#FF9B88" d = " M292 285 L291,286 C291,286 292,285 292,285  Z"/>

<path  fill="#FF9B88" stroke-width="0" stroke="#FF9B88" d = " M167 286 L169,287 C169,287 167,286 167,286  Z"/>

<path  fill="#CCC7CB" stroke-width="0" stroke="#CCC7CB" d = " M261 286 C261,287.747 267,287.149 267,286.5 L261,286  Z"/>

<path  fill="#FF9B88" stroke-width="0" stroke="#FF9B88" d = " M289 286 L287,287 C287,287 289,286 289,286  Z"/>

<path  fill="#FF9B88" stroke-width="0" stroke="#FF9B88" d = " M177 287 L179,288 C179,288 177,287 177,287  Z"/>

<path  fill="#FF9B88" stroke-width="0" stroke="#FF9B88" d = " M279 287 L277,288 C277,288 279,287 279,287  Z"/>

<path  fill="#FF9BCD" stroke-width="0" stroke="#FF9BCD" d = " M237 289 L247,289 C247,290.628 237,290.628 237,289  Z"/>

</g>
</svg>
