<svg xmlns="http://www.w3.org/2000/svg" xmlns:xlink="http://www.w3.org/1999/xlink"  viewBox="0 0 456 320">
<g>
<rect width="456" height="320" fill="#000000"  stroke-width="0" /> 
<path  fill="#1E9C59" stroke-width="0" stroke="#1E9C59" d = " M144 72 L145,72 C145,69.3468 159.311,66.0943 161.5,65 174.058,58.721 193.469,51.9845 207.5,59 210.384,60.4419 218,65.0769 218,69 218,69 219,69 219,69 219,69 222,66 222,66 222,60.1287 212.579,55.0395 208.5,53 193.637,45.5683 172.677,52.4117 159.5,59 157.511,59.9947 144,64.3876 144,66 144,66 144,72 144,72  Z"/>

<path  fill="#1E9C59" stroke-width="0" stroke="#1E9C59" d = " M239 69 C239,63.797 247.489,59.0056 251.5,57 L256.5,57 C264.026,53.237 291.556,61.528 298.5,65 L312,72 C312,70.3694 312,67.6306 312,66 312,63.4634 294.065,58.2827 291.5,57 279.693,51.0966 261.515,46.4926 248.5,53 243.893,55.3035 234,60.2636 234,67 236.215,67 235.519,69 237,69 237,69 239,69 239,69  Z"/>

<path  fill="#1E9D58" stroke-width="0" stroke="#1E9D58" d = " M212 74 L213,74 C213,74 218,69 218,69 218,65.0769 210.384,60.4419 207.5,59 193.469,51.9845 174.058,58.721 161.5,65 159.311,66.0943 145,69.3468 145,72 145,72 144,73 144,73 144,77.9247 145,83.5208 145,89 149.252,89 151.941,84.7794 155.5,83 166.428,77.5358 180.124,67 193,67 197.351,67 212,68.1361 212,74  Z"/>

<path  fill="#1E9D58" stroke-width="0" stroke="#1E9D58" d = " M244 73 C245.137,73 260.448,62.9742 268.5,67 279.13,72.3148 289.834,77.6672 300.5,83 303.665,84.5826 307.345,89 311,89 311,89 312,72 312,72 312,72 298.5,65 298.5,65 291.556,61.528 264.026,53.237 256.5,57 256.5,57 251.5,57 251.5,57 247.489,59.0056 239,63.797 239,69 239,70.8113 242.438,73 244,73  Z"/>

<path  fill="#1E9D5A" stroke-width="0" stroke="#1E9D5A" d = " M85 127 C85.9366,127 85,139.676 85,142.5 85,143.863 84.2998,149 86,149 86,125.963 105.01,94.7449 124.5,85 130.425,82.0373 137.16,73 144,73 144,73 144,72 144,72 144,72 144,66 144,66 138.341,66 132.434,73.5328 127.5,76 115.347,82.0766 85,113.853 85,127  Z"/>

<path  fill="#3EA665" stroke-width="0" stroke="#3EA665" d = " M222 96 C225.251,96 230.749,96 234,96 234,96 233,78.5 233,78.5 233,78.5 237,69 237,69 235.519,69 236.215,67 234,67 230.631,67 230.714,75 228.5,75 228.5,75 222,66 222,66 222,66 219,69 219,69 219,69 223,77.5 223,77.5 225.337,82.174 222,91.6105 222,96  Z"/>

<path  fill="#1E9D5A" stroke-width="0" stroke="#1E9D5A" d = " M371 126 C371,134.329 371,138.501 371,147 371,148.406 371.714,154 370,154 370,139.553 367.912,129.323 362,117.5 358.122,109.744 348.526,103.552 345,96.5 343.206,92.9129 337.993,88.2463 333.5,86 328.448,83.4738 317.03,72 312,72 312,70.3694 312,67.6306 312,66 317.63,66 322.679,72.5897 327.5,75 339.666,81.0831 371,111.598 371,126  Z"/>

<path  fill="#1F9D58" stroke-width="0" stroke="#1F9D58" d = " M195 92 C193.394,92 190.661,89.9193 188.5,91 179.433,95.5334 169.549,98.4757 160.5,103 L147,111 C147,105.62 147,100.04 147,96.5 147,96.5 145,90 145,90 145,90 145,89 145,89 149.252,89 151.941,84.7794 155.5,83 166.428,77.5358 180.124,67 193,67 197.351,67 212,68.1361 212,74 212,74 209,76.5 209,76.5 209,76.5 195,92 195,92  Z"/>

<path  fill="#1F9D58" stroke-width="0" stroke="#1F9D58" d = " M261 92 L267.5,91 C276.554,95.5272 286.454,98.477 295.5,103 L309,111 C309,103.77 311,97.6614 311,90 311,90 311,89 311,89 307.345,89 303.665,84.5826 300.5,83 289.834,77.6672 279.13,72.3148 268.5,67 260.448,62.9742 245.137,73 244,73 244,73 244,74 244,74 245.226,74 261,90.4243 261,92  Z"/>

<path  fill="#40A565" stroke-width="0" stroke="#40A565" d = " M217 96 L222,96 C222,91.6105 225.337,82.174 223,77.5 223,77.5 219,69 219,69 219,69 218,69 218,69 218,69 213,74 213,74 213,74 216,80.5 216,80.5 216,80.5 217,96 217,96  Z"/>

<path  fill="#40A565" stroke-width="0" stroke="#40A565" d = " M234 96 C236.124,96 238.436,97 240,97 240,92.8359 239.608,74 244,74 244,74 244,73 244,73 242.438,73 239,70.8113 239,69 239,69 237,69 237,69 237,69 233,78.5 233,78.5 233,78.5 234,96 234,96  Z"/>

<path  fill="#1F9C58" stroke-width="0" stroke="#1F9C58" d = " M145 72 L144,73 C144,73 144,72 144,72 144,72 145,72 145,72  Z"/>

<path  fill="#1F9C58" stroke-width="0" stroke="#1F9C58" d = " M353 169 L365,173 C365,171.143 367.735,159 369,159 369,159 369,158 369,158 367.814,158 367.814,157 369,157 369,157 370,157 370,157 370,157 370,154 370,154 370,139.553 367.912,129.323 362,117.5 358.122,109.744 348.526,103.552 345,96.5 343.206,92.9129 337.993,88.2463 333.5,86 328.448,83.4738 317.03,72 312,72 312,72 311,89 311,89 311,89 311,90 311,90 315.463,90 317.778,95.1388 321.5,97 338.723,105.611 345.176,123.852 353,139.5 353,139.5 353,158 353,158 353,159.737 355.105,168 353,168 353,168 353,169 353,169  Z"/>

<path  fill="#1F9C58" stroke-width="0" stroke="#1F9C58" d = " M103 169 L91,173 C91,170.623 87.8462,159 87,159 87,159 87,158 87,158 88.1859,158 88.1859,157 87,157 87,157 87,154 87,154 87,154 86,153 86,153 86,153 86,149 86,149 86,125.963 105.01,94.7449 124.5,85 130.425,82.0373 137.16,73 144,73 144,77.9247 145,83.5208 145,89 145,89 145,90 145,90 139.596,90 134.236,98.6319 129.5,101 129.5,101 118,112.5 118,112.5 114.264,119.972 108.679,126.143 105,133.5 100.627,142.247 103,157.641 103,168 103,168 103,169 103,169  Z"/>

<path  fill="#3EA566" stroke-width="0" stroke="#3EA566" d = " M217 97 C210.627,97 205.792,102 200,102 200,98.7078 199.264,93 195,93 195,93 195,92 195,92 195,92 209,76.5 209,76.5 209,76.5 212,74 212,74 212,74 213,74 213,74 213,74 216,80.5 216,80.5 216,80.5 217,96 217,96 217,96 217,97 217,97  Z"/>

<path  fill="#3EA566" stroke-width="0" stroke="#3EA566" d = " M240 97 C245.759,97 250.72,102 256,102 256,99.2367 257.891,93 261,93 261,93 261,92 261,92 261,90.4243 245.226,74 244,74 239.608,74 240,92.8359 240,97  Z"/>

<path  fill="#1E9C5A" stroke-width="0" stroke="#1E9C5A" d = " M125 158 C119.126,158 110.787,168 103,168 103,157.641 100.627,142.247 105,133.5 108.679,126.143 114.264,119.972 118,112.5 118,112.5 129.5,101 129.5,101 134.236,98.6319 139.596,90 145,90 145,90 147,96.5 147,96.5 147,100.04 147,105.62 147,111 147,111 137,119.5 137,119.5 125.289,131.211 125,141.753 125,157 125,157 125,158 125,158  Z"/>

<path  fill="#1E9C5A" stroke-width="0" stroke="#1E9C5A" d = " M332 158 C337.117,158 345.855,168 353,168 355.105,168 353,159.737 353,158 353,158 353,139.5 353,139.5 345.176,123.852 338.723,105.611 321.5,97 317.778,95.1388 315.463,90 311,90 311,97.6614 309,103.77 309,111 309,111 310,112 310,112 310,112 315.5,116 315.5,116 330.536,123.518 332,143.036 332,157 332,157 332,158 332,158  Z"/>

<path  fill="#1D9C5A" stroke-width="0" stroke="#1D9C5A" d = " M162 137 C155.569,137 145.31,149 140,149 140,136.233 147,124.419 147,111 147,111 160.5,103 160.5,103 169.549,98.4757 179.433,95.5334 188.5,91 190.661,89.9193 193.394,92 195,92 195,92 195,93 195,93 193.385,93 191.64,98.2199 191,99.5 188.205,105.089 182,113.597 182,120 180.765,120 177,119.357 177,121 169.921,121 162,130.35 162,137  Z"/>

<path  fill="#1D9C5A" stroke-width="0" stroke="#1D9C5A" d = " M294 137 C301.377,137 310.799,149 317,149 317,140.439 314.418,133.336 311,126.5 311,126.5 311,121.5 311,121.5 311,121.5 309,118.5 309,118.5 309,116.58 310,113.639 310,112 310,112 309,111 309,111 309,111 295.5,103 295.5,103 286.454,98.477 276.554,95.5272 267.5,91 267.5,91 261,92 261,92 261,92 261,93 261,93 263.445,93 274,116.582 274,120 283.165,120 294,126.981 294,137  Z"/>

<path  fill="#3FA664" stroke-width="0" stroke="#3FA664" d = " M182 120 L183,120 C184.843,120 193.97,103 200,103 200,103 200,102 200,102 200,98.7078 199.264,93 195,93 193.385,93 191.64,98.2199 191,99.5 188.205,105.089 182,113.597 182,120  Z"/>

<path  fill="#3FA664" stroke-width="0" stroke="#3FA664" d = " M273 120 L274,120 C274,116.582 263.445,93 261,93 257.891,93 256,99.2367 256,102 256,102 256,103 256,103 259.506,103 273,116.766 273,120  Z"/>

<path  fill="#2FA750" stroke-width="0" stroke="#2FA750" d = " M223 133 L234,133 C234,133 234,96 234,96 230.749,96 225.251,96 222,96 222,108.315 223,121.327 223,133  Z"/>

<path  fill="#2FA74F" stroke-width="0" stroke="#2FA74F" d = " M218 133 L223,133 C223,121.327 222,108.315 222,96 222,96 217,96 217,96 217,96 217,97 217,97 217,108.905 218,121.77 218,133  Z"/>

<path  fill="#2FA74F" stroke-width="0" stroke="#2FA74F" d = " M234 133 L238,133 C238,121.38 240,109.296 240,97 238.436,97 236.124,96 234,96 234,96 234,133 234,133  Z"/>

<path  fill="#2EA84F" stroke-width="0" stroke="#2EA84F" d = " M218 133 C213.649,133 208.869,134 204,134 204,123.704 200,113.464 200,103 200,103 200,102 200,102 205.792,102 210.627,97 217,97 217,108.905 218,121.77 218,133  Z"/>

<path  fill="#2EA84F" stroke-width="0" stroke="#2EA84F" d = " M238 133 C242.351,133 247.131,134 252,134 252,124.204 256,113.4 256,103 256,103 256,102 256,102 250.72,102 245.759,97 240,97 240,109.296 238,121.38 238,133  Z"/>

<path  fill="#2FA850" stroke-width="0" stroke="#2FA850" d = " M204 134 C199.923,134 195.569,135 191,135 191,132.505 185.881,121 183,121 183,121 183,120 183,120 184.843,120 193.97,103 200,103 200,113.464 204,123.704 204,134  Z"/>

<path  fill="#2FA850" stroke-width="0" stroke="#2FA850" d = " M252 134 C256.077,134 260.431,135 265,135 265,132.689 270.351,121 273,121 273,121 273,120 273,120 273,116.766 259.506,103 256,103 256,113.4 252,124.204 252,134  Z"/>

<path  fill="#1F9B5A" stroke-width="0" stroke="#1F9B5A" d = " M140 149 L125,157 C125,141.753 125.289,131.211 137,119.5 137,119.5 147,111 147,111 147,124.419 140,136.233 140,149  Z"/>

<path  fill="#1F9B5A" stroke-width="0" stroke="#1F9B5A" d = " M317 149 C322.035,149 326.619,157 332,157 332,143.036 330.536,123.518 315.5,116 315.5,116 310,112 310,112 310,113.639 309,116.58 309,118.5 309,118.5 311,121.5 311,121.5 311,121.5 311,126.5 311,126.5 314.418,133.336 317,140.439 317,149  Z"/>

<path  fill="#1E9C58" stroke-width="0" stroke="#1E9C58" d = " M177 121 L182,121 C182,121 182,120 182,120 180.765,120 177,119.357 177,121  Z"/>

<path  fill="#3FA466" stroke-width="0" stroke="#3FA466" d = " M182 121 L183,121 C183,121 183,120 183,120 183,120 182,120 182,120 182,120 182,121 182,121  Z"/>

<path  fill="#3FA466" stroke-width="0" stroke="#3FA466" d = " M273 121 L274,121 C274,121 274,120 274,120 274,120 273,120 273,120 273,120 273,121 273,121  Z"/>

<path  fill="#1E9C58" stroke-width="0" stroke="#1E9C58" d = " M293 137 L294,137 C294,126.981 283.165,120 274,120 274,120 274,121 274,121 276.449,121 285,121.995 285,125 288.291,125 293,134.655 293,137  Z"/>

<path  fill="#1E9C58" stroke-width="0" stroke="#1E9C58" d = " M162 137 L164,137 C164,133.482 168.041,125 172,125 172,125 177,121 177,121 169.921,121 162,130.35 162,137  Z"/>

<path  fill="#CACCC7" stroke-width="0" stroke="#CACCC7" d = " M172 125 L183.5,127 L189,133 C189,133 183,121 183,121 183,121 182,121 182,121 182,121 177,121 177,121 177,121 172,125 172,125  Z"/>

<path  fill="#2FA84F" stroke-width="0" stroke="#2FA84F" d = " M190 135 L191,135 C191,132.505 185.881,121 183,121 183,121 189,133 189,133 189,133 189,134 189,134 189,134 190,135 190,135  Z"/>

<path  fill="#2FA84F" stroke-width="0" stroke="#2FA84F" d = " M265 135 L267,135 C267,135 267,133 267,133 267,133 268,132 268,132 268,132 273,121 273,121 270.351,121 265,132.689 265,135  Z"/>

<path  fill="#CACCC7" stroke-width="0" stroke="#CACCC7" d = " M284 125 L285,125 C285,121.995 276.449,121 274,121 274,121 273,121 273,121 273,121 268,132 268,132 268,132 272.5,127 272.5,127 272.5,127 284,125 284,125  Z"/>

<path  fill="#C9C9CA" stroke-width="0" stroke="#C9C9CA" d = " M163 143 C164.183,143 164.535,146.57 165,147.5 L173,151 C173,151 169,144.5 169,144.5 165.774,138.048 172,130.092 172,125 168.041,125 164,133.482 164,137 164,137 163,143 163,143  Z"/>

<path  fill="#CAC7CC" stroke-width="0" stroke="#CAC7CC" d = " M193 161 L194,161 C194,161 194,159 194,159 194,159 193,157 193,157 193,157 193,150 193,150 193,150 190,135 190,135 190,135 189,134 189,134 189,134 189,133 189,133 189,133 183.5,127 183.5,127 183.5,127 172,125 172,125 172,130.092 165.774,138.048 169,144.5 169,144.5 173,151 173,151 177.707,151 184.582,155 187,155 189.98,155 193,158.159 193,161  Z"/>

<path  fill="#CAC7CC" stroke-width="0" stroke="#CAC7CC" d = " M263 159 L263,160 C265.25,160 265.259,156 268,156 268,156 269,155 269,155 271.383,155 278.805,151 284,151 284,151 287,145.5 287,145.5 287,145.5 287,130.5 287,130.5 287,130.5 284,125 284,125 284,125 272.5,127 272.5,127 272.5,127 268,132 268,132 268,132 267,133 267,133 267,133 267,135 267,135 267,135 263,151 263,151 263,151 263,159 263,159  Z"/>

<path  fill="#C9C9CA" stroke-width="0" stroke="#C9C9CA" d = " M293 143 C293,146.891 287.616,151 284,151 284,151 287,145.5 287,145.5 287,145.5 287,130.5 287,130.5 287,130.5 284,125 284,125 284,125 285,125 285,125 288.291,125 293,134.655 293,137 293,137 293,143 293,143  Z"/>

<path  fill="#187E61" stroke-width="0" stroke="#187E61" d = " M370 157 L375,158 C375,149.754 376.456,139.412 373,132.5 372.254,131.007 373.729,126 371,126 371,134.329 371,138.501 371,147 371,148.406 371.714,154 370,154 370,154 370,157 370,157  Z"/>

<path  fill="#187E61" stroke-width="0" stroke="#187E61" d = " M87 157 L82,158 C82,149.903 79.2677,140.965 83,133.5 83.6501,132.2 83.0071,127 85,127 85.9366,127 85,139.676 85,142.5 85,143.863 84.2998,149 86,149 86,149 86,153 86,153 86,153 87,154 87,154 87,154 87,157 87,157  Z"/>

<path  fill="#CACCC7" stroke-width="0" stroke="#CACCC7" d = " M268 132 L267,133 C267,133 268,132 268,132  Z"/>

<path  fill="#59B262" stroke-width="0" stroke="#59B262" d = " M210 170 L217,170 C217,170 219,164.5 219,164.5 221.694,159.112 218,138.98 218,133 213.649,133 208.869,134 204,134 204,146.096 210,157.499 210,170  Z"/>

<path  fill="#59B362" stroke-width="0" stroke="#59B362" d = " M217 170 L221,170 C221,170 224,159.5 224,159.5 224,159.5 223,133 223,133 223,133 218,133 218,133 218,138.98 221.694,159.112 219,164.5 219,164.5 217,170 217,170  Z"/>

<path  fill="#59B263" stroke-width="0" stroke="#59B263" d = " M236 170 C233.591,170 230.819,171 229,171 229,171 229,161 229,161 229,156.717 228,156.717 228,161 228,164.013 227,167.611 227,170 227,170.632 222.745,170 221,170 221,170 224,159.5 224,159.5 224,159.5 223,133 223,133 223,133 234,133 234,133 234,138.603 230.44,157.379 233,162.5 233,162.5 236,170 236,170  Z"/>

<path  fill="#59B362" stroke-width="0" stroke="#59B362" d = " M236 170 L239,170 C239,167.387 238.07,165.64 237,163.5 234.353,158.207 238,139.05 238,133 238,133 234,133 234,133 234,138.603 230.44,157.379 233,162.5 233,162.5 236,170 236,170  Z"/>

<path  fill="#59B262" stroke-width="0" stroke="#59B262" d = " M239 170 L246,170 C246,157.696 252,146.403 252,134 247.131,134 242.351,133 238,133 238,139.05 234.353,158.207 237,163.5 238.07,165.64 239,167.387 239,170  Z"/>

<path  fill="#CACCC7" stroke-width="0" stroke="#CACCC7" d = " M189 134 L190,135 C190,135 189,134 189,134  Z"/>

<path  fill="#58B362" stroke-width="0" stroke="#58B362" d = " M198 169 L210,170 C210,157.499 204,146.096 204,134 199.923,134 195.569,135 191,135 191,135 195,151 195,151 195,151 195,155 195,155 197.231,155 198,166.975 198,169  Z"/>

<path  fill="#58B362" stroke-width="0" stroke="#58B362" d = " M259 169 L246,170 C246,157.696 252,146.403 252,134 256.077,134 260.431,135 265,135 265,140.977 262,145.119 262,151 262,151 261,153 261,153 261,153 261,156 261,156 258.982,156 259,166.777 259,169  Z"/>

<path  fill="#58B263" stroke-width="0" stroke="#58B263" d = " M193 150 L195,151 C195,151 191,135 191,135 191,135 190,135 190,135 190,135 193,150 193,150  Z"/>

<path  fill="#58B263" stroke-width="0" stroke="#58B263" d = " M262 151 L263,151 C263,151 267,135 267,135 267,135 265,135 265,135 265,140.977 262,145.119 262,151  Z"/>

<path  fill="#209666" stroke-width="0" stroke="#209666" d = " M139 170 L140,170 C140,170 144,164 144,164 142.78,164 142.496,160.508 143,159.5 144.081,157.338 147.005,158 149,158 149,158 151,157 151,157 151,155.762 151.423,154 153,154 153,154 154,153 154,153 154,153 155,152 155,152 155,152 162,145 162,145 162,145 162,144 162,144 162,144 162,137 162,137 155.569,137 145.31,149 140,149 140,149 125,157 125,157 125,157 125,158 125,158 125,165.733 131.859,170 139,170  Z"/>

<path  fill="#1F9766" stroke-width="0" stroke="#1F9766" d = " M163 143 L162,144 C162,144 162,137 162,137 162,137 164,137 164,137 164,137 163,143 163,143  Z"/>

<path  fill="#1F9766" stroke-width="0" stroke="#1F9766" d = " M293 143 L294,143 C296.515,143 294,137.986 294,137 294,137 293,137 293,137 293,137 293,143 293,143  Z"/>

<path  fill="#209666" stroke-width="0" stroke="#209666" d = " M312 165 L317,170 C321.657,170 326.577,169.346 329,164.5 329,164.5 332,158 332,158 332,158 332,157 332,157 326.619,157 322.035,149 317,149 310.799,149 301.377,137 294,137 294,137.986 296.515,143 294,143 294,143 294,144 294,144 294,144 299,149 299,149 299,149 303,153 303,153 303,153 303,154 303,154 304.811,154 307,157.438 307,159 308.424,159 316.88,156.741 314,162.5 314,162.5 312,165 312,165  Z"/>

<path  fill="#248A5C" stroke-width="0" stroke="#248A5C" d = " M187 155 L188,158 C188,158 183.5,155 183.5,155 176.554,151.527 169.256,158.012 165,149.5 165,149.5 162,145 162,145 162,145 162,144 162,144 162,144 163,143 163,143 164.183,143 164.535,146.57 165,147.5 165,147.5 173,151 173,151 177.707,151 184.582,155 187,155  Z"/>

<path  fill="#248A5C" stroke-width="0" stroke="#248A5C" d = " M268 156 L268,158 C268,158 272.5,155 272.5,155 279.586,151.457 294,158.498 294,144 294,144 294,143 294,143 294,143 293,143 293,143 293,146.891 287.616,151 284,151 278.805,151 271.383,155 269,155 269,155 268,156 268,156  Z"/>

<path  fill="#24895D" stroke-width="0" stroke="#24895D" d = " M271 172 L273,174 C273,149.303 301.336,169 311,169 311,169 310,165 310,165 305.211,165 305,163.454 305,159 305,156.75 303,155.624 303,154 303,154 303,153 303,153 303,153 299,149 299,149 299,149 294,144 294,144 294,158.498 279.586,151.457 272.5,155 272.5,155 268,158 268,158 268,158 267,160 267,160 267,160.959 271,166.486 271,172  Z"/>

<path  fill="#24895D" stroke-width="0" stroke="#24895D" d = " M184 173 L185,173 C185,164.772 189,162.517 189,159 189,159 188,158 188,158 188,158 183.5,155 183.5,155 176.554,151.527 169.256,158.012 165,149.5 165,149.5 162,145 162,145 162,145 155,152 155,152 155,152 154,153 154,153 154,153 153,154 153,154 153,155.238 152.577,157 151,157 151,157 151,159 151,159 151,162.361 152.296,165 147,165 147,165 146,168 146,168 155.332,168 184,151.297 184,173  Z"/>

<path  fill="#1F9866" stroke-width="0" stroke="#1F9866" d = " M299 149 L303,153 C303,153 299,149 299,149  Z"/>

<path  fill="#24875E" stroke-width="0" stroke="#24875E" d = " M193 157 L194,159 C195.579,159 195,156.145 195,155 195,155 195,151 195,151 195,151 193,150 193,150 193,150 193,157 193,157  Z"/>

<path  fill="#58B263" stroke-width="0" stroke="#58B263" d = " M262 151 L261,153 C261,153 262,151 262,151  Z"/>

<path  fill="#24875E" stroke-width="0" stroke="#24875E" d = " M262 159 L263,159 C263,159 263,151 263,151 263,151 262,151 262,151 262,151 261,153 261,153 261,153 261,156 261,156 261,156 262,159 262,159  Z"/>

<path  fill="#1F9866" stroke-width="0" stroke="#1F9866" d = " M155 152 L154,153 C154,153 155,152 155,152  Z"/>

<path  fill="#1E9D5A" stroke-width="0" stroke="#1E9D5A" d = " M86 153 L87,154 C87,154 86,153 86,153  Z"/>

<path  fill="#1F9866" stroke-width="0" stroke="#1F9866" d = " M154 153 L153,154 C153,154 154,153 154,153  Z"/>

<path  fill="#1F9866" stroke-width="0" stroke="#1F9866" d = " M153 154 C151.423,154 151,155.762 151,157 152.577,157 153,155.238 153,154  Z"/>

<path  fill="#1F9866" stroke-width="0" stroke="#1F9866" d = " M305 159 L307,159 C307,157.438 304.811,154 303,154 303,155.624 305,156.75 305,159  Z"/>

<path  fill="#22895E" stroke-width="0" stroke="#22895E" d = " M189 159 C190.452,159 189.486,161 193,161 193,158.159 189.98,155 187,155 187,155 188,158 188,158 188,158 189,159 189,159  Z"/>

<path  fill="#22885E" stroke-width="0" stroke="#22885E" d = " M196 169 L198,169 C198,166.975 197.231,155 195,155 195,156.145 195.579,159 194,159 194,159 194,161 194,161 194,161 195,162 195,162 195,162 196,169 196,169  Z"/>

<path  fill="#22895E" stroke-width="0" stroke="#22895E" d = " M269 155 L268,156 C268,156 269,155 269,155  Z"/>

<path  fill="#22885E" stroke-width="0" stroke="#22885E" d = " M259 169 L260,169 C262.662,169 259.338,162 262,162 262,162 262,159 262,159 262,159 261,156 261,156 258.982,156 259,166.777 259,169  Z"/>

<path  fill="#22895E" stroke-width="0" stroke="#22895E" d = " M263 160 C263,163.781 265.995,160 267,160 267,160 268,158 268,158 268,158 268,156 268,156 265.259,156 265.25,160 263,160  Z"/>

<path  fill="#009C75" stroke-width="0" stroke="#009C75" d = " M90 175 L85,176 C85,169.952 82,164.406 82,158 82,158 87,157 87,157 87,157 87,158 87,158 87,158 87,159 87,159 87,159 90,174 90,174 90,174 90,175 90,175  Z"/>

<path  fill="#009B75" stroke-width="0" stroke="#009B75" d = " M87 157 C88.1859,157 88.1859,158 87,158 87,158 87,157 87,157  Z"/>

<path  fill="#1F9866" stroke-width="0" stroke="#1F9866" d = " M149 158 L151,159 C151,159 151,157 151,157 151,157 149,158 149,158  Z"/>

<path  fill="#22895E" stroke-width="0" stroke="#22895E" d = " M193 157 L194,159 C194,159 193,157 193,157  Z"/>

<path  fill="#009B75" stroke-width="0" stroke="#009B75" d = " M369 157 C367.814,157 367.814,158 369,158 369,158 369,157 369,157  Z"/>

<path  fill="#009C75" stroke-width="0" stroke="#009C75" d = " M366 174 L371,176 C371,170.393 375,163.924 375,158 375,158 370,157 370,157 370,157 369,157 369,157 369,157 369,158 369,158 369,158 369,159 369,159 369,164.543 366,169.195 366,174  Z"/>

<path  fill="#209665" stroke-width="0" stroke="#209665" d = " M109 195 L111,195 C114.589,195 139,173.803 139,170 131.859,170 125,165.733 125,158 119.126,158 110.787,168 103,168 103,168 103,169 103,169 103,174.404 102.741,181.982 105,186.5 105,186.5 109,195 109,195  Z"/>

<path  fill="#8ADA86" stroke-width="0" stroke="#8ADA86" d = " M144 164 L147,165 C152.296,165 151,162.361 151,159 151,159 149,158 149,158 147.005,158 144.081,157.338 143,159.5 142.496,160.508 142.78,164 144,164  Z"/>

<path  fill="#8ADA86" stroke-width="0" stroke="#8ADA86" d = " M310 165 L312,165 C312,165 314,162.5 314,162.5 316.88,156.741 308.424,159 307,159 307,159 305,159 305,159 305,163.454 305.211,165 310,165  Z"/>

<path  fill="#209665" stroke-width="0" stroke="#209665" d = " M346 195 L347,195 C347,195 351,187.5 351,187.5 353.491,182.518 353,174.99 353,169 353,169 353,168 353,168 345.855,168 337.117,158 332,158 332,158 329,164.5 329,164.5 326.577,169.346 321.657,170 317,170 317,170 324,177.5 324,177.5 326.018,181.536 341.365,195 346,195  Z"/>

<path  fill="#009B75" stroke-width="0" stroke="#009B75" d = " M91 173 L90,174 C90,174 87,159 87,159 87.8462,159 91,170.623 91,173  Z"/>

<path  fill="#238A5C" stroke-width="0" stroke="#238A5C" d = " M192 166 L185,173 C185,164.772 189,162.517 189,159 190.452,159 189.486,161 193,161 193,161 194,161 194,161 194,161 195,162 195,162 195,162 194,162 194,162 194,162 193,163 193,163 193,163 193,164 193,164 191.348,164 189.908,166 192,166  Z"/>

<path  fill="#238A5C" stroke-width="0" stroke="#238A5C" d = " M264 165 C264,167.421 268.519,172 271,172 271,166.486 267,160.959 267,160 265.995,160 263,163.781 263,160 263,160 263,159 263,159 263,159 262,159 262,159 262,159 262,162 262,162 262,162 263,162 263,162 263.813,162 265.728,165 264,165  Z"/>

<path  fill="#009B75" stroke-width="0" stroke="#009B75" d = " M365 173 L366,174 C366,169.195 369,164.543 369,159 367.735,159 365,171.143 365,173  Z"/>

<path  fill="#99D2BD" stroke-width="0" stroke="#99D2BD" d = " M227 170 L229,171 C229,171 229,161 229,161 229,161 228,161 228,161 228,164.013 227,167.611 227,170  Z"/>

<path  fill="#228A5D" stroke-width="0" stroke="#228A5D" d = " M184 173 L178.5,178 C176.412,180.088 160.228,191 158,191 158,187.761 152.482,188.464 152,187.5 149.396,182.293 146,175.227 146,169 146,169 146,168 146,168 155.332,168 184,151.297 184,173  Z"/>

<path  fill="#22885E" stroke-width="0" stroke="#22885E" d = " M194 162 L193,163 C193,163 194,162 194,162  Z"/>

<path  fill="#99D2BD" stroke-width="0" stroke="#99D2BD" d = " M165 247 C165,241.998 176.637,247 178,247 178,247 173,242.5 173,242.5 169.693,235.886 173.495,229 181,229 181,229 180,224 180,224 170.385,224 165.865,205 175,205 175,197.066 183.115,191 191,191 191,185.602 193.743,183 199,183 199,179.588 196,174.445 196,169 196,169 195,162 195,162 195,162 194,162 194,162 194,162 193,163 193,163 193,163 193,164 193,164 193,164 192,166 192,166 192,166 185,173 185,173 185,173 184,173 184,173 184,173 178.5,178 178.5,178 176.412,180.088 160.228,191 158,191 158,191 155,193 155,193 155,193 143,200 143,200 154.152,200 145.597,211 151,211 151,209.394 148.919,206.661 150,204.5 150,204.5 153.5,201 153.5,201 168.793,193.353 163.631,207.762 168,216.5 169.051,218.603 171.994,225.253 168.5,227 163.228,229.636 154.799,212 151,212 151,214.195 165.024,230.547 167,234.5 169.79,240.079 160,243.085 160,246 160,246 165,247 165,247  Z"/>

<path  fill="#99D2BD" stroke-width="0" stroke="#99D2BD" d = " M296 246 L291,247 C291,242.801 281.748,246 280,246 280,246 284,241.5 284,241.5 287.577,234.347 281.05,229 275,229 275,229 277,224 277,224 286.145,224 291.249,205 281,205 281,195.34 272.266,192 265,192 265,186.774 263.841,183 258,183 258,183 261,174.5 261,174.5 261.978,172.544 260,170.423 260,169 262.662,169 259.338,162 262,162 262,162 263,162 263,162 263,163.048 262.527,165 264,165 264,167.421 268.519,172 271,172 271,172 273,174 273,174 273,174 278.5,178 278.5,178 281.034,180.534 296.21,191 299,191 299,191 301,192 301,192 301,195.531 314,197.482 314,200 309.409,200 307,200.053 307,205 304.174,205 300.767,195.367 293.5,199 290.751,200.375 288.796,215.908 287,219.5 286.179,221.142 285.657,226.078 287.5,227 294.266,230.383 295.758,217 301,217 301,221.576 292.1,229.299 290,233.5 286.948,239.604 296,242.647 296,246  Z"/>

<path  fill="#22885E" stroke-width="0" stroke="#22885E" d = " M263 162 C263.813,162 265.728,165 264,165 262.527,165 263,163.048 263,162  Z"/>

<path  fill="#228A5D" stroke-width="0" stroke="#228A5D" d = " M273 174 L278.5,178 C281.034,180.534 296.21,191 299,191 299,187.826 303.753,188.994 305,186.5 305,186.5 304,184.5 304,184.5 304,183.707 311,173.601 311,169 301.336,169 273,149.303 273,174  Z"/>

<path  fill="#1F9866" stroke-width="0" stroke="#1F9866" d = " M146 169 L140,170 C140,170 144,164 144,164 144,164 147,165 147,165 147,165 146,168 146,168 146,168 146,169 146,169  Z"/>

<path  fill="#22885E" stroke-width="0" stroke="#22885E" d = " M193 164 C191.348,164 189.908,166 192,166 192,166 193,164 193,164  Z"/>

<path  fill="#1F9866" stroke-width="0" stroke="#1F9866" d = " M311 169 L317,170 C317,170 312,165 312,165 312,165 310,165 310,165 310,165 311,169 311,169  Z"/>

<path  fill="#209765" stroke-width="0" stroke="#209765" d = " M109 195 C109,196.693 100.761,199 99,199 99,199 93,185.5 93,185.5 92.2261,183.952 91.8179,175 90,175 90,175 90,174 90,174 90,174 91,173 91,173 91,173 103,169 103,169 103,174.404 102.741,181.982 105,186.5 105,186.5 109,195 109,195  Z"/>

<path  fill="#1F9865" stroke-width="0" stroke="#1F9865" d = " M155 193 C155,181.993 127.032,198.234 123.5,200 119.82,201.84 111,198.544 111,195 114.589,195 139,173.803 139,170 139,170 140,170 140,170 140,170 146,169 146,169 146,175.227 149.396,182.293 152,187.5 152.482,188.464 158,187.761 158,191 158,191 155,193 155,193  Z"/>

<path  fill="#A3DAA3" stroke-width="0" stroke="#A3DAA3" d = " M251 189 L252,189 C252,189 258,183 258,183 258,183 261,174.5 261,174.5 261.978,172.544 260,170.423 260,169 260,169 259,169 259,169 259,169 246,170 246,170 246,170 239,170 239,170 239,170 236,170 236,170 233.591,170 230.819,171 229,171 229,171 227,170 227,170 227,170.632 222.745,170 221,170 221,170 217,170 217,170 217,170 210,170 210,170 210,170 198,169 198,169 198,169 196,169 196,169 196,174.445 199,179.588 199,183 199,183 205,189 205,189 220.297,189 235.712,189 251,189  Z"/>

<path  fill="#1F9865" stroke-width="0" stroke="#1F9865" d = " M301 192 C301,189.554 307.416,187.958 309.5,189 316.557,192.528 326.833,200 335,200 337.932,200 346,199.365 346,195 341.365,195 326.018,181.536 324,177.5 324,177.5 317,170 317,170 317,170 311,169 311,169 311,173.601 304,183.707 304,184.5 304,184.5 305,186.5 305,186.5 303.753,188.994 299,187.826 299,191 299,191 301,192 301,192  Z"/>

<path  fill="#209765" stroke-width="0" stroke="#209765" d = " M357 199 L358,199 C358,191.766 366,182.271 366,174 366,174 365,173 365,173 365,173 353,169 353,169 353,174.99 353.491,182.518 351,187.5 351,187.5 347,195 347,195 349.931,195 353.508,199 357,199  Z"/>

<path  fill="#209764" stroke-width="0" stroke="#209764" d = " M358 199 L361,201 C361,201 364,195.5 364,195.5 366.687,190.125 371,182.23 371,176 371,176 366,174 366,174 366,182.271 358,191.766 358,199  Z"/>

<path  fill="#209764" stroke-width="0" stroke="#209764" d = " M99 199 L95,201 C95,197.549 85,181.944 85,176 85,176 90,175 90,175 91.8179,175 92.2261,183.952 93,185.5 93,185.5 99,199 99,199  Z"/>

<path  fill="#54BF94" stroke-width="0" stroke="#54BF94" d = " M187 249 L195,249 C195,249 196,248 196,248 196,248 199,247 199,247 199,247 200,246 200,246 200,246 202,245 202,245 202,245 213,231.5 213,231.5 216.704,224.093 213,218.171 213,211 213,203.148 205,197.238 205,189 205,189 199,183 199,183 193.743,183 191,185.602 191,191 191,196.379 210.045,227.227 196.5,234 192.116,236.192 183.425,229 181,229 173.495,229 169.693,235.886 173,242.5 173,242.5 178,247 178,247 178,247 179,247 179,247 179,247 187,249 187,249  Z"/>

<path  fill="#54BF94" stroke-width="0" stroke="#54BF94" d = " M261 249 L269,249 C272.68,249 274.511,247 278,247 278,247 279,247 279,247 279,247 280,246 280,246 280,246 284,241.5 284,241.5 287.577,234.347 281.05,229 275,229 272.84,229 263.876,236.188 259.5,234 252.717,230.608 257.176,207.148 260,201.5 260,201.5 265,192 265,192 265,186.774 263.841,183 258,183 258,183 252,189 252,189 252,189 251,190 251,190 251,197.931 243,203.666 243,211 243,216.892 240.135,224.77 243,230.5 244.464,233.428 257,245.568 257,247 257,247 258,247 258,247 258,247 259,248 259,248 259,248 260,248 260,248 260,248 261,249 261,249  Z"/>

<path  fill="#61D09F" stroke-width="0" stroke="#61D09F" d = " M213 211 C216.284,211 219.825,218.337 224.5,216 226.298,215.101 228.051,207 228.5,207 L229,211 C229,213.878 228.948,214.724 231.5,216 236.197,218.348 241.425,211 243,211 243,203.666 251,197.931 251,190 251,190 251,189 251,189 235.712,189 220.297,189 205,189 205,197.238 213,203.148 213,211  Z"/>

<path  fill="#219764" stroke-width="0" stroke="#219764" d = " M143 200 C134.015,200 122.037,212 112,212 112,210.815 99,203.754 99,199 100.761,199 109,196.693 109,195 109,195 111,195 111,195 111,198.544 119.82,201.84 123.5,200 127.032,198.234 155,181.993 155,193 155,193 143,200 143,200  Z"/>

<path  fill="#99D2BD" stroke-width="0" stroke="#99D2BD" d = " M252 189 L251,190 C251,190 251,189 251,189 251,189 252,189 252,189  Z"/>

<path  fill="#219764" stroke-width="0" stroke="#219764" d = " M314 200 C319.506,200 336.309,212 344,212 344,211.224 357,204.812 357,199 353.508,199 349.931,195 347,195 347,195 346,195 346,195 346,199.365 337.932,200 335,200 326.833,200 316.557,192.528 309.5,189 307.416,187.958 301,189.554 301,192 301,195.531 314,197.482 314,200  Z"/>

<path  fill="#80CDF8" stroke-width="0" stroke="#80CDF8" d = " M180 224 L181,229 C183.425,229 192.116,236.192 196.5,234 210.045,227.227 191,196.379 191,191 183.115,191 175,197.066 175,205 183.482,205 180,220.781 180,224  Z"/>

<path  fill="#80CDF8" stroke-width="0" stroke="#80CDF8" d = " M277 224 L275,229 C272.84,229 263.876,236.188 259.5,234 252.717,230.608 257.176,207.148 260,201.5 260,201.5 265,192 265,192 272.266,192 281,195.34 281,205 281,206.303 275.945,210.61 275,212.5 273.014,216.473 277,221.053 277,224  Z"/>

<path  fill="#A0EE9C" stroke-width="0" stroke="#A0EE9C" d = " M151 211 L151,212 C154.799,212 163.228,229.636 168.5,227 171.994,225.253 169.051,218.603 168,216.5 163.631,207.762 168.793,193.353 153.5,201 153.5,201 150,204.5 150,204.5 148.919,206.661 151,209.394 151,211  Z"/>

<path  fill="#A0EE9C" stroke-width="0" stroke="#A0EE9C" d = " M303 215 C301.253,215 301,215.253 301,217 295.758,217 294.266,230.383 287.5,227 285.657,226.078 286.179,221.142 287,219.5 288.796,215.908 290.751,200.375 293.5,199 300.767,195.367 304.174,205 307,205 307,205 307,209 307,209 307,209 306,211 306,211 306,211 305,212 305,212 305,212 305,213 305,213 303.253,213 303,213.253 303,215  Z"/>

<path  fill="#209864" stroke-width="0" stroke="#209864" d = " M112 212 C112,212.853 105.969,214 105,214 105,213.367 95,204.418 95,201 95,201 99,199 99,199 99,203.754 112,210.815 112,212  Z"/>

<path  fill="#209864" stroke-width="0" stroke="#209864" d = " M344 212 L351,214 C354.147,214 361,203.941 361,201 361,201 358,199 358,199 358,199 357,199 357,199 357,204.812 344,211.224 344,212  Z"/>

<path  fill="#6ACAB9" stroke-width="0" stroke="#6ACAB9" d = " M148 250 L151,250 C151,250 160,246 160,246 160,243.085 169.79,240.079 167,234.5 165.024,230.547 151,214.195 151,212 151,212 151,211 151,211 145.597,211 154.152,200 143,200 134.015,200 122.037,212 112,212 112,212.853 105.969,214 105,214 105,220.729 114.336,237 122,237 122,235.155 127.449,237.474 128.5,238 131.773,239.636 146.095,250 148,250  Z"/>

<path  fill="#6ACAB9" stroke-width="0" stroke="#6ACAB9" d = " M305 250 L308,250 C313.846,250 323.965,237 335,237 342.929,237 351,220.863 351,214 351,214 344,212 344,212 336.309,212 319.506,200 314,200 309.409,200 307,200.053 307,205 307,205 307,209 307,209 307,209 306,211 306,211 306,211 305,212 305,212 305,212 305,213 305,213 305,213 303,215 303,215 303,215 301,217 301,217 301,221.576 292.1,229.299 290,233.5 286.948,239.604 296,242.647 296,246 296,246 297,246 297,246 297,246 298,247 298,247 301.047,247 302.462,250 305,250  Z"/>

<path  fill="#CBCBC7" stroke-width="0" stroke="#CBCBC7" d = " M175 205 C183.482,205 180,220.781 180,224 170.385,224 165.865,205 175,205  Z"/>

<path  fill="#CBCBC7" stroke-width="0" stroke="#CBCBC7" d = " M281 205 C291.249,205 286.145,224 277,224 277,221.053 273.014,216.473 275,212.5 275.945,210.61 281,206.303 281,205  Z"/>

<path  fill="#99D2BD" stroke-width="0" stroke="#99D2BD" d = " M257 247 C250.914,247 252.903,239.798 242.5,245 241.086,245.707 239,247.014 239,249 239,251.512 236.311,247.121 236,246.5 235.031,244.563 234.003,236 231,236 231,236 231,234 231,234 231,234 230,233 230,233 230,225.11 226,228.093 226,234 226,234 225,235 225,235 225,235 225,237 225,237 220.651,237 221.33,250 217,250 217,239.865 206.63,245 202,245 202,245 213,231.5 213,231.5 216.704,224.093 213,218.171 213,211 216.284,211 219.825,218.337 224.5,216 226.298,215.101 228.051,207 228.5,207 228.5,207 229,211 229,211 229,213.878 228.948,214.724 231.5,216 236.197,218.348 241.425,211 243,211 243,216.892 240.135,224.77 243,230.5 244.464,233.428 257,245.568 257,247  Z"/>

<path  fill="#99D2BD" stroke-width="0" stroke="#99D2BD" d = " M307 209 L306,211 C306,211 307,209 307,209  Z"/>

<path  fill="#99D2BD" stroke-width="0" stroke="#99D2BD" d = " M306 211 L305,212 C305,212 306,211 306,211  Z"/>

<path  fill="#99D2BD" stroke-width="0" stroke="#99D2BD" d = " M305 213 C303.253,213 303,213.253 303,215 303,215 305,213 305,213  Z"/>

<path  fill="#99D2BD" stroke-width="0" stroke="#99D2BD" d = " M303 215 C301.253,215 301,215.253 301,217 301,217 303,215 303,215  Z"/>

<path  fill="#97D6F9" stroke-width="0" stroke="#97D6F9" d = " M230 233 L231,234 C231,234 230,233 230,233  Z"/>

<path  fill="#97D6F9" stroke-width="0" stroke="#97D6F9" d = " M226 234 L225,235 C225,235 226,234 226,234  Z"/>

<path  fill="#CAC8C7" stroke-width="0" stroke="#CAC8C7" d = " M148 250 C148,251.146 150.893,256 147,256 144.194,256 122,239.96 122,237 122,235.155 127.449,237.474 128.5,238 131.773,239.636 146.095,250 148,250  Z"/>

<path  fill="#97D6F9" stroke-width="0" stroke="#97D6F9" d = " M240 250 L237,253 C234.666,253 235.659,248.819 235,247.5 233.427,244.353 231,239.628 231,236 234.003,236 235.031,244.563 236,246.5 236.311,247.121 239,251.512 239,249 239,249 240,250 240,250  Z"/>

<path  fill="#CAC8C7" stroke-width="0" stroke="#CAC8C7" d = " M307 255 L309,256 C311.881,256 335,239.491 335,237 323.965,237 313.846,250 308,250 308,250 307,252 307,252 307,252 307,255 307,255  Z"/>

<path  fill="#97D6F9" stroke-width="0" stroke="#97D6F9" d = " M216 250 L217,250 C221.33,250 220.651,237 225,237 225,240.487 222.575,248.349 221,251.5 221,251.5 219,255 219,255 219,252.158 216,251.353 216,250  Z"/>

<path  fill="#A2B1D7" stroke-width="0" stroke="#A2B1D7" d = " M216 250 L217,250 C217,239.865 206.63,245 202,245 202,245 200,246 200,246 200,246 199,247 199,247 199,247 196,248 196,248 196,248 195,249 195,249 195,249 187,249 187,249 187,251.305 179,249.21 179,247 179,247 178,247 178,247 176.637,247 165,241.998 165,247 165,247 174.5,253 174.5,253 179.627,255.563 195.31,260.095 201.5,257 207.045,254.227 209.172,250 216,250  Z"/>

<path  fill="#A2B1D7" stroke-width="0" stroke="#A2B1D7" d = " M261 249 L269,249 C269,251.317 278,249.485 278,247 278,247 279,247 279,247 279,247 280,246 280,246 281.748,246 291,242.801 291,247 291,249.683 283.336,252.082 281.5,253 276.259,255.621 262.486,260.493 255.5,257 250.072,254.286 247.142,250 240,250 240,250 239,249 239,249 239,247.014 241.086,245.707 242.5,245 252.903,239.798 250.914,247 257,247 257,247 258,247 258,247 258,247 259,248 259,248 259,248 260,248 260,248 260,248 261,249 261,249  Z"/>

<path  fill="#7FCCF7" stroke-width="0" stroke="#7FCCF7" d = " M217 263 L216,265 C216,265 212,269.5 212,269.5 212,269.5 202.5,275 202.5,275 194.628,278.936 168.787,270.643 161.5,267 159.056,265.778 151,259.917 151,258 151,258 150,257 150,257 150,254.591 151,251.819 151,250 151,250 160,246 160,246 160,246 165,247 165,247 165,247 174.5,253 174.5,253 179.627,255.563 195.31,260.095 201.5,257 207.045,254.227 209.172,250 216,250 216,251.353 219,252.158 219,255 219,255 219,258 219,258 219,258 218,259 218,259 218,259 218,260 218,260 218,260 217,261 217,261 217,261 217,263 217,263  Z"/>

<path  fill="#99D2BD" stroke-width="0" stroke="#99D2BD" d = " M200 246 L199,247 C199,247 200,246 200,246  Z"/>

<path  fill="#99D2BD" stroke-width="0" stroke="#99D2BD" d = " M280 246 L279,247 C279,247 280,246 280,246  Z"/>

<path  fill="#7FCCF7" stroke-width="0" stroke="#7FCCF7" d = " M239 262 L241,265 C241,270.154 248.372,271.436 251.5,273 261.994,278.247 283.228,273.136 293.5,268 295.704,266.898 305,261.105 305,258 305,258 306,257 306,257 306,257 307,255 307,255 307,255 307,252 307,252 307,252 305,250 305,250 302.462,250 301.047,247 298,247 298,247 297,246 297,246 297,246 296,246 296,246 296,246 291,247 291,247 291,249.683 283.336,252.082 281.5,253 276.259,255.621 262.486,260.493 255.5,257 250.072,254.286 247.142,250 240,250 240,250 237,253 237,253 237,253 237,256 237,256 237,256 238,258 238,258 238,258 238,259 238,259 238,259 239,260 239,260 239,260 239,262 239,262  Z"/>

<path  fill="#99D2BD" stroke-width="0" stroke="#99D2BD" d = " M297 246 L298,247 C298,247 297,246 297,246  Z"/>

<path  fill="#99D2BD" stroke-width="0" stroke="#99D2BD" d = " M179 247 L187,249 C187,251.305 179,249.21 179,247  Z"/>

<path  fill="#99D2BD" stroke-width="0" stroke="#99D2BD" d = " M258 247 L259,248 C259,248 258,247 258,247  Z"/>

<path  fill="#99D2BD" stroke-width="0" stroke="#99D2BD" d = " M278 247 C274.511,247 272.68,249 269,249 269,251.317 278,249.485 278,247  Z"/>

<path  fill="#99D2BD" stroke-width="0" stroke="#99D2BD" d = " M196 248 L195,249 C195,249 196,248 196,248  Z"/>

<path  fill="#99D2BD" stroke-width="0" stroke="#99D2BD" d = " M260 248 L261,249 C261,249 260,248 260,248  Z"/>

<path  fill="#99D2BD" stroke-width="0" stroke="#99D2BD" d = " M150 257 L150,258 C150,258 147,256 147,256 150.893,256 148,251.146 148,250 148,250 151,250 151,250 151,251.819 150,254.591 150,257  Z"/>

<path  fill="#99D2BD" stroke-width="0" stroke="#99D2BD" d = " M308 250 L307,252 C307,252 305,250 305,250 305,250 308,250 308,250  Z"/>

<path  fill="#99D2BD" stroke-width="0" stroke="#99D2BD" d = " M306 257 L306,258 C306,258 309,256 309,256 309,256 307,255 307,255 307,255 306,257 306,257  Z"/>

<path  fill="#97D6F9" stroke-width="0" stroke="#97D6F9" d = " M237 256 L238,258 C238,258 237,256 237,256  Z"/>

<path  fill="#97D6F9" stroke-width="0" stroke="#97D6F9" d = " M150 258 L151,258 C151,258 150,257 150,257 150,257 150,258 150,258  Z"/>

<path  fill="#97D6F9" stroke-width="0" stroke="#97D6F9" d = " M305 258 L306,258 C306,258 306,257 306,257 306,257 305,258 305,258  Z"/>

<path  fill="#97D6F9" stroke-width="0" stroke="#97D6F9" d = " M219 258 L218,259 C218,259 219,258 219,258  Z"/>

<path  fill="#97D6F9" stroke-width="0" stroke="#97D6F9" d = " M238 259 L239,260 C239,260 238,259 238,259  Z"/>

<path  fill="#97D6F9" stroke-width="0" stroke="#97D6F9" d = " M218 260 L217,261 C217,261 218,260 218,260  Z"/>

<path  fill="#97D6F9" stroke-width="0" stroke="#97D6F9" d = " M239 262 L241,265 C239.423,265 239,263.238 239,262  Z"/>

<path  fill="#97D6F9" stroke-width="0" stroke="#97D6F9" d = " M217 263 L216,265 C216,265 217,263 217,263  Z"/>

</g>
</svg>
