<svg xmlns="http://www.w3.org/2000/svg" xmlns:xlink="http://www.w3.org/1999/xlink"  viewBox="0 0 456 320">
<g>
<rect width="456" height="320" fill="#000000"  stroke-width="0" /> 
<path  fill="#FF64FF" stroke-width="0" stroke="#FF64FF" d = " M187 47 L188,47 C189.574,47 197,47.751 197,46 195.343,46 187,45.2366 187,47  Z"/>

<path  fill="#FE79FF" stroke-width="0" stroke="#FE79FF" d = " M199 103 L194,107 C185.136,107 180.203,77.0931 184,69.5 186.308,64.8849 185.722,59.0564 188,54.5 188.472,53.5555 188.156,51 187,51 187,51 188,47 188,47 189.574,47 197,47.751 197,46 197,46 198,46 198,46 198,47.6844 202.679,47 204,47 204,47 205,47 205,47 205,48.4536 210.366,48.4331 211.5,49 214.323,50.4116 217.867,55.7661 216,59.5 213.15,65.2009 213.868,72.764 211,78.5 208.302,83.8957 203,90.6985 203,97 201.423,97 201,98.7617 201,100 199.423,100 199,101.762 199,103  Z"/>

<path  fill="#FF64FF" stroke-width="0" stroke="#FF64FF" d = " M198 46 C199.321,46 204,45.3156 204,47 202.679,47 198,47.6844 198,46  Z"/>

<path  fill="#FF64FF" stroke-width="0" stroke="#FF64FF" d = " M258 46 C256.679,46 252,45.3156 252,47 253.321,47 258,47.6844 258,46  Z"/>

<path  fill="#FE79FF" stroke-width="0" stroke="#FE79FF" d = " M270 51 C268.275,51 269,57.0522 269,58.5 269,61.2393 272.65,74.8007 274,77.5 274.964,79.4272 273.728,83.0447 273,84.5 L273,91.5 L269,100.5 C267.553,103.394 263,104.929 263,108 259.798,108 256.045,99.5901 255,97.5 250.961,89.4218 236.018,62.4641 241,52.5 242.365,49.7692 251,48.5443 251,47 251,47 252,47 252,47 253.321,47 258,47.6844 258,46 258,46 259,46 259,46 259,47.7634 267.343,47 269,47 269,47 270,51 270,51  Z"/>

<path  fill="#FF64FF" stroke-width="0" stroke="#FF64FF" d = " M259 46 C260.657,46 269,45.2366 269,47 267.343,47 259,47.7634 259,46  Z"/>

<path  fill="#FF64FF" stroke-width="0" stroke="#FF64FF" d = " M186 47 C184.855,47 182,46.4209 182,48 183.145,48 186,48.5791 186,47  Z"/>

<path  fill="#FE79FE" stroke-width="0" stroke="#FE79FE" d = " M147 84 C147,87.6088 146.481,90.5374 145,93.5 141.632,100.235 148.518,120.009 154.5,123 158.05,124.775 161.667,125 166,125 166,125 163,122.5 163,122.5 163,122.5 160,112.5 160,112.5 160,112.5 160,104.5 160,104.5 160,86.1348 165.612,80.2767 173,65.5 175.062,61.3754 181.846,51 187,51 187,51 188,47 188,47 188,47 187,47 187,47 187,47 186,47 186,47 186,48.5791 183.145,48 182,48 182,48 181,48 181,48 181,48 180,49 180,49 177.028,49 161,58.3768 161,62 161,62 160,63 160,63 160,63 159,64 159,64 159,64 158,65 158,65 158,65 157,66 157,66 157,66 156,67 156,67 156,67 155,68 155,68 155,68 155,69 155,69 155,69 154,70 154,70 154,70 153,71 153,71 153,71 153,72 153,72 153,72 152,73 152,73 152,73 149,79 149,79 149,80.6218 149.461,84 147,84  Z"/>

<path  fill="#FF64FF" stroke-width="0" stroke="#FF64FF" d = " M269 120 C269,117.627 271.284,120 272,120 272,118.718 263,111.819 263,108 259.798,108 256.045,99.5901 255,97.5 250.961,89.4218 236.018,62.4641 241,52.5 242.365,49.7692 251,48.5443 251,47 245.8,47 234.592,50.3161 232,55.5 232,55.5 229,61.5 229,61.5 229,61.5 228.5,65 228.5,65 228.5,65 224,55.5 224,55.5 219.081,50.5809 211.917,47 205,47 205,48.4536 210.366,48.4331 211.5,49 214.323,50.4116 217.867,55.7661 216,59.5 213.15,65.2009 213.868,72.764 211,78.5 208.302,83.8957 203,90.6985 203,97 206.015,97 208.002,88.4956 209,86.5 211.754,80.9925 216.435,74.0327 222.5,71 225.264,69.6181 226.829,73 228.5,73 229.243,73 230.773,69.6367 233.5,71 243.702,76.1011 247.285,87.0709 252,96.5 252,96.5 259,105.5 259,105.5 260.905,109.311 264.116,112.731 266,116.5 266,116.5 269,120 269,120  Z"/>

<path  fill="#FE79FE" stroke-width="0" stroke="#FE79FE" d = " M303 71 C303,73.3328 309.57,87.6396 311,90.5 L311,99 C311,113.006 306.496,125 291,125 291,125 293,122.5 293,122.5 293,122.5 296,113.5 296,113.5 296,113.5 296,104.5 296,104.5 301.974,92.5524 289.718,77.9366 285,68.5 282.916,64.3313 276.317,51 270,51 270,51 269,47 269,47 269,47 271,47 271,47 271,48.4729 272.952,48 274,48 280.121,48 293.213,60 294,60 294,60 298,65 298,65 298,65 299,66 299,66 299,66 300,67 300,67 300,67 302,69 302,69 302,69 303,70 303,70 303,70 303,71 303,71  Z"/>

<path  fill="#FF64FF" stroke-width="0" stroke="#FF64FF" d = " M271 47 C272.048,47 274,46.5271 274,48 272.952,48 271,48.4729 271,47  Z"/>

<path  fill="#FF64FF" stroke-width="0" stroke="#FF64FF" d = " M181 48 L180,49 C180,49 181,48 181,48  Z"/>

<path  fill="#FE7AFE" stroke-width="0" stroke="#FE7AFE" d = " M173 125 L175,125 C175,125 177,124 177,124 177,124 179,123 179,123 179,123 180,123 180,123 180,123 181,122 181,122 181,122 182,121 182,121 182,121 183,121 183,121 183,121 184,120 184,120 184,120 186,119 186,119 186,115.265 194,111.198 194,107 185.136,107 180.203,77.0931 184,69.5 186.308,64.8849 185.722,59.0564 188,54.5 188.472,53.5555 188.156,51 187,51 181.846,51 175.062,61.3754 173,65.5 165.612,80.2767 160,86.1348 160,104.5 160,104.5 160,112.5 160,112.5 160,112.5 163,122.5 163,122.5 163,122.5 166,125 166,125 166,125 173,125 173,125  Z"/>

<path  fill="#FE7AFE" stroke-width="0" stroke="#FE7AFE" d = " M283 125 L291,125 C291,125 293,122.5 293,122.5 293,122.5 296,113.5 296,113.5 296,113.5 296,104.5 296,104.5 301.974,92.5524 289.718,77.9366 285,68.5 282.916,64.3313 276.317,51 270,51 268.275,51 269,57.0522 269,58.5 269,61.2393 272.65,74.8007 274,77.5 274.964,79.4272 273.728,83.0447 273,84.5 273,84.5 273,91.5 273,91.5 273,91.5 269,100.5 269,100.5 267.553,103.394 263,104.929 263,108 263,111.819 272,118.718 272,120 272,120 275,122 275,122 275,122 276,123 276,123 276,123 278,123 278,123 278,123 281,125 281,125 281,125 283,125 283,125  Z"/>

<path  fill="#FF64FF" stroke-width="0" stroke="#FF64FF" d = " M294 60 C295.811,60 298,63.4383 298,65 298,65 294,60 294,60  Z"/>

<path  fill="#FF64FF" stroke-width="0" stroke="#FF64FF" d = " M161 62 L160,63 C160,63 161,62 161,62  Z"/>

<path  fill="#FF64FF" stroke-width="0" stroke="#FF64FF" d = " M159 64 L158,65 C158,65 159,64 159,64  Z"/>

<path  fill="#FF64FF" stroke-width="0" stroke="#FF64FF" d = " M158 65 L157,66 C157,66 158,65 158,65  Z"/>

<path  fill="#098589" stroke-width="0" stroke="#098589" d = " M105 74 C105,75.0414 115.421,79 117,79 117,79 121,74.5 121,74.5 135.848,59.6523 105,68.0057 105,74  Z"/>

<path  fill="#FF64FF" stroke-width="0" stroke="#FF64FF" d = " M157 66 L156,67 C156,67 157,66 157,66  Z"/>

<path  fill="#FF64FF" stroke-width="0" stroke="#FF64FF" d = " M299 66 L300,67 C300,67 299,66 299,66  Z"/>

<path  fill="#098589" stroke-width="0" stroke="#098589" d = " M352 74 C347.987,74 343.378,79 339,79 336.147,79 330.518,69.4644 332,66.5 333.727,63.0463 352,71.2635 352,74  Z"/>

<path  fill="#FF64FF" stroke-width="0" stroke="#FF64FF" d = " M156 67 L155,68 C155,68 156,67 156,67  Z"/>

<path  fill="#FF64FF" stroke-width="0" stroke="#FF64FF" d = " M155 69 L154,70 C154,70 155,69 155,69  Z"/>

<path  fill="#FF64FF" stroke-width="0" stroke="#FF64FF" d = " M302 69 L303,70 C303,70 302,69 302,69  Z"/>

<path  fill="#FF64FF" stroke-width="0" stroke="#FF64FF" d = " M154 70 L153,71 C153,71 154,70 154,70  Z"/>

<path  fill-rule="evenodd" fill="#FC8FFF" stroke-width="0" stroke="#FC8FFF" d = " M263 144 C263,149.95 265.235,144 263,144  M192 144 C192,150.548 197.827,144 192,144  M256 152 C258.72,152 259.553,152 262,152 262,152 263,151 263,151 263,151 264,149 264,149 264,149 267,146 267,146 267,144.952 266.527,143 268,143 268,143 269,141 269,141 269,141 270,140 270,140 270,140 270,137 270,137 270,131.211 269,125.22 269,120 269,120 266,116.5 266,116.5 264.116,112.731 260.905,109.311 259,105.5 259,105.5 252,96.5 252,96.5 247.285,87.0709 243.702,76.1011 233.5,71 230.773,69.6367 229.243,73 228.5,73 226.829,73 225.264,69.6181 222.5,71 216.435,74.0327 211.754,80.9925 209,86.5 208.002,88.4956 206.015,97 203,97 203,98.2383 202.577,100 201,100 201,101.238 200.577,103 199,103 199,106.736 192.668,112.163 191,115.5 191,115.5 188,119 188,119 188,120.87 186,124.671 186,126.5 186,128.62 187,132.223 187,135 187,135 186,137 186,137 186,137 186,138 186,138 186,138 187,140 187,140 187,140 188,143 188,143 188,143 189,144 189,144 189,144 189,145 189,145 189,145 192,149 192,149 192,149 193,150 193,150 193,150 194,152 194,152 194,152 200,152 200,152 200,152 201,152 201,152 201,152 202,151 202,151 202,151 203,150 203,150 203,150 204,149 204,149 204,149 210.5,146 210.5,146 213.26,144.62 214.658,149 216,149 220.153,149 222.085,153 225,153 225,153 225,151 225,151 225,151 225,149 225,149 225,149 224,147 224,147 218.811,147 216.78,141.14 212.5,139 194.097,129.799 216.091,100.704 227.5,95 229.362,94.0692 236.394,102.447 237.5,103 241.203,104.852 243.238,108.976 245,112.5 250.289,123.077 255.403,134.048 241.5,141 238.333,142.583 236.817,147 233,147 233,147 232,149 232,149 232,149 232,151 232,151 232,151 232,153 232,153 234.749,153 237.105,149 241,149 241,142.338 249.706,149 252,149 253.238,149 255,149.423 255,151 255,151 255,152 255,152 255,152 256,152 256,152  Z"/>

<path  fill="#FF64FF" stroke-width="0" stroke="#FF64FF" d = " M307 129 L303,130 C303,124.585 291.466,127 288,127 286.959,127 283,126.014 283,125 283,125 291,125 291,125 306.496,125 311,113.006 311,99 311,99 311,90.5 311,90.5 309.57,87.6396 303,73.3328 303,71 303,71 305,73 305,73 308.487,73 314.089,103 316,103 316,103 315,111 315,111 315,111 315,117 315,117 314.249,117 309,125.739 309,127 309,127 308,128 308,128 308,128 307,129 307,129  Z"/>

<path  fill="#C9C8C8" stroke-width="0" stroke="#C9C8C8" d = " M147 84 C145.41,84 145.557,88.386 145,89.5 144.136,91.2277 142.391,103 141,103 138.459,103 141,96.6146 141,95.5 141,91.0019 143.382,82.1177 146.5,79 146.942,78.5576 151,70.2483 151,73 151,74.9744 149,76.5173 149,79 147.362,79 147,82.5758 147,84  Z"/>

<path  fill="#FF64FF" stroke-width="0" stroke="#FF64FF" d = " M153 72 L152,73 C152,73 153,72 153,72  Z"/>

<path  fill="#C9C8C8" stroke-width="0" stroke="#C9C8C8" d = " M305 73 C308.487,73 314.089,103 316,103 316,94.7 311,85.7113 311,81 311,78.6825 305,71.6132 305,73  Z"/>

<path  fill="#FF64FF" stroke-width="0" stroke="#FF64FF" d = " M152 73 L149,79 C149,76.5173 151,74.9744 151,73 151,73 152,73 152,73  Z"/>

<path  fill="#0A838A" stroke-width="0" stroke="#0A838A" d = " M101 97 L81,98 C81,98 87.5,92 87.5,92 91.3546,88.1454 98.4544,74 105,74 105,75.0414 115.421,79 117,79 117,79 113,83.5 113,83.5 110.51,85.9905 104.966,97 101,97  Z"/>

<path  fill="#0A838A" stroke-width="0" stroke="#0A838A" d = " M356 98 C356,96.3855 359.31,97 360.5,97 L375,98 C375,98 369,92.5 369,92.5 367.089,88.6781 355.693,74 352,74 347.987,74 343.378,79 339,79 339,79 343,83.5 343,83.5 345.551,86.0511 352.237,98 356,98  Z"/>

<path  fill="#FF64FF" stroke-width="0" stroke="#FF64FF" d = " M149 79 C147.362,79 147,82.5758 147,84 149.461,84 149,80.6218 149,79  Z"/>

<path  fill="#FF64FF" stroke-width="0" stroke="#FF64FF" d = " M149 128 L153,130 C153,122.848 173,130.051 173,125 173,125 166,125 166,125 161.667,125 158.05,124.775 154.5,123 148.518,120.009 141.632,100.235 145,93.5 146.481,90.5374 147,87.6088 147,84 145.41,84 145.557,88.386 145,89.5 144.136,91.2277 142.391,103 141,103 141,103 141,110 141,110 141,110 141,111 141,111 141,111 141,115 141,115 141,115 147,127 147,127 147,127 148,127 148,127 148,127 149,128 149,128  Z"/>

<path  fill="#A9A9A8" stroke-width="0" stroke="#A9A9A8" d = " M224 147 L233,147 C236.817,147 238.333,142.583 241.5,141 255.403,134.048 250.289,123.077 245,112.5 243.238,108.976 241.203,104.852 237.5,103 236.394,102.447 229.362,94.0692 227.5,95 216.091,100.704 194.097,129.799 212.5,139 216.78,141.14 218.811,147 224,147  Z"/>

<path  fill="#72D568" stroke-width="0" stroke="#72D568" d = " M74 107 C81.3725,107 89.2417,108 96,108 96,108 101,97 101,97 101,97 81,98 81,98 81,100.274 74,103.282 74,107  Z"/>

<path  fill="#FF64FF" stroke-width="0" stroke="#FF64FF" d = " M203 97 C201.423,97 201,98.7617 201,100 202.577,100 203,98.2383 203,97  Z"/>

<path  fill="#72D568" stroke-width="0" stroke="#72D568" d = " M361 108 C367.53,108 376.493,108 383,108 383,106.398 376.936,98 375,98 375,98 360.5,97 360.5,97 359.31,97 356,96.3855 356,98 356,98 361,108 361,108  Z"/>

<path  fill="#FF64FF" stroke-width="0" stroke="#FF64FF" d = " M201 100 C199.423,100 199,101.762 199,103 200.577,103 201,101.238 201,100  Z"/>

<path  fill="#FDFB8F" stroke-width="0" stroke="#FDFB8F" d = " M109 172 L111,172 C111,172 122,160.5 122,160.5 126.192,152.115 128.81,142.88 133,134.5 133,134.5 140,126 140,126 140,126 140,124 140,124 140,121.611 141,118.013 141,115 141,115 141,111 141,111 141,111 140,110 140,110 140,110 137,106.5 137,106.5 130.904,100.404 124.438,103.062 119,108.5 110.556,116.944 97,139.531 97,151.5 97,156.939 103.286,172 109,172  Z"/>

<path  fill="#FF64FF" stroke-width="0" stroke="#FF64FF" d = " M186 119 L188,119 C188,119 191,115.5 191,115.5 192.668,112.163 199,106.736 199,103 199,103 194,107 194,107 194,111.198 186,115.265 186,119  Z"/>

<path  fill="#FDFB8F" stroke-width="0" stroke="#FDFB8F" d = " M346 172 L347,172 C351.616,172 350.924,166.288 353.5,165 370.525,156.487 346.617,118.117 338,109.5 332.28,103.78 328.663,101.419 321.5,105 321.5,105 317,109 317,109 317,109 316,110 316,110 316,110 315,111 315,111 315,111 315,117 315,117 315,117 315,119 315,119 315,119 316,120 316,120 316,120 316,126 316,126 318.857,126 322.071,133.642 323,135.5 327.854,145.207 332.152,154.803 337,164.5 337,164.5 346,172 346,172  Z"/>

<path  fill="#72D568" stroke-width="0" stroke="#72D568" d = " M74 107 L73,108 C73,108 74,107 74,107  Z"/>

<path  fill="#31B625" stroke-width="0" stroke="#31B625" d = " M73 108 L67,119.5 C62.7554,127.989 60.3915,145.283 65,154.5 67.9901,160.48 76.0099,160.48 79,154.5 82.4804,147.539 83.5477,139.405 87,132.5 88.5495,129.401 87.4374,124.625 89,121.5 90.8036,117.893 96,112.057 96,108 89.2417,108 81.3725,107 74,107 74,107 73,108 73,108  Z"/>

<path  fill="#31B625" stroke-width="0" stroke="#31B625" d = " M361 108 C367.53,108 376.493,108 383,108 383,108 389,118.5 389,118.5 391.281,123.062 395.935,145.631 393,151.5 389.48,158.54 381.589,162.679 377,153.5 371.798,143.096 371.418,129.336 367,120.5 364.977,116.454 361,112.863 361,108  Z"/>

<path  fill="#F0F080" stroke-width="0" stroke="#F0F080" d = " M317 109 L316,110 C316,110 317,109 317,109  Z"/>

<path  fill="#F0F080" stroke-width="0" stroke="#F0F080" d = " M141 110 L141,111 C141,111 140,110 140,110 140,110 141,110 141,110  Z"/>

<path  fill="#FC90FF" stroke-width="0" stroke="#FC90FF" d = " M174 143 L177,143 C177,143 178,142 178,142 178,142 185,140 185,140 185,140 186,138 186,138 186,138 186,137 186,137 186,137 187,135 187,135 187,132.223 186,128.62 186,126.5 186,124.671 188,120.87 188,119 188,119 186,119 186,119 186,119 184,120 184,120 184,120 183,121 183,121 183,121 182,121 182,121 182,121 181,122 181,122 181,122 180,123 180,123 180,123 179,123 179,123 179,123 177,124 177,124 177,124 175,125 175,125 175,125 173,125 173,125 173,130.051 153,122.848 153,130 153,134.666 158.749,143 164,143 164,143 173,143 173,143 173,143 174,143 174,143  Z"/>

<path  fill="#FC90FF" stroke-width="0" stroke="#FC90FF" d = " M283 143 L293,143 C298.289,143 303,134.599 303,130 303,124.585 291.466,127 288,127 286.959,127 283,126.014 283,125 283,125 281,125 281,125 279.762,125 278,124.577 278,123 278,123 276,123 276,123 276,123 275,122 275,122 275,122 272,120 272,120 271.284,120 269,117.627 269,120 269,125.22 270,131.211 270,137 270,137 272,140 272,140 275.269,140 278.321,143 282,143 282,143 283,143 283,143  Z"/>

<path  fill="#F0F080" stroke-width="0" stroke="#F0F080" d = " M315 119 L316,120 C316,120 315,119 315,119  Z"/>

<path  fill="#FF64FF" stroke-width="0" stroke="#FF64FF" d = " M184 120 L183,121 C183,121 184,120 184,120  Z"/>

<path  fill="#FF64FF" stroke-width="0" stroke="#FF64FF" d = " M182 121 L181,122 C181,122 182,121 182,121  Z"/>

<path  fill="#FF64FF" stroke-width="0" stroke="#FF64FF" d = " M181 122 L180,123 C180,123 181,122 181,122  Z"/>

<path  fill="#FF64FF" stroke-width="0" stroke="#FF64FF" d = " M275 122 L276,123 C276,123 275,122 275,122  Z"/>

<path  fill="#FF64FF" stroke-width="0" stroke="#FF64FF" d = " M179 123 L177,124 C177,124 179,123 179,123  Z"/>

<path  fill="#FF64FF" stroke-width="0" stroke="#FF64FF" d = " M278 123 L281,125 C279.762,125 278,124.577 278,123  Z"/>

<path  fill="#F0F080" stroke-width="0" stroke="#F0F080" d = " M140 126 L141,126 C141,126 140,124 140,124 140,124 140,126 140,126  Z"/>

<path  fill="#FF64FF" stroke-width="0" stroke="#FF64FF" d = " M177 124 L175,125 C175,125 177,124 177,124  Z"/>

<path  fill-rule="evenodd" fill="#FCFB90" stroke-width="0" stroke="#FCFB90" d = " M134 160 C134,163.746 136.091,160 134,160  M137 179 L140,180 C142.25,180 143.376,178 145,178 145,172.837 151,168.547 151,164 151,164 152,163 152,163 152,163 153,161 153,161 151.844,161 151.528,158.445 152,157.5 153.251,154.997 156.652,148.804 155,145.5 152.981,141.462 153.02,136.541 151,132.5 151,132.5 147,127 147,127 145.679,127 141,127.684 141,126 141,126 140,126 140,126 140,126 133,134.5 133,134.5 128.81,142.88 126.192,152.115 122,160.5 122,160.5 111,172 111,172 116.894,172 121.76,173.87 127.5,171 127.5,171 133.5,162 133.5,162 135.297,162 130.536,171.572 131,172.5 131,172.5 137,179 137,179  Z"/>

<path  fill="#F0F080" stroke-width="0" stroke="#F0F080" d = " M316 126 L315,127 C315,127 316,126 316,126  Z"/>

<path  fill="#FCFB90" stroke-width="0" stroke="#FCFB90" d = " M320 179 L317,180 C315.6,180 312.64,179.78 312,178.5 312,178.5 307,166.5 307,166.5 307,166.5 303,161 303,161 304.945,161 302,149.536 302,147.5 302,139.828 307,133.952 307,129 307,129 308,128 308,128 308,128 309,127 309,127 309,127 315,127 315,127 315,127 316,126 316,126 318.857,126 322.071,133.642 323,135.5 327.854,145.207 332.152,154.803 337,164.5 337,164.5 346,172 346,172 340.03,172 335.3,173.9 329.5,171 327.276,169.888 322.016,161.468 322,161.5 320.44,164.619 326.929,169.641 325,173.5 325,173.5 320,179 320,179  Z"/>

<path  fill="#F0F080" stroke-width="0" stroke="#F0F080" d = " M169 144 C169,144.545 160.92,150.58 159.5,152 L153,161 C151.844,161 151.528,158.445 152,157.5 153.251,154.997 156.652,148.804 155,145.5 152.981,141.462 153.02,136.541 151,132.5 151,132.5 147,127 147,127 147,127 148,127 148,127 148,127 149,128 149,128 149,128 153,130 153,130 153,134.666 158.749,143 164,143 164,144.643 167.765,144 169,144  Z"/>

<path  fill="#F0F080" stroke-width="0" stroke="#F0F080" d = " M308 128 L307,129 C307,129 308,128 308,128  Z"/>

<path  fill="#F0F080" stroke-width="0" stroke="#F0F080" d = " M288 145 C291.07,145 303,157.679 303,161 304.945,161 302,149.536 302,147.5 302,139.828 307,133.952 307,129 307,129 303,130 303,130 303,134.599 298.289,143 293,143 293,145.496 288,142.504 288,145  Z"/>

<path  fill="#FF64FF" stroke-width="0" stroke="#FF64FF" d = " M187 135 L186,137 C186,137 187,135 187,135  Z"/>

<path  fill="#FF64FF" stroke-width="0" stroke="#FF64FF" d = " M270 140 L272,140 C272,140 270,137 270,137 270,137 270,140 270,140  Z"/>

<path  fill="#FF64FF" stroke-width="0" stroke="#FF64FF" d = " M185 140 L187,140 C187,140 186,138 186,138 186,138 185,140 185,140  Z"/>

<path  fill="#FFAD6D" stroke-width="0" stroke="#FFAD6D" d = " M148 177 C148,178.948 153.428,181 155,181 155,177.715 174.967,162 179,162 179,162 180,161 180,161 180,161 181,161 181,161 181,161 182,160 182,160 182,160 187,152 187,152 187,151.329 188.328,147 189,147 189,147 189,145 189,145 189,145 189,144 189,144 189,144 188,143 188,143 188,143 187,140 187,140 187,140 185,140 185,140 185,140 178,142 178,142 178,142 177,143 177,143 177,143 174,143 174,143 174,143 173,144 173,144 173,144 172,145 172,145 172,145 171,145 171,145 171,145 170,146 170,146 170,146 169,147 169,147 169,147 168,148 168,148 168,148 167,149 167,149 167,149 166,150 166,150 166,150 165,151 165,151 165,153.364 162,154.053 162,156 162,156 161,157 161,157 161,157 160,158 160,158 160,158 159,159 159,159 159,160.747 158.747,161 157,161 157,164.274 152.395,166.711 151,169.5 150.364,170.772 149.55,177 148,177  Z"/>

<path  fill="#FF9B88" stroke-width="0" stroke="#FF9B88" d = " M270 140 L269,141 C269,141 270,140 270,140  Z"/>

<path  fill="#FFAD6D" stroke-width="0" stroke="#FFAD6D" d = " M301 181 L302,181 C303.664,181 308,179.177 308,177 308,170.067 295,160.906 295,157 295,154.211 291,153.58 291,151 291,151 289,149 289,149 289,149 289,148 289,148 289,148 288,147 288,147 288,147 287,146 287,146 287,146 286,146 286,146 286,146 284,144 284,144 284,144 283,144 283,144 283,144 282,143 282,143 278.321,143 275.269,140 272,140 272,140 270,140 270,140 270,140 269,141 269,141 269,141 268,143 268,143 268,143 269,152 269,152 270.504,152 273,157.699 273,159 273,159 275,161 275,161 275,161 276,161 276,161 276,161 277,162 277,162 281.853,162 301,177.703 301,181  Z"/>

<path  fill="#FF9B88" stroke-width="0" stroke="#FF9B88" d = " M178 142 L177,143 C177,143 178,142 178,142  Z"/>

<path  fill="#FF64FF" stroke-width="0" stroke="#FF64FF" d = " M171 145 L172,145 C172,145 173,144 173,144 173,144 173,143 173,143 173,143 164,143 164,143 164,144.643 167.765,144 169,144 169,144 170,145 170,145 170,145 171,145 171,145  Z"/>

<path  fill="#FF9B88" stroke-width="0" stroke="#FF9B88" d = " M174 143 L173,144 C173,144 173,143 173,143 173,143 174,143 174,143  Z"/>

<path  fill="#FF9B88" stroke-width="0" stroke="#FF9B88" d = " M188 143 L189,144 C189,144 188,143 188,143  Z"/>

<path  fill-rule="evenodd" fill="#FF9B88" stroke-width="0" stroke="#FF9B88" d = " M225 263 L226,263 C226,263 226.5,249 226.5,249 229.212,247.644 229.683,251 231,251 231,247.36 235,243.124 235,239 235,239 235,231 235,231 235,231 235,211.5 235,211.5 236.112,209.275 237,206.654 237,204 237,204 241.5,197 241.5,197 245.708,194.896 267.527,185.554 271,192.5 271,192.5 271,200 271,200 271,200 274,197 274,197 274,187.066 277.767,186 288,186 288,184.669 271.86,182.219 271,180.5 268.001,174.502 271,171 271,164 271,164 268,162.5 268,162.5 267.289,161.078 267.768,152 269,152 269,152 268,143 268,143 266.527,143 267,144.952 267,146 267,147.766 266.393,151 264,151 264,151 262,152 262,152 259.553,152 258.72,152 256,152 256,152 256,153 256,153 256,153 259,157.5 259,157.5 259,157.5 259,161.5 259,161.5 259,161.5 264,172.5 264,172.5 264,172.5 261,176 261,176 261,176 260,177 260,177 260,177 250.5,185 250.5,185 243.949,188.276 229,203.417 229,185 229,185 227,185 227,185 227,205.141 209.835,186.167 203.5,183 201.333,181.917 196,178.585 196,176 187.842,176 200,156.26 200,153 200,153 200,152 200,152 200,152 194,152 194,152 190.926,152 190.872,147 189,147 188.328,147 187,151.329 187,152 188.232,152 188.711,161.078 188,162.5 188,162.5 185,164 185,164 185,168.828 189.291,173.919 187,178.5 184.692,183.115 175.454,183.023 171.5,185 170.454,185.523 168,184.049 168,186 176.473,186 183,187.226 183,197 183,197 185,199 185,199 185,182.593 206.788,193.144 214.5,197 222.351,200.925 221,220.68 221,229 221,229 222,237 222,237 222,242.071 222.929,245.358 225,249.5 225,249.5 224,260 224,260 224,260 225,263 225,263  M237 204 L238,200.5 C238.484,199.531 237.935,196 236.5,196 233.926,196 234.933,206 235.5,206 L237,204  M222 203 C224.455,203 221.784,197.858 223.5,197 226.1,195.7 226.363,198.431 227.5,199 228.84,199.67 229.771,195.635 232.5,197 235.699,198.6 234.167,210.166 233,212.5 L229.5,216 L228.5,201 L228,204.5 C228,206.186 228.712,216 226.5,216 223.67,216 222,207.86 222,206 214.844,206 222,189.703 222,200 222,200 222,203 222,203  M192 163 C192,164.186 193,164.186 193,163 199.101,163 190,144.904 190,157.5 190,157.5 190,161 190,161 190,165.738 189.535,163 192,163  M267 161 C267,164.947 266.409,163 264,163 264,165.317 257.94,155.78 263.5,153 267.352,151.074 267,158.95 267,161  Z"/>

<path  fill="#FF9B88" stroke-width="0" stroke="#FF9B88" d = " M283 143 L283,144 C283,144 282,143 282,143 282,143 283,143 283,143  Z"/>

<path  fill="#FF64FF" stroke-width="0" stroke="#FF64FF" d = " M286 145 C286,143.07 287.161,145 288,145 288,142.504 293,145.496 293,143 293,143 283,143 283,143 283,143 283,144 283,144 283,144 284,144 284,144 284,144 286,145 286,145  Z"/>

<path  fill-rule="evenodd" fill="#CBC9CC" stroke-width="0" stroke="#CBC9CC" d = " M154 162 C154,163.93 155.93,162 154,162  M148 177 L145,178 C145,172.837 151,168.547 151,164 151,164 152,163 152,163 152,163 153,161 153,161 153,161 159.5,152 159.5,152 160.92,150.58 169,144.545 169,144 169,144 170,145 170,145 170,145 170,146 170,146 170,146 169,146 169,146 169,146 168,147 168,147 168,147 167,148 167,148 167,148 167,149 167,149 167,149 166,149 166,149 166,149 165,150 165,150 162.116,150 152.672,161 157,161 157,164.274 152.395,166.711 151,169.5 150.364,170.772 149.55,177 148,177  Z"/>

<path  fill="#FF9B88" stroke-width="0" stroke="#FF9B88" d = " M173 144 L172,145 C172,145 173,144 173,144  Z"/>

<path  fill="#C8C9C8" stroke-width="0" stroke="#C8C9C8" d = " M192 144 C192,150.548 197.827,144 192,144  Z"/>

<path  fill="#C8C9C8" stroke-width="0" stroke="#C8C9C8" d = " M263 144 C263,149.95 265.235,144 263,144  Z"/>

<path  fill="#FF9B88" stroke-width="0" stroke="#FF9B88" d = " M286 145 L286,146 C286,146 284,144 284,144 284,144 286,145 286,145  Z"/>

<path  fill="#CBC9CC" stroke-width="0" stroke="#CBC9CC" d = " M314 182 L316,182 C316,182 317,180 317,180 315.6,180 312.64,179.78 312,178.5 312,178.5 307,166.5 307,166.5 307,166.5 303,161 303,161 303,157.679 291.07,145 288,145 287.161,145 286,143.07 286,145 286,145 286,146 286,146 286,146 287,146 287,146 287,146 288,147 288,147 288,147 289,148 289,148 289,148 291,150 291,150 294.658,150 297.708,155.916 299,158.5 299.767,160.035 303.216,163 301.5,163 301.5,163 295,157 295,157 295,160.906 308,170.067 308,177 309.668,177 314,180.099 314,182  Z"/>

<path  fill="#FF9B88" stroke-width="0" stroke="#FF9B88" d = " M171 145 L170,146 C170,146 170,145 170,145 170,145 171,145 171,145  Z"/>

<path  fill="#FF64FF" stroke-width="0" stroke="#FF64FF" d = " M193 150 L194,152 C190.926,152 190.872,147 189,147 189,147 189,145 189,145 189,145 192,149 192,149 192,149 193,150 193,150  Z"/>

<path  fill="#F0F080" stroke-width="0" stroke="#F0F080" d = " M168 147 L169,147 C169,147 169,146 169,146 169,146 168,147 168,147  Z"/>

<path  fill="#FF9B88" stroke-width="0" stroke="#FF9B88" d = " M170 146 L169,147 C169,147 169,146 169,146 169,146 170,146 170,146  Z"/>

<path  fill="#FEC395" stroke-width="0" stroke="#FEC395" d = " M211 169 L206.5,175 C201.99,177.255 200.466,176 196,176 187.842,176 200,156.26 200,153 200,153 201,152 201,152 201,152 202,151 202,151 202,151 203,150 203,150 203,150 204,149 204,149 204,149 210.5,146 210.5,146 213.26,144.62 214.658,149 216,149 216,152.894 214,155.605 214,159 214,159 213,160 213,160 213,160 213,162 213,162 213,162 212,163 212,163 212,163 212,165 212,165 212,165 211,166 211,166 211,166 211,169 211,169  Z"/>

<path  fill="#FEC395" stroke-width="0" stroke="#FEC395" d = " M261 176 L260,177 C260,177 252.5,177 252.5,177 249.674,175.587 246.612,167 245,167 245,167 245,164 245,164 245,164 244,163 244,163 244,163 244,162 244,162 244,162 243,161 243,161 243,161 243,159 243,159 243,156.189 241,151.675 241,149 241,142.338 249.706,149 252,149 252,150.577 253.762,151 255,151 255,151 255,152 255,152 255,152 256,153 256,153 256,153 259,157.5 259,157.5 259,157.5 259,161.5 259,161.5 259,161.5 264,172.5 264,172.5 264,172.5 261,176 261,176  Z"/>

<path  fill="#FF64FF" stroke-width="0" stroke="#FF64FF" d = " M264 149 L264,151 C266.393,151 267,147.766 267,146 267,146 264,149 264,149  Z"/>

<path  fill="#FF64FF" stroke-width="0" stroke="#FF64FF" d = " M287 146 L288,147 C288,147 287,146 287,146  Z"/>

<path  fill="#F0F080" stroke-width="0" stroke="#F0F080" d = " M167 148 L168,148 C168,148 168,147 168,147 168,147 167,148 167,148  Z"/>

<path  fill="#FF9B88" stroke-width="0" stroke="#FF9B88" d = " M169 147 L168,148 C168,148 168,147 168,147 168,147 169,147 169,147  Z"/>

<path  fill="#AAA9A7" stroke-width="0" stroke="#AAA9A7" d = " M225 149 L232,149 C232,149 233,147 233,147 233,147 224,147 224,147 224,147 225,149 225,149  Z"/>

<path  fill="#FF9B88" stroke-width="0" stroke="#FF9B88" d = " M288 147 L289,148 C289,148 288,147 288,147  Z"/>

<path  fill="#FF9B88" stroke-width="0" stroke="#FF9B88" d = " M168 148 L167,149 C167,149 167,148 167,148 167,148 168,148 168,148  Z"/>

<path  fill="#F0F080" stroke-width="0" stroke="#F0F080" d = " M289 149 L291,150 C291,150 289,148 289,148 289,148 289,149 289,149  Z"/>

<path  fill="#F0F080" stroke-width="0" stroke="#F0F080" d = " M165 150 L166,150 C166,150 166,149 166,149 166,149 165,150 165,150  Z"/>

<path  fill="#FF9B88" stroke-width="0" stroke="#FF9B88" d = " M167 149 L166,150 C166,150 166,149 166,149 166,149 167,149 167,149  Z"/>

<path  fill="#FF79FE" stroke-width="0" stroke="#FF79FE" d = " M192 149 L193,150 C193,150 192,149 192,149  Z"/>

<path  fill="#FFBA84" stroke-width="0" stroke="#FFBA84" d = " M204 149 L203,150 C203,150 204,149 204,149  Z"/>

<path  fill="#FFBA84" stroke-width="0" stroke="#FFBA84" d = " M214 159 C217.702,159 217.218,153.859 223.5,157 225.798,158.149 227.026,165 228,165 228,160.132 225,157.049 225,153 222.085,153 220.153,149 216,149 216,152.894 214,155.605 214,159  Z"/>

<path  fill="#FF64FF" stroke-width="0" stroke="#FF64FF" d = " M225 151 C226.764,151 227.313,153.593 228.5,153 230.119,152.191 229.971,151 232,151 232,151 232,149 232,149 232,149 225,149 225,149 225,149 225,151 225,151  Z"/>

<path  fill="#FFBA84" stroke-width="0" stroke="#FFBA84" d = " M243 159 C240.507,159 238.364,154.068 234.5,156 232.772,156.864 229.835,162 229,162 229,158.183 232,155.876 232,153 234.749,153 237.105,149 241,149 241,151.675 243,156.189 243,159  Z"/>

<path  fill="#FFBA84" stroke-width="0" stroke="#FFBA84" d = " M252 149 C253.238,149 255,149.423 255,151 253.762,151 252,150.577 252,149  Z"/>

<path  fill="#FF79FE" stroke-width="0" stroke="#FF79FE" d = " M263 151 L264,151 C264,151 264,149 264,149 264,149 263,151 263,151  Z"/>

<path  fill="#FF9B88" stroke-width="0" stroke="#FF9B88" d = " M291 150 L291,151 C291,151 289,149 289,149 289,149 291,150 291,150  Z"/>

<path  fill="#CBC7CC" stroke-width="0" stroke="#CBC7CC" d = " M159 159 L157,161 C152.672,161 162.116,150 165,150 165,150 165,151 165,151 165,153.364 162,154.053 162,156 162,156 161,157 161,157 161,157 160,158 160,158 160,158 159,159 159,159  Z"/>

<path  fill="#FF9B88" stroke-width="0" stroke="#FF9B88" d = " M166 150 L165,151 C165,151 165,150 165,150 165,150 166,150 166,150  Z"/>

<path  fill="#FFBA84" stroke-width="0" stroke="#FFBA84" d = " M203 150 L202,151 C202,151 203,150 203,150  Z"/>

<path  fill="#CBC7CC" stroke-width="0" stroke="#CBC7CC" d = " M291 151 C291,153.58 295,154.211 295,157 295,157 301.5,163 301.5,163 303.216,163 299.767,160.035 299,158.5 297.708,155.916 294.658,150 291,150 291,150 291,151 291,151  Z"/>

<path  fill="#FFBA84" stroke-width="0" stroke="#FFBA84" d = " M202 151 L201,152 C201,152 202,151 202,151  Z"/>

<path  fill="#FF9B88" stroke-width="0" stroke="#FF9B88" d = " M228 167 L229,168 C229,168 229,162 229,162 229,158.183 232,155.876 232,153 232,153 232,151 232,151 229.971,151 230.119,152.191 228.5,153 227.313,153.593 226.764,151 225,151 225,151 225,153 225,153 225,157.049 228,160.132 228,165 228,165 228,167 228,167  Z"/>

<path  fill="#FF64FF" stroke-width="0" stroke="#FF64FF" d = " M264 151 L262,152 C262,152 263,151 263,151 263,151 264,151 264,151  Z"/>

<path  fill="#CBC9CB" stroke-width="0" stroke="#CBC9CB" d = " M155 181 L157,181 C165.615,181 176.934,164 185,164 185,164 188,162.5 188,162.5 188.711,161.078 188.232,152 187,152 187,152 182,160 182,160 182,160 181,161 181,161 181,161 180,161 180,161 180,161 179,162 179,162 174.967,162 155,177.715 155,181  Z"/>

<path  fill="#FFBA84" stroke-width="0" stroke="#FFBA84" d = " M201 152 L200,153 C200,153 200,152 200,152 200,152 201,152 201,152  Z"/>

<path  fill="#FFBA84" stroke-width="0" stroke="#FFBA84" d = " M256 152 L256,153 C256,153 255,152 255,152 255,152 256,152 256,152  Z"/>

<path  fill="#CBC9CB" stroke-width="0" stroke="#CBC9CB" d = " M300 181 L301,181 C301,177.703 281.853,162 277,162 277,162 276,161 276,161 276,161 275,161 275,161 275,161 273,159 273,159 273,157.699 270.504,152 269,152 267.768,152 267.289,161.078 268,162.5 268,162.5 271,164 271,164 279.776,164 290.774,181 300,181  Z"/>

<path  fill="#CBC9CB" stroke-width="0" stroke="#CBC9CB" d = " M190 161 C191.712,161 193,159.788 193,163 199.101,163 190,144.904 190,157.5 190,157.5 190,161 190,161  Z"/>

<path  fill="#CBC9CB" stroke-width="0" stroke="#CBC9CB" d = " M267 161 C264.997,161 264,160.707 264,163 264,165.317 257.94,155.78 263.5,153 267.352,151.074 267,158.95 267,161  Z"/>

<path  fill="#CBC9CC" stroke-width="0" stroke="#CBC9CC" d = " M162 156 L161,157 C161,157 162,156 162,156  Z"/>

<path  fill="#FEB985" stroke-width="0" stroke="#FEB985" d = " M228 167 C226.049,167 227.523,169.454 227,170.5 225.837,172.825 223.845,173.827 221.5,175 217.951,176.774 211,172.39 211,169 211,169 211,166 211,166 211,166 212,165 212,165 212,165 212,163 212,163 212,163 213,162 213,162 213,162 213,160 213,160 213,160 214,159 214,159 217.702,159 217.218,153.859 223.5,157 225.798,158.149 227.026,165 228,165 228,165 228,167 228,167  Z"/>

<path  fill="#FEB985" stroke-width="0" stroke="#FEB985" d = " M245 167 C245,176.988 229,177.812 229,168 229,168 229,162 229,162 229.835,162 232.772,156.864 234.5,156 238.364,154.068 240.507,159 243,159 243,159 243,161 243,161 243,161 244,162 244,162 244,162 244,163 244,163 244,163 245,164 245,164 245,164 245,167 245,167  Z"/>

<path  fill="#CBC9CC" stroke-width="0" stroke="#CBC9CC" d = " M161 157 L160,158 C160,158 161,157 161,157  Z"/>

<path  fill="#CBC9CC" stroke-width="0" stroke="#CBC9CC" d = " M160 158 L159,159 C159,159 160,158 160,158  Z"/>

<path  fill="#CBC9CC" stroke-width="0" stroke="#CBC9CC" d = " M159 159 L157,161 C158.747,161 159,160.747 159,159  Z"/>

<path  fill="#FFBA84" stroke-width="0" stroke="#FFBA84" d = " M214 159 L213,160 C213,160 214,159 214,159  Z"/>

<path  fill="#FF9B88" stroke-width="0" stroke="#FF9B88" d = " M273 159 L275,161 C275,161 273,159 273,159  Z"/>

<path  fill="#CBC9CC" stroke-width="0" stroke="#CBC9CC" d = " M134 160 C134,163.746 136.091,160 134,160  Z"/>

<path  fill="#FF9B88" stroke-width="0" stroke="#FF9B88" d = " M182 160 L181,161 C181,161 182,160 182,160  Z"/>

<path  fill="#FF79FE" stroke-width="0" stroke="#FF79FE" d = " M192 163 L193,163 C193,159.788 191.712,161 190,161 190,165.738 189.535,163 192,163  Z"/>

<path  fill="#FF9B88" stroke-width="0" stroke="#FF9B88" d = " M180 161 L179,162 C179,162 180,161 180,161  Z"/>

<path  fill="#FFBA84" stroke-width="0" stroke="#FFBA84" d = " M243 161 L244,162 C244,162 243,161 243,161  Z"/>

<path  fill="#FF79FE" stroke-width="0" stroke="#FF79FE" d = " M267 161 C264.997,161 264,160.707 264,163 266.409,163 267,164.947 267,161  Z"/>

<path  fill="#FF9B88" stroke-width="0" stroke="#FF9B88" d = " M276 161 L277,162 C277,162 276,161 276,161  Z"/>

<path  fill="#CBC9CC" stroke-width="0" stroke="#CBC9CC" d = " M331 191 C331,193.32 333.591,201 336,201 336,201 342.5,205 342.5,205 343.437,205.469 348.853,206.205 347,202.5 344.686,197.872 336,199.759 336,190 336,190 337,189 337,189 337,184.972 348,176.467 348,173 348,173 347,172 347,172 347,172 346,172 346,172 340.03,172 335.3,173.9 329.5,171 327.276,169.888 322.016,161.468 322,161.5 320.44,164.619 326.929,169.641 325,173.5 325,173.5 320,179 320,179 320,179 322,179 322,179 322,179 324,178 324,178 324,178 325,177 325,177 325,177 327,176 327,176 330.947,176 340.772,174.956 337,182.5 337,182.5 333,188 333,188 333,188 332,189 332,189 332,189 331,191 331,191  Z"/>

<path  fill="#CBC9CC" stroke-width="0" stroke="#CBC9CC" d = " M125 191 C125,195.491 121,197.881 121,201 117.311,201 110.806,208.111 109,204.5 107.887,202.274 117.178,197.661 118.5,197 119.622,196.439 121.694,190 120,190 120,183.52 109,179.48 109,173 109,173 109,172 109,172 109,172 111,172 111,172 116.894,172 121.76,173.87 127.5,171 127.5,171 133.5,162 133.5,162 135.297,162 130.536,171.572 131,172.5 131,172.5 137,179 137,179 137,179 134,179 134,179 134,179 132,178 132,178 132,176.423 130.238,176 129,176 126.572,176 115.57,174.64 119,181.5 119,181.5 123,188 123,188 123,188 125,190 125,190 125,190 125,191 125,191  Z"/>

<path  fill="#CBC7CC" stroke-width="0" stroke="#CBC7CC" d = " M154 162 C154,163.93 155.93,162 154,162  Z"/>

<path  fill="#FFBA84" stroke-width="0" stroke="#FFBA84" d = " M213 162 L212,163 C212,163 213,162 213,162  Z"/>

<path  fill="#F0F080" stroke-width="0" stroke="#F0F080" d = " M152 163 L151,164 C151,164 152,163 152,163  Z"/>

<path  fill="#CBC9CB" stroke-width="0" stroke="#CBC9CB" d = " M192 163 L193,163 C193,164.186 192,164.186 192,163  Z"/>

<path  fill="#FFBA84" stroke-width="0" stroke="#FFBA84" d = " M244 163 L245,164 C245,164 244,163 244,163  Z"/>

<path  fill="#FFAD6D" stroke-width="0" stroke="#FFAD6D" d = " M157 187 L159,187 C159,187 168,186 168,186 168,184.049 170.454,185.523 171.5,185 175.454,183.023 184.692,183.115 187,178.5 189.291,173.919 185,168.828 185,164 176.934,164 165.615,181 157,181 157,181 157,183 157,183 157,183 157,187 157,187  Z"/>

<path  fill="#FFAD6D" stroke-width="0" stroke="#FFAD6D" d = " M297 187 L299,187 C299,187 300,183 300,183 300,183 300,181 300,181 290.774,181 279.776,164 271,164 271,171 268.001,174.502 271,180.5 271.86,182.219 288,184.669 288,186 288,186 297,187 297,187  Z"/>

<path  fill="#FFBA84" stroke-width="0" stroke="#FFBA84" d = " M212 165 L211,166 C211,166 212,165 212,165  Z"/>

<path  fill="#FFBA84" stroke-width="0" stroke="#FFBA84" d = " M227 185 C227,178.905 229,178.362 229,185 229,203.417 243.949,188.276 250.5,185 250.5,185 260,177 260,177 260,177 252.5,177 252.5,177 249.674,175.587 246.612,167 245,167 245,176.988 229,177.812 229,168 229,168 228,167 228,167 226.049,167 227.523,169.454 227,170.5 225.837,172.825 223.845,173.827 221.5,175 217.951,176.774 211,172.39 211,169 211,169 206.5,175 206.5,175 201.99,177.255 200.466,176 196,176 196,178.585 201.333,181.917 203.5,183 209.835,186.167 227,205.141 227,185  Z"/>

<path  fill="#FFFC8D" stroke-width="0" stroke="#FFFC8D" d = " M97 185 C101.106,185 104.076,181.788 108.5,184 112.095,185.797 116.064,190 120,190 120,183.52 109,179.48 109,173 98.2243,173 97,174.745 97,185  Z"/>

<path  fill="#FFFC8D" stroke-width="0" stroke="#FFFC8D" d = " M359 185 C355.146,185 351.917,181.791 347.5,184 343.938,185.781 341.382,189 337,189 337,184.972 348,176.467 348,173 353.076,173 355.608,174.108 360,178.5 361.381,179.881 361.304,185 359,185  Z"/>

<path  fill="#CCCCCA" stroke-width="0" stroke="#CCCCCA" d = " M125 191 C127.544,191 125.761,196 129,196 129,196 139,186 139,186 139,186 140,185 140,185 140,185 140,182 140,182 138.598,182 134,180.89 134,179 134,179 132,178 132,178 132,178 129,176 129,176 126.572,176 115.57,174.64 119,181.5 119,181.5 123,188 123,188 123,188 125,190 125,190 125,190 125,191 125,191  Z"/>

<path  fill="#CCCCCA" stroke-width="0" stroke="#CCCCCA" d = " M331 191 C329.053,191 330.281,196 327,196 327,196 317,186 317,186 317,186 317,185 317,185 317,185 316,182 316,182 317.738,182 322,181.314 322,179 322,179 324,178 324,178 324,178 325,177 325,177 325,177 327,176 327,176 330.947,176 340.772,174.956 337,182.5 337,182.5 333,188 333,188 333,188 332,189 332,189 332,189 331,191 331,191  Z"/>

<path  fill="#F0F080" stroke-width="0" stroke="#F0F080" d = " M129 176 C130.238,176 132,176.423 132,178 132,178 129,176 129,176  Z"/>

<path  fill="#FFBA84" stroke-width="0" stroke="#FFBA84" d = " M261 176 L260,177 C260,177 261,176 261,176  Z"/>

<path  fill="#F0F080" stroke-width="0" stroke="#F0F080" d = " M327 176 L325,177 C325,177 327,176 327,176  Z"/>

<path  fill="#FEAD6E" stroke-width="0" stroke="#FEAD6E" d = " M139 192 C140.298,192 150,186.936 150,192 152.586,192 157,191.764 157,187 157,187 157,183 157,183 157,183 155,181 155,181 153.428,181 148,178.948 148,177 148,177 145,178 145,178 145,179.429 143.712,182 142,182 142,182 140,185 140,185 140,185 139,186 139,186 139,187.357 136.888,192 139,192  Z"/>

<path  fill="#FEAD6E" stroke-width="0" stroke="#FEAD6E" d = " M317 192 C314.603,192 306,186.442 306,193 301.663,193 301.083,187 299,187 299,187 300,183 300,183 300,183 302,181 302,181 303.664,181 308,179.177 308,177 309.668,177 314,180.099 314,182 314,182 317,185 317,185 317,185 317,186 317,186 317,186.986 319.515,192 317,192  Z"/>

<path  fill="#F0F080" stroke-width="0" stroke="#F0F080" d = " M325 177 L324,178 C324,178 325,177 325,177  Z"/>

<path  fill="#CBC9CC" stroke-width="0" stroke="#CBC9CC" d = " M140 182 L142,182 C143.712,182 145,179.429 145,178 143.376,178 142.25,180 140,180 140,180 140,182 140,182  Z"/>

<path  fill="#F0F080" stroke-width="0" stroke="#F0F080" d = " M140 180 L140,182 C138.598,182 134,180.89 134,179 134,179 137,179 137,179 137,179 140,180 140,180  Z"/>

<path  fill="#FDA6FF" stroke-width="0" stroke="#FDA6FF" d = " M227 185 L229,185 C229,178.362 227,178.905 227,185  Z"/>

<path  fill="#F0F080" stroke-width="0" stroke="#F0F080" d = " M317 180 L316,182 C317.738,182 322,181.314 322,179 322,179 320,179 320,179 320,179 317,180 317,180  Z"/>

<path  fill="#FF9B88" stroke-width="0" stroke="#FF9B88" d = " M157 181 L157,183 C157,183 155,181 155,181 155,181 157,181 157,181  Z"/>

<path  fill="#FF9B88" stroke-width="0" stroke="#FF9B88" d = " M302 181 L300,183 C300,183 300,181 300,181 300,181 301,181 301,181 301,181 302,181 302,181  Z"/>

<path  fill="#FF9B88" stroke-width="0" stroke="#FF9B88" d = " M142 182 L140,185 C140,185 140,182 140,182 140,182 142,182 142,182  Z"/>

<path  fill="#FF9B88" stroke-width="0" stroke="#FF9B88" d = " M316 182 L317,185 C317,185 314,182 314,182 314,182 316,182 316,182  Z"/>

<path  fill="#FEF991" stroke-width="0" stroke="#FEF991" d = " M107 227 L105,229 C95.7756,229 82.9773,208.545 87,200.5 87.9364,198.627 97,185.348 97,185 101.106,185 104.076,181.788 108.5,184 112.095,185.797 116.064,190 120,190 121.694,190 119.622,196.439 118.5,197 117.178,197.661 107.887,202.274 109,204.5 110.806,208.111 117.311,201 121,201 121,201 121,203 121,203 121,203 120,205 120,205 120,205 119,207 119,207 119,207 118,208 118,208 118,208 118,209 118,209 118,209 117,210 117,210 117,210 117,211 117,211 117,211 116,212 116,212 116,212 116,213 116,213 116,213 115,214 115,214 115,214 111,222 111,222 111,222 110,223 110,223 110,223 108,225 108,225 108,225 107,227 107,227  Z"/>

<path  fill="#FEF991" stroke-width="0" stroke="#FEF991" d = " M349 226 L352,229 C359.369,229 373.173,207.845 370,201.5 370,201.5 362,187.5 362,187.5 362,187.5 359,185 359,185 355.146,185 351.917,181.791 347.5,184 343.938,185.781 341.382,189 337,189 337,189 336,190 336,190 336,199.759 344.686,197.872 347,202.5 348.853,206.205 343.437,205.469 342.5,205 342.5,205 336,201 336,201 336,201 336,203 336,203 336,203 337,206 337,206 337,206 338,207 338,207 338,207 338,208 338,208 338,208 339,209 339,209 339,209 339,211 339,211 339,211 340,212 340,212 340,212 344,220 344,220 344,220 345,221 345,221 345,221 348,225 348,225 348,225 349,226 349,226  Z"/>

<path  fill="#FF9B88" stroke-width="0" stroke="#FF9B88" d = " M140 185 L139,186 C139,186 140,185 140,185  Z"/>

<path  fill="#FF9B88" stroke-width="0" stroke="#FF9B88" d = " M130 212 C137.598,212 138,231.422 138,237 139.725,237 139,230.948 139,229.5 139,220.144 134.791,216.082 131,208.5 126.737,199.973 139,195.197 139,192 136.888,192 139,187.357 139,186 139,186 129,196 129,196 129,196 128,201 128,201 128,201 128,209 128,209 128,210.238 128.423,212 130,212  Z"/>

<path  fill="#FEBA86" stroke-width="0" stroke="#FEBA86" d = " M156 199 L157,199 C157,199 165.5,195 165.5,195 165.5,195 174,197 174,197 174,197 175,197 175,197 175,197 183,197 183,197 183,187.226 176.473,186 168,186 168,186 159,187 159,187 159,189.523 155,193.805 155,199 155,199 156,199 156,199  Z"/>

<path  fill="#FEBA86" stroke-width="0" stroke="#FEBA86" d = " M299 199 L301,199 C301,193.486 297,187.959 297,187 297,187 288,186 288,186 277.767,186 274,187.066 274,197 274,197 281,197 281,197 281,197 282,197 282,197 284.776,197 288.446,193.473 291.5,195 291.5,195 299,199 299,199  Z"/>

<path  fill="#FF9B88" stroke-width="0" stroke="#FF9B88" d = " M326 213 C322.835,213 323.492,217 321,217 321,211.889 328.205,205.91 325,199.5 325,199.5 317,192 317,192 319.515,192 317,186.986 317,186 317,186 327,196 327,196 327,196 329,200 329,200 329,202.772 329,205.944 329,209 329,209 326,213 326,213  Z"/>

<path  fill="#FF9B88" stroke-width="0" stroke="#FF9B88" d = " M155 199 L151,200 C151,197.293 150,194.097 150,192 152.586,192 157,191.764 157,187 157,187 159,187 159,187 159,189.523 155,193.805 155,199  Z"/>

<path  fill="#FF9B88" stroke-width="0" stroke="#FF9B88" d = " M301 199 L305,200 C305,200 306,193 306,193 301.663,193 301.083,187 299,187 299,187 297,187 297,187 297,187.959 301,193.486 301,199  Z"/>

<path  fill="#F0F080" stroke-width="0" stroke="#F0F080" d = " M123 188 L125,190 C125,190 123,188 123,188  Z"/>

<path  fill="#F0F080" stroke-width="0" stroke="#F0F080" d = " M333 188 L332,189 C332,189 333,188 333,188  Z"/>

<path  fill="#F0F080" stroke-width="0" stroke="#F0F080" d = " M332 189 L331,191 C331,191 332,189 332,189  Z"/>

<path  fill="#FFFC8D" stroke-width="0" stroke="#FFFC8D" d = " M337 189 L336,190 C336,190 337,189 337,189  Z"/>

<path  fill="#FFAE6F" stroke-width="0" stroke="#FFAE6F" d = " M143 255 L149,258 C154.62,258 157,253.095 157,248 157,248 157,244 157,244 154.936,244 156.574,240.647 156,239.5 153.504,234.508 153,229.083 153,223 153,223 153,221 153,221 153,221 152,219 152,219 152,219 151,200 151,200 151,197.293 150,194.097 150,192 150,186.936 140.298,192 139,192 139,195.197 126.737,199.973 131,208.5 134.791,216.082 139,220.144 139,229.5 139,230.948 139.725,237 138,237 138,237 138,240 138,240 138,240 137,241 137,241 137,241 137,245 137,245 137,245 139,249 139,249 139,249 140,252 140,252 140,252 143,255 143,255  Z"/>

<path  fill="#FDBA86" stroke-width="0" stroke="#FDBA86" d = " M203 274 L205,274 C205,274 206,273 206,273 206,273 209,273 209,273 209,273 210,272 210,272 210,272 212,272 212,272 212,272 213,271 213,271 213,271 216,270 216,270 216,270 217,269 217,269 217,269 219,268 219,268 219,266.283 222.453,260 224,260 224,260 225,249.5 225,249.5 222.929,245.358 222,242.071 222,237 222,237 219.5,239 219.5,239 216.224,237.362 214.674,224.847 213,221.5 212.178,219.857 211.649,215.926 213.5,215 218.857,212.322 218.212,229 221,229 221,220.68 222.351,200.925 214.5,197 206.788,193.144 185,182.593 185,199 185,199 185,219 185,219 185,231.49 182,243.007 182,255 182,255 182,262 182,262 182,264.235 185,268.017 185,269 185,269 195,274 195,274 195,274 203,274 203,274  Z"/>

<path  fill="#FDBA86" stroke-width="0" stroke="#FDBA86" d = " M253 274 L261,274 C261,272.454 270.018,269 272,269 272,267.004 274,264.015 274,261 274,261 274,257 274,257 274,257 271,219 271,219 271,219 271,200 271,200 271,200 271,192.5 271,192.5 267.527,185.554 245.708,194.896 241.5,197 241.5,197 237,204 237,204 237,206.654 236.112,209.275 235,211.5 235,211.5 235,231 235,231 238.505,231 236.257,211.378 243.5,215 245.308,215.904 243,220.193 243,221.5 243,224.798 238.631,239 235,239 235,243.124 231,247.36 231,251 231,251 231,255 231,255 232.579,255 232,257.855 232,259 232,259 239,269 239,269 239,269 240,269 240,269 240,269 242,271 242,271 242,271 244,271 244,271 244,271 245,272 245,272 245,272 251,273 251,273 251,273 252,274 252,274 252,274 253,274 253,274  Z"/>

<path  fill="#FFAE6F" stroke-width="0" stroke="#FFAE6F" d = " M312 256 L308,258 C299.97,258 300,251.901 300,245 300,245 300,241 300,241 302.144,241 300.381,236.738 301,235.5 303.062,231.376 303,228.033 303,223 303,223 304,221 304,221 304,221 305,200 305,200 305,200 306,193 306,193 306,186.442 314.603,192 317,192 317,192 325,199.5 325,199.5 328.205,205.91 321,211.889 321,217 318.891,217 319,219.535 319,221 317.421,221 318,223.855 318,225 318,225 318,226 318,226 316.387,226 316.387,234 318,234 318,234 318,237 318,237 318,237 319,239 319,239 319,239 319,247 319,247 319,247 318,249 318,249 318,249 317,250 317,250 317,250 317,251 317,251 317,251 316,252 316,252 316,252 315,253 315,253 315,253 313,255 313,255 313,255 312,256 312,256  Z"/>

<path  fill="#F0F080" stroke-width="0" stroke="#F0F080" d = " M122 201 C123.631,201 126.369,201 128,201 128,201 129,196 129,196 125.761,196 127.544,191 125,191 125,195.491 121,197.881 121,201 121,201 122,201 122,201  Z"/>

<path  fill="#F0F080" stroke-width="0" stroke="#F0F080" d = " M335 203 L336,203 C336,203 336,201 336,201 333.591,201 331,193.32 331,191 329.053,191 330.281,196 327,196 327,196 329,200 329,200 329,200 333,200 333,200 333,200 335,202 335,202 335,202 335,203 335,203  Z"/>

<path  fill="#FEB986" stroke-width="0" stroke="#FEB986" d = " M170 224 L170,225 C168.486,225 166.762,229.631 163.5,228 163.5,228 157,222 157,222 157,214.727 157,207.476 157,200 157,200 157,199 157,199 157,199 165.5,195 165.5,195 165.5,195 174,197 174,197 174,197 175,198 175,198 175,202.832 177.426,209.648 175,214.5 173.51,217.48 171,219.37 171,223 171,223 170,224 170,224  Z"/>

<path  fill="#FEB986" stroke-width="0" stroke="#FEB986" d = " M299 223 L292.5,228 C288.779,229.86 287.785,224 286,224 286,220.122 282.663,215.826 281,212.5 281,212.5 281,198 281,198 281,198 282,197 282,197 284.776,197 288.446,193.473 291.5,195 291.5,195 299,199 299,199 299,199 299,201 299,201 299,208.014 299,215.986 299,223  Z"/>

<path  fill="#CBCBCC" stroke-width="0" stroke="#CBCBCC" d = " M222 203 L222,206 C214.844,206 222,189.703 222,200 222,200 222,203 222,203  Z"/>

<path  fill="#CBCBCC" stroke-width="0" stroke="#CBCBCC" d = " M237 204 L238,200.5 C238.484,199.531 237.935,196 236.5,196 233.926,196 234.933,206 235.5,206 L237,204  Z"/>

<path  fill="#FF9B88" stroke-width="0" stroke="#FF9B88" d = " M175 197 L175,198 C175,198 174,197 174,197 174,197 175,197 175,197  Z"/>

<path  fill="#FEB886" stroke-width="0" stroke="#FEB886" d = " M170 224 L170,225 C170,225 172.5,227 172.5,227 172.5,227 185,219 185,219 185,219 185,199 185,199 185,199 183,197 183,197 183,197 175,197 175,197 175,197 175,198 175,198 175,202.832 177.426,209.648 175,214.5 173.51,217.48 171,219.37 171,223 171,223 170,224 170,224  Z"/>

<path  fill="#FFC294" stroke-width="0" stroke="#FFC294" d = " M222 203 C224.455,203 221.784,197.858 223.5,197 226.1,195.7 226.363,198.431 227.5,199 228.84,199.67 229.771,195.635 232.5,197 235.699,198.6 234.167,210.166 233,212.5 L229.5,216 L228.5,201 L228,204.5 C228,206.186 228.712,216 226.5,216 223.67,216 222,207.86 222,206 222,206 222,203 222,203  Z"/>

<path  fill="#FEB886" stroke-width="0" stroke="#FEB886" d = " M271 219 C273.841,219 286,231.38 286,224 286,220.122 282.663,215.826 281,212.5 281,212.5 281,198 281,198 281,198 281,197 281,197 281,197 274,197 274,197 274,197 271,200 271,200 271,200 271,219 271,219  Z"/>

<path  fill="#FF9B88" stroke-width="0" stroke="#FF9B88" d = " M282 197 L281,198 C281,198 281,197 281,197 281,197 282,197 282,197  Z"/>

<path  fill="#FEB984" stroke-width="0" stroke="#FEB984" d = " M157 222 C157,225.431 155.061,223 153,223 153,223 153,221 153,221 153,221 152,219 152,219 152,219 151,200 151,200 151,200 155,199 155,199 155,199 156,199 156,199 156,199 157,200 157,200 157,207.476 157,214.727 157,222  Z"/>

<path  fill="#FF9B88" stroke-width="0" stroke="#FF9B88" d = " M157 199 L157,200 C157,200 156,199 156,199 156,199 157,199 157,199  Z"/>

<path  fill="#FF9B88" stroke-width="0" stroke="#FF9B88" d = " M301 199 L299,201 C299,201 299,199 299,199 299,199 301,199 301,199  Z"/>

<path  fill="#FEB984" stroke-width="0" stroke="#FEB984" d = " M299 223 C300.375,223 301.625,223 303,223 303,223 304,221 304,221 304,221 305,200 305,200 305,200 301,199 301,199 301,199 299,201 299,201 299,208.014 299,215.986 299,223  Z"/>

<path  fill="#FEA4D2" stroke-width="0" stroke="#FEA4D2" d = " M114 255 L115.5,257 L120,256 C120,256 121,251 121,251 121,240.527 120.612,227.275 125,218.5 125.69,217.12 126.55,209 128,209 128,209 128,201 128,201 126.369,201 123.631,201 122,201 122,201 121,203 121,203 121,203 120,205 120,205 120,205 119,207 119,207 119,207 119,208 119,208 119,208 118,209 118,209 118,209 117,210 117,210 117,210 117,211 117,211 117,211 117,212 117,212 117,212 116,213 116,213 116,213 115,214 115,214 115,214 111,222 111,222 111,222 110,223 110,223 110,223 108,225 108,225 108,225 107,227 107,227 107,227 107,230 107,230 107,230 106,231 106,231 106,235.322 109,238.182 109,242 109,242 110,243 110,243 110,243 112,250 112,250 112,250 113,251 113,251 113,251 114,255 114,255  Z"/>

<path  fill="#FEA4D2" stroke-width="0" stroke="#FEA4D2" d = " M337 256 C337,258.662 341.329,256 342,256 342,256 346,244 346,244 346,244 347,243 347,243 347,238.729 350,234.947 350,230 350,230 349,226 349,226 349,226 348,225 348,225 348,225 345,221 345,221 345,221 344,220 344,220 344,220 340,212 340,212 340,212 339,211 339,211 339,211 339,209 339,209 339,209 338,208 338,208 338,208 337,207 337,207 337,207 337,206 337,206 337,206 335,203 335,203 335,203 335,202 335,202 335,202 333,200 333,200 333,200 329,200 329,200 329,202.772 329,205.944 329,209 329,213.269 331.189,217.878 333,221.5 335.369,226.237 335,245.585 335,251 335,251 337,256 337,256  Z"/>

<path  fill="#FF9BCD" stroke-width="0" stroke="#FF9BCD" d = " M333 200 L335,202 C335,202 333,200 333,200  Z"/>

<path  fill="#FF9BCD" stroke-width="0" stroke="#FF9BCD" d = " M122 201 L121,203 C121,203 121,201 121,201 121,201 122,201 122,201  Z"/>

<path  fill="#FF9BCD" stroke-width="0" stroke="#FF9BCD" d = " M121 203 L120,205 C120,205 121,203 121,203  Z"/>

<path  fill="#FF9BCD" stroke-width="0" stroke="#FF9BCD" d = " M336 203 L337,206 C337,206 335,203 335,203 335,203 336,203 336,203  Z"/>

<path  fill="#FF9BCD" stroke-width="0" stroke="#FF9BCD" d = " M120 205 L119,207 C119,207 120,205 120,205  Z"/>

<path  fill="#F0F080" stroke-width="0" stroke="#F0F080" d = " M337 207 L338,207 C338,207 337,206 337,206 337,206 337,207 337,207  Z"/>

<path  fill="#F0F080" stroke-width="0" stroke="#F0F080" d = " M118 208 L119,208 C119,208 119,207 119,207 119,207 118,208 118,208  Z"/>

<path  fill="#FF9BCD" stroke-width="0" stroke="#FF9BCD" d = " M338 207 L338,208 C338,208 337,207 337,207 337,207 338,207 338,207  Z"/>

<path  fill="#FF9BCD" stroke-width="0" stroke="#FF9BCD" d = " M119 208 L118,209 C118,209 118,208 118,208 118,208 119,208 119,208  Z"/>

<path  fill="#F0F080" stroke-width="0" stroke="#F0F080" d = " M338 208 L339,209 C339,209 338,208 338,208  Z"/>

<path  fill="#FF9BCD" stroke-width="0" stroke="#FF9BCD" d = " M118 209 L117,210 C117,210 118,209 118,209  Z"/>

<path  fill="#FF9BCD" stroke-width="0" stroke="#FF9BCD" d = " M145 273 L151,273 C151,269.934 149,268.583 149,266 135.4,266 130,252.892 130,241 126.822,241 128.074,240.647 127,238.5 127,238.5 123,234.5 123,234.5 120.999,230.498 130,221.524 130,217 130,217 130,212 130,212 128.423,212 128,210.238 128,209 126.55,209 125.69,217.12 125,218.5 120.612,227.275 121,240.527 121,251 125.959,251 126.862,251.224 129,255.5 129.842,257.183 128.008,265.254 125.5,264 125.5,264 123,260.5 123,260.5 123,260.5 120,256 120,256 120,256 115.5,257 115.5,257 115.5,257 114,255 114,255 114,258.795 119.029,276.736 124.5,274 127.949,272.275 128.978,268.761 132.5,267 135.228,265.636 139.909,272 143,272 143,272 144,273 144,273 144,273 145,273 145,273  Z"/>

<path  fill="#FF9BCD" stroke-width="0" stroke="#FF9BCD" d = " M311 273 L312,273 C312,273 314,272 314,272 317.007,272 321.133,265.317 324.5,267 324.5,267 331.5,274 331.5,274 337.283,276.891 342,259.771 342,256 341.329,256 337,258.662 337,256 333.935,256 332.798,266.149 328.5,264 327.904,263.702 323.442,251 335,251 335,245.585 335.369,226.237 333,221.5 331.189,217.878 329,213.269 329,209 329,209 326,213 326,213 327.473,213 327,214.952 327,216 327,224.426 337.137,231.363 330,238.5 328.602,239.898 329.275,241 327,241 327,251.753 320.539,266 308,266 308,268.538 305,269.953 305,273 305,273 306,273 306,273 306,273 311,273 311,273  Z"/>

<path  fill="#F0F080" stroke-width="0" stroke="#F0F080" d = " M116 212 L117,212 C117,212 117,211 117,211 117,211 116,212 116,212  Z"/>

<path  fill="#FF9BCD" stroke-width="0" stroke="#FF9BCD" d = " M339 211 L340,212 C340,212 339,211 339,211  Z"/>

<path  fill="#FF9BCD" stroke-width="0" stroke="#FF9BCD" d = " M117 212 L116,213 C116,213 116,212 116,212 116,212 117,212 117,212  Z"/>

<path  fill="#C8CACA" stroke-width="0" stroke="#C8CACA" d = " M149 258 L154,261.5 C154,264.238 149,264.725 149,266 135.4,266 130,252.892 130,241 130,241 131,222.5 131,222.5 131,221.222 131.665,217 130,217 130,217 130,212 130,212 137.598,212 138,231.422 138,237 138,237 138,240 138,240 138,240 137,241 137,241 137,241 137,245 137,245 137,246.465 136.891,249 139,249 139,249 140,252 140,252 140,252 143,255 143,255 143,255 149,258 149,258  Z"/>

<path  fill="#F0F080" stroke-width="0" stroke="#F0F080" d = " M116 213 L115,214 C115,214 116,213 116,213  Z"/>

<path  fill="#C8CACA" stroke-width="0" stroke="#C8CACA" d = " M308 258 L303,260.5 C301.615,263.271 306.013,266 308,266 320.539,266 327,251.753 327,241 325.335,241 326,236.778 326,235.5 326,231.973 323.898,216 327,216 327,214.952 327.473,213 326,213 322.835,213 323.492,217 321,217 321,217 319,221 319,221 319,222.145 319.579,225 318,225 318,225 318,226 318,226 318,226 318,234 318,234 318,234 318,237 318,237 318,237 319,239 319,239 319,239 319,247 319,247 319,247 318,249 318,249 318,249 317,250 317,250 317,250 317,251 317,251 317,251 316,252 316,252 316,252 315,253 315,253 315,253 313,255 313,255 313,255 312,256 312,256 312,256 308,258 308,258  Z"/>

<path  fill="#C8C8CC" stroke-width="0" stroke="#C8C8CC" d = " M221 229 C218.212,229 218.857,212.322 213.5,215 211.649,215.926 212.178,219.857 213,221.5 214.674,224.847 216.224,237.362 219.5,239 L222,237 C222,237 221,229 221,229  Z"/>

<path  fill="#C8C8CC" stroke-width="0" stroke="#C8C8CC" d = " M235 231 C238.505,231 236.257,211.378 243.5,215 245.308,215.904 243,220.193 243,221.5 243,224.798 238.631,239 235,239 235,239 235,231 235,231  Z"/>

<path  fill="#C9CACB" stroke-width="0" stroke="#C9CACB" d = " M327 216 C323.898,216 326,231.973 326,235.5 326,236.778 325.335,241 327,241 329.275,241 328.602,239.898 330,238.5 337.137,231.363 327,224.426 327,216  Z"/>

<path  fill="#C9CACB" stroke-width="0" stroke="#C9CACB" d = " M130 217 C131.665,217 131,221.222 131,222.5 L130,241 C126.822,241 128.074,240.647 127,238.5 127,238.5 123,234.5 123,234.5 120.999,230.498 130,221.524 130,217  Z"/>

<path  fill="#FF9B88" stroke-width="0" stroke="#FF9B88" d = " M321 217 C318.891,217 319,219.535 319,221 319,221 321,217 321,217  Z"/>

<path  fill="#FF9B88" stroke-width="0" stroke="#FF9B88" d = " M152 219 L153,221 C153,221 152,219 152,219  Z"/>

<path  fill-rule="evenodd" fill="#FF9B88" stroke-width="0" stroke="#FF9B88" d = " M164 243 C164,243.839 155.377,255.439 158.5,257 160.173,257.836 173.037,243 164,243  M181 223 L180,224.5 C180,230.306 188.024,223 181,223  M151 273 C154.334,273 154.561,275 157,275 157,269.979 152.936,268.564 158,263.5 158,263.5 160.5,261 160.5,261 162.878,262.189 160.969,271 163,271 163,253.681 182,264.348 182,271 183.481,271 182.785,269 185,269 185,268.017 182,264.235 182,262 174.777,262 160.412,253.044 172.5,247 173.315,246.592 180.377,250.254 181,251.5 181.523,252.546 180.049,255 182,255 182,243.007 185,231.49 185,219 185,219 172.5,227 172.5,227 172.5,227 170,225 170,225 168.486,225 166.762,229.631 163.5,228 163.5,228 157,222 157,222 157,225.431 155.061,223 153,223 153,229.083 153.504,234.508 156,239.5 156.574,240.647 154.936,244 157,244 157,244 156,237.5 156,237.5 156,222.921 167.938,228.625 161,242.5 159.958,244.584 160.021,248 157,248 157,253.095 154.62,258 149,258 149,258 154,261.5 154,261.5 154,264.238 149,264.725 149,266 149,268.583 151,269.934 151,273  Z"/>

<path  fill-rule="evenodd" fill="#FF9B88" stroke-width="0" stroke="#FF9B88" d = " M289 243 C289,246.379 295.054,258.223 297.5,257 300.023,255.738 295.328,243 289,243  M273 223 C273,230.751 279.007,223 273,223  M305 273 C302.75,273 301.624,275 300,275 300,270.313 303.051,265.775 297.5,263 297.5,263 295.5,261 295.5,261 293.884,261.808 296.346,266 294,266 293.348,266 291.905,262.703 290.5,262 286.036,259.768 274,265.153 274,270 274,270 272,269 272,269 272,267.004 274,264.015 274,261 277.982,261 286.347,260.805 289,255.5 289.562,254.375 285.194,247 283.5,247 280.934,247 276.164,250.171 275,252.5 274.426,253.647 276.064,257 274,257 274,257 271,219 271,219 273.841,219 286,231.38 286,224 287.785,224 288.779,229.86 292.5,228 292.5,228 299,223 299,223 300.375,223 301.625,223 303,223 303,228.033 303.062,231.376 301,235.5 300.381,236.738 302.144,241 300,241 300,241 300,235 300,235 300,224.411 288.461,228.423 295,241.5 295.513,242.527 296.641,248 298.5,248 298.5,248 300,245 300,245 300,251.901 299.97,258 308,258 308,258 303,260.5 303,260.5 301.615,263.271 306.013,266 308,266 308,268.538 305,269.953 305,273  Z"/>

<path  fill="#FF9BCD" stroke-width="0" stroke="#FF9BCD" d = " M344 220 L345,221 C345,221 344,220 344,220  Z"/>

<path  fill="#FF9B88" stroke-width="0" stroke="#FF9B88" d = " M304 221 L303,223 C303,223 304,221 304,221  Z"/>

<path  fill="#FF9B88" stroke-width="0" stroke="#FF9B88" d = " M319 221 C317.421,221 318,223.855 318,225 319.579,225 319,222.145 319,221  Z"/>

<path  fill="#FF9BCD" stroke-width="0" stroke="#FF9BCD" d = " M111 222 L110,223 C110,223 111,222 111,222  Z"/>

<path  fill="#FF9B88" stroke-width="0" stroke="#FF9B88" d = " M171 223 L170,224 C170,224 171,223 171,223  Z"/>

<path  fill="#FDBA85" stroke-width="0" stroke="#FDBA85" d = " M181 223 L180,224.5 C180,230.306 188.024,223 181,223  Z"/>

<path  fill="#FDBA85" stroke-width="0" stroke="#FDBA85" d = " M273 223 C273,230.751 279.007,223 273,223  Z"/>

<path  fill="#F0F080" stroke-width="0" stroke="#F0F080" d = " M108 225 L107,227 C107,227 108,225 108,225  Z"/>

<path  fill="#FF9BCD" stroke-width="0" stroke="#FF9BCD" d = " M348 225 L349,226 C349,226 348,225 348,225  Z"/>

<path  fill="#FF9B88" stroke-width="0" stroke="#FF9B88" d = " M318 226 C316.387,226 316.387,234 318,234 318,234 318,226 318,226  Z"/>

<path  fill="#F0F080" stroke-width="0" stroke="#F0F080" d = " M352 229 L350,230 C350,230 349,226 349,226 349,226 352,229 352,229  Z"/>

<path  fill="#F0F080" stroke-width="0" stroke="#F0F080" d = " M107 230 L106,231 C106,231 105,229 105,229 105,229 107,227 107,227 107,227 107,230 107,230  Z"/>

<path  fill="#FCB3D9" stroke-width="0" stroke="#FCB3D9" d = " M157 244 L157,248 C160.021,248 159.958,244.584 161,242.5 167.938,228.625 156,222.921 156,237.5 156,237.5 157,244 157,244  Z"/>

<path  fill="#FCB3D9" stroke-width="0" stroke="#FCB3D9" d = " M300 241 L300,245 C300,245 298.5,248 298.5,248 296.641,248 295.513,242.527 295,241.5 288.461,228.423 300,224.411 300,235 300,235 300,241 300,241  Z"/>

<path  fill="#FF9B88" stroke-width="0" stroke="#FF9B88" d = " M318 237 L319,239 C319,239 318,237 318,237  Z"/>

<path  fill="#FF9B88" stroke-width="0" stroke="#FF9B88" d = " M138 240 L137,241 C137,241 138,240 138,240  Z"/>

<path  fill="#FF9BCD" stroke-width="0" stroke="#FF9BCD" d = " M109 242 L110,243 C110,243 109,242 109,242  Z"/>

<path  fill="#CCCCC7" stroke-width="0" stroke="#CCCCC7" d = " M164 243 C164,243.839 155.377,255.439 158.5,257 160.173,257.836 173.037,243 164,243  Z"/>

<path  fill="#CCCCC7" stroke-width="0" stroke="#CCCCC7" d = " M289 243 C289,246.379 295.054,258.223 297.5,257 300.023,255.738 295.328,243 289,243  Z"/>

<path  fill="#FF9BCD" stroke-width="0" stroke="#FF9BCD" d = " M347 243 L346,244 C346,244 347,243 347,243  Z"/>

<path  fill="#FF9B88" stroke-width="0" stroke="#FF9B88" d = " M137 245 L139,249 C136.891,249 137,246.465 137,245  Z"/>

<path  fill="#FFB2D8" stroke-width="0" stroke="#FFB2D8" d = " M182 255 C180.049,255 181.523,252.546 181,251.5 180.377,250.254 173.315,246.592 172.5,247 160.412,253.044 174.777,262 182,262 182,262 182,255 182,255  Z"/>

<path  fill="#FFB2D8" stroke-width="0" stroke="#FFB2D8" d = " M274 257 C276.064,257 274.426,253.647 275,252.5 276.164,250.171 280.934,247 283.5,247 285.194,247 289.562,254.375 289,255.5 286.347,260.805 277.982,261 274,261 274,261 274,257 274,257  Z"/>

<path  fill="#FF9B88" stroke-width="0" stroke="#FF9B88" d = " M319 247 L318,249 C318,249 319,247 319,247  Z"/>

<path  fill="#FFC5E2" stroke-width="0" stroke="#FFC5E2" d = " M227 272 C227,274.293 227.997,274 230,274 230,274 230,269 230,269 230,267.679 229.316,263 231,263 231,263 231,255 231,255 231,255 231,251 231,251 229.683,251 229.212,247.644 226.5,249 226.5,249 226,263 226,263 226,263 226,269 226,269 226,269 226,271 226,271 226,271 227,272 227,272  Z"/>

<path  fill="#FF9B88" stroke-width="0" stroke="#FF9B88" d = " M318 249 L317,250 C317,250 318,249 318,249  Z"/>

<path  fill="#FF9BCD" stroke-width="0" stroke="#FF9BCD" d = " M112 250 L113,251 C113,251 112,250 112,250  Z"/>

<path  fill="#C9CACB" stroke-width="0" stroke="#C9CACB" d = " M121 251 C125.959,251 126.862,251.224 129,255.5 129.842,257.183 128.008,265.254 125.5,264 L123,260.5 L120,256 C120,256 121,251 121,251  Z"/>

<path  fill="#FF9B88" stroke-width="0" stroke="#FF9B88" d = " M317 251 L316,252 C316,252 317,251 317,251  Z"/>

<path  fill="#C9CACB" stroke-width="0" stroke="#C9CACB" d = " M335 251 C323.442,251 327.904,263.702 328.5,264 332.798,266.149 333.935,256 337,256 337,256 335,251 335,251  Z"/>

<path  fill="#FF9B88" stroke-width="0" stroke="#FF9B88" d = " M140 252 L143,255 C143,255 140,252 140,252  Z"/>

<path  fill="#FF9B88" stroke-width="0" stroke="#FF9B88" d = " M316 252 L315,253 C315,253 316,252 316,252  Z"/>

<path  fill="#FF9B88" stroke-width="0" stroke="#FF9B88" d = " M231 263 L232,263 C232,263 232,259 232,259 232,257.855 232.579,255 231,255 231,255 231,263 231,263  Z"/>

<path  fill="#FF9B88" stroke-width="0" stroke="#FF9B88" d = " M313 255 L312,256 C312,256 313,255 313,255  Z"/>

<path  fill="#FEB0D8" stroke-width="0" stroke="#FEB0D8" d = " M232 263 C232,265.094 236.892,269 239,269 239,269 232,259 232,259 232,259 232,263 232,263  Z"/>

<path  fill="#FEB0D8" stroke-width="0" stroke="#FEB0D8" d = " M225 263 C223.535,263 221.684,268 219,268 219,266.283 222.453,260 224,260 224,260 225,263 225,263  Z"/>

<path  fill="#C8C8CB" stroke-width="0" stroke="#C8C8CB" d = " M162 279 L163,279 C163,279 165,278 165,278 165,278 165,277 165,277 165,277 164,276 164,276 164,276 164,275 164,275 164,275 163,274 163,274 163,274 163,271 163,271 160.969,271 162.878,262.189 160.5,261 160.5,261 158,263.5 158,263.5 152.936,268.564 157,269.979 157,275 157,275 157,276 157,276 157,276 158,277 158,277 158,277 159,277 159,277 159,277 162,279 162,279  Z"/>

<path  fill="#C8C8CB" stroke-width="0" stroke="#C8C8CB" d = " M294 279 L295,279 C295,279 297,278 297,278 297,278 298,277 298,277 298,277 299,276 299,276 299,276 300,275 300,275 300,270.313 303.051,265.775 297.5,263 297.5,263 295.5,261 295.5,261 293.884,261.808 296.346,266 294,266 294,266 294,271 294,271 294,271 293,272 293,272 293,272 293,275 293,275 293,275 292,276 292,276 292,276 292,277 292,277 292,277 291,278 291,278 291,278 293,279 293,279 293,279 294,279 294,279  Z"/>

<path  fill="#FEAE6E" stroke-width="0" stroke="#FEAE6E" d = " M165 278 L171,280 C174.497,280 181,280.745 181,276 181,276 182,271 182,271 182,264.348 163,253.681 163,271 163,271 163,274 163,274 163,274 164,275 164,275 164,275 164,276 164,276 164,276 165,277 165,277 165,277 165,278 165,278  Z"/>

<path  fill="#FEAE6E" stroke-width="0" stroke="#FEAE6E" d = " M291 278 L286,280 C286,280 278.5,280 278.5,280 278.5,280 275,277 275,277 275,277 274,270 274,270 274,265.153 286.036,259.768 290.5,262 291.905,262.703 293.348,266 294,266 294,266 294,271 294,271 294,271 293,272 293,272 293,272 293,275 293,275 293,275 292,276 292,276 292,276 292,277 292,277 292,277 291,278 291,278  Z"/>

<path  fill="#FF9BCD" stroke-width="0" stroke="#FF9BCD" d = " M223 287 L229.5,286 L237,289 C237,289 231,282.5 231,282.5 229.472,279.444 233.684,279 235.5,279 241.695,279 245.438,283 251,283 251,283 263,285 263,285 263,285 261,280 261,280 261,280 261,279 261,279 259.352,279 260.244,275 257,275 257,276.791 260.27,277.959 259,280.5 256.928,284.644 239.398,275 250,275 250,275 253,275 253,275 253,275 253,274 253,274 253,274 252,274 252,274 252,274 251,273 251,273 251,273 245,272 245,272 245,272 244,271 244,271 244,271 242,271 242,271 242,271 240,269 240,269 240,269 239,269 239,269 236.892,269 232,265.094 232,263 232,263 231,263 231,263 229.316,263 230,267.679 230,269 230,269 234.5,268 234.5,268 234.5,268 238,272 238,272 239.186,272 239.186,273 238,273 238,280.612 230,276.345 230,275 230,275 226,275 226,275 226,277.053 218,279.732 218,273 215.971,273 217.942,272 219,272 219,267.397 224.296,269 226,269 226,269 226,263 226,263 226,263 225,263 225,263 223.535,263 221.684,268 219,268 219,268 217,269 217,269 217,269 216,270 216,270 216,270 213,271 213,271 213,271 212,272 212,272 212,272 210,272 210,272 210,272 209,273 209,273 209,273 206,273 206,273 206,273 205,274 205,274 205,274 203,274 203,274 203,274 203,275 203,275 203,275 211,275.5 211,275.5 211,279.974 197,284.943 197,277 197,277 196,277 196,277 196,277 195,280 195,280 195,280 194,285 194,285 194,285 205,283 205,283 207.254,283 226,274.566 226,281.5 226,283.415 223,284.698 223,287  Z"/>

<path  fill="#FEB0D8" stroke-width="0" stroke="#FEB0D8" d = " M219 268 L217,269 C217,269 219,268 219,268  Z"/>

<path  fill="#CACCC8" stroke-width="0" stroke="#CACCC8" d = " M218 273 C218,279.732 226,277.053 226,275 226,275 226,272 226,272 226,272 226,271 226,271 226,271 226,269 226,269 224.296,269 219,267.397 219,272 219,272 218,273 218,273  Z"/>

<path  fill="#CACCC8" stroke-width="0" stroke="#CACCC8" d = " M230 274 L230,275 C230,276.345 238,280.612 238,273 238,273 238,272 238,272 238,272 234.5,268 234.5,268 234.5,268 230,269 230,269 230,269 230,274 230,274  Z"/>

<path  fill="#FFAD6E" stroke-width="0" stroke="#FFAD6E" d = " M195 280 L193,281 C187.946,281 184.866,276 181,276 181,276 182,271 182,271 183.481,271 182.785,269 185,269 185,269 195,274 195,274 195,274 196,277 196,277 196,277 195,280 195,280  Z"/>

<path  fill="#FF9B88" stroke-width="0" stroke="#FF9B88" d = " M217 269 L216,270 C216,270 217,269 217,269  Z"/>

<path  fill="#FF9B88" stroke-width="0" stroke="#FF9B88" d = " M240 269 L242,271 C242,271 240,269 240,269  Z"/>

<path  fill="#FFAD6E" stroke-width="0" stroke="#FFAD6E" d = " M261 280 L264,281 C268.518,281 271.028,277 275,277 275,277 274,270 274,270 274,270 272,269 272,269 270.018,269 261,272.454 261,274 261,274 261,279 261,279 261,279 261,280 261,280  Z"/>

<path  fill="#FF9B88" stroke-width="0" stroke="#FF9B88" d = " M213 271 L212,272 C212,272 213,271 213,271  Z"/>

<path  fill="#FF9BCD" stroke-width="0" stroke="#FF9BCD" d = " M226 272 L227,272 C227,272 226,271 226,271 226,271 226,272 226,272  Z"/>

<path  fill="#FF9B88" stroke-width="0" stroke="#FF9B88" d = " M244 271 L245,272 C245,272 244,271 244,271  Z"/>

<path  fill="#FF9B88" stroke-width="0" stroke="#FF9B88" d = " M294 271 L293,272 C293,272 294,271 294,271  Z"/>

<path  fill="#FF9B88" stroke-width="0" stroke="#FF9B88" d = " M143 272 L144,273 C144,273 143,272 143,272  Z"/>

<path  fill="#FF9B88" stroke-width="0" stroke="#FF9B88" d = " M210 272 L209,273 C209,273 210,272 210,272  Z"/>

<path  fill="#CCC7CB" stroke-width="0" stroke="#CCC7CB" d = " M219 272 C217.942,272 215.971,273 218,273 218,273 219,272 219,272  Z"/>

<path  fill="#CCC7CB" stroke-width="0" stroke="#CCC7CB" d = " M226 275 L230,275 C230,275 230,274 230,274 227.997,274 227,274.293 227,272 227,272 226,272 226,272 226,272 226,275 226,275  Z"/>

<path  fill="#CCC7CB" stroke-width="0" stroke="#CCC7CB" d = " M238 272 C239.186,272 239.186,273 238,273 238,273 238,272 238,272  Z"/>

<path  fill="#FF9B88" stroke-width="0" stroke="#FF9B88" d = " M314 272 L312,273 C312,273 314,272 314,272  Z"/>

<path  fill="#FF9B88" stroke-width="0" stroke="#FF9B88" d = " M191 287 L191,288 C182.445,288 169.773,288.636 162.5,285 162.5,285 153.5,279 153.5,279 153.5,279 145,273 145,273 145,273 151,273 151,273 151,277.431 157.124,280.812 161.5,283 162.824,283.662 169,285.092 169,284 170.495,284 179,286.412 179,284 179,284 185,285 185,285 185,286.353 189.643,287 191,287  Z"/>

<path  fill="#CBC7CC" stroke-width="0" stroke="#CBC7CC" d = " M162 280 L169,284 C169,285.092 162.824,283.662 161.5,283 157.124,280.812 151,277.431 151,273 154.334,273 154.561,275 157,275 157,275 157,276 157,276 157,276 158,277 158,277 158,277 159,277 159,277 159,278.539 160.342,280 162,280  Z"/>

<path  fill="#FF9B88" stroke-width="0" stroke="#FF9B88" d = " M206 273 L205,274 C205,274 206,273 206,273  Z"/>

<path  fill="#FF9B88" stroke-width="0" stroke="#FF9B88" d = " M251 273 L252,274 C252,274 251,273 251,273  Z"/>

<path  fill="#CBC7CC" stroke-width="0" stroke="#CBC7CC" d = " M290 282 L288,283 C288,287.071 298.233,280 301,280 301,278.288 303.571,277 305,277 305,277 306,273 306,273 306,273 305,273 305,273 302.75,273 301.624,275 300,275 300,275 299,276 299,276 299,276 298,277 298,277 298,277 297,278 297,278 297,278 295,279 295,279 295,279 294,280 294,280 294,280 293,281 293,281 293,281 292,281 292,281 292,281 290,282 290,282  Z"/>

<path  fill="#FF9B88" stroke-width="0" stroke="#FF9B88" d = " M311 273 C311,274.617 306.417,277 305,277 305,277 306,273 306,273 306,273 311,273 311,273  Z"/>

<path  fill="#FF9B88" stroke-width="0" stroke="#FF9B88" d = " M163 274 L164,275 C164,275 163,274 163,274  Z"/>

<path  fill="#FF9B88" stroke-width="0" stroke="#FF9B88" d = " M196 277 L197,277 C197,275.253 197.253,275 199,275 199,275 203,275 203,275 203,275 203,274 203,274 203,274 195,274 195,274 195,274 196,277 196,277  Z"/>

<path  fill="#FF9B88" stroke-width="0" stroke="#FF9B88" d = " M257 275 C260.244,275 259.352,279 261,279 261,279 261,274 261,274 261,274 253,274 253,274 253,274 253,275 253,275 253,275 257,275 257,275  Z"/>

<path  fill="#FF9BCD" stroke-width="0" stroke="#FF9BCD" d = " M199 275 C197.253,275 197,275.253 197,277 197,277 199,275 199,275  Z"/>

<path  fill="#FEA3D2" stroke-width="0" stroke="#FEA3D2" d = " M203 275 L211,275.5 C211,279.974 197,284.943 197,277 197,277 199,275 199,275 199,275 203,275 203,275  Z"/>

<path  fill="#FEA3D2" stroke-width="0" stroke="#FEA3D2" d = " M253 275 L257,275 C257,276.791 260.27,277.959 259,280.5 256.928,284.644 239.398,275 250,275 250,275 253,275 253,275  Z"/>

<path  fill="#FF9B88" stroke-width="0" stroke="#FF9B88" d = " M293 275 L292,276 C292,276 293,275 293,275  Z"/>

<path  fill="#FF9B88" stroke-width="0" stroke="#FF9B88" d = " M300 275 L299,276 C299,276 300,275 300,275  Z"/>

<path  fill="#FF9B88" stroke-width="0" stroke="#FF9B88" d = " M157 276 L158,277 C158,277 157,276 157,276  Z"/>

<path  fill="#FF9B88" stroke-width="0" stroke="#FF9B88" d = " M164 276 L165,277 C165,277 164,276 164,276  Z"/>

<path  fill="#FEAD6F" stroke-width="0" stroke="#FEAD6F" d = " M185 285 L192,285 C192,285 193,281 193,281 187.946,281 184.866,276 181,276 181,280.745 174.497,280 171,280 171,282.215 173,281.519 173,283 173,283 174,283 174,283 175.048,283 177,282.527 177,284 177,284 179,284 179,284 179,284 185,285 185,285  Z"/>

<path  fill="#FF9B88" stroke-width="0" stroke="#FF9B88" d = " M299 276 L298,277 C298,277 299,276 299,276  Z"/>

<path  fill="#FF9B88" stroke-width="0" stroke="#FF9B88" d = " M162 279 L162,280 C160.342,280 159,278.539 159,277 159,277 162,279 162,279  Z"/>

<path  fill="#FEAD6F" stroke-width="0" stroke="#FEAD6F" d = " M265 285 L272,285 C272,285 277,284 277,284 277,284 280,284 280,284 280,282.527 281.952,283 283,283 283,283 284,283 284,283 284,283 286,280 286,280 286,280 278.5,280 278.5,280 278.5,280 275,277 275,277 271.028,277 268.518,281 264,281 264,283.878 265,283.954 265,285  Z"/>

<path  fill="#FF9B88" stroke-width="0" stroke="#FF9B88" d = " M292 277 L291,278 C291,278 292,277 292,277  Z"/>

<path  fill="#FF9B88" stroke-width="0" stroke="#FF9B88" d = " M298 277 L297,278 C297,278 298,277 298,277  Z"/>

<path  fill="#FF9B88" stroke-width="0" stroke="#FF9B88" d = " M305 277 C303.571,277 301,278.288 301,280 302.429,280 305,278.712 305,277  Z"/>

<path  fill="#FF9B88" stroke-width="0" stroke="#FF9B88" d = " M171 280 C171,282.215 173,281.519 173,283 170.839,283 163,281.271 163,279 163,279 165,278 165,278 165,278 171,280 171,280  Z"/>

<path  fill="#FF9B88" stroke-width="0" stroke="#FF9B88" d = " M265 287 L265,288 C273.414,288 285.354,288.573 292.5,285 294.149,284.175 301,282.549 301,280 298.233,280 288,287.071 288,283 285.592,283 288.987,282 290,282 290,282 292,281 292,281 292,279.814 293,279.814 293,281 293,281 294,280 294,280 294,280 293,279 293,279 293,279 291,278 291,278 291,278 286,280 286,280 286,280 284,283 284,283 292.321,283 277,287.123 277,284 277,284 272,285 272,285 272,286.175 266.296,287 265,287  Z"/>

<path  fill="#FF9B88" stroke-width="0" stroke="#FF9B88" d = " M297 278 L295,279 C295,279 297,278 297,278  Z"/>

<path  fill="#CCC7CB" stroke-width="0" stroke="#CCC7CB" d = " M177 284 L179,284 C179,286.412 170.495,284 169,284 169,284 162,280 162,280 162,280 162,279 162,279 162,279 163,279 163,279 163,281.271 170.839,283 173,283 173,283 174,283 174,283 174,284.473 175.952,284 177,284  Z"/>

<path  fill="#C7C9C9" stroke-width="0" stroke="#C7C9C9" d = " M216 289 L219,289 C219,289 223,287 223,287 223,284.698 226,283.415 226,281.5 226,274.566 207.254,283 205,283 205,284.375 205,285.625 205,287 206.041,287 210,287.986 210,289 210,289 213,289 213,289 213,289 216,289 216,289  Z"/>

<path  fill="#C7C9C9" stroke-width="0" stroke="#C7C9C9" d = " M243 289 L246,289 C246,287.647 250.643,287 252,287 252,285.326 251,284.674 251,283 245.438,283 241.695,279 235.5,279 233.684,279 229.472,279.444 231,282.5 231,282.5 237,289 237,289 237,289 240,289 240,289 240,289 243,289 243,289  Z"/>

<path  fill="#CCC7CB" stroke-width="0" stroke="#CCC7CB" d = " M294 279 L294,280 C294,280 293,279 293,279 293,279 294,279 294,279  Z"/>

<path  fill="#FF9B88" stroke-width="0" stroke="#FF9B88" d = " M295 279 L294,280 C294,280 294,279 294,279 294,279 295,279 295,279  Z"/>

<path  fill="#FF9B88" stroke-width="0" stroke="#FF9B88" d = " M192 285 L194,285 C194,285 195,280 195,280 195,280 193,281 193,281 193,281 192,285 192,285  Z"/>

<path  fill="#FF9B88" stroke-width="0" stroke="#FF9B88" d = " M263 285 L265,285 C265,283.954 264,283.878 264,281 264,281 261,280 261,280 261,280 263,285 263,285  Z"/>

<path  fill="#CCC7CB" stroke-width="0" stroke="#CCC7CB" d = " M292 281 L293,281 C293,279.814 292,279.814 292,281  Z"/>

<path  fill="#CCC7CB" stroke-width="0" stroke="#CCC7CB" d = " M292 281 L290,282 C290,282 292,281 292,281  Z"/>

<path  fill="#CCC7CB" stroke-width="0" stroke="#CCC7CB" d = " M290 282 C288.987,282 285.592,283 288,283 288,283 290,282 290,282  Z"/>

<path  fill="#FF9B88" stroke-width="0" stroke="#FF9B88" d = " M174 283 C175.048,283 177,282.527 177,284 175.952,284 174,284.473 174,283  Z"/>

<path  fill="#CCC7CB" stroke-width="0" stroke="#CCC7CB" d = " M191 287 L205,287 C205,285.625 205,284.375 205,283 205,283 194,285 194,285 194,285 192,285 192,285 192,285 185,285 185,285 185,286.353 189.643,287 191,287  Z"/>

<path  fill="#CCC7CB" stroke-width="0" stroke="#CCC7CB" d = " M252 287 L265,287 C266.296,287 272,286.175 272,285 272,285 265,285 265,285 265,285 263,285 263,285 263,285 251,283 251,283 251,284.674 252,285.326 252,287  Z"/>

<path  fill="#FF9B88" stroke-width="0" stroke="#FF9B88" d = " M283 283 C281.952,283 280,282.527 280,284 281.048,284 283,284.473 283,283  Z"/>

<path  fill="#CCC7CB" stroke-width="0" stroke="#CCC7CB" d = " M277 284 L280,284 C281.048,284 283,284.473 283,283 283,283 284,283 284,283 292.321,283 277,287.123 277,284  Z"/>

<path  fill="#FF9BCD" stroke-width="0" stroke="#FF9BCD" d = " M191 288 L210,289 C210,287.986 206.041,287 205,287 205,287 191,287 191,287 191,287 191,288 191,288  Z"/>

<path  fill="#FF9BCD" stroke-width="0" stroke="#FF9BCD" d = " M223 287 L219,289 C220.465,289 223,289.109 223,287  Z"/>

<path  fill="#FF9BCD" stroke-width="0" stroke="#FF9BCD" d = " M265 288 L246,289 C246,287.647 250.643,287 252,287 252,287 265,287 265,287 265,287 265,288 265,288  Z"/>

<path  fill="#FF9BCD" stroke-width="0" stroke="#FF9BCD" d = " M213 289 L216,289 C216,290.486 213,290.486 213,289  Z"/>

<path  fill="#FF9BCD" stroke-width="0" stroke="#FF9BCD" d = " M240 289 L243,289 C243,290.486 240,290.486 240,289  Z"/>

</g>
</svg>
