<svg xmlns="http://www.w3.org/2000/svg" xmlns:xlink="http://www.w3.org/1999/xlink"  viewBox="0 0 456 320">
<g>
<rect width="456" height="320" fill="#000000"  stroke-width="0" /> 
<path  fill="#FEFA90" stroke-width="0" stroke="#FEFA90" d = " M172 90 C172,82.793 182.265,80.6177 187.5,78 188.152,77.6739 195,76.4672 195,77.5 L187.5,81 C182.982,83.2589 174.497,93.4944 178,100.5 181.682,107.864 179.737,118.118 189.5,123 192.778,124.639 197.373,123.437 200.5,125 216.346,132.923 233.257,135.122 249.5,127 253.187,125.157 258.881,126.809 262.5,125 275.828,118.336 282.777,101.053 276,87.5 273.36,82.2198 263.662,78.5808 258.5,76 247.77,70.635 226.116,72 213,72 L200,76 C199.476,76 195,77.9619 195,76.5 195,71.8668 217.524,71.9878 219.5,71 230.314,65.593 256.527,73.5137 265.5,78 272.198,81.3489 284,79.9633 284,91 284.672,91 286,86.6706 286,86 286,86 287,85 287,85 287,85 287,84 287,84 287,78.5 289,74.7431 289,69 289,65.7442 269.503,58.5013 266.5,57 249.952,48.726 206.087,48.7066 189.5,57 186.612,58.4442 167,66.2873 167,69 167,69 170,85 170,85 170,85 170,86 170,86 170,86 171,87 171,87 171,88.0479 170.527,90 172,90  Z"/>

<path  fill="#FDFB8F" stroke-width="0" stroke="#FDFB8F" d = " M162 72 C162,73.8803 168.371,85 170,85 170,85 167,69 167,69 165.592,69 162,70.1967 162,72  Z"/>

<path  fill="#FDFB8F" stroke-width="0" stroke="#FDFB8F" d = " M295 72 C295,73.307 288.105,84 287,84 287,78.5 289,74.7431 289,69 290.643,69 295,70.3381 295,72  Z"/>

<path  fill-rule="evenodd" fill="#CBC9CC" stroke-width="0" stroke="#CBC9CC" d = " M295 174 L298,179 C302.411,179 306.585,187 310.5,187 310.5,187 299,175.5 299,175.5 299,175.5 284,153.5 284,153.5 284,153.5 274,143 274,143 271.205,143 257.41,135.09 263,129.5 263,129.5 266,127 266,127 266,127 275,124 275,124 285.943,124 296.461,127.981 306.5,133 308.142,133.821 310.233,136.866 312.5,138 317.659,140.58 321.949,150.724 326.5,153 331.062,155.281 342.149,178.201 346,170.5 347.327,167.845 339.724,162.224 338,160.5 333.889,156.389 313,134.832 313,133 311.575,133 309.831,129.835 311.5,129 311.5,129 332.5,129 332.5,129 336.029,130.765 341.091,129.296 344.5,131 344.5,131 352,134.5 352,134.5 352,134.5 345,127.5 345,127.5 344.593,126.687 343.987,122 342.5,122 342.5,122 331.5,127 331.5,127 331.5,127 309.5,127 309.5,127 307.035,125.768 304.998,124.249 302.5,123 300.315,121.908 291,120.577 291,117 282.795,117 284,96.2399 284,91 284,79.9633 272.198,81.3489 265.5,78 256.527,73.5137 230.314,65.593 219.5,71 217.524,71.9878 195,71.8668 195,76.5 195,77.9619 199.476,76 200,76 200,76 213,72 213,72 226.116,72 247.77,70.635 258.5,76 263.662,78.5808 273.36,82.2198 276,87.5 282.777,101.053 275.828,118.336 262.5,125 258.881,126.809 253.187,125.157 249.5,127 233.257,135.122 216.346,132.923 200.5,125 197.373,123.437 192.778,124.639 189.5,123 179.737,118.118 181.682,107.864 178,100.5 174.497,93.4944 182.982,83.2589 187.5,81 187.5,81 195,77.5 195,77.5 195,76.4672 188.152,77.6739 187.5,78 182.265,80.6177 172,82.793 172,90 172,94.7062 174.283,117 166,117 166,120.164 155.622,121.939 153.5,123 153.5,123 147.5,127 147.5,127 147.5,127 125.5,127 125.5,127 125.5,127 113.5,122 113.5,122 113.5,122 113,124.5 113,124.5 111.646,127.207 108.005,129.49 107,131.5 106.173,133.153 113.945,131 116,131 120.167,131 145,124.857 145,132 145,132 144,133 144,133 144,133 135,142.5 135,142.5 135,142.5 110,169.5 110,169.5 110,169.5 114.5,173 114.5,173 114.5,173 117,167.5 117,167.5 117,167.5 132,151.5 132,151.5 147.469,136.031 158.758,124 181,124 182.942,124 191,125.937 191,128 204.699,128 186.456,143 183,143 183,143 174,151.5 174,151.5 174,151.5 158,174.5 158,174.5 158,174.5 149.5,184 149.5,184 150.661,184.581 156.759,179 159,179 159,177.592 160.197,174 162,174 162,168.102 176.944,163.278 181.5,161 192.121,155.689 212.499,160 218.5,157 218.5,157 228.5,154 228.5,154 228.5,154 239.5,157 239.5,157 247.228,157 263.38,155.94 269.5,159 273.315,160.907 295,168.206 295,174  M183 151 C183,154.115 194.355,155.573 197.5,154 205.59,149.955 233.481,153 244,153 248.837,153 255.416,151.958 259.5,154 262.561,155.53 273,154.328 273,151 273,142.86 261.391,142.445 256.5,140 248.654,136.077 208.306,136.097 200.5,140 195.9,142.3 183,142.394 183,151  Z"/>

<path  fill="#FCFC90" stroke-width="0" stroke="#FCFC90" d = " M172 90 C172,94.7062 174.283,117 166,117 166,117 152.5,105 152.5,105 140.779,99.1396 133.261,89 119,89 119,85.5631 121.973,84.5535 123,82.5 129.774,68.953 149.38,72 162,72 162,73.8803 168.371,85 170,85 170,85 170,86 170,86 170,86 171,87 171,87 171,88.0479 170.527,90 172,90  Z"/>

<path  fill="#FCFC90" stroke-width="0" stroke="#FCFC90" d = " M284 91 C284,96.2399 282.795,117 291,117 291,114.585 300.516,107.992 302.5,107 305.973,105.264 308.791,100.354 311.5,99 319.821,94.8393 326.924,89 337,89 337,85.3486 334.471,84.4421 333,81.5 326.99,69.4791 306.428,72 295,72 295,73.307 288.105,84 287,84 287,84 287,85 287,85 287,85 286,86 286,86 286,86.6706 284.672,91 284,91  Z"/>

<path  fill="#FDFB8F" stroke-width="0" stroke="#FDFB8F" d = " M287 85 L286,86 C286,86 287,85 287,85  Z"/>

<path  fill="#FDFB8F" stroke-width="0" stroke="#FDFB8F" d = " M170 86 L171,87 C171,87 170,86 170,86  Z"/>

<path  fill-rule="evenodd" fill="#FCFA91" stroke-width="0" stroke="#FCFA91" d = " M104 134 C104,135.93 105.93,134 104,134  M105 133 C105,135.091 108.746,133 105,133  M144 133 C133.753,133 97.6927,160 86,160 86,160 81.5,161 81.5,161 73.4439,156.972 73.374,143.752 77,136.5 79.6873,131.125 80.3739,124.752 83,119.5 89.2487,107.003 103.585,89 119,89 133.261,89 140.779,99.1396 152.5,105 152.5,105 166,117 166,117 166,120.164 155.622,121.939 153.5,123 153.5,123 147.5,127 147.5,127 147.5,127 125.5,127 125.5,127 125.5,127 113.5,122 113.5,122 113.5,122 113,124.5 113,124.5 111.646,127.207 108.005,129.49 107,131.5 106.173,133.153 113.945,131 116,131 120.167,131 145,124.857 145,132 145,132 144,133 144,133  Z"/>

<path  fill="#FCFA91" stroke-width="0" stroke="#FCFA91" d = " M313 133 C318.354,133 323.885,138.692 328.5,141 335.008,144.254 364.809,160 370,160 370,160 375.5,161 375.5,161 384.517,156.492 382.39,142.279 379,135.5 376.291,130.081 375.634,123.769 373,118.5 366.631,105.763 352.801,89 337,89 326.924,89 319.821,94.8393 311.5,99 308.791,100.354 305.973,105.264 302.5,107 300.516,107.992 291,114.585 291,117 291,120.577 300.315,121.908 302.5,123 304.998,124.249 307.035,125.768 309.5,127 309.5,127 331.5,127 331.5,127 331.5,127 342.5,122 342.5,122 343.987,122 344.593,126.687 345,127.5 345,127.5 352,134.5 352,134.5 352,134.5 344.5,131 344.5,131 341.091,129.296 336.029,130.765 332.5,129 332.5,129 311.5,129 311.5,129 309.831,129.835 311.575,133 313,133  Z"/>

<path  fill="#FFFB8E" stroke-width="0" stroke="#FFFB8E" d = " M128 194 L120.5,201 L115,204 C100.808,204 88.2467,179.993 83,169.5 81.007,165.514 86,162.959 86,160 97.6927,160 133.753,133 144,133 144,133 135,142.5 135,142.5 135,142.5 110,169.5 110,169.5 110,169.5 114.5,173 114.5,173 114.5,173 117,167.5 117,167.5 117,167.5 132,151.5 132,151.5 147.469,136.031 158.758,124 181,124 181,124 182,131 182,131 166.018,131 143.409,163.681 137,176.5 134.218,182.064 128,187.441 128,194  Z"/>

<path  fill="#FFFB8E" stroke-width="0" stroke="#FFFB8E" d = " M329 194 C329,197.829 341,201.792 341,204 354.298,204 367.775,181.95 373,171.5 375.334,166.832 370,162.149 370,160 364.809,160 335.008,144.254 328.5,141 323.885,138.692 318.354,133 313,133 313,134.832 333.889,156.389 338,160.5 339.724,162.224 347.327,167.845 346,170.5 342.149,178.201 331.062,155.281 326.5,153 321.949,150.724 317.659,140.58 312.5,138 310.233,136.866 308.142,133.821 306.5,133 296.461,127.981 285.943,124 275,124 275,124 275,131 275,131 290.357,131 313.913,165.325 320,177.5 321.926,181.352 329,189.625 329,194  Z"/>

<path  fill="#FDFB90" stroke-width="0" stroke="#FDFB90" d = " M191 128 C187.58,128 184.86,131 182,131 182,131 181,124 181,124 182.942,124 191,125.937 191,128  Z"/>

<path  fill="#FDFB90" stroke-width="0" stroke="#FDFB90" d = " M266 127 C266,128.289 273.597,131 275,131 275,131 275,124 275,124 275,124 266,127 266,127  Z"/>

<path  fill="#FBFC91" stroke-width="0" stroke="#FBFC91" d = " M275 131 C275,134.531 274,138.893 274,143 271.205,143 257.41,135.09 263,129.5 263,129.5 266,127 266,127 266,128.289 273.597,131 275,131  Z"/>

<path  fill="#FBFC91" stroke-width="0" stroke="#FBFC91" d = " M182 131 L183,143 C186.456,143 204.699,128 191,128 187.58,128 184.86,131 182,131  Z"/>

<path  fill-rule="evenodd" fill="#FFF990" stroke-width="0" stroke="#FFF990" d = " M145 186 C145,187.93 146.93,186 145,186  M146 185 C146,186.93 147.93,185 146,185  M147 184 C147,186.091 150.746,184 147,184  M142 200 L141,201 C141,201 132.5,201 132.5,201 130.386,199.943 129.154,194 128,194 128,187.441 134.218,182.064 137,176.5 143.409,163.681 166.018,131 182,131 182,131 183,143 183,143 183,143 174,151.5 174,151.5 174,151.5 158,174.5 158,174.5 158,174.5 149.5,184 149.5,184 150.661,184.581 156.759,179 159,179 159,179 159,181 159,181 159,181 158,183 158,183 158,183 157,184 157,184 157,188.086 145,196.836 145,198 145,198 144,199 144,199 144,199 143,199 143,199 143,199 142,200 142,200  Z"/>

<path  fill="#FFF990" stroke-width="0" stroke="#FFF990" d = " M310 197 L312,198 C315.35,198 319.616,203.442 324.5,201 326.481,200.009 326.456,194 329,194 329,189.625 321.926,181.352 320,177.5 313.913,165.325 290.357,131 275,131 275,134.531 274,138.893 274,143 274,143 284,153.5 284,153.5 284,153.5 299,175.5 299,175.5 299,175.5 310.5,187 310.5,187 306.585,187 302.411,179 298,179 298,179 297,181 297,181 297,181 299,183 299,183 299,188.403 309,192.676 309,196 309,196 310,197 310,197  Z"/>

<path  fill="#FFFB8E" stroke-width="0" stroke="#FFFB8E" d = " M145 132 L144,133 C144,133 145,132 145,132  Z"/>

<path  fill="#CBC9CC" stroke-width="0" stroke="#CBC9CC" d = " M105 133 C105,135.091 108.746,133 105,133  Z"/>

<path  fill="#CBC9CC" stroke-width="0" stroke="#CBC9CC" d = " M104 134 C104,135.93 105.93,134 104,134  Z"/>

<path  fill="#FBFC91" stroke-width="0" stroke="#FBFC91" d = " M183 151 C185.068,151 187.255,148.123 189.5,147 L203.5,143 L218,143 C229.382,143 252.436,140.468 261.5,145 L273,151 C273,142.86 261.391,142.445 256.5,140 248.654,136.077 208.306,136.097 200.5,140 195.9,142.3 183,142.394 183,151  Z"/>

<path  fill="#FFFA8F" stroke-width="0" stroke="#FFFA8F" d = " M183 151 C185.068,151 187.255,148.123 189.5,147 L203.5,143 L218,143 C229.382,143 252.436,140.468 261.5,145 L273,151 C273,154.328 262.561,155.53 259.5,154 255.416,151.958 248.837,153 244,153 233.481,153 205.59,149.955 197.5,154 194.355,155.573 183,154.115 183,151  Z"/>

<path  fill="#FFFA8F" stroke-width="0" stroke="#FFFA8F" d = " M162 174 L170,176 C181.072,176 192.033,171.766 202.5,177 L213.5,177 C215.76,178.13 240.017,179.242 242.5,178 244.818,176.841 271.395,172.948 273.5,174 275.707,175.103 287.314,177.093 289.5,176 L295,174 C295,168.206 273.315,160.907 269.5,159 263.38,155.94 247.228,157 239.5,157 239.5,157 228.5,154 228.5,154 228.5,154 218.5,157 218.5,157 212.499,160 192.121,155.689 181.5,161 176.944,163.278 162,168.102 162,174  Z"/>

<path  fill="#FDFC8F" stroke-width="0" stroke="#FDFC8F" d = " M161 182 L172.5,181 C181.128,185.314 211.683,191 222.5,191 L242.5,191 C255.071,184.715 271.918,187.291 284.5,181 L296,182 C296,182 297,181 297,181 297,181 298,179 298,179 298,179 295,174 295,174 295,174 289.5,176 289.5,176 287.314,177.093 275.707,175.103 273.5,174 271.395,172.948 244.818,176.841 242.5,178 240.017,179.242 215.76,178.13 213.5,177 213.5,177 202.5,177 202.5,177 192.033,171.766 181.072,176 170,176 170,176 162,174 162,174 160.197,174 159,177.592 159,179 159,179 159,181 159,181 159,181 161,182 161,182  Z"/>

<path  fill="#F0F080" stroke-width="0" stroke="#F0F080" d = " M161 182 L158,183 C158,183 159,181 159,181 159,181 161,182 161,182  Z"/>

<path  fill="#F0F080" stroke-width="0" stroke="#F0F080" d = " M296 182 C296,183.473 297.952,183 299,183 299,183 297,181 297,181 297,181 296,182 296,182  Z"/>

<path  fill="#F0F080" stroke-width="0" stroke="#F0F080" d = " M158 183 L157,184 C157,184 158,183 158,183  Z"/>

<path  fill="#CBC9CC" stroke-width="0" stroke="#CBC9CC" d = " M147 184 C147,186.091 150.746,184 147,184  Z"/>

<path  fill="#CBC9CC" stroke-width="0" stroke="#CBC9CC" d = " M146 185 C146,186.93 147.93,185 146,185  Z"/>

<path  fill="#CBC9CC" stroke-width="0" stroke="#CBC9CC" d = " M145 186 C145,187.93 146.93,186 145,186  Z"/>

<path  fill="#FF9BCD" stroke-width="0" stroke="#FF9BCD" d = " M166 187 L165,188 C165,188 166,187 166,187  Z"/>

<path  fill="#FFA2D2" stroke-width="0" stroke="#FFA2D2" d = " M180 193 C180,195.116 177.425,199 175,199 171.466,199 156.83,198.84 160,192.5 160,192.5 162,189 162,189 162,189 163,189 163,189 163,189 164,188 164,188 164,188 165,188 165,188 165,188 166,187 166,187 166,187 171,187 171,187 171,189.258 180,188.809 180,193  Z"/>

<path  fill="#FF9BCD" stroke-width="0" stroke="#FF9BCD" d = " M180 193 L184,193 C184,189.837 191.871,191 194,191 194,189.647 189.357,189 188,189 182.387,189 177.219,187 171,187 171,189.258 180,188.809 180,193  Z"/>

<path  fill="#FF9BCD" stroke-width="0" stroke="#FF9BCD" d = " M272 193 L276,193 C276,188.698 285,189.123 285,187 278.781,187 273.613,189 268,189 267.014,189 262,190.087 262,191 264.129,191 272,189.837 272,193  Z"/>

<path  fill="#FFA2D2" stroke-width="0" stroke="#FFA2D2" d = " M282 199 L292,199 C292,199 294,198 294,198 294,198 296,195.5 296,195.5 297.428,192.644 294,190.947 294,189 294,189 292,188 292,188 292,188 291,187 291,187 291,187 285,187 285,187 285,189.123 276,188.698 276,193 276,195.344 279.726,199 282,199  Z"/>

<path  fill="#FF9BCD" stroke-width="0" stroke="#FF9BCD" d = " M291 187 L292,188 C292,188 291,187 291,187  Z"/>

<path  fill="#FF9BCD" stroke-width="0" stroke="#FF9BCD" d = " M164 188 L163,189 C163,189 164,188 164,188  Z"/>

<path  fill="#FF9BCD" stroke-width="0" stroke="#FF9BCD" d = " M134 217 L129,221 C129,213.551 154.649,189 162,189 162,189 160,192.5 160,192.5 156.83,198.84 171.466,199 175,199 175,203.747 176.751,206 183,206 183,206 185,207 185,207 185,207.71 179,210.286 179,215 179,215 170.5,204 170.5,204 166.69,202.095 164.769,203 161,203 161,200.658 165.949,201.398 165,199.5 163.677,196.854 152,197.534 152,201 145.585,201 134,209.988 134,217  Z"/>

<path  fill="#FF9BCD" stroke-width="0" stroke="#FF9BCD" d = " M322 217 C322,219.453 324.947,218.447 326,219.5 L329,224 C329,215.168 302.55,189 294,189 294,190.947 297.428,192.644 296,195.5 296,195.5 294,198 294,198 296.355,198 304,197.771 304,201 308.497,201 317.241,205.982 319,209.5 319.453,210.405 324.76,217 322,217  Z"/>

<path  fill="#FEB1D9" stroke-width="0" stroke="#FEB1D9" d = " M191 199 L192,199 C192,199 194,198 194,198 194,198 195,197 195,197 195,197 197,197 197,197 197,197 199,194.5 199,194.5 199,194.5 195,191 195,191 195,191 194,191 194,191 191.871,191 184,189.837 184,193 186.917,193 188,196.481 188,199 188,199 191,199 191,199  Z"/>

<path  fill="#FF9BCD" stroke-width="0" stroke="#FF9BCD" d = " M197 197 C198.408,197 202,194.644 202,198 203.35,198 212,195.96 212,195 212,193.034 197.208,191 195,191 195,191 199,194.5 199,194.5 199,194.5 197,197 197,197  Z"/>

<path  fill="#FF9BCD" stroke-width="0" stroke="#FF9BCD" d = " M260 197 C257.639,197 255,194.658 255,198 253.53,198 244,195.854 244,195 244,193.095 258.878,191 261,191 261,191 258,193.5 258,193.5 258,193.5 260,197 260,197  Z"/>

<path  fill="#FEB1D9" stroke-width="0" stroke="#FEB1D9" d = " M263 198 L268,199 C268,197.336 269.823,193 272,193 272,189.837 264.129,191 262,191 262,191 261,191 261,191 261,191 258,193.5 258,193.5 258,193.5 260,197 260,197 260,197 261,197 261,197 261,197 262,198 262,198 262,198 263,198 263,198  Z"/>

<path  fill="#FDA5D0" stroke-width="0" stroke="#FDA5D0" d = " M185 203 L183,206 C176.751,206 175,203.747 175,199 177.425,199 180,195.116 180,193 180,193 184,193 184,193 186.917,193 188,196.481 188,199 188,199 187,201 187,201 187,201 186,202 186,202 186,202 185,203 185,203  Z"/>

<path  fill="#FDA5D0" stroke-width="0" stroke="#FDA5D0" d = " M270 202 L273,206 C278.076,206 282,204.639 282,199 279.726,199 276,195.344 276,193 276,193 272,193 272,193 269.823,193 268,197.336 268,199 268,199 270,202 270,202  Z"/>

<path  fill="#F0F080" stroke-width="0" stroke="#F0F080" d = " M141 201 C141,206.561 119.952,204 115,204 115,204 120.5,201 120.5,201 120.5,201 128,194 128,194 129.154,194 130.386,199.943 132.5,201 132.5,201 141,201 141,201  Z"/>

<path  fill="#F0F080" stroke-width="0" stroke="#F0F080" d = " M312 198 C312,207.28 334.847,204 341,204 341,201.792 329,197.829 329,194 326.456,194 326.481,200.009 324.5,201 319.616,203.442 315.35,198 312,198  Z"/>

<path  fill="#FDA5D1" stroke-width="0" stroke="#FDA5D1" d = " M199 220 L200,220 C200,220 201,219 201,219 201,217.053 204,216.364 204,214 204,204.769 220,198.733 220,211 222.581,211 227,216.394 227,210 225.069,210 219,198.838 219,197 219,197 218,197 218,197 218,197 217,196 217,196 217,196 216,196 216,196 216,196 215,195 215,195 215,195 212,195 212,195 212,195.96 203.35,198 202,198 202,198 201,199 201,199 195.191,199 191.032,207 185,207 185,207.71 179,210.286 179,215 179,215 180,219 180,219 180,219 184,220 184,220 189.078,220 193.472,220 199,220  Z"/>

<path  fill="#FF9BCD" stroke-width="0" stroke="#FF9BCD" d = " M215 195 L216,196 C216,196 215,195 215,195  Z"/>

<path  fill="#FF9BCD" stroke-width="0" stroke="#FF9BCD" d = " M242 195 L240,196 C240,196 242,195 242,195  Z"/>

<path  fill="#FDA5D1" stroke-width="0" stroke="#FDA5D1" d = " M272 220 L276,220 C276,220 277,215 277,215 277,211 272,208.84 272,207 269.629,207 255,198.845 255,198 253.53,198 244,195.854 244,195 244,195 242,195 242,195 242,195 240,196 240,196 240,196 239,196 239,196 239,196 238,197 238,197 238,197 237,198 237,198 237,199.763 231.299,210 229,210 229,216.394 233.419,211 236,211 236,200.278 252,202.325 252,215 252,216.726 256.558,220 258,220 263.156,220 267.202,220 272,220  Z"/>

<path  fill="#FFB2D6" stroke-width="0" stroke="#FFB2D6" d = " M183 206 L185,207 C191.032,207 195.191,199 201,199 201,199 202,198 202,198 202,194.644 198.408,197 197,197 197,197 195,197 195,197 195,197 194,198 194,198 194,198 192,199 192,199 192,199 191,199 191,199 191,201.109 188.465,201 187,201 187,201 186,202 186,202 186,202 185,203 185,203 185,203 183,206 183,206  Z"/>

<path  fill="#FF9BCD" stroke-width="0" stroke="#FF9BCD" d = " M217 196 L218,197 C218,197 217,196 217,196  Z"/>

<path  fill="#FF9BCD" stroke-width="0" stroke="#FF9BCD" d = " M239 196 L238,197 C238,197 239,196 239,196  Z"/>

<path  fill="#FFB2D6" stroke-width="0" stroke="#FFB2D6" d = " M273 206 L272,207 C269.629,207 255,198.845 255,198 255,194.658 257.639,197 260,197 260,197 261,197 261,197 261,197 262,198 262,198 262,198 263,198 263,198 263,198 270,202 270,202 270,202 273,206 273,206  Z"/>

<path  fill="#F0F080" stroke-width="0" stroke="#F0F080" d = " M309 196 L310,197 C310,197 309,196 309,196  Z"/>

<path  fill="#FF9BCD" stroke-width="0" stroke="#FF9BCD" d = " M195 197 L194,198 C194,198 195,197 195,197  Z"/>

<path  fill="#AAA9A7" stroke-width="0" stroke="#AAA9A7" d = " M227 210 L229,210 C231.299,210 237,199.763 237,198 237,198 237,197 237,197 237,197 231,197 231,197 231,197 233,198.5 233,198.5 233,198.5 224.5,199 224.5,199 224.5,199 225,197 225,197 225,197 219,197 219,197 219,198.838 225.069,210 227,210  Z"/>

<path  fill="#A9AAA8" stroke-width="0" stroke="#A9AAA8" d = " M225 197 L231,197 C231,197 233,198.5 233,198.5 233,198.5 224.5,199 224.5,199 224.5,199 225,197 225,197  Z"/>

<path  fill="#FF9BCD" stroke-width="0" stroke="#FF9BCD" d = " M238 197 L237,198 C237,198 237,197 237,197 237,197 238,197 238,197  Z"/>

<path  fill="#FF9BCD" stroke-width="0" stroke="#FF9BCD" d = " M261 197 L262,198 C262,198 261,197 261,197  Z"/>

<path  fill="#F0F080" stroke-width="0" stroke="#F0F080" d = " M145 198 L144,199 C144,199 145,198 145,198  Z"/>

<path  fill="#C8CACA" stroke-width="0" stroke="#C8CACA" d = " M159 203 L161,203 C161,200.658 165.949,201.398 165,199.5 163.677,196.854 152,197.534 152,201 154.426,201 158,199.976 158,203 158,203 159,203 159,203  Z"/>

<path  fill="#FF9BCD" stroke-width="0" stroke="#FF9BCD" d = " M194 198 L192,199 C192,199 194,198 194,198  Z"/>

<path  fill="#FF9BCD" stroke-width="0" stroke="#FF9BCD" d = " M202 198 L201,199 C201,199 202,198 202,198  Z"/>

<path  fill="#FF9BCD" stroke-width="0" stroke="#FF9BCD" d = " M268 199 L270,202 C270,202 263,198 263,198 263,198 268,199 268,199  Z"/>

<path  fill="#FF9BCD" stroke-width="0" stroke="#FF9BCD" d = " M294 198 L292,199 C292,199 294,198 294,198  Z"/>

<path  fill="#C8CACA" stroke-width="0" stroke="#C8CACA" d = " M303 207 L304,207 C304,202.938 292.907,201 304,201 304,197.771 296.355,198 294,198 294,198 292,199 292,199 292,203.01 296,200.578 296,203 296,203 297,203 297,203 297,203 298,204 298,204 298,204 302,206 302,206 302,206 303,207 303,207  Z"/>

<path  fill="#F0F080" stroke-width="0" stroke="#F0F080" d = " M143 199 L142,200 C142,200 143,199 143,199  Z"/>

<path  fill="#FF9BCD" stroke-width="0" stroke="#FF9BCD" d = " M191 199 C191,201.109 188.465,201 187,201 187,201 188,199 188,199 188,199 191,199 191,199  Z"/>

<path  fill="#FF9BCD" stroke-width="0" stroke="#FF9BCD" d = " M272 207 C272,208.84 277,211 277,215 280.783,215 283.245,205.128 287.5,203 290.448,201.526 293.017,203 296,203 296,200.578 292,203.01 292,199 292,199 282,199 282,199 282,204.639 278.076,206 273,206 273,206 272,207 272,207  Z"/>

<path  fill="#F0F080" stroke-width="0" stroke="#F0F080" d = " M142 200 L141,201 C141,201 142,200 142,200  Z"/>

<path  fill="#FDA3D1" stroke-width="0" stroke="#FDA3D1" d = " M147 211 C142.16,211 138.718,217 134,217 134,209.988 145.585,201 152,201 154.426,201 158,199.976 158,203 156.762,203 155,203.423 155,205 155,205 154,206 154,206 154,206 153,207 153,207 153,207 152,207 152,207 152,207 151,208 151,208 151,208 150,208 150,208 150,208 149,209 149,209 149,209 148,210 148,210 148,210 147,211 147,211  Z"/>

<path  fill="#FF9BCD" stroke-width="0" stroke="#FF9BCD" d = " M187 201 L186,202 C186,202 187,201 187,201  Z"/>

<path  fill="#FDA3D1" stroke-width="0" stroke="#FDA3D1" d = " M308 209 C310.823,209 317.016,217 322,217 324.76,217 319.453,210.405 319,209.5 317.241,205.982 308.497,201 304,201 292.907,201 304,202.938 304,207 304,207 305,207 305,207 305,207 307,209 307,209 307,209 308,209 308,209  Z"/>

<path  fill="#FDA5D2" stroke-width="0" stroke="#FDA5D2" d = " M142 269 L149,269 C156.93,269 155.97,247.561 159,241.5 162.292,234.916 180,229.277 180,223 180,223 180,219 180,219 180,219 179,215 179,215 179,215 170.5,204 170.5,204 166.69,202.095 164.769,203 161,203 161,203 159,203 159,203 159,203 158,204 158,204 158,204 157,205 157,205 157,205 155,205 155,205 155,205 154,206 154,206 154,206 153,207 153,207 153,207 152,207 152,207 152,207 151,208 151,208 151,208 150,209 150,209 150,209 149,209 149,209 149,209 148,210 148,210 148,210 147,211 147,211 147,213.192 137.942,221 136,221 136,221 135,222 135,222 135,222 134,223 134,223 134,223 133,224 133,224 133,224 131,228 131,228 131,228 130,229 130,229 130,229 130,230 130,230 130,230 129,231 129,231 129,231 128,242 128,242 128,242 128,247 128,247 128,247 128,249 128,249 128,249 129,250 129,250 129,250 129,253 129,253 129,253 130,254 130,254 130,254 130,255 130,255 130,255 131,256 131,256 131,256 131,258 131,258 131,258 132,259 132,259 132,259 132,260 132,260 132,260 133,261 133,261 133,261 133,262 133,262 133,262 135,265 135,265 135,265 137,267 137,267 137,267 139,269 139,269 139,269 142,269 142,269  Z"/>

<path  fill="#FF9BCD" stroke-width="0" stroke="#FF9BCD" d = " M186 202 L185,203 C185,203 186,202 186,202  Z"/>

<path  fill="#FDA5D2" stroke-width="0" stroke="#FDA5D2" d = " M315 269 L317,269 C317,269 318,268 318,268 318,268 322,264 322,264 322,264 323,263 323,263 323,263 323,262 323,262 323,262 324,261 324,261 324,261 324,260 324,260 324,260 325,259 325,259 325,259 325,257 325,257 325,257 326,256 326,256 326,256 326,255 326,255 326,255 327,254 327,254 327,254 327,252 327,252 327,252 328,251 328,251 328,251 328,249 328,249 328,249 329,248 329,248 329,248 328,234 328,234 328,234 327,233 327,233 327,233 327,230 327,230 327,230 326,229 326,229 326,229 326,228 326,228 326,228 325,227 325,227 325,227 325,226 325,226 325,226 323,224 323,224 323,224 322,223 322,223 322,223 321,222 321,222 321,222 310,212 310,212 310,212 307,209 307,209 307,209 306,209 306,209 306,209 304,207 304,207 304,207 303,207 303,207 303,207 302,206 302,206 302,206 298,204 298,204 298,204 297,203 297,203 297,203 296,203 296,203 293.017,203 290.448,201.526 287.5,203 283.245,205.128 280.783,215 277,215 277,215 276,220 276,220 276,220 276,222 276,222 276,231.109 293.415,233.33 297,240.5 300.177,246.855 299.462,269 308,269 308,269 315,269 315,269  Z"/>

<path  fill="#C8CACA" stroke-width="0" stroke="#C8CACA" d = " M155 205 L157,205 C157,205 158,204 158,204 158,204 158,203 158,203 156.762,203 155,203.423 155,205  Z"/>

<path  fill="#FF9BCD" stroke-width="0" stroke="#FF9BCD" d = " M159 203 L158,204 C158,204 158,203 158,203 158,203 159,203 159,203  Z"/>

<path  fill="#FDB1D8" stroke-width="0" stroke="#FDB1D8" d = " M204 214 C206.338,214 208.862,214 212,214 212,212.421 214.855,213 216,213 216,213 219,213 219,213 219,213 220,211 220,211 220,198.733 204,204.769 204,214  Z"/>

<path  fill="#FDB1D8" stroke-width="0" stroke="#FDB1D8" d = " M245 214 L252,215 C252,202.325 236,200.278 236,211 236,211 237,213 237,213 237,213 240,213 240,213 241.145,213 244,212.421 244,214 244,214 245,214 245,214  Z"/>

<path  fill="#FF9BCD" stroke-width="0" stroke="#FF9BCD" d = " M297 203 L298,204 C298,204 297,203 297,203  Z"/>

<path  fill="#FF9BCD" stroke-width="0" stroke="#FF9BCD" d = " M158 204 L157,205 C157,205 158,204 158,204  Z"/>

<path  fill="#C8CACA" stroke-width="0" stroke="#C8CACA" d = " M155 205 L154,206 C154,206 155,205 155,205  Z"/>

<path  fill="#FF9BCD" stroke-width="0" stroke="#FF9BCD" d = " M154 206 L153,207 C153,207 154,206 154,206  Z"/>

<path  fill="#FF9BCD" stroke-width="0" stroke="#FF9BCD" d = " M302 206 L303,207 C303,207 302,206 302,206  Z"/>

<path  fill="#FF9BCD" stroke-width="0" stroke="#FF9BCD" d = " M152 207 L151,208 C151,208 152,207 152,207  Z"/>

<path  fill="#FF9BCD" stroke-width="0" stroke="#FF9BCD" d = " M305 207 L306,209 C306,209 304,207 304,207 304,207 305,207 305,207  Z"/>

<path  fill="#C8CACA" stroke-width="0" stroke="#C8CACA" d = " M306 209 L307,209 C307,209 305,207 305,207 305,207 306,209 306,209  Z"/>

<path  fill="#C8CACA" stroke-width="0" stroke="#C8CACA" d = " M149 209 L150,209 C150,209 150,208 150,208 150,208 149,209 149,209  Z"/>

<path  fill="#FF9BCD" stroke-width="0" stroke="#FF9BCD" d = " M151 208 L150,209 C150,209 150,208 150,208 150,208 151,208 151,208  Z"/>

<path  fill="#C8CACA" stroke-width="0" stroke="#C8CACA" d = " M149 209 L148,210 C148,210 149,209 149,209  Z"/>

<path  fill="#FF9BCD" stroke-width="0" stroke="#FF9BCD" d = " M308 209 L310,212 C310,212 307,209 307,209 307,209 308,209 308,209  Z"/>

<path  fill="#C8CACA" stroke-width="0" stroke="#C8CACA" d = " M311 275 C312.569,275 316,270.271 316,275 316,275 323,270 323,270 323,270 324,269 324,269 324,269 325,268 325,268 325,268 326,267 326,267 326,267 327,265 327,265 327,265 328,263 328,263 328,263 329,261 329,261 329,261 330,259 330,259 330,259 331,257 331,257 331,257 331,256 331,256 331,256 332,248 332,248 332,246.952 331.527,245 333,245 333,245 333,240 333,240 331.527,240 332,238.048 332,237 332,233.106 330,230.395 330,227 330,227 330,226 330,226 330,226 329,225 329,225 329,225 329,224 329,224 329,224 326,219.5 326,219.5 324.947,218.447 322,219.453 322,217 317.016,217 310.823,209 308,209 308,209 310,212 310,212 310,212 321,222 321,222 321,222 322,223 322,223 322,223 323,224 323,224 323,224 325,226 325,226 325,226 325,227 325,227 325,227 326,228 326,228 326,228 326,229 326,229 326,229 327,230 327,230 327,230 327,233 327,233 327,233 328,234 328,234 328,234 329,248 329,248 329,248 328,249 328,249 328,249 328,251 328,251 328,251 327,252 327,252 327,252 327,254 327,254 327,254 326,255 326,255 326,255 326,256 326,256 326,256 325,257 325,257 325,257 325,259 325,259 325,259 324,260 324,260 324,260 324,261 324,261 324,261 323,262 323,262 323,262 323,263 323,263 323,263 322,264 322,264 322,264 318,268 318,268 318,268 317,269 317,269 317,269 315,269 315,269 315,270.032 311,271.758 311,275  Z"/>

<path  fill="#C8CACA" stroke-width="0" stroke="#C8CACA" d = " M148 210 L147,211 C147,211 148,210 148,210  Z"/>

<path  fill-rule="evenodd" fill="#FF9BCD" stroke-width="0" stroke="#FF9BCD" d = " M238 288 L236,290.5 C233.984,294.532 243.623,297.061 245.5,298 246.769,298.634 255,298.426 255,296.5 255,292.73 242.572,288 238,288  M226 237 C226,238.96 224.653,247 226.5,247 227.078,247 227.875,237 226,237  M229 236 L229,240.5 L229,243.5 C229,253.807 234.115,236 229,236  M229 293 C229,296.194 236.07,295.785 238.5,297 245.439,300.469 266.097,301.702 273.5,298 275.393,297.053 285,298.883 285,296 274.757,296 292,291.85 292,289 292,289 289,289 289,289 278.466,289 275.853,301.206 267,283.5 266.13,281.76 261,278.84 261,276 248.891,276 241.419,261.339 237,252.5 235.577,249.654 231.838,237 237,237 237,237 235,233 235,233 235,230.545 229.858,233.216 229,231.5 226.136,225.773 230.827,213 237,213 237,213 236,211 236,211 233.419,211 229,216.394 229,210 229,210 227,210 227,210 227,216.394 222.581,211 220,211 220,211 219,213 219,213 224.892,213 230.792,224.916 228,230.5 226.844,232.811 221,231.096 221,233 221,233 219,237 219,237 224.708,237 221.253,246.994 220,249.5 215.493,258.515 209.436,276 196,276 193.652,276 187.242,290.129 183.5,292 177.188,295.156 173.552,289 168,289 168,289 164,289 164,289 164,291.074 171.841,293.17 173.5,294 175.752,295.126 174.331,296.915 172.5,296 172.5,296 169,295 169,295 169,298.121 180.316,298 183,298 194.993,298 207.229,302.635 218.5,297 220.162,296.169 228,295.485 228,293 223.157,293 226,286.827 226,285 223.515,285 209,285.734 209,289 205.862,289 203.183,293.659 200.5,295 199.398,295.551 194.377,293.746 195,292.5 196.743,289.014 220,278.042 220,273 212.364,273 221.61,263.28 223,260.5 223,260.5 223,256.5 223,256.5 223.85,254.8 225.422,255 227,255 229.279,255 226.97,250 228.5,250 228.5,250 229,256 229,256 234.454,256 234.347,261.194 237,266.5 237.515,267.531 242.072,271.714 239.5,273 239.5,273 235,272 235,272 235,278.054 258.607,287.715 261,292.5 261.623,293.746 256.602,295.551 255.5,295 255.5,295 246.5,287 246.5,287 242.602,285.051 236.322,287.911 232.5,286 232.5,286 229,283 229,283 229,284.079 234.147,293 229,293  M209 289 L202,297.5 C205.106,303.713 232.92,288 214.5,288 L209,289  Z"/>

<path  fill="#C8CACA" stroke-width="0" stroke="#C8CACA" d = " M145 274 C143.592,274 140,271.644 140,275 135.48,275 132.59,265 129,265 129,265 129,264 129,264 129,262.762 128.577,261 127,261 127,261 127,260 127,260 127,254.783 124,250.022 124,244 124,244 124,241 124,241 124,241 124,236 124,236 124,236 125,234 125,234 125,234 125,231 125,231 125,231 125,229 125,229 125,229 126,227 126,227 126,227 127,226 127,226 127,226 127,225 127,225 127,225 128,223 128,223 128,223 129,221 129,221 129,221 134,217 134,217 138.718,217 142.16,211 147,211 147,213.192 137.942,221 136,221 136,221 135,222 135,222 135,222 134,223 134,223 134,223 133,224 133,224 133,224 131,228 131,228 131,228 130,229 130,229 130,229 130,230 130,230 130,230 129,231 129,231 129,231 128,242 128,242 126.434,242 126.434,247 128,247 128,247 128,249 128,249 128,249 129,250 129,250 129,250 129,253 129,253 129,253 130,254 130,254 130,254 130,255 130,255 130,255 131,256 131,256 131,256 131,258 131,258 131,258 132,259 132,259 132,259 132,260 132,260 132,260 133,261 133,261 133,261 133,262 133,262 133,263.238 133.423,265 135,265 135,265 137,267 137,267 137,267 139,269 139,269 139,269 142,269 142,269 142,270.353 145,271.158 145,274  Z"/>

<path  fill="#FF9BCD" stroke-width="0" stroke="#FF9BCD" d = " M216 213 C214.855,213 212,212.421 212,214 213.145,214 216,214.579 216,213  Z"/>

<path  fill="#FEB1D7" stroke-width="0" stroke="#FEB1D7" d = " M211 228 C213.77,228 217.444,233 221,233 221,231.096 226.844,232.811 228,230.5 230.792,224.916 224.892,213 219,213 219,213 216,213 216,213 216,214.579 213.145,214 212,214 212,214 209,216.5 209,216.5 207.027,220.445 211,224.792 211,228  Z"/>

<path  fill="#FEB1D7" stroke-width="0" stroke="#FEB1D7" d = " M245 229 C242.325,229 238.695,233 235,233 235,230.545 229.858,233.216 229,231.5 226.136,225.773 230.827,213 237,213 237,213 240,213 240,213 240,214.579 242.855,214 244,214 244,214 245,214 245,214 245,214.86 248.798,220.905 247,224.5 247,224.5 245,229 245,229  Z"/>

<path  fill="#FF9BCD" stroke-width="0" stroke="#FF9BCD" d = " M240 213 C241.145,213 244,212.421 244,214 242.855,214 240,214.579 240,213  Z"/>

<path  fill="#FF9BCD" stroke-width="0" stroke="#FF9BCD" d = " M211 228 L211,229 C207.003,229 206.169,219 201,219 201,217.053 204,216.364 204,214 206.338,214 208.862,214 212,214 212,214 209,216.5 209,216.5 207.027,220.445 211,224.792 211,228  Z"/>

<path  fill="#FF9BCD" stroke-width="0" stroke="#FF9BCD" d = " M245 229 L246,229 C246,227.167 252.625,219 254.5,219 254.5,219 258,221 258,221 258,221 258,220 258,220 256.558,220 252,216.726 252,215 252,215 245,214 245,214 245,214.86 248.798,220.905 247,224.5 247,224.5 245,229 245,229  Z"/>

<path  fill="#FF9BCD" stroke-width="0" stroke="#FF9BCD" d = " M184 220 L180,223 C180,223 180,219 180,219 180,219 184,220 184,220  Z"/>

<path  fill="#FCB3D9" stroke-width="0" stroke="#FCB3D9" d = " M164 271 C161.843,271 155,271.46 155,274 151.488,274 149,272.742 149,269 156.93,269 155.97,247.561 159,241.5 162.292,234.916 180,229.277 180,223 180,223 184,220 184,220 189.078,220 193.472,220 199,220 199,220 199,221 199,221 199,221 198,222 198,222 198,222 191,231.5 191,231.5 186.388,240.724 179.631,249.238 175,258.5 175,258.5 164,271 164,271  Z"/>

<path  fill="#FF9BCD" stroke-width="0" stroke="#FF9BCD" d = " M201 219 L200,220 C200,220 201,219 201,219  Z"/>

<path  fill-rule="evenodd" fill="#FFB2D8" stroke-width="0" stroke="#FFB2D8" d = " M190 267 L176.5,277 C171.387,279.557 168.216,271 164,271 164,271 175,258.5 175,258.5 179.631,249.238 186.388,240.724 191,231.5 191,231.5 198,222 198,222 198,222 199,221 199,221 199,221 200,220 200,220 200,220 201,219 201,219 206.169,219 207.003,229 211,229 211,231.124 212,233.436 212,235 212,235 211,237 211,237 211,237 206,243.5 206,243.5 202.057,247.443 199.377,253.745 197,258.5 197,258.5 190,267 190,267  M178 265 C181.579,265 182.254,271 179,271 179,273.694 165.706,273.794 173.5,266 173.5,266 177,265 177,265 177,265 178,265 178,265  Z"/>

<path  fill-rule="evenodd" fill="#FFB2D8" stroke-width="0" stroke="#FFB2D8" d = " M267 267 L279.5,277 C285.172,279.836 287.628,271 292,271 292,266.666 284.284,263.068 283,260.5 283,260.5 265,231.5 265,231.5 263.067,227.633 258,225.177 258,221 258,221 254.5,219 254.5,219 252.625,219 246,227.167 246,229 246,229 245,234 245,234 245,234 245,236 245,236 245,238.896 258.85,256.201 261,260.5 261,260.5 267,267 267,267  M280 265 C286.123,265 286.111,270.695 281.5,273 277.642,274.929 272.596,266 277,266 277,266 279,265 279,265 279,265 280,265 280,265  Z"/>

<path  fill="#FCB3D9" stroke-width="0" stroke="#FCB3D9" d = " M292 271 C296.208,271 300.137,274 302,274 304.666,274 308,271.896 308,269 299.462,269 300.177,246.855 297,240.5 293.415,233.33 276,231.109 276,222 276,222 272,220 272,220 267.202,220 263.156,220 258,220 258,220 258,221 258,221 258,225.177 263.067,227.633 265,231.5 265,231.5 283,260.5 283,260.5 284.284,263.068 292,266.666 292,271  Z"/>

<path  fill="#FF9BCD" stroke-width="0" stroke="#FF9BCD" d = " M200 220 L199,221 C199,221 199,220 199,220 199,220 200,220 200,220  Z"/>

<path  fill="#FF9BCD" stroke-width="0" stroke="#FF9BCD" d = " M276 220 L276,222 C276,222 272,220 272,220 272,220 276,220 276,220  Z"/>

<path  fill="#FF9BCD" stroke-width="0" stroke="#FF9BCD" d = " M129 221 L128,223 C128,223 129,221 129,221  Z"/>

<path  fill="#FF9BCD" stroke-width="0" stroke="#FF9BCD" d = " M136 221 L135,222 C135,222 136,221 136,221  Z"/>

<path  fill="#FF9BCD" stroke-width="0" stroke="#FF9BCD" d = " M199 221 L198,222 C198,222 199,221 199,221  Z"/>

<path  fill="#FF9BCD" stroke-width="0" stroke="#FF9BCD" d = " M321 222 L322,223 C322,223 321,222 321,222  Z"/>

<path  fill="#FF9BCD" stroke-width="0" stroke="#FF9BCD" d = " M128 223 L127,225 C127,225 128,223 128,223  Z"/>

<path  fill="#FF9BCD" stroke-width="0" stroke="#FF9BCD" d = " M134 223 L133,224 C133,224 134,223 134,223  Z"/>

<path  fill="#FF9BCD" stroke-width="0" stroke="#FF9BCD" d = " M323 224 L325,226 C325,226 323,224 323,224  Z"/>

<path  fill="#FF9BCD" stroke-width="0" stroke="#FF9BCD" d = " M329 225 L330,226 C330,226 329,225 329,225  Z"/>

<path  fill="#FF9BCD" stroke-width="0" stroke="#FF9BCD" d = " M127 226 L126,227 C126,227 127,226 127,226  Z"/>

<path  fill="#FF9BCD" stroke-width="0" stroke="#FF9BCD" d = " M126 227 L125,229 C125,229 126,227 126,227  Z"/>

<path  fill="#FF9BCD" stroke-width="0" stroke="#FF9BCD" d = " M325 227 L326,228 C326,228 325,227 325,227  Z"/>

<path  fill="#FF9BCD" stroke-width="0" stroke="#FF9BCD" d = " M332 237 L333,237 C333,234.845 332.475,227 330,227 330,230.395 332,233.106 332,237  Z"/>

<path  fill="#FF9BCD" stroke-width="0" stroke="#FF9BCD" d = " M131 228 L130,229 C130,229 131,228 131,228  Z"/>

<path  fill="#FFB1D9" stroke-width="0" stroke="#FFB1D9" d = " M214 236 L219,237 C219,237 221,233 221,233 217.444,233 213.77,228 211,228 211,228 211,229 211,229 211,231.124 212,233.436 212,235 212,235 214,236 214,236  Z"/>

<path  fill="#FFB1D9" stroke-width="0" stroke="#FFB1D9" d = " M243 236 L237,237 C237,237 235,233 235,233 238.695,233 242.325,229 245,229 245,229 246,229 246,229 246,229 245,234 245,234 245,234 243,236 243,236  Z"/>

<path  fill="#FF9BCD" stroke-width="0" stroke="#FF9BCD" d = " M326 229 L327,230 C327,230 326,229 326,229  Z"/>

<path  fill="#FF9BCD" stroke-width="0" stroke="#FF9BCD" d = " M130 230 L129,231 C129,231 130,230 130,230  Z"/>

<path  fill="#FF9BCD" stroke-width="0" stroke="#FF9BCD" d = " M124 234 L125,234 C125,234 125,231 125,231 123.527,231 124,232.952 124,234  Z"/>

<path  fill="#FF9BCD" stroke-width="0" stroke="#FF9BCD" d = " M327 233 L328,234 C328,234 327,233 327,233  Z"/>

<path  fill="#C9C9C8" stroke-width="0" stroke="#C9C9C8" d = " M124 235 L124,236 C124,236 125,234 125,234 125,234 124,234 124,234 124,234 124,235 124,235  Z"/>

<path  fill="#FF9BCD" stroke-width="0" stroke="#FF9BCD" d = " M243 236 L245,236 C245,236 245,234 245,234 245,234 243,236 243,236  Z"/>

<path  fill="#FF9BCD" stroke-width="0" stroke="#FF9BCD" d = " M123 241 L124,241 C124,241 124,236 124,236 124,236 124,235 124,235 122.316,235 123,239.679 123,241  Z"/>

<path  fill="#FF9BCD" stroke-width="0" stroke="#FF9BCD" d = " M214 236 L211,237 C211,237 212,235 212,235 212,235 214,236 214,236  Z"/>

<path  fill="#FFB1D6" stroke-width="0" stroke="#FFB1D6" d = " M190 267 C197.163,267 196,270.535 196,276 209.436,276 215.493,258.515 220,249.5 221.253,246.994 224.708,237 219,237 219,237 214,236 214,236 214,236 211,237 211,237 211,237 206,243.5 206,243.5 202.057,247.443 199.377,253.745 197,258.5 197,258.5 190,267 190,267  Z"/>

<path  fill="#CBCBCC" stroke-width="0" stroke="#CBCBCC" d = " M229 236 L229,240.5 L229,243.5 C229,253.807 234.115,236 229,236  Z"/>

<path  fill="#FFB1D6" stroke-width="0" stroke="#FFB1D6" d = " M267 267 C259.162,267 261,270.591 261,276 248.891,276 241.419,261.339 237,252.5 235.577,249.654 231.838,237 237,237 237,237 243,236 243,236 243,236 245,236 245,236 245,238.896 258.85,256.201 261,260.5 261,260.5 267,267 267,267  Z"/>

<path  fill="#CBCBCC" stroke-width="0" stroke="#CBCBCC" d = " M226 237 C226,238.96 224.653,247 226.5,247 227.078,247 227.875,237 226,237  Z"/>

<path  fill="#C9C9C8" stroke-width="0" stroke="#C9C9C8" d = " M333 237 L333,240 C331.527,240 332,238.048 332,237 332,237 333,237 333,237  Z"/>

<path  fill="#C9C9C8" stroke-width="0" stroke="#C9C9C8" d = " M123 244 L124,244 C124,244 124,241 124,241 124,241 123,241 123,241 123,241 123,244 123,244  Z"/>

<path  fill="#FF9BCD" stroke-width="0" stroke="#FF9BCD" d = " M128 242 C126.434,242 126.434,247 128,247 128,247 128,242 128,242  Z"/>

<path  fill="#FF9BCD" stroke-width="0" stroke="#FF9BCD" d = " M124 244 C124,250.022 127,254.783 127,260 124.461,260 123,246.946 123,244 123,244 124,244 124,244  Z"/>

<path  fill="#C9C9C8" stroke-width="0" stroke="#C9C9C8" d = " M332 248 L333,248 C333,248 333,245 333,245 331.527,245 332,246.952 332,248  Z"/>

<path  fill="#FF9BCD" stroke-width="0" stroke="#FF9BCD" d = " M329 248 L328,249 C328,249 329,248 329,248  Z"/>

<path  fill="#FF9BCD" stroke-width="0" stroke="#FF9BCD" d = " M333 248 C333,249.775 332.931,256 331,256 331,256 332,248 332,248 332,248 333,248 333,248  Z"/>

<path  fill="#FF9BCD" stroke-width="0" stroke="#FF9BCD" d = " M128 249 L129,250 C129,250 128,249 128,249  Z"/>

<path  fill="#FEC6E2" stroke-width="0" stroke="#FEC6E2" d = " M228 265 L229,265 C229,265 229,263 229,263 229,263 229,262 229,262 229,262 229,256 229,256 229,256 228.5,250 228.5,250 226.97,250 229.279,255 227,255 227,255 227,263 227,263 227,263 228,265 228,265  Z"/>

<path  fill="#FF9BCD" stroke-width="0" stroke="#FF9BCD" d = " M328 251 L327,252 C327,252 328,251 328,251  Z"/>

<path  fill="#FF9BCD" stroke-width="0" stroke="#FF9BCD" d = " M129 253 L130,254 C130,254 129,253 129,253  Z"/>

<path  fill="#FF9BCD" stroke-width="0" stroke="#FF9BCD" d = " M327 254 L326,255 C326,255 327,254 327,254  Z"/>

<path  fill="#FF9BCD" stroke-width="0" stroke="#FF9BCD" d = " M130 255 L131,256 C131,256 130,255 130,255  Z"/>

<path  fill="#C8C8CC" stroke-width="0" stroke="#C8C8CC" d = " M227 263 C222.496,263 223.202,273 220,273 212.364,273 221.61,263.28 223,260.5 223,260.5 223,256.5 223,256.5 223.85,254.8 225.422,255 227,255 227,255 227,263 227,263  Z"/>

<path  fill="#C8C8CC" stroke-width="0" stroke="#C8C8CC" d = " M230 263 C231.681,263 235,270.278 235,272 235,272 239.5,273 239.5,273 242.072,271.714 237.515,267.531 237,266.5 234.347,261.194 234.454,256 229,256 229,256 229,262 229,262 229,262 230,263 230,263  Z"/>

<path  fill="#FF9BCD" stroke-width="0" stroke="#FF9BCD" d = " M326 256 L325,257 C325,257 326,256 326,256  Z"/>

<path  fill="#FF9BCD" stroke-width="0" stroke="#FF9BCD" d = " M331 257 L330,259 C330,259 331,257 331,257  Z"/>

<path  fill="#FF9BCD" stroke-width="0" stroke="#FF9BCD" d = " M131 258 L132,259 C132,259 131,258 131,258  Z"/>

<path  fill="#FF9BCD" stroke-width="0" stroke="#FF9BCD" d = " M325 259 L324,260 C324,260 325,259 325,259  Z"/>

<path  fill="#FF9BCD" stroke-width="0" stroke="#FF9BCD" d = " M330 259 L329,261 C329,261 330,259 330,259  Z"/>

<path  fill="#FF9BCD" stroke-width="0" stroke="#FF9BCD" d = " M132 260 L133,261 C133,261 132,260 132,260  Z"/>

<path  fill="#FF9BCD" stroke-width="0" stroke="#FF9BCD" d = " M127 261 C128.577,261 129,262.762 129,264 127.423,264 127,262.238 127,261  Z"/>

<path  fill="#FF9BCD" stroke-width="0" stroke="#FF9BCD" d = " M324 261 L323,262 C323,262 324,261 324,261  Z"/>

<path  fill="#FF9BCD" stroke-width="0" stroke="#FF9BCD" d = " M329 261 L328,263 C328,263 329,261 329,261  Z"/>

<path  fill="#FF9BCD" stroke-width="0" stroke="#FF9BCD" d = " M133 262 L135,265 C133.423,265 133,263.238 133,262  Z"/>

<path  fill="#FF9BCD" stroke-width="0" stroke="#FF9BCD" d = " M229 263 L230,263 C230,263 229,262 229,262 229,262 229,263 229,263  Z"/>

<path  fill="#FFB3D8" stroke-width="0" stroke="#FFB3D8" d = " M226 285 C223.515,285 209,285.734 209,289 205.862,289 203.183,293.659 200.5,295 199.398,295.551 194.377,293.746 195,292.5 196.743,289.014 220,278.042 220,273 223.202,273 222.496,263 227,263 227,263 228,265 228,265 228,265 228,277 228,277 228,277 227,283 227,283 227,283 226,285 226,285  Z"/>

<path  fill="#FFB3D8" stroke-width="0" stroke="#FFB3D8" d = " M229 277 L229,283 C229,283 232.5,286 232.5,286 236.322,287.911 242.602,285.051 246.5,287 246.5,287 255.5,295 255.5,295 256.602,295.551 261.623,293.746 261,292.5 258.607,287.715 235,278.054 235,272 235,270.278 231.681,263 230,263 230,263 229,263 229,263 229,263 229,265 229,265 229,265 229,277 229,277  Z"/>

<path  fill="#FF9BCD" stroke-width="0" stroke="#FF9BCD" d = " M323 263 L322,264 C322,264 323,263 323,263  Z"/>

<path  fill="#FF9BCD" stroke-width="0" stroke="#FF9BCD" d = " M328 263 L327,265 C327,265 328,263 328,263  Z"/>

<path  fill="#FF9BCD" stroke-width="0" stroke="#FF9BCD" d = " M159 287 C159,291.817 168,291.872 168,295 159.672,295 143.158,280.658 138,275.5 135.714,273.214 129,268.128 129,265 132.59,265 135.48,275 140,275 140,275 151.5,286 151.5,286 158.026,289.263 153.323,281.823 151,279.5 151,279.5 145,274 145,274 145,271.158 142,270.353 142,269 142,269 149,269 149,269 149,272.742 151.488,274 155,274 155,279.905 158,281.634 158,283 153.684,283 159,285.189 159,287  Z"/>

<path  fill="#FF9BCD" stroke-width="0" stroke="#FF9BCD" d = " M177 265 L173.5,266 C165.706,273.794 179,273.694 179,271 177.154,271 172.34,270.819 174,267.5 174,267.5 177,265 177,265  Z"/>

<path  fill="#FEB3D8" stroke-width="0" stroke="#FEB3D8" d = " M178 265 C178,265.831 179,267.865 179,271 177.154,271 172.34,270.819 174,267.5 174,267.5 177,265 177,265 177,265 178,265 178,265  Z"/>

<path  fill="#FF9BCD" stroke-width="0" stroke="#FF9BCD" d = " M178 265 C181.579,265 182.254,271 179,271 179,267.865 178,265.831 178,265  Z"/>

<path  fill="#FF9BCD" stroke-width="0" stroke="#FF9BCD" d = " M228 277 L229,277 C229,277 229,265 229,265 229,265 228,265 228,265 228,265 228,277 228,277  Z"/>

<path  fill="#FF9BCD" stroke-width="0" stroke="#FF9BCD" d = " M279 265 L277,266 C277,266 279,265 279,265  Z"/>

<path  fill="#FEB3D8" stroke-width="0" stroke="#FEB3D8" d = " M280 265 L283,269.5 C280.525,274.45 277,269.046 277,266 277,266 279,265 279,265 279,265 280,265 280,265  Z"/>

<path  fill="#FF9BCD" stroke-width="0" stroke="#FF9BCD" d = " M280 265 C286.123,265 286.111,270.695 281.5,273 277.642,274.929 272.596,266 277,266 277,269.046 280.525,274.45 283,269.5 283,269.5 280,265 280,265  Z"/>

<path  fill="#FF9BCD" stroke-width="0" stroke="#FF9BCD" d = " M327 265 L326,267 C326,267 327,265 327,265  Z"/>

<path  fill="#FF9BCD" stroke-width="0" stroke="#FF9BCD" d = " M137 267 L139,269 C139,269 137,267 137,267  Z"/>

<path  fill="#FCB3D7" stroke-width="0" stroke="#FCB3D7" d = " M160 284 C161.738,284 168,287.015 168,289 173.552,289 177.188,295.156 183.5,292 187.242,290.129 193.652,276 196,276 196,270.535 197.163,267 190,267 190,267 176.5,277 176.5,277 171.387,279.557 168.216,271 164,271 161.843,271 155,271.46 155,274 155,279.905 158,281.634 158,283 158,283 159,283 159,283 159,283 160,284 160,284  Z"/>

<path  fill="#FCB3D7" stroke-width="0" stroke="#FCB3D7" d = " M296 284 C293.579,284 289,286.642 289,289 278.466,289 275.853,301.206 267,283.5 266.13,281.76 261,278.84 261,276 261,270.591 259.162,267 267,267 267,267 279.5,277 279.5,277 285.172,279.836 287.628,271 292,271 296.208,271 300.137,274 302,274 302,278.831 298,281.867 298,283 298,283 297,283 297,283 297,283 296,284 296,284  Z"/>

<path  fill="#FF9BCD" stroke-width="0" stroke="#FF9BCD" d = " M326 267 L325,268 C325,268 326,267 326,267  Z"/>

<path  fill="#FF9BCD" stroke-width="0" stroke="#FF9BCD" d = " M318 268 L317,269 C317,269 318,268 318,268  Z"/>

<path  fill="#FF9BCD" stroke-width="0" stroke="#FF9BCD" d = " M325 268 L324,269 C324,269 325,268 325,268  Z"/>

<path  fill="#FF9BCD" stroke-width="0" stroke="#FF9BCD" d = " M298 283 C299.048,283 301,282.527 301,284 303.922,284 306.886,275 311,275 311,271.758 315,270.032 315,269 315,269 308,269 308,269 308,271.896 304.666,274 302,274 302,278.831 298,281.867 298,283  Z"/>

<path  fill="#FF9BCD" stroke-width="0" stroke="#FF9BCD" d = " M324 269 L323,270 C323,270 324,269 324,269  Z"/>

<path  fill="#FF9BCD" stroke-width="0" stroke="#FF9BCD" d = " M316 275 C316,277.734 311,277.909 311,281 313.772,281 323,272.761 323,270 323,270 316,275 316,275  Z"/>

<path  fill="#C9CACA" stroke-width="0" stroke="#C9CACA" d = " M145 274 C143.592,274 140,271.644 140,275 140,275 151.5,286 151.5,286 158.026,289.263 153.323,281.823 151,279.5 151,279.5 145,274 145,274  Z"/>

<path  fill="#C9CACA" stroke-width="0" stroke="#C9CACA" d = " M303 287 L304,287 C304,287 305,286 305,286 305,286 306,285 306,285 306,283.189 309.438,281 311,281 311,277.909 316,277.734 316,275 316,270.271 312.569,275 311,275 306.886,275 303.922,284 301,284 301,286.003 300.707,287 303,287  Z"/>

<path  fill="#FFC6E2" stroke-width="0" stroke="#FFC6E2" d = " M228 293 L229,293 C234.147,293 229,284.079 229,283 229,283 229,277 229,277 229,277 228,277 228,277 228,277 227,283 227,283 227,283 226,285 226,285 226,286.827 223.157,293 228,293  Z"/>

<path  fill="#FF9BCD" stroke-width="0" stroke="#FF9BCD" d = " M311 281 C309.438,281 306,283.189 306,285 307.562,285 311,282.811 311,281  Z"/>

<path  fill="#C8C8CB" stroke-width="0" stroke="#C8C8CB" d = " M164 289 L168,289 C168,287.015 161.738,284 160,284 160,284 159,283 159,283 159,283 158,283 158,283 153.684,283 159,285.189 159,287 159,287 164,289 164,289  Z"/>

<path  fill="#FF9BCD" stroke-width="0" stroke="#FF9BCD" d = " M159 283 L160,284 C160,284 159,283 159,283  Z"/>

<path  fill="#FF9BCD" stroke-width="0" stroke="#FF9BCD" d = " M227 283 L226,285 C226,285 227,283 227,283  Z"/>

<path  fill="#FF9BCD" stroke-width="0" stroke="#FF9BCD" d = " M297 283 L296,284 C296,284 297,283 297,283  Z"/>

<path  fill="#C8C8CB" stroke-width="0" stroke="#C8C8CB" d = " M289 289 L292,289 C294.25,289 295.376,287 297,287 298.457,287 298.46,284 301,284 301,282.527 299.048,283 298,283 298,283 297,283 297,283 297,283 296,284 296,284 293.579,284 289,286.642 289,289  Z"/>

<path  fill="#FF9BCD" stroke-width="0" stroke="#FF9BCD" d = " M303 287 C303,290.197 290.732,295 288,295 288,292.755 297,292.265 297,287 298.457,287 298.46,284 301,284 301,286.003 300.707,287 303,287  Z"/>

<path  fill="#FF9BCD" stroke-width="0" stroke="#FF9BCD" d = " M306 285 L305,286 C305,286 306,285 306,285  Z"/>

<path  fill="#FF9BCD" stroke-width="0" stroke="#FF9BCD" d = " M305 286 L304,287 C304,287 305,286 305,286  Z"/>

<path  fill="#CBC7CC" stroke-width="0" stroke="#CBC7CC" d = " M168 295 L169,295 C169,295 172.5,296 172.5,296 174.331,296.915 175.752,295.126 173.5,294 171.841,293.17 164,291.074 164,289 164,289 159,287 159,287 159,291.817 168,291.872 168,295  Z"/>

<path  fill="#CBC7CC" stroke-width="0" stroke="#CBC7CC" d = " M288 295 C286.952,295 285,294.527 285,296 274.757,296 292,291.85 292,289 294.25,289 295.376,287 297,287 297,292.265 288,292.755 288,295  Z"/>

<path  fill="#C7C9C9" stroke-width="0" stroke="#C7C9C9" d = " M209 289 L202,297.5 C205.106,303.713 232.92,288 214.5,288 L209,289  Z"/>

<path  fill="#C7C9C9" stroke-width="0" stroke="#C7C9C9" d = " M238 288 L236,290.5 C233.984,294.532 243.623,297.061 245.5,298 246.769,298.634 255,298.426 255,296.5 255,292.73 242.572,288 238,288  Z"/>

<path  fill="#FF9BCD" stroke-width="0" stroke="#FF9BCD" d = " M288 295 C286.952,295 285,294.527 285,296 286.048,296 288,296.473 288,295  Z"/>

</g>
</svg>
