<svg xmlns="http://www.w3.org/2000/svg" xmlns:xlink="http://www.w3.org/1999/xlink"  viewBox="0 0 456 320">
<g>
<rect width="456" height="320" fill="#000000"  stroke-width="0" /> 
<path  fill="#FCFB90" stroke-width="0" stroke="#FCFB90" d = " M173 128 L181.5,125 C182.835,124.332 187.197,126.151 189.5,125 192.903,123.299 196.911,114.322 195,110.5 192.037,104.574 189.74,102.021 193,95.5 197.06,87.3795 212.716,89.3918 219.5,86 L226.5,86 L227.5,84 L229.5,86 C231.775,87.1374 235.117,85.8085 237.5,87 244.442,90.471 259.252,87.0038 264,96.5 266.477,101.454 264.118,105.263 262,109.5 255.451,122.598 276.308,128 284,128 284,122.959 291.59,104.68 288,97.5 288,97.5 283,82 283,82 283,82 276.5,76 276.5,76 272.563,74.0316 246,59.797 246,57.5 246,51.6469 261,51.6996 261,45 261,41.136 251.893,39 248.5,39 248.5,39 207.5,39 207.5,39 204.101,39 196,40.9012 196,45 196,51.6117 207.502,51.5039 210,56.5 211.552,59.6043 206.341,62.0795 204.5,63 196.841,66.8295 189.273,71.1135 181.5,75 181.5,75 173,83 173,83 173,86.195 170.403,90.6945 169,93.5 166.718,98.0639 167.872,115.243 170,119.5 170.768,121.037 170.692,128 173,128  Z"/>

<path  fill="#FEFA90" stroke-width="0" stroke="#FEFA90" d = " M172 52 C172,61.5338 173,72.7835 173,83 173,83 181.5,75 181.5,75 189.273,71.1135 196.841,66.8295 204.5,63 206.341,62.0795 211.552,59.6043 210,56.5 207.502,51.5039 196,51.6117 196,45 189.666,45 180.871,46.3143 175.5,49 174.272,49.6141 174.224,52 172,52  Z"/>

<path  fill="#FEFA90" stroke-width="0" stroke="#FEFA90" d = " M284 52 C284,61.252 283,72.0797 283,82 283,82 276.5,76 276.5,76 272.563,74.0316 246,59.797 246,57.5 246,51.6469 261,51.6996 261,45 261,45 275.5,47 275.5,47 277.192,47.8458 282.399,52 284,52  Z"/>

<path  fill="#FDFB8F" stroke-width="0" stroke="#FDFB8F" d = " M143 101 C147.532,101 155.171,80.1571 157,76.5 L157,71.5 C157.921,69.659 160.396,64.4479 163.5,66 L159,76.5 L159,80.5 C154.786,88.9272 150,97.3027 150,107.5 150,113.702 151.125,124.812 157.5,128 159.591,129.046 173,130.87 173,128 170.692,128 170.768,121.037 170,119.5 167.872,115.243 166.718,98.0639 169,93.5 170.403,90.6945 173,86.195 173,83 173,72.7835 172,61.5338 172,52 169.392,52 165.277,48.1113 161.5,50 154.876,53.3118 135,57.1403 135,68 140.557,68 143,96.1122 143,101  Z"/>

<path  fill="#FDFB8F" stroke-width="0" stroke="#FDFB8F" d = " M313 100 C305.787,100 301.47,76.4407 299,71.5 298.296,70.0924 296.169,64.6655 293.5,66 292.064,66.7181 296.197,73.8934 297,75.5 L297,79.5 C301.078,87.6566 307,97.2983 307,107 307,114.164 304.214,125.643 297.5,129 295.678,129.911 284,130.41 284,128 284,122.959 291.59,104.68 288,97.5 288,97.5 283,82 283,82 283,72.0797 284,61.252 284,52 286.798,52 291.516,48.0081 295.5,50 301.984,53.2422 321,57.5248 321,68 316.278,68 313,95.5692 313,100  Z"/>

<path  fill-rule="evenodd" fill="#CBC9CC" stroke-width="0" stroke="#CBC9CC" d = " M226 89 C226,92.1534 220.2,93.3499 217.5,92 211.64,89.0698 201.827,95.8465 199,101.5 193.209,113.082 210.889,129.194 218.5,133 221.611,134.556 225.017,141.741 230.5,139 239.126,134.687 253.448,121.605 257,114.5 259.623,109.253 257.223,97.3616 252.5,95 249.261,93.3804 245.774,92.6371 242.5,91 L231.5,92 C229.075,90.7874 229.933,89 226,89  M313 181 L322,191 C322,184.333 314,169.561 314,161 310.187,161 313.108,157.716 312,155.5 308.952,149.404 323,144.044 323,155 323,155 332,155 332,155 342.147,155 346.272,158.886 354.5,163 356.135,163.817 360.858,173.821 362.5,173 364.139,172.18 362.364,170.228 362,169.5 359.843,165.185 354.592,160.685 353,157.5 352.613,156.726 350.814,153 353,153 353,150.583 366.243,147 368.5,147 368.5,147 375,146.5 375,146.5 375,146.209 373.303,141.106 373,140.5 373,140.5 368.5,143 368.5,143 364.966,144.767 361.064,145.218 357.5,147 351.489,150.006 333.922,145.711 328.5,143 326.005,141.752 319,140.247 319,137 315.203,137 310.832,116.836 313,112.5 313,112.5 317.5,105 317.5,105 318.94,104.28 325,103.475 325,100.5 325,98.8739 319.998,102.751 319.5,103 317.533,103.984 313,102.34 313,100 305.787,100 301.47,76.4407 299,71.5 298.296,70.0924 296.169,64.6655 293.5,66 292.064,66.7181 296.197,73.8934 297,75.5 297,75.5 297,79.5 297,79.5 301.078,87.6566 307,97.2983 307,107 307,114.164 304.214,125.643 297.5,129 295.678,129.911 284,130.41 284,128 276.308,128 255.451,122.598 262,109.5 264.118,105.263 266.477,101.454 264,96.5 259.252,87.0038 244.442,90.471 237.5,87 235.117,85.8085 231.775,87.1374 229.5,86 229.5,86 227.5,84 227.5,84 227.5,84 226.5,86 226.5,86 226.5,86 219.5,86 219.5,86 212.716,89.3918 197.06,87.3795 193,95.5 189.74,102.021 192.037,104.574 195,110.5 196.911,114.322 192.903,123.299 189.5,125 187.197,126.151 182.835,124.332 181.5,125 181.5,125 173,128 173,128 173,130.87 159.591,129.046 157.5,128 151.125,124.812 150,113.702 150,107.5 150,97.3027 154.786,88.9272 159,80.5 159,80.5 159,76.5 159,76.5 159,76.5 163.5,66 163.5,66 160.396,64.4479 157.921,69.659 157,71.5 157,71.5 157,76.5 157,76.5 155.171,80.1571 147.532,101 143,101 143,102.527 138.072,103.786 136.5,103 136.5,103 127,94.5 127,94.5 126.545,93.5909 125.522,86.4551 125,87.5 120.678,96.1439 140.005,104.51 143,110.5 145.401,115.302 141.977,138 137,138 137,140.295 129.158,142.171 127.5,143 122.178,145.661 105.338,149.919 99.5,147 96.3289,145.414 92.5703,145.535 89.5,144 89.5,144 83,140.5 83,140.5 77.2102,152.08 103,145.892 103,153 106.859,153 96.3695,165.761 95,168.5 94.5803,169.339 91.2141,171.857 93.5,173 93.5,173 96,171.5 96,171.5 97.5542,168.392 100.799,162.851 104.5,161 111.674,157.413 116.179,155 125,155 128.013,155 131.611,154 134,154 134,148.222 142.158,145.816 145,151.5 145.913,153.326 145.004,161 143,161 141.219,161 141.652,167.197 141,168.5 139.884,170.732 134,190.179 134,192 134.547,192 143,181.624 143,181 143,169.284 147.359,154.071 159.5,148 163.526,145.987 167.156,154.172 169.5,153 172.485,151.507 170.104,149 175,149 175,149 176,145 176,145 176,142.304 170.416,138.669 172,135.5 172,135.5 177.5,133 177.5,133 177.5,133 189.5,137 189.5,137 189.5,137 195.5,137 195.5,137 200.885,139.693 208.893,150.804 200.5,155 197.964,156.268 194.956,156.772 192.5,158 189.105,159.698 185.104,160 181,160 181,160 179,161 179,161 179,161 179,163 179,163 194.121,163 223.871,141.186 235.5,147 245.892,152.196 264.833,163 277,163 277,161.764 277.936,160 275,160 271.305,160 267.571,159.535 264.5,158 261.747,156.624 258.339,156.419 255.5,155 250.428,152.464 253.3,141.1 257.5,139 262.786,136.357 269.174,136.663 274.5,134 276.013,133.243 285,133.892 285,136.5 285,136.5 281,145 281,145 281,145 282,149 282,149 284.512,149 287.374,153.563 288.5,153 291.211,151.644 292.03,147 295.5,147 305.75,147 311.393,169.286 315,176.5 315,176.5 313,181 313,181  Z"/>

<path  fill="#FCFC90" stroke-width="0" stroke="#FCFC90" d = " M87 104 C108.188,104 100.852,125.676 111.5,131 117.316,133.908 124.735,133.117 130.5,136 131.8,136.65 137,136.007 137,138 141.977,138 145.401,115.302 143,110.5 140.005,104.51 120.678,96.1439 125,87.5 125.522,86.4551 126.545,93.5909 127,94.5 127,94.5 136.5,103 136.5,103 138.072,103.786 143,102.527 143,101 143,96.1122 140.557,68 135,68 135,68 129.5,67 129.5,67 117.538,72.9809 87,89.005 87,104  Z"/>

<path  fill-rule="evenodd" fill="#FCFC90" stroke-width="0" stroke="#FCFC90" d = " M326 97 C326,102.512 326.634,97 326,97  M329 94 C329,94.7486 325.34,95.9199 327.5,97 329.046,97.7728 331.387,94 329,94  M330 90 C330,97.3886 332.111,90 330,90  M330 86 C330,87.93 331.93,86 330,86  M369 104 C353.535,104 354.432,116.635 350,125.5 346.447,132.605 326.093,137 319,137 315.203,137 310.832,116.836 313,112.5 313,112.5 317.5,105 317.5,105 318.94,104.28 325,103.475 325,100.5 325,98.8739 319.998,102.751 319.5,103 317.533,103.984 313,102.34 313,100 313,95.5692 316.278,68 321,68 321,68 326.5,67 326.5,67 338.795,73.1475 369,88.0228 369,104  Z"/>

<path  fill="#CBC9CC" stroke-width="0" stroke="#CBC9CC" d = " M330 86 C330,87.93 331.93,86 330,86  Z"/>

<path  fill="#FCFB90" stroke-width="0" stroke="#FCFB90" d = " M226 89 C226,92.1534 220.2,93.3499 217.5,92 211.64,89.0698 201.827,95.8465 199,101.5 193.209,113.082 210.889,129.194 218.5,133 221.611,134.556 225.017,141.741 230.5,139 239.126,134.687 253.448,121.605 257,114.5 259.623,109.253 257.223,97.3616 252.5,95 249.261,93.3804 245.774,92.6371 242.5,91 L231.5,92 C229.075,90.7874 229.933,89 226,89  Z"/>

<path  fill="#CBC9CC" stroke-width="0" stroke="#CBC9CC" d = " M330 90 C330,97.3886 332.111,90 330,90  Z"/>

<path  fill="#CBC9CC" stroke-width="0" stroke="#CBC9CC" d = " M329 94 C329,94.7486 325.34,95.9199 327.5,97 329.046,97.7728 331.387,94 329,94  Z"/>

<path  fill="#CBC9CC" stroke-width="0" stroke="#CBC9CC" d = " M326 97 C326,102.512 326.634,97 326,97  Z"/>

<path  fill="#FCFA91" stroke-width="0" stroke="#FCFA91" d = " M103 153 C96.9712,153 80.4623,166 76,166 76,163.652 71.1027,165 70.5,165 68.6023,165 65.6489,157.798 65,156.5 59.5081,145.516 66.537,126.426 71,117.5 71,117.5 75,113.5 75,113.5 76.4168,110.666 83.6366,104 87,104 108.188,104 100.852,125.676 111.5,131 117.316,133.908 124.735,133.117 130.5,136 131.8,136.65 137,136.007 137,138 137,140.295 129.158,142.171 127.5,143 122.178,145.661 105.338,149.919 99.5,147 96.3289,145.414 92.5703,145.535 89.5,144 89.5,144 83,140.5 83,140.5 77.2102,152.08 103,145.892 103,153  Z"/>

<path  fill="#FCFA91" stroke-width="0" stroke="#FCFA91" d = " M353 153 C360.828,153 372.635,165 380,165 399.358,165 392.588,131.677 387,120.5 387,120.5 383,115.5 383,115.5 381.128,111.757 373.294,104 369,104 353.535,104 354.432,116.635 350,125.5 346.447,132.605 326.093,137 319,137 319,140.247 326.005,141.752 328.5,143 333.922,145.711 351.489,150.006 357.5,147 361.064,145.218 364.966,144.767 368.5,143 368.5,143 373,140.5 373,140.5 373.303,141.106 375,146.209 375,146.5 375,146.5 368.5,147 368.5,147 366.243,147 353,150.583 353,153  Z"/>

<path  fill="#FFFCBC" stroke-width="0" stroke="#FFFCBC" d = " M176 145 C182.645,145 181,157.243 181,160 185.104,160 189.105,159.698 192.5,158 194.956,156.772 197.964,156.268 200.5,155 208.893,150.804 200.885,139.693 195.5,137 195.5,137 189.5,137 189.5,137 189.5,137 177.5,133 177.5,133 177.5,133 172,135.5 172,135.5 170.416,138.669 176,142.304 176,145  Z"/>

<path  fill="#FFFCBC" stroke-width="0" stroke="#FFFCBC" d = " M281 145 C273.205,145 275,156.567 275,160 271.305,160 267.571,159.535 264.5,158 261.747,156.624 258.339,156.419 255.5,155 250.428,152.464 253.3,141.1 257.5,139 262.786,136.357 269.174,136.663 274.5,134 276.013,133.243 285,133.892 285,136.5 285,136.5 281,145 281,145  Z"/>

<path  fill="#F0F080" stroke-width="0" stroke="#F0F080" d = " M181 160 L179,161 C179,156.539 180.819,149 175,149 175,149 176,145 176,145 182.645,145 181,157.243 181,160  Z"/>

<path  fill="#F0F080" stroke-width="0" stroke="#F0F080" d = " M277 163 C280.68,163 282.511,165 286,165 286,163.033 278.347,162.194 277,159.5 274.901,155.303 277.5,149 282,149 282,149 281,145 281,145 273.205,145 275,156.567 275,160 277.936,160 277,161.764 277,163  Z"/>

<path  fill="#FDFC8F" stroke-width="0" stroke="#FDFC8F" d = " M212 185 L215.5,187 L240.5,187 L245,185 C245,185 247,184 247,184 247,184 248,183 248,183 248,183 250,183 250,183 250,183 252,182 252,182 252,182 253,182 253,182 253,180.527 254.952,181 256,181 256,181 258,181 258,181 258,179.576 270.9,179 273,179 278.192,179 283.33,177 289,177 289,177 292,177 292,177 292,175.527 293.952,176 295,176 295,176 296,176 296,176 296,176 295,171 295,171 292.853,171 289.519,165 286,165 282.511,165 280.68,163 277,163 264.833,163 245.892,152.196 235.5,147 223.871,141.186 194.121,163 179,163 179,163 176,163 176,163 176,163 175,163 175,163 175,164.638 171.424,165 170,165 168.024,165 159,171.335 159,173 161.845,173 160,173.959 160,176 160,176 161,176 161,176 162.048,176 164,175.527 164,177 164,177 167,177 167,177 172.67,177 177.808,179 183,179 185.267,179 199,179.443 199,181 199,181 201,181 201,181 202.357,181 207,181.647 207,183 207,183 208,183 208,183 208,183 209,184 209,184 209,184 210,184 210,184 210,184 211,185 211,185 211,185 212,185 212,185  Z"/>

<path  fill="#FFFDBC" stroke-width="0" stroke="#FFFDBC" d = " M297 173 C302.406,173 307.027,181 313,181 313,181 315,176.5 315,176.5 311.393,169.286 305.75,147 295.5,147 292.03,147 291.211,151.644 288.5,153 287.374,153.563 284.512,149 282,149 277.5,149 274.901,155.303 277,159.5 278.347,162.194 286,163.033 286,165 289.519,165 292.853,171 295,171 295,171 296,172 296,172 296,172 297,173 297,173  Z"/>

<path  fill="#FFFDBC" stroke-width="0" stroke="#FFFDBC" d = " M134 154 C134,157.755 143,158.022 143,161 145.004,161 145.913,153.326 145,151.5 142.158,145.816 134,148.222 134,154  Z"/>

<path  fill="#FFFDBC" stroke-width="0" stroke="#FFFDBC" d = " M159 173 C155.369,173 148.464,181 143,181 143,169.284 147.359,154.071 159.5,148 163.526,145.987 167.156,154.172 169.5,153 172.485,151.507 170.104,149 175,149 180.819,149 179,156.539 179,161 177.762,161 176,161.423 176,163 176,163 175,163 175,163 173.576,163 170,163.362 170,165 168.024,165 159,171.335 159,173  Z"/>

<path  fill="#FFFDBC" stroke-width="0" stroke="#FFFDBC" d = " M323 155 C321.998,155 314,159.163 314,161 310.187,161 313.108,157.716 312,155.5 308.952,149.404 323,144.044 323,155  Z"/>

<path  fill="#FFFB8E" stroke-width="0" stroke="#FFFB8E" d = " M107 200 C106.299,200 103,198.723 103,201 99.3874,201 96.2595,202.88 92.5,201 81.6175,195.559 76,176.005 76,166 80.4623,166 96.9712,153 103,153 106.859,153 96.3695,165.761 95,168.5 94.5803,169.339 91.2141,171.857 93.5,173 93.5,173 96,171.5 96,171.5 97.5542,168.392 100.799,162.851 104.5,161 111.674,157.413 116.179,155 125,155 125,155 116,179 116,179 116,179 113,183.5 113,183.5 110.948,187.604 107,195.316 107,200  Z"/>

<path  fill="#FFFB8E" stroke-width="0" stroke="#FFFB8E" d = " M349 200 C350.004,200 353,197.69 353,201 353,201 360.5,202 360.5,202 373.674,195.413 380,179.734 380,165 372.635,165 360.828,153 353,153 350.814,153 352.613,156.726 353,157.5 354.592,160.685 359.843,165.185 362,169.5 362.364,170.228 364.139,172.18 362.5,173 360.858,173.821 356.135,163.817 354.5,163 346.272,158.886 342.147,155 332,155 332,160.377 341,175.68 341,179 341,185.993 349,192.299 349,200  Z"/>

<path  fill="#FFF990" stroke-width="0" stroke="#FFF990" d = " M134 192 L132,195 C130.426,195 121.038,179 116,179 116,179 125,155 125,155 128.013,155 131.611,154 134,154 134,157.755 143,158.022 143,161 141.219,161 141.652,167.197 141,168.5 139.884,170.732 134,190.179 134,192  Z"/>

<path  fill="#FFF990" stroke-width="0" stroke="#FFF990" d = " M322 191 L324,195 C327.325,195 334.21,179 341,179 341,175.68 332,160.377 332,155 332,155 323,155 323,155 321.998,155 314,159.163 314,161 314,169.561 322,184.333 322,191  Z"/>

<path  fill="#F0F080" stroke-width="0" stroke="#F0F080" d = " M176 163 L179,163 C179,163 179,161 179,161 177.762,161 176,161.423 176,163  Z"/>

<path  fill="#F0F080" stroke-width="0" stroke="#F0F080" d = " M175 163 C173.576,163 170,163.362 170,165 171.424,165 175,164.638 175,163  Z"/>

<path  fill-rule="evenodd" fill="#A9AAA7" stroke-width="0" stroke="#A9AAA7" d = " M321 203 L320,206.5 C321.817,210.134 330.135,231.183 334.5,229 L335,220 C335,212.004 329.396,203 321,203  M332 238 L335,241 C335,241 337,235.5 337,235.5 337,235.5 338,215 338,215 338,215 336,213 336,213 336,213 335,211 335,211 335,211 334,210 334,210 334,210 331.5,207 331.5,207 331.5,207 324,195 324,195 324,195 322,191 322,191 322,191 313,181 313,181 307.027,181 302.406,173 297,173 297,173 296,172 296,172 296,172 295,171 295,171 295,171 296,176 296,176 301.761,176 316.623,187.939 308.5,192 305.051,193.724 285.684,183.867 284,180.5 282.869,178.237 289,178.528 289,177 283.33,177 278.192,179 273,179 273,179 273,181 273,181 282.586,181 291.928,191 296,191 308.043,191 326,212.065 326,223 326,223 326,224 326,224 326,224 327,225 327,225 327,225 328,228 328,228 328,228 329,229 329,229 329,229 331,236 331,236 331,236 332,237 332,237 332,237 332,238 332,238  Z"/>

<path  fill="#FDFC8F" stroke-width="0" stroke="#FDFC8F" d = " M296 172 L297,173 C297,173 296,172 296,172  Z"/>

<path  fill-rule="evenodd" fill="#A9AAA7" stroke-width="0" stroke="#A9AAA7" d = " M129 203 C129,204.807 115.178,225.839 121.5,229 L126,228.5 L137,204.5 C135.779,202.057 131.291,203 129,203  M124 239 C122.468,239 123.05,240 121,240 121,237.408 120.042,236.584 119,234.5 116.459,229.418 119,219.893 119,215 119,215 120,213 120,213 120,213 121,212 121,212 121,212 122,211 122,211 122,211 123,210 123,210 123,204.91 132,200.515 132,195 132,195 134,192 134,192 134.547,192 143,181.624 143,181 148.464,181 155.369,173 159,173 161.845,173 160,173.959 160,176 154.305,176 144.013,183.527 147,189.5 147,189.5 147.5,192 147.5,192 152.764,194.632 159.826,187 165,187 165,187 161,191 161,191 149.933,191 133,206.926 133,218 133,218 132,220 132,220 132,220 131,221 131,221 131,221 131,223 131,223 131,223 130,224 130,224 130,224 130,225 130,225 130,225 129,226 129,226 129,226 129,227 129,227 129,227 128,228 128,228 128,228 128,229 128,229 128,229 127,230 127,230 127,230 127,232 127,232 127,232 126,233 126,233 126,233 125,235 125,235 125,235 125,237 125,237 125,237 124,239 124,239  Z"/>

<path  fill="#A9AAA8" stroke-width="0" stroke="#A9AAA8" d = " M167 177 C167,178.639 173.507,177.486 172,180.5 170.439,183.623 165,183.56 165,187 159.826,187 152.764,194.632 147.5,192 147.5,192 147,189.5 147,189.5 144.013,183.527 154.305,176 160,176 160,176 161,176 161,176 161,177.473 162.952,177 164,177 164,177 167,177 167,177  Z"/>

<path  fill="#A9AAA7" stroke-width="0" stroke="#A9AAA7" d = " M161 176 C162.048,176 164,175.527 164,177 162.952,177 161,177.473 161,176  Z"/>

<path  fill="#A9AAA7" stroke-width="0" stroke="#A9AAA7" d = " M295 176 C293.952,176 292,175.527 292,177 293.048,177 295,177.473 295,176  Z"/>

<path  fill="#A9AAA8" stroke-width="0" stroke="#A9AAA8" d = " M289 177 L292,177 C293.048,177 295,177.473 295,176 295,176 296,176 296,176 301.761,176 316.623,187.939 308.5,192 305.051,193.724 285.684,183.867 284,180.5 282.869,178.237 289,178.528 289,177  Z"/>

<path  fill="#A9AAA7" stroke-width="0" stroke="#A9AAA7" d = " M183 181 C175.852,181 171.23,187 165,187 165,183.56 170.439,183.623 172,180.5 173.507,177.486 167,178.639 167,177 172.67,177 177.808,179 183,179 183,179 183,180 183,180 183,180 183,181 183,181  Z"/>

<path  fill="#FFFC8D" stroke-width="0" stroke="#FFFC8D" d = " M121 212 L120,213 C120,213 115,212 115,212 113.062,212 107,204.675 107,203 107,203 107,200 107,200 107,195.316 110.948,187.604 113,183.5 113,183.5 116,179 116,179 121.038,179 130.426,195 132,195 132,200.515 123,204.91 123,210 123,210 122,211 122,211 122,211 121,212 121,212  Z"/>

<path  fill="#AAA9A7" stroke-width="0" stroke="#AAA9A7" d = " M189 181 L199,181 C199,179.443 185.267,179 183,179 183,179 183,180 183,180 183,180 184,181 184,181 184,181 189,181 189,181  Z"/>

<path  fill="#AAA9A7" stroke-width="0" stroke="#AAA9A7" d = " M268 181 L273,181 C273,181 273,179 273,179 270.9,179 258,179.576 258,181 258,181 267,181 267,181 267,181 268,181 268,181  Z"/>

<path  fill="#FFFC8D" stroke-width="0" stroke="#FFFC8D" d = " M336 213 L340,213 C340,213 341,212 341,212 343.795,212 349,205.634 349,203 349,203 349,200 349,200 349,192.299 341,185.993 341,179 334.21,179 327.325,195 324,195 324,195 331.5,207 331.5,207 331.5,207 334,210 334,210 334,210 335,211 335,211 335,211 336,213 336,213  Z"/>

<path  fill="#FF9BCD" stroke-width="0" stroke="#FF9BCD" d = " M183 181 L184,181 C184,181 183,180 183,180 183,180 183,181 183,181  Z"/>

<path  fill="#FEB1D9" stroke-width="0" stroke="#FEB1D9" d = " M166 205 C166,207.879 170,206.993 170,209 175.605,209 180.607,204 186,204 186,200.393 187.499,197.501 189,194.5 189,194.5 189,181 189,181 189,181 184,181 184,181 184,181 183,181 183,181 175.852,181 171.23,187 165,187 165,187 161,191 161,191 161,192.691 162,194.148 162,196 168.374,196 166,201.314 166,205  Z"/>

<path  fill="#FFB0D7" stroke-width="0" stroke="#FFB0D7" d = " M211 209 L210,210 C210,210 204,209 204,209 204,209 203,208 203,208 203,208 199,207 199,207 199,203.364 186,206.525 186,204 186,200.393 187.499,197.501 189,194.5 189,194.5 189,181 189,181 189,181 199,181 199,181 199,181 201,181 201,181 201,182.353 205.643,183 207,183 207,183 208,183 208,183 208,183 209,184 209,184 209,184 210,184 210,184 210,184 211,185 211,185 211,185 212,185 212,185 212,188.356 217,190.985 217,195 217,199.66 211,204.542 211,209  Z"/>

<path  fill="#AAA9A7" stroke-width="0" stroke="#AAA9A7" d = " M201 181 C202.357,181 207,181.647 207,183 205.643,183 201,182.353 201,181  Z"/>

<path  fill="#AAA9A7" stroke-width="0" stroke="#AAA9A7" d = " M256 181 C254.952,181 253,180.527 253,182 254.048,182 256,182.473 256,181  Z"/>

<path  fill="#FFB0D7" stroke-width="0" stroke="#FFB0D7" d = " M252 209 L253,209 C253,209 254,208 254,208 254,208 255,207 255,207 255,207 257,207 257,207 257,205.566 269.286,204 271,204 271,204 267,192.5 267,192.5 267,192.5 267,182 267,182 267,182 267,181 267,181 267,181 258,181 258,181 258,181 256,181 256,181 256,182.473 254.048,182 253,182 253,182 252,182 252,182 252,182 250,183 250,183 250,183 248,183 248,183 248,183 247,184 247,184 247,184 245,185 245,185 245,185 240,191 240,191 240,191 239,193 239,193 239,193 239,195 239,195 239,195 246,209 246,209 247.631,209 250.369,209 252,209  Z"/>

<path  fill="#FF9BCD" stroke-width="0" stroke="#FF9BCD" d = " M268 181 L267,182 C267,182 267,181 267,181 267,181 268,181 268,181  Z"/>

<path  fill="#FEB1D9" stroke-width="0" stroke="#FEB1D9" d = " M291 205 L287,209 C282.558,209 278.214,206.857 274.5,205 273.454,204.477 271,205.951 271,204 271,204 267,192.5 267,192.5 267,192.5 267,182 267,182 267,182 268,181 268,181 268,181 273,181 273,181 282.586,181 291.928,191 296,191 296,191 295,196 295,196 288.022,196 291,201.238 291,205  Z"/>

<path  fill="#AAA9A7" stroke-width="0" stroke="#AAA9A7" d = " M252 182 L250,183 C250,183 252,182 252,182  Z"/>

<path  fill="#AAA9A7" stroke-width="0" stroke="#AAA9A7" d = " M208 183 L209,184 C209,184 208,183 208,183  Z"/>

<path  fill="#AAA9A7" stroke-width="0" stroke="#AAA9A7" d = " M248 183 L247,184 C247,184 248,183 248,183  Z"/>

<path  fill="#AAA9A7" stroke-width="0" stroke="#AAA9A7" d = " M210 184 L211,185 C211,185 210,184 210,184  Z"/>

<path  fill="#AAA9A7" stroke-width="0" stroke="#AAA9A7" d = " M247 184 L245,185 C245,185 247,184 247,184  Z"/>

<path  fill="#AAA9A7" stroke-width="0" stroke="#AAA9A7" d = " M217 195 L219,195 C219,193.844 214.967,189.266 217.5,188 217.5,188 221.5,189 221.5,189 221.5,189 235,189 235,189 235,189 239.5,188 239.5,188 239.5,188 240,191 240,191 240,191 245,185 245,185 245,185 240.5,187 240.5,187 240.5,187 215.5,187 215.5,187 215.5,187 212,185 212,185 212,188.356 217,190.985 217,195  Z"/>

<path  fill="#A9AAA8" stroke-width="0" stroke="#A9AAA8" d = " M233 201 C231.423,201 231,202.762 231,204 224.948,204 223.857,199 221,199 221,199 221,198 221,198 221,198 219,196 219,196 219,196 219,195 219,195 219,193.844 214.967,189.266 217.5,188 217.5,188 221.5,189 221.5,189 221.5,189 235,189 235,189 235,189 239.5,188 239.5,188 239.5,188 240,191 240,191 240,191 239,193 239,193 237.423,193 237,194.762 237,196 237,196 237,197 237,197 235.253,197 235,197.253 235,199 235,199 234,200 234,200 234,200 233,201 233,201  Z"/>

<path  fill="#FF9BCD" stroke-width="0" stroke="#FF9BCD" d = " M166 213 C158.648,213 154.476,214.012 148.5,217 L139,227.5 C138.421,228.658 139.341,231 137,231 137,223.541 145.824,215.838 151.5,213 152.828,212.336 159.131,206.316 156.5,205 153.498,203.499 150.848,207 148,207 148,207 155,197.5 155,197.5 155.706,196.089 153.402,195.549 152.5,196 149.174,197.663 146.406,199.094 143.5,202 141.578,203.922 134.198,218 133,218 133,206.926 149.933,191 161,191 161,192.691 162,194.148 162,196 158.431,196 152.55,202.525 157.5,205 160.927,206.714 162.682,205 166,205 166,207.879 170,206.993 170,209 170,209 166,213 166,213  Z"/>

<path  fill="#AAA9A7" stroke-width="0" stroke="#AAA9A7" d = " M240 191 L239,193 C239,193 240,191 240,191  Z"/>

<path  fill="#FF9BCD" stroke-width="0" stroke="#FF9BCD" d = " M308 207 L301,196.5 C301,194.708 304.361,196.93 304.5,197 308.241,198.871 310.547,200.047 314,203.5 L326,223 C326,212.065 308.043,191 296,191 296,191 295,196 295,196 303.466,196 299,202.901 299,205 302.638,205 304.929,207 308,207  Z"/>

<path  fill="#AAA9A7" stroke-width="0" stroke="#AAA9A7" d = " M239 195 L237,196 C237,194.762 237.423,193 239,193 239,193 239,195 239,195  Z"/>

<path  fill="#FFB3D7" stroke-width="0" stroke="#FFB3D7" d = " M233 213 L245,213 C245,213 246,209 246,209 246,209 239,195 239,195 239,195 237,196 237,196 237,196 237,197 237,197 237,197 235,199 235,199 235,199 234,200 234,200 234,200 233,201 233,201 233,202.238 232.577,204 231,204 231,211.156 221,201.595 221,199 221,199 221,198 221,198 221,198 219,196 219,196 219,196 219,195 219,195 219,195 217,195 217,195 217,199.66 211,204.542 211,209 211,209 210,210 210,210 210,210 211,213 211,213 211,213 223,213 223,213 226.984,213 229.016,213 233,213  Z"/>

<path  fill="#C9C9C8" stroke-width="0" stroke="#C9C9C8" d = " M146 275 L146,276 C145.03,276 134,269.315 134,273 129.749,273 128.528,262 125,262 125,262 125,261 125,261 125,260.014 123.913,255 123,255 123,255 123,252 123,252 123,252 124,239 124,239 124,239 125,237 125,237 125,237 125,235 125,235 125,235 126,233 126,233 126,233 127,232 127,232 127,232 127,230 127,230 127,230 128,229 128,229 128,229 128,228 128,228 128,228 129,227 129,227 129,227 129,226 129,226 129,226 130,225 130,225 130,225 130,224 130,224 130,224 131,223 131,223 131,223 131,221 131,221 131,221 132,220 132,220 132,220 133,218 133,218 134.198,218 141.578,203.922 143.5,202 146.406,199.094 149.174,197.663 152.5,196 153.402,195.549 155.706,196.089 155,197.5 155,197.5 148,207 148,207 142.309,207 139.095,214.309 137,218.5 129.735,233.03 122.903,248.306 131,264.5 132.223,266.946 146,274.474 146,275  Z"/>

<path  fill="#FFB0D9" stroke-width="0" stroke="#FFB0D9" d = " M162 196 C168.374,196 166,201.314 166,205 162.682,205 160.927,206.714 157.5,205 152.55,202.525 158.431,196 162,196  Z"/>

<path  fill="#AAA9A7" stroke-width="0" stroke="#AAA9A7" d = " M219 196 L221,198 C221,198 219,196 219,196  Z"/>

<path  fill="#FFB0D9" stroke-width="0" stroke="#FFB0D9" d = " M291 205 C293.721,205 296.279,205 299,205 299,202.901 303.466,196 295,196 288.022,196 291,201.238 291,205  Z"/>

<path  fill="#C9C9C8" stroke-width="0" stroke="#C9C9C8" d = " M323 272 L315,273 C315,273 319.5,269 319.5,269 323.538,264.962 326.514,262.471 329,257.5 334.125,247.249 318.577,207 308,207 308,207 301,196.5 301,196.5 301,194.708 304.361,196.93 304.5,197 308.241,198.871 310.547,200.047 314,203.5 314,203.5 326,223 326,223 326,223 326,224 326,224 326,224 327,225 327,225 327,225 328,228 328,228 328,228 329,229 329,229 329,229 331,236 331,236 331,236 332,237 332,237 332,237 332,238 332,238 332,243.22 333,249.211 333,255 333,255 333,257 333,257 331.527,257 332,258.952 332,260 332,260 331,262 331,262 331,262 331,263 331,263 329.423,263 329,264.762 329,266 329,266 328,267 328,267 328,267 327,269 327,269 327,269 326,270 326,270 326,270 325,271 325,271 325,271 323,272 323,272  Z"/>

<path  fill="#AAA9A7" stroke-width="0" stroke="#AAA9A7" d = " M237 197 C235.253,197 235,197.253 235,199 235,199 237,197 237,197  Z"/>

<path  fill="#F0F080" stroke-width="0" stroke="#F0F080" d = " M103 201 L107,203 C107,203 107,200 107,200 106.299,200 103,198.723 103,201  Z"/>

<path  fill="#AAA9A7" stroke-width="0" stroke="#AAA9A7" d = " M221 199 C223.857,199 224.948,204 231,204 231,211.156 221,201.595 221,199  Z"/>

<path  fill="#AAA9A7" stroke-width="0" stroke="#AAA9A7" d = " M235 199 L234,200 C234,200 235,199 235,199  Z"/>

<path  fill="#F0F080" stroke-width="0" stroke="#F0F080" d = " M353 201 L349,203 C349,203 349,200 349,200 350.004,200 353,197.69 353,201  Z"/>

<path  fill="#AAA9A7" stroke-width="0" stroke="#AAA9A7" d = " M234 200 L233,201 C233,201 234,200 234,200  Z"/>

<path  fill="#AAA9A7" stroke-width="0" stroke="#AAA9A7" d = " M233 201 C231.423,201 231,202.762 231,204 232.577,204 233,202.238 233,201  Z"/>

<path  fill="#A9AAA8" stroke-width="0" stroke="#A9AAA8" d = " M129 203 C129,204.807 115.178,225.839 121.5,229 L126,228.5 L137,204.5 C135.779,202.057 131.291,203 129,203  Z"/>

<path  fill="#A9AAA8" stroke-width="0" stroke="#A9AAA8" d = " M321 203 L320,206.5 C321.817,210.134 330.135,231.183 334.5,229 L335,220 C335,212.004 329.396,203 321,203  Z"/>

<path  fill="#FDA5D1" stroke-width="0" stroke="#FDA5D1" d = " M173 220 L176,221 C181.579,221 187.072,218 193,218 193,218 194,217 194,217 194,217 201,215 201,215 201,213.726 204,212.067 204,209 204,209 203,208 203,208 203,215.996 195.952,207 199,207 199,203.364 186,206.525 186,204 180.607,204 175.605,209 170,209 170,209 166,213 166,213 166,213 173,220 173,220  Z"/>

<path  fill="#FDA5D1" stroke-width="0" stroke="#FDA5D1" d = " M280 221 L283,221 C283,221 283,220 283,220 283,220 284,219 284,219 284,219 285,218 285,218 285,218 290,213 290,213 290,210.382 287,211.349 287,209 282.558,209 278.214,206.857 274.5,205 273.454,204.477 271,205.951 271,204 269.286,204 257,205.566 257,207 262.476,207 253,215.578 253,209 253,209 252,209 252,209 252,212.067 255,213.726 255,215 256.829,215 263,216.371 263,218 263,218 277,220 277,220 277,220 278,221 278,221 278,221 280,221 280,221  Z"/>

<path  fill="#C8CACA" stroke-width="0" stroke="#C8CACA" d = " M137 231 C134.662,231 130.19,248.88 132,252.5 134.143,256.786 135.205,264.353 140.5,267 L151,272.5 C152.318,275.136 147.193,275 146,275 146,274.474 132.223,266.946 131,264.5 122.903,248.306 129.735,233.03 137,218.5 139.095,214.309 142.309,207 148,207 150.848,207 153.498,203.499 156.5,205 159.131,206.316 152.828,212.336 151.5,213 145.824,215.838 137,223.541 137,231  Z"/>

<path  fill="#FF9BCD" stroke-width="0" stroke="#FF9BCD" d = " M290 213 C313.779,213 323,231.84 323,254 324.951,254 323.477,251.546 324,250.5 325.269,247.962 324.505,238.509 323,235.5 320.462,230.423 314.124,217.812 308.5,215 305.801,213.65 299,208.434 299,205 296.279,205 293.721,205 291,205 291,205 287,209 287,209 287,211.349 290,210.382 290,213  Z"/>

<path  fill="#C8CACA" stroke-width="0" stroke="#C8CACA" d = " M313 274 L311,275 C306.174,275 306,275.112 306,271 307.647,271 313,269.732 313,268 313,268 314,267 314,267 314,267 315,267 315,267 315,267 316,266 316,266 316,266 317,265 317,265 317,265 318,264 318,264 318,264 319,263 319,263 319,263 320,261 320,261 320,261 321,260 321,260 322.638,260 323,256.424 323,255 323,255 323,254 323,254 324.951,254 323.477,251.546 324,250.5 325.269,247.962 324.505,238.509 323,235.5 320.462,230.423 314.124,217.812 308.5,215 305.801,213.65 299,208.434 299,205 302.638,205 304.929,207 308,207 318.577,207 334.125,247.249 329,257.5 326.514,262.471 323.538,264.962 319.5,269 319.5,269 315,273 315,273 315,273 313,274 313,274  Z"/>

<path  fill="#FDB1D8" stroke-width="0" stroke="#FDB1D8" d = " M199 207 L203,208 C203,215.996 195.952,207 199,207  Z"/>

<path  fill="#FDA5D1" stroke-width="0" stroke="#FDA5D1" d = " M255 207 L254,208 C254,208 255,207 255,207  Z"/>

<path  fill="#FDB1D8" stroke-width="0" stroke="#FDB1D8" d = " M254 208 L253,209 C253,215.578 262.476,207 257,207 257,207 255,207 255,207 255,207 254,208 254,208  Z"/>

<path  fill="#FFFC8D" stroke-width="0" stroke="#FFFC8D" d = " M74 208 L69,212.5 L68,224 C68,227.863 67.3844,232.269 69,235.5 70.1204,237.741 68.8345,241.169 70,243.5 73.8062,251.112 85.3647,249.771 89,242.5 91.0495,238.401 92.7288,213.114 88.5,211 83.5747,208.537 80.0457,208 74,208  Z"/>

<path  fill="#FDA5D1" stroke-width="0" stroke="#FDA5D1" d = " M254 208 L253,209 C253,209 254,208 254,208  Z"/>

<path  fill="#FFFC8D" stroke-width="0" stroke="#FFFC8D" d = " M373 208 L368,211.5 C366.384,214.732 365,218.078 365,222 365,226.35 364.171,231.842 366,235.5 367.351,238.201 367.592,241.684 369,244.5 371.404,249.309 382.528,250.444 385,245.5 387.955,239.589 392.209,212.855 384.5,209 381.312,207.406 376.819,208 373,208  Z"/>

<path  fill="#FF9BCD" stroke-width="0" stroke="#FF9BCD" d = " M201 215 C204.303,215 206.115,217 209,217 209,217 211,213 211,213 211,213 210,210 210,210 210,210 204,209 204,209 204,212.067 201,213.726 201,215  Z"/>

<path  fill="#FF9BCD" stroke-width="0" stroke="#FF9BCD" d = " M211 209 L210,210 C210,210 211,209 211,209  Z"/>

<path  fill="#FF9BCD" stroke-width="0" stroke="#FF9BCD" d = " M255 215 C251.762,215 249.7,218 247,218 247,216.378 247.461,213 245,213 245,213 246,209 246,209 247.631,209 250.369,209 252,209 252,212.067 255,213.726 255,215  Z"/>

<path  fill="#F0F080" stroke-width="0" stroke="#F0F080" d = " M123 210 L122,211 C122,211 123,210 123,210  Z"/>

<path  fill="#F0F080" stroke-width="0" stroke="#F0F080" d = " M334 210 L335,211 C335,211 334,210 334,210  Z"/>

<path  fill="#F0F080" stroke-width="0" stroke="#F0F080" d = " M122 211 L121,212 C121,212 122,211 122,211  Z"/>

<path  fill="#F0F080" stroke-width="0" stroke="#F0F080" d = " M120 213 L119,215 C117.571,215 115,213.712 115,212 115,212 120,213 120,213  Z"/>

<path  fill="#FF9BCD" stroke-width="0" stroke="#FF9BCD" d = " M227 237 C227,238.919 229,239.488 229,237 229,237 229,215.5 229,215.5 232.107,209.286 231,221.689 231,223 231,223 235,222 235,222 235,219.16 233,216.324 233,213 229.016,213 226.984,213 223,213 223,215.5 221,219.341 221,222 221,222 225,223 225,223 225,222.034 225.372,212.243 227,215.5 229.209,219.918 225.735,226.97 228,231.5 228.536,232.573 228.251,237 227,237  Z"/>

<path  fill="#F0F080" stroke-width="0" stroke="#F0F080" d = " M341 212 L340,213 C340,213 341,212 341,212  Z"/>

<path  fill="#FDA5D2" stroke-width="0" stroke="#FDA5D2" d = " M137 231 C137,234.831 134.688,241.124 133,244.5 128.573,253.354 140.271,265.885 146.5,269 L150,268 C156.751,268 154.948,246.604 157,242.5 160.654,235.193 173,232.454 173,223 173,223 173,220 173,220 173,220 166,213 166,213 158.648,213 154.476,214.012 148.5,217 148.5,217 139,227.5 139,227.5 138.421,228.658 139.341,231 137,231  Z"/>

<path  fill="#FCB3D8" stroke-width="0" stroke="#FCB3D8" d = " M211 222 C214.971,222 216.851,222 221,222 221,219.341 223,215.5 223,213 223,213 211,213 211,213 211,213 209,217 209,217 209,217 210,222 210,222 210,222 211,222 211,222  Z"/>

<path  fill="#FCB3D8" stroke-width="0" stroke="#FCB3D8" d = " M235 222 C239.507,222 241.822,222 246,222 246,222 247,218 247,218 247,216.378 247.461,213 245,213 245,213 233,213 233,213 233,216.324 235,219.16 235,222  Z"/>

<path  fill="#FDA5D2" stroke-width="0" stroke="#FDA5D2" d = " M313 268 L307,269 C307,269 301,262.5 301,262.5 298.419,257.337 301.27,246.04 298,239.5 294.842,233.185 284,232.831 284,224 284,224 283,221 283,221 283,221 283,220 283,220 283,220 284,219 284,219 284,219 285,218 285,218 285,218 290,213 290,213 313.779,213 323,231.84 323,254 323,254 323,255 323,255 321.362,255 321,258.576 321,260 321,260 320,261 320,261 320,261 319,263 319,263 319,263 318,264 318,264 318,264 317,265 317,265 317,265 316,266 316,266 316,266 315,267 315,267 315,267 314,267 314,267 314,267 313,268 313,268  Z"/>

<path  fill="#F0F080" stroke-width="0" stroke="#F0F080" d = " M340 213 L338,215 C338,215 336,213 336,213 336,213 340,213 340,213  Z"/>

<path  fill="#FFB2D8" stroke-width="0" stroke="#FFB2D8" d = " M193 265 L190,266 C190,266 189,265 189,265 189,265 184,265 184,265 184,265 183,265 183,265 183,260.366 177.122,265 176,265 176,265 174,264 174,264 174,261.657 173.715,260 171,260 171,258.175 177.399,246 179,246 183.103,246 182.973,249.736 185.5,251 187.179,251.839 194.549,251.597 193,248.5 193,248.5 181,241 181,241 181,234.955 193,224.924 193,218 193,218 194,217 194,217 194,217 201,215 201,215 204.303,215 206.115,217 209,217 209,217 210,222 210,222 210,222 210,223 210,223 210,235.125 193,255.6 193,265  Z"/>

<path  fill="#CBCBCC" stroke-width="0" stroke="#CBCBCC" d = " M225 223 C225,225.418 224.5,237 227,237 228.251,237 228.536,232.573 228,231.5 225.735,226.97 229.209,219.918 227,215.5 225.372,212.243 225,222.034 225,223  Z"/>

<path  fill="#CBCBCC" stroke-width="0" stroke="#CBCBCC" d = " M231 223 C231,225.469 232.118,237 229,237 229,237 229,215.5 229,215.5 232.107,209.286 231,221.689 231,223  Z"/>

<path  fill="#FFB2D8" stroke-width="0" stroke="#FFB2D8" d = " M266 266 L267,266 C267,264.357 270.765,265 272,265 272,265 273,265 273,265 273,261.07 279.545,265 281,265 281,265 282,264 282,264 282,264 285,260 285,260 285,260 278,245 278,245 278,245 270.5,251 270.5,251 269.353,251.574 263,251.333 263,249.5 263,244.743 275,245.323 275,241 275,235.347 263,223.525 263,218 263,216.371 256.829,215 255,215 251.762,215 249.7,218 247,218 247,218 246,222 246,222 246,233.903 263,255.555 263,265 263,265 266,266 266,266  Z"/>

<path  fill="#FF9BCD" stroke-width="0" stroke="#FF9BCD" d = " M194 217 L193,218 C193,218 194,217 194,217  Z"/>

<path  fill="#FF9BCD" stroke-width="0" stroke="#FF9BCD" d = " M133 218 L132,220 C132,220 133,218 133,218  Z"/>

<path  fill="#FCB3D9" stroke-width="0" stroke="#FCB3D9" d = " M150 268 C150,274.59 156.23,272 160,272 160,272 168,265 168,265 168,262.636 171,261.947 171,260 171,258.175 177.399,246 179,246 179,243.82 175.586,245.329 175,246.5 172.33,251.841 169.629,257.243 167,262.5 167,262.5 163.5,265 163.5,265 160.626,263.563 166.338,256.824 167,255.5 170.765,247.971 170.855,241 181,241 181,234.955 193,224.924 193,218 187.072,218 181.579,221 176,221 176,222.577 174.238,223 173,223 173,232.454 160.654,235.193 157,242.5 154.948,246.604 156.751,268 150,268  Z"/>

<path  fill="#FCB3D9" stroke-width="0" stroke="#FCB3D9" d = " M306 271 C303.474,271 300.423,273 297,273 297,271.313 289.884,265 289,265 289,265 288,264 288,264 288,264 285,260 285,260 285,260 278,245 278,245 284.147,245 287.039,257.578 289,261.5 289,261.5 292.5,265 292.5,265 295.14,263.68 290.588,257.676 290,256.5 286.133,248.765 285.488,241 275,241 275,235.347 263,223.525 263,218 263,218 277,220 277,220 277,220 278,221 278,221 278,221 280,221 280,221 280,221 284,224 284,224 284,232.831 294.842,233.185 298,239.5 301.27,246.04 298.419,257.337 301,262.5 301,262.5 307,269 307,269 307,269 306,271 306,271  Z"/>

<path  fill="#FF9BCD" stroke-width="0" stroke="#FF9BCD" d = " M285 218 L284,219 C284,219 285,218 285,218  Z"/>

<path  fill="#FF9BCD" stroke-width="0" stroke="#FF9BCD" d = " M284 219 L283,220 C283,220 284,219 284,219  Z"/>

<path  fill="#FF9BCD" stroke-width="0" stroke="#FF9BCD" d = " M132 220 L131,221 C131,221 132,220 132,220  Z"/>

<path  fill="#FF9BCD" stroke-width="0" stroke="#FF9BCD" d = " M176 221 C176,222.577 174.238,223 173,223 173,223 173,220 173,220 173,220 176,221 176,221  Z"/>

<path  fill="#FF9BCD" stroke-width="0" stroke="#FF9BCD" d = " M277 220 L278,221 C278,221 277,220 277,220  Z"/>

<path  fill="#FEB0D8" stroke-width="0" stroke="#FEB0D8" d = " M253 277 C253,279.681 260.019,277 261,277 261,274.652 256.398,272.704 258,269.5 258.781,267.937 263,265.974 263,265 263,255.555 246,233.903 246,222 241.822,222 239.507,222 235,222 235,222 231,223 231,223 231,225.469 232.118,237 229,237 229,239.488 227,238.919 227,237 224.5,237 225,225.418 225,223 225,223 221,222 221,222 216.851,222 214.971,222 211,222 211,222 210,223 210,223 210,235.125 193,255.6 193,265 193,265 194,266 194,266 203.127,266 195,274.456 195,277 195.981,277 203,279.681 203,277 203,271.659 202.685,266.408 209.5,263 212.823,261.339 221,256.674 221,264 223.258,264 221.383,252 227,252 228.638,252 229,248.487 229,253 235.561,253 232.154,262 235,262 235,257.103 245.165,262.332 246.5,263 249.015,264.258 256.615,271.27 255,274.5 255,274.5 253,277 253,277  Z"/>

<path  fill="#FF9BCD" stroke-width="0" stroke="#FF9BCD" d = " M283 221 L284,224 C284,224 280,221 280,221 280,221 283,221 283,221  Z"/>

<path  fill="#FF9BCD" stroke-width="0" stroke="#FF9BCD" d = " M211 222 L210,223 C210,223 210,222 210,222 210,222 211,222 211,222  Z"/>

<path  fill="#FF9BCD" stroke-width="0" stroke="#FF9BCD" d = " M131 223 L130,224 C130,224 131,223 131,223  Z"/>

<path  fill="#FF9BCD" stroke-width="0" stroke="#FF9BCD" d = " M326 224 L327,225 C327,225 326,224 326,224  Z"/>

<path  fill="#FF9BCD" stroke-width="0" stroke="#FF9BCD" d = " M130 225 L129,226 C129,226 130,225 130,225  Z"/>

<path  fill="#FF9BCD" stroke-width="0" stroke="#FF9BCD" d = " M129 227 L128,228 C128,228 129,227 129,227  Z"/>

<path  fill="#FF9BCD" stroke-width="0" stroke="#FF9BCD" d = " M328 228 L329,229 C329,229 328,228 328,228  Z"/>

<path  fill="#FF9BCD" stroke-width="0" stroke="#FF9BCD" d = " M128 229 L127,230 C127,230 128,229 128,229  Z"/>

<path  fill="#FF9BCD" stroke-width="0" stroke="#FF9BCD" d = " M160 277 C156.536,277 151,271.698 151,279 151,279 146,276 146,276 146,276 146,275 146,275 147.193,275 152.318,275.136 151,272.5 151,272.5 140.5,267 140.5,267 135.205,264.353 134.143,256.786 132,252.5 130.19,248.88 134.662,231 137,231 137,234.831 134.688,241.124 133,244.5 128.573,253.354 140.271,265.885 146.5,269 146.5,269 150,268 150,268 150,274.59 156.23,272 160,272 160,272 161,274 161,274 161,275.048 161.473,277 160,277  Z"/>

<path  fill="#FF9BCD" stroke-width="0" stroke="#FF9BCD" d = " M127 232 L126,233 C126,233 127,232 127,232  Z"/>

<path  fill="#FF9BCD" stroke-width="0" stroke="#FF9BCD" d = " M126 233 L125,235 C125,235 126,233 126,233  Z"/>

<path  fill="#FF9BCD" stroke-width="0" stroke="#FF9BCD" d = " M331 236 L332,237 C332,237 331,236 331,236  Z"/>

<path  fill="#FF9BCD" stroke-width="0" stroke="#FF9BCD" d = " M125 237 L124,239 C124,239 125,237 125,237  Z"/>

<path  fill="#FF9BCD" stroke-width="0" stroke="#FF9BCD" d = " M335 241 C335,242.916 334.287,255 333,255 333,249.211 332,243.22 332,238 332,238 335,241 335,241  Z"/>

<path  fill="#FF9BCD" stroke-width="0" stroke="#FF9BCD" d = " M121 240 C121,241.308 122.144,252 123,252 123,252 124,239 124,239 122.468,239 123.05,240 121,240  Z"/>

<path  fill="#FFB1D8" stroke-width="0" stroke="#FFB1D8" d = " M181 241 C170.855,241 170.765,247.971 167,255.5 166.338,256.824 160.626,263.563 163.5,265 L167,262.5 C169.629,257.243 172.33,251.841 175,246.5 175.586,245.329 179,243.82 179,246 183.103,246 182.973,249.736 185.5,251 187.179,251.839 194.549,251.597 193,248.5 193,248.5 181,241 181,241  Z"/>

<path  fill="#FFB1D8" stroke-width="0" stroke="#FFB1D8" d = " M275 241 C285.488,241 286.133,248.765 290,256.5 290.588,257.676 295.14,263.68 292.5,265 L289,261.5 C287.039,257.578 284.147,245 278,245 278,245 270.5,251 270.5,251 269.353,251.574 263,251.333 263,249.5 263,244.743 275,245.323 275,241  Z"/>

<path  fill="#FEC6E2" stroke-width="0" stroke="#FEC6E2" d = " M230 268 L229,271 C226.359,271 227,269.177 227,267 227,267 227,252 227,252 228.638,252 229,248.487 229,253 229,253 230,268 230,268  Z"/>

<path  fill="#C8C8CC" stroke-width="0" stroke="#C8C8CC" d = " M223 272 L222,273 C219.017,273 219,274.321 219,270 219,270 220,268 220,268 220,268 221,267 221,267 221,267 221,264 221,264 223.258,264 221.383,252 227,252 227,252 227,267 227,267 227,267 224,271 224,271 224,271 223,272 223,272  Z"/>

<path  fill="#C8C8CC" stroke-width="0" stroke="#C8C8CC" d = " M232 271 L233,272 C236.911,272 237,275.996 237,270 237,270 237,269 237,269 237,269 236,268 236,268 236,266.436 235,264.124 235,262 232.154,262 235.561,253 229,253 229,253 230,268 230,268 230,268 232,271 232,271  Z"/>

<path  fill="#FF9BCD" stroke-width="0" stroke="#FF9BCD" d = " M123 255 C123.913,255 125,260.014 125,261 123.005,261 123,256.623 123,255  Z"/>

<path  fill="#FF9BCD" stroke-width="0" stroke="#FF9BCD" d = " M323 255 C321.362,255 321,258.576 321,260 322.638,260 323,256.424 323,255  Z"/>

<path  fill="#FF9BCD" stroke-width="0" stroke="#FF9BCD" d = " M333 257 C331.527,257 332,258.952 332,260 333.473,260 333,258.048 333,257  Z"/>

<path  fill="#FEB3D6" stroke-width="0" stroke="#FEB3D6" d = " M174 265 L171,266 C171,266 168,265 168,265 168,262.636 171,261.947 171,260 173.715,260 174,261.657 174,264 174,264 174,265 174,265  Z"/>

<path  fill="#FDB2D9" stroke-width="0" stroke="#FDB2D9" d = " M219 270 C217.077,270 209.821,277 203,277 203,271.659 202.685,266.408 209.5,263 212.823,261.339 221,256.674 221,264 221,264 221,267 221,267 221,267 220,268 220,268 220,268 219,270 219,270  Z"/>

<path  fill="#FDB2D9" stroke-width="0" stroke="#FDB2D9" d = " M237 270 C240.771,270 246.135,277 253,277 253,277 255,274.5 255,274.5 256.615,271.27 249.015,264.258 246.5,263 245.165,262.332 235,257.103 235,262 235,264.124 236,266.436 236,268 236,268 237,269 237,269 237,269 237,270 237,270  Z"/>

<path  fill="#FEB3D6" stroke-width="0" stroke="#FEB3D6" d = " M285 266 L286,266 C286,266 288,265 288,265 288,265 288,264 288,264 288,264 285,260 285,260 285,260 282,264 282,264 282,264 283,265 283,265 283,265 285,266 285,266  Z"/>

<path  fill="#FF9BCD" stroke-width="0" stroke="#FF9BCD" d = " M321 260 L320,261 C320,261 321,260 321,260  Z"/>

<path  fill="#FF9BCD" stroke-width="0" stroke="#FF9BCD" d = " M332 260 L331,262 C331,262 332,260 332,260  Z"/>

<path  fill="#FF9BCD" stroke-width="0" stroke="#FF9BCD" d = " M320 261 L319,263 C319,263 320,261 320,261  Z"/>

<path  fill="#FF9BCD" stroke-width="0" stroke="#FF9BCD" d = " M134 273 L135,275 C131.849,275 125,264.471 125,262 128.528,262 129.749,273 134,273  Z"/>

<path  fill="#FCB2D9" stroke-width="0" stroke="#FCB2D9" d = " M195 277 C195,280.946 184.12,291.31 179.5,289 L173,285 C170.691,285 166.881,273.19 166.5,273 166.5,273 161,274 161,274 161,274 160,272 160,272 160,272 168,265 168,265 168,265 171,266 171,266 171,269.721 175,270.143 175,266 175,266 176,265 176,265 177.122,265 183,260.366 183,265 183,265 183,267 183,267 183,272.324 189,272.324 189,267 189,267 190,266 190,266 190,266 193,265 193,265 193,265 194,266 194,266 203.127,266 195,274.456 195,277  Z"/>

<path  fill="#FCB2D9" stroke-width="0" stroke="#FCB2D9" d = " M261 277 L271.5,289 C276.571,291.535 280.117,285 284,285 284,283.979 289.759,273.371 290.5,273 290.5,273 295,274 295,274 295,274 297,273 297,273 297,271.313 289.884,265 289,265 289,265 288,265 288,265 288,265 286,266 286,266 286,266 285,267 285,267 285,271.111 281,268.672 281,265 279.545,265 273,261.07 273,265 273,265 273,266 273,266 273,273.668 267,271.72 267,267 267,267 266,266 266,266 266,266 263,265 263,265 263,265.974 258.781,267.937 258,269.5 256.398,272.704 261,274.652 261,277  Z"/>

<path  fill="#FF9BCD" stroke-width="0" stroke="#FF9BCD" d = " M319 263 L318,264 C318,264 319,263 319,263  Z"/>

<path  fill="#FF9BCD" stroke-width="0" stroke="#FF9BCD" d = " M331 263 C329.423,263 329,264.762 329,266 330.577,266 331,264.238 331,263  Z"/>

<path  fill="#FF9BCD" stroke-width="0" stroke="#FF9BCD" d = " M176 265 L175,266 C175,266 174,265 174,265 174,265 174,264 174,264 174,264 176,265 176,265  Z"/>

<path  fill="#FF9BCD" stroke-width="0" stroke="#FF9BCD" d = " M281 265 L283,265 C283,265 282,264 282,264 282,264 281,265 281,265  Z"/>

<path  fill="#FF9BCD" stroke-width="0" stroke="#FF9BCD" d = " M288 265 L289,265 C289,265 288,264 288,264 288,264 288,265 288,265  Z"/>

<path  fill="#FF9BCD" stroke-width="0" stroke="#FF9BCD" d = " M318 264 L317,265 C317,265 318,264 318,264  Z"/>

<path  fill="#FEB3D8" stroke-width="0" stroke="#FEB3D8" d = " M171 266 C171,269.721 175,270.143 175,266 175,266 174,265 174,265 174,265 171,266 171,266  Z"/>

<path  fill="#FF9BCD" stroke-width="0" stroke="#FF9BCD" d = " M184 265 L183,267 C183,267 183,265 183,265 183,265 184,265 184,265  Z"/>

<path  fill="#FCB3D7" stroke-width="0" stroke="#FCB3D7" d = " M183 267 C183,272.324 189,272.324 189,267 189,267 189,265 189,265 189,265 184,265 184,265 184,265 183,267 183,267  Z"/>

<path  fill="#FF9BCD" stroke-width="0" stroke="#FF9BCD" d = " M190 266 L189,267 C189,267 189,265 189,265 189,265 190,266 190,266  Z"/>

<path  fill="#FF9BCD" stroke-width="0" stroke="#FF9BCD" d = " M193 265 L194,266 C194,266 193,265 193,265  Z"/>

<path  fill="#FCB3D7" stroke-width="0" stroke="#FCB3D7" d = " M273 266 C273,273.668 267,271.72 267,267 267,267 267,266 267,266 267,264.357 270.765,265 272,265 272,265 273,266 273,266  Z"/>

<path  fill="#FF9BCD" stroke-width="0" stroke="#FF9BCD" d = " M273 265 L273,266 C273,266 272,265 272,265 272,265 273,265 273,265  Z"/>

<path  fill="#FEB3D8" stroke-width="0" stroke="#FEB3D8" d = " M285 266 L285,267 C285,271.111 281,268.672 281,265 281,265 283,265 283,265 283,265 285,266 285,266  Z"/>

<path  fill="#FF9BCD" stroke-width="0" stroke="#FF9BCD" d = " M317 265 L316,266 C316,266 317,265 317,265  Z"/>

<path  fill="#FF9BCD" stroke-width="0" stroke="#FF9BCD" d = " M267 266 L267,267 C267,267 266,266 266,266 266,266 267,266 267,266  Z"/>

<path  fill="#FF9BCD" stroke-width="0" stroke="#FF9BCD" d = " M286 266 L285,267 C285,267 285,266 285,266 285,266 286,266 286,266  Z"/>

<path  fill="#FF9BCD" stroke-width="0" stroke="#FF9BCD" d = " M316 266 L315,267 C315,267 316,266 316,266  Z"/>

<path  fill="#FF9BCD" stroke-width="0" stroke="#FF9BCD" d = " M329 266 L328,267 C328,267 329,266 329,266  Z"/>

<path  fill="#FEB0D8" stroke-width="0" stroke="#FEB0D8" d = " M221 267 L220,268 C220,268 221,267 221,267  Z"/>

<path  fill="#FF9BCD" stroke-width="0" stroke="#FF9BCD" d = " M227 277 C230.236,277 230,279.435 230,282 231.692,282 229,273.244 229,271 226.359,271 227,269.177 227,267 227,267 224,271 224,271 228.021,271 227,273.575 227,277  Z"/>

<path  fill="#FF9BCD" stroke-width="0" stroke="#FF9BCD" d = " M314 267 L313,268 C313,268 314,267 314,267  Z"/>

<path  fill="#FF9BCD" stroke-width="0" stroke="#FF9BCD" d = " M328 267 L327,269 C327,269 328,267 328,267  Z"/>

<path  fill="#FF9BCD" stroke-width="0" stroke="#FF9BCD" d = " M229 271 L232,271 C232,271 230,268 230,268 230,268 229,271 229,271  Z"/>

<path  fill="#FEB0D8" stroke-width="0" stroke="#FEB0D8" d = " M236 268 L237,269 C237,269 236,268 236,268  Z"/>

<path  fill="#FF9BCD" stroke-width="0" stroke="#FF9BCD" d = " M307 269 L306,271 C307.647,271 313,269.732 313,268 313,268 307,269 307,269  Z"/>

<path  fill="#FF9BCD" stroke-width="0" stroke="#FF9BCD" d = " M327 269 L326,270 C326,270 327,269 327,269  Z"/>

<path  fill-rule="evenodd" fill="#FF9BCD" stroke-width="0" stroke="#FF9BCD" d = " M205 295 C205,303.797 209.885,299 217,299 217,301.845 208.656,301 206.5,301 199.012,301 187.927,299.214 181.5,296 180.067,295.284 174,295.162 174,293 186.439,293 167,289.378 167,285 168.53,285 173,289.969 173,285 173,285 179.5,289 179.5,289 184.12,291.31 195,280.946 195,277 195.981,277 203,279.681 203,277 209.821,277 217.077,270 219,270 219,274.321 219.017,273 222,273 222,273 219.5,278 219.5,278 218.46,278 219.59,273.455 216.5,275 212.651,276.924 188.293,290.914 187,293.5 186.156,295.187 189.604,295.448 190.5,295 190.5,295 195.5,291 195.5,291 195.5,291 195,296.5 195,296.5 196.209,298.919 200.812,297.844 202.5,297 203.394,296.553 199.839,292.83 203.5,291 204.687,290.407 205.236,293 207,293 207,293 205,295 205,295  M205 295 C205,291.521 201.521,295 205,295  Z"/>

<path  fill-rule="evenodd" fill="#FF9BCD" stroke-width="0" stroke="#FF9BCD" d = " M243 290 C243,292.241 234,290.783 234,293.5 234,299.042 261.404,305.904 248.5,293 246.523,291.023 245.801,290 243,290  M283 293 C283,296.253 263.296,297.602 260.5,299 253.148,302.676 241.444,301.472 234.5,298 L229,294.5 L228.5,292 C228.091,292 221.557,299 217,299 217,299 222,294.5 222,294.5 223.517,291.465 212.303,290 210,290 210,285.683 216.635,290.933 218.5,290 218.5,290 226,286 226,286 226,289.781 231,290.11 231,287 233.842,287 237.233,291.633 240.5,290 243.18,288.66 239.176,285 239.5,285 244.041,285 254.445,300.027 258.5,298 260.264,297.118 262.261,295.023 261,292.5 261,292.5 258.5,289 258.5,289 258.5,289 265.5,295 265.5,295 266.396,295.448 269.844,295.187 269,293.5 267.654,290.808 244.285,276.892 240.5,275 238.396,273.948 237.83,277 236.5,277 236.5,277 233,272 233,272 236.911,272 237,275.996 237,270 240.771,270 246.135,277 253,277 253,279.681 260.019,277 261,277 261,277 271.5,289 271.5,289 276.571,291.535 280.117,285 284,285 284,287.293 284.997,287 287,287 287,289.155 280.035,290.233 278.5,291 278.5,291 278.5,294 278.5,294 279.449,294 281.451,293 283,293  Z"/>

<path  fill="#FF9BCD" stroke-width="0" stroke="#FF9BCD" d = " M326 270 L325,271 C325,271 326,270 326,270  Z"/>

<path  fill="#FF9BCD" stroke-width="0" stroke="#FF9BCD" d = " M224 271 L223,272 C223,272 224,271 224,271  Z"/>

<path  fill-rule="evenodd" fill="#FFB3D8" stroke-width="0" stroke="#FFB3D8" d = " M206 289 C206,293.42 207.206,289 206,289  M197 289 C197,290.93 198.93,289 197,289  M199 288 C199,289.93 200.93,288 199,288  M214 287 C214,288.93 215.93,287 214,287  M208 287 C208,291.42 209.206,287 208,287  M200 287 C200,288.93 201.93,287 200,287  M215 286 C215,288.091 218.746,286 215,286  M209 286 C209,288.091 212.746,286 209,286  M202 286 C202,287.93 203.93,286 202,286  M211 285 C211,286.93 212.93,285 211,285  M203 285 C203,286.93 204.93,285 203,285  M218 284 C218,285.93 219.93,284 218,284  M213 283 C213,284.93 214.93,283 213,283  M208 292 L207,293 C205.236,293 204.687,290.407 203.5,291 199.839,292.83 203.394,296.553 202.5,297 200.812,297.844 196.209,298.919 195,296.5 195,296.5 195.5,291 195.5,291 195.5,291 190.5,295 190.5,295 189.604,295.448 186.156,295.187 187,293.5 188.293,290.914 212.651,276.924 216.5,275 219.59,273.455 218.46,278 219.5,278 219.5,278 222,273 222,273 222,273 223,272 223,272 223,272 224,271 224,271 228.021,271 227,273.575 227,277 227,277 227,278 227,278 227,278 226,279 226,279 223.754,279 226.086,283 227,283 227,283 226,286 226,286 226,286 218.5,290 218.5,290 216.635,290.933 210,285.683 210,290 210,290 209,291 209,291 209,291 208,292 208,292  Z"/>

<path  fill-rule="evenodd" fill="#FFB3D8" stroke-width="0" stroke="#FFB3D8" d = " M253 286 C253,289.368 258.746,286 253,286  M245 285 C245,287.62 251.838,292.175 253,294.5 L256,294.5 L253,291.5 L245,285  M237 284 C237,285.93 238.93,284 237,284  M242 283 C242,286.781 245.781,283 242,283  M237 278 C237,279.93 238.93,278 237,278  M231 286 L231,287 C233.842,287 237.233,291.633 240.5,290 243.18,288.66 239.176,285 239.5,285 244.041,285 254.445,300.027 258.5,298 260.264,297.118 262.261,295.023 261,292.5 261,292.5 258.5,289 258.5,289 258.5,289 265.5,295 265.5,295 266.396,295.448 269.844,295.187 269,293.5 267.654,290.808 244.285,276.892 240.5,275 238.396,273.948 237.83,277 236.5,277 236.5,277 233,272 233,272 233,272 232,271 232,271 232,271 229,271 229,271 229,273.244 231.692,282 230,282 230,282 230,285 230,285 230,285 231,286 231,286  Z"/>

<path  fill="#FF9BCD" stroke-width="0" stroke="#FF9BCD" d = " M296 277 C298.42,277 306,271.767 306,278 307.076,278 311,276.477 311,275 306.174,275 306,275.112 306,271 303.474,271 300.423,273 297,273 297,273 295,274 295,274 295,274 296,277 296,277  Z"/>

<path  fill="#FF9BCD" stroke-width="0" stroke="#FF9BCD" d = " M323 272 L323,273 C324.747,273 325,272.747 325,271 325,271 323,272 323,272  Z"/>

<path  fill="#C9CACA" stroke-width="0" stroke="#C9CACA" d = " M154 285 L155,285 C155,285 155,284 155,284 155,282.461 151,281.813 151,279 151,279 146,276 146,276 145.03,276 134,269.315 134,273 134,273 135,275 135,275 135,275 136,275 136,275 136,275 138,277 138,277 138,277 139,277 139,277 140.178,277 145,279.572 145,281 145,281 146,281 146,281 147.238,281 149,281.423 149,283 149,283 150,283 150,283 150,283 154,285 154,285  Z"/>

<path  fill="#C9CACA" stroke-width="0" stroke="#C9CACA" d = " M301 285 L303,285 C303,285 304,284 304,284 304,284 306,283 306,283 306,283 307,283 307,283 307,283 309,282 309,282 309,282 310,281 310,281 310,281 311,281 311,281 311,281 313,280 313,280 313,280 314,279 314,279 314,279 315,279 315,279 315,279 316,278 316,278 316,278 317,277 317,277 317,277 318,277 318,277 318,277 319,276 319,276 319,276 320,276 320,276 320,276 321,275 321,275 321,275 322,274 322,274 322,274 323,273 323,273 323,273 323,272 323,272 323,272 315,273 315,273 315,273 313,274 313,274 313,274 311,275 311,275 311,276.477 307.076,278 306,278 306,280.684 301,282.535 301,284 301,284 301,285 301,285  Z"/>

<path  fill="#C8C8CB" stroke-width="0" stroke="#C8C8CB" d = " M167 285 C168.53,285 173,289.969 173,285 170.691,285 166.881,273.19 166.5,273 166.5,273 161,274 161,274 161,275.048 161.473,277 160,277 160,279.167 163,280.855 163,284 163,284 164,284 164,284 164,284 165,285 165,285 165,285 167,285 167,285  Z"/>

<path  fill="#C8C8CB" stroke-width="0" stroke="#C8C8CB" d = " M290 285 L291,285 C291,285 293,284 293,284 293,280.855 296,279.167 296,277 296,277 295,274 295,274 295,274 290.5,273 290.5,273 289.759,273.371 284,283.979 284,285 284,287.293 284.997,287 287,287 287,285.423 288.762,285 290,285  Z"/>

<path  fill="#C9C9C8" stroke-width="0" stroke="#C9C9C8" d = " M315 273 L313,274 C313,274 315,273 315,273  Z"/>

<path  fill="#C9C9C8" stroke-width="0" stroke="#C9C9C8" d = " M313 274 L311,275 C311,275 313,274 313,274  Z"/>

<path  fill="#FF9BCD" stroke-width="0" stroke="#FF9BCD" d = " M322 274 L321,275 C321,275 322,274 322,274  Z"/>

<path  fill="#FF9BCD" stroke-width="0" stroke="#FF9BCD" d = " M136 275 L138,277 C138,277 136,275 136,275  Z"/>

<path  fill="#FEB0D9" stroke-width="0" stroke="#FEB0D9" d = " M163 284 C163,285.579 160.145,285 159,285 159,285 155,284 155,284 155,282.461 151,281.813 151,279 151,271.698 156.536,277 160,277 160,279.167 163,280.855 163,284  Z"/>

<path  fill="#FEB0D9" stroke-width="0" stroke="#FEB0D9" d = " M293 285 L297,285 C297,285 301,284 301,284 301,282.535 306,280.684 306,278 306,271.767 298.42,277 296,277 296,279.167 293,280.855 293,284 293,284 293,285 293,285  Z"/>

<path  fill="#FF9BCD" stroke-width="0" stroke="#FF9BCD" d = " M321 275 L320,276 C320,276 321,275 321,275  Z"/>

<path  fill="#FF9BCD" stroke-width="0" stroke="#FF9BCD" d = " M319 276 L318,277 C318,277 319,276 319,276  Z"/>

<path  fill="#FF9BCD" stroke-width="0" stroke="#FF9BCD" d = " M139 277 C140.178,277 145,279.572 145,281 143.822,281 139,278.428 139,277  Z"/>

<path  fill="#FFC6E2" stroke-width="0" stroke="#FFC6E2" d = " M231 286 L231,287 C231,290.11 226,289.781 226,286 226,286 227,283 227,283 227,283 226,279 226,279 226,279 227,278 227,278 227,278 227,277 227,277 230.236,277 230,279.435 230,282 230,282 230,285 230,285 230,285 231,286 231,286  Z"/>

<path  fill="#C9C9C8" stroke-width="0" stroke="#C9C9C8" d = " M316 278 L317,278 C317,278 317,277 317,277 317,277 316,278 316,278  Z"/>

<path  fill="#FF9BCD" stroke-width="0" stroke="#FF9BCD" d = " M318 277 L317,278 C317,278 317,277 317,277 317,277 318,277 318,277  Z"/>

<path  fill="#FF9BCD" stroke-width="0" stroke="#FF9BCD" d = " M227 278 L226,279 C226,279 227,278 227,278  Z"/>

<path  fill="#FF9BCD" stroke-width="0" stroke="#FF9BCD" d = " M237 278 C237,279.93 238.93,278 237,278  Z"/>

<path  fill="#FF9BCD" stroke-width="0" stroke="#FF9BCD" d = " M316 278 L315,279 C315,279 316,278 316,278  Z"/>

<path  fill="#FF9BCD" stroke-width="0" stroke="#FF9BCD" d = " M226 279 C223.754,279 226.086,283 227,283 227,283 226,279 226,279  Z"/>

<path  fill="#FF9BCD" stroke-width="0" stroke="#FF9BCD" d = " M314 279 L313,280 C313,280 314,279 314,279  Z"/>

<path  fill="#FF9BCD" stroke-width="0" stroke="#FF9BCD" d = " M313 280 L311,281 C311,281 313,280 313,280  Z"/>

<path  fill="#FF9BCD" stroke-width="0" stroke="#FF9BCD" d = " M146 281 C147.238,281 149,281.423 149,283 149,283 146,281 146,281  Z"/>

<path  fill="#FF9BCD" stroke-width="0" stroke="#FF9BCD" d = " M310 281 L309,282 C309,282 310,281 310,281  Z"/>

<path  fill="#FF9BCD" stroke-width="0" stroke="#FF9BCD" d = " M309 282 L307,283 C307,283 309,282 309,282  Z"/>

<path  fill="#FF9BCD" stroke-width="0" stroke="#FF9BCD" d = " M150 283 L154,285 C154,285 150,283 150,283  Z"/>

<path  fill="#FF9BCD" stroke-width="0" stroke="#FF9BCD" d = " M213 283 C213,284.93 214.93,283 213,283  Z"/>

<path  fill="#FF9BCD" stroke-width="0" stroke="#FF9BCD" d = " M242 283 C242,286.781 245.781,283 242,283  Z"/>

<path  fill="#FF9BCD" stroke-width="0" stroke="#FF9BCD" d = " M306 283 L304,284 C304,284 306,283 306,283  Z"/>

<path  fill="#FF9BCD" stroke-width="0" stroke="#FF9BCD" d = " M159 285 C159,289.055 173,289.343 173,293 168.083,293 163.642,289.071 159.5,287 158.381,286.441 155,286.845 155,285 155,285 155,284 155,284 155,284 159,285 159,285  Z"/>

<path  fill="#CBC7CC" stroke-width="0" stroke="#CBC7CC" d = " M173 293 L174,293 C186.439,293 167,289.378 167,285 167,285 165,285 165,285 165,285 164,284 164,284 164,284 163,284 163,284 163,285.579 160.145,285 159,285 159,289.055 173,289.343 173,293  Z"/>

<path  fill="#FF9BCD" stroke-width="0" stroke="#FF9BCD" d = " M164 284 L165,285 C165,285 164,284 164,284  Z"/>

<path  fill="#FF9BCD" stroke-width="0" stroke="#FF9BCD" d = " M218 284 C218,285.93 219.93,284 218,284  Z"/>

<path  fill="#FF9BCD" stroke-width="0" stroke="#FF9BCD" d = " M237 284 C237,285.93 238.93,284 237,284  Z"/>

<path  fill="#FF9BCD" stroke-width="0" stroke="#FF9BCD" d = " M291 285 L293,285 C293,285 293,284 293,284 293,284 291,285 291,285  Z"/>

<path  fill="#FF9BCD" stroke-width="0" stroke="#FF9BCD" d = " M301 285 C301,286.638 297.424,287 296,287 296,287 297,285 297,285 297,285 301,284 301,284 301,284 301,285 301,285  Z"/>

<path  fill="#FF9BCD" stroke-width="0" stroke="#FF9BCD" d = " M304 284 L303,285 C303,285 304,284 304,284  Z"/>

<path  fill="#FF9BCD" stroke-width="0" stroke="#FF9BCD" d = " M203 285 C203,286.93 204.93,285 203,285  Z"/>

<path  fill="#FF9BCD" stroke-width="0" stroke="#FF9BCD" d = " M211 285 C211,286.93 212.93,285 211,285  Z"/>

<path  fill="#FF9BCD" stroke-width="0" stroke="#FF9BCD" d = " M230 285 L231,286 C231,286 230,285 230,285  Z"/>

<path  fill="#FF9BCD" stroke-width="0" stroke="#FF9BCD" d = " M245 285 C245,287.62 251.838,292.175 253,294.5 L256,294.5 L253,291.5 L245,285  Z"/>

<path  fill="#FF9BCD" stroke-width="0" stroke="#FF9BCD" d = " M290 285 C288.762,285 287,285.423 287,287 288.238,287 290,286.577 290,285  Z"/>

<path  fill="#CBC7CC" stroke-width="0" stroke="#CBC7CC" d = " M288 291 C286.576,291 283,291.362 283,293 281.451,293 279.449,294 278.5,294 278.5,294 278.5,291 278.5,291 280.035,290.233 287,289.155 287,287 288.238,287 290,286.577 290,285 290,285 291,285 291,285 291,285 293,285 293,285 293,285 297,285 297,285 297,285 296,287 296,287 296,287 292,289 292,289 290.535,289 288,288.891 288,291  Z"/>

<path  fill="#FF9BCD" stroke-width="0" stroke="#FF9BCD" d = " M202 286 C202,287.93 203.93,286 202,286  Z"/>

<path  fill="#FF9BCD" stroke-width="0" stroke="#FF9BCD" d = " M209 286 C209,288.091 212.746,286 209,286  Z"/>

<path  fill="#FF9BCD" stroke-width="0" stroke="#FF9BCD" d = " M215 286 C215,288.091 218.746,286 215,286  Z"/>

<path  fill="#FF9BCD" stroke-width="0" stroke="#FF9BCD" d = " M253 286 C253,289.368 258.746,286 253,286  Z"/>

<path  fill="#FF9BCD" stroke-width="0" stroke="#FF9BCD" d = " M200 287 C200,288.93 201.93,287 200,287  Z"/>

<path  fill="#FF9BCD" stroke-width="0" stroke="#FF9BCD" d = " M208 287 C208,291.42 209.206,287 208,287  Z"/>

<path  fill="#FF9BCD" stroke-width="0" stroke="#FF9BCD" d = " M214 287 C214,288.93 215.93,287 214,287  Z"/>

<path  fill="#FF9BCD" stroke-width="0" stroke="#FF9BCD" d = " M296 287 L292,289 C293.465,289 296,289.109 296,287  Z"/>

<path  fill="#FF9BCD" stroke-width="0" stroke="#FF9BCD" d = " M199 288 C199,289.93 200.93,288 199,288  Z"/>

<path  fill="#FF9BCD" stroke-width="0" stroke="#FF9BCD" d = " M197 289 C197,290.93 198.93,289 197,289  Z"/>

<path  fill="#FF9BCD" stroke-width="0" stroke="#FF9BCD" d = " M206 289 C206,293.42 207.206,289 206,289  Z"/>

<path  fill="#FF9BCD" stroke-width="0" stroke="#FF9BCD" d = " M292 289 C290.535,289 288,288.891 288,291 289.465,291 292,291.109 292,289  Z"/>

<path  fill="#FF9BCD" stroke-width="0" stroke="#FF9BCD" d = " M210 290 L209,291 C209,291 210,290 210,290  Z"/>

<path  fill="#C7C9C9" stroke-width="0" stroke="#C7C9C9" d = " M205 295 C205,303.797 209.885,299 217,299 217,299 222,294.5 222,294.5 223.517,291.465 212.303,290 210,290 210,290 209,291 209,291 209,291 208,292 208,292 208,292 207,293 207,293 207,293 205,295 205,295  Z"/>

<path  fill="#C7C9C9" stroke-width="0" stroke="#C7C9C9" d = " M243 290 C243,292.241 234,290.783 234,293.5 234,299.042 261.404,305.904 248.5,293 246.523,291.023 245.801,290 243,290  Z"/>

<path  fill="#FF9BCD" stroke-width="0" stroke="#FF9BCD" d = " M209 291 L208,292 C208,292 209,291 209,291  Z"/>

<path  fill="#FF9BCD" stroke-width="0" stroke="#FF9BCD" d = " M288 291 C286.576,291 283,291.362 283,293 284.424,293 288,292.638 288,291  Z"/>

<path  fill="#FF9BCD" stroke-width="0" stroke="#FF9BCD" d = " M208 292 L207,293 C207,293 208,292 208,292  Z"/>

<path  fill="#FFB3D8" stroke-width="0" stroke="#FFB3D8" d = " M205 295 C205,291.521 201.521,295 205,295  Z"/>

</g>
</svg>
